<?xml version="1.0" encoding="UTF-8"?>
<svg xmlns="http://www.w3.org/2000/svg" xmlns:xlink="http://www.w3.org/1999/xlink" width="1320px" height="1760px" viewBox="0 0 1320 1760" version="1.1">
<defs>
















































</defs>

<defs>
<linearGradient x1="50%" y1="6%" x2="50%" y2="99%" id="id-male-6.6_base_5-0">
<stop stop-color="#914537" offset="0%">
</stop>
<stop stop-color="#d47f5c" offset="8%">
</stop>
<stop stop-color="#b1583c" offset="20%">
</stop>
<stop stop-color="#bd6449" offset="34%">
</stop>
<stop stop-color="#ab4f36" offset="71%">
</stop>
<stop stop-color="#890000" offset="100%">
</stop>
</linearGradient>
<linearGradient x1="50%" y1="-10%" x2="50%" y2="84%" id="id-male-6.6_base_5-1">
<stop stop-color="#b05a3c" offset="0%">
</stop>
<stop stop-color="#d47f59" offset="49%">
</stop>
<stop stop-color="#d47f59" offset="100%">
</stop>
</linearGradient>
<linearGradient x1="57%" y1="50%" x2="47%" y2="56%" id="id-male-6.6_base_5-2">
<stop stop-color="#893810" offset="0%">
</stop>
<stop stop-color="#883c15" offset="100%">
</stop>
</linearGradient>
<linearGradient x1="45%" y1="35%" x2="55%" y2="47%" id="id-male-6.6_base_5-3">
<stop stop-color="#b87263" offset="0%">
</stop>
<stop stop-color="#94451b" offset="100%">
</stop>
</linearGradient>
<linearGradient x1="54%" y1="31%" x2="47%" y2="81%" id="id-male-6.6_base_5-4">
<stop stop-color="#b3634b" offset="0%">
</stop>
<stop stop-color="#af5e4a" offset="20%">
</stop>
<stop stop-color="#ab5c40" offset="60%">
</stop>
<stop stop-color="#94441e" offset="81%">
</stop>
<stop stop-color="#8d3b18" offset="100%">
</stop>
</linearGradient>
<linearGradient x1="43%" y1="38%" x2="54%" y2="44%" id="id-male-6.6_base_5-5">
<stop stop-color="#8f4f38" offset="0%">
</stop>
<stop stop-color="#6d2c24" offset="100%">
</stop>
</linearGradient>
<linearGradient x1="50%" y1="40%" x2="58%" y2="82%" id="id-male-6.6_base_5-6">
<stop stop-color="#ce8466" offset="0%">
</stop>
<stop stop-color="#a34a3b" offset="100%">
</stop>
</linearGradient>
<linearGradient x1="50%" y1="41%" x2="49%" y2="66%" id="id-male-6.6_base_5-7">
<stop stop-color="#571b12" offset="0%">
</stop>
<stop stop-color="#863b30" offset="27%">
</stop>
<stop stop-color="#ac5d46" offset="100%">
</stop>
</linearGradient>
<linearGradient x1="63%" y1="4%" x2="25%" y2="77%" id="id-male-6.6_base_5-8">
<stop stop-color="#ec9e83" offset="0%">
</stop>
<stop stop-color="#f0a38d" offset="55%">
</stop>
<stop stop-color="#d88566" offset="100%">
</stop>
</linearGradient>
<linearGradient x1="50%" y1="23%" x2="41%" y2="77%" id="id-male-6.6_base_5-9">
<stop stop-color="#6b1b1c" offset="0%">
</stop>
<stop stop-color="#883a2c" offset="100%">
</stop>
</linearGradient>
<linearGradient x1="47%" y1="22%" x2="55%" y2="89%" id="id-male-6.6_base_5-10">
<stop stop-color="#a55640" offset="0%">
</stop>
<stop stop-color="#ad5c43" offset="100%">
</stop>
</linearGradient>
<linearGradient x1="86%" y1="87%" x2="11%" y2="66%" id="id-male-6.6_base_5-11">
<stop stop-color="#9f4b3c" offset="0%">
</stop>
<stop stop-color="#a95946" offset="100%">
</stop>
</linearGradient>
<linearGradient x1="71%" y1="11%" x2="50%" y2="100%" id="id-male-6.6_base_5-12">
<stop stop-color="#b1583c" offset="0%" stop-opacity="0">
</stop>
<stop stop-color="#b46953" offset="100%">
</stop>
</linearGradient>
<linearGradient x1="66%" y1="46%" x2="56%" y2="43%" id="id-male-6.6_base_5-13">
<stop stop-color="#914640" offset="0%">
</stop>
<stop stop-color="#8e3b3d" offset="100%">
</stop>
</linearGradient>
<linearGradient x1="100%" y1="41%" x2="50%" y2="63%" id="id-male-6.6_base_5-14">
<stop stop-color="#6a1b1c" offset="0%">
</stop>
<stop stop-color="#631d1a" offset="100%">
</stop>
</linearGradient>
<linearGradient x1="69%" y1="20%" x2="50%" y2="100%" id="id-male-6.6_base_5-15">
<stop stop-color="#a0493e" offset="0%">
</stop>
<stop stop-color="#ab5c49" offset="100%">
</stop>
</linearGradient>
<linearGradient x1="36%" y1="20%" x2="57%" y2="81%" id="id-male-6.6_base_5-16">
<stop stop-color="#e39d82" offset="0%">
</stop>
<stop stop-color="#c3795d" offset="100%">
</stop>
</linearGradient>
<linearGradient x1="26%" y1="83%" x2="92%" y2="50%" id="id-male-6.6_base_5-17">
<stop stop-color="#d7835f" offset="0%">
</stop>
<stop stop-color="#ad6545" offset="100%" stop-opacity="0">
</stop>
</linearGradient>
<linearGradient x1="17%" y1="56%" x2="85%" y2="45%" id="id-male-6.6_base_5-18">
<stop stop-color="#e49478" offset="0%">
</stop>
<stop stop-color="#ca8266" offset="52%">
</stop>
<stop stop-color="#bf6e50" offset="100%">
</stop>
</linearGradient>
<linearGradient x1="17%" y1="24%" x2="70%" y2="81%" id="id-male-6.6_base_5-19">
<stop stop-color="#ed9e85" offset="0%">
</stop>
<stop stop-color="#b9694f" offset="100%">
</stop>
</linearGradient>
<linearGradient x1="26%" y1="42%" x2="80%" y2="75%" id="id-male-6.6_base_5-20">
<stop stop-color="#eda186" offset="0%">
</stop>
<stop stop-color="#d68360" offset="100%" stop-opacity="0">
</stop>
</linearGradient>
<linearGradient x1="29%" y1="56%" x2="77%" y2="50%" id="id-male-6.6_base_5-21">
<stop stop-color="#f4ab96" offset="0%">
</stop>
<stop stop-color="#dd9470" offset="100%" stop-opacity="0">
</stop>
</linearGradient>
<linearGradient x1="74%" y1="24%" x2="34%" y2="74%" id="id-male-6.6_base_5-22">
<stop stop-color="#c16e5c" offset="0%">
</stop>
<stop stop-color="#d07957" offset="100%">
</stop>
</linearGradient>
<linearGradient x1="66%" y1="100%" x2="40%" y2="0%" id="id-male-6.6_base_5-23">
<stop stop-color="#c86f52" offset="0%">
</stop>
<stop stop-color="#f1a793" offset="46%">
</stop>
<stop stop-color="#ce7854" offset="100%">
</stop>
</linearGradient>
<linearGradient x1="28%" y1="76%" x2="73%" y2="20%" id="id-male-6.6_base_5-24">
<stop stop-color="#c56649" offset="0%">
</stop>
<stop stop-color="#ae4636" offset="67%">
</stop>
<stop stop-color="#b24a39" offset="100%">
</stop>
</linearGradient>
<linearGradient x1="52%" y1="13%" x2="59%" y2="75%" id="id-male-6.6_base_5-25">
<stop stop-color="#9f362e" offset="0%">
</stop>
<stop stop-color="#bc5940" offset="100%">
</stop>
</linearGradient>
<linearGradient x1="66%" y1="59%" x2="24%" y2="66%" id="id-male-6.6_base_5-26">
<stop stop-color="#ab5c47" offset="0%">
</stop>
<stop stop-color="#ce8467" offset="100%">
</stop>
</linearGradient>
<linearGradient x1="41%" y1="11%" x2="61%" y2="81%" id="id-male-6.6_base_5-27">
<stop stop-color="#de8c76" offset="0%">
</stop>
<stop stop-color="#bb5a4a" offset="100%">
</stop>
</linearGradient>
<linearGradient x1="19%" y1="58%" x2="66%" y2="43%" id="id-male-6.6_base_5-28">
<stop stop-color="#e09d85" offset="0%">
</stop>
<stop stop-color="#c68266" offset="100%">
</stop>
</linearGradient>
<linearGradient x1="73%" y1="50%" x2="30%" y2="53%" id="id-male-6.6_base_5-29">
<stop stop-color="#9b5f42" offset="0%">
</stop>
<stop stop-color="#b67b61" offset="100%">
</stop>
</linearGradient>
<linearGradient x1="31%" y1="0%" x2="50%" y2="100%" id="id-male-6.6_base_5-30">
<stop stop-color="#eea190" offset="0%">
</stop>
<stop stop-color="#e69987" offset="100%">
</stop>
</linearGradient>
<linearGradient x1="29%" y1="43%" x2="65%" y2="100%" id="id-male-6.6_base_5-31">
<stop stop-color="#e4987e" offset="0%">
</stop>
<stop stop-color="#c76d4e" offset="100%">
</stop>
</linearGradient>
<linearGradient x1="13%" y1="78%" x2="84%" y2="50%" id="id-male-6.6_base_5-32">
<stop stop-color="#c87e68" offset="0%">
</stop>
<stop stop-color="#cb715f" offset="100%">
</stop>
</linearGradient>
<linearGradient x1="50%" y1="0%" x2="36%" y2="100%" id="id-male-6.6_base_5-33">
<stop stop-color="#e6977f" offset="0%">
</stop>
<stop stop-color="#de8d74" offset="100%">
</stop>
</linearGradient>
<linearGradient x1="50%" y1="28%" x2="64%" y2="55%" id="id-male-6.6_base_5-34">
<stop stop-color="#e49777" offset="0%">
</stop>
<stop stop-color="#df8e6e" offset="100%">
</stop>
</linearGradient>
<linearGradient x1="40%" y1="55%" x2="62%" y2="71%" id="id-male-6.6_base_5-35">
<stop stop-color="#ce7853" offset="0%">
</stop>
<stop stop-color="#c46c4c" offset="100%">
</stop>
</linearGradient>
<linearGradient x1="9%" y1="37%" x2="88%" y2="55%" id="id-male-6.6_base_5-36">
<stop stop-color="#ad5d46" offset="0%">
</stop>
<stop stop-color="#913a39" offset="100%">
</stop>
</linearGradient>
<linearGradient x1="62%" y1="19%" x2="50%" y2="100%" id="id-male-6.6_base_5-37">
<stop stop-color="#ca7352" offset="0%">
</stop>
<stop stop-color="#ab4d3c" offset="100%">
</stop>
</linearGradient>
<linearGradient x1="45%" y1="18%" x2="51%" y2="67%" id="id-male-6.6_base_5-38">
<stop stop-color="#f1a68e" offset="0%">
</stop>
<stop stop-color="#d47c59" offset="100%">
</stop>
</linearGradient>
<linearGradient x1="50%" y1="0%" x2="50%" y2="100%" id="id-male-6.6_base_5-39">
<stop stop-color="#f1a38c" offset="0%">
</stop>
<stop stop-color="#d07b57" offset="100%">
</stop>
</linearGradient>
<linearGradient x1="45%" y1="50%" x2="58%" y2="50%" id="id-male-6.6_base_5-40">
<stop stop-color="#a84b37" offset="0%">
</stop>
<stop stop-color="#cd7c64" offset="100%">
</stop>
</linearGradient>
<linearGradient x1="33%" y1="74%" x2="77%" y2="42%" id="id-male-6.6_base_5-41">
<stop stop-color="#c47259" offset="0%">
</stop>
<stop stop-color="#c87355" offset="100%">
</stop>
</linearGradient>
<linearGradient x1="63%" y1="59%" x2="38%" y2="59%" id="id-male-6.6_base_5-42">
<stop stop-color="#ce7753" offset="0%">
</stop>
<stop stop-color="#dc8a6a" offset="100%">
</stop>
</linearGradient>
<linearGradient x1="50%" y1="0%" x2="50%" y2="100%" id="id-male-6.6_base_5-43">
<stop stop-color="#cc8672" offset="0%">
</stop>
<stop stop-color="#a24638" offset="100%">
</stop>
</linearGradient>
<linearGradient x1="47%" y1="47%" x2="53%" y2="50%" id="id-male-6.6_base_5-44">
<stop stop-color="#ca9b87" offset="0%">
</stop>
<stop stop-color="#a04c40" offset="100%">
</stop>
</linearGradient>
<linearGradient x1="50%" y1="0%" x2="50%" y2="100%" id="id-male-6.6_base_5-45">
<stop stop-color="#ab5b4f" offset="0%">
</stop>
<stop stop-color="#ab5a53" offset="100%">
</stop>
</linearGradient>
<linearGradient x1="50%" y1="11%" x2="50%" y2="100%" id="id-male-6.6_base_5-46">
<stop stop-color="#b98472" offset="0%">
</stop>
<stop stop-color="#cd8870" offset="100%">
</stop>
</linearGradient>
<linearGradient x1="0%" y1="55%" x2="100%" y2="55%" id="id-male-6.6_base_5-47">
<stop stop-color="#b6746e" offset="0%">
</stop>
<stop stop-color="#9e4248" offset="100%">
</stop>
</linearGradient>
<linearGradient x1="50%" y1="37%" x2="50%" y2="100%" id="id-male-6.6_base_5-48">
<stop stop-color="#c1846e" offset="0%">
</stop>
<stop stop-color="#a32e2c" offset="100%">
</stop>
</linearGradient>
<linearGradient x1="49%" y1="41%" x2="51%" y2="77%" id="id-male-6.6_base_5-49">
<stop stop-color="#9f5844" offset="0%">
</stop>
<stop stop-color="#872f14" offset="59%">
</stop>
<stop stop-color="#a44b3b" offset="100%">
</stop>
</linearGradient>
<linearGradient x1="33%" y1="47%" x2="59%" y2="56%" id="id-male-6.6_base_5-50">
<stop stop-color="#a55b45" offset="0%">
</stop>
<stop stop-color="#763517" offset="100%">
</stop>
</linearGradient>
</defs>
<g transform="translate(304,473)" id="id-male-6.6_base_5-51">
<polygon points="174 662 139 824 137 906 146 1082 171 1154 176 1211 174 1230 175 1284 287 1284 284 1265 308 1195 306 1124 345 952 343 912 353 879 362 881 371 877 383 904 391 970 434 1079 457 1202 475 1252 475 1284 596 1284 600 1225 591 1146 609 1103 612 997 596 842 545 671 539 640 528 606 531 569 509 498 522 403 539 360 539 348 563 464 576 498 585 574 637 704 646 760 646 778 626 822 624 853 631 879 629 901 632 920 637 931 647 931 657 920 655 877 659 867 670 874 672 899 676 903 667 923 644 934 643 945 666 939 664 948 643 960 640 982 657 971 674 969 690 945 701 933 704 926 707 923 713 892 718 871 704 832 696 786 703 768 693 725 693 521 652 425 629 282 626 203 612 175 567 156 548 141 530 139 479 114 422 73 416 42 415 1 285 0 284 73 279 83 242 114 196 137 171 139 155 156 108 175 91 228 91 287 68 431 30 516 23 602 28 725 16 764 21 782 0 874 18 932 49 968 59 970 83 982 83 965 78 960 57 949 55 941 78 948 78 936 66 929 53 923 45 906 51 875 61 866 66 877 63 922 75 927 86 925 93 899 90 877 96 856 96 824 75 778 77 738 108 637 139 562 142 495 159 458 180 358 199 403 203 461 211 504 188 564 191 608" fill="url(#id-male-6.6_base_5-0)" id="id-male-6.6_base_5-52">
</polygon>
<polygon points="91 287 68 431 30 516 23 602 72 688 117 614 98 452 109 469 123 336 102 372 109 294 88 309 109 285" fill="url(#id-male-6.6_base_5-1)" id="id-male-6.6_base_5-52">
</polygon>
<polygon points="383 906 391 972 434 1081 457 1204 475 1254 475 1287 596 1287 600 1226 591 1148 609 1105 612 999 602 904 584 908 584 846 535 683 456 705 382 878" fill="url(#id-male-6.6_base_5-2)" id="id-male-6.6_base_5-52">
</polygon>
<polygon points="137 907 146 1083 171 1156 176 1212 174 1232 175 1286 175 1287 287 1287 284 1266 308 1197 306 1126 345 954 343 923 293 814 263 724 247 711" fill="url(#id-male-6.6_base_5-3)" id="id-male-6.6_base_5-52">
</polygon>
<polygon points="545 673 539 641 528 608 531 571 509 500 522 405 539 361 539 350 563 465 576 500 601 540 660 491 688 529 652 427 629 283 626 205 612 177 568 157 548 142 530 141 479 116 422 75 416 44 415 3 360 3 360 715 462 724" fill="url(#id-male-6.6_base_5-4)" id="id-male-6.6_base_5-52">
</polygon>
<polygon points="83 984 59 972 49 970 21 932 19 903 7 879 0 874 11 824 38 786 38 814 56 786 78 800 91 822 83 879 69 882 63 855 51 877 45 908 47 930 37 930 50 938 53 954 49 960 56 956 83 973" fill="#ce7753" id="id-male-6.6_base_5-57">
</polygon>
<polygon points="66 855 69 882 63 855 51 877 45 908 42 870 58 825" fill="url(#id-male-6.6_base_5-5)" id="id-male-6.6_base_5-57">
</polygon>
<polygon points="83 879 69 882 70 868" fill="#e39273" id="id-male-6.6_base_5-57">
</polygon>
<polygon points="481 376 513 349 558 291 522 368" fill="#a2656c" id="id-male-6.6_base_5-60">
</polygon>
<polygon points="313 697 260 560 246 448 259 424 355 408 361 366 317 404 285 409 267 378 313 343 394 351 431 378 420 404 368 399 371 404 449 421 466 441 449 510 466 547 406 697 358 717" fill="url(#id-male-6.6_base_5-6)" id="id-male-6.6_base_5-61">
</polygon>
<polygon points="410 90 430 82 423 76 416 45 416 7 286 9 286 48 283 76 278 86 244 114 195 139 366 139 390 70 410 26" fill="url(#id-male-6.6_base_5-7)" id="id-male-6.6_base_5-62">
</polygon>
<polygon points="182 180 133 231 97 289 97 231 113 182 165 159" fill="url(#id-male-6.6_base_5-8)" id="id-male-6.6_base_5-63">
</polygon>
<polygon points="346 107 384 55 409 31 414 23 299 31" fill="url(#id-male-6.6_base_5-9)" id="id-male-6.6_base_5-64">
</polygon>
<polygon points="287 93 295 32 323 129" fill="url(#id-male-6.6_base_5-10)" id="id-male-6.6_base_5-65">
</polygon>
<polygon points="336 139 314 151 270 146 224 139" fill="#c0775d" id="id-male-6.6_base_5-66">
</polygon>
<polygon points="410 84 409 136 461 129" fill="url(#id-male-6.6_base_5-11)" id="id-male-6.6_base_5-67">
</polygon>
<polygon points="173 246 167 286 191 351 263 386 328 330 359 330 359 152 348 139 336 139 309 152" fill="url(#id-male-6.6_base_5-12)" id="id-male-6.6_base_5-68">
</polygon>
<polygon points="464 159 516 190 500 159" fill="url(#id-male-6.6_base_5-13)" id="id-male-6.6_base_5-69">
</polygon>
<polygon points="302 31 346 72 382 62 409 37 416 28 416 13" fill="url(#id-male-6.6_base_5-14)" id="id-male-6.6_base_5-70">
</polygon>
<polygon points="263 151 191 202 219 151" fill="#bb6d52" id="id-male-6.6_base_5-71">
</polygon>
<polygon points="154 206 170 170 122 188" fill="#ffb4a1" id="id-male-6.6_base_5-72">
</polygon>
<polygon points="358 285 344 299 323 318 305 354 358 345 354 305" fill="url(#id-male-6.6_base_5-15)" id="id-male-6.6_base_5-73">
</polygon>
<polygon points="260 361 265 387 203 371 191 347" fill="#9e4d3d" id="id-male-6.6_base_5-74">
</polygon>
<polygon points="198 362 181 359 167 284" fill="#760000" id="id-male-6.6_base_5-75">
</polygon>
<polygon points="477 341 477 335 488 326 496 325 509 338 496 348 485 354" fill="#883232" id="id-male-6.6_base_5-76">
</polygon>
<polygon points="314 151 342 220 317 293 237 351 209 318 172 251 185 205 270 146" fill="url(#id-male-6.6_base_5-16)" id="id-male-6.6_base_5-77">
</polygon>
<polygon points="314 151 330 238 209 318 172 251 185 205 270 146" fill="url(#id-male-6.6_base_5-17)" id="id-male-6.6_base_5-77">
</polygon>
<polygon points="314 151 350 205 220 227 185 205 270 146" fill="url(#id-male-6.6_base_5-18)" opacity="0.369" id="id-male-6.6_base_5-77">
</polygon>
<polygon points="211 335 223 322 242 327 244 332 235 353 213 349" fill="#983d37" id="id-male-6.6_base_5-80">
</polygon>
<polygon points="224 339 226 342 226 345 222 349 235 350 242 333 230 338 227 335" fill="#a6607c" id="id-male-6.6_base_5-81">
</polygon>
<polygon points="488 343 491 347 486 351 479 338 489 327 495 327 493 336" fill="#a84e5a" id="id-male-6.6_base_5-82">
</polygon>
<polygon points="485 339 488 343 493 337" fill="#d57d5e" id="id-male-6.6_base_5-83">
</polygon>
<polygon points="359 162 359 291 406 325 455 347 529 267 463 182 415 166" fill="url(#id-male-6.6_base_5-19)" id="id-male-6.6_base_5-84">
</polygon>
<polygon points="359 178 359 281 391 302 391 249 489 270 461 189 415 166" fill="url(#id-male-6.6_base_5-20)" id="id-male-6.6_base_5-84">
</polygon>
<polygon points="359 178 359 219 472 220 461 189 415 166 371 163" fill="url(#id-male-6.6_base_5-21)" id="id-male-6.6_base_5-84">
</polygon>
<polygon points="358 178 372 168 440 156 413 137 378 158 411 80 396 60 358 146" fill="url(#id-male-6.6_base_5-22)" id="id-male-6.6_base_5-87">
</polygon>
<polygon points="346 140 358 152 372 129 400 48 369 86 364 130" fill="#b66b53" id="id-male-6.6_base_5-88">
</polygon>
<polygon points="591 281 601 226 559 159 514 159 523 138 499 156 571 263" fill="url(#id-male-6.6_base_5-23)" id="id-male-6.6_base_5-89">
</polygon>
<polygon points="609 298 626 332 629 285 627 227 614 207 617 251" fill="#9a84a9" id="id-male-6.6_base_5-90">
</polygon>
<polygon points="554 159 567 157 612 177 614 192 579 175 603 207 601 226" fill="#c2694b" id="id-male-6.6_base_5-91">
</polygon>
<polygon points="625 840 700 762 688 738 679 784 648 776 626 822" fill="url(#id-male-6.6_base_5-24)" id="id-male-6.6_base_5-92">
</polygon>
<polygon points="648 862 648 845 661 825 661 870 654 878 657 922 652 929 637 929 632 914 632 893 632 877 644 888" fill="#8f3209" id="id-male-6.6_base_5-93">
</polygon>
<polygon points="554 375 577 333 607 451 594 508 568 462" fill="#c86d5d" id="id-male-6.6_base_5-94">
</polygon>
<polygon points="641 823 648 826 697 896 713 873 682 781" fill="url(#id-male-6.6_base_5-25)" id="id-male-6.6_base_5-92">
</polygon>
<polygon points="623 326 643 425 633 431 693 523 652 427 636 326 625 315" fill="#9e7994" id="id-male-6.6_base_5-96">
</polygon>
<polygon points="628 274 638 339 623 314" fill="#8e465a" id="id-male-6.6_base_5-97">
</polygon>
<polygon points="693 523 695 567 685 525 618 416 633 431" fill="#913f53" id="id-male-6.6_base_5-98">
</polygon>
<polygon points="640 463 599 539 601 571 634 655 646 703 650 754 658 640 660 491" fill="#ca6e4e" id="id-male-6.6_base_5-99">
</polygon>
<polygon points="610 531 648 646 652 546 638 479" fill="#dc8a72" id="id-male-6.6_base_5-99">
</polygon>
<polygon points="693 748 677 730 677 700 660 491 685 525 691 552 684 727" fill="#ac4536" id="id-male-6.6_base_5-101">
</polygon>
<polygon points="691 746 703 768 693 727 695 567 691 551 683 727" fill="#95a2d2" id="id-male-6.6_base_5-102">
</polygon>
<polygon points="260 559 310 683 355 716 263 713 238 685 195 582" fill="url(#id-male-6.6_base_5-26)" id="id-male-6.6_base_5-103">
</polygon>
<polygon points="637 931 636 919 639 914 653 914 653 922 651 929 648 931 644 933" fill="#a84536" id="id-male-6.6_base_5-104">
</polygon>
<polygon points="637 861 637 882 641 890 653 886 649 861" fill="#b14937" id="id-male-6.6_base_5-105">
</polygon>
<polygon points="691 871 693 912 688 936 669 956 671 965 696 924 696 909 705 877" fill="#b85640" id="id-male-6.6_base_5-106">
</polygon>
<polygon points="703 768 684 788 693 837 712 873 702 908 701 933 707 925 718 873 704 834 697 788" fill="#91350b" id="id-male-6.6_base_5-107">
</polygon>
<polygon points="667 939 643 946 644 934 657 928 667 922 676 903 672 899 670 874 660 870 660 854 671 867 680 873 680 902 677 920" fill="#7a231b" id="id-male-6.6_base_5-108">
</polygon>
<polygon points="361 510 359 634 426 561 420 535" fill="url(#id-male-6.6_base_5-27)" opacity="0.626" id="id-male-6.6_base_5-109">
</polygon>
<polygon points="319 403 289 399 268 380 313 343 361 348 362 372" fill="url(#id-male-6.6_base_5-28)" id="id-male-6.6_base_5-110">
</polygon>
<polygon points="171 141 168 151 180 151 204 139 196 138" fill="url(#id-male-6.6_base_5-29)" id="id-male-6.6_base_5-111">
</polygon>
<polygon points="359 308 362 360 382 334" fill="#dd9481" opacity="0.625" id="id-male-6.6_base_5-112">
</polygon>
<polygon points="360 546 360 584 387 551 374 540" fill="url(#id-male-6.6_base_5-30)" opacity="0.626" id="id-male-6.6_base_5-113">
</polygon>
<polygon points="346 542 360 547 373 540 360 534" fill="#86000c" id="id-male-6.6_base_5-114">
</polygon>
<polygon points="325 545 277 503 259 561 308 579" fill="url(#id-male-6.6_base_5-31)" opacity="0.758" id="id-male-6.6_base_5-115">
</polygon>
<polygon points="389 499 460 467 449 510 404 520" fill="url(#id-male-6.6_base_5-32)" id="id-male-6.6_base_5-116">
</polygon>
<polygon points="364 491 361 403 420 428" fill="url(#id-male-6.6_base_5-33)" opacity="0.758" id="id-male-6.6_base_5-117">
</polygon>
<polygon points="262 446 333 446 323 469 279 492" fill="url(#id-male-6.6_base_5-34)" opacity="0.758" id="id-male-6.6_base_5-118">
</polygon>
<polygon points="259 425 279 496 259 561 236 528 213 443 227 425 243 447" fill="url(#id-male-6.6_base_5-35)" id="id-male-6.6_base_5-119">
</polygon>
<polygon points="412 343 444 374 466 383 499 351 447 354 416 339" fill="url(#id-male-6.6_base_5-36)" id="id-male-6.6_base_5-120">
</polygon>
<polygon points="164 252 163 278 128 284" fill="#953f32" id="id-male-6.6_base_5-121">
</polygon>
<polygon points="58 478 88 441 88 416 69 430 66 456" fill="url(#id-male-6.6_base_5-37)" id="id-male-6.6_base_5-122">
</polygon>
<polygon points="76 684 69 634 61 517 89 474 111 569" fill="url(#id-male-6.6_base_5-38)" id="id-male-6.6_base_5-123">
</polygon>
<polygon points="53 489 47 539 69 635 76 684 53 760 40 781 16 766 28 727 23 604 28 544" fill="url(#id-male-6.6_base_5-39)" id="id-male-6.6_base_5-124">
</polygon>
<polygon points="136 452 127 497 153 460 177 340 170 300" fill="#a34532" id="id-male-6.6_base_5-125">
</polygon>
<polygon points="181 359 159 460 143 497 142 514 123 532 109 514 108 490 127 497 153 460 177 340" fill="#943f3a" id="id-male-6.6_base_5-125">
</polygon>
<polygon points="38 747 28 772 38 788 44 772" fill="#e39275" id="id-male-6.6_base_5-127">
</polygon>
<polygon points="359 379 342 413 361 444 377 417" fill="url(#id-male-6.6_base_5-40)" id="id-male-6.6_base_5-128">
</polygon>
<polygon points="196 581 260 561 229 519" fill="url(#id-male-6.6_base_5-41)" id="id-male-6.6_base_5-129">
</polygon>
<polygon points="74 929 66 925 69 909 78 905 86 912 83 928" fill="url(#id-male-6.6_base_5-42)" id="id-male-6.6_base_5-130">
</polygon>
<polygon points="20 903 7 880 21 851 28 871" fill="#dc8a6a" id="id-male-6.6_base_5-131">
</polygon>
<polygon points="218 1123 203 1040 191 913 171 1090 182 1169 230 1208 261 1237 270 1213 234 1175 212 1157 272 1191 281 1169" fill="url(#id-male-6.6_base_5-43)" opacity="0.808" id="id-male-6.6_base_5-132">
</polygon>
<polygon points="182 1207 181 1155 213 1106 236 1166 230 1210" fill="#b15d4d" id="id-male-6.6_base_5-133">
</polygon>
<polygon points="187 902 211 1137 227 1161 275 1187 299 1137 272 1009 299 918 269 791 211 836" fill="url(#id-male-6.6_base_5-44)" id="id-male-6.6_base_5-134">
</polygon>
<polygon points="288 1079 311 1040 311 942 295 903 264 1019 275 1188 301 1137" fill="url(#id-male-6.6_base_5-45)" id="id-male-6.6_base_5-135">
</polygon>
<polygon points="584 908 604 1008 608 1106 614 998 599 887" fill="#948ab4" id="id-male-6.6_base_5-136">
</polygon>
<polygon points="430 886 488 1140 535 1115 561 925 566 886 536 816 500 786" fill="url(#id-male-6.6_base_5-46)" opacity="0.792" id="id-male-6.6_base_5-137">
</polygon>
<polygon points="581 921 588 1011 584 1112 576 1162 544 1046 566 886" fill="url(#id-male-6.6_base_5-47)" id="id-male-6.6_base_5-138">
</polygon>
<polygon points="561 1247 518 1200 472 1112 494 931 505 931 594 1188 579 1244" fill="url(#id-male-6.6_base_5-48)" id="id-male-6.6_base_5-139">
</polygon>
<polygon points="531 1221 539 1263 536 1269 516 1287 509 1287 500 1263 513 1199 488 1226 462 1170 472 1101 427 1010 398 877 469 771 518 739 536 818 500 787 433 890 477 1078 534 1212" fill="url(#id-male-6.6_base_5-49)" id="id-male-6.6_base_5-140">
</polygon>
<polygon points="321 1058 284 852 258 721 266 733 371 879 362 883 354 881 343 914 345 954" fill="#99513d" id="id-male-6.6_base_5-141">
</polygon>
<polygon points="429 1068 424 875 536 705 454 704 380 865 384 906 391 972" fill="#9b4949" opacity="0.394" id="id-male-6.6_base_5-142">
</polygon>
<polygon points="175 1262 194 1287 206 1287 225 1226 213 1249 175 1221 174 1232" fill="#792e06" id="id-male-6.6_base_5-143">
</polygon>
<polygon points="528 1227 554 1234 569 1169 549 1168" fill="#b9645b" id="id-male-6.6_base_5-144">
</polygon>
<polygon points="546 678 545 672 539 641 528 608 531 571 509 500 522 405 539 361 539 350 547 389 542 330 558 289 517 369 528 369 517 411 499 442 509 465 488 531 507 525 522 585 449 724" fill="#792e2e" id="id-male-6.6_base_5-52">
</polygon>
<polygon points="402 722 490 609 522 585 449 723" fill="#9e4c3c" id="id-male-6.6_base_5-146">
</polygon>
<polygon points="174 664 139 826 137 907 139 937 238 690 352 886 354 881 362 883 371 879 383 906 471 773 548 712 596 844 545 673 539 641 478 697 449 723 278 705 232 657 188 566 191 610" fill="url(#id-male-6.6_base_5-50)" id="id-male-6.6_base_5-52">
</polygon>
<polygon points="139 836 225 709 167 697 139 826" fill="#8f361d" id="id-male-6.6_base_5-148">
</polygon>
<polygon points="518 734 596 843 547 678" fill="#711c13" id="id-male-6.6_base_5-149">
</polygon>
<polygon points="415 778 447 726 314 744 329 762" fill="#af5544" opacity="0.52" id="id-male-6.6_base_5-52">
</polygon>
<polygon points="411 685 463 666 456 573" fill="#823a34" id="id-male-6.6_base_5-151">
</polygon>
</g>
<defs>
<linearGradient x1="53%" y1="5%" x2="47%" y2="91%" id="id-male-6.8_face_5-0">
<stop stop-color="#f6a693" offset="0%">
</stop>
<stop stop-color="#eb8e76" offset="82%">
</stop>
<stop stop-color="#f3b197" offset="100%">
</stop>
</linearGradient>
<linearGradient x1="62%" y1="61%" x2="50%" y2="36%" id="id-male-6.8_face_5-1">
<stop stop-color="#cc4e3e" offset="0%">
</stop>
<stop stop-color="#a33c30" offset="100%">
</stop>
</linearGradient>
<linearGradient x1="50%" y1="13%" x2="57%" y2="81%" id="id-male-6.8_face_5-2">
<stop stop-color="#ce6f5a" offset="0%">
</stop>
<stop stop-color="#cc4e3e" offset="52%">
</stop>
<stop stop-color="#ffa791" offset="100%">
</stop>
</linearGradient>
<linearGradient x1="50%" y1="0%" x2="54%" y2="88%" id="id-male-6.8_face_5-3">
<stop stop-color="#b36e6c" offset="0%">
</stop>
<stop stop-color="#bb6e6f" offset="100%">
</stop>
</linearGradient>
<linearGradient x1="36%" y1="75%" x2="36%" y2="18%" id="id-male-6.8_face_5-4">
<stop stop-color="#85433d" offset="0%">
</stop>
<stop stop-color="#590f13" offset="100%">
</stop>
</linearGradient>
<linearGradient x1="48%" y1="84%" x2="4%" y2="84%" id="id-male-6.8_face_5-5">
<stop stop-color="#b6826b" offset="0%">
</stop>
<stop stop-color="#8f4e43" offset="100%">
</stop>
</linearGradient>
<linearGradient x1="23%" y1="68%" x2="57%" y2="19%" id="id-male-6.8_face_5-6">
<stop stop-color="#cb927f" offset="0%">
</stop>
<stop stop-color="#e6b7a1" offset="100%">
</stop>
</linearGradient>
<linearGradient x1="59%" y1="57%" x2="48%" y2="96%" id="id-male-6.8_face_5-7">
<stop stop-color="#bb7a65" offset="0%">
</stop>
<stop stop-color="#c2826a" offset="100%">
</stop>
</linearGradient>
<linearGradient x1="14%" y1="53%" x2="88%" y2="46%" id="id-male-6.8_face_5-8">
<stop stop-color="#c9897b" offset="0%">
</stop>
<stop stop-color="#c38874" offset="25%">
</stop>
<stop stop-color="#cc9781" offset="66%">
</stop>
<stop stop-color="#d6a18a" offset="100%">
</stop>
</linearGradient>
<linearGradient x1="100%" y1="24%" x2="44%" y2="69%" id="id-male-6.8_face_5-9">
<stop stop-color="#e29985" offset="0%">
</stop>
<stop stop-color="#e19883" offset="100%">
</stop>
</linearGradient>
<linearGradient x1="24%" y1="33%" x2="50%" y2="82%" id="id-male-6.8_face_5-10">
<stop stop-color="#e6ae91" offset="0%">
</stop>
<stop stop-color="#ffdabd" offset="49%">
</stop>
<stop stop-color="#e8a490" offset="100%">
</stop>
</linearGradient>
<linearGradient x1="90%" y1="75%" x2="18%" y2="60%" id="id-male-6.8_face_5-11">
<stop stop-color="#bc8770" offset="0%">
</stop>
<stop stop-color="#874f3d" offset="100%">
</stop>
</linearGradient>
<linearGradient x1="0%" y1="50%" x2="33%" y2="53%" id="id-male-6.8_face_5-12">
<stop stop-color="#764b36" offset="0%">
</stop>
<stop stop-color="#ae795f" offset="100%">
</stop>
</linearGradient>
<linearGradient x1="60%" y1="88%" x2="92%" y2="78%" id="id-male-6.8_face_5-13">
<stop stop-color="#dfa491" offset="0%">
</stop>
<stop stop-color="#f8baa3" offset="100%">
</stop>
</linearGradient>
</defs>
<g transform="translate(548,259)" id="id-male-6.8_face_5-14">
<g id="id-male-6.8_face_5-15">
<g transform="translate(0,121)" id="id-male-6.8_face_5-16">
<polygon points="199 13 214 3 222 9 221 25 214 38 214 43 210 54 208 65 197 70 190 64" fill="url(#id-male-6.8_face_5-0)" id="id-male-6.8_face_5-17">
</polygon>
<polygon points="197 24 209 14 216 9 219 10 220 22 214 37 195 43" fill="url(#id-male-6.8_face_5-1)" id="id-male-6.8_face_5-18">
</polygon>
<polygon points="203 38 208 34 199 25 203 22 209 23 207 18 212 16 214 38 214 43 213 48 207 51 201 46" fill="url(#id-male-6.8_face_5-2)" id="id-male-6.8_face_5-17">
</polygon>
<polygon points="212 5 214 3 222 9 222 10 219 10 216 9" fill="#fdd3b7" id="id-male-6.8_face_5-17">
</polygon>
<polygon points="208 65 197 70 190 64 194 42 199 50 193 62 199 67" fill="#a13c31" id="id-male-6.8_face_5-17">
</polygon>
<polygon points="203 62 202 54 211 50" fill="#f3b197" id="id-male-6.8_face_5-22">
</polygon>
<polygon points="196 50 202 51 203 42 196 46" fill="#eb8e76" id="id-male-6.8_face_5-23">
</polygon>
<polygon points="194 45 199 47 202 45 202 32 197 31" fill="#a13c31" id="id-male-6.8_face_5-24">
</polygon>
<path d="M 30 70 C 24 70 20 69 19 68 C 17 66 12 52 8 46 C 4 39 2 38 1 33 C 0 30 0 21 1 6 L 8 0 L 23 9 L 30 70 Z" fill="url(#id-male-6.8_face_5-3)" id="id-male-6.8_face_5-25">
</path>
<polygon points="8 6 2 6 7 3 10 2 23 9 19 14" fill="#efaab6" id="id-male-6.8_face_5-25">
</polygon>
<path d="M 26 68 C 23 69 20 69 19 68 C 17 66 12 52 8 46 C 7 44 6 43 6 42 C 9 45 10 47 12 48 C 13 50 14 52 16 56 L 26 68 Z" fill="#995356" id="id-male-6.8_face_5-25">
</path>
<polygon points="26 68 29 65 27 53 20 61" fill="#7b3e35" id="id-male-6.8_face_5-25">
</polygon>
<path d="M 23 19 C 12 12 6 9 5 9 C 3 10 2 18 2 33 L 17 53 L 26 52 L 23 19 Z" fill="url(#id-male-6.8_face_5-4)" id="id-male-6.8_face_5-29">
</path>
<polygon points="12 17 19 19 18 26 15 28 22 38 21 49 12 44" fill="#773a2e" id="id-male-6.8_face_5-30">
</polygon>
<path d="M 27 53 C 16 50 10 47 8 42 C 6 38 8 30 12 17 L 15 23 C 15 36 14 42 15 43 C 15 45 18 46 25 48 L 27 53 Z" fill="#ce7b8b" id="id-male-6.8_face_5-31">
</path>
<polygon points="11 31 19 26 19 18 14 20 12 18" fill="#c07080" id="id-male-6.8_face_5-32">
</polygon>
<polygon points="20 46 17 42 22 37 25 48" fill="#6a3032" id="id-male-6.8_face_5-33">
</polygon>
</g>
<g transform="translate(18,0)" id="id-male-6.8_face_5-34">
<path d="M 20 231 C 18 227 11 201 5 153 C 3 140 2 128 1 117 C -1 91 4 63 8 49 C 9 46 16 35 16 34 C 30 20 56 0 94 0 C 157 0 178 45 181 51 C 183 57 183 111 181 144 C 178 177 162 232 160 235 C 158 239 124 261 119 264 C 113 266 74 267 69 264 C 64 261 22 235 20 231 Z" fill="url(#id-male-6.8_face_5-5)" id="id-male-6.8_face_5-35">
</path>
<polygon points="73 112 82 117 159 110 163 117 160 129 170 143 176 147 176 93 157 34 129 14 67 25 49 80" fill="url(#id-male-6.8_face_5-6)" id="id-male-6.8_face_5-36">
</polygon>
<polygon points="161 62 154 71 156 103 169 107 175 101 174 71" fill="#d69e7c" id="id-male-6.8_face_5-37">
</polygon>
<path d="M 88 1 C 90 0 92 0 94 0 C 157 0 178 45 181 51 C 183 57 183 111 181 144 C 178 177 162 232 160 235 C 158 239 124 261 119 264 C 113 266 74 267 69 264 C 68 263 62 260 55 256 L 88 235 L 130 216 L 172 163 L 174 118 L 172 94 L 160 106 L 169 85 L 169 76 L 147 55 L 134 23 L 93 25 L 52 65 L 58 96 L 27 113 L 21 131 L 15 125 L 9 131 L 17 98 L 27 106 L 21 88 L 21 58 L 88 1 Z" fill="url(#id-male-6.8_face_5-7)" id="id-male-6.8_face_5-35">
</path>
<polygon points="89 29 62 55 21 58 63 22" fill="#cd8681" id="id-male-6.8_face_5-35">
</polygon>
<path d="M 182 73 C 183 94 183 123 181 144 C 178 177 162 232 160 235 L 156 212 L 178 157 L 181 128 L 174 142 L 182 73 Z" fill="#97594d" id="id-male-6.8_face_5-35">
</path>
<polygon points="47 249 66 240 62 230 73 227 88 242 63 259" fill="#b57d68" id="id-male-6.8_face_5-41">
</polygon>
<path d="M 20 231 C 20 230 19 229 18 226 C 24 231 29 235 33 238 C 42 244 56 253 76 265 C 73 265 70 265 69 264 C 64 261 22 235 20 231 Z" fill="#91463e" id="id-male-6.8_face_5-35">
</path>
<path d="M 1 117 C -1 91 4 63 8 49 C 9 46 16 35 16 34 C 22 28 30 21 41 15 L 11 57 L 14 96 L 1 117 Z" fill="#af7e8d" id="id-male-6.8_face_5-35">
</path>
<path d="M 5 153 C 3 140 2 128 1 117 C 0 108 1 98 1 89 L 8 127 L 5 153 Z" fill="#793d31" id="id-male-6.8_face_5-35">
</path>
<polygon points="37 103 56 94 77 112 67 117" fill="#bc7c6e" id="id-male-6.8_face_5-45">
</polygon>
<path d="M 62 53 C 78 52 89 52 97 53 C 105 54 116 56 131 61 L 121 101 L 93 85 L 69 102 L 57 96 L 51 66 L 62 53 Z" fill="url(#id-male-6.8_face_5-8)" id="id-male-6.8_face_5-46">
</path>
<polygon points="108 55 115 47 137 44 144 55 126 62" fill="#f2c7b2" id="id-male-6.8_face_5-47">
</polygon>
<polygon points="21 172 33 171 11 143 9 158" fill="#81453f" id="id-male-6.8_face_5-48">
</polygon>
<polygon points="143 203 142 188 148 173 172 138" fill="#d0826e" id="id-male-6.8_face_5-49">
</polygon>
<polygon points="147 229 151 227 174 158 175 115 170 142 141 202 141 217" fill="#bb7e66" id="id-male-6.8_face_5-50">
</polygon>
<polygon points="117 243 120 255 149 229 144 209" fill="#c4846c" id="id-male-6.8_face_5-51">
</polygon>
</g>
</g>
<polygon points="115 123 97 120 73 163 66 188 109 172" fill="#9d5b53" id="id-male-6.8_face_5-52">
</polygon>
<polygon points="118 195 153 223 165 211 165 180 158 177 122 178" fill="url(#id-male-6.8_face_5-9)" id="id-male-6.8_face_5-53">
</polygon>
<polygon points="31 148 43 115 58 140 39 146 41 161" fill="#b2735d" id="id-male-6.8_face_5-54">
</polygon>
<polygon points="60 190 82 178 90 185 91 188 102 197 78 213 79 195" fill="#c08175" id="id-male-6.8_face_5-55">
</polygon>
<polygon points="51 172 66 172 85 164 98 140 99 125 58 140 39 146 41 161" fill="#c78371" id="id-male-6.8_face_5-54">
</polygon>
<polygon points="85 164 98 140 98 155" fill="#ae6c5d" id="id-male-6.8_face_5-54">
</polygon>
<polygon points="56 182 50 169 70 159 77 165 64 172" fill="#dba392" id="id-male-6.8_face_5-58">
</polygon>
<polygon points="56 182 50 169 64 172" fill="#d69a8b" id="id-male-6.8_face_5-58">
</polygon>
<polygon points="56 182 58 213 79 195 68 189 81 165 64 172" fill="#b76b5e" id="id-male-6.8_face_5-58">
</polygon>
<polygon points="70 222 58 213 79 195 85 215" fill="#d48e7c" id="id-male-6.8_face_5-58">
</polygon>
<polygon points="135 167 142 159 150 162 190 143 164 178 161 188 153 186 150 177" fill="url(#id-male-6.8_face_5-10)" id="id-male-6.8_face_5-62">
</polygon>
<polygon points="128 153 149 163 190 143 183 135 130 138" fill="#e0a587" id="id-male-6.8_face_5-62">
</polygon>
<polygon points="132 172 150 196 153 183 150 176 137 165 140 161 130 166" fill="#cf816d" id="id-male-6.8_face_5-64">
</polygon>
<polygon points="111 184 118 195 127 184 130 181 117 179" fill="#b7684d" id="id-male-6.8_face_5-65">
</polygon>
<polygon points="92 187 101 197 105 187" fill="#a35e51" id="id-male-6.8_face_5-66">
</polygon>
<polygon points="118 189 120 183 132 178 137 180 122 189" fill="#7e453d" id="id-male-6.8_face_5-67">
</polygon>
<path d="M 86 178 L 96 173 L 90 168 C 88 170 87 172 86 173 C 86 174 86 176 86 178 Z" fill="#954839" id="id-male-6.8_face_5-68">
</path>
<polygon points="92 184 86 178 112 175 113 183 118 194 110 198 102 194 105 187 95 187" fill="#86443a" id="id-male-6.8_face_5-69">
</polygon>
<polygon points="86 178 95 180 104 181 112 175 100 171" fill="#c67c6a" id="id-male-6.8_face_5-70">
</polygon>
<polygon points="112 176 119 172 131 167 134 171 134 178 127 180 113 183" fill="#b06966" id="id-male-6.8_face_5-71">
</polygon>
<polyline points="90 184 93 188 97 187 102 183 96 180 89 184" fill="#5b221d" id="id-male-6.8_face_5-72">
</polyline>
<polygon points="92 120 95 110 113 100 132 109 135 130 117 123" fill="#b6826b" id="id-male-6.8_face_5-73">
</polygon>
<g transform="translate(31,92)" id="id-male-6.8_face_5-74">
<polygon points="4 42 24 55 56 56 69 30 44 8 1 22" fill="url(#id-male-6.8_face_5-11)" id="id-male-6.8_face_5-75">
</polygon>
<polygon points="59 39 59 47 67 42 68 39 63 37" fill="#ccb2be" id="id-male-6.8_face_5-76">
</polygon>
<polygon points="29 50 47 45 60 41 58 46 45 53 31 54" fill="#b97a79" id="id-male-6.8_face_5-77">
</polygon>
<polygon points="46 44 44 53 58 47 55 43 62 42 63 39 58 39" fill="#8f6357" id="id-male-6.8_face_5-78">
</polygon>
<polygon points="5 37 21 25 36 23 38 16 64 21 69 31 64 39 13 44" fill="#754335" id="id-male-6.8_face_5-79">
</polygon>
<polygon points="30 34 31 27 37 25 41 32" fill="#9d6544" id="id-male-6.8_face_5-80">
</polygon>
<path d="M 19 33 C 33 27 42 25 46 26 C 50 27 56 31 65 37 L 64 28 C 52 23 44 21 41 22 C 37 22 30 26 19 33 Z" fill="#5b2a23" id="id-male-6.8_face_5-81">
</path>
<polygon points="93 88 103 85 103 89 96 91" fill="#6b3025" id="id-male-6.8_face_5-82">
</polygon>
<g transform="translate(37,37) rotate(3) translate(-37,-37) translate(12,28)" id="id-male-6.8_face_5-83">
<path d="M 6 14 L 14 16 L 23 15 C 20 15 18 14 17 14 C 15 13 14 12 13 10 L 6 14 Z" fill="#783832" id="id-male-6.8_face_5-84">
</path>
<path d="M 14 10 C 15 13 18 15 22 15 C 25 16 31 15 36 14 C 38 14 42 12 47 10 C 41 5 35 2 30 2 C 25 2 20 5 14 10 Z" fill="#ffe4f4" id="id-male-6.8_face_5-85">
</path>
<path d="M 14 10 C 14 11 15 12 16 13 C 22 8 27 5 31 5 C 33 5 37 6 42 9 L 42 12 C 43 12 45 11 47 10 C 41 5 35 2 30 2 C 25 2 20 5 14 10 Z" fill="#000000" fill-opacity="0.675" id="id-male-6.8_face_5-85">
</path>
<path d="M 20 8 C 20 13 23 15 30 15 C 36 15 39 12 38 5 C 34 4 31 3 28 4 C 26 4 23 6 20 8 Z" fill="#36110a" id="id-male-6.8_face_5-87">
</path>
<path d="M 21 9 C 21 13 24 14 29 14 C 35 14 37 12 37 7 C 33 5 31 4 28 4 C 26 5 24 6 21 9 Z" fill="#666531" id="id-male-6.8_face_5-87">
</path>
<path d="M 26 6 C 26 8 26 10 27 10 C 29 11 31 11 32 10 C 33 9 33 8 33 5 L 26 6 Z" fill="#36110a" id="id-male-6.8_face_5-89">
</path>
<polygon points="22 9 22 11 28 9 27 7" fill="#d7b4bf" id="id-male-6.8_face_5-90">
</polygon>
<path d="M 6 14 L 0 9 C 15 3 26 0 32 0 C 36 0 42 4 49 9 C 50 9 50 10 50 11 L 45 11 C 43 7 39 6 33 5 C 26 5 17 8 6 14 Z" fill="#36110a" id="id-male-6.8_face_5-91">
</path>
</g>
<polygon points="64 13 73 14 64 21 51 18" fill="#6e423b" id="id-male-6.8_face_5-92">
</polygon>
<polygon points="0 23 17 18 39 17 50 20 58 18 68 11 59 7 50 11 54 7 51 7 54 6 19 6 2 21" fill="#3a1f20" id="id-male-6.8_face_5-93">
</polygon>
<polygon points="20 5 25 1 40 4" fill="#3d2c29" id="id-male-6.8_face_5-94">
</polygon>
<polygon points="127 55 165 38 159 20 98 12 92 18 93 21 88 27 84 26 101 48" fill="url(#id-male-6.8_face_5-12)" id="id-male-6.8_face_5-95">
</polygon>
<polygon points="113 31 117 24 113 18 124 15 131 18 124 24 126 31" fill="#ce9888" id="id-male-6.8_face_5-96">
</polygon>
<polygon points="136 35 132 24 138 16 150 18 140 26 143 38" fill="#9e6645" id="id-male-6.8_face_5-97">
</polygon>
<polygon points="102 42 108 49 127 56 129 54 129 49 116 39" fill="#a96957" id="id-male-6.8_face_5-98">
</polygon>
<polygon points="129 49 137 42 116 39" fill="#c88c7b" id="id-male-6.8_face_5-98">
</polygon>
<polygon points="108 49 117 52 123 44 116 39 108 41" fill="#96524f" id="id-male-6.8_face_5-98">
</polygon>
<polygon points="104 44 99 44 95 42 101 38" fill="#c2908b" id="id-male-6.8_face_5-101">
</polygon>
<polygon points="139 42 146 44 151 41 151 37 157 34 165 52 166 51 166 26 161 16 151 36" fill="#96534f" id="id-male-6.8_face_5-102">
</polygon>
<path d="M 99 37 L 93 28 L 99 22 L 97 17 L 113 17 L 117 22 C 123 23 128 23 130 24 C 133 25 139 28 148 34 C 135 28 125 25 119 25 C 113 25 106 29 99 37 Z" fill="#643827" id="id-male-6.8_face_5-103">
</path>
<g transform="translate(125,37) rotate(-3) translate(-124,-37) translate(100,28)" id="id-male-6.8_face_5-104">
<path d="M 5 9 C 8 13 13 15 19 15 C 26 15 31 14 35 11 C 31 5 26 2 21 2 C 15 2 10 5 5 9 Z" fill="#ffe4f3" id="id-male-6.8_face_5-105">
</path>
<path d="M 5 9 C 6 10 7 11 7 11 C 12 7 16 5 21 5 C 25 5 29 8 32 13 C 33 12 34 12 35 11 C 31 5 26 2 21 2 C 15 2 10 5 5 9 Z" fill="#000000" fill-opacity="0.496" id="id-male-6.8_face_5-105">
</path>
<path d="M 12 6 C 13 11 14 14 15 14 C 16 15 24 16 26 15 C 27 15 28 12 30 8 C 25 5 22 4 19 3 C 17 3 14 4 12 6 Z" fill="#311011" id="id-male-6.8_face_5-107">
</path>
<path d="M 13 9 C 14 11 14 13 15 13 C 16 14 23 15 25 15 C 26 14 27 12 28 9 C 26 8 24 7 21 7 C 19 6 16 7 13 9 Z" fill="#615e2d" id="id-male-6.8_face_5-107">
</path>
<polygon points="17 7 18 11 23 11 25 7 21 6" fill="#311011" id="id-male-6.8_face_5-109">
</polygon>
<polygon points="14 10 20 8 20 5 14 7" fill="#d4aebc" id="id-male-6.8_face_5-110">
</polygon>
<polygon points="3 13 6 10 8 13" fill="#a03b40" id="id-male-6.8_face_5-111">
</polygon>
<polygon points="3 13 1 14 4 15 14 16 19 18 41 15 35 11 29 15 24 15 14 15 9 13" fill="#853f3b" id="id-male-6.8_face_5-112">
</polygon>
<path d="M 3 13 C 1 12 0 11 1 11 C 1 10 8 1 21 0 C 26 0 33 3 40 6 C 42 7 45 8 49 10 L 41 15 C 37 13 35 11 34 11 C 29 7 25 5 21 5 C 14 5 9 7 3 13 Z" fill="#311011" id="id-male-6.8_face_5-113">
</path>
</g>
<polygon points="89 9 92 17 103 5" fill="#633e3b" id="id-male-6.8_face_5-114">
</polygon>
<polygon points="92 17 100 17 107 20 124 17 159 20 145 9 110 5 100 12 103 4" fill="#271716" id="id-male-6.8_face_5-115">
</polygon>
<polygon points="125 5 143 7 139 4" fill="#3a2a25" id="id-male-6.8_face_5-116">
</polygon>
</g>
<polygon points="104 122 102 115 114 110 114 123" fill="#cb8784" id="id-male-6.8_face_5-73">
</polygon>
<polygon points="116 182 124 177 127 180 130 182" fill="#320f10" id="id-male-6.8_face_5-118">
</polygon>
<polygon points="92 184 91 182 95 178 104 181 101 183 95 182" fill="#2c0e0f" id="id-male-6.8_face_5-119">
</polygon>
<polygon points="133 181 138 184 140 184 135 176" fill="#ab6150" id="id-male-6.8_face_5-120">
</polygon>
<polygon points="101 183 111 184 113 183 104 181" fill="#572a26" id="id-male-6.8_face_5-121">
</polygon>
<polygon points="107 125 112 123 123 126 122 133 128 151 130 147 147 156 129 167" fill="url(#id-male-6.8_face_5-13)" id="id-male-6.8_face_5-122">
</polygon>
<polygon points="119 172 129 176 132 173 131 168 128 165 119 143 115 146" fill="#f4b9a0" id="id-male-6.8_face_5-123">
</polygon>
<polygon points="111 125 117 125 116 132 122 141 119 150 117 148" fill="#f7cecb" id="id-male-6.8_face_5-124">
</polygon>
<path d="M 88 169 C 85 172 84 175 85 178 C 85 181 88 183 91 184 C 89 181 87 179 87 177 C 86 176 87 173 88 169 Z" fill="#7d3c32" id="id-male-6.8_face_5-125">
</path>
<path d="M 131 170 C 130 172 129 174 130 176 C 131 179 133 181 137 182 C 134 179 133 177 132 176 C 132 174 132 172 133 169 L 131 170 Z" transform="translate(133,175) rotate(-158) translate(-133,-175)" fill="#964f41" id="id-male-6.8_face_5-125">
</path>
<path d="M 98 171 L 110 176 L 119 172 L 115 131 L 111 125 L 104 125 L 104 138 C 102 145 101 151 100 155 C 100 159 99 164 98 171 Z" fill="#d8908f" id="id-male-6.8_face_5-127">
</path>
<polygon points="115 131 111 125 108 125 106 142 109 151" fill="#e7af9d" id="id-male-6.8_face_5-127">
</polygon>
<polygon points="103 173 110 176 120 172 115 131" fill="#dc9898" id="id-male-6.8_face_5-127">
</polygon>
<polygon points="103 173 110 176 120 172 107 159" fill="#e3a8a6" id="id-male-6.8_face_5-127">
</polygon>
<polygon points="103 173 110 176 120 172 118 170 110 173" fill="#fad2c5" id="id-male-6.8_face_5-127">
</polygon>
<polygon points="150 221 112 238 68 221 76 213 142 214 147 216" fill="#bf7867" id="id-male-6.8_face_5-132">
</polygon>
<polygon points="90 228 102 242 120 246 148 219 148 213" fill="#a56049" id="id-male-6.8_face_5-133">
</polygon>
<polygon points="126 224 141 222 146 214 143 212 133 214" fill="#c88878" id="id-male-6.8_face_5-134">
</polygon>
<polygon points="69 216 70 217 80 219 87 217 83 214" fill="#e2b2a4" id="id-male-6.8_face_5-135">
</polygon>
<polygon points="69 216 68 211 74 209 83 214" fill="#a25640" id="id-male-6.8_face_5-136">
</polygon>
<polygon points="141 213 148 216 151 211 146 208" fill="#c07a64" id="id-male-6.8_face_5-137">
</polygon>
<polygon points="93 225 89 219 136 217 128 226 112 232" fill="#783025" id="id-male-6.8_face_5-138">
</polygon>
<polygon points="126 201 118 195 117 198 111 200 105 198 103 195 101 198 92 202 88 206" fill="#e9b4a6" id="id-male-6.8_face_5-139">
</polygon>
<polygon points="75 213 87 220 140 217 148 214 132 204 107 203 82 209" fill="#781b19" id="id-male-6.8_face_5-140">
</polygon>
<polygon points="84 211 80 215 87 218 142 216 147 214 139 211 128 209 111 210 94 209" fill="#50090c" id="id-male-6.8_face_5-140">
</polygon>
<path d="M 82 209 C 93 203 99 199 100 199 C 102 199 109 201 111 201 C 112 201 118 199 121 199 C 123 199 129 202 140 209 L 132 207 L 115 209 L 111 207 L 109 209 L 96 208 L 86 210 L 82 209 Z" fill="#c05854" id="id-male-6.8_face_5-142">
</path>
<path d="M 100 199 C 102 199 109 201 111 201 C 112 201 118 199 121 199 L 112 206 L 110 208 L 100 199 Z" fill="#d45f63" id="id-male-6.8_face_5-142">
</path>
<path d="M 80 215 C 82 217 84 219 85 219 C 94 223 101 225 111 225 C 120 225 129 222 138 218 C 139 218 141 217 143 215 C 133 212 127 210 124 210 C 121 210 117 210 110 212 C 104 210 100 210 98 210 C 97 211 90 212 80 215 Z" fill="#dc6b67" id="id-male-6.8_face_5-144">
</path>
<path d="M 80 215 C 82 217 84 219 85 219 C 86 219 87 220 89 221 C 94 214 101 211 110 212 C 121 213 128 215 132 221 C 134 220 136 219 138 218 C 139 218 141 217 144 215 C 134 212 127 210 124 210 C 121 210 117 210 110 212 C 104 210 100 210 98 210 C 97 211 90 212 80 215 Z" fill="#bf5350" id="id-male-6.8_face_5-144">
</path>
<polygon points="94 221 92 217 99 216 126 216 128 217 124 220 124 217 98 218" fill="#f88db0" id="id-male-6.8_face_5-146">
</polygon>
<polygon points="108 254 112 237 138 246 120 259" fill="#cd9a8c" id="id-male-6.8_face_5-147">
</polygon>
<polygon points="108 254 112 237 85 242 85 248" fill="#bf8975" id="id-male-6.8_face_5-147">
</polygon>
</g>
<defs>
<linearGradient x1="50%" y1="0%" x2="50%" y2="100%" id="id-male-12_chef_pants-0">
<stop stop-color="#b8bece" offset="0%">
</stop>
<stop stop-color="#a1acc2" offset="100%">
</stop>
</linearGradient>
<linearGradient x1="60%" y1="43%" x2="13%" y2="70%" id="id-male-12_chef_pants-1">
<stop stop-color="#c3c7d4" offset="0%">
</stop>
<stop stop-color="#9aa6be" offset="100%">
</stop>
</linearGradient>
<linearGradient x1="96%" y1="53%" x2="-18%" y2="48%" id="id-male-12_chef_pants-2">
<stop stop-color="#a1acc1" offset="0%">
</stop>
<stop stop-color="#a1acc1" offset="100%" stop-opacity="0">
</stop>
</linearGradient>
<linearGradient x1="33%" y1="-3%" x2="63%" y2="70%" id="id-male-12_chef_pants-3">
<stop stop-color="#96a4bb" offset="0%" stop-opacity="0">
</stop>
<stop stop-color="#99a5bc" offset="100%">
</stop>
</linearGradient>
<linearGradient x1="50%" y1="50%" x2="50%" y2="100%" id="id-male-12_chef_pants-4">
<stop stop-color="#74819a" offset="0%">
</stop>
<stop stop-color="#74819a" offset="100%" stop-opacity="0.235">
</stop>
</linearGradient>
<linearGradient x1="50%" y1="0%" x2="50%" y2="100%" id="id-male-12_chef_pants-5">
<stop stop-color="#95a2bb" offset="0%">
</stop>
<stop stop-color="#92a0b9" offset="100%" stop-opacity="0">
</stop>
</linearGradient>
<linearGradient x1="17%" y1="-2%" x2="89%" y2="82%" id="id-male-12_chef_pants-6">
<stop stop-color="#808da7" offset="0%" stop-opacity="0">
</stop>
<stop stop-color="#808da7" offset="100%">
</stop>
</linearGradient>
<linearGradient x1="100%" y1="50%" x2="0%" y2="50%" id="id-male-12_chef_pants-7">
<stop stop-color="#94a1b9" offset="0%">
</stop>
<stop stop-color="#94a1bb" offset="100%" stop-opacity="0">
</stop>
</linearGradient>
</defs>
<g transform="translate(428,1078)" id="id-male-12_chef_pants-8">
<path d="M 487 682 C 393 682 346 682 346 682 C 342 677 340 675 340 675 C 341 656 342 647 342 647 C 334 621 331 608 331 608 C 321 551 317 522 317 522 C 287 470 272 440 270 433 C 263 431 260 429 260 429 C 250 441 245 447 245 447 C 238 451 231 455 219 465 C 210 466 214 502 207 581 C 162 620 167 640 176 682 C 84 682 38 682 38 682 C 35 669 36 657 40 646 C 37 633 19 607 23 603 C 27 594 34 588 34 573 C 24 535 9 496 4 441 C 5 381 6 351 6 351 C 2 338 0 332 0 332 C 3 309 4 298 4 298 C 5 274 6 262 6 262 C 2 259 3 251 2 246 C 0 220 0 193 7 164 C 23 141 31 130 31 130 C 31 113 40 98 43 82 C 42 71 41 65 41 65 C 53 26 59 7 59 7 C 65 8 69 8 69 8 C 72 18 74 23 74 23 C 106 32 122 36 122 36 C 127 32 130 30 130 30 C 208 33 246 35 246 35 C 316 25 350 19 350 19 C 356 14 359 11 359 11 C 395 4 414 0 414 0 C 413 17 413 26 413 26 C 421 41 418 61 431 74 C 422 83 431 103 443 126 C 439 132 449 162 475 187 C 477 190 477 192 477 192 C 479 214 476 251 480 262 C 486 307 491 350 495 393 C 498 529 472 565 490 590 C 477 629 480 630 487 682 Z" fill="url(#id-male-12_chef_pants-0)" id="id-male-12_chef_pants-9">
</path>
<path d="M 430 72 C 413 83 354 110 336 118 C 236 155 187 174 187 174 C 182 170 180 168 180 168 C 167 129 160 109 160 109 C 153 95 150 88 150 88 C 144 81 141 78 141 78 C 154 71 160 67 160 67 C 139 51 129 43 129 43 L 127 32 L 130 30 L 246 35 L 350 19 L 359 11 L 414 0 C 413 8 413 17 413 26 C 421 45 417 56 430 72 Z" fill="#c7cad6" id="id-male-12_chef_pants-10">
</path>
<path d="M 213 484 L 205 469 L 207 464 L 79 368 C 48 306 33 275 33 275 L 5 287 L 6 261 C 3 260 2 256 2 246 C 1 224 -2 209 7 164 L 31 130 C 30 118 40 97 43 82 L 41 65 L 47 47 L 62 52 L 125 55 L 129 56 L 138 75 L 187 186 L 209 260 L 235 329 L 237 372 L 237 450 L 219 464 C 216 464 213 470 213 484 Z" fill="#a3aec3" id="id-male-12_chef_pants-11">
</path>
<path d="M 488 522 L 460 452 L 439 434 C 427 409 421 397 421 397 L 438 259 L 446 216 L 475 187 L 477 192 C 479 214 476 243 480 262 L 495 393 C 496 448 494 491 488 522 Z" fill="#afb7c9" id="id-male-12_chef_pants-12">
</path>
<path d="M 481 628 L 449 653 C 402 611 360 566 317 522 C 321 513 323 509 323 509 C 365 516 387 520 389 521 C 375 497 274 437 254 379 C 334 446 374 480 374 480 C 349 427 337 400 337 400 C 358 405 368 407 368 407 C 330 385 311 374 311 374 C 371 354 402 344 402 344 C 321 342 280 340 280 340 C 257 334 246 331 246 331 C 239 329 235 328 235 328 C 227 310 224 301 224 301 C 215 273 211 258 211 258 C 235 249 248 245 248 245 C 262 287 270 308 270 308 C 268 290 267 281 267 281 C 343 226 380 199 380 199 C 312 198 278 198 278 198 C 357 180 397 171 397 171 C 396 188 396 196 396 196 L 443 140 C 452 154 460 170 475 187 C 453 208 442 219 442 219 C 441 228 440 232 440 232 C 426 229 419 227 419 227 L 273 278 C 274 300 274 311 274 311 C 312 314 332 315 332 315 C 369 328 387 335 387 335 C 375 319 369 312 369 312 C 347 293 336 284 336 284 C 377 260 397 249 397 249 C 437 258 457 263 457 263 C 474 279 483 287 483 287 C 484 294 485 297 485 297 C 458 325 445 338 445 338 C 430 376 422 395 422 395 C 404 407 395 412 395 412 C 420 423 433 429 433 429 C 437 432 439 434 439 434 L 488 522 C 486 543 478 574 490 590 C 485 602 482 615 481 628 Z" fill="#c6cad6" id="id-male-12_chef_pants-13">
</path>
<path d="M 443 126 C 410 142 394 150 394 150 C 332 159 302 163 302 163 C 340 133 360 118 360 118 C 378 117 387 116 387 116 L 429 78 C 427 87 432 103 443 126 Z" fill="#cacdd8" id="id-male-12_chef_pants-14">
</path>
<path d="M 308 263 C 353 229 375 211 375 211 L 422 223 C 346 250 308 263 308 263 Z" fill="#dedde1" id="id-male-12_chef_pants-15">
</path>
<path d="M 389 91 C 254 147 187 174 187 174 C 177 146 172 133 172 133 C 172 130 172 128 172 128 C 186 126 193 124 193 124 C 209 128 217 131 217 131 L 337 93 L 389 91 Z" fill="#dddce0" id="id-male-12_chef_pants-16">
</path>
<path d="M 169 123 C 163 105 159 96 159 96 C 161 96 162 95 162 95 C 160 91 159 88 159 88 C 240 90 281 90 281 90 C 326 86 348 84 348 84 C 261 113 218 127 218 127 L 193 119 C 177 122 169 123 169 123 Z" fill="#a9b2c6" id="id-male-12_chef_pants-17">
</path>
<path d="M 172 59 C 295 34 356 21 356 21 L 364 40 C 236 53 172 59 172 59 Z" fill="#b0b8ca" id="id-male-12_chef_pants-18">
</path>
<path d="M 369 102 C 362 61 359 40 359 40 C 353 26 351 19 351 19 C 356 14 359 11 359 11 C 395 4 413 0 413 0 C 413 18 413 26 413 26 C 418 42 418 62 429 73 C 389 92 369 102 369 102 Z" fill="#d2d3dd" id="id-male-12_chef_pants-19">
</path>
<path d="M 395 70 C 394 58 394 52 394 52 C 376 25 367 12 367 12 C 358 17 354 19 354 19 C 356 23 359 29 361 34 C 383 58 395 70 395 70 Z" fill="#8a94a7" id="id-male-12_chef_pants-20">
</path>
<path d="M 395 74 C 396 59 396 52 396 52 C 411 48 419 46 419 46 C 419 49 421 54 423 61 L 421 69 C 404 72 395 74 395 74 Z" fill="#a7b0c4" id="id-male-12_chef_pants-21">
</path>
<path d="M 169 57 C 216 48 240 44 240 44 C 173 41 140 40 140 40 C 138 39 136 38 136 38 L 137 42 C 158 52 169 57 169 57 Z" fill="#8993a7" id="id-male-12_chef_pants-22">
</path>
<path d="M 69 8 C 62 7 59 7 59 7 C 51 34 47 47 47 47 C 57 50 62 52 62 52 C 68 68 71 76 71 76 C 54 77 46 77 46 77 C 94 114 118 133 118 133 C 86 126 70 122 70 122 C 45 122 32 122 32 122 C 32 125 31 126 31 126 C 67 141 85 148 85 148 C 112 165 126 173 126 173 C 109 156 101 147 101 147 C 152 171 178 184 178 184 C 169 155 164 140 164 140 C 138 114 124 101 124 101 C 119 81 117 71 117 71 L 128 75 L 122 36 L 74 23 L 69 8 Z" fill="#c4c8d4" id="id-male-12_chef_pants-23">
</path>
<path d="M 129 56 L 126 33 L 122 36 C 90 28 74 23 74 23 C 72 16 70 12 70 12 C 65 37 62 49 62 49 L 67 44 C 109 52 129 56 129 56 Z" fill="#8892a6" id="id-male-12_chef_pants-24">
</path>
<path d="M 138 75 C 144 100 147 112 147 112 L 175 157 L 160 109 C 145 86 138 75 138 75 Z" fill="#78839a" id="id-male-12_chef_pants-25">
</path>
<path d="M 163 263 C 89 237 52 224 52 224 C 54 223 55 223 55 223 L 5 173 C 7 167 7 164 7 164 C 20 147 26 138 26 138 C 32 151 36 158 36 158 C 49 173 55 180 55 180 C 54 165 54 158 54 158 C 107 173 134 180 134 180 C 147 194 153 200 153 200 L 168 239 C 165 255 163 263 163 263 Z" fill="#c3c6d4" id="id-male-12_chef_pants-26">
</path>
<path d="M 227 326 C 150 279 111 255 111 255 C 70 236 49 226 49 226 C 19 240 4 247 4 247 C 45 256 66 260 66 260 C 44 270 33 275 33 275 C 32 285 31 290 31 290 C 55 334 67 355 67 355 C 30 366 12 372 12 372 C 52 377 72 380 72 380 C 79 419 83 439 83 439 C 64 448 55 452 55 452 C 71 463 79 469 79 469 C 78 515 77 538 77 538 C 107 525 122 519 122 519 C 179 483 207 465 207 465 C 223 428 230 410 230 410 C 222 405 218 403 218 403 C 126 380 79 369 79 369 C 148 366 182 365 182 365 C 219 371 237 373 237 373 L 237 331 C 230 327 227 326 227 326 Z" fill="url(#id-male-12_chef_pants-1)" id="id-male-12_chef_pants-27">
</path>
<path d="M 235 338 C 235 332 235 330 235 330 C 228 326 225 324 225 324 C 167 304 137 295 137 295 C 90 287 66 282 66 282 C 100 297 117 304 117 304 L 77 326 C 182 334 235 338 235 338 Z" fill="url(#id-male-12_chef_pants-2)" id="id-male-12_chef_pants-28">
</path>
<path d="M 251 377 L 288 341 C 282 341 279 341 279 341 C 258 334 248 331 248 331 C 241 333 238 334 238 334 L 237 367 C 246 373 251 377 251 377 Z" fill="#9faac0" id="id-male-12_chef_pants-29">
</path>
<path d="M 235 327 C 224 322 218 320 218 320 L 213 286 C 228 314 235 327 235 327 Z" fill="#919fb9" id="id-male-12_chef_pants-30">
</path>
<path d="M 271 321 C 263 291 259 276 259 276 L 222 287 L 239 332 C 261 325 271 321 271 321 Z" fill="url(#id-male-12_chef_pants-3)" id="id-male-12_chef_pants-31">
</path>
<path d="M 235 327 C 220 300 213 286 213 286 C 210 269 209 260 209 260 C 195 216 188 194 188 194 L 187 186 C 203 234 211 258 211 258 L 225 301 L 235 327 Z" fill="#717d96" id="id-male-12_chef_pants-32">
</path>
<path d="M 260 429 L 253 438 L 237 373 L 270 433 C 263 431 260 429 260 429 Z" fill="#67748c" id="id-male-12_chef_pants-33">
</path>
<path d="M 253 438 C 248 444 245 447 245 447 L 238 451 L 237 373 L 253 438 Z" fill="url(#id-male-12_chef_pants-4)" id="id-male-12_chef_pants-34">
</path>
<path d="M 207 581 C 199 588 191 596 181 608 C 152 628 138 637 138 637 C 136 640 135 641 135 641 C 120 653 112 658 112 658 C 82 649 67 645 67 645 L 28 619 C 26 616 20 606 23 603 C 26 596 32 588 33 581 C 65 571 80 566 80 566 L 65 543 L 77 538 L 122 519 L 207 465 L 205 470 L 213 485 C 210 545 208 578 207 581 Z" fill="#9eaac0" id="id-male-12_chef_pants-35">
</path>
<path d="M 182 607 C 153 627 138 637 138 637 C 136 640 135 641 135 641 C 120 653 112 659 112 659 C 82 649 67 645 67 645 L 28 619 C 32 629 38 638 40 646 C 36 658 35 669 38 682 L 176 682 C 166 650 168 625 182 607 Z" fill="#7e8da7" id="id-male-12_chef_pants-36">
</path>
<path d="M 65 611 L 106 642 C 106 644 107 645 107 645 C 81 640 68 637 68 637 L 28 619 L 22 607 C 20 600 34 593 34 572 C 20 526 9 483 4 441 L 55 452 L 79 469 C 78 515 77 538 77 538 C 69 541 65 543 65 543 C 75 559 80 566 80 566 L 61 574 L 72 590 L 65 611 Z" fill="url(#id-male-12_chef_pants-5)" id="id-male-12_chef_pants-37">
</path>
<path d="M 106 642 C 78 622 65 611 65 611 C 60 598 58 592 58 592 C 67 590 72 590 72 590 L 104 627 L 106 642 Z" fill="url(#id-male-12_chef_pants-6)" id="id-male-12_chef_pants-38">
</path>
<path d="M 72 587 C 131 602 161 609 161 609 C 180 601 190 597 190 597 C 194 593 196 591 196 591 L 123 562 C 89 579 72 587 72 587 Z" fill="#93a1ba" id="id-male-12_chef_pants-39">
</path>
<path d="M 127 557 C 123 558 121 558 121 558 C 93 547 79 542 79 542 C 82 501 84 481 84 481 C 105 482 115 482 115 482 L 117 487 C 124 534 127 557 127 557 Z" fill="url(#id-male-12_chef_pants-7)" id="id-male-12_chef_pants-40">
</path>
<path d="M 161 68 C 158 68 157 67 157 67 C 142 72 135 74 135 74 C 133 72 131 72 131 72 C 128 55 127 46 127 46 L 157 46 C 160 61 161 68 161 68 Z" fill="#100f0b" id="id-male-12_chef_pants-41">
</path>
<path d="M 157 46 C 137 46 127 46 127 46 C 129 43 130 42 130 42 C 130 41 130 40 130 40 L 157 42 L 157 46 Z" fill="#4c4d50" id="id-male-12_chef_pants-42">
</path>
<path d="M 494 471 C 494 469 494 467 494 467 C 480 443 473 431 473 431 C 456 371 448 341 448 341 C 426 283 415 254 415 254 C 414 233 414 223 414 223 C 393 188 382 171 382 171 C 383 155 383 146 383 146 C 372 127 367 117 367 117 C 368 105 368 99 368 99 C 359 77 354 66 354 66 C 356 64 356 62 356 62 C 352 63 350 63 350 63 C 361 87 366 100 366 100 C 365 112 364 118 364 118 C 375 139 381 149 381 149 C 381 165 381 173 381 173 C 402 208 412 226 412 226 C 412 244 412 252 412 252 C 434 311 444 340 444 340 L 472 434 C 486 459 494 471 494 471 Z" fill="#8d96a9" id="id-male-12_chef_pants-43">
</path>
<path d="M 156 80 C 211 79 239 78 239 78 C 335 65 384 58 384 58 C 385 59 386 60 386 60 L 237 80 C 183 80 156 80 156 80 Z" fill="#9099ac" id="id-male-12_chef_pants-44">
</path>
<path d="M 117 71 C 114 71 112 70 112 70 C 97 95 89 108 89 108 C 89 119 89 125 89 125 C 80 138 75 144 75 144 C 78 156 79 163 79 163 C 65 202 58 221 58 221 C 61 227 63 230 63 230 C 54 245 50 253 50 253 L 33 272 C 11 312 0 332 0 332 C 1 335 1 336 1 336 C 23 295 35 274 35 274 C 45 262 50 256 50 256 C 60 239 65 231 65 231 C 63 224 62 220 62 220 C 75 182 81 162 81 162 C 78 150 77 144 77 144 C 87 131 92 125 92 125 L 91 110 C 108 84 117 71 117 71 Z" fill="#9098ab" id="id-male-12_chef_pants-45">
</path>
</g>
<defs>
<linearGradient x1="55%" y1="56%" x2="50%" y2="59%" id="id-male-17_samurai_jacket-0">
<stop stop-color="#182845" offset="0%">
</stop>
<stop stop-color="#172642" offset="60%">
</stop>
<stop stop-color="#141d33" offset="68%">
</stop>
<stop stop-color="#141c32" offset="100%">
</stop>
</linearGradient>
<linearGradient x1="50%" y1="4%" x2="50%" y2="67%" id="id-male-17_samurai_jacket-1">
<stop stop-color="#030b1b" offset="0%">
</stop>
<stop stop-color="#0c1831" offset="54%">
</stop>
<stop stop-color="#0a1222" offset="100%">
</stop>
</linearGradient>
<linearGradient x1="54%" y1="53%" x2="49%" y2="55%" id="id-male-17_samurai_jacket-2">
<stop stop-color="#4fcb4d" offset="0%">
</stop>
<stop stop-color="#006035" offset="100%">
</stop>
</linearGradient>
<linearGradient x1="18%" y1="65%" x2="73%" y2="33%" id="id-male-17_samurai_jacket-3">
<stop stop-color="#55cb53" offset="0%">
</stop>
<stop stop-color="#006035" offset="100%">
</stop>
</linearGradient>
<linearGradient x1="91%" y1="46%" x2="42%" y2="53%" id="id-male-17_samurai_jacket-4">
<stop stop-color="#030d25" offset="0%">
</stop>
<stop stop-color="#1a2a4c" offset="100%">
</stop>
</linearGradient>
<linearGradient x1="27%" y1="46%" x2="74%" y2="55%" id="id-male-17_samurai_jacket-5">
<stop stop-color="#5266ec" offset="0%">
</stop>
<stop stop-color="#1e2533" offset="100%">
</stop>
</linearGradient>
<linearGradient x1="83%" y1="24%" x2="11%" y2="73%" id="id-male-17_samurai_jacket-6">
<stop stop-color="#0b9c23" offset="0%">
</stop>
<stop stop-color="#015a1d" offset="100%">
</stop>
</linearGradient>
<linearGradient x1="-23%" y1="124%" x2="100%" y2="6%" id="id-male-17_samurai_jacket-7">
<stop stop-color="#0b9c23" offset="0%">
</stop>
<stop stop-color="#015a1d" offset="100%">
</stop>
</linearGradient>
<linearGradient x1="50%" y1="0%" x2="47%" y2="100%" id="id-male-17_samurai_jacket-8">
<stop stop-color="#1d2944" offset="0%">
</stop>
<stop stop-color="#1f2b43" offset="100%">
</stop>
</linearGradient>
<linearGradient x1="48%" y1="9%" x2="54%" y2="102%" id="id-male-17_samurai_jacket-9">
<stop stop-color="#1f8e22" offset="0%">
</stop>
<stop stop-color="#005f32" offset="100%">
</stop>
<stop stop-color="#137c22" offset="100%">
</stop>
</linearGradient>
<linearGradient x1="43%" y1="17%" x2="50%" y2="67%" id="id-male-17_samurai_jacket-10">
<stop stop-color="#071a33" offset="0%">
</stop>
<stop stop-color="#030b17" offset="100%">
</stop>
</linearGradient>
<linearGradient x1="49%" y1="84%" x2="54%" y2="9%" id="id-male-17_samurai_jacket-11">
<stop stop-color="#17233d" offset="0%">
</stop>
<stop stop-color="#29466e" offset="100%">
</stop>
</linearGradient>
<linearGradient x1="58%" y1="17%" x2="43%" y2="89%" id="id-male-17_samurai_jacket-12">
<stop stop-color="#0e1c2f" offset="0%">
</stop>
<stop stop-color="#182a47" offset="31%">
</stop>
<stop stop-color="#0a1527" offset="40%">
</stop>
<stop stop-color="#050c1c" offset="57%">
</stop>
<stop stop-color="#16264b" offset="100%">
</stop>
</linearGradient>
<linearGradient x1="57%" y1="70%" x2="31%" y2="35%" id="id-male-17_samurai_jacket-13">
<stop stop-color="#090f1a" offset="0%">
</stop>
<stop stop-color="#121e33" offset="100%">
</stop>
</linearGradient>
<linearGradient x1="10%" y1="46%" x2="76%" y2="61%" id="id-male-17_samurai_jacket-14">
<stop stop-color="#405172" offset="0%">
</stop>
<stop stop-color="#1e283e" offset="100%">
</stop>
</linearGradient>
<linearGradient x1="23%" y1="48%" x2="78%" y2="51%" id="id-male-17_samurai_jacket-15">
<stop stop-color="#1d2943" offset="0%">
</stop>
<stop stop-color="#202f46" offset="71%">
</stop>
<stop stop-color="#1d283c" offset="100%">
</stop>
</linearGradient>
<linearGradient x1="23%" y1="33%" x2="74%" y2="69%" id="id-male-17_samurai_jacket-16">
<stop stop-color="#838693" offset="0%">
</stop>
<stop stop-color="#4c4e5a" offset="100%">
</stop>
</linearGradient>
<linearGradient x1="0%" y1="62%" x2="88%" y2="50%" id="id-male-17_samurai_jacket-17">
<stop stop-color="#172548" offset="0%">
</stop>
<stop stop-color="#2d4166" offset="100%">
</stop>
</linearGradient>
<linearGradient x1="80%" y1="80%" x2="29%" y2="24%" id="id-male-17_samurai_jacket-18">
<stop stop-color="#273c5e" offset="0%">
</stop>
<stop stop-color="#111c30" offset="100%">
</stop>
</linearGradient>
<linearGradient x1="84%" y1="71%" x2="30%" y2="44%" id="id-male-17_samurai_jacket-19">
<stop stop-color="#273c5e" offset="0%">
</stop>
<stop stop-color="#111c30" offset="100%">
</stop>
</linearGradient>
<linearGradient x1="32%" y1="50%" x2="43%" y2="52%" id="id-male-17_samurai_jacket-20">
<stop stop-color="#22355e" offset="0%">
</stop>
<stop stop-color="#253a5a" offset="100%">
</stop>
<stop stop-color="#111c30" offset="100%">
</stop>
</linearGradient>
<linearGradient x1="50%" y1="0%" x2="59%" y2="100%" id="id-male-17_samurai_jacket-21">
<stop stop-color="#475b8c" offset="0%">
</stop>
<stop stop-color="#111c30" offset="100%">
</stop>
</linearGradient>
<linearGradient x1="13%" y1="50%" x2="87%" y2="72%" id="id-male-17_samurai_jacket-22">
<stop stop-color="#4a5f84" offset="0%">
</stop>
<stop stop-color="#24314d" offset="100%">
</stop>
</linearGradient>
<linearGradient x1="65%" y1="50%" x2="6%" y2="53%" id="id-male-17_samurai_jacket-23">
<stop stop-color="#2f4a7e" offset="0%">
</stop>
<stop stop-color="#0d1c3d" offset="46%">
</stop>
<stop stop-color="#24396b" offset="100%">
</stop>
</linearGradient>
<linearGradient x1="29%" y1="33%" x2="58%" y2="63%" id="id-male-17_samurai_jacket-24">
<stop stop-color="#090e1c" offset="0%">
</stop>
<stop stop-color="#233657" offset="29%">
</stop>
<stop stop-color="#061946" offset="38%">
</stop>
<stop stop-color="#1f1426" offset="64%">
</stop>
<stop stop-color="#090e1c" offset="100%">
</stop>
</linearGradient>
<linearGradient x1="10%" y1="40%" x2="78%" y2="49%" id="id-male-17_samurai_jacket-25">
<stop stop-color="#101f3f" offset="0%">
</stop>
<stop stop-color="#090e1c" offset="100%">
</stop>
</linearGradient>
<linearGradient x1="50%" y1="16%" x2="64%" y2="100%" id="id-male-17_samurai_jacket-26">
<stop stop-color="#283a5d" offset="0%">
</stop>
<stop stop-color="#351b36" offset="100%">
</stop>
</linearGradient>
<linearGradient x1="50%" y1="0%" x2="50%" y2="100%" id="id-male-17_samurai_jacket-27">
<stop stop-color="#a9006a" offset="0%">
</stop>
<stop stop-color="#690035" offset="100%">
</stop>
</linearGradient>
</defs>
<g transform="translate(300,571)" id="id-male-17_samurai_jacket-28">
<g transform="translate(0,12)" id="id-male-17_samurai_jacket-29">
<g id="id-male-17_samurai_jacket-30">
<polygon points="167 715 189 715 205 726 203 767 209 771 236 749 267 771 250 700 251 689 246 679 249 659 243 641 245 612 252 504 248 450 238 398 222 369 217 336 211 331 212 315 205 307 211 289 198 278 190 242 189 159 186 137 186 116 182 108 179 90 160 67 131 45 125 39 112 34 107 28 28 0 1 23 73 67 85 138 119 169 110 222 83 281 113 377 110 410 119 420 125 459 136 488 158 563 167 576 163 581 164 609 167 641 174 646 174 662 177 697" transform="translate(134,385) scale(-1,1) translate(-134,-385)" fill="url(#id-male-17_samurai_jacket-0)" id="id-male-17_samurai_jacket-31">
</polygon>
<polygon points="170 601 158 592 154 591 153 577 164 570 168 543 165 506 177 493 187 421 188 407 194 386 182 350 188 299 184 278 158 222 148 168 182 138 195 66 267 23 281 33 371 33 430 25 545 101 567 144 537 289 530 425 543 466 543 518 557 576 570 581 570 605 565 605 565 609 475 633 438 671 302 671 251 621" fill="url(#id-male-17_samurai_jacket-1)" id="id-male-17_samurai_jacket-32">
</polygon>
<polygon points="622 724 649 719 661 770 667 774 690 749 709 759 720 770 704 697 705 664 700 612 703 501 709 442 707 403 679 369 652 249 659 237 657 232 655 158 636 89 620 64 580 42 580 39 566 34 561 39 561 28 482 0 452 16 452 25 544 101 568 144 552 197 532 210 546 224 538 282 574 425 574 476 593 501 602 521 619 609 614 624 620 635 622 643 617 648 629 662 632 697" fill="url(#id-male-17_samurai_jacket-2)" id="id-male-17_samurai_jacket-31">
</polygon>
<polygon points="671 719 664 737 684 752 690 745 710 755 719 766 704 697 681 697" fill="url(#id-male-17_samurai_jacket-3)" id="id-male-17_samurai_jacket-31">
</polygon>
<polygon points="163 603 165 595 251 613 298 657 427 661 455 625 569 607 571 612 475 637 438 675 302 675 251 625" fill="#02050d" id="id-male-17_samurai_jacket-32">
</polygon>
<polygon points="170 601 158 592 251 609 298 653 427 657 455 621 565 601 565 609 475 633 438 671 302 671 251 621" fill="url(#id-male-17_samurai_jacket-4)" id="id-male-17_samurai_jacket-32">
</polygon>
<polygon points="501 392 525 331 540 274 537 289 531 410 540 437 543 466 543 499 556 540 554 564 534 518 520 518 538 466 522 435 516 379" fill="#104745" id="id-male-17_samurai_jacket-32">
</polygon>
<polygon points="212 304 187 285 158 222 178 237" fill="#d8d8d8" opacity="0.176" id="id-male-17_samurai_jacket-32">
</polygon>
<polygon points="189 179 163 168 198 222 159 188 148 168 182 138 212 66 261 68 284 46 422 44 471 71 507 76 540 102 557 137 545 153 537 110 530 169 511 151 518 188 467 256 231 249 235 260 189 234 212 227" fill="url(#id-male-17_samurai_jacket-5)" opacity="0.176" id="id-male-17_samurai_jacket-39">
</polygon>
</g>
<g transform="translate(111,617)" id="id-male-17_samurai_jacket-40">
<polygon points="173 24 4 151 1 151 1 113 150 0" fill="url(#id-male-17_samurai_jacket-6)" id="id-male-17_samurai_jacket-41">
</polygon>
<polygon points="116 67 109 72 100 45 91 45 111 29 105 43" fill="#43b64d" id="id-male-17_samurai_jacket-41">
</polygon>
<polygon points="173 24 150 41 129 15 150 0" fill="url(#id-male-17_samurai_jacket-7)" id="id-male-17_samurai_jacket-41">
</polygon>
<polygon points="28 133 4 151 1 151 1 113 23 96" fill="#0b6e5a" id="id-male-17_samurai_jacket-41">
</polygon>
<polygon points="173 24 4 151 1 151 1 148 170 21" fill="#035320" id="id-male-17_samurai_jacket-41">
</polygon>
<polygon points="4 151 26 152 25 143 27 134" fill="#131f36" id="id-male-17_samurai_jacket-46">
</polygon>
<path d="M 83 51 L 103 75 L 105 79 L 66 107 L 62 105 L 45 80 L 46 77 L 79 51 L 83 51 Z M 58 75 L 55 79 L 69 98 L 74 93 L 58 75 Z" fill="#080d1d" id="id-male-17_samurai_jacket-47">
</path>
<path d="M 83 51 L 103 75 L 95 82 L 93 81 L 84 88 L 84 89 L 65 104 L 62 101 L 45 80 L 46 77 L 62 64 L 67 66 L 75 60 L 75 53 L 79 51 L 83 51 Z M 56 72 L 51 77 L 67 100 L 69 98 L 74 93 L 58 75 L 56 72 Z" fill="#444754" id="id-male-17_samurai_jacket-47">
</path>
<polygon points="45 80 46 82 52 78 51 77 56 72 57 74 67 66 75 60 82 55 101 77 103 75 83 51 79 51 75 53 75 60 67 66 62 64 46 77" fill="#848b9c" id="id-male-17_samurai_jacket-49">
</polygon>
<polygon points="80 83 90 75 78 63 70 70" fill="#2c313d" id="id-male-17_samurai_jacket-50">
</polygon>
</g>
<g transform="translate(155,147)" id="id-male-17_samurai_jacket-51">
<polygon points="41 434 97 443 116 245 110 200 101 194 67 203 106 227 41 222 36 245 97 277 60 281 67 425" fill="#38507f" opacity="0.165" id="id-male-17_samurai_jacket-52">
</polygon>
<polygon points="117 210 122 245 104 444 158 414 227 485 283 458 283 277 292 210 252 203 244 239 154 203 180 256" fill="#7290be" opacity="0.099" id="id-male-17_samurai_jacket-53">
</polygon>
<polygon points="203 277 289 232 283 271" fill="#2d487d" opacity="0.324" id="id-male-17_samurai_jacket-54">
</polygon>
<polygon points="357 200 357 219 329 261 357 258 335 333 370 291 383 320 335 395 363 389 388 424 397 425 388 438 321 443 311 271 321 227" fill="#3847a4" opacity="0.172" id="id-male-17_samurai_jacket-55">
</polygon>
<polygon points="289 481 297 476 300 277 307 222 337 182 376 65 365 69 324 182 297 210 293 251 289 273" fill="url(#id-male-17_samurai_jacket-8)" id="id-male-17_samurai_jacket-56">
</polygon>
<polygon points="210 160 308 148 355 89 301 127" fill="#112b33" id="id-male-17_samurai_jacket-57">
</polygon>
<polygon points="411 0 317 108 397 38" fill="#082316" id="id-male-17_samurai_jacket-58">
</polygon>
<polygon points="324 448 412 438 404 431 401 435 324 444" fill="#23344c" id="id-male-17_samurai_jacket-59">
</polygon>
<polygon points="274 486 267 494 141 492 97 449 1 431 10 425 30 434 97 448 141 489 206 492" fill="#475775" id="id-male-17_samurai_jacket-60">
</polygon>
</g>
</g>
<polygon points="574 437 537 294 546 236 532 222 553 209 577 213 567 336 574 394" fill="#014921" id="id-male-17_samurai_jacket-61">
</polygon>
<polygon points="598 433 689 425 617 398 647 369 637 274 656 305 678 381 675 389 698 406 678 373 651 261 594 174 580 191 577 283 604 351 639 353" fill="#079507" id="id-male-17_samurai_jacket-62">
</polygon>
<polygon points="574 437 575 487 603 536 619 621 627 615 627 597 639 597 635 669 649 665 654 596 675 595 675 626 660 625 658 660 654 667 650 674 631 709 703 709 705 668 675 658 689 568 654 563 627 464 639 449 685 430 707 430 707 426 683 426 646 442 598 433 639 353 593 391 606 357 582 282 588 269 586 191 595 181 635 267 658 301 649 260 552 50 505 17 480 11 465 22 486 29 501 60 499 66 531 60 522 77 546 66 560 110 552 122 546 110 453 35 453 39 542 113 568 157 552 209 552 222 568 215 549 261 574 222 560 336 570 393" fill="url(#id-male-17_samurai_jacket-9)" id="id-male-17_samurai_jacket-63">
</polygon>
<polygon points="567 192 574 154 565 144 575 121 548 53 552 53 581 129 577 156 584 170" fill="#018601" id="id-male-17_samurai_jacket-64">
</polygon>
<polygon points="154 396 125 324 157 222 149 215 157 191 197 232 164 180 167 173 190 191 213 241 187 246 164 239 185 294" fill="url(#id-male-17_samurai_jacket-10)" id="id-male-17_samurai_jacket-65">
</polygon>
<polygon points="57 342 97 323 57 324" fill="#061227" id="id-male-17_samurai_jacket-66">
</polygon>
<polygon points="62 316 102 299 62 298 57 301" fill="#061227" id="id-male-17_samurai_jacket-67">
</polygon>
<polygon points="71 298 81 289 85 273 95 273 97 298" fill="#374e78" id="id-male-17_samurai_jacket-68">
</polygon>
<polygon points="76 323 94 305 106 323" fill="#374e78" id="id-male-17_samurai_jacket-69">
</polygon>
<polygon points="63 372 131 351 92 351" fill="#1d3357" id="id-male-17_samurai_jacket-70">
</polygon>
<polygon points="106 406 154 412 147 402 123 393 96 402" fill="#1b3160" id="id-male-17_samurai_jacket-71">
</polygon>
<polygon points="26 712 20 708 23 660 28 660 26 706 55 706 57 660 81 658 75 704 92 704 92 711 100 727 81 729 72 711 62 712 66 776 57 783 33 761 39 714" fill="#030917" id="id-male-17_samurai_jacket-72">
</polygon>
<polygon points="581 120 571 152 595 161" fill="#014823" id="id-male-17_samurai_jacket-73">
</polygon>
<g transform="translate(593,533)" id="id-male-17_samurai_jacket-74">
</g>
<g transform="translate(559,46)" id="id-male-17_samurai_jacket-75">
<polygon points="1 25 3 5 7 0 21 5 21 8 49 20 68 35 88 88 96 131 96 198 101 202 96 215 73 208 35 131 13 67" fill="#016d03" id="id-male-17_samurai_jacket-76">
</polygon>
<polygon points="1 25 3 5 7 0 21 5 21 8 49 20 68 35 88 88 96 131 96 198 101 202 96 215 73 208 35 131 13 67" fill="#016d03" id="id-male-17_samurai_jacket-76">
</polygon>
<polygon points="19 37 21 8 49 20 68 35 88 88 96 131 96 198 101 202 79 186" fill="#20a11c" id="id-male-17_samurai_jacket-76">
</polygon>
<polygon points="88 88 96 131 96 198 101 202 79 186" fill="#49c486" id="id-male-17_samurai_jacket-76">
</polygon>
<polygon points="19 37 74 55 40 91" fill="#3db934" id="id-male-17_samurai_jacket-80">
</polygon>
<polygon points="18 10 12 45 74 193 98 209 100 204 77 188 16 38" fill="#20a11c" id="id-male-17_samurai_jacket-81">
</polygon>
</g>
<g transform="translate(70,12)" id="id-male-17_samurai_jacket-82">
<polygon points="109 23 114 137 80 184 54 255 35 260 6 249 0 242 13 92 73 30" fill="#040712" id="id-male-17_samurai_jacket-83">
</polygon>
<polygon points="107 32 109 135 76 184 53 253 31 257 48 245 71 181 104 135 103 34 66 37 71 33" fill="url(#id-male-17_samurai_jacket-11)" id="id-male-17_samurai_jacket-83">
</polygon>
<polygon points="98 44 102 132 67 179 47 242 27 245 1 229 7 170 14 167 30 142 44 116 56 78" fill="url(#id-male-17_samurai_jacket-12)" id="id-male-17_samurai_jacket-83">
</polygon>
<polygon points="5 165 11 163 32 127 47 75 37 65 13 92" fill="#97aad6" id="id-male-17_samurai_jacket-86">
</polygon>
<polygon points="5 165 11 163 32 127 36 113 36 92 13 92" fill="#2c4367" id="id-male-17_samurai_jacket-86">
</polygon>
<polygon points="5 165 11 160 29 127 32 121 9 127" fill="#115f7c" id="id-male-17_samurai_jacket-86">
</polygon>
<polygon points="38 64 55 69 96 37 63 39" fill="#2b4066" id="id-male-17_samurai_jacket-89">
</polygon>
<polygon points="38 64 55 69 96 37 55 66" fill="#768ab3" id="id-male-17_samurai_jacket-89">
</polygon>
<polygon points="99 135 68 176 36 132 44 116" fill="#2a1737" id="id-male-17_samurai_jacket-91">
</polygon>
<polygon points="38 220 21 157 14 167 7 169 7 181" fill="#10342c" id="id-male-17_samurai_jacket-92">
</polygon>
<polygon points="29 143 35 140 68 176 36 132" fill="#345078" id="id-male-17_samurai_jacket-93">
</polygon>
<polygon points="0 240 25 252 25 246 0 232" fill="#213250" id="id-male-17_samurai_jacket-94">
</polygon>
<polygon points="37 255 51 249 54 238 48 247" fill="#485f84" id="id-male-17_samurai_jacket-95">
</polygon>
<polygon points="128 58 106 25 106 16 156 0 164 5 171 5 192 23 168 57" fill="#0a121e" id="id-male-17_samurai_jacket-96">
</polygon>
<polygon points="502 69 509 57 585 232 590 237 585 245 575 242 562 227 515 116" id="id-male-17_samurai_jacket-76">
</polygon>
<polygon points="162 48 167 54 189 23 172 9 165 9 179 27" fill="#18263f" id="id-male-17_samurai_jacket-98">
</polygon>
<polygon points="130 48 159 48 174 28 157 2 125 14 118 30" fill="url(#id-male-17_samurai_jacket-13)" id="id-male-17_samurai_jacket-99">
</polygon>
<polygon points="444 1 418 14 434 42 483 40 491 34 491 25" fill="#141722" id="id-male-17_samurai_jacket-100">
</polygon>
<polygon points="442 34 428 14 435 8 421 16 435 40" fill="#253651" id="id-male-17_samurai_jacket-101">
</polygon>
<polygon points="444 2 431 14 444 33 481 34 489 27" fill="url(#id-male-17_samurai_jacket-14)" id="id-male-17_samurai_jacket-102">
</polygon>
</g>
<polygon points="240 14 240 7 249 1 260 3 273 1 259 14 282 35 372 37 432 30 444 38 444 23 461 17 466 13 449 1 479 1 487 5 486 7 493 14 481 12 454 30 453 38 538 106 551 127 536 108 429 38 370 47 279 46" fill="url(#id-male-17_samurai_jacket-15)" id="id-male-17_samurai_jacket-103">
</polygon>
<polygon points="555 153 558 149 536 114 481 76 429 41 414 46 429 44 534 117" fill="#2d559b" id="id-male-17_samurai_jacket-104">
</polygon>
<polygon points="457 54 474 77 484 70 463 49 449 37 442 42 453 51 455 49" fill="url(#id-male-17_samurai_jacket-16)" id="id-male-17_samurai_jacket-105">
</polygon>
<polygon points="451 46 457 54 463 51 454 43" fill="#3a4554" id="id-male-17_samurai_jacket-106">
</polygon>
<polygon points="450 44 445 42 450 38 453 41" fill="#a3b3ca" id="id-male-17_samurai_jacket-107">
</polygon>
<polygon points="471 72 473 70 475 72 479 70 477 66 481 65 484 70 474 79" fill="#d81e2e" id="id-male-17_samurai_jacket-108">
</polygon>
<polygon points="453 4 476 3 466 13" fill="#0a0e20" id="id-male-17_samurai_jacket-109">
</polygon>
<g transform="translate(6,366)" id="id-male-17_samurai_jacket-110">
<polygon points="19 294 6 287 6 222 94 218 100 229 97 287 88 291" fill="#030b18" id="id-male-17_samurai_jacket-111">
</polygon>
<polygon points="97 279 82 272 85 226 100 229" fill="#2d4166" id="id-male-17_samurai_jacket-112">
</polygon>
<polygon points="6 284 70 274 72 225 6 225" fill="url(#id-male-17_samurai_jacket-17)" id="id-male-17_samurai_jacket-113">
</polygon>
<polygon points="35 225 62 225 47 233" fill="#3d70bd" id="id-male-17_samurai_jacket-114">
</polygon>
<path d="M 44 0 L 57 22 L 147 60 L 147 66 L 135 117 L 129 119 L 135 88 L 87 71 L 40 93 L 33 120 L 41 122 L 44 119 L 68 119 L 68 126 L 105 127 L 129 134 L 117 175 L 100 168 L 60 170 L 57 173 L 41 173 L 36 170 L 30 170 L 28 188 L 12 212 L 5 206 L 0 126 L 20 13 L 44 0 Z M 44 42 L 42 51 L 56 48 L 44 42 Z" fill="#030b19" id="id-male-17_samurai_jacket-47">
</path>
<polygon points="23 11 42 33 54 23 41 2" fill="url(#id-male-17_samurai_jacket-18)" id="id-male-17_samurai_jacket-116">
</polygon>
<polygon points="45 37 55 26 81 40 55 44" fill="url(#id-male-17_samurai_jacket-19)" id="id-male-17_samurai_jacket-117">
</polygon>
<polygon points="42 51 82 44 88 66 40 88" fill="#111c30" id="id-male-17_samurai_jacket-118">
</polygon>
<polygon points="5 207 13 195 17 168 27 166 34 126 25 124 36 71 39 40 20 15 0 124" fill="#223150" id="id-male-17_samurai_jacket-119">
</polygon>
<polygon points="5 207 8 201 39 40 20 15 19 21 34 44 4 201" fill="#273f72" id="id-male-17_samurai_jacket-119">
</polygon>
<polygon points="53 164 68 164 78 133 54 129" fill="url(#id-male-17_samurai_jacket-20)" id="id-male-17_samurai_jacket-121">
</polygon>
<polygon points="42 173 47 126 68 124 66 122 42 122 36 170" fill="url(#id-male-17_samurai_jacket-21)" id="id-male-17_samurai_jacket-122">
</polygon>
<polygon points="623 343 698 343 694 170 685 177 667 279 654 297 623 306" fill="#080911" id="id-male-17_samurai_jacket-123">
</polygon>
<polygon points="623 339 698 339 694 173 687 180 669 282 654 300 623 309" fill="#12323e" id="id-male-17_samurai_jacket-123">
</polygon>
<polygon points="680 339 698 339 698 328 695 224 688 229" fill="#385279" id="id-male-17_samurai_jacket-123">
</polygon>
<polygon points="635 339 662 339 663 317 654 300 632 307" fill="#344974" id="id-male-17_samurai_jacket-123">
</polygon>
<polygon points="697 324 704 317 705 265 697 259 665 261 658 267 658 298 659 303 682 315 697 320" fill="#10161d" id="id-male-17_samurai_jacket-127">
</polygon>
<polygon points="705 266 669 269 666 273 664 298 698 313 704 310" fill="url(#id-male-17_samurai_jacket-22)" id="id-male-17_samurai_jacket-128">
</polygon>
<polygon points="593 167 587 175 603 216 695 216 703 213 707 170 695 167 618 168" fill="#131721" id="id-male-17_samurai_jacket-129">
</polygon>
<polygon points="587 175 603 216 650 209 684 209 689 176" fill="url(#id-male-17_samurai_jacket-23)" id="id-male-17_samurai_jacket-129">
</polygon>
<polygon points="667 209 684 209 689 176 666 176" fill="#4c679e" id="id-male-17_samurai_jacket-129">
</polygon>
<polygon points="694 182 708 180 706 206 692 202" fill="#9c4907" id="id-male-17_samurai_jacket-132">
</polygon>
<polygon points="699 184 708 183 706 203 697 199" fill="#c99540" id="id-male-17_samurai_jacket-132">
</polygon>
</g>
<g transform="translate(173,9)" id="id-male-17_samurai_jacket-134">
<polygon points="16 301 26 293 24 288 40 260 77 188 278 192 293 199 356 289 354 292 363 300 367 276 319 198 301 163 301 141 332 91 367 44 381 44 386 47 392 32 390 26 341 4 332 2 316 18 324 32 259 114 249 122 118 120 105 116 99 106 69 44 75 32 61 8 48 2 3 20 0 32 1 38 6 38 22 56 24 56 61 131 64 144 64 165 10 279" fill="url(#id-male-17_samurai_jacket-24)" id="id-male-17_samurai_jacket-135">
</polygon>
<polygon points="15 299 38 258 73 189 80 184 281 188 292 192 364 294 366 280 309 192 298 165 295 147 297 139 321 100 361 44 337 42 327 35 262 116 252 125 243 127 120 125 106 122 97 113 66 46 56 59 30 57 66 134 69 146 69 164 11 282" fill="url(#id-male-17_samurai_jacket-25)" id="id-male-17_samurai_jacket-135">
</polygon>
<polygon points="339 36 329 17 342 2 388 25 378 38" fill="#1b2948" id="id-male-17_samurai_jacket-137">
</polygon>
<polygon points="336 32 329 17 335 11 378 38 348 37" fill="#162138" id="id-male-17_samurai_jacket-137">
</polygon>
<polygon points="53 53 68 31 47 0 9 16 25 49" fill="#1b2948" id="id-male-17_samurai_jacket-139">
</polygon>
<polygon points="154 125 154 185 156 185 156 125" fill="#293a58" id="id-male-17_samurai_jacket-140">
</polygon>
<polygon points="201 189 204 189 204 126 201 126" fill="#293a58" id="id-male-17_samurai_jacket-141">
</polygon>
<polygon points="162 116 196 116 198 116 199 119 199 190 198 193 195 194 162 192 159 191 159 119 160 118" fill="url(#id-male-17_samurai_jacket-26)" id="id-male-17_samurai_jacket-142">
</polygon>
<polygon points="162 116 196 116 198 116 199 119 199 122 192 116 166 116 159 122 159 119 160 118" fill="#6b80a9" id="id-male-17_samurai_jacket-142">
</polygon>
<polygon points="191 116 193 116 179 143 179 146 172 147 172 161 179 161 180 165 193 193 191 193 177 163 170 163 170 145 177 144" fill="#080c1c" id="id-male-17_samurai_jacket-142">
</polygon>
<polygon points="38 44 50 44 56 35" fill="#4c5e7b" id="id-male-17_samurai_jacket-145">
</polygon>
</g>
<g transform="translate(333,548)" fill="url(#id-male-17_samurai_jacket-27)" id="id-male-17_samurai_jacket-146">
<path d="M 6 48 C 6 49 6 49 6 49 L 7 50 C 8 51 9 53 12 54 C 12 63 12 68 13 69 C 8 67 4 62 0 54 C 2 53 4 51 6 48 Z M 45 48 C 49 52 51 54 51 54 C 47 60 42 65 36 69 C 37 64 38 59 38 54 C 43 50 45 48 45 48 Z M 18 35 C 18 35 20 36 24 37 C 24 37 24 38 26 39 C 28 37 31 36 34 35 L 34 35 L 34 35 L 34 35 C 34 36 35 38 36 41 C 36 41 35 42 33 44 C 33 44 34 44 35 45 C 32 50 32 52 32 55 L 32 55 C 32 55 32 56 32 56 C 32 56 31 56 29 58 C 29 58 29 58 29 59 C 29 59 27 60 25 62 C 25 62 23 61 21 60 L 21 59 L 21 59 C 21 59 21 59 21 58 C 21 58 20 57 18 56 C 18 48 17 47 16 45 L 16 45 C 16 45 16 45 16 45 C 16 45 17 44 18 44 L 18 44 L 15 41 L 15 41 C 15 41 15 41 15 41 L 15 41 C 16 40 16 38 18 35 Z M 19 47 C 19 49 18 50 18 50 C 19 50 20 51 20 51 L 20 51 C 20 53 20 55 21 56 C 23 55 25 54 25 54 L 25 54 C 27 55 28 56 28 56 C 30 54 30 53 30 52 C 32 51 32 49 31 47 L 31 47 L 31 47 C 29 48 27 48 26 48 L 26 48 C 26 48 26 48 25 48 C 21 48 19 47 19 47 L 19 47 C 19 47 19 47 19 47 L 19 47 Z M 29 52 L 28 54 L 28 54 L 28 54 C 28 54 28 54 27 53 L 27 53 L 27 53 C 27 53 28 52 29 52 L 29 52 Z M 21 52 C 22 52 22 53 23 53 L 23 53 C 23 53 23 53 23 53 L 23 53 L 23 53 L 22 54 C 21 52 21 52 21 52 Z M 10 42 C 12 44 13 45 13 45 C 12 49 12 51 12 52 L 12 52 L 12 52 L 7 47 C 9 43 10 42 10 42 Z M 41 42 C 41 42 42 43 44 46 L 44 46 L 38 52 L 38 52 L 38 52 C 38 51 38 49 38 45 C 38 45 39 44 41 42 Z M 21 48 C 24 49 26 49 30 49 C 29 50 28 51 28 51 C 28 50 27 50 27 50 C 25 50 23 50 23 50 L 23 50 C 23 50 23 50 23 50 L 22 51 C 21 49 21 48 21 48 Z M 25 40 C 25 40 25 40 24 42 C 24 42 24 42 24 44 C 23 43 21 43 20 43 C 20 43 20 44 21 46 C 22 44 24 45 25 47 C 27 45 28 45 30 46 C 30 46 31 45 31 44 C 30 43 28 43 26 44 C 26 44 27 43 27 42 C 27 42 27 41 25 40 Z M 38 34 C 39 38 40 39 40 39 L 38 43 C 36 38 36 35 36 35 C 37 35 38 34 38 34 Z M 14 34 L 16 35 C 14 40 13 42 13 42 C 12 41 11 40 11 40 C 13 36 14 34 14 34 Z M 19 37 C 19 37 19 37 18 38 C 18 38 18 39 20 41 L 20 41 L 23 40 C 23 40 22 39 19 37 Z M 32 37 C 32 37 31 38 29 40 L 28 40 L 31 41 C 31 41 32 40 34 38 C 34 38 33 38 32 37 Z M 27 9 C 29 18 30 23 31 23 L 31 23 L 31 23 C 28 27 27 28 27 28 L 29 31 C 27 35 26 37 26 37 C 24 33 23 31 23 31 C 24 30 25 29 25 29 L 25 29 C 25 29 25 28 25 28 C 23 25 22 23 22 23 C 26 14 27 9 27 9 Z M 15 32 C 16 32 18 32 22 32 C 22 32 22 33 23 35 C 23 35 21 35 17 33 L 17 33 L 15 32 L 15 32 Z M 34 32 C 34 32 34 32 34 32 L 37 32 L 36 33 C 36 33 34 34 29 35 C 29 35 29 35 29 35 L 29 35 C 29 35 29 34 30 32 L 30 32 Z M 37 29 C 41 29 43 29 43 29 C 43 32 42 34 42 34 C 40 33 39 33 39 33 L 39 31 C 34 31 32 31 32 31 L 32 31 L 32 31 C 35 30 37 29 37 29 Z M 16 29 C 18 30 20 31 20 31 L 21 31 C 21 31 21 31 21 31 C 16 31 14 31 14 31 L 14 31 L 14 31 L 14 32 C 11 33 10 33 10 33 L 10 29 L 10 29 C 13 29 15 29 16 29 L 16 29 L 16 29 Z M 22 20 L 21 23 C 23 26 23 28 23 28 C 22 29 22 29 22 29 C 20 28 19 27 19 27 C 18 24 18 23 18 23 L 18 23 L 18 23 C 19 22 20 22 20 21 L 21 21 C 21 21 21 20 22 20 L 22 20 C 22 20 22 20 22 20 Z M 31 20 C 31 20 33 21 35 23 C 35 23 34 25 33 28 C 33 28 32 28 31 29 C 31 29 31 29 30 29 L 30 28 C 30 28 30 28 30 28 C 30 28 30 26 32 24 L 32 24 Z M 4 0 C 10 2 15 4 19 10 C 15 15 14 21 18 28 L 13 27 C 11 22 10 19 10 19 C 11 15 12 13 12 13 C 10 7 7 3 4 0 Z M 52 1 C 48 4 46 8 44 11 L 44 12 C 43 12 43 13 43 14 C 44 15 44 17 44 18 C 44 18 44 18 44 18 L 44 19 C 43 20 42 22 39 27 C 39 27 38 27 35 28 C 39 20 40 15 36 10 C 41 5 47 2 52 1 Z" id="id-male-17_samurai_jacket-47">
</path>
</g>
<g transform="translate(325,270)" id="id-male-17_samurai_jacket-148">
<path d="M 8 363 L 8 360 L 3 360 L 3 351 L 0 351 L 0 363 L 8 363 Z M 14 363 C 15 363 16 363 17 363 C 18 362 19 362 19 361 C 20 360 20 360 20 359 C 20 358 21 358 21 357 C 21 356 20 355 20 354 C 20 354 19 353 19 352 C 18 352 18 351 17 351 C 16 351 15 351 14 351 C 14 351 13 351 12 351 C 11 351 11 352 10 352 C 10 353 9 354 9 354 C 8 355 8 356 8 357 C 8 358 8 359 9 359 C 9 360 10 361 10 362 C 11 362 11 363 12 363 C 13 363 14 363 14 363 Z M 14 361 C 14 361 13 360 12 360 C 12 359 11 358 11 357 C 11 356 12 355 12 354 C 13 354 14 353 14 353 C 15 353 16 354 17 354 C 17 355 18 356 18 357 C 18 358 17 359 17 360 C 16 360 15 361 14 361 Z M 27 363 L 27 357 L 32 351 L 29 351 L 26 355 L 24 351 L 20 351 L 24 357 L 24 363 L 27 363 Z M 32 363 L 33 361 L 38 361 L 39 363 L 42 363 L 36 351 L 36 351 L 30 363 L 32 363 Z M 37 359 L 34 359 L 36 355 L 37 359 Z M 50 363 L 50 360 L 46 360 L 46 351 L 43 351 L 43 363 L 50 363 Z M 56 363 L 56 353 L 60 353 L 60 351 L 49 351 L 49 353 L 53 353 L 53 363 L 56 363 Z M 66 363 L 66 357 L 71 351 L 68 351 L 65 355 L 63 351 L 59 351 L 63 357 L 63 363 L 66 363 Z" fill="#e3e3e3" id="id-male-17_samurai_jacket-149" fill-rule="nonzero">
</path>
<path d="M 342 2 C 334 5 326 6 318 6 C 318 14 318 18 318 18 C 326 17 329 17 329 17 C 330 28 330 34 330 34 C 334 34 336 34 336 34 C 335 22 335 17 335 17 L 342 15 C 342 7 342 3 342 2 Z M 342 42 C 333 42 329 42 329 42 C 324 44 320 46 320 57 C 321 63 321 69 330 72 C 339 72 343 72 343 72 C 343 67 343 64 343 64 C 335 64 331 64 331 64 C 324 62 325 51 331 51 L 342 51 C 342 45 342 42 342 42 Z M 343 79 C 344 85 344 88 344 88 C 335 81 326 84 328 100 C 332 99 334 99 334 99 C 334 95 334 94 334 94 C 337 93 339 93 339 93 C 339 102 340 106 340 106 C 329 107 324 108 324 108 C 323 97 322 81 329 78 C 334 76 339 77 343 79 Z M 324 115 C 324 121 325 124 325 124 C 340 121 348 120 348 120 L 347 112 C 332 114 324 115 324 115 Z" transform="translate(333,63) rotate(-11) translate(-333,-63)" fill="#bfbfbf" id="id-male-17_samurai_jacket-47">
</path>
</g>
</g>
<defs>
<radialGradient cx="69%" cy="23%" r="99%" id="id-male-27_try_again_helmet-0" fx="69%" fy="23%" gradientTransform="translate(0.693,0.233) scale(0.68,1) rotate(90) scale(1,1) translate(-0.693,-0.233)">
<stop stop-color="#037dc7" offset="0%">
</stop>
<stop stop-color="#000e16" offset="75%">
</stop>
<stop stop-color="#3f1226" offset="100%">
</stop>
</radialGradient>
<radialGradient cx="50%" cy="50%" r="74%" id="id-male-27_try_again_helmet-1" fx="50%" fy="50%" gradientTransform="translate(0.5,0.5) scale(0.68,1) rotate(-158) scale(1,1) translate(-0.5,-0.5)">
<stop stop-color="#ffffff" offset="0%" stop-opacity="0">
</stop>
<stop stop-color="#ffffff" offset="92%" stop-opacity="0">
</stop>
<stop stop-color="#ffffff" offset="100%">
</stop>
</radialGradient>
<linearGradient x1="50%" y1="0%" x2="50%" y2="100%" id="id-male-27_try_again_helmet-2">
<stop stop-color="#e2eaf1" offset="0%">
</stop>
<stop stop-color="#625763" offset="100%">
</stop>
</linearGradient>
<linearGradient x1="100%" y1="50%" x2="0%" y2="50%" id="id-male-27_try_again_helmet-3">
<stop stop-color="#302d1c" offset="0%">
</stop>
<stop stop-color="#101010" offset="52%">
</stop>
<stop stop-color="#282719" offset="100%">
</stop>
</linearGradient>
</defs>
<g transform="translate(503,220)" id="id-male-27_try_again_helmet-4">
<path d="M 78 211 C 78 214 79 216 79 216 C 94 210 114 208 135 206 C 141 195 148 189 155 189 C 165 189 176 205 176 205 C 204 210 217 212 217 212 C 227 218 232 221 232 221 L 235 210 L 156 179 C 104 201 78 211 78 211 Z" fill="#532217" fill-opacity="0.428" id="id-male-27_try_again_helmet-5">
</path>
<path d="M 53 246 C 40 262 34 270 34 270 C 15 274 5 277 5 277 C 32 238 45 218 45 218 C 43 210 41 206 41 206 C 39 207 38 207 38 207 C 31 188 27 178 27 178 C 29 177 30 177 30 177 C 30 175 30 175 30 175 C 35 172 38 171 38 171 C 54 90 62 50 62 50 C 55 36 48 23 47 6 C 74 21 88 29 88 29 C 174 30 217 31 217 31 C 247 10 262 0 262 0 C 257 18 252 35 245 49 C 258 57 264 61 264 61 C 288 51 300 46 300 46 C 301 45 301 45 301 45 C 307 42 310 40 310 40 C 312 44 313 46 313 46 C 307 49 303 51 303 51 C 302 50 302 49 302 49 C 279 62 267 68 267 68 C 270 136 271 170 271 170 C 278 174 282 176 282 176 C 273 194 268 203 268 203 C 267 202 266 202 266 202 C 262 209 261 212 261 212 C 292 255 308 277 308 277 C 288 273 278 271 278 271 C 265 254 259 246 259 246 C 262 241 271 239 265 226 C 247 238 238 244 238 244 C 234 241 232 240 232 240 C 229 241 227 242 227 242 C 232 223 234 214 234 214 C 182 191 156 179 156 179 C 104 201 78 212 78 212 C 84 235 87 247 87 247 C 79 247 75 247 75 247 L 47 225 C 42 234 44 241 53 246 Z" fill="#101010" id="id-male-27_try_again_helmet-6">
</path>
<path d="M 5 277 C 2 277 0 277 0 277 L 44 215 L 45 218 C 19 257 5 277 5 277 Z" fill="#fbfbfb" id="id-male-27_try_again_helmet-7">
</path>
<path d="M 43 214 C 38 213 36 213 36 213 C 26 184 21 170 21 170 L 23 163 C 36 197 43 214 43 214 Z" fill="#d20000" id="id-male-27_try_again_helmet-8">
</path>
<path d="M 27 185 C 29 184 30 183 30 183 C 28 177 26 174 26 174 L 22 173 C 25 181 27 185 27 185 Z" fill="#f5efec" id="id-male-27_try_again_helmet-9">
</path>
<path d="M 30 175 C 26 166 24 161 24 161 C 29 156 31 153 31 153 L 37 171 C 32 173 30 175 30 175 Z" fill="#4a4525" id="id-male-27_try_again_helmet-10">
</path>
<path d="M 277 155 C 271 169 269 176 269 176 C 272 177 274 178 274 178 C 278 176 280 174 280 174 C 283 168 285 165 285 165 L 278 159 C 277 157 277 155 277 155 Z" fill="#4e4927" id="id-male-27_try_again_helmet-11">
</path>
<path d="M 264 210 C 268 210 270 210 270 210 C 282 186 288 174 288 174 L 286 166 C 271 195 264 210 264 210 Z" fill="#d20000" id="id-male-27_try_again_helmet-12">
</path>
<path d="M 278 182 C 281 183 282 183 282 183 C 285 178 286 175 286 175 L 284 170 C 280 178 278 182 278 182 Z" fill="#f5efec" id="id-male-27_try_again_helmet-13">
</path>
<path d="M 308 277 C 310 277 311 277 311 277 L 263 209 L 261 212 C 292 255 308 277 308 277 Z" fill="#514f28" id="id-male-27_try_again_helmet-14">
</path>
<path d="M 238 214 C 289 164 295 109 257 50 C 185 37 116 37 51 52 C 5 111 30 181 69 214 C 100 208 121 205 134 205 C 151 176 164 182 176 205 C 214 206 240 213 238 214 Z" fill="url(#id-male-27_try_again_helmet-0)" id="id-male-27_try_again_helmet-15">
</path>
<path d="M 238 214 C 289 164 295 109 257 50 C 185 37 116 37 51 52 C 5 111 30 181 69 214 C 100 208 121 205 134 205 C 151 176 164 182 176 205 C 214 206 240 213 238 214 Z" fill="url(#id-male-27_try_again_helmet-1)" opacity="0.703" id="id-male-27_try_again_helmet-16">
</path>
<path d="M 233 228 C 217 238 208 243 208 243 C 205 241 204 240 204 240 C 200 245 198 248 198 248 C 204 252 206 254 206 254 C 209 249 211 246 211 246 L 231 236 C 233 231 233 228 233 228 Z" fill="#000000" id="id-male-27_try_again_helmet-17">
</path>
<path d="M 103 208 C 90 210 84 211 84 211 C 64 176 56 140 60 105 C 71 94 81 90 90 93 C 85 119 85 139 88 153 C 82 151 78 152 75 156 C 78 169 82 182 89 193 L 97 193 C 101 203 103 208 103 208 Z" fill="url(#id-male-27_try_again_helmet-2)" id="id-male-27_try_again_helmet-18">
</path>
<path d="M 33 84 C 43 66 49 58 49 58 C 63 54 70 51 70 51 C 72 53 72 53 72 53 C 66 69 63 79 63 85 C 82 84 92 83 92 83 C 95 70 99 57 106 43 C 88 45 69 48 51 52 C 44 60 38 71 33 84 Z" fill="#c7d7e5" id="id-male-27_try_again_helmet-19">
</path>
<path d="M 127 41 C 134 45 137 47 137 47 L 146 41 C 133 41 127 41 127 41 Z" fill="#bacfe0" id="id-male-27_try_again_helmet-20">
</path>
<path d="M 257 143 C 249 146 246 148 246 148 L 248 133 C 254 140 257 143 257 143 Z" fill="#8fb0cd" id="id-male-27_try_again_helmet-21">
</path>
<path d="M 247 122 C 257 122 261 122 261 122 C 260 92 256 68 249 52 L 233 49 C 242 75 247 99 247 122 Z" fill="#8fb0cd" id="id-male-27_try_again_helmet-22">
</path>
<path d="M 257 50 C 253 50 250 49 250 49 C 259 59 267 69 273 83 C 272 76 266 65 257 50 Z" fill="#99bad5" id="id-male-27_try_again_helmet-23">
</path>
<path d="M 66 49 C 90 22 120 9 155 10 C 191 12 218 24 237 47 C 183 38 126 38 66 49 Z" fill="url(#id-male-27_try_again_helmet-3)" id="id-male-27_try_again_helmet-24">
</path>
<path d="M 74 44 C 92 29 116 18 145 11 C 128 13 114 16 103 22 C 84 31 74 44 74 44 Z" fill="#f6f6f6" id="id-male-27_try_again_helmet-25">
</path>
<path d="M 198 42 C 201 43 202 43 202 43 C 192 24 187 15 187 15 L 180 14 C 188 23 194 33 198 42 Z" fill="#d40000" id="id-male-27_try_again_helmet-26">
</path>
<path d="M 47 6 L 45 0 L 88 29 C 61 13 47 6 47 6 Z" fill="#e9e9ea" id="id-male-27_try_again_helmet-27">
</path>
<path d="M 49 58 L 51 52 C 73 47 90 45 106 43 L 105 46 L 70 52 L 49 58 Z" fill="#e5ebf2" id="id-male-27_try_again_helmet-28">
</path>
<path d="M 108 191 C 112 184 114 181 114 181 C 120 185 123 188 123 188 L 118 198 C 111 193 108 191 108 191 Z" fill="#faff00" id="id-male-27_try_again_helmet-29">
</path>
<path d="M 215 191 C 212 185 210 181 210 181 L 228 184 C 219 189 215 191 215 191 Z" fill="#faff00" id="id-male-27_try_again_helmet-30">
</path>
</g>
<defs>
</defs>

</svg>
