<?xml version="1.0" encoding="UTF-8"?>
<svg xmlns="http://www.w3.org/2000/svg" xmlns:xlink="http://www.w3.org/1999/xlink" width="1320px" height="1760px" viewBox="0 0 1320 1760" version="1.1">
<defs>

</defs>

<defs>
</defs>
<g transform="translate(326,571)" id="id-female-4_hoodie_back-0">
<path d="M 205 35 C 214 25 282 5 282 5 C 321 -1 355 -2 384 4 C 427 15 466 30 464 38 C 454 56 415 97 336 107 C 244 93 219 58 205 35 Z" fill="#9a4e00" id="id-female-4_hoodie_back-1">
</path>
<path d="M 244 17 L 244 30 L 230 56 C 248 46 260 41 265 38 C 281 48 293 69 301 100 C 253 87 222 65 205 35 C 207 32 220 26 244 17 Z" fill="#dd8700" id="id-female-4_hoodie_back-2">
</path>
<path d="M 400 38 L 430 47 L 418 74 L 454 45 L 454 28 C 461 31 464 34 464 38 C 450 64 400 95 369 100 C 380 76 390 56 400 38 Z" fill="#dd8700" id="id-female-4_hoodie_back-3">
</path>
<polygon points="265 50 288 93 257 76" fill="#c06e00" id="id-female-4_hoodie_back-4">
</polygon>
<path d="M 295 81 L 331 102 L 369 92 L 390 53 L 369 100 L 336 107 C 324 105 312 103 301 100 C 299 95 298 89 295 81 Z" fill="#a35600" id="id-female-4_hoodie_back-5">
</path>
<polygon points="387 64 425 53 401 38" fill="#ffb100" id="id-female-4_hoodie_back-6">
</polygon>
<path d="M 76 785 C 84 780 88 776 90 773 C 90 773 88 769 85 763 L 10 763 C 4 780 1 789 1 789 L 11 796 C 54 788 76 785 76 785 Z" fill="#8e4400" id="id-female-4_hoodie_back-7">
</path>
<path d="M 613 798 L 559 783 L 544 772 L 590 735 L 641 791 C 622 796 613 798 613 798 Z" fill="#954a00" id="id-female-4_hoodie_back-8">
</path>
</g>
<defs>
</defs>
<path d="M 731 531 C 728 513 603 543 603 543 C 619 590 536 610 551 658 L 567 650 C 579 597 759 611 731 531 Z M 600 617 C 600 617 569 626 565 645 C 567 634 573 625 582 620 C 598 612 702 573 715 567 C 715 567 695 599 600 617 Z" fill="#010101" id="id-female-5_13_slick_swirl_back-0" fill-rule="nonzero">
</path>
<defs>
<linearGradient x1="100%" y1="46%" x2="12%" y2="47%" id="id-female-6.6_base_5-0">
<stop stop-color="#f97338" offset="0%">
</stop>
<stop stop-color="#f06728" offset="21%">
</stop>
<stop stop-color="#ffaa6b" offset="46%">
</stop>
<stop stop-color="#ff9a57" offset="80%">
</stop>
<stop stop-color="#ff8340" offset="100%">
</stop>
</linearGradient>
<linearGradient x1="53%" y1="81%" x2="50%" y2="21%" id="id-female-6.6_base_5-1">
<stop stop-color="#e58d69" offset="0%">
</stop>
<stop stop-color="#e1745c" offset="24%">
</stop>
<stop stop-color="#e27c40" offset="100%">
</stop>
</linearGradient>
<linearGradient x1="52%" y1="-4%" x2="46%" y2="70%" id="id-female-6.6_base_5-2">
<stop stop-color="#ed8d5b" offset="0%">
</stop>
<stop stop-color="#c76d3b" offset="100%">
</stop>
</linearGradient>
<linearGradient x1="46%" y1="43%" x2="15%" y2="43%" id="id-female-6.6_base_5-3">
<stop stop-color="#ee8152" offset="0%">
</stop>
<stop stop-color="#cf5621" offset="100%">
</stop>
</linearGradient>
<linearGradient x1="54%" y1="37%" x2="12%" y2="72%" id="id-female-6.6_base_5-4">
<stop stop-color="#3c1b05" offset="0%">
</stop>
<stop stop-color="#ae5b2e" offset="100%">
</stop>
</linearGradient>
<linearGradient x1="40%" y1="14%" x2="61%" y2="85%" id="id-female-6.6_base_5-5">
<stop stop-color="#6e1b17" offset="0%">
</stop>
<stop stop-color="#852720" offset="100%">
</stop>
</linearGradient>
<linearGradient x1="27%" y1="47%" x2="91%" y2="49%" id="id-female-6.6_base_5-6">
<stop stop-color="#ffa58a" offset="0%">
</stop>
<stop stop-color="#ffc3a1" offset="100%">
</stop>
</linearGradient>
<linearGradient x1="47%" y1="60%" x2="49%" y2="79%" id="id-female-6.6_base_5-7">
<stop stop-color="#ee833f" offset="0%">
</stop>
<stop stop-color="#e6713c" offset="60%">
</stop>
<stop stop-color="#f69666" offset="100%">
</stop>
</linearGradient>
<linearGradient x1="29%" y1="56%" x2="69%" y2="53%" id="id-female-6.6_base_5-8">
<stop stop-color="#d97647" offset="0%">
</stop>
<stop stop-color="#d6623c" offset="8%">
</stop>
<stop stop-color="#d77043" offset="18%">
</stop>
<stop stop-color="#d76545" offset="38%">
</stop>
<stop stop-color="#d36346" offset="65%">
</stop>
<stop stop-color="#d16140" offset="81%">
</stop>
<stop stop-color="#984f3b" offset="100%">
</stop>
</linearGradient>
<linearGradient x1="47%" y1="45%" x2="54%" y2="46%" id="id-female-6.6_base_5-9">
<stop stop-color="#e16241" offset="0%">
</stop>
<stop stop-color="#e1673e" offset="62%">
</stop>
<stop stop-color="#d45a30" offset="77%">
</stop>
<stop stop-color="#e37f49" offset="100%">
</stop>
</linearGradient>
<linearGradient x1="51%" y1="7%" x2="50%" y2="100%" id="id-female-6.6_base_5-10">
<stop stop-color="#e86b40" offset="0%">
</stop>
<stop stop-color="#e3845c" offset="75%">
</stop>
<stop stop-color="#e88461" offset="100%">
</stop>
</linearGradient>
<linearGradient x1="51%" y1="11%" x2="49%" y2="91%" id="id-female-6.6_base_5-11">
<stop stop-color="#e8793e" offset="0%">
</stop>
<stop stop-color="#e5763c" offset="73%">
</stop>
<stop stop-color="#e97e40" offset="100%">
</stop>
</linearGradient>
<linearGradient x1="51%" y1="-5%" x2="48%" y2="96%" id="id-female-6.6_base_5-12">
<stop stop-color="#ef773c" offset="0%">
</stop>
<stop stop-color="#dd662e" offset="100%">
</stop>
</linearGradient>
<linearGradient x1="50%" y1="19%" x2="50%" y2="69%" id="id-female-6.6_base_5-13">
<stop stop-color="#c04a19" offset="0%">
</stop>
<stop stop-color="#a33710" offset="46%">
</stop>
<stop stop-color="#be440b" offset="100%">
</stop>
</linearGradient>
<linearGradient x1="46%" y1="74%" x2="39%" y2="35%" id="id-female-6.6_base_5-14">
<stop stop-color="#b34a35" offset="0%">
</stop>
<stop stop-color="#c55e3e" offset="51%">
</stop>
<stop stop-color="#d4623b" offset="100%">
</stop>
</linearGradient>
<linearGradient x1="46%" y1="16%" x2="49%" y2="82%" id="id-female-6.6_base_5-15">
<stop stop-color="#9b473d" offset="0%" stop-opacity="0.186">
</stop>
<stop stop-color="#5f2520" offset="100%">
</stop>
</linearGradient>
<linearGradient x1="41%" y1="19%" x2="50%" y2="100%" id="id-female-6.6_base_5-16">
<stop stop-color="#cc5e47" offset="0%">
</stop>
<stop stop-color="#b13e35" offset="100%">
</stop>
</linearGradient>
<linearGradient x1="50%" y1="31%" x2="45%" y2="50%" id="id-female-6.6_base_5-17">
<stop stop-color="#e76a31" offset="0%">
</stop>
<stop stop-color="#eb8d54" offset="100%">
</stop>
</linearGradient>
<linearGradient x1="51%" y1="22%" x2="50%" y2="100%" id="id-female-6.6_base_5-18">
<stop stop-color="#c74b40" offset="0%">
</stop>
<stop stop-color="#c85e52" offset="100%">
</stop>
</linearGradient>
<linearGradient x1="49%" y1="0%" x2="50%" y2="99%" id="id-female-6.6_base_5-19">
<stop stop-color="#db6f3d" offset="0%">
</stop>
<stop stop-color="#e8764a" offset="100%">
</stop>
</linearGradient>
<linearGradient x1="44%" y1="15%" x2="50%" y2="100%" id="id-female-6.6_base_5-20">
<stop stop-color="#c15138" offset="0%">
</stop>
<stop stop-color="#ba4d37" offset="100%">
</stop>
</linearGradient>
<linearGradient x1="52%" y1="21%" x2="49%" y2="83%" id="id-female-6.6_base_5-21">
<stop stop-color="#e87740" offset="0%">
</stop>
<stop stop-color="#e77e4f" offset="48%">
</stop>
<stop stop-color="#e48553" offset="100%">
</stop>
</linearGradient>
<linearGradient x1="85%" y1="60%" x2="15%" y2="60%" id="id-female-6.6_base_5-22">
<stop stop-color="#e76c34" offset="0%">
</stop>
<stop stop-color="#d76128" offset="100%">
</stop>
</linearGradient>
<linearGradient x1="50%" y1="-3%" x2="59%" y2="91%" id="id-female-6.6_base_5-23">
<stop stop-color="#f98450" offset="0%">
</stop>
<stop stop-color="#e16c36" offset="53%">
</stop>
<stop stop-color="#d55d29" offset="66%">
</stop>
<stop stop-color="#d85620" offset="100%">
</stop>
</linearGradient>
<linearGradient x1="55%" y1="48%" x2="46%" y2="33%" id="id-female-6.6_base_5-24">
<stop stop-color="#e87c40" offset="0%">
</stop>
<stop stop-color="#e77c42" offset="86%">
</stop>
<stop stop-color="#e47138" offset="100%">
</stop>
</linearGradient>
<linearGradient x1="50%" y1="19%" x2="50%" y2="78%" id="id-female-6.6_base_5-25">
<stop stop-color="#913919" offset="0%">
</stop>
<stop stop-color="#ab4722" offset="50%">
</stop>
<stop stop-color="#842c26" offset="100%">
</stop>
</linearGradient>
<linearGradient x1="50%" y1="10%" x2="50%" y2="43%" id="id-female-6.6_base_5-26">
<stop stop-color="#ec7237" offset="0%">
</stop>
<stop stop-color="#cb5d37" offset="15%">
</stop>
<stop stop-color="#af3f09" offset="68%">
</stop>
<stop stop-color="#d04f19" offset="100%">
</stop>
</linearGradient>
<linearGradient x1="89%" y1="50%" x2="7%" y2="52%" id="id-female-6.6_base_5-27">
<stop stop-color="#a93700" offset="0%">
</stop>
<stop stop-color="#b85c4d" offset="53%" stop-opacity="0.199">
</stop>
<stop stop-color="#a3451f" offset="75%">
</stop>
<stop stop-color="#952903" offset="100%">
</stop>
</linearGradient>
<linearGradient x1="44%" y1="70%" x2="86%" y2="30%" id="id-female-6.6_base_5-28">
<stop stop-color="#ff975b" offset="0%">
</stop>
<stop stop-color="#ffaa6c" offset="100%">
</stop>
</linearGradient>
<linearGradient x1="33%" y1="92%" x2="62%" y2="23%" id="id-female-6.6_base_5-29">
<stop stop-color="#ac401f" offset="0%">
</stop>
<stop stop-color="#ff8245" offset="40%">
</stop>
<stop stop-color="#ff965b" offset="100%">
</stop>
</linearGradient>
<linearGradient x1="35%" y1="94%" x2="47%" y2="12%" id="id-female-6.6_base_5-30">
<stop stop-color="#df5820" offset="0%">
</stop>
<stop stop-color="#ff894d" offset="40%">
</stop>
<stop stop-color="#ffa769" offset="100%">
</stop>
</linearGradient>
<linearGradient x1="50%" y1="54%" x2="27%" y2="9%" id="id-female-6.6_base_5-31">
<stop stop-color="#f7ab80" offset="0%">
</stop>
<stop stop-color="#ddab90" offset="100%" stop-opacity="0.078">
</stop>
</linearGradient>
<linearGradient x1="50%" y1="0%" x2="93%" y2="69%" id="id-female-6.6_base_5-32">
<stop stop-color="#ff9558" offset="0%">
</stop>
<stop stop-color="#ff8b4a" offset="70%">
</stop>
<stop stop-color="#c6422f" offset="100%">
</stop>
</linearGradient>
<linearGradient x1="36%" y1="84%" x2="25%" y2="44%" id="id-female-6.6_base_5-33">
<stop stop-color="#c98762" offset="0%" stop-opacity="0.509">
</stop>
<stop stop-color="#90492c" offset="35%" stop-opacity="0.675">
</stop>
<stop stop-color="#762e17" offset="100%" stop-opacity="0">
</stop>
</linearGradient>
<linearGradient x1="63%" y1="95%" x2="43%" y2="20%" id="id-female-6.6_base_5-34">
<stop stop-color="#e67d45" offset="0%">
</stop>
<stop stop-color="#e98d52" offset="46%">
</stop>
<stop stop-color="#e27847" offset="100%">
</stop>
</linearGradient>
<linearGradient x1="40%" y1="0%" x2="50%" y2="86%" id="id-female-6.6_base_5-35">
<stop stop-color="#e67d42" offset="0%">
</stop>
<stop stop-color="#e47d44" offset="100%">
</stop>
</linearGradient>
<linearGradient x1="50%" y1="0%" x2="50%" y2="90%" id="id-female-6.6_base_5-36">
<stop stop-color="#ea8447" offset="0%">
</stop>
<stop stop-color="#e79253" offset="100%">
</stop>
</linearGradient>
<linearGradient x1="33%" y1="79%" x2="21%" y2="44%" id="id-female-6.6_base_5-37">
<stop stop-color="#be6457" offset="0%">
</stop>
<stop stop-color="#983f32" offset="28%" stop-opacity="0.928">
</stop>
<stop stop-color="#762e17" offset="100%" stop-opacity="0">
</stop>
</linearGradient>
<linearGradient x1="4%" y1="47%" x2="92%" y2="45%" id="id-female-6.6_base_5-38">
<stop stop-color="#7e2a0a" offset="0%">
</stop>
<stop stop-color="#993a16" offset="17%" stop-opacity="0.753">
</stop>
<stop stop-color="#a94736" offset="48%" stop-opacity="0.386">
</stop>
<stop stop-color="#ac4218" offset="78%" stop-opacity="0.762">
</stop>
<stop stop-color="#9f3b13" offset="100%">
</stop>
</linearGradient>
<linearGradient x1="60%" y1="45%" x2="67%" y2="53%" id="id-female-6.6_base_5-39">
<stop stop-color="#ff8b59" offset="0%">
</stop>
<stop stop-color="#ffba99" offset="100%">
</stop>
</linearGradient>
<linearGradient x1="48%" y1="15%" x2="54%" y2="81%" id="id-female-6.6_base_5-40">
<stop stop-color="#e6976b" offset="0%">
</stop>
<stop stop-color="#e39568" offset="100%">
</stop>
</linearGradient>
<linearGradient x1="47%" y1="44%" x2="50%" y2="61%" id="id-female-6.6_base_5-41">
<stop stop-color="#943b2f" offset="0%" stop-opacity="0.175">
</stop>
<stop stop-color="#61301b" offset="100%">
</stop>
</linearGradient>
<linearGradient x1="26%" y1="-7%" x2="50%" y2="96%" id="id-female-6.6_base_5-42">
<stop stop-color="#37373f" offset="0%">
</stop>
<stop stop-color="#19191d" offset="100%">
</stop>
</linearGradient>
<linearGradient x1="50%" y1="12%" x2="59%" y2="82%" id="id-female-6.6_base_5-43">
<stop stop-color="#252525" offset="0%">
</stop>
<stop stop-color="#101010" offset="100%">
</stop>
</linearGradient>
<linearGradient x1="25%" y1="-16%" x2="50%" y2="98%" id="id-female-6.6_base_5-44">
<stop stop-color="#37373f" offset="0%">
</stop>
<stop stop-color="#19191d" offset="100%">
</stop>
</linearGradient>
<linearGradient x1="75%" y1="39%" x2="50%" y2="93%" id="id-female-6.6_base_5-45">
<stop stop-color="#252525" offset="0%">
</stop>
<stop stop-color="#000000" offset="100%">
</stop>
</linearGradient>
</defs>
<g transform="translate(334,549)" id="id-female-6.6_base_5-46">
<polygon points="561 754 565 871 565 881 537 893 533 897 535 901 532 909 543 910 597 864" fill="#560304" id="id-female-6.6_base_5-47">
</polygon>
<polygon points="537 282 539 246 535 195 529 158 522 137 484 118 440 111 212 111 188 113 157 123 121 139 111 186 108 221 109 290" fill="url(#id-female-6.6_base_5-0)" id="id-female-6.6_base_5-47">
</polygon>
<polygon points="467 393 474 506 503 589 537 672 556 728 561 754 546 794 552 851 551 861 552 874 556 885 567 882 568 866 570 860 570 843 571 834 576 843 576 859 579 864 573 874 571 884 544 903 541 916 582 901 597 864 607 852 600 821 597 716 589 695 582 655 569 523 544 425" fill="url(#id-female-6.6_base_5-1)" id="id-female-6.6_base_5-47">
</polygon>
<polygon points="546 794 552 851 551 861 552 874 556 885 567 882 568 866 570 860 570 843 571 834 576 843 576 859 579 864 573 874 571 884 544 903 541 916 582 901 597 864 583 871 588 855 573 815 561 823" fill="url(#id-female-6.6_base_5-2)" id="id-female-6.6_base_5-47">
</polygon>
<polygon points="552 851 551 861 552 874 556 887 567 884 568 866 570 860 558 860" fill="#ab562c" id="id-female-6.6_base_5-47">
</polygon>
<polygon points="544 906 541 916 582 901 571 889" fill="#ab562c" id="id-female-6.6_base_5-47">
</polygon>
<polygon points="561 754 548 789 566 819 586 806" fill="#cf7c49" id="id-female-6.6_base_5-47">
</polygon>
<polygon points="486 648 477 599 453 529 440 504 437 490 439 460 449 402 456 340 188 343 198 411 202 493 162 596 153 638 266 693 319 721 386 693" fill="url(#id-female-6.6_base_5-3)" id="id-female-6.6_base_5-47">
</polygon>
<polygon points="486 648 477 599 453 529 440 504 437 490 439 460 449 402 456 340 296 353 376 634" fill="#dd6e3f" id="id-female-6.6_base_5-47">
</polygon>
<g transform="translate(188,0)" id="id-female-6.6_base_5-56">
<polygon points="274 114 253 111 232 100 201 76 188 58 184 1 93 1 88 64 25 111 1 113 103 123 121 135 134 138 149 121 161 117 187 119 225 114" fill="#ee773d" id="id-female-6.6_base_5-47">
</polygon>
<polygon points="201 76 188 58 185 12 175 57 155 111 185 73" fill="#e5995f" id="id-female-6.6_base_5-47">
</polygon>
<polygon points="149 1 93 1 88 64 108 126 121 135 133 138" fill="#da642e" id="id-female-6.6_base_5-47">
</polygon>
<polygon points="116 102 120 113 118 115 136 135 150 119 164 71 125 108" fill="#c7592d" id="id-female-6.6_base_5-60">
</polygon>
<polygon points="121 127 133 138 145 124" fill="#c43806" id="id-female-6.6_base_5-61">
</polygon>
<polygon points="136 98 164 71 175 57 186 17 134 51" fill="#e2803d" id="id-female-6.6_base_5-62">
</polygon>
<polygon points="97 96 116 80 164 60 178 48 186 17 184 1 93 1 88 64 45 96" fill="#a45026" opacity="0.654" id="id-female-6.6_base_5-47">
</polygon>
<polygon points="186 17 184 1 93 1 88 64 45 96 66 96" fill="url(#id-female-6.6_base_5-4)" opacity="0.467" id="id-female-6.6_base_5-47">
</polygon>
<polygon points="123 58 176 23 186 17 184 1 93 1 91 22 108 55" fill="#381404" opacity="0.434" id="id-female-6.6_base_5-47">
</polygon>
</g>
<polygon points="41 844 33 856 36 895 64 915 84 911 83 903 71 898 72 892 63 884 52 849" fill="url(#id-female-6.6_base_5-5)" id="id-female-6.6_base_5-47">
</polygon>
<polygon points="315 152 285 173 320 188 357 166" fill="#ffb67e" id="id-female-6.6_base_5-67">
</polygon>
<polygon points="327 150 370 130 342 127" fill="#ee7539" id="id-female-6.6_base_5-68">
</polygon>
<polygon points="301 142 303 148 243 131 240 119 276 119" fill="#eb7338" id="id-female-6.6_base_5-69">
</polygon>
<polygon points="159 149 206 123 269 123 303 144 297 118 188 113 157 123 121 139" fill="url(#id-female-6.6_base_5-6)" id="id-female-6.6_base_5-47">
</polygon>
<polygon points="157 123 121 139 153 167 196 134" fill="#ffc3a1" id="id-female-6.6_base_5-47">
</polygon>
<polygon points="89 584 77 541 62 551 45 658 34 712 25 741 25 762 10 817 0 845 14 870 25 901 58 919 72 919 69 913 61 905 50 899 37 874 37 852 43 845 52 855 50 887 56 901 64 905 66 901 66 882 72 836 72 800 69 781 64 773 66 735 85 684 121 599 162 510" fill="url(#id-female-6.6_base_5-7)" id="id-female-6.6_base_5-47">
</polygon>
<polygon points="89 584 77 541 62 551 45 658 48 715 121 599 162 510" fill="#e77038" id="id-female-6.6_base_5-47">
</polygon>
<polygon points="55 843 45 827 37 848 17 852 8 836 5 851 0 845 14 870 25 901 58 919 72 919 69 913 61 905 50 899 37 874 37 852 43 845 52 855 50 887 56 901 64 905 66 901 66 882 72 836" fill="#d5643c" id="id-female-6.6_base_5-47">
</polygon>
<polygon points="53 882 52 892 56 901 64 905 66 901 66 882 67 876" fill="#c45627" id="id-female-6.6_base_5-47">
</polygon>
<polygon points="25 901 58 919 72 919 62 909 37 895" fill="#c45627" id="id-female-6.6_base_5-47">
</polygon>
<polygon points="160 467 145 488 108 578 45 777 48 797 64 773 66 735 85 684 121 599 162 510" fill="#cb4a0c" id="id-female-6.6_base_5-47">
</polygon>
<polygon points="169 1211 277 1211 282 1183 281 1150 284 1127 286 1114 285 1063 293 972 306 866 311 792 309 768 323 771 337 768 333 817 333 855 339 924 346 1008 348 1113 351 1130 353 1176 361 1211 461 1211 458 1191 456 1170 460 1133 461 1082 505 905 516 839 518 826 512 762 503 706 486 648 482 629 386 690 318 718 266 690 184 629 153 637 132 731 119 781 118 813 123 862 131 916 166 1094 176 1179" fill="url(#id-female-6.6_base_5-8)" id="id-female-6.6_base_5-47">
</polygon>
<polygon points="463 664 416 771 400 819 392 1125 359 1178 398 1204 441 1153 461 1082 505 905 516 839 518 826 515 789 490 714" fill="url(#id-female-6.6_base_5-9)" id="id-female-6.6_base_5-47">
</polygon>
<polygon points="422 1160 395 1199 365 1171 401 1149 384 1120 391 983 411 786 416 771 448 697 454 1013 445 1116 407 1149" fill="url(#id-female-6.6_base_5-10)" id="id-female-6.6_base_5-80">
</polygon>
<polygon points="121 139 111 186 108 221 109 290 96 438 89 464 69 510 89 585 162 510 167 425 162 241" fill="url(#id-female-6.6_base_5-11)" id="id-female-6.6_base_5-47">
</polygon>
<polygon points="101 466 103 488 106 510 160 447 179 359 164 232 187 184 186 179 132 181 161 234 161 321 149 376 151 384 123 461 114 466" fill="url(#id-female-6.6_base_5-12)" id="id-female-6.6_base_5-82">
</polygon>
<polygon points="96 438 89 464 69 510 51 621 101 520 96 476" fill="#edac7e" id="id-female-6.6_base_5-47">
</polygon>
<polygon points="96 451 128 365 134 316 121 139 111 186 108 221 109 290 96 438" fill="#dc6429" id="id-female-6.6_base_5-47">
</polygon>
<polygon points="184 241 177 248 162 225 138 289 161 321 170 375 161 420 151 411 162 510 167 425 188 343" fill="url(#id-female-6.6_base_5-13)" id="id-female-6.6_base_5-47">
</polygon>
<polygon points="284 1127 286 1114 285 1063 293 972 306 866 311 792 309 768 323 771 337 768 333 817 333 855 339 924 346 1008 375 889 416 771 463 664 490 714 515 790 512 762 503 706 486 648 477 599 471 583 420 650 316 720 201 654 244 742 264 824 275 994" fill="url(#id-female-6.6_base_5-14)" id="id-female-6.6_base_5-47">
</polygon>
<polygon points="298 930 306 866 311 792 309 768 323 771 337 768 333 817 333 855 336 894 347 826 360 784 378 733 388 687 321 739 254 687 267 736 291 821" fill="url(#id-female-6.6_base_5-15)" id="id-female-6.6_base_5-47">
</polygon>
<polygon points="348 1093 348 1113 351 1130 353 1176 361 1211 461 1211 439 1155 422 1136 403 1148 429 1168 400 1202 370 1170 382 1125" fill="url(#id-female-6.6_base_5-16)" id="id-female-6.6_base_5-47">
</polygon>
<polygon points="10 855 8 836 5 851 0 845 14 870" fill="#af4a3e" id="id-female-6.6_base_5-47">
</polygon>
<polygon points="520 500 516 520 544 629 474 500 490 399" fill="url(#id-female-6.6_base_5-17)" id="id-female-6.6_base_5-90">
</polygon>
<polygon points="461 1211 458 1191 456 1170 460 1133 461 1082 439 1155 450 1211" fill="url(#id-female-6.6_base_5-18)" id="id-female-6.6_base_5-47">
</polygon>
<polygon points="220 1149 259 1115 240 1063 232 973 266 819 240 713 201 661 158 650 201 784 183 925 170 1083" fill="url(#id-female-6.6_base_5-19)" id="id-female-6.6_base_5-92">
</polygon>
<polygon points="169 1211 277 1211 282 1183 281 1150 284 1127 286 1114 286 1098 226 1211 207 1211 196 1121 173 1078 150 1014 166 1094 176 1179" fill="url(#id-female-6.6_base_5-20)" id="id-female-6.6_base_5-47">
</polygon>
<polygon points="173 1078 183 924 150 1014" fill="#d95d37" id="id-female-6.6_base_5-47">
</polygon>
<polygon points="169 1211 239 1211 230 1196 204 1175 173 1150 176 1179" fill="#c04934" opacity="0.574" id="id-female-6.6_base_5-47">
</polygon>
<polygon points="221 1130 240 1097 224 1063 224 983 240 804 217 698 190 668 212 771 212 910 190 998 181 1094" fill="url(#id-female-6.6_base_5-21)" id="id-female-6.6_base_5-92">
</polygon>
<polygon points="217 795 221 692 200 667 169 658 200 737" fill="#dd956b" id="id-female-6.6_base_5-97">
</polygon>
<polygon points="511 476 492 419 481 447 484 356 521 274 533 417" fill="url(#id-female-6.6_base_5-22)" id="id-female-6.6_base_5-98">
</polygon>
<polygon points="569 523 544 425 542 346 537 282 539 246 535 195 529 158 522 137 494 161 419 158 471 211 516 290 525 411 511 477 518 507 535 462 562 543" fill="url(#id-female-6.6_base_5-23)" id="id-female-6.6_base_5-47">
</polygon>
<polygon points="486 389 533 243 501 167 464 207 451 247 463 265" fill="url(#id-female-6.6_base_5-24)" id="id-female-6.6_base_5-100">
</polygon>
<polygon points="473 490 474 506 503 589 537 672 556 728 561 754 567 712 543 623" fill="#da531d" id="id-female-6.6_base_5-47">
</polygon>
<polygon points="460 328 466 378 474 506 490 425 486 392 469 274 479 230 461 260 454 251" fill="url(#id-female-6.6_base_5-25)" id="id-female-6.6_base_5-47">
</polygon>
<polygon points="440 504 437 490 439 460 449 402 456 340 458 328 325 282 188 343 198 411 202 493 162 596 157 621 161 633 169 599 173 570 204 506 202 458 217 402 286 365 321 352 353 360 422 402 431 493 437 520" fill="url(#id-female-6.6_base_5-26)" id="id-female-6.6_base_5-47">
</polygon>
<polygon points="451 385 456 340 458 328 364 340 330 308 268 343 188 343 194 379 262 368 312 343 335 340 381 368" fill="url(#id-female-6.6_base_5-27)" id="id-female-6.6_base_5-47">
</polygon>
<polygon points="286 328 306 310 330 274 453 252 464 205 421 156 317 204 219 165 210 154 188 180" fill="url(#id-female-6.6_base_5-28)" id="id-female-6.6_base_5-105">
</polygon>
<path d="M 422 195 L 405 190 C 377 190 357 198 343 214 C 329 230 322 250 323 276 C 324 301 331 320 345 333 C 365 351 384 356 405 356 C 425 356 444 347 450 342 C 454 339 457 335 460 328 C 463 323 466 317 467 308 C 469 294 466 276 457 254 L 422 195 Z" fill="url(#id-female-6.6_base_5-29)" id="id-female-6.6_base_5-106">
</path>
<path d="M 422 195 L 417 175 C 386 188 366 196 358 201 C 355 203 351 206 348 208 C 348 209 381 253 448 342 C 454 338 459 332 463 324 C 469 310 469 301 469 293 C 469 287 465 275 459 257 L 422 195 Z" fill="url(#id-female-6.6_base_5-30)" id="id-female-6.6_base_5-106">
</path>
<path d="M 375 226 C 338 253 343 276 343 284 C 343 291 353 319 371 335 C 379 342 422 349 447 331 C 468 316 472 294 458 265 C 427 221 400 208 375 226 Z" fill="url(#id-female-6.6_base_5-31)" opacity="0.282" id="id-female-6.6_base_5-106">
</path>
<path d="M 272 205 C 260 199 243 200 221 209 C 187 227 169 258 168 303 C 167 319 184 342 190 346 C 197 351 212 356 239 353 C 257 351 272 344 284 333 C 303 312 312 288 309 260 C 305 217 291 214 272 205 Z" fill="url(#id-female-6.6_base_5-32)" id="id-female-6.6_base_5-109">
</path>
<path d="M 340 285 C 333 252 328 240 326 248 C 324 254 323 263 323 276 C 324 301 331 320 345 333 C 365 351 382 356 404 356 C 425 356 444 347 450 342 C 456 337 465 325 468 308 C 472 290 465 276 463 268 C 461 263 460 259 458 255 L 442 290 L 399 304 L 366 300 L 340 285 Z" fill="url(#id-female-6.6_base_5-33)" id="id-female-6.6_base_5-106">
</path>
<path d="M 153 637 L 149 654 L 132 731 L 130 739 C 133 730 135 723 137 718 C 140 709 147 691 149 680 C 151 671 155 655 161 633 L 172 570 L 162 596 L 153 637 Z" fill="#7d362e" id="id-female-6.6_base_5-47">
</path>
<path d="M 259 203 C 254 199 240 185 217 163 L 210 153 L 186 180 C 192 211 192 231 186 239 C 175 256 168 277 168 303 C 168 324 190 352 239 344 C 252 342 274 217 259 203 Z" fill="#ff9558" id="id-female-6.6_base_5-109">
</path>
<polygon points="175 565 203 550 234 558 241 520 203 455 203 507" fill="#c6450c" id="id-female-6.6_base_5-113">
</polygon>
<polygon points="241 442 241 518 229 556 233 629 266 657 316 707 381 659 395 629 364 504 350 504 301 380" fill="url(#id-female-6.6_base_5-34)" id="id-female-6.6_base_5-114">
</polygon>
<polygon points="432 626 427 589 407 518 414 505 450 568 470 618" fill="url(#id-female-6.6_base_5-35)" id="id-female-6.6_base_5-115">
</polygon>
<polygon points="302 376 254 442 254 546 302 590 364 568 364 504 350 504 376 454 345 400" fill="url(#id-female-6.6_base_5-36)" id="id-female-6.6_base_5-114">
</polygon>
<polygon points="317 480 342 436 319 413 300 447" fill="#e67841" id="id-female-6.6_base_5-117">
</polygon>
<polygon points="304 541 318 507 329 541 314 549" fill="#e66d37" id="id-female-6.6_base_5-118">
</polygon>
<polygon points="306 543 316 578 329 541" fill="#e99b64" id="id-female-6.6_base_5-119">
</polygon>
<path d="M 178 333 C 179 334 180 336 182 338 C 184 342 186 343 189 346 C 190 347 197 351 206 353 C 215 354 226 355 239 353 C 257 351 272 344 284 333 C 293 322 299 313 302 305 C 304 301 307 293 309 277 C 310 274 310 268 309 260 L 228 277 L 207 295 L 178 333 Z" fill="url(#id-female-6.6_base_5-37)" id="id-female-6.6_base_5-109">
</path>
<polygon points="306 543 308 550 324 556 329 541" fill="#eca774" id="id-female-6.6_base_5-119">
</polygon>
<polygon points="308 543 318 525 323 542 314 548" fill="#b5491c" id="id-female-6.6_base_5-122">
</polygon>
<polygon points="152 641 162 596 176 561 185 617 214 602 246 628 323 690 404 628 423 605 454 605 470 577 477 599 482 629 388 689 337 768 323 771 309 768 259 688 175 639 142 688" fill="url(#id-female-6.6_base_5-38)" opacity="0.442" id="id-female-6.6_base_5-123">
</polygon>
<polygon points="490 154 522 137 484 118 412 123" fill="url(#id-female-6.6_base_5-39)" id="id-female-6.6_base_5-47">
</polygon>
<polygon points="573 785 588 829 602 858 607 852 600 821 597 716 576 763" fill="#ff966a" id="id-female-6.6_base_5-47">
</polygon>
<polygon points="574 722 589 695 582 655 533 542" fill="url(#id-female-6.6_base_5-40)" id="id-female-6.6_base_5-47">
</polygon>
<polygon points="172 640 241 690 309 768 323 771 338 768 395 706 469 661 404 650 313 706 217 629" fill="url(#id-female-6.6_base_5-41)" opacity="0.571" id="id-female-6.6_base_5-127">
</polygon>
<g transform="translate(188,270)" id="id-female-6.6_base_5-128">
<polygon points="207 13 207 10 217 2 220 2 239 21 258 39 260 42 250 51 246 52 226 33" fill="url(#id-female-6.6_base_5-42)" id="id-female-6.6_base_5-129">
</polygon>
<polygon points="208 40 218 50 222 50 240 33 257 13 257 9 247 0 244 1 230 19 209 36" fill="url(#id-female-6.6_base_5-43)" id="id-female-6.6_base_5-130">
</polygon>
<polygon points="1 13 1 10 10 2 15 2 32 21 50 39 52 42 42 52 38 52 19 33" fill="url(#id-female-6.6_base_5-44)" id="id-female-6.6_base_5-129">
</polygon>
<polygon points="0 43 10 53 14 53 33 35 50 15 50 11 40 3 36 4 19 23 1 39" fill="url(#id-female-6.6_base_5-45)" id="id-female-6.6_base_5-130">
</polygon>
</g>
</g>
<defs>
<linearGradient x1="79%" y1="0%" x2="79%" y2="22%" id="id-female-6.8_face_5-0">
<stop stop-color="#fde1e0" offset="0%">
</stop>
<stop stop-color="#d46a32" offset="100%">
</stop>
</linearGradient>
<linearGradient x1="40%" y1="32%" x2="50%" y2="75%" id="id-female-6.8_face_5-1">
<stop stop-color="#e98d54" offset="0%">
</stop>
<stop stop-color="#f4ad80" offset="100%">
</stop>
</linearGradient>
<linearGradient x1="50%" y1="0%" x2="50%" y2="82%" id="id-female-6.8_face_5-2">
<stop stop-color="#f7caab" offset="0%">
</stop>
<stop stop-color="#f3af87" offset="100%">
</stop>
</linearGradient>
<linearGradient x1="21%" y1="-8%" x2="64%" y2="50%" id="id-female-6.8_face_5-3">
<stop stop-color="#eb925a" offset="0%">
</stop>
<stop stop-color="#f6b48f" offset="100%">
</stop>
</linearGradient>
<radialGradient cx="48%" cy="50%" r="67%" id="id-female-6.8_face_5-4" fx="48%" fy="50%" gradientTransform="translate(0.478,0.5) scale(0.717,1) rotate(180) scale(1,1) translate(-0.478,-0.5)">
<stop stop-color="#eb925b" offset="0%">
</stop>
<stop stop-color="#d36e3d" offset="100%">
</stop>
</radialGradient>
<radialGradient cx="50%" cy="65%" r="73%" id="id-female-6.8_face_5-5" fx="50%" fy="65%" gradientTransform="translate(0.5,0.654) scale(0.748,1) rotate(90) scale(1,0.914) translate(-0.5,-0.654)">
<stop stop-color="#efa371" offset="0%">
</stop>
<stop stop-color="#bb561c" offset="100%">
</stop>
</radialGradient>
<linearGradient x1="47%" y1="38%" x2="54%" y2="70%" id="id-female-6.8_face_5-6">
<stop stop-color="#fa9263" offset="0%">
</stop>
<stop stop-color="#f69c6e" offset="41%">
</stop>
<stop stop-color="#f39969" offset="100%">
</stop>
</linearGradient>
<linearGradient x1="50%" y1="0%" x2="50%" y2="85%" id="id-female-6.8_face_5-7">
<stop stop-color="#f1a778" offset="0%">
</stop>
<stop stop-color="#f8af88" offset="100%">
</stop>
</linearGradient>
<linearGradient x1="15%" y1="28%" x2="74%" y2="73%" id="id-female-6.8_face_5-8">
<stop stop-color="#f2a97f" offset="0%">
</stop>
<stop stop-color="#feb18f" offset="100%">
</stop>
</linearGradient>
<linearGradient x1="109%" y1="57%" x2="0%" y2="43%" id="id-female-6.8_face_5-9">
<stop stop-color="#ea9264" offset="0%">
</stop>
<stop stop-color="#de7c45" offset="100%">
</stop>
</linearGradient>
<linearGradient x1="0%" y1="50%" x2="100%" y2="50%" id="id-female-6.8_face_5-10">
<stop stop-color="#cc7145" offset="0%">
</stop>
<stop stop-color="#914121" offset="51%">
</stop>
<stop stop-color="#ce7749" offset="100%">
</stop>
</linearGradient>
<linearGradient x1="50%" y1="31%" x2="35%" y2="71%" id="id-female-6.8_face_5-11">
<stop stop-color="#f1aa7d" offset="0%">
</stop>
<stop stop-color="#ffbd94" offset="40%">
</stop>
<stop stop-color="#fab189" offset="100%">
</stop>
</linearGradient>
<linearGradient x1="50%" y1="0%" x2="50%" y2="50%" id="id-female-6.8_face_5-12">
<stop stop-color="#e29369" offset="0%">
</stop>
<stop stop-color="#f9b897" offset="100%">
</stop>
</linearGradient>
<linearGradient x1="50%" y1="25%" x2="50%" y2="100%" id="id-female-6.8_face_5-13">
<stop stop-color="#e4854d" offset="0%">
</stop>
<stop stop-color="#ef673a" offset="20%">
</stop>
<stop stop-color="#f99466" offset="56%">
</stop>
<stop stop-color="#d97840" offset="100%">
</stop>
</linearGradient>
<linearGradient x1="40%" y1="22%" x2="50%" y2="69%" id="id-female-6.8_face_5-14">
<stop stop-color="#f4ac80" offset="0%">
</stop>
<stop stop-color="#e28d60" offset="100%">
</stop>
</linearGradient>
<linearGradient x1="50%" y1="85%" x2="50%" y2="50%" id="id-female-6.8_face_5-15">
<stop stop-color="#962525" offset="0%">
</stop>
<stop stop-color="#450000" offset="100%">
</stop>
</linearGradient>
<linearGradient x1="50%" y1="0%" x2="50%" y2="100%" id="id-female-6.8_face_5-16">
<stop stop-color="#eb5363" offset="0%">
</stop>
<stop stop-color="#f85c69" offset="54%">
</stop>
<stop stop-color="#d4494b" offset="100%">
</stop>
</linearGradient>
<linearGradient x1="50%" y1="0%" x2="50%" y2="77%" id="id-female-6.8_face_5-17">
<stop stop-color="#b83c3c" offset="0%">
</stop>
<stop stop-color="#bf3f3f" offset="100%">
</stop>
</linearGradient>
<linearGradient x1="99%" y1="50%" x2="93%" y2="54%" id="id-female-6.8_face_5-18">
<stop stop-color="#f19e6f" offset="0%">
</stop>
<stop stop-color="#a05029" offset="100%">
</stop>
</linearGradient>
<linearGradient x1="50%" y1="0%" x2="50%" y2="91%" id="id-female-6.8_face_5-19">
<stop stop-color="#dd996c" offset="0%">
</stop>
<stop stop-color="#d5804c" offset="77%">
</stop>
<stop stop-color="#d66735" offset="100%">
</stop>
</linearGradient>
<linearGradient x1="9%" y1="25%" x2="26%" y2="82%" id="id-female-6.8_face_5-20">
<stop stop-color="#c45929" offset="0%">
</stop>
<stop stop-color="#d3723e" offset="60%">
</stop>
<stop stop-color="#e57f4f" offset="100%">
</stop>
</linearGradient>
<linearGradient x1="55%" y1="46%" x2="68%" y2="95%" id="id-female-6.8_face_5-21">
<stop stop-color="#b75323" offset="0%">
</stop>
<stop stop-color="#f7ba9b" offset="100%">
</stop>
</linearGradient>
<linearGradient x1="50%" y1="0%" x2="50%" y2="100%" id="id-female-6.8_face_5-22">
<stop stop-color="#ea7440" offset="0%">
</stop>
<stop stop-color="#b94c1c" offset="100%">
</stop>
</linearGradient>
<linearGradient x1="50%" y1="11%" x2="50%" y2="100%" id="id-female-6.8_face_5-23">
<stop stop-color="#eead81" offset="0%">
</stop>
<stop stop-color="#f99566" offset="100%">
</stop>
</linearGradient>
<linearGradient x1="50%" y1="12%" x2="47%" y2="66%" id="id-female-6.8_face_5-24">
<stop stop-color="#f19e6f" offset="0%">
</stop>
<stop stop-color="#de8b58" offset="100%">
</stop>
</linearGradient>
<linearGradient x1="91%" y1="56%" x2="10%" y2="39%" id="id-female-6.8_face_5-25">
<stop stop-color="#cc6835" offset="0%">
</stop>
<stop stop-color="#a6482c" offset="74%">
</stop>
<stop stop-color="#c65b23" offset="100%">
</stop>
</linearGradient>
<linearGradient x1="50%" y1="50%" x2="50%" y2="74%" id="id-female-6.8_face_5-26">
<stop stop-color="#cf6042" offset="0%">
</stop>
<stop stop-color="#ea846d" offset="100%">
</stop>
</linearGradient>
<linearGradient x1="77%" y1="54%" x2="50%" y2="58%" id="id-female-6.8_face_5-27">
<stop stop-color="#d66c3f" offset="0%">
</stop>
<stop stop-color="#f8936b" offset="100%">
</stop>
</linearGradient>
<radialGradient cx="50%" cy="70%" r="100%" id="id-female-6.8_face_5-28" fx="50%" fy="70%" gradientTransform="translate(0.5,0.701) scale(0.442,1) rotate(73) translate(-0.5,-0.701)">
<stop stop-color="#98321f" offset="0%">
</stop>
<stop stop-color="#c96130" offset="100%">
</stop>
</radialGradient>
<linearGradient x1="47%" y1="40%" x2="47%" y2="91%" id="id-female-6.8_face_5-29">
<stop stop-color="#c35230" offset="0%">
</stop>
<stop stop-color="#dc6b59" offset="100%">
</stop>
</linearGradient>
<linearGradient x1="50%" y1="20%" x2="50%" y2="72%" id="id-female-6.8_face_5-30">
<stop stop-color="#3b2311" offset="0%">
</stop>
<stop stop-color="#714225" offset="100%">
</stop>
</linearGradient>
<linearGradient x1="67%" y1="29%" x2="67%" y2="76%" id="id-female-6.8_face_5-31">
<stop stop-color="#372311" offset="0%">
</stop>
<stop stop-color="#8c5031" offset="100%">
</stop>
</linearGradient>
</defs>
<g transform="translate(561,332)" id="id-female-6.8_face_5-32">
<g transform="translate(172,115)" id="id-female-6.8_face_5-33">
<polygon points="14 1 18 0 25 8 27 21 24 41 14 66 0 68" fill="url(#id-female-6.8_face_5-0)" id="id-female-6.8_face_5-34">
</polygon>
<polygon points="12 48 19 50 23 42 26 24 20 12 12 22" fill="#ec9266" id="id-female-6.8_face_5-35">
</polygon>
<polygon points="11 21 17 10 20 5 24 7 26 24 20 36 18 31 20 16 9 29" fill="#c1430b" id="id-female-6.8_face_5-36">
</polygon>
<polygon points="10 28 11 38 8 45 13 49 19 38 13 24" fill="#8c350a" id="id-female-6.8_face_5-37">
</polygon>
<polygon points="12 18 17 17 18 9" fill="#8c350a" id="id-female-6.8_face_5-38">
</polygon>
<polygon points="18 50 10 51 8 50 5 61 12 63 14 61" fill="#e88c5f" id="id-female-6.8_face_5-39">
</polygon>
</g>
<g transform="translate(0,113)" id="id-female-6.8_face_5-40">
<polygon points="13 0 5 0 0 13 4 36 13 63 25 67" fill="#d07c59" id="id-female-6.8_face_5-41">
</polygon>
<polygon points="5 9 0 13 4 36 13 63 25 67 13 24" fill="#de8959" id="id-female-6.8_face_5-41">
</polygon>
<polygon points="18 46 14 47 7 32 11 26 4 9 6 5 16 20 17 29" fill="#ae3a08" id="id-female-6.8_face_5-43">
</polygon>
<polygon points="13 62 20 62 18 49 11 53" fill="#fea878" id="id-female-6.8_face_5-44">
</polygon>
<polygon points="25 68 13 63 20 62 17 46 14 47 13 44 14 29 17 26 14 22 10 19 10 11 17 20" fill="#a00c07" id="id-female-6.8_face_5-45">
</polygon>
<polygon points="13 9 4 3 5 0 12 0" fill="#d6a2a5" id="id-female-6.8_face_5-46">
</polygon>
</g>
<path d="M 29 199 C 21 167 16 144 15 130 C 4 44 33 0 103 0 C 180 0 191 63 186 119 C 183 157 173 191 170 202 C 169 206 167 213 164 217 C 158 226 140 237 112 250 C 107 252 89 252 82 250 C 59 240 44 229 36 218 C 34 215 32 208 29 199 Z" fill="#eea16c" id="id-female-6.8_face_5-47">
</path>
<polygon points="33 108 34 36 99 6 175 45 171 113 95 117" fill="url(#id-female-6.8_face_5-1)" id="id-female-6.8_face_5-48">
</polygon>
<polygon points="53 107 64 92 47 46 97 53 133 46 111 74 123 96 142 110 105 123" fill="url(#id-female-6.8_face_5-2)" id="id-female-6.8_face_5-49">
</polygon>
<polygon points="63 87 47 46 78 51" fill="url(#id-female-6.8_face_5-3)" id="id-female-6.8_face_5-49">
</polygon>
<path d="M 32 97 L 55 101 L 37 41 L 61 32 L 114 41 L 136 39 L 125 56 L 155 58 L 155 100 L 169 107 L 184 119 L 174 43 C 139 6 101 -5 62 11 C 23 27 13 55 32 97 Z" fill="url(#id-female-6.8_face_5-4)" id="id-female-6.8_face_5-51">
</path>
<path d="M 15 130 C 4 44 33 0 103 0 C 180 0 191 63 186 119 L 167 94 L 166 70 L 151 27 C 145 18 127 13 99 13 C 71 13 52 19 43 32 L 40 53 L 34 70 L 36 104 C 22 124 15 132 15 130 Z" fill="url(#id-female-6.8_face_5-5)" id="id-female-6.8_face_5-47">
</path>
<polygon points="33 165 101 152 166 185 148 225 117 246 83 249 50 217" fill="url(#id-female-6.8_face_5-6)" id="id-female-6.8_face_5-53">
</polygon>
<polygon points="72 209 67 186 78 169 121 174 138 196 123 210" fill="url(#id-female-6.8_face_5-7)" id="id-female-6.8_face_5-54">
</polygon>
<polygon points="68 189 49 169 31 158 19 128 91 145" fill="url(#id-female-6.8_face_5-8)" id="id-female-6.8_face_5-55">
</polygon>
<polygon points="85 165 52 172 38 127 88 145" fill="#f7ba9b" id="id-female-6.8_face_5-55">
</polygon>
<polygon points="73 209 78 237 115 234 129 217 126 208" fill="url(#id-female-6.8_face_5-9)" id="id-female-6.8_face_5-57">
</polygon>
<polygon points="84 233 92 227 88 221 113 221 109 227 116 233" fill="url(#id-female-6.8_face_5-10)" id="id-female-6.8_face_5-58">
</polygon>
<polygon points="117 178 125 191 138 196 171 146 155 141 108 135" fill="url(#id-female-6.8_face_5-11)" id="id-female-6.8_face_5-59">
</polygon>
<path d="M 75 237 C 83 232 91 230 99 230 C 106 230 116 232 127 237 L 113 246 L 89 249 L 75 237 Z" fill="url(#id-female-6.8_face_5-12)" id="id-female-6.8_face_5-60">
</path>
<path d="M 29 199 C 21 167 16 144 15 130 C 14 127 14 124 14 121 L 20 115 L 31 135 L 25 141 L 32 158 L 43 166 C 48 187 53 203 58 214 C 68 227 79 238 91 246 L 111 246 C 125 238 134 230 138 223 C 143 209 147 190 150 168 L 170 145 L 166 103 C 179 108 186 113 186 119 C 183 157 173 191 170 202 C 169 206 167 213 164 217 C 158 226 140 237 112 250 C 107 252 89 252 82 250 C 59 240 44 229 36 218 C 34 215 32 208 29 199 Z" fill="url(#id-female-6.8_face_5-13)" id="id-female-6.8_face_5-47">
</path>
<path d="M 182 102 C 185 110 186 115 186 119 C 183 157 173 191 170 202 C 169 206 167 213 164 217 C 161 221 157 225 151 229 C 158 221 164 210 169 196 C 170 192 173 181 177 162 C 178 159 179 152 181 144 L 180 111 L 174 86 L 182 102 Z" fill="#e7b9b9" id="id-female-6.8_face_5-47">
</path>
<polygon points="94 180 93 195 101 204 110 197 104 176" fill="url(#id-female-6.8_face_5-14)" id="id-female-6.8_face_5-63">
</polygon>
<g transform="translate(71,178)" id="id-female-6.8_face_5-64">
<polygon points="21 2 21 9 23 11 25 3 23 0" fill="#fec5b4" id="id-female-6.8_face_5-65">
</polygon>
<path d="M 34 2 L 37 13 L 30 16 L 22 13 C 17 15 13 17 11 19 C 8 21 5 25 1 30 L 33 28 L 40 18 L 35 1 L 34 2 Z" fill="#fcbdab" id="id-female-6.8_face_5-66">
</path>
<path d="M 1 31 L 3 33 C 6 35 8 36 8 37 C 13 41 16 44 18 45 C 23 47 32 48 39 46 C 42 45 48 40 53 35 C 54 34 56 32 57 30 L 55 27 L 30 18 L 3 27 L 1 31 Z" fill="url(#id-female-6.8_face_5-15)" id="id-female-6.8_face_5-67">
</path>
<path d="M 14 30 C 6 32 2 33 3 33 C 11 39 15 42 18 43 C 23 45 33 46 39 44 C 43 43 48 40 55 33 C 55 33 51 32 43 30 C 36 32 32 32 28 32 C 24 32 20 32 14 30 Z" fill="url(#id-female-6.8_face_5-16)" id="id-female-6.8_face_5-67">
</path>
<path d="M 13 31 C 11 32 11 33 13 34 C 17 35 30 37 31 39 C 32 40 43 35 49 33 C 51 33 49 32 45 31 C 38 33 33 34 29 34 C 26 34 20 33 13 31 Z" fill="#fe7a9e" id="id-female-6.8_face_5-67">
</path>
<path d="M 3 29 C 11 29 15 29 17 29 C 19 29 20 28 21 28 C 25 29 28 29 29 29 C 32 29 35 28 37 28 C 40 28 46 29 48 29 C 57 29 55 27 55 27 C 49 22 43 18 37 15 C 36 15 33 16 30 18 C 27 17 25 16 22 15 C 15 17 9 21 3 27 L 3 29 Z" fill="url(#id-female-6.8_face_5-17)" id="id-female-6.8_face_5-67">
</path>
<path d="M 29 25 C 33 25 35 23 38 23 C 39 23 39 27 45 27 C 45 27 47 26 51 24 C 46 20 42 17 37 15 C 35 15 33 16 30 18 C 27 17 25 16 23 15 L 24 22 L 28 19 C 29 23 29 25 29 25 Z" fill="#df5858" id="id-female-6.8_face_5-67">
</path>
<path d="M 18 28 C 10 29 7 29 8 29 C 13 29 16 29 17 29 C 19 29 20 28 21 28 C 25 29 28 29 29 29 C 32 29 35 28 37 28 C 40 28 46 29 48 29 C 57 29 55 27 55 27 C 55 27 53 28 50 28 C 47 28 43 28 41 27 C 39 27 38 26 38 24 C 34 26 31 28 29 28 C 26 28 23 27 20 24 L 18 28 Z" fill="#8d1920" id="id-female-6.8_face_5-67">
</path>
</g>
<g transform="translate(55,106)" id="id-female-6.8_face_5-73">
<polygon points="24 72 25 76 40 76 46 80 53 76 67 75 70 71 69 67 66 61 64 58" fill="url(#id-female-6.8_face_5-18)" id="id-female-6.8_face_5-74">
</polygon>
<path d="M 18 4 L 35 5 L 46 0 L 57 5 L 83 5 L 55 34 L 64 65 C 40 72 27 74 24 71 C 20 67 28 52 30 35 C 32 24 28 14 18 4 Z" fill="url(#id-female-6.8_face_5-19)" id="id-female-6.8_face_5-75">
</path>
<path d="M 114 30 L 124 14 L 114 4 L 71 8 L 65 12 C 59 16 54 22 52 30 C 52 34 52 46 52 65 L 62 72 L 67 68 C 66 59 64 61 59 46 C 58 43 57 39 58 34 L 69 40 L 114 30 Z" fill="url(#id-female-6.8_face_5-20)" id="id-female-6.8_face_5-76">
</path>
<path d="M 25 46 C 31 42 34 38 34 35 C 34 31 33 24 29 10 C 29 9 19 6 0 0 C 9 10 15 17 17 22 C 20 28 23 36 25 46 Z" fill="url(#id-female-6.8_face_5-21)" id="id-female-6.8_face_5-77">
</path>
<path d="M 34 63 L 26 68 C 26 66 27 64 28 63 C 28 61 30 59 32 57 L 34 63 Z" fill="#f19f74" id="id-female-6.8_face_5-78">
</path>
<path d="M 58 63 C 58 59 59 57 60 58 C 61 59 63 62 65 66 L 58 63 Z" fill="#f09764" id="id-female-6.8_face_5-79">
</path>
<polygon points="24 72 29 73 40 73 42 76 48 76 51 74 61 74 66 72 67 69 65 66 58 63 31 63 26 67" fill="url(#id-female-6.8_face_5-22)" id="id-female-6.8_face_5-80">
</polygon>
<path d="M 35 63 L 32 66 C 36 67 39 68 40 68 C 41 69 42 72 43 74 C 44 74 47 74 47 74 C 48 72 50 69 51 68 C 53 67 55 66 59 66 L 57 63 L 52 63 L 35 63 Z" fill="#af4415" id="id-female-6.8_face_5-81">
</path>
<path d="M 51 74 L 61 74 C 59 71 58 70 55 70 C 53 70 52 71 51 74 Z" fill="#470f00" id="id-female-6.8_face_5-82">
</path>
<path d="M 29 73 L 40 73 C 40 72 39 70 36 69 C 34 69 32 70 29 73 Z" fill="#470f00" id="id-female-6.8_face_5-83">
</path>
<path d="M 52 27 C 50 25 47 25 44 25 C 40 25 38 26 36 30 C 38 34 38 39 38 44 C 38 50 34 58 36 62 C 37 64 40 65 44 65 C 49 65 52 64 53 62 C 55 58 52 50 52 40 C 51 34 51 30 52 27 Z" fill="url(#id-female-6.8_face_5-23)" id="id-female-6.8_face_5-84">
</path>
<path d="M 52 27 C 50 25 47 25 44 25 C 40 25 38 26 36 30 C 40 35 44 37 46 37 C 48 37 50 34 52 27 Z" fill="#f5b991" id="id-female-6.8_face_5-84">
</path>
<path d="M 51 62 C 50 61 46 60 38 59 C 36 62 38 64 42 64 C 48 65 52 63 51 62 Z" fill="#fdad88" id="id-female-6.8_face_5-86">
</path>
<path d="M 28 44 L 21 70 L 25 72 C 24 69 25 66 26 62 C 27 59 30 51 34 40 L 34 33 L 28 44 Z" fill="url(#id-female-6.8_face_5-24)" id="id-female-6.8_face_5-87">
</path>
</g>
<g transform="translate(23,110)" id="id-female-6.8_face_5-88">
<path d="M 7 23 L 0 11 L 3 1 L 41 2 C 45 7 49 12 50 15 C 52 18 53 24 54 31 L 7 23 Z" fill="url(#id-female-6.8_face_5-25)" id="id-female-6.8_face_5-89">
</path>
<polygon points="32 4 28 20 46 23 42 5" fill="url(#id-female-6.8_face_5-26)" id="id-female-6.8_face_5-90">
</polygon>
<path d="M 8 25 C 15 34 21 39 27 40 C 34 41 43 39 54 35 L 32 21 L 8 25 Z" fill="#fc8c66" id="id-female-6.8_face_5-91">
</path>
<path d="M 19 27 C 21 30 24 32 30 32 C 35 33 43 33 52 31 C 52 25 47 21 35 19 C 24 18 18 20 19 27 Z" fill="#bec3d7" id="id-female-6.8_face_5-92">
</path>
<path d="M 19 29 L 23 30 L 23 27 L 30 24 L 52 29 C 48 22 40 19 29 20 C 17 20 14 23 19 29 Z" fill="#000000" opacity="0.305" id="id-female-6.8_face_5-93">
</path>
<polygon points="49 32 54 35 55 32 50 26" fill="#751f00" id="id-female-6.8_face_5-94">
</polygon>
<path d="M 53 34 L 36 34 L 22 32 L 15 26 C 17 27 19 29 21 29 C 24 31 27 32 30 32 C 35 33 41 32 49 31 L 53 34 Z" fill="#64422d" id="id-female-6.8_face_5-95">
</path>
<path d="M 21 29 L 19 24 C 26 21 33 20 39 22 C 45 24 50 27 55 32 C 52 25 46 20 37 18 C 31 17 24 19 15 21 C 14 21 11 22 7 24 L 10 27 L 14 26 L 20 30 L 21 29 Z" fill="#181108" id="id-female-6.8_face_5-96">
</path>
<path d="M 26 22 C 26 29 29 32 35 32 C 41 32 44 29 45 24 C 41 21 37 19 35 19 C 33 19 30 20 26 22 Z" fill="#161209" id="id-female-6.8_face_5-97">
</path>
<polygon points="31 26 33 26 33 23 29 23 29 25 31 25" fill="#8c8f9e" id="id-female-6.8_face_5-98">
</polygon>
<path d="M 35 28 C 36 28 38 27 38 27 C 39 27 39 26 40 25 L 43 28 C 42 29 41 30 40 31 C 39 31 38 31 36 31 L 35 28 Z" fill="#6e1d00" id="id-female-6.8_face_5-99">
</path>
</g>
<g transform="translate(116,111)" id="id-female-6.8_face_5-100">
<path d="M 9 34 C 13 37 20 39 31 39 C 37 39 46 34 57 25 L 55 22 L 19 20 L 9 34 Z" fill="url(#id-female-6.8_face_5-27)" id="id-female-6.8_face_5-101">
</path>
<polygon points="11 28 0 20 10 5 53 1 61 11 52 23" fill="url(#id-female-6.8_face_5-28)" id="id-female-6.8_face_5-102">
</polygon>
<polygon points="20 21 24 1 32 1 38 21" fill="url(#id-female-6.8_face_5-29)" id="id-female-6.8_face_5-103">
</polygon>
<polygon points="13 32 31 34 41 31 45 28 14 25 10 34" fill="#8e5c40" id="id-female-6.8_face_5-104">
</polygon>
<path d="M 14 31 C 21 32 27 32 30 32 C 34 32 37 30 40 28 C 48 26 48 23 40 20 C 32 18 23 19 13 24 L 14 31 Z" fill="#ccccd7" id="id-female-6.8_face_5-105">
</path>
<path d="M 38 29 L 40 28 C 48 26 48 23 40 20 C 32 18 23 19 13 24 L 13 30 C 18 26 23 24 27 23 C 30 23 34 23 39 24 L 38 29 Z" fill="#000000" opacity="0.305" id="id-female-6.8_face_5-105">
</path>
<polygon points="8 32 9 34 14 31 14 25" fill="#782200" id="id-female-6.8_face_5-107">
</polygon>
<path d="M 18 24 C 19 29 22 32 28 32 C 34 31 37 28 37 21 C 35 20 31 19 26 19 C 21 20 18 21 18 24 Z" fill="#161209" id="id-female-6.8_face_5-108">
</path>
<path d="M 35 24 L 32 24 C 32 25 31 26 31 27 C 30 28 29 28 27 29 L 29 31 C 31 31 33 30 34 29 C 35 27 35 26 35 24 Z" fill="#761c00" id="id-female-6.8_face_5-109">
</path>
<polygon points="22 27 24 27 24 26 27 26 27 24 22 24" fill="#987a9e" id="id-female-6.8_face_5-110">
</polygon>
<path d="M 8 33 C 14 25 20 21 25 20 C 31 20 37 21 43 23 L 40 28 L 45 28 L 48 25 L 52 26 L 55 22 C 51 21 47 20 45 20 C 37 17 30 16 24 18 C 15 19 10 24 8 33 Z" fill="#171208" id="id-female-6.8_face_5-111">
</path>
</g>
<g transform="translate(23,101)" id="id-female-6.8_face_5-112">
<path d="M 1 13 L 11 11 L 9 13 L 28 12 L 28 13 L 51 16 L 49 17 L 56 17 L 56 20 L 65 11 L 62 11 L 60 13 L 60 9 L 56 13 L 56 7 L 54 12 L 46 4 C 28 1 18 0 14 1 C 11 2 7 6 1 13 Z" fill="url(#id-female-6.8_face_5-30)" id="id-female-6.8_face_5-113">
</path>
<polygon points="95 12 101 18 109 18 110 16 121 16 124 14 137 13 156 8 143 1 130 2 111 6 104 13 103 9 101 13 97 11" fill="url(#id-female-6.8_face_5-31)" id="id-female-6.8_face_5-114">
</polygon>
</g>
</g>
<defs>
<linearGradient x1="33%" y1="59%" x2="66%" y2="64%" id="id-female-10_ripped_tights-0">
<stop stop-color="#050e15" offset="0%" stop-opacity="0.81">
</stop>
<stop stop-color="#040d13" offset="11%" stop-opacity="0.379">
</stop>
<stop stop-color="#040d13" offset="19%" stop-opacity="0.151">
</stop>
<stop stop-color="#040d13" offset="28%" stop-opacity="0.329">
</stop>
<stop stop-color="#040b10" offset="41%" stop-opacity="0.741">
</stop>
<stop stop-color="#03090e" offset="59%" stop-opacity="0.74">
</stop>
<stop stop-color="#03080b" offset="70%" stop-opacity="0.221">
</stop>
<stop stop-color="#03070b" offset="79%" stop-opacity="0.133">
</stop>
<stop stop-color="#02070b" offset="89%" stop-opacity="0.332">
</stop>
<stop stop-color="#020609" offset="100%" stop-opacity="0.712">
</stop>
</linearGradient>
</defs>
<g transform="translate(450,1060)" id="id-female-10_ripped_tights-1">
<path d="M 315 72 C 331 189 359 253 401 265 C 402 281 403 298 402 314 C 394 426 347 550 347 571 C 347 626 340 674 347 700 L 347 700 L 245 700 C 231 673 238 628 231 601 C 229 568 229 533 228 499 C 228 446 209 336 219 260 C 246 202 278 140 315 72 Z M 86 54 L 194 258 C 194 258 195 269 196 281 C 188 416 173 470 169 554 C 169 578 171 579 171 604 C 166 624 165 646 167 673 L 167 673 L 162 700 L 53 700 C 56 692 58 681 60 667 C 32 461 4 415 0 271 C 40 271 69 199 86 54 L 86 54 Z M 104 605 L 98 619 L 106 655 L 128 654 L 129 633 L 104 605 Z M 122 575 L 115 585 L 110 601 L 127 616 L 122 575 Z M 117 495 L 103 497 L 103 514 L 109 512 L 104 520 L 106 536 L 116 536 L 117 512 L 117 495 Z M 115 420 L 97 423 L 100 480 L 117 471 L 117 446 L 101 445 L 116 432 L 115 420 Z M 305 370 L 305 380 L 332 392 L 307 396 L 311 435 L 347 444 L 347 428 L 329 425 L 347 420 L 347 404 L 347 377 L 305 370 Z M 109 383 L 99 383 L 98 407 L 110 407 L 109 383 Z M 110 346 L 102 350 L 98 375 L 110 369 L 110 346 Z" fill="url(#id-female-10_ripped_tights-0)" id="id-female-10_ripped_tights-2">
</path>
<path d="M 77 1 C 77 1 95 31 130 90 L 130 90 L 280 90 C 280 90 297 62 332 6 C 332 6 332 6 332 6 L 332 6 C 332 7 336 13 343 24 C 343 24 344 26 345 30 L 345 30 L 294 118 C 294 118 318 111 365 95 C 365 95 366 99 367 107 C 367 107 367 107 367 107 L 367 107 C 365 108 361 109 355 111 L 354 112 C 341 116 318 124 286 134 C 286 134 268 169 232 240 C 232 240 279 207 373 141 C 373 141 374 144 375 149 C 375 149 323 187 220 264 C 215 265 213 266 204 267 C 199 266 196 265 193 264 C 189 260 187 256 185 251 L 185 251 L 27 161 C 27 161 28 159 29 153 C 29 153 79 181 178 238 C 178 238 159 202 122 129 C 122 129 94 121 40 103 L 40 103 L 40 103 C 40 103 41 98 43 90 C 43 90 67 98 114 114 L 114 114 L 66 28 C 66 28 70 19 77 1 Z M 276 100 C 276 100 276 100 276 100 L 276 100 C 273 100 226 100 136 100 C 136 100 140 109 149 126 C 183 141 222 139 260 129 C 260 129 265 119 276 100 Z" fill="#131415" id="id-female-10_ripped_tights-2">
</path>
<g transform="translate(42,179)" fill="#bfbfbf" fill-opacity="0.193" id="id-female-10_ripped_tights-4">
<path d="M 239 132 C 231 134 226 136 226 136 C 224 107 223 92 223 92 L 230 57 C 236 107 239 132 239 132 Z" id="id-female-10_ripped_tights-5">
</path>
<path d="M 232 190 C 242 191 254 193 254 193 C 254 202 254 211 254 218 C 205 401 221 458 221 458 C 210 418 205 379 205 342 C 209 321 230 273 232 190 Z" id="id-female-10_ripped_tights-6">
</path>
<path d="M 44 266 C 29 264 16 262 1 259 C 23 372 39 474 39 474 L 48 413 C 39 391 37 341 44 266 Z" id="id-female-10_ripped_tights-7">
</path>
<path d="M 30 120 C 20 120 3 107 3 107 C 5 84 6 72 6 72 L 16 55 C 18 85 23 107 30 120 Z" id="id-female-10_ripped_tights-8">
</path>
<path d="M 74 118 C 59 100 57 65 57 65 L 61 1 C 100 41 104 80 74 118 Z" id="id-female-10_ripped_tights-9">
</path>
</g>
</g>
<defs>
<radialGradient cx="50%" cy="44%" r="101%" id="id-female-12_sheer_jumpsuit-0" fx="50%" fy="44%" gradientTransform="translate(0.5,0.436) scale(1,0.688) rotate(90) scale(1,0.601) translate(-0.5,-0.436)">
<stop stop-color="#7288a0" offset="0%" stop-opacity="0">
</stop>
<stop stop-color="#324b66" offset="100%">
</stop>
</radialGradient>
<radialGradient cx="50%" cy="22%" r="104%" id="id-female-12_sheer_jumpsuit-1" fx="50%" fy="22%" gradientTransform="translate(0.5,0.22) scale(1,0.464) rotate(90) scale(1,0.418) translate(-0.5,-0.22)">
<stop stop-color="#242e3a" offset="0%">
</stop>
<stop stop-color="#182230" offset="100%">
</stop>
</radialGradient>
<radialGradient cx="50%" cy="32%" r="146%" id="id-female-12_sheer_jumpsuit-2" fx="50%" fy="32%" gradientTransform="translate(0.5,0.318) scale(1,0.455) rotate(90) scale(1,0.471) translate(-0.5,-0.318)">
<stop stop-color="#152c47" offset="0%">
</stop>
<stop stop-color="#0f1620" offset="100%">
</stop>
</radialGradient>
<radialGradient cx="50%" cy="48%" r="132%" id="id-female-12_sheer_jumpsuit-3" fx="50%" fy="48%" gradientTransform="translate(0.5,0.484) scale(1,0.447) rotate(90) scale(1,0.618) translate(-0.5,-0.484)">
<stop stop-color="#193ec3" offset="0%">
</stop>
<stop stop-color="#18304c" offset="100%">
</stop>
</radialGradient>
<radialGradient cx="50%" cy="22%" r="158%" id="id-female-12_sheer_jumpsuit-4" fx="50%" fy="22%" gradientTransform="translate(0.5,0.22) scale(1,0.306) rotate(90) scale(1,0.418) translate(-0.5,-0.22)">
<stop stop-color="#242e3a" offset="0%">
</stop>
<stop stop-color="#182230" offset="100%">
</stop>
</radialGradient>
<radialGradient cx="50%" cy="22%" r="124%" id="id-female-12_sheer_jumpsuit-5" fx="50%" fy="22%" gradientTransform="translate(0.5,0.22) scale(1,0.39) rotate(90) scale(1,0.418) translate(-0.5,-0.22)">
<stop stop-color="#242e3a" offset="0%">
</stop>
<stop stop-color="#182230" offset="100%">
</stop>
</radialGradient>
<radialGradient cx="50%" cy="22%" r="122%" id="id-female-12_sheer_jumpsuit-6" fx="50%" fy="22%" gradientTransform="translate(0.5,0.22) scale(1,0.396) rotate(90) scale(1,0.418) translate(-0.5,-0.22)">
<stop stop-color="#242e3a" offset="0%">
</stop>
<stop stop-color="#182230" offset="100%">
</stop>
</radialGradient>
</defs>
<g transform="translate(450,632)" id="id-female-12_sheer_jumpsuit-7">
<path d="M 39 545 C 30 575 21 607 12 639 C -20 731 21 910 51 1049 C 51 1055 53 1070 56 1094 L 51 1128 L 166 1128 C 166 1109 168 1089 172 1069 C 171 1046 169 994 174 936 C 178 896 192 807 192 760 C 192 738 194 715 196 692 L 217 692 C 219 693 220 694 221 696 C 218 738 218 772 223 815 C 229 896 230 1010 236 1094 C 241 1103 243 1114 241 1128 L 346 1128 L 346 1031 C 345 1020 344 1012 345 1008 C 367 906 425 749 392 642 C 385 609 378 577 370 548 L 39 545 Z" fill="url(#id-female-12_sheer_jumpsuit-0)" id="id-female-12_sheer_jumpsuit-8">
</path>
<path d="M 370 548 C 268 607 214 699 218 768 C 218 763 217 738 215 696 C 215 694 215 693 217 692 C 207 695 204 695 196 692 C 197 706 197 728 194 760 C 193 774 192 789 191 804 C 184 850 182 875 177 913 C 172 952 169 992 172 1069 C 168 1089 166 1109 166 1128 C 131 1128 109 1128 101 1128 C 85 1080 107 1004 166 900 C 185 832 192 785 187 760 C 186 752 186 743 184 734 C 149 650 115 596 39 545 C 44 509 56 476 85 414 C 161 414 242 416 326 420 L 338 444 L 361 507 C 365 527 368 541 370 548 Z" fill="url(#id-female-12_sheer_jumpsuit-1)" id="id-female-12_sheer_jumpsuit-9">
</path>
<path d="M 128 3 C 125 3 116 12 116 12 C 118 42 117 68 114 89 C 111 99 65 154 57 169 C 46 202 42 236 74 265 C 82 337 88 386 83 412 C 103 518 120 537 191 684 C 199 688 212 690 223 685 C 270 636 306 541 327 411 C 327 376 338 307 344 252 C 357 229 363 227 361 181 C 307 98 291 86 302 9 C 298 6 294 2 294 2 L 209 28 C 178 17 152 9 128 3 Z" fill="url(#id-female-12_sheer_jumpsuit-2)" id="id-female-12_sheer_jumpsuit-10">
</path>
<path d="M 124 6 C 120 10 118 12 118 12 C 122 26 124 33 124 33 C 124 63 123 85 121 98 C 99 124 75 155 51 192 C 53 182 55 174 57 169 C 65 154 108 103 114 89 C 116 71 117 45 116 12 C 121 8 124 6 124 6 Z" stroke="#979797" id="id-female-12_sheer_jumpsuit-11">
</path>
<path d="M 149 262 C 126 275 101 277 74 268 C 74 266 74 265 74 265 L 56 237 C 92 258 123 266 149 262 Z" fill="#152d48" id="id-female-12_sheer_jumpsuit-12">
</path>
<path d="M 358 228 C 324 250 289 259 255 256 C 278 270 308 270 344 257 L 344 253 C 353 236 358 228 358 228 Z" fill="#152c43" id="id-female-12_sheer_jumpsuit-13">
</path>
<path d="M 280 335 C 296 365 304 380 304 380 L 256 490 L 262 380 C 274 350 280 335 280 335 Z" fill="#172c47" id="id-female-12_sheer_jumpsuit-14">
</path>
<path d="M 202 262 C 149 292 123 308 123 308 C 132 375 136 408 136 408 L 107 485 C 163 613 192 677 192 677 C 213 677 224 677 224 677 C 251 636 264 616 264 616 L 292 293 C 232 272 202 262 202 262 Z" fill="#172c44" id="id-female-12_sheer_jumpsuit-15">
</path>
<path d="M 114 9 L 114 89 L 56 168 C 53 184 51 192 51 192 L 147 187 L 147 595 L 191 684 C 212 685 223 685 223 685 C 250 646 264 626 264 626 C 261 427 261 279 263 181 C 313 192 331 192 357 175 C 315 112 288 84 302 9 C 300 4 298 2 294 2 L 209 28 L 126 0 L 114 9 Z" fill="url(#id-female-12_sheer_jumpsuit-3)" id="id-female-12_sheer_jumpsuit-16">
</path>
<path d="M 220 810 C 233 931 335 1052 314 1128 C 300 1128 275 1128 241 1128 C 243 1118 241 1107 236 1094 C 226 965 227 867 220 810 Z" fill="url(#id-female-12_sheer_jumpsuit-4)" id="id-female-12_sheer_jumpsuit-17">
</path>
<path d="M 51 1049 C 69 921 180 881 157 769 C 113 682 44 650 12 639 C -23 739 27 924 51 1049 Z" fill="url(#id-female-12_sheer_jumpsuit-5)" id="id-female-12_sheer_jumpsuit-18">
</path>
<path d="M 345 1033 C 297 917 232 861 251 786 C 278 705 368 660 392 642 C 399 677 403 710 402 742 C 399 830 367 912 347 999 C 347 1005 347 1037 345 1033 Z" fill="url(#id-female-12_sheer_jumpsuit-6)" id="id-female-12_sheer_jumpsuit-19">
</path>
<path d="M 202 262 L 147 294 L 147 595 C 174 650 188 677 188 677 C 215 677 228 677 228 677 C 252 643 264 626 264 626 L 261 282 C 221 269 202 262 202 262 Z" fill="#7990db" fill-opacity="0.109" id="id-female-12_sheer_jumpsuit-15">
</path>
<path d="M 147 217 C 100 224 73 215 67 191 C 80 190 107 186 148 180 C 147 205 147 217 147 217 Z" fill="#182d48" id="id-female-12_sheer_jumpsuit-21">
</path>
<path d="M 264 181 C 263 188 263 196 263 206 L 321 206 C 308 187 289 179 264 181 Z" fill="#182d48" id="id-female-12_sheer_jumpsuit-22">
</path>
<polygon points="293 530 298 538 286 572 281 567" fill="#142a6d" id="id-female-12_sheer_jumpsuit-23">
</polygon>
<path d="M 109 487 L 105 500 C 115 524 124 545 133 565 C 134 563 136 560 138 557 L 109 487 Z" fill="#142a6d" id="id-female-12_sheer_jumpsuit-24">
</path>
</g>
<defs>
<linearGradient x1="49%" y1="82%" x2="52%" y2="89%" id="id-female-12.5_hoodie-0">
<stop stop-color="#d88100" offset="0%">
</stop>
<stop stop-color="#b36300" offset="100%">
</stop>
</linearGradient>
<linearGradient x1="100%" y1="50%" x2="0%" y2="50%" id="id-female-12.5_hoodie-1">
<stop stop-color="#1a1918" offset="0%">
</stop>
<stop stop-color="#222221" offset="100%">
</stop>
</linearGradient>
<linearGradient x1="51%" y1="82%" x2="50%" y2="96%" id="id-female-12.5_hoodie-2">
<stop stop-color="#d88100" offset="0%">
</stop>
<stop stop-color="#bf6c00" offset="100%">
</stop>
</linearGradient>
<linearGradient x1="50%" y1="34%" x2="59%" y2="98%" id="id-female-12.5_hoodie-3">
<stop stop-color="#fbac00" offset="0%">
</stop>
<stop stop-color="#df8900" offset="100%">
</stop>
</linearGradient>
<linearGradient x1="85%" y1="2%" x2="15%" y2="82%" id="id-female-12.5_hoodie-4">
<stop stop-color="#f9b10e" offset="0%">
</stop>
<stop stop-color="#fec020" offset="100%">
</stop>
</linearGradient>
<linearGradient x1="93%" y1="46%" x2="47%" y2="50%" id="id-female-12.5_hoodie-5">
<stop stop-color="#964b00" offset="0%">
</stop>
<stop stop-color="#a75900" offset="100%">
</stop>
</linearGradient>
</defs>
<g transform="translate(311,588)" id="id-female-12.5_hoodie-6">
<g transform="translate(0,337)" id="id-female-12.5_hoodie-7">
<path d="M 56 166 L 143 192 L 65 199 C 59 177 56 166 56 166 Z" fill="#ffc325" id="id-female-12.5_hoodie-8">
</path>
<path d="M 16 435 L 27 386 C 15 379 6 371 0 364 C 0 355 3 341 15 311 C 21 282 35 218 29 191 C 39 178 40 176 51 160 C 45 156 42 93 42 62 C 53 49 63 28 72 0 C 98 19 123 36 147 51 C 161 62 175 73 187 84 L 180 171 L 161 194 L 161 234 L 129 254 L 138 259 L 129 306 L 112 310 L 124 325 C 124 334 118 346 107 362 C 101 362 94 362 94 362 C 95 379 95 387 95 387 L 108 418 L 105 419 C 98 413 83 412 61 416 C 46 419 31 426 16 435 Z" fill="url(#id-female-12.5_hoodie-0)" id="id-female-12.5_hoodie-9">
</path>
<path d="M 24 401 C 31 387 35 379 35 379 C 56 373 66 370 66 370 L 9 373 L 27 386 C 25 396 24 401 24 401 Z" fill="#8e4400" id="id-female-12.5_hoodie-10">
</path>
<path d="M 71 375 C 71 398 71 410 71 410 C 45 418 31 422 31 422 L 36 382 C 59 377 71 375 71 375 Z" fill="#f09f00" id="id-female-12.5_hoodie-11">
</path>
<path d="M 68 366 C 42 367 29 367 29 367 C 41 350 47 341 47 341 C 39 328 35 321 35 321 C 43 317 46 315 46 315 C 74 331 87 338 87 338 C 95 332 101 327 105 323 C 76 314 59 294 59 294 C 82 291 93 289 93 289 C 91 272 90 263 90 263 C 103 254 109 249 109 249 C 106 220 105 205 105 205 C 78 201 65 199 65 199 C 57 170 53 156 53 156 C 75 141 86 134 86 134 C 118 154 133 164 133 164 C 120 133 113 117 113 117 C 131 106 139 100 139 100 C 137 70 136 55 136 55 C 160 81 172 94 172 94 C 165 109 161 116 161 116 L 178 173 C 172 180 167 187 161 195 C 161 200 161 213 161 234 L 129 254 L 138 259 L 129 306 L 112 310 C 120 320 124 325 124 325 L 123 329 C 86 354 68 366 68 366 Z" fill="#ffb100" id="id-female-12.5_hoodie-12">
</path>
<path d="M 129 254 C 116 248 109 246 109 246 L 161 227 L 161 234 C 140 247 129 254 129 254 Z" fill="#ec9a00" id="id-female-12.5_hoodie-13">
</path>
<path d="M 91 277 C 79 266 41 241 41 241 C 31 250 27 254 27 254 L 21 285 C 45 288 68 285 91 277 Z" fill="#ed9b00" id="id-female-12.5_hoodie-14">
</path>
<path d="M 109 246 L 62 212 L 105 205 C 107 232 109 246 109 246 Z" fill="#ea9700" id="id-female-12.5_hoodie-15">
</path>
<path d="M 38 221 C 51 184 72 150 72 150 C 56 149 47 148 47 148 C 48 153 49 155 49 155 C 54 157 57 157 57 157 C 44 188 37 204 37 204 C 33 204 31 204 31 204 L 31 214 C 33 216 35 218 38 221 Z" fill="#232529" id="id-female-12.5_hoodie-16">
</path>
<path d="M 12 337 C 29 335 37 335 37 335 C 32 346 29 352 29 352 L 10 343 C 12 339 12 337 12 337 Z" fill="#232529" id="id-female-12.5_hoodie-17">
</path>
<path d="M 49 155 C 56 151 71 133 71 133 C 58 126 51 122 51 122 C 49 105 48 97 48 97 L 43 99 C 44 129 46 147 49 155 Z" fill="#b56400" id="id-female-12.5_hoodie-18">
</path>
<path d="M 42 77 C 66 82 78 84 78 84 C 78 109 79 122 79 122 C 73 124 71 125 71 125 L 63 90 L 43 99 C 42 84 42 77 42 77 Z" fill="#232529" id="id-female-12.5_hoodie-19">
</path>
<path d="M 56 112 C 57 126 58 133 58 133 C 50 135 46 136 46 136 C 45 126 45 121 45 121 L 48 113 C 53 112 56 112 56 112 Z" fill="#232529" id="id-female-12.5_hoodie-20">
</path>
<path d="M 42 63 C 60 63 87 36 121 40 C 137 57 159 80 185 109 L 187 84 L 147 51 L 72 0 C 63 29 53 50 42 63 Z" fill="#904600" id="id-female-12.5_hoodie-21">
</path>
<path d="M 6 337 C 12 332 18 315 26 286 L 38 244 L 31 188 C 30 189 30 190 29 191 C 33 214 26 286 6 337 Z" fill="#b16000" id="id-female-12.5_hoodie-22">
</path>
<path d="M 46 281 C 42 288 40 291 40 291 C 27 287 21 285 21 285 L 26 256 C 40 273 46 281 46 281 Z" fill="#232529" id="id-female-12.5_hoodie-23">
</path>
<path d="M 61 183 L 51 200 L 65 199 C 62 188 61 183 61 183 Z" fill="#232529" id="id-female-12.5_hoodie-24">
</path>
<path d="M 83 64 L 98 39 C 81 30 72 26 72 26 C 66 26 63 26 63 26 L 52 49 L 83 64 Z" fill="#232529" id="id-female-12.5_hoodie-25">
</path>
<polygon points="161 116 172 94 147 68" fill="#f1a400" id="id-female-12.5_hoodie-26">
</polygon>
<path d="M 30 225 C 56 213 69 207 69 207 C 64 224 61 237 58 249 C 51 245 41 243 28 243 C 29 231 30 225 30 225 Z" fill="#232529" id="id-female-12.5_hoodie-27">
</path>
<path d="M 37 299 C 41 311 43 317 43 317 C 20 325 8 329 8 329 L 15 309 C 30 302 37 299 37 299 Z" fill="#232529" id="id-female-12.5_hoodie-28">
</path>
</g>
<g transform="translate(58,0)" id="id-female-12.5_hoodie-29">
<path d="M 86 716 C 80 705 76 700 76 700 C 81 669 83 653 83 653 C 98 610 106 589 106 589 L 118 512 L 122 507 L 130 421 C 117 410 104 399 90 388 C 46 359 23 343 0 326 C 28 275 68 134 68 134 C 65 129 63 126 63 126 L 74 105 L 155 65 C 257 122 308 151 308 151 C 387 91 426 61 426 61 C 426 65 425 67 425 67 C 470 87 493 97 493 97 C 505 112 512 120 512 120 C 508 128 506 131 506 131 C 510 134 512 136 514 137 C 514 168 527 206 536 240 C 547 284 553 305 565 320 C 561 326 557 330 553 335 L 491 378 C 469 396 451 412 438 426 C 441 435 447 447 453 461 L 443 503 C 451 517 455 524 455 524 C 458 567 461 605 466 637 C 472 648 479 670 488 704 L 485 711 C 418 725 351 733 283 733 C 185 735 86 716 86 716 Z" fill="url(#id-female-12.5_hoodie-1)" id="id-female-12.5_hoodie-30">
</path>
<path d="M 109 719 L 86 716 L 76 700 L 83 653 L 106 589 L 118 512 L 122 507 C 127 450 130 421 130 421 L 150 294 L 138 504 L 109 719 Z" fill="#1b1b19" id="id-female-12.5_hoodie-31">
</path>
<path d="M 71 765 C 139 775 210 783 284 788 C 398 784 496 766 496 766 C 485 737 480 723 480 723 C 484 716 486 712 486 712 C 421 726 353 734 282 734 C 217 734 151 728 85 716 C 76 748 71 765 71 765 Z" fill="#ffb100" id="id-female-12.5_hoodie-32">
</path>
<path d="M 126 723 L 103 770 L 71 765 L 85 716 C 112 720 126 723 126 723 Z" fill="#944900" id="id-female-12.5_hoodie-33">
</path>
<path d="M 170 778 L 163 727 L 126 723 L 104 770 C 148 775 170 778 170 778 Z" fill="#d57f00" id="id-female-12.5_hoodie-34">
</path>
<path d="M 178 729 C 179 762 179 779 179 779 C 182 779 183 779 183 779 L 187 730 C 181 729 178 729 178 729 Z" fill="#d88100" id="id-female-12.5_hoodie-35">
</path>
<path d="M 242 733 C 242 768 243 785 243 785 C 251 786 256 786 256 786 L 262 734 C 248 734 242 733 242 733 Z" fill="#e49000" id="id-female-12.5_hoodie-36">
</path>
<path d="M 383 729 C 387 758 389 773 389 773 L 397 727 C 388 729 383 729 383 729 Z" fill="#d88100" id="id-female-12.5_hoodie-37">
</path>
<path d="M 398 779 C 408 743 413 725 413 725 C 443 720 459 718 459 718 L 474 769 C 424 776 398 779 398 779 Z" fill="#d88100" id="id-female-12.5_hoodie-38">
</path>
<polygon points="480 723 486 712 459 718 474 769 496 766" fill="#964a00" id="id-female-12.5_hoodie-39">
</polygon>
<path d="M 527 353 C 524 337 512 273 512 273 C 499 331 492 360 492 360 C 472 293 462 260 462 260 C 456 338 454 377 454 377 C 451 318 450 289 450 289 C 465 231 473 202 473 202 C 460 183 454 174 454 174 C 442 263 435 308 435 308 C 433 392 432 433 432 433 C 417 390 410 369 410 369 C 423 483 429 540 429 540 C 404 502 392 483 392 483 L 437 615 L 454 718 L 485 712 L 488 703 C 481 677 474 655 466 637 L 454 524 L 443 503 L 454 462 L 438 426 C 465 396 495 372 527 353 Z" fill="#12110f" id="id-female-12.5_hoodie-40">
</path>
<path d="M 327 732 C 338 555 344 466 344 466 L 382 728 C 345 731 327 732 327 732 Z" fill="#151413" id="id-female-12.5_hoodie-41">
</path>
<path d="M 260 486 C 275 588 282 639 282 639 C 315 654 331 662 331 662 L 343 485 C 288 485 260 486 260 486 Z" fill="#232528" id="id-female-12.5_hoodie-42">
</path>
<path d="M 245 486 L 236 579 L 194 659 C 181 675 175 682 175 682 C 166 625 162 596 162 596 C 150 612 145 620 145 620 C 135 608 130 602 130 602 C 145 576 152 563 152 563 L 187 487 L 245 486 Z" fill="#24262a" id="id-female-12.5_hoodie-43">
</path>
<path d="M 176 488 C 317 485 388 483 388 483 C 391 478 393 475 393 475 L 187 481 C 180 486 176 488 176 488 Z" fill="#0f0f0e" id="id-female-12.5_hoodie-44">
</path>
<path d="M 114 610 C 141 582 154 568 154 568 L 138 504 C 122 574 114 610 114 610 Z" fill="#12110f" id="id-female-12.5_hoodie-45">
</path>
<path d="M 203 481 C 194 481 190 481 190 481 L 195 406 C 200 456 203 481 203 481 Z" fill="#1b1b19" id="id-female-12.5_hoodie-46">
</path>
<path d="M 242 480 C 237 480 234 480 234 480 C 225 282 212 155 194 99 C 196 99 268 170 242 480 Z" fill="#191817" id="id-female-12.5_hoodie-47">
</path>
<path d="M 77 103 C 100 132 111 147 111 147 C 127 133 135 126 135 126 C 148 217 154 263 154 263 L 314 294 L 382 279 L 421 247 L 411 188 L 267 156 L 205 103 L 194 99 L 150 67 C 102 91 77 103 77 103 Z" fill="#2a2c36" id="id-female-12.5_hoodie-48">
</path>
<path d="M 126 152 C 128 167 130 174 130 174 C 121 233 116 262 116 262 L 134 395 C 131 412 130 421 130 421 C 117 410 111 404 111 404 C 114 393 116 387 116 387 C 115 301 114 258 114 258 L 102 210 L 126 152 Z" fill="#141312" id="id-female-12.5_hoodie-49">
</path>
<path d="M 48 359 C 48 347 48 341 48 341 C 69 360 79 369 79 369 C 68 305 62 274 62 274 C 67 233 69 213 69 213 C 86 262 94 286 94 286 C 91 197 89 152 89 152 C 98 156 103 158 103 158 L 69 116 L 63 126 L 68 134 C 40 232 17 296 0 326 C 21 341 48 359 48 359 Z" fill="#181716" id="id-female-12.5_hoodie-50">
</path>
<path d="M 57 162 C 66 169 71 173 71 173 C 61 206 56 222 56 222 L 39 214 C 51 179 57 162 57 162 Z" fill="#b60000" id="id-female-12.5_hoodie-51">
</path>
<path d="M 222 147 C 206 144 198 142 198 142 L 193 103 C 213 132 222 147 222 147 Z" fill="#222222" id="id-female-12.5_hoodie-52">
</path>
<path d="M 261 734 C 244 631 236 579 236 579 C 209 631 195 657 195 657 C 182 674 175 682 175 682 L 170 728 C 231 732 261 734 261 734 Z" fill="#191918" id="id-female-12.5_hoodie-53">
</path>
<path d="M 314 163 C 300 159 281 154 255 145 L 205 103 L 194 99 L 150 67 C 153 65 155 65 155 65 C 150 60 148 58 148 58 C 154 42 159 29 163 18 C 182 52 218 80 294 90 C 371 80 415 36 421 20 C 425 28 429 39 434 52 L 426 61 L 411 75 C 381 108 349 138 314 163 Z" fill="#12110f" id="id-female-12.5_hoodie-54">
</path>
<path d="M 372 87 C 367 109 365 120 365 120 C 361 126 358 130 358 130 C 327 143 311 149 311 149 C 308 135 307 129 307 129 C 274 111 257 102 257 102 C 288 104 303 105 303 105 C 302 99 301 94 300 89 C 384 78 421 22 421 22 C 429 41 433 51 433 51 C 427 57 424 61 424 61 L 353 92 C 365 88 372 87 372 87 Z" fill="#1f1e1e" id="id-female-12.5_hoodie-55">
</path>
<path d="M 240 96 C 241 324 241 438 241 438 C 238 438 236 438 236 438 L 235 97 C 238 97 240 96 240 96 Z" fill="#606b80" id="id-female-12.5_hoodie-56">
</path>
<path d="M 328 99 C 330 277 330 366 330 366 C 327 362 325 360 325 360 L 322 99 C 326 99 328 99 328 99 Z" fill="#606b80" id="id-female-12.5_hoodie-57">
</path>
<path d="M 330 86 C 338 91 342 93 342 93 C 333 107 329 113 329 113 L 313 100 C 324 91 330 86 330 86 Z M 332 91 C 323 96 319 99 319 99 L 328 108 C 333 102 335 99 335 99 C 333 94 332 91 332 91 L 332 91 L 332 91 Z" fill="#737c8f" id="id-female-12.5_hoodie-58">
</path>
<path d="M 238 83 C 246 90 251 94 251 94 C 244 103 241 107 241 107 L 226 97 C 234 88 238 83 238 83 Z M 240 88 C 235 92 232 94 231 95 L 231 95 C 231 95 231 95 231 95 L 240 102 C 245 97 247 94 247 94 C 242 90 240 88 240 88 Z" fill="#737c8f" id="id-female-12.5_hoodie-58">
</path>
<path d="M 464 148 C 407 122 379 108 379 108 C 400 86 411 75 411 75 L 436 72 L 493 97 L 508 115 C 479 137 464 148 464 148 Z" fill="#282c34" id="id-female-12.5_hoodie-60">
</path>
<polygon points="443 573 393 485 424 554" fill="#292c35" id="id-female-12.5_hoodie-61">
</polygon>
<path d="M 523 166 C 519 157 517 153 517 153 C 486 168 471 176 471 176 L 479 188 C 508 174 523 166 523 166 Z" fill="#d68000" id="id-female-12.5_hoodie-62">
</path>
<polygon points="139 631 168 631 174 692 141 688" fill="#a8adba" id="id-female-12.5_hoodie-63">
</polygon>
<path d="M 420 59 C 403 61 390 63 381 63 C 401 50 414 37 421 22 L 425 30 L 420 59 Z" fill="#272a31" id="id-female-12.5_hoodie-64">
</path>
</g>
<g transform="translate(495,335)" id="id-female-12.5_hoodie-65">
<path d="M 115 0 C 121 15 130 32 141 58 C 144 80 141 110 132 148 L 145 189 L 139 242 L 158 256 L 158 295 L 150 308 L 174 356 L 174 368 L 150 391 L 160 439 L 103 416 L 64 420 L 82 366 L 66 364 L 50 320 L 62 308 L 42 308 L 34 258 L 42 250 L 18 233 L 18 189 L 6 168 L 16 126 C 7 108 2 96 0 91 C 50 38 76 31 115 0 Z" fill="url(#id-female-12.5_hoodie-2)" id="id-female-12.5_hoodie-66">
</path>
<path d="M 13 120 C 23 99 33 78 41 59 C 68 46 96 36 127 27 C 122 17 118 8 115 0 C 70 33 41 48 0 91 C 3 98 7 107 13 120 Z" fill="#9e5300" id="id-female-12.5_hoodie-67">
</path>
<path d="M 70 305 L 101 291 C 126 313 139 324 139 324 L 97 306 L 70 305 Z" fill="#b16400" id="id-female-12.5_hoodie-68">
</path>
<path d="M 110 32 L 56 52 L 43 109 L 67 127 L 26 189 L 78 204 L 67 258 L 84 267 L 74 294 L 145 297 L 110 300 L 137 318 L 127 335 L 174 360 L 174 356 L 150 308 L 158 295 L 158 256 L 139 242 L 145 189 L 124 138 C 133 104 139 77 141 58 C 134 52 123 44 110 32 Z" fill="url(#id-female-12.5_hoodie-3)" id="id-female-12.5_hoodie-69">
</path>
<polygon points="78 132 53 109 48 109 53 83 109 46 135 60" fill="url(#id-female-12.5_hoodie-4)" id="id-female-12.5_hoodie-70">
</polygon>
<polygon points="72 138 53 178 108 155" fill="#d88100" id="id-female-12.5_hoodie-71">
</polygon>
<polygon points="64 196 81 196 135 171 77 222 78 204" fill="#fbb919" id="id-female-12.5_hoodie-72">
</polygon>
<polygon points="17 111 30 152 18 189 6 168 16 126 13 120" fill="#c06d00" id="id-female-12.5_hoodie-73">
</polygon>
<polygon points="18 192 26 189 78 204 37 247 18 233" fill="#ab5c00" id="id-female-12.5_hoodie-74">
</polygon>
<path d="M 50 320 L 66 364 L 82 366 L 64 420 C 90 417 103 416 103 416 L 111 381 C 153 372 174 368 174 368 C 174 365 174 363 174 363 L 102 353 L 50 320 Z" fill="#bf6d00" id="id-female-12.5_hoodie-75">
</path>
<path d="M 132 374 L 79 376 C 81 369 82 366 82 366 C 81 366 80 366 80 366 L 84 360 C 116 369 132 374 132 374 Z" fill="#954a00" id="id-female-12.5_hoodie-76">
</path>
<polygon points="150 391 111 381 174 368" fill="url(#id-female-12.5_hoodie-5)" id="id-female-12.5_hoodie-77">
</polygon>
</g>
</g>
<defs>
<linearGradient x1="27%" y1="20%" x2="75%" y2="22%" id="id-female-25_13_slick_swirl-0">
<stop stop-color="#052c54" offset="0%">
</stop>
<stop stop-color="#010509" offset="27%">
</stop>
<stop stop-color="#010101" offset="49%">
</stop>
<stop stop-color="#020509" offset="75%">
</stop>
<stop stop-color="#0a2f57" offset="100%">
</stop>
</linearGradient>
</defs>
<g transform="translate(549,326)" id="id-female-25_13_slick_swirl-1">
<g transform="translate(0,0)" id="id-female-25_13_slick_swirl-2">
<path d="M 192 315 C 194 315 230 345 212 361 C 203 370 202 355 192 354 C 179 353 164 367 165 386 C 165 386 167 362 186 356 C 185 357 156 378 177 396 C 192 404 210 389 211 398 C 213 408 199 413 198 411 C 196 408 196 405 201 403 C 201 403 189 402 193 415 C 195 423 217 418 218 404 C 219 389 212 390 204 391 C 174 400 172 367 200 366 C 220 388 243 356 229 337 C 230 336 263 357 238 360 C 238 360 245 365 250 356 C 254 339 195 313 192 315 Z M 208 366 C 208 366 221 362 220 349 C 220 349 225 368 208 366 Z" fill="#010101" id="id-female-25_13_slick_swirl-3" fill-rule="nonzero">
</path>
<path d="M 89 363 C 90 383 63 406 42 388 C 21 370 17 402 33 400 C 62 388 48 436 27 417 C 28 418 40 421 44 413 C 50 393 18 424 13 390 C 10 374 29 366 36 373 C 44 381 60 388 72 370 C 83 352 68 347 63 348 C 52 350 0 363 0 321 L 20 316 C 19 318 18 323 18 325 C 19 374 93 307 89 363 Z" fill="#010101" id="id-female-25_13_slick_swirl-4">
</path>
<path d="M 190 43 C 174 9 118 -4 115 3 C 115 3 96 -10 58 20 C 50 25 44 31 39 39 C 31 51 26 64 23 77 C 18 94 24 126 28 145 C 29 154 20 106 46 90 C 46 90 43 109 50 114 C 50 114 57 120 42 121 C 27 122 25 151 38 168 C 44 177 61 164 62 178 C 63 191 60 194 52 200 C 41 209 43 232 60 224 C 56 224 46 222 48 213 C 51 202 62 207 68 189 C 74 172 65 160 58 164 C 50 168 38 175 34 150 C 28 110 66 147 61 110 C 56 100 64 85 70 81 C 70 81 121 86 120 43 C 119 44 192 66 187 100 C 185 109 196 122 194 133 C 193 144 193 154 194 154 C 196 139 210 85 190 43 Z M 86 47 C 73 57 43 68 43 68 C 59 52 86 47 86 47 Z M 34 97 L 33 80 C 35 71 62 64 62 64 C 54 69 49 83 49 83 C 42 86 34 97 34 97 Z M 76 76 C 82 72 116 53 112 38 C 124 78 76 76 76 76 L 76 76 Z" fill="url(#id-female-25_13_slick_swirl-0)" id="id-female-25_13_slick_swirl-3" fill-rule="nonzero">
</path>
</g>
<g transform="translate(21,19)" id="id-female-25_13_slick_swirl-6">
<path d="M 29 64 C 29 64 35 54 47 61 C 49 59 56 53 67 48 C 67 48 41 61 37 52 C 33 55 32 60 29 64 Z" fill="#7a82a9" id="id-female-25_13_slick_swirl-4">
</path>
<path d="M 144 42 C 142 40 124 31 124 31 C 132 30 165 25 152 3 C 160 9 166 17 169 24 C 160 21 151 27 144 42 Z" fill="#7a82a9" id="id-female-25_13_slick_swirl-4">
</path>
<path d="M 56 28 L 49 31 C 49 31 45 16 18 20 C 23 12 29 6 37 1 C 36 7 39 15 56 28 Z" fill="#7a82a9" id="id-female-25_13_slick_swirl-4">
</path>
<path d="M 173 348 C 174 348 176 347 179 347 C 178 346 173 333 166 335 C 168 336 173 341 173 348 Z" fill="#7a82a9" id="id-female-25_13_slick_swirl-4">
</path>
<path d="M 56 341 C 56 341 53 350 53 350 C 53 350 63 346 68 347 L 68 344 C 61 345 58 344 56 341 Z" fill="#7a82a9" id="id-female-25_13_slick_swirl-4">
</path>
<path d="M 27 81 C 19 49 74 32 81 15 C 29 18 2 62 1 84 C 0 65 2 59 3 58 C 15 35 45 18 64 12 C 57 13 51 14 45 17 C 49 13 54 11 60 10 C 69 9 79 6 88 2 C 89 41 29 40 27 81 Z" fill="#df3c96" id="id-female-25_13_slick_swirl-4">
</path>
</g>
</g>
<defs>
</defs>
<g transform="translate(560,312)" id="id-female-27_hat_pizza_cap-0">
<path d="M 200 99 L 191 148 L 178 142 L 162 133 L 137 120 L 104 102 L 11 149 C 11 149 8 146 2 142 C 1 129 0 122 0 122 C 0 122 1 115 2 99 C 8 71 13 52 19 42 C 19 41 19 41 19 40 C 19 40 46 17 87 7 C 87 7 88 7 88 7 C 88 7 87 2 90 2 C 93 2 105 0 105 0 C 105 1 108 5 108 5 L 108 5 C 109 6 141 13 151 18 C 153 19 156 21 158 22 C 167 27 176 34 179 37 C 180 38 181 41 183 45 C 186 52 189 62 191 66 C 192 70 195 81 200 99 Z" fill="#253d8b" id="id-female-27_hat_pizza_cap-1">
</path>
<path d="M 200 121 C 199 125 199 132 198 142 L 191 148 L 178 142 L 162 133 C 160 98 159 44 158 22 C 167 27 176 34 179 37 C 180 38 181 41 183 45 C 186 52 189 62 191 66 C 192 72 200 106 200 121 Z" fill="#1751a4" id="id-female-27_hat_pizza_cap-1">
</path>
<path d="M 178 130 L 178 142 L 137 120 L 121 108 L 101 94 L 16 125 L 16 116 L 15 105 L 26 80 C 26 80 26 80 26 80 L 17 67 L 19 52 L 35 35 L 44 25 C 44 25 26 37 25 38 C 24 38 20 41 19 42 C 19 41 19 41 19 40 C 19 40 46 17 87 7 L 92 7 L 93 5 L 106 4 L 108 5 L 108 5 C 109 6 141 13 151 18 C 162 24 176 33 179 37 C 180 38 181 41 183 45 L 182 47 L 173 34 L 163 28 C 168 32 178 48 181 52 C 181 53 181 53 181 53 C 181 53 183 82 183 97 C 184 112 177 127 177 127 L 178 130 Z" fill="#456cb4" id="id-female-27_hat_pizza_cap-1">
</path>
<path d="M 13 131 L 2 142 C 1 133 0 122 0 122 C 0 122 3 98 5 87 C 7 96 11 116 11 116 L 13 131 Z" fill="#3058a8" id="id-female-27_hat_pizza_cap-1">
</path>
<path d="M 146 103 C 146 103 136 105 121 108 L 101 94 L 16 125 L 16 116 L 15 105 L 26 80 C 26 80 26 80 26 80 L 17 67 L 19 52 L 35 35 C 80 14 129 29 129 29 C 136 41 146 103 146 103 Z" fill="#3861ad" id="id-female-27_hat_pizza_cap-1">
</path>
<path d="M 26 80 L 25 90 L 16 116 L 15 105 L 26 80 C 26 80 26 80 26 80 Z" fill="#3560ac" id="id-female-27_hat_pizza_cap-1">
</path>
<path d="M 177 127 L 178 130 L 157 109 L 181 52 C 181 53 181 53 181 53 C 181 53 183 82 183 97 C 184 112 177 127 177 127 Z" fill="#3c65af" id="id-female-27_hat_pizza_cap-1">
</path>
<polygon points="140 28 149 29 157 34 148 37" fill="#1e53a5" id="id-female-27_hat_pizza_cap-1">
</polygon>
<path d="M 56 26 L 67 24 C 67 24 60 30 59 34 L 50 33 C 50 33 54 27 56 26 Z" fill="#253d8b" id="id-female-27_hat_pizza_cap-1">
</path>
<path d="M 91 7 L 93 5 L 94 90 L 92 90 C 92 90 92 13 91 7 Z" fill="#1f53a5" id="id-female-27_hat_pizza_cap-1">
</path>
<polygon points="106 4 108 5 112 91 110 90" fill="#1f53a5" id="id-female-27_hat_pizza_cap-1">
</polygon>
<path d="M 102 78 C 102 78 102 78 102 78 C 101 78 100 77 100 77 C 98 75 97 72 97 72 C 97 72 97 72 97 72 C 97 71 97 71 97 71 C 98 71 100 71 101 68 C 101 67 101 65 100 64 C 99 63 98 63 97 63 C 94 63 94 65 94 65 C 94 65 94 65 93 65 C 93 65 93 65 92 65 L 88 58 C 88 58 88 57 88 57 C 89 57 89 57 90 57 L 93 63 C 94 62 95 61 97 61 C 99 61 101 62 102 63 C 103 65 103 67 103 69 C 102 71 100 72 99 72 C 99 73 100 75 101 76 C 101 76 101 76 102 76 C 102 76 102 76 102 76 C 102 76 103 75 103 75 L 111 62 C 110 62 110 62 109 61 C 107 60 105 58 106 54 C 106 53 107 52 109 51 C 110 50 112 50 113 50 C 115 51 116 52 116 53 L 120 47 C 113 41 105 39 96 40 C 90 42 86 45 86 45 C 86 45 85 45 85 45 C 84 45 82 46 80 43 C 78 41 79 38 80 37 C 80 37 80 37 80 37 C 93 28 105 29 113 31 C 121 34 126 38 126 39 C 127 39 127 39 126 40 C 126 40 125 40 125 40 C 125 40 120 35 112 33 C 102 30 91 31 81 38 C 81 39 80 41 81 42 C 82 44 84 44 85 43 C 85 43 90 40 96 39 C 102 37 112 37 122 46 C 122 46 122 46 122 47 L 117 55 C 117 56 117 56 116 56 C 116 56 116 56 115 55 C 115 55 115 53 113 52 C 112 52 111 52 110 52 C 109 53 108 54 108 55 C 107 57 108 59 110 60 C 111 61 113 60 113 60 C 113 59 113 59 114 60 C 114 60 114 60 114 61 L 104 76 C 104 76 104 76 104 76 C 104 76 103 78 102 78 Z" fill="#ffffff" id="id-female-27_hat_pizza_cap-1">
</path>
<path d="M 95 56 C 91 56 89 53 89 50 C 89 46 91 44 95 44 C 98 44 101 46 101 50 C 101 53 98 56 95 56 Z M 95 46 C 92 46 91 47 91 50 C 91 52 92 54 95 54 C 97 54 99 52 99 50 C 99 47 97 46 95 46 Z" fill="#ffffff" id="id-female-27_hat_pizza_cap-13" fill-rule="nonzero">
</path>
<polygon points="15 180 13 142 114 116 188 146 151 162 109 163 102 155 89 154 79 165 27 172" fill="#4a2c38" opacity="0.43" id="id-female-27_hat_pizza_cap-1">
</polygon>
<path d="M 195 143 L 192 149 C 192 149 148 134 133 129 C 119 124 90 127 79 128 C 68 130 31 144 31 144 L 11 149 L 4 145 L 4 144 L 15 126 C 15 126 20 119 44 106 C 67 93 93 89 99 88 C 105 88 126 91 126 91 C 138 92 173 114 173 114 L 184 125 L 188 131 L 195 143 L 195 143 Z" fill="#771214" id="id-female-27_hat_pizza_cap-1">
</path>
<path d="M 195 143 L 174 136 L 130 121 L 105 118 C 105 118 85 118 65 124 C 45 130 31 134 31 134 L 14 140 C 14 140 7 143 4 145 L 4 144 L 15 126 C 15 126 20 119 44 106 C 67 93 93 89 99 88 C 105 88 126 91 126 91 C 138 92 173 114 173 114 L 184 125 L 188 131 L 195 143 Z" fill="#c72026" id="id-female-27_hat_pizza_cap-1">
</path>
</g>
<defs>
</defs>

</svg>
