<?xml version="1.0" encoding="UTF-8"?>
<svg xmlns="http://www.w3.org/2000/svg" xmlns:xlink="http://www.w3.org/1999/xlink" width="1320px" height="1760px" viewBox="0 0 1320 1760" version="1.1">
<defs>




</defs>

<defs>
</defs>
<g transform="translate(471,487)" id="id-male-4_cropped_hoodie_back-0">
<path d="M 35 43 C 96 14 127 0 127 0 L 268 2 L 350 40 L 325 79 L 188 186 L 32 51 C 34 46 35 43 35 43 Z" fill="#56837d" id="id-male-4_cropped_hoodie_back-1">
</path>
<path d="M 40 46 C 72 31 87 23 87 23 C 115 10 129 4 129 4 C 218 7 262 9 262 9 C 318 31 346 43 346 43 L 323 78 L 188 186 L 40 46 Z" fill="#527bbb" id="id-male-4_cropped_hoodie_back-2">
</path>
<path d="M 1 464 C 29 434 59 416 91 411 C 154 401 296 417 296 417 C 352 440 380 451 380 451 L 380 466 C 308 477 257 483 226 484 C 196 486 129 482 24 475 L 1 464 Z" fill="#0c2f21" id="id-male-4_cropped_hoodie_back-2">
</path>
<path d="M 40 46 C 60 34 87 23 87 23 C 90 44 91 54 91 54 C 76 71 68 80 68 80 C 112 64 134 56 134 56 C 133 70 133 77 133 77 C 119 88 112 93 112 93 L 125 133 L 40 56 C 37 53 37 50 40 46 Z" fill="#80a5e4" id="id-male-4_cropped_hoodie_back-4">
</path>
<path d="M 261 60 L 319 78 L 342 43 L 350 40 C 332 66 323 79 323 79 C 280 118 259 138 259 138 C 266 95 269 74 269 74 L 262 70 C 262 63 261 60 261 60 Z" fill="#80a5e4" id="id-male-4_cropped_hoodie_back-5">
</path>
</g>
<defs>
</defs>
<g transform="translate(491,419)" id="id-male-5_33_hair_back-0">
<path d="M 21 199 C 21 199 0 180 0 151 C 0 139 4 127 16 110 C 54 55 56 60 30 0 L 59 9 L 254 48 L 292 37 C 305 75 312 104 314 123 C 314 126 315 129 317 133 C 325 210 30 191 21 199 Z" fill="#4f4148">
</path>
<path d="M 280 81 L 278 127 L 275 115 L 256 131 C 256 131 266 90 280 81 Z" fill="#351b28" id="id-male-5_33_hair_back-1">
</path>
<path d="M 98 96 C 98 96 99 126 93 135 C 90 139 84 148 78 151 C 72 153 67 148 69 142 C 72 131 98 96 98 96 Z" fill="#351b28" id="id-male-5_33_hair_back-1">
</path>
<path d="M 66 114 C 66 114 66 85 66 84 L 28 136 L 64 75 C 63 77 0 128 0 149 C 2 156 16 182 28 183 L 44 146 L 42 164 L 60 132 C 58 135 69 98 66 114 Z" fill="#847989" id="id-male-5_33_hair_back-3" fill-rule="nonzero">
</path>
<path d="M 77 39 C 77 39 69 70 64 75 C 70 58 72 35 69 17 C 69 17 82 31 77 39 Z" fill="#351b28" id="id-male-5_33_hair_back-1">
</path>
<path d="M 230 27 C 244 24 248 26 247 35 C 247 45 242 62 237 70 C 232 76 225 78 225 79 C 225 79 223 35 230 27 Z" fill="#351b28" id="id-male-5_33_hair_back-1">
</path>
</g>
<defs>
<linearGradient x1="50%" y1="6%" x2="50%" y2="100%" id="id-male-6.6_base_2-0">
<stop stop-color="#783f2f" offset="0%">
</stop>
<stop stop-color="#97573c" offset="8%">
</stop>
<stop stop-color="#7a3f2d" offset="20%">
</stop>
<stop stop-color="#884b31" offset="34%">
</stop>
<stop stop-color="#6b2923" offset="71%">
</stop>
<stop stop-color="#602521" offset="100%">
</stop>
</linearGradient>
<linearGradient x1="50%" y1="-10%" x2="50%" y2="84%" id="id-male-6.6_base_2-1">
<stop stop-color="#824631" offset="0%">
</stop>
<stop stop-color="#9d5940" offset="49%">
</stop>
<stop stop-color="#91533a" offset="100%">
</stop>
</linearGradient>
<linearGradient x1="57%" y1="50%" x2="47%" y2="56%" id="id-male-6.6_base_2-2">
<stop stop-color="#551b1b" offset="0%">
</stop>
<stop stop-color="#612520" offset="100%">
</stop>
</linearGradient>
<linearGradient x1="45%" y1="35%" x2="55%" y2="47%" id="id-male-6.6_base_2-3">
<stop stop-color="#81452f" offset="0%">
</stop>
<stop stop-color="#5d221e" offset="100%">
</stop>
</linearGradient>
<linearGradient x1="54%" y1="31%" x2="47%" y2="81%" id="id-male-6.6_base_2-4">
<stop stop-color="#80402e" offset="0%">
</stop>
<stop stop-color="#793e2d" offset="20%">
</stop>
<stop stop-color="#77382c" offset="71%">
</stop>
<stop stop-color="#6d2f27" offset="81%">
</stop>
<stop stop-color="#5b201c" offset="100%">
</stop>
</linearGradient>
<linearGradient x1="43%" y1="38%" x2="54%" y2="44%" id="id-male-6.6_base_2-5">
<stop stop-color="#8f4f38" offset="0%">
</stop>
<stop stop-color="#6d2c24" offset="100%">
</stop>
</linearGradient>
<linearGradient x1="46%" y1="8%" x2="58%" y2="82%" id="id-male-6.6_base_2-6">
<stop stop-color="#9b5b3f" offset="0%" stop-opacity="0.88">
</stop>
<stop stop-color="#6b2a22" offset="100%">
</stop>
</linearGradient>
<linearGradient x1="50%" y1="41%" x2="49%" y2="66%" id="id-male-6.6_base_2-7">
<stop stop-color="#581b1b" offset="0%">
</stop>
<stop stop-color="#843428" offset="27%">
</stop>
<stop stop-color="#86422d" offset="100%">
</stop>
</linearGradient>
<linearGradient x1="63%" y1="4%" x2="25%" y2="77%" id="id-male-6.6_base_2-8">
<stop stop-color="#9f5f44" offset="0%">
</stop>
<stop stop-color="#b37459" offset="55%">
</stop>
<stop stop-color="#9c5d42" offset="100%">
</stop>
</linearGradient>
<linearGradient x1="50%" y1="23%" x2="41%" y2="77%" id="id-male-6.6_base_2-9">
<stop stop-color="#541214" offset="0%">
</stop>
<stop stop-color="#5d1b1c" offset="100%">
</stop>
</linearGradient>
<linearGradient x1="47%" y1="22%" x2="55%" y2="89%" id="id-male-6.6_base_2-10">
<stop stop-color="#703527" offset="0%">
</stop>
<stop stop-color="#a9624a" offset="100%">
</stop>
</linearGradient>
<linearGradient x1="86%" y1="87%" x2="11%" y2="66%" id="id-male-6.6_base_2-11">
<stop stop-color="#773d31" offset="0%">
</stop>
<stop stop-color="#672d25" offset="100%">
</stop>
</linearGradient>
<linearGradient x1="71%" y1="11%" x2="50%" y2="100%" id="id-male-6.6_base_2-12">
<stop stop-color="#81432f" offset="0%" stop-opacity="0">
</stop>
<stop stop-color="#783a28" offset="100%">
</stop>
</linearGradient>
<linearGradient x1="66%" y1="46%" x2="56%" y2="43%" id="id-male-6.6_base_2-13">
<stop stop-color="#672b26" offset="0%">
</stop>
<stop stop-color="#5d2221" offset="100%">
</stop>
</linearGradient>
<linearGradient x1="100%" y1="41%" x2="50%" y2="63%" id="id-male-6.6_base_2-14">
<stop stop-color="#271321" offset="0%">
</stop>
<stop stop-color="#43151b" offset="100%">
</stop>
</linearGradient>
<linearGradient x1="69%" y1="20%" x2="50%" y2="100%" id="id-male-6.6_base_2-15">
<stop stop-color="#672d26" offset="0%">
</stop>
<stop stop-color="#75382c" offset="100%">
</stop>
</linearGradient>
<linearGradient x1="36%" y1="20%" x2="57%" y2="81%" id="id-male-6.6_base_2-16">
<stop stop-color="#b16549" offset="0%">
</stop>
<stop stop-color="#8a4934" offset="100%">
</stop>
</linearGradient>
<linearGradient x1="26%" y1="83%" x2="92%" y2="50%" id="id-male-6.6_base_2-17">
<stop stop-color="#874834" offset="0%">
</stop>
<stop stop-color="#cf836c" offset="100%" stop-opacity="0.095">
</stop>
</linearGradient>
<linearGradient x1="17%" y1="56%" x2="85%" y2="45%" id="id-male-6.6_base_2-18">
<stop stop-color="#b16549" offset="0%" stop-opacity="0">
</stop>
<stop stop-color="#ca8266" offset="52%">
</stop>
<stop stop-color="#a55d43" offset="100%">
</stop>
</linearGradient>
<linearGradient x1="17%" y1="24%" x2="74%" y2="87%" id="id-male-6.6_base_2-19">
<stop stop-color="#c0765d" offset="0%">
</stop>
<stop stop-color="#7a3c2d" offset="100%">
</stop>
</linearGradient>
<linearGradient x1="26%" y1="42%" x2="80%" y2="75%" id="id-male-6.6_base_2-20">
<stop stop-color="#bd7964" offset="0%">
</stop>
<stop stop-color="#965340" offset="100%" stop-opacity="0">
</stop>
</linearGradient>
<linearGradient x1="29%" y1="56%" x2="77%" y2="50%" id="id-male-6.6_base_2-21">
<stop stop-color="#cc876f" offset="0%">
</stop>
<stop stop-color="#b97055" offset="100%" stop-opacity="0">
</stop>
</linearGradient>
<linearGradient x1="74%" y1="24%" x2="34%" y2="74%" id="id-male-6.6_base_2-22">
<stop stop-color="#7e4434" offset="0%">
</stop>
<stop stop-color="#a85a3b" offset="100%">
</stop>
</linearGradient>
<linearGradient x1="66%" y1="100%" x2="40%" y2="0%" id="id-male-6.6_base_2-23">
<stop stop-color="#874837" offset="0%">
</stop>
<stop stop-color="#b56f57" offset="46%">
</stop>
<stop stop-color="#945437" offset="100%">
</stop>
</linearGradient>
<linearGradient x1="52%" y1="13%" x2="59%" y2="75%" id="id-male-6.6_base_2-24">
<stop stop-color="#763628" offset="0%">
</stop>
<stop stop-color="#813f2f" offset="100%">
</stop>
</linearGradient>
<linearGradient x1="28%" y1="76%" x2="73%" y2="20%" id="id-male-6.6_base_2-25">
<stop stop-color="#934d3c" offset="0%">
</stop>
<stop stop-color="#753528" offset="67%">
</stop>
<stop stop-color="#934d3c" offset="100%">
</stop>
</linearGradient>
<linearGradient x1="66%" y1="59%" x2="24%" y2="66%" id="id-male-6.6_base_2-26">
<stop stop-color="#612115" offset="0%">
</stop>
<stop stop-color="#93533a" offset="100%">
</stop>
</linearGradient>
<linearGradient x1="41%" y1="11%" x2="61%" y2="81%" id="id-male-6.6_base_2-27">
<stop stop-color="#a06350" offset="0%">
</stop>
<stop stop-color="#713127" offset="100%">
</stop>
</linearGradient>
<linearGradient x1="19%" y1="58%" x2="66%" y2="43%" id="id-male-6.6_base_2-28">
<stop stop-color="#aa6b53" offset="0%">
</stop>
<stop stop-color="#93523b" offset="100%">
</stop>
</linearGradient>
<linearGradient x1="73%" y1="50%" x2="30%" y2="53%" id="id-male-6.6_base_2-29">
<stop stop-color="#9b5f42" offset="0%">
</stop>
<stop stop-color="#b67b61" offset="100%">
</stop>
</linearGradient>
<linearGradient x1="31%" y1="0%" x2="50%" y2="100%" id="id-male-6.6_base_2-30">
<stop stop-color="#b27562" offset="0%">
</stop>
<stop stop-color="#9b5c4b" offset="100%">
</stop>
</linearGradient>
<linearGradient x1="29%" y1="43%" x2="65%" y2="100%" id="id-male-6.6_base_2-31">
<stop stop-color="#a86b54" offset="0%">
</stop>
<stop stop-color="#814030" offset="100%">
</stop>
</linearGradient>
<linearGradient x1="13%" y1="78%" x2="84%" y2="50%" id="id-male-6.6_base_2-32">
<stop stop-color="#7e3e2e" offset="0%">
</stop>
<stop stop-color="#74372c" offset="100%">
</stop>
</linearGradient>
<linearGradient x1="50%" y1="0%" x2="36%" y2="100%" id="id-male-6.6_base_2-33">
<stop stop-color="#ab6c57" offset="0%">
</stop>
<stop stop-color="#a56750" offset="100%">
</stop>
</linearGradient>
<linearGradient x1="50%" y1="28%" x2="64%" y2="55%" id="id-male-6.6_base_2-34">
<stop stop-color="#a3664e" offset="0%">
</stop>
<stop stop-color="#98593d" offset="100%">
</stop>
</linearGradient>
<linearGradient x1="40%" y1="55%" x2="62%" y2="71%" id="id-male-6.6_base_2-35">
<stop stop-color="#96573e" offset="0%">
</stop>
<stop stop-color="#713528" offset="100%">
</stop>
</linearGradient>
<linearGradient x1="9%" y1="37%" x2="88%" y2="55%" id="id-male-6.6_base_2-36">
<stop stop-color="#723829" offset="0%">
</stop>
<stop stop-color="#612824" offset="100%">
</stop>
</linearGradient>
<linearGradient x1="62%" y1="19%" x2="50%" y2="100%" id="id-male-6.6_base_2-37">
<stop stop-color="#914d34" offset="0%">
</stop>
<stop stop-color="#5f2420" offset="100%">
</stop>
</linearGradient>
<linearGradient x1="45%" y1="18%" x2="51%" y2="67%" id="id-male-6.6_base_2-38">
<stop stop-color="#b67760" offset="0%">
</stop>
<stop stop-color="#a95c3f" offset="100%">
</stop>
</linearGradient>
<linearGradient x1="50%" y1="0%" x2="50%" y2="100%" id="id-male-6.6_base_2-39">
<stop stop-color="#ac6d55" offset="0%">
</stop>
<stop stop-color="#9f5136" offset="100%">
</stop>
</linearGradient>
<linearGradient x1="45%" y1="50%" x2="58%" y2="50%" id="id-male-6.6_base_2-40">
<stop stop-color="#733829" offset="0%">
</stop>
<stop stop-color="#8a4e3c" offset="100%">
</stop>
</linearGradient>
<linearGradient x1="33%" y1="74%" x2="77%" y2="42%" id="id-male-6.6_base_2-41">
<stop stop-color="#985c46" offset="0%">
</stop>
<stop stop-color="#834732" offset="100%">
</stop>
</linearGradient>
<linearGradient x1="63%" y1="59%" x2="38%" y2="59%" id="id-male-6.6_base_2-42">
<stop stop-color="#7e4231" offset="0%">
</stop>
<stop stop-color="#905239" offset="100%">
</stop>
</linearGradient>
<linearGradient x1="50%" y1="0%" x2="50%" y2="100%" id="id-male-6.6_base_2-43">
<stop stop-color="#925f4e" offset="0%">
</stop>
<stop stop-color="#6e2f26" offset="100%">
</stop>
</linearGradient>
<linearGradient x1="47%" y1="47%" x2="53%" y2="50%" id="id-male-6.6_base_2-44">
<stop stop-color="#956855" offset="0%">
</stop>
<stop stop-color="#7c3c32" offset="100%">
</stop>
</linearGradient>
<linearGradient x1="50%" y1="0%" x2="50%" y2="100%" id="id-male-6.6_base_2-45">
<stop stop-color="#753229" offset="0%">
</stop>
<stop stop-color="#833e34" offset="100%">
</stop>
</linearGradient>
<linearGradient x1="50%" y1="0%" x2="50%" y2="100%" id="id-male-6.6_base_2-46">
<stop stop-color="#925644" offset="0%">
</stop>
<stop stop-color="#865648" offset="100%">
</stop>
</linearGradient>
<linearGradient x1="0%" y1="55%" x2="100%" y2="55%" id="id-male-6.6_base_2-47">
<stop stop-color="#804a40" offset="0%">
</stop>
<stop stop-color="#692e2c" offset="100%">
</stop>
</linearGradient>
<linearGradient x1="50%" y1="0%" x2="50%" y2="100%" id="id-male-6.6_base_2-48">
<stop stop-color="#916451" offset="0%">
</stop>
<stop stop-color="#712e26" offset="100%">
</stop>
</linearGradient>
<linearGradient x1="49%" y1="20%" x2="52%" y2="96%" id="id-male-6.6_base_2-49">
<stop stop-color="#773530" offset="0%">
</stop>
<stop stop-color="#6f2c24" offset="100%">
</stop>
</linearGradient>
<linearGradient x1="33%" y1="47%" x2="59%" y2="56%" id="id-male-6.6_base_2-50">
<stop stop-color="#5f2419" offset="0%">
</stop>
<stop stop-color="#4f161a" offset="100%">
</stop>
</linearGradient>
</defs>
<g transform="translate(303,473)" id="id-male-6.6_base_2-51">
<polygon points="174 662 140 824 138 906 147 1082 171 1154 176 1211 174 1230 176 1284 287 1284 284 1265 308 1195 306 1124 345 952 343 912 354 879 363 881 371 877 384 904 391 970 434 1079 458 1202 475 1252 475 1284 596 1284 601 1225 592 1146 609 1103 613 997 596 842 545 671 540 640 529 606 532 569 510 498 522 403 540 360 540 348 563 464 576 498 586 574 637 704 646 760 646 778 626 822 625 853 632 879 630 901 633 920 637 931 648 931 658 920 656 877 660 867 670 874 673 899 677 903 667 923 645 934 643 945 666 939 665 948 643 960 640 982 658 971 674 969 691 945 701 933 705 926 707 923 714 892 719 871 704 832 697 786 704 768 693 725 693 521 653 425 630 282 626 203 613 175 568 156 548 141 530 139 479 114 422 73 416 42 415 1 285 0 284 73 279 83 242 114 196 137 171 139 156 156 108 175 92 228 92 287 68 431 30 516 24 602 28 725 17 764 22 782 1 874 18 932 49 968 60 970 83 982 83 965 79 960 58 949 56 941 79 948 79 936 66 929 54 923 45 906 51 875 62 866 66 877 63 922 75 927 86 925 93 899 90 877 96 856 96 824 75 778 77 738 108 637 140 562 143 495 160 458 181 358 200 403 203 461 212 504 189 564 191 608" fill="url(#id-male-6.6_base_2-0)" id="id-male-6.6_base_2-52">
</polygon>
<polygon points="92 287 68 431 30 516 24 602 73 688 118 614 98 452 110 469 124 336 102 372 110 294 89 309 110 285" fill="url(#id-male-6.6_base_2-1)" id="id-male-6.6_base_2-52">
</polygon>
<polygon points="384 906 391 972 434 1081 458 1204 475 1254 475 1287 596 1287 601 1226 592 1148 609 1105 613 999 603 904 585 908 585 846 535 683 457 705 382 878" fill="url(#id-male-6.6_base_2-2)" id="id-male-6.6_base_2-52">
</polygon>
<polygon points="138 907 147 1083 172 1156 176 1212 174 1232 176 1286 176 1287 287 1287 284 1266 309 1197 306 1126 345 954 344 923 294 814 264 724 247 711" fill="url(#id-male-6.6_base_2-3)" id="id-male-6.6_base_2-52">
</polygon>
<polygon points="545 673 540 641 529 608 532 571 510 500 522 405 540 361 540 350 563 465 576 500 602 540 660 491 688 529 653 427 630 283 626 205 613 177 568 157 548 142 531 141 479 116 422 75 416 44 415 3 360 3 360 715 463 724" fill="url(#id-male-6.6_base_2-4)" id="id-male-6.6_base_2-52">
</polygon>
<polygon points="83 984 60 972 49 970 22 932 20 903 8 879 1 874 12 824 39 786 39 814 57 786 78 800 91 822 83 879 69 882 64 855 51 877 46 908 48 930 37 930 50 938 53 954 49 960 57 956 83 973" fill="#974e34" id="id-male-6.6_base_2-57">
</polygon>
<polygon points="66 855 69 882 64 855 51 877 46 908 43 870 58 825" fill="url(#id-male-6.6_base_2-5)" id="id-male-6.6_base_2-57">
</polygon>
<polygon points="83 879 69 882 70 868" fill="#a16148" id="id-male-6.6_base_2-57">
</polygon>
<polygon points="482 376 513 349 558 291 522 368" fill="#714a47" id="id-male-6.6_base_2-60">
</polygon>
<polygon points="313 697 261 560 246 448 259 424 356 408 362 366 318 404 285 409 268 378 314 343 394 351 431 378 420 404 369 399 371 404 450 421 467 441 449 510 467 547 407 697 358 717" fill="url(#id-male-6.6_base_2-6)" id="id-male-6.6_base_2-61">
</polygon>
<polygon points="410 90 430 82 423 76 417 45 417 7 287 9 287 48 283 76 278 86 245 114 195 139 366 139 391 70 410 26" fill="url(#id-male-6.6_base_2-7)" id="id-male-6.6_base_2-62">
</polygon>
<polygon points="182 180 133 231 98 289 98 231 114 182 166 159" fill="url(#id-male-6.6_base_2-8)" id="id-male-6.6_base_2-63">
</polygon>
<polygon points="347 107 384 55 410 31 414 23 300 31" fill="url(#id-male-6.6_base_2-9)" id="id-male-6.6_base_2-64">
</polygon>
<polygon points="287 93 296 32 323 129" fill="url(#id-male-6.6_base_2-10)" id="id-male-6.6_base_2-65">
</polygon>
<polygon points="336 139 314 151 271 146 224 139" fill="#c0775d" id="id-male-6.6_base_2-66">
</polygon>
<polygon points="410 84 410 136 462 129" fill="url(#id-male-6.6_base_2-11)" id="id-male-6.6_base_2-67">
</polygon>
<polygon points="173 246 167 286 191 351 263 386 329 330 360 330 360 152 349 139 336 139 310 152" fill="url(#id-male-6.6_base_2-12)" id="id-male-6.6_base_2-68">
</polygon>
<polygon points="464 159 516 190 500 159" fill="url(#id-male-6.6_base_2-13)" id="id-male-6.6_base_2-69">
</polygon>
<polygon points="302 31 347 72 383 62 410 37 417 28 417 13" fill="url(#id-male-6.6_base_2-14)" id="id-male-6.6_base_2-70">
</polygon>
<polygon points="264 151 191 202 220 151" fill="#814431" id="id-male-6.6_base_2-71">
</polygon>
<polygon points="154 206 170 170 123 188" fill="#ce826d" id="id-male-6.6_base_2-72">
</polygon>
<polygon points="359 285 345 299 323 318 305 354 359 345 354 305" fill="url(#id-male-6.6_base_2-15)" id="id-male-6.6_base_2-73">
</polygon>
<polygon points="261 361 265 387 204 371 192 347" fill="#6b3127" id="id-male-6.6_base_2-74">
</polygon>
<polygon points="199 362 181 359 167 284" fill="#4b131a" id="id-male-6.6_base_2-75">
</polygon>
<polygon points="477 341 477 335 488 326 496 325 509 338 497 348 485 354" fill="#5d2221" id="id-male-6.6_base_2-76">
</polygon>
<polygon points="314 151 343 220 317 293 238 351 209 318 172 251 186 205 271 146" fill="url(#id-male-6.6_base_2-16)" id="id-male-6.6_base_2-77">
</polygon>
<polygon points="314 151 330 238 209 318 172 251 186 205 271 146" fill="url(#id-male-6.6_base_2-17)" id="id-male-6.6_base_2-77">
</polygon>
<polygon points="314 151 351 205 221 227 186 205 271 146" fill="url(#id-male-6.6_base_2-18)" opacity="0.369" id="id-male-6.6_base_2-77">
</polygon>
<polygon points="212 335 223 322 242 327 244 332 236 353 214 349" fill="#642b26" id="id-male-6.6_base_2-80">
</polygon>
<polygon points="224 339 227 342 227 345 223 349 236 350 242 333 230 338 227 335" fill="#70434f" id="id-male-6.6_base_2-81">
</polygon>
<polygon points="489 343 491 347 486 351 479 338 490 327 495 327 494 336" fill="#6f373c" id="id-male-6.6_base_2-82">
</polygon>
<polygon points="486 339 489 343 494 337" fill="#92523e" id="id-male-6.6_base_2-83">
</polygon>
<polygon points="360 162 360 291 406 325 455 347 529 267 464 182 416 166" fill="url(#id-male-6.6_base_2-19)" id="id-male-6.6_base_2-84">
</polygon>
<polygon points="360 178 360 281 391 302 391 249 489 270 462 189 416 166" fill="url(#id-male-6.6_base_2-20)" id="id-male-6.6_base_2-84">
</polygon>
<polygon points="360 178 360 219 472 220 462 189 416 166 371 163" fill="url(#id-male-6.6_base_2-21)" id="id-male-6.6_base_2-84">
</polygon>
<polygon points="358 178 373 168 440 156 414 137 378 158 412 80 396 60 358 146" fill="url(#id-male-6.6_base_2-22)" id="id-male-6.6_base_2-87">
</polygon>
<polygon points="347 140 358 152 373 129 400 48 369 86 365 130" fill="#b66b53" id="id-male-6.6_base_2-88">
</polygon>
<polygon points="591 281 602 226 559 159 514 159 524 138 499 156 571 263" fill="url(#id-male-6.6_base_2-23)" id="id-male-6.6_base_2-89">
</polygon>
<polygon points="609 298 626 332 630 285 627 227 614 207 617 251" fill="#695b75" id="id-male-6.6_base_2-90">
</polygon>
<polygon points="555 159 567 157 613 177 614 192 580 175 604 207 602 226" fill="#8a4e37" id="id-male-6.6_base_2-91">
</polygon>
<polygon points="641 823 649 826 697 896 714 873 682 781" fill="url(#id-male-6.6_base_2-24)" id="id-male-6.6_base_2-92">
</polygon>
<polygon points="626 840 701 762 689 738 679 784 648 776 626 822" fill="url(#id-male-6.6_base_2-25)" id="id-male-6.6_base_2-92">
</polygon>
<polygon points="649 862 649 845 661 825 661 870 655 878 658 922 652 929 638 929 632 914 632 893 632 877 645 888" fill="#602222" id="id-male-6.6_base_2-94">
</polygon>
<polygon points="554 375 578 333 608 451 594 508 569 462" fill="#994b3b" id="id-male-6.6_base_2-95">
</polygon>
<polygon points="623 326 643 425 633 431 693 523 653 427 637 326 626 315" fill="#583847" id="id-male-6.6_base_2-96">
</polygon>
<polygon points="628 274 639 339 623 314" fill="#561b1f" id="id-male-6.6_base_2-97">
</polygon>
<polygon points="693 523 695 567 685 525 618 416 633 431" fill="#4b1114" id="id-male-6.6_base_2-98">
</polygon>
<polygon points="641 463 599 539 602 571 635 655 646 703 650 754 658 640 661 491" fill="#914f3a" id="id-male-6.6_base_2-99">
</polygon>
<polygon points="610 531 648 646 652 546 638 479" fill="#a8614d" id="id-male-6.6_base_2-99">
</polygon>
<polygon points="693 748 677 730 677 700 660 491 685 525 692 552 684 727" fill="#74332a" id="id-male-6.6_base_2-101">
</polygon>
<polygon points="692 746 704 768 693 727 695 567 692 551 684 727" fill="#5c3c47" id="id-male-6.6_base_2-102">
</polygon>
<polygon points="260 559 310 683 356 716 264 713 238 685 196 582" fill="url(#id-male-6.6_base_2-26)" id="id-male-6.6_base_2-103">
</polygon>
<polygon points="638 931 637 919 639 914 654 914 654 922 652 929 648 931 644 933" fill="#7c4139" id="id-male-6.6_base_2-104">
</polygon>
<polygon points="638 861 638 882 642 890 654 886 649 861" fill="#79372b" id="id-male-6.6_base_2-105">
</polygon>
<polygon points="691 871 694 912 689 936 669 956 672 965 696 924 696 909 705 877" fill="#934d3c" id="id-male-6.6_base_2-106">
</polygon>
<polygon points="704 768 685 788 694 837 712 873 703 908 701 933 707 925 719 873 704 834 697 788" fill="#591f1c" id="id-male-6.6_base_2-107">
</polygon>
<polygon points="667 939 643 946 645 934 658 928 667 922 677 903 673 899 670 874 661 870 661 854 671 867 681 873 681 902 677 920" fill="#431105" id="id-male-6.6_base_2-108">
</polygon>
<polygon points="362 510 360 634 426 561 421 535" fill="url(#id-male-6.6_base_2-27)" opacity="0.626" id="id-male-6.6_base_2-109">
</polygon>
<polygon points="320 403 289 399 268 380 314 343 361 348 362 372" fill="url(#id-male-6.6_base_2-28)" id="id-male-6.6_base_2-110">
</polygon>
<polygon points="172 141 169 151 181 151 205 139 196 138" fill="url(#id-male-6.6_base_2-29)" id="id-male-6.6_base_2-111">
</polygon>
<polygon points="359 308 362 360 383 334" fill="#bb7863" opacity="0.625" id="id-male-6.6_base_2-112">
</polygon>
<polygon points="361 546 361 584 388 551 374 540" fill="url(#id-male-6.6_base_2-30)" opacity="0.626" id="id-male-6.6_base_2-113">
</polygon>
<polygon points="347 542 361 547 374 540 361 534" fill="#581c1c" id="id-male-6.6_base_2-114">
</polygon>
<polygon points="325 545 278 503 259 561 308 579" fill="url(#id-male-6.6_base_2-31)" opacity="0.758" id="id-male-6.6_base_2-115">
</polygon>
<polygon points="389 499 460 467 450 510 404 520" fill="url(#id-male-6.6_base_2-32)" id="id-male-6.6_base_2-116">
</polygon>
<polygon points="364 491 361 403 420 428" fill="url(#id-male-6.6_base_2-33)" opacity="0.758" id="id-male-6.6_base_2-117">
</polygon>
<polygon points="263 446 333 446 323 469 279 492" fill="url(#id-male-6.6_base_2-34)" opacity="0.758" id="id-male-6.6_base_2-118">
</polygon>
<polygon points="260 425 280 496 260 561 237 528 213 443 227 425 244 447" fill="url(#id-male-6.6_base_2-35)" id="id-male-6.6_base_2-119">
</polygon>
<polygon points="412 343 445 374 466 383 500 351 448 354 416 339" fill="url(#id-male-6.6_base_2-36)" id="id-male-6.6_base_2-120">
</polygon>
<polygon points="165 252 164 278 128 284" fill="#642a24" id="id-male-6.6_base_2-121">
</polygon>
<polygon points="58 478 89 441 89 416 69 430 66 456" fill="url(#id-male-6.6_base_2-37)" id="id-male-6.6_base_2-122">
</polygon>
<polygon points="77 684 70 634 62 517 89 474 112 569" fill="url(#id-male-6.6_base_2-38)" id="id-male-6.6_base_2-123">
</polygon>
<polygon points="54 489 48 539 70 635 77 684 54 760 41 781 17 766 28 727 24 604 29 544" fill="url(#id-male-6.6_base_2-39)" id="id-male-6.6_base_2-124">
</polygon>
<polygon points="136 452 128 497 154 460 178 340 170 300" fill="#793b28" id="id-male-6.6_base_2-125">
</polygon>
<polygon points="181 359 160 460 143 497 142 514 124 532 109 514 108 490 128 497 154 460 178 340" fill="#5f2420" id="id-male-6.6_base_2-125">
</polygon>
<polygon points="39 747 28 772 39 788 44 772" fill="#ae7058" id="id-male-6.6_base_2-127">
</polygon>
<polygon points="360 379 343 413 362 444 378 417" fill="url(#id-male-6.6_base_2-40)" id="id-male-6.6_base_2-128">
</polygon>
<polygon points="196 581 260 561 230 519" fill="url(#id-male-6.6_base_2-41)" id="id-male-6.6_base_2-129">
</polygon>
<polygon points="75 929 67 925 69 909 78 905 86 912 84 928" fill="url(#id-male-6.6_base_2-42)" id="id-male-6.6_base_2-130">
</polygon>
<polygon points="20 903 7 880 21 851 28 871" fill="#a16148" id="id-male-6.6_base_2-131">
</polygon>
<polygon points="219 1123 204 1040 192 913 171 1090 183 1169 230 1208 262 1237 271 1213 235 1175 213 1157 273 1191 282 1169" fill="url(#id-male-6.6_base_2-43)" opacity="0.808" id="id-male-6.6_base_2-132">
</polygon>
<polygon points="183 1207 182 1155 214 1106 237 1166 231 1210" fill="#7d3b2d" id="id-male-6.6_base_2-133">
</polygon>
<polygon points="187 902 212 1137 227 1161 275 1187 300 1137 273 1009 300 918 270 791 212 836" fill="url(#id-male-6.6_base_2-44)" id="id-male-6.6_base_2-134">
</polygon>
<polygon points="288 1079 311 1040 312 942 295 903 265 1019 276 1188 302 1137" fill="url(#id-male-6.6_base_2-45)" id="id-male-6.6_base_2-135">
</polygon>
<polygon points="585 908 604 1008 608 1106 614 998 599 887" fill="#604050" id="id-male-6.6_base_2-136">
</polygon>
<polygon points="431 886 489 1140 536 1115 561 925 566 886 537 816 501 786" fill="url(#id-male-6.6_base_2-46)" opacity="0.792" id="id-male-6.6_base_2-137">
</polygon>
<polygon points="582 921 588 1011 585 1112 576 1162 545 1046 566 886" fill="url(#id-male-6.6_base_2-47)" id="id-male-6.6_base_2-138">
</polygon>
<polygon points="562 1247 519 1200 472 1112 495 931 506 931 595 1188 579 1244" fill="url(#id-male-6.6_base_2-48)" id="id-male-6.6_base_2-139">
</polygon>
<polygon points="532 1221 540 1263 537 1269 516 1287 510 1287 500 1263 513 1199 488 1226 462 1170 472 1101 428 1010 399 877 469 771 519 739 537 818 501 787 433 890 477 1078 534 1212" fill="url(#id-male-6.6_base_2-49)" id="id-male-6.6_base_2-140">
</polygon>
<polygon points="322 1058 284 852 258 721 267 733 371 879 363 883 354 881 343 914 345 954" fill="#6b2d24" id="id-male-6.6_base_2-141">
</polygon>
<polygon points="430 1068 425 875 536 705 454 704 380 865 384 906 392 972" fill="#571d1c" opacity="0.394" id="id-male-6.6_base_2-142">
</polygon>
<polygon points="175 1262 194 1287 207 1287 225 1226 214 1249 175 1221 174 1232" fill="#743428" id="id-male-6.6_base_2-143">
</polygon>
<polygon points="529 1227 554 1234 569 1169 549 1168" fill="#824c40" id="id-male-6.6_base_2-144">
</polygon>
<polygon points="547 678 545 672 540 641 529 608 532 571 510 500 522 405 540 361 540 350 548 389 543 330 558 289 517 369 529 369 517 411 500 442 510 465 488 531 508 525 522 585 450 724" fill="#520d17" id="id-male-6.6_base_2-52">
</polygon>
<polygon points="403 722 491 609 523 585 450 723" fill="#5f211f" id="id-male-6.6_base_2-146">
</polygon>
<polygon points="174 664 140 826 138 907 139 937 238 690 352 886 354 881 363 883 371 879 384 906 472 773 549 712 597 844 545 673 540 641 478 697 450 723 279 705 232 657 189 566 191 610" fill="url(#id-male-6.6_base_2-50)" id="id-male-6.6_base_2-52">
</polygon>
<polygon points="189 616 211 620 191 586 191 609" fill="#40120e" id="id-male-6.6_base_2-148">
</polygon>
<polygon points="139 836 226 709 167 697 139 826" fill="#4f1c18" id="id-male-6.6_base_2-149">
</polygon>
<polygon points="519 734 596 843 547 678" fill="#420f15" id="id-male-6.6_base_2-150">
</polygon>
<polygon points="416 778 448 726 315 744 330 762" fill="#6b2c26" opacity="0.52" id="id-male-6.6_base_2-52">
</polygon>
<polygon points="412 685 464 666 457 573" fill="#4f161a" id="id-male-6.6_base_2-152">
</polygon>
</g>
<defs>
<linearGradient x1="53%" y1="5%" x2="47%" y2="91%" id="id-male-6.8_face_2-0">
<stop stop-color="#8f4340" offset="0%">
</stop>
<stop stop-color="#702a2c" offset="82%">
</stop>
<stop stop-color="#974b47" offset="100%">
</stop>
</linearGradient>
<linearGradient x1="62%" y1="61%" x2="50%" y2="36%" id="id-male-6.8_face_2-1">
<stop stop-color="#822f31" offset="0%">
</stop>
<stop stop-color="#3c1b25" offset="100%">
</stop>
</linearGradient>
<linearGradient x1="50%" y1="13%" x2="57%" y2="81%" id="id-male-6.8_face_2-2">
<stop stop-color="#773435" offset="0%">
</stop>
<stop stop-color="#944945" offset="52%">
</stop>
<stop stop-color="#a57660" offset="100%">
</stop>
</linearGradient>
<linearGradient x1="50%" y1="0%" x2="54%" y2="88%" id="id-male-6.8_face_2-3">
<stop stop-color="#9f7d60" offset="0%">
</stop>
<stop stop-color="#8f4539" offset="100%">
</stop>
</linearGradient>
<linearGradient x1="36%" y1="75%" x2="36%" y2="18%" id="id-male-6.8_face_2-4">
<stop stop-color="#8b2e30" offset="0%">
</stop>
<stop stop-color="#662221" offset="100%">
</stop>
</linearGradient>
<linearGradient x1="30%" y1="63%" x2="66%" y2="53%" id="id-male-6.8_face_2-5">
<stop stop-color="#995c43" offset="0%">
</stop>
<stop stop-color="#a2705a" offset="11%">
</stop>
<stop stop-color="#ac8266" offset="35%">
</stop>
<stop stop-color="#955d4b" offset="72%">
</stop>
<stop stop-color="#844137" offset="100%">
</stop>
</linearGradient>
<linearGradient x1="12%" y1="55%" x2="89%" y2="49%" id="id-male-6.8_face_2-6">
<stop stop-color="#baa188" offset="0%">
</stop>
<stop stop-color="#b5a382" offset="69%">
</stop>
<stop stop-color="#8a4c3b" offset="100%">
</stop>
</linearGradient>
<linearGradient x1="77%" y1="45%" x2="9%" y2="48%" id="id-male-6.8_face_2-7">
<stop stop-color="#b6a383" offset="0%">
</stop>
<stop stop-color="#a3775d" offset="100%">
</stop>
</linearGradient>
<linearGradient x1="4%" y1="59%" x2="84%" y2="52%" id="id-male-6.8_face_2-8">
<stop stop-color="#925340" offset="0%">
</stop>
<stop stop-color="#a98468" offset="40%">
</stop>
<stop stop-color="#9d6e56" offset="75%">
</stop>
<stop stop-color="#7e352a" offset="100%">
</stop>
</linearGradient>
<linearGradient x1="0%" y1="62%" x2="75%" y2="50%" id="id-male-6.8_face_2-9">
<stop stop-color="#a07158" offset="0%">
</stop>
<stop stop-color="#c8b5a3" offset="100%">
</stop>
</linearGradient>
<linearGradient x1="91%" y1="50%" x2="43%" y2="50%" id="id-male-6.8_face_2-10">
<stop stop-color="#915b47" offset="0%">
</stop>
<stop stop-color="#c1ae9d" offset="100%">
</stop>
</linearGradient>
<linearGradient x1="73%" y1="44%" x2="36%" y2="73%" id="id-male-6.8_face_2-11">
<stop stop-color="#8b493b" offset="0%">
</stop>
<stop stop-color="#905c4e" offset="100%" stop-opacity="0.589">
</stop>
</linearGradient>
<linearGradient x1="22%" y1="31%" x2="35%" y2="66%" id="id-male-6.8_face_2-12">
<stop stop-color="#a96d54" offset="0%">
</stop>
<stop stop-color="#945949" offset="100%">
</stop>
</linearGradient>
<linearGradient x1="13%" y1="-5%" x2="103%" y2="59%" id="id-male-6.8_face_2-13">
<stop stop-color="#ac887c" offset="0%">
</stop>
<stop stop-color="#985d44" offset="31%">
</stop>
<stop stop-color="#7d3328" offset="79%">
</stop>
<stop stop-color="#712d2c" offset="100%">
</stop>
</linearGradient>
<linearGradient x1="47%" y1="96%" x2="25%" y2="14%" id="id-male-6.8_face_2-14">
<stop stop-color="#a56b59" offset="0%" stop-opacity="0.302">
</stop>
<stop stop-color="#874339" offset="100%">
</stop>
</linearGradient>
<linearGradient x1="24%" y1="56%" x2="50%" y2="45%" id="id-male-6.8_face_2-15">
<stop stop-color="#976043" offset="0%">
</stop>
<stop stop-color="#aa7758" offset="59%">
</stop>
<stop stop-color="#8f523b" offset="100%">
</stop>
</linearGradient>
<linearGradient x1="87%" y1="65%" x2="23%" y2="32%" id="id-male-6.8_face_2-16">
<stop stop-color="#9e6e50" offset="0%">
</stop>
<stop stop-color="#b89475" offset="100%">
</stop>
</linearGradient>
<linearGradient x1="13%" y1="29%" x2="91%" y2="29%" id="id-male-6.8_face_2-17">
<stop stop-color="#80372b" offset="0%">
</stop>
<stop stop-color="#833e2e" offset="38%">
</stop>
<stop stop-color="#8e4939" offset="51%">
</stop>
<stop stop-color="#894036" offset="70%">
</stop>
<stop stop-color="#8d413b" offset="100%">
</stop>
</linearGradient>
<linearGradient x1="9%" y1="45%" x2="41%" y2="63%" id="id-male-6.8_face_2-18">
<stop stop-color="#8e4836" offset="0%">
</stop>
<stop stop-color="#772e23" offset="100%">
</stop>
</linearGradient>
<linearGradient x1="50%" y1="19%" x2="50%" y2="70%" id="id-male-6.8_face_2-19">
<stop stop-color="#975b45" offset="0%">
</stop>
<stop stop-color="#aa836d" offset="100%">
</stop>
</linearGradient>
<linearGradient x1="9%" y1="54%" x2="38%" y2="50%" id="id-male-6.8_face_2-20">
<stop stop-color="#5e3931" offset="0%">
</stop>
<stop stop-color="#2f1b1d" offset="100%">
</stop>
</linearGradient>
<linearGradient x1="97%" y1="55%" x2="73%" y2="44%" id="id-male-6.8_face_2-21">
<stop stop-color="#6f3f30" offset="0%">
</stop>
<stop stop-color="#2e1a1c" offset="100%">
</stop>
</linearGradient>
<linearGradient x1="40%" y1="21%" x2="72%" y2="94%" id="id-male-6.8_face_2-22">
<stop stop-color="#a67a62" offset="0%">
</stop>
<stop stop-color="#af8e6f" offset="50%">
</stop>
<stop stop-color="#af7c69" offset="100%">
</stop>
</linearGradient>
<linearGradient x1="7%" y1="41%" x2="71%" y2="63%" id="id-male-6.8_face_2-23">
<stop stop-color="#a77e68" offset="0%">
</stop>
<stop stop-color="#bfb0a1" offset="100%">
</stop>
</linearGradient>
<linearGradient x1="87%" y1="51%" x2="37%" y2="52%" id="id-male-6.8_face_2-24">
<stop stop-color="#935943" offset="0%">
</stop>
<stop stop-color="#ae7f68" offset="100%">
</stop>
</linearGradient>
<linearGradient x1="50%" y1="0%" x2="50%" y2="100%" id="id-male-6.8_face_2-25">
<stop stop-color="#b18b6b" offset="0%">
</stop>
<stop stop-color="#b35746" offset="100%">
</stop>
</linearGradient>
<linearGradient x1="71%" y1="47%" x2="15%" y2="54%" id="id-male-6.8_face_2-26">
<stop stop-color="#9e6e5a" offset="0%">
</stop>
<stop stop-color="#c6b4a8" offset="100%">
</stop>
</linearGradient>
<linearGradient x1="66%" y1="11%" x2="44%" y2="95%" id="id-male-6.8_face_2-27">
<stop stop-color="#ad6f5d" offset="0%" stop-opacity="0.528">
</stop>
<stop stop-color="#aa5f4f" offset="49%">
</stop>
<stop stop-color="#aa604e" offset="100%" stop-opacity="0">
</stop>
</linearGradient>
<linearGradient x1="-5%" y1="53%" x2="86%" y2="50%" id="id-male-6.8_face_2-28">
<stop stop-color="#6d352d" offset="0%">
</stop>
<stop stop-color="#341d27" offset="47%">
</stop>
<stop stop-color="#692522" offset="100%">
</stop>
</linearGradient>
<linearGradient x1="10%" y1="52%" x2="66%" y2="50%" id="id-male-6.8_face_2-29">
<stop stop-color="#a47a65" offset="0%">
</stop>
<stop stop-color="#884237" offset="100%">
</stop>
</linearGradient>
<linearGradient x1="50%" y1="-36%" x2="50%" y2="100%" id="id-male-6.8_face_2-30">
<stop stop-color="#8f293e" offset="0%">
</stop>
<stop stop-color="#56121d" offset="100%">
</stop>
</linearGradient>
<linearGradient x1="23%" y1="39%" x2="61%" y2="66%" id="id-male-6.8_face_2-31">
<stop stop-color="#c1a490" offset="0%">
</stop>
<stop stop-color="#bd9d86" offset="100%" stop-opacity="0">
</stop>
</linearGradient>
<linearGradient x1="50%" y1="0%" x2="50%" y2="100%" id="id-male-6.8_face_2-32">
<stop stop-color="#a93f54" offset="0%">
</stop>
<stop stop-color="#852e3c" offset="100%">
</stop>
</linearGradient>
<linearGradient x1="23%" y1="50%" x2="76%" y2="52%" id="id-male-6.8_face_2-33">
<stop stop-color="#ae507e" offset="0%" stop-opacity="0">
</stop>
<stop stop-color="#d7709a" offset="100%">
</stop>
</linearGradient>
<linearGradient x1="58%" y1="36%" x2="35%" y2="100%" id="id-male-6.8_face_2-34">
<stop stop-color="#b18f79" offset="0%">
</stop>
<stop stop-color="#b18d76" offset="100%" stop-opacity="0">
</stop>
</linearGradient>
<linearGradient x1="96%" y1="25%" x2="45%" y2="90%" id="id-male-6.8_face_2-35">
<stop stop-color="#361b27" offset="0%">
</stop>
<stop stop-color="#411720" offset="100%">
</stop>
</linearGradient>
<linearGradient x1="40%" y1="34%" x2="57%" y2="75%" id="id-male-6.8_face_2-36">
<stop stop-color="#853b31" offset="0%">
</stop>
<stop stop-color="#722b2c" offset="100%">
</stop>
</linearGradient>
<linearGradient x1="66%" y1="30%" x2="24%" y2="92%" id="id-male-6.8_face_2-37">
<stop stop-color="#401923" offset="0%">
</stop>
<stop stop-color="#7e3530" offset="100%" stop-opacity="0">
</stop>
</linearGradient>
<linearGradient x1="53%" y1="73%" x2="54%" y2="75%" id="id-male-6.8_face_2-38">
<stop stop-color="#5e231e" offset="0%" stop-opacity="0.476">
</stop>
<stop stop-color="#471a24" offset="100%">
</stop>
</linearGradient>
<linearGradient x1="36%" y1="31%" x2="47%" y2="50%" id="id-male-6.8_face_2-39">
<stop stop-color="#c0a895" offset="0%">
</stop>
<stop stop-color="#945d46" offset="100%">
</stop>
</linearGradient>
<linearGradient x1="52%" y1="46%" x2="46%" y2="43%" id="id-male-6.8_face_2-40">
<stop stop-color="#995c43" offset="0%">
</stop>
<stop stop-color="#844137" offset="100%">
</stop>
</linearGradient>
</defs>
<g transform="translate(548,259)" id="id-male-6.8_face_2-41">
<g transform="translate(0,121)" id="id-male-6.8_face_2-42">
<polygon points="199 13 214 3 222 9 221 25 214 38 214 43 210 54 208 65 197 70 190 64" fill="url(#id-male-6.8_face_2-0)" id="id-male-6.8_face_2-43">
</polygon>
<polygon points="197 24 209 14 216 9 219 10 220 22 214 37 195 43" fill="url(#id-male-6.8_face_2-1)" id="id-male-6.8_face_2-44">
</polygon>
<polygon points="203 38 208 34 199 25 203 22 209 23 207 18 212 16 214 38 214 43 213 48 207 51 201 46" fill="url(#id-male-6.8_face_2-2)" id="id-male-6.8_face_2-43">
</polygon>
<polygon points="212 5 214 3 222 9 222 10 219 10 216 9" fill="#d49ba0" id="id-male-6.8_face_2-43">
</polygon>
<polygon points="208 65 197 70 190 64 194 42 199 50 193 62 199 67" fill="#602d31" id="id-male-6.8_face_2-43">
</polygon>
<polygon points="203 62 202 54 211 50" fill="#722c2d" id="id-male-6.8_face_2-48">
</polygon>
<polygon points="196 50 202 51 203 42 196 46" fill="#874b46" id="id-male-6.8_face_2-49">
</polygon>
<polygon points="194 45 199 47 202 45 202 32 197 31" fill="#361b27" id="id-male-6.8_face_2-50">
</polygon>
<path d="M 30 70 C 24 70 20 69 19 68 C 17 66 12 52 8 46 C 4 39 2 38 1 33 C 0 30 0 21 1 6 L 8 0 L 23 9 L 30 70 Z" fill="url(#id-male-6.8_face_2-3)" id="id-male-6.8_face_2-51">
</path>
<polygon points="8 6 2 6 7 3 10 2 23 9 19 14" fill="#b99d8c" id="id-male-6.8_face_2-51">
</polygon>
<path d="M 26 68 C 23 69 20 69 19 68 C 17 66 12 52 8 46 C 7 44 6 43 6 42 C 9 45 10 47 12 48 C 13 50 14 52 16 56 L 26 68 Z" fill="#ab7260" id="id-male-6.8_face_2-51">
</path>
<polygon points="26 68 29 65 27 53 20 61" fill="#c67b6d" id="id-male-6.8_face_2-51">
</polygon>
<path d="M 23 19 C 12 12 6 9 5 9 C 3 10 2 18 2 33 L 17 53 L 26 52 L 23 19 Z" fill="url(#id-male-6.8_face_2-4)" id="id-male-6.8_face_2-55">
</path>
<polygon points="12 17 19 19 18 26 15 28 22 38 21 49 12 44" fill="#8e4f46" id="id-male-6.8_face_2-56">
</polygon>
<path d="M 27 53 C 16 50 10 47 8 42 C 6 38 8 30 12 17 L 15 23 C 15 36 14 42 15 43 C 15 45 18 46 25 48 L 27 53 Z" fill="#a6866b" id="id-male-6.8_face_2-57">
</path>
<polygon points="11 31 19 26 19 18 14 20 12 18" fill="#bca28f" id="id-male-6.8_face_2-58">
</polygon>
<polygon points="20 46 17 42 22 37 25 48" fill="#b27668" id="id-male-6.8_face_2-59">
</polygon>
</g>
<g transform="translate(18,0)" id="id-male-6.8_face_2-60">
<path d="M 20 231 C 18 227 11 201 5 153 C 3 140 2 128 1 117 C -1 91 4 63 8 49 C 9 46 16 35 16 34 C 30 20 56 0 94 0 C 157 0 178 45 181 51 C 183 57 183 111 181 144 C 178 177 162 232 160 235 C 158 239 124 261 119 264 C 113 266 74 267 69 264 C 64 261 22 235 20 231 Z" fill="url(#id-male-6.8_face_2-5)" id="id-male-6.8_face_2-61">
</path>
<polygon points="42 97 56 74 52 61 155 41 139 103 93 103" fill="url(#id-male-6.8_face_2-6)" id="id-male-6.8_face_2-62">
</polygon>
<polygon points="96 68 135 48 39 38 42 54" fill="url(#id-male-6.8_face_2-7)" id="id-male-6.8_face_2-63">
</polygon>
<path d="M 27 130 L 4 145 C 3 135 2 126 1 117 C -1 91 4 63 8 49 C 9 46 16 35 16 34 C 30 20 56 0 94 0 C 157 0 178 45 181 51 L 147 47 L 86 54 L 44 42 L 57 74 L 27 98 L 27 130 Z" fill="url(#id-male-6.8_face_2-8)" id="id-male-6.8_face_2-61">
</path>
<polygon points="42 81 80 64 52 52 42 54" fill="url(#id-male-6.8_face_2-9)" id="id-male-6.8_face_2-65">
</polygon>
<polygon points="45 68 60 57 52 52 45 54" fill="#cec5b3" opacity="0.553" id="id-male-6.8_face_2-66">
</polygon>
<polygon points="90 96 73 84 69 76 91 79 113 76 93 88" fill="#ad8f72" id="id-male-6.8_face_2-67">
</polygon>
<polygon points="137 97 137 86 108 81 98 91 102 103" fill="url(#id-male-6.8_face_2-10)" id="id-male-6.8_face_2-68">
</polygon>
<polygon points="99 91 101 94 111 91 111 84" fill="#d3cbb9" opacity="0.56" id="id-male-6.8_face_2-69">
</polygon>
<polygon points="60 213 39 221 45 248 56 248 84 233 80 206" fill="url(#id-male-6.8_face_2-11)" id="id-male-6.8_face_2-70">
</polygon>
<path d="M 20 231 C 18 227 12 203 6 158 C 22 179 32 191 34 197 C 36 202 40 220 47 250 C 35 242 21 233 20 231 Z" fill="#804033" id="id-male-6.8_face_2-61">
</path>
<path d="M 11 192 C 9 183 7 171 6 158 C 26 171 38 180 40 188 C 42 191 42 202 40 221 L 11 192 Z" fill="#6d3322" opacity="0.47" id="id-male-6.8_face_2-61">
</path>
<polygon points="132 203 121 178 107 160 107 139 115 134 168 130 179 136" fill="url(#id-male-6.8_face_2-12)" id="id-male-6.8_face_2-73">
</polygon>
<path d="M 160 158 C 165 146 167 139 164 138 C 153 133 136 132 136 127 C 135 126 137 111 140 83 L 129 85 L 143 73 C 144 62 144 56 143 55 C 141 53 143 36 130 31 C 126 30 112 32 88 38 L 51 31 L 35 38 C 22 36 16 35 16 34 C 30 20 56 0 94 0 C 157 0 178 45 181 51 C 183 57 183 111 181 144 L 160 158 Z" fill="url(#id-male-6.8_face_2-13)" id="id-male-6.8_face_2-61">
</path>
<polygon points="93 230 129 249 146 243 153 201 125 219 113 221" fill="#662826" id="id-male-6.8_face_2-75">
</polygon>
<polygon points="120 175 124 185 115 193 133 206 135 223 104 221 103 198 95 176" fill="url(#id-male-6.8_face_2-14)" id="id-male-6.8_face_2-76">
</polygon>
<polygon points="117 131 107 134 112 117 140 96 157 104 144 127" fill="#944b36" id="id-male-6.8_face_2-77">
</polygon>
<polygon points="65 125 74 128 77 122 60 101 35 99 20 129" fill="url(#id-male-6.8_face_2-15)" id="id-male-6.8_face_2-78">
</polygon>
<polygon points="44 112 41 108 49 105 59 112 61 115 66 120 66 125" fill="url(#id-male-6.8_face_2-16)" id="id-male-6.8_face_2-79">
</polygon>
<polygon points="44 135 30 136 15 132 23 105 35 93 73 94 92 101 115 98 157 102 159 108 151 121 157 123 153 129 143 126 153 105 147 96 108 119 108 139 111 159 120 175 118 179 86 167 76 123 69 121 54 98 37 105 26 123 23 127" fill="url(#id-male-6.8_face_2-17)" id="id-male-6.8_face_2-80">
</polygon>
<polygon points="100 118 108 126 137 102 113 98" fill="url(#id-male-6.8_face_2-18)" id="id-male-6.8_face_2-81">
</polygon>
<polygon points="125 120 128 110 137 104 144 103 137 110 139 118 144 122 144 125 122 125" fill="url(#id-male-6.8_face_2-19)" id="id-male-6.8_face_2-82">
</polygon>
<polygon points="99 109 105 101 103 110" fill="#5e3931" id="id-male-6.8_face_2-83">
</polygon>
<polygon points="105 109 108 97 117 96 132 96 126 94 146 93 152 98 149 93 151 92 162 106 161 112 149 103 108 110 112 100" fill="url(#id-male-6.8_face_2-20)" id="id-male-6.8_face_2-84">
</polygon>
<polygon points="163 108 163 116 166 120 166 113" fill="#2f1b1d" id="id-male-6.8_face_2-85">
</polygon>
<path d="M 19 119 C 20 112 22 106 24 103 C 26 99 30 96 34 93 L 29 94 L 31 92 L 45 91 L 75 96 L 77 107 L 79 100 L 77 111 L 73 105 L 73 109 L 69 104 L 71 109 C 50 104 39 101 38 101 C 37 101 32 104 25 110 L 26 104 L 19 119 Z" fill="url(#id-male-6.8_face_2-21)" id="id-male-6.8_face_2-86">
</path>
<path d="M 116 127 L 156 130 L 167 133 L 163 138 L 156 135 C 149 139 143 141 137 141 C 132 141 124 140 115 137 L 108 140 L 108 134 L 111 130 L 116 127 Z" fill="#753529" id="id-male-6.8_face_2-87">
</path>
<polygon points="137 136 147 137 162 128 147 130" transform="translate(150,133) rotate(-2) translate(-150,-133)" fill="#431d1f" id="id-male-6.8_face_2-88">
</polygon>
<polygon points="125 121 133 114 137 118" transform="translate(131,118) rotate(-2) translate(-131,-118)" fill="#d0c0bb" id="id-male-6.8_face_2-89">
</polygon>
<path d="M 125 135 L 112 131 L 116 127 C 123 121 130 118 137 118 C 144 118 150 120 156 125 C 148 121 142 119 135 119 C 129 120 124 123 119 128 L 122 132 L 125 135 Z" transform="translate(134,126) rotate(-2) translate(-134,-126)" fill="#55241f" id="id-male-6.8_face_2-90">
</path>
<path d="M 112 131 C 112 131 116 132 123 134 L 114 130 C 120 129 133 126 142 130 C 149 133 157 132 164 129 C 159 128 156 128 153 127 C 146 125 142 122 132 123 C 121 123 119 127 112 131 Z" transform="translate(138,128) rotate(-2) translate(-138,-128)" fill="#220f0f" id="id-male-6.8_face_2-91">
</path>
<path d="M 118 129 L 121 133 C 127 136 132 137 137 136 C 141 136 146 135 152 132 C 144 129 138 127 134 127 C 130 126 125 127 118 129 Z" transform="translate(135,132) rotate(-2) translate(-135,-132)" fill="#e0cbbb" id="id-male-6.8_face_2-92">
</path>
<path d="M 124 127 C 126 133 129 136 133 137 C 137 137 141 134 143 128 C 140 127 138 127 135 127 C 133 126 129 127 124 127 Z" transform="translate(134,132) rotate(-2) translate(-134,-132)" fill="#321b1d" id="id-male-6.8_face_2-93">
</path>
<path d="M 130 128 C 131 130 132 131 133 131 C 134 131 136 130 138 128 C 136 127 135 127 134 127 C 133 127 131 127 130 128 Z" transform="translate(134,129) rotate(-2) translate(-134,-129)" fill="#220e0f" id="id-male-6.8_face_2-94">
</path>
<path d="M 139 130 L 140 132 C 138 135 136 136 134 136 C 131 136 129 135 126 132 L 132 131 L 134 134 L 135 132 L 139 130 Z" transform="translate(133,133) rotate(-2) translate(-133,-133)" fill="#3f405e" id="id-male-6.8_face_2-95">
</path>
<path d="M 117 129 L 119 131 C 123 130 127 129 132 129 C 134 129 138 131 146 134 C 147 134 149 133 152 131 C 144 129 138 127 134 127 C 130 126 124 127 117 129 Z" transform="translate(135,130) rotate(-2) translate(-135,-130)" fill="#1a0a04" fill-opacity="0.556" id="id-male-6.8_face_2-92">
</path>
<polygon points="127 131 128 129 131 128 132 130" transform="translate(130,130) rotate(-2) translate(-130,-130)" fill="#d0bcae" id="id-male-6.8_face_2-97">
</polygon>
<polygon points="66 221 111 223 125 219 126 212 102 197 95 177 99 123 86 122 80 129 64 179 58 199 62 214" fill="url(#id-male-6.8_face_2-22)" id="id-male-6.8_face_2-98">
</polygon>
<polygon points="78 151 81 128 76 132 74 130 64 126 37 130 19 159 24 163" fill="url(#id-male-6.8_face_2-23)" id="id-male-6.8_face_2-99">
</polygon>
<polygon points="30 136 48 140 71 133 73 131 52 125 34 130" fill="#874a3a" id="id-male-6.8_face_2-100">
</polygon>
<path d="M 21 127 L 29 122 C 37 117 44 115 49 116 C 55 117 60 120 65 125 L 21 127 Z" fill="url(#id-male-6.8_face_2-24)" id="id-male-6.8_face_2-101">
</path>
<polygon points="39 117 44 110 52 116" fill="#d0c0bb" id="id-male-6.8_face_2-102">
</polygon>
<polygon points="33 127 40 118 47 116 49 123" fill="#b89f8c" id="id-male-6.8_face_2-103">
</polygon>
<path d="M 32 130 C 35 134 40 136 48 136 C 56 136 62 134 67 129 C 61 127 56 126 51 126 C 47 126 40 127 32 130 Z" fill="#e5d2c5" id="id-male-6.8_face_2-104">
</path>
<path d="M 40 128 C 41 133 44 136 49 136 C 54 136 57 133 59 127 C 55 125 52 125 49 125 C 46 125 43 126 40 128 Z" fill="#392524" id="id-male-6.8_face_2-105">
</path>
<path d="M 32 130 C 33 131 34 132 35 132 C 43 131 48 130 50 130 C 51 130 53 131 54 131 C 56 131 57 129 59 129 C 60 130 61 130 63 132 C 64 131 65 130 67 129 C 61 127 56 126 51 126 C 47 126 40 127 32 130 Z" fill="#1f0606" fill-opacity="0.51" id="id-male-6.8_face_2-104">
</path>
<path d="M 49 117 C 42 117 35 119 28 123 C 36 117 44 114 52 116 C 59 118 65 122 71 131 C 67 128 65 126 64 126 C 59 121 55 118 49 117 Z" fill="#663123" id="id-male-6.8_face_2-107">
</path>
<path d="M 36 134 L 20 127 C 24 126 27 126 30 125 C 35 124 43 121 49 121 C 59 121 70 131 73 131 C 71 132 69 133 67 133 C 65 133 61 134 57 134 L 66 130 C 64 128 60 127 54 127 C 47 127 40 128 33 130 L 36 134 Z" fill="#220f0d" id="id-male-6.8_face_2-108">
</path>
<path d="M 42 132 L 45 128 C 47 130 49 131 50 131 C 51 131 53 130 55 128 L 56 130 C 54 133 52 135 49 135 C 46 135 43 134 42 132 Z" fill="#434564" id="id-male-6.8_face_2-109">
</path>
<path d="M 44 126 C 46 129 47 130 49 130 C 51 130 53 128 56 126 C 53 125 51 125 49 125 C 48 125 46 125 44 126 Z" fill="#220f0f" id="id-male-6.8_face_2-110">
</path>
<polygon points="43 129 45 130 47 129 46 128" fill="#b3a2a0" id="id-male-6.8_face_2-111">
</polygon>
<polygon points="83 161 100 165 103 158 99 150 97 124 86 125 86 155" fill="url(#id-male-6.8_face_2-25)" id="id-male-6.8_face_2-112">
</polygon>
<polygon points="93 191 98 185 100 191 97 194" fill="#baa193" id="id-male-6.8_face_2-113">
</polygon>
<polygon points="64 132 66 130 69 131" fill="#72473c" id="id-male-6.8_face_2-114">
</polygon>
<polygon points="84 193 92 197 98 193 92 190 91 184 88 184" fill="#985c49" id="id-male-6.8_face_2-115">
</polygon>
<polygon points="19 159 15 148 70 133 52 148" fill="url(#id-male-6.8_face_2-26)" id="id-male-6.8_face_2-116">
</polygon>
<polygon points="67 179 75 186 83 182 88 184 92 184 100 181 114 185 119 178 90 167" fill="#490b11" id="id-male-6.8_face_2-117">
</polygon>
<polygon points="74 171 89 162 81 160" fill="#bfb3a1" id="id-male-6.8_face_2-118">
</polygon>
<path d="M 68 174 L 78 154 L 85 146 C 85 153 83 158 80 163 C 78 168 73 172 68 174 Z" fill="url(#id-male-6.8_face_2-27)" id="id-male-6.8_face_2-119">
</path>
<polygon points="88 162 101 164 91 167 83 165" fill="#ba9b78" id="id-male-6.8_face_2-120">
</polygon>
<polygon points="99 166 103 158 99 150 113 167 108 172" fill="#914f3b" id="id-male-6.8_face_2-121">
</polygon>
<polygon points="117 175 108 172 113 167" fill="#9e654d" id="id-male-6.8_face_2-122">
</polygon>
<polygon points="84 127 86 131 99 123 86 122" fill="#c4ac85" id="id-male-6.8_face_2-123">
</polygon>
<path d="M 79 181 L 75 183 L 67 179 L 66 177 L 84 165 L 91 167 L 99 165 L 117 175 L 119 178 L 112 182 L 107 182 C 108 180 108 178 105 177 C 103 176 100 177 96 181 L 89 181 C 86 178 84 176 82 176 C 81 176 76 177 75 179 C 75 179 76 180 79 181 Z" fill="#7a332d" id="id-male-6.8_face_2-124">
</path>
<path d="M 98 179 C 97 180 96 180 96 181 L 89 181 C 88 180 87 179 87 179 L 90 180 L 98 179 Z" fill="#8b5056" id="id-male-6.8_face_2-124">
</path>
<polygon points="117 175 119 178 112 182 107 182 108 179" fill="#884d4f" id="id-male-6.8_face_2-126">
</polygon>
<path d="M 67 179 L 66 177 L 84 165 L 89 167 L 84 176 C 80 176 77 175 75 176 C 72 176 70 177 67 179 Z" fill="#965646" id="id-male-6.8_face_2-124">
</path>
<polygon points="90 178 98 178 101 176 107 170 105 169" fill="#6d2923" id="id-male-6.8_face_2-128">
</polygon>
<polygon points="110 223 107 228 111 239 75 236 66 221 115 218" fill="url(#id-male-6.8_face_2-28)" id="id-male-6.8_face_2-129">
</polygon>
<polygon points="66 221 88 233 107 224 77 223" fill="#341d27" id="id-male-6.8_face_2-130">
</polygon>
<path d="M 52 251 L 74 236 L 90 231 L 110 237 L 132 249 C 117 258 103 263 90 263 C 76 263 64 259 52 251 Z" fill="url(#id-male-6.8_face_2-29)" id="id-male-6.8_face_2-131">
</path>
<polygon points="87 253 71 244 74 241 69 239 74 236 90 231 93 232 88 239" fill="#b69f8e" opacity="0.481" id="id-male-6.8_face_2-131">
</polygon>
<polygon points="59 213 64 205 96 201 120 205 126 211 121 215 63 215" fill="#410409" id="id-male-6.8_face_2-133">
</polygon>
<path d="M 64 205 C 73 199 79 196 81 196 C 83 195 87 196 93 199 L 102 195 C 106 196 109 198 112 199 C 114 200 117 202 120 205 L 111 208 L 96 205 L 76 208 L 68 208 L 64 205 Z" fill="url(#id-male-6.8_face_2-30)" id="id-male-6.8_face_2-134">
</path>
<polygon points="149 148 115 136 108 140 133 164" fill="url(#id-male-6.8_face_2-31)" id="id-male-6.8_face_2-135">
</polygon>
<path d="M 72 200 C 77 197 80 196 81 196 C 83 195 87 196 93 199 L 90 205 L 76 208 L 72 200 Z" fill="#78152e" id="id-male-6.8_face_2-134">
</path>
<path d="M 98 197 L 102 195 C 106 196 109 198 112 199 C 114 200 115 201 117 202 L 112 205 L 102 203 L 98 197 Z" fill="#7c1831" id="id-male-6.8_face_2-134">
</path>
<path d="M 62 215 C 71 212 77 211 81 210 C 84 210 89 211 91 211 C 93 211 98 210 100 210 C 104 210 112 212 122 215 C 113 223 103 227 91 226 C 79 226 70 222 62 215 Z" fill="url(#id-male-6.8_face_2-32)" id="id-male-6.8_face_2-138">
</path>
<path d="M 112 213 C 104 216 100 218 98 219 C 96 219 94 220 93 222 L 92 214 C 93 216 94 217 97 216 C 99 216 105 215 112 213 Z" fill="#d7709a" opacity="0.667" id="id-male-6.8_face_2-139">
</path>
<path d="M 91 216 L 91 222 C 84 219 78 217 74 216 C 70 216 66 215 64 215 C 70 213 74 213 77 214 C 80 216 85 217 91 216 Z" fill="url(#id-male-6.8_face_2-33)" id="id-male-6.8_face_2-140">
</path>
<polygon points="104 129 106 136 111 129 111 124" fill="url(#id-male-6.8_face_2-34)" id="id-male-6.8_face_2-141">
</polygon>
<path d="M 181 144 C 178 177 162 232 160 235 C 158 239 124 261 119 264 C 113 266 74 267 69 264 C 67 263 59 258 51 253 C 69 259 83 262 93 261 C 107 259 128 246 137 242 C 141 241 144 232 149 215 L 163 207 L 170 172 L 154 183 L 181 144 Z" fill="url(#id-male-6.8_face_2-35)" id="id-male-6.8_face_2-61">
</path>
<path d="M 133 228 C 130 202 130 187 133 180 C 137 173 146 166 160 157 L 181 144 L 171 162 L 163 207 L 133 228 Z" fill="url(#id-male-6.8_face_2-36)" id="id-male-6.8_face_2-143">
</path>
<polygon points="133 228 133 244 140 242 152 215" fill="#722c2c" id="id-male-6.8_face_2-143">
</polygon>
<polygon points="172 159 143 191 164 205" fill="url(#id-male-6.8_face_2-37)" id="id-male-6.8_face_2-145">
</polygon>
<path d="M 102 259 L 104 235 L 110 237 L 128 247 C 115 253 107 257 102 259 Z" fill="#954a3d" id="id-male-6.8_face_2-146">
</path>
<path d="M 20 231 C 20 230 19 228 18 225 C 30 234 39 240 45 243 C 57 248 70 255 82 255 C 94 255 108 246 117 241 C 123 238 129 233 133 228 L 163 207 L 169 204 C 165 221 161 233 160 235 C 158 239 124 261 119 264 C 113 266 74 267 69 264 C 64 261 22 235 20 231 Z" fill="#501517" opacity="0.375" id="id-male-6.8_face_2-61">
</path>
<path d="M 157 157 C 157 146 153 139 145 136 L 158 130 C 162 129 164 128 164 128 C 165 123 168 115 170 105 C 170 103 170 91 170 69 C 165 63 160 57 155 51 C 154 36 148 22 136 8 C 167 21 179 47 181 51 C 183 57 183 111 181 144 C 180 156 172 166 157 177 C 157 166 157 159 157 157 Z" fill="url(#id-male-6.8_face_2-38)" id="id-male-6.8_face_2-61">
</path>
<path d="M 4 66 C 5 59 7 54 8 49 C 9 46 16 35 16 34 C 26 24 42 11 65 5 C 55 10 50 15 47 18 C 40 28 28 50 13 83 L 4 66 Z" fill="url(#id-male-6.8_face_2-39)" id="id-male-6.8_face_2-61">
</path>
<path d="M 4 145 C 3 135 2 126 1 117 C 0 97 2 76 5 61 C 9 60 11 58 13 56 C 16 53 23 47 35 38 C 25 59 18 74 17 83 C 14 98 9 119 4 145 Z" fill="url(#id-male-6.8_face_2-40)" id="id-male-6.8_face_2-61">
</path>
</g>
</g>
<defs>
<linearGradient x1="72%" y1="5%" x2="41%" y2="53%" id="id-male-12_baggy_pants-0">
<stop stop-color="#204c8a" offset="0%">
</stop>
<stop stop-color="#0e2552" offset="100%">
</stop>
</linearGradient>
<linearGradient x1="100%" y1="39%" x2="7%" y2="59%" id="id-male-12_baggy_pants-1">
<stop stop-color="#14326a" offset="0%">
</stop>
<stop stop-color="#0e2552" offset="100%">
</stop>
</linearGradient>
<linearGradient x1="88%" y1="21%" x2="25%" y2="81%" id="id-male-12_baggy_pants-2">
<stop stop-color="#2c5c9c" offset="0%">
</stop>
<stop stop-color="#19417e" offset="100%">
</stop>
</linearGradient>
</defs>
<g transform="translate(340,1079)" id="id-male-12_baggy_pants-3">
<path d="M 32 560 C 11 572 0 579 0 579 C 15 605 23 618 23 618 L 54 596 C 39 572 32 560 32 560 Z" fill="#101724" id="id-male-12_baggy_pants-4">
</path>
<path d="M 582 640 C 589 657 593 665 593 665 C 574 674 565 679 565 679 L 561 670 C 562 664 569 654 582 640 Z" fill="#101724" id="id-male-12_baggy_pants-5">
</path>
<path d="M 82 681 L 63 647 C 64 625 63 612 62 610 C 54 597 33 566 20 533 C 20 498 36 440 68 358 L 101 178 L 90 170 L 114 75 L 122 72 L 134 60 L 140 31 L 142 31 L 144 0 C 193 11 261 17 349 19 C 351 22 358 23 384 22 C 384 22 423 20 500 14 L 501 32 L 503 32 L 514 61 L 524 72 L 526 70 L 567 172 L 549 174 L 581 422 L 617 557 L 584 611 C 583 623 583 632 584 638 C 575 653 558 663 558 681 C 508 681 447 681 374 681 L 372 651 L 358 631 L 344 390 L 311 397 L 300 452 L 290 462 L 282 612 L 263 636 L 259 681 L 82 681 Z" fill="url(#id-male-12_baggy_pants-0)" id="id-male-12_baggy_pants-6">
</path>
<path d="M 157 179 L 154 179 L 154 178 L 107 174 L 102 178 L 89 170 L 114 75 L 121 73 L 513 66 L 513 62 L 524 73 L 566 172 L 482 184 C 485 278 487 345 489 386 C 440 387 371 387 283 386 L 282 386 L 145 386 L 152 213 L 157 179 Z" fill="#1a4682" id="id-male-12_baggy_pants-7">
</path>
<path d="M 366 642 L 386 607 L 376 606 L 401 519 L 480 429 L 425 435 L 439 389 L 483 183 L 557 173 L 583 422 L 617 557 L 584 611 C 584 624 584 633 584 638 C 572 655 559 665 559 681 C 499 681 438 681 375 681 L 372 651 L 366 642 Z" fill="#163877" id="id-male-12_baggy_pants-8">
</path>
<polygon points="234 531 234 567 63 633 73 587" fill="url(#id-male-12_baggy_pants-1)" id="id-male-12_baggy_pants-9">
</polygon>
<polygon points="143 654 224 639 225 629 202 626" fill="#111a28" id="id-male-12_baggy_pants-10">
</polygon>
<polygon points="433 607 489 511 489 490 497 398 499 227 501 227 526 197 553 469 583 557 589 568 507 628" fill="#18467f" id="id-male-12_baggy_pants-11">
</polygon>
<polygon points="444 663 410 627 423 629 510 641" fill="#0e2351" id="id-male-12_baggy_pants-12">
</polygon>
<polygon points="511 631 594 571 538 491 520 509" fill="#355e97" id="id-male-12_baggy_pants-13">
</polygon>
<path d="M 445 79 C 444 81 443 85 442 89 L 236 93 L 346 108 L 349 112 L 150 118 L 344 194 L 297 250 L 488 133 L 486 386 L 282 386 L 144 386 L 156 179 L 153 179 L 153 177 L 106 174 L 101 178 L 88 169 L 113 75 L 120 72 L 184 75 C 274 75 361 76 445 79 Z" fill="url(#id-male-12_baggy_pants-2)" id="id-male-12_baggy_pants-14">
</path>
<polygon points="326 106 185 75 121 72 134 60 288 68 297 76 252 75" fill="#0f2755" id="id-male-12_baggy_pants-15">
</polygon>
<polygon points="159 338 161 341 161 348 169 348 181 339" stroke="#979797" id="id-male-12_baggy_pants-16">
</polygon>
<polygon points="156 294 151 387 218 387" fill="#2e5090" id="id-male-12_baggy_pants-17">
</polygon>
<polygon points="386 375 373 387 384 387" fill="#375f9c" id="id-male-12_baggy_pants-18">
</polygon>
<polygon points="423 387 486 324 488 386" fill="#3d63a1" id="id-male-12_baggy_pants-19">
</polygon>
<polygon points="262 399 174 393 113 464 106 475 113 495 136 498 132 509 129 508 86 595 197 578 157 566 183 536 233 522 258 408" fill="#14336b" id="id-male-12_baggy_pants-20">
</polygon>
<polygon points="489 221 488 188 486 184 528 178" fill="#0e2351" id="id-male-12_baggy_pants-21">
</polygon>
<polygon points="127 179 152 217 152 214 156 180" fill="#111925" id="id-male-12_baggy_pants-22">
</polygon>
<polygon points="173 178 170 232 229 230 226 181" fill="#947c17" id="id-male-12_baggy_pants-23">
</polygon>
<polygon points="280 331 321 238 490 133 447 128 526 70 567 173 441 190" fill="#1c508b" id="id-male-12_baggy_pants-24">
</polygon>
<polygon points="196 149 291 235 336 200" fill="#1a508b" id="id-male-12_baggy_pants-25">
</polygon>
<polygon points="141 30 135 59 286 67 286 37 230 34" fill="#84671b" id="id-male-12_baggy_pants-26">
</polygon>
<polygon points="230 34 221 64 135 60 141 30" fill="#654a16" id="id-male-12_baggy_pants-27">
</polygon>
<polygon points="380 46 385 73 464 68 464 36" fill="#7b5c19" id="id-male-12_baggy_pants-28">
</polygon>
<polygon points="465 36 503 32 514 62 514 66 465 68" fill="#654a16" id="id-male-12_baggy_pants-29">
</polygon>
<path d="M 291 37 C 288 39 286 40 286 40 C 286 63 285 74 285 74 L 384 75 L 384 72 C 382 54 380 45 380 45 L 379 37 C 320 37 291 37 291 37 Z" fill="#111925" id="id-male-12_baggy_pants-30">
</path>
<path d="M 291 28 C 291 31 291 34 291 37 L 379 37 C 338 31 309 28 291 28 Z" fill="#111823" id="id-male-12_baggy_pants-31">
</path>
<path d="M 379 33 L 382 40 L 291 37 L 291 33 C 294 32 296 31 296 31 L 295 30 C 351 32 379 33 379 33 Z" fill="#566986" id="id-male-12_baggy_pants-32">
</path>
</g>
<defs>
<linearGradient x1="26%" y1="14%" x2="56%" y2="60%" id="id-male-12.5_cropped_hoodie-0">
<stop stop-color="#79a491" offset="0%">
</stop>
<stop stop-color="#2e544b" offset="100%">
</stop>
</linearGradient>
<linearGradient x1="42%" y1="10%" x2="58%" y2="70%" id="id-male-12.5_cropped_hoodie-1">
<stop stop-color="#457c6f" offset="0%">
</stop>
<stop stop-color="#326256" offset="100%">
</stop>
</linearGradient>
<linearGradient x1="30%" y1="11%" x2="64%" y2="100%" id="id-male-12.5_cropped_hoodie-2">
<stop stop-color="#2f5349" offset="0%">
</stop>
<stop stop-color="#436b5c" offset="100%">
</stop>
</linearGradient>
</defs>
<g transform="translate(265,525)" id="id-male-12.5_cropped_hoodie-3">
<g transform="translate(1,0)" id="id-male-12.5_cropped_hoodie-4">
<path d="M 138 766 L 122 738 C 135 728 142 718 142 708 C 138 698 121 670 121 670 C 146 655 159 648 159 648 C 157 627 162 596 174 554 C 171 550 168 544 163 538 L 189 521 C 185 495 183 469 183 445 C 194 429 201 407 204 380 L 206 421 C 221 416 235 412 248 410 C 402 399 393 399 549 403 C 562 408 574 414 585 421 C 586 426 587 428 587 428 C 588 375 588 348 588 348 C 590 407 594 465 601 520 C 614 561 629 606 629 606 C 626 639 625 656 625 656 C 642 680 651 692 651 692 C 644 705 640 712 640 712 C 660 731 669 741 669 741 C 660 755 655 762 655 762 C 684 764 698 764 698 764 C 734 779 752 787 752 787 C 752 763 752 751 752 751 C 775 737 786 730 786 730 C 774 687 767 665 767 665 C 767 642 767 631 767 631 C 756 623 751 619 751 619 C 752 610 753 606 753 606 C 761 587 766 577 766 577 C 752 558 745 548 745 548 C 757 503 762 480 762 480 C 731 385 710 321 701 289 C 701 263 689 216 689 216 C 693 211 695 208 697 204 C 682 189 682 185 650 108 C 621 94 573 71 573 71 C 575 63 576 59 576 59 C 561 21 553 2 553 2 L 526 42 L 463 96 L 393 143 L 330 96 C 272 32 242 1 242 1 C 226 40 218 60 218 60 C 218 68 218 72 218 72 C 167 95 142 107 142 107 C 119 158 108 183 108 183 C 107 191 106 195 106 195 C 101 201 99 204 99 204 C 101 231 99 258 93 283 C 74 360 61 403 41 434 C 35 454 30 475 30 475 C 39 516 44 537 44 537 C 32 562 26 574 26 574 C 29 583 30 591 31 598 C 58 601 37 619 19 642 C 20 653 21 663 21 674 C 10 702 3 722 0 734 C 10 741 23 747 40 752 C 40 762 38 775 37 792 L 50 781 L 99 764 L 127 760 C 134 764 138 766 138 766 Z" fill="url(#id-male-12.5_cropped_hoodie-0)" id="id-male-12.5_cropped_hoodie-5">
</path>
<path d="M 121 714 C 94 714 53 720 1 731 L 21 674 C 20 663 19 653 18 642 C 31 626 59 600 31 598 C 29 590 28 582 26 574 L 99 606 C 110 659 117 695 121 714 Z" fill="#2c5146" id="id-male-12.5_cropped_hoodie-6">
</path>
<path d="M 138 766 C 133 770 130 772 130 772 C 126 768 124 766 124 766 C 73 780 48 788 48 788 C 46 791 46 793 46 793 C 40 792 37 792 37 792 C 45 785 50 781 50 781 C 82 770 98 765 98 765 L 127 760 L 138 766 Z" fill="#0e2e21" id="id-male-12.5_cropped_hoodie-7">
</path>
<path d="M 99 764 L 84 727 L 40 752 C 13 740 0 734 0 734 C 1 732 1 731 1 731 C 58 720 99 714 121 714 L 99 606 C 143 576 168 558 174 554 C 162 597 157 629 159 648 L 121 670 C 130 688 138 701 142 708 C 143 716 137 726 122 738 L 138 766 L 127 760 C 108 763 99 764 99 764 Z" fill="#214740" id="id-male-12.5_cropped_hoodie-8">
</path>
<path d="M 76 737 C 85 764 90 777 90 777 C 70 784 61 787 61 787 L 51 751 C 68 742 76 737 76 737 Z" fill="#ffac00" id="id-male-12.5_cropped_hoodie-9">
</path>
<path d="M 18 681 L 82 662 L 19 642 L 21 674 C 19 679 18 681 18 681 Z" fill="#264a42" id="id-male-12.5_cropped_hoodie-10">
</path>
<path d="M 22 638 C 40 632 81 610 81 610 L 40 600 C 47 604 41 617 22 638 Z" fill="#1c433d" id="id-male-12.5_cropped_hoodie-11">
</path>
<path d="M 141 550 C 89 550 63 550 63 550 L 79 484 C 120 528 141 550 141 550 Z" fill="#315a4f" id="id-male-12.5_cropped_hoodie-12">
</path>
<path d="M 304 406 C 295 388 291 379 291 379 C 240 339 214 319 214 319 C 221 263 224 236 224 236 C 216 223 211 216 211 216 C 202 190 198 177 198 177 C 180 154 171 143 171 143 C 169 175 168 191 168 191 L 149 115 L 142 107 L 108 183 L 107 192 L 135 227 L 101 202 C 100 203 99 204 99 204 C 99 211 100 214 100 214 C 138 272 157 301 157 301 C 139 310 130 314 130 314 C 152 389 163 426 163 426 C 148 450 127 468 98 478 C 126 493 149 512 168 534 L 189 521 L 183 445 L 204 379 L 206 421 C 220 416 234 412 248 410 C 276 409 304 406 304 406 Z" fill="url(#id-male-12.5_cropped_hoodie-1)" id="id-male-12.5_cropped_hoodie-13">
</path>
<path d="M 583 420 C 575 296 571 234 571 234 C 587 195 595 175 595 175 C 592 281 591 334 591 334 C 631 270 651 237 651 237 C 612 315 592 353 592 353 C 599 456 603 507 603 507 C 620 558 628 584 628 584 C 649 583 659 583 659 583 L 628 618 L 628 606 L 601 520 L 588 348 L 587 428 C 584 423 583 420 583 420 Z" fill="#0d3632" id="id-male-12.5_cropped_hoodie-14">
</path>
<path d="M 202 386 C 213 286 218 237 218 237 C 205 213 199 202 199 202 C 200 264 201 295 201 295 C 170 268 154 254 154 254 L 202 340 C 202 371 202 386 202 386 Z" fill="#1c5049" id="id-male-12.5_cropped_hoodie-15">
</path>
<path d="M 135 227 L 107 192 C 106 194 106 195 106 195 L 101 202 C 124 219 135 227 135 227 Z" fill="#265b53" id="id-male-12.5_cropped_hoodie-16">
</path>
<path d="M 199 172 C 227 185 242 191 242 191 L 188 235 C 195 193 199 172 199 172 Z" fill="#639683" id="id-male-12.5_cropped_hoodie-17">
</path>
<path d="M 141 376 C 135 395 133 404 133 404 C 87 390 65 384 65 384 C 68 375 69 370 69 370 C 103 380 119 385 119 385 L 123 372 C 135 375 141 376 141 376 Z" fill="#e1e2e5" id="id-male-12.5_cropped_hoodie-18">
</path>
<path d="M 91 475 L 36 451 C 38 447 39 442 39 437 C 52 418 62 395 69 370 C 84 440 91 475 91 475 Z" fill="#578371" id="id-male-12.5_cropped_hoodie-19">
</path>
<path d="M 103 403 C 100 411 99 415 99 415 C 59 430 39 437 39 437 C 46 425 50 419 50 419 C 71 414 82 411 82 411 C 65 406 57 404 57 404 L 62 391 C 89 399 103 403 103 403 Z" fill="#e1e2e5" id="id-male-12.5_cropped_hoodie-20">
</path>
<path d="M 100 228 C 114 247 134 289 134 289 C 110 311 91 329 78 341 C 83 319 101 268 100 228 Z" fill="#699a87" id="id-male-12.5_cropped_hoodie-21">
</path>
<path d="M 365 402 C 365 379 365 368 365 368 L 373 402 C 368 402 365 402 365 402 Z" fill="#336153" id="id-male-12.5_cropped_hoodie-22">
</path>
<path d="M 431 401 C 433 382 435 373 435 373 L 440 401 C 434 401 431 401 431 401 Z" fill="#315d4f" id="id-male-12.5_cropped_hoodie-23">
</path>
<polygon points="664 775 655 762 698 764 752 787 752 795 696 771 666 768" fill="#0f3224" id="id-male-12.5_cropped_hoodie-24">
</polygon>
<path d="M 786 727 L 646 718 L 669 741 L 655 762 L 698 764 L 752 787 L 752 752 L 786 730 C 786 728 786 727 786 727 Z" fill="#16403b" id="id-male-12.5_cropped_hoodie-25">
</path>
<path d="M 698 764 L 711 732 C 730 741 740 745 740 745 L 738 781 L 698 764 Z" fill="#2c5950" id="id-male-12.5_cropped_hoodie-26">
</path>
<path d="M 765 667 C 743 700 732 717 732 717 L 784 721 C 771 685 765 667 765 667 Z" fill="#517f6f" id="id-male-12.5_cropped_hoodie-27">
</path>
<path d="M 649 695 C 712 691 743 689 743 689 L 628 656 L 651 692 C 650 694 649 695 649 695 Z" fill="#16403b" id="id-male-12.5_cropped_hoodie-28">
</path>
<polygon points="668 660 686 627 642 615 628 653" fill="#42695c" id="id-male-12.5_cropped_hoodie-29">
</polygon>
<polygon points="686 645 745 605 763 583 753 606 751 619 767 631 767 634" fill="#1a4943" id="id-male-12.5_cropped_hoodie-30">
</polygon>
<path d="M 693 390 L 710 320 C 704 299 701 289 701 289 C 701 277 700 271 700 271 L 684 283 C 690 355 693 390 693 390 Z" fill="#3c6053" id="id-male-12.5_cropped_hoodie-31">
</path>
<polygon points="628 618 717 550 623 501 606 515 628 583 659 583" fill="#204841" id="id-male-12.5_cropped_hoodie-32">
</polygon>
<polygon points="745 548 726 530 760 489" fill="#204b43" id="id-male-12.5_cropped_hoodie-33">
</polygon>
<path d="M 578 342 L 551 402 C 541 402 535 402 535 402 C 533 375 532 361 532 361 C 482 354 457 351 457 351 L 571 238 L 578 342 Z" fill="#2f5a4e" id="id-male-12.5_cropped_hoodie-34">
</path>
<path d="M 591 334 C 592 289 593 266 593 266 C 602 233 607 216 607 216 L 610 287 L 651 237 C 611 302 591 334 591 334 Z" fill="#335a50" id="id-male-12.5_cropped_hoodie-35">
</path>
<path d="M 249 101 C 254 106 257 109 257 109 C 211 130 188 141 188 141 L 184 133 C 228 112 249 101 249 101 Z" fill="#d6dbdc" id="id-male-12.5_cropped_hoodie-36">
</path>
<path d="M 207 77 C 322 120 380 142 380 142 L 243 18 L 242 1 L 218 60 L 218 71 L 207 77 Z" fill="#36685c" id="id-male-12.5_cropped_hoodie-37">
</path>
<path d="M 275 465 C 252 467 241 468 241 468 L 251 410 C 369 404 469 403 549 407 C 546 422 543 434 543 434 C 466 420 427 413 427 413 L 274 433 C 274 455 275 465 275 465 Z" fill="#551c1c" fill-opacity="0.5" id="id-male-12.5_cropped_hoodie-38">
</path>
<path d="M 220 54 L 309 112 L 207 77 L 218 71 L 218 60 C 219 56 220 54 220 54 Z" fill="#1d4842" id="id-male-12.5_cropped_hoodie-39">
</path>
<path d="M 553 2 L 576 59 C 574 67 573 71 573 71 C 465 118 411 142 411 142 L 398 140 L 463 96 L 526 42 L 553 2 Z" fill="#305c52" id="id-male-12.5_cropped_hoodie-40">
</path>
<path d="M 576 58 C 517 95 488 113 488 113 L 583 76 L 573 71 C 575 62 576 58 576 58 Z" fill="#1a443e" id="id-male-12.5_cropped_hoodie-41">
</path>
<path d="M 615 196 C 619 161 621 144 621 144 C 601 164 592 174 592 174 L 471 124 L 583 76 C 627 97 650 108 650 108 L 652 114 C 627 169 615 196 615 196 Z" fill="#5b8776" id="id-male-12.5_cropped_hoodie-42">
</path>
<path d="M 697 204 C 670 219 656 227 656 227 L 690 219 L 689 216 C 695 208 697 204 697 204 Z" fill="#1c443e" id="id-male-12.5_cropped_hoodie-43">
</path>
<polygon points="651 238 603 507 592 353" fill="#214840" id="id-male-12.5_cropped_hoodie-44">
</polygon>
<path d="M 206 421 C 206 424 205 426 205 426 C 218 423 225 422 225 422 C 244 419 260 416 272 413 C 388 399 549 407 549 407 L 566 417 L 587 428 L 585 421 C 578 416 566 410 549 403 C 449 397 336 403 248 410 C 223 415 206 421 206 421 Z" fill="#0c2f21" id="id-male-12.5_cropped_hoodie-45">
</path>
<path d="M 656 502 C 636 494 611 494 611 494 C 638 348 652 268 651 253 C 667 275 615 460 656 502 Z" fill="#3d6357" id="id-male-12.5_cropped_hoodie-46">
</path>
<path d="M 757 466 C 751 445 738 407 738 407 C 701 418 669 428 643 436 C 642 464 648 488 662 506 C 697 542 729 528 757 466 Z" fill="url(#id-male-12.5_cropped_hoodie-2)" id="id-male-12.5_cropped_hoodie-47">
</path>
<path d="M 271 457 C 243 457 230 457 230 457 L 230 414 C 242 412 248 410 248 410 L 272 409 C 271 441 271 457 271 457 Z" fill="#ffac00" id="id-male-12.5_cropped_hoodie-48">
</path>
<path d="M 694 339 C 678 339 669 339 669 339 C 670 377 670 397 670 397 C 686 410 695 416 695 416 C 712 408 721 404 721 404 C 716 385 713 375 713 375 C 707 379 703 381 703 381 L 696 379 C 695 352 694 339 694 339 Z" fill="#e1e2e5" id="id-male-12.5_cropped_hoodie-49">
</path>
<path d="M 727 367 C 721 370 718 372 718 372 C 723 392 726 402 726 402 L 735 396 C 730 377 727 367 727 367 Z" fill="#e1e2e5" id="id-male-12.5_cropped_hoodie-50">
</path>
<path d="M 694 325 C 678 326 670 326 670 326 C 670 281 670 259 670 259 C 687 248 695 243 695 243 C 700 267 702 279 702 279 L 691 283 C 693 311 694 325 694 325 Z" fill="#e1e2e5" id="id-male-12.5_cropped_hoodie-51">
</path>
<path d="M 363 200 C 346 200 338 200 338 200 C 336 202 335 204 335 204 C 319 194 311 189 311 189 C 319 179 324 174 324 174 L 363 174 C 363 191 363 200 363 200 Z" fill="#e1e2e5" id="id-male-12.5_cropped_hoodie-52">
</path>
<path d="M 332 210 C 330 213 329 215 329 215 C 365 277 383 309 383 309 C 387 309 389 309 389 309 C 389 327 389 336 389 336 C 376 336 369 336 369 336 C 319 253 293 211 293 211 L 305 197 C 323 206 332 210 332 210 Z" fill="#e1e2e5" id="id-male-12.5_cropped_hoodie-53">
</path>
<path d="M 412 231 C 399 249 392 258 392 258 L 379 233 C 401 232 412 231 412 231 Z" fill="#ffac00" id="id-male-12.5_cropped_hoodie-54">
</path>
<path d="M 394 309 C 394 327 395 336 395 336 C 407 336 414 336 414 336 C 463 256 488 216 488 216 C 480 204 476 199 476 199 C 461 207 454 211 454 211 C 456 215 457 217 457 217 L 401 309 C 397 309 394 309 394 309 Z" fill="#e1e2e5" id="id-male-12.5_cropped_hoodie-55">
</path>
<path d="M 472 269 C 465 278 462 283 462 283 C 481 294 490 299 490 299 L 500 286 C 481 275 472 269 472 269 Z" fill="#e1e2e5" id="id-male-12.5_cropped_hoodie-56">
</path>
<path d="M 316 276 C 321 284 323 287 323 287 C 305 298 295 304 295 304 L 289 293 C 307 282 316 276 316 276 Z" fill="#e1e2e5" id="id-male-12.5_cropped_hoodie-57">
</path>
<path d="M 415 173 C 415 192 415 202 415 203 L 415 203 L 415 203 L 396 202 C 395 185 395 176 395 175 L 395 174 C 395 174 395 174 395 174 L 395 174 L 395 174 C 408 174 415 173 415 173 L 415 173 L 415 173 Z M 408 180 L 402 180 C 402 180 402 186 402 197 L 402 197 L 408 197 L 408 197 L 408 197 C 408 197 408 197 408 197 L 408 196 C 408 196 408 196 408 196 L 408 196 C 408 196 408 196 408 196 L 408 196 C 408 194 408 189 408 180 L 408 180 Z" fill="#e1e2e5" id="id-male-12.5_cropped_hoodie-58">
</path>
<path d="M 382 184 C 373 183 368 182 368 182 C 368 177 368 174 368 174 C 383 174 391 174 391 174 C 391 183 391 188 391 188 C 383 192 379 194 379 194 C 387 194 391 193 391 193 C 391 199 391 201 391 201 C 375 202 368 202 368 202 L 368 191 C 377 186 382 184 382 184 Z" fill="#e1e2e5" id="id-male-12.5_cropped_hoodie-59">
</path>
<path d="M 424 174 C 422 192 422 202 422 202 C 439 201 448 201 448 201 C 448 204 448 205 448 205 C 463 195 471 190 471 190 L 458 174 C 435 174 424 174 424 174 Z" fill="#e1e2e5" id="id-male-12.5_cropped_hoodie-60">
</path>
<path d="M 88 283 C 122 294 139 300 139 300 C 133 312 130 318 130 318 L 83 310 C 87 292 88 283 88 283 Z" fill="#ffac00" id="id-male-12.5_cropped_hoodie-61">
</path>
<path d="M 123 329 C 119 342 118 349 118 349 C 88 346 73 345 73 345 L 80 317 C 109 325 123 329 123 329 Z" fill="#ee0000" id="id-male-12.5_cropped_hoodie-62">
</path>
<polygon points="272 409 272 412 230 423 230 414 248 410" fill="#e87700" id="id-male-12.5_cropped_hoodie-63">
</polygon>
<g transform="translate(307,98)" id="id-male-12.5_cropped_hoodie-64">
<path d="M 10 0 C 18 6 22 9 22 9 C 16 16 13 20 13 20 L 0 10 C 7 3 10 0 10 0 Z" fill="#82a6da" id="id-male-12.5_cropped_hoodie-65">
</path>
<path d="M 11 4 C 15 7 17 8 17 8 C 14 11 13 13 13 13 L 5 10 C 9 6 11 4 11 4 Z" fill="#4476ba" id="id-male-12.5_cropped_hoodie-66">
</path>
<path d="M 139 18 C 147 26 151 30 151 30 C 160 24 165 20 165 20 L 150 7 C 143 14 139 18 139 18 Z" fill="#769ee0" id="id-male-12.5_cropped_hoodie-67">
</path>
<path d="M 150 13 C 146 16 145 18 145 18 C 150 23 152 26 152 26 L 160 21 C 153 15 150 13 150 13 Z" fill="#4170b2" id="id-male-12.5_cropped_hoodie-68">
</path>
<path d="M 148 21 C 147 182 146 262 146 262 C 151 265 154 266 154 266 L 153 22 C 150 21 148 21 148 21 Z" fill="#769ee0" id="id-male-12.5_cropped_hoodie-69">
</path>
<path d="M 7 12 C 6 139 6 203 6 203 L 13 206 L 13 12 C 9 12 7 12 7 12 Z" fill="#769ee0" id="id-male-12.5_cropped_hoodie-70">
</path>
</g>
</g>
</g>
<defs>
</defs>
<g transform="translate(357,1265)" id="id-male-16_extra_belt-0">
<g transform="translate(125,81)" id="id-male-16_extra_belt-1">
<path d="M 146 201 C 142 221 140 231 140 231 C 97 240 50 236 0 222 L 2 191 C 69 208 117 212 146 201 Z" fill="#33011e" id="id-male-16_extra_belt-2">
</path>
<path d="M 46 200 C 45 222 45 232 45 232 C 68 236 91 237 115 235 L 117 207 C 89 207 65 205 46 200 Z" fill="#4c1733" id="id-male-16_extra_belt-3">
</path>
<path d="M 9 2 C 68 24 124 35 179 36 C 175 58 174 68 174 68 C 146 77 96 72 16 50 C 12 18 9 2 9 2 Z" fill="#33011e" id="id-male-16_extra_belt-4">
</path>
<path d="M 196 38 C 196 59 197 70 197 70 C 261 78 316 69 361 43 L 366 0 C 324 24 267 36 196 38 Z" fill="#33011e" id="id-male-16_extra_belt-5">
</path>
<path d="M 249 35 C 252 60 254 73 254 73 C 273 73 299 67 330 57 L 325 19 C 301 27 275 33 249 35 Z" fill="#4c1733" id="id-male-16_extra_belt-6">
</path>
<path d="M 135 33 C 125 45 119 58 116 71 C 87 66 66 62 53 59 L 56 18 C 92 27 118 32 135 33 Z" fill="#4c1733" id="id-male-16_extra_belt-7">
</path>
<path d="M 244 200 C 245 220 247 230 249 231 C 310 240 359 236 397 218 L 392 190 C 342 209 292 212 244 200 Z" fill="#33011e" id="id-male-16_extra_belt-8">
</path>
<path d="M 291 207 C 294 226 295 236 295 236 C 314 236 331 235 345 233 L 344 203 C 332 207 314 208 291 207 Z" fill="#4c1733" id="id-male-16_extra_belt-9">
</path>
</g>
<g transform="translate(1,0)" id="id-male-16_extra_belt-10">
<path d="M 63 16 C 66 19 67 20 67 20 C 67 20 67 20 68 21 L 68 22 C 68 25 69 28 69 31 L 69 31 C 69 32 69 33 69 34 L 69 34 C 70 35 70 36 70 36 L 70 36 C 70 37 70 37 70 37 C 81 40 86 42 86 42 C 86 72 86 88 86 90 L 86 90 C 86 90 86 91 86 91 L 86 91 L 86 91 C 92 109 95 118 95 119 L 95 119 L 95 119 C 95 120 95 120 95 121 L 95 122 C 95 122 95 122 95 122 L 95 122 C 93 127 92 132 97 166 C 93 170 91 172 90 172 L 90 172 C 90 172 90 172 90 172 C 96 204 98 220 98 220 C 94 222 92 223 92 223 C 97 251 100 264 100 264 C 91 265 87 265 87 265 C 87 276 88 282 88 283 L 88 283 L 88 283 C 81 283 78 283 78 283 C 78 297 79 303 79 304 L 79 304 L 79 304 C 61 301 52 299 52 299 C 42 292 37 288 37 288 C 33 274 28 262 19 253 C 15 160 13 114 13 114 C 6 108 3 105 3 105 C 1 65 0 45 0 45 C 6 31 16 8 40 23 C 40 16 48 16 56 16 L 57 16 C 57 16 57 16 57 16 L 58 16 C 60 16 61 16 63 16 Z M 40 31 C 29 21 20 26 13 45 L 13 45 L 40 47 L 40 47 L 40 47 C 40 47 40 41 40 31 Z" fill="#10100e" id="id-male-16_extra_belt-11">
</path>
<path d="M 84 0 C 86 8 86 12 86 12 C 103 13 114 16 118 20 C 132 82 140 114 140 114 C 122 247 114 313 114 313 C 90 300 78 294 78 294 L 63 12 C 77 4 84 0 84 0 Z" fill="#33011e" id="id-male-16_extra_belt-12">
</path>
<path d="M 89 12 C 101 22 107 27 107 27 L 118 19 C 99 14 89 12 89 12 Z" fill="#88598f" id="id-male-16_extra_belt-13">
</path>
<path d="M 107 26 C 114 23 118 21 118 21 C 134 92 142 128 142 128 L 135 129 C 116 61 107 26 107 26 Z" fill="#663052" id="id-male-16_extra_belt-14">
</path>
<path d="M 133 129 C 138 129 140 129 140 129 C 129 230 124 288 125 301 L 114 313 C 126 190 133 129 133 129 Z" fill="#462d66" id="id-male-16_extra_belt-15">
</path>
<path d="M 119 145 C 123 152 125 155 125 155 C 111 229 104 266 104 266 L 98 251 C 112 180 119 145 119 145 Z" fill="#582242" id="id-male-16_extra_belt-16">
</path>
<path d="M 112 181 C 99 168 92 162 92 162 L 90 174 C 105 179 112 181 112 181 Z" fill="#471230" id="id-male-16_extra_belt-17">
</path>
<path d="M 104 226 C 93 216 88 211 88 211 L 88 223 C 99 225 104 226 104 226 Z" fill="#44112d" id="id-male-16_extra_belt-18">
</path>
<path d="M 117 141 C 100 124 92 115 92 115 L 90 130 C 108 137 117 141 117 141 Z" fill="#481331" id="id-male-16_extra_belt-19">
</path>
<path d="M 106 89 C 105 82 104 78 104 78 C 90 74 83 73 83 73 L 83 81 C 98 86 106 89 106 89 Z" fill="#45102e" id="id-male-16_extra_belt-20">
</path>
<path d="M 97 29 C 94 56 93 70 93 70 C 83 76 78 79 78 79 C 91 84 97 87 97 87 C 92 107 90 117 90 117 C 84 195 87 244 96 265 C 100 268 102 269 102 269 C 100 294 99 306 99 306 C 84 298 77 294 77 294 C 74 149 73 77 73 77 L 66 19 C 87 26 97 29 97 29 Z" fill="#24021d" id="id-male-16_extra_belt-21">
</path>
<path d="M 82 113 C 85 209 86 258 86 258 C 75 252 70 249 70 249 L 67 113 C 77 113 82 113 82 113 Z" fill="#6e7a8a" id="id-male-16_extra_belt-22">
</path>
<path d="M 77 45 C 83 66 86 76 86 76 C 83 81 81 84 81 84 C 82 105 82 116 82 116 L 74 107 C 76 66 77 45 77 45 Z" fill="#612443" id="id-male-16_extra_belt-23">
</path>
<path d="M 67 113 C 61 113 57 113 57 113 L 61 247 L 70 249 C 68 159 67 113 67 113 Z" fill="#3b3b31" id="id-male-16_extra_belt-24">
</path>
<path d="M 52 115 C 52 145 52 160 52 160 C 42 160 37 159 37 159 L 37 115 C 47 115 52 115 52 115 Z" fill="#2b2b23" id="id-male-16_extra_belt-25">
</path>
<path d="M 52 115 C 52 120 52 122 52 122 L 37 124 L 37 115 C 47 115 52 115 52 115 Z" fill="#556684" id="id-male-16_extra_belt-26">
</path>
<path d="M 59 256 C 59 277 59 288 59 288 C 46 287 39 287 39 287 L 39 255 C 52 256 59 256 59 256 Z" fill="#333329" id="id-male-16_extra_belt-27">
</path>
<path d="M 64 260 L 73 260 L 67 276 C 65 265 64 260 64 260 Z" fill="#2e2e26" id="id-male-16_extra_belt-28">
</path>
<path d="M 49 291 C 55 292 59 292 59 292 L 54 297 C 51 293 49 291 49 291 Z" fill="#636f7c" id="id-male-16_extra_belt-29">
</path>
<path d="M 36 247 C 24 250 18 252 18 252 C 13 124 10 60 10 60 L 26 62 C 33 185 36 247 36 247 Z" fill="#576a8b" id="id-male-16_extra_belt-30">
</path>
<path d="M 11 67 C 15 66 16 66 16 66 C 23 188 27 249 27 249 L 22 251 C 15 128 11 67 11 67 Z" fill="#21252a" id="id-male-16_extra_belt-31">
</path>
<path d="M 28 58 C 29 62 29 64 29 64 C 46 63 55 63 55 63 L 55 57 C 37 58 28 58 28 58 Z" fill="#424d63" id="id-male-16_extra_belt-32">
</path>
<path d="M 36 49 C 36 42 36 38 36 38 C 19 42 11 45 11 45 L 12 52 C 28 50 36 49 36 49 Z" fill="#34342c" id="id-male-16_extra_belt-33">
</path>
<path d="M 44 41 C 44 51 44 56 44 56 C 59 67 67 73 67 73 L 66 41 C 51 41 44 41 44 41 Z" fill="#34342a" id="id-male-16_extra_belt-34">
</path>
<path d="M 63 43 C 68 43 70 43 70 43 C 69 64 69 74 69 74 L 64 70 C 64 52 63 43 63 43 Z" fill="#5e6670" id="id-male-16_extra_belt-35">
</path>
</g>
<g transform="translate(485,1)" id="id-male-16_extra_belt-36">
<path d="M 49 0 C 49 5 50 8 50 8 C 39 10 28 12 14 17 C 5 88 0 123 0 123 C 17 176 28 243 39 309 C 46 316 50 319 50 319 C 69 306 79 299 79 299 C 73 120 69 31 69 31 C 65 27 63 25 63 25 L 62 12 C 60 6 56 2 49 0 Z" fill="#33011e" id="id-male-16_extra_belt-37">
</path>
<path d="M 94 16 C 95 21 96 24 96 24 C 116 10 127 23 135 44 C 135 83 135 103 135 105 L 135 105 C 135 105 135 105 135 105 L 135 105 L 135 105 C 128 111 124 114 124 114 C 119 206 117 251 117 251 C 109 263 103 275 99 288 C 89 296 82 300 76 303 C 63 304 56 304 55 304 L 55 304 L 55 304 C 56 291 56 284 56 284 C 50 284 47 284 47 284 C 47 283 48 282 48 280 L 48 280 C 49 274 50 269 47 265 C 39 265 35 264 35 264 C 40 236 42 223 42 223 C 40 222 38 221 38 221 L 37 221 C 37 221 37 221 37 221 L 37 221 L 37 221 C 43 188 46 172 46 172 C 42 167 40 165 40 165 C 43 138 45 125 45 125 L 40 118 C 46 102 49 79 48 42 C 62 35 69 31 69 31 C 69 22 69 18 69 18 C 77 15 86 15 94 16 Z M 96 30 L 96 49 C 115 50 124 50 124 50 C 122 29 112 23 96 30 Z" fill="#10110c" id="id-male-16_extra_belt-11">
</path>
<path d="M 69 31 L 63 25 C 63 16 62 12 62 12 C 55 14 52 15 52 15 C 50 31 49 39 49 39 C 44 41 41 42 41 42 C 42 69 42 82 42 82 L 48 78 L 69 31 Z" fill="#25031e" id="id-male-16_extra_belt-39">
</path>
<path d="M 62 46 C 57 48 55 49 55 49 C 55 91 54 112 54 112 L 61 108 C 62 67 62 46 62 46 Z" fill="#612443" id="id-male-16_extra_belt-40">
</path>
<path d="M 23 24 L 14 17 C 38 11 50 8 50 8 L 58 5 L 62 12 L 23 24 Z" fill="#88598f" id="id-male-16_extra_belt-41">
</path>
<path d="M 23 24 C 17 19 14 17 14 17 C 7 86 3 121 3 121 L 11 121 L 23 24 Z" fill="#663052" id="id-male-16_extra_belt-42">
</path>
<path d="M 10 125 L 3 132 C 21 195 29 252 39 309 L 50 319 C 23 190 10 125 10 125 Z" fill="#472d66" id="id-male-16_extra_belt-43">
</path>
<path d="M 22 151 C 19 156 18 158 18 158 L 39 239 L 42 223 C 29 175 22 151 22 151 Z" fill="#5d2a4b" id="id-male-16_extra_belt-44">
</path>
<path d="M 25 151 C 25 145 25 142 25 142 C 38 135 44 132 44 132 L 43 140 C 31 148 25 151 25 151 Z" fill="#4a1531" id="id-male-16_extra_belt-45">
</path>
<path d="M 32 188 C 34 193 35 195 35 195 C 40 192 43 190 43 190 L 45 182 C 36 186 32 188 32 188 Z" fill="#4a1531" id="id-male-16_extra_belt-46">
</path>
<path d="M 34 96 L 33 86 C 43 82 47 79 47 79 L 47 89 C 38 94 34 96 34 96 Z" fill="#4a1531" id="id-male-16_extra_belt-47">
</path>
<path d="M 25 50 C 25 44 25 42 25 42 C 42 31 51 26 51 26 L 50 35 C 33 45 25 50 25 50 Z" fill="#44122f" id="id-male-16_extra_belt-48">
</path>
<path d="M 55 112 C 64 112 69 112 69 112 C 68 203 67 248 67 248 L 52 256 C 54 160 55 112 55 112 Z" fill="#6d7a8a" id="id-male-16_extra_belt-49">
</path>
<path d="M 67 248 C 74 247 77 246 77 246 L 78 114 L 69 114 C 68 203 67 248 67 248 Z" fill="#444337" id="id-male-16_extra_belt-50">
</path>
<path d="M 62 303 C 58 304 55 304 55 304 C 57 283 57 273 57 273 C 53 266 50 263 50 263 C 50 253 51 247 51 247 C 55 249 57 250 57 250 C 56 261 59 268 63 275 L 62 303 Z" fill="#652e4b" id="id-male-16_extra_belt-51">
</path>
<path d="M 77 255 C 91 255 98 255 98 255 C 96 276 95 286 95 286 L 78 287 C 77 266 77 255 77 255 Z" fill="#33332b" id="id-male-16_extra_belt-52">
</path>
<path d="M 65 260 C 69 260 72 259 72 259 C 72 269 71 274 71 274 L 65 275 C 65 265 65 260 65 260 Z" fill="#2e2e26" id="id-male-16_extra_belt-53">
</path>
<path d="M 98 159 C 88 159 83 159 83 159 C 84 130 84 115 84 115 L 99 114 C 98 144 98 159 98 159 Z" fill="#2b2b23" id="id-male-16_extra_belt-54">
</path>
<path d="M 99 112 C 99 118 99 122 99 122 L 84 120 L 84 114 C 94 113 99 112 99 112 Z" fill="#556684" id="id-male-16_extra_belt-55">
</path>
<path d="M 91 42 C 91 50 91 55 91 55 C 76 68 68 75 68 75 L 68 43 C 83 42 91 42 91 42 Z" fill="#34342c" id="id-male-16_extra_belt-56">
</path>
<path d="M 81 56 C 80 59 79 61 79 61 C 99 62 108 63 108 63 L 109 59 C 90 57 81 56 81 56 Z" fill="#4a5771" id="id-male-16_extra_belt-57">
</path>
<path d="M 124 50 C 123 45 123 43 123 43 C 108 40 100 38 100 38 L 100 49 C 116 49 124 50 124 50 Z" fill="#34342c" id="id-male-16_extra_belt-58">
</path>
<path d="M 125 60 C 115 62 110 63 110 63 L 100 248 L 117 251 C 123 124 125 60 125 60 Z" fill="#5c7093" id="id-male-16_extra_belt-59">
</path>
<path d="M 126 66 C 122 66 121 66 121 66 L 111 250 L 118 250 C 123 128 126 66 126 66 Z" fill="#121211" id="id-male-16_extra_belt-60">
</path>
<path d="M 69 44 C 71 43 72 43 72 43 L 73 71 L 69 75 C 69 54 69 44 69 44 Z" fill="#5b626a" id="id-male-16_extra_belt-61">
</path>
</g>
</g>
<defs>
</defs>
<g transform="translate(566,388)" id="id-male-21_80_facial_hair-0">
<path d="M 1 1 L 8 5 L 8 20 L 40 85 L 39 77 L 83 53 C 86 54 89 54 89 55 C 92 56 92 57 92 57 C 93 57 98 53 99 53 C 103 52 120 61 149 78 L 149 78 L 149 86 L 170 42 L 174 16 L 183 5 C 182 8 180 23 176 50 C 175 61 175 67 174 70 L 174 70 C 174 71 174 71 174 71 C 172 78 168 91 162 111 C 158 115 154 120 148 124 L 148 124 L 148 124 C 148 124 148 124 148 124 L 148 124 C 146 125 137 135 119 153 C 119 153 118 151 116 148 C 116 148 110 151 100 158 C 100 158 99 156 96 153 C 96 153 93 155 88 158 C 88 158 68 145 29 120 C 29 120 26 117 21 111 C 21 111 21 110 21 110 L 21 110 C 20 106 15 86 6 51 C 6 51 6 51 6 51 L 6 51 C 6 47 4 30 1 1 L 1 1 Z M 83 63 C 62 70 53 79 47 89 C 47 89 50 98 55 116 C 55 116 60 113 70 106 L 70 106 L 75 104 C 75 104 75 105 76 107 C 76 107 80 105 88 100 C 88 100 90 102 93 107 C 93 107 96 105 101 101 C 101 101 102 102 103 104 C 103 104 103 104 103 103 L 104 103 C 104 102 105 102 107 100 C 107 100 116 106 133 117 L 133 117 L 133 117 C 133 116 136 107 141 90 C 138 83 119 71 103 64 C 100 63 96 64 92 65 L 91 66 L 91 66 L 91 66 C 91 66 88 65 83 63 Z" fill="#9b9daa" id="id-male-21_80_facial_hair-1">
</path>
<path d="M 9 63 C 17 83 22 93 22 93 C 21 82 21 73 22 60 C 31 77 36 85 36 85 C 34 98 33 105 33 105 C 41 101 45 99 45 99 L 54 136 L 29 120 L 21 111" fill="#a2b4de" id="id-male-21_80_facial_hair-2">
</path>
<path d="M 88 100 C 85 102 83 102 83 102 C 87 126 88 138 88 138 C 92 134 94 132 94 132 C 95 133 95 134 95 134 C 94 135 94 136 94 136 C 100 144 103 149 103 149 C 112 142 117 139 117 139 L 127 146 L 152 124 C 157 121 157 117 162 111 C 164 100 166 95 166 95 L 158 66 L 148 87 L 149 78 C 136 66 121 58 104 53 L 99 53 C 96 55 94 56 94 56 C 91 55 89 54 89 54 L 78 65 L 83 63 C 88 65 91 66 91 66 C 95 64 100 63 103 64 C 115 69 137 82 141 90 L 133 117 L 107 100 L 103 104 L 101 101 L 93 107 C 90 102 88 100 88 100 Z" fill="#bebcbd" id="id-male-21_80_facial_hair-3">
</path>
<path d="M 95 134 C 100 120 103 113 103 113 C 104 129 104 137 104 137 C 118 120 126 112 126 112 C 128 114 130 115 130 115 L 131 143 L 127 146 L 117 139 L 103 149 L 94 136 C 95 134 95 134 95 134 Z" fill="#dedad7" id="id-male-21_80_facial_hair-4">
</path>
<path d="M 107 100 C 106 101 106 101 106 101 C 108 119 109 128 109 128 L 124 111 C 113 104 107 100 107 100 Z" fill="#dedad6" id="id-male-21_80_facial_hair-5">
</path>
<path d="M 125 76 C 133 77 136 78 136 78 C 135 72 134 69 134 69 L 141 71 L 149 78 C 149 84 148 87 148 87 C 147 102 147 110 147 110 L 142 88 C 131 80 125 76 125 76 Z" fill="#dedad7" id="id-male-21_80_facial_hair-6">
</path>
<polygon points="164 54 158 66 166 95 174 71" fill="#a0a2ad" id="id-male-21_80_facial_hair-7">
</polygon>
</g>
<defs>
</defs>
<g transform="translate(491,218)" id="id-male-25_33_hair_front-0">
<g transform="translate(224,227)" id="id-male-25_33_hair_front-1">
</g>
<g transform="translate(30,18)" fill="#4f4148" id="id-male-25_33_hair_front-2">
<path d="M 252 150 C 241 116 226 70 221 51 C 216 31 193 19 171 11 C 150 6 138 -3 117 1 C 87 8 54 28 37 55 C 20 87 6 155 0 183 C 11 190 26 191 37 196 C 36 194 36 193 35 191 C 34 189 29 182 28 179 L 27 166 L 28 151 L 32 147 C 33 146 35 146 36 146 C 39 148 44 151 45 152 C 45 152 43 167 47 184 C 50 192 53 219 53 225 L 78 215 C 74 168 43 104 63 62 C 70 55 103 55 103 55 L 100 48 C 108 52 175 49 175 49 C 190 86 199 124 212 167 C 218 194 244 214 255 210 C 257 205 262 196 265 191 C 265 191 259 173 252 150 Z" id="id-male-25_33_hair_front-3">
</path>
</g>
<g id="id-male-25_33_hair_front-4">
<path d="M 231 377 C 187 349 205 317 227 282 C 240 261 251 238 246 218 C 240 190 225 137 219 101 C 213 66 237 98 240 116 C 243 134 278 258 274 273 C 270 287 231 377 231 377 Z" fill="#594b54" id="id-male-25_33_hair_front-3">
</path>
<path d="M 315 314 C 308 292 293 237 290 222 C 290 220 290 219 290 218 C 290 218 264 178 261 162 C 262 163 288 204 295 210 C 295 210 308 194 307 179 C 289 159 266 109 271 68 C 268 61 249 28 211 15 L 190 19 C 190 19 160 4 157 0 C 137 7 118 17 100 28 C 87 38 75 49 65 63 C 64 87 63 133 67 157 C 71 180 79 199 81 219 C 84 241 69 299 66 315 C 66 315 64 321 60 333 C 58 336 60 394 73 406 C 68 366 81 320 111 280 C 111 274 112 259 110 243 C 107 214 99 178 94 162 C 92 183 91 236 82 258 C 90 216 79 84 91 59 C 94 53 95 41 104 43 C 113 45 144 58 148 62 L 127 34 L 157 54 L 138 29 L 167 53 L 180 24 L 174 53 L 188 52 L 153 65 L 206 53 C 213 72 226 112 233 131 L 233 107 C 256 213 293 271 228 375 L 250 392 C 250 389 248 365 248 364 C 252 351 271 301 282 291 C 283 282 284 259 280 246 C 284 254 313 311 317 337 C 318 336 318 329 317 322 C 316 320 316 316 315 314 Z M 105 276 C 103 280 100 285 98 289 C 98 288 103 256 102 253 C 102 253 105 273 105 276 Z M 240 92 C 240 92 267 138 275 175 C 275 175 253 161 240 92 Z M 216 40 L 225 45 L 199 47 L 216 40 Z" fill="#847989" id="id-male-25_33_hair_front-6" fill-rule="nonzero">
</path>
<path d="M 64 164 C 57 167 58 185 58 187 C 29 163 44 137 54 107 C 62 124 62 149 64 164 Z" fill="#847989" id="id-male-25_33_hair_front-3">
</path>
</g>
<g transform="translate(64,1)" fill="#b39f9b" id="id-male-25_33_hair_front-8">
<path d="M 17 259 C 17 259 26 294 33 293 L 17 325 C 17 325 22 302 0 318 C 0 318 15 274 17 259 Z" id="id-male-25_33_hair_front-3">
</path>
<path d="M 198 193 C 198 193 199 238 214 279 C 214 279 213 221 198 193 Z" id="id-male-25_33_hair_front-3">
</path>
<path d="M 231 208 L 209 154 L 223 174 L 223 147 C 228 158 234 168 242 178 C 243 193 231 208 231 208 Z" id="id-male-25_33_hair_front-3">
</path>
<polygon points="142 52 162 46 171 79 158 97" id="id-male-25_33_hair_front-3">
</polygon>
<path d="M 206 66 C 199 67 178 63 174 61 L 179 90 L 164 47 L 152 36 L 120 47 L 148 14 C 173 24 194 42 206 66 Z" id="id-male-25_33_hair_front-3">
</path>
<path d="M 80 18 L 96 36 L 75 21 L 45 21 C 59 13 74 6 90 0 L 111 23 L 78 16 L 80 18 Z" id="id-male-25_33_hair_front-3">
</path>
<path d="M 27 45 C 23 53 20 62 20 66 C 13 67 8 71 3 77 C 3 73 3 63 2 59 C 12 47 23 36 36 27 C 34 31 30 38 27 45 Z" id="id-male-25_33_hair_front-3">
</path>
</g>
</g>
<defs>
</defs>

</svg>
