<?xml version="1.0" encoding="UTF-8"?>
<svg xmlns="http://www.w3.org/2000/svg" xmlns:xlink="http://www.w3.org/1999/xlink" width="1320px" height="1760px" viewBox="0 0 1320 1760" version="1.1">
<defs>
</defs>

<defs>
</defs>
<path d="M 539 672 L 779 672 C 774 616 768 568 761 527 C 727 519 662 519 565 527 C 560 569 556 603 551 628 C 547 653 543 668 539 672 Z" fill="#1a1d36" id="id-female-5_31_angled_bangs_back-0">
</path>
<defs>
<linearGradient x1="100%" y1="46%" x2="12%" y2="47%" id="id-female-6.6_base_1-0">
<stop stop-color="#cc6f5c" offset="0%">
</stop>
<stop stop-color="#dc8069" offset="21%">
</stop>
<stop stop-color="#dd9482" offset="46%">
</stop>
<stop stop-color="#dd8570" offset="80%">
</stop>
<stop stop-color="#d47863" offset="100%">
</stop>
</linearGradient>
<linearGradient x1="53%" y1="81%" x2="50%" y2="21%" id="id-female-6.6_base_1-1">
<stop stop-color="#bf6352" offset="0%">
</stop>
<stop stop-color="#d17963" offset="24%">
</stop>
<stop stop-color="#d27c66" offset="100%">
</stop>
</linearGradient>
<linearGradient x1="52%" y1="-4%" x2="46%" y2="70%" id="id-female-6.6_base_1-2">
<stop stop-color="#be6352" offset="0%">
</stop>
<stop stop-color="#8e382c" offset="100%">
</stop>
</linearGradient>
<linearGradient x1="46%" y1="43%" x2="15%" y2="43%" id="id-female-6.6_base_1-3">
<stop stop-color="#c16252" offset="0%">
</stop>
<stop stop-color="#bf6050" offset="8%">
</stop>
<stop stop-color="#a6493b" offset="100%">
</stop>
</linearGradient>
<linearGradient x1="54%" y1="37%" x2="12%" y2="72%" id="id-female-6.6_base_1-4">
<stop stop-color="#3c050a" offset="0%">
</stop>
<stop stop-color="#9a4336" offset="100%">
</stop>
</linearGradient>
<linearGradient x1="40%" y1="14%" x2="61%" y2="85%" id="id-female-6.6_base_1-5">
<stop stop-color="#54120f" offset="0%">
</stop>
<stop stop-color="#741d19" offset="100%">
</stop>
</linearGradient>
<linearGradient x1="27%" y1="47%" x2="91%" y2="49%" id="id-female-6.6_base_1-6">
<stop stop-color="#e19d89" offset="0%">
</stop>
<stop stop-color="#e9a18e" offset="100%">
</stop>
</linearGradient>
<linearGradient x1="47%" y1="60%" x2="49%" y2="79%" id="id-female-6.6_base_1-7">
<stop stop-color="#ce7e65" offset="0%">
</stop>
<stop stop-color="#c76b58" offset="60%">
</stop>
<stop stop-color="#de8970" offset="100%">
</stop>
</linearGradient>
<linearGradient x1="29%" y1="56%" x2="69%" y2="53%" id="id-female-6.6_base_1-8">
<stop stop-color="#d48f77" offset="0%">
</stop>
<stop stop-color="#c06352" offset="8%">
</stop>
<stop stop-color="#cd6f5d" offset="18%">
</stop>
<stop stop-color="#ba5e4e" offset="38%">
</stop>
<stop stop-color="#c86c59" offset="65%">
</stop>
<stop stop-color="#b8594a" offset="81%">
</stop>
<stop stop-color="#ad5343" offset="100%">
</stop>
</linearGradient>
<linearGradient x1="47%" y1="45%" x2="54%" y2="46%" id="id-female-6.6_base_1-9">
<stop stop-color="#bf6151" offset="0%">
</stop>
<stop stop-color="#b75d4c" offset="62%">
</stop>
<stop stop-color="#af5646" offset="77%">
</stop>
<stop stop-color="#c37b60" offset="100%">
</stop>
</linearGradient>
<linearGradient x1="51%" y1="7%" x2="50%" y2="100%" id="id-female-6.6_base_1-10">
<stop stop-color="#b95a4b" offset="0%">
</stop>
<stop stop-color="#d38369" offset="75%">
</stop>
<stop stop-color="#d5856b" offset="100%" stop-opacity="0.452">
</stop>
</linearGradient>
<linearGradient x1="51%" y1="11%" x2="49%" y2="93%" id="id-female-6.6_base_1-11">
<stop stop-color="#cf725f" offset="0%">
</stop>
<stop stop-color="#c26453" offset="73%">
</stop>
<stop stop-color="#d27b64" offset="100%">
</stop>
</linearGradient>
<linearGradient x1="51%" y1="-5%" x2="48%" y2="96%" id="id-female-6.6_base_1-12">
<stop stop-color="#c86b5a" offset="0%">
</stop>
<stop stop-color="#b6594a" offset="100%">
</stop>
</linearGradient>
<linearGradient x1="50%" y1="19%" x2="50%" y2="69%" id="id-female-6.6_base_1-13">
<stop stop-color="#9b453a" offset="0%">
</stop>
<stop stop-color="#621b1a" offset="45%">
</stop>
<stop stop-color="#92352a" offset="100%">
</stop>
</linearGradient>
<linearGradient x1="46%" y1="74%" x2="39%" y2="35%" id="id-female-6.6_base_1-14">
<stop stop-color="#9c4034" offset="0%">
</stop>
<stop stop-color="#af5244" offset="51%">
</stop>
<stop stop-color="#9f4438" offset="100%" stop-opacity="0">
</stop>
</linearGradient>
<linearGradient x1="46%" y1="16%" x2="49%" y2="82%" id="id-female-6.6_base_1-15">
<stop stop-color="#9b473d" offset="0%" stop-opacity="0.186">
</stop>
<stop stop-color="#5f2520" offset="100%">
</stop>
</linearGradient>
<linearGradient x1="41%" y1="19%" x2="50%" y2="100%" id="id-female-6.6_base_1-16">
<stop stop-color="#bb6351" offset="0%">
</stop>
<stop stop-color="#90372c" offset="100%">
</stop>
</linearGradient>
<linearGradient x1="50%" y1="31%" x2="45%" y2="50%" id="id-female-6.6_base_1-17">
<stop stop-color="#cf7560" offset="0%">
</stop>
<stop stop-color="#d68a70" offset="100%">
</stop>
</linearGradient>
<linearGradient x1="51%" y1="22%" x2="50%" y2="100%" id="id-female-6.6_base_1-18">
<stop stop-color="#9b4237" offset="0%">
</stop>
<stop stop-color="#b77057" offset="100%">
</stop>
</linearGradient>
<linearGradient x1="49%" y1="0%" x2="50%" y2="100%" id="id-female-6.6_base_1-19">
<stop stop-color="#d27a64" offset="0%" stop-opacity="0.648">
</stop>
<stop stop-color="#cc715d" offset="100%">
</stop>
</linearGradient>
<linearGradient x1="44%" y1="15%" x2="50%" y2="100%" id="id-female-6.6_base_1-20">
<stop stop-color="#b05345" offset="0%">
</stop>
<stop stop-color="#9f4739" offset="100%">
</stop>
</linearGradient>
<linearGradient x1="52%" y1="21%" x2="49%" y2="83%" id="id-female-6.6_base_1-21">
<stop stop-color="#cb725d" offset="0%">
</stop>
<stop stop-color="#d6866c" offset="48%">
</stop>
<stop stop-color="#d6896e" offset="100%" stop-opacity="0.854">
</stop>
</linearGradient>
<linearGradient x1="85%" y1="60%" x2="15%" y2="60%" id="id-female-6.6_base_1-22">
<stop stop-color="#cc6f5c" offset="0%">
</stop>
<stop stop-color="#b65849" offset="100%">
</stop>
</linearGradient>
<linearGradient x1="48%" y1="-20%" x2="59%" y2="91%" id="id-female-6.6_base_1-23">
<stop stop-color="#d27f6c" offset="0%">
</stop>
<stop stop-color="#b35748" offset="60%">
</stop>
<stop stop-color="#b15546" offset="72%">
</stop>
<stop stop-color="#c26455" offset="100%">
</stop>
</linearGradient>
<linearGradient x1="55%" y1="48%" x2="46%" y2="33%" id="id-female-6.6_base_1-24">
<stop stop-color="#cc705c" offset="0%">
</stop>
<stop stop-color="#cf6b5a" offset="86%">
</stop>
<stop stop-color="#c56958" offset="100%">
</stop>
</linearGradient>
<linearGradient x1="50%" y1="19%" x2="50%" y2="78%" id="id-female-6.6_base_1-25">
<stop stop-color="#7c241c" offset="0%">
</stop>
<stop stop-color="#9a3329" offset="50%">
</stop>
<stop stop-color="#842c26" offset="100%">
</stop>
<stop stop-color="#842c26" offset="100%">
</stop>
</linearGradient>
<linearGradient x1="50%" y1="10%" x2="50%" y2="43%" id="id-female-6.6_base_1-26">
<stop stop-color="#c06756" offset="0%">
</stop>
<stop stop-color="#b85c4d" offset="15%">
</stop>
<stop stop-color="#99362a" offset="68%">
</stop>
<stop stop-color="#a8483a" offset="100%">
</stop>
</linearGradient>
<linearGradient x1="89%" y1="50%" x2="7%" y2="52%" id="id-female-6.6_base_1-27">
<stop stop-color="#842c22" offset="0%">
</stop>
<stop stop-color="#b85c4d" offset="53%" stop-opacity="0.199">
</stop>
<stop stop-color="#99362a" offset="75%">
</stop>
<stop stop-color="#8d3126" offset="100%">
</stop>
</linearGradient>
<linearGradient x1="44%" y1="70%" x2="86%" y2="30%" id="id-female-6.6_base_1-28">
<stop stop-color="#d78e7b" offset="0%">
</stop>
<stop stop-color="#e0907c" offset="100%">
</stop>
</linearGradient>
<linearGradient x1="19%" y1="86%" x2="73%" y2="32%" id="id-female-6.6_base_1-29">
<stop stop-color="#8d342a" offset="0%">
</stop>
<stop stop-color="#c77c6a" offset="40%">
</stop>
<stop stop-color="#e19c86" offset="100%">
</stop>
</linearGradient>
<linearGradient x1="35%" y1="94%" x2="47%" y2="12%" id="id-female-6.6_base_1-30">
<stop stop-color="#cd8470" offset="0%">
</stop>
<stop stop-color="#c77c6a" offset="40%">
</stop>
<stop stop-color="#df907c" offset="100%">
</stop>
</linearGradient>
<linearGradient x1="50%" y1="54%" x2="27%" y2="9%" id="id-female-6.6_base_1-31">
<stop stop-color="#ddab90" offset="0%">
</stop>
<stop stop-color="#ddab90" offset="100%" stop-opacity="0.078">
</stop>
</linearGradient>
<linearGradient x1="20%" y1="36%" x2="93%" y2="69%" id="id-female-6.6_base_1-32">
<stop stop-color="#e19d8b" offset="0%">
</stop>
<stop stop-color="#da846f" offset="70%">
</stop>
<stop stop-color="#9b3f34" offset="100%">
</stop>
</linearGradient>
<linearGradient x1="36%" y1="84%" x2="25%" y2="44%" id="id-female-6.6_base_1-33">
<stop stop-color="#c96d62" offset="0%" stop-opacity="0.509">
</stop>
<stop stop-color="#90372c" offset="35%" stop-opacity="0.675">
</stop>
<stop stop-color="#762e17" offset="100%" stop-opacity="0">
</stop>
</linearGradient>
<linearGradient x1="63%" y1="95%" x2="43%" y2="20%" id="id-female-6.6_base_1-34">
<stop stop-color="#c06352" offset="0%">
</stop>
<stop stop-color="#cf7762" offset="46%">
</stop>
<stop stop-color="#c26655" offset="100%">
</stop>
</linearGradient>
<linearGradient x1="40%" y1="0%" x2="50%" y2="86%" id="id-female-6.6_base_1-35">
<stop stop-color="#c56656" offset="0%">
</stop>
<stop stop-color="#d27a64" offset="100%">
</stop>
</linearGradient>
<linearGradient x1="50%" y1="0%" x2="50%" y2="92%" id="id-female-6.6_base_1-36">
<stop stop-color="#d27662" offset="0%">
</stop>
<stop stop-color="#d37b65" offset="100%">
</stop>
</linearGradient>
<linearGradient x1="33%" y1="79%" x2="21%" y2="44%" id="id-female-6.6_base_1-37">
<stop stop-color="#be6457" offset="0%">
</stop>
<stop stop-color="#983f32" offset="28%" stop-opacity="0.928">
</stop>
<stop stop-color="#762e17" offset="100%" stop-opacity="0">
</stop>
</linearGradient>
<linearGradient x1="4%" y1="47%" x2="92%" y2="45%" id="id-female-6.6_base_1-38">
<stop stop-color="#732617" offset="0%">
</stop>
<stop stop-color="#832e1d" offset="17%" stop-opacity="0.753">
</stop>
<stop stop-color="#9e4b3d" offset="48%" stop-opacity="0.386">
</stop>
<stop stop-color="#8e3d31" offset="78%" stop-opacity="0.762">
</stop>
<stop stop-color="#823328" offset="100%">
</stop>
</linearGradient>
<linearGradient x1="60%" y1="45%" x2="67%" y2="53%" id="id-female-6.6_base_1-39">
<stop stop-color="#e79081" offset="0%">
</stop>
<stop stop-color="#f6aca6" offset="100%">
</stop>
</linearGradient>
<linearGradient x1="48%" y1="15%" x2="54%" y2="81%" id="id-female-6.6_base_1-40">
<stop stop-color="#d99776" offset="0%" stop-opacity="0.4">
</stop>
<stop stop-color="#d99776" offset="100%">
</stop>
</linearGradient>
<linearGradient x1="47%" y1="44%" x2="50%" y2="61%" id="id-female-6.6_base_1-41">
<stop stop-color="#943b2f" offset="0%" stop-opacity="0.175">
</stop>
<stop stop-color="#611c1b" offset="100%">
</stop>
</linearGradient>
<linearGradient x1="26%" y1="-7%" x2="50%" y2="96%" id="id-female-6.6_base_1-42">
<stop stop-color="#37373f" offset="0%">
</stop>
<stop stop-color="#19191d" offset="100%">
</stop>
</linearGradient>
<linearGradient x1="50%" y1="12%" x2="59%" y2="82%" id="id-female-6.6_base_1-43">
<stop stop-color="#252525" offset="0%">
</stop>
<stop stop-color="#101010" offset="100%">
</stop>
</linearGradient>
<linearGradient x1="25%" y1="-16%" x2="50%" y2="98%" id="id-female-6.6_base_1-44">
<stop stop-color="#37373f" offset="0%">
</stop>
<stop stop-color="#19191d" offset="100%">
</stop>
</linearGradient>
<linearGradient x1="75%" y1="39%" x2="50%" y2="93%" id="id-female-6.6_base_1-45">
<stop stop-color="#252525" offset="0%">
</stop>
<stop stop-color="#000000" offset="100%">
</stop>
</linearGradient>
</defs>
<g transform="translate(334,549)" id="id-female-6.6_base_1-46">
<polygon points="561 754 565 871 565 881 537 893 533 897 535 901 532 909 543 910 597 864" fill="#560304" id="id-female-6.6_base_1-47">
</polygon>
<polygon points="537 282 539 246 535 195 529 158 522 137 484 118 440 111 212 111 188 113 157 123 121 139 111 186 108 221 109 290" fill="url(#id-female-6.6_base_1-0)" id="id-female-6.6_base_1-47">
</polygon>
<polygon points="467 393 474 506 503 589 537 672 556 728 561 754 546 794 552 851 551 861 552 874 556 885 567 882 568 866 570 860 570 843 571 834 576 843 576 859 579 864 573 874 571 884 544 903 541 916 582 901 597 864 607 852 600 821 597 716 589 695 582 655 569 523 544 425" fill="url(#id-female-6.6_base_1-1)" id="id-female-6.6_base_1-47">
</polygon>
<polygon points="546 794 552 851 551 861 552 874 556 885 567 882 568 866 570 860 570 843 571 834 576 843 576 859 579 864 573 874 571 884 544 903 541 916 582 901 597 864 583 871 588 855 573 815 561 823" fill="url(#id-female-6.6_base_1-2)" id="id-female-6.6_base_1-47">
</polygon>
<polygon points="552 851 551 861 552 874 556 887 567 884 568 866 570 860 558 860" fill="#822c24" id="id-female-6.6_base_1-47">
</polygon>
<polygon points="544 906 541 916 582 901 571 889" fill="#7b261d" id="id-female-6.6_base_1-47">
</polygon>
<polygon points="561 754 548 789 566 819 586 806" fill="#d27f6a" id="id-female-6.6_base_1-47">
</polygon>
<polygon points="486 648 477 599 453 529 440 504 437 490 439 460 449 402 456 340 188 343 198 411 202 493 162 596 153 638 266 693 319 721 386 693" fill="url(#id-female-6.6_base_1-3)" id="id-female-6.6_base_1-47">
</polygon>
<polygon points="486 648 477 599 453 529 440 504 437 490 439 460 449 402 456 340 296 353 376 634" fill="#c56656" id="id-female-6.6_base_1-47">
</polygon>
<g transform="translate(188,0)" id="id-female-6.6_base_1-56">
<polygon points="274 114 253 111 232 100 201 76 188 58 184 1 93 1 88 64 25 111 1 113 103 123 121 135 134 138 149 121 161 117 187 119 225 114" fill="#c36553" id="id-female-6.6_base_1-47">
</polygon>
<polygon points="201 76 188 58 185 12 175 57 155 111 185 73" fill="#df937b" id="id-female-6.6_base_1-47">
</polygon>
<polygon points="149 1 93 1 88 64 108 126 121 135 133 138" fill="#b15748" id="id-female-6.6_base_1-47">
</polygon>
<polygon points="116 102 120 113 118 115 136 135 150 119 164 71 125 108" fill="#a34a41" id="id-female-6.6_base_1-60">
</polygon>
<polygon points="121 127 133 138 145 124" fill="#982e29" id="id-female-6.6_base_1-61">
</polygon>
<polygon points="136 98 164 71 175 57 186 17 134 51" fill="#cc775e" id="id-female-6.6_base_1-62">
</polygon>
<polygon points="97 96 116 80 164 60 178 48 186 17 184 1 93 1 88 64 45 96" fill="#8e3a2f" opacity="0.654" id="id-female-6.6_base_1-47">
</polygon>
<polygon points="186 17 184 1 93 1 88 64 45 96 66 96" fill="url(#id-female-6.6_base_1-4)" opacity="0.467" id="id-female-6.6_base_1-47">
</polygon>
<polygon points="123 58 176 23 186 17 184 1 93 1 91 22 108 55" fill="#380409" opacity="0.434" id="id-female-6.6_base_1-47">
</polygon>
</g>
<polygon points="41 844 33 856 36 895 64 915 84 911 83 903 71 898 72 892 63 884 52 849" fill="url(#id-female-6.6_base_1-5)" id="id-female-6.6_base_1-47">
</polygon>
<polygon points="315 152 285 173 320 188 357 166" fill="#e59b87" id="id-female-6.6_base_1-67">
</polygon>
<polygon points="327 150 370 130 342 127" fill="#c76b58" id="id-female-6.6_base_1-68">
</polygon>
<polygon points="301 142 303 148 243 131 240 119 276 119" fill="#c76b58" id="id-female-6.6_base_1-69">
</polygon>
<polygon points="159 149 206 123 269 123 303 144 297 118 188 113 157 123 121 139" fill="url(#id-female-6.6_base_1-6)" id="id-female-6.6_base_1-47">
</polygon>
<polygon points="157 123 121 139 153 167 196 134" fill="#f2afa7" id="id-female-6.6_base_1-47">
</polygon>
<polygon points="89 584 77 541 62 551 45 658 34 712 25 741 25 762 10 817 0 845 14 870 25 901 58 919 72 919 69 913 61 905 50 899 37 874 37 852 43 845 52 855 50 887 56 901 64 905 66 901 66 882 72 836 72 800 69 781 64 773 66 735 85 684 121 599 162 510" fill="url(#id-female-6.6_base_1-7)" id="id-female-6.6_base_1-47">
</polygon>
<polygon points="89 584 77 541 62 551 45 658 48 715 121 599 162 510" fill="#c66957" id="id-female-6.6_base_1-47">
</polygon>
<polygon points="55 843 45 827 37 848 17 852 8 836 5 851 0 845 14 870 25 901 58 919 72 919 69 913 61 905 50 899 37 874 37 852 43 845 52 855 50 887 56 901 64 905 66 901 66 882 72 836" fill="#c26553" id="id-female-6.6_base_1-47">
</polygon>
<polygon points="53 882 52 892 56 901 64 905 66 901 66 882 67 876" fill="#ab5b42" id="id-female-6.6_base_1-47">
</polygon>
<polygon points="25 901 58 919 72 919 62 909 37 895" fill="#ae5549" id="id-female-6.6_base_1-47">
</polygon>
<polygon points="160 467 145 488 108 578 45 777 48 797 64 773 66 735 85 684 121 599 162 510" fill="#ae5344" id="id-female-6.6_base_1-47">
</polygon>
<polygon points="169 1211 277 1211 282 1183 281 1150 284 1127 286 1114 285 1063 293 972 306 866 311 792 309 768 323 771 337 768 333 817 333 855 339 924 346 1008 348 1113 351 1130 353 1176 361 1211 461 1211 458 1191 456 1170 460 1133 461 1082 505 905 516 839 518 826 512 762 503 706 486 648 482 629 386 690 318 718 266 690 184 629 153 637 132 731 119 781 118 813 123 862 131 916 166 1094 176 1179" fill="url(#id-female-6.6_base_1-8)" id="id-female-6.6_base_1-47">
</polygon>
<polygon points="463 664 416 771 400 819 392 1125 359 1178 398 1204 441 1153 461 1082 505 905 516 839 518 826 515 789 490 714" fill="url(#id-female-6.6_base_1-9)" id="id-female-6.6_base_1-47">
</polygon>
<polygon points="422 1160 395 1199 365 1171 401 1149 384 1120 391 983 411 786 416 771 448 697 454 1013 445 1116 407 1149" fill="url(#id-female-6.6_base_1-10)" id="id-female-6.6_base_1-80">
</polygon>
<polygon points="121 139 111 186 108 221 109 290 96 438 89 464 69 510 89 585 162 510 167 425 162 241" fill="url(#id-female-6.6_base_1-11)" id="id-female-6.6_base_1-47">
</polygon>
<polygon points="101 466 103 488 106 510 160 447 179 359 164 232 187 184 186 179 132 181 161 234 161 321 149 376 151 384 123 461 114 466" fill="url(#id-female-6.6_base_1-12)" id="id-female-6.6_base_1-82">
</polygon>
<polygon points="96 438 89 464 69 510 51 621 101 520 96 476" fill="#e49587" id="id-female-6.6_base_1-47">
</polygon>
<polygon points="96 451 128 365 134 316 121 139 111 186 108 221 109 290 96 438" fill="#b85b4c" id="id-female-6.6_base_1-47">
</polygon>
<polygon points="184 241 177 248 162 225 138 289 161 321 170 375 161 420 151 411 162 510 167 425 188 343" fill="url(#id-female-6.6_base_1-13)" id="id-female-6.6_base_1-47">
</polygon>
<polygon points="284 1127 286 1114 285 1063 293 972 306 866 311 792 309 768 323 771 337 768 333 817 333 855 339 924 346 1008 375 889 416 771 463 664 490 714 515 790 512 762 503 706 486 648 477 599 471 583 420 650 316 720 201 654 244 742 264 824 275 994" fill="url(#id-female-6.6_base_1-14)" id="id-female-6.6_base_1-47">
</polygon>
<polygon points="298 930 306 866 311 792 309 768 323 771 337 768 333 817 333 855 336 894 347 826 360 784 378 733 388 687 321 739 254 687 267 736 291 821" fill="url(#id-female-6.6_base_1-15)" id="id-female-6.6_base_1-47">
</polygon>
<polygon points="348 1093 348 1113 351 1130 353 1176 361 1211 461 1211 439 1155 422 1136 403 1148 429 1168 400 1202 370 1170 382 1125" fill="url(#id-female-6.6_base_1-16)" id="id-female-6.6_base_1-47">
</polygon>
<polygon points="10 855 8 836 5 851 0 845 14 870" fill="#a64c3f" id="id-female-6.6_base_1-47">
</polygon>
<polygon points="520 500 516 520 544 629 474 500 490 399" fill="url(#id-female-6.6_base_1-17)" id="id-female-6.6_base_1-90">
</polygon>
<polygon points="461 1211 458 1191 456 1170 460 1133 461 1082 439 1155 450 1211" fill="url(#id-female-6.6_base_1-18)" id="id-female-6.6_base_1-47">
</polygon>
<polygon points="220 1149 259 1115 240 1063 232 973 266 819 240 713 201 661 158 650 201 784 183 925 170 1083" fill="url(#id-female-6.6_base_1-19)" id="id-female-6.6_base_1-92">
</polygon>
<polygon points="169 1211 277 1211 282 1183 281 1150 284 1127 286 1114 286 1098 226 1211 207 1211 196 1121 173 1078 150 1014 166 1094 176 1179" fill="url(#id-female-6.6_base_1-20)" id="id-female-6.6_base_1-47">
</polygon>
<polygon points="173 1078 183 924 150 1014" fill="#b76050" id="id-female-6.6_base_1-47">
</polygon>
<polygon points="169 1211 239 1211 230 1196 204 1175 173 1150 176 1179" fill="#7e2a20" opacity="0.574" id="id-female-6.6_base_1-47">
</polygon>
<polygon points="221 1130 240 1097 224 1063 224 983 240 804 217 698 190 668 212 771 212 910 190 998 181 1094" fill="url(#id-female-6.6_base_1-21)" id="id-female-6.6_base_1-92">
</polygon>
<polygon points="217 795 221 692 200 667 169 658 200 737" fill="#d6886e" id="id-female-6.6_base_1-97">
</polygon>
<polygon points="511 476 492 419 481 447 484 356 521 274 533 417" fill="url(#id-female-6.6_base_1-22)" id="id-female-6.6_base_1-98">
</polygon>
<polygon points="569 523 544 425 542 346 537 282 539 246 535 195 529 158 522 137 494 161 419 158 471 211 516 290 525 411 511 477 518 507 535 462 562 543" fill="url(#id-female-6.6_base_1-23)" id="id-female-6.6_base_1-47">
</polygon>
<polygon points="486 389 533 243 501 167 464 207 451 247 463 265" fill="url(#id-female-6.6_base_1-24)" id="id-female-6.6_base_1-100">
</polygon>
<polygon points="473 490 474 506 503 589 537 672 556 728 561 754 567 712 543 623" fill="#b95c4e" id="id-female-6.6_base_1-47">
</polygon>
<polygon points="460 328 466 378 474 506 490 425 486 392 469 274 479 230 461 260 454 251" fill="url(#id-female-6.6_base_1-25)" id="id-female-6.6_base_1-47">
</polygon>
<polygon points="440 504 437 490 439 460 449 402 456 340 458 328 325 282 188 343 198 411 202 493 162 596 157 621 161 633 169 599 173 570 204 506 202 458 217 402 286 365 321 352 353 360 422 402 431 493 437 520" fill="url(#id-female-6.6_base_1-26)" id="id-female-6.6_base_1-47">
</polygon>
<polygon points="451 385 456 340 458 328 364 340 330 308 268 343 188 343 194 379 262 368 312 343 335 340 381 368" fill="url(#id-female-6.6_base_1-27)" id="id-female-6.6_base_1-47">
</polygon>
<polygon points="286 328 306 310 330 274 453 252 464 205 421 156 317 204 219 165 210 154 188 180" fill="url(#id-female-6.6_base_1-28)" id="id-female-6.6_base_1-105">
</polygon>
<path d="M 422 195 L 405 190 C 377 190 357 198 343 214 C 329 230 322 250 323 276 C 324 301 331 320 345 333 C 365 351 384 356 405 356 C 425 356 444 347 450 342 C 454 339 457 335 460 328 C 463 323 466 317 467 308 C 469 294 466 276 457 254 L 422 195 Z" fill="url(#id-female-6.6_base_1-29)" id="id-female-6.6_base_1-106">
</path>
<path d="M 422 195 L 417 175 C 386 188 366 196 358 201 C 355 203 351 206 348 208 C 348 209 381 253 448 342 C 454 338 459 332 463 324 C 469 310 469 301 469 293 C 469 287 465 275 459 257 L 422 195 Z" fill="url(#id-female-6.6_base_1-30)" id="id-female-6.6_base_1-106">
</path>
<path d="M 375 226 C 338 253 343 276 343 284 C 343 291 353 319 371 335 C 379 342 422 349 447 331 C 468 316 472 294 458 265 C 427 221 400 208 375 226 Z" fill="url(#id-female-6.6_base_1-31)" opacity="0.282" id="id-female-6.6_base_1-106">
</path>
<path d="M 272 205 C 260 199 243 200 221 209 C 187 227 169 258 168 303 C 167 319 184 342 190 346 C 197 351 212 356 239 353 C 257 351 272 344 284 333 C 303 312 312 288 309 260 C 305 217 291 214 272 205 Z" fill="url(#id-female-6.6_base_1-32)" id="id-female-6.6_base_1-109">
</path>
<path d="M 340 285 C 333 252 328 240 326 248 C 324 254 323 263 323 276 C 324 301 331 320 345 333 C 365 351 382 356 404 356 C 425 356 444 347 450 342 C 456 337 465 325 468 308 C 472 290 465 276 463 268 C 461 263 460 259 458 255 L 442 290 L 399 304 L 366 300 L 340 285 Z" fill="url(#id-female-6.6_base_1-33)" id="id-female-6.6_base_1-106">
</path>
<path d="M 153 637 L 149 654 L 132 731 L 130 739 C 133 730 135 723 137 718 C 140 709 147 691 149 680 C 151 671 155 655 161 633 L 172 570 L 162 596 L 153 637 Z" fill="#7d362e" id="id-female-6.6_base_1-47">
</path>
<path d="M 259 203 C 254 199 240 185 217 163 L 210 153 L 186 180 C 192 211 192 231 186 239 C 175 256 168 277 168 303 C 168 324 190 352 239 344 C 252 342 274 217 259 203 Z" fill="#db927f" id="id-female-6.6_base_1-109">
</path>
<polygon points="175 565 203 550 234 558 241 520 203 455 203 507" fill="#9e4435" id="id-female-6.6_base_1-113">
</polygon>
<polygon points="241 442 241 518 229 556 233 629 266 657 316 707 381 659 395 629 364 504 350 504 301 380" fill="url(#id-female-6.6_base_1-34)" id="id-female-6.6_base_1-114">
</polygon>
<polygon points="432 626 427 589 407 518 414 505 450 568 470 618" fill="url(#id-female-6.6_base_1-35)" id="id-female-6.6_base_1-115">
</polygon>
<polygon points="302 376 254 442 254 546 302 590 364 568 364 504 350 504 376 454 345 400" fill="url(#id-female-6.6_base_1-36)" id="id-female-6.6_base_1-114">
</polygon>
<polygon points="317 480 342 436 319 413 300 447" fill="#c96c5a" id="id-female-6.6_base_1-117">
</polygon>
<polygon points="304 541 318 507 329 541 314 549" fill="#c06352" id="id-female-6.6_base_1-118">
</polygon>
<polygon points="306 543 316 578 329 541" fill="#df8f72" id="id-female-6.6_base_1-119">
</polygon>
<path d="M 178 333 C 179 334 180 336 182 338 C 184 342 186 343 189 346 C 190 347 197 351 206 353 C 215 354 226 355 239 353 C 257 351 272 344 284 333 C 293 322 299 313 302 305 C 304 301 307 293 309 277 C 310 274 310 268 309 260 L 228 277 L 207 295 L 178 333 Z" fill="url(#id-female-6.6_base_1-37)" id="id-female-6.6_base_1-109">
</path>
<polygon points="306 543 308 550 324 556 329 541" fill="#e6a08a" id="id-female-6.6_base_1-119">
</polygon>
<polygon points="308 543 318 525 323 542 314 548" fill="#7e312c" id="id-female-6.6_base_1-122">
</polygon>
<polygon points="152 641 162 596 176 561 185 617 214 602 246 628 323 690 404 628 423 605 454 605 470 577 477 599 482 629 388 689 337 768 323 771 309 768 259 688 175 639 142 688" fill="url(#id-female-6.6_base_1-38)" opacity="0.442" id="id-female-6.6_base_1-123">
</polygon>
<polygon points="490 154 522 137 484 118 412 123" fill="url(#id-female-6.6_base_1-39)" id="id-female-6.6_base_1-47">
</polygon>
<polygon points="573 785 588 829 602 858 607 852 600 821 597 716 576 763" fill="#d49173" id="id-female-6.6_base_1-47">
</polygon>
<polygon points="574 722 589 695 582 655 533 542" fill="url(#id-female-6.6_base_1-40)" id="id-female-6.6_base_1-47">
</polygon>
<polygon points="172 640 241 690 309 768 323 771 338 768 395 706 469 661 404 650 313 706 217 629" fill="url(#id-female-6.6_base_1-41)" opacity="0.571" id="id-female-6.6_base_1-127">
</polygon>
<g transform="translate(188,270)" id="id-female-6.6_base_1-128">
<polygon points="207 13 207 10 217 2 220 2 239 21 258 39 260 42 250 51 246 52 226 33" fill="url(#id-female-6.6_base_1-42)" id="id-female-6.6_base_1-129">
</polygon>
<polygon points="208 40 218 50 222 50 240 33 257 13 257 9 247 0 244 1 230 19 209 36" fill="url(#id-female-6.6_base_1-43)" id="id-female-6.6_base_1-130">
</polygon>
<polygon points="1 13 1 10 10 2 15 2 32 21 50 39 52 42 42 52 38 52 19 33" fill="url(#id-female-6.6_base_1-44)" id="id-female-6.6_base_1-129">
</polygon>
<polygon points="0 43 10 53 14 53 33 35 50 15 50 11 40 3 36 4 19 23 1 39" fill="url(#id-female-6.6_base_1-45)" id="id-female-6.6_base_1-130">
</polygon>
</g>
</g>
<defs>
<linearGradient x1="50%" y1="0%" x2="50%" y2="62%" id="id-female-6.8_face_1-0">
<stop stop-color="#e3a189" offset="0%">
</stop>
<stop stop-color="#c36851" offset="100%">
</stop>
</linearGradient>
<linearGradient x1="39%" y1="5%" x2="39%" y2="67%" id="id-female-6.8_face_1-1">
<stop stop-color="#cc7457" offset="0%">
</stop>
<stop stop-color="#dfa080" offset="100%">
</stop>
</linearGradient>
<linearGradient x1="65%" y1="0%" x2="47%" y2="79%" id="id-female-6.8_face_1-2">
<stop stop-color="#dc9580" offset="0%">
</stop>
<stop stop-color="#daa897" offset="100%">
</stop>
</linearGradient>
<linearGradient x1="92%" y1="40%" x2="58%" y2="65%" id="id-female-6.8_face_1-3">
<stop stop-color="#b96653" offset="0%">
</stop>
<stop stop-color="#daa897" offset="100%">
</stop>
</linearGradient>
<linearGradient x1="50%" y1="27%" x2="50%" y2="147%" id="id-female-6.8_face_1-4">
<stop stop-color="#e4ab89" offset="0%">
</stop>
<stop stop-color="#d3876b" offset="100%">
</stop>
</linearGradient>
<linearGradient x1="7%" y1="20%" x2="70%" y2="67%" id="id-female-6.8_face_1-5">
<stop stop-color="#c36248" offset="0%">
</stop>
<stop stop-color="#e39c7b" offset="37%">
</stop>
<stop stop-color="#d78b6c" offset="58%">
</stop>
<stop stop-color="#cb745d" offset="100%">
</stop>
</linearGradient>
<linearGradient x1="28%" y1="27%" x2="54%" y2="70%" id="id-female-6.8_face_1-6">
<stop stop-color="#c16c4e" offset="0%">
</stop>
<stop stop-color="#cc7357" offset="100%">
</stop>
</linearGradient>
<linearGradient x1="50%" y1="18%" x2="39%" y2="91%" id="id-female-6.8_face_1-7">
<stop stop-color="#cf7c5e" offset="0%">
</stop>
<stop stop-color="#dc9174" offset="36%">
</stop>
<stop stop-color="#df9170" offset="100%">
</stop>
</linearGradient>
<linearGradient x1="39%" y1="25%" x2="104%" y2="96%" id="id-female-6.8_face_1-8">
<stop stop-color="#d07958" offset="0%">
</stop>
<stop stop-color="#b3554f" offset="100%">
</stop>
</linearGradient>
<linearGradient x1="53%" y1="43%" x2="52%" y2="81%" id="id-female-6.8_face_1-9">
<stop stop-color="#bf5b54" offset="0%">
</stop>
<stop stop-color="#b05d48" offset="76%">
</stop>
<stop stop-color="#9f3b3b" offset="100%">
</stop>
</linearGradient>
<radialGradient cx="50%" cy="59%" r="66%" id="id-female-6.8_face_1-10" fx="50%" fy="59%" gradientTransform="translate(0.5,0.593) scale(0.731,1) rotate(-90) scale(1,1) translate(-0.5,-0.593)">
<stop stop-color="#e69a7a" offset="0%">
</stop>
<stop stop-color="#a64442" offset="100%">
</stop>
</radialGradient>
<linearGradient x1="50%" y1="42%" x2="37%" y2="61%" id="id-female-6.8_face_1-11">
<stop stop-color="#c46c52" offset="0%">
</stop>
<stop stop-color="#9b4c40" offset="100%">
</stop>
</linearGradient>
<linearGradient x1="50%" y1="31%" x2="50%" y2="119%" id="id-female-6.8_face_1-12">
<stop stop-color="#e9b0a1" offset="0%">
</stop>
<stop stop-color="#fddab5" offset="100%">
</stop>
</linearGradient>
<linearGradient x1="36%" y1="93%" x2="50%" y2="50%" id="id-female-6.8_face_1-13">
<stop stop-color="#c87f5d" offset="0%">
</stop>
<stop stop-color="#923734" offset="100%">
</stop>
</linearGradient>
<linearGradient x1="18%" y1="52%" x2="79%" y2="50%" id="id-female-6.8_face_1-14">
<stop stop-color="#9a342b" offset="0%">
</stop>
<stop stop-color="#9b4843" offset="100%">
</stop>
</linearGradient>
<linearGradient x1="56%" y1="-29%" x2="60%" y2="75%" id="id-female-6.8_face_1-15">
<stop stop-color="#a24e3f" offset="0%">
</stop>
<stop stop-color="#d79370" offset="100%">
</stop>
</linearGradient>
<linearGradient x1="42%" y1="71%" x2="50%" y2="23%" id="id-female-6.8_face_1-16">
<stop stop-color="#e9b0a1" offset="0%">
</stop>
<stop stop-color="#d3755a" offset="100%">
</stop>
</linearGradient>
<linearGradient x1="50%" y1="0%" x2="50%" y2="100%" id="id-female-6.8_face_1-17">
<stop stop-color="#db886c" offset="0%">
</stop>
<stop stop-color="#b5524b" offset="100%">
</stop>
</linearGradient>
<linearGradient x1="0%" y1="58%" x2="100%" y2="58%" id="id-female-6.8_face_1-18">
<stop stop-color="#d67e6a" offset="0%">
</stop>
<stop stop-color="#efb4a4" offset="50%">
</stop>
<stop stop-color="#c36257" offset="100%">
</stop>
</linearGradient>
<linearGradient x1="50%" y1="0%" x2="50%" y2="78%" id="id-female-6.8_face_1-19">
<stop stop-color="#bd645a" offset="0%">
</stop>
<stop stop-color="#8b3937" offset="100%">
</stop>
</linearGradient>
<linearGradient x1="67%" y1="100%" x2="33%" y2="100%" id="id-female-6.8_face_1-20">
<stop stop-color="#e29579" offset="0%">
</stop>
<stop stop-color="#dfa58f" offset="100%">
</stop>
</linearGradient>
<linearGradient x1="33%" y1="26%" x2="82%" y2="67%" id="id-female-6.8_face_1-21">
<stop stop-color="#c87458" offset="0%">
</stop>
<stop stop-color="#de987a" offset="52%">
</stop>
<stop stop-color="#be6a4c" offset="100%">
</stop>
</linearGradient>
<linearGradient x1="18%" y1="38%" x2="44%" y2="66%" id="id-female-6.8_face_1-22">
<stop stop-color="#d07b5c" offset="0%">
</stop>
<stop stop-color="#e9b0a1" offset="100%">
</stop>
</linearGradient>
<linearGradient x1="0%" y1="43%" x2="92%" y2="67%" id="id-female-6.8_face_1-23">
<stop stop-color="#af797f" offset="0%">
</stop>
<stop stop-color="#ddb5c1" offset="47%">
</stop>
<stop stop-color="#d6a6a6" offset="100%">
</stop>
</linearGradient>
<linearGradient x1="34%" y1="46%" x2="82%" y2="54%" id="id-female-6.8_face_1-24">
<stop stop-color="#ab6155" offset="0%">
</stop>
<stop stop-color="#c8745e" offset="100%">
</stop>
</linearGradient>
<linearGradient x1="34%" y1="40%" x2="83%" y2="55%" id="id-female-6.8_face_1-25">
<stop stop-color="#a0373a" offset="0%">
</stop>
<stop stop-color="#7f2528" offset="63%">
</stop>
<stop stop-color="#993b43" offset="100%">
</stop>
</linearGradient>
<linearGradient x1="100%" y1="59%" x2="-8%" y2="52%" id="id-female-6.8_face_1-26">
<stop stop-color="#86292c" offset="0%">
</stop>
<stop stop-color="#d56a75" offset="51%">
</stop>
<stop stop-color="#be4f5a" offset="100%">
</stop>
</linearGradient>
<linearGradient x1="10%" y1="46%" x2="71%" y2="50%" id="id-female-6.8_face_1-27">
<stop stop-color="#974537" offset="0%" stop-opacity="0.483">
</stop>
<stop stop-color="#89312e" offset="100%">
</stop>
</linearGradient>
<linearGradient x1="0%" y1="60%" x2="100%" y2="50%" id="id-female-6.8_face_1-28">
<stop stop-color="#97443b" offset="0%">
</stop>
<stop stop-color="#d56a75" offset="51%">
</stop>
<stop stop-color="#be4f5a" offset="100%">
</stop>
</linearGradient>
<linearGradient x1="50%" y1="90%" x2="50%" y2="50%" id="id-female-6.8_face_1-29">
<stop stop-color="#15b095" offset="0%">
</stop>
<stop stop-color="#006a4b" offset="100%">
</stop>
</linearGradient>
<linearGradient x1="50%" y1="100%" x2="50%" y2="50%" id="id-female-6.8_face_1-30">
<stop stop-color="#1ad9b7" offset="0%">
</stop>
<stop stop-color="#007e59" offset="100%">
</stop>
</linearGradient>
<linearGradient x1="43%" y1="48%" x2="63%" y2="56%" id="id-female-6.8_face_1-31">
<stop stop-color="#6b201b" offset="0%">
</stop>
<stop stop-color="#833528" offset="100%" stop-opacity="0.686">
</stop>
</linearGradient>
<linearGradient x1="39%" y1="84%" x2="39%" y2="50%" id="id-female-6.8_face_1-32">
<stop stop-color="#971137" offset="0%">
</stop>
<stop stop-color="#ad3552" offset="100%">
</stop>
</linearGradient>
<linearGradient x1="-7%" y1="56%" x2="36%" y2="52%" id="id-female-6.8_face_1-33">
<stop stop-color="#724242" offset="0%">
</stop>
<stop stop-color="#3e1f26" offset="100%">
</stop>
</linearGradient>
<linearGradient x1="100%" y1="57%" x2="67%" y2="56%" id="id-female-6.8_face_1-34">
<stop stop-color="#724242" offset="0%">
</stop>
<stop stop-color="#3e1f26" offset="100%">
</stop>
</linearGradient>
</defs>
<g transform="translate(561,332)" id="id-female-6.8_face_1-35">
<g transform="translate(172,115)" id="id-female-6.8_face_1-36">
<polygon points="14 1 18 0 25 8 27 21 24 41 14 66 0 68" fill="url(#id-female-6.8_face_1-0)" id="id-female-6.8_face_1-37">
</polygon>
<polygon points="12 48 19 50 23 42 26 24 20 12 12 22" fill="#e5565a" id="id-female-6.8_face_1-38">
</polygon>
<polygon points="11 21 17 10 20 5 24 7 26 24 20 36 18 31 20 16 9 29" fill="#cb3646" id="id-female-6.8_face_1-39">
</polygon>
<polygon points="10 28 11 38 8 45 13 49 19 38 13 24" fill="#811e27" id="id-female-6.8_face_1-40">
</polygon>
<polygon points="12 18 17 17 18 9" fill="#871d26" id="id-female-6.8_face_1-41">
</polygon>
<polygon points="18 50 10 51 8 50 5 61 12 63 14 61" fill="#f27e8f" id="id-female-6.8_face_1-42">
</polygon>
</g>
<g transform="translate(0,113)" id="id-female-6.8_face_1-43">
<polygon points="13 0 5 0 0 13 4 36 13 63 25 67" fill="#d07c59" id="id-female-6.8_face_1-44">
</polygon>
<polygon points="5 9 0 13 4 36 13 63 25 67 13 24" fill="#e0535b" id="id-female-6.8_face_1-44">
</polygon>
<polygon points="18 46 14 47 7 32 11 26 4 9 6 5 16 20 17 29" fill="#b01e34" id="id-female-6.8_face_1-46">
</polygon>
<polygon points="13 62 20 62 18 49 11 53" fill="#fe839e" id="id-female-6.8_face_1-47">
</polygon>
<polygon points="25 68 13 63 20 62 17 46 14 47 13 44 14 29 17 26 14 22 10 19 10 11 17 20" fill="#7e1b23" id="id-female-6.8_face_1-48">
</polygon>
<polygon points="13 9 4 3 5 0 12 0" fill="#e19b77" id="id-female-6.8_face_1-49">
</polygon>
</g>
<path d="M 29 199 C 21 167 16 144 15 130 C 4 44 33 0 103 0 C 180 0 191 63 186 119 C 183 157 173 191 170 202 C 169 206 167 213 164 217 C 151 234 112 253 99 253 C 88 253 54 243 36 218 C 34 215 32 208 29 199 Z" fill="url(#id-female-6.8_face_1-1)" id="id-female-6.8_face_1-50">
</path>
<polygon points="164 137 138 172 143 194 134 203 117 159 118 140 127 137" fill="url(#id-female-6.8_face_1-2)" id="id-female-6.8_face_1-51">
</polygon>
<polygon points="166 136 148 159 134 152 127 137" fill="url(#id-female-6.8_face_1-3)" id="id-female-6.8_face_1-51">
</polygon>
<polygon points="59 198 79 169 122 169 136 204 132 209 108 207 75 207 67 207" fill="url(#id-female-6.8_face_1-4)" id="id-female-6.8_face_1-53">
</polygon>
<path d="M 29 199 C 22 171 18 151 16 139 C 13 120 12 107 12 97 C 12 97 12 96 12 96 L 54 101 L 29 151 L 46 165 L 63 191 L 68 207 L 77 214 L 128 209 L 138 199 L 149 165 L 170 143 L 155 134 L 151 105 L 187 100 C 187 100 187 101 187 101 C 187 107 186 113 186 119 C 183 157 173 191 170 202 C 169 206 167 213 164 217 C 151 234 112 253 99 253 C 88 253 54 243 36 218 C 34 215 32 208 29 199 Z" fill="url(#id-female-6.8_face_1-5)" id="id-female-6.8_face_1-50">
</path>
<polygon points="138 199 149 165 170 143 156 166 148 186" fill="#d68d71" id="id-female-6.8_face_1-50">
</polygon>
<polygon points="50 189 61 196 69 211 80 220 62 220 50 215" fill="#ce8362" id="id-female-6.8_face_1-56">
</polygon>
<path d="M 29 199 L 19 157 C 18 151 17 147 17 144 C 16 141 16 139 16 137 L 36 166 L 39 175 L 52 191 L 58 214 L 73 220 L 94 216 L 104 249 C 103 252 101 253 99 253 C 88 253 54 243 36 218 C 34 215 32 208 29 199 Z" fill="url(#id-female-6.8_face_1-6)" id="id-female-6.8_face_1-50">
</path>
<polygon points="62 96 89 105 97 109 107 110 123 103 146 97 132 95 104 79 110 72 101 43 77 49 64 62 71 91" fill="url(#id-female-6.8_face_1-7)" id="id-female-6.8_face_1-58">
</polygon>
<path d="M 14 127 C 14 126 14 125 14 125 C 5 42 35 0 103 0 C 180 0 191 63 186 119 C 186 120 185 124 183 134 L 174 122 L 143 97 L 121 106 L 125 96 L 143 88 L 146 54 L 100 36 L 57 54 L 54 80 L 63 101 L 35 101 L 14 127 Z" fill="url(#id-female-6.8_face_1-8)" id="id-female-6.8_face_1-50">
</path>
<path d="M 29 199 C 22 171 18 151 16 139 C 16 139 16 139 16 139 L 19 151 L 35 174 L 42 204 L 62 236 L 76 238 L 89 248 L 104 249 L 151 222 L 158 192 L 163 168 L 179 144 L 186 118 C 186 119 186 119 186 119 C 186 121 185 125 185 129 C 185 129 185 130 185 130 C 181 163 173 192 170 202 C 169 206 167 213 164 217 C 151 234 112 253 99 253 C 88 253 54 243 36 218 C 34 215 32 208 29 199 Z" fill="url(#id-female-6.8_face_1-9)" id="id-female-6.8_face_1-50">
</path>
<path d="M 14 127 C 14 126 14 125 14 125 C 5 42 35 0 103 0 C 161 0 181 35 186 76 C 186 76 186 77 186 78 L 167 109 L 174 119 L 160 114 L 121 127 L 131 110 L 156 106 L 159 45 L 128 32 L 97 28 L 72 32 L 44 49 L 44 87 L 55 98 L 29 110 L 14 127 Z" fill="url(#id-female-6.8_face_1-10)" id="id-female-6.8_face_1-50">
</path>
<polygon points="81 136 64 118 81 102 92 107 104 109 120 102 138 120 113 136 99 124" fill="url(#id-female-6.8_face_1-11)" id="id-female-6.8_face_1-62">
</polygon>
<polygon points="92 191 95 177 105 175 109 191 98 194" fill="url(#id-female-6.8_face_1-12)" id="id-female-6.8_face_1-53">
</polygon>
<polygon points="102 124 114 105 118 103 133 110 127 115 119 124 114 137" fill="url(#id-female-6.8_face_1-13)" id="id-female-6.8_face_1-64">
</polygon>
<polygon points="87 135 99 123 75 117 50 113 32 128 28 124 19 135 36 131 75 136 82 136" fill="url(#id-female-6.8_face_1-14)" id="id-female-6.8_face_1-65">
</polygon>
<path d="M 150 230 C 150 230 150 230 150 230 C 133 243 109 253 99 253 C 92 253 73 248 56 237 C 56 237 56 237 56 237 L 82 247 L 103 249 L 150 230 Z" fill="#903f36" id="id-female-6.8_face_1-50">
</path>
<g transform="translate(79,120)" id="id-female-6.8_face_1-67">
<polygon points="24 2 33 10 42 41 16 34 18 5" fill="url(#id-female-6.8_face_1-15)" id="id-female-6.8_face_1-68">
</polygon>
<polygon points="4 35 6 15 17 3 19 5 18 29" fill="url(#id-female-6.8_face_1-16)" id="id-female-6.8_face_1-69">
</polygon>
<polygon points="0 55 1 59 12 68 42 63 44 51" fill="#381f12" opacity="0.365" id="id-female-6.8_face_1-70">
</polygon>
<polygon points="0 55 0 49 0 38 14 25 27 27 40 38 44 51 40 57" fill="url(#id-female-6.8_face_1-17)" id="id-female-6.8_face_1-71">
</polygon>
<polygon points="35 35 33 42 41 48 40 39" fill="#df907e" id="id-female-6.8_face_1-72">
</polygon>
<polygon points="1 49 7 43 7 35 2 39" fill="#d78673" id="id-female-6.8_face_1-73">
</polygon>
<polygon points="12 48 21 52 30 49 31 45 24 2 20 0 17 4 11 43" fill="url(#id-female-6.8_face_1-18)" id="id-female-6.8_face_1-74">
</polygon>
<polygon points="30 38 35 43 35 47 42 54 40 58 35 59 25 58 24 59 19 60 18 59 6 57 0 55 0 51 8 45 12 38 13 48 20 51 29 48 30 45" fill="url(#id-female-6.8_face_1-19)" id="id-female-6.8_face_1-75">
</polygon>
<polygon points="33 57 25 57 23 59 18 59 16 57 6 56 0 54 0 50 9 54 12 54 21 56 28 54" fill="#a05463" id="id-female-6.8_face_1-75">
</polygon>
<polygon points="7 58 6 54 9 52 14 53 19 60" fill="#3b1313" id="id-female-6.8_face_1-77">
</polygon>
<polygon points="24 59 28 54 33 53 36 55 35 59" fill="#3b1313" id="id-female-6.8_face_1-78">
</polygon>
<polygon points="13 7 15 13 14 26 21 10" fill="#ffc9d8" opacity="0.502" id="id-female-6.8_face_1-79">
</polygon>
<polygon points="20 49 20 39 28 45" fill="#ffb9cd" id="id-female-6.8_face_1-80">
</polygon>
</g>
<polygon points="137 214 116 218 78 214 68 214 61 209 129 209 134 208 139 209" fill="url(#id-female-6.8_face_1-20)" id="id-female-6.8_face_1-81">
</polygon>
<polygon points="77 205 66 204 61 209 79 209" fill="#b25b40" id="id-female-6.8_face_1-81">
</polygon>
<polygon points="159 188 163 168 169 157 179 144 177 158" fill="#b14f52" id="id-female-6.8_face_1-50">
</polygon>
<polygon points="77 228 80 240 102 245 119 240 115 228" fill="url(#id-female-6.8_face_1-21)" id="id-female-6.8_face_1-84">
</polygon>
<polygon points="82 233 83 241 96 243 93 231" fill="#daa18e" id="id-female-6.8_face_1-84">
</polygon>
<polygon points="57 169 36 158 29 151 37 134 73 139 82 146" fill="url(#id-female-6.8_face_1-22)" id="id-female-6.8_face_1-86">
</polygon>
<polygon points="113 135 118 151 141 156 146 155 143 150 129 145" fill="url(#id-female-6.8_face_1-23)" id="id-female-6.8_face_1-87">
</polygon>
<polygon points="114 135 128 140 144 140 154 147 147 150 143 150 129 145" fill="url(#id-female-6.8_face_1-24)" id="id-female-6.8_face_1-87">
</polygon>
<polygon points="121 127 114 135 122 141 123 137 130 129" fill="#f4cabe" id="id-female-6.8_face_1-89">
</polygon>
<polygon points="156 137 164 137 175 136 175 134 162 121 156 115 132 115 120 127 118 133 120 134 131 130" fill="url(#id-female-6.8_face_1-25)" id="id-female-6.8_face_1-90">
</polygon>
<polygon points="134 117 134 124 138 127 146 127 151 122 149 119 142 117" fill="url(#id-female-6.8_face_1-26)" id="id-female-6.8_face_1-91">
</polygon>
<polygon points="28 133 38 144 53 148 58 148 64 145 76 140 79 138 77 136 32 131" fill="#b2614a" id="id-female-6.8_face_1-92">
</polygon>
<polygon points="38 142 48 145 56 140 64 137 43 135" fill="#cf7961" id="id-female-6.8_face_1-93">
</polygon>
<polygon points="74 130 70 123 81 111 51 103 42 106 45 117 36 125 39 130" fill="url(#id-female-6.8_face_1-27)" id="id-female-6.8_face_1-94">
</polygon>
<polygon points="48 117 45 121 48 124 61 123 64 120 64 116 52 115" fill="url(#id-female-6.8_face_1-28)" id="id-female-6.8_face_1-95">
</polygon>
<polygon points="76 140 82 136 76 129 72 128 77 136" fill="#f8d9d9" id="id-female-6.8_face_1-96">
</polygon>
<g transform="translate(119,126)" id="id-female-6.8_face_1-97">
<polygon points="4 12 9 14 20 16 32 14 37 11 35 8 26 3 11 6" fill="#def2dc" id="id-female-6.8_face_1-98">
</polygon>
<path d="M 20 15 C 22 16 23 16 24 15 C 27 14 28 11 28 8 C 28 4 25 2 20 3 C 14 4 12 6 12 8 C 12 10 13 13 15 14 C 16 15 17 15 20 15 Z" fill="#040204" id="id-female-6.8_face_1-99">
</path>
<path d="M 19 15 C 23 15 26 13 27 10 C 27 6 27 2 20 2 C 13 2 13 5 13 9 C 13 12 16 15 19 15 Z" fill="url(#id-female-6.8_face_1-29)" id="id-female-6.8_face_1-99">
</path>
<path d="M 20 11 C 24 11 24 8 25 7 C 25 6 25 6 25 6 C 25 6 27 7 27 6 C 27 4 23 2 20 2 C 18 2 15 4 13 6 C 13 7 12 8 12 9 C 12 9 14 8 14 7 C 15 7 15 7 15 7 C 16 9 17 11 20 11 Z" fill="#060204" id="id-female-6.8_face_1-99">
</path>
<polygon points="8 10 15 7 26 8 31 10 31 14 34 12 37 11 31 5 19 3 8 7" fill="#000000" opacity="0.399" id="id-female-6.8_face_1-102">
</polygon>
<polygon points="4 12 8 12 12 13 20 14 27 14 34 13 32 15 30 15 24 16 14 15 7 14" fill="#e8ada1" id="id-female-6.8_face_1-103">
</polygon>
<polygon points="10 8 8 11 8 14 4 12 4 10" fill="#a38782" id="id-female-6.8_face_1-104">
</polygon>
<polygon points="32 15 35 14 41 13 50 7 43 6 35 4 27 1 18 1 11 4 4 9 1 13 2 15 5 14 10 15 14 15 8 14 4 12 11 7 17 6 24 5 30 6 34 8 36 11 34 12" fill="#020000" id="id-female-6.8_face_1-105">
</polygon>
<polygon points="24 14 19 14 21 16 24 16" fill="#ffe2d5" id="id-female-6.8_face_1-106">
</polygon>
</g>
<g transform="translate(28,124)" id="id-female-6.8_face_1-107">
<polygon points="40 13 30 14 16 13 11 8 22 4 35 2 45 6 48 10" fill="#def2dc" id="id-female-6.8_face_1-108">
</polygon>
<path d="M 29 14 C 32 13 34 14 36 13 C 37 11 39 9 39 7 C 39 6 39 6 38 5 C 38 5 38 3 38 3 C 38 3 35 3 28 1 C 25 1 23 1 22 3 C 21 4 21 5 21 7 C 21 10 23 13 26 14 C 27 15 28 14 29 14 Z" fill="#040204" id="id-female-6.8_face_1-99">
</path>
<path d="M 30 14 C 34 14 38 10 38 7 C 38 5 34 6 33 7 C 32 7 31 9 29 9 C 26 9 29 5 23 7 C 22 7 23 9 23 9 C 24 11 27 14 30 14 Z" fill="url(#id-female-6.8_face_1-30)" id="id-female-6.8_face_1-99">
</path>
<ellipse cx="30" cy="7" fill="#060204" id="id-female-6.8_face_1-99" rx="4" ry="4">
</ellipse>
<path d="M 19 13 L 25 8 L 35 7 L 45 11 L 47 8 L 39 3 C 29 2 24 2 24 2 C 24 2 20 4 13 7 L 13 11 L 19 13 Z" fill="#000000" opacity="0.399" id="id-female-6.8_face_1-112">
</path>
<polygon points="17 14 27 15 31 15 36 13 27 13 16 12" fill="#eab4a9" id="id-female-6.8_face_1-113">
</polygon>
<polygon points="41 13 45 12 50 11 45 7 43 10 38 13 33 13 31 15 37 14" fill="#a38782" id="id-female-6.8_face_1-114">
</polygon>
<polygon points="16 13 9 11 0 4 8 4 17 2 23 1 34 0 40 2 46 4 52 12 50 14 47 12 38 14 47 10 43 7 36 3 23 4 15 8 13 10 16 12" fill="#0e0606" id="id-female-6.8_face_1-115">
</polygon>
<polygon points="30 15 31 15 34 14 34 13 30 13" fill="#ffe2d5" id="id-female-6.8_face_1-116">
</polygon>
</g>
<polygon points="143 136 145 134 143 133 141 134" fill="#ffffff" id="id-female-6.8_face_1-99">
</polygon>
<polygon points="63 130 61 131 62 133 64 132" fill="#ffffff" id="id-female-6.8_face_1-118">
</polygon>
<g transform="translate(69,189)" id="id-female-6.8_face_1-119">
<polygon points="12 28 5 30 19 36" fill="#a2423c" id="id-female-6.8_face_1-120">
</polygon>
<polygon points="10 26 19 37 41 37 54 25" fill="url(#id-female-6.8_face_1-31)" id="id-female-6.8_face_1-121">
</polygon>
<g id="id-female-6.8_face_1-122">
<polygon points="1 21 2 17 32 10 60 16 63 19 56 24" fill="#4c040c" id="id-female-6.8_face_1-123">
</polygon>
<polygon points="1 21 13 29 28 33 38 33 50 29 57 23 48 20 36 18 30 19 23 18 8 20" fill="#ff6878" id="id-female-6.8_face_1-124">
</polygon>
<polygon points="1 21 13 29 28 33 38 33 50 29 57 23 54 22 32 27 22 27 13 25 9 20 8 20" fill="#e44f62" id="id-female-6.8_face_1-124">
</polygon>
<polygon points="1 19 8 19 32 13 52 20 61 17 40 0 31 3 23 0 2 16" fill="url(#id-female-6.8_face_1-32)" id="id-female-6.8_face_1-126">
</polygon>
<polygon points="52 13 40 2 31 5" fill="#cf4566" id="id-female-6.8_face_1-126">
</polygon>
<polygon points="16 20 12 23 13 25 32 25 31 23 20 22" fill="#ffabf9" id="id-female-6.8_face_1-128">
</polygon>
</g>
</g>
<g transform="translate(25,94)" id="id-female-6.8_face_1-129">
<polygon points="93 18 132 12 139 15 150 25 144 12 141 8 132 0 93 8 91 13" fill="url(#id-female-6.8_face_1-33)" id="id-female-6.8_face_1-130">
</polygon>
<polygon points="0 20 12 13 21 13 57 18 59 13 57 6 18 0 8 6" fill="url(#id-female-6.8_face_1-34)" id="id-female-6.8_face_1-131">
</polygon>
</g>
<g transform="translate(20,220)" id="id-female-6.8_face_1-132">
</g>
</g>
<defs>
</defs>
<g transform="translate(452,1198)" fill="#000000" id="id-female-10_tripper_tights-0">
<g transform="translate(306,283) scale(-1,1) translate(-306,-283) translate(213,1)" id="id-female-10_tripper_tights-1">
<path d="M 88 31 C 112 61 143 92 181 123 L 181 128 C 141 97 106 61 76 22 C 80 21 83 26 88 31 Z" id="id-female-10_tripper_tights-2">
</path>
<path d="M 30 3 C 54 81 185 184 185 184 C 185 187 184 189 184 191 C 98 117 46 56 28 8 C 28 6 29 4 30 3 Z" id="id-female-10_tripper_tights-3">
</path>
<path d="M 8 85 C 53 41 75 20 75 20 C 78 21 79 22 79 22 L 8 91 C 8 87 8 85 8 85 Z" id="id-female-10_tripper_tights-4">
</path>
<path d="M 2 142 C 51 101 103 45 103 45 C 106 46 108 47 108 47 C 72 85 37 119 1 149 C 1 147 1 145 2 142 Z" id="id-female-10_tripper_tights-5">
</path>
<path d="M 0 196 C 45 161 88 119 129 70 C 130 69 133 71 132 72 C 92 122 48 165 0 202 C 0 198 0 196 0 196 Z" id="id-female-10_tripper_tights-6">
</path>
<path d="M 8 243 C 6 246 7 252 9 250 C 103 180 159 98 159 98 L 156 94 C 106 159 57 209 8 243 Z" id="id-female-10_tripper_tights-7">
</path>
<path d="M 19 290 C 18 292 19 294 20 295 C 138 204 179 120 179 120 L 177 116 C 136 183 84 241 19 290 Z" id="id-female-10_tripper_tights-8">
</path>
<path d="M 15 53 C 14 55 14 58 14 60 C 80 172 181 247 181 247 L 182 241 C 94 164 39 102 15 53 Z" id="id-female-10_tripper_tights-9">
</path>
<path d="M 6 107 C 4 111 4 111 4 113 C 79 221 178 298 178 298 L 179 292 C 112 239 55 177 6 107 Z" id="id-female-10_tripper_tights-10">
</path>
<path d="M 0 156 C 0 158 0 160 0 162 C 78 273 173 347 173 347 L 174 341 C 108 286 50 224 0 156 Z" id="id-female-10_tripper_tights-11">
</path>
<path d="M 1 208 C 0 209 1 212 1 214 C 80 318 170 394 170 394 C 171 391 171 389 170 388 C 110 342 69 287 1 208 Z" id="id-female-10_tripper_tights-12">
</path>
<path d="M 30 335 C 30 337 30 339 31 341 C 143 244 184 167 184 167 L 184 162 C 145 224 93 282 30 335 Z" id="id-female-10_tripper_tights-13">
</path>
<path d="M 42 377 C 42 379 42 381 42 383 C 142 298 184 219 184 219 L 184 213 C 145 274 97 329 42 377 Z" id="id-female-10_tripper_tights-14">
</path>
<path d="M 10 266 C 9 267 10 270 10 271 C 107 395 169 443 169 443 C 170 441 170 439 169 438 C 117 394 71 342 10 266 Z" id="id-female-10_tripper_tights-15">
</path>
<path d="M 29 329 C 29 331 29 333 29 334 C 110 443 166 487 166 487 C 167 484 167 482 166 481 C 120 449 29 329 29 329 Z" id="id-female-10_tripper_tights-16">
</path>
<path d="M 44 388 C 44 389 44 391 44 394 C 113 487 115 487 164 528 C 164 527 164 525 163 523 C 93 462 93 449 44 388 Z" id="id-female-10_tripper_tights-17">
</path>
<path d="M 53 421 C 53 423 53 425 54 426 C 144 345 182 271 182 271 L 183 264 C 143 328 100 380 53 421 Z" id="id-female-10_tripper_tights-18">
</path>
<path d="M 56 467 C 56 469 56 470 57 473 C 124 412 173 333 173 333 L 174 326 C 137 383 98 430 56 467 Z" id="id-female-10_tripper_tights-19">
</path>
<path d="M 55 440 C 55 444 55 444 56 445 C 119 542 155 562 155 562 L 156 558 C 129 541 95 502 55 440 Z" id="id-female-10_tripper_tights-20">
</path>
<path d="M 60 511 C 60 514 60 514 60 515 C 124 460 171 385 171 385 L 171 379 C 135 433 98 477 60 511 Z" id="id-female-10_tripper_tights-21">
</path>
<path d="M 56 558 C 55 559 56 562 56 562 C 112 513 170 430 170 430 L 170 423 C 133 476 95 521 56 558 Z" id="id-female-10_tripper_tights-22">
</path>
<path d="M 97 562 C 137 520 167 471 167 471 C 166 476 166 478 166 478 C 148 506 126 535 100 563 C 99 563 95 564 97 562 Z" id="id-female-10_tripper_tights-23">
</path>
<path d="M 130 562 C 132 562 134 562 134 562 C 154 535 164 521 164 521 L 164 517 C 141 547 130 562 130 562 Z" id="id-female-10_tripper_tights-24">
</path>
<path d="M 115 562 C 112 562 111 562 111 562 C 94 542 76 517 57 486 C 57 484 57 483 57 481 C 91 536 115 562 115 562 Z" id="id-female-10_tripper_tights-25">
</path>
<path d="M 60 523 C 60 525 60 527 60 527 C 74 550 81 562 81 562 L 83 562 C 68 536 60 523 60 523 Z" id="id-female-10_tripper_tights-26">
</path>
<path d="M 55 550 C 55 552 54 553 54 553 C 57 559 58 561 58 561 L 60 562 C 57 554 55 550 55 550 Z" id="id-female-10_tripper_tights-27">
</path>
<path d="M 47 27 C 46 22 45 20 45 20 C 33 7 26 0 26 0 L 23 2 C 39 18 47 27 47 27 Z" transform="translate(35,13) scale(-1,1) translate(-35,-13)" id="id-female-10_tripper_tights-28">
</path>
</g>
<g transform="translate(0,0)" id="id-female-10_tripper_tights-29">
<path d="M 96 24 C 119 53 147 81 180 107 L 190 120 C 152 93 117 59 85 18 C 81 14 92 20 96 24 Z" id="id-female-10_tripper_tights-2">
</path>
<path d="M 33 0 C 74 85 191 175 191 175 C 191 177 190 180 190 181 C 103 109 50 50 31 6 C 32 3 32 1 33 0 Z" id="id-female-10_tripper_tights-3">
</path>
<path d="M 19 57 C 53 24 69 8 69 8 C 72 10 73 10 73 10 L 17 65 C 19 60 19 57 19 57 Z" id="id-female-10_tripper_tights-4">
</path>
<path d="M 3 126 C 52 85 106 26 106 26 C 109 28 111 28 111 28 C 73 68 37 103 2 133 C 2 131 2 129 3 126 Z" id="id-female-10_tripper_tights-5">
</path>
<path d="M 1 182 C 49 145 94 101 134 52 C 136 51 138 53 137 54 C 98 104 53 149 1 188 C 1 184 1 182 1 182 Z" id="id-female-10_tripper_tights-6">
</path>
<path d="M 7 234 C 5 236 6 242 8 240 C 101 170 162 81 162 81 L 159 78 C 106 147 55 199 7 234 Z" id="id-female-10_tripper_tights-7">
</path>
<path d="M 16 283 C 14 284 16 286 16 288 C 133 197 182 109 182 109 L 179 105 C 134 174 79 233 16 283 Z" id="id-female-10_tripper_tights-8">
</path>
<path d="M 20 54 C 18 56 18 58 18 61 C 93 171 185 238 185 238 L 186 231 C 122 182 67 123 20 54 Z" id="id-female-10_tripper_tights-9">
</path>
<path d="M 8 102 C 7 106 7 106 7 108 C 84 216 179 288 179 288 L 180 282 C 116 232 59 172 8 102 Z" id="id-female-10_tripper_tights-10">
</path>
<path d="M 0 151 C 0 153 0 155 0 157 C 84 264 173 337 173 337 L 173 331 C 109 277 52 217 0 151 Z" id="id-female-10_tripper_tights-11">
</path>
<path d="M 3 206 C 2 208 3 210 3 212 C 86 314 169 385 169 385 C 171 382 171 380 169 379 C 115 332 70 285 3 206 Z" id="id-female-10_tripper_tights-12">
</path>
<path d="M 24 331 C 24 334 24 336 24 337 C 139 246 193 147 193 147 L 192 142 C 144 217 88 280 24 331 Z" id="id-female-10_tripper_tights-13">
</path>
<path d="M 33 378 C 33 380 33 381 33 384 C 137 296 189 205 189 205 L 189 199 C 143 270 91 329 33 378 Z" id="id-female-10_tripper_tights-14">
</path>
<path d="M 12 264 C 11 265 12 268 12 270 C 108 393 167 435 167 435 C 168 432 168 430 167 429 C 116 385 72 340 12 264 Z" id="id-female-10_tripper_tights-15">
</path>
<path d="M 21 316 C 21 318 21 320 21 322 C 102 430 165 480 165 480 C 166 478 167 476 165 474 C 120 443 21 316 21 316 Z" id="id-female-10_tripper_tights-16">
</path>
<path d="M 31 368 C 31 370 32 372 32 374 C 106 475 118 487 163 524 C 163 523 163 520 163 518 C 90 457 85 435 31 368 Z" id="id-female-10_tripper_tights-17">
</path>
<path d="M 43 424 C 42 426 43 428 44 428 C 135 349 182 269 182 269 L 182 263 C 137 331 91 384 43 424 Z" id="id-female-10_tripper_tights-18">
</path>
<path d="M 51 467 C 51 470 51 471 51 473 C 118 415 173 331 173 331 L 174 324 C 133 384 92 432 51 467 Z" id="id-female-10_tripper_tights-19">
</path>
<path d="M 42 420 C 42 423 42 423 42 425 C 109 530 158 562 158 562 L 159 559 C 121 528 82 482 42 420 Z" id="id-female-10_tripper_tights-20">
</path>
<path d="M 56 511 C 56 514 56 514 56 516 C 120 460 169 385 169 385 L 170 378 C 131 433 94 477 56 511 Z" id="id-female-10_tripper_tights-21">
</path>
<path d="M 53 558 C 51 560 52 562 52 562 C 111 516 166 434 166 434 L 167 427 C 132 478 94 522 53 558 Z" id="id-female-10_tripper_tights-22">
</path>
<path d="M 95 562 C 134 520 166 473 166 473 C 165 478 164 480 164 480 C 146 507 124 535 99 563 C 97 563 94 564 95 562 Z" id="id-female-10_tripper_tights-23">
</path>
<path d="M 130 563 C 132 563 134 562 134 562 C 154 535 164 522 164 522 L 164 518 C 141 548 130 563 130 563 Z" id="id-female-10_tripper_tights-24">
</path>
<path d="M 116 562 C 114 562 112 562 112 562 C 90 536 70 507 51 476 C 51 474 51 473 51 471 C 84 527 116 562 116 562 Z" id="id-female-10_tripper_tights-25">
</path>
<path d="M 56 517 C 56 520 56 521 56 521 C 73 549 81 563 81 563 L 84 563 C 65 533 56 517 56 517 Z" id="id-female-10_tripper_tights-26">
</path>
<path d="M 54 552 C 54 554 54 555 54 555 C 56 560 57 563 57 563 L 59 563 C 56 555 54 552 54 552 Z" id="id-female-10_tripper_tights-27">
</path>
</g>
</g>
<defs>
<radialGradient cx="52%" cy="35%" r="46%" id="id-female-11_tube_top-0" fx="52%" fy="35%" gradientTransform="translate(0.524,0.347) scale(0.398,1) rotate(90) scale(1,3) translate(-0.524,-0.347)">
<stop stop-color="#3d4b6d" offset="0%">
</stop>
<stop stop-color="#3d4b6d" offset="51%" stop-opacity="0.482">
</stop>
<stop stop-color="#121620" offset="100%">
</stop>
</radialGradient>
<radialGradient cx="50%" cy="10%" r="93%" id="id-female-11_tube_top-1" fx="50%" fy="10%" gradientTransform="translate(0.5,0.105) scale(0.414,1) rotate(90) scale(1,1) translate(-0.5,-0.105)">
<stop stop-color="#33394b" offset="0%">
</stop>
<stop stop-color="#343a4b" offset="44%" stop-opacity="0.39">
</stop>
<stop stop-color="#121620" offset="100%">
</stop>
</radialGradient>
</defs>
<g transform="translate(494,773)" id="id-female-11_tube_top-2">
<path d="M 287 216 C 297 147 302 112 302 112 C 309 102 316 92 319 84 C 314 50 306 27 297 9 C 263 -9 193 16 160 16 C 127 16 38 -5 33 1 C 28 7 20 14 18 18 C 8 37 0 54 0 75 C 5 91 13 105 24 118 C 30 142 31 186 33 223 C 36 225 40 223 40 223 C 46 217 96 216 161 216 C 198 216 235 207 279 218 C 284 217 287 216 287 216 Z" fill="#121620" id="id-female-11_tube_top-3">
</path>
<path d="M 302 112 C 309 102 316 92 319 84 C 314 50 306 27 297 9 C 263 -9 193 16 160 16 C 127 16 38 -5 33 1 C 28 7 20 14 18 18 C 8 37 0 54 0 75 C 5 91 13 105 24 118 C 30 142 302 112 302 112 Z" fill="url(#id-female-11_tube_top-0)" id="id-female-11_tube_top-3">
</path>
<path d="M 40 228 C 38 227 35 225 33 223 C 31 194 30 166 27 139 C 68 116 112 112 157 117 L 127 126 L 205 117 L 299 128 L 287 216 L 281 224 L 282 218 C 244 216 202 216 157 216 C 123 216 45 216 40 223 L 40 228 Z" fill="url(#id-female-11_tube_top-1)" id="id-female-11_tube_top-5">
</path>
<path d="M 33 217 L 33 215 C 57 206 100 202 164 204 C 227 206 269 209 287 212 L 287 213 C 265 210 224 208 164 207 C 104 205 60 209 33 217 Z" fill="#5b6d8e" id="id-female-11_tube_top-6">
</path>
<path d="M 318 78 C 318 78 318 76 317 73 C 315 71 314 69 314 69 C 304 42 297 24 292 14 C 260 -1 219 13 189 16 C 169 19 162 21 147 19 C 138 18 49 3 42 5 C 37 7 33 5 22 24 C 15 36 9 50 3 70 C 3 72 0 73 0 75 L 2 80 C 2 81 3 80 5 77 C 7 69 9 61 12 53 C 14 47 18 37 24 24 C 30 14 37 8 43 8 C 53 8 123 18 142 21 C 155 24 171 23 191 19 C 216 15 235 10 252 9 C 267 8 280 11 290 17 C 300 41 307 59 311 72 C 311 73 314 75 318 78 Z" fill="#5b6d8e" id="id-female-11_tube_top-3">
</path>
</g>
<defs>
<linearGradient x1="71%" y1="40%" x2="30%" y2="39%" id="id-female-12_neon_pants-0">
<stop stop-color="#4c397e" offset="0%">
</stop>
<stop stop-color="#02baae" offset="17%">
</stop>
<stop stop-color="#02afb7" offset="25%">
</stop>
<stop stop-color="#008bb4" offset="32%">
</stop>
<stop stop-color="#4e3791" offset="45%">
</stop>
<stop stop-color="#4d93db" offset="55%">
</stop>
<stop stop-color="#8678da" offset="72%">
</stop>
<stop stop-color="#b648c5" offset="88%">
</stop>
<stop stop-color="#9b1397" offset="100%">
</stop>
</linearGradient>
<filter width="206%" height="111%" x="-53%" y="-6%" id="id-female-12_neon_pants-1" filterUnits="objectBoundingBox">
<feGaussianBlur in="SourceGraphic" stdDeviation="5">
</feGaussianBlur>
</filter>
<linearGradient x1="50%" y1="1%" x2="50%" y2="100%" id="id-female-12_neon_pants-2">
<stop stop-color="#7ff8f2" offset="0%" stop-opacity="0.754">
</stop>
<stop stop-color="#6feee8" offset="100%" stop-opacity="0.194">
</stop>
</linearGradient>
<linearGradient x1="100%" y1="50%" x2="0%" y2="50%" id="id-female-12_neon_pants-3">
<stop stop-color="#002d70" offset="0%">
</stop>
<stop stop-color="#37569e" offset="12%">
</stop>
<stop stop-color="#287aab" offset="29%">
</stop>
<stop stop-color="#493d97" offset="55%">
</stop>
<stop stop-color="#072c70" offset="61%">
</stop>
<stop stop-color="#0e2b70" offset="79%">
</stop>
<stop stop-color="#6f44a9" offset="88%">
</stop>
<stop stop-color="#552f95" offset="92%">
</stop>
<stop stop-color="#002d6f" offset="100%">
</stop>
</linearGradient>
</defs>
<g transform="translate(450,1104)" id="id-female-12_neon_pants-4">
<path d="M 52 656 C 56 633 58 622 58 622 C 51 561 47 530 47 530 C 21 438 8 341 0 241 C 3 200 17 154 28 108 C 37 61 42 37 42 37 C 47 32 50 29 50 29 L 204 43 L 360 30 C 362 36 362 39 362 39 C 368 45 371 49 371 49 C 370 69 375 88 382 106 C 389 142 393 160 393 160 C 423 294 385 363 350 524 C 350 569 338 618 350 656 C 279 656 244 656 244 656 C 235 630 233 603 230 557 C 223 448 219 360 214 297 C 214 263 214 236 217 223 C 204 222 198 221 198 221 C 197 330 170 446 174 552 C 169 579 167 604 171 628 L 164 656 C 89 656 52 656 52 656 Z" fill="url(#id-female-12_neon_pants-0)" id="id-female-12_neon_pants-5">
</path>
<path d="M 73 656 C 89 626 96 611 96 611 L 56 630 L 52 656 C 66 656 73 656 73 656 Z" fill="#ffffff" fill-opacity="0.235" id="id-female-12_neon_pants-6">
</path>
<path d="M 59 621 C 58 602 57 593 57 593 L 86 590 C 68 611 59 621 59 621 Z" fill="#ffffff" fill-opacity="0.404" id="id-female-12_neon_pants-7">
</path>
<path d="M 126 656 C 126 650 126 647 126 647 C 143 636 151 631 151 631 C 157 576 160 549 160 549 L 173 555 C 168 583 168 607 171 628 L 164 656 C 139 656 126 656 126 656 Z" fill="#000000" fill-opacity="0.206" id="id-female-12_neon_pants-8">
</path>
<path d="M 126 654 L 103 636 L 103 656 C 121 656 130 656 130 656 C 133 619 151 572 142 544 C 151 508 167 474 178 438 C 187 367 191 331 191 331 C 140 447 115 506 115 506 C 104 372 99 305 99 305 C 97 439 97 506 97 506 C 68 469 54 450 54 450 C 54 472 54 483 54 483 C 82 544 97 574 97 574 C 100 613 102 632 102 632 L 127 646 C 127 651 126 654 126 654 Z" fill="#359fee" fill-opacity="0.669" id="id-female-12_neon_pants-9">
</path>
<path d="M 141 543 L 157 530 L 160 549 L 173 555 L 174 552 C 172 489 181 419 191 331 C 158 457 142 527 141 543 Z" fill="#000000" fill-opacity="0.112" id="id-female-12_neon_pants-10">
</path>
<path d="M 145 454 C 141 385 140 351 140 351 L 182 348 C 157 418 145 454 145 454 Z" fill="#ffffff" fill-opacity="0.351" id="id-female-12_neon_pants-11">
</path>
<path d="M 54 450 C 86 523 102 560 102 560 C 126 510 138 486 138 486 C 117 353 112 230 123 118 C 112 119 106 120 106 120 C 94 185 92 271 100 378 L 103 484 C 103 497 102 506 102 511 C 70 470 54 450 54 450 Z" fill="#ffffff" fill-opacity="0.292" id="id-female-12_neon_pants-12">
</path>
<path d="M 132 444 C 142 419 147 407 147 407 C 143 264 141 192 141 192 L 121 138 C 114 229 117 331 132 444 Z" stroke="#979797" fill="#ffffff" fill-opacity="0.175" id="id-female-12_neon_pants-13" filter="url(#id-female-12_neon_pants-1)">
</path>
<path d="M 59 301 C 30 236 15 204 15 204 C 64 132 88 97 88 97 C 114 107 126 112 126 112 C 109 74 101 55 101 55 C 146 60 169 62 169 62 C 170 61 170 61 170 61 C 182 62 188 63 188 63 C 190 115 191 141 191 141 C 186 142 183 142 183 142 C 154 134 140 130 140 130 C 178 199 198 233 198 233 C 117 292 77 321 77 321 L 75 201 C 64 268 59 301 59 301 Z" fill="#ffffff" fill-opacity="0.122" id="id-female-12_neon_pants-15">
</path>
<path d="M 87 116 C 102 104 109 98 109 98 C 99 81 96 69 98 60 L 78 55 C 84 77 88 97 87 116 Z" fill="#ffffff" fill-opacity="0.228" id="id-female-12_neon_pants-16">
</path>
<path d="M 50 29 L 87 55 L 42 37 C 47 32 50 29 50 29 Z" fill="#dd5cd9" id="id-female-12_neon_pants-17">
</path>
<path d="M 83 43 C 82 47 81 48 81 48 C 96 54 103 56 103 56 L 105 48 C 96 46 88 45 83 43 Z" fill="#ec81f1" id="id-female-12_neon_pants-18">
</path>
<path d="M 83 43 C 88 24 91 14 91 14 L 111 18 L 105 48 C 90 45 83 43 83 43 Z" stroke="#979797" id="id-female-12_neon_pants-19">
</path>
<path d="M 253 656 C 246 633 239 611 234 584 C 235 610 237 634 244 656 C 250 656 253 656 253 656 Z" fill="#2d2966" id="id-female-12_neon_pants-20">
</path>
<path d="M 253 656 C 282 656 297 656 297 656 C 296 645 296 640 296 640 C 266 628 251 622 251 622 C 247 603 245 593 245 593 L 244 627 L 253 656 Z" fill="#000000" fill-opacity="0.101" id="id-female-12_neon_pants-21">
</path>
<path d="M 244 627 C 236 599 232 586 232 586 C 231 573 230 567 230 567 L 246 550 L 245 593 L 244 627 Z" fill="#665fc0" id="id-female-12_neon_pants-22">
</path>
<path d="M 288 127 L 258 183 L 215 267 C 215 251 215 234 217 223 L 198 221 L 198 234 L 180 203 L 140 130 L 202 143 L 288 127 Z" fill="#000000" fill-opacity="0.025" id="id-female-12_neon_pants-23">
</path>
<path d="M 331 656 C 325 636 322 627 322 627 C 305 623 297 621 297 621 C 309 611 319 596 329 576 L 337 656 L 331 656 Z" fill="#2ae4e5" id="id-female-12_neon_pants-24">
</path>
<path d="M 344 656 C 337 629 337 591 340 545 C 336 549 332 554 328 561 C 334 462 382 381 401 301 C 393 360 360 468 350 524 C 350 572 338 611 350 656 L 344 656 Z" fill="#000000" fill-opacity="0.146" id="id-female-12_neon_pants-25">
</path>
<path d="M 297 594 C 292 586 331 236 315 191 C 287 191 273 191 273 191 C 298 174 311 165 311 165 C 274 179 256 186 256 186 C 294 129 317 95 325 84 C 336 81 342 79 342 79 C 329 102 326 122 333 140 C 343 141 350 140 364 138 C 362 232 303 493 297 594 Z" fill="#19e8dd" id="id-female-12_neon_pants-26">
</path>
<path d="M 371 55 C 349 99 339 120 339 120 C 360 114 370 111 370 111 C 379 143 383 159 383 159 C 372 179 366 189 366 189 L 381 182 C 393 206 397 252 401 301 C 410 223 395 172 382 106 C 375 89 371 72 371 55 Z" fill="#000000" fill-opacity="0.096" id="id-female-12_neon_pants-27">
</path>
<path d="M 198 226 C 186 210 180 203 180 203 C 144 192 126 187 126 187 C 155 190 183 194 212 197 C 211 208 211 214 211 214 C 230 207 240 204 240 204 L 215 223 L 198 221 C 198 224 198 226 198 226 Z" fill="#4b4191" id="id-female-12_neon_pants-28">
</path>
<path d="M 227 508 C 237 500 242 496 242 496 C 226 406 219 328 221 261 L 215 267 C 214 280 214 291 215 298 C 221 380 222 455 227 508 Z" fill="#665fc0" id="id-female-12_neon_pants-29">
</path>
<path d="M 215 267 C 247 210 263 181 263 181 C 250 186 243 189 243 189 C 202 176 182 170 182 170 L 219 195 L 126 187 L 180 203 L 198 233 L 198 221 L 217 223 C 215 230 215 244 215 267 Z" fill="#000000" fill-opacity="0.14" id="id-female-12_neon_pants-30">
</path>
<path d="M 199 140 C 199 88 198 62 198 62 L 195 56 C 253 55 321 50 360 30 L 362 39 L 371 49 C 371 53 371 56 371 56 C 333 74 314 83 314 83 L 280 128 C 226 136 199 140 199 140 Z" fill="#ffffff" fill-opacity="0.11" id="id-female-12_neon_pants-31">
</path>
<path d="M 202 63 C 220 62 229 61 229 61 C 227 89 227 121 217 131 L 202 135 C 202 87 202 63 202 63 Z" fill="url(#id-female-12_neon_pants-2)" id="id-female-12_neon_pants-32">
</path>
<path d="M 253 106 C 257 90 259 83 259 83 L 340 63 C 282 91 253 106 253 106 Z" fill="#44d7e0" id="id-female-12_neon_pants-33">
</path>
<path d="M 313 48 C 314 53 315 56 315 56 C 328 52 334 51 334 51 L 332 43 C 320 46 313 48 313 48 Z" fill="#1fe7da" id="id-female-12_neon_pants-34">
</path>
<polygon points="335 55 362 39 371 49" fill="#13ebd8" id="id-female-12_neon_pants-35">
</polygon>
<path d="M 15 162 C 15 211 15 236 15 236 L 40 503 C 21 429 8 342 0 241 C 4 207 9 181 15 162 Z" fill="#850485" id="id-female-12_neon_pants-36">
</path>
<path d="M 50 29 C 56 10 59 0 59 0 C 133 34 264 35 354 6 L 360 30 C 329 46 279 55 208 56 C 89 58 49 29 50 29 Z" fill="url(#id-female-12_neon_pants-3)" id="id-female-12_neon_pants-37">
</path>
<path d="M 81 9 C 76 30 74 40 74 40 C 83 44 94 46 104 49 L 108 16 C 94 12 85 10 81 9 Z" fill="#5f3b9f" id="id-female-12_neon_pants-38">
</path>
<path d="M 106 49 C 108 27 109 17 109 17 C 134 22 159 26 185 27 C 182 45 180 54 180 54 L 148 47 C 120 48 106 49 106 49 Z" fill="#9b1a70" id="id-female-12_neon_pants-39">
</path>
<path d="M 192 56 C 192 38 192 29 192 29 C 215 28 227 28 227 28 L 228 54 C 204 55 192 56 192 56 Z" fill="#74dff4" id="id-female-12_neon_pants-40">
</path>
<path d="M 238 26 C 239 45 239 55 239 55 C 262 54 284 52 304 48 L 306 18 C 284 23 261 25 238 26 Z" fill="#2a7cac" id="id-female-12_neon_pants-41">
</path>
<path d="M 304 48 C 319 45 330 42 339 39 L 337 11 C 327 14 316 17 306 18 C 305 38 304 48 304 48 Z" fill="#304c94" id="id-female-12_neon_pants-42">
</path>
<path d="M 313 46 C 311 30 310 22 310 22 C 321 18 327 16 327 16 L 332 41 C 320 44 313 46 313 46 Z" fill="#36569e" id="id-female-12_neon_pants-43">
</path>
<path d="M 227 508 C 228 533 229 552 230 566 C 266 523 358 459 371 433 L 390 359 C 340 419 291 459 242 496 L 227 508 Z" fill="#131a26" id="id-female-12_neon_pants-44">
</path>
<path d="M 274 472 C 272 507 271 525 271 525 C 314 488 336 470 336 470 L 346 408 C 321 432 297 453 274 472 Z" fill="#00418d" id="id-female-12_neon_pants-45">
</path>
<path d="M 148 656 C 155 628 159 615 159 615 C 162 582 165 550 173 519 L 174 552 C 168 583 168 606 171 628 L 164 656 C 153 656 148 656 148 656 Z" fill="#2d2865" id="id-female-12_neon_pants-46">
</path>
<path d="M 126 158 C 144 155 153 153 153 153 L 185 165 C 146 160 126 158 126 158 Z" fill="#bf81e7" id="id-female-12_neon_pants-47">
</path>
<path d="M 128 185 C 158 183 172 182 172 182 L 204 195 C 153 188 128 185 128 185 Z" fill="#bf81e7" id="id-female-12_neon_pants-48">
</path>
</g>
<defs>
<linearGradient x1="88%" y1="50%" x2="18%" y2="50%" id="id-female-12.5_harness_boots-0">
<stop stop-color="#d0aaa0" offset="0%">
</stop>
<stop stop-color="#ba9aab" offset="46%">
</stop>
<stop stop-color="#bb9ab0" offset="100%">
</stop>
</linearGradient>
<linearGradient x1="100%" y1="50%" x2="16%" y2="50%" id="id-female-12.5_harness_boots-1">
<stop stop-color="#fac88c" offset="0%">
</stop>
<stop stop-color="#d6aca6" offset="100%">
</stop>
</linearGradient>
<linearGradient x1="81%" y1="50%" x2="8%" y2="50%" id="id-female-12.5_harness_boots-2">
<stop stop-color="#eec098" offset="0%">
</stop>
<stop stop-color="#a6879f" offset="42%">
</stop>
<stop stop-color="#b597b3" offset="71%">
</stop>
<stop stop-color="#b696b4" offset="100%">
</stop>
</linearGradient>
<linearGradient x1="74%" y1="50%" x2="43%" y2="50%" id="id-female-12.5_harness_boots-3">
<stop stop-color="#fbc98e" offset="0%">
</stop>
<stop stop-color="#cda8ae" offset="100%">
</stop>
</linearGradient>
<linearGradient x1="100%" y1="50%" x2="2%" y2="50%" id="id-female-12.5_harness_boots-4">
<stop stop-color="#ae91b0" offset="0%">
</stop>
<stop stop-color="#7c6898" offset="100%">
</stop>
</linearGradient>
<linearGradient x1="100%" y1="50%" x2="1%" y2="50%" id="id-female-12.5_harness_boots-5">
<stop stop-color="#eaba94" offset="0%">
</stop>
<stop stop-color="#caa5b2" offset="100%">
</stop>
</linearGradient>
</defs>
<g transform="translate(450,1015)" id="id-female-12.5_harness_boots-6">
<path d="M 169 745 C 92 745 53 745 53 745 C 54 705 54 685 54 685 C 52 674 44 669 43 663 C 42 661 48 652 47 616 C 28 527 14 469 2 446 C 1 441 2 436 5 431 C 2 395 0 377 0 377 C 33 358 144 374 167 380 C 167 384 167 386 167 386 C 187 390 198 391 198 391 C 194 425 192 442 192 442 C 197 447 200 450 200 450 C 181 498 172 598 175 631 C 177 637 179 641 180 655 C 173 674 170 683 170 683 L 181 712 C 176 722 171 733 169 745 Z" fill="url(#id-female-12.5_harness_boots-0)" id="id-female-12.5_harness_boots-7">
</path>
<path d="M 169 745 C 128 745 107 745 107 745 C 112 728 117 719 120 713 L 140 691 C 76 673 43 663 43 663 L 53 655 C 106 627 133 613 133 613 C 105 613 92 613 92 613 C 99 605 103 601 103 601 C 98 512 96 467 96 467 C 84 444 70 425 50 430 C 18 440 2 446 2 446 C 2 443 1 441 4 435 C 16 430 22 428 22 428 C 37 428 45 428 45 428 C 40 408 41 388 40 368 C 80 367 122 371 167 380 C 166 419 166 439 166 439 L 195 445 C 198 448 200 450 200 450 C 181 457 171 461 171 461 C 169 573 168 629 168 629 C 164 634 162 637 162 637 C 168 638 171 639 171 639 C 175 657 176 667 176 667 L 173 676 C 152 694 131 714 114 742 L 178 719 C 174 726 171 733 169 745 Z" fill="url(#id-female-12.5_harness_boots-1)" id="id-female-12.5_harness_boots-8">
</path>
<path d="M 63 745 L 53 745 L 54 685 C 60 694 61 703 57 710 C 59 723 61 734 63 745 Z M 43 663 C 42 664 48 645 47 616 C 36 564 23 490 2 445 C 6 447 11 447 15 456 C 29 506 40 537 52 614 C 59 628 75 639 43 663 Z" fill="#d8c3f5" id="id-female-12.5_harness_boots-9">
</path>
<path d="M 82 638 C 109 622 122 614 122 614 C 88 611 72 610 72 610 L 67 617 C 79 626 85 633 82 638 Z" fill="#927ba9" id="id-female-12.5_harness_boots-10">
</path>
<path d="M 119 611 C 125 609 130 607 135 603 C 149 590 136 497 141 452 C 147 443 150 438 150 438 C 137 436 135 415 146 376 C 133 374 127 373 127 373 C 133 386 132 405 125 431 C 135 434 140 435 140 435 C 119 434 109 433 109 433 C 117 439 124 445 131 453 C 134 475 138 513 132 592 C 130 600 125 606 119 611 Z" fill="#fde0a9" id="id-female-12.5_harness_boots-11">
</path>
<path d="M 135 435 C 148 440 155 443 155 443 L 162 438 C 144 436 135 435 135 435 Z" fill="#121e2f" id="id-female-12.5_harness_boots-12">
</path>
<path d="M 149 418 C 143 408 140 402 140 402 C 146 395 149 391 149 391 L 157 404 C 152 413 149 418 149 418 Z" fill="#141f2f" id="id-female-12.5_harness_boots-13">
</path>
<path d="M 166 378 C 165 378 165 378 165 378 C 162 420 161 441 161 441 C 165 447 167 451 167 451 C 163 557 161 611 161 611 C 164 624 165 630 165 630 C 166 516 168 455 169 447 C 174 441 176 438 176 438 C 169 433 165 431 165 431 L 169 385 L 166 385 C 166 380 166 378 166 378 Z" fill="#9a85b6" id="id-female-12.5_harness_boots-14">
</path>
<path d="M 80 664 C 126 672 149 676 149 676 L 173 648 L 172 639 C 166 638 162 637 162 637 L 97 655 C 86 661 80 664 80 664 Z" fill="#f1c597" id="id-female-12.5_harness_boots-15">
</path>
<path d="M 96 653 C 121 633 133 623 133 623 C 160 631 174 635 174 635 L 147 647 C 113 651 96 653 96 653 Z" fill="#bd9da8" id="id-female-12.5_harness_boots-16">
</path>
<path d="M 59 706 C 68 713 73 717 73 717 C 110 703 129 696 129 696 L 44 667 C 48 673 53 679 54 685 C 58 693 60 700 59 706 Z" fill="#8a74a1" id="id-female-12.5_harness_boots-17">
</path>
<path d="M 63 745 C 70 728 74 720 74 720 C 93 725 103 727 103 727 L 111 745 C 79 745 63 745 63 745 Z" fill="#9d82a9" id="id-female-12.5_harness_boots-18">
</path>
<path d="M 177 700 C 164 698 158 698 158 698 L 142 709 C 153 696 163 684 173 676 L 170 682 C 175 694 177 700 177 700 Z" fill="#7d6999" id="id-female-12.5_harness_boots-19">
</path>
<path d="M 44 617 C 61 610 69 607 69 607 C 65 582 63 569 63 569 C 45 566 36 565 36 565 L 33 566 C 41 600 44 617 44 617 Z" fill="#f51f81" id="id-female-12.5_harness_boots-20">
</path>
<path d="M 56 612 L 44 617 L 33 566 C 35 565 36 565 36 565 L 42 566 C 46 582 45 602 56 612 Z" fill="#c0195e" id="id-female-12.5_harness_boots-21">
</path>
<path d="M 5 430 C 10 425 13 423 13 423 L 9 373 C 4 374 3 375 0 377 C 4 412 5 430 5 430 Z" fill="#9179a2" id="id-female-12.5_harness_boots-22">
</path>
<path d="M 84 427 C 70 417 63 412 63 412 C 64 379 64 363 64 363 C 93 366 108 367 108 367 L 106 410 C 91 421 84 427 84 427 Z" fill="#fc2086" id="id-female-12.5_harness_boots-23">
</path>
<path d="M 70 417 L 103 367 L 64 363 L 63 412 C 68 415 70 417 70 417 Z" fill="#c0195e" id="id-female-12.5_harness_boots-24">
</path>
<path d="M 84 396 C 75 385 70 380 70 380 C 70 367 70 360 70 360 C 81 349 86 344 86 344 C 95 354 100 359 100 359 L 98 383 C 89 392 84 396 84 396 Z" fill="#0f1620" id="id-female-12.5_harness_boots-25">
</path>
<path d="M 61 451 C 72 447 77 445 77 445 L 64 435 C 62 446 61 451 61 451 Z" fill="#9179a2" id="id-female-12.5_harness_boots-26">
</path>
<path d="M 214 399 C 217 429 219 444 219 444 C 214 451 212 455 212 455 C 220 509 239 585 219 640 C 227 652 231 658 231 658 C 234 686 235 700 235 700 L 226 725 C 231 730 237 734 241 745 C 317 745 355 745 355 745 C 352 735 342 717 347 694 C 350 682 357 681 357 664 C 342 613 375 543 395 463 C 393 450 391 444 391 444 C 398 410 402 393 402 393 C 360 374 306 373 241 389 L 241 394 C 223 398 214 399 214 399 Z" fill="url(#id-female-12.5_harness_boots-2)" id="id-female-12.5_harness_boots-27">
</path>
<path d="M 241 390 C 242 423 243 440 243 440 C 264 437 275 436 275 436 L 280 382 C 257 386 244 389 241 390 Z" stroke="#979797" id="id-female-12.5_harness_boots-28">
</path>
<path d="M 362 452 L 394 458 L 392 451 L 365 445 C 361 445 360 447 362 452 Z" fill="#fdcc91" id="id-female-12.5_harness_boots-29">
</path>
<path d="M 356 745 L 342 745 L 312 689 L 291 696 L 260 715 L 257 745 L 241 745 C 238 734 232 730 226 725 C 252 712 278 697 301 681 L 237 660 C 226 647 220 640 220 640 C 221 638 221 637 221 637 C 234 642 240 645 240 645 C 289 650 314 653 314 653 C 317 628 318 616 318 616 C 299 619 290 621 290 621 C 286 597 285 585 285 585 C 281 535 266 492 246 452 L 261 385 C 301 377 340 375 377 384 L 368 424 L 368 438 C 365 447 363 452 363 452 C 353 482 348 497 348 497 C 344 541 342 564 342 564 L 358 597 C 353 621 352 643 357 664 C 357 669 357 672 357 672 C 339 662 329 656 329 656 C 317 670 311 676 311 676 L 350 729 L 356 745 Z" fill="url(#id-female-12.5_harness_boots-3)" id="id-female-12.5_harness_boots-30">
</path>
<path d="M 343 435 C 354 437 360 438 360 438 C 324 436 299 437 286 440 C 322 443 340 444 340 444 C 345 447 348 451 350 456 L 332 558 C 332 565 332 569 332 569 C 342 523 347 500 347 500 C 357 469 363 453 363 453 C 361 449 360 446 366 446 L 393 452 C 392 447 392 445 392 445 C 376 441 368 439 368 439 C 368 430 367 426 367 426 C 373 399 376 385 376 385 C 368 383 360 382 350 381 C 345 417 343 435 343 435 Z" fill="#fddea6" id="id-female-12.5_harness_boots-31">
</path>
<polygon points="252 647 305 672 317 651" fill="#eec9a6" id="id-female-12.5_harness_boots-32">
</polygon>
<path d="M 357 669 C 338 657 328 651 328 651 C 327 624 327 610 327 610 L 338 569 L 354 615 C 352 633 353 649 357 664 C 357 667 357 669 357 669 Z" fill="#fddda7" id="id-female-12.5_harness_boots-33">
</path>
<path d="M 364 588 C 356 585 352 584 352 584 C 346 609 343 622 343 622 L 357 633 C 362 603 364 588 364 588 Z" fill="#fc2086" id="id-female-12.5_harness_boots-34">
</path>
<path d="M 251 646 L 307 618 L 318 616 L 315 650 C 272 647 251 646 251 646 Z" fill="#927ba9" id="id-female-12.5_harness_boots-35">
</path>
<path d="M 238 646 C 226 640 220 638 220 638 L 241 607 L 238 646 Z" fill="#927ba9" id="id-female-12.5_harness_boots-36">
</path>
<path d="M 234 684 L 259 668 C 244 663 237 660 237 660 L 224 649 L 231 658 C 233 675 234 684 234 684 Z" fill="#927ba9" id="id-female-12.5_harness_boots-37">
</path>
<path d="M 246 643 C 241 642 239 642 239 642 C 242 601 243 580 243 580 C 233 493 228 449 228 449 C 226 446 225 444 225 444 C 235 439 241 437 241 437 C 242 438 242 439 242 439 C 237 448 234 452 234 452 C 233 452 232 451 232 451 L 246 578 C 246 621 246 643 246 643 Z" fill="#7d6998" id="id-female-12.5_harness_boots-38">
</path>
<path d="M 304 745 C 309 711 312 693 312 693 L 309 690 L 260 715 L 257 745 L 304 745 Z" fill="#977da1" id="id-female-12.5_harness_boots-39">
</path>
<path d="M 328 437 C 339 424 345 418 345 418 C 342 391 341 377 341 377 C 327 376 312 375 298 379 L 304 421 C 320 432 328 437 328 437 Z" fill="#fc2086" id="id-female-12.5_harness_boots-40">
</path>
<path d="M 306 420 L 306 375 L 298 377 L 304 419 C 305 420 306 420 306 420 Z" fill="#bf195e" id="id-female-12.5_harness_boots-41">
</path>
<path d="M 307 400 C 320 407 326 411 326 411 C 334 403 338 399 338 399 C 337 383 336 374 336 374 C 326 364 321 359 321 359 L 304 378 C 306 393 307 400 307 400 Z" fill="#0d141d" id="id-female-12.5_harness_boots-42">
</path>
<path d="M 94 217 L 89 226 L 96 239 C 104 227 108 220 108 220 C 99 218 94 217 94 217 Z" fill="#141a21" id="id-female-12.5_harness_boots-43">
</path>
<path d="M 310 247 C 304 242 301 239 301 239 L 303 229 L 312 233 C 311 242 310 247 310 247 Z" fill="#141a21" id="id-female-12.5_harness_boots-44">
</path>
<path d="M 314 377 C 324 378 329 378 329 378 C 321 276 318 225 318 225 L 304 226 C 311 327 314 377 314 377 Z" fill="#e5b699" id="id-female-12.5_harness_boots-45">
</path>
<path d="M 310 319 C 319 313 324 309 324 309 C 321 268 319 248 319 248 L 306 260 C 309 299 310 319 310 319 Z" fill="#d8d8d8" id="id-female-12.5_harness_boots-46">
</path>
<path d="M 79 365 C 87 366 92 366 92 366 C 101 287 107 238 107 221 C 98 218 93 217 93 217 L 79 345 C 79 358 79 365 79 365 Z" fill="#e5b699" id="id-female-12.5_harness_boots-47">
</path>
<path d="M 108 174 L 130 209 C 130 209 119 219 96 239 L 96 239 L 96 239 C 96 239 90 228 78 206 L 78 206 L 78 206 C 78 205 89 195 108 174 L 108 174 Z M 109 180 C 109 180 101 189 85 206 C 85 206 88 209 94 217 L 94 217 L 94 217 C 94 217 99 218 108 220 L 108 220 L 124 206 Z" fill="#5f6b88" id="id-female-12.5_harness_boots-48">
</path>
<path d="M 307 178 C 325 199 334 210 335 212 L 335 212 C 335 212 335 212 335 212 L 313 247 C 305 241 301 238 301 238 C 286 225 278 218 278 218 C 297 192 306 179 307 178 L 307 178 L 307 178 Z M 308 186 L 308 186 C 308 186 301 197 287 217 L 287 217 L 287 217 C 287 218 293 221 304 228 C 304 228 308 230 315 234 L 315 234 L 328 212 C 328 212 321 204 308 186 L 308 186 Z" fill="#5f6b88" id="id-female-12.5_harness_boots-48">
</path>
<path d="M 241 395 C 238 396 237 396 237 396 L 236 440 C 239 438 241 437 241 437 L 243 440 C 242 410 241 395 241 395 Z" fill="#9985b6" id="id-female-12.5_harness_boots-50">
</path>
<path d="M 219 445 L 218 447 L 225 445 L 236 440 L 237 395 L 215 399 C 218 430 219 445 219 445 Z" fill="#cea7ae" id="id-female-12.5_harness_boots-51">
</path>
<path d="M 256 425 C 261 417 264 413 264 413 C 257 404 254 400 254 400 L 247 415 C 253 422 256 425 256 425 Z" fill="#141f2f" id="id-female-12.5_harness_boots-52">
</path>
<path d="M 244 441 C 255 444 261 445 261 445 L 282 438 C 257 440 244 441 244 441 Z" fill="#152030" id="id-female-12.5_harness_boots-53">
</path>
<path d="M 77 40 C 78 14 79 1 79 1 C 83 0 85 0 85 0 C 86 5 87 7 87 7 C 169 23 248 24 322 11 C 322 7 322 6 322 6 C 328 8 331 9 331 9 C 333 32 334 44 334 44 C 281 54 236 58 197 55 C 158 54 119 49 77 40 Z" fill="#222e42" id="id-female-12.5_harness_boots-54">
</path>
<path d="M 198 57 L 199 21 C 231 21 253 20 266 19 C 301 17 322 12 322 12 C 323 14 323 15 323 15 C 311 17 305 19 305 19 L 307 50 L 285 53 C 250 56 221 58 198 57 Z" fill="#1f385a" id="id-female-12.5_harness_boots-55">
</path>
<path d="M 182 19 C 187 16 190 14 190 14 C 202 23 208 27 208 27 C 218 18 223 14 223 14 C 228 17 230 18 230 18 C 217 31 211 37 211 37 C 210 51 210 59 210 59 C 204 59 201 59 201 59 L 200 36 C 188 25 182 19 182 19 Z" fill="#5f6b88" id="id-female-12.5_harness_boots-56">
</path>
<path d="M 197 20 L 192 29 C 197 34 200 37 200 37 C 200 41 200 43 200 43 L 211 40 L 211 37 L 230 19 L 223 15 L 208 28 C 201 23 197 20 197 20 Z" fill="#8790a4" id="id-female-12.5_harness_boots-57">
</path>
<path d="M 114 191 C 105 190 101 189 101 189 C 101 178 102 173 102 173 C 74 128 60 105 60 105 C 54 101 51 98 51 98 C 70 60 79 40 79 40 C 102 45 113 48 113 48 C 115 22 116 9 116 9 C 125 10 129 11 129 11 C 128 37 127 50 127 50 C 232 52 285 52 285 52 C 284 27 284 15 284 15 C 294 13 299 12 299 12 C 300 38 301 51 301 51 C 320 47 329 46 329 46 C 355 89 368 110 368 110 C 366 116 357 120 351 125 C 338 139 326 155 313 176 C 313 189 314 195 314 195 C 306 196 302 197 302 197 C 299 186 297 181 297 181 C 234 184 175 180 117 176 C 115 186 114 191 114 191 Z" fill="url(#id-female-12.5_harness_boots-4)" id="id-female-12.5_harness_boots-58">
</path>
<path d="M 191 57 C 188 134 187 173 187 173 C 139 168 116 166 116 166 C 96 135 86 120 86 120 C 106 109 117 104 117 104 C 130 115 136 121 136 121 C 154 111 163 106 163 106 C 174 119 180 126 180 126 C 179 117 178 113 178 113 C 185 83 188 68 188 68 C 187 62 186 59 186 59 L 167 55 L 128 50 L 130 11 L 117 9 L 115 48 L 80 40 L 52 98 C 57 102 60 104 60 104 L 107 172 L 102 173 L 102 189 L 115 191 C 117 180 118 175 118 175 C 189 182 224 185 224 185 L 221 57 C 201 57 191 57 191 57 Z" fill="url(#id-female-12.5_harness_boots-5)" id="id-female-12.5_harness_boots-59">
</path>
<path d="M 220 129 C 199 127 188 126 188 126 L 188 69 L 191 57 L 221 57 C 221 105 220 129 220 129 Z" fill="#f8d29d" id="id-female-12.5_harness_boots-60">
</path>
<path d="M 186 147 L 185 130 L 179 125 L 177 112 L 187 68 C 187 121 186 147 186 147 Z" fill="#c7a29f" id="id-female-12.5_harness_boots-61">
</path>
<path d="M 138 117 C 122 103 114 96 114 96 C 131 86 140 81 140 81 L 164 101 C 146 112 138 117 138 117 Z" fill="#fb2085" id="id-female-12.5_harness_boots-62">
</path>
<path d="M 139 106 C 131 100 127 97 127 97 C 136 91 140 88 140 88 L 154 99 C 144 104 139 106 139 106 Z" fill="#101721" id="id-female-12.5_harness_boots-63">
</path>
<polygon points="90 101 52 97 80 40 104 61" fill="#d2bae2" id="id-female-12.5_harness_boots-64">
</polygon>
<path d="M 85 120 C 82 119 81 118 81 118 C 103 150 114 166 114 166 C 187 172 223 175 223 175 C 222 173 221 172 221 172 L 116 163 C 95 134 85 120 85 120 Z" fill="#7c6898" id="id-female-12.5_harness_boots-65">
</path>
<path d="M 105 148 L 125 112 L 135 121 C 153 111 162 106 162 106 C 174 120 180 127 180 127 C 183 141 185 148 185 148 L 186 138 L 187 148 L 186 170 L 116 164 C 109 154 105 148 105 148 Z" fill="#ba99ae" id="id-female-12.5_harness_boots-66">
</path>
<path d="M 242 181 C 231 143 225 124 225 124 C 224 85 223 66 223 66 L 229 60 L 286 53 L 285 15 L 300 13 C 301 38 302 51 302 51 L 334 51 L 370 111 C 368 115 360 120 352 125 C 339 140 326 158 314 176 L 315 195 L 303 197 L 299 181 C 261 181 242 181 242 181 Z" fill="#eab891" id="id-female-12.5_harness_boots-67">
</path>
<path d="M 310 172 C 287 161 276 156 276 156 C 296 122 306 105 306 105 C 285 75 275 60 275 60 L 309 54 C 317 59 321 62 321 62 C 318 87 316 100 316 100 L 344 125 C 322 156 310 172 310 172 Z" fill="#f7d19f" id="id-female-12.5_harness_boots-68">
</path>
<path d="M 268 93 C 271 96 273 97 273 97 C 269 100 267 101 267 101 L 262 98 C 266 95 268 93 268 93 Z" fill="#fb2085" id="id-female-12.5_harness_boots-69">
</path>
<path d="M 271 88 C 289 99 297 104 297 104 C 292 108 290 111 290 111 C 284 106 281 103 281 103 C 276 108 273 110 273 110 C 284 118 289 122 289 122 C 304 110 312 103 312 103 C 294 94 285 89 285 89 C 288 85 290 84 290 84 C 295 87 297 89 297 89 C 303 84 306 82 306 82 L 290 74 C 277 84 271 88 271 88 Z" fill="#fb2085" id="id-female-12.5_harness_boots-70">
</path>
<path d="M 317 96 C 311 93 308 91 308 91 C 312 88 314 86 314 86 L 322 92 C 318 95 317 96 317 96 Z" fill="#fb2085" id="id-female-12.5_harness_boots-71">
</path>
<path d="M 329 213 L 333 209 L 314 186 L 315 195 C 324 207 329 213 329 213 Z" fill="#a28dab" id="id-female-12.5_harness_boots-72">
</path>
<path d="M 125 206 L 123 209 C 128 209 131 209 131 209 C 121 192 116 184 116 184 L 115 189 C 122 201 125 206 125 206 Z" fill="#a28dab" id="id-female-12.5_harness_boots-73">
</path>
<path d="M 52 98 L 54 109 L 61 103 C 55 100 52 98 52 98 Z" fill="#0f1721" id="id-female-12.5_harness_boots-74">
</path>
<path d="M 52 97 L 50 101 L 54 107 C 52 101 52 97 52 97 Z" fill="#756691" id="id-female-12.5_harness_boots-75">
</path>
<path d="M 355 123 C 357 123 357 124 357 124 L 361 128 L 371 110 C 369 114 363 119 355 123 Z" fill="#0f1721" id="id-female-12.5_harness_boots-76">
</path>
</g>
<defs>
<linearGradient x1="50%" y1="0%" x2="50%" y2="100%" id="id-female-21_dreamer_facepaint-0">
<stop stop-color="#fd4a00" offset="0%">
</stop>
<stop stop-color="#ffe400" offset="100%" stop-opacity="0.503">
</stop>
</linearGradient>
</defs>
<g transform="translate(595,373)" id="id-female-21_dreamer_facepaint-1">
<path d="M 65 80 C 92 40 106 19 106 19 C 99 10 96 5 96 5 C 76 -4 52 -1 26 12 L 21 21 C 50 60 65 80 65 80 Z" fill="url(#id-female-21_dreamer_facepaint-0)" opacity="0.615" id="id-female-21_dreamer_facepaint-2">
</path>
<path d="M 59 75 C 52 86 49 91 49 91 C 44 89 41 88 41 88 C 43 92 44 94 44 94 C 34 85 22 79 3 90 C 1 78 0 72 0 72 C 5 68 13 67 25 68 L 16 64 C 44 71 59 75 59 75 Z" fill="#eb5f00" fill-opacity="0.483" id="id-female-21_dreamer_facepaint-3">
</path>
<path d="M 5 96 C 11 104 15 108 15 108 C 27 110 34 107 41 104 C 27 103 14 101 5 96 Z" fill="#eb5f00" fill-opacity="0.483" id="id-female-21_dreamer_facepaint-4">
</path>
<path d="M 30 113 C 37 108 41 105 41 105 L 37 118 C 32 114 30 113 30 113 Z" fill="#89d12e" id="id-female-21_dreamer_facepaint-5">
</path>
<path d="M 89 105 L 91 118 C 91 118 93 116 98 113 L 89 105 Z" fill="#89d12e" id="id-female-21_dreamer_facepaint-6">
</path>
<path d="M 87 102 C 99 110 112 110 127 95 C 112 99 99 101 87 102 Z" fill="#eb5f00" fill-opacity="0.483" id="id-female-21_dreamer_facepaint-7">
</path>
<path d="M 82 92 C 88 87 96 81 127 89 C 127 72 128 64 128 64 C 101 68 82 71 70 75 C 74 84 77 88 77 88 L 84 86 C 83 90 82 92 82 92 Z" fill="#eb5f00" fill-opacity="0.483" id="id-female-21_dreamer_facepaint-8">
</path>
<path d="M 15 109 C 19 153 21 175 21 175 C 24 133 25 112 25 112 L 29 108 C 25 109 20 109 15 109 Z" fill="#ffcd00" fill-opacity="0.559" id="id-female-21_dreamer_facepaint-9">
</path>
<path d="M 102 108 C 105 152 107 174 107 174 L 113 106 C 108 108 104 108 102 108 Z" fill="#ffcd00" fill-opacity="0.559" id="id-female-21_dreamer_facepaint-10">
</path>
<path d="M 15 37 C 11 44 9 47 9 47 L 17 47 C 16 40 15 37 15 37 Z" fill="#ffcd00" fill-opacity="0.559" id="id-female-21_dreamer_facepaint-11">
</path>
<path d="M 36 47 C 32 51 29 52 29 52 L 38 53 C 37 49 36 47 36 47 Z" fill="#ffcd00" fill-opacity="0.559" id="id-female-21_dreamer_facepaint-12">
</path>
<path d="M 32 43 C 24 42 21 42 21 42 L 20 30 C 28 39 32 43 32 43 Z" fill="#ffcd00" fill-opacity="0.559" id="id-female-21_dreamer_facepaint-13">
</path>
<path d="M 93 44 C 101 33 105 28 105 28 L 107 37 C 98 42 93 44 93 44 Z" fill="#ffcd00" fill-opacity="0.559" id="id-female-21_dreamer_facepaint-14">
</path>
<path d="M 96 50 C 103 46 106 45 106 45 L 104 52 C 99 50 96 50 96 50 Z" fill="#ffcd00" fill-opacity="0.559" id="id-female-21_dreamer_facepaint-15">
</path>
<path d="M 90 54 C 92 57 93 58 93 58 L 86 58 C 89 55 90 54 90 54 Z" fill="#ffcd00" fill-opacity="0.559" id="id-female-21_dreamer_facepaint-16">
</path>
</g>
<defs>
<linearGradient x1="51%" y1="7%" x2="50%" y2="59%" id="id-female-25_31_angled_bangs-0">
<stop stop-color="#262a47" offset="0%">
</stop>
<stop stop-color="#3b495e" offset="7%">
</stop>
<stop stop-color="#192d37" offset="28%">
</stop>
<stop stop-color="#37895f" offset="100%">
</stop>
</linearGradient>
<linearGradient x1="51%" y1="20%" x2="50%" y2="70%" id="id-female-25_31_angled_bangs-1">
<stop stop-color="#1a1d36" offset="0%">
</stop>
<stop stop-color="#235542" offset="100%">
</stop>
</linearGradient>
<linearGradient x1="50%" y1="20%" x2="50%" y2="70%" id="id-female-25_31_angled_bangs-2">
<stop stop-color="#1a1d36" offset="0%">
</stop>
<stop stop-color="#235542" offset="100%">
</stop>
</linearGradient>
<linearGradient x1="50%" y1="20%" x2="50%" y2="70%" id="id-female-25_31_angled_bangs-3">
<stop stop-color="#1a1d36" offset="0%">
</stop>
<stop stop-color="#235542" offset="100%">
</stop>
</linearGradient>
</defs>
<g transform="translate(507,318)" id="id-female-25_31_angled_bangs-4">
<path d="M 160 1 C 206 8 235 36 247 86 C 263 131 269 185 264 248 C 277 297 275 354 271 394 C 271 394 271 394 271 394 L 271 394 C 271 392 273 350 268 292 C 268 287 265 277 261 263 L 261 300 L 261 300 C 261 369 278 424 278 425 C 276 447 267 469 253 491 C 263 461 266 436 264 416 C 263 441 255 472 240 507 C 242 482 243 467 241 462 C 233 429 228 382 226 321 C 224 246 222 174 222 105 L 193 120 L 183 82 C 183 97 181 109 178 120 C 173 123 166 126 157 130 L 157 99 C 157 114 155 125 152 131 C 148 133 142 135 136 137 C 135 137 134 130 133 115 L 131 139 L 116 145 L 116 149 L 103 159 L 100 139 L 100 162 L 86 187 L 74 243 C 91 327 97 383 91 411 C 82 457 80 494 85 521 C 66 472 57 439 56 421 C 48 275 45 160 54 109 C 55 109 54 109 54 110 L 54 111 C 52 117 45 141 43 188 C 42 201 41 219 40 237 L 40 240 L 40 240 L 40 242 C 39 266 38 289 36 302 C 32 336 20 363 0 383 C 17 353 27 329 30 311 C 36 273 36 190 40 162 C 49 107 53 100 59 88 C 71 47 94 9 145 1 C 145 1 145 1 145 1 L 146 1 C 146 1 146 1 146 1 L 146 2 L 146 2 L 147 2 C 150 4 154 5 160 1 Z M 249 107 C 252 116 254 131 257 150 C 261 180 256 220 261 233 C 262 232 263 185 258 144 C 254 117 251 105 249 107 Z" fill="url(#id-female-25_31_angled_bangs-0)" id="id-female-25_31_angled_bangs-5">
</path>
<path d="M 76 48 C 72 54 69 61 65 70 C 75 66 87 68 101 75 C 148 98 169 97 200 69 C 213 60 226 56 237 57 C 234 51 231 46 229 42 C 217 59 152 89 121 64 C 103 70 84 62 76 48 Z" fill="#ffffff" opacity="0.497" id="id-female-25_31_angled_bangs-6">
</path>
<path d="M 49 238 L 49 249 C 67 299 74 269 70 159 C 74 233 67 260 49 238 Z" fill="#ffffff" opacity="0.501" id="id-female-25_31_angled_bangs-7">
</path>
<path d="M 103 31 C 58 77 68 174 69 257 C 56 344 5 361 28 471 C 16 411 54 378 68 320 C 60 379 58 379 48 403 C 100 360 54 112 98 41 C 99 40 87 71 87 110 C 90 77 102 32 103 31 Z" fill="url(#id-female-25_31_angled_bangs-1)" id="id-female-25_31_angled_bangs-8">
</path>
<path d="M 207 34 C 240 96 239 182 226 336 C 225 356 229 393 238 448 C 236 322 236 254 238 245 C 239 273 233 292 254 379 C 225 235 263 153 219 58 C 226 66 236 86 247 118 C 236 74 223 46 207 34 Z" fill="url(#id-female-25_31_angled_bangs-2)" id="id-female-25_31_angled_bangs-9">
</path>
<path d="M 76 335 C 77 369 81 449 82 465 C 76 446 73 427 73 408 C 74 382 76 357 76 335 Z" fill="url(#id-female-25_31_angled_bangs-3)" id="id-female-25_31_angled_bangs-10">
</path>
</g>
<defs>
</defs>
<g transform="translate(875,1408)" id="id-female-29_vape-0">
<path d="M 81 68 C 55 49 42 39 42 39 C 47 28 49 22 49 22 L 92 55 C 84 64 81 68 81 68 Z" fill="#10100e" id="id-female-29_vape-1">
</path>
<path d="M 86 62 C 59 41 45 31 45 31 C 47 27 48 25 48 25 L 91 58 C 88 60 86 62 86 62 Z" fill="#554d3c" id="id-female-29_vape-2">
</path>
<path d="M 50 45 C 57 36 60 31 60 31 L 63 33 C 54 41 50 45 50 45 Z" fill="#766f60" id="id-female-29_vape-3">
</path>
<path d="M 57 50 C 55 49 54 48 54 48 C 62 39 65 35 65 35 L 67 36 C 60 46 57 50 57 50 Z" fill="#726c5d" id="id-female-29_vape-4">
</path>
<path d="M 28 26 C 16 20 10 17 10 17 C 11 14 11 12 11 12 C 5 8 1 6 1 6 C 4 3 6 2 6 2 C 10 4 13 5 13 5 C 17 3 20 2 20 2 L 33 10 L 32 13 L 31 23 C 29 25 28 26 28 26 Z" transform="translate(17,14) rotate(7) translate(-17,-14)" fill="#10100e" id="id-female-29_vape-5">
</path>
<path d="M 22 13 C 19 10 18 9 18 9 C 21 7 23 6 23 6 L 25 7 C 23 11 22 13 22 13 Z" fill="#2e2b23" id="id-female-29_vape-6">
</path>
<path d="M 27 16 C 25 15 24 14 24 14 C 27 11 28 9 28 9 L 29 10 C 28 14 27 16 27 16 Z" fill="#4a4335" id="id-female-29_vape-7">
</path>
<path d="M 8 7 C 6 6 5 5 5 5 C 7 3 8 2 8 2 L 11 3 C 9 6 8 7 8 7 Z" fill="#494233" id="id-female-29_vape-8">
</path>
<path d="M 58 33 C 60 34 61 35 61 35 C 58 38 56 39 56 39 L 55 38 C 57 35 58 33 58 33 Z" fill="#b2b3be" id="id-female-29_vape-9">
</path>
<path d="M 62 43 C 60 42 60 42 60 42 C 62 39 64 37 64 37 L 65 38 C 63 42 62 43 62 43 Z" fill="#a8a8ae" id="id-female-29_vape-10">
</path>
<path d="M 84 70 C 82 69 81 68 81 68 C 88 60 92 55 92 55 C 93 58 94 59 94 59 L 91 66 C 87 68 84 70 84 70 Z" fill="#00a608" id="id-female-29_vape-11">
</path>
<path d="M 91 66 C 88 63 86 62 86 62 C 89 59 90 57 90 57 C 90 57 91 58 93 61 C 92 64 91 66 91 66 Z" fill="#02d82d" id="id-female-29_vape-12">
</path>
</g>
<defs>
</defs>

</svg>
