<?xml version="1.0" encoding="UTF-8"?>
<svg xmlns="http://www.w3.org/2000/svg" xmlns:xlink="http://www.w3.org/1999/xlink" width="1320px" height="1760px" viewBox="0 0 1320 1760" version="1.1">
<defs>
</defs>

<defs>
<linearGradient x1="50%" y1="6%" x2="50%" y2="99%" id="id-male-6.6_base_5-0">
<stop stop-color="#914537" offset="0%">
</stop>
<stop stop-color="#d47f5c" offset="8%">
</stop>
<stop stop-color="#b1583c" offset="20%">
</stop>
<stop stop-color="#bd6449" offset="34%">
</stop>
<stop stop-color="#ab4f36" offset="71%">
</stop>
<stop stop-color="#890000" offset="100%">
</stop>
</linearGradient>
<linearGradient x1="50%" y1="-10%" x2="50%" y2="84%" id="id-male-6.6_base_5-1">
<stop stop-color="#b05a3c" offset="0%">
</stop>
<stop stop-color="#d47f59" offset="49%">
</stop>
<stop stop-color="#d47f59" offset="100%">
</stop>
</linearGradient>
<linearGradient x1="57%" y1="50%" x2="47%" y2="56%" id="id-male-6.6_base_5-2">
<stop stop-color="#893810" offset="0%">
</stop>
<stop stop-color="#883c15" offset="100%">
</stop>
</linearGradient>
<linearGradient x1="45%" y1="35%" x2="55%" y2="47%" id="id-male-6.6_base_5-3">
<stop stop-color="#b87263" offset="0%">
</stop>
<stop stop-color="#94451b" offset="100%">
</stop>
</linearGradient>
<linearGradient x1="54%" y1="31%" x2="47%" y2="81%" id="id-male-6.6_base_5-4">
<stop stop-color="#b3634b" offset="0%">
</stop>
<stop stop-color="#af5e4a" offset="20%">
</stop>
<stop stop-color="#ab5c40" offset="60%">
</stop>
<stop stop-color="#94441e" offset="81%">
</stop>
<stop stop-color="#8d3b18" offset="100%">
</stop>
</linearGradient>
<linearGradient x1="43%" y1="38%" x2="54%" y2="44%" id="id-male-6.6_base_5-5">
<stop stop-color="#8f4f38" offset="0%">
</stop>
<stop stop-color="#6d2c24" offset="100%">
</stop>
</linearGradient>
<linearGradient x1="50%" y1="40%" x2="58%" y2="82%" id="id-male-6.6_base_5-6">
<stop stop-color="#ce8466" offset="0%">
</stop>
<stop stop-color="#a34a3b" offset="100%">
</stop>
</linearGradient>
<linearGradient x1="50%" y1="41%" x2="49%" y2="66%" id="id-male-6.6_base_5-7">
<stop stop-color="#571b12" offset="0%">
</stop>
<stop stop-color="#863b30" offset="27%">
</stop>
<stop stop-color="#ac5d46" offset="100%">
</stop>
</linearGradient>
<linearGradient x1="63%" y1="4%" x2="25%" y2="77%" id="id-male-6.6_base_5-8">
<stop stop-color="#ec9e83" offset="0%">
</stop>
<stop stop-color="#f0a38d" offset="55%">
</stop>
<stop stop-color="#d88566" offset="100%">
</stop>
</linearGradient>
<linearGradient x1="50%" y1="23%" x2="41%" y2="77%" id="id-male-6.6_base_5-9">
<stop stop-color="#6b1b1c" offset="0%">
</stop>
<stop stop-color="#883a2c" offset="100%">
</stop>
</linearGradient>
<linearGradient x1="47%" y1="22%" x2="55%" y2="89%" id="id-male-6.6_base_5-10">
<stop stop-color="#a55640" offset="0%">
</stop>
<stop stop-color="#ad5c43" offset="100%">
</stop>
</linearGradient>
<linearGradient x1="86%" y1="87%" x2="11%" y2="66%" id="id-male-6.6_base_5-11">
<stop stop-color="#9f4b3c" offset="0%">
</stop>
<stop stop-color="#a95946" offset="100%">
</stop>
</linearGradient>
<linearGradient x1="71%" y1="11%" x2="50%" y2="100%" id="id-male-6.6_base_5-12">
<stop stop-color="#b1583c" offset="0%" stop-opacity="0">
</stop>
<stop stop-color="#b46953" offset="100%">
</stop>
</linearGradient>
<linearGradient x1="66%" y1="46%" x2="56%" y2="43%" id="id-male-6.6_base_5-13">
<stop stop-color="#914640" offset="0%">
</stop>
<stop stop-color="#8e3b3d" offset="100%">
</stop>
</linearGradient>
<linearGradient x1="100%" y1="41%" x2="50%" y2="63%" id="id-male-6.6_base_5-14">
<stop stop-color="#6a1b1c" offset="0%">
</stop>
<stop stop-color="#631d1a" offset="100%">
</stop>
</linearGradient>
<linearGradient x1="69%" y1="20%" x2="50%" y2="100%" id="id-male-6.6_base_5-15">
<stop stop-color="#a0493e" offset="0%">
</stop>
<stop stop-color="#ab5c49" offset="100%">
</stop>
</linearGradient>
<linearGradient x1="36%" y1="20%" x2="57%" y2="81%" id="id-male-6.6_base_5-16">
<stop stop-color="#e39d82" offset="0%">
</stop>
<stop stop-color="#c3795d" offset="100%">
</stop>
</linearGradient>
<linearGradient x1="26%" y1="83%" x2="92%" y2="50%" id="id-male-6.6_base_5-17">
<stop stop-color="#d7835f" offset="0%">
</stop>
<stop stop-color="#ad6545" offset="100%" stop-opacity="0">
</stop>
</linearGradient>
<linearGradient x1="17%" y1="56%" x2="85%" y2="45%" id="id-male-6.6_base_5-18">
<stop stop-color="#e49478" offset="0%">
</stop>
<stop stop-color="#ca8266" offset="52%">
</stop>
<stop stop-color="#bf6e50" offset="100%">
</stop>
</linearGradient>
<linearGradient x1="17%" y1="24%" x2="70%" y2="81%" id="id-male-6.6_base_5-19">
<stop stop-color="#ed9e85" offset="0%">
</stop>
<stop stop-color="#b9694f" offset="100%">
</stop>
</linearGradient>
<linearGradient x1="26%" y1="42%" x2="80%" y2="75%" id="id-male-6.6_base_5-20">
<stop stop-color="#eda186" offset="0%">
</stop>
<stop stop-color="#d68360" offset="100%" stop-opacity="0">
</stop>
</linearGradient>
<linearGradient x1="29%" y1="56%" x2="77%" y2="50%" id="id-male-6.6_base_5-21">
<stop stop-color="#f4ab96" offset="0%">
</stop>
<stop stop-color="#dd9470" offset="100%" stop-opacity="0">
</stop>
</linearGradient>
<linearGradient x1="74%" y1="24%" x2="34%" y2="74%" id="id-male-6.6_base_5-22">
<stop stop-color="#c16e5c" offset="0%">
</stop>
<stop stop-color="#d07957" offset="100%">
</stop>
</linearGradient>
<linearGradient x1="66%" y1="100%" x2="40%" y2="0%" id="id-male-6.6_base_5-23">
<stop stop-color="#c86f52" offset="0%">
</stop>
<stop stop-color="#f1a793" offset="46%">
</stop>
<stop stop-color="#ce7854" offset="100%">
</stop>
</linearGradient>
<linearGradient x1="28%" y1="76%" x2="73%" y2="20%" id="id-male-6.6_base_5-24">
<stop stop-color="#c56649" offset="0%">
</stop>
<stop stop-color="#ae4636" offset="67%">
</stop>
<stop stop-color="#b24a39" offset="100%">
</stop>
</linearGradient>
<linearGradient x1="52%" y1="13%" x2="59%" y2="75%" id="id-male-6.6_base_5-25">
<stop stop-color="#9f362e" offset="0%">
</stop>
<stop stop-color="#bc5940" offset="100%">
</stop>
</linearGradient>
<linearGradient x1="66%" y1="59%" x2="24%" y2="66%" id="id-male-6.6_base_5-26">
<stop stop-color="#ab5c47" offset="0%">
</stop>
<stop stop-color="#ce8467" offset="100%">
</stop>
</linearGradient>
<linearGradient x1="41%" y1="11%" x2="61%" y2="81%" id="id-male-6.6_base_5-27">
<stop stop-color="#de8c76" offset="0%">
</stop>
<stop stop-color="#bb5a4a" offset="100%">
</stop>
</linearGradient>
<linearGradient x1="19%" y1="58%" x2="66%" y2="43%" id="id-male-6.6_base_5-28">
<stop stop-color="#e09d85" offset="0%">
</stop>
<stop stop-color="#c68266" offset="100%">
</stop>
</linearGradient>
<linearGradient x1="73%" y1="50%" x2="30%" y2="53%" id="id-male-6.6_base_5-29">
<stop stop-color="#9b5f42" offset="0%">
</stop>
<stop stop-color="#b67b61" offset="100%">
</stop>
</linearGradient>
<linearGradient x1="31%" y1="0%" x2="50%" y2="100%" id="id-male-6.6_base_5-30">
<stop stop-color="#eea190" offset="0%">
</stop>
<stop stop-color="#e69987" offset="100%">
</stop>
</linearGradient>
<linearGradient x1="29%" y1="43%" x2="65%" y2="100%" id="id-male-6.6_base_5-31">
<stop stop-color="#e4987e" offset="0%">
</stop>
<stop stop-color="#c76d4e" offset="100%">
</stop>
</linearGradient>
<linearGradient x1="13%" y1="78%" x2="84%" y2="50%" id="id-male-6.6_base_5-32">
<stop stop-color="#c87e68" offset="0%">
</stop>
<stop stop-color="#cb715f" offset="100%">
</stop>
</linearGradient>
<linearGradient x1="50%" y1="0%" x2="36%" y2="100%" id="id-male-6.6_base_5-33">
<stop stop-color="#e6977f" offset="0%">
</stop>
<stop stop-color="#de8d74" offset="100%">
</stop>
</linearGradient>
<linearGradient x1="50%" y1="28%" x2="64%" y2="55%" id="id-male-6.6_base_5-34">
<stop stop-color="#e49777" offset="0%">
</stop>
<stop stop-color="#df8e6e" offset="100%">
</stop>
</linearGradient>
<linearGradient x1="40%" y1="55%" x2="62%" y2="71%" id="id-male-6.6_base_5-35">
<stop stop-color="#ce7853" offset="0%">
</stop>
<stop stop-color="#c46c4c" offset="100%">
</stop>
</linearGradient>
<linearGradient x1="9%" y1="37%" x2="88%" y2="55%" id="id-male-6.6_base_5-36">
<stop stop-color="#ad5d46" offset="0%">
</stop>
<stop stop-color="#913a39" offset="100%">
</stop>
</linearGradient>
<linearGradient x1="62%" y1="19%" x2="50%" y2="100%" id="id-male-6.6_base_5-37">
<stop stop-color="#ca7352" offset="0%">
</stop>
<stop stop-color="#ab4d3c" offset="100%">
</stop>
</linearGradient>
<linearGradient x1="45%" y1="18%" x2="51%" y2="67%" id="id-male-6.6_base_5-38">
<stop stop-color="#f1a68e" offset="0%">
</stop>
<stop stop-color="#d47c59" offset="100%">
</stop>
</linearGradient>
<linearGradient x1="50%" y1="0%" x2="50%" y2="100%" id="id-male-6.6_base_5-39">
<stop stop-color="#f1a38c" offset="0%">
</stop>
<stop stop-color="#d07b57" offset="100%">
</stop>
</linearGradient>
<linearGradient x1="45%" y1="50%" x2="58%" y2="50%" id="id-male-6.6_base_5-40">
<stop stop-color="#a84b37" offset="0%">
</stop>
<stop stop-color="#cd7c64" offset="100%">
</stop>
</linearGradient>
<linearGradient x1="33%" y1="74%" x2="77%" y2="42%" id="id-male-6.6_base_5-41">
<stop stop-color="#c47259" offset="0%">
</stop>
<stop stop-color="#c87355" offset="100%">
</stop>
</linearGradient>
<linearGradient x1="63%" y1="59%" x2="38%" y2="59%" id="id-male-6.6_base_5-42">
<stop stop-color="#ce7753" offset="0%">
</stop>
<stop stop-color="#dc8a6a" offset="100%">
</stop>
</linearGradient>
<linearGradient x1="50%" y1="0%" x2="50%" y2="100%" id="id-male-6.6_base_5-43">
<stop stop-color="#cc8672" offset="0%">
</stop>
<stop stop-color="#a24638" offset="100%">
</stop>
</linearGradient>
<linearGradient x1="47%" y1="47%" x2="53%" y2="50%" id="id-male-6.6_base_5-44">
<stop stop-color="#ca9b87" offset="0%">
</stop>
<stop stop-color="#a04c40" offset="100%">
</stop>
</linearGradient>
<linearGradient x1="50%" y1="0%" x2="50%" y2="100%" id="id-male-6.6_base_5-45">
<stop stop-color="#ab5b4f" offset="0%">
</stop>
<stop stop-color="#ab5a53" offset="100%">
</stop>
</linearGradient>
<linearGradient x1="50%" y1="11%" x2="50%" y2="100%" id="id-male-6.6_base_5-46">
<stop stop-color="#b98472" offset="0%">
</stop>
<stop stop-color="#cd8870" offset="100%">
</stop>
</linearGradient>
<linearGradient x1="0%" y1="55%" x2="100%" y2="55%" id="id-male-6.6_base_5-47">
<stop stop-color="#b6746e" offset="0%">
</stop>
<stop stop-color="#9e4248" offset="100%">
</stop>
</linearGradient>
<linearGradient x1="50%" y1="37%" x2="50%" y2="100%" id="id-male-6.6_base_5-48">
<stop stop-color="#c1846e" offset="0%">
</stop>
<stop stop-color="#a32e2c" offset="100%">
</stop>
</linearGradient>
<linearGradient x1="49%" y1="41%" x2="51%" y2="77%" id="id-male-6.6_base_5-49">
<stop stop-color="#9f5844" offset="0%">
</stop>
<stop stop-color="#872f14" offset="59%">
</stop>
<stop stop-color="#a44b3b" offset="100%">
</stop>
</linearGradient>
<linearGradient x1="33%" y1="47%" x2="59%" y2="56%" id="id-male-6.6_base_5-50">
<stop stop-color="#a55b45" offset="0%">
</stop>
<stop stop-color="#763517" offset="100%">
</stop>
</linearGradient>
</defs>
<g transform="translate(304,473)" id="id-male-6.6_base_5-51">
<polygon points="174 662 139 824 137 906 146 1082 171 1154 176 1211 174 1230 175 1284 287 1284 284 1265 308 1195 306 1124 345 952 343 912 353 879 362 881 371 877 383 904 391 970 434 1079 457 1202 475 1252 475 1284 596 1284 600 1225 591 1146 609 1103 612 997 596 842 545 671 539 640 528 606 531 569 509 498 522 403 539 360 539 348 563 464 576 498 585 574 637 704 646 760 646 778 626 822 624 853 631 879 629 901 632 920 637 931 647 931 657 920 655 877 659 867 670 874 672 899 676 903 667 923 644 934 643 945 666 939 664 948 643 960 640 982 657 971 674 969 690 945 701 933 704 926 707 923 713 892 718 871 704 832 696 786 703 768 693 725 693 521 652 425 629 282 626 203 612 175 567 156 548 141 530 139 479 114 422 73 416 42 415 1 285 0 284 73 279 83 242 114 196 137 171 139 155 156 108 175 91 228 91 287 68 431 30 516 23 602 28 725 16 764 21 782 0 874 18 932 49 968 59 970 83 982 83 965 78 960 57 949 55 941 78 948 78 936 66 929 53 923 45 906 51 875 61 866 66 877 63 922 75 927 86 925 93 899 90 877 96 856 96 824 75 778 77 738 108 637 139 562 142 495 159 458 180 358 199 403 203 461 211 504 188 564 191 608" fill="url(#id-male-6.6_base_5-0)" id="id-male-6.6_base_5-52">
</polygon>
<polygon points="91 287 68 431 30 516 23 602 72 688 117 614 98 452 109 469 123 336 102 372 109 294 88 309 109 285" fill="url(#id-male-6.6_base_5-1)" id="id-male-6.6_base_5-52">
</polygon>
<polygon points="383 906 391 972 434 1081 457 1204 475 1254 475 1287 596 1287 600 1226 591 1148 609 1105 612 999 602 904 584 908 584 846 535 683 456 705 382 878" fill="url(#id-male-6.6_base_5-2)" id="id-male-6.6_base_5-52">
</polygon>
<polygon points="137 907 146 1083 171 1156 176 1212 174 1232 175 1286 175 1287 287 1287 284 1266 308 1197 306 1126 345 954 343 923 293 814 263 724 247 711" fill="url(#id-male-6.6_base_5-3)" id="id-male-6.6_base_5-52">
</polygon>
<polygon points="545 673 539 641 528 608 531 571 509 500 522 405 539 361 539 350 563 465 576 500 601 540 660 491 688 529 652 427 629 283 626 205 612 177 568 157 548 142 530 141 479 116 422 75 416 44 415 3 360 3 360 715 462 724" fill="url(#id-male-6.6_base_5-4)" id="id-male-6.6_base_5-52">
</polygon>
<polygon points="83 984 59 972 49 970 21 932 19 903 7 879 0 874 11 824 38 786 38 814 56 786 78 800 91 822 83 879 69 882 63 855 51 877 45 908 47 930 37 930 50 938 53 954 49 960 56 956 83 973" fill="#ce7753" id="id-male-6.6_base_5-57">
</polygon>
<polygon points="66 855 69 882 63 855 51 877 45 908 42 870 58 825" fill="url(#id-male-6.6_base_5-5)" id="id-male-6.6_base_5-57">
</polygon>
<polygon points="83 879 69 882 70 868" fill="#e39273" id="id-male-6.6_base_5-57">
</polygon>
<polygon points="481 376 513 349 558 291 522 368" fill="#a2656c" id="id-male-6.6_base_5-60">
</polygon>
<polygon points="313 697 260 560 246 448 259 424 355 408 361 366 317 404 285 409 267 378 313 343 394 351 431 378 420 404 368 399 371 404 449 421 466 441 449 510 466 547 406 697 358 717" fill="url(#id-male-6.6_base_5-6)" id="id-male-6.6_base_5-61">
</polygon>
<polygon points="410 90 430 82 423 76 416 45 416 7 286 9 286 48 283 76 278 86 244 114 195 139 366 139 390 70 410 26" fill="url(#id-male-6.6_base_5-7)" id="id-male-6.6_base_5-62">
</polygon>
<polygon points="182 180 133 231 97 289 97 231 113 182 165 159" fill="url(#id-male-6.6_base_5-8)" id="id-male-6.6_base_5-63">
</polygon>
<polygon points="346 107 384 55 409 31 414 23 299 31" fill="url(#id-male-6.6_base_5-9)" id="id-male-6.6_base_5-64">
</polygon>
<polygon points="287 93 295 32 323 129" fill="url(#id-male-6.6_base_5-10)" id="id-male-6.6_base_5-65">
</polygon>
<polygon points="336 139 314 151 270 146 224 139" fill="#c0775d" id="id-male-6.6_base_5-66">
</polygon>
<polygon points="410 84 409 136 461 129" fill="url(#id-male-6.6_base_5-11)" id="id-male-6.6_base_5-67">
</polygon>
<polygon points="173 246 167 286 191 351 263 386 328 330 359 330 359 152 348 139 336 139 309 152" fill="url(#id-male-6.6_base_5-12)" id="id-male-6.6_base_5-68">
</polygon>
<polygon points="464 159 516 190 500 159" fill="url(#id-male-6.6_base_5-13)" id="id-male-6.6_base_5-69">
</polygon>
<polygon points="302 31 346 72 382 62 409 37 416 28 416 13" fill="url(#id-male-6.6_base_5-14)" id="id-male-6.6_base_5-70">
</polygon>
<polygon points="263 151 191 202 219 151" fill="#bb6d52" id="id-male-6.6_base_5-71">
</polygon>
<polygon points="154 206 170 170 122 188" fill="#ffb4a1" id="id-male-6.6_base_5-72">
</polygon>
<polygon points="358 285 344 299 323 318 305 354 358 345 354 305" fill="url(#id-male-6.6_base_5-15)" id="id-male-6.6_base_5-73">
</polygon>
<polygon points="260 361 265 387 203 371 191 347" fill="#9e4d3d" id="id-male-6.6_base_5-74">
</polygon>
<polygon points="198 362 181 359 167 284" fill="#760000" id="id-male-6.6_base_5-75">
</polygon>
<polygon points="477 341 477 335 488 326 496 325 509 338 496 348 485 354" fill="#883232" id="id-male-6.6_base_5-76">
</polygon>
<polygon points="314 151 342 220 317 293 237 351 209 318 172 251 185 205 270 146" fill="url(#id-male-6.6_base_5-16)" id="id-male-6.6_base_5-77">
</polygon>
<polygon points="314 151 330 238 209 318 172 251 185 205 270 146" fill="url(#id-male-6.6_base_5-17)" id="id-male-6.6_base_5-77">
</polygon>
<polygon points="314 151 350 205 220 227 185 205 270 146" fill="url(#id-male-6.6_base_5-18)" opacity="0.369" id="id-male-6.6_base_5-77">
</polygon>
<polygon points="211 335 223 322 242 327 244 332 235 353 213 349" fill="#983d37" id="id-male-6.6_base_5-80">
</polygon>
<polygon points="224 339 226 342 226 345 222 349 235 350 242 333 230 338 227 335" fill="#a6607c" id="id-male-6.6_base_5-81">
</polygon>
<polygon points="488 343 491 347 486 351 479 338 489 327 495 327 493 336" fill="#a84e5a" id="id-male-6.6_base_5-82">
</polygon>
<polygon points="485 339 488 343 493 337" fill="#d57d5e" id="id-male-6.6_base_5-83">
</polygon>
<polygon points="359 162 359 291 406 325 455 347 529 267 463 182 415 166" fill="url(#id-male-6.6_base_5-19)" id="id-male-6.6_base_5-84">
</polygon>
<polygon points="359 178 359 281 391 302 391 249 489 270 461 189 415 166" fill="url(#id-male-6.6_base_5-20)" id="id-male-6.6_base_5-84">
</polygon>
<polygon points="359 178 359 219 472 220 461 189 415 166 371 163" fill="url(#id-male-6.6_base_5-21)" id="id-male-6.6_base_5-84">
</polygon>
<polygon points="358 178 372 168 440 156 413 137 378 158 411 80 396 60 358 146" fill="url(#id-male-6.6_base_5-22)" id="id-male-6.6_base_5-87">
</polygon>
<polygon points="346 140 358 152 372 129 400 48 369 86 364 130" fill="#b66b53" id="id-male-6.6_base_5-88">
</polygon>
<polygon points="591 281 601 226 559 159 514 159 523 138 499 156 571 263" fill="url(#id-male-6.6_base_5-23)" id="id-male-6.6_base_5-89">
</polygon>
<polygon points="609 298 626 332 629 285 627 227 614 207 617 251" fill="#9a84a9" id="id-male-6.6_base_5-90">
</polygon>
<polygon points="554 159 567 157 612 177 614 192 579 175 603 207 601 226" fill="#c2694b" id="id-male-6.6_base_5-91">
</polygon>
<polygon points="625 840 700 762 688 738 679 784 648 776 626 822" fill="url(#id-male-6.6_base_5-24)" id="id-male-6.6_base_5-92">
</polygon>
<polygon points="648 862 648 845 661 825 661 870 654 878 657 922 652 929 637 929 632 914 632 893 632 877 644 888" fill="#8f3209" id="id-male-6.6_base_5-93">
</polygon>
<polygon points="554 375 577 333 607 451 594 508 568 462" fill="#c86d5d" id="id-male-6.6_base_5-94">
</polygon>
<polygon points="641 823 648 826 697 896 713 873 682 781" fill="url(#id-male-6.6_base_5-25)" id="id-male-6.6_base_5-92">
</polygon>
<polygon points="623 326 643 425 633 431 693 523 652 427 636 326 625 315" fill="#9e7994" id="id-male-6.6_base_5-96">
</polygon>
<polygon points="628 274 638 339 623 314" fill="#8e465a" id="id-male-6.6_base_5-97">
</polygon>
<polygon points="693 523 695 567 685 525 618 416 633 431" fill="#913f53" id="id-male-6.6_base_5-98">
</polygon>
<polygon points="640 463 599 539 601 571 634 655 646 703 650 754 658 640 660 491" fill="#ca6e4e" id="id-male-6.6_base_5-99">
</polygon>
<polygon points="610 531 648 646 652 546 638 479" fill="#dc8a72" id="id-male-6.6_base_5-99">
</polygon>
<polygon points="693 748 677 730 677 700 660 491 685 525 691 552 684 727" fill="#ac4536" id="id-male-6.6_base_5-101">
</polygon>
<polygon points="691 746 703 768 693 727 695 567 691 551 683 727" fill="#95a2d2" id="id-male-6.6_base_5-102">
</polygon>
<polygon points="260 559 310 683 355 716 263 713 238 685 195 582" fill="url(#id-male-6.6_base_5-26)" id="id-male-6.6_base_5-103">
</polygon>
<polygon points="637 931 636 919 639 914 653 914 653 922 651 929 648 931 644 933" fill="#a84536" id="id-male-6.6_base_5-104">
</polygon>
<polygon points="637 861 637 882 641 890 653 886 649 861" fill="#b14937" id="id-male-6.6_base_5-105">
</polygon>
<polygon points="691 871 693 912 688 936 669 956 671 965 696 924 696 909 705 877" fill="#b85640" id="id-male-6.6_base_5-106">
</polygon>
<polygon points="703 768 684 788 693 837 712 873 702 908 701 933 707 925 718 873 704 834 697 788" fill="#91350b" id="id-male-6.6_base_5-107">
</polygon>
<polygon points="667 939 643 946 644 934 657 928 667 922 676 903 672 899 670 874 660 870 660 854 671 867 680 873 680 902 677 920" fill="#7a231b" id="id-male-6.6_base_5-108">
</polygon>
<polygon points="361 510 359 634 426 561 420 535" fill="url(#id-male-6.6_base_5-27)" opacity="0.626" id="id-male-6.6_base_5-109">
</polygon>
<polygon points="319 403 289 399 268 380 313 343 361 348 362 372" fill="url(#id-male-6.6_base_5-28)" id="id-male-6.6_base_5-110">
</polygon>
<polygon points="171 141 168 151 180 151 204 139 196 138" fill="url(#id-male-6.6_base_5-29)" id="id-male-6.6_base_5-111">
</polygon>
<polygon points="359 308 362 360 382 334" fill="#dd9481" opacity="0.625" id="id-male-6.6_base_5-112">
</polygon>
<polygon points="360 546 360 584 387 551 374 540" fill="url(#id-male-6.6_base_5-30)" opacity="0.626" id="id-male-6.6_base_5-113">
</polygon>
<polygon points="346 542 360 547 373 540 360 534" fill="#86000c" id="id-male-6.6_base_5-114">
</polygon>
<polygon points="325 545 277 503 259 561 308 579" fill="url(#id-male-6.6_base_5-31)" opacity="0.758" id="id-male-6.6_base_5-115">
</polygon>
<polygon points="389 499 460 467 449 510 404 520" fill="url(#id-male-6.6_base_5-32)" id="id-male-6.6_base_5-116">
</polygon>
<polygon points="364 491 361 403 420 428" fill="url(#id-male-6.6_base_5-33)" opacity="0.758" id="id-male-6.6_base_5-117">
</polygon>
<polygon points="262 446 333 446 323 469 279 492" fill="url(#id-male-6.6_base_5-34)" opacity="0.758" id="id-male-6.6_base_5-118">
</polygon>
<polygon points="259 425 279 496 259 561 236 528 213 443 227 425 243 447" fill="url(#id-male-6.6_base_5-35)" id="id-male-6.6_base_5-119">
</polygon>
<polygon points="412 343 444 374 466 383 499 351 447 354 416 339" fill="url(#id-male-6.6_base_5-36)" id="id-male-6.6_base_5-120">
</polygon>
<polygon points="164 252 163 278 128 284" fill="#953f32" id="id-male-6.6_base_5-121">
</polygon>
<polygon points="58 478 88 441 88 416 69 430 66 456" fill="url(#id-male-6.6_base_5-37)" id="id-male-6.6_base_5-122">
</polygon>
<polygon points="76 684 69 634 61 517 89 474 111 569" fill="url(#id-male-6.6_base_5-38)" id="id-male-6.6_base_5-123">
</polygon>
<polygon points="53 489 47 539 69 635 76 684 53 760 40 781 16 766 28 727 23 604 28 544" fill="url(#id-male-6.6_base_5-39)" id="id-male-6.6_base_5-124">
</polygon>
<polygon points="136 452 127 497 153 460 177 340 170 300" fill="#a34532" id="id-male-6.6_base_5-125">
</polygon>
<polygon points="181 359 159 460 143 497 142 514 123 532 109 514 108 490 127 497 153 460 177 340" fill="#943f3a" id="id-male-6.6_base_5-125">
</polygon>
<polygon points="38 747 28 772 38 788 44 772" fill="#e39275" id="id-male-6.6_base_5-127">
</polygon>
<polygon points="359 379 342 413 361 444 377 417" fill="url(#id-male-6.6_base_5-40)" id="id-male-6.6_base_5-128">
</polygon>
<polygon points="196 581 260 561 229 519" fill="url(#id-male-6.6_base_5-41)" id="id-male-6.6_base_5-129">
</polygon>
<polygon points="74 929 66 925 69 909 78 905 86 912 83 928" fill="url(#id-male-6.6_base_5-42)" id="id-male-6.6_base_5-130">
</polygon>
<polygon points="20 903 7 880 21 851 28 871" fill="#dc8a6a" id="id-male-6.6_base_5-131">
</polygon>
<polygon points="218 1123 203 1040 191 913 171 1090 182 1169 230 1208 261 1237 270 1213 234 1175 212 1157 272 1191 281 1169" fill="url(#id-male-6.6_base_5-43)" opacity="0.808" id="id-male-6.6_base_5-132">
</polygon>
<polygon points="182 1207 181 1155 213 1106 236 1166 230 1210" fill="#b15d4d" id="id-male-6.6_base_5-133">
</polygon>
<polygon points="187 902 211 1137 227 1161 275 1187 299 1137 272 1009 299 918 269 791 211 836" fill="url(#id-male-6.6_base_5-44)" id="id-male-6.6_base_5-134">
</polygon>
<polygon points="288 1079 311 1040 311 942 295 903 264 1019 275 1188 301 1137" fill="url(#id-male-6.6_base_5-45)" id="id-male-6.6_base_5-135">
</polygon>
<polygon points="584 908 604 1008 608 1106 614 998 599 887" fill="#948ab4" id="id-male-6.6_base_5-136">
</polygon>
<polygon points="430 886 488 1140 535 1115 561 925 566 886 536 816 500 786" fill="url(#id-male-6.6_base_5-46)" opacity="0.792" id="id-male-6.6_base_5-137">
</polygon>
<polygon points="581 921 588 1011 584 1112 576 1162 544 1046 566 886" fill="url(#id-male-6.6_base_5-47)" id="id-male-6.6_base_5-138">
</polygon>
<polygon points="561 1247 518 1200 472 1112 494 931 505 931 594 1188 579 1244" fill="url(#id-male-6.6_base_5-48)" id="id-male-6.6_base_5-139">
</polygon>
<polygon points="531 1221 539 1263 536 1269 516 1287 509 1287 500 1263 513 1199 488 1226 462 1170 472 1101 427 1010 398 877 469 771 518 739 536 818 500 787 433 890 477 1078 534 1212" fill="url(#id-male-6.6_base_5-49)" id="id-male-6.6_base_5-140">
</polygon>
<polygon points="321 1058 284 852 258 721 266 733 371 879 362 883 354 881 343 914 345 954" fill="#99513d" id="id-male-6.6_base_5-141">
</polygon>
<polygon points="429 1068 424 875 536 705 454 704 380 865 384 906 391 972" fill="#9b4949" opacity="0.394" id="id-male-6.6_base_5-142">
</polygon>
<polygon points="175 1262 194 1287 206 1287 225 1226 213 1249 175 1221 174 1232" fill="#792e06" id="id-male-6.6_base_5-143">
</polygon>
<polygon points="528 1227 554 1234 569 1169 549 1168" fill="#b9645b" id="id-male-6.6_base_5-144">
</polygon>
<polygon points="546 678 545 672 539 641 528 608 531 571 509 500 522 405 539 361 539 350 547 389 542 330 558 289 517 369 528 369 517 411 499 442 509 465 488 531 507 525 522 585 449 724" fill="#792e2e" id="id-male-6.6_base_5-52">
</polygon>
<polygon points="402 722 490 609 522 585 449 723" fill="#9e4c3c" id="id-male-6.6_base_5-146">
</polygon>
<polygon points="174 664 139 826 137 907 139 937 238 690 352 886 354 881 362 883 371 879 383 906 471 773 548 712 596 844 545 673 539 641 478 697 449 723 278 705 232 657 188 566 191 610" fill="url(#id-male-6.6_base_5-50)" id="id-male-6.6_base_5-52">
</polygon>
<polygon points="139 836 225 709 167 697 139 826" fill="#8f361d" id="id-male-6.6_base_5-148">
</polygon>
<polygon points="518 734 596 843 547 678" fill="#711c13" id="id-male-6.6_base_5-149">
</polygon>
<polygon points="415 778 447 726 314 744 329 762" fill="#af5544" opacity="0.52" id="id-male-6.6_base_5-52">
</polygon>
<polygon points="411 685 463 666 456 573" fill="#823a34" id="id-male-6.6_base_5-151">
</polygon>
</g>
<defs>
<linearGradient x1="53%" y1="5%" x2="47%" y2="91%" id="id-male-6.8_face_5-0">
<stop stop-color="#f6a693" offset="0%">
</stop>
<stop stop-color="#eb8e76" offset="82%">
</stop>
<stop stop-color="#f3b197" offset="100%">
</stop>
</linearGradient>
<linearGradient x1="62%" y1="61%" x2="50%" y2="36%" id="id-male-6.8_face_5-1">
<stop stop-color="#cc4e3e" offset="0%">
</stop>
<stop stop-color="#a33c30" offset="100%">
</stop>
</linearGradient>
<linearGradient x1="50%" y1="13%" x2="57%" y2="81%" id="id-male-6.8_face_5-2">
<stop stop-color="#ce6f5a" offset="0%">
</stop>
<stop stop-color="#cc4e3e" offset="52%">
</stop>
<stop stop-color="#ffa791" offset="100%">
</stop>
</linearGradient>
<linearGradient x1="50%" y1="0%" x2="54%" y2="88%" id="id-male-6.8_face_5-3">
<stop stop-color="#b36e6c" offset="0%">
</stop>
<stop stop-color="#bb6e6f" offset="100%">
</stop>
</linearGradient>
<linearGradient x1="36%" y1="75%" x2="36%" y2="18%" id="id-male-6.8_face_5-4">
<stop stop-color="#85433d" offset="0%">
</stop>
<stop stop-color="#590f13" offset="100%">
</stop>
</linearGradient>
<linearGradient x1="48%" y1="84%" x2="4%" y2="84%" id="id-male-6.8_face_5-5">
<stop stop-color="#b6826b" offset="0%">
</stop>
<stop stop-color="#8f4e43" offset="100%">
</stop>
</linearGradient>
<linearGradient x1="23%" y1="68%" x2="57%" y2="19%" id="id-male-6.8_face_5-6">
<stop stop-color="#cb927f" offset="0%">
</stop>
<stop stop-color="#e6b7a1" offset="100%">
</stop>
</linearGradient>
<linearGradient x1="59%" y1="57%" x2="48%" y2="96%" id="id-male-6.8_face_5-7">
<stop stop-color="#bb7a65" offset="0%">
</stop>
<stop stop-color="#c2826a" offset="100%">
</stop>
</linearGradient>
<linearGradient x1="14%" y1="53%" x2="88%" y2="46%" id="id-male-6.8_face_5-8">
<stop stop-color="#c9897b" offset="0%">
</stop>
<stop stop-color="#c38874" offset="25%">
</stop>
<stop stop-color="#cc9781" offset="66%">
</stop>
<stop stop-color="#d6a18a" offset="100%">
</stop>
</linearGradient>
<linearGradient x1="100%" y1="24%" x2="44%" y2="69%" id="id-male-6.8_face_5-9">
<stop stop-color="#e29985" offset="0%">
</stop>
<stop stop-color="#e19883" offset="100%">
</stop>
</linearGradient>
<linearGradient x1="24%" y1="33%" x2="50%" y2="82%" id="id-male-6.8_face_5-10">
<stop stop-color="#e6ae91" offset="0%">
</stop>
<stop stop-color="#ffdabd" offset="49%">
</stop>
<stop stop-color="#e8a490" offset="100%">
</stop>
</linearGradient>
<linearGradient x1="90%" y1="75%" x2="18%" y2="60%" id="id-male-6.8_face_5-11">
<stop stop-color="#bc8770" offset="0%">
</stop>
<stop stop-color="#874f3d" offset="100%">
</stop>
</linearGradient>
<linearGradient x1="0%" y1="50%" x2="33%" y2="53%" id="id-male-6.8_face_5-12">
<stop stop-color="#764b36" offset="0%">
</stop>
<stop stop-color="#ae795f" offset="100%">
</stop>
</linearGradient>
<linearGradient x1="60%" y1="88%" x2="92%" y2="78%" id="id-male-6.8_face_5-13">
<stop stop-color="#dfa491" offset="0%">
</stop>
<stop stop-color="#f8baa3" offset="100%">
</stop>
</linearGradient>
</defs>
<g transform="translate(548,259)" id="id-male-6.8_face_5-14">
<g id="id-male-6.8_face_5-15">
<g transform="translate(0,121)" id="id-male-6.8_face_5-16">
<polygon points="199 13 214 3 222 9 221 25 214 38 214 43 210 54 208 65 197 70 190 64" fill="url(#id-male-6.8_face_5-0)" id="id-male-6.8_face_5-17">
</polygon>
<polygon points="197 24 209 14 216 9 219 10 220 22 214 37 195 43" fill="url(#id-male-6.8_face_5-1)" id="id-male-6.8_face_5-18">
</polygon>
<polygon points="203 38 208 34 199 25 203 22 209 23 207 18 212 16 214 38 214 43 213 48 207 51 201 46" fill="url(#id-male-6.8_face_5-2)" id="id-male-6.8_face_5-17">
</polygon>
<polygon points="212 5 214 3 222 9 222 10 219 10 216 9" fill="#fdd3b7" id="id-male-6.8_face_5-17">
</polygon>
<polygon points="208 65 197 70 190 64 194 42 199 50 193 62 199 67" fill="#a13c31" id="id-male-6.8_face_5-17">
</polygon>
<polygon points="203 62 202 54 211 50" fill="#f3b197" id="id-male-6.8_face_5-22">
</polygon>
<polygon points="196 50 202 51 203 42 196 46" fill="#eb8e76" id="id-male-6.8_face_5-23">
</polygon>
<polygon points="194 45 199 47 202 45 202 32 197 31" fill="#a13c31" id="id-male-6.8_face_5-24">
</polygon>
<path d="M 30 70 C 24 70 20 69 19 68 C 17 66 12 52 8 46 C 4 39 2 38 1 33 C 0 30 0 21 1 6 L 8 0 L 23 9 L 30 70 Z" fill="url(#id-male-6.8_face_5-3)" id="id-male-6.8_face_5-25">
</path>
<polygon points="8 6 2 6 7 3 10 2 23 9 19 14" fill="#efaab6" id="id-male-6.8_face_5-25">
</polygon>
<path d="M 26 68 C 23 69 20 69 19 68 C 17 66 12 52 8 46 C 7 44 6 43 6 42 C 9 45 10 47 12 48 C 13 50 14 52 16 56 L 26 68 Z" fill="#995356" id="id-male-6.8_face_5-25">
</path>
<polygon points="26 68 29 65 27 53 20 61" fill="#7b3e35" id="id-male-6.8_face_5-25">
</polygon>
<path d="M 23 19 C 12 12 6 9 5 9 C 3 10 2 18 2 33 L 17 53 L 26 52 L 23 19 Z" fill="url(#id-male-6.8_face_5-4)" id="id-male-6.8_face_5-29">
</path>
<polygon points="12 17 19 19 18 26 15 28 22 38 21 49 12 44" fill="#773a2e" id="id-male-6.8_face_5-30">
</polygon>
<path d="M 27 53 C 16 50 10 47 8 42 C 6 38 8 30 12 17 L 15 23 C 15 36 14 42 15 43 C 15 45 18 46 25 48 L 27 53 Z" fill="#ce7b8b" id="id-male-6.8_face_5-31">
</path>
<polygon points="11 31 19 26 19 18 14 20 12 18" fill="#c07080" id="id-male-6.8_face_5-32">
</polygon>
<polygon points="20 46 17 42 22 37 25 48" fill="#6a3032" id="id-male-6.8_face_5-33">
</polygon>
</g>
<g transform="translate(18,0)" id="id-male-6.8_face_5-34">
<path d="M 20 231 C 18 227 11 201 5 153 C 3 140 2 128 1 117 C -1 91 4 63 8 49 C 9 46 16 35 16 34 C 30 20 56 0 94 0 C 157 0 178 45 181 51 C 183 57 183 111 181 144 C 178 177 162 232 160 235 C 158 239 124 261 119 264 C 113 266 74 267 69 264 C 64 261 22 235 20 231 Z" fill="url(#id-male-6.8_face_5-5)" id="id-male-6.8_face_5-35">
</path>
<polygon points="73 112 82 117 159 110 163 117 160 129 170 143 176 147 176 93 157 34 129 14 67 25 49 80" fill="url(#id-male-6.8_face_5-6)" id="id-male-6.8_face_5-36">
</polygon>
<polygon points="161 62 154 71 156 103 169 107 175 101 174 71" fill="#d69e7c" id="id-male-6.8_face_5-37">
</polygon>
<path d="M 88 1 C 90 0 92 0 94 0 C 157 0 178 45 181 51 C 183 57 183 111 181 144 C 178 177 162 232 160 235 C 158 239 124 261 119 264 C 113 266 74 267 69 264 C 68 263 62 260 55 256 L 88 235 L 130 216 L 172 163 L 174 118 L 172 94 L 160 106 L 169 85 L 169 76 L 147 55 L 134 23 L 93 25 L 52 65 L 58 96 L 27 113 L 21 131 L 15 125 L 9 131 L 17 98 L 27 106 L 21 88 L 21 58 L 88 1 Z" fill="url(#id-male-6.8_face_5-7)" id="id-male-6.8_face_5-35">
</path>
<polygon points="89 29 62 55 21 58 63 22" fill="#cd8681" id="id-male-6.8_face_5-35">
</polygon>
<path d="M 182 73 C 183 94 183 123 181 144 C 178 177 162 232 160 235 L 156 212 L 178 157 L 181 128 L 174 142 L 182 73 Z" fill="#97594d" id="id-male-6.8_face_5-35">
</path>
<polygon points="47 249 66 240 62 230 73 227 88 242 63 259" fill="#b57d68" id="id-male-6.8_face_5-41">
</polygon>
<path d="M 20 231 C 20 230 19 229 18 226 C 24 231 29 235 33 238 C 42 244 56 253 76 265 C 73 265 70 265 69 264 C 64 261 22 235 20 231 Z" fill="#91463e" id="id-male-6.8_face_5-35">
</path>
<path d="M 1 117 C -1 91 4 63 8 49 C 9 46 16 35 16 34 C 22 28 30 21 41 15 L 11 57 L 14 96 L 1 117 Z" fill="#af7e8d" id="id-male-6.8_face_5-35">
</path>
<path d="M 5 153 C 3 140 2 128 1 117 C 0 108 1 98 1 89 L 8 127 L 5 153 Z" fill="#793d31" id="id-male-6.8_face_5-35">
</path>
<polygon points="37 103 56 94 77 112 67 117" fill="#bc7c6e" id="id-male-6.8_face_5-45">
</polygon>
<path d="M 62 53 C 78 52 89 52 97 53 C 105 54 116 56 131 61 L 121 101 L 93 85 L 69 102 L 57 96 L 51 66 L 62 53 Z" fill="url(#id-male-6.8_face_5-8)" id="id-male-6.8_face_5-46">
</path>
<polygon points="108 55 115 47 137 44 144 55 126 62" fill="#f2c7b2" id="id-male-6.8_face_5-47">
</polygon>
<polygon points="21 172 33 171 11 143 9 158" fill="#81453f" id="id-male-6.8_face_5-48">
</polygon>
<polygon points="143 203 142 188 148 173 172 138" fill="#d0826e" id="id-male-6.8_face_5-49">
</polygon>
<polygon points="147 229 151 227 174 158 175 115 170 142 141 202 141 217" fill="#bb7e66" id="id-male-6.8_face_5-50">
</polygon>
<polygon points="117 243 120 255 149 229 144 209" fill="#c4846c" id="id-male-6.8_face_5-51">
</polygon>
</g>
</g>
<polygon points="115 123 97 120 73 163 66 188 109 172" fill="#9d5b53" id="id-male-6.8_face_5-52">
</polygon>
<polygon points="118 195 153 223 165 211 165 180 158 177 122 178" fill="url(#id-male-6.8_face_5-9)" id="id-male-6.8_face_5-53">
</polygon>
<polygon points="31 148 43 115 58 140 39 146 41 161" fill="#b2735d" id="id-male-6.8_face_5-54">
</polygon>
<polygon points="60 190 82 178 90 185 91 188 102 197 78 213 79 195" fill="#c08175" id="id-male-6.8_face_5-55">
</polygon>
<polygon points="51 172 66 172 85 164 98 140 99 125 58 140 39 146 41 161" fill="#c78371" id="id-male-6.8_face_5-54">
</polygon>
<polygon points="85 164 98 140 98 155" fill="#ae6c5d" id="id-male-6.8_face_5-54">
</polygon>
<polygon points="56 182 50 169 70 159 77 165 64 172" fill="#dba392" id="id-male-6.8_face_5-58">
</polygon>
<polygon points="56 182 50 169 64 172" fill="#d69a8b" id="id-male-6.8_face_5-58">
</polygon>
<polygon points="56 182 58 213 79 195 68 189 81 165 64 172" fill="#b76b5e" id="id-male-6.8_face_5-58">
</polygon>
<polygon points="70 222 58 213 79 195 85 215" fill="#d48e7c" id="id-male-6.8_face_5-58">
</polygon>
<polygon points="135 167 142 159 150 162 190 143 164 178 161 188 153 186 150 177" fill="url(#id-male-6.8_face_5-10)" id="id-male-6.8_face_5-62">
</polygon>
<polygon points="128 153 149 163 190 143 183 135 130 138" fill="#e0a587" id="id-male-6.8_face_5-62">
</polygon>
<polygon points="132 172 150 196 153 183 150 176 137 165 140 161 130 166" fill="#cf816d" id="id-male-6.8_face_5-64">
</polygon>
<polygon points="111 184 118 195 127 184 130 181 117 179" fill="#b7684d" id="id-male-6.8_face_5-65">
</polygon>
<polygon points="92 187 101 197 105 187" fill="#a35e51" id="id-male-6.8_face_5-66">
</polygon>
<polygon points="118 189 120 183 132 178 137 180 122 189" fill="#7e453d" id="id-male-6.8_face_5-67">
</polygon>
<path d="M 86 178 L 96 173 L 90 168 C 88 170 87 172 86 173 C 86 174 86 176 86 178 Z" fill="#954839" id="id-male-6.8_face_5-68">
</path>
<polygon points="92 184 86 178 112 175 113 183 118 194 110 198 102 194 105 187 95 187" fill="#86443a" id="id-male-6.8_face_5-69">
</polygon>
<polygon points="86 178 95 180 104 181 112 175 100 171" fill="#c67c6a" id="id-male-6.8_face_5-70">
</polygon>
<polygon points="112 176 119 172 131 167 134 171 134 178 127 180 113 183" fill="#b06966" id="id-male-6.8_face_5-71">
</polygon>
<polyline points="90 184 93 188 97 187 102 183 96 180 89 184" fill="#5b221d" id="id-male-6.8_face_5-72">
</polyline>
<polygon points="92 120 95 110 113 100 132 109 135 130 117 123" fill="#b6826b" id="id-male-6.8_face_5-73">
</polygon>
<g transform="translate(31,92)" id="id-male-6.8_face_5-74">
<polygon points="4 42 24 55 56 56 69 30 44 8 1 22" fill="url(#id-male-6.8_face_5-11)" id="id-male-6.8_face_5-75">
</polygon>
<polygon points="59 39 59 47 67 42 68 39 63 37" fill="#ccb2be" id="id-male-6.8_face_5-76">
</polygon>
<polygon points="29 50 47 45 60 41 58 46 45 53 31 54" fill="#b97a79" id="id-male-6.8_face_5-77">
</polygon>
<polygon points="46 44 44 53 58 47 55 43 62 42 63 39 58 39" fill="#8f6357" id="id-male-6.8_face_5-78">
</polygon>
<polygon points="5 37 21 25 36 23 38 16 64 21 69 31 64 39 13 44" fill="#754335" id="id-male-6.8_face_5-79">
</polygon>
<polygon points="30 34 31 27 37 25 41 32" fill="#9d6544" id="id-male-6.8_face_5-80">
</polygon>
<path d="M 19 33 C 33 27 42 25 46 26 C 50 27 56 31 65 37 L 64 28 C 52 23 44 21 41 22 C 37 22 30 26 19 33 Z" fill="#5b2a23" id="id-male-6.8_face_5-81">
</path>
<polygon points="93 88 103 85 103 89 96 91" fill="#6b3025" id="id-male-6.8_face_5-82">
</polygon>
<g transform="translate(37,37) rotate(3) translate(-37,-37) translate(12,28)" id="id-male-6.8_face_5-83">
<path d="M 6 14 L 14 16 L 23 15 C 20 15 18 14 17 14 C 15 13 14 12 13 10 L 6 14 Z" fill="#783832" id="id-male-6.8_face_5-84">
</path>
<path d="M 14 10 C 15 13 18 15 22 15 C 25 16 31 15 36 14 C 38 14 42 12 47 10 C 41 5 35 2 30 2 C 25 2 20 5 14 10 Z" fill="#ffe4f4" id="id-male-6.8_face_5-85">
</path>
<path d="M 14 10 C 14 11 15 12 16 13 C 22 8 27 5 31 5 C 33 5 37 6 42 9 L 42 12 C 43 12 45 11 47 10 C 41 5 35 2 30 2 C 25 2 20 5 14 10 Z" fill="#000000" fill-opacity="0.675" id="id-male-6.8_face_5-85">
</path>
<path d="M 20 8 C 20 13 23 15 30 15 C 36 15 39 12 38 5 C 34 4 31 3 28 4 C 26 4 23 6 20 8 Z" fill="#36110a" id="id-male-6.8_face_5-87">
</path>
<path d="M 21 9 C 21 13 24 14 29 14 C 35 14 37 12 37 7 C 33 5 31 4 28 4 C 26 5 24 6 21 9 Z" fill="#666531" id="id-male-6.8_face_5-87">
</path>
<path d="M 26 6 C 26 8 26 10 27 10 C 29 11 31 11 32 10 C 33 9 33 8 33 5 L 26 6 Z" fill="#36110a" id="id-male-6.8_face_5-89">
</path>
<polygon points="22 9 22 11 28 9 27 7" fill="#d7b4bf" id="id-male-6.8_face_5-90">
</polygon>
<path d="M 6 14 L 0 9 C 15 3 26 0 32 0 C 36 0 42 4 49 9 C 50 9 50 10 50 11 L 45 11 C 43 7 39 6 33 5 C 26 5 17 8 6 14 Z" fill="#36110a" id="id-male-6.8_face_5-91">
</path>
</g>
<polygon points="64 13 73 14 64 21 51 18" fill="#6e423b" id="id-male-6.8_face_5-92">
</polygon>
<polygon points="0 23 17 18 39 17 50 20 58 18 68 11 59 7 50 11 54 7 51 7 54 6 19 6 2 21" fill="#3a1f20" id="id-male-6.8_face_5-93">
</polygon>
<polygon points="20 5 25 1 40 4" fill="#3d2c29" id="id-male-6.8_face_5-94">
</polygon>
<polygon points="127 55 165 38 159 20 98 12 92 18 93 21 88 27 84 26 101 48" fill="url(#id-male-6.8_face_5-12)" id="id-male-6.8_face_5-95">
</polygon>
<polygon points="113 31 117 24 113 18 124 15 131 18 124 24 126 31" fill="#ce9888" id="id-male-6.8_face_5-96">
</polygon>
<polygon points="136 35 132 24 138 16 150 18 140 26 143 38" fill="#9e6645" id="id-male-6.8_face_5-97">
</polygon>
<polygon points="102 42 108 49 127 56 129 54 129 49 116 39" fill="#a96957" id="id-male-6.8_face_5-98">
</polygon>
<polygon points="129 49 137 42 116 39" fill="#c88c7b" id="id-male-6.8_face_5-98">
</polygon>
<polygon points="108 49 117 52 123 44 116 39 108 41" fill="#96524f" id="id-male-6.8_face_5-98">
</polygon>
<polygon points="104 44 99 44 95 42 101 38" fill="#c2908b" id="id-male-6.8_face_5-101">
</polygon>
<polygon points="139 42 146 44 151 41 151 37 157 34 165 52 166 51 166 26 161 16 151 36" fill="#96534f" id="id-male-6.8_face_5-102">
</polygon>
<path d="M 99 37 L 93 28 L 99 22 L 97 17 L 113 17 L 117 22 C 123 23 128 23 130 24 C 133 25 139 28 148 34 C 135 28 125 25 119 25 C 113 25 106 29 99 37 Z" fill="#643827" id="id-male-6.8_face_5-103">
</path>
<g transform="translate(125,37) rotate(-3) translate(-124,-37) translate(100,28)" id="id-male-6.8_face_5-104">
<path d="M 5 9 C 8 13 13 15 19 15 C 26 15 31 14 35 11 C 31 5 26 2 21 2 C 15 2 10 5 5 9 Z" fill="#ffe4f3" id="id-male-6.8_face_5-105">
</path>
<path d="M 5 9 C 6 10 7 11 7 11 C 12 7 16 5 21 5 C 25 5 29 8 32 13 C 33 12 34 12 35 11 C 31 5 26 2 21 2 C 15 2 10 5 5 9 Z" fill="#000000" fill-opacity="0.496" id="id-male-6.8_face_5-105">
</path>
<path d="M 12 6 C 13 11 14 14 15 14 C 16 15 24 16 26 15 C 27 15 28 12 30 8 C 25 5 22 4 19 3 C 17 3 14 4 12 6 Z" fill="#311011" id="id-male-6.8_face_5-107">
</path>
<path d="M 13 9 C 14 11 14 13 15 13 C 16 14 23 15 25 15 C 26 14 27 12 28 9 C 26 8 24 7 21 7 C 19 6 16 7 13 9 Z" fill="#615e2d" id="id-male-6.8_face_5-107">
</path>
<polygon points="17 7 18 11 23 11 25 7 21 6" fill="#311011" id="id-male-6.8_face_5-109">
</polygon>
<polygon points="14 10 20 8 20 5 14 7" fill="#d4aebc" id="id-male-6.8_face_5-110">
</polygon>
<polygon points="3 13 6 10 8 13" fill="#a03b40" id="id-male-6.8_face_5-111">
</polygon>
<polygon points="3 13 1 14 4 15 14 16 19 18 41 15 35 11 29 15 24 15 14 15 9 13" fill="#853f3b" id="id-male-6.8_face_5-112">
</polygon>
<path d="M 3 13 C 1 12 0 11 1 11 C 1 10 8 1 21 0 C 26 0 33 3 40 6 C 42 7 45 8 49 10 L 41 15 C 37 13 35 11 34 11 C 29 7 25 5 21 5 C 14 5 9 7 3 13 Z" fill="#311011" id="id-male-6.8_face_5-113">
</path>
</g>
<polygon points="89 9 92 17 103 5" fill="#633e3b" id="id-male-6.8_face_5-114">
</polygon>
<polygon points="92 17 100 17 107 20 124 17 159 20 145 9 110 5 100 12 103 4" fill="#271716" id="id-male-6.8_face_5-115">
</polygon>
<polygon points="125 5 143 7 139 4" fill="#3a2a25" id="id-male-6.8_face_5-116">
</polygon>
</g>
<polygon points="104 122 102 115 114 110 114 123" fill="#cb8784" id="id-male-6.8_face_5-73">
</polygon>
<polygon points="116 182 124 177 127 180 130 182" fill="#320f10" id="id-male-6.8_face_5-118">
</polygon>
<polygon points="92 184 91 182 95 178 104 181 101 183 95 182" fill="#2c0e0f" id="id-male-6.8_face_5-119">
</polygon>
<polygon points="133 181 138 184 140 184 135 176" fill="#ab6150" id="id-male-6.8_face_5-120">
</polygon>
<polygon points="101 183 111 184 113 183 104 181" fill="#572a26" id="id-male-6.8_face_5-121">
</polygon>
<polygon points="107 125 112 123 123 126 122 133 128 151 130 147 147 156 129 167" fill="url(#id-male-6.8_face_5-13)" id="id-male-6.8_face_5-122">
</polygon>
<polygon points="119 172 129 176 132 173 131 168 128 165 119 143 115 146" fill="#f4b9a0" id="id-male-6.8_face_5-123">
</polygon>
<polygon points="111 125 117 125 116 132 122 141 119 150 117 148" fill="#f7cecb" id="id-male-6.8_face_5-124">
</polygon>
<path d="M 88 169 C 85 172 84 175 85 178 C 85 181 88 183 91 184 C 89 181 87 179 87 177 C 86 176 87 173 88 169 Z" fill="#7d3c32" id="id-male-6.8_face_5-125">
</path>
<path d="M 131 170 C 130 172 129 174 130 176 C 131 179 133 181 137 182 C 134 179 133 177 132 176 C 132 174 132 172 133 169 L 131 170 Z" transform="translate(133,175) rotate(-158) translate(-133,-175)" fill="#964f41" id="id-male-6.8_face_5-125">
</path>
<path d="M 98 171 L 110 176 L 119 172 L 115 131 L 111 125 L 104 125 L 104 138 C 102 145 101 151 100 155 C 100 159 99 164 98 171 Z" fill="#d8908f" id="id-male-6.8_face_5-127">
</path>
<polygon points="115 131 111 125 108 125 106 142 109 151" fill="#e7af9d" id="id-male-6.8_face_5-127">
</polygon>
<polygon points="103 173 110 176 120 172 115 131" fill="#dc9898" id="id-male-6.8_face_5-127">
</polygon>
<polygon points="103 173 110 176 120 172 107 159" fill="#e3a8a6" id="id-male-6.8_face_5-127">
</polygon>
<polygon points="103 173 110 176 120 172 118 170 110 173" fill="#fad2c5" id="id-male-6.8_face_5-127">
</polygon>
<polygon points="150 221 112 238 68 221 76 213 142 214 147 216" fill="#bf7867" id="id-male-6.8_face_5-132">
</polygon>
<polygon points="90 228 102 242 120 246 148 219 148 213" fill="#a56049" id="id-male-6.8_face_5-133">
</polygon>
<polygon points="126 224 141 222 146 214 143 212 133 214" fill="#c88878" id="id-male-6.8_face_5-134">
</polygon>
<polygon points="69 216 70 217 80 219 87 217 83 214" fill="#e2b2a4" id="id-male-6.8_face_5-135">
</polygon>
<polygon points="69 216 68 211 74 209 83 214" fill="#a25640" id="id-male-6.8_face_5-136">
</polygon>
<polygon points="141 213 148 216 151 211 146 208" fill="#c07a64" id="id-male-6.8_face_5-137">
</polygon>
<polygon points="93 225 89 219 136 217 128 226 112 232" fill="#783025" id="id-male-6.8_face_5-138">
</polygon>
<polygon points="126 201 118 195 117 198 111 200 105 198 103 195 101 198 92 202 88 206" fill="#e9b4a6" id="id-male-6.8_face_5-139">
</polygon>
<polygon points="75 213 87 220 140 217 148 214 132 204 107 203 82 209" fill="#781b19" id="id-male-6.8_face_5-140">
</polygon>
<polygon points="84 211 80 215 87 218 142 216 147 214 139 211 128 209 111 210 94 209" fill="#50090c" id="id-male-6.8_face_5-140">
</polygon>
<path d="M 82 209 C 93 203 99 199 100 199 C 102 199 109 201 111 201 C 112 201 118 199 121 199 C 123 199 129 202 140 209 L 132 207 L 115 209 L 111 207 L 109 209 L 96 208 L 86 210 L 82 209 Z" fill="#c05854" id="id-male-6.8_face_5-142">
</path>
<path d="M 100 199 C 102 199 109 201 111 201 C 112 201 118 199 121 199 L 112 206 L 110 208 L 100 199 Z" fill="#d45f63" id="id-male-6.8_face_5-142">
</path>
<path d="M 80 215 C 82 217 84 219 85 219 C 94 223 101 225 111 225 C 120 225 129 222 138 218 C 139 218 141 217 143 215 C 133 212 127 210 124 210 C 121 210 117 210 110 212 C 104 210 100 210 98 210 C 97 211 90 212 80 215 Z" fill="#dc6b67" id="id-male-6.8_face_5-144">
</path>
<path d="M 80 215 C 82 217 84 219 85 219 C 86 219 87 220 89 221 C 94 214 101 211 110 212 C 121 213 128 215 132 221 C 134 220 136 219 138 218 C 139 218 141 217 144 215 C 134 212 127 210 124 210 C 121 210 117 210 110 212 C 104 210 100 210 98 210 C 97 211 90 212 80 215 Z" fill="#bf5350" id="id-male-6.8_face_5-144">
</path>
<polygon points="94 221 92 217 99 216 126 216 128 217 124 220 124 217 98 218" fill="#f88db0" id="id-male-6.8_face_5-146">
</polygon>
<polygon points="108 254 112 237 138 246 120 259" fill="#cd9a8c" id="id-male-6.8_face_5-147">
</polygon>
<polygon points="108 254 112 237 85 242 85 248" fill="#bf8975" id="id-male-6.8_face_5-147">
</polygon>
</g>
<defs>
<linearGradient x1="69%" y1="26%" x2="39%" y2="85%" id="id-male-12_gambler_pants-0">
<stop stop-color="#3c4d6d" offset="0%">
</stop>
<stop stop-color="#19212d" offset="100%">
</stop>
</linearGradient>
<linearGradient x1="61%" y1="50%" x2="0%" y2="50%" id="id-male-12_gambler_pants-1">
<stop stop-color="#1c2333" offset="0%">
</stop>
<stop stop-color="#152b44" offset="100%">
</stop>
</linearGradient>
<linearGradient x1="50%" y1="0%" x2="50%" y2="100%" id="id-male-12_gambler_pants-2">
<stop stop-color="#2a3653" offset="0%">
</stop>
<stop stop-color="#34425e" offset="100%">
</stop>
</linearGradient>
</defs>
<g transform="translate(435,1077)" id="id-male-12_gambler_pants-3">
<path d="M 45 39 L 9 198 L 0 304 L 21 570 L 13 597 L 33 631 L 35 683 L 174 683 L 167 638 L 180 621 C 177 591 176 562 176 533 C 201 425 219 324 233 286 C 265 424 287 457 316 552 C 320 591 320 633 320 633 L 336 683 L 494 683 L 489 670 L 500 658 C 497 649 493 640 489 629 C 487 581 482 513 484 436 C 481 295 460 225 417 69 C 417 62 416 54 415 44 L 407 4 L 395 7 L 357 15 C 294 18 257 18 247 15 C 235 15 223 15 210 14 L 207 18 C 133 12 84 7 61 4 C 61 4 57 3 50 1 L 45 39 Z" fill="url(#id-male-12_gambler_pants-0)" id="id-male-12_gambler_pants-4">
</path>
<polygon points="212 183 216 219 346 161 247 172" fill="#3c547c" id="id-male-12_gambler_pants-5">
</polygon>
<polygon points="105 63 146 62 47 42 9 198 0 304 21 570 13 597 71 638 70 644 35 677 35 683 59 683 79 654 85 654 110 194 100 172 107 133" fill="url(#id-male-12_gambler_pants-1)" id="id-male-12_gambler_pants-6">
</polygon>
<polygon points="81 80 90 85 9 197 15 175" fill="#051730" id="id-male-12_gambler_pants-7">
</polygon>
<path d="M 202 63 L 202 108 L 120 117 C 174 134 201 143 201 143 L 202 167 L 178 176 L 210 211 L 209 63 C 204 63 202 63 202 63 Z" fill="#1e293d" id="id-male-12_gambler_pants-8">
</path>
<polygon points="161 244 208 239 221 266" fill="#0f2238" id="id-male-12_gambler_pants-9">
</polygon>
<polygon points="247 144 249 170 317 146 272 149" fill="#25344f" id="id-male-12_gambler_pants-10">
</polygon>
<polygon points="249 63 249 91 311 73 255 71 324 57" fill="#2b3a59" id="id-male-12_gambler_pants-11">
</polygon>
<polygon points="211 145 245 142 247 63 209 63" fill="#3b5078" id="id-male-12_gambler_pants-12">
</polygon>
<path d="M 217 231 L 366 157 L 266 228 L 298 231 L 262 255 L 360 437 L 394 315 L 381 159 L 443 636 L 319 589 C 318 576 317 564 316 552 C 274 427 266 411 238 307 C 236 301 234 294 233 286 L 230 295 L 217 231 Z" fill="#222f47" id="id-male-12_gambler_pants-13">
</path>
<path d="M 96 473 C 172 345 210 281 210 281 C 172 256 153 244 153 244 C 179 240 191 238 191 238 L 110 203 C 101 383 96 473 96 473 Z" fill="#28344b" id="id-male-12_gambler_pants-14">
</path>
<path d="M 374 52 L 376 76 C 384 82 389 85 389 85 C 383 95 380 99 380 99 L 393 228 C 432 261 458 282 471 291 C 470 275 471 256 466 234 C 456 193 437 140 417 69 C 417 60 416 52 415 44 C 387 49 374 52 374 52 Z" fill="url(#id-male-12_gambler_pants-2)" id="id-male-12_gambler_pants-15">
</path>
<polygon points="396 76 392 84 452 201 443 168" fill="#041c3e" id="id-male-12_gambler_pants-16">
</polygon>
<polygon points="320 592 388 623 330 650 326 650 320 633" fill="#2a3444" id="id-male-12_gambler_pants-17">
</polygon>
<polygon points="328 654 390 629 417 642 354 662" fill="#0d1929" id="id-male-12_gambler_pants-18">
</polygon>
<polygon points="440 656 500 658 489 670 494 683 444 683 443 660" fill="#0f1925" id="id-male-12_gambler_pants-19">
</polygon>
<polygon points="171 660 128 673 180 618 180 621 167 638" fill="#0f1d2c" id="id-male-12_gambler_pants-20">
</polygon>
<path d="M 178 586 C 151 608 137 620 137 620 L 179 519 L 176 533 L 178 586 Z" fill="#0f1d2e" id="id-male-12_gambler_pants-21">
</path>
<path d="M 45 4 C 45 9 44 20 43 39 L 65 42 L 69 9 C 55 7 47 5 45 4 Z" fill="#342c5f" id="id-male-12_gambler_pants-22">
</path>
<path d="M 69 9 C 97 14 112 16 112 16 L 112 54 L 65 42 L 69 9 Z" fill="#422227" id="id-male-12_gambler_pants-23">
</path>
<path d="M 112 16 C 152 20 277 25 357 18 C 357 28 357 42 357 53 C 276 66 174 59 112 54 C 112 35 112 23 112 16 Z" fill="#4c2b2c" id="id-male-12_gambler_pants-24">
</path>
<path d="M 357 18 C 357 34 357 46 357 53 C 365 52 381 50 403 45 L 394 11 L 357 18 Z" fill="#422227" id="id-male-12_gambler_pants-25">
</path>
<polygon points="415 40 415 45 374 52" fill="#091832" id="id-male-12_gambler_pants-26">
</polygon>
<path d="M 413 8 C 416 28 417 38 417 38 L 402 43 L 394 11 L 413 8 Z" fill="#322d65" id="id-male-12_gambler_pants-27">
</path>
<path d="M 156 13 L 155 22 C 154 47 153 59 153 59 L 163 59 L 166 15 L 156 13 Z" fill="#2d3546" id="id-male-12_gambler_pants-28">
</path>
<path d="M 163 59 L 166 59 C 168 30 168 16 168 16 L 167 15 C 164 45 163 59 163 59 Z" fill="#1c2536" id="id-male-12_gambler_pants-29">
</path>
<path d="M 155 22 C 161 24 165 24 165 24 L 166 15 L 156 13 L 155 22 Z" fill="#42506a" id="id-male-12_gambler_pants-30">
</path>
<polygon points="190 59 193 62 193 20 192 20" fill="#391a1e" id="id-male-12_gambler_pants-31">
</polygon>
<polygon points="265 61 267 57 262 20" fill="#391a1e" id="id-male-12_gambler_pants-32">
</polygon>
<polygon points="290 20 290 57 265 58 264 62 323 56 293 56 291 20" fill="#1c2536" id="id-male-12_gambler_pants-33">
</polygon>
<path d="M 302 20 C 304 47 305 60 305 60 C 297 61 293 61 293 61 L 291 20 L 302 20 Z" fill="#2d3546" id="id-male-12_gambler_pants-34">
</path>
<polygon points="127 55 190 59 193 62" fill="#1c2536" id="id-male-12_gambler_pants-35">
</polygon>
<path d="M 192 19 C 239 18 263 18 263 18 L 263 20 L 193 20 C 192 19 192 19 192 19 Z" fill="#af9862" id="id-male-12_gambler_pants-36">
</path>
<polygon points="193 20 193 62 265 61 262 20" fill="#916639" id="id-male-12_gambler_pants-37">
</polygon>
<polygon points="199 26 200 57 260 56 258 26" fill="#a9925d" id="id-male-12_gambler_pants-38">
</polygon>
<polygon points="199 35 204 29 258 29 258 26 199 26" fill="#775024" id="id-male-12_gambler_pants-39">
</polygon>
<polygon points="207 32 254 31 231 56" fill="#06162f" id="id-male-12_gambler_pants-40">
</polygon>
<polygon points="213 35 247 35 230 53" fill="#916639" id="id-male-12_gambler_pants-41">
</polygon>
<polygon points="292 30 303 30 302 20 291 20" fill="#3a4b6a" id="id-male-12_gambler_pants-42">
</polygon>
<path d="M 107 133 C 97 129 92 128 92 128 L 48 158 L 101 165 C 105 143 107 133 107 133 Z" fill="#222c3a" id="id-male-12_gambler_pants-43">
</path>
</g>
<defs>
<linearGradient x1="54%" y1="14%" x2="44%" y2="95%" id="id-male-17_extra_jacket-0">
<stop stop-color="#19232d" offset="0%">
</stop>
<stop stop-color="#07101f" offset="100%">
</stop>
</linearGradient>
<linearGradient x1="50%" y1="0%" x2="50%" y2="100%" id="id-male-17_extra_jacket-1">
<stop stop-color="#0c1524" offset="0%">
</stop>
<stop stop-color="#1d2227" offset="100%">
</stop>
</linearGradient>
<linearGradient x1="50%" y1="0%" x2="50%" y2="100%" id="id-male-17_extra_jacket-2">
<stop stop-color="#172532" offset="0%">
</stop>
<stop stop-color="#18222e" offset="21%">
</stop>
<stop stop-color="#18222e" offset="39%">
</stop>
<stop stop-color="#094359" offset="48%">
</stop>
<stop stop-color="#0c445f" offset="76%">
</stop>
<stop stop-color="#164770" offset="100%">
</stop>
</linearGradient>
<linearGradient x1="50%" y1="0%" x2="50%" y2="100%" id="id-male-17_extra_jacket-3">
<stop stop-color="#023643" offset="0%">
</stop>
<stop stop-color="#0c445d" offset="100%">
</stop>
</linearGradient>
<linearGradient x1="36%" y1="16%" x2="55%" y2="100%" id="id-male-17_extra_jacket-4">
<stop stop-color="#0a445c" offset="0%">
</stop>
<stop stop-color="#054254" offset="100%">
</stop>
</linearGradient>
</defs>
<g transform="translate(307,478)" id="id-male-17_extra_jacket-5">
<g transform="translate(10,0)" id="id-male-17_extra_jacket-6">
<path d="M 147 673 C 285 695 418 702 538 669 C 535 644 534 631 534 631 C 527 615 524 607 524 607 C 524 583 524 571 524 571 C 512 538 506 522 506 522 C 506 489 506 472 506 472 C 514 467 517 464 517 464 C 524 444 527 435 527 435 C 519 426 515 421 515 421 C 520 392 523 377 523 377 C 538 451 546 487 546 487 C 555 502 559 509 559 509 C 554 527 552 536 552 536 C 556 550 559 556 559 556 C 562 595 563 614 563 614 C 584 654 594 674 594 674 C 621 648 651 631 683 625 C 686 613 687 608 687 608 C 681 601 678 598 678 598 C 680 587 681 582 681 582 C 665 500 657 459 657 459 C 650 441 647 432 647 432 C 643 409 641 398 641 398 C 627 269 611 189 594 159 C 588 157 584 155 584 155 C 526 132 496 121 496 121 C 478 111 469 106 469 106 C 386 128 344 139 344 139 C 257 120 213 110 213 110 C 143 143 108 160 108 160 C 103 162 98 166 95 171 C 64 320 48 395 48 395 C 38 439 32 461 32 461 C 17 545 9 587 9 587 C 6 597 3 604 0 610 C 3 616 5 619 5 619 C 36 630 67 649 98 677 C 119 628 129 603 129 603 C 128 586 128 574 129 566 C 130 558 135 551 136 543 C 134 521 132 511 132 511 C 140 498 144 492 144 492 C 159 417 167 379 167 379 C 172 406 175 419 175 419 C 168 428 164 432 164 432 C 169 457 172 469 172 469 C 179 472 182 474 182 474 C 183 508 183 525 183 525 C 171 555 165 570 165 570 C 167 589 167 599 167 599 C 161 610 158 615 158 615 C 155 632 157 652 147 664 C 147 670 147 673 147 673 Z" fill="#020b1a" id="id-male-17_extra_jacket-7">
</path>
<path d="M 213 110 L 325 142 L 298 150 C 298 150 270 149 216 147 C 216 147 220 152 227 161 L 301 162 L 327 744 C 353 744 367 744 367 744 C 374 367 378 178 378 178 C 386 169 390 164 390 164 C 441 165 466 165 466 165 C 480 144 487 134 487 134 L 384 133 C 440 115 469 106 469 106 C 486 115 495 120 495 120 C 507 107 513 100 513 100 C 503 77 498 65 498 65 C 457 54 436 48 436 48 C 424 22 418 9 418 9 C 408 3 403 0 403 0 C 400 9 398 13 398 13 C 399 47 399 64 399 64 C 367 94 351 109 351 109 C 350 126 350 135 350 135 C 343 135 340 135 340 135 C 338 117 337 108 337 108 C 293 77 271 61 271 61 C 271 35 272 23 272 23 C 267 9 265 2 265 2 C 257 5 253 7 253 7 C 240 38 233 53 233 53 L 191 64 C 186 75 181 86 177 100 L 195 113 L 194 121 L 213 110 Z" fill="#19232d" id="id-male-17_extra_jacket-8">
</path>
<path d="M 13 621 C 85 540 121 499 121 499 C 121 471 122 457 122 457 C 153 316 169 246 169 246 L 119 186 L 108 160 C 104 161 99 164 95 171 L 48 399 L 32 461 L 9 587 C 6 595 3 603 0 610 L 5 619 C 10 620 13 621 13 621 Z" fill="url(#id-male-17_extra_jacket-0)" id="id-male-17_extra_jacket-9">
</path>
<path d="M 321 129 C 253 112 220 104 220 104 C 231 98 236 94 236 94 C 230 94 227 94 227 94 C 238 84 243 79 243 79 L 333 107 C 325 122 321 129 321 129 Z" fill="#2d3130" id="id-male-17_extra_jacket-10">
</path>
<polygon points="227 94 177 100 191 64 243 79" fill="#383c3b" id="id-male-17_extra_jacket-11">
</polygon>
<path d="M 191 64 C 219 71 234 75 234 75 C 221 67 215 63 215 63 L 239 58 L 233 53 C 205 60 191 64 191 64 Z" fill="#4f6280" id="id-male-17_extra_jacket-12">
</path>
<path d="M 239 58 L 233 53 C 246 22 253 7 253 7 L 256 10 L 239 58 Z" fill="#98bad5" id="id-male-17_extra_jacket-13">
</path>
<path d="M 271 46 C 253 60 244 67 244 67 C 285 82 305 90 305 90 L 263 62 C 268 51 271 46 271 46 Z" fill="#4e6380" id="id-male-17_extra_jacket-14">
</path>
<path d="M 371 131 C 362 116 357 109 357 109 C 416 89 446 79 446 79 L 457 95 L 469 106 C 404 122 371 131 371 131 Z" fill="#2d3130" id="id-male-17_extra_jacket-15">
</path>
<polygon points="457 95 514 100 498 65 446 79" fill="#383c3b" id="id-male-17_extra_jacket-16">
</polygon>
<path d="M 446 79 C 465 69 474 64 474 64 L 429 53 L 436 48 L 498 65 C 463 74 446 79 446 79 Z" fill="#4e6380" id="id-male-17_extra_jacket-17">
</path>
<path d="M 409 55 C 427 63 437 67 437 67 L 368 93 C 395 67 409 55 409 55 Z" fill="#4c5f7d" id="id-male-17_extra_jacket-18">
</path>
<path d="M 437 48 C 431 51 429 53 429 53 L 416 11 L 403 0 L 418 9 L 437 48 Z" fill="#98bad6" id="id-male-17_extra_jacket-19">
</path>
<path d="M 470 159 L 391 150 L 380 134 L 488 134 C 476 150 470 159 470 159 Z" fill="#2c3030" id="id-male-17_extra_jacket-20">
</path>
<path d="M 594 674 C 578 641 570 624 570 624 C 600 591 615 575 615 575 C 605 551 592 527 576 506 C 585 491 589 483 589 483 C 560 440 545 418 545 418 L 560 353 L 641 399 L 647 432 L 657 459 L 681 582 L 678 598 C 684 604 687 608 687 608 L 683 625 C 652 630 623 646 594 674 Z" fill="#121c28" id="id-male-17_extra_jacket-21">
</path>
<path d="M 573 361 C 569 380 566 390 566 390 C 600 420 617 435 617 435 C 620 477 622 498 622 498 L 657 465 L 647 429 L 642 399 C 596 373 573 361 573 361 Z" fill="#20262b" id="id-male-17_extra_jacket-22">
</path>
<path d="M 298 106 C 295 114 293 117 293 117 C 263 108 248 104 248 104 L 256 92 C 284 102 298 106 298 106 Z" fill="#c10c4f" id="id-male-17_extra_jacket-23">
</path>
<path d="M 57 571 C 54 511 53 481 53 481 L 90 375 C 122 358 138 350 138 350 L 127 270 L 156 232 L 163 276 L 122 457 L 122 498 L 57 571 Z" fill="#1b232a" id="id-male-17_extra_jacket-24">
</path>
<path d="M 335 138 C 341 135 347 133 354 138 C 356 542 357 744 357 744 L 334 745 C 334 340 335 138 335 138 Z" fill="#464437" id="id-male-17_extra_jacket-25">
</path>
<path d="M 334 382 C 349 369 356 363 356 363 C 356 497 356 564 356 564 L 334 570 C 334 445 334 382 334 382 Z" fill="#615f48" id="id-male-17_extra_jacket-26">
</path>
<path d="M 334 217 C 334 294 334 332 334 332 C 348 325 355 322 355 322 L 355 208 C 341 214 334 217 334 217 Z" fill="#65614a" id="id-male-17_extra_jacket-27">
</path>
<path d="M 342 743 C 347 743 349 744 349 744 C 348 339 348 136 348 136 L 342 136 C 342 541 342 743 342 743 Z" fill="#23241f" id="id-male-17_extra_jacket-28">
</path>
</g>
<g transform="translate(0,616)" id="id-male-17_extra_jacket-29">
<path d="M 96 202 C 93 203 92 203 92 203 C 88 199 87 197 87 197 C 29 204 0 207 0 207 C 0 144 17 54 5 9 C 10 3 13 0 13 0 C 28 6 45 14 63 24 C 90 43 116 70 116 70 C 101 100 99 136 91 170 C 96 180 98 191 96 202 Z" fill="#234987" id="id-male-17_extra_jacket-30">
</path>
<path d="M 69 194 C 38 200 22 204 22 204 C 22 197 22 193 22 193 C 30 178 34 171 34 171 C 35 64 35 11 35 11 C 56 20 73 30 85 42 L 55 175 C 64 188 69 194 69 194 Z" fill="#2a6096" id="id-male-17_extra_jacket-31">
</path>
<path d="M 97 186 L 56 170 L 85 42 L 116 70 C 104 91 98 133 91 170 C 96 180 98 186 97 186 Z" fill="#233f71" id="id-male-17_extra_jacket-32">
</path>
</g>
<g transform="translate(4,457)" id="id-male-17_extra_jacket-33">
<path d="M 61 149 C 29 135 13 128 13 128 C 4 117 0 111 0 111 C 3 80 5 65 5 65 C 24 22 33 0 33 0 L 58 22 C 60 107 61 149 61 149 Z" fill="#1a4977" id="id-male-17_extra_jacket-34">
</path>
<path d="M 21 58 L 16 38 L 33 0 C 47 13 54 19 54 19 C 52 22 51 23 51 23 L 44 19 C 29 45 21 58 21 58 Z" fill="#16557e" id="id-male-17_extra_jacket-35">
</path>
<path d="M 46 11 C 41 16 39 18 39 18 L 28 12 L 33 0 C 41 8 46 11 46 11 Z" fill="#70b3dd" id="id-male-17_extra_jacket-36">
</path>
<path d="M 28 135 L 61 149 C 59 65 58 23 58 23 L 53 18 L 28 64 L 28 135 Z" fill="#175783" id="id-male-17_extra_jacket-37">
</path>
<path d="M 50 140 L 61 142 C 59 62 58 22 58 22 L 53 19 L 46 33 C 48 104 50 140 50 140 Z" fill="#287096" id="id-male-17_extra_jacket-38">
</path>
<path d="M 55 73 C 52 73 51 74 51 74 C 50 99 50 112 50 112 L 58 117 C 56 88 55 73 55 73 Z" fill="#70b3dc" id="id-male-17_extra_jacket-39">
</path>
<path d="M 31 98 C 31 76 30 64 30 64 C 41 44 47 33 47 33 L 49 72 C 39 84 33 93 31 98 Z" fill="#4f93ba" id="id-male-17_extra_jacket-40">
</path>
</g>
<g transform="translate(44,167)" id="id-male-17_extra_jacket-41">
<path d="M 104 183 C 42 214 11 230 11 230 C 4 224 0 219 0 215 C 21 111 37 43 47 10 C 53 3 56 0 56 0 L 78 18 C 92 103 101 158 104 183 Z" fill="#12466c" id="id-male-17_extra_jacket-42">
</path>
<path d="M 0 215 C 39 198 58 189 58 189 C 60 192 61 193 61 193 C 87 183 100 178 100 178 C 84 76 75 24 75 24 C 54 26 43 27 43 27 C 37 51 34 64 34 64 C 57 60 69 58 69 58 C 64 67 48 75 29 82 C 25 100 23 109 23 109 C 54 102 69 98 69 98 C 64 111 43 120 18 128 C 14 148 12 158 12 158 L 66 138 C 55 158 31 161 10 169 C 3 200 0 215 0 215 Z" fill="#115a7d" id="id-male-17_extra_jacket-43">
</path>
<path d="M 10 169 C 63 147 89 137 89 137 C 90 138 91 139 91 139 C 80 145 75 149 75 149 C 78 168 79 178 79 178 C 59 169 49 164 49 164 L 6 187 C 9 175 10 169 10 169 Z" fill="#2a719b" id="id-male-17_extra_jacket-44">
</path>
<path d="M 88 128 C 88 110 87 101 87 101 C 43 114 20 120 20 120 C 19 127 18 130 18 130 C 43 121 56 116 56 116 C 62 123 65 126 65 126 L 73 117 C 83 124 88 128 88 128 Z" fill="#2a7499" id="id-male-17_extra_jacket-45">
</path>
<path d="M 86 92 L 23 109 C 27 91 29 82 29 82 L 82 63 L 86 92 Z" fill="#115a7d" id="id-male-17_extra_jacket-46">
</path>
<path d="M 29 82 L 31 73 L 70 67 C 43 77 29 82 29 82 Z" fill="#2a729a" id="id-male-17_extra_jacket-47">
</path>
<path d="M 36 199 C 44 182 48 174 48 174 C 57 102 61 66 61 66 C 68 60 71 57 71 57 L 61 169 L 79 178 C 51 192 36 199 36 199 Z" fill="#5c9ec8" id="id-male-17_extra_jacket-48">
</path>
<path d="M 37 50 L 74 35 L 74 24 L 43 27 C 39 43 37 50 37 50 Z" fill="#2a729a" id="id-male-17_extra_jacket-49">
</path>
</g>
<path d="M 509 747 C 447 753 417 756 417 756 C 390 766 377 772 377 772 C 334 735 313 716 313 716 C 394 710 462 703 532 697 C 517 730 509 747 509 747 Z" fill="#060f1e" fill-opacity="0.5" id="id-male-17_extra_jacket-50">
</path>
<path d="M 313 716 C 342 742 357 755 357 755 C 284 762 235 762 211 756 L 195 718 C 247 718 287 718 313 716 Z" fill="#060f1e" fill-opacity="0.5" id="id-male-17_extra_jacket-51">
</path>
<path d="M 214 400 C 227 459 237 498 244 516 L 243 608 L 282 663 L 286 722 C 310 736 322 744 322 744 C 365 744 386 745 386 745 C 412 728 425 720 425 720 C 427 682 428 663 428 663 C 456 629 470 613 470 613 C 469 550 469 519 469 519 C 483 464 491 436 491 436 C 495 412 498 399 498 399 L 500 340 L 211 339 L 214 400 Z" fill="url(#id-male-17_extra_jacket-1)" id="id-male-17_extra_jacket-52">
</path>
<path d="M 166 232 C 141 201 129 186 129 186 C 117 158 111 143 111 143 L 154 132 L 166 232 Z" fill="#0e5978" id="id-male-17_extra_jacket-53">
</path>
<path d="M 132 189 L 158 164 L 166 229 C 143 203 132 189 132 189 Z" fill="#0d4462" id="id-male-17_extra_jacket-54">
</path>
<path d="M 214 303 C 210 299 208 297 208 297 C 210 326 212 359 214 400 C 220 435 232 475 244 516 C 243 578 243 610 243 610 C 269 645 282 663 282 663 C 285 702 286 722 286 722 C 310 736 322 743 322 743 C 304 744 291 744 284 743 C 257 742 242 739 242 739 C 209 734 176 729 148 726 C 145 715 143 710 143 710 L 151 704 C 152 683 153 672 153 672 C 204 680 229 683 229 683 C 208 652 197 636 197 636 C 200 584 201 531 199 478 C 189 443 184 407 180 372 L 182 365 C 163 210 154 132 154 132 C 182 120 195 114 195 114 C 202 113 205 112 205 112 L 198 167 C 208 247 214 292 214 303 Z" fill="url(#id-male-17_extra_jacket-2)" id="id-male-17_extra_jacket-55">
</path>
<path d="M 244 516 C 215 526 200 531 200 531 L 199 481 C 229 504 244 516 244 516 Z" fill="#063b4d" id="id-male-17_extra_jacket-56">
</path>
<path d="M 199 478 L 224 446 C 217 415 214 400 214 400 C 212 374 212 361 212 361 L 180 351 L 182 365 L 180 372 C 187 427 194 463 199 478 Z" fill="#033442" id="id-male-17_extra_jacket-57">
</path>
<path d="M 237 613 C 255 631 264 640 264 640 C 234 658 219 667 219 667 L 204 647 C 226 624 237 613 237 613 Z" fill="#24598b" id="id-male-17_extra_jacket-58">
</path>
<path d="M 256 724 C 213 723 191 723 191 723 C 194 693 195 679 195 679 L 232 683 C 248 710 256 724 256 724 Z" fill="#275c90" id="id-male-17_extra_jacket-59">
</path>
<path d="M 205 297 C 205 302 205 304 205 304 C 185 305 175 305 175 305 L 174 297 C 195 297 205 297 205 297 Z" fill="#0d4261" id="id-male-17_extra_jacket-60">
</path>
<path d="M 206 327 C 207 322 207 320 207 320 C 187 319 177 319 177 319 L 178 325 C 197 326 206 327 206 327 Z" fill="#0e415c" id="id-male-17_extra_jacket-61">
</path>
<path d="M 211 336 C 189 335 179 334 179 334 C 180 340 180 343 180 343 L 211 344 C 211 339 211 336 211 336 Z" fill="#0e415c" id="id-male-17_extra_jacket-62">
</path>
<path d="M 205 113 C 198 113 195 113 195 113 C 192 149 191 167 191 167 C 198 207 201 227 201 227 C 178 228 166 229 166 229 L 154 176 L 154 139 L 154 110 L 186 100 C 195 106 197 108 205 113 Z" fill="#880122" id="id-male-17_extra_jacket-63">
</path>
<path d="M 179 151 L 154 167 C 151 147 154 129 154 110 L 186 100 C 184 117 180 137 179 151 Z" fill="#c70b4f" id="id-male-17_extra_jacket-64">
</path>
<path d="M 186 100 C 164 106 153 110 153 110 C 152 129 152 139 152 139 L 180 135 C 184 111 186 100 186 100 Z" fill="#fd78d3" id="id-male-17_extra_jacket-65">
</path>
<path d="M 182 164 L 191 227 L 166 229 L 154 176 C 172 168 182 164 182 164 Z" fill="#c70b4f" id="id-male-17_extra_jacket-66">
</path>
<path d="M 196 227 C 197 240 197 246 197 246 L 168 247 L 166 229 C 186 228 196 227 196 227 Z" fill="#4d6b85" id="id-male-17_extra_jacket-67">
</path>
<path d="M 173 288 C 194 289 205 289 205 289 C 204 263 203 251 203 251 L 169 251 C 171 276 173 288 173 288 Z" fill="#870021" id="id-male-17_extra_jacket-68">
</path>
<path d="M 222 436 C 255 464 271 478 271 478 L 291 725 L 286 722 L 282 663 L 243 608 L 244 516 C 231 472 223 446 222 436 Z" fill="#1f2a31" id="id-male-17_extra_jacket-69">
</path>
<path d="M 490 438 C 457 468 440 482 440 482 L 420 723 L 425 720 L 428 663 L 470 613 L 469 519 C 483 465 490 438 490 438 Z" fill="#252c30" id="id-male-17_extra_jacket-70">
</path>
<path d="M 386 745 C 477 738 535 731 562 722 C 562 708 562 701 562 701 C 557 699 554 698 554 698 L 552 669 C 549 669 547 669 547 669 C 525 677 497 681 470 685 C 488 667 502 649 511 629 C 507 564 505 532 505 532 C 516 464 527 398 536 333 L 500 344 L 498 399 L 469 519 L 470 613 L 428 663 L 425 720 C 399 736 386 745 386 745 Z" fill="url(#id-male-17_extra_jacket-3)" id="id-male-17_extra_jacket-71">
</path>
<path d="M 467 623 C 443 652 430 666 430 666 L 460 651 C 465 633 467 623 467 623 Z" fill="#388aa1" id="id-male-17_extra_jacket-72">
</path>
<path d="M 598 143 C 588 170 582 184 582 184 C 555 218 541 235 541 235 L 540 125 C 579 137 598 143 598 143 Z" fill="#03414e" id="id-male-17_extra_jacket-73">
</path>
<path d="M 509 589 C 485 579 473 574 473 574 L 504 538 C 481 525 469 519 469 519 C 487 446 496 410 496 410 L 528 385 L 505 532 C 508 570 509 589 509 589 Z" fill="#00323e" id="id-male-17_extra_jacket-74">
</path>
<path d="M 455 428 L 498 397 L 498 399 L 496 410 L 528 385 C 534 351 536 333 536 333 L 468 357 C 459 404 455 428 455 428 Z" fill="#02414e" id="id-male-17_extra_jacket-75">
</path>
<path d="M 540 284 C 517 291 505 295 505 295 C 507 245 509 220 509 220 C 515 186 518 170 518 170 C 518 131 518 112 518 112 C 514 109 513 108 513 108 C 520 102 523 99 523 99 C 541 107 550 110 550 110 C 556 151 559 171 559 171 L 543 229 C 541 266 540 284 540 284 Z" fill="#870021" id="id-male-17_extra_jacket-76">
</path>
<path d="M 498 357 C 520 346 531 340 531 340 C 538 300 541 280 541 280 L 505 292 C 500 336 498 357 498 357 Z" fill="#18222e" id="id-male-17_extra_jacket-77">
</path>
<path d="M 500 336 C 522 330 533 327 533 327 L 532 334 L 500 345 C 500 339 500 336 500 336 Z" fill="#103f5b" id="id-male-17_extra_jacket-78">
</path>
<path d="M 535 317 C 536 313 536 311 536 311 C 513 316 501 319 501 319 L 501 325 C 524 320 535 317 535 317 Z" fill="#0f425f" id="id-male-17_extra_jacket-79">
</path>
<path d="M 538 300 C 539 295 539 293 539 293 C 516 297 504 300 504 300 L 503 307 C 526 303 538 300 538 300 Z" fill="#0e405b" id="id-male-17_extra_jacket-80">
</path>
<path d="M 505 220 C 504 237 503 245 503 245 C 531 244 545 244 545 244 L 548 222 C 519 221 505 220 505 220 Z" fill="#4d6b85" id="id-male-17_extra_jacket-81">
</path>
<path d="M 548 222 C 519 221 505 220 505 220 C 505 225 505 228 505 228 L 548 227 L 548 222 Z" fill="#98bad6" id="id-male-17_extra_jacket-82">
</path>
<path d="M 514 220 C 523 184 527 167 527 167 L 558 176 L 545 222 C 525 220 514 220 514 220 Z" fill="#c60b4f" id="id-male-17_extra_jacket-83">
</path>
<path d="M 559 168 L 528 158 L 523 99 L 550 110 C 556 149 559 168 559 168 Z" fill="#c70b4f" id="id-male-17_extra_jacket-84">
</path>
<path d="M 554 135 C 536 133 527 131 527 131 L 526 100 L 550 110 C 552 127 554 135 554 135 Z" fill="#f464bb" id="id-male-17_extra_jacket-85">
</path>
<polygon points="582 184 559 171 543 229" fill="#1a6777" id="id-male-17_extra_jacket-86">
</polygon>
<path d="M 258 433 C 228 411 214 400 214 400 C 212 367 212 350 212 350 L 247 363 L 258 433 Z" fill="#094358" id="id-male-17_extra_jacket-87">
</path>
<path d="M 243 357 C 308 358 341 359 341 359 C 339 239 338 179 338 179 C 328 179 324 179 324 179 C 315 168 311 162 311 162 C 261 162 237 161 237 161 L 204 121 L 197 167 L 214 303 C 233 339 243 357 243 357 Z" fill="url(#id-male-17_extra_jacket-4)" id="id-male-17_extra_jacket-88">
</path>
<path d="M 332 351 C 327 351 324 352 324 352 C 324 338 324 332 324 332 C 319 324 317 321 317 321 C 266 318 240 317 240 317 C 250 338 255 349 255 349 C 248 353 245 354 245 354 C 234 332 228 320 228 320 C 232 318 234 317 234 317 C 234 313 234 311 234 311 L 329 312 C 331 338 332 351 332 351 Z" fill="#065c6d" id="id-male-17_extra_jacket-89">
</path>
<path d="M 327 332 C 328 321 328 316 328 316 L 314 316 C 323 327 327 332 327 332 Z" fill="#31899f" id="id-male-17_extra_jacket-90">
</path>
<path d="M 212 287 C 213 291 213 293 213 293 L 245 291 C 223 288 212 287 212 287 Z" fill="#216682" id="id-male-17_extra_jacket-91">
</path>
<path d="M 237 291 C 299 294 330 295 330 295 C 330 228 330 194 330 194 L 302 190 C 259 258 237 291 237 291 Z" fill="#065063" id="id-male-17_extra_jacket-92">
</path>
<path d="M 296 293 C 319 294 330 295 330 295 C 330 248 330 224 330 224 L 324 286 L 296 293 Z" fill="#2f879d" id="id-male-17_extra_jacket-93">
</path>
<path d="M 229 181 L 289 293 L 296 293 L 324 287 C 328 257 332 227 330 194 L 229 181 Z" fill="#055868" fill-opacity="0.9" id="id-male-17_extra_jacket-94">
</path>
<path d="M 330 186 C 318 186 311 187 311 187 C 295 220 287 236 287 236 L 330 211 C 330 194 330 186 330 186 Z" fill="#2a8296" id="id-male-17_extra_jacket-95">
</path>
<path d="M 279 177 C 285 169 288 166 288 166 L 270 165 C 276 173 279 177 279 177 Z" fill="#a7b5c2" id="id-male-17_extra_jacket-96">
</path>
<path d="M 296 176 C 308 176 314 175 314 175 L 304 166 C 299 172 296 176 296 176 Z" fill="#c2c9d4" id="id-male-17_extra_jacket-97">
</path>
<path d="M 366 358 C 435 355 470 354 470 354 C 483 325 489 311 489 311 C 504 213 511 164 511 164 L 504 123 L 476 165 L 399 164 C 392 174 388 178 388 178 L 372 179 C 368 298 366 358 366 358 Z" fill="#02414e" id="id-male-17_extra_jacket-98">
</path>
<path d="M 410 177 C 403 170 400 167 400 167 L 394 177 C 405 177 410 177 410 177 Z" fill="#a6b4bf" id="id-male-17_extra_jacket-99">
</path>
<path d="M 421 177 C 416 170 414 166 414 166 L 429 167 C 424 174 421 177 421 177 Z" fill="#a6b4bf" id="id-male-17_extra_jacket-100">
</path>
<path d="M 379 260 C 378 214 378 190 378 190 C 443 190 475 190 475 190 L 478 261 C 412 260 379 260 379 260 Z" fill="#006067" id="id-male-17_extra_jacket-101">
</path>
<path d="M 378 211 L 418 190 L 378 190 C 378 204 378 211 378 211 Z" fill="#1d7485" id="id-male-17_extra_jacket-102">
</path>
<path d="M 374 310 C 374 338 374 352 374 352 C 433 349 463 347 463 347 L 478 309 C 409 310 374 310 374 310 Z" fill="#00646c" id="id-male-17_extra_jacket-103">
</path>
<path d="M 374 311 C 386 315 392 317 392 317 C 392 339 393 350 393 350 C 412 350 421 349 421 349 L 432 317 L 478 309 C 409 310 374 311 374 311 Z" fill="#268394" id="id-male-17_extra_jacket-104">
</path>
<g transform="translate(254,360)" id="id-male-17_extra_jacket-105">
<path d="M 0 0 L 85 32 L 84 389 L 37 361 C 16 119 3 -2 0 0 Z" fill="#074254" id="id-male-17_extra_jacket-106">
</path>
<path d="M 21 74 C 11 32 6 11 6 11 C 52 26 75 34 75 34 L 74 105 C 38 84 21 74 21 74 Z" fill="#054e5d" id="id-male-17_extra_jacket-107">
</path>
<path d="M 12 30 L 19 16 L 6 12 C 10 24 12 30 12 30 Z" fill="#a8b8c3" id="id-male-17_extra_jacket-108">
</path>
<path d="M 22 18 C 54 33 70 41 70 41 L 74 87 L 75 34 C 40 24 22 18 22 18 Z" fill="#2d849a" id="id-male-17_extra_jacket-109">
</path>
<path d="M 78 119 C 76 160 75 180 75 180 C 43 161 26 151 26 151 L 19 84 C 58 108 78 119 78 119 Z" fill="#054e5d" id="id-male-17_extra_jacket-110">
</path>
<polygon points="78 130 19 84 78 119" fill="#1f7284" id="id-male-17_extra_jacket-111">
</polygon>
<path d="M 17 108 C 17 91 16 82 16 82 L 32 88 C 22 101 17 108 17 108 Z" fill="#1ba5ef" id="id-male-17_extra_jacket-112">
</path>
<path d="M 32 222 C 30 184 29 165 29 165 C 61 180 77 187 77 187 L 77 257 C 47 233 32 222 32 222 Z" fill="#064f5e" id="id-male-17_extra_jacket-113">
</path>
<path d="M 26 161 C 26 173 26 179 26 179 L 40 167 C 31 163 26 161 26 161 Z" fill="#c90c50" id="id-male-17_extra_jacket-114">
</path>
<path d="M 38 169 L 72 193 L 77 220 L 77 187 C 51 175 38 169 38 169 Z" fill="#24798d" id="id-male-17_extra_jacket-115">
</path>
<path d="M 77 215 L 60 243 L 78 257 C 77 229 77 215 77 215 Z" fill="#055c6d" id="id-male-17_extra_jacket-116">
</path>
<path d="M 33 230 C 35 271 36 291 36 291 C 66 316 81 329 81 329 L 80 267 C 48 243 33 230 33 230 Z" fill="#095166" id="id-male-17_extra_jacket-117">
</path>
<path d="M 33 253 C 33 240 33 234 33 234 L 43 242 C 36 249 33 253 33 253 Z" fill="#c90b51" id="id-male-17_extra_jacket-118">
</path>
<path d="M 80 278 C 80 271 80 267 80 267 L 44 238 L 80 278 Z" fill="#25778f" id="id-male-17_extra_jacket-119">
</path>
<path d="M 42 357 C 40 320 39 302 39 302 L 81 336 L 83 383 C 55 365 42 357 42 357 Z" fill="#0d4e6a" id="id-male-17_extra_jacket-120">
</path>
<path d="M 81 336 L 71 337 L 40 302 C 67 325 81 336 81 336 Z" fill="#2e7c9b" id="id-male-17_extra_jacket-121">
</path>
<path d="M 38 323 C 38 311 38 306 38 306 L 48 312 C 42 319 38 323 38 323 Z" fill="#ca0b51" id="id-male-17_extra_jacket-122">
</path>
</g>
<g transform="translate(372,358)" id="id-male-17_extra_jacket-123">
<path d="M 1 390 L 48 361 C 61 203 68 124 68 124 C 82 41 88 0 88 0 L 0 34 C 0 271 1 390 1 390 Z" fill="#03414e" id="id-male-17_extra_jacket-124">
</path>
<path d="M 7 40 C 7 83 7 105 7 105 C 48 81 68 69 68 69 L 68 14 C 27 31 7 40 7 40 Z" fill="#00656d" id="id-male-17_extra_jacket-125">
</path>
<path d="M 7 40 C 8 47 8 51 8 51 L 75 11 C 30 30 7 40 7 40 Z" fill="#3890a6" id="id-male-17_extra_jacket-126">
</path>
<path d="M 77 25 C 70 17 67 13 67 13 L 84 8 C 79 19 77 25 77 25 Z" fill="#a8b6c1" id="id-male-17_extra_jacket-127">
</path>
<path d="M 5 180 C 42 158 61 147 61 147 L 66 82 L 5 113 C 5 157 5 180 5 180 Z" fill="#005d65" id="id-male-17_extra_jacket-128">
</path>
<path d="M 5 113 C 25 114 34 114 34 114 L 63 84 C 24 103 5 113 5 113 Z" fill="#368da1" id="id-male-17_extra_jacket-129">
</path>
<path d="M 48 91 C 59 100 65 104 65 104 L 71 79 C 55 87 48 91 48 91 Z" fill="#20a5f0" id="id-male-17_extra_jacket-130">
</path>
<path d="M 4 258 C 4 212 5 189 5 189 C 39 169 57 159 57 159 L 54 227 C 21 248 4 258 4 258 Z" fill="#01666f" id="id-male-17_extra_jacket-131">
</path>
<polygon points="17 186 57 159 54 227" fill="#014f5b" id="id-male-17_extra_jacket-132">
</polygon>
<path d="M 10 186 L 24 185 L 57 159 C 26 177 10 186 10 186 Z" fill="#32879b" id="id-male-17_extra_jacket-133">
</path>
<polygon points="5 222 44 233 4 258" fill="#3b91aa" id="id-male-17_extra_jacket-134">
</polygon>
<path d="M 56 181 L 44 166 L 57 159 C 56 174 56 181 56 181 Z" fill="#c70b4f" id="id-male-17_extra_jacket-135">
</path>
<path d="M 3 329 C 33 307 48 295 48 295 C 50 256 51 237 51 237 L 4 267 C 3 309 3 329 3 329 Z" fill="#065164" id="id-male-17_extra_jacket-136">
</path>
<polygon points="4 290 51 237 4 268" fill="#036572" id="id-male-17_extra_jacket-137">
</polygon>
<path d="M 50 255 L 39 245 L 51 237 C 51 249 50 255 50 255 Z" fill="#c90c50" id="id-male-17_extra_jacket-138">
</path>
<path d="M 0 337 C 30 318 45 308 45 308 L 44 357 L 0 386 C 0 353 0 337 0 337 Z" fill="#055161" id="id-male-17_extra_jacket-139">
</path>
<path d="M 7 333 L 17 333 L 45 308 C 19 325 7 333 7 333 Z" fill="#33809d" id="id-male-17_extra_jacket-140">
</path>
<path d="M 45 326 L 34 314 L 45 308 C 45 320 45 326 45 326 Z" fill="#c90c50" id="id-male-17_extra_jacket-141">
</path>
</g>
<path d="M 472 737 C 500 734 517 732 523 730 C 519 695 517 677 517 677 L 466 688 C 470 721 472 737 472 737 Z" fill="#025865" id="id-male-17_extra_jacket-142">
</path>
<g transform="translate(595,625)" id="id-male-17_extra_jacket-143">
<path d="M 22 193 C 27 190 29 189 29 189 C 53 194 87 196 112 196 C 117 153 96 20 105 0 C 68 2 33 24 0 57 C 11 97 17 117 17 117 C 21 134 24 150 25 167 C 20 169 17 183 22 193 Z" fill="#163247" id="id-male-17_extra_jacket-144">
</path>
<path d="M 48 182 L 113 191 C 107 88 105 25 105 0 C 79 2 51 12 22 37 C 33 85 46 131 48 182 Z" fill="#055e6c" id="id-male-17_extra_jacket-145">
</path>
<path d="M 58 184 C 65 184 69 185 69 185 C 68 77 72 16 82 4 L 56 14 C 59 95 59 152 58 184 Z" fill="#348aa1" id="id-male-17_extra_jacket-146">
</path>
<path d="M 75 178 L 91 175 C 84 79 88 21 104 0 C 98 0 90 2 83 3 C 76 93 74 151 75 178 Z" fill="#064254" id="id-male-17_extra_jacket-147">
</path>
<path d="M 77 107 C 76 123 75 132 75 132 C 63 136 56 145 47 152 C 57 134 67 119 77 107 Z" fill="#0a475c" id="id-male-17_extra_jacket-148">
</path>
<path d="M 42 91 C 54 66 67 45 82 27 L 80 51 C 61 67 49 81 42 91 Z" fill="#044353" id="id-male-17_extra_jacket-149">
</path>
</g>
<path d="M 580 625 L 685 552 L 692 581 L 688 598 L 697 608 C 693 620 692 626 692 626 C 672 629 651 637 629 652 C 641 629 646 618 646 618 L 586 635 C 582 629 580 625 580 625 Z" fill="#1b2228" id="id-male-17_extra_jacket-150">
</path>
<g transform="translate(561,155)" id="id-male-17_extra_jacket-151">
<path d="M 0 192 C 60 226 90 244 90 244 C 101 237 106 234 106 234 C 84 107 64 29 48 0 L 26 24 L 0 192 Z" fill="#02414d" id="id-male-17_extra_jacket-152">
</path>
<path d="M 8 192 C 70 221 101 236 101 236 C 95 208 92 194 92 194 C 42 174 18 164 18 164 C 19 157 19 154 19 154 C 47 168 60 175 60 175 C 76 161 84 155 84 155 C 49 135 32 125 32 125 C 32 122 33 121 33 121 C 52 128 62 131 62 131 C 76 120 82 114 82 114 C 82 110 81 108 81 108 C 54 88 40 77 40 77 C 43 70 45 66 45 66 C 64 74 74 78 74 78 C 67 52 64 39 64 39 C 57 35 53 34 53 34 L 56 18 C 51 6 48 0 48 0 L 36 24 C 18 136 8 192 8 192 Z" fill="#006168" id="id-male-17_extra_jacket-153">
</path>
<path d="M 25 133 C 37 110 42 99 42 99 C 39 72 37 59 37 59 L 42 52 L 36 24 C 26 99 23 135 25 133 Z" fill="#4b94b5" id="id-male-17_extra_jacket-154">
</path>
</g>
<path d="M 444 92 C 448 100 451 104 451 104 C 421 113 406 117 406 117 L 402 106 C 430 96 444 92 444 92 Z" fill="#c10d4e" id="id-male-17_extra_jacket-155">
</path>
<polygon points="196 226 194 231 163 233 168 226" fill="#94b6d2" id="id-male-17_extra_jacket-156">
</polygon>
<polygon points="382 259 382 290 478 290 478 261" stroke="#000000" fill="#ffd147" id="id-male-17_extra_jacket-157">
</polygon>
<g transform="translate(643,459)" id="id-male-17_extra_jacket-158">
<path d="M 0 144 L 13 147 C 36 132 54 119 63 109 C 59 79 56 63 56 63 C 40 22 31 2 31 2 L 5 17 L 0 144 Z" fill="#01414d" id="id-male-17_extra_jacket-159">
</path>
<path d="M 13 89 C 31 72 40 64 40 64 C 40 107 41 128 41 128 C 28 132 18 145 5 145 C 10 108 13 89 13 89 Z" fill="#378fa3" id="id-male-17_extra_jacket-160">
</path>
<path d="M 41 71 L 49 48 C 37 17 32 2 32 2 C 30 14 25 23 16 28 C 20 38 23 44 23 44 L 20 83 C 34 75 41 71 41 71 Z" fill="#006168" id="id-male-17_extra_jacket-161">
</path>
<path d="M 5 22 L 24 0 L 32 0 C 28 12 18 20 5 22 Z" fill="#398ea3" id="id-male-17_extra_jacket-162">
</path>
</g>
</g>
<defs>
</defs>
<g transform="translate(560,219)" id="id-male-25_38_hair-0">
<g fill="#1b0c19" id="id-male-25_38_hair-1">
<path d="M 197 112 C 186 149 189 180 189 180 L 185 185 L 181 181 L 180 190 C 178 176 180 151 169 135 L 171 119 L 174 123 C 173 115 165 104 165 104 L 168 105 C 160 93 139 82 129 85 L 132 81 L 110 86 L 109 84 L 100 87 C 95 94 79 93 79 93 C 25 112 29 172 29 172 C 18 120 62 89 62 89 C 40 91 26 117 25 118 C 29 97 61 83 61 83 C 41 76 13 111 14 109 L 20 106 C 27 144 11 125 14 158 L 17 156 C 14 163 14 180 14 180 L 8 177 L 3 129 C 2 115 -4 90 5 77 L 0 80 C 0 75 15 47 20 44 L 34 48 C 33 42 39 26 40 24 C 46 19 73 1 83 6 C 94 -5 120 1 128 7 C 131 7 134 4 138 5 C 143 5 160 21 165 27 L 170 23 C 171 26 175 35 176 37 L 179 35 C 195 52 201 95 199 111 C 198 109 197 105 196 104 C 195 110 197 112 197 112 Z" id="id-male-25_38_hair-2">
</path>
</g>
<g transform="translate(43,0)" fill="#3a3669" id="id-male-25_38_hair-3">
<path d="M 156 110 C 150 91 145 84 140 93 C 140 93 133 58 140 62 C 159 65 155 107 156 110 Z" id="id-male-25_38_hair-2">
</path>
<path d="M 132 70 L 118 97 C 112 92 105 88 98 86 C 108 81 128 73 132 70 Z" id="id-male-25_38_hair-2">
</path>
<path d="M 143 47 L 141 50 C 141 50 80 78 65 81 C 65 81 75 59 77 52 L 60 78 C 62 63 84 18 92 4 C 99 3 110 16 118 23 C 113 30 108 36 102 41 C 103 40 122 33 128 27 L 132 37 L 135 35 C 138 38 141 42 143 47 Z" id="id-male-25_38_hair-2">
</path>
<path d="M 63 56 L 67 45 L 55 65 L 52 50 C 52 50 50 75 51 78 C 51 78 27 40 37 6 L 40 6 C 45 1 55 -1 62 0 L 62 1 L 61 19 L 68 1 C 78 2 82 6 85 7 C 83 15 77 41 63 56 Z" id="id-male-25_38_hair-2">
</path>
<path d="M 29 7 C 29 7 32 56 44 72 C 44 72 28 60 27 57 C 27 57 34 74 47 81 L 42 81 C 42 81 19 59 15 47 C 15 47 26 75 32 81 L 28 80 C 31 83 -17 40 7 22 L 11 36 C 11 36 15 13 29 7 Z" id="id-male-25_38_hair-2">
</path>
</g>
</g>
<defs>
</defs>

</svg>
