<?xml version="1.0" encoding="UTF-8"?>
<svg xmlns="http://www.w3.org/2000/svg" xmlns:xlink="http://www.w3.org/1999/xlink" width="1320px" height="1760px" viewBox="0 0 1320 1760" version="1.1">
<defs>


</defs>

<defs>
<linearGradient x1="100%" y1="46%" x2="12%" y2="47%" id="id-female-6.6_base_4-0">
<stop stop-color="#c5663d" offset="0%">
</stop>
<stop stop-color="#c1633a" offset="21%">
</stop>
<stop stop-color="#eda377" offset="46%">
</stop>
<stop stop-color="#eb8c5c" offset="80%">
</stop>
<stop stop-color="#dc7e50" offset="100%">
</stop>
</linearGradient>
<linearGradient x1="53%" y1="81%" x2="50%" y2="21%" id="id-female-6.6_base_4-1">
<stop stop-color="#cd6c5b" offset="0%">
</stop>
<stop stop-color="#de7862" offset="24%">
</stop>
<stop stop-color="#df8352" offset="100%">
</stop>
</linearGradient>
<linearGradient x1="52%" y1="-4%" x2="46%" y2="70%" id="id-female-6.6_base_4-2">
<stop stop-color="#be6352" offset="0%">
</stop>
<stop stop-color="#b25041" offset="100%">
</stop>
</linearGradient>
<linearGradient x1="46%" y1="43%" x2="15%" y2="43%" id="id-female-6.6_base_4-3">
<stop stop-color="#df8655" offset="0%">
</stop>
<stop stop-color="#b95831" offset="100%">
</stop>
</linearGradient>
<linearGradient x1="54%" y1="37%" x2="12%" y2="72%" id="id-female-6.6_base_4-4">
<stop stop-color="#3c050a" offset="0%">
</stop>
<stop stop-color="#9a4336" offset="100%">
</stop>
</linearGradient>
<linearGradient x1="40%" y1="14%" x2="61%" y2="85%" id="id-female-6.6_base_4-5">
<stop stop-color="#6e1b17" offset="0%">
</stop>
<stop stop-color="#852720" offset="100%">
</stop>
</linearGradient>
<linearGradient x1="27%" y1="47%" x2="91%" y2="49%" id="id-female-6.6_base_4-6">
<stop stop-color="#e19d89" offset="0%">
</stop>
<stop stop-color="#ffbba2" offset="100%">
</stop>
</linearGradient>
<linearGradient x1="47%" y1="60%" x2="49%" y2="79%" id="id-female-6.6_base_4-7">
<stop stop-color="#e78666" offset="0%">
</stop>
<stop stop-color="#e07c62" offset="60%">
</stop>
<stop stop-color="#ed9f7d" offset="100%">
</stop>
</linearGradient>
<linearGradient x1="29%" y1="56%" x2="69%" y2="53%" id="id-female-6.6_base_4-8">
<stop stop-color="#d47d53" offset="0%">
</stop>
<stop stop-color="#c86443" offset="8%">
</stop>
<stop stop-color="#d9774f" offset="18%">
</stop>
<stop stop-color="#d26b50" offset="38%">
</stop>
<stop stop-color="#d1694c" offset="65%">
</stop>
<stop stop-color="#cd6944" offset="81%">
</stop>
<stop stop-color="#be5b3f" offset="100%">
</stop>
</linearGradient>
<linearGradient x1="47%" y1="45%" x2="54%" y2="46%" id="id-female-6.6_base_4-9">
<stop stop-color="#d26a4c" offset="0%">
</stop>
<stop stop-color="#c96947" offset="62%">
</stop>
<stop stop-color="#bc5b3a" offset="77%">
</stop>
<stop stop-color="#d18459" offset="100%">
</stop>
</linearGradient>
<linearGradient x1="51%" y1="7%" x2="50%" y2="100%" id="id-female-6.6_base_4-10">
<stop stop-color="#d26c48" offset="0%">
</stop>
<stop stop-color="#e28f6d" offset="75%">
</stop>
<stop stop-color="#da876b" offset="100%">
</stop>
</linearGradient>
<linearGradient x1="51%" y1="11%" x2="49%" y2="93%" id="id-female-6.6_base_4-11">
<stop stop-color="#dc7e50" offset="0%">
</stop>
<stop stop-color="#da7b4d" offset="73%">
</stop>
<stop stop-color="#e08955" offset="100%">
</stop>
</linearGradient>
<linearGradient x1="51%" y1="-5%" x2="48%" y2="96%" id="id-female-6.6_base_4-12">
<stop stop-color="#d8794c" offset="0%">
</stop>
<stop stop-color="#c6683e" offset="100%">
</stop>
</linearGradient>
<linearGradient x1="50%" y1="19%" x2="50%" y2="69%" id="id-female-6.6_base_4-13">
<stop stop-color="#a84c29" offset="0%">
</stop>
<stop stop-color="#742f19" offset="45%">
</stop>
<stop stop-color="#a54622" offset="100%">
</stop>
</linearGradient>
<linearGradient x1="46%" y1="74%" x2="39%" y2="35%" id="id-female-6.6_base_4-14">
<stop stop-color="#b04f3a" offset="0%">
</stop>
<stop stop-color="#c6644a" offset="51%">
</stop>
<stop stop-color="#9f5738" offset="100%" stop-opacity="0">
</stop>
</linearGradient>
<linearGradient x1="46%" y1="16%" x2="49%" y2="82%" id="id-female-6.6_base_4-15">
<stop stop-color="#9b473d" offset="0%" stop-opacity="0.186">
</stop>
<stop stop-color="#5f2520" offset="100%">
</stop>
</linearGradient>
<linearGradient x1="41%" y1="19%" x2="50%" y2="100%" id="id-female-6.6_base_4-16">
<stop stop-color="#be614b" offset="0%">
</stop>
<stop stop-color="#9e4237" offset="100%">
</stop>
</linearGradient>
<linearGradient x1="50%" y1="31%" x2="45%" y2="50%" id="id-female-6.6_base_4-17">
<stop stop-color="#d06c41" offset="0%">
</stop>
<stop stop-color="#ec8e5f" offset="100%">
</stop>
</linearGradient>
<linearGradient x1="51%" y1="22%" x2="50%" y2="100%" id="id-female-6.6_base_4-18">
<stop stop-color="#b0483c" offset="0%">
</stop>
<stop stop-color="#bd6558" offset="100%">
</stop>
</linearGradient>
<linearGradient x1="49%" y1="0%" x2="50%" y2="100%" id="id-female-6.6_base_4-19">
<stop stop-color="#d47449" offset="0%">
</stop>
<stop stop-color="#e27c59" offset="100%">
</stop>
</linearGradient>
<linearGradient x1="44%" y1="15%" x2="50%" y2="100%" id="id-female-6.6_base_4-20">
<stop stop-color="#b75738" offset="0%">
</stop>
<stop stop-color="#a6503c" offset="100%">
</stop>
</linearGradient>
<linearGradient x1="52%" y1="21%" x2="49%" y2="83%" id="id-female-6.6_base_4-21">
<stop stop-color="#de7b50" offset="0%">
</stop>
<stop stop-color="#e7845d" offset="48%">
</stop>
<stop stop-color="#e28d63" offset="100%">
</stop>
</linearGradient>
<linearGradient x1="85%" y1="60%" x2="15%" y2="60%" id="id-female-6.6_base_4-22">
<stop stop-color="#d27044" offset="0%">
</stop>
<stop stop-color="#c06137" offset="100%">
</stop>
</linearGradient>
<linearGradient x1="50%" y1="-3%" x2="59%" y2="91%" id="id-female-6.6_base_4-23">
<stop stop-color="#ce754c" offset="0%">
</stop>
<stop stop-color="#ca6b41" offset="53%">
</stop>
<stop stop-color="#bf6138" offset="66%">
</stop>
<stop stop-color="#b8522c" offset="100%">
</stop>
</linearGradient>
<linearGradient x1="55%" y1="48%" x2="46%" y2="33%" id="id-female-6.6_base_4-24">
<stop stop-color="#ce6e44" offset="0%">
</stop>
<stop stop-color="#df8152" offset="86%">
</stop>
<stop stop-color="#d37547" offset="100%">
</stop>
</linearGradient>
<linearGradient x1="50%" y1="19%" x2="50%" y2="78%" id="id-female-6.6_base_4-25">
<stop stop-color="#913919" offset="0%">
</stop>
<stop stop-color="#ab4722" offset="50%">
</stop>
<stop stop-color="#842c26" offset="100%">
</stop>
</linearGradient>
<linearGradient x1="50%" y1="10%" x2="50%" y2="43%" id="id-female-6.6_base_4-26">
<stop stop-color="#c26338" offset="0%">
</stop>
<stop stop-color="#c4643b" offset="15%">
</stop>
<stop stop-color="#993e1b" offset="68%">
</stop>
<stop stop-color="#b7512b" offset="100%">
</stop>
</linearGradient>
<linearGradient x1="89%" y1="50%" x2="7%" y2="52%" id="id-female-6.6_base_4-27">
<stop stop-color="#8c371b" offset="0%">
</stop>
<stop stop-color="#b85c4d" offset="53%" stop-opacity="0.199">
</stop>
<stop stop-color="#a3451f" offset="75%">
</stop>
<stop stop-color="#8d381a" offset="100%">
</stop>
</linearGradient>
<linearGradient x1="44%" y1="70%" x2="86%" y2="30%" id="id-female-6.6_base_4-28">
<stop stop-color="#e39165" offset="0%">
</stop>
<stop stop-color="#f0a57a" offset="100%">
</stop>
</linearGradient>
<linearGradient x1="33%" y1="92%" x2="62%" y2="23%" id="id-female-6.6_base_4-29">
<stop stop-color="#c15b34" offset="0%">
</stop>
<stop stop-color="#d27347" offset="40%">
</stop>
<stop stop-color="#efa478" offset="100%">
</stop>
</linearGradient>
<linearGradient x1="35%" y1="94%" x2="47%" y2="12%" id="id-female-6.6_base_4-30">
<stop stop-color="#dc8458" offset="0%">
</stop>
<stop stop-color="#d77e53" offset="40%">
</stop>
<stop stop-color="#eca478" offset="100%">
</stop>
</linearGradient>
<linearGradient x1="50%" y1="54%" x2="27%" y2="9%" id="id-female-6.6_base_4-31">
<stop stop-color="#f7ab80" offset="0%">
</stop>
<stop stop-color="#ddab90" offset="100%" stop-opacity="0.078">
</stop>
</linearGradient>
<linearGradient x1="50%" y1="0%" x2="93%" y2="69%" id="id-female-6.6_base_4-32">
<stop stop-color="#e99a6f" offset="0%">
</stop>
<stop stop-color="#dd8557" offset="70%">
</stop>
<stop stop-color="#c56138" offset="100%">
</stop>
</linearGradient>
<linearGradient x1="36%" y1="84%" x2="25%" y2="44%" id="id-female-6.6_base_4-33">
<stop stop-color="#c98762" offset="0%" stop-opacity="0.509">
</stop>
<stop stop-color="#90492c" offset="35%" stop-opacity="0.675">
</stop>
<stop stop-color="#762e17" offset="100%" stop-opacity="0">
</stop>
</linearGradient>
<linearGradient x1="63%" y1="95%" x2="43%" y2="20%" id="id-female-6.6_base_4-34">
<stop stop-color="#d27146" offset="0%">
</stop>
<stop stop-color="#e29562" offset="46%">
</stop>
<stop stop-color="#d17045" offset="100%">
</stop>
</linearGradient>
<linearGradient x1="40%" y1="0%" x2="50%" y2="86%" id="id-female-6.6_base_4-35">
<stop stop-color="#d87c4d" offset="0%">
</stop>
<stop stop-color="#dd8253" offset="100%">
</stop>
</linearGradient>
<linearGradient x1="50%" y1="0%" x2="50%" y2="92%" id="id-female-6.6_base_4-36">
<stop stop-color="#e58656" offset="0%">
</stop>
<stop stop-color="#e39361" offset="100%">
</stop>
</linearGradient>
<linearGradient x1="33%" y1="79%" x2="21%" y2="44%" id="id-female-6.6_base_4-37">
<stop stop-color="#be6457" offset="0%">
</stop>
<stop stop-color="#983f32" offset="28%" stop-opacity="0.928">
</stop>
<stop stop-color="#762e17" offset="100%" stop-opacity="0">
</stop>
</linearGradient>
<linearGradient x1="4%" y1="47%" x2="92%" y2="45%" id="id-female-6.6_base_4-38">
<stop stop-color="#752b0f" offset="0%">
</stop>
<stop stop-color="#83391d" offset="17%" stop-opacity="0.753">
</stop>
<stop stop-color="#9e4b3d" offset="48%" stop-opacity="0.386">
</stop>
<stop stop-color="#94401f" offset="78%" stop-opacity="0.762">
</stop>
<stop stop-color="#88391a" offset="100%">
</stop>
</linearGradient>
<linearGradient x1="60%" y1="45%" x2="67%" y2="53%" id="id-female-6.6_base_4-39">
<stop stop-color="#d57a51" offset="0%">
</stop>
<stop stop-color="#ffb49c" offset="100%">
</stop>
</linearGradient>
<linearGradient x1="48%" y1="15%" x2="54%" y2="81%" id="id-female-6.6_base_4-40">
<stop stop-color="#d99776" offset="0%" stop-opacity="0.4">
</stop>
<stop stop-color="#e59b75" offset="100%">
</stop>
</linearGradient>
<linearGradient x1="47%" y1="44%" x2="50%" y2="61%" id="id-female-6.6_base_4-41">
<stop stop-color="#943b2f" offset="0%" stop-opacity="0.175">
</stop>
<stop stop-color="#61301b" offset="100%">
</stop>
</linearGradient>
<linearGradient x1="26%" y1="-7%" x2="50%" y2="96%" id="id-female-6.6_base_4-42">
<stop stop-color="#37373f" offset="0%">
</stop>
<stop stop-color="#19191d" offset="100%">
</stop>
</linearGradient>
<linearGradient x1="50%" y1="12%" x2="59%" y2="82%" id="id-female-6.6_base_4-43">
<stop stop-color="#252525" offset="0%">
</stop>
<stop stop-color="#101010" offset="100%">
</stop>
</linearGradient>
<linearGradient x1="25%" y1="-16%" x2="50%" y2="98%" id="id-female-6.6_base_4-44">
<stop stop-color="#37373f" offset="0%">
</stop>
<stop stop-color="#19191d" offset="100%">
</stop>
</linearGradient>
<linearGradient x1="75%" y1="39%" x2="50%" y2="93%" id="id-female-6.6_base_4-45">
<stop stop-color="#252525" offset="0%">
</stop>
<stop stop-color="#000000" offset="100%">
</stop>
</linearGradient>
</defs>
<g transform="translate(334,549)" id="id-female-6.6_base_4-46">
<polygon points="561 754 565 871 565 881 537 893 533 897 535 901 532 909 543 910 597 864" fill="#560304" id="id-female-6.6_base_4-47">
</polygon>
<polygon points="537 282 539 246 535 195 529 158 522 137 484 118 440 111 212 111 188 113 157 123 121 139 111 186 108 221 109 290" fill="url(#id-female-6.6_base_4-0)" id="id-female-6.6_base_4-47">
</polygon>
<polygon points="467 393 474 506 503 589 537 672 556 728 561 754 546 794 552 851 551 861 552 874 556 885 567 882 568 866 570 860 570 843 571 834 576 843 576 859 579 864 573 874 571 884 544 903 541 916 582 901 597 864 607 852 600 821 597 716 589 695 582 655 569 523 544 425" fill="url(#id-female-6.6_base_4-1)" id="id-female-6.6_base_4-47">
</polygon>
<polygon points="546 794 552 851 551 861 552 874 556 885 567 882 568 866 570 860 570 843 571 834 576 843 576 859 579 864 573 874 571 884 544 903 541 916 582 901 597 864 583 871 588 855 573 815 561 823" fill="url(#id-female-6.6_base_4-2)" id="id-female-6.6_base_4-47">
</polygon>
<polygon points="552 851 551 861 552 874 556 887 567 884 568 866 570 860 558 860" fill="#8a2c25" id="id-female-6.6_base_4-47">
</polygon>
<polygon points="544 906 541 916 582 901 571 889" fill="#92352a" id="id-female-6.6_base_4-47">
</polygon>
<polygon points="561 754 548 789 566 819 586 806" fill="#bd8171" id="id-female-6.6_base_4-47">
</polygon>
<polygon points="486 648 477 599 453 529 440 504 437 490 439 460 449 402 456 340 188 343 198 411 202 493 162 596 153 638 266 693 319 721 386 693" fill="url(#id-female-6.6_base_4-3)" id="id-female-6.6_base_4-47">
</polygon>
<polygon points="486 648 477 599 453 529 440 504 437 490 439 460 449 402 456 340 296 353 376 634" fill="#d06f45" id="id-female-6.6_base_4-47">
</polygon>
<g transform="translate(188,0)" id="id-female-6.6_base_4-56">
<polygon points="274 114 253 111 232 100 201 76 188 58 184 1 93 1 88 64 25 111 1 113 103 123 121 135 134 138 149 121 161 117 187 119 225 114" fill="#d37245" id="id-female-6.6_base_4-47">
</polygon>
<polygon points="201 76 188 58 185 12 175 57 155 111 185 73" fill="#eb9e6d" id="id-female-6.6_base_4-47">
</polygon>
<polygon points="149 1 93 1 88 64 108 126 121 135 133 138" fill="#c1663d" id="id-female-6.6_base_4-47">
</polygon>
<polygon points="116 102 120 113 118 115 136 135 150 119 164 71 125 108" fill="#b65c38" id="id-female-6.6_base_4-60">
</polygon>
<polygon points="121 127 133 138 145 124" fill="#ac3f1f" id="id-female-6.6_base_4-61">
</polygon>
<polygon points="136 98 164 71 175 57 186 17 134 51" fill="#da854f" id="id-female-6.6_base_4-62">
</polygon>
<polygon points="97 96 116 80 164 60 178 48 186 17 184 1 93 1 88 64 45 96" fill="#a14f27" opacity="0.654" id="id-female-6.6_base_4-47">
</polygon>
<polygon points="186 17 184 1 93 1 88 64 45 96 66 96" fill="url(#id-female-6.6_base_4-4)" opacity="0.467" id="id-female-6.6_base_4-47">
</polygon>
<polygon points="123 58 176 23 186 17 184 1 93 1 91 22 108 55" fill="#381404" opacity="0.434" id="id-female-6.6_base_4-47">
</polygon>
</g>
<polygon points="41 844 33 856 36 895 64 915 84 911 83 903 71 898 72 892 63 884 52 849" fill="url(#id-female-6.6_base_4-5)" id="id-female-6.6_base_4-47">
</polygon>
<polygon points="315 152 285 173 320 188 357 166" fill="#faaf86" id="id-female-6.6_base_4-67">
</polygon>
<polygon points="327 150 370 130 342 127" fill="#d5774a" id="id-female-6.6_base_4-68">
</polygon>
<polygon points="301 142 303 148 243 131 240 119 276 119" fill="#d5774a" id="id-female-6.6_base_4-69">
</polygon>
<polygon points="159 149 206 123 269 123 303 144 297 118 188 113 157 123 121 139" fill="url(#id-female-6.6_base_4-6)" id="id-female-6.6_base_4-47">
</polygon>
<polygon points="157 123 121 139 153 167 196 134" fill="#ffbba2" id="id-female-6.6_base_4-47">
</polygon>
<polygon points="89 584 77 541 62 551 45 658 34 712 25 741 25 762 10 817 0 845 14 870 25 901 58 919 72 919 69 913 61 905 50 899 37 874 37 852 43 845 52 855 50 887 56 901 64 905 66 901 66 882 72 836 72 800 69 781 64 773 66 735 85 684 121 599 162 510" fill="url(#id-female-6.6_base_4-7)" id="id-female-6.6_base_4-47">
</polygon>
<polygon points="89 584 77 541 62 551 45 658 48 715 121 599 162 510" fill="#d37347" id="id-female-6.6_base_4-47">
</polygon>
<polygon points="55 843 45 827 37 848 17 852 8 836 5 851 0 845 14 870 25 901 58 919 72 919 69 913 61 905 50 899 37 874 37 852 43 845 52 855 50 887 56 901 64 905 66 901 66 882 72 836" fill="#d16753" id="id-female-6.6_base_4-47">
</polygon>
<polygon points="53 882 52 892 56 901 64 905 66 901 66 882 67 876" fill="#b24b40" id="id-female-6.6_base_4-47">
</polygon>
<polygon points="25 901 58 919 72 919 62 909 37 895" fill="#b44d41" id="id-female-6.6_base_4-47">
</polygon>
<polygon points="160 467 145 488 108 578 45 777 48 797 64 773 66 735 85 684 121 599 162 510" fill="#b04c25" id="id-female-6.6_base_4-47">
</polygon>
<polygon points="169 1211 277 1211 282 1183 281 1150 284 1127 286 1114 285 1063 293 972 306 866 311 792 309 768 323 771 337 768 333 817 333 855 339 924 346 1008 348 1113 351 1130 353 1176 361 1211 461 1211 458 1191 456 1170 460 1133 461 1082 505 905 516 839 518 826 512 762 503 706 486 648 482 629 386 690 318 718 266 690 184 629 153 637 132 731 119 781 118 813 123 862 131 916 166 1094 176 1179" fill="url(#id-female-6.6_base_4-8)" id="id-female-6.6_base_4-47">
</polygon>
<polygon points="463 664 416 771 400 819 392 1125 359 1178 398 1204 441 1153 461 1082 505 905 516 839 518 826 515 789 490 714" fill="url(#id-female-6.6_base_4-9)" id="id-female-6.6_base_4-47">
</polygon>
<polygon points="422 1160 395 1199 365 1171 401 1149 384 1120 391 983 411 786 416 771 448 697 454 1013 445 1116 407 1149" fill="url(#id-female-6.6_base_4-10)" id="id-female-6.6_base_4-80">
</polygon>
<polygon points="121 139 111 186 108 221 109 290 96 438 89 464 69 510 89 585 162 510 167 425 162 241" fill="url(#id-female-6.6_base_4-11)" id="id-female-6.6_base_4-47">
</polygon>
<polygon points="101 466 103 488 106 510 160 447 179 359 164 232 187 184 186 179 132 181 161 234 161 321 149 376 151 384 123 461 114 466" fill="url(#id-female-6.6_base_4-12)" id="id-female-6.6_base_4-82">
</polygon>
<polygon points="96 438 89 464 69 510 51 621 101 520 96 476" fill="#ffaf88" id="id-female-6.6_base_4-47">
</polygon>
<polygon points="96 451 128 365 134 316 121 139 111 186 108 221 109 290 96 438" fill="#c5673b" id="id-female-6.6_base_4-47">
</polygon>
<polygon points="184 241 177 248 162 225 138 289 161 321 170 375 161 420 151 411 162 510 167 425 188 343" fill="url(#id-female-6.6_base_4-13)" id="id-female-6.6_base_4-47">
</polygon>
<polygon points="284 1127 286 1114 285 1063 293 972 306 866 311 792 309 768 323 771 337 768 333 817 333 855 339 924 346 1008 375 889 416 771 463 664 490 714 515 790 512 762 503 706 486 648 477 599 471 583 420 650 316 720 201 654 244 742 264 824 275 994" fill="url(#id-female-6.6_base_4-14)" id="id-female-6.6_base_4-47">
</polygon>
<polygon points="298 930 306 866 311 792 309 768 323 771 337 768 333 817 333 855 336 894 347 826 360 784 378 733 388 687 321 739 254 687 267 736 291 821" fill="url(#id-female-6.6_base_4-15)" id="id-female-6.6_base_4-47">
</polygon>
<polygon points="348 1093 348 1113 351 1130 353 1176 361 1211 461 1211 439 1155 422 1136 403 1148 429 1168 400 1202 370 1170 382 1125" fill="url(#id-female-6.6_base_4-16)" id="id-female-6.6_base_4-47">
</polygon>
<polygon points="10 855 8 836 5 851 0 845 14 870" fill="#af4a3e" id="id-female-6.6_base_4-47">
</polygon>
<polygon points="520 500 516 520 544 629 474 500 490 399" fill="url(#id-female-6.6_base_4-17)" id="id-female-6.6_base_4-90">
</polygon>
<polygon points="461 1211 458 1191 456 1170 460 1133 461 1082 439 1155 450 1211" fill="url(#id-female-6.6_base_4-18)" id="id-female-6.6_base_4-47">
</polygon>
<polygon points="220 1149 259 1115 240 1063 232 973 266 819 240 713 201 661 158 650 201 784 183 925 170 1083" fill="url(#id-female-6.6_base_4-19)" id="id-female-6.6_base_4-92">
</polygon>
<polygon points="169 1211 277 1211 282 1183 281 1150 284 1127 286 1114 286 1098 226 1211 207 1211 196 1121 173 1078 150 1014 166 1094 176 1179" fill="url(#id-female-6.6_base_4-20)" id="id-female-6.6_base_4-47">
</polygon>
<polygon points="173 1078 183 924 150 1014" fill="#c56242" id="id-female-6.6_base_4-47">
</polygon>
<polygon points="169 1211 239 1211 230 1196 204 1175 173 1150 176 1179" fill="#8e332e" opacity="0.574" id="id-female-6.6_base_4-47">
</polygon>
<polygon points="221 1130 240 1097 224 1063 224 983 240 804 217 698 190 668 212 771 212 910 190 998 181 1094" fill="url(#id-female-6.6_base_4-21)" id="id-female-6.6_base_4-92">
</polygon>
<polygon points="217 795 221 692 200 667 169 658 200 737" fill="#f09c6b" id="id-female-6.6_base_4-97">
</polygon>
<polygon points="511 476 492 419 481 447 484 356 521 274 533 417" fill="url(#id-female-6.6_base_4-22)" id="id-female-6.6_base_4-98">
</polygon>
<polygon points="569 523 544 425 542 346 537 282 539 246 535 195 529 158 522 137 494 161 419 158 471 211 516 290 525 411 511 477 518 507 535 462 562 543" fill="url(#id-female-6.6_base_4-23)" id="id-female-6.6_base_4-47">
</polygon>
<polygon points="486 389 533 243 501 167 464 207 451 247 463 265" fill="url(#id-female-6.6_base_4-24)" id="id-female-6.6_base_4-100">
</polygon>
<polygon points="473 490 474 506 503 589 537 672 556 728 561 754 567 712 543 623" fill="#ae522f" id="id-female-6.6_base_4-47">
</polygon>
<polygon points="460 328 466 378 474 506 490 425 486 392 469 274 479 230 461 260 454 251" fill="url(#id-female-6.6_base_4-25)" id="id-female-6.6_base_4-47">
</polygon>
<polygon points="440 504 437 490 439 460 449 402 456 340 458 328 325 282 188 343 198 411 202 493 162 596 157 621 161 633 169 599 173 570 204 506 202 458 217 402 286 365 321 352 353 360 422 402 431 493 437 520" fill="url(#id-female-6.6_base_4-26)" id="id-female-6.6_base_4-47">
</polygon>
<polygon points="451 385 456 340 458 328 364 340 330 308 268 343 188 343 194 379 262 368 312 343 335 340 381 368" fill="url(#id-female-6.6_base_4-27)" id="id-female-6.6_base_4-47">
</polygon>
<polygon points="286 328 306 310 330 274 453 252 464 205 421 156 317 204 219 165 210 154 188 180" fill="url(#id-female-6.6_base_4-28)" id="id-female-6.6_base_4-105">
</polygon>
<path d="M 422 195 L 405 190 C 377 190 357 198 343 214 C 329 230 322 250 323 276 C 324 301 331 320 345 333 C 365 351 384 356 405 356 C 425 356 444 347 450 342 C 454 339 457 335 460 328 C 463 323 466 317 467 308 C 469 294 466 276 457 254 L 422 195 Z" fill="url(#id-female-6.6_base_4-29)" id="id-female-6.6_base_4-106">
</path>
<path d="M 422 195 L 417 175 C 386 188 366 196 358 201 C 355 203 351 206 348 208 C 348 209 381 253 448 342 C 454 338 459 332 463 324 C 469 310 469 301 469 293 C 469 287 465 275 459 257 L 422 195 Z" fill="url(#id-female-6.6_base_4-30)" id="id-female-6.6_base_4-106">
</path>
<path d="M 375 226 C 338 253 343 276 343 284 C 343 291 353 319 371 335 C 379 342 422 349 447 331 C 468 316 472 294 458 265 C 427 221 400 208 375 226 Z" fill="url(#id-female-6.6_base_4-31)" opacity="0.282" id="id-female-6.6_base_4-106">
</path>
<path d="M 272 205 C 260 199 243 200 221 209 C 187 227 169 258 168 303 C 167 319 184 342 190 346 C 197 351 212 356 239 353 C 257 351 272 344 284 333 C 303 312 312 288 309 260 C 305 217 291 214 272 205 Z" fill="url(#id-female-6.6_base_4-32)" id="id-female-6.6_base_4-109">
</path>
<path d="M 340 285 C 333 252 328 240 326 248 C 324 254 323 263 323 276 C 324 301 331 320 345 333 C 365 351 382 356 404 356 C 425 356 444 347 450 342 C 456 337 465 325 468 308 C 472 290 465 276 463 268 C 461 263 460 259 458 255 L 442 290 L 399 304 L 366 300 L 340 285 Z" fill="url(#id-female-6.6_base_4-33)" id="id-female-6.6_base_4-106">
</path>
<path d="M 153 637 L 149 654 L 132 731 L 130 739 C 133 730 135 723 137 718 C 140 709 147 691 149 680 C 151 671 155 655 161 633 L 172 570 L 162 596 L 153 637 Z" fill="#7d362e" id="id-female-6.6_base_4-47">
</path>
<path d="M 259 203 C 254 199 240 185 217 163 L 210 153 L 186 180 C 192 211 192 231 186 239 C 175 256 168 277 168 303 C 168 324 190 352 239 344 C 252 342 274 217 259 203 Z" fill="#e39165" id="id-female-6.6_base_4-109">
</path>
<polygon points="175 565 203 550 234 558 241 520 203 455 203 507" fill="#b04924" id="id-female-6.6_base_4-113">
</polygon>
<polygon points="241 442 241 518 229 556 233 629 266 657 316 707 381 659 395 629 364 504 350 504 301 380" fill="url(#id-female-6.6_base_4-34)" id="id-female-6.6_base_4-114">
</polygon>
<polygon points="432 626 427 589 407 518 414 505 450 568 470 618" fill="url(#id-female-6.6_base_4-35)" id="id-female-6.6_base_4-115">
</polygon>
<polygon points="302 376 254 442 254 546 302 590 364 568 364 504 350 504 376 454 345 400" fill="url(#id-female-6.6_base_4-36)" id="id-female-6.6_base_4-114">
</polygon>
<polygon points="317 480 342 436 319 413 300 447" fill="#da7b4e" id="id-female-6.6_base_4-117">
</polygon>
<polygon points="304 541 318 507 329 541 314 549" fill="#d17045" id="id-female-6.6_base_4-118">
</polygon>
<polygon points="306 543 316 578 329 541" fill="#e99a65" id="id-female-6.6_base_4-119">
</polygon>
<path d="M 178 333 C 179 334 180 336 182 338 C 184 342 186 343 189 346 C 190 347 197 351 206 353 C 215 354 226 355 239 353 C 257 351 272 344 284 333 C 293 322 299 313 302 305 C 304 301 307 293 309 277 C 310 274 310 268 309 260 L 228 277 L 207 295 L 178 333 Z" fill="url(#id-female-6.6_base_4-37)" id="id-female-6.6_base_4-109">
</path>
<polygon points="306 543 308 550 324 556 329 541" fill="#e9a376" id="id-female-6.6_base_4-119">
</polygon>
<polygon points="308 543 318 525 323 542 314 548" fill="#8f4427" id="id-female-6.6_base_4-122">
</polygon>
<polygon points="152 641 162 596 176 561 185 617 214 602 246 628 323 690 404 628 423 605 454 605 470 577 477 599 482 629 388 689 337 768 323 771 309 768 259 688 175 639 142 688" fill="url(#id-female-6.6_base_4-38)" opacity="0.442" id="id-female-6.6_base_4-123">
</polygon>
<polygon points="490 154 522 137 484 118 412 123" fill="url(#id-female-6.6_base_4-39)" id="id-female-6.6_base_4-47">
</polygon>
<polygon points="573 785 588 829 602 858 607 852 600 821 597 716 576 763" fill="#e19271" id="id-female-6.6_base_4-47">
</polygon>
<polygon points="574 722 589 695 582 655 533 542" fill="url(#id-female-6.6_base_4-40)" id="id-female-6.6_base_4-47">
</polygon>
<polygon points="172 640 241 690 309 768 323 771 338 768 395 706 469 661 404 650 313 706 217 629" fill="url(#id-female-6.6_base_4-41)" opacity="0.571" id="id-female-6.6_base_4-127">
</polygon>
<g transform="translate(188,270)" id="id-female-6.6_base_4-128">
<polygon points="207 13 207 10 217 2 220 2 239 21 258 39 260 42 250 51 246 52 226 33" fill="url(#id-female-6.6_base_4-42)" id="id-female-6.6_base_4-129">
</polygon>
<polygon points="208 40 218 50 222 50 240 33 257 13 257 9 247 0 244 1 230 19 209 36" fill="url(#id-female-6.6_base_4-43)" id="id-female-6.6_base_4-130">
</polygon>
<polygon points="1 13 1 10 10 2 15 2 32 21 50 39 52 42 42 52 38 52 19 33" fill="url(#id-female-6.6_base_4-44)" id="id-female-6.6_base_4-129">
</polygon>
<polygon points="0 43 10 53 14 53 33 35 50 15 50 11 40 3 36 4 19 23 1 39" fill="url(#id-female-6.6_base_4-45)" id="id-female-6.6_base_4-130">
</polygon>
</g>
</g>
<defs>
<linearGradient x1="68%" y1="4%" x2="68%" y2="39%" id="id-female-6.8_face_4-0">
<stop stop-color="#cf915b" offset="0%">
</stop>
<stop stop-color="#a2582e" offset="100%">
</stop>
</linearGradient>
<linearGradient x1="63%" y1="29%" x2="43%" y2="65%" id="id-female-6.8_face_4-1">
<stop stop-color="#ef9d68" offset="0%">
</stop>
<stop stop-color="#ca8252" offset="100%">
</stop>
</linearGradient>
<linearGradient x1="60%" y1="73%" x2="11%" y2="32%" id="id-female-6.8_face_4-2">
<stop stop-color="#f0a97b" offset="0%">
</stop>
<stop stop-color="#e7976b" offset="100%">
</stop>
</linearGradient>
<linearGradient x1="79%" y1="15%" x2="31%" y2="87%" id="id-female-6.8_face_4-3">
<stop stop-color="#d98757" offset="0%">
</stop>
<stop stop-color="#e99f6f" offset="100%">
</stop>
</linearGradient>
<radialGradient cx="50%" cy="46%" r="72%" id="id-female-6.8_face_4-4" fx="50%" fy="46%" gradientTransform="translate(0.5,0.465) scale(0.889,1) rotate(90) scale(1,1) translate(-0.5,-0.465)">
<stop stop-color="#fbaf7c" offset="0%">
</stop>
<stop stop-color="#8e4218" offset="100%">
</stop>
</radialGradient>
<linearGradient x1="32%" y1="4%" x2="54%" y2="75%" id="id-female-6.8_face_4-5">
<stop stop-color="#b5673b" offset="0%">
</stop>
<stop stop-color="#d69065" offset="38%">
</stop>
<stop stop-color="#cd7f54" offset="100%">
</stop>
</linearGradient>
<linearGradient x1="11%" y1="50%" x2="57%" y2="50%" id="id-female-6.8_face_4-6">
<stop stop-color="#d88a61" offset="0%">
</stop>
<stop stop-color="#f4a678" offset="100%">
</stop>
</linearGradient>
<linearGradient x1="50%" y1="0%" x2="50%" y2="100%" id="id-female-6.8_face_4-7">
<stop stop-color="#df8a54" offset="0%">
</stop>
<stop stop-color="#bd693b" offset="100%">
</stop>
</linearGradient>
<linearGradient x1="50%" y1="0%" x2="50%" y2="65%" id="id-female-6.8_face_4-8">
<stop stop-color="#e8a174" offset="0%">
</stop>
<stop stop-color="#f9bb92" offset="100%">
</stop>
</linearGradient>
<linearGradient x1="93%" y1="38%" x2="20%" y2="70%" id="id-female-6.8_face_4-9">
<stop stop-color="#eba776" offset="0%">
</stop>
<stop stop-color="#f5bf98" offset="60%">
</stop>
<stop stop-color="#ca8252" offset="100%">
</stop>
</linearGradient>
<linearGradient x1="17%" y1="66%" x2="58%" y2="41%" id="id-female-6.8_face_4-10">
<stop stop-color="#f3ba91" offset="0%">
</stop>
<stop stop-color="#fcdfc9" offset="100%">
</stop>
</linearGradient>
<linearGradient x1="25%" y1="46%" x2="50%" y2="58%" id="id-female-6.8_face_4-11">
<stop stop-color="#b55e35" offset="0%">
</stop>
<stop stop-color="#c46a3c" offset="100%">
</stop>
</linearGradient>
<linearGradient x1="75%" y1="15%" x2="41%" y2="68%" id="id-female-6.8_face_4-12">
<stop stop-color="#f0aa7e" offset="0%">
</stop>
<stop stop-color="#f5bb97" offset="100%">
</stop>
</linearGradient>
<linearGradient x1="43%" y1="47%" x2="85%" y2="53%" id="id-female-6.8_face_4-13">
<stop stop-color="#903f1b" offset="0%">
</stop>
<stop stop-color="#b45c2e" offset="100%">
</stop>
</linearGradient>
<linearGradient x1="65%" y1="43%" x2="13%" y2="55%" id="id-female-6.8_face_4-14">
<stop stop-color="#7b3014" offset="0%">
</stop>
<stop stop-color="#813113" offset="100%">
</stop>
</linearGradient>
<linearGradient x1="85%" y1="61%" x2="16%" y2="50%" id="id-female-6.8_face_4-15">
<stop stop-color="#e3956c" offset="0%">
</stop>
<stop stop-color="#d0825c" offset="100%">
</stop>
</linearGradient>
<linearGradient x1="50%" y1="34%" x2="72%" y2="84%" id="id-female-6.8_face_4-16">
<stop stop-color="#c06e40" offset="0%">
</stop>
<stop stop-color="#d7795c" offset="42%">
</stop>
<stop stop-color="#d07e52" offset="59%">
</stop>
<stop stop-color="#db885d" offset="100%">
</stop>
</linearGradient>
<linearGradient x1="50%" y1="50%" x2="50%" y2="78%" id="id-female-6.8_face_4-17">
<stop stop-color="#f3b28c" offset="0%">
</stop>
<stop stop-color="#ec8c70" offset="100%">
</stop>
</linearGradient>
<linearGradient x1="36%" y1="33%" x2="50%" y2="71%" id="id-female-6.8_face_4-18">
<stop stop-color="#d26945" offset="0%">
</stop>
<stop stop-color="#a63821" offset="100%">
</stop>
</linearGradient>
<linearGradient x1="0%" y1="50%" x2="100%" y2="50%" id="id-female-6.8_face_4-19">
<stop stop-color="#c46f40" offset="0%">
</stop>
<stop stop-color="#df9f77" offset="42%">
</stop>
<stop stop-color="#c36f3f" offset="100%">
</stop>
</linearGradient>
<linearGradient x1="50%" y1="57%" x2="-8%" y2="54%" id="id-female-6.8_face_4-20">
<stop stop-color="#9c4a26" offset="0%">
</stop>
<stop stop-color="#662a11" offset="100%">
</stop>
</linearGradient>
<linearGradient x1="14%" y1="61%" x2="23%" y2="56%" id="id-female-6.8_face_4-21">
<stop stop-color="#ab4b21" offset="0%">
</stop>
<stop stop-color="#b45c31" offset="100%">
</stop>
</linearGradient>
<linearGradient x1="48%" y1="50%" x2="55%" y2="57%" id="id-female-6.8_face_4-22">
<stop stop-color="#e1885b" offset="0%">
</stop>
<stop stop-color="#b8603b" offset="100%">
</stop>
</linearGradient>
<linearGradient x1="50%" y1="0%" x2="43%" y2="121%" id="id-female-6.8_face_4-23">
<stop stop-color="#f3d2ba" offset="0%">
</stop>
<stop stop-color="#eeab96" offset="100%">
</stop>
</linearGradient>
<linearGradient x1="100%" y1="37%" x2="80%" y2="57%" id="id-female-6.8_face_4-24">
<stop stop-color="#9e421e" offset="0%">
</stop>
<stop stop-color="#cf784a" offset="100%">
</stop>
</linearGradient>
<linearGradient x1="55%" y1="43%" x2="43%" y2="53%" id="id-female-6.8_face_4-25">
<stop stop-color="#be663b" offset="0%">
</stop>
<stop stop-color="#b3592e" offset="100%">
</stop>
</linearGradient>
<linearGradient x1="72%" y1="4%" x2="28%" y2="76%" id="id-female-6.8_face_4-26">
<stop stop-color="#b15a37" offset="0%">
</stop>
<stop stop-color="#7d341b" offset="100%">
</stop>
</linearGradient>
<linearGradient x1="22%" y1="50%" x2="83%" y2="50%" id="id-female-6.8_face_4-27">
<stop stop-color="#c2805e" offset="0%">
</stop>
<stop stop-color="#903a22" offset="100%">
</stop>
</linearGradient>
<linearGradient x1="82%" y1="54%" x2="50%" y2="59%" id="id-female-6.8_face_4-28">
<stop stop-color="#843818" offset="0%">
</stop>
<stop stop-color="#ba663f" offset="100%">
</stop>
</linearGradient>
<linearGradient x1="25%" y1="53%" x2="75%" y2="52%" id="id-female-6.8_face_4-29">
<stop stop-color="#e1bb9f" offset="0%">
</stop>
<stop stop-color="#c08666" offset="100%">
</stop>
</linearGradient>
<linearGradient x1="50%" y1="0%" x2="50%" y2="80%" id="id-female-6.8_face_4-30">
<stop stop-color="#b2401e" offset="0%">
</stop>
<stop stop-color="#c84d2c" offset="100%">
</stop>
</linearGradient>
<linearGradient x1="50%" y1="0%" x2="50%" y2="100%" id="id-female-6.8_face_4-31">
<stop stop-color="#ec5f3d" offset="0%">
</stop>
<stop stop-color="#d65032" offset="100%">
</stop>
</linearGradient>
<linearGradient x1="109%" y1="50%" x2="23%" y2="43%" id="id-female-6.8_face_4-32">
<stop stop-color="#b55d33" offset="0%">
</stop>
<stop stop-color="#c18055" offset="100%">
</stop>
</linearGradient>
</defs>
<g transform="translate(561,332)" id="id-female-6.8_face_4-33">
<g transform="translate(172,115)" id="id-female-6.8_face_4-34">
<polygon points="14 1 18 0 25 8 27 21 24 41 14 66 0 68" fill="url(#id-female-6.8_face_4-0)" id="id-female-6.8_face_4-35">
</polygon>
<polygon points="12 48 19 50 23 42 26 24 20 12 12 22" fill="#cb8154" id="id-female-6.8_face_4-36">
</polygon>
<polygon points="11 21 17 10 20 5 24 7 26 24 20 36 18 31 20 16 9 29" fill="#8e4015" id="id-female-6.8_face_4-37">
</polygon>
<polygon points="10 28 11 38 8 45 13 49 19 38 13 24" fill="#7d3102" id="id-female-6.8_face_4-38">
</polygon>
<polygon points="12 18 17 17 18 9" fill="#5b1c00" id="id-female-6.8_face_4-39">
</polygon>
<polygon points="18 50 10 51 8 50 5 61 12 63 14 61" fill="#e68969" id="id-female-6.8_face_4-40">
</polygon>
</g>
<g transform="translate(0,113)" id="id-female-6.8_face_4-41">
<polygon points="13 0 5 0 0 13 4 36 13 63 25 67" fill="#d07c59" id="id-female-6.8_face_4-42">
</polygon>
<polygon points="5 9 0 13 4 36 13 63 25 67 13 24" fill="#ca7f53" id="id-female-6.8_face_4-42">
</polygon>
<polygon points="18 46 14 47 7 32 11 26 4 9 6 5 16 20 17 29" fill="#ab5e32" id="id-female-6.8_face_4-44">
</polygon>
<polygon points="13 62 20 62 18 49 11 53" fill="#ae6135" id="id-female-6.8_face_4-45">
</polygon>
<polygon points="25 68 13 63 20 62 17 46 14 47 13 44 14 29 17 26 14 22 10 19 10 11 17 20" fill="#7d3001" id="id-female-6.8_face_4-46">
</polygon>
<polygon points="13 9 4 3 5 0 12 0" fill="#e19b77" id="id-female-6.8_face_4-47">
</polygon>
</g>
<path d="M 29 199 C 21 167 16 144 15 130 C 4 44 33 0 103 0 C 180 0 191 63 186 119 C 183 157 173 191 170 202 C 169 206 167 213 164 217 C 143 234 127 244 115 249 L 81 249 C 71 246 56 236 36 218 C 34 215 32 208 29 199 Z" fill="#d1865a" opacity="0.966" id="id-female-6.8_face_4-48">
</path>
<polygon points="36 106 25 118 37 39 104 9 160 39 166 105 106 122" fill="url(#id-female-6.8_face_4-1)" id="id-female-6.8_face_4-49">
</polygon>
<polygon points="120 178 110 136 130 128 178 139 169 176 139 192" fill="url(#id-female-6.8_face_4-2)" id="id-female-6.8_face_4-50">
</polygon>
<polygon points="169 161 135 146 164 134 176 140" fill="#f6aa7a" id="id-female-6.8_face_4-51">
</polygon>
<polygon points="169 161 156 155 176 140" fill="url(#id-female-6.8_face_4-3)" id="id-female-6.8_face_4-51">
</polygon>
<path d="M 19 155 C 17 145 16 137 15 130 C 4 44 33 0 103 0 C 180 0 191 63 186 119 C 185 128 184 136 183 145 L 148 128 L 142 124 L 162 99 C 162 80 157 59 148 36 C 125 28 107 26 95 28 C 83 31 66 39 45 53 L 39 91 L 28 114 L 42 106 L 19 155 Z" fill="url(#id-female-6.8_face_4-4)" opacity="0.966" id="id-female-6.8_face_4-48">
</path>
<polygon points="77 145 37 128 23 149 57 218 88 200" fill="url(#id-female-6.8_face_4-5)" id="id-female-6.8_face_4-54">
</polygon>
<polygon points="69 192 59 171 70 146 85 132 94 140 87 186" fill="#d99168" id="id-female-6.8_face_4-55">
</polygon>
<polygon points="85 180 68 192 72 205 130 208 138 197 114 170" fill="url(#id-female-6.8_face_4-6)" id="id-female-6.8_face_4-56">
</polygon>
<polygon points="74 204 70 202 57 211 76 239 132 235 143 205 136 197 125 204" fill="url(#id-female-6.8_face_4-7)" id="id-female-6.8_face_4-57">
</polygon>
<polygon points="91 200 95 178 107 178 112 200" fill="url(#id-female-6.8_face_4-8)" id="id-female-6.8_face_4-58">
</polygon>
<path d="M 38 101 L 64 86 C 69 68 73 57 76 53 C 79 50 94 46 119 41 L 151 70 L 126 114 L 81 113 L 73 99 L 38 101 Z" fill="url(#id-female-6.8_face_4-9)" id="id-female-6.8_face_4-59">
</path>
<polygon points="156 99 123 78 105 98 127 111" fill="url(#id-female-6.8_face_4-10)" id="id-female-6.8_face_4-60">
</polygon>
<polygon points="91 200 93 192 102 194 110 193 112 200" fill="#ffd9b0" id="id-female-6.8_face_4-58">
</polygon>
<polygon points="74 218 67 215 74 207 130 206 130 213 119 213" fill="#eda177" id="id-female-6.8_face_4-62">
</polygon>
<polygon points="80 211 69 221 89 231 120 232 129 227 123 209" fill="url(#id-female-6.8_face_4-11)" id="id-female-6.8_face_4-63">
</polygon>
<polygon points="141 204 117 180 128 170 150 185" fill="url(#id-female-6.8_face_4-12)" id="id-female-6.8_face_4-64">
</polygon>
<polygon points="28 151 39 132 64 125 49 107 32 109 23 145" fill="#b6663a" id="id-female-6.8_face_4-65">
</polygon>
<polygon points="80 110 93 132 80 138 34 131 27 127 44 119" fill="url(#id-female-6.8_face_4-13)" id="id-female-6.8_face_4-66">
</polygon>
<polygon points="30 117 27 127 45 106 61 121 79 130 56 105 40 104" fill="url(#id-female-6.8_face_4-14)" id="id-female-6.8_face_4-67">
</polygon>
<polygon points="91 140 73 164 89 164 121 175 126 171 133 174 113 148" fill="url(#id-female-6.8_face_4-15)" id="id-female-6.8_face_4-68">
</polygon>
<polygon points="84 181 93 185 109 186 117 182 120 177" fill="#642c18" opacity="0.599" id="id-female-6.8_face_4-69">
</polygon>
<polygon points="123 135 114 141 123 168 123 174 117 180 81 173 80 170 81 166 90 138 86 133 101 127" fill="url(#id-female-6.8_face_4-16)" id="id-female-6.8_face_4-70">
</polygon>
<polygon points="79 111 99 104 121 113 107 143 98 143" fill="#e49061" id="id-female-6.8_face_4-71">
</polygon>
<polygon points="101 119 96 132 96 153 83 175 120 176 107 154 107 132" fill="url(#id-female-6.8_face_4-17)" id="id-female-6.8_face_4-72">
</polygon>
<polygon points="90 163 83 175 99 175" fill="#df765d" id="id-female-6.8_face_4-72">
</polygon>
<path d="M 80 170 L 80 178 L 84 181 L 90 180 L 109 180 L 116 181 C 118 180 120 178 121 176 C 122 174 122 172 122 170 L 119 176 C 114 174 109 172 103 171 C 98 171 92 172 85 174 L 84 173 L 95 154 L 93 156 L 80 170 Z" fill="url(#id-female-6.8_face_4-18)" id="id-female-6.8_face_4-74">
</path>
<path d="M 105 179 C 106 177 109 176 111 176 C 113 176 116 176 119 176 C 115 174 111 173 107 172 C 106 172 105 174 105 179 Z" fill="#ce6065" id="id-female-6.8_face_4-74">
</path>
<path d="M 87 180 L 98 180 C 96 177 94 176 91 176 C 89 176 87 177 87 180 Z" fill="#60140d" id="id-female-6.8_face_4-76">
</path>
<path d="M 105 180 L 113 181 C 115 178 114 176 112 176 C 109 176 106 177 105 180 Z" fill="#5b120b" id="id-female-6.8_face_4-77">
</path>
<polygon points="88 220 94 227 111 227 116 218" fill="#621608" id="id-female-6.8_face_4-78">
</polygon>
<path d="M 76 233 C 85 229 94 226 103 226 C 112 226 121 229 130 233 L 117 246 L 86 246 L 76 233 Z" fill="url(#id-female-6.8_face_4-19)" id="id-female-6.8_face_4-79">
</path>
<path d="M 113 227 C 117 228 122 230 130 233 L 117 246 L 101 242 L 113 227 Z" fill="#f5b78e" opacity="0.499" id="id-female-6.8_face_4-79">
</path>
<path d="M 94 229 C 99 227 100 227 105 227 C 107 227 109 228 112 228 C 109 233 106 236 104 237 C 96 232 93 229 94 229 Z" fill="#f0ba9f" id="id-female-6.8_face_4-79">
</path>
<polygon points="80 140 73 146 51 147 37 135 46 132 51 138 73 140" fill="url(#id-female-6.8_face_4-20)" id="id-female-6.8_face_4-82">
</polygon>
<path d="M 26 119 L 39 110 L 50 111 L 53 114 L 57 114 L 57 112 L 60 114 L 63 114 L 63 113 L 67 116 L 76 118 L 76 115 L 68 105 C 63 104 59 103 55 102 C 52 102 46 101 39 101 L 26 115 L 26 119 Z" fill="#501c0d" id="id-female-6.8_face_4-83">
</path>
<polygon points="26 119 39 110 43 107 57 105 39 101 26 115" fill="#220f06" id="id-female-6.8_face_4-83">
</polygon>
<polygon points="77 113 73 107 76 107" fill="#501c0d" id="id-female-6.8_face_4-85">
</polygon>
<polygon points="80 114 79 109 81 110" fill="#501c0d" id="id-female-6.8_face_4-86">
</polygon>
<path d="M 29 199 C 21 167 16 144 15 130 C 15 129 28 148 55 188 L 64 222 L 88 242 L 104 239 L 118 242 L 129 230 C 154 219 166 214 164 217 C 143 234 127 244 115 249 L 81 249 C 71 246 56 236 36 218 C 34 215 32 208 29 199 Z" fill="url(#id-female-6.8_face_4-21)" opacity="0.966" id="id-female-6.8_face_4-48">
</path>
<path d="M 118 242 L 129 230 L 147 183 L 167 160 L 172 141 L 186 119 C 183 157 173 191 170 202 C 169 206 167 213 164 217 C 145 232 132 241 125 245 C 122 246 120 245 118 242 Z" fill="url(#id-female-6.8_face_4-22)" opacity="0.966" id="id-female-6.8_face_4-48">
</path>
<polygon points="42 190 29 150 55 188 64 222" fill="#c1673f" opacity="0.966" id="id-female-6.8_face_4-48">
</polygon>
<path d="M 182 70 C 184 81 184 98 184 122 C 176 168 172 195 170 202 C 169 206 167 213 164 217 C 150 228 140 235 134 239 L 163 214 L 179 154 L 179 108 L 175 113 L 168 106 L 182 70 Z" fill="#e58f9b" opacity="0.966" id="id-female-6.8_face_4-48">
</path>
<path d="M 95 166 L 101 168 C 107 166 108 165 107 165 C 104 164 100 164 95 166 Z" fill="#f5aa9c" id="id-female-6.8_face_4-91">
</path>
<polygon points="107 154 100 151 96 154 100 140 97 134 102 130 106 133 104 140" fill="url(#id-female-6.8_face_4-23)" id="id-female-6.8_face_4-92">
</polygon>
<polygon points="108 154 122 169 119 175 115 167 109 170 113 164" fill="#c56443" id="id-female-6.8_face_4-93">
</polygon>
<path d="M 166 131 C 169 130 171 129 172 127 C 173 125 174 121 175 115 L 164 104 L 151 105 L 137 122 L 166 131 Z" fill="url(#id-female-6.8_face_4-24)" id="id-female-6.8_face_4-94">
</path>
<polygon points="123 135 117 140 124 143 131 139" fill="#f3b693" id="id-female-6.8_face_4-95">
</polygon>
<path d="M 111 132 L 124 135 L 168 130 C 165 125 162 121 157 119 C 152 117 147 116 139 117 L 119 109 L 114 118 L 116 122 L 111 132 Z" fill="url(#id-female-6.8_face_4-25)" id="id-female-6.8_face_4-96">
</path>
<polygon points="121 134 134 113 150 109 138 125" fill="url(#id-female-6.8_face_4-26)" id="id-female-6.8_face_4-97">
</polygon>
<path d="M 124 135 C 128 128 134 124 142 123 C 150 122 158 125 168 132 L 124 135 Z" fill="url(#id-female-6.8_face_4-27)" id="id-female-6.8_face_4-98">
</path>
<polygon points="125 143 138 147 153 147 165 134 158 130 127 138" fill="url(#id-female-6.8_face_4-28)" id="id-female-6.8_face_4-99">
</polygon>
<path d="M 128 135 L 126 139 L 151 140 L 160 134 C 155 130 150 128 145 128 C 140 128 134 131 128 135 Z" fill="#e9d5df" id="id-female-6.8_face_4-100">
</path>
<path d="M 130 140 L 133 135 L 150 133 L 156 137 L 160 134 C 155 130 149 128 142 129 C 135 130 130 133 126 139 L 130 140 Z" fill="#000000" opacity="0.295" id="id-female-6.8_face_4-101">
</path>
<polygon points="124 140 143 140 152 140 160 134 158 133 151 138 128 139" fill="url(#id-female-6.8_face_4-29)" id="id-female-6.8_face_4-102">
</polygon>
<polygon points="129 135 128 137 136 138 129 139 124 139 125 138" fill="#9d5133" id="id-female-6.8_face_4-103">
</polygon>
<polygon points="134 130 131 128 142 124 146 127" fill="#edb57f" id="id-female-6.8_face_4-104">
</polygon>
<path d="M 132 134 C 134 137 137 139 142 139 C 148 138 150 135 150 130 C 145 129 141 129 138 129 C 136 130 134 131 132 134 Z" fill="#200c09" id="id-female-6.8_face_4-105">
</path>
<path d="M 135 135 C 135 137 137 138 142 138 C 147 137 149 136 147 133 C 147 134 145 134 143 135 C 141 135 138 135 135 135 Z" fill="#bf0526" id="id-female-6.8_face_4-105">
</path>
<polygon points="139 132 137 132 137 134 141 133 141 132 143 132 143 131 139 131" fill="#b49ebb" id="id-female-6.8_face_4-107">
</polygon>
<path d="M 125 138 C 132 133 138 130 144 130 C 150 130 156 132 163 136 L 171 129 L 162 130 C 154 127 147 127 140 128 C 134 129 129 133 125 138 Z" fill="#200f09" id="id-female-6.8_face_4-108">
</path>
<polygon points="147 145 147 141 143 141" fill="#2d130a" id="id-female-6.8_face_4-109">
</polygon>
<polygon points="150 140 154 143 153 140" fill="#2d130a" id="id-female-6.8_face_4-110">
</polygon>
<polygon points="155 139 162 140 158 136 157 137" fill="#2d130a" id="id-female-6.8_face_4-111">
</polygon>
<polygon points="122 119 130 111 126 118 131 115 133 117 137 112 138 114 142 113 142 112 145 113 155 109 163 108 174 117 174 112 162 99 150 99 129 104" fill="#662913" id="id-female-6.8_face_4-112">
</polygon>
<polygon points="160 105 174 117 174 112 162 99 141 106" fill="#36150e" id="id-female-6.8_face_4-112">
</polygon>
<polygon points="77 210 72 210 72 205 79 205 125 203 132 203 134 206 131 209" fill="#97211c" id="id-female-6.8_face_4-114">
</polygon>
<polygon points="77 209 75 209 76 206 102 200 130 206 131 208" fill="#530c03" id="id-female-6.8_face_4-115">
</polygon>
<path d="M 74 205 C 80 206 84 206 88 206 C 93 206 97 204 102 204 C 107 204 111 206 115 206 C 118 206 122 205 126 204 C 121 200 116 197 111 193 C 110 193 106 194 102 197 C 96 195 93 194 92 194 C 87 197 80 201 74 205 Z" fill="url(#id-female-6.8_face_4-30)" id="id-female-6.8_face_4-116">
</path>
<path d="M 76 209 C 79 211 86 224 103 223 C 119 222 123 211 129 208 C 117 206 117 207 101 208 C 94 209 90 206 76 209 Z" fill="#a13421" id="id-female-6.8_face_4-117">
</path>
<path d="M 76 209 C 78 210 80 215 86 218 C 90 221 118 219 122 215 C 124 212 127 209 129 208 C 117 206 117 207 101 208 C 94 209 90 206 76 209 Z" fill="url(#id-female-6.8_face_4-31)" id="id-female-6.8_face_4-117">
</path>
<path d="M 76 209 C 78 210 80 215 86 218 C 90 221 118 219 122 215 C 124 212 127 209 129 208 C 117 206 118 217 102 218 C 85 219 90 206 76 209 Z" fill="#d04e2f" id="id-female-6.8_face_4-117">
</path>
<path d="M 89 212 C 91 214 94 215 97 214 C 101 213 106 212 113 212 C 109 210 106 210 104 210 C 99 211 96 210 91 211 C 90 211 90 212 89 212 Z" fill="#fa827f" id="id-female-6.8_face_4-120">
</path>
<polygon points="50 128 50 122 64 123 65 128" fill="url(#id-female-6.8_face_4-32)" id="id-female-6.8_face_4-121">
</polygon>
<path d="M 41 126 C 47 123 52 121 57 122 C 62 123 70 126 80 131 C 72 123 63 119 54 119 C 46 120 41 122 41 126 Z" fill="#662917" id="id-female-6.8_face_4-122">
</path>
<polygon points="60 139 79 141 84 137" fill="#f8b291" id="id-female-6.8_face_4-123">
</polygon>
<polygon points="69 138 80 138 80 137 75 134 75 137" fill="#902727" id="id-female-6.8_face_4-124">
</polygon>
<path d="M 47 132 L 50 138 C 56 138 60 139 63 138 C 66 138 70 138 75 137 C 75 136 75 135 75 134 C 71 130 65 129 61 128 C 56 127 51 129 47 132 Z" fill="#d2b3b9" id="id-female-6.8_face_4-125">
</path>
<path d="M 53 131 C 54 135 56 138 61 138 C 66 138 69 136 70 131 C 66 129 62 128 60 128 C 58 128 56 129 53 131 Z" fill="#250b06" id="id-female-6.8_face_4-126">
</path>
<path d="M 57 133 C 55 134 54 135 55 135 C 56 137 58 138 61 138 C 64 138 66 137 68 136 C 68 135 67 133 65 133 C 63 135 60 134 57 133 Z" fill="#920017" id="id-female-6.8_face_4-126">
</path>
<path d="M 47 132 L 49 136 C 54 133 57 132 58 132 C 71 131 75 135 75 134 C 71 130 65 129 61 128 C 56 127 51 129 47 132 Z" fill="#000000" opacity="0.3" id="id-female-6.8_face_4-125">
</path>
<polygon points="57 132 57 130 60 130 60 132" fill="#bda7a9" id="id-female-6.8_face_4-129">
</polygon>
<path d="M 33 131 L 39 135 L 43 134 C 50 131 56 129 61 130 C 66 130 72 132 81 137 C 77 132 72 129 64 128 C 56 126 48 127 41 131 L 33 131 Z" fill="#2c1309" id="id-female-6.8_face_4-130">
</path>
<polygon points="43 137 47 135 50 137" fill="#3a180f" id="id-female-6.8_face_4-131">
</polygon>
<polygon points="50 139 50 143 53 139" fill="#3a180f" id="id-female-6.8_face_4-132">
</polygon>
<polygon points="55 140 58 140 55 145" fill="#3a180f" id="id-female-6.8_face_4-133">
</polygon>
<polygon points="122 107 126 106 120 118" fill="#662913" id="id-female-6.8_face_4-134">
</polygon>
<polygon points="118 108 120 108 118 115 114 118" fill="#662913" id="id-female-6.8_face_4-135">
</polygon>
</g>
<defs>
<linearGradient x1="33%" y1="59%" x2="66%" y2="64%" id="id-female-10_ripped_tights-0">
<stop stop-color="#050e15" offset="0%" stop-opacity="0.81">
</stop>
<stop stop-color="#040d13" offset="11%" stop-opacity="0.379">
</stop>
<stop stop-color="#040d13" offset="19%" stop-opacity="0.151">
</stop>
<stop stop-color="#040d13" offset="28%" stop-opacity="0.329">
</stop>
<stop stop-color="#040b10" offset="41%" stop-opacity="0.741">
</stop>
<stop stop-color="#03090e" offset="59%" stop-opacity="0.74">
</stop>
<stop stop-color="#03080b" offset="70%" stop-opacity="0.221">
</stop>
<stop stop-color="#03070b" offset="79%" stop-opacity="0.133">
</stop>
<stop stop-color="#02070b" offset="89%" stop-opacity="0.332">
</stop>
<stop stop-color="#020609" offset="100%" stop-opacity="0.712">
</stop>
</linearGradient>
</defs>
<g transform="translate(450,1060)" id="id-female-10_ripped_tights-1">
<path d="M 315 72 C 331 189 359 253 401 265 C 402 281 403 298 402 314 C 394 426 347 550 347 571 C 347 626 340 674 347 700 L 347 700 L 245 700 C 231 673 238 628 231 601 C 229 568 229 533 228 499 C 228 446 209 336 219 260 C 246 202 278 140 315 72 Z M 86 54 L 194 258 C 194 258 195 269 196 281 C 188 416 173 470 169 554 C 169 578 171 579 171 604 C 166 624 165 646 167 673 L 167 673 L 162 700 L 53 700 C 56 692 58 681 60 667 C 32 461 4 415 0 271 C 40 271 69 199 86 54 L 86 54 Z M 104 605 L 98 619 L 106 655 L 128 654 L 129 633 L 104 605 Z M 122 575 L 115 585 L 110 601 L 127 616 L 122 575 Z M 117 495 L 103 497 L 103 514 L 109 512 L 104 520 L 106 536 L 116 536 L 117 512 L 117 495 Z M 115 420 L 97 423 L 100 480 L 117 471 L 117 446 L 101 445 L 116 432 L 115 420 Z M 305 370 L 305 380 L 332 392 L 307 396 L 311 435 L 347 444 L 347 428 L 329 425 L 347 420 L 347 404 L 347 377 L 305 370 Z M 109 383 L 99 383 L 98 407 L 110 407 L 109 383 Z M 110 346 L 102 350 L 98 375 L 110 369 L 110 346 Z" fill="url(#id-female-10_ripped_tights-0)" id="id-female-10_ripped_tights-2">
</path>
<path d="M 77 1 C 77 1 95 31 130 90 L 130 90 L 280 90 C 280 90 297 62 332 6 C 332 6 332 6 332 6 L 332 6 C 332 7 336 13 343 24 C 343 24 344 26 345 30 L 345 30 L 294 118 C 294 118 318 111 365 95 C 365 95 366 99 367 107 C 367 107 367 107 367 107 L 367 107 C 365 108 361 109 355 111 L 354 112 C 341 116 318 124 286 134 C 286 134 268 169 232 240 C 232 240 279 207 373 141 C 373 141 374 144 375 149 C 375 149 323 187 220 264 C 215 265 213 266 204 267 C 199 266 196 265 193 264 C 189 260 187 256 185 251 L 185 251 L 27 161 C 27 161 28 159 29 153 C 29 153 79 181 178 238 C 178 238 159 202 122 129 C 122 129 94 121 40 103 L 40 103 L 40 103 C 40 103 41 98 43 90 C 43 90 67 98 114 114 L 114 114 L 66 28 C 66 28 70 19 77 1 Z M 276 100 C 276 100 276 100 276 100 L 276 100 C 273 100 226 100 136 100 C 136 100 140 109 149 126 C 183 141 222 139 260 129 C 260 129 265 119 276 100 Z" fill="#131415" id="id-female-10_ripped_tights-2">
</path>
<g transform="translate(42,179)" fill="#bfbfbf" fill-opacity="0.193" id="id-female-10_ripped_tights-4">
<path d="M 239 132 C 231 134 226 136 226 136 C 224 107 223 92 223 92 L 230 57 C 236 107 239 132 239 132 Z" id="id-female-10_ripped_tights-5">
</path>
<path d="M 232 190 C 242 191 254 193 254 193 C 254 202 254 211 254 218 C 205 401 221 458 221 458 C 210 418 205 379 205 342 C 209 321 230 273 232 190 Z" id="id-female-10_ripped_tights-6">
</path>
<path d="M 44 266 C 29 264 16 262 1 259 C 23 372 39 474 39 474 L 48 413 C 39 391 37 341 44 266 Z" id="id-female-10_ripped_tights-7">
</path>
<path d="M 30 120 C 20 120 3 107 3 107 C 5 84 6 72 6 72 L 16 55 C 18 85 23 107 30 120 Z" id="id-female-10_ripped_tights-8">
</path>
<path d="M 74 118 C 59 100 57 65 57 65 L 61 1 C 100 41 104 80 74 118 Z" id="id-female-10_ripped_tights-9">
</path>
</g>
</g>
<defs>
<linearGradient x1="54%" y1="55%" x2="47%" y2="53%" id="id-female-12_purple_pants-0">
<stop stop-color="#8563ac" offset="0%">
</stop>
<stop stop-color="#d9aefa" offset="37%">
</stop>
<stop stop-color="#ddbbff" offset="62%">
</stop>
<stop stop-color="#b48cd4" offset="100%">
</stop>
</linearGradient>
<linearGradient x1="54%" y1="53%" x2="47%" y2="53%" id="id-female-12_purple_pants-1">
<stop stop-color="#b68cd4" offset="0%">
</stop>
<stop stop-color="#dbaefa" offset="37%">
</stop>
<stop stop-color="#d9bbff" offset="62%">
</stop>
<stop stop-color="#9270bd" offset="100%">
</stop>
</linearGradient>
<linearGradient x1="51%" y1="27%" x2="50%" y2="79%" id="id-female-12_purple_pants-2">
<stop stop-color="#ab8cd4" offset="0%">
</stop>
<stop stop-color="#b28dd4" offset="55%">
</stop>
<stop stop-color="#9777c2" offset="100%">
</stop>
</linearGradient>
</defs>
<g transform="translate(450,1060)" id="id-female-12_purple_pants-3">
<path d="M 220 264 C 217 293 216 321 217 350 C 223 431 232 512 231 594 C 231 603 233 612 235 623 C 237 636 236 644 236 655 C 236 672 242 685 244 701 C 313 701 347 701 347 701 C 342 682 340 661 344 640 C 346 625 344 610 346 595 C 346 582 346 575 346 575 C 346 567 349 559 351 551 C 375 460 387 414 387 414 C 396 374 404 336 403 304 C 401 268 397 232 390 197 C 385 179 377 160 373 142 C 368 110 365 93 365 93 C 349 47 341 24 341 24 C 335 15 332 11 332 11 C 290 95 270 137 270 137 C 234 215 220 264 220 264 Z" fill="url(#id-female-12_purple_pants-0)" id="id-female-12_purple_pants-4">
</path>
<path d="M 78 1 C 55 60 43 90 43 90 C 37 117 33 131 33 131 C 30 152 25 172 19 193 C 14 218 9 244 2 272 C 1 289 0 299 0 309 C 13 431 22 455 32 509 C 39 542 49 586 58 666 C 59 681 52 701 52 701 C 125 701 162 701 162 701 C 165 683 167 675 167 675 C 166 652 165 630 171 607 C 170 572 169 555 169 555 C 173 514 175 472 181 433 C 189 376 199 300 194 264 C 178 218 160 174 140 131 C 99 44 78 1 78 1 Z" fill="url(#id-female-12_purple_pants-1)" id="id-female-12_purple_pants-4">
</path>
<path d="M 18 436 C 65 475 114 515 170 553 C 171 589 172 607 172 607 C 167 621 168 644 167 667 L 38 538 C 24 470 18 436 18 436 Z" fill="#aa89d3" id="id-female-12_purple_pants-6">
</path>
<path d="M 59 475 C 112 517 138 538 138 538 C 138 604 138 638 138 638 L 77 573 C 65 507 59 475 59 475 Z" fill="#c19fe9" id="id-female-12_purple_pants-7">
</path>
<path d="M 56 553 L 40 537 C 25 470 18 436 18 436 L 33 449 C 48 518 56 553 56 553 Z" fill="#ddbbff" id="id-female-12_purple_pants-8">
</path>
<path d="M 231 557 C 278 521 332 472 384 425 C 384 425 374 463 355 538 C 355 538 316 582 238 670 C 236 660 236 639 234 623 C 228 600 232 577 231 557 Z" fill="#ac8cd4" id="id-female-12_purple_pants-9">
</path>
<path d="M 261 638 C 300 595 319 573 319 573 C 332 506 338 472 338 472 L 262 540 C 261 605 261 638 261 638 Z" fill="#ce9fe9" id="id-female-12_purple_pants-10">
</path>
<path d="M 355 538 C 345 548 340 553 340 553 L 363 445 L 384 425 C 365 500 355 538 355 538 Z" fill="#e6bbff" id="id-female-12_purple_pants-11">
</path>
<path d="M 78 1 C 78 1 96 31 130 90 L 130 90 L 280 90 C 280 90 297 62 332 6 C 332 6 332 6 332 6 L 332 6 C 332 7 336 13 343 24 C 343 24 344 26 345 30 L 345 30 L 294 118 C 294 118 318 111 365 95 C 365 95 366 99 367 107 C 367 107 367 107 367 107 L 367 107 C 365 108 361 109 355 111 L 354 112 C 341 116 318 124 286 134 C 286 134 268 169 232 240 C 232 240 279 207 373 141 C 373 141 374 144 375 149 C 375 149 323 187 220 264 C 215 265 213 266 204 267 C 199 266 196 265 193 264 C 189 260 187 256 185 251 L 185 251 L 27 161 C 27 161 28 159 29 153 C 29 153 79 181 178 238 C 178 238 159 202 122 129 C 122 129 94 121 40 103 L 40 103 L 40 103 C 40 103 41 98 43 90 C 43 90 67 98 114 114 L 114 114 L 67 28 C 67 28 71 19 78 1 Z M 276 100 C 276 100 276 100 276 100 L 276 100 C 273 100 226 100 136 100 C 136 100 140 109 149 126 C 183 141 222 139 260 129 C 260 129 265 119 276 100 Z" fill="url(#id-female-12_purple_pants-2)" id="id-female-12_purple_pants-12">
</path>
</g>
<defs>
<linearGradient x1="20%" y1="44%" x2="50%" y2="44%" id="id-female-12.5_dj_top_dress-0">
<stop stop-color="#ac9191" offset="0%">
</stop>
<stop stop-color="#e5c8c7" offset="100%">
</stop>
</linearGradient>
<linearGradient x1="23%" y1="23%" x2="73%" y2="85%" id="id-female-12.5_dj_top_dress-1">
<stop stop-color="#a68d8c" offset="0%">
</stop>
<stop stop-color="#ceb2b1" offset="100%">
</stop>
</linearGradient>
<linearGradient x1="16%" y1="36%" x2="40%" y2="49%" id="id-female-12.5_dj_top_dress-2">
<stop stop-color="#f1d9e5" offset="0%" stop-opacity="0">
</stop>
<stop stop-color="#f0d8e5" offset="100%">
</stop>
</linearGradient>
<linearGradient x1="17%" y1="6%" x2="83%" y2="17%" id="id-female-12.5_dj_top_dress-3">
<stop stop-color="#a78d8d" offset="0%">
</stop>
<stop stop-color="#cdb1b0" offset="100%">
</stop>
</linearGradient>
<linearGradient x1="9%" y1="0%" x2="91%" y2="100%" id="id-female-12.5_dj_top_dress-4">
<stop stop-color="#f1cb47" offset="13%">
</stop>
<stop stop-color="#f45f58" offset="43%">
</stop>
<stop stop-color="#f51cbc" offset="76%">
</stop>
<stop stop-color="#6d2ee9" offset="96%">
</stop>
</linearGradient>
</defs>
<g transform="translate(435,587)" id="id-female-12.5_dj_top_dress-5">
<path d="M 57 901 C 125 906 159 909 159 909 C 192 909 209 909 209 909 C 268 908 298 908 298 908 C 353 903 381 901 381 901 C 389 852 391 803 394 753 C 401 772 404 782 404 782 C 411 834 415 860 415 860 C 418 800 419 770 419 770 C 414 723 412 700 412 700 C 393 617 383 576 383 576 C 377 541 353 505 358 489 C 349 485 346 478 349 469 C 343 464 339 460 340 456 C 340 432 340 420 340 420 C 348 387 355 298 362 301 C 362 313 363 326 367 338 C 417 330 442 327 442 327 C 442 252 440 177 431 102 C 400 85 365 70 322 59 C 307 47 299 40 299 40 C 288 27 280 14 280 0 C 239 12 203 9 170 4 C 167 14 162 23 157 30 C 150 38 136 48 118 60 C 87 71 54 85 21 98 C 10 102 7 141 2 176 C 2 209 4 239 7 269 C 2 311 0 332 0 332 C 53 341 79 345 79 345 C 83 334 84 328 84 328 C 87 334 88 338 88 338 C 87 349 86 354 86 354 C 91 363 93 368 93 368 C 95 409 95 430 95 430 C 94 434 89 437 96 445 C 97 451 91 455 87 459 C 88 461 89 463 89 463 C 90 468 91 473 87 479 C 69 521 60 552 55 552 C 55 557 54 559 54 559 C 54 563 51 567 45 572 C 50 583 45 592 37 598 C 41 610 44 616 44 616 C 44 619 44 622 42 626 C 31 670 20 714 12 760 C 12 786 14 812 19 840 C 21 850 19 866 25 871 C 24 840 25 809 27 778 C 29 768 31 763 31 763 C 32 783 36 808 41 835 C 47 859 52 882 57 901 Z" fill="url(#id-female-12.5_dj_top_dress-0)" id="id-female-12.5_dj_top_dress-6">
</path>
<path d="M 37 598 C 88 631 114 648 114 648 C 67 634 43 628 43 628 C 43 689 43 720 43 720 C 35 737 31 745 31 745 C 23 772 20 785 20 785 L 18 838 C 14 813 13 786 12 760 C 19 718 30 673 41 628 C 43 625 44 621 44 616 C 39 604 37 598 37 598 Z" fill="#887070" id="id-female-12.5_dj_top_dress-7">
</path>
<path d="M 45 589 C 51 591 53 593 53 593 C 54 580 54 573 54 573 C 66 579 73 582 73 582 C 64 565 59 556 59 556 C 61 551 63 545 64 538 C 61 543 59 548 55 552 L 54 559 C 53 564 50 568 45 572 C 48 577 47 583 45 589 Z" fill="#8d7575" id="id-female-12.5_dj_top_dress-8">
</path>
<path d="M 87 481 C 110 487 122 490 122 490 L 88 457 L 87 459 C 91 465 91 472 87 481 Z" fill="#947b7a" id="id-female-12.5_dj_top_dress-9">
</path>
<path d="M 96 445 L 122 402 L 88 338 L 87 354 L 93 368 L 95 430 C 91 435 91 440 96 445 Z" fill="#987f7f" id="id-female-12.5_dj_top_dress-10">
</path>
<path d="M 57 342 C 57 342 64 343 79 345 L 84 328 L 88 338 C 102 365 110 378 110 378 C 118 372 123 368 123 368 C 174 365 199 363 199 363 C 186 383 179 394 179 394 C 210 379 226 372 226 372 C 253 370 266 369 266 369 C 306 386 326 395 326 395 C 271 494 244 544 244 544 C 304 522 334 511 334 511 C 309 570 296 599 296 599 L 371 611 L 398 640 C 390 606 384 576 378 556 C 368 523 354 503 358 489 C 348 485 346 478 349 469 C 345 465 340 462 340 456 L 340 420 C 348 395 354 299 362 301 C 364 314 363 326 365 338 L 442 327 L 442 311 C 431 310 417 313 403 316 L 410 276 C 410 276 402 281 386 291 C 386 291 394 261 410 202 C 414 156 397 139 384 136 C 384 136 378 142 366 156 C 366 156 365 184 365 241 C 365 241 364 253 361 277 C 361 277 345 285 313 301 C 313 301 285 305 227 313 C 227 313 243 308 274 296 C 274 296 249 300 198 306 C 198 306 172 306 119 304 L 106 297 C 134 247 148 222 148 222 C 130 226 110 236 93 236 C 91 218 91 209 91 209 C 93 184 95 171 95 171 L 73 219 C 73 177 73 156 73 156 L 46 128 C 14 119 7 232 7 269 L 0 332 L 57 342 Z" fill="url(#id-female-12.5_dj_top_dress-1)" id="id-female-12.5_dj_top_dress-11">
</path>
<path d="M 390 334 C 389 326 388 322 388 322 C 417 316 431 313 431 313 L 431 328 C 404 332 390 334 390 334 Z" fill="#e5c8c7" id="id-female-12.5_dj_top_dress-12">
</path>
<path d="M 38 338 C 39 328 40 322 40 322 C 19 319 9 317 9 317 L 7 333 C 27 336 38 338 38 338 Z" fill="#cbafae" id="id-female-12.5_dj_top_dress-13">
</path>
<path d="M 57 342 L 66 271 L 84 328 L 79 345 C 64 343 57 342 57 342 Z" fill="#7d6665" id="id-female-12.5_dj_top_dress-14">
</path>
<path d="M 80 340 C 74 304 71 285 71 285 L 84 323 L 80 340 Z" fill="#664e4f" id="id-female-12.5_dj_top_dress-15">
</path>
<path d="M 106 297 L 67 275 L 88 338 L 110 378 L 123 368 C 174 365 199 363 199 363 C 212 362 218 361 218 361 L 93 318 L 106 297 Z" fill="#9b8181" id="id-female-12.5_dj_top_dress-16">
</path>
<polygon points="110 378 88 338 86 354 93 368 94 391" fill="#846c6c" id="id-female-12.5_dj_top_dress-17">
</polygon>
<path d="M 68 174 C 62 195 60 205 60 205 C 66 236 69 251 69 251 C 68 256 67 258 67 258 C 67 261 68 262 68 262 C 80 228 86 211 86 211 C 85 206 85 203 85 203 L 71 245 C 69 198 68 174 68 174 Z" fill="#664f4f" id="id-female-12.5_dj_top_dress-18">
</path>
<path d="M 73 156 L 175 103 L 118 60 C 85 72 53 85 21 98 C 19 98 19 99 18 99 C 55 137 73 156 73 156 Z" fill="#e3c6c5" id="id-female-12.5_dj_top_dress-19">
</path>
<path d="M 287 185 C 240 188 191 183 129 127 L 175 103 C 199 145 250 157 287 185 Z" fill="url(#id-female-12.5_dj_top_dress-2)" id="id-female-12.5_dj_top_dress-20">
</path>
<path d="M 284 19 C 246 41 221 60 208 76 L 365 72 C 352 67 338 63 322 59 L 299 40 C 290 29 285 22 284 19 Z" fill="#eed6e0" id="id-female-12.5_dj_top_dress-21">
</path>
<path d="M 96 68 C 119 68 146 66 175 63 C 162 55 155 51 155 51 C 173 45 204 40 249 38 C 223 36 210 35 210 35 C 211 26 213 17 214 8 L 170 4 C 167 13 163 22 157 30 C 147 40 134 50 118 60 C 104 65 97 68 96 68 Z" fill="#b59a99" id="id-female-12.5_dj_top_dress-22">
</path>
<path d="M 357 208 C 348 173 344 155 344 155 C 354 139 360 131 360 131 L 363 136 C 359 184 357 208 357 208 Z" fill="#f1d9e6" id="id-female-12.5_dj_top_dress-23">
</path>
<path d="M 338 171 C 337 216 337 238 337 238 L 176 289 C 248 234 302 194 338 171 Z" fill="#efd7e2" id="id-female-12.5_dj_top_dress-24">
</path>
<path d="M 362 301 C 358 301 357 310 355 320 C 356 298 358 284 360 277 C 352 230 350 202 353 194 C 357 211 359 227 364 247 L 365 241 C 365 184 365 156 365 156 L 377 206 C 372 230 365 252 362 277 C 362 293 362 301 362 301 Z" fill="#664f4f" id="id-female-12.5_dj_top_dress-25">
</path>
<path d="M 355 320 C 352 325 350 328 350 328 L 250 363 C 261 367 266 369 266 369 C 310 365 331 363 331 363 L 340 446 L 340 420 C 345 396 350 363 355 320 Z" fill="#a78d8c" id="id-female-12.5_dj_top_dress-26">
</path>
<path d="M 349 469 C 322 488 309 498 309 498 L 356 489 C 348 483 346 477 349 469 Z" fill="#ac9391" id="id-female-12.5_dj_top_dress-27">
</path>
<path d="M 66 902 C 47 843 42 792 34 739 L 41 628 C 43 624 44 620 44 616 C 40 607 36 598 37 598 C 210 624 296 636 296 636 C 200 701 151 734 151 734 L 214 761 C 184 820 169 850 169 850 L 162 850 L 105 905 L 66 902 Z" fill="url(#id-female-12.5_dj_top_dress-3)" id="id-female-12.5_dj_top_dress-28">
</path>
<path d="M 100 904 C 102 865 102 845 102 845 L 164 851 L 159 909 C 120 906 100 904 100 904 Z" fill="#846c6c" id="id-female-12.5_dj_top_dress-29">
</path>
<path d="M 105 908 L 102 845 L 164 851 C 160 890 159 909 159 909 C 157 909 156 909 156 909 L 156 913 L 105 908 Z" fill="url(#id-female-12.5_dj_top_dress-4)" id="id-female-12.5_dj_top_dress-30">
</path>
<path d="M 115 857 C 141 858 154 859 154 859 C 154 877 154 887 154 887 L 115 879 C 115 865 115 857 115 857 Z" fill="#000000" id="id-female-12.5_dj_top_dress-31">
</path>
<path d="M 41 831 C 99 838 161 849 213 853 C 302 846 347 843 347 843 C 375 837 389 834 389 834 C 389 837 388 838 388 838 C 360 844 346 847 346 847 C 257 853 213 856 213 856 C 153 854 86 842 42 836 C 41 832 41 831 41 831 Z" fill="#866d6f" id="id-female-12.5_dj_top_dress-32">
</path>
<path d="M 381 901 L 342 904 L 346 847 L 388 838 C 385 876 382 897 381 901 Z" fill="#ccb2b1" id="id-female-12.5_dj_top_dress-33">
</path>
<path d="M 381 901 C 376 901 374 901 374 901 C 383 815 388 761 387 738 C 395 735 399 733 399 733 C 406 763 410 778 410 778 L 416 832 L 415 860 L 404 782 L 394 753 C 389 837 385 886 381 901 Z" fill="#b89d9d" id="id-female-12.5_dj_top_dress-34">
</path>
<path d="M 384 136 C 404 109 419 98 431 103 C 418 137 417 183 417 228 C 415 180 409 141 384 136 Z" fill="#ecd4de" id="id-female-12.5_dj_top_dress-35">
</path>
<path d="M 45 127 L 18 99 C 12 109 7 133 2 176 C 2 200 3 229 6 268 C 10 188 18 128 45 127 Z" fill="#b19eb4" id="id-female-12.5_dj_top_dress-36">
</path>
<g transform="translate(151,108)" id="id-female-12.5_dj_top_dress-37" fill-rule="nonzero">
<path d="M 20 54 L 20 39 L 35 51 L 47 48 L 37 40 L 41 39 L 41 20 L 11 26 L 11 55 L 20 54 Z M 32 32 L 20 35 L 20 33 L 32 30 L 32 32 Z M 51 47 L 51 18 L 43 19 L 43 49 L 51 47 Z M 85 41 L 85 22 L 64 26 L 64 24 L 85 20 L 85 11 L 56 17 L 56 46 L 85 41 Z M 77 34 L 64 36 L 64 28 L 70 33 L 77 32 L 77 34 Z M 94 39 L 94 22 L 100 27 L 106 26 L 106 37 L 114 35 L 114 6 L 106 7 L 106 18 L 94 20 L 94 10 L 86 11 L 86 41 L 94 39 Z M 137 31 L 137 17 L 130 12 L 147 8 L 147 0 L 118 6 L 118 14 L 128 12 L 128 33 L 137 31 Z M 8 108 L 8 95 L 15 100 L 21 99 L 21 105 L 29 104 L 29 74 L 0 80 L 0 110 L 8 108 Z M 21 91 L 8 93 L 8 87 L 21 84 L 21 91 Z M 62 97 L 62 68 L 33 74 L 33 103 L 62 97 Z M 54 80 L 41 82 L 41 80 L 54 78 L 54 80 Z M 54 90 L 41 93 L 41 84 L 47 90 L 54 88 L 54 90 Z M 94 91 L 94 61 L 64 67 L 64 96 L 94 91 Z M 85 84 L 73 86 L 73 74 L 85 71 L 85 84 Z M 124 85 L 124 56 L 116 57 L 116 78 L 103 81 L 103 60 L 95 61 L 95 91 L 124 85 Z M 144 81 L 144 67 L 138 62 L 155 58 L 155 50 L 125 56 L 125 64 L 136 62 L 136 83 L 144 81 Z" fill="#000000" id="id-female-12.5_dj_top_dress-38">
</path>
<path d="M 57 155 L 57 122 L 49 123 L 49 137 L 30 121 L 30 155 L 37 153 L 37 140 L 57 155 Z M 89 143 L 89 116 L 61 121 L 61 149 L 89 143 Z M 81 137 L 69 139 L 69 127 L 81 125 L 81 137 Z M 120 139 L 120 110 L 112 111 L 112 121 L 106 116 L 100 123 L 100 113 L 93 115 L 93 145 L 106 128 L 120 139 Z" fill="#f54488" id="id-female-12.5_dj_top_dress-39">
</path>
</g>
</g>
<defs>
<linearGradient x1="50%" y1="0%" x2="50%" y2="100%" id="id-female-13_cyber_head_shoulder-0">
<stop stop-color="#171d27" offset="0%">
</stop>
<stop stop-color="#191d29" offset="61%">
</stop>
<stop stop-color="#080d11" offset="100%">
</stop>
</linearGradient>
<linearGradient x1="28%" y1="44%" x2="0%" y2="50%" id="id-female-13_cyber_head_shoulder-1">
<stop stop-color="#d4d9e0" offset="0%">
</stop>
<stop stop-color="#6e8ebf" offset="100%">
</stop>
</linearGradient>
<linearGradient x1="15%" y1="28%" x2="90%" y2="74%" id="id-female-13_cyber_head_shoulder-2">
<stop stop-color="#8e98ac" offset="0%">
</stop>
<stop stop-color="#636a77" offset="100%">
</stop>
</linearGradient>
<linearGradient x1="14%" y1="39%" x2="86%" y2="61%" id="id-female-13_cyber_head_shoulder-3">
<stop stop-color="#bbc3d1" offset="0%" stop-opacity="0.51">
</stop>
<stop stop-color="#bbc3d1" offset="100%">
</stop>
</linearGradient>
<linearGradient x1="7%" y1="41%" x2="92%" y2="59%" id="id-female-13_cyber_head_shoulder-4">
<stop stop-color="#b2bbcb" offset="0%">
</stop>
<stop stop-color="#7b8da8" offset="100%">
</stop>
</linearGradient>
<linearGradient x1="100%" y1="50%" x2="0%" y2="50%" id="id-female-13_cyber_head_shoulder-5">
<stop stop-color="#282f39" offset="0%">
</stop>
<stop stop-color="#1b1f2b" offset="77%">
</stop>
<stop stop-color="#286272" offset="100%">
</stop>
</linearGradient>
<linearGradient x1="50%" y1="1%" x2="50%" y2="100%" id="id-female-13_cyber_head_shoulder-6">
<stop stop-color="#aabdcd" offset="0%">
</stop>
<stop stop-color="#2b3a4f" offset="9%">
</stop>
<stop stop-color="#5e6977" offset="34%" stop-opacity="0">
</stop>
<stop stop-color="#d8d8d8" offset="100%" stop-opacity="0">
</stop>
</linearGradient>
<linearGradient x1="69%" y1="43%" x2="34%" y2="50%" id="id-female-13_cyber_head_shoulder-7">
<stop stop-color="#979aa9" offset="0%" stop-opacity="0">
</stop>
<stop stop-color="#979aa9" offset="21%">
</stop>
<stop stop-color="#6f737b" offset="100%">
</stop>
</linearGradient>
<linearGradient x1="50%" y1="0%" x2="50%" y2="100%" id="id-female-13_cyber_head_shoulder-8">
<stop stop-color="#7f838c" offset="0%">
</stop>
<stop stop-color="#d8deeb" offset="49%">
</stop>
<stop stop-color="#989eab" offset="100%">
</stop>
</linearGradient>
<linearGradient x1="100%" y1="50%" x2="0%" y2="50%" id="id-female-13_cyber_head_shoulder-9">
<stop stop-color="#292d37" offset="0%">
</stop>
<stop stop-color="#292d38" offset="100%" stop-opacity="0">
</stop>
</linearGradient>
<linearGradient x1="61%" y1="53%" x2="33%" y2="55%" id="id-female-13_cyber_head_shoulder-10">
<stop stop-color="#b8bcc7" offset="0%">
</stop>
<stop stop-color="#b8bcc7" offset="100%" stop-opacity="0">
</stop>
</linearGradient>
<linearGradient x1="50%" y1="0%" x2="50%" y2="100%" id="id-female-13_cyber_head_shoulder-11">
<stop stop-color="#192a41" offset="0%">
</stop>
<stop stop-color="#18589b" offset="100%">
</stop>
</linearGradient>
</defs>
<g transform="translate(418,329)" id="id-female-13_cyber_head_shoulder-12">
<path d="M 242 1 C 279 -1 304 17 322 46 C 332 62 333 80 333 98 L 332 100 L 332 100 L 332 101 C 332 102 332 102 332 102 L 332 103 C 332 104 332 104 332 104 L 332 106 C 332 107 332 108 332 109 L 332 111 C 332 112 332 113 332 114 C 332 114 338 124 348 145 C 348 145 349 145 350 145 L 350 145 C 354 145 367 147 387 150 C 387 150 373 153 343 159 C 343 159 342 160 339 162 L 339 162 L 339 162 C 339 163 336 170 331 185 C 331 185 328 185 321 186 C 321 189 319 197 316 205 L 316 206 C 314 213 312 220 310 223 C 308 226 302 231 292 239 C 293 248 294 261 295 278 C 307 291 316 299 320 301 C 320 301 372 323 477 368 L 477 368 L 477 368 C 477 368 477 368 477 368 L 477 368 C 476 370 472 375 466 386 C 395 443 313 467 219 456 C 126 446 57 422 12 382 C 12 382 8 377 1 368 C 1 368 1 366 1 362 C 1 362 53 343 155 306 C 155 306 155 306 156 306 L 156 306 C 157 305 158 304 159 303 L 160 303 C 165 299 175 292 189 282 C 189 279 190 265 193 239 C 183 231 178 225 175 222 C 173 218 170 207 165 187 C 165 187 161 186 154 183 C 152 184 145 153 138 147 C 138 147 123 146 91 144 L 91 144 L 91 141 C 91 141 109 140 145 138 L 145 138 L 155 102 C 151 40 195 -2 242 1 Z M 170 158 C 171 164 172 171 173 177 L 173 179 L 173 179 L 173 180 C 173 181 174 182 174 183 L 174 184 C 176 198 179 212 181 216 C 186 224 199 238 222 247 C 234 250 245 251 256 249 C 273 247 294 229 303 220 C 308 214 312 198 314 171 C 218 163 170 158 170 158 Z" fill="url(#id-female-13_cyber_head_shoulder-0)" id="id-female-13_cyber_head_shoulder-13">
</path>
<path d="M 0 359 C 13 378 39 395 66 412 C 111 434 167 443 215 452 C 188 453 358 437 358 437 C 400 424 441 405 478 368 C 461 357 452 352 452 352 C 367 315 324 297 324 297 C 295 314 267 328 241 338 C 239 416 238 455 238 455 C 235 455 234 455 234 455 C 234 376 234 337 234 337 L 149 302 C 50 340 0 359 0 359 Z" fill="#50668d" id="id-female-13_cyber_head_shoulder-14">
</path>
<path d="M 16 378 C 28 363 34 355 34 355 L 159 307 L 148 302 L 0 359 C 7 369 13 375 16 378 Z" fill="#7e97c2" id="id-female-13_cyber_head_shoulder-15">
</path>
<polygon points="16 377 160 307 34 354" fill="#4f72ab" id="id-female-13_cyber_head_shoulder-16">
</polygon>
<path d="M 16 377 C 28 386 34 390 34 390 L 171 311 L 159 306 C 64 353 16 377 16 377 Z" fill="#1d212d" id="id-female-13_cyber_head_shoulder-17">
</path>
<path d="M 33 391 C 50 403 58 409 58 409 C 102 379 139 347 176 314 L 171 312 C 79 365 33 391 33 391 Z" fill="#607393" id="id-female-13_cyber_head_shoulder-18">
</path>
<path d="M 58 409 C 67 414 72 416 72 416 C 104 390 137 362 172 329 L 176 315 C 127 358 87 389 58 409 Z" fill="#202632" id="id-female-13_cyber_head_shoulder-19">
</path>
<path d="M 72 417 C 81 421 86 423 86 423 C 153 364 187 334 187 334 L 189 320 L 176 315 L 172 329 C 105 388 72 417 72 417 Z" fill="#bec2cb" id="id-female-13_cyber_head_shoulder-20">
</path>
<path d="M 87 421 C 100 425 106 427 106 427 L 152 364 C 109 402 87 421 87 421 Z" fill="#48689a" id="id-female-13_cyber_head_shoulder-21">
</path>
<polygon points="107 427 188 332 153 363" fill="#2a354b" id="id-female-13_cyber_head_shoulder-22">
</polygon>
<path d="M 107 428 C 137 437 170 444 204 450 C 204 410 208 369 217 329 L 190 319 L 188 332 C 134 396 107 428 107 428 Z" fill="#394963" id="id-female-13_cyber_head_shoulder-23">
</path>
<path d="M 146 438 C 161 423 169 415 169 415 C 187 364 196 339 196 339 L 168 443 C 153 440 146 438 146 438 Z" fill="#819dc7" id="id-female-13_cyber_head_shoulder-24">
</path>
<path d="M 235 455 L 205 450 C 205 411 209 371 218 330 L 235 337 L 235 455 Z" fill="#6788b9" id="id-female-13_cyber_head_shoulder-25">
</path>
<path d="M 239 452 C 306 451 359 441 397 422 C 343 399 295 371 263 328 L 241 337 C 240 414 239 452 239 452 Z" fill="url(#id-female-13_cyber_head_shoulder-1)" id="id-female-13_cyber_head_shoulder-26">
</path>
<path d="M 330 442 C 311 411 302 395 302 395 C 332 417 348 428 348 428 L 366 433 C 342 439 330 442 330 442 Z" fill="#abb3bd" id="id-female-13_cyber_head_shoulder-27">
</path>
<path d="M 262 329 C 280 320 289 316 289 316 C 308 364 359 391 408 418 L 395 424 C 336 399 292 367 262 329 Z" fill="url(#id-female-13_cyber_head_shoulder-2)" id="id-female-13_cyber_head_shoulder-28">
</path>
<path d="M 415 413 C 392 405 367 388 339 361 C 362 373 380 382 392 388 C 401 391 415 396 434 403 C 421 410 415 413 415 413 Z" fill="url(#id-female-13_cyber_head_shoulder-3)" id="id-female-13_cyber_head_shoulder-29">
</path>
<path d="M 331 159 C 335 159 338 159 338 159 C 338 153 338 150 338 150 C 377 151 397 151 397 151 C 399 148 400 147 400 147 C 367 146 351 145 351 145 C 346 139 343 135 343 135 L 344 123 C 337 116 333 113 333 113 C 327 127 324 134 324 134 L 339 132 C 333 150 331 159 331 159 Z" fill="#cbd1e0" id="id-female-13_cyber_head_shoulder-30">
</path>
<path d="M 305 310 L 323 297 L 451 352 C 468 362 477 368 477 368 C 470 375 466 378 466 378 C 382 343 340 325 340 325 L 341 336 C 325 335 314 323 305 310 Z" fill="url(#id-female-13_cyber_head_shoulder-4)" id="id-female-13_cyber_head_shoulder-31">
</path>
<path d="M 445 396 C 451 380 455 372 455 372 L 449 351 L 477 368 C 463 383 452 392 445 396 Z" fill="#dfe2e7" id="id-female-13_cyber_head_shoulder-32">
</path>
<path d="M 91 142 C 137 141 160 140 160 140 C 155 122 153 113 153 113 C 151 114 147 114 142 113 C 139 126 137 134 136 135 C 122 139 107 141 91 142 Z" fill="#b2b6c1" id="id-female-13_cyber_head_shoulder-33">
</path>
<path d="M 145 154 C 150 155 153 155 153 155 C 153 144 151 133 144 124 C 145 144 145 154 145 154 Z" fill="#245464" id="id-female-13_cyber_head_shoulder-34">
</path>
<path d="M 314 171 C 300 177 284 182 267 185 C 262 178 237 175 205 183 C 188 178 172 174 162 168 C 160 161 152 115 153 101 C 150 27 206 -2 238 0 C 293 -5 340 39 332 112 L 322 134 C 316 159 314 171 314 171 Z" fill="url(#id-female-13_cyber_head_shoulder-5)" id="id-female-13_cyber_head_shoulder-35">
</path>
<path d="M 314 171 C 300 177 284 182 267 185 C 262 178 237 175 205 183 C 188 178 172 174 162 168 C 160 161 152 115 153 101 C 150 27 206 -2 238 0 C 293 -5 340 39 332 112 L 322 134 C 316 159 314 171 314 171 Z" fill="url(#id-female-13_cyber_head_shoulder-6)" id="id-female-13_cyber_head_shoulder-36">
</path>
<path d="M 243 178 C 244 111 244 77 244 77 C 257 62 271 48 285 38 C 342 48 326 115 315 171 L 268 185 C 263 180 254 178 243 178 Z" fill="url(#id-female-13_cyber_head_shoulder-7)" id="id-female-13_cyber_head_shoulder-37">
</path>
<path d="M 258 179 C 259 105 260 68 260 68 C 287 35 300 18 300 18 C 310 25 317 35 322 45 C 311 64 301 75 293 78 C 303 95 310 125 313 168 L 270 183 C 262 180 258 179 258 179 Z" fill="url(#id-female-13_cyber_head_shoulder-8)" id="id-female-13_cyber_head_shoulder-38">
</path>
<path d="M 220 180 C 219 144 219 126 219 126 C 188 119 172 116 172 116 L 182 176 L 205 183 C 215 181 220 180 220 180 Z" fill="url(#id-female-13_cyber_head_shoulder-9)" id="id-female-13_cyber_head_shoulder-39">
</path>
<path d="M 220 130 C 220 75 220 47 220 47 C 202 52 186 59 173 72 C 173 102 173 117 173 117 L 175 130 C 205 130 220 130 220 130 Z" fill="url(#id-female-13_cyber_head_shoulder-10)" id="id-female-13_cyber_head_shoulder-40">
</path>
<path d="M 167 127 C 162 131 160 134 160 137 C 160 141 167 145 167 145 C 261 145 308 145 308 145 C 311 144 313 140 313 136 C 313 131 311 128 307 127 C 214 127 167 127 167 127 Z" fill="#000000" id="id-female-13_cyber_head_shoulder-41">
</path>
<path d="M 167 133 C 260 133 306 133 306 133 C 311 136 311 138 306 139 L 168 139 C 164 137 164 135 167 133 Z" fill="#00ff00" id="id-female-13_cyber_head_shoulder-42">
</path>
<path d="M 242 332 C 246 283 247 258 247 258 C 277 245 292 238 292 238 L 277 311 C 254 325 242 332 242 332 Z" fill="url(#id-female-13_cyber_head_shoulder-11)" id="id-female-13_cyber_head_shoulder-43">
</path>
</g>
<defs>
</defs>
<g transform="translate(561,311)" id="id-female-25_44_short-0">
<path d="M 15 155 C 12 133 13 136 8 99 C 10 95 11 91 13 85 L 0 95 L 10 82 L 15 66 L 6 75 C 14 54 25 36 39 22 C 41 31 64 16 88 9 C 94 15 151 27 148 30 C 161 34 182 63 196 73 C 192 73 187 73 182 73 L 190 99 C 187 98 186 97 186 97 C 188 110 188 127 185 149 C 184 155 184 123 177 114 C 170 103 166 98 166 98 C 173 104 176 107 176 107 C 168 96 164 90 164 90 C 164 87 163 85 163 85 C 166 87 168 87 169 88 C 169 85 162 79 163 74 C 145 60 126 65 103 65 C 107 63 111 62 115 61 L 80 64 C 88 61 92 59 93 58 C 54 62 77 64 52 62 C 54 63 56 64 59 65 C 46 68 37 72 32 77 C 32 81 26 87 23 92 C 23 93 31 87 31 87 C 31 97 30 90 19 107 C 18 108 26 100 30 97 C 8 126 20 101 15 155 Z" fill="#4d2a31" id="id-female-25_44_short-1">
</path>
<path d="M 95 13 C 102 12 112 3 118 0 C 113 6 109 11 108 13 L 144 5 L 122 18 L 164 20 C 156 25 150 28 148 30 C 156 32 173 49 182 61 C 157 64 128 63 116 64 C 133 50 158 34 154 33 C 130 38 106 45 81 55 L 100 39 L 68 49 C 85 25 94 13 95 13 Z" fill="#673541" id="id-female-25_44_short-1">
</path>
</g>
<defs>
</defs>
<g transform="translate(875,1408)" id="id-female-29_vape-0">
<path d="M 81 68 C 55 49 42 39 42 39 C 47 28 49 22 49 22 L 92 55 C 84 64 81 68 81 68 Z" fill="#10100e" id="id-female-29_vape-1">
</path>
<path d="M 86 62 C 59 41 45 31 45 31 C 47 27 48 25 48 25 L 91 58 C 88 60 86 62 86 62 Z" fill="#554d3c" id="id-female-29_vape-2">
</path>
<path d="M 50 45 C 57 36 60 31 60 31 L 63 33 C 54 41 50 45 50 45 Z" fill="#766f60" id="id-female-29_vape-3">
</path>
<path d="M 57 50 C 55 49 54 48 54 48 C 62 39 65 35 65 35 L 67 36 C 60 46 57 50 57 50 Z" fill="#726c5d" id="id-female-29_vape-4">
</path>
<path d="M 28 26 C 16 20 10 17 10 17 C 11 14 11 12 11 12 C 5 8 1 6 1 6 C 4 3 6 2 6 2 C 10 4 13 5 13 5 C 17 3 20 2 20 2 L 33 10 L 32 13 L 31 23 C 29 25 28 26 28 26 Z" transform="translate(17,14) rotate(7) translate(-17,-14)" fill="#10100e" id="id-female-29_vape-5">
</path>
<path d="M 22 13 C 19 10 18 9 18 9 C 21 7 23 6 23 6 L 25 7 C 23 11 22 13 22 13 Z" fill="#2e2b23" id="id-female-29_vape-6">
</path>
<path d="M 27 16 C 25 15 24 14 24 14 C 27 11 28 9 28 9 L 29 10 C 28 14 27 16 27 16 Z" fill="#4a4335" id="id-female-29_vape-7">
</path>
<path d="M 8 7 C 6 6 5 5 5 5 C 7 3 8 2 8 2 L 11 3 C 9 6 8 7 8 7 Z" fill="#494233" id="id-female-29_vape-8">
</path>
<path d="M 58 33 C 60 34 61 35 61 35 C 58 38 56 39 56 39 L 55 38 C 57 35 58 33 58 33 Z" fill="#b2b3be" id="id-female-29_vape-9">
</path>
<path d="M 62 43 C 60 42 60 42 60 42 C 62 39 64 37 64 37 L 65 38 C 63 42 62 43 62 43 Z" fill="#a8a8ae" id="id-female-29_vape-10">
</path>
<path d="M 84 70 C 82 69 81 68 81 68 C 88 60 92 55 92 55 C 93 58 94 59 94 59 L 91 66 C 87 68 84 70 84 70 Z" fill="#00a608" id="id-female-29_vape-11">
</path>
<path d="M 91 66 C 88 63 86 62 86 62 C 89 59 90 57 90 57 C 90 57 91 58 93 61 C 92 64 91 66 91 66 Z" fill="#02d82d" id="id-female-29_vape-12">
</path>
</g>
<defs>
</defs>

</svg>
