<?xml version="1.0" encoding="UTF-8"?>
<svg xmlns="http://www.w3.org/2000/svg" xmlns:xlink="http://www.w3.org/1999/xlink" width="1320px" height="1760px" viewBox="0 0 1320 1760" version="1.1">
<defs>
</defs>

<defs>
<linearGradient x1="50%" y1="6%" x2="50%" y2="99%" id="id-male-6.6_base_5-0">
<stop stop-color="#914537" offset="0%">
</stop>
<stop stop-color="#d47f5c" offset="8%">
</stop>
<stop stop-color="#b1583c" offset="20%">
</stop>
<stop stop-color="#bd6449" offset="34%">
</stop>
<stop stop-color="#ab4f36" offset="71%">
</stop>
<stop stop-color="#890000" offset="100%">
</stop>
</linearGradient>
<linearGradient x1="50%" y1="-10%" x2="50%" y2="84%" id="id-male-6.6_base_5-1">
<stop stop-color="#b05a3c" offset="0%">
</stop>
<stop stop-color="#d47f59" offset="49%">
</stop>
<stop stop-color="#d47f59" offset="100%">
</stop>
</linearGradient>
<linearGradient x1="57%" y1="50%" x2="47%" y2="56%" id="id-male-6.6_base_5-2">
<stop stop-color="#893810" offset="0%">
</stop>
<stop stop-color="#883c15" offset="100%">
</stop>
</linearGradient>
<linearGradient x1="45%" y1="35%" x2="55%" y2="47%" id="id-male-6.6_base_5-3">
<stop stop-color="#b87263" offset="0%">
</stop>
<stop stop-color="#94451b" offset="100%">
</stop>
</linearGradient>
<linearGradient x1="54%" y1="31%" x2="47%" y2="81%" id="id-male-6.6_base_5-4">
<stop stop-color="#b3634b" offset="0%">
</stop>
<stop stop-color="#af5e4a" offset="20%">
</stop>
<stop stop-color="#ab5c40" offset="60%">
</stop>
<stop stop-color="#94441e" offset="81%">
</stop>
<stop stop-color="#8d3b18" offset="100%">
</stop>
</linearGradient>
<linearGradient x1="43%" y1="38%" x2="54%" y2="44%" id="id-male-6.6_base_5-5">
<stop stop-color="#8f4f38" offset="0%">
</stop>
<stop stop-color="#6d2c24" offset="100%">
</stop>
</linearGradient>
<linearGradient x1="50%" y1="40%" x2="58%" y2="82%" id="id-male-6.6_base_5-6">
<stop stop-color="#ce8466" offset="0%">
</stop>
<stop stop-color="#a34a3b" offset="100%">
</stop>
</linearGradient>
<linearGradient x1="50%" y1="41%" x2="49%" y2="66%" id="id-male-6.6_base_5-7">
<stop stop-color="#571b12" offset="0%">
</stop>
<stop stop-color="#863b30" offset="27%">
</stop>
<stop stop-color="#ac5d46" offset="100%">
</stop>
</linearGradient>
<linearGradient x1="63%" y1="4%" x2="25%" y2="77%" id="id-male-6.6_base_5-8">
<stop stop-color="#ec9e83" offset="0%">
</stop>
<stop stop-color="#f0a38d" offset="55%">
</stop>
<stop stop-color="#d88566" offset="100%">
</stop>
</linearGradient>
<linearGradient x1="50%" y1="23%" x2="41%" y2="77%" id="id-male-6.6_base_5-9">
<stop stop-color="#6b1b1c" offset="0%">
</stop>
<stop stop-color="#883a2c" offset="100%">
</stop>
</linearGradient>
<linearGradient x1="47%" y1="22%" x2="55%" y2="89%" id="id-male-6.6_base_5-10">
<stop stop-color="#a55640" offset="0%">
</stop>
<stop stop-color="#ad5c43" offset="100%">
</stop>
</linearGradient>
<linearGradient x1="86%" y1="87%" x2="11%" y2="66%" id="id-male-6.6_base_5-11">
<stop stop-color="#9f4b3c" offset="0%">
</stop>
<stop stop-color="#a95946" offset="100%">
</stop>
</linearGradient>
<linearGradient x1="71%" y1="11%" x2="50%" y2="100%" id="id-male-6.6_base_5-12">
<stop stop-color="#b1583c" offset="0%" stop-opacity="0">
</stop>
<stop stop-color="#b46953" offset="100%">
</stop>
</linearGradient>
<linearGradient x1="66%" y1="46%" x2="56%" y2="43%" id="id-male-6.6_base_5-13">
<stop stop-color="#914640" offset="0%">
</stop>
<stop stop-color="#8e3b3d" offset="100%">
</stop>
</linearGradient>
<linearGradient x1="100%" y1="41%" x2="50%" y2="63%" id="id-male-6.6_base_5-14">
<stop stop-color="#6a1b1c" offset="0%">
</stop>
<stop stop-color="#631d1a" offset="100%">
</stop>
</linearGradient>
<linearGradient x1="69%" y1="20%" x2="50%" y2="100%" id="id-male-6.6_base_5-15">
<stop stop-color="#a0493e" offset="0%">
</stop>
<stop stop-color="#ab5c49" offset="100%">
</stop>
</linearGradient>
<linearGradient x1="36%" y1="20%" x2="57%" y2="81%" id="id-male-6.6_base_5-16">
<stop stop-color="#e39d82" offset="0%">
</stop>
<stop stop-color="#c3795d" offset="100%">
</stop>
</linearGradient>
<linearGradient x1="26%" y1="83%" x2="92%" y2="50%" id="id-male-6.6_base_5-17">
<stop stop-color="#d7835f" offset="0%">
</stop>
<stop stop-color="#ad6545" offset="100%" stop-opacity="0">
</stop>
</linearGradient>
<linearGradient x1="17%" y1="56%" x2="85%" y2="45%" id="id-male-6.6_base_5-18">
<stop stop-color="#e49478" offset="0%">
</stop>
<stop stop-color="#ca8266" offset="52%">
</stop>
<stop stop-color="#bf6e50" offset="100%">
</stop>
</linearGradient>
<linearGradient x1="17%" y1="24%" x2="70%" y2="81%" id="id-male-6.6_base_5-19">
<stop stop-color="#ed9e85" offset="0%">
</stop>
<stop stop-color="#b9694f" offset="100%">
</stop>
</linearGradient>
<linearGradient x1="26%" y1="42%" x2="80%" y2="75%" id="id-male-6.6_base_5-20">
<stop stop-color="#eda186" offset="0%">
</stop>
<stop stop-color="#d68360" offset="100%" stop-opacity="0">
</stop>
</linearGradient>
<linearGradient x1="29%" y1="56%" x2="77%" y2="50%" id="id-male-6.6_base_5-21">
<stop stop-color="#f4ab96" offset="0%">
</stop>
<stop stop-color="#dd9470" offset="100%" stop-opacity="0">
</stop>
</linearGradient>
<linearGradient x1="74%" y1="24%" x2="34%" y2="74%" id="id-male-6.6_base_5-22">
<stop stop-color="#c16e5c" offset="0%">
</stop>
<stop stop-color="#d07957" offset="100%">
</stop>
</linearGradient>
<linearGradient x1="66%" y1="100%" x2="40%" y2="0%" id="id-male-6.6_base_5-23">
<stop stop-color="#c86f52" offset="0%">
</stop>
<stop stop-color="#f1a793" offset="46%">
</stop>
<stop stop-color="#ce7854" offset="100%">
</stop>
</linearGradient>
<linearGradient x1="28%" y1="76%" x2="73%" y2="20%" id="id-male-6.6_base_5-24">
<stop stop-color="#c56649" offset="0%">
</stop>
<stop stop-color="#ae4636" offset="67%">
</stop>
<stop stop-color="#b24a39" offset="100%">
</stop>
</linearGradient>
<linearGradient x1="52%" y1="13%" x2="59%" y2="75%" id="id-male-6.6_base_5-25">
<stop stop-color="#9f362e" offset="0%">
</stop>
<stop stop-color="#bc5940" offset="100%">
</stop>
</linearGradient>
<linearGradient x1="66%" y1="59%" x2="24%" y2="66%" id="id-male-6.6_base_5-26">
<stop stop-color="#ab5c47" offset="0%">
</stop>
<stop stop-color="#ce8467" offset="100%">
</stop>
</linearGradient>
<linearGradient x1="41%" y1="11%" x2="61%" y2="81%" id="id-male-6.6_base_5-27">
<stop stop-color="#de8c76" offset="0%">
</stop>
<stop stop-color="#bb5a4a" offset="100%">
</stop>
</linearGradient>
<linearGradient x1="19%" y1="58%" x2="66%" y2="43%" id="id-male-6.6_base_5-28">
<stop stop-color="#e09d85" offset="0%">
</stop>
<stop stop-color="#c68266" offset="100%">
</stop>
</linearGradient>
<linearGradient x1="73%" y1="50%" x2="30%" y2="53%" id="id-male-6.6_base_5-29">
<stop stop-color="#9b5f42" offset="0%">
</stop>
<stop stop-color="#b67b61" offset="100%">
</stop>
</linearGradient>
<linearGradient x1="31%" y1="0%" x2="50%" y2="100%" id="id-male-6.6_base_5-30">
<stop stop-color="#eea190" offset="0%">
</stop>
<stop stop-color="#e69987" offset="100%">
</stop>
</linearGradient>
<linearGradient x1="29%" y1="43%" x2="65%" y2="100%" id="id-male-6.6_base_5-31">
<stop stop-color="#e4987e" offset="0%">
</stop>
<stop stop-color="#c76d4e" offset="100%">
</stop>
</linearGradient>
<linearGradient x1="13%" y1="78%" x2="84%" y2="50%" id="id-male-6.6_base_5-32">
<stop stop-color="#c87e68" offset="0%">
</stop>
<stop stop-color="#cb715f" offset="100%">
</stop>
</linearGradient>
<linearGradient x1="50%" y1="0%" x2="36%" y2="100%" id="id-male-6.6_base_5-33">
<stop stop-color="#e6977f" offset="0%">
</stop>
<stop stop-color="#de8d74" offset="100%">
</stop>
</linearGradient>
<linearGradient x1="50%" y1="28%" x2="64%" y2="55%" id="id-male-6.6_base_5-34">
<stop stop-color="#e49777" offset="0%">
</stop>
<stop stop-color="#df8e6e" offset="100%">
</stop>
</linearGradient>
<linearGradient x1="40%" y1="55%" x2="62%" y2="71%" id="id-male-6.6_base_5-35">
<stop stop-color="#ce7853" offset="0%">
</stop>
<stop stop-color="#c46c4c" offset="100%">
</stop>
</linearGradient>
<linearGradient x1="9%" y1="37%" x2="88%" y2="55%" id="id-male-6.6_base_5-36">
<stop stop-color="#ad5d46" offset="0%">
</stop>
<stop stop-color="#913a39" offset="100%">
</stop>
</linearGradient>
<linearGradient x1="62%" y1="19%" x2="50%" y2="100%" id="id-male-6.6_base_5-37">
<stop stop-color="#ca7352" offset="0%">
</stop>
<stop stop-color="#ab4d3c" offset="100%">
</stop>
</linearGradient>
<linearGradient x1="45%" y1="18%" x2="51%" y2="67%" id="id-male-6.6_base_5-38">
<stop stop-color="#f1a68e" offset="0%">
</stop>
<stop stop-color="#d47c59" offset="100%">
</stop>
</linearGradient>
<linearGradient x1="50%" y1="0%" x2="50%" y2="100%" id="id-male-6.6_base_5-39">
<stop stop-color="#f1a38c" offset="0%">
</stop>
<stop stop-color="#d07b57" offset="100%">
</stop>
</linearGradient>
<linearGradient x1="45%" y1="50%" x2="58%" y2="50%" id="id-male-6.6_base_5-40">
<stop stop-color="#a84b37" offset="0%">
</stop>
<stop stop-color="#cd7c64" offset="100%">
</stop>
</linearGradient>
<linearGradient x1="33%" y1="74%" x2="77%" y2="42%" id="id-male-6.6_base_5-41">
<stop stop-color="#c47259" offset="0%">
</stop>
<stop stop-color="#c87355" offset="100%">
</stop>
</linearGradient>
<linearGradient x1="63%" y1="59%" x2="38%" y2="59%" id="id-male-6.6_base_5-42">
<stop stop-color="#ce7753" offset="0%">
</stop>
<stop stop-color="#dc8a6a" offset="100%">
</stop>
</linearGradient>
<linearGradient x1="50%" y1="0%" x2="50%" y2="100%" id="id-male-6.6_base_5-43">
<stop stop-color="#cc8672" offset="0%">
</stop>
<stop stop-color="#a24638" offset="100%">
</stop>
</linearGradient>
<linearGradient x1="47%" y1="47%" x2="53%" y2="50%" id="id-male-6.6_base_5-44">
<stop stop-color="#ca9b87" offset="0%">
</stop>
<stop stop-color="#a04c40" offset="100%">
</stop>
</linearGradient>
<linearGradient x1="50%" y1="0%" x2="50%" y2="100%" id="id-male-6.6_base_5-45">
<stop stop-color="#ab5b4f" offset="0%">
</stop>
<stop stop-color="#ab5a53" offset="100%">
</stop>
</linearGradient>
<linearGradient x1="50%" y1="11%" x2="50%" y2="100%" id="id-male-6.6_base_5-46">
<stop stop-color="#b98472" offset="0%">
</stop>
<stop stop-color="#cd8870" offset="100%">
</stop>
</linearGradient>
<linearGradient x1="0%" y1="55%" x2="100%" y2="55%" id="id-male-6.6_base_5-47">
<stop stop-color="#b6746e" offset="0%">
</stop>
<stop stop-color="#9e4248" offset="100%">
</stop>
</linearGradient>
<linearGradient x1="50%" y1="37%" x2="50%" y2="100%" id="id-male-6.6_base_5-48">
<stop stop-color="#c1846e" offset="0%">
</stop>
<stop stop-color="#a32e2c" offset="100%">
</stop>
</linearGradient>
<linearGradient x1="49%" y1="41%" x2="51%" y2="77%" id="id-male-6.6_base_5-49">
<stop stop-color="#9f5844" offset="0%">
</stop>
<stop stop-color="#872f14" offset="59%">
</stop>
<stop stop-color="#a44b3b" offset="100%">
</stop>
</linearGradient>
<linearGradient x1="33%" y1="47%" x2="59%" y2="56%" id="id-male-6.6_base_5-50">
<stop stop-color="#a55b45" offset="0%">
</stop>
<stop stop-color="#763517" offset="100%">
</stop>
</linearGradient>
</defs>
<g transform="translate(304,473)" id="id-male-6.6_base_5-51">
<polygon points="174 662 139 824 137 906 146 1082 171 1154 176 1211 174 1230 175 1284 287 1284 284 1265 308 1195 306 1124 345 952 343 912 353 879 362 881 371 877 383 904 391 970 434 1079 457 1202 475 1252 475 1284 596 1284 600 1225 591 1146 609 1103 612 997 596 842 545 671 539 640 528 606 531 569 509 498 522 403 539 360 539 348 563 464 576 498 585 574 637 704 646 760 646 778 626 822 624 853 631 879 629 901 632 920 637 931 647 931 657 920 655 877 659 867 670 874 672 899 676 903 667 923 644 934 643 945 666 939 664 948 643 960 640 982 657 971 674 969 690 945 701 933 704 926 707 923 713 892 718 871 704 832 696 786 703 768 693 725 693 521 652 425 629 282 626 203 612 175 567 156 548 141 530 139 479 114 422 73 416 42 415 1 285 0 284 73 279 83 242 114 196 137 171 139 155 156 108 175 91 228 91 287 68 431 30 516 23 602 28 725 16 764 21 782 0 874 18 932 49 968 59 970 83 982 83 965 78 960 57 949 55 941 78 948 78 936 66 929 53 923 45 906 51 875 61 866 66 877 63 922 75 927 86 925 93 899 90 877 96 856 96 824 75 778 77 738 108 637 139 562 142 495 159 458 180 358 199 403 203 461 211 504 188 564 191 608" fill="url(#id-male-6.6_base_5-0)" id="id-male-6.6_base_5-52">
</polygon>
<polygon points="91 287 68 431 30 516 23 602 72 688 117 614 98 452 109 469 123 336 102 372 109 294 88 309 109 285" fill="url(#id-male-6.6_base_5-1)" id="id-male-6.6_base_5-52">
</polygon>
<polygon points="383 906 391 972 434 1081 457 1204 475 1254 475 1287 596 1287 600 1226 591 1148 609 1105 612 999 602 904 584 908 584 846 535 683 456 705 382 878" fill="url(#id-male-6.6_base_5-2)" id="id-male-6.6_base_5-52">
</polygon>
<polygon points="137 907 146 1083 171 1156 176 1212 174 1232 175 1286 175 1287 287 1287 284 1266 308 1197 306 1126 345 954 343 923 293 814 263 724 247 711" fill="url(#id-male-6.6_base_5-3)" id="id-male-6.6_base_5-52">
</polygon>
<polygon points="545 673 539 641 528 608 531 571 509 500 522 405 539 361 539 350 563 465 576 500 601 540 660 491 688 529 652 427 629 283 626 205 612 177 568 157 548 142 530 141 479 116 422 75 416 44 415 3 360 3 360 715 462 724" fill="url(#id-male-6.6_base_5-4)" id="id-male-6.6_base_5-52">
</polygon>
<polygon points="83 984 59 972 49 970 21 932 19 903 7 879 0 874 11 824 38 786 38 814 56 786 78 800 91 822 83 879 69 882 63 855 51 877 45 908 47 930 37 930 50 938 53 954 49 960 56 956 83 973" fill="#ce7753" id="id-male-6.6_base_5-57">
</polygon>
<polygon points="66 855 69 882 63 855 51 877 45 908 42 870 58 825" fill="url(#id-male-6.6_base_5-5)" id="id-male-6.6_base_5-57">
</polygon>
<polygon points="83 879 69 882 70 868" fill="#e39273" id="id-male-6.6_base_5-57">
</polygon>
<polygon points="481 376 513 349 558 291 522 368" fill="#a2656c" id="id-male-6.6_base_5-60">
</polygon>
<polygon points="313 697 260 560 246 448 259 424 355 408 361 366 317 404 285 409 267 378 313 343 394 351 431 378 420 404 368 399 371 404 449 421 466 441 449 510 466 547 406 697 358 717" fill="url(#id-male-6.6_base_5-6)" id="id-male-6.6_base_5-61">
</polygon>
<polygon points="410 90 430 82 423 76 416 45 416 7 286 9 286 48 283 76 278 86 244 114 195 139 366 139 390 70 410 26" fill="url(#id-male-6.6_base_5-7)" id="id-male-6.6_base_5-62">
</polygon>
<polygon points="182 180 133 231 97 289 97 231 113 182 165 159" fill="url(#id-male-6.6_base_5-8)" id="id-male-6.6_base_5-63">
</polygon>
<polygon points="346 107 384 55 409 31 414 23 299 31" fill="url(#id-male-6.6_base_5-9)" id="id-male-6.6_base_5-64">
</polygon>
<polygon points="287 93 295 32 323 129" fill="url(#id-male-6.6_base_5-10)" id="id-male-6.6_base_5-65">
</polygon>
<polygon points="336 139 314 151 270 146 224 139" fill="#c0775d" id="id-male-6.6_base_5-66">
</polygon>
<polygon points="410 84 409 136 461 129" fill="url(#id-male-6.6_base_5-11)" id="id-male-6.6_base_5-67">
</polygon>
<polygon points="173 246 167 286 191 351 263 386 328 330 359 330 359 152 348 139 336 139 309 152" fill="url(#id-male-6.6_base_5-12)" id="id-male-6.6_base_5-68">
</polygon>
<polygon points="464 159 516 190 500 159" fill="url(#id-male-6.6_base_5-13)" id="id-male-6.6_base_5-69">
</polygon>
<polygon points="302 31 346 72 382 62 409 37 416 28 416 13" fill="url(#id-male-6.6_base_5-14)" id="id-male-6.6_base_5-70">
</polygon>
<polygon points="263 151 191 202 219 151" fill="#bb6d52" id="id-male-6.6_base_5-71">
</polygon>
<polygon points="154 206 170 170 122 188" fill="#ffb4a1" id="id-male-6.6_base_5-72">
</polygon>
<polygon points="358 285 344 299 323 318 305 354 358 345 354 305" fill="url(#id-male-6.6_base_5-15)" id="id-male-6.6_base_5-73">
</polygon>
<polygon points="260 361 265 387 203 371 191 347" fill="#9e4d3d" id="id-male-6.6_base_5-74">
</polygon>
<polygon points="198 362 181 359 167 284" fill="#760000" id="id-male-6.6_base_5-75">
</polygon>
<polygon points="477 341 477 335 488 326 496 325 509 338 496 348 485 354" fill="#883232" id="id-male-6.6_base_5-76">
</polygon>
<polygon points="314 151 342 220 317 293 237 351 209 318 172 251 185 205 270 146" fill="url(#id-male-6.6_base_5-16)" id="id-male-6.6_base_5-77">
</polygon>
<polygon points="314 151 330 238 209 318 172 251 185 205 270 146" fill="url(#id-male-6.6_base_5-17)" id="id-male-6.6_base_5-77">
</polygon>
<polygon points="314 151 350 205 220 227 185 205 270 146" fill="url(#id-male-6.6_base_5-18)" opacity="0.369" id="id-male-6.6_base_5-77">
</polygon>
<polygon points="211 335 223 322 242 327 244 332 235 353 213 349" fill="#983d37" id="id-male-6.6_base_5-80">
</polygon>
<polygon points="224 339 226 342 226 345 222 349 235 350 242 333 230 338 227 335" fill="#a6607c" id="id-male-6.6_base_5-81">
</polygon>
<polygon points="488 343 491 347 486 351 479 338 489 327 495 327 493 336" fill="#a84e5a" id="id-male-6.6_base_5-82">
</polygon>
<polygon points="485 339 488 343 493 337" fill="#d57d5e" id="id-male-6.6_base_5-83">
</polygon>
<polygon points="359 162 359 291 406 325 455 347 529 267 463 182 415 166" fill="url(#id-male-6.6_base_5-19)" id="id-male-6.6_base_5-84">
</polygon>
<polygon points="359 178 359 281 391 302 391 249 489 270 461 189 415 166" fill="url(#id-male-6.6_base_5-20)" id="id-male-6.6_base_5-84">
</polygon>
<polygon points="359 178 359 219 472 220 461 189 415 166 371 163" fill="url(#id-male-6.6_base_5-21)" id="id-male-6.6_base_5-84">
</polygon>
<polygon points="358 178 372 168 440 156 413 137 378 158 411 80 396 60 358 146" fill="url(#id-male-6.6_base_5-22)" id="id-male-6.6_base_5-87">
</polygon>
<polygon points="346 140 358 152 372 129 400 48 369 86 364 130" fill="#b66b53" id="id-male-6.6_base_5-88">
</polygon>
<polygon points="591 281 601 226 559 159 514 159 523 138 499 156 571 263" fill="url(#id-male-6.6_base_5-23)" id="id-male-6.6_base_5-89">
</polygon>
<polygon points="609 298 626 332 629 285 627 227 614 207 617 251" fill="#9a84a9" id="id-male-6.6_base_5-90">
</polygon>
<polygon points="554 159 567 157 612 177 614 192 579 175 603 207 601 226" fill="#c2694b" id="id-male-6.6_base_5-91">
</polygon>
<polygon points="625 840 700 762 688 738 679 784 648 776 626 822" fill="url(#id-male-6.6_base_5-24)" id="id-male-6.6_base_5-92">
</polygon>
<polygon points="648 862 648 845 661 825 661 870 654 878 657 922 652 929 637 929 632 914 632 893 632 877 644 888" fill="#8f3209" id="id-male-6.6_base_5-93">
</polygon>
<polygon points="554 375 577 333 607 451 594 508 568 462" fill="#c86d5d" id="id-male-6.6_base_5-94">
</polygon>
<polygon points="641 823 648 826 697 896 713 873 682 781" fill="url(#id-male-6.6_base_5-25)" id="id-male-6.6_base_5-92">
</polygon>
<polygon points="623 326 643 425 633 431 693 523 652 427 636 326 625 315" fill="#9e7994" id="id-male-6.6_base_5-96">
</polygon>
<polygon points="628 274 638 339 623 314" fill="#8e465a" id="id-male-6.6_base_5-97">
</polygon>
<polygon points="693 523 695 567 685 525 618 416 633 431" fill="#913f53" id="id-male-6.6_base_5-98">
</polygon>
<polygon points="640 463 599 539 601 571 634 655 646 703 650 754 658 640 660 491" fill="#ca6e4e" id="id-male-6.6_base_5-99">
</polygon>
<polygon points="610 531 648 646 652 546 638 479" fill="#dc8a72" id="id-male-6.6_base_5-99">
</polygon>
<polygon points="693 748 677 730 677 700 660 491 685 525 691 552 684 727" fill="#ac4536" id="id-male-6.6_base_5-101">
</polygon>
<polygon points="691 746 703 768 693 727 695 567 691 551 683 727" fill="#95a2d2" id="id-male-6.6_base_5-102">
</polygon>
<polygon points="260 559 310 683 355 716 263 713 238 685 195 582" fill="url(#id-male-6.6_base_5-26)" id="id-male-6.6_base_5-103">
</polygon>
<polygon points="637 931 636 919 639 914 653 914 653 922 651 929 648 931 644 933" fill="#a84536" id="id-male-6.6_base_5-104">
</polygon>
<polygon points="637 861 637 882 641 890 653 886 649 861" fill="#b14937" id="id-male-6.6_base_5-105">
</polygon>
<polygon points="691 871 693 912 688 936 669 956 671 965 696 924 696 909 705 877" fill="#b85640" id="id-male-6.6_base_5-106">
</polygon>
<polygon points="703 768 684 788 693 837 712 873 702 908 701 933 707 925 718 873 704 834 697 788" fill="#91350b" id="id-male-6.6_base_5-107">
</polygon>
<polygon points="667 939 643 946 644 934 657 928 667 922 676 903 672 899 670 874 660 870 660 854 671 867 680 873 680 902 677 920" fill="#7a231b" id="id-male-6.6_base_5-108">
</polygon>
<polygon points="361 510 359 634 426 561 420 535" fill="url(#id-male-6.6_base_5-27)" opacity="0.626" id="id-male-6.6_base_5-109">
</polygon>
<polygon points="319 403 289 399 268 380 313 343 361 348 362 372" fill="url(#id-male-6.6_base_5-28)" id="id-male-6.6_base_5-110">
</polygon>
<polygon points="171 141 168 151 180 151 204 139 196 138" fill="url(#id-male-6.6_base_5-29)" id="id-male-6.6_base_5-111">
</polygon>
<polygon points="359 308 362 360 382 334" fill="#dd9481" opacity="0.625" id="id-male-6.6_base_5-112">
</polygon>
<polygon points="360 546 360 584 387 551 374 540" fill="url(#id-male-6.6_base_5-30)" opacity="0.626" id="id-male-6.6_base_5-113">
</polygon>
<polygon points="346 542 360 547 373 540 360 534" fill="#86000c" id="id-male-6.6_base_5-114">
</polygon>
<polygon points="325 545 277 503 259 561 308 579" fill="url(#id-male-6.6_base_5-31)" opacity="0.758" id="id-male-6.6_base_5-115">
</polygon>
<polygon points="389 499 460 467 449 510 404 520" fill="url(#id-male-6.6_base_5-32)" id="id-male-6.6_base_5-116">
</polygon>
<polygon points="364 491 361 403 420 428" fill="url(#id-male-6.6_base_5-33)" opacity="0.758" id="id-male-6.6_base_5-117">
</polygon>
<polygon points="262 446 333 446 323 469 279 492" fill="url(#id-male-6.6_base_5-34)" opacity="0.758" id="id-male-6.6_base_5-118">
</polygon>
<polygon points="259 425 279 496 259 561 236 528 213 443 227 425 243 447" fill="url(#id-male-6.6_base_5-35)" id="id-male-6.6_base_5-119">
</polygon>
<polygon points="412 343 444 374 466 383 499 351 447 354 416 339" fill="url(#id-male-6.6_base_5-36)" id="id-male-6.6_base_5-120">
</polygon>
<polygon points="164 252 163 278 128 284" fill="#953f32" id="id-male-6.6_base_5-121">
</polygon>
<polygon points="58 478 88 441 88 416 69 430 66 456" fill="url(#id-male-6.6_base_5-37)" id="id-male-6.6_base_5-122">
</polygon>
<polygon points="76 684 69 634 61 517 89 474 111 569" fill="url(#id-male-6.6_base_5-38)" id="id-male-6.6_base_5-123">
</polygon>
<polygon points="53 489 47 539 69 635 76 684 53 760 40 781 16 766 28 727 23 604 28 544" fill="url(#id-male-6.6_base_5-39)" id="id-male-6.6_base_5-124">
</polygon>
<polygon points="136 452 127 497 153 460 177 340 170 300" fill="#a34532" id="id-male-6.6_base_5-125">
</polygon>
<polygon points="181 359 159 460 143 497 142 514 123 532 109 514 108 490 127 497 153 460 177 340" fill="#943f3a" id="id-male-6.6_base_5-125">
</polygon>
<polygon points="38 747 28 772 38 788 44 772" fill="#e39275" id="id-male-6.6_base_5-127">
</polygon>
<polygon points="359 379 342 413 361 444 377 417" fill="url(#id-male-6.6_base_5-40)" id="id-male-6.6_base_5-128">
</polygon>
<polygon points="196 581 260 561 229 519" fill="url(#id-male-6.6_base_5-41)" id="id-male-6.6_base_5-129">
</polygon>
<polygon points="74 929 66 925 69 909 78 905 86 912 83 928" fill="url(#id-male-6.6_base_5-42)" id="id-male-6.6_base_5-130">
</polygon>
<polygon points="20 903 7 880 21 851 28 871" fill="#dc8a6a" id="id-male-6.6_base_5-131">
</polygon>
<polygon points="218 1123 203 1040 191 913 171 1090 182 1169 230 1208 261 1237 270 1213 234 1175 212 1157 272 1191 281 1169" fill="url(#id-male-6.6_base_5-43)" opacity="0.808" id="id-male-6.6_base_5-132">
</polygon>
<polygon points="182 1207 181 1155 213 1106 236 1166 230 1210" fill="#b15d4d" id="id-male-6.6_base_5-133">
</polygon>
<polygon points="187 902 211 1137 227 1161 275 1187 299 1137 272 1009 299 918 269 791 211 836" fill="url(#id-male-6.6_base_5-44)" id="id-male-6.6_base_5-134">
</polygon>
<polygon points="288 1079 311 1040 311 942 295 903 264 1019 275 1188 301 1137" fill="url(#id-male-6.6_base_5-45)" id="id-male-6.6_base_5-135">
</polygon>
<polygon points="584 908 604 1008 608 1106 614 998 599 887" fill="#948ab4" id="id-male-6.6_base_5-136">
</polygon>
<polygon points="430 886 488 1140 535 1115 561 925 566 886 536 816 500 786" fill="url(#id-male-6.6_base_5-46)" opacity="0.792" id="id-male-6.6_base_5-137">
</polygon>
<polygon points="581 921 588 1011 584 1112 576 1162 544 1046 566 886" fill="url(#id-male-6.6_base_5-47)" id="id-male-6.6_base_5-138">
</polygon>
<polygon points="561 1247 518 1200 472 1112 494 931 505 931 594 1188 579 1244" fill="url(#id-male-6.6_base_5-48)" id="id-male-6.6_base_5-139">
</polygon>
<polygon points="531 1221 539 1263 536 1269 516 1287 509 1287 500 1263 513 1199 488 1226 462 1170 472 1101 427 1010 398 877 469 771 518 739 536 818 500 787 433 890 477 1078 534 1212" fill="url(#id-male-6.6_base_5-49)" id="id-male-6.6_base_5-140">
</polygon>
<polygon points="321 1058 284 852 258 721 266 733 371 879 362 883 354 881 343 914 345 954" fill="#99513d" id="id-male-6.6_base_5-141">
</polygon>
<polygon points="429 1068 424 875 536 705 454 704 380 865 384 906 391 972" fill="#9b4949" opacity="0.394" id="id-male-6.6_base_5-142">
</polygon>
<polygon points="175 1262 194 1287 206 1287 225 1226 213 1249 175 1221 174 1232" fill="#792e06" id="id-male-6.6_base_5-143">
</polygon>
<polygon points="528 1227 554 1234 569 1169 549 1168" fill="#b9645b" id="id-male-6.6_base_5-144">
</polygon>
<polygon points="546 678 545 672 539 641 528 608 531 571 509 500 522 405 539 361 539 350 547 389 542 330 558 289 517 369 528 369 517 411 499 442 509 465 488 531 507 525 522 585 449 724" fill="#792e2e" id="id-male-6.6_base_5-52">
</polygon>
<polygon points="402 722 490 609 522 585 449 723" fill="#9e4c3c" id="id-male-6.6_base_5-146">
</polygon>
<polygon points="174 664 139 826 137 907 139 937 238 690 352 886 354 881 362 883 371 879 383 906 471 773 548 712 596 844 545 673 539 641 478 697 449 723 278 705 232 657 188 566 191 610" fill="url(#id-male-6.6_base_5-50)" id="id-male-6.6_base_5-52">
</polygon>
<polygon points="139 836 225 709 167 697 139 826" fill="#8f361d" id="id-male-6.6_base_5-148">
</polygon>
<polygon points="518 734 596 843 547 678" fill="#711c13" id="id-male-6.6_base_5-149">
</polygon>
<polygon points="415 778 447 726 314 744 329 762" fill="#af5544" opacity="0.52" id="id-male-6.6_base_5-52">
</polygon>
<polygon points="411 685 463 666 456 573" fill="#823a34" id="id-male-6.6_base_5-151">
</polygon>
</g>
<defs>
<linearGradient x1="53%" y1="5%" x2="47%" y2="91%" id="id-male-6.8_face_5-0">
<stop stop-color="#f6a693" offset="0%">
</stop>
<stop stop-color="#eb8e76" offset="82%">
</stop>
<stop stop-color="#f3b197" offset="100%">
</stop>
</linearGradient>
<linearGradient x1="62%" y1="61%" x2="50%" y2="36%" id="id-male-6.8_face_5-1">
<stop stop-color="#cc4e3e" offset="0%">
</stop>
<stop stop-color="#a33c30" offset="100%">
</stop>
</linearGradient>
<linearGradient x1="50%" y1="13%" x2="57%" y2="81%" id="id-male-6.8_face_5-2">
<stop stop-color="#ce6f5a" offset="0%">
</stop>
<stop stop-color="#cc4e3e" offset="52%">
</stop>
<stop stop-color="#ffa791" offset="100%">
</stop>
</linearGradient>
<linearGradient x1="50%" y1="0%" x2="54%" y2="88%" id="id-male-6.8_face_5-3">
<stop stop-color="#b36e6c" offset="0%">
</stop>
<stop stop-color="#bb6e6f" offset="100%">
</stop>
</linearGradient>
<linearGradient x1="36%" y1="75%" x2="36%" y2="18%" id="id-male-6.8_face_5-4">
<stop stop-color="#85433d" offset="0%">
</stop>
<stop stop-color="#590f13" offset="100%">
</stop>
</linearGradient>
<linearGradient x1="48%" y1="84%" x2="4%" y2="84%" id="id-male-6.8_face_5-5">
<stop stop-color="#b6826b" offset="0%">
</stop>
<stop stop-color="#8f4e43" offset="100%">
</stop>
</linearGradient>
<linearGradient x1="23%" y1="68%" x2="57%" y2="19%" id="id-male-6.8_face_5-6">
<stop stop-color="#cb927f" offset="0%">
</stop>
<stop stop-color="#e6b7a1" offset="100%">
</stop>
</linearGradient>
<linearGradient x1="59%" y1="57%" x2="48%" y2="96%" id="id-male-6.8_face_5-7">
<stop stop-color="#bb7a65" offset="0%">
</stop>
<stop stop-color="#c2826a" offset="100%">
</stop>
</linearGradient>
<linearGradient x1="14%" y1="53%" x2="88%" y2="46%" id="id-male-6.8_face_5-8">
<stop stop-color="#c9897b" offset="0%">
</stop>
<stop stop-color="#c38874" offset="25%">
</stop>
<stop stop-color="#cc9781" offset="66%">
</stop>
<stop stop-color="#d6a18a" offset="100%">
</stop>
</linearGradient>
<linearGradient x1="100%" y1="24%" x2="44%" y2="69%" id="id-male-6.8_face_5-9">
<stop stop-color="#e29985" offset="0%">
</stop>
<stop stop-color="#e19883" offset="100%">
</stop>
</linearGradient>
<linearGradient x1="24%" y1="33%" x2="50%" y2="82%" id="id-male-6.8_face_5-10">
<stop stop-color="#e6ae91" offset="0%">
</stop>
<stop stop-color="#ffdabd" offset="49%">
</stop>
<stop stop-color="#e8a490" offset="100%">
</stop>
</linearGradient>
<linearGradient x1="90%" y1="75%" x2="18%" y2="60%" id="id-male-6.8_face_5-11">
<stop stop-color="#bc8770" offset="0%">
</stop>
<stop stop-color="#874f3d" offset="100%">
</stop>
</linearGradient>
<linearGradient x1="0%" y1="50%" x2="33%" y2="53%" id="id-male-6.8_face_5-12">
<stop stop-color="#764b36" offset="0%">
</stop>
<stop stop-color="#ae795f" offset="100%">
</stop>
</linearGradient>
<linearGradient x1="60%" y1="88%" x2="92%" y2="78%" id="id-male-6.8_face_5-13">
<stop stop-color="#dfa491" offset="0%">
</stop>
<stop stop-color="#f8baa3" offset="100%">
</stop>
</linearGradient>
</defs>
<g transform="translate(548,259)" id="id-male-6.8_face_5-14">
<g id="id-male-6.8_face_5-15">
<g transform="translate(0,121)" id="id-male-6.8_face_5-16">
<polygon points="199 13 214 3 222 9 221 25 214 38 214 43 210 54 208 65 197 70 190 64" fill="url(#id-male-6.8_face_5-0)" id="id-male-6.8_face_5-17">
</polygon>
<polygon points="197 24 209 14 216 9 219 10 220 22 214 37 195 43" fill="url(#id-male-6.8_face_5-1)" id="id-male-6.8_face_5-18">
</polygon>
<polygon points="203 38 208 34 199 25 203 22 209 23 207 18 212 16 214 38 214 43 213 48 207 51 201 46" fill="url(#id-male-6.8_face_5-2)" id="id-male-6.8_face_5-17">
</polygon>
<polygon points="212 5 214 3 222 9 222 10 219 10 216 9" fill="#fdd3b7" id="id-male-6.8_face_5-17">
</polygon>
<polygon points="208 65 197 70 190 64 194 42 199 50 193 62 199 67" fill="#a13c31" id="id-male-6.8_face_5-17">
</polygon>
<polygon points="203 62 202 54 211 50" fill="#f3b197" id="id-male-6.8_face_5-22">
</polygon>
<polygon points="196 50 202 51 203 42 196 46" fill="#eb8e76" id="id-male-6.8_face_5-23">
</polygon>
<polygon points="194 45 199 47 202 45 202 32 197 31" fill="#a13c31" id="id-male-6.8_face_5-24">
</polygon>
<path d="M 30 70 C 24 70 20 69 19 68 C 17 66 12 52 8 46 C 4 39 2 38 1 33 C 0 30 0 21 1 6 L 8 0 L 23 9 L 30 70 Z" fill="url(#id-male-6.8_face_5-3)" id="id-male-6.8_face_5-25">
</path>
<polygon points="8 6 2 6 7 3 10 2 23 9 19 14" fill="#efaab6" id="id-male-6.8_face_5-25">
</polygon>
<path d="M 26 68 C 23 69 20 69 19 68 C 17 66 12 52 8 46 C 7 44 6 43 6 42 C 9 45 10 47 12 48 C 13 50 14 52 16 56 L 26 68 Z" fill="#995356" id="id-male-6.8_face_5-25">
</path>
<polygon points="26 68 29 65 27 53 20 61" fill="#7b3e35" id="id-male-6.8_face_5-25">
</polygon>
<path d="M 23 19 C 12 12 6 9 5 9 C 3 10 2 18 2 33 L 17 53 L 26 52 L 23 19 Z" fill="url(#id-male-6.8_face_5-4)" id="id-male-6.8_face_5-29">
</path>
<polygon points="12 17 19 19 18 26 15 28 22 38 21 49 12 44" fill="#773a2e" id="id-male-6.8_face_5-30">
</polygon>
<path d="M 27 53 C 16 50 10 47 8 42 C 6 38 8 30 12 17 L 15 23 C 15 36 14 42 15 43 C 15 45 18 46 25 48 L 27 53 Z" fill="#ce7b8b" id="id-male-6.8_face_5-31">
</path>
<polygon points="11 31 19 26 19 18 14 20 12 18" fill="#c07080" id="id-male-6.8_face_5-32">
</polygon>
<polygon points="20 46 17 42 22 37 25 48" fill="#6a3032" id="id-male-6.8_face_5-33">
</polygon>
</g>
<g transform="translate(18,0)" id="id-male-6.8_face_5-34">
<path d="M 20 231 C 18 227 11 201 5 153 C 3 140 2 128 1 117 C -1 91 4 63 8 49 C 9 46 16 35 16 34 C 30 20 56 0 94 0 C 157 0 178 45 181 51 C 183 57 183 111 181 144 C 178 177 162 232 160 235 C 158 239 124 261 119 264 C 113 266 74 267 69 264 C 64 261 22 235 20 231 Z" fill="url(#id-male-6.8_face_5-5)" id="id-male-6.8_face_5-35">
</path>
<polygon points="73 112 82 117 159 110 163 117 160 129 170 143 176 147 176 93 157 34 129 14 67 25 49 80" fill="url(#id-male-6.8_face_5-6)" id="id-male-6.8_face_5-36">
</polygon>
<polygon points="161 62 154 71 156 103 169 107 175 101 174 71" fill="#d69e7c" id="id-male-6.8_face_5-37">
</polygon>
<path d="M 88 1 C 90 0 92 0 94 0 C 157 0 178 45 181 51 C 183 57 183 111 181 144 C 178 177 162 232 160 235 C 158 239 124 261 119 264 C 113 266 74 267 69 264 C 68 263 62 260 55 256 L 88 235 L 130 216 L 172 163 L 174 118 L 172 94 L 160 106 L 169 85 L 169 76 L 147 55 L 134 23 L 93 25 L 52 65 L 58 96 L 27 113 L 21 131 L 15 125 L 9 131 L 17 98 L 27 106 L 21 88 L 21 58 L 88 1 Z" fill="url(#id-male-6.8_face_5-7)" id="id-male-6.8_face_5-35">
</path>
<polygon points="89 29 62 55 21 58 63 22" fill="#cd8681" id="id-male-6.8_face_5-35">
</polygon>
<path d="M 182 73 C 183 94 183 123 181 144 C 178 177 162 232 160 235 L 156 212 L 178 157 L 181 128 L 174 142 L 182 73 Z" fill="#97594d" id="id-male-6.8_face_5-35">
</path>
<polygon points="47 249 66 240 62 230 73 227 88 242 63 259" fill="#b57d68" id="id-male-6.8_face_5-41">
</polygon>
<path d="M 20 231 C 20 230 19 229 18 226 C 24 231 29 235 33 238 C 42 244 56 253 76 265 C 73 265 70 265 69 264 C 64 261 22 235 20 231 Z" fill="#91463e" id="id-male-6.8_face_5-35">
</path>
<path d="M 1 117 C -1 91 4 63 8 49 C 9 46 16 35 16 34 C 22 28 30 21 41 15 L 11 57 L 14 96 L 1 117 Z" fill="#af7e8d" id="id-male-6.8_face_5-35">
</path>
<path d="M 5 153 C 3 140 2 128 1 117 C 0 108 1 98 1 89 L 8 127 L 5 153 Z" fill="#793d31" id="id-male-6.8_face_5-35">
</path>
<polygon points="37 103 56 94 77 112 67 117" fill="#bc7c6e" id="id-male-6.8_face_5-45">
</polygon>
<path d="M 62 53 C 78 52 89 52 97 53 C 105 54 116 56 131 61 L 121 101 L 93 85 L 69 102 L 57 96 L 51 66 L 62 53 Z" fill="url(#id-male-6.8_face_5-8)" id="id-male-6.8_face_5-46">
</path>
<polygon points="108 55 115 47 137 44 144 55 126 62" fill="#f2c7b2" id="id-male-6.8_face_5-47">
</polygon>
<polygon points="21 172 33 171 11 143 9 158" fill="#81453f" id="id-male-6.8_face_5-48">
</polygon>
<polygon points="143 203 142 188 148 173 172 138" fill="#d0826e" id="id-male-6.8_face_5-49">
</polygon>
<polygon points="147 229 151 227 174 158 175 115 170 142 141 202 141 217" fill="#bb7e66" id="id-male-6.8_face_5-50">
</polygon>
<polygon points="117 243 120 255 149 229 144 209" fill="#c4846c" id="id-male-6.8_face_5-51">
</polygon>
</g>
</g>
<polygon points="115 123 97 120 73 163 66 188 109 172" fill="#9d5b53" id="id-male-6.8_face_5-52">
</polygon>
<polygon points="118 195 153 223 165 211 165 180 158 177 122 178" fill="url(#id-male-6.8_face_5-9)" id="id-male-6.8_face_5-53">
</polygon>
<polygon points="31 148 43 115 58 140 39 146 41 161" fill="#b2735d" id="id-male-6.8_face_5-54">
</polygon>
<polygon points="60 190 82 178 90 185 91 188 102 197 78 213 79 195" fill="#c08175" id="id-male-6.8_face_5-55">
</polygon>
<polygon points="51 172 66 172 85 164 98 140 99 125 58 140 39 146 41 161" fill="#c78371" id="id-male-6.8_face_5-54">
</polygon>
<polygon points="85 164 98 140 98 155" fill="#ae6c5d" id="id-male-6.8_face_5-54">
</polygon>
<polygon points="56 182 50 169 70 159 77 165 64 172" fill="#dba392" id="id-male-6.8_face_5-58">
</polygon>
<polygon points="56 182 50 169 64 172" fill="#d69a8b" id="id-male-6.8_face_5-58">
</polygon>
<polygon points="56 182 58 213 79 195 68 189 81 165 64 172" fill="#b76b5e" id="id-male-6.8_face_5-58">
</polygon>
<polygon points="70 222 58 213 79 195 85 215" fill="#d48e7c" id="id-male-6.8_face_5-58">
</polygon>
<polygon points="135 167 142 159 150 162 190 143 164 178 161 188 153 186 150 177" fill="url(#id-male-6.8_face_5-10)" id="id-male-6.8_face_5-62">
</polygon>
<polygon points="128 153 149 163 190 143 183 135 130 138" fill="#e0a587" id="id-male-6.8_face_5-62">
</polygon>
<polygon points="132 172 150 196 153 183 150 176 137 165 140 161 130 166" fill="#cf816d" id="id-male-6.8_face_5-64">
</polygon>
<polygon points="111 184 118 195 127 184 130 181 117 179" fill="#b7684d" id="id-male-6.8_face_5-65">
</polygon>
<polygon points="92 187 101 197 105 187" fill="#a35e51" id="id-male-6.8_face_5-66">
</polygon>
<polygon points="118 189 120 183 132 178 137 180 122 189" fill="#7e453d" id="id-male-6.8_face_5-67">
</polygon>
<path d="M 86 178 L 96 173 L 90 168 C 88 170 87 172 86 173 C 86 174 86 176 86 178 Z" fill="#954839" id="id-male-6.8_face_5-68">
</path>
<polygon points="92 184 86 178 112 175 113 183 118 194 110 198 102 194 105 187 95 187" fill="#86443a" id="id-male-6.8_face_5-69">
</polygon>
<polygon points="86 178 95 180 104 181 112 175 100 171" fill="#c67c6a" id="id-male-6.8_face_5-70">
</polygon>
<polygon points="112 176 119 172 131 167 134 171 134 178 127 180 113 183" fill="#b06966" id="id-male-6.8_face_5-71">
</polygon>
<polyline points="90 184 93 188 97 187 102 183 96 180 89 184" fill="#5b221d" id="id-male-6.8_face_5-72">
</polyline>
<polygon points="92 120 95 110 113 100 132 109 135 130 117 123" fill="#b6826b" id="id-male-6.8_face_5-73">
</polygon>
<g transform="translate(31,92)" id="id-male-6.8_face_5-74">
<polygon points="4 42 24 55 56 56 69 30 44 8 1 22" fill="url(#id-male-6.8_face_5-11)" id="id-male-6.8_face_5-75">
</polygon>
<polygon points="59 39 59 47 67 42 68 39 63 37" fill="#ccb2be" id="id-male-6.8_face_5-76">
</polygon>
<polygon points="29 50 47 45 60 41 58 46 45 53 31 54" fill="#b97a79" id="id-male-6.8_face_5-77">
</polygon>
<polygon points="46 44 44 53 58 47 55 43 62 42 63 39 58 39" fill="#8f6357" id="id-male-6.8_face_5-78">
</polygon>
<polygon points="5 37 21 25 36 23 38 16 64 21 69 31 64 39 13 44" fill="#754335" id="id-male-6.8_face_5-79">
</polygon>
<polygon points="30 34 31 27 37 25 41 32" fill="#9d6544" id="id-male-6.8_face_5-80">
</polygon>
<path d="M 19 33 C 33 27 42 25 46 26 C 50 27 56 31 65 37 L 64 28 C 52 23 44 21 41 22 C 37 22 30 26 19 33 Z" fill="#5b2a23" id="id-male-6.8_face_5-81">
</path>
<polygon points="93 88 103 85 103 89 96 91" fill="#6b3025" id="id-male-6.8_face_5-82">
</polygon>
<g transform="translate(37,37) rotate(3) translate(-37,-37) translate(12,28)" id="id-male-6.8_face_5-83">
<path d="M 6 14 L 14 16 L 23 15 C 20 15 18 14 17 14 C 15 13 14 12 13 10 L 6 14 Z" fill="#783832" id="id-male-6.8_face_5-84">
</path>
<path d="M 14 10 C 15 13 18 15 22 15 C 25 16 31 15 36 14 C 38 14 42 12 47 10 C 41 5 35 2 30 2 C 25 2 20 5 14 10 Z" fill="#ffe4f4" id="id-male-6.8_face_5-85">
</path>
<path d="M 14 10 C 14 11 15 12 16 13 C 22 8 27 5 31 5 C 33 5 37 6 42 9 L 42 12 C 43 12 45 11 47 10 C 41 5 35 2 30 2 C 25 2 20 5 14 10 Z" fill="#000000" fill-opacity="0.675" id="id-male-6.8_face_5-85">
</path>
<path d="M 20 8 C 20 13 23 15 30 15 C 36 15 39 12 38 5 C 34 4 31 3 28 4 C 26 4 23 6 20 8 Z" fill="#36110a" id="id-male-6.8_face_5-87">
</path>
<path d="M 21 9 C 21 13 24 14 29 14 C 35 14 37 12 37 7 C 33 5 31 4 28 4 C 26 5 24 6 21 9 Z" fill="#666531" id="id-male-6.8_face_5-87">
</path>
<path d="M 26 6 C 26 8 26 10 27 10 C 29 11 31 11 32 10 C 33 9 33 8 33 5 L 26 6 Z" fill="#36110a" id="id-male-6.8_face_5-89">
</path>
<polygon points="22 9 22 11 28 9 27 7" fill="#d7b4bf" id="id-male-6.8_face_5-90">
</polygon>
<path d="M 6 14 L 0 9 C 15 3 26 0 32 0 C 36 0 42 4 49 9 C 50 9 50 10 50 11 L 45 11 C 43 7 39 6 33 5 C 26 5 17 8 6 14 Z" fill="#36110a" id="id-male-6.8_face_5-91">
</path>
</g>
<polygon points="64 13 73 14 64 21 51 18" fill="#6e423b" id="id-male-6.8_face_5-92">
</polygon>
<polygon points="0 23 17 18 39 17 50 20 58 18 68 11 59 7 50 11 54 7 51 7 54 6 19 6 2 21" fill="#3a1f20" id="id-male-6.8_face_5-93">
</polygon>
<polygon points="20 5 25 1 40 4" fill="#3d2c29" id="id-male-6.8_face_5-94">
</polygon>
<polygon points="127 55 165 38 159 20 98 12 92 18 93 21 88 27 84 26 101 48" fill="url(#id-male-6.8_face_5-12)" id="id-male-6.8_face_5-95">
</polygon>
<polygon points="113 31 117 24 113 18 124 15 131 18 124 24 126 31" fill="#ce9888" id="id-male-6.8_face_5-96">
</polygon>
<polygon points="136 35 132 24 138 16 150 18 140 26 143 38" fill="#9e6645" id="id-male-6.8_face_5-97">
</polygon>
<polygon points="102 42 108 49 127 56 129 54 129 49 116 39" fill="#a96957" id="id-male-6.8_face_5-98">
</polygon>
<polygon points="129 49 137 42 116 39" fill="#c88c7b" id="id-male-6.8_face_5-98">
</polygon>
<polygon points="108 49 117 52 123 44 116 39 108 41" fill="#96524f" id="id-male-6.8_face_5-98">
</polygon>
<polygon points="104 44 99 44 95 42 101 38" fill="#c2908b" id="id-male-6.8_face_5-101">
</polygon>
<polygon points="139 42 146 44 151 41 151 37 157 34 165 52 166 51 166 26 161 16 151 36" fill="#96534f" id="id-male-6.8_face_5-102">
</polygon>
<path d="M 99 37 L 93 28 L 99 22 L 97 17 L 113 17 L 117 22 C 123 23 128 23 130 24 C 133 25 139 28 148 34 C 135 28 125 25 119 25 C 113 25 106 29 99 37 Z" fill="#643827" id="id-male-6.8_face_5-103">
</path>
<g transform="translate(125,37) rotate(-3) translate(-124,-37) translate(100,28)" id="id-male-6.8_face_5-104">
<path d="M 5 9 C 8 13 13 15 19 15 C 26 15 31 14 35 11 C 31 5 26 2 21 2 C 15 2 10 5 5 9 Z" fill="#ffe4f3" id="id-male-6.8_face_5-105">
</path>
<path d="M 5 9 C 6 10 7 11 7 11 C 12 7 16 5 21 5 C 25 5 29 8 32 13 C 33 12 34 12 35 11 C 31 5 26 2 21 2 C 15 2 10 5 5 9 Z" fill="#000000" fill-opacity="0.496" id="id-male-6.8_face_5-105">
</path>
<path d="M 12 6 C 13 11 14 14 15 14 C 16 15 24 16 26 15 C 27 15 28 12 30 8 C 25 5 22 4 19 3 C 17 3 14 4 12 6 Z" fill="#311011" id="id-male-6.8_face_5-107">
</path>
<path d="M 13 9 C 14 11 14 13 15 13 C 16 14 23 15 25 15 C 26 14 27 12 28 9 C 26 8 24 7 21 7 C 19 6 16 7 13 9 Z" fill="#615e2d" id="id-male-6.8_face_5-107">
</path>
<polygon points="17 7 18 11 23 11 25 7 21 6" fill="#311011" id="id-male-6.8_face_5-109">
</polygon>
<polygon points="14 10 20 8 20 5 14 7" fill="#d4aebc" id="id-male-6.8_face_5-110">
</polygon>
<polygon points="3 13 6 10 8 13" fill="#a03b40" id="id-male-6.8_face_5-111">
</polygon>
<polygon points="3 13 1 14 4 15 14 16 19 18 41 15 35 11 29 15 24 15 14 15 9 13" fill="#853f3b" id="id-male-6.8_face_5-112">
</polygon>
<path d="M 3 13 C 1 12 0 11 1 11 C 1 10 8 1 21 0 C 26 0 33 3 40 6 C 42 7 45 8 49 10 L 41 15 C 37 13 35 11 34 11 C 29 7 25 5 21 5 C 14 5 9 7 3 13 Z" fill="#311011" id="id-male-6.8_face_5-113">
</path>
</g>
<polygon points="89 9 92 17 103 5" fill="#633e3b" id="id-male-6.8_face_5-114">
</polygon>
<polygon points="92 17 100 17 107 20 124 17 159 20 145 9 110 5 100 12 103 4" fill="#271716" id="id-male-6.8_face_5-115">
</polygon>
<polygon points="125 5 143 7 139 4" fill="#3a2a25" id="id-male-6.8_face_5-116">
</polygon>
</g>
<polygon points="104 122 102 115 114 110 114 123" fill="#cb8784" id="id-male-6.8_face_5-73">
</polygon>
<polygon points="116 182 124 177 127 180 130 182" fill="#320f10" id="id-male-6.8_face_5-118">
</polygon>
<polygon points="92 184 91 182 95 178 104 181 101 183 95 182" fill="#2c0e0f" id="id-male-6.8_face_5-119">
</polygon>
<polygon points="133 181 138 184 140 184 135 176" fill="#ab6150" id="id-male-6.8_face_5-120">
</polygon>
<polygon points="101 183 111 184 113 183 104 181" fill="#572a26" id="id-male-6.8_face_5-121">
</polygon>
<polygon points="107 125 112 123 123 126 122 133 128 151 130 147 147 156 129 167" fill="url(#id-male-6.8_face_5-13)" id="id-male-6.8_face_5-122">
</polygon>
<polygon points="119 172 129 176 132 173 131 168 128 165 119 143 115 146" fill="#f4b9a0" id="id-male-6.8_face_5-123">
</polygon>
<polygon points="111 125 117 125 116 132 122 141 119 150 117 148" fill="#f7cecb" id="id-male-6.8_face_5-124">
</polygon>
<path d="M 88 169 C 85 172 84 175 85 178 C 85 181 88 183 91 184 C 89 181 87 179 87 177 C 86 176 87 173 88 169 Z" fill="#7d3c32" id="id-male-6.8_face_5-125">
</path>
<path d="M 131 170 C 130 172 129 174 130 176 C 131 179 133 181 137 182 C 134 179 133 177 132 176 C 132 174 132 172 133 169 L 131 170 Z" transform="translate(133,175) rotate(-158) translate(-133,-175)" fill="#964f41" id="id-male-6.8_face_5-125">
</path>
<path d="M 98 171 L 110 176 L 119 172 L 115 131 L 111 125 L 104 125 L 104 138 C 102 145 101 151 100 155 C 100 159 99 164 98 171 Z" fill="#d8908f" id="id-male-6.8_face_5-127">
</path>
<polygon points="115 131 111 125 108 125 106 142 109 151" fill="#e7af9d" id="id-male-6.8_face_5-127">
</polygon>
<polygon points="103 173 110 176 120 172 115 131" fill="#dc9898" id="id-male-6.8_face_5-127">
</polygon>
<polygon points="103 173 110 176 120 172 107 159" fill="#e3a8a6" id="id-male-6.8_face_5-127">
</polygon>
<polygon points="103 173 110 176 120 172 118 170 110 173" fill="#fad2c5" id="id-male-6.8_face_5-127">
</polygon>
<polygon points="150 221 112 238 68 221 76 213 142 214 147 216" fill="#bf7867" id="id-male-6.8_face_5-132">
</polygon>
<polygon points="90 228 102 242 120 246 148 219 148 213" fill="#a56049" id="id-male-6.8_face_5-133">
</polygon>
<polygon points="126 224 141 222 146 214 143 212 133 214" fill="#c88878" id="id-male-6.8_face_5-134">
</polygon>
<polygon points="69 216 70 217 80 219 87 217 83 214" fill="#e2b2a4" id="id-male-6.8_face_5-135">
</polygon>
<polygon points="69 216 68 211 74 209 83 214" fill="#a25640" id="id-male-6.8_face_5-136">
</polygon>
<polygon points="141 213 148 216 151 211 146 208" fill="#c07a64" id="id-male-6.8_face_5-137">
</polygon>
<polygon points="93 225 89 219 136 217 128 226 112 232" fill="#783025" id="id-male-6.8_face_5-138">
</polygon>
<polygon points="126 201 118 195 117 198 111 200 105 198 103 195 101 198 92 202 88 206" fill="#e9b4a6" id="id-male-6.8_face_5-139">
</polygon>
<polygon points="75 213 87 220 140 217 148 214 132 204 107 203 82 209" fill="#781b19" id="id-male-6.8_face_5-140">
</polygon>
<polygon points="84 211 80 215 87 218 142 216 147 214 139 211 128 209 111 210 94 209" fill="#50090c" id="id-male-6.8_face_5-140">
</polygon>
<path d="M 82 209 C 93 203 99 199 100 199 C 102 199 109 201 111 201 C 112 201 118 199 121 199 C 123 199 129 202 140 209 L 132 207 L 115 209 L 111 207 L 109 209 L 96 208 L 86 210 L 82 209 Z" fill="#c05854" id="id-male-6.8_face_5-142">
</path>
<path d="M 100 199 C 102 199 109 201 111 201 C 112 201 118 199 121 199 L 112 206 L 110 208 L 100 199 Z" fill="#d45f63" id="id-male-6.8_face_5-142">
</path>
<path d="M 80 215 C 82 217 84 219 85 219 C 94 223 101 225 111 225 C 120 225 129 222 138 218 C 139 218 141 217 143 215 C 133 212 127 210 124 210 C 121 210 117 210 110 212 C 104 210 100 210 98 210 C 97 211 90 212 80 215 Z" fill="#dc6b67" id="id-male-6.8_face_5-144">
</path>
<path d="M 80 215 C 82 217 84 219 85 219 C 86 219 87 220 89 221 C 94 214 101 211 110 212 C 121 213 128 215 132 221 C 134 220 136 219 138 218 C 139 218 141 217 144 215 C 134 212 127 210 124 210 C 121 210 117 210 110 212 C 104 210 100 210 98 210 C 97 211 90 212 80 215 Z" fill="#bf5350" id="id-male-6.8_face_5-144">
</path>
<polygon points="94 221 92 217 99 216 126 216 128 217 124 220 124 217 98 218" fill="#f88db0" id="id-male-6.8_face_5-146">
</polygon>
<polygon points="108 254 112 237 138 246 120 259" fill="#cd9a8c" id="id-male-6.8_face_5-147">
</polygon>
<polygon points="108 254 112 237 85 242 85 248" fill="#bf8975" id="id-male-6.8_face_5-147">
</polygon>
</g>
<defs>
<linearGradient x1="100%" y1="50%" x2="0%" y2="50%" id="id-male-11_tripper_top-0">
<stop stop-color="#ffffff" offset="0%" stop-opacity="0.709">
</stop>
<stop stop-color="#ffffff" offset="26%" stop-opacity="0.724">
</stop>
<stop stop-color="#ffffff" offset="70%" stop-opacity="0.671">
</stop>
<stop stop-color="#ffffff" offset="82%" stop-opacity="0.883">
</stop>
<stop stop-color="#ffffff" offset="100%" stop-opacity="0.492">
</stop>
</linearGradient>
</defs>
<g transform="translate(375,623)" id="id-male-11_tripper_top-1">
<path d="M 491 0 C 493 1 495 2 495 3 L 495 3 C 496 3 496 3 496 3 L 496 3 C 496 3 496 3 496 3 C 495 4 494 5 494 5 C 502 7 509 12 519 15 C 525 17 540 25 558 33 C 561 106 563 142 563 142 C 572 190 576 214 576 214 C 541 257 513 278 485 293 C 478 267 474 241 469 215 C 463 226 457 240 452 256 C 450 290 446 321 438 350 C 453 399 461 423 461 423 C 459 446 457 458 457 458 L 468 489 C 478 535 484 558 484 558 C 237 558 107 558 92 558 L 91 558 C 91 558 91 558 91 558 L 91 558 L 91 558 C 92 548 92 544 92 544 C 105 504 111 484 111 484 C 115 470 117 463 117 463 C 116 432 116 415 116 415 L 116 415 L 116 415 C 123 390 134 373 136 343 C 130 316 129 287 126 255 L 110 217 C 100 270 94 297 93 299 C 39 253 8 222 0 206 C 7 169 11 138 14 111 C 18 59 27 28 27 28 C 38 23 53 17 70 9 C 75 11 85 17 95 25 L 96 26 C 102 30 108 35 113 39 C 160 74 253 126 285 145 C 423 48 491 0 491 0 Z M 535 224 C 525 238 520 248 521 253 C 545 231 557 220 557 220 C 552 220 547 219 535 224 Z M 537 210 L 523 224 C 523 224 523 224 523 224 L 523 224 C 523 224 523 224 523 224 L 523 224 C 524 224 531 220 544 214 C 544 214 542 212 537 210 L 537 210 Z M 524 161 C 527 189 529 205 528 212 C 533 206 535 203 535 203 C 529 187 528 175 524 161 Z M 415 103 C 413 109 412 112 412 112 C 418 113 421 113 421 113 L 422 108 C 418 105 416 103 416 103 L 415 103 L 415 103 Z M 415 74 C 415 74 404 82 382 96 C 382 96 386 98 392 103 L 392 103 L 391 106 C 391 106 396 104 406 102 C 406 102 409 93 415 74 Z M 484 22 C 484 22 476 27 459 37 L 459 37 L 459 37 C 459 37 464 40 474 45 L 474 45 Z" fill="url(#id-male-11_tripper_top-0)" opacity="0.504" id="id-male-11_tripper_top-2">
</path>
<polygon points="216 329 270 187 285 147 299 187 353 325 439 353 460 421 458 457 466 487 473 519 485 558 91 557 91 546 117 464 116 414 135 360" fill="#ffffff" fill-opacity="0.4" opacity="0.537" id="id-male-11_tripper_top-3">
</polygon>
<path d="M 93 299 C 94 294 95 291 95 291 C 61 262 29 231 2 195 L 0 206 C 13 226 43 257 93 299 Z" fill="#ffffff" id="id-male-11_tripper_top-4">
</path>
<path d="M 49 248 C 87 206 106 185 106 185 C 99 172 96 165 96 165 C 86 131 81 113 81 113 C 86 154 88 174 88 174 L 45 245 C 47 247 49 248 49 248 Z" fill="#ffffff" fill-opacity="0.4" id="id-male-11_tripper_top-5">
</path>
<path d="M 91 287 C 101 238 106 213 106 213 C 118 212 124 212 124 212 C 101 158 85 112 77 75 C 78 110 79 128 79 128 C 58 137 47 142 47 142 C 64 145 72 147 72 147 L 67 209 L 49 248 C 62 262 76 275 91 287 Z" fill="#ffffff" fill-opacity="0.4" opacity="0.618" id="id-male-11_tripper_top-6">
</path>
<path d="M 8 157 C 7 163 7 167 7 167 C 27 164 69 129 131 59 C 227 117 275 146 275 146 C 232 260 211 318 211 318 L 133 360 C 188 339 216 329 216 329 C 261 210 283 151 283 151 C 285 152 286 153 286 153 C 330 268 353 325 353 325 L 439 353 C 385 327 358 313 358 313 C 315 203 293 147 293 147 C 390 79 439 44 439 44 C 506 125 548 164 566 159 C 565 155 565 152 565 152 C 545 149 512 123 447 39 L 496 3 L 491 0 L 285 145 C 193 92 135 56 113 39 C 99 28 88 19 70 9 C 66 11 65 12 65 12 L 124 54 C 66 117 27 152 8 157 Z" fill="#ffffff" id="id-male-11_tripper_top-7">
</path>
</g>
<defs>
<linearGradient x1="50%" y1="0%" x2="50%" y2="100%" id="id-male-12_snowcrashed_pants-0">
<stop stop-color="#b8bece" offset="0%">
</stop>
<stop stop-color="#a1acc2" offset="100%">
</stop>
</linearGradient>
<linearGradient x1="60%" y1="43%" x2="13%" y2="70%" id="id-male-12_snowcrashed_pants-1">
<stop stop-color="#c3c7d4" offset="0%">
</stop>
<stop stop-color="#9aa6be" offset="100%">
</stop>
</linearGradient>
<linearGradient x1="96%" y1="53%" x2="-18%" y2="48%" id="id-male-12_snowcrashed_pants-2">
<stop stop-color="#a1acc1" offset="0%">
</stop>
<stop stop-color="#a1acc1" offset="100%" stop-opacity="0">
</stop>
</linearGradient>
<linearGradient x1="33%" y1="-3%" x2="63%" y2="70%" id="id-male-12_snowcrashed_pants-3">
<stop stop-color="#96a4bb" offset="0%" stop-opacity="0">
</stop>
<stop stop-color="#99a5bc" offset="100%">
</stop>
</linearGradient>
<linearGradient x1="50%" y1="50%" x2="50%" y2="100%" id="id-male-12_snowcrashed_pants-4">
<stop stop-color="#74819a" offset="0%">
</stop>
<stop stop-color="#74819a" offset="100%" stop-opacity="0.235">
</stop>
</linearGradient>
<linearGradient x1="50%" y1="0%" x2="50%" y2="100%" id="id-male-12_snowcrashed_pants-5">
<stop stop-color="#95a2bb" offset="0%">
</stop>
<stop stop-color="#92a0b9" offset="100%" stop-opacity="0">
</stop>
</linearGradient>
<linearGradient x1="17%" y1="-2%" x2="89%" y2="82%" id="id-male-12_snowcrashed_pants-6">
<stop stop-color="#808da7" offset="0%" stop-opacity="0">
</stop>
<stop stop-color="#808da7" offset="100%">
</stop>
</linearGradient>
<linearGradient x1="100%" y1="50%" x2="0%" y2="50%" id="id-male-12_snowcrashed_pants-7">
<stop stop-color="#94a1b9" offset="0%">
</stop>
<stop stop-color="#94a1bb" offset="100%" stop-opacity="0">
</stop>
</linearGradient>
<linearGradient x1="50%" y1="0%" x2="50%" y2="100%" id="id-male-12_snowcrashed_pants-8">
<stop stop-color="#a3a7a6" offset="0%">
</stop>
<stop stop-color="#c1c1c1" offset="100%">
</stop>
</linearGradient>
</defs>
<g transform="translate(428,1078)" id="id-male-12_snowcrashed_pants-9">
<path d="M 487 682 C 393 682 346 682 346 682 C 342 677 340 675 340 675 C 341 656 342 647 342 647 C 334 621 331 608 331 608 C 321 551 317 522 317 522 C 287 470 272 440 270 433 C 263 431 260 429 260 429 C 250 441 245 447 245 447 C 238 451 231 455 219 465 C 210 466 214 502 207 581 C 162 620 167 640 176 682 C 84 682 38 682 38 682 C 35 669 36 657 40 646 C 37 633 19 607 23 603 C 27 594 34 588 34 573 C 24 535 9 496 4 441 C 5 381 6 351 6 351 C 2 338 0 332 0 332 C 3 309 4 298 4 298 C 5 274 6 262 6 262 C 2 259 3 251 2 246 C 0 220 0 193 7 164 C 23 141 31 130 31 130 C 31 113 40 98 43 82 C 42 71 41 65 41 65 C 53 26 59 7 59 7 C 65 8 69 8 69 8 C 72 18 74 23 74 23 C 106 32 122 36 122 36 C 127 32 130 30 130 30 C 208 33 246 35 246 35 C 316 25 350 19 350 19 C 356 14 359 11 359 11 C 395 4 414 0 414 0 C 413 17 413 26 413 26 C 421 41 418 61 431 74 C 422 83 431 103 443 126 C 439 132 449 162 475 187 C 477 190 477 192 477 192 C 479 214 476 251 480 262 C 486 307 491 350 495 393 C 498 529 472 565 490 590 C 477 629 480 630 487 682 Z" fill="url(#id-male-12_snowcrashed_pants-0)" id="id-male-12_snowcrashed_pants-10">
</path>
<path d="M 430 72 C 413 83 354 110 336 118 C 236 155 187 174 187 174 C 182 170 180 168 180 168 C 167 129 160 109 160 109 C 153 95 150 88 150 88 C 144 81 141 78 141 78 C 154 71 160 67 160 67 C 139 51 129 43 129 43 L 127 32 L 130 30 L 246 35 L 350 19 L 359 11 L 414 0 C 413 8 413 17 413 26 C 421 45 417 56 430 72 Z" fill="#c7cad6" id="id-male-12_snowcrashed_pants-11">
</path>
<path d="M 213 484 L 205 469 L 207 464 L 79 368 C 48 306 33 275 33 275 L 5 287 L 6 261 C 3 260 2 256 2 246 C 1 224 -2 209 7 164 L 31 130 C 30 118 40 97 43 82 L 41 65 L 47 47 L 62 52 L 125 55 L 129 56 L 138 75 L 187 186 L 209 260 L 235 329 L 237 372 L 237 450 L 219 464 C 216 464 213 470 213 484 Z" fill="#a3aec3" id="id-male-12_snowcrashed_pants-12">
</path>
<path d="M 488 522 L 460 452 L 439 434 C 427 409 421 397 421 397 L 438 259 L 446 216 L 475 187 L 477 192 C 479 214 476 243 480 262 L 495 393 C 496 448 494 491 488 522 Z" fill="#afb7c9" id="id-male-12_snowcrashed_pants-13">
</path>
<path d="M 481 628 L 449 653 C 402 611 360 566 317 522 C 321 513 323 509 323 509 C 365 516 387 520 389 521 C 375 497 274 437 254 379 C 334 446 374 480 374 480 C 349 427 337 400 337 400 C 358 405 368 407 368 407 C 330 385 311 374 311 374 C 371 354 402 344 402 344 C 321 342 280 340 280 340 C 257 334 246 331 246 331 C 239 329 235 328 235 328 C 227 310 224 301 224 301 C 215 273 211 258 211 258 C 235 249 248 245 248 245 C 262 287 270 308 270 308 C 268 290 267 281 267 281 C 343 226 380 199 380 199 C 312 198 278 198 278 198 C 357 180 397 171 397 171 C 396 188 396 196 396 196 L 443 140 C 452 154 460 170 475 187 C 453 208 442 219 442 219 C 441 228 440 232 440 232 C 426 229 419 227 419 227 L 273 278 C 274 300 274 311 274 311 C 312 314 332 315 332 315 C 369 328 387 335 387 335 C 375 319 369 312 369 312 C 347 293 336 284 336 284 C 377 260 397 249 397 249 C 437 258 457 263 457 263 C 474 279 483 287 483 287 C 484 294 485 297 485 297 C 458 325 445 338 445 338 C 430 376 422 395 422 395 C 404 407 395 412 395 412 C 420 423 433 429 433 429 C 437 432 439 434 439 434 L 488 522 C 486 543 478 574 490 590 C 485 602 482 615 481 628 Z" fill="#c6cad6" id="id-male-12_snowcrashed_pants-14">
</path>
<path d="M 443 126 C 410 142 394 150 394 150 C 332 159 302 163 302 163 C 340 133 360 118 360 118 C 378 117 387 116 387 116 L 429 78 C 427 87 432 103 443 126 Z" fill="#cacdd8" id="id-male-12_snowcrashed_pants-15">
</path>
<path d="M 308 263 C 353 229 375 211 375 211 L 422 223 C 346 250 308 263 308 263 Z" fill="#dedde1" id="id-male-12_snowcrashed_pants-16">
</path>
<path d="M 389 91 C 254 147 187 174 187 174 C 177 146 172 133 172 133 C 172 130 172 128 172 128 C 186 126 193 124 193 124 C 209 128 217 131 217 131 L 337 93 L 389 91 Z" fill="#dddce0" id="id-male-12_snowcrashed_pants-17">
</path>
<path d="M 169 123 C 163 105 159 96 159 96 C 161 96 162 95 162 95 C 160 91 159 88 159 88 C 240 90 281 90 281 90 C 326 86 348 84 348 84 C 261 113 218 127 218 127 L 193 119 C 177 122 169 123 169 123 Z" fill="#a9b2c6" id="id-male-12_snowcrashed_pants-18">
</path>
<path d="M 172 59 C 295 34 356 21 356 21 L 364 40 C 236 53 172 59 172 59 Z" fill="#b0b8ca" id="id-male-12_snowcrashed_pants-19">
</path>
<path d="M 369 102 C 362 61 359 40 359 40 C 353 26 351 19 351 19 C 356 14 359 11 359 11 C 395 4 413 0 413 0 C 413 18 413 26 413 26 C 418 42 418 62 429 73 C 389 92 369 102 369 102 Z" fill="#d2d3dd" id="id-male-12_snowcrashed_pants-20">
</path>
<path d="M 395 70 C 394 58 394 52 394 52 C 376 25 367 12 367 12 C 358 17 354 19 354 19 C 356 23 359 29 361 34 C 383 58 395 70 395 70 Z" fill="#8a94a7" id="id-male-12_snowcrashed_pants-21">
</path>
<path d="M 395 74 C 396 59 396 52 396 52 C 411 48 419 46 419 46 C 419 49 421 54 423 61 L 421 69 C 404 72 395 74 395 74 Z" fill="#a7b0c4" id="id-male-12_snowcrashed_pants-22">
</path>
<path d="M 169 57 C 216 48 240 44 240 44 C 173 41 140 40 140 40 C 138 39 136 38 136 38 L 137 42 C 158 52 169 57 169 57 Z" fill="#8993a7" id="id-male-12_snowcrashed_pants-23">
</path>
<path d="M 69 8 C 62 7 59 7 59 7 C 51 34 47 47 47 47 C 57 50 62 52 62 52 C 68 68 71 76 71 76 C 54 77 46 77 46 77 C 94 114 118 133 118 133 C 86 126 70 122 70 122 C 45 122 32 122 32 122 C 32 125 31 126 31 126 C 67 141 85 148 85 148 C 112 165 126 173 126 173 C 109 156 101 147 101 147 C 152 171 178 184 178 184 C 169 155 164 140 164 140 C 138 114 124 101 124 101 C 119 81 117 71 117 71 L 128 75 L 122 36 L 74 23 L 69 8 Z" fill="#c4c8d4" id="id-male-12_snowcrashed_pants-24">
</path>
<path d="M 129 56 L 126 33 L 122 36 C 90 28 74 23 74 23 C 72 16 70 12 70 12 C 65 37 62 49 62 49 L 67 44 C 109 52 129 56 129 56 Z" fill="#8892a6" id="id-male-12_snowcrashed_pants-25">
</path>
<path d="M 138 75 C 144 100 147 112 147 112 L 175 157 L 160 109 C 145 86 138 75 138 75 Z" fill="#78839a" id="id-male-12_snowcrashed_pants-26">
</path>
<path d="M 163 263 C 89 237 52 224 52 224 C 54 223 55 223 55 223 L 5 173 C 7 167 7 164 7 164 C 20 147 26 138 26 138 C 32 151 36 158 36 158 C 49 173 55 180 55 180 C 54 165 54 158 54 158 C 107 173 134 180 134 180 C 147 194 153 200 153 200 L 168 239 C 165 255 163 263 163 263 Z" fill="#c3c6d4" id="id-male-12_snowcrashed_pants-27">
</path>
<path d="M 227 326 C 150 279 111 255 111 255 C 70 236 49 226 49 226 C 19 240 4 247 4 247 C 45 256 66 260 66 260 C 44 270 33 275 33 275 C 32 285 31 290 31 290 C 55 334 67 355 67 355 C 30 366 12 372 12 372 C 52 377 72 380 72 380 C 79 419 83 439 83 439 C 64 448 55 452 55 452 C 71 463 79 469 79 469 C 78 515 77 538 77 538 C 107 525 122 519 122 519 C 179 483 207 465 207 465 C 223 428 230 410 230 410 C 222 405 218 403 218 403 C 126 380 79 369 79 369 C 148 366 182 365 182 365 C 219 371 237 373 237 373 L 237 331 C 230 327 227 326 227 326 Z" fill="url(#id-male-12_snowcrashed_pants-1)" id="id-male-12_snowcrashed_pants-28">
</path>
<path d="M 235 338 C 235 332 235 330 235 330 C 228 326 225 324 225 324 C 167 304 137 295 137 295 C 90 287 66 282 66 282 C 100 297 117 304 117 304 L 77 326 C 182 334 235 338 235 338 Z" fill="url(#id-male-12_snowcrashed_pants-2)" id="id-male-12_snowcrashed_pants-29">
</path>
<path d="M 251 377 L 288 341 C 282 341 279 341 279 341 C 258 334 248 331 248 331 C 241 333 238 334 238 334 L 237 367 C 246 373 251 377 251 377 Z" fill="#9faac0" id="id-male-12_snowcrashed_pants-30">
</path>
<path d="M 235 327 C 224 322 218 320 218 320 L 213 286 C 228 314 235 327 235 327 Z" fill="#919fb9" id="id-male-12_snowcrashed_pants-31">
</path>
<path d="M 271 321 C 263 291 259 276 259 276 L 222 287 L 239 332 C 261 325 271 321 271 321 Z" fill="url(#id-male-12_snowcrashed_pants-3)" id="id-male-12_snowcrashed_pants-32">
</path>
<path d="M 235 327 C 220 300 213 286 213 286 C 210 269 209 260 209 260 C 195 216 188 194 188 194 L 187 186 C 203 234 211 258 211 258 L 225 301 L 235 327 Z" fill="#717d96" id="id-male-12_snowcrashed_pants-33">
</path>
<path d="M 260 429 L 253 438 L 237 373 L 270 433 C 263 431 260 429 260 429 Z" fill="#67748c" id="id-male-12_snowcrashed_pants-34">
</path>
<path d="M 253 438 C 248 444 245 447 245 447 L 238 451 L 237 373 L 253 438 Z" fill="url(#id-male-12_snowcrashed_pants-4)" id="id-male-12_snowcrashed_pants-35">
</path>
<path d="M 207 581 C 199 588 191 596 181 608 C 152 628 138 637 138 637 C 136 640 135 641 135 641 C 120 653 112 658 112 658 C 82 649 67 645 67 645 L 28 619 C 26 616 20 606 23 603 C 26 596 32 588 33 581 C 65 571 80 566 80 566 L 65 543 L 77 538 L 122 519 L 207 465 L 205 470 L 213 485 C 210 545 208 578 207 581 Z" fill="#9eaac0" id="id-male-12_snowcrashed_pants-36">
</path>
<path d="M 182 607 C 153 627 138 637 138 637 C 136 640 135 641 135 641 C 120 653 112 659 112 659 C 82 649 67 645 67 645 L 28 619 C 32 629 38 638 40 646 C 36 658 35 669 38 682 L 176 682 C 166 650 168 625 182 607 Z" fill="#7e8da7" id="id-male-12_snowcrashed_pants-37">
</path>
<path d="M 65 611 L 106 642 C 106 644 107 645 107 645 C 81 640 68 637 68 637 L 28 619 L 22 607 C 20 600 34 593 34 572 C 20 526 9 483 4 441 L 55 452 L 79 469 C 78 515 77 538 77 538 C 69 541 65 543 65 543 C 75 559 80 566 80 566 L 61 574 L 72 590 L 65 611 Z" fill="url(#id-male-12_snowcrashed_pants-5)" id="id-male-12_snowcrashed_pants-38">
</path>
<path d="M 106 642 C 78 622 65 611 65 611 C 60 598 58 592 58 592 C 67 590 72 590 72 590 L 104 627 L 106 642 Z" fill="url(#id-male-12_snowcrashed_pants-6)" id="id-male-12_snowcrashed_pants-39">
</path>
<path d="M 72 587 C 131 602 161 609 161 609 C 180 601 190 597 190 597 C 194 593 196 591 196 591 L 123 562 C 89 579 72 587 72 587 Z" fill="#93a1ba" id="id-male-12_snowcrashed_pants-40">
</path>
<path d="M 127 557 C 123 558 121 558 121 558 C 93 547 79 542 79 542 C 82 501 84 481 84 481 C 105 482 115 482 115 482 L 117 487 C 124 534 127 557 127 557 Z" fill="url(#id-male-12_snowcrashed_pants-7)" id="id-male-12_snowcrashed_pants-41">
</path>
<path d="M 161 68 C 158 68 157 67 157 67 C 142 72 135 74 135 74 C 133 72 131 72 131 72 C 128 55 127 46 127 46 L 157 46 C 160 61 161 68 161 68 Z" fill="#100f0b" id="id-male-12_snowcrashed_pants-42">
</path>
<path d="M 157 46 C 137 46 127 46 127 46 C 129 43 130 42 130 42 C 130 41 130 40 130 40 L 157 42 L 157 46 Z" fill="#4c4d50" id="id-male-12_snowcrashed_pants-43">
</path>
<path d="M 494 471 C 494 469 494 467 494 467 C 480 443 473 431 473 431 C 456 371 448 341 448 341 C 426 283 415 254 415 254 C 414 233 414 223 414 223 C 393 188 382 171 382 171 C 383 155 383 146 383 146 C 372 127 367 117 367 117 C 368 105 368 99 368 99 C 359 77 354 66 354 66 C 356 64 356 62 356 62 C 352 63 350 63 350 63 C 361 87 366 100 366 100 C 365 112 364 118 364 118 C 375 139 381 149 381 149 C 381 165 381 173 381 173 C 402 208 412 226 412 226 C 412 244 412 252 412 252 C 434 311 444 340 444 340 L 472 434 C 486 459 494 471 494 471 Z" fill="#8d96a9" id="id-male-12_snowcrashed_pants-44">
</path>
<path d="M 156 80 C 211 79 239 78 239 78 C 335 65 384 58 384 58 C 385 59 386 60 386 60 L 237 80 C 183 80 156 80 156 80 Z" fill="#9099ac" id="id-male-12_snowcrashed_pants-45">
</path>
<path d="M 117 71 C 114 71 112 70 112 70 C 97 95 89 108 89 108 C 89 119 89 125 89 125 C 80 138 75 144 75 144 C 78 156 79 163 79 163 C 65 202 58 221 58 221 C 61 227 63 230 63 230 C 54 245 50 253 50 253 L 33 272 C 11 312 0 332 0 332 C 1 335 1 336 1 336 C 23 295 35 274 35 274 C 45 262 50 256 50 256 C 60 239 65 231 65 231 C 63 224 62 220 62 220 C 75 182 81 162 81 162 C 78 150 77 144 77 144 C 87 131 92 125 92 125 L 91 110 C 108 84 117 71 117 71 Z" fill="#9098ab" id="id-male-12_snowcrashed_pants-46">
</path>
<g transform="translate(32,2)" id="id-male-12_snowcrashed_pants-47">
<polygon points="143 30 105 28 74 26 48 19 30 5 25 10 11 34 9 50 9 51 32 60 140 71" fill="#7c8ca6" id="id-male-12_snowcrashed_pants-38" fill-rule="nonzero">
</polygon>
<polygon points="317 16 329 8 354 52 356 74 338 51" fill="#8c93a7" id="id-male-12_snowcrashed_pants-38">
</polygon>
<polygon points="46 8 39 50 52 34 85 30 50 21" fill="#8691a8" id="id-male-12_snowcrashed_pants-38">
</polygon>
<polygon points="16 14 8 35 8 74 19 74 16 46 28 14" fill="#a0a3a1" id="id-male-12_snowcrashed_pants-38">
</polygon>
<polygon points="47 23 85 30 117 31 215 35 330 16 351 52 350 59 195 84 165 81 42 75 41 47" fill="#9fa3a2" id="id-male-12_snowcrashed_pants-38">
</polygon>
<polygon points="195 81 165 77 42 72 42 75 165 81 195 84 350 59 351 56" fill="#67717e" id="id-male-12_snowcrashed_pants-38">
</polygon>
<polygon points="117 31 118 75 165 77 195 81 290 63 283 24 215 35" fill="#b4baba" id="id-male-12_snowcrashed_pants-38">
</polygon>
<polygon points="356 10 378 2 383 12 390 39 390 49 378 51" fill="#a3a7a6" id="id-male-12_snowcrashed_pants-38">
</polygon>
<path d="M 9 71 L 1 119 L 45 122 L 52 73 L 9 71 Z M 39 115 L 5 114 L 11 77 L 16 79 L 46 79 L 39 115 Z" fill="#102132" id="id-male-12_snowcrashed_pants-56" fill-rule="nonzero">
</path>
<polygon points="17 44 16 46 19 74 20 80 47 80 42 72 41 61 40 60 38 51" fill="#a5b0c5" id="id-male-12_snowcrashed_pants-38">
</polygon>
<polygon points="187 104 150 122 152 626 188 636" fill="url(#id-male-12_snowcrashed_pants-8)" id="id-male-12_snowcrashed_pants-38">
</polygon>
<polygon points="150 122 152 626 154 626 152 122" fill="#5d6160" id="id-male-12_snowcrashed_pants-38">
</polygon>
<polygon points="192 629 150 618 150 631 192 642" fill="#132434" id="id-male-12_snowcrashed_pants-38">
</polygon>
<path d="M 148 123 L 193 101 C 195 86 198 82 203 79 L 199 33 C 199 30 197 28 194 28 L 136 30 L 137 80 C 138 81 138 83 142 98 C 146 114 148 123 148 123 Z" fill="#102132" id="id-male-12_snowcrashed_pants-38">
</path>
<path d="M 199 33 C 199 30 197 28 194 28 L 136 30 L 136 33 L 199 33 L 199 33 Z" fill="#303f52" id="id-male-12_snowcrashed_pants-38">
</path>
<polygon points="142 77 195 76 193 41 142 39" fill="#582d4b" id="id-male-12_snowcrashed_pants-38">
</polygon>
<polygon points="142 44 193 42 142 40" fill="#8b5376" id="id-male-12_snowcrashed_pants-38">
</polygon>
<path d="M 188 87 L 144 88 L 151 111 L 185 98 C 185 98 186 97 186 96 L 188 87 Z" fill="#7f3e66" id="id-male-12_snowcrashed_pants-38">
</path>
<polygon points="295 17 313 16 321 66 301 70" fill="#102132" id="id-male-12_snowcrashed_pants-38">
</polygon>
<polygon points="89 25 69 26 69 81 86 84" fill="#102132" id="id-male-12_snowcrashed_pants-38">
</polygon>
<path d="M 377 45 L 354 53 L 356 77 L 380 72 L 380 59 C 379 56 378 51 377 45 Z" fill="#a8b0c5" id="id-male-12_snowcrashed_pants-38">
</path>
<polygon points="355 54 328 8 338 0 350 0 377 45" fill="#ced2db" id="id-male-12_snowcrashed_pants-69">
</polygon>
<polygon points="17 45 30 6 40 4 46 9 38 52" fill="#ced2db" id="id-male-12_snowcrashed_pants-70">
</polygon>
</g>
</g>
<defs>
<linearGradient x1="81%" y1="60%" x2="35%" y2="41%" id="id-male-16_chef_belt-0">
<stop stop-color="#aebcdf" offset="0%">
</stop>
<stop stop-color="#aebde3" offset="100%" stop-opacity="0">
</stop>
</linearGradient>
<linearGradient x1="50%" y1="1%" x2="50%" y2="100%" id="id-male-16_chef_belt-1">
<stop stop-color="#9fabc9" offset="0%" stop-opacity="0">
</stop>
<stop stop-color="#9fabc9" offset="50%">
</stop>
<stop stop-color="#9fabc9" offset="100%" stop-opacity="0">
</stop>
</linearGradient>
<linearGradient x1="56%" y1="11%" x2="40%" y2="84%" id="id-male-16_chef_belt-2">
<stop stop-color="#adbbde" offset="0%">
</stop>
<stop stop-color="#aebfe2" offset="100%" stop-opacity="0">
</stop>
</linearGradient>
</defs>
<g transform="translate(506,862)" id="id-male-16_chef_belt-3">
<path d="M 0 97 C 0 97 306 97 306 97 C 306 126 306 147 305 159 C 223 159 107 162 0 159 C 0 132 0 97 0 97 Z" fill="#700002" id="id-male-16_chef_belt-4">
</path>
<path d="M 82 97 C 71 119 65 130 65 130 L 119 130 L 58 160 C 152 160 198 160 198 160 C 229 154 244 150 244 150 C 258 129 266 118 266 118 L 249 119 L 290 97 C 151 97 82 97 82 97 Z" fill="#9c0817" id="id-male-16_chef_belt-5">
</path>
<path d="M 3 98 C 25 98 34 98 53 98 C 53 128 106 184 165 235 C 240 300 329 355 362 339 C 364 349 363 350 365 361 C 363 373 363 379 369 389 C 374 418 378 447 382 476 C 347 485 311 479 273 457 C 159 391 16 208 3 98 Z" fill="#700002" id="id-male-16_chef_belt-6">
</path>
<path d="M 371 479 C 372 475 372 462 372 462 L 381 466 C 377 440 373 414 369 389 C 365 381 362 374 365 361 C 364 353 363 346 362 339 L 273 314 L 264 452 C 301 475 337 484 371 479 Z" fill="#4f0101" id="id-male-16_chef_belt-7">
</path>
<path d="M 28 159 L 71 140 C 71 140 72 141 74 144 C 74 144 72 149 67 160 C 67 160 74 160 89 161 C 89 161 73 166 73 166 C 82 174 87 179 87 179 C 82 190 79 196 79 196 C 66 185 60 179 60 179 L 45 211 C 32 184 25 171 25 171 C 27 166 27 163 27 163 L 20 160 L 28 159 Z" fill="#4e0000" id="id-male-16_chef_belt-8">
</path>
<path d="M 37 122 C 50 121 63 120 63 120 C 67 128 70 134 71 136 C 56 176 33 214 4 249 C 17 206 28 164 37 122 Z" fill="#82879a" id="id-male-16_chef_belt-9">
</path>
<path d="M 128 237 C 119 227 115 222 115 222 C 120 205 123 196 123 196 C 114 186 109 181 109 181 C 89 237 78 265 78 265 C 89 278 94 285 94 285 C 106 249 112 231 112 231 L 125 243 C 127 239 128 237 128 237 Z" fill="#4e0001" id="id-male-16_chef_belt-10">
</path>
<path d="M 29 131 C 59 133 74 134 74 134 C 64 157 59 168 59 168 L 25 153 C 28 138 29 131 29 131 Z" fill="#9c0816" id="id-male-16_chef_belt-11">
</path>
<path d="M 32 333 C 63 265 86 145 86 145 C 105 145 114 145 114 145 C 115 155 120 164 129 171 C 108 225 86 298 32 333 Z" fill="#808696" id="id-male-16_chef_belt-12">
</path>
<path d="M 139 341 C 163 276 175 244 175 244 C 158 229 150 221 150 221 L 119 318 C 132 334 139 341 139 341 Z" fill="#4e0000" id="id-male-16_chef_belt-13">
</path>
<path d="M 53 434 C 71 406 87 366 107 304 C 119 269 135 194 135 194 C 155 192 165 191 165 191 C 168 201 173 209 179 214 C 156 284 127 350 91 411 C 72 424 59 432 53 434 Z" fill="#808696" id="id-male-16_chef_belt-14">
</path>
<path d="M 212 413 C 239 339 253 301 253 301 C 239 292 232 287 232 287 L 190 394 C 205 407 212 413 212 413 Z" fill="#4e0000" id="id-male-16_chef_belt-15">
</path>
<path d="M 192 253 C 206 253 210 253 224 254 C 233 275 259 276 259 276 C 232 347 206 402 181 441 C 157 461 133 477 110 490 C 143 433 171 354 192 253 Z" fill="#9faecc" id="id-male-16_chef_belt-16">
</path>
<path d="M 308 307 C 308 307 327 327 356 311 C 364 399 366 440 358 561 C 347 557 304 545 272 496 C 276 432 276 373 274 318 L 274 318 Z M 285 484 C 282 484 279 486 279 490 C 279 493 282 496 285 496 C 289 496 291 493 291 490 C 291 486 289 484 285 484 Z" fill="#808696" id="id-male-16_chef_belt-17">
</path>
<path d="M 229 349 L 180 305 L 192 253 C 203 253 214 253 224 254 C 229 267 241 274 259 276 C 239 325 229 349 229 349 Z" fill="#808696" id="id-male-16_chef_belt-18">
</path>
<path d="M 185 268 C 181 285 180 294 180 294 C 218 322 238 336 238 336 L 249 308 C 206 281 185 268 185 268 Z" fill="#9c0816" id="id-male-16_chef_belt-19">
</path>
<path d="M 37 132 L 31 156 L 25 153 L 29 131 C 35 132 37 132 37 132 Z" fill="#c63c32" id="id-male-16_chef_belt-20">
</path>
<path d="M 179 214 C 142 231 124 240 124 240 C 117 273 110 300 101 324 C 111 326 124 325 138 321 C 166 249 179 214 179 214 Z" fill="url(#id-male-16_chef_belt-0)" id="id-male-16_chef_belt-21">
</path>
<path d="M 194 273 L 187 299 L 180 294 L 185 268 C 191 272 194 273 194 273 Z" fill="#c63c32" id="id-male-16_chef_belt-22">
</path>
<path d="M 346 315 C 351 375 351 455 345 556 C 348 558 353 560 358 561 C 366 478 365 395 356 311 C 353 313 349 314 346 315 Z" fill="#afbfe3" id="id-male-16_chef_belt-23">
</path>
<path d="M 127 213 C 122 233 120 244 120 244 C 147 267 160 278 160 278 L 171 247 C 142 224 127 213 127 213 Z" fill="#9c0816" id="id-male-16_chef_belt-24">
</path>
<path d="M 350 421 C 321 460 298 490 282 510 C 274 500 271 496 271 496 L 275 403 L 346 315 C 349 358 350 393 350 421 Z" fill="url(#id-male-16_chef_belt-1)" id="id-male-16_chef_belt-25">
</path>
<path d="M 267 323 C 265 343 264 354 264 354 C 294 371 309 380 309 380 L 325 335 C 287 327 267 323 267 323 Z" fill="#9c0816" id="id-male-16_chef_belt-26">
</path>
<path d="M 83 161 C 101 159 114 168 123 188 C 110 230 77 287 77 287 L 65 236 C 77 186 83 161 83 161 Z" fill="url(#id-male-16_chef_belt-2)" id="id-male-16_chef_belt-27">
</path>
<path d="M 79 167 C 74 188 72 198 72 198 C 96 220 108 231 108 231 L 120 200 C 92 178 79 167 79 167 Z" fill="#9c0816" id="id-male-16_chef_belt-28">
</path>
<path d="M 84 171 L 76 201 L 72 198 L 79 167 C 82 170 84 171 84 171 Z" fill="#c63c32" id="id-male-16_chef_belt-29">
</path>
<path d="M 37 122 C 44 122 53 121 63 120 C 54 69 89 40 95 32 C 93 20 87 10 77 1 C 60 27 47 67 37 122 Z" fill="#132237" id="id-male-16_chef_belt-30">
</path>
<path d="M 271 323 L 268 356 L 264 354 L 267 323 C 270 323 271 323 271 323 Z" fill="#c43d32" id="id-male-16_chef_belt-31">
</path>
<path d="M 86 145 C 95 145 103 145 114 145 C 114 109 134 83 144 67 C 141 53 135 41 125 32 C 107 60 95 98 86 145 Z" fill="#132237" id="id-male-16_chef_belt-32">
</path>
<path d="M 136 220 L 125 248 L 120 244 L 127 213 C 133 217 136 220 136 220 Z" fill="#c63c32" id="id-male-16_chef_belt-33">
</path>
<path d="M 135 194 C 147 192 153 192 165 191 C 161 147 186 124 199 104 C 195 86 190 73 182 64 C 160 97 144 140 135 194 Z" fill="#132237" id="id-male-16_chef_belt-34">
</path>
<path d="M 192 253 C 202 253 224 254 224 254 C 216 222 230 186 267 143 C 262 128 253 118 242 114 C 217 150 200 196 192 253 Z" fill="#132237" id="id-male-16_chef_belt-35">
</path>
<path d="M 308 307 C 290 314 284 314 274 318 C 267 226 269 206 283 163 C 295 161 308 164 322 170 C 292 234 287 280 308 307 Z" fill="#132237" id="id-male-16_chef_belt-36">
</path>
</g>
<defs>
</defs>
<g transform="translate(281,563)" id="id-male-17_chef_top_arms-0">
<path d="M 25 791 C 19 787 16 785 16 785 C 27 741 33 719 33 719 C 36 703 37 696 37 696 C 34 661 33 643 33 643 C 31 623 30 613 30 613 C 33 610 35 609 35 609 C 35 601 35 598 35 598 C 38 594 40 591 40 591 C 32 567 29 555 29 555 C 36 552 40 550 40 550 C 33 545 30 543 30 543 C 37 522 41 511 41 511 C 31 506 26 504 26 504 C 36 490 41 483 41 483 C 35 467 30 455 27 448 C 28 445 31 434 36 415 C 44 406 48 401 48 401 C 37 384 41 376 58 376 C 59 375 59 372 60 372 C 53 363 16 351 38 333 C 32 318 25 303 19 286 L 46 202 C 36 197 27 192 19 188 C 0 139 1 94 1 79 C 8 77 82 52 145 22 C 157 14 173 1 180 0 C 191 4 209 18 209 18 C 222 10 231 5 237 5 C 245 12 255 40 255 40 C 246 61 242 71 242 71 C 255 114 261 136 261 136 C 267 189 269 216 269 216 C 251 247 230 279 207 312 C 201 326 201 355 197 376 C 189 378 179 384 179 384 C 188 417 193 433 193 433 C 179 440 172 443 172 443 C 173 454 173 459 173 459 C 165 475 161 483 161 483 C 160 495 159 501 159 501 C 154 512 151 518 151 518 C 148 525 147 528 147 528 C 143 534 141 538 141 538 C 143 540 144 541 144 541 C 140 546 138 549 138 549 C 133 573 125 597 113 621 C 114 629 114 643 114 643 C 106 651 102 654 102 654 C 102 654 101 654 100 654 C 100 673 112 689 112 689 C 120 724 124 741 124 741 C 128 758 130 766 130 766 C 122 772 118 776 118 776 C 118 769 117 766 117 766 C 80 768 62 770 62 770 L 19 782 L 25 791 Z" fill="#adb5ca" id="id-male-17_chef_top_arms-1">
</path>
<polygon points="128 764 125 770 115 780 115 768 62 771 23 782 25 792 18 787 19 782 62 770" fill="#294261" id="id-male-17_chef_top_arms-2">
</polygon>
<path d="M 36 764 C 90 758 117 754 117 754 C 77 733 58 717 60 707 C 49 700 55 696 55 696 L 99 667 L 49 638 C 38 642 33 643 33 643 C 36 678 37 696 37 696 C 49 689 55 686 55 686 C 54 691 53 693 53 693 C 45 698 41 701 41 701 L 54 704 C 42 744 36 764 36 764 Z" fill="#c3d0f0" id="id-male-17_chef_top_arms-3">
</path>
<path d="M 67 653 C 61 655 58 656 58 656 L 51 640 C 61 648 67 653 67 653 Z" fill="#dae0f3" id="id-male-17_chef_top_arms-4">
</path>
<polygon points="101 620 114 636 113 614" fill="#d5dcec" id="id-male-17_chef_top_arms-5">
</polygon>
<polygon points="49 638 92 624 86 648 58 656" fill="#d9e0f0" id="id-male-17_chef_top_arms-6">
</polygon>
<path d="M 49 634 C 77 622 91 616 91 616 C 51 614 31 614 31 614 L 50 631 C 50 633 49 634 49 634 Z" fill="#c3d1ee" id="id-male-17_chef_top_arms-7">
</path>
<path d="M 114 643 C 93 633 82 628 82 628 L 102 628 C 110 638 114 643 114 643 Z" fill="#8c9bb8" id="id-male-17_chef_top_arms-8">
</path>
<path d="M 91 616 L 107 608 C 62 606 39 605 39 605 L 29 614 C 70 615 91 616 91 616 Z" fill="#dce3f3" id="id-male-17_chef_top_arms-9">
</path>
<path d="M 92 605 L 35 609 L 35 598 L 40 591 C 41 577 42 570 42 570 C 47 574 50 575 50 575 L 73 571 L 40 598 L 92 605 Z" fill="#8495b4" id="id-male-17_chef_top_arms-10">
</path>
<path d="M 35 598 C 40 600 96 599 96 599 C 84 585 78 578 78 578 C 80 573 81 570 81 570 C 92 568 97 567 97 567 C 81 561 74 558 74 558 L 70 572 L 40 591 C 37 594 35 597 35 598 Z" fill="#dce3f3" id="id-male-17_chef_top_arms-11">
</path>
<path d="M 69 685 L 112 701 L 112 689 C 104 677 100 665 100 654 C 91 650 75 646 52 640 L 91 668 C 76 680 69 685 69 685 Z" fill="#8594b3" id="id-male-17_chef_top_arms-12">
</path>
<path d="M 29 555 C 40 560 45 563 45 563 C 93 552 117 547 117 547 C 84 539 67 535 67 535 L 75 545 C 44 552 29 555 29 555 Z" fill="#dde4f4" id="id-male-17_chef_top_arms-13">
</path>
<path d="M 63 547 C 44 550 34 552 34 552 L 35 546 C 54 546 63 547 63 547 Z" fill="#8c9cb8" id="id-male-17_chef_top_arms-14">
</path>
<path d="M 133 567 C 113 561 103 558 103 558 L 139 548 C 135 561 133 567 133 567 Z" fill="#8b9ab7" id="id-male-17_chef_top_arms-15">
</path>
<polygon points="129 525 144 541 139 548 105 556" fill="#bfcbe9" id="id-male-17_chef_top_arms-16">
</polygon>
<path d="M 129 525 L 141 537 C 145 531 147 528 147 528 C 134 524 128 522 128 522 L 127 523 L 129 525 Z" fill="#8b9ab7" id="id-male-17_chef_top_arms-17">
</path>
<path d="M 119 522 C 104 527 97 530 97 530 L 55 514 C 98 519 119 522 119 522 Z" fill="#dde4f4" id="id-male-17_chef_top_arms-18">
</path>
<path d="M 102 512 C 78 511 66 510 66 510 L 66 492 C 90 505 102 512 102 512 Z" fill="#8a99b6" id="id-male-17_chef_top_arms-19">
</path>
<path d="M 118 505 C 100 501 92 500 92 500 C 90 497 89 496 89 496 C 109 495 118 495 118 495 L 151 518 L 147 528 C 127 513 118 505 118 505 Z" fill="#dce3f3" id="id-male-17_chef_top_arms-20">
</path>
<path d="M 151 518 L 123 487 L 159 501 C 154 512 151 518 151 518 Z" fill="#8495b3" id="id-male-17_chef_top_arms-21">
</path>
<path d="M 126 488 C 90 489 72 489 72 489 L 67 494 L 26 504 C 36 490 41 483 41 483 C 64 482 76 481 76 481 C 83 476 86 474 86 474 L 68 457 C 106 477 126 488 126 488 Z" fill="#dbe2f2" id="id-male-17_chef_top_arms-22">
</path>
<path d="M 36 474 C 61 471 73 470 73 470 L 41 482 C 38 477 36 474 36 474 Z" fill="#768aab" id="id-male-17_chef_top_arms-23">
</path>
<path d="M 123 476 C 123 470 123 467 123 467 C 106 448 98 439 98 439 C 136 437 155 437 155 437 C 127 420 114 412 114 412 C 135 391 145 380 145 380 C 142 381 141 382 141 382 L 67 437 C 105 463 123 476 123 476 Z" fill="#c4d1f1" id="id-male-17_chef_top_arms-24">
</path>
<path d="M 118 414 L 112 438 L 155 437 C 130 422 118 414 118 414 Z" fill="#d4dcf2" id="id-male-17_chef_top_arms-25">
</path>
<path d="M 61 397 C 72 404 77 407 77 407 C 119 381 139 368 139 368 L 87 390 C 69 394 61 397 61 397 Z" fill="#dde4f4" id="id-male-17_chef_top_arms-26">
</path>
<path d="M 93 365 C 106 368 113 369 113 369 L 126 359 C 104 363 93 365 93 365 Z" fill="#7e91b0" id="id-male-17_chef_top_arms-27">
</path>
<path d="M 160 369 C 124 365 106 363 106 363 L 144 354 C 155 364 160 369 160 369 Z" fill="#8899b5" id="id-male-17_chef_top_arms-28">
</path>
<path d="M 161 363 C 169 374 172 380 172 380 C 181 413 186 430 188 431 C 189 431 186 416 179 384 L 193 377 C 172 368 161 363 161 363 Z" fill="#7589aa" id="id-male-17_chef_top_arms-29">
</path>
<path d="M 70 361 L 78 348 C 94 311 102 292 102 292 C 120 258 129 240 129 240 C 140 186 146 159 146 159 C 141 259 138 309 138 309 L 119 339 C 86 353 70 361 70 361 Z" fill="#c4d1f1" id="id-male-17_chef_top_arms-30">
</path>
<path d="M 48 167 C 37 179 32 185 32 185 L 39 199 C 31 195 24 191 19 188 C -2 127 1 79 1 79 C 3 79 4 79 4 79 L 6 95 C 34 143 48 167 48 167 Z" fill="#8d9db7" id="id-male-17_chef_top_arms-31">
</path>
<path d="M 60 407 C 69 416 73 420 73 420 L 106 405 C 75 406 60 407 60 407 Z" fill="#768aab" id="id-male-17_chef_top_arms-32">
</path>
<polygon points="161 483 128 463 173 459" fill="#7f91b1" id="id-male-17_chef_top_arms-33">
</polygon>
<polygon points="173 457 119 444 177 440 172 443" fill="#8090b1" id="id-male-17_chef_top_arms-34">
</polygon>
<polygon points="59 371 86 327 48 363" fill="#768aab" id="id-male-17_chef_top_arms-35">
</polygon>
<polygon points="92 312 90 279 111 260" fill="#768aab" id="id-male-17_chef_top_arms-36">
</polygon>
<polygon points="103 288 127 188 114 260" fill="#768aab" id="id-male-17_chef_top_arms-37">
</polygon>
<path d="M 38 331 C 51 313 74 282 106 238 L 93 217 L 22 277 L 19 286 C 27 306 33 321 38 331 Z" fill="#c4d1f1" id="id-male-17_chef_top_arms-38">
</path>
<polygon points="34 188 52 178 56 178 99 147 103 182 122 128 132 77 12 91 95 132 52 168 48 168 32 185" fill="#c1cfec" id="id-male-17_chef_top_arms-39">
</polygon>
<path d="M 53 70 C 47 72 34 77 14 83 L 4 79 C 35 72 51 69 53 70 Z" fill="#7187aa" id="id-male-17_chef_top_arms-40">
</path>
<path d="M 159 141 L 182 188 L 182 204 L 200 222 L 193 274 L 247 225 C 252 234 254 241 252 246 C 238 268 223 290 207 312 L 203 328 L 177 282 L 171 315 L 159 141 Z" fill="#6c83a5" id="id-male-17_chef_top_arms-41">
</path>
<polygon points="177 231 181 251 175 269 169 244" fill="#243d5c" id="id-male-17_chef_top_arms-42">
</polygon>
<polygon points="224 288 206 305 203 328 207 312" fill="#284260" id="id-male-17_chef_top_arms-43">
</polygon>
<polygon points="197 378 195 339 182 292 203 328" fill="#1f3a58" id="id-male-17_chef_top_arms-44">
</polygon>
<path d="M 179 175 L 168 234 C 175 222 179 216 179 216 C 189 227 194 232 194 232 C 186 266 182 283 182 283 C 195 292 202 297 202 297 C 213 288 219 284 219 284 C 240 253 250 238 250 238 C 248 226 246 220 246 220 C 213 253 196 270 196 270 C 201 239 203 223 203 223 C 189 210 183 203 183 203 L 183 183 L 179 175 Z" fill="#95a4bb" id="id-male-17_chef_top_arms-45">
</path>
<path d="M 217 136 C 206 192 201 220 201 220 C 218 217 226 215 226 215 L 224 239 L 246 220 L 252 246 L 269 216 L 261 136 C 248 93 242 71 242 71 C 247 106 249 123 249 123 C 236 84 230 64 230 64 L 228 89 L 235 203 C 223 158 217 136 217 136 Z" fill="#eaedf4" id="id-male-17_chef_top_arms-46">
</path>
<path d="M 255 40 C 244 56 238 64 238 64 L 263 169 L 242 71 C 251 51 255 40 255 40 Z" fill="#2b4663" id="id-male-17_chef_top_arms-47">
</path>
<polygon points="198 188 182 204 186 94" fill="#c3d1ee" id="id-male-17_chef_top_arms-48">
</polygon>
<polygon points="193 175 220 43 181 62" fill="#e6eaf3" id="id-male-17_chef_top_arms-49">
</polygon>
<polygon points="213 32 63 57 145 22 178 0 185 0 154 30" fill="#c2cdeb" id="id-male-17_chef_top_arms-50">
</polygon>
<polygon points="213 21 224 28 208 27" fill="#7387aa" id="id-male-17_chef_top_arms-51">
</polygon>
<path d="M 173 354 C 168 349 166 346 166 346 L 137 337 L 119 339 C 132 319 138 309 138 309 C 144 190 147 131 147 131 C 120 206 106 244 106 244 C 95 226 90 217 90 217 C 124 120 142 72 142 72 L 91 57 C 31 72 1 79 1 79 C 58 58 87 47 87 47 C 119 42 135 39 135 39 C 162 49 175 54 175 54 L 157 101 C 168 269 173 354 173 354 Z" fill="#e0e4ed" id="id-male-17_chef_top_arms-52">
</path>
<polygon points="243 45 238 62 230 31 233 28" fill="#788dac" id="id-male-17_chef_top_arms-53">
</polygon>
<path d="M 132 70 C 124 90 121 101 121 101 C 65 89 38 83 38 83 L 94 74 C 119 71 132 70 132 70 Z" fill="#e9ecf5" id="id-male-17_chef_top_arms-54">
</path>
<path d="M 235 5 C 235 9 234 15 233 21 L 211 17 C 224 9 232 5 235 5 Z" fill="#c6cde0" id="id-male-17_chef_top_arms-55">
</path>
<polygon points="168 115 149 82 149 77 151 77 170 105 186 94" fill="#2a4361" id="id-male-17_chef_top_arms-56">
</polygon>
<polygon points="151 77 172 108 198 80 174 55 150 77" fill="#ef5f47" id="id-male-17_chef_top_arms-57">
</polygon>
<polygon points="174 55 174 64 182 63" fill="#ebe8ef" id="id-male-17_chef_top_arms-58">
</polygon>
<path d="M 172 66 L 151 77 L 172 108 C 190 89 198 80 198 80 C 192 80 189 80 189 80 C 182 73 179 70 179 70 C 185 78 188 82 188 82 C 178 91 173 95 173 95 L 159 78 L 172 66 Z" fill="#9d0f1d" id="id-male-17_chef_top_arms-59">
</path>
<polygon points="173 95 159 78 174 64 188 82" fill="#03223f" id="id-male-17_chef_top_arms-60">
</polygon>
<circle cx="173" cy="79" r="7" fill="#ac7229" id="id-male-17_chef_top_arms-61">
</circle>
<polygon points="173 95 172 99 156 78 159 78" fill="#ed5b43" id="id-male-17_chef_top_arms-62">
</polygon>
<polygon points="269 216 260 216 250 238 252 246" fill="#aab6cc" id="id-male-17_chef_top_arms-63">
</polygon>
<polygon points="269 216 261 214 266 184" fill="#c5ccdc" id="id-male-17_chef_top_arms-64">
</polygon>
</g>
<defs>
</defs>
<g transform="translate(601,443)" id="id-male-21_2_facial_hair-0">
<path d="M 119 71 C 119 71 77 95 69 97 L 47 97 C 44 95 2 74 1 71 C 1 71 13 16 19 8 L 56 0 L 56 7 C 28 18 16 17 21 53 C 22 54 22 58 19 60 L 34 59 L 31 63 L 39 61 C 39 61 51 75 78 62 L 79 62 L 87 63 L 83 60 L 98 60 L 95 55 C 95 14 94 21 59 7 L 60 0 C 60 0 96 6 99 9 C 103 13 119 61 119 71 Z" fill="#231012" id="id-male-21_2_facial_hair-1">
</path>
<polygon points="86 57 90 54 95 58" fill="#231011" id="id-male-21_2_facial_hair-1">
</polygon>
<polygon points="23 57 31 57 27 54" fill="#231011" id="id-male-21_2_facial_hair-1">
</polygon>
<path d="M 87 88 C 72 98 62 97 47 97 C 47 97 38 92 27 87 L 43 65 L 25 75 L 37 62 L 53 59 L 47 65 L 54 62 L 54 58 L 58 60 L 61 58 L 61 62 L 68 65 L 63 59 C 64 59 78 62 79 62 L 86 74 L 73 66 L 87 88 Z" fill="#b4bfdb" id="id-male-21_2_facial_hair-1">
</path>
</g>
<defs>
</defs>
<g transform="translate(559,194)" id="id-male-25_37_hair-0">
<g transform="translate(7,140)" fill="#773129" id="id-male-25_37_hair-1">
<path d="M 12 1 L 13 5 L 10 8 C 10 8 5 47 2 51 C 2 51 0 2 12 1 Z" id="id-male-25_37_hair-2">
</path>
</g>
<g fill="#1e0d1b" id="id-male-25_37_hair-3">
<path d="M 202 149 C 202 149 191 154 190 156 C 190 154 188 152 187 150 C 185 148 184 145 182 143 L 153 131 C 153 131 148 108 134 97 C 130 97 126 99 123 100 L 136 100 C 136 100 106 110 102 114 C 92 107 81 102 70 98 C 73 98 76 98 80 98 C 67 90 60 91 46 96 L 55 83 L 35 89 L 46 74 C 45 73 45 71 45 69 C 55 79 56 52 59 49 C 59 49 60 56 62 56 C 62 56 78 18 80 16 L 77 29 C 82 24 89 16 94 11 L 95 16 L 102 0 C 107 9 113 22 117 31 C 117 31 119 21 117 18 C 124 27 127 45 137 54 C 136 51 135 48 134 45 C 137 48 146 62 145 70 L 159 76 L 173 98 C 173 98 156 86 146 84 L 152 92 L 136 96 C 136 96 152 112 155 130 L 180 140 C 182 140 189 136 189 132 C 191 135 195 136 202 136 C 204 140 204 144 203 148 C 203 148 203 149 202 149 Z" id="id-male-25_37_hair-2">
</path>
<path d="M 188 118 C 188 118 165 103 160 96 C 166 98 175 101 180 103 C 184 109 187 113 188 115 C 188 116 189 117 188 118 Z" id="id-male-25_37_hair-2">
</path>
<polygon points="22 100 27 93 46 88 34 104" id="id-male-25_37_hair-2">
</polygon>
<path d="M 27 115 L 13 123 C 14 117 15 114 16 112 C 17 110 18 108 20 106 L 27 115 Z" id="id-male-25_37_hair-2">
</path>
<path d="M 21 136 L 20 144 L 15 148 C 14 157 11 174 10 183 L 1 178 L 0 178 L 0 156 L 5 133 L 11 129 C 12 130 13 137 13 138 L 14 138 L 17 131 L 21 136 Z" id="id-male-25_37_hair-2">
</path>
</g>
</g>
<defs>
<linearGradient x1="50%" y1="28%" x2="32%" y2="89%" id="id-male-28_horns-0">
<stop stop-color="#1c0606" offset="0%">
</stop>
<stop stop-color="#270e0e" offset="100%" stop-opacity="0.199">
</stop>
</linearGradient>
<filter width="146%" height="129%" x="-23%" y="-14%" id="id-male-28_horns-1" filterUnits="objectBoundingBox">
<feGaussianBlur in="SourceGraphic" stdDeviation="5">
</feGaussianBlur>
</filter>
<radialGradient cx="67%" cy="44%" r="68%" id="id-male-28_horns-2" fx="67%" fy="44%" gradientTransform="translate(0.671,0.439) scale(1,0.671) rotate(75) translate(-0.671,-0.439)">
<stop stop-color="#c90000" offset="0%">
</stop>
<stop stop-color="#2a1113" offset="100%">
</stop>
</radialGradient>
<linearGradient x1="50%" y1="37%" x2="32%" y2="73%" id="id-male-28_horns-3">
<stop stop-color="#1c0606" offset="0%">
</stop>
<stop stop-color="#270e0e" offset="100%" stop-opacity="0.199">
</stop>
</linearGradient>
<filter width="144%" height="129%" x="-22%" y="-14%" id="id-male-28_horns-4" filterUnits="objectBoundingBox">
<feGaussianBlur in="SourceGraphic" stdDeviation="5">
</feGaussianBlur>
</filter>
<radialGradient cx="35%" cy="41%" r="76%" id="id-male-28_horns-5" fx="35%" fy="41%" gradientTransform="translate(0.349,0.415) scale(1,0.671) rotate(83) translate(-0.349,-0.415)">
<stop stop-color="#c90000" offset="0%">
</stop>
<stop stop-color="#2a1113" offset="100%">
</stop>
</radialGradient>
</defs>
<g transform="translate(548,221)" id="id-male-28_horns-6">
<g transform="translate(145,0)" id="id-male-28_horns-7">
<polygon points="5 106 34 131 38 100" fill="url(#id-male-28_horns-0)" opacity="0.599" id="id-male-28_horns-8">
</polygon>
<path d="M 75 57 C 75 58 74 59 74 59 C 72 66 69 72 65 77 C 65 77 64 78 64 78 C 56 88 46 97 35 105 C 34 106 24 108 18 100 C 12 92 10 77 12 77 C 22 76 30 68 38 61 C 38 61 39 60 39 60 C 49 51 56 40 58 34 C 63 23 59 8 60 2 C 75 24 79 42 75 57 Z" fill="#ff2626" id="id-male-28_horns-9" filter="url(#id-male-28_horns-1)">
</path>
<path d="M 75 57 C 75 58 74 59 74 59 C 72 66 69 72 65 77 C 65 77 64 78 64 78 C 56 88 46 97 35 105 C 33 107 30 110 29 113 C 29 114 29 114 29 114 C 26 114 24 114 22 112 C -3 115 -1 85 5 76 C 5 75 6 75 6 75 C 6 75 8 73 11 73 C 21 73 30 68 38 61 C 38 61 39 60 39 60 C 49 51 56 40 58 34 C 63 23 59 8 60 2 C 75 24 79 42 75 57 Z" fill="url(#id-male-28_horns-2)" id="id-male-28_horns-9">
</path>
<path d="M 74 59 C 70 73 60 84 49 94 L 49 94 C 44 98 40 102 35 105 C 33 107 30 110 29 113 L 28 105 L 28 100 C 28 100 60 80 74 59 Z" fill="#363b7e" id="id-male-28_horns-9">
</path>
<path d="M 5 90 C 5 90 8 102 11 104 C 11 104 1 103 5 90 Z" fill="#636383" id="id-male-28_horns-9">
</path>
<path d="M 17 107 L 22 107 L 23 110 C 23 110 18 109 17 107 Z" fill="#485096" id="id-male-28_horns-9">
</path>
<path d="M 49 94 C 44 98 40 102 35 105 C 33 107 30 110 29 113 L 28 105 C 29 104 30 104 32 103 C 36 103 44 98 49 94 Z" fill="#5562ac" id="id-male-28_horns-9">
</path>
<path d="M 29 68 C 23 74 14 77 6 75 C 6 75 6 75 6 75 C 6 75 8 73 11 73 C 17 73 23 71 29 68 Z" fill="#898aae" id="id-male-28_horns-9">
</path>
<path d="M 76 39 C 67 47 61 42 57 37 C 57 36 58 35 58 34 C 63 23 59 8 60 2 C 70 15 75 28 76 39 Z" fill="#240f18" id="id-male-28_horns-9">
</path>
<path d="M 67 35 C 67 39 66 51 57 56 C 48 61 49 62 40 70 L 40 70 C 31 79 19 100 19 100 C 12 95 13 89 13 89 C 13 89 31 74 39 68 C 40 67 41 66 41 66 C 46 62 63 47 63 30 C 64 13 59 0 59 0 C 68 15 68 32 67 35 Z" fill="#8e9bc2" opacity="0.882" id="id-male-28_horns-9">
</path>
<path d="M 65 77 C 65 77 64 78 64 78 C 59 79 49 80 43 72 C 41 70 40 68 39 66 C 39 64 38 63 38 61 C 38 61 39 60 39 60 C 39 62 40 63 41 65 C 41 67 42 69 44 70 C 48 75 54 79 65 77 Z" fill="#ec2027" id="id-male-28_horns-9">
</path>
<path d="M 44 70 L 43 72 C 41 70 40 68 39 66 L 41 65 C 41 67 42 69 44 70 Z" fill="#d5dcf0" id="id-male-28_horns-9">
</path>
<path d="M 40 70 C 31 79 19 100 19 100 C 12 95 13 89 13 89 C 13 89 31 74 39 68 L 40 70 Z" fill="#58465d" id="id-male-28_horns-9">
</path>
</g>
<polygon points="42 105 47 127 71 107" fill="url(#id-male-28_horns-3)" opacity="0.599" id="id-male-28_horns-8">
</polygon>
<g id="id-male-28_horns-23">
<path d="M 2 57 C 2 58 3 59 3 59 C 5 66 8 72 12 77 C 12 77 13 78 13 78 C 21 88 31 97 42 105 C 42 106 61 108 64 105 C 71 96 68 73 66 73 C 56 73 47 68 39 61 C 39 61 38 60 38 60 C 28 51 21 40 19 34 C 14 23 18 8 17 2 C 2 24 -2 42 2 57 Z" fill="#ff2626" id="id-male-28_horns-9" filter="url(#id-male-28_horns-4)">
</path>
<path d="M 2 57 C 2 58 3 59 3 59 C 5 66 8 72 12 77 C 12 77 13 78 13 78 C 21 88 31 97 42 105 C 44 107 47 110 48 113 C 48 114 48 114 48 114 C 51 114 53 114 55 112 C 80 115 78 85 72 76 C 72 75 71 75 71 75 C 71 75 69 73 66 73 C 56 73 47 68 39 61 C 39 61 38 60 38 60 C 28 51 21 40 19 34 C 14 23 18 8 17 2 C 2 24 -2 42 2 57 Z" fill="url(#id-male-28_horns-5)" id="id-male-28_horns-9">
</path>
<path d="M 3 59 C 7 73 17 84 28 94 L 28 94 C 33 98 37 102 42 105 C 44 107 47 110 48 113 L 49 105 L 49 100 C 49 100 16 80 3 59 Z" fill="#363b7e" id="id-male-28_horns-9">
</path>
<path d="M 72 90 C 72 90 69 102 66 104 C 66 104 76 103 72 90 Z" fill="#636383" id="id-male-28_horns-9">
</path>
<path d="M 60 107 L 55 107 L 54 110 C 54 110 59 109 60 107 Z" fill="#485096" id="id-male-28_horns-9">
</path>
<path d="M 28 94 C 33 98 37 102 42 105 C 44 107 47 110 48 113 L 49 105 C 48 104 47 104 45 103 C 40 103 33 98 28 94 Z" fill="#5562ac" id="id-male-28_horns-9">
</path>
<path d="M 48 68 C 54 74 63 77 71 75 C 71 75 71 75 71 75 C 71 75 69 73 66 73 C 60 73 54 71 48 68 Z" fill="#898aae" id="id-male-28_horns-9">
</path>
<path d="M 1 39 C 10 47 16 42 20 37 C 20 36 19 35 19 34 C 14 23 18 8 17 2 C 7 15 2 28 1 39 Z" fill="#240f18" id="id-male-28_horns-9">
</path>
<path d="M 10 35 C 10 39 11 51 20 56 C 29 61 28 62 37 70 L 37 70 C 46 79 58 100 58 100 C 65 95 64 89 64 89 C 64 89 46 74 38 68 C 37 67 36 66 36 66 C 31 62 14 47 13 30 C 13 13 18 0 18 0 C 9 15 9 32 10 35 Z" fill="#8e9bc2" opacity="0.879" id="id-male-28_horns-9">
</path>
<path d="M 12 77 C 12 77 13 78 13 78 C 18 79 28 80 34 72 C 36 70 37 68 38 66 C 38 64 39 63 39 61 C 39 61 38 60 38 60 C 37 62 37 63 36 65 C 35 67 34 69 33 70 C 29 75 23 79 12 77 Z" fill="#ec2027" id="id-male-28_horns-9">
</path>
<path d="M 33 70 L 34 72 C 36 70 37 68 38 66 L 36 65 C 36 67 34 69 33 70 Z" fill="#d5dcf0" id="id-male-28_horns-9">
</path>
<path d="M 37 70 C 46 79 58 100 58 100 C 65 95 64 89 64 89 C 64 89 46 74 38 68 L 37 70 Z" fill="#58465d" id="id-male-28_horns-9">
</path>
</g>
</g>
<defs>
</defs>

</svg>
