<?xml version="1.0" encoding="UTF-8"?>
<svg xmlns="http://www.w3.org/2000/svg" xmlns:xlink="http://www.w3.org/1999/xlink" width="1320px" height="1760px" viewBox="0 0 1320 1760" version="1.1">
<defs>
</defs>

<defs>
</defs>
<g transform="translate(536,481)" id="id-male-4_puffer_cropped_jacket_back-0">
<path d="M 240 36 C 240 36 194 64 194 64 C 194 64 152 138 151 139 C 150 140 113 145 113 145 L 81 59 L 42 54 L 7 24 L 9 19 L 43 4 C 52 5 214 -6 232 19 L 234 30 C 234 30 238 32 240 36 Z" fill="#067e53" id="id-male-4_puffer_cropped_jacket_back-1">
</path>
<path d="M 235 31 L 203 60 L 165 67 L 166 58 L 194 55 L 228 25 L 205 14 L 185 11 L 54 7 L 14 25 L 43 51 L 81 56 L 80 63 C 26 55 43 59 0 27 C 2 23 3 20 3 17 L 41 0 C 92 2 212 -5 234 18 C 234 20 233 30 235 31 Z" fill="#210f10" id="id-male-4_puffer_cropped_jacket_back-1">
</path>
</g>
<defs>
<linearGradient x1="50%" y1="6%" x2="50%" y2="100%" id="id-male-6.6_base_1-0">
<stop stop-color="#ac705d" offset="0%">
</stop>
<stop stop-color="#ffddbc" offset="8%">
</stop>
<stop stop-color="#e9af8e" offset="20%">
</stop>
<stop stop-color="#e7ad8d" offset="34%">
</stop>
<stop stop-color="#d4856f" offset="71%">
</stop>
<stop stop-color="#c37f6d" offset="100%">
</stop>
</linearGradient>
<linearGradient x1="50%" y1="-10%" x2="50%" y2="84%" id="id-male-6.6_base_1-1">
<stop stop-color="#e0a582" offset="0%">
</stop>
<stop stop-color="#f6c49e" offset="49%">
</stop>
<stop stop-color="#d09479" offset="100%">
</stop>
</linearGradient>
<linearGradient x1="57%" y1="50%" x2="47%" y2="56%" id="id-male-6.6_base_1-2">
<stop stop-color="#e2ad9f" offset="0%">
</stop>
<stop stop-color="#b46d61" offset="100%">
</stop>
</linearGradient>
<linearGradient x1="45%" y1="35%" x2="55%" y2="47%" id="id-male-6.6_base_1-3">
<stop stop-color="#e9ac94" offset="0%">
</stop>
<stop stop-color="#c37f6d" offset="100%">
</stop>
</linearGradient>
<linearGradient x1="54%" y1="31%" x2="47%" y2="81%" id="id-male-6.6_base_1-4">
<stop stop-color="#e7ae8d" offset="0%">
</stop>
<stop stop-color="#d8997b" offset="20%">
</stop>
<stop stop-color="#dfa083" offset="71%">
</stop>
<stop stop-color="#c5816d" offset="81%">
</stop>
<stop stop-color="#bc7665" offset="100%">
</stop>
</linearGradient>
<linearGradient x1="43%" y1="38%" x2="54%" y2="44%" id="id-male-6.6_base_1-5">
<stop stop-color="#e0a384" offset="0%">
</stop>
<stop stop-color="#dda081" offset="100%">
</stop>
</linearGradient>
<linearGradient x1="46%" y1="26%" x2="59%" y2="75%" id="id-male-6.6_base_1-6">
<stop stop-color="#ffdbb9" offset="0%">
</stop>
<stop stop-color="#d7917a" offset="100%">
</stop>
</linearGradient>
<linearGradient x1="50%" y1="41%" x2="49%" y2="66%" id="id-male-6.6_base_1-7">
<stop stop-color="#6a4862" offset="0%">
</stop>
<stop stop-color="#a76f5b" offset="27%">
</stop>
<stop stop-color="#e9b090" offset="100%">
</stop>
</linearGradient>
<linearGradient x1="63%" y1="4%" x2="25%" y2="77%" id="id-male-6.6_base_1-8">
<stop stop-color="#fff1de" offset="0%">
</stop>
<stop stop-color="#ffeed9" offset="56%">
</stop>
<stop stop-color="#e3aa88" offset="100%">
</stop>
</linearGradient>
<linearGradient x1="50%" y1="23%" x2="41%" y2="77%" id="id-male-6.6_base_1-9">
<stop stop-color="#73332e" offset="0%">
</stop>
<stop stop-color="#b77e68" offset="100%">
</stop>
</linearGradient>
<linearGradient x1="47%" y1="22%" x2="55%" y2="89%" id="id-male-6.6_base_1-10">
<stop stop-color="#a06555" offset="0%">
</stop>
<stop stop-color="#fad5b9" offset="100%">
</stop>
</linearGradient>
<linearGradient x1="86%" y1="87%" x2="12%" y2="66%" id="id-male-6.6_base_1-11">
<stop stop-color="#dea186" offset="0%">
</stop>
<stop stop-color="#cb8c76" offset="100%">
</stop>
</linearGradient>
<linearGradient x1="71%" y1="11%" x2="50%" y2="100%" id="id-male-6.6_base_1-12">
<stop stop-color="#be7d66" offset="0%" stop-opacity="0">
</stop>
<stop stop-color="#f1bd9b" offset="100%">
</stop>
</linearGradient>
<linearGradient x1="66%" y1="46%" x2="56%" y2="43%" id="id-male-6.6_base_1-13">
<stop stop-color="#cd8d78" offset="0%">
</stop>
<stop stop-color="#bb786d" offset="100%">
</stop>
</linearGradient>
<linearGradient x1="100%" y1="41%" x2="50%" y2="63%" id="id-male-6.6_base_1-14">
<stop stop-color="#6a2b27" offset="0%">
</stop>
<stop stop-color="#743c3a" offset="100%">
</stop>
</linearGradient>
<linearGradient x1="69%" y1="20%" x2="50%" y2="99%" id="id-male-6.6_base_1-15">
<stop stop-color="#cf8f7a" offset="0%">
</stop>
<stop stop-color="#dd9e87" offset="100%">
</stop>
</linearGradient>
<linearGradient x1="36%" y1="20%" x2="57%" y2="81%" id="id-male-6.6_base_1-16">
<stop stop-color="#f1ba97" offset="0%">
</stop>
<stop stop-color="#efb795" offset="100%">
</stop>
</linearGradient>
<linearGradient x1="26%" y1="83%" x2="92%" y2="50%" id="id-male-6.6_base_1-17">
<stop stop-color="#ffd3ad" offset="0%">
</stop>
<stop stop-color="#ffd3af" offset="100%" stop-opacity="0">
</stop>
</linearGradient>
<linearGradient x1="17%" y1="56%" x2="85%" y2="45%" id="id-male-6.6_base_1-18">
<stop stop-color="#ffebd1" offset="0%" stop-opacity="0">
</stop>
<stop stop-color="#ffe9d0" offset="52%">
</stop>
<stop stop-color="#fccead" offset="100%">
</stop>
</linearGradient>
<linearGradient x1="17%" y1="24%" x2="74%" y2="87%" id="id-male-6.6_base_1-19">
<stop stop-color="#ffedd8" offset="0%">
</stop>
<stop stop-color="#dca181" offset="100%">
</stop>
</linearGradient>
<linearGradient x1="26%" y1="42%" x2="80%" y2="75%" id="id-male-6.6_base_1-20">
<stop stop-color="#fff1dd" offset="0%">
</stop>
<stop stop-color="#ffd4b1" offset="100%" stop-opacity="0">
</stop>
</linearGradient>
<linearGradient x1="29%" y1="56%" x2="77%" y2="50%" id="id-male-6.6_base_1-21">
<stop stop-color="#ffebd4" offset="0%">
</stop>
<stop stop-color="#fedab7" offset="100%">
</stop>
</linearGradient>
<linearGradient x1="74%" y1="24%" x2="34%" y2="74%" id="id-male-6.6_base_1-22">
<stop stop-color="#ba8469" offset="0%">
</stop>
<stop stop-color="#e9af8f" offset="0%">
</stop>
<stop stop-color="#ffcfa8" offset="100%">
</stop>
</linearGradient>
<linearGradient x1="66%" y1="100%" x2="40%" y2="0%" id="id-male-6.6_base_1-23">
<stop stop-color="#fac5a3" offset="0%">
</stop>
<stop stop-color="#fff5e6" offset="46%">
</stop>
<stop stop-color="#fac8a2" offset="100%">
</stop>
</linearGradient>
<linearGradient x1="52%" y1="13%" x2="59%" y2="75%" id="id-male-6.6_base_1-24">
<stop stop-color="#d68d79" offset="0%">
</stop>
<stop stop-color="#eeae91" offset="100%">
</stop>
</linearGradient>
<linearGradient x1="28%" y1="76%" x2="73%" y2="20%" id="id-male-6.6_base_1-25">
<stop stop-color="#f0b294" offset="0%">
</stop>
<stop stop-color="#d28271" offset="67%">
</stop>
<stop stop-color="#df9880" offset="100%">
</stop>
</linearGradient>
<linearGradient x1="50%" y1="0%" x2="50%" y2="100%" id="id-male-6.6_base_1-26">
<stop stop-color="#db957f" offset="0%">
</stop>
<stop stop-color="#9a4f4b" offset="100%">
</stop>
</linearGradient>
<linearGradient x1="66%" y1="59%" x2="24%" y2="66%" id="id-male-6.6_base_1-27">
<stop stop-color="#dea07f" offset="0%">
</stop>
<stop stop-color="#fcc8a5" offset="100%">
</stop>
</linearGradient>
<linearGradient x1="41%" y1="11%" x2="64%" y2="63%" id="id-male-6.6_base_1-28">
<stop stop-color="#ffe6d6" offset="0%">
</stop>
<stop stop-color="#da957e" offset="100%">
</stop>
</linearGradient>
<linearGradient x1="19%" y1="58%" x2="66%" y2="43%" id="id-male-6.6_base_1-29">
<stop stop-color="#ffebd4" offset="0%">
</stop>
<stop stop-color="#ffd1aa" offset="100%">
</stop>
</linearGradient>
<linearGradient x1="73%" y1="50%" x2="30%" y2="53%" id="id-male-6.6_base_1-30">
<stop stop-color="#ffd1ab" offset="0%">
</stop>
<stop stop-color="#fff6e4" offset="100%">
</stop>
</linearGradient>
<linearGradient x1="31%" y1="0%" x2="50%" y2="100%" id="id-male-6.6_base_1-31">
<stop stop-color="#fff1e3" offset="0%">
</stop>
<stop stop-color="#ffeada" offset="100%">
</stop>
</linearGradient>
<linearGradient x1="29%" y1="43%" x2="65%" y2="100%" id="id-male-6.6_base_1-32">
<stop stop-color="#ffe9d4" offset="0%">
</stop>
<stop stop-color="#fecfb1" offset="100%">
</stop>
</linearGradient>
<linearGradient x1="13%" y1="78%" x2="84%" y2="50%" id="id-male-6.6_base_1-33">
<stop stop-color="#f4ba9a" offset="0%">
</stop>
<stop stop-color="#e2a086" offset="100%">
</stop>
</linearGradient>
<linearGradient x1="50%" y1="0%" x2="36%" y2="100%" id="id-male-6.6_base_1-34">
<stop stop-color="#ffebd4" offset="0%">
</stop>
<stop stop-color="#ffddc6" offset="100%">
</stop>
</linearGradient>
<linearGradient x1="50%" y1="28%" x2="64%" y2="55%" id="id-male-6.6_base_1-35">
<stop stop-color="#ffe7cd" offset="0%">
</stop>
<stop stop-color="#ffddc0" offset="100%">
</stop>
</linearGradient>
<linearGradient x1="40%" y1="55%" x2="62%" y2="71%" id="id-male-6.6_base_1-36">
<stop stop-color="#dca17f" offset="0%">
</stop>
<stop stop-color="#fac5a0" offset="100%">
</stop>
</linearGradient>
<linearGradient x1="9%" y1="37%" x2="88%" y2="55%" id="id-male-6.6_base_1-37">
<stop stop-color="#e3a889" offset="0%">
</stop>
<stop stop-color="#b36f5f" offset="100%">
</stop>
</linearGradient>
<linearGradient x1="62%" y1="19%" x2="50%" y2="100%" id="id-male-6.6_base_1-38">
<stop stop-color="#e0a686" offset="0%">
</stop>
<stop stop-color="#bf7c68" offset="100%">
</stop>
</linearGradient>
<linearGradient x1="45%" y1="18%" x2="51%" y2="67%" id="id-male-6.6_base_1-39">
<stop stop-color="#ffe5d3" offset="0%">
</stop>
<stop stop-color="#f5c3a0" offset="100%">
</stop>
</linearGradient>
<linearGradient x1="50%" y1="0%" x2="50%" y2="100%" id="id-male-6.6_base_1-40">
<stop stop-color="#f9ccb7" offset="0%">
</stop>
<stop stop-color="#e7ad8a" offset="100%">
</stop>
</linearGradient>
<linearGradient x1="45%" y1="50%" x2="58%" y2="50%" id="id-male-6.6_base_1-41">
<stop stop-color="#dfa288" offset="0%">
</stop>
<stop stop-color="#facbb3" offset="100%">
</stop>
</linearGradient>
<linearGradient x1="33%" y1="74%" x2="77%" y2="42%" id="id-male-6.6_base_1-42">
<stop stop-color="#ce937b" offset="0%">
</stop>
<stop stop-color="#eab89d" offset="100%">
</stop>
</linearGradient>
<linearGradient x1="63%" y1="59%" x2="38%" y2="59%" id="id-male-6.6_base_1-43">
<stop stop-color="#d89a80" offset="0%">
</stop>
<stop stop-color="#ecba9e" offset="100%">
</stop>
</linearGradient>
<linearGradient x1="50%" y1="0%" x2="50%" y2="100%" id="id-male-6.6_base_1-44">
<stop stop-color="#d08c74" offset="0%">
</stop>
<stop stop-color="#df9a83" offset="100%">
</stop>
</linearGradient>
<linearGradient x1="47%" y1="47%" x2="53%" y2="50%" id="id-male-6.6_base_1-45">
<stop stop-color="#fde1cd" offset="0%">
</stop>
<stop stop-color="#d68f79" offset="100%">
</stop>
</linearGradient>
<linearGradient x1="50%" y1="0%" x2="50%" y2="100%" id="id-male-6.6_base_1-46">
<stop stop-color="#e29a83" offset="0%">
</stop>
<stop stop-color="#dd947e" offset="100%">
</stop>
</linearGradient>
<linearGradient x1="50%" y1="0%" x2="53%" y2="50%" id="id-male-6.6_base_1-47">
<stop stop-color="#dd9785" offset="0%">
</stop>
<stop stop-color="#f3d9c6" offset="100%">
</stop>
</linearGradient>
<linearGradient x1="0%" y1="55%" x2="99%" y2="55%" id="id-male-6.6_base_1-48">
<stop stop-color="#dfa59a" offset="0%">
</stop>
<stop stop-color="#d3938d" offset="100%">
</stop>
</linearGradient>
<linearGradient x1="50%" y1="0%" x2="50%" y2="100%" id="id-male-6.6_base_1-49">
<stop stop-color="#f0cab1" offset="0%">
</stop>
<stop stop-color="#dc907e" offset="100%">
</stop>
</linearGradient>
<linearGradient x1="49%" y1="20%" x2="52%" y2="96%" id="id-male-6.6_base_1-50">
<stop stop-color="#dd9285" offset="0%">
</stop>
<stop stop-color="#d88d79" offset="100%">
</stop>
</linearGradient>
<linearGradient x1="50%" y1="0%" x2="50%" y2="100%" id="id-male-6.6_base_1-51">
<stop stop-color="#86363e" offset="0%">
</stop>
<stop stop-color="#b46a5d" offset="100%">
</stop>
</linearGradient>
<linearGradient x1="33%" y1="47%" x2="59%" y2="56%" id="id-male-6.6_base_1-52">
<stop stop-color="#f6bd9d" offset="0%">
</stop>
<stop stop-color="#d48673" offset="100%">
</stop>
</linearGradient>
</defs>
<g transform="translate(304,473)" id="id-male-6.6_base_1-53">
<polygon points="174 662 139 824 137 906 146 1082 171 1154 176 1211 174 1230 175 1284 287 1284 284 1265 308 1195 306 1124 345 952 343 912 353 879 362 881 371 877 383 904 391 970 434 1079 457 1202 475 1252 475 1284 596 1284 600 1225 591 1146 609 1103 612 997 596 842 545 671 539 640 528 606 531 569 509 498 522 403 539 360 539 348 563 464 576 498 585 574 637 704 646 760 646 778 626 822 624 853 631 879 629 901 632 920 637 931 647 931 657 920 655 877 659 867 670 874 672 899 676 903 667 923 644 934 643 945 666 939 664 948 643 960 640 982 657 971 674 969 690 945 701 933 704 926 707 923 713 892 718 871 704 832 696 786 703 768 693 725 693 521 652 425 629 282 626 203 612 175 567 156 548 141 530 139 479 114 422 73 416 42 415 1 285 0 284 73 279 83 242 114 196 137 171 139 155 156 108 175 91 228 91 287 68 431 30 516 23 602 28 725 16 764 21 782 0 874 18 932 49 968 59 970 83 982 83 965 78 960 57 949 55 941 78 948 78 936 66 929 53 923 45 906 51 875 61 866 66 877 63 922 75 927 86 925 93 899 90 877 96 856 96 824 75 778 77 738 108 637 139 562 142 495 159 458 180 358 199 403 203 461 211 504 188 564 191 608" fill="url(#id-male-6.6_base_1-0)" id="id-male-6.6_base_1-54">
</polygon>
<polygon points="91 287 68 431 30 516 23 602 72 688 117 614 98 452 109 469 123 336 102 372 109 294 88 309 109 285" fill="url(#id-male-6.6_base_1-1)" id="id-male-6.6_base_1-54">
</polygon>
<polygon points="383 906 391 972 434 1081 457 1204 475 1254 475 1287 596 1287 600 1226 591 1148 609 1105 612 999 602 904 584 908 584 846 535 683 456 705 382 878" fill="url(#id-male-6.6_base_1-2)" id="id-male-6.6_base_1-54">
</polygon>
<polygon points="137 907 146 1083 171 1156 176 1212 174 1232 175 1286 175 1287 287 1287 284 1266 308 1197 306 1126 345 954 343 923 293 814 263 724 247 711" fill="url(#id-male-6.6_base_1-3)" id="id-male-6.6_base_1-54">
</polygon>
<polygon points="545 673 539 641 528 608 531 571 509 500 522 405 539 361 539 350 563 465 576 500 601 540 660 491 688 529 652 427 629 283 626 205 612 177 568 157 548 142 530 141 479 116 422 75 416 44 415 3 360 3 360 715 462 724" fill="url(#id-male-6.6_base_1-4)" id="id-male-6.6_base_1-54">
</polygon>
<polygon points="83 984 59 972 49 970 21 932 19 903 7 879 0 874 11 824 38 786 38 814 56 786 78 800 91 822 83 879 69 882 63 855 51 877 45 908 47 930 37 930 50 938 53 954 49 960 56 956 83 973" fill="#e4ab86" id="id-male-6.6_base_1-59">
</polygon>
<polygon points="66 855 69 882 63 855 51 877 45 908 42 870 58 825" fill="url(#id-male-6.6_base_1-5)" id="id-male-6.6_base_1-59">
</polygon>
<polygon points="83 879 69 882 70 868" fill="#ffd6ba" id="id-male-6.6_base_1-59">
</polygon>
<polygon points="481 376 513 349 558 291 522 368" fill="#bd9394" id="id-male-6.6_base_1-62">
</polygon>
<polygon points="313 697 260 560 246 448 259 424 355 408 361 366 317 404 285 409 267 378 313 343 394 351 431 378 420 404 368 399 371 404 449 421 466 441 449 510 466 547 406 697 358 717" fill="url(#id-male-6.6_base_1-6)" id="id-male-6.6_base_1-63">
</polygon>
<polygon points="410 90 430 82 423 76 416 45 416 7 286 9 286 48 283 76 278 86 244 114 195 139 366 139 390 70 410 26" fill="url(#id-male-6.6_base_1-7)" id="id-male-6.6_base_1-64">
</polygon>
<polygon points="182 180 133 231 97 289 97 231 113 182 165 159" fill="url(#id-male-6.6_base_1-8)" id="id-male-6.6_base_1-65">
</polygon>
<polygon points="346 107 384 55 409 31 414 23 299 31" fill="url(#id-male-6.6_base_1-9)" id="id-male-6.6_base_1-66">
</polygon>
<polygon points="287 93 295 32 323 129" fill="url(#id-male-6.6_base_1-10)" id="id-male-6.6_base_1-67">
</polygon>
<polygon points="336 139 314 151 270 146 224 139" fill="#fef6e3" id="id-male-6.6_base_1-68">
</polygon>
<polygon points="410 84 409 136 461 129" fill="url(#id-male-6.6_base_1-11)" id="id-male-6.6_base_1-69">
</polygon>
<polygon points="173 246 167 286 191 351 263 386 328 330 359 330 359 152 348 139 336 139 309 152" fill="url(#id-male-6.6_base_1-12)" id="id-male-6.6_base_1-70">
</polygon>
<polygon points="464 159 516 190 500 159" fill="url(#id-male-6.6_base_1-13)" id="id-male-6.6_base_1-71">
</polygon>
<polygon points="302 36 346 72 382 62 409 37 416 28 416 13" fill="url(#id-male-6.6_base_1-14)" id="id-male-6.6_base_1-72">
</polygon>
<polygon points="263 151 191 202 219 151" fill="#efb795" id="id-male-6.6_base_1-73">
</polygon>
<polygon points="154 206 170 170 122 188" fill="#fffcf1" id="id-male-6.6_base_1-74">
</polygon>
<polygon points="358 285 344 299 323 318 305 354 358 345 354 305" fill="url(#id-male-6.6_base_1-15)" id="id-male-6.6_base_1-75">
</polygon>
<polygon points="260 361 265 387 203 371 191 347" fill="#c4846d" id="id-male-6.6_base_1-76">
</polygon>
<polygon points="198 362 181 359 167 284" fill="#8d4146" id="id-male-6.6_base_1-77">
</polygon>
<polygon points="477 341 477 335 488 326 496 325 509 338 496 348 485 354" fill="#a86056" id="id-male-6.6_base_1-78">
</polygon>
<polygon points="314 151 342 220 317 293 237 351 209 318 172 251 185 205 270 146" fill="url(#id-male-6.6_base_1-16)" id="id-male-6.6_base_1-79">
</polygon>
<polygon points="314 151 330 238 209 318 172 251 185 205 270 146" fill="url(#id-male-6.6_base_1-17)" id="id-male-6.6_base_1-79">
</polygon>
<polygon points="314 151 350 205 220 227 185 205 270 146" fill="url(#id-male-6.6_base_1-18)" opacity="0.369" id="id-male-6.6_base_1-79">
</polygon>
<polygon points="211 335 223 322 242 327 244 332 235 353 213 349" fill="#c48172" id="id-male-6.6_base_1-82">
</polygon>
<polygon points="224 339 226 342 226 345 222 349 235 350 242 333 230 338 227 335" fill="#d4acc2" id="id-male-6.6_base_1-83">
</polygon>
<polygon points="488 343 491 347 486 351 479 338 489 327 495 327 493 336" fill="#c7878d" id="id-male-6.6_base_1-84">
</polygon>
<polygon points="485 339 488 343 493 337" fill="#edb596" id="id-male-6.6_base_1-85">
</polygon>
<polygon points="359 162 359 291 406 325 455 347 529 267 463 182 415 166" fill="url(#id-male-6.6_base_1-19)" id="id-male-6.6_base_1-86">
</polygon>
<polygon points="359 178 359 281 391 302 391 249 489 270 461 189 415 166" fill="url(#id-male-6.6_base_1-20)" id="id-male-6.6_base_1-86">
</polygon>
<polygon points="359 178 359 219 472 220 461 189 415 166 371 163" fill="url(#id-male-6.6_base_1-21)" id="id-male-6.6_base_1-86">
</polygon>
<polygon points="358 178 372 168 440 156 413 137 378 158 411 80 396 60 358 146" fill="url(#id-male-6.6_base_1-22)" id="id-male-6.6_base_1-89">
</polygon>
<polygon points="346 140 358 152 372 129 400 48 369 86 364 130" fill="#b66b53" id="id-male-6.6_base_1-90">
</polygon>
<polygon points="591 281 601 226 559 159 514 159 523 138 499 156 571 263" fill="url(#id-male-6.6_base_1-23)" id="id-male-6.6_base_1-91">
</polygon>
<polygon points="609 298 626 332 629 285 627 227 614 207 617 251" fill="#c6cbe5" id="id-male-6.6_base_1-92">
</polygon>
<polygon points="554 159 567 157 612 177 614 192 579 175 603 207 601 226" fill="#f6bf9d" id="id-male-6.6_base_1-93">
</polygon>
<polygon points="641 823 648 826 697 896 713 873 682 781" fill="url(#id-male-6.6_base_1-24)" id="id-male-6.6_base_1-94">
</polygon>
<polygon points="625 840 700 762 688 738 679 784 648 776 626 822" fill="url(#id-male-6.6_base_1-25)" id="id-male-6.6_base_1-94">
</polygon>
<polygon points="648 862 648 845 661 825 661 870 654 878 657 922 652 929 637 929 632 914 632 893 632 877 644 888" fill="#b06559" id="id-male-6.6_base_1-96">
</polygon>
<polygon points="554 375 577 333 607 451 594 508 568 462" fill="#f9c3ad" id="id-male-6.6_base_1-97">
</polygon>
<polygon points="623 326 643 425 633 431 693 523 652 427 636 326 625 315" fill="#bdbbdb" id="id-male-6.6_base_1-98">
</polygon>
<polygon points="628 274 638 339 623 314" fill="#b3838b" id="id-male-6.6_base_1-99">
</polygon>
<polygon points="693 523 695 567 685 525 618 416 633 431" fill="#b46b5b" id="id-male-6.6_base_1-100">
</polygon>
<polygon points="640 463 599 539 601 571 634 655 646 703 650 754 658 640 660 491" fill="#f7bf9b" id="id-male-6.6_base_1-101">
</polygon>
<polygon points="610 531 648 646 652 546 638 479" fill="#ffddc8" id="id-male-6.6_base_1-101">
</polygon>
<polygon points="693 748 677 730 677 700 660 491 685 525 691 552 684 727" fill="url(#id-male-6.6_base_1-26)" id="id-male-6.6_base_1-103">
</polygon>
<polygon points="691 746 703 768 693 727 695 567 691 551 683 727" fill="#bccbea" id="id-male-6.6_base_1-104">
</polygon>
<polygon points="260 559 310 683 355 716 263 713 238 685 195 582" fill="url(#id-male-6.6_base_1-27)" id="id-male-6.6_base_1-105">
</polygon>
<polygon points="637 931 636 919 639 914 653 914 653 922 651 929 648 931 644 933" fill="#d58f78" id="id-male-6.6_base_1-106">
</polygon>
<polygon points="637 861 637 882 641 890 653 886 649 861" fill="#e19c83" id="id-male-6.6_base_1-107">
</polygon>
<polygon points="691 871 693 912 688 936 669 956 671 965 696 924 696 909 705 877" fill="#934d3c" id="id-male-6.6_base_1-108">
</polygon>
<polygon points="703 768 684 788 693 837 712 873 702 908 701 933 707 925 718 873 704 834 697 788" fill="#bd7462" id="id-male-6.6_base_1-109">
</polygon>
<polygon points="667 939 643 946 644 934 657 928 667 922 676 903 672 899 670 874 660 870 660 854 671 867 680 873 680 902 677 920" fill="#b3665b" id="id-male-6.6_base_1-110">
</polygon>
<polygon points="361 510 359 634 426 561 420 535" fill="url(#id-male-6.6_base_1-28)" opacity="0.626" id="id-male-6.6_base_1-111">
</polygon>
<polygon points="319 403 289 399 268 380 313 343 361 348 362 372" fill="url(#id-male-6.6_base_1-29)" id="id-male-6.6_base_1-112">
</polygon>
<polygon points="171 141 168 151 180 151 204 139 196 138" fill="url(#id-male-6.6_base_1-30)" id="id-male-6.6_base_1-113">
</polygon>
<polygon points="359 308 362 360 382 334" fill="#ffe9d9" opacity="0.625" id="id-male-6.6_base_1-114">
</polygon>
<polygon points="360 546 360 584 387 551 374 540" fill="url(#id-male-6.6_base_1-31)" opacity="0.626" id="id-male-6.6_base_1-115">
</polygon>
<polygon points="346 542 360 547 373 540 360 534" fill="#b36a64" id="id-male-6.6_base_1-116">
</polygon>
<polygon points="325 545 277 503 259 561 308 579" fill="url(#id-male-6.6_base_1-32)" opacity="0.758" id="id-male-6.6_base_1-117">
</polygon>
<polygon points="389 499 460 467 449 510 404 520" fill="url(#id-male-6.6_base_1-33)" id="id-male-6.6_base_1-118">
</polygon>
<polygon points="364 491 361 403 420 428" fill="url(#id-male-6.6_base_1-34)" opacity="0.758" id="id-male-6.6_base_1-119">
</polygon>
<polygon points="262 446 333 446 323 469 279 492" fill="url(#id-male-6.6_base_1-35)" opacity="0.758" id="id-male-6.6_base_1-120">
</polygon>
<polygon points="259 425 279 496 259 561 236 528 213 443 227 425 243 447" fill="url(#id-male-6.6_base_1-36)" id="id-male-6.6_base_1-121">
</polygon>
<polygon points="412 343 444 374 466 383 499 351 447 354 416 339" fill="url(#id-male-6.6_base_1-37)" id="id-male-6.6_base_1-122">
</polygon>
<polygon points="164 252 163 278 128 284" fill="#c88574" id="id-male-6.6_base_1-123">
</polygon>
<polygon points="58 478 88 441 88 416 69 430 66 456" fill="url(#id-male-6.6_base_1-38)" id="id-male-6.6_base_1-124">
</polygon>
<polygon points="76 684 69 634 61 517 89 474 111 569" fill="url(#id-male-6.6_base_1-39)" id="id-male-6.6_base_1-125">
</polygon>
<polygon points="53 489 47 539 69 635 76 684 53 760 40 781 16 766 28 727 23 604 28 544" fill="url(#id-male-6.6_base_1-40)" id="id-male-6.6_base_1-126">
</polygon>
<polygon points="136 452 127 497 153 460 177 340 170 300" fill="#d89a7f" id="id-male-6.6_base_1-127">
</polygon>
<polygon points="181 359 159 460 143 497 142 514 123 532 109 514 108 490 127 497 153 460 177 340" fill="#c28071" id="id-male-6.6_base_1-127">
</polygon>
<polygon points="38 747 28 772 38 788 44 772" fill="#f4b89a" id="id-male-6.6_base_1-129">
</polygon>
<polygon points="359 379 342 413 361 444 377 417" fill="url(#id-male-6.6_base_1-41)" id="id-male-6.6_base_1-130">
</polygon>
<polygon points="196 581 260 561 229 519" fill="url(#id-male-6.6_base_1-42)" id="id-male-6.6_base_1-131">
</polygon>
<polygon points="74 929 66 925 69 909 78 905 86 912 83 928" fill="url(#id-male-6.6_base_1-43)" id="id-male-6.6_base_1-132">
</polygon>
<polygon points="20 903 7 880 21 851 28 871" fill="#d99c7e" id="id-male-6.6_base_1-133">
</polygon>
<polygon points="218 1123 203 1040 191 913 171 1090 182 1169 230 1208 261 1237 270 1213 234 1175 212 1157 272 1191 281 1169" fill="url(#id-male-6.6_base_1-44)" opacity="0.808" id="id-male-6.6_base_1-134">
</polygon>
<polygon points="182 1207 181 1155 213 1106 236 1166 230 1210" fill="#ebac8e" id="id-male-6.6_base_1-135">
</polygon>
<polygon points="187 902 211 1137 227 1161 275 1187 299 1137 272 1009 299 918 269 791 211 836" fill="url(#id-male-6.6_base_1-45)" id="id-male-6.6_base_1-136">
</polygon>
<polygon points="288 1079 311 1040 311 942 295 903 264 1019 275 1188 301 1137" fill="url(#id-male-6.6_base_1-46)" id="id-male-6.6_base_1-137">
</polygon>
<polygon points="584 908 604 1008 608 1106 614 998 599 887" fill="#cedafa" id="id-male-6.6_base_1-138">
</polygon>
<polygon points="430 886 488 1140 535 1115 561 925 566 886 536 816 500 786" fill="url(#id-male-6.6_base_1-47)" opacity="0.792" id="id-male-6.6_base_1-139">
</polygon>
<polygon points="581 921 588 1011 584 1112 576 1162 544 1046 566 886" fill="url(#id-male-6.6_base_1-48)" id="id-male-6.6_base_1-140">
</polygon>
<polygon points="561 1247 518 1200 472 1112 494 931 505 931 594 1188 579 1244" fill="url(#id-male-6.6_base_1-49)" id="id-male-6.6_base_1-141">
</polygon>
<polygon points="531 1221 539 1263 536 1269 516 1287 509 1287 500 1263 513 1199 488 1226 462 1170 472 1101 427 1010 398 877 469 771 518 739 536 818 500 787 433 890 477 1078 534 1212" fill="url(#id-male-6.6_base_1-50)" id="id-male-6.6_base_1-142">
</polygon>
<polygon points="321 1058 284 852 258 721 266 733 371 879 362 883 354 881 343 914 345 954" fill="#d38b73" id="id-male-6.6_base_1-143">
</polygon>
<polygon points="429 1068 424 875 536 705 454 704 380 865 384 906 391 972" fill="#cd887e" opacity="0.394" id="id-male-6.6_base_1-144">
</polygon>
<polygon points="175 1262 194 1287 206 1287 225 1226 213 1249 175 1221 174 1232" fill="#eeaf93" id="id-male-6.6_base_1-145">
</polygon>
<polygon points="528 1227 554 1234 569 1169 549 1168" fill="#ebb5a6" id="id-male-6.6_base_1-146">
</polygon>
<polygon points="546 678 545 672 539 641 528 608 531 571 509 500 522 405 539 361 539 350 547 389 542 330 558 289 517 369 528 369 517 411 499 442 509 465 488 531 507 525 522 585 449 724" fill="url(#id-male-6.6_base_1-51)" id="id-male-6.6_base_1-54">
</polygon>
<polygon points="402 722 490 609 522 585 449 723" fill="#d38673" id="id-male-6.6_base_1-148">
</polygon>
<polygon points="174 664 139 826 137 907 139 937 238 690 352 886 354 881 362 883 371 879 383 906 471 773 548 712 596 844 545 673 539 641 478 697 449 723 278 705 232 657 188 566 191 610" fill="url(#id-male-6.6_base_1-52)" id="id-male-6.6_base_1-54">
</polygon>
<polygon points="189 616 211 620 190 586 190 609" fill="#c4846d" id="id-male-6.6_base_1-150">
</polygon>
<polygon points="139 836 225 709 167 697 139 826" fill="#e2a58b" id="id-male-6.6_base_1-151">
</polygon>
<polygon points="518 734 596 843 547 678" fill="#d0816e" id="id-male-6.6_base_1-152">
</polygon>
<polygon points="415 778 447 726 314 744 329 762" fill="#ce8b73" opacity="0.52" id="id-male-6.6_base_1-54">
</polygon>
<polygon points="411 685 463 666 456 573" fill="#a05a5c" id="id-male-6.6_base_1-154">
</polygon>
</g>
<defs>
<linearGradient x1="53%" y1="5%" x2="47%" y2="91%" id="id-male-6.8_face_1-0">
<stop stop-color="#c67878" offset="0%">
</stop>
<stop stop-color="#a26c74" offset="82%">
</stop>
<stop stop-color="#d18888" offset="100%">
</stop>
</linearGradient>
<linearGradient x1="62%" y1="61%" x2="50%" y2="36%" id="id-male-6.8_face_1-1">
<stop stop-color="#b15e5f" offset="0%">
</stop>
<stop stop-color="#564753" offset="100%">
</stop>
</linearGradient>
<linearGradient x1="50%" y1="13%" x2="57%" y2="81%" id="id-male-6.8_face_1-2">
<stop stop-color="#885154" offset="0%">
</stop>
<stop stop-color="#c27a7a" offset="52%">
</stop>
<stop stop-color="#d8b7a1" offset="100%">
</stop>
</linearGradient>
<linearGradient x1="50%" y1="0%" x2="54%" y2="88%" id="id-male-6.8_face_1-3">
<stop stop-color="#d19787" offset="0%">
</stop>
<stop stop-color="#c8807e" offset="100%">
</stop>
</linearGradient>
<linearGradient x1="36%" y1="75%" x2="36%" y2="18%" id="id-male-6.8_face_1-4">
<stop stop-color="#bb6f6b" offset="0%">
</stop>
<stop stop-color="#863c39" offset="100%">
</stop>
</linearGradient>
<linearGradient x1="50%" y1="2%" x2="48%" y2="96%" id="id-male-6.8_face_1-5">
<stop stop-color="#ead0bc" offset="0%">
</stop>
<stop stop-color="#cb9b7f" offset="11%">
</stop>
<stop stop-color="#f2c1a5" offset="33%">
</stop>
<stop stop-color="#ffe2d3" offset="58%">
</stop>
<stop stop-color="#e9bb9e" offset="93%">
</stop>
<stop stop-color="#c3957f" offset="100%">
</stop>
</linearGradient>
<linearGradient x1="62%" y1="37%" x2="30%" y2="59%" id="id-male-6.8_face_1-6">
<stop stop-color="#e4b395" offset="0%">
</stop>
<stop stop-color="#cb9c80" offset="100%">
</stop>
</linearGradient>
<linearGradient x1="12%" y1="48%" x2="58%" y2="51%" id="id-male-6.8_face_1-7">
<stop stop-color="#e7bea3" offset="0%">
</stop>
<stop stop-color="#fedfcc" offset="100%">
</stop>
</linearGradient>
<linearGradient x1="76%" y1="54%" x2="27%" y2="47%" id="id-male-6.8_face_1-8">
<stop stop-color="#f2c4a7" offset="0%">
</stop>
<stop stop-color="#f6dcc5" offset="100%">
</stop>
</linearGradient>
<radialGradient cx="50%" cy="59%" r="65%" id="id-male-6.8_face_1-9" fx="50%" fy="59%" gradientTransform="translate(0.5,0.593) scale(0.791,1) rotate(-143) translate(-0.5,-0.593)">
<stop stop-color="#f0d7bf" offset="0%">
</stop>
<stop stop-color="#c38f74" offset="66%">
</stop>
<stop stop-color="#a46254" offset="100%">
</stop>
</radialGradient>
<linearGradient x1="69%" y1="50%" x2="50%" y2="60%" id="id-male-6.8_face_1-10">
<stop stop-color="#dbab94" offset="0%">
</stop>
<stop stop-color="#ffe3ce" offset="100%">
</stop>
</linearGradient>
<radialGradient cx="50%" cy="50%" r="44%" id="id-male-6.8_face_1-11" fx="50%" fy="50%" gradientTransform="translate(0.5,0.5) scale(0.696,1) rotate(-57) scale(1,3) translate(-0.5,-0.5)">
<stop stop-color="#b37864" offset="0%" stop-opacity="0">
</stop>
<stop stop-color="#efd3bc" offset="100%">
</stop>
</radialGradient>
<linearGradient x1="0%" y1="58%" x2="50%" y2="58%" id="id-male-6.8_face_1-12">
<stop stop-color="#e4b69f" offset="0%">
</stop>
<stop stop-color="#c88f7c" offset="100%">
</stop>
</linearGradient>
<linearGradient x1="49%" y1="83%" x2="53%" y2="51%" id="id-male-6.8_face_1-13">
<stop stop-color="#c6938b" offset="0%">
</stop>
<stop stop-color="#945a53" offset="100%">
</stop>
</linearGradient>
<linearGradient x1="66%" y1="68%" x2="19%" y2="50%" id="id-male-6.8_face_1-14">
<stop stop-color="#d4a995" offset="0%">
</stop>
<stop stop-color="#a9705c" offset="100%">
</stop>
</linearGradient>
<linearGradient x1="48%" y1="37%" x2="33%" y2="25%" id="id-male-6.8_face_1-15">
<stop stop-color="#ddaf94" offset="0%">
</stop>
<stop stop-color="#9d5d51" offset="100%">
</stop>
</linearGradient>
<linearGradient x1="46%" y1="6%" x2="50%" y2="50%" id="id-male-6.8_face_1-16">
<stop stop-color="#f5d3b9" offset="0%">
</stop>
<stop stop-color="#e7ba9d" offset="100%">
</stop>
</linearGradient>
<linearGradient x1="50%" y1="33%" x2="57%" y2="50%" id="id-male-6.8_face_1-17">
<stop stop-color="#f9d2b7" offset="0%">
</stop>
<stop stop-color="#d0a086" offset="100%">
</stop>
</linearGradient>
<linearGradient x1="50%" y1="26%" x2="42%" y2="54%" id="id-male-6.8_face_1-18">
<stop stop-color="#875053" offset="0%">
</stop>
<stop stop-color="#81534d" offset="100%" stop-opacity="0.569">
</stop>
</linearGradient>
<linearGradient x1="46%" y1="100%" x2="55%" y2="55%" id="id-male-6.8_face_1-19">
<stop stop-color="#c4aed2" offset="0%">
</stop>
<stop stop-color="#9276a6" offset="100%">
</stop>
</linearGradient>
<linearGradient x1="54%" y1="12%" x2="47%" y2="56%" id="id-male-6.8_face_1-20">
<stop stop-color="#a46151" offset="0%">
</stop>
<stop stop-color="#9370a0" offset="100%">
</stop>
</linearGradient>
<linearGradient x1="50%" y1="0%" x2="50%" y2="100%" id="id-male-6.8_face_1-21">
<stop stop-color="#f4d2bf" offset="0%">
</stop>
<stop stop-color="#e8b399" offset="100%">
</stop>
</linearGradient>
<linearGradient x1="5%" y1="65%" x2="100%" y2="65%" id="id-male-6.8_face_1-22">
<stop stop-color="#fcd9c4" offset="0%">
</stop>
<stop stop-color="#e0a88c" offset="28%">
</stop>
<stop stop-color="#dea786" offset="67%">
</stop>
<stop stop-color="#ffe3d1" offset="100%">
</stop>
</linearGradient>
<linearGradient x1="66%" y1="91%" x2="52%" y2="64%" id="id-male-6.8_face_1-23">
<stop stop-color="#d9a98f" offset="0%">
</stop>
<stop stop-color="#dea786" offset="100%">
</stop>
</linearGradient>
<linearGradient x1="70%" y1="50%" x2="41%" y2="50%" id="id-male-6.8_face_1-24">
<stop stop-color="#f6d4bc" offset="0%">
</stop>
<stop stop-color="#ebbca0" offset="100%">
</stop>
</linearGradient>
<linearGradient x1="100%" y1="50%" x2="0%" y2="50%" id="id-male-6.8_face_1-25">
<stop stop-color="#f1c4a8" offset="0%">
</stop>
<stop stop-color="#ffe3d4" offset="48%">
</stop>
<stop stop-color="#f5cab4" offset="100%">
</stop>
</linearGradient>
<linearGradient x1="38%" y1="14%" x2="50%" y2="79%" id="id-male-6.8_face_1-26">
<stop stop-color="#d29a7e" offset="0%">
</stop>
<stop stop-color="#b37b6d" offset="100%">
</stop>
</linearGradient>
<linearGradient x1="3%" y1="0%" x2="50%" y2="66%" id="id-male-6.8_face_1-27">
<stop stop-color="#d8a88d" offset="0%">
</stop>
<stop stop-color="#f9d3bd" offset="100%">
</stop>
</linearGradient>
<linearGradient x1="17%" y1="40%" x2="69%" y2="60%" id="id-male-6.8_face_1-28">
<stop stop-color="#40241e" offset="0%">
</stop>
<stop stop-color="#703832" offset="100%">
</stop>
</linearGradient>
<linearGradient x1="100%" y1="50%" x2="16%" y2="64%" id="id-male-6.8_face_1-29">
<stop stop-color="#351e1c" offset="0%">
</stop>
<stop stop-color="#843f3b" offset="100%">
</stop>
</linearGradient>
<linearGradient x1="22%" y1="62%" x2="87%" y2="62%" id="id-male-6.8_face_1-30">
<stop stop-color="#b07c62" offset="0%">
</stop>
<stop stop-color="#d3a790" offset="43%">
</stop>
<stop stop-color="#daa88a" offset="100%">
</stop>
</linearGradient>
<linearGradient x1="13%" y1="69%" x2="100%" y2="69%" id="id-male-6.8_face_1-31">
<stop stop-color="#d8a88b" offset="0%">
</stop>
<stop stop-color="#f5d2bc" offset="48%">
</stop>
<stop stop-color="#daa88a" offset="100%">
</stop>
</linearGradient>
<linearGradient x1="0%" y1="65%" x2="78%" y2="65%" id="id-male-6.8_face_1-32">
<stop stop-color="#e4b7a1" offset="0%">
</stop>
<stop stop-color="#af785e" offset="100%">
</stop>
</linearGradient>
<linearGradient x1="50%" y1="42%" x2="33%" y2="50%" id="id-male-6.8_face_1-33">
<stop stop-color="#65463c" offset="0%">
</stop>
<stop stop-color="#3c2b26" offset="100%">
</stop>
</linearGradient>
<linearGradient x1="11%" y1="36%" x2="44%" y2="36%" id="id-male-6.8_face_1-34">
<stop stop-color="#a37a68" offset="0%">
</stop>
<stop stop-color="#563a31" offset="100%">
</stop>
</linearGradient>
<linearGradient x1="40%" y1="50%" x2="89%" y2="54%" id="id-male-6.8_face_1-35">
<stop stop-color="#312322" offset="0%">
</stop>
<stop stop-color="#5d3e34" offset="100%">
</stop>
</linearGradient>
<linearGradient x1="50%" y1="0%" x2="50%" y2="74%" id="id-male-6.8_face_1-36">
<stop stop-color="#e47c78" offset="0%">
</stop>
<stop stop-color="#d7827d" offset="100%">
</stop>
</linearGradient>
<linearGradient x1="80%" y1="50%" x2="7%" y2="50%" id="id-male-6.8_face_1-37">
<stop stop-color="#fad6d3" offset="0%" stop-opacity="0.472">
</stop>
<stop stop-color="#f5bfbb" offset="55%">
</stop>
<stop stop-color="#f2aca7" offset="100%" stop-opacity="0.434">
</stop>
</linearGradient>
<linearGradient x1="50%" y1="0%" x2="50%" y2="50%" id="id-male-6.8_face_1-38">
<stop stop-color="#cf8e8a" offset="0%">
</stop>
<stop stop-color="#a15552" offset="100%">
</stop>
</linearGradient>
<linearGradient x1="0%" y1="83%" x2="93%" y2="83%" id="id-male-6.8_face_1-39">
<stop stop-color="#b87268" offset="0%" stop-opacity="0.687">
</stop>
<stop stop-color="#da8787" offset="58%">
</stop>
<stop stop-color="#c5736d" offset="100%" stop-opacity="0.622">
</stop>
</linearGradient>
</defs>
<g transform="translate(548,259)" id="id-male-6.8_face_1-40">
<g transform="translate(0,121)" id="id-male-6.8_face_1-41">
<polygon points="199 13 214 3 222 9 221 25 214 38 214 43 210 54 208 65 197 70 190 64" fill="url(#id-male-6.8_face_1-0)" id="id-male-6.8_face_1-42">
</polygon>
<polygon points="197 24 209 14 216 9 219 10 220 22 214 37 195 43" fill="url(#id-male-6.8_face_1-1)" id="id-male-6.8_face_1-43">
</polygon>
<polygon points="203 38 208 34 199 25 203 22 209 23 207 18 212 16 214 38 214 43 213 48 207 51 201 46" fill="url(#id-male-6.8_face_1-2)" id="id-male-6.8_face_1-42">
</polygon>
<polygon points="212 5 214 3 222 9 222 10 219 10 216 9" fill="#f1cfd6" id="id-male-6.8_face_1-42">
</polygon>
<polygon points="208 65 197 70 190 64 194 42 199 50 193 62 199 67" fill="#906067" id="id-male-6.8_face_1-42">
</polygon>
<polygon points="203 62 202 54 211 50" fill="#a95d5f" id="id-male-6.8_face_1-47">
</polygon>
<polygon points="196 50 202 51 203 42 196 46" fill="#c18882" id="id-male-6.8_face_1-48">
</polygon>
<polygon points="194 45 199 47 202 45 202 32 197 31" fill="#4e4a5c" id="id-male-6.8_face_1-49">
</polygon>
<path d="M 30 70 C 24 70 20 69 19 68 C 17 66 12 52 8 46 C 4 39 2 38 1 33 C 0 30 0 21 1 6 L 8 0 L 23 9 L 30 70 Z" fill="url(#id-male-6.8_face_1-3)" id="id-male-6.8_face_1-50">
</path>
<polygon points="8 6 2 6 7 3 10 2 23 9 19 14" fill="#cfb7a6" id="id-male-6.8_face_1-50">
</polygon>
<path d="M 26 68 C 23 69 20 69 19 68 C 17 66 12 52 8 46 C 7 44 6 43 6 42 C 9 45 10 47 12 48 C 13 50 14 52 16 56 L 26 68 Z" fill="#ddb5a9" id="id-male-6.8_face_1-50">
</path>
<polygon points="26 68 29 65 27 53 20 61" fill="#e5a599" id="id-male-6.8_face_1-50">
</polygon>
<path d="M 23 19 C 12 12 6 9 5 9 C 3 10 2 18 2 33 L 17 53 L 26 52 L 23 19 Z" fill="url(#id-male-6.8_face_1-4)" id="id-male-6.8_face_1-54">
</path>
<polygon points="12 17 19 19 18 26 15 28 22 38 21 49 12 44" fill="#bc6a69" id="id-male-6.8_face_1-55">
</polygon>
<path d="M 27 53 C 16 50 10 47 8 42 C 6 38 8 30 12 17 L 15 23 C 15 36 14 42 15 43 C 15 45 18 46 25 48 L 27 53 Z" fill="#dcac9a" id="id-male-6.8_face_1-56">
</path>
<polygon points="11 31 19 26 19 18 14 20 12 18" fill="#dac2b3" id="id-male-6.8_face_1-57">
</polygon>
<polygon points="20 46 17 42 22 37 25 48" fill="#d29488" id="id-male-6.8_face_1-58">
</polygon>
</g>
<g transform="translate(18,0)" id="id-male-6.8_face_1-59">
<path d="M 20 231 C 18 227 11 201 5 153 C 3 140 2 128 1 117 C -1 91 4 63 8 49 C 9 46 16 35 16 34 C 30 20 56 0 94 0 C 157 0 178 45 181 51 C 183 57 183 111 181 144 C 178 177 162 232 160 235 C 158 239 124 261 119 264 C 113 266 74 267 69 264 C 64 261 22 235 20 231 Z" fill="url(#id-male-6.8_face_1-5)" id="id-male-6.8_face_1-60">
</path>
<polygon points="19 114 13 91 21 49 49 35 141 43 137 69 105 74 78 52 56 49 39 56 41 93" fill="url(#id-male-6.8_face_1-6)" id="id-male-6.8_face_1-61">
</polygon>
<polygon points="60 106 92 113 124 106 121 101 72 88 66 90 41 88 30 101" fill="url(#id-male-6.8_face_1-7)" id="id-male-6.8_face_1-62">
</polygon>
<polygon points="51 70 94 83 125 81 132 50 98 64 102 53 80 48" fill="url(#id-male-6.8_face_1-8)" opacity="0.556" id="id-male-6.8_face_1-63">
</polygon>
<path d="M 4 144 C 3 137 2 130 2 123 C -1 88 16 34 17 34 C 31 19 56 0 94 0 C 157 0 178 45 181 51 C 183 56 183 103 181 136 L 152 101 C 154 91 155 83 154 79 C 150 60 140 50 136 47 C 130 44 99 50 94 50 C 90 50 78 43 58 42 C 54 42 48 43 38 46 C 29 61 24 68 23 70 C 11 97 16 104 13 127 C 13 131 10 137 4 144 Z" fill="url(#id-male-6.8_face_1-9)" id="id-male-6.8_face_1-60">
</path>
<polygon points="146 168 106 137 108 129 149 141 164 156" fill="url(#id-male-6.8_face_1-10)" id="id-male-6.8_face_1-65">
</polygon>
<polygon points="146 168 106 137 106 148 116 170 133 186" fill="#ffe7d9" id="id-male-6.8_face_1-65">
</polygon>
<path d="M 181 51 C 183 56 183 103 181 136 L 162 124 L 161 111 C 167 97 172 86 174 77 C 175 74 176 71 177 64 C 178 59 177 52 174 41 L 181 51 Z" fill="#b38369" id="id-male-6.8_face_1-60">
</path>
<path d="M 48 11 C 60 5 75 0 94 0 C 157 0 178 45 181 51 C 182 54 183 73 183 94 C 174 71 156 51 129 35 C 102 18 75 10 48 11 Z" fill="url(#id-male-6.8_face_1-11)" id="id-male-6.8_face_1-60">
</path>
<polygon points="179 156 158 131 148 142 162 156 144 168 148 190" fill="url(#id-male-6.8_face_1-12)" id="id-male-6.8_face_1-60">
</polygon>
<path d="M 154 211 L 164 139 L 157 131 L 175 105 L 182 68 C 183 88 183 121 181 144 C 178 177 162 232 160 235 C 158 239 124 261 119 264 L 154 211 Z" fill="url(#id-male-6.8_face_1-13)" opacity="0.749" id="id-male-6.8_face_1-60">
</path>
<polygon points="85 260 99 252 111 242 102 223 65 227 64 248" fill="#edc5b0" fill-opacity="0.74" id="id-male-6.8_face_1-71">
</polygon>
<polygon points="33 188 44 177 21 169 41 146 21 136 8 168" fill="#f5c9b2" id="id-male-6.8_face_1-72">
</polygon>
<path d="M 5 156 C 5 155 5 154 5 153 C 4 148 4 144 3 139 L 13 129 L 15 97 L 20 117 L 16 146 L 20 172 L 5 156 Z" fill="#c18f75" id="id-male-6.8_face_1-60">
</path>
<polygon points="13 136 17 121 19 115 32 129 68 132 69 135 40 148 24 139 23 131" fill="url(#id-male-6.8_face_1-14)" id="id-male-6.8_face_1-74">
</polygon>
<polygon points="17 156 11 136 23 130 25 130 25 139" fill="#dbac93" id="id-male-6.8_face_1-75">
</polygon>
<path d="M 20 231 C 18 227 11 201 5 153 L 33 186 L 46 239 C 62 256 70 265 69 264 C 64 261 22 235 20 231 Z" fill="url(#id-male-6.8_face_1-15)" id="id-male-6.8_face_1-60">
</path>
<polygon points="58 194 45 174 33 186 46 239 60 214" fill="url(#id-male-6.8_face_1-16)" id="id-male-6.8_face_1-60">
</polygon>
<path d="M 20 231 C 19 229 17 223 15 212 C 29 230 46 244 65 252 C 84 260 101 262 117 256 L 149 212 L 172 192 C 167 214 161 233 160 235 C 158 239 124 261 119 264 C 113 266 74 267 69 264 C 64 261 22 235 20 231 Z" fill="#86574d" opacity="0.47" id="id-male-6.8_face_1-60">
</path>
<polygon points="117 256 152 210 144 168 132 185 128 235 113 258" fill="url(#id-male-6.8_face_1-17)" id="id-male-6.8_face_1-60">
</polygon>
<path d="M 179 156 C 175 189 161 232 160 235 C 160 236 159 236 157 237 L 148 190 L 179 156 Z" fill="url(#id-male-6.8_face_1-18)" opacity="0.606" id="id-male-6.8_face_1-60">
</path>
<path d="M 181 144 C 178 177 162 232 160 235 C 159 237 151 242 143 248 L 157 232 L 163 217 L 170 168 L 181 144 Z" fill="url(#id-male-6.8_face_1-19)" id="id-male-6.8_face_1-60">
</path>
<path d="M 135 254 C 127 259 121 263 119 264 C 113 266 74 267 69 264 C 67 263 57 256 46 250 L 73 256 L 116 262 L 135 254 Z" fill="#836386" id="id-male-6.8_face_1-60">
</path>
<path d="M 2 130 C 2 125 1 121 1 117 C -1 91 4 63 8 49 C 9 46 16 35 16 34 C 16 34 17 34 17 34 L 29 29 L 13 58 L 13 86 L 2 130 Z" fill="url(#id-male-6.8_face_1-20)" id="id-male-6.8_face_1-60">
</path>
<path d="M 182 133 C 181 137 181 141 181 144 C 180 152 179 160 177 169 L 158 179 L 175 157 L 177 139 L 182 133 Z" fill="#7e4341" id="id-male-6.8_face_1-60">
</path>
<path d="M 72 248 C 71 246 69 242 68 234 L 83 227 L 111 242 C 86 247 73 249 72 248 Z" fill="#fddfcb" opacity="0.617" id="id-male-6.8_face_1-85">
</path>
<polygon points="109 177 114 181 125 213 60 209 61 183 66 177" fill="#efc2a8" id="id-male-6.8_face_1-86">
</polygon>
<polygon points="83 194 74 185 77 178 112 181 98 194" fill="#d6a390" id="id-male-6.8_face_1-87">
</polygon>
<polygon points="83 193 92 197 99 195 99 181 85 181" fill="url(#id-male-6.8_face_1-21)" id="id-male-6.8_face_1-88">
</polygon>
<polygon points="83 196 83 193 92 197 99 195 100 197 91 202" fill="#f2cfbb" id="id-male-6.8_face_1-88">
</polygon>
<polygon points="75 138 67 145 60 160 67 171 120 176 116 162 122 153 107 140 110 115" fill="url(#id-male-6.8_face_1-22)" id="id-male-6.8_face_1-90">
</polygon>
<polygon points="75 138 78 153 75 160 75 184 94 181 111 183 118 178 120 174 116 162 105 153 107 140 110 115 71 115 71 127" fill="url(#id-male-6.8_face_1-23)" id="id-male-6.8_face_1-90">
</polygon>
<polygon points="97 179 108 168 83 166 68 173 71 180" fill="#e8bfa7" id="id-male-6.8_face_1-92">
</polygon>
<polygon points="79 124 71 112 71 127 73 131" fill="#cf9779" id="id-male-6.8_face_1-90">
</polygon>
<polygon points="71 160 57 173 61 183 78 181 67 177" fill="#ffe1cf" id="id-male-6.8_face_1-94">
</polygon>
<polygon points="87 136 71 113 69 101 92 108 108 104 110 112 94 136" fill="url(#id-male-6.8_face_1-24)" id="id-male-6.8_face_1-95">
</polygon>
<polygon points="96 169 105 169 116 169 103 159" fill="#ffd6c0" id="id-male-6.8_face_1-96">
</polygon>
<polygon points="86 170 98 169 103 159 98 143 95 123 88 126 82 166" fill="url(#id-male-6.8_face_1-25)" id="id-male-6.8_face_1-96">
</polygon>
<polygon points="86 170 97 169 92 157" fill="#fff1e3" id="id-male-6.8_face_1-96">
</polygon>
<polygon points="92 136 87 125 90 117 95 123" fill="#fff9ed" id="id-male-6.8_face_1-99">
</polygon>
<polygon points="103 157 106 151 115 163" fill="#cb9071" id="id-male-6.8_face_1-100">
</polygon>
<polygon points="75 184 66 180 65 173 70 163 76 158 76 163 70 172 70 175 76 176 88 180" fill="url(#id-male-6.8_face_1-26)" id="id-male-6.8_face_1-101">
</polygon>
<polygon points="70 172 79 172 76 163 71 164" fill="url(#id-male-6.8_face_1-27)" id="id-male-6.8_face_1-102">
</polygon>
<polygon points="120 173 120 179 114 184 101 183 111 182 117 177" fill="#a46b65" id="id-male-6.8_face_1-103">
</polygon>
<polygon points="89 181 93 183 97 182 99 179 84 176" fill="#bb8e78" id="id-male-6.8_face_1-104">
</polygon>
<polygon points="97 182 99 179 84 176" fill="#a77563" id="id-male-6.8_face_1-104">
</polygon>
<path d="M 77 180 C 78 180 83 180 90 180 C 89 179 88 177 86 177 C 85 176 83 175 79 174 C 77 174 75 175 75 176 C 74 178 75 179 77 180 Z" fill="url(#id-male-6.8_face_1-28)" id="id-male-6.8_face_1-106">
</path>
<path d="M 96 180 L 99 176 L 107 173 C 111 175 112 176 109 178 C 107 180 103 181 96 180 Z" fill="url(#id-male-6.8_face_1-29)" id="id-male-6.8_face_1-107">
</path>
<polygon points="30 128 57 124 72 126 72 114 48 102 19 114" fill="url(#id-male-6.8_face_1-30)" id="id-male-6.8_face_1-108">
</polygon>
<polygon points="36 127 57 124 69 126 60 108 53 104" fill="url(#id-male-6.8_face_1-31)" id="id-male-6.8_face_1-108">
</polygon>
<polygon points="37 129 41 135 33 132 33 130" fill="#2f1a10" opacity="0.429" id="id-male-6.8_face_1-110">
</polygon>
<polygon points="48 138 69 135 40 148 33 144 40 138" fill="#deac91" id="id-male-6.8_face_1-74">
</polygon>
<path d="M 22 130 C 27 129 30 128 32 127 C 40 124 47 122 52 122 C 60 123 66 126 70 133 L 69 135 L 67 133 L 66 132 L 36 130 L 41 135 L 32 133 L 22 130 Z" fill="#35221d" id="id-male-6.8_face_1-112">
</path>
<polygon points="36 130 41 135 50 135 62 133 65 130 58 127 43 126" fill="#e5e2f2" id="id-male-6.8_face_1-110">
</polygon>
<path d="M 54 135 C 56 134 58 131 59 127 C 57 125 55 124 51 124 C 48 124 45 125 43 126 C 43 129 44 131 44 132 C 45 133 49 136 54 135 Z" fill="#2c1e19" id="id-male-6.8_face_1-110">
</path>
<polygon points="62 133 65 130 67 133" fill="#c37c79" id="id-male-6.8_face_1-110">
</polygon>
<polygon points="36 130 41 135 49 126 43 126" fill="#2f1a10" opacity="0.429" id="id-male-6.8_face_1-110">
</polygon>
<path d="M 50 131 L 50 134 C 51 134 53 134 54 133 C 54 133 55 132 56 131 C 54 131 53 131 52 131 C 51 131 50 131 50 131 Z" fill="#384239" id="id-male-6.8_face_1-117">
</path>
<polygon points="108 131 117 132 137 124 156 110 117 108" fill="#dfaf93" id="id-male-6.8_face_1-118">
</polygon>
<polygon points="134 148 151 141 164 122 161 110 155 106 135 126 140 132 132 143 137 143" fill="url(#id-male-6.8_face_1-32)" id="id-male-6.8_face_1-119">
</polygon>
<polygon points="46 130 50 129 50 127 46 127" fill="#c2bac8" id="id-male-6.8_face_1-120">
</polygon>
<polygon points="48 138 54 142 59 136" fill="#efcbb6" id="id-male-6.8_face_1-121">
</polygon>
<path d="M 73 115 L 63 111 C 49 110 38 110 32 111 C 25 111 20 115 17 121 C 18 115 19 111 20 109 C 22 106 24 103 27 101 L 27 104 L 30 100 C 33 99 36 98 41 98 C 45 98 52 99 61 100 L 65 106 L 65 102 L 69 102 L 73 115 Z" fill="url(#id-male-6.8_face_1-33)" id="id-male-6.8_face_1-122">
</path>
<polygon points="73 115 63 111 71 106 71 108 75 106" fill="#815a4e" id="id-male-6.8_face_1-122">
</polygon>
<polygon points="108 131 108 111 118 111 123 116" fill="#c78c74" id="id-male-6.8_face_1-124">
</polygon>
<polygon points="129 125 123 116 129 116 136 114 133 124" fill="#f5d3bd" id="id-male-6.8_face_1-125">
</polygon>
<path d="M 116 133 C 115 134 115 135 114 135 C 114 135 114 134 114 133 C 115 132 116 130 117 130 C 121 125 127 123 133 123 C 141 123 147 125 154 129 L 160 132 L 150 135 L 140 135 L 116 133 Z" fill="#402c24" id="id-male-6.8_face_1-126">
</path>
<path d="M 108 113 L 105 103 L 111 103 L 109 109 L 117 101 C 122 100 127 99 133 98 C 139 98 143 98 146 99 L 139 102 L 150 100 L 163 109 L 164 122 C 162 115 159 111 155 110 C 152 110 147 110 138 111 L 125 111 L 108 113 Z" fill="url(#id-male-6.8_face_1-34)" id="id-male-6.8_face_1-127">
</path>
<path d="M 150 100 L 163 109 C 162 110 159 111 155 110 C 152 110 147 110 138 111 L 125 111 L 150 100 Z" fill="url(#id-male-6.8_face_1-35)" id="id-male-6.8_face_1-127">
</path>
<path d="M 149 132 C 146 128 141 125 135 125 C 129 125 124 127 118 131 L 120 134 C 126 135 130 135 133 136 C 135 136 138 136 142 136 L 149 132 Z" fill="#eae6fb" id="id-male-6.8_face_1-129">
</path>
<path d="M 140 126 C 138 125 137 125 135 125 C 132 125 128 125 124 127 C 125 132 128 135 133 135 C 138 135 140 132 140 126 Z" fill="#2e2020" id="id-male-6.8_face_1-129">
</path>
<path d="M 149 132 C 146 128 141 125 135 125 C 129 125 124 127 118 131 L 120 134 C 124 130 128 128 133 128 C 138 128 142 130 145 134 L 149 132 Z" fill="#3e2f25" opacity="0.326" id="id-male-6.8_face_1-129">
</path>
<polygon points="118 131 116 134 120 134" fill="#b4796d" id="id-male-6.8_face_1-129">
</polygon>
<polygon points="129 130 129 127 132 126 132 128" fill="#e6e2f6" id="id-male-6.8_face_1-133">
</polygon>
<path d="M 132 134 C 134 135 135 135 136 134 C 137 133 138 132 139 130 L 134 130 L 132 134 Z" fill="#384039" id="id-male-6.8_face_1-134">
</path>
<polygon points="66 231 97 229 107 229 119 223 119 213 60 215 57 221" fill="#dca493" id="id-male-6.8_face_1-135">
</polygon>
<polygon points="118 217 124 214 101 203 71 206 60 215 61 217" fill="#5f2522" id="id-male-6.8_face_1-136">
</polygon>
<polygon points="114 135 135 137 150 135 144 135 116 133" fill="#b58e82" id="id-male-6.8_face_1-137">
</polygon>
<polygon points="106 225 97 229 85 229 77 224" fill="#a26357" id="id-male-6.8_face_1-138">
</polygon>
<polygon points="85 229 77 224 101 225" fill="#763932" id="id-male-6.8_face_1-138">
</polygon>
<path d="M 60 215 L 59 217 L 77 225 L 105 226 L 119 217 C 115 214 110 213 106 212 C 102 212 90 212 72 213 L 65 217 L 60 215 Z" fill="url(#id-male-6.8_face_1-36)" id="id-male-6.8_face_1-140">
</path>
<path d="M 80 221 L 74 218 C 81 217 87 217 91 217 C 95 216 100 217 107 217 L 100 221 C 96 220 94 219 91 219 C 89 219 85 220 80 221 Z" fill="url(#id-male-6.8_face_1-37)" id="id-male-6.8_face_1-141">
</path>
<path d="M 59 215 L 60 210 C 65 207 69 204 71 203 C 74 201 78 199 83 196 L 91 200 L 100 196 L 114 203 L 124 213 L 116 213 L 103 208 L 91 206 L 76 208 L 64 215 L 59 215 Z" fill="url(#id-male-6.8_face_1-38)" id="id-male-6.8_face_1-142">
</path>
<path d="M 71 203 C 74 201 78 199 83 196 L 91 200 L 100 196 L 114 203 L 103 208 L 91 206 L 76 208 L 71 203 Z" fill="url(#id-male-6.8_face_1-39)" id="id-male-6.8_face_1-142">
</path>
<path d="M 76 200 C 77 199 80 198 83 196 L 91 200 L 91 206 L 82 208 L 76 200 Z" fill="#e696a5" id="id-male-6.8_face_1-142">
</path>
</g>
</g>
<defs>
<linearGradient x1="96%" y1="53%" x2="9%" y2="39%" id="id-male-11_neon_top-0">
<stop stop-color="#01ab65" offset="0%">
</stop>
<stop stop-color="#4095d8" offset="52%">
</stop>
<stop stop-color="#c72bba" offset="100%">
</stop>
</linearGradient>
<linearGradient x1="50%" y1="0%" x2="50%" y2="100%" id="id-male-11_neon_top-1">
<stop stop-color="#ffffff" offset="0%" stop-opacity="0">
</stop>
<stop stop-color="#ffffff" offset="100%" stop-opacity="0.387">
</stop>
</linearGradient>
<radialGradient cx="0%" cy="50%" r="76%" id="id-male-11_neon_top-2" fx="0%" fy="50%" gradientTransform="translate(0,0.5) scale(1,0.956) scale(1,0.778) translate(0,-0.5)">
<stop stop-color="#06d8cd" offset="0%">
</stop>
<stop stop-color="#12d8d3" offset="56%" stop-opacity="0.535">
</stop>
<stop stop-color="#02a77b" offset="100%" stop-opacity="0">
</stop>
</radialGradient>
<linearGradient x1="69%" y1="14%" x2="25%" y2="95%" id="id-male-11_neon_top-3">
<stop stop-color="#ffffff" offset="0%" stop-opacity="0">
</stop>
<stop stop-color="#ffffff" offset="47%" stop-opacity="0.565">
</stop>
<stop stop-color="#ffffff" offset="100%" stop-opacity="0">
</stop>
</linearGradient>
<linearGradient x1="92%" y1="66%" x2="17%" y2="55%" id="id-male-11_neon_top-4">
<stop stop-color="#3587c1" offset="0%" stop-opacity="0">
</stop>
<stop stop-color="#ddc8ee" offset="51%" stop-opacity="0.517">
</stop>
<stop stop-color="#c944d0" offset="100%">
</stop>
</linearGradient>
<linearGradient x1="79%" y1="49%" x2="17%" y2="26%" id="id-male-11_neon_top-5">
<stop stop-color="#ffffff" offset="0%" stop-opacity="0">
</stop>
<stop stop-color="#ffffff" offset="100%">
</stop>
</linearGradient>
</defs>
<g transform="translate(378,525)" id="id-male-11_neon_top-6">
<path d="M 126 419 C 123 382 123 368 123 351 C 119 341 114 330 109 318 C 108 317 107 317 107 317 C 105 324 104 327 104 327 C 35 314 0 307 0 307 C 8 263 12 241 12 241 C 13 197 13 168 32 120 C 83 95 133 69 182 43 C 195 32 202 27 202 27 C 205 9 207 0 207 0 C 251 8 273 13 273 13 C 273 33 273 43 273 43 C 280 43 284 43 284 43 C 284 23 284 13 284 13 C 326 4 347 0 347 0 C 353 14 355 21 355 21 C 377 41 462 79 536 117 C 545 134 553 153 559 175 C 557 213 557 233 557 233 C 567 286 572 313 572 313 C 503 329 469 338 469 338 C 467 333 467 331 467 331 C 460 360 455 390 449 421 C 321 426 213 425 126 419 Z" fill="url(#id-male-11_neon_top-0)" id="id-male-11_neon_top-7">
</path>
<path d="M 126 419 C 124 400 123 381 123 351 L 109 318 L 107 317 C 105 324 104 327 104 327 C 87 324 79 323 79 323 C 84 283 87 264 87 264 C 81 251 77 245 77 245 C 81 229 82 221 82 221 C 71 195 65 181 65 181 C 72 186 76 188 76 188 C 50 148 38 128 38 128 C 44 129 47 129 47 129 C 69 151 79 162 79 162 C 77 143 76 134 76 134 C 77 121 78 115 78 115 C 90 151 96 169 96 169 C 91 182 88 188 88 188 C 103 224 110 242 110 242 C 159 256 183 263 183 263 C 149 275 132 281 132 281 C 329 280 428 280 428 280 C 408 273 398 270 398 270 C 435 254 454 246 454 246 C 473 210 483 191 483 191 C 475 169 471 158 471 158 C 485 116 493 95 493 95 C 496 97 498 98 498 98 C 488 139 483 160 483 160 C 491 195 495 213 495 213 C 498 214 499 215 499 215 L 532 323 L 469 338 L 467 331 C 455 391 449 421 449 421 C 427 422 416 422 416 422 C 404 380 399 359 399 359 C 366 347 350 342 350 342 C 288 343 258 344 258 344 C 287 332 302 326 302 326 C 247 312 219 305 219 305 C 239 321 249 329 249 329 C 208 349 187 358 187 358 L 179 422 L 126 419 Z" fill="#000000" fill-opacity="0.157" id="id-male-11_neon_top-8">
</path>
<path d="M 252 331 C 282 329 298 328 298 328 L 225 310 C 243 324 252 331 252 331 Z" fill="#07c4be" id="id-male-11_neon_top-9">
</path>
<path d="M 304 424 C 308 405 312 385 317 363 C 343 355 355 351 355 351 L 377 423 C 328 424 304 424 304 424 Z" fill="url(#id-male-11_neon_top-1)" id="id-male-11_neon_top-10">
</path>
<path d="M 449 421 C 448 421 448 421 448 421 C 456 341 460 302 460 302 C 443 299 434 297 434 297 C 451 290 460 286 460 286 C 472 257 478 243 478 243 C 468 247 463 249 463 249 C 475 236 481 229 481 229 C 484 206 486 194 486 194 C 498 189 504 186 504 186 C 492 217 486 232 486 232 C 481 270 478 289 478 289 L 480 335 L 469 338 L 467 331 C 455 391 449 421 449 421 Z" fill="#000000" fill-opacity="0.212" id="id-male-11_neon_top-11">
</path>
<path d="M 469 338 C 476 336 480 335 480 335 C 476 312 474 301 474 301 C 480 256 483 234 483 234 L 469 276 L 467 331 L 469 338 Z" fill="#003218" id="id-male-11_neon_top-12">
</path>
<path d="M 568 314 C 557 270 552 248 552 248 C 547 254 545 257 545 257 L 558 172 L 559 175 L 557 233 L 572 313 C 569 314 568 314 568 314 Z" fill="#000000" fill-opacity="0.195" id="id-male-11_neon_top-13">
</path>
<path d="M 483 160 L 536 118 L 536 117 L 498 98 C 488 139 483 160 483 160 Z" fill="#00d68e" id="id-male-11_neon_top-14">
</path>
<path d="M 495 97 C 488 99 484 101 484 101 C 447 84 428 76 428 76 C 379 77 355 77 355 77 C 350 83 347 86 347 86 C 314 70 297 62 297 62 C 292 61 290 61 290 61 C 342 58 368 57 368 57 L 390 44 C 454 77 489 94 495 97 Z" fill="#ffffff" fill-opacity="0.223" id="id-male-11_neon_top-15">
</path>
<path d="M 382 39 C 375 45 372 48 372 48 C 353 33 343 26 343 26 C 332 30 319 30 308 37 L 307 8 L 347 0 L 355 21 C 368 30 377 36 382 39 Z" fill="#ffffff" fill-opacity="0.175" id="id-male-11_neon_top-16">
</path>
<path d="M 253 58 C 283 58 298 58 298 58 L 277 72 C 261 63 253 58 253 58 Z" fill="#5f42ac" id="id-male-11_neon_top-17">
</path>
<path d="M 104 327 L 79 323 L 87 264 L 77 245 L 82 221 L 65 181 C 72 186 76 188 76 188 C 78 178 79 174 79 174 C 80 172 81 171 81 171 C 91 245 96 282 96 282 C 128 301 143 310 143 310 L 110 314 L 110 319 L 107 317 L 104 327 Z" fill="#000000" fill-opacity="0.116" id="id-male-11_neon_top-18">
</path>
<path d="M 268 50 C 268 55 268 58 268 58 C 287 58 296 58 296 58 C 322 39 335 30 335 30 L 357 57 L 368 57 L 382 39 L 355 21 L 347 0 L 293 11 L 290 50 C 275 50 268 50 268 50 Z" fill="#ffffff" fill-opacity="0.148" id="id-male-11_neon_top-19">
</path>
<path d="M 31 314 C 32 311 32 310 32 310 L 20 221 C 23 188 30 149 32 120 C 18 153 11 194 12 241 L 0 307 C 21 312 31 314 31 314 Z" fill="#ffffff" fill-opacity="0.243" id="id-male-11_neon_top-20">
</path>
<path d="M 265 11 C 266 37 266 49 266 49 C 274 50 278 50 278 50 C 278 96 278 119 278 119 C 283 119 285 119 285 119 C 284 73 284 50 284 50 C 288 50 290 50 290 50 L 293 11 L 284 13 L 284 43 L 273 43 L 273 13 C 268 12 265 11 265 11 Z" fill="#1e0e30" id="id-male-11_neon_top-21">
</path>
<path d="M 98 326 C 97 303 97 291 97 291 C 93 272 91 263 91 263 C 85 212 82 187 82 187 C 91 248 96 279 96 279 C 110 291 117 297 117 297 C 111 303 109 306 109 306 L 112 323 L 109 318 L 107 317 L 104 327 C 100 327 98 326 98 326 Z" fill="#3a0189" id="id-male-11_neon_top-22">
</path>
<path d="M 12 239 C 42 247 58 251 58 251 C 55 263 53 269 53 269 L 6 273 L 12 241 C 12 240 12 239 12 239 Z" fill="#3b0238" id="id-male-11_neon_top-23">
</path>
<path d="M 10 248 L 56 254 L 12 239 L 12 241 C 11 246 10 248 10 248 Z" fill="#97058b" id="id-male-11_neon_top-24">
</path>
<path d="M 22 151 C 31 135 36 127 36 127 C 53 130 62 131 62 131 C 61 126 60 121 67 115 C 138 72 173 50 173 50 C 195 58 205 62 205 62 C 193 49 186 42 186 42 C 196 37 202 35 202 35 L 198 30 L 182 43 C 132 69 82 95 32 120 C 26 135 22 145 22 151 Z" fill="#d9a5e7" id="id-male-11_neon_top-25">
</path>
<path d="M 62 131 L 75 140 L 78 115 C 83 131 86 139 86 139 C 86 126 89 113 94 100 C 204 90 259 86 259 86 L 166 71 L 173 50 L 67 115 C 63 126 62 131 62 131 Z" fill="#ffffff" fill-opacity="0.223" id="id-male-11_neon_top-26">
</path>
<path d="M 288 268 C 283 233 281 181 285 102 C 284 80 284 68 284 68 L 293 62 L 298 62 L 347 86 L 355 77 L 428 76 L 484 101 L 491 98 L 471 158 L 483 191 L 454 246 L 398 270 L 428 280 L 293 280 C 290 272 288 268 288 268 Z" fill="#ffffff" fill-opacity="0.059" id="id-male-11_neon_top-27">
</path>
<path d="M 288 268 C 283 233 281 181 285 102 C 284 80 284 68 284 68 L 293 62 L 298 62 L 347 86 L 355 77 L 428 76 L 484 101 L 491 98 L 471 158 L 483 191 L 454 246 L 398 270 L 428 280 L 293 280 C 290 272 288 268 288 268 Z" fill="url(#id-male-11_neon_top-2)" id="id-male-11_neon_top-28">
</path>
<path d="M 228 265 C 278 241 303 229 303 229 L 335 265 C 264 265 228 265 228 265 Z" fill="#16d0d3" fill-opacity="0.646" id="id-male-11_neon_top-29">
</path>
<path d="M 339 98 C 331 133 328 150 328 150 C 326 177 325 190 325 190 C 358 191 374 192 374 192 C 385 173 405 152 425 132 C 406 114 377 103 339 98 Z" fill="url(#id-male-11_neon_top-3)" id="id-male-11_neon_top-30">
</path>
<path d="M 333 306 C 351 315 360 319 360 319 L 408 302 C 358 304 333 306 333 306 Z" fill="#00a196" id="id-male-11_neon_top-31">
</path>
<path d="M 92 107 C 208 97 266 91 266 91 L 243 238 L 110 242 L 88 188 L 96 169 L 86 139 C 86 129 88 118 92 107 Z" fill="url(#id-male-11_neon_top-4)" id="id-male-11_neon_top-32">
</path>
<path d="M 207 0 C 227 4 238 6 238 6 C 235 23 233 31 233 31 L 233 44 L 202 27 C 205 9 207 0 207 0 Z" fill="url(#id-male-11_neon_top-5)" id="id-male-11_neon_top-33">
</path>
</g>
<defs>
<linearGradient x1="50%" y1="1%" x2="50%" y2="100%" id="id-male-12_shaman_pants_color-0">
<stop stop-color="#dfe5e7" offset="0%">
</stop>
<stop stop-color="#ffffff" offset="100%">
</stop>
</linearGradient>
<linearGradient x1="39%" y1="10%" x2="29%" y2="84%" id="id-male-12_shaman_pants_color-1">
<stop stop-color="#d3dadf" offset="0%">
</stop>
<stop stop-color="#e8eaed" offset="100%">
</stop>
</linearGradient>
<linearGradient x1="50%" y1="63%" x2="42%" y2="100%" id="id-male-12_shaman_pants_color-2">
<stop stop-color="#1a2e4c" offset="0%">
</stop>
<stop stop-color="#160a19" offset="100%">
</stop>
</linearGradient>
<linearGradient x1="90%" y1="11%" x2="12%" y2="88%" id="id-male-12_shaman_pants_color-3">
<stop stop-color="#983860" offset="0%">
</stop>
<stop stop-color="#d46f9f" offset="100%">
</stop>
</linearGradient>
<polygon points="376 181 380 197 460 119 456 103" id="id-male-12_shaman_pants_color-4">
</polygon>
<linearGradient x1="90%" y1="11%" x2="10%" y2="90%" id="id-male-12_shaman_pants_color-5">
<stop stop-color="#6c72d8" offset="0%" stop-opacity="0">
</stop>
<stop stop-color="#bd487f" offset="100%">
</stop>
</linearGradient>
<polygon points="376 181 380 197 460 119 456 103" id="id-male-12_shaman_pants_color-4">
</polygon>
<linearGradient x1="76%" y1="11%" x2="24%" y2="90%" id="id-male-12_shaman_pants_color-7">
<stop stop-color="#6c72d8" offset="0%" stop-opacity="0">
</stop>
<stop stop-color="#bd487f" offset="100%">
</stop>
</linearGradient>
</defs>
<g transform="translate(403,996)" id="id-male-12_shaman_pants_color-8">
<path d="M 75 738 C 75 745 76 749 76 749 C 116 703 137 680 137 680 C 164 675 177 673 177 673 C 195 682 204 686 204 686 C 207 678 209 674 209 674 L 206 603 L 207 599 C 127 681 83 727 75 738 Z" fill="#2d1434" fill-opacity="0.71" id="id-male-12_shaman_pants_color-9">
</path>
<path d="M 53 764 C 22 764 6 764 6 764 C 28 479 39 336 39 336 C 48 334 53 332 53 332 C 72 336 81 338 81 338 C 80 339 80 340 80 340 C 132 348 159 352 159 352 C 158 350 158 349 158 349 C 179 352 189 354 189 354 C 221 357 256 350 289 351 C 339 348 364 346 364 346 C 405 333 454 323 497 311 C 503 364 510 417 513 471 C 525 568 534 666 541 764 C 407 764 341 764 341 764 C 310 704 266 639 229 576 C 170 639 115 690 53 764 Z" fill="#d3dadf" id="id-male-12_shaman_pants_color-10">
</path>
<path d="M 35 764 L 6 764 L 39 336 L 53 332 L 81 338 L 80 341 C 56 463 34 589 35 764 Z" fill="#95a7b1" id="id-male-12_shaman_pants_color-11">
</path>
<path d="M 108 701 C 119 486 124 379 124 379 C 145 415 156 432 156 432 L 155 653 C 124 685 108 701 108 701 Z" fill="#e9eeef" id="id-male-12_shaman_pants_color-12">
</path>
<path d="M 108 701 C 109 679 110 667 110 667 L 155 624 L 155 655 C 124 686 108 701 108 701 Z" fill="#f0f4f4" id="id-male-12_shaman_pants_color-13">
</path>
<path d="M 187 617 C 186 603 185 596 185 596 C 211 569 225 556 225 556 L 233 572 C 202 602 187 617 187 617 Z" fill="#f0f4f4" id="id-male-12_shaman_pants_color-14">
</path>
<path d="M 229 576 C 356 453 427 379 441 356 L 499 329 C 512 454 525 577 536 701 L 487 416 C 455 390 438 377 438 377 C 399 447 379 482 379 482 C 377 617 376 684 376 684 C 367 638 354 603 339 576 C 325 606 312 637 299 691 C 276 653 253 615 229 576 Z" fill="#95a7b1" id="id-male-12_shaman_pants_color-15">
</path>
<path d="M 407 764 C 420 733 426 701 428 650 C 426 590 427 518 425 398 C 428 393 432 386 438 377 C 448 510 438 631 456 764 C 437 763 421 763 407 764 Z" fill="url(#id-male-12_shaman_pants_color-0)" id="id-male-12_shaman_pants_color-16">
</path>
<path d="M 283 664 C 277 586 273 547 273 547 C 295 520 306 506 306 506 C 331 526 343 536 343 536 L 351 457 L 229 576 C 265 635 283 664 283 664 Z" fill="#9294aa" id="id-male-12_shaman_pants_color-17">
</path>
<path d="M 264 542 C 243 438 233 386 233 386 C 329 363 377 352 377 352 L 395 410 C 319 488 276 532 264 542 Z" fill="url(#id-male-12_shaman_pants_color-1)" id="id-male-12_shaman_pants_color-18">
</path>
<path d="M 264 542 C 261 528 260 521 260 521 C 305 479 328 458 328 458 L 335 472 C 288 519 264 542 264 542 Z" fill="#eef2f3" id="id-male-12_shaman_pants_color-19">
</path>
<path d="M 335 472 L 311 368 L 377 352 L 395 410 C 355 451 335 472 335 472 Z" fill="#e8eaed" id="id-male-12_shaman_pants_color-20">
</path>
<path d="M 360 461 C 368 460 373 460 373 460 C 374 432 374 419 374 419 L 360 419 C 360 447 360 461 360 461 Z" fill="#f19c32" id="id-male-12_shaman_pants_color-21">
</path>
<path d="M 396 428 C 405 428 409 428 409 428 C 409 400 409 386 409 386 L 395 386 C 396 414 396 428 396 428 Z" fill="#f19c32" id="id-male-12_shaman_pants_color-22">
</path>
<path d="M 431 394 C 439 393 443 392 443 392 C 443 368 443 356 443 356 L 430 352 C 431 380 431 394 431 394 Z" fill="#f19c32" id="id-male-12_shaman_pants_color-23">
</path>
<path d="M 499 329 C 461 346 442 355 442 355 L 439 326 L 497 311 L 499 329 Z" fill="#d3dadf" id="id-male-12_shaman_pants_color-24">
</path>
<path d="M 429 372 L 409 334 L 439 326 L 442 355 C 433 366 429 372 429 372 Z" fill="#d3dadf" id="id-male-12_shaman_pants_color-25">
</path>
<path d="M 241 429 C 236 422 233 419 233 419 L 228 361 C 237 406 241 429 241 429 Z" fill="#d3dadf" id="id-male-12_shaman_pants_color-26">
</path>
<path d="M 174 620 C 164 620 159 620 159 620 C 160 647 160 661 160 661 L 172 660 C 173 633 174 620 174 620 Z" fill="#f19c32" id="id-male-12_shaman_pants_color-27">
</path>
<path d="M 131 664 C 122 664 118 664 118 664 C 118 692 118 706 118 706 L 131 705 C 131 678 131 664 131 664 Z" fill="#f19c32" id="id-male-12_shaman_pants_color-28">
</path>
<path d="M 29 340 L 53 332 C 192 375 340 368 497 311 C 500 310 501 309 501 309 C 500 296 499 289 499 289 C 494 289 492 289 492 289 C 476 234 469 207 469 207 C 455 127 447 87 447 87 C 450 87 452 86 452 86 C 449 69 448 61 448 61 C 442 60 439 60 439 60 C 436 69 434 73 434 73 C 278 89 200 97 200 97 C 124 86 85 80 85 80 C 86 78 86 77 86 77 C 79 77 76 77 76 77 C 76 96 75 106 75 106 C 78 106 79 106 79 106 C 51 242 38 309 38 309 L 30 312 L 29 340 Z" fill="#000001" id="id-male-12_shaman_pants_color-29">
</path>
<path d="M 62 330 C 104 337 126 340 126 340 C 114 227 125 144 157 91 C 119 85 100 82 100 82 C 100 100 100 109 100 109 C 116 110 125 111 125 111 C 115 114 107 118 99 123 C 94 186 60 295 62 330 Z" fill="#1b304f" id="id-male-12_shaman_pants_color-30">
</path>
<path d="M 246 294 C 235 239 226 193 221 157 C 216 138 200 132 197 124 C 245 113 292 107 337 105 L 347 187 C 280 258 246 294 246 294 Z" fill="url(#id-male-12_shaman_pants_color-2)" id="id-male-12_shaman_pants_color-31">
</path>
<path d="M 351 102 C 386 98 403 96 403 96 C 390 110 394 182 416 312 L 387 323 C 381 215 368 141 351 102 Z" fill="#1a2e4c" id="id-male-12_shaman_pants_color-32">
</path>
<path d="M 463 156 L 467 180 C 385 271 344 317 344 317 C 234 423 121 526 7 628 C 2 623 0 620 0 620 C 112 514 224 411 337 308 C 418 209 460 158 463 156 Z" fill="#983860" id="id-male-12_shaman_pants_color-33">
</path>
<polygon points="106 521 109 536 164 486 162 469" fill="#bc487f" id="id-male-12_shaman_pants_color-34">
</polygon>
<polygon points="13 459 19 471 98 421 333 244 460 119 456 103 308 247 91 410" fill="#983860" id="id-male-12_shaman_pants_color-35">
</polygon>
<polygon points="91 410 98 421 142 388 142 372" fill="#ba477c" id="id-male-12_shaman_pants_color-36">
</polygon>
<g id="id-male-12_shaman_pants_color-37">
<use fill="url(#id-male-12_shaman_pants_color-3)" xlink:href="#id-male-12_shaman_pants_color-4">
</use>
<use fill="url(#id-male-12_shaman_pants_color-5)" xlink:href="#id-male-12_shaman_pants_color-4">
</use>
</g>
<polygon points="395 237 399 256 467 180 463 156" fill="url(#id-male-12_shaman_pants_color-7)" id="id-male-12_shaman_pants_color-40">
</polygon>
<polygon points="85 80 89 46 88 44 101 8 107 10 120 16 289 19 374 16 407 10 414 1 421 1 441 60 439 60 434 73 200 97" fill="#94a9b1" id="id-male-12_shaman_pants_color-41">
</polygon>
<polygon points="374 16 382 56 356 81 267 90 267 19 289 19" fill="#d3dadf" id="id-male-12_shaman_pants_color-42">
</polygon>
<path d="M 278 19 C 266 42 270 67 267 90 C 252 92 244 93 244 93 C 246 69 244 44 240 18 L 278 19 Z" fill="#e8eaed" id="id-male-12_shaman_pants_color-43">
</path>
</g>
<defs>
</defs>
<g transform="translate(230,495)" id="id-male-17_puffer_cropped_jacket-0">
<path d="M 820 506 C 826 548 839 639 844 681 C 844 681 837 761 837 783 C 836 859 877 981 882 1052 C 882 1052 868 1064 851 1058 C 853 989 835 874 829 799 C 822 695 823 633 806 529 C 797 508 818 506 818 506 L 820 506 Z" fill="#210f10" id="id-male-17_puffer_cropped_jacket-1">
</path>
<path d="M 64 1033 C 50 1023 19 744 48 721 C 62 687 67 527 67 527 L 48 508 C 45 545 45 678 34 715 C 20 800 -5 909 32 1033 L 64 1033 Z" fill="#210f10" id="id-male-17_puffer_cropped_jacket-1">
</path>
<path d="M 830 463 C 828 479 827 494 823 510 C 747 513 667 484 605 443 C 606 422 609 395 610 373 C 610 373 611 373 611 372 C 602 348 595 333 589 327 L 576 249 L 558 236 C 543 233 509 227 494 224 C 463 216 446 209 427 209 C 412 209 395 216 368 222 C 337 227 305 235 281 255 C 224 279 255 338 249 385 C 255 400 256 420 256 441 C 257 490 244 549 227 582 C 180 578 125 573 79 569 C 66 553 53 532 41 512 C 28 493 24 484 26 461 C 26 461 26 461 26 461 C 26 434 20 369 43 363 C 49 359 59 355 67 349 C 66 346 37 270 40 269 C 24 159 26 150 118 88 C 118 86 172 71 173 70 C 182 76 216 96 231 105 C 232 103 235 98 237 95 C 242 93 287 74 292 72 C 292 64 294 56 296 47 L 438 118 C 520 51 559 38 553 81 C 570 80 610 104 611 106 C 627 91 657 69 672 57 C 708 71 746 85 776 110 L 776 110 C 817 142 825 196 816 244 L 816 244 C 816 245 816 247 816 249 L 816 249 C 815 271 807 292 800 312 C 813 334 812 352 820 377 C 830 403 832 436 830 463 Z" fill="#19a94b" id="id-male-17_puffer_cropped_jacket-1">
</path>
<path d="M 154 321 C 83 345 86 333 91 410 L 83 411 L 82 395 L 41 402 L 38 404 L 43 363 L 91 338 L 154 321 Z" fill="#0b994a" id="id-male-17_puffer_cropped_jacket-1">
</path>
<path d="M 856 641 L 810 750 L 810 768 L 771 787 C 771 787 714 802 708 802 C 702 802 683 792 681 790 C 679 788 682 766 683 765 C 683 763 672 756 663 750 C 655 744 656 704 656 699 C 643 646 634 652 655 596 C 656 589 662 578 654 575 C 597 509 603 446 613 372 C 602 362 596 342 594 312 C 614 313 651 315 676 317 C 676 320 622 348 614 367 C 613 462 758 498 832 465 C 831 506 818 530 792 554 C 823 572 846 616 856 641 Z" fill="#067e53" id="id-male-17_puffer_cropped_jacket-1">
</path>
<path d="M 226 648 C 228 661 224 668 223 695 C 223 724 189 772 203 805 L 165 823 C 150 817 82 804 71 787 C 38 753 19 667 23 641 C 46 603 67 586 84 573 C 68 552 44 514 30 489 C 27 485 28 458 27 432 L 88 443 C 88 443 80 485 96 510 C 116 544 124 564 156 551 C 176 547 199 545 206 537 C 215 525 256 460 255 446 C 270 492 240 556 219 600 C 213 610 223 632 226 648 Z" fill="#067e53" id="id-male-17_puffer_cropped_jacket-1">
</path>
<path d="M 818 239 C 818 245 817 251 817 257 L 817 257 L 817 257 C 783 275 742 297 707 315 L 630 307 L 597 265 L 597 195 L 619 103 C 631 87 661 69 674 57 C 772 99 833 115 818 239 Z" fill="#3cb54a" id="id-male-17_puffer_cropped_jacket-1">
</path>
<path d="M 856 641 L 810 750 L 810 767 C 739 718 761 728 794 655 C 794 655 852 637 854 636 C 856 639 856 641 856 641 Z" fill="#106851" id="id-male-17_puffer_cropped_jacket-1">
</path>
<polygon points="754 729 771 756 718 762 718 734" fill="#109948" id="id-male-17_puffer_cropped_jacket-1">
</polygon>
<path d="M 750 633 L 684 611 C 684 611 660 649 664 671 C 668 694 678 703 685 702 C 693 702 714 692 720 683 C 726 673 744 640 750 633 Z" fill="#0e9748" id="id-male-17_puffer_cropped_jacket-1">
</path>
<path d="M 711 567 L 741 563 L 745 560 C 745 560 799 563 810 567 C 820 572 810 582 810 582 C 809 584 789 626 771 620 L 711 567 Z" fill="#0e9748" id="id-male-17_puffer_cropped_jacket-1">
</path>
<polygon points="735 542 676 526 619 479 623 515 652 551" fill="#0e6c51" id="id-male-17_puffer_cropped_jacket-1">
</polygon>
<polygon points="735 315 770 392 794 328" fill="#47b649" id="id-male-17_puffer_cropped_jacket-1">
</polygon>
<path d="M 597 282 C 597 282 626 313 659 317 L 598 312 L 597 282 Z" fill="#00814f" id="id-male-17_puffer_cropped_jacket-1">
</path>
<path d="M 818 239 C 818 263 812 286 804 308 C 795 307 747 310 738 309 C 729 306 701 298 700 293 C 700 293 731 266 742 211 C 742 211 761 188 778 182 C 793 177 810 171 816 167 C 820 188 820 212 818 239 Z" fill="#099b4c" id="id-male-17_puffer_cropped_jacket-1">
</path>
<path d="M 818 239 C 818 258 814 277 808 295 C 806 288 801 266 799 256 L 808 230 L 818 239 Z" fill="#0a7b53" id="id-male-17_puffer_cropped_jacket-1">
</path>
<path d="M 675 294 C 675 294 695 271 706 246 C 718 220 741 195 741 195 L 673 124 C 690 166 716 237 675 294 Z" fill="#73bf44" id="id-male-17_puffer_cropped_jacket-1">
</path>
<polygon points="506 145 546 131 569 170 528 196" fill="#0b1e27" id="id-male-17_puffer_cropped_jacket-1">
</polygon>
<path d="M 563 168 L 534 188 L 516 148 L 544 136 C 548 143 559 161 563 168 Z" fill="#4f60ab" id="id-male-17_puffer_cropped_jacket-1">
</path>
<polygon points="551 147 521 146 544 136" fill="#c8c7e2" id="id-male-17_puffer_cropped_jacket-1">
</polygon>
<polygon points="534 147 527 166 549 171 552 155" fill="#f78f20" id="id-male-17_puffer_cropped_jacket-1">
</polygon>
<path d="M 546 109 L 464 177 L 456 206 L 375 214 L 360 178 L 332 223 L 304 154 L 298 194 C 298 194 245 144 233 105 L 239 95 L 272 81 C 288 88 346 96 364 99 L 295 58 L 295 41 L 308 14 L 347 40 L 386 45 L 415 114 L 437 114 C 463 83 462 91 472 50 C 517 40 506 43 540 14 L 542 15 L 542 16 C 542 16 551 29 555 36 C 559 42 555 81 555 81 C 559 81 563 82 567 83 L 546 109 Z" fill="#48b649" id="id-male-17_puffer_cropped_jacket-1">
</path>
<path d="M 513 89 L 508 119 L 538 109 C 540 104 557 79 557 74 L 551 69 L 513 89 Z" fill="#099251" id="id-male-17_puffer_cropped_jacket-1">
</path>
<polygon points="513 89 467 89 447 125 508 119" fill="#22af4b" id="id-male-17_puffer_cropped_jacket-1">
</polygon>
<polygon points="524 47 546 23 542 15 540 14 508 42 481 52" fill="#89d4e9" id="id-male-17_puffer_cropped_jacket-1">
</polygon>
<polygon points="400 80 391 106 418 121 400 78" fill="#1cab4b" id="id-male-17_puffer_cropped_jacket-1">
</polygon>
<polygon points="396 82 340 74 378 105" fill="#89d4e9" id="id-male-17_puffer_cropped_jacket-1">
</polygon>
<path d="M 376 47 L 332 50 L 296 42 C 296 36 307 16 309 11 L 356 43 L 376 47 Z" fill="#89d4e9" id="id-male-17_puffer_cropped_jacket-1">
</path>
<path d="M 282 254 C 279 256 278 257 278 257 C 250 263 249 329 251 373 C 226 353 201 329 175 309 L 174 309 L 140 307 C 113 290 57 210 36 163 C 40 155 52 139 53 137 L 56 135 L 90 110 C 95 106 115 91 120 87 C 120 86 173 71 173 70 L 175 70 C 182 74 226 101 232 105 L 255 193 L 280 251 C 281 252 281 253 282 254 Z" fill="#4cb748" id="id-male-17_puffer_cropped_jacket-1">
</path>
<path d="M 155 164 L 168 146 L 226 151 C 228 155 231 162 233 165 C 209 189 168 244 206 290 C 206 290 152 299 151 305 C 151 305 107 268 104 230 L 117 215 L 150 246 L 175 216 L 155 164 Z" fill="#86c442" id="id-male-17_puffer_cropped_jacket-1">
</path>
<path d="M 108 204 C 113 212 142 239 150 246 L 175 216 L 108 204 Z" fill="#1baa4b" id="id-male-17_puffer_cropped_jacket-1">
</path>
<path d="M 113 203 L 130 218 L 157 224 L 177 215 L 178 178 C 131 150 141 164 113 203 Z" fill="#210f10" id="id-male-17_puffer_cropped_jacket-1">
</path>
<path d="M 142 169 L 149 186 L 162 190 L 175 179 C 175 179 165 164 142 169 Z" fill="#5f4f76" id="id-male-17_puffer_cropped_jacket-1">
</path>
<path d="M 162 193 L 142 189 L 134 198 L 140 205 C 140 205 155 194 162 193 Z" fill="#5f4f76" id="id-male-17_puffer_cropped_jacket-1">
</path>
<polygon points="160 201 148 209 157 209" fill="#7d99cf" id="id-male-17_puffer_cropped_jacket-1">
</polygon>
<polygon points="252 366 257 320 256 270 226 284 233 316 193 300 243 357 243 362" fill="#0d6c42" id="id-male-17_puffer_cropped_jacket-1">
</polygon>
<path d="M 111 339 L 180 313 C 180 313 216 336 225 355 C 225 355 179 330 111 339 Z" fill="#86c442" id="id-male-17_puffer_cropped_jacket-1">
</path>
<polygon points="211 321 206 332 228 350 228 345 230 342" fill="#0b994a" id="id-male-17_puffer_cropped_jacket-1">
</polygon>
<path d="M 212 357 C 219 359 236 363 243 362 L 247 398 C 243 400 214 359 212 357 Z" fill="#0e964c" id="id-male-17_puffer_cropped_jacket-1">
</path>
<path d="M 146 405 C 146 405 144 442 151 462 C 159 483 168 532 178 539 L 180 546 C 180 546 150 544 135 549 C 135 549 142 499 141 474 C 141 448 140 410 146 405 Z" fill="#50b849" id="id-male-17_puffer_cropped_jacket-1">
</path>
<path d="M 226 648 C 213 656 153 696 141 704 L 104 628 C 106 626 162 571 162 571 L 191 568 C 198 575 213 592 220 600 C 219 601 215 606 215 608 C 216 611 225 645 226 648 Z" fill="#0e9748" id="id-male-17_puffer_cropped_jacket-1">
</path>
<path d="M 195 655 C 195 655 153 667 119 643 C 119 643 141 673 142 675 C 142 678 142 763 142 763 C 148 732 149 676 195 655 Z" fill="#3bb54a" id="id-male-17_puffer_cropped_jacket-1">
</path>
<polygon points="189 696 170 741 198 802" fill="#0e9648" id="id-male-17_puffer_cropped_jacket-1">
</polygon>
<polygon points="138 773 132 753 96 749 89 768" fill="#109948" id="id-male-17_puffer_cropped_jacket-1">
</polygon>
<path d="M 810 767 L 810 768 L 771 787 C 771 787 714 802 708 802 C 702 804 688 788 684 784 C 727 756 731 761 771 756 L 771 756 L 771 755 L 758 729 C 758 729 755 698 758 692 C 760 685 776 623 776 623 C 770 615 734 563 730 556 L 734 555 C 739 561 774 614 780 622 C 765 675 752 711 776 758 L 810 767 Z" fill="#0c424f" id="id-male-17_puffer_cropped_jacket-1">
</path>
<path d="M 794 552 C 774 548 730 553 721 557 C 711 561 699 580 699 580 L 655 596 C 656 589 662 578 654 575 C 599 508 600 456 610 375 L 613 372 L 621 363 C 621 390 622 503 625 513 C 630 529 661 548 661 548 L 665 558 L 692 565 L 710 556 L 728 552 L 742 536 L 735 492 C 738 486 745 473 749 467 C 747 472 741 486 738 491 L 749 535 L 735 549 L 778 534 L 794 552 Z" fill="#0c424f" id="id-male-17_puffer_cropped_jacket-1">
</path>
<path d="M 749 467 L 736 352 C 733 351 679 320 676 324 L 731 361 L 747 467 L 749 467 Z" fill="#11763d" id="id-male-17_puffer_cropped_jacket-1">
</path>
<path d="M 791 329 C 740 313 738 310 674 324 L 679 316 C 692 314 730 314 741 307 C 748 307 798 307 804 307 C 803 309 801 311 800 312 C 802 315 803 318 805 321 C 803 322 793 328 791 329 Z" fill="#0c424f" id="id-male-17_puffer_cropped_jacket-1">
</path>
<path d="M 826 394 L 809 361 C 797 352 798 328 805 321 C 813 338 819 368 826 394 Z" fill="#78cdd2" id="id-male-17_puffer_cropped_jacket-1">
</path>
<polygon points="790 398 783 395 783 462 824 465 835 479 835 466 823 459 792 457" fill="#61062b" id="id-male-17_puffer_cropped_jacket-1">
</polygon>
<polygon points="790 398 824 400 834 409 835 466 822 460 791 457" fill="#d11c65" id="id-male-17_puffer_cropped_jacket-1">
</polygon>
<polygon points="794 403 793 418 821 421 831 430 832 410 817 404" fill="#ceada7" id="id-male-17_puffer_cropped_jacket-1">
</polygon>
<polygon points="756 414 781 415 781 448 758 447" fill="#210f10" id="id-male-17_puffer_cropped_jacket-1">
</polygon>
<path d="M 810 277 L 827 251 L 853 247 L 855 229 C 855 229 829 223 827 219 C 825 215 820 202 820 202 L 808 233 L 810 277 Z" fill="#210f10" id="id-male-17_puffer_cropped_jacket-1">
</path>
<polygon points="810 235 825 236 827 228 849 235 851 230 827 221 824 217 817 219" fill="#67587f" id="id-male-17_puffer_cropped_jacket-1">
</polygon>
<path d="M 709 176 C 709 176 702 187 721 203 C 741 218 741 217 750 214 C 759 210 777 196 775 189 C 773 183 767 169 767 169 L 772 162 L 757 147 L 749 153 C 731 145 715 163 709 176 Z" fill="#210f10" id="id-male-17_puffer_cropped_jacket-1">
</path>
<path d="M 730 156 L 739 167 L 756 154 L 759 158 L 737 179 L 734 176 L 730 181 L 711 181 C 708 173 726 158 730 156 Z" fill="#67587f" id="id-male-17_puffer_cropped_jacket-1">
</path>
<polygon points="764 171 744 186 746 193" fill="#7d99cf" id="id-male-17_puffer_cropped_jacket-1">
</polygon>
<polygon points="749 193 764 189 762 200 746 208" fill="#202716" id="id-male-17_puffer_cropped_jacket-1">
</polygon>
<path d="M 813 155 L 790 131 C 749 124 708 112 673 71 C 551 129 664 133 538 109 L 557 81 C 577 83 611 104 611 105 C 627 90 657 68 672 56 C 741 78 789 97 813 155 Z" fill="#89d4e9" id="id-male-17_puffer_cropped_jacket-1">
</path>
<polygon points="711 71 735 110 781 110 759 83 778 56 758 42 737 69" fill="#210f10" id="id-male-17_puffer_cropped_jacket-1">
</polygon>
<polygon points="720 81 741 75 747 81 730 98" fill="#67587f" id="id-male-17_puffer_cropped_jacket-1">
</polygon>
<polygon points="758 42 758 57 778 56" fill="#6c6388" id="id-male-17_puffer_cropped_jacket-1">
</polygon>
<path d="M 628 353 C 618 372 615 376 610 381 C 592 373 589 337 584 331 L 576 249 L 558 236 L 511 227 L 429 211 C 408 216 308 226 282 255 C 270 263 261 274 256 287 L 254 194 L 277 255 L 333 218 L 371 218 L 422 208 L 420 129 L 412 127 L 414 107 L 441 107 L 440 128 L 435 128 L 430 131 L 433 204 C 463 212 524 226 556 226 L 579 243 L 606 136 C 606 139 595 216 595 225 C 595 234 599 340 599 340 L 628 353 Z" fill="#0c424f" id="id-male-17_puffer_cropped_jacket-1">
</path>
<polygon points="647 238 671 317 665 318 641 244 595 216 595 208" fill="#0c744f" id="id-male-17_puffer_cropped_jacket-1">
</polygon>
<polygon points="298 129 366 119 377 165 309 179" fill="#0d1b27" id="id-male-17_puffer_cropped_jacket-1">
</polygon>
<polygon points="306 132 310 145 367 137 362 124" fill="#f78f20" id="id-male-17_puffer_cropped_jacket-1">
</polygon>
<polygon points="310 149 365 140 369 159 314 170" fill="#61062b" id="id-male-17_puffer_cropped_jacket-1">
</polygon>
<polygon points="555 36 544 63 556 76 567 62 584 63 587 56 585 48 565 49" fill="#210f10" id="id-male-17_puffer_cropped_jacket-1">
</polygon>
<path d="M 320 11 L 349 37 L 387 42 L 386 49 C 332 41 349 45 306 13 C 308 9 309 6 309 3 M 540 4 C 540 6 539 16 541 17 L 509 46 L 471 53 L 472 44 L 500 41 L 534 11" fill="#210f10" id="id-male-17_puffer_cropped_jacket-70">
</path>
<polygon points="266 39 287 43 298 34 299 61 293 71 285 57 267 55" fill="#210f10" id="id-male-17_puffer_cropped_jacket-1">
</polygon>
<polygon points="292 72 310 90 273 113 234 99 237 95" fill="#89d4e9" id="id-male-17_puffer_cropped_jacket-1">
</polygon>
<path d="M 223 99 C 212 108 179 129 139 101 L 107 111 L 111 92 C 113 85 167 71 174 68 L 223 99 Z" fill="#89d4e9" id="id-male-17_puffer_cropped_jacket-1">
</path>
<path d="M 125 87 L 107 125 C 107 125 55 139 55 139 C 54 139 68 103 68 103 L 48 78 L 71 66 L 90 90 L 125 87 Z" fill="#210f10" id="id-male-17_puffer_cropped_jacket-1">
</path>
<polygon points="116 93 106 121 83 105 91 94" fill="#685983" id="id-male-17_puffer_cropped_jacket-1">
</polygon>
<polygon points="71 66 67 78 48 78" fill="#3658a7" id="id-male-17_puffer_cropped_jacket-1">
</polygon>
<path d="M 52 220 L 51 262 L 36 239 C 33 215 30 187 36 165 L 52 220 Z" fill="#7d99cf" id="id-male-17_puffer_cropped_jacket-1">
</path>
<path d="M 154 321 L 91 338 L 64 351 C 65 351 66 350 67 349 C 60 331 37 272 38 253 L 44 250 L 81 322 L 154 321 Z" fill="#0e444f" id="id-male-17_puffer_cropped_jacket-1">
</path>
<polygon points="49 231 43 273 26 244 0 244 2 223 26 217 35 200" fill="#210f10" id="id-male-17_puffer_cropped_jacket-1">
</polygon>
<polygon points="257 201 196 255 183 310 142 342 160 442 148 542 144 543 157 441 138 341 178 305 193 250 254 194" fill="#0e793d" id="id-male-17_puffer_cropped_jacket-1">
</polygon>
<path d="M 219 600 L 220 600 L 220 600 C 213 593 199 576 193 569 L 224 579 C 263 467 261 485 243 362 C 249 345 253 335 255 332 C 255 342 254 356 253 367 C 252 378 252 376 249 385 C 259 404 256 427 257 448 C 266 497 241 555 219 600 Z" fill="#0e514a" id="id-male-17_puffer_cropped_jacket-1">
</path>
<path d="M 79 544 L 78 568 C 66 552 53 531 41 512 C 28 493 24 484 26 461 C 26 461 26 461 26 461 C 26 434 20 369 43 363 C 32 415 30 499 79 544 Z" fill="#7d99cf" id="id-male-17_puffer_cropped_jacket-1">
</path>
<path d="M 23 417 L 41 402 L 82 395 L 83 411 C 82 437 81 454 80 460 C 46 462 53 460 22 477 L 23 417 Z" fill="#d11c65" id="id-male-17_puffer_cropped_jacket-1">
</path>
<path d="M 23 477 L 24 485 L 29 487 L 29 480 L 48 467 L 79 465 L 80 460 C 46 462 53 460 23 477 Z" fill="#60072c" id="id-male-17_puffer_cropped_jacket-1">
</path>
<polygon points="129 407 125 440 81 443 79 412 83 411" fill="#210f10" id="id-male-17_puffer_cropped_jacket-1">
</polygon>
<polygon points="27 422 27 433 40 424 78 418 77 403 38 408" fill="#cfafa7" id="id-male-17_puffer_cropped_jacket-1">
</polygon>
<path d="M 80 565 L 94 538 L 141 572 C 141 572 86 576 85 576 C 85 576 80 565 80 565 Z" fill="#0c424f" id="id-male-17_puffer_cropped_jacket-1">
</path>
<path d="M 41 653 C 37 680 53 760 71 787 C 38 753 19 667 23 641 C 46 605 65 582 85 576 C 75 584 42 617 82 616 L 41 653 Z" fill="#7d99cf" id="id-male-17_puffer_cropped_jacket-1">
</path>
<path d="M 227 653 C 227 661 224 673 223 695 C 222 716 205 750 201 776 C 190 717 192 702 227 653 Z" fill="#0c424f" id="id-male-17_puffer_cropped_jacket-1">
</path>
<path d="M 203 805 L 165 823 C 151 817 84 803 72 789 L 72 781 L 99 774 L 122 777 L 119 745 L 127 710 L 99 628 L 157 571 L 160 570 C 156 563 147 548 143 542 L 148 542 L 174 570 L 159 574 L 106 631 L 132 708 C 123 746 121 740 129 779 L 155 783 L 202 804 C 202 804 202 804 203 805 L 203 805 Z" fill="#0c424f" id="id-male-17_puffer_cropped_jacket-1">
</path>
<polygon points="415 125 440 125 427 133" fill="#210f10" id="id-male-17_puffer_cropped_jacket-1">
</polygon>
<polygon points="415 109 415 113 439 113 438 109" fill="#89d4e9" id="id-male-17_puffer_cropped_jacket-1">
</polygon>
<path d="M 151 785 L 172 818 L 170 845 L 131 846 L 127 856 L 123 868 L 121 879 L 77 868 L 71 846 L 88 779 C 91 777 97 776 108 777 C 118 778 132 781 151 785 Z" fill="#151515" id="id-male-17_puffer_cropped_jacket-1">
</path>
<path d="M 720 766 C 727 764 733 762 737 761 C 745 760 758 759 775 759 L 775 784 L 794 856 L 742 873 L 734 855 L 734 853 L 698 845 L 696 801 C 709 779 717 768 720 766 Z" fill="#151515" id="id-male-17_puffer_cropped_jacket-1">
</path>
</g>
<defs>
</defs>
<g transform="translate(559,241)" id="id-male-27_hat_pizza_cap-0">
<path d="M 200 99 L 191 148 L 178 142 L 162 133 L 137 120 L 104 102 L 11 149 C 11 149 8 146 2 142 C 1 129 0 122 0 122 C 0 122 1 115 2 99 C 8 71 13 52 19 42 C 19 41 19 41 19 40 C 19 40 46 17 87 7 C 87 7 88 7 88 7 C 88 7 87 2 90 2 C 93 2 105 0 105 0 C 105 1 108 5 108 5 L 108 5 C 109 6 141 13 151 18 C 153 19 156 21 158 22 C 167 27 176 34 179 37 C 180 38 181 41 183 45 C 186 52 189 62 191 66 C 192 70 195 81 200 99 Z" fill="#253d8b" id="id-male-27_hat_pizza_cap-1">
</path>
<path d="M 200 121 C 199 125 199 132 198 142 L 191 148 L 178 142 L 162 133 C 160 98 159 44 158 22 C 167 27 176 34 179 37 C 180 38 181 41 183 45 C 186 52 189 62 191 66 C 192 72 200 106 200 121 Z" fill="#1751a4" id="id-male-27_hat_pizza_cap-1">
</path>
<path d="M 178 130 L 178 142 L 137 120 L 121 108 L 101 94 L 16 125 L 16 116 L 15 105 L 26 80 C 26 80 26 80 26 80 L 17 67 L 19 52 L 35 35 L 44 25 C 44 25 26 37 25 38 C 24 38 20 41 19 42 C 19 41 19 41 19 40 C 19 40 46 17 87 7 L 92 7 L 93 5 L 106 4 L 108 5 L 108 5 C 109 6 141 13 151 18 C 162 24 176 33 179 37 C 180 38 181 41 183 45 L 182 47 L 173 34 L 163 28 C 168 32 178 48 181 52 C 181 53 181 53 181 53 C 181 53 183 82 183 97 C 184 112 177 127 177 127 L 178 130 Z" fill="#456cb4" id="id-male-27_hat_pizza_cap-1">
</path>
<path d="M 13 131 L 2 142 C 1 133 0 122 0 122 C 0 122 3 98 5 87 C 7 96 11 116 11 116 L 13 131 Z" fill="#3058a8" id="id-male-27_hat_pizza_cap-1">
</path>
<path d="M 146 103 C 146 103 136 105 121 108 L 101 94 L 16 125 L 16 116 L 15 105 L 26 80 C 26 80 26 80 26 80 L 17 67 L 19 52 L 35 35 C 80 14 129 29 129 29 C 136 41 146 103 146 103 Z" fill="#3861ad" id="id-male-27_hat_pizza_cap-1">
</path>
<path d="M 26 80 L 25 90 L 16 116 L 15 105 L 26 80 C 26 80 26 80 26 80 Z" fill="#3560ac" id="id-male-27_hat_pizza_cap-1">
</path>
<path d="M 177 127 L 178 130 L 157 109 L 181 52 C 181 53 181 53 181 53 C 181 53 183 82 183 97 C 184 112 177 127 177 127 Z" fill="#3c65af" id="id-male-27_hat_pizza_cap-1">
</path>
<polygon points="140 28 149 29 157 34 148 37" fill="#1e53a5" id="id-male-27_hat_pizza_cap-1">
</polygon>
<path d="M 56 26 L 67 24 C 67 24 60 30 59 34 L 50 33 C 50 33 54 27 56 26 Z" fill="#253d8b" id="id-male-27_hat_pizza_cap-1">
</path>
<path d="M 91 7 L 93 5 L 94 90 L 92 90 C 92 90 92 13 91 7 Z" fill="#1f53a5" id="id-male-27_hat_pizza_cap-1">
</path>
<polygon points="106 4 108 5 112 91 110 90" fill="#1f53a5" id="id-male-27_hat_pizza_cap-1">
</polygon>
<path d="M 102 78 C 102 78 102 78 102 78 C 101 78 100 77 100 77 C 98 75 97 72 97 72 C 97 72 97 72 97 72 C 97 71 97 71 97 71 C 98 71 100 71 101 68 C 101 67 101 65 100 64 C 99 63 98 63 97 63 C 94 63 94 65 94 65 C 94 65 94 65 93 65 C 93 65 93 65 92 65 L 88 58 C 88 58 88 57 88 57 C 89 57 89 57 90 57 L 93 63 C 94 62 95 61 97 61 C 99 61 101 62 102 63 C 103 65 103 67 103 69 C 102 71 100 72 99 72 C 99 73 100 75 101 76 C 101 76 101 76 102 76 C 102 76 102 76 102 76 C 102 76 103 75 103 75 L 111 62 C 110 62 110 62 109 61 C 107 60 105 58 106 54 C 106 53 107 52 109 51 C 110 50 112 50 113 50 C 115 51 116 52 116 53 L 120 47 C 113 41 105 39 96 40 C 90 42 86 45 86 45 C 86 45 85 45 85 45 C 84 45 82 46 80 43 C 78 41 79 38 80 37 C 80 37 80 37 80 37 C 93 28 105 29 113 31 C 121 34 126 38 126 39 C 127 39 127 39 126 40 C 126 40 125 40 125 40 C 125 40 120 35 112 33 C 102 30 91 31 81 38 C 81 39 80 41 81 42 C 82 44 84 44 85 43 C 85 43 90 40 96 39 C 102 37 112 37 122 46 C 122 46 122 46 122 47 L 117 55 C 117 56 117 56 116 56 C 116 56 116 56 115 55 C 115 55 115 53 113 52 C 112 52 111 52 110 52 C 109 53 108 54 108 55 C 107 57 108 59 110 60 C 111 61 113 60 113 60 C 113 59 113 59 114 60 C 114 60 114 60 114 61 L 104 76 C 104 76 104 76 104 76 C 104 76 103 78 102 78 Z" fill="#ffffff" id="id-male-27_hat_pizza_cap-1">
</path>
<path d="M 95 56 C 91 56 89 53 89 50 C 89 46 91 44 95 44 C 98 44 101 46 101 50 C 101 53 98 56 95 56 Z M 95 46 C 92 46 91 47 91 50 C 91 52 92 54 95 54 C 97 54 99 52 99 50 C 99 47 97 46 95 46 Z" fill="#ffffff" id="id-male-27_hat_pizza_cap-13" fill-rule="nonzero">
</path>
<polygon points="15 180 13 142 114 116 188 146 151 162 109 163 102 155 89 154 79 165 27 172" fill="#000000" opacity="0.304" id="id-male-27_hat_pizza_cap-1">
</polygon>
<path d="M 195 143 L 192 149 C 192 149 148 134 133 129 C 119 124 90 127 79 128 C 68 130 31 144 31 144 L 11 149 L 4 145 L 4 144 L 15 126 C 15 126 20 119 44 106 C 67 93 93 89 99 88 C 105 88 126 91 126 91 C 138 92 173 114 173 114 L 184 125 L 188 131 L 195 143 L 195 143 Z" fill="#771214" id="id-male-27_hat_pizza_cap-1">
</path>
<path d="M 195 143 L 174 136 L 130 121 L 105 118 C 105 118 85 118 65 124 C 45 130 31 134 31 134 L 14 140 C 14 140 7 143 4 145 L 4 144 L 15 126 C 15 126 20 119 44 106 C 67 93 93 89 99 88 C 105 88 126 91 126 91 C 138 92 173 114 173 114 L 184 125 L 188 131 L 195 143 Z" fill="#c72026" id="id-male-27_hat_pizza_cap-1">
</path>
</g>
<defs>
</defs>

</svg>
