<?xml version="1.0" encoding="UTF-8"?>
<svg xmlns="http://www.w3.org/2000/svg" xmlns:xlink="http://www.w3.org/1999/xlink" width="1320px" height="1760px" viewBox="0 0 1320 1760" version="1.1">
<defs>
</defs>

<defs>
<linearGradient x1="100%" y1="46%" x2="12%" y2="47%" id="id-female-6.6_base_2-0">
<stop stop-color="#723722" offset="0%">
</stop>
<stop stop-color="#96513b" offset="21%">
</stop>
<stop stop-color="#9a6555" offset="46%">
</stop>
<stop stop-color="#9f5e49" offset="80%">
</stop>
<stop stop-color="#93523a" offset="100%">
</stop>
</linearGradient>
<linearGradient x1="53%" y1="81%" x2="50%" y2="21%" id="id-female-6.6_base_2-1">
<stop stop-color="#7b3f37" offset="0%">
</stop>
<stop stop-color="#7d4538" offset="24%">
</stop>
<stop stop-color="#834b33" offset="100%">
</stop>
</linearGradient>
<linearGradient x1="52%" y1="-4%" x2="46%" y2="70%" id="id-female-6.6_base_2-2">
<stop stop-color="#834239" offset="0%">
</stop>
<stop stop-color="#5c3029" offset="100%">
</stop>
</linearGradient>
<linearGradient x1="46%" y1="43%" x2="15%" y2="43%" id="id-female-6.6_base_2-3">
<stop stop-color="#924833" offset="0%">
</stop>
<stop stop-color="#683011" offset="100%">
</stop>
</linearGradient>
<linearGradient x1="54%" y1="37%" x2="12%" y2="72%" id="id-female-6.6_base_2-4">
<stop stop-color="#1e0404" offset="0%">
</stop>
<stop stop-color="#34100e" offset="100%">
</stop>
</linearGradient>
<linearGradient x1="40%" y1="14%" x2="61%" y2="85%" id="id-female-6.6_base_2-5">
<stop stop-color="#461a1f" offset="0%">
</stop>
<stop stop-color="#5b2f2c" offset="100%">
</stop>
</linearGradient>
<linearGradient x1="27%" y1="47%" x2="91%" y2="49%" id="id-female-6.6_base_2-6">
<stop stop-color="#784730" offset="0%">
</stop>
<stop stop-color="#be8bc7" offset="100%">
</stop>
</linearGradient>
<linearGradient x1="47%" y1="60%" x2="49%" y2="79%" id="id-female-6.6_base_2-7">
<stop stop-color="#7f4235" offset="0%">
</stop>
<stop stop-color="#894241" offset="60%">
</stop>
<stop stop-color="#9b595a" offset="100%">
</stop>
</linearGradient>
<linearGradient x1="29%" y1="56%" x2="69%" y2="53%" id="id-female-6.6_base_2-8">
<stop stop-color="#804733" offset="0%">
</stop>
<stop stop-color="#743a2c" offset="8%">
</stop>
<stop stop-color="#7c3d34" offset="18%">
</stop>
<stop stop-color="#5d2920" offset="38%">
</stop>
<stop stop-color="#5b2725" offset="65%">
</stop>
<stop stop-color="#7e4037" offset="81%">
</stop>
<stop stop-color="#4c1b1f" offset="100%">
</stop>
</linearGradient>
<linearGradient x1="47%" y1="45%" x2="54%" y2="46%" id="id-female-6.6_base_2-9">
<stop stop-color="#7a3932" offset="0%">
</stop>
<stop stop-color="#763b2f" offset="62%">
</stop>
<stop stop-color="#5f2c1f" offset="77%">
</stop>
<stop stop-color="#794634" offset="100%">
</stop>
</linearGradient>
<linearGradient x1="51%" y1="7%" x2="50%" y2="100%" id="id-female-6.6_base_2-10">
<stop stop-color="#763d2d" offset="0%">
</stop>
<stop stop-color="#914e49" offset="75%">
</stop>
<stop stop-color="#7b3c3b" offset="100%">
</stop>
</linearGradient>
<linearGradient x1="51%" y1="11%" x2="49%" y2="93%" id="id-female-6.6_base_2-11">
<stop stop-color="#87523f" offset="0%">
</stop>
<stop stop-color="#80482f" offset="73%">
</stop>
<stop stop-color="#865037" offset="100%">
</stop>
</linearGradient>
<linearGradient x1="51%" y1="-5%" x2="48%" y2="96%" id="id-female-6.6_base_2-12">
<stop stop-color="#7d452e" offset="0%">
</stop>
<stop stop-color="#6c3821" offset="100%">
</stop>
</linearGradient>
<linearGradient x1="50%" y1="19%" x2="50%" y2="69%" id="id-female-6.6_base_2-13">
<stop stop-color="#50260a" offset="0%">
</stop>
<stop stop-color="#291000" offset="45%">
</stop>
<stop stop-color="#4c2106" offset="100%">
</stop>
</linearGradient>
<linearGradient x1="46%" y1="74%" x2="39%" y2="35%" id="id-female-6.6_base_2-14">
<stop stop-color="#492117" offset="0%">
</stop>
<stop stop-color="#64311e" offset="51%">
</stop>
<stop stop-color="#713121" offset="100%">
</stop>
</linearGradient>
<linearGradient x1="46%" y1="16%" x2="49%" y2="82%" id="id-female-6.6_base_2-15">
<stop stop-color="#512416" offset="0%" stop-opacity="0.186">
</stop>
<stop stop-color="#482015" offset="100%">
</stop>
</linearGradient>
<linearGradient x1="41%" y1="19%" x2="50%" y2="100%" id="id-female-6.6_base_2-16">
<stop stop-color="#5b2725" offset="0%">
</stop>
<stop stop-color="#50260a" offset="100%">
</stop>
</linearGradient>
<linearGradient x1="50%" y1="31%" x2="45%" y2="50%" id="id-female-6.6_base_2-17">
<stop stop-color="#68361d" offset="0%">
</stop>
<stop stop-color="#894c43" offset="100%">
</stop>
</linearGradient>
<linearGradient x1="51%" y1="22%" x2="50%" y2="100%" id="id-female-6.6_base_2-18">
<stop stop-color="#5d2126" offset="0%">
</stop>
<stop stop-color="#4f1c21" offset="100%">
</stop>
</linearGradient>
<linearGradient x1="49%" y1="0%" x2="50%" y2="100%" id="id-female-6.6_base_2-19">
<stop stop-color="#7a3f2e" offset="0%">
</stop>
<stop stop-color="#793f35" offset="100%">
</stop>
</linearGradient>
<linearGradient x1="44%" y1="15%" x2="50%" y2="100%" id="id-female-6.6_base_2-20">
<stop stop-color="#5b2c1f" offset="0%">
</stop>
<stop stop-color="#50281d" offset="100%">
</stop>
</linearGradient>
<linearGradient x1="52%" y1="21%" x2="49%" y2="83%" id="id-female-6.6_base_2-21">
<stop stop-color="#7f4534" offset="0%">
</stop>
<stop stop-color="#975549" offset="48%">
</stop>
<stop stop-color="#83453f" offset="100%">
</stop>
</linearGradient>
<linearGradient x1="85%" y1="60%" x2="15%" y2="60%" id="id-female-6.6_base_2-22">
<stop stop-color="#864a32" offset="0%">
</stop>
<stop stop-color="#5d2a11" offset="100%">
</stop>
</linearGradient>
<linearGradient x1="48%" y1="-20%" x2="59%" y2="91%" id="id-female-6.6_base_2-23">
<stop stop-color="#96533c" offset="0%">
</stop>
<stop stop-color="#5d2c12" offset="60%">
</stop>
<stop stop-color="#643418" offset="72%">
</stop>
<stop stop-color="#743e24" offset="100%">
</stop>
</linearGradient>
<linearGradient x1="55%" y1="48%" x2="46%" y2="33%" id="id-female-6.6_base_2-24">
<stop stop-color="#743f2a" offset="0%">
</stop>
<stop stop-color="#7e462e" offset="86%">
</stop>
<stop stop-color="#764228" offset="100%">
</stop>
</linearGradient>
<linearGradient x1="50%" y1="19%" x2="50%" y2="78%" id="id-female-6.6_base_2-25">
<stop stop-color="#401900" offset="0%">
</stop>
<stop stop-color="#522003" offset="50%">
</stop>
<stop stop-color="#371900" offset="100%">
</stop>
</linearGradient>
<linearGradient x1="50%" y1="10%" x2="50%" y2="43%" id="id-female-6.6_base_2-26">
<stop stop-color="#85462c" offset="0%">
</stop>
<stop stop-color="#602c13" offset="15%">
</stop>
<stop stop-color="#652d15" offset="68%">
</stop>
<stop stop-color="#592a10" offset="100%">
</stop>
</linearGradient>
<linearGradient x1="89%" y1="50%" x2="9%" y2="52%" id="id-female-6.6_base_2-27">
<stop stop-color="#401d02" offset="0%">
</stop>
<stop stop-color="#995734" offset="53%" stop-opacity="0.199">
</stop>
<stop stop-color="#5a2a10" offset="75%">
</stop>
<stop stop-color="#411900" offset="100%">
</stop>
</linearGradient>
<linearGradient x1="44%" y1="70%" x2="86%" y2="30%" id="id-female-6.6_base_2-28">
<stop stop-color="#9a5741" offset="0%">
</stop>
<stop stop-color="#9c6a5f" offset="100%">
</stop>
</linearGradient>
<linearGradient x1="19%" y1="86%" x2="73%" y2="32%" id="id-female-6.6_base_2-29">
<stop stop-color="#703010" offset="0%">
</stop>
<stop stop-color="#a66353" offset="40%">
</stop>
<stop stop-color="#ae745f" offset="100%">
</stop>
</linearGradient>
<linearGradient x1="35%" y1="94%" x2="47%" y2="12%" id="id-female-6.6_base_2-30">
<stop stop-color="#723c23" offset="0%">
</stop>
<stop stop-color="#966556" offset="40%">
</stop>
<stop stop-color="#ac715d" offset="46%">
</stop>
<stop stop-color="#a36655" offset="100%">
</stop>
</linearGradient>
<linearGradient x1="50%" y1="54%" x2="27%" y2="9%" id="id-female-6.6_base_2-31">
<stop stop-color="#ddab90" offset="0%">
</stop>
<stop stop-color="#ddab90" offset="100%" stop-opacity="0.078">
</stop>
</linearGradient>
<linearGradient x1="20%" y1="36%" x2="93%" y2="69%" id="id-female-6.6_base_2-32">
<stop stop-color="#a36150" offset="0%">
</stop>
<stop stop-color="#9d604e" offset="70%">
</stop>
<stop stop-color="#803a19" offset="100%">
</stop>
</linearGradient>
<linearGradient x1="36%" y1="84%" x2="25%" y2="44%" id="id-female-6.6_base_2-33">
<stop stop-color="#663d38" offset="0%" stop-opacity="0.509">
</stop>
<stop stop-color="#57260a" offset="35%" stop-opacity="0.675">
</stop>
<stop stop-color="#763217" offset="100%" stop-opacity="0">
</stop>
</linearGradient>
<linearGradient x1="63%" y1="95%" x2="43%" y2="20%" id="id-female-6.6_base_2-34">
<stop stop-color="#7c3c2b" offset="0%">
</stop>
<stop stop-color="#8a4b32" offset="46%">
</stop>
<stop stop-color="#88452f" offset="100%">
</stop>
</linearGradient>
<linearGradient x1="40%" y1="0%" x2="50%" y2="86%" id="id-female-6.6_base_2-35">
<stop stop-color="#804025" offset="0%">
</stop>
<stop stop-color="#955542" offset="100%">
</stop>
</linearGradient>
<linearGradient x1="50%" y1="0%" x2="50%" y2="92%" id="id-female-6.6_base_2-36">
<stop stop-color="#b56f5e" offset="0%">
</stop>
<stop stop-color="#8b4e35" offset="100%">
</stop>
</linearGradient>
<linearGradient x1="33%" y1="79%" x2="21%" y2="44%" id="id-female-6.6_base_2-37">
<stop stop-color="#936354" offset="0%">
</stop>
<stop stop-color="#633117" offset="28%">
</stop>
<stop stop-color="#763c17" offset="100%" stop-opacity="0">
</stop>
</linearGradient>
<linearGradient x1="4%" y1="47%" x2="92%" y2="45%" id="id-female-6.6_base_2-38">
<stop stop-color="#391108" offset="0%">
</stop>
<stop stop-color="#501a0f" offset="17%" stop-opacity="0.753">
</stop>
<stop stop-color="#6b3127" offset="48%" stop-opacity="0.386">
</stop>
<stop stop-color="#4a1c15" offset="78%" stop-opacity="0.762">
</stop>
<stop stop-color="#411610" offset="100%">
</stop>
</linearGradient>
<linearGradient x1="60%" y1="45%" x2="67%" y2="53%" id="id-female-6.6_base_2-39">
<stop stop-color="#a3716e" offset="0%">
</stop>
<stop stop-color="#cb93a9" offset="100%">
</stop>
</linearGradient>
<linearGradient x1="48%" y1="15%" x2="54%" y2="81%" id="id-female-6.6_base_2-40">
<stop stop-color="#8c4a35" offset="0%">
</stop>
<stop stop-color="#965850" offset="100%">
</stop>
</linearGradient>
<linearGradient x1="47%" y1="44%" x2="50%" y2="61%" id="id-female-6.6_base_2-41">
<stop stop-color="#3e0d06" offset="0%" stop-opacity="0.175">
</stop>
<stop stop-color="#33100b" offset="100%">
</stop>
</linearGradient>
<linearGradient x1="26%" y1="-7%" x2="50%" y2="96%" id="id-female-6.6_base_2-42">
<stop stop-color="#37373f" offset="0%">
</stop>
<stop stop-color="#19191d" offset="100%">
</stop>
</linearGradient>
<linearGradient x1="50%" y1="12%" x2="59%" y2="82%" id="id-female-6.6_base_2-43">
<stop stop-color="#252525" offset="0%">
</stop>
<stop stop-color="#101010" offset="100%">
</stop>
</linearGradient>
<linearGradient x1="25%" y1="-16%" x2="50%" y2="98%" id="id-female-6.6_base_2-44">
<stop stop-color="#37373f" offset="0%">
</stop>
<stop stop-color="#19191d" offset="100%">
</stop>
</linearGradient>
<linearGradient x1="75%" y1="39%" x2="50%" y2="93%" id="id-female-6.6_base_2-45">
<stop stop-color="#252525" offset="0%">
</stop>
<stop stop-color="#000000" offset="100%">
</stop>
</linearGradient>
</defs>
<g transform="translate(334,549)" id="id-female-6.6_base_2-46">
<polygon points="561 754 565 871 565 881 537 893 533 897 535 901 532 909 543 910 597 864" fill="#451f04" id="id-female-6.6_base_2-47">
</polygon>
<polygon points="537 282 539 246 535 195 529 158 522 137 484 118 440 111 212 111 188 113 157 123 121 139 111 186 108 221 109 290" fill="url(#id-female-6.6_base_2-0)" id="id-female-6.6_base_2-47">
</polygon>
<polygon points="467 393 474 506 503 589 537 672 556 728 561 754 546 794 552 851 551 861 552 874 556 885 567 882 568 866 570 860 570 843 571 834 576 843 576 859 579 864 573 874 571 884 544 903 541 916 582 901 597 864 607 852 600 821 597 716 589 695 582 655 569 523 544 425" fill="url(#id-female-6.6_base_2-1)" id="id-female-6.6_base_2-47">
</polygon>
<polygon points="546 794 552 851 551 861 552 874 556 885 567 882 568 866 570 860 570 843 571 834 576 843 576 859 579 864 573 874 571 884 544 903 541 916 582 901 597 864 583 871 588 855 573 815 561 823" fill="url(#id-female-6.6_base_2-2)" id="id-female-6.6_base_2-47">
</polygon>
<polygon points="552 851 551 861 552 874 556 887 567 884 568 866 570 860 558 860" fill="#552b28" id="id-female-6.6_base_2-47">
</polygon>
<polygon points="544 906 541 916 582 901 571 889" fill="#512926" id="id-female-6.6_base_2-47">
</polygon>
<polygon points="561 754 548 789 566 819 586 806" fill="#66342d" id="id-female-6.6_base_2-47">
</polygon>
<polygon points="486 648 477 599 453 529 440 504 437 490 439 460 449 402 456 340 188 343 198 411 202 493 162 596 153 638 266 693 319 721 386 693" fill="url(#id-female-6.6_base_2-3)" id="id-female-6.6_base_2-47">
</polygon>
<polygon points="486 648 477 599 453 529 440 504 437 490 439 460 449 402 456 340 296 353 376 634" fill="#804025" id="id-female-6.6_base_2-47">
</polygon>
<g transform="translate(188,0)" id="id-female-6.6_base_2-56">
<polygon points="274 114 253 111 232 100 201 76 188 58 184 1 93 1 88 64 25 111 1 113 103 123 121 135 134 138 149 121 161 117 187 119 225 114" fill="#83442e" id="id-female-6.6_base_2-47">
</polygon>
<polygon points="201 76 188 58 185 12 175 57 155 111 185 73" fill="#a06e95" id="id-female-6.6_base_2-47">
</polygon>
<polygon points="149 1 93 1 88 64 108 126 121 135 133 138" fill="#6e361f" id="id-female-6.6_base_2-47">
</polygon>
<polygon points="116 102 120 113 118 115 136 135 150 119 164 71 125 108" fill="#5a2f17" id="id-female-6.6_base_2-60">
</polygon>
<polygon points="121 127 133 138 145 124" fill="#431903" id="id-female-6.6_base_2-61">
</polygon>
<polygon points="136 98 164 71 175 57 186 17 134 51" fill="#68291c" id="id-female-6.6_base_2-62">
</polygon>
<polygon points="97 96 116 80 164 60 178 48 186 17 184 1 93 1 88 64 45 96" fill="#5e2519" opacity="0.654" id="id-female-6.6_base_2-47">
</polygon>
<polygon points="186 17 184 1 93 1 88 64 45 96 66 96" fill="url(#id-female-6.6_base_2-4)" opacity="0.467" id="id-female-6.6_base_2-47">
</polygon>
<polygon points="123 58 176 23 186 17 184 1 93 1 91 22 108 55" fill="#1e0404" opacity="0.434" id="id-female-6.6_base_2-47">
</polygon>
</g>
<polygon points="41 844 33 856 36 895 64 915 84 911 83 903 71 898 72 892 63 884 52 849" fill="url(#id-female-6.6_base_2-5)" id="id-female-6.6_base_2-47">
</polygon>
<polygon points="315 152 285 173 320 188 357 166" fill="#aa6d58" id="id-female-6.6_base_2-67">
</polygon>
<polygon points="327 150 370 130 342 127" fill="#7d452b" id="id-female-6.6_base_2-68">
</polygon>
<polygon points="301 142 303 148 243 131 240 119 276 119" fill="#7b442b" id="id-female-6.6_base_2-69">
</polygon>
<polygon points="159 149 206 123 269 123 303 144 297 118 188 113 157 123 121 139" fill="url(#id-female-6.6_base_2-6)" id="id-female-6.6_base_2-47">
</polygon>
<polygon points="157 123 121 139 153 167 196 134" fill="#be8ca3" id="id-female-6.6_base_2-47">
</polygon>
<polygon points="89 584 77 541 62 551 45 658 34 712 25 741 25 762 10 817 0 845 14 870 25 901 58 919 72 919 69 913 61 905 50 899 37 874 37 852 43 845 52 855 50 887 56 901 64 905 66 901 66 882 72 836 72 800 69 781 64 773 66 735 85 684 121 599 162 510" fill="url(#id-female-6.6_base_2-7)" id="id-female-6.6_base_2-47">
</polygon>
<polygon points="89 584 77 541 62 551 45 658 48 715 121 599 162 510" fill="#7a432a" id="id-female-6.6_base_2-47">
</polygon>
<polygon points="55 843 45 827 37 848 17 852 8 836 5 851 0 845 14 870 25 901 58 919 72 919 69 913 61 905 50 899 37 874 37 852 43 845 52 855 50 887 56 901 64 905 66 901 66 882 72 836" fill="#743e32" id="id-female-6.6_base_2-47">
</polygon>
<polygon points="53 882 52 892 56 901 64 905 66 901 66 882 67 876" fill="#6b362f" id="id-female-6.6_base_2-47">
</polygon>
<polygon points="25 901 58 919 72 919 62 909 37 895" fill="#6b362f" id="id-female-6.6_base_2-47">
</polygon>
<polygon points="160 467 145 488 108 578 45 777 48 797 64 773 66 735 85 684 121 599 162 510" fill="#643317" id="id-female-6.6_base_2-47">
</polygon>
<polygon points="169 1211 277 1211 282 1183 281 1150 284 1127 286 1114 285 1063 293 972 306 866 311 792 309 768 323 771 337 768 333 817 333 855 339 924 346 1008 348 1113 351 1130 353 1176 361 1211 461 1211 458 1191 456 1170 460 1133 461 1082 505 905 516 839 518 826 512 762 503 706 486 648 482 629 386 690 318 718 266 690 184 629 153 637 132 731 119 781 118 813 123 862 131 916 166 1094 176 1179" fill="url(#id-female-6.6_base_2-8)" id="id-female-6.6_base_2-47">
</polygon>
<polygon points="463 664 416 771 400 819 392 1125 359 1178 398 1204 441 1153 461 1082 505 905 516 839 518 826 515 789 490 714" fill="url(#id-female-6.6_base_2-9)" id="id-female-6.6_base_2-47">
</polygon>
<polygon points="422 1160 395 1199 365 1171 401 1149 384 1120 391 983 411 786 416 771 448 697 454 1013 445 1116 407 1149" fill="url(#id-female-6.6_base_2-10)" id="id-female-6.6_base_2-80">
</polygon>
<polygon points="121 139 111 186 108 221 109 290 96 438 89 464 69 510 89 585 162 510 167 425 162 241" fill="url(#id-female-6.6_base_2-11)" id="id-female-6.6_base_2-47">
</polygon>
<polygon points="101 466 103 488 106 510 160 447 179 359 164 232 187 184 186 179 132 181 161 234 161 321 149 376 151 384 123 461 114 466" fill="url(#id-female-6.6_base_2-12)" id="id-female-6.6_base_2-82">
</polygon>
<polygon points="96 438 89 464 69 510 51 621 101 520 96 476" fill="#82566b" id="id-female-6.6_base_2-47">
</polygon>
<polygon points="96 451 128 365 134 316 121 139 111 186 108 221 109 290 96 438" fill="#643317" id="id-female-6.6_base_2-47">
</polygon>
<polygon points="184 241 177 248 162 225 138 289 161 321 170 375 161 420 151 411 162 510 167 425 188 343" fill="url(#id-female-6.6_base_2-13)" id="id-female-6.6_base_2-47">
</polygon>
<polygon points="284 1127 286 1114 285 1063 293 972 306 866 311 792 309 768 323 771 337 768 333 817 333 855 339 924 346 1008 375 889 416 771 463 664 490 714 515 790 512 762 503 706 486 648 477 599 471 583 420 650 316 720 201 654 244 742 264 824 275 994" fill="url(#id-female-6.6_base_2-14)" id="id-female-6.6_base_2-47">
</polygon>
<polygon points="298 930 306 866 311 792 309 768 323 771 337 768 333 817 333 855 336 894 347 826 360 784 378 733 388 687 321 739 254 687 267 736 291 821" fill="url(#id-female-6.6_base_2-15)" id="id-female-6.6_base_2-47">
</polygon>
<polygon points="348 1093 348 1113 351 1130 353 1176 361 1211 461 1211 439 1155 422 1136 403 1148 429 1168 400 1202 370 1170 382 1125" fill="url(#id-female-6.6_base_2-16)" id="id-female-6.6_base_2-47">
</polygon>
<polygon points="10 855 8 836 5 851 0 845 14 870" fill="#6d342e" id="id-female-6.6_base_2-47">
</polygon>
<polygon points="520 500 516 520 544 629 474 500 490 399" fill="url(#id-female-6.6_base_2-17)" id="id-female-6.6_base_2-90">
</polygon>
<polygon points="461 1211 458 1191 456 1170 460 1133 461 1082 439 1155 450 1211" fill="url(#id-female-6.6_base_2-18)" id="id-female-6.6_base_2-47">
</polygon>
<polygon points="220 1149 259 1115 240 1063 232 973 266 819 240 713 201 661 158 650 201 784 183 925 170 1083" fill="url(#id-female-6.6_base_2-19)" id="id-female-6.6_base_2-92">
</polygon>
<polygon points="169 1211 277 1211 282 1183 281 1150 284 1127 286 1114 286 1098 226 1211 207 1211 196 1121 173 1078 150 1014 166 1094 176 1179" fill="url(#id-female-6.6_base_2-20)" id="id-female-6.6_base_2-47">
</polygon>
<polygon points="173 1078 183 924 150 1014" fill="#6b352c" id="id-female-6.6_base_2-47">
</polygon>
<polygon points="169 1211 239 1211 230 1196 204 1175 173 1150 176 1179" fill="#521e24" opacity="0.574" id="id-female-6.6_base_2-47">
</polygon>
<polygon points="221 1130 240 1097 224 1063 224 983 240 804 217 698 190 668 212 771 212 910 190 998 181 1094" fill="url(#id-female-6.6_base_2-21)" id="id-female-6.6_base_2-92">
</polygon>
<polygon points="217 795 221 692 200 667 169 658 200 737" fill="#9c5f46" id="id-female-6.6_base_2-97">
</polygon>
<polygon points="511 476 492 419 481 447 484 356 521 274 533 417" fill="url(#id-female-6.6_base_2-22)" id="id-female-6.6_base_2-98">
</polygon>
<polygon points="569 523 544 425 542 346 537 282 539 246 535 195 529 158 522 137 494 161 419 158 471 211 516 290 525 411 511 477 518 507 535 462 562 543" fill="url(#id-female-6.6_base_2-23)" id="id-female-6.6_base_2-47">
</polygon>
<polygon points="486 389 533 243 501 167 464 207 451 247 463 265" fill="url(#id-female-6.6_base_2-24)" id="id-female-6.6_base_2-100">
</polygon>
<polygon points="473 490 474 506 503 589 537 672 556 728 561 754 567 712 543 623" fill="#582a0f" id="id-female-6.6_base_2-47">
</polygon>
<polygon points="460 328 466 378 474 506 490 425 486 392 469 274 479 230 461 260 454 251" fill="url(#id-female-6.6_base_2-25)" id="id-female-6.6_base_2-47">
</polygon>
<polygon points="440 504 437 490 439 460 449 402 456 340 458 328 325 282 188 343 198 411 202 493 162 596 157 621 161 633 169 599 173 570 204 506 202 458 217 402 286 365 321 352 353 360 422 402 431 493 437 520" fill="url(#id-female-6.6_base_2-26)" id="id-female-6.6_base_2-47">
</polygon>
<polygon points="451 385 456 340 458 328 364 340 330 308 268 343 188 343 194 379 262 368 312 343 335 340 381 368" fill="url(#id-female-6.6_base_2-27)" id="id-female-6.6_base_2-47">
</polygon>
<polygon points="286 328 306 310 330 274 453 252 464 205 421 156 317 204 219 165 210 154 188 180" fill="url(#id-female-6.6_base_2-28)" id="id-female-6.6_base_2-105">
</polygon>
<path d="M 422 195 L 405 190 C 377 190 357 198 343 214 C 329 230 322 250 323 276 C 324 301 331 320 345 333 C 365 351 384 356 405 356 C 425 356 444 347 450 342 C 454 339 457 335 460 328 C 463 323 466 317 467 308 C 469 294 466 276 457 254 L 422 195 Z" fill="url(#id-female-6.6_base_2-29)" id="id-female-6.6_base_2-106">
</path>
<path d="M 422 195 L 417 175 C 386 188 366 196 358 201 C 355 203 351 206 348 208 C 348 209 381 253 448 342 C 454 338 459 332 463 324 C 469 310 469 301 469 293 C 469 287 465 275 459 257 L 422 195 Z" fill="url(#id-female-6.6_base_2-30)" id="id-female-6.6_base_2-106">
</path>
<path d="M 375 226 C 338 253 343 276 343 284 C 343 291 353 319 371 335 C 379 342 422 349 447 331 C 468 316 472 294 458 265 C 427 221 400 208 375 226 Z" fill="url(#id-female-6.6_base_2-31)" opacity="0.282" id="id-female-6.6_base_2-106">
</path>
<path d="M 272 205 C 260 199 243 200 221 209 C 187 227 169 258 168 303 C 167 319 184 342 190 346 C 197 351 212 356 239 353 C 257 351 272 344 284 333 C 303 312 312 288 309 260 C 305 217 291 214 272 205 Z" fill="url(#id-female-6.6_base_2-32)" id="id-female-6.6_base_2-109">
</path>
<path d="M 340 285 C 333 252 328 240 326 248 C 324 254 323 263 323 276 C 324 301 331 320 345 333 C 365 351 382 356 404 356 C 425 356 444 347 450 342 C 456 337 465 325 468 308 C 472 290 465 276 463 268 C 461 263 460 259 458 255 L 442 290 L 399 304 L 366 300 L 340 285 Z" fill="url(#id-female-6.6_base_2-33)" id="id-female-6.6_base_2-106">
</path>
<path d="M 153 637 L 149 654 L 132 731 L 130 739 C 133 730 135 723 137 718 C 140 709 147 691 149 680 C 151 671 155 655 161 633 L 172 570 L 162 596 L 153 637 Z" fill="#7d362e" id="id-female-6.6_base_2-47">
</path>
<path d="M 259 203 C 254 199 240 185 217 163 L 210 153 L 186 180 C 192 211 192 231 186 239 C 175 256 168 277 168 303 C 168 324 190 352 239 344 C 252 342 274 217 259 203 Z" fill="#a36150" id="id-female-6.6_base_2-109">
</path>
<polygon points="175 565 203 550 234 558 241 520 203 455 203 507" fill="#5e2d13" id="id-female-6.6_base_2-113">
</polygon>
<polygon points="241 442 241 518 229 556 233 629 266 657 316 707 381 659 395 629 364 504 350 504 301 380" fill="url(#id-female-6.6_base_2-34)" id="id-female-6.6_base_2-114">
</polygon>
<polygon points="432 626 427 589 407 518 414 505 450 568 470 618" fill="url(#id-female-6.6_base_2-35)" id="id-female-6.6_base_2-115">
</polygon>
<polygon points="302 376 254 442 254 546 302 590 364 568 364 504 350 504 376 454 345 400" fill="url(#id-female-6.6_base_2-36)" opacity="0.599" id="id-female-6.6_base_2-114">
</polygon>
<polygon points="317 480 342 436 319 413 300 447" fill="#874a31" id="id-female-6.6_base_2-117">
</polygon>
<polygon points="304 541 318 507 329 541 314 549" fill="#774029" id="id-female-6.6_base_2-118">
</polygon>
<polygon points="306 543 316 578 329 541" fill="#935f42" id="id-female-6.6_base_2-119">
</polygon>
<path d="M 178 333 C 179 334 180 336 182 338 C 184 342 186 343 189 346 C 190 347 197 351 206 353 C 215 354 226 355 239 353 C 257 351 272 344 284 333 C 293 322 299 313 302 305 C 304 301 307 293 309 277 C 310 274 310 268 309 260 L 228 277 L 207 295 L 178 333 Z" fill="url(#id-female-6.6_base_2-37)" id="id-female-6.6_base_2-109">
</path>
<polygon points="306 543 308 550 324 556 329 541" fill="#9e7261" id="id-female-6.6_base_2-119">
</polygon>
<polygon points="308 543 318 525 323 542 314 548" fill="#3c1e03" id="id-female-6.6_base_2-122">
</polygon>
<polygon points="152 641 162 596 176 561 185 617 214 602 246 628 323 690 404 628 423 605 454 605 470 577 477 599 482 629 388 689 337 768 323 771 309 768 259 688 175 639 142 688" fill="url(#id-female-6.6_base_2-38)" opacity="0.442" id="id-female-6.6_base_2-123">
</polygon>
<polygon points="490 154 522 137 484 118 412 123" fill="url(#id-female-6.6_base_2-39)" id="id-female-6.6_base_2-47">
</polygon>
<polygon points="573 785 588 829 602 858 607 852 600 821 597 716 576 763" fill="#8e4d48" id="id-female-6.6_base_2-47">
</polygon>
<polygon points="574 722 589 695 582 655 533 542" fill="url(#id-female-6.6_base_2-40)" id="id-female-6.6_base_2-47">
</polygon>
<polygon points="172 640 241 690 309 768 323 771 338 768 395 706 469 661 404 650 313 706 217 629" fill="url(#id-female-6.6_base_2-41)" opacity="0.571" id="id-female-6.6_base_2-127">
</polygon>
<g transform="translate(188,270)" id="id-female-6.6_base_2-128">
<polygon points="207 13 207 10 217 2 220 2 239 21 258 39 260 42 250 51 246 52 226 33" fill="url(#id-female-6.6_base_2-42)" id="id-female-6.6_base_2-129">
</polygon>
<polygon points="208 40 218 50 222 50 240 33 257 13 257 9 247 0 244 1 230 19 209 36" fill="url(#id-female-6.6_base_2-43)" id="id-female-6.6_base_2-130">
</polygon>
<polygon points="1 13 1 10 10 2 15 2 32 21 50 39 52 42 42 52 38 52 19 33" fill="url(#id-female-6.6_base_2-44)" id="id-female-6.6_base_2-129">
</polygon>
<polygon points="0 43 10 53 14 53 33 35 50 15 50 11 40 3 36 4 19 23 1 39" fill="url(#id-female-6.6_base_2-45)" id="id-female-6.6_base_2-130">
</polygon>
</g>
</g>
<defs>
<linearGradient x1="50%" y1="0%" x2="50%" y2="85%" id="id-female-6.8_face_2-0">
<stop stop-color="#874639" offset="0%">
</stop>
<stop stop-color="#4d2322" offset="100%">
</stop>
</linearGradient>
<radialGradient cx="50%" cy="55%" r="91%" id="id-female-6.8_face_2-1" fx="50%" fy="55%" gradientTransform="translate(0.5,0.55) scale(1,0.697) rotate(-90) scale(1,0.712) translate(-0.5,-0.55)">
<stop stop-color="#a3513a" offset="0%">
</stop>
<stop stop-color="#c87359" offset="39%">
</stop>
<stop stop-color="#291013" offset="100%">
</stop>
</radialGradient>
<linearGradient x1="11%" y1="60%" x2="57%" y2="52%" id="id-female-6.8_face_2-2">
<stop stop-color="#944831" offset="0%">
</stop>
<stop stop-color="#b46750" offset="48%">
</stop>
<stop stop-color="#d27d60" offset="100%">
</stop>
</linearGradient>
<linearGradient x1="46%" y1="46%" x2="22%" y2="61%" id="id-female-6.8_face_2-3">
<stop stop-color="#a0543d" offset="0%">
</stop>
<stop stop-color="#642d27" offset="100%">
</stop>
</linearGradient>
<linearGradient x1="48%" y1="50%" x2="57%" y2="65%" id="id-female-6.8_face_2-4">
<stop stop-color="#a55643" offset="0%">
</stop>
<stop stop-color="#66342f" offset="100%">
</stop>
</linearGradient>
<linearGradient x1="100%" y1="38%" x2="17%" y2="50%" id="id-female-6.8_face_2-5">
<stop stop-color="#cb7b65" offset="0%">
</stop>
<stop stop-color="#ae6452" offset="100%">
</stop>
</linearGradient>
<linearGradient x1="47%" y1="27%" x2="48%" y2="50%" id="id-female-6.8_face_2-6">
<stop stop-color="#532d32" offset="0%">
</stop>
<stop stop-color="#794968" offset="100%">
</stop>
</linearGradient>
<radialGradient cx="47%" cy="70%" r="97%" id="id-female-6.8_face_2-7" fx="47%" fy="70%" gradientTransform="translate(0.467,0.7) scale(0.592,1) rotate(-93) translate(-0.467,-0.7)">
<stop stop-color="#d17f6c" offset="0%">
</stop>
<stop stop-color="#622923" offset="100%">
</stop>
</radialGradient>
<linearGradient x1="42%" y1="43%" x2="61%" y2="33%" id="id-female-6.8_face_2-8">
<stop stop-color="#783a36" offset="0%">
</stop>
<stop stop-color="#632f2b" offset="100%">
</stop>
</linearGradient>
<radialGradient cx="45%" cy="79%" r="81%" id="id-female-6.8_face_2-9" fx="45%" fy="79%" gradientTransform="translate(0.447,0.79) scale(0.833,1) rotate(-90) scale(1,1) translate(-0.447,-0.79)">
<stop stop-color="#f2a292" offset="0%">
</stop>
<stop stop-color="#93483d" offset="100%">
</stop>
</radialGradient>
<linearGradient x1="58%" y1="0%" x2="20%" y2="89%" id="id-female-6.8_face_2-10">
<stop stop-color="#d48072" offset="0%" stop-opacity="0">
</stop>
<stop stop-color="#e49281" offset="46%">
</stop>
<stop stop-color="#f2a38f" offset="100%" stop-opacity="0.432">
</stop>
</linearGradient>
<linearGradient x1="52%" y1="22%" x2="50%" y2="16%" id="id-female-6.8_face_2-11">
<stop stop-color="#a06daa" offset="0%">
</stop>
<stop stop-color="#a471b2" offset="100%" stop-opacity="0.398">
</stop>
</linearGradient>
<radialGradient cx="45%" cy="76%" r="54%" id="id-female-6.8_face_2-12" fx="45%" fy="76%" gradientTransform="translate(0.455,0.761) scale(0.673,1) scale(1,0.612) translate(-0.455,-0.761)">
<stop stop-color="#bc6d5a" offset="0%">
</stop>
<stop stop-color="#974c3a" offset="100%">
</stop>
</radialGradient>
<linearGradient x1="50%" y1="0%" x2="50%" y2="73%" id="id-female-6.8_face_2-13">
<stop stop-color="#d88873" offset="0%">
</stop>
<stop stop-color="#b4624d" offset="100%">
</stop>
</linearGradient>
<linearGradient x1="25%" y1="52%" x2="67%" y2="55%" id="id-female-6.8_face_2-14">
<stop stop-color="#d37b62" offset="0%">
</stop>
<stop stop-color="#843c39" offset="100%">
</stop>
</linearGradient>
<linearGradient x1="71%" y1="52%" x2="18%" y2="50%" id="id-female-6.8_face_2-15">
<stop stop-color="#994d39" offset="0%">
</stop>
<stop stop-color="#5e2c26" offset="100%">
</stop>
</linearGradient>
<linearGradient x1="94%" y1="63%" x2="50%" y2="63%" id="id-female-6.8_face_2-16">
<stop stop-color="#6f3d40" offset="0%">
</stop>
<stop stop-color="#ad594c" offset="100%">
</stop>
</linearGradient>
<linearGradient x1="50%" y1="0%" x2="50%" y2="84%" id="id-female-6.8_face_2-17">
<stop stop-color="#0b071e" offset="0%">
</stop>
<stop stop-color="#3c2f7b" offset="100%">
</stop>
</linearGradient>
<linearGradient x1="75%" y1="46%" x2="36%" y2="49%" id="id-female-6.8_face_2-18">
<stop stop-color="#772f2b" offset="0%">
</stop>
<stop stop-color="#b35849" offset="46%">
</stop>
<stop stop-color="#693027" offset="100%">
</stop>
</linearGradient>
<linearGradient x1="50%" y1="0%" x2="50%" y2="84%" id="id-female-6.8_face_2-19">
<stop stop-color="#0b071e" offset="0%">
</stop>
<stop stop-color="#3c2f7b" offset="100%">
</stop>
</linearGradient>
<linearGradient x1="28%" y1="50%" x2="72%" y2="55%" id="id-female-6.8_face_2-20">
<stop stop-color="#4c1a19" offset="0%">
</stop>
<stop stop-color="#692928" offset="100%">
</stop>
</linearGradient>
<radialGradient cx="50%" cy="28%" r="98%" id="id-female-6.8_face_2-21" fx="50%" fy="28%" gradientTransform="translate(0.5,0.278) scale(0.259,1) rotate(90) scale(1,1) translate(-0.5,-0.278)">
<stop stop-color="#df6c71" offset="0%">
</stop>
<stop stop-color="#9f504c" offset="100%">
</stop>
</radialGradient>
<linearGradient x1="13%" y1="50%" x2="90%" y2="50%" id="id-female-6.8_face_2-22">
<stop stop-color="#682929" offset="0%">
</stop>
<stop stop-color="#b85454" offset="54%">
</stop>
<stop stop-color="#833a38" offset="100%">
</stop>
</linearGradient>
<radialGradient cx="48%" cy="82%" r="121%" id="id-female-6.8_face_2-23" fx="48%" fy="82%" gradientTransform="translate(0.483,0.816) scale(0.316,1) rotate(-95) translate(-0.483,-0.816)">
<stop stop-color="#ba354f" offset="0%">
</stop>
<stop stop-color="#592020" offset="100%">
</stop>
</radialGradient>
<linearGradient x1="32%" y1="49%" x2="112%" y2="53%" id="id-female-6.8_face_2-24">
<stop stop-color="#f6b8cb" offset="0%">
</stop>
<stop stop-color="#78272f" offset="100%">
</stop>
</linearGradient>
<linearGradient x1="50%" y1="0%" x2="50%" y2="100%" id="id-female-6.8_face_2-25">
<stop stop-color="#693c4e" offset="0%">
</stop>
<stop stop-color="#7a5771" offset="100%">
</stop>
</linearGradient>
<linearGradient x1="50%" y1="0%" x2="50%" y2="100%" id="id-female-6.8_face_2-26">
<stop stop-color="#693c4e" offset="0%">
</stop>
<stop stop-color="#7a5771" offset="100%">
</stop>
</linearGradient>
<linearGradient x1="-8%" y1="57%" x2="25%" y2="53%" id="id-female-6.8_face_2-27">
<stop stop-color="#c06e59" offset="0%">
</stop>
<stop stop-color="#4c2426" offset="100%">
</stop>
</linearGradient>
<linearGradient x1="106%" y1="53%" x2="76%" y2="50%" id="id-female-6.8_face_2-28">
<stop stop-color="#c06f5a" offset="0%">
</stop>
<stop stop-color="#401f21" offset="100%">
</stop>
</linearGradient>
<linearGradient x1="81%" y1="45%" x2="17%" y2="63%" id="id-female-6.8_face_2-29">
<stop stop-color="#c86c4d" offset="0%">
</stop>
<stop stop-color="#90452f" offset="100%">
</stop>
</linearGradient>
<linearGradient x1="50%" y1="14%" x2="50%" y2="87%" id="id-female-6.8_face_2-30">
<stop stop-color="#d37e62" offset="0%">
</stop>
<stop stop-color="#be6540" offset="100%">
</stop>
</linearGradient>
<linearGradient x1="50%" y1="29%" x2="50%" y2="100%" id="id-female-6.8_face_2-31">
<stop stop-color="#a4543f" offset="0%">
</stop>
<stop stop-color="#602b28" offset="100%">
</stop>
</linearGradient>
</defs>
<g transform="translate(561,332)" id="id-female-6.8_face_2-32">
<g transform="translate(172,115)" id="id-female-6.8_face_2-33">
<polygon points="14 1 18 0 25 8 27 21 24 41 14 66 0 68" fill="url(#id-female-6.8_face_2-0)" id="id-female-6.8_face_2-34">
</polygon>
<polygon points="12 48 19 50 23 42 26 24 20 12 12 22" fill="#7d3f38" id="id-female-6.8_face_2-35">
</polygon>
<polygon points="11 21 17 10 20 5 24 7 26 24 20 36 18 31 20 16 9 29" fill="#632a21" id="id-female-6.8_face_2-36">
</polygon>
<polygon points="10 28 11 38 8 45 13 49 19 38 13 24" fill="#381717" id="id-female-6.8_face_2-37">
</polygon>
<polygon points="12 18 17 17 18 9" fill="#381717" id="id-female-6.8_face_2-38">
</polygon>
<polygon points="17 51 9 52 7 51 4 62 11 64 13 62" fill="#7c4337" id="id-female-6.8_face_2-39">
</polygon>
</g>
<g transform="translate(0,113)" id="id-female-6.8_face_2-40">
<polygon points="13 0 5 0 0 13 4 36 13 63 25 67" fill="#9b4d38" id="id-female-6.8_face_2-41">
</polygon>
<polygon points="5 9 0 13 4 36 13 63 25 67 13 24" fill="#7d3f38" id="id-female-6.8_face_2-41">
</polygon>
<polygon points="18 46 14 47 7 32 11 26 4 9 6 5 16 20 17 29" fill="#632a21" id="id-female-6.8_face_2-43">
</polygon>
<polygon points="13 62 20 62 18 49 11 53" fill="#a0533d" id="id-female-6.8_face_2-44">
</polygon>
<polygon points="25 68 13 63 20 62 17 46 14 47 13 44 14 29 17 26 14 22 10 19 10 11 17 20" fill="#381717" id="id-female-6.8_face_2-45">
</polygon>
<polygon points="13 9 4 3 5 0 12 0" fill="#c26e60" id="id-female-6.8_face_2-46">
</polygon>
</g>
<path d="M 29 199 C 21 165 17 151 15 130 C 4 44 33 0 103 0 C 180 0 191 63 186 119 C 183 157 173 191 170 202 C 169 206 167 213 164 217 C 155 229 135 242 119 249 C 112 251 89 251 79 249 C 65 240 47 234 36 218 C 33 213 32 209 29 199 Z" fill="url(#id-female-6.8_face_2-1)" id="id-female-6.8_face_2-47">
</path>
<polygon points="122 166 151 182 171 155 113 120 77 124 20 148 51 190 66 182 86 155" fill="url(#id-female-6.8_face_2-2)" id="id-female-6.8_face_2-48">
</polygon>
<polygon points="115 140 139 167 156 148 121 130 119 140" fill="#e49484" id="id-female-6.8_face_2-49">
</polygon>
<polygon points="169 156 153 147 164 132 174 151" fill="#d66650" id="id-female-6.8_face_2-50">
</polygon>
<path d="M 29 199 C 24 176 20 162 18 149 C 18 148 33 157 51 182 C 54 187 57 195 59 208 C 110 231 130 244 119 249 C 112 251 89 251 79 249 C 65 240 47 234 36 218 C 33 213 32 209 29 199 Z" fill="url(#id-female-6.8_face_2-3)" id="id-female-6.8_face_2-47">
</path>
<path d="M 119 249 C 112 251 89 251 79 249 C 77 247 74 245 70 242 L 80 234 L 131 223 C 125 240 121 248 119 249 Z" fill="#79382d" id="id-female-6.8_face_2-47">
</path>
<path d="M 135 207 L 136 195 L 171 151 L 164 131 L 171 125 C 178 143 181 152 181 154 C 177 177 172 195 170 202 C 169 206 167 213 164 217 C 155 229 135 242 119 249 L 135 207 Z" fill="url(#id-female-6.8_face_2-4)" id="id-female-6.8_face_2-47">
</path>
<polygon points="179 117 171 125 177 143" fill="#90596c" id="id-female-6.8_face_2-47">
</polygon>
<polygon points="89 188 91 178 110 176 113 191 99 195" fill="url(#id-female-6.8_face_2-5)" id="id-female-6.8_face_2-55">
</polygon>
<polygon points="87 187 87 181 78 175 104 155 123 177 113 180 106 181 101 185 95 182 91 181 89 187" fill="#56281b" opacity="0.297" id="id-female-6.8_face_2-56">
</polygon>
<path d="M 119 249 C 112 251 89 251 79 249 C 65 240 47 234 36 218 L 79 247 L 119 249 Z" fill="#814c5e" id="id-female-6.8_face_2-47">
</path>
<polygon points="23 119 31 133 45 121 34 111" fill="#562722" id="id-female-6.8_face_2-58">
</polygon>
<polygon points="23 119 23 141 31 133" fill="#663632" id="id-female-6.8_face_2-58">
</polygon>
<path d="M 18 149 C 17 143 15 136 15 130 C 14 120 13 111 13 103 L 21 70 L 32 111 L 23 119 L 23 145 L 35 163 L 18 149 Z" fill="url(#id-female-6.8_face_2-6)" id="id-female-6.8_face_2-47">
</path>
<path d="M 30 111 L 24 83 C 36 49 59 30 92 24 C 126 19 155 33 180 67 L 186 98 L 183 119 L 99 103 L 30 111 Z" fill="url(#id-female-6.8_face_2-7)" id="id-female-6.8_face_2-61">
</path>
<path d="M 180 58 L 186 98 L 183 119 L 171 104 L 164 65 L 154 82 C 147 53 146 38 149 36 C 160 43 170 50 180 58 Z" fill="url(#id-female-6.8_face_2-8)" id="id-female-6.8_face_2-61">
</path>
<polygon points="56 102 62 49 99 32 135 45 149 102 99 109" fill="url(#id-female-6.8_face_2-9)" id="id-female-6.8_face_2-63">
</polygon>
<polygon points="92 39 75 62 99 99 122 62 103 39" fill="url(#id-female-6.8_face_2-10)" id="id-female-6.8_face_2-64">
</polygon>
<path d="M 149 226 L 167 206 L 178 150 L 174 144 L 178 121 L 167 106 L 174 75 L 184 97 L 181 113 L 184 132 C 180 165 172 193 170 202 C 169 206 167 213 164 217 L 149 226 Z" fill="url(#id-female-6.8_face_2-11)" id="id-female-6.8_face_2-47">
</path>
<polygon points="135 207 121 244 84 244 79 234 86 230" fill="url(#id-female-6.8_face_2-12)" id="id-female-6.8_face_2-47">
</polygon>
<polygon points="70 104 102 91 136 107 109 132 81 126" fill="url(#id-female-6.8_face_2-13)" id="id-female-6.8_face_2-67">
</polygon>
<polygon points="39 152 62 170 82 141 75 134" fill="#bf7666" id="id-female-6.8_face_2-68">
</polygon>
<polygon points="76 140 55 151 39 153 25 147 23 146 23 140 26 129 29 127" fill="#8b422f" id="id-female-6.8_face_2-69">
</polygon>
<polygon points="120 140 133 149 153 147 164 132" fill="url(#id-female-6.8_face_2-14)" id="id-female-6.8_face_2-70">
</polygon>
<polygon points="39 135 33 139 43 147 59 148 76 140" fill="url(#id-female-6.8_face_2-15)" id="id-female-6.8_face_2-71">
</polygon>
<polygon points="117 135 127 129 169 128 177 120 169 111 146 101 112 121 115 128" fill="url(#id-female-6.8_face_2-16)" id="id-female-6.8_face_2-72">
</polygon>
<polygon points="124 126 118 119 146 104 167 113 158 123" fill="#914840" id="id-female-6.8_face_2-73">
</polygon>
<polygon points="131 124 144 107 161 107 147 121" fill="#be6d65" id="id-female-6.8_face_2-74">
</polygon>
<path d="M 120 136 L 120 132 C 127 124 134 119 142 118 C 149 118 157 121 165 128 L 120 136 Z" fill="#a04740" id="id-female-6.8_face_2-75">
</path>
<path d="M 130 129 C 130 123 134 120 142 119 C 149 119 154 121 157 128 L 130 129 Z" fill="#c76355" id="id-female-6.8_face_2-75">
</path>
<polygon points="138 126 142 119 144 119 148 126" fill="#feb99c" id="id-female-6.8_face_2-77">
</polygon>
<polygon points="125 138 148 138 158 132 148 126 137 127 124 134" fill="#f4eaff" id="id-female-6.8_face_2-78">
</polygon>
<polygon points="127 137 124 134 120 137" fill="#d8706a" id="id-female-6.8_face_2-79">
</polygon>
<path d="M 132 131 C 132 134 133 136 134 137 C 137 139 142 139 146 137 C 148 136 149 133 149 128 C 145 127 142 127 140 127 C 138 128 135 129 132 131 Z" fill="#2a0610" id="id-female-6.8_face_2-80">
</path>
<path d="M 134 132 C 134 134 135 135 136 136 C 138 137 140 137 144 136 C 146 135 147 133 147 130 C 146 130 145 130 145 130 C 143 129 144 134 140 134 C 135 134 138 130 137 130 C 136 131 135 131 134 132 Z" fill="url(#id-female-6.8_face_2-17)" id="id-female-6.8_face_2-80">
</path>
<polygon points="74 135 82 129 69 114 44 105 34 110 52 129" fill="#8e4539" id="id-female-6.8_face_2-82">
</polygon>
<polygon points="51 121 48 109 62 113 68 119 68 125" fill="#a85e55" id="id-female-6.8_face_2-83">
</polygon>
<path d="M 32 127 C 39 121 46 118 55 120 C 64 121 71 126 76 135 L 32 127 Z" fill="url(#id-female-6.8_face_2-18)" id="id-female-6.8_face_2-84">
</path>
<path d="M 32 127 C 37 122 42 120 48 119 C 44 121 41 124 39 128 L 32 127 Z" fill="#824642" id="id-female-6.8_face_2-84">
</path>
<polygon points="47 128 54 120 61 129" fill="#f68a70" id="id-female-6.8_face_2-86">
</polygon>
<polygon points="49 137 76 137 73 133 62 128 42 128 38 131" fill="#ded5ff" id="id-female-6.8_face_2-87">
</polygon>
<polygon points="72 133 73 135 72 137 77 137 75 135" fill="#8e3d3c" id="id-female-6.8_face_2-88">
</polygon>
<path d="M 49 129 C 51 136 54 139 60 138 C 65 137 68 135 68 130 L 58 128 L 49 129 Z" fill="#24060d" id="id-female-6.8_face_2-89">
</path>
<path d="M 51 131 C 53 136 56 138 60 137 C 64 136 66 134 66 131 L 62 130 C 62 132 61 134 58 134 C 56 134 55 132 55 130 L 51 131 Z" fill="url(#id-female-6.8_face_2-19)" id="id-female-6.8_face_2-89">
</path>
<polygon points="50 139 65 138 78 138 77 137 65 137 49 137" fill="#3e1b19" id="id-female-6.8_face_2-91">
</polygon>
<polygon points="141 131 153 135 158 131 148 126 135 128 126 133" fill="#000000" opacity="0.4" id="id-female-6.8_face_2-92">
</polygon>
<polygon points="45 134 51 132 68 132 73 134 68 129 48 128 40 132" fill="#000000" opacity="0.4" id="id-female-6.8_face_2-93">
</polygon>
<polygon points="77 137 76 137 75 135 67 130 49 129 43 132 49 138 53 139 48 139 41 135 38 135 28 126 41 126 56 125 67 128" fill="#2a0710" id="id-female-6.8_face_2-94">
</polygon>
<path d="M 121 136 C 129 132 135 130 139 128 C 143 127 149 128 155 132 C 154 134 151 136 147 139 C 150 139 154 137 160 133 L 162 133 L 171 126 C 166 126 162 126 160 126 C 153 125 147 123 143 124 C 136 125 128 129 121 136 Z" fill="#340713" id="id-female-6.8_face_2-95">
</path>
<polygon points="135 133 138 133 138 130 136 130 136 132 135 132" fill="#f8e2f8" id="id-female-6.8_face_2-96">
</polygon>
<polygon points="53 131 53 133 55 133 55 132 57 132 56 130" fill="#c7abcd" id="id-female-6.8_face_2-97">
</polygon>
<g transform="translate(59,186)" id="id-female-6.8_face_2-98">
<polygon points="6 20 0 22 19 31" fill="#a4645e" id="id-female-6.8_face_2-99">
</polygon>
<polygon points="10 24 27 44 57 44 71 25" fill="url(#id-female-6.8_face_2-20)" id="id-female-6.8_face_2-100">
</polygon>
<polygon points="7 22 41 28 73 23 76 20 69 17 11 16 5 20" fill="#2a0710" id="id-female-6.8_face_2-101">
</polygon>
<path d="M 7 22 C 19 32 30 38 41 38 C 52 38 63 33 73 23 L 56 22 C 49 22 43 22 39 22 C 35 22 30 21 22 21 L 7 22 Z" fill="url(#id-female-6.8_face_2-21)" id="id-female-6.8_face_2-101">
</path>
<path d="M 7 22 C 19 32 30 38 41 38 C 52 38 63 33 73 23 L 66 23 C 58 31 49 35 41 35 C 33 35 25 30 15 21 L 7 22 Z" fill="url(#id-female-6.8_face_2-22)" opacity="0.651" id="id-female-6.8_face_2-101">
</path>
<path d="M 7 22 C 8 23 9 24 10 25 C 10 22 20 22 39 22 C 59 22 69 24 71 25 C 71 25 72 24 73 23 L 56 22 C 49 22 43 22 39 22 C 35 22 30 21 22 21 L 7 22 Z" fill="#632928" id="id-female-6.8_face_2-101">
</path>
<path d="M 15 21 L 23 20 C 30 19 37 18 41 19 C 46 19 51 20 58 21 L 75 21 C 68 12 60 6 53 2 C 50 2 46 3 41 5 C 36 3 32 1 29 0 C 22 5 15 11 8 18 L 15 21 Z" fill="url(#id-female-6.8_face_2-23)" id="id-female-6.8_face_2-105">
</path>
<path d="M 21 9 C 25 6 28 5 31 5 C 33 5 37 7 43 11 L 53 9 L 60 9 C 63 10 60 8 53 4 C 50 4 47 5 42 7 C 37 4 32 3 29 2 C 22 6 19 9 19 9 L 21 9 Z" fill="url(#id-female-6.8_face_2-24)" opacity="0.485" id="id-female-6.8_face_2-105">
</path>
<path d="M 20 24 L 33 30 C 30 28 31 27 34 27 C 37 27 44 28 54 28 L 59 30 L 58 26 L 61 23 L 56 26 L 30 26 L 20 24 Z" fill="#ee88aa" id="id-female-6.8_face_2-107">
</path>
<path d="M 31 20 C 31 20 31 21 31 21 C 31 21 34 21 40 21 C 40 20 40 20 40 19 C 38 19 35 19 31 20 Z" fill="url(#id-female-6.8_face_2-25)" id="id-female-6.8_face_2-108">
</path>
<path d="M 42 20 C 42 20 42 21 42 21 C 46 22 49 22 51 21 L 51 20 C 46 19 43 19 42 20 Z" fill="url(#id-female-6.8_face_2-26)" id="id-female-6.8_face_2-109">
</path>
</g>
<g transform="translate(22,95)" id="id-female-6.8_face_2-110">
<path d="M 97 23 L 132 12 L 146 18 L 145 11 C 137 4 132 1 129 1 C 120 1 109 4 96 9 C 95 9 95 14 97 23 Z" fill="url(#id-female-6.8_face_2-27)" id="id-female-6.8_face_2-111">
</path>
<polygon points="156 25 147 19 147 13" fill="#3e1f26" id="id-female-6.8_face_2-111">
</polygon>
<path d="M 1 24 L 17 16 L 33 16 L 60 28 L 60 11 C 48 7 35 4 22 4 L 10 11 L 10 16 L 9 12 L 1 24 Z" fill="url(#id-female-6.8_face_2-28)" id="id-female-6.8_face_2-113">
</path>
</g>
<polygon points="99 121 114 127 111 135 121 162 126 169 74 169 81 157 87 130" fill="url(#id-female-6.8_face_2-29)" id="id-female-6.8_face_2-114">
</polygon>
<polygon points="72 118 83 132 96 146 96 132 82 110" fill="#954c3a" id="id-female-6.8_face_2-115">
</polygon>
<polygon points="72 118 83 132 82 110" fill="#9b584a" id="id-female-6.8_face_2-115">
</polygon>
<polygon points="96 132 96 153 84 165 81 161 77 167 78 174 124 174 124 169 121 162 110 161 104 153 104 132" fill="url(#id-female-6.8_face_2-30)" id="id-female-6.8_face_2-117">
</polygon>
<polygon points="78 163 74 169 76 177 87 181 81 176 92 177 95 181 100 182 106 181 106 178 120 175 113 180 118 181 124 179 126 176 126 168 121 160 123 169 123 174 112 169 98 174 89 169 84 173 78 171" fill="url(#id-female-6.8_face_2-31)" id="id-female-6.8_face_2-118">
</polygon>
<polygon points="93 127 100 140 106 127 100 123" fill="#ee9d8c" id="id-female-6.8_face_2-119">
</polygon>
<polygon points="93 167 99 170 105 167 99 161" fill="#db9a77" id="id-female-6.8_face_2-120">
</polygon>
<polygon points="80 170 84 173 89 170 84 166" fill="#d27f62" id="id-female-6.8_face_2-121">
</polygon>
<polygon points="113 169 119 171 120 166 116 164" fill="#d88365" id="id-female-6.8_face_2-122">
</polygon>
<polygon points="115 159 117 152 121 160" fill="#a35547" id="id-female-6.8_face_2-123">
</polygon>
<polygon points="93 178 81 176 81 173 89 173" fill="#2e1111" id="id-female-6.8_face_2-124">
</polygon>
<polygon points="106 178 112 173 118 173 120 175 117 177" fill="#2e1111" id="id-female-6.8_face_2-125">
</polygon>
<polygon points="124 137 145 138 147 139 125 138 120 137" fill="#3f0a19" id="id-female-6.8_face_2-126">
</polygon>
<polygon points="124 140 137 141 147 140" fill="#feaf93" id="id-female-6.8_face_2-127">
</polygon>
<polygon points="49 140 60 141 74 140" fill="#bb735f" id="id-female-6.8_face_2-128">
</polygon>
</g>
<defs>
<linearGradient x1="98%" y1="50%" x2="0%" y2="50%" id="id-female-10_yieldfarmer_tights-0">
<stop stop-color="#000000" offset="0%" stop-opacity="0.8">
</stop>
<stop stop-color="#847579" offset="18%">
</stop>
<stop stop-color="#837377" offset="25%">
</stop>
<stop stop-color="#000000" offset="42%" stop-opacity="0.8">
</stop>
<stop stop-color="#000000" offset="53%" stop-opacity="0.8">
</stop>
<stop stop-color="#705d62" offset="72%">
</stop>
<stop stop-color="#6e5b61" offset="80%">
</stop>
<stop stop-color="#000000" offset="100%" stop-opacity="0.8">
</stop>
</linearGradient>
<linearGradient x1="98%" y1="50%" x2="0%" y2="50%" id="id-female-10_yieldfarmer_tights-1">
<stop stop-color="#000000" offset="0%" stop-opacity="0.8">
</stop>
<stop stop-color="#000000" offset="18%" stop-opacity="0.5">
</stop>
<stop stop-color="#000000" offset="26%" stop-opacity="0.5">
</stop>
<stop stop-color="#000000" offset="42%" stop-opacity="0.8">
</stop>
<stop stop-color="#000000" offset="53%" stop-opacity="0.8">
</stop>
<stop stop-color="#000000" offset="72%" stop-opacity="0.5">
</stop>
<stop stop-color="#000000" offset="80%" stop-opacity="0.5">
</stop>
<stop stop-color="#000000" offset="100%" stop-opacity="0.8">
</stop>
</linearGradient>
</defs>
<g transform="translate(448,986)" id="id-female-10_yieldfarmer_tights-2">
<path d="M 81 0 L 333 1 C 333 4 332 12 330 20 L 330 21 C 327 33 325 44 327 44 C 325 49 327 52 329 55 L 329 55 C 330 56 330 57 331 59 C 329 65 332 68 334 71 L 334 72 C 335 72 335 72 335 72 L 335 73 L 335 73 L 336 73 C 337 74 338 76 339 78 C 333 85 341 101 349 117 L 349 119 C 354 129 359 138 361 146 C 369 197 382 245 396 286 C 402 330 405 367 404 398 C 400 433 394 464 388 494 C 384 502 376 502 374 513 C 374 514 374 515 374 517 L 374 517 C 374 518 374 519 374 519 L 374 520 C 374 527 373 534 376 545 L 376 544 C 367 578 358 612 349 651 C 349 683 349 699 346 727 C 347 734 348 737 350 741 L 351 741 C 351 742 351 742 351 742 L 352 743 C 352 743 352 744 352 744 C 352 744 351 746 347 749 C 347 749 347 749 347 749 L 347 749 C 348 751 349 760 351 774 L 351 774 L 351 774 C 350 774 350 774 350 774 L 350 774 C 349 774 349 774 349 774 L 348 774 C 348 774 347 774 347 774 L 346 774 C 334 774 299 774 242 774 C 242 769 242 765 241 761 L 241 760 C 240 759 240 758 240 756 C 238 755 236 753 233 749 C 233 749 234 741 238 724 C 238 724 236 702 231 659 C 231 659 231 636 230 591 C 230 591 226 534 218 420 L 218 420 L 218 420 C 218 419 218 391 219 336 C 212 342 206 342 198 336 C 198 336 197 368 194 431 C 194 431 192 444 188 469 C 188 469 184 514 177 605 L 177 605 L 177 605 C 177 606 177 631 176 680 C 176 680 175 686 172 699 C 172 699 173 714 175 744 L 175 744 L 175 744 C 175 744 172 754 166 774 L 166 774 L 55 774 L 55 740 C 55 740 55 740 55 740 L 54 739 C 53 738 51 736 49 732 L 49 732 L 49 732 C 54 722 58 713 48 706 C 48 706 49 704 52 699 C 52 699 49 679 42 637 C 28 572 15 507 5 441 C 4 435 4 430 4 424 L 3 421 C 3 420 3 419 3 419 L 3 417 C 3 416 3 416 3 416 L 3 414 C 1 394 0 375 0 362 C 0 362 1 352 3 333 C 3 333 16 277 42 166 C 42 166 49 147 63 110 C 63 110 63 107 63 102 C 74 90 76 78 74 66 C 74 66 77 64 81 60 L 81 60 L 81 0 Z M 260 649 C 258 649 257 655 255 661 L 255 662 C 255 663 254 664 254 665 C 259 675 261 681 261 681 C 264 672 265 668 265 667 L 265 667 L 265 667 C 265 666 264 665 264 664 L 263 662 C 261 658 260 653 260 649 Z M 324 621 L 323 652 C 325 637 327 628 327 623 L 328 622 C 328 621 328 620 328 619 L 328 619 C 328 619 328 619 328 619 L 328 619 C 328 619 328 619 328 619 C 327 618 325 619 324 621 Z M 141 580 C 135 576 131 578 128 580 L 127 580 L 127 580 L 127 580 C 127 580 128 587 128 600 C 129 602 131 604 133 605 C 131 605 131 608 131 611 L 131 611 C 131 613 131 615 130 616 C 130 616 131 626 132 647 C 133 620 136 597 141 580 Z M 75 593 C 74 595 73 597 72 599 L 72 600 C 70 604 68 608 68 612 C 69 616 73 621 78 628 C 78 627 78 625 78 624 L 78 623 C 78 620 79 617 81 610 L 75 593 Z M 336 569 C 335 567 332 568 326 571 L 326 571 L 324 613 C 324 613 326 613 329 614 C 329 614 331 599 336 569 Z M 146 552 C 138 551 131 553 123 555 C 124 559 125 566 126 574 C 131 577 136 577 141 574 C 141 574 143 567 146 552 Z M 338 552 C 338 552 334 553 327 554 L 327 554 L 326 567 C 330 567 333 566 337 563 C 337 563 337 560 338 552 Z M 113 535 L 114 535 C 119 540 122 546 123 553 C 138 550 146 548 146 548 C 145 546 144 545 144 545 C 147 544 149 544 149 544 C 148 534 146 525 136 515 C 126 509 115 518 113 535 Z M 327 541 C 327 541 327 544 327 549 C 328 550 331 550 334 550 L 335 550 C 336 550 337 550 339 551 C 339 551 339 548 340 543 L 340 543 Z M 343 525 L 328 527 C 328 527 328 529 327 533 C 329 538 334 541 340 541 C 340 541 341 536 343 525 L 343 525 Z M 337 494 L 327 523 C 327 523 333 523 343 522 C 343 522 341 513 337 494 L 337 494 Z M 137 477 C 132 485 134 503 122 512 C 131 508 137 509 140 514 C 140 510 139 505 139 500 L 138 498 C 138 491 137 483 137 477 Z" fill="#c46366" id="id-female-10_yieldfarmer_tights-3">
</path>
<path d="M 81 0 L 333 1 C 333 4 332 12 330 20 L 330 21 C 327 33 325 44 327 44 C 325 49 327 52 329 55 L 329 55 C 330 56 330 57 331 59 C 329 65 332 68 334 71 L 334 72 C 335 72 335 72 335 72 L 335 73 L 335 73 L 336 73 C 337 74 338 76 339 78 C 336 81 338 87 340 94 C 342 101 346 109 350 116 L 351 119 C 355 128 359 137 361 145 C 369 196 382 245 396 286 C 402 330 405 367 404 398 C 400 433 394 464 388 494 C 384 502 376 502 374 513 C 374 514 374 515 374 517 L 374 517 C 374 518 374 519 374 519 L 374 520 C 374 527 373 534 376 545 L 376 544 C 367 578 358 612 349 651 C 349 683 349 699 346 727 C 347 734 348 737 350 741 L 351 741 C 351 742 351 742 351 742 L 352 743 C 352 743 352 744 352 744 C 352 744 351 746 347 749 C 347 749 347 749 347 749 L 347 749 C 348 751 349 760 351 774 L 351 774 L 351 774 C 350 774 350 774 350 774 L 350 774 C 349 774 349 774 349 774 L 348 774 C 348 774 347 774 347 774 L 346 774 C 334 774 299 774 242 774 C 242 769 242 765 241 761 L 241 760 C 240 759 240 758 240 756 C 238 755 236 753 233 749 C 233 749 234 741 238 724 C 238 724 236 702 231 659 C 231 659 231 636 230 591 C 230 591 226 534 218 420 L 218 420 L 218 420 C 218 419 218 391 219 336 C 212 342 206 342 198 336 C 198 336 197 368 194 431 C 194 431 192 444 188 469 C 188 469 184 514 177 605 L 177 605 L 177 605 C 177 606 177 631 176 680 C 176 680 175 686 172 699 C 172 699 173 714 175 744 L 175 744 L 175 744 C 175 744 172 754 166 774 L 166 774 L 55 774 L 55 740 C 55 740 55 740 55 740 L 54 739 C 53 738 51 736 49 732 L 49 732 L 49 732 C 54 722 58 713 48 706 C 48 706 49 704 52 699 C 52 699 49 679 42 637 C 28 572 15 507 5 441 C 4 435 4 430 4 424 L 3 421 C 3 420 3 419 3 419 L 3 417 C 3 416 3 416 3 416 L 3 414 C 1 394 0 375 0 362 C 0 362 1 352 3 333 C 3 333 16 277 42 166 C 42 166 49 147 63 110 C 63 110 63 107 63 102 C 74 90 76 78 74 66 C 74 66 77 64 81 60 L 81 60 L 81 0 Z M 260 649 C 258 649 257 655 255 661 L 255 662 C 255 663 254 664 254 665 C 259 675 261 681 261 681 C 264 672 265 668 265 667 L 265 667 L 265 667 C 265 666 264 665 264 664 L 263 662 C 261 658 260 653 260 649 Z M 324 621 L 323 652 C 325 637 327 628 327 623 L 328 622 C 328 621 328 620 328 619 L 328 619 C 328 619 328 619 328 619 L 328 619 C 328 619 328 619 328 619 C 327 618 325 619 324 621 Z M 141 580 C 135 576 131 578 128 580 L 127 580 L 127 580 L 127 580 C 127 580 128 587 128 600 C 129 602 131 604 133 605 C 131 605 131 608 131 611 L 131 611 C 131 613 131 615 130 616 C 130 616 131 626 132 647 C 133 620 136 597 141 580 Z M 75 593 C 74 595 73 597 72 599 L 72 600 C 70 604 68 608 68 612 C 69 616 73 621 78 628 C 78 627 78 625 78 624 L 78 623 C 78 620 79 617 81 610 L 75 593 Z M 336 569 C 335 567 332 568 326 571 L 326 571 L 324 613 C 324 613 326 613 329 614 C 329 614 331 599 336 569 Z M 146 552 C 138 551 131 553 123 555 C 124 559 125 566 126 574 C 131 577 136 577 141 574 C 141 574 143 567 146 552 Z M 338 552 C 338 552 334 553 327 554 L 327 554 L 326 567 C 330 567 333 566 337 563 C 337 563 337 560 338 552 Z M 113 535 L 114 535 C 119 540 122 546 123 553 C 138 550 146 548 146 548 C 145 546 144 545 144 545 C 147 544 149 544 149 544 C 148 534 146 525 136 515 C 126 509 115 518 113 535 Z M 327 541 C 327 541 327 544 327 549 C 328 550 331 550 334 550 L 335 550 C 336 550 337 550 339 551 C 339 551 339 548 340 543 L 340 543 Z M 343 525 L 328 527 C 328 527 328 529 327 533 C 329 538 334 541 340 541 C 340 541 341 536 343 525 L 343 525 Z M 337 494 L 327 523 C 327 523 333 523 343 522 C 343 522 341 513 337 494 L 337 494 Z M 137 477 C 132 485 134 503 122 512 C 131 508 137 509 140 514 C 140 510 139 505 139 500 L 138 498 C 138 491 137 483 137 477 Z" fill="url(#id-female-10_yieldfarmer_tights-0)" opacity="0.524" id="id-female-10_yieldfarmer_tights-3">
</path>
<path d="M 81 0 L 333 1 C 333 4 332 12 330 20 L 330 21 C 327 33 325 44 327 44 C 325 49 327 52 329 55 L 329 55 C 330 56 330 57 331 59 C 329 65 332 68 334 71 L 334 72 C 335 72 335 72 335 72 L 335 73 L 335 73 L 336 73 C 337 74 338 76 339 78 C 336 81 338 88 340 94 C 342 101 346 109 349 117 L 350 119 C 354 127 358 136 360 143 C 368 194 382 245 396 286 C 402 330 405 367 404 398 C 400 433 394 464 388 494 C 384 502 376 502 374 513 C 374 514 374 515 374 517 L 374 517 C 374 518 374 519 374 519 L 374 520 C 374 527 373 534 376 545 L 376 544 C 367 578 358 612 349 651 C 349 683 349 699 346 727 C 347 734 348 737 350 741 L 351 741 C 351 742 351 742 351 742 L 352 743 C 352 743 352 744 352 744 C 352 744 351 746 347 749 C 347 749 347 749 347 749 L 347 749 C 348 751 349 760 351 774 L 351 774 L 351 774 C 350 774 350 774 350 774 L 350 774 C 349 774 349 774 349 774 L 348 774 C 348 774 347 774 347 774 L 346 774 C 334 774 299 774 242 774 C 242 769 242 765 241 761 L 241 760 C 240 759 240 758 240 756 C 238 755 236 753 233 749 C 233 749 234 741 238 724 C 238 724 236 702 231 659 C 231 659 231 636 230 591 C 230 591 226 534 218 420 L 218 420 L 218 420 C 218 419 218 391 219 336 C 212 342 206 342 198 336 C 198 336 197 368 194 431 C 194 431 192 444 188 469 C 188 469 184 514 177 605 L 177 605 L 177 605 C 177 606 177 631 176 680 C 176 680 175 686 172 699 C 172 699 173 714 175 744 L 175 744 L 175 744 C 175 744 172 754 166 774 L 166 774 L 55 774 L 55 740 C 55 740 55 740 55 740 L 54 739 C 53 738 51 736 49 732 L 49 732 L 49 732 C 54 722 58 713 48 706 C 48 706 49 704 52 699 C 52 699 49 679 42 637 C 28 572 15 507 5 441 C 4 435 4 430 4 424 L 3 421 C 3 420 3 419 3 419 L 3 417 C 3 416 3 416 3 416 L 3 414 C 1 394 0 375 0 362 C 0 362 1 352 3 333 C 3 333 16 277 42 166 C 42 166 49 147 63 110 C 63 110 63 107 63 102 C 74 90 76 78 74 66 C 74 66 77 64 81 60 L 81 60 L 81 0 Z M 260 649 C 258 649 257 655 255 661 L 255 662 C 255 663 254 664 254 665 C 259 675 261 681 261 681 C 264 672 265 668 265 667 L 265 667 L 265 667 C 265 666 264 665 264 664 L 263 662 C 261 658 260 653 260 649 Z M 324 621 L 323 652 C 325 637 327 628 327 623 L 328 622 C 328 621 328 620 328 619 L 328 619 C 328 619 328 619 328 619 L 328 619 C 328 619 328 619 328 619 C 327 618 325 619 324 621 Z M 141 580 C 135 576 131 578 128 580 L 127 580 L 127 580 L 127 580 C 127 580 128 587 128 600 C 129 602 131 604 133 605 C 131 605 131 608 131 611 L 131 611 C 131 613 131 615 130 616 C 130 616 131 626 132 647 C 133 620 136 597 141 580 Z M 75 593 C 74 595 73 597 72 599 L 72 600 C 70 604 68 608 68 612 C 69 616 73 621 78 628 C 78 627 78 625 78 624 L 78 623 C 78 620 79 617 81 610 L 75 593 Z M 336 569 C 335 567 332 568 326 571 L 326 571 L 324 613 C 324 613 326 613 329 614 C 329 614 331 599 336 569 Z M 146 552 C 138 551 131 553 123 555 C 124 559 125 566 126 574 C 131 577 136 577 141 574 C 141 574 143 567 146 552 Z M 338 552 C 338 552 334 553 327 554 L 327 554 L 326 567 C 330 567 333 566 337 563 C 337 563 337 560 338 552 Z M 113 535 L 114 535 C 119 540 122 546 123 553 C 138 550 146 548 146 548 C 145 546 144 545 144 545 C 147 544 149 544 149 544 C 148 534 146 525 136 515 C 126 509 115 518 113 535 Z M 327 541 C 327 541 327 544 327 549 C 328 550 331 550 334 550 L 335 550 C 336 550 337 550 339 551 C 339 551 339 548 340 543 L 340 543 Z M 343 525 L 328 527 C 328 527 328 529 327 533 C 329 538 334 541 340 541 C 340 541 341 536 343 525 L 343 525 Z M 337 494 L 327 523 C 327 523 333 523 343 522 C 343 522 341 513 337 494 L 337 494 Z M 137 477 C 132 485 134 503 122 512 C 131 508 137 509 140 514 C 140 510 139 505 139 500 L 138 498 C 138 491 137 483 137 477 Z" fill="url(#id-female-10_yieldfarmer_tights-1)" opacity="0.524" id="id-female-10_yieldfarmer_tights-3">
</path>
<path d="M 81 40 C 163 42 204 42 204 42 C 204 40 204 39 204 39 C 186 37 177 37 177 37 L 177 1 L 81 0 C 81 27 81 40 81 40 Z" fill="#3b1e1f" id="id-female-10_yieldfarmer_tights-6">
</path>
<path d="M 92 42 C 125 42 142 43 142 43 L 114 49 C 99 44 92 42 92 42 Z" fill="#442e34" id="id-female-10_yieldfarmer_tights-7">
</path>
<path d="M 172 44 C 180 45 184 46 184 46 L 177 36 L 177 0 L 172 0 C 172 29 172 44 172 44 Z" fill="#442931" id="id-female-10_yieldfarmer_tights-8">
</path>
<path d="M 185 32 C 190 31 193 30 193 30 L 192 0 L 184 0 C 184 21 185 32 185 32 Z" fill="#452b32" id="id-female-10_yieldfarmer_tights-9">
</path>
<path d="M 169 26 C 182 27 189 27 189 27 C 188 15 188 8 188 8 L 170 7 C 170 20 169 26 169 26 Z" fill="#55494c" id="id-female-10_yieldfarmer_tights-10">
</path>
<path d="M 108 97 C 118 86 123 80 123 80 L 181 109 C 132 101 108 97 108 97 Z" fill="#5e444c" fill-opacity="0.4" id="id-female-10_yieldfarmer_tights-11">
</path>
<path d="M 191 74 L 221 75 L 206 42 L 193 42 C 191 64 191 74 191 74 Z" fill="#574249" id="id-female-10_yieldfarmer_tights-12">
</path>
<path d="M 185 137 C 207 117 219 108 219 108 C 218 124 217 133 217 133 C 221 171 223 191 223 191 L 195 196 C 189 157 185 137 185 137 Z" fill="#5e444c" fill-opacity="0.4" id="id-female-10_yieldfarmer_tights-13">
</path>
<path d="M 244 94 C 280 82 298 76 298 76 L 310 92 C 266 94 244 94 244 94 Z" fill="#5e444c" fill-opacity="0.4" id="id-female-10_yieldfarmer_tights-14">
</path>
<path d="M 204 41 C 289 39 331 38 331 38 C 309 42 299 45 299 45 C 296 42 295 41 295 41 L 206 44 C 205 42 204 41 204 41 Z" fill="#442931" id="id-female-10_yieldfarmer_tights-15">
</path>
<path d="M 297 35 C 297 35 260 35 260 35 L 260 1 C 294 1 310 1 310 1 L 310 22 C 301 31 297 35 297 35 Z" fill="#3b1e1f" id="id-female-10_yieldfarmer_tights-16">
</path>
<path d="M 228 201 C 260 183 276 174 276 174 L 317 188 C 257 196 228 201 228 201 Z" fill="#5f444c" fill-opacity="0.71" id="id-female-10_yieldfarmer_tights-17">
</path>
<path d="M 197 340 C 189 328 184 322 184 322 C 144 288 124 270 124 270 C 156 275 172 277 172 277 C 153 261 144 253 144 253 C 117 236 104 227 104 227 C 164 217 195 211 195 211 C 265 224 300 230 300 230 C 277 244 266 252 266 252 C 235 263 220 268 220 268 C 237 271 245 273 245 273 C 232 287 225 294 225 294 C 228 296 230 297 230 297 C 285 272 313 260 313 260 C 273 296 253 314 253 314 C 235 401 227 444 227 444 C 278 630 308 724 317 728 L 347 709 L 346 727 C 346 732 347 738 352 744 L 347 749 L 351 774 L 242 774 C 242 769 241 763 240 756 L 233 749 L 238 724 L 231 659 L 230 591 C 227 533 223 476 218 420 L 220 335 C 212 342 205 341 198 336 C 198 339 197 340 197 340 Z" fill="#000000" fill-opacity="0.166" id="id-female-10_yieldfarmer_tights-18">
</path>
<path d="M 179 314 L 235 313 L 219 336 C 213 341 206 342 198 336 L 197 340 L 179 314 Z" fill="#261010" id="id-female-10_yieldfarmer_tights-19">
</path>
<path d="M 241 286 C 298 260 327 248 327 248 L 285 239 C 256 270 241 286 241 286 Z" fill="#5f444c" fill-opacity="0.71" id="id-female-10_yieldfarmer_tights-20">
</path>
<polygon points="165 233 104 227 195 211" fill="#5f444c" fill-opacity="0.71" id="id-female-10_yieldfarmer_tights-21">
</polygon>
<path d="M 138 271 C 82 249 54 239 54 239 L 101 232 C 125 258 138 271 138 271 Z" fill="#5f444c" fill-opacity="0.71" id="id-female-10_yieldfarmer_tights-22">
</path>
<path d="M 119 275 C 104 287 96 292 96 292 L 45 254 C 94 268 119 275 119 275 Z" fill="#5f444c" fill-opacity="0.71" id="id-female-10_yieldfarmer_tights-23">
</path>
<path d="M 236 753 C 268 759 284 762 284 762 L 261 774 L 242 774 C 242 769 241 764 240 756 C 237 754 236 753 236 753 Z" fill="#2f1617" id="id-female-10_yieldfarmer_tights-24">
</path>
<path d="M 176 680 C 148 710 133 726 133 726 L 173 712 L 172 699 C 175 686 176 680 176 680 Z" fill="#452425" id="id-female-10_yieldfarmer_tights-25">
</path>
<path d="M 112 687 C 105 696 102 701 102 701 C 103 704 103 706 103 706 C 143 697 164 692 164 692 L 173 679 C 132 685 112 687 112 687 Z" fill="#452425" id="id-female-10_yieldfarmer_tights-26">
</path>
<path d="M 51 702 C 81 727 96 739 96 739 L 69 736 L 104 774 L 55 774 L 55 740 L 49 732 C 53 724 59 715 48 706 C 50 703 51 702 51 702 Z" fill="#452425" id="id-female-10_yieldfarmer_tights-27">
</path>
<path d="M 191 195 C 194 194 195 194 195 194 C 188 161 185 144 185 144 C 190 77 193 43 193 43 C 185 42 182 42 182 42 C 185 45 187 46 187 46 C 188 56 188 62 188 62 L 183 145 C 188 179 191 195 191 195 Z" fill="#331a22" id="id-female-10_yieldfarmer_tights-28">
</path>
</g>
<defs>
<linearGradient x1="50%" y1="6%" x2="50%" y2="92%" id="id-female-11_bra_red-0">
<stop stop-color="#fe2910" offset="0%">
</stop>
<stop stop-color="#fe2910" offset="75%">
</stop>
<stop stop-color="#c30026" offset="100%">
</stop>
</linearGradient>
<linearGradient x1="0%" y1="48%" x2="100%" y2="48%" id="id-female-11_bra_red-1">
<stop stop-color="#e89999" offset="0%">
</stop>
<stop stop-color="#b1043d" offset="3%">
</stop>
<stop stop-color="#da4949" offset="11%">
</stop>
<stop stop-color="#fbb9b9" offset="16%">
</stop>
<stop stop-color="#980000" offset="24%">
</stop>
<stop stop-color="#990000" offset="75%">
</stop>
<stop stop-color="#f7baba" offset="82%">
</stop>
<stop stop-color="#c62f2f" offset="87%">
</stop>
<stop stop-color="#aa0505" offset="95%">
</stop>
<stop stop-color="#efc0c0" offset="100%">
</stop>
</linearGradient>
</defs>
<g transform="translate(497,803)" id="id-female-11_bra_red-2">
<polygon points="292 103 250 114 158 116 73 114 54 113 26 106 24 91 10 72 1 47 1 37 8 13 39 2 47 4 73 18 116 46 132 58 132 72 135 79 151 84 171 79 174 58 207 32 263 2 268 1 287 7 303 15 309 34 307 58 294 81" fill="url(#id-female-11_bra_red-0)" id="id-female-11_bra_red-3">
</polygon>
<polygon points="198 115 158 116 105 115 142 92 151 84 165 90" fill="#c30026" opacity="0.783" id="id-female-11_bra_red-3">
</polygon>
<polygon points="110 86 67 99 24 91 10 72 1 47 1 37 5 22 7 47 21 72 36 81 58 86" fill="#d00029" id="id-female-11_bra_red-3">
</polygon>
<polygon points="67 99 24 91 10 72 1 47 1 37 5 22 7 47 21 72 29 84" fill="#e50444" id="id-female-11_bra_red-3">
</polygon>
<polygon points="245 97 210 84 258 74 295 56 304 37 302 15 307 34 307 58 293 81" fill="#d00029" id="id-female-11_bra_red-3">
</polygon>
<polygon points="295 56 301 37 303 15 309 34 307 58 294 81 272 88" fill="#df1700" id="id-female-11_bra_red-3">
</polygon>
<polygon points="206 41 217 56 249 64 288 42 297 16 269 4 214 33" fill="#ff4f45" id="id-female-11_bra_red-9">
</polygon>
<polygon points="14 14 14 33 36 55 77 53 97 38 45 6" fill="#ff4f45" id="id-female-11_bra_red-10">
</polygon>
<polygon points="128 79 123 58 85 32 49 10 25 11 5 21 8 13 39 2 47 4 73 18 116 46 132 58 132 63 173 63 172 71 132 71 132 72 135 79 151 84 171 79 174 58 207 32 263 2 268 1 287 7 303 15 305 21 280 10 265 9 212 36 180 59 175 83 153 90 133 84" fill="url(#id-female-11_bra_red-1)" id="id-female-11_bra_red-3">
</polygon>
</g>
<defs>
<linearGradient x1="70%" y1="50%" x2="8%" y2="50%" id="id-female-12_purple_shorts-0">
<stop stop-color="#b89de3" offset="0%">
</stop>
<stop stop-color="#ab89d3" offset="63%">
</stop>
<stop stop-color="#ab8cd4" offset="100%">
</stop>
</linearGradient>
<linearGradient x1="50%" y1="0%" x2="50%" y2="100%" id="id-female-12_purple_shorts-1">
<stop stop-color="#c09cef" offset="0%">
</stop>
<stop stop-color="#906ebc" offset="100%">
</stop>
</linearGradient>
</defs>
<g transform="translate(442,1029)" id="id-female-12_purple_shorts-2">
<path d="M 9 320 C 11 299 12 288 12 288 C 38 179 51 124 51 124 C 57 110 60 94 63 74 C 70 67 74 64 74 64 C 76 54 80 46 84 40 C 87 13 89 0 89 0 C 252 0 333 1 333 1 C 338 25 341 37 341 37 C 348 47 352 52 352 52 C 356 70 361 87 368 103 C 378 150 387 198 401 243 C 407 284 410 305 410 305 L 410 325 L 226 340 C 226 304 227 286 227 286 C 212 286 204 285 204 285 L 203 341 C 74 327 9 320 9 320 Z" fill="url(#id-female-12_purple_shorts-0)" id="id-female-12_purple_shorts-3">
</path>
<path d="M 368 103 C 375 134 383 170 392 211 L 339 252 L 324 112 L 368 103 Z" fill="#ca8ee1" id="id-female-12_purple_shorts-3">
</path>
<path d="M 251 336 C 275 311 287 298 287 298 L 285 331 C 263 334 251 336 251 336 Z" fill="#ffffff" id="id-female-12_purple_shorts-5">
</path>
<path d="M 287 298 C 297 285 301 278 301 278 C 306 275 308 274 308 274 L 305 329 L 285 331 C 287 309 287 298 287 298 Z" fill="#b9a5e6" id="id-female-12_purple_shorts-6">
</path>
<path d="M 310 330 C 311 291 312 272 312 272 C 342 249 357 238 357 238 L 321 329 C 314 330 310 330 310 330 Z" fill="#bfbfff" id="id-female-12_purple_shorts-7">
</path>
<path d="M 353 247 C 371 274 379 288 379 288 L 379 219 L 357 237 C 354 243 353 247 353 247 Z" fill="#bbacff" id="id-female-12_purple_shorts-8">
</path>
<path d="M 78 202 L 105 201 L 107 203 C 100 208 88 208 83 215 L 48 236 L 84 280 L 88 280 L 89 282 L 84 292 L 73 338 L 18 330 L 21 310 L 14 302 L 20 295 L 21 273 L 31 148 L 78 202 Z" transform="translate(61,243) rotate(9) translate(-61,-243)" fill="#c1aefa" id="id-female-12_purple_shorts-9">
</path>
<polygon points="35 327 22 325 25 305 19 297 24 290 26 267 37 121 40 99 41 150 33 254" transform="translate(30,213) rotate(9) translate(-30,-213)" fill="#cbf4ff" id="id-female-12_purple_shorts-9">
</polygon>
<path d="M 103 134 C 103 129 103 126 103 126 C 111 115 115 109 115 109 C 111 101 109 96 109 96 L 124 81 L 124 57 C 162 52 181 50 181 50 C 190 53 195 54 195 54 L 189 134 C 132 134 103 134 103 134 Z" fill="#b5b0f8" id="id-female-12_purple_shorts-11">
</path>
<path d="M 191 53 C 184 51 180 50 180 50 C 160 50 149 49 149 49 C 131 54 122 57 122 57 L 96 49 C 153 16 182 0 182 0 C 184 0 185 0 185 0 L 184 45 C 189 50 191 53 191 53 Z" fill="#9c79ca" id="id-female-12_purple_shorts-12">
</path>
<path d="M 89 0 C 88 30 87 45 87 45 C 94 47 97 49 97 49 C 153 49 181 50 181 50 L 182 1 C 120 0 89 0 89 0 Z" fill="#906ebc" id="id-female-12_purple_shorts-13">
</path>
<path d="M 78 329 C 101 306 112 294 112 294 C 124 256 131 237 131 237 C 157 218 170 209 170 209 C 172 229 173 239 173 239 C 213 245 233 248 233 248 C 188 271 166 282 166 282 L 167 347 L 131 347 L 134 316 L 123 309 C 93 322 78 329 78 329 Z" fill="#bdadfe" id="id-female-12_purple_shorts-14">
</path>
<path d="M 114 1 L 112 31 L 97 49 L 81 45 L 89 0 C 106 1 114 1 114 1 Z" fill="#5e4aa1" id="id-female-12_purple_shorts-15">
</path>
<path d="M 201 38 C 195 40 192 41 192 41 C 192 16 191 3 191 3 L 199 3 C 200 27 201 38 201 38 Z" fill="#3b2c94" id="id-female-12_purple_shorts-16">
</path>
<path d="M 248 339 C 233 340 226 340 226 340 C 226 304 227 286 227 286 C 202 280 189 278 189 278 C 150 245 130 228 130 228 C 162 233 178 235 178 235 C 156 216 135 202 113 187 C 153 190 173 191 173 191 C 193 177 203 169 203 169 C 270 182 304 189 304 189 C 281 205 270 213 270 213 C 242 221 228 226 228 226 C 244 230 252 232 252 232 C 238 246 232 253 232 253 C 235 254 236 254 236 254 C 280 234 302 224 302 224 C 305 230 307 233 307 233 L 262 271 C 252 317 248 339 248 339 Z" fill="url(#id-female-12_purple_shorts-1)" opacity="0.9" id="id-female-12_purple_shorts-17">
</path>
<path d="M 196 340 L 203 341 C 204 304 204 285 204 285 L 199 285 L 196 340 Z" fill="#6a3b7c" id="id-female-12_purple_shorts-18">
</path>
<path d="M 298 233 C 258 267 237 284 237 284 L 213 280 C 270 248 298 233 298 233 Z" fill="#704aa1" id="id-female-12_purple_shorts-19">
</path>
<path d="M 220 273 C 202 277 193 279 193 279 L 154 242 C 198 263 220 273 220 273 Z" fill="#704aa1" id="id-female-12_purple_shorts-20">
</path>
<path d="M 186 271 C 221 270 239 269 242 271 C 246 273 234 296 214 298 C 204 297 194 288 186 271 Z" fill="#633c95" id="id-female-12_purple_shorts-21">
</path>
<path d="M 261 65 L 307 85 C 307 85 306 120 304 189 L 196 167 L 195 134 C 195 134 193 134 191 134 L 198 51 C 198 51 214 51 214 51 L 229 85 L 261 65 Z" fill="#bfbbff" id="id-female-12_purple_shorts-22">
</path>
<path d="M 115 184 C 165 181 190 178 190 175 L 171 188 L 173 191 C 134 186 115 184 115 184 Z" fill="#bdb8ff" id="id-female-12_purple_shorts-23">
</path>
<path d="M 99 120 C 73 115 61 112 61 112 L 75 93 C 91 111 99 120 99 120 Z" fill="#bdb8ff" id="id-female-12_purple_shorts-24">
</path>
<path d="M 97 100 C 147 110 172 116 172 116 L 115 85 C 103 95 97 100 97 100 Z" fill="#dffffe" id="id-female-12_purple_shorts-25">
</path>
<path d="M 239 160 C 266 146 280 139 280 139 L 325 147 C 268 155 239 160 239 160 Z" fill="#e7e3ff" id="id-female-12_purple_shorts-26">
</path>
<path d="M 223 121 C 226 140 228 150 228 150 C 211 152 203 153 203 153 C 200 139 199 133 199 133 L 212 133 C 220 125 223 121 223 121 Z" fill="#cecbff" id="id-female-12_purple_shorts-27">
</path>
<path d="M 203 153 C 199 154 198 155 198 155 L 195 133 L 199 133 C 201 146 203 153 203 153 Z" fill="#cbf4ff" id="id-female-12_purple_shorts-28">
</path>
<path d="M 340 176 C 330 186 325 191 325 191 L 273 175 C 317 175 340 176 340 176 Z" fill="#cac6ff" id="id-female-12_purple_shorts-29">
</path>
<path d="M 331 208 L 289 201 L 256 235 C 306 217 331 208 331 208 Z" fill="#e7e3ff" id="id-female-12_purple_shorts-30">
</path>
<path d="M 345 212 C 339 205 336 201 336 201 C 336 194 336 190 336 190 L 370 201 C 354 208 345 212 345 212 Z" fill="#ff8fff" id="id-female-12_purple_shorts-31">
</path>
<path d="M 341 211 C 341 293 340 333 340 333 C 335 334 333 334 333 334 L 335 219 C 339 214 341 211 341 211 Z" fill="#ff8fff" id="id-female-12_purple_shorts-32">
</path>
<path d="M 410 325 C 405 325 403 325 403 325 C 402 271 401 243 401 243 L 410 305 C 410 318 410 325 410 325 Z" fill="#dd7af2" id="id-female-12_purple_shorts-33">
</path>
<path d="M 322 103 C 312 91 306 85 306 85 L 261 104 C 302 104 322 103 322 103 Z" fill="#e7e3ff" id="id-female-12_purple_shorts-34">
</path>
<path d="M 318 82 C 327 91 332 96 332 96 C 347 89 354 85 354 85 L 339 79 C 325 81 318 82 318 82 Z" fill="#ff8fff" id="id-female-12_purple_shorts-35">
</path>
<path d="M 103 331 C 99 330 98 330 98 330 C 97 276 97 248 97 248 C 94 243 92 240 92 240 C 92 232 92 227 92 227 C 96 224 98 223 98 223 C 97 219 97 217 97 217 C 94 211 91 209 86 209 C 94 198 97 192 97 192 C 96 174 100 154 106 133 C 102 133 100 134 100 134 C 105 121 108 115 108 115 C 104 104 102 99 102 99 C 113 88 118 83 118 83 C 120 60 121 49 121 49 L 124 45 L 124 81 C 114 91 109 96 109 96 L 108 104 C 112 107 115 109 115 109 C 107 123 104 131 104 131 C 108 131 110 131 110 131 C 104 147 102 167 102 192 C 99 196 92 203 92 206 C 98 213 101 217 101 217 C 102 223 102 225 102 225 C 90 228 95 237 102 246 C 102 303 103 331 103 331 Z" fill="#f4dbfa" id="id-female-12_purple_shorts-36">
</path>
<polygon points="264 0 268 43 303 43 313 28 313 0" fill="#e898fc" id="id-female-12_purple_shorts-37">
</polygon>
<path d="M 184 45 L 212 45 L 212 48 L 325 45 L 325 48 L 308 51 L 312 85 L 330 96 L 325 116 L 330 134 L 325 134 L 337 203 L 341 210 C 337 216 335 219 335 219 C 334 294 333 331 333 331 C 332 331 331 331 331 331 L 334 218 L 337 211 L 334 206 C 333 195 331 185 330 175 C 328 160 325 147 321 134 C 323 134 324 133 325 132 L 320 118 L 327 102 L 310 89 L 305 51 L 302 49 L 198 51 L 198 84 C 196 84 195 84 195 84 C 193 117 192 134 192 134 C 190 134 189 134 189 134 C 193 80 195 53 195 53 L 189 51 L 184 45 Z" fill="#ffffff" id="id-female-12_purple_shorts-38">
</path>
<path d="M 4 320 C 3 350 3 365 3 365 C 137 374 203 379 203 379 L 204 341 C 71 327 4 320 4 320 Z" fill="#8667d6" id="id-female-12_purple_shorts-39">
</path>
<path d="M 108 372 C 82 371 69 370 69 370 C 61 340 57 326 57 326 L 107 331 C 108 358 108 372 108 372 Z" fill="#9cc0ff" opacity="0.566" id="id-female-12_purple_shorts-40">
</path>
<path d="M 221 378 C 221 353 221 341 221 341 C 348 330 412 324 412 324 L 414 364 C 285 374 221 378 221 378 Z" fill="#8667d6" id="id-female-12_purple_shorts-41">
</path>
<path d="M 351 330 C 348 344 348 357 350 369 C 326 371 314 371 314 371 C 313 354 307 345 303 334 C 335 331 351 330 351 330 Z" fill="#9cc0ff" opacity="0.566" id="id-female-12_purple_shorts-42">
</path>
</g>
<defs>
<linearGradient x1="50%" y1="21%" x2="50%" y2="81%" id="id-female-25_28_short_curly-0">
<stop stop-color="#17193a" offset="0%">
</stop>
<stop stop-color="#000000" offset="100%">
</stop>
</linearGradient>
</defs>
<g transform="translate(530,256)" id="id-female-25_28_short_curly-1">
<path d="M 100 1 L 116 11 L 117 3 L 151 15 L 148 3 L 159 3 L 163 11 L 173 11 L 182 7 L 189 13 L 187 17 L 196 22 L 206 20 L 204 28 L 216 38 L 218 33 L 210 27 L 218 17 L 219 24 L 228 20 L 233 33 L 225 35 L 222 44 L 245 70 L 248 48 L 252 59 L 263 64 L 256 79 L 265 92 L 260 102 L 255 95 L 255 109 L 248 117 L 235 120 L 239 132 L 228 157 L 231 165 L 228 192 L 212 185 L 201 167 L 204 162 L 197 152 L 188 134 L 172 121 L 138 117 L 130 126 L 119 123 L 105 129 L 93 123 L 78 129 L 66 139 L 64 146 L 71 143 L 67 164 L 33 152 L 36 141 L 25 134 L 23 119 L 10 113 L 10 102 L 1 109 L 1 89 L 10 97 L 12 79 L 1 79 L 1 62 L 16 71 L 12 59 L 4 54 L 10 48 L 17 56 L 31 41 L 37 50 L 44 35 L 59 28 L 40 24 L 53 11 L 60 15 L 53 20 L 67 24 L 70 11 L 78 3 L 88 11 L 74 22 L 95 13 L 100 1 Z M 200 146 L 200 151 L 204 148 L 200 146 Z M 197 132 L 194 136 L 197 140 L 204 140 L 202 133 L 197 132 Z M 75 128 L 66 128 L 65 134 L 75 128 Z M 178 121 L 190 130 L 198 127 L 178 121 Z M 107 115 L 107 120 L 101 123 L 107 125 L 117 118 L 107 115 Z M 250 63 L 250 71 L 252 74 L 256 66 L 250 63 Z M 28 55 L 22 60 L 23 71 L 30 60 L 28 55 Z M 101 9 L 102 13 L 109 13 L 101 9 Z" fill="url(#id-female-25_28_short_curly-0)" id="id-female-25_28_short_curly-2">
</path>
<g transform="translate(25,7)" id="id-female-25_28_short_curly-3">
<g transform="translate(25,0)" id="id-female-25_28_short_curly-4">
<polygon points="9 21 17 17 23 19 10 25 18 35 34 22 31 11 43 10 54 15 55 1 66 4 187 60 193 87 205 102 198 110 185 113 190 106 179 93 146 99 139 85 148 75 102 81 109 60 99 59 88 79 51 77 61 61 88 64 81 58 82 40 73 29 62 32 73 43 76 54 67 52 29 67 26 59 36 48 46 54 46 43 34 43 19 54 19 43 1 26" fill="#212456" id="id-female-25_28_short_curly-5">
</polygon>
<path d="M 123 4 L 132 11 L 137 10 L 146 15 L 156 13 L 154 21 L 166 31 L 168 26 L 164 21 L 175 17 L 177 24 L 175 28 L 189 35 L 183 47 L 198 41 L 198 60 L 198 69 L 177 73 L 171 65 L 177 65 L 177 58 L 165 58 L 157 49 L 131 48 L 140 41 L 127 40 L 119 31 L 108 28 L 112 39 L 102 38 L 97 21 L 72 17 L 66 4 L 79 10 L 101 8 L 115 17 L 123 4 Z M 195 49 L 187 51 L 194 57 L 195 49 Z M 182 37 L 176 37 L 180 43 L 182 37 Z" fill="#404487" id="id-female-25_28_short_curly-5">
</path>
</g>
<g transform="translate(0,104)" id="id-female-25_28_short_curly-7">
<polygon points="202 39 207 37 203 46 205 51 199 55 205 63 202 69 203 81 198 87 189 110 191 82 187 74 189 71 184 70 175 56 186 61 188 56 184 55 178 46 181 44 186 46 182 48 185 52 190 52 195 56 202 50 201 46 195 52 188 50 189 47 194 50 197 41 187 43 181 34 192 35 199 32" fill="#16bd5a" id="id-female-25_28_short_curly-8">
</polygon>
<path d="M 8 41 L 9 36 L 15 37 L 10 33 L 11 30 L 0 23 L 5 23 L 12 22 L 12 17 L 20 28 L 12 24 L 9 26 L 14 28 L 15 35 L 18 31 L 23 25 L 27 29 L 24 34 L 29 38 L 33 36 L 29 32 L 32 25 L 36 30 L 41 28 L 39 35 L 43 33 L 34 50 L 44 45 L 42 53 C 36 56 32 61 30 67 C 29 69 27 71 24 72 C 23 75 25 75 29 71 C 26 85 24 90 22 85 L 21 92 L 24 91 L 26 96 C 24 96 22 101 23 111 C 22 104 19 93 16 78 L 17 72 L 15 53 L 8 41 Z" fill="#16bd5a" id="id-female-25_28_short_curly-8">
</path>
<polygon points="29 8 26 13 31 15 29 18 39 22 36 8 32 11" fill="#0da149" id="id-female-25_28_short_curly-10">
</polygon>
<polygon points="13 11 15 20 19 18 22 22 21 12" fill="#0da149" id="id-female-25_28_short_curly-11">
</polygon>
<polygon points="9 12 7 13 6 5 11 2 12 12" fill="#0da149" id="id-female-25_28_short_curly-12">
</polygon>
<polygon points="3 13 0 16 5 18 7 15" fill="#0da149" id="id-female-25_28_short_curly-13">
</polygon>
<polygon points="26 8 22 4 28 0 30 4" fill="#0da149" id="id-female-25_28_short_curly-14">
</polygon>
<polygon points="202 32 205 34 209 30 210 24 204 26 206 32" fill="#0da149" id="id-female-25_28_short_curly-15">
</polygon>
<polygon points="189 27 194 30 201 26 203 20 210 20 206 13 197 21 194 18" fill="#0da149" id="id-female-25_28_short_curly-16">
</polygon>
<polygon points="198 9 207 5 203 0" fill="#0da149" id="id-female-25_28_short_curly-17">
</polygon>
<polygon points="181 22 186 15 181 15 177 19" fill="#0da149" id="id-female-25_28_short_curly-18">
</polygon>
</g>
</g>
</g>
<defs>
</defs>

</svg>
