<?xml version="1.0" encoding="UTF-8"?>
<svg xmlns="http://www.w3.org/2000/svg" xmlns:xlink="http://www.w3.org/1999/xlink" width="1320px" height="1760px" viewBox="0 0 1320 1760" version="1.1">
<defs>




</defs>

<defs>
</defs>
<path d="M 969 843 L 962 837 C 943 870 808 1258 808 1258 C 743 1352 685 1411 635 1436 C 607 1450 548 1449 458 1432 C 446 1426 390 1417 290 1405 C 282 1397 505 576 511 575 L 510 575 L 483 565 L 488 525 C 488 525 515 501 518 476 C 521 452 541 412 543 383 C 546 354 551 282 604 258 C 735 201 764 328 769 404 C 772 410 820 525 823 538 C 826 550 819 557 819 557 C 823 563 833 578 837 584 C 837 584 903 660 942 736 C 958 768 969 843 969 843 Z" fill="#431d22" id="id-male-4_looter_cape_red_back-0">
</path>
<defs>
<linearGradient x1="50%" y1="6%" x2="50%" y2="100%" id="id-male-6.6_base_3-0">
<stop stop-color="#b37355" offset="0%">
</stop>
<stop stop-color="#c58b67" offset="8%">
</stop>
<stop stop-color="#a5684c" offset="20%">
</stop>
<stop stop-color="#975844" offset="34%">
</stop>
<stop stop-color="#934f3c" offset="71%">
</stop>
<stop stop-color="#602521" offset="100%">
</stop>
</linearGradient>
<linearGradient x1="50%" y1="-10%" x2="50%" y2="84%" id="id-male-6.6_base_3-1">
<stop stop-color="#a86549" offset="0%">
</stop>
<stop stop-color="#c1845e" offset="49%">
</stop>
<stop stop-color="#ab6a54" offset="100%">
</stop>
</linearGradient>
<linearGradient x1="57%" y1="50%" x2="47%" y2="56%" id="id-male-6.6_base_3-2">
<stop stop-color="#7a3a33" offset="0%">
</stop>
<stop stop-color="#783731" offset="100%">
</stop>
</linearGradient>
<linearGradient x1="45%" y1="35%" x2="55%" y2="47%" id="id-male-6.6_base_3-3">
<stop stop-color="#a66552" offset="0%">
</stop>
<stop stop-color="#824237" offset="100%">
</stop>
</linearGradient>
<linearGradient x1="54%" y1="31%" x2="47%" y2="81%" id="id-male-6.6_base_3-4">
<stop stop-color="#a5684e" offset="0%">
</stop>
<stop stop-color="#a7644c" offset="20%">
</stop>
<stop stop-color="#8a4938" offset="71%">
</stop>
<stop stop-color="#854739" offset="81%">
</stop>
<stop stop-color="#824036" offset="100%">
</stop>
</linearGradient>
<linearGradient x1="43%" y1="38%" x2="54%" y2="44%" id="id-male-6.6_base_3-5">
<stop stop-color="#aa6548" offset="0%">
</stop>
<stop stop-color="#9e5b43" offset="100%">
</stop>
</linearGradient>
<linearGradient x1="46%" y1="8%" x2="58%" y2="82%" id="id-male-6.6_base_3-6">
<stop stop-color="#c9906f" offset="0%">
</stop>
<stop stop-color="#a45848" offset="100%">
</stop>
</linearGradient>
<linearGradient x1="50%" y1="41%" x2="49%" y2="65%" id="id-male-6.6_base_3-7">
<stop stop-color="#622b30" offset="0%">
</stop>
<stop stop-color="#a8594b" offset="27%">
</stop>
<stop stop-color="#ab6f54" offset="100%">
</stop>
</linearGradient>
<linearGradient x1="63%" y1="4%" x2="25%" y2="77%" id="id-male-6.6_base_3-8">
<stop stop-color="#d2a185" offset="0%">
</stop>
<stop stop-color="#d5a88f" offset="55%">
</stop>
<stop stop-color="#b97a5d" offset="100%">
</stop>
</linearGradient>
<linearGradient x1="50%" y1="23%" x2="41%" y2="77%" id="id-male-6.6_base_3-9">
<stop stop-color="#7f3531" offset="0%">
</stop>
<stop stop-color="#9d4d4c" offset="100%">
</stop>
</linearGradient>
<linearGradient x1="47%" y1="22%" x2="55%" y2="89%" id="id-male-6.6_base_3-10">
<stop stop-color="#b57159" offset="0%">
</stop>
<stop stop-color="#bc8971" offset="100%">
</stop>
</linearGradient>
<linearGradient x1="86%" y1="87%" x2="11%" y2="66%" id="id-male-6.6_base_3-11">
<stop stop-color="#9e5c4a" offset="0%">
</stop>
<stop stop-color="#8c4e40" offset="100%">
</stop>
</linearGradient>
<linearGradient x1="71%" y1="11%" x2="50%" y2="100%" id="id-male-6.6_base_3-12">
<stop stop-color="#b27255" offset="0%">
</stop>
<stop stop-color="#a5684c" offset="100%" stop-opacity="0">
</stop>
</linearGradient>
<linearGradient x1="66%" y1="46%" x2="56%" y2="43%" id="id-male-6.6_base_3-13">
<stop stop-color="#8e5040" offset="0%">
</stop>
<stop stop-color="#7d403a" offset="100%">
</stop>
</linearGradient>
<linearGradient x1="100%" y1="41%" x2="50%" y2="63%" id="id-male-6.6_base_3-14">
<stop stop-color="#712725" offset="0%">
</stop>
<stop stop-color="#732825" offset="100%">
</stop>
</linearGradient>
<linearGradient x1="69%" y1="20%" x2="50%" y2="100%" id="id-male-6.6_base_3-15">
<stop stop-color="#925342" offset="0%">
</stop>
<stop stop-color="#9d5a48" offset="100%">
</stop>
</linearGradient>
<linearGradient x1="36%" y1="20%" x2="57%" y2="81%" id="id-male-6.6_base_3-16">
<stop stop-color="#b07254" offset="0%">
</stop>
<stop stop-color="#b37355" offset="100%">
</stop>
</linearGradient>
<linearGradient x1="26%" y1="83%" x2="92%" y2="50%" id="id-male-6.6_base_3-17">
<stop stop-color="#c48864" offset="0%" stop-opacity="0">
</stop>
<stop stop-color="#c38b6b" offset="99%">
</stop>
</linearGradient>
<linearGradient x1="17%" y1="56%" x2="85%" y2="45%" id="id-male-6.6_base_3-18">
<stop stop-color="#d0a183" offset="0%" stop-opacity="0">
</stop>
<stop stop-color="#d0a183" offset="51%">
</stop>
<stop stop-color="#c68e6e" offset="100%">
</stop>
</linearGradient>
<linearGradient x1="17%" y1="24%" x2="74%" y2="87%" id="id-male-6.6_base_3-19">
<stop stop-color="#c78e6c" offset="0%">
</stop>
<stop stop-color="#b87755" offset="100%">
</stop>
</linearGradient>
<linearGradient x1="26%" y1="42%" x2="80%" y2="75%" id="id-male-6.6_base_3-20">
<stop stop-color="#d9b09c" offset="0%">
</stop>
<stop stop-color="#d5a88f" offset="100%" stop-opacity="0">
</stop>
</linearGradient>
<linearGradient x1="29%" y1="56%" x2="77%" y2="50%" id="id-male-6.6_base_3-21">
<stop stop-color="#cda484" offset="0%">
</stop>
<stop stop-color="#cb9d7c" offset="100%" stop-opacity="0">
</stop>
</linearGradient>
<linearGradient x1="74%" y1="24%" x2="34%" y2="74%" id="id-male-6.6_base_3-22">
<stop stop-color="#c38260" offset="0%">
</stop>
<stop stop-color="#c58865" offset="100%">
</stop>
</linearGradient>
<linearGradient x1="66%" y1="100%" x2="40%" y2="0%" id="id-male-6.6_base_3-23">
<stop stop-color="#bc7a58" offset="0%">
</stop>
<stop stop-color="#d7aa98" offset="46%">
</stop>
<stop stop-color="#c28360" offset="100%">
</stop>
</linearGradient>
<linearGradient x1="52%" y1="13%" x2="59%" y2="75%" id="id-male-6.6_base_3-24">
<stop stop-color="#92463b" offset="0%">
</stop>
<stop stop-color="#af684f" offset="100%">
</stop>
</linearGradient>
<linearGradient x1="28%" y1="76%" x2="73%" y2="20%" id="id-male-6.6_base_3-25">
<stop stop-color="#b87356" offset="0%">
</stop>
<stop stop-color="#91453a" offset="67%">
</stop>
<stop stop-color="#a15745" offset="100%">
</stop>
</linearGradient>
<linearGradient x1="50%" y1="0%" x2="50%" y2="100%" id="id-male-6.6_base_3-26">
<stop stop-color="#9a5242" offset="0%">
</stop>
<stop stop-color="#6c2b27" offset="100%">
</stop>
</linearGradient>
<linearGradient x1="66%" y1="59%" x2="24%" y2="66%" id="id-male-6.6_base_3-27">
<stop stop-color="#a36149" offset="0%">
</stop>
<stop stop-color="#c07f5d" offset="100%">
</stop>
</linearGradient>
<linearGradient x1="41%" y1="11%" x2="55%" y2="61%" id="id-male-6.6_base_3-28">
<stop stop-color="#cd9781" offset="0%">
</stop>
<stop stop-color="#b4705c" offset="100%">
</stop>
</linearGradient>
<linearGradient x1="19%" y1="58%" x2="66%" y2="43%" id="id-male-6.6_base_3-29">
<stop stop-color="#d3a389" offset="0%">
</stop>
<stop stop-color="#c38761" offset="100%">
</stop>
</linearGradient>
<linearGradient x1="73%" y1="50%" x2="30%" y2="53%" id="id-male-6.6_base_3-30">
<stop stop-color="#9b5f42" offset="0%">
</stop>
<stop stop-color="#b67b61" offset="100%">
</stop>
</linearGradient>
<linearGradient x1="31%" y1="0%" x2="50%" y2="100%" id="id-male-6.6_base_3-31">
<stop stop-color="#d5a897" offset="0%">
</stop>
<stop stop-color="#d1a08e" offset="100%">
</stop>
</linearGradient>
<linearGradient x1="29%" y1="43%" x2="65%" y2="100%" id="id-male-6.6_base_3-32">
<stop stop-color="#d29d85" offset="0%">
</stop>
<stop stop-color="#c18265" offset="100%">
</stop>
</linearGradient>
<linearGradient x1="13%" y1="78%" x2="84%" y2="50%" id="id-male-6.6_base_3-33">
<stop stop-color="#b77456" offset="0%">
</stop>
<stop stop-color="#aa6244" offset="100%">
</stop>
</linearGradient>
<linearGradient x1="50%" y1="0%" x2="36%" y2="100%" id="id-male-6.6_base_3-34">
<stop stop-color="#d1a187" offset="0%">
</stop>
<stop stop-color="#cc957e" offset="100%">
</stop>
</linearGradient>
<linearGradient x1="50%" y1="28%" x2="64%" y2="55%" id="id-male-6.6_base_3-35">
<stop stop-color="#cf9d80" offset="0%">
</stop>
<stop stop-color="#c38869" offset="100%">
</stop>
</linearGradient>
<linearGradient x1="40%" y1="55%" x2="62%" y2="71%" id="id-male-6.6_base_3-36">
<stop stop-color="#b47251" offset="0%">
</stop>
<stop stop-color="#ba7b58" offset="100%">
</stop>
</linearGradient>
<linearGradient x1="9%" y1="37%" x2="88%" y2="55%" id="id-male-6.6_base_3-37">
<stop stop-color="#9d5d46" offset="0%">
</stop>
<stop stop-color="#86473b" offset="100%">
</stop>
</linearGradient>
<linearGradient x1="62%" y1="19%" x2="50%" y2="100%" id="id-male-6.6_base_3-38">
<stop stop-color="#b06a4d" offset="0%">
</stop>
<stop stop-color="#8e483a" offset="100%">
</stop>
</linearGradient>
<linearGradient x1="45%" y1="18%" x2="51%" y2="67%" id="id-male-6.6_base_3-39">
<stop stop-color="#d29f88" offset="0%">
</stop>
<stop stop-color="#be7f5d" offset="100%">
</stop>
</linearGradient>
<linearGradient x1="50%" y1="43%" x2="50%" y2="100%" id="id-male-6.6_base_3-40">
<stop stop-color="#ca9076" offset="0%">
</stop>
<stop stop-color="#ab6344" offset="100%">
</stop>
</linearGradient>
<linearGradient x1="45%" y1="50%" x2="58%" y2="50%" id="id-male-6.6_base_3-41">
<stop stop-color="#9d5d49" offset="0%">
</stop>
<stop stop-color="#be836d" offset="100%">
</stop>
</linearGradient>
<linearGradient x1="33%" y1="74%" x2="77%" y2="42%" id="id-male-6.6_base_3-42">
<stop stop-color="#a8644f" offset="0%">
</stop>
<stop stop-color="#b6765a" offset="100%">
</stop>
</linearGradient>
<linearGradient x1="63%" y1="59%" x2="38%" y2="59%" id="id-male-6.6_base_3-43">
<stop stop-color="#a86451" offset="0%">
</stop>
<stop stop-color="#b77154" offset="100%">
</stop>
</linearGradient>
<linearGradient x1="50%" y1="0%" x2="50%" y2="100%" id="id-male-6.6_base_3-44">
<stop stop-color="#bd907d" offset="0%">
</stop>
<stop stop-color="#9e5744" offset="100%">
</stop>
</linearGradient>
<linearGradient x1="47%" y1="47%" x2="53%" y2="50%" id="id-male-6.6_base_3-45">
<stop stop-color="#c19b86" offset="0%">
</stop>
<stop stop-color="#9e5744" offset="100%">
</stop>
</linearGradient>
<linearGradient x1="50%" y1="0%" x2="50%" y2="100%" id="id-male-6.6_base_3-46">
<stop stop-color="#ac6553" offset="0%">
</stop>
<stop stop-color="#9e5644" offset="100%">
</stop>
</linearGradient>
<linearGradient x1="50%" y1="0%" x2="50%" y2="100%" id="id-male-6.6_base_3-47">
<stop stop-color="#b28775" offset="0%">
</stop>
<stop stop-color="#b68776" offset="100%">
</stop>
</linearGradient>
<linearGradient x1="0%" y1="55%" x2="100%" y2="55%" id="id-male-6.6_base_3-48">
<stop stop-color="#a2675e" offset="0%">
</stop>
<stop stop-color="#8f4f4c" offset="100%">
</stop>
</linearGradient>
<linearGradient x1="50%" y1="0%" x2="50%" y2="100%" id="id-male-6.6_base_3-49">
<stop stop-color="#af8873" offset="0%">
</stop>
<stop stop-color="#93493e" offset="100%">
</stop>
</linearGradient>
<linearGradient x1="49%" y1="20%" x2="52%" y2="96%" id="id-male-6.6_base_3-50">
<stop stop-color="#9b5650" offset="0%">
</stop>
<stop stop-color="#984d3f" offset="100%">
</stop>
</linearGradient>
<linearGradient x1="50%" y1="0%" x2="50%" y2="100%" id="id-male-6.6_base_3-51">
<stop stop-color="#5a1d24" offset="0%">
</stop>
<stop stop-color="#72332b" offset="100%">
</stop>
</linearGradient>
<linearGradient x1="33%" y1="47%" x2="59%" y2="56%" id="id-male-6.6_base_3-52">
<stop stop-color="#8e4d39" offset="0%">
</stop>
<stop stop-color="#7c3a31" offset="100%">
</stop>
</linearGradient>
</defs>
<g transform="translate(304,473)" id="id-male-6.6_base_3-53">
<polygon points="174 662 139 824 137 906 146 1082 171 1154 176 1211 174 1230 175 1284 287 1284 284 1265 308 1195 306 1124 345 952 343 912 353 879 362 881 371 877 383 904 391 970 434 1079 457 1202 475 1252 475 1284 596 1284 600 1225 591 1146 609 1103 612 997 596 842 545 671 539 640 528 606 531 569 509 498 522 403 539 360 539 348 563 464 576 498 585 574 637 704 646 760 646 778 626 822 624 853 631 879 629 901 632 920 637 931 647 931 657 920 655 877 659 867 670 874 672 899 676 903 667 923 644 934 643 945 666 939 664 948 643 960 640 982 657 971 674 969 690 945 701 933 704 926 707 923 713 892 718 871 704 832 696 786 703 768 693 725 693 521 652 425 629 282 626 203 612 175 567 156 548 141 530 139 479 114 422 73 416 42 415 1 285 0 284 73 279 83 242 114 196 137 171 139 155 156 108 175 91 228 91 287 68 431 30 516 23 602 28 725 16 764 21 782 0 874 18 932 49 968 59 970 83 982 83 965 78 960 57 949 55 941 78 948 78 936 66 929 53 923 45 906 51 875 61 866 66 877 63 922 75 927 86 925 93 899 90 877 96 856 96 824 75 778 77 738 108 637 139 562 142 495 159 458 180 358 199 403 203 461 211 504 188 564 191 608" fill="url(#id-male-6.6_base_3-0)" id="id-male-6.6_base_3-54">
</polygon>
<polygon points="91 287 68 431 30 516 23 602 72 688 117 614 98 452 109 469 123 336 102 372 109 294 88 309 109 285" fill="url(#id-male-6.6_base_3-1)" id="id-male-6.6_base_3-54">
</polygon>
<polygon points="383 906 391 972 434 1081 457 1204 475 1254 475 1287 596 1287 600 1226 591 1148 609 1105 612 999 602 904 584 908 584 846 535 683 456 705 382 878" fill="url(#id-male-6.6_base_3-2)" id="id-male-6.6_base_3-54">
</polygon>
<polygon points="137 907 146 1083 171 1156 176 1212 174 1232 175 1286 175 1287 287 1287 284 1266 308 1197 306 1126 345 954 343 923 293 814 263 724 247 711" fill="url(#id-male-6.6_base_3-3)" id="id-male-6.6_base_3-54">
</polygon>
<polygon points="545 673 539 641 528 608 531 571 509 500 522 405 539 361 539 350 563 465 576 500 601 540 660 491 688 529 652 427 629 283 626 205 612 177 568 157 548 142 530 141 479 116 422 75 416 44 415 3 360 3 360 715 462 724" fill="url(#id-male-6.6_base_3-4)" id="id-male-6.6_base_3-54">
</polygon>
<polygon points="83 984 59 972 49 970 21 932 19 903 7 879 0 874 11 824 38 786 38 814 56 786 78 800 91 822 83 879 69 882 63 855 51 877 45 908 47 930 37 930 50 938 53 954 49 960 56 956 83 973" fill="#b1684a" id="id-male-6.6_base_3-59">
</polygon>
<polygon points="66 855 69 882 63 855 51 877 45 908 42 870 58 825" fill="url(#id-male-6.6_base_3-5)" id="id-male-6.6_base_3-59">
</polygon>
<polygon points="83 879 69 882 70 868" fill="#c7846a" id="id-male-6.6_base_3-59">
</polygon>
<polygon points="481 376 513 349 558 291 522 368" fill="#885f60" id="id-male-6.6_base_3-62">
</polygon>
<polygon points="313 697 260 560 246 448 259 424 355 408 361 366 317 404 285 409 267 378 313 343 394 351 431 378 420 404 368 399 371 404 449 421 466 441 449 510 466 547 406 697 358 717" fill="url(#id-male-6.6_base_3-6)" id="id-male-6.6_base_3-63">
</polygon>
<polygon points="410 90 430 82 423 76 416 45 416 7 286 9 286 48 283 76 278 86 244 114 195 139 366 139 390 70 410 26" fill="url(#id-male-6.6_base_3-7)" id="id-male-6.6_base_3-64">
</polygon>
<polygon points="182 180 133 231 97 289 97 231 113 182 165 159" fill="url(#id-male-6.6_base_3-8)" id="id-male-6.6_base_3-65">
</polygon>
<polygon points="346 107 384 55 409 31 414 23 299 31" fill="url(#id-male-6.6_base_3-9)" id="id-male-6.6_base_3-66">
</polygon>
<polygon points="287 93 295 32 323 129" fill="url(#id-male-6.6_base_3-10)" id="id-male-6.6_base_3-67">
</polygon>
<polygon points="336 139 314 151 270 146 224 139" fill="#e2b4a4" id="id-male-6.6_base_3-68">
</polygon>
<polygon points="410 84 409 136 461 129" fill="url(#id-male-6.6_base_3-11)" id="id-male-6.6_base_3-69">
</polygon>
<polygon points="173 246 167 286 191 351 263 386 328 330 359 330 359 152 348 139 336 139 309 152" fill="url(#id-male-6.6_base_3-12)" id="id-male-6.6_base_3-70">
</polygon>
<polygon points="464 159 516 190 500 159" fill="url(#id-male-6.6_base_3-13)" id="id-male-6.6_base_3-71">
</polygon>
<polygon points="302 31 346 72 382 62 409 37 416 28 416 13" fill="url(#id-male-6.6_base_3-14)" id="id-male-6.6_base_3-72">
</polygon>
<polygon points="263 151 191 202 219 151" fill="#b17054" id="id-male-6.6_base_3-73">
</polygon>
<polygon points="154 206 170 170 122 188" fill="#deb7a9" id="id-male-6.6_base_3-74">
</polygon>
<polygon points="358 285 344 299 323 318 305 354 358 345 354 305" fill="url(#id-male-6.6_base_3-15)" id="id-male-6.6_base_3-75">
</polygon>
<polygon points="260 361 265 387 203 371 191 347" fill="#94523b" id="id-male-6.6_base_3-76">
</polygon>
<polygon points="198 362 181 359 167 284" fill="#5e2227" id="id-male-6.6_base_3-77">
</polygon>
<polygon points="477 341 477 335 488 326 496 325 509 338 496 348 485 354" fill="#5d2221" id="id-male-6.6_base_3-78">
</polygon>
<polygon points="314 151 342 220 317 293 237 351 209 318 172 251 185 205 270 146" fill="url(#id-male-6.6_base_3-16)" id="id-male-6.6_base_3-79">
</polygon>
<polygon points="314 151 330 238 209 318 172 251 185 205 270 146" fill="url(#id-male-6.6_base_3-17)" id="id-male-6.6_base_3-79">
</polygon>
<polygon points="314 151 350 205 220 227 185 205 270 146" fill="url(#id-male-6.6_base_3-18)" opacity="0.369" id="id-male-6.6_base_3-79">
</polygon>
<polygon points="211 335 223 322 242 327 244 332 235 353 213 349" fill="#642b26" id="id-male-6.6_base_3-82">
</polygon>
<polygon points="224 339 226 342 226 345 222 349 235 350 242 333 230 338 227 335" fill="#70434f" id="id-male-6.6_base_3-83">
</polygon>
<polygon points="488 343 491 347 486 351 479 338 489 327 495 327 493 336" fill="#6f373c" id="id-male-6.6_base_3-84">
</polygon>
<polygon points="485 339 488 343 493 337" fill="#92523e" id="id-male-6.6_base_3-85">
</polygon>
<polygon points="359 162 359 291 406 325 455 347 529 267 463 182 415 166" fill="url(#id-male-6.6_base_3-19)" id="id-male-6.6_base_3-86">
</polygon>
<polygon points="359 178 359 281 391 302 391 249 489 270 461 189 415 166" fill="url(#id-male-6.6_base_3-20)" id="id-male-6.6_base_3-86">
</polygon>
<polygon points="359 178 359 219 472 220 461 189 415 166 371 163" fill="url(#id-male-6.6_base_3-21)" id="id-male-6.6_base_3-86">
</polygon>
<polygon points="358 178 372 168 440 156 413 137 378 158 411 80 396 60 358 146" fill="url(#id-male-6.6_base_3-22)" id="id-male-6.6_base_3-89">
</polygon>
<polygon points="346 140 358 152 372 129 400 48 369 86 364 130" fill="#d3a08c" id="id-male-6.6_base_3-90">
</polygon>
<polygon points="591 281 601 226 559 159 514 159 523 138 499 156 571 263" fill="url(#id-male-6.6_base_3-23)" id="id-male-6.6_base_3-91">
</polygon>
<polygon points="609 298 626 332 629 285 627 227 614 207 617 251" fill="#8581a0" id="id-male-6.6_base_3-92">
</polygon>
<polygon points="554 159 567 157 612 177 614 192 579 175 603 207 601 226" fill="#b67758" id="id-male-6.6_base_3-93">
</polygon>
<polygon points="641 823 648 826 697 896 713 873 682 781" fill="url(#id-male-6.6_base_3-24)" id="id-male-6.6_base_3-94">
</polygon>
<polygon points="625 840 700 762 688 738 679 784 648 776 626 822" fill="url(#id-male-6.6_base_3-25)" id="id-male-6.6_base_3-94">
</polygon>
<polygon points="648 862 648 845 661 825 661 870 654 878 657 922 652 929 637 929 632 914 632 893 632 877 644 888" fill="#94473b" id="id-male-6.6_base_3-96">
</polygon>
<polygon points="554 375 577 333 607 451 594 508 568 462" fill="#bb7966" id="id-male-6.6_base_3-97">
</polygon>
<polygon points="623 326 643 425 633 431 693 523 652 427 636 326 625 315" fill="#7b779a" id="id-male-6.6_base_3-98">
</polygon>
<polygon points="628 274 638 339 623 314" fill="#6f393c" id="id-male-6.6_base_3-99">
</polygon>
<polygon points="693 523 695 567 685 525 618 416 633 431" fill="#8d4e3b" id="id-male-6.6_base_3-100">
</polygon>
<polygon points="640 463 599 539 601 571 634 655 646 703 650 754 658 640 660 491" fill="#bd7b5a" id="id-male-6.6_base_3-101">
</polygon>
<polygon points="610 531 648 646 652 546 638 479" fill="#cb937c" id="id-male-6.6_base_3-101">
</polygon>
<polygon points="693 748 677 730 677 700 660 491 685 525 691 552 684 727" fill="url(#id-male-6.6_base_3-26)" id="id-male-6.6_base_3-103">
</polygon>
<polygon points="691 746 703 768 693 727 695 567 691 551 683 727" fill="#7e97bd" id="id-male-6.6_base_3-104">
</polygon>
<polygon points="260 559 310 683 355 716 263 713 238 685 195 582" fill="url(#id-male-6.6_base_3-27)" id="id-male-6.6_base_3-105">
</polygon>
<polygon points="637 931 636 919 639 914 653 914 653 922 651 929 648 931 644 933" fill="#9b5543" id="id-male-6.6_base_3-106">
</polygon>
<polygon points="637 861 637 882 641 890 653 886 649 861" fill="#a35b48" id="id-male-6.6_base_3-107">
</polygon>
<polygon points="691 871 693 912 688 936 669 956 671 965 696 924 696 909 705 877" fill="#ae664f" id="id-male-6.6_base_3-108">
</polygon>
<polygon points="703 768 684 788 693 837 712 873 702 908 701 933 707 925 718 873 704 834 697 788" fill="#824336" id="id-male-6.6_base_3-109">
</polygon>
<polygon points="667 939 643 946 644 934 657 928 667 922 676 903 672 899 670 874 660 870 660 854 671 867 680 873 680 902 677 920" fill="#77342e" id="id-male-6.6_base_3-110">
</polygon>
<polygon points="361 510 359 634 426 561 420 535" fill="url(#id-male-6.6_base_3-28)" opacity="0.626" id="id-male-6.6_base_3-111">
</polygon>
<polygon points="319 403 289 399 268 380 313 343 361 348 362 372" fill="url(#id-male-6.6_base_3-29)" id="id-male-6.6_base_3-112">
</polygon>
<polygon points="171 141 168 151 180 151 204 139 196 138" fill="url(#id-male-6.6_base_3-30)" id="id-male-6.6_base_3-113">
</polygon>
<polygon points="359 308 362 360 382 334" fill="#bb7863" opacity="0.625" id="id-male-6.6_base_3-114">
</polygon>
<polygon points="360 546 360 584 387 551 374 540" fill="url(#id-male-6.6_base_3-31)" opacity="0.626" id="id-male-6.6_base_3-115">
</polygon>
<polygon points="346 542 360 547 373 540 360 534" fill="#763735" id="id-male-6.6_base_3-116">
</polygon>
<polygon points="325 545 277 503 259 561 308 579" fill="url(#id-male-6.6_base_3-32)" opacity="0.758" id="id-male-6.6_base_3-117">
</polygon>
<polygon points="389 499 460 467 449 510 404 520" fill="url(#id-male-6.6_base_3-33)" id="id-male-6.6_base_3-118">
</polygon>
<polygon points="364 491 361 403 420 428" fill="url(#id-male-6.6_base_3-34)" opacity="0.758" id="id-male-6.6_base_3-119">
</polygon>
<polygon points="262 446 333 446 323 469 279 492" fill="url(#id-male-6.6_base_3-35)" opacity="0.758" id="id-male-6.6_base_3-120">
</polygon>
<polygon points="259 425 279 496 259 561 236 528 213 443 227 425 243 447" fill="url(#id-male-6.6_base_3-36)" id="id-male-6.6_base_3-121">
</polygon>
<polygon points="412 343 444 374 466 383 499 351 447 354 416 339" fill="url(#id-male-6.6_base_3-37)" id="id-male-6.6_base_3-122">
</polygon>
<polygon points="164 252 163 278 128 284" fill="#85483c" id="id-male-6.6_base_3-123">
</polygon>
<polygon points="58 478 88 441 88 416 69 430 66 456" fill="url(#id-male-6.6_base_3-38)" id="id-male-6.6_base_3-124">
</polygon>
<polygon points="76 684 69 634 61 517 89 474 111 569" fill="url(#id-male-6.6_base_3-39)" id="id-male-6.6_base_3-125">
</polygon>
<polygon points="53 489 47 539 69 635 76 684 53 760 40 781 16 766 28 727 23 604 28 544" fill="url(#id-male-6.6_base_3-40)" id="id-male-6.6_base_3-126">
</polygon>
<polygon points="136 452 127 497 153 460 177 340 170 300" fill="#965744" id="id-male-6.6_base_3-127">
</polygon>
<polygon points="181 359 159 460 143 497 142 514 123 532 109 514 108 490 127 497 153 460 177 340" fill="#8d4e42" id="id-male-6.6_base_3-127">
</polygon>
<polygon points="38 747 28 772 38 788 44 772" fill="#bb775c" id="id-male-6.6_base_3-129">
</polygon>
<polygon points="359 379 342 413 361 444 377 417" fill="url(#id-male-6.6_base_3-41)" id="id-male-6.6_base_3-130">
</polygon>
<polygon points="196 581 260 561 229 519" fill="url(#id-male-6.6_base_3-42)" id="id-male-6.6_base_3-131">
</polygon>
<polygon points="74 929 66 925 69 909 78 905 86 912 83 928" fill="url(#id-male-6.6_base_3-43)" id="id-male-6.6_base_3-132">
</polygon>
<polygon points="20 903 7 880 21 851 28 871" fill="#c78167" id="id-male-6.6_base_3-133">
</polygon>
<polygon points="218 1123 203 1040 191 913 171 1090 182 1169 230 1208 261 1237 270 1213 234 1175 212 1157 272 1191 281 1169" fill="url(#id-male-6.6_base_3-44)" opacity="0.808" id="id-male-6.6_base_3-134">
</polygon>
<polygon points="182 1207 181 1155 213 1106 236 1166 230 1210" fill="#a8614d" id="id-male-6.6_base_3-135">
</polygon>
<polygon points="187 902 211 1137 227 1161 275 1187 299 1137 272 1009 299 918 269 791 211 836" fill="url(#id-male-6.6_base_3-45)" id="id-male-6.6_base_3-136">
</polygon>
<polygon points="288 1079 311 1040 311 942 295 903 264 1019 275 1188 301 1137" fill="url(#id-male-6.6_base_3-46)" id="id-male-6.6_base_3-137">
</polygon>
<polygon points="584 908 604 1008 608 1106 614 998 599 887" fill="#848bb1" id="id-male-6.6_base_3-138">
</polygon>
<polygon points="430 886 488 1140 535 1115 561 925 566 886 536 816 500 786" fill="url(#id-male-6.6_base_3-47)" opacity="0.792" id="id-male-6.6_base_3-139">
</polygon>
<polygon points="581 921 588 1011 584 1112 576 1162 544 1046 566 886" fill="url(#id-male-6.6_base_3-48)" id="id-male-6.6_base_3-140">
</polygon>
<polygon points="561 1247 518 1200 472 1112 494 931 505 931 594 1188 579 1244" fill="url(#id-male-6.6_base_3-49)" id="id-male-6.6_base_3-141">
</polygon>
<polygon points="531 1221 539 1263 536 1269 516 1287 509 1287 500 1263 513 1199 488 1226 462 1170 472 1101 427 1010 398 877 469 771 518 739 536 818 500 787 433 890 477 1078 534 1212" fill="url(#id-male-6.6_base_3-50)" id="id-male-6.6_base_3-142">
</polygon>
<polygon points="321 1058 284 852 258 721 266 733 371 879 362 883 354 881 343 914 345 954" fill="#995346" id="id-male-6.6_base_3-143">
</polygon>
<polygon points="429 1068 424 875 536 705 454 704 380 865 384 906 391 972" fill="#9e5752" opacity="0.394" id="id-male-6.6_base_3-144">
</polygon>
<polygon points="175 1262 194 1287 206 1287 225 1226 213 1249 175 1221 174 1232" fill="#743428" id="id-male-6.6_base_3-145">
</polygon>
<polygon points="528 1227 554 1234 569 1169 549 1168" fill="#ac7064" id="id-male-6.6_base_3-146">
</polygon>
<polygon points="546 678 545 672 539 641 528 608 531 571 509 500 522 405 539 361 539 350 547 389 542 330 558 289 517 369 528 369 517 411 499 442 509 465 488 531 507 525 522 585 449 724" fill="url(#id-male-6.6_base_3-51)" id="id-male-6.6_base_3-54">
</polygon>
<polygon points="402 722 490 609 522 585 449 723" fill="#94493c" id="id-male-6.6_base_3-148">
</polygon>
<polygon points="174 664 139 826 137 907 139 937 238 690 352 886 354 881 362 883 371 879 383 906 471 773 548 712 596 844 545 673 539 641 478 697 449 723 278 705 232 657 188 566 191 610" fill="url(#id-male-6.6_base_3-52)" id="id-male-6.6_base_3-54">
</polygon>
<polygon points="189 616 211 620 190 586 190 609" fill="#813f3a" id="id-male-6.6_base_3-150">
</polygon>
<polygon points="139 836 225 709 167 697 139 826" fill="#753e2a" id="id-male-6.6_base_3-151">
</polygon>
<polygon points="518 734 596 843 547 678" fill="#622b30" id="id-male-6.6_base_3-152">
</polygon>
<polygon points="415 778 447 726 314 744 329 762" fill="#a6564c" opacity="0.52" id="id-male-6.6_base_3-54">
</polygon>
<polygon points="411 685 463 666 456 573" fill="#7a3b33" id="id-male-6.6_base_3-154">
</polygon>
</g>
<defs>
<linearGradient x1="53%" y1="5%" x2="47%" y2="91%" id="id-male-6.8_face_3-0">
<stop stop-color="#932126" offset="0%">
</stop>
<stop stop-color="#873f39" offset="82%">
</stop>
<stop stop-color="#9e5e4f" offset="100%">
</stop>
</linearGradient>
<linearGradient x1="62%" y1="61%" x2="50%" y2="36%" id="id-male-6.8_face_3-1">
<stop stop-color="#ba6e61" offset="0%">
</stop>
<stop stop-color="#4d1217" offset="100%">
</stop>
</linearGradient>
<linearGradient x1="50%" y1="13%" x2="57%" y2="81%" id="id-male-6.8_face_3-2">
<stop stop-color="#885154" offset="0%">
</stop>
<stop stop-color="#9e5e4f" offset="52%">
</stop>
<stop stop-color="#d79898" offset="100%">
</stop>
</linearGradient>
<linearGradient x1="50%" y1="0%" x2="54%" y2="88%" id="id-male-6.8_face_3-3">
<stop stop-color="#8b2f27" offset="0%">
</stop>
<stop stop-color="#803a2b" offset="100%">
</stop>
</linearGradient>
<linearGradient x1="36%" y1="75%" x2="36%" y2="18%" id="id-male-6.8_face_3-4">
<stop stop-color="#6f3938" offset="0%">
</stop>
<stop stop-color="#590f13" offset="100%">
</stop>
</linearGradient>
<linearGradient x1="33%" y1="21%" x2="62%" y2="79%" id="id-male-6.8_face_3-5">
<stop stop-color="#a56757" offset="0%">
</stop>
<stop stop-color="#b57363" offset="10%">
</stop>
<stop stop-color="#b9735d" offset="53%">
</stop>
<stop stop-color="#d0907a" offset="70%">
</stop>
<stop stop-color="#aa6e5a" offset="88%">
</stop>
<stop stop-color="#ad7464" offset="100%">
</stop>
</linearGradient>
<linearGradient x1="28%" y1="56%" x2="79%" y2="54%" id="id-male-6.8_face_3-6">
<stop stop-color="#c89a8a" offset="0%">
</stop>
<stop stop-color="#e0ad98" offset="16%">
</stop>
<stop stop-color="#c08c7d" offset="100%">
</stop>
</linearGradient>
<linearGradient x1="68%" y1="59%" x2="18%" y2="46%" id="id-male-6.8_face_3-7">
<stop stop-color="#b78372" offset="0%">
</stop>
<stop stop-color="#b4786a" offset="100%">
</stop>
</linearGradient>
<linearGradient x1="26%" y1="17%" x2="91%" y2="50%" id="id-male-6.8_face_3-8">
<stop stop-color="#945344" offset="0%">
</stop>
<stop stop-color="#b3715e" offset="16%">
</stop>
<stop stop-color="#cb8c74" offset="51%">
</stop>
<stop stop-color="#935a4f" offset="100%">
</stop>
</linearGradient>
<linearGradient x1="45%" y1="16%" x2="52%" y2="84%" id="id-male-6.8_face_3-9">
<stop stop-color="#9f6554" offset="0%">
</stop>
<stop stop-color="#925343" offset="100%">
</stop>
</linearGradient>
<linearGradient x1="91%" y1="32%" x2="50%" y2="77%" id="id-male-6.8_face_3-10">
<stop stop-color="#9d6655" offset="0%">
</stop>
<stop stop-color="#a96c5d" offset="100%">
</stop>
</linearGradient>
<linearGradient x1="72%" y1="40%" x2="61%" y2="55%" id="id-male-6.8_face_3-11">
<stop stop-color="#734233" offset="0%">
</stop>
<stop stop-color="#ae705b" offset="100%">
</stop>
</linearGradient>
<linearGradient x1="50%" y1="33%" x2="50%" y2="100%" id="id-male-6.8_face_3-12">
<stop stop-color="#1e0d0c" offset="0%">
</stop>
<stop stop-color="#7f4d40" offset="100%">
</stop>
</linearGradient>
<linearGradient x1="34%" y1="50%" x2="87%" y2="60%" id="id-male-6.8_face_3-13">
<stop stop-color="#d09a88" offset="0%">
</stop>
<stop stop-color="#c38774" offset="100%">
</stop>
</linearGradient>
<linearGradient x1="14%" y1="54%" x2="60%" y2="65%" id="id-male-6.8_face_3-14">
<stop stop-color="#945b4b" offset="0%">
</stop>
<stop stop-color="#894336" offset="50%">
</stop>
<stop stop-color="#824937" offset="100%">
</stop>
</linearGradient>
<linearGradient x1="50%" y1="0%" x2="50%" y2="100%" id="id-male-6.8_face_3-15">
<stop stop-color="#ce9386" offset="0%">
</stop>
<stop stop-color="#c99387" offset="100%">
</stop>
</linearGradient>
<linearGradient x1="50%" y1="9%" x2="44%" y2="54%" id="id-male-6.8_face_3-16">
<stop stop-color="#c58372" offset="0%">
</stop>
<stop stop-color="#d2977f" offset="100%">
</stop>
</linearGradient>
<linearGradient x1="61%" y1="87%" x2="61%" y2="8%" id="id-male-6.8_face_3-17">
<stop stop-color="#deac9d" offset="0%" stop-opacity="0">
</stop>
<stop stop-color="#d69c96" offset="100%">
</stop>
</linearGradient>
<radialGradient cx="50%" cy="39%" r="61%" id="id-male-6.8_face_3-18" fx="50%" fy="39%" gradientTransform="translate(0.5,0.392) scale(0.254,1) rotate(90) scale(1,3) translate(-0.5,-0.392)">
<stop stop-color="#b36061" offset="0%">
</stop>
<stop stop-color="#6c2c2e" offset="100%">
</stop>
</radialGradient>
<linearGradient x1="67%" y1="12%" x2="50%" y2="100%" id="id-male-6.8_face_3-19">
<stop stop-color="#8d5644" offset="0%">
</stop>
<stop stop-color="#e0ad98" offset="100%">
</stop>
</linearGradient>
<linearGradient x1="45%" y1="50%" x2="56%" y2="52%" id="id-male-6.8_face_3-20">
<stop stop-color="#bf7357" offset="0%">
</stop>
<stop stop-color="#945741" offset="100%">
</stop>
</linearGradient>
<linearGradient x1="18%" y1="22%" x2="62%" y2="71%" id="id-male-6.8_face_3-21">
<stop stop-color="#a5624f" offset="0%">
</stop>
<stop stop-color="#c59181" offset="100%">
</stop>
</linearGradient>
<linearGradient x1="50%" y1="35%" x2="87%" y2="93%" id="id-male-6.8_face_3-22">
<stop stop-color="#eec5b7" offset="0%">
</stop>
<stop stop-color="#d1a398" offset="100%">
</stop>
</linearGradient>
<linearGradient x1="50%" y1="115%" x2="50%" y2="50%" id="id-male-6.8_face_3-23">
<stop stop-color="#925f51" offset="0%">
</stop>
<stop stop-color="#593128" offset="100%">
</stop>
</linearGradient>
<linearGradient x1="73%" y1="44%" x2="22%" y2="46%" id="id-male-6.8_face_3-24">
<stop stop-color="#1f1619" offset="0%">
</stop>
<stop stop-color="#492a2a" offset="100%">
</stop>
</linearGradient>
</defs>
<g transform="translate(548,259)" id="id-male-6.8_face_3-25">
<g id="id-male-6.8_face_3-26">
<g transform="translate(0,121)" id="id-male-6.8_face_3-27">
<polygon points="199 13 214 3 222 9 221 25 214 38 214 43 210 54 208 65 197 70 190 64" fill="url(#id-male-6.8_face_3-0)" id="id-male-6.8_face_3-28">
</polygon>
<polygon points="197 24 209 14 216 9 219 10 220 22 214 37 195 43" fill="url(#id-male-6.8_face_3-1)" id="id-male-6.8_face_3-29">
</polygon>
<polygon points="203 38 208 34 199 25 203 22 209 23 207 18 212 16 214 38 214 43 213 48 207 51 201 46" fill="url(#id-male-6.8_face_3-2)" id="id-male-6.8_face_3-28">
</polygon>
<polygon points="212 5 214 3 222 9 222 10 219 10 216 9" fill="#d497ad" id="id-male-6.8_face_3-28">
</polygon>
<polygon points="208 65 197 70 190 64 194 42 199 50 193 62 199 67" fill="#50151b" id="id-male-6.8_face_3-28">
</polygon>
<polygon points="203 62 202 54 211 50" fill="#723c31" id="id-male-6.8_face_3-33">
</polygon>
<polygon points="196 50 202 51 203 42 196 46" fill="#a06051" id="id-male-6.8_face_3-34">
</polygon>
<polygon points="194 45 199 47 202 45 202 32 197 31" fill="#561b1f" id="id-male-6.8_face_3-35">
</polygon>
<path d="M 30 70 C 24 70 20 69 19 68 C 17 66 12 52 8 46 C 4 39 2 38 1 33 C 0 30 0 21 1 6 L 8 0 L 23 9 L 30 70 Z" fill="url(#id-male-6.8_face_3-3)" id="id-male-6.8_face_3-36">
</path>
<polygon points="8 6 2 6 7 3 10 2 23 9 19 14" fill="#c9899b" id="id-male-6.8_face_3-36">
</polygon>
<path d="M 26 68 C 23 69 20 69 19 68 C 17 66 12 52 8 46 C 7 44 6 43 6 42 C 9 45 10 47 12 48 C 13 50 14 52 16 56 L 26 68 Z" fill="#7e2e28" id="id-male-6.8_face_3-36">
</path>
<polygon points="26 68 29 65 27 53 20 61" fill="#954b3f" id="id-male-6.8_face_3-36">
</polygon>
<path d="M 23 19 C 12 12 6 9 5 9 C 3 10 2 18 2 33 L 17 53 L 26 52 L 23 19 Z" fill="url(#id-male-6.8_face_3-4)" id="id-male-6.8_face_3-40">
</path>
<polygon points="12 17 19 19 18 26 15 28 22 38 21 49 12 44" fill="#9c2429" id="id-male-6.8_face_3-41">
</polygon>
<path d="M 27 53 C 16 50 10 47 8 42 C 6 38 8 30 12 17 L 15 23 C 15 36 14 42 15 43 C 15 45 18 46 25 48 L 27 53 Z" fill="#9e4f4f" id="id-male-6.8_face_3-42">
</path>
<polygon points="11 31 19 26 19 18 14 20 12 18" fill="#c07080" id="id-male-6.8_face_3-43">
</polygon>
<polygon points="20 46 17 42 22 37 25 48" fill="#6a3032" id="id-male-6.8_face_3-44">
</polygon>
</g>
<g transform="translate(18,0)" id="id-male-6.8_face_3-45">
<path d="M 20 231 C 18 227 11 201 5 153 C 3 140 2 128 1 117 C -1 91 4 63 8 49 C 9 46 16 35 16 34 C 30 20 56 0 94 0 C 157 0 178 45 181 51 C 183 57 183 111 181 144 C 178 177 162 232 160 235 C 158 239 124 261 119 264 C 113 266 74 267 69 264 C 64 261 22 235 20 231 Z" fill="url(#id-male-6.8_face_3-5)" id="id-male-6.8_face_3-46">
</path>
<polygon points="7 140 17 117 33 106 149 120 167 144 154 168 73 161 39 177 29 171" fill="url(#id-male-6.8_face_3-6)" id="id-male-6.8_face_3-47">
</polygon>
<polygon points="7 140 17 117 33 106 31 136 77 131 86 136 75 144 52 152 49 152 30 154 23 163" fill="url(#id-male-6.8_face_3-7)" id="id-male-6.8_face_3-47">
</polygon>
<path d="M 5 153 C 3 140 2 128 1 117 C -1 91 4 63 8 49 C 9 46 16 35 16 34 C 30 20 56 0 94 0 C 157 0 178 45 181 51 C 183 57 183 111 181 144 C 181 149 180 153 179 158 L 159 161 L 145 148 L 115 146 L 101 161 L 86 110 L 108 103 C 144 108 161 111 161 110 C 158 100 155 92 154 86 C 152 81 151 76 149 69 L 159 43 L 95 32 L 26 43 L 17 71 L 19 112 L 5 153 Z" fill="url(#id-male-6.8_face_3-8)" id="id-male-6.8_face_3-46">
</path>
<polygon points="39 209 44 175 39 177 29 171" fill="#b57154" id="id-male-6.8_face_3-47">
</polygon>
<path d="M 20 231 C 18 227 11 201 5 153 C 4 146 3 140 3 133 L 30 171 L 54 255 C 40 246 21 234 20 231 Z" fill="url(#id-male-6.8_face_3-9)" id="id-male-6.8_face_3-46">
</path>
<polygon points="120 214 141 194 148 212 132 249 115 262 65 259 56 251 73 255 98 256" fill="url(#id-male-6.8_face_3-10)" id="id-male-6.8_face_3-52">
</polygon>
<path d="M 20 231 C 19 230 19 228 18 225 L 69 256 L 115 258 L 131 246 L 148 209 L 145 247 C 134 254 122 262 119 264 C 113 266 74 267 69 264 C 64 261 22 235 20 231 Z" fill="#764037" id="id-male-6.8_face_3-46">
</path>
<polygon points="80 183 80 201 103 202 128 183 128 174 108 161" fill="#a66755" id="id-male-6.8_face_3-54">
</polygon>
<polygon points="99 197 98 188 119 178 132 185 139 201 121 214" fill="#be8572" id="id-male-6.8_face_3-55">
</polygon>
<polygon points="108 201 117 190 117 182 129 189 115 204" fill="#cc9b8c" id="id-male-6.8_face_3-56">
</polygon>
<polygon points="60 213 54 208 54 188 67 176 88 184 86 187 86 196 93 198 102 194 113 205" fill="#d69b88" id="id-male-6.8_face_3-57">
</polygon>
<polygon points="49 222 65 211 125 212 126 233 120 246 75 244" fill="url(#id-male-6.8_face_3-11)" id="id-male-6.8_face_3-58">
</polygon>
<polygon points="125 214 110 238 84 237 70 222" fill="url(#id-male-6.8_face_3-12)" id="id-male-6.8_face_3-59">
</polygon>
<polygon points="69 252 62 246 95 233 113 238 123 243 121 251 98 256" fill="#ba806f" id="id-male-6.8_face_3-60">
</polygon>
<polygon points="102 249 97 237 108 240 117 246" fill="#c69384" id="id-male-6.8_face_3-61">
</polygon>
<polygon points="151 171 140 187 108 161 141 174" fill="url(#id-male-6.8_face_3-13)" id="id-male-6.8_face_3-62">
</polygon>
<polygon points="117 109 126 125 157 130 163 120 151 101" fill="#7d4c3d" id="id-male-6.8_face_3-63">
</polygon>
<polygon points="160 158 150 172 141 175 119 166 143 148" fill="#cb9d8d" id="id-male-6.8_face_3-62">
</polygon>
<polygon points="160 128 146 114 155 108 164 117 167 125 163 122" fill="#8c594e" id="id-male-6.8_face_3-65">
</polygon>
<polygon points="86 130 91 122 88 109 70 105" fill="#af694d" id="id-male-6.8_face_3-66">
</polygon>
<polygon points="23 133 41 147 57 147 80 134 85 140 87 129 74 106 31 109 31 122" fill="url(#id-male-6.8_face_3-14)" id="id-male-6.8_face_3-67">
</polygon>
<polygon points="43 109 60 118 72 128 82 133 69 109 52 105" fill="#593225" id="id-male-6.8_face_3-68">
</polygon>
<polygon points="28 138 48 154 57 146 42 147" fill="#ce9581" id="id-male-6.8_face_3-69">
</polygon>
<polygon points="94 31 159 40 152 69 154 90 145 103 90 86" fill="#deac9d" id="id-male-6.8_face_3-70">
</polygon>
<path d="M 180 154 C 175 187 161 232 160 235 C 159 237 151 243 142 249 L 154 166 L 172 136 L 180 154 Z" fill="#824a3f" id="id-male-6.8_face_3-46">
</path>
<polygon points="121 35 159 40 152 69 154 90 145 103 138 101" fill="url(#id-male-6.8_face_3-15)" id="id-male-6.8_face_3-70">
</polygon>
<polygon points="38 76 33 42 94 31 90 86 42 86" fill="url(#id-male-6.8_face_3-16)" id="id-male-6.8_face_3-73">
</polygon>
<polygon points="45 86 38 76 22 90 22 112" fill="#c98f82" id="id-male-6.8_face_3-74">
</polygon>
<path d="M 32 20 C 47 10 68 0 94 0 C 115 0 131 5 143 11 L 161 32 L 143 38 L 139 62 L 93 34 L 32 20 Z" fill="url(#id-male-6.8_face_3-17)" opacity="0.484" id="id-male-6.8_face_3-46">
</path>
<polygon points="174 133 176 78 165 112" fill="#b7868e" id="id-male-6.8_face_3-76">
</polygon>
<polygon points="167 55 176 78 169 100" fill="#854f45" id="id-male-6.8_face_3-76">
</polygon>
<polygon points="28 105 44 86 91 85 140 96 88 109 55 101" fill="#eabcab" id="id-male-6.8_face_3-78">
</polygon>
<polygon points="104 105 128 105 160 106 154 87 144 99 126 102 114 91" fill="#eecac1" id="id-male-6.8_face_3-79">
</polygon>
</g>
</g>
<g transform="translate(75,197)" id="id-male-6.8_face_3-80">
<polygon points="0 17 4 13 27 3 38 6 44 2 61 6 71 13 69 17 34 28 5 20" fill="#290b08" id="id-male-6.8_face_3-81">
</polygon>
<polygon points="12 16 4 14 13 7 27 1 38 4 44 0 60 6 68 11 59 15 49 14 38 15 24 15" fill="#621c21" id="id-male-6.8_face_3-81">
</polygon>
<polygon points="36 6 37 13 25 13 23 4" fill="#7c3a4f" id="id-male-6.8_face_3-81">
</polygon>
<path d="M 4 19 C 11 25 16 29 22 30 C 30 32 52 31 53 30 C 54 29 60 25 70 17 L 71 14 C 71 15 70 15 67 15 C 64 15 64 14 58 15 C 52 15 48 17 37 17 C 26 17 15 15 12 16 C 10 16 7 17 4 19 Z" fill="url(#id-male-6.8_face_3-18)" id="id-male-6.8_face_3-84">
</path>
<polygon points="16 19 16 23 33 24 33 25 43 25 51 22 34 23" fill="#c07aa2" opacity="0.532" id="id-male-6.8_face_3-85">
</polygon>
</g>
<polygon points="95 135 84 164 97 164 104 130 99 130" fill="url(#id-male-6.8_face_3-19)" id="id-male-6.8_face_3-86">
</polygon>
<polygon points="84 175 83 177 90 186 105 186 109 187 114 187 119 181 124 182 126 185 130 184 136 177 136 171 134 169 105 165" fill="url(#id-male-6.8_face_3-20)" id="id-male-6.8_face_3-87">
</polygon>
<polygon points="119 163 111 125 119 122 144 143" fill="url(#id-male-6.8_face_3-21)" id="id-male-6.8_face_3-88">
</polygon>
<path d="M 84 175 L 92 160 L 97 165 L 104 130 L 109 122 L 113 130 L 119 163 L 123 156 L 134 169 L 132 173 L 119 169 L 110 172 L 95 172 C 93 173 91 174 89 175 C 88 175 86 175 84 175 Z" fill="url(#id-male-6.8_face_3-22)" id="id-male-6.8_face_3-89">
</path>
<polygon points="179 128 167 143 148 145 115 128 126 112 137 110 148 120 161 118 172 126" fill="#6d4037" id="id-male-6.8_face_3-90">
</polygon>
<polygon points="102 140 104 130 108 136 113 130 116 148 104 156" fill="#e4ad96" id="id-male-6.8_face_3-89">
</polygon>
<polygon points="95 171 100 164 108 171" fill="#f0ecfd" id="id-male-6.8_face_3-92">
</polygon>
<path d="M 110 181 C 103 181 97 177 93 177 C 90 177 88 178 85 180 L 90 186 L 105 186 L 109 187 L 114 187 L 119 181 L 124 182 L 126 185 L 130 184 L 134 179 C 133 176 132 175 131 175 C 130 175 117 181 110 181 Z" fill="url(#id-male-6.8_face_3-23)" id="id-male-6.8_face_3-87">
</path>
<polygon points="92 180 94 186 105 186 97 179" fill="#895445" id="id-male-6.8_face_3-87">
</polygon>
<polygon points="117 180 131 175 132 177 124 182 119 182" fill="#290e08" id="id-male-6.8_face_3-95">
</polygon>
<polygon points="87 178 90 177 99 178 101 179 101 182 94 180" fill="#290e08" id="id-male-6.8_face_3-96">
</polygon>
<g transform="translate(34,94)" id="id-male-6.8_face_3-97">
<path d="M 0 26 C 4 21 12 17 24 15 C 35 14 45 15 54 18 L 59 16 L 49 2 L 54 14 L 45 2 L 21 3 L 14 9 L 17 3 L 2 18 L 0 26 Z" fill="url(#id-male-6.8_face_3-24)" id="id-male-6.8_face_3-98">
</path>
<polygon points="122 15 138 16 148 23 147 13 136 5 120 9" fill="#492a2a" id="id-male-6.8_face_3-99">
</polygon>
<polygon points="53 4 58 9 57 14" fill="#332325" id="id-male-6.8_face_3-100">
</polygon>
<polygon points="90 12 92 20 132 5 125 1 100 4 93 17 96 5" fill="#352325" id="id-male-6.8_face_3-101">
</polygon>
<polygon points="94 19 123 16 122 8" fill="#1f1619" id="id-male-6.8_face_3-102">
</polygon>
</g>
<path d="M 165 122 L 165 128 L 170 132 L 158 139 L 126 136 L 125 133 L 133 127 C 140 121 147 118 152 118 C 157 118 162 120 165 122 Z" fill="#9d7061" id="id-male-6.8_face_3-103">
</path>
<path d="M 136 129 L 133 127 C 139 123 143 120 146 120 L 150 123 L 136 129 Z" fill="#4f302b" id="id-male-6.8_face_3-103">
</path>
<path d="M 130 134 L 130 132 C 140 124 148 120 155 121 C 159 122 162 124 166 126 C 168 127 170 128 174 130 C 172 133 171 133 169 132 C 168 133 167 133 167 134 C 165 135 162 136 158 136 L 136 135 L 130 134 Z" fill="#1c1316" id="id-male-6.8_face_3-105">
</path>
<path d="M 135 133 L 136 135 L 158 136 L 165 132 C 158 127 153 125 149 125 C 144 125 139 128 135 133 Z" fill="#b5a7b5" id="id-male-6.8_face_3-106">
</path>
<path d="M 135 133 L 136 135 L 140 135 C 142 131 144 129 148 129 C 151 128 155 130 161 134 L 165 132 C 158 127 153 125 149 125 C 144 125 139 128 135 133 Z" fill="#a28f91" id="id-male-6.8_face_3-106">
</path>
<path d="M 149 136 C 154 136 157 134 158 128 C 154 126 151 124 149 124 C 146 124 144 126 141 128 C 141 133 143 135 149 136 Z" fill="#1b1216" id="id-male-6.8_face_3-106">
</path>
<polygon points="144 128 145 130 150 129 150 127" fill="#8f8793" id="id-male-6.8_face_3-109">
</polygon>
<polygon points="53 127 58 118 69 117 72 123 80 127 84 124 96 132 89 138 86 136 63 138 57 134" fill="#a97665" id="id-male-6.8_face_3-110">
</polygon>
<path d="M 46 126 C 48 121 54 118 63 116 C 72 114 83 119 96 132 C 84 123 75 118 68 117 C 62 117 55 119 47 126 L 46 126 Z" fill="#4e2b23" id="id-male-6.8_face_3-111">
</path>
<path d="M 47 134 L 45 132 C 55 124 63 120 69 121 C 76 122 82 126 90 132 L 86 136 L 59 135 L 51 133 L 47 134 Z" fill="#1e1410" id="id-male-6.8_face_3-112">
</path>
<path d="M 53 132 L 61 136 L 81 136 L 84 133 C 78 128 73 125 69 125 C 64 125 59 127 53 132 Z" fill="#b4a3af" id="id-male-6.8_face_3-113">
</path>
<path d="M 53 132 L 58 134 C 60 131 63 130 68 130 C 73 130 78 131 83 134 L 84 133 C 78 128 73 125 69 125 C 64 125 59 127 53 132 Z" fill="#a69398" id="id-male-6.8_face_3-113">
</path>
<path d="M 69 136 C 73 136 76 133 77 128 C 74 126 71 124 69 124 C 66 124 63 126 60 128 C 61 133 64 136 69 136 Z" fill="#1e1011" id="id-male-6.8_face_3-113">
</path>
<polygon points="63 128 64 130 69 128 67 127" fill="#999aa8" id="id-male-6.8_face_3-116">
</polygon>
</g>
<defs>
<linearGradient x1="50%" y1="0%" x2="50%" y2="108%" id="id-male-11_android_bodysuit-0">
<stop stop-color="#1b335e" offset="0%">
</stop>
<stop stop-color="#1c42cc" offset="17%">
</stop>
<stop stop-color="#223b5b" offset="33%">
</stop>
<stop stop-color="#162a7d" offset="59%">
</stop>
<stop stop-color="#0f1d38" offset="80%">
</stop>
<stop stop-color="#122462" offset="100%">
</stop>
</linearGradient>
<linearGradient x1="50%" y1="0%" x2="50%" y2="100%" id="id-male-11_android_bodysuit-1">
<stop stop-color="#b6c0cb" offset="0%">
</stop>
<stop stop-color="#4f5966" offset="25%">
</stop>
<stop stop-color="#c1cad6" offset="45%">
</stop>
<stop stop-color="#5f6673" offset="62%">
</stop>
<stop stop-color="#dadfe7" offset="73%">
</stop>
<stop stop-color="#6a717b" offset="87%">
</stop>
<stop stop-color="#d8d8d8" offset="100%">
</stop>
</linearGradient>
<linearGradient x1="50%" y1="0%" x2="50%" y2="100%" id="id-male-11_android_bodysuit-2">
<stop stop-color="#b6c0cb" offset="0%">
</stop>
<stop stop-color="#4f5966" offset="25%">
</stop>
<stop stop-color="#c1cad6" offset="45%">
</stop>
<stop stop-color="#5f6673" offset="62%">
</stop>
<stop stop-color="#dadfe7" offset="73%">
</stop>
<stop stop-color="#6a717b" offset="87%">
</stop>
<stop stop-color="#d8d8d8" offset="100%">
</stop>
</linearGradient>
</defs>
<g transform="translate(438,573)" id="id-male-11_android_bodysuit-3">
<path d="M 200 860 C 207 808 210 783 210 783 C 174 694 128 637 67 625 C 62 662 59 681 59 681 L 70 751 C 156 824 199 860 200 860 Z" fill="#000000" fill-opacity="0.396" id="id-male-11_android_bodysuit-4">
</path>
<path d="M 274 851 C 257 812 248 792 248 792 C 283 713 319 638 372 601 C 383 665 388 697 388 697 L 381 761 C 316 813 280 843 274 851 Z" fill="#000000" fill-opacity="0.396" id="id-male-11_android_bodysuit-5">
</path>
<path d="M 209 828 C 165 794 109 744 4 740 C 10 700 13 680 13 680 C 25 626 31 574 47 522 C 46 465 58 452 69 418 C 67 366 66 339 66 339 C 61 311 59 296 59 296 C 52 278 49 269 49 269 C 43 229 40 209 40 209 C 55 149 79 78 58 44 C 101 22 122 11 122 11 C 165 80 281 106 324 4 C 369 25 391 36 391 36 C 361 76 402 155 418 218 C 404 281 392 348 380 417 C 394 453 402 472 402 472 C 400 504 399 520 399 520 C 413 563 420 584 420 584 C 420 589 419 591 419 591 C 451 695 467 747 465 747 C 392 752 314 783 251 823 C 244 802 241 791 241 791 L 218 792 C 212 816 209 828 209 828 Z" fill="#080f1b" id="id-male-11_android_bodysuit-6">
</path>
<path d="M 448 748 C 428 659 419 615 419 615 C 346 650 314 725 300 795 C 356 768 405 752 448 748 Z" fill="#102137" id="id-male-11_android_bodysuit-7">
</path>
<path d="M 405 548 C 358 590 335 611 335 611 C 295 604 276 600 276 600 C 353 516 393 471 397 462 L 402 472 L 399 520 C 403 539 405 548 405 548 Z" fill="#17253d" id="id-male-11_android_bodysuit-8">
</path>
<path d="M 398 462 C 358 511 338 536 338 536 L 375 576 L 392 690 C 380 705 374 713 374 713 C 375 738 376 750 376 750 C 399 744 411 741 411 741 C 392 629 383 572 383 572 C 360 548 348 536 348 536 L 401 471 C 399 465 398 462 398 462 Z" fill="#7a8698" id="id-male-11_android_bodysuit-9">
</path>
<path d="M 1 740 L 0 732 C 9 697 13 680 13 680 L 30 611 C 140 617 169 704 210 792 L 209 828 C 151 786 96 748 1 740 Z" fill="#0f1c2e" id="id-male-11_android_bodysuit-10">
</path>
<path d="M 39 744 C 54 667 62 628 62 628 C 135 656 158 735 177 805 C 134 775 88 754 39 744 Z" fill="#0e2239" id="id-male-11_android_bodysuit-11">
</path>
<path d="M 51 465 C 70 488 96 514 113 542 C 92 562 82 573 82 573 L 74 586 L 62 673 C 77 692 84 701 84 701 C 84 731 85 746 85 746 C 74 743 63 739 49 738 C 63 631 69 577 69 577 C 93 553 104 541 104 541 C 85 511 75 496 75 496 L 50 475 C 50 469 51 465 51 465 Z" fill="#707885" id="id-male-11_android_bodysuit-12">
</path>
<path d="M 51 465 C 72 491 96 516 113 542 L 227 649 L 276 600 L 338 536 L 397 462 C 386 432 380 417 380 417 C 383 400 385 392 385 392 C 351 405 302 473 265 502 C 276 456 289 404 302 354 C 305 339 309 319 312 290 C 323 269 328 259 328 259 C 328 246 328 239 328 239 C 305 193 294 170 294 170 C 293 157 294 144 299 133 C 334 90 352 69 352 69 C 352 53 353 45 353 45 L 362 20 L 325 0 C 290 89 175 86 118 3 C 97 14 86 20 86 20 C 91 26 94 30 94 30 C 98 56 100 69 100 69 C 135 113 152 135 152 135 C 156 152 158 165 158 177 C 134 227 122 252 122 252 C 136 279 143 292 143 292 C 142 319 146 342 150 364 C 178 459 192 506 192 506 C 153 467 112 428 68 389 L 69 419 C 64 434 53 449 51 465 Z" fill="url(#id-male-11_android_bodysuit-0)" id="id-male-11_android_bodysuit-13">
</path>
<path d="M 68 389 C 152 469 193 508 193 508 C 165 410 151 361 151 361 C 147 340 144 319 144 293 L 123 252 C 146 202 158 177 158 177 C 151 176 147 175 147 175 C 125 227 114 253 114 253 C 128 278 135 291 135 291 C 138 360 156 412 178 484 L 67 378 C 68 386 68 389 68 389 Z" fill="url(#id-male-11_android_bodysuit-1)" id="id-male-11_android_bodysuit-14">
</path>
<path d="M 86 395 C 112 336 125 307 125 307 C 131 341 134 358 134 358 L 135 443 C 103 411 86 395 86 395 Z" fill="#101e2e" id="id-male-11_android_bodysuit-15">
</path>
<path d="M 153 136 C 147 136 145 136 145 136 C 108 92 90 71 90 71 C 88 48 86 36 86 36 C 80 26 77 21 77 21 L 85 17 L 95 31 L 99 70 C 135 114 153 136 153 136 Z" fill="#b7bdc4" id="id-male-11_android_bodysuit-16">
</path>
<path d="M 119 263 C 85 256 68 253 68 253 C 59 229 54 217 54 217 C 73 155 82 124 82 124 L 94 220 C 111 248 119 263 119 263 Z" fill="#0f1927" id="id-male-11_android_bodysuit-17">
</path>
<path d="M 118 261 C 102 234 94 220 94 220 C 76 102 67 43 67 43 L 84 32 L 86 35 L 90 71 L 153 136 C 157 152 158 165 158 177 L 118 261 Z" fill="#162840" id="id-male-11_android_bodysuit-18">
</path>
<path d="M 54 154 C 77 115 80 88 67 43 C 78 35 84 32 84 32 L 79 23 L 54 36 C 69 62 65 111 54 154 Z" fill="#19304a" id="id-male-11_android_bodysuit-19">
</path>
<path d="M 90 71 C 113 117 125 140 125 140 L 156 154 L 153 136 L 145 136 C 109 93 90 71 90 71 Z" fill="#213653" id="id-male-11_android_bodysuit-20">
</path>
<path d="M 362 20 C 367 23 370 25 370 25 C 364 39 361 46 361 46 C 360 64 360 73 360 73 C 323 115 305 136 305 136 L 298 136 C 333 92 351 70 351 70 L 352 46 C 359 29 362 20 362 20 Z" fill="#b7bdc4" id="id-male-11_android_bodysuit-21">
</path>
<path d="M 363 43 C 368 46 370 48 370 48 C 365 70 363 81 363 81 C 357 80 355 79 355 79 C 317 117 298 136 298 136 C 293 150 293 161 294 171 C 316 217 328 240 328 240 C 357 244 371 245 371 245 C 382 208 388 189 388 189 C 374 117 368 81 368 81 C 375 51 380 35 385 32 L 370 25 L 363 43 Z" fill="#2f4a73" id="id-male-11_android_bodysuit-22">
</path>
<path d="M 380 149 C 395 181 402 197 402 197 C 396 213 394 221 394 221 C 382 243 376 255 376 255 C 362 258 355 260 355 260 L 329 253 C 329 245 329 240 329 240 L 371 245 C 377 181 380 149 380 149 Z" fill="#213552" id="id-male-11_android_bodysuit-23">
</path>
<path d="M 384 32 C 389 34 391 35 391 35 C 387 43 383 54 381 60 L 374 57 C 375 50 379 38 384 32 Z" fill="#19304a" id="id-male-11_android_bodysuit-24">
</path>
<path d="M 405 281 C 388 297 380 305 380 305 C 333 334 310 348 310 348 C 301 394 296 418 296 418 C 285 458 279 478 279 478 C 334 423 361 395 361 395 L 386 378 L 405 281 Z" fill="#1e314c" id="id-male-11_android_bodysuit-25">
</path>
<path d="M 389 251 C 375 276 368 289 368 289 C 350 291 342 291 342 291 C 326 299 318 302 318 302 C 313 332 310 347 310 347 L 323 387 C 317 391 315 393 315 393 C 304 394 298 394 298 394 C 296 410 295 418 295 418 C 313 430 323 436 323 436 C 359 403 377 386 377 386 L 380 305 C 386 269 389 251 389 251 Z" fill="#2c4973" id="id-male-11_android_bodysuit-26">
</path>
<path d="M 387 378 L 361 396 C 306 450 279 477 279 477 C 303 389 315 345 315 345 C 319 308 321 289 321 289 C 330 273 343 256 337 241 C 317 198 307 176 307 176 L 296 176 L 329 240 L 329 259 L 312 290 C 308 326 301 363 291 399 L 265 502 C 305 468 351 407 384 393 L 387 378 Z" fill="url(#id-male-11_android_bodysuit-2)" id="id-male-11_android_bodysuit-27">
</path>
<path d="M 122 251 C 192 251 227 250 227 250 C 213 236 207 229 207 229 C 243 230 284 237 329 253 L 329 259 C 318 279 312 290 312 290 L 311 301 C 260 296 198 295 143 292 C 129 265 122 251 122 251 Z" fill="#000000" fill-opacity="0.179" id="id-male-11_android_bodysuit-28">
</path>
<path d="M 131 267 C 173 272 218 274 266 273 C 249 289 219 297 178 296 C 166 369 160 405 160 405 C 185 529 198 591 198 591 L 276 600 L 226 649 L 114 542 L 69 416 L 68 389 C 110 308 131 267 131 267 Z" fill="#000000" fill-opacity="0.346" id="id-male-11_android_bodysuit-29">
</path>
</g>
<defs>
</defs>
<g transform="translate(422,1021)" id="id-male-12_looter_pants-0">
<path d="M 523 740 L 348 740 C 343 729 340 720 330 712 C 330 712 330 712 330 712 C 321 704 319 698 329 691 L 328 684 L 322 682 L 319 638 L 326 637 L 305 633 C 296 627 290 613 288 602 C 288 593 294 587 298 579 L 296 577 L 266 537 L 268 531 L 280 514 L 280 513 C 264 489 269 476 269 451 L 252 447 L 237 432 C 235 438 225 463 220 475 L 233 483 L 226 493 L 226 493 C 226 493 234 514 234 514 C 226 526 217 558 200 561 C 201 570 203 580 204 589 C 204 589 204 589 204 589 C 205 594 205 599 205 604 L 193 616 C 195 626 200 656 202 665 L 190 677 L 196 695 L 179 705 L 177 711 L 174 714 C 173 722 174 731 175 740 L 20 740 L 22 721 C 22 721 13 715 15 707 C 18 699 38 645 38 645 C 42 631 44 616 44 602 L 35 599 C 28 599 31 572 31 572 C 23 568 6 549 0 543 L 10 514 L 13 498 L 12 498 L 5 493 C 7 438 6 380 12 325 L 3 324 C 3 323 18 232 18 231 L 24 229 C 35 184 49 119 56 74 C 56 72 57 65 69 58 C 58 46 68 18 66 4 C 68 2 70 0 72 0 L 76 6 C 186 20 307 34 415 6 C 418 0 428 1 429 9 C 429 9 428 53 430 63 C 430 68 424 72 423 72 C 433 76 439 82 440 93 C 443 108 447 123 451 138 L 451 138 C 457 164 463 190 469 215 L 473 214 C 473 214 496 306 496 307 L 489 310 C 495 367 510 444 514 501 L 495 512 L 508 540 L 506 557 L 499 575 L 477 590 L 487 603 C 488 603 486 621 482 625 L 501 669 C 501 669 501 677 498 683 C 498 683 505 681 507 684 C 510 687 514 710 514 710 L 523 740 Z" fill="#2d1c20" id="id-male-12_looter_pants-1">
</path>
<path d="M 465 740 L 348 740 L 339 721 C 328 710 313 702 330 691 L 328 684 L 322 682 L 319 638 L 326 637 L 305 633 C 305 633 298 628 296 623 C 285 599 285 601 298 579 L 296 577 L 266 537 L 268 531 L 280 514 L 280 513 C 264 489 269 476 269 451 L 252 447 L 237 432 C 235 438 222 470 220 475 L 233 483 L 226 493 L 226 493 L 234 514 C 232 517 212 563 200 561 C 201 572 205 593 205 604 L 193 616 L 202 665 L 190 677 L 196 695 L 179 705 L 177 711 L 174 714 C 173 722 174 731 175 740 L 94 740 L 41 633 C 43 627 44 608 44 602 L 36 599 C 28 599 31 573 31 572 L 26 569 L 31 525 C 40 527 106 548 125 544 C 141 541 141 471 141 470 C 158 457 192 430 209 416 C 227 420 253 427 271 433 L 271 427 L 309 394 L 478 507 C 459 583 425 642 465 740 Z" fill="#392529" id="id-male-12_looter_pants-1">
</path>
<polygon points="84 603 152 610 107 627" fill="#452f2f" id="id-male-12_looter_pants-1">
</polygon>
<path d="M 205 598 L 205 603 L 182 603 L 167 594 L 57 581 L 95 567 L 75 537 C 81 538 100 540 106 541 C 107 542 153 576 156 578 L 202 573 L 205 598 Z" fill="#452f2f" id="id-male-12_looter_pants-1">
</path>
<path d="M 228 419 L 226 420 L 226 420 L 189 451 L 223 467 C 223 467 220 475 220 475 L 226 479 L 138 516 L 135 517 L 121 484 L 211 416 L 228 419 Z" fill="#473131" id="id-male-12_looter_pants-1">
</path>
<polygon points="283 508 307 525 360 490 317 438" fill="#473131" id="id-male-12_looter_pants-1">
</polygon>
<path d="M 360 634 L 422 615 L 388 639 L 337 719 C 326 708 315 701 330 691 L 328 684 L 322 682 L 319 638 L 326 637 L 305 633 C 297 629 291 614 288 602 L 365 570 L 365 586 C 375 575 424 555 437 549 L 444 549 L 366 612 L 301 612 L 300 625 L 360 634 Z" fill="#463030" id="id-male-12_looter_pants-1">
</path>
<path d="M 366 620 L 418 590 L 456 547 L 478 543 L 496 567 C 466 582 399 612 366 620 Z" fill="#463030" id="id-male-12_looter_pants-1">
</path>
<path d="M 56 154 L 88 131 L 71 167 L 31 197 C 39 167 51 104 56 73 L 99 88 L 57 133 L 56 154 Z" fill="#392f48" id="id-male-12_looter_pants-1">
</path>
<polygon points="89 113 120 106 113 124" fill="#3d292b" id="id-male-12_looter_pants-1">
</polygon>
<path d="M 450 138 L 415 106 L 405 161 L 381 232 L 312 212 L 296 154 L 263 167 L 301 225 L 229 226 L 248 207 L 246 103 L 192 216 L 163 211 C 167 194 174 159 177 142 L 154 135 L 152 135 C 153 130 163 92 164 88 C 217 94 281 96 334 93 C 337 107 344 143 346 157 L 377 84 L 425 73 C 444 81 441 107 450 138 Z" fill="#4c3635" id="id-male-12_looter_pants-1">
</path>
<path d="M 358 27 L 358 76 C 268 95 156 80 68 57 C 60 50 68 7 66 4 C 68 2 70 0 72 0 L 76 6 C 155 17 272 28 351 17 L 358 27 Z" fill="#473231" id="id-male-12_looter_pants-1">
</path>
<path d="M 342 18 L 340 75 L 312 82 L 218 82 L 162 73 L 158 15 C 228 21 279 26 342 18 Z" fill="#534048" id="id-male-12_looter_pants-1">
</path>
<polygon points="164 88 226 93 187 111 162 95" fill="#352125" id="id-male-12_looter_pants-1">
</polygon>
<path d="M 342 135 L 342 142 L 337 137 L 340 134 L 338 122 L 309 115 L 324 106 L 278 97 C 289 93 322 93 334 93 L 342 135 Z" fill="#3a2529" id="id-male-12_looter_pants-1">
</path>
<polygon points="171 173 177 142 154 135 221 113" fill="#3c282a" id="id-male-12_looter_pants-1">
</polygon>
<polygon points="248 95 190 173 201 111 239 94" fill="#584553" id="id-male-12_looter_pants-1">
</polygon>
<polygon points="199 120 195 144 221 113" fill="#4d3a45" id="id-male-12_looter_pants-1">
</polygon>
<polygon points="253 167 266 162 266 142 300 113 250 95" fill="#55424b" id="id-male-12_looter_pants-1">
</polygon>
<path d="M 439 91 L 395 89 L 426 73 C 433 77 438 82 439 91 Z" fill="#3a324b" id="id-male-12_looter_pants-1">
</path>
<path d="M 465 199 L 441 186 L 415 109 L 453 147 C 457 166 462 185 465 199 Z" fill="#2c2332" id="id-male-12_looter_pants-1">
</path>
<path d="M 514 500 C 498 510 468 520 451 527 L 441 526 L 439 528 L 394 561 L 345 511 L 362 489 C 367 483 300 410 296 405 L 296 405 C 296 405 288 395 288 395 C 276 400 254 411 244 418 L 213 394 L 208 398 L 139 467 L 168 491 C 166 492 143 516 142 514 C 139 520 132 533 128 539 L 103 535 L 68 513 C 60 514 49 513 42 512 C 35 509 10 497 5 493 C 7 437 6 380 12 325 L 3 324 C 3 323 18 232 18 231 L 24 229 C 24 228 30 203 30 202 C 43 196 60 189 73 186 L 96 139 L 119 143 L 148 130 L 148 144 L 165 147 L 165 165 C 167 173 172 190 174 198 C 249 215 248 214 324 201 L 333 184 L 340 157 L 348 157 C 348 155 349 134 349 132 L 379 155 L 405 153 C 410 164 419 185 424 197 L 427 198 L 467 206 C 468 209 468 213 469 215 L 473 214 C 473 214 496 306 496 307 L 489 310 C 494 367 510 444 514 500 Z" fill="#a94125" id="id-male-12_looter_pants-1">
</path>
<path d="M 523 740 L 418 740 L 405 708 L 385 705 L 369 699 C 371 695 375 640 376 637 L 430 639 L 455 616 L 470 597 L 481 620 L 486 617 C 486 620 482 624 483 627 C 483 627 494 653 494 653 L 501 669 C 501 670 500 680 497 683 C 500 682 506 681 507 684 C 510 687 514 710 514 710 L 523 740 Z" fill="#7b2c18" id="id-male-12_looter_pants-1">
</path>
<path d="M 147 690 L 98 719 L 94 740 L 20 740 L 22 720 C 18 718 13 713 15 707 C 18 699 38 645 38 645 L 43 624 L 44 602 L 54 606 L 72 633 L 72 633 L 74 636 L 108 636 L 120 632 C 120 632 138 679 147 690 Z" fill="#4c1911" id="id-male-12_looter_pants-1">
</path>
<polygon points="482 620 427 690 375 642 376 637 430 639 455 616 470 597 481 620" fill="#993d21" id="id-male-12_looter_pants-1">
</polygon>
<path d="M 500 682 C 494 691 483 705 477 713 C 477 713 473 729 471 740 L 523 740 L 514 710 C 514 710 510 687 507 684 C 506 682 502 682 500 682 Z" fill="#4a1a11" id="id-male-12_looter_pants-1">
</path>
<path d="M 418 740 L 482 740 C 481 730 480 704 479 695 L 458 724 L 436 684 L 407 711 L 418 740 Z" fill="#581d0f" id="id-male-12_looter_pants-1">
</path>
<path d="M 500 682 L 501 682 C 490 695 476 713 465 726 C 472 709 487 670 494 653 C 494 653 501 669 501 669 C 501 670 500 680 497 683 C 498 683 499 683 500 682 L 500 682 Z" fill="#702915" id="id-male-12_looter_pants-1">
</path>
<path d="M 501 669 C 501 672 500 674 500 677 L 474 704 L 474 704 C 470 708 462 717 458 721 L 439 684 L 483 627 L 501 669 Z" fill="#993d21" id="id-male-12_looter_pants-1">
</path>
<path d="M 43 656 L 65 683 L 42 728 L 15 711 C 25 674 46 636 44 602 L 54 606 L 72 633 L 60 669 L 43 656 Z" fill="#7e3c1b" id="id-male-12_looter_pants-1">
</path>
<path d="M 147 690 L 98 719 L 98 719 C 91 710 68 676 60 669 L 73 633 L 73 633 L 74 636 L 108 636 L 120 632 C 120 632 138 679 147 690 Z" fill="#682712" id="id-male-12_looter_pants-1">
</path>
<path d="M 98 719 L 94 740 L 20 740 L 22 720 C 22 720 21 720 20 720 L 46 734 L 70 680 L 98 719 Z" fill="#541b0d" id="id-male-12_looter_pants-1">
</path>
<path d="M 131 258 L 133 530 C 131 533 130 537 128 539 L 103 535 L 68 513 C 60 514 49 513 42 512 C 35 509 10 497 5 493 C 7 437 6 380 12 325 L 3 324 C 3 323 18 232 18 231 L 24 229 C 24 228 30 203 30 202 C 43 196 60 189 73 186 L 96 139 L 119 143 L 136 135 L 131 258 Z" fill="#752a16" id="id-male-12_looter_pants-1">
</path>
<path d="M 46 502 L 47 513 C 44 514 16 499 13 498 C 13 499 5 493 5 493 C 7 437 6 380 12 325 L 3 324 C 3 323 18 232 18 231 L 44 224 C 43 228 31 321 31 323 L 62 385 L 34 378 L 45 494 L 46 502 Z" fill="#8d411f" id="id-male-12_looter_pants-1">
</path>
<path d="M 129 213 L 69 212 C 69 213 61 218 61 218 L 25 227 L 25 226 L 30 202 C 42 197 59 189 72 187 L 72 192 L 81 187 L 101 144 L 129 213 Z" fill="#6c2111" id="id-male-12_looter_pants-1">
</path>
<polygon points="47 195 44 221 44 223 25 227 25 226 30 202" fill="#732915" id="id-male-12_looter_pants-1">
</polygon>
<polygon points="246 229 215 301 175 329 163 309 191 201 246 213" fill="#d25428" id="id-male-12_looter_pants-1">
</polygon>
<path d="M 296 405 L 288 395 C 276 400 254 411 244 418 L 213 394 L 208 398 L 215 305 L 237 364 L 265 329 L 254 295 L 275 273 L 296 405 Z" fill="#ab2924" id="id-male-12_looter_pants-1">
</path>
<polygon points="282 295 310 333 296 367" fill="#c84227" id="id-male-12_looter_pants-1">
</polygon>
<polygon points="489 423 456 526 451 527 441 526 439 528 415 516 336 432 456 381 428 518" fill="#d95827" id="id-male-12_looter_pants-1">
</polygon>
<polygon points="444 223 427 329 315 324 274 257 254 287 256 211 324 201 333 184 340 157 348 157 348 154 373 151 379 155 405 153 414 173 352 200 424 196 426 196 427 198" fill="#ed6124" id="id-male-12_looter_pants-1">
</polygon>
<path d="M 469 215 C 453 223 406 229 388 232 L 303 231 C 355 231 419 223 468 211 C 468 213 469 214 469 215 Z" fill="#b42e26" id="id-male-12_looter_pants-1">
</path>
<path d="M 513 488 C 484 496 444 507 415 515 L 409 512 L 325 433 C 318 377 308 290 301 233 C 301 234 325 325 325 325 L 427 327 C 428 328 495 306 496 306 L 496 307 L 489 310 L 489 314 L 426 333 L 328 337 C 330 355 334 418 335 435 L 417 509 L 512 481 L 513 488 Z" fill="#b22d25" id="id-male-12_looter_pants-1">
</path>
<path d="M 188 222 L 188 227 L 175 325 L 174 328 L 168 416 L 155 429 L 163 323 L 161 320 L 156 317 L 51 315 C 39 319 19 325 6 330 L 6 326 L 50 309 L 165 312 L 168 312 L 185 226 C 179 225 66 222 56 222 C 48 224 26 229 18 231 L 18 231 L 24 229 C 24 228 25 227 25 226 C 33 224 49 220 57 218 L 61 218 L 185 222 L 188 222 Z" fill="#792016" id="id-male-12_looter_pants-1">
</path>
<path d="M 87 492 C 86 493 76 503 76 503 C 75 503 56 502 47 502 C 45 504 7 484 5 483 C 5 480 5 476 5 473 L 43 494 L 45 494 L 71 496 L 85 483 C 85 483 87 492 87 492 Z" fill="#752b16" id="id-male-12_looter_pants-1">
</path>
<path d="M 87 492 C 86 493 76 503 76 503 C 75 503 55 502 46 502 L 45 494 L 71 496 L 85 483 C 85 483 87 492 87 492 Z" fill="#792016" id="id-male-12_looter_pants-1">
</path>
<path d="M 187 520 L 185 519 C 185 518 187 513 187 513 L 162 495 L 135 525 L 122 550 L 128 555 L 123 557 L 106 553 C 106 547 105 540 105 534 C 103 536 101 539 99 541 C 100 541 102 556 102 557 L 125 564 L 133 557 L 152 570 C 154 569 160 565 161 563 L 170 564 C 171 563 191 525 191 524 L 187 520 Z M 139 548 L 139 545 L 160 510 C 160 509 160 509 160 509 C 160 509 166 512 166 513 L 146 555 L 139 548 Z" fill="#485062" id="id-male-12_looter_pants-47" fill-rule="nonzero">
</path>
<path d="M 191 524 L 170 564 L 161 563 C 160 565 154 569 152 570 L 133 557 L 125 564 L 102 557 L 100 541 L 105 534 L 106 553 L 123 557 C 126 556 131 553 134 551 L 134 539 L 139 539 C 139 541 139 546 139 548 L 146 555 L 166 513 L 160 509 L 168 499 L 187 513 C 187 513 186 519 186 519 L 191 524 Z" fill="#80899d" id="id-male-12_looter_pants-1">
</path>
<path d="M 234 514 C 232 517 212 563 200 561 L 200 561 L 173 565 L 160 564 L 161 563 C 158 562 149 556 146 555 L 167 512 L 186 519 L 186 519 L 187 520 L 220 514 L 221 501 L 225 493 L 226 493 L 226 493 L 234 514 Z" fill="#050606" id="id-male-12_looter_pants-1">
</path>
<path d="M 191 525 L 170 564 C 169 564 159 561 157 561 L 179 520 L 191 525 Z" fill="#20376c" id="id-male-12_looter_pants-1">
</path>
<path d="M 348 582 L 296 577 L 266 537 L 268 531 L 280 514 L 283 516 C 283 516 277 528 277 535 C 278 542 275 541 285 544 C 295 548 311 549 311 549 L 348 582 Z" fill="#050606" id="id-male-12_looter_pants-1">
</path>
<path d="M 381 548 L 353 519 L 317 550 L 310 550 L 341 580 L 343 582 L 353 583 L 357 579 C 357 579 358 579 359 579 C 363 567 373 558 383 550 L 381 548 Z M 357 572 L 356 571 L 330 547 L 337 539 C 342 544 359 560 364 564 L 357 572 Z" fill="#1d2e5b" id="id-male-12_looter_pants-47" fill-rule="nonzero">
</path>
<polygon points="383 562 365 582 358 580 354 573 369 557 342 534 323 552 316 551 315 543 340 520 376 555 375 557" fill="#4e576a" id="id-male-12_looter_pants-1">
</polygon>
<polygon points="374 572 365 582 358 580 354 573 361 566" fill="#7e879b" id="id-male-12_looter_pants-1">
</polygon>
<polygon points="332 521 341 538 345 525" fill="#7b8498" id="id-male-12_looter_pants-1">
</polygon>
<polygon points="357 545 362 545 362 557 372 564 391 560 392 549 391 548 394 544 397 546 395 563 372 569 358 559" fill="#7e879b" id="id-male-12_looter_pants-1">
</polygon>
<polygon points="121 636 126 636 193 618 202 659 145 684" fill="#050606" id="id-male-12_looter_pants-1">
</polygon>
<polygon points="125 633 150 686 175 673 153 625" fill="#3f4556" id="id-male-12_looter_pants-1">
</polygon>
<polygon points="128 632 130 642 154 632 152 626" fill="#747c91" id="id-male-12_looter_pants-1">
</polygon>
<path d="M 319 638 C 322 636 371 640 375 640 L 369 694 L 323 682 L 319 638 Z" fill="#050606" id="id-male-12_looter_pants-1">
</path>
<polygon points="337 690 363 698 370 636 341 635" fill="#3f4556" id="id-male-12_looter_pants-1">
</polygon>
<polygon points="345 636 342 644 370 643 370 636" fill="#626c7e" id="id-male-12_looter_pants-1">
</polygon>
<path d="M 396 71 L 396 80 L 364 83 L 361 76 L 375 74 L 373 24 L 359 26 C 359 25 359 19 359 19 L 394 15 L 394 22 L 383 23 L 384 73 L 396 71 Z" fill="#7f889e" id="id-male-12_looter_pants-1">
</path>
<polygon points="371 18 364 25 359 26 359 19" fill="#cfd2d6" id="id-male-12_looter_pants-1">
</polygon>
<polygon points="363 78 373 76 365 82" fill="#cfd2d6" id="id-male-12_looter_pants-1">
</polygon>
<path d="M 429 63 C 430 64 429 65 429 66 L 397 69 L 396 22 L 429 8 C 430 9 428 52 429 63 Z" fill="#050606" id="id-male-12_looter_pants-1">
</path>
<path d="M 65 50 C 152 73 266 79 357 75 L 357 28 L 322 29 L 320 31 C 259 31 112 22 67 7 C 65 16 64 24 64 28 C 64 33 64 41 65 50 Z" fill="#050606" id="id-male-12_looter_pants-1">
</path>
<path d="M 116 69 L 115 79 L 110 79 L 108 128 L 116 135 C 116 168 112 224 107 257 L 103 535 L 105 544 L 134 546 C 132 419 134 253 145 129 L 150 128 L 155 84 L 148 83 L 148 74 L 116 69 Z" fill="#050606" id="id-male-12_looter_pants-1">
</path>
<polygon points="111 82 115 80 153 85 145 89" fill="#474465" id="id-male-12_looter_pants-1">
</polygon>
<polygon points="117 93 114 102 143 104" fill="#474465" id="id-male-12_looter_pants-1">
</polygon>
<polygon points="112 114 111 127 126 134 145 127 145 118" fill="#474465" id="id-male-12_looter_pants-1">
</polygon>
<path d="M 350 90 L 350 80 L 360 79 C 360 79 357 86 382 83 L 388 84 L 389 136 L 381 141 C 380 175 386 230 391 264 L 395 543 L 393 548 L 363 548 C 365 431 363 248 352 136 L 347 132 L 343 89 L 350 90 Z" fill="#050606" id="id-male-12_looter_pants-1">
</path>
<polygon points="345 91 352 94 387 88 383 86" fill="#474465" id="id-male-12_looter_pants-1">
</polygon>
<polygon points="354 110 382 100 383 108" fill="#474465" id="id-male-12_looter_pants-1">
</polygon>
<polygon points="353 123 385 120 387 133 373 140 353 133" fill="#474465" id="id-male-12_looter_pants-1">
</polygon>
</g>
<defs>
<linearGradient x1="94%" y1="36%" x2="54%" y2="36%" id="id-male-29_looter_cape_red_front-0">
<stop stop-color="#803840" offset="0%" stop-opacity="0">
</stop>
<stop stop-color="#8a3b44" offset="100%">
</stop>
</linearGradient>
</defs>
<g transform="translate(286,244)" id="id-male-29_looter_cape_red_front-1">
<polygon points="481 334 414 346 378 361 360 359 329 334 277 348 319 404 400 404 479 354" fill="#3b1a1d" id="id-male-29_looter_cape_red_front-2">
</polygon>
<path d="M 130 1135 C 130 1142 224 1016 276 995 C 327 975 422 732 437 723 C 451 714 501 568 501 568 L 230 880 C 230 880 53 948 130 1135 Z" fill="#101116" opacity="0.406" id="id-male-29_looter_cape_red_front-2">
</path>
<polygon points="473 618 647 490 647 449 598 461 542 517" fill="#341619" id="id-male-29_looter_cape_red_front-2">
</polygon>
<path d="M 698 514 C 693 524 684 595 683 599 L 682 598 L 640 553 L 634 473 L 617 470 L 589 503 L 574 532 L 555 546 L 563 505 C 452 648 337 851 239 1001 C 227 1011 192 1035 179 1045 C 172 1046 119 1058 113 1060 L 4 1161 C -3 1153 2 1129 1 1120 L 2 1102 L 6 1087 C 2 1071 5 1020 6 1003 L 22 985 L 26 959 L 22 954 L 15 934 C 15 933 21 913 21 912 L 21 863 L 27 856 C 27 853 29 828 30 825 C 23 820 29 811 29 805 C 29 804 42 745 41 744 C 41 744 38 728 38 727 C 42 712 70 671 70 671 L 77 644 C 76 641 76 628 76 625 L 62 612 L 72 591 L 87 507 C 85 505 81 499 79 496 L 70 493 L 54 471 L 64 457 L 69 457 L 127 390 C 129 385 127 379 126 375 C 132 366 146 345 151 337 C 168 338 219 331 225 331 L 284 349 C 288 352 306 363 311 365 L 337 396 C 338 396 427 374 428 374 L 428 372 C 437 362 486 323 497 313 C 501 316 514 324 519 326 L 533 314 C 538 321 547 335 552 341 L 552 341 C 557 344 566 349 571 352 C 577 346 585 337 591 331 L 605 338 C 606 348 602 365 615 368 C 615 368 633 384 646 396 C 655 405 662 408 664 417 C 660 462 677 477 698 514 Z" fill="#481e22" id="id-male-29_looter_cape_red_front-2">
</path>
<path d="M 698 514 C 693 524 684 595 683 599 L 682 598 L 640 553 L 634 473 L 617 470 L 589 503 L 574 532 L 555 546 L 563 505 C 522 564 402 730 370 791 C 168 662 266 486 338 396 L 428 374 L 428 372 C 437 362 486 323 497 313 C 501 316 514 324 519 326 L 533 314 C 538 321 547 335 552 341 L 552 341 C 557 344 566 349 571 352 C 577 346 585 337 591 331 L 605 338 C 606 348 602 365 615 368 C 615 368 633 384 646 396 C 655 405 662 408 664 417 C 660 462 677 477 698 514 Z" fill="#481f24" id="id-male-29_looter_cape_red_front-2">
</path>
<path d="M 138 1046 C 248 932 344 723 438 597 L 450 653 C 393 736 283 911 239 1001 L 138 1046 Z" fill="#55252a" id="id-male-29_looter_cape_red_front-2">
</path>
<path d="M 698 514 C 693 524 684 595 683 599 L 647 551 L 644 471 L 664 441 C 665 470 687 492 698 514 Z" fill="#6b2e35" id="id-male-29_looter_cape_red_front-2">
</path>
<path d="M 663 415 L 620 453 L 544 461 L 580 407 L 630 402 L 646 396 C 654 404 660 407 663 415 Z" fill="#5d282e" id="id-male-29_looter_cape_red_front-2">
</path>
<path d="M 605 343 L 579 395 L 507 462 L 446 488 L 544 395 C 547 392 588 331 591 331 L 605 338 C 605 338 605 340 605 343 Z" fill="#612a30" id="id-male-29_looter_cape_red_front-2">
</path>
<path d="M 572 351 C 550 374 509 420 488 444 L 401 513 L 399 514 L 76 481 L 60 479 L 54 471 L 64 457 L 69 457 L 127 390 C 129 385 127 379 126 375 C 132 366 146 345 151 337 C 168 338 219 331 225 331 L 284 349 C 288 352 306 363 311 365 L 337 396 L 428 374 L 428 372 C 437 362 486 323 497 313 L 503 317 C 473 352 418 398 399 441 L 341 461 L 441 444 L 466 392 L 519 347 L 527 332 L 572 351 Z" fill="#5c282e" id="id-male-29_looter_cape_red_front-2">
</path>
<path d="M 565 493 L 418 696 L 435 616 L 388 673 C 410 640 493 516 513 486 L 599 468 C 600 469 601 472 601 474 L 565 493 Z" fill="#7f373f" id="id-male-29_looter_cape_red_front-2">
</path>
<polygon points="601 471 483 530 513 486 599 468" fill="#58262b" id="id-male-29_looter_cape_red_front-2">
</polygon>
<polygon points="489 474 511 478 383 641 367 612 272 693" fill="#933f48" id="id-male-29_looter_cape_red_front-2">
</polygon>
<polygon points="332 510 420 516 204 685 292 565 231 580" fill="#6b2f35" id="id-male-29_looter_cape_red_front-2">
</polygon>
<path d="M 317 510 C 239 566 262 564 165 579 L 157 556 L 208 504 L 207 502 L 317 510 Z" fill="#7b363e" id="id-male-29_looter_cape_red_front-2">
</path>
<polygon points="120 504 196 509 108 582" fill="#9f444e" id="id-male-29_looter_cape_red_front-2">
</polygon>
<polygon points="119 499 119 506 97 591 66 615 62 612 72 591 87 507 84 503" fill="#a94954" id="id-male-29_looter_cape_red_front-2">
</polygon>
<path d="M 167 592 L 40 721 C 48 705 70 671 70 671 L 77 644 L 76 629 L 90 652 L 167 592 Z" fill="#ad4a55" id="id-male-29_looter_cape_red_front-2">
</path>
<path d="M 283 689 C 279 692 277 814 277 821 L 167 940 L 98 1051 L 2 1159 C -2 1150 2 1128 1 1120 L 2 1102 L 6 1087 C 2 1071 6 1020 6 1003 L 23 985 L 26 959 L 22 954 L 15 934 C 15 933 21 913 21 912 L 21 863 L 27 856 C 27 853 29 828 30 825 C 26 822 27 818 27 818 C 28 809 40 754 41 744 C 93 697 169 629 217 577 L 115 788 L 248 683 L 103 872 L 283 689 Z" fill="url(#id-male-29_looter_cape_red_front-0)" id="id-male-29_looter_cape_red_front-2">
</path>
<polygon points="307 704 307 776 375 661 361 637" fill="#652c32" id="id-male-29_looter_cape_red_front-2">
</polygon>
<path d="M 285 932 L 349 729 L 384 674 C 367 723 313 891 285 932 Z" fill="#733138" id="id-male-29_looter_cape_red_front-2">
</path>
<path d="M 225 331 L 174 376 L 150 338 L 151 337 C 168 338 219 331 225 331 Z" fill="#883a43" id="id-male-29_looter_cape_red_front-2">
</path>
<path d="M 290 353 L 254 376 L 174 376 L 225 331 C 230 333 289 349 290 353 Z" fill="#95404a" id="id-male-29_looter_cape_red_front-2">
</path>
<path d="M 167 378 L 274 376 L 337 396 C 295 393 209 383 167 378 Z" fill="#2c1417" id="id-male-29_looter_cape_red_front-2">
</path>
<path d="M 529 398 L 488 444 L 401 513 C 320 501 139 481 60 479 L 54 471 L 64 457 L 69 457 L 127 390 C 128 389 128 386 128 385 C 201 393 345 405 418 408 L 399 441 L 341 461 L 441 444 L 529 398 Z" fill="#8f3d47" id="id-male-29_looter_cape_red_front-2">
</path>
<path d="M 124 390 L 125 390 L 124 391 C 124 391 124 390 124 390 Z" fill="#3bb54a" id="id-male-29_looter_cape_red_front-2">
</path>
<path d="M 150 368 L 128 387 C 129 385 126 377 126 375 L 142 350 L 150 368 Z" fill="#6a2e34" id="id-male-29_looter_cape_red_front-2">
</path>
<polygon points="135 386 152 376 176 391" fill="#692e34" id="id-male-29_looter_cape_red_front-2">
</polygon>
<path d="M 125 390 L 124 391 C 124 391 124 390 124 390 L 125 390 Z" fill="#3bb54a" id="id-male-29_looter_cape_red_front-2">
</path>
<polygon points="112 437 134 437 58 466 64 457 69 457 127 390 158 395" fill="#b34d58" id="id-male-29_looter_cape_red_front-2">
</polygon>
<polygon points="213 468 356 403 346 403 401 392 473 346 420 404 417 403 317 477" fill="#be5e68" id="id-male-29_looter_cape_red_front-2">
</polygon>
<polygon points="330 476 446 448 408 482" fill="#bf616a" id="id-male-29_looter_cape_red_front-2">
</polygon>
<path d="M 167 629 C 143 662 60 781 29 805 C 29 804 42 745 41 744 C 66 722 141 653 167 629 Z" fill="#b8505b" id="id-male-29_looter_cape_red_front-2">
</path>
<path d="M 157 769 L 21 870 L 21 863 L 27 856 C 27 856 27 851 27 851 L 157 769 Z" fill="#b64e59" id="id-male-29_looter_cape_red_front-2">
</path>
<path d="M 84 868 L 16 932 C 17 928 23 910 21 906 L 84 868 Z" fill="#b8515c" id="id-male-29_looter_cape_red_front-2">
</path>
<path d="M 137 847 L 280 702 C 219 809 245 787 137 847 Z" fill="#95404a" id="id-male-29_looter_cape_red_front-2">
</path>
<path d="M 154 883 L 75 1053 L 1 1120 L 2 1102 L 6 1087 C 2 1075 5 1022 5 1009 L 154 883 Z" fill="#af4b56" id="id-male-29_looter_cape_red_front-2">
</path>
<polygon points="663 499 655 547 684 521" fill="#94404a" id="id-male-29_looter_cape_red_front-2">
</polygon>
<path d="M 573 350 L 557 367 L 515 342 L 529 328 C 529 328 536 329 544 330 C 545 331 551 340 552 341 L 552 341 C 555 343 562 346 573 350 Z" fill="#f2f4f6" id="id-male-29_looter_cape_red_front-2">
</path>
<path d="M 605 344 L 586 336 L 590 330 L 606 338 C 606 337 605 342 605 344 Z" fill="#f2f4f6" id="id-male-29_looter_cape_red_front-2">
</path>
<path d="M 667 454 C 664 460 656 475 653 481 L 659 424 L 640 436 L 632 401 L 643 396 L 601 362 L 606 355 C 606 363 614 365 615 367 C 617 370 659 403 664 414 C 665 417 664 444 667 454 Z" fill="#f2f4f6" id="id-male-29_looter_cape_red_front-2">
</path>
<path d="M 673 471 C 671 472 668 474 667 474 L 661 458 L 666 449 C 667 456 671 465 673 471 Z" fill="#868a94" id="id-male-29_looter_cape_red_front-2">
</path>
<path d="M 698 514 C 695 518 686 525 682 525 L 681 524 L 662 507 C 663 497 667 468 668 458 C 671 469 693 504 698 514 Z" fill="#f2f4f6" id="id-male-29_looter_cape_red_front-2">
</path>
<polygon points="129 432 162 402 269 402 200 457 68 467 144 438" fill="#a84853" id="id-male-29_looter_cape_red_front-2">
</polygon>
<path d="M 213 957 L 126 1058 L 115 1060 L 115 1060 C 106 1068 78 1093 29 1136 L 4 1162 C 2 1160 2 1158 2 1157 C 49 1103 154 999 213 957 Z" fill="#57262b" id="id-male-29_looter_cape_red_front-2">
</path>
<path d="M 545 374 L 529 394 L 491 371 C 490 371 480 371 479 371 L 482 366 L 469 378 L 461 372 L 461 368 L 468 362 L 467 361 L 452 351 L 470 334 C 472 335 486 345 487 345 L 479 352 C 494 359 489 360 506 355 L 507 355 C 507 355 545 374 545 374 Z" fill="#a2d400" id="id-male-29_looter_cape_red_front-2">
</path>
<polygon points="442 357 436 365 449 375 456 367" fill="#729b00" id="id-male-29_looter_cape_red_front-2">
</polygon>
<polygon points="452 375 450 381 457 384 461 380" fill="#729b00" id="id-male-29_looter_cape_red_front-2">
</polygon>
<polygon points="519 398 514 403 477 381 459 392 467 384 483 377" fill="#9ccb00" id="id-male-29_looter_cape_red_front-2">
</polygon>
<path d="M 591 357 L 591 371 L 579 394 C 578 390 578 380 577 375 L 557 375 L 568 357 L 591 357 Z" fill="#90be00" id="id-male-29_looter_cape_red_front-2">
</path>
<path d="M 574 384 L 572 408 L 566 413 C 566 412 566 393 566 393 L 566 392 L 552 389 L 553 383 L 574 384 Z" fill="#88b400" id="id-male-29_looter_cape_red_front-2">
</path>
<path d="M 625 455 L 596 457 L 571 417 L 568 418 L 579 397 L 599 406 C 599 406 600 406 600 406 C 603 413 622 449 625 455 Z" fill="#91c100" id="id-male-29_looter_cape_red_front-2">
</path>
<path d="M 591 460 L 584 460 C 578 452 565 432 559 424 L 564 421 L 591 460 Z" fill="#92c000" id="id-male-29_looter_cape_red_front-2">
</path>
<path d="M 605 483 L 588 506 L 547 473 L 577 463 C 582 467 599 479 605 483 Z" fill="#729b00" id="id-male-29_looter_cape_red_front-2">
</path>
<path d="M 537 474 L 528 476 L 561 499 L 564 506 L 579 520 L 583 512 L 568 502 C 566 497 542 478 537 474 Z" fill="#729b00" id="id-male-29_looter_cape_red_front-2">
</path>
<polygon points="585 468 553 478 547 473 577 463" fill="#732f16" id="id-male-29_looter_cape_red_front-2">
</polygon>
<polygon points="591 460 584 460 575 447 581 445" fill="#729b00" id="id-male-29_looter_cape_red_front-2">
</polygon>
<polygon points="625 455 596 457 589 446 620 446" fill="#597a00" id="id-male-29_looter_cape_red_front-2">
</polygon>
<path d="M 572 408 C 572 408 566 413 566 412 L 566 393 L 574 384 L 572 408 Z" fill="#729b00" id="id-male-29_looter_cape_red_front-2">
</path>
<path d="M 579 394 L 578 383 C 578 383 591 359 591 359 L 591 371 L 579 394 Z" fill="#597900" id="id-male-29_looter_cape_red_front-2">
</path>
<polygon points="599 406 571 411 579 397" fill="#763117" id="id-male-29_looter_cape_red_front-2">
</polygon>
<polygon points="545 374 529 394 525 392 545 374" fill="#763017" id="id-male-29_looter_cape_red_front-2">
</polygon>
<polygon points="486 378 482 385 477 381 459 392 467 384 483 377" fill="#678102" id="id-male-29_looter_cape_red_front-2">
</polygon>
<path d="M 507 355 L 490 371 C 490 371 480 371 479 371 L 482 366 L 469 378 L 461 372 L 461 368 L 468 362 L 467 361 L 485 344 L 487 345 L 479 352 C 494 359 489 360 506 355 L 507 355 Z" fill="#587900" id="id-male-29_looter_cape_red_front-2">
</path>
<path d="M 179 501 C 177 509 174 524 172 531 L 157 543 C 158 535 162 510 163 503 L 179 501 Z" fill="#587700" id="id-male-29_looter_cape_red_front-2">
</path>
<path d="M 167 538 L 179 528 L 194 546 L 189 575 L 174 583 C 174 581 181 550 179 549 C 177 546 171 540 167 538 Z" fill="#587800" id="id-male-29_looter_cape_red_front-2">
</path>
<path d="M 168 586 C 168 586 171 607 180 607 L 166 623 L 157 602 L 168 586 Z" fill="#567800" id="id-male-29_looter_cape_red_front-2">
</path>
<path d="M 177 741 C 177 739 181 729 181 728 L 181 722 L 184 718 L 184 691 C 183 690 165 674 165 673 C 168 663 169 660 169 663 C 173 665 187 673 191 676 C 193 682 192 708 192 715 L 189 720 C 189 721 190 725 193 729 C 195 734 189 738 177 741 Z" fill="#567800" id="id-male-29_looter_cape_red_front-2">
</path>
<path d="M 193 816 L 194 834 C 186 862 174 903 172 931 C 160 943 161 941 154 957 C 155 924 168 875 176 843 C 177 837 177 828 176 823 L 182 801 L 192 784 L 194 769 L 205 763 L 207 774 C 207 775 192 815 193 816 Z" fill="#567800" id="id-male-29_looter_cape_red_front-2">
</path>
<path d="M 237 1002 L 227 1011 L 217 1016 L 205 1009 C 205 1010 186 991 186 991 L 202 967 C 208 980 228 999 237 1002 Z" fill="#567800" id="id-male-29_looter_cape_red_front-2">
</path>
<polygon points="164 974 172 1004 159 1017 154 1020 150 992 152 984" fill="#567800" id="id-male-29_looter_cape_red_front-2">
</polygon>
<path d="M 237 1002 L 227 1011 L 217 1016 C 216 1015 204 1009 203 1008 L 221 990 C 227 997 238 1003 237 1002 Z" fill="#998f41" id="id-male-29_looter_cape_red_front-2">
</path>
<polygon points="193 815 193 816 177 829 176 823 182 801 192 784 194 769 205 763 207 774" fill="#9ecc00" id="id-male-29_looter_cape_red_front-2">
</polygon>
<polygon points="200 745 194 754 194 762 187 756 177 741 181 730 190 723" fill="#9ecc00" id="id-male-29_looter_cape_red_front-2">
</polygon>
<path d="M 175 666 L 167 675 L 163 679 L 152 656 L 157 638 L 167 628 C 165 646 170 658 169 663 L 175 666 Z" fill="#89b500" id="id-male-29_looter_cape_red_front-2">
</path>
<polygon points="176 516 172 531 157 543 161 514" fill="#a3d200" id="id-male-29_looter_cape_red_front-2">
</polygon>
<polygon points="244 330 291 309 333 335 288 347" fill="#6d3036" id="id-male-29_looter_cape_red_front-2">
</polygon>
<path d="M 289 193 C 289 193 293 169 313 166 C 333 163 351 151 355 150 C 378 146 379 167 425 162 C 432 162 442 164 449 177 C 457 190 438 103 438 103 L 284 103 L 289 193 Z" fill="#221827" opacity="0.397" id="id-male-29_looter_cape_red_front-2">
</path>
<path d="M 287 227 L 292 189 L 292 160 L 298 135 C 316 99 357 111 400 113 C 407 114 423 113 430 125 C 436 137 447 181 447 181 L 469 221 L 438 96 C 438 96 380 53 367 61 C 344 76 283 88 282 106 C 281 119 274 216 287 227 Z" fill="#111926" id="id-male-29_looter_cape_red_front-2">
</path>
<path d="M 534 314 L 535 315 L 520 327 L 517 326 L 527 313 L 529 305 L 492 265 C 485 252 473 231 467 219 L 448 166 C 445 158 439 136 437 129 L 425 112 C 385 106 294 81 289 157 C 289 170 290 219 285 227 L 208 289 L 205 316 L 211 318 L 287 343 L 331 332 L 361 361 L 346 360 L 325 338 L 286 350 C 267 344 222 332 197 321 C 198 317 203 285 203 282 C 230 258 229 243 242 200 C 248 181 256 160 258 143 C 260 118 263 68 292 34 C 334 -9 412 -11 449 35 C 477 69 481 154 484 161 C 486 178 553 294 534 314 Z" fill="#58262b" id="id-male-29_looter_cape_red_front-2">
</path>
<path d="M 243 257 L 202 288 L 203 282 C 230 258 229 243 242 200 L 243 257 Z" fill="#843941" id="id-male-29_looter_cape_red_front-2">
</path>
<path d="M 291 41 C 291 41 279 67 283 118 C 286 168 286 206 286 206 L 258 143 C 260 118 263 68 292 34 C 292 37 292 39 291 41 L 291 41 Z" fill="#8a3b44" id="id-male-29_looter_cape_red_front-2">
</path>
<path d="M 534 314 L 535 315 L 520 327 L 517 326 L 527 313 L 529 305 L 492 265 C 485 252 473 231 467 219 L 448 166 C 445 158 439 136 437 129 L 425 112 C 411 109 342 97 318 109 L 304 23 C 442 -53 477 76 486 166 C 492 181 512 225 525 259 C 534 288 546 298 534 314 Z" fill="#b74f5a" id="id-male-29_looter_cape_red_front-2">
</path>
<path d="M 330 105 C 316 107 303 118 297 128 C 293 104 296 52 298 28 C 306 21 315 15 325 11 C 308 46 321 85 330 105 Z" fill="#733138" id="id-male-29_looter_cape_red_front-2">
</path>
<path d="M 441 117 L 441 141 L 437 129 L 425 112 C 411 109 396 107 381 105 C 429 78 414 28 404 5 C 414 8 423 13 431 19 C 435 30 438 45 436 56 C 433 78 441 117 441 117 Z" fill="#deabb0" id="id-male-29_looter_cape_red_front-2">
</path>
<path d="M 530 295 C 515 281 483 253 475 235 C 484 237 509 252 521 257 L 530 295 Z" fill="#cf888f" id="id-male-29_looter_cape_red_front-2">
</path>
<path d="M 539 300 C 539 305 537 311 534 314 L 535 315 L 520 327 L 517 326 L 527 313 L 529 305 L 492 265 C 489 260 477 238 475 235 C 489 249 524 286 539 300 Z" fill="#e2b5ba" id="id-male-29_looter_cape_red_front-2">
</path>
<path d="M 399 110 L 344 109 L 344 99 L 371 81 L 398 97 C 398 100 399 107 399 110 Z" fill="#a5d800" id="id-male-29_looter_cape_red_front-2">
</path>
<polygon points="399 110 344 109 344 102 399 102" fill="#5b8000" id="id-male-29_looter_cape_red_front-2">
</polygon>
<path d="M 525 259 C 517 255 505 249 494 243 C 478 235 483 184 486 166 C 492 181 512 225 525 259 Z" fill="#99575d" id="id-male-29_looter_cape_red_front-2">
</path>
<path d="M 537 310 C 532 298 531 298 522 290 L 515 241 L 490 192 L 488 230 C 481 212 478 146 478 146 L 472 105 L 459 62 L 414 9 C 474 27 480 140 484 161 C 487 176 547 290 537 310 Z" fill="#f0f2f5" id="id-male-29_looter_cape_red_front-2">
</path>
<path d="M 331 333 L 327 341 L 325 338 L 286 349 C 271 345 235 335 212 327 L 210 318 L 287 343 L 331 332 C 331 332 331 333 331 333 Z" fill="#cb8088" id="id-male-29_looter_cape_red_front-2">
</path>
<polygon points="361 361 346 360 326 339 331 332" fill="#99424c" id="id-male-29_looter_cape_red_front-2">
</polygon>
<path d="M 413 347 L 413 347 L 415 377 L 374 362 C 374 362 412 344 413 344 C 431 338 497 329 517 326 L 519 326 C 522 330 415 346 413 347 Z" fill="#b6505c" id="id-male-29_looter_cape_red_front-2">
</path>
<path d="M 415 377 L 374 362 C 374 362 412 344 413 344 L 413 347 L 413 347 L 415 377 Z" fill="#7b353d" id="id-male-29_looter_cape_red_front-2">
</path>
</g>
<defs>
</defs>

</svg>
