<?xml version="1.0" encoding="UTF-8"?>
<svg xmlns="http://www.w3.org/2000/svg" xmlns:xlink="http://www.w3.org/1999/xlink" width="1320px" height="1760px" viewBox="0 0 1320 1760" version="1.1">
<defs>
</defs>

<defs>
<linearGradient x1="50%" y1="6%" x2="50%" y2="100%" id="id-male-6.6_base_3-0">
<stop stop-color="#b37355" offset="0%">
</stop>
<stop stop-color="#c58b67" offset="8%">
</stop>
<stop stop-color="#a5684c" offset="20%">
</stop>
<stop stop-color="#975844" offset="34%">
</stop>
<stop stop-color="#934f3c" offset="71%">
</stop>
<stop stop-color="#602521" offset="100%">
</stop>
</linearGradient>
<linearGradient x1="50%" y1="-10%" x2="50%" y2="84%" id="id-male-6.6_base_3-1">
<stop stop-color="#a86549" offset="0%">
</stop>
<stop stop-color="#c1845e" offset="49%">
</stop>
<stop stop-color="#ab6a54" offset="100%">
</stop>
</linearGradient>
<linearGradient x1="57%" y1="50%" x2="47%" y2="56%" id="id-male-6.6_base_3-2">
<stop stop-color="#7a3a33" offset="0%">
</stop>
<stop stop-color="#783731" offset="100%">
</stop>
</linearGradient>
<linearGradient x1="45%" y1="35%" x2="55%" y2="47%" id="id-male-6.6_base_3-3">
<stop stop-color="#a66552" offset="0%">
</stop>
<stop stop-color="#824237" offset="100%">
</stop>
</linearGradient>
<linearGradient x1="54%" y1="31%" x2="47%" y2="81%" id="id-male-6.6_base_3-4">
<stop stop-color="#a5684e" offset="0%">
</stop>
<stop stop-color="#a7644c" offset="20%">
</stop>
<stop stop-color="#8a4938" offset="71%">
</stop>
<stop stop-color="#854739" offset="81%">
</stop>
<stop stop-color="#824036" offset="100%">
</stop>
</linearGradient>
<linearGradient x1="43%" y1="38%" x2="54%" y2="44%" id="id-male-6.6_base_3-5">
<stop stop-color="#aa6548" offset="0%">
</stop>
<stop stop-color="#9e5b43" offset="100%">
</stop>
</linearGradient>
<linearGradient x1="46%" y1="8%" x2="58%" y2="82%" id="id-male-6.6_base_3-6">
<stop stop-color="#c9906f" offset="0%">
</stop>
<stop stop-color="#a45848" offset="100%">
</stop>
</linearGradient>
<linearGradient x1="50%" y1="41%" x2="49%" y2="65%" id="id-male-6.6_base_3-7">
<stop stop-color="#622b30" offset="0%">
</stop>
<stop stop-color="#a8594b" offset="27%">
</stop>
<stop stop-color="#ab6f54" offset="100%">
</stop>
</linearGradient>
<linearGradient x1="63%" y1="4%" x2="25%" y2="77%" id="id-male-6.6_base_3-8">
<stop stop-color="#d2a185" offset="0%">
</stop>
<stop stop-color="#d5a88f" offset="55%">
</stop>
<stop stop-color="#b97a5d" offset="100%">
</stop>
</linearGradient>
<linearGradient x1="50%" y1="23%" x2="41%" y2="77%" id="id-male-6.6_base_3-9">
<stop stop-color="#7f3531" offset="0%">
</stop>
<stop stop-color="#9d4d4c" offset="100%">
</stop>
</linearGradient>
<linearGradient x1="47%" y1="22%" x2="55%" y2="89%" id="id-male-6.6_base_3-10">
<stop stop-color="#b57159" offset="0%">
</stop>
<stop stop-color="#bc8971" offset="100%">
</stop>
</linearGradient>
<linearGradient x1="86%" y1="87%" x2="11%" y2="66%" id="id-male-6.6_base_3-11">
<stop stop-color="#9e5c4a" offset="0%">
</stop>
<stop stop-color="#8c4e40" offset="100%">
</stop>
</linearGradient>
<linearGradient x1="71%" y1="11%" x2="50%" y2="100%" id="id-male-6.6_base_3-12">
<stop stop-color="#b27255" offset="0%">
</stop>
<stop stop-color="#a5684c" offset="100%" stop-opacity="0">
</stop>
</linearGradient>
<linearGradient x1="66%" y1="46%" x2="56%" y2="43%" id="id-male-6.6_base_3-13">
<stop stop-color="#8e5040" offset="0%">
</stop>
<stop stop-color="#7d403a" offset="100%">
</stop>
</linearGradient>
<linearGradient x1="100%" y1="41%" x2="50%" y2="63%" id="id-male-6.6_base_3-14">
<stop stop-color="#712725" offset="0%">
</stop>
<stop stop-color="#732825" offset="100%">
</stop>
</linearGradient>
<linearGradient x1="69%" y1="20%" x2="50%" y2="100%" id="id-male-6.6_base_3-15">
<stop stop-color="#925342" offset="0%">
</stop>
<stop stop-color="#9d5a48" offset="100%">
</stop>
</linearGradient>
<linearGradient x1="36%" y1="20%" x2="57%" y2="81%" id="id-male-6.6_base_3-16">
<stop stop-color="#b07254" offset="0%">
</stop>
<stop stop-color="#b37355" offset="100%">
</stop>
</linearGradient>
<linearGradient x1="26%" y1="83%" x2="92%" y2="50%" id="id-male-6.6_base_3-17">
<stop stop-color="#c48864" offset="0%" stop-opacity="0">
</stop>
<stop stop-color="#c38b6b" offset="99%">
</stop>
</linearGradient>
<linearGradient x1="17%" y1="56%" x2="85%" y2="45%" id="id-male-6.6_base_3-18">
<stop stop-color="#d0a183" offset="0%" stop-opacity="0">
</stop>
<stop stop-color="#d0a183" offset="51%">
</stop>
<stop stop-color="#c68e6e" offset="100%">
</stop>
</linearGradient>
<linearGradient x1="17%" y1="24%" x2="74%" y2="87%" id="id-male-6.6_base_3-19">
<stop stop-color="#c78e6c" offset="0%">
</stop>
<stop stop-color="#b87755" offset="100%">
</stop>
</linearGradient>
<linearGradient x1="26%" y1="42%" x2="80%" y2="75%" id="id-male-6.6_base_3-20">
<stop stop-color="#d9b09c" offset="0%">
</stop>
<stop stop-color="#d5a88f" offset="100%" stop-opacity="0">
</stop>
</linearGradient>
<linearGradient x1="29%" y1="56%" x2="77%" y2="50%" id="id-male-6.6_base_3-21">
<stop stop-color="#cda484" offset="0%">
</stop>
<stop stop-color="#cb9d7c" offset="100%" stop-opacity="0">
</stop>
</linearGradient>
<linearGradient x1="74%" y1="24%" x2="34%" y2="74%" id="id-male-6.6_base_3-22">
<stop stop-color="#c38260" offset="0%">
</stop>
<stop stop-color="#c58865" offset="100%">
</stop>
</linearGradient>
<linearGradient x1="66%" y1="100%" x2="40%" y2="0%" id="id-male-6.6_base_3-23">
<stop stop-color="#bc7a58" offset="0%">
</stop>
<stop stop-color="#d7aa98" offset="46%">
</stop>
<stop stop-color="#c28360" offset="100%">
</stop>
</linearGradient>
<linearGradient x1="52%" y1="13%" x2="59%" y2="75%" id="id-male-6.6_base_3-24">
<stop stop-color="#92463b" offset="0%">
</stop>
<stop stop-color="#af684f" offset="100%">
</stop>
</linearGradient>
<linearGradient x1="28%" y1="76%" x2="73%" y2="20%" id="id-male-6.6_base_3-25">
<stop stop-color="#b87356" offset="0%">
</stop>
<stop stop-color="#91453a" offset="67%">
</stop>
<stop stop-color="#a15745" offset="100%">
</stop>
</linearGradient>
<linearGradient x1="50%" y1="0%" x2="50%" y2="100%" id="id-male-6.6_base_3-26">
<stop stop-color="#9a5242" offset="0%">
</stop>
<stop stop-color="#6c2b27" offset="100%">
</stop>
</linearGradient>
<linearGradient x1="66%" y1="59%" x2="24%" y2="66%" id="id-male-6.6_base_3-27">
<stop stop-color="#a36149" offset="0%">
</stop>
<stop stop-color="#c07f5d" offset="100%">
</stop>
</linearGradient>
<linearGradient x1="41%" y1="11%" x2="55%" y2="61%" id="id-male-6.6_base_3-28">
<stop stop-color="#cd9781" offset="0%">
</stop>
<stop stop-color="#b4705c" offset="100%">
</stop>
</linearGradient>
<linearGradient x1="19%" y1="58%" x2="66%" y2="43%" id="id-male-6.6_base_3-29">
<stop stop-color="#d3a389" offset="0%">
</stop>
<stop stop-color="#c38761" offset="100%">
</stop>
</linearGradient>
<linearGradient x1="73%" y1="50%" x2="30%" y2="53%" id="id-male-6.6_base_3-30">
<stop stop-color="#9b5f42" offset="0%">
</stop>
<stop stop-color="#b67b61" offset="100%">
</stop>
</linearGradient>
<linearGradient x1="31%" y1="0%" x2="50%" y2="100%" id="id-male-6.6_base_3-31">
<stop stop-color="#d5a897" offset="0%">
</stop>
<stop stop-color="#d1a08e" offset="100%">
</stop>
</linearGradient>
<linearGradient x1="29%" y1="43%" x2="65%" y2="100%" id="id-male-6.6_base_3-32">
<stop stop-color="#d29d85" offset="0%">
</stop>
<stop stop-color="#c18265" offset="100%">
</stop>
</linearGradient>
<linearGradient x1="13%" y1="78%" x2="84%" y2="50%" id="id-male-6.6_base_3-33">
<stop stop-color="#b77456" offset="0%">
</stop>
<stop stop-color="#aa6244" offset="100%">
</stop>
</linearGradient>
<linearGradient x1="50%" y1="0%" x2="36%" y2="100%" id="id-male-6.6_base_3-34">
<stop stop-color="#d1a187" offset="0%">
</stop>
<stop stop-color="#cc957e" offset="100%">
</stop>
</linearGradient>
<linearGradient x1="50%" y1="28%" x2="64%" y2="55%" id="id-male-6.6_base_3-35">
<stop stop-color="#cf9d80" offset="0%">
</stop>
<stop stop-color="#c38869" offset="100%">
</stop>
</linearGradient>
<linearGradient x1="40%" y1="55%" x2="62%" y2="71%" id="id-male-6.6_base_3-36">
<stop stop-color="#b47251" offset="0%">
</stop>
<stop stop-color="#ba7b58" offset="100%">
</stop>
</linearGradient>
<linearGradient x1="9%" y1="37%" x2="88%" y2="55%" id="id-male-6.6_base_3-37">
<stop stop-color="#9d5d46" offset="0%">
</stop>
<stop stop-color="#86473b" offset="100%">
</stop>
</linearGradient>
<linearGradient x1="62%" y1="19%" x2="50%" y2="100%" id="id-male-6.6_base_3-38">
<stop stop-color="#b06a4d" offset="0%">
</stop>
<stop stop-color="#8e483a" offset="100%">
</stop>
</linearGradient>
<linearGradient x1="45%" y1="18%" x2="51%" y2="67%" id="id-male-6.6_base_3-39">
<stop stop-color="#d29f88" offset="0%">
</stop>
<stop stop-color="#be7f5d" offset="100%">
</stop>
</linearGradient>
<linearGradient x1="50%" y1="43%" x2="50%" y2="100%" id="id-male-6.6_base_3-40">
<stop stop-color="#ca9076" offset="0%">
</stop>
<stop stop-color="#ab6344" offset="100%">
</stop>
</linearGradient>
<linearGradient x1="45%" y1="50%" x2="58%" y2="50%" id="id-male-6.6_base_3-41">
<stop stop-color="#9d5d49" offset="0%">
</stop>
<stop stop-color="#be836d" offset="100%">
</stop>
</linearGradient>
<linearGradient x1="33%" y1="74%" x2="77%" y2="42%" id="id-male-6.6_base_3-42">
<stop stop-color="#a8644f" offset="0%">
</stop>
<stop stop-color="#b6765a" offset="100%">
</stop>
</linearGradient>
<linearGradient x1="63%" y1="59%" x2="38%" y2="59%" id="id-male-6.6_base_3-43">
<stop stop-color="#a86451" offset="0%">
</stop>
<stop stop-color="#b77154" offset="100%">
</stop>
</linearGradient>
<linearGradient x1="50%" y1="0%" x2="50%" y2="100%" id="id-male-6.6_base_3-44">
<stop stop-color="#bd907d" offset="0%">
</stop>
<stop stop-color="#9e5744" offset="100%">
</stop>
</linearGradient>
<linearGradient x1="47%" y1="47%" x2="53%" y2="50%" id="id-male-6.6_base_3-45">
<stop stop-color="#c19b86" offset="0%">
</stop>
<stop stop-color="#9e5744" offset="100%">
</stop>
</linearGradient>
<linearGradient x1="50%" y1="0%" x2="50%" y2="100%" id="id-male-6.6_base_3-46">
<stop stop-color="#ac6553" offset="0%">
</stop>
<stop stop-color="#9e5644" offset="100%">
</stop>
</linearGradient>
<linearGradient x1="50%" y1="0%" x2="50%" y2="100%" id="id-male-6.6_base_3-47">
<stop stop-color="#b28775" offset="0%">
</stop>
<stop stop-color="#b68776" offset="100%">
</stop>
</linearGradient>
<linearGradient x1="0%" y1="55%" x2="100%" y2="55%" id="id-male-6.6_base_3-48">
<stop stop-color="#a2675e" offset="0%">
</stop>
<stop stop-color="#8f4f4c" offset="100%">
</stop>
</linearGradient>
<linearGradient x1="50%" y1="0%" x2="50%" y2="100%" id="id-male-6.6_base_3-49">
<stop stop-color="#af8873" offset="0%">
</stop>
<stop stop-color="#93493e" offset="100%">
</stop>
</linearGradient>
<linearGradient x1="49%" y1="20%" x2="52%" y2="96%" id="id-male-6.6_base_3-50">
<stop stop-color="#9b5650" offset="0%">
</stop>
<stop stop-color="#984d3f" offset="100%">
</stop>
</linearGradient>
<linearGradient x1="50%" y1="0%" x2="50%" y2="100%" id="id-male-6.6_base_3-51">
<stop stop-color="#5a1d24" offset="0%">
</stop>
<stop stop-color="#72332b" offset="100%">
</stop>
</linearGradient>
<linearGradient x1="33%" y1="47%" x2="59%" y2="56%" id="id-male-6.6_base_3-52">
<stop stop-color="#8e4d39" offset="0%">
</stop>
<stop stop-color="#7c3a31" offset="100%">
</stop>
</linearGradient>
</defs>
<g transform="translate(304,473)" id="id-male-6.6_base_3-53">
<polygon points="174 662 139 824 137 906 146 1082 171 1154 176 1211 174 1230 175 1284 287 1284 284 1265 308 1195 306 1124 345 952 343 912 353 879 362 881 371 877 383 904 391 970 434 1079 457 1202 475 1252 475 1284 596 1284 600 1225 591 1146 609 1103 612 997 596 842 545 671 539 640 528 606 531 569 509 498 522 403 539 360 539 348 563 464 576 498 585 574 637 704 646 760 646 778 626 822 624 853 631 879 629 901 632 920 637 931 647 931 657 920 655 877 659 867 670 874 672 899 676 903 667 923 644 934 643 945 666 939 664 948 643 960 640 982 657 971 674 969 690 945 701 933 704 926 707 923 713 892 718 871 704 832 696 786 703 768 693 725 693 521 652 425 629 282 626 203 612 175 567 156 548 141 530 139 479 114 422 73 416 42 415 1 285 0 284 73 279 83 242 114 196 137 171 139 155 156 108 175 91 228 91 287 68 431 30 516 23 602 28 725 16 764 21 782 0 874 18 932 49 968 59 970 83 982 83 965 78 960 57 949 55 941 78 948 78 936 66 929 53 923 45 906 51 875 61 866 66 877 63 922 75 927 86 925 93 899 90 877 96 856 96 824 75 778 77 738 108 637 139 562 142 495 159 458 180 358 199 403 203 461 211 504 188 564 191 608" fill="url(#id-male-6.6_base_3-0)" id="id-male-6.6_base_3-54">
</polygon>
<polygon points="91 287 68 431 30 516 23 602 72 688 117 614 98 452 109 469 123 336 102 372 109 294 88 309 109 285" fill="url(#id-male-6.6_base_3-1)" id="id-male-6.6_base_3-54">
</polygon>
<polygon points="383 906 391 972 434 1081 457 1204 475 1254 475 1287 596 1287 600 1226 591 1148 609 1105 612 999 602 904 584 908 584 846 535 683 456 705 382 878" fill="url(#id-male-6.6_base_3-2)" id="id-male-6.6_base_3-54">
</polygon>
<polygon points="137 907 146 1083 171 1156 176 1212 174 1232 175 1286 175 1287 287 1287 284 1266 308 1197 306 1126 345 954 343 923 293 814 263 724 247 711" fill="url(#id-male-6.6_base_3-3)" id="id-male-6.6_base_3-54">
</polygon>
<polygon points="545 673 539 641 528 608 531 571 509 500 522 405 539 361 539 350 563 465 576 500 601 540 660 491 688 529 652 427 629 283 626 205 612 177 568 157 548 142 530 141 479 116 422 75 416 44 415 3 360 3 360 715 462 724" fill="url(#id-male-6.6_base_3-4)" id="id-male-6.6_base_3-54">
</polygon>
<polygon points="83 984 59 972 49 970 21 932 19 903 7 879 0 874 11 824 38 786 38 814 56 786 78 800 91 822 83 879 69 882 63 855 51 877 45 908 47 930 37 930 50 938 53 954 49 960 56 956 83 973" fill="#b1684a" id="id-male-6.6_base_3-59">
</polygon>
<polygon points="66 855 69 882 63 855 51 877 45 908 42 870 58 825" fill="url(#id-male-6.6_base_3-5)" id="id-male-6.6_base_3-59">
</polygon>
<polygon points="83 879 69 882 70 868" fill="#c7846a" id="id-male-6.6_base_3-59">
</polygon>
<polygon points="481 376 513 349 558 291 522 368" fill="#885f60" id="id-male-6.6_base_3-62">
</polygon>
<polygon points="313 697 260 560 246 448 259 424 355 408 361 366 317 404 285 409 267 378 313 343 394 351 431 378 420 404 368 399 371 404 449 421 466 441 449 510 466 547 406 697 358 717" fill="url(#id-male-6.6_base_3-6)" id="id-male-6.6_base_3-63">
</polygon>
<polygon points="410 90 430 82 423 76 416 45 416 7 286 9 286 48 283 76 278 86 244 114 195 139 366 139 390 70 410 26" fill="url(#id-male-6.6_base_3-7)" id="id-male-6.6_base_3-64">
</polygon>
<polygon points="182 180 133 231 97 289 97 231 113 182 165 159" fill="url(#id-male-6.6_base_3-8)" id="id-male-6.6_base_3-65">
</polygon>
<polygon points="346 107 384 55 409 31 414 23 299 31" fill="url(#id-male-6.6_base_3-9)" id="id-male-6.6_base_3-66">
</polygon>
<polygon points="287 93 295 32 323 129" fill="url(#id-male-6.6_base_3-10)" id="id-male-6.6_base_3-67">
</polygon>
<polygon points="336 139 314 151 270 146 224 139" fill="#e2b4a4" id="id-male-6.6_base_3-68">
</polygon>
<polygon points="410 84 409 136 461 129" fill="url(#id-male-6.6_base_3-11)" id="id-male-6.6_base_3-69">
</polygon>
<polygon points="173 246 167 286 191 351 263 386 328 330 359 330 359 152 348 139 336 139 309 152" fill="url(#id-male-6.6_base_3-12)" id="id-male-6.6_base_3-70">
</polygon>
<polygon points="464 159 516 190 500 159" fill="url(#id-male-6.6_base_3-13)" id="id-male-6.6_base_3-71">
</polygon>
<polygon points="302 31 346 72 382 62 409 37 416 28 416 13" fill="url(#id-male-6.6_base_3-14)" id="id-male-6.6_base_3-72">
</polygon>
<polygon points="263 151 191 202 219 151" fill="#b17054" id="id-male-6.6_base_3-73">
</polygon>
<polygon points="154 206 170 170 122 188" fill="#deb7a9" id="id-male-6.6_base_3-74">
</polygon>
<polygon points="358 285 344 299 323 318 305 354 358 345 354 305" fill="url(#id-male-6.6_base_3-15)" id="id-male-6.6_base_3-75">
</polygon>
<polygon points="260 361 265 387 203 371 191 347" fill="#94523b" id="id-male-6.6_base_3-76">
</polygon>
<polygon points="198 362 181 359 167 284" fill="#5e2227" id="id-male-6.6_base_3-77">
</polygon>
<polygon points="477 341 477 335 488 326 496 325 509 338 496 348 485 354" fill="#5d2221" id="id-male-6.6_base_3-78">
</polygon>
<polygon points="314 151 342 220 317 293 237 351 209 318 172 251 185 205 270 146" fill="url(#id-male-6.6_base_3-16)" id="id-male-6.6_base_3-79">
</polygon>
<polygon points="314 151 330 238 209 318 172 251 185 205 270 146" fill="url(#id-male-6.6_base_3-17)" id="id-male-6.6_base_3-79">
</polygon>
<polygon points="314 151 350 205 220 227 185 205 270 146" fill="url(#id-male-6.6_base_3-18)" opacity="0.369" id="id-male-6.6_base_3-79">
</polygon>
<polygon points="211 335 223 322 242 327 244 332 235 353 213 349" fill="#642b26" id="id-male-6.6_base_3-82">
</polygon>
<polygon points="224 339 226 342 226 345 222 349 235 350 242 333 230 338 227 335" fill="#70434f" id="id-male-6.6_base_3-83">
</polygon>
<polygon points="488 343 491 347 486 351 479 338 489 327 495 327 493 336" fill="#6f373c" id="id-male-6.6_base_3-84">
</polygon>
<polygon points="485 339 488 343 493 337" fill="#92523e" id="id-male-6.6_base_3-85">
</polygon>
<polygon points="359 162 359 291 406 325 455 347 529 267 463 182 415 166" fill="url(#id-male-6.6_base_3-19)" id="id-male-6.6_base_3-86">
</polygon>
<polygon points="359 178 359 281 391 302 391 249 489 270 461 189 415 166" fill="url(#id-male-6.6_base_3-20)" id="id-male-6.6_base_3-86">
</polygon>
<polygon points="359 178 359 219 472 220 461 189 415 166 371 163" fill="url(#id-male-6.6_base_3-21)" id="id-male-6.6_base_3-86">
</polygon>
<polygon points="358 178 372 168 440 156 413 137 378 158 411 80 396 60 358 146" fill="url(#id-male-6.6_base_3-22)" id="id-male-6.6_base_3-89">
</polygon>
<polygon points="346 140 358 152 372 129 400 48 369 86 364 130" fill="#d3a08c" id="id-male-6.6_base_3-90">
</polygon>
<polygon points="591 281 601 226 559 159 514 159 523 138 499 156 571 263" fill="url(#id-male-6.6_base_3-23)" id="id-male-6.6_base_3-91">
</polygon>
<polygon points="609 298 626 332 629 285 627 227 614 207 617 251" fill="#8581a0" id="id-male-6.6_base_3-92">
</polygon>
<polygon points="554 159 567 157 612 177 614 192 579 175 603 207 601 226" fill="#b67758" id="id-male-6.6_base_3-93">
</polygon>
<polygon points="641 823 648 826 697 896 713 873 682 781" fill="url(#id-male-6.6_base_3-24)" id="id-male-6.6_base_3-94">
</polygon>
<polygon points="625 840 700 762 688 738 679 784 648 776 626 822" fill="url(#id-male-6.6_base_3-25)" id="id-male-6.6_base_3-94">
</polygon>
<polygon points="648 862 648 845 661 825 661 870 654 878 657 922 652 929 637 929 632 914 632 893 632 877 644 888" fill="#94473b" id="id-male-6.6_base_3-96">
</polygon>
<polygon points="554 375 577 333 607 451 594 508 568 462" fill="#bb7966" id="id-male-6.6_base_3-97">
</polygon>
<polygon points="623 326 643 425 633 431 693 523 652 427 636 326 625 315" fill="#7b779a" id="id-male-6.6_base_3-98">
</polygon>
<polygon points="628 274 638 339 623 314" fill="#6f393c" id="id-male-6.6_base_3-99">
</polygon>
<polygon points="693 523 695 567 685 525 618 416 633 431" fill="#8d4e3b" id="id-male-6.6_base_3-100">
</polygon>
<polygon points="640 463 599 539 601 571 634 655 646 703 650 754 658 640 660 491" fill="#bd7b5a" id="id-male-6.6_base_3-101">
</polygon>
<polygon points="610 531 648 646 652 546 638 479" fill="#cb937c" id="id-male-6.6_base_3-101">
</polygon>
<polygon points="693 748 677 730 677 700 660 491 685 525 691 552 684 727" fill="url(#id-male-6.6_base_3-26)" id="id-male-6.6_base_3-103">
</polygon>
<polygon points="691 746 703 768 693 727 695 567 691 551 683 727" fill="#7e97bd" id="id-male-6.6_base_3-104">
</polygon>
<polygon points="260 559 310 683 355 716 263 713 238 685 195 582" fill="url(#id-male-6.6_base_3-27)" id="id-male-6.6_base_3-105">
</polygon>
<polygon points="637 931 636 919 639 914 653 914 653 922 651 929 648 931 644 933" fill="#9b5543" id="id-male-6.6_base_3-106">
</polygon>
<polygon points="637 861 637 882 641 890 653 886 649 861" fill="#a35b48" id="id-male-6.6_base_3-107">
</polygon>
<polygon points="691 871 693 912 688 936 669 956 671 965 696 924 696 909 705 877" fill="#ae664f" id="id-male-6.6_base_3-108">
</polygon>
<polygon points="703 768 684 788 693 837 712 873 702 908 701 933 707 925 718 873 704 834 697 788" fill="#824336" id="id-male-6.6_base_3-109">
</polygon>
<polygon points="667 939 643 946 644 934 657 928 667 922 676 903 672 899 670 874 660 870 660 854 671 867 680 873 680 902 677 920" fill="#77342e" id="id-male-6.6_base_3-110">
</polygon>
<polygon points="361 510 359 634 426 561 420 535" fill="url(#id-male-6.6_base_3-28)" opacity="0.626" id="id-male-6.6_base_3-111">
</polygon>
<polygon points="319 403 289 399 268 380 313 343 361 348 362 372" fill="url(#id-male-6.6_base_3-29)" id="id-male-6.6_base_3-112">
</polygon>
<polygon points="171 141 168 151 180 151 204 139 196 138" fill="url(#id-male-6.6_base_3-30)" id="id-male-6.6_base_3-113">
</polygon>
<polygon points="359 308 362 360 382 334" fill="#bb7863" opacity="0.625" id="id-male-6.6_base_3-114">
</polygon>
<polygon points="360 546 360 584 387 551 374 540" fill="url(#id-male-6.6_base_3-31)" opacity="0.626" id="id-male-6.6_base_3-115">
</polygon>
<polygon points="346 542 360 547 373 540 360 534" fill="#763735" id="id-male-6.6_base_3-116">
</polygon>
<polygon points="325 545 277 503 259 561 308 579" fill="url(#id-male-6.6_base_3-32)" opacity="0.758" id="id-male-6.6_base_3-117">
</polygon>
<polygon points="389 499 460 467 449 510 404 520" fill="url(#id-male-6.6_base_3-33)" id="id-male-6.6_base_3-118">
</polygon>
<polygon points="364 491 361 403 420 428" fill="url(#id-male-6.6_base_3-34)" opacity="0.758" id="id-male-6.6_base_3-119">
</polygon>
<polygon points="262 446 333 446 323 469 279 492" fill="url(#id-male-6.6_base_3-35)" opacity="0.758" id="id-male-6.6_base_3-120">
</polygon>
<polygon points="259 425 279 496 259 561 236 528 213 443 227 425 243 447" fill="url(#id-male-6.6_base_3-36)" id="id-male-6.6_base_3-121">
</polygon>
<polygon points="412 343 444 374 466 383 499 351 447 354 416 339" fill="url(#id-male-6.6_base_3-37)" id="id-male-6.6_base_3-122">
</polygon>
<polygon points="164 252 163 278 128 284" fill="#85483c" id="id-male-6.6_base_3-123">
</polygon>
<polygon points="58 478 88 441 88 416 69 430 66 456" fill="url(#id-male-6.6_base_3-38)" id="id-male-6.6_base_3-124">
</polygon>
<polygon points="76 684 69 634 61 517 89 474 111 569" fill="url(#id-male-6.6_base_3-39)" id="id-male-6.6_base_3-125">
</polygon>
<polygon points="53 489 47 539 69 635 76 684 53 760 40 781 16 766 28 727 23 604 28 544" fill="url(#id-male-6.6_base_3-40)" id="id-male-6.6_base_3-126">
</polygon>
<polygon points="136 452 127 497 153 460 177 340 170 300" fill="#965744" id="id-male-6.6_base_3-127">
</polygon>
<polygon points="181 359 159 460 143 497 142 514 123 532 109 514 108 490 127 497 153 460 177 340" fill="#8d4e42" id="id-male-6.6_base_3-127">
</polygon>
<polygon points="38 747 28 772 38 788 44 772" fill="#bb775c" id="id-male-6.6_base_3-129">
</polygon>
<polygon points="359 379 342 413 361 444 377 417" fill="url(#id-male-6.6_base_3-41)" id="id-male-6.6_base_3-130">
</polygon>
<polygon points="196 581 260 561 229 519" fill="url(#id-male-6.6_base_3-42)" id="id-male-6.6_base_3-131">
</polygon>
<polygon points="74 929 66 925 69 909 78 905 86 912 83 928" fill="url(#id-male-6.6_base_3-43)" id="id-male-6.6_base_3-132">
</polygon>
<polygon points="20 903 7 880 21 851 28 871" fill="#c78167" id="id-male-6.6_base_3-133">
</polygon>
<polygon points="218 1123 203 1040 191 913 171 1090 182 1169 230 1208 261 1237 270 1213 234 1175 212 1157 272 1191 281 1169" fill="url(#id-male-6.6_base_3-44)" opacity="0.808" id="id-male-6.6_base_3-134">
</polygon>
<polygon points="182 1207 181 1155 213 1106 236 1166 230 1210" fill="#a8614d" id="id-male-6.6_base_3-135">
</polygon>
<polygon points="187 902 211 1137 227 1161 275 1187 299 1137 272 1009 299 918 269 791 211 836" fill="url(#id-male-6.6_base_3-45)" id="id-male-6.6_base_3-136">
</polygon>
<polygon points="288 1079 311 1040 311 942 295 903 264 1019 275 1188 301 1137" fill="url(#id-male-6.6_base_3-46)" id="id-male-6.6_base_3-137">
</polygon>
<polygon points="584 908 604 1008 608 1106 614 998 599 887" fill="#848bb1" id="id-male-6.6_base_3-138">
</polygon>
<polygon points="430 886 488 1140 535 1115 561 925 566 886 536 816 500 786" fill="url(#id-male-6.6_base_3-47)" opacity="0.792" id="id-male-6.6_base_3-139">
</polygon>
<polygon points="581 921 588 1011 584 1112 576 1162 544 1046 566 886" fill="url(#id-male-6.6_base_3-48)" id="id-male-6.6_base_3-140">
</polygon>
<polygon points="561 1247 518 1200 472 1112 494 931 505 931 594 1188 579 1244" fill="url(#id-male-6.6_base_3-49)" id="id-male-6.6_base_3-141">
</polygon>
<polygon points="531 1221 539 1263 536 1269 516 1287 509 1287 500 1263 513 1199 488 1226 462 1170 472 1101 427 1010 398 877 469 771 518 739 536 818 500 787 433 890 477 1078 534 1212" fill="url(#id-male-6.6_base_3-50)" id="id-male-6.6_base_3-142">
</polygon>
<polygon points="321 1058 284 852 258 721 266 733 371 879 362 883 354 881 343 914 345 954" fill="#995346" id="id-male-6.6_base_3-143">
</polygon>
<polygon points="429 1068 424 875 536 705 454 704 380 865 384 906 391 972" fill="#9e5752" opacity="0.394" id="id-male-6.6_base_3-144">
</polygon>
<polygon points="175 1262 194 1287 206 1287 225 1226 213 1249 175 1221 174 1232" fill="#743428" id="id-male-6.6_base_3-145">
</polygon>
<polygon points="528 1227 554 1234 569 1169 549 1168" fill="#ac7064" id="id-male-6.6_base_3-146">
</polygon>
<polygon points="546 678 545 672 539 641 528 608 531 571 509 500 522 405 539 361 539 350 547 389 542 330 558 289 517 369 528 369 517 411 499 442 509 465 488 531 507 525 522 585 449 724" fill="url(#id-male-6.6_base_3-51)" id="id-male-6.6_base_3-54">
</polygon>
<polygon points="402 722 490 609 522 585 449 723" fill="#94493c" id="id-male-6.6_base_3-148">
</polygon>
<polygon points="174 664 139 826 137 907 139 937 238 690 352 886 354 881 362 883 371 879 383 906 471 773 548 712 596 844 545 673 539 641 478 697 449 723 278 705 232 657 188 566 191 610" fill="url(#id-male-6.6_base_3-52)" id="id-male-6.6_base_3-54">
</polygon>
<polygon points="189 616 211 620 190 586 190 609" fill="#813f3a" id="id-male-6.6_base_3-150">
</polygon>
<polygon points="139 836 225 709 167 697 139 826" fill="#753e2a" id="id-male-6.6_base_3-151">
</polygon>
<polygon points="518 734 596 843 547 678" fill="#622b30" id="id-male-6.6_base_3-152">
</polygon>
<polygon points="415 778 447 726 314 744 329 762" fill="#a6564c" opacity="0.52" id="id-male-6.6_base_3-54">
</polygon>
<polygon points="411 685 463 666 456 573" fill="#7a3b33" id="id-male-6.6_base_3-154">
</polygon>
</g>
<defs>
<linearGradient x1="53%" y1="5%" x2="47%" y2="91%" id="id-male-6.8_face_3-0">
<stop stop-color="#932126" offset="0%">
</stop>
<stop stop-color="#873f39" offset="82%">
</stop>
<stop stop-color="#9e5e4f" offset="100%">
</stop>
</linearGradient>
<linearGradient x1="62%" y1="61%" x2="50%" y2="36%" id="id-male-6.8_face_3-1">
<stop stop-color="#ba6e61" offset="0%">
</stop>
<stop stop-color="#4d1217" offset="100%">
</stop>
</linearGradient>
<linearGradient x1="50%" y1="13%" x2="57%" y2="81%" id="id-male-6.8_face_3-2">
<stop stop-color="#885154" offset="0%">
</stop>
<stop stop-color="#9e5e4f" offset="52%">
</stop>
<stop stop-color="#d79898" offset="100%">
</stop>
</linearGradient>
<linearGradient x1="50%" y1="0%" x2="54%" y2="88%" id="id-male-6.8_face_3-3">
<stop stop-color="#8b2f27" offset="0%">
</stop>
<stop stop-color="#803a2b" offset="100%">
</stop>
</linearGradient>
<linearGradient x1="36%" y1="75%" x2="36%" y2="18%" id="id-male-6.8_face_3-4">
<stop stop-color="#6f3938" offset="0%">
</stop>
<stop stop-color="#590f13" offset="100%">
</stop>
</linearGradient>
<linearGradient x1="33%" y1="21%" x2="62%" y2="79%" id="id-male-6.8_face_3-5">
<stop stop-color="#a56757" offset="0%">
</stop>
<stop stop-color="#b57363" offset="10%">
</stop>
<stop stop-color="#b9735d" offset="53%">
</stop>
<stop stop-color="#d0907a" offset="70%">
</stop>
<stop stop-color="#aa6e5a" offset="88%">
</stop>
<stop stop-color="#ad7464" offset="100%">
</stop>
</linearGradient>
<linearGradient x1="28%" y1="56%" x2="79%" y2="54%" id="id-male-6.8_face_3-6">
<stop stop-color="#c89a8a" offset="0%">
</stop>
<stop stop-color="#e0ad98" offset="16%">
</stop>
<stop stop-color="#c08c7d" offset="100%">
</stop>
</linearGradient>
<linearGradient x1="68%" y1="59%" x2="18%" y2="46%" id="id-male-6.8_face_3-7">
<stop stop-color="#b78372" offset="0%">
</stop>
<stop stop-color="#b4786a" offset="100%">
</stop>
</linearGradient>
<linearGradient x1="26%" y1="17%" x2="91%" y2="50%" id="id-male-6.8_face_3-8">
<stop stop-color="#945344" offset="0%">
</stop>
<stop stop-color="#b3715e" offset="16%">
</stop>
<stop stop-color="#cb8c74" offset="51%">
</stop>
<stop stop-color="#935a4f" offset="100%">
</stop>
</linearGradient>
<linearGradient x1="45%" y1="16%" x2="52%" y2="84%" id="id-male-6.8_face_3-9">
<stop stop-color="#9f6554" offset="0%">
</stop>
<stop stop-color="#925343" offset="100%">
</stop>
</linearGradient>
<linearGradient x1="91%" y1="32%" x2="50%" y2="77%" id="id-male-6.8_face_3-10">
<stop stop-color="#9d6655" offset="0%">
</stop>
<stop stop-color="#a96c5d" offset="100%">
</stop>
</linearGradient>
<linearGradient x1="72%" y1="40%" x2="61%" y2="55%" id="id-male-6.8_face_3-11">
<stop stop-color="#734233" offset="0%">
</stop>
<stop stop-color="#ae705b" offset="100%">
</stop>
</linearGradient>
<linearGradient x1="50%" y1="33%" x2="50%" y2="100%" id="id-male-6.8_face_3-12">
<stop stop-color="#1e0d0c" offset="0%">
</stop>
<stop stop-color="#7f4d40" offset="100%">
</stop>
</linearGradient>
<linearGradient x1="34%" y1="50%" x2="87%" y2="60%" id="id-male-6.8_face_3-13">
<stop stop-color="#d09a88" offset="0%">
</stop>
<stop stop-color="#c38774" offset="100%">
</stop>
</linearGradient>
<linearGradient x1="14%" y1="54%" x2="60%" y2="65%" id="id-male-6.8_face_3-14">
<stop stop-color="#945b4b" offset="0%">
</stop>
<stop stop-color="#894336" offset="50%">
</stop>
<stop stop-color="#824937" offset="100%">
</stop>
</linearGradient>
<linearGradient x1="50%" y1="0%" x2="50%" y2="100%" id="id-male-6.8_face_3-15">
<stop stop-color="#ce9386" offset="0%">
</stop>
<stop stop-color="#c99387" offset="100%">
</stop>
</linearGradient>
<linearGradient x1="50%" y1="9%" x2="44%" y2="54%" id="id-male-6.8_face_3-16">
<stop stop-color="#c58372" offset="0%">
</stop>
<stop stop-color="#d2977f" offset="100%">
</stop>
</linearGradient>
<linearGradient x1="61%" y1="87%" x2="61%" y2="8%" id="id-male-6.8_face_3-17">
<stop stop-color="#deac9d" offset="0%" stop-opacity="0">
</stop>
<stop stop-color="#d69c96" offset="100%">
</stop>
</linearGradient>
<radialGradient cx="50%" cy="39%" r="61%" id="id-male-6.8_face_3-18" fx="50%" fy="39%" gradientTransform="translate(0.5,0.392) scale(0.254,1) rotate(90) scale(1,3) translate(-0.5,-0.392)">
<stop stop-color="#b36061" offset="0%">
</stop>
<stop stop-color="#6c2c2e" offset="100%">
</stop>
</radialGradient>
<linearGradient x1="67%" y1="12%" x2="50%" y2="100%" id="id-male-6.8_face_3-19">
<stop stop-color="#8d5644" offset="0%">
</stop>
<stop stop-color="#e0ad98" offset="100%">
</stop>
</linearGradient>
<linearGradient x1="45%" y1="50%" x2="56%" y2="52%" id="id-male-6.8_face_3-20">
<stop stop-color="#bf7357" offset="0%">
</stop>
<stop stop-color="#945741" offset="100%">
</stop>
</linearGradient>
<linearGradient x1="18%" y1="22%" x2="62%" y2="71%" id="id-male-6.8_face_3-21">
<stop stop-color="#a5624f" offset="0%">
</stop>
<stop stop-color="#c59181" offset="100%">
</stop>
</linearGradient>
<linearGradient x1="50%" y1="35%" x2="87%" y2="93%" id="id-male-6.8_face_3-22">
<stop stop-color="#eec5b7" offset="0%">
</stop>
<stop stop-color="#d1a398" offset="100%">
</stop>
</linearGradient>
<linearGradient x1="50%" y1="115%" x2="50%" y2="50%" id="id-male-6.8_face_3-23">
<stop stop-color="#925f51" offset="0%">
</stop>
<stop stop-color="#593128" offset="100%">
</stop>
</linearGradient>
<linearGradient x1="73%" y1="44%" x2="22%" y2="46%" id="id-male-6.8_face_3-24">
<stop stop-color="#1f1619" offset="0%">
</stop>
<stop stop-color="#492a2a" offset="100%">
</stop>
</linearGradient>
</defs>
<g transform="translate(548,259)" id="id-male-6.8_face_3-25">
<g id="id-male-6.8_face_3-26">
<g transform="translate(0,121)" id="id-male-6.8_face_3-27">
<polygon points="199 13 214 3 222 9 221 25 214 38 214 43 210 54 208 65 197 70 190 64" fill="url(#id-male-6.8_face_3-0)" id="id-male-6.8_face_3-28">
</polygon>
<polygon points="197 24 209 14 216 9 219 10 220 22 214 37 195 43" fill="url(#id-male-6.8_face_3-1)" id="id-male-6.8_face_3-29">
</polygon>
<polygon points="203 38 208 34 199 25 203 22 209 23 207 18 212 16 214 38 214 43 213 48 207 51 201 46" fill="url(#id-male-6.8_face_3-2)" id="id-male-6.8_face_3-28">
</polygon>
<polygon points="212 5 214 3 222 9 222 10 219 10 216 9" fill="#d497ad" id="id-male-6.8_face_3-28">
</polygon>
<polygon points="208 65 197 70 190 64 194 42 199 50 193 62 199 67" fill="#50151b" id="id-male-6.8_face_3-28">
</polygon>
<polygon points="203 62 202 54 211 50" fill="#723c31" id="id-male-6.8_face_3-33">
</polygon>
<polygon points="196 50 202 51 203 42 196 46" fill="#a06051" id="id-male-6.8_face_3-34">
</polygon>
<polygon points="194 45 199 47 202 45 202 32 197 31" fill="#561b1f" id="id-male-6.8_face_3-35">
</polygon>
<path d="M 30 70 C 24 70 20 69 19 68 C 17 66 12 52 8 46 C 4 39 2 38 1 33 C 0 30 0 21 1 6 L 8 0 L 23 9 L 30 70 Z" fill="url(#id-male-6.8_face_3-3)" id="id-male-6.8_face_3-36">
</path>
<polygon points="8 6 2 6 7 3 10 2 23 9 19 14" fill="#c9899b" id="id-male-6.8_face_3-36">
</polygon>
<path d="M 26 68 C 23 69 20 69 19 68 C 17 66 12 52 8 46 C 7 44 6 43 6 42 C 9 45 10 47 12 48 C 13 50 14 52 16 56 L 26 68 Z" fill="#7e2e28" id="id-male-6.8_face_3-36">
</path>
<polygon points="26 68 29 65 27 53 20 61" fill="#954b3f" id="id-male-6.8_face_3-36">
</polygon>
<path d="M 23 19 C 12 12 6 9 5 9 C 3 10 2 18 2 33 L 17 53 L 26 52 L 23 19 Z" fill="url(#id-male-6.8_face_3-4)" id="id-male-6.8_face_3-40">
</path>
<polygon points="12 17 19 19 18 26 15 28 22 38 21 49 12 44" fill="#9c2429" id="id-male-6.8_face_3-41">
</polygon>
<path d="M 27 53 C 16 50 10 47 8 42 C 6 38 8 30 12 17 L 15 23 C 15 36 14 42 15 43 C 15 45 18 46 25 48 L 27 53 Z" fill="#9e4f4f" id="id-male-6.8_face_3-42">
</path>
<polygon points="11 31 19 26 19 18 14 20 12 18" fill="#c07080" id="id-male-6.8_face_3-43">
</polygon>
<polygon points="20 46 17 42 22 37 25 48" fill="#6a3032" id="id-male-6.8_face_3-44">
</polygon>
</g>
<g transform="translate(18,0)" id="id-male-6.8_face_3-45">
<path d="M 20 231 C 18 227 11 201 5 153 C 3 140 2 128 1 117 C -1 91 4 63 8 49 C 9 46 16 35 16 34 C 30 20 56 0 94 0 C 157 0 178 45 181 51 C 183 57 183 111 181 144 C 178 177 162 232 160 235 C 158 239 124 261 119 264 C 113 266 74 267 69 264 C 64 261 22 235 20 231 Z" fill="url(#id-male-6.8_face_3-5)" id="id-male-6.8_face_3-46">
</path>
<polygon points="7 140 17 117 33 106 149 120 167 144 154 168 73 161 39 177 29 171" fill="url(#id-male-6.8_face_3-6)" id="id-male-6.8_face_3-47">
</polygon>
<polygon points="7 140 17 117 33 106 31 136 77 131 86 136 75 144 52 152 49 152 30 154 23 163" fill="url(#id-male-6.8_face_3-7)" id="id-male-6.8_face_3-47">
</polygon>
<path d="M 5 153 C 3 140 2 128 1 117 C -1 91 4 63 8 49 C 9 46 16 35 16 34 C 30 20 56 0 94 0 C 157 0 178 45 181 51 C 183 57 183 111 181 144 C 181 149 180 153 179 158 L 159 161 L 145 148 L 115 146 L 101 161 L 86 110 L 108 103 C 144 108 161 111 161 110 C 158 100 155 92 154 86 C 152 81 151 76 149 69 L 159 43 L 95 32 L 26 43 L 17 71 L 19 112 L 5 153 Z" fill="url(#id-male-6.8_face_3-8)" id="id-male-6.8_face_3-46">
</path>
<polygon points="39 209 44 175 39 177 29 171" fill="#b57154" id="id-male-6.8_face_3-47">
</polygon>
<path d="M 20 231 C 18 227 11 201 5 153 C 4 146 3 140 3 133 L 30 171 L 54 255 C 40 246 21 234 20 231 Z" fill="url(#id-male-6.8_face_3-9)" id="id-male-6.8_face_3-46">
</path>
<polygon points="120 214 141 194 148 212 132 249 115 262 65 259 56 251 73 255 98 256" fill="url(#id-male-6.8_face_3-10)" id="id-male-6.8_face_3-52">
</polygon>
<path d="M 20 231 C 19 230 19 228 18 225 L 69 256 L 115 258 L 131 246 L 148 209 L 145 247 C 134 254 122 262 119 264 C 113 266 74 267 69 264 C 64 261 22 235 20 231 Z" fill="#764037" id="id-male-6.8_face_3-46">
</path>
<polygon points="80 183 80 201 103 202 128 183 128 174 108 161" fill="#a66755" id="id-male-6.8_face_3-54">
</polygon>
<polygon points="99 197 98 188 119 178 132 185 139 201 121 214" fill="#be8572" id="id-male-6.8_face_3-55">
</polygon>
<polygon points="108 201 117 190 117 182 129 189 115 204" fill="#cc9b8c" id="id-male-6.8_face_3-56">
</polygon>
<polygon points="60 213 54 208 54 188 67 176 88 184 86 187 86 196 93 198 102 194 113 205" fill="#d69b88" id="id-male-6.8_face_3-57">
</polygon>
<polygon points="49 222 65 211 125 212 126 233 120 246 75 244" fill="url(#id-male-6.8_face_3-11)" id="id-male-6.8_face_3-58">
</polygon>
<polygon points="125 214 110 238 84 237 70 222" fill="url(#id-male-6.8_face_3-12)" id="id-male-6.8_face_3-59">
</polygon>
<polygon points="69 252 62 246 95 233 113 238 123 243 121 251 98 256" fill="#ba806f" id="id-male-6.8_face_3-60">
</polygon>
<polygon points="102 249 97 237 108 240 117 246" fill="#c69384" id="id-male-6.8_face_3-61">
</polygon>
<polygon points="151 171 140 187 108 161 141 174" fill="url(#id-male-6.8_face_3-13)" id="id-male-6.8_face_3-62">
</polygon>
<polygon points="117 109 126 125 157 130 163 120 151 101" fill="#7d4c3d" id="id-male-6.8_face_3-63">
</polygon>
<polygon points="160 158 150 172 141 175 119 166 143 148" fill="#cb9d8d" id="id-male-6.8_face_3-62">
</polygon>
<polygon points="160 128 146 114 155 108 164 117 167 125 163 122" fill="#8c594e" id="id-male-6.8_face_3-65">
</polygon>
<polygon points="86 130 91 122 88 109 70 105" fill="#af694d" id="id-male-6.8_face_3-66">
</polygon>
<polygon points="23 133 41 147 57 147 80 134 85 140 87 129 74 106 31 109 31 122" fill="url(#id-male-6.8_face_3-14)" id="id-male-6.8_face_3-67">
</polygon>
<polygon points="43 109 60 118 72 128 82 133 69 109 52 105" fill="#593225" id="id-male-6.8_face_3-68">
</polygon>
<polygon points="28 138 48 154 57 146 42 147" fill="#ce9581" id="id-male-6.8_face_3-69">
</polygon>
<polygon points="94 31 159 40 152 69 154 90 145 103 90 86" fill="#deac9d" id="id-male-6.8_face_3-70">
</polygon>
<path d="M 180 154 C 175 187 161 232 160 235 C 159 237 151 243 142 249 L 154 166 L 172 136 L 180 154 Z" fill="#824a3f" id="id-male-6.8_face_3-46">
</path>
<polygon points="121 35 159 40 152 69 154 90 145 103 138 101" fill="url(#id-male-6.8_face_3-15)" id="id-male-6.8_face_3-70">
</polygon>
<polygon points="38 76 33 42 94 31 90 86 42 86" fill="url(#id-male-6.8_face_3-16)" id="id-male-6.8_face_3-73">
</polygon>
<polygon points="45 86 38 76 22 90 22 112" fill="#c98f82" id="id-male-6.8_face_3-74">
</polygon>
<path d="M 32 20 C 47 10 68 0 94 0 C 115 0 131 5 143 11 L 161 32 L 143 38 L 139 62 L 93 34 L 32 20 Z" fill="url(#id-male-6.8_face_3-17)" opacity="0.484" id="id-male-6.8_face_3-46">
</path>
<polygon points="174 133 176 78 165 112" fill="#b7868e" id="id-male-6.8_face_3-76">
</polygon>
<polygon points="167 55 176 78 169 100" fill="#854f45" id="id-male-6.8_face_3-76">
</polygon>
<polygon points="28 105 44 86 91 85 140 96 88 109 55 101" fill="#eabcab" id="id-male-6.8_face_3-78">
</polygon>
<polygon points="104 105 128 105 160 106 154 87 144 99 126 102 114 91" fill="#eecac1" id="id-male-6.8_face_3-79">
</polygon>
</g>
</g>
<g transform="translate(75,197)" id="id-male-6.8_face_3-80">
<polygon points="0 17 4 13 27 3 38 6 44 2 61 6 71 13 69 17 34 28 5 20" fill="#290b08" id="id-male-6.8_face_3-81">
</polygon>
<polygon points="12 16 4 14 13 7 27 1 38 4 44 0 60 6 68 11 59 15 49 14 38 15 24 15" fill="#621c21" id="id-male-6.8_face_3-81">
</polygon>
<polygon points="36 6 37 13 25 13 23 4" fill="#7c3a4f" id="id-male-6.8_face_3-81">
</polygon>
<path d="M 4 19 C 11 25 16 29 22 30 C 30 32 52 31 53 30 C 54 29 60 25 70 17 L 71 14 C 71 15 70 15 67 15 C 64 15 64 14 58 15 C 52 15 48 17 37 17 C 26 17 15 15 12 16 C 10 16 7 17 4 19 Z" fill="url(#id-male-6.8_face_3-18)" id="id-male-6.8_face_3-84">
</path>
<polygon points="16 19 16 23 33 24 33 25 43 25 51 22 34 23" fill="#c07aa2" opacity="0.532" id="id-male-6.8_face_3-85">
</polygon>
</g>
<polygon points="95 135 84 164 97 164 104 130 99 130" fill="url(#id-male-6.8_face_3-19)" id="id-male-6.8_face_3-86">
</polygon>
<polygon points="84 175 83 177 90 186 105 186 109 187 114 187 119 181 124 182 126 185 130 184 136 177 136 171 134 169 105 165" fill="url(#id-male-6.8_face_3-20)" id="id-male-6.8_face_3-87">
</polygon>
<polygon points="119 163 111 125 119 122 144 143" fill="url(#id-male-6.8_face_3-21)" id="id-male-6.8_face_3-88">
</polygon>
<path d="M 84 175 L 92 160 L 97 165 L 104 130 L 109 122 L 113 130 L 119 163 L 123 156 L 134 169 L 132 173 L 119 169 L 110 172 L 95 172 C 93 173 91 174 89 175 C 88 175 86 175 84 175 Z" fill="url(#id-male-6.8_face_3-22)" id="id-male-6.8_face_3-89">
</path>
<polygon points="179 128 167 143 148 145 115 128 126 112 137 110 148 120 161 118 172 126" fill="#6d4037" id="id-male-6.8_face_3-90">
</polygon>
<polygon points="102 140 104 130 108 136 113 130 116 148 104 156" fill="#e4ad96" id="id-male-6.8_face_3-89">
</polygon>
<polygon points="95 171 100 164 108 171" fill="#f0ecfd" id="id-male-6.8_face_3-92">
</polygon>
<path d="M 110 181 C 103 181 97 177 93 177 C 90 177 88 178 85 180 L 90 186 L 105 186 L 109 187 L 114 187 L 119 181 L 124 182 L 126 185 L 130 184 L 134 179 C 133 176 132 175 131 175 C 130 175 117 181 110 181 Z" fill="url(#id-male-6.8_face_3-23)" id="id-male-6.8_face_3-87">
</path>
<polygon points="92 180 94 186 105 186 97 179" fill="#895445" id="id-male-6.8_face_3-87">
</polygon>
<polygon points="117 180 131 175 132 177 124 182 119 182" fill="#290e08" id="id-male-6.8_face_3-95">
</polygon>
<polygon points="87 178 90 177 99 178 101 179 101 182 94 180" fill="#290e08" id="id-male-6.8_face_3-96">
</polygon>
<g transform="translate(34,94)" id="id-male-6.8_face_3-97">
<path d="M 0 26 C 4 21 12 17 24 15 C 35 14 45 15 54 18 L 59 16 L 49 2 L 54 14 L 45 2 L 21 3 L 14 9 L 17 3 L 2 18 L 0 26 Z" fill="url(#id-male-6.8_face_3-24)" id="id-male-6.8_face_3-98">
</path>
<polygon points="122 15 138 16 148 23 147 13 136 5 120 9" fill="#492a2a" id="id-male-6.8_face_3-99">
</polygon>
<polygon points="53 4 58 9 57 14" fill="#332325" id="id-male-6.8_face_3-100">
</polygon>
<polygon points="90 12 92 20 132 5 125 1 100 4 93 17 96 5" fill="#352325" id="id-male-6.8_face_3-101">
</polygon>
<polygon points="94 19 123 16 122 8" fill="#1f1619" id="id-male-6.8_face_3-102">
</polygon>
</g>
<path d="M 165 122 L 165 128 L 170 132 L 158 139 L 126 136 L 125 133 L 133 127 C 140 121 147 118 152 118 C 157 118 162 120 165 122 Z" fill="#9d7061" id="id-male-6.8_face_3-103">
</path>
<path d="M 136 129 L 133 127 C 139 123 143 120 146 120 L 150 123 L 136 129 Z" fill="#4f302b" id="id-male-6.8_face_3-103">
</path>
<path d="M 130 134 L 130 132 C 140 124 148 120 155 121 C 159 122 162 124 166 126 C 168 127 170 128 174 130 C 172 133 171 133 169 132 C 168 133 167 133 167 134 C 165 135 162 136 158 136 L 136 135 L 130 134 Z" fill="#1c1316" id="id-male-6.8_face_3-105">
</path>
<path d="M 135 133 L 136 135 L 158 136 L 165 132 C 158 127 153 125 149 125 C 144 125 139 128 135 133 Z" fill="#b5a7b5" id="id-male-6.8_face_3-106">
</path>
<path d="M 135 133 L 136 135 L 140 135 C 142 131 144 129 148 129 C 151 128 155 130 161 134 L 165 132 C 158 127 153 125 149 125 C 144 125 139 128 135 133 Z" fill="#a28f91" id="id-male-6.8_face_3-106">
</path>
<path d="M 149 136 C 154 136 157 134 158 128 C 154 126 151 124 149 124 C 146 124 144 126 141 128 C 141 133 143 135 149 136 Z" fill="#1b1216" id="id-male-6.8_face_3-106">
</path>
<polygon points="144 128 145 130 150 129 150 127" fill="#8f8793" id="id-male-6.8_face_3-109">
</polygon>
<polygon points="53 127 58 118 69 117 72 123 80 127 84 124 96 132 89 138 86 136 63 138 57 134" fill="#a97665" id="id-male-6.8_face_3-110">
</polygon>
<path d="M 46 126 C 48 121 54 118 63 116 C 72 114 83 119 96 132 C 84 123 75 118 68 117 C 62 117 55 119 47 126 L 46 126 Z" fill="#4e2b23" id="id-male-6.8_face_3-111">
</path>
<path d="M 47 134 L 45 132 C 55 124 63 120 69 121 C 76 122 82 126 90 132 L 86 136 L 59 135 L 51 133 L 47 134 Z" fill="#1e1410" id="id-male-6.8_face_3-112">
</path>
<path d="M 53 132 L 61 136 L 81 136 L 84 133 C 78 128 73 125 69 125 C 64 125 59 127 53 132 Z" fill="#b4a3af" id="id-male-6.8_face_3-113">
</path>
<path d="M 53 132 L 58 134 C 60 131 63 130 68 130 C 73 130 78 131 83 134 L 84 133 C 78 128 73 125 69 125 C 64 125 59 127 53 132 Z" fill="#a69398" id="id-male-6.8_face_3-113">
</path>
<path d="M 69 136 C 73 136 76 133 77 128 C 74 126 71 124 69 124 C 66 124 63 126 60 128 C 61 133 64 136 69 136 Z" fill="#1e1011" id="id-male-6.8_face_3-113">
</path>
<polygon points="63 128 64 130 69 128 67 127" fill="#999aa8" id="id-male-6.8_face_3-116">
</polygon>
</g>
<defs>
<linearGradient x1="73%" y1="45%" x2="26%" y2="50%" id="id-male-12_neon_pants-0">
<stop stop-color="#385ea0" offset="0%">
</stop>
<stop stop-color="#00b7b1" offset="14%">
</stop>
<stop stop-color="#01b1d0" offset="24%">
</stop>
<stop stop-color="#3a54a0" offset="39%">
</stop>
<stop stop-color="#41489a" offset="47%">
</stop>
<stop stop-color="#0aaae1" offset="59%">
</stop>
<stop stop-color="#04abe2" offset="75%">
</stop>
<stop stop-color="#a35ed5" offset="92%">
</stop>
<stop stop-color="#d247d2" offset="100%">
</stop>
</linearGradient>
<linearGradient x1="63%" y1="38%" x2="37%" y2="14%" id="id-male-12_neon_pants-1">
<stop stop-color="#17a3dd" offset="0%" stop-opacity="0">
</stop>
<stop stop-color="#df42d0" offset="100%" stop-opacity="0.846">
</stop>
</linearGradient>
<linearGradient x1="53%" y1="30%" x2="48%" y2="35%" id="id-male-12_neon_pants-2">
<stop stop-color="#ffffff" offset="0%" stop-opacity="0.105">
</stop>
<stop stop-color="#ffffff" offset="47%" stop-opacity="0.216">
</stop>
<stop stop-color="#ffffff" offset="100%" stop-opacity="0.501">
</stop>
</linearGradient>
<linearGradient x1="58%" y1="9%" x2="35%" y2="95%" id="id-male-12_neon_pants-3">
<stop stop-color="#0cb0ec" offset="0%" stop-opacity="0.59">
</stop>
<stop stop-color="#0bbaf4" offset="100%">
</stop>
</linearGradient>
<linearGradient x1="67%" y1="52%" x2="72%" y2="51%" id="id-male-12_neon_pants-4">
<stop stop-color="#06346a" offset="0%">
</stop>
<stop stop-color="#000000" offset="100%">
</stop>
</linearGradient>
<linearGradient x1="48%" y1="57%" x2="48%" y2="57%" id="id-male-12_neon_pants-5">
<stop stop-color="#06346a" offset="0%">
</stop>
<stop stop-color="#000000" offset="100%">
</stop>
</linearGradient>
<linearGradient x1="100%" y1="50%" x2="17%" y2="37%" id="id-male-12_neon_pants-6">
<stop stop-color="#6789e6" offset="0%">
</stop>
<stop stop-color="#c878f1" offset="100%">
</stop>
</linearGradient>
<linearGradient x1="50%" y1="0%" x2="50%" y2="83%" id="id-male-12_neon_pants-7">
<stop stop-color="#8056c6" offset="0%">
</stop>
<stop stop-color="#3d79cb" offset="44%">
</stop>
<stop stop-color="#bd52d1" offset="100%">
</stop>
</linearGradient>
<linearGradient x1="50%" y1="0%" x2="50%" y2="100%" id="id-male-12_neon_pants-8">
<stop stop-color="#2ac8f8" offset="0%">
</stop>
<stop stop-color="#2ce0eb" offset="100%">
</stop>
</linearGradient>
<linearGradient x1="69%" y1="8%" x2="30%" y2="94%" id="id-male-12_neon_pants-9">
<stop stop-color="#28d7dd" offset="0%">
</stop>
<stop stop-color="#00b6c3" offset="100%">
</stop>
</linearGradient>
<linearGradient x1="50%" y1="0%" x2="50%" y2="100%" id="id-male-12_neon_pants-10">
<stop stop-color="#0fded7" offset="0%">
</stop>
<stop stop-color="#02c7c5" offset="100%">
</stop>
</linearGradient>
<linearGradient x1="50%" y1="0%" x2="50%" y2="100%" id="id-male-12_neon_pants-11">
<stop stop-color="#10a7de" offset="0%" stop-opacity="0">
</stop>
<stop stop-color="#3c8bc6" offset="100%">
</stop>
</linearGradient>
</defs>
<g transform="translate(432,1078)" id="id-male-12_neon_pants-12">
<path d="M 40 682 C 39 675 35 664 31 653 C 41 628 40 623 31 588 C 36 579 40 578 40 566 C 37 547 23 515 14 489 C 3 403 4 316 3 233 L 0 211 L 40 73 C 44 47 45 34 45 34 L 49 33 C 53 11 55 0 55 0 C 171 24 284 24 403 1 L 412 38 L 416 37 L 424 89 C 488 246 492 374 484 502 C 472 533 467 549 467 549 C 474 574 478 586 478 586 C 472 602 470 619 475 637 C 473 649 472 665 471 682 C 385 682 342 682 342 682 C 342 648 333 622 317 600 C 324 516 284 449 260 372 C 248 313 242 283 242 283 C 237 286 231 289 226 289 C 219 311 219 333 222 354 C 223 362 220 370 216 378 C 200 420 190 474 180 529 C 179 551 182 574 187 598 C 171 625 165 630 161 682 L 40 682 Z" fill="url(#id-male-12_neon_pants-0)" id="id-male-12_neon_pants-13">
</path>
<path d="M 40 682 C 39 675 35 664 31 653 C 41 628 40 623 31 588 C 36 579 40 578 40 566 C 37 547 23 515 14 489 C 3 403 4 316 3 233 L 0 211 L 40 73 C 44 47 45 34 45 34 L 49 33 C 53 11 55 0 55 0 C 171 24 284 24 403 1 L 412 38 L 416 37 L 424 89 C 488 246 492 374 484 502 C 472 533 467 549 467 549 C 474 574 478 586 478 586 C 472 602 470 619 475 637 C 473 649 472 665 471 682 C 385 682 342 682 342 682 C 342 648 333 622 317 600 C 324 516 284 449 260 372 C 248 313 242 283 242 283 C 237 286 231 289 226 289 C 219 311 219 333 222 354 C 223 362 220 370 216 378 C 200 420 190 474 180 529 C 179 551 182 574 187 598 C 171 625 165 630 161 682 L 40 682 Z" fill="url(#id-male-12_neon_pants-1)" id="id-male-12_neon_pants-14">
</path>
<path d="M 122 682 C 132 635 137 611 137 611 C 117 597 107 590 107 590 L 102 548 C 119 573 140 597 182 606 C 168 626 162 652 161 682 C 135 682 122 682 122 682 Z" fill="#000000" fill-opacity="0.089" id="id-male-12_neon_pants-15">
</path>
<path d="M 168 578 C 128 555 108 544 108 544 L 119 505 C 152 553 168 578 168 578 Z" fill="#1fc4e8" id="id-male-12_neon_pants-16">
</path>
<path d="M 184 603 C 152 543 137 514 137 514 L 222 360 C 222 367 219 372 216 378 C 199 422 190 476 180 529 C 180 554 182 577 187 598 C 185 601 184 603 184 603 Z" fill="#000000" fill-opacity="0.105" id="id-male-12_neon_pants-17">
</path>
<path d="M 34 646 C 50 632 58 624 58 624 C 77 590 86 573 86 573 L 41 613 L 38 621 C 39 626 38 635 34 646 Z" fill="#ffffff" fill-opacity="0.188" id="id-male-12_neon_pants-18">
</path>
<path d="M 33 594 C 41 583 49 571 56 558 C 34 460 15 355 3 241 C 2 330 6 413 14 489 C 23 517 32 531 40 566 C 40 576 34 581 31 588 C 32 592 33 594 33 594 Z" fill="#000000" fill-opacity="0.086" id="id-male-12_neon_pants-19">
</path>
<path d="M 36 588 C 69 559 86 545 86 545 L 83 503 L 56 558 C 43 578 36 588 36 588 Z" fill="#ffffff" fill-opacity="0.235" id="id-male-12_neon_pants-20">
</path>
<path d="M 101 540 C 99 556 98 564 98 564 L 100 572 C 102 563 102 553 101 540 Z" fill="#51a5f1" id="id-male-12_neon_pants-21">
</path>
<path d="M 101 537 C 107 339 64 282 64 136 C 77 141 108 157 108 157 C 120 200 138 242 161 282 C 145 330 128 375 110 454 C 108 474 105 524 101 537 Z" fill="url(#id-male-12_neon_pants-2)" id="id-male-12_neon_pants-22">
</path>
<path d="M 146 464 C 155 418 166 378 180 345 L 214 370 C 169 433 146 464 146 464 Z" fill="url(#id-male-12_neon_pants-3)" id="id-male-12_neon_pants-23">
</path>
<path d="M 40 682 C 39 677 37 668 32 655 C 47 639 54 632 54 632 L 76 631 L 85 682 C 55 682 40 682 40 682 Z" fill="#000000" fill-opacity="0.148" id="id-male-12_neon_pants-24">
</path>
<path d="M 21 139 C 42 171 52 187 52 187 C 50 137 48 111 48 111 L 53 35 L 49 33 L 45 34 L 40 73 C 27 117 21 139 21 139 Z" fill="#000000" fill-opacity="0.136" id="id-male-12_neon_pants-25">
</path>
<path d="M 0 211 L 38 169 L 21 139 C 7 187 0 211 0 211 Z" fill="#7f148b" id="id-male-12_neon_pants-26">
</path>
<path d="M 20 506 C 43 506 54 505 54 505 C 54 492 53 485 53 485 L 14 484 L 14 489 C 18 500 20 506 20 506 Z" fill="url(#id-male-12_neon_pants-4)" id="id-male-12_neon_pants-27">
</path>
<path d="M 13 478 C 40 478 53 478 53 478 C 50 351 50 272 54 241 C 62 227 66 220 66 220 C 35 246 20 259 20 259 L 38 233 L 3 233 C 3 347 6 429 13 478 Z" fill="url(#id-male-12_neon_pants-5)" id="id-male-12_neon_pants-28">
</path>
<path d="M 27 118 C 37 129 42 134 42 134 C 66 108 77 95 77 95 C 56 127 34 159 7 188 C 19 146 26 122 27 118 Z" fill="#7f148b" id="id-male-12_neon_pants-29">
</path>
<path d="M 80 53 C 73 61 70 66 70 66 L 49 49 C 70 51 80 53 80 53 Z" fill="#e366ec" id="id-male-12_neon_pants-30">
</path>
<path d="M 82 40 C 84 41 85 41 85 41 C 83 51 82 55 82 55 C 77 63 74 67 74 67 C 78 76 80 81 80 81 C 77 92 75 98 75 98 C 72 101 71 102 71 102 C 75 89 77 82 77 82 L 71 64 L 80 53 C 81 44 82 40 82 40 Z" fill="#b820ae" id="id-male-12_neon_pants-31">
</path>
<path d="M 49 33 C 52 34 53 35 53 35 C 66 37 73 38 73 38 L 77 4 L 55 0 L 49 33 Z" fill="#000000" fill-opacity="0.176" id="id-male-12_neon_pants-32">
</path>
<path d="M 94 7 C 93 31 93 42 93 42 C 172 54 212 60 212 60 L 211 18 C 168 17 129 13 94 7 Z" fill="#000000" fill-opacity="0.17" id="id-male-12_neon_pants-33">
</path>
<path d="M 93 10 C 92 31 92 41 92 41 C 100 42 105 43 105 43 C 97 36 95 26 98 14 C 95 11 93 10 93 10 Z" fill="#7f148b" id="id-male-12_neon_pants-34">
</path>
<path d="M 114 48 C 135 51 146 53 146 53 C 150 82 153 97 153 97 L 119 56 C 119 52 117 49 114 48 Z" fill="#e46aef" id="id-male-12_neon_pants-35">
</path>
<path d="M 87 60 C 107 95 117 113 117 113 L 155 124 C 110 82 87 60 87 60 Z" fill="#e46aef" id="id-male-12_neon_pants-36">
</path>
<path d="M 106 156 L 134 161 L 74 67 L 73 38 L 77 4 L 94 7 L 93 42 C 172 54 212 60 212 60 C 211 138 211 177 211 177 C 177 178 160 178 160 178 C 177 190 196 196 215 204 C 181 206 164 207 164 207 L 147 198 C 120 170 106 156 106 156 Z" fill="#ffffff" fill-opacity="0.153" id="id-male-12_neon_pants-37">
</path>
<path d="M 156 194 C 140 173 132 162 132 162 L 182 190 C 165 193 156 194 156 194 Z" fill="#e56bf0" id="id-male-12_neon_pants-38">
</path>
<path d="M 134 161 C 126 160 122 159 122 159 C 107 151 99 147 99 147 L 93 101 C 121 141 134 161 134 161 Z" fill="#9f46c3" id="id-male-12_neon_pants-39">
</path>
<path d="M 50 135 C 53 140 54 143 54 143 C 63 133 67 128 67 128 L 61 119 C 53 130 50 135 50 135 Z" fill="#e567ed" id="id-male-12_neon_pants-40">
</path>
<path d="M 214 109 C 211 126 210 134 210 134 L 149 103 C 192 107 214 109 214 109 Z" fill="url(#id-male-12_neon_pants-6)" id="id-male-12_neon_pants-41">
</path>
<path d="M 223 94 C 217 116 214 127 214 127 L 221 173 C 222 121 223 94 223 94 Z" stroke="#979797" id="id-male-12_neon_pants-42">
</path>
<path d="M 226 289 C 219 314 220 329 221 344 C 214 325 209 307 204 288 C 175 261 160 248 160 248 C 177 252 185 254 185 254 L 151 201 L 161 178 L 211 177 L 212 60 L 211 18 C 219 18 223 18 223 18 C 222 72 221 99 221 99 C 221 161 221 193 221 193 C 246 193 258 193 258 193 C 259 183 259 178 259 178 C 283 178 295 179 295 179 C 268 193 255 200 255 200 L 235 287 C 231 288 228 289 226 289 Z" fill="url(#id-male-12_neon_pants-7)" id="id-male-12_neon_pants-43">
</path>
<path d="M 225 290 C 195 265 180 252 180 252 C 179 247 179 244 179 244 C 221 252 242 257 242 257 C 266 251 279 248 279 248 L 244 290 L 242 283 C 237 287 231 289 226 289 L 225 290 Z" fill="#000000" fill-opacity="0.271" id="id-male-12_neon_pants-44">
</path>
<path d="M 187 258 C 231 252 253 248 253 248 C 279 237 292 232 292 232 L 243 286 L 242 283 C 237 287 232 289 226 289 L 225 292 C 200 269 187 258 187 258 Z" fill="#000000" fill-opacity="0.271" id="id-male-12_neon_pants-45">
</path>
<path d="M 221 257 C 226 257 229 257 229 257 L 223 173 C 222 229 221 257 221 257 Z" fill="#000000" fill-opacity="0.271" id="id-male-12_neon_pants-46">
</path>
<path d="M 256 194 L 287 179 C 292 179 295 179 295 179 C 276 193 267 200 267 200 C 287 193 297 190 297 190 C 295 204 294 210 294 210 C 323 167 338 146 338 146 C 315 198 304 224 304 224 C 319 388 326 471 326 471 C 359 450 376 440 376 440 C 348 483 334 505 334 505 C 354 531 364 544 364 544 C 350 567 343 579 343 579 C 351 592 355 599 355 599 C 383 590 397 585 397 585 C 409 632 415 655 415 655 L 463 659 L 460 682 L 342 682 C 343 655 336 628 317 600 C 323 522 290 459 260 372 L 242 283 L 235 287 C 249 225 256 194 256 194 Z" fill="#000000" fill-opacity="0.106" id="id-male-12_neon_pants-47">
</path>
<path d="M 372 537 C 360 517 353 507 353 507 C 370 478 378 464 378 464 C 375 390 374 353 374 353 C 371 252 364 142 346 142 C 360 128 368 122 368 122 C 361 115 355 104 350 107 C 376 88 389 79 389 79 C 392 85 394 88 394 88 C 390 96 388 100 388 100 C 397 112 401 118 401 118 C 396 122 394 124 394 124 C 388 115 385 111 385 111 C 383 110 382 110 382 110 C 381 114 380 115 380 115 C 376 226 395 313 424 389 L 385 485 C 376 520 372 537 372 537 Z" fill="url(#id-male-12_neon_pants-8)" id="id-male-12_neon_pants-48">
</path>
<path d="M 355 599 L 352 569 C 366 548 372 537 372 537 C 412 498 432 479 432 479 C 451 451 460 437 460 437 C 447 478 441 499 441 499 L 395 580 C 368 593 355 599 355 599 Z" fill="url(#id-male-12_neon_pants-9)" id="id-male-12_neon_pants-49">
</path>
<path d="M 406 584 C 427 564 437 554 437 554 C 450 579 457 591 457 591 L 413 604 C 408 591 406 584 406 584 Z" fill="url(#id-male-12_neon_pants-10)" id="id-male-12_neon_pants-50">
</path>
<path d="M 460 682 C 463 665 465 650 462 642 C 459 635 446 639 431 645 C 443 623 456 602 474 583 C 459 543 451 523 451 523 L 477 521 L 467 549 L 478 586 C 471 608 472 623 475 637 L 471 682 C 464 682 460 682 460 682 Z" fill="#3f579f" id="id-male-12_neon_pants-51">
</path>
<path d="M 474 583 C 453 545 442 526 442 526 C 472 443 477 342 459 225 L 465 216 C 486 299 491 395 484 502 L 467 549 C 472 571 474 583 474 583 Z" fill="#000000" fill-opacity="0.071" id="id-male-12_neon_pants-52">
</path>
<path d="M 455 177 C 416 189 397 195 397 195 C 415 160 424 143 424 143 C 417 135 414 131 414 131 C 396 142 387 148 387 148 C 401 116 408 100 408 100 L 405 39 L 416 37 L 424 88 C 441 133 451 162 455 177 Z" fill="#000000" fill-opacity="0.065" id="id-male-12_neon_pants-53">
</path>
<path d="M 457 184 C 415 134 394 108 394 108 C 414 124 425 132 425 132 L 438 126 C 450 160 456 179 457 184 Z" fill="#353a8c" id="id-male-12_neon_pants-54">
</path>
<path d="M 389 161 C 406 142 415 132 415 132 L 420 147 C 400 156 389 161 389 161 Z" fill="#29b5e0" id="id-male-12_neon_pants-55">
</path>
<path d="M 392 76 C 405 69 412 66 412 66 C 404 76 400 82 400 82 L 397 84 C 393 79 392 76 392 76 Z" fill="#29d1ec" id="id-male-12_neon_pants-56">
</path>
<path d="M 384 42 C 386 41 387 40 387 40 L 390 74 C 395 81 397 84 397 84 C 394 97 393 103 393 103 L 396 110 C 395 109 394 108 394 108 L 390 103 C 393 93 394 88 394 88 L 387 78 C 385 54 384 42 384 42 Z" fill="#4177c1" id="id-male-12_neon_pants-57">
</path>
<path d="M 412 38 C 393 41 383 42 383 42 L 379 6 L 403 1 C 409 26 412 38 412 38 Z" fill="#000000" fill-opacity="0.137" id="id-male-12_neon_pants-58">
</path>
<path d="M 364 8 C 366 32 368 44 368 44 C 300 54 267 59 267 59 L 265 18 C 313 15 346 11 364 8 Z" fill="#000000" fill-opacity="0.194" id="id-male-12_neon_pants-59">
</path>
<path d="M 368 43 L 358 44 C 361 34 363 21 364 8 C 366 31 368 43 368 43 Z" fill="#353a8c" id="id-male-12_neon_pants-60">
</path>
<path d="M 227 69 C 248 69 259 69 259 69 C 259 66 259 64 259 64 L 227 65 C 227 68 227 69 227 69 Z" fill="#102272" id="id-male-12_neon_pants-61">
</path>
<path d="M 262 49 L 265 48 L 265 18 C 237 18 223 18 223 18 L 222 49 C 249 49 262 49 262 49 Z" fill="#798fef" id="id-male-12_neon_pants-62">
</path>
<path d="M 220 61 C 248 62 262 62 262 62 C 262 35 261 21 261 21 L 219 21 C 220 48 220 61 220 61 Z" fill="#8c77e3" id="id-male-12_neon_pants-63">
</path>
<path d="M 226 58 C 247 58 258 57 258 57 C 259 35 259 23 259 23 L 225 26 C 225 47 226 58 226 58 Z" fill="#122272" id="id-male-12_neon_pants-64">
</path>
<path d="M 228 56 C 237 48 242 44 242 44 L 256 55 C 237 56 228 56 228 56 Z" fill="#000c57" id="id-male-12_neon_pants-65">
</path>
<path d="M 243 42 C 232 32 227 27 227 27 L 258 25 C 248 37 243 42 243 42 Z" fill="#374aa0" id="id-male-12_neon_pants-66">
</path>
<path d="M 221 94 C 249 91 263 90 263 90 C 261 126 260 144 260 144 L 222 147 C 222 111 221 94 221 94 Z" fill="#4999ec" id="id-male-12_neon_pants-67">
</path>
<path d="M 223 114 C 245 104 256 99 256 99 C 261 81 264 73 264 73 L 260 121 C 236 116 223 114 223 114 Z" fill="#31c8ed" id="id-male-12_neon_pants-68">
</path>
<path d="M 265 142 C 268 127 270 120 270 120 L 341 118 C 290 134 265 142 265 142 Z" fill="#57b1f9" id="id-male-12_neon_pants-69">
</path>
<path d="M 295 107 C 301 74 303 57 303 57 L 339 51 C 310 88 295 107 295 107 Z" fill="#27d1ec" id="id-male-12_neon_pants-70">
</path>
<path d="M 303 110 C 345 86 366 74 366 74 L 346 95 C 317 105 303 110 303 110 Z" fill="#22c8e9" id="id-male-12_neon_pants-71">
</path>
<path d="M 331 468 L 326 471 L 304 224 L 267 200 C 281 186 287 179 287 179 C 316 163 331 155 331 155 L 342 333 L 331 468 Z" fill="url(#id-male-12_neon_pants-11)" id="id-male-12_neon_pants-72">
</path>
</g>
<defs>
</defs>
<g transform="translate(566,388)" id="id-male-21_80_facial_hair-0">
<path d="M 1 1 L 8 5 L 8 20 L 40 85 L 39 77 L 83 53 C 86 54 89 54 89 55 C 92 56 92 57 92 57 C 93 57 98 53 99 53 C 103 52 120 61 149 78 L 149 78 L 149 86 L 170 42 L 174 16 L 183 5 C 182 8 180 23 176 50 C 175 61 175 67 174 70 L 174 70 C 174 71 174 71 174 71 C 172 78 168 91 162 111 C 158 115 154 120 148 124 L 148 124 L 148 124 C 148 124 148 124 148 124 L 148 124 C 146 125 137 135 119 153 C 119 153 118 151 116 148 C 116 148 110 151 100 158 C 100 158 99 156 96 153 C 96 153 93 155 88 158 C 88 158 68 145 29 120 C 29 120 26 117 21 111 C 21 111 21 110 21 110 L 21 110 C 20 106 15 86 6 51 C 6 51 6 51 6 51 L 6 51 C 6 47 4 30 1 1 L 1 1 Z M 83 63 C 62 70 53 79 47 89 C 47 89 50 98 55 116 C 55 116 60 113 70 106 L 70 106 L 75 104 C 75 104 75 105 76 107 C 76 107 80 105 88 100 C 88 100 90 102 93 107 C 93 107 96 105 101 101 C 101 101 102 102 103 104 C 103 104 103 104 103 103 L 104 103 C 104 102 105 102 107 100 C 107 100 116 106 133 117 L 133 117 L 133 117 C 133 116 136 107 141 90 C 138 83 119 71 103 64 C 100 63 96 64 92 65 L 91 66 L 91 66 L 91 66 C 91 66 88 65 83 63 Z" fill="#9b9daa" id="id-male-21_80_facial_hair-1">
</path>
<path d="M 9 63 C 17 83 22 93 22 93 C 21 82 21 73 22 60 C 31 77 36 85 36 85 C 34 98 33 105 33 105 C 41 101 45 99 45 99 L 54 136 L 29 120 L 21 111" fill="#a2b4de" id="id-male-21_80_facial_hair-2">
</path>
<path d="M 88 100 C 85 102 83 102 83 102 C 87 126 88 138 88 138 C 92 134 94 132 94 132 C 95 133 95 134 95 134 C 94 135 94 136 94 136 C 100 144 103 149 103 149 C 112 142 117 139 117 139 L 127 146 L 152 124 C 157 121 157 117 162 111 C 164 100 166 95 166 95 L 158 66 L 148 87 L 149 78 C 136 66 121 58 104 53 L 99 53 C 96 55 94 56 94 56 C 91 55 89 54 89 54 L 78 65 L 83 63 C 88 65 91 66 91 66 C 95 64 100 63 103 64 C 115 69 137 82 141 90 L 133 117 L 107 100 L 103 104 L 101 101 L 93 107 C 90 102 88 100 88 100 Z" fill="#bebcbd" id="id-male-21_80_facial_hair-3">
</path>
<path d="M 95 134 C 100 120 103 113 103 113 C 104 129 104 137 104 137 C 118 120 126 112 126 112 C 128 114 130 115 130 115 L 131 143 L 127 146 L 117 139 L 103 149 L 94 136 C 95 134 95 134 95 134 Z" fill="#dedad7" id="id-male-21_80_facial_hair-4">
</path>
<path d="M 107 100 C 106 101 106 101 106 101 C 108 119 109 128 109 128 L 124 111 C 113 104 107 100 107 100 Z" fill="#dedad6" id="id-male-21_80_facial_hair-5">
</path>
<path d="M 125 76 C 133 77 136 78 136 78 C 135 72 134 69 134 69 L 141 71 L 149 78 C 149 84 148 87 148 87 C 147 102 147 110 147 110 L 142 88 C 131 80 125 76 125 76 Z" fill="#dedad7" id="id-male-21_80_facial_hair-6">
</path>
<polygon points="164 54 158 66 166 95 174 71" fill="#a0a2ad" id="id-male-21_80_facial_hair-7">
</polygon>
</g>
<defs>
<linearGradient x1="50%" y1="0%" x2="50%" y2="69%" id="id-male-24_face_boning-0">
<stop stop-color="#eadaf6" offset="0%">
</stop>
<stop stop-color="#979ee0" offset="100%">
</stop>
</linearGradient>
<linearGradient x1="50%" y1="0%" x2="50%" y2="69%" id="id-male-24_face_boning-0">
<stop stop-color="#eadaf6" offset="0%">
</stop>
<stop stop-color="#979ee0" offset="100%">
</stop>
</linearGradient>
<filter width="102%" height="105%" x="-1%" y="-1%" id="id-male-24_face_boning-2" filterUnits="objectBoundingBox">
<feOffset result="id-male-24_face_boning-3" in="SourceAlpha" dx="0" dy="3">
</feOffset>
<feColorMatrix in="id-male-24_face_boning-3" type="matrix" values="0 0 0 0 0 0 0 0 0 0 0 0 0 0 0 0 0 0 0.4 0">
</feColorMatrix>
</filter>
<path d="M 97 1 C 108 13 111 25 103 36 C 103 40 107 46 115 54 C 115 54 115 54 115 54 L 116 54 C 116 54 116 54 116 54 L 116 54 L 116 54 C 118 55 119 56 119 56 C 118 57 118 57 118 57 C 132 71 143 74 152 72 C 153 66 157 66 159 69 C 160 68 160 68 160 68 C 160 63 163 59 166 63 C 172 57 177 48 180 37 C 180 36 181 35 181 34 L 181 34 C 181 34 181 34 181 34 L 180 31 C 182 28 183 24 183 19 L 184 18 C 184 17 184 16 184 15 L 187 15 C 186 21 185 27 190 30 L 188 46 L 182 52 L 180 46 C 178 57 173 64 166 70 L 166 73 C 174 86 173 94 171 102 L 171 103 C 171 104 171 104 171 105 C 171 96 168 86 160 74 L 159 74 L 157 80 C 162 90 164 102 156 122 C 161 106 158 93 151 80 L 151 77 C 139 79 126 73 114 61 C 109 55 103 48 97 44 C 93 46 88 51 84 56 L 83 57 L 83 57 L 82 58 C 81 59 80 60 79 61 C 79 61 78 61 78 62 L 78 62 C 77 62 77 62 77 62 L 77 63 C 68 70 59 77 42 77 L 42 81 C 35 93 35 107 37 122 C 31 101 31 87 37 80 L 35 74 L 33 73 C 27 82 23 92 22 106 C 19 94 22 82 28 71 C 22 65 17 58 14 48 C 12 50 11 52 11 52 C 7 48 5 47 5 47 C 2 35 0 29 0 29 C 5 29 4 27 4 24 C 4 21 4 18 2 16 L 6 12 L 11 32 L 9 34 L 14 37 C 18 48 18 53 27 63 C 29 59 33 59 33 68 L 35 69 C 36 67 40 65 41 71 C 53 74 64 69 75 57 L 75 55 L 79 54 C 85 47 89 41 91 36 C 83 26 83 15 97 1 Z M 97 8 C 90 17 89 25 94 34 L 99 33 C 105 24 103 16 97 8 Z" id="id-male-24_face_boning-5">
</path>
<path d="M 97 1 C 108 13 111 25 103 36 C 103 40 107 46 115 54 C 115 54 115 54 115 54 L 116 54 C 116 54 116 54 116 54 L 116 54 L 116 54 C 118 55 119 56 119 56 C 118 57 118 57 118 57 C 132 71 143 74 152 72 C 153 66 157 66 159 69 C 160 68 160 68 160 68 C 160 63 163 59 166 63 C 172 57 177 48 180 37 C 180 36 181 35 181 34 L 181 34 C 181 34 181 34 181 34 L 180 31 C 182 28 183 24 183 19 L 184 18 C 184 17 184 16 184 15 L 187 15 C 186 21 185 27 190 30 L 188 46 L 182 52 L 180 46 C 178 57 173 64 166 70 L 166 73 C 174 86 173 94 171 102 L 171 103 C 171 104 171 104 171 105 C 171 96 168 86 160 74 L 159 74 L 157 80 C 162 90 164 102 156 122 C 161 106 158 93 151 80 L 151 77 C 139 79 126 73 114 61 C 109 55 103 48 97 44 C 93 46 88 51 84 56 L 83 57 L 83 57 L 82 58 C 81 59 80 60 79 61 C 79 61 78 61 78 62 L 78 62 C 77 62 77 62 77 62 L 77 63 C 68 70 59 77 42 77 L 42 81 C 35 93 35 107 37 122 C 31 101 31 87 37 80 L 35 74 L 33 73 C 27 82 23 92 22 106 C 19 94 22 82 28 71 C 22 65 17 58 14 48 C 12 50 11 52 11 52 C 7 48 5 47 5 47 C 2 35 0 29 0 29 C 5 29 4 27 4 24 C 4 21 4 18 2 16 L 6 12 L 11 32 L 9 34 L 14 37 C 18 48 18 53 27 63 C 29 59 33 59 33 68 L 35 69 C 36 67 40 65 41 71 C 53 74 64 69 75 57 L 75 55 L 79 54 C 85 47 89 41 91 36 C 83 26 83 15 97 1 Z M 97 8 C 90 17 89 25 94 34 L 99 33 C 105 24 103 16 97 8 Z" id="id-male-24_face_boning-5">
</path>
<linearGradient x1="91%" y1="59%" x2="4%" y2="42%" id="id-male-24_face_boning-7">
<stop stop-color="#9fa2e1" offset="0%">
</stop>
<stop stop-color="#e3d5f4" offset="100%">
</stop>
</linearGradient>
</defs>
<g transform="translate(562,353)" id="id-male-24_face_boning-8">
<g transform="translate(1,86)" id="id-male-24_face_boning-9">
<path d="M 9 81 C 12 44 14 25 14 25 C 10 16 8 11 8 11 C 8 4 8 0 8 0 C 6 0 5 0 5 0 C 5 7 5 10 5 10 L 0 16 L 9 81 Z" fill="url(#id-male-24_face_boning-0)" id="id-male-24_face_boning-10">
</path>
<polygon points="6 30 11 25 6 12 0 18" fill="#272648" id="id-male-24_face_boning-11">
</polygon>
<path d="M 4 27 C 7 24 8 23 8 23 C 6 19 5 17 5 17 L 1 21 C 3 25 4 27 4 27 Z" fill="#00d170" id="id-male-24_face_boning-12">
</path>
<path d="M 12 26 L 11 52 L 14 25 L 8 11 L 5 10 L 6 12 C 10 21 12 26 12 26 Z" fill="#979ee0" id="id-male-24_face_boning-13">
</path>
<path d="M 8 1 C 10 4 11 5 11 5 L 8 7 L 8 1 Z" fill="#48487a" id="id-male-24_face_boning-14">
</path>
</g>
<g transform="translate(187,126) scale(-1,1) translate(-187,-126) translate(180,85)" id="id-male-24_face_boning-15">
<path d="M 9 81 C 12 44 14 25 14 25 C 10 16 8 11 8 11 C 8 4 8 0 8 0 C 6 0 5 0 5 0 C 5 7 5 10 5 10 L 0 16 L 9 81 Z" fill="url(#id-male-24_face_boning-0)" id="id-male-24_face_boning-10">
</path>
<polygon points="6 30 11 25 6 12 0 18" fill="#272648" id="id-male-24_face_boning-11">
</polygon>
<path d="M 4 27 C 7 24 8 23 8 23 C 6 19 5 17 5 17 L 1 21 C 3 25 4 27 4 27 Z" fill="#00d170" id="id-male-24_face_boning-12">
</path>
<path d="M 12 26 L 11 52 L 14 25 L 8 11 L 5 10 L 6 12 C 10 21 12 26 12 26 Z" fill="#979ee0" id="id-male-24_face_boning-13">
</path>
<path d="M 8 1 C 10 4 11 5 11 5 L 8 7 L 8 1 Z" fill="#48487a" id="id-male-24_face_boning-14">
</path>
</g>
<g id="id-male-24_face_boning-21">
<use fill="#000000" fill-opacity="1" xlink:href="#id-male-24_face_boning-5" filter="url(#id-male-24_face_boning-2)">
</use>
<use fill="#474878" xlink:href="#id-male-24_face_boning-5" fill-rule="evenodd">
</use>
</g>
<polygon points="75 55 80 61 96 57 113 62 119 56 116 54 111 58 97 53 84 57 78 52" fill="#5c64a8" id="id-male-24_face_boning-25">
</polygon>
<path d="M 41 71 L 42 77 L 42 81 L 36 71 L 36 68 C 37 67 40 65 41 71 Z" fill="#979de0" id="id-male-24_face_boning-26">
</path>
<path d="M 32 74 L 35 71 L 35 69 C 34 68 33 68 33 68 L 33 64 C 32 60 30 59 28 63 L 32 74 Z" fill="#aface4" id="id-male-24_face_boning-27">
</path>
<path d="M 14 37 L 12 37 L 9 43 C 9 40 10 39 10 39 C 9 36 8 34 8 34 C 8 33 9 31 11 31 L 6 12 L 3 15 C 4 16 6 15 4 20 C 5 25 6 29 0 29 C 4 40 6 45 6 45 L 11 49 C 14 47 14 42 14 37 Z" fill="#8d95df" id="id-male-24_face_boning-28">
</path>
<path d="M 14 37 L 14 45 C 17 55 21 61 26 67 L 26 62 C 19 55 17 46 14 37 Z" fill="#beb6e0" id="id-male-24_face_boning-29">
</path>
<path d="M 27 63 C 30 64 32 64 32 64 C 32 70 32 74 32 74 L 27 73 C 28 72 28 71 28 71 L 27 69 C 27 65 27 63 27 63 Z" fill="#220d07" id="id-male-24_face_boning-30">
</path>
<polygon points="35 71 39 71 41 80 37 80" fill="#220d07" id="id-male-24_face_boning-31">
</polygon>
<path d="M 31 73 C 29 70 28 69 28 69 C 28 69 28 67 30 65 L 32 67 L 31 73 Z" fill="#00d170" id="id-male-24_face_boning-32">
</path>
<polygon points="35 75 39 80 41 75 39 73 38 71" fill="#00d170" id="id-male-24_face_boning-33">
</polygon>
<path d="M 41 80 L 36 80 C 30 91 33 106 36 122 C 35 105 34 89 41 80 Z" fill="#9b9de2" id="id-male-24_face_boning-34">
</path>
<path d="M 28 73 L 32 74 C 26 82 23 93 22 105 C 20 94 21 83 28 73 Z" fill="#bfb7e4" id="id-male-24_face_boning-35">
</path>
<path d="M 41 75 C 54 76 67 71 79 60 L 78 59 C 73 62 68 66 63 67 C 56 72 48 73 41 71 L 41 75 Z" fill="#8c94dc" id="id-male-24_face_boning-36">
</path>
<polyline points="84 57 83 60 75 55 78 52 84 57" fill="#eadaf6" id="id-male-24_face_boning-37">
</polyline>
<polygon points="83 60 96 56 114 61 111 58 97 53 84 57" fill="#9198dd" id="id-male-24_face_boning-38">
</polygon>
<polygon points="97 53 96 56 108 59 107 57" fill="#eadaf6" id="id-male-24_face_boning-39">
</polygon>
<path d="M 81 55 L 82 56 C 87 50 91 45 95 43 L 92 41 L 88 44 C 86 47 84 50 81 55 Z" fill="#8e96df" id="id-male-24_face_boning-40">
</path>
<path d="M 94 41 L 88 44 L 85 39 C 88 37 90 36 90 36 C 89 35 88 34 88 34 C 90 31 91 29 91 29 L 94 33 L 92 39 L 94 41 Z" fill="#220d07" id="id-male-24_face_boning-41">
</path>
<path d="M 90 33 C 91 32 91 31 91 31 C 92 32 93 33 93 33 L 91 35 C 90 34 90 33 90 33 Z" fill="#00d170" id="id-male-24_face_boning-42">
</path>
<path d="M 87 39 L 89 38 C 91 40 91 41 91 41 L 89 42 C 87 40 87 39 87 39 Z" fill="#00d170" id="id-male-24_face_boning-43">
</path>
<path d="M 97 43 L 103 35 C 112 20 105 10 97 1 L 97 7 C 104 11 106 27 99 33 L 94 34 L 93 38 L 97 43 Z" fill="#e4d6f4" id="id-male-24_face_boning-44">
</path>
<polygon points="96 30 93 35 98 42 102 35" fill="#220d07" id="id-male-24_face_boning-45">
</polygon>
<polygon points="97 39 95 35 97 32 100 35" fill="#00d170" id="id-male-24_face_boning-46">
</polygon>
<polygon points="100 41 106 45 109 40 103 36" fill="#220d07" id="id-male-24_face_boning-47">
</polygon>
<polygon points="105 43 102 41 103 38 107 39" fill="#00d170" id="id-male-24_face_boning-48">
</polygon>
<polygon points="102 29 105 32 103 36 100 33" fill="#220d07" id="id-male-24_face_boning-49">
</polygon>
<polygon points="103 31 101 33 103 35 104 33" fill="#00d170" id="id-male-24_face_boning-50">
</polygon>
<polygon points="97 12 92 21 97 30 102 22" fill="#272748" id="id-male-24_face_boning-51">
</polygon>
<polygon points="93 21 97 28 100 22 96 15" fill="#00d070" id="id-male-24_face_boning-52">
</polygon>
<polygon points="96 15 96 24 99 21" fill="#eadaf6" id="id-male-24_face_boning-53">
</polygon>
<path d="M 95 3 L 96 7 C 91 12 89 18 91 29 L 90 29 C 88 24 88 17 89 11 C 91 8 93 5 95 3 Z" fill="#8d96e0" id="id-male-24_face_boning-54">
</path>
<path d="M 95 0 C 98 0 99 0 99 0 C 98 5 98 8 98 8 L 96 8 C 96 3 95 0 95 0 Z" fill="#272648" id="id-male-24_face_boning-55">
</path>
<path d="M 99 43 C 102 46 103 47 103 47 L 112 57 C 114 55 115 54 115 54 C 109 47 107 44 107 44 L 100 41 C 100 43 99 43 99 43 Z" fill="#e9d8f4" id="id-male-24_face_boning-56">
</path>
<path d="M 118 57 C 117 58 116 59 116 59 C 116 60 117 61 117 61 C 127 72 139 77 152 75 L 152 72 C 143 75 131 70 118 57 Z" fill="url(#id-male-24_face_boning-7)" id="id-male-24_face_boning-57">
</path>
<path d="M 152 80 L 154 68 C 156 66 158 67 159 69 L 160 68 L 157 80 C 163 93 163 107 156 122 C 161 101 158 89 152 80 Z" fill="#aeade8" id="id-male-24_face_boning-58">
</path>
<path d="M 161 73 L 162 62 C 163 62 164 60 166 63 C 173 56 177 47 180 37 C 179 50 175 60 166 67 L 166 73 C 173 83 174 94 171 105 C 171 91 168 81 161 73 Z" fill="#bfb9eb" id="id-male-24_face_boning-59">
</path>
<path d="M 151 80 C 154 81 156 82 156 82 C 157 75 158 71 158 71 L 153 70 L 151 80 Z" fill="#220d07" id="id-male-24_face_boning-60">
</path>
<path d="M 156 72 C 153 74 152 75 152 75 C 153 79 154 80 154 80 L 157 76 L 156 72 Z" fill="#00d170" id="id-male-24_face_boning-61">
</path>
<path d="M 160 73 C 163 74 164 75 164 75 C 166 68 167 65 167 65 L 161 64 L 160 73 Z" fill="#220d07" id="id-male-24_face_boning-62">
</path>
<path d="M 164 66 C 162 68 161 69 161 69 C 162 71 162 72 162 72 L 166 69 C 165 67 164 66 164 66 Z" fill="#00d170" id="id-male-24_face_boning-63">
</path>
<path d="M 179 44 C 181 48 182 50 182 50 C 186 47 188 45 188 45 C 189 35 190 30 190 30 C 188 28 187 27 186 24 C 184 25 182 25 182 25 C 181 28 180 30 180 30 C 182 33 183 35 183 35 C 183 38 184 39 184 39 L 184 42 L 180 37 C 180 40 180 43 179 44 Z" fill="#8d95db" id="id-male-24_face_boning-64">
</path>
<path d="M 189 34 C 190 34 190 34 190 34 C 189 38 188 40 188 40 L 186 40 C 188 36 189 34 189 34 Z" fill="#00b900" id="id-male-24_face_boning-65">
</path>
<path d="M 180 30 C 182 28 182 27 182 27 C 187 28 189 29 189 29 L 188 32 C 183 32 180 31 180 30 Z" fill="#e6d6f5" id="id-male-24_face_boning-66">
</path>
<path d="M 2 31 C 3 33 3 33 3 33 C 8 31 10 30 10 30 L 9 27 C 4 30 2 31 2 31 Z" fill="#e6d6f5" id="id-male-24_face_boning-67">
</path>
</g>
<defs>
</defs>
<g transform="translate(566,213)" id="id-male-25_36_hair-0">
<g fill="#231011" id="id-male-25_36_hair-1">
<path d="M 182 106 L 184 111 C 184 111 187 168 184 179 L 181 198 L 177 200 C 179 187 181 150 169 135 L 172 119 L 177 124 C 174 118 171 112 168 107 L 182 106 Z" id="id-male-25_36_hair-2">
</path>
<path d="M 4 113 C 8 111 10 112 15 111 C 23 138 3 149 8 177 L 12 172 C 9 181 9 187 9 196 L 4 193 C 4 193 2 184 2 174 C 1 167 0 161 0 151 C 0 150 0 148 0 147 C 1 134 2 121 4 113 Z" id="id-male-25_36_hair-2">
</path>
<path d="M 184 67 L 183 89 L 183 90 L 182 106 C 182 106 150 89 149 87 C 149 87 148 86 148 86 C 147 86 146 86 146 87 L 141 84 L 101 94 L 105 88 C 105 88 94 95 93 95 L 77 84 L 72 90 C 49 61 8 113 4 114 L 2 90 C 3 87 3 73 4 70 C 4 70 8 78 8 78 C 17 46 27 45 27 45 C 31 37 36 31 42 25 L 41 32 C 44 30 54 25 54 25 C 56 18 60 12 65 8 C 64 10 67 17 67 17 L 81 0 L 85 11 L 99 5 C 103 9 183 55 180 74 L 184 67 Z" id="id-male-25_36_hair-2">
</path>
</g>
<g transform="translate(3,0)" fill="#41547a" id="id-male-25_36_hair-5">
<path d="M 180 67 L 179 89 L 168 98 L 143 84 L 143 81 C 141 81 139 83 137 84 C 125 87 106 92 97 94 L 102 88 L 90 96 C 83 91 78 87 74 84 C 71 81 67 78 62 74 L 63 75 C 67 85 69 90 69 90 C 63 82 50 81 43 82 C 43 82 35 74 35 74 L 32 72 L 37 85 L 17 99 L 0 74 C 0 74 0 73 0 71 C 0 71 0 70 0 70 L 5 77 C 14 46 23 44 23 44 C 28 37 33 31 38 25 L 37 31 C 39 30 49 25 50 25 C 52 18 57 12 62 7 C 61 9 63 16 63 17 L 77 0 L 82 11 L 96 5 C 119 23 163 42 175 67 C 176 68 176 70 177 74 L 180 67 Z" id="id-male-25_36_hair-2">
</path>
</g>
<g transform="translate(25,0)" fill="#577dbf" id="id-male-25_36_hair-7">
<path d="M 21 52 L 30 82 C 27 82 24 82 21 82 C 21 82 14 74 13 74 C 8 69 3 64 0 57 C 0 57 13 65 20 62 C 20 62 4 56 16 31 C 18 31 20 29 23 28 C 24 35 29 53 36 60 C 36 59 24 56 21 52 Z" id="id-male-25_36_hair-2">
</path>
<path d="M 139 47 C 127 38 92 17 75 5 L 60 11 C 60 10 57 1 56 0 L 42 17 C 41 16 40 9 41 8 C 32 14 34 27 33 41 L 41 50 C 41 50 41 37 43 33 C 43 33 46 62 51 68 L 39 73 C 47 79 61 91 69 96 L 81 88 L 77 93 L 124 69 L 122 84 C 122 84 139 67 145 54 L 139 47 Z M 53 49 C 64 70 79 69 79 69 C 79 69 66 78 62 78 C 57 78 53 51 53 49 Z" id="id-male-25_36_hair-9" fill-rule="nonzero">
</path>
</g>
<g transform="translate(60,0)" fill="#5aa4da" id="id-male-25_36_hair-10">
<polygon points="33 92 56 65 87 67" id="id-male-25_36_hair-2">
</polygon>
<path d="M 110 55 C 110 55 103 66 102 66 L 102 55 L 76 50 L 93 44 C 93 44 54 37 51 32 C 51 32 52 54 53 58 C 54 63 36 29 37 14 C 37 14 27 28 26 36 L 28 10 L 39 5 L 40 6 C 41 13 42 23 47 29 C 45 24 47 17 50 13 C 64 23 85 33 99 43 C 104 47 109 52 110 55 Z" id="id-male-25_36_hair-2">
</path>
<path d="M 24 9 C 21 13 15 21 14 27 C 14 21 14 14 14 8 L 21 0 L 24 9 Z" id="id-male-25_36_hair-2">
</path>
<path d="M 6 14 L 5 48 C 5 48 -1 25 0 13 C 2 11 4 9 6 8 C 5 10 5 12 6 14 Z" id="id-male-25_36_hair-2">
</path>
</g>
</g>
<defs>
</defs>

</svg>
