<?xml version="1.0" encoding="UTF-8"?>
<svg xmlns="http://www.w3.org/2000/svg" xmlns:xlink="http://www.w3.org/1999/xlink" width="1320px" height="1760px" viewBox="0 0 1320 1760" version="1.1">
<defs>




</defs>

<defs>
</defs>
<path d="M 569 480 L 579 525 C 554 519 540 529 537 552 C 550 522 573 527 571 528 C 561 533 550 544 548 552 C 547 555 537 570 543 586 C 541 573 547 566 548 569 C 548 573 551 580 556 589 L 585 589 L 595 572 C 591 591 594 608 603 624 C 597 595 597 579 604 577 L 617 585 L 704 579 L 714 570 L 722 628 L 722 563 L 731 572 C 733 582 733 592 731 603 C 736 596 738 588 738 581 C 747 584 756 584 764 581 C 773 577 777 571 777 563 L 766 539 L 748 532 C 753 531 758 531 764 532 C 770 534 775 538 779 544 C 777 535 773 530 766 528 C 759 526 750 527 739 530 L 748 501 L 569 480 Z" fill="#1e1324" id="id-female-5_52_messy_bang_low_buns_back-0">
</path>
<defs>
<linearGradient x1="100%" y1="46%" x2="12%" y2="47%" id="id-female-6.6_base_6-0">
<stop stop-color="#c77f5b" offset="0%">
</stop>
<stop stop-color="#c17a5b" offset="21%">
</stop>
<stop stop-color="#eec59e" offset="46%">
</stop>
<stop stop-color="#e4a677" offset="80%">
</stop>
<stop stop-color="#e0a679" offset="100%">
</stop>
</linearGradient>
<linearGradient x1="53%" y1="81%" x2="50%" y2="21%" id="id-female-6.6_base_6-1">
<stop stop-color="#cd885b" offset="0%">
</stop>
<stop stop-color="#de9362" offset="24%">
</stop>
<stop stop-color="#df9352" offset="100%">
</stop>
</linearGradient>
<linearGradient x1="52%" y1="-4%" x2="46%" y2="70%" id="id-female-6.6_base_6-2">
<stop stop-color="#be7c52" offset="0%">
</stop>
<stop stop-color="#b26f41" offset="100%">
</stop>
</linearGradient>
<linearGradient x1="46%" y1="43%" x2="15%" y2="43%" id="id-female-6.6_base_6-3">
<stop stop-color="#e09c61" offset="0%">
</stop>
<stop stop-color="#b86e3c" offset="100%">
</stop>
</linearGradient>
<linearGradient x1="54%" y1="37%" x2="12%" y2="72%" id="id-female-6.6_base_6-4">
<stop stop-color="#53161c" offset="0%">
</stop>
<stop stop-color="#99554b" offset="100%">
</stop>
</linearGradient>
<linearGradient x1="40%" y1="14%" x2="61%" y2="85%" id="id-female-6.6_base_6-5">
<stop stop-color="#6e3017" offset="0%">
</stop>
<stop stop-color="#855820" offset="100%">
</stop>
</linearGradient>
<linearGradient x1="27%" y1="47%" x2="91%" y2="49%" id="id-female-6.6_base_6-6">
<stop stop-color="#d4917e" offset="0%">
</stop>
<stop stop-color="#ffcbb7" offset="100%">
</stop>
</linearGradient>
<linearGradient x1="47%" y1="60%" x2="49%" y2="79%" id="id-female-6.6_base_6-7">
<stop stop-color="#e79066" offset="0%">
</stop>
<stop stop-color="#e08f62" offset="60%">
</stop>
<stop stop-color="#edaf7d" offset="100%">
</stop>
</linearGradient>
<linearGradient x1="29%" y1="56%" x2="69%" y2="53%" id="id-female-6.6_base_6-8">
<stop stop-color="#d49053" offset="0%">
</stop>
<stop stop-color="#cd8a51" offset="8%">
</stop>
<stop stop-color="#da8359" offset="18%">
</stop>
<stop stop-color="#d6935a" offset="38%">
</stop>
<stop stop-color="#d08c58" offset="65%">
</stop>
<stop stop-color="#cd7d52" offset="81%">
</stop>
<stop stop-color="#bd754a" offset="100%">
</stop>
</linearGradient>
<linearGradient x1="47%" y1="45%" x2="54%" y2="46%" id="id-female-6.6_base_6-9">
<stop stop-color="#d27f4c" offset="0%">
</stop>
<stop stop-color="#c97947" offset="62%">
</stop>
<stop stop-color="#bc703a" offset="77%">
</stop>
<stop stop-color="#d18c59" offset="100%">
</stop>
</linearGradient>
<linearGradient x1="51%" y1="7%" x2="50%" y2="100%" id="id-female-6.6_base_6-10">
<stop stop-color="#d27748" offset="0%">
</stop>
<stop stop-color="#e29f6d" offset="75%">
</stop>
<stop stop-color="#da986b" offset="100%">
</stop>
</linearGradient>
<linearGradient x1="51%" y1="11%" x2="49%" y2="93%" id="id-female-6.6_base_6-11">
<stop stop-color="#dc915f" offset="0%">
</stop>
<stop stop-color="#d58e5b" offset="73%">
</stop>
<stop stop-color="#e39d67" offset="100%">
</stop>
</linearGradient>
<linearGradient x1="51%" y1="-5%" x2="48%" y2="96%" id="id-female-6.6_base_6-12">
<stop stop-color="#d68f5b" offset="0%">
</stop>
<stop stop-color="#cc8352" offset="100%">
</stop>
</linearGradient>
<linearGradient x1="50%" y1="19%" x2="50%" y2="69%" id="id-female-6.6_base_6-13">
<stop stop-color="#b46c3c" offset="0%">
</stop>
<stop stop-color="#70411f" offset="45%">
</stop>
<stop stop-color="#996644" offset="100%">
</stop>
</linearGradient>
<linearGradient x1="46%" y1="74%" x2="39%" y2="35%" id="id-female-6.6_base_6-14">
<stop stop-color="#b06f3a" offset="0%">
</stop>
<stop stop-color="#c66d4a" offset="51%">
</stop>
<stop stop-color="#9f6a38" offset="100%" stop-opacity="0">
</stop>
</linearGradient>
<linearGradient x1="46%" y1="16%" x2="49%" y2="82%" id="id-female-6.6_base_6-15">
<stop stop-color="#9b573d" offset="0%" stop-opacity="0.19">
</stop>
<stop stop-color="#5f3720" offset="100%">
</stop>
</linearGradient>
<linearGradient x1="41%" y1="19%" x2="50%" y2="100%" id="id-female-6.6_base_6-16">
<stop stop-color="#be6f4b" offset="0%">
</stop>
<stop stop-color="#9e5637" offset="100%">
</stop>
</linearGradient>
<linearGradient x1="50%" y1="31%" x2="45%" y2="50%" id="id-female-6.6_base_6-17">
<stop stop-color="#cc7848" offset="0%">
</stop>
<stop stop-color="#eda871" offset="100%">
</stop>
</linearGradient>
<linearGradient x1="51%" y1="22%" x2="50%" y2="100%" id="id-female-6.6_base_6-18">
<stop stop-color="#b0683c" offset="0%">
</stop>
<stop stop-color="#bd7658" offset="100%">
</stop>
</linearGradient>
<linearGradient x1="49%" y1="0%" x2="50%" y2="100%" id="id-female-6.6_base_6-19">
<stop stop-color="#d48549" offset="0%">
</stop>
<stop stop-color="#e29159" offset="100%">
</stop>
</linearGradient>
<linearGradient x1="44%" y1="15%" x2="50%" y2="100%" id="id-female-6.6_base_6-20">
<stop stop-color="#b76538" offset="0%">
</stop>
<stop stop-color="#a6633c" offset="100%">
</stop>
</linearGradient>
<linearGradient x1="52%" y1="21%" x2="49%" y2="83%" id="id-female-6.6_base_6-21">
<stop stop-color="#de8850" offset="0%">
</stop>
<stop stop-color="#e78e5d" offset="48%">
</stop>
<stop stop-color="#e29e63" offset="100%">
</stop>
</linearGradient>
<linearGradient x1="85%" y1="60%" x2="15%" y2="60%" id="id-female-6.6_base_6-22">
<stop stop-color="#d27c44" offset="0%">
</stop>
<stop stop-color="#c06a37" offset="100%">
</stop>
</linearGradient>
<linearGradient x1="50%" y1="-3%" x2="59%" y2="91%" id="id-female-6.6_base_6-23">
<stop stop-color="#cc885c" offset="0%">
</stop>
<stop stop-color="#c6814f" offset="53%">
</stop>
<stop stop-color="#c2794d" offset="66%">
</stop>
<stop stop-color="#ba6b3c" offset="100%">
</stop>
</linearGradient>
<linearGradient x1="55%" y1="48%" x2="46%" y2="33%" id="id-female-6.6_base_6-24">
<stop stop-color="#ce8355" offset="0%">
</stop>
<stop stop-color="#df905f" offset="86%">
</stop>
<stop stop-color="#d48f57" offset="100%">
</stop>
</linearGradient>
<linearGradient x1="50%" y1="19%" x2="50%" y2="78%" id="id-female-6.6_base_6-25">
<stop stop-color="#914919" offset="0%">
</stop>
<stop stop-color="#ab5722" offset="50%">
</stop>
<stop stop-color="#845026" offset="100%">
</stop>
</linearGradient>
<linearGradient x1="50%" y1="10%" x2="50%" y2="43%" id="id-female-6.6_base_6-26">
<stop stop-color="#c27b41" offset="0%">
</stop>
<stop stop-color="#c77e4a" offset="15%">
</stop>
<stop stop-color="#995b2a" offset="68%">
</stop>
<stop stop-color="#b97842" offset="100%">
</stop>
</linearGradient>
<linearGradient x1="89%" y1="50%" x2="7%" y2="52%" id="id-female-6.6_base_6-27">
<stop stop-color="#8e4d2a" offset="0%">
</stop>
<stop stop-color="#b77b5b" offset="53%" stop-opacity="0.199">
</stop>
<stop stop-color="#a66134" offset="75%">
</stop>
<stop stop-color="#8b532c" offset="100%">
</stop>
</linearGradient>
<linearGradient x1="44%" y1="70%" x2="86%" y2="30%" id="id-female-6.6_base_6-28">
<stop stop-color="#e0a476" offset="0%">
</stop>
<stop stop-color="#e8ad86" offset="100%">
</stop>
</linearGradient>
<linearGradient x1="33%" y1="92%" x2="61%" y2="25%" id="id-female-6.6_base_6-29">
<stop stop-color="#be7342" offset="0%">
</stop>
<stop stop-color="#d48f5d" offset="40%">
</stop>
<stop stop-color="#efbc8e" offset="100%">
</stop>
</linearGradient>
<linearGradient x1="35%" y1="94%" x2="47%" y2="12%" id="id-female-6.6_base_6-30">
<stop stop-color="#d99461" offset="0%">
</stop>
<stop stop-color="#d28a5a" offset="40%">
</stop>
<stop stop-color="#e8b587" offset="100%">
</stop>
</linearGradient>
<linearGradient x1="50%" y1="54%" x2="27%" y2="9%" id="id-female-6.6_base_6-31">
<stop stop-color="#f7ab80" offset="0%">
</stop>
<stop stop-color="#ddab90" offset="100%" stop-opacity="0.078">
</stop>
</linearGradient>
<linearGradient x1="50%" y1="0%" x2="93%" y2="69%" id="id-female-6.6_base_6-32">
<stop stop-color="#dca37f" offset="0%">
</stop>
<stop stop-color="#dda16b" offset="70%">
</stop>
<stop stop-color="#c66d49" offset="100%">
</stop>
</linearGradient>
<linearGradient x1="36%" y1="84%" x2="25%" y2="44%" id="id-female-6.6_base_6-33">
<stop stop-color="#c98762" offset="0%" stop-opacity="0.509">
</stop>
<stop stop-color="#90492c" offset="35%" stop-opacity="0.675">
</stop>
<stop stop-color="#762e17" offset="100%" stop-opacity="0">
</stop>
</linearGradient>
<linearGradient x1="63%" y1="95%" x2="43%" y2="20%" id="id-female-6.6_base_6-34">
<stop stop-color="#d38e55" offset="0%">
</stop>
<stop stop-color="#e4a97d" offset="46%">
</stop>
<stop stop-color="#ce824b" offset="100%">
</stop>
</linearGradient>
<linearGradient x1="40%" y1="0%" x2="50%" y2="86%" id="id-female-6.6_base_6-35">
<stop stop-color="#dea071" offset="0%">
</stop>
<stop stop-color="#c27945" offset="100%">
</stop>
</linearGradient>
<linearGradient x1="50%" y1="0%" x2="50%" y2="92%" id="id-female-6.6_base_6-36">
<stop stop-color="#e0a272" offset="0%">
</stop>
<stop stop-color="#dca16f" offset="100%">
</stop>
</linearGradient>
<linearGradient x1="33%" y1="79%" x2="21%" y2="44%" id="id-female-6.6_base_6-37">
<stop stop-color="#be6457" offset="0%">
</stop>
<stop stop-color="#983f32" offset="28%" stop-opacity="0.928">
</stop>
<stop stop-color="#762e17" offset="100%" stop-opacity="0">
</stop>
</linearGradient>
<linearGradient x1="4%" y1="47%" x2="92%" y2="45%" id="id-female-6.6_base_6-38">
<stop stop-color="#752b0f" offset="0%">
</stop>
<stop stop-color="#83391d" offset="17%" stop-opacity="0.753">
</stop>
<stop stop-color="#9e4b3d" offset="48%" stop-opacity="0.386">
</stop>
<stop stop-color="#94401f" offset="78%" stop-opacity="0.762">
</stop>
<stop stop-color="#88391a" offset="100%">
</stop>
</linearGradient>
<linearGradient x1="60%" y1="45%" x2="67%" y2="53%" id="id-female-6.6_base_6-39">
<stop stop-color="#d79463" offset="0%">
</stop>
<stop stop-color="#ffc6b2" offset="100%">
</stop>
</linearGradient>
<linearGradient x1="48%" y1="15%" x2="54%" y2="81%" id="id-female-6.6_base_6-40">
<stop stop-color="#d99776" offset="0%" stop-opacity="0.4">
</stop>
<stop stop-color="#e5a875" offset="100%">
</stop>
</linearGradient>
<linearGradient x1="47%" y1="44%" x2="50%" y2="61%" id="id-female-6.6_base_6-41">
<stop stop-color="#943b2f" offset="0%" stop-opacity="0.175">
</stop>
<stop stop-color="#61301b" offset="100%">
</stop>
</linearGradient>
<linearGradient x1="26%" y1="-7%" x2="50%" y2="96%" id="id-female-6.6_base_6-42">
<stop stop-color="#37373f" offset="0%">
</stop>
<stop stop-color="#19191d" offset="100%">
</stop>
</linearGradient>
<linearGradient x1="50%" y1="12%" x2="59%" y2="82%" id="id-female-6.6_base_6-43">
<stop stop-color="#252525" offset="0%">
</stop>
<stop stop-color="#101010" offset="100%">
</stop>
</linearGradient>
<linearGradient x1="25%" y1="-16%" x2="50%" y2="98%" id="id-female-6.6_base_6-44">
<stop stop-color="#37373f" offset="0%">
</stop>
<stop stop-color="#19191d" offset="100%">
</stop>
</linearGradient>
<linearGradient x1="75%" y1="39%" x2="50%" y2="93%" id="id-female-6.6_base_6-45">
<stop stop-color="#252525" offset="0%">
</stop>
<stop stop-color="#000000" offset="100%">
</stop>
</linearGradient>
</defs>
<g transform="translate(334,549)" id="id-female-6.6_base_6-46">
<polygon points="561 754 565 871 565 881 537 893 533 897 535 901 532 909 543 910 597 864" fill="#562003" id="id-female-6.6_base_6-47">
</polygon>
<polygon points="537 282 539 246 535 195 529 158 522 137 484 118 440 111 212 111 188 113 157 123 121 139 111 186 108 221 109 290" fill="url(#id-female-6.6_base_6-0)" id="id-female-6.6_base_6-47">
</polygon>
<polygon points="467 393 474 506 503 589 537 672 556 728 561 754 546 794 552 851 551 861 552 874 556 885 567 882 568 866 570 860 570 843 571 834 576 843 576 859 579 864 573 874 571 884 544 903 541 916 582 901 597 864 607 852 600 821 597 716 589 695 582 655 569 523 544 425" fill="url(#id-female-6.6_base_6-1)" id="id-female-6.6_base_6-47">
</polygon>
<polygon points="546 794 552 851 551 861 552 874 556 885 567 882 568 866 570 860 570 843 571 834 576 843 576 859 579 864 573 874 571 884 544 903 541 916 582 901 597 864 583 871 588 855 573 815 561 823" fill="url(#id-female-6.6_base_6-2)" id="id-female-6.6_base_6-47">
</polygon>
<polygon points="552 851 551 861 552 874 556 887 567 884 568 866 570 860 558 860" fill="#8a5125" id="id-female-6.6_base_6-47">
</polygon>
<polygon points="544 906 541 916 582 901 571 889" fill="#92502a" id="id-female-6.6_base_6-47">
</polygon>
<polygon points="561 754 548 789 566 819 586 806" fill="#bd8171" id="id-female-6.6_base_6-47">
</polygon>
<polygon points="486 648 477 599 453 529 440 504 437 490 439 460 449 402 456 340 188 343 198 411 202 493 162 596 153 638 266 693 319 721 386 693" fill="url(#id-female-6.6_base_6-3)" id="id-female-6.6_base_6-47">
</polygon>
<polygon points="486 648 477 599 453 529 440 504 437 490 439 460 449 402 456 340 296 353 376 634" fill="#d8965f" id="id-female-6.6_base_6-47">
</polygon>
<g transform="translate(188,0)" id="id-female-6.6_base_6-56">
<polygon points="274 114 253 111 232 100 201 76 188 58 184 1 93 1 88 64 25 111 1 113 103 123 121 135 134 138 149 121 161 117 187 119 225 114" fill="#d18c5e" id="id-female-6.6_base_6-47">
</polygon>
<polygon points="201 76 188 58 185 12 175 57 155 111 185 73" fill="#edad85" id="id-female-6.6_base_6-47">
</polygon>
<polygon points="149 1 93 1 88 64 108 126 121 135 133 138" fill="#c1844f" id="id-female-6.6_base_6-47">
</polygon>
<polygon points="116 102 120 113 118 115 136 135 150 119 164 71 125 108" fill="#b57449" id="id-female-6.6_base_6-60">
</polygon>
<polygon points="121 127 133 138 145 124" fill="#9f593a" id="id-female-6.6_base_6-61">
</polygon>
<polygon points="136 98 164 71 175 57 186 17 134 51" fill="#d9986e" id="id-female-6.6_base_6-62">
</polygon>
<polygon points="97 96 116 80 164 60 178 48 186 17 184 1 93 1 88 64 45 96" fill="#a3663f" opacity="0.654" id="id-female-6.6_base_6-47">
</polygon>
<polygon points="186 17 184 1 93 1 88 64 45 96 66 96" fill="url(#id-female-6.6_base_6-4)" opacity="0.467" id="id-female-6.6_base_6-47">
</polygon>
<polygon points="123 58 176 23 186 17 184 1 93 1 91 22 108 55" fill="#3b1d0b" opacity="0.434" id="id-female-6.6_base_6-47">
</polygon>
</g>
<polygon points="41 844 33 856 36 895 64 915 84 911 83 903 71 898 72 892 63 884 52 849" fill="url(#id-female-6.6_base_6-5)" id="id-female-6.6_base_6-47">
</polygon>
<polygon points="315 152 285 173 320 188 357 166" fill="#fbc799" id="id-female-6.6_base_6-67">
</polygon>
<polygon points="327 150 370 130 342 127" fill="#d99c66" id="id-female-6.6_base_6-68">
</polygon>
<polygon points="301 142 303 148 243 131 240 119 276 119" fill="#d89462" id="id-female-6.6_base_6-69">
</polygon>
<polygon points="159 149 206 123 269 123 303 144 297 118 188 113 157 123 121 139" fill="url(#id-female-6.6_base_6-6)" id="id-female-6.6_base_6-47">
</polygon>
<polygon points="157 123 121 139 153 167 196 134" fill="#eeb898" id="id-female-6.6_base_6-47">
</polygon>
<polygon points="89 584 77 541 62 551 45 658 34 712 25 741 25 762 10 817 0 845 14 870 25 901 58 919 72 919 69 913 61 905 50 899 37 874 37 852 43 845 52 855 50 887 56 901 64 905 66 901 66 882 72 836 72 800 69 781 64 773 66 735 85 684 121 599 162 510" fill="url(#id-female-6.6_base_6-7)" id="id-female-6.6_base_6-47">
</polygon>
<polygon points="89 584 77 541 62 551 45 658 48 715 121 599 162 510" fill="#d58d5d" id="id-female-6.6_base_6-47">
</polygon>
<polygon points="55 843 45 827 37 848 17 852 8 836 5 851 0 845 14 870 25 901 58 919 72 919 69 913 61 905 50 899 37 874 37 852 43 845 52 855 50 887 56 901 64 905 66 901 66 882 72 836" fill="#d18653" id="id-female-6.6_base_6-47">
</polygon>
<polygon points="53 882 52 892 56 901 64 905 66 901 66 882 67 876" fill="#c07847" id="id-female-6.6_base_6-47">
</polygon>
<polygon points="25 901 58 919 72 919 62 909 37 895" fill="#c07847" id="id-female-6.6_base_6-47">
</polygon>
<polygon points="160 467 145 488 108 578 45 777 48 797 64 773 66 735 85 684 121 599 162 510" fill="#ac6130" id="id-female-6.6_base_6-47">
</polygon>
<polygon points="169 1211 277 1211 282 1183 281 1150 284 1127 286 1114 285 1063 293 972 306 866 311 792 309 768 323 771 337 768 333 817 333 855 339 924 346 1008 348 1113 351 1130 353 1176 361 1211 461 1211 458 1191 456 1170 460 1133 461 1082 505 905 516 839 518 826 512 762 503 706 486 648 482 629 386 690 318 718 266 690 184 629 153 637 132 731 119 781 118 813 123 862 131 916 166 1094 176 1179" fill="url(#id-female-6.6_base_6-8)" id="id-female-6.6_base_6-47">
</polygon>
<polygon points="463 664 416 771 400 819 392 1125 359 1178 398 1204 441 1153 461 1082 505 905 516 839 518 826 515 789 490 714" fill="url(#id-female-6.6_base_6-9)" id="id-female-6.6_base_6-47">
</polygon>
<polygon points="422 1160 395 1199 365 1171 401 1149 384 1120 391 983 411 786 416 771 448 697 454 1013 445 1116 407 1149" fill="url(#id-female-6.6_base_6-10)" id="id-female-6.6_base_6-80">
</polygon>
<polygon points="121 139 111 186 108 221 109 290 96 438 89 464 69 510 89 585 162 510 167 425 162 241" fill="url(#id-female-6.6_base_6-11)" id="id-female-6.6_base_6-47">
</polygon>
<polygon points="101 466 103 488 106 510 160 447 179 359 164 232 187 184 186 179 132 181 161 234 161 321 149 376 151 384 123 461 114 466" fill="url(#id-female-6.6_base_6-12)" id="id-female-6.6_base_6-82">
</polygon>
<polygon points="96 438 89 464 69 510 51 621 101 520 96 476" fill="#ffb988" id="id-female-6.6_base_6-47">
</polygon>
<polygon points="96 451 128 365 134 316 121 139 111 186 108 221 109 290 96 438" fill="#c57e4b" id="id-female-6.6_base_6-47">
</polygon>
<polygon points="184 241 177 248 162 225 138 289 161 321 170 375 161 420 151 411 162 510 167 425 188 343" fill="url(#id-female-6.6_base_6-13)" id="id-female-6.6_base_6-47">
</polygon>
<polygon points="284 1127 286 1114 285 1063 293 972 306 866 311 792 309 768 323 771 337 768 333 817 333 855 339 924 346 1008 375 889 416 771 463 664 490 714 515 790 512 762 503 706 486 648 477 599 471 583 420 650 316 720 201 654 244 742 264 824 275 994" fill="url(#id-female-6.6_base_6-14)" id="id-female-6.6_base_6-47">
</polygon>
<polygon points="298 930 306 866 311 792 309 768 323 771 337 768 333 817 333 855 336 894 347 826 360 784 378 733 388 687 321 739 254 687 267 736 291 821" fill="url(#id-female-6.6_base_6-15)" id="id-female-6.6_base_6-47">
</polygon>
<polygon points="348 1093 348 1113 351 1130 353 1176 361 1211 461 1211 439 1155 422 1136 403 1148 429 1168 400 1202 370 1170 382 1125" fill="url(#id-female-6.6_base_6-16)" id="id-female-6.6_base_6-47">
</polygon>
<polygon points="10 855 8 836 5 851 0 845 14 870" fill="#af5f3e" id="id-female-6.6_base_6-47">
</polygon>
<polygon points="520 500 516 520 544 629 474 500 490 399" fill="url(#id-female-6.6_base_6-17)" id="id-female-6.6_base_6-90">
</polygon>
<polygon points="461 1211 458 1191 456 1170 460 1133 461 1082 439 1155 450 1211" fill="url(#id-female-6.6_base_6-18)" id="id-female-6.6_base_6-47">
</polygon>
<polygon points="220 1149 259 1115 240 1063 232 973 266 819 240 713 201 661 158 650 201 784 183 925 170 1083" fill="url(#id-female-6.6_base_6-19)" id="id-female-6.6_base_6-92">
</polygon>
<polygon points="169 1211 277 1211 282 1183 281 1150 284 1127 286 1114 286 1098 226 1211 207 1211 196 1121 173 1078 150 1014 166 1094 176 1179" fill="url(#id-female-6.6_base_6-20)" id="id-female-6.6_base_6-47">
</polygon>
<polygon points="173 1078 183 924 150 1014" fill="#c57442" id="id-female-6.6_base_6-47">
</polygon>
<polygon points="169 1211 239 1211 230 1196 204 1175 173 1150 176 1179" fill="#8e512e" opacity="0.574" id="id-female-6.6_base_6-47">
</polygon>
<polygon points="221 1130 240 1097 224 1063 224 983 240 804 217 698 190 668 212 771 212 910 190 998 181 1094" fill="url(#id-female-6.6_base_6-21)" id="id-female-6.6_base_6-92">
</polygon>
<polygon points="217 795 221 692 200 667 169 658 200 737" fill="#f0a76b" id="id-female-6.6_base_6-97">
</polygon>
<polygon points="511 476 492 419 481 447 484 356 521 274 533 417" fill="url(#id-female-6.6_base_6-22)" id="id-female-6.6_base_6-98">
</polygon>
<polygon points="569 523 544 425 542 346 537 282 539 246 535 195 529 158 522 137 494 161 419 158 471 211 516 290 525 411 511 477 518 507 535 462 562 543" fill="url(#id-female-6.6_base_6-23)" id="id-female-6.6_base_6-47">
</polygon>
<polygon points="486 389 533 243 501 167 464 207 451 247 463 265" fill="url(#id-female-6.6_base_6-24)" id="id-female-6.6_base_6-100">
</polygon>
<polygon points="473 490 474 506 503 589 537 672 556 728 561 754 567 712 543 623" fill="#ad6139" id="id-female-6.6_base_6-47">
</polygon>
<polygon points="460 328 466 378 474 506 490 425 486 392 469 274 479 230 461 260 454 251" fill="url(#id-female-6.6_base_6-25)" id="id-female-6.6_base_6-47">
</polygon>
<polygon points="440 504 437 490 439 460 449 402 456 340 458 328 325 282 188 343 198 411 202 493 162 596 157 621 161 633 169 599 173 570 204 506 202 458 217 402 286 365 321 352 353 360 422 402 431 493 437 520" fill="url(#id-female-6.6_base_6-26)" id="id-female-6.6_base_6-47">
</polygon>
<polygon points="451 385 456 340 458 328 364 340 330 308 268 343 188 343 194 379 262 368 312 343 335 340 381 368" fill="url(#id-female-6.6_base_6-27)" id="id-female-6.6_base_6-47">
</polygon>
<polygon points="286 328 306 310 330 274 453 252 464 205 421 156 317 204 219 165 210 154 188 180" fill="url(#id-female-6.6_base_6-28)" id="id-female-6.6_base_6-105">
</polygon>
<path d="M 422 195 L 405 190 C 377 190 357 198 343 214 C 329 230 322 250 323 276 C 324 301 331 320 345 333 C 365 351 384 356 405 356 C 425 356 444 347 450 342 C 454 339 457 335 460 328 C 463 323 466 317 467 308 C 469 294 466 276 457 254 L 422 195 Z" fill="url(#id-female-6.6_base_6-29)" id="id-female-6.6_base_6-106">
</path>
<path d="M 422 195 L 417 175 C 386 188 366 196 358 201 C 355 203 351 206 348 208 C 348 209 381 253 448 342 C 454 338 459 332 463 324 C 469 310 469 301 469 293 C 469 287 465 275 459 257 L 422 195 Z" fill="url(#id-female-6.6_base_6-30)" id="id-female-6.6_base_6-106">
</path>
<path d="M 375 226 C 338 253 343 276 343 284 C 343 291 353 319 371 335 C 379 342 422 349 447 331 C 468 316 472 294 458 265 C 427 221 400 208 375 226 Z" fill="url(#id-female-6.6_base_6-31)" opacity="0.282" id="id-female-6.6_base_6-106">
</path>
<path d="M 272 205 C 260 199 243 200 221 209 C 187 227 169 258 168 303 C 167 319 184 342 190 346 C 197 351 212 356 239 353 C 257 351 272 344 284 333 C 303 312 312 288 309 260 C 305 217 291 214 272 205 Z" fill="url(#id-female-6.6_base_6-32)" id="id-female-6.6_base_6-109">
</path>
<path d="M 340 285 C 333 252 328 240 326 248 C 324 254 323 263 323 276 C 324 301 331 320 345 333 C 365 351 382 356 404 356 C 425 356 444 347 450 342 C 456 337 465 325 468 308 C 472 290 465 276 463 268 C 461 263 460 259 458 255 L 442 290 L 399 304 L 366 300 L 340 285 Z" fill="url(#id-female-6.6_base_6-33)" id="id-female-6.6_base_6-106">
</path>
<path d="M 153 637 L 149 654 L 132 731 L 130 739 C 133 730 135 723 137 718 C 140 709 147 691 149 680 C 151 671 155 655 161 633 L 172 570 L 162 596 L 153 637 Z" fill="#7d362e" id="id-female-6.6_base_6-47">
</path>
<path d="M 259 203 C 254 199 240 185 217 163 L 210 153 L 186 180 C 192 211 192 231 186 239 C 175 256 168 277 168 303 C 168 324 190 352 239 344 C 252 342 274 217 259 203 Z" fill="#e3a87c" id="id-female-6.6_base_6-109">
</path>
<polygon points="175 565 203 550 234 558 241 520 203 455 203 507" fill="#a95e2e" id="id-female-6.6_base_6-113">
</polygon>
<polygon points="241 442 241 518 229 556 233 629 266 657 316 707 381 659 395 629 364 504 350 504 301 380" fill="url(#id-female-6.6_base_6-34)" id="id-female-6.6_base_6-114">
</polygon>
<polygon points="432 626 427 589 407 518 414 505 450 568 470 618" fill="url(#id-female-6.6_base_6-35)" id="id-female-6.6_base_6-115">
</polygon>
<polygon points="302 376 254 442 254 546 302 590 364 568 364 504 350 504 376 454 345 400" fill="url(#id-female-6.6_base_6-36)" id="id-female-6.6_base_6-114">
</polygon>
<polygon points="317 480 342 436 319 413 300 447" fill="#e6b183" id="id-female-6.6_base_6-117">
</polygon>
<polygon points="304 541 318 507 329 541 314 549" fill="#ba703e" id="id-female-6.6_base_6-118">
</polygon>
<polygon points="306 543 316 578 329 541" fill="#d4925e" id="id-female-6.6_base_6-119">
</polygon>
<path d="M 178 333 C 179 334 180 336 182 338 C 184 342 186 343 189 346 C 190 347 197 351 206 353 C 215 354 226 355 239 353 C 257 351 272 344 284 333 C 293 322 299 313 302 305 C 304 301 307 293 309 277 C 310 274 310 268 309 260 L 228 277 L 207 295 L 178 333 Z" fill="url(#id-female-6.6_base_6-37)" id="id-female-6.6_base_6-109">
</path>
<polygon points="306 543 308 550 324 556 329 541" fill="#e6b183" id="id-female-6.6_base_6-119">
</polygon>
<polygon points="308 543 318 525 323 542 314 548" fill="#8f4427" id="id-female-6.6_base_6-122">
</polygon>
<polygon points="152 641 162 596 176 561 185 617 214 602 246 628 323 690 404 628 423 605 454 605 470 577 477 599 482 629 388 689 337 768 323 771 309 768 259 688 175 639 142 688" fill="url(#id-female-6.6_base_6-38)" opacity="0.442" id="id-female-6.6_base_6-123">
</polygon>
<polygon points="490 154 522 137 484 118 412 123" fill="url(#id-female-6.6_base_6-39)" id="id-female-6.6_base_6-47">
</polygon>
<polygon points="573 785 588 829 602 858 607 852 600 821 597 716 576 763" fill="#e19271" id="id-female-6.6_base_6-47">
</polygon>
<polygon points="574 722 589 695 582 655 533 542" fill="url(#id-female-6.6_base_6-40)" id="id-female-6.6_base_6-47">
</polygon>
<polygon points="172 640 241 690 309 768 323 771 338 768 395 706 469 661 404 650 313 706 217 629" fill="url(#id-female-6.6_base_6-41)" opacity="0.571" id="id-female-6.6_base_6-127">
</polygon>
<g transform="translate(188,270)" id="id-female-6.6_base_6-128">
<polygon points="207 13 207 10 217 2 220 2 239 21 258 39 260 42 250 51 246 52 226 33" fill="url(#id-female-6.6_base_6-42)" id="id-female-6.6_base_6-129">
</polygon>
<polygon points="208 40 218 50 222 50 240 33 257 13 257 9 247 0 244 1 230 19 209 36" fill="url(#id-female-6.6_base_6-43)" id="id-female-6.6_base_6-130">
</polygon>
<polygon points="1 13 1 10 10 2 15 2 32 21 50 39 52 42 42 52 38 52 19 33" fill="url(#id-female-6.6_base_6-44)" id="id-female-6.6_base_6-129">
</polygon>
<polygon points="0 43 10 53 14 53 33 35 50 15 50 11 40 3 36 4 19 23 1 39" fill="url(#id-female-6.6_base_6-45)" id="id-female-6.6_base_6-130">
</polygon>
</g>
</g>
<defs>
<linearGradient x1="69%" y1="0%" x2="69%" y2="21%" id="id-female-6.8_face_6-0">
<stop stop-color="#bb95af" offset="0%">
</stop>
<stop stop-color="#a56846" offset="100%">
</stop>
</linearGradient>
<radialGradient cx="50%" cy="61%" r="61%" id="id-female-6.8_face_6-1" fx="50%" fy="61%" gradientTransform="translate(0.5,0.609) scale(1,0.694) rotate(180) scale(1,1) translate(-0.5,-0.609)">
<stop stop-color="#d69e7b" offset="0%">
</stop>
<stop stop-color="#bf8763" offset="100%">
</stop>
</radialGradient>
<radialGradient cx="50%" cy="74%" r="74%" id="id-female-6.8_face_6-2" fx="50%" fy="74%" gradientTransform="translate(0.5,0.744) scale(0.748,1) rotate(-90) scale(1,0.864) translate(-0.5,-0.744)">
<stop stop-color="#deb99d" offset="0%">
</stop>
<stop stop-color="#89522f" offset="100%">
</stop>
</radialGradient>
<linearGradient x1="39%" y1="37%" x2="50%" y2="61%" id="id-female-6.8_face_6-3">
<stop stop-color="#cd926d" offset="0%">
</stop>
<stop stop-color="#c28864" offset="100%">
</stop>
</linearGradient>
<radialGradient cx="50%" cy="37%" r="75%" id="id-female-6.8_face_6-4" fx="50%" fy="37%" gradientTransform="translate(0.5,0.372) scale(0.536,1) rotate(90) scale(1,2) translate(-0.5,-0.372)">
<stop stop-color="#e5a88a" offset="0%">
</stop>
<stop stop-color="#c18662" offset="100%">
</stop>
</radialGradient>
<radialGradient cx="52%" cy="68%" r="169%" id="id-female-6.8_face_6-5" fx="52%" fy="68%" gradientTransform="translate(0.522,0.681) scale(1,0.367) rotate(-105) translate(-0.522,-0.681)">
<stop stop-color="#a77870" offset="0%">
</stop>
<stop stop-color="#9d6039" offset="100%">
</stop>
</radialGradient>
<linearGradient x1="100%" y1="63%" x2="50%" y2="63%" id="id-female-6.8_face_6-6">
<stop stop-color="#613821" offset="0%">
</stop>
<stop stop-color="#ac704e" offset="100%">
</stop>
</linearGradient>
<linearGradient x1="91%" y1="62%" x2="50%" y2="78%" id="id-female-6.8_face_6-7">
<stop stop-color="#8b532c" offset="0%">
</stop>
<stop stop-color="#a46a47" offset="100%">
</stop>
</linearGradient>
<linearGradient x1="39%" y1="5%" x2="39%" y2="73%" id="id-female-6.8_face_6-8">
<stop stop-color="#9f6a88" offset="0%">
</stop>
<stop stop-color="#ab8495" offset="100%">
</stop>
</linearGradient>
<linearGradient x1="38%" y1="50%" x2="38%" y2="58%" id="id-female-6.8_face_6-9">
<stop stop-color="#d2aea4" offset="0%">
</stop>
<stop stop-color="#996343" offset="100%">
</stop>
</linearGradient>
<linearGradient x1="28%" y1="92%" x2="75%" y2="13%" id="id-female-6.8_face_6-10">
<stop stop-color="#b88261" offset="0%">
</stop>
<stop stop-color="#b88260" offset="100%">
</stop>
</linearGradient>
<linearGradient x1="64%" y1="50%" x2="0%" y2="68%" id="id-female-6.8_face_6-11">
<stop stop-color="#9c6849" offset="0%">
</stop>
<stop stop-color="#c18a67" offset="100%">
</stop>
</linearGradient>
<linearGradient x1="38%" y1="38%" x2="90%" y2="78%" id="id-female-6.8_face_6-12">
<stop stop-color="#8e5b3d" offset="0%">
</stop>
<stop stop-color="#976445" offset="66%">
</stop>
<stop stop-color="#b6805f" offset="100%">
</stop>
</linearGradient>
<linearGradient x1="22%" y1="54%" x2="78%" y2="45%" id="id-female-6.8_face_6-13">
<stop stop-color="#b68663" offset="0%">
</stop>
<stop stop-color="#7b482a" offset="100%">
</stop>
</linearGradient>
<linearGradient x1="23%" y1="50%" x2="73%" y2="59%" id="id-female-6.8_face_6-14">
<stop stop-color="#a77455" offset="0%">
</stop>
<stop stop-color="#86583f" offset="100%">
</stop>
</linearGradient>
<linearGradient x1="50%" y1="14%" x2="50%" y2="125%" id="id-female-6.8_face_6-15">
<stop stop-color="#a66e4d" offset="0%">
</stop>
<stop stop-color="#905938" offset="100%">
</stop>
</linearGradient>
<linearGradient x1="50%" y1="0%" x2="50%" y2="100%" id="id-female-6.8_face_6-16">
<stop stop-color="#a66e4d" offset="0%">
</stop>
<stop stop-color="#cc9775" offset="100%">
</stop>
</linearGradient>
<linearGradient x1="50%" y1="34%" x2="50%" y2="100%" id="id-female-6.8_face_6-17">
<stop stop-color="#b47851" offset="0%">
</stop>
<stop stop-color="#b57d5d" offset="100%">
</stop>
</linearGradient>
<linearGradient x1="0%" y1="50%" x2="87%" y2="50%" id="id-female-6.8_face_6-18">
<stop stop-color="#d89a72" offset="0%">
</stop>
<stop stop-color="#ebc09e" offset="50%">
</stop>
<stop stop-color="#d89a72" offset="100%">
</stop>
</linearGradient>
<linearGradient x1="83%" y1="50%" x2="22%" y2="58%" id="id-female-6.8_face_6-19">
<stop stop-color="#b9785b" offset="0%">
</stop>
<stop stop-color="#a7644e" offset="100%">
</stop>
</linearGradient>
<linearGradient x1="59%" y1="52%" x2="79%" y2="50%" id="id-female-6.8_face_6-20">
<stop stop-color="#a46d4d" offset="0%">
</stop>
<stop stop-color="#6e4331" offset="100%">
</stop>
</linearGradient>
<linearGradient x1="66%" y1="52%" x2="50%" y2="53%" id="id-female-6.8_face_6-21">
<stop stop-color="#945a3d" offset="0%">
</stop>
<stop stop-color="#885034" offset="100%">
</stop>
</linearGradient>
<linearGradient x1="50%" y1="56%" x2="44%" y2="48%" id="id-female-6.8_face_6-22">
<stop stop-color="#923f20" offset="0%">
</stop>
<stop stop-color="#472214" offset="100%">
</stop>
</linearGradient>
<linearGradient x1="50%" y1="62%" x2="44%" y2="45%" id="id-female-6.8_face_6-23">
<stop stop-color="#923f20" offset="0%">
</stop>
<stop stop-color="#472214" offset="100%">
</stop>
</linearGradient>
<linearGradient x1="106%" y1="53%" x2="76%" y2="50%" id="id-female-6.8_face_6-24">
<stop stop-color="#c06f5a" offset="0%">
</stop>
<stop stop-color="#401f21" offset="100%">
</stop>
</linearGradient>
<linearGradient x1="-8%" y1="55%" x2="25%" y2="53%" id="id-female-6.8_face_6-25">
<stop stop-color="#c06e59" offset="0%">
</stop>
<stop stop-color="#4c2426" offset="100%">
</stop>
</linearGradient>
<linearGradient x1="50%" y1="20%" x2="50%" y2="100%" id="id-female-6.8_face_6-26">
<stop stop-color="#a95357" offset="0%">
</stop>
<stop stop-color="#9c4a4c" offset="100%">
</stop>
</linearGradient>
</defs>
<g transform="translate(561,332)" id="id-female-6.8_face_6-27">
<g transform="translate(172,115)" id="id-female-6.8_face_6-28">
<polygon points="14 1 18 0 25 8 27 21 24 41 14 66 0 68" fill="url(#id-female-6.8_face_6-0)" id="id-female-6.8_face_6-29">
</polygon>
<polygon points="12 48 19 50 23 42 26 24 20 12 12 22" fill="#9d5d3d" id="id-female-6.8_face_6-30">
</polygon>
<polygon points="11 21 17 10 20 5 24 7 26 24 20 36 18 31 20 16 9 29" fill="#713215" id="id-female-6.8_face_6-31">
</polygon>
<polygon points="10 28 11 38 8 45 13 49 19 38 13 24" fill="#713215" id="id-female-6.8_face_6-32">
</polygon>
<polygon points="12 18 17 17 18 9" fill="#5e1c1d" id="id-female-6.8_face_6-33">
</polygon>
<polygon points="18 50 10 51 8 50 5 61 12 63 14 61" fill="#be8864" id="id-female-6.8_face_6-34">
</polygon>
</g>
<g transform="translate(0,113)" id="id-female-6.8_face_6-35">
<polygon points="13 0 5 0 0 13 4 36 13 63 25 67" fill="#77391d" id="id-female-6.8_face_6-36">
</polygon>
<polygon points="5 9 0 13 4 36 13 63 25 67 13 24" fill="#8a492b" id="id-female-6.8_face_6-36">
</polygon>
<polygon points="18 46 14 47 7 32 11 26 4 9 6 5 16 20 17 29" fill="#b27651" id="id-female-6.8_face_6-38">
</polygon>
<polygon points="13 62 20 62 18 49 11 53" fill="#b27651" id="id-female-6.8_face_6-39">
</polygon>
<polygon points="25 68 13 63 20 62 17 46 14 47 13 44 14 29 17 26 14 22 10 19 10 11 17 20" fill="#492111" id="id-female-6.8_face_6-40">
</polygon>
<polygon points="13 9 4 3 5 0 12 0" fill="#bb805d" id="id-female-6.8_face_6-41">
</polygon>
</g>
<path d="M 29 199 C 21 167 16 144 15 130 C 4 44 33 0 103 0 C 180 0 191 63 186 119 C 183 157 173 191 170 202 C 169 206 168 214 164 217 C 152 228 130 244 113 250 C 108 252 95 251 92 251 C 77 247 52 234 36 218 C 34 215 31 209 29 199 Z" fill="url(#id-female-6.8_face_6-1)" id="id-female-6.8_face_6-42">
</path>
<polygon points="32 104 40 91 49 101 72 91 83 36 53 39 28 83" fill="#deb99d" opacity="0.497" id="id-female-6.8_face_6-43">
</polygon>
<path d="M 15 130 C 4 44 33 0 103 0 C 180 0 191 63 186 119 L 166 114 L 161 101 L 167 68 C 159 55 158 51 147 43 C 142 40 113 40 59 43 L 31 93 L 35 103 L 24 131 L 15 130 Z" fill="url(#id-female-6.8_face_6-2)" id="id-female-6.8_face_6-42">
</path>
<polygon points="28 117 28 73 69 24 134 24 172 49 172 134 132 129 124 78 141 61 105 65 61 58 45 117" fill="#b3754b" opacity="0.36" id="id-female-6.8_face_6-45">
</polygon>
<polygon points="115 32 172 49 172 75 132 70 141 61 120 63" fill="#d99f71" opacity="0.503" id="id-female-6.8_face_6-45">
</polygon>
<polygon points="42 181 65 170 128 173 155 186 137 233 51 226" fill="url(#id-female-6.8_face_6-3)" id="id-female-6.8_face_6-47">
</polygon>
<polygon points="58 235 52 221 61 204 132 206 137 209 130 235 116 248 90 249" fill="url(#id-female-6.8_face_6-4)" id="id-female-6.8_face_6-48">
</polygon>
<path d="M 29 199 C 21 167 16 144 15 130 C 14 122 13 114 13 106 L 22 129 L 29 113 L 43 137 L 24 149 L 24 156 L 43 181 L 59 232 C 54 234 46 229 36 218 C 34 215 31 209 29 199 Z" fill="url(#id-female-6.8_face_6-5)" id="id-female-6.8_face_6-42">
</path>
<path d="M 59 232 C 71 240 82 245 90 246 C 98 248 109 248 121 245 C 117 248 115 249 113 250 C 108 252 95 251 92 251 C 77 247 52 234 36 218 C 34 216 32 211 30 204 C 36 212 46 222 59 232 Z" fill="#894339" id="id-female-6.8_face_6-42">
</path>
<path d="M 184 63 C 187 81 188 100 186 119 C 183 157 173 191 170 202 C 169 206 168 214 164 217 C 152 228 130 244 113 250 L 137 226 L 152 184 L 174 150 L 148 128 L 170 120 L 184 63 Z" fill="url(#id-female-6.8_face_6-6)" id="id-female-6.8_face_6-42">
</path>
<polygon points="178 153 148 128 176 117" fill="url(#id-female-6.8_face_6-7)" id="id-female-6.8_face_6-42">
</polygon>
<path d="M 175 80 L 185 120 C 173 183 166 215 164 217 C 160 220 155 224 150 229 L 158 217 L 178 153 L 175 117 L 170 125 L 165 114 L 175 80 Z" fill="url(#id-female-6.8_face_6-8)" id="id-female-6.8_face_6-42">
</path>
<polygon points="82 232 88 225 112 224 114 238 88 241" fill="#e5a98a" id="id-female-6.8_face_6-54">
</polygon>
<polygon points="61 204 65 171 96 163 129 174 133 206" fill="#c38561" id="id-female-6.8_face_6-55">
</polygon>
<polygon points="81 217 88 225 112 225 123 216 97 216" fill="#7d4632" id="id-female-6.8_face_6-56">
</polygon>
<polygon points="66 205 81 220 122 219 130 214 134 206" fill="#b17d5d" id="id-female-6.8_face_6-57">
</polygon>
<path d="M 128 176 L 125 167 L 116 159 L 83 155 C 79 156 76 155 74 153 C 73 151 72 146 72 140 L 62 143 C 65 145 67 147 70 150 C 73 153 76 157 79 161 L 69 177 L 81 180 L 119 176 L 128 176 Z" fill="url(#id-female-6.8_face_6-9)" id="id-female-6.8_face_6-58">
</path>
<polygon points="31 164 67 170 43 181" fill="#d2aea4" id="id-female-6.8_face_6-59">
</polygon>
<polygon points="91 193 95 177 102 179 101 196" fill="#dfa483" id="id-female-6.8_face_6-60">
</polygon>
<polygon points="102 179 101 197 112 196 106 175" fill="#cd9271" id="id-female-6.8_face_6-61">
</polygon>
<polygon points="153 141 129 161 118 136 144 145" fill="#e2a37c" id="id-female-6.8_face_6-62">
</polygon>
<polygon points="138 153 159 136 166 143 147 164" fill="url(#id-female-6.8_face_6-10)" id="id-female-6.8_face_6-62">
</polygon>
<polygon points="87 193 91 191 101 193 110 189 112 193 100 198" fill="#eabd9c" id="id-female-6.8_face_6-64">
</polygon>
<polygon points="34 132 26 124 32 107 50 99 69 108" fill="url(#id-female-6.8_face_6-11)" id="id-female-6.8_face_6-65">
</polygon>
<polygon points="153 130 134 111 145 101 159 101 167 111 171 123 166 132" fill="url(#id-female-6.8_face_6-12)" id="id-female-6.8_face_6-66">
</polygon>
<g transform="translate(42,102)" id="id-female-6.8_face_6-67">
<path d="M 73 31 C 80 24 87 20 94 19 C 101 19 109 21 118 26 L 113 21 L 101 9 L 108 3 L 73 7 L 67 30 L 73 31 Z" fill="url(#id-female-6.8_face_6-13)" id="id-female-6.8_face_6-68">
</path>
<path d="M 1 22 L 6 16 L 18 7 L 8 2 L 36 5 L 46 31 C 37 24 29 20 22 19 C 15 17 8 18 1 22 Z" fill="url(#id-female-6.8_face_6-14)" id="id-female-6.8_face_6-69">
</path>
<polygon points="63 0 79 9 71 30 42 26 32 8" fill="url(#id-female-6.8_face_6-15)" id="id-female-6.8_face_6-70">
</polygon>
<polygon points="63 0 78 8 55 28 43 26 48 15 40 6" fill="#bf845c" id="id-female-6.8_face_6-70">
</polygon>
<path d="M 34 69 C 35 67 35 65 36 64 C 37 61 40 57 43 53 L 44 35 L 51 24 L 64 24 L 75 32 L 75 35 L 71 34 L 71 54 C 75 58 77 60 78 62 C 79 64 79 66 80 69 L 34 69 Z" fill="url(#id-female-6.8_face_6-16)" id="id-female-6.8_face_6-72">
</path>
<path d="M 34 69 C 35 67 35 65 36 64 C 38 59 42 56 42 53 L 44 69 L 34 69 Z" fill="url(#id-female-6.8_face_6-17)" id="id-female-6.8_face_6-72">
</path>
<polygon points="44 35 36 24 51 25" fill="#905938" id="id-female-6.8_face_6-74">
</polygon>
<polygon points="51 25 53 49 48 68 57 71 69 67 61 49 64 25" fill="url(#id-female-6.8_face_6-18)" id="id-female-6.8_face_6-75">
</polygon>
<polygon points="35 71 38 79 51 79 60 84 69 79 75 78 79 73 80 71 57 72" fill="#672f24" opacity="0.696" id="id-female-6.8_face_6-76">
</polygon>
<path d="M 45 77 C 38 76 35 73 34 69 C 36 67 38 65 39 65 C 40 65 43 66 49 69 L 66 69 L 70 66 L 75 63 L 80 68 L 80 71 C 78 74 76 76 73 76 C 72 77 70 75 69 75 C 67 75 66 76 62 77 C 59 78 56 77 51 77 C 51 77 46 77 45 77 Z" fill="url(#id-female-6.8_face_6-19)" id="id-female-6.8_face_6-77">
</path>
<path d="M 48 77 C 42 75 41 73 43 73 C 46 73 50 74 55 77 L 48 77 Z" fill="#3d1811" id="id-female-6.8_face_6-78">
</path>
<path d="M 62 77 C 65 74 68 73 70 72 C 72 72 73 73 72 76 L 62 77 Z" fill="#3d1811" id="id-female-6.8_face_6-79">
</path>
<polygon points="47 64 53 69 63 63" transform="translate(55,66) rotate(-177) translate(-55,-66)" fill="#fbeaf6" id="id-female-6.8_face_6-80">
</polygon>
<polygon points="51 24 55 16 64 25" fill="#ebc09e" id="id-female-6.8_face_6-81">
</polygon>
</g>
<g transform="translate(25,117)" id="id-female-6.8_face_6-82">
<path d="M 9 13 C 17 5 24 0 32 0 C 39 0 46 6 52 17 L 9 13 Z" fill="#583b28" id="id-female-6.8_face_6-83">
</path>
<path d="M 34 8 C 25 3 24 0 32 0 C 39 0 46 6 52 17 L 34 8 Z" fill="#704e3a" id="id-female-6.8_face_6-83">
</path>
<path d="M 92 20 C 92 10 98 4 109 2 C 119 0 128 4 135 13 L 92 20 Z" fill="#734e38" id="id-female-6.8_face_6-85">
</path>
<path d="M 106 13 C 105 6 106 2 110 1 C 114 1 118 3 121 8 L 106 13 Z" fill="#aa7f71" id="id-female-6.8_face_6-85">
</path>
<path d="M 97 23 C 109 28 118 29 123 28 C 125 28 130 26 137 23 L 136 18 C 128 21 122 23 118 23 C 111 24 103 21 97 23 Z" fill="url(#id-female-6.8_face_6-20)" id="id-female-6.8_face_6-87">
</path>
<path d="M 10 24 C 19 28 26 29 32 28 C 38 27 46 24 54 20 L 50 18 C 43 21 37 23 32 23 C 28 23 23 21 18 20 L 10 24 Z" fill="url(#id-female-6.8_face_6-21)" id="id-female-6.8_face_6-88">
</path>
<path d="M 10 24 C 16 26 19 27 22 28 C 22 23 32 23 35 23 C 27 23 22 21 18 19 L 10 24 Z" fill="#6e4331" id="id-female-6.8_face_6-88">
</path>
<path d="M 37 22 C 40 21 45 20 51 18 C 45 11 39 7 34 7 C 28 7 22 11 16 18 C 26 21 33 22 37 22 Z" fill="#e6d4c6" id="id-female-6.8_face_6-90">
</path>
<path d="M 98 20 C 107 22 113 23 117 22 C 122 21 126 20 130 17 L 117 7 L 107 9 L 100 15 L 98 20 Z" fill="#e6d4c6" id="id-female-6.8_face_6-91">
</path>
<path d="M 98 20 C 99 21 101 21 101 21 C 103 15 107 12 112 12 C 116 11 122 14 128 20 C 129 19 130 18 131 17 C 127 11 122 8 117 7 C 112 7 106 9 100 15 L 98 20 Z" fill="#000000" opacity="0.297" id="id-female-6.8_face_6-91">
</path>
<path d="M 95 20 L 101 21 C 100 21 99 20 100 19 C 100 18 101 17 102 15 L 95 20 Z" fill="#b26261" id="id-female-6.8_face_6-93">
</path>
<path d="M 25 13 C 25 19 28 22 33 21 C 39 21 42 18 42 12 C 40 9 37 7 32 7 C 28 7 26 9 25 13 Z" fill="#250a10" id="id-female-6.8_face_6-94">
</path>
<path d="M 30 16 L 26 17 C 28 20 30 21 33 21 C 37 21 40 19 41 15 C 41 15 40 15 36 15 C 36 17 35 18 34 18 C 32 18 31 17 30 16 Z" fill="url(#id-female-6.8_face_6-22)" id="id-female-6.8_face_6-94">
</path>
<path d="M 47 19 C 48 19 49 18 51 18 C 45 11 39 7 34 7 C 28 7 22 11 16 18 L 21 20 C 25 14 28 11 30 11 C 38 11 44 13 47 19 Z" fill="#000000" opacity="0.296" id="id-female-6.8_face_6-90">
</path>
<polygon points="32 15 32 14 33 14 33 12 30 12 30 15" fill="#b99794" id="id-female-6.8_face_6-97">
</polygon>
<path d="M 106 13 C 105 16 106 19 109 21 L 118 21 C 121 20 123 17 123 12 C 118 11 115 11 113 11 C 111 11 109 12 106 13 Z" fill="url(#id-female-6.8_face_6-23)" id="id-female-6.8_face_6-98">
</path>
<path d="M 106 13 C 105 16 106 19 109 21 C 108 19 107 18 107 17 C 108 17 108 17 110 16 C 110 16 110 19 113 19 C 116 19 118 17 119 15 C 120 15 121 15 122 15 C 122 17 120 19 118 21 C 122 20 123 15 123 12 C 121 9 118 7 113 7 C 109 7 106 9 106 13 Z" fill="#15050f" id="id-female-6.8_face_6-98">
</path>
<polygon points="114 13 111 14 112 16 114 16" fill="#d2b0ad" id="id-female-6.8_face_6-100">
</polygon>
<path d="M 47 14 C 47 16 47 17 47 17 C 47 18 47 19 46 19 L 51 18 L 47 14 Z" fill="#b26261" id="id-female-6.8_face_6-101">
</path>
<polygon points="47 15 52 19 54 20 53 18 48 15" fill="#26070c" id="id-female-6.8_face_6-102">
</polygon>
<path d="M 11 24 L 18 20 L 25 22 L 18 17 C 22 13 27 10 33 9 C 38 9 42 13 47 15 C 47 15 48 15 48 15 C 42 8 37 6 32 6 C 22 6 17 12 12 13 C 10 14 6 12 0 8 C 2 13 4 15 5 17 C 7 18 10 19 13 19 L 11 24 Z" fill="#26070c" id="id-female-6.8_face_6-103">
</path>
<path d="M 93 20 C 94 20 95 20 95 20 C 101 15 107 8 112 8 C 117 7 123 11 129 17 L 122 23 L 132 20 L 137 23 L 136 18 C 139 17 141 16 142 15 C 143 13 144 11 145 7 C 140 11 137 12 135 12 C 133 11 122 4 115 5 C 106 5 99 11 93 20 Z" fill="#24060d" id="id-female-6.8_face_6-104">
</path>
<polygon points="118 21 103 22 113 23" fill="#d0956f" id="id-female-6.8_face_6-105">
</polygon>
<polygon points="42 20 27 21 28 22 34 23" fill="#d0956f" id="id-female-6.8_face_6-105">
</polygon>
</g>
<g transform="translate(27,94)" id="id-female-6.8_face_6-107">
<path d="M 0 20 C 9 14 13 11 13 11 C 38 18 51 22 51 22 C 51 14 51 11 51 11 C 50 10 49 10 49 10 C 49 12 50 13 50 13 C 46 9 45 8 45 8 C 46 11 47 13 47 13 C 43 9 41 6 41 6 C 33 4 23 3 13 2 C 7 9 2 15 0 20 Z" fill="url(#id-female-6.8_face_6-24)" id="id-female-6.8_face_6-108">
</path>
<path d="M 90 22 C 88 16 87 12 87 12 C 89 11 89 10 89 10 C 90 12 90 13 90 13 C 91 10 93 8 95 8 C 94 11 93 13 93 13 L 99 6 C 108 4 119 -2 128 1 L 137 8 C 140 15 142 18 142 18 L 130 10 C 113 13 100 17 90 22 Z" fill="url(#id-female-6.8_face_6-25)" id="id-female-6.8_face_6-109">
</path>
</g>
<g transform="translate(66,192)" id="id-female-6.8_face_6-110">
<polygon points="2 14 11 20 60 19 68 14 67 14 21 6" fill="#481a12" id="id-female-6.8_face_6-111">
</polygon>
<path d="M 8 18 L 20 27 C 26 28 31 29 35 29 C 38 29 44 28 51 26 L 61 18 L 52 14 L 35 16 L 17 14 L 8 18 Z" fill="#944749" id="id-female-6.8_face_6-112">
</path>
<path d="M 20 27 C 26 28 31 29 35 29 C 38 29 44 28 51 26 C 52 23 53 21 53 19 C 53 18 53 16 52 14 L 35 16 L 17 14 C 17 17 17 19 17 20 C 17 22 18 24 20 27 Z" fill="url(#id-female-6.8_face_6-26)" id="id-female-6.8_face_6-112">
</path>
<path d="M 2 14 C 6 15 9 15 13 14 C 18 14 19 12 22 12 C 26 12 30 13 35 13 C 39 13 42 12 46 12 C 51 12 51 14 56 14 C 59 15 63 15 67 14 C 65 13 63 12 62 11 C 55 5 51 1 49 1 C 45 -1 39 3 35 3 C 30 3 30 1 24 1 C 21 1 16 5 8 10 C 7 11 5 11 2 12 L 0 13 L 2 14 Z" fill="#803d36" id="id-female-6.8_face_6-114">
</path>
<path d="M 19 11 C 27 8 33 7 35 7 C 39 7 43 11 48 11 C 57 11 63 12 63 11 C 55 5 51 1 49 1 C 45 -1 39 3 35 3 C 30 3 30 1 24 1 C 21 1 16 4 7 10 C 6 10 5 11 2 12 L 19 11 Z" fill="#8d4740" id="id-female-6.8_face_6-114">
</path>
<path d="M 19 11 C 27 8 33 7 35 7 L 35 3 C 30 3 30 1 24 1 L 19 11 Z" fill="#823537" id="id-female-6.8_face_6-114">
</path>
<path d="M 19 18 C 18 18 18 19 19 22 C 22 22 23 21 27 23 C 30 24 37 24 49 22 C 36 22 26 20 19 18 Z" fill="#df909d" id="id-female-6.8_face_6-117">
</path>
</g>
</g>
<defs>
<linearGradient x1="50%" y1="22%" x2="72%" y2="62%" id="id-female-9_strappy_underwear-0">
<stop stop-color="#10454d" offset="0%">
</stop>
<stop stop-color="#002325" offset="100%">
</stop>
</linearGradient>
</defs>
<g transform="translate(496,1113)" id="id-female-9_strappy_underwear-1">
<path d="M 9 8 C 6 15 5 19 5 19 C 53 55 76 73 76 73 C 123 164 146 209 146 209 C 155 211 159 212 159 212 C 169 210 174 209 174 209 C 218 121 240 78 240 78 C 285 34 307 12 307 12 C 306 4 305 1 305 1 L 233 69 L 88 66 L 9 8 Z" fill="#151716" id="id-female-9_strappy_underwear-2">
</path>
<path d="M 7 14 L 1 31 L 8 26 C 54 59 76 76 76 76 C 123 160 146 202 146 202 C 155 204 159 205 159 205 L 179 196 L 245 82 C 279 47 298 27 303 23 C 304 21 307 22 311 24 C 307 12 305 7 305 7 L 233 75 L 89 63 L 7 14 Z" fill="#151716" opacity="0.404" id="id-female-9_strappy_underwear-2">
</path>
<polygon points="93 80 142 178 178 178 225 81" fill="url(#id-female-9_strappy_underwear-0)" id="id-female-9_strappy_underwear-4">
</polygon>
</g>
<defs>
</defs>
<g transform="translate(367,634)" id="id-female-11_enforcer_top-0">
<path d="M 40 640 C 13 634 0 631 0 631 C 8 590 12 570 12 570 C 24 481 30 437 30 437 C 36 414 55 384 61 353 C 68 277 72 239 72 239 C 74 184 74 157 74 157 C 70 149 68 144 68 144 C 80 85 86 55 86 55 C 112 44 124 38 124 38 C 152 29 178 15 205 2 C 265 32 296 47 296 47 C 357 16 387 0 387 0 C 399 8 406 12 406 12 C 446 28 466 36 466 36 C 486 47 496 53 496 53 C 508 107 514 134 514 134 C 510 147 508 154 508 154 C 509 156 510 157 510 157 C 511 202 512 224 512 224 C 509 225 507 225 507 225 C 509 249 510 261 510 261 C 511 308 512 331 512 331 C 530 413 540 454 540 454 C 547 532 551 571 551 571 C 556 596 558 608 558 608 C 561 618 563 622 563 622 C 534 632 520 637 520 637 C 515 624 512 617 512 617 C 463 488 439 424 439 424 C 437 368 436 309 429 261 C 428 263 428 264 428 264 C 427 293 427 308 427 308 C 428 329 428 340 428 340 C 420 352 415 358 415 358 C 247 357 163 356 163 356 C 155 345 152 340 152 340 C 153 331 154 327 154 327 C 154 303 154 291 154 291 C 153 284 153 280 153 280 C 142 320 137 341 137 341 C 133 398 132 427 132 427 C 93 509 74 550 74 550 L 49 611 C 43 630 40 640 40 640 Z" fill="#000919" id="id-female-11_enforcer_top-1">
</path>
<path d="M 354 231 C 366 243 372 249 372 249 C 339 249 323 249 323 249 C 340 237 348 231 348 231 C 276 242 239 248 239 248 C 183 227 155 216 155 216 L 132 182 C 130 154 129 140 129 140 L 142 119 L 114 68 L 85 53 L 100 47 L 243 21 C 278 38 296 47 296 47 C 350 19 377 6 377 6 C 430 29 456 41 456 41 C 465 59 470 68 470 68 L 477 66 L 448 185 L 453 207 L 447 211 C 385 225 354 231 354 231 Z" fill="#1e2438" id="id-female-11_enforcer_top-2">
</path>
<path d="M 35 610 C 39 612 41 613 41 613 C 48 547 76 483 105 418 C 84 417 73 416 73 416 C 95 389 105 376 105 376 C 104 336 110 293 123 246 C 109 244 102 243 102 243 C 106 296 100 348 73 401 C 48 540 35 610 35 610 Z" fill="#191c34" id="id-female-11_enforcer_top-3">
</path>
<path d="M 72 238 C 108 243 126 245 126 245 C 133 236 136 232 136 232 C 131 171 129 140 129 140 C 138 126 143 119 143 119 L 113 67 L 85 53 L 68 144 L 75 158 C 73 211 72 238 72 238 Z" fill="#14182c" id="id-female-11_enforcer_top-4">
</path>
<path d="M 114 68 C 137 109 148 129 148 129 C 137 157 132 170 132 170 L 134 209 C 143 228 153 243 153 283 L 154 291 L 154 328 L 152 340 C 159 351 163 356 163 356 C 182 347 191 342 191 342 C 212 352 222 356 222 356 C 293 350 328 346 328 346 C 221 274 167 238 167 238 C 159 224 155 216 155 216 C 141 195 135 184 135 184 C 163 139 177 117 177 117 C 177 92 176 80 176 80 L 148 116 C 125 84 114 68 114 68 Z" fill="#1b1f31" id="id-female-11_enforcer_top-5">
</path>
<path d="M 100 47 C 134 43 151 41 151 41 C 212 28 243 21 243 21 L 205 2 C 181 14 157 24 124 36 C 108 43 100 47 100 47 Z" fill="#1b1f31" id="id-female-11_enforcer_top-6">
</path>
<path d="M 363 15 C 333 31 319 39 319 39 C 324 46 327 50 327 50 L 371 26 C 366 19 363 15 363 15 Z" fill="#262d4a" id="id-female-11_enforcer_top-7">
</path>
<path d="M 383 27 C 333 53 308 66 308 66 C 265 172 243 225 243 225 C 328 212 370 205 370 205 C 359 223 354 232 354 232 C 391 223 410 219 410 219 C 435 200 448 191 448 191 C 437 139 432 113 432 113 C 443 81 448 65 448 65 C 430 93 421 107 421 107 L 421 45 C 396 33 383 27 383 27 Z" fill="#272e4b" id="id-female-11_enforcer_top-8">
</path>
<path d="M 439 98 C 451 129 457 144 457 144 L 447 182 L 433 113 C 437 103 439 98 439 98 Z" fill="#1b1f31" id="id-female-11_enforcer_top-9">
</path>
<path d="M 458 150 C 451 172 448 183 448 183 C 450 196 452 202 452 202 L 463 178 C 460 159 458 150 458 150 Z" fill="#040514" id="id-female-11_enforcer_top-10">
</path>
<path d="M 440 238 C 454 235 461 234 461 234 L 453 207 C 444 228 440 238 440 238 Z" fill="#0c0f1e" id="id-female-11_enforcer_top-11">
</path>
<path d="M 428 264 C 405 269 394 271 394 271 L 427 307 C 428 278 428 264 428 264 Z" fill="#121726" id="id-female-11_enforcer_top-12">
</path>
<path d="M 394 271 C 380 318 373 341 373 341 L 397 358 L 428 340 L 427 307 C 405 283 394 271 394 271 Z" fill="#181d2d" id="id-female-11_enforcer_top-13">
</path>
<path d="M 457 353 C 475 367 485 374 485 374 L 491 229 L 507 225 C 510 261 510 296 512 331 L 540 454 L 551 571 L 558 608 C 561 618 563 622 563 622 C 542 629 532 633 532 633 L 525 614 C 484 450 462 363 457 353 Z" fill="#191c35" id="id-female-11_enforcer_top-14">
</path>
<path d="M 523 381 C 496 427 483 451 483 451 C 485 464 486 471 486 471 L 533 427 C 527 396 523 381 523 381 Z" fill="#516e3f" id="id-female-11_enforcer_top-15">
</path>
<path d="M 537 443 C 504 472 488 486 488 486 C 489 495 490 499 490 499 L 542 482 L 540 454 C 538 447 537 443 537 443 Z" fill="#4a6739" id="id-female-11_enforcer_top-16">
</path>
<path d="M 511 466 L 521 489 L 490 499 L 488 486 C 503 472 511 466 511 466 Z" fill="#365128" id="id-female-11_enforcer_top-17">
</path>
<path d="M 446 192 L 447 211 L 410 219 C 434 201 446 192 446 192 Z" fill="#212941" id="id-female-11_enforcer_top-18">
</path>
<path d="M 188 282 L 221 275 C 293 323 328 346 328 346 L 269 351 C 215 305 188 282 188 282 Z" fill="#15192c" id="id-female-11_enforcer_top-19">
</path>
<path d="M 496 53 C 484 62 477 66 477 66 C 473 86 470 96 470 96 C 492 114 502 124 502 124 L 511 122 L 496 53 Z" fill="#29304e" id="id-female-11_enforcer_top-20">
</path>
<path d="M 470 96 C 479 134 484 153 484 153 L 514 132 L 511 122 L 502 124 C 481 105 470 96 470 96 Z" fill="#1e2438" id="id-female-11_enforcer_top-21">
</path>
<path d="M 508 154 C 507 153 506 153 506 153 C 490 160 481 164 481 164 C 481 192 482 205 482 205 L 512 220 L 510 158 C 509 155 508 154 508 154 Z" fill="#ffffff" id="id-female-11_enforcer_top-22">
</path>
<path d="M 510 159 C 494 165 486 168 486 168 C 486 190 485 201 485 201 L 512 211 C 511 176 510 159 510 159 Z" fill="#fda602" id="id-female-11_enforcer_top-23">
</path>
<path d="M 511 170 C 497 171 490 172 490 172 C 489 186 489 194 489 194 L 511 195 C 511 178 511 170 511 170 Z" fill="#282435" id="id-female-11_enforcer_top-24">
</path>
<polygon points="239 248 354 232 447 211 453 207 428 264 394 271 208 266 166 238 155 216" fill="#181c2d" id="id-female-11_enforcer_top-25">
</polygon>
<polygon points="208 266 239 248 346 232 354 232 394 271 373 341 328 346" fill="#1e2438" id="id-female-11_enforcer_top-26">
</polygon>
<path d="M 201 146 L 198 140 L 197 140 L 195 151 M 194 154 L 189 179 L 197 179 L 200 161 L 211 180 L 212 180 L 222 162 L 225 179 L 234 179 L 226 140 L 225 140 L 212 164 L 202 148 M 251 171 C 251 170 250 170 250 170 C 249 168 248 165 248 162 L 248 142 L 239 142 L 239 163 C 239 169 240 173 243 176 C 244 177 245 178 247 178 M 250 179 C 251 180 253 180 255 180 C 260 180 264 179 267 176 C 270 173 271 168 271 163 L 271 142 L 263 142 L 263 163 C 263 166 262 168 261 170 C 260 171 258 172 255 172 C 254 172 253 172 253 171 M 286 180 C 287 180 285 184 279 192 C 289 183 295 177 295 177 C 298 174 299 171 299 168 C 299 165 298 163 297 162 C 296 160 294 158 290 156 L 286 154 C 285 153 284 153 284 152 C 283 151 283 151 283 150 C 283 149 284 149 284 148 C 285 147 286 147 287 147 C 288 147 290 147 291 148 C 293 149 294 150 296 151 L 296 142 C 294 141 293 141 291 140 C 290 140 288 140 287 140 C 283 140 281 141 278 143 C 276 145 275 147 275 150 C 275 153 276 155 277 156 C 278 158 280 160 282 161 L 285 162 C 285 163 285 163 286 163 C 289 165 291 167 291 168 C 291 169 290 170 289 171 C 288 172 287 172 286 172 C 284 172 283 172 281 171 C 279 171 278 170 275 168 L 276 178 C 278 179 280 179 281 180 C 283 180 284 180 286 180 Z M 323 180 C 325 180 327 180 328 179 C 330 179 332 178 333 177 L 334 167 C 332 168 330 170 329 170 C 327 171 325 171 323 171 C 320 171 318 170 316 168 C 314 166 313 163 313 160 C 313 157 314 154 316 152 C 318 149 320 148 323 148 C 325 148 327 149 328 150 C 330 150 331 152 333 153 L 334 144 C 332 142 330 142 329 141 C 327 140 325 140 323 140 C 322 140 324 137 329 131 C 321 138 316 141 315 142 C 313 143 311 144 309 146 C 308 148 306 150 305 152 C 304 155 304 157 304 160 C 304 163 305 166 306 169 C 307 172 309 174 311 176 C 313 177 315 178 317 179 C 319 180 321 180 323 180 Z M 364 179 L 364 171 L 349 171 L 349 142 L 340 142 L 340 179 L 364 179 Z M 391 179 L 391 171 L 376 171 L 376 164 L 389 164 L 389 156 L 376 156 L 376 150 L 391 150 L 391 142 L 381 142 L 371 152 L 376 142 L 367 142 L 367 179 L 391 179 Z" fill="#b0b3c7" id="id-female-11_enforcer_top-27" fill-rule="nonzero">
</path>
</g>
<defs>
<linearGradient x1="50%" y1="0%" x2="50%" y2="72%" id="id-female-12_enforcer_pants-0">
<stop stop-color="#303142" offset="0%">
</stop>
<stop stop-color="#11152f" offset="100%">
</stop>
</linearGradient>
<linearGradient x1="100%" y1="50%" x2="0%" y2="50%" id="id-female-12_enforcer_pants-1">
<stop stop-color="#3d415c" offset="0%">
</stop>
<stop stop-color="#313449" offset="21%" stop-opacity="0">
</stop>
<stop stop-color="#31344a" offset="73%" stop-opacity="0">
</stop>
<stop stop-color="#444864" offset="100%">
</stop>
</linearGradient>
<linearGradient x1="54%" y1="3%" x2="44%" y2="9%" id="id-female-12_enforcer_pants-2">
<stop stop-color="#1c2037" offset="0%">
</stop>
<stop stop-color="#0a0e2a" offset="100%">
</stop>
</linearGradient>
<linearGradient x1="48%" y1="0%" x2="52%" y2="90%" id="id-female-12_enforcer_pants-3">
<stop stop-color="#0a0f2b" offset="0%" stop-opacity="0">
</stop>
<stop stop-color="#0b0f2b" offset="100%">
</stop>
</linearGradient>
</defs>
<g transform="translate(448,996)" id="id-female-12_enforcer_pants-4">
<path d="M 166 768 C 92 769 55 769 55 769 C 55 746 55 734 55 734 C 52 731 47 729 50 722 C 52 716 59 712 53 704 C 54 701 44 699 52 694 C 47 655 44 635 44 635 C 28 567 16 499 5 430 C 3 406 1 381 0 356 C 1 345 3 334 4 323 C 29 214 42 160 42 160 C 56 122 63 103 63 103 C 63 97 62 94 62 94 C 70 82 74 76 74 76 C 74 64 74 58 74 58 C 79 55 81 54 81 54 C 81 27 81 9 82 0 C 93 0 313 2 333 2 C 333 30 332 43 332 43 C 336 48 338 51 338 51 C 338 57 338 60 338 60 C 343 66 346 69 346 69 C 343 77 342 81 342 81 C 357 120 364 139 364 139 C 375 193 380 221 380 221 C 391 259 396 279 396 279 C 401 320 404 341 404 341 C 405 373 405 389 405 389 C 399 460 365 570 349 644 C 349 652 350 673 349 692 C 348 712 344 723 353 738 C 349 741 348 743 348 743 L 352 769 C 279 769 242 768 242 768 C 241 756 241 751 241 751 C 235 745 232 743 232 743 C 237 729 238 719 238 709 C 224 513 218 415 218 415 C 220 357 220 328 220 328 C 213 335 205 335 197 328 C 196 392 195 424 195 424 C 191 449 188 461 188 461 C 181 546 178 589 178 589 C 178 645 179 677 172 688 C 173 708 175 725 176 737 C 174 746 166 768 166 768 Z" fill="url(#id-female-12_enforcer_pants-0)" id="id-female-12_enforcer_pants-5">
</path>
<path d="M 166 768 C 92 769 55 769 55 769 C 55 746 55 734 55 734 C 52 731 47 729 50 722 C 52 716 59 712 53 704 C 54 701 44 699 52 694 C 47 655 44 635 44 635 C 28 567 16 499 5 430 C 3 406 1 381 0 356 C 1 345 3 334 4 323 C 29 214 42 160 42 160 C 56 122 63 103 63 103 C 63 97 62 94 62 94 C 70 82 74 76 74 76 C 74 64 74 58 74 58 C 79 55 81 53 81 53 C 81 27 81 9 82 0 C 83 1 310 1 333 1 C 333 29 332 43 332 43 C 336 48 338 51 338 51 C 338 57 338 60 338 60 C 343 66 346 69 346 69 C 343 77 342 81 342 81 C 357 120 364 139 364 139 C 375 193 380 221 380 221 C 391 259 396 279 396 279 C 401 320 404 341 404 341 C 405 373 405 389 405 389 C 399 460 365 570 349 644 C 349 652 350 673 349 692 C 348 712 344 723 353 738 C 349 741 348 743 348 743 L 352 769 C 279 769 242 768 242 768 C 241 756 241 751 241 751 C 235 745 232 743 232 743 C 237 729 238 719 238 709 C 224 513 218 415 218 415 C 220 357 220 328 220 328 C 213 335 205 335 197 328 C 196 392 195 424 195 424 C 191 448 188 461 188 461 C 181 546 178 589 178 589 C 178 645 179 677 172 688 C 173 708 175 725 176 737 C 174 746 166 768 166 768 Z" fill="url(#id-female-12_enforcer_pants-1)" id="id-female-12_enforcer_pants-6">
</path>
<path d="M 255 86 C 291 73 308 66 308 66 C 321 65 327 64 327 64 L 333 55 C 336 59 338 61 338 61 C 342 65 344 68 344 68 L 303 87 C 271 86 255 86 255 86 Z" fill="#3e404a" id="id-female-12_enforcer_pants-7">
</path>
<path d="M 106 221 C 146 224 165 225 165 225 C 187 210 197 203 197 203 C 265 215 299 220 299 220 C 275 238 263 246 263 246 C 236 256 222 261 222 261 C 238 265 246 267 246 267 C 232 282 225 290 225 290 C 273 269 297 259 297 259 C 269 291 255 307 255 307 C 236 396 227 440 227 440 C 282 609 309 694 309 694 C 313 711 315 720 315 720 L 349 703 C 346 716 347 728 353 738 L 349 743 L 353 769 L 243 768 L 241 751 L 232 743 C 236 732 239 721 238 709 C 235 689 234 674 233 664 C 229 609 224 526 218 415 L 217 370 L 220 329 C 205 329 198 328 198 328 C 197 330 196 330 196 330 C 187 318 183 313 183 313 C 144 279 125 262 125 262 C 156 266 172 269 172 269 L 142 244 C 118 229 106 221 106 221 Z" fill="url(#id-female-12_enforcer_pants-2)" id="id-female-12_enforcer_pants-8">
</path>
<path d="M 183 210 C 170 219 164 224 164 224 L 106 217 C 157 212 183 210 183 210 Z" fill="#3d3f49" id="id-female-12_enforcer_pants-9">
</path>
<path d="M 98 226 C 68 230 53 232 53 232 L 137 262 C 111 238 98 226 98 226 Z" fill="#404149" id="id-female-12_enforcer_pants-10">
</path>
<polygon points="118 268 97 283 47 249" fill="#393b47" id="id-female-12_enforcer_pants-11">
</polygon>
<path d="M 234 192 C 292 185 321 181 321 181 L 275 171 C 248 185 234 192 234 192 Z" fill="#3e3f4b" id="id-female-12_enforcer_pants-12">
</path>
<path d="M 197 186 C 214 184 222 183 222 183 C 218 130 216 103 216 103 L 186 131 C 194 168 197 186 197 186 Z" fill="#353952" id="id-female-12_enforcer_pants-13">
</path>
<path d="M 178 31 C 196 30 205 30 205 30 C 205 33 205 34 205 34 C 290 30 333 29 333 29 C 333 31 333 31 333 31 C 312 34 302 36 302 36 C 302 57 302 68 302 68 C 313 75 319 79 319 79 C 313 92 310 98 310 98 C 315 120 317 131 317 131 C 319 157 319 171 319 171 C 326 197 330 210 330 210 C 331 229 332 238 332 238 C 335 242 337 244 337 244 C 332 252 329 255 329 255 C 328 493 327 612 327 612 C 321 669 317 697 317 697 C 322 704 325 708 325 708 C 316 720 312 726 312 726 C 312 755 312 769 312 769 C 308 769 306 769 306 769 C 308 736 309 720 309 720 C 316 711 320 707 320 707 C 316 700 314 697 314 697 C 320 641 323 613 323 613 C 325 373 327 253 327 253 C 330 248 332 245 332 245 C 328 241 327 240 327 240 C 326 219 326 208 326 208 C 319 186 316 174 316 174 C 315 144 314 129 314 129 C 308 108 306 98 306 98 C 311 88 313 84 313 84 C 304 76 299 73 299 73 C 298 48 298 35 298 35 C 228 36 193 36 193 36 C 192 56 191 66 191 66 L 189 71 L 186 132 C 194 168 197 187 197 187 C 194 188 192 188 192 188 C 186 156 183 140 183 140 C 186 72 188 37 188 37 C 178 37 173 36 173 36 L 173 1 L 178 1 L 178 31 Z" fill="#07091d" id="id-female-12_enforcer_pants-14">
</path>
<path d="M 143 35 C 128 39 120 42 120 42 C 120 59 120 67 120 67 C 111 77 107 82 107 82 C 112 90 115 93 115 93 C 108 102 100 111 112 132 C 102 161 96 193 95 226 C 88 235 84 240 84 240 C 93 248 102 255 88 263 C 88 268 88 270 88 270 C 93 277 95 280 95 280 C 99 547 101 680 101 680 C 98 693 96 700 96 700 C 106 707 110 711 110 711 C 112 750 112 769 112 769 C 110 769 109 769 109 769 C 108 733 107 714 107 714 C 96 708 91 704 91 704 C 95 687 97 678 97 678 C 92 414 90 281 90 281 C 86 277 85 274 85 274 C 85 267 85 263 85 263 C 91 257 94 250 79 242 C 87 232 90 226 90 226 C 91 199 97 167 106 133 C 100 121 102 109 109 96 C 105 87 103 82 103 82 C 111 71 116 66 116 66 L 115 42 L 84 32 C 123 34 143 35 143 35 Z" fill="#090b20" id="id-female-12_enforcer_pants-15">
</path>
<path d="M 183 38 L 170 34 L 82 31 L 82 0 L 178 1 L 178 31 C 181 36 183 38 183 38 Z" fill="#181b34" id="id-female-12_enforcer_pants-16">
</path>
<path d="M 98 85 C 106 74 110 69 110 69 L 168 97 C 121 89 98 85 98 85 Z" fill="#40414b" id="id-female-12_enforcer_pants-17">
</path>
<polygon points="103 103 75 77 63 95" fill="#3e3f4a" id="id-female-12_enforcer_pants-18">
</polygon>
<path d="M 261 27 C 285 27 297 27 297 27 L 311 15 L 312 2 L 261 2 C 261 19 261 27 261 27 Z" fill="#40414b" id="id-female-12_enforcer_pants-19">
</path>
<path d="M 247 272 C 271 249 282 237 282 237 L 325 243 C 273 262 247 272 247 272 Z" fill="#404149" id="id-female-12_enforcer_pants-20">
</path>
<path d="M 266 208 C 306 209 326 210 326 210 L 319 223 C 284 213 266 208 266 208 Z" fill="#3f404b" id="id-female-12_enforcer_pants-21">
</path>
<path d="M 332 239 C 331 231 331 227 331 227 L 366 235 L 340 247 C 334 241 332 239 332 239 Z" fill="#3f404a" id="id-female-12_enforcer_pants-22">
</path>
<path d="M 328 596 L 337 584 L 330 256 C 329 483 328 596 328 596 Z" fill="#3d3f49" id="id-female-12_enforcer_pants-23">
</path>
<path d="M 236 746 L 289 755 L 243 769 L 241 751 C 238 748 236 746 236 746 Z" fill="#07091c" id="id-female-12_enforcer_pants-24">
</path>
<path d="M 138 716 L 177 670 C 176 682 174 689 172 689 L 173 706 C 150 713 138 716 138 716 Z" fill="#080a1f" id="id-female-12_enforcer_pants-25">
</path>
<path d="M 100 699 C 108 686 112 680 112 680 C 154 675 175 672 175 672 L 161 687 C 120 695 100 699 100 699 Z" fill="#252840" id="id-female-12_enforcer_pants-26">
</path>
<path d="M 94 731 L 51 694 C 45 699 50 701 53 705 C 62 716 37 725 54 734 L 54 769 C 90 769 108 769 108 769 L 70 730 L 94 731 Z" fill="#080b20" id="id-female-12_enforcer_pants-27">
</path>
<path d="M 80 707 C 52 579 23 430 5 431 C 15 496 28 564 45 636 L 52 694 L 80 707 Z" fill="url(#id-female-12_enforcer_pants-3)" opacity="0.586" id="id-female-12_enforcer_pants-28">
</path>
<path d="M 185 1 C 186 16 186 24 186 24 L 194 23 L 194 1 L 185 1 Z" fill="#030508" id="id-female-12_enforcer_pants-29">
</path>
<path d="M 169 18 C 182 18 188 18 188 18 C 188 6 188 0 188 0 L 170 0 C 169 12 169 18 169 18 Z" fill="#40414b" id="id-female-12_enforcer_pants-30">
</path>
<path d="M 181 307 L 237 306 L 221 329 C 215 335 207 336 198 329 C 187 315 181 307 181 307 Z" fill="#06091a" id="id-female-12_enforcer_pants-31">
</path>
</g>
<defs>
<linearGradient x1="42%" y1="24%" x2="33%" y2="74%" id="id-female-16_enforcer_belt-0">
<stop stop-color="#233250" offset="0%">
</stop>
<stop stop-color="#5c6c91" offset="100%">
</stop>
</linearGradient>
</defs>
<g transform="translate(429,1039)" id="id-female-16_enforcer_belt-1">
<path d="M 119 384 C 95 388 84 390 84 390 C 54 384 40 381 40 381 C 38 380 37 380 37 380 C 37 381 37 381 37 381 C 28 377 23 375 23 375 C 23 374 23 373 23 373 C 18 370 15 368 15 368 C 14 353 14 346 14 346 C 6 344 1 343 1 343 C 8 258 11 216 11 216 C 4 214 1 213 1 213 C 8 185 12 170 12 170 C 13 162 13 157 13 157 C 32 141 41 133 41 133 C 53 129 58 127 58 127 C 58 136 57 140 57 140 C 114 150 142 155 142 155 L 148 158 C 128 308 119 384 119 384 Z" fill="#00081a" id="id-female-16_enforcer_belt-2">
</path>
<path d="M 13 158 L 54 143 C 113 151 142 155 142 155 C 144 157 145 158 145 158 L 95 169 C 40 161 13 158 13 158 Z" fill="#23262b" id="id-female-16_enforcer_belt-3">
</path>
<path d="M 38 136 C 43 139 46 140 46 140 L 20 151 C 32 141 38 136 38 136 Z" fill="#23262b" id="id-female-16_enforcer_belt-4">
</path>
<path d="M 13 157 C 17 158 18 158 18 158 C 17 165 17 168 17 168 C 22 172 23 181 19 205 C 57 211 76 214 76 214 L 77 225 L 11 216 L 1 213 L 11 172 C 13 162 13 157 13 157 Z" fill="#21242a" id="id-female-16_enforcer_belt-5">
</path>
<path d="M 48 181 C 49 196 50 204 50 204 L 82 209 L 82 187 C 60 183 48 181 48 181 Z" fill="#820140" id="id-female-16_enforcer_belt-6">
</path>
<path d="M 125 305 L 88 302 C 85 361 84 390 84 390 C 107 386 118 383 118 383 C 119 363 120 353 120 353 L 90 335 C 113 315 125 305 125 305 Z" fill="#151924" id="id-female-16_enforcer_belt-7">
</path>
<path d="M 76 214 C 77 222 77 225 77 225 C 93 227 101 228 101 228 C 101 194 100 177 100 177 C 122 172 133 169 133 169 C 134 175 135 178 135 178 C 138 176 140 175 140 175 C 139 170 139 167 139 167 L 143 159 C 111 165 95 169 95 169 C 92 169 90 169 90 169 L 89 214 L 76 214 Z" fill="#141923" id="id-female-16_enforcer_belt-8">
</path>
<path d="M 103 190 C 105 207 105 215 105 215 C 122 215 131 214 131 214 L 132 186 C 113 188 103 190 103 190 Z" fill="#161b25" id="id-female-16_enforcer_belt-9">
</path>
<path d="M 136 178 C 132 202 131 214 131 214 C 136 215 139 215 139 215 C 140 198 141 189 141 189 L 140 175 L 136 178 Z" fill="#31363d" id="id-female-16_enforcer_belt-10">
</path>
<path d="M 106 215 C 106 227 106 233 106 233 C 94 233 88 234 88 234 C 87 274 87 295 87 295 C 113 289 126 286 126 286 L 139 215 L 131 214 C 114 215 106 215 106 215 Z" fill="#151a24" id="id-female-16_enforcer_belt-11">
</path>
<path d="M 129 222 L 119 287 C 124 286 126 285 126 285 L 137 227 C 131 224 129 222 129 222 Z" fill="#21252a" id="id-female-16_enforcer_belt-12">
</path>
<path d="M 88 246 C 94 258 94 277 94 298 L 87 298 C 88 263 88 246 88 246 Z" fill="#1f2228" id="id-female-16_enforcer_belt-13">
</path>
<path d="M 87 302 C 85 363 83 393 83 393 C 91 391 95 391 95 391 L 94 303 C 89 302 87 302 87 302 Z" fill="#1f2228" id="id-female-16_enforcer_belt-14">
</path>
<path d="M 126 285 C 124 295 123 300 123 300 L 110 289 C 121 287 126 285 126 285 Z" fill="#12161f" id="id-female-16_enforcer_belt-15">
</path>
<path d="M 78 364 C 58 363 48 362 48 362 C 47 329 47 312 47 312 C 60 313 67 313 67 313 C 69 276 70 257 70 257 L 80 262 C 79 330 78 364 78 364 Z" fill="#1b1f27" id="id-female-16_enforcer_belt-16">
</path>
<path d="M 45 382 C 40 278 37 226 37 226 C 33 229 32 231 32 231 L 11 223 L 1 343 L 14 346 L 15 368 L 23 373 L 23 375 L 37 381 L 37 380 L 42 381 C 44 382 45 382 45 382 Z" fill="#101722" id="id-female-16_enforcer_belt-17">
</path>
<path d="M 10 292 C 20 286 12 262 14 247 L 17 217 C 13 217 11 216 11 216 L 7 274 C 9 286 10 292 10 292 Z" fill="#41454d" id="id-female-16_enforcer_belt-18">
</path>
<path d="M 18 281 L 38 255 L 37 226 C 33 229 31 231 31 231 L 16 225 L 14 247 C 13 258 15 269 18 281 Z" fill="#141923" id="id-female-16_enforcer_belt-19">
</path>
<path d="M 33 242 C 35 284 36 304 36 304 C 55 307 64 308 64 308 C 65 271 66 252 66 252 C 77 250 82 249 82 249 L 82 244 C 50 243 33 242 33 242 Z" fill="#21242a" id="id-female-16_enforcer_belt-20">
</path>
<path d="M 39 242 C 36 246 34 248 34 248 C 36 250 37 251 37 251 C 39 250 40 249 40 249 C 55 252 62 254 62 254 C 62 250 62 249 62 249 L 80 246 C 53 243 39 242 39 242 Z" fill="#3c4147" id="id-female-16_enforcer_belt-21">
</path>
<path d="M 50 287 C 52 293 53 296 53 296 C 51 299 50 301 50 301 L 43 294 C 47 290 50 287 50 287 Z" fill="#00081a" id="id-female-16_enforcer_belt-22">
</path>
<path d="M 80 169 C 83 166 85 165 85 165 C 99 166 106 167 106 167 C 97 170 93 172 93 172 L 88 180 C 83 172 80 169 80 169 Z" fill="#3c4147" id="id-female-16_enforcer_belt-23">
</path>
<path d="M 131 286 C 159 291 189 298 222 308 C 218 335 216 349 216 349 C 185 338 155 331 126 328 C 129 300 131 286 131 286 Z" fill="#000919" id="id-female-16_enforcer_belt-24">
</path>
<path d="M 133 290 C 138 291 141 291 141 291 C 136 315 134 326 134 326 L 127 326 C 131 302 133 290 133 290 Z" fill="#0e1321" id="id-female-16_enforcer_belt-25">
</path>
<path d="M 159 289 C 154 318 151 333 151 333 C 159 335 164 336 164 336 C 165 331 165 329 165 329 C 174 331 178 332 178 332 C 179 337 179 340 179 340 L 189 342 C 194 314 196 300 196 300 C 189 297 186 296 186 296 C 184 297 184 298 184 298 C 186 298 187 298 187 298 C 184 301 183 303 183 303 C 175 301 171 300 171 300 L 173 293 C 163 290 159 289 159 289 Z" fill="#454b5b" id="id-female-16_enforcer_belt-26">
</path>
<path d="M 184 298 L 186 296 C 193 298 196 300 196 300 C 196 303 195 305 195 305 C 193 303 191 303 189 304 C 188 302 187 301 185 301 L 187 298 L 184 298 Z" fill="#67708a" id="id-female-16_enforcer_belt-27">
</path>
<path d="M 199 307 C 198 314 197 318 197 318 C 212 322 219 324 219 324 L 221 314 C 206 310 199 307 199 307 Z" fill="#172237" id="id-female-16_enforcer_belt-28">
</path>
<path d="M 221 314 C 214 312 210 311 210 311 L 209 321 L 219 324 C 220 317 221 314 221 314 Z" fill="#29334b" id="id-female-16_enforcer_belt-29">
</path>
<path d="M 155 287 C 154 289 153 291 153 291 C 156 291 158 291 158 291 C 154 317 152 329 152 329 C 158 306 160 295 160 295 C 167 295 171 296 171 296 L 171 293 C 161 289 155 287 155 287 Z" fill="#67708a" id="id-female-16_enforcer_belt-30">
</path>
<path d="M 218 331 C 204 327 197 324 197 324 C 195 332 195 335 195 335 L 217 342 C 218 335 218 331 218 331 Z" fill="#172136" id="id-female-16_enforcer_belt-31">
</path>
<path d="M 218 331 C 211 329 208 328 208 328 L 207 339 L 217 342 C 218 335 218 331 218 331 Z" fill="#2a324b" id="id-female-16_enforcer_belt-32">
</path>
<path d="M 234 306 C 235 331 235 343 235 343 C 266 336 281 332 281 332 C 281 328 281 327 281 327 C 300 322 309 320 309 320 C 310 324 310 325 310 325 C 326 322 334 320 334 320 C 331 294 329 281 329 281 C 310 286 300 288 300 288 C 298 293 297 295 297 295 C 287 298 281 300 281 300 L 278 295 C 249 302 234 306 234 306 Z" fill="#000919" id="id-female-16_enforcer_belt-33">
</path>
<path d="M 234 308 C 253 303 262 301 262 301 C 263 302 263 303 263 303 L 234 310 C 234 309 234 308 234 308 Z" fill="#212b45" id="id-female-16_enforcer_belt-34">
</path>
<path d="M 264 299 C 269 323 272 335 272 335 C 276 335 278 335 278 335 L 269 297 C 266 298 264 299 264 299 Z" fill="#464c5c" id="id-female-16_enforcer_belt-35">
</path>
<path d="M 266 307 L 271 304 L 269 297 L 264 299 C 265 304 266 307 266 307 Z" fill="#667088" id="id-female-16_enforcer_belt-36">
</path>
<path d="M 281 333 C 286 332 289 332 289 332 C 288 328 288 327 288 327 C 295 325 299 324 299 324 C 301 327 302 329 302 329 C 312 326 316 325 316 325 C 317 324 317 323 317 323 C 313 324 311 325 311 325 C 306 302 303 290 303 290 C 307 289 310 288 310 288 C 309 286 308 284 308 284 C 298 287 293 288 293 288 C 293 293 292 295 292 295 C 286 297 283 298 283 298 C 281 294 280 292 280 292 L 273 294 C 278 320 281 333 281 333 Z" fill="#454b5b" id="id-female-16_enforcer_belt-37">
</path>
<path d="M 274 298 L 282 295 L 280 292 L 273 294 C 273 296 274 298 274 298 Z" fill="#667088" id="id-female-16_enforcer_belt-38">
</path>
<polygon points="293 293 310 288 308 284 293 289" fill="#667088" id="id-female-16_enforcer_belt-39">
</polygon>
<path d="M 311 286 C 310 289 310 290 310 290 L 329 284 L 329 281 C 317 284 311 286 311 286 Z" fill="#252e47" id="id-female-16_enforcer_belt-40">
</path>
<path d="M 434 427 C 415 438 406 444 406 444 C 393 393 387 368 387 368 C 354 360 338 357 338 357 C 324 246 317 190 317 190 C 366 163 390 150 390 150 C 389 134 388 125 388 125 C 396 124 400 123 400 123 C 404 147 406 159 406 159 C 411 157 413 157 413 157 C 400 66 394 20 394 20 C 400 10 404 6 404 6 C 413 10 417 12 417 12 C 421 29 422 37 422 37 C 421 40 420 41 420 41 C 431 116 437 154 437 154 C 449 151 455 150 455 150 C 460 189 463 208 463 208 C 454 211 450 212 450 212 C 485 430 503 540 503 540 C 506 544 507 546 507 546 C 513 550 517 552 517 552 C 512 556 509 558 509 558 C 510 566 511 569 511 569 C 515 572 517 573 517 573 C 514 578 512 580 512 580 C 512 582 512 583 512 583 C 509 585 508 586 508 586 C 508 591 508 594 508 594 C 502 592 499 591 499 591 C 494 594 492 595 492 595 C 488 593 486 593 486 593 C 483 595 481 596 481 596 C 477 591 475 588 475 588 C 472 587 471 587 471 587 C 470 582 470 579 470 579 C 465 576 462 574 462 574 C 466 569 468 566 468 566 C 467 559 466 555 466 555 C 462 553 460 551 460 551 C 463 547 465 545 465 545 C 464 542 464 541 464 541 C 466 540 467 539 467 539 C 435 325 419 219 419 219 L 411 220 C 427 358 434 427 434 427 Z" fill="#000919" id="id-female-16_enforcer_belt-41">
</path>
<path d="M 346 343 C 345 348 345 350 345 350 C 374 356 389 359 389 359 C 403 412 410 439 410 439 C 424 430 431 426 431 426 L 420 355 C 370 347 346 343 346 343 Z" fill="#1f2329" id="id-female-16_enforcer_belt-42">
</path>
<path d="M 407 429 L 429 415 L 431 426 L 410 439 C 408 432 407 429 407 429 Z" fill="#383d43" id="id-female-16_enforcer_belt-43">
</path>
<path d="M 416 350 C 403 346 397 345 397 345 L 415 341 C 415 347 416 350 416 350 Z" fill="#252f49" id="id-female-16_enforcer_belt-44">
</path>
<path d="M 414 336 C 398 339 390 340 390 340 C 389 334 389 331 389 331 L 413 327 C 414 333 414 336 414 336 Z" fill="#252f49" id="id-female-16_enforcer_belt-45">
</path>
<path d="M 413 321 C 396 325 388 326 388 326 C 387 320 386 317 386 317 L 411 312 C 412 318 413 321 413 321 Z" fill="#252f49" id="id-female-16_enforcer_belt-46">
</path>
<path d="M 411 308 C 393 310 385 312 385 312 C 384 306 383 303 383 303 L 410 298 C 410 304 411 308 411 308 Z" fill="#252f49" id="id-female-16_enforcer_belt-47">
</path>
<path d="M 409 293 C 391 296 382 297 382 297 C 381 291 381 288 381 288 L 408 284 C 409 290 409 293 409 293 Z" fill="#252f49" id="id-female-16_enforcer_belt-48">
</path>
<path d="M 380 283 C 379 277 379 274 379 274 C 397 271 406 269 406 269 L 407 279 C 389 282 380 283 380 283 Z" fill="#252f49" id="id-female-16_enforcer_belt-49">
</path>
<path d="M 376 260 C 377 266 377 269 377 269 C 397 266 406 264 406 264 L 405 255 C 386 258 376 260 376 260 Z" fill="#252f49" id="id-female-16_enforcer_belt-50">
</path>
<path d="M 374 245 C 375 251 375 254 375 254 C 395 251 405 249 405 249 L 403 240 C 384 244 374 245 374 245 Z" fill="#252f49" id="id-female-16_enforcer_belt-51">
</path>
<path d="M 372 231 C 373 237 373 240 373 240 C 393 237 403 235 403 235 L 401 226 C 382 230 372 231 372 231 Z" fill="#252f49" id="id-female-16_enforcer_belt-52">
</path>
<path d="M 370 217 C 371 223 371 226 371 226 C 391 223 401 221 401 221 L 406 210 C 382 215 370 217 370 217 Z" fill="#252f49" id="id-female-16_enforcer_belt-53">
</path>
<path d="M 367 203 C 368 209 368 212 368 212 C 393 208 406 205 406 205 L 404 196 C 379 201 367 203 367 203 Z" fill="#252f49" id="id-female-16_enforcer_belt-54">
</path>
<path d="M 365 198 C 366 200 367 202 367 202 C 386 195 396 192 396 192 C 400 192 402 192 402 192 L 398 186 C 376 194 365 198 365 198 Z" fill="#5d6b8f" id="id-female-16_enforcer_belt-55">
</path>
<path d="M 398 183 L 402 183 L 403 193 L 398 186 C 398 184 398 183 398 183 Z" fill="#242e47" id="id-female-16_enforcer_belt-56">
</path>
<path d="M 392 167 C 348 187 326 197 326 197 C 325 200 325 201 325 201 C 336 290 342 334 342 334 C 356 328 369 320 380 306 C 368 232 362 196 362 196 L 394 184 C 393 173 392 167 392 167 Z" fill="#22314f" id="id-female-16_enforcer_belt-57">
</path>
<path d="M 369 240 C 353 239 339 229 327 213 L 325 202 L 326 197 L 392 167 L 394 184 L 362 196 C 367 226 369 240 369 240 Z" fill="url(#id-female-16_enforcer_belt-0)" id="id-female-16_enforcer_belt-58">
</path>
<path d="M 319 192 C 320 196 321 198 321 198 C 368 175 392 164 392 164 C 392 162 392 161 392 161 C 396 159 398 158 398 158 C 398 134 398 122 398 122 C 394 122 391 122 391 122 L 391 155 C 343 179 319 192 319 192 Z" fill="#202e49" id="id-female-16_enforcer_belt-59">
</path>
<path d="M 319 192 C 323 194 325 195 325 195 L 341 181 C 327 188 319 192 319 192 Z" fill="#4c5b7d" id="id-female-16_enforcer_belt-60">
</path>
<polygon points="370 166 392 161 398 158 398 122 392 122 391 155" fill="#526285" id="id-female-16_enforcer_belt-61">
</polygon>
<path d="M 411 162 C 439 156 453 153 453 153 L 436 161 C 419 161 411 162 411 162 Z" fill="#5d6b8f" id="id-female-16_enforcer_belt-62">
</path>
<path d="M 453 156 C 442 162 436 165 436 165 C 441 193 444 207 444 207 L 460 205 C 455 173 453 156 453 156 Z" fill="#212c43" id="id-female-16_enforcer_belt-63">
</path>
<path d="M 447 214 C 442 215 439 215 439 215 L 452 295 L 455 286 C 457 286 457 286 457 286 L 458 282 C 451 237 447 214 447 214 Z" fill="#373446" id="id-female-16_enforcer_belt-64">
</path>
<path d="M 465 537 C 465 539 465 540 465 540 C 482 542 491 542 491 542 C 500 537 505 534 505 534 C 503 532 503 531 503 531 L 490 538 C 473 537 465 537 465 537 Z" fill="#007fb3" id="id-female-16_enforcer_belt-65">
</path>
<path d="M 492 545 C 497 541 499 540 499 540 C 486 456 479 415 479 415 L 472 417 C 485 502 492 545 492 545 Z" fill="#3c394b" id="id-female-16_enforcer_belt-66">
</path>
<path d="M 485 538 L 486 542 L 491 542 L 505 534 L 503 531 L 490 538 C 486 538 485 538 485 538 Z" fill="#67bded" id="id-female-16_enforcer_belt-67">
</path>
<path d="M 469 552 C 472 575 474 586 474 586 C 479 587 482 587 482 587 L 478 555 C 472 553 469 552 469 552 Z" fill="#007cb0" id="id-female-16_enforcer_belt-68">
</path>
<path d="M 489 565 C 488 567 488 567 488 567 C 487 574 487 577 487 577 L 495 573 C 491 568 489 565 489 565 Z" fill="#363446" id="id-female-16_enforcer_belt-69">
</path>
<path d="M 492 555 C 492 562 493 565 493 565 C 501 559 505 556 505 556 L 504 547 C 496 552 492 555 492 555 Z" fill="#007eb3" id="id-female-16_enforcer_belt-70">
</path>
<path d="M 506 561 C 498 565 495 567 495 567 C 498 571 500 573 500 573 C 495 577 493 580 493 580 C 494 587 495 590 495 590 L 509 581 C 507 568 506 561 506 561 Z" fill="#007db2" id="id-female-16_enforcer_belt-71">
</path>
<path d="M 506 561 C 500 578 497 586 497 586 L 507 578 C 506 567 506 561 506 561 Z" fill="#68c4f5" id="id-female-16_enforcer_belt-72">
</path>
<path d="M 460 374 C 461 385 461 391 461 391 C 460 393 460 395 460 395 C 468 393 472 392 472 392 L 474 375 C 465 374 460 374 460 374 Z" fill="#151a21" id="id-female-16_enforcer_belt-73">
</path>
<path d="M 329 184 C 320 129 316 102 316 102 L 312 60 L 338 58 C 340 82 341 95 341 95 L 358 172 C 339 180 329 184 329 184 Z" fill="#000919" id="id-female-16_enforcer_belt-74">
</path>
<path d="M 352 169 C 343 119 338 94 338 94 L 338 66 L 341 95 C 348 144 352 169 352 169 Z" fill="#202a43" id="id-female-16_enforcer_belt-75">
</path>
<path d="M 111 61 C 106 117 103 148 103 148 C 127 153 139 155 139 155 C 143 110 146 80 148 64 L 111 61 Z" fill="#000919" id="id-female-16_enforcer_belt-76">
</path>
<path d="M 143 67 C 138 122 136 150 136 150 L 139 151 L 146 67 L 143 67 Z" fill="#3c4147" id="id-female-16_enforcer_belt-77">
</path>
<path d="M 111 99 C 108 131 107 147 107 147 C 126 148 135 149 135 149 L 137 121 C 119 106 111 99 111 99 Z" fill="#230f24" id="id-female-16_enforcer_belt-78">
</path>
<path d="M 405 9 L 416 14 C 412 19 411 22 411 22 L 406 14 C 405 11 405 9 405 9 Z" fill="#3e3b4d" id="id-female-16_enforcer_belt-79">
</path>
<path d="M 417 44 C 414 42 413 40 413 40 C 410 45 409 47 409 47 C 419 118 425 153 425 153 C 429 154 431 155 431 155 L 433 149 C 422 79 417 44 417 44 Z" fill="#464252" id="id-female-16_enforcer_belt-80">
</path>
<path d="M 307 263 L 300 280 L 293 263 L 297 263 L 300 271 L 303 263 L 307 263 Z M 314 263 L 314 276 L 310 280 L 310 263 L 314 263 Z M 321 267 L 321 273 L 328 273 L 328 267 L 321 267 Z M 321 263 L 328 263 C 330 263 331 264 331 266 L 331 274 C 331 276 330 277 328 277 L 321 277 C 319 277 318 276 318 274 L 318 266 C 318 264 319 263 321 263 Z M 346 277 L 335 277 L 335 263 L 339 263 L 339 273 L 350 273 L 346 277 Z M 362 268 L 362 267 L 356 267 L 356 268 L 362 268 Z M 356 272 L 356 277 L 352 277 L 352 266 C 352 264 354 263 356 263 L 363 263 C 365 263 366 264 366 266 L 366 277 L 362 277 L 362 272 L 356 272 Z M 370 263 L 385 263 L 381 267 L 379 267 L 379 277 L 375 277 L 375 267 L 370 267 L 370 263 Z M 391 267 L 391 273 L 397 273 L 397 267 L 391 267 Z M 390 263 L 398 263 C 400 263 401 264 401 266 L 401 274 C 401 276 400 277 398 277 L 390 277 C 388 277 387 276 387 274 L 387 266 C 387 264 388 263 390 263 Z M 408 267 L 408 268 L 415 268 L 415 267 L 408 267 Z M 409 272 L 408 271 L 408 277 L 405 277 L 405 263 L 415 263 C 417 263 418 264 418 266 L 418 269 C 418 271 417 272 415 272 L 414 272 L 419 277 L 414 277 L 409 272 Z" transform="translate(356,272) rotate(-97) translate(-356,-272)" fill="#7f8ead" opacity="0.552" id="id-female-16_enforcer_belt-81">
</path>
<g transform="translate(70,1)" id="id-female-16_enforcer_belt-82">
<path d="M 245 62 C 284 58 305 54 308 50 C 307 21 307 6 307 6 C 303 5 301 4 301 4 L 255 12 L 184 19 L 126 19 L 64 14 C 26 5 7 1 7 1 C 4 1 2 1 2 1 C 1 38 0 56 0 56 C 42 62 63 65 63 65 L 126 71 L 184 68 C 225 64 245 62 245 62 Z" fill="#23363e" id="id-female-16_enforcer_belt-83">
</path>
<path d="M 117 76 L 218 69 L 242 62 C 203 65 184 66 184 66 C 184 35 184 19 184 19 L 125 18 L 126 70 L 65 63 C 99 72 117 76 117 76 Z" fill="#0e2028" id="id-female-16_enforcer_belt-84">
</path>
<path d="M 167 66 C 150 66 142 66 142 66 C 140 42 139 30 139 30 L 167 29 C 167 54 167 66 167 66 Z" fill="#060f1e" id="id-female-16_enforcer_belt-85">
</path>
<path d="M 163 66 C 174 66 181 66 181 66 C 179 43 178 32 178 32 C 167 32 161 32 161 32 C 161 39 161 43 161 43 C 151 43 146 43 146 43 C 146 34 146 29 146 29 L 130 29 C 131 54 132 66 132 66 C 139 66 143 66 146 66 C 146 58 146 53 146 53 L 161 53 L 163 66 Z" fill="#4b5162" id="id-female-16_enforcer_belt-86">
</path>
<path d="M 146 27 C 145 31 145 33 145 33 C 134 33 128 32 128 32 L 132 27 C 141 27 146 27 146 27 Z" fill="#7787ac" id="id-female-16_enforcer_belt-87">
</path>
<path d="M 162 28 C 161 32 161 34 161 34 C 172 33 178 33 178 33 L 178 28 C 167 28 162 28 162 28 Z" fill="#7787ac" id="id-female-16_enforcer_belt-88">
</path>
<path d="M 146 40 L 161 40 L 161 44 L 145 44 C 146 41 146 40 146 40 Z" fill="#7787ac" id="id-female-16_enforcer_belt-89">
</path>
<path d="M 221 33 L 221 66 L 184 68 C 184 50 184 40 184 40 L 194 41 L 221 33 Z" fill="#3c4a49" id="id-female-16_enforcer_belt-90">
</path>
<path d="M 226 24 C 238 23 244 22 244 22 C 241 40 240 49 240 49 L 225 51 C 226 33 226 24 226 24 Z" fill="#4d5b55" id="id-female-16_enforcer_belt-91">
</path>
<path d="M 240 49 C 238 61 238 66 238 66 L 226 67 L 226 51 C 235 50 240 49 240 49 Z" fill="#3c4a49" id="id-female-16_enforcer_belt-92">
</path>
<path d="M 252 61 C 289 55 308 51 308 51 C 307 31 307 20 307 20 L 255 23 C 253 48 252 61 252 61 Z" fill="#192c34" id="id-female-16_enforcer_belt-93">
</path>
<path d="M 273 22 C 273 18 272 15 272 15 C 262 15 256 15 256 15 L 257 23 C 268 22 273 22 273 22 Z" fill="#4c5a54" id="id-female-16_enforcer_belt-94">
</path>
<path d="M 274 58 L 276 63 C 292 61 302 58 307 55 L 307 52 C 285 56 274 58 274 58 Z" fill="#3c4a49" id="id-female-16_enforcer_belt-95">
</path>
<path d="M 54 17 C 55 45 56 59 56 59 C 20 53 2 51 2 51 L 3 8 C 37 14 54 17 54 17 Z" fill="#192c34" id="id-female-16_enforcer_belt-96">
</path>
<path d="M 87 46 L 88 19 C 77 17 71 16 71 16 L 71 47 C 82 47 87 46 87 46 Z" fill="#4f5d56" id="id-female-16_enforcer_belt-97">
</path>
<path d="M 88 22 C 91 22 92 22 92 22 C 92 51 92 66 92 66 L 88 66 C 88 37 88 22 88 22 Z" fill="#112229" id="id-female-16_enforcer_belt-98">
</path>
<path d="M 73 47 L 73 66 L 88 66 L 88 47 C 78 47 73 47 73 47 Z" fill="#354546" id="id-female-16_enforcer_belt-99">
</path>
</g>
</g>
<defs>
<linearGradient x1="50%" y1="0%" x2="50%" y2="44%" id="id-female-25_52_messy_bang_low_buns-0">
<stop stop-color="#543e5f" offset="0%">
</stop>
<stop stop-color="#1e1324" offset="100%">
</stop>
</linearGradient>
</defs>
<g transform="translate(522,285)" id="id-female-25_52_messy_bang_low_buns-1">
<path d="M 205 183 C 206 215 203 241 196 260 C 193 239 216 243 188 147 C 146 165 83 181 50 212 C 53 204 58 197 64 190 C 73 180 119 156 119 154 C 110 161 84 169 64 181 C 51 190 42 200 38 212 C 40 193 42 180 42 175 C 33 195 33 254 18 284 C 35 243 23 167 30 148 C -2 194 20 246 22 249 C -2 220 2 177 36 120 L 42 101 L 38 101 C 29 121 24 135 22 145 C 21 133 24 119 32 101 C 20 101 9 100 0 99 C 44 101 53 63 110 30 C 110 30 106 26 95 19 L 139 28 L 141 26 L 142 2 L 146 16 L 144 24 L 176 1 C 166 13 159 21 154 26 C 219 61 190 39 219 73 C 247 88 261 80 269 76 C 264 84 252 91 234 97 C 241 103 255 108 277 112 C 254 116 238 114 231 109 C 243 140 260 164 284 181 C 273 181 260 177 245 167 C 248 202 248 223 246 228 C 247 198 217 206 205 183 Z" fill="url(#id-female-25_52_messy_bang_low_buns-0)" id="id-female-25_52_messy_bang_low_buns-2">
</path>
<path d="M 36 95 C 42 95 56 90 78 82 C 76 78 81 65 93 42 C 85 47 78 53 72 60 C 71 61 60 65 40 73 C 55 71 62 71 60 73 C 52 81 44 90 36 95 Z" fill="#424c6f" id="id-female-25_52_messy_bang_low_buns-3">
</path>
<path d="M 54 122 C 73 111 89 96 103 78 L 111 36 C 106 37 103 39 100 41 C 86 89 64 108 54 122 Z" fill="#424c6f" id="id-female-25_52_messy_bang_low_buns-4">
</path>
<path d="M 124 34 C 121 75 110 95 106 102 C 111 99 118 90 129 74 C 127 60 125 46 124 34 Z" fill="#424c6f" id="id-female-25_52_messy_bang_low_buns-5">
</path>
<path d="M 172 41 L 212 86 C 228 86 239 85 246 82 C 224 79 199 65 172 41 Z" fill="#455275" id="id-female-25_52_messy_bang_low_buns-6">
</path>
<path d="M 129 14 C 129 21 128 26 127 36 C 134 34 137 41 137 56 L 141 110 C 137 100 135 93 134 90 C 123 129 96 152 91 161 C 115 139 128 113 128 117 C 118 143 96 174 93 176 C 112 165 131 143 150 108 L 138 158 C 152 151 161 146 165 142 C 159 159 75 201 73 204 C 88 198 121 182 173 156 L 188 124 L 181 98 L 188 105 L 188 124 L 185 137 L 194 169 C 197 142 200 121 203 107 C 202 94 182 71 176 54 C 176 57 181 78 181 80 C 177 75 166 52 161 49 C 161 53 159 63 157 79 L 153 39 C 143 30 135 22 129 14 Z" fill="#424c6f" id="id-female-25_52_messy_bang_low_buns-7">
</path>
<path d="M 138 69 L 140 99 L 137 100 C 135 95 134 91 134 90 C 133 94 130 103 130 102 C 149 96 172 89 194 87 C 193 85 189 78 180 64 L 178 65 C 180 74 181 80 181 80 C 180 79 177 74 172 65 L 159 67 L 157 79 L 156 67 L 138 69 Z" fill="#717faf" id="id-female-25_52_messy_bang_low_buns-8">
</path>
</g>
<defs>
</defs>

</svg>
