<?xml version="1.0" encoding="UTF-8"?><svg width="1320px" height="1760px" viewBox="0 0 1320 1760" version="1.1" xmlns="http://www.w3.org/2000/svg" xmlns:xlink="http://www.w3.org/1999/xlink"><defs><filter width="132%" height="136%" x="-16%" y="-18%" id="id-62186" filterUnits="objectBoundingBox"><feOffset result="id-62187" in="SourceAlpha" dx="0" dy="0"></feOffset><feGaussianBlur result="id-62188" in="SourceGraphic" stdDeviation="2"></feGaussianBlur><feColorMatrix in="SourceGraphic" type="matrix" values="0 0 0 0 1 0 0 0 0 0 0 0 0 0 0 0 0 0 0.499 0"></feColorMatrix></filter><path d=" M 93,18 L 111,51 C 111,51 98,50 73,49 C 73,49 80,39 93,18 L 93,18 Z M 93,24 C 83,39 79,46 79,46 C 97,47 106,48 106,48 L 93,24 Z" id="id-62191"></path><path d=" M 93,18 L 111,51 C 111,51 98,50 73,49 C 73,49 80,39 93,18 L 93,18 Z M 93,24 C 83,39 79,46 79,46 C 97,47 106,48 106,48 L 93,24 Z" id="id-62191"></path></defs><g transform=" translate(567,417)" id="id-62193"><path d=" M 71,80 C 33,84 14,86 14,86 C 8,84 5,78 2,70 C 1,49 -2,25 3,18 C 39,1 127,0 175,12 C 181,14 185,19 186,26 C 186,53 187,82 169,87 C 151,87 134,85 119,82 C 112,80 99,67 92,68 C 89,68 82,72 71,80 Z" fill="#FFA20F" fill-opacity="0.369" id="id-62194"></path><path d=" M 2,25 C 4,49 5,65 6,73 C 9,80 12,83 15,86 C 5,82 1,62 2,25 Z" fill="#AD631A" id="id-62195"></path><path d=" M 15,86 C 29,88 48,87 72,82 C 80,75 88,69 93,68 C 99,69 107,75 116,82 C 124,86 142,87 170,87 C 174,85 176,84 176,84 C 146,85 126,84 118,80 C 111,74 99,65 94,66 C 87,66 79,74 72,79 C 34,84 15,86 15,86 Z" fill="#921D06" id="id-62196"></path><path d=" M 21,85 C 31,53 41,27 51,6 C 71,4 90,4 107,4 C 86,31 74,56 64,81 C 35,84 21,85 21,85 Z" fill="#FFFFFF" fill-opacity="0.404" id="id-62197"></path><path d=" M 54,6 C 41,43 34,62 34,62 L 68,5 C 60,5 56,6 54,6 Z" fill="#EDE3D3" id="id-62198"></path><g id="id-62199"><use fill="#000000" fill-opacity="1" xlink:href="#id-62191" filter="url(#id-62186)"></use><use fill="#FFE01D" xlink:href="#id-62191" fill-rule="evenodd"></use></g><polygon points="86 38 87 39 84 43 88 43 88 45 81 45" fill="#FFE01D" id="id-62203" fill-rule="nonzero"></polygon><polygon points="98 41 100 40 103 46 95 46 95 44 100 44" fill="#FFE01D" id="id-62204" fill-rule="nonzero"></polygon><polygon points="88 33 92 26 96 33 94 34 92 30 90 34" fill="#FFE01D" id="id-62205" fill-rule="nonzero"></polygon><polygon points="73 26 79 30 78 31 72 27" fill="#FFE01D" id="id-62206" fill-rule="nonzero"></polygon><polygon points="91 54 93 54 93 59 91 59" fill="#FFE01D" id="id-62207" fill-rule="nonzero"></polygon><polygon points="111 27 112 29 106 32 105 30" fill="#FFE01D" id="id-62208" fill-rule="nonzero"></polygon><path d=" M 123,71 C 122,75 122,78 122,78 C 129,81 133,83 133,83 C 147,82 167,85 173,80 L 178,54 C 162,66 144,71 123,71 Z" fill="#FFFFFF" fill-opacity="0.240" id="id-62209"></path><path d=" M 184,20 C 184,47 182,68 178,81 C 179,80 181,78 183,70 C 185,50 186,33 184,20 Z" fill="#921D06" id="id-62210"></path><path d=" M 3,18 C 17,1 54,0 94,0 C 133,0 160,4 175,12 C 148,6 121,4 94,4 C 53,5 23,9 3,18 Z" fill="#EEEAE5" id="id-62211"></path></g></svg>