<?xml version="1.0" encoding="UTF-8"?><svg width="1320px" height="1760px" viewBox="0 0 1320 1760" version="1.1" xmlns="http://www.w3.org/2000/svg" xmlns:xlink="http://www.w3.org/1999/xlink"><defs></defs><g transform=" translate(566,213)" id="id-101000"><g fill="#231011" id="id-101001"><path d=" M 182,106 L 184,111 C 184,111 187,168 184,179 L 181,198 L 177,200 C 179,187 181,150 169,135 L 172,119 L 177,124 C 174,118 171,112 168,107 L 182,106 Z" id="id-101002"></path><path d=" M 4,113 C 8,111 10,112 15,111 C 23,138 3,149 8,177 L 12,172 C 9,181 9,187 9,196 L 4,193 C 4,193 2,184 2,174 C 1,167 0,161 0,151 C 0,150 0,148 0,147 C 1,134 2,121 4,113 Z" id="id-101002"></path><path d=" M 184,67 L 183,89 L 183,90 L 182,106 C 182,106 150,89 149,87 C 149,87 148,86 148,86 C 147,86 146,86 146,87 L 141,84 L 101,94 L 105,88 C 105,88 94,95 93,95 L 77,84 L 72,90 C 49,61 8,113 4,114 L 2,90 C 3,87 3,73 4,70 C 4,70 8,78 8,78 C 17,46 27,45 27,45 C 31,37 36,31 42,25 L 41,32 C 44,30 54,25 54,25 C 56,18 60,12 65,8 C 64,10 67,17 67,17 L 81,0 L 85,11 L 99,5 C 103,9 183,55 180,74 L 184,67 Z" id="id-101002"></path></g><g transform=" translate(3,0)" fill="#41547A" id="id-101005"><path d=" M 180,67 L 179,89 L 168,98 L 143,84 L 143,81 C 141,81 139,83 137,84 C 125,87 106,92 97,94 L 102,88 L 90,96 C 83,91 78,87 74,84 C 71,81 67,78 62,74 L 63,75 C 67,85 69,90 69,90 C 63,82 50,81 43,82 C 43,82 35,74 35,74 L 32,72 L 37,85 L 17,99 L 0,74 C 0,74 0,73 0,71 C 0,71 0,70 0,70 L 5,77 C 14,46 23,44 23,44 C 28,37 33,31 38,25 L 37,31 C 39,30 49,25 50,25 C 52,18 57,12 62,7 C 61,9 63,16 63,17 L 77,0 L 82,11 L 96,5 C 119,23 163,42 175,67 C 176,68 176,70 177,74 L 180,67 Z" id="id-101002"></path></g><g transform=" translate(25,0)" fill="#577DBF" id="id-101007"><path d=" M 21,52 L 30,82 C 27,82 24,82 21,82 C 21,82 14,74 13,74 C 8,69 3,64 0,57 C 0,57 13,65 20,62 C 20,62 4,56 16,31 C 18,31 20,29 23,28 C 24,35 29,53 36,60 C 36,59 24,56 21,52 Z" id="id-101002"></path><path d=" M 139,47 C 127,38 92,17 75,5 L 60,11 C 60,10 57,1 56,0 L 42,17 C 41,16 40,9 41,8 C 32,14 34,27 33,41 L 41,50 C 41,50 41,37 43,33 C 43,33 46,62 51,68 L 39,73 C 47,79 61,91 69,96 L 81,88 L 77,93 L 124,69 L 122,84 C 122,84 139,67 145,54 L 139,47 Z M 53,49 C 64,70 79,69 79,69 C 79,69 66,78 62,78 C 57,78 53,51 53,49 Z" id="id-101009" fill-rule="nonzero"></path></g><g transform=" translate(60,0)" fill="#5AA4DA" id="id-101010"><polygon points="33 92 56 65 87 67" id="id-101002"></polygon><path d=" M 110,55 C 110,55 103,66 102,66 L 102,55 L 76,50 L 93,44 C 93,44 54,37 51,32 C 51,32 52,54 53,58 C 54,63 36,29 37,14 C 37,14 27,28 26,36 L 28,10 L 39,5 L 40,6 C 41,13 42,23 47,29 C 45,24 47,17 50,13 C 64,23 85,33 99,43 C 104,47 109,52 110,55 Z" id="id-101002"></path><path d=" M 24,9 C 21,13 15,21 14,27 C 14,21 14,14 14,8 L 21,0 L 24,9 Z" id="id-101002"></path><path d=" M 6,14 L 5,48 C 5,48 -1,25 0,13 C 2,11 4,9 6,8 C 5,10 5,12 6,14 Z" id="id-101002"></path></g></g></svg>