<?xml version="1.0" encoding="UTF-8"?><svg width="1320px" height="1760px" viewBox="0 0 1320 1760" version="1.1" xmlns="http://www.w3.org/2000/svg" xmlns:xlink="http://www.w3.org/1999/xlink"><defs></defs><g transform=" translate(326,571)" id="id-73617"><path d=" M 205,35 C 214,25 282,5 282,5 C 321,-1 355,-2 384,4 C 427,15 466,30 464,38 C 454,56 415,97 336,107 C 244,93 219,58 205,35 Z" fill="#9A4E00" id="id-73618"></path><path d=" M 244,17 L 244,30 L 230,56 C 248,46 260,41 265,38 C 281,48 293,69 301,100 C 253,87 222,65 205,35 C 207,32 220,26 244,17 Z" fill="#DD8700" id="id-73619"></path><path d=" M 400,38 L 430,47 L 418,74 L 454,45 L 454,28 C 461,31 464,34 464,38 C 450,64 400,95 369,100 C 380,76 390,56 400,38 Z" fill="#DD8700" id="id-73620"></path><polygon points="265 50 288 93 257 76" fill="#C06E00" id="id-73621"></polygon><path d=" M 295,81 L 331,102 L 369,92 L 390,53 L 369,100 L 336,107 C 324,105 312,103 301,100 C 299,95 298,89 295,81 Z" fill="#A35600" id="id-73622"></path><polygon points="387 64 425 53 401 38" fill="#FFB100" id="id-73623"></polygon><path d=" M 76,785 C 84,780 88,776 90,773 C 90,773 88,769 85,763 L 10,763 C 4,780 1,789 1,789 L 11,796 C 54,788 76,785 76,785 Z" fill="#8E4400" id="id-73624"></path><path d=" M 613,798 L 559,783 L 544,772 L 590,735 L 641,791 C 622,796 613,798 613,798 Z" fill="#954A00" id="id-73625"></path></g></svg>