<?xml version="1.0" encoding="UTF-8"?><svg width="1320px" height="1760px" viewBox="0 0 1320 1760" version="1.1" xmlns="http://www.w3.org/2000/svg" xmlns:xlink="http://www.w3.org/1999/xlink"><defs></defs><path d=" M 684,1742 C 860,1671 949,1636 949,1636 C 951,1582 952,1556 952,1556 C 958,1606 961,1631 961,1631 C 1012,1610 1037,1599 1037,1599 C 1025,1197 1019,995 1019,995 C 955,751 923,629 923,629 C 878,606 856,595 856,595 C 822,571 805,558 805,558 L 786,546 C 623,559 539,566 534,566 C 482,568 457,568 457,568 C 451,585 448,594 448,594 C 392,636 363,657 363,657 C 370,684 373,697 373,697 C 317,1114 289,1322 289,1322 C 288,1374 288,1399 288,1399 C 342,1475 369,1512 369,1512 C 380,1499 386,1492 386,1492 C 388,1527 389,1544 389,1544 C 564,1663 652,1722 652,1722 C 655,1698 656,1686 656,1686 C 659,1710 660,1722 660,1722 L 682,1720 C 683,1735 684,1742 684,1742 Z" fill="#02071B" id="id-35891"></path></svg>