<?xml version="1.0" encoding="UTF-8"?><svg width="1320px" height="1760px" viewBox="0 0 1320 1760" version="1.1" xmlns="http://www.w3.org/2000/svg" xmlns:xlink="http://www.w3.org/1999/xlink"><defs><radialGradient cx="50%" cy="17%" r="93%" id="id-75694" fx="50%" fy="17%" gradientTransform=" translate(0.500,0.166) scale(0.954,1) rotate(90) translate(-0.500,-0.166)"><stop stop-color="#000000" offset="0%" stop-opacity="0.743"></stop><stop stop-color="#000000" offset="100%"></stop></radialGradient><radialGradient cx="50%" cy="17%" r="93%" id="id-75694" fx="50%" fy="17%" gradientTransform=" translate(0.500,0.166) scale(0.954,1) rotate(90) translate(-0.500,-0.166)"><stop stop-color="#000000" offset="0%" stop-opacity="0.743"></stop><stop stop-color="#000000" offset="100%"></stop></radialGradient></defs><g transform=" translate(575,464)" id="id-75696"><path d=" M 38,103 C 29,96 21,90 19,83 C 14,70 10,49 6,32 C 27,27 48,19 69,10 L 86,0 C 96,9 102,13 102,13 C 118,25 140,32 166,32 C 160,63 154,82 152,86 C 146,93 140,97 132,103 C 133,121 134,130 134,130 C 123,144 107,151 84,153 C 61,151 45,144 36,132 L 38,103 Z" fill="url(#id-75694)" opacity="0.932" id="id-75697"></path><path d=" M 38,103 C 29,96 21,90 19,83 C 14,70 10,49 6,32 C 27,27 48,19 69,10 L 86,0 C 96,9 102,13 102,13 C 118,25 140,32 166,32 C 160,63 154,82 152,86 C 146,93 140,97 132,103 C 133,121 134,130 134,130 C 123,144 107,151 84,153 C 61,151 45,144 36,132 L 38,103 Z" fill="url(#id-75694)" opacity="0.885" id="id-75697"></path><path d=" M 169,11 C 156,17 142,20 127,21 C 142,25 155,27 167,27 C 168,21 169,16 169,11 Z" fill="#000000" opacity="0.755" id="id-75699"></path><path d=" M 2,11 C 4,22 5,28 5,28 C 20,24 27,22 34,19 C 22,18 11,15 2,11 Z" fill="#000000" opacity="0.755" id="id-75700"></path><path d=" M 34,144 C 34,147 34,148 34,148 L 17,161 C 31,175 53,183 84,185 C 130,184 147,160 147,160 L 135,142 C 106,169 64,166 34,144 Z" fill="#000000" fill-opacity="0.919" opacity="0.827" id="id-75701"></path><path d=" M 13,165 C 27,180 51,189 84,190 C 131,189 152,165 152,165 L 166,176 C 146,195 117,205 80,205 C 42,205 15,195 0,174 L 13,165 Z" fill="#000000" fill-opacity="0.919" opacity="0.827" id="id-75702"></path><path d=" M 34,144 C 34,147 34,148 34,148 L 17,161 C 31,175 53,183 84,185 C 130,184 147,160 147,160 L 135,142 C 106,169 64,166 34,144 Z" fill="#000000" fill-opacity="0.919" opacity="0.827" id="id-75701"></path><path d=" M 13,165 C 27,180 51,189 84,190 C 131,189 152,165 152,165 L 166,176 C 146,195 117,205 80,205 C 42,205 15,195 0,174 L 13,165 Z" fill="#000000" fill-opacity="0.919" opacity="0.827" id="id-75702"></path></g></svg>