<?xml version="1.0" encoding="UTF-8"?><svg width="1320px" height="1760px" viewBox="0 0 1320 1760" version="1.1" xmlns="http://www.w3.org/2000/svg" xmlns:xlink="http://www.w3.org/1999/xlink"><defs></defs><g transform=" translate(551,234)" id="id-101298"><g transform=" translate(18,56)" id="id-101299"><polygon points="31 126 33 125 62 128 82 109 83 105 95 105 96 109 119 130 150 121 152 124 173 118 172 120 119 134 95 113 82 113 63 133 3 126 3 123" fill="#2F1B1C" id="id-101300"></polygon><path d=" M 177,74 L 158,47 L 158,37 L 151,33 L 147,27 L 126,27 L 122,20 L 54,21 L 25,33 L 26,48 L 13,66 L 8,97 C 8,97 -16,24 20,14 C 56,4 131,-14 166,19 C 202,52 177,74 177,74 Z" fill="#341A27" opacity="0.420" id="id-101300"></path></g><g transform=" translate(0,7)" id="id-101302"><path d=" M 102,13 L 113,20 L 114,63 L 109,57 L 109,65 L 71,66 L 76,56 C 76,56 65,68 65,69 C 65,70 57,69 57,69 C 57,69 91,11 102,13 Z" fill="#443A5E" id="id-101300"></path><path d=" M 112,47 L 75,47 L 90,29 C 90,29 114,42 112,47 Z" fill="#8084A1" id="id-101300"></path><path d=" M 108,42 L 87,40 L 85,29 L 62,66 L 62,69 L 46,76 L 44,73 L 36,79 L 39,97 L 28,113 L 25,143 L 27,211 L 17,200 L 19,161 L 10,158 C -22,90 25,21 101,7 L 71,5 L 104,0 L 106,9 L 111,6 L 111,18 L 102,14 C 102,14 105,40 108,42 Z" fill="#231012" id="id-101300"></path><polygon points="38 58 61 45 75 48" fill="#8084A1" id="id-101300"></polygon></g><g transform=" translate(104,0)" id="id-101307"><path d=" M 120,133 C 118,138 109,160 107,166 L 103,163 L 94,171 C 93,183 93,194 92,206 L 83,218 C 85,204 86,150 88,137 L 87,125 L 74,103 C 75,100 76,96 77,93 L 115,114 L 120,133 Z" fill="#899CC2" id="id-101300"></path><path d=" M 76,68 L 69,89 L 67,87 L 64,75 L 54,73 L 42,77 L 40,77 L 40,76 L 38,66 C 38,66 37,74 38,74 L 34,73 L 34,32 L 76,68 Z" fill="#899CC2" id="id-101300"></path><path d=" M 120,133 C 119,139 104,159 101,164 L 101,149 C 88,177 94,167 92,194 L 84,208 C 84,200 86,172 89,165 L 84,167 L 93,135 L 98,138 L 77,100 L 120,133 L 120,133 Z" fill="#D2DAEF" id="id-101300"></path><path d=" M 120,133 L 78,103 L 75,100 L 76,95 L 77,94 L 75,83 L 73,91 L 69,89 L 65,72 L 55,54 L 58,74 L 56,74 L 55,80 L 40,77 L 40,76 L 38,66 L 38,74 L 37,74 L 9,72 L 8,36 L 0,49 L 5,14 L 29,0 L 19,14 L 53,12 L 36,18 L 39,25 L 45,22 C 78,36 89,60 109,87 C 110,94 113,104 116,114 C 117,121 119,128 120,133 Z" fill="#F1F0F2" id="id-101300"></path><polygon points="11 22 13 58 18 40" fill="#251215" id="id-101300"></polygon></g></g></svg>