<?xml version="1.0" encoding="UTF-8"?><svg width="1320px" height="1760px" viewBox="0 0 1320 1760" version="1.1" xmlns="http://www.w3.org/2000/svg" xmlns:xlink="http://www.w3.org/1999/xlink"><defs></defs><g transform=" translate(561,189)" id="id-100697"><path d=" M 47,229 L 40,218 L 71,213 L 88,196 L 102,195 L 119,213 L 154,218 L 148,230 C 116,222 122,221 101,199 L 89,199 L 68,224 L 47,229 Z" fill="#2D1A1C" id="id-100698"></path><polygon points="38 219 45 230 42 232 34 221" fill="#2D1A1C" id="id-100698"></polygon><polygon points="158 220 151 231 154 234 161 222" fill="#2D1A1C" id="id-100698"></polygon><polygon points="88 189 88 194 101 194 101 188" fill="#2D1A1C" id="id-100698"></polygon><path d=" M 186,219 L 193,214 L 197,148 L 192,134 L 198,136 L 184,112 L 187,112 L 178,101 C 180,105 167,128 165,132 L 173,127 L 170,141 L 177,132 C 175,152 174,151 183,169 L 186,219 Z" fill="#2D1A1C" id="id-100698"></path><path d=" M 13,214 L 6,210 C 6,200 -1,139 6,132 L 1,133 L 15,110 L 12,110 C 12,110 21,98 24,98 L 34,125 L 27,117 L 31,132 L 25,128 C 25,134 25,140 25,146 L 15,166 L 13,214 Z" fill="#2D1A1C" id="id-100698"></path><path d=" M 55,79 L 109,94 L 147,81 L 127,71 L 126,63 L 129,57 L 124,54 L 121,40 L 126,41 C 130,33 124,9 116,2 C 100,-9 50,28 81,38 L 80,53 L 73,56 C 73,56 73,62 76,64 L 76,67 C 76,67 57,77 55,79 Z" fill="#2D1A1C" id="id-100698"></path><path d=" M 123,51 L 105,47 C 105,46 80,53 80,53 L 84,29 L 97,23 L 114,26 C 114,26 122,40 123,51 Z" fill="#B56D29" id="id-100698"></path><path d=" M 105,47 C 105,46 80,53 80,53 L 84,29 L 97,23 L 101,24 C 99,32 101,40 105,47 L 105,47 Z" fill="#8C4C20" id="id-100698"></path><path d=" M 97,35 L 101,30 L 106,33 L 102,43 C 102,43 96,38 97,35 Z" fill="#ED1860" id="id-100698"></path><path d=" M 118,32 L 116,38 L 120,47 L 124,38 C 124,38 121,32 118,32 Z" fill="#ED1860" id="id-100698"></path><path d=" M 83,33 L 87,38 L 80,49 L 78,40 C 78,40 82,33 83,33 Z" fill="#ED1860" id="id-100698"></path><polygon points="99 127 81 149 97 172 116 150" fill="#2D1A1C" id="id-100698"></polygon><polygon points="116 138 120 148 144 147 137 142" fill="#2D1A1C" id="id-100698"></polygon><polygon points="81 140 74 148 51 148 56 142" fill="#2D1A1C" id="id-100698"></polygon><path d=" M 120,142 L 122,146 L 138,146 C 136,143 123,142 120,142 Z" fill="#ED1A62" id="id-100698"></path><polygon points="77 142 73 147 57 146 61 143" fill="#ED1A62" id="id-100698"></polygon><polygon points="112 152 97 167 83 149 98 130" fill="#ED1A62" id="id-100698"></polygon><path d=" M 112,152 L 97,167 L 83,149 L 94,140 L 90,150 L 96,156 C 97,155 109,150 110,149 L 112,152 Z" fill="#802938" id="id-100698"></path><path d=" M 112,152 L 97,167 L 97,156 C 97,155 110,149 110,149 L 112,152 Z" fill="#D21C5A" id="id-100698"></path><path d=" M 105,49 C 109,54 101,64 99,67 C 99,67 116,66 122,70 C 122,70 118,60 119,58 L 114,63 C 114,63 110,50 105,49 Z" fill="#554143" id="id-100698"></path><path d=" M 105,74 L 106,89 L 121,77 L 118,88 L 139,82 C 139,82 139,75 123,74 C 117,72 111,72 105,74 L 105,74 Z" fill="#554143" id="id-100698"></path><path d=" M 109,2 C 112,3 114,4 117,5 C 120,7 122,19 123,22 C 123,22 118,27 114,26 C 114,26 117,17 117,15 L 108,22 C 108,22 111,5 109,2 Z" fill="#554143" id="id-100698"></path></g></svg>