<?xml version="1.0" encoding="UTF-8"?><svg width="1320px" height="1760px" viewBox="0 0 1320 1760" version="1.1" xmlns="http://www.w3.org/2000/svg" xmlns:xlink="http://www.w3.org/1999/xlink"><defs></defs><g transform=" translate(367,634)" id="id-40436"><path d=" M 40,640 C 13,634 0,631 0,631 C 8,590 12,570 12,570 C 24,481 30,437 30,437 C 36,414 55,384 61,353 C 68,277 72,239 72,239 C 74,184 74,157 74,157 C 70,149 68,144 68,144 C 80,85 86,55 86,55 C 112,44 124,38 124,38 C 152,29 178,15 205,2 C 265,32 296,47 296,47 C 357,16 387,0 387,0 C 399,8 406,12 406,12 C 446,28 466,36 466,36 C 486,47 496,53 496,53 C 508,107 514,134 514,134 C 510,147 508,154 508,154 C 509,156 510,157 510,157 C 511,202 512,224 512,224 C 509,225 507,225 507,225 C 509,249 510,261 510,261 C 511,308 512,331 512,331 C 530,413 540,454 540,454 C 547,532 551,571 551,571 C 556,596 558,608 558,608 C 561,618 563,622 563,622 C 534,632 520,637 520,637 C 515,624 512,617 512,617 C 463,488 439,424 439,424 C 437,368 436,309 429,261 C 428,263 428,264 428,264 C 427,293 427,308 427,308 C 428,329 428,340 428,340 C 420,352 415,358 415,358 C 247,357 163,356 163,356 C 155,345 152,340 152,340 C 153,331 154,327 154,327 C 154,303 154,291 154,291 C 153,284 153,280 153,280 C 142,320 137,341 137,341 C 133,398 132,427 132,427 C 93,509 74,550 74,550 L 49,611 C 43,630 40,640 40,640 Z" fill="#000919" id="id-40437"></path><path d=" M 354,231 C 366,243 372,249 372,249 C 339,249 323,249 323,249 C 340,237 348,231 348,231 C 276,242 239,248 239,248 C 183,227 155,216 155,216 L 132,182 C 130,154 129,140 129,140 L 142,119 L 114,68 L 85,53 L 100,47 L 243,21 C 278,38 296,47 296,47 C 350,19 377,6 377,6 C 430,29 456,41 456,41 C 465,59 470,68 470,68 L 477,66 L 448,185 L 453,207 L 447,211 C 385,225 354,231 354,231 Z" fill="#1E2438" id="id-40438"></path><path d=" M 35,610 C 39,612 41,613 41,613 C 48,547 76,483 105,418 C 84,417 73,416 73,416 C 95,389 105,376 105,376 C 104,336 110,293 123,246 C 109,244 102,243 102,243 C 106,296 100,348 73,401 C 48,540 35,610 35,610 Z" fill="#191C34" id="id-40439"></path><path d=" M 72,238 C 108,243 126,245 126,245 C 133,236 136,232 136,232 C 131,171 129,140 129,140 C 138,126 143,119 143,119 L 113,67 L 85,53 L 68,144 L 75,158 C 73,211 72,238 72,238 Z" fill="#14182C" id="id-40440"></path><path d=" M 114,68 C 137,109 148,129 148,129 C 137,157 132,170 132,170 L 134,209 C 143,228 153,243 153,283 L 154,291 L 154,328 L 152,340 C 159,351 163,356 163,356 C 182,347 191,342 191,342 C 212,352 222,356 222,356 C 293,350 328,346 328,346 C 221,274 167,238 167,238 C 159,224 155,216 155,216 C 141,195 135,184 135,184 C 163,139 177,117 177,117 C 177,92 176,80 176,80 L 148,116 C 125,84 114,68 114,68 Z" fill="#1B1F31" id="id-40441"></path><path d=" M 100,47 C 134,43 151,41 151,41 C 212,28 243,21 243,21 L 205,2 C 181,14 157,24 124,36 C 108,43 100,47 100,47 Z" fill="#1B1F31" id="id-40442"></path><path d=" M 363,15 C 333,31 319,39 319,39 C 324,46 327,50 327,50 L 371,26 C 366,19 363,15 363,15 Z" fill="#262D4A" id="id-40443"></path><path d=" M 383,27 C 333,53 308,66 308,66 C 265,172 243,225 243,225 C 328,212 370,205 370,205 C 359,223 354,232 354,232 C 391,223 410,219 410,219 C 435,200 448,191 448,191 C 437,139 432,113 432,113 C 443,81 448,65 448,65 C 430,93 421,107 421,107 L 421,45 C 396,33 383,27 383,27 Z" fill="#272E4B" id="id-40444"></path><path d=" M 439,98 C 451,129 457,144 457,144 L 447,182 L 433,113 C 437,103 439,98 439,98 Z" fill="#1B1F31" id="id-40445"></path><path d=" M 458,150 C 451,172 448,183 448,183 C 450,196 452,202 452,202 L 463,178 C 460,159 458,150 458,150 Z" fill="#040514" id="id-40446"></path><path d=" M 440,238 C 454,235 461,234 461,234 L 453,207 C 444,228 440,238 440,238 Z" fill="#0C0F1E" id="id-40447"></path><path d=" M 428,264 C 405,269 394,271 394,271 L 427,307 C 428,278 428,264 428,264 Z" fill="#121726" id="id-40448"></path><path d=" M 394,271 C 380,318 373,341 373,341 L 397,358 L 428,340 L 427,307 C 405,283 394,271 394,271 Z" fill="#181D2D" id="id-40449"></path><path d=" M 457,353 C 475,367 485,374 485,374 L 491,229 L 507,225 C 510,261 510,296 512,331 L 540,454 L 551,571 L 558,608 C 561,618 563,622 563,622 C 542,629 532,633 532,633 L 525,614 C 484,450 462,363 457,353 Z" fill="#191C35" id="id-40450"></path><path d=" M 523,381 C 496,427 483,451 483,451 C 485,464 486,471 486,471 L 533,427 C 527,396 523,381 523,381 Z" fill="#516E3F" id="id-40451"></path><path d=" M 537,443 C 504,472 488,486 488,486 C 489,495 490,499 490,499 L 542,482 L 540,454 C 538,447 537,443 537,443 Z" fill="#4A6739" id="id-40452"></path><path d=" M 511,466 L 521,489 L 490,499 L 488,486 C 503,472 511,466 511,466 Z" fill="#365128" id="id-40453"></path><path d=" M 446,192 L 447,211 L 410,219 C 434,201 446,192 446,192 Z" fill="#212941" id="id-40454"></path><path d=" M 188,282 L 221,275 C 293,323 328,346 328,346 L 269,351 C 215,305 188,282 188,282 Z" fill="#15192C" id="id-40455"></path><path d=" M 496,53 C 484,62 477,66 477,66 C 473,86 470,96 470,96 C 492,114 502,124 502,124 L 511,122 L 496,53 Z" fill="#29304E" id="id-40456"></path><path d=" M 470,96 C 479,134 484,153 484,153 L 514,132 L 511,122 L 502,124 C 481,105 470,96 470,96 Z" fill="#1E2438" id="id-40457"></path><path d=" M 508,154 C 507,153 506,153 506,153 C 490,160 481,164 481,164 C 481,192 482,205 482,205 L 512,220 L 510,158 C 509,155 508,154 508,154 Z" fill="#FFFFFF" id="id-40458"></path><path d=" M 510,159 C 494,165 486,168 486,168 C 486,190 485,201 485,201 L 512,211 C 511,176 510,159 510,159 Z" fill="#FDA602" id="id-40459"></path><path d=" M 511,170 C 497,171 490,172 490,172 C 489,186 489,194 489,194 L 511,195 C 511,178 511,170 511,170 Z" fill="#282435" id="id-40460"></path><polygon points="239 248 354 232 447 211 453 207 428 264 394 271 208 266 166 238 155 216" fill="#181C2D" id="id-40461"></polygon><polygon points="208 266 239 248 346 232 354 232 394 271 373 341 328 346" fill="#1E2438" id="id-40462"></polygon><path d=" M 201,146 L 198,140 L 197,140 L 195,151 M 194,154 L 189,179 L 197,179 L 200,161 L 211,180 L 212,180 L 222,162 L 225,179 L 234,179 L 226,140 L 225,140 L 212,164 L 202,148 M 251,171 C 251,170 250,170 250,170 C 249,168 248,165 248,162 L 248,142 L 239,142 L 239,163 C 239,169 240,173 243,176 C 244,177 245,178 247,178 M 250,179 C 251,180 253,180 255,180 C 260,180 264,179 267,176 C 270,173 271,168 271,163 L 271,142 L 263,142 L 263,163 C 263,166 262,168 261,170 C 260,171 258,172 255,172 C 254,172 253,172 253,171 M 286,180 C 287,180 285,184 279,192 C 289,183 295,177 295,177 C 298,174 299,171 299,168 C 299,165 298,163 297,162 C 296,160 294,158 290,156 L 286,154 C 285,153 284,153 284,152 C 283,151 283,151 283,150 C 283,149 284,149 284,148 C 285,147 286,147 287,147 C 288,147 290,147 291,148 C 293,149 294,150 296,151 L 296,142 C 294,141 293,141 291,140 C 290,140 288,140 287,140 C 283,140 281,141 278,143 C 276,145 275,147 275,150 C 275,153 276,155 277,156 C 278,158 280,160 282,161 L 285,162 C 285,163 285,163 286,163 C 289,165 291,167 291,168 C 291,169 290,170 289,171 C 288,172 287,172 286,172 C 284,172 283,172 281,171 C 279,171 278,170 275,168 L 276,178 C 278,179 280,179 281,180 C 283,180 284,180 286,180 Z M 323,180 C 325,180 327,180 328,179 C 330,179 332,178 333,177 L 334,167 C 332,168 330,170 329,170 C 327,171 325,171 323,171 C 320,171 318,170 316,168 C 314,166 313,163 313,160 C 313,157 314,154 316,152 C 318,149 320,148 323,148 C 325,148 327,149 328,150 C 330,150 331,152 333,153 L 334,144 C 332,142 330,142 329,141 C 327,140 325,140 323,140 C 322,140 324,137 329,131 C 321,138 316,141 315,142 C 313,143 311,144 309,146 C 308,148 306,150 305,152 C 304,155 304,157 304,160 C 304,163 305,166 306,169 C 307,172 309,174 311,176 C 313,177 315,178 317,179 C 319,180 321,180 323,180 Z M 364,179 L 364,171 L 349,171 L 349,142 L 340,142 L 340,179 L 364,179 Z M 391,179 L 391,171 L 376,171 L 376,164 L 389,164 L 389,156 L 376,156 L 376,150 L 391,150 L 391,142 L 381,142 L 371,152 L 376,142 L 367,142 L 367,179 L 391,179 Z" fill="#B0B3C7" id="id-40463" fill-rule="nonzero"></path></g></svg>