<?xml version="1.0" encoding="UTF-8"?><svg width="1320px" height="1760px" viewBox="0 0 1320 1760" version="1.1" xmlns="http://www.w3.org/2000/svg" xmlns:xlink="http://www.w3.org/1999/xlink"><defs></defs><g transform=" translate(585,598)" id="id-61455"><path d=" M 59,123 C 66,133 69,138 69,138 C 80,126 85,120 85,120 L 71,111 C 63,119 59,123 59,123 Z" stroke="#979797" id="id-61456"></path><path d=" M 53,122 C 52,121 55,119 55,119 C 18,60 0,31 0,31 C 11,24 17,21 17,21 C 53,73 72,100 72,100 C 73,98 73,97 73,97 C 75,99 76,101 76,101 C 117,51 137,26 137,26 C 146,35 150,40 150,40 C 108,93 86,119 86,119 L 93,124 L 70,158 C 63,146 57,134 53,122 Z" fill="#C16400" id="id-61457"></path><path d=" M 53,109 C 66,103 72,100 72,100 C 66,91 60,83 56,78 C 52,78 46,81 40,89 C 49,103 53,109 53,109 Z" fill="#F4CD70" id="id-61458"></path><path d=" M 56,78 C 48,66 33,43 33,43 L 15,51 L 40,89 C 46,82 52,78 56,78 Z" fill="#DCAC27" id="id-61459"></path><path d=" M 37,74 C 41,76 43,77 43,77 L 45,69 C 40,73 37,74 37,74 Z" fill="#CA7A0C" id="id-61460"></path><path d=" M 31,49 C 31,55 30,58 30,58 L 22,55 C 28,51 31,49 31,49 Z" fill="#CA7A0C" id="id-61461"></path><path d=" M 27,37 C 20,40 17,41 17,41 L 25,46 C 27,40 27,37 27,37 Z" fill="#DDAB27" id="id-61462"></path><path d=" M 10,34 C 10,36 9,37 9,37 C 15,38 18,38 18,38 C 19,34 20,32 20,32 L 20,30 C 13,33 10,34 10,34 Z" fill="#DDAB27" id="id-61463"></path><path d=" M 73,97 C 72,99 72,99 72,99 C 72,100 72,101 72,101 C 63,111 57,117 54,120 C 62,145 75,153 90,122 C 88,118 82,109 73,97 Z" fill="#F4CD70" id="id-61464"></path><path d=" M 78,103 C 86,107 90,109 90,109 C 100,98 105,93 105,93 L 91,82 L 76,101 C 78,102 78,103 78,103 Z" fill="#F4CD70" id="id-61465"></path><path d=" M 92,82 C 106,64 113,55 113,55 L 130,62 L 105,93 C 96,86 92,82 92,82 Z" fill="#DCAC27" id="id-61466"></path><path d=" M 104,72 C 102,79 101,83 101,83 L 114,75 C 107,73 104,72 104,72 Z" fill="#CA7A0C" id="id-61467"></path><path d=" M 113,62 C 112,67 111,69 111,69 L 119,64 C 115,63 113,62 113,62 Z" fill="#CA7A0C" id="id-61468"></path><path d=" M 138,49 C 131,51 128,51 128,51 L 131,45 C 135,48 138,49 138,49 Z" fill="#D28D17" id="id-61469"></path><path d=" M 143,40 C 138,37 136,35 136,35 L 133,43 C 140,41 143,40 143,40 Z" fill="#D28D17" id="id-61470"></path><path d=" M 52,14 C 50,20 51,30 51,35 C 69,38 87,37 101,35 C 101,30 101,21 100,15 C 83,18 63,17 52,14 Z" fill="#0E385F" id="id-61471"></path><path d=" M 20,0 C 30,15 98,28 128,3 C 128,9 131,16 135,23 C 135,22 135,21 136,22 C 137,24 142,28 142,28 C 102,121 76,179 65,204 C 57,183 39,107 39,107 C 30,83 24,68 21,62 C 7,57 0,46 1,31 C 3,25 5,22 9,18 C 5,39 8,52 19,55 C 17,50 16,47 16,47 C 14,35 12,27 12,23 L 11,23 C 11,22 11,22 11,22 L 11,22 C 11,21 11,20 11,20 C 14,17 15,15 15,15 L 15,15 L 20,46 L 25,58 L 28,59 C 21,32 17,18 17,18 C 18,10 19,4 20,0 Z M 123,63 L 65,169 L 49,130 C 60,171 65,192 65,192 C 102,110 121,67 123,63 L 123,63 C 123,63 123,63 123,63 Z M 129,35 C 129,35 86,83 33,65 C 35,70 36,79 39,90 C 41,97 46,109 52,124 L 53,125 C 57,134 61,144 66,155 L 67,157 L 129,35 Z M 27,64 C 27,64 28,67 31,73 L 31,73 L 29,64 L 29,64 C 29,64 28,64 27,64 Z M 22,24 C 22,24 24,33 27,43 L 27,44 C 27,44 27,44 27,44 L 28,45 L 28,46 C 29,51 30,56 31,60 C 73,65 107,54 133,25 C 117,33 98,37 76,37 C 46,37 28,32 22,24 Z" fill="#20012D" id="id-61472"></path><path d=" M 72,13 C 72,30 72,38 72,38 C 78,38 81,39 81,39 L 80,15 C 75,14 72,13 72,13 Z" fill="#84B5E0" id="id-61473"></path><path d=" M 72,17 C 78,18 81,19 81,19 L 81,15 L 72,13 C 72,16 72,17 72,17 Z" fill="#E4FCFF" id="id-61474"></path><path d=" M 56,59 C 57,68 58,72 58,72 C 64,71 67,71 67,71 L 63,59 C 59,59 56,59 56,59 Z" fill="#F5293C" id="id-61475"></path><path d=" M 65,65 L 57,68 L 58,72 L 67,71 C 66,67 65,65 65,65 Z" fill="#A00004" id="id-61476"></path><path d=" M 68,58 C 68,66 67,69 67,69 C 73,70 76,70 76,70 L 77,56 C 71,57 68,58 68,58 Z" fill="#F5293C" id="id-61477"></path><path d=" M 76,61 L 67,64 L 67,70 L 76,69 C 76,64 76,61 76,61 Z" fill="#A00004" id="id-61478"></path><path d=" M 77,56 C 82,64 84,68 84,68 C 89,65 92,63 92,63 L 85,52 C 80,55 77,56 77,56 Z" fill="#F5293C" id="id-61479"></path><path d=" M 88,57 L 79,60 L 84,68 L 92,63 C 89,59 88,57 88,57 Z" fill="#A00004" id="id-61480"></path><path d=" M 91,50 C 93,59 94,63 94,63 C 100,60 102,59 102,59 L 95,48 C 92,50 91,50 91,50 Z" fill="#F5293C" id="id-61481"></path><path d=" M 98,53 L 92,55 L 94,63 L 102,59 C 100,55 98,53 98,53 Z" fill="#A00004" id="id-61482"></path><path d=" M 59,175 C 58,177 57,178 57,178 C 59,186 61,190 61,190 C 54,187 50,186 50,186 C 36,187 30,188 30,188 C 41,191 47,193 47,193 C 56,193 61,193 61,193 C 62,193 62,194 62,194 C 53,197 48,199 48,199 C 43,215 41,223 41,223 C 55,204 63,195 63,195 C 63,196 64,196 64,196 C 61,204 59,208 59,208 C 64,232 67,244 67,244 C 70,220 71,209 71,209 C 70,204 69,202 69,202 C 73,207 74,209 74,209 C 86,215 92,219 92,219 C 83,208 79,202 79,202 C 71,197 67,194 67,194 C 75,193 79,193 79,193 C 89,191 93,190 93,190 C 84,187 79,185 79,185 C 73,189 69,191 69,191 C 74,182 77,178 77,178 C 74,177 73,177 73,177 L 65,192 C 61,181 59,175 59,175 Z" fill="#1F5C3B" id="id-61483"></path></g></svg>