<?xml version="1.0" encoding="UTF-8"?><svg width="1320px" height="1760px" viewBox="0 0 1320 1760" version="1.1" xmlns="http://www.w3.org/2000/svg" xmlns:xlink="http://www.w3.org/1999/xlink"><defs><radialGradient cx="50%" cy="50%" r="66%" id="id-112298" fx="50%" fy="50%" gradientTransform=" translate(0.500,0.500) scale(0.726,1) scale(1,0.941) translate(-0.500,-0.500)"><stop stop-color="#008425" offset="0%"></stop><stop stop-color="#008425" offset="100%"></stop></radialGradient></defs><g transform=" translate(496,1016)" id="id-112299"><g id="id-112300"><path d=" M 19,5 C 12,5 8,9 5,15 C 0,92 -1,174 1,259 C 1,265 4,270 10,272 L 352,272 C 364,270 371,264 371,255 C 379,136 373,19 373,19 C 372,9 365,4 352,4 C 192,-4 179,1 19,5 Z" fill="url(#id-112298)" id="id-112301"></path><path d=" M 38,5 C 20,24 11,41 2,58 L 0,231 C 6,245 14,259 24,273 C 41,273 49,273 49,273 C 19,239 2,199 2,146 C 1,100 17,46 64,5 L 38,5 Z" fill="#00B100" id="id-112302"></path><path d=" M 104,273 L 146,273 C 85,250 55,205 56,139 C 66,59 123,7 200,6 C 273,6 339,52 355,139 C 361,211 339,241 318,273 L 341,273 C 358,247 368,220 373,192 C 374,157 375,139 375,139 C 363,71 327,25 267,0 L 133,1 C 58,35 40,107 37,139 C 35,188 56,243 104,273 Z" fill="#00B100" id="id-112303"></path><path d=" M 264,273 C 312,237 329,189 316,128 C 296,72 256,43 199,42 C 143,44 98,84 93,137 C 89,164 102,238 181,243 C 220,243 261,222 266,165 C 269,112 228,97 200,97 C 175,99 150,111 146,143 C 142,163 150,187 183,190 C 215,190 215,153 215,153 C 203,152 197,152 197,152 C 199,162 195,168 186,172 C 174,173 157,160 165,133 C 171,125 182,115 200,115 C 218,115 252,125 247,172 C 244,200 217,226 186,226 C 143,222 108,200 112,137 C 119,86 160,60 199,60 C 287,60 308,146 301,182 C 292,233 260,259 224,273 C 251,273 264,273 264,273 Z" fill="#00B100" id="id-112304"></path><path d=" M 372,39 C 351,15 341,3 341,3 C 356,5 364,6 364,6 C 369,7 372,11 372,18 L 372,39 Z" fill="#00B100" id="id-112305"></path></g><path d=" M 49,241 C 51,241 53,241 55,240 C 58,239 60,238 61,237 L 62,225 C 60,227 58,229 56,230 C 54,231 51,232 49,232 C 46,232 43,231 40,229 C 38,226 37,223 37,220 C 37,216 38,212 40,210 C 43,207 46,206 49,205 C 51,205 53,206 55,206 C 57,207 59,208 61,210 L 62,199 C 60,198 58,197 56,197 C 53,196 51,196 49,196 C 46,196 43,197 40,198 C 38,200 35,202 33,204 C 31,206 29,209 28,211 C 27,214 27,217 27,220 C 27,224 27,227 29,230 C 30,233 32,236 35,238 C 37,239 39,240 42,241 C 44,241 46,242 49,241 Z M 88,238 C 91,238 94,237 97,235 C 100,234 103,231 105,228 C 106,226 108,224 108,222 C 109,219 109,217 109,214 C 109,211 109,208 108,205 C 107,203 105,200 103,198 C 101,197 99,195 96,194 C 93,193 91,193 88,193 C 85,193 82,194 79,195 C 77,197 74,199 72,201 C 70,203 69,206 68,208 C 67,211 66,214 66,217 C 66,221 67,223 68,226 C 69,229 70,231 72,233 C 75,235 77,236 79,237 C 82,238 85,239 88,238 Z M 88,229 C 85,229 82,228 80,226 C 78,223 77,220 77,217 C 77,213 78,210 80,207 C 82,204 85,203 88,203 C 91,202 94,204 96,206 C 98,208 99,211 99,215 C 99,219 98,222 96,224 C 94,227 91,229 88,229 Z M 139,234 L 150,212 L 154,231 L 163,230 L 154,187 L 154,187 L 139,216 L 123,189 L 122,190 L 113,234 L 122,233 L 126,213 L 138,234 L 139,234 Z M 193,230 L 204,208 L 208,227 L 217,226 L 209,183 L 208,183 L 193,212 L 177,185 L 176,186 L 167,230 L 176,229 L 180,209 L 192,230 L 193,230 Z M 227,224 L 230,218 L 247,217 L 250,223 L 260,222 L 239,180 L 239,180 L 217,225 L 227,224 Z M 244,210 L 233,211 L 239,197 L 244,210 Z M 301,221 L 301,176 L 292,177 L 292,201 L 266,178 L 265,178 L 265,222 L 274,221 L 274,198 L 301,221 L 301,221 Z M 321,217 C 325,217 328,217 330,216 C 332,215 334,214 336,213 C 340,211 342,208 344,205 C 346,202 347,198 347,194 C 347,188 345,183 340,179 C 336,176 329,174 321,175 L 310,176 L 310,218 L 321,217 Z M 320,208 L 320,184 L 322,184 C 327,183 330,184 333,186 C 335,188 337,191 337,195 C 337,199 335,202 333,204 C 330,206 327,208 322,208 L 320,208 Z" fill="#00FF89" id="id-112306" fill-rule="nonzero"></path><path d=" M 84,164 L 84,121 L 74,122 L 74,165 L 84,164 Z M 103,164 C 107,163 111,162 114,159 C 117,156 118,153 118,149 C 118,146 118,144 116,142 C 115,140 112,138 108,136 L 103,134 C 102,133 101,133 101,132 C 100,131 100,131 100,130 C 100,129 100,128 101,127 C 102,127 103,126 104,126 C 106,126 107,126 109,127 C 111,128 113,128 115,129 L 115,120 C 113,119 111,119 109,118 C 107,118 106,118 104,118 C 100,119 97,120 94,122 C 92,125 90,128 90,131 C 90,133 91,136 92,138 C 94,139 96,141 99,142 L 101,144 C 102,144 102,144 103,145 C 107,146 108,148 108,150 C 108,151 108,152 107,153 C 106,154 104,154 103,155 C 101,155 99,155 97,154 C 95,154 93,153 91,151 L 91,162 C 94,163 96,163 98,164 C 99,164 101,164 103,164 Z M 161,157 L 161,137 L 178,114 L 167,115 L 157,129 L 148,116 L 136,117 L 151,138 L 151,158 L 161,157 Z M 198,156 C 202,156 205,155 208,153 C 211,151 214,149 216,146 C 217,144 218,142 219,139 C 220,137 220,134 220,132 C 220,128 220,126 219,123 C 217,120 216,118 214,116 C 212,114 209,113 207,112 C 204,111 201,110 198,111 C 196,111 193,112 190,113 C 188,114 185,116 183,118 C 181,121 180,123 178,126 C 177,129 177,132 177,135 C 177,138 177,141 178,144 C 180,146 181,149 183,151 C 185,153 188,154 190,155 C 193,156 196,156 198,156 Z M 198,146 C 195,147 193,146 190,143 C 188,141 187,138 187,134 C 187,130 188,127 190,125 C 193,122 195,121 198,120 C 202,120 204,121 206,123 C 209,126 210,129 210,132 C 210,136 209,139 206,142 C 204,145 202,146 198,146 Z M 245,152 C 250,152 255,150 258,146 C 261,142 263,138 263,131 L 263,107 L 253,108 L 253,132 C 253,135 253,138 251,140 C 250,142 248,143 245,143 C 242,143 240,142 239,141 C 238,139 237,136 237,132 L 237,109 L 227,110 L 227,134 C 227,140 228,145 232,148 C 235,151 239,153 245,152 Z M 282,148 L 282,131 L 283,131 L 294,147 L 306,146 L 293,129 C 296,127 298,126 299,124 C 300,121 301,119 301,116 C 301,115 301,113 300,111 C 299,110 298,108 296,107 C 295,106 293,106 291,105 C 289,105 286,105 283,105 L 272,106 L 272,149 L 282,148 Z M 282,125 L 282,113 L 283,113 C 286,113 288,113 290,114 C 291,115 292,116 292,118 C 292,120 291,122 290,123 C 288,124 286,125 284,125 L 282,125 Z" fill="#00FF89" id="id-112307" fill-rule="nonzero"></path><path d=" M 84,94 L 95,71 L 99,91 L 109,90 L 100,46 L 99,46 L 83,76 L 67,49 L 66,49 L 57,95 L 66,94 L 70,73 L 83,94 L 84,94 Z M 132,88 L 132,67 L 149,43 L 138,44 L 128,58 L 119,45 L 106,46 L 122,68 L 122,89 L 132,88 Z M 181,86 L 191,60 L 200,85 L 201,84 L 219,38 L 209,38 L 201,63 L 191,38 L 191,39 L 181,64 L 173,41 L 162,42 L 181,86 L 181,86 Z M 233,80 L 233,36 L 223,37 L 223,81 L 233,80 Z M 254,80 C 259,79 263,78 265,75 C 268,72 270,68 270,64 C 270,61 269,59 268,57 C 266,55 263,53 259,51 L 254,49 C 253,48 252,48 252,47 C 251,47 251,46 251,45 C 251,44 251,43 252,42 C 253,42 254,41 256,41 C 257,41 258,41 260,42 C 262,42 264,43 266,44 L 266,34 C 264,34 262,33 260,33 C 259,33 257,33 255,33 C 251,33 248,35 245,37 C 242,40 241,43 241,46 C 241,49 242,51 243,53 C 244,55 247,57 249,58 L 252,59 C 253,60 253,60 254,60 C 258,62 260,64 260,66 C 260,67 259,68 258,69 C 257,70 256,70 254,70 C 252,71 250,70 248,70 C 246,69 244,68 241,67 L 242,79 C 245,79 247,79 249,80 C 250,80 252,80 254,80 Z M 286,75 L 286,57 L 303,56 L 303,74 L 313,73 L 313,29 L 303,30 L 303,46 L 286,48 L 286,31 L 276,32 L 276,76 L 286,75 Z" fill="#00FF89" id="id-112308" fill-rule="nonzero"></path><path d=" M 52,238 C 54,238 56,238 58,237 C 61,236 63,235 64,234 L 65,222 C 63,224 61,226 59,227 C 57,228 54,229 52,229 C 49,229 46,228 43,226 C 41,223 40,220 40,217 C 40,213 41,209 43,207 C 46,204 49,203 52,202 C 54,202 56,203 58,203 C 60,204 62,205 64,207 L 65,196 C 63,195 61,194 59,194 C 56,193 54,193 52,193 C 49,193 46,194 43,195 C 41,197 38,199 36,201 C 34,203 32,206 31,208 C 30,211 30,214 30,217 C 30,221 30,224 32,227 C 33,230 35,233 38,235 C 40,236 42,237 45,238 C 47,238 49,239 52,238 Z M 91,235 C 94,235 97,234 100,232 C 103,231 106,228 108,225 C 109,223 111,221 111,219 C 112,216 112,214 112,211 C 112,208 112,205 111,202 C 110,200 108,197 106,195 C 104,194 102,192 99,191 C 96,190 94,190 91,190 C 88,190 85,191 82,192 C 80,194 77,196 75,198 C 73,200 72,203 71,205 C 70,208 69,211 69,214 C 69,218 70,220 71,223 C 72,226 73,228 75,230 C 78,232 80,233 82,234 C 85,235 88,236 91,235 Z M 91,226 C 88,226 85,225 83,223 C 81,220 80,217 80,214 C 80,210 81,207 83,204 C 85,201 88,200 91,200 C 94,199 97,201 99,203 C 101,205 102,208 102,212 C 102,216 101,219 99,221 C 97,224 94,226 91,226 Z M 142,231 L 153,209 L 157,228 L 166,227 L 157,184 L 157,184 L 142,213 L 126,186 L 125,187 L 116,231 L 125,230 L 129,210 L 141,231 L 142,231 Z M 196,227 L 207,205 L 211,224 L 220,223 L 212,180 L 211,180 L 196,209 L 180,182 L 179,183 L 170,227 L 179,226 L 183,206 L 195,227 L 196,227 Z M 230,221 L 233,215 L 250,214 L 253,220 L 263,219 L 242,177 L 242,177 L 220,222 L 230,221 Z M 247,207 L 236,208 L 242,194 L 247,207 Z M 304,218 L 304,173 L 295,174 L 295,198 L 269,175 L 268,175 L 268,219 L 277,218 L 277,195 L 304,218 L 304,218 Z M 324,214 C 328,214 331,214 333,213 C 335,212 337,211 339,210 C 343,208 345,205 347,202 C 349,199 350,195 350,191 C 350,185 348,180 343,176 C 339,173 332,171 324,172 L 313,173 L 313,215 L 324,214 Z M 323,205 L 323,181 L 325,181 C 330,180 333,181 336,183 C 338,185 340,188 340,192 C 340,196 338,199 336,201 C 333,203 330,205 325,205 L 323,205 Z" fill="#FFFFFF" id="id-112306" fill-rule="nonzero"></path><path d=" M 87,161 L 87,118 L 77,119 L 77,162 L 87,161 Z M 106,161 C 110,160 114,159 117,156 C 120,153 121,150 121,146 C 121,143 121,141 119,139 C 118,137 115,135 111,133 L 106,131 C 105,130 104,130 104,129 C 103,128 103,128 103,127 C 103,126 103,125 104,124 C 105,124 106,123 107,123 C 109,123 110,123 112,124 C 114,125 116,125 118,126 L 118,117 C 116,116 114,116 112,115 C 110,115 109,115 107,115 C 103,116 100,117 97,119 C 95,122 93,125 93,128 C 93,130 94,133 95,135 C 97,136 99,138 102,139 L 104,141 C 105,141 105,141 106,142 C 110,143 111,145 111,147 C 111,148 111,149 110,150 C 109,151 107,151 106,152 C 104,152 102,152 100,151 C 98,151 96,150 94,148 L 94,159 C 97,160 99,160 101,161 C 102,161 104,161 106,161 Z M 164,154 L 164,134 L 181,111 L 170,112 L 160,126 L 151,113 L 139,114 L 154,135 L 154,155 L 164,154 Z M 201,153 C 205,153 208,152 211,150 C 214,148 217,146 219,143 C 220,141 221,139 222,136 C 223,134 223,131 223,129 C 223,125 223,123 222,120 C 220,117 219,115 217,113 C 215,111 212,110 210,109 C 207,108 204,107 201,108 C 199,108 196,109 193,110 C 191,111 188,113 186,115 C 184,118 183,120 181,123 C 180,126 180,129 180,132 C 180,135 180,138 181,141 C 183,143 184,146 186,148 C 188,150 191,151 193,152 C 196,153 199,153 201,153 Z M 201,143 C 198,144 196,143 193,140 C 191,138 190,135 190,131 C 190,127 191,124 193,122 C 196,119 198,118 201,117 C 205,117 207,118 209,120 C 212,123 213,126 213,129 C 213,133 212,136 209,139 C 207,142 205,143 201,143 Z M 248,149 C 253,149 258,147 261,143 C 264,139 266,135 266,128 L 266,104 L 256,105 L 256,129 C 256,132 256,135 254,137 C 253,139 251,140 248,140 C 245,140 243,139 242,138 C 241,136 240,133 240,129 L 240,106 L 230,107 L 230,131 C 230,137 231,142 235,145 C 238,148 242,150 248,149 Z M 285,145 L 285,128 L 286,128 L 297,144 L 309,143 L 296,126 C 299,124 301,123 302,121 C 303,118 304,116 304,113 C 304,112 304,110 303,108 C 302,107 301,105 299,104 C 298,103 296,103 294,102 C 292,102 289,102 286,102 L 275,103 L 275,146 L 285,145 Z M 285,122 L 285,110 L 286,110 C 289,110 291,110 293,111 C 294,112 295,113 295,115 C 295,117 294,119 293,120 C 291,121 289,122 287,122 L 285,122 Z" fill="#FFFFFF" id="id-112307" fill-rule="nonzero"></path><path d=" M 87,91 L 98,68 L 102,88 L 112,87 L 103,43 L 102,43 L 86,73 L 70,46 L 69,46 L 60,92 L 69,91 L 73,70 L 86,91 L 87,91 Z M 135,85 L 135,64 L 152,40 L 141,41 L 131,55 L 122,42 L 109,43 L 125,65 L 125,86 L 135,85 Z M 184,83 L 194,57 L 203,82 L 204,81 L 222,35 L 212,35 L 204,60 L 194,35 L 194,36 L 184,61 L 176,38 L 165,39 L 184,83 L 184,83 Z M 236,77 L 236,33 L 226,34 L 226,78 L 236,77 Z M 257,77 C 262,76 266,75 268,72 C 271,69 273,65 273,61 C 273,58 272,56 271,54 C 269,52 266,50 262,48 L 257,46 C 256,45 255,45 255,44 C 254,44 254,43 254,42 C 254,41 254,40 255,39 C 256,39 257,38 259,38 C 260,38 261,38 263,39 C 265,39 267,40 269,41 L 269,31 C 267,31 265,30 263,30 C 262,30 260,30 258,30 C 254,30 251,32 248,34 C 245,37 244,40 244,43 C 244,46 245,48 246,50 C 247,52 250,54 252,55 L 255,56 C 256,57 256,57 257,57 C 261,59 263,61 263,63 C 263,64 262,65 261,66 C 260,67 259,67 257,67 C 255,68 253,67 251,67 C 249,66 247,65 244,64 L 245,76 C 248,76 250,76 252,77 C 253,77 255,77 257,77 Z M 289,72 L 289,54 L 306,53 L 306,71 L 316,70 L 316,26 L 306,27 L 306,43 L 289,45 L 289,28 L 279,29 L 279,73 L 289,72 Z" fill="#FFFFFF" id="id-112308" fill-rule="nonzero"></path></g></svg>