<?xml version="1.0" encoding="UTF-8"?><svg width="1320px" height="1760px" viewBox="0 0 1320 1760" version="1.1" xmlns="http://www.w3.org/2000/svg" xmlns:xlink="http://www.w3.org/1999/xlink"><defs></defs><g transform=" translate(434,1386)" id="id-40019"><path d=" M 66,373 C 71,347 73,333 73,333 C 68,296 66,277 66,277 C 54,218 48,189 48,189 C 80,178 155,176 189,179 C 187,204 186,217 186,217 C 187,252 187,270 187,270 C 184,288 183,298 183,298 L 184,346 L 177,373 C 103,373 66,373 66,373 Z" fill="#00081A" id="id-40020"></path><path d=" M 243,180 C 244,188 244,192 244,192 C 245,249 245,278 245,278 C 248,289 250,294 250,294 L 249,336 L 258,374 C 329,374 364,374 364,374 C 360,349 357,336 357,336 C 360,313 361,302 361,302 C 362,261 363,241 363,241 L 377,188 C 316,172 271,170 243,180 Z" fill="#00081A" id="id-40021"></path><path d=" M 289,174 L 297,344 L 293,373 L 333,373 C 323,301 325,262 344,181 C 329,177 310,175 289,174 Z" fill="#182137" id="id-40022"></path><path d=" M 115,373 C 109,354 106,315 107,258 C 103,206 101,180 101,180 C 119,179 135,178 150,178 C 145,225 141,271 141,312 C 127,313 127,340 131,373 C 120,373 115,373 115,373 Z" fill="#182137" id="id-40023"></path><path d=" M 17,0 C 15,3 14,4 14,4 C 5,11 0,14 0,14 C 13,79 19,112 19,112 C 27,116 31,118 31,118 L 16,14 C 16,9 16,4 17,0 Z" fill="#1B1F27" id="id-40024"></path><path d=" M 389,131 C 398,131 403,131 403,131 C 423,54 433,15 433,15 L 417,0 C 399,82 390,126 389,131 Z" fill="#1B1F27" id="id-40025"></path><path d=" M 400,83 C 320,77 265,77 236,83 C 238,104 238,115 238,115 C 283,109 335,108 393,112 C 398,93 400,83 400,83 Z" fill="#00081A" id="id-40026"></path><path d=" M 286,79 C 288,100 288,111 288,111 C 334,110 356,110 356,110 L 364,81 C 325,79 299,78 286,79 Z" fill="#182137" id="id-40027"></path><path d=" M 338,77 C 337,100 336,112 336,112 C 347,113 353,113 353,113 L 355,78 C 344,77 338,77 338,77 Z" fill="#454B5B" id="id-40028"></path><path d=" M 199,93 C 197,112 196,121 196,121 C 141,120 89,124 41,133 L 35,99 C 117,90 171,89 199,93 Z" fill="#00081A" id="id-40029"></path><path d=" M 86,126 C 82,105 80,95 80,95 C 114,92 141,91 161,91 L 160,122 C 130,122 105,123 86,126 Z" fill="#182137" id="id-40030"></path><path d=" M 87,89 C 90,116 92,130 92,130 C 104,129 110,128 110,128 L 105,89 C 93,89 87,89 87,89 Z" fill="#454B5B" id="id-40031"></path><path d=" M 88,96 L 105,94 L 105,89 L 87,89 C 87,94 88,96 88,96 Z" fill="#67718A" id="id-40032"></path><path d=" M 43,148 L 33,136 C 21,55 16,15 16,15 C 16,6 16,1 16,1 C 20,2 21,3 21,3 L 24,23 C 37,106 43,148 43,148 Z" fill="#101622" id="id-40033"></path><path d=" M 337,80 C 349,81 355,81 355,81 C 355,79 355,78 355,78 L 339,77 C 338,79 337,80 337,80 Z" fill="#68718B" id="id-40034"></path></g></svg>