<?xml version="1.0" encoding="UTF-8"?><svg width="1320px" height="1760px" viewBox="0 0 1320 1760" version="1.1" xmlns="http://www.w3.org/2000/svg" xmlns:xlink="http://www.w3.org/1999/xlink"><defs></defs><g transform=" translate(290,946)" id="id-90502"><g transform=" translate(0,5)" id="id-90503"><path d=" M 148,153 C 125,200 101,259 98,311 L 109,341 L 105,416 L 95,465 L 92,469 L 101,479 L 96,510 L 52,495 L 54,488 L 49,489 L 30,453 L 31,450 L 25,448 L 21,411 L 18,411 L 11,381 L 15,380 L 15,375 L 35,308 L 39,306 L 32,304 C 43,252 42,188 41,135 C 42,133 44,95 44,95 C 44,93 60,43 61,42 C 83,49 116,59 139,67 C 140,81 147,140 148,153 Z" fill="#161912" id="id-90504"></path><path d=" M 104,78 L 80,92 C 70,92 36,97 28,93 L 15,43 L 12,10 L 30,0 L 37,13 L 93,32 L 104,78 Z" fill="#704D1F" id="id-90504"></path><polygon points="92 31 81 36 23 19 18 7 30 0 37 13" fill="#AA7C2C" id="id-90504"></polygon><polygon points="40 95 39 95 28 93 15 43 12 10 18 7 18 7 23 18 26 54" fill="#E1AD4D" id="id-90504"></polygon><path d=" M 179,65 L 171,125 L 154,156 L 147,155 L 90,102 C 96,85 102,65 115,53 L 117,53 L 179,65 Z" fill="#252C41" id="id-90504"></path><path d=" M 179,65 L 177,78 C 175,81 144,137 143,139 L 106,103 L 91,101 C 96,85 102,65 115,53 L 117,53 L 179,65 Z" fill="#3D445C" id="id-90504"></path><path d=" M 133,61 L 131,64 L 111,103 L 91,101 C 96,89 105,70 110,58 L 111,58 L 115,53 C 116,52 131,61 133,61 Z" fill="#5E6E98" id="id-90504"></path><path d=" M 142,180 L 128,209 L 124,210 L 95,193 L 60,187 L 41,193 L 36,190 C 36,176 36,149 33,135 C 57,134 96,152 118,161 L 138,173 L 142,180 Z" fill="#252C42" id="id-90504"></path><polygon points="117 161 105 193 75 179 78 145 81 145" fill="#3D445C" id="id-90504"></polygon><path d=" M 81,145 L 77,179 L 36,189 C 36,173 36,152 33,135 C 39,132 74,144 81,145 Z" fill="#6277A6" id="id-90504"></path><path d=" M 36,178 C 36,170 36,153 34,145 L 62,151 L 64,170 L 36,178 Z" fill="#4490CE" id="id-90504"></path><path d=" M 121,234 L 113,260 L 106,262 L 97,262 C 90,259 72,255 64,253 L 39,253 L 34,250 L 33,250 L 28,215 L 49,199 C 54,198 70,210 74,212 C 83,218 102,226 112,230 L 115,227 L 117,227 L 121,234 Z" fill="#252C42" id="id-90504"></path><path d=" M 89,221 C 89,232 88,255 87,255 C 87,254 73,249 69,248 L 34,250 L 33,250 L 28,215 C 61,189 44,199 89,221 Z" fill="#6277A6" id="id-90504"></path><path d=" M 89,221 C 89,232 88,255 87,255 C 87,254 73,249 70,248 L 73,212 C 74,213 89,220 89,221 Z" fill="#3D445C" id="id-90504"></path><path d=" M 112,282 L 112,304 L 99,310 C 92,309 29,306 24,303 C 24,303 21,288 21,287 L 40,271 C 59,270 81,277 101,279 L 103,276 L 112,282 Z" fill="#252C42" id="id-90504"></path><path d=" M 87,277 L 85,303 L 24,302 L 21,287 L 40,271 C 54,270 72,275 87,277 Z" fill="#6277A6" id="id-90504"></path><path d=" M 87,277 L 85,303 L 64,303 L 66,274 C 68,274 86,277 87,277 Z" fill="#3D445C" id="id-90504"></path><path d=" M 80,376 L 60,404 C 50,394 27,383 14,377 L 11,372 L 33,308 L 66,310 C 67,311 75,331 75,332 L 80,376 Z" fill="#E1AC4C" id="id-90504"></path><path d=" M 41,394 L 16,412 C 14,410 2,395 0,392 L 10,381 L 41,394 Z" fill="#E1AC4C" id="id-90504"></path><polygon points="58 443 25 447 21 412 48 400 57 404" fill="#AA7C2C" id="id-90504"></polygon><path d=" M 68,462 C 68,462 49,491 48,491 C 43,480 35,464 29,455 L 30,453 L 60,446 L 68,462 Z" fill="#704D1F" id="id-90504"></path><polygon points="52 495 69 471 94 483 92 509" fill="#704D1F" id="id-90504"></polygon><path d=" M 73,413 C 79,414 103,416 108,414 L 110,416 L 101,457 L 95,465 L 82,462 L 75,457 C 73,446 72,424 73,413 Z" fill="#704D1F" id="id-90504"></path><path d=" M 80,376 L 60,404 C 56,400 46,393 41,390 L 67,312 C 69,317 73,328 75,332 L 80,376 Z" fill="#AA7C2C" id="id-90504"></path><path d=" M 80,376 L 60,404 L 53,399 L 68,367 L 71,321 C 76,328 78,367 80,376 Z" fill="#704D1F" id="id-90504"></path><path d=" M 118,348 C 117,362 114,395 109,408 L 78,408 L 72,364 L 73,362 L 89,334 C 89,334 98,327 98,327 C 106,332 113,340 118,348 L 118,348 Z" fill="#AA7C2C" id="id-90504"></path><path d=" M 118,348 C 117,362 114,395 109,408 L 78,408 L 72,364 L 73,362 L 79,406 L 84,354 L 115,342 C 116,344 117,346 118,348 Z" fill="#704D1F" id="id-90504"></path><path d=" M 115,342 C 110,344 104,346 104,346 L 97,328 L 98,327 C 104,331 110,336 115,342 Z" fill="#E0AC4C" id="id-90504"></path><polygon points="37 397 16 412 3 396" fill="#AA7C2C" id="id-90504"></polygon><polygon points="58 443 34 446 51 401 57 404" fill="#704D1F" id="id-90504"></polygon><polygon points="34 463 29 455 30 453 34 452" fill="#AA7C2C" id="id-90504"></polygon><polygon points="43 210 52 208 52 243 44 245" fill="#DD0F7B" id="id-90504"></polygon><polygon points="40 97 40 97 40 97" fill="#4490CE" id="id-90504"></polygon></g><g transform=" translate(575,0)" id="id-90537"><path d=" M 30,152 C 53,199 76,259 79,311 L 67,341 L 70,416 L 79,465 L 82,469 L 74,479 L 78,510 L 122,495 L 120,488 L 125,490 L 145,454 L 143,451 L 150,449 L 154,412 L 157,412 L 164,382 L 161,381 L 161,376 L 142,309 L 137,307 L 144,305 C 134,253 136,189 137,136 C 137,134 135,95 135,95 C 135,94 119,43 119,42 C 97,49 63,59 41,66 C 39,80 32,140 30,152 Z" fill="#161912" id="id-90504"></path><path d=" M 75,78 L 99,92 C 109,93 143,97 151,94 L 164,44 L 168,12 L 150,1 L 143,13 C 142,14 88,31 87,32 L 75,78 Z" fill="#704D1F" id="id-90504"></path><polygon points="87 31 99 37 157 20 163 8 150 1 143 13" fill="#AA7C2C" id="id-90504"></polygon><polygon points="139 96 140 96 151 94 164 44 168 12 163 8 162 8 157 19 153 55" fill="#E1AD4D" id="id-90504"></polygon><path d=" M 1,64 C 2,72 7,115 8,124 L 25,155 L 31,154 L 88,102 C 83,85 77,65 65,52 L 63,53 L 1,64 Z" fill="#252C41" id="id-90504"></path><path d=" M 1,64 L 2,77 C 4,80 34,137 35,138 L 73,103 L 88,101 C 83,85 77,65 65,52 L 62,53 L 1,64 Z" fill="#3D445C" id="id-90504"></path><path d=" M 47,61 L 48,64 L 68,103 L 88,101 C 83,89 75,70 69,57 L 69,58 L 65,52 C 64,52 48,60 47,61 Z" fill="#5E6E98" id="id-90504"></path><path d=" M 36,180 L 49,208 L 54,209 L 83,193 L 118,187 L 137,194 L 142,191 C 142,177 143,150 145,136 C 122,135 82,152 61,161 L 40,173 L 36,180 Z" fill="#252C42" id="id-90504"></path><polygon points="61 160 72 192 103 179 100 145 98 146" fill="#3D445C" id="id-90504"></polygon><path d=" M 98,146 L 101,180 L 142,190 C 142,173 142,152 145,136 C 139,133 104,145 98,146 Z" fill="#6277A6" id="id-90504"></path><path d=" M 142,179 C 142,171 143,154 144,146 L 116,151 L 114,170 L 142,179 Z" fill="#4490CE" id="id-90504"></path><path d=" M 56,234 L 64,259 L 71,262 L 80,262 C 87,260 106,255 113,253 L 138,253 L 144,251 L 144,251 L 149,216 L 129,200 C 124,199 107,211 104,213 C 95,218 75,226 66,230 L 63,226 L 61,226 L 56,234 Z" fill="#252C42" id="id-90504"></path><path d=" M 88,221 C 88,232 89,255 90,255 C 91,254 105,249 108,248 L 144,251 L 144,251 L 149,216 C 117,190 134,199 88,221 Z" fill="#6277A6" id="id-90504"></path><path d=" M 88,221 C 88,232 89,255 90,255 C 90,255 104,250 107,248 L 104,212 C 104,213 89,221 88,221 Z" fill="#3D445C" id="id-90504"></path><path d=" M 65,282 L 64,304 L 78,310 C 84,309 148,306 152,304 C 152,303 156,289 156,288 L 137,272 C 118,271 96,278 76,279 L 74,276 L 65,282 Z" fill="#252C42" id="id-90504"></path><path d=" M 90,277 L 92,303 L 152,303 L 156,288 L 137,272 C 123,271 104,275 90,277 Z" fill="#6277A6" id="id-90504"></path><path d=" M 90,277 L 92,303 L 113,303 L 111,274 C 109,274 91,277 90,277 Z" fill="#3D445C" id="id-90504"></path><path d=" M 96,376 L 115,404 C 126,395 149,384 162,378 L 164,373 L 143,308 L 110,311 C 110,311 102,332 101,333 L 96,376 Z" fill="#E1AC4C" id="id-90504"></path><path d=" M 134,395 L 160,413 C 162,411 173,396 175,394 L 165,382 L 134,395 Z" fill="#E1AC4C" id="id-90504"></path><polygon points="117 443 150 448 154 413 127 400 118 404" fill="#AA7C2C" id="id-90504"></polygon><path d=" M 106,463 C 106,463 125,491 126,491 C 131,481 139,465 146,456 L 145,454 L 115,446 L 106,463 Z" fill="#704D1F" id="id-90504"></path><polygon points="122 495 105 471 80 483 82 509" fill="#704D1F" id="id-90504"></polygon><path d=" M 102,414 C 96,414 72,416 67,414 L 65,416 L 74,457 L 79,465 L 92,462 L 99,457 C 101,446 103,425 102,414 Z" fill="#704D1F" id="id-90504"></path><path d=" M 96,376 L 115,404 C 119,401 130,394 134,391 L 109,313 L 101,333 L 96,376 Z" fill="#AA7C2C" id="id-90504"></path><path d=" M 96,376 L 115,404 L 122,399 L 108,367 L 106,321 C 100,328 97,367 96,376 Z" fill="#704D1F" id="id-90504"></path><path d=" M 57,348 C 59,362 62,395 66,408 L 97,408 L 104,364 L 103,362 L 88,334 L 78,327 C 70,332 63,339 57,348 Z" fill="#AA7C2C" id="id-90504"></path><path d=" M 57,348 C 59,362 62,395 66,408 L 97,408 L 104,364 L 103,362 L 96,406 L 92,354 L 61,342 C 60,344 59,346 57,348 L 57,348 Z" fill="#704D1F" id="id-90504"></path><path d=" M 61,342 C 66,344 72,346 72,346 L 79,328 L 78,327 C 72,331 66,336 61,342 L 61,342 Z" fill="#E0AC4C" id="id-90504"></path><polygon points="138 398 160 413 172 397" fill="#AA7C2C" id="id-90504"></polygon><polygon points="117 443 141 447 125 401 118 404" fill="#704D1F" id="id-90504"></polygon><polygon points="141 464 146 456 145 454 141 453" fill="#AA7C2C" id="id-90504"></polygon><polygon points="135 211 126 209 125 243 133 245" fill="#DD0F7B" id="id-90504"></polygon><polygon points="139 97 139 98 139 98" fill="#4490CE" id="id-90504"></polygon></g></g></svg>