<?xml version="1.0" encoding="UTF-8"?><svg width="1320px" height="1760px" viewBox="0 0 1320 1760" version="1.1" xmlns="http://www.w3.org/2000/svg" xmlns:xlink="http://www.w3.org/1999/xlink"><defs><linearGradient x1="50%" y1="31%" x2="50%" y2="76%" id="id-99645"><stop stop-color="#FFFFFF" offset="0%" stop-opacity="0.647"></stop><stop stop-color="#FFFFFF" offset="100%" stop-opacity="0"></stop></linearGradient><linearGradient x1="11%" y1="23%" x2="57%" y2="61%" id="id-99646"><stop stop-color="#FFFFFF" offset="0%"></stop><stop stop-color="#FFFFFF" offset="100%" stop-opacity="0"></stop></linearGradient><linearGradient x1="75%" y1="50%" x2="71%" y2="50%" id="id-99647"><stop stop-color="#FFFFFF" offset="0%" stop-opacity="0.619"></stop><stop stop-color="#FFFFFF" offset="100%" stop-opacity="0.338"></stop></linearGradient><linearGradient x1="41%" y1="6%" x2="8%" y2="39%" id="id-99648"><stop stop-color="#F6F3F3" offset="0%"></stop><stop stop-color="#F5F2F2" offset="100%" stop-opacity="0.259"></stop></linearGradient><linearGradient x1="100%" y1="50%" x2="50%" y2="50%" id="id-99649"><stop stop-color="#FAF8F7" offset="0%"></stop><stop stop-color="#F4EEED" offset="100%" stop-opacity="0.429"></stop></linearGradient><linearGradient x1="50%" y1="0%" x2="50%" y2="100%" id="id-99650"><stop stop-color="#10212B" offset="0%" stop-opacity="0"></stop><stop stop-color="#2B1013" offset="100%" stop-opacity="0.532"></stop></linearGradient><linearGradient x1="50%" y1="0%" x2="50%" y2="100%" id="id-99651"><stop stop-color="#2B1013" offset="0%" stop-opacity="0"></stop><stop stop-color="#2B1013" offset="100%" stop-opacity="0.532"></stop></linearGradient></defs><g transform=" translate(556,303)" id="id-99652"><path d=" M 83,56 C 87,58 89,65 89,70 C 81,70 76,79 76,79 L 72,77 C 80,71 84,64 83,56 Z" fill="#2B1013" id="id-99653"></path><path d=" M 28,6 C 28,23 17,51 15,70 C 15,101 23,131 23,131 C 16,123 10,117 6,113 C 17,111 11,86 13,61 C 15,36 22,24 21,12 C 24,9 26,8 28,6 Z" fill="#2B1013" id="id-99654"></path><path d=" M 161,132 C 153,140 145,149 138,158 C 109,145 91,148 67,159 C 53,142 42,132 42,132 C 29,133 23,133 23,133 C 8,117 1,109 1,109 C -1,79 2,49 10,19 C 21,7 35,0 35,0 C 41,5 47,9 52,11 C 115,0 138,11 154,11 C 161,8 169,0 169,0 C 181,8 190,14 195,19 C 202,62 204,76 204,110 C 199,116 191,124 182,133 C 168,132 161,132 161,132 Z" fill="#FFFFFF" fill-opacity="0.262" id="id-99655"></path><path d=" M 53,11 C 78,6 102,5 124,7 L 86,8 C 61,11 50,12 53,11 Z" fill="#F9F7F5" id="id-99656"></path><path d=" M 79,8 C 79,25 82,38 88,49 C 84,51 75,54 73,71 C 67,66 62,58 47,61 C 46,55 47,51 36,50 C 47,43 53,30 52,11 L 79,8 Z" fill="#2B1013" fill-opacity="0.348" id="id-99657"></path><path d=" M 115,151 C 120,144 129,133 129,133 C 131,133 133,134 135,135 C 132,143 133,151 137,159 C 128,154 121,152 115,151 Z" fill="#FFFFFF" fill-opacity="0.444" id="id-99658"></path><path d=" M 138,159 C 137,153 143,146 129,133 C 126,128 124,123 122,117 L 161,133 C 148,145 140,154 138,159 Z" fill="#FFFFFF" fill-opacity="0.216" id="id-99659"></path><path d=" M 65,160 C 49,142 41,134 41,134 L 28,138 L 23,133 L 42,132 L 67,159 C 90,147 114,147 137,159 C 143,151 151,142 161,132 C 175,133 182,133 182,133 C 192,123 197,117 197,117 C 196,125 195,129 195,129 C 186,133 182,135 182,135 C 172,134 166,134 162,134 C 149,147 148,150 146,159 C 144,160 136,160 136,160 C 117,151 104,149 96,154 C 92,154 91,153 87,153 C 83,154 78,156 73,158 C 68,159 65,160 65,160 Z" fill="#5C1F24" id="id-99660"></path><path d=" M 19,66 C 23,58 29,51 38,46 L 57,46 L 40,39 C 36,25 35,19 35,19 L 34,31 C 24,43 19,54 19,66 Z" fill="#FFFFFF" fill-opacity="0.667" id="id-99661"></path><path d=" M 31,3 C 25,8 20,14 15,19 C -2,56 2,108 2,108 C 16,123 22,131 22,131 C 36,129 43,129 43,129 L 67,156 C 80,151 90,149 97,150 C 85,152 75,155 67,159 L 42,132 L 23,133 L 0,108 C -1,80 2,51 10,19 C 19,9 31,3 31,3 Z" fill="#FDFCFC" id="id-99662"></path><path d=" M 123,121 C 127,125 137,134 137,134 C 126,140 120,144 120,144 C 124,139 126,135 129,133 C 126,130 123,122 123,121 Z" fill="#FFFFFF" fill-opacity="0.858" id="id-99663"></path><path d=" M 82,105 C 84,116 87,121 87,121 C 89,122 90,122 90,123 C 89,134 93,142 102,150 C 79,154 67,156 67,156 L 44,130 C 64,124 76,116 82,105 Z" fill="url(#id-99645)" id="id-99664"></path><path d=" M 73,122 C 69,132 67,137 67,137 C 79,141 85,143 83,144 C 73,140 65,140 59,143 C 65,136 69,129 73,122 Z" fill="#FFFFFF" id="id-99665"></path><path d=" M 26,130 C 30,130 33,130 39,129 C 33,122 24,100 21,85 C 20,95 26,113 26,130 Z" fill="#F9F6F4" fill-opacity="0.514" id="id-99666"></path><path d=" M 84,85 C 81,91 79,94 79,94 C 75,84 66,80 52,80 C 43,80 29,89 22,89 C 28,80 33,73 52,71 C 65,70 74,74 79,85 C 83,85 84,85 84,85 Z" fill="#EBE0DD" fill-opacity="0.535" id="id-99667"></path><path d=" M 104,68 C 96,70 91,73 89,76 L 89,65 C 92,68 97,69 104,68 Z" fill="#D0B6AD" id="id-99668"></path><path d=" M 99,122 C 103,118 105,116 103,83 C 107,110 107,114 118,131 C 110,126 104,123 99,122 Z" fill="#FFFFFF" id="id-99669"></path><path d=" M 105,65 C 108,74 110,76 117,85 C 119,124 129,133 129,133 L 125,137 C 108,123 101,99 105,65 Z" fill="#C99E98" fill-opacity="0.760" id="id-99670"></path><path d=" M 123,97 C 127,95 129,94 129,94 C 154,101 166,104 166,104 L 151,125 C 132,106 123,97 123,97 Z" fill="url(#id-99646)" id="id-99671"></path><path d=" M 120,94 C 119,90 119,89 118,86 C 123,81 125,77 131,74 C 151,59 173,76 179,81 C 183,82 188,81 188,81 C 181,85 178,87 178,87 C 175,85 172,85 169,85 C 164,82 156,78 147,79 C 139,80 128,81 120,94 Z" fill="url(#id-99647)" id="id-99672"></path><path d=" M 149,81 C 146,84 145,86 145,86 C 148,90 149,92 149,92 L 154,87 C 151,83 149,81 149,81 Z" fill="#B5FF16" id="id-99673"></path><path d=" M 49,82 C 49,82 49,83 49,83 L 45,88 L 49,93 C 49,93 49,94 49,94 L 49,94 C 48,95 48,95 47,94 L 47,94 L 43,89 C 42,89 42,88 43,88 L 47,82 C 48,81 48,81 49,82 Z" fill="#B5FE18" id="id-99674" fill-rule="nonzero"></path><path d=" M 2,78 C 3,78 3,78 4,79 L 4,79 L 16,104 L 27,104 L 25,89 C 25,88 26,88 26,88 L 43,87 C 44,87 44,88 44,88 C 44,89 44,89 43,89 L 27,90 L 29,105 C 29,106 29,106 28,107 L 28,107 L 16,107 C 15,107 15,106 15,106 L 15,106 L 2,80 C 2,79 2,79 2,78 Z" fill="#B5FE18" id="id-99675" fill-rule="nonzero"></path><path d=" M 161,132 C 166,133 173,133 182,133 C 197,118 204,110 204,110 C 204,106 204,104 204,104 L 189,77 L 169,99 L 152,104 C 155,117 158,127 161,132 Z" fill="#FFFFFF" fill-opacity="0.220" id="id-99676"></path><path d=" M 183,131 C 178,132 168,130 168,130 C 172,128 176,124 180,119 C 183,104 189,77 189,80 C 190,83 181,122 183,131 Z" fill="#F4F3F3" fill-opacity="0.615" id="id-99677"></path><path d=" M 146,10 C 148,16 149,23 149,31 C 158,8 162,8 162,8 C 165,10 166,11 166,11 C 169,6 170,4 170,4 L 193,21 L 201,60 C 199,44 197,30 195,19 C 189,13 180,7 169,0 L 154,11 C 149,11 146,10 146,10 Z" fill="url(#id-99648)" id="id-99678"></path><path d=" M 170,4 C 167,9 166,12 166,12 L 167,39 L 204,104 C 204,71 201,43 193,21 C 188,16 180,10 170,4 Z" fill="#FFFFFF" fill-opacity="0.525" id="id-99679"></path><path d=" M 180,62 C 173,53 169,49 169,49 C 138,49 118,51 107,54 C 97,51 88,49 88,49 C 86,44 85,42 85,42 C 90,45 92,47 92,47 C 110,37 120,32 120,32 C 124,36 130,42 137,47 C 148,47 158,44 167,39 C 176,54 180,62 180,62 Z" fill="url(#id-99649)" id="id-99680"></path><path d=" M 171,51 C 174,54 176,57 180,62 C 175,63 171,67 168,72 L 163,69 C 169,63 171,57 171,51 Z" fill="#485B82" fill-opacity="0.688" id="id-99681"></path><path d=" M 137,47 C 160,40 157,25 157,15 C 158,11 160,9 162,8 L 166,11 L 167,39 C 157,44 147,47 137,47 Z" fill="#E8DEDE" fill-opacity="0.380" id="id-99682"></path><path d=" M 21,13 C 20,12 18,15 18,15 C 19,18 19,23 19,31 C 20,26 21,17 21,13 Z" fill="#EDE7E6" id="id-99683"></path><path d=" M 116,138 C 99,142 84,135 84,135 L 98,123 C 108,130 115,135 116,138 Z" fill="url(#id-99650)" id="id-99684"></path><path d=" M 99,122 C 94,123 87,121 87,121 L 92,75 C 105,98 107,114 99,122 Z" fill="url(#id-99651)" id="id-99685"></path><ellipse cx="165" cy="81" fill="#B5FF16" id="id-99686" rx="1" ry="1"></ellipse><ellipse cx="166" cy="88" fill="#B5FF16" id="id-99687" rx="1" ry="2"></ellipse><ellipse transform=" translate(163,96) rotate(30) translate(-163,-96)" cx="163" cy="96" fill="#B5FF16" id="id-99688" rx="1" ry="2"></ellipse><ellipse transform=" translate(157,101) rotate(60) translate(-157,-101)" cx="157" cy="101" fill="#B5FF16" id="id-99689" rx="1" ry="3"></ellipse><path d=" M 166,70 L 189,77 L 202,70 C 202,70 203,70 203,70 L 203,70 C 204,71 203,72 203,72 L 203,72 L 189,79 C 189,79 189,79 188,79 L 166,72 L 157,80 C 157,80 156,80 156,80 C 156,79 156,79 156,78 L 165,70 C 165,70 165,69 166,70 Z" fill="#B5FF16" id="id-99690" fill-rule="nonzero"></path><path d=" M 201,65 C 202,65 203,65 203,65 C 203,66 203,66 202,67 L 202,67 L 189,73 C 188,74 188,73 187,73 C 187,72 187,72 188,71 L 188,71 L 201,65 Z" fill="#B5FF16" id="id-99691" fill-rule="nonzero"></path><path d=" M 201,59 C 201,59 202,59 202,60 C 202,60 202,61 202,61 L 202,61 L 194,64 C 193,65 193,64 192,64 C 192,63 192,63 193,63 L 193,63 L 201,59 Z" fill="#B5FF16" id="id-99692" fill-rule="nonzero"></path><path d=" M 149,76 C 143,76 138,81 138,87 C 138,94 143,99 149,99 C 156,99 161,94 161,87 C 161,81 156,76 149,76 Z M 149,78 C 154,78 158,82 158,87 C 158,92 154,96 149,96 C 144,96 140,92 140,87 C 140,82 144,78 149,78 Z" fill="#B5FF16" id="id-99686" fill-rule="nonzero"></path><path d=" M 106,20 C 114,11 119,7 119,7 C 116,5 115,4 115,4 C 101,4 94,4 94,4 L 93,6 C 102,15 106,20 106,20 Z" fill="#4C374D" id="id-99694"></path><path d=" M 94,7 C 96,10 105,17 105,17 L 116,7 C 105,6 98,6 94,7 Z" fill="#200000" id="id-99695"></path><path d=" M 99,10 C 97,7 96,6 96,6 C 100,6 102,6 102,6 C 102,7 103,8 103,8 L 100,7 C 99,9 99,10 99,10 Z" fill="#978986" id="id-99696"></path><path d=" M 105,12 C 109,8 110,7 110,7 L 101,6 C 104,10 105,12 105,12 Z" fill="#A3E013" id="id-99697"></path><path d=" M 166,132 C 162,132 160,131 160,131 L 148,145 L 161,132 C 164,132 166,132 166,132 Z" fill="#FAF8F7" id="id-99698"></path></g></svg>