<?xml version="1.0" encoding="UTF-8"?><svg width="1320px" height="1760px" viewBox="0 0 1320 1760" version="1.1" xmlns="http://www.w3.org/2000/svg" xmlns:xlink="http://www.w3.org/1999/xlink"><defs></defs><g transform=" translate(318,470)" id="id-86543"><path d=" M 623,1180 C 623,1182 620,1209 620,1210 C 597,1234 590,1229 605,1261 L 600,1290 L 455,1290 L 450,1284 L 453,1257 L 440,1215 L 442,1169 C 440,1145 392,1063 380,1041 L 372,1038 L 358,1055 C 358,1055 329,1070 326,1076 C 324,1084 319,1178 317,1202 C 317,1202 287,1227 289,1234 C 292,1242 302,1290 302,1290 L 143,1290 L 137,1267 C 137,1267 142,1252 143,1251 C 141,1245 129,1218 127,1212 L 130,1201 L 137,1190 C 137,1186 137,1182 137,1178 C 128,1165 119,1080 116,1064 L 119,961 L 112,940 L 117,906 L 118,872 L 109,853 C 107,827 107,801 109,775 C 153,732 133,751 152,692 C 151,688 150,657 149,654 C 180,602 172,470 181,409 L 163,371 L 161,388 L 150,275 L 222,109 L 245,87 L 222,42 L 247,21 L 265,9 C 266,11 267,15 268,19 C 270,21 270,22 270,22 L 272,69 C 299,141 327,296 337,376 C 337,376 358,348 358,348 C 367,292 383,199 392,143 L 414,88 L 414,87 L 404,74 L 401,48 L 402,30 L 408,23 L 415,0 L 450,16 C 450,16 476,44 476,44 L 438,95 L 469,114 C 479,144 519,268 528,296 C 527,316 525,356 523,376 L 512,403 L 511,470 L 508,475 C 515,519 527,596 525,640 C 533,656 530,672 541,686 C 531,695 548,731 550,736 C 541,748 581,788 585,797 C 590,859 602,977 608,1043 L 598,1131 C 598,1131 623,1180 623,1180 Z" fill="#131725" id="id-86544"></path><path d=" M 623,1180 L 620,1208 C 596,1228 545,1269 522,1290 L 456,1290 L 450,1284 L 453,1257 L 435,1215 C 449,1134 375,1048 349,976 L 364,986 L 399,950 L 402,948 L 347,893 C 349,772 352,632 355,511 C 357,362 365,184 432,45 C 432,45 474,45 476,45 L 438,95 L 434,93 L 437,56 L 400,143 C 402,144 407,148 409,149 C 418,137 437,111 445,100 L 469,114 C 479,144 519,268 528,296 C 528,305 526,343 524,351 L 506,356 L 481,514 L 508,475 C 515,519 527,596 525,640 L 531,655 L 505,663 L 487,635 L 471,640 C 472,643 474,649 475,652 L 508,684 C 511,683 536,681 539,681 L 541,686 C 531,695 554,732 556,736 C 547,750 582,788 586,798 L 554,829 L 549,867 L 595,901 L 595,905 L 608,1043 L 598,1131 C 598,1131 623,1180 623,1180 Z" fill="#111724" id="id-86544"></path><polygon points="476 44 475 45 440 50 430 42 464 38 447 18 415 1 415 0 450 16" fill="#3B5E97" id="id-86544"></polygon><polygon points="435 55 441 49 432 42 429 47" fill="#818EA4" id="id-86544"></polygon><path d=" M 350,954 L 344,949 L 192,937 L 229,914 L 190,896 L 245,903 L 329,931 C 285,901 210,856 160,836 L 120,855 L 177,870 L 132,891 L 178,964 L 123,981 L 183,989 L 196,1048 L 167,1061 L 190,1076 L 190,1154 C 217,1134 289,1091 319,1074 L 343,1020 C 339,1013 202,979 192,976 C 229,975 314,975 350,984 L 350,954 L 350,954 Z" fill="#191D2C" id="id-86544"></path><path d=" M 340,818 L 340,881 L 274,866 L 267,870 L 166,834 L 167,831 L 109,780 C 109,777 109,775 109,775 C 109,775 131,752 137,747 L 151,769 C 151,769 169,790 169,791 C 170,792 167,767 167,767 L 244,792 L 277,830 L 336,818 L 289,788 L 264,782 L 213,757 C 214,758 238,782 239,784 C 240,786 196,758 196,758 L 144,738 C 144,736 144,734 145,733 L 183,733 L 227,742 L 158,689 L 184,687 L 177,663 L 150,660 L 149,654 L 160,634 L 178,643 L 175,659 C 181,647 208,557 213,542 L 251,603 L 228,391 L 167,356 L 266,352 L 187,327 C 181,313 163,275 161,259 C 171,221 217,132 236,97 L 246,87 L 239,112 L 279,147 L 284,137 L 292,138 C 346,297 338,493 339,659 L 270,701 L 266,703 L 336,701 L 339,663 L 340,818 Z" fill="#202432" id="id-86544"></path><polygon points="195 679 331 719 309 762" fill="#2A334A" id="id-86544"></polygon><path d=" M 274,626 L 333,611 C 333,611 337,660 336,659 C 335,658 274,626 274,626 Z" fill="#2A334B" id="id-86544"></path><polygon points="328 608 335 608 336 532 328 543" fill="#2A334B" id="id-86544"></polygon><polygon points="157 275 252 320 185 326" fill="#293148" id="id-86544"></polygon><polygon points="260 382 316 323 329 398" fill="#1C1F2F" id="id-86544"></polygon><polygon points="240 339 319 317 324 353" fill="#29324A" id="id-86544"></polygon><polygon points="315 303 190 272 297 201" fill="#2C344C" id="id-86544"></polygon><polygon points="292 201 237 182 290 164" fill="#2C344C" id="id-86544"></polygon><path d=" M 280,161 C 280,161 293,155 293,156 C 311,218 323,321 332,385 L 326,390 C 317,327 295,224 280,161 Z" fill="#395586" id="id-86544"></path><path d=" M 284,126 L 280,130 L 251,85 C 248,85 246,85 243,85 L 222,42 L 225,40 L 261,50 L 284,126 Z" fill="#272D44" id="id-86544"></path><path d=" M 294,138 L 284,138 C 280,136 259,59 258,53 L 223,44 L 222,42 L 247,21 L 265,9 L 265,10 L 233,40 L 264,45 C 273,70 286,112 294,138 Z" fill="#395586" id="id-86544"></path><polygon points="253 53 264 45 265 50 260 58" fill="#8592AA" id="id-86544"></polygon><path d=" M 289,1234 C 292,1242 302,1290 302,1290 L 143,1290 L 137,1267 C 137,1267 142,1252 143,1251 L 130,1220 L 177,1253 L 223,1267 C 240,1254 299,1211 318,1197 C 317,1200 317,1202 317,1202 C 317,1202 287,1227 289,1234 Z" fill="#11131A" id="id-86544"></path><polygon points="172 1200 183 1200 216 1235 218 1249 179 1218" fill="#11131A" id="id-86544"></polygon><path d=" M 193,1192 L 230,1171 L 310,1199 C 310,1199 274,1218 273,1218 C 272,1218 193,1197 193,1197 L 193,1192 Z" fill="#11131A" id="id-86544"></path><path d=" M 555,738 L 504,762 L 415,774 L 470,730 L 499,727 L 540,687 C 538,692 543,697 544,703 C 546,715 558,735 555,738 Z" fill="#212533" id="id-86544"></path><path d=" M 540,683 C 494,708 399,750 349,766 L 350,731 L 461,694 L 393,702 L 350,701 L 351,664 L 474,651 L 473,645 L 473,645 L 473,645 L 508,684 L 532,680 L 535,674 C 535,676 539,682 540,683 Z" fill="#212533" id="id-86544"></path><path d=" M 420,439 L 502,378 L 484,491 L 444,484 L 463,635 L 468,639 L 383,648 L 381,656 L 351,659 C 355,524 351,350 381,217 L 523,292 L 420,439 Z" fill="#212533" id="id-86544"></path><polygon points="433 513 379 650 356 653 355 611 352 612 355 511 370 496 390 516 364 529 364 574" fill="#2A334B" id="id-86544"></polygon><polygon points="351 762 351 735 450 704 498 701" fill="#383940" id="id-86544"></polygon><polygon points="423 870 487 821 532 833" fill="#009247" id="id-86544"></polygon><path d=" M 520,272 C 515,279 503,296 498,304 C 497,312 373,314 365,316 C 372,266 390,197 401,148 C 403,148 407,146 410,148 L 443,103 L 470,117 C 474,131 517,261 520,272 Z" fill="#2F3852" id="id-86544"></path><path d=" M 409,158 C 401,198 384,312 376,353 C 376,353 361,351 360,351 C 368,305 389,195 398,149 C 400,149 403,152 409,158 Z" fill="#375282" id="id-86544"></path><path d=" M 598,1131 L 598,1131 L 548,1040 L 506,1020 L 537,1004 L 558,949 L 595,905 C 595,902 595,899 594,896 L 569,873 L 510,856 L 451,891 L 447,893 L 481,923 L 497,944 L 442,925 L 392,921 L 471,858 L 531,837 L 551,841 L 553,830 L 554,829 L 585,797 C 582,793 553,755 550,748 L 508,805 L 508,782 L 389,808 L 493,810 L 397,878 C 393,880 342,894 340,896 L 347,956 L 365,942 L 390,950 C 392,950 509,953 515,953 L 419,983 L 481,1018 L 447,1008 L 484,1088 L 368,991 L 399,1037 C 404,1042 500,1125 499,1129 C 485,1126 432,1118 417,1115 C 417,1128 550,1249 559,1260 L 597,1238 C 597,1228 615,1217 620,1211 C 620,1209 623,1182 623,1181 L 598,1131 Z" fill="#1E2231" id="id-86544"></path><path d=" M 692,777 C 685,779 624,784 626,784 L 626,753 L 612,704 L 565,569 L 562,534 L 553,524 L 560,499 L 544,466 L 523,375 L 521,377 L 523,297 L 464,111 L 504,135 L 538,144 L 601,173 C 614,205 617,251 618,284 C 621,317 635,397 641,430 L 653,438 L 652,462 L 676,478 L 670,494 L 681,513 L 685,648 L 682,738 C 682,738 691,775 692,777 Z" fill="#931937" id="id-86544"></path><path d=" M 626,784 L 626,753 L 612,704 L 565,569 L 562,534 L 553,524 L 560,499 L 544,466 L 523,375 L 521,377 C 521,338 526,259 532,220 L 543,279 L 567,250 L 592,470 L 579,489 L 631,479 L 594,507 L 633,501 L 624,534 C 625,540 647,601 643,606 C 648,646 664,740 671,780 C 652,782 626,784 626,784 Z" fill="#590A32" id="id-86544"></path><polygon points="513 154 599 179 572 216" fill="#B02350" id="id-86544"></polygon><path d=" M 152,277 L 162,384 L 146,479 L 132,506 L 145,535 L 129,552 C 130,555 132,565 132,568 C 117,593 62,742 62,774 L 0,766 C 18,687 -1,573 14,493 L 25,488 L 43,449 L 37,436 L 53,411 C 63,354 65,234 82,181 C 114,160 188,123 224,107 L 156,270 C 156,271 153,276 152,277 Z" fill="#4C1031" id="id-86544"></path><path d=" M 133,569 C 117,594 63,744 62,775 L 54,774 C 50,754 41,682 41,682 L 52,697 C 47,637 58,532 60,472 C 63,467 116,496 120,498 L 79,507 L 100,542 L 107,528 C 107,528 113,541 113,542 C 112,543 125,557 132,565 L 133,569 Z" fill="#731034" id="id-86544"></path><path d=" M 224,107 C 224,108 157,270 156,271 L 96,268 L 139,245 C 122,235 91,212 76,199 L 82,181 C 114,159 189,123 224,107 Z" fill="#911938" id="id-86544"></path><path d=" M 179,640 C 179,640 175,661 175,661 L 183,641 L 179,640 Z" fill="#0B0C0E" id="id-86544"></path><path d=" M 208,709 L 211,709 L 203,720 L 204,737 L 190,755 L 194,774 L 175,831 L 177,839 L 163,867 L 147,884 C 147,884 114,945 114,944 C 114,944 113,941 113,941 L 114,937 L 146,882 L 161,865 L 175,839 L 171,831 L 191,773 L 188,754 L 201,735 L 201,719 L 208,709 Z" fill="#0B0C0E" id="id-86544"></path><polygon points="430 871 492 821 538 833" fill="#3C3C44" id="id-86544"></polygon><polygon points="605 1077 584 1040 558 949 526 864 525 832 494 782 495 758 478 728 480 709 465 676 496 672 506 682 506 674 473 644 494 668 350 689 350 690 462 676 478 711 476 730 492 760 492 783 522 836 523 864 555 951 582 1043 605 1082" fill="#0B0C0E" id="id-86544"></polygon><path d=" M 445,100 L 464,111 L 379,215 C 390,155 407,97 432,45 C 432,45 474,45 475,45 L 438,95 L 434,93 L 437,56 L 400,143 C 402,144 407,148 409,149 C 418,137 437,111 445,100 Z" fill="#212533" id="id-86544"></path></g></svg>