<?xml version="1.0" encoding="UTF-8"?><svg width="1320px" height="1760px" viewBox="0 0 1320 1760" version="1.1" xmlns="http://www.w3.org/2000/svg" xmlns:xlink="http://www.w3.org/1999/xlink"><defs><filter width="204%" height="176%" x="-52%" y="-38%" id="id-108800" filterUnits="objectBoundingBox"><feOffset result="id-108801" in="SourceAlpha" dx="0" dy="35"></feOffset><feGaussianBlur result="id-108802" in="SourceAlpha" stdDeviation="30"></feGaussianBlur><feColorMatrix result="id-108804" in="SourceAlpha" type="matrix" values="0 0 0 0 0 0 0 0 0 0 0 0 0 0 0 0 0 0 0.430 0"></feColorMatrix><feMerge><feMergeNode in="SourceAlpha"></feMergeNode><feMergeNode in="SourceGraphic"></feMergeNode></feMerge></filter><linearGradient x1="68%" y1="49%" x2="30%" y2="50%" id="id-108807"><stop stop-color="#AFB3AF" offset="0%"></stop><stop stop-color="#49797D" offset="100%"></stop></linearGradient><linearGradient x1="49%" y1="13%" x2="49%" y2="86%" id="id-108808"><stop stop-color="#BE83D6" offset="0%"></stop><stop stop-color="#557474" offset="100%" stop-opacity="0"></stop></linearGradient><linearGradient x1="50%" y1="0%" x2="50%" y2="100%" id="id-108809"><stop stop-color="#009C8F" offset="0%"></stop><stop stop-color="#005751" offset="100%"></stop></linearGradient><linearGradient x1="50%" y1="0%" x2="50%" y2="100%" id="id-108810"><stop stop-color="#4102FA" offset="0%"></stop><stop stop-color="#18009F" offset="100%"></stop></linearGradient><linearGradient x1="50%" y1="0%" x2="50%" y2="100%" id="id-108811"><stop stop-color="#CA85FD" offset="0%"></stop><stop stop-color="#3300B6" offset="100%"></stop></linearGradient><linearGradient x1="50%" y1="0%" x2="50%" y2="100%" id="id-108812"><stop stop-color="#6B5EF6" offset="0%"></stop><stop stop-color="#3930EA" offset="100%"></stop></linearGradient><linearGradient x1="50%" y1="0%" x2="50%" y2="100%" id="id-108813"><stop stop-color="#FFFFFF" offset="0%" stop-opacity="0.977"></stop><stop stop-color="#FFFFFF" offset="100%" stop-opacity="0"></stop></linearGradient><radialGradient cx="50%" cy="50%" r="53%" id="id-108814" fx="50%" fy="50%" gradientTransform=" translate(0.500,0.500) scale(1,0.947) rotate(90) translate(-0.500,-0.500)"><stop stop-color="#FFFFFF" offset="0%"></stop><stop stop-color="#FFFFFF" offset="18%"></stop><stop stop-color="#FFFFFF" offset="48%" stop-opacity="0.496"></stop><stop stop-color="#FFFFFF" offset="100%" stop-opacity="0"></stop></radialGradient><radialGradient cx="50%" cy="50%" r="61%" id="id-108815" fx="50%" fy="50%" gradientTransform=" translate(0.500,0.500) scale(1,0.951) rotate(90) translate(-0.500,-0.500)"><stop stop-color="#FFFFFF" offset="0%"></stop><stop stop-color="#FFFFFF" offset="18%"></stop><stop stop-color="#FFFFFF" offset="48%" stop-opacity="0.496"></stop><stop stop-color="#FFFFFF" offset="100%" stop-opacity="0"></stop></radialGradient><radialGradient cx="50%" cy="50%" r="52%" id="id-108816" fx="50%" fy="50%" gradientTransform=" translate(0.500,0.500) scale(1,0.956) rotate(90) translate(-0.500,-0.500)"><stop stop-color="#FFFFFF" offset="0%"></stop><stop stop-color="#FFFFFF" offset="18%"></stop><stop stop-color="#FFFFFF" offset="48%" stop-opacity="0.496"></stop><stop stop-color="#FFFFFF" offset="100%" stop-opacity="0"></stop></radialGradient><radialGradient cx="50%" cy="50%" r="52%" id="id-108816" fx="50%" fy="50%" gradientTransform=" translate(0.500,0.500) scale(1,0.956) rotate(90) translate(-0.500,-0.500)"><stop stop-color="#FFFFFF" offset="0%"></stop><stop stop-color="#FFFFFF" offset="18%"></stop><stop stop-color="#FFFFFF" offset="48%" stop-opacity="0.496"></stop><stop stop-color="#FFFFFF" offset="100%" stop-opacity="0"></stop></radialGradient><radialGradient cx="50%" cy="50%" r="111%" id="id-108818" fx="50%" fy="50%" gradientTransform=" translate(0.500,0.500) scale(1,0.451) rotate(90) translate(-0.500,-0.500)"><stop stop-color="#FFFFFF" offset="0%"></stop><stop stop-color="#FFFFFF" offset="18%"></stop><stop stop-color="#FFFFFF" offset="48%" stop-opacity="0.496"></stop><stop stop-color="#FFFFFF" offset="100%" stop-opacity="0"></stop></radialGradient><linearGradient x1="50%" y1="0%" x2="50%" y2="100%" id="id-108819"><stop stop-color="#21242A" offset="0%"></stop><stop stop-color="#282A30" offset="13%"></stop><stop stop-color="#FCFCFC" offset="16%"></stop><stop stop-color="#FFFFFF" offset="46%"></stop><stop stop-color="#21242A" offset="49%"></stop><stop stop-color="#20232A" offset="68%"></stop><stop stop-color="#FFFFFF" offset="70%"></stop><stop stop-color="#FFFFFF" offset="87%"></stop><stop stop-color="#151921" offset="89%"></stop><stop stop-color="#1F2229" offset="100%"></stop></linearGradient></defs><g transform=" translate(877,65)" id="id-108820"><g transform=" translate(0,1)" filter="url(#id-108800)"><path d=" M 158,404 C 158,416 160,430 150,437 C 151,447 141,461 130,446 C 126,451 124,453 124,453 C 123,469 123,476 123,476 C 115,478 111,479 111,479 C 107,457 105,446 105,446 C 94,452 89,447 89,432 C 84,427 82,425 82,425 C 83,417 84,414 84,414 C 64,405 77,369 73,353 C 71,357 69,360 66,361 C 68,372 57,378 48,369 C 45,370 41,371 38,368 C 28,378 21,372 20,359 C 17,358 15,355 14,352 C 2,353 -2,347 6,331 C -2,287 42,243 73,217 C 68,211 65,208 65,208 C 68,203 69,200 69,200 C 61,192 57,189 57,189 C 54,182 52,170 54,138 C 58,134 60,133 60,133 C 57,126 56,123 56,123 C 59,109 58,94 67,81 C 57,81 52,82 52,82 C 25,68 22,30 43,10 C 58,-3 88,-3 100,13 C 101,18 101,21 101,21 C 107,17 111,12 121,8 C 175,4 226,5 267,20 C 272,22 276,27 279,33 C 289,25 294,21 294,21 C 312,15 335,19 346,41 C 360,78 335,93 313,109 C 316,124 313,134 308,144 C 312,152 314,157 314,157 C 312,175 308,191 305,199 C 299,204 296,206 296,206 C 295,215 295,220 295,220 C 289,227 283,233 278,236 C 299,259 321,281 326,341 C 321,346 318,349 318,349 C 320,353 322,358 327,364 C 329,373 321,375 308,374 C 306,375 305,380 303,390 C 300,394 295,393 287,388 C 280,383 272,393 264,388 C 261,387 260,382 260,375 C 256,370 254,367 254,367 C 252,372 251,374 251,374 C 252,386 253,398 247,415 C 241,417 239,417 239,417 C 241,425 242,428 242,428 C 239,436 232,439 227,443 C 225,458 218,462 206,451 C 199,460 192,466 184,450 C 173,459 167,455 166,439 C 163,433 162,430 162,430 L 162,404 C 160,404 158,404 158,404 Z" fill="url(#id-108807)" id="id-108822"></path><path d=" M 158,404 C 158,416 160,430 150,437 C 151,447 141,461 130,446 C 126,451 124,453 124,453 C 123,469 123,476 123,476 C 115,478 111,479 111,479 C 107,457 105,446 105,446 C 94,452 89,447 89,432 C 84,427 82,425 82,425 C 83,417 84,414 84,414 C 64,405 77,369 73,353 C 71,357 69,360 66,361 C 68,372 57,378 48,369 C 45,370 41,371 38,368 C 28,378 21,372 20,359 C 17,358 15,355 14,352 C 2,353 -2,347 6,331 C -2,287 42,243 73,217 C 68,211 65,208 65,208 C 68,203 69,200 69,200 C 61,192 57,189 57,189 C 54,182 52,170 54,138 C 58,134 60,133 60,133 C 57,126 56,123 56,123 C 59,109 58,94 67,81 C 57,81 52,82 52,82 C 25,68 22,30 43,10 C 58,-3 88,-3 100,13 C 101,18 101,21 101,21 C 107,17 111,12 121,8 C 175,4 226,5 267,20 C 272,22 276,27 279,33 C 289,25 294,21 294,21 C 312,15 335,19 346,41 C 360,78 335,93 313,109 C 316,124 313,134 308,144 C 312,152 314,157 314,157 C 312,175 308,191 305,199 C 299,204 296,206 296,206 C 295,215 295,220 295,220 C 289,227 283,233 278,236 C 299,259 321,281 326,341 C 321,346 318,349 318,349 C 320,353 322,358 327,364 C 329,373 321,375 308,374 C 306,375 305,380 303,390 C 300,394 295,393 287,388 C 280,383 272,393 264,388 C 261,387 260,382 260,375 C 256,370 254,367 254,367 C 252,372 251,374 251,374 C 252,386 253,398 247,415 C 241,417 239,417 239,417 C 241,425 242,428 242,428 C 239,436 232,439 227,443 C 225,458 218,462 206,451 C 199,460 192,466 184,450 C 173,459 167,455 166,439 C 163,433 162,430 162,430 L 162,404 C 160,404 158,404 158,404 Z" fill="url(#id-108808)" id="id-108823"></path><path d=" M 153,397 C 151,411 156,425 143,435 C 143,448 140,449 134,439 C 130,440 127,440 125,439 C 121,451 118,451 114,438 C 111,438 108,439 106,436 C 98,446 94,446 96,430 C 73,410 80,384 82,359 C 77,347 79,331 81,315 C 77,330 76,347 60,358 C 62,369 60,372 50,363 C 44,364 39,363 36,361 C 29,370 26,369 26,357 C 22,353 18,350 17,344 C 5,350 6,345 13,333 C 9,285 40,249 84,219 C 45,185 62,115 72,80 C 53,82 26,62 40,25 C 56,-1 85,6 103,21 C 115,11 158,12 198,14 C 218,16 249,17 282,34 C 308,21 334,24 344,51 C 347,73 341,92 305,98 C 308,139 319,207 267,235 C 285,251 332,299 317,355 C 322,366 323,373 313,366 C 304,374 300,378 300,378 C 300,385 300,392 291,381 C 287,382 282,382 276,379 C 269,384 264,385 267,373 C 253,362 257,338 253,329 C 253,348 251,363 245,372 C 247,400 242,425 222,440 C 221,454 218,457 211,444 C 207,446 204,446 202,445 C 196,461 194,454 191,445 C 185,443 182,442 182,442 C 177,451 174,452 173,437 C 165,427 167,413 171,398 C 159,398 153,397 153,397 Z" fill="#000000" id="id-108824"></path><path d=" M 112,229 C 144,239 186,243 237,240 C 239,254 241,262 243,270 L 243,272 C 245,280 247,287 249,299 C 251,333 251,363 238,378 C 226,392 202,397 160,395 C 139,395 90,390 83,354 C 81,335 83,304 88,289 C 90,282 93,275 97,267 L 98,266 C 103,255 107,245 106,235 L 106,235 L 107,235 C 107,235 109,233 112,229 Z M 190,249 C 184,256 185,264 193,274 C 188,272 182,270 173,269 C 140,266 136,275 130,300 C 124,342 133,348 164,351 C 210,353 204,333 207,312 C 206,301 207,292 203,284 C 205,285 206,286 208,288 C 220,279 241,266 230,250 C 222,243 215,246 210,251 C 204,244 197,242 190,249 Z" fill="#003EFF" id="id-108825"></path><path d=" M 232,384 C 232,380 232,377 232,377 C 214,376 205,376 205,376 C 205,358 205,348 205,348 C 201,349 197,349 193,348 C 185,351 149,355 134,340 C 125,331 129,300 133,288 C 130,287 128,287 128,287 C 128,268 128,258 128,258 L 102,256 C 95,270 90,281 88,289 C 83,309 81,339 83,353 C 87,380 119,395 162,395 C 190,397 215,395 232,384 Z" fill="#008BFF" id="id-108826"></path><path d=" M 85,364 C 82,385 83,398 85,408 C 96,404 101,401 101,401 C 93,411 89,415 89,415 C 90,419 92,423 97,427 C 102,422 104,420 104,420 C 101,426 99,429 99,429 C 103,433 108,435 116,436 C 117,435 117,434 117,434 C 120,436 121,437 121,437 C 151,434 150,425 150,397 C 118,394 96,383 85,364 Z" fill="url(#id-108809)" id="id-108827"></path><path d=" M 175,398 C 170,410 170,424 173,430 C 177,428 179,427 179,427 C 177,424 177,423 177,423 L 184,425 C 203,415 213,409 213,409 C 195,421 186,427 186,427 C 197,431 206,429 214,423 C 218,427 220,428 220,428 C 220,421 220,417 220,417 C 230,423 228,415 229,409 C 237,401 242,391 243,376 C 229,395 206,402 175,398 Z" fill="#004388" id="id-108828"></path><path d=" M 179,429 C 176,432 174,433 174,433 C 188,444 203,445 220,438 C 232,429 240,415 242,394 C 238,406 233,416 226,423 C 225,429 222,433 215,432 C 211,435 206,438 197,435 C 189,434 185,434 185,434 L 180,433 C 180,431 179,429 179,429 Z" fill="#032B58" id="id-108829"></path><path d=" M 208,283 C 218,276 236,265 226,252 C 222,247 216,250 210,254 C 204,248 199,245 192,251 C 185,259 190,270 208,283 Z" fill="#0200FF" id="id-108830"></path><path d=" M 171,272 C 143,270 137,278 133,308 C 128,344 147,346 165,347 C 204,349 203,335 204,311 C 203,291 208,273 171,272 Z" fill="#0046FF" id="id-108831"></path><path d=" M 295,377 C 268,383 258,365 257,336 C 254,293 240,269 242,240 C 257,238 264,236 264,236 C 281,251 298,271 314,311 C 322,344 315,366 295,377 Z" fill="url(#id-108810)" id="id-108832"></path><path d=" M 182,237 C 100,229 45,224 68,108 C 86,-6 133,16 197,17 C 301,23 299,47 305,134 C 305,192 304,249 182,237 Z" fill="#5200FF" id="id-108833"></path><path d=" M 100,23 C 97,26 94,29 92,32 C 78,19 67,17 57,28 C 51,45 57,56 76,62 C 78,56 80,51 83,46 C 78,55 74,65 72,77 C 50,77 31,56 42,27 C 55,3 85,8 100,23 Z" fill="url(#id-108811)" id="id-108825"></path><path d=" M 284,36 C 284,36 314,17 334,39 C 337,42 340,45 342,49 C 347,75 335,91 305,94 C 303,81 301,71 299,63 C 300,68 302,73 303,78 C 324,75 331,65 326,48 C 316,36 304,35 292,46 C 292,48 293,49 294,50 C 291,45 288,40 284,36 Z" fill="#FD8EFF" id="id-108825"></path><path d=" M 293,49 C 297,56 300,65 302,75 C 319,75 327,67 326,52 C 322,39 300,36 293,49 Z" fill="#D761F8" id="id-108836"></path><path d=" M 77,58 C 68,57 50,46 60,27 C 68,19 78,21 90,34 C 85,41 81,49 77,58 Z" fill="url(#id-108812)" id="id-108837"></path><path d=" M 88,220 C 99,225 105,228 105,228 C 106,246 89,269 82,299 C 72,326 74,369 32,356 C 19,349 13,335 18,306 C 24,282 35,257 72,230 C 84,236 91,240 91,240 L 77,227 C 84,223 88,220 88,220 Z" fill="#81D3F7" id="id-108838"></path><path d=" M 84,310 C 93,311 98,311 98,311 C 96,348 94,367 94,367 C 130,370 148,371 148,371 L 150,394 C 120,392 87,382 83,353 C 81,339 82,325 84,310 Z" fill="#00BFDD" id="id-108839"></path><path d=" M 96,341 C 115,342 124,342 124,342 L 122,369 L 94,367 C 95,349 96,341 96,341 Z" fill="#00A3EB" id="id-108840"></path><path d=" M 149,373 C 168,374 177,374 177,374 L 176,395 L 150,394 C 149,380 149,373 149,373 Z" fill="#00A3EB" id="id-108841"></path><path d=" M 137,289 C 149,290 155,290 155,290 C 154,309 154,318 154,318 C 172,320 181,321 181,321 L 180,348 C 161,349 134,349 132,326 C 131,318 133,306 137,289 Z" fill="#008CFF" id="id-108842"></path><path d=" M 159,238 C 158,253 158,260 158,260 C 175,262 184,262 184,262 L 184,270 C 188,271 190,272 193,273 C 187,265 182,257 190,248 C 197,242 204,244 210,251 L 211,241 C 189,241 172,240 159,238 Z" fill="#0007FF" id="id-108843"></path><path d=" M 135,232 C 154,234 163,235 163,235 C 166,198 167,180 167,180 C 148,179 139,178 139,178 C 140,160 141,150 141,150 C 124,149 116,148 116,148 C 117,130 118,121 118,121 C 98,120 88,119 88,119 C 89,101 90,91 90,91 L 72,90 C 66,120 60,147 65,173 C 69,206 92,226 135,232 Z" fill="#2D00FA" id="id-108844"></path><path d=" M 134,231 C 135,215 136,206 136,206 C 119,204 110,203 110,203 C 111,185 111,176 111,176 L 64,172 C 69,206 92,226 134,231 Z" fill="#1E4AE0" id="id-108845"></path><path d=" M 64,173 C 63,167 63,162 63,144 C 78,146 85,146 85,146 L 84,174 C 71,173 64,173 64,173 Z" fill="#4372C4" id="id-108846"></path><path d=" M 275,224 C 276,219 276,216 276,216 C 257,215 248,215 248,215 C 249,197 250,188 250,188 C 232,186 223,185 223,185 C 224,167 225,158 225,158 C 207,156 198,156 198,156 C 199,137 200,128 200,128 C 181,126 171,125 171,125 C 172,107 173,98 173,98 C 155,97 145,96 145,96 C 146,77 146,68 146,68 C 128,66 119,65 119,65 C 121,49 121,41 121,41 C 100,41 90,41 90,41 C 102,28 113,15 147,15 C 203,18 263,15 289,47 C 302,64 323,204 275,224 Z" fill="#6D00FF" id="id-108847"></path><path d=" M 299,189 C 284,189 277,188 277,188 C 278,170 278,161 278,161 C 258,159 248,159 248,159 C 249,140 249,130 249,130 C 234,129 227,129 227,129 C 227,111 228,102 228,102 C 191,99 172,97 172,97 C 174,71 174,57 174,57 C 141,54 124,52 124,52 C 124,29 124,18 124,18 C 140,13 229,16 259,27 C 279,33 291,45 296,64 C 309,119 304,177 299,189 Z" fill="#9200FF" id="id-108848"></path><path d=" M 305,134 C 289,133 282,133 282,133 C 283,114 283,105 283,105 C 265,105 257,104 257,104 C 257,85 257,76 257,76 C 239,75 230,75 230,75 C 231,56 231,46 231,46 C 214,45 205,44 205,44 C 206,27 206,18 206,18 C 229,20 257,22 279,37 C 295,50 304,82 305,134 Z" fill="#C600FF" id="id-108849"></path><path d=" M 81,76 C 109,82 123,85 123,85 C 193,63 227,51 227,51 C 225,67 223,75 223,75 C 267,70 289,67 289,67 C 286,40 256,21 168,19 C 116,17 87,36 81,76 Z" fill="url(#id-108813)" id="id-108850"></path><path d=" M 185,274 C 184,287 184,294 184,294 L 203,294 C 202,283 196,276 185,274 Z" fill="#0007FF" id="id-108851"></path><path d=" M 113,185 C 114,186 115,187 115,187 C 111,192 108,194 108,194 L 107,193 C 111,188 113,185 113,185 Z" fill="#000000" id="id-108852"></path><path d=" M 106,182 C 107,183 108,184 108,184 C 103,190 100,192 100,192 L 98,191 C 103,185 106,182 106,182 Z" fill="#000000" id="id-108853"></path><path d=" M 95,178 C 96,179 97,180 97,180 C 91,186 88,189 88,189 L 86,187 C 92,181 95,178 95,178 Z" fill="#000000" id="id-108854"></path><path d=" M 204,284 C 205,287 206,290 206,293 C 209,293 211,293 211,293 C 210,311 210,321 210,321 C 227,322 236,322 236,322 C 236,341 235,351 235,351 L 248,351 C 250,336 250,316 249,296 C 242,296 239,296 239,296 C 239,277 240,267 240,267 L 231,266 C 227,274 218,281 208,287 C 205,285 204,284 204,284 Z" fill="#0016FF" id="id-108855"></path><path d=" M 210,254 C 209,262 209,266 209,266 L 227,266 C 229,263 231,259 226,252 C 222,248 217,249 210,254 Z" fill="#5000FF" id="id-108856"></path><path d=" M 249,296 L 239,296 L 240,268 L 231,267 C 234,262 235,257 230,250 C 224,245 218,244 211,252 L 212,241 L 237,240 C 240,259 246,277 249,296 Z" fill="#5400FF" id="id-108857"></path><path d=" M 274,376 C 277,369 278,359 279,349 C 282,356 285,366 286,378 C 281,379 277,378 274,376 Z" fill="#0C004F" id="id-108858"></path><path d=" M 125,393 C 125,405 125,411 125,411 L 150,412 L 150,398 C 141,397 133,395 125,393 Z" fill="#0283A0" id="id-108859"></path><path d=" M 171,413 L 200,416 L 184,425 L 177,423 L 179,426 L 172,430 C 171,426 171,420 171,413 Z" fill="#005464" id="id-108860"></path><path d=" M 185,427 C 195,421 200,417 200,417 L 199,429 C 196,430 191,429 185,427 Z" fill="#005867" id="id-108861"></path><path d=" M 178,429 C 175,432 173,433 173,433 C 179,439 187,442 197,442 L 196,435 C 191,434 186,433 179,433 L 178,429 Z" fill="#004958" id="id-108862"></path><path d=" M 83,379 C 92,381 97,381 97,381 L 96,404 L 85,408 C 83,400 83,391 83,379 Z" fill="#00724F" id="id-108863"></path><path d=" M 26,282 C 39,282 45,282 45,282 C 43,300 43,309 43,309 C 58,310 66,310 66,310 L 64,350 C 52,364 26,362 19,345 C 12,326 14,305 26,282 Z" fill="#17D6B7" id="id-108864"></path><path d=" M 45,282 C 61,284 69,285 69,285 C 68,301 68,310 68,310 L 79,310 C 75,322 71,343 64,350 L 66,311 L 43,309 C 44,291 45,282 45,282 Z" fill="#62EBF5" id="id-108865"></path><path d=" M 45,254 C 62,255 71,256 71,256 C 70,274 70,283 70,283 L 87,283 C 93,265 106,240 105,228 L 88,220 L 77,227 L 89,238 L 72,230 C 63,237 53,245 45,254 Z" fill="#76A7FA" id="id-108866"></path><path d=" M 19,343 C 32,329 39,321 39,321 L 21,349 C 20,347 19,345 19,343 Z" fill="#005854" id="id-108867"></path><path d=" M 27,355 C 35,342 39,336 39,336 L 32,358 C 29,356 28,355 27,355 Z" fill="#005854" id="id-108868"></path><path d=" M 47,311 C 38,309 29,307 19,308 C 24,303 26,301 26,301 C 25,281 47,252 64,242 C 61,249 60,254 61,258 C 58,257 56,256 56,256 C 50,263 46,269 47,274 C 42,274 39,274 39,274 C 41,279 42,282 42,282 L 37,280 C 25,294 29,305 47,311 Z" fill="#FFFFFF" id="id-108869"></path><path d=" M 84,219 L 73,217 L 65,208 L 69,200 C 73,207 78,213 84,219 Z" fill="#E0F0F3" id="id-108870"></path><path d=" M 67,194 L 64,195 C 59,191 57,189 57,189 L 63,185 C 64,188 65,191 67,194 Z" fill="#E0F0F3" id="id-108871"></path><path d=" M 61,132 C 56,136 54,138 54,138 C 53,145 53,153 53,161 L 60,155 C 59,151 60,144 61,132 Z" fill="#E0F0F3" id="id-108872"></path><path d=" M 61,133 C 58,126 56,123 56,123 C 57,115 59,104 61,94 L 69,89 C 67,98 63,116 61,133 Z" fill="#E0F0F3" id="id-108873"></path><path d=" M 42,65 L 37,69 C 26,54 25,29 42,10 C 52,2 83,-9 100,13 L 101,19 C 86,7 56,-1 40,25 C 35,39 35,53 42,65 Z" fill="#F7F9FB" id="id-108874"></path><path d=" M 66,41 C 58,36 50,31 42,31 C 45,29 48,28 53,28 C 51,24 51,22 51,22 C 62,19 70,15 73,10 C 79,16 82,19 82,19 C 84,17 85,17 85,17 C 83,26 82,30 82,30 C 77,25 76,10 66,21 C 64,21 63,21 63,21 C 63,25 63,27 63,27 L 55,24 C 63,36 66,41 66,41 Z" fill="#FFFFFF" id="id-108875"></path><path d=" M 164,186 C 165,174 195,175 198,188 C 199,196 187,205 181,205 C 181,212 192,216 194,206 C 194,206 195,207 197,207 C 193,217 187,218 178,210 C 170,216 163,216 160,205 C 160,205 161,204 163,204 C 167,212 172,213 177,206 C 168,200 163,193 164,186 Z M 195,188 C 192,178 170,179 168,184 C 165,189 172,201 179,202 C 186,203 196,193 195,188 Z" fill="#000000" id="id-108825"></path><path d=" M 137,53 C 136,37 136,29 136,29 C 138,27 139,26 139,26 C 146,37 150,43 150,43 C 151,29 151,22 151,22 C 157,32 160,36 160,36 C 163,27 165,23 165,23 C 168,30 169,34 169,34 C 195,34 219,34 235,41 C 242,34 246,31 246,31 C 246,39 247,42 247,42 C 254,36 257,33 257,33 C 249,51 245,59 245,59 C 247,50 247,46 247,46 C 242,51 240,54 240,54 C 241,44 242,39 242,39 C 235,49 232,54 232,54 C 232,47 232,43 232,43 C 216,39 197,37 174,37 C 170,46 169,51 169,51 C 167,40 165,34 165,34 C 161,43 159,47 159,47 C 157,38 155,34 155,34 C 152,46 150,52 150,52 L 140,31 C 139,46 138,53 137,53 Z" fill="#FFFFFF" id="id-108877"></path><path d=" M 266,58 C 272,45 276,38 276,38 C 283,44 290,50 295,63 C 291,63 287,65 282,68 C 285,60 287,55 287,55 L 279,60 L 279,47 C 270,54 266,58 266,58 Z" fill="#FFFFFF" id="id-108878"></path><path d=" M 254,73 C 255,75 255,75 255,75 C 240,87 232,92 232,92 L 231,90 C 241,81 248,76 254,73 Z" fill="#000000" id="id-108879"></path><path d=" M 254,191 C 255,192 255,193 255,193 C 249,199 246,202 246,202 L 245,200 C 251,194 254,191 254,191 Z" fill="#000000" id="id-108880"></path><path d=" M 265,192 C 266,194 267,195 267,195 C 262,201 259,204 259,204 L 257,202 C 262,196 265,192 265,192 Z" fill="#000000" id="id-108881"></path><path d=" M 266,205 C 268,207 269,207 269,207 C 273,201 275,198 275,198 L 273,196 C 268,202 266,205 266,205 Z" fill="#000000" id="id-108882"></path><path d=" M 291,212 C 277,201 270,195 270,195 L 296,206 C 293,210 291,212 291,212 Z" fill="#0F0F0F" id="id-108883"></path><path d=" M 276,228 C 269,220 266,216 266,216 L 282,224 C 279,227 277,229 276,228 Z" fill="#191919" id="id-108884"></path><path d=" M 118,67 C 119,65 120,64 120,64 C 132,78 138,84 138,84 L 135,86 C 124,73 118,67 118,67 Z" fill="#000000" id="id-108885"></path><path d=" M 125,96 C 122,93 114,100 113,107 C 112,112 111,162 123,165 C 130,168 131,145 125,96 Z" fill="#000000" id="id-108886"></path><path d=" M 253,106 C 250,103 242,110 241,117 C 240,122 239,172 251,175 C 258,178 259,155 253,106 Z" transform=" translate(249,140) scale(-1,1) rotate(-8) translate(-249,-140)" fill="#000000" id="id-108887"></path><path d=" M 317,343 C 317,345 317,346 317,346 C 309,339 300,334 289,329 C 303,332 312,337 317,343 Z" fill="#140089" id="id-108888"></path><path d=" M 315,314 C 311,322 310,325 310,325 C 310,312 310,305 310,305 C 304,305 301,305 301,305 C 304,301 306,299 306,299 C 299,283 293,274 286,264 C 277,264 273,264 273,264 L 281,254 C 298,273 309,293 315,314 Z" fill="#F8F9FB" id="id-108889"></path><path d=" M 293,269 C 278,269 271,269 271,269 L 273,244 C 282,254 289,263 293,269 Z" fill="#FBFCFD" id="id-108890"></path><path d=" M 91,62 C 103,73 109,78 109,78 C 114,73 121,67 136,63 L 116,35 C 95,53 87,62 91,62 Z" fill="#FEFEFE" fill-opacity="0.375" id="id-108891"></path><path d=" M 119,15 C 121,10 121,8 121,8 C 129,7 136,7 146,7 L 149,13 C 138,13 128,14 119,15 Z" fill="#F1CAFD" id="id-108892"></path><path d=" M 155,6 C 159,11 160,13 160,13 C 177,13 192,13 206,14 L 203,7 C 182,6 166,6 155,6 Z" fill="#F1CAFD" id="id-108893"></path><path d=" M 219,16 C 225,16 227,17 227,17 C 230,13 232,11 232,11 C 227,10 222,9 215,8 C 218,13 219,16 219,16 Z" fill="#F1CAFD" id="id-108894"></path><path d=" M 252,15 C 249,19 248,21 248,21 C 256,23 266,27 278,31 C 276,28 274,23 267,20 C 259,17 254,16 252,15 Z" fill="#F1CAFD" id="id-108895"></path><path d=" M 282,34 L 279,32 C 289,25 294,21 294,21 C 298,19 302,18 310,19 L 297,28 C 290,31 285,32 282,34 Z" fill="#F1CAFD" id="id-108896"></path><path d=" M 305,31 C 305,40 305,44 305,44 C 311,38 314,35 314,35 C 314,43 315,47 315,47 C 320,41 323,38 323,38 C 321,46 321,49 321,49 C 325,46 327,45 327,45 L 326,35 C 312,33 305,31 305,31 Z" fill="#FFFFFF" id="id-108897"></path><path d=" M 313,109 C 315,118 316,128 309,144 L 315,157 C 313,173 311,188 306,200 L 296,206 C 307,182 311,151 305,98 L 313,109 Z" fill="#EED9F6" id="id-108898"></path><path d=" M 296,206 L 295,220 C 290,225 286,230 278,236 C 284,242 287,246 287,246 L 283,250 L 267,235 C 281,228 289,218 296,206 Z" fill="#F9FAFC" id="id-108899"></path><path d=" M 326,330 L 320,333 C 320,338 320,344 319,349 L 327,340 C 327,334 326,330 326,330 Z" fill="#F8F9FB" id="id-108900"></path><path d=" M 319,349 L 317,356 C 323,369 321,371 313,366 C 304,374 300,378 300,378 C 300,382 301,389 295,386 L 295,392 C 298,394 301,395 304,391 C 305,384 306,378 308,374 C 313,373 331,377 327,365 C 324,359 320,354 319,349 Z" fill="#F8F9FB" id="id-108901"></path><path d=" M 257,372 C 258,356 255,341 253,331 C 253,349 251,364 244,373 C 245,380 245,386 244,396 L 251,400 C 252,393 252,384 251,375 L 255,368 L 257,372 Z" fill="#F8F9FB" id="id-108902"></path><path d=" M 243,406 L 248,410 C 247,414 247,415 247,415 L 239,417 C 241,424 242,428 242,428 C 240,432 238,435 234,438 L 229,433 C 236,425 240,416 243,406 Z" fill="#F8F9FB" id="id-108903"></path><path d=" M 202,445 C 204,446 206,446 211,444 C 213,448 215,452 218,452 L 220,457 C 216,459 211,455 206,452 C 198,464 190,463 184,450 C 175,458 167,457 166,439 C 164,434 163,432 163,432 L 168,426 C 169,431 171,434 173,437 C 173,450 176,452 182,442 L 191,445 C 194,457 197,458 202,445 Z" fill="#E1EFF3" id="id-108904"></path><path d=" M 104,441 L 111,479 C 119,477 123,476 123,476 C 123,468 124,464 124,464 C 115,465 110,466 110,466 L 130,440 L 124,439 L 114,438 L 104,441 Z" fill="#65979D" id="id-108905"></path><path d=" M 68,350 C 71,369 60,381 48,369 C 45,370 41,371 38,368 C 30,377 20,374 20,359 C 17,358 15,357 14,352 C 1,353 -1,344 6,331 C 4,323 4,314 7,304 L 16,301 C 13,312 12,323 13,333 C 6,345 7,349 16,344 C 18,348 22,353 26,357 C 26,369 29,369 35,361 C 39,363 44,364 50,362 C 59,370 61,369 59,358 C 62,356 65,354 68,350 Z" fill="#8ECED8" id="id-108906"></path><path d=" M 15,282 C 20,282 23,283 23,283 C 27,276 30,270 36,262 L 31,258 C 23,269 18,277 15,282 Z" fill="#96D1DB" id="id-108907"></path><path d=" M 6,305 C 2,302 0,300 0,300 C 7,285 10,277 10,277 C 15,276 17,276 17,276 C 16,270 16,266 16,266 L 34,255 C 21,271 11,288 6,305 Z" fill="#A6A9A5" id="id-108908"></path><polygon points="8 299 0 300 6 306" fill="#FFFFFF" id="id-108909"></polygon><path d=" M 16,266 L 25,267 L 34,255 C 22,263 16,266 16,266 Z" fill="#FFFFFF" id="id-108910"></path><path d=" M 40,249 C 43,250 45,251 45,251 C 54,243 62,234 73,227 L 66,223 C 53,235 44,244 40,249 Z" fill="#BFE1E8" id="id-108911"></path><ellipse cx="89" cy="175" fill="url(#id-108814)" opacity="0.820" id="id-108912" rx="36" ry="38"></ellipse><ellipse cx="127" cy="61" fill="url(#id-108815)" opacity="0.699" id="id-108912" rx="49" ry="51"></ellipse><ellipse cx="271" cy="267" fill="url(#id-108816)" opacity="0.820" id="id-108912" rx="33" ry="34"></ellipse><ellipse cx="304" cy="44" fill="url(#id-108816)" opacity="0.820" id="id-108912" rx="33" ry="34"></ellipse><ellipse transform=" translate(57,288) rotate(26) translate(-57,-288)" cx="57" cy="288" fill="url(#id-108818)" opacity="0.820" id="id-108912" rx="28" ry="61"></ellipse></g><g transform=" translate(48,449)" id="id-108917"><path d=" M 75,747 C 76,747 77,747 77,747 C 87,726 91,716 91,716 C 79,249 73,15 73,15 C 71,16 70,17 70,17 L 89,716 C 80,736 75,747 75,747 Z" fill="url(#id-108819)" id="id-108918"></path><path d=" M 57,0 C 65,4 68,6 68,6 C 75,4 78,3 78,3 C 78,4 78,5 78,5 L 78,5 C 78,5 78,5 78,5 C 72,7 69,8 69,8 C 72,11 73,12 73,12 C 77,13 82,16 87,23 C 88,27 81,24 76,19 L 75,19 C 74,18 73,17 72,16 C 71,17 71,18 71,18 C 65,26 57,31 49,33 C 45,34 46,29 48,27 C 54,21 61,18 68,15 L 69,14 L 69,14 L 71,13 C 71,13 71,13 71,13 C 69,11 67,9 67,9 L 67,9 L 67,9 C 62,11 59,12 59,12 C 59,11 58,11 58,11 L 58,11 L 58,11 C 64,8 67,7 67,7 C 60,4 57,2 57,2 C 57,1 57,0 57,0 Z M 70,16 C 67,17 62,20 55,24 C 48,28 47,30 48,32 C 52,33 69,21 70,16 Z M 74,15 C 75,18 85,25 85,24 C 85,22 80,17 77,16 C 75,15 74,15 74,15 Z" fill="#24262C" id="id-108919"></path><path d=" M 77,706 L 78,708 C 88,710 93,710 93,710 C 86,718 64,731 43,740 C 31,736 18,724 19,721 C 23,723 24,724 24,724 L 24,721 C 19,718 16,717 15,718 C 14,718 15,721 22,730 C 15,724 11,721 11,721 C 11,723 11,724 11,724 C 20,731 28,737 37,743 C 26,746 16,750 0,750 C 3,751 4,752 4,752 C 14,753 26,749 39,745 C 52,755 71,774 88,771 C 90,768 82,759 77,754 C 77,757 77,759 77,759 C 82,763 83,766 84,768 C 75,767 62,760 43,743 C 58,749 72,750 85,746 C 84,745 83,744 83,744 C 69,745 55,745 49,741 C 65,733 82,726 98,708 C 84,707 77,706 77,706 Z" fill="#20232A" id="id-108920"></path><path d=" M 53,736 C 54,737 55,738 55,738 C 61,735 64,733 71,730 L 70,727 C 59,732 54,735 53,736 Z" fill="#FFFFFF" id="id-108921"></path></g></g></svg>