<?xml version="1.0" encoding="UTF-8"?><svg width="1320px" height="1760px" viewBox="0 0 1320 1760" version="1.1" xmlns="http://www.w3.org/2000/svg" xmlns:xlink="http://www.w3.org/1999/xlink"><defs><linearGradient x1="100%" y1="50%" x2="0%" y2="50%" id="id-101899"><stop stop-color="#B04F92" offset="0%"></stop><stop stop-color="#C94B6B" offset="100%"></stop></linearGradient><linearGradient x1="100%" y1="50%" x2="0%" y2="50%" id="id-101900"><stop stop-color="#B04D8F" offset="0%"></stop><stop stop-color="#C54B6F" offset="100%"></stop></linearGradient><linearGradient x1="45%" y1="32%" x2="50%" y2="100%" id="id-101901"><stop stop-color="#892E88" offset="0%"></stop><stop stop-color="#723DB8" offset="100%"></stop></linearGradient><linearGradient x1="100%" y1="50%" x2="0%" y2="50%" id="id-101902"><stop stop-color="#9178D4" offset="0%"></stop><stop stop-color="#A35AAD" offset="100%"></stop></linearGradient><linearGradient x1="100%" y1="50%" x2="0%" y2="50%" id="id-101903"><stop stop-color="#BA88FF" offset="0%"></stop><stop stop-color="#D562DB" offset="100%"></stop></linearGradient><linearGradient x1="60%" y1="50%" x2="40%" y2="69%" id="id-101904"><stop stop-color="#006462" offset="0%"></stop><stop stop-color="#1178A0" offset="100%"></stop></linearGradient><linearGradient x1="100%" y1="50%" x2="0%" y2="50%" id="id-101905"><stop stop-color="#0B8C91" offset="0%"></stop><stop stop-color="#429DBF" offset="100%"></stop></linearGradient><linearGradient x1="100%" y1="50%" x2="0%" y2="50%" id="id-101906"><stop stop-color="#3685D0" offset="0%"></stop><stop stop-color="#6861DA" offset="100%"></stop></linearGradient><linearGradient x1="100%" y1="50%" x2="0%" y2="50%" id="id-101907"><stop stop-color="#167F05" offset="0%"></stop><stop stop-color="#00673E" offset="100%"></stop></linearGradient></defs><g transform=" translate(552,185)" id="id-101908"><path d=" M 19,158 C 37,136 69,126 114,128 C 157,130 184,144 197,169 C 197,170 198,160 199,138 C 188,102 161,83 117,81 C 74,79 41,93 19,124 L 19,158 Z" fill="#0A0000" id="id-101909"></path><path d=" M 16,183 C 12,181 10,180 10,180 C 4,168 0,163 0,163 C 4,159 7,158 7,158 C 6,133 6,121 6,121 C 9,127 10,129 10,129 C 13,130 15,131 15,131 C 14,120 13,114 13,114 C 30,121 38,124 38,124 C 39,125 40,125 40,125 C 39,136 38,142 38,142 C 35,144 33,144 33,144 C 31,150 30,153 30,153 C 27,151 26,150 26,150 C 21,155 19,157 19,157 L 18,161 C 16,174 16,181 16,183 Z" fill="#0B0000" id="id-101910"></path><path d=" M 10,165 C 8,160 6,158 6,158 L 0,138 C 4,127 6,121 6,121 C 9,129 11,140 13,153 C 11,161 10,165 10,165 Z" fill="#D54B58" id="id-101911"></path><path d=" M 5,159 C 9,166 11,170 11,170 C 14,160 15,155 15,155 L 6,148 L 7,158 C 5,159 5,159 5,159 Z" fill="#060000" id="id-101912"></path><path d=" M 0,163 C 2,163 3,164 3,164 C 6,167 8,168 8,168 C 10,174 12,177 12,177 L 12,181 L 10,180 C 4,168 0,163 0,163 Z" fill="#D94A52" id="id-101913"></path><polygon points="13 153 0 138 6 159 10 165" fill="#CA212C" id="id-101914"></polygon><path d=" M 29,151 C 21,142 17,138 17,138 C 14,119 12,109 12,109 C 15,104 20,98 27,92 L 38,124 C 32,142 29,151 29,151 Z" fill="url(#id-101899)" id="id-101915"></path><path d=" M 38,124 L 25,129 L 12,109 C 15,105 20,99 27,92 C 34,114 38,124 38,124 Z" fill="url(#id-101900)" id="id-101916"></path><path d=" M 12,109 C 14,112 15,113 15,113 C 17,113 19,115 23,110 L 27,92 C 20,98 15,104 12,109 Z" fill="#FF4F85" id="id-101917"></path><path d=" M 6,121 L 10,129 C 13,130 15,131 15,131 L 12,145 C 11,140 9,132 6,121 Z" fill="#38090F" id="id-101918"></path><path d=" M 38,124 C 35,115 33,110 33,110 L 39,108 L 40,124 C 39,124 38,124 38,124 Z" fill="#51030C" id="id-101919"></path><path d=" M 33,110 L 42,101 L 39,108 C 35,110 33,110 33,110 Z" fill="#D9706E" id="id-101920"></path><path d=" M 45,139 C 41,129 40,124 40,124 C 42,123 44,122 44,122 C 68,113 80,109 80,109 C 74,124 71,131 71,131 C 69,137 68,140 68,140 L 59,134 L 45,139 Z" fill="#140101" id="id-101921"></path><path d=" M 67,137 C 51,127 43,123 43,123 C 42,93 42,78 42,78 C 48,71 51,67 51,67 C 59,61 63,58 63,58 C 68,72 73,90 78,111 C 71,128 67,137 67,137 Z" fill="url(#id-101901)" id="id-101922"></path><path d=" M 78,111 C 69,122 65,128 65,128 L 51,116 L 42,78 L 51,67 L 63,58 C 69,76 74,93 78,111 Z" fill="url(#id-101902)" id="id-101923"></path><path d=" M 42,78 L 59,86 L 63,58 L 51,67 C 45,74 42,78 42,78 Z" fill="url(#id-101903)" id="id-101924"></path><path d=" M 43,129 C 52,119 57,115 57,115 C 61,119 63,122 63,122 L 51,134 C 46,131 43,129 43,129 Z" fill="#150101" id="id-101925"></path><path d=" M 50,125 C 54,120 57,118 57,118 C 59,120 60,122 60,122 L 54,128 C 51,126 50,125 50,125 Z" fill="#0099FF" id="id-101926"></path><path d=" M 79,103 C 75,94 73,89 73,89 C 71,82 70,79 70,79 L 82,84 C 80,97 79,103 79,103 Z" fill="#64000A" id="id-101927"></path><path d=" M 82,84 L 78,87 L 70,79 C 78,82 82,84 82,84 Z" fill="#D76D6E" id="id-101928"></path><polygon points="78 87 79 103 82 84" fill="#3B0000" id="id-101929"></polygon><path d=" M 83,66 C 83,109 82,130 82,130 C 90,135 97,138 104,141 C 112,139 119,135 127,130 C 129,122 130,118 130,118 C 135,127 137,131 137,131 C 139,137 141,140 141,140 C 147,136 150,134 150,134 C 161,130 167,128 167,128 C 169,116 171,110 171,110 C 167,112 166,113 166,113 C 142,112 131,111 131,111 L 127,90 L 125,65 C 97,66 83,66 83,66 Z" fill="#060000" id="id-101930"></path><path d=" M 129,102 C 127,95 127,91 127,91 C 127,84 127,80 127,80 C 129,81 130,82 130,82 L 139,78 C 132,94 129,102 129,102 Z" fill="#380000" id="id-101931"></path><path d=" M 127,86 L 131,85 L 139,78 L 130,82 L 127,80 C 127,84 127,86 127,86 Z" fill="#DA706F" id="id-101932"></path><path d=" M 131,85 L 131,97 L 139,78 C 133,82 131,85 131,85 Z" fill="#64000A" id="id-101933"></path><path d=" M 131,112 C 138,129 141,137 141,137 C 157,128 165,124 165,124 C 166,93 167,78 167,78 C 161,71 158,67 158,67 L 146,58 C 136,94 131,112 131,112 Z" fill="url(#id-101904)" id="id-101934"></path><path d=" M 131,112 C 143,115 150,117 150,117 L 154,113 L 167,78 L 158,67 L 146,58 C 136,94 131,112 131,112 Z" fill="url(#id-101905)" id="id-101935"></path><path d=" M 148,60 L 153,77 L 167,78 L 158,67 C 151,62 148,60 148,60 Z" fill="#17B9D3" id="id-101936"></path><path d=" M 83,128 C 91,133 98,137 105,139 C 110,137 117,134 125,129 C 127,101 129,70 132,38 C 125,25 118,12 104,0 C 92,12 88,20 77,38 L 83,128 Z" fill="url(#id-101906)" id="id-101937"></path><path d=" M 77,38 C 95,40 94,44 93,89 C 100,97 103,101 103,101 C 104,123 104,134 104,134 C 105,131 106,130 106,130 C 106,111 107,102 107,102 L 116,90 C 117,85 116,63 116,50 C 118,42 117,37 132,38 C 123,23 117,11 104,0 C 91,14 82,26 77,38 Z" fill="#8BA0F3" id="id-101938"></path><path d=" M 104,98 C 98,91 96,88 96,88 C 95,60 94,46 94,46 C 100,38 103,33 103,33 C 110,41 113,45 113,45 L 113,90 C 107,96 104,98 104,98 Z" fill="#380000" id="id-101939"></path><path d=" M 113,84 L 95,69 L 94,46 L 103,33 L 113,45 C 113,71 113,84 113,84 Z" fill="#640B0C" id="id-101940"></path><path d=" M 104,74 C 101,70 100,69 100,69 C 102,65 103,63 103,63 L 108,66 C 105,71 104,74 104,74 Z" fill="#EE1206" id="id-101941"></path><path d=" M 104,58 C 100,51 98,48 98,48 C 101,44 103,42 103,42 L 110,48 C 106,55 104,58 104,58 Z" fill="#EE1206" id="id-101942"></path><path d=" M 132,38 C 126,38 128,36 115,38 C 111,34 109,32 109,32 L 106,2 C 119,14 127,26 132,38 Z" fill="#7FE1FF" id="id-101943"></path><path d=" M 114,108 C 112,104 110,103 110,103 L 115,99 C 114,105 114,108 114,108 Z" fill="#8DE6FF" id="id-101944"></path><path d=" M 150,117 C 152,126 154,130 154,130 C 158,128 160,126 160,126 L 155,112 L 154,113 C 151,116 150,117 150,117 Z" fill="#0B0000" id="id-101945"></path><path d=" M 152,118 C 154,117 155,117 155,117 C 157,122 158,125 158,125 L 155,126 C 153,121 152,118 152,118 Z" fill="#EE1107" id="id-101946"></path><path d=" M 172,143 C 171,130 170,123 170,123 C 186,128 193,130 193,130 C 195,130 196,130 196,130 C 196,133 196,135 196,135 C 193,139 191,141 191,141 C 188,149 186,153 186,153 C 184,151 183,150 183,150 C 180,152 178,153 178,153 L 176,145 C 174,143 172,143 172,143 Z" fill="#0A0000" id="id-101947"></path><path d=" M 171,123 C 177,141 180,150 180,150 C 188,141 193,137 193,137 C 195,118 196,109 196,109 L 182,92 C 174,110 171,120 171,123 Z" fill="#0A8E65" id="id-101948"></path><path d=" M 184,94 L 188,119 L 196,109 C 188,99 184,94 184,94 Z" fill="#17BC54" id="id-101949"></path><polygon points="182 127 196 109 193 137 180 150 171 123" fill="url(#id-101907)" id="id-101950"></polygon><path d=" M 173,109 C 170,110 169,110 169,110 L 168,101 C 171,106 173,109 173,109 Z" fill="#D66E6D" id="id-101951"></path><path d=" M 196,177 C 196,164 196,157 196,157 L 201,154 C 203,160 204,163 204,163 L 205,164 L 196,177 Z" fill="#060000" id="id-101952"></path><path d=" M 193,182 C 196,176 197,172 197,172 C 199,172 201,171 201,171 L 198,180 C 195,182 193,182 193,182 Z" fill="#4C9A00" id="id-101953"></path><path d=" M 198,180 C 198,175 198,172 198,172 C 202,166 204,163 204,163 L 209,163 C 202,175 198,180 198,180 Z" fill="#79B600" id="id-101954"></path><path d=" M 198,167 C 197,157 196,152 196,152 C 199,141 197,132 202,121 L 209,138 C 206,149 203,159 198,167 Z" fill="#409200" id="id-101955"></path><path d=" M 196,152 L 209,138 L 202,121 C 198,130 198,142 196,152 Z" fill="#5FAC08" id="id-101956"></path><path d=" M 202,121 L 201,131 L 209,139 C 207,133 205,127 202,121 Z" fill="#64DE00" id="id-101957"></path></g></svg>