<?xml version="1.0" encoding="UTF-8"?><svg width="1320px" height="1760px" viewBox="0 0 1320 1760" version="1.1" xmlns="http://www.w3.org/2000/svg" xmlns:xlink="http://www.w3.org/1999/xlink"><defs><linearGradient x1="100%" y1="50%" x2="0%" y2="50%" id="id-66541"><stop stop-color="#8B00A6" offset="0%"></stop><stop stop-color="#57147F" offset="100%"></stop></linearGradient><linearGradient x1="100%" y1="50%" x2="0%" y2="50%" id="id-66542"><stop stop-color="#57157F" offset="0%"></stop><stop stop-color="#9000AB" offset="100%"></stop></linearGradient><linearGradient x1="100%" y1="50%" x2="0%" y2="50%" id="id-66543"><stop stop-color="#6AF17A" offset="0%"></stop><stop stop-color="#009987" offset="5%"></stop><stop stop-color="#44006D" offset="17%"></stop><stop stop-color="#225A7D" offset="29%"></stop><stop stop-color="#45006D" offset="50%"></stop><stop stop-color="#430272" offset="68%"></stop><stop stop-color="#26547B" offset="82%"></stop><stop stop-color="#019586" offset="97%"></stop><stop stop-color="#6AF17A" offset="100%"></stop></linearGradient><linearGradient x1="50%" y1="6%" x2="50%" y2="100%" id="id-66544"><stop stop-color="#C700BD" offset="0%"></stop><stop stop-color="#4D0072" offset="34%"></stop><stop stop-color="#A07DB0" offset="69%" stop-opacity="0"></stop><stop stop-color="#0471BA" offset="79%"></stop><stop stop-color="#009BD6" offset="100%"></stop></linearGradient><linearGradient x1="103%" y1="93%" x2="9%" y2="6%" id="id-66545"><stop stop-color="#00AD8A" offset="0%"></stop><stop stop-color="#56E180" offset="100%"></stop></linearGradient><linearGradient x1="100%" y1="8%" x2="13%" y2="90%" id="id-66546"><stop stop-color="#56E180" offset="0%"></stop><stop stop-color="#00AD8A" offset="100%"></stop></linearGradient></defs><g transform=" translate(489,274)" id="id-66547"><path d=" M 78,201 C 84,205 87,207 87,207 C 108,208 124,214 135,223 C 131,256 130,277 132,287 C 133,234 147,237 151,201 C 165,195 161,182 172,180 C 183,180 177,194 193,205 C 200,247 215,240 211,291 C 216,287 218,268 217,236 C 213,233 210,229 209,224 C 226,208 248,211 252,204 C 230,201 210,196 192,189 C 183,187 183,175 172,173 C 172,173 172,173 172,173 C 161,174 156,189 151,189 C 148,196 145,205 139,214 C 116,204 96,200 78,201 Z" fill="#000000" fill-opacity="0.500" id="id-66548"></path><path d=" M 203,213 C 212,206 228,200 249,195 C 266,174 264,147 257,119 C 244,144 199,168 198,183 C 197,192 199,202 203,213 Z" fill="url(#id-66541)" id="id-66549"></path><path d=" M 140,213 C 127,205 111,199 93,196 C 78,178 77,150 85,119 L 86,119 C 95,140 128,157 144,177 C 148,193 146,204 140,213 Z" fill="url(#id-66542)" id="id-66550"></path><path d=" M 134,291 C 133,291 131,291 130,288 C 124,269 128,246 126,226 C 130,226 133,225 136,222 C 111,190 11,218 1,140 L 2,139 C 21,214 84,175 140,212 C 145,204 146,193 143,177 C 120,153 93,140 87,121 L 78,119 C 62,95 95,22 114,1 C 116,5 74,70 93,114 C 107,146 146,158 150,181 L 154,187 C 160,175 165,170 171,170 C 183,168 188,189 191,187 C 194,187 190,177 200,167 C 215,151 241,138 252,110 C 263,70 243,37 229,1 C 286,83 265,118 265,118 C 262,120 259,120 256,121 C 244,147 204,165 199,183 C 198,192 199,202 203,212 C 256,176 324,211 341,140 C 341,140 341,140 342,140 C 335,216 230,190 207,222 C 209,225 212,226 217,226 C 218,257 216,293 210,291 C 216,240 193,222 193,199 C 184,199 180,175 172,175 C 164,175 162,196 150,199 C 146,232 128,243 134,291 Z" fill="url(#id-66543)" id="id-66551"></path><path d=" M 134,291 C 133,291 131,291 130,288 C 124,269 128,246 126,226 C 130,226 133,225 136,222 C 111,190 11,218 1,140 L 2,139 C 21,214 84,175 140,212 C 145,204 146,193 143,177 C 120,153 93,140 87,121 L 78,119 C 62,95 95,22 114,1 C 116,5 74,70 93,114 C 107,146 146,158 150,181 L 154,187 C 160,175 165,170 171,170 C 183,168 188,189 191,187 C 194,187 190,177 200,167 C 215,151 241,138 252,110 C 263,70 243,37 229,1 C 286,83 265,118 265,118 C 262,120 259,120 256,121 C 244,147 204,165 199,183 C 198,192 199,202 203,212 C 256,176 324,211 341,140 C 341,140 341,140 342,140 C 335,216 230,190 207,222 C 209,225 212,226 217,226 C 218,257 216,293 210,291 C 216,240 193,222 193,199 C 184,199 180,175 172,175 C 164,175 162,196 150,199 C 146,232 128,243 134,291 Z" fill="url(#id-66544)" id="id-66552"></path><path d=" M 92,112 C 74,71 95,33 114,0 C 114,5 95,38 91,64 C 87,82 87,98 92,112 Z" fill="#BC00B6" id="id-66553"></path><path d=" M 198,206 C 196,201 195,194 195,182 L 196,182 C 196,188 197,197 198,206 Z" fill="#893AAF" id="id-66554"></path><path d=" M 258,100 L 260,100 C 260,104 259,107 257,110 L 258,100 Z" fill="#B85CD8" id="id-66555"></path><path d=" M 265,119 L 264,119 C 266,77 250,39 228,1 C 263,51 276,91 265,119 Z" fill="#B600B4" id="id-66556"></path><path d=" M 266,97 C 264,76 256,50 241,20 C 247,29 252,38 257,49 C 263,66 267,82 266,97 Z" fill="#DD7BFA" id="id-66557"></path><path d=" M 266,104 L 268,104 C 268,111 267,109 266,110 C 266,109 266,107 266,104 Z" fill="#D766EF" id="id-66558"></path><path d=" M 138,225 C 139,224 139,224 139,224 C 140,224 140,225 140,225 C 132,244 130,265 133,289 C 133,289 133,290 133,290 C 132,290 132,290 132,289 C 128,265 130,244 138,225 Z" fill="#57C4F9" id="id-66559" fill-rule="nonzero"></path><path d=" M 215,228 C 215,228 216,228 216,229 L 216,232 L 216,235 L 216,237 L 216,238 L 216,241 L 216,243 L 216,244 L 216,246 L 216,248 L 216,250 C 216,250 216,251 216,251 L 216,252 L 216,254 L 216,256 L 216,258 L 216,259 L 216,260 L 216,262 L 216,263 L 216,264 L 216,266 L 216,267 L 215,269 L 215,270 L 215,271 L 215,272 L 215,273 L 215,274 L 215,275 L 215,276 L 215,277 L 215,278 L 214,279 L 214,280 C 214,280 214,281 214,281 L 214,282 L 214,283 L 214,283 L 214,284 L 213,285 L 213,286 C 213,286 213,286 213,286 L 213,287 L 213,288 L 213,289 C 213,289 212,289 212,289 L 212,290 C 212,290 212,290 212,290 L 212,291 C 212,291 212,291 212,291 C 212,292 211,292 211,292 C 210,292 210,291 210,291 L 210,290 L 210,289 L 211,289 C 211,289 211,288 211,288 L 211,288 L 211,287 L 211,286 C 211,286 211,286 211,286 L 212,285 L 212,284 L 212,283 L 212,282 L 212,281 L 212,280 L 212,279 L 213,279 L 213,278 L 213,277 L 213,276 L 213,275 L 213,273 L 213,272 L 213,271 L 213,270 L 214,269 L 214,268 L 214,267 L 214,265 L 214,264 L 214,262 L 214,260 L 214,259 L 214,258 L 214,255 L 214,253 L 214,251 C 214,251 214,250 214,250 L 214,248 L 214,246 L 214,244 L 214,243 L 214,240 L 214,238 L 214,237 L 214,234 L 214,232 L 214,229 C 214,228 214,228 215,228 Z" fill="#57C4F9" id="id-66560" fill-rule="nonzero"></path><circle cx="214" cy="232" r="2" fill="#64C2F8" id="id-66561"></circle><path d=" M 142,211 C 142,211 143,211 143,212 C 143,212 143,213 143,213 C 142,213 142,213 142,213 L 142,213 C 142,213 142,213 142,213 L 142,213 L 142,214 C 140,215 139,216 136,214 C 135,214 135,213 135,213 C 135,212 136,212 136,212 C 139,213 139,213 140,212 L 141,212 C 141,211 141,211 142,211 Z" fill="#0078BD" id="id-66562" fill-rule="nonzero"></path><path d=" M 55,191 L 61,192 L 67,192 L 71,193 L 73,193 L 76,193 L 78,194 L 80,194 L 81,194 L 83,194 L 85,195 L 87,195 L 88,195 L 89,195 L 90,196 L 92,196 L 93,196 L 94,196 L 95,197 C 95,197 96,197 96,197 C 110,200 121,204 131,210 C 131,211 131,211 131,212 C 131,212 130,212 130,212 C 120,206 109,202 96,199 C 95,198 94,198 94,198 L 93,198 C 92,198 92,198 91,198 L 90,197 L 89,197 L 88,197 L 86,197 L 84,196 L 83,196 L 81,196 L 79,196 L 77,195 L 76,195 L 74,195 L 71,195 L 69,194 L 65,194 L 55,193 C 54,193 54,192 54,192 C 54,191 54,191 55,191 L 55,191 Z" fill="#9137C0" id="id-66563" fill-rule="nonzero"></path><path d=" M 1,139 C 1,139 2,139 2,140 C 8,169 24,184 49,188 C 50,188 50,189 50,189 C 50,190 49,190 49,190 C 23,186 6,170 0,140 C 0,140 0,139 1,139 Z" fill="url(#id-66545)" id="id-66564" fill-rule="nonzero"></path><path d=" M 125,153 C 125,153 126,153 126,153 C 135,159 141,165 146,173 C 146,173 146,174 146,174 C 145,174 145,174 144,174 C 140,166 133,160 125,155 C 125,154 125,154 125,153 Z" fill="#A14AC2" id="id-66565" fill-rule="nonzero"></path><circle cx="144" cy="173" r="2" fill="#C868E7" id="id-66561"></circle><path d=" M 148,179 C 148,179 148,179 148,180 C 150,191 149,200 147,207 C 146,208 146,208 146,208 C 145,208 145,207 145,207 C 147,200 148,191 147,180 C 147,179 147,179 148,179 Z" fill="#B358D3" id="id-66567" fill-rule="nonzero"></path><path d=" M 116,0 C 116,0 116,1 116,1 L 114,4 L 114,6 L 113,8 L 112,9 L 111,11 L 110,13 L 109,14 L 108,16 L 107,18 L 107,19 L 106,21 L 105,22 C 105,23 105,23 104,24 L 104,25 L 103,27 L 102,29 C 102,29 102,29 102,29 L 101,31 L 101,32 L 100,34 L 99,35 L 99,37 C 99,37 99,37 99,37 L 98,39 L 97,40 L 97,41 C 97,42 97,42 97,42 L 96,44 C 96,44 96,44 96,45 L 95,46 L 95,48 C 94,49 94,50 93,52 L 93,53 C 92,54 92,56 92,57 L 91,59 C 91,59 91,60 91,61 L 90,62 C 90,62 90,63 90,63 L 90,64 C 90,65 89,65 89,65 C 88,65 88,64 88,64 C 88,63 88,63 88,62 L 89,61 C 89,60 89,59 90,58 L 90,56 C 90,56 90,55 90,55 L 91,54 C 91,53 91,53 91,52 L 92,51 C 92,50 92,49 93,48 L 93,46 C 93,46 93,46 93,46 L 94,44 C 94,44 94,44 94,44 L 95,42 C 95,42 95,42 95,42 L 95,40 L 96,39 C 96,39 96,38 96,38 L 97,37 L 97,35 C 97,35 98,35 98,34 L 98,33 C 98,33 99,33 99,32 L 99,31 L 100,29 L 101,28 L 101,26 L 102,25 C 102,25 102,24 102,24 L 103,22 L 104,21 L 105,19 L 105,18 L 106,16 L 107,14 L 108,13 L 109,11 L 110,9 L 110,8 L 111,6 L 112,4 L 113,2 L 114,0 C 114,0 115,0 116,0 Z" fill="#DC75F8" id="id-66568" fill-rule="nonzero"></path><path d=" M 87,50 C 87,49 88,49 88,49 C 89,49 89,50 89,50 C 83,66 82,80 84,95 C 85,95 84,96 84,96 C 83,96 83,96 83,95 C 80,80 81,66 87,50 Z" fill="#C55EE0" id="id-66569" fill-rule="nonzero"></path><path d=" M 84,100 C 84,100 85,100 85,101 C 92,121 104,137 121,149 C 121,150 121,150 121,151 C 121,151 120,151 120,151 C 102,138 90,122 83,101 C 83,101 83,100 84,100 Z" fill="#C464E3" id="id-66570" fill-rule="nonzero"></path><path d=" M 173,172 C 173,171 174,171 174,171 C 178,172 180,174 182,177 L 182,177 L 182,178 C 183,178 183,178 183,178 L 183,179 L 183,180 L 184,180 L 184,181 L 185,182 L 185,183 C 185,183 185,183 185,183 L 185,183 L 186,184 C 187,185 188,186 189,187 C 189,188 189,188 189,189 C 188,189 188,189 188,189 C 187,188 186,187 185,187 L 185,186 C 185,186 184,185 184,185 L 184,184 C 184,184 184,184 184,184 L 183,183 L 183,183 L 182,181 L 182,180 C 182,180 181,180 181,180 L 181,179 L 181,179 C 181,178 180,178 180,178 L 180,177 C 178,175 176,174 174,173 C 173,173 173,172 173,172 Z" fill="#8400A2" id="id-66571" fill-rule="nonzero"></path><circle cx="176" cy="173" r="2" fill="#C867E6" id="id-66561"></circle><path d=" M 253,118 C 253,117 254,117 254,117 C 255,117 255,118 255,118 C 254,121 253,124 251,127 L 250,127 L 250,128 C 250,128 250,128 249,129 L 249,129 C 248,130 248,131 248,131 L 247,132 C 247,132 246,133 246,133 L 245,134 C 245,134 245,134 245,134 L 245,135 C 244,135 244,135 244,135 L 244,136 C 243,136 243,136 243,136 L 242,137 C 242,137 242,137 242,137 L 241,138 L 241,139 C 241,139 240,139 240,139 L 239,140 C 239,140 239,140 239,140 L 238,141 C 238,141 238,141 238,141 L 237,142 L 236,143 C 236,143 236,143 236,143 L 235,144 L 234,145 C 234,145 234,145 233,145 L 232,146 L 231,147 L 230,148 L 229,149 L 228,150 L 227,151 L 217,159 L 215,160 L 214,162 L 212,163 L 211,163 L 211,164 L 210,165 L 210,165 L 209,166 C 208,166 208,166 208,166 L 207,167 C 203,171 201,174 199,177 C 198,177 198,177 197,177 C 197,177 197,176 197,176 C 200,172 203,168 208,164 L 210,163 L 211,162 L 212,161 L 212,160 L 214,159 L 215,158 L 224,151 L 226,149 L 227,148 L 229,147 L 230,146 L 231,145 L 232,144 L 233,143 C 233,143 233,143 234,143 L 234,142 C 235,142 235,142 235,142 L 236,141 L 237,140 L 237,139 C 238,139 238,139 238,139 L 239,138 L 239,137 L 240,137 L 241,136 C 242,135 242,134 243,134 L 244,133 C 244,133 244,132 245,132 L 245,131 L 246,131 C 246,130 246,130 247,129 L 247,129 C 250,125 252,121 253,118 Z" fill="#B356D3" id="id-66573" fill-rule="nonzero"></path><path d=" M 341,140 C 342,140 342,141 342,141 C 337,169 319,187 285,193 C 285,193 284,193 284,192 C 284,192 284,191 285,191 C 318,185 336,168 340,141 C 340,140 341,140 341,140 L 341,140 Z" fill="url(#id-66546)" id="id-66574" fill-rule="nonzero"></path><path d=" M 278,193 C 279,193 279,193 279,194 C 279,194 279,195 278,195 L 276,195 C 276,195 276,195 275,195 L 273,195 L 271,195 C 271,195 271,195 271,195 L 269,195 C 268,195 268,195 268,195 L 266,196 L 264,196 L 263,196 L 261,196 L 259,196 L 257,196 C 257,197 257,197 257,197 L 255,197 C 250,197 245,198 241,199 L 240,199 C 228,202 219,206 212,211 C 212,211 211,211 211,211 C 211,210 211,210 211,209 C 220,203 232,199 248,196 L 250,196 L 252,195 C 252,195 252,195 252,195 L 254,195 C 254,195 254,195 255,195 L 256,195 C 257,195 257,195 257,195 L 259,195 C 259,195 259,194 260,194 L 261,194 L 263,194 L 265,194 C 265,194 265,194 266,194 L 268,194 L 269,194 L 271,193 L 273,193 L 275,193 L 277,193 C 277,193 278,193 278,193 Z" fill="#B357D4" id="id-66575" fill-rule="nonzero"></path><path d=" M 198,213 C 198,212 199,212 199,212 C 199,212 200,212 200,213 L 200,213 C 201,213 201,213 203,213 L 203,213 C 203,213 204,213 204,214 C 204,214 204,215 203,215 C 201,215 201,215 200,214 L 199,214 C 199,214 199,214 199,214 C 198,214 198,213 198,213 Z" fill="#027BBF" id="id-66576" fill-rule="nonzero"></path><path d=" M 88,186 C 97,176 101,162 98,142 C 103,147 105,149 105,149 C 98,161 98,178 101,196 L 94,194 C 91,192 89,189 88,186 Z" fill="#FFFFFF" fill-opacity="0.256" id="id-66577"></path><path d=" M 242,195 L 250,194 L 252,191 C 244,185 246,168 249,150 L 239,143 L 238,144 C 244,156 245,173 242,195 Z" fill="#FFFFFF" fill-opacity="0.256" id="id-66578"></path><polygon points="98 142 105 149 99 162" fill="#D96EFB" id="id-66579"></polygon><path d=" M 240,144 L 239,145 C 242,152 243,159 245,167 L 248,152 L 240,144 Z" fill="#D96EFB" id="id-66580"></path><path d=" M 90,145 C 92,145 93,144 93,143 C 93,142 92,141 90,141 C 89,141 88,142 88,143 C 88,144 89,145 90,145 Z M 90,166 C 92,166 93,165 93,164 C 93,163 92,162 90,162 C 89,162 88,163 88,164 C 88,165 89,166 90,166 Z M 90,155 C 92,155 93,154 93,153 C 93,152 92,151 90,151 C 89,151 88,152 88,153 C 88,154 89,155 90,155 Z M 90,178 C 92,178 93,177 93,176 C 93,175 92,174 90,174 C 89,174 88,175 88,176 C 88,177 89,178 90,178 Z M 96,150 C 97,150 98,149 98,148 C 98,147 97,146 96,146 C 95,146 94,147 94,148 C 94,149 95,150 96,150 Z M 96,160 C 97,160 98,159 98,158 C 98,157 97,156 96,156 C 95,156 94,157 94,158 C 94,159 95,160 96,160 Z M 96,171 C 97,171 98,170 98,169 C 98,168 97,167 96,167 C 95,167 94,168 94,169 C 94,170 95,171 96,171 Z M 96,183 C 97,183 98,182 98,181 C 98,180 97,179 96,179 C 95,179 94,180 94,181 C 94,182 95,183 96,183 Z M 107,193 C 108,193 109,192 109,191 C 109,190 108,189 107,189 C 106,189 105,190 105,191 C 105,192 106,193 107,193 Z M 102,188 C 103,188 103,187 103,186 C 103,185 103,184 102,184 C 101,184 100,185 100,186 C 100,187 101,188 102,188 Z M 102,178 C 103,178 103,177 103,176 C 103,175 103,174 102,174 C 101,174 100,175 100,176 C 100,177 101,178 102,178 Z M 102,166 C 103,166 103,165 103,164 C 103,163 103,162 102,162 C 101,162 100,163 100,164 C 100,165 101,166 102,166 Z M 102,155 C 103,155 103,154 103,153 C 103,152 103,151 102,151 C 101,151 100,152 100,153 C 100,154 101,155 102,155 Z M 107,160 C 108,160 109,159 109,158 C 109,157 108,156 107,156 C 106,156 105,157 105,158 C 105,159 106,160 107,160 Z M 107,171 C 108,171 109,170 109,169 C 109,168 108,167 107,167 C 106,167 105,168 105,169 C 105,170 106,171 107,171 Z M 107,182 C 108,182 109,181 109,180 C 109,179 108,178 107,178 C 106,178 105,179 105,180 C 105,181 106,182 107,182 Z M 112,188 C 113,188 113,187 113,186 C 113,185 113,184 112,184 C 111,184 110,185 110,186 C 110,187 111,188 112,188 Z M 112,177 C 113,177 113,176 113,175 C 113,174 113,173 112,173 C 111,173 110,174 110,175 C 110,176 111,177 112,177 Z M 112,166 C 113,166 113,165 113,164 C 113,163 113,162 112,162 C 111,162 110,163 110,164 C 110,165 111,166 112,166 Z M 117,171 C 118,171 119,170 119,169 C 119,168 118,167 117,167 C 116,167 115,168 115,169 C 115,170 116,171 117,171 Z M 117,183 C 118,183 119,182 119,181 C 119,180 118,179 117,179 C 116,179 115,180 115,181 C 115,182 116,183 117,183 Z M 117,193 C 118,193 119,192 119,191 C 119,190 118,189 117,189 C 116,189 115,190 115,191 C 115,192 116,193 117,193 Z M 122,199 C 123,199 124,198 124,197 C 124,196 123,195 122,195 C 121,195 121,196 121,197 C 121,198 121,199 122,199 Z M 122,188 C 123,188 124,188 124,187 C 124,186 123,185 122,185 C 121,185 121,186 121,187 C 121,188 121,188 122,188 Z M 122,178 C 123,178 124,177 124,176 C 124,175 123,174 122,174 C 121,174 121,175 121,176 C 121,177 121,178 122,178 Z M 128,171 C 129,171 130,170 130,169 C 130,168 129,167 128,167 C 127,167 126,168 126,169 C 126,170 127,171 128,171 Z M 122,166 C 123,166 124,165 124,164 C 124,163 123,162 122,162 C 121,162 121,163 121,164 C 121,165 121,166 122,166 Z M 134,178 C 135,178 136,177 136,176 C 136,175 135,174 134,174 C 133,174 132,175 132,176 C 132,177 133,178 134,178 Z M 128,183 C 129,183 130,182 130,181 C 130,180 129,179 128,179 C 127,179 126,180 126,181 C 126,182 127,183 128,183 Z M 134,188 C 135,188 136,187 136,186 C 136,185 135,184 134,184 C 133,184 132,185 132,186 C 132,187 133,188 134,188 Z M 128,193 C 129,193 130,192 130,191 C 130,190 129,189 128,189 C 127,189 126,190 126,191 C 126,192 127,193 128,193 Z M 134,199 C 135,199 136,198 136,197 C 136,196 135,195 134,195 C 133,195 132,196 132,197 C 132,198 133,199 134,199 Z M 140,204 C 141,204 142,203 142,202 C 142,201 141,200 140,200 C 139,200 138,201 138,202 C 138,203 139,204 140,204 Z M 140,193 C 141,193 142,192 142,191 C 142,190 141,189 140,189 C 139,189 138,190 138,191 C 138,192 139,193 140,193 Z M 140,183 C 141,183 142,182 142,181 C 142,180 141,179 140,179 C 139,179 138,180 138,181 C 138,182 139,183 140,183 Z M 204,182 C 205,182 206,181 206,180 C 206,179 205,178 204,178 C 203,178 202,179 202,180 C 202,181 203,182 204,182 Z M 204,193 C 205,193 206,192 206,191 C 206,190 205,189 204,189 C 203,189 202,190 202,191 C 202,192 203,193 204,193 Z M 204,204 C 205,204 206,203 206,202 C 206,201 205,200 204,200 C 203,200 202,201 202,202 C 202,203 203,204 204,204 Z M 209,199 C 210,199 211,198 211,197 C 211,196 210,195 209,195 C 208,195 207,196 207,197 C 207,198 208,199 209,199 Z M 209,188 C 210,188 211,187 211,186 C 211,185 210,184 209,184 C 208,184 207,185 207,186 C 207,187 208,188 209,188 Z M 209,177 C 210,177 211,176 211,175 C 211,174 210,173 209,173 C 208,173 207,174 207,175 C 207,176 208,177 209,177 Z M 214,172 C 215,172 216,171 216,170 C 216,168 215,167 214,167 C 213,167 212,168 212,170 C 212,171 213,172 214,172 Z M 226,172 C 227,172 228,171 228,170 C 228,168 227,167 226,167 C 225,167 224,168 224,170 C 224,171 225,172 226,172 Z M 237,172 C 238,172 239,171 239,170 C 239,168 238,167 237,167 C 236,167 235,168 235,170 C 235,171 236,172 237,172 Z M 248,172 C 249,172 250,171 250,170 C 250,168 249,167 248,167 C 247,167 246,168 246,170 C 246,171 247,172 248,172 Z M 214,182 C 215,182 216,181 216,180 C 216,179 215,178 214,178 C 213,178 212,179 212,180 C 212,181 213,182 214,182 Z M 214,193 C 215,193 216,192 216,191 C 216,190 215,189 214,189 C 213,189 212,190 212,191 C 212,192 213,193 214,193 Z M 226,193 C 227,193 228,192 228,191 C 228,190 227,189 226,189 C 225,189 224,190 224,191 C 224,192 225,193 226,193 Z M 237,193 C 238,193 239,192 239,191 C 239,190 238,189 237,189 C 236,189 235,190 235,191 C 235,192 236,193 237,193 Z M 231,188 C 232,188 233,188 233,187 C 233,186 232,185 231,185 C 230,185 230,186 230,187 C 230,188 230,188 231,188 Z M 226,183 C 227,183 228,182 228,181 C 228,180 227,179 226,179 C 225,179 224,180 224,181 C 224,182 225,183 226,183 Z M 231,178 C 232,178 233,177 233,176 C 233,175 232,174 231,174 C 230,174 230,175 230,176 C 230,177 230,178 231,178 Z M 237,183 C 238,183 239,182 239,181 C 239,180 238,179 237,179 C 236,179 235,180 235,181 C 235,182 236,183 237,183 Z M 242,188 C 243,188 244,188 244,187 C 244,186 243,185 242,185 C 241,185 240,186 240,187 C 240,188 241,188 242,188 Z M 242,178 C 243,178 244,177 244,176 C 244,175 243,174 242,174 C 241,174 240,175 240,176 C 240,177 241,178 242,178 Z M 231,166 C 232,166 233,165 233,164 C 233,163 232,162 231,162 C 230,162 230,163 230,164 C 230,165 230,166 231,166 Z M 226,160 C 227,160 228,159 228,158 C 228,157 227,156 226,156 C 225,156 224,157 224,158 C 224,159 225,160 226,160 Z M 231,156 C 232,156 233,155 233,154 C 233,153 232,152 231,152 C 230,152 230,153 230,154 C 230,155 230,156 231,156 Z M 237,160 C 238,160 239,159 239,158 C 239,157 238,156 237,156 C 236,156 235,157 235,158 C 235,159 236,160 237,160 Z M 237,150 C 238,150 239,149 239,148 C 239,147 238,146 237,146 C 236,146 235,147 235,148 C 235,149 236,150 237,150 Z M 242,166 C 243,166 244,165 244,164 C 244,163 243,162 242,162 C 241,162 240,163 240,164 C 240,165 241,166 242,166 Z M 248,183 C 249,183 250,182 250,181 C 250,180 249,179 248,179 C 247,179 246,180 246,181 C 246,182 247,183 248,183 Z M 252,177 C 253,177 254,176 254,175 C 254,174 253,173 252,173 C 251,173 250,174 250,175 C 250,176 251,177 252,177 Z M 252,166 C 253,166 254,165 254,164 C 254,163 253,162 252,162 C 251,162 250,163 250,164 C 250,165 251,166 252,166 Z M 248,160 C 249,160 250,159 250,158 C 250,157 249,156 248,156 C 247,156 246,157 246,158 C 246,159 247,160 248,160 Z M 252,156 C 253,156 254,155 254,154 C 254,153 253,152 252,152 C 251,152 250,153 250,154 C 250,155 251,156 252,156 Z M 248,149 C 249,149 250,148 250,147 C 250,146 249,146 248,146 C 247,146 246,146 246,147 C 246,148 247,149 248,149 Z M 253,144 C 254,144 255,143 255,142 C 255,141 254,140 253,140 C 252,140 251,141 251,142 C 251,143 252,144 253,144 Z M 242,156 C 243,156 244,155 244,154 C 244,153 243,152 242,152 C 241,152 240,153 240,154 C 240,155 241,156 242,156 Z M 242,145 C 243,145 244,144 244,143 C 244,142 243,141 242,141 C 241,141 240,142 240,143 C 240,144 241,145 242,145 Z M 248,139 C 249,139 250,138 250,137 C 250,136 249,135 248,135 C 247,135 246,136 246,137 C 246,138 247,139 248,139 Z M 253,133 C 253,133 254,132 254,131 C 254,131 253,130 253,130 C 252,130 251,131 251,131 C 251,132 252,133 253,133 Z M 220,199 C 221,199 222,198 222,197 C 222,196 221,195 220,195 C 219,195 218,196 218,197 C 218,198 219,199 220,199 Z M 220,188 C 221,188 222,187 222,186 C 222,185 221,184 220,184 C 219,184 218,185 218,186 C 218,187 219,188 220,188 Z M 220,178 C 221,178 222,177 222,176 C 222,175 221,174 220,174 C 219,174 218,175 218,176 C 218,177 219,178 220,178 Z M 220,166 C 221,166 222,165 222,164 C 222,163 221,162 220,162 C 219,162 218,163 218,164 C 218,165 219,166 220,166 Z" fill="#0D0C13" id="id-66581"></path></g></svg>