<?xml version="1.0" encoding="UTF-8"?><svg width="1320px" height="1760px" viewBox="0 0 1320 1760" version="1.1" xmlns="http://www.w3.org/2000/svg" xmlns:xlink="http://www.w3.org/1999/xlink"><defs><linearGradient x1="50%" y1="28%" x2="32%" y2="89%" id="id-104833"><stop stop-color="#1C0606" offset="0%"></stop><stop stop-color="#270E0E" offset="100%" stop-opacity="0.199"></stop></linearGradient><filter width="146%" height="129%" x="-23%" y="-14%" id="id-104834" filterUnits="objectBoundingBox"><feGaussianBlur in="SourceGraphic" stdDeviation="5"></feGaussianBlur></filter><radialGradient cx="67%" cy="44%" r="68%" id="id-104835" fx="67%" fy="44%" gradientTransform=" translate(0.671,0.439) scale(1,0.671) rotate(75) translate(-0.671,-0.439)"><stop stop-color="#C90000" offset="0%"></stop><stop stop-color="#2A1113" offset="100%"></stop></radialGradient><linearGradient x1="50%" y1="37%" x2="32%" y2="73%" id="id-104836"><stop stop-color="#1C0606" offset="0%"></stop><stop stop-color="#270E0E" offset="100%" stop-opacity="0.199"></stop></linearGradient><filter width="144%" height="129%" x="-22%" y="-14%" id="id-104837" filterUnits="objectBoundingBox"><feGaussianBlur in="SourceGraphic" stdDeviation="5"></feGaussianBlur></filter><radialGradient cx="35%" cy="41%" r="76%" id="id-104838" fx="35%" fy="41%" gradientTransform=" translate(0.349,0.415) scale(1,0.671) rotate(83) translate(-0.349,-0.415)"><stop stop-color="#C90000" offset="0%"></stop><stop stop-color="#2A1113" offset="100%"></stop></radialGradient></defs><g transform=" translate(548,221)" id="id-104839"><g transform=" translate(145,0)" id="id-104840"><polygon points="5 106 34 131 38 100" fill="url(#id-104833)" opacity="0.599" id="id-104841"></polygon><path d=" M 75,57 C 75,58 74,59 74,59 C 72,66 69,72 65,77 C 65,77 64,78 64,78 C 56,88 46,97 35,105 C 34,106 24,108 18,100 C 12,92 10,77 12,77 C 22,76 30,68 38,61 C 38,61 39,60 39,60 C 49,51 56,40 58,34 C 63,23 59,8 60,2 C 75,24 79,42 75,57 Z" fill="#FF2626" id="id-104842" filter="url(#id-104834)"></path><path d=" M 75,57 C 75,58 74,59 74,59 C 72,66 69,72 65,77 C 65,77 64,78 64,78 C 56,88 46,97 35,105 C 33,107 30,110 29,113 C 29,114 29,114 29,114 C 26,114 24,114 22,112 C -3,115 -1,85 5,76 C 5,75 6,75 6,75 C 6,75 8,73 11,73 C 21,73 30,68 38,61 C 38,61 39,60 39,60 C 49,51 56,40 58,34 C 63,23 59,8 60,2 C 75,24 79,42 75,57 Z" fill="url(#id-104835)" id="id-104842"></path><path d=" M 74,59 C 70,73 60,84 49,94 L 49,94 C 44,98 40,102 35,105 C 33,107 30,110 29,113 L 28,105 L 28,100 C 28,100 60,80 74,59 Z" fill="#363B7E" id="id-104842"></path><path d=" M 5,90 C 5,90 8,102 11,104 C 11,104 1,103 5,90 Z" fill="#636383" id="id-104842"></path><path d=" M 17,107 L 22,107 L 23,110 C 23,110 18,109 17,107 Z" fill="#485096" id="id-104842"></path><path d=" M 49,94 C 44,98 40,102 35,105 C 33,107 30,110 29,113 L 28,105 C 29,104 30,104 32,103 C 36,103 44,98 49,94 Z" fill="#5562AC" id="id-104842"></path><path d=" M 29,68 C 23,74 14,77 6,75 C 6,75 6,75 6,75 C 6,75 8,73 11,73 C 17,73 23,71 29,68 Z" fill="#898AAE" id="id-104842"></path><path d=" M 76,39 C 67,47 61,42 57,37 C 57,36 58,35 58,34 C 63,23 59,8 60,2 C 70,15 75,28 76,39 Z" fill="#240F18" id="id-104842"></path><path d=" M 67,35 C 67,39 66,51 57,56 C 48,61 49,62 40,70 L 40,70 C 31,79 19,100 19,100 C 12,95 13,89 13,89 C 13,89 31,74 39,68 C 40,67 41,66 41,66 C 46,62 63,47 63,30 C 64,13 59,0 59,0 C 68,15 68,32 67,35 Z" fill="#8E9BC2" opacity="0.882" id="id-104842"></path><path d=" M 65,77 C 65,77 64,78 64,78 C 59,79 49,80 43,72 C 41,70 40,68 39,66 C 39,64 38,63 38,61 C 38,61 39,60 39,60 C 39,62 40,63 41,65 C 41,67 42,69 44,70 C 48,75 54,79 65,77 Z" fill="#EC2027" id="id-104842"></path><path d=" M 44,70 L 43,72 C 41,70 40,68 39,66 L 41,65 C 41,67 42,69 44,70 Z" fill="#D5DCF0" id="id-104842"></path><path d=" M 40,70 C 31,79 19,100 19,100 C 12,95 13,89 13,89 C 13,89 31,74 39,68 L 40,70 Z" fill="#58465D" id="id-104842"></path></g><polygon points="42 105 47 127 71 107" fill="url(#id-104836)" opacity="0.599" id="id-104841"></polygon><g id="id-104856"><path d=" M 2,57 C 2,58 3,59 3,59 C 5,66 8,72 12,77 C 12,77 13,78 13,78 C 21,88 31,97 42,105 C 42,106 61,108 64,105 C 71,96 68,73 66,73 C 56,73 47,68 39,61 C 39,61 38,60 38,60 C 28,51 21,40 19,34 C 14,23 18,8 17,2 C 2,24 -2,42 2,57 Z" fill="#FF2626" id="id-104842" filter="url(#id-104837)"></path><path d=" M 2,57 C 2,58 3,59 3,59 C 5,66 8,72 12,77 C 12,77 13,78 13,78 C 21,88 31,97 42,105 C 44,107 47,110 48,113 C 48,114 48,114 48,114 C 51,114 53,114 55,112 C 80,115 78,85 72,76 C 72,75 71,75 71,75 C 71,75 69,73 66,73 C 56,73 47,68 39,61 C 39,61 38,60 38,60 C 28,51 21,40 19,34 C 14,23 18,8 17,2 C 2,24 -2,42 2,57 Z" fill="url(#id-104838)" id="id-104842"></path><path d=" M 3,59 C 7,73 17,84 28,94 L 28,94 C 33,98 37,102 42,105 C 44,107 47,110 48,113 L 49,105 L 49,100 C 49,100 16,80 3,59 Z" fill="#363B7E" id="id-104842"></path><path d=" M 72,90 C 72,90 69,102 66,104 C 66,104 76,103 72,90 Z" fill="#636383" id="id-104842"></path><path d=" M 60,107 L 55,107 L 54,110 C 54,110 59,109 60,107 Z" fill="#485096" id="id-104842"></path><path d=" M 28,94 C 33,98 37,102 42,105 C 44,107 47,110 48,113 L 49,105 C 48,104 47,104 45,103 C 40,103 33,98 28,94 Z" fill="#5562AC" id="id-104842"></path><path d=" M 48,68 C 54,74 63,77 71,75 C 71,75 71,75 71,75 C 71,75 69,73 66,73 C 60,73 54,71 48,68 Z" fill="#898AAE" id="id-104842"></path><path d=" M 1,39 C 10,47 16,42 20,37 C 20,36 19,35 19,34 C 14,23 18,8 17,2 C 7,15 2,28 1,39 Z" fill="#240F18" id="id-104842"></path><path d=" M 10,35 C 10,39 11,51 20,56 C 29,61 28,62 37,70 L 37,70 C 46,79 58,100 58,100 C 65,95 64,89 64,89 C 64,89 46,74 38,68 C 37,67 36,66 36,66 C 31,62 14,47 13,30 C 13,13 18,0 18,0 C 9,15 9,32 10,35 Z" fill="#8E9BC2" opacity="0.879" id="id-104842"></path><path d=" M 12,77 C 12,77 13,78 13,78 C 18,79 28,80 34,72 C 36,70 37,68 38,66 C 38,64 39,63 39,61 C 39,61 38,60 38,60 C 37,62 37,63 36,65 C 35,67 34,69 33,70 C 29,75 23,79 12,77 Z" fill="#EC2027" id="id-104842"></path><path d=" M 33,70 L 34,72 C 36,70 37,68 38,66 L 36,65 C 36,67 34,69 33,70 Z" fill="#D5DCF0" id="id-104842"></path><path d=" M 37,70 C 46,79 58,100 58,100 C 65,95 64,89 64,89 C 64,89 46,74 38,68 L 37,70 Z" fill="#58465D" id="id-104842"></path></g></g></svg>