<?xml version="1.0" encoding="UTF-8"?><svg width="1320px" height="1760px" viewBox="0 0 1320 1760" version="1.1" xmlns="http://www.w3.org/2000/svg" xmlns:xlink="http://www.w3.org/1999/xlink"><defs><linearGradient x1="50%" y1="11%" x2="50%" y2="100%" id="id-80410"><stop stop-color="#343538" offset="0%"></stop><stop stop-color="#313135" offset="29%"></stop><stop stop-color="#2F2F33" offset="59%"></stop><stop stop-color="#2F2F33" offset="100%"></stop></linearGradient><linearGradient x1="56%" y1="7%" x2="50%" y2="99%" id="id-80411"><stop stop-color="#3F3E41" offset="0%"></stop><stop stop-color="#484848" offset="16%" stop-opacity="0.918"></stop><stop stop-color="#353538" offset="100%"></stop></linearGradient><linearGradient x1="49%" y1="6%" x2="51%" y2="95%" id="id-80412"><stop stop-color="#00FFBE" offset="0%"></stop><stop stop-color="#B7D930" offset="100%"></stop></linearGradient><linearGradient x1="49%" y1="6%" x2="51%" y2="95%" id="id-80413"><stop stop-color="#00FFBE" offset="0%"></stop><stop stop-color="#B7D930" offset="100%"></stop></linearGradient><linearGradient x1="96%" y1="50%" x2="15%" y2="34%" id="id-80414"><stop stop-color="#B7D930" offset="0%"></stop><stop stop-color="#ABFF00" offset="12%"></stop><stop stop-color="#81FF45" offset="33%"></stop><stop stop-color="#0FFF00" offset="49%"></stop><stop stop-color="#3DFF6A" offset="70%"></stop><stop stop-color="#22FF8F" offset="85%"></stop><stop stop-color="#00FFBE" offset="100%"></stop></linearGradient></defs><g transform=" translate(321,549)" id="id-80415"><g transform=" translate(24,0)" id="id-80416"><path d=" M 70,847 C 266,943 429,963 560,908 C 560,915 560,918 560,918 C 532,936 518,944 518,944 C 391,958 328,965 328,965 L 299,960 C 212,929 145,904 96,885 C 78,860 70,847 70,847 Z" fill="#000000" fill-opacity="0.303" id="id-80417"></path><path d=" M 62,845 C 64,829 66,821 66,821 C 69,817 71,815 71,815 C 72,802 72,796 72,796 C 76,790 79,786 79,786 C 87,721 91,689 91,689 C 101,673 106,665 106,665 C 105,651 104,643 104,643 C 113,627 117,619 117,619 C 113,593 112,579 112,579 C 120,565 125,558 125,558 C 137,515 143,494 143,494 C 141,454 139,433 139,433 C 130,449 126,457 126,457 C 80,462 58,464 58,464 C 19,448 0,441 0,441 C 11,288 45,227 27,132 C 47,107 57,95 57,95 C 89,70 150,51 203,23 C 200,18 217,12 227,2 C 237,20 242,30 242,30 C 289,77 339,76 393,28 C 410,13 424,9 433,17 C 463,38 507,58 550,79 C 559,84 564,87 564,87 C 584,117 594,132 594,132 C 608,225 623,318 644,401 C 639,406 636,408 636,408 C 571,427 539,437 539,437 C 514,439 502,440 502,440 C 503,500 509,550 522,591 C 523,610 524,619 524,619 C 552,706 565,750 565,750 C 558,777 570,834 581,891 C 565,902 557,912 523,933 C 475,947 244,961 62,845 Z" fill="url(#id-80410)" id="id-80418"></path><path d=" M 112,873 C 113,853 114,843 114,843 C 98,831 90,825 90,825 C 97,816 100,811 100,811 C 95,809 92,807 92,807 C 112,795 121,789 121,789 C 110,762 104,748 104,748 C 116,740 121,737 121,737 L 112,630 L 104,643 L 106,667 L 91,689 L 79,786 L 72,796 L 71,815 L 66,821 L 62,845 C 73,852 81,856 85,859 C 103,869 112,873 112,873 Z" fill="#2F2F33" id="id-80419"></path><path d=" M 154,855 C 127,839 114,831 114,831 L 125,822 C 144,844 154,855 154,855 Z" fill="#13151A" id="id-80420"></path><path d=" M 186,859 C 169,853 160,850 160,850 C 136,829 124,818 124,818 L 69,818 L 71,815 C 72,802 72,796 72,796 C 74,793 75,792 75,792 C 84,804 89,810 89,810 L 152,817 C 175,845 186,859 186,859 Z" fill="#15171D" id="id-80421"></path><path d=" M 79,786 C 90,798 96,803 96,803 C 111,789 118,782 118,782 C 104,747 97,730 97,730 L 107,742 C 117,738 121,737 121,737 C 119,713 118,701 118,701 L 89,710 C 82,761 79,786 79,786 Z" fill="#202226" id="id-80422"></path><path d=" M 90,704 C 107,680 115,668 115,668 L 112,637 L 104,643 L 103,666 L 91,689 C 90,699 90,704 90,704 Z" fill="#222329" id="id-80423"></path><path d=" M 104,643 L 120,632 L 116,619 C 108,635 104,643 104,643 Z" fill="#15171E" id="id-80424"></path><path d=" M 112,579 C 132,590 142,596 142,596 C 152,566 157,551 157,551 L 143,494 L 125,558 C 116,572 112,579 112,579 Z" fill="#25262C" id="id-80425"></path><path d=" M 126,457 L 122,327 L 140,390 L 139,433 C 130,449 126,457 126,457 Z" fill="#12151A" id="id-80426"></path><path d=" M 57,465 C 58,448 58,440 58,440 C 80,438 90,438 90,438 C 97,382 100,354 100,354 C 105,365 107,372 108,373 C 108,373 108,373 108,373 C 108,415 108,435 108,435 C 115,435 119,435 119,435 L 118,458 C 78,463 57,465 57,465 Z" fill="#37373A" id="id-80427"></path><path d=" M 118,458 C 119,416 120,395 120,395 C 112,337 104,279 92,213 C 115,295 126,335 126,335 L 129,280 C 129,325 136,354 140,390 L 126,457 C 121,458 118,458 118,458 Z" fill="#25262C" id="id-80428"></path><path d=" M 46,166 C 46,187 46,198 46,198 C 68,269 91,336 115,390 C 105,335 93,281 81,213 C 84,205 86,200 86,200 C 74,161 68,142 68,142 C 66,111 65,96 65,96 C 54,132 48,151 48,151 C 68,173 78,185 78,185 L 75,198 C 56,176 46,166 46,166 Z" fill="#24252A" id="id-80429"></path><path d=" M 78,185 L 73,197 C 90,249 99,327 115,390 C 106,344 94,244 86,200 C 81,190 78,185 78,185 Z" fill="#1D1D24" id="id-80430"></path><path d=" M 78,185 L 73,197 L 88,219 L 92,210 C 82,193 78,185 78,185 Z" fill="#000000" id="id-80431"></path><path d=" M 94,213 L 89,222 L 128,311 C 105,246 94,213 94,213 Z" fill="#000000" id="id-80432"></path><path d=" M 94,207 C 100,215 106,233 114,234 C 101,190 94,168 94,168 C 106,192 112,203 112,203 C 115,173 117,157 117,157 C 111,125 108,109 108,109 C 121,144 128,161 128,161 C 117,206 118,258 128,317 C 105,244 94,207 94,207 Z" fill="#24252B" id="id-80433"></path><path d=" M 140,111 C 145,120 147,125 147,125 L 133,236 C 138,152 140,111 140,111 Z" fill="#27292D" id="id-80434"></path><path d=" M 132,281 C 148,186 155,138 155,138 C 170,124 177,116 177,116 C 218,135 238,144 238,144 L 260,46 C 297,73 342,74 394,27 L 405,0 C 411,6 422,9 431,15 C 422,59 360,88 302,120 C 341,123 360,125 360,125 C 437,80 475,57 475,57 C 513,71 532,78 532,78 C 544,78 551,78 551,78 C 558,84 562,87 562,87 C 555,94 552,97 552,97 C 545,158 542,189 542,189 C 532,192 528,193 528,193 C 533,125 535,92 535,92 C 518,114 509,125 509,125 C 517,179 521,206 521,206 C 413,365 359,445 359,445 C 447,427 491,418 491,418 C 483,484 484,557 491,634 C 402,780 357,853 357,853 C 304,847 252,841 214,850 L 230,796 L 173,616 L 206,490 L 177,392 L 166,237 L 148,268 C 138,277 132,281 132,281 Z" fill="url(#id-80411)" id="id-80435"></path><path d=" M 112,579 C 128,606 136,619 136,619 C 166,617 181,616 181,616 C 199,670 208,696 208,696 L 126,652 L 116,619 C 113,592 112,579 112,579 Z" fill="#363639" id="id-80436"></path><path d=" M 214,850 C 246,874 263,886 263,886 C 310,898 333,904 333,904 C 395,890 426,883 426,883 C 415,877 406,873 400,871 C 391,867 377,861 357,853 C 319,848 293,845 279,845 C 234,844 214,850 214,850 Z" fill="#24262B" id="id-80437"></path><path d=" M 357,853 C 403,873 426,883 426,883 C 466,847 485,829 485,829 C 509,750 520,711 520,711 L 507,651 L 491,634 C 402,780 357,853 357,853 Z" fill="#323236" id="id-80438"></path><path d=" M 485,829 C 496,776 516,728 531,677 C 545,707 552,722 552,722 L 548,765 C 506,808 485,829 485,829 Z" fill="#26262C" id="id-80439"></path><path d=" M 522,618 C 524,650 525,667 525,667 C 549,722 562,750 562,750 C 554,798 550,822 550,822 C 552,851 548,888 556,911 L 581,891 C 576,844 559,787 566,750 L 522,618 Z" fill="#1A1B22" id="id-80440"></path><path d=" M 516,169 C 525,163 530,161 530,161 L 528,193 C 521,253 516,284 516,284 C 533,268 542,260 542,260 C 547,276 550,283 550,283 C 541,352 537,386 537,386 L 540,437 C 516,439 505,440 505,440 C 506,398 507,367 509,346 C 511,315 515,268 521,206 C 518,181 516,169 516,169 Z" fill="#25262C" id="id-80441"></path><path d=" M 539,437 C 535,370 539,323 547,284 C 543,265 535,262 544,192 C 559,174 567,166 567,166 L 610,416 C 562,430 539,436 539,437 Z" fill="#37373B" id="id-80442"></path><path d=" M 521,206 L 486,296 C 492,331 491,376 491,418 L 502,440 C 509,358 514,304 516,278 C 520,230 521,206 521,206 Z" fill="#2F2F33" id="id-80443"></path><path d=" M 594,132 C 585,206 608,305 636,408 L 644,401 C 624,316 608,226 594,132 Z" fill="#27282D" id="id-80444"></path><path d=" M 585,121 C 592,128 595,132 595,132 C 566,168 552,185 552,185 L 550,168 C 574,136 585,121 585,121 Z" fill="#000000" id="id-80445"></path><path d=" M 545,173 C 546,184 547,189 547,189 C 536,204 531,212 531,212 L 527,198 C 539,181 545,173 545,173 Z" fill="#000000" id="id-80446"></path><path d=" M 541,200 C 541,212 541,218 541,218 L 547,189 C 543,196 541,200 541,200 Z" fill="#222228" id="id-80447"></path><path d=" M 502,440 L 513,439 C 506,403 508,373 511,346 C 514,316 518,290 517,264 C 517,255 514,245 512,235 L 492,297 C 504,356 508,404 502,440 Z" fill="#1A1B22" id="id-80448"></path><path d=" M 527,224 C 523,212 521,206 521,206 L 492,297 C 515,248 527,224 527,224 Z" fill="#000000" id="id-80449"></path><path d=" M 351,56 C 360,76 364,85 364,85 C 389,73 400,60 415,46 L 394,26 C 385,34 378,40 374,43 C 366,48 359,53 351,56 Z" fill="#454548" id="id-80450"></path><path d=" M 253,82 C 208,86 157,80 102,69 C 135,55 167,41 203,23 C 207,39 224,59 253,82 Z" fill="#2F2F33" id="id-80451"></path><path d=" M 223,55 C 242,74 252,83 252,83 L 277,86 C 260,84 242,74 223,55 Z" fill="#1F2126" id="id-80452"></path><path d=" M 109,109 L 89,118 L 94,168 L 112,203 L 116,156 C 111,125 109,109 109,109 Z" fill="#2F2F32" id="id-80453"></path><path d=" M 65,89 C 48,121 39,147 38,164 L 44,459 L 0,441 C 5,380 16,308 28,234 C 33,199 34,164 27,132 L 57,94 C 62,91 65,89 65,89 Z" fill="#222328" id="id-80454"></path><path d=" M 27,132 C 37,140 42,144 42,144 L 39,156 L 30,149 C 28,138 27,132 27,132 Z" fill="#000000" id="id-80455"></path><path d=" M 45,149 C 64,170 73,180 73,180 L 69,190 L 42,161 C 44,153 45,149 45,149 Z" fill="#000000" id="id-80456"></path><path d=" M 149,889 C 155,873 158,866 158,866 C 195,883 237,896 285,905 L 278,928 C 246,921 223,916 211,912 C 180,903 159,895 149,889 Z" fill="#3D3D3F" id="id-80457"></path><path d=" M 363,914 C 363,931 364,939 364,939 C 405,944 447,944 484,939 L 481,915 C 420,920 381,920 363,914 Z" fill="#3B3B3E" id="id-80458"></path><path d=" M 524,934 C 521,916 520,907 520,907 C 542,897 552,893 552,893 L 556,911 L 524,934 Z" fill="#3B3B3E" id="id-80459"></path></g><path d=" M 516,905 C 534,901 543,899 543,899 C 546,922 547,934 547,934 L 520,939 C 517,916 516,905 516,905 Z" fill="#AFDA36" id="id-80460"></path><path d=" M 540,907 C 541,921 542,928 542,928 C 530,930 524,931 524,931 L 521,910 C 534,908 540,907 540,907 Z" fill="#21242C" id="id-80461"></path><g transform=" translate(0,210)" id="id-80462"><g transform=" translate(612,1)" id="id-80463"><path d=" M 1,57 C -1,44 4,16 18,1 C 29,63 40,126 58,193 L 48,198 L 5,210 L 1,57 Z" fill="#000000" id="id-80464"></path><path d=" M 5,56 C 7,30 12,13 19,5 C 30,67 42,129 58,193 L 48,198 L 12,208 L 5,56 Z" fill="url(#id-80412)" id="id-80465"></path><path d=" M 19,5 C 16,8 13,11 11,16 C 10,17 18,79 35,202 L 48,198 L 58,193 C 47,150 38,106 29,60 C 26,42 23,24 19,5 Z" fill="#000000" fill-opacity="0.202" id="id-80466"></path></g><g transform=" translate(43,139) rotate(-6) translate(-43,-139) translate(13,25)" id="id-80467"><path d=" M 0,204 C 7,167 13,140 18,122 C 22,104 33,63 51,0 C 56,20 59,37 60,50 C 62,64 57,123 47,228 C 25,217 0,204 0,204 Z" fill="#000000" id="id-80468"></path><path d=" M 0,204 C 7,167 13,140 18,122 C 22,104 32,67 48,12 C 52,24 55,36 56,50 C 58,63 53,122 42,225 C 20,214 0,204 0,204 Z" fill="url(#id-80413)" id="id-80468"></path><path d=" M 27,218 L 0,204 C 5,179 18,125 40,42 L 27,218 Z" fill="#000000" fill-opacity="0.137" id="id-80470"></path></g></g><path d=" M 280,423 C 290,445 310,436 315,417 C 317,412 317,409 317,409 C 334,353 342,326 342,326 C 361,336 371,319 377,293 C 388,316 394,406 429,371 C 432,367 439,348 440,334 C 441,328 438,326 437,320 C 446,351 475,339 470,320 C 467,314 460,305 453,292 C 439,275 421,282 416,322 C 405,301 403,271 390,253 C 372,235 358,246 348,295 C 316,282 312,341 299,375 C 289,335 292,285 266,260 C 255,241 248,206 227,217 C 218,223 215,232 226,240 C 234,257 242,272 255,290 C 265,308 270,398 280,423 Z" fill="url(#id-80414)" id="id-80471"></path></g></svg>