<?xml version="1.0" encoding="UTF-8"?><svg width="1320px" height="1760px" viewBox="0 0 1320 1760" version="1.1" xmlns="http://www.w3.org/2000/svg" xmlns:xlink="http://www.w3.org/1999/xlink"><defs><linearGradient x1="58%" y1="5%" x2="39%" y2="92%" id="id-52336"><stop stop-color="#323748" offset="0%"></stop><stop stop-color="#626A8B" offset="100%"></stop></linearGradient><linearGradient x1="57%" y1="42%" x2="49%" y2="56%" id="id-52337"><stop stop-color="#020617" offset="0%"></stop><stop stop-color="#45556C" offset="47%"></stop><stop stop-color="#000515" offset="100%"></stop></linearGradient><linearGradient x1="50%" y1="0%" x2="50%" y2="100%" id="id-52338"><stop stop-color="#213057" offset="0%"></stop><stop stop-color="#3F5A91" offset="6%"></stop><stop stop-color="#0B0C0F" offset="53%"></stop><stop stop-color="#1D1E37" offset="91%"></stop><stop stop-color="#36354B" offset="100%"></stop></linearGradient><linearGradient x1="50%" y1="0%" x2="50%" y2="100%" id="id-52339"><stop stop-color="#636787" offset="0%"></stop><stop stop-color="#5C5A7C" offset="100%"></stop></linearGradient><linearGradient x1="50%" y1="0%" x2="50%" y2="100%" id="id-52340"><stop stop-color="#2E425D" offset="0%"></stop><stop stop-color="#496183" offset="25%"></stop><stop stop-color="#283C59" offset="100%"></stop></linearGradient><linearGradient x1="100%" y1="50%" x2="0%" y2="50%" id="id-52341"><stop stop-color="#704795" offset="0%"></stop><stop stop-color="#321C6E" offset="100%"></stop></linearGradient><linearGradient x1="50%" y1="0%" x2="50%" y2="100%" id="id-52342"><stop stop-color="#7792B7" offset="0%"></stop><stop stop-color="#C3DAE8" offset="100%"></stop></linearGradient><linearGradient x1="50%" y1="0%" x2="50%" y2="100%" id="id-52343"><stop stop-color="#6E8EAA" offset="0%"></stop><stop stop-color="#506880" offset="100%"></stop></linearGradient><linearGradient x1="100%" y1="50%" x2="0%" y2="50%" id="id-52344"><stop stop-color="#87A0AB" offset="0%"></stop><stop stop-color="#7A929D" offset="100%"></stop></linearGradient><linearGradient x1="100%" y1="51%" x2="6%" y2="49%" id="id-52345"><stop stop-color="#627579" offset="0%"></stop><stop stop-color="#8FAAB5" offset="100%"></stop></linearGradient><filter width="158%" height="153%" x="-29%" y="-20%" id="id-52346" filterUnits="objectBoundingBox"><feMorphology result="id-52347" in="SourceAlpha" operator="dilate" radius="0.500"></feMorphology><feOffset result="id-52348" in="SourceGraphic" dx="0" dy="2"></feOffset><feGaussianBlur result="id-52350" in="SourceGraphic" stdDeviation="2"></feGaussianBlur><feColorMatrix in="SourceGraphic" type="matrix" values="0 0 0 0 0.027 0 0 0 0 0.847 0 0 0 0 0.867 0 0 0 1 0"></feColorMatrix></filter><ellipse cx="217" cy="107" id="id-52353" rx="15" ry="16"></ellipse><ellipse cx="217" cy="107" id="id-52353" rx="15" ry="16"></ellipse><linearGradient x1="50%" y1="0%" x2="50%" y2="100%" id="id-52355"><stop stop-color="#0F1F39" offset="0%"></stop><stop stop-color="#506176" offset="100%"></stop></linearGradient><linearGradient x1="50%" y1="0%" x2="50%" y2="100%" id="id-52356"><stop stop-color="#356DB5" offset="0%"></stop><stop stop-color="#183B7E" offset="100%"></stop></linearGradient><linearGradient x1="76%" y1="63%" x2="24%" y2="50%" id="id-52357"><stop stop-color="#1E2739" offset="0%"></stop><stop stop-color="#0C101C" offset="68%"></stop><stop stop-color="#7B8699" offset="100%"></stop></linearGradient><linearGradient x1="70%" y1="76%" x2="31%" y2="50%" id="id-52358"><stop stop-color="#2B3032" offset="0%"></stop><stop stop-color="#808F9D" offset="100%"></stop></linearGradient><linearGradient x1="40%" y1="49%" x2="0%" y2="48%" id="id-52359"><stop stop-color="#93A5B3" offset="0%"></stop><stop stop-color="#333D40" offset="100%"></stop></linearGradient><linearGradient x1="49%" y1="56%" x2="50%" y2="98%" id="id-52360"><stop stop-color="#090808" offset="0%"></stop><stop stop-color="#454D77" offset="100%"></stop></linearGradient><linearGradient x1="24%" y1="6%" x2="78%" y2="78%" id="id-52361"><stop stop-color="#171816" offset="0%"></stop><stop stop-color="#2E353B" offset="100%"></stop></linearGradient><linearGradient x1="100%" y1="50%" x2="0%" y2="50%" id="id-52362"><stop stop-color="#33343F" offset="0%"></stop><stop stop-color="#27344B" offset="100%"></stop></linearGradient><linearGradient x1="48%" y1="1%" x2="52%" y2="100%" id="id-52363"><stop stop-color="#586C79" offset="0%"></stop><stop stop-color="#31363C" offset="100%"></stop></linearGradient><linearGradient x1="50%" y1="7%" x2="50%" y2="30%" id="id-52364"><stop stop-color="#50607D" offset="0%"></stop><stop stop-color="#8091B4" offset="100%"></stop></linearGradient><linearGradient x1="1%" y1="44%" x2="99%" y2="55%" id="id-52365"><stop stop-color="#2F436E" offset="0%"></stop><stop stop-color="#0E1938" offset="100%"></stop></linearGradient><linearGradient x1="100%" y1="50%" x2="0%" y2="50%" id="id-52366"><stop stop-color="#C3CDD4" offset="0%"></stop><stop stop-color="#76828A" offset="100%"></stop></linearGradient><linearGradient x1="75%" y1="10%" x2="21%" y2="66%" id="id-52367"><stop stop-color="#59636F" offset="0%"></stop><stop stop-color="#949DA9" offset="100%"></stop></linearGradient><linearGradient x1="81%" y1="68%" x2="37%" y2="36%" id="id-52368"><stop stop-color="#47769C" offset="0%"></stop><stop stop-color="#406486" offset="100%"></stop></linearGradient><linearGradient x1="71%" y1="22%" x2="29%" y2="59%" id="id-52369"><stop stop-color="#1C2331" offset="0%"></stop><stop stop-color="#272A3D" offset="100%"></stop></linearGradient><linearGradient x1="100%" y1="50%" x2="0%" y2="50%" id="id-52370"><stop stop-color="#2F323F" offset="0%"></stop><stop stop-color="#465572" offset="100%"></stop></linearGradient><linearGradient x1="50%" y1="0%" x2="50%" y2="100%" id="id-52371"><stop stop-color="#2E373D" offset="0%"></stop><stop stop-color="#3A4754" offset="55%"></stop><stop stop-color="#1E212F" offset="100%"></stop></linearGradient><linearGradient x1="50%" y1="0%" x2="50%" y2="100%" id="id-52372"><stop stop-color="#12181F" offset="0%"></stop><stop stop-color="#2E3A52" offset="100%"></stop></linearGradient><linearGradient x1="100%" y1="50%" x2="2%" y2="50%" id="id-52373"><stop stop-color="#28313C" offset="0%"></stop><stop stop-color="#5E6A86" offset="100%"></stop></linearGradient><linearGradient x1="100%" y1="50%" x2="0%" y2="50%" id="id-52374"><stop stop-color="#282B34" offset="0%"></stop><stop stop-color="#1A181C" offset="100%"></stop></linearGradient></defs><g transform=" translate(486,636)" id="id-52375"><path d=" M 148,413 C 150,416 151,417 151,417 C 204,430 230,436 230,436 C 241,403 251,370 258,338 C 257,314 256,302 256,302 C 214,290 193,284 193,284 L 184,286 C 164,353 152,396 148,413 Z" fill="#32344E" id="id-52376"></path><path d=" M 226,434 L 148,413 C 159,371 171,329 184,286 L 193,284 L 256,302 C 258,326 258,338 258,338 C 250,343 246,346 246,346 C 238,372 234,385 234,385 L 238,397 C 233,407 229,419 226,434 Z" fill="url(#id-52336)" id="id-52377"></path><path d=" M 157,380 L 238,397 C 235,389 234,385 234,385 L 178,363 L 157,380 Z" fill="#2F334E" id="id-52378"></path><path d=" M 178,363 C 164,374 157,380 157,380 C 170,335 177,313 177,313 L 181,324 L 178,363 Z" fill="#94A0BD" id="id-52379"></path><path d=" M 168,340 C 170,341 171,342 171,342 C 167,354 165,360 165,360 L 162,362 C 166,347 168,340 168,340 Z" fill="#1B1629" id="id-52380"></path><polygon points="254 351 255 352 243 357 224 353 220 367 238 373 246 387 244 388 236 375 217 368 222 351 242 355" fill="#121620" id="id-52381" fill-rule="nonzero"></polygon><polygon points="227 366 227 359 241 361 241 363 229 361 229 365 240 368 239 370" fill="#121620" id="id-52382" fill-rule="nonzero"></polygon><path d=" M 246,346 C 222,339 211,335 211,335 L 247,345 L 246,346 Z" fill="#70729D" id="id-52383"></path><path d=" M 184,334 C 186,336 187,336 187,336 C 187,341 187,343 187,343 L 184,342 C 184,337 184,334 184,334 Z" fill="#07F1F3" id="id-52384"></path><path d=" M 188,336 C 190,337 191,337 191,337 C 190,343 190,345 190,345 L 188,344 C 188,339 188,336 188,336 Z" fill="#07F1F3" id="id-52385"></path><path d=" M 193,346 C 194,346 195,347 195,347 C 195,342 195,339 195,339 L 193,338 C 193,343 193,346 193,346 Z" fill="#07F1F3" id="id-52386"></path><path d=" M 251,338 C 206,327 184,321 184,321 C 196,309 203,304 203,304 L 245,315 C 249,330 251,338 251,338 Z" fill="url(#id-52337)" id="id-52387"></path><polygon points="187 294 188 294 184 308 191 314 191 314 183 308" fill="#000000" id="id-52388" fill-rule="nonzero"></polygon><polygon points="223 293 225 293 221 308 219 308" fill="#979797" id="id-52389" fill-rule="nonzero"></polygon><path d=" M 229,311 C 228,313 228,313 228,313 C 212,309 204,307 204,307 C 203,309 202,309 202,309 C 201,309 200,309 200,309 L 204,305 C 220,309 229,311 229,311 Z" fill="#252E3D" id="id-52390"></path><path d=" M 193,284 C 202,251 206,234 206,234 C 244,241 262,245 262,245 L 251,301 C 212,289 193,284 193,284 Z" fill="#282D37" id="id-52391"></path><path d=" M 262,245 L 266,259 L 256,302 L 251,301 C 259,263 262,245 262,245 Z" fill="#373B4B" id="id-52392"></path><path d=" M 223,289 C 205,284 197,281 197,281 C 201,266 203,258 203,258 C 215,262 221,263 221,263 L 226,273 C 224,283 223,289 223,289 Z" fill="#000000" id="id-52393"></path><path d=" M 209,282 C 203,281 200,280 200,280 L 203,270 C 207,278 209,282 209,282 Z" fill="#8E5D00" id="id-52394"></path><path d=" M 214,284 C 218,285 220,285 220,285 C 213,272 210,265 210,265 L 204,263 C 211,277 214,284 214,284 Z" fill="#905F00" id="id-52395"></path><path d=" M 221,279 C 222,276 223,274 223,274 C 221,270 220,268 220,268 L 216,268 C 219,275 221,279 221,279 Z" fill="#8E5D00" id="id-52396"></path><path d=" M 225,270 C 223,269 222,269 222,269 L 224,272 C 225,270 225,270 225,270 Z" fill="#8F5D00" id="id-52397"></path><path d=" M 50,446 C 196,455 276,455 290,448 C 285,405 287,374 291,346 C 299,279 304,254 310,218 C 319,155 329,90 337,23 C 321,18 314,16 314,16 C 303,88 293,158 282,202 C 289,217 293,224 293,224 C 288,257 282,293 271,350 C 267,353 264,354 264,354 C 265,398 266,420 266,420 C 259,424 256,426 256,426 C 191,427 134,426 77,424 C 71,384 68,364 68,364 C 51,263 42,213 42,213 C 40,162 40,137 40,137 C 30,61 25,23 25,23 C 26,22 27,21 27,21 C 24,20 22,20 22,20 C 7,26 0,29 0,29 C 5,71 11,108 17,149 C 42,296 53,395 50,446 Z" fill="url(#id-52338)" id="id-52398"></path><path d=" M 291,447 C 292,439 293,433 294,429 C 293,397 292,381 292,381 L 287,383 C 287,413 288,434 291,447 Z" fill="url(#id-52339)" id="id-52399"></path><path d=" M 290,446 C 245,452 167,452 55,444 C 51,440 49,438 49,438 C 48,396 48,376 48,376 C 51,417 53,437 53,437 C 54,439 55,440 55,440 C 91,443 108,445 108,445 C 143,450 279,447 290,443 C 290,445 290,446 290,446 Z" fill="#A5A7CF" id="id-52400"></path><path d=" M 288,421 C 279,422 275,423 275,423 C 270,432 268,437 268,437 C 261,438 257,438 257,438 L 253,446 C 265,445 278,445 290,443 C 289,428 288,421 288,421 Z" fill="#292838" id="id-52401"></path><path d=" M 53,437 C 63,428 69,423 69,423 C 64,420 61,418 61,418 L 52,426 C 53,434 53,437 53,437 Z" fill="#262746" id="id-52402"></path><path d=" M 279,0 C 292,5 299,8 300,8 L 300,8 L 300,8 C 293,7 290,11 286,16 C 281,24 276,35 273,47 L 277,56 C 264,99 255,127 250,140 L 250,142 C 248,147 248,149 248,149 C 241,145 237,143 237,143 C 189,143 164,142 162,142 L 162,142 L 162,142 C 167,124 170,114 170,114 L 170,114 C 170,114 170,114 170,114 C 187,68 196,45 196,45 C 202,41 204,39 204,39 C 223,41 232,43 232,43 C 255,26 267,18 267,18 C 269,11 273,2 279,0 Z M 264,24 C 264,24 256,30 239,43 C 239,43 244,43 255,44 L 255,44 Z" fill="url(#id-52340)" id="id-52403"></path><polygon points="200 142 200 135 273 47 277 56 248 149 237 142" fill="#030306" id="id-52404"></polygon><path d=" M 171,123 C 171,127 171,129 175,130 L 237,142 C 244,145 246,142 248,137 C 265,83 274,56 274,56 C 273,52 273,51 273,51 L 204,43 C 182,96 171,123 171,123 Z" fill="#222A2E" id="id-52405"></path><path d=" M 186,86 C 191,84 193,83 193,83 C 198,71 200,65 200,65 L 197,59 C 190,77 186,86 186,86 Z" fill="#505B75" id="id-52406"></path><path d=" M 192,84 C 200,82 204,80 204,80 C 206,77 206,76 206,76 L 200,64 L 192,84 Z" fill="url(#id-52341)" id="id-52407"></path><path d=" M 197,59 C 203,70 206,76 206,76 L 207,71 L 197,59 Z" fill="#080E18" id="id-52408"></path><path d=" M 208,87 C 197,113 191,126 191,126 C 178,124 171,123 171,123 L 184,93 C 200,89 208,87 208,87 Z" fill="url(#id-52342)" id="id-52409"></path><path d=" M 192,126 C 222,134 237,137 237,137 C 242,136 244,136 244,136 C 255,104 260,89 260,89 L 215,80 L 208,87 C 197,113 192,126 192,126 Z" fill="url(#id-52343)" id="id-52410"></path><path d=" M 208,87 C 209,86 210,85 210,85 C 230,90 241,92 241,92 C 243,95 245,96 245,96 C 237,116 233,126 233,126 L 209,130 L 192,126 C 202,100 208,87 208,87 Z" fill="#47586F" id="id-52411"></path><path d=" M 209,130 C 211,131 212,131 212,131 C 227,129 235,127 235,127 L 246,98 C 245,97 245,96 245,96 L 243,97 L 233,126 C 217,129 209,130 209,130 Z" fill="#181E22" id="id-52412"></path><path d=" M 199,48 C 211,67 218,77 218,77 C 245,82 259,84 259,84 L 266,57 C 222,51 199,48 199,48 Z" fill="url(#id-52344)" id="id-52413"></path><polygon points="204 43 199 48 266 57 273 51" fill="url(#id-52345)" id="id-52414"></polygon><path d=" M 209,53 C 232,56 243,58 243,58 L 221,74 C 213,60 209,53 209,53 Z" fill="#627182" id="id-52415"></path><path d=" M 262,59 C 253,58 248,57 248,57 C 244,67 242,72 242,72 L 257,73 C 260,64 262,59 262,59 Z" fill="#000000" id="id-52416"></path><path d=" M 256,71 C 248,71 244,70 244,70 C 246,65 247,63 247,63 C 249,63 249,63 249,63 C 249,66 250,68 252,68 C 254,68 256,67 259,64 C 257,69 256,71 256,71 Z" fill="#C78C12" id="id-52417"></path><path d=" M 250,62 C 251,65 251,66 251,66 C 254,66 255,66 255,66 C 257,64 257,63 257,63 L 254,60 C 251,61 250,62 250,62 Z" fill="#C7D7F1" id="id-52418"></path><path d=" M 248,61 C 249,59 249,58 249,58 L 253,59 C 250,61 248,61 248,61 Z" fill="#C79438" id="id-52419"></path><path d=" M 256,60 C 259,60 261,60 261,60 L 259,63 C 257,61 256,60 256,60 Z" fill="#C79438" id="id-52420"></path><g transform=" translate(217,107) rotate(19) translate(-217,-107)" id="id-52421"><use fill="#000000" fill-opacity="1" xlink:href="#id-52353" filter="url(#id-52346)"></use><use fill="#07D8DD" xlink:href="#id-52353" fill-rule="evenodd"></use></g><ellipse transform=" translate(216,104) rotate(19) translate(-216,-104)" cx="216" cy="104" fill="url(#id-52355)" id="id-52425" rx="13" ry="14"></ellipse><ellipse transform=" translate(213,102) rotate(24) translate(-213,-102)" cx="213" cy="102" fill="url(#id-52356)" id="id-52426" rx="9" ry="10"></ellipse><ellipse transform=" translate(212,101) rotate(24) translate(-212,-101)" cx="212" cy="101" fill="#909DB1" id="id-52427" rx="4" ry="4"></ellipse><ellipse transform=" translate(212,101) rotate(24) translate(-212,-101)" cx="212" cy="101" fill="#000000" id="id-52428" rx="3" ry="3"></ellipse><path d=" M 237,101 C 233,97 231,94 231,94 L 238,95 C 237,99 237,101 237,101 Z" fill="#192025" id="id-52429"></path><path d=" M 165,142 C 163,142 161,141 161,141 C 166,122 169,113 169,113 C 187,67 196,44 196,44 C 202,40 205,38 205,38 C 239,43 256,45 256,45 C 223,42 206,40 206,40 C 200,44 198,45 198,45 L 172,113 C 167,132 165,142 165,142 Z" fill="#BFD6E3" id="id-52430"></path><path d=" M 277,56 C 276,50 276,47 276,47 C 282,23 287,8 301,10 L 300,8 C 291,7 282,12 273,47 C 276,53 277,56 277,56 Z" fill="#273449" id="id-52431"></path><path d=" M 301,102 C 277,96 265,93 265,93 C 271,75 274,67 274,67 L 305,73 C 302,92 301,102 301,102 Z" fill="#222F32" id="id-52432"></path><path d=" M 301,99 C 278,93 266,90 266,90 C 271,76 273,69 273,69 L 305,76 C 303,92 301,99 301,99 Z" fill="#37454A" id="id-52433"></path><polygon points="281 71 266 90 273 69" fill="#273439" id="id-52434"></polygon><path d=" M 295,94 C 293,93 292,93 292,93 C 294,82 296,77 296,77 L 298,77 C 296,88 295,94 295,94 Z" fill="#4A5959" id="id-52435"></path><path d=" M 291,85 C 285,86 282,86 282,86 L 284,79 C 288,83 291,85 291,85 Z" fill="#4A5959" id="id-52436"></path><path d=" M 280,83 C 275,84 272,84 272,84 L 274,77 C 278,81 280,83 280,83 Z" fill="#4A5959" id="id-52437"></path><path d=" M 305,73 C 304,72 303,72 303,72 L 312,17 L 314,16 C 308,54 305,73 305,73 Z" fill="#57709F" id="id-52438"></path><path d=" M 290,167 C 279,166 274,165 274,165 C 277,149 279,141 279,141 L 296,132 C 292,155 290,167 290,167 Z" fill="#171C23" id="id-52439"></path><path d=" M 296,132 C 284,138 279,141 279,141 C 279,135 279,132 279,132 L 298,119 L 296,132 Z" fill="#425368" id="id-52440"></path><path d=" M 318,166 C 301,156 292,151 292,151 C 292,143 292,139 292,139 L 319,154 C 318,162 318,166 318,166 Z" fill="#272B2D" id="id-52441"></path><path d=" M 319,154 C 301,144 292,139 292,139 C 298,138 301,138 301,138 L 320,150 L 319,154 Z" fill="#7183A6" id="id-52442"></path><path d=" M 289,191 C 291,193 292,194 292,194 L 297,167 L 293,168 C 290,183 289,191 289,191 Z" stroke="#979797" id="id-52443"></path><path d=" M 279,202 C 300,202 310,202 310,202 C 314,178 316,167 316,167 L 290,151 C 285,162 281,178 279,202 Z" fill="url(#id-52357)" id="id-52444"></path><path d=" M 310,169 C 308,170 307,171 307,171 C 305,186 304,194 304,194 C 305,196 305,197 305,197 C 302,196 301,195 301,195 L 305,169 C 309,169 310,169 310,169 Z" fill="#8390A6" id="id-52445"></path><path d=" M 300,183 C 297,181 296,179 296,179 L 302,177 C 300,181 300,183 300,183 Z" fill="#8190A5" id="id-52446"></path><path d=" M 297,293 C 307,289 311,287 311,287 C 311,277 312,268 318,260 C 322,246 324,232 325,218 L 301,262 C 298,283 297,293 297,293 Z" fill="#1F283D" id="id-52447"></path><path d=" M 302,261 C 313,253 320,236 326,212 C 329,174 331,156 331,156 L 320,152 C 313,185 310,202 310,202 C 306,204 304,205 304,205 L 310,219 C 305,247 302,261 302,261 Z" fill="#4B5F6B" id="id-52448"></path><path d=" M 325,212 C 320,237 312,253 302,261 C 302,262 302,262 302,262 C 313,255 321,238 327,211 L 332,157 C 331,156 331,156 331,156 C 330,163 330,167 330,167 C 321,166 317,166 317,166 C 317,167 317,167 317,167 C 325,168 329,168 329,168 C 327,196 326,211 326,211 L 310,200 L 310,202 L 325,212 Z" fill="#151A23" id="id-52449"></path><path d=" M 26,312 C 27,310 29,308 31,308 C 29,318 30,325 33,328 C 44,339 60,344 60,344 C 42,345 33,345 33,345 L 30,340 L 28,328 C 26,320 25,315 26,312 Z" fill="#0E0F19" id="id-52450"></path><path d=" M 312,360 C 313,376 298,384 268,385 L 268,352 C 289,352 300,349 308,330 C 311,350 312,360 312,360 Z" fill="#2F373C" id="id-52451"></path><path d=" M 291,350 C 313,348 310,343 311,335 C 313,326 309,322 306,319 L 306,330 C 310,340 305,346 291,350 Z" fill="#9DB6C9" id="id-52452"></path><path d=" M 271,356 C 275,359 277,360 277,360 C 278,372 278,379 278,379 L 271,381 C 271,365 271,356 271,356 Z" fill="#1B1D1F" id="id-52453"></path><path d=" M 296,349 C 297,370 298,380 298,380 L 305,377 L 308,344 C 303,347 299,349 296,349 Z" fill="#8C93A6" id="id-52454"></path><path d=" M 303,347 L 305,377 C 308,374 311,374 313,368 L 312,330 C 312,338 309,344 303,347 Z" fill="#DCE0F1" id="id-52455"></path><path d=" M 287,392 C 276,400 271,403 271,403 L 272,414 L 288,421 C 287,410 287,400 287,392 Z" fill="#191E28" id="id-52456"></path><path d=" M 32,331 C 38,335 37,340 59,344 C 59,344 61,356 65,379 C 65,379 30,370 23,350 C 22,325 21,313 21,313 C 24,308 28,308 32,308 C 26,311 23,316 32,331 Z" fill="url(#id-52358)" id="id-52457"></path><path d=" M 56,348 C 52,349 50,350 50,350 C 52,363 53,369 53,369 L 60,373 C 57,356 56,348 56,348 Z" fill="#1A1C1E" id="id-52458"></path><path d=" M 34,333 L 37,365 C 35,364 33,363 33,362 C 32,361 30,360 29,358 C 29,342 31,333 34,333 Z" fill="#C1D2E6" id="id-52459"></path><path d=" M 31,361 C 30,360 30,359 29,359 C 29,359 29,358 28,358 C 28,340 29,331 32,331 L 34,333 C 31,338 30,347 31,361 Z" fill="#000000" id="id-52460"></path><path d=" M 133,328 C 141,335 144,338 144,338 C 183,351 223,359 266,362 C 266,365 266,366 266,366 C 217,361 175,353 141,342 C 131,343 127,344 127,344 C 128,341 129,339 129,339 C 135,338 138,338 138,338 L 132,333 C 133,329 133,328 133,328 Z" fill="#9BADBA" id="id-52461"></path><path d=" M 129,341 L 142,338 L 142,338 C 163,346 184,351 206,355 C 208,355 209,356 210,356 L 211,356 L 214,356 L 216,357 L 218,357 L 220,357 L 222,358 L 225,358 L 227,358 L 229,359 L 232,359 L 235,360 L 237,360 L 240,360 L 243,361 L 247,361 L 250,361 L 255,362 L 260,362 L 265,363 L 267,363 L 266,365 L 260,364 L 255,364 L 251,363 L 248,363 L 245,363 L 242,362 L 239,362 L 236,362 L 233,361 L 231,361 L 228,361 L 226,360 L 223,360 L 220,359 L 217,359 L 215,358 L 213,358 L 212,358 L 210,358 C 209,357 207,357 206,357 C 184,353 164,348 143,341 L 142,340 L 129,342 L 129,341 Z" fill="#3A3A3A" id="id-52462" fill-rule="nonzero"></path><path d=" M 266,396 C 266,400 266,402 266,402 C 217,398 173,388 134,371 C 117,372 108,372 108,372 C 109,369 109,367 109,367 C 123,367 130,367 130,367 C 120,357 115,352 115,352 C 116,350 116,349 116,349 L 138,368 C 183,386 225,396 266,396 Z" fill="#A4B8C7" id="id-52463"></path><path d=" M 115,350 L 116,350 L 137,369 L 144,372 L 147,373 L 150,374 L 152,375 L 154,376 L 156,377 L 158,378 L 160,378 L 162,379 L 164,380 L 166,380 L 167,381 L 168,381 L 169,381 L 171,382 L 172,382 L 173,383 L 174,383 L 176,383 L 177,384 L 178,384 L 179,384 L 181,385 L 182,385 L 184,386 L 185,386 L 186,386 L 188,387 L 189,387 L 190,387 L 192,388 L 193,388 L 195,388 L 197,389 C 197,389 197,389 198,389 L 199,389 C 200,389 200,390 200,390 L 202,390 C 202,390 203,390 203,390 L 205,390 L 206,391 C 207,391 207,391 207,391 L 209,391 L 211,392 C 211,392 212,392 212,392 L 214,392 L 216,393 L 218,393 L 220,393 L 222,393 L 224,394 L 226,394 C 226,394 227,394 227,394 L 229,395 C 229,395 230,395 230,395 L 232,395 L 234,395 L 237,396 L 239,396 L 241,396 C 241,396 242,396 242,396 L 244,396 L 247,397 C 247,397 248,397 248,397 L 250,397 L 253,397 L 255,398 L 258,398 L 260,398 L 263,398 L 265,398 L 266,399 L 266,399 L 264,399 L 261,399 L 259,399 L 256,399 L 254,398 L 251,398 L 249,398 C 249,398 248,398 248,398 L 246,397 L 243,397 L 241,397 C 241,397 240,397 240,397 L 238,397 C 237,397 237,396 236,396 L 234,396 L 232,396 L 230,396 L 228,395 L 226,395 C 225,395 225,395 225,395 L 223,395 L 221,394 C 220,394 220,394 220,394 L 218,394 L 216,393 L 214,393 C 213,393 213,393 213,393 L 211,393 C 211,393 210,393 210,392 L 208,392 L 206,392 L 204,391 C 204,391 204,391 204,391 L 202,391 L 200,391 L 198,390 L 196,390 C 196,390 195,389 195,389 L 193,389 C 193,389 192,389 192,389 L 191,388 C 190,388 190,388 190,388 L 188,388 L 187,387 L 185,387 L 184,387 L 182,386 L 181,386 L 180,386 L 178,385 L 177,385 L 175,384 L 174,384 C 174,384 174,384 173,384 L 172,383 L 171,383 L 170,383 L 169,382 L 167,382 L 165,381 L 164,381 L 163,380 L 161,380 L 160,379 L 158,378 L 156,378 L 153,377 L 150,376 L 148,375 L 136,370 L 136,370 L 136,370 L 115,350 Z" fill="#3A3A3A" id="id-52464" fill-rule="nonzero"></path><path d=" M 262,337 C 215,333 177,326 149,316 C 139,318 135,319 135,319 C 134,316 134,314 134,314 C 142,313 146,313 146,313 C 137,303 132,299 132,299 C 133,296 134,295 134,295 C 146,307 153,313 153,313 C 179,320 194,328 261,335 C 262,336 262,337 262,337 Z" fill="#93A4B2" id="id-52465"></path><path d=" M 133,297 L 133,297 L 151,314 L 153,315 C 187,325 222,332 260,336 L 262,336 L 262,337 C 223,333 187,326 153,316 L 151,315 L 133,297 Z" fill="#3A3A3A" id="id-52466" fill-rule="nonzero"></path><path d=" M 135,291 C 148,289 155,288 155,288 C 191,299 223,306 249,309 C 248,307 247,306 247,306 C 199,297 169,290 158,283 C 157,281 157,280 157,280 C 154,280 153,280 153,280 C 153,282 153,284 153,284 L 136,286 C 135,289 135,291 135,291 Z" fill="url(#id-52359)" id="id-52467"></path><path d=" M 92,425 C 124,326 140,277 140,277 C 173,233 190,211 190,211 C 175,190 168,179 168,179 C 160,180 149,178 142,181 C 135,191 131,196 131,196 C 136,205 138,210 138,210 C 125,245 119,263 119,263 C 125,269 127,272 127,272 C 122,289 119,297 119,297 C 111,299 106,300 106,300 C 96,333 91,350 91,350 C 97,355 100,357 100,357 L 79,424 C 87,425 92,425 92,425 Z" fill="#0F1106" id="id-52468"></path><path d=" M 106,297 L 129,297 C 129,297 130,301 130,309 C 130,309 130,309 129,311 L 129,311 C 127,316 123,329 116,350 C 111,354 102,354 90,350 C 90,350 95,332 106,297 L 106,297 Z M 108,301 C 99,330 94,344 94,344 L 101,343 C 114,325 121,315 124,312 L 124,312 C 124,311 125,311 125,311 C 119,303 113,300 108,301 Z" fill="#161F20" id="id-52403"></path><path d=" M 111,306 C 104,331 100,343 100,343 C 117,347 125,348 125,348 C 132,338 136,327 135,315 C 119,309 111,306 111,306 Z" fill="#617F8C" id="id-52470"></path><path d=" M 111,306 C 115,308 117,309 117,309 L 105,344 L 100,343 C 107,319 111,306 111,306 Z" fill="#B7D1E3" id="id-52471"></path><polygon points="128 344 106 344 125 348" fill="#51799C" id="id-52472"></polygon><polygon points="104 331 104 331 115 333 116 340 129 341 129 342 115 340 114 334" fill="#3C5050" id="id-52473" fill-rule="nonzero"></polygon><polygon points="108 318 108 317 119 320 125 317 135 324 134 325 125 318 119 321" fill="#3C5050" id="id-52474" fill-rule="nonzero"></polygon><path d=" M 134,330 C 130,329 129,329 129,329 C 128,333 127,335 127,335 L 131,338 C 133,332 134,330 134,330 Z" fill="#4F6579" id="id-52475"></path><path d=" M 129,329 C 125,329 123,329 123,329 L 122,332 L 127,335 C 128,331 129,329 129,329 Z" fill="#05F9F9" id="id-52476"></path><path d=" M 135,323 L 125,311 L 135,315 C 135,320 135,323 135,323 Z" fill="#85A9D4" id="id-52477"></path><path d=" M 34,120 C 38,169 40,194 40,194 L 28,217 C 34,255 37,275 37,275 C 53,307 61,323 61,323 L 51,265 C 45,230 42,213 42,213 C 51,214 56,214 56,214 C 68,209 74,207 74,207 L 64,200 L 56,135 L 39,119 C 36,120 34,120 34,120 Z" fill="url(#id-52360)" id="id-52478"></path><path d=" M 46,138 C 53,136 56,135 56,135 C 45,124 39,119 39,119 L 34,120 C 42,132 46,138 46,138 Z" fill="url(#id-52361)" id="id-52479"></path><path d=" M 79,163 C 89,179 94,187 94,187 C 63,189 48,190 48,190 C 44,198 42,202 42,202 C 35,202 31,202 31,202 C 28,200 27,198 27,198 C 24,176 22,165 22,165 C 39,155 48,150 48,150 C 54,154 52,159 54,164 C 71,163 79,163 79,163 Z" fill="url(#id-52362)" id="id-52480"></path><path d=" M 38,159 L 46,166 L 79,163 C 63,163 54,164 54,164 L 46,164 C 41,161 38,159 38,159 Z" fill="#191B1C" id="id-52481"></path><path d=" M 30,166 C 33,166 35,167 35,167 C 38,184 39,193 39,193 C 36,194 35,195 35,195 C 36,192 36,191 36,191 L 32,169 C 31,167 30,166 30,166 Z" fill="#7B889D" id="id-52482"></path><path d=" M 46,166 C 47,183 48,191 48,191 C 47,191 47,191 47,191 L 44,166 L 46,166 Z" fill="#434859" id="id-52483"></path><path d=" M 25,166 C 24,176 26,187 27,198 C 25,188 20,177 22,165 L 48,150 L 25,166 Z" fill="#E7F8FB" id="id-52484"></path><path d=" M 40,301 C 35,290 30,280 28,271 C 20,246 13,208 5,157 L 17,154 C 21,174 24,188 25,196 C 36,262 40,297 40,301 Z" fill="url(#id-52363)" id="id-52485"></path><path d=" M 25,201 C 18,206 15,208 15,208 C 16,213 16,215 16,215 C 22,218 25,219 25,219 C 27,235 30,241 32,248 C 28,217 25,201 25,201 Z" fill="#3A4B5A" id="id-52486"></path><path d=" M 19,165 C 20,167 20,167 20,167 C 14,166 10,165 6,166 L 6,164 C 12,164 16,164 19,165 Z" fill="#111517" id="id-52487"></path><path d=" M 19,151 C 18,154 18,155 18,155 C 9,157 5,158 5,158 C 5,157 5,156 5,156 L 9,152 C 16,151 19,151 19,151 Z" fill="#D2F5F9" id="id-52488"></path><path d=" M 19,151 C 37,143 46,138 46,138 L 38,137 L 9,151 C 16,151 19,151 19,151 Z" fill="#7084A7" id="id-52489"></path><path d=" M 45,140 C 46,146 46,150 46,150 L 19,165 L 18,155 L 20,151 C 37,144 45,140 45,140 Z" fill="#262A2B" id="id-52490"></path><path d=" M 46,201 C 54,201 57,202 57,202 C 61,194 56,193 51,193 C 48,198 46,201 46,201 Z" fill="#272C38" id="id-52491"></path><path d=" M 51,265 C 76,285 89,295 89,295 C 100,290 105,288 105,288 C 112,270 115,261 115,261 C 114,256 113,253 113,253 C 117,247 118,244 118,244 C 118,237 121,230 118,224 C 94,214 82,208 82,208 C 77,210 75,211 75,211 L 73,210 L 74,207 L 56,214 L 42,213 C 48,248 51,265 51,265 Z" fill="#0D1A21" id="id-52492"></path><path d=" M 105,285 C 93,289 86,290 86,290 C 77,283 72,280 72,280 C 63,264 59,256 59,256 C 57,249 56,246 56,246 C 55,234 55,228 55,228 C 57,225 58,224 58,224 L 58,218 L 82,208 L 118,224 C 121,230 119,237 118,244 L 113,253 L 115,261 C 109,277 105,285 105,285 Z" fill="url(#id-52364)" id="id-52493"></path><path d=" M 63,216 C 80,226 89,232 89,232 C 80,256 76,268 76,268 C 79,275 81,278 81,278 C 88,283 91,285 91,285 C 99,284 103,284 103,284 C 109,270 112,263 112,263 C 109,255 107,251 107,251 L 119,235 L 118,244 L 113,253 L 115,261 L 106,286 L 86,290 L 72,280 L 59,256 L 56,246 L 55,228 L 58,225 L 58,218 C 61,217 63,216 63,216 Z" fill="#314156" id="id-52494"></path><path d=" M 105,232 C 105,232 110,233 119,235 C 119,235 119,235 119,235 L 119,235 C 119,236 114,241 107,251 L 107,251 L 112,263 L 103,284 L 91,285 L 80,280 L 69,258 C 65,259 62,258 59,256 C 59,256 58,253 56,246 C 58,240 62,238 67,239 C 70,240 73,242 75,245 C 75,245 85,241 105,232 Z M 99,239 C 83,244 75,247 75,247 C 75,252 73,255 70,257 C 78,271 81,278 81,278 C 93,252 99,239 99,239 Z" fill="#0C1721" id="id-52403"></path><path d=" M 115,240 C 106,242 100,244 98,247 C 103,250 106,251 106,251 C 110,260 112,265 112,265 L 114,264 L 107,251 C 112,244 115,240 115,240 Z" fill="#A4B4CA" id="id-52496"></path><path d=" M 92,283 C 99,282 102,282 102,282 C 106,273 108,269 108,269 L 97,271 C 93,279 92,283 92,283 Z" fill="#1B293C" id="id-52497"></path><path d=" M 98,270 C 102,261 104,256 104,256 L 109,267 C 102,269 98,270 98,270 Z" fill="#1B293C" id="id-52498"></path><path d=" M 90,281 C 86,279 84,277 84,277 C 93,259 97,250 97,250 L 103,254 C 94,272 90,281 90,281 Z" fill="#1B293C" id="id-52499"></path><path d=" M 95,250 C 96,251 96,252 96,252 C 94,256 93,259 93,259 L 91,258 C 93,253 95,250 95,250 Z" fill="#2F93BE" id="id-52500"></path><path d=" M 86,240 C 88,234 89,232 89,232 C 102,228 109,227 109,227 C 115,230 119,232 119,232 L 116,234 L 105,232 C 99,236 93,239 86,240 Z" fill="#AEC7FE" id="id-52501"></path><path d=" M 84,223 C 85,225 86,226 86,226 C 91,223 93,222 93,222 L 92,220 C 87,222 84,223 84,223 Z" fill="#1ED6EB" id="id-52502"></path><path d=" M 70,240 L 69,231 L 58,225 C 56,227 55,228 55,228 C 61,232 64,233 64,233 L 65,239 C 68,239 69,240 70,240 Z" fill="#8896A2" id="id-52503"></path><path d=" M 66,242 C 62,242 59,245 59,248 C 59,252 62,255 66,255 C 69,255 72,252 72,248 C 72,245 69,242 66,242 Z M 66,244 C 68,244 70,246 70,248 C 70,251 68,253 66,253 C 63,253 61,251 61,248 C 61,246 63,244 66,244 Z" fill="#82AEC6" id="id-52421" fill-rule="nonzero"></path><path d=" M 65,216 L 63,217 C 80,227 89,232 89,232 C 100,229 105,228 105,228 L 89,230 C 73,221 65,216 65,216 Z" fill="#C1D2DC" id="id-52505"></path><path d=" M 53,278 L 89,311 L 68,363 C 58,306 53,278 53,278 Z" fill="#7281AC" id="id-52506"></path><path d=" M 54,285 C 72,302 80,310 80,310 L 87,308 L 53,278 C 54,283 54,285 54,285 Z" fill="#3A415B" id="id-52507"></path><path d=" M 81,315 L 89,311 C 75,346 68,363 68,363 L 67,359 L 81,315 Z" fill="#233763" id="id-52508"></path><path d=" M 59,295 C 68,304 73,309 73,309 C 74,317 75,321 75,321 L 67,342 C 62,311 59,295 59,295 Z" fill="#284052" id="id-52509"></path><polygon points="80 310 80 315 89 311 87 308" fill="#869FD2" id="id-52510"></polygon><path d=" M 12,58 C 30,63 39,66 39,66 L 8,71 C 5,65 7,61 12,58 Z" fill="#6B85BA" id="id-52511"></path><path d=" M 12,60 C 8,62 7,66 9,71 C 116,105 170,121 171,120 L 176,107 C 85,79 31,64 12,60 Z" fill="url(#id-52365)" id="id-52512"></path><path d=" M 9,71 L 7,72 L 54,85 C 24,76 9,71 9,71 Z" fill="#18224A" id="id-52513"></path><path d=" M 15,63 C 13,65 12,66 12,66 C 13,68 14,69 14,69 C 20,71 24,72 24,72 L 27,69 C 19,65 15,63 15,63 Z" fill="#718594" id="id-52514"></path><path d=" M 72,151 C 78,164 85,178 94,191 C 140,200 163,205 163,205 C 188,230 200,242 200,242 C 222,229 233,222 233,222 L 249,151 L 248,149 C 240,145 236,142 236,142 L 85,142 C 76,148 72,151 72,151 Z" fill="#1D2025" id="id-52515"></path><path d=" M 85,142 C 76,148 71,151 71,151 C 76,161 79,166 79,166 C 85,160 88,158 88,158 C 172,158 214,158 214,158 C 217,169 218,174 218,174 L 217,158 L 238,143 C 191,142 139,142 85,142 Z" fill="#D3F5FC" id="id-52516"></path><path d=" M 87,142 C 89,151 89,155 89,155 L 214,157 L 237,142 C 137,142 87,142 87,142 Z" fill="url(#id-52366)" id="id-52517"></path><path d=" M 217,158 C 218,174 219,182 219,182 L 247,162 L 249,150 L 238,143 C 224,153 217,158 217,158 Z" fill="url(#id-52367)" id="id-52518"></path><path d=" M 167,158 L 165,179 C 167,179 168,179 168,179 L 185,203 L 219,182 L 214,158 C 183,158 167,158 167,158 Z" fill="#454C58" id="id-52519"></path><polygon points="167 158 87 158 79 166 94 191 132 198 143 181 165 179" fill="#535552" id="id-52520"></polygon><path d=" M 86,166 C 95,167 99,167 99,167 C 108,185 113,195 113,195 L 98,192 C 90,175 86,166 86,166 Z" fill="#15181D" id="id-52521"></path><path d=" M 88,170 C 94,171 97,171 97,171 L 107,194 L 98,192 C 92,178 88,170 88,170 Z" fill="#1E2730" id="id-52522"></path><path d=" M 92,178 C 94,177 95,177 95,177 C 97,181 97,182 97,182 L 94,183 C 92,179 92,178 92,178 Z" fill="#AE1330" id="id-52523"></path><path d=" M 95,185 C 97,184 98,184 98,184 C 99,186 100,187 100,187 L 97,189 C 96,186 95,185 95,185 Z" fill="#AE1330" id="id-52524"></path><path d=" M 134,198 C 154,200 164,202 164,202 C 174,213 179,219 179,219 C 184,215 187,213 187,213 L 167,184 L 142,184 C 137,193 134,198 134,198 Z" fill="#9FDEE4" id="id-52525"></path><path d=" M 150,187 L 143,199 C 157,201 163,202 163,202 L 166,186 C 155,186 150,187 150,187 Z" fill="url(#id-52368)" id="id-52526"></path><path d=" M 166,187 C 164,197 163,202 163,202 L 181,217 L 187,213 L 166,187 Z" fill="#75A5D1" id="id-52527"></path><path d=" M 133,199 C 134,205 135,209 135,209 L 164,214 L 181,223 L 163,205 C 143,201 133,199 133,199 Z" fill="#242F39" id="id-52528"></path><path d=" M 150,205 C 156,206 160,206 160,206 L 161,211 C 153,207 150,205 150,205 Z" fill="#1D232B" id="id-52529"></path><polygon points="63 298 70 337 68 337 61 298" fill="#7281AC" id="id-52530" fill-rule="nonzero"></polygon><polygon points="67 302 72 331 70 331 65 302" fill="#7281AC" id="id-52531" fill-rule="nonzero"></polygon><polygon points="71 306 74 326 72 326 69 306" fill="#7281AC" id="id-52532" fill-rule="nonzero"></polygon><path d=" M 202,297 L 193,288 L 187,289 L 186,294 L 202,297 Z M 188,290 L 192,289 L 199,296 L 188,294 L 188,290 Z" fill="#000000" id="id-52533" fill-rule="nonzero"></path><path d=" M 231,224 C 214,234 206,239 206,239 C 234,284 248,306 248,306 L 267,294 C 243,247 231,224 231,224 Z" fill="#0A0A09" id="id-52534"></path><path d=" M 250,302 C 249,301 248,300 248,300 C 257,294 261,292 261,292 L 263,294 C 254,300 250,302 250,302 Z" fill="#4E596D" id="id-52535"></path><path d=" M 222,249 C 221,248 221,247 221,247 C 227,243 230,242 230,242 L 231,244 C 225,248 222,249 222,249 Z" fill="#4E596D" id="id-52536"></path><path d=" M 219,244 C 226,240 229,238 229,238 C 228,233 227,231 227,231 L 212,240 C 217,243 219,244 219,244 Z" fill="#515D71" id="id-52537"></path><path d=" M 267,348 C 282,346 290,346 290,346 C 294,298 297,274 297,274 L 249,306 L 262,335 C 265,343 267,348 267,348 Z" fill="url(#id-52369)" id="id-52538"></path><path d=" M 275,311 C 275,319 275,323 275,323 C 280,329 283,332 283,332 L 283,318 C 278,313 275,311 275,311 Z" fill="#193648" id="id-52539"></path><path d=" M 291,314 L 275,286 L 297,274 C 293,301 291,314 291,314 Z" fill="url(#id-52370)" id="id-52540"></path><path d=" M 265,333 C 270,337 272,339 272,339 C 271,314 270,302 270,302 L 265,293 C 255,302 249,306 249,306 C 251,311 252,313 252,313 L 263,305 C 264,324 265,333 265,333 Z" fill="url(#id-52371)" id="id-52541"></path><path d=" M 285,317 L 271,305 L 271,342 L 288,335 L 285,317 Z M 273,309 L 284,318 L 286,334 L 273,339 L 273,309 Z" fill="#0F1318" id="id-52542" fill-rule="nonzero"></path><path d=" M 222,180 L 219,182 L 185,203 L 190,211 L 181,223 C 185,227 187,228 187,228 L 239,196 C 239,195 240,194 240,194 C 230,195 225,195 225,195 C 222,195 221,194 221,193 L 222,180 Z" fill="#2C435E" id="id-52449"></path><path d=" M 244,173 C 234,180 228,183 228,183 L 226,195 L 240,194 C 243,180 244,173 244,173 Z" fill="#363B44" id="id-52544"></path><path d=" M 190,231 C 191,237 194,241 200,242 C 222,229 233,222 233,222 L 237,203 L 190,231 Z" fill="#36353C" id="id-52545"></path><path d=" M 171,284 C 154,282 146,282 146,282 C 132,271 126,266 126,266 L 147,211 L 164,214 C 175,220 181,223 181,223 L 188,230 C 177,266 171,284 171,284 Z" fill="#404452" id="id-52546"></path><path d=" M 182,247 C 185,250 186,252 186,252 C 183,266 181,273 181,273 L 173,276 C 179,257 182,247 182,247 Z" fill="url(#id-52372)" id="id-52547"></path><path d=" M 180,236 C 173,259 170,270 170,270 C 155,275 147,278 147,278 C 138,264 133,257 133,257 C 142,233 146,221 146,221 C 159,217 166,215 166,215 L 170,217 C 177,230 180,236 180,236 Z" fill="#211F21" id="id-52548"></path><path d=" M 146,226 C 140,244 136,253 136,253 C 152,247 160,244 160,244 L 166,219 C 153,223 146,226 146,226 Z" fill="#242C37" id="id-52549"></path><polygon points="163 220 163 222 149 228 141 250 139 249 147 226" fill="#60778B" id="id-52550" fill-rule="nonzero"></polygon><path d=" M 147,246 C 150,237 151,232 151,232 C 158,230 162,228 162,228 L 159,243 C 151,245 147,246 147,246 Z" fill="url(#id-52373)" id="id-52551"></path><path d=" M 149,272 C 141,260 137,253 137,253 L 159,245 C 153,263 149,272 149,272 Z" fill="#3C4B69" id="id-52552"></path><path d=" M 151,273 C 163,268 169,266 169,266 L 160,247 C 154,264 151,273 151,273 Z" fill="#535C81" id="id-52553"></path><path d=" M 161,245 C 167,258 170,264 170,264 L 178,238 C 167,243 161,245 161,245 Z" fill="#7B89A5" id="id-52554"></path><path d=" M 161,244 C 165,227 166,219 166,219 L 176,237 C 166,241 161,244 161,244 Z" fill="#565D77" id="id-52555"></path><polygon points="166 215 164 214 147 211 126 266 133 256 146 221" fill="#5C7E9B" id="id-52556"></polygon><path d=" M 145,217 L 157,217 C 150,220 146,221 146,221 C 142,234 139,240 139,240 L 133,246 C 141,227 145,217 145,217 Z" fill="#97BECF" id="id-52557"></path><ellipse cx="133" cy="261" fill="#718394" id="id-52421" rx="4" ry="4"></ellipse><ellipse cx="168" cy="273" fill="#718394" id="id-52559" rx="4" ry="4"></ellipse><path d=" M 122,262 C 125,264 126,266 126,266 C 139,231 146,214 146,214 L 139,214 C 128,246 122,262 122,262 Z" fill="#9E3CA0" id="id-52560"></path><path d=" M 240,187 C 273,190 289,191 289,191 C 292,176 293,168 293,168 L 246,162 C 242,179 240,187 240,187 Z" fill="url(#id-52374)" id="id-52561"></path><path d=" M 269,165 C 273,165 275,165 275,165 C 283,166 286,166 286,166 C 284,183 282,191 282,191 C 281,190 280,190 280,190 L 283,168 L 269,165 Z" fill="#57697D" id="id-52562"></path><path d=" M 85,243 C 94,241 98,239 98,239 C 87,265 81,278 81,278 L 77,268 C 82,252 85,243 85,243 Z" fill="#7A8BA8" id="id-52563"></path><g transform=" translate(153,386)" id="id-52564"><polygon points="6 2 9 0 20 3 13 25 0 22" fill="#232D3F" id="id-52449"></polygon><polygon points="62 40 21 28 17 22 22 6 27 4" fill="#232D3F" id="id-52449"></polygon><polygon points="5 23 2 14 1 19 2 22" fill="#060D14" id="id-52449"></polygon><polygon points="5 5 4 10 8 24 11 25" fill="#060D14" id="id-52449"></polygon><polygon points="16 2 13 1 16 15 17 10" fill="#060D14" id="id-52449"></polygon><polygon points="13 24 15 19 10 0 9 0 8 1" fill="#060D14" id="id-52449"></polygon><path d=" M 35,12 L 31,8 C 32,14 36,29 36,32 L 39,33 L 35,12 Z" fill="#060D14" id="id-52449"></path><polygon points="25 5 31 31 34 31 28 5 27 4" fill="#060D14" id="id-52449"></polygon><polygon points="25 29 28 30 22 6 22 6 20 12" fill="#060D14" id="id-52449"></polygon><path d=" M 21,28 L 22,28 C 22,25 20,20 19,17 L 17,22 L 21,28 Z" fill="#060D14" id="id-52449"></path><polygon points="59 39 62 40 60 38" fill="#060D14" id="id-52449"></polygon><polygon points="42 19 38 15 43 34 45 35" fill="#060D14" id="id-52449"></polygon><polygon points="48 36 51 36 49 27 44 22" fill="#060D14" id="id-52449"></polygon><polygon points="56 34 53 30 54 38 56 38" fill="#060D14" id="id-52449"></polygon></g><g transform=" translate(103,163)" id="id-52579"><g transform=" translate(75,0)" fill="#92A5BF" id="id-52580"><path d=" M 2,14 L 0,7 C 0,2 2,1 5,1 C 8,0 10,2 11,6 L 13,13 C 14,18 12,20 9,20 C 6,20 3,19 2,14 Z M 9,7 L 8,6 C 8,4 7,3 5,3 C 4,3 3,4 4,6 L 4,10 L 9,7 Z M 5,13 L 5,14 C 5,16 6,17 8,17 C 10,17 10,16 10,14 L 9,10 L 5,13 Z" id="id-52581" fill-rule="nonzero"></path><path d=" M 17,0 C 20,0 23,2 23,5 C 25,10 18,13 19,15 L 19,16 L 25,16 L 26,19 L 18,19 C 17,19 16,19 16,18 L 15,16 C 14,11 21,9 20,5 C 20,4 19,3 18,3 C 17,3 16,4 16,5 C 16,5 16,5 16,5 L 13,5 C 13,5 13,4 13,4 C 13,3 13,2 14,1 C 15,0 16,0 17,0 L 17,0 Z" id="id-52449"></path><path d=" M 9,21 L 10,21 C 10,21 11,21 11,22 L 11,22 C 11,22 11,22 11,22 C 10,23 10,23 10,23 L 10,23 L 10,24 L 9,24 L 9,21 Z M 10,22 C 10,22 10,22 10,22 C 10,22 10,22 10,22 L 10,22 C 10,22 10,21 10,21 C 10,21 10,21 10,21 L 10,21 L 10,22 L 10,22 Z" id="id-52581" fill-rule="nonzero"></path><polygon points="11 21 12 21 12 23 13 23 13 24 11 24" id="id-52449"></polygon><path d=" M 14,23 L 14,23 L 14,24 L 13,24 L 13,21 L 14,21 L 15,24 L 14,24 L 14,23 Z M 14,23 L 14,22 L 14,23 L 14,23 Z" id="id-52581" fill-rule="nonzero"></path><polygon points="14 21 16 21 16 21 15 21 16 24 15 24 15 21 14 21" id="id-52449"></polygon><polygon points="16 21 18 21 18 21 17 21 17 22 18 22 18 23 17 23 17 24 16 24" id="id-52449"></polygon><path d=" M 18,23 L 18,22 C 18,21 18,21 18,21 C 18,21 19,21 19,21 C 19,21 20,21 20,22 L 20,23 C 20,23 20,24 20,24 C 19,24 19,24 19,24 C 19,24 18,24 18,23 Z M 19,23 L 19,22 C 19,21 19,21 19,21 C 19,21 19,21 19,21 C 19,21 19,21 19,21 C 19,21 19,21 19,22 L 19,23 C 19,23 19,23 19,23 C 19,23 19,23 19,23 C 19,23 19,23 19,23 C 19,23 19,23 19,23 L 19,23 Z" id="id-52581" fill-rule="nonzero"></path><path d=" M 21,24 L 21,23 L 21,23 L 21,24 L 20,24 L 20,21 L 21,21 C 21,21 21,21 22,21 C 22,21 22,21 22,22 L 22,22 C 22,22 22,22 21,23 L 22,24 L 21,24 Z M 21,22 L 21,22 C 21,22 21,22 21,22 C 21,22 21,22 21,22 L 21,22 C 21,21 21,21 21,21 C 21,21 21,21 21,21 L 21,21 L 21,22 Z" id="id-52581" fill-rule="nonzero"></path><polygon points="24 21 25 24 24 24 24 22 24 24 23 24 23 22 23 24 22 24 22 21 23 21 23 23 24 21" id="id-52449"></polygon></g><g fill="#9FB0C0" id="id-52591"><path d=" M 11,3 C 11,3 11,3 10,3 C 10,3 10,3 10,3 C 10,3 10,3 9,3 C 9,3 9,3 9,3 C 9,4 9,4 9,4 C 9,4 9,4 9,4 C 9,4 9,4 9,5 C 9,5 10,5 10,5 C 10,5 10,5 10,5 C 10,5 10,5 11,5 C 11,5 11,5 11,5 C 11,5 11,5 11,5 C 11,5 11,5 11,5 C 11,4 11,4 11,4 C 11,4 11,4 11,4 C 11,4 11,4 11,3 L 11,3 Z" id="id-52449"></path><path d=" M 33,3 C 33,3 32,3 32,3 C 32,3 32,3 32,3 C 32,3 32,3 31,3 C 31,3 31,3 31,3 C 31,4 31,4 31,4 C 31,4 31,4 31,4 C 31,4 31,4 31,5 C 31,5 32,5 32,5 C 32,5 32,5 32,5 C 32,5 32,5 33,5 C 33,5 33,5 33,5 C 33,5 33,5 33,5 C 33,5 33,5 33,5 C 33,4 33,4 33,4 C 33,4 33,4 33,4 C 33,4 33,4 33,3 L 33,3 Z" id="id-52449"></path><path d=" M 0,1 L 2,8 L 58,8 L 56,1 L 0,1 Z M 8,5 C 8,5 8,5 8,6 C 8,6 8,6 7,6 C 7,6 7,5 6,5 C 6,5 6,5 6,5 C 5,5 5,4 5,4 C 5,4 5,4 5,3 C 5,3 5,3 6,3 C 6,3 6,3 6,3 C 7,3 7,3 7,3 C 7,3 8,3 8,3 L 8,3 L 8,3 L 8,3 C 7,3 7,3 7,3 L 7,3 C 6,3 6,3 6,3 C 6,3 6,3 6,3 C 6,4 6,4 6,4 C 6,4 6,4 6,5 C 6,5 6,5 7,5 C 7,5 7,5 7,5 C 8,5 8,5 8,5 L 8,5 L 8,5 L 8,5 L 8,5 Z M 12,5 C 12,5 12,5 12,5 C 11,6 11,6 11,6 C 10,6 10,6 10,5 C 10,5 9,5 9,5 C 9,5 9,4 9,4 C 9,4 9,4 9,3 C 9,3 9,3 9,3 C 9,3 9,3 10,3 C 10,3 10,3 11,3 C 11,3 11,3 11,3 C 12,4 12,4 12,4 C 12,4 12,5 12,5 L 12,5 Z M 15,5 L 16,6 L 15,6 L 15,6 L 14,5 L 13,4 L 13,3 L 13,3 L 13,5 L 14,5 L 13,5 L 13,5 L 13,5 L 12,3 L 12,3 L 13,3 L 13,3 L 13,3 L 15,5 L 15,5 L 15,5 L 14,3 L 14,3 L 15,3 L 15,3 L 15,3 L 15,5 Z M 19,5 L 19,6 L 18,6 L 18,6 L 18,5 L 16,4 L 16,3 L 16,3 L 17,5 L 17,5 L 16,5 L 16,5 L 16,5 L 16,3 L 16,3 L 16,3 L 16,3 L 17,3 L 18,5 L 18,5 L 18,5 L 18,3 L 17,3 L 18,3 L 18,3 L 18,4 L 19,5 Z M 21,3 L 19,3 L 19,3 L 20,4 L 21,4 L 21,4 L 21,4 L 20,4 L 20,5 L 20,5 L 22,5 L 22,5 L 22,5 L 20,5 L 20,5 L 19,5 L 19,3 L 19,3 L 21,3 L 21,3 L 21,3 Z M 25,5 C 25,5 25,5 25,6 C 25,6 24,6 24,6 C 24,6 24,5 23,5 C 23,5 23,5 22,5 C 22,5 22,4 22,4 C 22,4 22,4 22,3 C 22,3 22,3 22,3 C 23,3 23,3 23,3 C 23,3 24,3 24,3 C 24,3 24,3 25,3 L 25,3 L 24,3 L 24,3 C 24,3 24,3 24,3 L 23,3 C 23,3 23,3 23,3 C 23,3 23,3 22,3 C 22,4 22,4 22,4 C 23,4 23,4 23,4 C 23,5 23,5 23,5 C 24,5 24,5 24,5 C 24,5 25,5 25,5 L 25,5 L 25,5 L 25,5 L 25,5 Z M 28,3 L 27,3 L 27,3 L 27,5 L 27,5 L 27,5 L 27,5 L 27,5 L 26,3 L 26,3 L 25,3 L 25,3 L 25,3 L 28,3 L 28,3 L 28,3 Z M 30,3 L 29,3 L 29,3 L 30,5 L 30,5 L 30,5 L 30,5 L 30,5 L 29,5 L 29,5 L 30,5 L 29,5 L 29,3 L 29,3 L 28,3 L 28,3 L 28,3 L 30,3 L 30,3 L 30,3 Z M 34,5 C 34,5 34,5 34,5 C 33,6 33,6 33,6 C 32,6 32,6 32,5 C 32,5 31,5 31,5 C 31,5 31,4 31,4 C 31,4 31,4 31,4 C 31,3 31,3 31,3 C 31,3 32,3 32,3 C 32,3 32,3 33,3 C 33,3 33,3 33,4 C 34,4 34,4 34,4 C 34,4 34,5 34,5 L 34,5 Z M 37,5 L 38,6 L 37,6 L 37,6 L 36,5 L 35,4 L 35,3 L 35,3 L 35,5 L 36,5 L 35,5 L 35,5 L 35,5 L 34,3 L 34,3 L 35,3 L 35,3 L 35,3 L 37,5 L 37,5 L 37,5 L 36,3 L 36,3 L 37,3 L 37,3 L 37,3 L 37,5 Z M 43,6 L 43,6 L 42,6 L 42,5 L 41,5 L 41,5 L 41,6 L 41,6 L 41,6 L 41,5 L 40,3 L 40,3 L 41,3 C 41,3 41,3 41,3 C 42,3 42,3 42,3 C 42,3 42,4 42,4 C 42,4 42,4 42,4 C 42,4 42,4 42,5 L 43,6 Z M 45,3 L 43,3 L 43,4 L 44,4 L 45,4 L 45,4 L 45,4 L 44,4 L 44,5 L 44,5 L 46,5 L 46,5 L 46,5 L 43,5 L 43,5 L 43,5 L 43,3 L 42,3 L 45,3 L 45,3 L 45,3 Z M 48,4 L 48,4 L 48,4 C 48,4 48,4 47,3 C 47,3 47,3 47,3 L 47,3 C 47,3 46,4 46,4 C 46,4 46,4 46,4 C 46,4 46,4 47,4 L 47,4 L 47,4 L 48,4 L 48,4 C 48,4 48,5 49,5 C 49,5 49,5 49,5 C 49,5 49,5 49,5 C 49,5 48,5 48,6 C 48,6 48,6 48,6 C 47,6 47,5 46,5 L 46,5 L 46,5 L 46,5 C 47,5 47,5 47,5 C 48,5 48,5 48,5 C 48,5 48,5 48,5 C 48,5 48,5 48,5 C 48,5 47,5 47,5 L 47,5 L 46,4 C 46,4 46,4 46,4 C 46,4 46,4 46,4 C 45,4 45,4 46,3 C 46,3 46,3 46,3 C 46,3 46,3 46,3 L 47,3 C 47,3 47,3 47,3 C 48,3 48,3 48,4 L 48,4 L 48,4 Z M 51,3 L 49,3 L 49,4 L 50,4 L 51,4 L 51,4 L 51,4 L 50,4 L 50,5 L 50,5 L 51,5 L 51,5 L 51,5 L 49,5 L 49,5 L 49,5 L 49,3 L 48,3 L 51,3 L 51,3 L 51,3 Z M 54,3 L 53,3 L 53,4 L 54,5 L 54,6 L 53,6 L 53,6 L 53,5 L 53,4 L 53,3 L 52,3 L 52,3 L 52,3 L 54,3 L 54,3 L 54,3 Z" id="id-52581" fill-rule="nonzero"></path><path d=" M 41,3 L 41,4 C 41,4 42,4 42,4 C 41,3 41,3 41,3 Z" id="id-52595"></path></g></g></g></svg>