<?xml version="1.0" encoding="UTF-8"?><svg width="1320px" height="1760px" viewBox="0 0 1320 1760" version="1.1" xmlns="http://www.w3.org/2000/svg" xmlns:xlink="http://www.w3.org/1999/xlink"><defs></defs><g transform=" translate(1199,1639)" fill="#343D53" opacity="0.297" id="id-76992"><path d=" M 22,0 L 53,0 C 59,0 65,2 69,6 C 72,10 75,16 75,22 L 75,53 C 75,59 72,65 69,69 C 65,72 59,75 53,75 L 22,75 C 16,75 10,72 6,69 C 2,65 0,59 0,53 L 0,22 C 0,16 2,10 6,6 C 10,2 16,0 22,0 Z M 53,6 L 22,6 C 18,6 14,8 11,11 C 8,14 6,18 6,22 L 6,53 C 6,57 8,61 11,64 C 14,67 18,69 22,69 L 53,69 C 57,69 61,67 64,64 C 67,61 69,57 69,53 L 69,22 C 69,18 67,14 64,11 C 61,8 57,6 53,6 Z" id="id-76993" fill-rule="nonzero"></path><rect width="12" height="6" x="10" y="38" id="id-76994" rx="0.417"></rect><rect width="12" height="6" x="10" y="30" id="id-76994" rx="0.417"></rect><rect width="12" height="6" x="24" y="38" id="id-76994" rx="0.417"></rect><rect width="12" height="6" x="24" y="30" id="id-76994" rx="0.417"></rect><rect width="12" height="6" x="24" y="22" id="id-76994" rx="0.417"></rect><rect width="12" height="6" x="24" y="13" id="id-76994" rx="0.417"></rect><rect width="12" height="6" x="39" y="38" id="id-76994" rx="0.417"></rect><rect width="12" height="6" x="53" y="38" id="id-76994" rx="0.417"></rect><rect width="12" height="6" x="53" y="30" id="id-76994" rx="0.417"></rect><rect width="12" height="6" x="53" y="22" id="id-76994" rx="0.417"></rect><path d=" M 13,46 L 62,46 C 63,46 65,47 65,49 L 65,55 C 65,60 60,64 55,64 L 20,64 C 14,64 10,60 10,55 L 10,49 C 10,47 12,46 13,46 Z M 22,50 C 25,50 28,52 28,55 C 28,58 25,61 22,61 C 19,61 16,58 16,55 C 16,52 19,50 22,50 Z M 55,53 C 56,53 57,54 57,55 C 57,56 56,58 55,58 C 53,58 52,56 52,55 C 52,54 53,53 55,53 Z M 46,53 C 47,53 48,54 48,55 C 48,56 47,58 46,58 C 45,58 44,56 44,55 C 44,54 45,53 46,53 Z" id="id-76993"></path></g></svg>