<?xml version="1.0" encoding="UTF-8"?><svg width="1320px" height="1760px" viewBox="0 0 1320 1760" version="1.1" xmlns="http://www.w3.org/2000/svg" xmlns:xlink="http://www.w3.org/1999/xlink"><defs><linearGradient x1="100%" y1="50%" x2="1%" y2="50%" id="id-73667"><stop stop-color="#A09AA1" offset="0%"></stop><stop stop-color="#838394" offset="50%"></stop><stop stop-color="#6F7597" offset="100%"></stop></linearGradient><linearGradient x1="50%" y1="0%" x2="50%" y2="100%" id="id-73668"><stop stop-color="#676E92" offset="0%"></stop><stop stop-color="#848AA8" offset="100%"></stop></linearGradient><linearGradient x1="50%" y1="0%" x2="50%" y2="100%" id="id-73669"><stop stop-color="#D8CEC9" offset="0%"></stop><stop stop-color="#9096B4" offset="100%"></stop></linearGradient></defs><g transform=" translate(432,405)" id="id-73670"><path d=" M 320,11 C 316,18 311,55 306,86 C 303,107 305,129 307,134 C 304,139 299,143 292,145 C 300,135 297,109 299,83 C 300,70 300,58 298,40 M 157,41 C 150,75 151,106 159,136 C 153,134 151,133 151,133 C 132,56 123,18 123,18 C 125,15 126,14 126,14 L 121,5" fill="#434A6B" id="id-73671"></path><path d=" M 317,15 C 312,29 307,46 303,54 C 302,65 301,77 304,87 C 298,101 302,119 307,134 C 304,137 303,139 303,139 C 320,138 321,121 324,102 C 334,95 351,75 329,57 C 337,50 341,42 335,29 C 345,22 344,14 333,6 C 352,-12 313,25 317,15 Z" fill="url(#id-73667)" id="id-73672"></path><path d=" M 0,158 C 1,134 10,108 30,80 C 48,66 68,69 116,32 C 111,44 117,53 126,61 C 123,66 120,72 120,81 C 101,78 78,78 52,79 C 31,86 14,113 0,158 Z" fill="#1E2239" id="id-73673"></path><path d=" M 0,157 C 30,160 63,153 100,137 C 106,122 112,106 121,93 C 119,89 118,85 120,80 C 100,79 83,76 51,78 C 31,87 14,113 0,157 Z" fill="#9E585D" id="id-73674"></path><path d=" M 66,149 C 75,138 82,127 85,115 C 76,118 63,125 46,137 C 49,126 55,113 65,97 C 42,117 38,106 42,84 C 45,81 48,80 51,78 C 74,77 97,77 120,80 C 118,85 119,90 121,94 C 113,106 106,121 100,138 C 90,142 79,146 66,149 Z" fill="#7F3D49" id="id-73675"></path><path d=" M 77,78 C 67,94 55,110 51,125 C 77,108 91,100 91,100 C 93,105 94,107 94,107 L 117,79 C 102,78 89,77 77,78 Z" fill="#5F212E" id="id-73676"></path><path d=" M 40,79 C 18,97 7,131 0,158 C 2,121 16,97 29,77 C 46,68 95,47 114,33 C 110,44 86,52 99,60 C 69,67 53,73 40,79 Z" fill="#40568B" id="id-73677"></path><path d=" M 336,43 C 342,42 346,41 346,41 C 353,46 357,48 357,48 C 357,60 395,73 430,86 C 444,106 485,161 481,172 C 452,177 418,175 377,163 C 366,140 364,121 334,92 C 342,79 341,67 330,57 C 333,55 336,50 336,43 Z" fill="#1E2239" id="id-73678"></path><path d=" M 355,115 C 355,107 355,104 355,104 C 377,101 398,98 426,104 C 440,117 459,140 481,172 C 448,178 414,174 378,163 C 368,138 361,122 355,115 Z" fill="#7C3C48" id="id-73679"></path><path d=" M 430,85 C 392,86 374,87 374,87 C 388,81 395,78 395,78 C 370,66 357,60 357,60 L 365,57 C 379,66 401,76 430,85 Z" fill="#40568B" id="id-73680"></path><path d=" M 392,167 C 394,155 394,143 398,131 C 416,132 434,131 452,135 L 481,172 C 452,177 423,175 392,167 Z" fill="#9D585D" id="id-73681"></path><path d=" M 362,103 C 380,123 389,133 389,133 C 393,129 395,126 395,126 C 431,145 449,154 449,154 L 409,101 C 389,100 373,101 362,103 Z" fill="#5F212E" id="id-73682"></path><path d=" M 158,145 C 159,130 162,115 151,98 C 155,93 155,65 146,60 C 149,56 150,54 150,54 C 142,45 136,33 132,19 L 123,17 C 110,28 110,49 125,62 C 116,81 126,95 141,98 C 134,106 132,113 140,120 C 139,132 144,141 158,145 Z" fill="url(#id-73668)" id="id-73683"></path><path d=" M 125,62 C 116,75 114,86 118,95 C 122,104 128,109 138,110 L 145,100 L 125,62 Z" fill="#7185C1" id="id-73684"></path><path d=" M 318,14 C 322,17 321,22 342,16 C 342,21 341,25 336,29 C 342,41 338,50 330,57 C 350,75 339,89 325,102 C 324,115 323,123 318,129 C 304,122 295,109 305,87 C 319,92 326,94 326,94 C 315,84 309,74 323,66 C 315,63 308,59 303,53 C 313,27 318,14 318,14 Z" fill="url(#id-73669)" id="id-73685"></path><path d=" M 338,34 C 335,33 331,34 327,38 C 318,37 314,46 314,60 C 318,64 321,65 323,66 C 320,68 318,70 316,73 C 322,85 335,78 339,69 C 337,66 335,62 330,57 C 337,52 339,44 338,34 Z" fill="#F2E7D5" id="id-73686"></path><path d=" M 330,98 C 317,90 313,96 309,101 C 304,107 303,113 312,116 L 320,120 C 322,115 325,112 325,102 C 328,100 330,98 330,98 Z" fill="#C2BABC" id="id-73687"></path><path d=" M 116,50 C 123,39 126,34 126,34 L 121,20 C 113,30 111,40 116,50 Z" fill="#8BA0DC" id="id-73688"></path><path d=" M 141,90 C 147,92 150,93 150,93 C 144,83 146,76 149,69 C 141,74 139,81 141,90 Z" stroke="#979797" id="id-73689"></path><path d=" M 143,113 C 144,97 142,99 142,92 C 146,95 147,98 153,98 C 146,103 143,108 143,113 Z" fill="#6A7092" id="id-73690"></path><path d=" M 148,140 C 153,136 156,132 159,123 L 158,146 C 152,142 148,140 148,140 Z" fill="#6D7193" id="id-73691"></path><path d=" M 177,156 C 165,154 157,149 154,141 L 158,126 C 162,140 168,149 177,156 Z" fill="#8BA0DC" id="id-73692"></path><path d=" M 123,70 C 123,71 122,72 122,73 C 108,60 93,85 112,91 C 94,98 97,55 123,70 Z" fill="#889CD7" id="id-73693"></path><path d=" M 126,61 C 128,57 131,54 135,52 C 140,57 143,61 144,70 C 145,66 148,67 150,65 C 154,75 155,86 151,98 C 148,97 145,96 142,93 L 143,99 L 140,98 C 122,90 118,78 126,61 Z" fill="#8288A7" id="id-73694"></path><path d=" M 133,94 C 131,85 133,76 138,68 L 132,58 C 118,68 118,80 133,94 Z" fill="#8BA0DC" id="id-73695"></path><path d=" M 147,140 C 149,134 149,131 149,131 C 145,128 144,125 143,121 L 140,121 C 139,129 141,135 147,140 Z" fill="#8B9FDB" id="id-73696"></path><path d=" M 141,111 C 141,112 141,113 141,113 C 127,110 122,117 120,126 C 119,114 126,109 141,111 Z" fill="#889CD7" id="id-73697"></path><path d=" M 141,129 C 142,131 142,132 142,132 C 139,135 137,141 135,146 C 135,140 137,135 141,129 Z" fill="#BFD2EF" id="id-73698"></path><path d=" M 309,118 C 311,119 312,120 312,120 C 303,137 318,133 325,132 C 309,141 304,137 309,118 Z" fill="#CBC2C0" id="id-73699"></path><path d=" M 333,63 C 333,64 334,64 334,64 C 339,58 345,59 351,65 C 347,55 341,55 333,63 Z" fill="#FFFFFF" id="id-73700"></path><path d=" M 335,41 C 335,43 335,44 335,44 C 337,43 342,47 346,50 C 341,44 338,41 335,41 Z" fill="#FFFFFF" id="id-73701"></path></g></svg>