<?xml version="1.0" encoding="UTF-8"?><svg width="1320px" height="1760px" viewBox="0 0 1320 1760" version="1.1" xmlns="http://www.w3.org/2000/svg" xmlns:xlink="http://www.w3.org/1999/xlink"><defs><linearGradient x1="60%" y1="12%" x2="46%" y2="30%" id="id-81250"><stop stop-color="#AE7C0D" offset="0%"></stop><stop stop-color="#724F04" offset="100%"></stop></linearGradient><linearGradient x1="43%" y1="49%" x2="60%" y2="55%" id="id-81251"><stop stop-color="#724F04" offset="0%" stop-opacity="0"></stop><stop stop-color="#AE7C0D" offset="100%"></stop></linearGradient><linearGradient x1="100%" y1="50%" x2="-28%" y2="50%" id="id-81252"><stop stop-color="#B7850B" offset="0%"></stop><stop stop-color="#624609" offset="100%"></stop></linearGradient><linearGradient x1="109%" y1="50%" x2="28%" y2="50%" id="id-81253"><stop stop-color="#523601" offset="0%"></stop><stop stop-color="#523601" offset="100%" stop-opacity="0"></stop></linearGradient><linearGradient x1="50%" y1="0%" x2="50%" y2="100%" id="id-81254"><stop stop-color="#6D4C03" offset="0%"></stop><stop stop-color="#4F3903" offset="100%"></stop></linearGradient></defs><g transform=" translate(353,476)" id="id-81255"><path d=" M 108,770 C 115,770 126,770 126,770 C 378,766 505,765 505,765 C 513,769 517,771 517,771 C 472,795 422,821 365,847 C 352,849 321,855 321,855 C 285,853 267,851 267,851 L 258,844 C 183,818 133,794 108,770 Z" fill="#000000" fill-opacity="0.376" id="id-81256"></path><path d=" M 135,109 L 135,119 L 143,250 L 127,404 C 130,420 131,428 131,428 L 129,447 C 118,495 111,538 107,576 C 107,583 110,595 115,612 L 107,652 C 114,662 113,668 104,671 C 99,703 95,731 92,751 C 163,806 232,830 282,841 C 322,845 460,799 513,764 C 527,751 546,733 546,733 C 540,717 534,697 529,671 C 523,666 515,661 508,657 C 498,618 494,598 494,598 C 505,583 510,575 510,575 C 508,565 507,560 507,560 C 509,533 509,519 509,519 L 489,419 C 491,406 492,400 492,400 C 479,296 472,244 472,244 C 428,187 407,158 407,158 C 428,121 439,102 439,102 C 468,114 482,120 482,120 C 483,111 483,106 483,106 C 462,72 447,47 439,32 C 437,30 442,56 414,76 C 386,96 349,94 349,94 C 344,102 337,134 326,189 C 322,239 319,288 319,288 C 307,289 301,290 301,290 C 299,219 290,154 276,94 L 135,109 Z" fill="url(#id-81250)" id="id-81257"></path><path d=" M 135,109 L 135,119 L 143,250 C 202,637 249,834 282,841 C 322,845 460,799 513,764 C 527,751 546,733 546,733 C 540,717 534,697 529,671 C 523,666 520,661 522,657 C 512,618 508,598 508,598 C 509,583 510,575 510,575 C 508,565 507,560 507,560 C 509,533 509,519 509,519 L 489,419 C 491,406 492,400 492,400 C 479,296 472,244 472,244 C 428,187 407,158 407,158 C 428,121 439,102 439,102 C 468,114 482,120 482,120 C 483,111 483,106 483,106 C 465,74 450,50 439,32 C 437,29 434,65 411,78 C 387,92 349,94 349,94 C 344,102 337,134 326,189 C 322,239 319,288 319,288 C 307,289 301,290 301,290 C 299,219 290,154 276,94 L 135,109 Z" fill="url(#id-81251)" id="id-81257"></path><path d=" M 268,176 C 268,169 267,153 265,126 C 263,116 259,108 252,101 C 247,93 229,84 196,73 C 172,92 154,106 144,115 C 191,131 230,164 268,176 Z" fill="#3F2701" id="id-81259"></path><polygon points="267 104 275 94 233 83 183 62 189 71" fill="#A48652" id="id-81260"></polygon><path d=" M 350,93 L 356,101 C 391,94 414,85 422,75 C 430,79 434,82 440,86 C 441,83 446,73 455,57 C 448,47 442,39 439,32 C 426,59 418,70 394,84 C 380,87 366,90 350,93 Z" fill="#CCA969" id="id-81261"></path><path d=" M 279,560 L 330,554 L 349,527 L 320,390 L 342,385 L 391,458 L 474,505 L 391,396 L 377,362 L 404,362 L 421,371 L 471,297 L 471,245 L 415,169 L 366,192 L 364,320 L 311,332 L 253,320 L 249,183 L 197,177 L 142,251 L 135,320 L 147,294 C 151,307 153,314 153,314 C 147,344 144,359 144,359 C 158,340 164,331 164,331 C 171,345 174,352 174,352 C 159,378 152,391 152,391 C 203,380 228,375 228,375 C 185,428 164,454 164,454 C 214,417 239,398 239,398 C 190,475 166,513 166,513 C 200,542 217,556 217,556 C 246,463 260,416 260,416 L 280,389 L 279,560 Z" fill="url(#id-81252)" id="id-81262"></path><path d=" M 213,359 C 240,334 254,321 254,321 L 246,341 C 224,353 213,359 213,359 Z" fill="#9C721D" id="id-81263"></path><path d=" M 259,385 C 267,346 271,326 271,326 L 295,333 C 271,368 259,385 259,385 Z" fill="#9F762A" id="id-81264"></path><path d=" M 366,289 C 398,299 414,305 414,305 L 366,305 L 366,289 Z" fill="#B68526" id="id-81265"></path><path d=" M 494,444 L 425,462 L 471,599 L 507,579 C 509,576 510,575 510,575 C 508,565 507,561 507,561 L 509,519 L 494,444 Z" fill="url(#id-81253)" id="id-81266"></path><path d=" M 424,257 C 386,260 366,261 366,261 L 367,230 C 405,248 424,257 424,257 Z" fill="#BD9037" id="id-81267"></path><path d=" M 208,532 C 199,522 188,514 175,502 C 135,502 165,578 161,641 C 156,716 142,780 142,780 L 174,782 C 163,683 174,599 208,532 Z" fill="#88610C" id="id-81268"></path><path d=" M 190,252 C 229,231 249,220 249,220 L 250,253 C 210,252 190,252 190,252 Z" fill="#8C6A2C" id="id-81269"></path><path d=" M 203,302 C 235,293 252,288 252,288 L 252,304 C 219,303 203,302 203,302 Z" fill="#9A7328" id="id-81270"></path><path d=" M 425,398 C 453,407 467,412 467,412 C 482,413 490,414 490,414 C 489,417 489,418 489,418 L 496,455 C 448,417 425,398 425,398 Z" fill="#503000" id="id-81271"></path><path d=" M 122,428 C 120,427 118,426 118,426 C 123,409 125,401 125,401 C 142,425 151,436 151,436 C 169,432 178,430 178,430 C 151,456 132,473 122,483 C 126,458 133,430 128,415 C 128,415 122,428 122,428 Z" fill="#3A2200" id="id-81272"></path><path d=" M 178,484 C 134,552 112,586 112,586 C 109,583 107,581 107,581 C 107,570 109,552 114,525 C 141,505 178,484 178,484 Z" fill="#432B00" id="id-81273"></path><polygon points="236 577 296 567 296 598" fill="#936A0A" id="id-81274"></polygon><path d=" M 529,671 C 534,694 536,705 536,705 C 542,724 546,733 546,733 C 522,756 510,767 510,768 C 471,791 445,802 416,812 C 397,818 376,823 357,827 C 355,825 353,818 353,818 C 328,825 315,828 315,828 C 315,835 315,838 315,838 C 306,840 301,841 301,841 C 301,833 301,829 301,829 C 276,829 264,830 264,830 C 213,811 188,801 188,801 C 185,805 184,808 184,808 C 147,791 116,772 91,751 C 97,718 104,671 104,671 C 150,677 173,679 173,679 C 161,698 156,707 156,707 C 202,689 225,680 225,680 C 236,682 241,683 241,683 C 267,695 280,700 280,700 C 287,692 290,688 290,688 C 314,689 326,689 326,689 C 364,732 383,753 383,753 C 379,711 376,690 376,690 C 417,691 437,692 437,692 C 480,715 502,726 502,726 L 476,679 C 512,673 529,671 529,671 Z" fill="url(#id-81254)" id="id-81275"></path><path d=" M 50,385 C 17,357 0,344 0,344 C 34,232 51,176 51,176 C 103,139 130,120 130,120 C 161,110 176,105 176,105 C 180,106 181,107 181,107 C 204,136 216,151 216,151 L 143,250 C 137,340 132,400 127,433 C 98,414 50,385 50,385 Z" fill="#272028" id="id-81276"></path><path d=" M 318,712 C 318,737 318,749 318,749 C 341,740 352,735 352,735 L 357,729 C 331,718 318,712 318,712 Z" fill="#8C6207" id="id-81277"></path><path d=" M 438,102 C 429,119 417,136 404,156 L 472,244 L 487,406 C 489,409 489,411 489,411 C 490,409 490,408 490,408 C 494,415 499,422 504,428 C 566,391 622,334 622,334 C 583,230 564,178 564,178 C 562,176 561,175 561,173 C 502,135 486,115 438,102 Z" fill="#3B2B3D" id="id-81278"></path><path d=" M 505,427 C 506,431 507,433 507,433 C 552,405 574,390 574,390 C 604,367 619,356 619,356 L 615,339 L 567,384 C 525,413 505,427 505,427 Z" fill="#E65B00" id="id-81279"></path><polygon points="582 370 586 381 619 356 615 339" fill="#F8A001" id="id-81280"></polygon><path d=" M 510,309 C 524,314 531,317 531,317 L 501,350 C 507,323 510,309 510,309 Z" fill="#4A4678" id="id-81281"></path><path d=" M 540,339 L 522,376 C 506,391 494,401 487,406 C 487,407 488,409 489,411 L 490,408 C 500,422 504,428 504,428 L 553,393 C 544,357 540,339 540,339 Z" fill="#241826" id="id-81282"></path><path d=" M 526,322 C 522,341 519,361 511,374 C 503,386 494,399 494,399 L 501,353 C 513,337 521,327 526,322 Z" fill="#241826" id="id-81283"></path><path d=" M 486,265 L 507,307 C 493,371 487,403 487,403 L 478,306 C 483,279 486,265 486,265 Z" fill="#251927" id="id-81284"></path><path d=" M 489,124 C 473,129 447,139 447,139 C 499,165 525,179 525,179 L 560,177 C 558,221 557,243 557,243 L 567,384 C 604,351 622,334 622,334 C 602,275 587,231 577,201 C 575,196 571,188 567,177 L 562,172 C 539,158 513,139 489,124 Z" fill="#4B4D80" id="id-81285"></path><path d=" M 571,188 C 530,209 509,220 509,220 C 523,246 530,259 530,259 L 589,237 C 577,205 571,188 571,188 Z" fill="#4D5278" id="id-81286"></path><path d=" M 574,194 C 536,213 517,222 517,222 C 527,244 532,254 532,254 L 588,233 C 578,207 574,194 574,194 Z" fill="#203D76" id="id-81287"></path><path d=" M 530,259 C 536,260 539,260 539,260 L 590,241 L 589,237 C 549,252 530,259 530,259 Z" fill="#1B151C" id="id-81288"></path><path d=" M 90,407 L 114,348 L 95,260 L 106,237 C 113,253 119,267 124,278 C 122,305 122,335 125,368 L 127,374 L 122,428 L 90,407 Z" fill="#1C151D" id="id-81289"></path><path d=" M 107,237 C 122,240 129,241 129,241 L 124,277 C 113,250 107,237 107,237 Z" fill="#302E43" id="id-81290"></path><path d=" M 90,195 C 93,202 95,206 95,206 C 71,264 60,293 60,293 C 33,285 20,280 20,280 C 14,271 12,266 12,266 C 22,239 28,226 28,226 C 24,220 23,218 23,218 L 40,180 C 74,190 90,195 90,195 Z" fill="#1D1721" id="id-81291"></path><path d=" M 28,226 C 54,233 68,237 68,237 C 59,260 54,271 54,271 L 14,260 C 23,237 28,226 28,226 Z" fill="#2E3956" id="id-81292"></path><path d=" M 45,269 C 53,266 57,264 57,264 L 55,278 C 48,272 45,269 45,269 Z" fill="#364A7D" id="id-81293"></path><path d=" M 23,218 L 70,230 L 85,196 L 39,182 C 28,206 23,218 23,218 Z" fill="#2E3956" id="id-81294"></path><path d=" M 41,192 C 43,210 45,218 45,218 L 73,201 C 52,195 41,192 41,192 Z" fill="#674E21" id="id-81295"></path><path d=" M 79,194 L 83,200 L 90,195 L 40,180 L 39,182 C 66,190 79,194 79,194 Z" fill="#707BAF" id="id-81296"></path><path d=" M 82,181 C 150,147 184,131 184,131 L 127,122 L 51,176 C 72,179 82,181 82,181 Z" fill="#2F2C42" id="id-81297"></path><path d=" M 184,190 L 216,151 L 181,107 L 176,105 L 130,120 C 128,121 127,122 127,122 L 184,126 L 184,190 Z" fill="#1C151D" id="id-81298"></path><path d=" M 331,190 L 353,188 C 353,270 353,312 353,312 L 324,288 C 329,223 331,190 331,190 Z" fill="#B08430" id="id-81299"></path><path d=" M 279,105 L 345,107 L 326,190 C 321,257 319,290 319,290 L 302,290 C 296,236 292,199 290,181 C 283,130 279,105 279,105 Z" fill="#F8A000" id="id-81300"></path><path d=" M 286,188 C 289,188 291,188 291,188 C 295,224 297,248 298,259 C 300,282 302,290 302,290 L 297,290 C 289,222 286,188 286,188 Z" fill="#946A1B" id="id-81301"></path><path d=" M 290,181 C 307,181 316,181 316,181 C 319,201 321,211 321,211 C 318,264 316,290 316,290 C 318,290 319,290 319,290 C 323,224 326,190 326,190 C 334,152 340,128 342,117 C 326,114 305,113 280,112 C 287,158 290,181 290,181 Z" fill="#DE5900" id="id-81302"></path><path d=" M 246,103 C 242,116 240,123 240,123 C 253,127 260,129 260,129 L 268,107 C 253,104 246,103 246,103 Z" fill="#1C151D" id="id-81303"></path><path d=" M 229,0 C 229,1 232,2 235,2 L 238,10 C 252,21 262,25 269,22 C 274,19 288,15 305,10 L 342,25 C 346,27 353,23 363,16 L 370,0 C 376,0 378,0 378,0 C 375,15 373,22 373,22 C 371,23 370,24 370,24 C 369,44 371,59 375,69 C 376,73 383,78 394,84 C 385,86 378,88 374,89 C 358,92 349,93 349,93 C 345,105 343,110 343,110 C 301,109 279,108 279,108 L 275,94 L 235,84 L 231,82 L 220,78 L 233,68 L 233,22 C 227,7 226,-1 229,0 Z" fill="#0C0026" id="id-81304"></path><path d=" M 254,104 L 263,119 L 268,107 C 259,105 254,104 254,104 Z" fill="#555588" id="id-81305"></path><path d=" M 355,107 C 355,128 355,138 355,138 C 363,138 368,138 368,138 C 379,126 385,120 385,120 L 375,103 C 362,106 355,107 355,107 Z" fill="#3F2701" id="id-81306"></path><path d=" M 356,107 C 361,122 364,130 364,130 L 386,120 L 375,103 C 362,106 356,107 356,107 Z" fill="#1C151D" id="id-81307"></path><path d=" M 357,107 C 357,107 374,115 374,115 L 375,103 C 363,105 357,107 357,107 Z" fill="#55558A" id="id-81308"></path><path d=" M 298,333 C 268,325 253,320 253,320 L 247,182 C 222,165 210,157 210,157 C 213,154 216,151 216,151 C 230,161 243,172 256,178 C 262,271 262,314 262,314 C 286,320 298,323 298,323 C 298,321 298,320 298,320 C 307,320 311,320 311,320 C 311,321 311,324 311,324 C 341,319 355,316 355,316 C 355,228 356,182 356,182 C 370,178 386,169 404,156 C 407,159 409,161 409,162 C 410,162 409,163 409,163 C 381,180 366,188 366,188 C 366,277 365,321 365,321 C 329,329 311,333 311,333 C 312,466 313,634 315,838 L 301,841 C 299,502 298,333 298,333 Z" fill="#442801" id="id-81257"></path><path d=" M 8,350 L 3,367 C 44,394 83,417 119,438 C 119,434 119,434 120,428 C 120,428 56,388 26,364 C 26,364 20,359 8,350 Z" fill="#C74E00" id="id-81310"></path><polygon points="15 375 21 360 70 395 64 405" fill="#F09901" id="id-81311"></polygon><path d=" M 135,119 L 135,109 C 150,84 163,62 173,43 C 185,24 201,10 220,1 C 199,18 187,37 184,57 C 191,64 201,69 201,69 L 145,115 C 138,117 135,119 135,119 Z" fill="#513600" id="id-81312"></path><path d=" M 227,3 C 227,4 228,5 228,7 C 229,9 230,12 231,17 C 247,26 255,31 255,31 L 247,19 L 237,13 L 234,5 L 227,3 Z" fill="#432635" id="id-81313"></path><path d=" M 231,82 C 233,83 234,83 235,84 C 236,84 238,84 239,84 C 245,72 249,55 252,33 L 239,26 C 239,46 236,65 231,82 Z" fill="#48343D" id="id-81314"></path><path d=" M 267,26 C 274,38 288,46 306,49 C 331,44 350,30 375,15 L 378,2 L 369,2 C 365,11 363,16 363,16 C 350,22 342,25 338,26 C 337,25 326,21 306,12 C 294,16 267,26 267,26 Z" fill="#2E2B56" id="id-81315"></path><path d=" M 308,37 L 316,33 L 325,43 C 311,48 308,49 307,49 L 304,47 L 308,37 Z" fill="#5A5992" id="id-81316"></path><polygon points="306 12 306 18 314 16" fill="#5A5992" id="id-81317"></polygon><path d=" M 370,24 C 368,24 368,25 366,26 C 365,49 368,70 375,89 L 376,88 C 374,59 369,44 370,24 Z" fill="#45343C" id="id-81318"></path><path d=" M 334,24 L 333,27 L 338,28 C 347,27 356,23 364,17 L 372,2 L 370,0 C 367,6 365,11 363,16 C 343,25 340,25 338,26 L 334,24 Z" fill="#5B5891" id="id-81319"></path><path d=" M 346,46 C 346,59 346,80 345,106 L 344,110 L 279,108 C 277,98 275,94 275,94 L 274,93 C 270,77 267,66 265,60 C 275,56 292,54 316,55 C 328,46 338,43 346,46 Z" fill="#18073A" id="id-81320"></path></g></svg>