<?xml version="1.0" encoding="UTF-8"?><svg width="1320px" height="1760px" viewBox="0 0 1320 1760" version="1.1" xmlns="http://www.w3.org/2000/svg" xmlns:xlink="http://www.w3.org/1999/xlink"><defs></defs><g transform=" translate(1191,1638)" fill="#343D53" opacity="0.300" id="id-77097"><path d=" M 10,0 C 10,5 10,10 12,15 C 15,23 19,30 27,35 C 33,40 37,42 41,42 C 45,42 50,40 56,35 L 56,35 C 64,30 68,23 71,15 C 72,10 73,5 73,0 L 79,0 C 79,6 78,11 76,17 C 73,26 68,34 59,40 C 52,45 47,48 41,48 C 36,48 31,45 24,40 C 15,34 9,26 6,17 C 5,11 4,6 4,0 L 10,0 L 10,0 Z" id="id-77098" fill-rule="nonzero"></path><path d=" M 45,15 C 52,16 58,21 61,27 C 56,32 49,38 41,38 C 34,38 27,32 22,27 C 25,21 31,16 38,15 L 38,9 C 38,7 39,4 41,3 L 41,3 L 41,3 C 43,4 45,7 45,9 L 45,15 L 45,15 Z" id="id-77098"></path><polygon points="60 44 61 59 67 61 77 52 67 38" id="id-77098"></polygon><polygon points="62 62 61 73 70 76 83 65 74 58 68 63" id="id-77098"></polygon><polygon points="22 44 22 59 15 61 6 52 16 38" id="id-77098"></polygon><polygon points="20 62 22 73 12 76 0 65 8 58 15 63" id="id-77098"></polygon><path d=" M 42,69 C 43,69 46,71 47,71 C 47,72 51,64 51,61 C 49,63 45,65 42,64 C 38,65 34,63 32,61 C 32,64 36,72 36,71 C 37,71 40,69 42,69 L 42,69 Z M 50,53 C 53,53 55,51 57,47 C 60,53 59,58 54,61 C 51,66 52,72 48,76 L 42,75 L 35,76 C 32,72 32,66 29,61 C 24,58 23,53 26,47 C 28,51 30,53 33,53 C 36,54 38,51 41,51 C 45,51 47,54 50,53 Z" id="id-77104"></path></g></svg>