<?xml version="1.0" encoding="UTF-8"?>
<svg width="1320px" height="1760px" viewBox="0 0 1320 1760" version="1.1" xmlns="http://www.w3.org/2000/svg" xmlns:xlink="http://www.w3.org/1999/xlink">
<defs >
<linearGradient x1="50%" y1="50%" x2="50%" y2="100%" id="id-bg-34-Artboard-0">
<stop stop-color="#cbcfda" offset="0%">
</stop >
<stop stop-color="#cbcfda" offset="100%">
</stop >
<stop stop-color="#cbcfda" offset="100%">
</stop >
</linearGradient >
</defs >
<g stroke="none" stroke-width="1" fill="none" id="id-bg-34-Artboard-1" fill-rule="evenodd">
<g id="id-bg-34-Artboard-2">
<g id="id-bg-34-Artboard-3">
<rect fill="url(#id-bg-34-Artboard-0)" width="1320" height="1760" x="0" y="0" id="id-bg-34-Artboard-4">
</rect >
<g transform="translate(143,346)" fill="#ffffff" id="id-bg-34-Artboard-5">
<path d="M 211 114 C 377 -11 604 -33 770 47 C 796 70 821 56 828 29 C 828 29 832 91 841 215 L 841 215 L 841 215 C 841 209 842 138 842 0 L 842 0 L 842 0 C 843 3 863 53 902 150 C 920 168 933 187 945 205 L 947 207 C 948 209 950 211 951 214 C 966 252 972 295 978 337 C 978 337 981 317 986 278 C 1060 439 1065 594 1000 746 L 1000 746 L 1000 746 C 1000 745 1000 734 1001 710 C 986 759 960 805 925 850 C 925 850 934 845 951 835 C 951 835 951 835 951 835 L 951 835 C 950 836 940 849 920 875 C 920 875 912 915 896 995 C 896 995 895 926 893 789 L 893 789 L 893 789 C 892 789 890 791 885 793 L 885 793 L 885 793 C 885 795 884 835 884 911 C 731 1052 520 1074 365 1011 C 365 1011 353 1027 330 1058 L 330 1058 L 330 1058 C 330 1057 330 1033 331 986 C 324 979 318 974 313 968 C 313 968 309 1028 301 1149 C 301 1149 298 1092 294 978 C 250 951 211 922 179 888 C 176 892 174 897 173 903 C 173 903 171 955 167 1060 C 162 981 160 947 140 894 C 128 871 115 844 103 817 L 100 811 C 94 798 89 786 83 774 C 101 807 126 843 156 882 L 156 882 L 155 863 C -2 681 -41 428 116 210 C 135 190 151 171 167 152 L 170 149 L 170 149 L 173 145 C 176 142 179 139 182 135 C 182 135 182 135 182 135 L 182 135 C 182 136 182 143 182 155 C 182 155 184 154 187 152 C 187 152 186 114 185 40 C 185 40 193 65 211 114 Z M 885 607 L 881 721 L 890 713 C 890 713 888 678 885 607 L 885 607 Z" id="id-bg-34-Artboard-6">
</path >
<path d="M 740 1028 L 718 1024 C 718 1024 788 993 788 993 L 743 1039 C 745 1031 743 1028 740 1028 Z" id="id-bg-34-Artboard-7">
</path >
<path d="M 719 1044 C 711 1052 707 1056 707 1056 L 730 1065 C 722 1051 719 1044 719 1044 Z" id="id-bg-34-Artboard-8">
</path >
<path d="M 683 1098 C 696 1087 702 1082 702 1082 L 696 1109 C 687 1101 683 1098 683 1098 Z" id="id-bg-34-Artboard-9">
</path >
<path d="M 683 1059 C 663 1047 653 1042 653 1042 L 700 1028 C 689 1049 683 1059 683 1059 Z" id="id-bg-34-Artboard-10">
</path >
<path d="M 46 302 C 15 355 0 382 0 382 C 5 389 7 392 7 392 C 1 433 1 467 6 496 C 7 422 20 357 46 302 Z" id="id-bg-34-Artboard-11">
</path >
</g >
</g >
<rect fill="#a1aac3" width="37" height="134" x="0" y="0" id="id-bg-34-Artboard-4">
</rect >
<rect fill="#a1aac3" width="37" height="134" x="0" y="813" id="id-bg-34-Artboard-4">
</rect >
<rect fill="#a1aac3" width="37" height="134" x="0" y="1626" id="id-bg-34-Artboard-4">
</rect >
</g >
</g >
<defs >
</defs >
<g transform="translate(537,488)" id="id-female-4_green_jumpsuit_back-0">
<polygon points="233 51 223 89 174 114 149 69 213 12 213 11 230 45" fill="#005194" id="id-female-4_green_jumpsuit_back-1">
</polygon >
<polygon points="190 81 191 42 193 33 213 11 230 45" fill="#0574b8" id="id-female-4_green_jumpsuit_back-1">
</polygon >
<polygon points="8 84 7 46 33 4 35 8 35 8 55 14 59 62 83 120" fill="#0574b8" id="id-female-4_green_jumpsuit_back-1">
</polygon >
<polygon points="62 110 53 41 72 37 97 51 82 118" fill="#005194" id="id-female-4_green_jumpsuit_back-1">
</polygon >
<path d="M 237 50 L 226 92 L 192 107 L 136 131 L 98 129 L 53 109 L 4 87 L 3 80 L 3 80 L 2 64 L 1 47 L 32 0 L 35 8 L 35 8 C 28 18 7 46 7 47 C 7 47 8 53 8 59 C 8 65 9 72 9 76 C 9 76 9 76 9 76 C 9 79 9 81 9 81 L 58 104 L 70 110 L 100 125 L 106 125 L 127 125 L 133 124 L 175 106 L 184 103 L 222 86 L 230 51 L 213 12 L 212 10 L 218 0 L 237 49 L 237 50 Z" fill="#151515" id="id-female-4_green_jumpsuit_back-1">
</path >
</g >
<defs >
</defs >
<polygon points="560 656 545 547 542 498 603 477 738 482 720 647" fill="#3e1d26" id="id-female-5_70_long_wave_back-0">
</polygon >
<defs >
<linearGradient x1="100%" y1="46%" x2="12%" y2="47%" id="id-female-6.6_base_2-0">
<stop stop-color="#723722" offset="0%">
</stop >
<stop stop-color="#96513b" offset="21%">
</stop >
<stop stop-color="#9a6555" offset="46%">
</stop >
<stop stop-color="#9f5e49" offset="80%">
</stop >
<stop stop-color="#93523a" offset="100%">
</stop >
</linearGradient >
<linearGradient x1="53%" y1="81%" x2="50%" y2="21%" id="id-female-6.6_base_2-1">
<stop stop-color="#7b3f37" offset="0%">
</stop >
<stop stop-color="#7d4538" offset="24%">
</stop >
<stop stop-color="#834b33" offset="100%">
</stop >
</linearGradient >
<linearGradient x1="52%" y1="-4%" x2="46%" y2="70%" id="id-female-6.6_base_2-2">
<stop stop-color="#834239" offset="0%">
</stop >
<stop stop-color="#5c3029" offset="100%">
</stop >
</linearGradient >
<linearGradient x1="46%" y1="43%" x2="15%" y2="43%" id="id-female-6.6_base_2-3">
<stop stop-color="#924833" offset="0%">
</stop >
<stop stop-color="#683011" offset="100%">
</stop >
</linearGradient >
<linearGradient x1="54%" y1="37%" x2="12%" y2="72%" id="id-female-6.6_base_2-4">
<stop stop-color="#1e0404" offset="0%">
</stop >
<stop stop-color="#34100e" offset="100%">
</stop >
</linearGradient >
<linearGradient x1="40%" y1="14%" x2="61%" y2="85%" id="id-female-6.6_base_2-5">
<stop stop-color="#461a1f" offset="0%">
</stop >
<stop stop-color="#5b2f2c" offset="100%">
</stop >
</linearGradient >
<linearGradient x1="27%" y1="47%" x2="91%" y2="49%" id="id-female-6.6_base_2-6">
<stop stop-color="#784730" offset="0%">
</stop >
<stop stop-color="#be8bc7" offset="100%">
</stop >
</linearGradient >
<linearGradient x1="47%" y1="60%" x2="49%" y2="79%" id="id-female-6.6_base_2-7">
<stop stop-color="#7f4235" offset="0%">
</stop >
<stop stop-color="#894241" offset="60%">
</stop >
<stop stop-color="#9b595a" offset="100%">
</stop >
</linearGradient >
<linearGradient x1="29%" y1="56%" x2="69%" y2="53%" id="id-female-6.6_base_2-8">
<stop stop-color="#804733" offset="0%">
</stop >
<stop stop-color="#743a2c" offset="8%">
</stop >
<stop stop-color="#7c3d34" offset="18%">
</stop >
<stop stop-color="#5d2920" offset="38%">
</stop >
<stop stop-color="#5b2725" offset="65%">
</stop >
<stop stop-color="#7e4037" offset="81%">
</stop >
<stop stop-color="#4c1b1f" offset="100%">
</stop >
</linearGradient >
<linearGradient x1="47%" y1="45%" x2="54%" y2="46%" id="id-female-6.6_base_2-9">
<stop stop-color="#7a3932" offset="0%">
</stop >
<stop stop-color="#763b2f" offset="62%">
</stop >
<stop stop-color="#5f2c1f" offset="77%">
</stop >
<stop stop-color="#794634" offset="100%">
</stop >
</linearGradient >
<linearGradient x1="51%" y1="7%" x2="50%" y2="100%" id="id-female-6.6_base_2-10">
<stop stop-color="#763d2d" offset="0%">
</stop >
<stop stop-color="#914e49" offset="75%">
</stop >
<stop stop-color="#7b3c3b" offset="100%">
</stop >
</linearGradient >
<linearGradient x1="51%" y1="11%" x2="49%" y2="93%" id="id-female-6.6_base_2-11">
<stop stop-color="#87523f" offset="0%">
</stop >
<stop stop-color="#80482f" offset="73%">
</stop >
<stop stop-color="#865037" offset="100%">
</stop >
</linearGradient >
<linearGradient x1="51%" y1="-5%" x2="48%" y2="96%" id="id-female-6.6_base_2-12">
<stop stop-color="#7d452e" offset="0%">
</stop >
<stop stop-color="#6c3821" offset="100%">
</stop >
</linearGradient >
<linearGradient x1="50%" y1="19%" x2="50%" y2="69%" id="id-female-6.6_base_2-13">
<stop stop-color="#50260a" offset="0%">
</stop >
<stop stop-color="#291000" offset="45%">
</stop >
<stop stop-color="#4c2106" offset="100%">
</stop >
</linearGradient >
<linearGradient x1="46%" y1="74%" x2="39%" y2="35%" id="id-female-6.6_base_2-14">
<stop stop-color="#492117" offset="0%">
</stop >
<stop stop-color="#64311e" offset="51%">
</stop >
<stop stop-color="#713121" offset="100%">
</stop >
</linearGradient >
<linearGradient x1="46%" y1="16%" x2="49%" y2="82%" id="id-female-6.6_base_2-15">
<stop stop-color="#512416" offset="0%" stop-opacity="0.186">
</stop >
<stop stop-color="#482015" offset="100%">
</stop >
</linearGradient >
<linearGradient x1="41%" y1="19%" x2="50%" y2="100%" id="id-female-6.6_base_2-16">
<stop stop-color="#5b2725" offset="0%">
</stop >
<stop stop-color="#50260a" offset="100%">
</stop >
</linearGradient >
<linearGradient x1="50%" y1="31%" x2="45%" y2="50%" id="id-female-6.6_base_2-17">
<stop stop-color="#68361d" offset="0%">
</stop >
<stop stop-color="#894c43" offset="100%">
</stop >
</linearGradient >
<linearGradient x1="51%" y1="22%" x2="50%" y2="100%" id="id-female-6.6_base_2-18">
<stop stop-color="#5d2126" offset="0%">
</stop >
<stop stop-color="#4f1c21" offset="100%">
</stop >
</linearGradient >
<linearGradient x1="49%" y1="0%" x2="50%" y2="100%" id="id-female-6.6_base_2-19">
<stop stop-color="#7a3f2e" offset="0%">
</stop >
<stop stop-color="#793f35" offset="100%">
</stop >
</linearGradient >
<linearGradient x1="44%" y1="15%" x2="50%" y2="100%" id="id-female-6.6_base_2-20">
<stop stop-color="#5b2c1f" offset="0%">
</stop >
<stop stop-color="#50281d" offset="100%">
</stop >
</linearGradient >
<linearGradient x1="52%" y1="21%" x2="49%" y2="83%" id="id-female-6.6_base_2-21">
<stop stop-color="#7f4534" offset="0%">
</stop >
<stop stop-color="#975549" offset="48%">
</stop >
<stop stop-color="#83453f" offset="100%">
</stop >
</linearGradient >
<linearGradient x1="85%" y1="60%" x2="15%" y2="60%" id="id-female-6.6_base_2-22">
<stop stop-color="#864a32" offset="0%">
</stop >
<stop stop-color="#5d2a11" offset="100%">
</stop >
</linearGradient >
<linearGradient x1="48%" y1="-20%" x2="59%" y2="91%" id="id-female-6.6_base_2-23">
<stop stop-color="#96533c" offset="0%">
</stop >
<stop stop-color="#5d2c12" offset="60%">
</stop >
<stop stop-color="#643418" offset="72%">
</stop >
<stop stop-color="#743e24" offset="100%">
</stop >
</linearGradient >
<linearGradient x1="55%" y1="48%" x2="46%" y2="33%" id="id-female-6.6_base_2-24">
<stop stop-color="#743f2a" offset="0%">
</stop >
<stop stop-color="#7e462e" offset="86%">
</stop >
<stop stop-color="#764228" offset="100%">
</stop >
</linearGradient >
<linearGradient x1="50%" y1="19%" x2="50%" y2="78%" id="id-female-6.6_base_2-25">
<stop stop-color="#401900" offset="0%">
</stop >
<stop stop-color="#522003" offset="50%">
</stop >
<stop stop-color="#371900" offset="100%">
</stop >
</linearGradient >
<linearGradient x1="50%" y1="10%" x2="50%" y2="43%" id="id-female-6.6_base_2-26">
<stop stop-color="#85462c" offset="0%">
</stop >
<stop stop-color="#602c13" offset="15%">
</stop >
<stop stop-color="#652d15" offset="68%">
</stop >
<stop stop-color="#592a10" offset="100%">
</stop >
</linearGradient >
<linearGradient x1="89%" y1="50%" x2="9%" y2="52%" id="id-female-6.6_base_2-27">
<stop stop-color="#401d02" offset="0%">
</stop >
<stop stop-color="#995734" offset="53%" stop-opacity="0.199">
</stop >
<stop stop-color="#5a2a10" offset="75%">
</stop >
<stop stop-color="#411900" offset="100%">
</stop >
</linearGradient >
<linearGradient x1="44%" y1="70%" x2="86%" y2="30%" id="id-female-6.6_base_2-28">
<stop stop-color="#9a5741" offset="0%">
</stop >
<stop stop-color="#9c6a5f" offset="100%">
</stop >
</linearGradient >
<linearGradient x1="19%" y1="86%" x2="73%" y2="32%" id="id-female-6.6_base_2-29">
<stop stop-color="#703010" offset="0%">
</stop >
<stop stop-color="#a66353" offset="40%">
</stop >
<stop stop-color="#ae745f" offset="100%">
</stop >
</linearGradient >
<linearGradient x1="35%" y1="94%" x2="47%" y2="12%" id="id-female-6.6_base_2-30">
<stop stop-color="#723c23" offset="0%">
</stop >
<stop stop-color="#966556" offset="40%">
</stop >
<stop stop-color="#ac715d" offset="46%">
</stop >
<stop stop-color="#a36655" offset="100%">
</stop >
</linearGradient >
<linearGradient x1="50%" y1="54%" x2="27%" y2="9%" id="id-female-6.6_base_2-31">
<stop stop-color="#ddab90" offset="0%">
</stop >
<stop stop-color="#ddab90" offset="100%" stop-opacity="0.078">
</stop >
</linearGradient >
<linearGradient x1="20%" y1="36%" x2="93%" y2="69%" id="id-female-6.6_base_2-32">
<stop stop-color="#a36150" offset="0%">
</stop >
<stop stop-color="#9d604e" offset="70%">
</stop >
<stop stop-color="#803a19" offset="100%">
</stop >
</linearGradient >
<linearGradient x1="36%" y1="84%" x2="25%" y2="44%" id="id-female-6.6_base_2-33">
<stop stop-color="#663d38" offset="0%" stop-opacity="0.509">
</stop >
<stop stop-color="#57260a" offset="35%" stop-opacity="0.675">
</stop >
<stop stop-color="#763217" offset="100%" stop-opacity="0">
</stop >
</linearGradient >
<linearGradient x1="63%" y1="95%" x2="43%" y2="20%" id="id-female-6.6_base_2-34">
<stop stop-color="#7c3c2b" offset="0%">
</stop >
<stop stop-color="#8a4b32" offset="46%">
</stop >
<stop stop-color="#88452f" offset="100%">
</stop >
</linearGradient >
<linearGradient x1="40%" y1="0%" x2="50%" y2="86%" id="id-female-6.6_base_2-35">
<stop stop-color="#804025" offset="0%">
</stop >
<stop stop-color="#955542" offset="100%">
</stop >
</linearGradient >
<linearGradient x1="50%" y1="0%" x2="50%" y2="92%" id="id-female-6.6_base_2-36">
<stop stop-color="#b56f5e" offset="0%">
</stop >
<stop stop-color="#8b4e35" offset="100%">
</stop >
</linearGradient >
<linearGradient x1="33%" y1="79%" x2="21%" y2="44%" id="id-female-6.6_base_2-37">
<stop stop-color="#936354" offset="0%">
</stop >
<stop stop-color="#633117" offset="28%">
</stop >
<stop stop-color="#763c17" offset="100%" stop-opacity="0">
</stop >
</linearGradient >
<linearGradient x1="4%" y1="47%" x2="92%" y2="45%" id="id-female-6.6_base_2-38">
<stop stop-color="#391108" offset="0%">
</stop >
<stop stop-color="#501a0f" offset="17%" stop-opacity="0.753">
</stop >
<stop stop-color="#6b3127" offset="48%" stop-opacity="0.386">
</stop >
<stop stop-color="#4a1c15" offset="78%" stop-opacity="0.762">
</stop >
<stop stop-color="#411610" offset="100%">
</stop >
</linearGradient >
<linearGradient x1="60%" y1="45%" x2="67%" y2="53%" id="id-female-6.6_base_2-39">
<stop stop-color="#a3716e" offset="0%">
</stop >
<stop stop-color="#cb93a9" offset="100%">
</stop >
</linearGradient >
<linearGradient x1="48%" y1="15%" x2="54%" y2="81%" id="id-female-6.6_base_2-40">
<stop stop-color="#8c4a35" offset="0%">
</stop >
<stop stop-color="#965850" offset="100%">
</stop >
</linearGradient >
<linearGradient x1="47%" y1="44%" x2="50%" y2="61%" id="id-female-6.6_base_2-41">
<stop stop-color="#3e0d06" offset="0%" stop-opacity="0.175">
</stop >
<stop stop-color="#33100b" offset="100%">
</stop >
</linearGradient >
<linearGradient x1="26%" y1="-7%" x2="50%" y2="96%" id="id-female-6.6_base_2-42">
<stop stop-color="#37373f" offset="0%">
</stop >
<stop stop-color="#19191d" offset="100%">
</stop >
</linearGradient >
<linearGradient x1="50%" y1="12%" x2="59%" y2="82%" id="id-female-6.6_base_2-43">
<stop stop-color="#252525" offset="0%">
</stop >
<stop stop-color="#101010" offset="100%">
</stop >
</linearGradient >
<linearGradient x1="25%" y1="-16%" x2="50%" y2="98%" id="id-female-6.6_base_2-44">
<stop stop-color="#37373f" offset="0%">
</stop >
<stop stop-color="#19191d" offset="100%">
</stop >
</linearGradient >
<linearGradient x1="75%" y1="39%" x2="50%" y2="93%" id="id-female-6.6_base_2-45">
<stop stop-color="#252525" offset="0%">
</stop >
<stop stop-color="#000000" offset="100%">
</stop >
</linearGradient >
</defs >
<g transform="translate(334,549)" id="id-female-6.6_base_2-46">
<polygon points="561 754 565 871 565 881 537 893 533 897 535 901 532 909 543 910 597 864" fill="#451f04" id="id-female-6.6_base_2-47">
</polygon >
<polygon points="537 282 539 246 535 195 529 158 522 137 484 118 440 111 212 111 188 113 157 123 121 139 111 186 108 221 109 290" fill="url(#id-female-6.6_base_2-0)" id="id-female-6.6_base_2-47">
</polygon >
<polygon points="467 393 474 506 503 589 537 672 556 728 561 754 546 794 552 851 551 861 552 874 556 885 567 882 568 866 570 860 570 843 571 834 576 843 576 859 579 864 573 874 571 884 544 903 541 916 582 901 597 864 607 852 600 821 597 716 589 695 582 655 569 523 544 425" fill="url(#id-female-6.6_base_2-1)" id="id-female-6.6_base_2-47">
</polygon >
<polygon points="546 794 552 851 551 861 552 874 556 885 567 882 568 866 570 860 570 843 571 834 576 843 576 859 579 864 573 874 571 884 544 903 541 916 582 901 597 864 583 871 588 855 573 815 561 823" fill="url(#id-female-6.6_base_2-2)" id="id-female-6.6_base_2-47">
</polygon >
<polygon points="552 851 551 861 552 874 556 887 567 884 568 866 570 860 558 860" fill="#552b28" id="id-female-6.6_base_2-47">
</polygon >
<polygon points="544 906 541 916 582 901 571 889" fill="#512926" id="id-female-6.6_base_2-47">
</polygon >
<polygon points="561 754 548 789 566 819 586 806" fill="#66342d" id="id-female-6.6_base_2-47">
</polygon >
<polygon points="486 648 477 599 453 529 440 504 437 490 439 460 449 402 456 340 188 343 198 411 202 493 162 596 153 638 266 693 319 721 386 693" fill="url(#id-female-6.6_base_2-3)" id="id-female-6.6_base_2-47">
</polygon >
<polygon points="486 648 477 599 453 529 440 504 437 490 439 460 449 402 456 340 296 353 376 634" fill="#804025" id="id-female-6.6_base_2-47">
</polygon >
<g transform="translate(188,0)" id="id-female-6.6_base_2-56">
<polygon points="274 114 253 111 232 100 201 76 188 58 184 1 93 1 88 64 25 111 1 113 103 123 121 135 134 138 149 121 161 117 187 119 225 114" fill="#83442e" id="id-female-6.6_base_2-47">
</polygon >
<polygon points="201 76 188 58 185 12 175 57 155 111 185 73" fill="#a06e95" id="id-female-6.6_base_2-47">
</polygon >
<polygon points="149 1 93 1 88 64 108 126 121 135 133 138" fill="#6e361f" id="id-female-6.6_base_2-47">
</polygon >
<polygon points="116 102 120 113 118 115 136 135 150 119 164 71 125 108" fill="#5a2f17" id="id-female-6.6_base_2-60">
</polygon >
<polygon points="121 127 133 138 145 124" fill="#431903" id="id-female-6.6_base_2-61">
</polygon >
<polygon points="136 98 164 71 175 57 186 17 134 51" fill="#68291c" id="id-female-6.6_base_2-62">
</polygon >
<polygon points="97 96 116 80 164 60 178 48 186 17 184 1 93 1 88 64 45 96" fill="#5e2519" opacity="0.654" id="id-female-6.6_base_2-47">
</polygon >
<polygon points="186 17 184 1 93 1 88 64 45 96 66 96" fill="url(#id-female-6.6_base_2-4)" opacity="0.467" id="id-female-6.6_base_2-47">
</polygon >
<polygon points="123 58 176 23 186 17 184 1 93 1 91 22 108 55" fill="#1e0404" opacity="0.434" id="id-female-6.6_base_2-47">
</polygon >
</g >
<polygon points="41 844 33 856 36 895 64 915 84 911 83 903 71 898 72 892 63 884 52 849" fill="url(#id-female-6.6_base_2-5)" id="id-female-6.6_base_2-47">
</polygon >
<polygon points="315 152 285 173 320 188 357 166" fill="#aa6d58" id="id-female-6.6_base_2-67">
</polygon >
<polygon points="327 150 370 130 342 127" fill="#7d452b" id="id-female-6.6_base_2-68">
</polygon >
<polygon points="301 142 303 148 243 131 240 119 276 119" fill="#7b442b" id="id-female-6.6_base_2-69">
</polygon >
<polygon points="159 149 206 123 269 123 303 144 297 118 188 113 157 123 121 139" fill="url(#id-female-6.6_base_2-6)" id="id-female-6.6_base_2-47">
</polygon >
<polygon points="157 123 121 139 153 167 196 134" fill="#be8ca3" id="id-female-6.6_base_2-47">
</polygon >
<polygon points="89 584 77 541 62 551 45 658 34 712 25 741 25 762 10 817 0 845 14 870 25 901 58 919 72 919 69 913 61 905 50 899 37 874 37 852 43 845 52 855 50 887 56 901 64 905 66 901 66 882 72 836 72 800 69 781 64 773 66 735 85 684 121 599 162 510" fill="url(#id-female-6.6_base_2-7)" id="id-female-6.6_base_2-47">
</polygon >
<polygon points="89 584 77 541 62 551 45 658 48 715 121 599 162 510" fill="#7a432a" id="id-female-6.6_base_2-47">
</polygon >
<polygon points="55 843 45 827 37 848 17 852 8 836 5 851 0 845 14 870 25 901 58 919 72 919 69 913 61 905 50 899 37 874 37 852 43 845 52 855 50 887 56 901 64 905 66 901 66 882 72 836" fill="#743e32" id="id-female-6.6_base_2-47">
</polygon >
<polygon points="53 882 52 892 56 901 64 905 66 901 66 882 67 876" fill="#6b362f" id="id-female-6.6_base_2-47">
</polygon >
<polygon points="25 901 58 919 72 919 62 909 37 895" fill="#6b362f" id="id-female-6.6_base_2-47">
</polygon >
<polygon points="160 467 145 488 108 578 45 777 48 797 64 773 66 735 85 684 121 599 162 510" fill="#643317" id="id-female-6.6_base_2-47">
</polygon >
<polygon points="169 1211 277 1211 282 1183 281 1150 284 1127 286 1114 285 1063 293 972 306 866 311 792 309 768 323 771 337 768 333 817 333 855 339 924 346 1008 348 1113 351 1130 353 1176 361 1211 461 1211 458 1191 456 1170 460 1133 461 1082 505 905 516 839 518 826 512 762 503 706 486 648 482 629 386 690 318 718 266 690 184 629 153 637 132 731 119 781 118 813 123 862 131 916 166 1094 176 1179" fill="url(#id-female-6.6_base_2-8)" id="id-female-6.6_base_2-47">
</polygon >
<polygon points="463 664 416 771 400 819 392 1125 359 1178 398 1204 441 1153 461 1082 505 905 516 839 518 826 515 789 490 714" fill="url(#id-female-6.6_base_2-9)" id="id-female-6.6_base_2-47">
</polygon >
<polygon points="422 1160 395 1199 365 1171 401 1149 384 1120 391 983 411 786 416 771 448 697 454 1013 445 1116 407 1149" fill="url(#id-female-6.6_base_2-10)" id="id-female-6.6_base_2-80">
</polygon >
<polygon points="121 139 111 186 108 221 109 290 96 438 89 464 69 510 89 585 162 510 167 425 162 241" fill="url(#id-female-6.6_base_2-11)" id="id-female-6.6_base_2-47">
</polygon >
<polygon points="101 466 103 488 106 510 160 447 179 359 164 232 187 184 186 179 132 181 161 234 161 321 149 376 151 384 123 461 114 466" fill="url(#id-female-6.6_base_2-12)" id="id-female-6.6_base_2-82">
</polygon >
<polygon points="96 438 89 464 69 510 51 621 101 520 96 476" fill="#82566b" id="id-female-6.6_base_2-47">
</polygon >
<polygon points="96 451 128 365 134 316 121 139 111 186 108 221 109 290 96 438" fill="#643317" id="id-female-6.6_base_2-47">
</polygon >
<polygon points="184 241 177 248 162 225 138 289 161 321 170 375 161 420 151 411 162 510 167 425 188 343" fill="url(#id-female-6.6_base_2-13)" id="id-female-6.6_base_2-47">
</polygon >
<polygon points="284 1127 286 1114 285 1063 293 972 306 866 311 792 309 768 323 771 337 768 333 817 333 855 339 924 346 1008 375 889 416 771 463 664 490 714 515 790 512 762 503 706 486 648 477 599 471 583 420 650 316 720 201 654 244 742 264 824 275 994" fill="url(#id-female-6.6_base_2-14)" id="id-female-6.6_base_2-47">
</polygon >
<polygon points="298 930 306 866 311 792 309 768 323 771 337 768 333 817 333 855 336 894 347 826 360 784 378 733 388 687 321 739 254 687 267 736 291 821" fill="url(#id-female-6.6_base_2-15)" id="id-female-6.6_base_2-47">
</polygon >
<polygon points="348 1093 348 1113 351 1130 353 1176 361 1211 461 1211 439 1155 422 1136 403 1148 429 1168 400 1202 370 1170 382 1125" fill="url(#id-female-6.6_base_2-16)" id="id-female-6.6_base_2-47">
</polygon >
<polygon points="10 855 8 836 5 851 0 845 14 870" fill="#6d342e" id="id-female-6.6_base_2-47">
</polygon >
<polygon points="520 500 516 520 544 629 474 500 490 399" fill="url(#id-female-6.6_base_2-17)" id="id-female-6.6_base_2-90">
</polygon >
<polygon points="461 1211 458 1191 456 1170 460 1133 461 1082 439 1155 450 1211" fill="url(#id-female-6.6_base_2-18)" id="id-female-6.6_base_2-47">
</polygon >
<polygon points="220 1149 259 1115 240 1063 232 973 266 819 240 713 201 661 158 650 201 784 183 925 170 1083" fill="url(#id-female-6.6_base_2-19)" id="id-female-6.6_base_2-92">
</polygon >
<polygon points="169 1211 277 1211 282 1183 281 1150 284 1127 286 1114 286 1098 226 1211 207 1211 196 1121 173 1078 150 1014 166 1094 176 1179" fill="url(#id-female-6.6_base_2-20)" id="id-female-6.6_base_2-47">
</polygon >
<polygon points="173 1078 183 924 150 1014" fill="#6b352c" id="id-female-6.6_base_2-47">
</polygon >
<polygon points="169 1211 239 1211 230 1196 204 1175 173 1150 176 1179" fill="#521e24" opacity="0.574" id="id-female-6.6_base_2-47">
</polygon >
<polygon points="221 1130 240 1097 224 1063 224 983 240 804 217 698 190 668 212 771 212 910 190 998 181 1094" fill="url(#id-female-6.6_base_2-21)" id="id-female-6.6_base_2-92">
</polygon >
<polygon points="217 795 221 692 200 667 169 658 200 737" fill="#9c5f46" id="id-female-6.6_base_2-97">
</polygon >
<polygon points="511 476 492 419 481 447 484 356 521 274 533 417" fill="url(#id-female-6.6_base_2-22)" id="id-female-6.6_base_2-98">
</polygon >
<polygon points="569 523 544 425 542 346 537 282 539 246 535 195 529 158 522 137 494 161 419 158 471 211 516 290 525 411 511 477 518 507 535 462 562 543" fill="url(#id-female-6.6_base_2-23)" id="id-female-6.6_base_2-47">
</polygon >
<polygon points="486 389 533 243 501 167 464 207 451 247 463 265" fill="url(#id-female-6.6_base_2-24)" id="id-female-6.6_base_2-100">
</polygon >
<polygon points="473 490 474 506 503 589 537 672 556 728 561 754 567 712 543 623" fill="#582a0f" id="id-female-6.6_base_2-47">
</polygon >
<polygon points="460 328 466 378 474 506 490 425 486 392 469 274 479 230 461 260 454 251" fill="url(#id-female-6.6_base_2-25)" id="id-female-6.6_base_2-47">
</polygon >
<polygon points="440 504 437 490 439 460 449 402 456 340 458 328 325 282 188 343 198 411 202 493 162 596 157 621 161 633 169 599 173 570 204 506 202 458 217 402 286 365 321 352 353 360 422 402 431 493 437 520" fill="url(#id-female-6.6_base_2-26)" id="id-female-6.6_base_2-47">
</polygon >
<polygon points="451 385 456 340 458 328 364 340 330 308 268 343 188 343 194 379 262 368 312 343 335 340 381 368" fill="url(#id-female-6.6_base_2-27)" id="id-female-6.6_base_2-47">
</polygon >
<polygon points="286 328 306 310 330 274 453 252 464 205 421 156 317 204 219 165 210 154 188 180" fill="url(#id-female-6.6_base_2-28)" id="id-female-6.6_base_2-105">
</polygon >
<path d="M 422 195 L 405 190 C 377 190 357 198 343 214 C 329 230 322 250 323 276 C 324 301 331 320 345 333 C 365 351 384 356 405 356 C 425 356 444 347 450 342 C 454 339 457 335 460 328 C 463 323 466 317 467 308 C 469 294 466 276 457 254 L 422 195 Z" fill="url(#id-female-6.6_base_2-29)" id="id-female-6.6_base_2-106">
</path >
<path d="M 422 195 L 417 175 C 386 188 366 196 358 201 C 355 203 351 206 348 208 C 348 209 381 253 448 342 C 454 338 459 332 463 324 C 469 310 469 301 469 293 C 469 287 465 275 459 257 L 422 195 Z" fill="url(#id-female-6.6_base_2-30)" id="id-female-6.6_base_2-106">
</path >
<path d="M 375 226 C 338 253 343 276 343 284 C 343 291 353 319 371 335 C 379 342 422 349 447 331 C 468 316 472 294 458 265 C 427 221 400 208 375 226 Z" fill="url(#id-female-6.6_base_2-31)" opacity="0.282" id="id-female-6.6_base_2-106">
</path >
<path d="M 272 205 C 260 199 243 200 221 209 C 187 227 169 258 168 303 C 167 319 184 342 190 346 C 197 351 212 356 239 353 C 257 351 272 344 284 333 C 303 312 312 288 309 260 C 305 217 291 214 272 205 Z" fill="url(#id-female-6.6_base_2-32)" id="id-female-6.6_base_2-109">
</path >
<path d="M 340 285 C 333 252 328 240 326 248 C 324 254 323 263 323 276 C 324 301 331 320 345 333 C 365 351 382 356 404 356 C 425 356 444 347 450 342 C 456 337 465 325 468 308 C 472 290 465 276 463 268 C 461 263 460 259 458 255 L 442 290 L 399 304 L 366 300 L 340 285 Z" fill="url(#id-female-6.6_base_2-33)" id="id-female-6.6_base_2-106">
</path >
<path d="M 153 637 L 149 654 L 132 731 L 130 739 C 133 730 135 723 137 718 C 140 709 147 691 149 680 C 151 671 155 655 161 633 L 172 570 L 162 596 L 153 637 Z" fill="#7d362e" id="id-female-6.6_base_2-47">
</path >
<path d="M 259 203 C 254 199 240 185 217 163 L 210 153 L 186 180 C 192 211 192 231 186 239 C 175 256 168 277 168 303 C 168 324 190 352 239 344 C 252 342 274 217 259 203 Z" fill="#a36150" id="id-female-6.6_base_2-109">
</path >
<polygon points="175 565 203 550 234 558 241 520 203 455 203 507" fill="#5e2d13" id="id-female-6.6_base_2-113">
</polygon >
<polygon points="241 442 241 518 229 556 233 629 266 657 316 707 381 659 395 629 364 504 350 504 301 380" fill="url(#id-female-6.6_base_2-34)" id="id-female-6.6_base_2-114">
</polygon >
<polygon points="432 626 427 589 407 518 414 505 450 568 470 618" fill="url(#id-female-6.6_base_2-35)" id="id-female-6.6_base_2-115">
</polygon >
<polygon points="302 376 254 442 254 546 302 590 364 568 364 504 350 504 376 454 345 400" fill="url(#id-female-6.6_base_2-36)" opacity="0.599" id="id-female-6.6_base_2-114">
</polygon >
<polygon points="317 480 342 436 319 413 300 447" fill="#874a31" id="id-female-6.6_base_2-117">
</polygon >
<polygon points="304 541 318 507 329 541 314 549" fill="#774029" id="id-female-6.6_base_2-118">
</polygon >
<polygon points="306 543 316 578 329 541" fill="#935f42" id="id-female-6.6_base_2-119">
</polygon >
<path d="M 178 333 C 179 334 180 336 182 338 C 184 342 186 343 189 346 C 190 347 197 351 206 353 C 215 354 226 355 239 353 C 257 351 272 344 284 333 C 293 322 299 313 302 305 C 304 301 307 293 309 277 C 310 274 310 268 309 260 L 228 277 L 207 295 L 178 333 Z" fill="url(#id-female-6.6_base_2-37)" id="id-female-6.6_base_2-109">
</path >
<polygon points="306 543 308 550 324 556 329 541" fill="#9e7261" id="id-female-6.6_base_2-119">
</polygon >
<polygon points="308 543 318 525 323 542 314 548" fill="#3c1e03" id="id-female-6.6_base_2-122">
</polygon >
<polygon points="152 641 162 596 176 561 185 617 214 602 246 628 323 690 404 628 423 605 454 605 470 577 477 599 482 629 388 689 337 768 323 771 309 768 259 688 175 639 142 688" fill="url(#id-female-6.6_base_2-38)" opacity="0.442" id="id-female-6.6_base_2-123">
</polygon >
<polygon points="490 154 522 137 484 118 412 123" fill="url(#id-female-6.6_base_2-39)" id="id-female-6.6_base_2-47">
</polygon >
<polygon points="573 785 588 829 602 858 607 852 600 821 597 716 576 763" fill="#8e4d48" id="id-female-6.6_base_2-47">
</polygon >
<polygon points="574 722 589 695 582 655 533 542" fill="url(#id-female-6.6_base_2-40)" id="id-female-6.6_base_2-47">
</polygon >
<polygon points="172 640 241 690 309 768 323 771 338 768 395 706 469 661 404 650 313 706 217 629" fill="url(#id-female-6.6_base_2-41)" opacity="0.571" id="id-female-6.6_base_2-127">
</polygon >
<g transform="translate(188,270)" id="id-female-6.6_base_2-128">
<polygon points="207 13 207 10 217 2 220 2 239 21 258 39 260 42 250 51 246 52 226 33" fill="url(#id-female-6.6_base_2-42)" id="id-female-6.6_base_2-129">
</polygon >
<polygon points="208 40 218 50 222 50 240 33 257 13 257 9 247 0 244 1 230 19 209 36" fill="url(#id-female-6.6_base_2-43)" id="id-female-6.6_base_2-130">
</polygon >
<polygon points="1 13 1 10 10 2 15 2 32 21 50 39 52 42 42 52 38 52 19 33" fill="url(#id-female-6.6_base_2-44)" id="id-female-6.6_base_2-129">
</polygon >
<polygon points="0 43 10 53 14 53 33 35 50 15 50 11 40 3 36 4 19 23 1 39" fill="url(#id-female-6.6_base_2-45)" id="id-female-6.6_base_2-130">
</polygon >
</g >
</g >
<defs >
<linearGradient x1="50%" y1="0%" x2="50%" y2="85%" id="id-female-6.8_face_2-0">
<stop stop-color="#874639" offset="0%">
</stop >
<stop stop-color="#4d2322" offset="100%">
</stop >
</linearGradient >
<radialGradient cx="50%" cy="55%" r="91%" id="id-female-6.8_face_2-1" fx="50%" fy="55%" gradientTransform="translate(0.5,0.55) scale(1,0.697) rotate(-90) scale(1,0.712) translate(-0.5,-0.55)">
<stop stop-color="#a3513a" offset="0%">
</stop >
<stop stop-color="#c87359" offset="39%">
</stop >
<stop stop-color="#291013" offset="100%">
</stop >
</radialGradient >
<linearGradient x1="11%" y1="60%" x2="57%" y2="52%" id="id-female-6.8_face_2-2">
<stop stop-color="#944831" offset="0%">
</stop >
<stop stop-color="#b46750" offset="48%">
</stop >
<stop stop-color="#d27d60" offset="100%">
</stop >
</linearGradient >
<linearGradient x1="46%" y1="46%" x2="22%" y2="61%" id="id-female-6.8_face_2-3">
<stop stop-color="#a0543d" offset="0%">
</stop >
<stop stop-color="#642d27" offset="100%">
</stop >
</linearGradient >
<linearGradient x1="48%" y1="50%" x2="57%" y2="65%" id="id-female-6.8_face_2-4">
<stop stop-color="#a55643" offset="0%">
</stop >
<stop stop-color="#66342f" offset="100%">
</stop >
</linearGradient >
<linearGradient x1="100%" y1="38%" x2="17%" y2="50%" id="id-female-6.8_face_2-5">
<stop stop-color="#cb7b65" offset="0%">
</stop >
<stop stop-color="#ae6452" offset="100%">
</stop >
</linearGradient >
<linearGradient x1="47%" y1="27%" x2="48%" y2="50%" id="id-female-6.8_face_2-6">
<stop stop-color="#532d32" offset="0%">
</stop >
<stop stop-color="#794968" offset="100%">
</stop >
</linearGradient >
<radialGradient cx="47%" cy="70%" r="97%" id="id-female-6.8_face_2-7" fx="47%" fy="70%" gradientTransform="translate(0.467,0.7) scale(0.592,1) rotate(-93) translate(-0.467,-0.7)">
<stop stop-color="#d17f6c" offset="0%">
</stop >
<stop stop-color="#622923" offset="100%">
</stop >
</radialGradient >
<linearGradient x1="42%" y1="43%" x2="61%" y2="33%" id="id-female-6.8_face_2-8">
<stop stop-color="#783a36" offset="0%">
</stop >
<stop stop-color="#632f2b" offset="100%">
</stop >
</linearGradient >
<radialGradient cx="45%" cy="79%" r="81%" id="id-female-6.8_face_2-9" fx="45%" fy="79%" gradientTransform="translate(0.447,0.79) scale(0.833,1) rotate(-90) scale(1,1) translate(-0.447,-0.79)">
<stop stop-color="#f2a292" offset="0%">
</stop >
<stop stop-color="#93483d" offset="100%">
</stop >
</radialGradient >
<linearGradient x1="58%" y1="0%" x2="20%" y2="89%" id="id-female-6.8_face_2-10">
<stop stop-color="#d48072" offset="0%" stop-opacity="0">
</stop >
<stop stop-color="#e49281" offset="46%">
</stop >
<stop stop-color="#f2a38f" offset="100%" stop-opacity="0.432">
</stop >
</linearGradient >
<linearGradient x1="52%" y1="22%" x2="50%" y2="16%" id="id-female-6.8_face_2-11">
<stop stop-color="#a06daa" offset="0%">
</stop >
<stop stop-color="#a471b2" offset="100%" stop-opacity="0.398">
</stop >
</linearGradient >
<radialGradient cx="45%" cy="76%" r="54%" id="id-female-6.8_face_2-12" fx="45%" fy="76%" gradientTransform="translate(0.455,0.761) scale(0.673,1) scale(1,0.612) translate(-0.455,-0.761)">
<stop stop-color="#bc6d5a" offset="0%">
</stop >
<stop stop-color="#974c3a" offset="100%">
</stop >
</radialGradient >
<linearGradient x1="50%" y1="0%" x2="50%" y2="73%" id="id-female-6.8_face_2-13">
<stop stop-color="#d88873" offset="0%">
</stop >
<stop stop-color="#b4624d" offset="100%">
</stop >
</linearGradient >
<linearGradient x1="25%" y1="52%" x2="67%" y2="55%" id="id-female-6.8_face_2-14">
<stop stop-color="#d37b62" offset="0%">
</stop >
<stop stop-color="#843c39" offset="100%">
</stop >
</linearGradient >
<linearGradient x1="71%" y1="52%" x2="18%" y2="50%" id="id-female-6.8_face_2-15">
<stop stop-color="#994d39" offset="0%">
</stop >
<stop stop-color="#5e2c26" offset="100%">
</stop >
</linearGradient >
<linearGradient x1="94%" y1="63%" x2="50%" y2="63%" id="id-female-6.8_face_2-16">
<stop stop-color="#6f3d40" offset="0%">
</stop >
<stop stop-color="#ad594c" offset="100%">
</stop >
</linearGradient >
<linearGradient x1="50%" y1="0%" x2="50%" y2="84%" id="id-female-6.8_face_2-17">
<stop stop-color="#0b071e" offset="0%">
</stop >
<stop stop-color="#3c2f7b" offset="100%">
</stop >
</linearGradient >
<linearGradient x1="75%" y1="46%" x2="36%" y2="49%" id="id-female-6.8_face_2-18">
<stop stop-color="#772f2b" offset="0%">
</stop >
<stop stop-color="#b35849" offset="46%">
</stop >
<stop stop-color="#693027" offset="100%">
</stop >
</linearGradient >
<linearGradient x1="50%" y1="0%" x2="50%" y2="84%" id="id-female-6.8_face_2-19">
<stop stop-color="#0b071e" offset="0%">
</stop >
<stop stop-color="#3c2f7b" offset="100%">
</stop >
</linearGradient >
<linearGradient x1="28%" y1="50%" x2="72%" y2="55%" id="id-female-6.8_face_2-20">
<stop stop-color="#4c1a19" offset="0%">
</stop >
<stop stop-color="#692928" offset="100%">
</stop >
</linearGradient >
<radialGradient cx="50%" cy="28%" r="98%" id="id-female-6.8_face_2-21" fx="50%" fy="28%" gradientTransform="translate(0.5,0.278) scale(0.259,1) rotate(90) scale(1,1) translate(-0.5,-0.278)">
<stop stop-color="#df6c71" offset="0%">
</stop >
<stop stop-color="#9f504c" offset="100%">
</stop >
</radialGradient >
<linearGradient x1="13%" y1="50%" x2="90%" y2="50%" id="id-female-6.8_face_2-22">
<stop stop-color="#682929" offset="0%">
</stop >
<stop stop-color="#b85454" offset="54%">
</stop >
<stop stop-color="#833a38" offset="100%">
</stop >
</linearGradient >
<radialGradient cx="48%" cy="82%" r="121%" id="id-female-6.8_face_2-23" fx="48%" fy="82%" gradientTransform="translate(0.483,0.816) scale(0.316,1) rotate(-95) translate(-0.483,-0.816)">
<stop stop-color="#ba354f" offset="0%">
</stop >
<stop stop-color="#592020" offset="100%">
</stop >
</radialGradient >
<linearGradient x1="32%" y1="49%" x2="112%" y2="53%" id="id-female-6.8_face_2-24">
<stop stop-color="#f6b8cb" offset="0%">
</stop >
<stop stop-color="#78272f" offset="100%">
</stop >
</linearGradient >
<linearGradient x1="50%" y1="0%" x2="50%" y2="100%" id="id-female-6.8_face_2-25">
<stop stop-color="#693c4e" offset="0%">
</stop >
<stop stop-color="#7a5771" offset="100%">
</stop >
</linearGradient >
<linearGradient x1="50%" y1="0%" x2="50%" y2="100%" id="id-female-6.8_face_2-26">
<stop stop-color="#693c4e" offset="0%">
</stop >
<stop stop-color="#7a5771" offset="100%">
</stop >
</linearGradient >
<linearGradient x1="-8%" y1="57%" x2="25%" y2="53%" id="id-female-6.8_face_2-27">
<stop stop-color="#c06e59" offset="0%">
</stop >
<stop stop-color="#4c2426" offset="100%">
</stop >
</linearGradient >
<linearGradient x1="106%" y1="53%" x2="76%" y2="50%" id="id-female-6.8_face_2-28">
<stop stop-color="#c06f5a" offset="0%">
</stop >
<stop stop-color="#401f21" offset="100%">
</stop >
</linearGradient >
<linearGradient x1="81%" y1="45%" x2="17%" y2="63%" id="id-female-6.8_face_2-29">
<stop stop-color="#c86c4d" offset="0%">
</stop >
<stop stop-color="#90452f" offset="100%">
</stop >
</linearGradient >
<linearGradient x1="50%" y1="14%" x2="50%" y2="87%" id="id-female-6.8_face_2-30">
<stop stop-color="#d37e62" offset="0%">
</stop >
<stop stop-color="#be6540" offset="100%">
</stop >
</linearGradient >
<linearGradient x1="50%" y1="29%" x2="50%" y2="100%" id="id-female-6.8_face_2-31">
<stop stop-color="#a4543f" offset="0%">
</stop >
<stop stop-color="#602b28" offset="100%">
</stop >
</linearGradient >
</defs >
<g transform="translate(561,332)" id="id-female-6.8_face_2-32">
<g transform="translate(172,115)" id="id-female-6.8_face_2-33">
<polygon points="14 1 18 0 25 8 27 21 24 41 14 66 0 68" fill="url(#id-female-6.8_face_2-0)" id="id-female-6.8_face_2-34">
</polygon >
<polygon points="12 48 19 50 23 42 26 24 20 12 12 22" fill="#7d3f38" id="id-female-6.8_face_2-35">
</polygon >
<polygon points="11 21 17 10 20 5 24 7 26 24 20 36 18 31 20 16 9 29" fill="#632a21" id="id-female-6.8_face_2-36">
</polygon >
<polygon points="10 28 11 38 8 45 13 49 19 38 13 24" fill="#381717" id="id-female-6.8_face_2-37">
</polygon >
<polygon points="12 18 17 17 18 9" fill="#381717" id="id-female-6.8_face_2-38">
</polygon >
<polygon points="17 51 9 52 7 51 4 62 11 64 13 62" fill="#7c4337" id="id-female-6.8_face_2-39">
</polygon >
</g >
<g transform="translate(0,113)" id="id-female-6.8_face_2-40">
<polygon points="13 0 5 0 0 13 4 36 13 63 25 67" fill="#9b4d38" id="id-female-6.8_face_2-41">
</polygon >
<polygon points="5 9 0 13 4 36 13 63 25 67 13 24" fill="#7d3f38" id="id-female-6.8_face_2-41">
</polygon >
<polygon points="18 46 14 47 7 32 11 26 4 9 6 5 16 20 17 29" fill="#632a21" id="id-female-6.8_face_2-43">
</polygon >
<polygon points="13 62 20 62 18 49 11 53" fill="#a0533d" id="id-female-6.8_face_2-44">
</polygon >
<polygon points="25 68 13 63 20 62 17 46 14 47 13 44 14 29 17 26 14 22 10 19 10 11 17 20" fill="#381717" id="id-female-6.8_face_2-45">
</polygon >
<polygon points="13 9 4 3 5 0 12 0" fill="#c26e60" id="id-female-6.8_face_2-46">
</polygon >
</g >
<path d="M 29 199 C 21 165 17 151 15 130 C 4 44 33 0 103 0 C 180 0 191 63 186 119 C 183 157 173 191 170 202 C 169 206 167 213 164 217 C 155 229 135 242 119 249 C 112 251 89 251 79 249 C 65 240 47 234 36 218 C 33 213 32 209 29 199 Z" fill="url(#id-female-6.8_face_2-1)" id="id-female-6.8_face_2-47">
</path >
<polygon points="122 166 151 182 171 155 113 120 77 124 20 148 51 190 66 182 86 155" fill="url(#id-female-6.8_face_2-2)" id="id-female-6.8_face_2-48">
</polygon >
<polygon points="115 140 139 167 156 148 121 130 119 140" fill="#e49484" id="id-female-6.8_face_2-49">
</polygon >
<polygon points="169 156 153 147 164 132 174 151" fill="#d66650" id="id-female-6.8_face_2-50">
</polygon >
<path d="M 29 199 C 24 176 20 162 18 149 C 18 148 33 157 51 182 C 54 187 57 195 59 208 C 110 231 130 244 119 249 C 112 251 89 251 79 249 C 65 240 47 234 36 218 C 33 213 32 209 29 199 Z" fill="url(#id-female-6.8_face_2-3)" id="id-female-6.8_face_2-47">
</path >
<path d="M 119 249 C 112 251 89 251 79 249 C 77 247 74 245 70 242 L 80 234 L 131 223 C 125 240 121 248 119 249 Z" fill="#79382d" id="id-female-6.8_face_2-47">
</path >
<path d="M 135 207 L 136 195 L 171 151 L 164 131 L 171 125 C 178 143 181 152 181 154 C 177 177 172 195 170 202 C 169 206 167 213 164 217 C 155 229 135 242 119 249 L 135 207 Z" fill="url(#id-female-6.8_face_2-4)" id="id-female-6.8_face_2-47">
</path >
<polygon points="179 117 171 125 177 143" fill="#90596c" id="id-female-6.8_face_2-47">
</polygon >
<polygon points="89 188 91 178 110 176 113 191 99 195" fill="url(#id-female-6.8_face_2-5)" id="id-female-6.8_face_2-55">
</polygon >
<polygon points="87 187 87 181 78 175 104 155 123 177 113 180 106 181 101 185 95 182 91 181 89 187" fill="#56281b" opacity="0.297" id="id-female-6.8_face_2-56">
</polygon >
<path d="M 119 249 C 112 251 89 251 79 249 C 65 240 47 234 36 218 L 79 247 L 119 249 Z" fill="#814c5e" id="id-female-6.8_face_2-47">
</path >
<polygon points="23 119 31 133 45 121 34 111" fill="#562722" id="id-female-6.8_face_2-58">
</polygon >
<polygon points="23 119 23 141 31 133" fill="#663632" id="id-female-6.8_face_2-58">
</polygon >
<path d="M 18 149 C 17 143 15 136 15 130 C 14 120 13 111 13 103 L 21 70 L 32 111 L 23 119 L 23 145 L 35 163 L 18 149 Z" fill="url(#id-female-6.8_face_2-6)" id="id-female-6.8_face_2-47">
</path >
<path d="M 30 111 L 24 83 C 36 49 59 30 92 24 C 126 19 155 33 180 67 L 186 98 L 183 119 L 99 103 L 30 111 Z" fill="url(#id-female-6.8_face_2-7)" id="id-female-6.8_face_2-61">
</path >
<path d="M 180 58 L 186 98 L 183 119 L 171 104 L 164 65 L 154 82 C 147 53 146 38 149 36 C 160 43 170 50 180 58 Z" fill="url(#id-female-6.8_face_2-8)" id="id-female-6.8_face_2-61">
</path >
<polygon points="56 102 62 49 99 32 135 45 149 102 99 109" fill="url(#id-female-6.8_face_2-9)" id="id-female-6.8_face_2-63">
</polygon >
<polygon points="92 39 75 62 99 99 122 62 103 39" fill="url(#id-female-6.8_face_2-10)" id="id-female-6.8_face_2-64">
</polygon >
<path d="M 149 226 L 167 206 L 178 150 L 174 144 L 178 121 L 167 106 L 174 75 L 184 97 L 181 113 L 184 132 C 180 165 172 193 170 202 C 169 206 167 213 164 217 L 149 226 Z" fill="url(#id-female-6.8_face_2-11)" id="id-female-6.8_face_2-47">
</path >
<polygon points="135 207 121 244 84 244 79 234 86 230" fill="url(#id-female-6.8_face_2-12)" id="id-female-6.8_face_2-47">
</polygon >
<polygon points="70 104 102 91 136 107 109 132 81 126" fill="url(#id-female-6.8_face_2-13)" id="id-female-6.8_face_2-67">
</polygon >
<polygon points="39 152 62 170 82 141 75 134" fill="#bf7666" id="id-female-6.8_face_2-68">
</polygon >
<polygon points="76 140 55 151 39 153 25 147 23 146 23 140 26 129 29 127" fill="#8b422f" id="id-female-6.8_face_2-69">
</polygon >
<polygon points="120 140 133 149 153 147 164 132" fill="url(#id-female-6.8_face_2-14)" id="id-female-6.8_face_2-70">
</polygon >
<polygon points="39 135 33 139 43 147 59 148 76 140" fill="url(#id-female-6.8_face_2-15)" id="id-female-6.8_face_2-71">
</polygon >
<polygon points="117 135 127 129 169 128 177 120 169 111 146 101 112 121 115 128" fill="url(#id-female-6.8_face_2-16)" id="id-female-6.8_face_2-72">
</polygon >
<polygon points="124 126 118 119 146 104 167 113 158 123" fill="#914840" id="id-female-6.8_face_2-73">
</polygon >
<polygon points="131 124 144 107 161 107 147 121" fill="#be6d65" id="id-female-6.8_face_2-74">
</polygon >
<path d="M 120 136 L 120 132 C 127 124 134 119 142 118 C 149 118 157 121 165 128 L 120 136 Z" fill="#a04740" id="id-female-6.8_face_2-75">
</path >
<path d="M 130 129 C 130 123 134 120 142 119 C 149 119 154 121 157 128 L 130 129 Z" fill="#c76355" id="id-female-6.8_face_2-75">
</path >
<polygon points="138 126 142 119 144 119 148 126" fill="#feb99c" id="id-female-6.8_face_2-77">
</polygon >
<polygon points="125 138 148 138 158 132 148 126 137 127 124 134" fill="#f4eaff" id="id-female-6.8_face_2-78">
</polygon >
<polygon points="127 137 124 134 120 137" fill="#d8706a" id="id-female-6.8_face_2-79">
</polygon >
<path d="M 132 131 C 132 134 133 136 134 137 C 137 139 142 139 146 137 C 148 136 149 133 149 128 C 145 127 142 127 140 127 C 138 128 135 129 132 131 Z" fill="#2a0610" id="id-female-6.8_face_2-80">
</path >
<path d="M 134 132 C 134 134 135 135 136 136 C 138 137 140 137 144 136 C 146 135 147 133 147 130 C 146 130 145 130 145 130 C 143 129 144 134 140 134 C 135 134 138 130 137 130 C 136 131 135 131 134 132 Z" fill="url(#id-female-6.8_face_2-17)" id="id-female-6.8_face_2-80">
</path >
<polygon points="74 135 82 129 69 114 44 105 34 110 52 129" fill="#8e4539" id="id-female-6.8_face_2-82">
</polygon >
<polygon points="51 121 48 109 62 113 68 119 68 125" fill="#a85e55" id="id-female-6.8_face_2-83">
</polygon >
<path d="M 32 127 C 39 121 46 118 55 120 C 64 121 71 126 76 135 L 32 127 Z" fill="url(#id-female-6.8_face_2-18)" id="id-female-6.8_face_2-84">
</path >
<path d="M 32 127 C 37 122 42 120 48 119 C 44 121 41 124 39 128 L 32 127 Z" fill="#824642" id="id-female-6.8_face_2-84">
</path >
<polygon points="47 128 54 120 61 129" fill="#f68a70" id="id-female-6.8_face_2-86">
</polygon >
<polygon points="49 137 76 137 73 133 62 128 42 128 38 131" fill="#ded5ff" id="id-female-6.8_face_2-87">
</polygon >
<polygon points="72 133 73 135 72 137 77 137 75 135" fill="#8e3d3c" id="id-female-6.8_face_2-88">
</polygon >
<path d="M 49 129 C 51 136 54 139 60 138 C 65 137 68 135 68 130 L 58 128 L 49 129 Z" fill="#24060d" id="id-female-6.8_face_2-89">
</path >
<path d="M 51 131 C 53 136 56 138 60 137 C 64 136 66 134 66 131 L 62 130 C 62 132 61 134 58 134 C 56 134 55 132 55 130 L 51 131 Z" fill="url(#id-female-6.8_face_2-19)" id="id-female-6.8_face_2-89">
</path >
<polygon points="50 139 65 138 78 138 77 137 65 137 49 137" fill="#3e1b19" id="id-female-6.8_face_2-91">
</polygon >
<polygon points="141 131 153 135 158 131 148 126 135 128 126 133" fill="#000000" opacity="0.4" id="id-female-6.8_face_2-92">
</polygon >
<polygon points="45 134 51 132 68 132 73 134 68 129 48 128 40 132" fill="#000000" opacity="0.4" id="id-female-6.8_face_2-93">
</polygon >
<polygon points="77 137 76 137 75 135 67 130 49 129 43 132 49 138 53 139 48 139 41 135 38 135 28 126 41 126 56 125 67 128" fill="#2a0710" id="id-female-6.8_face_2-94">
</polygon >
<path d="M 121 136 C 129 132 135 130 139 128 C 143 127 149 128 155 132 C 154 134 151 136 147 139 C 150 139 154 137 160 133 L 162 133 L 171 126 C 166 126 162 126 160 126 C 153 125 147 123 143 124 C 136 125 128 129 121 136 Z" fill="#340713" id="id-female-6.8_face_2-95">
</path >
<polygon points="135 133 138 133 138 130 136 130 136 132 135 132" fill="#f8e2f8" id="id-female-6.8_face_2-96">
</polygon >
<polygon points="53 131 53 133 55 133 55 132 57 132 56 130" fill="#c7abcd" id="id-female-6.8_face_2-97">
</polygon >
<g transform="translate(59,186)" id="id-female-6.8_face_2-98">
<polygon points="6 20 0 22 19 31" fill="#a4645e" id="id-female-6.8_face_2-99">
</polygon >
<polygon points="10 24 27 44 57 44 71 25" fill="url(#id-female-6.8_face_2-20)" id="id-female-6.8_face_2-100">
</polygon >
<polygon points="7 22 41 28 73 23 76 20 69 17 11 16 5 20" fill="#2a0710" id="id-female-6.8_face_2-101">
</polygon >
<path d="M 7 22 C 19 32 30 38 41 38 C 52 38 63 33 73 23 L 56 22 C 49 22 43 22 39 22 C 35 22 30 21 22 21 L 7 22 Z" fill="url(#id-female-6.8_face_2-21)" id="id-female-6.8_face_2-101">
</path >
<path d="M 7 22 C 19 32 30 38 41 38 C 52 38 63 33 73 23 L 66 23 C 58 31 49 35 41 35 C 33 35 25 30 15 21 L 7 22 Z" fill="url(#id-female-6.8_face_2-22)" opacity="0.651" id="id-female-6.8_face_2-101">
</path >
<path d="M 7 22 C 8 23 9 24 10 25 C 10 22 20 22 39 22 C 59 22 69 24 71 25 C 71 25 72 24 73 23 L 56 22 C 49 22 43 22 39 22 C 35 22 30 21 22 21 L 7 22 Z" fill="#632928" id="id-female-6.8_face_2-101">
</path >
<path d="M 15 21 L 23 20 C 30 19 37 18 41 19 C 46 19 51 20 58 21 L 75 21 C 68 12 60 6 53 2 C 50 2 46 3 41 5 C 36 3 32 1 29 0 C 22 5 15 11 8 18 L 15 21 Z" fill="url(#id-female-6.8_face_2-23)" id="id-female-6.8_face_2-105">
</path >
<path d="M 21 9 C 25 6 28 5 31 5 C 33 5 37 7 43 11 L 53 9 L 60 9 C 63 10 60 8 53 4 C 50 4 47 5 42 7 C 37 4 32 3 29 2 C 22 6 19 9 19 9 L 21 9 Z" fill="url(#id-female-6.8_face_2-24)" opacity="0.485" id="id-female-6.8_face_2-105">
</path >
<path d="M 20 24 L 33 30 C 30 28 31 27 34 27 C 37 27 44 28 54 28 L 59 30 L 58 26 L 61 23 L 56 26 L 30 26 L 20 24 Z" fill="#ee88aa" id="id-female-6.8_face_2-107">
</path >
<path d="M 31 20 C 31 20 31 21 31 21 C 31 21 34 21 40 21 C 40 20 40 20 40 19 C 38 19 35 19 31 20 Z" fill="url(#id-female-6.8_face_2-25)" id="id-female-6.8_face_2-108">
</path >
<path d="M 42 20 C 42 20 42 21 42 21 C 46 22 49 22 51 21 L 51 20 C 46 19 43 19 42 20 Z" fill="url(#id-female-6.8_face_2-26)" id="id-female-6.8_face_2-109">
</path >
</g >
<g transform="translate(22,95)" id="id-female-6.8_face_2-110">
<path d="M 97 23 L 132 12 L 146 18 L 145 11 C 137 4 132 1 129 1 C 120 1 109 4 96 9 C 95 9 95 14 97 23 Z" fill="url(#id-female-6.8_face_2-27)" id="id-female-6.8_face_2-111">
</path >
<polygon points="156 25 147 19 147 13" fill="#3e1f26" id="id-female-6.8_face_2-111">
</polygon >
<path d="M 1 24 L 17 16 L 33 16 L 60 28 L 60 11 C 48 7 35 4 22 4 L 10 11 L 10 16 L 9 12 L 1 24 Z" fill="url(#id-female-6.8_face_2-28)" id="id-female-6.8_face_2-113">
</path >
</g >
<polygon points="99 121 114 127 111 135 121 162 126 169 74 169 81 157 87 130" fill="url(#id-female-6.8_face_2-29)" id="id-female-6.8_face_2-114">
</polygon >
<polygon points="72 118 83 132 96 146 96 132 82 110" fill="#954c3a" id="id-female-6.8_face_2-115">
</polygon >
<polygon points="72 118 83 132 82 110" fill="#9b584a" id="id-female-6.8_face_2-115">
</polygon >
<polygon points="96 132 96 153 84 165 81 161 77 167 78 174 124 174 124 169 121 162 110 161 104 153 104 132" fill="url(#id-female-6.8_face_2-30)" id="id-female-6.8_face_2-117">
</polygon >
<polygon points="78 163 74 169 76 177 87 181 81 176 92 177 95 181 100 182 106 181 106 178 120 175 113 180 118 181 124 179 126 176 126 168 121 160 123 169 123 174 112 169 98 174 89 169 84 173 78 171" fill="url(#id-female-6.8_face_2-31)" id="id-female-6.8_face_2-118">
</polygon >
<polygon points="93 127 100 140 106 127 100 123" fill="#ee9d8c" id="id-female-6.8_face_2-119">
</polygon >
<polygon points="93 167 99 170 105 167 99 161" fill="#db9a77" id="id-female-6.8_face_2-120">
</polygon >
<polygon points="80 170 84 173 89 170 84 166" fill="#d27f62" id="id-female-6.8_face_2-121">
</polygon >
<polygon points="113 169 119 171 120 166 116 164" fill="#d88365" id="id-female-6.8_face_2-122">
</polygon >
<polygon points="115 159 117 152 121 160" fill="#a35547" id="id-female-6.8_face_2-123">
</polygon >
<polygon points="93 178 81 176 81 173 89 173" fill="#2e1111" id="id-female-6.8_face_2-124">
</polygon >
<polygon points="106 178 112 173 118 173 120 175 117 177" fill="#2e1111" id="id-female-6.8_face_2-125">
</polygon >
<polygon points="124 137 145 138 147 139 125 138 120 137" fill="#3f0a19" id="id-female-6.8_face_2-126">
</polygon >
<polygon points="124 140 137 141 147 140" fill="#feaf93" id="id-female-6.8_face_2-127">
</polygon >
<polygon points="49 140 60 141 74 140" fill="#bb735f" id="id-female-6.8_face_2-128">
</polygon >
</g >
<defs >
<linearGradient x1="33%" y1="59%" x2="66%" y2="64%" id="id-female-10_ripped_tights-0">
<stop stop-color="#050e15" offset="0%" stop-opacity="0.81">
</stop >
<stop stop-color="#040d13" offset="11%" stop-opacity="0.379">
</stop >
<stop stop-color="#040d13" offset="19%" stop-opacity="0.151">
</stop >
<stop stop-color="#040d13" offset="28%" stop-opacity="0.329">
</stop >
<stop stop-color="#040b10" offset="41%" stop-opacity="0.741">
</stop >
<stop stop-color="#03090e" offset="59%" stop-opacity="0.74">
</stop >
<stop stop-color="#03080b" offset="70%" stop-opacity="0.221">
</stop >
<stop stop-color="#03070b" offset="79%" stop-opacity="0.133">
</stop >
<stop stop-color="#02070b" offset="89%" stop-opacity="0.332">
</stop >
<stop stop-color="#020609" offset="100%" stop-opacity="0.712">
</stop >
</linearGradient >
</defs >
<g transform="translate(450,1060)" id="id-female-10_ripped_tights-1">
<path d="M 315 72 C 331 189 359 253 401 265 C 402 281 403 298 402 314 C 394 426 347 550 347 571 C 347 626 340 674 347 700 L 347 700 L 245 700 C 231 673 238 628 231 601 C 229 568 229 533 228 499 C 228 446 209 336 219 260 C 246 202 278 140 315 72 Z M 86 54 L 194 258 C 194 258 195 269 196 281 C 188 416 173 470 169 554 C 169 578 171 579 171 604 C 166 624 165 646 167 673 L 167 673 L 162 700 L 53 700 C 56 692 58 681 60 667 C 32 461 4 415 0 271 C 40 271 69 199 86 54 L 86 54 Z M 104 605 L 98 619 L 106 655 L 128 654 L 129 633 L 104 605 Z M 122 575 L 115 585 L 110 601 L 127 616 L 122 575 Z M 117 495 L 103 497 L 103 514 L 109 512 L 104 520 L 106 536 L 116 536 L 117 512 L 117 495 Z M 115 420 L 97 423 L 100 480 L 117 471 L 117 446 L 101 445 L 116 432 L 115 420 Z M 305 370 L 305 380 L 332 392 L 307 396 L 311 435 L 347 444 L 347 428 L 329 425 L 347 420 L 347 404 L 347 377 L 305 370 Z M 109 383 L 99 383 L 98 407 L 110 407 L 109 383 Z M 110 346 L 102 350 L 98 375 L 110 369 L 110 346 Z" fill="url(#id-female-10_ripped_tights-0)" id="id-female-10_ripped_tights-2">
</path >
<path d="M 77 1 C 77 1 95 31 130 90 L 130 90 L 280 90 C 280 90 297 62 332 6 C 332 6 332 6 332 6 L 332 6 C 332 7 336 13 343 24 C 343 24 344 26 345 30 L 345 30 L 294 118 C 294 118 318 111 365 95 C 365 95 366 99 367 107 C 367 107 367 107 367 107 L 367 107 C 365 108 361 109 355 111 L 354 112 C 341 116 318 124 286 134 C 286 134 268 169 232 240 C 232 240 279 207 373 141 C 373 141 374 144 375 149 C 375 149 323 187 220 264 C 215 265 213 266 204 267 C 199 266 196 265 193 264 C 189 260 187 256 185 251 L 185 251 L 27 161 C 27 161 28 159 29 153 C 29 153 79 181 178 238 C 178 238 159 202 122 129 C 122 129 94 121 40 103 L 40 103 L 40 103 C 40 103 41 98 43 90 C 43 90 67 98 114 114 L 114 114 L 66 28 C 66 28 70 19 77 1 Z M 276 100 C 276 100 276 100 276 100 L 276 100 C 273 100 226 100 136 100 C 136 100 140 109 149 126 C 183 141 222 139 260 129 C 260 129 265 119 276 100 Z" fill="#131415" id="id-female-10_ripped_tights-2">
</path >
<g transform="translate(42,179)" fill="#bfbfbf" fill-opacity="0.193" id="id-female-10_ripped_tights-4">
<path d="M 239 132 C 231 134 226 136 226 136 C 224 107 223 92 223 92 L 230 57 C 236 107 239 132 239 132 Z" id="id-female-10_ripped_tights-5">
</path >
<path d="M 232 190 C 242 191 254 193 254 193 C 254 202 254 211 254 218 C 205 401 221 458 221 458 C 210 418 205 379 205 342 C 209 321 230 273 232 190 Z" id="id-female-10_ripped_tights-6">
</path >
<path d="M 44 266 C 29 264 16 262 1 259 C 23 372 39 474 39 474 L 48 413 C 39 391 37 341 44 266 Z" id="id-female-10_ripped_tights-7">
</path >
<path d="M 30 120 C 20 120 3 107 3 107 C 5 84 6 72 6 72 L 16 55 C 18 85 23 107 30 120 Z" id="id-female-10_ripped_tights-8">
</path >
<path d="M 74 118 C 59 100 57 65 57 65 L 61 1 C 100 41 104 80 74 118 Z" id="id-female-10_ripped_tights-9">
</path >
</g >
</g >
<defs >
<radialGradient cx="38%" cy="50%" r="68%" id="id-female-11_strappy_bra-0" fx="38%" fy="50%" gradientTransform="translate(0.378,0.5) scale(1,0.734) rotate(90) scale(1,0.864) translate(-0.378,-0.5)">
<stop stop-color="#1f555a" offset="0%">
</stop >
<stop stop-color="#0a0b0c" offset="100%">
</stop >
<stop stop-color="#0a0b0c" offset="100%">
</stop >
</radialGradient >
<radialGradient cx="64%" cy="44%" r="74%" id="id-female-11_strappy_bra-1" fx="64%" fy="44%" gradientTransform="translate(0.64,0.442) scale(1,0.758) rotate(90) scale(1,0.864) translate(-0.64,-0.442)">
<stop stop-color="#225a60" offset="0%">
</stop >
<stop stop-color="#0a0b0c" offset="100%">
</stop >
</radialGradient >
<linearGradient x1="45%" y1="67%" x2="47%" y2="95%" id="id-female-11_strappy_bra-2">
<stop stop-color="#1d2835" offset="0%" stop-opacity="0">
</stop >
<stop stop-color="#35342f" offset="87%">
</stop >
<stop stop-color="#3e3e36" offset="100%">
</stop >
</linearGradient >
<linearGradient x1="45%" y1="67%" x2="43%" y2="96%" id="id-female-11_strappy_bra-3">
<stop stop-color="#1d2835" offset="0%" stop-opacity="0">
</stop >
<stop stop-color="#35342f" offset="81%">
</stop >
<stop stop-color="#49493f" offset="100%">
</stop >
</linearGradient >
</defs >
<g transform="translate(500,604)" id="id-female-11_strappy_bra-4">
<path d="M 24 297 L 24 305 C 38 314 54 316 71 311 C 88 306 104 298 120 285 L 181 287 C 201 299 220 305 238 307 C 256 309 274 306 292 298 L 294 280 L 302 212 L 372 238 L 373 223 L 298 192 L 290 153 L 271 54 L 257 45 L 284 187 L 220 232 L 169 259 L 133 258 L 70 229 L 77 161 L 257 45 L 246 37 L 85 143 L 5 231 L 19 274 L 24 297 Z" fill="#151716" id="id-female-11_strappy_bra-5">
</path >
<path d="M 179 279 C 168 279 162 279 162 279 C 154 266 150 259 150 259 L 163 259 C 169 264 174 271 179 279 Z" fill="#1c1d1e" id="id-female-11_strappy_bra-6">
</path >
<path d="M 134 259 C 133 258 132 257 132 257 C 122 272 108 281 95 291 C 114 282 128 271 134 259 Z" fill="#1d1e1f" id="id-female-11_strappy_bra-7">
</path >
<path d="M 134 259 C 116 275 104 292 69 303 C 52 304 37 302 24 297 C 15 291 -7 267 3 223 C 10 194 59 153 150 100 C 103 141 80 169 83 183 C 91 210 108 235 134 259 Z" fill="url(#id-female-11_strappy_bra-0)" id="id-female-11_strappy_bra-8">
</path >
<path d="M 168 259 C 175 271 179 277 179 277 C 207 301 264 309 293 286 L 294 281 L 295 285 C 312 269 314 243 303 206 L 281 113 C 278 134 215 205 211 215 C 190 240 176 254 168 259 Z" fill="url(#id-female-11_strappy_bra-1)" id="id-female-11_strappy_bra-9">
</path >
<path d="M 134 259 C 116 275 104 292 69 303 C 52 304 37 302 24 297 C 12 288 4 278 2 256 C -1 233 1 227 12 200 C 69 155 97 132 97 132 C 97 147 79 161 83 183 C 91 210 108 235 134 259 Z" fill="url(#id-female-11_strappy_bra-2)" id="id-female-11_strappy_bra-10">
</path >
<path d="M 168 259 C 175 271 179 277 179 277 C 207 301 264 309 293 286 L 295 285 C 312 269 314 243 303 206 L 281 118 C 278 139 215 205 211 215 C 190 240 176 254 168 259 Z" fill="url(#id-female-11_strappy_bra-3)" id="id-female-11_strappy_bra-11">
</path >
<polygon points="249 39 98 16 109 0 227 23" fill="#151716" id="id-female-11_strappy_bra-12">
</polygon >
</g >
<defs >
</defs >
<g transform="translate(319,534)" id="id-female-12_green_jumpsuit_front-0">
<path d="M 561 816 L 542 826 L 543 829 L 509 846 L 508 844 L 482 854 L 450 866 L 450 866 L 438 870 L 417 876 L 391 884 L 341 893 L 339 860 L 344 856 L 345 838 L 336 830 L 346 808 L 349 790 L 325 791 L 333 809 L 325 855 L 329 858 L 329 893 C 329 893 304 888 304 888 L 221 857 L 221 857 L 210 852 L 159 832 L 112 813 L 124 766 L 125 766 L 132 765 L 144 718 L 161 635 L 163 623 L 163 620 L 163 618 L 161 598 L 174 587 L 197 544 L 195 517 L 210 512 L 213 477 L 208 473 L 192 460 L 193 452 L 181 476 L 187 522 L 183 542 L 128 656 L 127 658 L 137 682 L 115 706 L 36 553 L 74 507 L 77 504 L 72 461 L 72 457 L 108 225 L 128 159 L 130 153 L 206 120 L 184 110 L 197 95 L 213 78 L 216 32 L 216 30 L 219 2 L 226 39 L 318 82 L 323 143 L 348 142 L 350 85 L 441 45 L 455 4 L 482 46 L 483 49 L 458 74 L 475 100 L 477 103 L 476 104 L 460 118 L 509 135 L 544 153 L 549 163 L 552 177 L 552 179 L 589 353 L 619 452 L 624 515 L 540 667 L 525 630 L 511 597 L 483 538 L 488 512 L 488 461 L 480 449 L 479 453 L 477 464 L 465 473 L 463 475 L 465 479 L 463 512 L 463 517 L 466 519 L 475 527 L 476 528 L 481 552 L 512 628 L 523 636 L 515 655 L 522 670 L 520 688 L 541 766 L 549 768 L 561 816 Z" fill="#98c43d" id="id-female-12_green_jumpsuit_front-1">
</path >
<polygon points="143 164 146 163 166 172 172 198 152 204" fill="#91c83e" id="id-female-12_green_jumpsuit_front-1">
</polygon >
<polygon points="165 171 153 209 106 199 118 156" fill="#151515" id="id-female-12_green_jumpsuit_front-1">
</polygon >
<path d="M 542 827 L 543 829 L 509 846 L 508 844 L 482 854 L 467 804 L 466 803 L 489 784 L 487 783 L 467 694 L 464 690 L 446 702 L 438 710 L 406 812 L 411 811 L 427 815 L 405 836 L 417 876 L 391 884 L 341 893 L 339 860 L 344 856 L 344 855 L 345 838 L 336 830 L 346 808 L 349 790 L 339 790 L 334 790 L 325 791 L 333 809 L 325 855 L 329 858 L 329 893 C 329 893 304 888 304 888 L 221 857 L 221 857 L 235 816 L 184 757 L 264 786 L 194 703 L 289 778 L 316 775 L 318 774 L 304 763 L 220 698 L 270 712 L 324 714 L 320 633 L 335 653 L 364 704 L 415 677 L 363 678 L 448 651 L 411 525 L 451 534 L 470 528 L 475 527 L 476 528 L 481 552 L 508 618 L 509 620 L 512 628 L 523 636 L 515 655 L 522 670 L 520 688 L 541 766 L 549 768 L 561 816 L 542 826 L 542 827 Z" fill="#5d873c" id="id-female-12_green_jumpsuit_front-1">
</path >
<polygon points="370 816 380 843 344 855 345 838 336 830 346 808 349 790 339 790 334 790 330 783 349 776 384 755 358 782 358 825" fill="#2a582b" id="id-female-12_green_jumpsuit_front-1">
</polygon >
<path d="M 333 783 L 339 790 L 334 790 L 325 791 L 333 809 L 325 855 L 329 858 L 329 863 L 299 849 L 309 802 L 288 789 L 324 782 L 316 775 L 304 763 L 279 740 L 349 776 C 349 776 344 780 341 782 C 338 784 333 783 333 783 Z" fill="#32602e" id="id-female-12_green_jumpsuit_front-1">
</path >
<polygon points="542 826 542 827 541 827 530 781 530 781 517 784 516 784 492 678 493 674 496 665 509 620 512 628 523 636 522 639 515 655 522 670 520 688 541 766 549 768 550 771 561 816" fill="#029e6a" id="id-female-12_green_jumpsuit_front-1">
</polygon >
<path d="M 550 771 L 530 781 L 517 788 L 515 785 L 517 784 L 537 767 L 518 684 L 518 667 L 515 662 L 511 659 C 511 659 502 667 493 674 C 483 682 472 690 472 689 L 496 665 L 522 638 L 522 639 L 515 655 L 522 670 L 520 688 L 541 766 L 549 768 L 550 771 Z" fill="#3d6731" id="id-female-12_green_jumpsuit_front-1">
</path >
<polygon points="508 844 496 795 526 779 542 830 509 846" fill="#151515" id="id-female-12_green_jumpsuit_front-1">
</polygon >
<polygon points="377 836 407 831 404 833 380 842" fill="#be1e2d" opacity="0.1" id="id-female-12_green_jumpsuit_front-1">
</polygon >
<polygon points="404 833 407 834 487 800 426 815" fill="#2c6130" id="id-female-12_green_jumpsuit_front-1">
</polygon >
<polygon points="439 747 419 800 438 806" fill="#aec537" id="id-female-12_green_jumpsuit_front-1">
</polygon >
<path d="M 446 835 C 446 840 448 856 450 866 L 438 870 C 437 864 433 830 428 825 L 452 815 C 452 815 445 827 446 835 Z" fill="#aec537" id="id-female-12_green_jumpsuit_front-1">
</path >
<path d="M 233 819 C 233 819 224 819 223 820 C 221 822 211 843 210 853 L 159 832 L 174 794 L 176 794 L 233 819 Z" fill="#b7d333" id="id-female-12_green_jumpsuit_front-1">
</path >
<polygon points="191 803 191 799 231 809 283 840" fill="#296a35" id="id-female-12_green_jumpsuit_front-1">
</polygon >
<path d="M 112 773 C 112 772 113 772 113 771 C 113 772 112 773 112 773 Z" fill="#be1e2d" opacity="0.1" id="id-female-12_green_jumpsuit_front-1">
</path >
<polygon points="217 516 197 560 163 645 161 635 163 623 163 620 163 618 161 598 174 587 197 544 195 517 200 515 210 512 210 506 215 507" fill="#689940" id="id-female-12_green_jumpsuit_front-1">
</polygon >
<polygon points="200 515 197 559 196 552 163 620 163 618 161 598 174 587 197 544 195 517" fill="#437a3a" id="id-female-12_green_jumpsuit_front-1">
</polygon >
<path d="M 166 613 L 165 642 C 165 642 155 684 151 708 C 147 731 149 783 149 783 L 125 766 L 132 765 L 144 718 L 163 623 L 163 618 L 166 613 Z" fill="#59823a" id="id-female-12_green_jumpsuit_front-1">
</path >
<polygon points="123 818 138 772 172 792 158 833" fill="#151515" id="id-female-12_green_jumpsuit_front-1">
</polygon >
<polygon points="199 780 154 748 181 758" fill="#bad532" id="id-female-12_green_jumpsuit_front-1">
</polygon >
<polygon points="237 765 188 741 176 693" fill="#bad532" id="id-female-12_green_jumpsuit_front-1">
</polygon >
<polygon points="291 708 224 693 214 646" fill="#bad532" id="id-female-12_green_jumpsuit_front-1">
</polygon >
<polygon points="253 681 292 579 228 529 213 555 215 557 218 652" fill="#c1d83b" id="id-female-12_green_jumpsuit_front-1">
</polygon >
<path d="M 351 610 C 351 610 363 612 363 612 L 365 645 L 354 650 L 351 610 Z" fill="#be1e2d" opacity="0.1" id="id-female-12_green_jumpsuit_front-1">
</path >
<polygon points="387 524 397 524 425 646" fill="#689e41" id="id-female-12_green_jumpsuit_front-1">
</polygon >
<path d="M 303 523 C 303 524 302 524 301 525 C 294 529 273 541 273 541 L 252 532 L 253 540 L 296 571 L 302 641 L 307 653 C 307 653 325 642 325 640 C 325 638 310 524 310 524 C 309 524 303 523 303 523 Z" fill="#72a842" id="id-female-12_green_jumpsuit_front-1">
</path >
<polygon points="301 526 304 557 315 555 310 524" fill="#be1e2d" opacity="0.1" id="id-female-12_green_jumpsuit_front-1">
</polygon >
<polygon points="354 653 308 652 306 526 351 529 351 545 353 616" fill="#9a3420" id="id-female-12_green_jumpsuit_front-1">
</polygon >
<polygon points="312 634 328 646 312 647" fill="#be1e2d" opacity="0.1" id="id-female-12_green_jumpsuit_front-1">
</polygon >
<polygon points="353 616 312 588 351 545" fill="#af4525" id="id-female-12_green_jumpsuit_front-1">
</polygon >
<polygon points="346 590 345 568 324 586 318 568 345 564 345 553 313 554 313 590" fill="#fbf6f4" id="id-female-12_green_jumpsuit_front-1">
</polygon >
<path d="M 218 517 L 208 517 L 207 513 L 210 512 L 210 506 L 210 506 L 215 507 C 215 507 217 515 218 517 Z" fill="#be1e2d" opacity="0.1" id="id-female-12_green_jumpsuit_front-1">
</path >
<polygon points="371 477 338 481 300 478 300 473 371 472" fill="#be1e2d" opacity="0.1" id="id-female-12_green_jumpsuit_front-1">
</polygon >
<polygon points="624 515 612 537 540 667 511 597 483 538 488 513 488 507 559 514 576 393 547 241 509 430 488 500 488 461 480 449 478 458 477 464 465 473 463 475 465 479 465 480 463 512 397 506 212 489 213 481 213 477 208 473 192 460 193 452 164 430 143 358 168 369 169 318 158 270 173 207 185 252 200 218 180 323 214 307 253 360 278 360 285 387 305 363 313 319 355 332 359 372 349 397 474 362 436 342 500 347 474 220 491 243 499 208 510 242 518 267 519 206 517 197 552 179 589 353 612 429 616 441 619 452 621 483" fill="#69a142" id="id-female-12_green_jumpsuit_front-1">
</polygon >
<path d="M 478 458 L 477 464 L 465 473 L 463 475 L 465 478 L 465 480 C 463 481 461 482 461 482 C 461 482 410 476 410 476 L 478 458 Z" fill="#be1e2d" opacity="0.1" id="id-female-12_green_jumpsuit_front-1">
</path >
<path d="M 213 481 L 213 477 L 208 473 L 192 460 L 192 459 L 236 454 L 293 480 C 293 480 241 481 213 481 Z" fill="#47853e" id="id-female-12_green_jumpsuit_front-1">
</path >
<polygon points="466 519 408 524 383 527 367 528 300 523 257 520 217 517 208 517 207 513 210 512 210 506 210 506 213 477 208 473 253 476 298 479 336 481 373 477 374 477 413 475 414 475 424 475 465 473 463 475 465 479 463 517" fill="#151515" id="id-female-12_green_jumpsuit_front-1">
</polygon >
<polygon points="374 477 413 475 408 524 407 525 383 527 381 527" fill="#263854" id="id-female-12_green_jumpsuit_front-1">
</polygon >
<polygon points="424 475 420 498 414 475" fill="#263854" id="id-female-12_green_jumpsuit_front-1">
</polygon >
<polygon points="300 523 257 520 253 476 298 479" fill="#263854" id="id-female-12_green_jumpsuit_front-1">
</polygon >
<polygon points="372 533 299 528 299 523 300 478 300 473 371 472 371 477 372 531" fill="#8392b1" id="id-female-12_green_jumpsuit_front-1">
</polygon >
<polygon points="372 533 299 528 299 523 372 531" fill="#5c739e" id="id-female-12_green_jumpsuit_front-1">
</polygon >
<polygon points="364 487 363 511 360 511 310 510 305 510 305 488" fill="#be1c7f" id="id-female-12_green_jumpsuit_front-1">
</polygon >
<polygon points="360 491 360 511 310 510 310 491" fill="#ed1d8f" id="id-female-12_green_jumpsuit_front-1">
</polygon >
<polygon points="333 476 366 479 369 473" fill="#cadaf0" id="id-female-12_green_jumpsuit_front-1">
</polygon >
<polygon points="474 449 456 411 454 410 407 475 406 475 421 423 380 453 372 421 369 408 384 410 417 413 471 383 471 384 456 406 471 389" fill="#0cb188" id="id-female-12_green_jumpsuit_front-1">
</polygon >
<polygon points="384 410 372 421 369 408" fill="#be1e2d" opacity="0.1" id="id-female-12_green_jumpsuit_front-1">
</polygon >
<path d="M 624 515 L 612 537 C 603 534 595 531 595 531 L 616 441 L 619 452 L 624 515 Z" fill="#be1e2d" opacity="0.1" id="id-female-12_green_jumpsuit_front-1">
</path >
<polygon points="649 714 670 729 658 748 633 747 635 794 594 791 595 789 595 789 568 786 564 767 564 767 557 746 538 734 540 728 547 705 547 705 548 701 531 683 531 681 537 659 538 658 565 610 565 610 551 580 552 574 574 547 579 555 599 524 602 530 604 525 619 487 630 549 630 550 650 602 673 688 662 707" fill="#161715" id="id-female-12_green_jumpsuit_front-1">
</polygon >
<path d="M 609 746 L 606 755 L 594 791 L 568 786 L 564 767 L 564 767 C 567 758 571 747 571 747 L 609 746 Z" fill="#436c33" id="id-female-12_green_jumpsuit_front-1">
</path >
<polygon points="606 755 595 789 593 788 595 752" fill="#5c823a" id="id-female-12_green_jumpsuit_front-1">
</polygon >
<polygon points="590 728 632 714 659 732" fill="#2e384a" id="id-female-12_green_jumpsuit_front-1">
</polygon >
<path d="M 600 694 L 598 704 L 558 729 C 558 729 547 728 540 728 L 547 705 L 547 705 L 600 694 Z" fill="#242b3a" id="id-female-12_green_jumpsuit_front-1">
</path >
<path d="M 619 660 C 619 660 620 665 599 678 C 563 696 539 659 539 659 L 538 658 L 565 610 C 565 612 566 614 565 616 C 564 643 594 654 594 654 L 604 525 L 619 487 L 630 549 L 619 660 Z" fill="#242b3a" id="id-female-12_green_jumpsuit_front-1">
</path >
<path d="M 591 708 C 591 708 612 703 616 690 C 620 677 624 596 624 596 L 617 597 C 617 597 619 598 619 600 C 619 601 614 631 614 633 C 614 636 613 652 610 655 C 607 658 586 675 561 671 C 561 671 578 676 585 676 C 592 677 601 680 599 690 C 597 701 594 704 591 708 Z" fill="#303a4d" id="id-female-12_green_jumpsuit_front-1">
</path >
<polygon points="621 483 610 494 599 456 612 429 616 441 619 452" fill="#17191a" id="id-female-12_green_jumpsuit_front-1">
</polygon >
<polygon points="600 502 583 539 567 515 586 478" fill="#17191a" id="id-female-12_green_jumpsuit_front-1">
</polygon >
<polygon points="558 554 538 592 527 566 547 536" fill="#17191a" id="id-female-12_green_jumpsuit_front-1">
</polygon >
<polygon points="524 630 531 616 538 639 534 652" fill="#17191a" id="id-female-12_green_jumpsuit_front-1">
</polygon >
<polygon points="543 523 557 496 549 471 533 506" fill="#17191a" id="id-female-12_green_jumpsuit_front-1">
</polygon >
<polygon points="565 435 573 417 565 397 558 417" fill="#17191a" id="id-female-12_green_jumpsuit_front-1">
</polygon >
<path d="M 596 415 C 596 414 604 400 604 400 L 598 380 L 591 394 L 596 415 Z" fill="#17191a" id="id-female-12_green_jumpsuit_front-1">
</path >
<polygon points="578 280 558 284 554 252 569 249" fill="#a33822" id="id-female-12_green_jumpsuit_front-1">
</polygon >
<path d="M 56 551 L 68 542 L 76 546 L 87 613 C 87 613 59 624 58 618 C 58 613 56 551 56 551 Z" fill="#81af40" id="id-female-12_green_jumpsuit_front-1">
</path >
<polygon points="121 700 116 705 120 734 120 740 86 748 83 746 82 757 80 776 51 784 50 785 18 792 13 795 14 740 0 727 16 713 0 685 5 682 20 672 31 665 27 602 29 555 59 525 57 549 66 536 76 562 69 575 73 580 66 592 73 606 79 593 88 610 89 610 97 596 111 623 108 636 132 674 138 683" fill="#151515" id="id-female-12_green_jumpsuit_front-1">
</polygon >
<path d="M 52 709 C 52 708 28 687 26 683 L 5 682 L 20 672 C 26 670 42 665 43 664 C 44 662 55 640 55 638 C 55 636 54 617 52 610 C 50 603 50 570 55 559 L 61 572 C 61 572 69 624 76 638 L 88 610 L 89 610 L 97 596 L 111 623 L 108 636 L 132 674 L 50 681 C 48 681 47 683 47 685 C 46 688 47 703 52 709 Z" fill="#232938" id="id-female-12_green_jumpsuit_front-1">
</path >
<path d="M 116 705 L 120 734 C 114 733 97 729 87 724 C 87 724 81 719 68 719 C 54 718 48 713 48 713 L 121 700 L 116 705 Z" fill="#232938" id="id-female-12_green_jumpsuit_front-1">
</path >
<polygon points="82 757 80 776 51 784 50 785 46 769 38 740 47 740 70 739 80 764" fill="#5e833a" id="id-female-12_green_jumpsuit_front-1">
</polygon >
<polygon points="47 740 46 769 38 740" fill="#779c3e" id="id-female-12_green_jumpsuit_front-1">
</polygon >
<polygon points="94 676 55 680 74 645 63 612" fill="#2f394c" id="id-female-12_green_jumpsuit_front-1">
</polygon >
<polygon points="187 522 183 542 137 638 128 656 123 637 101 553 142 563 172 487 161 427 181 490" fill="#8abb3f" id="id-female-12_green_jumpsuit_front-1">
</polygon >
<polygon points="108 572 124 634 127 599" fill="#68973f" id="id-female-12_green_jumpsuit_front-1">
</polygon >
<polygon points="122 595 134 575 148 603 135 623" fill="#222836" id="id-female-12_green_jumpsuit_front-1">
</polygon >
<polygon points="137 638 128 656 123 637 133 625" fill="#222836" id="id-female-12_green_jumpsuit_front-1">
</polygon >
<polygon points="117 617 106 572 106 598" fill="#222836" id="id-female-12_green_jumpsuit_front-1">
</polygon >
<polygon points="96 573 107 547 92 521 81 544" fill="#222836" id="id-female-12_green_jumpsuit_front-1">
</polygon >
<polygon points="74 507 77 504 72 461 124 530" fill="#87b940" id="id-female-12_green_jumpsuit_front-1">
</polygon >
<polygon points="72 485 81 496 82 515 66 516 76 501" fill="#1a1c16" id="id-female-12_green_jumpsuit_front-1">
</polygon >
<polygon points="122 520 104 479 110 460 129 501" fill="#222836" id="id-female-12_green_jumpsuit_front-1">
</polygon >
<path d="M 113 512 L 118 342 C 118 342 112 437 100 458 C 100 458 87 461 75 459 L 113 512 Z" fill="#bad532" id="id-female-12_green_jumpsuit_front-1">
</path >
<polygon points="74 433 82 449 75 465 70 457" fill="#262d34" id="id-female-12_green_jumpsuit_front-1">
</polygon >
<polygon points="101 246 97 276 128 279 133 251" fill="#a33822" id="id-female-12_green_jumpsuit_front-1">
</polygon >
<polygon points="252 462 283 455 295 479 290 479" fill="#be1e2d" opacity="0.1" id="id-female-12_green_jumpsuit_front-1">
</polygon >
<polygon points="247 459 251 462 277 457 273 455 301 442 283 426" fill="#a2cd3a" id="id-female-12_green_jumpsuit_front-1">
</polygon >
<polygon points="253 439 277 412 210 383 209 384" fill="#20ae6c" id="id-female-12_green_jumpsuit_front-1">
</polygon >
<path d="M 349 471 C 349 471 351 470 351 469 C 351 468 349 425 348 427 C 348 428 348 469 349 471 Z" fill="#be1e2d" opacity="0.1" id="id-female-12_green_jumpsuit_front-1">
</path >
<polygon points="349 455 360 456 361 472 349 472" fill="#141412" id="id-female-12_green_jumpsuit_front-1">
</polygon >
<polygon points="359 372 377 324 387 368 415 332 476 345 436 342 471 361 416 378 366 381 360 385 388 385 350 396" fill="#87bc36" id="id-female-12_green_jumpsuit_front-1">
</polygon >
<path d="M 377 324 L 376 227 L 355 301 L 356 345 C 356 345 359 372 359 372 C 359 371 377 324 377 324 Z" fill="#a9d748" id="id-female-12_green_jumpsuit_front-1">
</path >
<polygon points="198 439 192 455 193 452 181 476 182 484 166 438 164 430 164 430 180 394 177 382 181 357 200 381 196 436" fill="#387b3b" id="id-female-12_green_jumpsuit_front-1">
</polygon >
<polygon points="285 387 276 388 205 361 227 343 179 352 177 336 180 323 214 307 253 360 278 360" fill="#88be35" id="id-female-12_green_jumpsuit_front-1">
</polygon >
<path d="M 530 602 L 525 630 L 511 597 L 483 538 L 488 513 L 480 449 L 479 453 L 474 385 L 493 355 L 495 355 L 481 450 C 481 450 500 447 499 447 C 499 446 513 408 514 407 L 493 505 L 530 602 Z" fill="#3c7f3d" id="id-female-12_green_jumpsuit_front-1">
</path >
<polygon points="556 589 565 610 538 659 534 650 537 639 532 622" fill="#4a7938" id="id-female-12_green_jumpsuit_front-1">
</polygon >
<polygon points="354 304 364 306 366 340 355 344" fill="#181a12" id="id-female-12_green_jumpsuit_front-1">
</polygon >
<polygon points="432 322 423 185 429 177 476 225 485 274" fill="#c9db32" id="id-female-12_green_jumpsuit_front-1">
</polygon >
<polygon points="485 268 487 275 360 272 361 261" fill="#151515" id="id-female-12_green_jumpsuit_front-1">
</polygon >
<polygon points="415 276 448 279 432 295" fill="#151515" id="id-female-12_green_jumpsuit_front-1">
</polygon >
<polygon points="444 262 457 246 467 265" fill="#c14f2a" id="id-female-12_green_jumpsuit_front-1">
</polygon >
<polygon points="448 251 443 256 395 257 395 251" fill="#faf4f1" id="id-female-12_green_jumpsuit_front-1">
</polygon >
<path d="M 360 385 C 360 385 432 386 433 385 C 434 384 479 375 479 375 L 496 353 L 416 378 L 366 381 L 360 385 Z" fill="#1b1e1a" id="id-female-12_green_jumpsuit_front-1">
</path >
<path d="M 289 391 L 259 390 L 199 381 L 180 355 C 180 355 286 388 289 391 Z" fill="#17191a" id="id-female-12_green_jumpsuit_front-1">
</path >
<path d="M 176 317 C 176 316 189 274 189 274 L 179 231 L 176 317 Z" fill="#29753a" id="id-female-12_green_jumpsuit_front-1">
</path >
<polygon points="313 319 251 170 314 246 313 309" fill="#83b92c" id="id-female-12_green_jumpsuit_front-1">
</polygon >
<polygon points="215 132 235 140 245 181 203 306 200 209 184 220 182 190" fill="#cadb2f" id="id-female-12_green_jumpsuit_front-1">
</polygon >
<path d="M 317 143 C 317 143 317 301 313 309 L 311 241 L 310 148 L 216 133 L 226 160 L 196 136 L 149 152 L 155 162 L 128 159 L 130 153 L 206 120 L 184 110 L 197 95 L 246 76 L 311 119 L 289 119 L 310 143 L 317 143 Z" fill="#70af43" id="id-female-12_green_jumpsuit_front-1">
</path >
<polygon points="310 196 295 177 310 157" fill="#9ccb3b" id="id-female-12_green_jumpsuit_front-1">
</polygon >
<polygon points="508 618 495 628 470 529 475 527 476 528 481 552" fill="#00a57c" id="id-female-12_green_jumpsuit_front-1">
</polygon >
<polygon points="503 305 506 263 491 243 499 208 510 242 512 301" fill="#82be41" id="id-female-12_green_jumpsuit_front-1">
</polygon >
<polygon points="189 266 190 273 309 269 309 262" fill="#151515" id="id-female-12_green_jumpsuit_front-1">
</polygon >
<polygon points="230 276 253 296 273 274" fill="#151515" id="id-female-12_green_jumpsuit_front-1">
</polygon >
<polygon points="552 177 509 181 485 213 419 153 392 199 356 183 354 145 432 108 476 104 471 108 460 118 463 119 509 135 544 153 549 163" fill="#6fad43" id="id-female-12_green_jumpsuit_front-1">
</polygon >
<polygon points="510 177 522 218 578 201 565 159 562 157" fill="#161616" id="id-female-12_green_jumpsuit_front-1">
</polygon >
<path d="M 455 4 L 444 46 L 410 61 L 354 85 L 354 95 L 354 118 L 353 143 L 359 146 L 361 188 C 361 188 350 191 350 191 L 349 146 L 316 146 L 316 116 L 316 96 L 316 83 L 271 63 L 222 41 L 221 34 L 221 34 L 220 18 L 219 1 C 223 0 225 1 225 1 C 225 1 226 7 226 13 C 226 19 227 26 227 30 C 227 30 227 30 227 30 C 227 33 227 35 227 35 L 276 58 L 288 64 L 318 79 L 324 79 L 324 97 L 324 116 L 324 140 L 344 140 L 345 118 L 345 95 L 345 79 L 351 78 L 393 60 L 402 57 L 440 40 L 448 5 L 455 3 L 455 4 Z" fill="#151515" id="id-female-12_green_jumpsuit_front-1">
</path >
<polygon points="348 397 349 472 312 473 308 473 306 473 303 473 304 403 304 391 312 344 313 342 313 289 312 144 349 145 354 258 357 347 357 348" fill="#a33822" id="id-female-12_green_jumpsuit_front-1">
</polygon >
<polygon points="357 347 357 348 312 344 313 342 313 289 354 258" fill="#c14f2d" id="id-female-12_green_jumpsuit_front-1">
</polygon >
<polygon points="306 473 303 473 304 403 304 397" fill="#cc5927" id="id-female-12_green_jumpsuit_front-1">
</polygon >
<polygon points="346 432 312 473 308 473 304 413" fill="#b04325" id="id-female-12_green_jumpsuit_front-1">
</polygon >
<polygon points="330 434 330 448 340 448 341 435" fill="#fbf7f5" id="id-female-12_green_jumpsuit_front-1">
</polygon >
<polygon points="320 315 323 317 323 347 319 345" fill="#fdf8f7" id="id-female-12_green_jumpsuit_front-1">
</polygon >
<path d="M 460 118 L 463 119 L 429 134 L 395 129 L 433 110 C 433 110 460 109 471 108 L 460 118 Z" fill="#317f3e" id="id-female-12_green_jumpsuit_front-1">
</path >
<path d="M 458 75 L 475 100 C 466 101 427 106 427 106 L 353 142 L 395 98 L 385 92 L 482 46 L 483 49 L 458 75 Z" fill="#6fad43" id="id-female-12_green_jumpsuit_front-1">
</path >
<path d="M 354 95 L 354 118 L 345 118 L 345 95 C 347 95 352 95 354 95 Z" fill="#2e384a" id="id-female-12_green_jumpsuit_front-1">
</path >
<polygon points="358 97 357 112 368 112 366 100" fill="#151515" id="id-female-12_green_jumpsuit_front-1">
</polygon >
<polygon points="455 4 444 46 410 61 402 57 440 40 448 5 455 3" fill="#253752" id="id-female-12_green_jumpsuit_front-1">
</polygon >
<path d="M 297 97 L 309 98 L 306 113 C 306 113 297 113 297 113 C 297 112 297 97 297 97 Z" fill="#151515" id="id-female-12_green_jumpsuit_front-1">
</path >
<polygon points="214 113 234 106 261 119" fill="#29783b" id="id-female-12_green_jumpsuit_front-1">
</polygon >
<polygon points="324 116 316 116 316 96 324 97" fill="#2e384a" id="id-female-12_green_jumpsuit_front-1">
</polygon >
<polygon points="230 62 213 78 216 32" fill="#77b643" id="id-female-12_green_jumpsuit_front-1">
</polygon >
<path d="M 276 58 L 271 63 L 222 41 L 221 34 L 227 30 C 227 33 227 35 227 35 L 276 58 Z" fill="#2e384a" id="id-female-12_green_jumpsuit_front-1">
</path >
<path d="M 221 34 L 221 34 L 220 18 L 226 13 C 226 19 227 26 227 30 C 227 30 227 30 227 30 L 221 34 Z" fill="#be1e2d" opacity="0.1" id="id-female-12_green_jumpsuit_front-1">
</path >
</g >
<defs >
<linearGradient x1="46%" y1="23%" x2="54%" y2="85%" id="id-female-25_70_long_wave-0">
<stop stop-color="#442233" offset="0%">
</stop >
<stop stop-color="#00a7a4" offset="28%">
</stop >
<stop stop-color="#006e70" offset="54%">
</stop >
<stop stop-color="#00afb6" offset="74%">
</stop >
<stop stop-color="#007073" offset="100%">
</stop >
</linearGradient >
<linearGradient x1="35%" y1="42%" x2="76%" y2="28%" id="id-female-25_70_long_wave-1">
<stop stop-color="#006164" offset="0%">
</stop >
<stop stop-color="#00d5cc" offset="100%">
</stop >
</linearGradient >
<linearGradient x1="37%" y1="7%" x2="50%" y2="78%" id="id-female-25_70_long_wave-2">
<stop stop-color="#048c8b" offset="0%">
</stop >
<stop stop-color="#00cdc5" offset="16%">
</stop >
<stop stop-color="#00cec5" offset="34%">
</stop >
<stop stop-color="#00afb6" offset="36%">
</stop >
<stop stop-color="#00b1b7" offset="57%">
</stop >
<stop stop-color="#00cfc6" offset="79%">
</stop >
<stop stop-color="#00a9b0" offset="100%">
</stop >
</linearGradient >
<linearGradient x1="31%" y1="7%" x2="59%" y2="94%" id="id-female-25_70_long_wave-3">
<stop stop-color="#00b0b6" offset="0%">
</stop >
<stop stop-color="#039596" offset="30%">
</stop >
<stop stop-color="#00c6c0" offset="100%">
</stop >
</linearGradient >
<linearGradient x1="50%" y1="0%" x2="50%" y2="100%" id="id-female-25_70_long_wave-4">
<stop stop-color="#0fc6c3" offset="0%">
</stop >
<stop stop-color="#00928d" offset="100%">
</stop >
</linearGradient >
<linearGradient x1="50%" y1="0%" x2="50%" y2="100%" id="id-female-25_70_long_wave-5">
<stop stop-color="#533766" offset="0%">
</stop >
<stop stop-color="#45263c" offset="100%">
</stop >
</linearGradient >
<linearGradient x1="50%" y1="50%" x2="0%" y2="84%" id="id-female-25_70_long_wave-6">
<stop stop-color="#583641" offset="0%">
</stop >
<stop stop-color="#2d848e" offset="100%">
</stop >
</linearGradient >
</defs >
<g transform="translate(466,326)" id="id-female-25_70_long_wave-7">
<path d="M 200 52 C 201 46 203 38 204 26 L 207 59 C 230 53 245 51 252 53 C 261 74 249 117 249 131 C 250 145 254 159 261 171 C 250 245 243 288 242 301 C 252 330 279 338 279 352 C 268 365 285 467 310 479 C 311 490 314 490 311 509 C 322 503 333 489 344 467 C 351 504 348 525 335 531 C 352 538 350 509 356 496 C 366 476 381 472 372 441 C 384 431 391 428 404 411 C 422 385 422 346 372 351 C 379 322 369 247 350 248 C 339 248 310 268 300 245 C 288 223 323 206 323 183 C 320 178 304 155 297 107 C 289 66 308 30 265 26 C 250 10 229 1 204 1 L 200 5 L 197 1 C 173 -1 148 5 124 19 C 113 37 111 50 98 84 C 78 136 50 158 69 183 C 71 186 74 191 78 199 C 57 224 40 239 25 245 C 16 260 43 295 45 305 C 44 335 5 350 0 365 C 0 384 35 405 39 425 C 44 454 36 490 64 514 C 66 512 64 491 66 472 C 66 462 68 453 69 445 C 72 484 70 512 64 527 C 69 523 80 516 91 479 C 92 471 91 459 87 443 C 98 461 103 481 100 502 C 103 498 120 470 96 428 C 93 402 129 382 137 358 C 139 350 133 317 124 283 C 129 278 134 270 139 260 L 132 166 C 144 139 147 110 141 81 C 152 55 164 40 200 52 Z" fill="url(#id-female-25_70_long_wave-0)" id="id-female-25_70_long_wave-8">
</path >
<path d="M 23 253 C 23 270 44 297 45 305 C 44 335 5 350 0 365 C 39 324 81 292 124 270 C 66 269 33 263 23 253 Z" fill="url(#id-female-25_70_long_wave-1)" id="id-female-25_70_long_wave-8">
</path >
<path d="M 256 208 C 285 288 341 256 352 249 C 362 249 379 288 373 352 C 420 343 433 391 383 432 C 376 420 370 409 364 399 C 372 446 375 470 373 469 C 370 458 362 434 347 396 C 353 449 353 480 347 491 C 347 484 346 476 344 467 L 327 496 L 313 429 C 318 473 308 500 285 511 C 291 492 301 486 273 478 C 271 483 262 499 262 518 C 261 516 260 513 259 510 L 258 508 L 258 508 L 258 464 L 251 435 C 244 421 241 407 241 393 C 247 370 276 361 279 352 C 277 336 251 328 241 302 C 239 284 242 260 251 229 C 253 220 255 213 256 208 Z M 283 358 C 280 368 285 379 291 388 L 291 389 L 291 389 L 292 390 C 292 390 292 390 292 391 L 293 391 C 294 394 295 396 297 399 C 302 413 305 432 305 456 C 307 431 308 416 306 413 C 306 404 290 387 285 372 C 284 368 283 363 283 358 Z" fill="url(#id-female-25_70_long_wave-2)" id="id-female-25_70_long_wave-10">
</path >
<path d="M 383 432 C 379 425 375 417 371 410 C 368 406 415 356 374 352 C 346 349 329 336 322 310 L 372 298 C 374 313 375 331 373 352 C 420 343 433 391 383 432 Z" fill="url(#id-female-25_70_long_wave-3)" id="id-female-25_70_long_wave-10">
</path >
<path d="M 303 396 C 307 401 311 404 316 407 C 308 394 334 392 344 384 C 343 381 341 377 340 374 C 338 383 316 394 303 396 Z" fill="#00eee9" id="id-female-25_70_long_wave-12">
</path >
<path d="M 288 393 C 291 398 294 403 298 407 C 267 413 251 422 251 435 C 248 428 245 421 244 414 C 267 412 282 405 288 393 Z" fill="#00f1ef" id="id-female-25_70_long_wave-13">
</path >
<path d="M 301 324 C 291 325 286 328 281 330 C 274 310 258 298 252 291 C 278 308 289 290 289 273 C 290 287 292 304 301 324 Z" fill="#00ecee" id="id-female-25_70_long_wave-14">
</path >
<path d="M 305 310 C 306 304 309 297 318 292 C 342 284 362 274 366 271 C 367 269 355 272 336 283 C 325 288 315 291 305 291 C 296 282 291 278 290 276 C 290 282 295 295 305 310 Z" fill="#00f4f3" id="id-female-25_70_long_wave-15">
</path >
<path d="M 74 517 C 73 513 71 507 70 500 C 71 479 71 461 69 445 C 74 427 81 412 90 399 C 69 423 53 443 42 460 C 42 450 41 431 40 404 C 43 389 53 375 70 364 C 91 364 109 364 123 359 C 126 378 96 393 82 438 C 84 450 85 469 85 494 C 81 506 77 514 74 517 Z" fill="#00c8c0" id="id-female-25_70_long_wave-16">
</path >
<path d="M 20 377 C 26 369 33 363 43 359 L 38 390 C 39 406 39 416 38 421 C 32 403 0 382 0 365 C 2 359 14 348 36 332 C 24 357 19 372 20 377 Z" fill="#00c5bc" id="id-female-25_70_long_wave-17">
</path >
<path d="M 30 412 C 43 443 22 469 22 488 C 12 447 30 448 30 412 Z" fill="url(#id-female-25_70_long_wave-4)" id="id-female-25_70_long_wave-18">
</path >
<polygon points="12 398 22 417 13 433" fill="#007877" id="id-female-25_70_long_wave-19">
</polygon >
<polygon points="244 443 249 488 255 469" fill="#00686d" id="id-female-25_70_long_wave-20">
</polygon >
<polygon points="82 296 108 271 135 264 115 281" fill="#00f9f8" id="id-female-25_70_long_wave-21">
</polygon >
<path d="M 101 210 C 101 217 102 231 105 253 L 133 228 C 121 230 110 224 101 210 Z" fill="#00cccb" id="id-female-25_70_long_wave-22">
</path >
<path d="M 37 245 C 43 257 52 257 69 263 C 80 267 90 272 98 277 C 90 283 84 287 79 290 C 82 260 50 267 31 254 C 33 250 35 247 37 245 Z" fill="#00d9d7" id="id-female-25_70_long_wave-23">
</path >
<path d="M 124 19 C 124 34 120 49 150 63 C 145 71 141 81 141 81 L 143 87 C 124 83 111 77 104 69 C 106 58 118 27 124 19 Z" fill="#513763" id="id-female-25_70_long_wave-24">
</path >
<path d="M 220 56 C 226 48 245 40 278 29 L 287 35 C 280 70 270 97 256 117 C 254 111 262 71 260 53 C 256 48 247 46 220 56 Z" fill="url(#id-female-25_70_long_wave-5)" id="id-female-25_70_long_wave-25">
</path >
<path d="M 215 2 C 217 14 217 32 215 56 C 218 56 221 56 223 55 C 228 43 232 27 236 7 C 230 4 223 2 215 2 Z" fill="#5c3e5e" id="id-female-25_70_long_wave-26">
</path >
<path d="M 192 49 L 192 0 C 185 0 178 1 171 2 C 175 10 179 26 183 47 L 192 49 Z" fill="#53344d" id="id-female-25_70_long_wave-27">
</path >
<path d="M 83 132 C 83 144 85 155 89 162 L 86 185 C 78 173 77 155 83 132 Z" fill="#675375" id="id-female-25_70_long_wave-28">
</path >
<path d="M 72 141 C 73 144 74 147 74 151 C 70 160 68 169 68 179 C 67 176 57 164 72 141 Z" fill="#816495" id="id-female-25_70_long_wave-29">
</path >
<path d="M 132 166 C 132 173 134 192 136 224 L 128 198 L 120 210 C 120 191 124 176 132 166 Z" fill="#40202a" id="id-female-25_70_long_wave-30">
</path >
<path d="M 124 283 C 120 286 116 290 112 296 C 126 319 134 340 136 359 C 141 356 131 305 124 283 Z" fill="#304046" id="id-female-25_70_long_wave-31">
</path >
<polygon points="324 202 325 225 312 217" fill="#007a7a" id="id-female-25_70_long_wave-32">
</polygon >
<path d="M 68 366 C 58 376 52 384 50 390 C 77 381 93 383 100 396 C 107 386 111 379 111 377 C 104 379 89 380 66 379 L 68 366 Z" fill="#00f2f0" id="id-female-25_70_long_wave-33">
</path >
<path d="M 110 65 L 116 41 C 115 53 118 61 125 65 C 131 69 139 69 148 65 L 139 79 C 133 72 127 67 124 65 C 120 63 115 63 110 65 Z" fill="#7867b2" id="id-female-25_70_long_wave-34">
</path >
<path d="M 250 128 L 252 110 C 253 116 256 118 261 116 C 266 115 269 109 272 99 L 266 134 C 264 131 261 129 259 128 C 257 127 254 127 250 128 Z" fill="#7161a5" id="id-female-25_70_long_wave-35">
</path >
<polygon points="255 208 261 171 275 193 308 196 258 214" fill="url(#id-female-25_70_long_wave-6)" id="id-female-25_70_long_wave-36">
</polygon >
<polygon points="84 224 97 214 77 171 90 214" fill="#3b2d35" id="id-female-25_70_long_wave-37">
</polygon >
</g >
<defs >
</defs >
<path d="M 1202 1685 C 1201 1683 1198 1681 1197 1679 C 1196 1678 1196 1676 1196 1675 C 1196 1674 1194 1672 1193 1671 C 1193 1670 1192 1669 1192 1668 C 1192 1667 1195 1666 1196 1665 C 1198 1663 1200 1661 1202 1658 C 1207 1649 1216 1643 1226 1641 C 1240 1638 1254 1644 1263 1655 C 1264 1657 1266 1660 1265 1663 C 1265 1664 1263 1665 1263 1666 C 1263 1667 1265 1669 1266 1670 C 1271 1673 1269 1673 1270 1678 C 1270 1682 1274 1681 1274 1685 L 1274 1685 L 1274 1686 C 1274 1686 1274 1686 1274 1686 C 1273 1688 1271 1688 1270 1689 C 1268 1691 1267 1692 1266 1694 C 1263 1698 1261 1700 1258 1704 C 1242 1719 1214 1716 1202 1696 C 1201 1695 1199 1691 1200 1689 C 1201 1688 1202 1688 1202 1685 L 1202 1685 Z M 1268 1685 C 1267 1682 1265 1682 1264 1679 C 1264 1678 1264 1677 1264 1676 C 1264 1675 1264 1674 1264 1674 C 1264 1673 1263 1672 1262 1672 C 1260 1670 1256 1669 1258 1665 C 1259 1662 1261 1662 1258 1658 C 1246 1643 1223 1641 1210 1656 C 1209 1658 1208 1659 1207 1661 C 1205 1663 1202 1665 1200 1667 C 1197 1669 1197 1669 1200 1671 C 1203 1675 1201 1676 1203 1679 C 1204 1681 1207 1682 1208 1685 L 1208 1685 L 1208 1685 C 1207 1690 1203 1688 1207 1694 C 1216 1706 1232 1711 1246 1705 C 1249 1704 1252 1702 1255 1699 C 1257 1697 1259 1694 1261 1691 C 1263 1689 1267 1687 1268 1685 L 1268 1685 Z M 1254 1685 C 1254 1682 1252 1682 1252 1680 C 1251 1677 1251 1673 1255 1674 C 1258 1675 1256 1678 1258 1680 C 1259 1682 1260 1682 1260 1685 L 1261 1686 L 1260 1686 C 1259 1688 1257 1689 1255 1690 C 1248 1694 1246 1699 1237 1700 C 1231 1701 1225 1700 1221 1697 C 1219 1696 1216 1694 1215 1692 C 1213 1689 1216 1688 1216 1685 C 1215 1683 1212 1682 1211 1680 C 1208 1677 1210 1673 1214 1674 L 1214 1674 L 1215 1675 C 1216 1678 1215 1679 1217 1681 C 1219 1682 1222 1683 1222 1686 C 1222 1689 1220 1690 1224 1692 C 1230 1696 1238 1695 1244 1691 C 1246 1690 1253 1687 1254 1685 L 1254 1685 Z M 1244 1674 C 1242 1675 1239 1674 1237 1673 C 1236 1672 1233 1670 1232 1669 C 1231 1669 1231 1668 1231 1667 C 1231 1666 1233 1665 1234 1664 C 1235 1662 1237 1661 1238 1659 C 1242 1652 1249 1658 1247 1663 C 1246 1665 1243 1666 1243 1668 C 1243 1670 1246 1671 1244 1674 L 1244 1674 L 1244 1674 L 1244 1674 Z M 1222 1656 C 1224 1655 1227 1656 1228 1659 C 1229 1660 1229 1661 1229 1663 C 1228 1665 1223 1666 1225 1669 C 1225 1670 1226 1670 1226 1671 C 1227 1674 1226 1675 1223 1675 C 1222 1675 1219 1673 1218 1672 C 1216 1671 1212 1669 1214 1666 C 1215 1664 1217 1664 1218 1662 C 1219 1660 1220 1658 1222 1656 L 1222 1656 Z" fill="black" opacity="1" id="id-icons-Leftover-0">
</path >
  <defs>
      <linearGradient id="Gradient1">
        <stop class="stop1" offset="0%"/>
        <stop class="stop2" offset="100%"/>
      </linearGradient>
      <style type="text/css"><![CDATA[
        #tbar { fill: url(#Gradient1); }
        .stop1 { stop-color: red; }
        .stop2 { stop-color: blue; }
      ]]></style>
  </defs>
<text x="50" y="115" font-family="Trebuchet MS" font-weight="900" font-size="5.5em" letter-spacing="-3.0" text-transform="uppercase" fill="black">DISC RAW</text>
<text x="50" y="180" font-family="Trebuchet MS" font-size="3.5em" font-weight="900" letter-spacing="-2" text-transform="uppercase" fill="black">LEFTOVER</text>
<g transform="translate(55,195)">
  <rect id="tbar" y="0" width="185" height="13" fill="url(#Gradient1)"></rect>
  <rect x="185" y="1" width="-1" height="11" fill="#E3E3E3"></rect>
</g>
<text x="50" y="270" font-family="Trebuchet MS" font-size="3.5em" font-weight="900" letter-spacing="-2" text-transform="uppercase" fill="black">CB-04474</text>

<g transform="translate(50,1430)">
  <text x="0" y="-5" font-family="Helvetica" font-size="2.5em" font-weight="900" letter-spacing="-2" text-transform="uppercase" fill="black">BODY</text>
  <rect width="108" height="30" fill="black"></rect>
  <rect width="190" height="30" fill="none" stroke="black"></rect>
  <text x="196" y="27" font-family="Helvetica" font-size="2.2em" font-weight="900" letter-spacing="0" text-transform="uppercase" fill="black">17</text>
</g>
<g transform="translate(50,1505)">
  <text x="0" y="-5" font-family="Helvetica" font-size="2.5em" font-weight="900" letter-spacing="-2" text-transform="uppercase" fill="black">MIND</text>
  <rect width="76" height="30" fill="black"></rect>
  <rect width="190" height="30" fill="none" stroke="black"></rect>
  <text x="196" y="27" font-family="Helvetica" font-size="2.3em" font-weight="900" letter-spacing="0" text-transform="uppercase" fill="black">12</text>
</g>
<g transform="translate(50,1580)">
  <text x="0" y="-5" font-family="Helvetica" font-size="2.5em" font-weight="900" letter-spacing="-2" text-transform="uppercase" fill="black">SOUL</text>
  <rect width="146" height="30" fill="black"></rect>
  <rect width="190" height="30" fill="none" stroke="black"></rect>
  <text x="196" y="27" font-family="Helvetica" font-size="2.2em" font-weight="900" letter-spacing="0" text-transform="uppercase" fill="black">23</text>
</g>
<g transform="translate(50,1675)">
  <text x="0" y="-5" font-family="Helvetica" font-size="2.5em" font-weight="900" letter-spacing="-2" text-transform="uppercase" fill="black">TRAITS</text>
  <rect width="63" height="30" fill="black"></rect>
  <rect width="190" height="30" fill="none" stroke="black"></rect>
  <text x="196" y="27" font-family="Helvetica" font-size="2.2em" font-weight="900" letter-spacing="0" text-transform="uppercase" fill="black">4</text>
</g>
</svg>