<?xml version="1.0" encoding="UTF-8"?>
<svg width="1320px" height="1760px" viewBox="0 0 1320 1760" version="1.1" xmlns="http://www.w3.org/2000/svg" xmlns:xlink="http://www.w3.org/1999/xlink">
<defs >
<radialGradient cx="50%" cy="50%" r="67%" id="id-bg-36-Artboard-0" fx="50%" fy="50%" gradientTransform="translate(0.5,0.5) scale(1,0.75) rotate(90) translate(-0.5,-0.5)">
<stop stop-color="#cbcfda" offset="0%">
</stop >
<stop stop-color="#cbcfda" offset="100%">
</stop >
<stop stop-color="#cbcfda" offset="100%">
</stop >
</radialGradient >
</defs >
<g stroke="none" stroke-width="1" fill="none" id="id-bg-36-Artboard-1" fill-rule="evenodd">
<g id="id-bg-36-Artboard-2">
<rect fill="url(#id-bg-36-Artboard-0)" width="1320" height="1760" x="0" y="0" id="id-bg-36-Artboard-3">
</rect >
<g transform="translate(83,328)" id="id-bg-36-Artboard-4">
<path d="M 120 1019 C 96 961 84 932 84 932 C 28 863 0 829 0 829 C 24 734 37 686 37 686 L 51 716 C 97 918 120 1019 120 1019 Z" fill="#f3c64b" id="id-bg-36-Artboard-5">
</path >
<path d="M 209 1012 C 217 1036 220 1048 220 1048 L 255 1035 C 225 1019 209 1012 209 1012 Z" fill="#f3c64b" id="id-bg-36-Artboard-6">
</path >
<path d="M 214 1066 C 271 1044 299 1033 299 1033 C 241 1020 171 994 132 893 C 67 699 54 522 100 364 C 146 248 201 131 437 0 C 397 47 377 70 377 70 C 565 2 807 64 952 200 C 1087 346 1107 499 1086 650 C 1077 842 1073 938 1073 938 C 1047 842 1034 794 1034 794 C 1002 855 962 896 919 930 C 768 1081 693 1156 693 1156 C 778 1054 820 1003 820 1003 C 757 1026 726 1038 726 1038 C 708 1036 699 1036 699 1036 C 674 1070 661 1088 661 1088 C 648 1252 641 1334 641 1334 C 614 1181 600 1104 600 1104 C 581 1065 571 1046 571 1046 C 521 1049 463 1051 386 1047 C 363 1076 351 1091 351 1091 C 338 1279 331 1373 331 1373 L 331 1055 C 253 1062 214 1066 214 1066 Z" fill="#f3c64c" id="id-bg-36-Artboard-7">
</path >
<path d="M 600 1207 C 598 1334 597 1397 597 1397 L 619 1334 C 607 1250 600 1207 600 1207 Z" fill="#f3c64b" id="id-bg-36-Artboard-8">
</path >
<path d="M 829 1129 C 956 985 1020 913 1020 913 L 972 1084 C 877 1114 829 1129 829 1129 Z" fill="#f3c64b" id="id-bg-36-Artboard-9">
</path >
<path d="M 876 1090 C 949 1005 986 963 986 963 L 954 1062 C 902 1080 876 1090 876 1090 Z" fill="#ff0000" id="id-bg-36-Artboard-10">
</path >
<path d="M 1104 565 C 1101 505 1100 476 1100 476 L 1133 509 C 1114 546 1104 565 1104 565 Z" fill="#f2c64b" id="id-bg-36-Artboard-11">
</path >
<path d="M 1128 441 C 1095 346 1078 299 1078 299 L 1173 364 C 1143 415 1128 441 1128 441 Z" fill="#f2c64b" id="id-bg-36-Artboard-12">
</path >
<path d="M 1130 413 C 1106 358 1094 331 1094 331 L 1146 362 C 1135 396 1130 413 1130 413 Z" fill="#ff0000" id="id-bg-36-Artboard-13">
</path >
<path d="M 1001 218 C 954 156 895 102 827 61 L 973 78 C 991 171 1001 218 1001 218 Z" fill="#f2c64b" id="id-bg-36-Artboard-14">
</path >
<path d="M 908 96 C 927 114 947 133 969 160 C 968 141 968 128 961 102 L 954 96 C 924 96 908 96 908 96 Z" fill="#ff0000" id="id-bg-36-Artboard-15">
</path >
<path d="M 357 62 C 354 75 352 82 352 82 L 284 119 C 333 81 357 62 357 62 Z" fill="#ff0000" id="id-bg-36-Artboard-16">
</path >
<path d="M 68 347 C 58 337 52 332 52 332 C 50 315 48 292 50 248 C 97 203 144 167 192 134 C 121 215 79 286 68 347 Z" fill="#f2c64b" id="id-bg-36-Artboard-17">
</path >
<path d="M 74 416 C 55 446 45 461 45 461 L 61 549 C 57 489 62 445 74 416 Z" fill="#f2c64b" id="id-bg-36-Artboard-18">
</path >
<path d="M 39 714 C 26 790 19 827 19 827 L 74 877 C 51 769 39 714 39 714 Z" fill="#ff0000" id="id-bg-36-Artboard-19">
</path >
<path d="M 345 1061 C 361 1037 370 1025 370 1025 L 311 1004 C 333 1042 345 1061 345 1061 Z" fill="#ff0000" id="id-bg-36-Artboard-20">
</path >
<path d="M 842 990 C 832 983 827 980 827 980 L 855 951 C 847 977 842 990 842 990 Z" fill="#ff0000" id="id-bg-36-Artboard-21">
</path >
<path d="M 1086 585 C 1080 582 1077 581 1077 581 C 1077 601 1074 620 1070 638 C 1068 763 1067 826 1067 826 C 1050 767 1041 738 1041 738 C 1021 782 993 823 958 859 C 895 932 864 969 864 969 C 876 939 881 924 881 924 C 816 964 742 998 638 1007 C 632 1147 629 1217 629 1217 C 614 1113 606 1060 606 1060 C 592 1028 585 1012 585 1012 C 507 1012 431 1010 357 1006 C 304 1002 232 1014 190 971 C 190 1006 190 1024 190 1024 C 170 941 151 869 129 777 C 89 620 71 479 108 375 C 150 257 225 156 366 88 C 529 20 726 48 895 171 C 987 239 1046 340 1072 474 C 1077 521 1082 555 1086 585 Z" fill="#ff0000" id="id-bg-36-Artboard-22">
</path >
<path d="M 173 913 C 170 869 169 847 169 847 C 142 740 128 687 128 687 C 97 501 116 344 210 229 C 233 201 261 168 294 134 C 294 143 295 147 295 147 C 394 74 509 52 637 75 C 939 141 1033 311 1054 518 C 1051 585 1053 660 1054 734 C 1037 713 1028 702 1028 702 C 972 850 855 955 634 987 C 620 1020 613 1037 613 1037 C 597 1007 589 993 589 993 C 529 997 456 996 408 994 C 317 997 192 1014 173 913 Z" fill="#6819a9" id="id-bg-36-Artboard-23">
</path >
<path d="M 145 807 C 150 835 153 850 153 850 L 157 828 C 149 814 145 807 145 807 Z" stroke="#979797" id="id-bg-36-Artboard-24">
</path >
<path d="M 142 871 C 142 918 142 942 142 942 L 168 981 C 151 907 142 871 142 871 Z" fill="#ff0000" id="id-bg-36-Artboard-25">
</path >
<path d="M 889 924 C 889 908 889 901 889 901 L 924 868 C 901 905 889 924 889 924 Z" fill="#6819a9" id="id-bg-36-Artboard-26">
</path >
<path d="M 60 320 C 61 296 58 267 64 249 L 114 207 C 91 241 73 278 60 320 Z" fill="#ff0000" id="id-bg-36-Artboard-27">
</path >
<path d="M 176 796 C 150 712 134 620 138 514 C 133 521 129 529 124 551 C 122 507 124 460 137 400 C 139 439 144 463 149 480 C 150 435 151 413 151 413 C 173 338 203 265 266 189 C 272 219 275 234 275 234 C 284 189 288 166 288 166 C 391 90 507 65 636 91 C 830 134 950 234 1005 385 C 1024 451 1026 518 1012 586 C 1024 548 1030 529 1030 529 C 1035 655 994 752 924 831 C 897 851 863 870 814 890 C 850 885 868 882 868 882 C 740 990 409 996 368 967 C 355 961 311 905 288 893 C 221 845 184 812 176 796 Z" fill="#201e45" id="id-bg-36-Artboard-28">
</path >
<path d="M 209 845 C 204 839 196 846 193 854 C 173 888 203 939 217 948 C 241 974 274 982 314 977 C 319 975 331 971 332 964 C 333 960 320 939 302 921 C 273 893 249 894 209 845 Z" fill="#201e45" id="id-bg-36-Artboard-29">
</path >
<path d="M 519 918 C 490 901 475 892 475 892 C 426 833 368 810 314 777 C 335 746 345 730 345 730 C 307 750 288 760 288 760 C 265 748 234 717 214 678 C 179 574 176 399 276 273 C 340 196 426 153 535 145 C 470 213 438 248 438 248 C 536 179 585 145 585 145 C 657 151 729 169 802 219 C 757 275 735 302 735 302 C 800 261 833 240 833 240 C 999 359 1003 574 925 733 C 856 853 721 915 519 918 Z" fill="#1f1832" id="id-bg-36-Artboard-30">
</path >
</g >
<g transform="translate(465,610)" fill="#140d18" id="id-bg-36-Artboard-31">
<path d="M 186 574 C 158 570 144 567 144 567 L 144 530 C 172 560 186 574 186 574 Z" id="id-bg-36-Artboard-32">
</path >
<path d="M 42 225 C 30 227 24 227 24 227 C 33 234 37 237 37 237 C 19 318 27 396 43 423 C 78 481 155 497 171 518 C 191 538 211 559 233 569 C 327 577 452 529 485 458 C 547 336 530 230 433 139 C 440 129 443 124 443 124 C 432 131 427 135 427 135 C 413 124 399 115 384 109 C 386 105 387 104 387 104 C 371 99 363 96 363 96 C 363 98 363 99 363 99 C 348 93 334 88 319 85 C 324 72 326 66 326 66 C 316 67 310 67 310 67 C 311 78 312 83 312 83 C 301 81 296 80 296 80 C 294 72 292 68 292 68 C 288 75 285 79 285 79 C 280 78 274 78 267 77 C 271 73 274 70 274 70 C 262 73 256 74 256 74 C 256 76 256 77 256 77 C 249 77 245 77 245 77 C 246 75 246 74 246 74 C 225 64 214 60 214 60 C 211 74 210 81 210 81 C 203 82 195 84 187 86 C 189 81 190 79 190 79 C 195 77 197 76 197 76 C 189 75 185 74 185 74 C 183 80 181 83 181 83 C 137 94 114 99 114 99 C 130 105 139 108 139 108 C 129 113 118 120 109 128 C 79 110 63 102 63 102 C 85 128 95 141 95 141 C 92 144 90 146 90 146 C 87 142 86 140 86 140 L 80 156 C 62 181 49 204 42 225 Z" id="id-bg-36-Artboard-33">
</path >
<path d="M 38 183 C 42 167 45 159 45 159 L 70 166 C 48 177 38 183 38 183 Z" id="id-bg-36-Artboard-34">
</path >
<path d="M 9 187 C 4 223 8 231 10 249 C 19 212 31 177 52 150 C 23 174 9 187 9 187 Z" id="id-bg-36-Artboard-35">
</path >
<path d="M 18 171 C 6 165 0 162 0 162 L 35 137 C 24 160 18 171 18 171 Z" id="id-bg-36-Artboard-36">
</path >
<path d="M 25 116 C 30 91 32 79 32 79 L 49 99 C 33 110 25 116 25 116 Z" id="id-bg-36-Artboard-37">
</path >
<path d="M 72 71 C 82 53 87 45 87 45 C 97 62 102 70 102 70 L 100 75 C 81 72 72 71 72 71 Z" id="id-bg-36-Artboard-38">
</path >
<path d="M 103 68 C 95 49 91 39 91 39 C 93 36 93 34 93 34 L 120 42 C 109 59 103 68 103 68 Z" id="id-bg-36-Artboard-39">
</path >
<path d="M 136 74 C 132 70 130 68 130 68 L 136 64 C 136 70 136 74 136 74 Z" id="id-bg-36-Artboard-40">
</path >
<path d="M 171 61 C 157 57 150 55 150 55 L 178 43 C 173 55 171 61 171 61 Z" id="id-bg-36-Artboard-41">
</path >
<path d="M 190 62 C 183 35 180 22 180 22 C 212 22 227 22 227 22 L 223 45 C 201 56 190 62 190 62 Z" id="id-bg-36-Artboard-42">
</path >
<path d="M 257 19 C 248 13 244 9 244 9 L 259 0 C 258 13 257 19 257 19 Z" id="id-bg-36-Artboard-43">
</path >
<path d="M 259 43 C 255 40 253 38 253 38 L 252 44 C 256 43 259 43 259 43 Z" id="id-bg-36-Artboard-44">
</path >
<path d="M 271 43 C 270 35 270 31 270 31 L 284 33 C 276 40 271 43 271 43 Z" id="id-bg-36-Artboard-45">
</path >
<path d="M 255 65 C 243 65 237 65 237 65 L 239 50 C 250 60 255 65 255 65 Z" id="id-bg-36-Artboard-46">
</path >
<path d="M 408 96 C 386 83 375 76 375 76 L 383 59 C 400 83 408 96 408 96 Z" id="id-bg-36-Artboard-47">
</path >
<path d="M 444 109 C 434 94 429 86 429 86 L 463 93 C 451 104 444 109 444 109 Z" id="id-bg-36-Artboard-48">
</path >
<path d="M 472 163 C 469 161 467 160 467 160 C 470 142 472 133 472 133 L 497 148 C 480 158 472 163 472 163 Z" id="id-bg-36-Artboard-49">
</path >
<path d="M 475 164 C 493 157 503 153 503 153 C 506 155 507 155 507 155 L 500 181 C 483 170 475 164 475 164 Z" id="id-bg-36-Artboard-50">
</path >
<path d="M 520 203 C 536 232 549 264 557 309 L 566 255 C 536 221 520 203 520 203 Z" id="id-bg-36-Artboard-51">
</path >
</g >
</g >
</g >
<defs >
<linearGradient x1="50%" y1="6%" x2="50%" y2="100%" id="id-male-6.6_base_2-0">
<stop stop-color="#783f2f" offset="0%">
</stop >
<stop stop-color="#97573c" offset="8%">
</stop >
<stop stop-color="#7a3f2d" offset="20%">
</stop >
<stop stop-color="#884b31" offset="34%">
</stop >
<stop stop-color="#6b2923" offset="71%">
</stop >
<stop stop-color="#602521" offset="100%">
</stop >
</linearGradient >
<linearGradient x1="50%" y1="-10%" x2="50%" y2="84%" id="id-male-6.6_base_2-1">
<stop stop-color="#824631" offset="0%">
</stop >
<stop stop-color="#9d5940" offset="49%">
</stop >
<stop stop-color="#91533a" offset="100%">
</stop >
</linearGradient >
<linearGradient x1="57%" y1="50%" x2="47%" y2="56%" id="id-male-6.6_base_2-2">
<stop stop-color="#551b1b" offset="0%">
</stop >
<stop stop-color="#612520" offset="100%">
</stop >
</linearGradient >
<linearGradient x1="45%" y1="35%" x2="55%" y2="47%" id="id-male-6.6_base_2-3">
<stop stop-color="#81452f" offset="0%">
</stop >
<stop stop-color="#5d221e" offset="100%">
</stop >
</linearGradient >
<linearGradient x1="54%" y1="31%" x2="47%" y2="81%" id="id-male-6.6_base_2-4">
<stop stop-color="#80402e" offset="0%">
</stop >
<stop stop-color="#793e2d" offset="20%">
</stop >
<stop stop-color="#77382c" offset="71%">
</stop >
<stop stop-color="#6d2f27" offset="81%">
</stop >
<stop stop-color="#5b201c" offset="100%">
</stop >
</linearGradient >
<linearGradient x1="43%" y1="38%" x2="54%" y2="44%" id="id-male-6.6_base_2-5">
<stop stop-color="#8f4f38" offset="0%">
</stop >
<stop stop-color="#6d2c24" offset="100%">
</stop >
</linearGradient >
<linearGradient x1="46%" y1="8%" x2="58%" y2="82%" id="id-male-6.6_base_2-6">
<stop stop-color="#9b5b3f" offset="0%" stop-opacity="0.88">
</stop >
<stop stop-color="#6b2a22" offset="100%">
</stop >
</linearGradient >
<linearGradient x1="50%" y1="41%" x2="49%" y2="66%" id="id-male-6.6_base_2-7">
<stop stop-color="#581b1b" offset="0%">
</stop >
<stop stop-color="#843428" offset="27%">
</stop >
<stop stop-color="#86422d" offset="100%">
</stop >
</linearGradient >
<linearGradient x1="63%" y1="4%" x2="25%" y2="77%" id="id-male-6.6_base_2-8">
<stop stop-color="#9f5f44" offset="0%">
</stop >
<stop stop-color="#b37459" offset="55%">
</stop >
<stop stop-color="#9c5d42" offset="100%">
</stop >
</linearGradient >
<linearGradient x1="50%" y1="23%" x2="41%" y2="77%" id="id-male-6.6_base_2-9">
<stop stop-color="#541214" offset="0%">
</stop >
<stop stop-color="#5d1b1c" offset="100%">
</stop >
</linearGradient >
<linearGradient x1="47%" y1="22%" x2="55%" y2="89%" id="id-male-6.6_base_2-10">
<stop stop-color="#703527" offset="0%">
</stop >
<stop stop-color="#a9624a" offset="100%">
</stop >
</linearGradient >
<linearGradient x1="86%" y1="87%" x2="11%" y2="66%" id="id-male-6.6_base_2-11">
<stop stop-color="#773d31" offset="0%">
</stop >
<stop stop-color="#672d25" offset="100%">
</stop >
</linearGradient >
<linearGradient x1="71%" y1="11%" x2="50%" y2="100%" id="id-male-6.6_base_2-12">
<stop stop-color="#81432f" offset="0%" stop-opacity="0">
</stop >
<stop stop-color="#783a28" offset="100%">
</stop >
</linearGradient >
<linearGradient x1="66%" y1="46%" x2="56%" y2="43%" id="id-male-6.6_base_2-13">
<stop stop-color="#672b26" offset="0%">
</stop >
<stop stop-color="#5d2221" offset="100%">
</stop >
</linearGradient >
<linearGradient x1="100%" y1="41%" x2="50%" y2="63%" id="id-male-6.6_base_2-14">
<stop stop-color="#271321" offset="0%">
</stop >
<stop stop-color="#43151b" offset="100%">
</stop >
</linearGradient >
<linearGradient x1="69%" y1="20%" x2="50%" y2="100%" id="id-male-6.6_base_2-15">
<stop stop-color="#672d26" offset="0%">
</stop >
<stop stop-color="#75382c" offset="100%">
</stop >
</linearGradient >
<linearGradient x1="36%" y1="20%" x2="57%" y2="81%" id="id-male-6.6_base_2-16">
<stop stop-color="#b16549" offset="0%">
</stop >
<stop stop-color="#8a4934" offset="100%">
</stop >
</linearGradient >
<linearGradient x1="26%" y1="83%" x2="92%" y2="50%" id="id-male-6.6_base_2-17">
<stop stop-color="#874834" offset="0%">
</stop >
<stop stop-color="#cf836c" offset="100%" stop-opacity="0.095">
</stop >
</linearGradient >
<linearGradient x1="17%" y1="56%" x2="85%" y2="45%" id="id-male-6.6_base_2-18">
<stop stop-color="#b16549" offset="0%" stop-opacity="0">
</stop >
<stop stop-color="#ca8266" offset="52%">
</stop >
<stop stop-color="#a55d43" offset="100%">
</stop >
</linearGradient >
<linearGradient x1="17%" y1="24%" x2="74%" y2="87%" id="id-male-6.6_base_2-19">
<stop stop-color="#c0765d" offset="0%">
</stop >
<stop stop-color="#7a3c2d" offset="100%">
</stop >
</linearGradient >
<linearGradient x1="26%" y1="42%" x2="80%" y2="75%" id="id-male-6.6_base_2-20">
<stop stop-color="#bd7964" offset="0%">
</stop >
<stop stop-color="#965340" offset="100%" stop-opacity="0">
</stop >
</linearGradient >
<linearGradient x1="29%" y1="56%" x2="77%" y2="50%" id="id-male-6.6_base_2-21">
<stop stop-color="#cc876f" offset="0%">
</stop >
<stop stop-color="#b97055" offset="100%" stop-opacity="0">
</stop >
</linearGradient >
<linearGradient x1="74%" y1="24%" x2="34%" y2="74%" id="id-male-6.6_base_2-22">
<stop stop-color="#7e4434" offset="0%">
</stop >
<stop stop-color="#a85a3b" offset="100%">
</stop >
</linearGradient >
<linearGradient x1="66%" y1="100%" x2="40%" y2="0%" id="id-male-6.6_base_2-23">
<stop stop-color="#874837" offset="0%">
</stop >
<stop stop-color="#b56f57" offset="46%">
</stop >
<stop stop-color="#945437" offset="100%">
</stop >
</linearGradient >
<linearGradient x1="52%" y1="13%" x2="59%" y2="75%" id="id-male-6.6_base_2-24">
<stop stop-color="#763628" offset="0%">
</stop >
<stop stop-color="#813f2f" offset="100%">
</stop >
</linearGradient >
<linearGradient x1="28%" y1="76%" x2="73%" y2="20%" id="id-male-6.6_base_2-25">
<stop stop-color="#934d3c" offset="0%">
</stop >
<stop stop-color="#753528" offset="67%">
</stop >
<stop stop-color="#934d3c" offset="100%">
</stop >
</linearGradient >
<linearGradient x1="66%" y1="59%" x2="24%" y2="66%" id="id-male-6.6_base_2-26">
<stop stop-color="#612115" offset="0%">
</stop >
<stop stop-color="#93533a" offset="100%">
</stop >
</linearGradient >
<linearGradient x1="41%" y1="11%" x2="61%" y2="81%" id="id-male-6.6_base_2-27">
<stop stop-color="#a06350" offset="0%">
</stop >
<stop stop-color="#713127" offset="100%">
</stop >
</linearGradient >
<linearGradient x1="19%" y1="58%" x2="66%" y2="43%" id="id-male-6.6_base_2-28">
<stop stop-color="#aa6b53" offset="0%">
</stop >
<stop stop-color="#93523b" offset="100%">
</stop >
</linearGradient >
<linearGradient x1="73%" y1="50%" x2="30%" y2="53%" id="id-male-6.6_base_2-29">
<stop stop-color="#9b5f42" offset="0%">
</stop >
<stop stop-color="#b67b61" offset="100%">
</stop >
</linearGradient >
<linearGradient x1="31%" y1="0%" x2="50%" y2="100%" id="id-male-6.6_base_2-30">
<stop stop-color="#b27562" offset="0%">
</stop >
<stop stop-color="#9b5c4b" offset="100%">
</stop >
</linearGradient >
<linearGradient x1="29%" y1="43%" x2="65%" y2="100%" id="id-male-6.6_base_2-31">
<stop stop-color="#a86b54" offset="0%">
</stop >
<stop stop-color="#814030" offset="100%">
</stop >
</linearGradient >
<linearGradient x1="13%" y1="78%" x2="84%" y2="50%" id="id-male-6.6_base_2-32">
<stop stop-color="#7e3e2e" offset="0%">
</stop >
<stop stop-color="#74372c" offset="100%">
</stop >
</linearGradient >
<linearGradient x1="50%" y1="0%" x2="36%" y2="100%" id="id-male-6.6_base_2-33">
<stop stop-color="#ab6c57" offset="0%">
</stop >
<stop stop-color="#a56750" offset="100%">
</stop >
</linearGradient >
<linearGradient x1="50%" y1="28%" x2="64%" y2="55%" id="id-male-6.6_base_2-34">
<stop stop-color="#a3664e" offset="0%">
</stop >
<stop stop-color="#98593d" offset="100%">
</stop >
</linearGradient >
<linearGradient x1="40%" y1="55%" x2="62%" y2="71%" id="id-male-6.6_base_2-35">
<stop stop-color="#96573e" offset="0%">
</stop >
<stop stop-color="#713528" offset="100%">
</stop >
</linearGradient >
<linearGradient x1="9%" y1="37%" x2="88%" y2="55%" id="id-male-6.6_base_2-36">
<stop stop-color="#723829" offset="0%">
</stop >
<stop stop-color="#612824" offset="100%">
</stop >
</linearGradient >
<linearGradient x1="62%" y1="19%" x2="50%" y2="100%" id="id-male-6.6_base_2-37">
<stop stop-color="#914d34" offset="0%">
</stop >
<stop stop-color="#5f2420" offset="100%">
</stop >
</linearGradient >
<linearGradient x1="45%" y1="18%" x2="51%" y2="67%" id="id-male-6.6_base_2-38">
<stop stop-color="#b67760" offset="0%">
</stop >
<stop stop-color="#a95c3f" offset="100%">
</stop >
</linearGradient >
<linearGradient x1="50%" y1="0%" x2="50%" y2="100%" id="id-male-6.6_base_2-39">
<stop stop-color="#ac6d55" offset="0%">
</stop >
<stop stop-color="#9f5136" offset="100%">
</stop >
</linearGradient >
<linearGradient x1="45%" y1="50%" x2="58%" y2="50%" id="id-male-6.6_base_2-40">
<stop stop-color="#733829" offset="0%">
</stop >
<stop stop-color="#8a4e3c" offset="100%">
</stop >
</linearGradient >
<linearGradient x1="33%" y1="74%" x2="77%" y2="42%" id="id-male-6.6_base_2-41">
<stop stop-color="#985c46" offset="0%">
</stop >
<stop stop-color="#834732" offset="100%">
</stop >
</linearGradient >
<linearGradient x1="63%" y1="59%" x2="38%" y2="59%" id="id-male-6.6_base_2-42">
<stop stop-color="#7e4231" offset="0%">
</stop >
<stop stop-color="#905239" offset="100%">
</stop >
</linearGradient >
<linearGradient x1="50%" y1="0%" x2="50%" y2="100%" id="id-male-6.6_base_2-43">
<stop stop-color="#925f4e" offset="0%">
</stop >
<stop stop-color="#6e2f26" offset="100%">
</stop >
</linearGradient >
<linearGradient x1="47%" y1="47%" x2="53%" y2="50%" id="id-male-6.6_base_2-44">
<stop stop-color="#956855" offset="0%">
</stop >
<stop stop-color="#7c3c32" offset="100%">
</stop >
</linearGradient >
<linearGradient x1="50%" y1="0%" x2="50%" y2="100%" id="id-male-6.6_base_2-45">
<stop stop-color="#753229" offset="0%">
</stop >
<stop stop-color="#833e34" offset="100%">
</stop >
</linearGradient >
<linearGradient x1="50%" y1="0%" x2="50%" y2="100%" id="id-male-6.6_base_2-46">
<stop stop-color="#925644" offset="0%">
</stop >
<stop stop-color="#865648" offset="100%">
</stop >
</linearGradient >
<linearGradient x1="0%" y1="55%" x2="100%" y2="55%" id="id-male-6.6_base_2-47">
<stop stop-color="#804a40" offset="0%">
</stop >
<stop stop-color="#692e2c" offset="100%">
</stop >
</linearGradient >
<linearGradient x1="50%" y1="0%" x2="50%" y2="100%" id="id-male-6.6_base_2-48">
<stop stop-color="#916451" offset="0%">
</stop >
<stop stop-color="#712e26" offset="100%">
</stop >
</linearGradient >
<linearGradient x1="49%" y1="20%" x2="52%" y2="96%" id="id-male-6.6_base_2-49">
<stop stop-color="#773530" offset="0%">
</stop >
<stop stop-color="#6f2c24" offset="100%">
</stop >
</linearGradient >
<linearGradient x1="33%" y1="47%" x2="59%" y2="56%" id="id-male-6.6_base_2-50">
<stop stop-color="#5f2419" offset="0%">
</stop >
<stop stop-color="#4f161a" offset="100%">
</stop >
</linearGradient >
</defs >
<g transform="translate(303,473)" id="id-male-6.6_base_2-51">
<polygon points="174 662 140 824 138 906 147 1082 171 1154 176 1211 174 1230 176 1284 287 1284 284 1265 308 1195 306 1124 345 952 343 912 354 879 363 881 371 877 384 904 391 970 434 1079 458 1202 475 1252 475 1284 596 1284 601 1225 592 1146 609 1103 613 997 596 842 545 671 540 640 529 606 532 569 510 498 522 403 540 360 540 348 563 464 576 498 586 574 637 704 646 760 646 778 626 822 625 853 632 879 630 901 633 920 637 931 648 931 658 920 656 877 660 867 670 874 673 899 677 903 667 923 645 934 643 945 666 939 665 948 643 960 640 982 658 971 674 969 691 945 701 933 705 926 707 923 714 892 719 871 704 832 697 786 704 768 693 725 693 521 653 425 630 282 626 203 613 175 568 156 548 141 530 139 479 114 422 73 416 42 415 1 285 0 284 73 279 83 242 114 196 137 171 139 156 156 108 175 92 228 92 287 68 431 30 516 24 602 28 725 17 764 22 782 1 874 18 932 49 968 60 970 83 982 83 965 79 960 58 949 56 941 79 948 79 936 66 929 54 923 45 906 51 875 62 866 66 877 63 922 75 927 86 925 93 899 90 877 96 856 96 824 75 778 77 738 108 637 140 562 143 495 160 458 181 358 200 403 203 461 212 504 189 564 191 608" fill="url(#id-male-6.6_base_2-0)" id="id-male-6.6_base_2-52">
</polygon >
<polygon points="92 287 68 431 30 516 24 602 73 688 118 614 98 452 110 469 124 336 102 372 110 294 89 309 110 285" fill="url(#id-male-6.6_base_2-1)" id="id-male-6.6_base_2-52">
</polygon >
<polygon points="384 906 391 972 434 1081 458 1204 475 1254 475 1287 596 1287 601 1226 592 1148 609 1105 613 999 603 904 585 908 585 846 535 683 457 705 382 878" fill="url(#id-male-6.6_base_2-2)" id="id-male-6.6_base_2-52">
</polygon >
<polygon points="138 907 147 1083 172 1156 176 1212 174 1232 176 1286 176 1287 287 1287 284 1266 309 1197 306 1126 345 954 344 923 294 814 264 724 247 711" fill="url(#id-male-6.6_base_2-3)" id="id-male-6.6_base_2-52">
</polygon >
<polygon points="545 673 540 641 529 608 532 571 510 500 522 405 540 361 540 350 563 465 576 500 602 540 660 491 688 529 653 427 630 283 626 205 613 177 568 157 548 142 531 141 479 116 422 75 416 44 415 3 360 3 360 715 463 724" fill="url(#id-male-6.6_base_2-4)" id="id-male-6.6_base_2-52">
</polygon >
<polygon points="83 984 60 972 49 970 22 932 20 903 8 879 1 874 12 824 39 786 39 814 57 786 78 800 91 822 83 879 69 882 64 855 51 877 46 908 48 930 37 930 50 938 53 954 49 960 57 956 83 973" fill="#974e34" id="id-male-6.6_base_2-57">
</polygon >
<polygon points="66 855 69 882 64 855 51 877 46 908 43 870 58 825" fill="url(#id-male-6.6_base_2-5)" id="id-male-6.6_base_2-57">
</polygon >
<polygon points="83 879 69 882 70 868" fill="#a16148" id="id-male-6.6_base_2-57">
</polygon >
<polygon points="482 376 513 349 558 291 522 368" fill="#714a47" id="id-male-6.6_base_2-60">
</polygon >
<polygon points="313 697 261 560 246 448 259 424 356 408 362 366 318 404 285 409 268 378 314 343 394 351 431 378 420 404 369 399 371 404 450 421 467 441 449 510 467 547 407 697 358 717" fill="url(#id-male-6.6_base_2-6)" id="id-male-6.6_base_2-61">
</polygon >
<polygon points="410 90 430 82 423 76 417 45 417 7 287 9 287 48 283 76 278 86 245 114 195 139 366 139 391 70 410 26" fill="url(#id-male-6.6_base_2-7)" id="id-male-6.6_base_2-62">
</polygon >
<polygon points="182 180 133 231 98 289 98 231 114 182 166 159" fill="url(#id-male-6.6_base_2-8)" id="id-male-6.6_base_2-63">
</polygon >
<polygon points="347 107 384 55 410 31 414 23 300 31" fill="url(#id-male-6.6_base_2-9)" id="id-male-6.6_base_2-64">
</polygon >
<polygon points="287 93 296 32 323 129" fill="url(#id-male-6.6_base_2-10)" id="id-male-6.6_base_2-65">
</polygon >
<polygon points="336 139 314 151 271 146 224 139" fill="#c0775d" id="id-male-6.6_base_2-66">
</polygon >
<polygon points="410 84 410 136 462 129" fill="url(#id-male-6.6_base_2-11)" id="id-male-6.6_base_2-67">
</polygon >
<polygon points="173 246 167 286 191 351 263 386 329 330 360 330 360 152 349 139 336 139 310 152" fill="url(#id-male-6.6_base_2-12)" id="id-male-6.6_base_2-68">
</polygon >
<polygon points="464 159 516 190 500 159" fill="url(#id-male-6.6_base_2-13)" id="id-male-6.6_base_2-69">
</polygon >
<polygon points="302 31 347 72 383 62 410 37 417 28 417 13" fill="url(#id-male-6.6_base_2-14)" id="id-male-6.6_base_2-70">
</polygon >
<polygon points="264 151 191 202 220 151" fill="#814431" id="id-male-6.6_base_2-71">
</polygon >
<polygon points="154 206 170 170 123 188" fill="#ce826d" id="id-male-6.6_base_2-72">
</polygon >
<polygon points="359 285 345 299 323 318 305 354 359 345 354 305" fill="url(#id-male-6.6_base_2-15)" id="id-male-6.6_base_2-73">
</polygon >
<polygon points="261 361 265 387 204 371 192 347" fill="#6b3127" id="id-male-6.6_base_2-74">
</polygon >
<polygon points="199 362 181 359 167 284" fill="#4b131a" id="id-male-6.6_base_2-75">
</polygon >
<polygon points="477 341 477 335 488 326 496 325 509 338 497 348 485 354" fill="#5d2221" id="id-male-6.6_base_2-76">
</polygon >
<polygon points="314 151 343 220 317 293 238 351 209 318 172 251 186 205 271 146" fill="url(#id-male-6.6_base_2-16)" id="id-male-6.6_base_2-77">
</polygon >
<polygon points="314 151 330 238 209 318 172 251 186 205 271 146" fill="url(#id-male-6.6_base_2-17)" id="id-male-6.6_base_2-77">
</polygon >
<polygon points="314 151 351 205 221 227 186 205 271 146" fill="url(#id-male-6.6_base_2-18)" opacity="0.369" id="id-male-6.6_base_2-77">
</polygon >
<polygon points="212 335 223 322 242 327 244 332 236 353 214 349" fill="#642b26" id="id-male-6.6_base_2-80">
</polygon >
<polygon points="224 339 227 342 227 345 223 349 236 350 242 333 230 338 227 335" fill="#70434f" id="id-male-6.6_base_2-81">
</polygon >
<polygon points="489 343 491 347 486 351 479 338 490 327 495 327 494 336" fill="#6f373c" id="id-male-6.6_base_2-82">
</polygon >
<polygon points="486 339 489 343 494 337" fill="#92523e" id="id-male-6.6_base_2-83">
</polygon >
<polygon points="360 162 360 291 406 325 455 347 529 267 464 182 416 166" fill="url(#id-male-6.6_base_2-19)" id="id-male-6.6_base_2-84">
</polygon >
<polygon points="360 178 360 281 391 302 391 249 489 270 462 189 416 166" fill="url(#id-male-6.6_base_2-20)" id="id-male-6.6_base_2-84">
</polygon >
<polygon points="360 178 360 219 472 220 462 189 416 166 371 163" fill="url(#id-male-6.6_base_2-21)" id="id-male-6.6_base_2-84">
</polygon >
<polygon points="358 178 373 168 440 156 414 137 378 158 412 80 396 60 358 146" fill="url(#id-male-6.6_base_2-22)" id="id-male-6.6_base_2-87">
</polygon >
<polygon points="347 140 358 152 373 129 400 48 369 86 365 130" fill="#b66b53" id="id-male-6.6_base_2-88">
</polygon >
<polygon points="591 281 602 226 559 159 514 159 524 138 499 156 571 263" fill="url(#id-male-6.6_base_2-23)" id="id-male-6.6_base_2-89">
</polygon >
<polygon points="609 298 626 332 630 285 627 227 614 207 617 251" fill="#695b75" id="id-male-6.6_base_2-90">
</polygon >
<polygon points="555 159 567 157 613 177 614 192 580 175 604 207 602 226" fill="#8a4e37" id="id-male-6.6_base_2-91">
</polygon >
<polygon points="641 823 649 826 697 896 714 873 682 781" fill="url(#id-male-6.6_base_2-24)" id="id-male-6.6_base_2-92">
</polygon >
<polygon points="626 840 701 762 689 738 679 784 648 776 626 822" fill="url(#id-male-6.6_base_2-25)" id="id-male-6.6_base_2-92">
</polygon >
<polygon points="649 862 649 845 661 825 661 870 655 878 658 922 652 929 638 929 632 914 632 893 632 877 645 888" fill="#602222" id="id-male-6.6_base_2-94">
</polygon >
<polygon points="554 375 578 333 608 451 594 508 569 462" fill="#994b3b" id="id-male-6.6_base_2-95">
</polygon >
<polygon points="623 326 643 425 633 431 693 523 653 427 637 326 626 315" fill="#583847" id="id-male-6.6_base_2-96">
</polygon >
<polygon points="628 274 639 339 623 314" fill="#561b1f" id="id-male-6.6_base_2-97">
</polygon >
<polygon points="693 523 695 567 685 525 618 416 633 431" fill="#4b1114" id="id-male-6.6_base_2-98">
</polygon >
<polygon points="641 463 599 539 602 571 635 655 646 703 650 754 658 640 661 491" fill="#914f3a" id="id-male-6.6_base_2-99">
</polygon >
<polygon points="610 531 648 646 652 546 638 479" fill="#a8614d" id="id-male-6.6_base_2-99">
</polygon >
<polygon points="693 748 677 730 677 700 660 491 685 525 692 552 684 727" fill="#74332a" id="id-male-6.6_base_2-101">
</polygon >
<polygon points="692 746 704 768 693 727 695 567 692 551 684 727" fill="#5c3c47" id="id-male-6.6_base_2-102">
</polygon >
<polygon points="260 559 310 683 356 716 264 713 238 685 196 582" fill="url(#id-male-6.6_base_2-26)" id="id-male-6.6_base_2-103">
</polygon >
<polygon points="638 931 637 919 639 914 654 914 654 922 652 929 648 931 644 933" fill="#7c4139" id="id-male-6.6_base_2-104">
</polygon >
<polygon points="638 861 638 882 642 890 654 886 649 861" fill="#79372b" id="id-male-6.6_base_2-105">
</polygon >
<polygon points="691 871 694 912 689 936 669 956 672 965 696 924 696 909 705 877" fill="#934d3c" id="id-male-6.6_base_2-106">
</polygon >
<polygon points="704 768 685 788 694 837 712 873 703 908 701 933 707 925 719 873 704 834 697 788" fill="#591f1c" id="id-male-6.6_base_2-107">
</polygon >
<polygon points="667 939 643 946 645 934 658 928 667 922 677 903 673 899 670 874 661 870 661 854 671 867 681 873 681 902 677 920" fill="#431105" id="id-male-6.6_base_2-108">
</polygon >
<polygon points="362 510 360 634 426 561 421 535" fill="url(#id-male-6.6_base_2-27)" opacity="0.626" id="id-male-6.6_base_2-109">
</polygon >
<polygon points="320 403 289 399 268 380 314 343 361 348 362 372" fill="url(#id-male-6.6_base_2-28)" id="id-male-6.6_base_2-110">
</polygon >
<polygon points="172 141 169 151 181 151 205 139 196 138" fill="url(#id-male-6.6_base_2-29)" id="id-male-6.6_base_2-111">
</polygon >
<polygon points="359 308 362 360 383 334" fill="#bb7863" opacity="0.625" id="id-male-6.6_base_2-112">
</polygon >
<polygon points="361 546 361 584 388 551 374 540" fill="url(#id-male-6.6_base_2-30)" opacity="0.626" id="id-male-6.6_base_2-113">
</polygon >
<polygon points="347 542 361 547 374 540 361 534" fill="#581c1c" id="id-male-6.6_base_2-114">
</polygon >
<polygon points="325 545 278 503 259 561 308 579" fill="url(#id-male-6.6_base_2-31)" opacity="0.758" id="id-male-6.6_base_2-115">
</polygon >
<polygon points="389 499 460 467 450 510 404 520" fill="url(#id-male-6.6_base_2-32)" id="id-male-6.6_base_2-116">
</polygon >
<polygon points="364 491 361 403 420 428" fill="url(#id-male-6.6_base_2-33)" opacity="0.758" id="id-male-6.6_base_2-117">
</polygon >
<polygon points="263 446 333 446 323 469 279 492" fill="url(#id-male-6.6_base_2-34)" opacity="0.758" id="id-male-6.6_base_2-118">
</polygon >
<polygon points="260 425 280 496 260 561 237 528 213 443 227 425 244 447" fill="url(#id-male-6.6_base_2-35)" id="id-male-6.6_base_2-119">
</polygon >
<polygon points="412 343 445 374 466 383 500 351 448 354 416 339" fill="url(#id-male-6.6_base_2-36)" id="id-male-6.6_base_2-120">
</polygon >
<polygon points="165 252 164 278 128 284" fill="#642a24" id="id-male-6.6_base_2-121">
</polygon >
<polygon points="58 478 89 441 89 416 69 430 66 456" fill="url(#id-male-6.6_base_2-37)" id="id-male-6.6_base_2-122">
</polygon >
<polygon points="77 684 70 634 62 517 89 474 112 569" fill="url(#id-male-6.6_base_2-38)" id="id-male-6.6_base_2-123">
</polygon >
<polygon points="54 489 48 539 70 635 77 684 54 760 41 781 17 766 28 727 24 604 29 544" fill="url(#id-male-6.6_base_2-39)" id="id-male-6.6_base_2-124">
</polygon >
<polygon points="136 452 128 497 154 460 178 340 170 300" fill="#793b28" id="id-male-6.6_base_2-125">
</polygon >
<polygon points="181 359 160 460 143 497 142 514 124 532 109 514 108 490 128 497 154 460 178 340" fill="#5f2420" id="id-male-6.6_base_2-125">
</polygon >
<polygon points="39 747 28 772 39 788 44 772" fill="#ae7058" id="id-male-6.6_base_2-127">
</polygon >
<polygon points="360 379 343 413 362 444 378 417" fill="url(#id-male-6.6_base_2-40)" id="id-male-6.6_base_2-128">
</polygon >
<polygon points="196 581 260 561 230 519" fill="url(#id-male-6.6_base_2-41)" id="id-male-6.6_base_2-129">
</polygon >
<polygon points="75 929 67 925 69 909 78 905 86 912 84 928" fill="url(#id-male-6.6_base_2-42)" id="id-male-6.6_base_2-130">
</polygon >
<polygon points="20 903 7 880 21 851 28 871" fill="#a16148" id="id-male-6.6_base_2-131">
</polygon >
<polygon points="219 1123 204 1040 192 913 171 1090 183 1169 230 1208 262 1237 271 1213 235 1175 213 1157 273 1191 282 1169" fill="url(#id-male-6.6_base_2-43)" opacity="0.808" id="id-male-6.6_base_2-132">
</polygon >
<polygon points="183 1207 182 1155 214 1106 237 1166 231 1210" fill="#7d3b2d" id="id-male-6.6_base_2-133">
</polygon >
<polygon points="187 902 212 1137 227 1161 275 1187 300 1137 273 1009 300 918 270 791 212 836" fill="url(#id-male-6.6_base_2-44)" id="id-male-6.6_base_2-134">
</polygon >
<polygon points="288 1079 311 1040 312 942 295 903 265 1019 276 1188 302 1137" fill="url(#id-male-6.6_base_2-45)" id="id-male-6.6_base_2-135">
</polygon >
<polygon points="585 908 604 1008 608 1106 614 998 599 887" fill="#604050" id="id-male-6.6_base_2-136">
</polygon >
<polygon points="431 886 489 1140 536 1115 561 925 566 886 537 816 501 786" fill="url(#id-male-6.6_base_2-46)" opacity="0.792" id="id-male-6.6_base_2-137">
</polygon >
<polygon points="582 921 588 1011 585 1112 576 1162 545 1046 566 886" fill="url(#id-male-6.6_base_2-47)" id="id-male-6.6_base_2-138">
</polygon >
<polygon points="562 1247 519 1200 472 1112 495 931 506 931 595 1188 579 1244" fill="url(#id-male-6.6_base_2-48)" id="id-male-6.6_base_2-139">
</polygon >
<polygon points="532 1221 540 1263 537 1269 516 1287 510 1287 500 1263 513 1199 488 1226 462 1170 472 1101 428 1010 399 877 469 771 519 739 537 818 501 787 433 890 477 1078 534 1212" fill="url(#id-male-6.6_base_2-49)" id="id-male-6.6_base_2-140">
</polygon >
<polygon points="322 1058 284 852 258 721 267 733 371 879 363 883 354 881 343 914 345 954" fill="#6b2d24" id="id-male-6.6_base_2-141">
</polygon >
<polygon points="430 1068 425 875 536 705 454 704 380 865 384 906 392 972" fill="#571d1c" opacity="0.394" id="id-male-6.6_base_2-142">
</polygon >
<polygon points="175 1262 194 1287 207 1287 225 1226 214 1249 175 1221 174 1232" fill="#743428" id="id-male-6.6_base_2-143">
</polygon >
<polygon points="529 1227 554 1234 569 1169 549 1168" fill="#824c40" id="id-male-6.6_base_2-144">
</polygon >
<polygon points="547 678 545 672 540 641 529 608 532 571 510 500 522 405 540 361 540 350 548 389 543 330 558 289 517 369 529 369 517 411 500 442 510 465 488 531 508 525 522 585 450 724" fill="#520d17" id="id-male-6.6_base_2-52">
</polygon >
<polygon points="403 722 491 609 523 585 450 723" fill="#5f211f" id="id-male-6.6_base_2-146">
</polygon >
<polygon points="174 664 140 826 138 907 139 937 238 690 352 886 354 881 363 883 371 879 384 906 472 773 549 712 597 844 545 673 540 641 478 697 450 723 279 705 232 657 189 566 191 610" fill="url(#id-male-6.6_base_2-50)" id="id-male-6.6_base_2-52">
</polygon >
<polygon points="189 616 211 620 191 586 191 609" fill="#40120e" id="id-male-6.6_base_2-148">
</polygon >
<polygon points="139 836 226 709 167 697 139 826" fill="#4f1c18" id="id-male-6.6_base_2-149">
</polygon >
<polygon points="519 734 596 843 547 678" fill="#420f15" id="id-male-6.6_base_2-150">
</polygon >
<polygon points="416 778 448 726 315 744 330 762" fill="#6b2c26" opacity="0.52" id="id-male-6.6_base_2-52">
</polygon >
<polygon points="412 685 464 666 457 573" fill="#4f161a" id="id-male-6.6_base_2-152">
</polygon >
</g >
<defs >
<linearGradient x1="53%" y1="5%" x2="47%" y2="91%" id="id-male-6.8_face_2-0">
<stop stop-color="#8f4340" offset="0%">
</stop >
<stop stop-color="#702a2c" offset="82%">
</stop >
<stop stop-color="#974b47" offset="100%">
</stop >
</linearGradient >
<linearGradient x1="62%" y1="61%" x2="50%" y2="36%" id="id-male-6.8_face_2-1">
<stop stop-color="#822f31" offset="0%">
</stop >
<stop stop-color="#3c1b25" offset="100%">
</stop >
</linearGradient >
<linearGradient x1="50%" y1="13%" x2="57%" y2="81%" id="id-male-6.8_face_2-2">
<stop stop-color="#773435" offset="0%">
</stop >
<stop stop-color="#944945" offset="52%">
</stop >
<stop stop-color="#a57660" offset="100%">
</stop >
</linearGradient >
<linearGradient x1="50%" y1="0%" x2="54%" y2="88%" id="id-male-6.8_face_2-3">
<stop stop-color="#9f7d60" offset="0%">
</stop >
<stop stop-color="#8f4539" offset="100%">
</stop >
</linearGradient >
<linearGradient x1="36%" y1="75%" x2="36%" y2="18%" id="id-male-6.8_face_2-4">
<stop stop-color="#8b2e30" offset="0%">
</stop >
<stop stop-color="#662221" offset="100%">
</stop >
</linearGradient >
<linearGradient x1="30%" y1="63%" x2="66%" y2="53%" id="id-male-6.8_face_2-5">
<stop stop-color="#995c43" offset="0%">
</stop >
<stop stop-color="#a2705a" offset="11%">
</stop >
<stop stop-color="#ac8266" offset="35%">
</stop >
<stop stop-color="#955d4b" offset="72%">
</stop >
<stop stop-color="#844137" offset="100%">
</stop >
</linearGradient >
<linearGradient x1="12%" y1="55%" x2="89%" y2="49%" id="id-male-6.8_face_2-6">
<stop stop-color="#baa188" offset="0%">
</stop >
<stop stop-color="#b5a382" offset="69%">
</stop >
<stop stop-color="#8a4c3b" offset="100%">
</stop >
</linearGradient >
<linearGradient x1="77%" y1="45%" x2="9%" y2="48%" id="id-male-6.8_face_2-7">
<stop stop-color="#b6a383" offset="0%">
</stop >
<stop stop-color="#a3775d" offset="100%">
</stop >
</linearGradient >
<linearGradient x1="4%" y1="59%" x2="84%" y2="52%" id="id-male-6.8_face_2-8">
<stop stop-color="#925340" offset="0%">
</stop >
<stop stop-color="#a98468" offset="40%">
</stop >
<stop stop-color="#9d6e56" offset="75%">
</stop >
<stop stop-color="#7e352a" offset="100%">
</stop >
</linearGradient >
<linearGradient x1="0%" y1="62%" x2="75%" y2="50%" id="id-male-6.8_face_2-9">
<stop stop-color="#a07158" offset="0%">
</stop >
<stop stop-color="#c8b5a3" offset="100%">
</stop >
</linearGradient >
<linearGradient x1="91%" y1="50%" x2="43%" y2="50%" id="id-male-6.8_face_2-10">
<stop stop-color="#915b47" offset="0%">
</stop >
<stop stop-color="#c1ae9d" offset="100%">
</stop >
</linearGradient >
<linearGradient x1="73%" y1="44%" x2="36%" y2="73%" id="id-male-6.8_face_2-11">
<stop stop-color="#8b493b" offset="0%">
</stop >
<stop stop-color="#905c4e" offset="100%" stop-opacity="0.589">
</stop >
</linearGradient >
<linearGradient x1="22%" y1="31%" x2="35%" y2="66%" id="id-male-6.8_face_2-12">
<stop stop-color="#a96d54" offset="0%">
</stop >
<stop stop-color="#945949" offset="100%">
</stop >
</linearGradient >
<linearGradient x1="13%" y1="-5%" x2="103%" y2="59%" id="id-male-6.8_face_2-13">
<stop stop-color="#ac887c" offset="0%">
</stop >
<stop stop-color="#985d44" offset="31%">
</stop >
<stop stop-color="#7d3328" offset="79%">
</stop >
<stop stop-color="#712d2c" offset="100%">
</stop >
</linearGradient >
<linearGradient x1="47%" y1="96%" x2="25%" y2="14%" id="id-male-6.8_face_2-14">
<stop stop-color="#a56b59" offset="0%" stop-opacity="0.302">
</stop >
<stop stop-color="#874339" offset="100%">
</stop >
</linearGradient >
<linearGradient x1="24%" y1="56%" x2="50%" y2="45%" id="id-male-6.8_face_2-15">
<stop stop-color="#976043" offset="0%">
</stop >
<stop stop-color="#aa7758" offset="59%">
</stop >
<stop stop-color="#8f523b" offset="100%">
</stop >
</linearGradient >
<linearGradient x1="87%" y1="65%" x2="23%" y2="32%" id="id-male-6.8_face_2-16">
<stop stop-color="#9e6e50" offset="0%">
</stop >
<stop stop-color="#b89475" offset="100%">
</stop >
</linearGradient >
<linearGradient x1="13%" y1="29%" x2="91%" y2="29%" id="id-male-6.8_face_2-17">
<stop stop-color="#80372b" offset="0%">
</stop >
<stop stop-color="#833e2e" offset="38%">
</stop >
<stop stop-color="#8e4939" offset="51%">
</stop >
<stop stop-color="#894036" offset="70%">
</stop >
<stop stop-color="#8d413b" offset="100%">
</stop >
</linearGradient >
<linearGradient x1="9%" y1="45%" x2="41%" y2="63%" id="id-male-6.8_face_2-18">
<stop stop-color="#8e4836" offset="0%">
</stop >
<stop stop-color="#772e23" offset="100%">
</stop >
</linearGradient >
<linearGradient x1="50%" y1="19%" x2="50%" y2="70%" id="id-male-6.8_face_2-19">
<stop stop-color="#975b45" offset="0%">
</stop >
<stop stop-color="#aa836d" offset="100%">
</stop >
</linearGradient >
<linearGradient x1="9%" y1="54%" x2="38%" y2="50%" id="id-male-6.8_face_2-20">
<stop stop-color="#5e3931" offset="0%">
</stop >
<stop stop-color="#2f1b1d" offset="100%">
</stop >
</linearGradient >
<linearGradient x1="97%" y1="55%" x2="73%" y2="44%" id="id-male-6.8_face_2-21">
<stop stop-color="#6f3f30" offset="0%">
</stop >
<stop stop-color="#2e1a1c" offset="100%">
</stop >
</linearGradient >
<linearGradient x1="40%" y1="21%" x2="72%" y2="94%" id="id-male-6.8_face_2-22">
<stop stop-color="#a67a62" offset="0%">
</stop >
<stop stop-color="#af8e6f" offset="50%">
</stop >
<stop stop-color="#af7c69" offset="100%">
</stop >
</linearGradient >
<linearGradient x1="7%" y1="41%" x2="71%" y2="63%" id="id-male-6.8_face_2-23">
<stop stop-color="#a77e68" offset="0%">
</stop >
<stop stop-color="#bfb0a1" offset="100%">
</stop >
</linearGradient >
<linearGradient x1="87%" y1="51%" x2="37%" y2="52%" id="id-male-6.8_face_2-24">
<stop stop-color="#935943" offset="0%">
</stop >
<stop stop-color="#ae7f68" offset="100%">
</stop >
</linearGradient >
<linearGradient x1="50%" y1="0%" x2="50%" y2="100%" id="id-male-6.8_face_2-25">
<stop stop-color="#b18b6b" offset="0%">
</stop >
<stop stop-color="#b35746" offset="100%">
</stop >
</linearGradient >
<linearGradient x1="71%" y1="47%" x2="15%" y2="54%" id="id-male-6.8_face_2-26">
<stop stop-color="#9e6e5a" offset="0%">
</stop >
<stop stop-color="#c6b4a8" offset="100%">
</stop >
</linearGradient >
<linearGradient x1="66%" y1="11%" x2="44%" y2="95%" id="id-male-6.8_face_2-27">
<stop stop-color="#ad6f5d" offset="0%" stop-opacity="0.528">
</stop >
<stop stop-color="#aa5f4f" offset="49%">
</stop >
<stop stop-color="#aa604e" offset="100%" stop-opacity="0">
</stop >
</linearGradient >
<linearGradient x1="-5%" y1="53%" x2="86%" y2="50%" id="id-male-6.8_face_2-28">
<stop stop-color="#6d352d" offset="0%">
</stop >
<stop stop-color="#341d27" offset="47%">
</stop >
<stop stop-color="#692522" offset="100%">
</stop >
</linearGradient >
<linearGradient x1="10%" y1="52%" x2="66%" y2="50%" id="id-male-6.8_face_2-29">
<stop stop-color="#a47a65" offset="0%">
</stop >
<stop stop-color="#884237" offset="100%">
</stop >
</linearGradient >
<linearGradient x1="50%" y1="-36%" x2="50%" y2="100%" id="id-male-6.8_face_2-30">
<stop stop-color="#8f293e" offset="0%">
</stop >
<stop stop-color="#56121d" offset="100%">
</stop >
</linearGradient >
<linearGradient x1="23%" y1="39%" x2="61%" y2="66%" id="id-male-6.8_face_2-31">
<stop stop-color="#c1a490" offset="0%">
</stop >
<stop stop-color="#bd9d86" offset="100%" stop-opacity="0">
</stop >
</linearGradient >
<linearGradient x1="50%" y1="0%" x2="50%" y2="100%" id="id-male-6.8_face_2-32">
<stop stop-color="#a93f54" offset="0%">
</stop >
<stop stop-color="#852e3c" offset="100%">
</stop >
</linearGradient >
<linearGradient x1="23%" y1="50%" x2="76%" y2="52%" id="id-male-6.8_face_2-33">
<stop stop-color="#ae507e" offset="0%" stop-opacity="0">
</stop >
<stop stop-color="#d7709a" offset="100%">
</stop >
</linearGradient >
<linearGradient x1="58%" y1="36%" x2="35%" y2="100%" id="id-male-6.8_face_2-34">
<stop stop-color="#b18f79" offset="0%">
</stop >
<stop stop-color="#b18d76" offset="100%" stop-opacity="0">
</stop >
</linearGradient >
<linearGradient x1="96%" y1="25%" x2="45%" y2="90%" id="id-male-6.8_face_2-35">
<stop stop-color="#361b27" offset="0%">
</stop >
<stop stop-color="#411720" offset="100%">
</stop >
</linearGradient >
<linearGradient x1="40%" y1="34%" x2="57%" y2="75%" id="id-male-6.8_face_2-36">
<stop stop-color="#853b31" offset="0%">
</stop >
<stop stop-color="#722b2c" offset="100%">
</stop >
</linearGradient >
<linearGradient x1="66%" y1="30%" x2="24%" y2="92%" id="id-male-6.8_face_2-37">
<stop stop-color="#401923" offset="0%">
</stop >
<stop stop-color="#7e3530" offset="100%" stop-opacity="0">
</stop >
</linearGradient >
<linearGradient x1="53%" y1="73%" x2="54%" y2="75%" id="id-male-6.8_face_2-38">
<stop stop-color="#5e231e" offset="0%" stop-opacity="0.476">
</stop >
<stop stop-color="#471a24" offset="100%">
</stop >
</linearGradient >
<linearGradient x1="36%" y1="31%" x2="47%" y2="50%" id="id-male-6.8_face_2-39">
<stop stop-color="#c0a895" offset="0%">
</stop >
<stop stop-color="#945d46" offset="100%">
</stop >
</linearGradient >
<linearGradient x1="52%" y1="46%" x2="46%" y2="43%" id="id-male-6.8_face_2-40">
<stop stop-color="#995c43" offset="0%">
</stop >
<stop stop-color="#844137" offset="100%">
</stop >
</linearGradient >
</defs >
<g transform="translate(548,259)" id="id-male-6.8_face_2-41">
<g transform="translate(0,121)" id="id-male-6.8_face_2-42">
<polygon points="199 13 214 3 222 9 221 25 214 38 214 43 210 54 208 65 197 70 190 64" fill="url(#id-male-6.8_face_2-0)" id="id-male-6.8_face_2-43">
</polygon >
<polygon points="197 24 209 14 216 9 219 10 220 22 214 37 195 43" fill="url(#id-male-6.8_face_2-1)" id="id-male-6.8_face_2-44">
</polygon >
<polygon points="203 38 208 34 199 25 203 22 209 23 207 18 212 16 214 38 214 43 213 48 207 51 201 46" fill="url(#id-male-6.8_face_2-2)" id="id-male-6.8_face_2-43">
</polygon >
<polygon points="212 5 214 3 222 9 222 10 219 10 216 9" fill="#d49ba0" id="id-male-6.8_face_2-43">
</polygon >
<polygon points="208 65 197 70 190 64 194 42 199 50 193 62 199 67" fill="#602d31" id="id-male-6.8_face_2-43">
</polygon >
<polygon points="203 62 202 54 211 50" fill="#722c2d" id="id-male-6.8_face_2-48">
</polygon >
<polygon points="196 50 202 51 203 42 196 46" fill="#874b46" id="id-male-6.8_face_2-49">
</polygon >
<polygon points="194 45 199 47 202 45 202 32 197 31" fill="#361b27" id="id-male-6.8_face_2-50">
</polygon >
<path d="M 30 70 C 24 70 20 69 19 68 C 17 66 12 52 8 46 C 4 39 2 38 1 33 C 0 30 0 21 1 6 L 8 0 L 23 9 L 30 70 Z" fill="url(#id-male-6.8_face_2-3)" id="id-male-6.8_face_2-51">
</path >
<polygon points="8 6 2 6 7 3 10 2 23 9 19 14" fill="#b99d8c" id="id-male-6.8_face_2-51">
</polygon >
<path d="M 26 68 C 23 69 20 69 19 68 C 17 66 12 52 8 46 C 7 44 6 43 6 42 C 9 45 10 47 12 48 C 13 50 14 52 16 56 L 26 68 Z" fill="#ab7260" id="id-male-6.8_face_2-51">
</path >
<polygon points="26 68 29 65 27 53 20 61" fill="#c67b6d" id="id-male-6.8_face_2-51">
</polygon >
<path d="M 23 19 C 12 12 6 9 5 9 C 3 10 2 18 2 33 L 17 53 L 26 52 L 23 19 Z" fill="url(#id-male-6.8_face_2-4)" id="id-male-6.8_face_2-55">
</path >
<polygon points="12 17 19 19 18 26 15 28 22 38 21 49 12 44" fill="#8e4f46" id="id-male-6.8_face_2-56">
</polygon >
<path d="M 27 53 C 16 50 10 47 8 42 C 6 38 8 30 12 17 L 15 23 C 15 36 14 42 15 43 C 15 45 18 46 25 48 L 27 53 Z" fill="#a6866b" id="id-male-6.8_face_2-57">
</path >
<polygon points="11 31 19 26 19 18 14 20 12 18" fill="#bca28f" id="id-male-6.8_face_2-58">
</polygon >
<polygon points="20 46 17 42 22 37 25 48" fill="#b27668" id="id-male-6.8_face_2-59">
</polygon >
</g >
<g transform="translate(18,0)" id="id-male-6.8_face_2-60">
<path d="M 20 231 C 18 227 11 201 5 153 C 3 140 2 128 1 117 C -1 91 4 63 8 49 C 9 46 16 35 16 34 C 30 20 56 0 94 0 C 157 0 178 45 181 51 C 183 57 183 111 181 144 C 178 177 162 232 160 235 C 158 239 124 261 119 264 C 113 266 74 267 69 264 C 64 261 22 235 20 231 Z" fill="url(#id-male-6.8_face_2-5)" id="id-male-6.8_face_2-61">
</path >
<polygon points="42 97 56 74 52 61 155 41 139 103 93 103" fill="url(#id-male-6.8_face_2-6)" id="id-male-6.8_face_2-62">
</polygon >
<polygon points="96 68 135 48 39 38 42 54" fill="url(#id-male-6.8_face_2-7)" id="id-male-6.8_face_2-63">
</polygon >
<path d="M 27 130 L 4 145 C 3 135 2 126 1 117 C -1 91 4 63 8 49 C 9 46 16 35 16 34 C 30 20 56 0 94 0 C 157 0 178 45 181 51 L 147 47 L 86 54 L 44 42 L 57 74 L 27 98 L 27 130 Z" fill="url(#id-male-6.8_face_2-8)" id="id-male-6.8_face_2-61">
</path >
<polygon points="42 81 80 64 52 52 42 54" fill="url(#id-male-6.8_face_2-9)" id="id-male-6.8_face_2-65">
</polygon >
<polygon points="45 68 60 57 52 52 45 54" fill="#cec5b3" opacity="0.553" id="id-male-6.8_face_2-66">
</polygon >
<polygon points="90 96 73 84 69 76 91 79 113 76 93 88" fill="#ad8f72" id="id-male-6.8_face_2-67">
</polygon >
<polygon points="137 97 137 86 108 81 98 91 102 103" fill="url(#id-male-6.8_face_2-10)" id="id-male-6.8_face_2-68">
</polygon >
<polygon points="99 91 101 94 111 91 111 84" fill="#d3cbb9" opacity="0.56" id="id-male-6.8_face_2-69">
</polygon >
<polygon points="60 213 39 221 45 248 56 248 84 233 80 206" fill="url(#id-male-6.8_face_2-11)" id="id-male-6.8_face_2-70">
</polygon >
<path d="M 20 231 C 18 227 12 203 6 158 C 22 179 32 191 34 197 C 36 202 40 220 47 250 C 35 242 21 233 20 231 Z" fill="#804033" id="id-male-6.8_face_2-61">
</path >
<path d="M 11 192 C 9 183 7 171 6 158 C 26 171 38 180 40 188 C 42 191 42 202 40 221 L 11 192 Z" fill="#6d3322" opacity="0.47" id="id-male-6.8_face_2-61">
</path >
<polygon points="132 203 121 178 107 160 107 139 115 134 168 130 179 136" fill="url(#id-male-6.8_face_2-12)" id="id-male-6.8_face_2-73">
</polygon >
<path d="M 160 158 C 165 146 167 139 164 138 C 153 133 136 132 136 127 C 135 126 137 111 140 83 L 129 85 L 143 73 C 144 62 144 56 143 55 C 141 53 143 36 130 31 C 126 30 112 32 88 38 L 51 31 L 35 38 C 22 36 16 35 16 34 C 30 20 56 0 94 0 C 157 0 178 45 181 51 C 183 57 183 111 181 144 L 160 158 Z" fill="url(#id-male-6.8_face_2-13)" id="id-male-6.8_face_2-61">
</path >
<polygon points="93 230 129 249 146 243 153 201 125 219 113 221" fill="#662826" id="id-male-6.8_face_2-75">
</polygon >
<polygon points="120 175 124 185 115 193 133 206 135 223 104 221 103 198 95 176" fill="url(#id-male-6.8_face_2-14)" id="id-male-6.8_face_2-76">
</polygon >
<polygon points="117 131 107 134 112 117 140 96 157 104 144 127" fill="#944b36" id="id-male-6.8_face_2-77">
</polygon >
<polygon points="65 125 74 128 77 122 60 101 35 99 20 129" fill="url(#id-male-6.8_face_2-15)" id="id-male-6.8_face_2-78">
</polygon >
<polygon points="44 112 41 108 49 105 59 112 61 115 66 120 66 125" fill="url(#id-male-6.8_face_2-16)" id="id-male-6.8_face_2-79">
</polygon >
<polygon points="44 135 30 136 15 132 23 105 35 93 73 94 92 101 115 98 157 102 159 108 151 121 157 123 153 129 143 126 153 105 147 96 108 119 108 139 111 159 120 175 118 179 86 167 76 123 69 121 54 98 37 105 26 123 23 127" fill="url(#id-male-6.8_face_2-17)" id="id-male-6.8_face_2-80">
</polygon >
<polygon points="100 118 108 126 137 102 113 98" fill="url(#id-male-6.8_face_2-18)" id="id-male-6.8_face_2-81">
</polygon >
<polygon points="125 120 128 110 137 104 144 103 137 110 139 118 144 122 144 125 122 125" fill="url(#id-male-6.8_face_2-19)" id="id-male-6.8_face_2-82">
</polygon >
<polygon points="99 109 105 101 103 110" fill="#5e3931" id="id-male-6.8_face_2-83">
</polygon >
<polygon points="105 109 108 97 117 96 132 96 126 94 146 93 152 98 149 93 151 92 162 106 161 112 149 103 108 110 112 100" fill="url(#id-male-6.8_face_2-20)" id="id-male-6.8_face_2-84">
</polygon >
<polygon points="163 108 163 116 166 120 166 113" fill="#2f1b1d" id="id-male-6.8_face_2-85">
</polygon >
<path d="M 19 119 C 20 112 22 106 24 103 C 26 99 30 96 34 93 L 29 94 L 31 92 L 45 91 L 75 96 L 77 107 L 79 100 L 77 111 L 73 105 L 73 109 L 69 104 L 71 109 C 50 104 39 101 38 101 C 37 101 32 104 25 110 L 26 104 L 19 119 Z" fill="url(#id-male-6.8_face_2-21)" id="id-male-6.8_face_2-86">
</path >
<path d="M 116 127 L 156 130 L 167 133 L 163 138 L 156 135 C 149 139 143 141 137 141 C 132 141 124 140 115 137 L 108 140 L 108 134 L 111 130 L 116 127 Z" fill="#753529" id="id-male-6.8_face_2-87">
</path >
<polygon points="137 136 147 137 162 128 147 130" transform="translate(150,133) rotate(-2) translate(-150,-133)" fill="#431d1f" id="id-male-6.8_face_2-88">
</polygon >
<polygon points="125 121 133 114 137 118" transform="translate(131,118) rotate(-2) translate(-131,-118)" fill="#d0c0bb" id="id-male-6.8_face_2-89">
</polygon >
<path d="M 125 135 L 112 131 L 116 127 C 123 121 130 118 137 118 C 144 118 150 120 156 125 C 148 121 142 119 135 119 C 129 120 124 123 119 128 L 122 132 L 125 135 Z" transform="translate(134,126) rotate(-2) translate(-134,-126)" fill="#55241f" id="id-male-6.8_face_2-90">
</path >
<path d="M 112 131 C 112 131 116 132 123 134 L 114 130 C 120 129 133 126 142 130 C 149 133 157 132 164 129 C 159 128 156 128 153 127 C 146 125 142 122 132 123 C 121 123 119 127 112 131 Z" transform="translate(138,128) rotate(-2) translate(-138,-128)" fill="#220f0f" id="id-male-6.8_face_2-91">
</path >
<path d="M 118 129 L 121 133 C 127 136 132 137 137 136 C 141 136 146 135 152 132 C 144 129 138 127 134 127 C 130 126 125 127 118 129 Z" transform="translate(135,132) rotate(-2) translate(-135,-132)" fill="#e0cbbb" id="id-male-6.8_face_2-92">
</path >
<path d="M 124 127 C 126 133 129 136 133 137 C 137 137 141 134 143 128 C 140 127 138 127 135 127 C 133 126 129 127 124 127 Z" transform="translate(134,132) rotate(-2) translate(-134,-132)" fill="#321b1d" id="id-male-6.8_face_2-93">
</path >
<path d="M 130 128 C 131 130 132 131 133 131 C 134 131 136 130 138 128 C 136 127 135 127 134 127 C 133 127 131 127 130 128 Z" transform="translate(134,129) rotate(-2) translate(-134,-129)" fill="#220e0f" id="id-male-6.8_face_2-94">
</path >
<path d="M 139 130 L 140 132 C 138 135 136 136 134 136 C 131 136 129 135 126 132 L 132 131 L 134 134 L 135 132 L 139 130 Z" transform="translate(133,133) rotate(-2) translate(-133,-133)" fill="#3f405e" id="id-male-6.8_face_2-95">
</path >
<path d="M 117 129 L 119 131 C 123 130 127 129 132 129 C 134 129 138 131 146 134 C 147 134 149 133 152 131 C 144 129 138 127 134 127 C 130 126 124 127 117 129 Z" transform="translate(135,130) rotate(-2) translate(-135,-130)" fill="#1a0a04" fill-opacity="0.556" id="id-male-6.8_face_2-92">
</path >
<polygon points="127 131 128 129 131 128 132 130" transform="translate(130,130) rotate(-2) translate(-130,-130)" fill="#d0bcae" id="id-male-6.8_face_2-97">
</polygon >
<polygon points="66 221 111 223 125 219 126 212 102 197 95 177 99 123 86 122 80 129 64 179 58 199 62 214" fill="url(#id-male-6.8_face_2-22)" id="id-male-6.8_face_2-98">
</polygon >
<polygon points="78 151 81 128 76 132 74 130 64 126 37 130 19 159 24 163" fill="url(#id-male-6.8_face_2-23)" id="id-male-6.8_face_2-99">
</polygon >
<polygon points="30 136 48 140 71 133 73 131 52 125 34 130" fill="#874a3a" id="id-male-6.8_face_2-100">
</polygon >
<path d="M 21 127 L 29 122 C 37 117 44 115 49 116 C 55 117 60 120 65 125 L 21 127 Z" fill="url(#id-male-6.8_face_2-24)" id="id-male-6.8_face_2-101">
</path >
<polygon points="39 117 44 110 52 116" fill="#d0c0bb" id="id-male-6.8_face_2-102">
</polygon >
<polygon points="33 127 40 118 47 116 49 123" fill="#b89f8c" id="id-male-6.8_face_2-103">
</polygon >
<path d="M 32 130 C 35 134 40 136 48 136 C 56 136 62 134 67 129 C 61 127 56 126 51 126 C 47 126 40 127 32 130 Z" fill="#e5d2c5" id="id-male-6.8_face_2-104">
</path >
<path d="M 40 128 C 41 133 44 136 49 136 C 54 136 57 133 59 127 C 55 125 52 125 49 125 C 46 125 43 126 40 128 Z" fill="#392524" id="id-male-6.8_face_2-105">
</path >
<path d="M 32 130 C 33 131 34 132 35 132 C 43 131 48 130 50 130 C 51 130 53 131 54 131 C 56 131 57 129 59 129 C 60 130 61 130 63 132 C 64 131 65 130 67 129 C 61 127 56 126 51 126 C 47 126 40 127 32 130 Z" fill="#1f0606" fill-opacity="0.51" id="id-male-6.8_face_2-104">
</path >
<path d="M 49 117 C 42 117 35 119 28 123 C 36 117 44 114 52 116 C 59 118 65 122 71 131 C 67 128 65 126 64 126 C 59 121 55 118 49 117 Z" fill="#663123" id="id-male-6.8_face_2-107">
</path >
<path d="M 36 134 L 20 127 C 24 126 27 126 30 125 C 35 124 43 121 49 121 C 59 121 70 131 73 131 C 71 132 69 133 67 133 C 65 133 61 134 57 134 L 66 130 C 64 128 60 127 54 127 C 47 127 40 128 33 130 L 36 134 Z" fill="#220f0d" id="id-male-6.8_face_2-108">
</path >
<path d="M 42 132 L 45 128 C 47 130 49 131 50 131 C 51 131 53 130 55 128 L 56 130 C 54 133 52 135 49 135 C 46 135 43 134 42 132 Z" fill="#434564" id="id-male-6.8_face_2-109">
</path >
<path d="M 44 126 C 46 129 47 130 49 130 C 51 130 53 128 56 126 C 53 125 51 125 49 125 C 48 125 46 125 44 126 Z" fill="#220f0f" id="id-male-6.8_face_2-110">
</path >
<polygon points="43 129 45 130 47 129 46 128" fill="#b3a2a0" id="id-male-6.8_face_2-111">
</polygon >
<polygon points="83 161 100 165 103 158 99 150 97 124 86 125 86 155" fill="url(#id-male-6.8_face_2-25)" id="id-male-6.8_face_2-112">
</polygon >
<polygon points="93 191 98 185 100 191 97 194" fill="#baa193" id="id-male-6.8_face_2-113">
</polygon >
<polygon points="64 132 66 130 69 131" fill="#72473c" id="id-male-6.8_face_2-114">
</polygon >
<polygon points="84 193 92 197 98 193 92 190 91 184 88 184" fill="#985c49" id="id-male-6.8_face_2-115">
</polygon >
<polygon points="19 159 15 148 70 133 52 148" fill="url(#id-male-6.8_face_2-26)" id="id-male-6.8_face_2-116">
</polygon >
<polygon points="67 179 75 186 83 182 88 184 92 184 100 181 114 185 119 178 90 167" fill="#490b11" id="id-male-6.8_face_2-117">
</polygon >
<polygon points="74 171 89 162 81 160" fill="#bfb3a1" id="id-male-6.8_face_2-118">
</polygon >
<path d="M 68 174 L 78 154 L 85 146 C 85 153 83 158 80 163 C 78 168 73 172 68 174 Z" fill="url(#id-male-6.8_face_2-27)" id="id-male-6.8_face_2-119">
</path >
<polygon points="88 162 101 164 91 167 83 165" fill="#ba9b78" id="id-male-6.8_face_2-120">
</polygon >
<polygon points="99 166 103 158 99 150 113 167 108 172" fill="#914f3b" id="id-male-6.8_face_2-121">
</polygon >
<polygon points="117 175 108 172 113 167" fill="#9e654d" id="id-male-6.8_face_2-122">
</polygon >
<polygon points="84 127 86 131 99 123 86 122" fill="#c4ac85" id="id-male-6.8_face_2-123">
</polygon >
<path d="M 79 181 L 75 183 L 67 179 L 66 177 L 84 165 L 91 167 L 99 165 L 117 175 L 119 178 L 112 182 L 107 182 C 108 180 108 178 105 177 C 103 176 100 177 96 181 L 89 181 C 86 178 84 176 82 176 C 81 176 76 177 75 179 C 75 179 76 180 79 181 Z" fill="#7a332d" id="id-male-6.8_face_2-124">
</path >
<path d="M 98 179 C 97 180 96 180 96 181 L 89 181 C 88 180 87 179 87 179 L 90 180 L 98 179 Z" fill="#8b5056" id="id-male-6.8_face_2-124">
</path >
<polygon points="117 175 119 178 112 182 107 182 108 179" fill="#884d4f" id="id-male-6.8_face_2-126">
</polygon >
<path d="M 67 179 L 66 177 L 84 165 L 89 167 L 84 176 C 80 176 77 175 75 176 C 72 176 70 177 67 179 Z" fill="#965646" id="id-male-6.8_face_2-124">
</path >
<polygon points="90 178 98 178 101 176 107 170 105 169" fill="#6d2923" id="id-male-6.8_face_2-128">
</polygon >
<polygon points="110 223 107 228 111 239 75 236 66 221 115 218" fill="url(#id-male-6.8_face_2-28)" id="id-male-6.8_face_2-129">
</polygon >
<polygon points="66 221 88 233 107 224 77 223" fill="#341d27" id="id-male-6.8_face_2-130">
</polygon >
<path d="M 52 251 L 74 236 L 90 231 L 110 237 L 132 249 C 117 258 103 263 90 263 C 76 263 64 259 52 251 Z" fill="url(#id-male-6.8_face_2-29)" id="id-male-6.8_face_2-131">
</path >
<polygon points="87 253 71 244 74 241 69 239 74 236 90 231 93 232 88 239" fill="#b69f8e" opacity="0.481" id="id-male-6.8_face_2-131">
</polygon >
<polygon points="59 213 64 205 96 201 120 205 126 211 121 215 63 215" fill="#410409" id="id-male-6.8_face_2-133">
</polygon >
<path d="M 64 205 C 73 199 79 196 81 196 C 83 195 87 196 93 199 L 102 195 C 106 196 109 198 112 199 C 114 200 117 202 120 205 L 111 208 L 96 205 L 76 208 L 68 208 L 64 205 Z" fill="url(#id-male-6.8_face_2-30)" id="id-male-6.8_face_2-134">
</path >
<polygon points="149 148 115 136 108 140 133 164" fill="url(#id-male-6.8_face_2-31)" id="id-male-6.8_face_2-135">
</polygon >
<path d="M 72 200 C 77 197 80 196 81 196 C 83 195 87 196 93 199 L 90 205 L 76 208 L 72 200 Z" fill="#78152e" id="id-male-6.8_face_2-134">
</path >
<path d="M 98 197 L 102 195 C 106 196 109 198 112 199 C 114 200 115 201 117 202 L 112 205 L 102 203 L 98 197 Z" fill="#7c1831" id="id-male-6.8_face_2-134">
</path >
<path d="M 62 215 C 71 212 77 211 81 210 C 84 210 89 211 91 211 C 93 211 98 210 100 210 C 104 210 112 212 122 215 C 113 223 103 227 91 226 C 79 226 70 222 62 215 Z" fill="url(#id-male-6.8_face_2-32)" id="id-male-6.8_face_2-138">
</path >
<path d="M 112 213 C 104 216 100 218 98 219 C 96 219 94 220 93 222 L 92 214 C 93 216 94 217 97 216 C 99 216 105 215 112 213 Z" fill="#d7709a" opacity="0.667" id="id-male-6.8_face_2-139">
</path >
<path d="M 91 216 L 91 222 C 84 219 78 217 74 216 C 70 216 66 215 64 215 C 70 213 74 213 77 214 C 80 216 85 217 91 216 Z" fill="url(#id-male-6.8_face_2-33)" id="id-male-6.8_face_2-140">
</path >
<polygon points="104 129 106 136 111 129 111 124" fill="url(#id-male-6.8_face_2-34)" id="id-male-6.8_face_2-141">
</polygon >
<path d="M 181 144 C 178 177 162 232 160 235 C 158 239 124 261 119 264 C 113 266 74 267 69 264 C 67 263 59 258 51 253 C 69 259 83 262 93 261 C 107 259 128 246 137 242 C 141 241 144 232 149 215 L 163 207 L 170 172 L 154 183 L 181 144 Z" fill="url(#id-male-6.8_face_2-35)" id="id-male-6.8_face_2-61">
</path >
<path d="M 133 228 C 130 202 130 187 133 180 C 137 173 146 166 160 157 L 181 144 L 171 162 L 163 207 L 133 228 Z" fill="url(#id-male-6.8_face_2-36)" id="id-male-6.8_face_2-143">
</path >
<polygon points="133 228 133 244 140 242 152 215" fill="#722c2c" id="id-male-6.8_face_2-143">
</polygon >
<polygon points="172 159 143 191 164 205" fill="url(#id-male-6.8_face_2-37)" id="id-male-6.8_face_2-145">
</polygon >
<path d="M 102 259 L 104 235 L 110 237 L 128 247 C 115 253 107 257 102 259 Z" fill="#954a3d" id="id-male-6.8_face_2-146">
</path >
<path d="M 20 231 C 20 230 19 228 18 225 C 30 234 39 240 45 243 C 57 248 70 255 82 255 C 94 255 108 246 117 241 C 123 238 129 233 133 228 L 163 207 L 169 204 C 165 221 161 233 160 235 C 158 239 124 261 119 264 C 113 266 74 267 69 264 C 64 261 22 235 20 231 Z" fill="#501517" opacity="0.375" id="id-male-6.8_face_2-61">
</path >
<path d="M 157 157 C 157 146 153 139 145 136 L 158 130 C 162 129 164 128 164 128 C 165 123 168 115 170 105 C 170 103 170 91 170 69 C 165 63 160 57 155 51 C 154 36 148 22 136 8 C 167 21 179 47 181 51 C 183 57 183 111 181 144 C 180 156 172 166 157 177 C 157 166 157 159 157 157 Z" fill="url(#id-male-6.8_face_2-38)" id="id-male-6.8_face_2-61">
</path >
<path d="M 4 66 C 5 59 7 54 8 49 C 9 46 16 35 16 34 C 26 24 42 11 65 5 C 55 10 50 15 47 18 C 40 28 28 50 13 83 L 4 66 Z" fill="url(#id-male-6.8_face_2-39)" id="id-male-6.8_face_2-61">
</path >
<path d="M 4 145 C 3 135 2 126 1 117 C 0 97 2 76 5 61 C 9 60 11 58 13 56 C 16 53 23 47 35 38 C 25 59 18 74 17 83 C 14 98 9 119 4 145 Z" fill="url(#id-male-6.8_face_2-40)" id="id-male-6.8_face_2-61">
</path >
</g >
</g >
<defs >
<linearGradient x1="96%" y1="53%" x2="9%" y2="39%" id="id-male-11_neon_top-0">
<stop stop-color="#01ab65" offset="0%">
</stop >
<stop stop-color="#4095d8" offset="52%">
</stop >
<stop stop-color="#c72bba" offset="100%">
</stop >
</linearGradient >
<linearGradient x1="50%" y1="0%" x2="50%" y2="100%" id="id-male-11_neon_top-1">
<stop stop-color="#ffffff" offset="0%" stop-opacity="0">
</stop >
<stop stop-color="#ffffff" offset="100%" stop-opacity="0.387">
</stop >
</linearGradient >
<radialGradient cx="0%" cy="50%" r="76%" id="id-male-11_neon_top-2" fx="0%" fy="50%" gradientTransform="translate(0,0.5) scale(1,0.956) scale(1,0.778) translate(0,-0.5)">
<stop stop-color="#06d8cd" offset="0%">
</stop >
<stop stop-color="#12d8d3" offset="56%" stop-opacity="0.535">
</stop >
<stop stop-color="#02a77b" offset="100%" stop-opacity="0">
</stop >
</radialGradient >
<linearGradient x1="69%" y1="14%" x2="25%" y2="95%" id="id-male-11_neon_top-3">
<stop stop-color="#ffffff" offset="0%" stop-opacity="0">
</stop >
<stop stop-color="#ffffff" offset="47%" stop-opacity="0.565">
</stop >
<stop stop-color="#ffffff" offset="100%" stop-opacity="0">
</stop >
</linearGradient >
<linearGradient x1="92%" y1="66%" x2="17%" y2="55%" id="id-male-11_neon_top-4">
<stop stop-color="#3587c1" offset="0%" stop-opacity="0">
</stop >
<stop stop-color="#ddc8ee" offset="51%" stop-opacity="0.517">
</stop >
<stop stop-color="#c944d0" offset="100%">
</stop >
</linearGradient >
<linearGradient x1="79%" y1="49%" x2="17%" y2="26%" id="id-male-11_neon_top-5">
<stop stop-color="#ffffff" offset="0%" stop-opacity="0">
</stop >
<stop stop-color="#ffffff" offset="100%">
</stop >
</linearGradient >
</defs >
<g transform="translate(378,525)" id="id-male-11_neon_top-6">
<path d="M 126 419 C 123 382 123 368 123 351 C 119 341 114 330 109 318 C 108 317 107 317 107 317 C 105 324 104 327 104 327 C 35 314 0 307 0 307 C 8 263 12 241 12 241 C 13 197 13 168 32 120 C 83 95 133 69 182 43 C 195 32 202 27 202 27 C 205 9 207 0 207 0 C 251 8 273 13 273 13 C 273 33 273 43 273 43 C 280 43 284 43 284 43 C 284 23 284 13 284 13 C 326 4 347 0 347 0 C 353 14 355 21 355 21 C 377 41 462 79 536 117 C 545 134 553 153 559 175 C 557 213 557 233 557 233 C 567 286 572 313 572 313 C 503 329 469 338 469 338 C 467 333 467 331 467 331 C 460 360 455 390 449 421 C 321 426 213 425 126 419 Z" fill="url(#id-male-11_neon_top-0)" id="id-male-11_neon_top-7">
</path >
<path d="M 126 419 C 124 400 123 381 123 351 L 109 318 L 107 317 C 105 324 104 327 104 327 C 87 324 79 323 79 323 C 84 283 87 264 87 264 C 81 251 77 245 77 245 C 81 229 82 221 82 221 C 71 195 65 181 65 181 C 72 186 76 188 76 188 C 50 148 38 128 38 128 C 44 129 47 129 47 129 C 69 151 79 162 79 162 C 77 143 76 134 76 134 C 77 121 78 115 78 115 C 90 151 96 169 96 169 C 91 182 88 188 88 188 C 103 224 110 242 110 242 C 159 256 183 263 183 263 C 149 275 132 281 132 281 C 329 280 428 280 428 280 C 408 273 398 270 398 270 C 435 254 454 246 454 246 C 473 210 483 191 483 191 C 475 169 471 158 471 158 C 485 116 493 95 493 95 C 496 97 498 98 498 98 C 488 139 483 160 483 160 C 491 195 495 213 495 213 C 498 214 499 215 499 215 L 532 323 L 469 338 L 467 331 C 455 391 449 421 449 421 C 427 422 416 422 416 422 C 404 380 399 359 399 359 C 366 347 350 342 350 342 C 288 343 258 344 258 344 C 287 332 302 326 302 326 C 247 312 219 305 219 305 C 239 321 249 329 249 329 C 208 349 187 358 187 358 L 179 422 L 126 419 Z" fill="#000000" fill-opacity="0.157" id="id-male-11_neon_top-8">
</path >
<path d="M 252 331 C 282 329 298 328 298 328 L 225 310 C 243 324 252 331 252 331 Z" fill="#07c4be" id="id-male-11_neon_top-9">
</path >
<path d="M 304 424 C 308 405 312 385 317 363 C 343 355 355 351 355 351 L 377 423 C 328 424 304 424 304 424 Z" fill="url(#id-male-11_neon_top-1)" id="id-male-11_neon_top-10">
</path >
<path d="M 449 421 C 448 421 448 421 448 421 C 456 341 460 302 460 302 C 443 299 434 297 434 297 C 451 290 460 286 460 286 C 472 257 478 243 478 243 C 468 247 463 249 463 249 C 475 236 481 229 481 229 C 484 206 486 194 486 194 C 498 189 504 186 504 186 C 492 217 486 232 486 232 C 481 270 478 289 478 289 L 480 335 L 469 338 L 467 331 C 455 391 449 421 449 421 Z" fill="#000000" fill-opacity="0.212" id="id-male-11_neon_top-11">
</path >
<path d="M 469 338 C 476 336 480 335 480 335 C 476 312 474 301 474 301 C 480 256 483 234 483 234 L 469 276 L 467 331 L 469 338 Z" fill="#003218" id="id-male-11_neon_top-12">
</path >
<path d="M 568 314 C 557 270 552 248 552 248 C 547 254 545 257 545 257 L 558 172 L 559 175 L 557 233 L 572 313 C 569 314 568 314 568 314 Z" fill="#000000" fill-opacity="0.195" id="id-male-11_neon_top-13">
</path >
<path d="M 483 160 L 536 118 L 536 117 L 498 98 C 488 139 483 160 483 160 Z" fill="#00d68e" id="id-male-11_neon_top-14">
</path >
<path d="M 495 97 C 488 99 484 101 484 101 C 447 84 428 76 428 76 C 379 77 355 77 355 77 C 350 83 347 86 347 86 C 314 70 297 62 297 62 C 292 61 290 61 290 61 C 342 58 368 57 368 57 L 390 44 C 454 77 489 94 495 97 Z" fill="#ffffff" fill-opacity="0.223" id="id-male-11_neon_top-15">
</path >
<path d="M 382 39 C 375 45 372 48 372 48 C 353 33 343 26 343 26 C 332 30 319 30 308 37 L 307 8 L 347 0 L 355 21 C 368 30 377 36 382 39 Z" fill="#ffffff" fill-opacity="0.175" id="id-male-11_neon_top-16">
</path >
<path d="M 253 58 C 283 58 298 58 298 58 L 277 72 C 261 63 253 58 253 58 Z" fill="#5f42ac" id="id-male-11_neon_top-17">
</path >
<path d="M 104 327 L 79 323 L 87 264 L 77 245 L 82 221 L 65 181 C 72 186 76 188 76 188 C 78 178 79 174 79 174 C 80 172 81 171 81 171 C 91 245 96 282 96 282 C 128 301 143 310 143 310 L 110 314 L 110 319 L 107 317 L 104 327 Z" fill="#000000" fill-opacity="0.116" id="id-male-11_neon_top-18">
</path >
<path d="M 268 50 C 268 55 268 58 268 58 C 287 58 296 58 296 58 C 322 39 335 30 335 30 L 357 57 L 368 57 L 382 39 L 355 21 L 347 0 L 293 11 L 290 50 C 275 50 268 50 268 50 Z" fill="#ffffff" fill-opacity="0.148" id="id-male-11_neon_top-19">
</path >
<path d="M 31 314 C 32 311 32 310 32 310 L 20 221 C 23 188 30 149 32 120 C 18 153 11 194 12 241 L 0 307 C 21 312 31 314 31 314 Z" fill="#ffffff" fill-opacity="0.243" id="id-male-11_neon_top-20">
</path >
<path d="M 265 11 C 266 37 266 49 266 49 C 274 50 278 50 278 50 C 278 96 278 119 278 119 C 283 119 285 119 285 119 C 284 73 284 50 284 50 C 288 50 290 50 290 50 L 293 11 L 284 13 L 284 43 L 273 43 L 273 13 C 268 12 265 11 265 11 Z" fill="#1e0e30" id="id-male-11_neon_top-21">
</path >
<path d="M 98 326 C 97 303 97 291 97 291 C 93 272 91 263 91 263 C 85 212 82 187 82 187 C 91 248 96 279 96 279 C 110 291 117 297 117 297 C 111 303 109 306 109 306 L 112 323 L 109 318 L 107 317 L 104 327 C 100 327 98 326 98 326 Z" fill="#3a0189" id="id-male-11_neon_top-22">
</path >
<path d="M 12 239 C 42 247 58 251 58 251 C 55 263 53 269 53 269 L 6 273 L 12 241 C 12 240 12 239 12 239 Z" fill="#3b0238" id="id-male-11_neon_top-23">
</path >
<path d="M 10 248 L 56 254 L 12 239 L 12 241 C 11 246 10 248 10 248 Z" fill="#97058b" id="id-male-11_neon_top-24">
</path >
<path d="M 22 151 C 31 135 36 127 36 127 C 53 130 62 131 62 131 C 61 126 60 121 67 115 C 138 72 173 50 173 50 C 195 58 205 62 205 62 C 193 49 186 42 186 42 C 196 37 202 35 202 35 L 198 30 L 182 43 C 132 69 82 95 32 120 C 26 135 22 145 22 151 Z" fill="#d9a5e7" id="id-male-11_neon_top-25">
</path >
<path d="M 62 131 L 75 140 L 78 115 C 83 131 86 139 86 139 C 86 126 89 113 94 100 C 204 90 259 86 259 86 L 166 71 L 173 50 L 67 115 C 63 126 62 131 62 131 Z" fill="#ffffff" fill-opacity="0.223" id="id-male-11_neon_top-26">
</path >
<path d="M 288 268 C 283 233 281 181 285 102 C 284 80 284 68 284 68 L 293 62 L 298 62 L 347 86 L 355 77 L 428 76 L 484 101 L 491 98 L 471 158 L 483 191 L 454 246 L 398 270 L 428 280 L 293 280 C 290 272 288 268 288 268 Z" fill="#ffffff" fill-opacity="0.059" id="id-male-11_neon_top-27">
</path >
<path d="M 288 268 C 283 233 281 181 285 102 C 284 80 284 68 284 68 L 293 62 L 298 62 L 347 86 L 355 77 L 428 76 L 484 101 L 491 98 L 471 158 L 483 191 L 454 246 L 398 270 L 428 280 L 293 280 C 290 272 288 268 288 268 Z" fill="url(#id-male-11_neon_top-2)" id="id-male-11_neon_top-28">
</path >
<path d="M 228 265 C 278 241 303 229 303 229 L 335 265 C 264 265 228 265 228 265 Z" fill="#16d0d3" fill-opacity="0.646" id="id-male-11_neon_top-29">
</path >
<path d="M 339 98 C 331 133 328 150 328 150 C 326 177 325 190 325 190 C 358 191 374 192 374 192 C 385 173 405 152 425 132 C 406 114 377 103 339 98 Z" fill="url(#id-male-11_neon_top-3)" id="id-male-11_neon_top-30">
</path >
<path d="M 333 306 C 351 315 360 319 360 319 L 408 302 C 358 304 333 306 333 306 Z" fill="#00a196" id="id-male-11_neon_top-31">
</path >
<path d="M 92 107 C 208 97 266 91 266 91 L 243 238 L 110 242 L 88 188 L 96 169 L 86 139 C 86 129 88 118 92 107 Z" fill="url(#id-male-11_neon_top-4)" id="id-male-11_neon_top-32">
</path >
<path d="M 207 0 C 227 4 238 6 238 6 C 235 23 233 31 233 31 L 233 44 L 202 27 C 205 9 207 0 207 0 Z" fill="url(#id-male-11_neon_top-5)" id="id-male-11_neon_top-33">
</path >
</g >
<defs >
</defs >
<g transform="translate(419,1022)" id="id-male-12_pants-0">
<path d="M 522 737 L 347 737 C 342 727 339 718 329 710 C 329 710 329 710 329 710 C 320 702 318 696 329 689 L 327 682 L 321 680 L 318 636 L 325 636 L 304 632 C 295 625 289 611 287 600 C 287 591 293 586 297 577 L 295 575 L 266 535 L 267 529 L 279 512 L 279 511 C 263 487 268 474 268 450 L 251 446 L 237 431 C 234 437 224 462 219 473 L 232 482 L 226 491 L 225 492 C 225 492 233 513 233 513 C 226 524 216 556 200 559 C 201 569 202 578 203 588 C 203 588 203 588 203 588 C 204 592 204 597 205 602 L 193 615 C 194 624 199 654 201 663 L 189 675 L 196 693 L 179 703 L 176 709 L 173 712 C 173 720 173 729 174 737 L 20 737 L 22 718 C 22 718 13 713 15 705 C 18 697 38 643 38 643 C 42 629 44 615 44 600 L 35 597 C 28 598 31 571 31 570 C 23 566 6 547 0 541 L 10 513 L 13 497 L 12 496 L 5 491 C 7 436 6 379 12 324 L 3 323 C 3 322 18 231 18 230 L 24 228 C 35 183 49 119 55 74 C 56 72 57 65 69 57 C 58 46 68 18 66 4 C 67 2 70 0 72 0 L 76 6 C 185 20 306 34 414 6 C 417 0 427 1 428 9 C 428 9 427 53 428 62 C 429 68 423 72 422 71 C 431 76 437 82 438 93 C 442 108 446 123 449 138 L 449 138 C 455 163 462 189 468 215 L 472 213 C 472 214 495 305 495 306 L 487 309 C 493 366 508 442 512 499 L 494 510 L 507 538 L 505 555 L 497 573 L 476 588 L 485 601 C 487 602 485 619 481 623 L 500 667 C 500 667 499 675 496 681 C 496 681 504 679 506 682 C 508 685 512 708 512 708 L 522 737 Z" fill="#2d1c20" id="id-male-12_pants-1">
</path >
<path d="M 464 737 L 347 737 L 338 719 C 327 708 312 700 329 689 L 327 682 L 321 680 L 318 636 L 325 636 L 304 632 C 304 632 297 626 295 622 C 284 597 285 600 297 577 L 295 575 L 266 535 L 267 529 L 279 512 L 279 511 C 263 487 268 474 268 450 L 251 446 L 237 431 C 234 437 221 469 219 473 L 232 482 L 226 491 L 225 492 L 233 513 C 231 515 212 561 200 559 C 201 570 205 591 205 602 L 193 615 L 201 663 L 189 675 L 196 693 L 179 703 L 176 709 L 173 712 C 173 720 173 729 174 737 L 94 737 L 41 631 C 43 625 43 607 44 600 L 35 597 C 28 598 31 571 31 570 L 26 567 L 31 523 C 40 526 105 547 125 543 C 140 539 141 470 141 469 C 157 456 192 428 209 415 C 227 419 252 425 270 432 L 270 426 L 308 392 L 477 506 C 458 581 423 640 464 737 Z" fill="#392529" id="id-male-12_pants-1">
</path >
<polygon points="83 601 152 609 106 626" fill="#452f2f" id="id-male-12_pants-1">
</polygon >
<path d="M 204 597 L 204 601 L 181 601 L 167 593 L 57 579 L 95 565 L 75 536 C 81 536 100 539 105 539 C 107 540 153 574 156 576 L 201 571 L 204 597 Z" fill="#452f2f" id="id-male-12_pants-1">
</path >
<path d="M 227 417 L 226 419 L 226 419 L 188 450 L 222 466 C 222 466 219 473 219 473 L 225 477 L 137 514 L 135 515 L 121 483 L 211 415 L 227 417 Z" fill="#473131" id="id-male-12_pants-1">
</path >
<polygon points="282 506 306 523 359 489 316 437" fill="#473131" id="id-male-12_pants-1">
</polygon >
<path d="M 359 632 L 421 613 L 387 637 L 336 717 C 325 706 314 699 329 689 L 327 682 L 321 680 L 318 636 L 325 636 L 304 632 C 297 627 290 612 287 600 L 364 568 L 364 584 C 374 574 422 553 435 547 L 443 547 L 365 610 L 300 610 L 299 624 L 359 632 Z" fill="#463030" id="id-male-12_pants-1">
</path >
<path d="M 365 618 L 417 589 L 455 545 L 477 541 L 495 565 C 465 580 397 610 365 618 Z" fill="#463030" id="id-male-12_pants-1">
</path >
<path d="M 55 153 L 88 131 L 70 167 L 31 196 C 39 167 51 104 56 73 L 99 88 L 56 133 L 55 153 Z" fill="#392f48" id="id-male-12_pants-1">
</path >
<polygon points="89 113 120 105 112 123" fill="#3d292b" id="id-male-12_pants-1">
</polygon >
<path d="M 449 138 L 414 105 L 404 161 L 379 231 L 311 211 L 295 154 L 262 166 L 300 224 L 228 225 L 247 206 L 245 103 L 191 216 L 163 211 C 166 194 173 159 177 142 L 153 135 L 151 134 C 152 130 162 92 163 88 C 216 93 281 96 333 92 C 336 107 343 143 345 157 L 376 83 L 424 73 C 442 81 440 107 449 138 Z" fill="#4c3635" id="id-male-12_pants-1">
</path >
<path d="M 357 27 L 357 76 C 267 95 155 80 68 57 C 59 50 68 7 66 4 C 67 2 70 0 72 0 L 76 6 C 155 17 271 28 350 17 L 357 27 Z" fill="#473231" id="id-male-12_pants-1">
</path >
<path d="M 341 18 L 339 75 L 311 82 L 218 82 L 162 73 L 158 15 C 227 21 278 26 341 18 Z" fill="#534048" id="id-male-12_pants-1">
</path >
<polygon points="163 88 226 93 186 110 161 95" fill="#352125" id="id-male-12_pants-1">
</polygon >
<path d="M 341 135 L 341 141 L 336 136 L 339 134 L 337 122 L 309 114 L 323 105 L 277 96 C 288 93 321 93 333 92 L 341 135 Z" fill="#3a2529" id="id-male-12_pants-1">
</path >
<polygon points="171 172 177 142 153 135 221 113" fill="#3c282a" id="id-male-12_pants-1">
</polygon >
<polygon points="247 94 190 172 200 110 238 94" fill="#584553" id="id-male-12_pants-1">
</polygon >
<polygon points="199 120 195 143 221 113" fill="#4d3a45" id="id-male-12_pants-1">
</polygon >
<polygon points="253 167 265 162 265 141 299 113 249 95" fill="#55424b" id="id-male-12_pants-1">
</polygon >
<path d="M 438 90 L 393 89 L 424 73 C 432 77 437 81 438 90 Z" fill="#3a324b" id="id-male-12_pants-1">
</path >
<path d="M 464 198 L 439 185 L 414 108 L 451 146 C 456 165 460 185 464 198 Z" fill="#2c2332" id="id-male-12_pants-1">
</path >
<path d="M 512 499 C 502 506 481 515 450 526 L 440 525 L 392 559 L 344 509 L 361 487 C 366 482 299 409 295 403 C 295 403 287 394 287 394 C 276 399 253 410 243 417 L 212 393 L 208 397 L 139 466 L 167 489 C 166 490 143 514 141 512 C 138 518 131 531 128 538 L 102 534 L 68 512 C 60 513 49 512 42 511 C 35 507 10 496 5 491 C 7 436 6 379 12 324 L 3 323 C 3 322 18 231 18 230 L 24 228 C 24 228 30 202 30 201 C 43 196 59 188 73 186 L 96 139 L 118 142 L 148 129 L 148 144 L 165 147 L 165 165 C 167 173 171 189 173 197 C 248 215 248 213 323 200 L 332 183 L 339 156 L 347 156 C 347 155 348 134 348 132 L 378 155 L 404 152 C 409 164 418 185 423 196 L 426 197 L 465 206 C 466 209 467 212 468 214 L 472 213 C 472 213 495 305 495 306 L 487 309 C 493 366 508 442 512 499 Z" fill="#a94125" id="id-male-12_pants-1">
</path >
<path d="M 522 737 L 417 737 L 404 705 L 383 703 L 368 697 C 370 693 374 638 374 635 L 429 637 L 453 614 L 469 595 L 480 619 L 484 615 C 484 618 480 622 482 625 C 482 625 493 651 493 651 L 500 667 C 500 668 498 678 496 681 C 498 680 504 679 506 682 C 508 685 512 708 512 708 L 522 737 Z" fill="#7b2c18" id="id-male-12_pants-1">
</path >
<path d="M 147 688 L 97 717 L 94 737 L 20 737 L 22 718 C 18 716 13 711 15 705 C 18 697 38 643 38 643 L 43 622 L 44 600 L 54 604 L 72 632 L 72 632 L 74 635 L 108 635 L 120 630 C 120 630 137 677 147 688 Z" fill="#4c1911" id="id-male-12_pants-1">
</path >
<polygon points="481 618 425 688 374 641 374 635 429 637 453 614 469 595 480 619" fill="#993d21" id="id-male-12_pants-1">
</polygon >
<path d="M 499 680 C 492 689 482 703 475 711 C 475 711 472 727 470 737 L 522 737 L 512 708 C 512 708 508 685 506 682 C 504 680 501 680 499 680 Z" fill="#4a1a11" id="id-male-12_pants-1">
</path >
<path d="M 417 737 L 481 737 C 480 727 478 702 478 693 L 456 721 L 435 682 L 406 709 L 417 737 Z" fill="#581d0f" id="id-male-12_pants-1">
</path >
<path d="M 499 680 L 499 680 C 489 693 474 711 464 724 C 470 707 486 668 493 651 C 493 651 500 667 500 667 C 500 668 498 678 496 681 C 497 681 498 681 499 680 L 499 680 Z" fill="#702915" id="id-male-12_pants-1">
</path >
<path d="M 500 667 C 499 670 499 672 498 675 L 473 702 L 473 702 C 469 706 460 714 456 719 L 438 682 L 482 625 L 500 667 Z" fill="#993d21" id="id-male-12_pants-1">
</path >
<path d="M 43 654 L 65 681 L 42 726 L 15 708 C 24 672 46 634 44 600 L 54 604 L 72 632 L 60 667 L 43 654 Z" fill="#7e3c1b" id="id-male-12_pants-1">
</path >
<path d="M 147 688 L 97 717 L 97 717 C 91 708 67 674 60 667 L 72 632 L 72 632 L 74 635 L 108 635 L 120 630 C 120 630 137 677 147 688 Z" fill="#682712" id="id-male-12_pants-1">
</path >
<path d="M 97 717 L 94 737 L 20 737 L 22 718 C 22 718 21 718 20 717 L 46 732 L 70 678 L 97 717 Z" fill="#541b0d" id="id-male-12_pants-1">
</path >
<path d="M 131 257 L 133 528 C 131 532 129 535 128 538 L 102 534 L 68 512 C 60 513 49 512 42 511 C 35 507 10 496 5 491 C 7 436 6 379 12 324 L 3 323 C 3 322 18 231 18 230 L 24 228 C 24 228 30 202 30 201 C 43 196 59 188 73 186 L 96 139 L 118 142 L 135 135 L 131 257 Z" fill="#752a16" id="id-male-12_pants-1">
</path >
<path d="M 46 500 L 47 511 C 44 513 16 498 13 496 C 13 497 5 492 5 491 C 7 436 6 379 12 324 L 3 323 C 3 322 18 231 18 230 L 43 224 C 43 228 31 320 31 322 L 62 384 L 34 377 L 45 493 L 46 500 Z" fill="#8d411f" id="id-male-12_pants-1">
</path >
<path d="M 129 213 L 69 212 C 68 212 61 218 60 218 L 25 226 L 25 226 L 30 201 C 42 196 59 189 72 186 L 72 192 L 80 187 L 101 144 L 129 213 Z" fill="#6c2111" id="id-male-12_pants-1">
</path >
<polygon points="47 194 44 220 44 222 25 226 25 226 30 201" fill="#732915" id="id-male-12_pants-1">
</polygon >
<polygon points="246 228 214 300 174 328 163 308 190 201 245 212" fill="#d25428" id="id-male-12_pants-1">
</polygon >
<path d="M 295 403 L 287 393 C 276 399 253 410 243 417 L 212 393 L 208 397 L 215 304 L 236 363 L 264 328 L 254 294 L 274 272 L 295 403 Z" fill="#ab2924" id="id-male-12_pants-1">
</path >
<polygon points="281 294 309 332 295 366" fill="#c84227" id="id-male-12_pants-1">
</polygon >
<polygon points="488 422 454 524 450 526 440 525 438 526 414 514 335 431 454 380 426 517" fill="#d95827" id="id-male-12_pants-1">
</polygon >
<polygon points="425 328 314 323 273 256 254 286 256 211 323 201 332 183 339 157 347 157 347 154 372 151 378 155 404 152 413 172 351 199 423 195 425 195 426 197 443 222" fill="#ed6124" id="id-male-12_pants-1">
</polygon >
<path d="M 467 214 C 451 222 404 229 386 232 L 302 230 C 353 231 418 223 467 211 C 467 212 467 214 467 214 Z" fill="#b42e26" id="id-male-12_pants-1">
</path >
<path d="M 511 487 C 483 495 442 506 414 513 L 408 510 L 324 431 C 317 376 307 289 300 233 C 300 233 324 324 324 324 L 426 326 C 427 327 493 305 495 305 L 495 306 L 487 309 L 488 313 L 425 332 L 327 336 C 329 354 333 417 334 433 L 416 508 L 511 480 L 511 487 Z" fill="#b22d25" id="id-male-12_pants-1">
</path >
<path d="M 187 221 L 187 226 L 174 324 L 174 327 L 167 415 L 155 428 L 163 322 L 161 319 L 155 316 L 51 314 C 39 318 19 324 6 329 L 6 325 L 49 308 L 165 311 L 167 311 L 185 225 C 179 224 65 221 56 221 C 48 223 26 229 18 231 L 18 230 L 24 228 C 24 227 25 226 25 226 C 32 224 49 219 57 217 L 61 217 L 185 221 L 187 221 Z" fill="#792016" id="id-male-12_pants-1">
</path >
<path d="M 86 491 C 86 492 76 502 76 502 C 75 502 55 501 46 500 C 45 503 7 482 5 482 C 5 478 5 475 5 471 L 43 492 L 45 493 L 71 495 L 84 482 C 84 482 87 490 86 491 Z" fill="#752b16" id="id-male-12_pants-1">
</path >
<path d="M 86 491 C 86 492 76 502 76 502 C 75 502 55 501 46 500 L 45 493 L 71 495 L 84 482 C 84 482 87 490 86 491 Z" fill="#792016" id="id-male-12_pants-1">
</path >
<path d="M 186 518 L 185 517 C 185 517 186 512 186 512 L 161 494 L 135 523 L 121 548 L 127 553 L 123 556 L 106 551 C 105 546 105 538 104 533 C 103 534 100 538 99 539 C 99 540 102 554 102 555 L 125 562 L 133 555 L 152 568 C 154 567 160 563 161 561 L 170 562 C 170 562 191 523 191 523 L 186 518 Z M 138 547 L 138 543 L 159 508 C 159 508 160 507 160 507 C 160 507 165 511 166 511 L 145 553 L 138 547 Z" fill="#485062" id="id-male-12_pants-47" fill-rule="nonzero">
</path >
<path d="M 191 523 L 170 562 L 161 561 C 160 563 154 567 152 568 L 133 555 L 125 562 L 102 555 L 99 539 L 104 533 L 106 551 L 123 556 C 125 554 131 551 133 550 L 133 538 L 139 537 C 139 540 138 544 138 547 L 145 553 L 166 511 L 160 507 L 167 498 L 186 512 C 186 512 185 517 185 517 L 191 523 Z" fill="#80899d" id="id-male-12_pants-1">
</path >
<path d="M 233 513 C 231 515 212 561 200 559 L 200 560 L 172 564 L 160 562 L 160 561 C 158 560 148 554 146 553 L 167 510 L 185 517 L 185 517 L 186 518 L 220 512 L 220 500 L 224 491 L 226 491 L 225 492 L 233 513 Z" fill="#050606" id="id-male-12_pants-1">
</path >
<path d="M 191 523 L 170 562 C 169 562 158 560 157 559 L 179 519 L 191 523 Z" fill="#20376c" id="id-male-12_pants-1">
</path >
<path d="M 346 580 L 295 575 L 266 535 L 267 529 L 279 512 L 282 515 C 282 515 276 526 277 533 C 277 540 275 539 284 543 C 294 546 310 547 310 547 L 346 580 Z" fill="#050606" id="id-male-12_pants-1">
</path >
<path d="M 380 546 L 352 517 L 316 548 L 309 548 L 340 578 L 342 580 L 352 581 L 356 577 C 356 577 357 577 358 578 C 362 565 372 556 381 548 L 380 546 Z M 356 570 L 355 569 L 329 545 L 336 538 C 341 542 358 558 363 562 L 356 570 Z" fill="#1d2e5b" id="id-male-12_pants-47" fill-rule="nonzero">
</path >
<polygon points="382 560 363 580 357 578 353 572 368 556 341 532 322 550 315 549 314 541 339 519 375 554 374 556" fill="#4e576a" id="id-male-12_pants-1">
</polygon >
<polygon points="373 570 363 580 357 578 353 572 360 565" fill="#7e879b" id="id-male-12_pants-1">
</polygon >
<polygon points="331 520 340 536 344 523" fill="#7b8498" id="id-male-12_pants-1">
</polygon >
<polygon points="356 543 361 544 361 555 371 562 390 558 391 548 390 546 393 542 396 545 394 561 370 567 357 558" fill="#7e879b" id="id-male-12_pants-1">
</polygon >
<polygon points="121 634 126 634 193 616 201 657 145 682" fill="#050606" id="id-male-12_pants-1">
</polygon >
<polygon points="125 631 149 684 174 671 152 623" fill="#3f4556" id="id-male-12_pants-1">
</polygon >
<polygon points="128 631 130 640 154 630 151 624" fill="#747c91" id="id-male-12_pants-1">
</polygon >
<path d="M 318 636 C 321 634 370 638 374 638 L 368 692 L 322 680 L 318 636 Z" fill="#050606" id="id-male-12_pants-1">
</path >
<polygon points="336 688 362 696 369 634 340 633" fill="#3f4556" id="id-male-12_pants-1">
</polygon >
<polygon points="344 634 341 642 369 641 369 634" fill="#626c7e" id="id-male-12_pants-1">
</polygon >
<path d="M 395 71 L 395 80 L 363 82 L 360 76 L 373 74 L 371 24 L 358 26 C 358 25 358 19 358 19 L 393 15 L 393 22 L 381 23 L 383 73 L 395 71 Z" fill="#7f889e" id="id-male-12_pants-1">
</path >
<polygon points="370 18 363 25 358 26 358 19" fill="#cfd2d6" id="id-male-12_pants-1">
</polygon >
<polygon points="362 77 372 75 364 81" fill="#cfd2d6" id="id-male-12_pants-1">
</polygon >
<path d="M 428 62 C 428 63 428 64 428 65 L 396 69 L 395 22 L 428 8 C 428 9 427 52 428 62 Z" fill="#050606" id="id-male-12_pants-1">
</path >
<path d="M 67 56 C 154 79 265 79 356 75 L 356 28 L 321 29 L 319 31 C 258 31 112 21 66 6 L 67 56 Z" fill="#050606" id="id-male-12_pants-1">
</path >
<path d="M 115 69 L 114 78 L 109 78 L 108 128 L 115 135 C 116 168 112 224 106 256 L 103 534 L 105 543 L 134 544 C 132 418 133 252 145 129 L 150 127 L 155 84 L 148 83 L 148 74 L 115 69 Z" fill="#050606" id="id-male-12_pants-1">
</path >
<polygon points="110 82 114 80 153 85 145 88" fill="#474465" id="id-male-12_pants-1">
</polygon >
<polygon points="116 93 114 101 143 104" fill="#474465" id="id-male-12_pants-1">
</polygon >
<polygon points="112 113 110 127 126 134 145 127 145 117" fill="#474465" id="id-male-12_pants-1">
</polygon >
<path d="M 349 89 L 349 80 L 359 78 C 359 78 356 86 381 83 L 387 84 L 388 135 L 380 140 C 379 174 385 230 390 263 L 393 541 L 391 546 L 362 546 C 364 430 362 247 351 136 L 346 131 L 342 88 L 349 89 Z" fill="#050606" id="id-male-12_pants-1">
</path >
<polygon points="344 91 351 94 386 88 381 86" fill="#474465" id="id-male-12_pants-1">
</polygon >
<polygon points="353 109 381 100 382 108" fill="#474465" id="id-male-12_pants-1">
</polygon >
<polygon points="352 122 384 120 386 132 372 140 352 133" fill="#474465" id="id-male-12_pants-1">
</polygon >
</g >
<defs >
</defs >
<g transform="translate(562,241)" id="id-male-25_32_hair-0">
<g id="id-male-25_32_hair-1">
<path d="M 27 167 L 77 160 L 88 150 L 100 151 L 107 159 C 146 157 143 161 180 143 C 144 109 48 116 13 143 L 27 167 Z" fill="#1c0406" opacity="0.47" id="id-male-25_32_hair-2">
</path >
<path d="M 177 174 L 179 165 L 182 168 L 187 163 C 186 152 191 140 177 131 C 177 131 179 167 177 174 Z" fill="#3e1913" id="id-male-25_32_hair-2">
</path >
<path d="M 16 169 C 16 169 17 145 20 143 C 20 143 16 146 16 148 L 14 137 C 11 141 9 145 7 149 C 6 153 6 157 7 162 C 7 162 18 166 16 169 Z" fill="#3e1913" id="id-male-25_32_hair-2">
</path >
<path d="M 193 134 C 193 140 192 143 190 149 L 187 150 L 186 143 L 186 143 C 131 84 27 131 13 142 L 7 153 L 4 147 C -8 124 9 52 19 40 C 45 17 87 7 86 7 C 84 -1 99 0 99 0 C 101 0 102 0 103 1 C 104 1 105 1 106 2 C 107 2 108 3 108 4 C 108 4 109 5 109 5 C 141 13 165 25 173 35 C 179 42 179 47 184 61 C 197 106 194 128 193 134 Z" fill="#1c2656" id="id-male-25_32_hair-2">
</path >
</g >
<g transform="translate(2,16)" id="id-male-25_32_hair-6">
<path d="M 10 111 L 2 125 C 0 107 -1 87 2 69 C 9 81 10 111 10 111 Z" fill="#21386f" id="id-male-25_32_hair-2">
</path >
<path d="M 173 34 C 167 27 142 1 123 0 C 83 0 18 1 14 49 L 24 63 C 14 81 12 87 14 106 C 24 104 126 75 173 104 C 176 94 178 64 173 34 Z M 143 11 C 143 11 148 17 149 17 C 149 17 143 20 143 20 L 137 14 L 143 11 Z M 53 9 L 60 8 L 57 14 L 48 14 C 50 12 51 11 53 9 L 53 9 Z" fill="#1e4382" id="id-male-25_32_hair-8" fill-rule="nonzero">
</path >
</g >
<g transform="translate(4,4)" id="id-male-25_32_hair-9">
<path d="M 186 135 L 183 141 C 99 108 88 115 7 141 L 0 137 C 26 82 109 72 157 104 C 169 113 180 121 186 135 Z" fill="#5174ab" id="id-male-25_32_hair-2">
</path >
<path d="M 23 74 C 23 74 17 101 11 108 L 11 97 L 23 74 Z" fill="#4269b1" id="id-male-25_32_hair-2">
</path >
<path d="M 164 30 L 175 42 C 174 32 160 21 140 13 C 128 7 113 3 101 0 C 101 0 88 0 87 0 L 85 3 L 82 3 C 82 3 82 3 82 3 C 82 3 42 12 15 35 C 17 35 39 21 39 21 L 32 28 L 48 23 L 50 20 L 59 19 L 58 21 C 58 21 64 20 81 19 C 99 19 122 24 122 24 C 130 38 134 80 135 93 L 150 103 C 151 102 170 48 171 46 L 155 24 L 164 30 Z M 132 24 L 141 21 C 141 21 148 29 148 29 C 148 29 140 33 140 33 L 132 24 Z" fill="#25579b" id="id-male-25_32_hair-8" fill-rule="nonzero">
</path >
</g >
<g transform="translate(4,4)" id="id-male-25_32_hair-13">
<polygon points="84 3 86 1 87 82 85 83" fill="#1c2656" id="id-male-25_32_hair-2">
</polygon >
<polygon points="100 0 102 1 106 83 103 82" fill="#1c2656" id="id-male-25_32_hair-2">
</polygon >
<path d="M 77 23 L 97 23 L 98 54 C 96 61 81 65 76 59 L 76 52 C 95 65 89 39 90 29 L 77 29 L 77 23 Z" fill="#ffffff" id="id-male-25_32_hair-2">
</path >
<path d="M 100 37 L 100 42 C 110 40 112 53 100 52 L 98 57 C 112 54 113 70 98 68 L 98 58 C 96 60 94 62 91 62 L 91 74 L 105 74 C 114 74 124 57 110 54 C 118 52 116 37 108 37 C 106 37 100 37 100 37 Z" fill="#ffffff" id="id-male-25_32_hair-2">
</path >
<path d="M 186 135 L 186 135 C 100 99 80 107 0 136 C 19 101 51 89 95 82 C 131 79 178 111 186 135 Z" fill="#a7c2e5" id="id-male-25_32_hair-2">
</path >
<path d="M 186 135 L 186 135 C 175 133 123 109 98 111 C 101 101 98 87 96 82 C 132 80 179 111 186 135 Z" fill="#c7dff4" id="id-male-25_32_hair-2">
</path >
</g >
</g >
<defs >
</defs >
<path d="M 1202 1685 C 1201 1683 1198 1681 1197 1679 C 1196 1678 1196 1676 1196 1675 C 1196 1674 1194 1672 1193 1671 C 1193 1670 1192 1669 1192 1668 C 1192 1667 1195 1666 1196 1665 C 1198 1663 1200 1661 1202 1658 C 1207 1649 1216 1643 1226 1641 C 1240 1638 1254 1644 1263 1655 C 1264 1657 1266 1660 1265 1663 C 1265 1664 1263 1665 1263 1666 C 1263 1667 1265 1669 1266 1670 C 1271 1673 1269 1673 1270 1678 C 1270 1682 1274 1681 1274 1685 L 1274 1685 L 1274 1686 C 1274 1686 1274 1686 1274 1686 C 1273 1688 1271 1688 1270 1689 C 1268 1691 1267 1692 1266 1694 C 1263 1698 1261 1700 1258 1704 C 1242 1719 1214 1716 1202 1696 C 1201 1695 1199 1691 1200 1689 C 1201 1688 1202 1688 1202 1685 L 1202 1685 Z M 1268 1685 C 1267 1682 1265 1682 1264 1679 C 1264 1678 1264 1677 1264 1676 C 1264 1675 1264 1674 1264 1674 C 1264 1673 1263 1672 1262 1672 C 1260 1670 1256 1669 1258 1665 C 1259 1662 1261 1662 1258 1658 C 1246 1643 1223 1641 1210 1656 C 1209 1658 1208 1659 1207 1661 C 1205 1663 1202 1665 1200 1667 C 1197 1669 1197 1669 1200 1671 C 1203 1675 1201 1676 1203 1679 C 1204 1681 1207 1682 1208 1685 L 1208 1685 L 1208 1685 C 1207 1690 1203 1688 1207 1694 C 1216 1706 1232 1711 1246 1705 C 1249 1704 1252 1702 1255 1699 C 1257 1697 1259 1694 1261 1691 C 1263 1689 1267 1687 1268 1685 L 1268 1685 Z M 1254 1685 C 1254 1682 1252 1682 1252 1680 C 1251 1677 1251 1673 1255 1674 C 1258 1675 1256 1678 1258 1680 C 1259 1682 1260 1682 1260 1685 L 1261 1686 L 1260 1686 C 1259 1688 1257 1689 1255 1690 C 1248 1694 1246 1699 1237 1700 C 1231 1701 1225 1700 1221 1697 C 1219 1696 1216 1694 1215 1692 C 1213 1689 1216 1688 1216 1685 C 1215 1683 1212 1682 1211 1680 C 1208 1677 1210 1673 1214 1674 L 1214 1674 L 1215 1675 C 1216 1678 1215 1679 1217 1681 C 1219 1682 1222 1683 1222 1686 C 1222 1689 1220 1690 1224 1692 C 1230 1696 1238 1695 1244 1691 C 1246 1690 1253 1687 1254 1685 L 1254 1685 Z M 1244 1674 C 1242 1675 1239 1674 1237 1673 C 1236 1672 1233 1670 1232 1669 C 1231 1669 1231 1668 1231 1667 C 1231 1666 1233 1665 1234 1664 C 1235 1662 1237 1661 1238 1659 C 1242 1652 1249 1658 1247 1663 C 1246 1665 1243 1666 1243 1668 C 1243 1670 1246 1671 1244 1674 L 1244 1674 L 1244 1674 L 1244 1674 Z M 1222 1656 C 1224 1655 1227 1656 1228 1659 C 1229 1660 1229 1661 1229 1663 C 1228 1665 1223 1666 1225 1669 C 1225 1670 1226 1670 1226 1671 C 1227 1674 1226 1675 1223 1675 C 1222 1675 1219 1673 1218 1672 C 1216 1671 1212 1669 1214 1666 C 1215 1664 1217 1664 1218 1662 C 1219 1660 1220 1658 1222 1656 L 1222 1656 Z" fill="black" opacity="1" id="id-icons-Leftover-0">
</path >
  <defs>
      <linearGradient id="Gradient1">
        <stop class="stop1" offset="0%"/>
        <stop class="stop2" offset="100%"/>
      </linearGradient>
      <style type="text/css"><![CDATA[
        #tbar { fill: url(#Gradient1); }
        .stop1 { stop-color: red; }
        .stop2 { stop-color: blue; }
      ]]></style>
  </defs>
<text x="50" y="115" font-family="Trebuchet MS" font-weight="900" font-size="5.5em" letter-spacing="-3.0" text-transform="uppercase" fill="black">HARBOR DOUGLAS</text>
<text x="50" y="180" font-family="Trebuchet MS" font-size="3.5em" font-weight="900" letter-spacing="-2" text-transform="uppercase" fill="black">LEFTOVER</text>
<g transform="translate(55,195)">
  <rect id="tbar" y="0" width="185" height="13" fill="url(#Gradient1)"></rect>
  <rect x="185" y="1" width="-1" height="11" fill="#E3E3E3"></rect>
</g>
<text x="50" y="270" font-family="Trebuchet MS" font-size="3.5em" font-weight="900" letter-spacing="-2" text-transform="uppercase" fill="black">CB-01518</text>

<g transform="translate(50,1430)">
  <text x="0" y="-5" font-family="Helvetica" font-size="2.5em" font-weight="900" letter-spacing="-2" text-transform="uppercase" fill="black">BODY</text>
  <rect width="114" height="30" fill="black"></rect>
  <rect width="190" height="30" fill="none" stroke="black"></rect>
  <text x="196" y="27" font-family="Helvetica" font-size="2.2em" font-weight="900" letter-spacing="0" text-transform="uppercase" fill="black">18</text>
</g>
<g transform="translate(50,1505)">
  <text x="0" y="-5" font-family="Helvetica" font-size="2.5em" font-weight="900" letter-spacing="-2" text-transform="uppercase" fill="black">MIND</text>
  <rect width="95" height="30" fill="black"></rect>
  <rect width="190" height="30" fill="none" stroke="black"></rect>
  <text x="196" y="27" font-family="Helvetica" font-size="2.3em" font-weight="900" letter-spacing="0" text-transform="uppercase" fill="black">15</text>
</g>
<g transform="translate(50,1580)">
  <text x="0" y="-5" font-family="Helvetica" font-size="2.5em" font-weight="900" letter-spacing="-2" text-transform="uppercase" fill="black">SOUL</text>
  <rect width="32" height="30" fill="black"></rect>
  <rect width="190" height="30" fill="none" stroke="black"></rect>
  <text x="196" y="27" font-family="Helvetica" font-size="2.2em" font-weight="900" letter-spacing="0" text-transform="uppercase" fill="black">5</text>
</g>
<g transform="translate(50,1675)">
  <text x="0" y="-5" font-family="Helvetica" font-size="2.5em" font-weight="900" letter-spacing="-2" text-transform="uppercase" fill="black">TRAITS</text>
  <rect width="48" height="30" fill="black"></rect>
  <rect width="190" height="30" fill="none" stroke="black"></rect>
  <text x="196" y="27" font-family="Helvetica" font-size="2.2em" font-weight="900" letter-spacing="0" text-transform="uppercase" fill="black">3</text>
</g>
</svg>