<?xml version="1.0" encoding="UTF-8"?>
<svg width="1320px" height="1760px" viewBox="0 0 1320 1760" version="1.1" xmlns="http://www.w3.org/2000/svg" xmlns:xlink="http://www.w3.org/1999/xlink">
<defs >
<linearGradient x1="0%" y1="41%" x2="100%" y2="41%" id="id-bg-29-Artboard-0">
<stop stop-color="#c8d4f2" offset="0%">
</stop >
<stop stop-color="#94a0be" offset="100%">
</stop >
</linearGradient >
<linearGradient x1="0%" y1="50%" x2="100%" y2="50%" id="id-bg-29-Artboard-1">
<stop stop-color="#e4ebff" offset="0%">
</stop >
<stop stop-color="#6a7595" offset="100%">
</stop >
</linearGradient >
<filter width="106%" height="106%" x="-3%" y="-3%" id="id-bg-29-Artboard-2" filterUnits="objectBoundingBox">
<feGaussianBlur in="SourceGraphic" stdDeviation="10">
</feGaussianBlur >
</filter >
<linearGradient x1="0%" y1="50%" x2="100%" y2="50%" id="id-bg-29-Artboard-3">
<stop stop-color="#c9d0f1" offset="0%">
</stop >
<stop stop-color="#949fc0" offset="100%">
</stop >
</linearGradient >
</defs >
<g stroke="none" stroke-width="1" fill="none" id="id-bg-29-Artboard-4" fill-rule="evenodd">
<g id="id-bg-29-Artboard-5">
<rect fill="url(#id-bg-29-Artboard-0)" width="1320" height="1760" x="0" y="0" id="id-bg-29-Artboard-6">
</rect >
<circle cx="661" cy="898" r="504" fill="url(#id-bg-29-Artboard-1)" id="id-bg-29-Artboard-7" filter="url(#id-bg-29-Artboard-2)">
</circle >
<circle cx="660" cy="897" r="491" fill="url(#id-bg-29-Artboard-3)" id="id-bg-29-Artboard-7">
</circle >
</g >
</g >
<defs >
<linearGradient x1="100%" y1="46%" x2="12%" y2="47%" id="id-female-6.6_base_4-0">
<stop stop-color="#c5663d" offset="0%">
</stop >
<stop stop-color="#c1633a" offset="21%">
</stop >
<stop stop-color="#eda377" offset="46%">
</stop >
<stop stop-color="#eb8c5c" offset="80%">
</stop >
<stop stop-color="#dc7e50" offset="100%">
</stop >
</linearGradient >
<linearGradient x1="53%" y1="81%" x2="50%" y2="21%" id="id-female-6.6_base_4-1">
<stop stop-color="#cd6c5b" offset="0%">
</stop >
<stop stop-color="#de7862" offset="24%">
</stop >
<stop stop-color="#df8352" offset="100%">
</stop >
</linearGradient >
<linearGradient x1="52%" y1="-4%" x2="46%" y2="70%" id="id-female-6.6_base_4-2">
<stop stop-color="#be6352" offset="0%">
</stop >
<stop stop-color="#b25041" offset="100%">
</stop >
</linearGradient >
<linearGradient x1="46%" y1="43%" x2="15%" y2="43%" id="id-female-6.6_base_4-3">
<stop stop-color="#df8655" offset="0%">
</stop >
<stop stop-color="#b95831" offset="100%">
</stop >
</linearGradient >
<linearGradient x1="54%" y1="37%" x2="12%" y2="72%" id="id-female-6.6_base_4-4">
<stop stop-color="#3c050a" offset="0%">
</stop >
<stop stop-color="#9a4336" offset="100%">
</stop >
</linearGradient >
<linearGradient x1="40%" y1="14%" x2="61%" y2="85%" id="id-female-6.6_base_4-5">
<stop stop-color="#6e1b17" offset="0%">
</stop >
<stop stop-color="#852720" offset="100%">
</stop >
</linearGradient >
<linearGradient x1="27%" y1="47%" x2="91%" y2="49%" id="id-female-6.6_base_4-6">
<stop stop-color="#e19d89" offset="0%">
</stop >
<stop stop-color="#ffbba2" offset="100%">
</stop >
</linearGradient >
<linearGradient x1="47%" y1="60%" x2="49%" y2="79%" id="id-female-6.6_base_4-7">
<stop stop-color="#e78666" offset="0%">
</stop >
<stop stop-color="#e07c62" offset="60%">
</stop >
<stop stop-color="#ed9f7d" offset="100%">
</stop >
</linearGradient >
<linearGradient x1="29%" y1="56%" x2="69%" y2="53%" id="id-female-6.6_base_4-8">
<stop stop-color="#d47d53" offset="0%">
</stop >
<stop stop-color="#c86443" offset="8%">
</stop >
<stop stop-color="#d9774f" offset="18%">
</stop >
<stop stop-color="#d26b50" offset="38%">
</stop >
<stop stop-color="#d1694c" offset="65%">
</stop >
<stop stop-color="#cd6944" offset="81%">
</stop >
<stop stop-color="#be5b3f" offset="100%">
</stop >
</linearGradient >
<linearGradient x1="47%" y1="45%" x2="54%" y2="46%" id="id-female-6.6_base_4-9">
<stop stop-color="#d26a4c" offset="0%">
</stop >
<stop stop-color="#c96947" offset="62%">
</stop >
<stop stop-color="#bc5b3a" offset="77%">
</stop >
<stop stop-color="#d18459" offset="100%">
</stop >
</linearGradient >
<linearGradient x1="51%" y1="7%" x2="50%" y2="100%" id="id-female-6.6_base_4-10">
<stop stop-color="#d26c48" offset="0%">
</stop >
<stop stop-color="#e28f6d" offset="75%">
</stop >
<stop stop-color="#da876b" offset="100%">
</stop >
</linearGradient >
<linearGradient x1="51%" y1="11%" x2="49%" y2="93%" id="id-female-6.6_base_4-11">
<stop stop-color="#dc7e50" offset="0%">
</stop >
<stop stop-color="#da7b4d" offset="73%">
</stop >
<stop stop-color="#e08955" offset="100%">
</stop >
</linearGradient >
<linearGradient x1="51%" y1="-5%" x2="48%" y2="96%" id="id-female-6.6_base_4-12">
<stop stop-color="#d8794c" offset="0%">
</stop >
<stop stop-color="#c6683e" offset="100%">
</stop >
</linearGradient >
<linearGradient x1="50%" y1="19%" x2="50%" y2="69%" id="id-female-6.6_base_4-13">
<stop stop-color="#a84c29" offset="0%">
</stop >
<stop stop-color="#742f19" offset="45%">
</stop >
<stop stop-color="#a54622" offset="100%">
</stop >
</linearGradient >
<linearGradient x1="46%" y1="74%" x2="39%" y2="35%" id="id-female-6.6_base_4-14">
<stop stop-color="#b04f3a" offset="0%">
</stop >
<stop stop-color="#c6644a" offset="51%">
</stop >
<stop stop-color="#9f5738" offset="100%" stop-opacity="0">
</stop >
</linearGradient >
<linearGradient x1="46%" y1="16%" x2="49%" y2="82%" id="id-female-6.6_base_4-15">
<stop stop-color="#9b473d" offset="0%" stop-opacity="0.186">
</stop >
<stop stop-color="#5f2520" offset="100%">
</stop >
</linearGradient >
<linearGradient x1="41%" y1="19%" x2="50%" y2="100%" id="id-female-6.6_base_4-16">
<stop stop-color="#be614b" offset="0%">
</stop >
<stop stop-color="#9e4237" offset="100%">
</stop >
</linearGradient >
<linearGradient x1="50%" y1="31%" x2="45%" y2="50%" id="id-female-6.6_base_4-17">
<stop stop-color="#d06c41" offset="0%">
</stop >
<stop stop-color="#ec8e5f" offset="100%">
</stop >
</linearGradient >
<linearGradient x1="51%" y1="22%" x2="50%" y2="100%" id="id-female-6.6_base_4-18">
<stop stop-color="#b0483c" offset="0%">
</stop >
<stop stop-color="#bd6558" offset="100%">
</stop >
</linearGradient >
<linearGradient x1="49%" y1="0%" x2="50%" y2="100%" id="id-female-6.6_base_4-19">
<stop stop-color="#d47449" offset="0%">
</stop >
<stop stop-color="#e27c59" offset="100%">
</stop >
</linearGradient >
<linearGradient x1="44%" y1="15%" x2="50%" y2="100%" id="id-female-6.6_base_4-20">
<stop stop-color="#b75738" offset="0%">
</stop >
<stop stop-color="#a6503c" offset="100%">
</stop >
</linearGradient >
<linearGradient x1="52%" y1="21%" x2="49%" y2="83%" id="id-female-6.6_base_4-21">
<stop stop-color="#de7b50" offset="0%">
</stop >
<stop stop-color="#e7845d" offset="48%">
</stop >
<stop stop-color="#e28d63" offset="100%">
</stop >
</linearGradient >
<linearGradient x1="85%" y1="60%" x2="15%" y2="60%" id="id-female-6.6_base_4-22">
<stop stop-color="#d27044" offset="0%">
</stop >
<stop stop-color="#c06137" offset="100%">
</stop >
</linearGradient >
<linearGradient x1="50%" y1="-3%" x2="59%" y2="91%" id="id-female-6.6_base_4-23">
<stop stop-color="#ce754c" offset="0%">
</stop >
<stop stop-color="#ca6b41" offset="53%">
</stop >
<stop stop-color="#bf6138" offset="66%">
</stop >
<stop stop-color="#b8522c" offset="100%">
</stop >
</linearGradient >
<linearGradient x1="55%" y1="48%" x2="46%" y2="33%" id="id-female-6.6_base_4-24">
<stop stop-color="#ce6e44" offset="0%">
</stop >
<stop stop-color="#df8152" offset="86%">
</stop >
<stop stop-color="#d37547" offset="100%">
</stop >
</linearGradient >
<linearGradient x1="50%" y1="19%" x2="50%" y2="78%" id="id-female-6.6_base_4-25">
<stop stop-color="#913919" offset="0%">
</stop >
<stop stop-color="#ab4722" offset="50%">
</stop >
<stop stop-color="#842c26" offset="100%">
</stop >
</linearGradient >
<linearGradient x1="50%" y1="10%" x2="50%" y2="43%" id="id-female-6.6_base_4-26">
<stop stop-color="#c26338" offset="0%">
</stop >
<stop stop-color="#c4643b" offset="15%">
</stop >
<stop stop-color="#993e1b" offset="68%">
</stop >
<stop stop-color="#b7512b" offset="100%">
</stop >
</linearGradient >
<linearGradient x1="89%" y1="50%" x2="7%" y2="52%" id="id-female-6.6_base_4-27">
<stop stop-color="#8c371b" offset="0%">
</stop >
<stop stop-color="#b85c4d" offset="53%" stop-opacity="0.199">
</stop >
<stop stop-color="#a3451f" offset="75%">
</stop >
<stop stop-color="#8d381a" offset="100%">
</stop >
</linearGradient >
<linearGradient x1="44%" y1="70%" x2="86%" y2="30%" id="id-female-6.6_base_4-28">
<stop stop-color="#e39165" offset="0%">
</stop >
<stop stop-color="#f0a57a" offset="100%">
</stop >
</linearGradient >
<linearGradient x1="33%" y1="92%" x2="62%" y2="23%" id="id-female-6.6_base_4-29">
<stop stop-color="#c15b34" offset="0%">
</stop >
<stop stop-color="#d27347" offset="40%">
</stop >
<stop stop-color="#efa478" offset="100%">
</stop >
</linearGradient >
<linearGradient x1="35%" y1="94%" x2="47%" y2="12%" id="id-female-6.6_base_4-30">
<stop stop-color="#dc8458" offset="0%">
</stop >
<stop stop-color="#d77e53" offset="40%">
</stop >
<stop stop-color="#eca478" offset="100%">
</stop >
</linearGradient >
<linearGradient x1="50%" y1="54%" x2="27%" y2="9%" id="id-female-6.6_base_4-31">
<stop stop-color="#f7ab80" offset="0%">
</stop >
<stop stop-color="#ddab90" offset="100%" stop-opacity="0.078">
</stop >
</linearGradient >
<linearGradient x1="50%" y1="0%" x2="93%" y2="69%" id="id-female-6.6_base_4-32">
<stop stop-color="#e99a6f" offset="0%">
</stop >
<stop stop-color="#dd8557" offset="70%">
</stop >
<stop stop-color="#c56138" offset="100%">
</stop >
</linearGradient >
<linearGradient x1="36%" y1="84%" x2="25%" y2="44%" id="id-female-6.6_base_4-33">
<stop stop-color="#c98762" offset="0%" stop-opacity="0.509">
</stop >
<stop stop-color="#90492c" offset="35%" stop-opacity="0.675">
</stop >
<stop stop-color="#762e17" offset="100%" stop-opacity="0">
</stop >
</linearGradient >
<linearGradient x1="63%" y1="95%" x2="43%" y2="20%" id="id-female-6.6_base_4-34">
<stop stop-color="#d27146" offset="0%">
</stop >
<stop stop-color="#e29562" offset="46%">
</stop >
<stop stop-color="#d17045" offset="100%">
</stop >
</linearGradient >
<linearGradient x1="40%" y1="0%" x2="50%" y2="86%" id="id-female-6.6_base_4-35">
<stop stop-color="#d87c4d" offset="0%">
</stop >
<stop stop-color="#dd8253" offset="100%">
</stop >
</linearGradient >
<linearGradient x1="50%" y1="0%" x2="50%" y2="92%" id="id-female-6.6_base_4-36">
<stop stop-color="#e58656" offset="0%">
</stop >
<stop stop-color="#e39361" offset="100%">
</stop >
</linearGradient >
<linearGradient x1="33%" y1="79%" x2="21%" y2="44%" id="id-female-6.6_base_4-37">
<stop stop-color="#be6457" offset="0%">
</stop >
<stop stop-color="#983f32" offset="28%" stop-opacity="0.928">
</stop >
<stop stop-color="#762e17" offset="100%" stop-opacity="0">
</stop >
</linearGradient >
<linearGradient x1="4%" y1="47%" x2="92%" y2="45%" id="id-female-6.6_base_4-38">
<stop stop-color="#752b0f" offset="0%">
</stop >
<stop stop-color="#83391d" offset="17%" stop-opacity="0.753">
</stop >
<stop stop-color="#9e4b3d" offset="48%" stop-opacity="0.386">
</stop >
<stop stop-color="#94401f" offset="78%" stop-opacity="0.762">
</stop >
<stop stop-color="#88391a" offset="100%">
</stop >
</linearGradient >
<linearGradient x1="60%" y1="45%" x2="67%" y2="53%" id="id-female-6.6_base_4-39">
<stop stop-color="#d57a51" offset="0%">
</stop >
<stop stop-color="#ffb49c" offset="100%">
</stop >
</linearGradient >
<linearGradient x1="48%" y1="15%" x2="54%" y2="81%" id="id-female-6.6_base_4-40">
<stop stop-color="#d99776" offset="0%" stop-opacity="0.4">
</stop >
<stop stop-color="#e59b75" offset="100%">
</stop >
</linearGradient >
<linearGradient x1="47%" y1="44%" x2="50%" y2="61%" id="id-female-6.6_base_4-41">
<stop stop-color="#943b2f" offset="0%" stop-opacity="0.175">
</stop >
<stop stop-color="#61301b" offset="100%">
</stop >
</linearGradient >
<linearGradient x1="26%" y1="-7%" x2="50%" y2="96%" id="id-female-6.6_base_4-42">
<stop stop-color="#37373f" offset="0%">
</stop >
<stop stop-color="#19191d" offset="100%">
</stop >
</linearGradient >
<linearGradient x1="50%" y1="12%" x2="59%" y2="82%" id="id-female-6.6_base_4-43">
<stop stop-color="#252525" offset="0%">
</stop >
<stop stop-color="#101010" offset="100%">
</stop >
</linearGradient >
<linearGradient x1="25%" y1="-16%" x2="50%" y2="98%" id="id-female-6.6_base_4-44">
<stop stop-color="#37373f" offset="0%">
</stop >
<stop stop-color="#19191d" offset="100%">
</stop >
</linearGradient >
<linearGradient x1="75%" y1="39%" x2="50%" y2="93%" id="id-female-6.6_base_4-45">
<stop stop-color="#252525" offset="0%">
</stop >
<stop stop-color="#000000" offset="100%">
</stop >
</linearGradient >
</defs >
<g transform="translate(334,549)" id="id-female-6.6_base_4-46">
<polygon points="561 754 565 871 565 881 537 893 533 897 535 901 532 909 543 910 597 864" fill="#560304" id="id-female-6.6_base_4-47">
</polygon >
<polygon points="537 282 539 246 535 195 529 158 522 137 484 118 440 111 212 111 188 113 157 123 121 139 111 186 108 221 109 290" fill="url(#id-female-6.6_base_4-0)" id="id-female-6.6_base_4-47">
</polygon >
<polygon points="467 393 474 506 503 589 537 672 556 728 561 754 546 794 552 851 551 861 552 874 556 885 567 882 568 866 570 860 570 843 571 834 576 843 576 859 579 864 573 874 571 884 544 903 541 916 582 901 597 864 607 852 600 821 597 716 589 695 582 655 569 523 544 425" fill="url(#id-female-6.6_base_4-1)" id="id-female-6.6_base_4-47">
</polygon >
<polygon points="546 794 552 851 551 861 552 874 556 885 567 882 568 866 570 860 570 843 571 834 576 843 576 859 579 864 573 874 571 884 544 903 541 916 582 901 597 864 583 871 588 855 573 815 561 823" fill="url(#id-female-6.6_base_4-2)" id="id-female-6.6_base_4-47">
</polygon >
<polygon points="552 851 551 861 552 874 556 887 567 884 568 866 570 860 558 860" fill="#8a2c25" id="id-female-6.6_base_4-47">
</polygon >
<polygon points="544 906 541 916 582 901 571 889" fill="#92352a" id="id-female-6.6_base_4-47">
</polygon >
<polygon points="561 754 548 789 566 819 586 806" fill="#bd8171" id="id-female-6.6_base_4-47">
</polygon >
<polygon points="486 648 477 599 453 529 440 504 437 490 439 460 449 402 456 340 188 343 198 411 202 493 162 596 153 638 266 693 319 721 386 693" fill="url(#id-female-6.6_base_4-3)" id="id-female-6.6_base_4-47">
</polygon >
<polygon points="486 648 477 599 453 529 440 504 437 490 439 460 449 402 456 340 296 353 376 634" fill="#d06f45" id="id-female-6.6_base_4-47">
</polygon >
<g transform="translate(188,0)" id="id-female-6.6_base_4-56">
<polygon points="274 114 253 111 232 100 201 76 188 58 184 1 93 1 88 64 25 111 1 113 103 123 121 135 134 138 149 121 161 117 187 119 225 114" fill="#d37245" id="id-female-6.6_base_4-47">
</polygon >
<polygon points="201 76 188 58 185 12 175 57 155 111 185 73" fill="#eb9e6d" id="id-female-6.6_base_4-47">
</polygon >
<polygon points="149 1 93 1 88 64 108 126 121 135 133 138" fill="#c1663d" id="id-female-6.6_base_4-47">
</polygon >
<polygon points="116 102 120 113 118 115 136 135 150 119 164 71 125 108" fill="#b65c38" id="id-female-6.6_base_4-60">
</polygon >
<polygon points="121 127 133 138 145 124" fill="#ac3f1f" id="id-female-6.6_base_4-61">
</polygon >
<polygon points="136 98 164 71 175 57 186 17 134 51" fill="#da854f" id="id-female-6.6_base_4-62">
</polygon >
<polygon points="97 96 116 80 164 60 178 48 186 17 184 1 93 1 88 64 45 96" fill="#a14f27" opacity="0.654" id="id-female-6.6_base_4-47">
</polygon >
<polygon points="186 17 184 1 93 1 88 64 45 96 66 96" fill="url(#id-female-6.6_base_4-4)" opacity="0.467" id="id-female-6.6_base_4-47">
</polygon >
<polygon points="123 58 176 23 186 17 184 1 93 1 91 22 108 55" fill="#381404" opacity="0.434" id="id-female-6.6_base_4-47">
</polygon >
</g >
<polygon points="41 844 33 856 36 895 64 915 84 911 83 903 71 898 72 892 63 884 52 849" fill="url(#id-female-6.6_base_4-5)" id="id-female-6.6_base_4-47">
</polygon >
<polygon points="315 152 285 173 320 188 357 166" fill="#faaf86" id="id-female-6.6_base_4-67">
</polygon >
<polygon points="327 150 370 130 342 127" fill="#d5774a" id="id-female-6.6_base_4-68">
</polygon >
<polygon points="301 142 303 148 243 131 240 119 276 119" fill="#d5774a" id="id-female-6.6_base_4-69">
</polygon >
<polygon points="159 149 206 123 269 123 303 144 297 118 188 113 157 123 121 139" fill="url(#id-female-6.6_base_4-6)" id="id-female-6.6_base_4-47">
</polygon >
<polygon points="157 123 121 139 153 167 196 134" fill="#ffbba2" id="id-female-6.6_base_4-47">
</polygon >
<polygon points="89 584 77 541 62 551 45 658 34 712 25 741 25 762 10 817 0 845 14 870 25 901 58 919 72 919 69 913 61 905 50 899 37 874 37 852 43 845 52 855 50 887 56 901 64 905 66 901 66 882 72 836 72 800 69 781 64 773 66 735 85 684 121 599 162 510" fill="url(#id-female-6.6_base_4-7)" id="id-female-6.6_base_4-47">
</polygon >
<polygon points="89 584 77 541 62 551 45 658 48 715 121 599 162 510" fill="#d37347" id="id-female-6.6_base_4-47">
</polygon >
<polygon points="55 843 45 827 37 848 17 852 8 836 5 851 0 845 14 870 25 901 58 919 72 919 69 913 61 905 50 899 37 874 37 852 43 845 52 855 50 887 56 901 64 905 66 901 66 882 72 836" fill="#d16753" id="id-female-6.6_base_4-47">
</polygon >
<polygon points="53 882 52 892 56 901 64 905 66 901 66 882 67 876" fill="#b24b40" id="id-female-6.6_base_4-47">
</polygon >
<polygon points="25 901 58 919 72 919 62 909 37 895" fill="#b44d41" id="id-female-6.6_base_4-47">
</polygon >
<polygon points="160 467 145 488 108 578 45 777 48 797 64 773 66 735 85 684 121 599 162 510" fill="#b04c25" id="id-female-6.6_base_4-47">
</polygon >
<polygon points="169 1211 277 1211 282 1183 281 1150 284 1127 286 1114 285 1063 293 972 306 866 311 792 309 768 323 771 337 768 333 817 333 855 339 924 346 1008 348 1113 351 1130 353 1176 361 1211 461 1211 458 1191 456 1170 460 1133 461 1082 505 905 516 839 518 826 512 762 503 706 486 648 482 629 386 690 318 718 266 690 184 629 153 637 132 731 119 781 118 813 123 862 131 916 166 1094 176 1179" fill="url(#id-female-6.6_base_4-8)" id="id-female-6.6_base_4-47">
</polygon >
<polygon points="463 664 416 771 400 819 392 1125 359 1178 398 1204 441 1153 461 1082 505 905 516 839 518 826 515 789 490 714" fill="url(#id-female-6.6_base_4-9)" id="id-female-6.6_base_4-47">
</polygon >
<polygon points="422 1160 395 1199 365 1171 401 1149 384 1120 391 983 411 786 416 771 448 697 454 1013 445 1116 407 1149" fill="url(#id-female-6.6_base_4-10)" id="id-female-6.6_base_4-80">
</polygon >
<polygon points="121 139 111 186 108 221 109 290 96 438 89 464 69 510 89 585 162 510 167 425 162 241" fill="url(#id-female-6.6_base_4-11)" id="id-female-6.6_base_4-47">
</polygon >
<polygon points="101 466 103 488 106 510 160 447 179 359 164 232 187 184 186 179 132 181 161 234 161 321 149 376 151 384 123 461 114 466" fill="url(#id-female-6.6_base_4-12)" id="id-female-6.6_base_4-82">
</polygon >
<polygon points="96 438 89 464 69 510 51 621 101 520 96 476" fill="#ffaf88" id="id-female-6.6_base_4-47">
</polygon >
<polygon points="96 451 128 365 134 316 121 139 111 186 108 221 109 290 96 438" fill="#c5673b" id="id-female-6.6_base_4-47">
</polygon >
<polygon points="184 241 177 248 162 225 138 289 161 321 170 375 161 420 151 411 162 510 167 425 188 343" fill="url(#id-female-6.6_base_4-13)" id="id-female-6.6_base_4-47">
</polygon >
<polygon points="284 1127 286 1114 285 1063 293 972 306 866 311 792 309 768 323 771 337 768 333 817 333 855 339 924 346 1008 375 889 416 771 463 664 490 714 515 790 512 762 503 706 486 648 477 599 471 583 420 650 316 720 201 654 244 742 264 824 275 994" fill="url(#id-female-6.6_base_4-14)" id="id-female-6.6_base_4-47">
</polygon >
<polygon points="298 930 306 866 311 792 309 768 323 771 337 768 333 817 333 855 336 894 347 826 360 784 378 733 388 687 321 739 254 687 267 736 291 821" fill="url(#id-female-6.6_base_4-15)" id="id-female-6.6_base_4-47">
</polygon >
<polygon points="348 1093 348 1113 351 1130 353 1176 361 1211 461 1211 439 1155 422 1136 403 1148 429 1168 400 1202 370 1170 382 1125" fill="url(#id-female-6.6_base_4-16)" id="id-female-6.6_base_4-47">
</polygon >
<polygon points="10 855 8 836 5 851 0 845 14 870" fill="#af4a3e" id="id-female-6.6_base_4-47">
</polygon >
<polygon points="520 500 516 520 544 629 474 500 490 399" fill="url(#id-female-6.6_base_4-17)" id="id-female-6.6_base_4-90">
</polygon >
<polygon points="461 1211 458 1191 456 1170 460 1133 461 1082 439 1155 450 1211" fill="url(#id-female-6.6_base_4-18)" id="id-female-6.6_base_4-47">
</polygon >
<polygon points="220 1149 259 1115 240 1063 232 973 266 819 240 713 201 661 158 650 201 784 183 925 170 1083" fill="url(#id-female-6.6_base_4-19)" id="id-female-6.6_base_4-92">
</polygon >
<polygon points="169 1211 277 1211 282 1183 281 1150 284 1127 286 1114 286 1098 226 1211 207 1211 196 1121 173 1078 150 1014 166 1094 176 1179" fill="url(#id-female-6.6_base_4-20)" id="id-female-6.6_base_4-47">
</polygon >
<polygon points="173 1078 183 924 150 1014" fill="#c56242" id="id-female-6.6_base_4-47">
</polygon >
<polygon points="169 1211 239 1211 230 1196 204 1175 173 1150 176 1179" fill="#8e332e" opacity="0.574" id="id-female-6.6_base_4-47">
</polygon >
<polygon points="221 1130 240 1097 224 1063 224 983 240 804 217 698 190 668 212 771 212 910 190 998 181 1094" fill="url(#id-female-6.6_base_4-21)" id="id-female-6.6_base_4-92">
</polygon >
<polygon points="217 795 221 692 200 667 169 658 200 737" fill="#f09c6b" id="id-female-6.6_base_4-97">
</polygon >
<polygon points="511 476 492 419 481 447 484 356 521 274 533 417" fill="url(#id-female-6.6_base_4-22)" id="id-female-6.6_base_4-98">
</polygon >
<polygon points="569 523 544 425 542 346 537 282 539 246 535 195 529 158 522 137 494 161 419 158 471 211 516 290 525 411 511 477 518 507 535 462 562 543" fill="url(#id-female-6.6_base_4-23)" id="id-female-6.6_base_4-47">
</polygon >
<polygon points="486 389 533 243 501 167 464 207 451 247 463 265" fill="url(#id-female-6.6_base_4-24)" id="id-female-6.6_base_4-100">
</polygon >
<polygon points="473 490 474 506 503 589 537 672 556 728 561 754 567 712 543 623" fill="#ae522f" id="id-female-6.6_base_4-47">
</polygon >
<polygon points="460 328 466 378 474 506 490 425 486 392 469 274 479 230 461 260 454 251" fill="url(#id-female-6.6_base_4-25)" id="id-female-6.6_base_4-47">
</polygon >
<polygon points="440 504 437 490 439 460 449 402 456 340 458 328 325 282 188 343 198 411 202 493 162 596 157 621 161 633 169 599 173 570 204 506 202 458 217 402 286 365 321 352 353 360 422 402 431 493 437 520" fill="url(#id-female-6.6_base_4-26)" id="id-female-6.6_base_4-47">
</polygon >
<polygon points="451 385 456 340 458 328 364 340 330 308 268 343 188 343 194 379 262 368 312 343 335 340 381 368" fill="url(#id-female-6.6_base_4-27)" id="id-female-6.6_base_4-47">
</polygon >
<polygon points="286 328 306 310 330 274 453 252 464 205 421 156 317 204 219 165 210 154 188 180" fill="url(#id-female-6.6_base_4-28)" id="id-female-6.6_base_4-105">
</polygon >
<path d="M 422 195 L 405 190 C 377 190 357 198 343 214 C 329 230 322 250 323 276 C 324 301 331 320 345 333 C 365 351 384 356 405 356 C 425 356 444 347 450 342 C 454 339 457 335 460 328 C 463 323 466 317 467 308 C 469 294 466 276 457 254 L 422 195 Z" fill="url(#id-female-6.6_base_4-29)" id="id-female-6.6_base_4-106">
</path >
<path d="M 422 195 L 417 175 C 386 188 366 196 358 201 C 355 203 351 206 348 208 C 348 209 381 253 448 342 C 454 338 459 332 463 324 C 469 310 469 301 469 293 C 469 287 465 275 459 257 L 422 195 Z" fill="url(#id-female-6.6_base_4-30)" id="id-female-6.6_base_4-106">
</path >
<path d="M 375 226 C 338 253 343 276 343 284 C 343 291 353 319 371 335 C 379 342 422 349 447 331 C 468 316 472 294 458 265 C 427 221 400 208 375 226 Z" fill="url(#id-female-6.6_base_4-31)" opacity="0.282" id="id-female-6.6_base_4-106">
</path >
<path d="M 272 205 C 260 199 243 200 221 209 C 187 227 169 258 168 303 C 167 319 184 342 190 346 C 197 351 212 356 239 353 C 257 351 272 344 284 333 C 303 312 312 288 309 260 C 305 217 291 214 272 205 Z" fill="url(#id-female-6.6_base_4-32)" id="id-female-6.6_base_4-109">
</path >
<path d="M 340 285 C 333 252 328 240 326 248 C 324 254 323 263 323 276 C 324 301 331 320 345 333 C 365 351 382 356 404 356 C 425 356 444 347 450 342 C 456 337 465 325 468 308 C 472 290 465 276 463 268 C 461 263 460 259 458 255 L 442 290 L 399 304 L 366 300 L 340 285 Z" fill="url(#id-female-6.6_base_4-33)" id="id-female-6.6_base_4-106">
</path >
<path d="M 153 637 L 149 654 L 132 731 L 130 739 C 133 730 135 723 137 718 C 140 709 147 691 149 680 C 151 671 155 655 161 633 L 172 570 L 162 596 L 153 637 Z" fill="#7d362e" id="id-female-6.6_base_4-47">
</path >
<path d="M 259 203 C 254 199 240 185 217 163 L 210 153 L 186 180 C 192 211 192 231 186 239 C 175 256 168 277 168 303 C 168 324 190 352 239 344 C 252 342 274 217 259 203 Z" fill="#e39165" id="id-female-6.6_base_4-109">
</path >
<polygon points="175 565 203 550 234 558 241 520 203 455 203 507" fill="#b04924" id="id-female-6.6_base_4-113">
</polygon >
<polygon points="241 442 241 518 229 556 233 629 266 657 316 707 381 659 395 629 364 504 350 504 301 380" fill="url(#id-female-6.6_base_4-34)" id="id-female-6.6_base_4-114">
</polygon >
<polygon points="432 626 427 589 407 518 414 505 450 568 470 618" fill="url(#id-female-6.6_base_4-35)" id="id-female-6.6_base_4-115">
</polygon >
<polygon points="302 376 254 442 254 546 302 590 364 568 364 504 350 504 376 454 345 400" fill="url(#id-female-6.6_base_4-36)" id="id-female-6.6_base_4-114">
</polygon >
<polygon points="317 480 342 436 319 413 300 447" fill="#da7b4e" id="id-female-6.6_base_4-117">
</polygon >
<polygon points="304 541 318 507 329 541 314 549" fill="#d17045" id="id-female-6.6_base_4-118">
</polygon >
<polygon points="306 543 316 578 329 541" fill="#e99a65" id="id-female-6.6_base_4-119">
</polygon >
<path d="M 178 333 C 179 334 180 336 182 338 C 184 342 186 343 189 346 C 190 347 197 351 206 353 C 215 354 226 355 239 353 C 257 351 272 344 284 333 C 293 322 299 313 302 305 C 304 301 307 293 309 277 C 310 274 310 268 309 260 L 228 277 L 207 295 L 178 333 Z" fill="url(#id-female-6.6_base_4-37)" id="id-female-6.6_base_4-109">
</path >
<polygon points="306 543 308 550 324 556 329 541" fill="#e9a376" id="id-female-6.6_base_4-119">
</polygon >
<polygon points="308 543 318 525 323 542 314 548" fill="#8f4427" id="id-female-6.6_base_4-122">
</polygon >
<polygon points="152 641 162 596 176 561 185 617 214 602 246 628 323 690 404 628 423 605 454 605 470 577 477 599 482 629 388 689 337 768 323 771 309 768 259 688 175 639 142 688" fill="url(#id-female-6.6_base_4-38)" opacity="0.442" id="id-female-6.6_base_4-123">
</polygon >
<polygon points="490 154 522 137 484 118 412 123" fill="url(#id-female-6.6_base_4-39)" id="id-female-6.6_base_4-47">
</polygon >
<polygon points="573 785 588 829 602 858 607 852 600 821 597 716 576 763" fill="#e19271" id="id-female-6.6_base_4-47">
</polygon >
<polygon points="574 722 589 695 582 655 533 542" fill="url(#id-female-6.6_base_4-40)" id="id-female-6.6_base_4-47">
</polygon >
<polygon points="172 640 241 690 309 768 323 771 338 768 395 706 469 661 404 650 313 706 217 629" fill="url(#id-female-6.6_base_4-41)" opacity="0.571" id="id-female-6.6_base_4-127">
</polygon >
<g transform="translate(188,270)" id="id-female-6.6_base_4-128">
<polygon points="207 13 207 10 217 2 220 2 239 21 258 39 260 42 250 51 246 52 226 33" fill="url(#id-female-6.6_base_4-42)" id="id-female-6.6_base_4-129">
</polygon >
<polygon points="208 40 218 50 222 50 240 33 257 13 257 9 247 0 244 1 230 19 209 36" fill="url(#id-female-6.6_base_4-43)" id="id-female-6.6_base_4-130">
</polygon >
<polygon points="1 13 1 10 10 2 15 2 32 21 50 39 52 42 42 52 38 52 19 33" fill="url(#id-female-6.6_base_4-44)" id="id-female-6.6_base_4-129">
</polygon >
<polygon points="0 43 10 53 14 53 33 35 50 15 50 11 40 3 36 4 19 23 1 39" fill="url(#id-female-6.6_base_4-45)" id="id-female-6.6_base_4-130">
</polygon >
</g >
</g >
<defs >
<linearGradient x1="68%" y1="4%" x2="68%" y2="39%" id="id-female-6.8_face_4-0">
<stop stop-color="#cf915b" offset="0%">
</stop >
<stop stop-color="#a2582e" offset="100%">
</stop >
</linearGradient >
<linearGradient x1="63%" y1="29%" x2="43%" y2="65%" id="id-female-6.8_face_4-1">
<stop stop-color="#ef9d68" offset="0%">
</stop >
<stop stop-color="#ca8252" offset="100%">
</stop >
</linearGradient >
<linearGradient x1="60%" y1="73%" x2="11%" y2="32%" id="id-female-6.8_face_4-2">
<stop stop-color="#f0a97b" offset="0%">
</stop >
<stop stop-color="#e7976b" offset="100%">
</stop >
</linearGradient >
<linearGradient x1="79%" y1="15%" x2="31%" y2="87%" id="id-female-6.8_face_4-3">
<stop stop-color="#d98757" offset="0%">
</stop >
<stop stop-color="#e99f6f" offset="100%">
</stop >
</linearGradient >
<radialGradient cx="50%" cy="46%" r="72%" id="id-female-6.8_face_4-4" fx="50%" fy="46%" gradientTransform="translate(0.5,0.465) scale(0.889,1) rotate(90) scale(1,1) translate(-0.5,-0.465)">
<stop stop-color="#fbaf7c" offset="0%">
</stop >
<stop stop-color="#8e4218" offset="100%">
</stop >
</radialGradient >
<linearGradient x1="32%" y1="4%" x2="54%" y2="75%" id="id-female-6.8_face_4-5">
<stop stop-color="#b5673b" offset="0%">
</stop >
<stop stop-color="#d69065" offset="38%">
</stop >
<stop stop-color="#cd7f54" offset="100%">
</stop >
</linearGradient >
<linearGradient x1="11%" y1="50%" x2="57%" y2="50%" id="id-female-6.8_face_4-6">
<stop stop-color="#d88a61" offset="0%">
</stop >
<stop stop-color="#f4a678" offset="100%">
</stop >
</linearGradient >
<linearGradient x1="50%" y1="0%" x2="50%" y2="100%" id="id-female-6.8_face_4-7">
<stop stop-color="#df8a54" offset="0%">
</stop >
<stop stop-color="#bd693b" offset="100%">
</stop >
</linearGradient >
<linearGradient x1="50%" y1="0%" x2="50%" y2="65%" id="id-female-6.8_face_4-8">
<stop stop-color="#e8a174" offset="0%">
</stop >
<stop stop-color="#f9bb92" offset="100%">
</stop >
</linearGradient >
<linearGradient x1="93%" y1="38%" x2="20%" y2="70%" id="id-female-6.8_face_4-9">
<stop stop-color="#eba776" offset="0%">
</stop >
<stop stop-color="#f5bf98" offset="60%">
</stop >
<stop stop-color="#ca8252" offset="100%">
</stop >
</linearGradient >
<linearGradient x1="17%" y1="66%" x2="58%" y2="41%" id="id-female-6.8_face_4-10">
<stop stop-color="#f3ba91" offset="0%">
</stop >
<stop stop-color="#fcdfc9" offset="100%">
</stop >
</linearGradient >
<linearGradient x1="25%" y1="46%" x2="50%" y2="58%" id="id-female-6.8_face_4-11">
<stop stop-color="#b55e35" offset="0%">
</stop >
<stop stop-color="#c46a3c" offset="100%">
</stop >
</linearGradient >
<linearGradient x1="75%" y1="15%" x2="41%" y2="68%" id="id-female-6.8_face_4-12">
<stop stop-color="#f0aa7e" offset="0%">
</stop >
<stop stop-color="#f5bb97" offset="100%">
</stop >
</linearGradient >
<linearGradient x1="43%" y1="47%" x2="85%" y2="53%" id="id-female-6.8_face_4-13">
<stop stop-color="#903f1b" offset="0%">
</stop >
<stop stop-color="#b45c2e" offset="100%">
</stop >
</linearGradient >
<linearGradient x1="65%" y1="43%" x2="13%" y2="55%" id="id-female-6.8_face_4-14">
<stop stop-color="#7b3014" offset="0%">
</stop >
<stop stop-color="#813113" offset="100%">
</stop >
</linearGradient >
<linearGradient x1="85%" y1="61%" x2="16%" y2="50%" id="id-female-6.8_face_4-15">
<stop stop-color="#e3956c" offset="0%">
</stop >
<stop stop-color="#d0825c" offset="100%">
</stop >
</linearGradient >
<linearGradient x1="50%" y1="34%" x2="72%" y2="84%" id="id-female-6.8_face_4-16">
<stop stop-color="#c06e40" offset="0%">
</stop >
<stop stop-color="#d7795c" offset="42%">
</stop >
<stop stop-color="#d07e52" offset="59%">
</stop >
<stop stop-color="#db885d" offset="100%">
</stop >
</linearGradient >
<linearGradient x1="50%" y1="50%" x2="50%" y2="78%" id="id-female-6.8_face_4-17">
<stop stop-color="#f3b28c" offset="0%">
</stop >
<stop stop-color="#ec8c70" offset="100%">
</stop >
</linearGradient >
<linearGradient x1="36%" y1="33%" x2="50%" y2="71%" id="id-female-6.8_face_4-18">
<stop stop-color="#d26945" offset="0%">
</stop >
<stop stop-color="#a63821" offset="100%">
</stop >
</linearGradient >
<linearGradient x1="0%" y1="50%" x2="100%" y2="50%" id="id-female-6.8_face_4-19">
<stop stop-color="#c46f40" offset="0%">
</stop >
<stop stop-color="#df9f77" offset="42%">
</stop >
<stop stop-color="#c36f3f" offset="100%">
</stop >
</linearGradient >
<linearGradient x1="50%" y1="57%" x2="-8%" y2="54%" id="id-female-6.8_face_4-20">
<stop stop-color="#9c4a26" offset="0%">
</stop >
<stop stop-color="#662a11" offset="100%">
</stop >
</linearGradient >
<linearGradient x1="14%" y1="61%" x2="23%" y2="56%" id="id-female-6.8_face_4-21">
<stop stop-color="#ab4b21" offset="0%">
</stop >
<stop stop-color="#b45c31" offset="100%">
</stop >
</linearGradient >
<linearGradient x1="48%" y1="50%" x2="55%" y2="57%" id="id-female-6.8_face_4-22">
<stop stop-color="#e1885b" offset="0%">
</stop >
<stop stop-color="#b8603b" offset="100%">
</stop >
</linearGradient >
<linearGradient x1="50%" y1="0%" x2="43%" y2="121%" id="id-female-6.8_face_4-23">
<stop stop-color="#f3d2ba" offset="0%">
</stop >
<stop stop-color="#eeab96" offset="100%">
</stop >
</linearGradient >
<linearGradient x1="100%" y1="37%" x2="80%" y2="57%" id="id-female-6.8_face_4-24">
<stop stop-color="#9e421e" offset="0%">
</stop >
<stop stop-color="#cf784a" offset="100%">
</stop >
</linearGradient >
<linearGradient x1="55%" y1="43%" x2="43%" y2="53%" id="id-female-6.8_face_4-25">
<stop stop-color="#be663b" offset="0%">
</stop >
<stop stop-color="#b3592e" offset="100%">
</stop >
</linearGradient >
<linearGradient x1="72%" y1="4%" x2="28%" y2="76%" id="id-female-6.8_face_4-26">
<stop stop-color="#b15a37" offset="0%">
</stop >
<stop stop-color="#7d341b" offset="100%">
</stop >
</linearGradient >
<linearGradient x1="22%" y1="50%" x2="83%" y2="50%" id="id-female-6.8_face_4-27">
<stop stop-color="#c2805e" offset="0%">
</stop >
<stop stop-color="#903a22" offset="100%">
</stop >
</linearGradient >
<linearGradient x1="82%" y1="54%" x2="50%" y2="59%" id="id-female-6.8_face_4-28">
<stop stop-color="#843818" offset="0%">
</stop >
<stop stop-color="#ba663f" offset="100%">
</stop >
</linearGradient >
<linearGradient x1="25%" y1="53%" x2="75%" y2="52%" id="id-female-6.8_face_4-29">
<stop stop-color="#e1bb9f" offset="0%">
</stop >
<stop stop-color="#c08666" offset="100%">
</stop >
</linearGradient >
<linearGradient x1="50%" y1="0%" x2="50%" y2="80%" id="id-female-6.8_face_4-30">
<stop stop-color="#b2401e" offset="0%">
</stop >
<stop stop-color="#c84d2c" offset="100%">
</stop >
</linearGradient >
<linearGradient x1="50%" y1="0%" x2="50%" y2="100%" id="id-female-6.8_face_4-31">
<stop stop-color="#ec5f3d" offset="0%">
</stop >
<stop stop-color="#d65032" offset="100%">
</stop >
</linearGradient >
<linearGradient x1="109%" y1="50%" x2="23%" y2="43%" id="id-female-6.8_face_4-32">
<stop stop-color="#b55d33" offset="0%">
</stop >
<stop stop-color="#c18055" offset="100%">
</stop >
</linearGradient >
</defs >
<g transform="translate(561,332)" id="id-female-6.8_face_4-33">
<g transform="translate(172,115)" id="id-female-6.8_face_4-34">
<polygon points="14 1 18 0 25 8 27 21 24 41 14 66 0 68" fill="url(#id-female-6.8_face_4-0)" id="id-female-6.8_face_4-35">
</polygon >
<polygon points="12 48 19 50 23 42 26 24 20 12 12 22" fill="#cb8154" id="id-female-6.8_face_4-36">
</polygon >
<polygon points="11 21 17 10 20 5 24 7 26 24 20 36 18 31 20 16 9 29" fill="#8e4015" id="id-female-6.8_face_4-37">
</polygon >
<polygon points="10 28 11 38 8 45 13 49 19 38 13 24" fill="#7d3102" id="id-female-6.8_face_4-38">
</polygon >
<polygon points="12 18 17 17 18 9" fill="#5b1c00" id="id-female-6.8_face_4-39">
</polygon >
<polygon points="18 50 10 51 8 50 5 61 12 63 14 61" fill="#e68969" id="id-female-6.8_face_4-40">
</polygon >
</g >
<g transform="translate(0,113)" id="id-female-6.8_face_4-41">
<polygon points="13 0 5 0 0 13 4 36 13 63 25 67" fill="#d07c59" id="id-female-6.8_face_4-42">
</polygon >
<polygon points="5 9 0 13 4 36 13 63 25 67 13 24" fill="#ca7f53" id="id-female-6.8_face_4-42">
</polygon >
<polygon points="18 46 14 47 7 32 11 26 4 9 6 5 16 20 17 29" fill="#ab5e32" id="id-female-6.8_face_4-44">
</polygon >
<polygon points="13 62 20 62 18 49 11 53" fill="#ae6135" id="id-female-6.8_face_4-45">
</polygon >
<polygon points="25 68 13 63 20 62 17 46 14 47 13 44 14 29 17 26 14 22 10 19 10 11 17 20" fill="#7d3001" id="id-female-6.8_face_4-46">
</polygon >
<polygon points="13 9 4 3 5 0 12 0" fill="#e19b77" id="id-female-6.8_face_4-47">
</polygon >
</g >
<path d="M 29 199 C 21 167 16 144 15 130 C 4 44 33 0 103 0 C 180 0 191 63 186 119 C 183 157 173 191 170 202 C 169 206 167 213 164 217 C 143 234 127 244 115 249 L 81 249 C 71 246 56 236 36 218 C 34 215 32 208 29 199 Z" fill="#d1865a" opacity="0.966" id="id-female-6.8_face_4-48">
</path >
<polygon points="36 106 25 118 37 39 104 9 160 39 166 105 106 122" fill="url(#id-female-6.8_face_4-1)" id="id-female-6.8_face_4-49">
</polygon >
<polygon points="120 178 110 136 130 128 178 139 169 176 139 192" fill="url(#id-female-6.8_face_4-2)" id="id-female-6.8_face_4-50">
</polygon >
<polygon points="169 161 135 146 164 134 176 140" fill="#f6aa7a" id="id-female-6.8_face_4-51">
</polygon >
<polygon points="169 161 156 155 176 140" fill="url(#id-female-6.8_face_4-3)" id="id-female-6.8_face_4-51">
</polygon >
<path d="M 19 155 C 17 145 16 137 15 130 C 4 44 33 0 103 0 C 180 0 191 63 186 119 C 185 128 184 136 183 145 L 148 128 L 142 124 L 162 99 C 162 80 157 59 148 36 C 125 28 107 26 95 28 C 83 31 66 39 45 53 L 39 91 L 28 114 L 42 106 L 19 155 Z" fill="url(#id-female-6.8_face_4-4)" opacity="0.966" id="id-female-6.8_face_4-48">
</path >
<polygon points="77 145 37 128 23 149 57 218 88 200" fill="url(#id-female-6.8_face_4-5)" id="id-female-6.8_face_4-54">
</polygon >
<polygon points="69 192 59 171 70 146 85 132 94 140 87 186" fill="#d99168" id="id-female-6.8_face_4-55">
</polygon >
<polygon points="85 180 68 192 72 205 130 208 138 197 114 170" fill="url(#id-female-6.8_face_4-6)" id="id-female-6.8_face_4-56">
</polygon >
<polygon points="74 204 70 202 57 211 76 239 132 235 143 205 136 197 125 204" fill="url(#id-female-6.8_face_4-7)" id="id-female-6.8_face_4-57">
</polygon >
<polygon points="91 200 95 178 107 178 112 200" fill="url(#id-female-6.8_face_4-8)" id="id-female-6.8_face_4-58">
</polygon >
<path d="M 38 101 L 64 86 C 69 68 73 57 76 53 C 79 50 94 46 119 41 L 151 70 L 126 114 L 81 113 L 73 99 L 38 101 Z" fill="url(#id-female-6.8_face_4-9)" id="id-female-6.8_face_4-59">
</path >
<polygon points="156 99 123 78 105 98 127 111" fill="url(#id-female-6.8_face_4-10)" id="id-female-6.8_face_4-60">
</polygon >
<polygon points="91 200 93 192 102 194 110 193 112 200" fill="#ffd9b0" id="id-female-6.8_face_4-58">
</polygon >
<polygon points="74 218 67 215 74 207 130 206 130 213 119 213" fill="#eda177" id="id-female-6.8_face_4-62">
</polygon >
<polygon points="80 211 69 221 89 231 120 232 129 227 123 209" fill="url(#id-female-6.8_face_4-11)" id="id-female-6.8_face_4-63">
</polygon >
<polygon points="141 204 117 180 128 170 150 185" fill="url(#id-female-6.8_face_4-12)" id="id-female-6.8_face_4-64">
</polygon >
<polygon points="28 151 39 132 64 125 49 107 32 109 23 145" fill="#b6663a" id="id-female-6.8_face_4-65">
</polygon >
<polygon points="80 110 93 132 80 138 34 131 27 127 44 119" fill="url(#id-female-6.8_face_4-13)" id="id-female-6.8_face_4-66">
</polygon >
<polygon points="30 117 27 127 45 106 61 121 79 130 56 105 40 104" fill="url(#id-female-6.8_face_4-14)" id="id-female-6.8_face_4-67">
</polygon >
<polygon points="91 140 73 164 89 164 121 175 126 171 133 174 113 148" fill="url(#id-female-6.8_face_4-15)" id="id-female-6.8_face_4-68">
</polygon >
<polygon points="84 181 93 185 109 186 117 182 120 177" fill="#642c18" opacity="0.599" id="id-female-6.8_face_4-69">
</polygon >
<polygon points="123 135 114 141 123 168 123 174 117 180 81 173 80 170 81 166 90 138 86 133 101 127" fill="url(#id-female-6.8_face_4-16)" id="id-female-6.8_face_4-70">
</polygon >
<polygon points="79 111 99 104 121 113 107 143 98 143" fill="#e49061" id="id-female-6.8_face_4-71">
</polygon >
<polygon points="101 119 96 132 96 153 83 175 120 176 107 154 107 132" fill="url(#id-female-6.8_face_4-17)" id="id-female-6.8_face_4-72">
</polygon >
<polygon points="90 163 83 175 99 175" fill="#df765d" id="id-female-6.8_face_4-72">
</polygon >
<path d="M 80 170 L 80 178 L 84 181 L 90 180 L 109 180 L 116 181 C 118 180 120 178 121 176 C 122 174 122 172 122 170 L 119 176 C 114 174 109 172 103 171 C 98 171 92 172 85 174 L 84 173 L 95 154 L 93 156 L 80 170 Z" fill="url(#id-female-6.8_face_4-18)" id="id-female-6.8_face_4-74">
</path >
<path d="M 105 179 C 106 177 109 176 111 176 C 113 176 116 176 119 176 C 115 174 111 173 107 172 C 106 172 105 174 105 179 Z" fill="#ce6065" id="id-female-6.8_face_4-74">
</path >
<path d="M 87 180 L 98 180 C 96 177 94 176 91 176 C 89 176 87 177 87 180 Z" fill="#60140d" id="id-female-6.8_face_4-76">
</path >
<path d="M 105 180 L 113 181 C 115 178 114 176 112 176 C 109 176 106 177 105 180 Z" fill="#5b120b" id="id-female-6.8_face_4-77">
</path >
<polygon points="88 220 94 227 111 227 116 218" fill="#621608" id="id-female-6.8_face_4-78">
</polygon >
<path d="M 76 233 C 85 229 94 226 103 226 C 112 226 121 229 130 233 L 117 246 L 86 246 L 76 233 Z" fill="url(#id-female-6.8_face_4-19)" id="id-female-6.8_face_4-79">
</path >
<path d="M 113 227 C 117 228 122 230 130 233 L 117 246 L 101 242 L 113 227 Z" fill="#f5b78e" opacity="0.499" id="id-female-6.8_face_4-79">
</path >
<path d="M 94 229 C 99 227 100 227 105 227 C 107 227 109 228 112 228 C 109 233 106 236 104 237 C 96 232 93 229 94 229 Z" fill="#f0ba9f" id="id-female-6.8_face_4-79">
</path >
<polygon points="80 140 73 146 51 147 37 135 46 132 51 138 73 140" fill="url(#id-female-6.8_face_4-20)" id="id-female-6.8_face_4-82">
</polygon >
<path d="M 26 119 L 39 110 L 50 111 L 53 114 L 57 114 L 57 112 L 60 114 L 63 114 L 63 113 L 67 116 L 76 118 L 76 115 L 68 105 C 63 104 59 103 55 102 C 52 102 46 101 39 101 L 26 115 L 26 119 Z" fill="#501c0d" id="id-female-6.8_face_4-83">
</path >
<polygon points="26 119 39 110 43 107 57 105 39 101 26 115" fill="#220f06" id="id-female-6.8_face_4-83">
</polygon >
<polygon points="77 113 73 107 76 107" fill="#501c0d" id="id-female-6.8_face_4-85">
</polygon >
<polygon points="80 114 79 109 81 110" fill="#501c0d" id="id-female-6.8_face_4-86">
</polygon >
<path d="M 29 199 C 21 167 16 144 15 130 C 15 129 28 148 55 188 L 64 222 L 88 242 L 104 239 L 118 242 L 129 230 C 154 219 166 214 164 217 C 143 234 127 244 115 249 L 81 249 C 71 246 56 236 36 218 C 34 215 32 208 29 199 Z" fill="url(#id-female-6.8_face_4-21)" opacity="0.966" id="id-female-6.8_face_4-48">
</path >
<path d="M 118 242 L 129 230 L 147 183 L 167 160 L 172 141 L 186 119 C 183 157 173 191 170 202 C 169 206 167 213 164 217 C 145 232 132 241 125 245 C 122 246 120 245 118 242 Z" fill="url(#id-female-6.8_face_4-22)" opacity="0.966" id="id-female-6.8_face_4-48">
</path >
<polygon points="42 190 29 150 55 188 64 222" fill="#c1673f" opacity="0.966" id="id-female-6.8_face_4-48">
</polygon >
<path d="M 182 70 C 184 81 184 98 184 122 C 176 168 172 195 170 202 C 169 206 167 213 164 217 C 150 228 140 235 134 239 L 163 214 L 179 154 L 179 108 L 175 113 L 168 106 L 182 70 Z" fill="#e58f9b" opacity="0.966" id="id-female-6.8_face_4-48">
</path >
<path d="M 95 166 L 101 168 C 107 166 108 165 107 165 C 104 164 100 164 95 166 Z" fill="#f5aa9c" id="id-female-6.8_face_4-91">
</path >
<polygon points="107 154 100 151 96 154 100 140 97 134 102 130 106 133 104 140" fill="url(#id-female-6.8_face_4-23)" id="id-female-6.8_face_4-92">
</polygon >
<polygon points="108 154 122 169 119 175 115 167 109 170 113 164" fill="#c56443" id="id-female-6.8_face_4-93">
</polygon >
<path d="M 166 131 C 169 130 171 129 172 127 C 173 125 174 121 175 115 L 164 104 L 151 105 L 137 122 L 166 131 Z" fill="url(#id-female-6.8_face_4-24)" id="id-female-6.8_face_4-94">
</path >
<polygon points="123 135 117 140 124 143 131 139" fill="#f3b693" id="id-female-6.8_face_4-95">
</polygon >
<path d="M 111 132 L 124 135 L 168 130 C 165 125 162 121 157 119 C 152 117 147 116 139 117 L 119 109 L 114 118 L 116 122 L 111 132 Z" fill="url(#id-female-6.8_face_4-25)" id="id-female-6.8_face_4-96">
</path >
<polygon points="121 134 134 113 150 109 138 125" fill="url(#id-female-6.8_face_4-26)" id="id-female-6.8_face_4-97">
</polygon >
<path d="M 124 135 C 128 128 134 124 142 123 C 150 122 158 125 168 132 L 124 135 Z" fill="url(#id-female-6.8_face_4-27)" id="id-female-6.8_face_4-98">
</path >
<polygon points="125 143 138 147 153 147 165 134 158 130 127 138" fill="url(#id-female-6.8_face_4-28)" id="id-female-6.8_face_4-99">
</polygon >
<path d="M 128 135 L 126 139 L 151 140 L 160 134 C 155 130 150 128 145 128 C 140 128 134 131 128 135 Z" fill="#e9d5df" id="id-female-6.8_face_4-100">
</path >
<path d="M 130 140 L 133 135 L 150 133 L 156 137 L 160 134 C 155 130 149 128 142 129 C 135 130 130 133 126 139 L 130 140 Z" fill="#000000" opacity="0.295" id="id-female-6.8_face_4-101">
</path >
<polygon points="124 140 143 140 152 140 160 134 158 133 151 138 128 139" fill="url(#id-female-6.8_face_4-29)" id="id-female-6.8_face_4-102">
</polygon >
<polygon points="129 135 128 137 136 138 129 139 124 139 125 138" fill="#9d5133" id="id-female-6.8_face_4-103">
</polygon >
<polygon points="134 130 131 128 142 124 146 127" fill="#edb57f" id="id-female-6.8_face_4-104">
</polygon >
<path d="M 132 134 C 134 137 137 139 142 139 C 148 138 150 135 150 130 C 145 129 141 129 138 129 C 136 130 134 131 132 134 Z" fill="#200c09" id="id-female-6.8_face_4-105">
</path >
<path d="M 135 135 C 135 137 137 138 142 138 C 147 137 149 136 147 133 C 147 134 145 134 143 135 C 141 135 138 135 135 135 Z" fill="#bf0526" id="id-female-6.8_face_4-105">
</path >
<polygon points="139 132 137 132 137 134 141 133 141 132 143 132 143 131 139 131" fill="#b49ebb" id="id-female-6.8_face_4-107">
</polygon >
<path d="M 125 138 C 132 133 138 130 144 130 C 150 130 156 132 163 136 L 171 129 L 162 130 C 154 127 147 127 140 128 C 134 129 129 133 125 138 Z" fill="#200f09" id="id-female-6.8_face_4-108">
</path >
<polygon points="147 145 147 141 143 141" fill="#2d130a" id="id-female-6.8_face_4-109">
</polygon >
<polygon points="150 140 154 143 153 140" fill="#2d130a" id="id-female-6.8_face_4-110">
</polygon >
<polygon points="155 139 162 140 158 136 157 137" fill="#2d130a" id="id-female-6.8_face_4-111">
</polygon >
<polygon points="122 119 130 111 126 118 131 115 133 117 137 112 138 114 142 113 142 112 145 113 155 109 163 108 174 117 174 112 162 99 150 99 129 104" fill="#662913" id="id-female-6.8_face_4-112">
</polygon >
<polygon points="160 105 174 117 174 112 162 99 141 106" fill="#36150e" id="id-female-6.8_face_4-112">
</polygon >
<polygon points="77 210 72 210 72 205 79 205 125 203 132 203 134 206 131 209" fill="#97211c" id="id-female-6.8_face_4-114">
</polygon >
<polygon points="77 209 75 209 76 206 102 200 130 206 131 208" fill="#530c03" id="id-female-6.8_face_4-115">
</polygon >
<path d="M 74 205 C 80 206 84 206 88 206 C 93 206 97 204 102 204 C 107 204 111 206 115 206 C 118 206 122 205 126 204 C 121 200 116 197 111 193 C 110 193 106 194 102 197 C 96 195 93 194 92 194 C 87 197 80 201 74 205 Z" fill="url(#id-female-6.8_face_4-30)" id="id-female-6.8_face_4-116">
</path >
<path d="M 76 209 C 79 211 86 224 103 223 C 119 222 123 211 129 208 C 117 206 117 207 101 208 C 94 209 90 206 76 209 Z" fill="#a13421" id="id-female-6.8_face_4-117">
</path >
<path d="M 76 209 C 78 210 80 215 86 218 C 90 221 118 219 122 215 C 124 212 127 209 129 208 C 117 206 117 207 101 208 C 94 209 90 206 76 209 Z" fill="url(#id-female-6.8_face_4-31)" id="id-female-6.8_face_4-117">
</path >
<path d="M 76 209 C 78 210 80 215 86 218 C 90 221 118 219 122 215 C 124 212 127 209 129 208 C 117 206 118 217 102 218 C 85 219 90 206 76 209 Z" fill="#d04e2f" id="id-female-6.8_face_4-117">
</path >
<path d="M 89 212 C 91 214 94 215 97 214 C 101 213 106 212 113 212 C 109 210 106 210 104 210 C 99 211 96 210 91 211 C 90 211 90 212 89 212 Z" fill="#fa827f" id="id-female-6.8_face_4-120">
</path >
<polygon points="50 128 50 122 64 123 65 128" fill="url(#id-female-6.8_face_4-32)" id="id-female-6.8_face_4-121">
</polygon >
<path d="M 41 126 C 47 123 52 121 57 122 C 62 123 70 126 80 131 C 72 123 63 119 54 119 C 46 120 41 122 41 126 Z" fill="#662917" id="id-female-6.8_face_4-122">
</path >
<polygon points="60 139 79 141 84 137" fill="#f8b291" id="id-female-6.8_face_4-123">
</polygon >
<polygon points="69 138 80 138 80 137 75 134 75 137" fill="#902727" id="id-female-6.8_face_4-124">
</polygon >
<path d="M 47 132 L 50 138 C 56 138 60 139 63 138 C 66 138 70 138 75 137 C 75 136 75 135 75 134 C 71 130 65 129 61 128 C 56 127 51 129 47 132 Z" fill="#d2b3b9" id="id-female-6.8_face_4-125">
</path >
<path d="M 53 131 C 54 135 56 138 61 138 C 66 138 69 136 70 131 C 66 129 62 128 60 128 C 58 128 56 129 53 131 Z" fill="#250b06" id="id-female-6.8_face_4-126">
</path >
<path d="M 57 133 C 55 134 54 135 55 135 C 56 137 58 138 61 138 C 64 138 66 137 68 136 C 68 135 67 133 65 133 C 63 135 60 134 57 133 Z" fill="#920017" id="id-female-6.8_face_4-126">
</path >
<path d="M 47 132 L 49 136 C 54 133 57 132 58 132 C 71 131 75 135 75 134 C 71 130 65 129 61 128 C 56 127 51 129 47 132 Z" fill="#000000" opacity="0.3" id="id-female-6.8_face_4-125">
</path >
<polygon points="57 132 57 130 60 130 60 132" fill="#bda7a9" id="id-female-6.8_face_4-129">
</polygon >
<path d="M 33 131 L 39 135 L 43 134 C 50 131 56 129 61 130 C 66 130 72 132 81 137 C 77 132 72 129 64 128 C 56 126 48 127 41 131 L 33 131 Z" fill="#2c1309" id="id-female-6.8_face_4-130">
</path >
<polygon points="43 137 47 135 50 137" fill="#3a180f" id="id-female-6.8_face_4-131">
</polygon >
<polygon points="50 139 50 143 53 139" fill="#3a180f" id="id-female-6.8_face_4-132">
</polygon >
<polygon points="55 140 58 140 55 145" fill="#3a180f" id="id-female-6.8_face_4-133">
</polygon >
<polygon points="122 107 126 106 120 118" fill="#662913" id="id-female-6.8_face_4-134">
</polygon >
<polygon points="118 108 120 108 118 115 114 118" fill="#662913" id="id-female-6.8_face_4-135">
</polygon >
</g >
<defs >
<linearGradient x1="50%" y1="22%" x2="72%" y2="62%" id="id-female-9_strappy_underwear-0">
<stop stop-color="#10454d" offset="0%">
</stop >
<stop stop-color="#002325" offset="100%">
</stop >
</linearGradient >
</defs >
<g transform="translate(496,1113)" id="id-female-9_strappy_underwear-1">
<path d="M 9 8 C 6 15 5 19 5 19 C 53 55 76 73 76 73 C 123 164 146 209 146 209 C 155 211 159 212 159 212 C 169 210 174 209 174 209 C 218 121 240 78 240 78 C 285 34 307 12 307 12 C 306 4 305 1 305 1 L 233 69 L 88 66 L 9 8 Z" fill="#151716" id="id-female-9_strappy_underwear-2">
</path >
<path d="M 7 14 L 1 31 L 8 26 C 54 59 76 76 76 76 C 123 160 146 202 146 202 C 155 204 159 205 159 205 L 179 196 L 245 82 C 279 47 298 27 303 23 C 304 21 307 22 311 24 C 307 12 305 7 305 7 L 233 75 L 89 63 L 7 14 Z" fill="#151716" opacity="0.404" id="id-female-9_strappy_underwear-2">
</path >
<polygon points="93 80 142 178 178 178 225 81" fill="url(#id-female-9_strappy_underwear-0)" id="id-female-9_strappy_underwear-4">
</polygon >
</g >
<defs >
<linearGradient x1="33%" y1="59%" x2="66%" y2="64%" id="id-female-10_ripped_tights-0">
<stop stop-color="#050e15" offset="0%" stop-opacity="0.81">
</stop >
<stop stop-color="#040d13" offset="11%" stop-opacity="0.379">
</stop >
<stop stop-color="#040d13" offset="19%" stop-opacity="0.151">
</stop >
<stop stop-color="#040d13" offset="28%" stop-opacity="0.329">
</stop >
<stop stop-color="#040b10" offset="41%" stop-opacity="0.741">
</stop >
<stop stop-color="#03090e" offset="59%" stop-opacity="0.74">
</stop >
<stop stop-color="#03080b" offset="70%" stop-opacity="0.221">
</stop >
<stop stop-color="#03070b" offset="79%" stop-opacity="0.133">
</stop >
<stop stop-color="#02070b" offset="89%" stop-opacity="0.332">
</stop >
<stop stop-color="#020609" offset="100%" stop-opacity="0.712">
</stop >
</linearGradient >
</defs >
<g transform="translate(450,1060)" id="id-female-10_ripped_tights-1">
<path d="M 315 72 C 331 189 359 253 401 265 C 402 281 403 298 402 314 C 394 426 347 550 347 571 C 347 626 340 674 347 700 L 347 700 L 245 700 C 231 673 238 628 231 601 C 229 568 229 533 228 499 C 228 446 209 336 219 260 C 246 202 278 140 315 72 Z M 86 54 L 194 258 C 194 258 195 269 196 281 C 188 416 173 470 169 554 C 169 578 171 579 171 604 C 166 624 165 646 167 673 L 167 673 L 162 700 L 53 700 C 56 692 58 681 60 667 C 32 461 4 415 0 271 C 40 271 69 199 86 54 L 86 54 Z M 104 605 L 98 619 L 106 655 L 128 654 L 129 633 L 104 605 Z M 122 575 L 115 585 L 110 601 L 127 616 L 122 575 Z M 117 495 L 103 497 L 103 514 L 109 512 L 104 520 L 106 536 L 116 536 L 117 512 L 117 495 Z M 115 420 L 97 423 L 100 480 L 117 471 L 117 446 L 101 445 L 116 432 L 115 420 Z M 305 370 L 305 380 L 332 392 L 307 396 L 311 435 L 347 444 L 347 428 L 329 425 L 347 420 L 347 404 L 347 377 L 305 370 Z M 109 383 L 99 383 L 98 407 L 110 407 L 109 383 Z M 110 346 L 102 350 L 98 375 L 110 369 L 110 346 Z" fill="url(#id-female-10_ripped_tights-0)" id="id-female-10_ripped_tights-2">
</path >
<path d="M 77 1 C 77 1 95 31 130 90 L 130 90 L 280 90 C 280 90 297 62 332 6 C 332 6 332 6 332 6 L 332 6 C 332 7 336 13 343 24 C 343 24 344 26 345 30 L 345 30 L 294 118 C 294 118 318 111 365 95 C 365 95 366 99 367 107 C 367 107 367 107 367 107 L 367 107 C 365 108 361 109 355 111 L 354 112 C 341 116 318 124 286 134 C 286 134 268 169 232 240 C 232 240 279 207 373 141 C 373 141 374 144 375 149 C 375 149 323 187 220 264 C 215 265 213 266 204 267 C 199 266 196 265 193 264 C 189 260 187 256 185 251 L 185 251 L 27 161 C 27 161 28 159 29 153 C 29 153 79 181 178 238 C 178 238 159 202 122 129 C 122 129 94 121 40 103 L 40 103 L 40 103 C 40 103 41 98 43 90 C 43 90 67 98 114 114 L 114 114 L 66 28 C 66 28 70 19 77 1 Z M 276 100 C 276 100 276 100 276 100 L 276 100 C 273 100 226 100 136 100 C 136 100 140 109 149 126 C 183 141 222 139 260 129 C 260 129 265 119 276 100 Z" fill="#131415" id="id-female-10_ripped_tights-2">
</path >
<g transform="translate(42,179)" fill="#bfbfbf" fill-opacity="0.193" id="id-female-10_ripped_tights-4">
<path d="M 239 132 C 231 134 226 136 226 136 C 224 107 223 92 223 92 L 230 57 C 236 107 239 132 239 132 Z" id="id-female-10_ripped_tights-5">
</path >
<path d="M 232 190 C 242 191 254 193 254 193 C 254 202 254 211 254 218 C 205 401 221 458 221 458 C 210 418 205 379 205 342 C 209 321 230 273 232 190 Z" id="id-female-10_ripped_tights-6">
</path >
<path d="M 44 266 C 29 264 16 262 1 259 C 23 372 39 474 39 474 L 48 413 C 39 391 37 341 44 266 Z" id="id-female-10_ripped_tights-7">
</path >
<path d="M 30 120 C 20 120 3 107 3 107 C 5 84 6 72 6 72 L 16 55 C 18 85 23 107 30 120 Z" id="id-female-10_ripped_tights-8">
</path >
<path d="M 74 118 C 59 100 57 65 57 65 L 61 1 C 100 41 104 80 74 118 Z" id="id-female-10_ripped_tights-9">
</path >
</g >
</g >
<defs >
<linearGradient x1="50%" y1="6%" x2="50%" y2="92%" id="id-female-11_bra_lime-0">
<stop stop-color="#e7ff00" offset="0%">
</stop >
<stop stop-color="#9bd300" offset="75%">
</stop >
<stop stop-color="#79bd00" offset="100%">
</stop >
</linearGradient >
<linearGradient x1="0%" y1="48%" x2="100%" y2="48%" id="id-female-11_bra_lime-1">
<stop stop-color="#cee899" offset="0%">
</stop >
<stop stop-color="#95ca00" offset="3%">
</stop >
<stop stop-color="#c7f747" offset="11%">
</stop >
<stop stop-color="#e3fbb9" offset="16%">
</stop >
<stop stop-color="#5b8600" offset="24%">
</stop >
<stop stop-color="#6d8b00" offset="75%">
</stop >
<stop stop-color="#e5f7ba" offset="82%">
</stop >
<stop stop-color="#b2e332" offset="87%">
</stop >
<stop stop-color="#9dc400" offset="95%">
</stop >
<stop stop-color="#e2efc0" offset="100%">
</stop >
</linearGradient >
</defs >
<g transform="translate(497,803)" id="id-female-11_bra_lime-2">
<polygon points="292 103 250 114 158 116 73 114 54 113 26 106 24 91 10 72 1 47 1 37 8 13 39 2 47 4 73 18 116 46 132 58 132 72 135 79 151 84 171 79 174 58 207 32 263 2 268 1 287 7 303 15 309 34 307 58 294 81" fill="url(#id-female-11_bra_lime-0)" id="id-female-11_bra_lime-3">
</polygon >
<polygon points="198 115 158 116 105 115 142 92 151 84 165 90" fill="#aaef00" opacity="0.783" id="id-female-11_bra_lime-3">
</polygon >
<polygon points="110 86 67 99 24 91 10 72 1 47 1 37 5 22 7 47 21 72 36 81 58 86" fill="#93e400" id="id-female-11_bra_lime-3">
</polygon >
<polygon points="67 99 24 91 10 72 1 47 1 37 5 22 7 47 21 72 29 84" fill="#bfff00" id="id-female-11_bra_lime-3">
</polygon >
<polygon points="245 97 210 84 258 74 295 56 304 37 302 15 307 34 307 58 293 81" fill="#8ce200" id="id-female-11_bra_lime-3">
</polygon >
<polygon points="295 56 301 37 303 15 309 34 307 58 294 81 272 88" fill="#9dff00" id="id-female-11_bra_lime-3">
</polygon >
<polygon points="206 41 217 56 249 64 288 42 297 16 269 4 214 33" fill="#caf900" id="id-female-11_bra_lime-9">
</polygon >
<polygon points="14 14 14 33 36 55 77 53 97 38 45 6" fill="#c8f800" id="id-female-11_bra_lime-10">
</polygon >
<polygon points="128 79 123 58 85 32 49 10 25 11 5 21 8 13 39 2 47 4 73 18 116 46 132 58 132 63 173 63 172 71 132 71 132 72 135 79 151 84 171 79 174 58 207 32 263 2 268 1 287 7 303 15 305 21 280 10 265 9 212 36 180 59 175 83 153 90 133 84" fill="url(#id-female-11_bra_lime-1)" id="id-female-11_bra_lime-3">
</polygon >
</g >
<defs >
<linearGradient x1="49%" y1="25%" x2="50%" y2="0%" id="id-female-27_droid_helmet-0">
<stop stop-color="#000010" offset="0%" stop-opacity="0">
</stop >
<stop stop-color="#666553" offset="100%">
</stop >
</linearGradient >
<linearGradient x1="100%" y1="50%" x2="0%" y2="50%" id="id-female-27_droid_helmet-1">
<stop stop-color="#656640" offset="0%">
</stop >
<stop stop-color="#000010" offset="38%">
</stop >
<stop stop-color="#080815" offset="61%">
</stop >
<stop stop-color="#30554c" offset="100%">
</stop >
</linearGradient >
<linearGradient x1="100%" y1="50%" x2="0%" y2="50%" id="id-female-27_droid_helmet-2">
<stop stop-color="#0a2547" offset="0%">
</stop >
<stop stop-color="#091424" offset="100%">
</stop >
</linearGradient >
<linearGradient x1="51%" y1="15%" x2="46%" y2="78%" id="id-female-27_droid_helmet-3">
<stop stop-color="#3c4556" offset="0%">
</stop >
<stop stop-color="#151e2e" offset="100%">
</stop >
</linearGradient >
<linearGradient x1="48%" y1="14%" x2="55%" y2="92%" id="id-female-27_droid_helmet-4">
<stop stop-color="#1f2939" offset="0%">
</stop >
<stop stop-color="#091424" offset="100%">
</stop >
</linearGradient >
<linearGradient x1="50%" y1="0%" x2="50%" y2="100%" id="id-female-27_droid_helmet-5">
<stop stop-color="#e5eaf3" offset="0%">
</stop >
<stop stop-color="#445a66" offset="100%">
</stop >
</linearGradient >
<linearGradient x1="50%" y1="0%" x2="50%" y2="100%" id="id-female-27_droid_helmet-6">
<stop stop-color="#e5eaf3" offset="0%">
</stop >
<stop stop-color="#445a66" offset="100%">
</stop >
</linearGradient >
<filter width="303%" height="183%" x="-100%" y="-36%" id="id-female-27_droid_helmet-7" filterUnits="objectBoundingBox">
<feMorphology result="id-female-27_droid_helmet-8" in="SourceAlpha" operator="dilate" radius="2">
</feMorphology >
<feOffset result="id-female-27_droid_helmet-9" in="id-female-27_droid_helmet-8" dx="0" dy="2">
</feOffset >
<feGaussianBlur result="id-female-27_droid_helmet-11" in="id-female-27_droid_helmet-9" stdDeviation="4">
</feGaussianBlur >
<feColorMatrix in="id-female-27_droid_helmet-11" type="matrix" values="0 0 0 0 0.561 0 0 0 0 0.039 0 0 0 0 0 0 0 0 1 0">
</feColorMatrix >
</filter >
<path d="M 93 111 L 108 111 L 108 111 L 108 111 C 108 112 108 125 107 150 L 107 150 L 107 150 C 107 150 102 150 93 150 L 93 150 L 93 150 C 93 149 93 136 93 111 L 93 111 Z M 97 114 C 97 136 97 147 97 147 C 101 147 103 147 104 147 L 104 147 C 104 147 104 147 104 147 L 104 147 L 104 147 C 104 146 104 146 104 145 L 104 144 C 104 144 104 144 104 144 L 104 142 C 104 142 104 142 104 142 L 104 140 C 104 140 104 140 104 139 L 104 138 C 104 138 104 138 104 138 L 104 137 C 104 136 104 136 104 136 L 104 135 C 104 134 104 134 104 134 L 104 133 C 104 133 104 133 104 133 L 104 131 C 104 131 104 131 104 131 L 104 129 C 104 129 104 129 104 129 L 104 127 C 104 127 104 127 104 127 L 104 126 C 104 126 104 125 104 125 L 104 124 C 104 124 104 124 104 123 L 104 122 C 104 122 104 122 104 122 L 104 120 C 104 120 104 120 104 120 L 104 118 C 104 118 104 118 104 118 L 104 116 C 104 116 104 116 104 116 L 104 114 L 104 114 L 97 114 Z" id="id-female-27_droid_helmet-14">
</path >
<path d="M 93 111 L 108 111 L 108 111 L 108 111 C 108 112 108 125 107 150 L 107 150 L 107 150 C 107 150 102 150 93 150 L 93 150 L 93 150 C 93 149 93 136 93 111 L 93 111 Z M 97 114 C 97 136 97 147 97 147 C 101 147 103 147 104 147 L 104 147 C 104 147 104 147 104 147 L 104 147 L 104 147 C 104 146 104 146 104 145 L 104 144 C 104 144 104 144 104 144 L 104 142 C 104 142 104 142 104 142 L 104 140 C 104 140 104 140 104 139 L 104 138 C 104 138 104 138 104 138 L 104 137 C 104 136 104 136 104 136 L 104 135 C 104 134 104 134 104 134 L 104 133 C 104 133 104 133 104 133 L 104 131 C 104 131 104 131 104 131 L 104 129 C 104 129 104 129 104 129 L 104 127 C 104 127 104 127 104 127 L 104 126 C 104 126 104 125 104 125 L 104 124 C 104 124 104 124 104 123 L 104 122 C 104 122 104 122 104 122 L 104 120 C 104 120 104 120 104 120 L 104 118 C 104 118 104 118 104 118 L 104 116 C 104 116 104 116 104 116 L 104 114 L 104 114 L 97 114 Z" id="id-female-27_droid_helmet-14">
</path >
<linearGradient x1="49%" y1="22%" x2="50%" y2="77%" id="id-female-27_droid_helmet-16">
<stop stop-color="#252522" offset="0%" stop-opacity="0">
</stop >
<stop stop-color="#282623" offset="100%">
</stop >
</linearGradient >
</defs >
<g transform="translate(559,324)" id="id-female-27_droid_helmet-17">
<path d="M 101 0 C 61 4 30 24 9 58 L 39 91 L 63 216 L 102 230 L 141 215 L 195 58 C 175 29 151 4 101 0 Z" fill="url(#id-female-27_droid_helmet-0)" id="id-female-27_droid_helmet-18">
</path >
<path d="M 101 0 C 61 4 30 24 9 58 L 39 91 L 63 216 L 102 230 L 141 215 L 195 58 C 175 29 151 4 101 0 Z" fill="url(#id-female-27_droid_helmet-1)" id="id-female-27_droid_helmet-19">
</path >
<path d="M 181 70 C 185 65 187 63 187 63 L 187 56 L 178 45 C 162 17 135 8 102 7 C 83 9 64 14 48 26 C 46 32 45 34 45 34 C 58 24 64 18 64 18 C 88 11 113 12 139 18 C 162 39 177 56 181 70 Z" fill="#9fa18b" fill-opacity="0.596" id="id-female-27_droid_helmet-20">
</path >
<polygon points="171 80 178 45 187 56 187 62" fill="#9fa18b" fill-opacity="0.651" id="id-female-27_droid_helmet-21">
</polygon >
<path d="M 21 62 L 15 56 C 17 53 20 49 25 46 L 35 44 C 26 56 21 62 21 62 Z" fill="#acbdb9" id="id-female-27_droid_helmet-22">
</path >
<path d="M 101 0 C 140 2 172 21 195 57 C 195 57 195 74 193 107 L 193 107 L 193 108 C 194 108 197 113 204 124 C 205 145 199 169 184 196 C 184 196 185 204 185 220 L 185 220 L 185 220 C 185 220 183 223 177 227 C 175 229 172 230 166 233 C 166 233 167 236 168 242 L 168 242 L 168 242 C 168 242 163 247 154 256 L 154 256 L 155 283 L 171 303 C 165 325 141 343 102 359 C 56 332 31 314 27 303 C 33 299 40 294 48 288 C 50 276 51 266 50 257 C 50 257 39 249 39 249 C 39 249 38 247 36 242 C 36 242 36 239 37 233 C 28 227 21 223 19 219 C 19 219 19 219 19 219 L 19 219 C 19 219 19 211 19 196 C 6 170 -1 146 0 124 C 0 124 4 119 10 108 L 10 108 L 10 108 C 10 107 10 91 9 58 C 31 23 62 4 101 0 Z M 102 7 C 99 8 97 8 95 9 L 93 9 C 77 13 61 17 48 26 C 43 37 41 42 41 42 L 25 45 C 21 49 17 53 14 58 L 46 95 C 59 175 65 215 65 215 L 80 220 C 93 217 101 215 102 215 L 102 215 C 102 215 102 215 102 215 C 115 219 122 221 122 221 C 135 217 141 215 141 215 C 155 131 162 90 162 90 C 181 70 190 60 190 60 C 182 50 178 45 178 45 C 167 43 162 42 162 42 C 157 30 154 24 154 24 C 146 20 143 18 143 18 C 115 11 102 7 102 7 Z" fill="url(#id-female-27_droid_helmet-2)" id="id-female-27_droid_helmet-23">
</path >
<path d="M 171 301 C 169 300 168 299 168 299 C 162 309 159 314 159 314 C 140 333 132 334 104 351 L 102 359 C 141 343 164 324 171 301 Z" fill="#091424" id="id-female-27_droid_helmet-24">
</path >
<path d="M 104 351 L 104 345 C 144 311 152 296 150 265 C 152 289 162 292 169 300 L 161 315 C 151 322 131 334 104 351 Z" fill="#21395e" id="id-female-27_droid_helmet-25">
</path >
<path d="M 67 262 L 68 271 C 68 271 72 273 79 279 C 79 279 76 285 68 299 C 68 299 62 303 50 311 C 50 311 53 313 53 313 C 65 304 72 299 72 299 C 78 289 82 283 82 283 L 102 312 C 118 289 126 278 126 278 C 124 279 124 279 124 279 C 109 298 102 307 102 307 C 91 289 85 281 85 281 C 104 276 114 274 114 274 C 107 284 103 289 103 289 C 125 277 136 270 136 270 L 137 263 L 165 247 L 168 242 L 166 233 C 176 229 182 225 185 220 C 132 248 77 251 19 219 C 23 225 30 229 37 233 L 36 242 L 39 249 C 51 254 60 258 67 262 Z" fill="#000212" id="id-female-27_droid_helmet-26">
</path >
<path d="M 37 298 C 31 302 28 304 28 304 C 33 312 37 317 41 321 C 60 339 69 338 69 338 L 76 331 C 60 317 49 317 37 298 Z" fill="#1e2e4a" id="id-female-27_droid_helmet-27">
</path >
<path d="M 46 321 C 49 319 51 318 51 318 C 59 324 64 327 64 327 L 59 331 C 51 325 46 321 46 321 Z" fill="#007afe" id="id-female-27_droid_helmet-28">
</path >
<path d="M 36 242 C 36 241 36 240 36 240 C 41 238 44 237 44 237 L 64 245 L 19 219 C 19 204 19 196 19 196 C 48 217 62 227 62 227 C 62 220 63 216 63 216 C 89 225 102 229 102 229 C 128 220 141 215 141 215 C 141 224 141 229 141 229 L 185 199 C 185 213 185 220 185 220 C 154 236 139 245 139 245 L 162 237 C 166 240 168 242 168 242 L 103 277 C 58 254 36 242 36 242 Z" fill="#151f2f" id="id-female-27_droid_helmet-29">
</path >
<path d="M 71 265 C 71 252 72 246 72 246 C 75 239 76 235 76 235 C 74 234 73 234 73 234 C 73 227 73 223 73 223 C 92 230 102 234 102 234 C 121 227 131 223 131 223 C 131 230 131 233 131 233 C 128 235 127 235 127 235 C 130 242 132 246 132 246 L 133 265 C 125 269 118 274 103 277 C 94 275 83 271 71 265 Z" fill="#50586a" id="id-female-27_droid_helmet-30">
</path >
<path d="M 112 275 C 112 255 112 245 112 245 C 119 240 123 238 123 238 L 124 270 C 116 273 112 275 112 275 Z" fill="#828793" id="id-female-27_droid_helmet-31">
</path >
<path d="M 102 277 L 102 234 L 73 223 L 73 234 L 76 235 L 72 246 L 71 265 C 81 270 91 274 102 277 Z" fill="#384051" id="id-female-27_droid_helmet-32">
</path >
<path d="M 95 243 C 100 241 102 240 102 240 C 106 242 108 244 108 244 L 102 252 C 98 246 95 243 95 243 Z" fill="#161f30" id="id-female-27_droid_helmet-33">
</path >
<path d="M 115 238 C 122 236 126 234 126 234 C 125 228 124 225 124 225 L 113 230 C 114 235 115 238 115 238 Z" fill="#9499a2" id="id-female-27_droid_helmet-34">
</path >
<path d="M 19 198 C 29 206 35 209 35 209 L 30 225 L 19 219 C 19 205 19 198 19 198 Z" fill="#393d40" id="id-female-27_droid_helmet-35">
</path >
<path d="M 172 226 C 170 218 169 213 169 213 L 184 201 L 185 219 C 177 224 172 226 172 226 Z" fill="#393d40" id="id-female-27_droid_helmet-36">
</path >
<path d="M 79 269 C 80 250 81 240 81 240 C 87 243 91 244 91 244 L 89 273 C 82 270 79 269 79 269 Z" fill="#242d3e" id="id-female-27_droid_helmet-37">
</path >
<path d="M 40 39 C 44 29 46 24 46 24 L 58 12 C 48 16 26 31 9 58 L 22 43 C 34 41 40 39 40 39 Z" fill="#7f8592" id="id-female-27_droid_helmet-38">
</path >
<path d="M 141 229 L 185 199 L 185 196 C 175 204 176 191 185 157 C 193 135 199 124 204 124 L 193 107 L 195 58 L 166 90 L 141 214 L 141 229 Z" fill="url(#id-female-27_droid_helmet-3)" id="id-female-27_droid_helmet-39">
</path >
<path d="M 162 215 L 141 229 L 142 211 L 143 199 L 160 160 L 170 150 C 162 170 162 192 162 215 Z" fill="#0d1727" id="id-female-27_droid_helmet-40">
</path >
<path d="M 166 90 C 169 103 171 110 171 110 L 185 116 C 179 126 174 137 170 150 C 164 163 161 185 162 215 L 185 199 L 185 196 C 175 205 176 191 185 157 C 193 134 200 123 204 124 L 193 107 L 195 58 C 176 79 166 90 166 90 Z" fill="#2c3647" id="id-female-27_droid_helmet-41">
</path >
<path d="M 170 150 L 188 150 C 193 137 198 123 204 124 L 193 107 L 195 58 L 166 90 L 171 110 L 185 116 C 179 126 174 137 170 150 Z" fill="#505869" id="id-female-27_droid_helmet-42">
</path >
<path d="M 175 136 C 186 139 191 141 191 141 C 194 135 196 132 196 132 L 180 125 C 177 130 176 134 175 136 Z" fill="#5a6e94" id="id-female-27_droid_helmet-43">
</path >
<path d="M 187 117 C 186 115 185 114 185 114 C 182 119 180 122 180 122 L 182 124 L 187 117 Z" fill="#c0c4c8" id="id-female-27_droid_helmet-44">
</path >
<path d="M 175 142 C 172 141 171 141 171 141 C 169 147 169 150 169 150 L 172 151 C 174 145 175 142 175 142 Z" fill="#c5c8ce" id="id-female-27_droid_helmet-45">
</path >
<polygon points="166 90 169 87 170 90 164 97" fill="#ffffff" id="id-female-27_droid_helmet-46">
</polygon >
<path d="M 185 199 C 170 209 163 214 163 214 L 176 196 C 178 201 181 202 185 199 Z" fill="#676868" id="id-female-27_droid_helmet-47">
</path >
<path d="M 189 65 C 191 63 192 61 192 61 L 190 74 C 189 68 189 65 189 65 Z" fill="#d1d4d9" id="id-female-27_droid_helmet-48">
</path >
<path d="M 9 58 C 19 66 29 78 39 91 L 65 215 L 63 216 C 62 224 62 227 62 227 C 38 209 25 200 25 200 C 24 184 23 177 23 177 L 13 141 C 7 132 3 125 0 124 L 10 108 C 9 75 9 58 9 58 Z" fill="#31394a" id="id-female-27_droid_helmet-49">
</path >
<path d="M 40 211 C 34 178 39 149 14 110 C 29 115 36 118 36 118 C 38 107 39 101 39 101 L 60 196 L 63 216 L 62 227 C 48 217 40 211 40 211 Z" fill="url(#id-female-27_droid_helmet-4)" id="id-female-27_droid_helmet-50">
</path >
<path d="M 15 64 C 14 69 14 72 14 72 L 11 59 C 14 62 15 64 15 64 Z" fill="#d0d1d7" id="id-female-27_droid_helmet-51">
</path >
<path d="M 13 141 L 27 140 C 20 121 14 111 10 108 L 2 121 C 8 129 12 135 13 141 Z" fill="#46526d" id="id-female-27_droid_helmet-52">
</path >
<path d="M 31 148 C 29 148 28 148 28 148 C 26 142 25 139 25 139 L 28 139 C 30 145 31 148 31 148 Z" fill="#c8cdd1" id="id-female-27_droid_helmet-53">
</path >
<path d="M 8 129 C 16 125 20 123 20 123 C 21 128 22 131 22 131 C 18 130 14 132 11 134 C 9 131 8 129 8 129 Z" fill="#596e97" id="id-female-27_droid_helmet-54">
</path >
<path d="M 28 202 C 26 180 24 169 24 169 C 30 172 33 173 33 173 L 37 208 C 31 204 28 202 28 202 Z" fill="#091424" id="id-female-27_droid_helmet-55">
</path >
<path d="M 23 127 C 21 128 20 128 20 128 C 17 123 16 120 16 120 L 19 119 C 22 124 23 127 23 127 Z" fill="#c8ccd1" id="id-female-27_droid_helmet-56">
</path >
<path d="M 25 199 C 15 179 9 169 9 169 C 13 172 16 171 19 170 C 23 189 25 199 25 199 Z" fill="#404957" id="id-female-27_droid_helmet-57">
</path >
<path d="M 102 230 C 128 220 141 215 141 215 C 142 220 142 222 142 222 C 159 137 167 94 167 94 C 167 92 167 90 167 90 C 150 173 141 214 141 214 C 129 219 123 221 123 221 C 110 217 103 215 103 215 C 88 218 81 220 81 220 C 70 217 65 215 65 215 C 52 143 44 101 40 91 C 20 69 10 57 10 57 C 10 59 10 59 10 59 C 29 81 38 91 38 91 C 48 135 56 175 63 215 C 89 225 102 230 102 230 Z" fill="#4d5365" id="id-female-27_droid_helmet-58">
</path >
<path d="M 17 165 C 12 164 9 163 9 160 C 5 144 3 137 4 137 C 8 137 17 165 17 165 Z" fill="#fa002a" id="id-female-27_droid_helmet-59">
</path >
<path d="M 182 174 C 186 175 188 176 188 176 C 193 173 195 171 195 171 C 186 189 182 198 182 198 C 180 198 179 196 179 193 C 181 180 182 174 182 174 Z" fill="#007aff" id="id-female-27_droid_helmet-60">
</path >
<path d="M 101 229 C 98 225 97 223 97 223 C 100 220 101 218 101 218 L 106 224 C 103 227 101 229 101 229 Z" fill="#0078f8" id="id-female-27_droid_helmet-61">
</path >
<path d="M 101 0 C 97 2 96 3 96 3 C 115 8 135 14 156 22 C 162 34 165 40 165 40 C 175 42 180 43 180 43 C 187 52 191 56 191 56 L 193 55 C 171 21 140 3 101 0 Z" fill="#2c3d5d" id="id-female-27_droid_helmet-62">
</path >
<path d="M 74 218 C 63 136 58 95 58 95 C 63 81 66 74 66 74 C 75 95 79 106 79 106 C 106 106 119 106 119 106 C 139 80 149 68 149 68 L 135 137 L 126 220 L 122 221 L 102 215 L 79 220 L 74 218 Z" fill="#000010" id="id-female-27_droid_helmet-63">
</path >
<path d="M 82 197 C 79 169 77 155 77 155 L 77 107 C 80 167 82 197 82 197 Z" fill="#3f4859" id="id-female-27_droid_helmet-64">
</path >
<path d="M 118 198 C 120 138 121 108 121 108 L 122 161 C 119 186 118 198 118 198 Z" fill="#3f4859" id="id-female-27_droid_helmet-65">
</path >
<path d="M 77 156 L 65 146 L 62 119 L 56 114 L 61 112 L 58 95 L 77 107 C 77 139 77 156 77 156 Z" fill="url(#id-female-27_droid_helmet-5)" id="id-female-27_droid_helmet-66">
</path >
<path d="M 122 161 C 122 124 123 105 123 105 C 139 98 147 95 147 95 C 142 110 140 117 140 117 C 135 122 133 125 133 125 L 128 157 C 124 160 122 161 122 161 Z" fill="url(#id-female-27_droid_helmet-6)" id="id-female-27_droid_helmet-67">
</path >
<g id="id-female-27_droid_helmet-23">
<use fill="#000000" fill-opacity="1" xlink:href="#id-female-27_droid_helmet-14" filter="url(#id-female-27_droid_helmet-7)">
</use >
<use fill="#ffd000" xlink:href="#id-female-27_droid_helmet-14" fill-rule="evenodd">
</use >
</g >
<path d="M 143 326 C 145 329 147 331 147 331 C 156 323 161 320 161 320 L 156 316 C 147 322 143 326 143 326 Z" fill="#007afe" id="id-female-27_droid_helmet-72">
</path >
<path d="M 79 105 C 106 106 119 106 119 106 L 138 58 L 70 57 L 79 105 Z" fill="url(#id-female-27_droid_helmet-16)" id="id-female-27_droid_helmet-73">
</path >
<path d="M 192 170 C 188 171 187 172 187 172 C 186 170 185 169 185 169 C 189 158 192 149 196 146 C 196 152 195 160 192 170 Z" fill="#ff002a" id="id-female-27_droid_helmet-74">
</path >
</g >
<defs >
</defs >
<g transform="translate(875,1408)" id="id-female-29_vape-0">
<path d="M 81 68 C 55 49 42 39 42 39 C 47 28 49 22 49 22 L 92 55 C 84 64 81 68 81 68 Z" fill="#10100e" id="id-female-29_vape-1">
</path >
<path d="M 86 62 C 59 41 45 31 45 31 C 47 27 48 25 48 25 L 91 58 C 88 60 86 62 86 62 Z" fill="#554d3c" id="id-female-29_vape-2">
</path >
<path d="M 50 45 C 57 36 60 31 60 31 L 63 33 C 54 41 50 45 50 45 Z" fill="#766f60" id="id-female-29_vape-3">
</path >
<path d="M 57 50 C 55 49 54 48 54 48 C 62 39 65 35 65 35 L 67 36 C 60 46 57 50 57 50 Z" fill="#726c5d" id="id-female-29_vape-4">
</path >
<path d="M 28 26 C 16 20 10 17 10 17 C 11 14 11 12 11 12 C 5 8 1 6 1 6 C 4 3 6 2 6 2 C 10 4 13 5 13 5 C 17 3 20 2 20 2 L 33 10 L 32 13 L 31 23 C 29 25 28 26 28 26 Z" transform="translate(17,14) rotate(7) translate(-17,-14)" fill="#10100e" id="id-female-29_vape-5">
</path >
<path d="M 22 13 C 19 10 18 9 18 9 C 21 7 23 6 23 6 L 25 7 C 23 11 22 13 22 13 Z" fill="#2e2b23" id="id-female-29_vape-6">
</path >
<path d="M 27 16 C 25 15 24 14 24 14 C 27 11 28 9 28 9 L 29 10 C 28 14 27 16 27 16 Z" fill="#4a4335" id="id-female-29_vape-7">
</path >
<path d="M 8 7 C 6 6 5 5 5 5 C 7 3 8 2 8 2 L 11 3 C 9 6 8 7 8 7 Z" fill="#494233" id="id-female-29_vape-8">
</path >
<path d="M 58 33 C 60 34 61 35 61 35 C 58 38 56 39 56 39 L 55 38 C 57 35 58 33 58 33 Z" fill="#b2b3be" id="id-female-29_vape-9">
</path >
<path d="M 62 43 C 60 42 60 42 60 42 C 62 39 64 37 64 37 L 65 38 C 63 42 62 43 62 43 Z" fill="#a8a8ae" id="id-female-29_vape-10">
</path >
<path d="M 84 70 C 82 69 81 68 81 68 C 88 60 92 55 92 55 C 93 58 94 59 94 59 L 91 66 C 87 68 84 70 84 70 Z" fill="#00a608" id="id-female-29_vape-11">
</path >
<path d="M 91 66 C 88 63 86 62 86 62 C 89 59 90 57 90 57 C 90 57 91 58 93 61 C 92 64 91 66 91 66 Z" fill="#02d82d" id="id-female-29_vape-12">
</path >
</g >
<defs >
</defs >
<path d="M 1202 1685 C 1201 1683 1198 1681 1197 1679 C 1196 1678 1196 1676 1196 1675 C 1196 1674 1194 1672 1193 1671 C 1193 1670 1192 1669 1192 1668 C 1192 1667 1195 1666 1196 1665 C 1198 1663 1200 1661 1202 1658 C 1207 1649 1216 1643 1226 1641 C 1240 1638 1254 1644 1263 1655 C 1264 1657 1266 1660 1265 1663 C 1265 1664 1263 1665 1263 1666 C 1263 1667 1265 1669 1266 1670 C 1271 1673 1269 1673 1270 1678 C 1270 1682 1274 1681 1274 1685 L 1274 1685 L 1274 1686 C 1274 1686 1274 1686 1274 1686 C 1273 1688 1271 1688 1270 1689 C 1268 1691 1267 1692 1266 1694 C 1263 1698 1261 1700 1258 1704 C 1242 1719 1214 1716 1202 1696 C 1201 1695 1199 1691 1200 1689 C 1201 1688 1202 1688 1202 1685 L 1202 1685 Z M 1268 1685 C 1267 1682 1265 1682 1264 1679 C 1264 1678 1264 1677 1264 1676 C 1264 1675 1264 1674 1264 1674 C 1264 1673 1263 1672 1262 1672 C 1260 1670 1256 1669 1258 1665 C 1259 1662 1261 1662 1258 1658 C 1246 1643 1223 1641 1210 1656 C 1209 1658 1208 1659 1207 1661 C 1205 1663 1202 1665 1200 1667 C 1197 1669 1197 1669 1200 1671 C 1203 1675 1201 1676 1203 1679 C 1204 1681 1207 1682 1208 1685 L 1208 1685 L 1208 1685 C 1207 1690 1203 1688 1207 1694 C 1216 1706 1232 1711 1246 1705 C 1249 1704 1252 1702 1255 1699 C 1257 1697 1259 1694 1261 1691 C 1263 1689 1267 1687 1268 1685 L 1268 1685 Z M 1254 1685 C 1254 1682 1252 1682 1252 1680 C 1251 1677 1251 1673 1255 1674 C 1258 1675 1256 1678 1258 1680 C 1259 1682 1260 1682 1260 1685 L 1261 1686 L 1260 1686 C 1259 1688 1257 1689 1255 1690 C 1248 1694 1246 1699 1237 1700 C 1231 1701 1225 1700 1221 1697 C 1219 1696 1216 1694 1215 1692 C 1213 1689 1216 1688 1216 1685 C 1215 1683 1212 1682 1211 1680 C 1208 1677 1210 1673 1214 1674 L 1214 1674 L 1215 1675 C 1216 1678 1215 1679 1217 1681 C 1219 1682 1222 1683 1222 1686 C 1222 1689 1220 1690 1224 1692 C 1230 1696 1238 1695 1244 1691 C 1246 1690 1253 1687 1254 1685 L 1254 1685 Z M 1244 1674 C 1242 1675 1239 1674 1237 1673 C 1236 1672 1233 1670 1232 1669 C 1231 1669 1231 1668 1231 1667 C 1231 1666 1233 1665 1234 1664 C 1235 1662 1237 1661 1238 1659 C 1242 1652 1249 1658 1247 1663 C 1246 1665 1243 1666 1243 1668 C 1243 1670 1246 1671 1244 1674 L 1244 1674 L 1244 1674 L 1244 1674 Z M 1222 1656 C 1224 1655 1227 1656 1228 1659 C 1229 1660 1229 1661 1229 1663 C 1228 1665 1223 1666 1225 1669 C 1225 1670 1226 1670 1226 1671 C 1227 1674 1226 1675 1223 1675 C 1222 1675 1219 1673 1218 1672 C 1216 1671 1212 1669 1214 1666 C 1215 1664 1217 1664 1218 1662 C 1219 1660 1220 1658 1222 1656 L 1222 1656 Z" fill="black" opacity="1" id="id-icons-Leftover-0">
</path >
  <defs>
      <linearGradient id="Gradient1">
        <stop class="stop1" offset="0%"/>
        <stop class="stop2" offset="100%"/>
      </linearGradient>
      <style type="text/css"><![CDATA[
        #tbar { fill: url(#Gradient1); }
        .stop1 { stop-color: red; }
        .stop2 { stop-color: blue; }
      ]]></style>
  </defs>
<text x="50" y="115" font-family="Trebuchet MS" font-weight="900" font-size="5.5em" letter-spacing="-3.0" text-transform="uppercase" fill="black">FOXCHASE</text>
<text x="50" y="180" font-family="Trebuchet MS" font-size="3.5em" font-weight="900" letter-spacing="-2" text-transform="uppercase" fill="black">LEFTOVER</text>
<g transform="translate(55,195)">
  <rect id="tbar" y="0" width="185" height="13" fill="url(#Gradient1)"></rect>
  <rect x="185" y="1" width="-1" height="11" fill="#E3E3E3"></rect>
</g>
<text x="50" y="270" font-family="Trebuchet MS" font-size="3.5em" font-weight="900" letter-spacing="-2" text-transform="uppercase" fill="black">CB-00217</text>

<g transform="translate(50,1430)">
  <text x="0" y="-5" font-family="Helvetica" font-size="2.5em" font-weight="900" letter-spacing="-2" text-transform="uppercase" fill="black">BODY</text>
  <rect width="95" height="30" fill="black"></rect>
  <rect width="190" height="30" fill="none" stroke="black"></rect>
  <text x="196" y="27" font-family="Helvetica" font-size="2.2em" font-weight="900" letter-spacing="0" text-transform="uppercase" fill="black">15</text>
</g>
<g transform="translate(50,1505)">
  <text x="0" y="-5" font-family="Helvetica" font-size="2.5em" font-weight="900" letter-spacing="-2" text-transform="uppercase" fill="black">MIND</text>
  <rect width="82" height="30" fill="black"></rect>
  <rect width="190" height="30" fill="none" stroke="black"></rect>
  <text x="196" y="27" font-family="Helvetica" font-size="2.3em" font-weight="900" letter-spacing="0" text-transform="uppercase" fill="black">13</text>
</g>
<g transform="translate(50,1580)">
  <text x="0" y="-5" font-family="Helvetica" font-size="2.5em" font-weight="900" letter-spacing="-2" text-transform="uppercase" fill="black">SOUL</text>
  <rect width="127" height="30" fill="black"></rect>
  <rect width="190" height="30" fill="none" stroke="black"></rect>
  <text x="196" y="27" font-family="Helvetica" font-size="2.2em" font-weight="900" letter-spacing="0" text-transform="uppercase" fill="black">20</text>
</g>
<g transform="translate(50,1675)">
  <text x="0" y="-5" font-family="Helvetica" font-size="2.5em" font-weight="900" letter-spacing="-2" text-transform="uppercase" fill="black">TRAITS</text>
  <rect width="79" height="30" fill="black"></rect>
  <rect width="190" height="30" fill="none" stroke="black"></rect>
  <text x="196" y="27" font-family="Helvetica" font-size="2.2em" font-weight="900" letter-spacing="0" text-transform="uppercase" fill="black">5</text>
</g>
</svg>