<?xml version="1.0" encoding="UTF-8"?>
<svg width="1320px" height="1760px" viewBox="0 0 1320 1760" version="1.1" xmlns="http://www.w3.org/2000/svg" xmlns:xlink="http://www.w3.org/1999/xlink">
<defs >
</defs >
<g stroke="none" stroke-width="1" fill="none" id="id-bg-4-Artboard-0" fill-rule="evenodd">
<g id="id-bg-4-Artboard-1">
<rect fill="#382c52" width="1320" height="1760" x="0" y="0" id="id-bg-4-Artboard-2">
</rect >
<g transform="translate(660,890) rotate(-180) translate(-660,-889) translate(67,258)" fill="#7323cd" id="id-bg-4-Artboard-3">
<path d="M 581 0 C 632 61 657 92 657 92 C 943 379 1089 525 1095 531 L 1095 531 L 1095 531 C 1044 588 1018 618 1016 620 L 1016 620 L 1016 620 C 1037 603 1054 589 1067 579 L 1069 577 C 1087 562 1097 554 1097 554 C 1085 597 1078 618 1078 618 C 1117 587 1136 572 1136 572 C 1166 603 1183 619 1185 622 L 1185 622 C 1185 622 1185 622 1186 622 L 1186 622 L 1186 622 C 989 819 871 936 834 974 L 830 977 C 830 978 829 978 829 979 L 826 981 C 826 982 825 982 825 982 L 824 984 C 823 985 822 985 822 986 L 821 987 C 821 987 821 987 821 987 C 823 973 824 967 824 967 C 782 1007 761 1027 761 1027 C 783 1017 795 1012 795 1012 C 660 1148 590 1217 586 1221 L 586 1221 L 586 1221 C 524 1159 491 1126 488 1123 L 488 1123 C 488 1123 488 1123 488 1123 C 421 1181 387 1211 386 1212 L 386 1212 L 386 1212 C 432 1164 461 1133 473 1121 L 474 1120 C 477 1116 479 1114 479 1114 C 474 1109 471 1107 471 1107 C 458 1119 452 1126 451 1126 L 451 1126 C 451 1126 451 1126 451 1126 C 439 1098 433 1084 433 1084 C 403 1107 387 1119 387 1119 C 419 1086 434 1069 434 1069 C 418 1054 410 1046 410 1046 C 464 984 490 954 490 954 L 403 1038 C 145 780 11 646 1 636 L 0 635 L 0 635 C 115 511 173 449 173 449 C 101 512 64 543 64 543 C 260 348 365 243 381 227 L 382 226 C 382 226 382 225 382 225 L 382 225 C 383 225 383 225 383 225 C 400 227 409 227 409 227 C 414 204 416 192 416 192 C 458 150 485 123 497 110 L 498 110 C 499 109 499 109 499 109 L 500 108 C 500 108 500 108 500 108 L 501 107 C 502 106 503 105 503 105 L 504 104 C 504 104 504 104 504 104 L 504 104 C 504 104 504 104 504 104 L 505 103 L 505 103 C 556 34 581 0 581 0 Z M 518 106 C 494 131 482 144 482 144 L 513 128 C 517 114 518 107 518 106 L 518 106 C 518 106 518 106 518 106 Z" id="id-bg-4-Artboard-4">
</path >
<path d="M 395 1039 C 380 1051 373 1057 373 1057 C 362 1046 357 1041 357 1041 C 364 1031 368 1027 368 1027 L 297 946 C 362 1008 395 1039 395 1039 Z" id="id-bg-4-Artboard-5">
</path >
<path d="M 526 1179 C 569 1235 590 1263 590 1263 C 658 1174 691 1130 691 1130 L 588 1241 C 547 1200 526 1179 526 1179 Z" id="id-bg-4-Artboard-6">
</path >
<path d="M 952 866 C 957 866 959 867 959 867 C 1053 777 1100 732 1100 732 L 1111 708 C 1005 813 952 866 952 866 Z" id="id-bg-4-Artboard-7">
</path >
<path d="M 1113 539 C 1099 579 1091 599 1091 599 L 1133 560 C 1119 546 1113 539 1113 539 Z" id="id-bg-4-Artboard-8">
</path >
<path d="M 1081 497 C 1089 487 1092 482 1092 482 L 1034 449 C 1065 481 1081 497 1081 497 Z" id="id-bg-4-Artboard-9">
</path >
<path d="M 643 61 C 625 38 616 26 616 26 L 639 40 C 642 54 643 61 643 61 Z" id="id-bg-4-Artboard-10">
</path >
</g >
</g >
</g >
<defs >
</defs >
<path d="M 785 570 C 786 561 783 551 777 544 C 778 559 771 574 759 584 L 749 605 C 749 605 747 596 746 596 C 746 596 733 609 725 609 L 730 590 L 712 615 C 712 615 618 635 602 591 C 602 591 598 601 602 608 C 602 608 591 607 582 588 C 582 588 580 599 582 605 C 582 605 561 580 558 565 C 554 568 553 571 553 576 C 554 584 542 532 547 505 C 553 478 772 509 772 509 C 786 542 790 562 785 570 Z" fill="#004037" id="id-female-5_9_shaggy_bob_back-0">
</path >
<defs >
<linearGradient x1="100%" y1="46%" x2="12%" y2="47%" id="id-female-6.6_base_2-0">
<stop stop-color="#723722" offset="0%">
</stop >
<stop stop-color="#96513b" offset="21%">
</stop >
<stop stop-color="#9a6555" offset="46%">
</stop >
<stop stop-color="#9f5e49" offset="80%">
</stop >
<stop stop-color="#93523a" offset="100%">
</stop >
</linearGradient >
<linearGradient x1="53%" y1="81%" x2="50%" y2="21%" id="id-female-6.6_base_2-1">
<stop stop-color="#7b3f37" offset="0%">
</stop >
<stop stop-color="#7d4538" offset="24%">
</stop >
<stop stop-color="#834b33" offset="100%">
</stop >
</linearGradient >
<linearGradient x1="52%" y1="-4%" x2="46%" y2="70%" id="id-female-6.6_base_2-2">
<stop stop-color="#834239" offset="0%">
</stop >
<stop stop-color="#5c3029" offset="100%">
</stop >
</linearGradient >
<linearGradient x1="46%" y1="43%" x2="15%" y2="43%" id="id-female-6.6_base_2-3">
<stop stop-color="#924833" offset="0%">
</stop >
<stop stop-color="#683011" offset="100%">
</stop >
</linearGradient >
<linearGradient x1="54%" y1="37%" x2="12%" y2="72%" id="id-female-6.6_base_2-4">
<stop stop-color="#1e0404" offset="0%">
</stop >
<stop stop-color="#34100e" offset="100%">
</stop >
</linearGradient >
<linearGradient x1="40%" y1="14%" x2="61%" y2="85%" id="id-female-6.6_base_2-5">
<stop stop-color="#461a1f" offset="0%">
</stop >
<stop stop-color="#5b2f2c" offset="100%">
</stop >
</linearGradient >
<linearGradient x1="27%" y1="47%" x2="91%" y2="49%" id="id-female-6.6_base_2-6">
<stop stop-color="#784730" offset="0%">
</stop >
<stop stop-color="#be8bc7" offset="100%">
</stop >
</linearGradient >
<linearGradient x1="47%" y1="60%" x2="49%" y2="79%" id="id-female-6.6_base_2-7">
<stop stop-color="#7f4235" offset="0%">
</stop >
<stop stop-color="#894241" offset="60%">
</stop >
<stop stop-color="#9b595a" offset="100%">
</stop >
</linearGradient >
<linearGradient x1="29%" y1="56%" x2="69%" y2="53%" id="id-female-6.6_base_2-8">
<stop stop-color="#804733" offset="0%">
</stop >
<stop stop-color="#743a2c" offset="8%">
</stop >
<stop stop-color="#7c3d34" offset="18%">
</stop >
<stop stop-color="#5d2920" offset="38%">
</stop >
<stop stop-color="#5b2725" offset="65%">
</stop >
<stop stop-color="#7e4037" offset="81%">
</stop >
<stop stop-color="#4c1b1f" offset="100%">
</stop >
</linearGradient >
<linearGradient x1="47%" y1="45%" x2="54%" y2="46%" id="id-female-6.6_base_2-9">
<stop stop-color="#7a3932" offset="0%">
</stop >
<stop stop-color="#763b2f" offset="62%">
</stop >
<stop stop-color="#5f2c1f" offset="77%">
</stop >
<stop stop-color="#794634" offset="100%">
</stop >
</linearGradient >
<linearGradient x1="51%" y1="7%" x2="50%" y2="100%" id="id-female-6.6_base_2-10">
<stop stop-color="#763d2d" offset="0%">
</stop >
<stop stop-color="#914e49" offset="75%">
</stop >
<stop stop-color="#7b3c3b" offset="100%">
</stop >
</linearGradient >
<linearGradient x1="51%" y1="11%" x2="49%" y2="93%" id="id-female-6.6_base_2-11">
<stop stop-color="#87523f" offset="0%">
</stop >
<stop stop-color="#80482f" offset="73%">
</stop >
<stop stop-color="#865037" offset="100%">
</stop >
</linearGradient >
<linearGradient x1="51%" y1="-5%" x2="48%" y2="96%" id="id-female-6.6_base_2-12">
<stop stop-color="#7d452e" offset="0%">
</stop >
<stop stop-color="#6c3821" offset="100%">
</stop >
</linearGradient >
<linearGradient x1="50%" y1="19%" x2="50%" y2="69%" id="id-female-6.6_base_2-13">
<stop stop-color="#50260a" offset="0%">
</stop >
<stop stop-color="#291000" offset="45%">
</stop >
<stop stop-color="#4c2106" offset="100%">
</stop >
</linearGradient >
<linearGradient x1="46%" y1="74%" x2="39%" y2="35%" id="id-female-6.6_base_2-14">
<stop stop-color="#492117" offset="0%">
</stop >
<stop stop-color="#64311e" offset="51%">
</stop >
<stop stop-color="#713121" offset="100%">
</stop >
</linearGradient >
<linearGradient x1="46%" y1="16%" x2="49%" y2="82%" id="id-female-6.6_base_2-15">
<stop stop-color="#512416" offset="0%" stop-opacity="0.186">
</stop >
<stop stop-color="#482015" offset="100%">
</stop >
</linearGradient >
<linearGradient x1="41%" y1="19%" x2="50%" y2="100%" id="id-female-6.6_base_2-16">
<stop stop-color="#5b2725" offset="0%">
</stop >
<stop stop-color="#50260a" offset="100%">
</stop >
</linearGradient >
<linearGradient x1="50%" y1="31%" x2="45%" y2="50%" id="id-female-6.6_base_2-17">
<stop stop-color="#68361d" offset="0%">
</stop >
<stop stop-color="#894c43" offset="100%">
</stop >
</linearGradient >
<linearGradient x1="51%" y1="22%" x2="50%" y2="100%" id="id-female-6.6_base_2-18">
<stop stop-color="#5d2126" offset="0%">
</stop >
<stop stop-color="#4f1c21" offset="100%">
</stop >
</linearGradient >
<linearGradient x1="49%" y1="0%" x2="50%" y2="100%" id="id-female-6.6_base_2-19">
<stop stop-color="#7a3f2e" offset="0%">
</stop >
<stop stop-color="#793f35" offset="100%">
</stop >
</linearGradient >
<linearGradient x1="44%" y1="15%" x2="50%" y2="100%" id="id-female-6.6_base_2-20">
<stop stop-color="#5b2c1f" offset="0%">
</stop >
<stop stop-color="#50281d" offset="100%">
</stop >
</linearGradient >
<linearGradient x1="52%" y1="21%" x2="49%" y2="83%" id="id-female-6.6_base_2-21">
<stop stop-color="#7f4534" offset="0%">
</stop >
<stop stop-color="#975549" offset="48%">
</stop >
<stop stop-color="#83453f" offset="100%">
</stop >
</linearGradient >
<linearGradient x1="85%" y1="60%" x2="15%" y2="60%" id="id-female-6.6_base_2-22">
<stop stop-color="#864a32" offset="0%">
</stop >
<stop stop-color="#5d2a11" offset="100%">
</stop >
</linearGradient >
<linearGradient x1="48%" y1="-20%" x2="59%" y2="91%" id="id-female-6.6_base_2-23">
<stop stop-color="#96533c" offset="0%">
</stop >
<stop stop-color="#5d2c12" offset="60%">
</stop >
<stop stop-color="#643418" offset="72%">
</stop >
<stop stop-color="#743e24" offset="100%">
</stop >
</linearGradient >
<linearGradient x1="55%" y1="48%" x2="46%" y2="33%" id="id-female-6.6_base_2-24">
<stop stop-color="#743f2a" offset="0%">
</stop >
<stop stop-color="#7e462e" offset="86%">
</stop >
<stop stop-color="#764228" offset="100%">
</stop >
</linearGradient >
<linearGradient x1="50%" y1="19%" x2="50%" y2="78%" id="id-female-6.6_base_2-25">
<stop stop-color="#401900" offset="0%">
</stop >
<stop stop-color="#522003" offset="50%">
</stop >
<stop stop-color="#371900" offset="100%">
</stop >
</linearGradient >
<linearGradient x1="50%" y1="10%" x2="50%" y2="43%" id="id-female-6.6_base_2-26">
<stop stop-color="#85462c" offset="0%">
</stop >
<stop stop-color="#602c13" offset="15%">
</stop >
<stop stop-color="#652d15" offset="68%">
</stop >
<stop stop-color="#592a10" offset="100%">
</stop >
</linearGradient >
<linearGradient x1="89%" y1="50%" x2="9%" y2="52%" id="id-female-6.6_base_2-27">
<stop stop-color="#401d02" offset="0%">
</stop >
<stop stop-color="#995734" offset="53%" stop-opacity="0.199">
</stop >
<stop stop-color="#5a2a10" offset="75%">
</stop >
<stop stop-color="#411900" offset="100%">
</stop >
</linearGradient >
<linearGradient x1="44%" y1="70%" x2="86%" y2="30%" id="id-female-6.6_base_2-28">
<stop stop-color="#9a5741" offset="0%">
</stop >
<stop stop-color="#9c6a5f" offset="100%">
</stop >
</linearGradient >
<linearGradient x1="19%" y1="86%" x2="73%" y2="32%" id="id-female-6.6_base_2-29">
<stop stop-color="#703010" offset="0%">
</stop >
<stop stop-color="#a66353" offset="40%">
</stop >
<stop stop-color="#ae745f" offset="100%">
</stop >
</linearGradient >
<linearGradient x1="35%" y1="94%" x2="47%" y2="12%" id="id-female-6.6_base_2-30">
<stop stop-color="#723c23" offset="0%">
</stop >
<stop stop-color="#966556" offset="40%">
</stop >
<stop stop-color="#ac715d" offset="46%">
</stop >
<stop stop-color="#a36655" offset="100%">
</stop >
</linearGradient >
<linearGradient x1="50%" y1="54%" x2="27%" y2="9%" id="id-female-6.6_base_2-31">
<stop stop-color="#ddab90" offset="0%">
</stop >
<stop stop-color="#ddab90" offset="100%" stop-opacity="0.078">
</stop >
</linearGradient >
<linearGradient x1="20%" y1="36%" x2="93%" y2="69%" id="id-female-6.6_base_2-32">
<stop stop-color="#a36150" offset="0%">
</stop >
<stop stop-color="#9d604e" offset="70%">
</stop >
<stop stop-color="#803a19" offset="100%">
</stop >
</linearGradient >
<linearGradient x1="36%" y1="84%" x2="25%" y2="44%" id="id-female-6.6_base_2-33">
<stop stop-color="#663d38" offset="0%" stop-opacity="0.509">
</stop >
<stop stop-color="#57260a" offset="35%" stop-opacity="0.675">
</stop >
<stop stop-color="#763217" offset="100%" stop-opacity="0">
</stop >
</linearGradient >
<linearGradient x1="63%" y1="95%" x2="43%" y2="20%" id="id-female-6.6_base_2-34">
<stop stop-color="#7c3c2b" offset="0%">
</stop >
<stop stop-color="#8a4b32" offset="46%">
</stop >
<stop stop-color="#88452f" offset="100%">
</stop >
</linearGradient >
<linearGradient x1="40%" y1="0%" x2="50%" y2="86%" id="id-female-6.6_base_2-35">
<stop stop-color="#804025" offset="0%">
</stop >
<stop stop-color="#955542" offset="100%">
</stop >
</linearGradient >
<linearGradient x1="50%" y1="0%" x2="50%" y2="92%" id="id-female-6.6_base_2-36">
<stop stop-color="#b56f5e" offset="0%">
</stop >
<stop stop-color="#8b4e35" offset="100%">
</stop >
</linearGradient >
<linearGradient x1="33%" y1="79%" x2="21%" y2="44%" id="id-female-6.6_base_2-37">
<stop stop-color="#936354" offset="0%">
</stop >
<stop stop-color="#633117" offset="28%">
</stop >
<stop stop-color="#763c17" offset="100%" stop-opacity="0">
</stop >
</linearGradient >
<linearGradient x1="4%" y1="47%" x2="92%" y2="45%" id="id-female-6.6_base_2-38">
<stop stop-color="#391108" offset="0%">
</stop >
<stop stop-color="#501a0f" offset="17%" stop-opacity="0.753">
</stop >
<stop stop-color="#6b3127" offset="48%" stop-opacity="0.386">
</stop >
<stop stop-color="#4a1c15" offset="78%" stop-opacity="0.762">
</stop >
<stop stop-color="#411610" offset="100%">
</stop >
</linearGradient >
<linearGradient x1="60%" y1="45%" x2="67%" y2="53%" id="id-female-6.6_base_2-39">
<stop stop-color="#a3716e" offset="0%">
</stop >
<stop stop-color="#cb93a9" offset="100%">
</stop >
</linearGradient >
<linearGradient x1="48%" y1="15%" x2="54%" y2="81%" id="id-female-6.6_base_2-40">
<stop stop-color="#8c4a35" offset="0%">
</stop >
<stop stop-color="#965850" offset="100%">
</stop >
</linearGradient >
<linearGradient x1="47%" y1="44%" x2="50%" y2="61%" id="id-female-6.6_base_2-41">
<stop stop-color="#3e0d06" offset="0%" stop-opacity="0.175">
</stop >
<stop stop-color="#33100b" offset="100%">
</stop >
</linearGradient >
<linearGradient x1="26%" y1="-7%" x2="50%" y2="96%" id="id-female-6.6_base_2-42">
<stop stop-color="#37373f" offset="0%">
</stop >
<stop stop-color="#19191d" offset="100%">
</stop >
</linearGradient >
<linearGradient x1="50%" y1="12%" x2="59%" y2="82%" id="id-female-6.6_base_2-43">
<stop stop-color="#252525" offset="0%">
</stop >
<stop stop-color="#101010" offset="100%">
</stop >
</linearGradient >
<linearGradient x1="25%" y1="-16%" x2="50%" y2="98%" id="id-female-6.6_base_2-44">
<stop stop-color="#37373f" offset="0%">
</stop >
<stop stop-color="#19191d" offset="100%">
</stop >
</linearGradient >
<linearGradient x1="75%" y1="39%" x2="50%" y2="93%" id="id-female-6.6_base_2-45">
<stop stop-color="#252525" offset="0%">
</stop >
<stop stop-color="#000000" offset="100%">
</stop >
</linearGradient >
</defs >
<g transform="translate(334,549)" id="id-female-6.6_base_2-46">
<polygon points="561 754 565 871 565 881 537 893 533 897 535 901 532 909 543 910 597 864" fill="#451f04" id="id-female-6.6_base_2-47">
</polygon >
<polygon points="537 282 539 246 535 195 529 158 522 137 484 118 440 111 212 111 188 113 157 123 121 139 111 186 108 221 109 290" fill="url(#id-female-6.6_base_2-0)" id="id-female-6.6_base_2-47">
</polygon >
<polygon points="467 393 474 506 503 589 537 672 556 728 561 754 546 794 552 851 551 861 552 874 556 885 567 882 568 866 570 860 570 843 571 834 576 843 576 859 579 864 573 874 571 884 544 903 541 916 582 901 597 864 607 852 600 821 597 716 589 695 582 655 569 523 544 425" fill="url(#id-female-6.6_base_2-1)" id="id-female-6.6_base_2-47">
</polygon >
<polygon points="546 794 552 851 551 861 552 874 556 885 567 882 568 866 570 860 570 843 571 834 576 843 576 859 579 864 573 874 571 884 544 903 541 916 582 901 597 864 583 871 588 855 573 815 561 823" fill="url(#id-female-6.6_base_2-2)" id="id-female-6.6_base_2-47">
</polygon >
<polygon points="552 851 551 861 552 874 556 887 567 884 568 866 570 860 558 860" fill="#552b28" id="id-female-6.6_base_2-47">
</polygon >
<polygon points="544 906 541 916 582 901 571 889" fill="#512926" id="id-female-6.6_base_2-47">
</polygon >
<polygon points="561 754 548 789 566 819 586 806" fill="#66342d" id="id-female-6.6_base_2-47">
</polygon >
<polygon points="486 648 477 599 453 529 440 504 437 490 439 460 449 402 456 340 188 343 198 411 202 493 162 596 153 638 266 693 319 721 386 693" fill="url(#id-female-6.6_base_2-3)" id="id-female-6.6_base_2-47">
</polygon >
<polygon points="486 648 477 599 453 529 440 504 437 490 439 460 449 402 456 340 296 353 376 634" fill="#804025" id="id-female-6.6_base_2-47">
</polygon >
<g transform="translate(188,0)" id="id-female-6.6_base_2-56">
<polygon points="274 114 253 111 232 100 201 76 188 58 184 1 93 1 88 64 25 111 1 113 103 123 121 135 134 138 149 121 161 117 187 119 225 114" fill="#83442e" id="id-female-6.6_base_2-47">
</polygon >
<polygon points="201 76 188 58 185 12 175 57 155 111 185 73" fill="#a06e95" id="id-female-6.6_base_2-47">
</polygon >
<polygon points="149 1 93 1 88 64 108 126 121 135 133 138" fill="#6e361f" id="id-female-6.6_base_2-47">
</polygon >
<polygon points="116 102 120 113 118 115 136 135 150 119 164 71 125 108" fill="#5a2f17" id="id-female-6.6_base_2-60">
</polygon >
<polygon points="121 127 133 138 145 124" fill="#431903" id="id-female-6.6_base_2-61">
</polygon >
<polygon points="136 98 164 71 175 57 186 17 134 51" fill="#68291c" id="id-female-6.6_base_2-62">
</polygon >
<polygon points="97 96 116 80 164 60 178 48 186 17 184 1 93 1 88 64 45 96" fill="#5e2519" opacity="0.654" id="id-female-6.6_base_2-47">
</polygon >
<polygon points="186 17 184 1 93 1 88 64 45 96 66 96" fill="url(#id-female-6.6_base_2-4)" opacity="0.467" id="id-female-6.6_base_2-47">
</polygon >
<polygon points="123 58 176 23 186 17 184 1 93 1 91 22 108 55" fill="#1e0404" opacity="0.434" id="id-female-6.6_base_2-47">
</polygon >
</g >
<polygon points="41 844 33 856 36 895 64 915 84 911 83 903 71 898 72 892 63 884 52 849" fill="url(#id-female-6.6_base_2-5)" id="id-female-6.6_base_2-47">
</polygon >
<polygon points="315 152 285 173 320 188 357 166" fill="#aa6d58" id="id-female-6.6_base_2-67">
</polygon >
<polygon points="327 150 370 130 342 127" fill="#7d452b" id="id-female-6.6_base_2-68">
</polygon >
<polygon points="301 142 303 148 243 131 240 119 276 119" fill="#7b442b" id="id-female-6.6_base_2-69">
</polygon >
<polygon points="159 149 206 123 269 123 303 144 297 118 188 113 157 123 121 139" fill="url(#id-female-6.6_base_2-6)" id="id-female-6.6_base_2-47">
</polygon >
<polygon points="157 123 121 139 153 167 196 134" fill="#be8ca3" id="id-female-6.6_base_2-47">
</polygon >
<polygon points="89 584 77 541 62 551 45 658 34 712 25 741 25 762 10 817 0 845 14 870 25 901 58 919 72 919 69 913 61 905 50 899 37 874 37 852 43 845 52 855 50 887 56 901 64 905 66 901 66 882 72 836 72 800 69 781 64 773 66 735 85 684 121 599 162 510" fill="url(#id-female-6.6_base_2-7)" id="id-female-6.6_base_2-47">
</polygon >
<polygon points="89 584 77 541 62 551 45 658 48 715 121 599 162 510" fill="#7a432a" id="id-female-6.6_base_2-47">
</polygon >
<polygon points="55 843 45 827 37 848 17 852 8 836 5 851 0 845 14 870 25 901 58 919 72 919 69 913 61 905 50 899 37 874 37 852 43 845 52 855 50 887 56 901 64 905 66 901 66 882 72 836" fill="#743e32" id="id-female-6.6_base_2-47">
</polygon >
<polygon points="53 882 52 892 56 901 64 905 66 901 66 882 67 876" fill="#6b362f" id="id-female-6.6_base_2-47">
</polygon >
<polygon points="25 901 58 919 72 919 62 909 37 895" fill="#6b362f" id="id-female-6.6_base_2-47">
</polygon >
<polygon points="160 467 145 488 108 578 45 777 48 797 64 773 66 735 85 684 121 599 162 510" fill="#643317" id="id-female-6.6_base_2-47">
</polygon >
<polygon points="169 1211 277 1211 282 1183 281 1150 284 1127 286 1114 285 1063 293 972 306 866 311 792 309 768 323 771 337 768 333 817 333 855 339 924 346 1008 348 1113 351 1130 353 1176 361 1211 461 1211 458 1191 456 1170 460 1133 461 1082 505 905 516 839 518 826 512 762 503 706 486 648 482 629 386 690 318 718 266 690 184 629 153 637 132 731 119 781 118 813 123 862 131 916 166 1094 176 1179" fill="url(#id-female-6.6_base_2-8)" id="id-female-6.6_base_2-47">
</polygon >
<polygon points="463 664 416 771 400 819 392 1125 359 1178 398 1204 441 1153 461 1082 505 905 516 839 518 826 515 789 490 714" fill="url(#id-female-6.6_base_2-9)" id="id-female-6.6_base_2-47">
</polygon >
<polygon points="422 1160 395 1199 365 1171 401 1149 384 1120 391 983 411 786 416 771 448 697 454 1013 445 1116 407 1149" fill="url(#id-female-6.6_base_2-10)" id="id-female-6.6_base_2-80">
</polygon >
<polygon points="121 139 111 186 108 221 109 290 96 438 89 464 69 510 89 585 162 510 167 425 162 241" fill="url(#id-female-6.6_base_2-11)" id="id-female-6.6_base_2-47">
</polygon >
<polygon points="101 466 103 488 106 510 160 447 179 359 164 232 187 184 186 179 132 181 161 234 161 321 149 376 151 384 123 461 114 466" fill="url(#id-female-6.6_base_2-12)" id="id-female-6.6_base_2-82">
</polygon >
<polygon points="96 438 89 464 69 510 51 621 101 520 96 476" fill="#82566b" id="id-female-6.6_base_2-47">
</polygon >
<polygon points="96 451 128 365 134 316 121 139 111 186 108 221 109 290 96 438" fill="#643317" id="id-female-6.6_base_2-47">
</polygon >
<polygon points="184 241 177 248 162 225 138 289 161 321 170 375 161 420 151 411 162 510 167 425 188 343" fill="url(#id-female-6.6_base_2-13)" id="id-female-6.6_base_2-47">
</polygon >
<polygon points="284 1127 286 1114 285 1063 293 972 306 866 311 792 309 768 323 771 337 768 333 817 333 855 339 924 346 1008 375 889 416 771 463 664 490 714 515 790 512 762 503 706 486 648 477 599 471 583 420 650 316 720 201 654 244 742 264 824 275 994" fill="url(#id-female-6.6_base_2-14)" id="id-female-6.6_base_2-47">
</polygon >
<polygon points="298 930 306 866 311 792 309 768 323 771 337 768 333 817 333 855 336 894 347 826 360 784 378 733 388 687 321 739 254 687 267 736 291 821" fill="url(#id-female-6.6_base_2-15)" id="id-female-6.6_base_2-47">
</polygon >
<polygon points="348 1093 348 1113 351 1130 353 1176 361 1211 461 1211 439 1155 422 1136 403 1148 429 1168 400 1202 370 1170 382 1125" fill="url(#id-female-6.6_base_2-16)" id="id-female-6.6_base_2-47">
</polygon >
<polygon points="10 855 8 836 5 851 0 845 14 870" fill="#6d342e" id="id-female-6.6_base_2-47">
</polygon >
<polygon points="520 500 516 520 544 629 474 500 490 399" fill="url(#id-female-6.6_base_2-17)" id="id-female-6.6_base_2-90">
</polygon >
<polygon points="461 1211 458 1191 456 1170 460 1133 461 1082 439 1155 450 1211" fill="url(#id-female-6.6_base_2-18)" id="id-female-6.6_base_2-47">
</polygon >
<polygon points="220 1149 259 1115 240 1063 232 973 266 819 240 713 201 661 158 650 201 784 183 925 170 1083" fill="url(#id-female-6.6_base_2-19)" id="id-female-6.6_base_2-92">
</polygon >
<polygon points="169 1211 277 1211 282 1183 281 1150 284 1127 286 1114 286 1098 226 1211 207 1211 196 1121 173 1078 150 1014 166 1094 176 1179" fill="url(#id-female-6.6_base_2-20)" id="id-female-6.6_base_2-47">
</polygon >
<polygon points="173 1078 183 924 150 1014" fill="#6b352c" id="id-female-6.6_base_2-47">
</polygon >
<polygon points="169 1211 239 1211 230 1196 204 1175 173 1150 176 1179" fill="#521e24" opacity="0.574" id="id-female-6.6_base_2-47">
</polygon >
<polygon points="221 1130 240 1097 224 1063 224 983 240 804 217 698 190 668 212 771 212 910 190 998 181 1094" fill="url(#id-female-6.6_base_2-21)" id="id-female-6.6_base_2-92">
</polygon >
<polygon points="217 795 221 692 200 667 169 658 200 737" fill="#9c5f46" id="id-female-6.6_base_2-97">
</polygon >
<polygon points="511 476 492 419 481 447 484 356 521 274 533 417" fill="url(#id-female-6.6_base_2-22)" id="id-female-6.6_base_2-98">
</polygon >
<polygon points="569 523 544 425 542 346 537 282 539 246 535 195 529 158 522 137 494 161 419 158 471 211 516 290 525 411 511 477 518 507 535 462 562 543" fill="url(#id-female-6.6_base_2-23)" id="id-female-6.6_base_2-47">
</polygon >
<polygon points="486 389 533 243 501 167 464 207 451 247 463 265" fill="url(#id-female-6.6_base_2-24)" id="id-female-6.6_base_2-100">
</polygon >
<polygon points="473 490 474 506 503 589 537 672 556 728 561 754 567 712 543 623" fill="#582a0f" id="id-female-6.6_base_2-47">
</polygon >
<polygon points="460 328 466 378 474 506 490 425 486 392 469 274 479 230 461 260 454 251" fill="url(#id-female-6.6_base_2-25)" id="id-female-6.6_base_2-47">
</polygon >
<polygon points="440 504 437 490 439 460 449 402 456 340 458 328 325 282 188 343 198 411 202 493 162 596 157 621 161 633 169 599 173 570 204 506 202 458 217 402 286 365 321 352 353 360 422 402 431 493 437 520" fill="url(#id-female-6.6_base_2-26)" id="id-female-6.6_base_2-47">
</polygon >
<polygon points="451 385 456 340 458 328 364 340 330 308 268 343 188 343 194 379 262 368 312 343 335 340 381 368" fill="url(#id-female-6.6_base_2-27)" id="id-female-6.6_base_2-47">
</polygon >
<polygon points="286 328 306 310 330 274 453 252 464 205 421 156 317 204 219 165 210 154 188 180" fill="url(#id-female-6.6_base_2-28)" id="id-female-6.6_base_2-105">
</polygon >
<path d="M 422 195 L 405 190 C 377 190 357 198 343 214 C 329 230 322 250 323 276 C 324 301 331 320 345 333 C 365 351 384 356 405 356 C 425 356 444 347 450 342 C 454 339 457 335 460 328 C 463 323 466 317 467 308 C 469 294 466 276 457 254 L 422 195 Z" fill="url(#id-female-6.6_base_2-29)" id="id-female-6.6_base_2-106">
</path >
<path d="M 422 195 L 417 175 C 386 188 366 196 358 201 C 355 203 351 206 348 208 C 348 209 381 253 448 342 C 454 338 459 332 463 324 C 469 310 469 301 469 293 C 469 287 465 275 459 257 L 422 195 Z" fill="url(#id-female-6.6_base_2-30)" id="id-female-6.6_base_2-106">
</path >
<path d="M 375 226 C 338 253 343 276 343 284 C 343 291 353 319 371 335 C 379 342 422 349 447 331 C 468 316 472 294 458 265 C 427 221 400 208 375 226 Z" fill="url(#id-female-6.6_base_2-31)" opacity="0.282" id="id-female-6.6_base_2-106">
</path >
<path d="M 272 205 C 260 199 243 200 221 209 C 187 227 169 258 168 303 C 167 319 184 342 190 346 C 197 351 212 356 239 353 C 257 351 272 344 284 333 C 303 312 312 288 309 260 C 305 217 291 214 272 205 Z" fill="url(#id-female-6.6_base_2-32)" id="id-female-6.6_base_2-109">
</path >
<path d="M 340 285 C 333 252 328 240 326 248 C 324 254 323 263 323 276 C 324 301 331 320 345 333 C 365 351 382 356 404 356 C 425 356 444 347 450 342 C 456 337 465 325 468 308 C 472 290 465 276 463 268 C 461 263 460 259 458 255 L 442 290 L 399 304 L 366 300 L 340 285 Z" fill="url(#id-female-6.6_base_2-33)" id="id-female-6.6_base_2-106">
</path >
<path d="M 153 637 L 149 654 L 132 731 L 130 739 C 133 730 135 723 137 718 C 140 709 147 691 149 680 C 151 671 155 655 161 633 L 172 570 L 162 596 L 153 637 Z" fill="#7d362e" id="id-female-6.6_base_2-47">
</path >
<path d="M 259 203 C 254 199 240 185 217 163 L 210 153 L 186 180 C 192 211 192 231 186 239 C 175 256 168 277 168 303 C 168 324 190 352 239 344 C 252 342 274 217 259 203 Z" fill="#a36150" id="id-female-6.6_base_2-109">
</path >
<polygon points="175 565 203 550 234 558 241 520 203 455 203 507" fill="#5e2d13" id="id-female-6.6_base_2-113">
</polygon >
<polygon points="241 442 241 518 229 556 233 629 266 657 316 707 381 659 395 629 364 504 350 504 301 380" fill="url(#id-female-6.6_base_2-34)" id="id-female-6.6_base_2-114">
</polygon >
<polygon points="432 626 427 589 407 518 414 505 450 568 470 618" fill="url(#id-female-6.6_base_2-35)" id="id-female-6.6_base_2-115">
</polygon >
<polygon points="302 376 254 442 254 546 302 590 364 568 364 504 350 504 376 454 345 400" fill="url(#id-female-6.6_base_2-36)" opacity="0.599" id="id-female-6.6_base_2-114">
</polygon >
<polygon points="317 480 342 436 319 413 300 447" fill="#874a31" id="id-female-6.6_base_2-117">
</polygon >
<polygon points="304 541 318 507 329 541 314 549" fill="#774029" id="id-female-6.6_base_2-118">
</polygon >
<polygon points="306 543 316 578 329 541" fill="#935f42" id="id-female-6.6_base_2-119">
</polygon >
<path d="M 178 333 C 179 334 180 336 182 338 C 184 342 186 343 189 346 C 190 347 197 351 206 353 C 215 354 226 355 239 353 C 257 351 272 344 284 333 C 293 322 299 313 302 305 C 304 301 307 293 309 277 C 310 274 310 268 309 260 L 228 277 L 207 295 L 178 333 Z" fill="url(#id-female-6.6_base_2-37)" id="id-female-6.6_base_2-109">
</path >
<polygon points="306 543 308 550 324 556 329 541" fill="#9e7261" id="id-female-6.6_base_2-119">
</polygon >
<polygon points="308 543 318 525 323 542 314 548" fill="#3c1e03" id="id-female-6.6_base_2-122">
</polygon >
<polygon points="152 641 162 596 176 561 185 617 214 602 246 628 323 690 404 628 423 605 454 605 470 577 477 599 482 629 388 689 337 768 323 771 309 768 259 688 175 639 142 688" fill="url(#id-female-6.6_base_2-38)" opacity="0.442" id="id-female-6.6_base_2-123">
</polygon >
<polygon points="490 154 522 137 484 118 412 123" fill="url(#id-female-6.6_base_2-39)" id="id-female-6.6_base_2-47">
</polygon >
<polygon points="573 785 588 829 602 858 607 852 600 821 597 716 576 763" fill="#8e4d48" id="id-female-6.6_base_2-47">
</polygon >
<polygon points="574 722 589 695 582 655 533 542" fill="url(#id-female-6.6_base_2-40)" id="id-female-6.6_base_2-47">
</polygon >
<polygon points="172 640 241 690 309 768 323 771 338 768 395 706 469 661 404 650 313 706 217 629" fill="url(#id-female-6.6_base_2-41)" opacity="0.571" id="id-female-6.6_base_2-127">
</polygon >
<g transform="translate(188,270)" id="id-female-6.6_base_2-128">
<polygon points="207 13 207 10 217 2 220 2 239 21 258 39 260 42 250 51 246 52 226 33" fill="url(#id-female-6.6_base_2-42)" id="id-female-6.6_base_2-129">
</polygon >
<polygon points="208 40 218 50 222 50 240 33 257 13 257 9 247 0 244 1 230 19 209 36" fill="url(#id-female-6.6_base_2-43)" id="id-female-6.6_base_2-130">
</polygon >
<polygon points="1 13 1 10 10 2 15 2 32 21 50 39 52 42 42 52 38 52 19 33" fill="url(#id-female-6.6_base_2-44)" id="id-female-6.6_base_2-129">
</polygon >
<polygon points="0 43 10 53 14 53 33 35 50 15 50 11 40 3 36 4 19 23 1 39" fill="url(#id-female-6.6_base_2-45)" id="id-female-6.6_base_2-130">
</polygon >
</g >
</g >
<defs >
<linearGradient x1="50%" y1="0%" x2="50%" y2="85%" id="id-female-6.8_face_2-0">
<stop stop-color="#874639" offset="0%">
</stop >
<stop stop-color="#4d2322" offset="100%">
</stop >
</linearGradient >
<radialGradient cx="50%" cy="55%" r="91%" id="id-female-6.8_face_2-1" fx="50%" fy="55%" gradientTransform="translate(0.5,0.55) scale(1,0.697) rotate(-90) scale(1,0.712) translate(-0.5,-0.55)">
<stop stop-color="#a3513a" offset="0%">
</stop >
<stop stop-color="#c87359" offset="39%">
</stop >
<stop stop-color="#291013" offset="100%">
</stop >
</radialGradient >
<linearGradient x1="11%" y1="60%" x2="57%" y2="52%" id="id-female-6.8_face_2-2">
<stop stop-color="#944831" offset="0%">
</stop >
<stop stop-color="#b46750" offset="48%">
</stop >
<stop stop-color="#d27d60" offset="100%">
</stop >
</linearGradient >
<linearGradient x1="46%" y1="46%" x2="22%" y2="61%" id="id-female-6.8_face_2-3">
<stop stop-color="#a0543d" offset="0%">
</stop >
<stop stop-color="#642d27" offset="100%">
</stop >
</linearGradient >
<linearGradient x1="48%" y1="50%" x2="57%" y2="65%" id="id-female-6.8_face_2-4">
<stop stop-color="#a55643" offset="0%">
</stop >
<stop stop-color="#66342f" offset="100%">
</stop >
</linearGradient >
<linearGradient x1="100%" y1="38%" x2="17%" y2="50%" id="id-female-6.8_face_2-5">
<stop stop-color="#cb7b65" offset="0%">
</stop >
<stop stop-color="#ae6452" offset="100%">
</stop >
</linearGradient >
<linearGradient x1="47%" y1="27%" x2="48%" y2="50%" id="id-female-6.8_face_2-6">
<stop stop-color="#532d32" offset="0%">
</stop >
<stop stop-color="#794968" offset="100%">
</stop >
</linearGradient >
<radialGradient cx="47%" cy="70%" r="97%" id="id-female-6.8_face_2-7" fx="47%" fy="70%" gradientTransform="translate(0.467,0.7) scale(0.592,1) rotate(-93) translate(-0.467,-0.7)">
<stop stop-color="#d17f6c" offset="0%">
</stop >
<stop stop-color="#622923" offset="100%">
</stop >
</radialGradient >
<linearGradient x1="42%" y1="43%" x2="61%" y2="33%" id="id-female-6.8_face_2-8">
<stop stop-color="#783a36" offset="0%">
</stop >
<stop stop-color="#632f2b" offset="100%">
</stop >
</linearGradient >
<radialGradient cx="45%" cy="79%" r="81%" id="id-female-6.8_face_2-9" fx="45%" fy="79%" gradientTransform="translate(0.447,0.79) scale(0.833,1) rotate(-90) scale(1,1) translate(-0.447,-0.79)">
<stop stop-color="#f2a292" offset="0%">
</stop >
<stop stop-color="#93483d" offset="100%">
</stop >
</radialGradient >
<linearGradient x1="58%" y1="0%" x2="20%" y2="89%" id="id-female-6.8_face_2-10">
<stop stop-color="#d48072" offset="0%" stop-opacity="0">
</stop >
<stop stop-color="#e49281" offset="46%">
</stop >
<stop stop-color="#f2a38f" offset="100%" stop-opacity="0.432">
</stop >
</linearGradient >
<linearGradient x1="52%" y1="22%" x2="50%" y2="16%" id="id-female-6.8_face_2-11">
<stop stop-color="#a06daa" offset="0%">
</stop >
<stop stop-color="#a471b2" offset="100%" stop-opacity="0.398">
</stop >
</linearGradient >
<radialGradient cx="45%" cy="76%" r="54%" id="id-female-6.8_face_2-12" fx="45%" fy="76%" gradientTransform="translate(0.455,0.761) scale(0.673,1) scale(1,0.612) translate(-0.455,-0.761)">
<stop stop-color="#bc6d5a" offset="0%">
</stop >
<stop stop-color="#974c3a" offset="100%">
</stop >
</radialGradient >
<linearGradient x1="50%" y1="0%" x2="50%" y2="73%" id="id-female-6.8_face_2-13">
<stop stop-color="#d88873" offset="0%">
</stop >
<stop stop-color="#b4624d" offset="100%">
</stop >
</linearGradient >
<linearGradient x1="25%" y1="52%" x2="67%" y2="55%" id="id-female-6.8_face_2-14">
<stop stop-color="#d37b62" offset="0%">
</stop >
<stop stop-color="#843c39" offset="100%">
</stop >
</linearGradient >
<linearGradient x1="71%" y1="52%" x2="18%" y2="50%" id="id-female-6.8_face_2-15">
<stop stop-color="#994d39" offset="0%">
</stop >
<stop stop-color="#5e2c26" offset="100%">
</stop >
</linearGradient >
<linearGradient x1="94%" y1="63%" x2="50%" y2="63%" id="id-female-6.8_face_2-16">
<stop stop-color="#6f3d40" offset="0%">
</stop >
<stop stop-color="#ad594c" offset="100%">
</stop >
</linearGradient >
<linearGradient x1="50%" y1="0%" x2="50%" y2="84%" id="id-female-6.8_face_2-17">
<stop stop-color="#0b071e" offset="0%">
</stop >
<stop stop-color="#3c2f7b" offset="100%">
</stop >
</linearGradient >
<linearGradient x1="75%" y1="46%" x2="36%" y2="49%" id="id-female-6.8_face_2-18">
<stop stop-color="#772f2b" offset="0%">
</stop >
<stop stop-color="#b35849" offset="46%">
</stop >
<stop stop-color="#693027" offset="100%">
</stop >
</linearGradient >
<linearGradient x1="50%" y1="0%" x2="50%" y2="84%" id="id-female-6.8_face_2-19">
<stop stop-color="#0b071e" offset="0%">
</stop >
<stop stop-color="#3c2f7b" offset="100%">
</stop >
</linearGradient >
<linearGradient x1="28%" y1="50%" x2="72%" y2="55%" id="id-female-6.8_face_2-20">
<stop stop-color="#4c1a19" offset="0%">
</stop >
<stop stop-color="#692928" offset="100%">
</stop >
</linearGradient >
<radialGradient cx="50%" cy="28%" r="98%" id="id-female-6.8_face_2-21" fx="50%" fy="28%" gradientTransform="translate(0.5,0.278) scale(0.259,1) rotate(90) scale(1,1) translate(-0.5,-0.278)">
<stop stop-color="#df6c71" offset="0%">
</stop >
<stop stop-color="#9f504c" offset="100%">
</stop >
</radialGradient >
<linearGradient x1="13%" y1="50%" x2="90%" y2="50%" id="id-female-6.8_face_2-22">
<stop stop-color="#682929" offset="0%">
</stop >
<stop stop-color="#b85454" offset="54%">
</stop >
<stop stop-color="#833a38" offset="100%">
</stop >
</linearGradient >
<radialGradient cx="48%" cy="82%" r="121%" id="id-female-6.8_face_2-23" fx="48%" fy="82%" gradientTransform="translate(0.483,0.816) scale(0.316,1) rotate(-95) translate(-0.483,-0.816)">
<stop stop-color="#ba354f" offset="0%">
</stop >
<stop stop-color="#592020" offset="100%">
</stop >
</radialGradient >
<linearGradient x1="32%" y1="49%" x2="112%" y2="53%" id="id-female-6.8_face_2-24">
<stop stop-color="#f6b8cb" offset="0%">
</stop >
<stop stop-color="#78272f" offset="100%">
</stop >
</linearGradient >
<linearGradient x1="50%" y1="0%" x2="50%" y2="100%" id="id-female-6.8_face_2-25">
<stop stop-color="#693c4e" offset="0%">
</stop >
<stop stop-color="#7a5771" offset="100%">
</stop >
</linearGradient >
<linearGradient x1="50%" y1="0%" x2="50%" y2="100%" id="id-female-6.8_face_2-26">
<stop stop-color="#693c4e" offset="0%">
</stop >
<stop stop-color="#7a5771" offset="100%">
</stop >
</linearGradient >
<linearGradient x1="-8%" y1="57%" x2="25%" y2="53%" id="id-female-6.8_face_2-27">
<stop stop-color="#c06e59" offset="0%">
</stop >
<stop stop-color="#4c2426" offset="100%">
</stop >
</linearGradient >
<linearGradient x1="106%" y1="53%" x2="76%" y2="50%" id="id-female-6.8_face_2-28">
<stop stop-color="#c06f5a" offset="0%">
</stop >
<stop stop-color="#401f21" offset="100%">
</stop >
</linearGradient >
<linearGradient x1="81%" y1="45%" x2="17%" y2="63%" id="id-female-6.8_face_2-29">
<stop stop-color="#c86c4d" offset="0%">
</stop >
<stop stop-color="#90452f" offset="100%">
</stop >
</linearGradient >
<linearGradient x1="50%" y1="14%" x2="50%" y2="87%" id="id-female-6.8_face_2-30">
<stop stop-color="#d37e62" offset="0%">
</stop >
<stop stop-color="#be6540" offset="100%">
</stop >
</linearGradient >
<linearGradient x1="50%" y1="29%" x2="50%" y2="100%" id="id-female-6.8_face_2-31">
<stop stop-color="#a4543f" offset="0%">
</stop >
<stop stop-color="#602b28" offset="100%">
</stop >
</linearGradient >
</defs >
<g transform="translate(561,332)" id="id-female-6.8_face_2-32">
<g transform="translate(172,115)" id="id-female-6.8_face_2-33">
<polygon points="14 1 18 0 25 8 27 21 24 41 14 66 0 68" fill="url(#id-female-6.8_face_2-0)" id="id-female-6.8_face_2-34">
</polygon >
<polygon points="12 48 19 50 23 42 26 24 20 12 12 22" fill="#7d3f38" id="id-female-6.8_face_2-35">
</polygon >
<polygon points="11 21 17 10 20 5 24 7 26 24 20 36 18 31 20 16 9 29" fill="#632a21" id="id-female-6.8_face_2-36">
</polygon >
<polygon points="10 28 11 38 8 45 13 49 19 38 13 24" fill="#381717" id="id-female-6.8_face_2-37">
</polygon >
<polygon points="12 18 17 17 18 9" fill="#381717" id="id-female-6.8_face_2-38">
</polygon >
<polygon points="17 51 9 52 7 51 4 62 11 64 13 62" fill="#7c4337" id="id-female-6.8_face_2-39">
</polygon >
</g >
<g transform="translate(0,113)" id="id-female-6.8_face_2-40">
<polygon points="13 0 5 0 0 13 4 36 13 63 25 67" fill="#9b4d38" id="id-female-6.8_face_2-41">
</polygon >
<polygon points="5 9 0 13 4 36 13 63 25 67 13 24" fill="#7d3f38" id="id-female-6.8_face_2-41">
</polygon >
<polygon points="18 46 14 47 7 32 11 26 4 9 6 5 16 20 17 29" fill="#632a21" id="id-female-6.8_face_2-43">
</polygon >
<polygon points="13 62 20 62 18 49 11 53" fill="#a0533d" id="id-female-6.8_face_2-44">
</polygon >
<polygon points="25 68 13 63 20 62 17 46 14 47 13 44 14 29 17 26 14 22 10 19 10 11 17 20" fill="#381717" id="id-female-6.8_face_2-45">
</polygon >
<polygon points="13 9 4 3 5 0 12 0" fill="#c26e60" id="id-female-6.8_face_2-46">
</polygon >
</g >
<path d="M 29 199 C 21 165 17 151 15 130 C 4 44 33 0 103 0 C 180 0 191 63 186 119 C 183 157 173 191 170 202 C 169 206 167 213 164 217 C 155 229 135 242 119 249 C 112 251 89 251 79 249 C 65 240 47 234 36 218 C 33 213 32 209 29 199 Z" fill="url(#id-female-6.8_face_2-1)" id="id-female-6.8_face_2-47">
</path >
<polygon points="122 166 151 182 171 155 113 120 77 124 20 148 51 190 66 182 86 155" fill="url(#id-female-6.8_face_2-2)" id="id-female-6.8_face_2-48">
</polygon >
<polygon points="115 140 139 167 156 148 121 130 119 140" fill="#e49484" id="id-female-6.8_face_2-49">
</polygon >
<polygon points="169 156 153 147 164 132 174 151" fill="#d66650" id="id-female-6.8_face_2-50">
</polygon >
<path d="M 29 199 C 24 176 20 162 18 149 C 18 148 33 157 51 182 C 54 187 57 195 59 208 C 110 231 130 244 119 249 C 112 251 89 251 79 249 C 65 240 47 234 36 218 C 33 213 32 209 29 199 Z" fill="url(#id-female-6.8_face_2-3)" id="id-female-6.8_face_2-47">
</path >
<path d="M 119 249 C 112 251 89 251 79 249 C 77 247 74 245 70 242 L 80 234 L 131 223 C 125 240 121 248 119 249 Z" fill="#79382d" id="id-female-6.8_face_2-47">
</path >
<path d="M 135 207 L 136 195 L 171 151 L 164 131 L 171 125 C 178 143 181 152 181 154 C 177 177 172 195 170 202 C 169 206 167 213 164 217 C 155 229 135 242 119 249 L 135 207 Z" fill="url(#id-female-6.8_face_2-4)" id="id-female-6.8_face_2-47">
</path >
<polygon points="179 117 171 125 177 143" fill="#90596c" id="id-female-6.8_face_2-47">
</polygon >
<polygon points="89 188 91 178 110 176 113 191 99 195" fill="url(#id-female-6.8_face_2-5)" id="id-female-6.8_face_2-55">
</polygon >
<polygon points="87 187 87 181 78 175 104 155 123 177 113 180 106 181 101 185 95 182 91 181 89 187" fill="#56281b" opacity="0.297" id="id-female-6.8_face_2-56">
</polygon >
<path d="M 119 249 C 112 251 89 251 79 249 C 65 240 47 234 36 218 L 79 247 L 119 249 Z" fill="#814c5e" id="id-female-6.8_face_2-47">
</path >
<polygon points="23 119 31 133 45 121 34 111" fill="#562722" id="id-female-6.8_face_2-58">
</polygon >
<polygon points="23 119 23 141 31 133" fill="#663632" id="id-female-6.8_face_2-58">
</polygon >
<path d="M 18 149 C 17 143 15 136 15 130 C 14 120 13 111 13 103 L 21 70 L 32 111 L 23 119 L 23 145 L 35 163 L 18 149 Z" fill="url(#id-female-6.8_face_2-6)" id="id-female-6.8_face_2-47">
</path >
<path d="M 30 111 L 24 83 C 36 49 59 30 92 24 C 126 19 155 33 180 67 L 186 98 L 183 119 L 99 103 L 30 111 Z" fill="url(#id-female-6.8_face_2-7)" id="id-female-6.8_face_2-61">
</path >
<path d="M 180 58 L 186 98 L 183 119 L 171 104 L 164 65 L 154 82 C 147 53 146 38 149 36 C 160 43 170 50 180 58 Z" fill="url(#id-female-6.8_face_2-8)" id="id-female-6.8_face_2-61">
</path >
<polygon points="56 102 62 49 99 32 135 45 149 102 99 109" fill="url(#id-female-6.8_face_2-9)" id="id-female-6.8_face_2-63">
</polygon >
<polygon points="92 39 75 62 99 99 122 62 103 39" fill="url(#id-female-6.8_face_2-10)" id="id-female-6.8_face_2-64">
</polygon >
<path d="M 149 226 L 167 206 L 178 150 L 174 144 L 178 121 L 167 106 L 174 75 L 184 97 L 181 113 L 184 132 C 180 165 172 193 170 202 C 169 206 167 213 164 217 L 149 226 Z" fill="url(#id-female-6.8_face_2-11)" id="id-female-6.8_face_2-47">
</path >
<polygon points="135 207 121 244 84 244 79 234 86 230" fill="url(#id-female-6.8_face_2-12)" id="id-female-6.8_face_2-47">
</polygon >
<polygon points="70 104 102 91 136 107 109 132 81 126" fill="url(#id-female-6.8_face_2-13)" id="id-female-6.8_face_2-67">
</polygon >
<polygon points="39 152 62 170 82 141 75 134" fill="#bf7666" id="id-female-6.8_face_2-68">
</polygon >
<polygon points="76 140 55 151 39 153 25 147 23 146 23 140 26 129 29 127" fill="#8b422f" id="id-female-6.8_face_2-69">
</polygon >
<polygon points="120 140 133 149 153 147 164 132" fill="url(#id-female-6.8_face_2-14)" id="id-female-6.8_face_2-70">
</polygon >
<polygon points="39 135 33 139 43 147 59 148 76 140" fill="url(#id-female-6.8_face_2-15)" id="id-female-6.8_face_2-71">
</polygon >
<polygon points="117 135 127 129 169 128 177 120 169 111 146 101 112 121 115 128" fill="url(#id-female-6.8_face_2-16)" id="id-female-6.8_face_2-72">
</polygon >
<polygon points="124 126 118 119 146 104 167 113 158 123" fill="#914840" id="id-female-6.8_face_2-73">
</polygon >
<polygon points="131 124 144 107 161 107 147 121" fill="#be6d65" id="id-female-6.8_face_2-74">
</polygon >
<path d="M 120 136 L 120 132 C 127 124 134 119 142 118 C 149 118 157 121 165 128 L 120 136 Z" fill="#a04740" id="id-female-6.8_face_2-75">
</path >
<path d="M 130 129 C 130 123 134 120 142 119 C 149 119 154 121 157 128 L 130 129 Z" fill="#c76355" id="id-female-6.8_face_2-75">
</path >
<polygon points="138 126 142 119 144 119 148 126" fill="#feb99c" id="id-female-6.8_face_2-77">
</polygon >
<polygon points="125 138 148 138 158 132 148 126 137 127 124 134" fill="#f4eaff" id="id-female-6.8_face_2-78">
</polygon >
<polygon points="127 137 124 134 120 137" fill="#d8706a" id="id-female-6.8_face_2-79">
</polygon >
<path d="M 132 131 C 132 134 133 136 134 137 C 137 139 142 139 146 137 C 148 136 149 133 149 128 C 145 127 142 127 140 127 C 138 128 135 129 132 131 Z" fill="#2a0610" id="id-female-6.8_face_2-80">
</path >
<path d="M 134 132 C 134 134 135 135 136 136 C 138 137 140 137 144 136 C 146 135 147 133 147 130 C 146 130 145 130 145 130 C 143 129 144 134 140 134 C 135 134 138 130 137 130 C 136 131 135 131 134 132 Z" fill="url(#id-female-6.8_face_2-17)" id="id-female-6.8_face_2-80">
</path >
<polygon points="74 135 82 129 69 114 44 105 34 110 52 129" fill="#8e4539" id="id-female-6.8_face_2-82">
</polygon >
<polygon points="51 121 48 109 62 113 68 119 68 125" fill="#a85e55" id="id-female-6.8_face_2-83">
</polygon >
<path d="M 32 127 C 39 121 46 118 55 120 C 64 121 71 126 76 135 L 32 127 Z" fill="url(#id-female-6.8_face_2-18)" id="id-female-6.8_face_2-84">
</path >
<path d="M 32 127 C 37 122 42 120 48 119 C 44 121 41 124 39 128 L 32 127 Z" fill="#824642" id="id-female-6.8_face_2-84">
</path >
<polygon points="47 128 54 120 61 129" fill="#f68a70" id="id-female-6.8_face_2-86">
</polygon >
<polygon points="49 137 76 137 73 133 62 128 42 128 38 131" fill="#ded5ff" id="id-female-6.8_face_2-87">
</polygon >
<polygon points="72 133 73 135 72 137 77 137 75 135" fill="#8e3d3c" id="id-female-6.8_face_2-88">
</polygon >
<path d="M 49 129 C 51 136 54 139 60 138 C 65 137 68 135 68 130 L 58 128 L 49 129 Z" fill="#24060d" id="id-female-6.8_face_2-89">
</path >
<path d="M 51 131 C 53 136 56 138 60 137 C 64 136 66 134 66 131 L 62 130 C 62 132 61 134 58 134 C 56 134 55 132 55 130 L 51 131 Z" fill="url(#id-female-6.8_face_2-19)" id="id-female-6.8_face_2-89">
</path >
<polygon points="50 139 65 138 78 138 77 137 65 137 49 137" fill="#3e1b19" id="id-female-6.8_face_2-91">
</polygon >
<polygon points="141 131 153 135 158 131 148 126 135 128 126 133" fill="#000000" opacity="0.4" id="id-female-6.8_face_2-92">
</polygon >
<polygon points="45 134 51 132 68 132 73 134 68 129 48 128 40 132" fill="#000000" opacity="0.4" id="id-female-6.8_face_2-93">
</polygon >
<polygon points="77 137 76 137 75 135 67 130 49 129 43 132 49 138 53 139 48 139 41 135 38 135 28 126 41 126 56 125 67 128" fill="#2a0710" id="id-female-6.8_face_2-94">
</polygon >
<path d="M 121 136 C 129 132 135 130 139 128 C 143 127 149 128 155 132 C 154 134 151 136 147 139 C 150 139 154 137 160 133 L 162 133 L 171 126 C 166 126 162 126 160 126 C 153 125 147 123 143 124 C 136 125 128 129 121 136 Z" fill="#340713" id="id-female-6.8_face_2-95">
</path >
<polygon points="135 133 138 133 138 130 136 130 136 132 135 132" fill="#f8e2f8" id="id-female-6.8_face_2-96">
</polygon >
<polygon points="53 131 53 133 55 133 55 132 57 132 56 130" fill="#c7abcd" id="id-female-6.8_face_2-97">
</polygon >
<g transform="translate(59,186)" id="id-female-6.8_face_2-98">
<polygon points="6 20 0 22 19 31" fill="#a4645e" id="id-female-6.8_face_2-99">
</polygon >
<polygon points="10 24 27 44 57 44 71 25" fill="url(#id-female-6.8_face_2-20)" id="id-female-6.8_face_2-100">
</polygon >
<polygon points="7 22 41 28 73 23 76 20 69 17 11 16 5 20" fill="#2a0710" id="id-female-6.8_face_2-101">
</polygon >
<path d="M 7 22 C 19 32 30 38 41 38 C 52 38 63 33 73 23 L 56 22 C 49 22 43 22 39 22 C 35 22 30 21 22 21 L 7 22 Z" fill="url(#id-female-6.8_face_2-21)" id="id-female-6.8_face_2-101">
</path >
<path d="M 7 22 C 19 32 30 38 41 38 C 52 38 63 33 73 23 L 66 23 C 58 31 49 35 41 35 C 33 35 25 30 15 21 L 7 22 Z" fill="url(#id-female-6.8_face_2-22)" opacity="0.651" id="id-female-6.8_face_2-101">
</path >
<path d="M 7 22 C 8 23 9 24 10 25 C 10 22 20 22 39 22 C 59 22 69 24 71 25 C 71 25 72 24 73 23 L 56 22 C 49 22 43 22 39 22 C 35 22 30 21 22 21 L 7 22 Z" fill="#632928" id="id-female-6.8_face_2-101">
</path >
<path d="M 15 21 L 23 20 C 30 19 37 18 41 19 C 46 19 51 20 58 21 L 75 21 C 68 12 60 6 53 2 C 50 2 46 3 41 5 C 36 3 32 1 29 0 C 22 5 15 11 8 18 L 15 21 Z" fill="url(#id-female-6.8_face_2-23)" id="id-female-6.8_face_2-105">
</path >
<path d="M 21 9 C 25 6 28 5 31 5 C 33 5 37 7 43 11 L 53 9 L 60 9 C 63 10 60 8 53 4 C 50 4 47 5 42 7 C 37 4 32 3 29 2 C 22 6 19 9 19 9 L 21 9 Z" fill="url(#id-female-6.8_face_2-24)" opacity="0.485" id="id-female-6.8_face_2-105">
</path >
<path d="M 20 24 L 33 30 C 30 28 31 27 34 27 C 37 27 44 28 54 28 L 59 30 L 58 26 L 61 23 L 56 26 L 30 26 L 20 24 Z" fill="#ee88aa" id="id-female-6.8_face_2-107">
</path >
<path d="M 31 20 C 31 20 31 21 31 21 C 31 21 34 21 40 21 C 40 20 40 20 40 19 C 38 19 35 19 31 20 Z" fill="url(#id-female-6.8_face_2-25)" id="id-female-6.8_face_2-108">
</path >
<path d="M 42 20 C 42 20 42 21 42 21 C 46 22 49 22 51 21 L 51 20 C 46 19 43 19 42 20 Z" fill="url(#id-female-6.8_face_2-26)" id="id-female-6.8_face_2-109">
</path >
</g >
<g transform="translate(22,95)" id="id-female-6.8_face_2-110">
<path d="M 97 23 L 132 12 L 146 18 L 145 11 C 137 4 132 1 129 1 C 120 1 109 4 96 9 C 95 9 95 14 97 23 Z" fill="url(#id-female-6.8_face_2-27)" id="id-female-6.8_face_2-111">
</path >
<polygon points="156 25 147 19 147 13" fill="#3e1f26" id="id-female-6.8_face_2-111">
</polygon >
<path d="M 1 24 L 17 16 L 33 16 L 60 28 L 60 11 C 48 7 35 4 22 4 L 10 11 L 10 16 L 9 12 L 1 24 Z" fill="url(#id-female-6.8_face_2-28)" id="id-female-6.8_face_2-113">
</path >
</g >
<polygon points="99 121 114 127 111 135 121 162 126 169 74 169 81 157 87 130" fill="url(#id-female-6.8_face_2-29)" id="id-female-6.8_face_2-114">
</polygon >
<polygon points="72 118 83 132 96 146 96 132 82 110" fill="#954c3a" id="id-female-6.8_face_2-115">
</polygon >
<polygon points="72 118 83 132 82 110" fill="#9b584a" id="id-female-6.8_face_2-115">
</polygon >
<polygon points="96 132 96 153 84 165 81 161 77 167 78 174 124 174 124 169 121 162 110 161 104 153 104 132" fill="url(#id-female-6.8_face_2-30)" id="id-female-6.8_face_2-117">
</polygon >
<polygon points="78 163 74 169 76 177 87 181 81 176 92 177 95 181 100 182 106 181 106 178 120 175 113 180 118 181 124 179 126 176 126 168 121 160 123 169 123 174 112 169 98 174 89 169 84 173 78 171" fill="url(#id-female-6.8_face_2-31)" id="id-female-6.8_face_2-118">
</polygon >
<polygon points="93 127 100 140 106 127 100 123" fill="#ee9d8c" id="id-female-6.8_face_2-119">
</polygon >
<polygon points="93 167 99 170 105 167 99 161" fill="#db9a77" id="id-female-6.8_face_2-120">
</polygon >
<polygon points="80 170 84 173 89 170 84 166" fill="#d27f62" id="id-female-6.8_face_2-121">
</polygon >
<polygon points="113 169 119 171 120 166 116 164" fill="#d88365" id="id-female-6.8_face_2-122">
</polygon >
<polygon points="115 159 117 152 121 160" fill="#a35547" id="id-female-6.8_face_2-123">
</polygon >
<polygon points="93 178 81 176 81 173 89 173" fill="#2e1111" id="id-female-6.8_face_2-124">
</polygon >
<polygon points="106 178 112 173 118 173 120 175 117 177" fill="#2e1111" id="id-female-6.8_face_2-125">
</polygon >
<polygon points="124 137 145 138 147 139 125 138 120 137" fill="#3f0a19" id="id-female-6.8_face_2-126">
</polygon >
<polygon points="124 140 137 141 147 140" fill="#feaf93" id="id-female-6.8_face_2-127">
</polygon >
<polygon points="49 140 60 141 74 140" fill="#bb735f" id="id-female-6.8_face_2-128">
</polygon >
</g >
<defs >
<linearGradient x1="50%" y1="6%" x2="50%" y2="92%" id="id-female-11_bra_red-0">
<stop stop-color="#fe2910" offset="0%">
</stop >
<stop stop-color="#fe2910" offset="75%">
</stop >
<stop stop-color="#c30026" offset="100%">
</stop >
</linearGradient >
<linearGradient x1="0%" y1="48%" x2="100%" y2="48%" id="id-female-11_bra_red-1">
<stop stop-color="#e89999" offset="0%">
</stop >
<stop stop-color="#b1043d" offset="3%">
</stop >
<stop stop-color="#da4949" offset="11%">
</stop >
<stop stop-color="#fbb9b9" offset="16%">
</stop >
<stop stop-color="#980000" offset="24%">
</stop >
<stop stop-color="#990000" offset="75%">
</stop >
<stop stop-color="#f7baba" offset="82%">
</stop >
<stop stop-color="#c62f2f" offset="87%">
</stop >
<stop stop-color="#aa0505" offset="95%">
</stop >
<stop stop-color="#efc0c0" offset="100%">
</stop >
</linearGradient >
</defs >
<g transform="translate(497,803)" id="id-female-11_bra_red-2">
<polygon points="292 103 250 114 158 116 73 114 54 113 26 106 24 91 10 72 1 47 1 37 8 13 39 2 47 4 73 18 116 46 132 58 132 72 135 79 151 84 171 79 174 58 207 32 263 2 268 1 287 7 303 15 309 34 307 58 294 81" fill="url(#id-female-11_bra_red-0)" id="id-female-11_bra_red-3">
</polygon >
<polygon points="198 115 158 116 105 115 142 92 151 84 165 90" fill="#c30026" opacity="0.783" id="id-female-11_bra_red-3">
</polygon >
<polygon points="110 86 67 99 24 91 10 72 1 47 1 37 5 22 7 47 21 72 36 81 58 86" fill="#d00029" id="id-female-11_bra_red-3">
</polygon >
<polygon points="67 99 24 91 10 72 1 47 1 37 5 22 7 47 21 72 29 84" fill="#e50444" id="id-female-11_bra_red-3">
</polygon >
<polygon points="245 97 210 84 258 74 295 56 304 37 302 15 307 34 307 58 293 81" fill="#d00029" id="id-female-11_bra_red-3">
</polygon >
<polygon points="295 56 301 37 303 15 309 34 307 58 294 81 272 88" fill="#df1700" id="id-female-11_bra_red-3">
</polygon >
<polygon points="206 41 217 56 249 64 288 42 297 16 269 4 214 33" fill="#ff4f45" id="id-female-11_bra_red-9">
</polygon >
<polygon points="14 14 14 33 36 55 77 53 97 38 45 6" fill="#ff4f45" id="id-female-11_bra_red-10">
</polygon >
<polygon points="128 79 123 58 85 32 49 10 25 11 5 21 8 13 39 2 47 4 73 18 116 46 132 58 132 63 173 63 172 71 132 71 132 72 135 79 151 84 171 79 174 58 207 32 263 2 268 1 287 7 303 15 305 21 280 10 265 9 212 36 180 59 175 83 153 90 133 84" fill="url(#id-female-11_bra_red-1)" id="id-female-11_bra_red-3">
</polygon >
</g >
<defs >
<linearGradient x1="50%" y1="0%" x2="50%" y2="100%" id="id-female-12_slit_jumpsuit-0">
<stop stop-color="#b1ff24" offset="0%">
</stop >
<stop stop-color="#44d930" offset="100%">
</stop >
</linearGradient >
<linearGradient x1="50%" y1="0%" x2="50%" y2="100%" id="id-female-12_slit_jumpsuit-0">
<stop stop-color="#b1ff24" offset="0%">
</stop >
<stop stop-color="#44d930" offset="100%">
</stop >
</linearGradient >
<linearGradient x1="50%" y1="0%" x2="50%" y2="100%" id="id-female-12_slit_jumpsuit-0">
<stop stop-color="#b1ff24" offset="0%">
</stop >
<stop stop-color="#44d930" offset="100%">
</stop >
</linearGradient >
<linearGradient x1="54%" y1="50%" x2="46%" y2="51%" id="id-female-12_slit_jumpsuit-3">
<stop stop-color="#062847" offset="0%" stop-opacity="0">
</stop >
<stop stop-color="#072644" offset="52%">
</stop >
<stop stop-color="#072643" offset="100%" stop-opacity="0">
</stop >
</linearGradient >
<linearGradient x1="50%" y1="0%" x2="50%" y2="100%" id="id-female-12_slit_jumpsuit-4">
<stop stop-color="#023058" offset="0%" stop-opacity="0.124">
</stop >
<stop stop-color="#022f57" offset="56%">
</stop >
<stop stop-color="#022f57" offset="100%" stop-opacity="0.239">
</stop >
</linearGradient >
<linearGradient x1="32%" y1="3%" x2="48%" y2="27%" id="id-female-12_slit_jumpsuit-5">
<stop stop-color="#143253" offset="0%">
</stop >
<stop stop-color="#29466a" offset="100%">
</stop >
</linearGradient >
<linearGradient x1="58%" y1="21%" x2="69%" y2="5%" id="id-female-12_slit_jumpsuit-6">
<stop stop-color="#29466a" offset="0%">
</stop >
<stop stop-color="#143253" offset="100%">
</stop >
</linearGradient >
<linearGradient x1="50%" y1="23%" x2="50%" y2="92%" id="id-female-12_slit_jumpsuit-7">
<stop stop-color="#003563" offset="0%">
</stop >
<stop stop-color="#0d1e30" offset="58%">
</stop >
<stop stop-color="#243245" offset="100%">
</stop >
</linearGradient >
<linearGradient x1="80%" y1="50%" x2="28%" y2="50%" id="id-female-12_slit_jumpsuit-8">
<stop stop-color="#2bc51b" offset="0%">
</stop >
<stop stop-color="#36cb17" offset="75%">
</stop >
<stop stop-color="#00a60f" offset="100%">
</stop >
</linearGradient >
<linearGradient x1="57%" y1="56%" x2="40%" y2="50%" id="id-female-12_slit_jumpsuit-9">
<stop stop-color="#314c75" offset="0%">
</stop >
<stop stop-color="#13273f" offset="100%">
</stop >
</linearGradient >
<linearGradient x1="94%" y1="12%" x2="17%" y2="55%" id="id-female-12_slit_jumpsuit-10">
<stop stop-color="#ff89cd" offset="0%">
</stop >
<stop stop-color="#ffaadb" offset="100%">
</stop >
</linearGradient >
<linearGradient x1="100%" y1="50%" x2="0%" y2="50%" id="id-female-12_slit_jumpsuit-11">
<stop stop-color="#ff4cb4" offset="0%">
</stop >
<stop stop-color="#f132a1" offset="100%">
</stop >
</linearGradient >
<linearGradient x1="48%" y1="55%" x2="48%" y2="60%" id="id-female-12_slit_jumpsuit-12">
<stop stop-color="#203956" offset="0%">
</stop >
<stop stop-color="#000102" offset="100%">
</stop >
</linearGradient >
</defs >
<g transform="translate(325,569)" id="id-female-12_slit_jumpsuit-13">
<polygon points="311 320 286 333 275 410 262 315 265 284 272 254 396 270 324 273 272 273 274 285 402 298 323 301 269 300 272 316" fill="#000000" opacity="0.301" id="id-female-12_slit_jumpsuit-14">
</polygon >
<polygon points="318 319 367 329 377 358 392 319" fill="#000000" opacity="0.301" id="id-female-12_slit_jumpsuit-15">
</polygon >
<path d="M 262 248 C 281 251 302 252 325 252 C 348 252 370 251 393 248 L 393 269 C 369 268 346 267 325 267 C 304 267 283 268 262 269 L 262 248 Z" fill="url(#id-female-12_slit_jumpsuit-0)" id="id-female-12_slit_jumpsuit-16">
</path >
<path d="M 262 276 C 281 278 302 279 324 279 C 347 279 370 278 393 276 L 393 297 C 368 296 345 295 324 295 C 304 295 283 296 262 297 L 262 276 Z" fill="url(#id-female-12_slit_jumpsuit-0)" id="id-female-12_slit_jumpsuit-16">
</path >
<path d="M 262 304 C 281 305 301 306 324 306 C 347 306 370 305 393 304 L 393 325 C 368 323 345 322 324 322 C 303 322 283 323 262 325 L 262 304 Z" fill="url(#id-female-12_slit_jumpsuit-0)" id="id-female-12_slit_jumpsuit-16">
</path >
<path d="M 0 837 C 7 849 10 855 10 855 C 10 1046 10 1141 10 1141 C 24 1140 30 1139 30 1139 L 29 900 L 92 811 C 61 817 30 826 0 837 Z" fill="#022e54" id="id-female-12_slit_jumpsuit-19">
</path >
<path d="M 544 793 C 542 801 554 805 560 810 C 584 863 596 889 596 889 C 599 992 600 1043 600 1043 C 610 1035 615 1030 615 1030 L 614 841 L 635 816 C 583 800 553 792 544 793 Z" fill="#022e54" id="id-female-12_slit_jumpsuit-20">
</path >
<path d="M 11 1143 C 24 1142 31 1141 31 1141 C 31 1127 31 1120 31 1120 L 11 1111 L 11 1143 Z" fill="#1dbd18" id="id-female-12_slit_jumpsuit-21">
</path >
<path d="M 600 1012 L 615 1003 L 616 1032 L 601 1044 C 600 1023 600 1012 600 1012 Z" fill="#1dbd18" id="id-female-12_slit_jumpsuit-22">
</path >
<path d="M 301 170 L 301 169 C 285 213 276 243 275 260 C 275 284 275 313 279 341 L 297 480 L 282 582 C 308 601 342 608 372 584 L 358 477 C 373 375 381 324 381 324 C 380 299 383 279 380 252 C 379 242 377 229 374 215 L 373 212 C 370 195 366 178 364 170 C 374 171 384 172 394 174 C 423 179 450 193 474 222 C 480 237 486 253 491 273 C 488 288 481 306 469 326 C 466 354 462 374 459 394 L 459 397 C 455 421 452 444 450 479 C 450 481 451 482 452 484 L 453 486 C 468 515 483 544 492 580 C 499 621 503 641 503 641 C 556 830 513 895 473 1074 L 470 1155 L 474 1191 L 366 1191 L 366 1191 C 357 1115 353 1076 353 1076 C 358 966 327 850 343 754 C 332 754 326 754 323 754 L 323 754 C 323 754 323 754 323 754 L 323 754 C 323 754 323 754 323 754 L 322 754 C 322 754 322 754 322 754 L 322 754 L 322 754 C 324 814 317 873 310 932 L 310 939 L 310 939 L 309 946 C 303 999 297 1051 297 1104 C 293 1126 293 1142 295 1157 L 289 1191 L 175 1191 L 175 1191 C 180 1168 183 1156 183 1156 C 181 1132 178 1112 177 1097 L 176 1095 C 175 1087 174 1080 173 1075 C 164 1019 153 986 147 950 C 108 772 122 767 163 597 C 176 546 191 502 209 472 C 201 389 198 347 198 347 C 197 339 196 333 195 330 C 180 304 172 285 172 272 C 175 256 180 239 190 219 C 214 198 226 187 226 187 C 255 178 269 173 269 173 C 280 172 290 171 301 170 Z" fill="#0f1822" id="id-female-12_slit_jumpsuit-23">
</path >
<path d="M 474 631 L 341 822 C 345 892 353 968 353 1052 L 378 1125 L 442 1035 L 448 1026 L 503 954 C 544 809 534 701 474 631 Z" fill="url(#id-female-12_slit_jumpsuit-3)" id="id-female-12_slit_jumpsuit-24">
</path >
<path d="M 252 1099 C 236 1028 234 974 232 919 C 243 860 248 830 248 830 C 252 776 255 749 255 749 C 230 700 208 663 187 638 C 200 709 214 780 221 853 L 208 1032 C 238 1076 252 1099 252 1099 Z" fill="url(#id-female-12_slit_jumpsuit-4)" id="id-female-12_slit_jumpsuit-25">
</path >
<path d="M 276 1191 C 287 1135 278 1111 277 1075 L 303 1004 C 300 1042 298 1075 297 1104 C 294 1124 293 1141 295 1157 L 289 1191 C 280 1191 276 1191 276 1191 Z" fill="#08121d" id="id-female-12_slit_jumpsuit-26">
</path >
<path d="M 354 1052 L 353 1076 L 363 1191 C 376 1191 383 1191 383 1191 L 378 1125 L 354 1052 Z" fill="#08121d" id="id-female-12_slit_jumpsuit-27">
</path >
<path d="M 383 1191 C 387 1191 389 1191 389 1191 C 386 1152 384 1132 384 1132 C 421 1077 458 1022 498 972 C 501 960 503 954 503 954 C 467 1002 448 1026 448 1026 C 397 983 372 961 372 961 C 356 942 348 932 348 932 C 349 940 349 944 349 944 C 363 961 369 969 369 969 L 442 1035 L 378 1125 C 382 1169 383 1191 383 1191 Z" fill="url(#id-female-12_slit_jumpsuit-5)" id="id-female-12_slit_jumpsuit-28">
</path >
<path d="M 268 1191 C 272 1154 274 1136 274 1136 C 234 1071 215 1038 215 1038 C 249 1015 281 984 309 943 C 310 935 311 931 311 931 C 275 979 241 1013 208 1032 C 167 977 147 950 147 950 C 148 958 148 962 148 962 C 199 1028 239 1086 268 1136 L 264 1191 C 266 1191 268 1191 268 1191 Z" fill="url(#id-female-12_slit_jumpsuit-6)" id="id-female-12_slit_jumpsuit-29">
</path >
<path d="M 211 739 C 218 727 221 722 221 722 C 215 707 212 700 212 700 L 197 721 C 207 733 211 739 211 739 Z" fill="#435271" id="id-female-12_slit_jumpsuit-30">
</path >
<path d="M 316 886 C 307 830 293 773 279 717 C 249 690 235 677 235 677 C 246 676 251 676 251 676 C 230 650 219 636 219 636 C 230 633 235 632 235 632 C 219 618 212 612 212 612 C 283 630 318 639 318 639 C 329 702 335 734 335 734 C 350 733 365 728 381 715 C 393 694 400 683 400 683 C 416 668 424 661 424 661 C 434 661 439 661 439 661 C 407 691 374 732 341 802 L 343 754 L 322 754 C 322 804 320 848 316 886 Z" fill="#0a131d" id="id-female-12_slit_jumpsuit-31">
</path >
<path d="M 474 704 C 463 694 458 689 458 689 C 451 700 447 706 447 706 L 462 719 C 470 709 474 704 474 704 Z" fill="#3b567c" id="id-female-12_slit_jumpsuit-32">
</path >
<path d="M 439 330 C 452 323 465 318 480 304 L 491 273 C 487 258 481 240 474 222 C 438 179 394 169 334 169 C 312 170 290 171 267 173 L 227 186 L 190 219 C 183 234 176 250 172 273 C 173 293 186 311 195 330 C 219 334 231 337 231 337 C 263 337 279 337 278 337 C 276 312 276 286 279 260 C 282 233 288 206 298 179 C 338 172 319 171 358 179 C 366 200 373 224 376 250 C 379 275 379 307 376 332 C 376 333 439 330 439 330 Z" fill="url(#id-female-12_slit_jumpsuit-7)" id="id-female-12_slit_jumpsuit-33">
</path >
<path d="M 360 674 C 421 637 452 618 452 618 C 420 610 404 606 404 606 C 417 524 423 482 423 482 C 401 488 390 491 390 491 C 417 439 431 414 431 414 C 436 358 439 330 439 330 C 398 325 377 323 377 323 C 362 426 354 478 354 478 C 365 547 369 582 367 582 C 343 600 316 607 282 582 C 292 512 297 477 297 477 C 284 385 277 338 277 338 C 257 346 220 366 231 423 C 253 499 264 537 264 537 C 250 524 242 518 242 518 L 253 598 C 225 607 212 612 212 612 C 273 627 304 635 304 635 L 259 641 C 326 663 360 674 360 674 Z" fill="#0a2338" id="id-female-12_slit_jumpsuit-34">
</path >
<path d="M 404 648 L 366 642 L 452 618 C 420 638 404 648 404 648 Z" fill="#08121d" id="id-female-12_slit_jumpsuit-35">
</path >
<path d="M 348 653 C 340 657 336 660 336 660 C 336 625 336 607 336 607 L 347 602 C 348 636 348 653 348 653 Z" fill="#3b567c" id="id-female-12_slit_jumpsuit-36">
</path >
<path d="M 324 657 C 317 655 313 654 313 654 C 314 620 315 604 315 604 L 324 607 C 324 641 324 657 324 657 Z" fill="#3b567c" id="id-female-12_slit_jumpsuit-37">
</path >
<path d="M 229 587 C 202 566 189 555 189 555 L 207 546 C 221 574 229 587 229 587 Z" fill="#0a2238" id="id-female-12_slit_jumpsuit-38">
</path >
<path d="M 459 496 C 409 539 384 561 384 561 C 384 574 384 581 384 581 C 431 556 455 543 455 543 C 475 551 485 555 485 555 L 482 541 C 467 511 459 496 459 496 Z" fill="#21bf19" id="id-female-12_slit_jumpsuit-39">
</path >
<path d="M 171 564 C 196 552 208 545 208 545 C 248 569 268 580 268 580 C 268 566 268 559 268 559 L 198 493 C 186 517 177 541 171 564 Z" fill="#21bf19" id="id-female-12_slit_jumpsuit-40">
</path >
<path d="M 148 962 C 165 1029 176 1091 181 1156 L 175 1191 L 263 1191 L 268 1136 C 234 1078 195 1020 148 962 Z" fill="#3cc317" fill-opacity="0.548" id="id-female-12_slit_jumpsuit-41">
</path >
<path d="M 389 1191 L 474 1191 L 470 1155 L 473 1074 L 498 972 C 458 1022 421 1077 384 1132 L 389 1191 Z" fill="#3cc317" fill-opacity="0.548" id="id-female-12_slit_jumpsuit-42">
</path >
<path d="M 90 812 C 58 819 29 826 0 838 C 22 757 32 717 32 717 C 45 647 64 570 63 515 C 65 485 96 440 101 413 C 121 293 106 191 126 111 C 161 92 219 77 245 63 C 255 48 260 31 263 13 C 310 26 358 29 406 11 C 406 32 407 51 414 59 C 440 78 506 83 537 113 C 542 148 547 182 550 217 C 552 277 550 335 556 392 C 561 433 574 473 589 510 C 581 577 609 641 620 707 C 611 725 638 780 635 817 C 616 812 561 793 544 794 C 550 770 553 758 553 758 C 563 746 562 727 562 707 C 551 692 546 684 546 684 C 540 629 512 588 495 540 C 491 522 491 504 477 491 C 480 440 474 386 469 322 C 477 306 487 289 491 273 C 488 259 482 242 474 222 C 440 186 418 171 332 169 L 267 173 L 226 187 L 190 219 C 183 235 176 251 172 273 C 173 290 184 310 195 330 C 195 386 174 402 179 496 C 164 511 149 526 154 550 C 131 594 103 632 96 698 C 92 706 89 712 79 722 C 75 755 88 779 90 812 Z" fill="url(#id-female-12_slit_jumpsuit-8)" id="id-female-12_slit_jumpsuit-43">
</path >
<path d="M 292 37 C 304 64 310 77 310 77 C 289 81 279 83 279 83 C 275 86 273 87 273 87 C 328 87 356 87 356 87 L 378 20 L 406 11 C 407 31 406 46 414 59 C 439 76 483 83 513 97 L 434 188 C 377 159 296 171 269 173 C 250 178 236 183 227 188 C 228 143 229 121 229 121 L 224 119 L 286 77 C 290 51 292 37 292 37 Z" fill="#5de314" id="id-female-12_slit_jumpsuit-44">
</path >
<path d="M 398 78 C 379 91 361 100 342 106 C 404 117 464 120 523 121 C 528 135 531 142 531 142 C 524 215 520 251 520 251 C 521 260 521 264 521 264 C 528 281 532 289 532 289 C 544 337 536 374 533 414 L 575 472 C 565 444 558 417 556 392 C 550 328 553 260 549 196 L 537 113 C 505 83 451 82 414 59 C 406 49 407 29 406 11 C 387 16 378 19 378 19 L 382 55 C 393 70 398 78 398 78 Z" fill="#b1ff24" id="id-female-12_slit_jumpsuit-45">
</path >
<path d="M 6 836 C 2 837 0 838 0 838 C 0 802 25 752 34 711 C 28 757 9 790 6 836 Z" fill="#06eeb2" id="id-female-12_slit_jumpsuit-46">
</path >
<path d="M 160 158 L 175 195 C 173 181 174 166 179 152 C 179 152 182 157 188 167 C 184 191 181 214 188 225 C 177 246 174 257 172 272 C 172 282 175 291 180 300 L 185 342 L 158 434 L 178 498 C 130 538 106 558 106 558 C 134 548 148 542 148 542 C 141 568 95 630 89 696 C 59 750 44 776 44 776 C 61 778 71 781 73 785 C 73 801 66 808 61 819 C 42 824 32 827 32 827 C 30 786 29 765 29 765 C 59 702 75 636 83 568 C 94 530 100 511 100 511 L 102 407 C 119 311 107 190 126 111 L 160 158 Z" fill="#04b418" id="id-female-12_slit_jumpsuit-47">
</path >
<path d="M 34 826 C 31 785 29 765 29 765 C 46 748 55 739 55 739 C 46 764 41 776 41 776 C 58 785 66 790 66 790 L 59 820 L 34 826 Z" fill="#42d31d" id="id-female-12_slit_jumpsuit-48">
</path >
<path d="M 46 646 C 71 644 86 628 91 598 C 92 556 62 545 62 545 C 61 553 60 558 60 558 C 75 565 82 580 80 602 C 74 621 63 632 48 635 C 47 642 46 646 46 646 Z" fill="url(#id-female-12_slit_jumpsuit-9)" id="id-female-12_slit_jumpsuit-49">
</path >
<path d="M 98 514 C 86 496 79 487 79 487 L 156 483 C 117 504 98 514 98 514 Z" fill="#38cd1d" id="id-female-12_slit_jumpsuit-50">
</path >
<path d="M 64 508 C 73 497 78 491 78 491 C 76 486 75 484 75 484 C 92 442 101 422 101 422 C 103 407 103 401 101 404 C 97 434 65 487 64 508 Z" fill="#06eeb2" id="id-female-12_slit_jumpsuit-51">
</path >
<path d="M 154 463 C 126 447 112 438 112 438 C 120 386 123 360 123 360 L 156 431 C 155 453 154 463 154 463 Z" fill="#3fd21e" id="id-female-12_slit_jumpsuit-52">
</path >
<path d="M 143 484 L 160 465 C 128 447 112 438 112 438 C 108 444 106 447 106 447 L 103 412 L 75 484 L 79 487 C 121 485 143 484 143 484 Z" fill="#00a60f" id="id-female-12_slit_jumpsuit-53">
</path >
<path d="M 189 380 L 180 300 L 195 330 C 195 350 193 367 189 380 Z" fill="#006300" id="id-female-12_slit_jumpsuit-54">
</path >
<path d="M 109 341 C 114 343 117 343 117 343 C 121 289 124 262 124 262 C 120 208 119 169 120 143 C 107 167 115 264 109 341 Z" fill="#02efb1" id="id-female-12_slit_jumpsuit-55">
</path >
<path d="M 175 260 C 162 203 156 175 156 175 L 187 227 C 181 241 177 251 175 260 Z" fill="#008d04" id="id-female-12_slit_jumpsuit-56">
</path >
<path d="M 113 187 C 172 151 233 116 286 78 L 293 20 L 263 13 C 261 30 255 46 246 63 C 212 80 153 95 126 111 C 117 139 113 164 113 187 Z" fill="url(#id-female-12_slit_jumpsuit-10)" id="id-female-12_slit_jumpsuit-57">
</path >
<path d="M 224 120 L 125 111 C 114 142 114 164 113 187 L 224 120 Z" fill="url(#id-female-12_slit_jumpsuit-11)" id="id-female-12_slit_jumpsuit-58">
</path >
<path d="M 246 63 C 247 67 247 68 247 68 C 257 58 268 34 278 17 L 263 13 C 261 31 255 47 246 63 Z" fill="#ffa7db" id="id-female-12_slit_jumpsuit-59">
</path >
<path d="M 293 20 C 292 29 291 33 291 33 L 286 19 C 290 20 293 20 293 20 Z" fill="#ff64be" id="id-female-12_slit_jumpsuit-60">
</path >
<path d="M 224 190 C 227 194 229 196 229 196 C 251 195 262 194 262 194 C 265 180 267 173 267 173 L 227 186 C 225 189 224 190 224 190 Z" fill="#0f1822" id="id-female-12_slit_jumpsuit-61">
</path >
<path d="M 399 192 C 422 195 434 196 434 196 L 436 190 C 435 188 434 188 434 188 L 393 180 C 397 188 399 192 399 192 Z" fill="#0f1822" id="id-female-12_slit_jumpsuit-62">
</path >
<path d="M 392 180 C 419 185 432 188 432 188 C 436 180 438 176 438 176 C 424 173 417 171 417 171 C 425 137 430 121 430 121 C 395 91 378 76 378 76 C 375 39 374 20 374 20 C 370 21 368 21 368 21 C 371 60 373 79 373 79 L 378 81 C 409 108 425 122 425 122 C 417 154 413 170 413 170 L 396 167 C 394 175 392 180 392 180 Z" fill="#314d75" id="id-female-12_slit_jumpsuit-63">
</path >
<path d="M 228 192 C 255 185 269 181 269 181 C 269 171 268 166 268 166 C 258 169 253 170 253 170 C 246 133 242 114 242 114 C 275 92 291 81 291 81 L 300 21 L 293 20 C 288 58 286 77 286 77 C 253 100 237 111 237 111 C 245 151 249 171 249 171 L 224 176 C 227 186 228 192 228 192 Z" fill="#314d75" id="id-female-12_slit_jumpsuit-64">
</path >
<path d="M 338 169 C 334 169 332 169 332 169 C 331 154 330 147 330 147 C 333 151 334 153 334 153 L 339 146 C 338 161 338 169 338 169 Z" fill="#000102" id="id-female-12_slit_jumpsuit-65">
</path >
<path d="M 334 149 C 328 140 325 136 325 136 C 327 131 328 128 328 128 C 338 128 343 128 343 128 L 345 135 C 338 144 334 149 334 149 Z" fill="#000102" id="id-female-12_slit_jumpsuit-66">
</path >
<path d="M 335 71 C 337 82 338 87 338 87 C 355 97 364 103 365 104 L 365 104 C 365 104 365 104 365 104 C 365 113 364 117 364 117 L 355 118 C 350 125 348 129 346 130 L 346 130 C 346 131 346 131 346 131 L 346 131 C 346 131 346 131 346 131 C 345 129 344 127 344 127 L 344 127 L 344 127 C 333 127 327 126 327 126 L 327 126 L 327 126 C 324 130 323 132 323 132 C 318 123 315 119 315 119 C 309 118 306 118 306 118 C 304 108 303 103 303 103 C 323 93 332 87 332 87 C 334 76 335 71 335 71 Z M 335 111 L 335 111 C 335 111 332 114 328 119 L 328 119 L 328 119 C 328 119 329 120 332 123 C 332 123 333 122 334 119 L 334 119 L 334 119 C 335 119 336 121 338 123 L 338 123 L 338 122 C 338 122 339 121 342 118 L 342 118 L 335 111 L 335 111 Z M 314 104 C 317 110 319 112 319 112 C 327 109 331 107 331 106 L 331 106 L 331 106 L 314 104 Z M 355 104 L 339 107 C 339 107 342 108 349 112 C 349 112 351 109 355 104 L 355 104 Z" fill="url(#id-female-12_slit_jumpsuit-12)" id="id-female-12_slit_jumpsuit-23">
</path >
<path d="M 398 170 C 396 176 395 179 395 179 C 419 184 431 186 431 186 L 433 178 C 410 173 398 170 398 170 Z" fill="#fff200" id="id-female-12_slit_jumpsuit-68">
</path >
<path d="M 229 179 C 230 185 230 189 230 189 C 254 183 266 180 266 180 L 265 172 C 241 177 229 179 229 179 Z" fill="#fff200" id="id-female-12_slit_jumpsuit-69">
</path >
<path d="M 343 88 C 352 93 356 95 356 95 C 361 90 363 87 363 87 C 362 77 362 73 362 73 L 357 82 C 348 86 343 88 343 88 Z" fill="#223c5c" id="id-female-12_slit_jumpsuit-70">
</path >
<path d="M 313 95 C 321 90 326 88 326 88 C 316 85 312 83 312 83 C 309 76 308 72 308 72 L 305 87 C 311 92 313 95 313 95 Z" fill="#223c5c" id="id-female-12_slit_jumpsuit-71">
</path >
<path d="M 334 69 C 331 62 329 58 329 58 C 331 55 332 53 332 53 C 332 35 332 26 332 26 C 334 26 335 26 335 26 C 335 45 335 54 335 54 L 339 63 C 336 67 334 69 334 69 Z" fill="#223c5c" id="id-female-12_slit_jumpsuit-72">
</path >
<path d="M 479 116 C 467 112 461 110 461 110 C 473 92 478 84 478 84 L 500 91 C 486 107 479 116 479 116 Z" fill="#314c75" id="id-female-12_slit_jumpsuit-73">
</path >
<path d="M 469 168 C 477 160 481 156 481 156 C 483 170 484 178 484 178 C 481 209 479 225 479 225 C 498 185 508 165 508 165 C 511 180 512 188 512 188 C 499 236 492 260 492 260 C 512 247 522 240 522 240 C 509 356 503 414 503 414 C 516 454 522 474 522 474 C 506 494 498 503 498 503 C 532 533 550 548 550 548 C 555 557 558 562 558 562 L 505 563 L 495 540 C 496 522 493 505 477 491 C 481 444 478 396 469 323 C 477 309 487 292 491 273 C 487 260 483 246 474 222 C 470 186 469 168 469 168 Z" fill="#11b818" id="id-female-12_slit_jumpsuit-74">
</path >
<path d="M 479 236 C 491 208 496 194 496 194 C 497 209 498 216 498 216 L 488 262 C 482 244 479 236 479 236 Z" fill="#008a00" id="id-female-12_slit_jumpsuit-75">
</path >
<path d="M 490 369 L 483 350 L 508 165 L 523 121 L 531 142 L 522 240 C 512 261 502 304 490 369 Z" fill="#5de522" id="id-female-12_slit_jumpsuit-76">
</path >
<path d="M 496 474 C 492 490 490 498 490 498 L 549 550 C 555 558 558 563 558 563 C 528 555 513 551 513 551 C 539 608 552 637 552 637 C 551 655 551 664 551 664 C 564 691 570 704 570 704 C 595 695 607 690 607 690 C 597 641 593 592 576 544 C 581 515 584 500 584 500 C 561 491 550 486 550 486 L 564 457 C 543 429 533 414 533 414 C 536 374 545 335 532 290 L 521 264 L 521 245 C 509 358 503 414 503 414 C 516 455 523 475 523 475 L 515 483 C 502 477 496 474 496 474 Z" fill="#67eb25" id="id-female-12_slit_jumpsuit-77">
</path >
<path d="M 554 541 L 507 503 L 517 485 C 539 486 550 486 550 486 C 567 493 575 496 575 496 L 582 504 L 554 541 Z" fill="#a0fb24" id="id-female-12_slit_jumpsuit-78">
</path >
<path d="M 616 686 C 586 694 570 698 570 698 C 569 762 568 794 568 794 L 636 815 C 632 760 612 727 620 707 C 618 693 616 686 616 686 Z" fill="#ff48b3" id="id-female-12_slit_jumpsuit-79">
</path >
<path d="M 607 689 C 583 695 570 698 570 698 C 581 723 586 736 586 736 L 587 799 C 619 810 636 815 636 815 L 635 798 C 633 788 628 770 618 744 L 607 689 Z" fill="#ff82ca" id="id-female-12_slit_jumpsuit-80">
</path >
<path d="M 615 682 C 603 685 597 687 597 687 C 589 655 585 639 585 639 L 603 634 C 611 666 615 682 615 682 Z" fill="#314c75" id="id-female-12_slit_jumpsuit-81">
</path >
<path d="M 105 385 C 121 383 130 381 130 381 C 133 358 135 347 135 347 L 110 341 C 106 370 105 385 105 385 Z" fill="#314c75" id="id-female-12_slit_jumpsuit-82">
</path >
<path d="M 384 17 C 383 7 382 2 382 2 C 399 5 407 8 406 11 C 392 15 384 17 384 17 Z" fill="#006300" id="id-female-12_slit_jumpsuit-83">
</path >
<path d="M 286 19 L 288 0 C 265 8 263 11 263 13 C 278 17 286 19 286 19 Z" fill="#006300" id="id-female-12_slit_jumpsuit-84">
</path >
<path d="M 376 249 C 431 243 459 239 459 239 C 447 228 397 218 370 217 C 374 235 376 246 376 249 Z" fill="#445e84" id="id-female-12_slit_jumpsuit-85">
</path >
<path d="M 476 288 C 470 266 464 244 472 240 C 480 245 481 260 476 288 Z" fill="#415b80" id="id-female-12_slit_jumpsuit-86">
</path >
<path d="M 280 250 C 235 255 211 257 206 258 C 198 258 198 253 198 253 C 207 238 250 213 289 208 C 285 224 282 238 280 250 Z" fill="#264366" id="id-female-12_slit_jumpsuit-87">
</path >
</g >
<defs >
<linearGradient x1="50%" y1="0%" x2="50%" y2="69%" id="id-female-24_face_boning-0">
<stop stop-color="#eadaf6" offset="0%">
</stop >
<stop stop-color="#979ee0" offset="100%">
</stop >
</linearGradient >
<linearGradient x1="50%" y1="0%" x2="50%" y2="69%" id="id-female-24_face_boning-0">
<stop stop-color="#eadaf6" offset="0%">
</stop >
<stop stop-color="#979ee0" offset="100%">
</stop >
</linearGradient >
<filter width="102%" height="105%" x="-1%" y="-1%" id="id-female-24_face_boning-2" filterUnits="objectBoundingBox">
<feOffset result="id-female-24_face_boning-3" in="SourceAlpha" dx="0" dy="3">
</feOffset >
<feColorMatrix in="id-female-24_face_boning-3" type="matrix" values="0 0 0 0 0 0 0 0 0 0 0 0 0 0 0 0 0 0 0.4 0">
</feColorMatrix >
</filter >
<path d="M 94 1 C 104 13 106 24 99 34 C 100 38 104 44 111 52 C 111 52 111 52 111 52 L 111 52 C 112 52 112 52 112 52 C 114 53 115 54 115 54 C 114 54 114 55 114 55 C 127 68 138 72 147 69 C 148 63 151 63 153 66 C 154 66 154 65 154 65 C 154 61 157 56 160 61 C 166 55 170 47 173 36 C 175 34 176 33 177 33 L 177 33 C 178 33 178 33 178 33 L 176 30 C 178 27 179 22 180 18 L 180 17 C 180 16 180 15 181 14 L 183 14 C 182 20 181 26 186 29 L 182 45 L 175 50 L 173 45 C 171 55 166 62 160 67 L 160 71 C 168 83 167 91 165 99 L 165 100 C 165 100 165 100 165 100 L 165 101 C 165 101 165 101 165 101 C 165 92 162 83 154 71 L 153 71 L 152 77 C 156 87 158 98 151 117 C 155 102 152 89 146 77 L 146 74 C 134 76 122 71 110 59 C 109 58 107 56 106 55 L 105 53 L 105 53 L 104 52 C 100 49 97 45 94 43 C 90 44 85 49 81 54 L 80 55 C 79 56 77 58 76 59 L 75 59 C 67 67 58 74 40 74 L 41 78 C 33 89 33 103 35 117 C 30 97 30 84 35 77 L 33 71 L 32 71 C 26 79 22 89 22 102 C 18 90 21 79 27 68 C 21 63 17 56 13 46 C 12 49 11 50 11 50 C 7 46 5 45 5 45 C 2 34 0 28 0 28 C 4 28 5 26 6 23 C 6 20 6 17 4 15 L 8 11 L 11 31 L 9 33 L 13 36 C 17 46 17 51 26 61 C 28 57 32 57 32 66 L 34 67 C 35 65 39 62 39 69 C 51 72 62 66 72 55 L 72 53 L 76 52 C 82 45 86 40 87 35 C 80 25 80 14 94 1 Z M 93 8 C 87 16 86 24 91 32 L 96 32 C 101 23 99 15 93 8 Z" id="id-female-24_face_boning-5">
</path >
<path d="M 94 1 C 104 13 106 24 99 34 C 100 38 104 44 111 52 C 111 52 111 52 111 52 L 111 52 C 112 52 112 52 112 52 C 114 53 115 54 115 54 C 114 54 114 55 114 55 C 127 68 138 72 147 69 C 148 63 151 63 153 66 C 154 66 154 65 154 65 C 154 61 157 56 160 61 C 166 55 170 47 173 36 C 175 34 176 33 177 33 L 177 33 C 178 33 178 33 178 33 L 176 30 C 178 27 179 22 180 18 L 180 17 C 180 16 180 15 181 14 L 183 14 C 182 20 181 26 186 29 L 182 45 L 175 50 L 173 45 C 171 55 166 62 160 67 L 160 71 C 168 83 167 91 165 99 L 165 100 C 165 100 165 100 165 100 L 165 101 C 165 101 165 101 165 101 C 165 92 162 83 154 71 L 153 71 L 152 77 C 156 87 158 98 151 117 C 155 102 152 89 146 77 L 146 74 C 134 76 122 71 110 59 C 109 58 107 56 106 55 L 105 53 L 105 53 L 104 52 C 100 49 97 45 94 43 C 90 44 85 49 81 54 L 80 55 C 79 56 77 58 76 59 L 75 59 C 67 67 58 74 40 74 L 41 78 C 33 89 33 103 35 117 C 30 97 30 84 35 77 L 33 71 L 32 71 C 26 79 22 89 22 102 C 18 90 21 79 27 68 C 21 63 17 56 13 46 C 12 49 11 50 11 50 C 7 46 5 45 5 45 C 2 34 0 28 0 28 C 4 28 5 26 6 23 C 6 20 6 17 4 15 L 8 11 L 11 31 L 9 33 L 13 36 C 17 46 17 51 26 61 C 28 57 32 57 32 66 L 34 67 C 35 65 39 62 39 69 C 51 72 62 66 72 55 L 72 53 L 76 52 C 82 45 86 40 87 35 C 80 25 80 14 94 1 Z M 93 8 C 87 16 86 24 91 32 L 96 32 C 101 23 99 15 93 8 Z" id="id-female-24_face_boning-5">
</path >
<linearGradient x1="91%" y1="59%" x2="4%" y2="42%" id="id-female-24_face_boning-7">
<stop stop-color="#9fa2e1" offset="0%">
</stop >
<stop stop-color="#e3d5f4" offset="100%">
</stop >
</linearGradient >
</defs >
<g transform="translate(567,430)" id="id-female-24_face_boning-8">
<g transform="translate(2,71)" id="id-female-24_face_boning-9">
<path d="M 8 78 C 12 42 13 24 13 24 C 9 15 7 10 7 10 C 8 4 8 0 8 0 C 6 0 5 0 5 0 C 5 7 5 10 5 10 L 0 15 L 8 78 Z" fill="url(#id-female-24_face_boning-0)" id="id-female-24_face_boning-10">
</path >
<polygon points="6 29 10 24 6 11 0 17" fill="#272648" id="id-female-24_face_boning-11">
</polygon >
<path d="M 4 26 C 7 24 8 22 8 22 C 6 18 5 16 5 16 L 1 20 C 3 24 4 26 4 26 Z" fill="#00d170" id="id-female-24_face_boning-12">
</path >
<path d="M 11 25 L 11 50 L 13 24 L 7 10 L 5 10 L 6 11 C 9 21 11 25 11 25 Z" fill="#979ee0" id="id-female-24_face_boning-13">
</path >
<path d="M 8 1 C 10 3 10 5 10 5 L 8 7 L 8 1 Z" fill="#48487a" id="id-female-24_face_boning-14">
</path >
</g >
<g transform="translate(178,111) scale(-1,1) translate(-178,-111) translate(171,72)" id="id-female-24_face_boning-15">
<path d="M 8 78 C 12 42 13 24 13 24 C 9 15 7 10 7 10 C 8 4 8 0 8 0 C 6 0 5 0 5 0 C 5 7 5 10 5 10 L 0 15 L 8 78 Z" fill="url(#id-female-24_face_boning-0)" id="id-female-24_face_boning-10">
</path >
<polygon points="6 29 10 24 6 11 0 17" fill="#272648" id="id-female-24_face_boning-11">
</polygon >
<path d="M 4 26 C 7 24 8 22 8 22 C 6 18 5 16 5 16 L 1 20 C 3 24 4 26 4 26 Z" fill="#00d170" id="id-female-24_face_boning-12">
</path >
<path d="M 11 25 L 11 50 L 13 24 L 7 10 L 5 10 L 6 11 C 9 21 11 25 11 25 Z" fill="#979ee0" id="id-female-24_face_boning-13">
</path >
<path d="M 8 1 C 10 3 10 5 10 5 L 8 7 L 8 1 Z" fill="#48487a" id="id-female-24_face_boning-14">
</path >
</g >
<g id="id-female-24_face_boning-21">
<use fill="#000000" fill-opacity="1" xlink:href="#id-female-24_face_boning-5" filter="url(#id-female-24_face_boning-2)">
</use >
<use fill="#474878" xlink:href="#id-female-24_face_boning-5" fill-rule="evenodd">
</use >
</g >
<polygon points="72 53 77 59 93 55 109 60 115 54 112 52 107 56 94 51 81 55 75 50" fill="#5c64a8" id="id-female-24_face_boning-25">
</polygon >
<path d="M 39 69 L 40 74 L 41 78 L 35 68 L 35 65 C 36 64 39 62 39 69 Z" fill="#979de0" id="id-female-24_face_boning-26">
</path >
<path d="M 31 71 L 33 68 L 33 66 C 33 66 32 66 32 66 L 32 62 C 31 58 29 57 27 60 L 31 71 Z" fill="#aface4" id="id-female-24_face_boning-27">
</path >
<path d="M 13 36 L 12 35 L 8 41 C 9 39 9 37 9 37 C 8 34 8 33 8 33 C 8 31 9 30 11 30 L 8 11 L 5 14 C 6 15 8 15 6 20 C 6 25 5 28 0 28 C 4 38 6 43 6 43 L 11 47 C 13 45 13 41 13 36 Z" fill="#8d95df" id="id-female-24_face_boning-28">
</path >
<path d="M 13 36 L 13 43 C 16 53 21 59 25 64 L 25 60 C 19 53 16 44 13 36 Z" fill="#beb6e0" id="id-female-24_face_boning-29">
</path >
<path d="M 26 61 C 29 62 31 62 31 62 C 31 68 31 71 31 71 L 26 70 C 27 69 27 68 27 68 L 26 67 C 26 63 26 61 26 61 Z" fill="#220d07" id="id-female-24_face_boning-30">
</path >
<polygon points="33 68 38 68 40 77 35 77" fill="#220d07" id="id-female-24_face_boning-31">
</polygon >
<path d="M 29 70 C 28 68 27 67 27 66 C 27 66 27 65 28 62 L 31 64 L 29 70 Z" fill="#00d170" id="id-female-24_face_boning-32">
</path >
<polygon points="34 73 37 77 39 73 38 70 37 68" fill="#00d170" id="id-female-24_face_boning-33">
</polygon >
<path d="M 40 77 L 35 77 C 29 88 31 102 35 117 C 33 101 33 86 40 77 Z" fill="#9b9de2" id="id-female-24_face_boning-34">
</path >
<path d="M 27 70 L 31 71 C 25 79 22 90 21 101 C 19 91 20 80 27 70 Z" fill="#bfb7e4" id="id-female-24_face_boning-35">
</path >
<path d="M 40 72 C 52 74 64 68 76 57 L 75 57 C 70 60 66 64 61 65 C 54 69 47 71 39 69 L 40 72 Z" fill="#8c94dc" id="id-female-24_face_boning-36">
</path >
<polyline points="81 55 80 58 72 53 75 50 81 55" fill="#eadaf6" id="id-female-24_face_boning-37">
</polyline >
<polygon points="80 57 93 54 110 59 107 56 94 51 81 55" fill="#9198dd" id="id-female-24_face_boning-38">
</polygon >
<polygon points="94 51 93 54 104 57 103 55" fill="#eadaf6" id="id-female-24_face_boning-39">
</polygon >
<path d="M 79 53 L 79 54 C 84 48 88 43 92 42 L 89 40 L 84 42 C 83 45 81 48 79 53 Z" fill="#8e96df" id="id-female-24_face_boning-40">
</path >
<path d="M 90 39 L 84 42 L 82 38 C 85 36 86 35 86 35 C 85 34 85 33 85 33 C 87 30 88 28 88 28 L 91 32 L 89 37 L 90 39 Z" fill="#220d07" id="id-female-24_face_boning-41">
</path >
<path d="M 86 32 C 87 31 88 30 88 30 C 89 31 89 32 89 32 L 88 34 C 87 33 86 32 86 32 Z" fill="#00d170" id="id-female-24_face_boning-42">
</path >
<path d="M 83 38 L 86 36 C 87 38 88 39 88 39 L 85 41 C 84 39 83 38 83 38 Z" fill="#00d170" id="id-female-24_face_boning-43">
</path >
<path d="M 94 41 L 99 34 C 108 19 101 10 94 1 L 94 7 C 100 11 102 26 96 32 L 91 32 L 89 36 L 94 41 Z" fill="#e4d6f4" id="id-female-24_face_boning-44">
</path >
<polygon points="93 29 89 34 94 40 98 33" fill="#220d07" id="id-female-24_face_boning-45">
</polygon >
<polygon points="94 37 91 34 93 31 96 34" fill="#00d170" id="id-female-24_face_boning-46">
</polygon >
<polygon points="96 40 102 44 105 39 99 35" fill="#220d07" id="id-female-24_face_boning-47">
</polygon >
<polygon points="101 42 98 40 99 36 103 38" fill="#00d170" id="id-female-24_face_boning-48">
</polygon >
<polygon points="98 28 101 31 99 35 96 31" fill="#220d07" id="id-female-24_face_boning-49">
</polygon >
<polygon points="99 30 97 32 99 34 101 31" fill="#00d170" id="id-female-24_face_boning-50">
</polygon >
<polygon points="93 11 88 20 93 29 98 22" fill="#272748" id="id-female-24_face_boning-51">
</polygon >
<polygon points="89 21 93 27 96 22 93 15" fill="#00d070" id="id-female-24_face_boning-52">
</polygon >
<polygon points="93 15 93 23 96 21" fill="#eadaf6" id="id-female-24_face_boning-53">
</polygon >
<path d="M 92 3 L 92 7 C 88 11 86 17 88 28 L 87 28 C 85 23 85 17 86 10 C 88 7 90 5 92 3 Z" fill="#8d96e0" id="id-female-24_face_boning-54">
</path >
<path d="M 92 0 C 94 0 95 0 95 0 C 95 5 95 7 95 7 L 93 8 C 92 3 92 0 92 0 Z" fill="#272648" id="id-female-24_face_boning-55">
</path >
<path d="M 96 42 C 98 44 100 45 100 45 L 108 55 C 110 53 111 52 111 52 C 105 46 103 42 103 42 L 97 40 C 96 41 96 42 96 42 Z" fill="#e9d8f4" id="id-female-24_face_boning-56">
</path >
<path d="M 114 55 C 113 56 112 56 112 56 C 112 58 112 59 112 59 C 123 69 134 74 147 72 L 147 69 C 137 72 126 67 114 55 Z" fill="url(#id-female-24_face_boning-7)" id="id-female-24_face_boning-57">
</path >
<path d="M 147 78 L 149 65 C 151 64 152 65 153 66 L 154 65 L 152 78 C 157 89 157 103 151 117 C 155 98 152 86 147 78 Z" fill="#aeade8" id="id-female-24_face_boning-58">
</path >
<path d="M 155 71 L 156 60 C 157 59 158 58 160 61 C 167 54 171 45 173 36 C 173 48 168 58 160 65 L 160 71 C 167 80 167 90 165 101 C 165 87 162 78 155 71 Z" fill="#bfb9eb" id="id-female-24_face_boning-59">
</path >
<path d="M 146 77 C 149 78 150 79 150 79 C 151 72 152 69 152 69 L 147 68 L 146 77 Z" fill="#220d07" id="id-female-24_face_boning-60">
</path >
<path d="M 150 70 C 148 72 147 72 147 72 C 148 76 148 77 148 77 L 151 73 L 150 70 Z" fill="#00d170" id="id-female-24_face_boning-61">
</path >
<path d="M 155 70 C 157 71 158 72 158 72 C 160 66 161 63 161 63 L 156 62 L 155 70 Z" fill="#220d07" id="id-female-24_face_boning-62">
</path >
<path d="M 158 64 C 156 65 155 66 155 66 C 156 69 157 70 157 70 L 160 66 C 159 65 158 64 158 64 Z" fill="#00d170" id="id-female-24_face_boning-63">
</path >
<path d="M 173 43 C 174 46 175 48 175 48 C 179 45 181 43 181 43 C 184 34 186 29 186 29 C 184 27 183 26 182 23 C 180 24 179 24 179 24 C 177 27 177 29 177 29 C 178 32 179 33 179 33 C 178 36 177 38 177 38 L 178 41 L 174 36 C 174 39 173 41 173 43 Z" fill="#8d95db" id="id-female-24_face_boning-64">
</path >
<path d="M 182 32 C 183 33 183 33 183 33 C 182 37 181 39 181 39 L 179 39 C 181 35 182 32 182 32 Z" fill="#00b900" id="id-female-24_face_boning-65">
</path >
<path d="M 177 29 C 178 27 178 26 178 26 C 183 27 185 28 185 28 L 184 31 C 179 31 176 30 177 29 Z" fill="#e6d6f5" id="id-female-24_face_boning-66">
</path >
<path d="M 2 30 C 2 31 3 32 3 32 C 7 30 9 29 9 29 L 9 26 C 4 28 2 30 2 30 Z" fill="#e6d6f5" id="id-female-24_face_boning-67">
</path >
</g >
<defs >
<linearGradient x1="50%" y1="0%" x2="46%" y2="53%" id="id-female-25_9_shaggy_bob-0">
<stop stop-color="#004788" offset="0%">
</stop >
<stop stop-color="#008252" offset="100%">
</stop >
</linearGradient >
<linearGradient x1="50%" y1="0%" x2="50%" y2="64%" id="id-female-25_9_shaggy_bob-1">
<stop stop-color="#00709d" offset="0%">
</stop >
<stop stop-color="#02b875" offset="100%">
</stop >
</linearGradient >
</defs >
<g transform="translate(509,309)" id="id-female-25_9_shaggy_bob-2">
<g transform="translate(31,1)" fill="url(#id-female-25_9_shaggy_bob-0)" id="id-female-25_9_shaggy_bob-3">
<path d="M 243 224 L 225 211 C 221 224 241 241 238 277 C 238 277 233 256 221 244 C 221 244 228 275 213 301 C 213 301 215 285 213 278 L 209 288 C 209 288 213 246 191 223 C 191 223 196 193 200 188 C 200 188 184 174 175 148 C 161 143 135 136 117 108 C 117 108 119 129 130 146 C 125 146 103 110 105 89 C 99 108 103 128 114 144 C 108 142 90 122 91 109 C 89 107 93 134 103 143 C 91 137 76 110 75 88 C 73 92 70 95 68 99 C 68 99 63 134 53 149 C 58 199 24 224 39 289 C 24 279 20 264 20 245 C 19 246 12 262 13 268 C -8 231 11 237 13 197 C 13 197 5 209 5 216 C 0 208 -1 187 5 181 C 6 180 -1 172 2 169 C 17 145 64 -9 109 4 L 107 8 C 112 5 120 0 126 0 C 131 1 145 -1 149 5 C 149 5 155 3 158 5 C 164 11 225 103 233 117 C 228 143 264 180 243 224 Z" id="id-female-25_9_shaggy_bob-4">
</path >
</g >
<g transform="translate(0,1)" id="id-female-25_9_shaggy_bob-5">
<path d="M 271 157 C 289 188 275 225 275 225 C 282 241 277 260 277 260" id="id-female-25_9_shaggy_bob-4">
</path >
<path d="M 60 280 C 63 284 66 287 70 290 C 67 275 66 260 67 245 C 61 257 60 272 60 280 Z" fill="#20915f" id="id-female-25_9_shaggy_bob-4">
</path >
<path d="M 264 139 C 236 123 229 86 229 86 C 245 107 270 125 303 140 C 275 127 252 97 234 49 C 229 34 190 6 189 6 C 189 6 159 12 159 12 L 176 2 C 170 0 162 0 155 0 L 146 16 C 160 14 186 15 186 15 C 184 19 162 17 159 18 C 165 18 177 27 179 28 C 170 22 151 22 151 22 C 155 23 158 32 158 32 C 138 15 115 25 115 25 C 123 18 145 18 145 18 C 143 10 141 6 141 6 C 139 8 138 8 138 8 L 140 5 C 132 2 125 5 119 9 L 126 18 C 104 8 91 23 79 42 C 67 65 45 103 40 116 C 16 135 8 165 8 165 C -4 182 3 187 3 187 C 4 174 24 157 28 153 C 16 163 -10 220 20 221 C 4 197 47 153 47 153 L 56 146 C 31 179 33 209 34 212 C 37 192 48 182 60 173 L 44 198 C 43 220 31 235 34 244 L 49 217 C 44 240 40 254 39 259 C 41 264 42 267 44 270 C 43 254 61 221 70 205 C 58 231 51 258 57 275 C 57 251 84 195 84 163 C 73 171 73 181 73 191 L 67 181 C 63 183 50 204 50 206 C 55 192 62 179 71 168 C 85 147 97 108 97 106 C 97 105 91 106 91 106 C 96 102 100 96 103 91 C 104 71 109 52 118 41 C 101 73 114 130 130 141 C 123 128 121 110 123 88 C 124 115 129 138 145 144 C 121 108 138 76 147 46 C 138 87 133 125 161 146 C 143 118 146 76 145 71 C 146 119 169 139 203 147 C 169 112 164 89 164 89 C 178 110 219 156 222 159 L 206 146 C 227 202 257 186 244 239 C 254 234 251 206 251 206 C 271 220 280 260 277 260 C 286 238 260 190 252 183 C 257 185 266 193 280 206 C 276 184 255 153 255 153 C 261 156 274 180 280 192 C 283 181 264 153 263 152 C 266 153 303 163 304 198 C 314 170 292 156 264 139 Z M 36 133 C 34 134 20 148 20 148 C 24 142 36 128 37 127 C 36 129 36 131 36 133 Z M 44 124 C 47 119 47 116 55 112 L 44 124 Z M 54 106 L 60 95 L 57 104 L 54 106 Z M 64 153 L 50 178 C 51 176 65 141 68 137 L 64 153 Z M 91 56 C 80 79 72 113 72 113 C 75 78 83 57 103 39 C 98 44 94 50 91 56 L 91 56 Z M 186 56 C 194 71 204 96 215 102 C 212 103 208 101 206 99 C 206 99 209 120 222 142 C 222 142 196 111 186 56 Z M 261 179 C 261 179 240 168 230 150 C 230 150 253 163 261 179 L 261 179 Z" fill="url(#id-female-25_9_shaggy_bob-1)" id="id-female-25_9_shaggy_bob-8" fill-rule="nonzero">
</path >
</g >
<g transform="translate(77,34)" fill="#ffffff" opacity="0.404" id="id-female-25_9_shaggy_bob-9">
<path d="M 119 43 C 111 29 72 27 64 32 C 72 4 32 34 29 35 C 17 27 6 27 0 35 C 3 24 18 9 18 9 C 25 21 62 13 66 9 C 93 21 135 11 147 0 C 149 3 152 6 154 9 C 120 26 117 40 119 43 Z" id="id-female-25_9_shaggy_bob-4">
</path >
<path d="M 13 7 L 4 19 C 4 15 3 12 2 8 C 4 6 5 4 7 2 C 9 4 11 6 13 7 Z" id="id-female-25_9_shaggy_bob-4">
</path >
</g >
</g >
<defs >
</defs >
<path d="M 1202 1685 C 1201 1683 1198 1681 1197 1679 C 1196 1678 1196 1676 1196 1675 C 1196 1674 1194 1672 1193 1671 C 1193 1670 1192 1669 1192 1668 C 1192 1667 1195 1666 1196 1665 C 1198 1663 1200 1661 1202 1658 C 1207 1649 1216 1643 1226 1641 C 1240 1638 1254 1644 1263 1655 C 1264 1657 1266 1660 1265 1663 C 1265 1664 1263 1665 1263 1666 C 1263 1667 1265 1669 1266 1670 C 1271 1673 1269 1673 1270 1678 C 1270 1682 1274 1681 1274 1685 L 1274 1685 L 1274 1686 C 1274 1686 1274 1686 1274 1686 C 1273 1688 1271 1688 1270 1689 C 1268 1691 1267 1692 1266 1694 C 1263 1698 1261 1700 1258 1704 C 1242 1719 1214 1716 1202 1696 C 1201 1695 1199 1691 1200 1689 C 1201 1688 1202 1688 1202 1685 L 1202 1685 Z M 1268 1685 C 1267 1682 1265 1682 1264 1679 C 1264 1678 1264 1677 1264 1676 C 1264 1675 1264 1674 1264 1674 C 1264 1673 1263 1672 1262 1672 C 1260 1670 1256 1669 1258 1665 C 1259 1662 1261 1662 1258 1658 C 1246 1643 1223 1641 1210 1656 C 1209 1658 1208 1659 1207 1661 C 1205 1663 1202 1665 1200 1667 C 1197 1669 1197 1669 1200 1671 C 1203 1675 1201 1676 1203 1679 C 1204 1681 1207 1682 1208 1685 L 1208 1685 L 1208 1685 C 1207 1690 1203 1688 1207 1694 C 1216 1706 1232 1711 1246 1705 C 1249 1704 1252 1702 1255 1699 C 1257 1697 1259 1694 1261 1691 C 1263 1689 1267 1687 1268 1685 L 1268 1685 Z M 1254 1685 C 1254 1682 1252 1682 1252 1680 C 1251 1677 1251 1673 1255 1674 C 1258 1675 1256 1678 1258 1680 C 1259 1682 1260 1682 1260 1685 L 1261 1686 L 1260 1686 C 1259 1688 1257 1689 1255 1690 C 1248 1694 1246 1699 1237 1700 C 1231 1701 1225 1700 1221 1697 C 1219 1696 1216 1694 1215 1692 C 1213 1689 1216 1688 1216 1685 C 1215 1683 1212 1682 1211 1680 C 1208 1677 1210 1673 1214 1674 L 1214 1674 L 1215 1675 C 1216 1678 1215 1679 1217 1681 C 1219 1682 1222 1683 1222 1686 C 1222 1689 1220 1690 1224 1692 C 1230 1696 1238 1695 1244 1691 C 1246 1690 1253 1687 1254 1685 L 1254 1685 Z M 1244 1674 C 1242 1675 1239 1674 1237 1673 C 1236 1672 1233 1670 1232 1669 C 1231 1669 1231 1668 1231 1667 C 1231 1666 1233 1665 1234 1664 C 1235 1662 1237 1661 1238 1659 C 1242 1652 1249 1658 1247 1663 C 1246 1665 1243 1666 1243 1668 C 1243 1670 1246 1671 1244 1674 L 1244 1674 L 1244 1674 L 1244 1674 Z M 1222 1656 C 1224 1655 1227 1656 1228 1659 C 1229 1660 1229 1661 1229 1663 C 1228 1665 1223 1666 1225 1669 C 1225 1670 1226 1670 1226 1671 C 1227 1674 1226 1675 1223 1675 C 1222 1675 1219 1673 1218 1672 C 1216 1671 1212 1669 1214 1666 C 1215 1664 1217 1664 1218 1662 C 1219 1660 1220 1658 1222 1656 L 1222 1656 Z" fill="white" opacity="1" id="id-icons-Leftover-0">
</path >
  <defs>
      <linearGradient id="Gradient1">
        <stop class="stop1" offset="0%"/>
        <stop class="stop2" offset="100%"/>
      </linearGradient>
      <style type="text/css"><![CDATA[
        #tbar { fill: url(#Gradient1); }
        .stop1 { stop-color: red; }
        .stop2 { stop-color: blue; }
      ]]></style>
  </defs>
<text x="50" y="115" font-family="Trebuchet MS" font-weight="500" font-size="5.5em" letter-spacing="-3.0" text-transform="uppercase" fill="white">FUZZY FOSTER</text>
<text x="50" y="180" font-family="Trebuchet MS" font-size="3.5em" font-weight="500" letter-spacing="-2" text-transform="uppercase" fill="white">LEFTOVER</text>
<g transform="translate(55,195)">
  <rect id="tbar" y="0" width="185" height="13" fill="url(#Gradient1)"></rect>
  <rect x="185" y="1" width="-1" height="11" fill="#E3E3E3"></rect>
</g>
<text x="50" y="270" font-family="Trebuchet MS" font-size="3.5em" font-weight="500" letter-spacing="-2" text-transform="uppercase" fill="white">CB-03343</text>

<g transform="translate(50,1430)">
  <text x="0" y="-5" font-family="Helvetica" font-size="2.5em" font-weight="500" letter-spacing="-2" text-transform="uppercase" fill="white">BODY</text>
  <rect width="89" height="30" fill="white"></rect>
  <rect width="190" height="30" fill="none" stroke="white"></rect>
  <text x="196" y="27" font-family="Helvetica" font-size="2.2em" font-weight="500" letter-spacing="0" text-transform="uppercase" fill="white">14</text>
</g>
<g transform="translate(50,1505)">
  <text x="0" y="-5" font-family="Helvetica" font-size="2.5em" font-weight="500" letter-spacing="-2" text-transform="uppercase" fill="white">MIND</text>
  <rect width="120" height="30" fill="white"></rect>
  <rect width="190" height="30" fill="none" stroke="white"></rect>
  <text x="196" y="27" font-family="Helvetica" font-size="2.3em" font-weight="500" letter-spacing="0" text-transform="uppercase" fill="white">19</text>
</g>
<g transform="translate(50,1580)">
  <text x="0" y="-5" font-family="Helvetica" font-size="2.5em" font-weight="500" letter-spacing="-2" text-transform="uppercase" fill="white">SOUL</text>
  <rect width="101" height="30" fill="white"></rect>
  <rect width="190" height="30" fill="none" stroke="white"></rect>
  <text x="196" y="27" font-family="Helvetica" font-size="2.2em" font-weight="500" letter-spacing="0" text-transform="uppercase" fill="white">16</text>
</g>
<g transform="translate(50,1675)">
  <text x="0" y="-5" font-family="Helvetica" font-size="2.5em" font-weight="500" letter-spacing="-2" text-transform="uppercase" fill="white">TRAITS</text>
  <rect width="63" height="30" fill="white"></rect>
  <rect width="190" height="30" fill="none" stroke="white"></rect>
  <text x="196" y="27" font-family="Helvetica" font-size="2.2em" font-weight="500" letter-spacing="0" text-transform="uppercase" fill="white">4</text>
</g>
</svg>