<?xml version="1.0" encoding="UTF-8" standalone="no"?>
<svg
   width="323.34521"
   height="249"
   viewBox="0 0 323.34521 249"
   version="1.1"
   id="svg124"
   sodipodi:docname="cb-layer-0191.svg"
   xmlns:inkscape="http://www.inkscape.org/namespaces/inkscape"
   xmlns:sodipodi="http://sodipodi.sourceforge.net/DTD/sodipodi-0.dtd"
   xmlns="http://www.w3.org/2000/svg"
   xmlns:svg="http://www.w3.org/2000/svg">
  <sodipodi:namedview
     id="namedview126"
     pagecolor="#ffffff"
     bordercolor="#666666"
     borderopacity="1.0"
     inkscape:pageshadow="2"
     inkscape:pageopacity="0.0"
     inkscape:pagecheckerboard="0" />
  <defs
     id="defs54">
    <linearGradient
       x1="290.06244"
       y1="205.40749"
       x2="245.49978"
       y2="214.90445"
       id="id-37522"
       gradientTransform="scale(1.0587469,0.94451276)"
       gradientUnits="userSpaceOnUse">
      <stop
         stop-color="#80090B"
         offset="0%"
         id="stop2" />
      <stop
         stop-color="#14090C"
         offset="100%"
         id="stop4" />
    </linearGradient>
    <linearGradient
       x1="316.90291"
       y1="113.51617"
       x2="259.67537"
       y2="148.1539"
       id="id-37523"
       gradientTransform="scale(0.92962225,1.0757057)"
       gradientUnits="userSpaceOnUse">
      <stop
         stop-color="#80090B"
         offset="0%"
         id="stop7" />
      <stop
         stop-color="#14090C"
         offset="100%"
         id="stop9" />
    </linearGradient>
    <linearGradient
       x1="87.884835"
       y1="147.95918"
       x2="37.881394"
       y2="113.86593"
       id="id-37524"
       gradientTransform="scale(0.92393644,1.0823255)"
       gradientUnits="userSpaceOnUse">
      <stop
         stop-color="#14090C"
         offset="0%"
         id="stop12" />
      <stop
         stop-color="#80090B"
         offset="100%"
         id="stop14" />
    </linearGradient>
    <linearGradient
       x1="66.803909"
       y1="201.69648"
       x2="8.2833442"
       y2="218.31343"
       id="id-37525"
       gradientTransform="scale(1.0470668,0.9550489)"
       gradientUnits="userSpaceOnUse">
      <stop
         stop-color="#14090C"
         offset="0%"
         id="stop17" />
      <stop
         stop-color="#80090B"
         offset="100%"
         id="stop19" />
    </linearGradient>
    <linearGradient
       x1="276.76151"
       y1="61.66344"
       x2="49.081105"
       y2="47.433418"
       id="id-37526"
       gradientTransform="scale(0.98819619,1.0119448)"
       gradientUnits="userSpaceOnUse">
      <stop
         stop-color="#861832"
         offset="0%"
         id="stop22" />
      <stop
         stop-color="#7E4557"
         offset="18%"
         id="stop24" />
      <stop
         stop-color="#492D2F"
         offset="30%"
         id="stop26" />
      <stop
         stop-color="#492C2E"
         offset="56%"
         id="stop28" />
      <stop
         stop-color="#492C2E"
         offset="76%"
         id="stop30" />
      <stop
         stop-color="#4C292D"
         offset="88%"
         id="stop32" />
      <stop
         stop-color="#520000"
         offset="100%"
         id="stop34" />
    </linearGradient>
    <linearGradient
       x1="286.98332"
       y1="36.770341"
       x2="218.22146"
       y2="131.5502"
       id="id-37527"
       gradientTransform="scale(0.82965567,1.2053193)"
       gradientUnits="userSpaceOnUse">
      <stop
         stop-color="#8D041C"
         offset="0%"
         id="stop37" />
      <stop
         stop-color="#895C7E"
         offset="25%"
         id="stop39" />
      <stop
         stop-color="#7D5061"
         offset="100%"
         id="stop41" />
    </linearGradient>
    <linearGradient
       x1="178.62933"
       y1="263.72489"
       x2="138.69188"
       y2="263.72489"
       id="id-37528"
       gradientTransform="scale(1.3771535,0.72613547)"
       gradientUnits="userSpaceOnUse">
      <stop
         stop-color="#8A5E7F"
         offset="0%"
         id="stop44" />
      <stop
         stop-color="#815468"
         offset="100%"
         id="stop46" />
    </linearGradient>
    <linearGradient
       x1="87.012805"
       y1="20.065047"
       x2="120.51022"
       y2="85.198908"
       id="id-37529"
       gradientTransform="scale(0.79528525,1.2574105)"
       gradientUnits="userSpaceOnUse">
      <stop
         stop-color="#8D0012"
         offset="0%"
         id="stop49" />
      <stop
         stop-color="#784A53"
         offset="100%"
         id="stop51" />
    </linearGradient>
  </defs>
  <g
     id="id-37530">
    <path
       d="m 261,203 c 21,4 32,6 32,6 8,6 15,11 18,15 6,8 9,14 12,19 2,-17 -5,-33 -13,-49 -16,-8 -35,-15 -54,-20 l -10,5 c 10,16 15,24 15,24 z"
       fill="url(#id-37522)"
       id="id-37531"
       style="fill:url(#id-37522)" />
    <path
       d="m 310,194 c -2,8 -3,11 -3,11 5,5 10,14 16,22 -2,-9 -6,-20 -13,-33 z"
       fill="#e45861"
       id="id-37532" />
    <path
       d="m 233,137 c 17,-4 31,-5 43,-10 10,-6 17,-22 26,-30 0,2 1,2 1,2 -3,15 -5,29 -10,45 -15,19 -30,26 -45,34 -11,-7 -15,-20 -15,-41 z"
       fill="url(#id-37523)"
       id="id-37533"
       style="fill:url(#id-37523)" />
    <path
       d="m 284,146 c 1,2 2,1 4,0 l 9,-35 c -5,21 -10,32 -13,35 z"
       fill="#e45861"
       id="id-37534" />
    <path
       d="m 69,221 40,-21 153,3 c -8,12 -12,18 -12,18 -6,14 -8,21 -8,21 -16,-14 -23,-21 -23,-21 -11,0 -16,0 -16,0 0,8 -1,12 -1,12 -11,10 -17,15 -17,15 -6,-5 -8,-8 -8,-8 -9,0 -14,-1 -14,-1 -9,7 -13,10 -13,10 -7,-4 -10,-6 -10,-6 -4,2 -6,2 -6,2 -12,-2 -18,-3 -18,-3 0,-6 1,-9 1,-9 -15,-8 -22,-12 -22,-12 l -19,21 z"
       fill="#000000"
       fill-opacity="0.506"
       id="id-37535" />
    <path
       d="M 91,138 C 64,133 49,129 45,126 38,119 30,109 22,97 c -1,1 -1,2 -1,2 2,12 4,18 4,18 1,10 3,19 5,27 14,20 31,24 46,35 9,-15 14,-28 15,-41 z"
       fill="url(#id-37524)"
       id="id-37536"
       style="fill:url(#id-37524)" />
    <path
       d="m 47,127 c 0,4 0,6 0,6 -3,0 -7,-2 -12,-4 L 22,97 c 13,19 22,29 25,30 z"
       fill="#991d1a"
       id="id-37537" />
    <path
       d="m 69,174 c -26,8 -39,12 -39,12 -12,6 -17,9 -17,9 -7,14 -15,31 -12,48 10,-18 12,-22 29,-34 l 30,-6 16,-24 c -5,-3 -7,-5 -7,-5 z"
       fill="url(#id-37525)"
       id="id-37538"
       style="fill:url(#id-37525)" />
    <path
       d="m 0,232 c 7,-12 12,-23 14,-34 l 7,-7 -8,4 C 5,210 1,223 0,232 Z"
       fill="#991d1a"
       id="id-37539" />
    <path
       d="m 117,235 c 4,0 9,3 15,5 3,-4 5,-6 5,-6 2,3 3,5 3,5 5,-2 7,-3 7,-3 6,2 9,3 9,3 4,-2 6,-4 6,-4 6,2 8,3 8,3 5,-2 7,-3 7,-3 3,1 4,2 4,2 4,-4 5,-6 5,-6 4,4 6,6 6,6 5,-3 8,-4 8,-4 -3,-12 1,-20 9,-26 29,12 44,19 44,19 4,-3 6,-4 6,-4 2,-7 4,-11 4,-11 -2,-6 -2,-13 -2,-19 -14,-15 -21,-23 -21,-23 -5,-17 -8,-32 -8,-44 15,-15 30,-38 46,-65 1,-19 -2,-39 -12,-60 -1,18 -1,26 -1,26 -3,9 -5,13 -5,13 -20,26 -31,39 -31,39 -8,9 -17,18 -29,24 -11,-9 -26,-8 -39,-13 -23,7 -35,11 -35,11 -6,-2 -9,-2 -9,-2 -8,-6 -12,-9 -12,-9 C 90,72 73,54 59,37 56,14 54,3 54,3 46,17 43,36 44,58 c 12,21 18,32 18,32 18,26 27,39 27,39 2,9 -1,17 -3,26 -3,7 -6,15 -11,24 -3,6 -10,12 -16,17 0,7 1,10 1,10 7,13 11,19 11,19 13,-7 28,-13 42,-18 7,8 11,11 11,11 l -2,7 c -3,7 -5,10 -5,10 z"
       fill="url(#id-37526)"
       id="id-37540"
       style="fill:url(#id-37526)" />
    <path
       d="m 71,225 30,-22 c 12,-5 18,-7 18,-7 4,-1 6,-1 6,-1 l 8,2 -9,21 -11,-11 z"
       fill="#3a1c1c"
       id="id-37541" />
    <path
       d="M 88,213 C 77,198 71,191 71,191 81,180 86,175 86,175 l 2,-29 -2,10 c -5,11 -7,16 -11,23 -3,4 -4,7 -16,17 l 1,10 11,19 c 11,-8 17,-12 17,-12 z"
       fill="#412325"
       id="id-37542" />
    <path
       d="m 100,174 c 9,-7 14,-11 14,-11 12,0 18,0 18,0 -8,5 -12,7 -12,7 l 15,-1 -11,10 c -16,-3 -24,-5 -24,-5 z"
       fill="#371615"
       id="id-37543" />
    <path
       d="m 98,175 c 0,-17 0,-26 0,-26 3,-4 12,-9 27,-14 13,8 20,11 20,11 3,4 3,8 3,11 l -24,22 c -17,-2 -26,-4 -26,-4 z"
       fill="#110301"
       id="id-37544" />
    <path
       d="m 98,175 c 5,-14 8,-22 8,-22 12,-3 18,-5 18,-5 11,8 17,11 17,11 l -3,8 -14,12 c -17,-2 -26,-4 -26,-4 z"
       fill="#2c0a00"
       id="id-37545" />
    <path
       d="m 145,195 47,6 8,32 -8,4 -6,-6 -5,6 -5,-2 -6,3 -8,-3 -6,4 -9,-3 -7,3 -3,-5 -5,6 c -5,-2 -11,-4 -15,-4 3,-7 5,-11 5,-11 l 9,-25 z"
       fill="#5d393f"
       id="id-37546" />
    <path
       d="m 128,214 c 2,6 3,9 3,9 1,5 1,8 1,8 1,-2 1,-3 1,-3 8,-5 12,-8 12,-8 l -11,4 c -4,-6 -6,-10 -6,-10 z"
       fill="#3a1b1c"
       id="id-37547" />
    <path
       d="m 147,236 c -1,0 -2,0 -2,0 1,-6 2,-9 2,-9 -1,-4 -1,-6 -1,-6 7,-1 11,-1 11,-1 l -8,7 c -1,6 -2,9 -2,9 z"
       fill="#2c0b00"
       id="id-37548" />
    <path
       d="m 155,239 c 2,-12 3,-18 3,-18 l 6,9 c -6,6 -9,9 -9,9 z"
       fill="#9c71a0"
       id="id-37549" />
    <path
       d="m 164,230 c 3,-7 5,-10 5,-10 0,-2 0,-2 0,-2 l -5,6 -6,-3 c 4,6 6,9 6,9 z"
       fill="#2c0b00"
       id="id-37550" />
    <path
       d="m 171,238 5,-5 -7,-13 c 1,12 2,18 2,18 z"
       fill="#9c71a0"
       id="id-37551" />
    <path
       d="m 189,228 c -2,-3 -3,-4 -3,-4 1,0 2,0 2,0 l 6,-3 c -3,4 -5,7 -5,7 z"
       fill="#3a1b1c"
       id="id-37552" />
    <path
       d="m 197,218 c -6,6 -9,9 -9,9 -4,-4 -7,-6 -7,-6 -4,4 -6,7 -6,7 l -6,-10 c -3,4 -5,7 -5,7 -4,-2 -6,-4 -7,-5 -4,0 -5,0 -5,0 2,-11 3,-16 3,-16 -3,4 -5,7 -7,9 0,-7 -1,-13 -3,-18 9,-28 14,-42 14,-42 9,0 14,1 14,1 13,16 20,25 20,25 10,1 20,0 30,-3 0,-20 0,-31 0,-31 -16,-7 -25,-10 -25,-10 -20,8 -30,12 -30,12 -7,0 -10,1 -10,1 -22,-14 -34,-21 -34,-21 7,-16 10,-25 10,-25 l -5,-3 32,-9 c 13,4 30,3 39,12 -3,1 -4,1 -4,1 9,7 13,11 13,11 20,-21 38,-41 53,-63 6,-8 7,-24 6,-47 8,19 11,37 10,52 -17,24 -37,47 -61,64 l 15,11 c 1,13 4,26 8,38 l 21,23 -13,20 -57,-15 z"
       fill="url(#id-37527)"
       id="id-37553"
       style="fill:url(#id-37527)" />
    <path
       d="m 225,206 c 9,-8 16,-18 21,-29 -19,1 -43,3 -52,2 -1,6 -3,12 -3,18 z"
       fill="url(#id-37528)"
       id="id-37554"
       style="fill:url(#id-37528)" />
    <path
       d="m 124,197 -18,-1 c -14,-9 -21,-13 -21,-13 7,-22 11,-33 11,-33 2,17 2,26 2,26 17,2 26,3 26,3 l 12,-6 z"
       fill="#633d46"
       id="path80" />
    <path
       d="m 176,222 c -3,-12 -5,-17 -5,-17 l 9,-1 c -2,12 -4,18 -4,18 z"
       fill="#956a92"
       id="id-37556" />
    <path
       d="m 183,206 c -1,9 -2,13 -2,13 5,4 7,5 7,5 l 3,-3 c -5,-10 -8,-15 -8,-15 z"
       fill="#956a92"
       id="id-37557" />
    <path
       d="m 225,206 c 8,-10 17,-19 21,-30 l 15,16 -13,20 c -15,-4 -23,-6 -23,-6 z"
       fill="#704b63"
       id="id-37558" />
    <path
       d="m 246,176 c -15,1 -23,1 -23,1 0,-5 0,-7 0,-7 l 9,-3 9,3 c 3,4 5,6 5,6 z"
       fill="#815265"
       id="id-37559" />
    <path
       d="m 227,137 -5,4 c 0,15 0,22 0,22 11,-1 16,-1 16,-1 -3,-8 -4,-16 -5,-25 z"
       fill="#815265"
       id="id-37560" />
    <path
       d="m 242,171 -10,-3 c -8,2 -12,2 -12,2 -23,-1 -35,-1 -35,-1 -6,-9 -10,-13 -10,-13 -4,-13 21,-17 25,-19 12,6 18,9 18,9 7,2 11,4 11,4 0,1 0,1 0,1 l -7,5 c 0,5 0,7 0,7 l 20,4 c 0,3 0,4 0,4 z"
       fill="#0b0301"
       id="id-37561" />
    <path
       d="m 220,154 c -2,-4 -2,-7 -2,-7 5,-5 7,-8 7,-8 6,0 9,-1 9,-1 3,6 4,9 4,9 l -10,3 c -5,2 -8,4 -8,4 z"
       fill="#212111"
       id="id-37562" />
    <path
       d="m 228,150 -2,-11 8,-1 4,9 c -7,2 -10,3 -10,3 z"
       fill="#383620"
       id="id-37563" />
    <path
       d="m 223,168 c -1,-3 -1,-5 -1,-5 5,-3 8,-4 8,-4 8,2 12,4 12,4 0,3 0,5 0,5 l -10,-2 c -6,1 -9,2 -9,2 z"
       fill="#242413"
       id="id-37564" />
    <polygon
       points="242,163 242,168 232,166 230,159 "
       fill="#383620"
       id="id-37565" />
    <path
       d="m 240,158 c 0,-4 0,-6 0,-6 -8,-2 -12,-3 -12,-3 l -8,5 c 13,2 20,4 20,4 z"
       fill="#0a0a02"
       id="id-37566" />
    <polygon
       points="240,152 240,158 230,156 228,149 "
       fill="#383620"
       id="id-37567" />
    <path
       d="M 66,94 60,86 C 49,68 44,58 44,58 43,46 44,33 47,20 c 2,12 2,19 2,19 l 19,44 z"
       fill="#520000"
       id="id-37568" />
    <path
       d="m 54,3 c -3,5 -5,10 -7,17 2,12 2,19 2,19 11,26 17,39 17,39 27,28 41,42 41,42 8,-6 12,-9 12,-9 1,-3 2,-5 2,-5 l -2,-7 -2,-1 -12,-9 -46,-52 z"
       fill="url(#id-37529)"
       id="id-37569"
       style="fill:url(#id-37529)" />
    <path
       d="M 62,69 C 61,51 60,42 60,42 56,40 52,34 49,25 l -2,8 c 10,24 15,36 15,36 z"
       fill="#dd4575"
       id="id-37570" />
    <path
       d="m 82,126 c 5,4 7,7 7,7 16,-12 27,-23 31,-35 l -10,-6 c -1,11 -10,23 -28,34 z"
       fill="#1e1e0f"
       id="id-37571" />
    <path
       d="m 82,126 c -1,0 -1,-2 2,-5 l 2,2 c -3,2 -4,3 -4,3 z"
       fill="#060600"
       id="id-37572" />
    <path
       d="m 108,116 -7,-6 c 6,-6 9,-12 9,-18 l 10,6 c -2,7 -6,13 -12,18 z"
       fill="#383620"
       id="id-37573" />
    <polygon
       points="157,141 167,137 133,113 127,128 "
       fill="#93678d"
       id="id-37574" />
    <path
       d="m 177,137 c 15,-3 22,-5 22,-5 l -7,-20 c -10,17 -15,25 -15,25 z"
       fill="#a178a8"
       id="id-37575" />
    <path
       d="m 227,75 c 13,15 23,24 29,26 -4,4 -5,6 -5,6 -14,-7 -23,-14 -28,-20 4,15 9,26 14,32 2,0 3,0 3,0 -1,1 -2,2 -2,2 2,2 3,3 3,3 -6,2 -8,3 -8,3 -12,-4 -21,-12 -28,-22 2,14 5,28 11,40 -7,-3 -10,-5 -10,-5 -5,-21 -8,-36 -7,-44 2,1 3,1 3,1 0,-1 0,-2 0,-2 5,-1 8,-2 8,-2 4,11 9,17 13,20 -6,-15 -10,-22 -10,-22 6,-6 8,-9 8,-9 l 1,1 c 3,-5 5,-8 5,-8 z"
       fill="#1e1e0f"
       id="id-37576" />
    <path
       d="m 204,135 c 5,-1 8,-2 8,-2 -3,-7 -5,-14 -6,-21 h -6 c 2,12 3,19 4,23 z"
       fill="#383620"
       id="id-37577" />
    <path
       d="m 210,111 c 5,-2 7,-3 7,-3 2,2 3,3 3,3 l 2,11 c -6,-4 -10,-8 -12,-11 z"
       fill="#373620"
       id="id-37578" />
    <path
       d="m 227,125 -3,-10 8,12 c -3,-1 -5,-2 -5,-2 z"
       fill="#060600"
       id="id-37579" />
    <path
       d="m 228,120 c 4,-3 7,-4 7,-4 -3,-3 -5,-8 -7,-13 l -8,4 c 3,7 6,11 8,13 z"
       fill="#373620"
       id="id-37580" />
    <path
       d="m 236,98 c 5,-3 8,-5 8,-5 4,3 5,4 5,4 l -3,8 c -6,-4 -10,-7 -10,-7 z"
       fill="#373720"
       id="id-37581" />
    <path
       d="m 239,66 c 9,-5 19,-9 25,-18 5,-11 5,-27 4,-44 l -2,-4 -1,26 -5,13 z"
       fill="#530001"
       id="id-37582" />
    <path
       d="m 265,47 c 6,-5 10,-7 10,-7 l -6,-18 c 0,8 -2,16 -4,25 z"
       fill="#dd4575"
       id="id-37583" />
    <path
       d="m 103,212 c 8,0 12,0 12,0 l 5,-18 c 3,-8 5,-13 6,-16 -5,-1 -7,-1 -7,-1 -5,6 -9,13 -10,21 -1,-5 -2,-8 -2,-8 5,-9 7,-13 7,-13 -3,-2 -4,-3 -4,-3 -3,1 -5,1 -5,1 l -5,14 c 2,15 3,23 3,23 z"
       fill="#1c1c0e"
       id="id-37584" />
    <path
       d="m 107,190 c 0,1 1,2 1,2 l -8,-1 v -2 l 5,-14 4,-1 5,3 c -5,9 -7,13 -7,13 z"
       fill="#383620"
       id="id-37585" />
    <path
       d="m 110,192 10,1 6,-15 -7,-1 c -5,7 -8,12 -9,15 z"
       fill="#383720"
       id="id-37586" />
    <path
       d="m 137,183 c -1,-9 -1,-14 -1,-14 l 13,-13 c -8,18 -12,27 -12,27 z"
       fill="#3a1c1c"
       id="id-37587" />
    <path
       d="m 190,183 c 1,5 2,7 2,7 15,2 23,3 23,3 l 7,-13 c -21,2 -32,3 -32,3 z"
       fill="#a178a8"
       id="id-37588" />
    <path
       d="m 166,201 c 8,-3 12,-5 12,-5 -4,-10 -9,-20 -12,-33 -6,0 -9,0 -9,0 -7,22 -11,33 -11,33 6,3 9,4 9,4 l 6,-9 c 3,6 5,10 5,10 z"
       fill="#2c0b00"
       id="id-37589" />
    <path
       d="m 146,196 9,4 c 4,-6 6,-10 6,-10 l -10,-10 z"
       fill="#000004"
       id="id-37590" />
    <path
       d="m 175,182 c -7,-15 -11,-23 -11,-23 0,-4 0,-6 0,-6 3,-2 5,-2 8,0 2,19 3,29 3,29 z"
       fill="#bcb0ca"
       id="id-37591" />
    <path
       d="m 156,161 10,1 -2,-3 v -6 h -5 c -2,6 -3,8 -3,8 z"
       fill="#a177a8"
       id="id-37592" />
    <path
       d="m 246,176 c 3,9 3,13 2,14 6,2 9,7 13,12 v -10 c -10,-11 -15,-16 -15,-16 z"
       fill="#bcb0ca"
       id="id-37593" />
    <path
       d="m 233,137 c -4,0 -6,0 -6,0 l 2,-11 z"
       fill="#bcb0ca"
       id="id-37594" />
    <path
       d="m 200,102 -10,4 c -16,-9 -26,-15 -28,-16 13,4 25,2 38,12 z"
       fill="#bcb0ca"
       id="id-37595" />
    <path
       d="m 185,168 8,9 h 16 l 12,-3 c -3,-11 -8,-19 -15,-23 -10,1 -21,5 -21,17 z"
       fill="#2c0a00"
       id="id-37596" />
  </g>
</svg>
