<?xml version="1.0" encoding="UTF-8" standalone="no"?>
<svg
   width="1132"
   height="1550"
   viewBox="0 0 1132 1550"
   version="1.1"
   id="svg758"
   sodipodi:docname="cb-layer-0046.svg"
   xmlns:inkscape="http://www.inkscape.org/namespaces/inkscape"
   xmlns:sodipodi="http://sodipodi.sourceforge.net/DTD/sodipodi-0.dtd"
   xmlns:xlink="http://www.w3.org/1999/xlink"
   xmlns="http://www.w3.org/2000/svg"
   xmlns:svg="http://www.w3.org/2000/svg">
  <sodipodi:namedview
     id="namedview760"
     pagecolor="#ffffff"
     bordercolor="#666666"
     borderopacity="1.0"
     inkscape:pageshadow="2"
     inkscape:pageopacity="0.0"
     inkscape:pagecheckerboard="0" />
  <defs
     id="defs360">
    <linearGradient
       x1="522.64597"
       y1="1.0906044"
       x2="522.64597"
       y2="887.42483"
       id="id-23781"
       gradientTransform="scale(1.0906044,0.91692275)"
       gradientUnits="userSpaceOnUse">
      <stop
         stop-color="#230700"
         offset="0%"
         id="stop2" />
      <stop
         stop-color="#291208"
         offset="48%"
         id="stop4" />
      <stop
         stop-color="#2E1E14"
         offset="67%"
         id="stop6" />
      <stop
         stop-color="#150301"
         offset="100%"
         id="stop8" />
    </linearGradient>
    <linearGradient
       x1="1281.8245"
       y1="103.83286"
       x2="1281.8245"
       y2="429.73162"
       id="id-23782"
       gradientTransform="scale(0.75790409,1.3194282)"
       gradientUnits="userSpaceOnUse">
      <stop
         stop-color="#7B3D5D"
         offset="0%"
         id="stop11" />
      <stop
         stop-color="#78505D"
         offset="100%"
         id="stop13" />
    </linearGradient>
    <linearGradient
       x1="480.8448"
       y1="38.362481"
       x2="480.8448"
       y2="709.70592"
       id="id-23783"
       gradientTransform="scale(0.76116035,1.3137836)"
       gradientUnits="userSpaceOnUse">
      <stop
         stop-color="#391D18"
         offset="0%"
         id="stop16" />
      <stop
         stop-color="#3C211C"
         offset="3%"
         id="stop18" />
      <stop
         stop-color="#593E40"
         offset="9%"
         id="stop20" />
      <stop
         stop-color="#391E1C"
         offset="19%"
         id="stop22" />
      <stop
         stop-color="#341C17"
         offset="55%"
         id="stop24" />
      <stop
         stop-color="#161B05"
         offset="100%"
         id="stop26" />
    </linearGradient>
    <linearGradient
       x1="440.98109"
       y1="174.69565"
       x2="440.98109"
       y2="554.01479"
       id="id-23784"
       gradientTransform="scale(0.79595249,1.2563564)"
       gradientUnits="userSpaceOnUse">
      <stop
         stop-color="#6E5054"
         offset="0%"
         id="stop29" />
      <stop
         stop-color="#3A211E"
         offset="60%"
         id="stop31" />
      <stop
         stop-color="#291C10"
         offset="100%"
         id="stop33" />
    </linearGradient>
    <linearGradient
       x1="325.2187"
       y1="236.30693"
       x2="313.75551"
       y2="345.20727"
       id="id-23785"
       gradientTransform="scale(1.2143213,0.82350526)"
       gradientUnits="userSpaceOnUse">
      <stop
         stop-color="#916A7B"
         offset="0%"
         id="stop36" />
      <stop
         stop-color="#9E7994"
         offset="38%"
         id="stop38" />
      <stop
         stop-color="#604147"
         offset="100%"
         id="stop40" />
    </linearGradient>
    <linearGradient
       x1="295.05234"
       y1="260.62812"
       x2="357.52859"
       y2="294.15196"
       id="id-23786"
       gradientTransform="scale(1.1287489,0.88593663)"
       gradientUnits="userSpaceOnUse">
      <stop
         stop-color="#A886A5"
         offset="0%"
         stop-opacity="0.327"
         id="stop43" />
      <stop
         stop-color="#B18CAF"
         offset="43%"
         id="stop45" />
      <stop
         stop-color="#B58FB3"
         offset="100%"
         stop-opacity="0.336"
         id="stop47" />
    </linearGradient>
    <linearGradient
       x1="99.500223"
       y1="237.11386"
       x2="111.50129"
       y2="275.36726"
       id="id-23787"
       gradientTransform="scale(0.7732646,1.2932184)"
       gradientUnits="userSpaceOnUse">
      <stop
         stop-color="#3B1B06"
         offset="0%"
         id="stop50" />
      <stop
         stop-color="#A24801"
         offset="100%"
         id="stop52" />
    </linearGradient>
    <linearGradient
       x1="137.59615"
       y1="342.82316"
       x2="129.49424"
       y2="441.66642"
       id="id-23788"
       gradientTransform="scale(0.56263238,1.7773595)"
       gradientUnits="userSpaceOnUse">
      <stop
         stop-color="#3B231C"
         offset="0%"
         id="stop55" />
      <stop
         stop-color="#170000"
         offset="100%"
         id="stop57" />
    </linearGradient>
    <linearGradient
       x1="126.77346"
       y1="108.75904"
       x2="137.76466"
       y2="124.74624"
       id="id-23789"
       gradientTransform="scale(0.96076892,1.040833)"
       gradientUnits="userSpaceOnUse">
      <stop
         stop-color="#4B302D"
         offset="0%"
         id="stop60" />
      <stop
         stop-color="#5C3E41"
         offset="100%"
         id="stop62" />
    </linearGradient>
    <linearGradient
       x1="344.75075"
       y1="336.35252"
       x2="335.65882"
       y2="453.24862"
       id="id-23790"
       gradientTransform="scale(0.5389401,1.8554938)"
       gradientUnits="userSpaceOnUse">
      <stop
         stop-color="#231807"
         offset="0%"
         id="stop65" />
      <stop
         stop-color="#886C1E"
         offset="49%"
         id="stop67" />
      <stop
         stop-color="#2F1C0B"
         offset="100%"
         id="stop69" />
    </linearGradient>
    <linearGradient
       x1="113.2982"
       y1="258.66534"
       x2="146.2042"
       y2="257.16962"
       id="id-23791"
       gradientTransform="scale(1.5911992,0.62845683)"
       gradientUnits="userSpaceOnUse">
      <stop
         stop-color="#5E4145"
         offset="0%"
         stop-opacity="0.450"
         id="stop72" />
      <stop
         stop-color="#5D4044"
         offset="100%"
         id="stop74" />
    </linearGradient>
    <linearGradient
       x1="78.314291"
       y1="61.759692"
       x2="102.07413"
       y2="106.11139"
       id="id-23792"
       gradientTransform="scale(1.0732396,0.93175836)"
       gradientUnits="userSpaceOnUse">
      <stop
         stop-color="#FFF2F5"
         offset="0%"
         id="stop77" />
      <stop
         stop-color="#EBBBC5"
         offset="100%"
         id="stop79" />
    </linearGradient>
    <linearGradient
       x1="845.57749"
       y1="72.173842"
       x2="876.88982"
       y2="451.83602"
       id="id-23793"
       gradientTransform="scale(0.69397925,1.4409653)"
       gradientUnits="userSpaceOnUse">
      <stop
         stop-color="#7C5163"
         offset="0%"
         id="stop82" />
      <stop
         stop-color="#815B69"
         offset="16%"
         id="stop84" />
      <stop
         stop-color="#704D56"
         offset="36%"
         id="stop86" />
      <stop
         stop-color="#371F18"
         offset="100%"
         id="stop88" />
    </linearGradient>
    <linearGradient
       x1="404.44991"
       y1="457.90817"
       x2="404.44991"
       y2="556.32807"
       id="id-23794"
       gradientTransform="scale(0.88762536,1.1266014)"
       gradientUnits="userSpaceOnUse">
      <stop
         stop-color="#4E3535"
         offset="0%"
         id="stop91" />
      <stop
         stop-color="#4D3233"
         offset="100%"
         stop-opacity="0"
         id="stop93" />
    </linearGradient>
    <linearGradient
       x1="830.55626"
       y1="495.59726"
       x2="856.94565"
       y2="617.64817"
       id="id-23795"
       gradientTransform="scale(0.56873681,1.7582825)"
       gradientUnits="userSpaceOnUse">
      <stop
         stop-color="#201B0A"
         offset="0%"
         id="stop96" />
      <stop
         stop-color="#3D2C26"
         offset="39%"
         id="stop98" />
      <stop
         stop-color="#333222"
         offset="100%"
         id="stop100" />
    </linearGradient>
    <linearGradient
       x1="922.88127"
       y1="387.66342"
       x2="922.88127"
       y2="436.54265"
       id="id-23796"
       gradientTransform="scale(0.55354997,1.8065216)"
       gradientUnits="userSpaceOnUse">
      <stop
         stop-color="#452A29"
         offset="0%"
         id="stop103" />
      <stop
         stop-color="#5D3E43"
         offset="100%"
         id="stop105" />
    </linearGradient>
    <linearGradient
       x1="838.68039"
       y1="465.43833"
       x2="838.68039"
       y2="559.67208"
       id="id-23797"
       gradientTransform="scale(0.63671454,1.5705625)"
       gradientUnits="userSpaceOnUse">
      <stop
         stop-color="#AE89AD"
         offset="0%"
         stop-opacity="0.469"
         id="stop108" />
      <stop
         stop-color="#AB86A6"
         offset="100%"
         id="stop110" />
    </linearGradient>
    <linearGradient
       x1="1540.5801"
       y1="309.19523"
       x2="1540.5801"
       y2="416.95886"
       id="id-23798"
       gradientTransform="scale(0.45469886,2.1992578)"
       gradientUnits="userSpaceOnUse">
      <stop
         stop-color="#62543A"
         offset="0%"
         stop-opacity="0"
         id="stop113" />
      <stop
         stop-color="#332A1B"
         offset="100%"
         id="stop115" />
    </linearGradient>
    <linearGradient
       x1="1321.3311"
       y1="249.14875"
       x2="1321.3311"
       y2="340.27503"
       id="id-23799"
       gradientTransform="scale(0.52674154,1.8984643)"
       gradientUnits="userSpaceOnUse">
      <stop
         stop-color="#704C56"
         offset="0%"
         id="stop118" />
      <stop
         stop-color="#452A26"
         offset="100%"
         id="stop120" />
    </linearGradient>
    <linearGradient
       x1="1020.6812"
       y1="173.68918"
       x2="1013.8718"
       y2="228.16442"
       id="id-23800"
       gradientTransform="scale(0.61679395,1.621287)"
       gradientUnits="userSpaceOnUse">
      <stop
         stop-color="#603941"
         offset="0%"
         id="stop123" />
      <stop
         stop-color="#644147"
         offset="100%"
         id="stop125" />
    </linearGradient>
    <linearGradient
       x1="348.63894"
       y1="576.34468"
       x2="318.85788"
       y2="568.89941"
       id="id-23801"
       gradientTransform="scale(1.3968606,0.71589105)"
       gradientUnits="userSpaceOnUse">
      <stop
         stop-color="#5D3D44"
         offset="0%"
         id="stop128" />
      <stop
         stop-color="#755563"
         offset="100%"
         id="stop130" />
    </linearGradient>
    <linearGradient
       x1="458.11678"
       y1="9.8349378"
       x2="458.11678"
       y2="70.249555"
       id="id-23802"
       gradientTransform="scale(0.66904338,1.4946714)"
       gradientUnits="userSpaceOnUse">
      <stop
         stop-color="#3D211F"
         offset="0%"
         id="stop133" />
      <stop
         stop-color="#230500"
         offset="100%"
         id="stop135" />
    </linearGradient>
    <linearGradient
       x1="552.63911"
       y1="295.62725"
       x2="543.60972"
       y2="312.82609"
       id="id-23803"
       gradientTransform="scale(1.1861267,0.84308025)"
       gradientUnits="userSpaceOnUse">
      <stop
         stop-color="#9F7082"
         offset="0%"
         id="stop138" />
      <stop
         stop-color="#DAAABB"
         offset="46%"
         id="stop140" />
      <stop
         stop-color="#F3C3D1"
         offset="85%"
         id="stop142" />
      <stop
         stop-color="#FFDFED"
         offset="100%"
         id="stop144" />
    </linearGradient>
    <linearGradient
       x1="547.06323"
       y1="44.089967"
       x2="547.06323"
       y2="162.03063"
       id="id-23804"
       gradientTransform="scale(1.1022492,0.90723587)"
       gradientUnits="userSpaceOnUse">
      <stop
         stop-color="#E4CDE8"
         offset="0%"
         id="stop147" />
      <stop
         stop-color="#C49ECD"
         offset="100%"
         id="stop149" />
    </linearGradient>
    <linearGradient
       x1="371.34275"
       y1="94.3085"
       x2="344.70537"
       y2="129.39188"
       id="id-23805"
       gradientTransform="scale(1.0312575,0.9696899)"
       gradientUnits="userSpaceOnUse">
      <stop
         stop-color="#412423"
         offset="0%"
         id="stop152" />
      <stop
         stop-color="#5A3D42"
         offset="100%"
         id="stop154" />
    </linearGradient>
    <linearGradient
       x1="629.14096"
       y1="84.658344"
       x2="629.14096"
       y2="93.744333"
       id="id-23806"
       gradientTransform="scale(0.90138782,1.1094004)"
       gradientUnits="userSpaceOnUse">
      <stop
         stop-color="#9B7188"
         offset="0%"
         id="stop157" />
      <stop
         stop-color="#986E85"
         offset="100%"
         stop-opacity="0"
         id="stop159" />
    </linearGradient>
    <linearGradient
       x1="621.96228"
       y1="513.52954"
       x2="461.24513"
       y2="513.52954"
       id="id-23807"
       gradientTransform="scale(0.76531973,1.3066434)"
       gradientUnits="userSpaceOnUse">
      <stop
         stop-color="#A63BEE"
         offset="0%"
         id="stop162" />
      <stop
         stop-color="#DF32F6"
         offset="100%"
         id="stop164" />
    </linearGradient>
    <linearGradient
       x1="410.43929"
       y1="720.50509"
       x2="554.31324"
       y2="806.24815"
       id="id-23808"
       gradientTransform="scale(1.1353689,0.88077101)"
       gradientUnits="userSpaceOnUse">
      <stop
         stop-color="#A137D9"
         offset="0%"
         id="stop167" />
      <stop
         stop-color="#7B2F74"
         offset="51%"
         id="stop169" />
      <stop
         stop-color="#7F5060"
         offset="100%"
         id="stop171" />
    </linearGradient>
    <linearGradient
       x1="658.65012"
       y1="592.51565"
       x2="658.65012"
       y2="473.01669"
       id="id-23809"
       gradientTransform="scale(0.7113033,1.40587)"
       gradientUnits="userSpaceOnUse">
      <stop
         stop-color="#DF32F6"
         offset="0%"
         id="stop174" />
      <stop
         stop-color="#A63BEE"
         offset="100%"
         id="stop176" />
    </linearGradient>
    <linearGradient
       x1="652.53802"
       y1="651.57087"
       x2="680.82724"
       y2="709.09228"
       id="id-23810"
       gradientTransform="scale(0.8059607,1.2407553)"
       gradientUnits="userSpaceOnUse">
      <stop
         stop-color="#B92DC3"
         offset="0%"
         id="stop179" />
      <stop
         stop-color="#752B67"
         offset="100%"
         id="stop181" />
    </linearGradient>
    <linearGradient
       x1="563.88336"
       y1="672.76511"
       x2="595.10182"
       y2="701.38203"
       id="id-23811"
       gradientTransform="scale(0.92253121,1.0839742)"
       gradientUnits="userSpaceOnUse">
      <stop
         stop-color="#B32DBD"
         offset="0%"
         id="stop184" />
      <stop
         stop-color="#782A6B"
         offset="100%"
         id="stop186" />
    </linearGradient>
    <linearGradient
       x1="294.34639"
       y1="712.3087"
       x2="214.61725"
       y2="738.40187"
       id="id-23812"
       gradientTransform="scale(1.0899403,0.91748142)"
       gradientUnits="userSpaceOnUse">
      <stop
         stop-color="#E82DE5"
         offset="0%"
         id="stop189" />
      <stop
         stop-color="#BB4EA8"
         offset="49%"
         id="stop191" />
      <stop
         stop-color="#8C7168"
         offset="100%"
         id="stop193" />
    </linearGradient>
    <linearGradient
       x1="573.27237"
       y1="297.17462"
       x2="573.27237"
       y2="379.3737"
       id="id-23813"
       gradientTransform="scale(0.72129763,1.3863902)"
       gradientUnits="userSpaceOnUse">
      <stop
         stop-color="#E733FD"
         offset="0%"
         id="stop196" />
      <stop
         stop-color="#C938FA"
         offset="100%"
         id="stop198" />
    </linearGradient>
    <linearGradient
       x1="284.75748"
       y1="231.22834"
       x2="230.0583"
       y2="231.22834"
       id="id-23814"
       gradientTransform="scale(0.62158156,1.6087993)"
       gradientUnits="userSpaceOnUse">
      <stop
         stop-color="#6D3959"
         offset="0%"
         id="stop201" />
      <stop
         stop-color="#8A6A66"
         offset="100%"
         id="stop203" />
    </linearGradient>
    <linearGradient
       x1="355.99197"
       y1="230.11193"
       x2="228.77562"
       y2="230.11193"
       id="id-23815"
       gradientTransform="scale(0.93541435,1.069045)"
       gradientUnits="userSpaceOnUse">
      <stop
         stop-color="#E52FF0"
         offset="0%"
         id="stop206" />
      <stop
         stop-color="#6B2464"
         offset="100%"
         id="stop208" />
    </linearGradient>
    <linearGradient
       x1="653.35563"
       y1="230.80539"
       x2="553.43379"
       y2="230.80539"
       id="id-23816"
       gradientTransform="scale(0.93823328,1.065833)"
       gradientUnits="userSpaceOnUse">
      <stop
         stop-color="#59214F"
         offset="0%"
         id="stop211" />
      <stop
         stop-color="#DB3CE9"
         offset="100%"
         id="stop213" />
    </linearGradient>
    <linearGradient
       x1="819.44622"
       y1="151.31194"
       x2="819.44622"
       y2="93.177207"
       id="id-23817"
       gradientTransform="scale(0.85972695,1.16316)"
       gradientUnits="userSpaceOnUse">
      <stop
         stop-color="#6C385A"
         offset="0%"
         id="stop216" />
      <stop
         stop-color="#642D55"
         offset="100%"
         id="stop218" />
    </linearGradient>
    <linearGradient
       x1="461.68737"
       y1="276.95365"
       x2="461.68737"
       y2="276.95365"
       id="id-23818"
       gradientTransform="scale(0.87505102,1.1427905)"
       gradientUnits="userSpaceOnUse">
      <stop
         stop-color="#E83EFE"
         offset="0%"
         id="stop221" />
      <stop
         stop-color="#EA63FE"
         offset="100%"
         id="stop223" />
    </linearGradient>
    <linearGradient
       x1="422.71329"
       y1="185.77131"
       x2="422.71329"
       y2="185.77131"
       id="id-23819"
       gradientTransform="scale(0.96755889,1.0335288)"
       gradientUnits="userSpaceOnUse">
      <stop
         stop-color="#E83EFE"
         offset="0%"
         id="stop226" />
      <stop
         stop-color="#EA63FE"
         offset="100%"
         id="stop228" />
    </linearGradient>
    <linearGradient
       x1="379.67574"
       y1="180.88174"
       x2="382.77284"
       y2="179.33319"
       id="id-23820"
       gradientTransform="scale(1.420686,0.70388532)"
       gradientUnits="userSpaceOnUse">
      <stop
         stop-color="#E83EFE"
         offset="0%"
         id="stop231" />
      <stop
         stop-color="#EA63FE"
         offset="100%"
         id="stop233" />
    </linearGradient>
    <linearGradient
       x1="184.19504"
       y1="63.859367"
       x2="184.19504"
       y2="380.19313"
       id="id-23821"
       gradientTransform="scale(1.2771873,0.78297049)"
       gradientUnits="userSpaceOnUse">
      <stop
         stop-color="#230700"
         offset="0%"
         id="stop236" />
      <stop
         stop-color="#291208"
         offset="48%"
         id="stop238" />
      <stop
         stop-color="#2E1E14"
         offset="67%"
         id="stop240" />
      <stop
         stop-color="#150301"
         offset="100%"
         id="stop242" />
    </linearGradient>
    <linearGradient
       x1="306.13199"
       y1="230.56211"
       x2="255.03292"
       y2="149.40477"
       id="id-23822"
       gradientTransform="scale(1.081233,0.92487005)"
       gradientUnits="userSpaceOnUse">
      <stop
         stop-color="#4C2C2E"
         offset="0%"
         id="stop245" />
      <stop
         stop-color="#230700"
         offset="100%"
         id="stop247" />
    </linearGradient>
    <linearGradient
       x1="259.61034"
       y1="42.434628"
       x2="154.93827"
       y2="141.44875"
       id="id-23823"
       gradientTransform="scale(0.91552592,1.0922684)"
       gradientUnits="userSpaceOnUse">
      <stop
         stop-color="#240D63"
         offset="0%"
         id="stop250" />
      <stop
         stop-color="#083A6A"
         offset="39%"
         id="stop252" />
      <stop
         stop-color="#17357A"
         offset="69%"
         id="stop254" />
      <stop
         stop-color="#44308D"
         offset="100%"
         id="stop256" />
    </linearGradient>
    <linearGradient
       x1="304.87395"
       y1="144.27773"
       x2="211.51777"
       y2="39.605651"
       id="id-23824"
       gradientTransform="scale(0.91552592,1.0922684)"
       gradientUnits="userSpaceOnUse">
      <stop
         stop-color="#290C76"
         offset="0%"
         stop-opacity="0"
         id="stop259" />
      <stop
         stop-color="#1F0B50"
         offset="100%"
         id="stop261" />
    </linearGradient>
    <radialGradient
       cx="560.34122"
       cy="87.682287"
       r="243.07761"
       id="id-23825"
       fx="560.34122"
       fy="87.682287"
       gradientTransform="scale(0.50683403,1.9730325)"
       gradientUnits="userSpaceOnUse">
      <stop
         stop-color="#FFFFFF"
         offset="0%"
         id="stop264" />
      <stop
         stop-color="#FFFFFF"
         offset="89%"
         stop-opacity="0"
         id="stop266" />
      <stop
         stop-color="#FFFFFF"
         offset="100%"
         stop-opacity="0"
         id="stop268" />
    </radialGradient>
    <linearGradient
       x1="160.50277"
       y1="46.403708"
       x2="111.82218"
       y2="56.139826"
       id="id-23826"
       gradientTransform="scale(1.3968606,0.71589105)"
       gradientUnits="userSpaceOnUse">
      <stop
         stop-color="#EEEEEE"
         offset="0%"
         stop-opacity="0"
         id="stop271" />
      <stop
         stop-color="#9187B1"
         offset="100%"
         id="stop273" />
    </linearGradient>
    <filter
       width="5.4444444"
       height="3.1785714"
       x="-2.2222222"
       y="-1.0714286"
       id="id-23827"
       filterUnits="objectBoundingBox">
      <feMorphology
         result="id-23828"
         in="SourceAlpha"
         operator="dilate"
         radius="3"
         id="feMorphology276" />
      <feOffset
         result="id-23829"
         in="SourceGraphic"
         dx="0"
         dy="2"
         id="feOffset278" />
      <feGaussianBlur
         result="id-23831"
         in="SourceGraphic"
         stdDeviation="25"
         id="feGaussianBlur280" />
      <feColorMatrix
         in="SourceGraphic"
         type="matrix"
         values="0 0 0 0 0 0 0 0 0 0.749 0 0 0 0 0 0 0 0 1 0"
         id="feColorMatrix282" />
    </filter>
    <path
       d="m 236,219 c -10,-29 -14,-43 -14,-43 9,-9 13,-13 13,-13 l 14,12 c -9,29 -13,44 -13,44 z"
       id="id-23834" />
    <path
       d="m 236,219 c -10,-29 -14,-43 -14,-43 9,-9 13,-13 13,-13 l 14,12 c -9,29 -13,44 -13,44 z"
       id="path286" />
    <filter
       width="5.4444444"
       height="5.2068966"
       x="-2.2222222"
       y="-2.0689655"
       id="id-23836"
       filterUnits="objectBoundingBox">
      <feMorphology
         result="id-23828"
         in="SourceAlpha"
         operator="dilate"
         radius="3"
         id="feMorphology288" />
      <feOffset
         result="id-23829"
         in="SourceGraphic"
         dx="0"
         dy="2"
         id="feOffset290" />
      <feGaussianBlur
         result="id-23831"
         in="SourceGraphic"
         stdDeviation="25"
         id="feGaussianBlur292" />
      <feColorMatrix
         in="SourceGraphic"
         type="matrix"
         values="0 0 0 0 0 0 0 0 0 0.749 0 0 0 0 0 0 0 0 1 0"
         id="feColorMatrix294" />
    </filter>
    <path
       d="m 235,146 c -9,-10 -13,-15 -13,-15 9,-9 13,-14 13,-14 l 14,14 c -9,10 -14,15 -14,15 z"
       id="id-23843" />
    <path
       d="m 235,146 c -9,-10 -13,-15 -13,-15 9,-9 13,-14 13,-14 l 14,14 c -9,10 -14,15 -14,15 z"
       id="path298" />
    <filter
       width="5.4444444"
       height="3.9756098"
       x="-2.2222222"
       y="-1.4634146"
       id="id-23845"
       filterUnits="objectBoundingBox">
      <feMorphology
         result="id-23828"
         in="SourceAlpha"
         operator="dilate"
         radius="3"
         id="feMorphology300" />
      <feOffset
         result="id-23829"
         in="SourceGraphic"
         dx="0"
         dy="2"
         id="feOffset302" />
      <feGaussianBlur
         result="id-23831"
         in="SourceGraphic"
         stdDeviation="25"
         id="feGaussianBlur304" />
      <feColorMatrix
         in="SourceGraphic"
         type="matrix"
         values="0 0 0 0 0 0 0 0 0 0.749 0 0 0 0 0 0 0 0 1 0"
         id="feColorMatrix306" />
    </filter>
    <path
       d="M 235,107 C 226,97 222,92 222,92 231,75 235,66 235,66 l 14,26 c -9,10 -14,15 -14,15 z"
       id="id-23852" />
    <path
       d="M 235,107 C 226,97 222,92 222,92 231,75 235,66 235,66 l 14,26 c -9,10 -14,15 -14,15 z"
       id="path310" />
    <filter
       width="5.6153846"
       height="5.6923077"
       x="-2.3076923"
       y="-2.3076923"
       id="id-23854"
       filterUnits="objectBoundingBox">
      <feMorphology
         result="id-23828"
         in="SourceAlpha"
         operator="dilate"
         radius="3"
         id="feMorphology312" />
      <feOffset
         result="id-23829"
         in="SourceGraphic"
         dx="0"
         dy="2"
         id="feOffset314" />
      <feGaussianBlur
         result="id-23831"
         in="SourceGraphic"
         stdDeviation="25"
         id="feGaussianBlur316" />
      <feColorMatrix
         in="SourceGraphic"
         type="matrix"
         values="0 0 0 0 0 0 0 0 0 0.749 0 0 0 0 0 0 0 0 1 0"
         id="feColorMatrix318" />
    </filter>
    <path
       d="m 283,139 c -9,-9 -13,-13 -13,-13 7,-8 10,-13 10,-13 l 16,13 c -9,9 -13,13 -13,13 z"
       id="id-23861" />
    <path
       d="m 283,139 c -9,-9 -13,-13 -13,-13 7,-8 10,-13 10,-13 l 16,13 c -9,9 -13,13 -13,13 z"
       id="path322" />
    <filter
       width="6.7142857"
       height="5.5185185"
       x="-2.8571429"
       y="-2.2222222"
       id="id-23863"
       filterUnits="objectBoundingBox">
      <feMorphology
         result="id-23828"
         in="SourceAlpha"
         operator="dilate"
         radius="3"
         id="feMorphology324" />
      <feOffset
         result="id-23829"
         in="SourceGraphic"
         dx="0"
         dy="2"
         id="feOffset326" />
      <feGaussianBlur
         result="id-23831"
         in="SourceGraphic"
         stdDeviation="25"
         id="feGaussianBlur328" />
      <feColorMatrix
         in="SourceGraphic"
         type="matrix"
         values="0 0 0 0 0 0 0 0 0 0.749 0 0 0 0 0 0 0 0 1 0"
         id="feColorMatrix330" />
    </filter>
    <path
       d="m 317,144 c -2,-12 -2,-18 -2,-18 l 21,-9 c -13,18 -19,27 -19,27 z"
       id="id-23870" />
    <path
       d="m 317,144 c -2,-12 -2,-18 -2,-18 l 21,-9 c -13,18 -19,27 -19,27 z"
       id="path334" />
    <filter
       width="5.6153846"
       height="5.5185185"
       x="-2.3076923"
       y="-2.2222222"
       id="id-23872"
       filterUnits="objectBoundingBox">
      <feMorphology
         result="id-23828"
         in="SourceAlpha"
         operator="dilate"
         radius="3"
         id="feMorphology336" />
      <feOffset
         result="id-23829"
         in="SourceGraphic"
         dx="0"
         dy="2"
         id="feOffset338" />
      <feGaussianBlur
         result="id-23831"
         in="SourceGraphic"
         stdDeviation="25"
         id="feGaussianBlur340" />
      <feColorMatrix
         in="SourceGraphic"
         type="matrix"
         values="0 0 0 0 0 0 0 0 0 0.749 0 0 0 0 0 0 0 0 1 0"
         id="feColorMatrix342" />
    </filter>
    <path
       d="m 190,113 c -11,9 -16,13 -16,13 9,9 14,14 14,14 l 12,-14 c -6,-8 -10,-13 -10,-13 z"
       id="id-23879" />
    <path
       d="m 190,113 c -11,9 -16,13 -16,13 9,9 14,14 14,14 l 12,-14 c -6,-8 -10,-13 -10,-13 z"
       id="path346" />
    <filter
       width="6.7142857"
       height="5.6923077"
       x="-2.8571429"
       y="-2.3076923"
       id="id-23881"
       filterUnits="objectBoundingBox">
      <feMorphology
         result="id-23828"
         in="SourceAlpha"
         operator="dilate"
         radius="3"
         id="feMorphology348" />
      <feOffset
         result="id-23829"
         in="SourceGraphic"
         dx="0"
         dy="2"
         id="feOffset350" />
      <feGaussianBlur
         result="id-23831"
         in="SourceGraphic"
         stdDeviation="25"
         id="feGaussianBlur352" />
      <feColorMatrix
         in="SourceGraphic"
         type="matrix"
         values="0 0 0 0 0 0 0 0 0 0.749 0 0 0 0 0 0 0 0 1 0"
         id="feColorMatrix354" />
    </filter>
    <path
       d="m 156,125 c -1,13 -2,20 -2,20 l -19,-26 c 14,4 21,6 21,6 z"
       id="id-23888" />
    <path
       d="m 156,125 c -1,13 -2,20 -2,20 l -19,-26 c 14,4 21,6 21,6 z"
       id="path358" />
  </defs>
  <g
     id="id-23890">
    <g
       transform="translate(0,284)"
       id="id-23891">
      <path
         d="m 302,242 -25,88 c -33,38 -62,67 -87,87 0,0 -1,15 -5,43 0,0 -3,11 -11,32 0,0 -30,39 -89,116 0,0 -9,16 -28,48 11,37 28,73 67,109 6,7 11,13 15,19 11,6 20,15 27,26 0,0 -12,-1 -36,-4 0,0 -8,-7 -26,-20 0,0 0,13 -2,40 0,0 3,6 9,18 0,0 7,2 19,6 0,0 2,-6 8,-16 0,0 3,-3 10,-7 0,0 1,17 -1,25 -9,17 -14,26 -14,26 -21,2 -31,3 -31,3 10,14 18,30 23,47 -3,12 -5,18 -5,18 -13,-25 -26,-46 -41,-65 -10,-3 -15,-5 -15,-5 8,13 16,26 21,40 1,15 1,23 1,23 C 49,907 30,891 30,891 35,865 43,867 41,831 33,818 29,811 29,811 15,714 8,665 8,665 21,611 35,552 47,510 c 10,-33 15,-50 15,-50 18,-40 26,-60 26,-60 19,-19 28,-29 28,-29 6,-18 9,-27 9,-27 14,2 21,3 21,3 34,-36 57,-70 73,-103 12,-42 7,-73 -1,-92 33,-24 50,-37 50,-37 -36,-20 -65,-42 -83,-62 139,25 209,38 209,38 11,-15 16,-23 16,-23 34,17 51,26 51,26 22,-18 28,-59 29,-92 L 644,1 c 5,37 10,61 14,71 6,16 25,27 25,27 35,-22 52,-33 52,-33 l 24,21 188,-31 -25,24 c -33,22 -50,33 -50,33 31,26 46,39 46,39 -12,28 -11,57 -3,87 8,17 12,25 12,25 36,32 49,83 84,77 6,19 9,29 9,29 16,17 25,25 25,25 22,44 37,90 50,136 14,54 27,107 37,160 -16,65 -24,97 -24,97 -2,15 -3,22 -3,22 -19,15 -13,46 0,80 -38,33 -57,49 -57,49 1,-19 9,-40 22,-63 -9,2 -14,4 -14,4 -18,27 -31,48 -41,66 -3,-6 -4,-12 -5,-18 6,-19 10,-28 10,-28 8,-14 12,-20 12,-20 -20,-2 -30,-2 -30,-2 -10,-18 -15,-28 -15,-28 0,-16 -1,-24 -1,-24 8,6 11,9 11,9 6,10 8,15 8,15 12,-4 18,-6 18,-6 7,-13 10,-19 10,-19 -2,-26 -3,-39 -3,-39 -16,13 -24,19 -24,19 -25,3 -37,5 -37,5 9,-12 14,-18 14,-18 9,-6 13,-8 13,-8 9,-13 14,-20 14,-20 34,-39 65,-77 65,-113 -17,-30 -26,-45 -26,-45 -59,-76 -88,-114 -88,-114 -7,-19 -11,-29 -11,-29 -3,-31 -5,-46 -5,-46 -30,-24 -56,-55 -83,-83 l -51,-91 z"
         fill="url(#id-23781)"
         id="id-23892"
         style="fill:url(#id-23781)" />
      <path
         d="M 122,919 C 97,887 81,869 75,864 61,800 54,768 54,768 38,696 48,632 61,569 c 15,-57 23,-86 23,-86 4,-4 6,-6 6,-6 -15,72 -22,109 -22,109 -20,51 -19,104 3,159 46,26 68,39 68,39 9,6 13,9 13,9 l -23,12 C 112,792 104,786 104,786 92,780 86,776 86,776 l -1,73 17,32 c 11,16 17,29 20,38 z"
         fill="#391b19"
         id="id-23893" />
      <path
         d="m 85,849 c -3,-8 -9,-33 -17,-75 l 18,12 c 0,42 -1,63 -1,63 z"
         fill="#828a81"
         id="id-23894" />
      <path
         d="m 86,934 c -8,-16 -12,-24 -12,-24 0,-5 2,-8 3,-11 l 8,17 c 1,12 1,18 1,18 z"
         fill="#828a81"
         id="id-23895" />
      <path
         d="m 19,791 c 35,-19 53,-28 53,-28 20,14 30,22 30,22 17,-14 25,-21 25,-21 C 83,692 61,656 61,656 78,625 87,610 87,610 70,583 54,556 37,530 21,597 13,631 13,631 c 0,25 -1,50 8,81 0,38 0,64 -2,79 z"
         fill="#2b3796"
         id="id-23896" />
      <path
         d="M 20,784 0,692 c 9,-40 13,-60 13,-60 2,29 1,61 10,79 -2,49 -3,73 -3,73 z"
         fill="#c58d9d"
         id="id-23897" />
      <path
         d="m 22,788 c 26,-27 39,-41 39,-41 28,24 42,36 42,36 10,-7 14,-11 14,-11 C 90,742 73,709 55,677 45,643 43,602 50,553 47,547 46,546 45,550 16,656 34,722 22,788 Z"
         fill="#2f54ff"
         id="id-23898" />
      <path
         d="m 32,694 c -2,-25 -1,-57 5,-97 5,24 4,32 9,54 -9,29 -14,43 -14,43 z"
         fill="#6ba2ff"
         id="id-23899" />
      <path
         d="m 55,558 c -6,0 -10,0 -10,0 l -4,-24 c 9,16 14,24 14,24 z"
         fill="#73adff"
         id="id-23900" />
      <path
         d="m 74,543 c 12,-1 18,-2 18,-2 L 81,504 c -4,26 -7,39 -7,39 z"
         fill="#2f4fef"
         id="id-23901" />
      <path
         d="m 60,463 c 0,-23 1,-34 1,-34 l 27,-11 c -19,30 -28,45 -28,45 z"
         fill="#3155fb"
         id="id-23902" />
      <path
         d="m 69,564 c 18,24 26,36 26,36 l 18,-24 C 84,568 69,564 69,564 Z"
         fill="#2b3796"
         id="id-23903" />
      <path
         d="m 69,564 c 30,8 44,12 44,12 -1,2 -2,4 -2,4 L 72,569 Z"
         fill="#2f51f5"
         id="id-23904" />
      <path
         d="m 101,443 c 13,-23 20,-35 20,-35 -2,-27 -4,-40 -4,-40 l -30,29 c -11,30 -27,56 -34,88 15,-9 31,-24 48,-42 z"
         fill="#763b0b"
         id="id-23905" />
      <path
         d="m 179,478 c -2,-36 -4,-54 -4,-54 -29,28 -43,42 -43,42 8,-39 12,-58 12,-58 l 54,2 -7,7 -6,43 c -4,12 -6,18 -6,18 z"
         fill="#1c0804"
         id="id-23906" />
      <path
         d="m 51,551 c 23,-56 40,-93 51,-109 l -47,44 -14,48 c 6,11 10,17 10,17 z"
         fill="#4f2d15"
         id="id-23907" />
      <path
         d="m 160,412 c 38,-46 57,-68 57,-68 -5,20 -7,30 -7,30 37,-45 55,-68 55,-68 10,15 15,23 15,23 l -84,84 c -24,-1 -36,-1 -36,-1 z"
         fill="#4d3235"
         id="id-23908" />
      <path
         d="m 145,403 c 5,-24 13,-47 23,-67 63,-54 95,-81 95,-81 4,-34 7,-51 7,-51 -42,41 -63,62 -63,62 -57,76 -50,63 -65,80 2,38 3,57 3,57 z"
         fill="#452827"
         id="id-23909" />
      <path
         d="m 124,343 c 11,14 16,21 16,21 7,-22 42,-55 56,-78 35,-38 52,-56 52,-56 -16,14 -32,29 -49,44 -43,46 -51,74 -75,69 z"
         fill="#813e07"
         id="id-23910" />
      <path
         d="M 248,102 C 211,73 193,58 193,58 l 61,21 c -4,16 -6,23 -6,23 z"
         fill="#3f2320"
         id="id-23911" />
      <path
         d="m 250,166 c -19,-9 -29,-13 -29,-13 l 29,-11 c 0,16 0,24 0,24 z"
         fill="#462928"
         id="id-23912" />
      <path
         d="M 55,527 C 48,508 45,499 45,499 l 18,-30 c -5,38 -8,58 -8,58 z"
         fill="#3053fb"
         id="id-23913" />
      <path
         d="m 248,163 c -12,-6 -18,-10 -18,-10 l 18,-3 c 0,9 0,13 0,13 z"
         fill="#9b7591"
         id="id-23914" />
      <path
         d="m 457,95 c 7,3 22,-14 43,-49 L 490,6 c -6,42 -17,72 -33,89 z"
         fill="#6d360b"
         id="id-23915" />
      <path
         d="M 683,100 C 677,93 673,87 668,82 662,74 649,53 646,10 l -10,37 c 11,18 23,46 47,53 z"
         fill="#6d360b"
         id="id-23916" />
      <polygon
         points="1077,837 1069,873 1105,810 "
         fill="#ffd8e0"
         id="id-23917" />
      <path
         d="m 1014,917 47,-55 20,-97 -33,-20 -52,39 -13,8 23,13 24,-19 h 5 l 13,-10 v 10 l 21,-12 c -5,15 -11,45 -18,75 l -31,51"
         fill="#351c1a"
         id="id-23918" />
      <path
         d="m 1048,934 c 9,-18 14,-27 14,-27 -3,-6 -4,-8 -4,-8 l -8,14 c -1,14 -2,21 -2,21 z"
         fill="#828a81"
         id="id-23919" />
      <path
         d="m 1114,789 c -34,-17 -51,-26 -51,-26 -20,14 -30,22 -30,22 -17,-15 -26,-22 -26,-22 32,-31 61,-64 67,-109 -18,-28 -26,-43 -26,-43 17,-30 33,-59 49,-80 17,68 25,102 25,102 -1,35 -4,62 -9,78 1,52 1,78 1,78 z"
         fill="#2b3796"
         id="id-23920" />
      <path
         d="m 1114,789 18,-95 c -7,-41 -10,-61 -10,-61 -1,35 -5,62 -10,78 1,52 2,78 2,78 z"
         fill="#cf8a9d"
         id="path391" />
      <path
         d="m 1112,786 c -14,-12 -39,-39 -39,-39 -28,24 -42,37 -42,37 -9,-8 -14,-12 -14,-12 32,-38 51,-69 64,-104 14,-43 1,-139 6,-119 30,96 9,102 25,237 z"
         fill="#2f54ff"
         id="id-23922" />
      <path
         d="m 1037,600 c 18,-24 26,-36 26,-36 l -44,11 c 12,17 18,25 18,25 z"
         fill="#2b3796"
         id="id-23923" />
      <path
         d="m 1063,564 c -29,7 -44,11 -44,11 3,4 4,6 4,6 l 36,-11 z"
         fill="#2d4de3"
         id="id-23924" />
      <path
         d="m 1103,695 c -1,-2 -1,-3 -1,-3 -9,-27 -13,-40 -13,-40 l 11,-56"
         fill="#699fff"
         id="id-23925" />
      <path
         d="m 1073,567 c -48,-76 -72,-115 -72,-115 0,-51 0,-77 0,-77 -9,-6 -14,-9 -14,-9 -5,32 -8,47 -8,47 -23,-77 -62,-70 -100,-123 -17,-19 -25,-40 -31,-60 l 47,-93 23,15 c -9,11 -11,31 -10,54 l 7,36 c 8,15 12,22 12,22 l 55,75 29,2 9,29 25,25 c 18,43 36,87 50,136 z"
         fill="url(#id-23782)"
         id="id-23926"
         style="fill:url(#id-23782)" />
      <path
         d="m 1096,532 c -3,3 -4,5 -4,5 -15,-51 -32,-86 -49,-105 -18,-22 -28,-43 -33,-53 -6,-7 -9,-11 -9,-11 l 44,27 c 28,58 45,104 51,137 z"
         fill="#ffd8e0"
         id="id-23927" />
      <path
         d="m 1039,532 c -48,-49 -72,-74 -72,-74 -1,-20 -1,-30 -1,-30 l 31,23 c 28,54 42,81 42,81 z"
         fill="#482e2d"
         id="id-23928" />
      <path
         d="m 1077,526 c -5,-38 -7,-57 -7,-57 9,15 13,22 13,22 l 4,14 c -7,14 -10,21 -10,21 z"
         fill="#3256fc"
         id="id-23929" />
      <path
         d="m 956,476 c 2,-35 3,-52 3,-52 26,18 39,27 39,27 -4,-29 -6,-43 -6,-43 l -53,3 6,6 5,47 c 4,8 6,12 6,12 z"
         fill="#1c0804"
         id="id-23930" />
      <path
         d="m 1074,464 c -16,-23 -24,-38 -25,-45 l 25,12 c 0,22 0,33 0,33 z"
         fill="#2f54ff"
         id="id-23931" />
      <path
         d="m 989,408 -5,-26 c 2,-11 3,-16 3,-16 l 7,5 c -3,25 -5,37 -5,37 z"
         fill="#452827"
         id="id-23932" />
      <path
         d="m 976,408 c -38,-45 -57,-68 -57,-68 5,21 8,31 8,31 l -60,-72 c -3,22 -4,34 -4,34 l 78,78 c 23,-2 35,-3 35,-3 z"
         fill="#4d3235"
         id="id-23933" />
      <path
         d="m 862,314 c 18,2 27,2 27,2 l -18,-19 c -6,12 -9,17 -9,17 z"
         fill="#140a01"
         id="id-23934" />
      <path
         d="m 873,327 c -12,5 -18,8 -18,8 l 3,-10 z"
         fill="#140a01"
         id="id-23935" />
      <path
         d="m 876,266 c -5,-24 -8,-35 -8,-35 4,-15 6,-22 6,-22 -7,-6 -10,-9 -10,-9 -5,10 -7,14 -7,14 5,6 8,9 8,9 l -14,18 c 17,17 25,25 25,25 z"
         fill="#391d1c"
         id="id-23936" />
      <path
         d="m 872,226 41,-77 c 3,2 5,3 5,3 -9,15 -10,35 -10,58 -15,4 -27,10 -36,16 z"
         fill="#452827"
         id="id-23937" />
      <path
         d="m 1014,351 c -20,-2 -30,-3 -30,-3 -36,-30 -67,-60 -97,-92 19,11 28,16 28,16 -4,-23 -5,-38 -4,-51 l 4,20 12,23 c 40,41 27,42 67,76 l 17,1 c 2,7 3,10 3,10 z"
         fill="#ffcee0"
         id="id-23938" />
      <path
         d="m 1078,558 c 7,0 10,0 10,0 l 6,-25 c -11,17 -16,25 -16,25 z"
         fill="#74acfc"
         id="id-23939" />
      <path
         d="m 1058,544 c -12,-1 -18,-2 -18,-2 l 12,-39 c 4,27 6,41 6,41 z"
         fill="#2e4fee"
         id="id-23940" />
    </g>
    <g
       transform="translate(209,290)"
       id="id-23941">
      <path
         d="M 312,1260 H 188 c 1,-27 3,-55 5,-84 -8,-61 -30,-128 -47,-232 0,-26 -1,-64 9,-121 -3,-16 -3,-27 -7,-50 22,-64 70,-115 41,-168 -4,-6 7,-22 9,-30 7,0 14,1 17,-3 3,-6 7,-16 13,-31 2,-14 3,-28 2,-41 -3,-8 -5,-16 -11,-30 0,-8 -1,-17 -1,-27 -27,-20 -42,-46 -43,-77 -3,10 -14,60 -34,121 -22,34 -22,41 -18,112 -11,36 -56,104 -79,186 4,23 19,51 34,71 0,20 40,47 44,50 1,22 5,57 7,65 -3,5 -17,-3 -22,-16 -3,-7 -6,-18 -11,-32 l -11,-5 -2,29 20,56 20,4 c 8,3 11,7 12,9 -12,2 -26,5 -39,8 -7,-4 -8,-7 -11,-14 -10,-14 -16,-27 -18,-27 0,7 9,41 19,66 7,3 16,7 26,11 13,12 20,19 22,22 -14,0 -36,-3 -54,-9 -3,-2 -3,-5 -7,-12 -8,-12 -19,-28 -22,-34 -1,5 -4,17 -8,38 13,27 17,51 11,71 -3,-1 -5,-1 -6,-3 -4,-20 -14,-41 -28,-56 2,-17 20,-89 3,-112 C 29,901 16,879 6,851 4,838 3,837 1,826 6,699 4,589 8,568 18,541 26,517 55,473 75,370 94,347 44,285 42,281 39,275 37,267 58,266 74,257 75,229 65,197 39,147 31,126 31,115 45,40 52,40 c 27,32 71,78 89,41 13,7 11,14 22,28 5,7 37,12 61,6 20,1 68,-18 72,-55 2,-9 3,-26 3,-51 l -8,-9 c 91,0 136,0 136,0 -3,4 -6,7 -8,9 -4,45 6,95 61,103 17,3 38,11 71,0 5,-6 18,-29 26,-32 13,37 55,-2 88,-38 5,3 20,60 21,84 -9,23 -24,51 -37,86 -4,5 -5,5 -8,8 3,16 10,33 40,34 -1,6 -3,10 -6,19 -19,21 -24,40 -28,67 2,27 28,114 33,127 11,17 28,46 42,92 6,51 -2,215 9,258 -10,50 -10,68 -1,120 -6,11 -7,46 -7,73 -8,10 -42,38 -48,44 -13,4 -18,6 -32,8 -1,-1 -2,-5 -2,-5 10,-12 16,-19 16,-19 16,-8 24,-12 24,-12 7,-39 11,-61 10,-68 0,-3 -7,16 -15,30 1,3 -4,14 -11,13 -9,-1 -37,-4 -38,-5 -1,-1 7,-7 11,-11 4,2 13,-2 19,-4 4,-19 8,-38 12,-57 -3,-8 -7,-29 -7,-29 -2,2 -6,4 -10,6 -1,13 -3,28 -7,39 -5,8 -15,16 -19,11 -2,-2 3,-30 -2,-64 11,-11 38,-34 37,-54 14,-27 17,-32 23,-64 -9,-43 -67,-158 -77,-187 0,-12 5,-65 -1,-83 -21,-30 -33,-72 -55,-143 -1,-9 -1,-20 -1,-34 -3,3 -5,4 -5,4 0,7 0,13 -1,17 0,51 -13,76 -45,100 0,11 -1,26 -1,26 -7,20 -11,31 -11,31 0,15 0,30 2,43 5,13 9,19 13,30 8,3 17,1 17,1 3,8 7,16 10,26 -27,66 6,83 40,174 -3,19 -3,24 -8,49 34,145 -17,211 -37,352 2,29 4,57 5,85 -82,0 -123,0 -123,0 1,-46 6,-86 13,-118 -15,-141 -35,-230 -39,-324 0,-11 2,-24 4,-30 -18,2 -33,2 -51,0 1,3 4,16 5,30 -9,129 -29,218 -40,320 7,32 12,72 14,122 z"
         fill="url(#id-23783)"
         id="id-23942"
         style="fill:url(#id-23783)" />
      <path
         d="m 166,219 c -2,48 4,90 17,125 12,35 29,71 51,108 l 91,-39 2,-29 -99,-198 z"
         fill="#3d2420"
         id="id-23943" />
      <path
         d="m 473,110 c 31,42 57,94 57,94 17,65 25,98 25,98 -22,21 -34,32 -34,33 v 0 c -1,0 -1,0 -1,0 -48,9 -72,13 -72,13 53,4 80,6 80,6 -6,14 -9,21 -9,21 -13,3 -24,5 -33,7 l -1,1 c -13,3 -22,5 -26,6 h -1 c -2,0 -3,1 -3,1 35,11 53,16 53,16 1,-1 2,-3 3,-5 l 1,-1 c 1,-1 1,-2 2,-3 v -1 c 4,-6 6,-10 7,-11 v 0 c 0,0 0,0 0,0 l -13,51 -9,7 c 0,13 0,19 0,20 v 0 0 c -30,-15 -50,-25 -61,-31 h -1 c -3,-2 -6,-3 -7,-4 h -1 c -1,-1 -1,-1 -1,-1 0,31 0,53 0,66 v 1 c 0,1 0,2 0,2 v 2 c 0,0 0,0 0,0 v 1 c 0,1 0,1 0,1 v 1 c 0,1 0,1 0,1 v 1 c 0,0 0,0 0,0 v 2 c 0,0 0,0 0,0 v 1 c 0,1 0,1 0,1 v 1 c 0,0 0,0 0,0 v 1 0 c -9,10 -14,15 -14,15 -12,91 -18,137 -18,137 14,-37 20,-56 20,-56 10,22 15,34 15,34 -19,49 -29,74 -29,74 -25,28 -37,41 -37,41 -14,-78 -21,-118 -22,-120 v 0 0 c -4,66 -7,98 -7,98 -6,-3 -10,-5 -11,-5 v 0 c 0,0 0,0 0,0 v 0 c 0,0 0,0 0,0 l -20,-71 -3,52 -20,-64 12,-52 14,36 -1,-121 -7,11 -6,-5 4,-66 31,-51 -27,15 -42,14 -18,-17 -13,-31 13,-5 h 43 l -78,-35 58,3 -89,-38 55,3 -45,-17 49,-3 c -46,-19 -69,-29 -69,-29 1,-7 2,-11 2,-11 49,-2 73,-2 73,-2 -45,-10 -67,-14 -67,-14 -18,-20 -27,-30 -27,-30 18,-23 32,-42 43,-58 34,0 93,-23 96,-25 v 0 c 0,0 0,0 0,0 15,1 30,2 45,2 12,22 28,45 51,0 24,-2 37,-3 49,-4 h 1 c 11,-1 22,-2 41,-4 z M 354,332 c 0,0 -12,8 -38,24 0,0 15,9 46,26 v 0 l 50,-24 c 0,0 -19,-9 -58,-26 z"
         fill="url(#id-23784)"
         id="id-23944"
         style="fill:url(#id-23784)" />
      <path
         d="m 343,316 -65,17 -42,-17 8,-23 h 20 l -16,-11 77,-7 -112,-16 56,-17 -62,-39 110,33 -39,-33 49,7 -1,-22 13,7 5,-10 c 6,10 12,17 16,21 3,-35 16,-65 39,-90 l 75,-4 49,83 13,25 -95,16 100,13 -11,12 25,8 -84,26 75,-4 -48,36 31,-2 -81,23 h -54 l -21,-32 -11,-38 -6,-9 z"
         fill="url(#id-23785)"
         id="id-23945"
         style="fill:url(#id-23785)" />
      <polygon
         points="633,180 682,138 655,99 625,156 "
         fill="#a17997"
         id="id-23946" />
      <polygon
         points="371,243 450,259 417,288 371,296 356,269 342,320 337,269 307,259 328,243 278,203 327,210 325,187 339,195 344,185 367,215 "
         fill="url(#id-23786)"
         id="id-23947"
         style="fill:url(#id-23786)" />
      <path
         d="m 56,45 c 2,12 8,36 17,73 l 22,48 c -4,7 -5,10 -5,10 C 79,146 74,130 74,130 59,123 51,119 51,119 c 7,-4 10,-6 10,-6 L 55,43 c 1,1 1,1 1,2 z"
         fill="#b38788"
         id="id-23948" />
      <path
         d="m 109,118 c -2,7 -6,16 -10,27 l -7,13 C 79,139 66,126 51,119 c 3,-1 6,-3 10,-6 L 56,45 c 4,38 21,62 53,73 z"
         fill="#e9bbc5"
         id="id-23949" />
      <path
         d="m 75,229 c 5,0 10,3 15,4 -17,-35 -26,-77 -46,-84 -1,-1 -1,0 0,6 13,27 23,52 31,74 z"
         fill="#893900"
         id="id-23950" />
      <polygon
         points="137,308 88,247 114,247 "
         fill="#6c2f01"
         id="id-23951" />
      <path
         d="m 52,295 c 3,0 5,0 8,2 18,30 50,46 50,68 0,7 -2,16 -6,27 C 95,370 85,353 74,340 71,327 65,313 52,295 Z"
         fill="url(#id-23787)"
         id="id-23952"
         style="fill:url(#id-23787)" />
      <path
         d="m 55,473 c 4,-4 13,-9 29,-15 l 20,-66 C 92,366 82,349 74,340 c 7,27 -8,82 -19,133 z"
         fill="#693e1f"
         id="id-23953" />
      <path
         d="m 87,462 c -2,6 -5,13 -12,22 -34,35 -53,63 -63,74 5,-16 14,-37 29,-63 22,-17 38,-28 46,-33 z"
         fill="#823d05"
         id="id-23954" />
      <path
         d="M 75,484 C 18,563 22,600 4,716 5,654 1,619 8,568 c 1,-3 2,-7 4,-10 32,-41 53,-65 63,-74 z"
         fill="#553117"
         id="id-23955" />
      <path
         d="m 93,497 c 7,13 16,34 29,65 1,16 1,28 1,37 C 93,672 65,708 44,785 36,759 4,656 93,497 Z"
         fill="url(#id-23788)"
         id="id-23956"
         style="fill:url(#id-23788)" />
      <polygon
         points="111,523 116,437 87,479 "
         fill="#513537"
         id="id-23957" />
      <path
         d="m 118,507 c 5,-3 10,-8 15,-15 16,-40 30,-87 43,-139 l -15,-45 -41,94 z"
         fill="#48261f"
         id="id-23958" />
      <polygon
         points="94,451 128,340 143,385 "
         fill="#48261f"
         id="id-23959" />
      <polygon
         points="120,499 123,423 166,358 140,468 "
         fill="#5e3f42"
         id="id-23960" />
      <polygon
         points="86,287 87,249 120,306 110,335 "
         fill="#452c25"
         id="id-23961" />
      <path
         d="m 84,302 -44,-27 -3,-8 c 17,0 29,-7 35,-20 2,7 6,26 12,55 z"
         fill="#4e3533"
         id="id-23962" />
      <path
         d="m 73,948 c 0,0 -2,2 -6,5 -5,11 -10,17 -13,20 6,24 16,57 20,66 -3,-10 -4,-32 -8,-56 1,-18 6,-27 7,-35 z"
         fill="#adbdb7"
         id="id-23963" />
      <path
         d="m 84,872 c -1,9 -1,15 -1,18 8,8 20,9 30,19 4,20 8,41 9,51 1,-5 -1,-39 0,-54 -14,-9 -27,-21 -38,-34 z"
         fill="#afc0b9"
         id="id-23964" />
      <polygon
         points="117,913 117,903 114,900 110,905 "
         fill="#dcf4f1"
         id="id-23965" />
      <path
         d="m 53,909 c -2,4 -3,6 -3,6 L 29,819 c 16,60 24,90 24,90 z"
         fill="#73756b"
         id="id-23966" />
      <path
         d="m 312,1260 c -27,0 -60,0 -100,0 v -71 c 38,31 57,47 57,47 2,-28 3,-41 3,-41 -38,-104 -64,-176 -80,-215 0,-89 53,-272 39,-332 34,15 58,66 69,155 l -17,218 15,117 c 9,46 14,86 14,122 z"
         fill="#2f2c1e"
         id="id-23967" />
      <path
         d="m 153,160 -48,-40 22,-12 24,22 c 1,20 2,30 2,30 z"
         fill="url(#id-23789)"
         id="id-23968"
         style="fill:url(#id-23789)" />
      <path
         d="m 238,1190 c 22,9 33,14 33,14 -1,24 -3,41 -4,52 -8,-18 -18,-40 -29,-66 z"
         fill="#313221"
         id="id-23969" />
      <path
         d="m 218,628 c -10,55 -13,103 -10,145 l -56,68 3,-18 c -2,-14 -4,-31 -7,-50 19,-61 73,-113 40,-173 7,3 25,13 30,28 z"
         fill="url(#id-23790)"
         id="id-23970"
         style="fill:url(#id-23790)" />
      <path
         d="m 252,659 c -26,-33 -47,-53 -64,-59 2,-6 6,-15 10,-25 l 43,32 z"
         fill="#3d251f"
         id="id-23971" />
      <polygon
         points="272,504 247,555 235,532 235,475 247,454 289,433 285,519 294,546 294,563 282,570 279,644 256,570 "
         fill="#402723"
         id="id-23972" />
      <polygon
         points="274,626 256,570 265,533 282,570 "
         fill="#4f370f"
         id="id-23973" />
      <polygon
         points="294,601 298,615 300,674 285,637 "
         fill="#4e360d"
         id="id-23974" />
      <path
         d="m 312,577 8,30 c 4,55 5,84 3,88 -3,-10 -8,-29 -16,-58 z"
         fill="#4c3512"
         id="id-23975" />
      <polygon
         points="166,174 190,141 285,140 183,187 "
         fill="url(#id-23791)"
         id="id-23976"
         style="fill:url(#id-23791)" />
      <polygon
         points="162,172 189,178 183,195 "
         fill="#472c2c"
         id="id-23977" />
      <path
         d="m 141,81 c -15,74 -71,21 -78,-5 -3,-9 -6,-20 -7,-31 43,48 71,60 85,36 z"
         fill="url(#id-23792)"
         id="id-23978"
         style="fill:url(#id-23792)" />
      <path
         d="m 109,118 c -2,7 -5,16 -10,27 L 92,158 73,118 60,68 c 9,26 25,43 49,50 z"
         fill="#a3839e"
         id="id-23979" />
      <polygon
         points="253,128 276,120 332,123 328,126 "
         fill="#aa85a2"
         id="id-23980" />
      <path
         d="m 267,154 c 27,-10 44,-15 51,-15 13,7 28,27 30,42 -5,-7 -32,-16 -81,-27 z"
         fill="#ae8aa9"
         id="id-23981" />
      <polygon
         points="381,157 417,140 391,136 "
         fill="#704f59"
         id="id-23982" />
      <path
         d="m 602,104 c 0,0 9,16 27,50 0,0 3,-5 11,-14 v 0 0 c 0,1 -4,11 -10,31 0,0 18,-12 53,-35 0,0 -11,24 -33,73 v 0 l 13,-47 c 0,0 -10,11 -31,34 0,0 -4,-14 -13,-41 0,0 -7,22 -20,67 0,0 6,-9 20,-27 0,0 4,3 11,10 0,0 0,43 3,59 5,2 12,12 20,28 v 0 l -34,28 57,140 c 21,33 36,66 46,99 2,28 -1,63 -6,105 0,0 -15,-45 -43,-135 0,0 1,46 3,139 0,0 -15,-31 -46,-93 v 0 l 2,-38 c 0,0 5,0 15,1 0,0 -28,-41 -47,-51 -13,-20 -24,-47 -32,-78 0,0 -1,-18 -3,-53 0,0 12,22 35,64 0,0 -13,-32 -41,-96 v 0 0 c 0,0 0,0 0,0 v 0 c 0,0 0,0 0,0 v -1 c 0,0 0,0 0,0 v 0 c 0,0 0,0 0,0 v -1 c 0,0 0,0 0,0 v 0 c 0,-3 0,-9 0,-18 0,0 -1,1 -4,3 0,0 -3,-14 -9,-42 v 0 0 c -1,-1 -7,-24 -20,-69 0,0 -19,-12 -57,-36 v 0 l 29,7 -31,-22 h 13 l -29,-19 115,-3 c 0,0 -2,6 -7,19 0,0 9,-5 28,-16 0,0 5,-8 15,-22 z m -25,203 34,89 7,-68 -8,22 z m 47,-50 c 0,0 -1,20 -3,59 0,0 8,-6 25,-19 0,0 0,0 -1,0 v 0 c 0,0 0,0 0,0 v 0 c 0,0 0,0 -1,0 v 0 c -2,-2 -8,-5 -17,-11 v 0 l 2,-17 c 0,0 0,0 0,-1 v 0 c -1,-1 -2,-5 -5,-11 z m -69,-94 -42,9 14,23 z"
         fill="url(#id-23793)"
         id="path454"
         style="fill:url(#id-23793)" />
      <polygon
         points="381,218 465,195 450,225 "
         fill="#be97c2"
         id="id-23984" />
      <polygon
         points="298,269 289,269 284,226 330,241 "
         fill="#ac8aaa"
         id="id-23985" />
      <polygon
         points="387,429 387,410 425,426 423,489 "
         fill="#62444e"
         id="id-23986" />
      <polygon
         points="419,508 419,483 405,459 381,471 "
         fill="#4f3238"
         id="id-23987" />
      <path
         d="m 183,1065 c -21,-36 -37,-121 -37,-121 0,-51 2,-85 6,-103 26,-34 48,-69 65,-105 -32,125 -43,235 -34,329 z"
         fill="#3a2e13"
         id="id-23988" />
      <polygon
         points="300,481 351,499 374,561 312,550 "
         fill="#4a3232"
         id="id-23989" />
      <polygon
         points="391,636 309,612 307,508 362,528 378,504 411,521 "
         fill="url(#id-23794)"
         id="id-23990"
         style="fill:url(#id-23794)" />
      <polygon
         points="409,692 403,649 416,605 421,644 "
         fill="#523a3b"
         id="id-23991" />
      <polygon
         points="459,519 472,545 478,481 430,441 432,523 419,555 432,580 435,648 466,570 "
         fill="#3d2823"
         id="id-23992" />
      <polygon
         points="438,627 436,566 443,545 462,580 "
         fill="#593e42"
         id="id-23993" />
      <polygon
         points="455,555 433,466 455,512 "
         fill="#573d41"
         id="id-23994" />
      <polygon
         points="478,483 441,452 467,525 "
         fill="#593d41"
         id="id-23995" />
      <polygon
         points="467,525 457,481 470,500 "
         fill="#a07e9a"
         id="id-23996" />
      <polygon
         points="510,610 475,603 469,607 445,649 464,645 "
         fill="#351f19"
         id="id-23997" />
      <path
         d="m 510,610 c 8,-7 15,-11 19,-10 -2,-7 -6,-16 -10,-26 l -44,29 z"
         fill="#593f43"
         id="id-23998" />
      <path
         d="m 502,587 c 3,2 9,6 17,10 l -33,33 c 11,-21 17,-35 16,-43 z"
         fill="#ad8bab"
         id="id-23999" />
      <path
         d="m 525,609 -61,71 11,-2 c 3,-7 6,-11 11,-11 5,1 13,4 21,7 z"
         fill="#3d2623"
         id="id-24000" />
      <path
         d="m 526,609 c -15,50 1,71 21,113 -7,-7 -18,-23 -34,-46 l -6,-2 c 10,-46 16,-68 19,-65 z"
         fill="#906c83"
         id="id-24001" />
      <path
         d="m 418,1260 h -12 c 0,-26 1,-45 3,-59 1,-13 5,-33 10,-59 l -6,-63 53,-207 -60,163 C 386,909 380,826 387,785 c 13,-54 45,-89 99,-105 l 75,143 c 12,52 14,103 6,154 -13,77 -33,131 -43,198 -1,10 0,20 2,30 -18,-26 -31,-46 -40,-60 6,-46 64,-133 64,-178 0,-41 -10,-90 -30,-144 4,52 8,93 10,123 -29,105 -67,209 -112,314 z"
         fill="url(#id-23795)"
         id="id-24002"
         style="fill:url(#id-23795)" />
      <path
         d="m 432,678 c 15,10 23,15 23,15 l -48,41 c 17,-37 25,-56 25,-56 z"
         fill="#382922"
         id="id-24003" />
      <path
         d="m 516,919 c -10,-97 -21,-171 -34,-224 8,11 24,38 24,38 -12,-36 -16,-53 -12,-50 20,15 45,49 73,101 0,12 -2,25 -6,39 21,75 6,154 6,154 -4,-88 -14,-145 -31,-170 -6,13 -20,112 -20,112 z"
         fill="url(#id-23796)"
         opacity="0.839"
         id="id-24004"
         style="fill:url(#id-23796)" />
      <path
         d="m 523,839 c -4,-54 -19,-108 -19,-108 4,5 9,10 15,18 24,37 39,81 45,130 -20,-76 -34,-90 -41,-40 z"
         fill="url(#id-23797)"
         id="id-24005"
         style="fill:url(#id-23797)" />
      <polygon
         points="457,1212 487,1216 489,1259 432,1260 "
         fill="#323021"
         id="id-24006" />
      <path
         d="m 511,1260 c 12,0 18,0 18,0 -1,-21 -2,-32 -2,-32 l -32,-49 z"
         fill="#4f473b"
         id="id-24007" />
      <path
         d="m 728,926 2,11 c -5,9 -7,33 -7,73 l -5,6 -7,-52 -8,66 -4,3 9,-80 z"
         fill="#c5b2a5"
         id="id-24008" />
      <path
         d="m 665,848 c 2,3 6,9 8,15 -11,0 -25,7 -45,20 18,-15 31,-27 37,-35 z"
         fill="#bca69a"
         id="id-24009" />
      <path
         d="m 700,917 c 7,-9 17,-20 17,-20 5,-40 8,-60 8,-60 -9,-105 -13,-157 -13,-157 -6,78 -9,118 -9,118 l -27,32 c 14,9 22,38 24,87 z"
         fill="url(#id-23798)"
         id="id-24010"
         style="fill:url(#id-23798)" />
      <path
         d="m 718,646 c -30,-89 -45,-134 -45,-134 -1,-26 -1,-39 -1,-39 l 18,11 30,67 c -2,64 -2,95 -2,95 z"
         fill="url(#id-23799)"
         id="id-24011"
         style="fill:url(#id-23799)" />
      <path
         d="m 672,473 48,78 c -5,-15 -10,-28 -15,-39 -6,-10 -10,-20 -15,-28 z"
         fill="#ffd8e0"
         id="id-24012" />
      <path
         d="m 648,543 12,21 16,104 c -31,-62 -46,-93 -46,-93 l 8,-32 c 7,0 10,0 10,0 z"
         fill="#6c4a4a"
         id="id-24013" />
      <path
         d="m 681,254 c 0,5 -2,11 -6,19 -17,20 -26,42 -28,67 l 14,164 -14,-34 -5,60 c -21,-90 -31,-134 -31,-134 5,-45 7,-68 7,-68 -5,15 -8,22 -8,22 l -34,-44 47,-23 c -1,9 -1,20 -2,33 0,0 8,-6 25,-19 0,0 -1,0 -1,0 v 0 c -2,-1 -8,-5 -18,-11 v 0 -5 z m -49,58 c -3,6 -1,22 8,49 -3,-11 -1,-22 5,-31 -4,-8 -8,-12 -11,-16 v 0 0 l -1,-1 v 0 0 c 0,-1 -1,-1 -1,-1 z"
         fill="url(#id-23800)"
         id="path486"
         style="fill:url(#id-23800)" />
      <path
         d="m 286,436 c -12,42 -17,62 -17,62 l -9,-46 c 17,-11 26,-16 26,-16 z"
         fill="#55383e"
         id="id-24015" />
      <path
         d="m 621,341 30,51 c -3,-24 -4,-41 -4,-52 4,31 14,70 30,118 4,9 6,14 6,14 -41,-87 -62,-131 -62,-131 z"
         fill="#ffcee0"
         id="id-24016" />
      <path
         d="m 384,403 c -5,-12 -9,-18 -14,-18 -7,2 -18,8 -34,17 32,0 48,1 48,1 z"
         fill="#230300"
         id="id-24017" />
      <path
         d="m 489,245 c 30,3 46,5 46,5 l -27,33 -27,8 22,-32 c -9,-9 -14,-14 -14,-14 z"
         fill="#b28db1"
         id="id-24018" />
      <path
         d="m 499,185 c 22,21 32,32 32,32 l -50,11 c 12,-29 18,-43 18,-43 z"
         fill="#bc97c1"
         id="id-24019" />
      <path
         d="m 474,309 51,-9 c -18,18 -27,27 -27,27 l -21,-4 c -2,-9 -3,-14 -3,-14 z"
         fill="#8c6a80"
         id="id-24020" />
      <path
         d="m 435,359 c 25,5 37,8 37,8 26,1 39,2 39,2 l -105,19 c 20,-19 29,-29 29,-29 z"
         fill="#70505d"
         id="id-24021" />
      <path
         d="m 411,401 c 17,-9 26,-13 26,-13 36,12 54,18 54,18 l -14,23 c -44,-18 -66,-28 -66,-28 z"
         fill="url(#id-23801)"
         id="id-24022"
         style="fill:url(#id-23801)" />
      <path
         d="m 347,418 c -18,-7 -27,-10 -27,-10 l 11,-24 c 11,23 16,34 16,34 z"
         fill="#63454d"
         id="id-24023" />
      <path
         d="m 360,427 13,46 -16,6 -19,-11 9,-57 10,-9 h 27 c -16,17 -24,25 -24,25 z"
         fill="#2e160c"
         opacity="0.705"
         id="id-24024" />
      <path
         d="m 320,377 c -34,16 -51,24 -51,24 -25,-16 -37,-24 -37,-24 l 50,9 c 25,-6 38,-9 38,-9 z"
         fill="#3c2321"
         id="id-24025" />
      <path
         d="m 419,46 c -9,3 -13,9 -22,14 -9,41 -7,58 -7,58 30,-2 53,-3 68,-4 4,0 9,-2 15,-4 -30,-6 -48,-28 -54,-64 z"
         fill="#7f5f71"
         id="id-24026" />
      <path
         d="m 418,21 c -6,40 -6,54 -2,72 4,0 10,-2 20,-5 C 425,74 419,52 418,21 Z"
         fill="#ffdbe5"
         id="id-24027" />
      <path
         d="M 330,105 C 312,99 296,93 283,88 295,76 301,50 299,9 294,3 291,0 291,0 h 8 l 13,12 c 12,62 18,93 18,93 z"
         fill="url(#id-23802)"
         id="id-24028"
         style="fill:url(#id-23802)" />
      <path
         d="m 163,250 c -13,36 -19,54 -19,54 -16,-31 -27,-65 -35,-103 -3,-23 -3,-41 -3,-57 5,-8 15,-2 29,16 19,60 28,90 28,90 z"
         fill="#523939"
         id="id-24029" />
      <path
         d="m 116,151 c -3,16 -5,24 -5,24 l 41,48 -15,-54 c -14,-12 -21,-18 -21,-18 z"
         fill="#8a6a7d"
         id="id-24030" />
      <path
         d="m 113,193 c 9,6 13,9 13,9 6,29 9,43 9,43 l -18,-26 c -3,-17 -4,-26 -4,-26 z"
         fill="#886877"
         id="id-24031" />
      <path
         d="m 157,145 32,-10 -54,-19 c 15,20 22,29 22,29 z"
         fill="#745458"
         id="id-24032" />
      <path
         d="m 668,44 c 9,26 15,53 18,82 -2,7 -2,7 -4,12 -10,-10 -17,-18 -20,-24 l -12,2 -21,38 -4,-7 29,-51 z"
         fill="#ffcfe4"
         id="id-24033" />
      <path
         d="m 664,113 -23,5 c 9,-15 13,-22 13,-22 l 12,-52 c -2,46 -2,69 -2,69 z"
         fill="#ffffff"
         id="id-24034" />
      <path
         d="m 614,88 c -24,22 -36,20 -37,-8 5,16 18,18 37,8 z"
         fill="#ffe5ef"
         id="id-24035" />
      <path
         d="m 572,84 c -2,13 -3,19 -3,19 l -11,1 c 9,-13 14,-20 14,-20 z"
         stroke="#979797"
         id="id-24036" />
      <path
         d="m 598,217 c -3,-19 -7,-30 -13,-32 -4,6 -11,16 -21,30 l 27,-77 28,35 c -14,29 -21,44 -21,44 z"
         fill="#a9829e"
         id="id-24037" />
      <path
         d="m 606,156 c -1,-1 -3,-4 -6,-7 l -7,13 -9,-5 9,-26 7,-1 c 6,14 8,22 6,26 z"
         fill="#be9ac4"
         id="id-24038" />
      <path
         d="m 616,241 c -3,-5 -18,-3 -18,-3 14,-28 21,-43 21,-43 2,19 4,35 5,46 -2,0 -3,-2 -4,-5 -1,2 -2,3 -4,5 z"
         fill="#a57e9a"
         id="id-24039" />
      <path
         d="m 648,238 c -7,10 -12,22 -18,34 12,6 29,0 51,-18 -16,-1 -27,-7 -33,-16 z"
         fill="url(#id-23803)"
         id="id-24040"
         style="fill:url(#id-23803)" />
      <path
         d="m 625,147 c -15,-29 -23,-43 -23,-43 -10,15 -14,23 -14,23 -3,0 -4,0 -4,0 -17,12 -26,17 -26,17 4,-11 6,-17 6,-17 h -26 c 23,-32 36,-47 39,-47 0,9 2,41 36,9 17,-12 34,-28 53,-49 1,3 2,4 2,4 l -14,52 z"
         fill="url(#id-23804)"
         id="id-24041"
         style="fill:url(#id-23804)" />
      <path
         d="m 393,82 c -2,14 -3,26 -3,36 -25,36 -46,36 -64,0 4,-4 11,-10 20,-18 20,-6 35,-12 47,-18 z m -57,28 c -1,3 -3,6 -4,10 10,13 18,21 27,23 5,-4 12,-14 20,-28 0,0 -30,12 -43,-5 z"
         fill="url(#id-23805)"
         id="path515"
         style="fill:url(#id-23805)" />
      <path
         d="m 726,768 c 1,0 2,0 2,0 3,16 5,29 6,39 -3,27 -11,51 -11,72 0,2 -1,-27 8,-62 -2,-6 -5,-27 -5,-49 z"
         fill="#e2beb9"
         id="id-24043" />
      <path
         d="m 588,103 c -10,6 -11,4 -14,4 -2,-3 -1,-12 1,-26 l 2,-1 c 2,13 5,21 11,23 z"
         fill="#ffffff"
         id="id-24044" />
      <polygon
         points="729,668 723,567 725,755 "
         fill="#e2beb9"
         id="id-24045" />
      <path
         d="m 421,126 118,1 11,-16 c -9,5 -21,7 -36,6 -10,0 -20,-3 -28,-4 -3,-1 -8,-2 -14,-3 z"
         fill="#ffd0e4"
         id="id-24046" />
      <path
         d="m 571,88 c -4,3 -8,8 -13,16 l 13,-2 c -1,-5 -1,-10 0,-14 z"
         fill="url(#id-23806)"
         id="id-24047"
         style="fill:url(#id-23806)" />
    </g>
    <path
       d="m 627,311 2,13 c 0,0 1,1 4,2 3,4 0,35 23,59 7,2 17,7 31,14 4,1 10,-1 14,3 0,0 42,-14 125,-42 v 0 l 57,-23 15,79 -13,29 7,1 c -18,22 -32,62 -41,131 0,0 9,-1 26,-2 -7,11 -12,23 -15,36 0,0 1,14 2,43 0,0 12,38 34,116 0,0 0,0 0,-1 v 0 c 0,0 0,-1 -1,-2 v 0 c -3,-6 -10,-20 -21,-42 0,0 -14,-12 -42,-37 0,0 0,0 0,0 v 0 c 0,3 -1,30 -1,81 0,0 -13,-25 -38,-75 0,0 -2,20 -5,62 0,0 -9,-29 -27,-87 0,0 -4,0 -11,-1 0,0 -2,10 -5,29 -12,17 -25,45 -46,109 0,0 0,0 0,0 v 0 c 0,1 4,19 11,53 0,0 -15,19 -45,57 0,0 3,8 10,25 0,0 6,3 18,8 0,0 9,-7 26,-22 0,0 0,0 0,1 v 0 c 1,4 3,12 5,25 0,0 17,33 52,99 0,0 1,34 3,102 v 0 0 c 0,0 -1,13 -3,38 0,-10 -2,-19 -4,-24 0,0 -11,27 -34,81 -2,18 -2,36 0,54 6,6 15,7 27,3 0,1 -1,2 -1,3 v 1 0 1 c -3,16 -7,32 -16,57 -12,-57 -27,-79 -42,-90 -24,6 -46,25 -68,53 -5,16 -12,31 -19,46 2,-17 8,-32 17,-46 0,0 8,-21 24,-63 v 0 0 c 0,0 0,-9 0,-27 0,0 -4,-2 -11,-6 -14,5 -28,21 -40,56 0,0 -6,-44 -17,-131 0,0 -2,-23 -5,-70 0,0 -2,-2 -6,-7 v 0 0 c 0,0 0,0 0,0 v 0 c -1,0 -14,0 -39,0 v 0 0 c 0,0 0,0 0,0 v 1 c 0,0 0,0 0,0 v 1 c 0,0 0,1 0,1 v 0 c 0,0 0,1 0,1 v 0 c 0,0 0,0 0,1 v 1 c 0,0 0,0 0,0 v 1 c 0,0 0,0 0,1 v 1 c 0,8 0,24 0,46 0,0 0,4 -1,12 0,0 -10,32 -32,95 -4,7 -7,19 -8,33 l -1,1 c 0,0 -2,-16 -6,-49 v -1 c 0,0 -5,4 -16,10 -9,84 34,179 35,218 -39,-145 -50,-160 -60,-174 l -1,-1 c -3,-3 -5,-7 -9,-13 -49,46 -56,76 -60,106 v 2 0 1 c 0,0 0,0 0,0 v 0 c -1,-1 -2,-7 -5,-18 v -1 c -3,-10 -7,-24 -12,-42 20,-19 44,-36 61,-57 -5,0 -9,7 -14,13 v 1 c 0,0 -1,1 -1,1 2,-20 3,-41 -35,-85 0,0 0,0 0,0 v 0 c -1,-2 -7,-9 -17,-22 -5,18 -8,40 -11,68 v 0 0 c 0,0 0,0 0,0 v -1 c 0,0 0,0 0,0 v 0 c 0,0 0,0 0,0 v -1 c 0,0 0,0 0,0 v -1 c 0,-7 0,-29 0,-66 v 0 0 c 0,-2 4,-42 11,-121 0,0 14,-32 42,-97 0,0 1,-5 2,-14 0,0 3,-1 9,-2 0,0 7,17 23,50 0,0 9,-23 28,-70 -18,-21 -34,-40 -42,-55 17,-28 22,-51 18,-76 0,0 -3,-3 -9,-11 0,0 -1,-8 -3,-25 -3,-3 -6,-6 -9,-9 l -2,-2 c -8,-10 -16,-19 -27,-28 0,0 -2,-13 -6,-40 -11,30 -21,71 -32,126 -9,-36 -7,-73 -7,-109 0,0 -2,16 -6,48 0,0 -1,-13 -5,-39 -14,15 -23,47 -30,86 0,0 -3,-27 -9,-81 0,0 0,0 0,0 v 0 c -1,1 -10,12 -27,31 0,0 2,-39 7,-119 0,0 -5,-7 -14,-21 20,-8 28,-28 28,-54 0,0 -13,-33 -38,-98 0,0 4,-12 11,-34 v 0 l 3,-45 150,29 -3,7 13,2 c 24,-2 43,-5 56,-9 0,0 5,-8 13,-24 0,0 3,-12 9,-34 0,0 2,0 4,0 v 0 l 14,19 c 0,0 15,2 43,7 0,0 13,-2 37,-6 0,0 0,0 0,0 v 0 c 0,0 7,-7 21,-20 v 0 z m 62,507 c -31,62 -71,94 -121,96 -42,12 -70,-1 -104,-74 -1,-2 -3,-4 -5,-5 12,68 30,107 54,117 v 0 h 115 c 25,-20 45,-65 61,-134 z M 656,664 c 0,0 -6,9 -16,28 0,0 -2,15 -6,46 -2,2 -3,-5 -3,-21 v -1 c 0,-8 0,-17 1,-29 -15,11 -26,25 -32,41 0,0 4,-47 1,-47 -13,17 -25,46 -33,74 -16,-10 -17,-61 -51,-57 -10,1 -15,23 -14,64 -7,-19 -13,-30 -18,-33 v 0 0 c -1,0 -4,9 -10,26 0,0 -6,2 -19,7 20,135 91,150 115,124 56,41 112,-65 115,-90 -1,-6 -1,-11 -2,-17 0,0 -6,11 -17,33 0,0 -3,-13 -10,-38 0,0 7,-9 19,-26 0,-37 -7,-65 -20,-84 z m 52,78 c -9,17 -14,25 -14,26 v 0 0 c 2,13 3,20 3,20 l 11,-28 c 0,-12 0,-18 0,-18 z M 462,620 c 1,12 1,17 1,17 l -19,-3 c 6,38 10,61 12,70 10,17 18,24 23,18 14,-14 8,-94 -17,-102 z m 263,40 c -18,28 -28,41 -28,41 0,9 -1,13 -1,13 4,5 7,6 10,6 v 0 c 1,0 1,0 1,0 h 1 v 0 l 10,-10 c 9,-17 8,-29 8,-41 v -1 c 0,-1 0,-2 -1,-3 v -1 c 0,-1 0,-2 0,-4 z M 504,620 c 0,0 -1,4 -2,13 0,0 -2,-1 -6,-2 0,0 -2,8 -6,22 4,25 9,41 16,49 5,-6 8,-11 9,-16 2,-6 2,-16 2,-32 -6,-11 -10,-22 -13,-34 z m 128,2 c 0,0 -8,13 -22,38 0,0 0,9 1,27 4,1 10,-2 18,-11 4,-12 6,-23 5,-32 v 0 l -5,3 c 0,0 1,-8 3,-25 z m 32,-4 -28,24 c 3,20 4,31 4,31 13,-19 20,-29 20,-29 2,-17 4,-26 4,-26 z m 52,-15 c 0,0 -5,2 -14,5 0,0 -13,11 -39,34 0,0 2,10 6,28 v 0 0 c 1,-1 11,-12 32,-34 v 0 z"
       fill="#140a01"
       id="id-24048" />
    <g
       transform="translate(158,318)"
       id="id-24049">
      <path
         d="m 412,566 c -39,41 -59,62 -59,62 30,98 46,147 46,147 13,1 20,1 20,1 l 57,-137 c -42,-49 -64,-73 -64,-73 z"
         fill="url(#id-23807)"
         id="path524"
         style="fill:url(#id-23807)" />
      <path
         d="m 444,534 c -6,20 -10,30 -10,30 l 24,22 c -9,-35 -14,-52 -14,-52 z"
         fill="#b538ef"
         id="path526" />
      <path
         d="m 379,539 c -7,35 -11,53 -11,53 l 24,-24 c -9,-19 -13,-29 -13,-29 z"
         fill="#b538ef"
         id="path528" />
      <path
         d="m 480,596 c 9,-11 13,-17 13,-17 l 11,26 c -16,-6 -24,-9 -24,-9 z"
         fill="#9c32c3"
         id="path530" />
      <path
         d="m 521,604 c -2,-23 -3,-34 -3,-34 23,-21 35,-31 35,-31 l -6,42 c -17,15 -26,23 -26,23 z"
         fill="#66295d"
         id="path532" />
      <path
         d="m 537,620 c 5,-2 8,-3 8,-3 28,-26 42,-39 42,-39 l -12,51 c -25,-6 -38,-9 -38,-9 z"
         fill="#6f315e"
         id="path534" />
      <path
         d="m 541,502 c -7,28 -10,41 -10,41 l 22,-16 c -8,-17 -12,-25 -12,-25 z"
         fill="#62275a"
         id="path536" />
      <path
         d="m 522,444 c -4,42 -6,64 -6,64 -12,-33 -17,-49 -17,-49 l 10,-16 c 8,1 13,1 13,1 z"
         fill="#e52ef1"
         id="path538" />
      <path
         d="m 508,486 h 10 l -2,22 c -5,-15 -8,-22 -8,-22 z"
         fill="#5e2152"
         id="path540" />
      <path
         d="m 505,479 h 13 v 7 h -10 c -2,-5 -3,-7 -3,-7 z"
         fill="#a72aa7"
         id="path542" />
      <path
         d="m 501,466 19,-4 -2,17 h -13 c -3,-9 -4,-13 -4,-13 z"
         fill="#a529a6"
         id="path544" />
      <path
         d="m 466,609 c 30,56 45,84 45,84 6,-1 9,-1 9,-1 74,30 111,45 111,45 L 578,635 C 503,618 466,609 466,609 Z"
         fill="url(#id-23808)"
         id="path546"
         style="fill:url(#id-23808)" />
      <path
         d="m 481,665 c -36,76 -55,114 -55,114 4,36 6,54 6,54 44,-47 66,-71 66,-71 l 13,-59 c -20,-26 -30,-38 -30,-38 z"
         fill="url(#id-23809)"
         id="path548"
         style="fill:url(#id-23809)" />
      <path
         d="m 433,841 c 41,-40 61,-60 61,-60 L 449,991 C 438,891 433,841 433,841 Z"
         fill="#fe2ffb"
         id="path550" />
      <path
         d="m 514,928 c 10,31 15,46 15,46 l 18,-24 c -22,-14 -33,-22 -33,-22 z"
         fill="#ce2ec6"
         id="path552" />
      <path
         d="m 589,871 c 7,47 11,70 11,70 l 19,-50 c -20,-13 -30,-20 -30,-20 z"
         fill="#8b2983"
         id="path554" />
      <path
         d="m 494,825 c 51,42 76,63 76,63 -15,-57 -23,-86 -23,-86 l -41,-31 c -8,36 -12,54 -12,54 z"
         fill="url(#id-23810)"
         id="path556"
         style="fill:url(#id-23810)" />
      <path
         d="m 517,702 c -5,35 -8,52 -8,52 53,28 80,42 80,42 -27,-52 -41,-78 -41,-78 l 1,-5 c -21,-7 -32,-11 -32,-11 z"
         fill="url(#id-23811)"
         id="path558"
         style="fill:url(#id-23811)" />
      <path
         d="m 562,721 c 58,107 87,161 87,161 -15,-85 -22,-128 -22,-128 v -6 c -43,-18 -65,-27 -65,-27 z"
         fill="#7d4c5f"
         id="path560" />
      <path
         d="m 327,774 c 41,40 62,60 62,60 l -23,166 C 340,849 327,774 327,774 Z"
         fill="#fe2ffb"
         id="id-24069" />
      <path
         d="m 321,793 c -9,-28 -13,-41 -13,-41 -24,21 -36,32 -36,32 l 5,97 c 29,-59 44,-88 44,-88 z"
         fill="#e22edb"
         id="path563" />
      <path
         d="m 299,932 c 10,10 15,15 15,15 -9,28 -13,41 -13,41 l -10,-21 c 5,-23 8,-35 8,-35 z"
         fill="#ce2ec6"
         id="path565" />
      <path
         d="m 230,852 c -9,19 -13,29 -13,29 9,31 13,47 13,47 l 16,-45 c -11,-20 -16,-31 -16,-31 z"
         fill="#be2db7"
         id="path567" />
      <path
         d="m 231,996 c 8,15 12,23 12,23 -4,53 -7,80 -7,80 l -16,-56 c 7,-31 11,-47 11,-47 z"
         fill="#ce2ec6"
         id="path569" />
      <path
         d="m 171,868 c -12,14 -23,28 -23,28 -18,-13 -27,-19 -27,-19 -29,26 -44,38 -44,38 -2,-55 -4,-83 -4,-83 -17,-58 -25,-86 -25,-86 2,-70 3,-105 3,-105 44,46 65,69 65,69 l -16,49 c 17,51 41,88 71,109 z"
         fill="#2b3796"
         id="id-24074" />
      <path
         d="m 75,664 c -6,1 -10,2 -10,2 L 54,643 c 14,14 21,21 21,21 z"
         fill="#73adff"
         id="id-24075" />
      <path
         d="m 64,655 c -3,21 0,51 3,101 13,74 13,101 13,153 6,-7 30,-47 30,-47 26,21 39,32 39,32 4,-5 8,-10 12,-15 C 128,841 104,797 86,752 70,711 75,677 64,655 Z"
         fill="#2f54ff"
         id="id-24076" />
      <path
         d="m 79,807 c 4,-33 6,-50 6,-50 L 63,706 c 11,67 16,101 16,101 z"
         fill="#6ba2ff"
         id="id-24077" />
      <path
         d="m 71,931 6,-16 -4,-83 C 56,774 48,746 48,746 c 1,40 1,61 1,61 l 24,62 z"
         fill="#c58d9d"
         id="path575" />
      <path
         d="m 89,667 c 23,21 34,32 34,32 l 13,-29 c -31,-2 -47,-3 -47,-3 z"
         fill="#2b3796"
         id="path577" />
      <path
         d="m 89,667 c 31,2 47,3 47,3 -1,2 -2,4 -2,4 l -40,-3 z"
         fill="#2f51f3"
         id="id-24080" />
      <path
         d="m 89,606 c 1,27 1,41 1,41 l 17,-6 C 95,618 89,606 89,606 Z"
         fill="#2e4eec"
         id="path580" />
      <path
         d="m 64,576 c -8,23 -12,34 -12,34 l 16,23 c -2,-38 -4,-57 -4,-57 z"
         fill="#2e4eec"
         id="path582" />
      <path
         d="M 74,523 C 64,557 59,573 59,573 L 52,539 C 67,528 74,523 74,523 Z"
         fill="#2e4eec"
         id="path584" />
      <path
         d="m 342,650 c -18,35 -27,53 -27,53 6,34 9,52 9,52 44,45 66,67 66,67 l 5,-36 C 360,695 342,650 342,650 Z"
         fill="#f331fb"
         id="path586" />
      <path
         d="m 309,694 c 1,29 1,44 1,44 -46,30 -69,45 -69,45 l 31,-69 c 25,-14 37,-20 37,-20 z"
         fill="#be2db4"
         id="path588" />
      <path
         d="m 259,718 c -49,97 -74,146 -74,146 l 7,-119 c 45,-18 67,-27 67,-27 z"
         fill="#957b6e"
         id="path590" />
      <path
         d="m 196,732 c 83,-34 124,-52 124,-52 22,-54 34,-81 34,-81 l -111,29 c -31,69 -47,104 -47,104 z"
         fill="url(#id-23812)"
         id="path592"
         style="fill:url(#id-23812)" />
      <path
         d="m 230,563 c 8,38 12,57 12,57 l 44,-9 c -37,-32 -56,-48 -56,-48 z"
         fill="#904978"
         id="path594" />
      <path
         d="m 284,543 c -9,22 -13,33 -13,33 9,20 13,30 13,30 l 13,-33 c -9,-20 -13,-30 -13,-30 z"
         fill="#9d5485"
         id="id-24089" />
      <path
         d="m 311,568 c -12,22 -18,33 -18,33 l 39,-9 c -14,-16 -21,-24 -21,-24 z"
         fill="#bb37b0"
         id="path597" />
      <path
         d="m 276,477 c 2,34 3,51 3,51 l 16,-37 c -12,-10 -19,-14 -19,-14 z"
         fill="#5d2253"
         id="path599" />
      <path
         d="m 302,410 c -6,9 -9,14 -9,14 16,37 24,56 24,56 l -2,-63 c -9,-5 -13,-7 -13,-7 z"
         fill="#ec2ff9"
         id="path601" />
      <path
         d="m 340,360 c -9,18 -13,28 -13,28 13,10 19,16 19,16 l 8,-24 c -9,-13 -14,-20 -14,-20 z"
         fill="#ec2ff9"
         id="path603" />
      <path
         d="m 410,412 c -23,47 -35,70 -35,70 24,52 36,78 36,78 l 41,-78 c -28,-46 -42,-70 -42,-70 z"
         fill="url(#id-23813)"
         id="path605"
         style="fill:url(#id-23813)" />
      <path
         d="m 476,363 c -13,12 -20,18 -20,18 11,28 16,41 16,41 l 6,-23 c -2,-24 -2,-36 -2,-36 z"
         fill="#f43eff"
         id="path607" />
      <path
         d="m 543,316 c -21,20 -31,31 -31,31 8,38 12,56 12,56 l 34,-69 c -10,-12 -15,-18 -15,-18 z"
         fill="#c12cc7"
         id="path609" />
      <path
         d="m 590,337 c -7,4 -27,19 -27,19 2,30 5,48 6,54 5,-24 29,-47 21,-73 z"
         fill="#835a63"
         id="path611" />
      <path
         d="m 301,364 c -28,-28 -42,-41 -42,-41 7,-12 10,-18 10,-18 l 26,21 c 4,25 6,38 6,38 z"
         fill="#c42cca"
         id="path613" />
      <path
         d="m 248,371 c -3,20 -5,30 -5,30 18,17 27,25 27,25 l 1,-34 c -16,-14 -23,-21 -23,-21 z"
         fill="#992899"
         id="path615" />
      <path
         d="m 231,323 c 1,28 1,42 1,42 l 21,-26 c -14,-11 -22,-16 -22,-16 z"
         fill="#a229a2"
         id="path617" />
      <path
         d="m 162,328 c -13,30 -19,45 -19,45 19,29 29,43 29,43 l 5,-54 c -10,-23 -15,-34 -15,-34 z"
         fill="url(#id-23814)"
         id="path619"
         style="fill:url(#id-23814)" />
      <path
         d="m 169,323 c 22,66 33,100 33,100 11,-47 17,-70 17,-70 l -19,-83 c -20,35 -31,53 -31,53 z"
         fill="#3a0b37"
         id="path621" />
      <path
         d="m 195,384 18,-42 -13,-72 -31,53 c 17,41 26,61 26,61 z"
         fill="#6c3859"
         id="path623" />
      <path
         d="m 102,424 c 27,-42 40,-64 40,-64 2,-23 3,-35 3,-35 -3,-21 -5,-32 -5,-32 -21,-2 -31,-3 -31,-3 20,20 30,30 30,30 l -24,12 c -9,61 -13,92 -13,92 z"
         fill="#c0899c"
         id="path625" />
      <path
         d="m 98,281 c 20,-15 30,-22 30,-22 4,-9 6,-14 6,-14 l 5,36 c -27,0 -41,0 -41,0 z"
         fill="#ac7c96"
         id="path627" />
      <path
         d="m 152,331 c 30,-55 45,-82 45,-82 -7,-33 -11,-50 -11,-50 -33,15 -50,23 -50,23 5,16 8,24 8,24 5,-4 8,-6 8,-6 4,27 6,41 6,41 l -10,-24 c 3,49 4,74 4,74 z"
         fill="#622c54"
         id="path629" />
      <path
         d="m 113,194 c 11,14 17,21 17,21 34,-18 51,-26 51,-26 l -18,-63 c -33,45 -50,68 -50,68 z"
         fill="#5e2651"
         id="path631" />
      <path
         d="m 103,179 c 21,-25 31,-38 31,-38 -17,-26 -25,-38 -25,-38 l -19,16 c 8,40 13,60 13,60 z"
         fill="#5e2651"
         id="id-24108" />
      <path
         d="m 122,107 c 2,-4 3,-6 3,-6 23,1 34,2 34,2 l -20,26 c -12,-15 -17,-22 -17,-22 z"
         fill="#59214f"
         id="path634" />
      <path
         d="m 176,119 c 22,86 33,129 33,129 12,-38 19,-57 19,-57 -19,-26 -29,-38 -29,-38 l 29,22 c -35,-38 -52,-56 -52,-56 z"
         fill="#59214f"
         id="id-24110" />
      <path
         d="m 226,234 c -8,19 -12,28 -12,28 15,35 23,52 23,52 14,-17 20,-25 20,-25 -9,-11 -13,-16 -13,-16 59,21 89,32 89,32 -31,-45 -47,-68 -47,-68 -24,-11 -37,-16 -37,-16 16,1 24,2 24,2 -21,-30 -32,-45 -32,-45 -8,33 -12,49 -12,49 l 30,19 c -22,-8 -33,-12 -33,-12 z"
         fill="url(#id-23815)"
         id="id-24111"
         style="fill:url(#id-23815)" />
      <path
         d="m 324,65 c 10,10 15,14 15,14 V 43 c -10,15 -15,22 -15,22 z"
         fill="#eb75fc"
         id="id-24112" />
      <path
         d="m 347,79 c 13,4 20,6 20,6 l 6,-27 c -17,14 -26,21 -26,21 z"
         fill="#eb75fc"
         id="id-24113" />
      <path
         d="m 408,58 c -8,15 -12,23 -12,23 10,11 14,17 14,17 L 422,84 C 413,67 408,58 408,58 Z"
         fill="#eb75fc"
         id="id-24114" />
      <path
         d="m 447,58 c -1,17 -1,25 -1,25 l 22,-6 C 454,64 447,58 447,58 Z"
         fill="#eb75fc"
         id="id-24115" />
      <path
         d="m 483,42 c -4,21 -5,32 -5,32 L 501,61 C 489,49 483,42 483,42 Z"
         fill="#eb75fc"
         id="id-24116" />
      <path
         d="m 478,80 c 18,-10 26,-15 26,-15 25,15 38,22 38,22 l -34,5 C 488,84 478,80 478,80 Z"
         fill="#ea72ff"
         id="id-24117" />
      <path
         d="m 580,175 c -24,32 -36,48 -36,48 14,-5 21,-8 21,-8 -27,19 -40,29 -40,29 -24,40 -37,60 -37,60 59,-21 88,-32 88,-32 -11,12 -17,19 -17,19 12,17 18,26 18,26 24,-37 36,-55 36,-55 -3,-1 -4,-1 -4,-1 -10,-23 -15,-35 -15,-35 -24,11 -36,16 -36,16 l 33,-30 c -8,-25 -11,-37 -11,-37 z"
         fill="url(#id-23816)"
         id="id-24118"
         style="fill:url(#id-23816)" />
      <path
         d="m 587,171 c 7,27 11,40 11,40 12,-11 17,-17 17,-17 -9,16 -14,23 -14,23 8,24 11,35 11,35 24,-98 36,-148 36,-148 l -39,50 c -14,11 -22,17 -22,17 z"
         fill="#6c2c63"
         id="id-24119" />
      <path
         d="m 622,250 c 31,52 46,79 46,79 5,-67 8,-101 8,-101 -22,-18 -32,-27 -32,-27 -9,30 -14,44 -14,44 l 6,-52 c -9,38 -14,57 -14,57 z"
         fill="#693559"
         id="id-24120" />
      <path
         d="m 614,270 c -8,53 -12,80 -12,80 13,46 20,69 20,69 l 26,-100 c -23,-32 -34,-49 -34,-49 z"
         fill="#340732"
         id="id-24121" />
      <path
         d="m 608,306 c 13,47 19,71 19,71 l 19,-60 -32,-47 c -4,24 -6,36 -6,36 z"
         fill="#5e2b51"
         id="id-24122" />
      <path
         d="m 620,349 16,1 -9,27 c -5,-18 -7,-28 -7,-28 z"
         fill="#7a505f"
         id="id-24123" />
      <path
         d="m 641,363 c 16,36 23,54 23,54 14,-34 21,-51 21,-51 l -32,-36 c -8,22 -12,33 -12,33 z"
         fill="#6b365b"
         id="id-24124" />
      <path
         d="m 680,318 c -1,12 -2,18 -2,18 36,42 54,63 54,63 l -22,-69 c -20,-8 -30,-12 -30,-12 z"
         fill="#7b4d5e"
         id="id-24125" />
      <path
         d="m 681,290 c -3,17 -4,25 -4,25 l 37,-22 c -22,-2 -33,-3 -33,-3 z"
         fill="#6e3b5a"
         id="id-24126" />
      <path
         d="m 732,282 c -36,-4 -53,-6 -53,-6 l 5,-38 c 32,29 48,44 48,44 z"
         fill="#7f5460"
         id="id-24127" />
      <path
         d="m 684,238 c -1,5 -1,7 -1,7 l 41,37 h 8 c -32,-29 -48,-44 -48,-44 z"
         fill="#e2dbf1"
         id="id-24128" />
      <path
         d="m 676,228 c -1,5 -1,7 -1,7 l -31,-32 v -2 c 21,18 32,27 32,27 z"
         fill="#c7c3df"
         id="id-24129" />
      <path
         d="m 685,220 c -28,-22 -42,-32 -42,-32 -3,0 -4,0 -4,0 10,-47 15,-70 15,-70 8,13 12,19 12,19 -2,26 -2,39 -2,39 8,-15 13,-22 13,-22 l 30,35 c -15,20 -22,31 -22,31 z"
         fill="#59214f"
         id="id-24130" />
      <path
         d="m 679,145 c 25,21 37,31 37,31 9,-33 14,-50 14,-50 l -18,-19 c -22,25 -33,38 -33,38 z"
         fill="url(#id-23817)"
         id="id-24131"
         style="fill:url(#id-23817)" />
      <path
         d="m 679,145 33,-38 c 12,13 18,19 18,19 -1,2 -1,3 -1,3 -11,-12 -16,-17 -16,-17 l -32,35 z"
         fill="#e5e1f7"
         id="id-24132" />
      <path
         d="m 693,100 -19,36 -17,-34 c 24,-1 36,-2 36,-2 z"
         fill="#59214f"
         id="id-24133" />
      <path
         d="m 658,105 34,-3 1,-2 -36,2 c 0,2 1,3 1,3 z"
         fill="#c8c4e1"
         id="id-24134" />
      <path
         d="m 773,518 c 3,25 5,38 5,38 l -16,7 c 7,-30 11,-45 11,-45 z"
         fill="#705681"
         id="id-24135" />
      <path
         d="m 746,528 c -1,44 -2,66 -2,66 l -9,-45 c 7,-14 11,-21 11,-21 z"
         fill="#2f54ff"
         id="id-24136" />
      <path
         d="m 719,567 c -1,30 -1,45 -1,45 l 11,8 c -7,-36 -10,-53 -10,-53 z"
         fill="#2f54ff"
         id="id-24137" />
      <path
         d="m 775,574 c 2,34 3,51 3,51 l -28,4 c 17,-37 25,-55 25,-55 z"
         fill="#2f54ff"
         id="id-24138" />
      <path
         d="m 754,650 c -29,27 -44,40 -44,40 l -12,-35 c 37,-3 56,-5 56,-5 z"
         fill="#2b3798"
         id="id-24139" />
      <path
         d="m 780,634 c -42,44 -63,66 -63,66 9,30 14,46 14,46 -14,34 -21,52 -21,52 -2,14 -3,21 -3,21 -21,23 -31,35 -31,35 18,15 27,23 27,23 13,-8 19,-12 19,-12 36,27 54,41 54,41 l -5,-178 c 6,-33 9,-64 9,-94 z"
         fill="#2b3796"
         id="id-24140" />
      <path
         d="m 700,874 c -12,-10 -18,-14 -18,-14 19,-23 29,-35 29,-35 18,-38 28,-56 28,-56 4,18 6,27 6,27 11,-89 17,-133 17,-133 7,-14 11,-21 11,-21 -10,105 -15,158 -15,158 9,68 14,102 14,102 -12,-9 -18,-13 -18,-13 l -17,-46 c -25,20 -37,31 -37,31 z"
         fill="#2f54ff"
         id="id-24141" />
      <path
         d="m 752,663 c 10,1 15,2 15,2 l 6,-24 c -14,14 -21,22 -21,22 z"
         fill="#d8d8d8"
         id="id-24142" />
      <path
         d="m 773,641 c -4,17 -6,25 -6,25 l -15,-3 c 14,-15 21,-22 21,-22 z"
         fill="#679cfc"
         id="id-24143" />
      <path
         d="m 782,910 c -4,-3 -6,-4 -6,-4 -4,-118 -6,-177 -6,-177 8,-53 11,-79 11,-79 5,84 7,126 7,126 l -10,62 c 3,48 4,72 4,72 z"
         fill="#c58d9d"
         id="id-24144" />
      <path
         d="m 135,245 c 4,24 5,36 5,36 -27,1 -41,1 -41,1 l 30,-23 c 4,-9 6,-14 6,-14 z"
         fill="#b6a783"
         id="id-24145" />
      <path
         d="m 142,293 c -22,-2 -33,-3 -33,-3 20,19 30,29 30,29 -16,9 -24,13 -24,13 -8,62 -12,93 -12,93 27,-43 41,-65 41,-65 l 2,-36 c -3,-20 -4,-31 -4,-31 z"
         fill="#beaf87"
         id="id-24146" />
      <path
         d="m 589,1006 c -5,24 -8,36 -8,36 9,37 14,56 14,56 l 9,-65 c -10,-18 -15,-27 -15,-27 z"
         fill="#ce2ec6"
         id="id-24147" />
      <path
         d="m 407,404 c 43,-70 64,-106 64,-106 -42,-46 -64,-69 -64,-69 -15,13 -23,19 -23,19 -1,25 -1,38 -1,38 -4,-19 -7,-28 -7,-28 l -39,36 c 47,73 70,110 70,110 z"
         fill="url(#id-23818)"
         id="id-24148"
         style="fill:url(#id-23818)" />
      <path
         d="m 333,286 c 50,-46 75,-70 75,-70 26,29 38,43 38,43 7,-15 11,-23 11,-23 -10,-33 -15,-50 -15,-50 10,-25 16,-37 16,-37 26,4 39,6 39,6 -27,-16 -41,-25 -41,-25 -26,-20 -39,-31 -39,-31 -5,51 -8,76 -8,76 -2,-51 -4,-77 -4,-77 -26,20 -38,31 -38,31 -31,17 -46,26 -46,26 22,2 32,2 32,2 l 13,46 c -22,55 -33,83 -33,83 z"
         fill="url(#id-23819)"
         id="id-24149"
         style="fill:url(#id-23819)" />
      <path
         d="m 360,207 c -24,38 -36,58 -36,58 -31,-48 -46,-72 -46,-72 l 36,31 c 31,-12 46,-17 46,-17 z"
         fill="#e83efe"
         id="id-24150" />
      <path
         d="m 352,196 c -25,7 -37,11 -37,11 -5,-26 -7,-38 -7,-38 h 38 c 4,18 6,27 6,27 z"
         fill="#e83efe"
         id="id-24151" />
      <path
         d="m 473,289 c -12,-15 -19,-22 -19,-22 l 5,-23 c 10,30 14,45 14,45 z"
         fill="#e059fc"
         id="id-24152" />
      <path
         d="m 456,208 c 21,45 31,68 31,68 43,-54 65,-81 65,-81 l -55,39 c -27,-17 -41,-26 -41,-26 z"
         fill="#e83efe"
         id="id-24153" />
      <path
         d="m 490,209 c -25,-13 -37,-19 -37,-19 8,-17 12,-26 12,-26 l 47,4 c -15,27 -22,41 -22,41 z"
         fill="#e83efe"
         id="id-24154" />
      <path
         d="m 533,168 c 24,-10 36,-16 36,-16 -17,16 -25,24 -25,24 8,5 13,8 13,8 58,-57 88,-85 88,-85 C 586,83 557,75 557,75 523,87 506,94 506,94 479,87 465,84 465,84 l -40,10 c 72,49 108,74 108,74 z"
         fill="url(#id-23820)"
         id="id-24155"
         style="fill:url(#id-23820)" />
      <path
         d="m 265,183 c 7,-5 10,-8 10,-8 -15,-15 -23,-22 -23,-22 24,10 36,15 36,15 C 360,119 396,95 396,95 368,88 354,84 354,84 327,90 314,94 314,94 281,81 264,75 264,75 l -89,23 c 60,57 90,85 90,85 z"
         fill="#ee3fff"
         id="id-24156" />
      <path
         d="m 309,89 c -13,-8 -19,-13 -19,-13 18,-5 27,-8 27,-8 l 20,14 c -18,5 -28,7 -28,7 z"
         fill="#e974fb"
         id="id-24157" />
      <path
         d="M 260,68 C 196,84 164,92 164,92 131,61 115,46 115,46 38,23 0,11 0,11 L 108,0 c 102,45 152,68 152,68 z"
         fill="#ee3fff"
         id="id-24158" />
      <path
         d="M 116,46 C 118,36 115,21 108,0 L 0,11 Z"
         fill="#ea75ff"
         id="path685" />
      <path
         d="m 115,21 c -1,-1 -1,-1 -1,-1 -3,-5 -6,-11 -12,-19 4,-1 6,-1 6,-1 l 16,7"
         fill="#ffbbff"
         id="path687" />
      <path
         d="M 562,68 C 662,23 712,0 712,0 785,7 822,11 822,11 744,34 705,45 705,45 L 656,92 C 593,76 562,68 562,68 Z"
         fill="#ee3fff"
         id="id-24161" />
      <path
         d="m 711,0 c 5,1 8,1 8,1 -6,6 -10,13 -12,21 -2,-5 -5,-11 -10,-15 9,-5 14,-7 14,-7 z"
         fill="#ffbbff"
         id="id-24162" />
      <path
         d="m 711,0 c -4,16 -10,31 -6,46 L 822,11 Z"
         fill="#ea75ff"
         id="id-24163" />
      <g
         transform="translate(29,70)"
         id="id-24164">
        <path
           d="M 731,48 C 716,38 709,33 709,33 725,22 748,7 764,0 742,32 731,48 731,48 Z"
           fill="#ee3fff"
           id="id-24165" />
        <path
           d="M 708,33 700,21 764,0 c -37,22 -56,33 -56,33 z"
           fill="#c598ff"
           id="id-24166" />
        <path
           d="M 37,52 C 59,42 69,38 69,38 68,37 70,33 77,27 40,16 14,7 1,1 25,35 37,52 37,52 Z"
           fill="#ee3fff"
           id="id-24167" />
        <path
           d="M 69,38 78,25 1,1 c 43,21 66,34 68,37 z"
           fill="#c598ff"
           id="id-24168" />
      </g>
    </g>
    <g
       transform="translate(334)"
       id="id-24169">
      <path
         d="m 156,298 c 2,-32 -1,-48 -8,-49 -55,9 -62,41 -107,44 -22,-1 -58,-22 -31,-57 -15,34 22,58 63,29 31,-19 58,-35 70,-42 -10,-21 -15,-31 -15,-31 -9,-10 -16,-21 -19,-34 -26,-14 -39,-20 -39,-20 5,-6 7,-9 7,-9 -11,-13 -17,-19 -17,-19 -4,-9 -7,-17 -9,-26 11,1 25,4 46,10 8,-20 13,-29 13,-29 10,-10 16,-14 16,-14 10,-1 15,-1 15,-1 134,0 200,1 200,1 13,10 19,15 19,15 4,18 7,27 7,27 30,-6 46,-9 46,-9 -45,69 -68,104 -68,104 -5,16 -9,28 -12,38 19,10 48,29 73,44 23,17 69,7 54,-34 14,10 22,51 -35,57 -30,-3 -45,-28 -99,-44 -10,32 -15,49 -15,49 l -75,40 z"
         fill="url(#id-23821)"
         id="path698"
         style="fill:url(#id-23821)" />
      <polygon
         points="224,342 242,342 269,327 269,308 235,330 201,308 201,327 "
         fill="#2b0e08"
         id="id-24171" />
      <path
         d="m 235,330 37,-23 v -7 c 6,-1 14,-6 20,-11 -4,-58 64,-98 65,-126 26,-18 39,-27 39,-27 -17,-27 -25,-40 -25,-40 -4,-6 -4,-12 1,-17 -20,-18 -30,-26 -30,-26 -137,0 -205,0 -205,0 -6,0 -10,-1 -10,-1 -19,17 -28,25 -28,25 3,6 3,12 0,20 -19,28 -28,42 -28,42 12,5 20,9 40,22 10,45 71,59 67,130 13,6 20,9 20,9 l 1,7 z"
         fill="url(#id-23822)"
         id="id-24172"
         style="fill:url(#id-23822)" />
      <path
         d="m 272,300 c 15,-63 43,-110 85,-137"
         stroke="#979797"
         id="id-24173" />
      <path
         d="m 116,85 -13,23 c 36,51 83,110 96,174 26,18 39,27 39,27 l 36,-27 C 279,224 335,148 362,100 352,76 343,60 335,54 307,33 275,14 236,0 200,11 166,29 136,54 121,73 116,86 116,85 Z"
         fill="url(#id-23823)"
         id="id-24174"
         style="fill:url(#id-23823)" />
      <path
         d="m 398,137 c -4,-5 -5,-8 -5,-8 l 18,-43 c -85,70 -132,141 -139,214 2,0 3,-1 5,-1 3,-39 26,-109 121,-162 z"
         fill="#9d7998"
         id="id-24175" />
      <path
         d="m 411,86 c 5,-1 7,-2 7,-2 -3,17 -12,32 -26,47 -7,-7 -5,-17 -2,-27 14,-12 21,-18 21,-18 z"
         fill="#c09cc7"
         id="id-24176" />
      <path
         d="m 274,285 -2,22 -37,23 -36,-23 C 191,246 164,196 111,161 84,146 71,139 71,139 c 5,-6 7,-10 7,-10 -9,-27 -13,-41 -13,-41 60,62 118,120 134,197 24,25 49,24 75,0 z"
         fill="#5a3b41"
         id="id-24177" />
      <path
         d="m 71,139 6,4 C 89,132 85,114 65,88 57,86 53,85 53,85 c 4,16 7,23 7,23 l 17,22 c -4,6 -6,9 -6,9 z"
         fill="#9f4801"
         id="id-24178" />
      <path
         d="m 187,245 c 5,25 8,38 8,38 15,14 24,18 35,20 -16,-8 -20,-14 -30,-23 -8,-23 -13,-35 -13,-35 z"
         fill="#5a1f7d"
         id="id-24179" />
      <path
         d="m 248,301 c 10,-3 19,-8 26,-14 19,-99 55,-116 92,-179 -3,-6 -4,-8 -4,-8 -45,66 -80,122 -90,180 -9,9 -17,16 -24,21 z"
         fill="#20114f"
         id="id-24180" />
      <path
         d="m 116,85 -13,23 c 36,51 83,110 96,174 26,18 39,27 39,27 l 36,-27 C 279,224 335,148 362,100 352,76 343,60 335,54 307,33 275,14 236,0 200,11 166,29 136,54 121,73 116,86 116,85 Z"
         fill="url(#id-23824)"
         id="id-24181"
         style="fill:url(#id-23824)" />
      <ellipse
         transform="rotate(17,284,173)"
         cx="284"
         cy="173"
         fill="url(#id-23825)"
         opacity="0.58"
         id="id-24182"
         rx="28"
         ry="109"
         style="fill:url(#id-23825)" />
      <path
         d="M 131,135 C 119,114 113,104 113,104 153,54 197,21 245,4 257,8 270,14 282,20 218,35 167,73 131,135 Z"
         fill="#4c2890"
         fill-opacity="0.659"
         id="id-24183" />
      <path
         d="m 233,16 c -1,14 -1,21 -1,21 -30,3 -55,10 -76,20 l -3,-2 c 21,-19 48,-31 80,-39 z"
         fill="url(#id-23826)"
         id="id-24184"
         style="fill:url(#id-23826)" />
      <path
         d="m 301,88 c 16,-5 24,-8 24,-8 C 315,66 306,56 300,50 l -24,-2 c 12,14 21,28 25,40 z"
         fill="#d2cdec"
         id="id-24185" />
      <g
         id="id-24186">
        <use
           fill="#000000"
           fill-opacity="1"
           xlink:href="#id-23834"
           filter="url(#id-23827)"
           id="use715"
           x="0"
           y="0"
           width="100%"
           height="100%" />
        <use
           fill="#74f83f"
           xlink:href="#id-23834"
           fill-rule="evenodd"
           id="use717"
           x="0"
           y="0"
           width="100%"
           height="100%" />
      </g>
      <g
         id="id-24190">
        <use
           fill="#000000"
           fill-opacity="1"
           xlink:href="#id-23843"
           filter="url(#id-23836)"
           id="use720"
           x="0"
           y="0"
           width="100%"
           height="100%" />
        <use
           fill="#74f83f"
           xlink:href="#id-23843"
           fill-rule="evenodd"
           id="use722"
           x="0"
           y="0"
           width="100%"
           height="100%" />
      </g>
      <g
         id="g729">
        <use
           fill="#000000"
           fill-opacity="1"
           xlink:href="#id-23852"
           filter="url(#id-23845)"
           id="use725"
           x="0"
           y="0"
           width="100%"
           height="100%" />
        <use
           fill="#74f83f"
           xlink:href="#id-23852"
           fill-rule="evenodd"
           id="use727"
           x="0"
           y="0"
           width="100%"
           height="100%" />
      </g>
      <g
         id="id-24198">
        <use
           fill="#000000"
           fill-opacity="1"
           xlink:href="#id-23861"
           filter="url(#id-23854)"
           id="use731"
           x="0"
           y="0"
           width="100%"
           height="100%" />
        <use
           fill="#74f83f"
           xlink:href="#id-23861"
           fill-rule="evenodd"
           id="use733"
           x="0"
           y="0"
           width="100%"
           height="100%" />
      </g>
      <g
         id="id-24202">
        <use
           fill="#000000"
           fill-opacity="1"
           xlink:href="#id-23870"
           filter="url(#id-23863)"
           id="use736"
           x="0"
           y="0"
           width="100%"
           height="100%" />
        <use
           fill="#74f83f"
           xlink:href="#id-23870"
           fill-rule="evenodd"
           id="use738"
           x="0"
           y="0"
           width="100%"
           height="100%" />
      </g>
      <g
         id="id-24206">
        <use
           fill="#000000"
           fill-opacity="1"
           xlink:href="#id-23879"
           filter="url(#id-23872)"
           id="use741"
           x="0"
           y="0"
           width="100%"
           height="100%" />
        <use
           fill="#74f83f"
           xlink:href="#id-23879"
           fill-rule="evenodd"
           id="use743"
           x="0"
           y="0"
           width="100%"
           height="100%" />
      </g>
      <g
         id="id-24210">
        <use
           fill="#000000"
           fill-opacity="1"
           xlink:href="#id-23888"
           filter="url(#id-23881)"
           id="use746"
           x="0"
           y="0"
           width="100%"
           height="100%" />
        <use
           fill="#74f83f"
           xlink:href="#id-23888"
           fill-rule="evenodd"
           id="use748"
           x="0"
           y="0"
           width="100%"
           height="100%" />
      </g>
      <path
         d="m 351,86 c -4,2 -7,3 -7,3 l -17,-25 3,-2 c 14,16 21,24 21,24 z"
         fill="#523134"
         id="id-24214" />
      <polygon
         points="341,52 330,62 351,86 372,79 "
         fill="#230700"
         id="id-24215" />
      <path
         d="m 366,73 c -12,7 -18,10 -18,10 L 330,62 342,51 c 17,14 25,21 24,22 z"
         fill="#977390"
         id="id-24216" />
      <path
         d="M 144,65 125,90 99,77 127,52 c 11,9 17,13 17,13 z"
         fill="#250902"
         id="id-24217" />
      <path
         d="M 125,82 141,63 C 132,56 127,52 127,52 l -23,21 c 7,2 14,5 21,9 z"
         fill="#4c2c2d"
         id="id-24218" />
    </g>
  </g>
</svg>
