<?xml version="1.0" encoding="UTF-8" standalone="no"?>
<svg
   width="223.78461"
   height="213.125"
   viewBox="0 0 223.78461 213.125"
   version="1.1"
   id="svg14"
   sodipodi:docname="cb-layer-1137.svg"
   xmlns:inkscape="http://www.inkscape.org/namespaces/inkscape"
   xmlns:sodipodi="http://sodipodi.sourceforge.net/DTD/sodipodi-0.dtd"
   xmlns="http://www.w3.org/2000/svg"
   xmlns:svg="http://www.w3.org/2000/svg">
  <sodipodi:namedview
     id="namedview16"
     pagecolor="#ffffff"
     bordercolor="#666666"
     borderopacity="1.0"
     inkscape:pageshadow="2"
     inkscape:pageopacity="0.0"
     inkscape:pagecheckerboard="0" />
  <defs
     id="defs7">
    <linearGradient
       x1="177.76562"
       y1="143.29345"
       x2="13.399603"
       y2="54.78867"
       id="id-98079"
       gradientTransform="scale(1.0477348,0.95444)"
       gradientUnits="userSpaceOnUse">
      <stop
         stop-color="#ECA701"
         offset="0%"
         id="stop2" />
      <stop
         stop-color="#C37101"
         offset="100%"
         id="stop4" />
    </linearGradient>
  </defs>
  <g
     id="id-98080">
    <path
       d="m 183,9 c 3,0 4,3 3,7 8,1 4,12 -1,12 4,5 4,10 -2,14 4,6 3,10 -3,12 4,6 3,10 -2,14 4,6 3,10 -3,13 4,6 3,10 -3,12 4,6 3,11 -3,14 4,6 3,10 -4,12 4,7 3,11 -4,13 0,0 1,1 1,3 0,0 0,0 0,0 h 1 c 0,0 2,-1 6,-2 -2,-5 0,-9 5,-10 -1,-7 1,-10 7,-11 -2,-5 0,-8 6,-9 -3,-6 -1,-10 5,-12 -2,-5 0,-9 5,-10 -2,-6 0,-10 5,-11 -2,-6 -1,-9 5,-11 -3,-6 -1,-10 4,-12 -2,-2 -2,-5 0,-9 -1,1 -3,1 -5,0 -1,-4 0,-5 4,-5 3,-2 4,-1 5,1 7,-1 9,2 7,7 2,5 0,8 -4,10 2,5 1,9 -5,10 3,6 1,10 -4,12 2,5 0,9 -6,11 3,5 1,9 -4,10 2,7 0,10 -6,11 2,7 0,10 -6,11 3,6 1,10 -6,11 2,6 0,9 -7,9 2,7 0,11 -7,11 1,6 -2,9 -8,9 1,5 -1,9 -7,9 0,3 -2,5 -5,5 2,7 0,11 -6,12 2,7 0,11 -7,12 1,9 -2,13 -11,11 -2,8 -6,9 -14,5 -5,5 -10,4 -14,-3 -8,3 -12,0 -12,-7 -8,1 -11,-2 -11,-10 -7,2 -10,-2 -9,-10 -6,-1 -9,-5 -6,-12 -7,-1 -8,-5 -6,-12 -6,-1 -8,-4 -6,-11 -5,-1 -7,-4 -7,-10 -5,-1 -7,-4 -6,-10 -5,0 -6,-3 -5,-9 -4,0 -6,-3 -5,-8 -4,-1 -6,-4 -4,-9 C 14,98 13,95 15,90 11,88 10,85 12,81 8,80 7,77 9,72 5,70 4,67 7,63 3,62 3,59 5,55 1,53 1,50 3,47 1,46 0,45 0,43 c 0,-5 3,-7 8,-5 0,0 2,0 6,-1 v 0 0 c 0,0 1,0 4,0 0,0 -1,1 -4,3 0,0 -1,1 -4,2 0,1 0,2 -2,3 4,2 5,5 2,9 4,1 5,4 2,8 4,2 5,5 3,9 3,1 4,4 3,8 3,2 4,5 2,9 4,2 5,4 4,8 4,2 5,5 4,9 2,0 4,2 4,5 1,0 1,0 1,-1 -3,-4 -4,-8 -2,-11 -4,-3 -5,-7 -2,-12 -4,-2 -5,-6 -2,-11 -4,-3 -4,-7 0,-11 0,0 -1,0 -1,0 v -1 c -1,0 -2,-1 -2,-2 -1,-1 0,-3 1,-7 -3,-3 -3,-6 0,-9 -3,-3 -3,-5 0,-8 -2,-2 -2,-5 0,-7 -3,-4 -1,-7 3,-8 2,-6 8,-3 7,0 0,2 -1,3 -4,2 1,2 1,4 -1,5 3,2 3,4 1,7 3,3 4,6 0,9 4,3 4,6 1,9 4,3 4,7 1,10 5,3 5,7 1,10 5,3 5,6 3,10 4,4 4,7 1,12 6,2 6,6 3,12 5,2 6,5 4,11 5,2 6,6 3,12 4,0 6,3 6,8 3,1 4,3 4,6 5,1 8,3 7,8 6,-1 9,1 9,6 6,-1 9,0 10,6 5,-2 8,-1 10,4 4,-3 7,-2 10,2 3,-3 7,-3 12,0 2,-4 5,-5 10,-2 1,-5 5,-7 10,-4 1,-7 4,-10 9,-10 -4,-6 -3,-10 5,-12 -3,-6 -2,-10 4,-12 -3,-6 -2,-10 4,-13 -3,-5 -2,-10 3,-13 -3,-6 -2,-10 4,-13 -4,-5 -3,-10 2,-13 -4,-6 -3,-10 3,-13 -4,-5 -3,-10 3,-13 -4,-6 -3,-10 2,-13 -4,-5 -3,-10 3,-13 -3,-1 -4,-3 -2,-8 -1,-6 1,-9 7,-10 z M 71,163 c -2,1 -4,2 -7,1 v 0 h 1 c 4,2 6,6 5,10 v 0 c 6,1 8,5 8,11 7,-2 10,5 9,8 7,-3 10,3 11,6 5,-4 9,-1 11,2 3,-5 8,-5 10,-4 0,-6 5,-8 8,-8 -3,-7 6,-11 7,-11 -4,0 -6,-1 -6,-4 -2,5 -8,8 -13,3 -1,5 -9,5 -12,-1 -6,6 -11,2 -12,-2 -5,4 -11,0 -11,-5 -4,3 -10,0 -9,-6 z"
       fill="#551a18"
       fill-opacity="0.2"
       id="id-98081" />
    <path
       d="m 184,0 c 3,0 4,3 3,6 9,2 5,13 -1,13 5,5 4,9 -2,13 4,6 3,10 -2,13 4,5 3,10 -3,13 4,6 3,10 -2,12 3,7 2,11 -3,13 3,6 2,10 -3,13 3,7 2,11 -4,13 4,6 2,10 -4,12 0,0 0,1 1,3 0,0 2,-1 6,-2 -2,-5 0,-9 6,-10 -2,-6 1,-10 6,-10 -1,-6 0,-9 6,-10 -2,-5 0,-9 5,-11 -2,-5 0,-9 5,-10 -2,-6 0,-9 6,-11 -3,-5 -2,-9 4,-11 -3,-5 -1,-9 4,-11 -2,-3 -2,-6 0,-9 -1,1 -3,0 -5,-1 -1,-3 0,-5 4,-4 3,-2 4,-2 5,1 7,-1 9,1 7,7 2,4 0,7 -4,9 2,5 1,9 -5,10 3,6 1,10 -4,12 2,5 0,9 -6,11 3,5 2,9 -4,10 2,6 0,10 -6,11 2,6 1,10 -5,10 2,6 0,10 -7,11 2,6 0,9 -6,10 1,6 -1,10 -7,10 1,6 -2,9 -9,8 1,6 -1,9 -6,10 0,3 -2,4 -6,5 3,7 1,11 -5,12 2,7 0,11 -7,12 1,8 -2,12 -11,10 -2,8 -6,9 -14,5 -5,5 -10,4 -14,-3 -7,3 -11,0 -12,-7 -7,2 -10,-1 -10,-9 -7,1 -10,-2 -9,-11 -7,0 -9,-4 -7,-11 -6,-2 -8,-6 -5,-12 -6,-1 -8,-4 -6,-11 -5,-1 -7,-4 -7,-10 -5,-1 -7,-4 -6,-9 -4,-1 -6,-4 -5,-9 -4,0 -6,-3 -5,-8 C 21,97 20,94 22,89 17,88 16,85 18,80 14,78 13,75 15,71 11,70 10,67 13,62 8,60 8,57 10,54 7,52 6,49 8,45 5,43 4,41 6,37 5,37 4,35 3,32 c 1,-5 3,-6 8,-4 0,0 0,-3 4,-3 2,-1 5,0 6,1 0,0 -1,2 -3,4 0,0 -2,0 -4,1 0,2 -1,4 -2,5 3,2 4,5 2,8 3,2 4,4 2,8 3,2 4,5 2,9 4,1 5,4 3,8 3,2 4,5 3,9 3,1 5,4 3,8 4,2 5,5 4,9 2,0 4,1 4,5 1,0 1,-1 1,-1 -3,-4 -4,-8 -1,-12 -5,-2 -6,-6 -3,-11 -4,-3 -5,-6 -2,-11 -4,-3 -4,-7 0,-10 -1,-1 -3,-2 -3,-4 0,-1 0,-3 1,-7 -2,-2 -2,-5 0,-8 -2,-3 -3,-6 0,-8 -2,-3 -2,-5 0,-8 -2,-4 -2,-6 2,-8 2,-7 7,-5 7,-2 -1,1 -2,3 -2,4 -1,0 -1,0 -2,0 1,2 1,4 0,6 3,1 3,4 1,7 4,2 4,5 0,8 4,3 4,6 1,9 4,3 4,7 1,11 5,3 5,6 1,9 5,3 5,6 3,10 4,3 4,7 1,11 6,3 6,7 3,12 5,2 6,6 3,12 6,2 7,6 4,11 4,1 6,3 6,8 3,1 4,3 3,7 6,0 8,2 8,7 6,-1 9,1 9,6 5,-2 8,0 9,6 5,-2 8,-1 10,4 4,-3 7,-3 10,2 4,-3 7,-4 12,-1 2,-4 5,-4 10,-2 1,-5 5,-6 10,-3 1,-7 4,-10 9,-10 -5,-6 -3,-10 5,-12 -4,-6 -2,-10 4,-12 -3,-6 -2,-10 4,-13 -4,-5 -3,-9 3,-13 -3,-6 -2,-10 3,-12 -4,-6 -3,-10 3,-13 -4,-6 -3,-10 2,-12 -4,-6 -3,-10 3,-14 -4,-5 -3,-9 3,-12 -4,-6 -4,-10 2,-14 -2,0 -3,-3 -2,-7 -1,-6 2,-9 7,-10 z M 74,153 c -2,1 -4,1 -6,0 h -1 l 1,1 c 4,2 6,5 5,10 v 0 c 6,0 8,5 7,10 8,-1 11,5 10,8 6,-3 10,4 10,6 5,-4 10,-1 11,2 3,-5 8,-5 10,-4 1,-5 5,-7 8,-8 -3,-7 6,-11 7,-11 -4,0 -6,-1 -6,-3 -2,4 -8,8 -12,3 -2,4 -10,4 -12,-1 -6,5 -11,2 -12,-3 -5,5 -11,0 -11,-4 -4,2 -10,0 -9,-6 z"
       fill="url(#id-98079)"
       id="id-98082"
       style="fill:url(#id-98079)" />
    <path
       d="m 147,144 -5,12 c -5,1 -8,4 -6,11 -3,0 -5,1 -6,-3 -2,4 -8,7 -12,3 7,5 10,-9 0,-8 2,-3 6,-4 10,-2 2,-4 5,-6 10,-3 1,-7 4,-10 9,-10 z"
       fill="#c17000"
       id="id-98083" />
    <path
       d="m 140,148 c 1,4 1,7 1,8 -2,1 -4,2 -5,4 -4,-1 -4,-4 -4,-8 3,0 4,1 6,2 0,-3 1,-5 2,-6 z"
       fill="#a04f03"
       id="id-98084" />
  </g>
</svg>
