<?xml version="1.0" encoding="UTF-8" standalone="no"?>
<svg
   width="330.06345"
   height="161.8"
   viewBox="0 0 330.06345 161.8"
   version="1.1"
   id="svg11"
   sodipodi:docname="cb-layer-0270.svg"
   xmlns:inkscape="http://www.inkscape.org/namespaces/inkscape"
   xmlns:sodipodi="http://sodipodi.sourceforge.net/DTD/sodipodi-0.dtd"
   xmlns="http://www.w3.org/2000/svg"
   xmlns:svg="http://www.w3.org/2000/svg">
  <sodipodi:namedview
     id="namedview13"
     pagecolor="#ffffff"
     bordercolor="#666666"
     borderopacity="1.0"
     inkscape:pageshadow="2"
     inkscape:pageopacity="0.0"
     inkscape:pagecheckerboard="0" />
  <defs
     id="defs2" />
  <g
     transform="translate(0.05404184)"
     id="id-73515">
    <path
       d="M 81,152 C 52,144 -2,110 0,68 10,13 85,7 158,0 c 94,2 173,26 172,66 0,23 -26,59 -76,83 -68,16 -125,17 -173,3 z"
       fill="#963600"
       id="id-73516" />
    <path
       d="m 97,106 -80,4 c 12,14 35,36 79,48 3,-25 3,-42 1,-52 z"
       fill="#7e405a"
       id="id-73517" />
    <path
       d="M 79,94 C 78,83 75,73 76,60 83,49 98,42 114,35 c 45,-17 89,-12 131,14 10,12 8,29 4,48 l -4,4 C 245,85 246,65 239,52 204,18 105,23 86,54 83,65 84,81 84,95 81,95 79,94 79,94 Z"
       fill="#5c0000"
       id="id-73518" />
    <path
       d="M 190,27 210,4 c 41,6 115,18 116,62 0,12 -5,22 -11,32 C 297,88 279,80 260,72 L 287,60 245,49 C 226,37 207,30 190,27 Z"
       fill="#ac4900"
       id="id-73519" />
    <path
       d="m 260,72 c -5,2 -8,3 -8,3 l 48,41 15,-18 C 293,86 275,77 260,72 Z"
       fill="#913200"
       id="id-73520" />
    <path
       d="m 226,128 49,9 c -8,5 -34,19 -42,22 -6,-15 -8,-26 -7,-31 z"
       fill="#834357"
       id="id-73521" />
  </g>
</svg>
