<?xml version="1.0" encoding="UTF-8" standalone="no"?>
<svg
   width="900"
   height="1328"
   viewBox="0 0 900 1328"
   version="1.1"
   id="svg354"
   sodipodi:docname="cb-layer-0037.svg"
   xmlns:inkscape="http://www.inkscape.org/namespaces/inkscape"
   xmlns:sodipodi="http://sodipodi.sourceforge.net/DTD/sodipodi-0.dtd"
   xmlns="http://www.w3.org/2000/svg"
   xmlns:svg="http://www.w3.org/2000/svg">
  <sodipodi:namedview
     id="namedview356"
     pagecolor="#ffffff"
     bordercolor="#666666"
     borderopacity="1.0"
     inkscape:pageshadow="2"
     inkscape:pageopacity="0.0"
     inkscape:pagecheckerboard="0" />
  <defs
     id="defs41">
    <linearGradient
       x1="387.71092"
       y1="332.38424"
       x2="114.24428"
       y2="367.9349"
       id="id-34992"
       gradientTransform="scale(1.111653,0.8995613)"
       gradientUnits="userSpaceOnUse">
      <stop
         stop-color="#652C2D"
         offset="0%"
         id="stop2" />
      <stop
         stop-color="#4F302D"
         offset="100%"
         id="stop4" />
    </linearGradient>
    <linearGradient
       x1="554.32444"
       y1="131.91553"
       x2="554.32444"
       y2="220.72994"
       id="id-34993"
       gradientTransform="scale(0.65304716,1.531283)"
       gradientUnits="userSpaceOnUse">
      <stop
         stop-color="#825C5C"
         offset="0%"
         id="stop7" />
      <stop
         stop-color="#997778"
         offset="100%"
         id="stop9" />
    </linearGradient>
    <linearGradient
       x1="91.192702"
       y1="362.08288"
       x2="91.192702"
       y2="435.51736"
       id="id-34994"
       gradientTransform="scale(0.72707406,1.3753757)"
       gradientUnits="userSpaceOnUse">
      <stop
         stop-color="#F0E7EE"
         offset="0%"
         id="stop12" />
      <stop
         stop-color="#CFCAD9"
         offset="100%"
         id="stop14" />
    </linearGradient>
    <linearGradient
       x1="259.65214"
       y1="532.6637"
       x2="276.19226"
       y2="514.05607"
       id="id-34995"
       gradientTransform="scale(0.76292084,1.310752)"
       gradientUnits="userSpaceOnUse">
      <stop
         stop-color="#767894"
         offset="0%"
         id="stop17" />
      <stop
         stop-color="#A3A4C0"
         offset="100%"
         id="stop19" />
    </linearGradient>
    <linearGradient
       x1="423.74521"
       y1="304.84357"
       x2="423.74521"
       y2="358.60229"
       id="id-34996"
       gradientTransform="scale(0.63245553,1.5811388)"
       gradientUnits="userSpaceOnUse">
      <stop
         stop-color="#F6ECF2"
         offset="0%"
         id="stop22" />
      <stop
         stop-color="#E4DDE7"
         offset="100%"
         id="stop24" />
    </linearGradient>
    <linearGradient
       x1="351.56671"
       y1="445.29811"
       x2="320.61508"
       y2="508.92089"
       id="id-34997"
       gradientTransform="scale(0.76764947,1.3026779)"
       gradientUnits="userSpaceOnUse">
      <stop
         stop-color="#E1D9E4"
         offset="0%"
         id="stop27" />
      <stop
         stop-color="#CFCAD9"
         offset="100%"
         id="stop29" />
    </linearGradient>
    <linearGradient
       x1="6.6934274"
       y1="22.851838"
       x2="44.467638"
       y2="99.544934"
       id="id-34998"
       gradientTransform="scale(1.030862,0.97006193)"
       gradientUnits="userSpaceOnUse">
      <stop
         stop-color="#AEB8C0"
         offset="0%"
         id="stop32" />
      <stop
         stop-color="#647785"
         offset="14%"
         id="stop34" />
      <stop
         stop-color="#5D6E7B"
         offset="60%"
         id="stop36" />
      <stop
         stop-color="#445058"
         offset="100%"
         id="stop38" />
    </linearGradient>
  </defs>
  <g
     id="id-34999">
    <g
       transform="translate(0,709)"
       id="id-35000">
      <g
         transform="translate(0,197)"
         id="id-35001">
        <path
           d="M 900,87 C 745,36 527,46 367,0 L 104,168 687,223 C 765,187 837,143 900,87 Z"
           fill="#9c765f"
           id="id-35002" />
        <path
           d="m 677,226 c 2,131 3,196 3,196 -367,0 -550,0 -550,0 1,-80 2,-120 2,-120 l -5,-126 c 367,33 550,50 550,50 z"
           fill="#573426"
           id="id-35003" />
        <path
           d="m 432,173 -32,15 c -38,-4 -57,-6 -57,-6 l 24,-8 z"
           fill="#af907e"
           id="id-35004" />
        <path
           d="m 677,226 c -94,-9 -141,-13 -141,-13 5,105 8,157 8,157 -11,-57 -16,-85 -16,-85 l -35,-1 -4,138 h 191 c -2,-131 -3,-196 -3,-196 z"
           fill="#4e392a"
           id="id-35005" />
        <path
           d="M 431,422 C 422,288 418,221 418,221 327,208 281,201 281,201 c -5,94 -8,140 -8,140 l -2,-139 -144,-26 5,123 -2,123 c 201,0 301,0 301,0 z"
           fill="url(#id-34992)"
           id="id-35006"
           style="fill:url(#id-34992)" />
        <path
           d="m 284,202 c -61,82 -92,123 -92,123 l -61,17 1,-40 -5,-126 c 105,17 157,26 157,26 z"
           fill="#3c1f21"
           id="id-35007" />
        <path
           d="m 689,422 c -6,0 -9,0 -9,0 -2,-124 -3,-187 -3,-187 l 10,-12 z"
           fill="#7c574b"
           id="id-35008" />
        <path
           d="m 900,87 c -62,55 -135,99 -213,136 l 2,199 c 131,0 197,0 197,0 l 1,-172 z"
           fill="#553e42"
           id="id-35009" />
        <path
           d="m 693,229 c 72,-37 108,-56 108,-56 27,-8 40,-12 40,-12 7,-13 10,-19 10,-19 29,-28 44,-41 44,-41 -62,46 -131,88 -203,126 1,1 1,2 1,2 z"
           fill="#31151a"
           id="id-35010" />
        <path
           d="m 758,219 c 2,20 3,29 3,29 46,-26 69,-39 69,-39 l -3,-25 c -46,24 -69,35 -69,35 z"
           fill="#31151a"
           id="id-35011" />
        <g
           transform="translate(0,168)"
           id="id-35012">
          <path
             d="M 183,79 C 227,50 249,36 249,36 323,15 361,5 361,5 189,2 104,0 104,0 35,42 0,63 0,63 L 74,40 c 73,26 109,39 109,39 z"
             fill="#b08e8c"
             id="id-35013" />
          <path
             d="M 38,75 80,42 161,2 C 294,4 361,5 361,5 298,27 266,38 266,38 235,65 220,78 220,78 L 165,65 H 66 C 47,72 38,75 38,75 Z"
             fill="#8f6c61"
             id="id-35014" />
          <path
             d="M 74,40 161,2 361,5 249,36 183,79 C 110,53 74,40 74,40 Z"
             fill="#eac3b8"
             id="id-35015" />
        </g>
        <path
           d="m 672,242 15,-21 C 456,194 340,181 340,181 l -41,14 c 255,31 379,47 373,47 z"
           fill="#b4918e"
           id="id-35016" />
        <path
           d="m 333,202 c 38,6 56,9 56,9 2,71 2,106 2,106 -8,-1 -12,-1 -12,-1 -2,15 -3,22 -3,22 -4,-19 -5,-28 -5,-28 l -38,12 c 0,-80 0,-120 0,-120 z"
           fill="url(#id-34993)"
           id="id-35017"
           style="fill:url(#id-34993)" />
        <path
           d="m 390,205 c -37,-6 -56,-9 -56,-9 -1,-10 4,-15 15,-14 l 51,6 c -3,1 -4,2 -5,3 -4,9 -5,14 -5,14 z"
           fill="#f4efee"
           id="id-35018" />
        <path
           d="m 389,211 c -11,-2 -17,-3 -17,-3 l 18,36 z"
           fill="#7b4d4e"
           id="id-35019" />
      </g>
      <g
         transform="translate(67)"
         id="id-35020">
        <path
           d="m 12,360 c 466,6 723,6 770,-1 1,-122 1,-184 1,-184 5,-55 7,-82 7,-82 C 263,92 0,91 0,91 l 11,77 c 1,128 1,192 1,192 z"
           fill="#583426"
           id="id-35021" />
        <path
           d="M 0,91 C 63,30 94,0 94,0 493,7 693,11 693,11 L 793,93 C 264,92 0,91 0,91 Z"
           fill="#9c765f"
           id="id-35022" />
        <path
           d="m 774,77 c -50,1 -75,2 -75,2 -6,-9 -9,-14 -9,-14 -10,-5 -14,-8 -14,-8 l 67,-5 c 21,17 31,25 31,25 z"
           fill="#c4ae9f"
           id="id-35023" />
        <path
           d="m 736,53 c 5,-1 7,-1 7,-1 l 14,11 z"
           fill="#e0d5ce"
           id="id-35024" />
        <path
           d="m 730,42 c -453,0 -679,0 -679,0 4,-4 6,-6 6,-6 l 670,3 c 2,2 3,3 3,3 z"
           fill="#31151a"
           id="id-35025" />
        <polygon
           points="693,11 94,0 57,36 730,39 "
           fill="#856051"
           id="id-35026" />
        <path
           d="M 112,70 85,91 C 53,91 37,91 37,91 60,74 71,65 71,65 l 16,3 z"
           fill="#bca093"
           id="id-35027" />
        <path
           d="M 83,98 38,97 c 0,-4 0,-6 0,-6 3,-2 4,-4 4,-4 32,0 48,0 48,0 l -6,4 c 0,5 -1,7 -1,7 z"
           fill="#e8dadb"
           id="id-35028" />
        <path
           d="m 12,266 c 22,0 33,0 33,0 5,-58 7,-87 7,-87 4,86 7,128 7,128 91,-2 136,-3 136,-3 4,-103 6,-154 6,-154 3,142 5,214 5,214 l 126,-2 V 92 L 0,91 12,167 c 0,66 0,99 0,99 z"
           fill="#533b3f"
           id="id-35029" />
        <path
           d="m 83,175 c -9,-10 -13,-16 -13,-16 -4,5 -6,8 -6,8 -8,-9 -12,-13 -12,-13 L 41,164 C 39,119 38,97 38,97 l 46,4 c -1,50 -1,74 -1,74 z"
           fill="#6d565a"
           id="id-35030" />
        <path
           d="m 423,364 c 1,-28 2,-43 2,-43 62,-2 94,-4 94,-4 3,13 4,20 4,20 2,-60 4,-91 4,-91 92,-4 138,-6 138,-6 12,48 18,72 18,72 -2,-50 -3,-76 -3,-76 48,0 72,-1 72,-1 2,-63 3,-95 3,-95 h 29 l -1,35 c 0,71 -1,133 -1,184 -97,8 -274,5 -359,5 z"
           fill="#632d2c"
           id="id-35031" />
        <path
           d="m 23,376 c 11,-8 16,-12 16,-12 11,-1 17,-2 17,-2 l -44,-2 v -3 l 194,5 c 84,-1 126,-1 126,-1 239,1 376,1 410,-1 10,0 17,2 20,1 -28,7 -42,10 -42,10 -6,-5 -9,-7 -9,-7 -272,3 -408,5 -408,5 l -27,3 C 145,365 60,366 23,376 Z"
           fill="#31151a"
           id="id-35032" />
        <g
           transform="translate(567,116)"
           id="id-35033">
          <path
             d="M 4,5 C 1,88 0,129 0,129 c 127,1 190,1 190,1 L 193,4 C 67,4 4,5 4,5 Z"
             fill="#31141a"
             id="id-35034" />
          <path
             d="M 10,1 C 7,85 6,126 6,126 c 127,1 191,1 191,1 L 200,0 C 73,1 10,1 10,1 Z"
             fill="#a2a4c1"
             id="id-35035" />
          <path
             d="m 17,10 c -3,73 -4,109 -4,109 116,2 174,3 174,3 L 188,8 C 74,9 17,10 17,10 Z"
             stroke="#979797"
             id="id-35036" />
          <path
             d="m 13,120 c 116,2 174,3 174,3 1,-77 1,-115 1,-115 L 17,10 c -3,73 -4,110 -4,110 z"
             fill="#9f8885"
             id="id-35037" />
          <path
             d="m 15,51 c 60,15 117,39 172,71 L 13,119 Z"
             fill="#a0939c"
             id="id-35038" />
        </g>
      </g>
    </g>
    <g
       transform="translate(267)"
       id="id-35039">
      <path
         d="m 34,727 c -14,8 -21,12 -21,12 10,10 14,16 14,16 2,14 3,22 3,22 24,9 36,14 36,14 33,2 50,3 50,3 8,-18 12,-28 12,-28 75,2 113,3 113,3 21,7 32,11 32,11 32,-9 48,-14 48,-14 -24,-9 -36,-14 -36,-14 93,-3 140,-4 140,-4 L 386,735 C 152,730 34,727 34,727 Z"
         fill="#3d2022"
         fill-opacity="0.4"
         id="id-35040" />
      <path
         d="m 143,749 c -8,7 -12,11 -12,11 0,9 0,13 0,13 -8,12 -12,18 -12,18 -13,1 -20,2 -20,2 -3,-5 -4,-7 -4,-7 -8,5 -12,8 -12,8 -5,-4 -8,-6 -8,-6 -10,0 -15,0 -15,0 0,-8 1,-11 1,-11 -10,-1 -15,-1 -15,-1 0,-6 0,-9 0,-9 -6,-7 -9,-10 -9,-10 2,-11 4,-16 4,-16 C 70,724 84,716 84,716 56,636 42,596 42,596 70,545 84,519 84,519 89,490 92,476 92,476 85,451 82,438 82,438 70,412 59,386 56,346 c 5,-13 13,-24 22,-36 1,-27 9,-59 16,-90 -4,-15 -3,-27 -5,-41 -5,-8 -8,-12 -8,-12 1,-9 1,-13 1,-13 C 72,148 61,141 50,132 39,123 3,63 3,63 c 2,-1 3,-1 3,-1 62,17 94,25 94,25 4,0 7,0 7,0 25,-14 38,-21 38,-21 23,4 35,5 35,5 59,-46 89,-70 89,-70 -3,37 -5,56 -5,56 -6,24 -9,36 -9,36 -13,20 -19,29 -19,29 7,15 11,23 11,23 -12,10 -18,14 -18,14 0,16 1,24 1,24 -7,21 -10,32 -10,32 5,19 8,29 8,29 7,10 11,16 11,16 1,35 1,53 1,53 -2,21 -3,32 -3,32 6,15 8,22 8,22 7,36 10,53 10,53 -6,14 -9,20 -9,20 -4,5 -6,7 -6,7 4,34 6,51 6,51 12,-9 18,-14 18,-14 14,1 21,2 21,2 3,59 5,88 5,88 -6,30 -9,45 -9,45 -24,58 -36,87 -36,87 1,5 1,7 1,7 77,0 116,1 116,1 7,0 15,-1 25,-2 33,-6 52,-51 28,-75 -6,-4 -32,-17 -29,-30 22,0 32,0 32,0 36,22 44,54 26,98 -11,13 -17,20 -17,20 -20,12 -41,20 -62,23 -41,1 -61,1 -61,1 3,12 5,19 5,19 -5,1 -7,1 -7,1 -10,0 -15,0 -15,0 -1,6 -1,9 -1,9 -10,-1 -14,-1 -14,-1 -4,-7 -5,-11 -5,-11 -8,4 -12,6 -12,6 -11,-8 -16,-12 -16,-12 -15,-6 -31,-13 -44,-17 -2,-4 -2,-6 -2,-6 h -48 c -1,8 -2,12 -2,12 z"
         fill="#2d314b"
         id="id-35041" />
      <path
         d="m 402,738 c -14,6 -26,10 -36,11 h -62 l -2,-3 65,-1 c 23,-5 35,-7 35,-7 z"
         fill="#0b1127"
         id="id-35042" />
      <path
         d="m 138,738 c 1,7 1,11 1,11 -6,5 -9,8 -9,8 l 1,15 c -4,2 -7,4 -8,6 -2,4 -2,11 -4,12 -13,2 -20,2 -20,2 -1,-19 -2,-29 -2,-29 -5,0 -7,0 -7,0 -1,12 -2,18 -2,18 -3,8 -5,12 -5,12 -5,-3 -7,-5 -7,-5 -1,-16 -1,-24 -1,-24 -4,-1 -6,-1 -6,-1 -4,16 -5,24 -5,24 -3,-4 -4,-6 -4,-6 3,-15 5,-23 5,-23 16,-2 24,-3 24,-3 12,-10 18,-15 18,-15 10,-1 17,0 22,6 6,-6 9,-8 9,-8 z"
         fill="#42435a"
         id="id-35043" />
      <path
         d="m 121,790 c -6,1 -9,1 -9,1 -5,-18 -7,-28 -7,-28 -8,-5 -12,-7 -12,-7 10,-10 15,-15 15,-15 12,2 19,2 19,2 -13,11 -19,16 -19,16 l 5,4 c 5,18 8,27 8,27 z"
         fill="#5c6284"
         id="id-35044" />
      <path
         d="m 106,775 c -4,6 -6,9 -6,9 4,11 6,16 6,16 l 6,-13 c -4,-8 -6,-12 -6,-12 z"
         fill="#a3a4c1"
         id="id-35045" />
      <path
         d="m 83,773 c -3,5 -4,8 -4,8 3,12 4,18 4,18 l 5,-17 c -3,-6 -5,-9 -5,-9 z"
         fill="#a3a4c1"
         id="id-35046" />
      <path
         d="m 66,773 c -4,6 -6,9 -6,9 -2,8 -3,12 -3,12 l 8,-7 c 1,-9 1,-14 1,-14 z"
         fill="#a3a4c1"
         id="id-35047" />
      <path
         d="m 55,776 c 3,-19 5,-28 5,-28 l 43,-25 2,18 -16,14 c -16,2 -24,3 -24,3 l -4,18 c -4,0 -6,0 -6,0 z"
         fill="#0b1127"
         id="id-35048" />
      <path
         d="m 44,773 c -5,0 -7,0 -7,0 6,-19 9,-28 9,-28 l 5,4 c -5,16 -7,24 -7,24 z"
         fill="#0b1127"
         id="id-35049" />
      <path
         d="m 54,759 c -4,5 -6,8 -6,8 2,11 3,17 3,17 l 4,-13 c 0,-8 -1,-12 -1,-12 z"
         fill="#5c6284"
         id="id-35050" />
      <path
         d="m 41,754 c -5,4 -7,7 -7,7 -1,11 -1,17 -1,17 l 7,-10 c 0,-10 1,-14 1,-14 z"
         fill="#5c6284"
         id="id-35051" />
      <path
         d="m 137,742 c -3,2 -5,3 -5,3 1,4 1,6 1,6 l 4,-3 c 0,-4 0,-6 0,-6 z"
         fill="#0b1127"
         id="id-35052" />
      <path
         d="M 103,723 C 90,716 83,713 83,713 75,690 64,669 54,648 46,617 43,601 43,601 c -2,-1 -3,-2 -3,-2 0,-50 1,-81 2,-93 16,-6 24,-8 24,-8 12,15 17,23 17,23 8,-16 12,-24 12,-24 4,23 7,37 7,40 -2,22 -5,39 -5,39 l 8,28 c -1,79 -2,119 -2,119 z"
         fill="#a3a4c0"
         id="id-35053" />
      <path
         d="m 66,498 c 10,22 16,38 19,47 7,25 8,43 8,43 l -4,-9 c -18,3 -34,11 -49,20 -1,-29 0,-60 2,-93 16,-6 24,-8 24,-8 z"
         fill="url(#id-34994)"
         id="id-35054"
         style="fill:url(#id-34994)" />
      <path
         d="m 86,584 c -15,0 -30,12 -45,20 8,29 13,44 13,44 10,22 15,33 15,33 16,-7 24,-11 24,-11 2,-23 6,-46 2,-69 -6,-11 -9,-17 -9,-17 z"
         fill="#cfcad9"
         id="id-35055" />
      <path
         d="m 88,553 c -6,-21 -14,-38 -22,-55 11,15 17,23 17,23 l 6,-14 c 1,16 1,31 -1,46 z"
         fill="#858aad"
         id="id-35056" />
      <path
         d="m 81,718 c 5,-2 8,-4 8,-4 l -9,-8 3,7 c 0,2 0,4 -2,5 z"
         fill="#cfc9d9"
         id="id-35057" />
      <path
         d="m 145,748 c -10,9 -14,13 -14,13 8,-9 12,-14 12,-14 0,-12 0,-18 0,-18 35,6 52,8 52,8 l -49,1 c -1,7 -1,10 -1,10 z"
         fill="#0b1127"
         id="id-35058" />
      <path
         d="m 205,739 c -3,-1 -5,-2 -5,-2 2,-5 3,-7 3,-7 l 4,5 c -1,2 -2,4 -2,4 z"
         fill="#0b1127"
         id="id-35059" />
      <path
         d="m 286,764 c -3,-2 -5,-4 -5,-4 -1,-16 -1,-24 -1,-24 -9,6 -14,9 -14,9 -4,-5 -5,-7 -5,-7 -13,-7 -29,-8 -41,-15 11,0 17,0 17,0 36,5 55,8 55,8 11,24 17,36 17,36 -5,1 -7,2 -7,2 -7,-18 -10,-27 -10,-27 l -5,4 c 0,12 -1,18 -1,18 z"
         fill="#42435a"
         id="id-35060" />
      <path
         d="m 288,742 c 2,-5 3,-8 3,-8 6,13 9,19 9,19 3,0 4,1 4,1 -1,-4 -1,-6 -1,-6 l -10,-19 c -20,-4 -39,-6 -56,-6 13,5 28,8 44,9 5,6 7,10 7,10 z"
         fill="#5c6284"
         id="id-35061" />
      <path
         d="m 263,752 c -3,4 -5,6 -5,6 3,13 5,20 5,20 l 5,-17 c -3,-6 -5,-9 -5,-9 z"
         fill="#a3a4c1"
         id="id-35062" />
      <path
         d="m 289,783 c -7,-14 -10,-21 -10,-21 3,-4 4,-7 4,-7 l 7,8 c -1,13 -1,20 -1,20 z"
         fill="#a3a4c1"
         id="id-35063" />
      <path
         d="m 298,757 c 1,-5 1,-8 1,-8 8,4 11,6 11,6 l 2,20 c -9,-12 -14,-18 -14,-18 z"
         fill="#a3a4c1"
         id="id-35064" />
      <path
         d="m 199,734 c -38,-6 -57,-8 -57,-8 0,-39 0,-58 0,-58 l 74,-11 c -12,42 -18,68 -17,77 z"
         fill="#465177"
         id="id-35065" />
      <path
         d="m 189,728 c -28,-3 -41,-4 -41,-4 -4,-15 -6,-23 -6,-23 0,-44 0,-65 0,-65 7,-54 11,-81 11,-81 -4,-4 -6,-7 -6,-7 -8,-41 -12,-62 -12,-62 24,22 36,32 36,32 11,-10 16,-15 16,-15 19,-7 29,-10 29,-10 13,-24 19,-36 19,-36 8,27 12,41 12,41 11,-11 17,-16 17,-16 14,0 21,1 21,1 7,45 9,76 7,91 -2,1 -3,2 -3,2 -5,31 -8,47 -8,47 -23,57 -35,85 -35,85 v 15 c -17,0 -26,0 -26,0 -5,-6 -8,-9 -8,-9 -5,8 -8,12 -8,12 -2,-8 -3,-12 -3,-12 l 15,-61 c -18,50 -27,75 -27,75 z"
         fill="url(#id-34995)"
         id="id-35066"
         style="fill:url(#id-34995)" />
      <path
         d="m 186,672 c -20,4 -28,1 -39,-2 2,-42 3,-64 3,-64 7,-8 10,-13 10,-13 -4,-3 -7,-5 -7,-5 6,-17 8,-26 8,-26 -4,-8 -6,-13 -6,-13 l -1,-46 17,15 c 11,-10 17,-15 17,-15 l 7,57 c 14,-45 21,-67 21,-67 11,-21 17,-31 17,-31 5,20 7,30 7,30 l -8,37 c -29,92 -44,140 -46,143 z"
         fill="#cfcad9"
         id="id-35067" />
      <path
         d="m 202,624 c -28,-1 -43,-1 -43,-1 l -10,7 -2,40 c 13,5 26,5 39,2 10,-27 15,-44 16,-48 z"
         fill="#c3c0d2"
         id="id-35068" />
      <path
         d="m 231,584 c 9,-15 24,-21 44,-16 6,1 13,2 17,6 0,-31 -1,-61 -7,-91 -14,-1 -21,-1 -21,-1 l -20,33 c -6,23 -10,46 -13,69 z"
         fill="#cfcad9"
         id="id-35069" />
      <path
         d="m 248,569 c 5,-44 8,-66 8,-66 h -5 l 13,-21 21,1 c 6,30 8,71 7,91 -15,-8 -30,-10 -44,-5 z"
         fill="#e8dfe9"
         id="id-35070" />
      <path
         d="m 260,566 -5,1 1,-64 h -5 l 13,-21 21,1 c -17,55 -25,83 -25,83 z"
         fill="url(#id-34996)"
         id="id-35071"
         style="fill:url(#id-34996)" />
      <path
         d="m 276,570 -19,9 -10,-8 c 19,-1 29,-1 29,-1 z"
         stroke="#979797"
         id="id-35072" />
      <path
         d="m 247,571 c -13,17 -19,25 -19,25 -2,46 -3,68 -3,68 l 20,18 c 24,-39 36,-59 36,-59 l 10,-43 c -2,-7 -10,-8 -16,-10 -19,1 -28,1 -28,1 z"
         fill="url(#id-34997)"
         id="id-35073"
         style="fill:url(#id-34997)" />
      <path
         d="m 142,704 c -9,14 -14,21 -14,21 -2,-3 -3,-5 -3,-5 -3,-73 -5,-109 -5,-109 4,-23 6,-34 6,-34 11,-20 16,-30 16,-30 -3,-3 -4,-5 -4,-5 -3,7 -5,10 -5,10 -12,0 -19,0 -19,0 C 102,479 95,442 95,442 l 34,15 18,91 6,7 -11,77 c 0,48 0,72 0,72 z"
         fill="#42435a"
         id="id-35074" />
      <path
         d="m 145,64 c 22,5 33,8 33,8 l 4,-3 8,7 4,9 -2,11 24,21 12,18 -31,22 c 10,11 15,16 15,17 v 0 0 c 4,5 6,7 6,7 -13,13 -19,19 -20,20 v 0 c 0,0 0,0 0,0 l -23,-11 c 5,-9 8,-14 8,-14 -26,-17 -40,-25 -40,-25 -4,-17 -7,-26 -7,-26 -13,-6 -20,-8 -20,-8 6,-4 9,-5 9,-5 -2,-5 -4,-8 -4,-8 v 0 0 l -20,-5 -15,7 c 10,-13 14,-19 14,-19 5,0 7,0 7,0 25,-15 38,-23 38,-23 z m 66,66 c 0,0 -5,4 -14,12 v 0 l -18,5 c 0,0 7,0 20,2 0,0 0,0 0,-1 v 0 c 0,0 0,0 0,0 v 0 c 1,-2 5,-8 12,-18 z m -25,-26 c -8,12 -12,18 -12,18 l 14,-9 c 10,1 15,2 15,2 -11,-7 -16,-11 -17,-11 z"
         fill="#42435a"
         id="id-35075" />
      <path
         d="m 145,572 c -5,-5 -7,-8 -7,-8 4,-7 6,-11 6,-11 l 5,5 c -3,9 -4,14 -4,14 z"
         fill="#0b1127"
         id="id-35076" />
      <path
         d="m 97,576 18,7 c 4,-1 9,-2 11,-6 11,-20 17,-31 17,-31 -3,-3 -4,-5 -4,-5 -7,14 -10,20 -10,20 -8,8 -12,11 -12,11 l -10,-4 -5,-31 c -3,24 -4,37 -5,39 z"
         fill="#5e6486"
         id="id-35077" />
      <path
         d="m 120,610 -5,-27 c 5,-1 9,-2 11,-6 z"
         fill="#707699"
         id="id-35078" />
      <path
         d="m 129,561 -12,11 c -6,-3 -9,-4 -9,-4 -1,-4 -2,-6 -2,-6 l 15,4 z"
         fill="#0b1127"
         id="id-35079" />
      <path
         d="m 214,303 -26,-19 c -5,-21 -7,-32 -7,-32 3,0 4,0 4,0 1,-4 2,-6 2,-6 1,4 1,6 1,6 11,-3 17,-5 17,-5 v -8 l 17,10 7,15 -8,20 z"
         fill="#0b1127"
         id="id-35080" />
      <path
         d="m 144,495 c -4,3 -7,5 -7,5 l -2,-14 c 6,6 9,9 9,9 z"
         fill="#7e82a3"
         id="id-35081" />
      <path
         d="m 170,506 c 2,-17 4,-25 4,-25 -2,-2 -3,-2 -3,-2 -3,-27 -5,-40 -5,-40 5,-14 7,-21 7,-21 l -22,11 c 13,51 19,77 19,77 z"
         fill="#505370"
         id="id-35082" />
      <path
         d="M 128,452 C 109,443 99,438 99,438 L 76,348 c 35,69 52,104 52,104 z"
         fill="#42435a"
         id="id-35083" />
      <path
         d="m 217,487 c -17,-1 -25,-1 -25,-1 17,-70 26,-105 26,-105 l 16,-9 c -11,77 -17,115 -17,115 z"
         fill="#42435a"
         id="id-35084" />
      <path
         d="m 218,381 c 2,-65 3,-97 3,-97 -15,1 -23,1 -23,1 6,-9 8,-13 8,-13 10,1 16,2 16,2 5,-7 7,-10 7,-10 -5,-10 -8,-15 -8,-15 5,-3 7,-5 7,-5 7,10 11,16 11,16 l 1,51 -6,61 c -11,6 -16,9 -16,9 z"
         fill="#505370"
         id="id-35085" />
      <path
         d="m 236,266 c -9,11 -14,17 -14,17 l 1,62 c -1,-36 4,-62 13,-79 z"
         fill="#5d6691"
         id="id-35086" />
      <path
         d="m 91,250 c -8,31 -12,62 -18,93 l 22,41 c 37,30 56,44 56,44 15,-8 23,-12 23,-12 18,-62 27,-93 27,-93 3,-25 5,-37 5,-37 -7,-4 -11,-6 -11,-6 0,-6 0,-9 0,-9 -9,-11 -14,-17 -14,-17 -6,2 -9,3 -9,3 -3,-5 -5,-8 -5,-8 -7,0 -10,0 -10,0 1,-17 1,-25 1,-25 -4,0 -6,0 -6,0 -5,-7 -7,-11 -7,-11 -4,2 -6,3 -6,3 -4,-1 -7,-1 -7,-1 -6,-20 -9,-29 -9,-29 -20,1 -30,2 -30,2 0,13 0,19 0,19 3,11 4,16 4,16 -3,15 -5,23 -5,23 29,12 44,18 44,18 18,3 26,4 26,4 19,-1 28,-1 28,-1 1,2 2,3 2,3 -18,1 -27,2 -27,2 l -31,-5 C 106,256 91,250 91,250 Z"
         fill="#a3a4c0"
         id="id-35087" />
      <path
         d="m 94,327 -2,52 3,7 c 38,28 56,42 56,42 9,-5 14,-8 14,-8 9,-13 13,-19 13,-19 12,-42 18,-63 18,-63 l -39,6 c -24,-2 -45,-8 -63,-17 z"
         fill="#cfcad9"
         id="id-35088" />
      <path
         d="m 129,343 c 0,26 0,39 0,39 17,4 25,6 25,6 l 2,37 c 6,-3 9,-5 9,-5 4,-6 6,-8 6,-8 9,-46 13,-68 13,-68 l -24,5 c -21,-4 -31,-6 -31,-6 z"
         fill="#f6ecf2"
         id="id-35089" />
      <path
         d="m 109,271 c -9,29 -14,43 -14,43 24,14 36,20 36,20 17,7 26,10 26,10 28,-11 42,-16 42,-16 2,-6 2,-9 2,-9 l -13,-47 c -53,-1 -79,-1 -79,-1 z"
         fill="#cfcad9"
         id="id-35090" />
      <polygon
         points="157,344 199,328 201,319 188,272 132,271 131,334 "
         fill="#f6ecf2"
         id="id-35091" />
      <path
         d="m 141,309 c 23,0 35,0 35,0 l -19,27 c -11,-18 -16,-27 -16,-27 z"
         fill="#4f5677"
         id="id-35092" />
      <path
         d="m 147,313 c 14,0 22,0 22,0 l -12,17 c -7,-11 -10,-17 -10,-17 z"
         fill="#c3007b"
         id="id-35093" />
      <path
         d="m 152,271 c 0,23 0,35 0,35 8,0 12,1 12,1 v -35 c -8,0 -12,-1 -12,-1 z"
         fill="#4f5677"
         id="id-35094" />
      <path
         d="m 108,252 c 7,-28 10,-43 10,-43 l 27,16 17,43 -28,-5 c -17,-7 -26,-11 -26,-11 z"
         fill="#cfcad9"
         id="id-35095" />
      <path
         d="m 246,440 c 6,-13 9,-20 9,-20 -6,-37 -10,-56 -10,-55 l -11,31 c 7,29 11,44 12,44 z"
         fill="#5c6590"
         id="id-35096" />
      <path
         d="m 230,402 c 9,-14 13,-21 13,-21 4,-17 -2,-26 -6,-37 -3,33 -6,52 -7,58 z"
         fill="#f6ecf2"
         id="id-35097" />
      <polygon
         points="201,319 199,328 189,332 188,272 "
         fill="#d1ccda"
         id="id-35098" />
      <path
         d="m 144,157 c -14,13 -20,19 -20,19 5,18 8,27 8,27 5,-2 8,-3 8,-3 l 8,-15 c -3,-18 -4,-28 -4,-28 z"
         fill="#42435a"
         id="id-35099" />
      <path
         d="m 164,224 h -12 c -5,-7 -7,-11 -7,-11 l 24,-13 c -14,-9 -21,-14 -21,-14 -1,-3 -1,-5 -1,-5 17,-3 25,-5 25,-5 7,0 11,0 11,0 -9,16 -13,23 -13,23 17,3 26,4 26,4 -3,7 -4,10 -4,10 -8,0 -13,0 -13,0 -3,-2 -5,-3 -5,-3 l -10,8 z"
         fill="#0b1127"
         id="id-35100" />
      <path
         d="m 163,224 c -1,0 -2,0 -2,0 -1,-11 -2,-16 -2,-16 8,-4 12,-7 12,-7 8,2 12,3 12,3 l 2,9 h -6 l -5,-3 -11,8 c 0,4 0,6 0,6 z"
         fill="#c4007a"
         id="id-35101" />
      <path
         d="m 191,211 -5,-9 10,1 c -3,5 -5,8 -5,8 z"
         fill="#f6ecf2"
         id="id-35102" />
      <path
         d="m 152,224 c -5,-7 -7,-11 -7,-11 l 9,-5 z"
         fill="#f6ecf2"
         id="id-35103" />
      <path
         d="m 168,195 c -2,-11 -3,-16 -3,-16 l 14,-1 c -7,12 -11,17 -11,17 z"
         fill="#4b3251"
         id="id-35104" />
      <path
         d="m 159,117 c -3,9 -4,13 -4,13 l -11,-9 5,-12 c 7,5 10,8 10,8 z"
         fill="#c3007b"
         id="id-35105" />
      <path
         d="m 86,138 c -4,11 -5,16 -5,16 1,1 2,2 2,2 -3,9 -4,13 -4,13 6,7 10,10 10,10 20,12 33,18 38,20 -5,-17 -7,-25 -7,-25 L 95,164 c -6,-17 -9,-26 -9,-26 z"
         fill="#cfcad9"
         id="id-35106" />
      <path
         d="m 197,157 c 10,11 15,17 15,17 23,-20 34,-29 34,-29 -4,-13 -11,-25 -21,-38 l 3,28 c -21,15 -31,22 -31,22 z"
         fill="#cfcad9"
         id="id-35107" />
      <path
         d="m 239,151 -13,-16 1,-1 -2,-27 c 9,12 17,24 21,38 -5,4 -7,6 -7,6 z"
         fill="#f6ecf2"
         id="id-35108" />
      <path
         d="m 190,76 c 3,6 4,9 4,9 -1,8 -2,11 -2,11 l 24,21 11,17 -2,-27 C 209,89 197,78 190,76 Z"
         fill="#626c99"
         id="id-35109" />
      <path
         d="M 100,87 C 41,70 11,61 11,61 L 0,62 73,93 c 18,-4 27,-6 27,-6 z"
         fill="#545b7e"
         id="id-35110" />
      <path
         d="M 86,138 70,118 V 91 l 16,15 c 0,22 0,32 0,32 z"
         fill="#0b1127"
         id="id-35111" />
      <path
         d="m 90,151 15,-34 -19,-10 v 31 c 3,9 4,13 4,13 z"
         fill="#4f5677"
         id="id-35112" />
      <path
         d="m 230,159 c 1,16 2,25 2,25 l -10,29 5,31 -6,5 -16,-10 c 0,5 0,8 0,8 l -13,-8 v -26 l 5,-12 21,-20 -6,-7 c 12,-10 18,-15 18,-15 z"
         fill="#5d6691"
         id="id-35113" />
      <path
         d="m 163,125 c 12,34 19,51 19,51 -7,0 -10,0 -10,0 0,-8 0,-13 0,-13 l -11,-35 c 1,-2 2,-3 2,-3 z"
         fill="#626c99"
         id="id-35114" />
      <path
         d="m 107,87 c 3,5 4,8 4,8 15,6 22,9 22,9 -5,11 -7,17 -7,17 2,1 4,1 4,1 5,-12 7,-18 7,-18 22,-5 33,-7 33,-7 9,8 14,12 14,12 2,-1 3,-1 3,-1 -9,-9 -14,-13 -14,-13 l 16,-12 -7,-14 -4,3 -33,-8 c -26,15 -38,23 -38,23 z"
         fill="#cfc9d9"
         id="id-35115" />
      <path
         d="m 145,64 12,36 13,-3 14,12 3,-1 -14,-13 16,-12 -7,-14 -3,3 c -23,-5 -34,-8 -34,-8 z"
         fill="#f6ecf2"
         id="id-35116" />
      <path
         d="m 218,181 c -24,-4 -36,-6 -36,-6 l -10,-25 25,7 c 7,8 15,16 21,24 z"
         fill="#5a5b73"
         id="id-35117" />
      <path
         d="m 212,126 c -10,-4 -19,-6 -25,-5 -6,5 -11,12 -15,21 9,1 17,1 24,-1 5,-4 9,-7 12,-12 3,-2 4,-3 4,-3 z"
         fill="#0c1329"
         id="id-35118" />
      <path
         d="m 99,140 c 3,1 5,2 5,2 5,9 9,14 12,15 10,1 18,-2 24,-7 3,-1 5,-2 5,-2 l -15,-14 c -14,0 -24,2 -31,6 z"
         fill="#0c1329"
         id="id-35119" />
      <path
         d="m 228,165 c 1,13 1,20 1,20 -6,19 -9,29 -9,29 l 4,24 -32,-25 5,-11 21,-21 -6,-7 c 11,-6 16,-9 16,-9 z"
         fill="#a3a4c0"
         id="id-35120" />
      <path
         d="m 221,217 -16,6 19,15 c -2,-14 -3,-21 -3,-21 z"
         fill="#cfc9d9"
         id="id-35121" />
      <path
         d="m 228,171 -5,12 -11,-9 16,-9 c 0,4 0,6 0,6 z"
         fill="#7e82a3"
         id="id-35122" />
      <polygon
         points="164,218 174,210 179,213 192,213 192,238 205,247 188,252 186,245 185,252 181,252 181,255 172,257 163,224 "
         fill="#42435a"
         id="id-35123" />
      <path
         d="m 174,211 c 2,19 3,28 3,28 l -11,3 -2,-24 c 7,-5 10,-7 10,-7 z"
         fill="#5a5b73"
         id="id-35124" />
      <path
         d="m 192,216 c -8,0 -12,0 -12,0 l 1,24 11,-2 c 0,-15 0,-22 0,-22 z"
         fill="#575870"
         id="id-35125" />
      <polygon
         points="124,186 93,188 93,206 128,203 "
         fill="#7e82a3"
         id="id-35126" />
      <path
         d="m 199,81 c 13,-4 19,-7 19,-7 2,-14 3,-22 3,-22 C 253,20 269,3 269,3 V 0 l -87,69 8,7 c 4,2 7,4 9,5 z"
         fill="#505475"
         id="id-35127" />
      <path
         d="M 243,30 H 231 L 269,0 v 3 c -17,18 -26,27 -26,27 z"
         fill="#626b99"
         id="id-35128" />
      <path
         d="m 220,59 c 7,20 11,30 11,30 l -7,17 c -7,-9 -15,-17 -25,-25 6,-2 13,-5 19,-7 1,-10 2,-15 2,-15 z"
         fill="#0b1127"
         id="id-35129" />
      <path
         d="m 138,145 c -3,7 -10,10 -21,9 -5,-5 -7,-7 -7,-7 0,-5 1,-8 1,-8 l 17,-2 c 7,5 10,8 10,8 z"
         fill="#00b6ff"
         id="id-35130" />
      <path
         d="m 131,145 c -3,5 -4,8 -4,8 -5,-5 -8,-8 -8,-8 l 6,-7 c 4,4 6,7 6,7 z"
         fill="#15244d"
         id="id-35131" />
      <path
         d="m 116,145 -2,-5 c 4,-3 8,-1 11,-2 -5,5 -8,7 -9,7 z"
         fill="#ffffff"
         id="id-35132" />
      <path
         d="m 178,136 c 4,5 10,6 17,3 6,-3 9,-7 9,-13 l -15,-4 c -7,7 -10,12 -11,14 z"
         fill="#00b5ff"
         id="id-35133" />
      <path
         d="m 192,136 4,-12 c -5,-1 -7,-2 -7,-2 l -4,5 c 4,7 6,10 7,9 z"
         fill="#15244d"
         id="id-35134" />
      <path
         d="m 186,127 c 4,2 6,2 6,2 -5,5 -7,8 -7,8 l -4,-3 c 4,-5 5,-7 5,-7 z"
         fill="#ffffff"
         id="id-35135" />
      <path
         d="m 137,189 c 0,1 0,2 0,2 -41,29 -61,43 -61,43 l -2,-2 c 42,-29 63,-43 63,-43 z"
         fill="#ebe2eb"
         id="id-35136" />
      <path
         d="m 136,180 c 0,3 0,4 0,4 -53,21 -79,32 -79,32 l -2,-3 c 54,-22 81,-33 81,-33 z"
         fill="#ebe2eb"
         id="id-35137" />
      <path
         d="m 188,185 c -1,1 -2,1 -2,1 31,20 46,30 46,30 l 2,-1 c -30,-20 -46,-30 -46,-30 z"
         fill="#f5ebf1"
         id="id-35138" />
      <path
         d="m 190,175 c 1,3 1,4 1,4 49,6 74,10 74,10 l -1,-3 c -49,-7 -74,-11 -74,-11 z"
         fill="#f5ebf1"
         id="id-35139" />
      <path
         d="M 86,106 C 65,85 55,74 55,74 l 45,13 c -9,13 -14,19 -14,19 z"
         fill="#626b99"
         id="id-35140" />
      <path
         d="m 201,262 c -7,-9 -10,-14 -10,-14 1,-3 1,-4 1,-4 l 9,6 c 0,8 0,12 0,12 z"
         fill="#f6ecf2"
         id="id-35141" />
      <path
         d="m 181,265 c -6,-10 -9,-15 -9,-15 2,-3 4,-5 4,-5 l 6,6 c -1,9 -1,14 -1,14 z"
         fill="#f6ecf2"
         id="id-35142" />
      <path
         d="m 167,264 c -5,-12 -8,-18 -8,-18 2,-2 2,-3 2,-3 l 6,6 c 0,10 0,15 0,15 z"
         fill="#f6ecf2"
         id="id-35143" />
      <path
         d="m 306,714 c 5,11 7,16 7,16 16,-1 24,-1 24,-1 l -1,-15 c -20,0 -30,0 -30,0 z"
         fill="#42435a"
         id="id-35144" />
      <path
         d="m 348,728 c 13,0 20,0 20,0 -3,-10 -5,-14 -5,-14 h -23 c 5,9 8,14 8,14 z"
         fill="#42435a"
         id="id-35145" />
      <path
         d="m 402,726 c -19,1 -29,1 -29,1 -4,-9 -6,-14 -6,-14 13,-1 19,-1 19,-1 l 8,-3 c 5,11 8,17 8,17 z"
         fill="#42435a"
         id="id-35146" />
      <path
         d="m 408,724 c -6,-11 -9,-17 -9,-17 10,-6 17,-11 19,-14 l 21,13 c -21,12 -31,18 -31,18 z"
         fill="#42435a"
         id="id-35147" />
      <path
         d="m 421,687 c 3,-5 4,-12 4,-18 l 29,1 -9,34 c -16,-11 -24,-17 -24,-17 z"
         fill="#42435a"
         id="id-35148" />
      <path
         d="m 425,664 c 0,-6 -1,-11 -3,-14 18,-8 27,-12 27,-12 l 5,27 c -19,0 -29,-1 -29,-1 z"
         fill="#42435a"
         id="id-35149" />
      <path
         d="m 421,646 c 17,-9 25,-14 25,-14 -4,-7 -10,-13 -18,-19 -1,10 -2,15 -2,15 l -14,7 c 5,3 8,7 9,11 z"
         fill="#42435a"
         id="id-35150" />
      <path
         d="m 408,632 c 10,-4 16,-6 16,-6 v -15 l -7,-4 -30,-1 c -3,8 4,17 21,26 z"
         fill="#42435a"
         id="id-35151" />
      <path
         d="m 440,700 c 3,3 5,4 5,4 10,-18 11,-41 3,-68 -6,-12 -16,-22 -31,-29 -20,-1 -30,-1 -30,-1 17,13 34,14 52,34 4,13 11,40 1,60 z"
         fill="#5c6284"
         id="id-35152" />
      <path
         d="m 453,681 c -6,-25 -12,-43 -19,-55 -14,-12 -17,-2 -47,-20 4,0 14,0 30,1 14,6 24,16 31,29 6,18 7,33 5,45 z"
         fill="#7e8dbf"
         id="id-35153" />
    </g>
    <g
       transform="translate(112,986)"
       fill="#291d1f"
       id="id-35154"
       fill-rule="nonzero">
      <path
         d="m 10,30 c 1,0 2,-1 3,-1 0,-1 1,-2 1,-3 v -7 l -5,3 v 3 H 5 V 5 H 9 V 9 L 14,7 V 4 C 14,3 13,2 13,1 12,0 11,0 10,0 H 4 C 3,0 2,0 2,1 1,2 1,3 1,4 v 22 c 0,1 0,2 1,3 0,0 1,1 2,1 z m 16,0 c 1,0 2,-1 3,-1 0,-1 1,-2 1,-3 V 0 h -5 v 11 l -4,2 V 0 h -4 v 20 l 8,-4 v 9 h -4 v -3 l -4,2 v 2 c 0,1 0,2 1,3 1,0 1,1 3,1 z m 16,0 c 2,0 2,-1 3,-1 1,-1 1,-2 1,-3 V 14 h -1 c 0,0 1,-1 1,-1 0,-1 0,-2 0,-2 V 4 C 46,3 46,2 45,1 44,0 44,0 42,0 H 33 V 30 Z M 38,12 V 5 h 4 v 6 z m 4,13 h -4 v -7 l 4,-2 z m 19,5 v -5 h -6 v -7 l 6,-4 V 9 l -6,4 V 5 h 6 V 0 h -7 c -1,0 -2,0 -3,1 -1,1 -1,2 -1,3 v 26 z m 8,0 V 19 h 1 l 5,11 h 5 L 74,17 77,15 V 4 C 77,3 77,2 76,1 75,0 75,0 73,0 H 64 V 30 Z M 69,14 V 5 h 4 v 7 z"
         id="id-35155" />
      <path
         d="m 6,54 c 1,0 2,0 2,-1 1,0 1,-1 1,-2 V 43 H 8 c 0,0 0,0 1,-1 0,0 0,-1 0,-1 V 36 C 9,36 9,35 8,35 8,34 7,34 6,34 H 0 V 54 Z M 3,42 v -5 h 3 v 4 z m 3,9 H 3 v -5 l 3,-2 z m 9,3 v -7 l 1,-1 3,8 h 3 l -4,-9 3,-1 v -8 c 0,0 -1,-1 -1,-1 -1,-1 -1,-1 -2,-1 h -6 v 20 z m 0,-11 v -6 h 2 v 5 z m 15,11 c 0,0 1,0 1,-1 1,0 1,-1 1,-2 V 36 c 0,0 0,-1 -1,-1 0,-1 -1,-1 -1,-1 h -4 c -1,0 -1,0 -2,1 0,0 -1,1 -1,1 v 15 c 0,1 1,2 1,2 1,1 1,1 2,1 z M 29,51 H 27 V 37 h 2 z m 9,3 v -6 l 2,-3 3,9 h 3 l -5,-12 4,-8 h -3 l -4,8 v -8 h -3 v 20 z m 17,0 v -3 h -5 v -5 l 5,-3 v -3 l -5,2 v -5 h 5 v -3 h -5 c -1,0 -1,0 -2,1 -1,0 -1,1 -1,1 v 18 z m 6,0 v -7 -1 l 4,8 h 3 l -4,-9 2,-1 v -8 c 0,0 0,-1 0,-1 -1,-1 -2,-1 -2,-1 h -7 v 20 z m 0,-11 v -6 h 2 v 5 z m 14,11 c 1,0 2,0 2,-1 1,0 1,-1 1,-2 V 39 l -6,3 v -5 h 3 v 2 l 3,-2 v -1 c 0,0 0,-1 -1,-1 0,-1 -1,-1 -2,-1 h -3 c -1,0 -2,0 -2,1 -1,0 -1,1 -1,1 v 11 l 6,-3 v 7 h -3 v -3 l -3,1 v 2 c 0,1 0,2 1,2 0,1 1,1 2,1 z"
         id="id-35156" />
    </g>
    <g
       transform="translate(456,1175)"
       fill="#201812"
       id="id-35157">
      <path
         d="m 35,11 c 3,2 5,5 6,11 7,-2 17,-3 20,6 2,10 0,18 -11,22 8,9 12,13 12,13 -3,3 -4,5 -4,5 v 0 0 c -4,-4 -5,-6 -5,-6 0,3 0,6 2,8 3,-1 5,-1 5,-1 2,2 3,4 3,4 h 1 v 0 C 25,83 6,88 6,88 2,88 0,88 0,88 0,87 0,86 0,86 v 0 0 C 34,76 50,71 50,71 47,69 46,66 47,61 37,66 27,62 15,46 7,34 3,24 8,20 9,16 31,22 34,46 33,44 32,43 31,42 V 41 C 23,32 14,24 12,27 c -2,5 18,36 32,27 -3,-3 -5,-5 -5,-5 0,-3 0,-4 0,-4 2,-1 3,-1 3,-1 -2,-7 -3,-12 -3,-14 v 0 c 0,0 0,-1 0,-1 -3,1 -4,1 -4,1 v -1 0 c 2,-2 2,-3 2,-3 -1,-7 -2,-10 -2,-10 0,-3 0,-5 0,-5 z m 8,16 c 3,11 4,16 4,16 8,-4 11,-8 9,-14 -3,-7 -13,-2 -13,-2 z"
         id="path200" />
      <path
         d="m 100,8 c 3,2 4,4 4,4 3,-2 4,-4 4,-4 10,1 16,1 16,1 v 0 0 c 14,4 23,-1 23,9 0,3 -4,6 -9,0 -3,2 -6,-1 -9,-3 v 0 c -2,-2 -4,-3 -6,-4 0,4 0,6 0,6 -7,0 -10,-1 -10,-1 4,42 6,63 6,63 18,-2 27,-3 27,-3 -1,3 -1,6 4,7 -28,4 -42,6 -42,6 C 97,83 91,80 91,80 90,68 89,62 89,62 85,59 84,53 85,45 c 2,0 3,-1 3,-1 -1,-5 -2,-7 -2,-7 -2,1 -5,17 -9,40 5,6 7,9 7,9 6,-2 9,-3 9,-3 3,9 4,14 4,14 2,-1 3,-2 4,-2 v 0 c 0,0 0,0 0,0 2,8 3,13 3,13 v 0 0 c 2,8 -2,7 -5,4 C 96,99 94,92 94,91 v 0 c 0,0 0,0 0,0 l -21,4 -4,21 -7,4 v -4 0 c 3,-1 4,-2 4,-2 v 0 0 c 0,0 0,0 0,-1 h -1 c -1,-1 -1,-2 -1,-2 2,-9 3,-14 3,-14 -8,2 -16,5 -26,10 -2,-1 -2,-1 -2,-1 0,-4 0,-6 0,-6 8,-7 12,-11 12,-11 1,7 2,10 2,10 5,-5 9,-7 13,-8 v 0 c 1,-1 1,-1 1,-1 h 1 c 0,0 0,0 0,0 1,-7 2,-10 2,-10 -5,5 -8,7 -8,7 0,0 0,-1 0,-1 h -1 c 0,0 0,0 0,0 v -1 c 0,0 -1,0 -1,0 v -1 c 0,0 0,0 -1,0 v -1 c 0,0 0,0 0,0 v 0 c -1,0 -1,0 -1,0 2,-2 3,-3 4,-4 h 1 c 0,-1 1,-1 1,-2 v 0 c 1,0 1,0 1,0 v 0 c 0,-1 0,-1 0,-1 v 0 c 0,0 0,0 0,0 0,-2 -1,-3 -1,-3 8,6 12,9 12,9 -3,-9 -5,-14 -5,-14 2,-1 2,-1 2,-1 3,-12 4,-18 4,-18 -3,5 -9,10 -11,4 -2,-2 -3,-13 -3,-32 3,1 4,2 4,2 0,1 0,2 0,3 v 0 c 0,1 0,1 0,1 v 1 0 1 c 0,0 0,1 0,1 v 1 0 1 0 0 c 1,9 1,16 4,15 3,-2 5,-13 10,-30 4,0 5,0 5,0 1,7 2,11 2,11 4,-2 8,-1 13,0 -1,3 -2,5 -2,5 4,1 7,5 10,9 0,-17 0,-26 -1,-26 v 0 0 C 95,15 89,14 89,14 88,10 87,8 87,8 c 8,0 13,0 13,0 z M 75,85 c 0,3 -1,4 -1,4 3,0 5,0 5,0 l -1,-3 c -2,-1 -3,-1 -3,-1 z m 36,-34 c -2,12 -7,17 -16,16 2,10 3,15 3,15 7,-1 12,-2 15,-2 v 0 c 0,0 1,0 1,0 v 0 c 1,0 1,0 1,0 -2,-7 -3,-17 -4,-27 z M 90,33 c 2,17 3,26 3,26 5,4 13,-3 12,-12 0,-7 -5,-15 -15,-14 z"
         id="path202" />
      <path
         d="m 134,61 c -14,-3 -18,-13 -16,-29 0,0 3,-1 3,-1 -1,9 3,21 15,23 10,0 11,-10 6,-17 -5,-5 -11,3 -8,5 2,2 1,7 -4,5 -5,-4 -5,-14 2,-17 6,-4 20,-1 20,16 -1,8 -6,16 -18,15 z"
         id="path204" />
      <path
         d="m 136,70 7,-3 c 32,0 47,0 47,0 -1,3 -2,5 -2,5 6,-2 10,-3 10,-3 -1,9 -1,14 -1,14 -23,10 -34,15 -34,15 -5,-4 -7,-7 -7,-7 0,0 0,-1 0,-1 5,3 7,4 7,4 1,-12 2,-18 2,-18 10,-1 15,-2 15,-2 -10,0 -15,0 -15,0 v -2 c -7,5 -17,4 -29,-2 z"
         id="path206" />
      <path
         d="m 80,0 c -1,6 -1,9 -1,9 -7,1 -11,2 -11,2 8,2 12,4 12,4 1,-1 2,-2 1,-6 4,-5 3,-8 -1,-9 z"
         id="path208" />
    </g>
    <g
       transform="translate(634,821)"
       id="g231">
      <path
         d="M 4,5 C 1,88 0,129 0,129 c 127,1 190,1 190,1 L 193,4 C 67,4 4,5 4,5 Z"
         fill="#31141a"
         id="path211" />
      <path
         d="M 10,1 C 7,85 6,126 6,126 c 127,1 191,1 191,1 L 200,0 C 73,1 10,1 10,1 Z"
         fill="#a2a4c1"
         id="path213" />
      <path
         d="m 17,10 c -3,73 -4,109 -4,109 116,2 174,3 174,3 L 188,8 C 74,9 17,10 17,10 Z"
         stroke="#979797"
         id="path215" />
      <path
         d="m 13,120 c 116,2 174,3 174,3 1,-77 1,-115 1,-115 L 17,10 c -3,73 -4,110 -4,110 z"
         fill="#9f8885"
         id="path217" />
      <path
         d="m 15,51 c 60,15 117,39 172,71 L 13,119 Z"
         fill="#a0939c"
         id="path219" />
      <path
         d="m 83,86 c 0,9 1,14 1,14 12,-1 18,-1 18,-1 L 98,86 c -10,0 -15,0 -15,0 z"
         fill="#7c6c78"
         id="path221" />
      <path
         d="m 80,21 c 0,7 -1,11 -1,11 66,1 99,1 99,1 l 1,-12 c -66,0 -99,0 -99,0 z"
         fill="#7c6c78"
         id="path223" />
      <path
         d="m 81,44 c 0,7 0,10 0,10 63,0 94,-1 94,-1 l 2,-9 c -64,0 -96,0 -96,0 z"
         fill="#7c6c78"
         id="path225" />
      <path
         d="m 81,65 c 0,8 0,12 0,12 30,-2 45,-3 45,-3 l -1,-7 C 95,66 81,65 81,65 Z"
         fill="#7c6c78"
         id="path227" />
      <path
         d="m 112,91 c 2,8 2,12 2,12 42,-2 63,-3 63,-3 l -2,-7 c -42,-1 -63,-2 -63,-2 z"
         fill="#7c6c78"
         id="path229" />
    </g>
    <g
       transform="translate(657,838)"
       id="id-35174">
      <polygon
         points="42,42 42,0 0,0 0,42 "
         fill="#ffffff"
         id="polygon233" />
      <path
         d="M 11,1 V 11 H 1 V 1 1 Z M 9,3 H 3 v 6 h 6 z"
         fill="#000000"
         id="path235" />
      <polygon
         points="8,8 8,4 4,4 4,8 "
         fill="#000000"
         id="polygon237" />
      <path
         d="m 14,1 v 2 h -2 v 1 h 2 v 1 h -2 v 2 h 3 V 5 h 1 v 2 h 2 V 4 h 2 v 1 h -1 v 2 h -1 v 1 h 2 V 7 h 2 V 5 h 2 V 4 h 2 V 3 h 2 v 1 h 2 V 1 H 23 V 3 H 22 V 1 h -2 c 0,1 0,2 0,2 H 16 V 4 H 15 V 1 Z"
         fill="#000000"
         id="path239" />
      <polygon
         points="16,7 15,7 15,11 16,11 "
         fill="#000000"
         id="polygon241" />
      <polygon
         points="14,11 12,11 12,8 14,8 "
         fill="#000000"
         id="polygon243" />
      <path
         d="m 8,12 v 2 H 7 v 1 h 4 v 1 H 9 v 2 h 5 V 15 H 12 V 14 H 9 v -2 h 7 v 2 h -1 v 2 h 1 v -1 h 3 v 1 h -1 v 3 h -2 v 1 h -2 v 2 H 9 v 1 h 5 v 1 H 8 v 2 H 7 V 24 H 5 V 23 H 3 v 1 h 1 v 2 H 3 v 4 H 1 V 18 H 3 V 15 H 1 v -3 z m 0,4 H 5 v 2 H 4 v 1 h 1 v 1 H 3 v 0 2 h 2 v 1 h 2 v -1 h 2 v -2 h 2 V 19 H 9 v 1 H 8 Z m 6,3 h -2 v 1 h 2 z m 2,-1 h -1 v 1 h 1 z M 5,14 H 4 v 1 h 1 z"
         fill="#000000"
         id="path245" />
      <polygon
         points="4,28 4,30 7,30 7,27 5,27 5,28 "
         fill="#000000"
         id="polygon247" />
      <polygon
         points="11,27 11,26 8,26 8,27 "
         fill="#000000"
         id="polygon249" />
      <polygon
         points="11,28 9,28 9,30 11,30 "
         fill="#000000"
         id="polygon251" />
      <polygon
         points="12,28 12,27 11,27 11,28 "
         fill="#000000"
         id="polygon253" />
      <polygon
         points="12,26 14,26 14,27 12,27 "
         fill="#000000"
         id="polygon255" />
      <polygon
         points="15,26 15,24 14,24 14,26 "
         fill="#000000"
         id="polygon257" />
      <polygon
         points="19,23 20,23 20,26 19,26 19,24 18,24 18,22 19,22 "
         fill="#000000"
         id="polygon259" />
      <polygon
         points="18,27 18,30 16,30 16,28 15,28 15,30 14,30 14,32 16,32 16,34 14,34 14,35 15,35 15,37 19,37 19,35 18,35 18,32 19,32 19,34 20,34 20,32 22,32 22,31 23,31 23,30 24,30 24,28 27,28 27,31 24,31 24,34 23,34 23,32 22,32 22,35 20,35 20,37 19,37 19,38 18,38 18,39 19,39 19,41 16,41 16,38 15,38 15,39 14,39 14,41 12,41 12,34 14,34 14,32 12,32 12,28 14,28 14,27 15,27 15,26 19,26 19,27 "
         fill="#000000"
         id="polygon261" />
      <path
         d="M 11,31 V 41 H 1 V 31 Z M 9,33 H 3 v 6 h 6 z"
         fill="#000000"
         id="path263" />
      <polygon
         points="22,38 22,37 23,37 23,35 24,35 24,34 26,34 26,35 24,35 24,37 23,37 23,38 22,38 22,39 20,39 20,38 "
         fill="#000000"
         id="polygon265" />
      <polygon
         points="26,41 26,39 22,39 22,41 "
         fill="#000000"
         id="polygon267" />
      <polygon
         points="27,39 27,41 28,41 28,39 27,39 27,37 26,37 26,39 "
         fill="#000000"
         id="polygon269" />
      <path
         d="m 30,23 v 3 h 1 v 1 h 2 v 1 h 2 v 2 h 2 v -2 0 h 1 v -1 h 1 v 1 h 2 v 3 h -3 v 2 h -3 v 2 h 2 v -1 h 2 v -1 h 2 v 4 h -2 v 2 h -1 v -1 h -1 v 1 h -2 v -1 h -1 v 1 h -1 v 2 h -2 v -3 h -1 v 1 h -2 v -2 h -1 v 0 -2 h 1 v -1 h -1 v -3 h 1 v -5 h -2 v -2 h 2 v -1 z m 5,12 h -1 v 2 h 1 z m -2,0 h -3 v 2 h 3 z m 1,-5 h -4 v 4 h 4 z"
         fill="#000000"
         id="path271" />
      <polygon
         points="33,33 33,31 31,31 31,33 "
         fill="#000000"
         id="polygon273" />
      <polygon
         points="35,24 35,27 33,27 33,26 31,26 31,24 "
         fill="#000000"
         id="polygon275" />
      <polygon
         points="38,23 35,23 35,24 37,24 37,27 38,27 "
         fill="#000000"
         id="polygon277" />
      <polygon
         points="39,26 41,26 41,24 39,24 "
         fill="#000000"
         id="polygon279" />
      <polygon
         points="39,22 38,22 38,23 39,23 "
         fill="#000000"
         id="id-35199" />
      <polygon
         points="38,20 38,22 35,22 35,20 "
         fill="#000000"
         id="polygon282" />
      <polygon
         points="34,22 35,22 35,23 34,23 "
         fill="#000000"
         id="polygon284" />
      <polygon
         points="39,19 41,19 41,20 39,20 "
         fill="#000000"
         id="id-35202" />
      <polygon
         points="30,19 30,18 28,18 28,19 26,19 26,18 24,18 24,19 23,19 23,20 26,20 26,23 28,23 28,22 27,22 27,20 30,20 30,23 33,23 33,22 31,22 31,20 35,20 35,19 "
         fill="#000000"
         id="id-35203" />
      <polygon
         points="24,23 24,22 23,22 23,20 22,20 22,23 "
         fill="#000000"
         id="polygon288" />
      <polygon
         points="26,24 26,23 24,23 24,24 "
         fill="#000000"
         id="polygon290" />
      <polygon
         points="23,26 23,24 24,24 24,26 "
         fill="#000000"
         id="polygon292" />
      <polygon
         points="22,27 22,28 23,28 23,30 19,30 19,28 20,28 20,26 23,26 23,27 "
         fill="#000000"
         id="polygon294" />
      <polygon
         points="19,30 18,30 18,31 19,31 "
         fill="#000000"
         id="polygon296" />
      <polygon
         points="20,19 23,19 23,18 24,18 24,14 23,14 23,15 22,15 22,12 24,12 24,9 26,9 26,8 30,8 30,7 28,7 28,5 24,5 24,8 22,8 22,9 23,9 23,11 22,11 22,9 20,9 20,12 19,12 19,9 18,9 18,14 20,14 20,16 22,16 22,18 19,18 19,19 18,19 18,20 20,20 "
         fill="#000000"
         id="polygon298" />
      <polygon
         points="27,9 26,9 26,11 27,11 "
         fill="#000000"
         id="polygon300" />
      <polygon
         points="28,11 27,11 27,15 28,15 28,12 30,12 30,9 28,9 "
         fill="#000000"
         id="polygon302" />
      <polygon
         points="30,14 31,14 31,12 30,12 "
         fill="#000000"
         id="polygon304" />
      <polygon
         points="26,12 24,12 24,14 26,14 "
         fill="#000000"
         id="polygon306" />
      <polygon
         points="28,16 28,18 26,18 26,16 "
         fill="#000000"
         id="polygon308" />
      <polygon
         points="31,15 31,16 33,16 33,15 31,15 31,14 33,14 33,12 34,12 34,14 35,14 35,16 37,16 37,18 38,18 38,19 35,19 35,18 30,18 30,16 28,16 28,15 "
         fill="#000000"
         id="polygon310" />
      <polygon
         points="37,12 37,14 35,14 35,12 "
         fill="#000000"
         id="polygon312" />
      <polygon
         points="39,14 39,12 38,12 38,14 "
         fill="#000000"
         id="polygon314" />
      <polygon
         points="41,15 41,14 39,14 39,15 "
         fill="#000000"
         id="polygon316" />
      <polygon
         points="39,18 39,16 38,16 38,18 "
         fill="#000000"
         id="polygon318" />
      <path
         d="M 41,1 V 11 H 31 V 1 Z m -2,2 h -6 v 6 h 6 z"
         fill="#000000"
         id="path320" />
      <polygon
         points="38,8 38,4 34,4 34,8 "
         fill="#000000"
         id="polygon322" />
      <polygon
         points="8,38 8,34 4,34 4,38 "
         fill="#000000"
         id="polygon324" />
      <polygon
         points="35,39 34,39 34,41 35,41 "
         fill="#000000"
         id="polygon326" />
      <polygon
         points="38,39 37,39 37,41 38,41 "
         fill="#000000"
         id="polygon328" />
    </g>
    <g
       transform="translate(596,929)"
       id="id-35225">
      <path
         d="m 50,106 c -1,1 -2,2 -2,2 -18,4 -28,5 -28,5 -2,-2 -3,-3 -3,-3 4,-6 7,-9 7,-9 C 15,73 11,58 11,58 9,53 7,50 7,50 7,46 8,44 8,44 3,43 0,43 0,43 1,27 2,19 2,19 8,18 11,18 11,18 22,6 35,-2 61,4 65,3 69,3 72,7 81,6 85,5 85,5 c 13,6 23,15 29,40 2,4 4,5 4,5 -2,19 -2,28 -2,28 -4,8 -6,11 -6,11 -12,4 -19,6 -19,6 -4,-2 -6,-3 -6,-3 -1,4 -1,6 -1,6 -8,5 -12,8 -12,8 -5,0 -12,1 -20,3 -1,-2 -2,-3 -2,-3 z"
         fill="#30161c"
         id="id-35226" />
      <path
         d="m 51,104 c -1,1 -2,2 -2,2 -18,4 -28,5 -28,5 -2,-2 -3,-3 -3,-3 4,-6 7,-9 7,-9 C 16,71 12,56 12,56 10,51 8,48 8,48 8,44 9,42 9,42 4,41 1,41 1,41 2,25 3,17 3,17 9,16 12,16 12,16 23,4 36,-4 62,2 66,1 70,1 73,5 82,4 86,3 86,3 c 13,6 23,15 29,40 2,4 4,5 4,5 -2,19 -2,28 -2,28 -4,8 -6,11 -6,11 -12,4 -19,6 -19,6 -4,-2 -6,-3 -6,-3 -1,4 -1,6 -1,6 -8,5 -12,8 -12,8 -5,0 -12,1 -20,3 -1,-2 -2,-3 -2,-3 z"
         fill="url(#id-34998)"
         id="path332"
         style="fill:url(#id-34998)" />
      <path
         d="m 46,2 c 6,0 12,1 20,4 2,-1 3,-1 3,-1 2,2 3,3 3,3 7,-1 13,-1 18,0 11,7 20,16 22,37 1,2 2,3 2,4 v 1 c 1,0 1,1 1,1 0,8 0,16 -2,25 -3,6 -4,9 -4,9 -12,3 -18,5 -18,5 -2,-2 -3,-3 -3,-3 -1,-5 0,-10 3,-15 -2,0 -3,0 -3,0 -4,14 -6,21 -6,21 -6,4 -9,5 -9,5 -13,3 -20,4 -20,4 4,-10 8,-20 10,-33 -4,2 -8,4 -11,5 v 5 h 8 v 0 l -8,4 c 1,8 2,12 2,12 -3,5 -4,7 -4,7 -18,3 -27,5 -27,5 3,-6 5,-8 5,-8 C 22,83 19,62 12,49 12,43 11,40 11,40 7,37 5,36 5,36 v 0 0 C 7,25 8,20 8,20 11,20 13,19 13,19 21,11 31,4 46,2 Z M 64,8 C 47,4 31,10 17,20 c 0,0 1,3 2,10 0,0 -2,3 -5,8 0,0 1,4 1,11 0,0 3,6 10,17 11,8 33,7 41,-3 0,0 0,0 1,0 v -1 c 1,-1 7,-8 9,-15 2,-11 0,-18 -2,-22 0,0 -1,1 -2,2 -6,-5 -9,-10 -12,-15 0,0 0,0 0,0 v 0 c 0,0 1,-2 4,-4 z m 11,3 5,9 c -3,2 -4,3 -4,3 v 0 c 0,0 0,0 0,0 13,10 13,24 12,46 9,-3 16,-13 22,-29 C 105,28 92,5 75,11 Z"
         fill="#000000"
         id="path334" />
      <path
         d="m 58,28 c 5,3 9,8 12,14 v 0 l -7,7 C 56,45 53,41 50,35 c 0,0 3,-2 8,-7 z m 2,8 c -1,1 -2,1 -2,1 v 2 0 c 2,1 3,1 3,1 1,-1 1,-2 1,-2 z"
         fill="#000000"
         id="path336" />
      <path
         d="m 29,35 c 6,3 9,4 9,4 0,5 0,7 0,7 -4,8 -7,13 -7,13 l -9,-7 c 5,-11 7,-17 7,-17 z m 3,10 c -2,0 -2,1 -2,1 -1,1 -2,2 -2,2 v 0 0 l 4,1 c 0,-3 0,-4 0,-4 z"
         fill="#000000"
         id="path338" />
      <path
         d="m 38,48 c 5,-5 7,-7 7,-7 2,1 4,2 8,2 -1,2 -4,2 -7,2 -4,2 -6,4 -8,3 z"
         fill="#000000"
         id="path340" />
      <path
         d="m 43,54 c 2,0 3,0 3,0 1,-1 1,-1 1,-1 5,-1 7,-2 7,-2 0,3 -1,5 -4,8 1,2 3,3 5,2 -1,2 -1,3 -1,3 -1,0 -3,-1 -4,-2 -2,0 -2,2 -2,4 -2,1 -3,-1 -4,-2 4,-2 3,-4 2,-6 l -4,-2 c 0,-1 1,-2 1,-2 z"
         fill="#000000"
         id="path342" />
      <path
         d="m 64,51 c 0,5 0,7 0,7 -3,4 -4,6 -4,6 l 7,-7 c -2,-4 -3,-6 -3,-6 z"
         fill="#000000"
         id="path344" />
      <path
         d="m 41,68 c -5,-5 -8,-7 -8,-7 0,2 0,3 0,3 l 3,3 c 3,1 5,1 5,1 z"
         fill="#000000"
         id="path346" />
    </g>
    <g
       transform="translate(257,848)"
       fill="#201812"
       id="id-35235">
      <path
         d="M 69,83 V 40 h 5 V 33 H 57 v 7 h 6 v 43 z m 23,0 c 2,0 3,-1 4,-2 1,-1 2,-3 2,-4 v 0 -38 c 0,-1 -1,-3 -2,-4 -1,-1 -2,-2 -4,-2 v 0 h -7 c -1,0 -3,1 -4,2 -1,1 -2,3 -2,4 v 0 38 c 0,1 1,3 2,4 1,1 3,2 4,2 v 0 z m -2,-7 h -3 c 0,0 0,0 -1,0 0,0 0,-1 0,-1 v 0 -34 c 0,0 0,-1 0,-1 1,0 1,0 1,0 v 0 h 3 c 1,0 1,0 1,0 0,0 1,1 1,1 v 0 34 c 0,0 -1,1 -1,1 0,0 0,0 -1,0 z m 22,7 V 61 h 7 c 1,0 3,-1 4,-2 1,-1 2,-2 2,-4 v 0 -16 c 0,-1 -1,-3 -2,-4 -1,-1 -3,-2 -4,-2 v 0 h -13 v 50 z m 5,-28 h -5 V 40 h 5 c 0,0 1,0 1,0 0,0 0,1 0,1 v 0 12 c 0,1 0,1 0,1 0,1 -1,1 -1,1 z m 39,28 c 1,0 3,0 4,-2 1,-1 1,-2 1,-4 v 0 -15 c 0,-2 0,-3 -1,-5 -1,-1 -3,-1 -4,-1 v 0 h -5 c -1,0 -1,0 -1,-1 -1,0 -1,0 -1,-1 v 0 -12 c 0,-1 0,-1 1,-1 0,-1 0,-1 1,-1 v 0 h 3 c 0,0 0,0 1,1 0,0 0,0 0,1 v 0 9 h 6 V 40 c 0,-2 0,-3 -1,-4 -1,-1 -3,-2 -4,-2 v 0 h -7 c -2,0 -3,1 -4,2 -1,1 -2,2 -2,4 v 0 16 c 0,1 1,3 2,4 1,1 2,2 4,2 v 0 h 5 c 0,0 0,0 1,0 0,0 0,1 0,1 v 0 13 c 0,0 0,0 0,1 -1,0 -1,0 -1,0 v 0 h -3 c -1,0 -1,0 -1,0 -1,-1 -1,-1 -1,-1 v 0 -10 h -6 v 11 c 0,2 1,3 2,4 1,2 2,2 4,2 v 0 z m 29,0 v -6 h -8 V 62 h 8 v -6 h -8 V 41 h 8 v -7 h -14 v 49 z m 18,0 c 2,0 3,0 5,-2 1,-1 1,-2 1,-4 v 0 -14 h -6 v 13 c 0,0 0,0 0,1 -1,0 -1,0 -1,0 v 0 h -3 c -1,0 -1,0 -1,0 -1,-1 -1,-1 -1,-1 v 0 -34 c 0,-1 0,-1 1,-1 0,-1 0,-1 1,-1 v 0 h 3 c 0,0 0,0 1,1 0,0 0,0 0,1 v 0 12 h 6 V 40 c 0,-2 0,-3 -1,-4 -2,-1 -3,-2 -5,-2 v 0 h -6 c -2,0 -3,1 -4,2 -1,1 -2,2 -2,4 v 0 37 c 0,2 1,3 2,4 1,2 2,2 4,2 v 0 z m 21,0 V 62 h 1 l 8,21 h 7 l -8,-22 c 1,0 2,-1 3,-2 0,-1 1,-2 1,-3 v 0 -16 c 0,-2 -1,-3 -2,-4 -1,-1 -2,-2 -4,-2 v 0 h -13 v 49 z m 4,-28 h -4 V 40 h 4 c 0,0 1,0 1,1 0,0 0,0 0,1 v 0 12 c 0,0 0,1 0,1 0,0 -1,0 -1,0 z m 31,28 v -6 h -8 V 62 h 8 v -6 h -8 V 40 h 8 v -6 h -15 v 49 z m 16,0 V 40 h 5 v -6 h -17 v 6 h 5 v 43 z"
         transform="rotate(-10,169,58)"
         id="id-35236"
         fill-rule="nonzero" />
      <path
         d="m 24,110 c -6,2 -9,4 -9,4 C 5,72 0,51 0,51 204,17 305,0 305,0 301,5 299,8 299,8 111,38 17,53 17,53 c -3,1 -4,3 -3,5 6,35 10,52 10,52 z"
         id="id-35237" />
      <path
         d="m 1,121 c 2,4 3,5 3,5 C 220,88 327,69 327,69 319,24 315,2 315,2 c -5,1 -7,1 -7,1 l 9,61 C 106,102 1,121 1,121 Z"
         id="id-35238" />
    </g>
  </g>
</svg>
