<?xml version="1.0" encoding="UTF-8" standalone="no"?>
<svg
   width="67"
   height="104"
   viewBox="0 0 67 104"
   version="1.1"
   id="svg8"
   sodipodi:docname="cb-layer-0175.svg"
   xmlns:inkscape="http://www.inkscape.org/namespaces/inkscape"
   xmlns:sodipodi="http://sodipodi.sourceforge.net/DTD/sodipodi-0.dtd"
   xmlns="http://www.w3.org/2000/svg"
   xmlns:svg="http://www.w3.org/2000/svg">
  <sodipodi:namedview
     id="namedview10"
     pagecolor="#ffffff"
     bordercolor="#666666"
     borderopacity="1.0"
     inkscape:pageshadow="2"
     inkscape:pageopacity="0.0"
     inkscape:pagecheckerboard="0" />
  <defs
     id="defs2" />
  <g
     id="id-35887">
    <path
       d="M 51,19 C 49,14 48,11 48,11 27,11 16,11 16,11 16,47 15,65 15,65 5,65 0,64 0,64 1,21 1,0 1,0 h 52 c -1,13 -2,19 -2,19 z"
       fill="#ba342e"
       id="id-35888" />
    <path
       d="M 56,2 C 54,36 53,53 53,53 34,61 24,64 24,64 53,64 67,63 67,63 V 2 C 59,2 56,2 56,2 Z"
       fill="#ba342e"
       id="id-35889" />
    <path
       d="m 34,78 c -8,8 -12,12 -12,12 8,9 13,14 13,14 L 47,89 C 38,81 34,78 34,78 Z"
       fill="#f4a732"
       id="id-35890" />
  </g>
</svg>
