<?xml version="1.0" encoding="UTF-8" standalone="no"?>
<svg
   width="648.64557"
   height="972"
   viewBox="0 0 648.64557 972"
   version="1.1"
   id="svg640"
   sodipodi:docname="cb-layer-1009.svg"
   xmlns:inkscape="http://www.inkscape.org/namespaces/inkscape"
   xmlns:sodipodi="http://sodipodi.sourceforge.net/DTD/sodipodi-0.dtd"
   xmlns="http://www.w3.org/2000/svg"
   xmlns:svg="http://www.w3.org/2000/svg">
  <sodipodi:namedview
     id="namedview642"
     pagecolor="#ffffff"
     bordercolor="#666666"
     borderopacity="1.0"
     inkscape:pageshadow="2"
     inkscape:pageopacity="0.0"
     inkscape:pagecheckerboard="0" />
  <defs
     id="defs304">
    <linearGradient
       x1="389.06345"
       y1="87.249216"
       x2="389.06345"
       y2="779.78216"
       id="id-79964"
       gradientTransform="scale(0.8276285,1.2082716)"
       gradientUnits="userSpaceOnUse">
      <stop
         stop-color="#D4D4DB"
         offset="0%"
         id="stop2" />
      <stop
         stop-color="#C2C3CD"
         offset="32%"
         id="stop4" />
      <stop
         stop-color="#C2C3CD"
         offset="58%"
         id="stop6" />
      <stop
         stop-color="#C2C3CD"
         offset="100%"
         id="stop8" />
    </linearGradient>
    <linearGradient
       x1="488.73086"
       y1="66.619509"
       x2="488.73086"
       y2="599.57559"
       id="id-79965"
       gradientTransform="scale(0.71000223,1.4084463)"
       gradientUnits="userSpaceOnUse">
      <stop
         stop-color="#EEECF3"
         offset="0%"
         id="stop11" />
      <stop
         stop-color="#D3D3DB"
         offset="24%"
         id="stop13" />
      <stop
         stop-color="#D8D7DF"
         offset="100%"
         id="stop15" />
    </linearGradient>
    <linearGradient
       x1="136.67003"
       y1="60.67121"
       x2="17.998991"
       y2="60.67121"
       id="id-79966"
       gradientTransform="scale(0.83338005,1.1999327)"
       gradientUnits="userSpaceOnUse">
      <stop
         stop-color="#7D848F"
         offset="0%"
         id="stop18" />
      <stop
         stop-color="#F8F8DF"
         offset="18%"
         id="stop20" />
      <stop
         stop-color="#F8F8DF"
         offset="80%"
         id="stop22" />
      <stop
         stop-color="#5D6370"
         offset="100%"
         id="stop24" />
    </linearGradient>
    <linearGradient
       x1="68.739429"
       y1="83.968165"
       x2="68.739429"
       y2="131.97666"
       id="id-79967"
       gradientTransform="scale(0.91650455,1.0911021)"
       gradientUnits="userSpaceOnUse">
      <stop
         stop-color="#F9EFEF"
         offset="0%"
         id="stop27" />
      <stop
         stop-color="#F9EFEF"
         offset="100%"
         id="stop29" />
    </linearGradient>
    <linearGradient
       x1="162.35638"
       y1="105.84807"
       x2="132.73797"
       y2="140.40288"
       id="id-79968"
       gradientTransform="scale(1.0733978,0.93162107)"
       gradientUnits="userSpaceOnUse">
      <stop
         stop-color="#FCFCF1"
         offset="0%"
         id="stop32" />
      <stop
         stop-color="#686E75"
         offset="100%"
         id="stop34" />
    </linearGradient>
    <linearGradient
       x1="74.47348"
       y1="0"
       x2="74.47348"
       y2="148.52433"
       id="id-79969"
       gradientTransform="scale(0.92251139,1.0839975)"
       gradientUnits="userSpaceOnUse">
      <stop
         stop-color="#5B947C"
         offset="0%"
         id="stop37" />
      <stop
         stop-color="#6CAA54"
         offset="69%"
         id="stop39" />
      <stop
         stop-color="#4D7336"
         offset="82%"
         id="stop41" />
      <stop
         stop-color="#799E3A"
         offset="100%"
         id="stop43" />
    </linearGradient>
    <linearGradient
       x1="56.761983"
       y1="125.19789"
       x2="60.65403"
       y2="157.11267"
       id="id-79970"
       gradientTransform="scale(1.1714597,0.85363585)"
       gradientUnits="userSpaceOnUse">
      <stop
         stop-color="#75BE63"
         offset="0%"
         id="stop46" />
      <stop
         stop-color="#7ABA58"
         offset="47%"
         id="stop48" />
      <stop
         stop-color="#79BF57"
         offset="100%"
         id="stop50" />
    </linearGradient>
    <linearGradient
       x1="51.128856"
       y1="12.693646"
       x2="59.121151"
       y2="68.63972"
       id="id-79971"
       gradientTransform="scale(1.0684888,0.93590127)"
       gradientUnits="userSpaceOnUse">
      <stop
         stop-color="#C4E9E1"
         offset="0%"
         id="stop53" />
      <stop
         stop-color="#90D99C"
         offset="43%"
         id="stop55" />
      <stop
         stop-color="#97DA8F"
         offset="69%"
         id="stop57" />
      <stop
         stop-color="#629E59"
         offset="100%"
         id="stop59" />
    </linearGradient>
    <linearGradient
       x1="57.969009"
       y1="129.49463"
       x2="57.969009"
       y2="165.97193"
       id="id-79972"
       gradientTransform="scale(1.1547395,0.86599615)"
       gradientUnits="userSpaceOnUse">
      <stop
         stop-color="#A3F080"
         offset="0%"
         id="stop62" />
      <stop
         stop-color="#90E06C"
         offset="100%"
         id="stop64" />
    </linearGradient>
    <linearGradient
       x1="48.299068"
       y1="105.09519"
       x2="34.88266"
       y2="105.09519"
       id="id-79973"
       gradientTransform="scale(1.490712,0.67082039)"
       gradientUnits="userSpaceOnUse">
      <stop
         stop-color="#B7697D"
         offset="0%"
         id="stop67" />
      <stop
         stop-color="#F391AA"
         offset="51%"
         id="stop69" />
      <stop
         stop-color="#B46479"
         offset="100%"
         id="stop71" />
    </linearGradient>
    <linearGradient
       x1="80.906993"
       y1="28.888431"
       x2="80.906993"
       y2="48.146066"
       id="id-79974"
       gradientTransform="scale(0.99615278,1.0038621)"
       gradientUnits="userSpaceOnUse">
      <stop
         stop-color="#96F4FB"
         offset="0%"
         id="stop74" />
      <stop
         stop-color="#DB6878"
         offset="100%"
         id="stop76" />
    </linearGradient>
    <linearGradient
       x1="87.799907"
       y1="38.865522"
       x2="72.477271"
       y2="38.865522"
       id="id-79975"
       gradientTransform="scale(1.0072123,0.99283933)"
       gradientUnits="userSpaceOnUse">
      <stop
         stop-color="#80818B"
         offset="0%"
         id="stop79" />
      <stop
         stop-color="#09090A"
         offset="100%"
         id="stop81" />
    </linearGradient>
    <linearGradient
       x1="27.376951"
       y1="35.760399"
       x2="27.376951"
       y2="54.871043"
       id="id-79976"
       gradientTransform="scale(0.97888357,1.021572)"
       gradientUnits="userSpaceOnUse">
      <stop
         stop-color="#A1F6FD"
         offset="0%"
         id="stop84" />
      <stop
         stop-color="#BC616C"
         offset="100%"
         id="stop86" />
    </linearGradient>
    <linearGradient
       x1="32.689734"
       y1="48.279561"
       x2="17.470671"
       y2="48.279561"
       id="id-79977"
       gradientTransform="scale(1.0302981,0.97059283)"
       gradientUnits="userSpaceOnUse">
      <stop
         stop-color="#37393D"
         offset="0%"
         id="stop89" />
      <stop
         stop-color="#898C97"
         offset="100%"
         id="stop91" />
    </linearGradient>
    <linearGradient
       x1="121.91994"
       y1="112.15557"
       x2="121.91994"
       y2="169.66497"
       id="id-79978"
       gradientTransform="scale(0.86942299,1.1501881)"
       gradientUnits="userSpaceOnUse">
      <stop
         stop-color="#9FE6FE"
         offset="0%"
         id="stop94" />
      <stop
         stop-color="#8DAFF5"
         offset="100%"
         id="stop96" />
    </linearGradient>
    <linearGradient
       x1="77.662477"
       y1="144.7224"
       x2="65.005915"
       y2="144.7224"
       id="id-79979"
       gradientTransform="scale(0.75969763,1.3163132)"
       gradientUnits="userSpaceOnUse">
      <stop
         stop-color="#615063"
         offset="0%"
         id="stop99" />
      <stop
         stop-color="#291858"
         offset="100%"
         id="stop101" />
    </linearGradient>
    <linearGradient
       x1="98.523545"
       y1="151.6744"
       x2="98.523545"
       y2="160.15969"
       id="id-79980"
       gradientTransform="scale(1.0606602,0.94280904)"
       gradientUnits="userSpaceOnUse">
      <stop
         stop-color="#6FB8B4"
         offset="0%"
         id="stop104" />
      <stop
         stop-color="#418FB7"
         offset="100%"
         id="stop106" />
    </linearGradient>
    <linearGradient
       x1="146.43683"
       y1="117.93214"
       x2="139.52881"
       y2="122.03378"
       id="id-79981"
       gradientTransform="scale(0.7995399,1.2507193)"
       gradientUnits="userSpaceOnUse">
      <stop
         stop-color="#B7C4B5"
         offset="0%"
         id="stop109" />
      <stop
         stop-color="#647CAD"
         offset="13%"
         id="stop111" />
      <stop
         stop-color="#6C66B3"
         offset="32%"
         id="stop113" />
      <stop
         stop-color="#734FAF"
         offset="50%"
         id="stop115" />
      <stop
         stop-color="#7E4785"
         offset="71%"
         id="stop117" />
      <stop
         stop-color="#A58C8F"
         offset="100%"
         id="stop119" />
    </linearGradient>
    <linearGradient
       x1="108.22569"
       y1="178.88544"
       x2="99.281418"
       y2="178.88544"
       id="id-79982"
       gradientTransform="scale(1.118034,0.89442719)"
       gradientUnits="userSpaceOnUse">
      <stop
         stop-color="#624887"
         offset="0%"
         id="stop122" />
      <stop
         stop-color="#86737C"
         offset="100%"
         id="stop124" />
    </linearGradient>
    <linearGradient
       x1="132.84907"
       y1="159.85426"
       x2="138.45799"
       y2="167.24784"
       id="id-79983"
       gradientTransform="scale(1.0198039,0.98058068)"
       gradientUnits="userSpaceOnUse">
      <stop
         stop-color="#814179"
         offset="0%"
         id="stop127" />
      <stop
         stop-color="#2B5F68"
         offset="49%"
         id="stop129" />
      <stop
         stop-color="#44467B"
         offset="100%"
         id="stop131" />
    </linearGradient>
    <linearGradient
       x1="96.679382"
       y1="207.61924"
       x2="96.679382"
       y2="217.32451"
       id="id-79984"
       gradientTransform="scale(1.339479,0.74655894)"
       gradientUnits="userSpaceOnUse">
      <stop
         stop-color="#535A77"
         offset="0%"
         id="stop134" />
      <stop
         stop-color="#556D7E"
         offset="47%"
         id="stop136" />
      <stop
         stop-color="#394466"
         offset="100%"
         id="stop138" />
    </linearGradient>
    <linearGradient
       x1="159.98976"
       y1="128.98866"
       x2="167.38401"
       y2="136.38292"
       id="id-79985"
       gradientTransform="scale(0.91287093,1.0954451)"
       gradientUnits="userSpaceOnUse">
      <stop
         stop-color="#6F487F"
         offset="0%"
         id="stop141" />
      <stop
         stop-color="#4D4892"
         offset="52%"
         id="stop143" />
      <stop
         stop-color="#48647F"
         offset="100%"
         id="stop145" />
    </linearGradient>
    <linearGradient
       x1="286.64147"
       y1="70.65621"
       x2="286.64147"
       y2="81.391572"
       id="id-79986"
       gradientTransform="scale(0.54772256,1.8257419)"
       gradientUnits="userSpaceOnUse">
      <stop
         stop-color="#7E62A5"
         offset="0%"
         id="stop148" />
      <stop
         stop-color="#4C3B85"
         offset="33%"
         id="stop150" />
      <stop
         stop-color="#4D6A87"
         offset="100%"
         id="stop152" />
    </linearGradient>
    <linearGradient
       x1="224.02734"
       y1="47.206571"
       x2="224.02734"
       y2="90.709081"
       id="id-79987"
       gradientTransform="scale(0.67910336,1.4725299)"
       gradientUnits="userSpaceOnUse">
      <stop
         stop-color="#5F6EAD"
         offset="0%"
         id="stop155" />
      <stop
         stop-color="#3F6DB1"
         offset="5%"
         id="stop157" />
      <stop
         stop-color="#82CDEE"
         offset="61%"
         id="stop159" />
      <stop
         stop-color="#65679E"
         offset="100%"
         id="stop161" />
    </linearGradient>
    <linearGradient
       x1="54.696763"
       y1="98.931358"
       x2="35.88852"
       y2="98.931358"
       id="id-79988"
       gradientTransform="scale(0.75232971,1.3292044)"
       gradientUnits="userSpaceOnUse">
      <stop
         stop-color="#5F4C9A"
         offset="0%"
         id="stop164" />
      <stop
         stop-color="#50387C"
         offset="34%"
         id="stop166" />
      <stop
         stop-color="#342357"
         offset="100%"
         id="stop168" />
    </linearGradient>
    <linearGradient
       x1="33.234703"
       y1="79.886378"
       x2="33.234703"
       y2="96.134454"
       id="id-79989"
       gradientTransform="scale(0.6770032,1.4770979)"
       gradientUnits="userSpaceOnUse">
      <stop
         stop-color="#5B8BCE"
         offset="0%"
         id="stop171" />
      <stop
         stop-color="#6952A2"
         offset="100%"
         id="stop173" />
    </linearGradient>
    <linearGradient
       x1="30.637004"
       y1="77.569595"
       x2="30.637004"
       y2="93.825964"
       id="id-79990"
       gradientTransform="scale(0.79968654,1.25049)"
       gradientUnits="userSpaceOnUse">
      <stop
         stop-color="#8039A4"
         offset="0%"
         id="stop176" />
      <stop
         stop-color="#C136C7"
         offset="40%"
         id="stop178" />
      <stop
         stop-color="#5D4071"
         offset="100%"
         id="stop180" />
    </linearGradient>
    <linearGradient
       x1="65.644876"
       y1="95.694787"
       x2="65.644876"
       y2="174.69862"
       id="id-79991"
       gradientTransform="scale(1.1127301,0.89869054)"
       gradientUnits="userSpaceOnUse">
      <stop
         stop-color="#AD5EAF"
         offset="0%"
         id="stop183" />
      <stop
         stop-color="#584A96"
         offset="23%"
         id="stop185" />
      <stop
         stop-color="#504586"
         offset="59%"
         id="stop187" />
      <stop
         stop-color="#F067E4"
         offset="66%"
         id="stop189" />
      <stop
         stop-color="#5E3CC3"
         offset="76%"
         id="stop191" />
      <stop
         stop-color="#352358"
         offset="100%"
         id="stop193" />
    </linearGradient>
    <linearGradient
       x1="77.639898"
       y1="119.61052"
       x2="51.011585"
       y2="119.29351"
       id="id-79992"
       gradientTransform="scale(1.1122938,0.89904303)"
       gradientUnits="userSpaceOnUse">
      <stop
         stop-color="#715194"
         offset="0%"
         id="stop196" />
      <stop
         stop-color="#D5A7EA"
         offset="53%"
         id="stop198" />
      <stop
         stop-color="#8671B6"
         offset="100%"
         id="stop200" />
    </linearGradient>
    <linearGradient
       x1="83.545063"
       y1="115.65295"
       x2="59.54162"
       y2="115.65295"
       id="id-79993"
       gradientTransform="scale(1.0910656,0.91653518)"
       gradientUnits="userSpaceOnUse">
      <stop
         stop-color="#E655FB"
         offset="0%"
         id="stop203" />
      <stop
         stop-color="#DFC6EE"
         offset="100%"
         id="stop205" />
    </linearGradient>
    <linearGradient
       x1="78.284467"
       y1="133.21665"
       x2="81.931129"
       y2="134.15976"
       id="id-79994"
       gradientTransform="scale(1.4314462,0.69859421)"
       gradientUnits="userSpaceOnUse">
      <stop
         stop-color="#594A99"
         offset="0%"
         id="stop208" />
      <stop
         stop-color="#CC06FC"
         offset="100%"
         id="stop210" />
    </linearGradient>
    <linearGradient
       x1="80.893016"
       y1="124.94577"
       x2="84.994235"
       y2="126.00643"
       id="id-79995"
       gradientTransform="scale(1.4142136,0.70710678)"
       gradientUnits="userSpaceOnUse">
      <stop
         stop-color="#594A99"
         offset="0%"
         id="stop213" />
      <stop
         stop-color="#CC06FC"
         offset="100%"
         id="stop215" />
    </linearGradient>
    <linearGradient
       x1="82.533504"
       y1="118.6808"
       x2="85.814479"
       y2="119.35962"
       id="id-79996"
       gradientTransform="scale(1.4142136,0.70710678)"
       gradientUnits="userSpaceOnUse">
      <stop
         stop-color="#594A99"
         offset="0%"
         id="stop218" />
      <stop
         stop-color="#CC06FC"
         offset="100%"
         id="stop220" />
    </linearGradient>
    <linearGradient
       x1="138.10218"
       y1="63.808752"
       x2="141.73949"
       y2="69.940212"
       id="id-79997"
       gradientTransform="scale(0.8660254,1.1547005)"
       gradientUnits="userSpaceOnUse">
      <stop
         stop-color="#594A99"
         offset="0%"
         id="stop223" />
      <stop
         stop-color="#CC06FC"
         offset="100%"
         id="stop225" />
    </linearGradient>
    <linearGradient
       x1="111.71344"
       y1="68.561073"
       x2="115.36211"
       y2="68.221662"
       id="id-79998"
       gradientTransform="scale(1.0606602,0.94280904)"
       gradientUnits="userSpaceOnUse">
      <stop
         stop-color="#594A99"
         offset="0%"
         id="stop228" />
      <stop
         stop-color="#CC06FC"
         offset="100%"
         id="stop230" />
    </linearGradient>
    <linearGradient
       x1="41.681106"
       y1="127.36763"
       x2="36.545649"
       y2="136.35468"
       id="id-79999"
       gradientTransform="scale(1.5733747,0.63557651)"
       gradientUnits="userSpaceOnUse">
      <stop
         stop-color="#DEE9FF"
         offset="0%"
         id="stop233" />
      <stop
         stop-color="#C0DDFA"
         offset="68%"
         id="stop235" />
      <stop
         stop-color="#5078CE"
         offset="100%"
         id="stop237" />
    </linearGradient>
    <linearGradient
       x1="76.561252"
       y1="22.175492"
       x2="39.712523"
       y2="41.934956"
       id="id-80000"
       gradientTransform="scale(0.96761018,1.033474)"
       gradientUnits="userSpaceOnUse">
      <stop
         stop-color="#807AB6"
         offset="0%"
         id="stop240" />
      <stop
         stop-color="#FA8CE3"
         offset="36%"
         id="stop242" />
      <stop
         stop-color="#FF98EB"
         offset="100%"
         id="stop244" />
    </linearGradient>
    <linearGradient
       x1="44.763391"
       y1="87.14978"
       x2="44.763391"
       y2="106.67663"
       id="id-80001"
       gradientTransform="scale(0.88030081,1.1359753)"
       gradientUnits="userSpaceOnUse">
      <stop
         stop-color="#463061"
         offset="0%"
         id="stop247" />
      <stop
         stop-color="#CF9A69"
         offset="46%"
         id="stop249" />
      <stop
         stop-color="#65385A"
         offset="100%"
         id="stop251" />
    </linearGradient>
    <linearGradient
       x1="52.800762"
       y1="95.452132"
       x2="37.878807"
       y2="95.452132"
       id="id-80002"
       gradientTransform="scale(0.87119955,1.1478426)"
       gradientUnits="userSpaceOnUse">
      <stop
         stop-color="#66569B"
         offset="0%"
         id="stop254" />
      <stop
         stop-color="#9F3D3F"
         offset="100%"
         id="stop256" />
    </linearGradient>
    <linearGradient
       x1="11.380577"
       y1="89.464509"
       x2="11.380577"
       y2="96.346394"
       id="id-80003"
       gradientTransform="scale(1.1469809,0.87185411)"
       gradientUnits="userSpaceOnUse">
      <stop
         stop-color="#9C6CDB"
         offset="0%"
         id="stop259" />
      <stop
         stop-color="#E87AEA"
         offset="100%"
         id="stop261" />
    </linearGradient>
    <linearGradient
       x1="7.9746076"
       y1="55.425924"
       x2="7.9746076"
       y2="61.560238"
       id="id-80004"
       gradientTransform="scale(0.81508712,1.2268627)"
       gradientUnits="userSpaceOnUse">
      <stop
         stop-color="#9C6CDB"
         offset="0%"
         id="stop264" />
      <stop
         stop-color="#E87AEA"
         offset="100%"
         id="stop266" />
    </linearGradient>
    <linearGradient
       x1="15.671858"
       y1="48.430759"
       x2="15.671858"
       y2="57.970151"
       id="id-80005"
       gradientTransform="scale(0.73379939,1.3627703)"
       gradientUnits="userSpaceOnUse">
      <stop
         stop-color="#9C6CDB"
         offset="0%"
         id="stop269" />
      <stop
         stop-color="#E87AEA"
         offset="100%"
         id="stop271" />
    </linearGradient>
    <linearGradient
       x1="13.150612"
       y1="33.402148"
       x2="13.150612"
       y2="39.973062"
       id="id-80006"
       gradientTransform="scale(0.54757619,1.8262299)"
       gradientUnits="userSpaceOnUse">
      <stop
         stop-color="#9C6CDB"
         offset="0%"
         id="stop274" />
      <stop
         stop-color="#E87AEA"
         offset="100%"
         id="stop276" />
    </linearGradient>
    <linearGradient
       x1="3.7873144"
       y1="48.3192"
       x2="3.7873144"
       y2="53.368953"
       id="id-80007"
       gradientTransform="scale(0.79211803,1.2624381)"
       gradientUnits="userSpaceOnUse">
      <stop
         stop-color="#9C6CDB"
         offset="0%"
         id="stop279" />
      <stop
         stop-color="#E87AEA"
         offset="100%"
         id="stop281" />
    </linearGradient>
    <linearGradient
       x1="5.4834462"
       y1="109.14669"
       x2="5.4834462"
       y2="114.89125"
       id="id-80008"
       gradientTransform="scale(1.9148542,0.52223297)"
       gradientUnits="userSpaceOnUse">
      <stop
         stop-color="#9C6CDB"
         offset="0%"
         id="stop284" />
      <stop
         stop-color="#E87AEA"
         offset="100%"
         id="stop286" />
    </linearGradient>
    <linearGradient
       x1="35.169291"
       y1="61.570545"
       x2="35.169291"
       y2="78.047136"
       id="id-80009"
       gradientTransform="scale(1.0366852,0.96461302)"
       gradientUnits="userSpaceOnUse">
      <stop
         stop-color="#919AF6"
         offset="0%"
         id="stop289" />
      <stop
         stop-color="#28C3EE"
         offset="100%"
         id="stop291" />
    </linearGradient>
    <linearGradient
       x1="51.234754"
       y1="3.4156503"
       x2="51.234754"
       y2="23.909552"
       id="id-80010"
       gradientTransform="scale(0.68313005,1.4638501)"
       gradientUnits="userSpaceOnUse">
      <stop
         stop-color="#FB8EE4"
         offset="0%"
         id="stop294" />
      <stop
         stop-color="#844092"
         offset="100%"
         id="stop296" />
    </linearGradient>
    <linearGradient
       x1="78.255336"
       y1="53.29728"
       x2="78.255336"
       y2="70.088133"
       id="id-80011"
       gradientTransform="scale(1.0501927,0.95220618)"
       gradientUnits="userSpaceOnUse">
      <stop
         stop-color="#919AF6"
         offset="0%"
         id="stop299" />
      <stop
         stop-color="#28C3EE"
         offset="100%"
         id="stop301" />
    </linearGradient>
  </defs>
  <g
     transform="translate(-19.35445)"
     id="id-80012">
    <g
       transform="translate(21)"
       id="id-80013">
      <path
         d="m 70,847 c 196,96 359,116 490,61 0,7 0,10 0,10 -28,18 -42,26 -42,26 -125,19 -187,28 -187,28 L 267,955 C 202,927 145,904 96,885 78,860 70,847 70,847 Z"
         fill="#000000"
         fill-opacity="0.303"
         id="id-80014" />
      <path
         d="m 62,845 c 2,-16 4,-24 4,-24 3,-4 5,-6 5,-6 1,-13 1,-19 1,-19 4,-6 7,-10 7,-10 8,-65 12,-97 12,-97 10,-16 15,-24 15,-24 -1,-14 -2,-22 -2,-22 9,-16 13,-24 13,-24 -4,-26 -5,-40 -5,-40 8,-14 13,-21 13,-21 12,-43 18,-64 18,-64 -2,-40 -4,-61 -4,-61 -9,16 -13,24 -13,24 -46,5 -68,7 -68,7 C 19,448 0,441 0,441 11,288 45,227 27,132 47,107 57,95 57,95 89,70 150,51 203,23 c -3,-5 14,-11 24,-21 10,18 15,28 15,28 47,47 97,46 151,-2 17,-15 31,-19 40,-11 30,21 74,41 117,62 9,5 14,8 14,8 20,30 30,45 30,45 14,93 29,186 50,269 -5,5 -8,7 -8,7 -65,19 -97,29 -97,29 -25,2 -37,3 -37,3 1,60 7,110 20,151 1,19 2,28 2,28 28,87 41,131 41,131 -7,27 5,84 16,141 -16,11 -24,21 -58,42 -48,14 -279,28 -461,-88 z"
         fill="url(#id-79964)"
         id="id-80015"
         style="fill:url(#id-79964)" />
      <path
         d="m 112,873 c 1,-20 2,-30 2,-30 -16,-12 -24,-18 -24,-18 7,-9 10,-14 10,-14 -5,-2 -8,-4 -8,-4 20,-12 29,-18 29,-18 -11,-27 -17,-41 -17,-41 12,-8 17,-11 17,-11 l -9,-107 -8,13 2,24 -15,22 -12,97 -7,10 -1,19 -5,6 -4,24 c 11,7 19,11 23,14 18,10 27,14 27,14 z"
         fill="#9c9fae"
         id="id-80016" />
      <path
         d="m 154,855 c -27,-16 -40,-24 -40,-24 l 11,-9 c 19,22 29,33 29,33 z"
         fill="#828799"
         id="id-80017" />
      <path
         d="m 186,859 c -17,-6 -26,-9 -26,-9 -24,-21 -36,-32 -36,-32 H 69 l 2,-3 c 1,-13 1,-19 1,-19 2,-3 3,-4 3,-4 9,12 14,18 14,18 l 63,7 c 23,28 34,42 34,42 z"
         fill="#7a8093"
         id="id-80018" />
      <path
         d="m 79,786 c 11,12 17,17 17,17 15,-14 22,-21 22,-21 -14,-35 -21,-52 -21,-52 l 10,12 c 10,-4 14,-5 14,-5 -2,-24 -3,-36 -3,-36 l -29,9 c -7,51 -10,76 -10,76 z"
         fill="#8f93a4"
         id="id-80019" />
      <path
         d="m 90,704 c 17,-24 25,-36 25,-36 l -3,-31 -8,6 -1,23 -12,23 c -1,10 -1,15 -1,15 z"
         fill="#7a8093"
         id="id-80020" />
      <path
         d="m 104,643 16,-11 -4,-13 c -8,16 -12,24 -12,24 z"
         fill="#757b8f"
         id="id-80021" />
      <path
         d="m 112,579 c 20,11 30,17 30,17 10,-30 15,-45 15,-45 l -14,-57 -18,64 c -9,14 -13,21 -13,21 z"
         fill="#a7aab9"
         id="id-80022" />
      <path
         d="m 126,457 -4,-130 18,63 -1,43 c -9,16 -13,24 -13,24 z"
         fill="#6d7487"
         id="id-80023" />
      <path
         d="m 57,465 c 1,-17 1,-25 1,-25 22,-2 32,-2 32,-2 7,-56 10,-84 10,-84 5,11 7,18 8,19 0,0 0,0 0,0 0,42 0,62 0,62 7,0 11,0 11,0 l -1,23 c -40,5 -61,7 -61,7 z"
         fill="#d8d8df"
         id="id-80024" />
      <path
         d="m 118,458 c 1,-42 2,-63 2,-63 -8,-58 -16,-116 -28,-182 23,82 34,122 34,122 l 3,-55 c 0,45 7,74 11,110 l -14,67 c -5,1 -8,1 -8,1 z"
         fill="#a7aab9"
         id="id-80025" />
      <path
         d="m 46,166 c 0,21 0,32 0,32 22,71 45,138 69,192 C 105,335 93,281 81,213 84,205 86,200 86,200 74,161 68,142 68,142 66,111 65,96 65,96 c -11,36 -17,55 -17,55 20,22 30,34 30,34 l -3,13 C 56,176 46,166 46,166 Z"
         fill="#a7aab9"
         id="id-80026" />
      <path
         d="m 78,185 -5,12 C 90,249 99,327 115,390 106,344 94,244 86,200 81,190 78,185 78,185 Z"
         fill="#8f94a7"
         id="id-80027" />
      <path
         d="m 94,207 c 6,8 12,26 20,27 -13,-44 -20,-66 -20,-66 12,24 18,35 18,35 3,-30 5,-46 5,-46 -6,-32 -9,-48 -9,-48 13,35 20,52 20,52 -11,45 -10,97 0,156 C 105,244 94,207 94,207 Z"
         fill="#a8abba"
         id="id-80028" />
      <path
         d="m 140,111 c 5,9 7,14 7,14 l -14,111 c 5,-84 7,-125 7,-125 z"
         fill="#aeb0be"
         id="id-80029" />
      <path
         d="m 132,281 c 16,-95 23,-143 23,-143 15,-14 22,-22 22,-22 41,19 61,28 61,28 l 22,-98 c 37,27 82,28 134,-19 L 405,0 c 6,6 17,9 26,15 -9,44 -71,73 -129,105 39,3 58,5 58,5 77,-45 115,-68 115,-68 38,14 57,21 57,21 12,0 19,0 19,0 7,6 11,9 11,9 -7,7 -10,10 -10,10 -7,61 -10,92 -10,92 -10,3 -14,4 -14,4 5,-68 7,-101 7,-101 -17,22 -26,33 -26,33 8,54 12,81 12,81 -108,159 -162,239 -162,239 88,-18 132,-27 132,-27 -8,66 -7,139 0,216 -89,146 -134,219 -134,219 -53,-6 -105,-12 -143,-3 l 16,-54 -57,-180 33,-126 -29,-98 -11,-155 -18,31 c -10,9 -16,13 -16,13 z"
         fill="url(#id-79965)"
         id="id-80030"
         style="fill:url(#id-79965)" />
      <path
         d="m 112,579 c 16,27 24,40 24,40 30,-2 45,-3 45,-3 18,54 27,80 27,80 l -82,-44 -10,-33 c -3,-27 -4,-40 -4,-40 z"
         fill="#d7d6de"
         id="id-80031" />
      <path
         d="m 214,850 c 32,24 49,36 49,36 47,12 70,18 70,18 62,-14 93,-21 93,-21 -11,-6 -20,-10 -26,-12 -9,-4 -23,-10 -43,-18 -38,-5 -64,-8 -78,-8 -45,-1 -65,5 -65,5 z"
         fill="#a8abb9"
         id="id-80032" />
      <path
         d="m 357,853 c 46,20 69,30 69,30 40,-36 59,-54 59,-54 24,-79 35,-118 35,-118 L 507,651 491,634 C 402,780 357,853 357,853 Z"
         fill="#cbcbd4"
         id="id-80033" />
      <path
         d="m 485,829 c 11,-53 31,-101 46,-152 14,30 21,45 21,45 l -4,43 c -42,43 -63,64 -63,64 z"
         fill="#aaacba"
         id="id-80034" />
      <path
         d="m 522,618 c 2,32 3,49 3,49 24,55 37,83 37,83 -8,48 -12,72 -12,72 2,29 -2,66 6,89 l 25,-20 C 576,844 559,787 566,750 Z"
         fill="#858b9f"
         id="id-80035" />
      <path
         d="m 516,169 c 9,-6 14,-8 14,-8 l -2,32 c -7,60 -12,91 -12,91 17,-16 26,-24 26,-24 5,16 8,23 8,23 -9,69 -13,103 -13,103 l 3,51 c -24,2 -35,3 -35,3 1,-42 2,-73 4,-94 2,-31 6,-78 12,-140 -3,-25 -5,-37 -5,-37 z"
         fill="#a6a9b8"
         id="id-80036" />
      <path
         d="m 528,193 c -5,9 -7,13 -7,13 l -5,77 c 8,-60 12,-90 12,-90 z"
         fill="#616679"
         id="id-80037" />
      <path
         d="m 539,437 c -4,-67 0,-114 8,-153 -4,-19 -12,-22 -3,-92 15,-18 23,-26 23,-26 l 43,250 c -48,14 -71,20 -71,21 z"
         fill="#d0d1da"
         id="id-80038" />
      <path
         d="m 521,206 -35,90 c 6,35 5,80 5,122 l 11,22 c 7,-82 12,-136 14,-162 4,-48 5,-72 5,-72 z"
         fill="#c2c3cd"
         id="id-80039" />
      <path
         d="m 594,132 c -9,74 14,173 42,276 l 8,-7 C 624,316 608,226 594,132 Z"
         fill="#b0b2c1"
         id="id-80040" />
      <path
         d="m 585,121 c 7,7 10,11 10,11 -30,36 -45,55 -45,55 v -21 c 24,-30 35,-45 35,-45 z"
         fill="#e8e7ef"
         id="id-80041" />
      <path
         d="m 540,198 c 0,13 1,20 1,20 l 9,-31 c -3,2 -4,4 -5,4 -4,5 -5,7 -5,7 z"
         fill="#9ea2b3"
         id="id-80042" />
      <path
         d="m 502,440 11,-1 c -7,-36 -5,-66 -2,-93 3,-30 7,-56 6,-82 0,-9 -3,-19 -5,-29 l -20,62 c 12,59 16,107 10,143 z"
         fill="#868b9f"
         id="id-80043" />
      <path
         d="m 351,56 c 9,20 13,29 13,29 25,-12 36,-25 51,-39 L 394,26 c -9,8 -16,14 -20,17 -8,5 -15,10 -23,13 z"
         fill="#f9f9ff"
         id="id-80044" />
      <path
         d="m 253,82 c -45,4 -96,-2 -151,-13 33,-14 65,-28 101,-46 4,16 21,36 50,59 z"
         fill="#cecfd7"
         id="id-80045" />
      <path
         d="m 223,55 c 19,19 29,28 29,28 l 25,3 C 260,84 242,74 223,55 Z"
         fill="#9fa2b1"
         id="id-80046" />
      <path
         d="m 109,109 -20,9 5,50 18,35 4,-47 c -5,-31 -7,-47 -7,-47 z"
         fill="#d3d2db"
         id="id-80047" />
      <path
         d="M 65,89 C 48,121 39,147 38,164 L 44,459 0,441 C 5,380 16,308 28,234 33,199 34,164 27,132 L 57,94 c 5,-3 8,-5 8,-5 z"
         fill="#a7aab9"
         id="id-80048" />
      <path
         d="m 27,132 c 10,8 15,12 15,12 l -3,12 -9,-7 c -2,-11 -3,-17 -3,-17 z"
         fill="#898ea2"
         id="id-80049" />
      <path
         d="m 149,889 c 6,-16 9,-23 9,-23 37,17 79,30 127,39 l -7,23 c -32,-7 -55,-12 -67,-16 -31,-9 -52,-17 -62,-23 z"
         fill="#e6e5eb"
         id="id-80050" />
      <path
         d="m 363,914 c 0,17 1,25 1,25 41,5 83,5 120,0 l -3,-24 c -61,5 -100,5 -118,-1 z"
         fill="#e1e0e7"
         id="id-80051" />
      <path
         d="m 524,934 c -3,-18 -4,-27 -4,-27 22,-10 32,-14 32,-14 l 4,18 z"
         fill="#dddce3"
         id="id-80052" />
    </g>
    <path
       d="m 513,905 c 19,-4 28,-6 28,-6 3,23 4,35 4,35 l -27,5 c -3,-23 -5,-34 -5,-34 z"
       fill="#ee5798"
       id="id-80053" />
    <path
       d="m 537,907 c 2,14 3,21 3,21 -12,2 -18,3 -18,3 l -3,-21 c 12,-2 18,-3 18,-3 z"
       fill="#21242c"
       id="id-80054" />
    <g
       transform="translate(0,164)"
       id="id-80055">
      <g
         transform="translate(568,46)"
         id="id-80056">
        <path
           d="M 25,217 C -8,164 -6,125 19,119 -2,85 19,43 45,42 44,29 46,16 60,1 71,63 82,126 100,193 l -10,5 c -44,13 -65,19 -65,19 z"
           fill="#000000"
           id="id-80057" />
        <path
           d="M 27,216 C -8,155 -1,124 25,121 3,86 21,44 48,47 47,31 50,16 61,5 72,67 84,129 100,193 l -10,5 c -42,12 -63,18 -63,18 z"
           fill="#9dea7c"
           id="id-80058" />
        <path
           d="m 70,57 c -20,11 -28,28 -24,49 6,21 20,31 41,32 z"
           fill="#faf783"
           id="id-80059" />
        <path
           d="m 7,133 c 0,12 7,14 19,12 -3,14 -4,26 11,28 8,-1 14,-7 20,-19 7,3 13,1 20,-8 v 1 c 0,0 0,0 0,0 l 1,1 c 1,6 3,12 14,15 2,5 2,8 2,8 -9,8 -9,17 -5,27 L 26,217 C 5,178 -2,150 7,133 Z m 69,25 c -4,0 -7,3 -7,6 0,4 3,7 7,7 4,0 7,-3 7,-7 0,-3 -3,-6 -7,-6 z"
           fill="#75be63"
           id="id-80060" />
        <path
           d="M 61,5 C 54,12 46,21 47,45 h -7 l 25,160 24,-7 11,-5 C 89,150 80,106 71,60 68,42 64,24 61,5 Z"
           fill="#000000"
           fill-opacity="0.202"
           id="id-80061" />
      </g>
      <g
         transform="translate(178)"
         id="id-80062">
        <g
           transform="translate(0,5)"
           id="id-80063" />
        <g
           id="id-80064">
          <path
             d="m 82,216 c 22,5 54,7 91,7 -14,6 -22,8 -22,8 60,-7 90,-11 90,-11 -16,-7 -23,-10 -23,-10 l 12,-7 c -35,-9 -84,-5 -148,13 z"
             fill="#b6b7c3"
             id="id-80065" />
          <path
             d="m 24,156 c 51,14 76,21 76,21 l 35,-23 c -74,1 -111,2 -111,2 z"
             fill="#b7b8c4"
             id="id-80066" />
          <g
             transform="translate(0,9)"
             id="id-80067">
            <path
               d="m 28,143 c 0,1 -1,2 -2,2 -5,0 -4,6 -2,8 2,0 7,0 13,0 2,-1 4,-2 4,-7 30,0 45,0 45,0 1,3 1,6 5,7 7,0 10,0 10,0 5,-2 4,-7 0,-9 2,-1 3,-1 3,-1 16,0 24,0 24,0 2,0 2,-1 3,-2 20,3 38,0 47,-17 6,-15 5,-25 -6,-37 -7,-7 -15,-8 -24,-4 -10,4 -14,16 -7,24 7,10 26,3 18,-8 7,0 11,7 10,15 -4,12 -14,16 -28,17 -8,0 -17,-3 -25,-10 -1,-11 -7,-24 -9,-34 -4,-10 -6,-18 -7,-22 0,-1 1,-2 1,-2 5,1 10,2 13,-4 -4,-1 -6,-2 -6,-2 4,-1 3,-4 -1,-4 -4,-2 -7,-6 -9,-12 C 99,33 96,29 92,25 94,15 95,10 95,10 96,6 94,4 91,4 83,11 79,14 79,14 76,13 75,13 75,13 74,11 80,9 77,8 74,6 71,7 68,9 68,7 68,5 71,1 66,-1 63,0 60,6 58,4 55,2 51,2 52,4 52,6 52,9 48,8 44,7 42,12 h 2 v 2 c -2,1 -3,2 -3,2 -7,-5 -10,-7 -10,-7 -5,-2 -6,1 -6,4 3,10 4,14 4,14 -3,-1 -5,2 -2,4 2,0 3,0 3,0 -4,4 -3,8 -3,12 -3,5 -7,10 -14,13 -1,2 2,3 6,3 -2,1 -4,2 -4,3 1,1 4,1 6,0 -2,2 -1,3 -1,4 1,-1 1,-1 1,-1 2,0 3,0 3,0 0,2 1,3 2,4 -4,19 -6,29 -6,29 1,2 -4,27 -3,31 -6,1 -12,4 -17,8 0,3 1,5 4,6 16,0 24,0 24,0 z"
               fill="#000000"
               id="id-80068" />
            <path
               d="m 82,19 c 1,1 3,3 4,5 9,3 13,10 10,19 3,7 7,12 13,12 -2,1 -5,1 -8,0 1,3 5,4 11,5 -5,2 -8,3 -11,1 -6,6 -8,9 -8,9 4,-3 5,-5 5,-5 1,7 13,43 13,43 5,15 5,28 -12,35 0,-7 1,-14 6,-21 -7,6 -8,13 -7,21 -2,-3 -4,-9 -5,-15 -1,6 0,13 -6,15 -3,-15 -4,-22 -4,-22 2,15 3,23 3,23 -8,0 -11,0 -11,0 -2,-7 -3,-11 -3,-11 1,7 1,11 1,11 -21,0 -32,0 -32,0 2,-14 3,-21 3,-21 -3,14 -4,21 -4,21 -4,-2 -5,-8 -6,-14 -1,4 -1,10 -5,12 1,-10 0,-18 -5,-20 3,3 4,9 4,19 -5,-3 -8,-7 -10,-15 -1,-7 8,-46 9,-57 2,2 3,3 5,3 -2,-3 -6,-3 -7,-9 -1,1 -2,1 -3,1 3,-2 2,-3 2,-5 -1,2 -3,2 -6,2 2,-1 4,-3 6,-6 -3,2 -6,2 -9,2 6,-3 10,-7 13,-13 -1,-6 0,-11 4,-13 3,-6 7,-12 11,-15 -1,0 -1,-1 -1,-1 2,1 4,0 7,-1 1,1 1,2 1,2 0,-3 -2,-4 -5,-6 3,-1 5,0 8,2 1,-2 1,-5 0,-8 2,1 5,1 6,6 3,-4 4,-10 10,-8 -4,4 -3,7 -1,10 2,-2 4,-5 8,-3 -3,2 -5,4 -5,6 1,-1 1,-2 1,-2 3,1 5,2 7,4 -1,0 -3,0 -2,2 0,2 3,1 5,0 z"
               fill="url(#id-79966)"
               id="id-80069"
               style="fill:url(#id-79966)" />
            <path
               d="m 18,131 c -6,1 -11,3 -16,7 -1,1 -1,2 2,3 -1,-2 0,-4 3,-4 -3,1 -3,3 -2,4 2,0 2,0 2,0 0,-2 0,-4 4,-4 -3,1 -3,3 -3,4 h 18 c -4,-3 -7,-7 -8,-10 z"
               fill="#d55dee"
               id="id-80070" />
            <path
               d="m 41,144 c 6,-31 9,-47 9,-47 3,-8 10,-6 13,-1 6,-5 12,-6 14,2 4,11 6,29 8,46 -29,0 -44,0 -44,0 z"
               fill="url(#id-79967)"
               id="id-80071"
               style="fill:url(#id-79967)" />
            <path
               d="m 25,64 c 9,-4 13,-6 13,-6 l -12,8 c -1,-2 -1,-2 -1,-2 z"
               fill="#0e0e0e"
               id="id-80072" />
            <path
               d="m 33,135 c 2,-2 3,-3 3,-3 3,3 5,5 5,5 l -5,-3 c -2,1 -3,1 -3,1 z"
               fill="#f8f8df"
               id="id-80073" />
            <path
               d="m 40,141 c 0,-2 0,-3 0,-3 l -2,-8 c 1,7 2,11 2,11 z"
               fill="#f8f8df"
               id="id-80074" />
            <path
               d="m 105,122 c -4,11 4,10 9,1 0,9 -5,16 -15,20 -1,-6 0,-13 6,-21 z"
               fill="#747980"
               id="id-80075" />
            <path
               d="m 87,143 c 1,4 1,7 4,8 3,0 4,0 4,0 0,-2 -1,-3 -2,-4 2,0 2,2 3,4 2,0 4,0 4,0 0,-2 -1,-3 -3,-4 2,-1 3,1 4,4 1,0 1,0 1,0 1,-1 1,-2 1,-2 0,-2 -2,-3 -3,-3 -2,0 -2,-2 -2,-3 -2,-3 -4,-11 -5,-15 -1,3 0,14 -6,15 z"
               fill="#d55dee"
               id="id-80076" />
            <path
               d="m 106,141 c 3,-2 6,-6 8,-11 4,3 21,6 14,11 0,-4 -2,-4 -3,-4 2,2 2,3 1,4 -1,0 -2,0 -2,0 1,-3 0,-4 -3,-4 3,0 3,2 2,4 -11,0 -17,0 -17,0 z"
               fill="#d55dee"
               id="id-80077" />
            <path
               d="m 115,123 c 0,2 0,5 -1,7 6,3 16,3 17,10 13,-1 29,3 41,-11 7,-8 11,-19 6,-31 -2,-4 -5,-9 -9,-12 -1,0 -1,0 -1,0 -11,-8 -22,0 -25,2 0,0 0,1 0,1 -6,5 -5,15 2,20 6,2 15,1 14,-7 -2,-2 -4,-4 -9,-5 2,-1 4,0 7,1 0,0 1,-1 4,0 5,1 11,4 10,16 -4,12 -14,18 -30,19 -9,0 -17,-4 -26,-10 z"
               fill="url(#id-79968)"
               id="id-80078"
               style="fill:url(#id-79968)" />
            <path
               d="m 161,98 c -3,-6 -10,-9 -15,-8 -2,0 -4,0 -5,0 -3,6 -3,14 4,19 5,2 15,1 14,-7 -1,-2 -4,-4 -9,-5 2,0 4,-1 7,1 0,-1 1,-1 4,0 z"
               fill="#a453bf"
               id="id-80079" />
            <path
               d="m 153,97 5,-3 c 1,1 2,2 3,4 -2,-1 -3,-1 -4,0 -1,0 -3,-1 -4,-1 z"
               fill="#77329d"
               id="id-80080" />
            <path
               d="m 159,95 c 0,0 1,1 1,3 11,2 11,9 12,16 1,-13 -3,-19 -13,-19 z"
               fill="#a0a299"
               id="id-80081" />
            <path
               d="m 130,137 c 0,-4 0,-6 0,-6 4,7 25,8 36,3 -7,7 -25,6 -35,6 -1,-2 -1,-3 -1,-3 z"
               fill="#5e6470"
               id="id-80082" />
            <path
               d="m 130,137 1,-4 1,7 h -1 c -1,-2 -1,-3 -1,-3 z"
               fill="#5b6274"
               id="id-80083" />
            <path
               d="m 29,142 c 1,3 0,5 -3,5 -2,0 -3,3 0,5 0,-3 1,-5 3,-5 -1,1 -2,3 -2,4 2,0 3,0 3,0 0,-2 1,-4 3,-4 -2,2 -2,3 -2,5 h 4 c 2,-1 4,-2 5,-8 -3,-1 -4,-5 -5,-10 l -2,2 c -1,3 -2,5 -4,6 z"
               fill="#d55dee"
               id="id-80084" />
            <path
               d="m 62,52 c 0,6 -3,11 -10,11 1,1 1,1 1,1 5,-1 9,-3 10,-10 4,6 8,10 15,7 0,0 0,0 0,0 -9,2 -12,-4 -15,-10 1,-1 2,-2 5,-2 1,-1 1,-2 -1,-3 -4,-2 -7,-1 -10,1 -1,2 0,3 2,3 2,0 3,1 3,2 z"
               fill="#3e3f48"
               id="id-80085" />
            <path
               d="m 54,57 c 0,1 0,1 0,1 -5,-1 -9,2 -14,7 5,-7 9,-9 14,-8 z"
               fill="#0e0e0e"
               id="id-80086" />
            <path
               d="m 55,55 c 0,1 0,1 0,1 -11,-3 -20,-3 -28,3 7,-6 16,-7 28,-4 z"
               fill="#0e0e0e"
               id="id-80087" />
            <path
               d="m 89,57 c -1,1 -1,1 -1,1 -4,-1 -9,2 -13,7 4,-7 9,-9 14,-8 z"
               transform="matrix(-1,0,0,1,164,0)"
               fill="#0e0e0e"
               id="id-80088" />
            <path
               d="m 103,55 c 0,1 0,1 0,1 -11,-3 -20,-3 -28,3 7,-6 16,-7 28,-4 z"
               transform="matrix(-1,0,0,1,178,0)"
               fill="#0e0e0e"
               id="id-80089" />
            <path
               d="m 54,52 c -1,1 -1,1 -1,1 -2,-2 -6,-2 -11,-3 4,0 8,0 12,2 z"
               fill="#0e0e0e"
               id="id-80090" />
            <path
               d="m 59,70 c 0,4 2,5 5,5 3,0 5,-2 6,-6 -8,1 -11,1 -11,1 z"
               fill="#d9d9c3"
               id="id-80091" />
            <path
               d="m 74,51 c 0,0 0,1 0,1 2,-1 4,-2 8,-2 -2,-1 -5,-1 -8,1 z"
               fill="#20202e"
               id="id-80092" />
            <path
               d="m 58,69 c 2,1 3,2 6,2 2,0 4,-1 6,-3 0,0 0,0 0,0 -1,2 -3,5 -6,5 -3,0 -4,-1 -6,-4"
               fill="#1b1c36"
               id="id-80093" />
            <path
               d="m 28,44 c 2,4 5,8 14,6 5,-2 10,-4 9,-13 -1,-4 -5,-10 -13,-9 -8,1 -12,7 -10,16 z"
               fill="#000000"
               id="id-80094" />
            <path
               d="m 29,37 c -1,6 1,9 3,11 6,4 15,1 18,-6 1,-5 -1,-8 -3,-11 -4,-3 -14,-6 -18,6 z"
               fill="#ffffff"
               id="id-80095" />
            <path
               d="m 40,34 c -3,1 -1,4 0,5 2,0 3,-1 4,-4 2,3 3,9 -2,11 -2,1 -7,1 -8,-3 -2,-5 0,-9 6,-9 z"
               fill="#a6d646"
               id="id-80096" />
            <path
               d="m 43,37 c -2,3 -5,2 -5,-1 -3,0 -4,4 -2,7 3,4 10,0 7,-6 z"
               fill="#363841"
               id="id-80097" />
            <path
               d="m 28,28 c -1,0 -2,1 -1,2 6,1 11,-1 15,-6 1,0 0,-2 -2,-1 -3,4 -7,6 -12,5 z"
               fill="#282828"
               id="id-80098" />
            <path
               d="m 86,24 c -6,-1 -13,3 -15,12 0,6 3,11 10,14 6,1 12,0 15,-7 2,-4 2,-8 -1,-13 -2,-3 -5,-5 -9,-6 z"
               fill="#2c2c28"
               id="id-80099" />
            <path
               d="M 86,25 C 79,24 73,29 72,36 72,43 76,49 86,49 91,48 97,45 97,37 96,31 93,27 86,25 Z"
               fill="#ffffff"
               id="id-80100" />
            <path
               d="m 84,31 c -5,0 -7,5 -6,10 1,4 8,7 11,1 2,-3 2,-6 0,-9 0,2 -1,4 -3,4 -2,0 -5,-3 -2,-6 z"
               fill="#99de0c"
               id="id-80101" />
            <circle
               cx="41"
               cy="36"
               fill="#ffffff"
               id="id-80102"
               r="3" />
            <circle
               cx="86"
               cy="34"
               fill="#ffffff"
               id="id-80103"
               r="3" />
            <path
               d="m 85,43 c 3,0 5,-3 3,-8 -1,3 -5,1 -5,-2 -4,1 -5,5 -3,8 2,2 3,2 5,2 z"
               fill="#363841"
               id="id-80104" />
            <path
               d="m 83,19 c 3,0 5,-1 8,1 0,3 -1,5 -1,5 l -3,-1 c -2,-3 -4,-5 -4,-5 z"
               fill="#903ba2"
               id="id-80105" />
            <path
               d="m 80,17 c 5,-1 9,-1 12,0 1,-6 2,-9 2,-9 C 93,6 92,6 90,6 l -11,9 c 1,1 1,2 1,2 z"
               fill="#a041b4"
               id="id-80106" />
            <path
               d="m 80,17 c 2,-1 3,-1 3,-1 L 93,6 c -1,0 -1,0 -3,0 l -11,9 c 1,1 1,2 1,2 z"
               fill="#d054e7"
               id="id-80107" />
            <path
               d="m 78,18 c -1,1 0,1 0,1 6,-1 11,-2 15,2 2,2 2,1 3,0 0,-1 0,-2 -2,-2 -5,-2 -10,-2 -16,-1 z"
               fill="#282828"
               id="id-80108" />
            <path
               d="m 41,17 c -6,7 -8,11 -8,11 -2,0 -3,0 -3,0 0,-7 -5,-13 -3,-18 2,-1 6,1 14,7 z"
               fill="#a041b4"
               id="id-80109" />
            <path
               d="m 27,10 c 0,1 -1,0 0,3 2,-2 5,1 10,8 l 4,-4 C 34,12 30,10 27,10 Z"
               fill="#d054e7"
               id="id-80110" />
          </g>
          <g
             transform="translate(83)"
             id="g619">
            <g
               transform="rotate(5,51.788703,1286.4477)"
               id="g466">
              <path
                 d="m 27,150 c -7,1 -17,3 -23,3 -3,-1 -5,-1 -3,-5 3,-3 8,-6 16,-9 -4,-7 0,-30 1,-50 3,-14 5,-21 5,-21 -3,-3 -6,-7 -4,-11 0,-1 0,-3 1,-4 -5,-5 -5,-10 1,-17 -1,-2 -2,-5 1,-7 -7,-9 -10,-14 -10,-14 1,-1 1,-1 1,-1 3,-1 5,-1 5,-1 1,4 2,6 2,6 2,-2 3,-2 3,-2 1,0 1,1 1,2 0,0 1,0 1,0 1,-3 2,-4 2,-4 4,2 6,2 6,2 2,-3 5,-7 8,-6 1,-2 3,-4 5,-3 1,-3 3,-3 6,-3 1,-1 2,-3 6,-5 1,12 20,7 23,18 2,0 4,1 4,4 5,0 10,1 14,4 -7,3 -10,5 -10,5 1,2 2,5 2,9 5,3 4,6 2,9 2,5 3,9 2,14 16,36 24,54 24,54 1,4 0,8 0,12 5,1 23,3 17,9 -5,2 -16,2 -26,3 -2,1 -3,2 -5,3 -1,1 0,2 1,2 4,0 5,3 3,5 -2,1 -7,2 -14,2 -3,-2 -3,-4 -3,-7 -18,2 -32,4 -49,6 -1,3 0,8 -6,9 -4,-1 -8,0 -11,-1 -2,-2 0,-5 3,-6 1,0 3,-5 -2,-4 z"
                 fill="url(#id-79969)"
                 id="id-80113"
                 style="fill:url(#id-79969)" />
              <path
                 d="m 22,93 c -1,18 2,36 9,54 6,4 25,3 61,-3 10,-6 20,-23 21,-38 L 103,83 C 96,82 84,97 74,99 69,100 67,99 63,98 37,101 38,95 22,93 Z"
                 fill="url(#id-79970)"
                 id="id-80114"
                 style="fill:url(#id-79970)" />
              <path
                 d="m 19,89 c 2,-10 5,-21 5,-21 1,1 2,1 4,1 -5,-2 -10,-6 -8,-11 2,2 3,3 5,3 -3,-2 -7,-5 -4,-8 -5,-4 -5,-9 1,-17 -3,-3 -1,-8 9,-8 -1,0 -3,0 -6,0 3,-3 7,-5 14,0 -2,-3 -5,-5 -9,-5 3,-4 4,-6 4,-6 2,-4 4,-7 7,-5 2,-4 4,-4 6,-3 0,-3 2,-4 7,-3 0,-1 0,-3 4,-5 3,12 19,7 22,17 4,1 4,2 4,4 -1,3 -1,5 -1,5 5,3 7,6 7,14 6,2 3,8 -2,11 2,0 3,-1 5,-1 5,16 -4,22 0,28 0,-7 2,-10 2,-13 4,8 6,12 6,12 C 92,80 80,101 66,98 62,97 60,94 51,94 34,97 33,89 19,89 Z"
                 fill="#97d787"
                 id="id-80115" />
              <path
                 d="m 28,69 c 14,-1 23,-7 29,-15 5,4 9,7 18,5 6,4 11,6 20,5 0,-4 -1,-8 -2,-13 2,-6 1,-9 -3,-10 0,-9 -3,-12 -7,-14 1,-4 2,-9 -3,-9 C 78,9 60,11 58,1 55,2 54,4 54,6 50,5 47,6 47,9 45,8 43,8 41,12 37,9 34,18 30,23 c -2,2 -4,3 -5,5 -6,4 -5,6 -3,8 -7,8 -5,13 -1,17 -2,1 -1,3 -1,5 -2,5 1,8 8,11 z"
                 fill="url(#id-79971)"
                 id="id-80116"
                 style="fill:url(#id-79971)" />
              <path
                 d="m 58,0 c 1,12 20,7 23,18 2,0 4,1 4,4 5,0 10,1 14,4 -7,3 -10,5 -10,5 1,2 2,5 2,9 5,3 4,6 3,9 h -1 v 0 c 2,5 3,9 2,14 16,36 24,54 24,54 1,4 0,8 0,12 1,0 4,1 7,1 h 1 v 0 1 0 h 1 c 0,0 0,0 1,0 v 0 c 6,1 11,3 7,7 -3,1 -10,2 -17,2 h -1 v 0 h -1 c -3,1 -5,1 -7,1 -2,1 -3,2 -5,3 -1,1 0,2 1,2 4,0 5,3 3,5 -2,1 -7,2 -14,2 -2,-1 -2,-3 -3,-4 v -1 c 0,0 0,-1 0,-2 -9,1 -16,2 -23,3 h -4 c -7,1 -14,2 -22,3 -1,3 0,8 -6,9 -4,-1 -8,0 -11,-1 -2,-2 0,-5 3,-6 1,0 3,-5 -2,-4 -7,1 -17,3 -23,3 -3,-1 -5,-1 -3,-5 3,-3 8,-6 16,-9 -3,-6 -2,-21 0,-37 v -1 0 -1 0 -1 0 l 1,-1 c 0,-3 0,-5 0,-7 v -1 c 0,0 0,-1 0,-1 3,-14 5,-21 5,-21 -3,-3 -6,-7 -4,-11 0,-1 0,-3 1,-4 -5,-5 -5,-10 1,-17 -1,-2 -2,-5 1,-7 -7,-9 -10,-14 -10,-14 1,-1 1,-1 1,-1 3,-1 5,-1 5,-1 1,4 2,6 2,6 2,-2 3,-2 3,-2 1,0 1,1 1,2 0,0 1,0 1,0 1,-3 2,-4 2,-4 4,2 6,2 6,2 2,-3 5,-7 8,-6 1,-2 3,-4 5,-3 1,-3 3,-3 6,-3 1,-1 2,-3 6,-5 z m 44,80 C 90,82 80,106 62,98 58,95 53,95 47,96 33,97 29,88 19,90 c 0,5 -1,10 -1,16 v 1 c 0,0 0,0 0,1 l -1,1 v 0 1 c -1,12 -2,24 1,27 6,0 9,1 9,1 0,-4 -3,-6 -4,-8 3,2 6,5 7,13 0,-1 0,-1 0,-1 -1,6 4,12 -3,14 -2,2 -1,4 1,4 0,-1 0,-5 3,-4 -2,1 -2,3 -2,4 2,0 3,0 3,0 0,0 0,0 0,-1 v 0 c 0,-2 1,-3 3,-3 -2,1 -2,2 -2,4 4,1 7,0 9,-4 0,-7 -1,-12 -2,-17 1,2 2,4 3,7 0,-7 0,-13 1,-18 4,-11 12,-17 23,-18 7,1 13,4 17,10 3,8 6,17 9,27 0,2 1,4 2,5 2,0 4,0 7,0 0,-2 -1,-3 -4,-4 0,0 3,-1 5,4 1,0 2,0 3,-1 0,-2 -1,-3 -3,-4 1,0 3,0 4,4 1,-1 1,-1 2,-1 1,-2 -2,-3 -3,-3 -2,-1 -3,-2 -3,-4 -1,-11 0,-17 6,-22 -5,8 -6,15 -4,22 4,-2 9,-5 13,-14 1,-5 1,-10 -1,-15 C 107,91 102,80 102,80 Z m -84,60 c -5,1 -11,4 -16,9 -2,1 -1,3 2,3 -1,-1 -1,-2 1,-4 -1,2 -1,3 0,4 1,0 2,0 2,0 -1,-1 -1,-2 1,-3 -1,1 -1,3 1,3 l 18,-3 c -4,-2 -7,-5 -9,-9 z m 26,-12 -1,19 c 1,3 2,4 2,4 31,-4 46,-5 46,-5 -1,-3 -2,-8 -4,-12 v -2 c -1,-4 -2,-8 -3,-11 -8,-12 -30,-14 -40,7 z m -25,11 v 0 0 c 2,5 5,8 9,9 1,-1 1,-4 0,-9 -6,0 -9,0 -9,0 z m 101,-9 c -5,6 -8,10 -8,10 6,0 12,-1 18,-2 0,-2 -1,-3 -3,-4 3,0 4,1 5,4 1,0 1,0 1,0 1,-2 0,-3 -2,-4 2,0 4,1 4,4 0,0 0,-1 0,-1 v 0 c 1,0 1,0 1,0 v 0 c 0,0 1,0 1,-2 -1,-2 -7,-4 -17,-5 z M 58,1 c -4,2 -4,4 -4,5 -5,-1 -7,0 -7,3 -2,-1 -4,-1 -6,3 -3,-2 -5,1 -7,5 0,0 -1,2 -4,6 4,0 7,2 9,5 -7,-5 -11,-3 -14,0 3,0 5,0 6,0 -10,0 -12,5 -9,8 -6,8 -6,13 -1,17 -3,3 1,6 4,8 -2,0 -3,-1 -5,-3 -2,5 3,9 8,11 -2,0 -3,0 -4,-1 0,0 -2,8 -4,17 v 0 c 0,1 0,1 -1,2 v 1 0 1 c 6,0 9,1 13,3 v 0 c 0,0 1,0 1,0 l 1,1 c 4,1 8,3 17,1 9,0 11,3 15,4 14,3 26,-18 35,-20 0,0 -2,-4 -6,-12 0,3 -2,6 -2,13 -4,-6 5,-12 0,-28 -2,0 -3,1 -5,1 5,-3 8,-9 2,-11 0,-8 -2,-11 -7,-14 0,0 0,-2 1,-5 0,-2 0,-3 -4,-4 -1,-5 -6,-6 -11,-8 v 0 C 64,9 59,7 58,1 Z M 95,25 H 85 c 0,0 0,1 -1,2 2,1 3,2 4,3 v 0 L 98,26 Z M 13,15 c 7,9 10,13 10,13 2,-2 4,-4 6,-4 2,-4 3,-6 3,-6 -2,-1 -4,-2 -4,-2 h -1 c 0,0 0,0 0,0 -1,3 -2,4 -2,4 -1,0 -1,0 -1,0 -1,-1 -1,-2 -1,-2 v 0 c 0,0 0,0 0,0 l -3,2 c -2,-4 -3,-6 -3,-6 -1,0 -3,0 -4,1 z"
                 fill="#12130d"
                 id="path405" />
              <path
                 d="m 88,30 c 7,-3 10,-4 10,-4 -4,-2 -8,-3 -13,-4 l -1,5 c 2,1 3,2 4,3 z"
                 fill="#457855"
                 id="id-80118" />
              <path
                 d="m 46,126 c -2,17 21,24 42,11 -1,-5 -2,-10 -4,-16 -4,-7 -25,-18 -38,5 z"
                 fill="url(#id-79972)"
                 id="id-80119"
                 style="fill:url(#id-79972)" />
              <path
                 d="m 28,69 v 4 c 2,2 2,3 2,3 7,-4 12,-7 12,-10 -5,2 -9,3 -14,3 z"
                 fill="#86c378"
                 id="id-80120" />
              <path
                 d="m 31,61 c 0,1 0,1 0,1 6,0 14,-1 14,-10 h -1 c 0,5 -4,9 -13,9 z"
                 fill="#2d2e36"
                 id="id-80121" />
              <path
                 d="m 35,68 c 4,0 6,-2 7,-4 0,0 -1,-1 -1,-1 -1,3 -3,4 -6,4 z"
                 fill="#272525"
                 id="id-80122" />
              <path
                 d="m 65,46 c 0,0 -1,1 -1,1 -2,-2 -3,-4 -2,-7 1,3 2,5 3,6 z"
                 fill="#41414c"
                 id="id-80123" />
              <path
                 d="m 67,51 c 2,4 7,5 13,4 v -1 c -4,1 -9,0 -13,-3 z"
                 fill="#41414c"
                 id="id-80124" />
              <path
                 d="m 78,59 c 1,1 2,2 5,2 1,0 3,0 4,-2 -3,1 -6,1 -9,0 z"
                 fill="#41414c"
                 id="id-80125" />
              <path
                 d="m 13,15 c 7,9 10,13 10,13 0,-6 0,-8 0,-8 0,-1 0,-1 0,-1 h -2 c -1,0 -1,1 -1,1 l -1,-3 z"
                 fill="#4d7e61"
                 id="id-80126" />
              <path
                 d="m 63,98 c -8,1 -18,1 -24,0 -7,-3 -15,-5 -20,-5 0,-2 0,-3 0,-3 6,-2 12,4 22,6 5,1 15,-2 22,2 z"
                 fill="#63a54f"
                 id="id-80127" />
              <path
                 d="m 83,14 c 0,2 0,4 0,4 -3,0 -6,3 -9,6 4,-5 7,-8 9,-10 z"
                 fill="#1a1a1a"
                 id="id-80128" />
              <path
                 d="m 83,19 c 0,1 0,1 0,1 -1,0 -3,2 -5,4 2,-3 3,-4 5,-5 z"
                 fill="#1a1a1a"
                 id="id-80129" />
              <path
                 d="m 32,62 c 4,2 8,2 11,0 4,-5 4,-8 2,-10 -1,8 -7,10 -13,10 z"
                 fill="#7ab477"
                 id="id-80130" />
              <path
                 d="m 57,85 c 3,4 6,8 13,7 4,-1 7,-5 9,-12 -7,9 -14,11 -22,5 z"
                 fill="#80b971"
                 id="id-80131" />
              <path
                 d="m 47,63 c 0,2 1,4 2,7 0,4 0,9 2,8 1,-1 0,-3 1,-4 1,1 2,3 6,5 -2,3 1,6 3,3 -1,-2 -1,-3 -1,-3 2,1 5,0 8,0 1,5 0,7 -3,8 0,5 -1,8 2,7 1,-1 0,-4 -1,-6 3,-1 6,-6 3,-10 2,-1 4,-2 4,-5 1,3 1,5 3,4 2,-2 -1,-5 -1,-7 2,-1 2,3 3,2 2,-1 -1,-6 -2,-13 l -2,1 C 67,75 58,77 47,63 Z"
                 fill="#d84c5b"
                 id="id-80132" />
              <path
                 d="m 56,54 c -2,-1 -5,0 -5,-3 0,-3 9,-5 12,-1 2,2 -5,2 -4,4 3,4 10,7 18,4 0,0 0,1 0,1 -1,0 -2,0 -3,1 0,8 -4,15 -10,16 -8,1 -13,-4 -17,-13 -2,0 -2,0 -3,-1 v 0 c 4,1 8,-1 12,-8 z"
                 fill="#31323d"
                 id="id-80133" />
              <path
                 d="m 54,59 c -2,2 -4,3 -4,3 1,2 2,4 3,3 l 2,-1 c -1,-3 -1,-5 -1,-5 z"
                 fill="#f8ecda"
                 id="id-80134" />
              <path
                 d="m 55,66 c 0,4 0,7 0,7 3,0 4,-1 4,-6 -1,-1 -2,-1 -4,-1 z"
                 fill="#f7ebd9"
                 id="id-80135" />
              <path
                 d="m 60,70 c 1,3 2,5 2,5 1,0 2,-1 2,-4 -1,-2 -2,-3 -4,-1 z"
                 fill="#f7ebd9"
                 id="id-80136" />
              <path
                 d="m 66,71 c 2,2 3,1 2,-3 -1,-1 -2,-2 -3,-1 1,3 1,4 1,4 z"
                 fill="#f7ebd9"
                 id="id-80137" />
              <path
                 d="m 57,55 c 0,4 0,8 2,9 3,0 4,-2 4,-5 -2,-1 -4,-2 -6,-4 z"
                 fill="#f8ecda"
                 id="id-80138" />
              <path
                 d="m 65,60 c 0,3 1,4 3,3 1,0 1,-1 1,-3 -1,1 -3,0 -4,0 z"
                 fill="#f8ecda"
                 id="id-80139" />
              <path
                 d="m 52,70 c 3,3 6,5 10,5 6,0 9,-4 10,-9 -6,8 -12,9 -20,4 z"
                 fill="url(#id-79973)"
                 id="id-80140"
                 style="fill:url(#id-79973)" />
              <path
                 d="m 56,84 c 8,3 15,4 22,-4 -2,4 -5,7 -10,8 -5,0 -9,-1 -12,-4 z"
                 fill="#30313c"
                 id="id-80141" />
              <path
                 d="m 67,79 c 1,-1 2,-1 2,-1 -1,-1 -2,-2 -3,-1 1,1 1,2 1,2 z"
                 fill="#be424f"
                 id="id-80142" />
              <path
                 d="m 60,79 c -1,0 -2,0 -2,0 0,-1 -1,-2 -2,-3 2,0 3,1 4,3 z"
                 fill="#be424f"
                 id="id-80143" />
              <path
                 d="m 72,73 c 1,0 1,0 1,0 1,-4 4,-8 2,-13 -1,6 -2,10 -3,13 z"
                 fill="#be424f"
                 id="id-80144" />
              <path
                 d="m 54,75 c 0,-1 0,-2 0,-2 -2,-1 -4,-2 -6,-6 1,3 3,6 6,8 z"
                 fill="#be424f"
                 id="id-80145" />
              <path
                 d="m 101,83 c -1,0 -2,0 -2,0 0,-2 0,-3 -1,-6 2,4 3,6 3,6 z"
                 fill="#292737"
                 id="id-80146" />
              <path
                 d="m 97,84 c -1,0 -1,0 -1,0 -1,-1 -2,-2 -1,-5 1,3 1,4 2,5 z"
                 fill="#292737"
                 id="id-80147" />
              <path
                 d="m 92,89 c 0,0 1,0 1,0 -1,-3 -3,-5 -5,-7 3,5 4,7 4,7 z"
                 fill="#292737"
                 id="id-80148" />
              <path
                 d="m 88,93 c 0,0 -1,1 -1,1 -1,-2 -3,-4 -3,-7 3,4 4,6 4,6 z"
                 fill="#292737"
                 id="id-80149" />
              <path
                 d="m 81,99 c -1,1 -1,1 -1,1 -2,-2 -3,-5 -3,-8 2,4 3,6 4,7 z"
                 fill="#292737"
                 id="id-80150" />
              <path
                 d="m 61,100 c 1,0 1,0 1,0 1,-3 1,-5 1,-7 -1,5 -2,7 -2,7 z"
                 fill="#292737"
                 id="id-80151" />
              <path
                 d="m 54,97 c -1,0 -2,1 -2,1 0,-2 0,-4 0,-7 1,4 2,6 2,6 z"
                 fill="#292737"
                 id="id-80152" />
              <path
                 d="m 48,98 c -1,0 -1,0 -1,0 0,-2 0,-5 1,-6 0,4 0,6 0,6 z"
                 fill="#292737"
                 id="id-80153" />
              <path
                 d="m 43,98 c 0,1 -1,1 -1,1 0,-4 -1,-6 -2,-7 1,0 2,2 3,6 z"
                 fill="#292737"
                 id="id-80154" />
              <path
                 d="m 35,97 c 1,0 1,0 1,0 0,-2 0,-4 -1,-6 0,4 0,6 0,6 z"
                 fill="#292737"
                 id="id-80155" />
              <path
                 d="m 29,95 c -1,0 -1,0 -1,0 0,-3 1,-6 2,-7 -1,4 -1,6 -1,7 z"
                 fill="#292737"
                 id="id-80156" />
              <path
                 d="m 67,51 c 0,1 -2,0 -1,3 2,3 11,6 16,3 0,-1 -1,-2 -2,-2 -6,1 -10,0 -13,-4 z"
                 fill="#7ab477"
                 id="id-80157" />
              <path
                 d="m 74,19 c -1,1 -2,3 -4,2 -1,0 -2,-1 -4,0 -4,2 -8,4 -12,9 -2,1 -4,0 -4,-2 0,-2 1,-4 0,-5 -2,-3 -6,-1 -6,-9 -2,0 -2,-1 -3,-2 1,-2 2,-5 6,-4 0,-2 2,-3 7,-2 0,-2 0,-3 4,-5 1,4 3,6 10,9 l 6,2 c 7,2 7,5 0,7 z"
                 fill="#f4abbd"
                 id="id-80158" />
              <path
                 d="m 79,16 c -8,1 -11,2 -11,2 -6,3 -11,5 -16,3 -4,-3 -5,-5 -5,-8 l -2,3 c 2,6 7,3 7,10 -2,2 -1,3 1,3 8,-6 12,-9 12,-9 h 7 c 5,-2 7,-3 7,-4 z"
                 fill="#bb8c97"
                 id="id-80159" />
              <path
                 d="m 75,19 c -1,1 -3,3 -5,2 -1,0 -2,-1 -4,0 -4,2 -8,4 -12,9 -2,1 -4,0 -4,-2 0,-1 0,-1 0,-1 v -1 c 1,-1 1,-2 0,-3 -2,-3 -6,-1 -6,-9 -2,0 -2,-1 -3,-2 1,-2 2,-5 6,-4 0,-2 2,-3 6,-2 0,0 1,-1 1,-1 v 0 c 0,-1 1,-3 4,-4 0,3 2,5 6,7 -3,-1 -5,-3 -6,-6 -2,1 -3,2 -3,4 1,2 2,2 3,2 -1,2 -2,1 -3,0 V 8 C 54,7 53,6 52,6 c -3,0 -4,1 -5,3 -2,-1 -4,0 -5,3 0,1 1,1 3,2 -1,2 0,5 3,6 2,2 4,3 3,6 0,2 0,3 2,3 2,-2 4,-3 6,-5 -2,-3 -4,-4 -6,-2 0,-1 0,-1 0,-1 3,-2 5,-1 7,2 4,-2 5,-3 5,-3 -1,-3 -3,-5 -8,-3 0,0 0,0 0,0 h -1 c -1,0 -3,-1 -3,-5 1,4 3,5 6,4 3,-1 5,0 8,3 l 4,1 c 11,-3 10,-7 -3,-10 12,3 14,6 7,9 z"
                 fill="#0e0e0f"
                 id="path449" />
              <path
                 d="m 66,14 c 0,0 0,0 0,0 -1,-1 -3,-4 -6,-1 l -1,-1 c 3,-2 6,-1 7,2 z"
                 fill="#070707"
                 id="id-80161" />
              <path
                 d="m 83,26 c -9,-1 -16,2 -18,9 -2,9 2,15 9,18 8,1 16,-1 18,-11 L 91,40 C 91,33 89,29 83,26 Z"
                 fill="#6e946d"
                 id="id-80162" />
              <path
                 d="m 72,28 c -6,3 -8,9 -6,15 4,12 20,13 25,-2 h -1 c 1,-6 -2,-11 -7,-14 -4,0 -7,0 -11,1 z"
                 fill="#353642"
                 id="id-80163" />
              <path
                 d="m 83,26 c -10,-1 -16,3 -17,11 0,9 7,16 17,13 4,-1 7,-4 8,-10 0,-7 -3,-12 -8,-14 z"
                 fill="#626262"
                 id="id-80164" />
              <path
                 d="M 81,27 C 71,26 66,33 68,42 72,54 87,52 90,41 91,33 87,28 81,27 Z"
                 fill="#fafbfa"
                 id="id-80165" />
              <path
                 d="m 90,41 c 1,-8 -2,-12 -9,-12 -8,0 -12,8 -9,13 6,10 16,7 18,-1 z"
                 fill="url(#id-79974)"
                 id="id-80166"
                 style="fill:url(#id-79974)" />
              <path
                 d="m 80,31 c -5,0 -7,5 -7,9 2,6 9,9 14,3 4,-6 0,-13 -7,-12 z"
                 fill="url(#id-79975)"
                 id="id-80167"
                 style="fill:url(#id-79975)" />
              <path
                 d="m 82,27 c -3,2 -3,6 0,8 3,2 7,0 6,-4 -2,-2 -4,-4 -6,-4 z"
                 fill="#f6f7f6"
                 id="id-80168" />
              <path
                 d="m 42,54 c 4,-7 0,-20 -8,-22 -7,-1 -16,4 -17,15 1,4 3,7 4,8 7,7 17,5 21,-1 z"
                 fill="#5c7e5c"
                 id="id-80169" />
              <path
                 d="m 24,57 c 9,3 20,-3 17,-16 -3,-7 -9,-9 -15,-8 -6,3 -9,8 -9,15 2,4 4,7 7,9 z"
                 fill="#373a40"
                 id="id-80170" />
              <path
                 d="m 35,35 c 6,4 8,15 0,20 -8,5 -16,0 -17,-9 -2,-4 5,-17 17,-11 z"
                 fill="#ffffff"
                 id="id-80171" />
              <path
                 d="m 28,56 c 6,-1 12,-9 5,-17 -5,-4 -12,-3 -15,2 -1,3 -2,16 10,15 z"
                 fill="url(#id-79976)"
                 id="id-80172"
                 style="fill:url(#id-79976)" />
              <path
                 d="m 28,40 c 9,3 6,13 0,14 -5,1 -9,-1 -10,-7 0,-5 4,-9 10,-7 z"
                 fill="url(#id-79977)"
                 id="id-80173"
                 style="fill:url(#id-79977)" />
              <circle
                 cx="28"
                 cy="40"
                 r="4"
                 fill="#ffffff"
                 id="circle464" />
            </g>
            <g
               transform="rotate(6,-109.85194,217.44625)"
               id="id-80175">
              <path
                 d="m 60,184 c -4,15 -5,19 -18,18 -2,1 -4,2 -6,0 -9,-2 -1,-11 3,-11 0,-5 0,-7 -2,-18 -7,-8 -14,-17 -10,-31 -1,-1 -1,-1 -1,-1 0,1 -1,3 -2,4 1,2 2,7 0,8 -2,1 -3,1 -5,-1 2,4 1,6 -1,7 -2,2 -9,-7 -5,-15 -4,-2 -3,-10 0,-11 1,-3 1,-6 3,-7 1,-4 2,-10 3,-12 -4,-5 0,-10 7,-16 -2,-1 -5,1 -8,4 0,-2 -1,-4 1,-7 -4,3 -9,2 -14,-1 3,-1 4,0 7,-2 C 5,89 6,82 8,79 8,77 8,76 8,76 5,77 4,73 3,68 c -4,0 -4,-9 1,-7 1,-3 2,-5 5,-4 -1,-4 3,-3 6,-2 -2,-1 5,2 7,-3 1,-3 -7,-11 -10,-12 2,-1 1,-2 3,-3 -2,0 -3,-6 -1,-7 1,2 3,3 4,3 2,1 6,1 9,1 2,1 4,2 7,3 l 1,-2 c -3,0 -5,-1 -7,-3 -1,-2 -2,-4 -2,-6 1,1 2,2 3,3 1,1 2,1 3,1 -1,0 -3,-2 -4,-8 C 25,14 31,4 38,0 38,1 39,1 39,1 33,3 29,21 42,25 36,7 49,9 52,12 54,8 57,4 65,5 c 4,2 7,4 5,12 9,3 6,7 5,12 6,-10 15,-6 17,-16 2,2 4,4 2,8 2,0 3,1 4,2 -5,2 -6,8 -5,15 3,-2 3,-5 9,-5 10,2 13,18 13,22 3,3 7,4 9,9 6,2 6,15 1,15 1,4 1,6 1,6 2,5 -1,11 -7,10 -2,3 -4,5 -8,8 1,8 2,17 5,20 0,1 1,2 0,4 3,8 9,13 8,30 3,0 5,0 12,-4 1,-2 2,-4 3,-5 -2,-3 2,-7 5,-8 5,-27 -9,-31 -10,-54 1,-10 7,-15 15,-18 18,-2 26,11 19,22 -2,-7 -3,-8 -5,-10 2,12 -3,16 -11,16 6,-10 -1,-11 -3,-11 0,9 9,26 11,44 1,1 1,2 1,2 -1,10 -4,18 -7,22 -1,4 -2,5 -4,5 -2,2 -4,5 -7,8 0,4 -5,5 -11,7 -1,0 -2,-1 -3,-2 -3,0 -5,0 -5,0 2,3 2,7 3,13 5,1 12,7 5,10 -1,1 -2,3 -6,2 -2,2 -9,2 -13,-2 -4,-4 -8,-16 -12,-19 -11,7 -25,10 -41,9 z"
                 fill="#17172f"
                 id="id-80176" />
              <path
                 d="m 28,143 c -5,10 8,30 10,29 4,6 11,10 22,11 14,0 25,-2 33,-5 6,-4 9,-5 9,-5 1,1 1,2 1,2 6,8 7,24 21,20 3,0 2,-2 0,-5 2,1 3,2 3,5 4,0 6,-2 3,-6 1,0 2,1 3,4 3,-5 -4,-8 -9,-9 1,0 2,0 2,0 0,-6 -3,-14 -5,-21 -2,1 -4,2 -6,2 -4,-3 -7,-9 -10,-15 -2,1 -3,2 -3,2 -1,-1 -2,-2 -2,-2 -2,1 -3,1 -3,1 0,-2 -1,-3 -1,-3 2,-1 3,-1 3,-1 0,-1 0,-1 0,-1 3,-2 5,-3 5,-3 -1,-2 -1,-4 -1,-4 9,-4 14,-6 14,-6 -1,-4 -2,-5 -2,-5 -31,16 -49,15 -59,30 -2,2 -4,4 -10,3 -5,-3 -4,-15 -18,-18 z"
                 fill="#c8c0c0"
                 id="id-80177" />
              <path
                 d="m 81,142 c 5,8 11,18 11,36 3,-1 8,-4 12,-7 5,7 7,26 22,24 1,-2 0,-3 0,-5 1,1 2,2 3,5 3,-2 2,-4 -1,-6 1,0 1,-1 3,0 -1,-2 -4,-3 -7,-5 l -4,-20 c -2,1 -4,1 -5,1 -4,-3 -7,-9 -10,-15 l -3,2 -2,-2 -3,1 -1,-3 3,-1 v -1 l 4,-2 c 0,-3 0,-4 0,-4 7,-4 11,-6 11,-6 l -2,-5 c -16,8 -26,12 -31,13 z"
                 fill="url(#id-79978)"
                 id="id-80178"
                 style="fill:url(#id-79978)" />
              <path
                 d="m 81,144 c -11,5 -23,10 -26,23 10,7 21,13 37,8 -1,-13 -4,-24 -11,-31 z"
                 fill="#f9efef"
                 id="id-80179" />
              <path
                 d="m 38,175 c 4,3 8,6 12,7 -2,9 -3,16 1,17 -2,1 -11,5 -8,-3 -2,1 -3,3 -2,5 -5,1 -6,-1 -3,-5 -1,0 -3,0 -3,4 -3,-2 -2,-5 7,-10 h -1 c -1,-8 -2,-13 -3,-15 z"
                 fill="#6365bb"
                 id="id-80180" />
              <path
                 d="m 51,182 c 2,1 4,2 8,2 -3,3 -2,14 -7,15 -3,-1 -4,-6 -1,-17 z"
                 fill="url(#id-79979)"
                 id="id-80181"
                 style="fill:url(#id-79979)" />
              <path
                 d="m 100,148 c 0,1 0,1 0,1 -1,1 -2,1 -2,1 v -1 c 1,-1 2,-1 2,-1 z"
                 fill="#32779a"
                 id="id-80182" />
              <path
                 d="m 100,146 c 0,2 1,3 2,5 5,-3 7,-4 7,-4 0,-1 0,-2 -2,-4 -4,2 -7,3 -7,3 z"
                 fill="url(#id-79980)"
                 id="id-80183"
                 style="fill:url(#id-79980)" />
              <path
                 d="m 107,142 c 1,-2 2,-1 2,-1 2,1 2,3 2,6 h -1 c -1,-2 -1,-4 -3,-5 z"
                 fill="#72b1c7"
                 id="id-80184" />
              <path
                 d="m 111,142 c 4,-2 5,-3 5,-3 1,1 1,1 1,1 l -5,3 c 0,-1 -1,-1 -1,-1 z"
                 fill="#de45c4"
                 id="id-80185" />
              <path
                 d="m 107,150 c 1,-1 2,-2 2,-2 2,0 4,-1 3,-4 2,-1 3,-2 3,-2 3,1 4,0 5,-3 -1,-2 -2,-2 -4,-2 -2,0 -2,1 -2,3 -2,1 -3,1 -3,1 -1,-2 -4,-3 -5,1 -1,1 -1,1 -1,1 0,-2 0,-3 0,-3 8,-4 13,-6 13,-6 3,5 5,11 4,21 -1,0 -1,0 -1,0 -2,-4 -3,-7 -3,-7 -2,2 -3,2 -3,2 -1,-1 -1,-1 -1,-1 -2,2 -4,3 -4,3 1,2 3,3 6,1 0,-1 0,-1 0,-1 1,-1 1,-1 1,-1 2,5 3,7 3,7 1,-1 2,-1 2,-1 0,2 0,2 0,2 -3,1 -4,2 -4,2 -2,-4 -3,-7 -3,-7 l -5,3 c -2,-5 -3,-7 -3,-7 z"
                 fill="url(#id-79981)"
                 id="id-80186"
                 style="fill:url(#id-79981)" />
              <path
                 d="m 111,158 c 1,2 3,4 4,6 4,-2 6,-2 6,-2 0,-1 0,-1 0,-1 -2,0 -4,1 -4,1 l -3,-6 c -2,1 -3,2 -3,2 z"
                 fill="url(#id-79982)"
                 id="id-80187"
                 style="fill:url(#id-79982)" />
              <path
                 d="m 115,139 c 0,0 0,-1 0,-1 1,-1 2,-1 4,0 0,2 0,4 -2,4 1,-1 1,-2 0,-3 0,-1 -1,-1 -2,0 z"
                 fill="#4e88a6"
                 id="id-80188" />
              <path
                 d="m 129,171 c -3,0 -5,0 -5,0 0,-4 -1,-5 -1,-5 7,0 14,0 17,-12 -1,0 -1,0 -1,0 -2,7 -7,11 -15,11 -1,-1 -1,-2 -1,-2 8,1 12,-3 14,-9 1,-3 3,-6 6,-8 1,0 1,0 1,0 -1,1 -3,3 -4,6 1,0 1,0 1,0 1,-2 2,-3 4,-5 2,1 3,2 4,6 -5,7 -10,11 -14,12 0,1 0,2 0,2 l -5,1 c -1,2 -1,3 -1,3 z"
                 fill="url(#id-79983)"
                 id="id-80189"
                 style="fill:url(#id-79983)" />
              <path
                 d="m 134,168 c 0,2 0,3 0,3 -1,0 -4,1 -4,-2 3,0 4,-1 4,-1 z"
                 fill="#3d646e"
                 id="id-80190" />
              <path
                 d="m 135,168 c 2,0 3,-1 3,-1 0,2 0,3 0,3 l -3,1 c 0,-2 0,-3 0,-3 z"
                 fill="#2b5f68"
                 id="id-80191" />
              <path
                 d="m 142,166 c -1,-1 -2,0 -4,1 l 1,2 c 2,0 3,-1 3,-3 z"
                 fill="#2b5f68"
                 id="id-80192" />
              <path
                 d="m 123,159 c 0,2 0,3 0,3 6,1 11,-1 13,-7 -5,3 -9,4 -13,4 z"
                 fill="url(#id-79984)"
                 id="id-80193"
                 style="fill:url(#id-79984)" />
              <path
                 d="m 136,166 c 0,0 0,1 0,1 3,-2 5,-3 5,-3 1,1 1,1 1,1 3,-4 7,-6 7,-11 -3,6 -8,9 -13,12 z"
                 fill="#453a70"
                 id="id-80194" />
              <path
                 d="m 150,151 c 2,2 3,3 3,3 l -3,3 c 0,-3 0,-4 0,-6 z"
                 fill="#414f70"
                 id="id-80195" />
              <path
                 d="m 152,151 c -2,-4 -4,-8 -10,-7 -2,0 -2,2 -2,3 1,-2 2,-3 4,-2 2,0 4,2 8,6 z"
                 fill="#5c437a"
                 id="id-80196" />
              <path
                 d="m 143,141 c -1,1 -1,1 -1,2 4,0 8,-1 11,10 1,-1 1,-3 0,-6 1,-4 3,-5 4,-12 -2,0 -3,0 -3,0 0,1 0,2 0,2 1,0 1,1 1,1 0,1 0,2 -1,3 -1,0 -1,0 -1,0 0,3 -1,4 -2,4 -2,-2 -5,-4 -8,-4 z"
                 fill="url(#id-79985)"
                 id="id-80197"
                 style="fill:url(#id-79985)" />
              <path
                 d="m 155,131 c 1,0 2,1 2,1 -1,1 -1,2 -1,2 1,0 2,0 2,0 0,5 -2,9 -4,13 1,2 1,2 1,2 2,-5 4,-10 5,-18 -1,-1 -1,-2 -5,-2 0,1 0,2 0,2 z"
                 fill="url(#id-79986)"
                 id="id-80198"
                 style="fill:url(#id-79986)" />
              <path
                 d="m 155,132 c 0,2 0,2 0,2 -2,0 -3,0 -3,0 l 1,-2 c 2,0 2,0 2,0 z"
                 fill="#39688f"
                 id="id-80199" />
              <path
                 d="m 154,138 c 0,2 0,2 0,2 -2,0 -3,-1 -3,-1 l 1,-2 c 1,1 2,1 2,1 z"
                 fill="#39688f"
                 id="id-80200" />
              <path
                 d="m 151,144 c -2,-2 -4,-3 -6,-4 8,-25 -11,-35 -10,-55 3,-13 12,-17 24,-15 1,0 1,0 1,0 3,2 5,3 5,3 l 1,1 c 4,3 4,7 2,13 -1,-5 -3,-9 -8,-10 4,7 4,14 -5,17 2,-7 0,-9 -5,-10 1,-1 1,-2 3,-2 -4,-1 -7,3 -5,8 3,11 8,21 10,38 -2,0 -3,0 -3,0 -1,2 -1,3 -1,3 -2,0 -2,-1 -2,-1 -1,3 -1,4 -1,4 2,1 2,1 2,1 0,1 0,2 0,2 -1,0 -2,-1 -2,-1 -1,3 -1,4 -1,4 l 2,1 c -1,2 -1,3 -1,3 z"
                 fill="url(#id-79987)"
                 id="id-80201"
                 style="fill:url(#id-79987)" />
              <path
                 d="m 50,199 c -4,1 -5,1 -6,-2 0,-1 2,-2 3,-3 -1,3 0,5 3,5 z"
                 stroke="#979797"
                 id="id-80202" />
              <path
                 d="m 41,200 c -2,-1 -3,-1 -3,-1 1,-3 3,-6 8,-10 0,-3 0,-4 0,-4 l 3,1 c -1,6 -2,12 2,13 -3,2 -11,5 -8,-3 -2,1 -2,2 -2,4 z"
                 fill="#7c82e5"
                 id="id-80203" />
              <path
                 d="m 41,190 c 1,0 2,0 2,0 l -1,-11 -3,-3 c 1,7 1,12 2,14 z"
                 fill="#463c6d"
                 id="id-80204" />
              <path
                 d="m 56,129 c -4,1 -2,18 4,17 7,-5 21,-10 30,-14 11,-3 11,-16 5,-18 -12,9 -25,14 -39,15 z"
                 fill="#3b2c4b"
                 id="id-80205" />
              <path
                 d="m 77,138 c -3,-3 9,-11 1,-11 -5,0 -8,-1 -8,-1 7,-2 13,-4 19,-8 9,4 1,10 1,14 -8,3 -12,5 -13,6 z"
                 fill="#543d6f"
                 id="id-80206" />
              <path
                 d="m 91,117 c 2,1 4,4 5,7 1,-4 0,-7 -3,-8 -2,1 -2,1 -2,1 z"
                 fill="#684b92"
                 id="id-80207" />
              <path
                 d="m 28,135 c -1,4 -1,6 0,7 11,0 15,14 19,18 3,0 6,0 8,-2 -8,-2 -13,-6 -16,-14 -2,-4 -6,-7 -11,-9 z"
                 fill="#9a65af"
                 id="id-80208" />
              <path
                 d="m 28,134 c 6,3 10,6 13,10 1,-22 -3,-14 -12,-25 -3,5 -2,10 -1,15 z"
                 fill="url(#id-79988)"
                 id="id-80209"
                 style="fill:url(#id-79988)" />
              <path
                 d="m 23,145 c -2,0 -4,0 -6,-2 0,0 0,-1 0,-1 2,1 4,1 7,1 0,1 -1,2 -1,2 z"
                 fill="#503391"
                 id="id-80210" />
              <path
                 d="m 18,141 c 2,1 4,1 6,1 2,-6 3,-9 3,-9 -1,-4 -2,-8 1,-15 -2,0 -3,0 -3,0 -1,3 -1,5 -1,7 -2,-1 -5,-1 -7,-2 0,3 0,4 0,4 3,2 5,3 5,3 0,2 0,3 0,3 3,1 1,4 0,5 -2,0 -3,1 -4,3 z"
                 fill="url(#id-79989)"
                 id="id-80211"
                 style="fill:url(#id-79989)" />
              <path
                 d="m 15,144 c -2,5 -2,10 2,14 2,-1 2,-2 1,-4 0,-2 0,-4 1,-6 1,2 1,5 4,4 2,-1 1,-3 0,-6 -3,0 -5,0 -8,-2 z"
                 fill="#6d639d"
                 id="id-80212" />
              <path
                 d="m 13,134 c -2,1 -2,5 -1,7 1,-5 1,-7 1,-7 z"
                 fill="#2e5c8a"
                 id="id-80213" />
              <path
                 d="m 14,138 c 3,1 4,1 4,1 -2,3 -2,5 -2,5 l -2,-1 c 0,-4 0,-5 0,-5 z"
                 fill="#75467b"
                 id="id-80214" />
              <path
                 d="m 20,137 c -1,1 -1,1 -1,1 -2,-1 -4,-1 -5,-2 v -2 c 2,2 4,2 6,3 z"
                 fill="#503391"
                 id="id-80215" />
              <path
                 d="m 20,135 c 0,0 0,1 0,1 -2,-1 -4,-1 -6,-3 l 1,-1 c 0,1 2,2 5,3 z"
                 fill="#911dad"
                 id="id-80216" />
              <path
                 d="m 20,134 c -2,0 -4,-1 -5,-3 1,-2 1,-3 1,-3 1,1 3,2 5,3 0,2 -1,3 -1,3 z"
                 fill="#6a458b"
                 id="id-80217" />
              <path
                 d="m 29,137 c 0,2 0,3 0,3 3,1 7,3 10,6 -2,-4 -6,-7 -10,-9 z"
                 fill="#8c3fa0"
                 id="id-80218" />
              <path
                 d="m 28,116 c 0,1 0,1 0,1 -3,1 -8,0 -10,-7 0,-4 3,-8 11,-13 1,1 2,1 2,1 -5,3 -9,4 -10,12 0,4 3,6 7,6 z"
                 fill="url(#id-79990)"
                 id="id-80219"
                 style="fill:url(#id-79990)" />
              <path
                 d="m 21,134 c 1,0 1,0 2,1 0,1 -1,2 -2,3 0,-3 0,-4 0,-4 z"
                 fill="#3168b5"
                 id="id-80220" />
              <path
                 d="m 28,115 c -2,0 -8,-2 -6,-8 2,-3 4,-6 8,-7 -1,3 -1,5 0,7 -1,3 -2,6 -2,8 z"
                 fill="#6f4c70"
                 id="id-80221" />
              <path
                 d="m 50,123 c -3,-2 -5,1 -6,2 -1,3 2,6 4,5 3,-1 4,-3 2,-7 z"
                 fill="#403054"
                 id="id-80222" />
              <path
                 d="m 101,86 c 1,1 2,1 3,1 1,2 3,3 5,4 0,0 -1,0 -1,1 1,3 4,4 9,4 -3,4 -6,6 -9,8 0,0 0,0 2,0 0,8 2,15 5,21 -1,3 -13,7 -25,12 l -1,1 c -5,2 -11,4 -15,6 -8,2 -14,6 -18,13 -6,-1 -13,-5 -15,-11 2,-11 2,-19 -5,-22 -7,-4 -8,-10 -6,-16 2,11 7,15 14,14 4,-1 6,-5 5,-12 3,0 5,0 7,-1 -6,7 -6,14 0,16 8,2 23,-5 33,-13 10,-8 5,-21 12,-26 z m -5,27 c -1,0 -1,-1 -4,1 -12,8 -24,13 -37,14 -2,1 -3,4 -2,11 1,5 3,8 8,8 8,-5 19,-10 32,-14 8,-5 10,-17 3,-20 z m -44,10 c -3,-3 -6,-2 -9,1 -1,3 1,7 4,8 5,-2 6,-5 5,-9 z"
                 fill="url(#id-79991)"
                 id="path515"
                 style="fill:url(#id-79991)" />
              <path
                 d="m 59,109 c -4,1 -8,8 -5,13 3,4 13,1 18,-1 24,-9 23,-26 25,-32 -4,2 -3,6 -5,12 -3,10 -9,13 -24,19 -7,5 -22,2 -9,-11 z"
                 fill="#5d477a"
                 id="id-80224" />
              <path
                 d="m 61,109 c -3,2 -5,7 -4,11 2,2 5,2 9,0 14,-5 26,-12 26,-27 -7,8 -18,13 -31,16 z"
                 fill="url(#id-79992)"
                 id="id-80225"
                 style="fill:url(#id-79992)" />
              <path
                 d="m 86,104 c -3,5 -13,8 -15,13 1,-2 6,-4 11,-7 6,-5 10,-10 9,-15 -7,12 -27,14 -26,21 6,-7 15,-6 21,-12 z"
                 fill="url(#id-79993)"
                 id="id-80226"
                 style="fill:url(#id-79993)" />
              <path
                 d="m 110,91 c -1,1 -1,2 -1,2 1,2 4,3 9,2 l -1,-3 c -4,1 -6,0 -7,-1 z"
                 fill="url(#id-79994)"
                 id="id-80227"
                 style="fill:url(#id-79994)" />
              <path
                 d="m 110,90 c 1,-3 2,-4 2,-4 -2,0 -4,-1 -5,-3 l -2,4 c 2,2 4,3 5,3 z"
                 fill="#5a4b9a"
                 id="id-80228" />
              <path
                 d="m 100,83 c 0,1 0,2 0,2 -1,1 -2,2 -3,3 -1,0 -2,1 -3,3 1,-4 3,-6 6,-8 z"
                 fill="#8945b5"
                 id="id-80229" />
              <path
                 d="m 116,91 c -1,0 -3,0 -5,-1 1,-2 2,-4 2,-4 5,0 8,0 8,0 0,2 0,3 -1,3 -1,-1 -1,-1 -1,-1 h -3 c -1,1 0,3 0,3 z"
                 fill="url(#id-79995)"
                 id="id-80230"
                 style="fill:url(#id-79995)" />
              <path
                 d="m 120,91 c -1,-2 -1,-2 -1,-2 -2,0 -2,0 -2,0 0,3 1,5 3,5 3,0 6,-1 6,-6 -2,0 -2,0 -2,0 0,2 -1,4 -5,4 1,0 1,-1 1,-1 z"
                 fill="#3f97d0"
                 id="id-80231" />
              <path
                 d="m 114,86 c 4,-1 7,-1 7,-1 1,-2 1,-3 1,-3 -3,1 -5,0 -6,0 -2,2 -2,4 -2,4 z"
                 fill="url(#id-79996)"
                 id="id-80232"
                 style="fill:url(#id-79996)" />
              <path
                 d="m 113,85 c 1,-2 2,-4 2,-4 -2,-1 -2,-1 -2,-1 -3,3 -4,0 -6,-3 -2,1 -2,2 -2,2 1,1 2,2 2,3 2,2 4,3 6,3 z"
                 fill="#584ca1"
                 id="id-80233" />
              <path
                 d="m 96,35 c 1,2 1,3 1,3 1,0 17,3 17,17 -6,4 -9,6 -9,6 -1,-1 -3,-1 -6,-5 -3,-5 -6,-9 -11,-10 5,-7 8,-11 8,-11 z"
                 fill="#80cfe4"
                 id="id-80234" />
              <path
                 d="m 102,85 c -1,-1 -1,-2 -1,-3 0,-1 1,-2 2,-2 2,2 1,4 -1,5 z"
                 fill="#5466d0"
                 id="id-80235" />
              <path
                 d="m 105,80 c 0,2 0,4 -1,6 1,-1 1,-2 2,-3 0,-1 -1,-3 -1,-3 z"
                 fill="#5fa1d5"
                 id="id-80236" />
              <path
                 d="m 110,79 c -1,-2 -2,-4 -2,-6 0,-2 0,-3 0,-6 3,4 4,8 2,12 z"
                 fill="#616bd2"
                 id="id-80237" />
              <path
                 d="m 110,66 c -1,1 -1,1 -1,1 3,3 3,8 1,13 l 2,-1 c 1,-5 1,-10 -2,-13 z"
                 fill="#83d3fe"
                 id="id-80238" />
              <path
                 d="m 114,72 c 2,-1 2,-2 2,-2 0,6 0,9 -1,10 l -2,-1 c 1,-4 2,-6 1,-7 z"
                 fill="#6361d7"
                 id="id-80239" />
              <path
                 d="m 116,81 c 4,0 6,0 6,0 0,-2 -1,-3 -1,-3 -2,0 -3,-2 -3,-4 2,-3 6,-3 6,2 1,1 1,2 1,2 0,-4 0,-7 -1,-9 h -7 c 1,4 0,8 -1,12 z"
                 fill="url(#id-79997)"
                 id="id-80240"
                 style="fill:url(#id-79997)" />
              <path
                 d="m 126,78 c 1,-5 1,-9 -1,-13 2,2 3,4 3,6 0,6 -2,7 -2,7 z"
                 fill="#505aaa"
                 id="id-80241" />
              <path
                 d="m 118,68 c -3,2 -4,3 -4,3 -1,-3 -2,-6 -5,-6 0,-1 -1,-2 -1,-2 l -1,-2 c 4,-3 7,-5 7,-5 1,0 1,1 1,1 2,1 4,2 4,2 -3,1 -4,2 -4,2 0,1 0,1 0,1 -2,2 -3,3 -3,3 1,1 1,2 1,2 l 3,-3 c 1,3 2,4 2,4 z"
                 fill="#577cbe"
                 id="id-80242" />
              <path
                 d="m 116,63 c -2,1 -3,2 -3,2 0,0 0,0 0,0 2,-1 3,-2 3,-2 2,4 3,5 3,5 2,0 3,0 3,0 -2,-4 -2,-6 -2,-6 0,-1 1,-1 1,-1 -1,-1 -1,-1 -1,-1 l -4,1 c 0,1 0,2 0,2 z"
                 fill="url(#id-79998)"
                 id="id-80243"
                 style="fill:url(#id-79998)" />
              <path
                 d="m 121,62 c 0,0 1,0 1,0 2,4 2,6 2,6 h -1 c -2,-4 -2,-6 -2,-6 z"
                 fill="#4f00a0"
                 id="id-80244" />
              <path
                 d="m 124,75 c -1,-2 -2,-3 -4,-2 -1,2 -1,3 1,4 -1,-3 0,-4 3,-2 z"
                 fill="#5b7f91"
                 id="id-80245" />
              <path
                 d="m 122,75 c 0,0 -1,0 -1,0 2,4 3,7 3,10 h 1 c 0,-4 -1,-7 -3,-10 z"
                 fill="#8949ac"
                 id="id-80246" />
              <path
                 d="m 126,86 c 0,1 0,1 0,1 -2,0 -3,0 -3,0 l 1,-1 c 1,0 2,0 2,0 z"
                 fill="#4270b3"
                 id="id-80247" />
              <path
                 d="m 123,84 c 0,1 0,1 0,1 0,4 -1,6 -2,6 v -1 c 1,-2 2,-4 2,-6 z"
                 fill="#9dbfde"
                 id="id-80248" />
              <path
                 d="m 18,81 c 0,3 -6,4 -11,3 1,4 3,6 6,7 2,-2 3,-3 3,-3 0,3 -3,5 -7,7 3,2 8,1 14,-5 -2,3 -4,7 -3,9 1,-1 4,-3 8,-3 -1,-2 -1,-3 -1,-3 20,16 41,13 65,-1 0,-3 1,-6 8,-10 1,-1 0,-4 4,-4 2,-1 3,-2 3,-2 -1,-4 -2,-7 1,-10 0,-2 0,-2 0,-2 -2,-1 -3,-1 -3,-1 C 98,70 91,73 84,74 75,75 74,74 68,67 63,61 56,63 53,70 51,85 39,88 18,81 Z"
                 fill="url(#id-79999)"
                 id="id-80249"
                 style="fill:url(#id-79999)" />
              <path
                 d="m 19,80 c 13,7 27,4 30,-2 5,-7 1,-15 14,-16 4,1 7,7 11,10 7,4 22,0 30,-10 -2,-1 -4,-3 -6,-5 C 96,52 93,48 88,47 64,45 61,38 53,32 45,36 40,42 35,49 c -4,3 -9,7 -13,15 -2,7 2,10 -3,16 z"
                 fill="#c9d4f4"
                 id="id-80250" />
              <path
                 d="m 18,80 c -4,-2 -7,-10 -8,-19 3,0 1,-3 1,-3 -1,-1 -2,-1 -2,-1 -1,-3 3,-2 7,-1 -1,-2 7,-2 7,5 -6,7 2,13 -5,19 z"
                 fill="#9adcf6"
                 id="id-80251" />
              <path
                 d="m 45,72 c -5,-16 -6,-31 8,-40 10,5 16,17 32,13 -1,-2 -1,-2 -1,-2 3,0 5,0 5,0 C 86,38 82,33 75,29 78,23 77,19 70,17 72,12 71,7 65,5 59,4 55,6 52,12 49,10 46,8 41,12 c -1,4 0,11 2,14 -13,9 -11,29 2,46 z"
                 fill="#000000"
                 id="id-80252" />
              <path
                 d="M 41,60 C 40,48 40,36 56,29 l -2,2 c 9,6 13,14 30,13 0,-1 -1,-2 -1,-2 -2,0 -4,-1 -7,-4 4,1 6,4 11,3 -4,-3 -6,-7 -13,-11 -2,2 -2,0 -4,1 7,-6 7,-10 0,-12 -1,1 -2,2 -2,2 2,-7 2,-12 -4,-15 -5,-1 -8,2 -10,7 1,2 1,4 0,7 -1,-8 -6,-10 -10,-8 -3,1 -4,9 0,13 2,0 3,-1 7,-1 -3,-2 -4,-5 -4,-8 2,6 5,8 9,9 1,0 1,-2 1,-5 2,2 1,4 0,7 5,-2 6,-8 5,-16 2,4 1,11 -1,16 6,1 8,-1 10,-5 0,2 -1,4 -4,6 2,7 7,12 15,15 -8,-1 -13,-5 -16,-15 -4,0 -6,0 -6,0 1,3 2,6 7,8 -5,-1 -7,-4 -8,-8 -1,0 -2,0 -2,0 -2,-2 -4,-4 -9,-3 -11,5 -17,14 -9,36 -2,-10 -2,-16 -1,-20 0,6 1,13 3,19 z"
                 fill="url(#id-80000)"
                 id="id-80253"
                 style="fill:url(#id-80000)" />
              <path
                 d="m 32,99 c -1,0 -1,1 -1,1 -1,10 2,17 8,21 6,1 9,-2 9,-12 -1,0 -2,-1 -2,-1 2,12 -5,14 -10,8 -3,-4 -4,-10 -4,-17 z"
                 fill="url(#id-80001)"
                 id="id-80254"
                 style="fill:url(#id-80001)" />
              <path
                 d="m 33,101 c 0,6 0,12 6,17 7,1 7,-4 7,-10 -3,-2 -6,-4 -8,-7 -3,0 -5,0 -5,0 z"
                 fill="url(#id-80002)"
                 id="id-80255"
                 style="fill:url(#id-80002)" />
              <path
                 d="m 42,103 c 2,3 5,5 9,6 11,-2 23,-4 34,-11 -15,8 -30,9 -43,5 z"
                 fill="#acbdec"
                 id="id-80256" />
              <path
                 d="m 29,102 c -1,1 -1,3 0,5 0,1 -1,2 -1,5 -1,-2 -1,-4 0,-6 -4,1 -4,4 -2,8 -5,-3 -4,-7 3,-12 z"
                 fill="#8a64b3"
                 id="id-80257" />
              <path
                 d="m 51,122 c 3,4 2,8 -4,10 1,1 2,1 2,1 -4,4 -3,12 -1,20 1,-1 1,-1 1,-1 -1,-7 -4,-15 1,-19 v -1 c 4,-3 4,-7 1,-10 z"
                 fill="#9d82bf"
                 id="id-80258" />
              <path
                 d="m 90,113 c 15,-18 6,-23 16,-25 1,-1 2,-2 2,-2 1,0 2,0 2,0 -2,1 -2,2 -3,4 -8,-1 -1,13 -17,23 z"
                 fill="#836ecb"
                 id="id-80259" />
              <path
                 d="m 108,99 c -13,8 5,21 -13,34 7,-3 12,-7 10,-17 -2,-8 -1,-14 3,-17 z"
                 fill="#bb8fee"
                 id="id-80260" />
              <path
                 d="m 61,159 c -4,4 -6,9 -5,14 -10,-2 -26,-13 -21,-40 3,16 11,25 26,26 z"
                 fill="#ffffff"
                 fill-opacity="0.424"
                 id="id-80261" />
              <path
                 d="m 34,168 c -1,-4 -3,-7 -1,-13 4,8 1,15 23,25 l 3,3 C 48,181 40,177 34,168 Z"
                 fill="#e3dedf"
                 id="id-80262" />
              <path
                 d="m 105,171 c 1,-1 1,-2 1,-2 5,7 6,24 20,24 v 2 c -9,2 -16,-6 -21,-24 z"
                 fill="#769fda"
                 id="id-80263" />
              <path
                 d="m 157,84 c -2,-5 -5,-6 -8,-6 9,-4 14,7 8,14 0,-3 1,-6 -4,-9 1,-1 2,-1 4,1 z"
                 fill="#6bb3c9"
                 id="id-80264" />
              <path
                 d="m 142,75 c -9,23 14,36 7,66 -1,0 -2,0 -2,-1 6,-33 -21,-46 -5,-65 z"
                 fill="#6ea8c2"
                 id="id-80265" />
              <path
                 d="m 152,82 c -17,0 4,30 2,46 1,0 3,0 4,0 0,-20 -20,-45 -6,-46 z"
                 fill="#ffffff"
                 fill-opacity="0.615"
                 id="id-80266" />
              <path
                 d="m 49,84 c 7,4 11,-3 12,-9 -1,-1 -7,0 -7,-3 2,-4 12,-6 13,-2 2,2 -4,2 -4,4 1,5 9,9 15,4 -1,0 -2,-1 -2,-1 1,0 1,0 1,0 1,0 3,-1 3,2 -1,-1 -1,-1 -1,-1 -3,3 -6,4 -9,4 -1,5 -3,6 -5,6 -3,1 -5,0 -8,-3 -2,1 -5,2 -8,0 -1,1 -1,2 -1,2 0,-2 -1,-3 2,-4 0,1 -1,1 -1,1 z"
                 fill="#30313c"
                 id="id-80267" />
              <path
                 d="m 60,87 c 3,-3 5,-3 8,-2 -1,1 -1,2 -3,2 -2,1 -3,1 -5,0 z"
                 fill="#f39bb0"
                 id="id-80268" />
              <path
                 d="m 60,82 c -1,2 -2,3 -2,3 h 3 c -1,-2 -1,-3 -1,-3 z"
                 fill="#fdfdfd"
                 id="id-80269" />
              <path
                 d="m 67,83 c 1,-1 2,-2 2,-2 l -3,-1 c 0,2 1,3 1,3 z"
                 fill="#fdfdfd"
                 id="id-80270" />
              <path
                 d="m 54,81 c -1,1 -1,1 -1,1 -11,0 -12,7 -10,14 -4,-9 0,-14 11,-15 z"
                 fill="#0c0c0c"
                 id="id-80271" />
              <path
                 d="m 60,90 c 1,2 3,3 6,3 3,-1 4,-3 4,-5 -2,4 -6,4 -10,2 z"
                 fill="#0c0c0c"
                 id="id-80272" />
              <path
                 d="m 60,91 c 1,3 3,4 5,4 4,-1 5,-3 5,-5 -3,4 -6,4 -10,1 z"
                 fill="#9ca6b8"
                 id="id-80273" />
              <path
                 d="m 73,72 c -1,1 -2,1 -2,1 1,0 1,1 1,1 l 2,-1 c -1,-1 -1,-1 -1,-1 z"
                 fill="#090909"
                 id="id-80274" />
              <path
                 d="m 74,75 c 0,0 1,0 1,0 4,-2 13,0 14,9 1,-4 -1,-8 -5,-10 -4,-1 -7,-1 -10,1 z"
                 fill="#0c0c0c"
                 id="id-80275" />
              <path
                 d="m 34,84 c 1,1 1,1 1,1 -1,1 -3,2 -6,6 1,-3 3,-5 5,-7 z"
                 fill="#282a40"
                 id="id-80276" />
              <path
                 d="M 13,99 C 21,90 25,85 25,85 l -9,13 v -1 c -2,1 -3,2 -3,2 z"
                 fill="#282a40"
                 id="id-80277" />
              <path
                 d="m 5,82 c 0,1 0,2 0,2 l 15,4 C 13,85 8,83 5,82 Z"
                 fill="#282a40"
                 id="id-80278" />
              <path
                 d="m 11,78 c -2,2 -3,3 0,6 3,0 5,-1 6,-3 -3,0 -5,-1 -6,-3 z"
                 fill="url(#id-80003)"
                 id="id-80279"
                 style="fill:url(#id-80003)" />
              <path
                 d="m 5,68 c -1,0 -1,0 -1,0 0,5 1,9 5,7 V 74 C 6,74 5,72 5,68 Z"
                 fill="url(#id-80004)"
                 id="id-80280"
                 style="fill:url(#id-80004)" />
              <path
                 d="m 8,66 c 1,0 2,0 2,0 0,5 1,9 5,13 H 12 C 10,76 9,72 8,66 Z"
                 fill="url(#id-80005)"
                 id="id-80281"
                 style="fill:url(#id-80005)" />
              <path
                 d="M 9,73 C 8,73 8,73 8,73 5,70 5,66 6,61 c 2,0 3,0 3,0 0,2 0,4 0,4 H 7 c -1,3 0,6 2,8 z"
                 fill="url(#id-80006)"
                 id="id-80282"
                 style="fill:url(#id-80006)" />
              <path
                 d="m 5,67 c -2,1 -4,0 -4,-3 0,-3 2,-3 4,-3 0,4 0,6 0,6 z"
                 fill="url(#id-80007)"
                 id="id-80283"
                 style="fill:url(#id-80007)" />
              <path
                 d="m 5,60 c 1,-1 0,-3 3,-3 3,1 4,2 4,2 2,-1 4,-2 4,-2 -2,1 -1,2 -4,3 -5,0 -7,0 -7,0 z"
                 fill="url(#id-80008)"
                 id="id-80284"
                 style="fill:url(#id-80008)" />
              <path
                 d="M 55,36 C 46,44 46,54 49,64 43,53 38,43 53,32 61,39 69,45 80,46 70,47 61,44 55,36 Z"
                 fill="#8f92af"
                 id="id-80285" />
              <path
                 d="m 30,80 c 7,0 14,-2 18,-9 0,-10 -6,-15 -17,-15 -7,4 -12,8 -9,18 2,4 5,6 8,6 z"
                 fill="#050505"
                 id="id-80286" />
              <path
                 d="M 47,71 C 41,78 35,79 28,79 21,77 18,64 30,57 40,56 46,61 47,71 Z"
                 fill="#ffffff"
                 id="id-80287" />
              <path
                 d="m 45,68 c -2,8 -10,9 -15,5 -4,-5 -2,-10 4,-13 7,-2 11,1 11,8 z"
                 fill="url(#id-80009)"
                 id="id-80288"
                 style="fill:url(#id-80009)" />
              <path
                 d="m 39,62 c -5,-2 -8,2 -9,6 1,5 4,6 8,5 3,-1 5,-2 4,-5 -2,-4 -3,-6 -3,-6 z"
                 fill="#212020"
                 id="id-80289" />
              <path
                 d="m 40,66 c -3,0 -4,-1 -4,-3 l 2,-2 c 1,3 2,5 2,5 z"
                 fill="#ffffff"
                 id="id-80290" />
              <path
                 d="m 34,64 c -1,2 -2,2 -2,2 2,2 2,2 2,2 l 2,-2 c -1,-1 -2,-2 -2,-2 z"
                 fill="#ffffff"
                 id="id-80291" />
              <path
                 d="m 34,5 c -6,5 -9,15 -1,26 0,0 0,0 -1,0 0,0 -2,0 -4,-1 0,1 1,2 3,3 3,2 5,2 5,2 1,-1 2,-4 3,-5 0,0 -4,-1 -6,-5 -2,-4 -3,-10 -2,-10 0,0 1,6 4,10 0,1 2,3 5,4 1,-1 2,-2 2,-2 C 39,25 37,23 36,22 32,18 31,12 34,5 Z"
                 fill="url(#id-80010)"
                 id="id-80292"
                 style="fill:url(#id-80010)" />
              <path
                 d="m 77,29 c 2,2 5,4 5,4 3,-6 6,-9 9,-9 -2,1 -2,10 -2,18 2,-3 4,-4 4,-4 -2,-7 -2,-12 3,-15 -1,-1 -3,-1 -5,-1 2,-1 3,-8 2,-7 -2,7 -13,10 -16,14 z"
                 fill="#9db7d9"
                 id="id-80293" />
              <path
                 d="M 73,10 C 66,20 62,25 62,25 L 75,13 h -1 c -1,-2 -1,-3 -1,-3 z"
                 fill="#333440"
                 id="id-80294" />
              <path
                 d="m 38,41 c 0,10 1,13 2,16 C 37,34 47,34 54,28 49,26 36,39 36,45 Z"
                 fill="#d15fb5"
                 id="id-80295" />
              <path
                 d="m 57,30 c -1,1 -1,1 -1,1 7,6 15,12 22,13 C 68,40 61,36 57,30 Z"
                 fill="#d15ca5"
                 id="id-80296" />
              <path
                 d="m 82,34 c 4,4 6,6 6,6 0,-4 0,-9 1,-14 -3,2 -5,4 -7,8 z"
                 fill="#e1e4eb"
                 id="id-80297" />
              <path
                 d="m 73,66 c -3,-3 -3,-15 6,-20 7,-2 16,2 20,11 1,6 -11,22 -26,9 z"
                 fill="#000000"
                 id="id-80298" />
              <path
                 d="m 80,47 c -7,3 -9,12 -6,18 4,6 14,7 19,2 3,-2 5,-5 5,-9 C 95,50 89,46 80,47 Z"
                 fill="#ffffff"
                 id="id-80299" />
              <path
                 d="m 91,57 c 0,9 -8,12 -15,8 -3,-2 -5,-12 3,-14 6,-1 10,1 12,6 z"
                 fill="url(#id-80011)"
                 id="id-80300"
                 style="fill:url(#id-80011)" />
              <path
                 d="m 88,56 c 1,7 -1,10 -8,8 -3,-2 -6,-4 -2,-9 3,-3 6,-3 10,1 z"
                 fill="#212020"
                 id="id-80301" />
              <path
                 d="m 81,55 c -1,0 -3,0 -2,2 1,1 2,1 3,0 0,-2 0,-2 -1,-2 z"
                 fill="#ffffff"
                 id="id-80302" />
              <path
                 d="m 83,50 c 0,3 -1,5 2,5 1,0 3,0 3,-2 -2,-2 -3,-3 -5,-3 z"
                 fill="#ffffff"
                 id="id-80303" />
              <path
                 d="m 21,40 c 4,1 7,3 9,5 -2,4 -2,6 -2,6 -1,-1 -2,-3 -3,-5 -1,-2 -2,-4 -4,-6 z"
                 fill="#dee2ea"
                 id="id-80304" />
              <path
                 d="m 36,36 c -1,3 -2,5 -2,6 0,2 0,4 0,5 l -6,6 c 2,-5 3,-8 4,-11 1,-2 3,-4 4,-6 z"
                 fill="#f38ade"
                 id="path598" />
              <path
                 d="m 21,40 c 4,1 7,3 9,5 -2,4 -2,6 -2,6 -1,-1 -2,-3 -3,-5 -1,-2 -2,-4 -4,-6 z"
                 fill="#f3f7f8"
                 id="path600" />
              <path
                 d="m 14,32 c 3,2 5,3 6,3 7,0 11,2 13,3 -1,2 -1,4 -2,5 0,0 0,0 0,0 0,0 -2,-1 -5,-2 -1,0 -3,-1 -6,-2 3,5 5,8 6,10 1,4 -2,6 -2,6 -1,-4 -2,-7 -4,-10 0,-1 -2,-2 -6,-5 2,-2 2,-2 2,-3 -1,-1 -1,-3 -2,-5 z"
                 fill="#a4c0df"
                 id="path602" />
              <path
                 d="m 15,145 c 1,1 2,1 2,1 -2,3 -1,7 0,11 -2,-4 -3,-8 -2,-12 z"
                 fill="#524a7e"
                 id="id-80308" />
              <path
                 d="m 24,60 c 0,1 -1,3 -2,5 -3,0 -5,-1 -6,-4 3,4 8,0 8,-1 z"
                 fill="#020202"
                 id="id-80309" />
              <path
                 d="m 114,150 c 1,2 1,3 1,3 -2,1 -3,0 -4,-1 2,-1 3,-2 3,-2 z"
                 fill="#387797"
                 id="id-80310" />
              <path
                 d="m 115,151 c 0,0 0,0 0,0 1,0 2,0 2,0 2,4 3,6 3,6 2,0 2,-1 2,-1 0,0 0,-1 0,-1 -1,1 -2,1 -2,1 l -3,-7 c -1,1 -2,2 -2,2 z"
                 fill="#9c4e8f"
                 id="id-80311" />
              <path
                 d="m 12,126 c 3,-1 4,-1 4,-1 1,-3 1,-7 3,-11 -2,-2 -2,-5 -3,-9 -2,2 -2,5 0,8 -2,3 -2,6 -1,9 -2,2 -3,4 -3,4 z"
                 fill="#b5dbec"
                 id="id-80312" />
              <g
                 transform="translate(10,34)"
                 id="id-80313">
                <path
                   d="m 0,20 c 5,2 -5,14 8,26 9,3 28,8 33,-5 2,-6 3,-13 12,-14 2,1 5,2 11,10 7,4 19,3 31,-10 6,-5 9,-7 9,-7 C 104,12 101,4 93,0 91,0 88,2 86,1 67,19 38,25 0,20 Z"
                   fill="#75d8f3"
                   fill-opacity="0.542"
                   id="id-80314" />
                <path
                   d="m 2,21 c 1,3 1,5 1,5 36,1 63,-5 80,-16 3,-3 5,-5 5,-5 L 84,3 C 65,17 38,23 2,21 Z"
                   fill="#d2f3fb"
                   fill-opacity="0.81"
                   id="id-80315" />
              </g>
              <g
                 transform="translate(98,34)"
                 id="id-80316">
                <path
                   d="M 6,12 C 4,11 3,10 3,10 2,9 0,9 1,7 1,5 1,5 2,5 2,3 2,2 2,2 2,2 4,0 6,0 c 2,1 6,3 8,7 1,3 1,7 1,11 l 2,3 -7,8 -3,-4 C 4,25 2,24 2,21 2,18 3,15 6,12 Z"
                   fill="#17172f"
                   id="id-80317" />
                <path
                   d="M 7,12 C 6,11 5,10 4,10 3,9 1,9 2,7 2,4 5,6 6,6 7,6 8,7 9,8 9,7 8,6 7,6 6,5 5,5 4,5 3,4 3,3 3,2 4,2 4,2 6,1 c 4,2 6,4 7,7 1,3 2,6 1,11 l 3,4 c -1,1 -2,2 -3,3 -1,1 -2,2 -4,3 L 9,24 C 5,25 4,24 3,21 3,18 4,15 7,12 Z"
                   fill="#95c8df"
                   id="path613" />
                <path
                   d="M 11,12 C 11,11 11,7 9,6 7,3 3,3 3,2 4,2 4,1 6,1 c 1,1 5,3 7,7 1,3 2,6 1,11 l -2,1 c -3,1 -4,0 -5,-2 0,-3 4,-4 4,-6 z"
                   fill="#e0f8ff"
                   id="path615" />
              </g>
            </g>
          </g>
        </g>
      </g>
      <g
         transform="rotate(-6,1053.2597,46.553748)"
         id="id-80320">
        <path
           d="M 1,167 41,5 c 9,9 13,14 13,14 -3,39 -5,58 -5,58 13,0 25,3 34,12 2,11 -4,37 -16,73 13,7 20,11 20,11 l -3,24 -27,-1 C 20,177 1,167 1,167 Z"
           fill="#e96efe"
           id="id-80321" />
        <polygon
           points="35,29 41,5 48,13 "
           fill="#ba46cd"
           id="id-80322" />
        <path
           d="m 48,12 c 4,5 6,7 6,7 v 9 C 33,56 22,70 22,70 L 35,28 Z"
           fill="#bba519"
           id="id-80323" />
        <path
           d="M 53,28 C 52,44 51,53 51,53 27,87 15,105 15,105 L 23,68 C 43,41 53,28 53,28 Z"
           fill="#ba64c9"
           id="id-80324" />
        <path
           d="M 51,53 C 50,69 50,77 50,77 35,96 21,116 7,142 l 8,-39 C 39,70 51,53 51,53 Z"
           fill="#8e64d2"
           id="id-80325" />
        <path
           d="m 50,77 c 6,0 12,1 18,3 -22,24 -43,46 -65,80 L 7,139 C 28,105 42,84 50,77 Z"
           fill="#9156ff"
           id="id-80326" />
        <path
           d="m 68,80 c 8,2 12,5 15,9 2,7 0,9 0,14 -34,21 -60,43 -78,66 l -4,-2 2,-9 C 20,134 40,108 68,80 Z"
           fill="#21edef"
           id="id-80327" />
        <path
           d="m 5,169 8,4 c 20,-18 41,-35 65,-47 2,-7 4,-15 5,-23 -35,21 -60,43 -78,66 z"
           fill="#e8b040"
           id="id-80328" />
        <path
           d="m 78,126 c -5,18 -8,26 -8,26 -16,8 -32,16 -48,26 l -9,-5 c 24,-22 45,-38 65,-47 z"
           fill="#e7e50d"
           id="id-80329" />
        <path
           d="m 70,153 c -2,5 -2,7 -2,7 4,4 6,6 6,6 -26,13 -39,19 -39,19 l -13,-7 c 22,-15 38,-23 48,-25 z"
           fill="#21edef"
           id="id-80330" />
        <path
           d="m 73,166 c 10,5 14,8 14,8 -27,11 -41,16 -41,16 l -11,-5 c 26,-13 38,-19 38,-19 z"
           fill="#e892f6"
           id="id-80331" />
        <path
           d="m 47,190 c 9,3 13,4 13,4 16,2 24,3 24,3 l 5,-23 c -28,11 -42,16 -42,16 z"
           fill="#e96efe"
           id="id-80332" />
        <path
           d="M 57,19 46,191 1,167 C 6,142 19,88 41,5 Z"
           fill="#000000"
           fill-opacity="0.137"
           id="id-80333" />
        <path
           d="m 89,196 c 1,-15 2,-22 2,-22 C 77,165 70,161 70,161 76,137 88,115 87,88 83,81 71,76 53,74 56,37 58,18 58,18 L 42,1 c -1,2 -1,5 -2,7 0,0 5,4 13,13 l -4,57 c 16,0 26,3 32,9 6,7 0,31 -16,74 l 23,15 -4,21 c 3,-1 5,-1 5,-1 z"
           fill="#000000"
           id="id-80334" />
      </g>
    </g>
  </g>
</svg>
