<?xml version="1.0" encoding="UTF-8" standalone="no"?>
<svg
   width="404.81622"
   height="683"
   viewBox="0 0 404.81622 683"
   version="1.1"
   id="svg70"
   sodipodi:docname="cb-layer-0444.svg"
   xmlns:inkscape="http://www.inkscape.org/namespaces/inkscape"
   xmlns:sodipodi="http://sodipodi.sourceforge.net/DTD/sodipodi-0.dtd"
   xmlns="http://www.w3.org/2000/svg"
   xmlns:svg="http://www.w3.org/2000/svg">
  <sodipodi:namedview
     id="namedview72"
     pagecolor="#ffffff"
     bordercolor="#666666"
     borderopacity="1.0"
     inkscape:pageshadow="2"
     inkscape:pageopacity="0.0"
     inkscape:pagecheckerboard="0" />
  <defs
     id="defs37">
    <linearGradient
       x1="314.57453"
       y1="204.31883"
       x2="199.31774"
       y2="288.14195"
       id="id-49130"
       gradientTransform="scale(0.77270567,1.2941538)"
       gradientUnits="userSpaceOnUse">
      <stop
         stop-color="#A0C3FF"
         offset="0%"
         id="stop2" />
      <stop
         stop-color="#C895F3"
         offset="100%"
         id="stop4" />
    </linearGradient>
    <linearGradient
       x1="237.46093"
       y1="177.91192"
       x2="149.31198"
       y2="420.32157"
       id="id-49131"
       gradientTransform="scale(0.7759592,1.2887276)"
       gradientUnits="userSpaceOnUse">
      <stop
         stop-color="#9399EB"
         offset="0%"
         id="stop7" />
      <stop
         stop-color="#C778E2"
         offset="100%"
         id="stop9" />
    </linearGradient>
    <linearGradient
       x1="327.53164"
       y1="216.49242"
       x2="239.37928"
       y2="286.40638"
       id="id-49132"
       gradientTransform="scale(0.78954203,1.266557)"
       gradientUnits="userSpaceOnUse">
      <stop
         stop-color="#B4D6FF"
         offset="0%"
         id="stop12" />
      <stop
         stop-color="#CCAAF9"
         offset="100%"
         id="stop14" />
    </linearGradient>
    <linearGradient
       x1="417.79987"
       y1="97.401896"
       x2="417.79987"
       y2="219.16072"
       id="id-49133"
       gradientTransform="scale(0.64504567,1.5502778)"
       gradientUnits="userSpaceOnUse">
      <stop
         stop-color="#A9CCFF"
         offset="0%"
         id="stop17" />
      <stop
         stop-color="#B8B5FC"
         offset="100%"
         id="stop19" />
    </linearGradient>
    <linearGradient
       x1="227.0833"
       y1="203.8795"
       x2="70.079024"
       y2="259.43486"
       id="id-49134"
       gradientTransform="scale(1.2916846,0.77418278)"
       gradientUnits="userSpaceOnUse">
      <stop
         stop-color="#78A7EF"
         offset="0%"
         id="stop22" />
      <stop
         stop-color="#A38DE5"
         offset="100%"
         id="stop24" />
    </linearGradient>
    <linearGradient
       x1="240.3331"
       y1="170.13054"
       x2="120.16655"
       y2="170.13054"
       id="id-49135"
       gradientTransform="scale(1.2649111,0.79056942)"
       gradientUnits="userSpaceOnUse">
      <stop
         stop-color="#A8CDFF"
         offset="0%"
         id="stop27" />
      <stop
         stop-color="#C1C6FF"
         offset="100%"
         id="stop29" />
    </linearGradient>
    <linearGradient
       x1="195.69498"
       y1="74.909946"
       x2="45.875083"
       y2="74.909946"
       id="id-49136"
       gradientTransform="scale(1.7220677,0.58069726)"
       gradientUnits="userSpaceOnUse">
      <stop
         stop-color="#6CABEA"
         offset="0%"
         id="stop32" />
      <stop
         stop-color="#9594E5"
         offset="100%"
         id="stop34" />
    </linearGradient>
  </defs>
  <g
     transform="translate(-0.18378868)"
     id="id-49137">
    <path
       d="M 304,651 C 129,669 42,678 42,678 27,617 16,553 5,489 2,453 -3,416 3,379 30,266 43,209 43,209 c 14,-37 20,-55 20,-55 0,-4 0,-7 0,-7 8,-11 15,-20 12,-36 4,-4 6,-6 6,-6 C 82,55 82,30 82,30 80,12 79,3 79,3 c 61,-2 92,-2 92,-2 4,1 6,2 6,2 2,-2 3,-3 3,-3 105,0 157,0 157,0 -3,25 -4,37 -4,37 -1,33 -1,50 -1,50 1,0 1,1 1,1 -1,5 1,10 4,15 -2,7 2,13 8,18 -8,11 10,44 18,69 11,57 17,85 17,85 10,38 15,57 15,57 6,43 9,64 9,64 1,29 1,43 1,43 -5,36 -7,55 -7,55 -11,52 -24,103 -37,154 -20,2 -30,3 -30,3 l -1,-332 c -17,222 -26,332 -26,332 z"
       fill="url(#id-49130)"
       id="id-49138"
       style="fill:url(#id-49130)" />
    <path
       d="m 361,648 -30,3 c 25,-100 48,-212 64,-319 l 9,64 1,45 -7,53 c -15,66 -27,117 -37,154 z"
       fill="#c1deff"
       id="id-49139" />
    <path
       d="M 117,670 C 97,546 87,484 87,484 91,400 93,358 93,358 170,283 208,245 208,245 291,169 333,132 333,132 l 10,-1 c -1,-4 0,-7 2,-10 -4,-3 -7,-7 -8,-11 C 180,222 101,278 101,278 L 45,328 C 17,363 3,380 3,380 37,346 53,329 53,329 81,302 95,289 95,289 207,208 263,167 263,167 304,144 324,132 324,132 246,201 168,274 91,348 L 3,462 5,485 c 9,65 24,129 37,193 50,-5 75,-8 75,-8 z"
       fill="url(#id-49131)"
       id="id-49140"
       style="fill:url(#id-49131)" />
    <path
       d="M 236,536 C 300,376 333,296 333,296 L 312,151 208,245 93,359 c 95,118 143,177 143,177 z"
       fill="url(#id-49132)"
       id="id-49141"
       style="fill:url(#id-49132)" />
    <path
       d="m 210,244 c 28,128 42,193 42,193 51,-87 77,-131 77,-131 -12,6 -18,9 -18,9 -20,-47 -30,-70 -30,-70 l 47,14 -16,-108 c -68,62 -102,93 -102,93 z"
       fill="url(#id-49133)"
       id="id-49142"
       style="fill:url(#id-49133)" />
    <path
       d="m 277,241 c 31,-13 46,-19 46,-19 14,18 22,27 22,27 l -18,5 c -33,-9 -50,-13 -50,-13 z"
       fill="#bde2ff"
       id="id-49143" />
    <path
       d="m 283,653 45,-345 2,11 -26,332 c -14,2 -21,2 -21,2 z"
       fill="#a08ee3"
       id="id-49144" />
    <path
       d="m 343,650 28,-40 c -4,13 -7,25 -10,38 -12,1 -18,2 -18,2 z"
       fill="#c6c5ff"
       id="id-49145" />
    <path
       d="M 25,285 C 45,266 55,256 55,256 L 292,113 c 30,-6 45,-10 45,-10 -2,-3 -3,-5 -3,-5 -27,6 -40,9 -40,9 -159,91 -239,136 -239,136 6,-45 9,-68 9,-68 l 31,2 -32,-30 v 7 l -20,55 c -12,51 -18,76 -18,76 z"
       fill="url(#id-49134)"
       id="id-49146"
       style="fill:url(#id-49134)" />
    <path
       d="m 105,209 c 3,2 5,3 5,3 6,-3 9,-5 9,-5 2,-75 3,-113 3,-113 h -3 c -10,77 -14,115 -14,115 z"
       fill="#aea0f1"
       id="id-49147" />
    <path
       d="m 304,105 c -2,1 -5,1 -10,2 -88,50 -132,75 -132,75 -6,-49 -10,-74 -10,-74 l 36,-19 112,-2 z"
       fill="url(#id-49135)"
       id="id-49148"
       style="fill:url(#id-49135)" />
    <path
       d="m 204,89 c 35,6 52,9 52,9 l 44,-11 c -64,1 -96,2 -96,2 z"
       fill="#79a5ed"
       id="id-49149" />
    <path
       d="m 215,152 c 9,-13 13,-19 13,-19 -6,-26 -9,-39 -9,-39 11,1 17,2 17,2 12,18 18,27 18,27 l 8,3 c -31,17 -47,26 -47,26 z"
       fill="#c5d8f4"
       id="id-49150" />
    <path
       d="m 214,160 c 15,14 22,22 22,22 48,-35 72,-52 72,-52 l -4,-19 -12,2 c -52,31 -78,47 -78,47 z"
       fill="#aed0ff"
       id="id-49151" />
    <path
       d="m 203,211 c -3,22 -4,32 -4,32 74,-66 111,-99 111,-99 v -3 l -48,28 c -40,28 -59,42 -59,42 z"
       fill="#c1cdff"
       id="id-49152" />
    <path
       d="m 63,147 c 24,5 36,7 36,7 L 73,130 c 0,4 -4,9 -10,17 z"
       fill="#beadf9"
       id="id-49153" />
    <path
       d="m 75,111 c 18,6 26,9 26,9 L 81,95 v 10 c -4,4 -6,6 -6,6 z"
       fill="#c1b2fe"
       id="id-49154" />
    <path
       d="m 90,85 c 19,5 28,7 28,7 l 28,-7 c -37,0 -56,0 -56,0 z"
       fill="#5267aa"
       id="id-49155" />
    <path
       d="m 81,85 c 84,0 167,1 251,2 l 1,-50 4,-37 H 180 l -3,3 -6,-2 -92,2 3,27 z"
       fill="url(#id-49136)"
       id="id-49156"
       style="fill:url(#id-49136)" />
    <path
       d="M 95,81 96,2 c 50,-1 75,-1 75,-1 3,1 4,2 4,2 l -4,83 C 120,83 95,81 95,81 Z"
       fill="#b1b1f9"
       id="id-49157" />
    <path
       d="m 103,85 c 10,-40 15,-61 15,-61 l 67,1 -14,61 c -45,-1 -68,-1 -68,-1 z"
       fill="#271825"
       id="id-49158" />
    <path
       d="m 117,85 c 12,-40 18,-61 18,-61 4,1 6,1 6,1 l -15,60 z"
       fill="#190f1c"
       id="id-49159" />
    <path
       d="m 145,85 c 10,-40 16,-60 16,-60 5,0 8,0 8,0 l -19,60 c -4,0 -5,0 -5,0 z"
       fill="#190f1c"
       id="id-49160" />
    <path
       d="m 118,24 c 6,6 9,8 9,8 6,-5 10,-7 10,-7 8,5 12,8 12,8 8,-5 11,-8 11,-8 l 13,9 12,-9 c -44,-1 -66,-1 -67,-1 z"
       fill="#4a3547"
       id="id-49161" />
    <path
       d="m 188,86 c 2,-57 2,-86 2,-86 76,0 113,0 113,0 l -9,86 c -71,0 -106,0 -106,0 z"
       fill="#b2ccff"
       id="id-49162" />
    <path
       d="m 236,2 c 21,1 31,1 31,1 2,52 2,77 2,77 2,4 3,6 3,6 -27,0 -41,0 -41,0 4,-4 6,-6 6,-6 l 3,-71 c -3,-4 -4,-7 -4,-7 z"
       fill="#c2e0ff"
       id="id-49163" />
    <path
       d="m 196,64 c 7,0 11,1 11,1 -1,10 -2,15 -2,15 h -9 c 0,-11 0,-16 0,-16 z"
       fill="#a37600"
       id="id-49164" />
    <path
       d="m 196,47 c 7,0 11,-1 11,-1 0,-10 -1,-15 -1,-15 l -10,-2 c 0,12 0,18 0,18 z"
       fill="#a37600"
       id="id-49165" />
    <path
       d="m 175,96 c -1,-7 -1,-10 -1,-10 h 14 v 3 c -9,4 -13,7 -13,7 z"
       fill="#000126"
       id="id-49166" />
    <path
       d="m 330,631 c -14,20 -21,30 -21,30 -176,15 -264,22 -264,22 0,-4 -1,-6 -1,-6 l 259,-26 27,-332 c 0,208 0,312 0,312 z"
       fill="#363a39"
       id="id-49167" />
  </g>
</svg>
