<?xml version="1.0" encoding="UTF-8" standalone="no"?>
<svg
   width="683.63452"
   height="684.0625"
   viewBox="0 0 683.63452 684.0625"
   version="1.1"
   id="svg87"
   sodipodi:docname="cb-layer-0741.svg"
   xmlns:inkscape="http://www.inkscape.org/namespaces/inkscape"
   xmlns:sodipodi="http://sodipodi.sourceforge.net/DTD/sodipodi-0.dtd"
   xmlns="http://www.w3.org/2000/svg"
   xmlns:svg="http://www.w3.org/2000/svg">
  <sodipodi:namedview
     id="namedview89"
     pagecolor="#ffffff"
     bordercolor="#666666"
     borderopacity="1.0"
     inkscape:pageshadow="2"
     inkscape:pageopacity="0.0"
     inkscape:pagecheckerboard="0" />
  <defs
     id="defs17">
    <linearGradient
       x1="341.79299"
       y1="191.41509"
       x2="341.79299"
       y2="683.78599"
       id="id-64825"
       gradientTransform="scale(0.99968712,1.000313)"
       gradientUnits="userSpaceOnUse">
      <stop
         stop-color="#DB2B83"
         offset="0%"
         id="stop2" />
      <stop
         stop-color="#C51EFC"
         offset="100%"
         id="stop4" />
    </linearGradient>
    <linearGradient
       x1="136.1748"
       y1="243.47251"
       x2="136.1748"
       y2="480.15154"
       id="id-64826"
       gradientTransform="scale(0.70197593,1.4245503)"
       gradientUnits="userSpaceOnUse">
      <stop
         stop-color="#A62C64"
         offset="0%"
         id="stop7" />
      <stop
         stop-color="#B31FFC"
         offset="100%"
         id="stop9" />
    </linearGradient>
    <linearGradient
       x1="44.452222"
       y1="0"
       x2="44.452222"
       y2="88.904443"
       id="id-64827"
       gradientTransform="scale(1.1697953,0.85485041)"
       gradientUnits="userSpaceOnUse">
      <stop
         stop-color="#8CA9FF"
         offset="0%"
         id="stop12" />
      <stop
         stop-color="#7F6DFF"
         offset="100%"
         id="stop14" />
    </linearGradient>
  </defs>
  <g
     transform="translate(0.13120722,0.0625)"
     id="id-64828">
    <path
       d="m 254,294 c -2,-4 -3,-11 -5,-12 -5,-3 -8,-4 -8,-4 -1,-32 -1,-48 -1,-48 6,-18 11,-35 25,-44 -3,11 -6,26 -9,45 -5,9 -5,19 -4,29 1,-3 3,-6 5,-11 -4,15 -5,30 -3,45 z"
       fill="#4a2c38"
       id="id-64829" />
    <path
       d="m 416,293 c 8,-11 13,-16 13,-16 -1,-26 0,-68 -9,-86 -5,-6 -10,-9 -16,-9 3,11 4,17 4,17 2,2 3,3 3,3 l -4,17 c 11,15 14,39 9,74 z"
       fill="#4a2c38"
       id="id-64830" />
    <path
       d="m 81,252 c 0,-1 1,-1 1,-1 0,76 0,115 0,115 l -1,-2 c 0,-75 0,-112 0,-112 z m 15,-13 c 0,-1 1,-1 1,-1 0,112 1,168 1,168 l -1,1 C 96,295 96,239 96,239 Z m 17,-12 c -1,0 -1,1 -1,1 0,105 0,158 0,158 v 2 c 1,-108 1,-161 1,-161 z m 12,-8 c -1,0 -1,1 -1,1 0,116 0,175 0,175 v 0 c 1,-118 1,-176 1,-176 z m 14,-9 c -1,0 -1,0 -1,0 0,38 0,57 0,57 l 2,-3 c 0,-36 -1,-54 -1,-54 z m 11,-4 c 1,0 1,0 1,0 1,31 1,47 1,47 l -2,2 c 0,-33 0,-49 0,-49 z m 13,-1 c 0,0 0,0 0,0 0,24 0,36 0,36 l 1,-2 c -1,-23 -1,-34 -1,-34 z m 14,-3 c -2,0 -2,0 -2,0 0,18 0,27 0,27 l 2,-2 c 0,-17 0,-25 0,-25 z m 12,-1 c 1,0 1,0 1,0 0,9 1,14 1,14 l -2,2 c 0,-11 0,-16 0,-16 z m 11,-1 c 1,0 1,0 1,0 1,3 1,5 1,5 l -2,2 c 0,-5 0,-7 0,-7 z m 9,0 h 2 c 0,0 0,0 0,0 l -2,1 c 0,-1 0,-1 0,-1 z m 9,-1 c 1,0 2,0 2,0 l -1,1 c -1,-1 -1,-1 -1,-1 z m 2,24 c -2,0 -2,1 -2,1 0,2 0,3 0,3 h 1 c 1,-3 1,-4 1,-4 z m -9,7 c -2,1 -2,1 -2,1 0,7 0,10 0,10 l 2,-3 c 0,-6 0,-8 0,-8 z m -9,7 -1,1 c 0,21 0,32 0,32 l 2,-3 c 0,-20 -1,-30 -1,-30 z m -11,11 c -2,1 -2,2 -2,2 0,69 0,103 0,103 l 1,1 c 0,-71 1,-106 1,-106 z m 10,84 c 0,1 1,1 1,1 -1,13 -1,19 -1,19 v 2 c 0,-15 0,-22 0,-22 z m -23,11 c -2,-2 -2,-3 -2,-3 0,-51 0,-76 0,-76 l 1,-2 c 1,54 1,81 1,81 z m -15,-27 c 0,1 0,2 0,2 0,-22 1,-33 1,-33 l -1,1 c 0,20 0,30 0,30 z m -13,18 c 1,2 2,3 2,3 -1,24 -1,36 -1,36 l -1,-3 c 0,-24 0,-36 0,-36 z m -12,46 c 0,-2 -1,-2 -1,-2 0,-44 0,-65 0,-65 l 2,1 c 0,44 -1,66 -1,66 z M 471,230 c 1,1 2,1 2,1 0,9 0,14 0,14 l -2,-2 c 0,-9 0,-13 0,-13 z m 6,6 c 0,1 1,1 1,1 0,13 0,19 0,19 l -1,-3 c 0,-11 0,-17 0,-17 z m 9,8 c 0,1 1,1 1,1 0,25 0,38 0,38 l -1,-4 c 0,-24 0,-35 0,-35 z m 7,7 c 1,1 1,1 1,1 1,52 1,78 1,78 l -2,5 c 0,-56 0,-84 0,-84 z m 10,5 c 0,0 1,1 1,1 0,58 0,88 0,88 l -1,-2 c 0,-58 0,-87 0,-87 z m 10,16 c 1,1 2,2 2,2 0,35 -1,53 -1,53 l -1,2 c 0,-38 0,-57 0,-57 z m 14,71 c -2,1 -2,2 -2,2 0,18 0,27 0,27 l 1,1 c 0,-20 1,-30 1,-30 z m 11,-16 c -2,1 -2,2 -2,2 0,28 0,43 0,43 h 1 c 1,-30 1,-45 1,-45 z m 10,-15 c -2,1 -2,2 -2,2 0,39 0,59 0,59 l 2,1 c 0,-42 0,-62 0,-62 z m 13,-15 c -2,3 -2,5 -2,5 0,48 0,72 0,72 l 1,1 c 0,-52 1,-78 1,-78 z M 472,189 c -1,1 -1,2 -1,2 0,6 0,9 0,9 l 1,1 c 0,-8 0,-12 0,-12 z m 6,3 c -1,0 -1,0 -1,0 0,8 0,12 0,12 v 1 c 1,-9 1,-13 1,-13 z m 9,0 c -2,0 -2,0 -2,0 0,11 0,17 0,17 l 1,1 c 1,-12 1,-18 1,-18 z m 7,1 c -1,1 -1,1 -1,1 0,14 0,21 0,21 l 1,1 c 0,-16 0,-23 0,-23 z m 10,5 c -1,0 -1,1 -1,1 0,16 0,25 0,25 l 1,1 c 0,-18 0,-27 0,-27 z m 11,0 c -2,0 -2,1 -2,1 0,22 0,34 0,34 l 2,1 c 0,-24 0,-36 0,-36 z m 11,4 c -1,0 -1,1 -1,1 0,28 0,42 0,42 l 2,2 c -1,-30 -1,-45 -1,-45 z m 12,4 c -2,0 -2,0 -2,0 0,34 0,50 0,50 l 1,2 c 1,-35 1,-52 1,-52 z m 9,5 c -1,1 -1,1 -1,1 0,39 0,59 0,59 l 2,2 c 0,-42 -1,-62 -1,-62 z m 13,7 c -1,1 -1,1 -1,1 0,45 0,67 0,67 l 2,3 c -1,-48 -1,-71 -1,-71 z m 10,6 c -1,0 -1,0 -1,0 0,94 0,140 0,140 l 2,2 c 0,-95 -1,-142 -1,-142 z m 14,10 c -2,1 -2,1 -2,1 0,99 0,149 0,149 l 1,2 c 1,-102 1,-152 1,-152 z m 10,12 c 1,1 1,2 1,2 0,99 1,148 1,148 l -2,3 c 0,-102 0,-153 0,-153 z m 8,10 c 1,1 1,1 1,1 1,86 1,129 1,129 l -1,5 c -1,-90 -1,-135 -1,-135 z m 9,11 c 1,1 2,1 2,1 0,11 0,16 0,16 l -2,5 c 0,-15 0,-22 0,-22 z m 0,74 c 1,1 1,2 1,2 1,35 1,53 1,53 l -2,4 c 0,-40 0,-59 0,-59 z m 7,8 c 1,0 1,1 1,1 0,36 1,55 1,55 l -2,5 c 0,-41 0,-61 0,-61 z M 477,128 c -1,1 -1,1 -1,1 0,23 0,35 0,35 l 1,-3 c 0,-22 0,-33 0,-33 z m -6,-25 c -1,1 -2,1 -2,1 0,39 0,59 0,59 l 1,2 c 0,-42 1,-62 1,-62 z M 461,89 c -2,1 -2,1 -2,1 0,46 0,70 0,70 l 1,1 c 1,-48 1,-72 1,-72 z m -7,-10 c -2,0 -2,1 -2,1 0,57 0,85 0,85 l 1,2 c 0,-59 1,-88 1,-88 z m -7,-17 c -2,1 -2,1 -2,1 0,59 0,88 0,88 l 2,2 c 0,-61 0,-91 0,-91 z m -8,-10 c -1,0 -1,1 -1,1 0,16 0,25 0,25 l 1,2 c 0,-19 0,-28 0,-28 z m -9,-12 c -1,1 -1,1 -1,1 0,6 0,9 0,9 v 2 c 1,-8 1,-12 1,-12 z m -180,9 c -1,0 -1,1 -1,1 0,8 0,12 0,12 v -1 c 1,-8 1,-12 1,-12 z m -6,10 c -1,0 -1,1 -1,1 0,63 0,94 0,94 l 1,1 c 0,-64 0,-96 0,-96 z m -8,9 -1,1 c 0,59 0,88 0,88 l 1,2 c 0,-61 0,-91 0,-91 z m -7,12 c -1,1 -1,1 -1,1 0,53 0,80 0,80 l 1,2 c 0,-56 0,-83 0,-83 z m -7,13 c -1,1 -1,1 -1,1 0,50 0,75 0,75 l 1,2 c 0,-52 0,-78 0,-78 z m -5,10 c -1,1 -1,1 -1,1 0,43 0,64 0,64 l 1,2 c 0,-45 0,-67 0,-67 z m -7,16 c -2,1 -2,1 -2,1 0,29 0,44 0,44 l 1,1 c 1,-31 1,-46 1,-46 z"
       fill="#ffdd90"
       id="id-64831" />
    <path
       d="m 392,6 c 1,-7 5,-6 7,-5 v 0 c 0,0 0,0 1,0 v 0 c 0,0 0,0 0,0 v 0 c 1,1 1,1 1,1 2,-1 5,-1 8,1 20,19 67,73 69,122 0,0 -1,0 -2,1 -9,-27 -26,-56 -49,-86 19,50 21,87 -2,106 0,0 0,0 0,0 v 0 c 1,1 3,3 6,5 54,6 97,-17 113,-16 33,2 49,25 58,54 v 0 0 c 0,0 -1,0 -2,1 -11,-22 -29,-36 -55,-40 14,17 11,28 -1,36 13,-21 -2,-30 -23,-31 -17,10 -35,14 -55,16 0,0 0,0 0,0 v 0 c 0,0 2,1 5,3 47,8 86,19 118,34 32,12 62,22 72,13 12,-11 -1,-39 -7,-53 15,20 28,40 29,62 -1,27 -14,36 -35,33 0,34 -68,78 19,107 -39,5 -76,-31 -54,-103 -31,-60 -106,-73 -150,-78 27,17 106,80 97,109 -19,13 -29,28 -32,45 -2,45 25,67 53,89 l 2,1 c 7,6 14,12 20,18 36,28 60,54 65,75 1,9 -3,18 -8,26 v 1 0 l -1,1 c 0,1 -1,1 -1,2 l -1,1 v 0 1 c -2,3 -4,7 -5,10 -6,12 1,22 7,29 27,24 35,43 7,87 17,-48 -11,-74 -33,-87 -4,-10 0,-22 6,-34 v -2 c 1,0 1,0 1,-1 l 1,-2 c 3,-8 7,-15 7,-22 -1,-8 -2,-16 -5,-20 -32,-52 -124,-77 -142,-114 -8,-6 -9,-15 -9,-23 v -1 c 0,-1 0,-1 0,-1 1,-18 12,-36 23,-54 l 2,-3 c 3,-5 6,-10 9,-15 -8,-50 -54,-84 -69,-95 33,43 49,113 6,144 20,43 26,67 13,88 0,0 -1,1 -1,1 h -1 c -2,2 -4,4 -6,2 20,-22 7,-52 -8,-84 0,0 0,2 -1,6 19,31 20,58 2,80 18,-45 -32,-68 -30,-84 0,0 7,-7 23,-20 -11,-20 20,-79 -29,-151 0,0 2,3 5,10 0,0 -2,16 -8,46 0,-23 -4,-44 -12,-64 0,0 -2,-1 -5,-2 7,38 7,86 1,144 0,0 -2,-17 -6,-51 v 0 1 c -3,22 -6,67 -9,112 l -1,5 c -2,31 -3,61 -4,85 -1,-118 5,-266 -10,-308 -23,-15 -53,-12 -78,4 -25,29 -20,64 -22,92 -1,20 0,44 1,68 v 4 c 1,35 2,69 -3,89 0,0 -1,28 -2,85 0,0 -1,-76 -4,-229 -6,10 -7,44 -8,79 v 3 0 3 c -1,11 -1,23 -1,34 -1,-15 -1,-29 -2,-44 v -11 c -2,-68 -4,-136 7,-160 -30,25 -40,105 -32,133 -1,8 -2,15 -3,23 0,0 8,6 24,20 0,3 -2,6 -4,10 v 0 c 0,0 -1,1 -1,1 v 1 c -25,26 -38,50 -25,71 0,0 0,0 -2,1 -19,-19 -12,-59 3,-80 1,-2 1,-5 -1,-6 -16,30 -27,67 -8,83 1,2 0,3 -2,2 -18,-11 -17,-46 8,-92 -45,-30 -26,-104 6,-144 -26,20 -68,57 -69,95 3,9 9,18 15,27 l 1,2 c 13,22 26,44 9,68 -22,39 -103,59 -142,112 -1,1 -1,1 -1,2 v 0 c 0,0 -1,1 -1,1 v 1 c -2,4 -4,8 -4,19 2,15 21,39 15,61 C 17,616 3,649 18,684 -13,635 2,620 17,605 l 2,-1 c 4,-4 8,-9 12,-14 2,-5 3,-11 2,-18 -1,-4 -3,-7 -5,-10 v -2 C 22,550 16,539 16,529 20,500 52,474 84,448 l 3,-2 c 22,-18 44,-36 56,-55 25,-40 14,-69 -20,-93 -9,-26 57,-83 98,-109 -71,5 -131,34 -151,79 24,81 -22,108 -54,102 89,-29 15,-81 19,-107 -51,5 -39,-61 -6,-96 -21,45 -17,71 40,50 10,-3 22,-8 35,-11 16,-13 59,-23 104,-33 h 3 c 2,-1 4,-1 6,-2 -28,2 -54,-3 -78,-15 -25,-1 -35,14 -23,30 -16,-12 -11,-23 0,-35 -27,1 -43,17 -55,39 0,0 -1,0 -3,0 16,-47 44,-63 85,-49 33,11 70,13 112,8 0,0 1,-1 4,-3 -34,-26 -10,-84 -1,-108 -26,32 -40,60 -49,86 -2,2 -3,2 -4,1 2,-40 35,-89 68,-122 3,-2 6,-2 9,-2 7,-3 7,1 8,4 v 1 c 0,0 0,0 0,0 0,1 0,1 0,2 l -1,2 c -8,25 -16,49 -17,68 1,27 12,43 33,48 18,6 39,6 62,2 26,-2 39,-16 43,-37 4,-15 -2,-37 -10,-60 v -2 c -1,-2 -2,-4 -2,-6 l -1,-2 c 0,-1 0,-1 0,-2 l -1,-2 c -1,-3 -2,-7 -4,-11 z M 181,390 c 0,0 -29,26 -63,45 -26,19 -45,34 -49,42 11,-10 28,-20 46,-30 l 6,-4 c 30,-18 59,-35 60,-53 z m 322,1 c 1,7 7,15 18,26 30,22 64,38 94,59 -23,-26 -87,-61 -112,-85 z M 443,208 c 16,33 22,72 16,115 0,4 0,6 0,7 v 0 c 0,1 0,1 0,2 v 0 c 0,1 1,2 1,5 24,-30 8,-99 -17,-129 z m -201,1 c -26,33 -39,98 -17,128 0,0 0,-6 1,-18 -6,-40 0,-76 16,-110 z M 51,244 c -16,5 -29,6 -40,3 0,0 0,0 0,1 v 0 c 2,2 8,8 20,7 8,-1 14,-5 20,-11 z m 583,0 c 5,6 11,10 19,11 12,1 15,-3 19,-7 v 0 c -8,3 -21,1 -38,-4 z"
       fill="url(#id-64825)"
       id="path22"
       style="fill:url(#id-64825)" />
    <path
       d="m 19,217 c 3,22 16,24 32,20 44,-22 83,-39 117,-49 -21,6 -34,1 -64,18 -38,10 -74,30 -85,11 z"
       fill="#fb21e2"
       id="id-64833" />
    <path
       d="m 219,189 c 5,-4 8,-6 8,-6 -18,1 -34,1 -56,5 -23,13 -35,19 -35,19 -34,13 -62,28 -75,46 -11,17 6,34 0,77 -3,23 -22,33 -45,40 46,3 74,-35 54,-102 23,-45 72,-71 149,-79 z"
       fill="#982c5e"
       opacity="0.601"
       id="id-64834" />
    <path
       d="m 132,269 c -1,19 5,25 14,24 12,-18 25,-34 39,-49 -17,8 -26,1 -8,-22 -24,22 -39,37 -45,47 z"
       fill="#fb21e2"
       id="id-64835" />
    <circle
       cx="144"
       cy="284"
       fill="#c01efc"
       id="id-64836"
       r="5" />
    <path
       d="m 147,310 1,1 c 0,0 0,1 0,1 l 1,1 c 1,0 2,1 3,2 l 1,1 c 2,1 3,2 5,4 l 8,2 c 2,2 3,5 5,7 l 1,1 c 0,1 0,1 0,1 l 1,2 c 14,22 27,45 10,69 -24,41 -105,60 -142,112 -4,7 -6,14 -6,23 1,6 4,11 6,17 l 1,1 c 0,1 0,2 1,3 v 1 c 6,12 11,25 7,39 -21,12 -50,40 -32,86 -32,-57 -17,-60 13,-94 2,-5 3,-11 2,-18 -1,-5 -3,-8 -5,-12 l -1,-2 c -5,-8 -9,-16 -11,-29 5,-33 44,-60 84,-95 48,-38 86,-90 23,-136 2,-5 12,3 24,12 z m 34,80 c 0,0 -29,26 -63,45 -26,19 -45,34 -49,42 32,-29 111,-58 112,-87 z"
       fill="url(#id-64826)"
       id="id-64837"
       style="fill:url(#id-64826)" />
    <path
       d="m 129,137 c 30,9 61,17 95,15 -32,18 -69,5 -102,-11 -17,0 -33,6 -48,17 15,-18 33,-25 55,-21 z"
       fill="#fb27b3"
       id="id-64838" />
    <path
       d="m 109,137 c 6,5 14,5 23,1 -8,-2 -15,-2 -23,-1 z"
       fill="#fb21e2"
       id="id-64839" />
    <path
       d="m 247,196 c 13,-18 17,-27 10,-27 l 36,-6 c -29,18 -45,30 -46,33 z"
       fill="#fb26c0"
       id="id-64840" />
    <path
       d="m 258,209 c 2,3 3,7 9,10 9,-1 11,-6 13,-13 -3,13 -4,19 -4,19 -7,-2 -14,1 -20,19 0,-15 1,-27 2,-35 z"
       fill="#fb28b0"
       id="id-64841" />
    <path
       d="m 247,267 c 0,-8 -12,-14 -7,-25 1,-10 5,-18 9,-27 l 1,6 c -4,16 -5,31 -3,46 z"
       fill="#a62c64"
       id="id-64842" />
    <path
       d="m 259,146 c -3,2 -4,3 -4,3 11,-1 17,-2 17,-2 -11,-8 -21,-19 -30,-37 1,13 3,25 17,36 z"
       fill="#a62c64"
       id="id-64843" />
    <path
       d="m 282,1 c -2,0 -2,0 -2,0 -16,44 -28,86 3,118 -10,-7 -16,-11 -16,-11 -3,0 -4,1 -1,7 3,6 10,13 20,19 -5,-1 -13,-5 -13,-2 6,6 14,11 28,16 52,-5 79,-7 79,-7 9,-6 34,-10 28,-18 -14,4 -21,5 -21,5 9,-11 24,-15 24,-38 -7,35 -31,39 -74,41 -37,0 -64,-12 -65,-53 3,-21 8,-44 18,-72 0,-6 -2,-7 -8,-5 z"
       fill="#ff7bff"
       id="id-64844" />
    <path
       d="m 282,1 c -11,26 -15,41 -12,44 2,0 5,-8 8,-18 L 290,6 c 0,-6 -2,-7 -8,-5 z"
       fill="#ff7bff"
       id="id-64845" />
    <path
       d="m 478,125 -2,1 C 464,93 447,65 427,40 c 17,46 19,78 6,97 C 443,69 405,27 411,5 c 46,45 62,84 67,120 z"
       fill="#ff7bff"
       id="id-64846" />
    <path
       d="m 423,51 c 1,-1 2,-1 2,-1 -3,-11 -6,-21 -6,-31 5,1 8,2 8,2 L 414,8 c -2,8 1,22 9,43 z"
       fill="#ff7bff"
       id="id-64847" />
    <path
       d="m 429,42 c -1,-4 -5,-7 -2,-11 2,-2 6,3 9,7 16,22 31,49 42,87 l -2,1 C 468,103 452,75 429,42 Z"
       fill="#db2b83"
       id="id-64848" />
    <path
       d="m 379,182 c 2,0 3,0 3,0 5,6 11,11 23,1 2,34 4,52 4,52 -3,-10 -15,-15 -25,-9 -2,-23 -3,-38 -5,-44 z"
       fill="#ff7bff"
       id="id-64849" />
    <path
       d="m 195,298 c 7,22 20,43 46,62 -6,24 -24,35 -30,65 -3,-19 0,-38 13,-58 1,-5 0,-5 -1,-6 -11,21 -29,65 -8,83 1,2 0,3 -2,2 -17,-10 -18,-46 8,-92 -20,-15 -28,-33 -26,-56 z"
       fill="#a62c64"
       id="id-64850" />
    <path
       d="m 249,387 c -5,19 -8,29 -8,29 l 10,47 c -1,-51 -2,-76 -2,-76 z"
       fill="#a62c64"
       id="id-64851" />
    <path
       d="m 301,148 c -8,6 -12,9 -12,9 4,0 6,-1 6,-1 6,7 8,10 8,10 -1,3 -2,5 -2,5 l 14,-10 c -6,-9 -10,-14 -14,-13 z"
       fill="#71177d"
       id="id-64852" />
    <path
       d="m 382,163 c -11,-9 -16,-14 -16,-14 10,-7 16,-11 16,-11 6,6 9,9 9,9 -2,9 -3,14 -3,14 l -7,-7 c 1,6 1,9 1,9 z"
       fill="#8e1e7c"
       id="id-64853" />
    <path
       d="m 355,161 c 7,-3 10,-4 10,-4 22,8 45,18 69,30 9,18 14,27 14,27 -8,-6 -13,-9 -13,-9 5,6 5,11 6,16 -5,-11 -10,-20 -16,-29 -3,-5 -8,-9 -17,-12 l 2,4 c -3,-1 -5,-2 -5,-2 -2,-7 -7,-10 -11,-12 l -23,-7 5,7 c -8,-5 -15,-8 -21,-9 z"
       fill="#932c5b"
       id="id-64854" />
    <path
       d="m 465,189 -28,-18 h 28 c 4,2 6,3 6,3 27,7 55,10 82,37 -30,-12 -59,-19 -88,-22 z"
       fill="#932c5b"
       id="id-64855" />
    <path
       d="m 502,220 c 9,17 18,37 28,59 7,15 22,20 29,5 -10,-19 -29,-40 -57,-64 z"
       fill="#ff4fe0"
       id="id-64856" />
    <circle
       cx="549"
       cy="285"
       r="4"
       fill="#ff7bff"
       id="circle48" />
    <circle
       cx="538"
       cy="298"
       r="3"
       fill="#ff7bff"
       id="circle50" />
    <path
       d="m 458,212 c -4,-9 -6,-13 -6,-13 8,3 12,4 12,4 28,25 54,54 69,105 10,-4 20,-10 27,-10 -20,14 -31,30 -32,48 -5,4 -9,9 -15,17 -4,23 7,50 43,84 -22,-13 -43,-26 -55,-45 -22,-22 -1,-59 25,-97 -6,-35 -29,-66 -68,-93 z"
       fill="#a62c64"
       id="id-64859" />
    <path
       d="m 533,378 c 2,9 4,17 9,25 -18,-16 -27,-24 -27,-24 5,11 7,17 7,17 45,45 110,66 137,136 h 9 v -5 c -4,-20 -28,-48 -73,-84 -38,-26 -58,-53 -62,-65 z"
       fill="#fb1fed"
       id="id-64860" />
    <path
       d="m 609,260 c 4,2 8,7 12,16 0,12 0,24 5,39 -10,30 9,45 41,55 -49,5 -73,-43 -54,-103 -2,-5 -4,-7 -4,-7 z"
       fill="#a62c64"
       id="id-64861" />
    <path
       d="m 646,275 c -21,6 -44,-52 -123,-90 41,8 108,47 135,38 -10,13 -24,12 -39,6 9,11 20,20 23,27 l 6,7 c -1,8 -2,12 -2,12 z"
       fill="#fb21e2"
       id="id-64862" />
    <path
       d="m 676,255 c -11,-35 -5,-47 -10,-71 18,25 21,48 10,71 z"
       fill="#ff4fe0"
       id="id-64863" />
    <path
       d="m 648,265 c -5,-3 -7,-4 -7,-4 -8,3 -15,4 -20,-3 -1,2 -1,3 -1,3 7,8 15,13 24,11 h 3 c 1,-5 1,-7 1,-7 z"
       fill="#ff7bff"
       id="id-64864" />
    <ellipse
       cx="678"
       cy="234"
       fill="#ff7bff"
       id="ellipse58"
       rx="4"
       ry="5" />
    <path
       d="m 437,152 c 11,10 29,11 49,9 11,-4 12,-2 62,-25 -1,-1 -2,-1 -4,-1 -14,-2 -57,21 -107,17 z"
       fill="#fb27b3"
       id="id-64866" />
    <path
       d="m 527,138 c 21,3 39,9 50,24 11,9 19,18 23,28 l 2,-1 c -15,-43 -40,-60 -75,-51 z"
       fill="#fb21e2"
       id="id-64867" />
    <path
       d="m 191,243 c -4,-9 12,-25 46,-50 l -11,18 c -18,14 -29,24 -35,32 z"
       fill="#932c5b"
       id="id-64868" />
    <path
       d="m 487,317 c -8,12 -15,25 -26,34 -9,6 -26,13 -18,28 10,14 21,5 29,48 2,-14 5,-28 -13,-60 1,-4 1,-6 1,-6 17,33 22,57 15,73 l 4,3 c 8,-18 2,-46 -16,-83 14,-10 22,-23 24,-37 z"
       fill="#a62c64"
       id="id-64869" />
    <path
       d="m 416,374 c 1,15 2,22 2,22 -6,12 -11,25 -14,40 2,-30 5,-50 12,-62 z"
       fill="#a62c64"
       id="id-64870" />
    <path
       d="m 401,475 c -14,-66 -2,-85 13,-167 2,14 3,26 2,36 -5,26 -23,66 -15,131 z"
       fill="#a62c64"
       id="id-64871" />
    <path
       d="m 387,145 c 0,1 0,2 0,2 -2,0 -4,-1 -7,3 -9,-1 -14,-1 -14,-1 l 11,-8 c 6,1 9,2 10,4 z"
       fill="#4e00ea"
       id="id-64872" />
    <path
       d="M 351,119 C 341,93 336,80 336,80 l -9,39 19,7 c 3,-5 5,-7 5,-7 z"
       fill="#b8c7f4"
       id="id-64873" />
    <g
       transform="translate(284,95)"
       id="id-64874">
      <path
         d="m 52,76 c 6,-4 9,-5 9,-5 10,-1 15,-1 15,-1 3,-2 7,-6 11,-13 C 83,56 81,55 81,55 93,52 99,43 104,32 97,34 89,35 81,37 86,26 88,20 88,20 89,12 89,8 89,8 78,16 73,19 73,19 67,24 64,27 64,27 62,18 57,9 52,0 47,8 43,15 40,27 34,20 24,14 15,9 c 1,7 1,11 1,11 5,12 7,17 7,17 C 8,34 0,32 0,32 c 4,8 6,11 6,11 4,5 8,9 16,13 -3,0 -5,0 -5,0 4,5 6,13 11,14 h 15 c 6,4 9,6 9,6 z"
         fill="url(#id-64827)"
         id="id-64875"
         style="fill:url(#id-64827)" />
      <path
         d="m 41,45 c 1,6 1,8 1,8 14,0 21,0 21,0 0,-5 0,-8 0,-8 L 53,36 c -6,6 -10,9 -12,9 z"
         fill="#6b3a02"
         id="id-64876" />
      <path
         d="m 43,70 c -1,-6 -1,-9 -1,-9 14,-1 21,-1 21,-1 v 10 h -2 l -9,6 z"
         fill="#a70032"
         id="id-64877" />
      <path
         d="M 53,36 C 48,42 42,47 42,59 43,64 47,70 52,76 56,69 63,66 64,56 65,53 61,46 53,36 Z"
         fill="#5600f1"
         id="id-64878" />
      <path
         d="m 52,0 c 1,25 1,37 1,37 L 63,23 C 60,16 57,8 52,0 Z"
         fill="#b2c6ff"
         id="id-64879" />
      <path
         d="m 37,24 c -2,10 -3,18 -2,18 -6,-2 -8,-3 -8,-3 9,5 14,8 14,8 l 2,-5 C 40,39 39,33 40,27 38,25 37,24 37,24 Z"
         fill="#5600ed"
         id="id-64880" />
      <path
         d="m 58,41 c 1,-3 2,-4 2,-4 1,0 2,1 2,1 2,4 2,6 2,6 l -1,1 c -3,-3 -5,-4 -5,-4 z"
         fill="#d0ce36"
         id="id-64881" />
      <path
         d="m 44,36 c 1,4 2,6 2,6 -3,2 -5,4 -5,4 l -1,-1 c 2,-6 4,-9 4,-9 z"
         fill="#d0ce36"
         id="id-64882" />
      <path
         d="m 8,45 c 10,0 22,2 34,16 L 23,56 C 19,55 14,51 8,45 Z"
         fill="#4d00ea"
         id="id-64883" />
      <path
         d="m 42,61 1,9 H 29 C 24,70 21,63 17,56 h 5 z"
         fill="#6900fd"
         id="id-64884" />
      <path
         d="m 63,60 c 4,-3 10,-5 19,-5 l 5,2 C 84,62 81,67 76,70 H 63 Z"
         fill="#6900fd"
         id="id-64885" />
      <path
         d="m 63,60 1,-4 c 10,-6 20,-9 30,-9 v 1 c -5,4 -9,6 -12,7 -6,0 -13,1 -19,5 z"
         fill="#5100eb"
         id="id-64886" />
      <path
         d="m 34,43 c -7,2 -2,6 -2,9 0,0 -2,-1 -7,-4 1,-2 4,-3 1,-10 z"
         fill="#9ba3ff"
         id="id-64887" />
      <path
         d="m 74,41 c 9,-4 14,-5 14,-5 -5,3 -6,7 -5,12 l -7,2 c 4,-4 3,-7 -2,-9 z"
         fill="#9ba3ff"
         id="id-64888" />
      <path
         d="m 63,48 c 7,-4 10,-6 10,-6 -7,1 -5,-11 -7,-16 -1,1 -2,1 -2,1 l -1,12 c 0,6 0,9 0,9 z"
         fill="#5600ed"
         id="id-64889" />
      <path
         d="m 52,7 c 2,7 4,10 4,10 l -3,7 C 52,13 52,7 52,7 Z"
         fill="#ffffff"
         id="id-64890" />
      <path
         d="M 53,37 C 53,63 52,76 52,76 59,68 63,61 64,55 64,49 60,43 53,37 Z"
         fill="#7b49ff"
         id="id-64891" />
    </g>
  </g>
</svg>
