<?xml version="1.0" encoding="UTF-8" standalone="no"?>
<svg
   width="440"
   height="365.06866"
   viewBox="0 0 440 365.06866"
   version="1.1"
   id="svg96"
   sodipodi:docname="cb-layer-0778.svg"
   xmlns:inkscape="http://www.inkscape.org/namespaces/inkscape"
   xmlns:sodipodi="http://sodipodi.sourceforge.net/DTD/sodipodi-0.dtd"
   xmlns="http://www.w3.org/2000/svg"
   xmlns:svg="http://www.w3.org/2000/svg">
  <sodipodi:namedview
     id="namedview98"
     pagecolor="#ffffff"
     bordercolor="#666666"
     borderopacity="1.0"
     inkscape:pageshadow="2"
     inkscape:pageopacity="0.0"
     inkscape:pagecheckerboard="0" />
  <defs
     id="defs31">
    <linearGradient
       x1="183.91355"
       y1="398.51995"
       x2="112.93412"
       y2="398.51995"
       id="id-66474"
       gradientTransform="scale(1.4787382,0.67625223)"
       gradientUnits="userSpaceOnUse">
      <stop
         stop-color="#ABB5CA"
         offset="0%"
         id="stop2" />
      <stop
         stop-color="#E9EDF5"
         offset="52%"
         id="stop4" />
      <stop
         stop-color="#AFB9CE"
         offset="100%"
         id="stop6" />
    </linearGradient>
    <radialGradient
       cx="193.12222"
       cy="128.64103"
       r="169.56392"
       id="id-66475"
       fx="193.12222"
       fy="128.64103"
       gradientTransform="scale(1.1469421,0.87188359)"
       gradientUnits="userSpaceOnUse">
      <stop
         stop-color="#F7C974"
         offset="0%"
         id="stop9" />
      <stop
         stop-color="#EF4E1F"
         offset="100%"
         id="stop11" />
    </radialGradient>
    <linearGradient
       x1="226.05618"
       y1="94.083038"
       x2="226.05618"
       y2="194.80114"
       id="id-66476"
       gradientTransform="scale(0.89358319,1.11909)"
       gradientUnits="userSpaceOnUse">
      <stop
         stop-color="#FFFFFF"
         offset="0%"
         stop-opacity="0"
         id="stop14" />
      <stop
         stop-color="#FFFFFF"
         offset="39%"
         stop-opacity="0.769"
         id="stop16" />
      <stop
         stop-color="#FFFFFF"
         offset="100%"
         stop-opacity="0"
         id="stop18" />
    </linearGradient>
    <linearGradient
       x1="186"
       y1="50.4"
       x2="156.3"
       y2="72.000001"
       id="id-66477"
       gradientTransform="scale(0.83333333,1.2)"
       gradientUnits="userSpaceOnUse">
      <stop
         stop-color="#D9DFEB"
         offset="0%"
         id="stop21" />
      <stop
         stop-color="#99A6BE"
         offset="100%"
         id="stop23" />
    </linearGradient>
    <linearGradient
       x1="375.51987"
       y1="82.246149"
       x2="347.80649"
       y2="50.062873"
       id="id-66478"
       gradientTransform="scale(0.82775913,1.2080809)"
       gradientUnits="userSpaceOnUse">
      <stop
         stop-color="#99A6BE"
         offset="0%"
         id="stop26" />
      <stop
         stop-color="#D9DFEB"
         offset="100%"
         id="stop28" />
    </linearGradient>
  </defs>
  <g
     transform="translate(0,0.06865882)"
     id="id-66479">
    <path
       d="M 86,199 C 61,175 48,163 48,163 l 36,-24 c 1,40 2,60 2,60 z"
       fill="#a2aec5"
       id="id-66480" />
    <path
       d="m 84,139 c -24,17 -36,25 -36,25 3,-27 5,-41 5,-41 C 34,103 24,92 24,92 18,77 15,69 15,69 43,79 57,84 57,84 57,82 57,80 57,80 25,65 8,58 8,58 3,46 0,40 0,40 l 81,38 c 2,41 3,61 3,61 z"
       fill="#d7dce9"
       id="id-66481" />
    <path
       d="m 391,163 c -24,-16 -36,-24 -36,-24 2,-41 3,-61 3,-61 54,-26 82,-38 82,-38 -6,12 -9,18 -9,18 -33,15 -50,22 -50,22 0,3 0,5 0,5 29,-11 44,-17 44,-17 -7,16 -10,23 -10,23 l -29,32 c 3,27 5,40 5,40 z"
       fill="#d7dce9"
       id="id-66482" />
    <path
       d="m 391,163 -39,37 3,-61 c 24,16 36,24 36,24 z"
       fill="#a2aec5"
       id="id-66483" />
    <path
       d="m 333,85 c 0,0 0,1 1,4 0,0 4,0 10,2 0,0 0,1 1,4 0,0 4,0 12,1 0,0 -1,18 -3,55 0,0 4,2 12,8 v 0 0 c 0,0 0,6 0,18 v 0 0 c 0,0 -5,5 -13,13 0,0 0,0 0,0 v 0 c 0,1 0,4 -1,9 0,0 0,8 -1,24 0,0 -4,14 -13,42 v 0 0 c 0,1 0,3 1,7 0,0 0,0 0,0 v 0 c 0,0 0,0 -1,1 v 0 c -1,3 -7,11 -15,26 0,0 1,5 3,15 0,0 -5,6 -17,18 0,0 -7,-5 -21,-16 0,0 -18,16 -53,49 v 0 0 c 0,0 0,0 0,0 h -1 c 0,0 0,0 0,0 v 0 c 0,0 0,0 -1,0 v 0 c 0,0 0,0 0,0 h -1 c 0,0 0,0 0,0 h -1 c 0,0 0,0 0,0 v 0 c -1,0 -1,0 -1,0 v 0 c 0,0 0,0 -1,0 v 0 c 0,0 -1,0 -1,0 h -1 c 0,0 0,0 -1,0 v 0 c -5,0 -13,0 -22,0 0,0 -16,-16 -48,-50 0,0 -7,7 -23,19 0,0 -5,-4 -14,-12 0,0 0,0 0,-1 v 0 c 0,-1 1,-8 4,-22 0,0 -8,-9 -22,-29 0,0 0,-2 0,-6 0,0 -1,-5 -4,-14 v -1 c -2,-7 -4,-15 -7,-25 0,0 0,0 0,-1 v 0 c 0,-1 -1,-3 -1,-5 v 0 c -1,-4 -2,-11 -3,-19 0,0 -2,-35 -4,-104 v 0 0 c 0,0 4,0 11,0 v 0 -3 c 0,0 4,-2 13,-5 0,0 -6,178 15,178 6,0 185,15 196,9 24,-12 29,-75 16,-189 z m 13,30 c 0,0 1,4 1,12 v 0 h -4 c 0,0 0,10 0,30 0,0 2,-1 6,-4 0,0 1,-13 3,-38 0,0 -2,0 -6,0 z M 93,114 v 0 c 0,0 -1,1 -3,1 v 0 c -1,0 -2,1 -4,1 0,0 2,11 4,32 v 0 l 6,4 v 0 0 c 0,0 1,-9 1,-25 0,0 -1,0 -4,-1 v 0 0 c 0,0 0,-4 0,-12 z"
       fill="#161f2f"
       id="id-66484" />
    <path
       d="m 171,335 c 12,-4 18,-6 18,-6 3,15 4,22 4,22 l -2,2 c -13,-12 -20,-18 -20,-18 z"
       fill="#5e7193"
       id="id-66485" />
    <path
       d="m 249,330 c 15,2 22,3 22,3 -15,15 -23,23 -23,23 l -2,-2 c 2,-16 3,-24 3,-24 z"
       fill="#5e7193"
       id="id-66486" />
    <path
       d="m 256,331 -8,5 1,-6 c 5,1 7,1 7,1 z"
       fill="#a2aec4"
       id="id-66487" />
    <path
       d="m 185,288 c 7,42 10,62 10,62 4,4 6,6 6,6 24,-1 36,-1 36,-1 3,-2 5,-3 5,-3 l 10,-65 -6,-26 -10,-10 -30,1 -11,9 c -7,18 -10,27 -10,27 z"
       fill="#283449"
       id="id-66488" />
    <path
       d="m 187,299 16,-11 h -18 c 1,7 2,11 2,11 z"
       fill="#5b687e"
       id="id-66489" />
    <path
       d="m 218,68 c 8,2 16,4 22,5 h 1 c 13,3 20,4 20,4 51,39 77,59 79,60 v 0 0 c -3,42 -4,63 -4,63 -7,24 -9,38 -7,41 4,17 7,26 7,26 -4,0 -6,1 -6,1 l -46,35 -32,-16 -67,1 c -23,13 -35,20 -37,21 v 0 c 0,0 0,0 -1,0 v 0 c 0,0 0,0 0,0 -25,-27 -37,-41 -37,-41 -5,0 -7,1 -7,1 -2,-88 -3,-133 -3,-133 52,-38 78,-58 79,-58 v 0 0 c 26,-7 39,-10 39,-10 z m 4,24 c -47,7 -84,23 -111,48 0,2 1,4 1,6 v 2 c 0,1 0,1 0,2 v 3 c 0,0 0,0 0,1 v 3 c 0,0 0,1 0,1 l 1,3 v 0 3 c 1,21 3,43 8,60 29,16 43,24 43,24 17,6 27,10 29,10 l 1,1 c 0,0 0,0 0,0 v 0 c 0,0 0,0 0,0 v 0 0 c 8,-7 12,-10 12,-10 19,0 30,0 31,0 v 0 0 c 6,7 9,11 9,11 28,-9 53,-19 76,-32 7,-29 9,-59 10,-88 -24,-24 -60,-40 -110,-48 z"
       fill="#2b384d"
       id="path43" />
    <path
       d="m 146,308 c 25,-15 38,-22 38,-22 -13,-12 -19,-17 -19,-17 4,-9 6,-14 6,-14 -12,-3 -18,-5 -18,-5 l -35,-18 -8,36 c 24,27 36,40 36,40 z"
       fill="#93a0b9"
       id="id-66491" />
    <path
       d="m 143,304 7,-56 -32,-16 -8,36 c 22,24 33,36 33,36 z"
       fill="#6b80a6"
       id="id-66492" />
    <path
       d="m 161,299 4,-30 19,17 c -15,9 -23,13 -23,13 z"
       fill="#b0bacd"
       id="id-66493" />
    <path
       d="m 124,244 c -10,3 -12,21 -7,27 3,1 10,1 12,-10 1,-6 0,-12 -5,-17 z"
       fill="#2a384d"
       id="id-66494" />
    <path
       d="m 122,246 c 1,2 2,3 2,3 -5,5 -7,12 -7,21 h -1 c -3,-12 -1,-20 6,-24 z"
       fill="#586b8d"
       id="id-66495" />
    <path
       d="m 116,250 c 2,0 3,0 3,0 -3,6 -4,11 -3,15 h -2 c -1,-5 0,-10 2,-15 z"
       fill="#95a1ba"
       id="id-66496" />
    <path
       d="m 125,249 c -4,2 -6,3 -6,3 -2,7 -3,11 -3,11 3,4 4,5 4,5 l 6,-10 c -1,-6 -1,-9 -1,-9 z"
       fill="#bb031a"
       id="id-66497" />
    <path
       d="m 173,255 c -4,9 -6,13 -6,13 13,11 19,16 19,16 43,-1 64,-1 64,-1 31,16 47,24 47,24 22,-26 34,-40 34,-40 -6,-23 -9,-35 -9,-35 -23,12 -35,18 -35,18 -25,7 -38,11 -38,11 -10,8 -15,12 -15,12 -9,-1 -14,-1 -14,-1 -9,1 -14,1 -14,1 l -16,-12 c -11,-4 -17,-6 -17,-6 z"
       fill="url(#id-66474)"
       id="id-66498"
       style="fill:url(#id-66474)" />
    <path
       d="m 111,140 c 2,30 3,61 10,84 29,16 43,24 43,24 20,7 30,11 30,11 8,-7 12,-10 12,-10 21,0 31,0 31,0 6,7 9,11 9,11 28,-9 53,-19 76,-32 7,-29 9,-59 10,-88 -24,-24 -60,-40 -110,-48 -47,7 -84,23 -111,48 z"
       fill="url(#id-66475)"
       opacity="0.748"
       id="id-66499"
       style="fill:url(#id-66475)" />
    <path
       d="m 137,128 c -3,33 -4,50 -4,50 11,16 17,24 17,24 l 13,46 -42,-24 c -6,-22 -8,-53 -10,-84 11,-9 20,-18 27,-21 50,-23 66,-24 84,-27 41,8 81,19 110,48 -7,59 -10,88 -10,88 -13,-15 -19,-22 -19,-22 6,-28 6,-55 -4,-84 -51,-18 -105,-19 -162,6 z"
       fill="#000000"
       fill-opacity="0.035"
       id="id-66500" />
    <path
       d="m 117,228 c 6,-7 9,-10 9,-10 -3,-8 -2,-15 3,-19 7,-4 13,-3 20,4 9,17 6,26 -11,26 l -2,10 c -13,-7 -19,-11 -19,-11 z"
       fill="#151f2e"
       id="id-66501" />
    <path
       d="m 144,226 c -9,-5 -14,-12 -15,-21 -2,5 -2,9 0,14 7,8 15,7 15,7 z"
       fill="#405b83"
       id="id-66502" />
    <path
       d="m 133,205 c 0,5 0,8 0,8 5,6 8,8 8,8 3,0 5,0 5,0 0,-3 0,-5 0,-5 l -9,-10 c -2,-1 -4,-1 -4,-1 z"
       fill="#00a9bd"
       id="id-66503" />
    <path
       d="m 141,205 c 0,2 0,3 0,3 l 6,8 c -2,-6 -4,-10 -6,-11 z"
       fill="#3a5f92"
       id="id-66504" />
    <path
       d="m 140,199 c 8,6 11,14 10,24 3,-3 4,-8 1,-16 -3,-7 -11,-8 -11,-8 z"
       fill="#405b83"
       id="id-66505" />
    <path
       d="m 132,182 c -6,9 -9,13 -9,13 l 26,13 c -11,-18 -17,-26 -17,-26 z"
       fill="#ffffff"
       fill-opacity="0.126"
       id="id-66506" />
    <path
       d="m 145,241 -8,-4 c 1,-5 1,-8 1,-8 3,0 7,0 10,-2 -2,10 -3,14 -3,14 z"
       fill="#343d4b"
       id="id-66507" />
    <path
       d="m 160,156 c 20,-5 30,-8 30,-8 -5,-18 -7,-27 -7,-27 l -30,11 c 4,16 7,24 7,24 z"
       fill="#ffffff"
       fill-opacity="0.724"
       id="id-66508" />
    <path
       d="m 121,132 c 15,7 31,10 46,13 l 90,-41 c -17,-5 -34,-8 -51,-7 -24,4 -52,15 -85,35 z"
       fill="#ffffff"
       fill-opacity="0.284"
       id="id-66509" />
    <path
       d="m 205,216 c 28,-71 42,-107 42,-107 -26,-6 -56,-5 -90,5 l 12,43 37,61"
       fill="url(#id-66476)"
       id="id-66510"
       style="fill:url(#id-66476)" />
    <path
       d="m 208,246 c 50,-19 80,-32 89,-41 5,18 7,27 7,27 -21,13 -53,22 -86,30 -7,-11 -10,-16 -10,-16 z"
       fill="#ffffff"
       fill-opacity="0.257"
       id="id-66511" />
    <path
       d="m 305,240 c -2,-7 -3,-10 -3,-10 -6,1 -11,-1 -14,-7 -3,-8 -1,-15 5,-21 4,-6 29,-13 22,16 l 9,9 -1,2 c -12,8 -18,11 -18,11 z"
       fill="#151f2e"
       id="id-66512" />
    <path
       d="m 298,227 c 8,-6 13,-13 14,-22 1,6 1,11 -1,14 -4,6 -13,8 -13,8 z"
       fill="#405b83"
       id="id-66513" />
    <path
       d="m 300,222 c -3,-1 -4,-2 -4,-2 0,-3 0,-4 0,-4 5,-8 8,-11 8,-11 3,0 4,0 4,0 v 8 c -5,6 -8,9 -8,9 z"
       fill="#00a9bd"
       id="id-66514" />
    <path
       d="m 296,216 c -1,-2 -1,-3 -1,-3 4,-5 5,-8 5,-8 l 1,4 c -4,5 -5,7 -5,7 z"
       fill="#3a5f92"
       id="id-66515" />
    <path
       d="m 291,223 c -4,-3 -4,-8 -2,-16 2,-4 6,-7 12,-8 -9,7 -12,15 -10,24 z"
       fill="#405b83"
       id="id-66516" />
    <path
       d="m 279,298 -6,-44 15,-5 34,-17 9,35 -34,40 c -12,-6 -18,-9 -18,-9 z"
       fill="#93a0ba"
       id="id-66517" />
    <path
       d="m 298,306 -8,-58 32,-16 9,35 c -22,26 -33,39 -33,39 z"
       fill="#6b80a5"
       id="id-66518" />
    <path
       d="m 322,271 c -4,2 -10,-3 -12,-10 -1,-6 2,-15 6,-16 4,0 7,5 10,12 1,5 -1,14 -4,14 z"
       fill="#2a384d"
       id="id-66519" />
    <path
       d="m 317,249 c 1,-2 1,-3 1,-3 8,5 10,13 6,23 h -2 c 1,-8 -1,-14 -5,-20 z"
       fill="#586c8d"
       id="id-66520" />
    <path
       d="m 315,249 c -1,6 -1,9 -1,9 4,7 6,10 6,10 2,-4 4,-5 4,-5 -1,-5 -2,-8 -4,-12 -3,-1 -5,-2 -5,-2 z"
       fill="#bb031a"
       id="id-66521" />
    <path
       d="m 333,243 c 1,-2 2,-3 2,-3 l 1,20 -3,-7 c 0,-7 0,-10 0,-10 z"
       stroke="#979797"
       id="id-66522" />
    <path
       d="m 350,225 c -5,-14 -8,-22 -8,-22 1,-22 1,-33 1,-33 -2,-30 -2,-46 -2,-46 -6,-26 -9,-39 -9,-39 -4,-9 -6,-14 -6,-14 -7,-12 -18,-27 -33,-43 -2,-2 -3,-3 -3,-3 C 270,10 245,2 214,0 c -21,2 -43,10 -65,24 -3,2 -4,3 -4,3 -10,10 -21,24 -32,43 -7,17 -11,36 -14,58 -1,49 -1,74 -1,74 l -9,26 c 9,27 14,41 14,41 1,0 2,0 2,0 5,-19 7,-28 7,-28 l -7,-42 c -3,-42 -5,-63 -5,-63 l 79,-58 c 26,-7 39,-10 39,-10 26,7 40,10 40,10 l 4,2 78,57 -4,63 c -3,14 -8,29 -7,41 l 7,27 2,-3 c 8,-26 12,-40 12,-40 z"
       fill="#5c739e"
       id="id-66523" />
    <path
       d="m 104,135 c 12,-24 15,-45 8,-65 12,-22 23,-36 33,-43 l 32,53 c 2,-2 2,-2 2,-2 l -15,18 c -18,8 -38,21 -60,39 z"
       fill="url(#id-66477)"
       id="id-66524"
       style="fill:url(#id-66477)" />
    <path
       d="M 181,77 148,25 C 169,9 191,1 214,0 c 31,-1 55,9 75,25 -21,35 -31,53 -31,53 l -41,-8 c -24,5 -36,7 -36,7 z"
       fill="#e9edf5"
       id="id-66525" />
    <path
       d="m 293,27 c -21,36 -31,53 -31,53 9,11 14,16 14,16 25,14 45,27 60,39 C 325,115 320,94 326,72 320,58 309,43 293,27 Z"
       fill="url(#id-66478)"
       id="id-66526"
       style="fill:url(#id-66478)" />
    <path
       d="m 295,101 c 2,-2 4,-3 4,-3 12,7 18,10 18,10 l -3,7 c -13,-9 -19,-14 -19,-14 z"
       fill="#2b384d"
       id="id-66527" />
    <path
       d="m 117,111 c 1,5 1,8 1,8 15,-11 23,-16 23,-16 l -7,-4 c -11,8 -17,12 -17,12 z"
       fill="#2b384d"
       id="id-66528" />
    <path
       d="m 193,83 c -7,-1 -10,-2 -10,-2 -3,4 -4,6 -4,6 l 7,4 c 4,-6 7,-8 7,-8 z"
       fill="#bb0219"
       id="id-66529" />
    <path
       d="m 253,91 c -4,-1 -6,-4 -6,-6 4,-4 7,-7 7,-7 l 5,7 c -4,4 -6,6 -6,6 z"
       fill="#bb0219"
       id="id-66530" />
    <path
       d="M 86,189 C 77,181 73,177 73,177 72,165 72,159 72,159 l 12,-8 c 1,26 2,38 2,38 z"
       fill="#161f2f"
       id="id-66531" />
    <path
       d="m 85,183 c -5,-5 -8,-8 -8,-8 0,-9 0,-13 0,-13 l 7,-5 c 1,17 1,26 1,26 z"
       fill="#b0031b"
       id="id-66532" />
    <path
       d="m 206,255 c 1,9 1,13 1,13 3,0 4,0 4,0 v -13 c -3,0 -5,0 -5,0 z"
       fill="#17212e"
       id="id-66533" />
    <path
       d="m 213,269 c 4,-1 7,-1 7,-1 -1,-9 -1,-13 -1,-13 h -6 c 0,9 0,14 0,14 z"
       fill="#17212e"
       id="id-66534" />
    <path
       d="m 222,268 c 3,0 5,0 5,0 0,-9 -1,-13 -1,-13 h -4 c 0,9 0,13 0,13 z"
       fill="#17212e"
       id="id-66535" />
    <path
       d="m 229,268 c 3,0 5,0 5,0 -1,-9 -1,-14 -1,-14 l -3,1 c -1,9 -1,13 -1,13 z"
       fill="#17212e"
       id="id-66536" />
    <path
       d="m 353,183 c 1,-17 1,-25 1,-25 l 8,4 v 14 c -6,5 -9,7 -9,7 z"
       fill="#b0031b"
       id="id-66537" />
    <path
       d="m 352,227 c -8,-8 -12,-12 -12,-12 -4,18 -6,27 -6,27 l -1,11 5,12 c 9,-25 14,-38 14,-38 z"
       fill="#a6b1c7"
       id="id-66538" />
    <path
       d="m 94,218 -5,10 c 9,27 14,41 14,41 l 4,-24 z"
       fill="#a6b1c7"
       id="id-66539" />
    <path
       d="m 107,245 c -1,7 -2,11 -2,11 l -3,-22 c 3,8 5,11 5,11 z"
       fill="#edeff7"
       id="id-66540" />
  </g>
</svg>
