<?xml version="1.0" encoding="UTF-8" standalone="no"?>
<svg
   width="510"
   height="696"
   viewBox="0 0 510 696"
   version="1.1"
   id="svg76"
   sodipodi:docname="cb-layer-0970.svg"
   xmlns:inkscape="http://www.inkscape.org/namespaces/inkscape"
   xmlns:sodipodi="http://sodipodi.sourceforge.net/DTD/sodipodi-0.dtd"
   xmlns="http://www.w3.org/2000/svg"
   xmlns:svg="http://www.w3.org/2000/svg">
  <sodipodi:namedview
     id="namedview78"
     pagecolor="#ffffff"
     bordercolor="#666666"
     borderopacity="1.0"
     inkscape:pageshadow="2"
     inkscape:pageopacity="0.0"
     inkscape:pagecheckerboard="0" />
  <defs
     id="defs7">
    <linearGradient
       x1="273.26644"
       y1="185.97076"
       x2="270.71882"
       y2="328.63784"
       id="id-83991"
       gradientTransform="scale(0.5966338,1.67607)"
       gradientUnits="userSpaceOnUse">
      <stop
         stop-color="#BC9845"
         offset="0%"
         id="stop2" />
      <stop
         stop-color="#9B7628"
         offset="100%"
         id="stop4" />
    </linearGradient>
  </defs>
  <g
     id="id-83992">
    <path
       d="m 172,696 c -89,0 -134,0 -134,0 2,-38 2,-76 -6,-111 2,-12 3,-19 3,-19 -9,-17 -14,-25 -14,-25 5,-15 7,-23 7,-23 -6,-14 -9,-21 -9,-21 1,-39 0,-80 -5,-123 C 5,355 0,345 0,345 c 10,-20 13,-53 14,-89 6,-42 9,-63 9,-63 4,-19 9,-36 11,-59 -4,-8 -6,-11 -6,-11 9,-8 13,-11 13,-11 C 46,88 48,76 48,76 45,65 44,59 44,59 53,47 57,40 57,40 55,37 54,35 54,35 60,12 63,0 63,0 c 45,12 104,17 168,18 1,-6 1,-8 1,-8 69,5 103,7 103,7 24,-2 51,-6 82,-12 2,23 2,35 2,35 8,8 19,12 22,27 -1,30 -1,45 -1,45 6,3 9,4 9,4 0,10 -1,14 -1,14 23,83 34,124 34,124 10,46 14,69 14,69 1,39 4,78 10,118 -6,18 -9,28 -9,28 9,24 13,36 13,36 -4,8 -8,16 -14,23 1,14 2,20 2,20 -13,17 -19,26 -19,26 7,10 7,18 0,40 l 9,33 c -3,33 -4,49 -4,49 -89,0 -133,0 -133,0 -1,-26 -4,-52 -15,-78 2,-8 -1,-15 -8,-22 2,-13 3,-20 3,-20 -26,-72 -40,-108 -40,-108 -2,-27 -3,-41 -3,-41 -14,-18 -22,-28 -22,-28 -10,-35 -19,-69 -29,-96 -11,82 -16,122 -16,122 -13,41 -26,82 -33,119 6,13 8,20 8,20 -5,11 -6,26 -4,42 -9,27 -18,53 -20,90 z"
       fill="#a67e30"
       id="id-83993" />
    <path
       d="m 101,696 c 3,-48 4,-73 4,-73 l 40,-15 c -34,-6 -51,-8 -51,-8 -6,-11 -10,-16 -10,-16 34,-4 51,-6 51,-6 -30,-7 -45,-11 -45,-11 -1,-6 -2,-9 -2,-9 37,-5 55,-8 55,-8 -14,-16 -22,-23 -22,-23 -3,-23 -4,-34 -4,-34 18,-9 27,-13 27,-13 -11,-64 -16,-96 -16,-96 24,-12 36,-17 36,-17 -5,-44 -7,-66 -7,-66 7,-20 11,-30 11,-30 21,29 32,43 32,43 -1,-30 -2,-45 -2,-45 16,25 24,38 24,38 l 14,1 -15,117 c -13,41 -25,82 -33,119 l 8,20 c -6,14 -6,28 -4,41 -11,29 -19,59 -20,91 -47,0 -71,0 -71,0 z"
       fill="url(#id-83991)"
       id="id-83994"
       style="fill:url(#id-83991)" />
    <path
       d="m 177,602 c -16,32 -26,64 -25,94 0,0 -14,0 -14,0 0,-34 2,-70 -23,-73 z"
       fill="#bf9b4f"
       id="id-83995" />
    <path
       d="M 142,606 C 110,595 94,589 94,589 l 78,3 c -20,9 -30,14 -30,14 z"
       fill="#bf9b4f"
       id="id-83996" />
    <path
       d="m 139,576 c -28,-10 -41,-15 -41,-15 32,-3 49,-5 49,-5 l 30,3 c -26,12 -38,17 -38,17 z"
       fill="#bf9b4f"
       id="id-83997" />
    <path
       d="m 179,549 c -17,0 -26,0 -26,0 -18,-15 -27,-23 -27,-23 -1,-17 -2,-26 -2,-26 l 51,35 c 3,9 4,14 4,14 z"
       fill="#bf9b4f"
       id="id-83998" />
    <path
       d="m 195,567 c -33,7 -49,11 -49,11 l 45,16 c 0,-12 1,-22 4,-27 z"
       fill="#8d671a"
       id="id-83999" />
    <path
       d="m 95,628 c -4,-16 -6,-24 -6,-24 l 48,7 c -28,11 -42,17 -42,17 z"
       fill="#896117"
       id="id-84000" />
    <path
       d="m 135,548 c -37,5 -55,7 -55,7 -20,-7 -30,-10 -30,-10 3,-4 5,-6 5,-6 l 33,-7 c 31,11 47,16 47,16 z"
       fill="#896117"
       id="id-84001" />
    <path
       d="m 184,546 c -21,-34 -32,-52 -32,-52 -12,-70 -18,-105 -18,-105 15,-6 23,-9 23,-9 l 27,85 c 0,54 0,81 0,81 z"
       fill="#bf9b4f"
       id="id-84002" />
    <path
       d="m 161,244 c 15,18 23,27 23,27 l 1,-27 35,49 c 8,6 13,12 16,15 0,-12 0,-18 0,-18 -14,-62 -21,-93 -21,-93 -12,-3 -18,-5 -18,-5 l -22,44 c -9,5 -14,8 -14,8 z"
       fill="#875f15"
       id="id-84003" />
    <path
       d="m 288,219 c 4,75 5,113 5,113 8,-33 12,-49 12,-49 17,76 26,115 26,115 17,-29 25,-43 25,-43 -1,42 -1,63 -1,63 16,71 24,106 24,106 -17,21 -26,32 -26,32 20,14 30,21 30,21 26,-9 39,-14 39,-14 -26,18 -39,27 -39,27 -20,4 -30,6 -30,6 25,3 37,5 37,5 -19,12 -28,19 -28,19 24,-11 35,-16 35,-16 16,3 24,4 24,4 l -22,18 15,70 c 37,0 55,0 55,0 -5,-9 -7,-14 -7,-14 -13,-13 -19,-20 -19,-20 -13,-31 -20,-47 -20,-47 6,-7 8,-10 8,-10 0,-5 -1,-7 -1,-7 -24,-3 -36,-5 -36,-5 30,-22 46,-33 46,-33 0,-14 0,-21 0,-21 -15,-12 -23,-18 -23,-18 7,-13 10,-20 10,-20 L 382,335 C 319,258 288,219 288,219 Z"
       fill="#b99543"
       id="id-84004" />
    <path
       d="m 384,363 c -7,62 -10,94 -10,94 21,37 32,55 32,55 l 17,-10 C 397,409 384,363 384,363 Z"
       fill="#d1ab5c"
       id="id-84005" />
    <path
       d="m 418,527 c -40,21 -61,31 -61,31 19,4 29,6 29,6 l 48,-20 c -11,-11 -16,-17 -16,-17 z"
       fill="#bc974d"
       id="id-84006" />
    <polygon
       points="469,696 417,641 430,696 "
       fill="#d4ad59"
       id="id-84007" />
    <path
       d="m 329,592 c 21,-12 31,-18 31,-18 l -34,-13 5,16 c -1,10 -2,15 -2,15 z"
       fill="#876116"
       id="id-84008" />
    <path
       d="m 266,399 27,-45 -5,74 c -14,-19 -22,-29 -22,-29 z"
       fill="#886116"
       id="id-84009" />
    <path
       d="m 53,670 c 6,-34 10,-51 10,-51 12,-7 19,-11 19,-11 -18,-9 -27,-14 -27,-14 4,9 7,14 7,14 l -8,23 c -1,26 -1,39 -1,39 z"
       fill="#896117"
       id="id-84010" />
    <path
       d="m 60,583 c 18,-5 27,-7 27,-7 L 59,557 c 0,17 1,26 1,26 z"
       fill="#896117"
       id="id-84011" />
    <path
       d="m 48,545 c 10,-8 15,-13 15,-13 -4,-17 -6,-26 -6,-26 16,-8 24,-12 24,-12 -3,-13 -4,-20 -4,-20 -7,0 -10,0 -10,0 0,12 0,17 0,17 l -21,17 c 1,25 2,37 2,37 z"
       stroke="#979797"
       id="id-84012" />
    <path
       d="m 38,696 c 9,0 14,0 14,0 2,-43 4,-65 4,-65 5,-16 8,-24 8,-24 -6,-9 -9,-13 -9,-13 8,-12 12,-18 12,-18 -5,-16 -7,-24 -7,-24 -8,-3 -12,-5 -12,-5 5,-10 8,-15 8,-15 -4,-16 -6,-24 -6,-24 15,-10 22,-15 22,-15 -1,-16 -1,-25 -1,-25 18,-28 32,-59 46,-90 9,-40 14,-60 14,-60 19,-48 28,-72 28,-72 11,-6 17,-9 17,-9 14,-28 21,-42 21,-42 36,6 54,9 54,9 24,11 37,16 37,16 62,77 93,116 93,116 31,109 46,164 46,164 -1,10 -1,15 -1,15 9,14 14,20 14,20 -1,16 -1,24 -1,24 -8,7 -12,11 -12,11 2,24 4,36 4,36 -6,6 -9,9 -9,9 14,32 21,48 21,48 l 19,19 7,14 h 15 l 4,-49 -9,-33 c 6,-17 9,-30 0,-40 l 19,-26 -2,-20 c 5,-6 10,-13 14,-23 l -12,-36 c 5,-19 8,-28 8,-28 -6,-35 -9,-72 -9,-117 l -15,-70 -34,-124 1,-14 -9,-4 1,-45 C 440,56 428,48 419,40 L 417,5 c -25,5 -52,9 -82,12 l -103,-7 -1,8 C 166,17 109,12 63,0 l -9,35 3,5 -13,19 4,18 -7,35 -13,11 6,11 c -1,19 -6,39 -11,59 l -9,63 c 0,36 -4,68 -14,89 l 14,29 c 6,43 6,83 5,123 l 9,21 -7,23 14,25 -3,19 c 8,37 9,74 6,111 z"
       fill="#1c1e1d"
       id="id-84013" />
    <path
       d="M 19,488 C 48,428 63,399 63,399 48,358 40,338 40,338 52,320 58,312 58,312 74,233 82,194 82,194 65,183 57,178 57,178 c 20,-17 30,-25 30,-25 -5,-25 -8,-37 -8,-37 -3,-4 -5,-6 -5,-6 l -42,17 3,6 c -3,17 -6,36 -13,59 l -8,64 c 0,30 -3,60 -14,89 l 14,29 c 5,52 7,90 5,114 z"
       fill="#393d3c"
       id="id-84014" />
    <path
       d="m 32,409 c 28,17 42,26 42,26 -6,4 -9,6 -9,6 C 50,431 42,426 42,426 v 30 c -6,5 -9,7 -9,7 -1,-35 -1,-53 -1,-54 z m 14,25 15,10 c -9,6 -14,10 -14,10 -1,-13 -1,-20 -1,-20 z"
       stroke="#979797"
       id="id-84015" />
    <path
       d="m 38,127 c 13,-6 20,-10 20,-10 16,8 23,11 23,11 l 2,11 C 53,131 38,127 38,127 Z"
       stroke="#979797"
       id="id-84016" />
    <path
       d="m 58,117 c 22,-10 33,-16 33,-16 20,11 30,16 30,16 L 82,129 C 66,121 58,117 58,117 Z"
       stroke="#979797"
       id="id-84017" />
    <path
       d="m 94,95 c 7,-5 10,-8 10,-8 2,-10 2,-15 2,-15 30,4 45,6 45,6 l -15,15 c -28,1 -42,2 -42,2 z"
       stroke="#979797"
       id="id-84018" />
    <path
       d="m 131,17 c 7,25 10,37 10,37 l -11,16 c 1,-36 1,-53 1,-53 z"
       fill="#1c1e1d"
       id="id-84019" />
    <path
       d="m 235,10 c -7,26 -10,38 -10,38 30,6 44,9 44,9 24,-2 36,-3 36,-3 l 6,-38 c -51,-4 -76,-6 -76,-6 z"
       fill="#292b2a"
       id="id-84020" />
    <path
       d="m 237,12 c -5,23 -7,34 -7,34 21,3 32,5 32,5 l 29,-32 c -36,-4 -54,-7 -54,-7 z"
       fill="#353837"
       id="id-84021" />
    <path
       d="m 316,16 c -1,37 -2,56 -2,56 14,-3 21,-4 21,-4 l -3,-51 c -10,-1 -16,-1 -16,-1 z"
       fill="#3e4242"
       id="id-84022" />
    <path
       d="m 334,53 16,2 69,-15 -2,-35 c -24,5 -52,9 -83,13 0,23 0,35 0,35 z"
       fill="#2c2e2e"
       id="id-84023" />
    <path
       d="m 381,12 c 0,24 0,36 0,36 19,-4 28,-6 28,-6 L 407,7 c -17,3 -26,5 -26,5 z"
       fill="#3a3d3c"
       id="id-84024" />
    <polygon
       points="409,42 419,40 417,5 406,7 "
       fill="#808995"
       id="id-84025" />
    <path
       d="m 419,40 c -32,12 -49,18 -49,18 11,14 17,21 17,21 l 53,-13 c -1,-7 -8,-16 -21,-26 z"
       fill="#262928"
       id="id-84026" />
    <path
       d="m 349,64 c -12,-1 -18,-2 -18,-2 -47,16 -70,24 -70,24 5,-19 8,-29 8,-29 -41,53 -61,80 -61,80 34,6 50,9 50,9 24,32 35,47 35,47 l 21,58 68,84 45,165 c 0,10 0,15 0,15 l 33,-41 46,-33 C 500,405 496,367 497,324 485,263 466,196 448,130 l 1,-14 c -6,-2 -9,-3 -9,-3 -19,-2 -28,-3 -28,-3 L 356,92 c -5,-19 -7,-28 -7,-28 z"
       fill="#292c2b"
       id="id-84027" />
    <path
       d="m 348,71 c -7,1 -11,2 -11,2 7,21 10,32 10,32 32,11 49,17 49,17 3,-6 4,-10 4,-10 L 354,98 c -4,-18 -6,-27 -6,-27 z"
       fill="#3c403f"
       id="id-84028" />
    <path
       d="m 398,113 c -8,96 -12,143 -12,143 21,-19 32,-28 32,-28 l 25,-110 c -30,-3 -45,-5 -45,-5 z"
       fill="#393d3c"
       id="id-84029" />
    <path
       d="m 427,501 c 17,-30 25,-45 25,-45 10,-57 15,-86 15,-86 l -46,65 22,-112 17,-146 -4,10 c -25,28 -37,42 -37,42 l -75,59 38,47 c 30,111 45,166 45,166 z"
       fill="#303331"
       id="id-84030" />
    <path
       d="m 456,187 -37,42 c 20,-66 29,-99 29,-99 l 12,44 c -2,9 -4,13 -4,13 z"
       fill="#2a2d2c"
       id="id-84031" />
    <path
       d="m 350,287 c 23,32 34,48 34,48 l 34,-98 c -45,34 -68,50 -68,50 z"
       fill="#383b3a"
       id="id-84032" />
    <path
       d="m 460,174 c -12,99 -18,149 -18,149 l 36,-84 c -12,-44 -18,-65 -18,-65 z"
       fill="#272928"
       id="id-84033" />
    <path
       d="m 506,441 c -9,-1 -13,-1 -13,-1 l -9,-56 13,-60 c 0,40 3,79 9,117 z"
       fill="#383b3a"
       id="id-84034" />
    <path
       d="m 468,444 c 4,4 6,6 7,6 v 0 c -6,5 -9,7 -9,7 -4,-4 -6,-6 -6,-6 z m -34,-1 c 0,0 2,2 6,7 v 0 l -8,7 c 0,0 -2,-2 -6,-7 0,0 3,-2 8,-7 z m 17,-30 c 3,3 5,5 5,5 -10,10 -16,15 -17,16 v 0 c 0,0 0,0 0,0 v 0 c 6,6 10,9 11,11 h 1 c 0,0 0,0 0,0 v 1 c 0,0 0,0 0,0 v 0 c 0,0 0,0 0,0 h 1 c 0,0 0,0 0,0 v 0 0 c 8,-8 12,-12 12,-12 v 0 c -5,-5 -7,-7 -7,-7 -3,3 -5,5 -5,5 3,3 5,4 5,4 -4,3 -5,5 -5,5 v 0 c -5,-4 -8,-7 -8,-7 l 15,-14 c 10,9 16,13 16,13 -16,14 -24,21 -24,22 v 0 c -3,-3 -5,-5 -7,-8 h -1 c 0,-1 -1,-1 -1,-2 l -1,-1 c 0,0 0,0 -1,0 v -1 c -1,0 -1,-1 -1,-1 l -1,-1 v 0 0 h -1 v 0 0 -1 c -1,0 -1,-1 -1,-1 h -1 c 0,0 0,0 0,-1 h -1 c 0,-1 0,-1 0,-1 h -1 v -1 0 h -1 c 0,0 0,0 0,0 v -1 0 0 h -1 c 0,0 0,0 0,-1 v 0 0 0 h -1 c 13,-13 20,-19 21,-20 v 0 c 0,-1 0,-1 0,-1 z m -16,-2 c 0,0 1,1 1,1 l 1,1 c 0,0 0,0 0,0 l 1,1 c 0,0 0,0 0,0 l 2,2 c 0,0 0,0 1,1 v 0 c 0,0 1,1 1,1 v 0 c 0,0 0,0 0,0 -4,4 -6,7 -7,7 v 0 0 c -4,-4 -6,-7 -6,-7 v 0 0 z m 34,-1 7,7 c -4,3 -6,5 -6,6 v 0 0 c -5,-5 -8,-7 -8,-7 5,-4 7,-6 7,-6 z"
       fill="#9e7428"
       id="path51" />
    <path
       d="m 429,520 72,-39 c 6,16 9,24 9,24 -14,14 -21,22 -21,22 -33,21 -49,31 -49,31 v -22 c -7,-11 -11,-16 -11,-16 z"
       fill="#2f3030"
       id="id-84036" />
    <path
       d="m 430,597 67,-53 c 0,4 0,5 0,5 -29,32 -43,47 -43,47 19,-2 29,-4 29,-4 -28,30 -42,45 -42,45 l -2,16 -16,-38 8,-10 c -1,-5 -1,-8 -1,-8 z"
       fill="#2f302f"
       id="id-84037" />
    <polygon
       points="484,696 469,696 462,682 444,664 488,647 "
       fill="#2f302f"
       id="id-84038" />
    <path
       d="m 305,164 c -39,-22 -58,-33 -58,-33 l 10,-41 c 32,49 48,74 48,74 z"
       fill="#222423"
       id="id-84039" />
    <path
       d="m 159,245 c -7,-12 -10,-19 -10,-19 25,-54 38,-82 38,-82 -8,-11 -12,-17 -12,-17 8,-33 12,-49 12,-49 -55,-6 -83,-9 -83,-9 -1,-13 -1,-19 -1,-19 16,1 25,1 25,1 l 2,-39 C 105,10 83,5 63,0 l -9,35 4,7 41,8 -1,40 -70,33 7,10 -13,59 -8,64 c 1,33 -4,62 -14,89 l 14,29 c 5,42 6,83 5,123 l 9,21 c -4,15 -6,22 -6,22 22,12 32,18 32,18 8,12 12,18 12,18 l -33,6 c -1,2 -1,3 -1,3 18,17 28,26 28,26 l -21,31 c 1,19 0,37 -1,54 9,0 14,0 14,0 3,-43 4,-65 4,-65 l 8,-24 -9,-13"
       fill="#303231"
       id="id-84040" />
    <path
       d="M 14,256 43,309 0,345 C 10,321 14,292 14,256 Z"
       fill="#4a4f4e"
       id="id-84041" />
    <path
       d="m 0,345 c 1,2 2,3 2,3 C 19,302 28,279 28,279 22,260 18,250 18,250 32,173 40,135 40,135 l -4,-16 -8,4 6,11 -12,58 -8,64 c 0,37 -5,67 -14,89 z"
       fill="#717982"
       id="id-84042" />
    <path
       d="m 115,10 c 0,39 -1,58 -1,58 11,1 16,2 16,2 l 1,-58 c -11,-1 -16,-2 -16,-2 z"
       fill="#383c3b"
       id="id-84043" />
    <path
       d="m 206,194 c -6,-21 -9,-32 -9,-32 l 13,-31 c -3,42 -4,63 -4,63 z"
       fill="#0f1212"
       id="id-84044" />
    <path
       d="m 207,194 c 3,-66 4,-98 4,-98 8,-24 13,-36 13,-36 9,18 13,28 13,28 -3,33 -5,49 -5,49 -13,0 -19,0 -19,0 l -2,58 c -3,-1 -4,-1 -4,-1 z"
       fill="#313433"
       id="id-84045" />
    <path
       d="m 133,53 c 56,3 84,5 84,5 0,2 0,3 0,3 -55,-4 -83,-5 -83,-5 41,14 62,22 62,22 L 132,58"
       fill="#131515"
       id="id-84046" />
    <path
       d="m 184,35 c -5,5 -7,8 -7,8 39,3 58,5 58,5 17,-7 25,-10 25,-10 -7,-2 -11,-3 -11,-3 -3,2 -5,3 -5,3 -6,-4 -9,-6 -9,-6 -4,2 -6,2 -6,2 l 7,7 c -35,-4 -52,-6 -52,-6 z"
       fill="#a24b19"
       id="id-84047" />
    <path
       d="m 230,32 c 0,3 0,4 0,4 -3,4 -5,6 -5,6 -3,8 -5,11 -5,11 5,143 7,214 7,214 -5,8 -7,12 -7,12 -5,-148 -7,-222 -7,-222 l 7,-19 c 7,-4 10,-6 10,-6 z"
       fill="#7a2800"
       id="id-84048" />
    <path
       d="m 227,267 c 5,173 8,260 8,260 l -12,8 -3,-256 c 5,-8 7,-12 7,-12 z"
       fill="#8c380c"
       id="id-84049" />
    <path
       d="m 229,344 c -5,14 -8,22 -8,22 0,16 0,25 0,25 l 10,-2 c -1,-30 -2,-45 -2,-45 z"
       fill="#5a0b02"
       id="id-84050" />
    <path
       d="m 217,427 c -3,4 -4,6 -4,6 -5,-31 -8,-46 -8,-46 24,-74 35,-111 35,-111 7,-111 10,-167 10,-167 -7,-42 -10,-63 -10,-63 5,-2 8,-3 8,-3 9,42 13,63 13,63 -8,114 -11,172 -11,172 -21,64 -31,96 -31,96 l -7,27 c 4,17 5,26 5,26 z"
       fill="#954417"
       id="id-84051" />
    <path
       d="m 205,387 c 5,-4 7,-7 7,-7 -1,12 -1,18 -1,18 l 4,31 -2,4 c -5,-31 -8,-46 -8,-46 z"
       fill="#7f2b0e"
       id="id-84052" />
    <path
       d="m 241,276 c 7,-15 10,-22 10,-22 3,-42 5,-63 5,-63 l -12,22 c -2,42 -3,63 -3,63 z"
       fill="#7d2e0f"
       id="id-84053" />
    <path
       d="m 252,114 c 5,-5 8,-7 8,-7 -9,-43 -14,-64 -14,-64 l -5,1 c 7,47 11,70 11,70 z"
       fill="#b76333"
       id="id-84054" />
    <path
       d="m 290,40 c -6,3 -10,4 -10,4 -20,-6 -31,-9 -31,-9 -3,2 -5,3 -5,3 -5,-3 -7,-5 -7,-5 8,-3 12,-4 12,-4 l 31,10 c 7,0 10,1 10,1 z"
       fill="#7a2900"
       id="id-84055" />
    <path
       d="m 232,36 c -4,3 -7,5 -7,5 -1,4 -2,6 -2,6 l 6,-1 c 2,-7 3,-10 3,-10 z"
       fill="#550400"
       id="id-84056" />
    <path
       d="m 54,35 c 3,3 4,4 4,4 16,3 24,4 24,4 L 83,5 63,0 c -6,23 -9,35 -9,35 z"
       fill="#3e4242"
       id="id-84057" />
  </g>
</svg>
