<?xml version="1.0" encoding="UTF-8" standalone="no"?>
<svg
   width="630"
   height="1147"
   viewBox="0 0 630 1147"
   version="1.1"
   id="svg189"
   sodipodi:docname="cb-layer-1380.svg"
   xmlns:inkscape="http://www.inkscape.org/namespaces/inkscape"
   xmlns:sodipodi="http://sodipodi.sourceforge.net/DTD/sodipodi-0.dtd"
   xmlns="http://www.w3.org/2000/svg"
   xmlns:svg="http://www.w3.org/2000/svg">
  <sodipodi:namedview
     id="namedview191"
     pagecolor="#ffffff"
     bordercolor="#666666"
     borderopacity="1.0"
     inkscape:pageshadow="2"
     inkscape:pageopacity="0.0"
     inkscape:pagecheckerboard="0" />
  <defs
     id="defs21">
    <linearGradient
       x1="425.03235"
       y1="0"
       x2="425.03235"
       y2="841.56406"
       id="id-77293"
       gradientTransform="scale(0.74112006,1.3493091)"
       gradientUnits="userSpaceOnUse">
      <stop
         stop-color="#B7A99D"
         offset="0%"
         id="stop2" />
      <stop
         stop-color="#C5BAAB"
         offset="65%"
         id="stop4" />
      <stop
         stop-color="#BBAFA1"
         offset="100%"
         id="stop6" />
    </linearGradient>
    <linearGradient
       x1="348.57562"
       y1="501.53823"
       x2="348.57562"
       y2="876.92736"
       id="id-77294"
       gradientTransform="scale(0.76453998,1.3079761)"
       gradientUnits="userSpaceOnUse">
      <stop
         stop-color="#85807D"
         offset="0%"
         id="stop9" />
      <stop
         stop-color="#A68B81"
         offset="46%"
         id="stop11" />
      <stop
         stop-color="#896C62"
         offset="100%"
         id="stop13" />
    </linearGradient>
    <radialGradient
       cx="86.559228"
       cy="403.88068"
       r="98.677519"
       id="id-77295"
       fx="86.559228"
       fy="403.88068"
       gradientTransform="scale(0.93577544,1.0686324)"
       gradientUnits="userSpaceOnUse">
      <stop
         stop-color="#A6978A"
         offset="0%"
         id="stop16" />
      <stop
         stop-color="#A49588"
         offset="100%"
         id="stop18" />
    </radialGradient>
  </defs>
  <g
     id="id-77296">
    <g
       id="id-77297">
      <path
         d="m 372,0 c 14,21 21,31 21,31 58,22 87,33 87,33 19,-3 28,-4 28,-4 43,97 65,146 65,146 -4,11 -5,16 -5,16 11,13 17,19 17,19 -5,12 -6,24 -2,37 6,5 8,7 8,7 9,12 13,18 13,18 -1,16 -1,23 -1,23 11,24 16,36 16,36 -2,4 -5,9 -5,12 10,34 16,51 16,51 0,15 0,23 0,26 v 0 c 0,0 0,0 0,0 v 1 c 0,0 0,0 0,0 v 0 c 0,0 0,0 0,0 v 0 0 c -13,11 -26,21 -39,27 -27,14 -54,32 -80,50 -10,-3 -14,-4 -14,-4 -2,12 -3,18 -3,18 32,107 49,161 49,161 -12,11 -18,16 -18,16 -8,53 -11,80 -11,80 -14,86 -35,155 -57,223 l -2,5 c 0,1 -1,3 -1,5 l -2,5 c -1,3 -2,6 -3,9 l -1,5 c -2,5 -4,10 -5,15 0,6 0,9 0,9 v 1 c 0,0 0,0 0,0 6,22 9,34 9,34 -4,10 -5,22 -2,36 H 340 v 0 c 4,-26 6,-39 6,-39 1,-57 -1,-99 -4,-145 -2,-37 -4,-77 -10,-126 1,-15 1,-30 3,-46 -16,1 -24,1 -25,1 v 0 0 c 5,31 7,47 7,47 -11,138 -17,208 -17,208 2,32 2,48 2,49 v 0 0 l 9,44 -2,6 H 192 v 0 c -3,-4 -5,-8 -6,-10 v -1 c 0,-1 -1,-2 -1,-2 6,-16 9,-24 9,-25 v 0 0 c -8,-53 -12,-80 -12,-80 C 148,879 129,795 125,777 l -1,-1 c 0,-1 0,-2 0,-2 0,-15 -1,-22 -1,-23 v 0 0 c -14,-8 -21,-12 -21,-12 -3,-6 -5,-10 -6,-12 v 0 c 0,0 0,0 0,-1 h -1 c 0,0 0,0 0,0 v 0 c 0,0 0,0 0,0 15,-67 22,-101 22,-101 13,-63 19,-95 19,-95 -24,13 -36,20 -36,20 C 87,530 80,521 80,520 v 0 0 C 59,503 48,494 48,494 29,533 19,553 18,554 v 0 0 c -2,-39 -3,-58 -3,-58 6,-14 8,-21 8,-21 C 12,465 7,460 6,459 v 0 c 0,0 0,0 0,0 2,-17 3,-26 3,-26 -6,-10 -9,-16 -9,-16 7,-8 10,-13 11,-13 v 0 c 0,0 0,0 0,0 17,-60 26,-90 26,-90 4,-24 6,-36 6,-36 9,-10 13,-15 13,-15 -3,-8 -5,-14 -5,-16 v 0 c -1,-1 -1,-1 -1,-1 14,-33 21,-49 22,-50 v 0 0 c 6,-24 12,-44 16,-60 l 1,-3 c 3,-10 5,-19 7,-25 v -2 c 4,-15 6,-22 6,-22 5,-3 7,-5 7,-5 5,4 7,5 7,5 65,-25 97,-37 97,-37 14,-25 20,-38 20,-38 2,-2 4,-3 5,-5 v 0 c 1,0 1,-1 1,-1 h 1 c 0,-1 0,-1 0,-1 v 0 c 0,0 0,0 0,0 h 1 v 0 c 82,0 124,1 126,1 v 0 0 c 3,-2 5,-3 5,-3 z M 142,344 c -4,6 -6,10 -6,10 0,15 1,23 1,23 -12,15 -17,23 -17,23 -8,0 -12,-1 -12,-1 -6,6 -9,9 -9,9 6,12 9,18 9,18 22,14 33,22 34,22 v 0 c 0,0 0,0 0,0 3,-6 4,-9 4,-9 l 7,-63 c 2,-7 3,-11 3,-11 -6,-10 -9,-15 -9,-15 -3,-4 -5,-6 -5,-6 z m 338,-58 c 2,50 3,75 3,75 l -11,16 7,44 37,-16 -11,-16 -2,-1 c 5,-12 7,-18 7,-18 -20,-56 -30,-84 -30,-84 z"
         fill="url(#id-77293)"
         id="id-77298"
         style="fill:url(#id-77293)" />
      <path
         d="m 190,309 48,9 c 87,12 131,18 131,18 10,-41 18,-71 23,-88 28,-83 47,-125 47,-125 -31,-17 -47,-25 -47,-25 25,-4 38,-5 38,-5 L 402,52 393,31 372,0 367,3 241,2 233,9 c -13,25 -20,38 -20,38 -28,35 -43,53 -43,53 l 20,4 -26,15 c 0,49 14,122 26,190 z"
         fill="#cdc1b3"
         id="id-77299" />
      <path
         d="m 384,1146 c 11,-36 17,-54 17,-54 12,24 19,36 19,36 l 23,-57 v 6 l 9,34 c -5,12 -4,24 -2,36 -44,-1 -66,-1 -66,-1 z"
         fill="#a49588"
         id="id-77300" />
      <path
         d="m 420,1114 -25,-100 c 38,-147 57,-221 57,-221 l 48,78 c -54,162 -80,243 -80,243 z"
         fill="#c3bdad"
         id="id-77301" />
      <path
         d="m 466,908 c 5,3 7,4 7,4 l -33,97 c 17,-67 26,-101 26,-101 z"
         fill="#8b7468"
         id="id-77302" />
      <path
         d="m 479,912 c -9,-11 -13,-16 -13,-16 12,0 17,0 17,0 l 5,10 c -6,4 -9,6 -9,6 z"
         fill="#d3d5c2"
         id="id-77303" />
      <path
         d="m 483,896 c -14,-1 -22,-1 -22,-1 l 23,-42 c -1,28 -1,43 -1,43 z"
         fill="#8a7367"
         id="id-77304" />
      <path
         d="m 347,1078 56,-285 -60,-10 -8,9 -3,45 c 9,79 14,160 15,241 z"
         fill="#a69789"
         id="id-77305" />
      <path
         d="m 216,930 c 23,-54 57,-71 99,-59 l 2,-32 -11,-66 -47,-3 c -14,-4 -28,-8 -43,-5 l -3,139 c 2,18 3,26 3,26 z"
         fill="#ada094"
         id="id-77306" />
      <path
         d="m 364,770 c 22,18 33,27 33,27 69,-32 104,-48 104,-48 8,33 13,50 13,50 5,-22 8,-32 8,-32 1,-11 1,-16 1,-16 11,22 16,33 16,33 -14,22 -22,32 -22,32 14,5 21,8 21,8 7,-28 10,-42 10,-42 l -24,-53 c 1,-6 1,-9 1,-9 5,-4 7,-6 7,-6 -21,12 -31,18 -31,18 l -80,19 -11,-10 c -31,19 -46,29 -46,29 z"
         fill="#99887e"
         id="id-77307" />
      <path
         d="M 304,994 C 296,922 292,887 292,887 270,809 259,770 259,770 l 47,3 4,19 7,47 c -8,103 -13,155 -13,155 z"
         fill="#958478"
         fill-opacity="0.579"
         id="id-77308" />
      <path
         d="m 252,1147 c -10,-79 -16,-118 -16,-118 -4,24 -7,36 -7,36 -10,-107 -16,-161 -16,-161 3,-93 4,-140 4,-140 21,-1 41,4 59,13 -26,12 -39,18 -39,18 38,-3 57,-4 57,-4 -15,17 -23,25 -23,25 -10,7 -15,10 -15,10 l 57,-18 -3,-16 c 17,0 25,0 25,0 -2,19 -2,29 -2,29 12,2 18,4 18,4 -9,-17 -14,-25 -14,-25 38,-5 57,-8 57,-8 -34,-6 -51,-9 -51,-9 44,-28 67,-42 67,-42 -20,-53 -30,-79 -30,-79 -128,-4 -192,-6 -192,-6 -17,72 -26,108 -26,108 -26,-6 -39,-9 -39,-9 1,6 1,10 1,10 8,1 12,2 12,2 0,12 0,18 0,18 23,110 35,166 35,166 8,48 14,96 25,145 4,-11 7,-16 7,-16 -4,33 -5,50 -5,50 l -12,5 5,11 c 41,1 61,1 61,1 z"
         fill="url(#id-77294)"
         id="id-77309"
         style="fill:url(#id-77294)" />
      <path
         d="m 219,706 c -1,15 -1,23 -1,23 l 67,-4 c -44,-12 -66,-19 -66,-19 z"
         fill="#b1a498"
         id="id-77310" />
      <path
         d="m 264,746 c -22,7 -33,10 -33,10 l -7,-19 c 26,6 40,9 40,9 z"
         fill="#b1a498"
         id="id-77311" />
      <path
         d="m 162,764 c -26,-10 -39,-14 -39,-14 9,-37 13,-56 13,-56 l 37,14 c -7,37 -11,56 -11,56 z"
         fill="#beb6a7"
         id="id-77312" />
      <path
         d="m 102,739 c -4,-9 -7,-13 -7,-13 12,-56 18,-84 18,-84 l 4,20 z"
         fill="#888ec1"
         id="id-77313" />
      <path
         d="m 536,707 c -5,-2 -8,-2 -8,-2 l -2,7 c 7,-3 10,-5 10,-5 z m -17,-10 c 7,-10 10,-15 10,-15 5,1 8,1 8,1 l 2,8 c -13,4 -20,6 -20,6 z m -11,-6 c 0,-6 1,-9 1,-9 h 8 c -6,6 -9,9 -9,9 z m 18,-16 c -5,-7 -7,-11 -7,-11 6,-8 8,-12 8,-12 l 5,17 c -4,4 -6,6 -6,6 z m -16,-12 c -15,1 -22,2 -22,2 l 10,-8 c 8,4 12,6 12,6 z m -5,19 c -7,1 -11,2 -11,2 l 3,-7 c 5,4 8,5 8,5 z m -8,-39 c -7,0 -10,0 -10,0 l 3,-5 c 5,3 7,5 7,5 z m 13,-5 c -2,-6 -2,-8 -2,-8 l 6,-2 c -3,6 -4,10 -4,10 z m 3,11 c 3,-7 4,-11 4,-11 5,2 7,3 7,3 l 1,5 c -8,2 -12,3 -12,3 z m -7,-32 c -2,-3 -3,-5 -3,-5 h 6 c -2,4 -3,5 -3,5 z"
         fill="#dbb99f"
         id="path39" />
      <path
         d="m 456,431 c 15,22 23,34 23,34 11,20 17,30 17,30 l 4,12 11,23 c 25,-18 49,-33 80,-51 13,-6 26,-16 39,-26 v -28 l -16,-51 c -1,-2 1,-6 5,-12 l -16,-36 1,-23 -13,-18 -8,-7 c -3,-13 -3,-25 2,-37 l -17,-19 5,-16 C 530,109 508,60 508,60 c -3,1 -5,1 -5,1 -8,42 -12,63 -12,63 4,28 6,42 6,42 11,-11 17,-16 17,-16 -17,72 -26,108 -26,108 16,7 24,10 24,10 2,14 4,21 4,21 -11,34 -16,51 -16,51 30,0 46,0 46,0 -24,20 -37,30 -37,30 -4,12 -6,18 -6,18 l 13,18 c -40,16 -60,25 -60,25 z"
         fill="#b9ab9d"
         id="id-77315" />
      <path
         d="m 517,404 c 28,-15 46,-23 54,-25 15,7 23,10 23,10 l -19,16 c -39,-1 -58,-1 -58,-1 z"
         fill="#8f776d"
         id="id-77316" />
      <path
         d="m 492,457 c 5,-19 7,-29 7,-29 l 62,-5 c -46,22 -69,34 -69,34 z"
         fill="#d0b5a1"
         id="id-77317" />
      <path
         d="m 540,390 c 23,-11 34,-16 34,-16 l 41,-4 c 3,-6 4,-8 4,-8 -3,-8 -5,-12 -5,-12 -31,3 -46,5 -46,5 l 35,-54 c -8,-11 -12,-16 -12,-16 l -45,11 39,-55 -17,-19 c 3,-11 5,-16 5,-16 -25,-9 -37,-13 -37,-13 l 11,-45 -39,-88 c -3,1 -5,1 -5,1 10,20 16,30 16,30 l -22,71 c 0,1 0,1 0,1 16,-13 24,-20 24,-20 -13,45 -19,67 -19,67 40,13 60,19 60,19 -30,64 -45,97 -45,97 38,-9 57,-14 57,-14 l -53,52 c 13,17 19,26 19,26 z"
         fill="#cdc1b3"
         id="id-77318" />
      <path
         d="m 508,376 41,-36 h -49 l 9,30 c -1,4 -1,6 -1,6 z"
         fill="#896c62"
         id="id-77319" />
      <path
         d="m 562,333 c 16,-6 24,-9 24,-9 1,9 1,13 1,13 9,11 13,17 13,17 -6,1 -10,1 -10,1 -7,17 -10,25 -10,25 -12,-5 -18,-7 -18,-7 2,-11 3,-16 3,-16 h -2 c 0,-16 -1,-24 -1,-24 z"
         fill="#76392a"
         id="id-77320" />
      <path
         d="m 566,356 c 9,16 14,23 14,23 10,-2 16,-3 16,-3 v -22 c -20,2 -30,2 -30,2 z"
         fill="#d2d5c2"
         id="id-77321" />
      <path
         d="m 572,366 24,-5 v -7 l -30,2 c 4,7 6,10 6,10 z"
         fill="#d8e2d1"
         id="id-77322" />
      <path
         d="m 574,312 c 9,-18 13,-27 13,-27 -16,5 -24,7 -24,7 l -44,31 -2,3 c 38,-9 57,-14 57,-14 z"
         fill="#ddd3c6"
         id="id-77323" />
      <path
         d="m 503,208 c 38,13 57,20 57,20 4,-11 6,-17 7,-21 -9,11 -18,8 -54,-5 l -3,-22 c -5,19 -7,28 -7,28 z"
         fill="#dcd1c4"
         id="id-77324" />
      <path
         d="m 517,203 43,-25 -52,-118 -5,1 16,30 -22,71 v 1 l 24,-20 -11,37 3,22 c 3,1 4,1 4,1 z"
         fill="#cdc1b3"
         id="id-77325" />
      <path
         d="m 537,191 c 14,7 21,10 21,10 12,-5 18,-8 18,-8 -9,-5 -14,-8 -14,-8 l -15,-35 c -7,27 -10,41 -10,41 z"
         fill="#a08f85"
         id="id-77326" />
      <path
         d="m 540,138 c -5,-10 -8,-16 -8,-16 l 28,-3 c -13,13 -20,19 -20,19 z"
         fill="#76392a"
         id="id-77327" />
      <path
         d="m 536,192 c 19,1 28,1 28,1 l 16,-9 -20,-6 z"
         fill="#dcd1c4"
         id="id-77328" />
      <path
         d="m 491,129 c -5,32 -7,48 -7,48 l -7,113 c 1,3 2,5 2,5 l 1,-9 20,54 16,-51 -4,-21 -24,-10 26,-108 -17,16 c -4,-25 -6,-37 -6,-37 z"
         fill="#9d8b80"
         id="id-77329" />
      <path
         d="m 489,481 c 76,-49 114,-74 114,-74 18,24 27,36 27,36 0,2 0,3 0,3 -22,-19 -32,-28 -32,-28 -64,58 -95,86 -95,86 l 3,16 -6,-13 -4,-12 c -5,-9 -7,-14 -7,-14 z"
         fill="#cdc1b3"
         id="id-77330" />
      <path
         d="m 574,451 c 12,-11 19,-16 19,-16 4,7 6,10 6,10 l -7,18 c -12,-8 -18,-12 -18,-12 z m 23,23 c -2,-3 -3,-5 -3,-5 l 7,-3 c -3,5 -4,8 -4,8 z m 20,-28 6,12 c -9,5 -14,8 -14,8 -2,-3 -4,-5 -5,-7 v -1 c -1,0 -1,-1 -1,-1 v -1 c 0,0 -1,0 -1,0 v 0 c 0,-1 0,-1 -1,-1 v -1 c 0,0 0,0 0,0 v 0 c 0,0 0,0 0,0 v 0 c 0,0 0,0 0,0 11,-5 16,-8 16,-8 z m 1,-6 c -4,5 -7,7 -7,7 -3,-4 -5,-7 -5,-7 z m 9,-5 c -1,7 -1,11 -1,11 v 0 0 c -3,-1 -4,-2 -4,-2 z m -35,-11 c 7,-2 10,-2 10,-2 l -6,-7 c -2,6 -4,9 -4,9 z m 16,10 c -1,-2 -1,-3 -1,-3 h 4 c -2,2 -3,3 -3,3 z m 7,-8 c -2,-3 -4,-4 -4,-4 l 6,-5 c -1,6 -2,9 -2,9 z m -43,63 c 1,-3 2,-4 2,-4 l 3,2 c -3,1 -5,2 -5,2 z"
         fill="#dbb99f"
         id="path57" />
      <path
         d="m 548,505 c 17,-22 26,-33 26,-33 16,2 24,4 24,4 -6,2 -9,4 -9,4 -9,16 -14,33 -18,51 l -20,-4 c -2,-15 -3,-22 -3,-22 z"
         fill="#978073"
         id="id-77332" />
      <path
         d="m 578,512 c -12,-8 -18,-12 -18,-12 9,-13 14,-20 14,-20 h 16 c -8,21 -12,32 -12,32 z"
         fill="#d3d5c2"
         id="id-77333" />
      <path
         d="m 600,469 c 1,7 1,11 1,14 -1,69 -2,101 -2,101 1,1 1,2 1,2 l 10,-123 c -6,4 -10,6 -10,6 z"
         fill="#a49588"
         id="id-77334" />
      <path
         d="m 100,550 c 6,-21 8,-31 8,-31 6,-14 10,-21 10,-21 6,-12 12,-25 23,-35 6,-3 15,-8 21,-9 -13,-4 -19,-6 -19,-6 -24,-14 -35,-21 -35,-21 -2,-3 -3,-4 -3,-4 -12,-2 -18,-2 -18,-2 -11,2 -17,3 -17,3 -32,5 -48,7 -48,7 37,-14 56,-21 56,-21 2,-10 3,-15 3,-15 -22,0 -33,1 -33,1 l -6,-31 -31,39 -11,13 9,16 c -2,18 -3,26 -3,26 2,2 2,2 2,2 22,-9 33,-13 33,-13 -2,21 -3,32 -3,32 l -1,24 11,-10 32,26 c 13,20 20,30 20,30 z"
         fill="url(#id-77295)"
         id="id-77335"
         style="fill:url(#id-77295)" />
      <path
         d="m 100,550 c 1,-7 1,-11 1,-11 4,-15 6,-23 6,-23 12,-26 19,-39 19,-39 l 13,-15 19,-9 4,1 c -6,1 -13,4 -21,9 -10,9 -17,21 -23,35 l -10,21 c -5,21 -8,31 -8,31 z"
         fill="#896c62"
         id="id-77336" />
      <path
         d="m 99,530 c 0,0 0,0 0,0 v 0 c 0,1 0,3 0,7 0,0 0,0 -1,0 v 0 c 0,-1 -1,-2 -2,-4 h -1 c 0,0 0,0 0,-1 v 0 z m -12,-4 c 0,0 2,1 4,2 0,0 0,3 0,8 0,0 -1,-1 -3,-3 v 0 z m 4,1 c 3,1 5,2 5,2 -2,1 -3,2 -3,2 z m -11,-7 c 2,-3 3,-5 3,-5 l -9,1 z m -50,10 c -2,1 -2,1 -2,1 -1,-4 -1,-6 -1,-6 l 4,2 c -1,2 -1,3 -1,3 z"
         fill="#d9b89e"
         id="path64" />
      <path
         d="m 8,461 c 17,-18 25,-27 25,-27 l -25,1 -2,24 c 2,2 2,2 2,2 z"
         fill="#ffffff"
         id="id-77338" />
      <path
         d="M 114,501 C 59,454 32,430 32,430 c 26,-4 38,-6 38,-6 l 58,51 -2,2 c -8,16 -12,24 -12,24 z"
         fill="#b9ab9d"
         id="id-77339" />
      <path
         d="m 0,417 c 1,2 1,3 1,3 23,-22 34,-33 34,-33 -8,2 -13,3 -13,3 11,-47 17,-70 17,-70 v -20 l -2,14 -26,90 C 4,413 0,417 0,417 Z"
         fill="#ffffff"
         id="id-77340" />
      <path
         d="m 105,423 c -4,-10 -6,-14 -6,-14 6,-6 9,-10 9,-10 -14,-3 -21,-5 -21,-5 L 41,356 v 9 l 7,31 33,-1 -3,15 -56,21 65,-10 c 12,1 18,2 18,2 z"
         fill="#937c6f"
         id="id-77341" />
      <path
         d="m 108,399 c 8,2 12,2 12,2 11,-15 17,-23 17,-23 0,-1 0,-2 0,-2 -24,5 -37,7 -37,7 C 63,362 44,351 44,351 l 1,7 42,36 c 14,4 21,5 21,5 z"
         fill="#a7988c"
         id="id-77342" />
      <path
         d="M 99,353 C 73,314 60,294 60,294 c -12,2 -18,3 -18,3 1,4 2,6 2,6 -5,-5 -7,-7 -7,-7 -15,11 -22,17 -22,17 16,-22 24,-33 24,-33 l 1,7 3,-9 13,-15 -6,-17 c 32,71 49,107 49,107 z"
         fill="#a99a8b"
         id="id-77343" />
      <path
         d="M 103,294 C 70,258 53,240 53,240 c 6,-15 9,-23 9,-23 l 36,42 c 4,24 5,35 5,35 z"
         fill="#c6bbac"
         id="id-77344" />
      <path
         d="m 50,246 c 17,-3 26,-4 26,-4 -8,-18 -12,-27 -12,-27 5,-13 7,-19 7,-19 3,0 4,0 4,0 13,-56 20,-84 20,-84 -17,56 -25,84 -25,84 l -22,47 c 2,2 2,3 2,3 z"
         fill="#ffffff"
         id="id-77345" />
      <path
         d="M 101,265 C 78,236 66,222 66,222 l 15,-2 c 13,30 20,45 20,45 z"
         fill="#9f8e81"
         id="id-77346" />
      <path
         d="M 106,213 C 83,200 72,194 72,194 l 18,-64 c 11,55 16,83 16,83 z"
         fill="#9d8d7f"
         id="id-77347" />
      <path
         d="m 79,224 -2,-4 h 4 c -2,3 -2,4 -2,4 z m 20,-19 c -4,3 -6,4 -6,4 l -5,-4 c 7,0 11,0 11,0 z m 19,16 c -4,0 -5,0 -5,0 v -8 c 3,6 5,8 5,8 z m -9,-28 c -9,3 -13,4 -13,4 l -1,-15 c 9,8 14,11 14,11 z m -22,0 c -5,0 -7,-1 -7,-1 l 1,-7 c 4,5 6,8 6,8 z m 14,-22 c 0,7 -1,11 -1,11 -3,-4 -5,-6 -5,-6 z m 6,-7 19,3 c 0,0 -2,4 -7,13 v 0 0 c 0,0 0,0 0,0 v 0 c 0,0 0,0 0,0 v 0 c -1,0 -7,0 -17,0 0,0 2,-6 5,-16 z m 2,-45 3,30 c -12,15 -18,22 -18,22 10,-35 15,-52 15,-52 z m 9,25 7,13 c -1,3 -2,5 -2,6 v 0 c 0,1 0,1 0,1 -10,-5 -15,-7 -15,-7 7,-8 10,-13 10,-13 z m 10,11 c 1,4 2,6 2,6 14,-1 21,-1 21,-1 -9,-7 -14,-11 -14,-11 l -5,10 c -3,-3 -4,-4 -4,-4 z m 9,16 c 3,5 5,8 5,8 l 8,-6 c -9,-1 -13,-2 -13,-2 z m 2,38 c -10,-3 -15,-5 -15,-5 v -14 c 10,13 15,19 15,19 z m 3,-16 c 8,0 12,0 12,0 l -11,-10 c 0,7 -1,10 -1,10 z m 20,-48 c -6,2 -9,3 -9,3 l -3,-9 c 8,4 12,6 12,6 z"
         fill="#dab99f"
         id="path76" />
      <path
         d="m 79,177 c 6,0 8,0 8,0 9,-27 14,-40 14,-40 l -13,4 c -6,24 -9,36 -9,36 z"
         fill="#dab99f"
         id="id-77349" />
      <path
         d="m 155,360 c -5,-7 -8,-10 -8,-10 -3,-4 -4,-6 -4,-6 -5,-11 -8,-16 -8,-16 -5,-30 -7,-45 -7,-45 -5,-69 -7,-104 -7,-104 l 8,54 c 17,85 26,127 26,127 z"
         fill="#8a7367"
         id="id-77350" />
      <path
         d="m 181,269 c -21,-2 -32,-2 -32,-2 l 29,-22 c 2,16 3,24 3,24 z"
         fill="#8d776a"
         id="id-77351" />
      <path
         d="m 185,345 c 11,-1 16,-1 16,-1 -7,-23 -11,-35 -11,-35 C 171,203 162,140 164,120 l 1,79 c 14,98 20,146 20,146 z"
         fill="#a6978a"
         id="id-77352" />
      <path
         d="m 100,383 c 5,-26 7,-38 7,-38 l 27,-20 3,51 c -24,5 -37,7 -37,7 z"
         fill="#c2b7a8"
         id="id-77353" />
      <polygon
         points="135,328 136,353 143,344 "
         fill="#121e26"
         id="id-77354" />
      <path
         d="m 28,370 46,-47 -14,-29 -18,3 2,6 -5,-4 v 21 c -8,33 -11,50 -11,50 z"
         fill="#c2b7a8"
         id="id-77355" />
      <path
         d="m 143,344 c 9,14 14,21 14,21 -3,8 -4,12 -4,12 29,-1 43,-2 43,-2 l -46,-39 5,24 c -8,-11 -12,-16 -12,-16 z"
         fill="#16222a"
         id="id-77356" />
      <path
         d="m 204,59 24,72 13,-129 -8,7 -20,38 c -6,8 -9,12 -9,12 z"
         fill="#bfb2a4"
         id="id-77357" />
      <path
         d="m 231,131 c -17,14 -26,21 -26,21 13,9 19,13 19,13 -5,7 -8,11 -8,11 8,4 12,5 12,5 v -20 c 2,-20 3,-30 3,-30 z"
         fill="#121e25"
         id="id-77358" />
      <path
         d="m 372,162 c 45,-26 67,-39 67,-39 L 388,98 c 28,-4 42,-5 42,-5 L 394,51 393,31 372,0 Z"
         fill="#c2b5a6"
         id="id-77359" />
      <path
         d="M 401,60 372,50 V 0 l 21,31 1,20 c 5,6 7,9 7,9 z"
         fill="#baada0"
         id="id-77360" />
      <path
         d="m 384,275 c -23,-16 -35,-24 -35,-24 l -4,82 24,3 c 10,-41 15,-61 15,-61 z"
         fill="#c1b4a7"
         id="id-77361" />
      <path
         d="m 362,277 c -11,10 -17,16 -17,16 l 2,-25 c 10,6 15,9 15,9 z"
         fill="#937c6f"
         id="id-77362" />
      <path
         d="m 347,247 c 31,0 46,0 46,0 1,-2 1,-4 1,-4 l -46,-6 c -1,7 -1,10 -1,10 z"
         fill="#937c6f"
         id="id-77363" />
      <path
         d="m 415,354 c -8,-23 -11,-35 -11,-35 12,-88 17,-131 17,-131 6,-20 9,-29 9,-29 40,-28 60,-42 60,-42 l -54,189 c -14,32 -21,48 -21,48 z"
         fill="#d8cebf"
         id="id-77364" />
      <path
         d="m 426,115 45,-18 c 21,-23 32,-35 32,-35 l -11,54 c -41,28 -62,43 -62,43 l 11,-35 c -10,-6 -15,-9 -15,-9 z"
         fill="#cdc1b3"
         id="id-77365" />
      <path
         d="m 431,95 -27,11 -16,-8 c 29,-2 43,-3 43,-3 z"
         fill="#9b877b"
         id="id-77366" />
      <path
         d="m 187,105 c -16,-3 -25,-4 -25,-4 l 10,13 c 10,-6 15,-9 15,-9 z"
         fill="#a7988c"
         id="id-77367" />
      <path
         d="m 170,100 c -4,0 -7,0 -7,0 28,-31 43,-47 43,-47 0,-2 1,-3 1,-3 -62,29 -94,44 -94,44 l -2,-16 c 3,4 5,6 5,6 l 95,-37 c 15,-25 22,-38 22,-38 4,-4 6,-6 6,-6 l 3,5 c -19,26 -29,39 -29,39 l -3,8 c -27,30 -40,45 -40,45 z"
         fill="#ffffff"
         id="id-77368" />
      <path
         d="m 206,53 -75,44 c -12,-2 -18,-3 -18,-3 l 69,-34 25,-10 c -1,2 -1,3 -1,3 z"
         fill="#f7f5df"
         id="id-77369" />
      <path
         d="m 83,165 c 10,0 16,1 16,1 l -4,-54 c -8,35 -12,53 -12,53 z"
         fill="#f9f6e1"
         id="id-77370" />
      <path
         d="m 100,550 8,-30 10,-22 c 6,-14 14,-26 23,-35 7,-4 14,-8 21,-9 l 9,47 -4,23 -8,7 -22,-1 z"
         fill="#5b4954"
         id="id-77371" />
      <path
         d="m 91,656 9,-106 C 87,530 80,520 80,520 l 11,20 z"
         fill="#a49588"
         id="id-77372" />
      <path
         d="m 445,405 -28,27 24,77 c 30,18 46,27 46,27 l 9,-5 1,-6 14,4 -11,-22 -4,-12 -17,-30 -23,-34 z"
         fill="#5b4854"
         id="id-77373" />
      <path
         d="m 456,431 c -5,-13 -8,-19 -8,-19 20,5 30,7 30,7 l 1,2 c -16,7 -23,10 -23,10 z"
         fill="#17232c"
         id="id-77374" />
      <path
         d="m 445,405 c 25,-29 38,-44 38,-44 l -12,16 8,42 -31,-7 c -2,-5 -3,-7 -3,-7 z"
         fill="#1e2a36"
         id="id-77375" />
      <path
         d="m 435,410 c 15,-19 34,-34 45,-55 h -63 c 1,22 7,40 18,55 z"
         fill="#222f39"
         id="id-77376" />
      <path
         d="m 380,342 6,-73 -17,67 c 7,4 11,6 11,6 z"
         fill="#937c6f"
         id="id-77377" />
      <path
         d="m 305,1108 c -7,14 -10,21 -10,21 -28,1 -42,1 -42,1 l -8,-39 7,56 h 57 l 2,-7 c -4,-21 -6,-32 -6,-32 z"
         fill="#a7988c"
         id="id-77378" />
      <polygon
         points="279,1067 235,981 239,1046 245,1091 253,1130 295,1129 "
         fill="#c6c2b0"
         id="id-77379" />
      <path
         d="m 263,1071 c 10,16 15,23 15,23 17,-71 26,-106 26,-106 l -2,-12 c -26,64 -39,95 -39,95 z"
         fill="#c5c0af"
         id="id-77380" />
      <path
         d="m 364,770 c 14,-9 22,-14 22,-14 l 22,36 -11,5 z"
         fill="#91796e"
         id="id-77381" />
      <path
         d="m 243,9 -12,122 c -2,20 -3,30 -3,30 0,43 0,64 0,64 3,28 5,42 5,42 l 5,72 c 72,-4 107,-6 107,-6 4,-63 5,-95 5,-95 11,-151 17,-227 17,-227 -3,5 -4,7 -4,7 -20,14 -42,29 -69,44 l -2,-4 C 274,43 259,26 243,9 Z"
         fill="#2b2c31"
         id="id-77382" />
      <path
         d="m 255,22 c -14,33 -20,49 -20,49 l 24,-1 33,-12 C 278,48 266,36 255,22 Z"
         fill="#4c4c4c"
         id="id-77383" />
      <path
         d="m 331,100 c 13,-10 19,-15 19,-15 1,-5 5,-10 11,-15 1,-6 1,-9 1,-9 C 351,40 346,30 346,30 l -41,26 c 17,29 26,44 26,44 z"
         fill="#4b4b4b"
         id="id-77384" />
      <path
         d="m 236,73 c 14,19 21,29 21,29 l 33,-43 -31,11 c -15,2 -23,3 -23,3 z"
         fill="#595a5c"
         id="id-77385" />
      <path
         d="m 306,58 c 17,28 25,42 25,42 9,-9 19,-17 26,-27 -14,-1 -31,-7 -51,-15 z"
         fill="#545557"
         id="id-77386" />
      <path
         d="m 243,107 -10,160 5,72 c 72,-4 107,-6 107,-6 2,-44 3,-66 3,-66 -1,-98 -1,-147 -1,-147 -19,-12 -28,-17 -28,-17 -19,40 -28,60 -28,60 0,0 -22,-55 -22,-55 l -5,3 c -14,-2 -21,-4 -21,-4 z"
         fill="#464646"
         id="id-77387" />
      <path
         d="m 232,236 c 7,-17 11,-25 11,-25 l 10,16 c -14,6 -21,9 -21,9 z"
         fill="#38393b"
         id="id-77388" />
      <path
         d="m 234,288 c 0,-3 0,-5 0,-5 4,-8 6,-12 6,-12 l 19,11 c -16,4 -25,6 -25,6 z"
         fill="#38393b"
         id="id-77389" />
      <path
         d="m 247,301 c 10,5 16,8 16,8 l 5,-9 c -14,1 -21,1 -21,1 z"
         fill="#38393b"
         id="id-77390" />
      <path
         d="m 288,296 c -15,-10 -23,-15 -23,-15 l 9,-16 c 10,21 14,31 14,31 z"
         fill="#38393b"
         id="id-77391" />
      <path
         d="m 308,314 c -7,-12 -10,-18 -10,-18 l 6,-11 c 3,19 4,29 4,29 z"
         fill="#38393b"
         id="id-77392" />
      <path
         d="m 326,321 c -7,-1 -11,-2 -11,-2 l 2,-12 c 6,9 9,14 9,14 z"
         fill="#38393b"
         id="id-77393" />
      <path
         d="m 328,314 c -8,-16 -13,-24 -13,-24 18,-13 27,-19 27,-19 4,10 6,15 6,15 l -1,10 c -12,12 -19,18 -19,18 z"
         fill="#38393b"
         id="id-77394" />
      <path
         d="m 334,271 c -18,6 -27,9 -27,9 10,-16 15,-24 15,-24 0,2 0,3 0,3 l 7,1 c 3,7 5,11 5,11 z"
         fill="#38393b"
         id="id-77395" />
      <path
         d="m 325,250 c 9,5 14,8 14,8 6,-6 9,-9 9,-9 v -15 h -15 l -3,5 1,1 c -4,6 -6,10 -6,10 z"
         fill="#38393b"
         id="id-77396" />
      <path
         d="m 331,224 c 6,-21 9,-32 9,-32 l 8,7 -1,-79 c -19,-12 -28,-17 -28,-17 l -8,17 c 13,69 20,104 20,104 z"
         fill="#38393b"
         id="id-77397" />
      <path
         d="m 352,215 c -10,-5 -14,-7 -14,-7 l 15,-4 c -1,7 -1,11 -1,11 z"
         fill="#38393b"
         id="id-77398" />
      <path
         d="m 279,337 c -6,-13 -9,-20 -9,-20 18,-9 27,-13 27,-13 l 12,31 c -20,1 -30,2 -30,2 z"
         fill="#38393b"
         id="id-77399" />
      <path
         d="m 259,338 c 8,-6 12,-9 12,-9 l -12,-11 c 0,13 0,20 0,20 z"
         fill="#38393b"
         id="id-77400" />
      <path
         d="m 241,338 c -1,-4 -1,-6 -1,-6 l 6,3 c -3,2 -5,3 -5,3 z"
         fill="#38393b"
         id="id-77401" />
      <path
         d="m 347,120 c 2,1 3,2 3,2 l 7,29 -4,53 -5,2 c -1,-57 -1,-86 -1,-86 z"
         fill="#2e2f33"
         id="id-77402" />
      <path
         d="m 124,765 c 8,1 12,2 12,2 0,12 0,18 0,18 18,82 30,138 36,168 14,90 21,124 24,142 4,-9 7,-14 7,-14 -3,32 -5,48 -5,48 -8,4 -12,6 -12,6 -1,-1 -1,-2 -1,-2 6,-17 9,-25 9,-25 -8,-56 -13,-85 -13,-85 -19,-78 -37,-157 -55,-238 -2,-8 -2,-20 -2,-20 z"
         fill="#888ec1"
         id="id-77403" />
      <polygon
         points="376,654 392,695 316,685 328,706 191,685 175,712 181,684 181,652 "
         fill="#5b4854"
         id="id-77404" />
    </g>
    <g
       transform="translate(135,165)"
       id="id-77405">
      <g
         transform="translate(1,162)"
         id="id-77406">
        <path
           d="M 311,335 C 104,337 1,337 1,337 0,335 0,334 0,334 l 312,-2 c -1,2 -1,3 -1,3 z"
           fill="#2e1e01"
           id="id-77407" />
        <path
           d="M 310,332 C 104,333 0,334 0,334 5,300 7,283 7,283 l 303,3 z"
           fill="#72571f"
           id="id-77408" />
        <path
           d="M 310,325 C 104,327 1,328 1,328 4,303 5,291 5,291 l 305,3 c 0,20 0,31 0,31 z"
           fill="#91856c"
           id="id-77409" />
        <path
           d="m 29,327 c -2,-3 -2,-5 -2,-5 l 9,-30 -31,-1 -4,36 c 19,0 28,0 28,0 z"
           fill="#5b4c2f"
           id="id-77410" />
        <path
           d="m 23,334 -2,-6 -20,-1 -1,7 c 15,0 23,0 23,0 z"
           fill="#533c10"
           id="id-77411" />
        <path
           d="m 7,283 c 4,-5 6,-8 6,-8 1,-30 1,-44 1,-44 6,-7 9,-10 9,-10 l 285,-2 2,66 C 108,284 7,283 7,283 Z"
           fill="#4b3d4b"
           id="id-77412" />
        <path
           d="m 13,275 c 183,0 274,-1 274,-1 15,2 23,2 23,2 l -1,-44 -295,-1 c -1,29 -1,44 -1,44 z"
           fill="#614935"
           id="id-77413" />
        <path
           d="m 18,275 c 3,-11 4,-16 4,-16 50,-2 75,-3 75,-3 -50,-1 -75,-2 -75,-2 4,-12 5,-17 5,-17 172,-1 258,-1 258,-1 2,11 3,16 3,16 -19,2 -29,3 -29,3 l 1,4 c 13,-1 22,-2 27,-1 l -2,16 c -178,1 -267,1 -267,1 z"
           fill="#7d6552"
           id="id-77414" />
        <path
           d="m 18,227 c 181,1 271,1 271,1 v -8 l 19,-1 1,13 -295,-1 c 3,-3 4,-4 4,-4 z"
           fill="#3e2f3b"
           id="id-77415" />
        <path
           d="m 230,307 c 10,-11 16,-16 16,-16 11,10 17,15 17,15 -1,-42 -2,-64 -2,-64 l -32,1 c 1,42 1,64 1,64 z"
           fill="#7d3c2f"
           id="id-77416" />
        <path
           d="m 229,250 33,-1 -1,-7 -32,1 c 0,5 0,7 0,7 z"
           fill="#9d594b"
           id="id-77417" />
        <path
           d="m 310,285 c -16,0 -25,0 -25,0 l 4,-10 21,1 c 0,6 0,9 0,9 z"
           fill="#3c2e3c"
           id="id-77418" />
        <path
           d="m 32,221 c -1,-21 -1,-31 -1,-31 2,-11 4,-16 4,-16 156,0 234,-1 234,-1 24,1 36,2 36,2 -2,30 -2,44 -2,44 h -33 c -159,1 -238,2 -238,2 z"
           fill="#466e87"
           id="id-77419" />
        <path
           d="m 269,219 v -45 l 36,1 -2,44 c -23,0 -34,0 -34,0 z"
           fill="#2e4f5a"
           id="id-77420" />
        <path
           d="m 303,213 c -31,-1 -46,-2 -46,-2 -146,3 -218,4 -218,4 -2,-12 -4,-18 -4,-18 5,-11 7,-16 7,-16 151,0 227,0 227,0 l 36,2 c -1,20 -2,30 -2,30 z"
           fill="#706547"
           id="id-77421" />
        <path
           d="m 257,211 c 0,-13 0,-20 0,-20 -39,-2 -58,-3 -58,-3 38,0 58,0 58,0 0,-2 0,-2 0,-2 l -217,-1 -5,13 4,17 c 145,-2 218,-4 218,-4 z"
           fill="#91856c"
           id="id-77422" />
        <path
           d="m 47,206 c -2,-3 -3,-5 -3,-5 l 77,2 c -49,2 -74,3 -74,3 z"
           fill="#6f6446"
           id="id-77423" />
        <polygon
           points="42,181 42,214 35,197 "
           fill="#251515"
           id="id-77424" />
        <path
           d="m 22,132 -4,13 v 18 l 5,8 6,3 c 160,0 240,-1 240,-1 22,1 33,1 33,1 0,-20 0,-31 0,-31 4,-1 6,-1 6,-1 -6,-8 -9,-12 -9,-12 -1,-16 -1,-24 -1,-24 6,-2 8,-4 8,-4 C 265,87 244,80 244,80 87,82 9,83 9,83 c 5,26 8,39 8,39 l 9,-1 z"
           fill="#4a4b4c"
           id="id-77425" />
        <path
           d="m 262,165 v -15 l -239,-2 6,17 c 155,0 233,0 233,0 z"
           fill="#757677"
           id="id-77426" />
        <path
           d="m 35,174 c -4,0 -6,0 -6,0 -4,-2 -6,-3 -6,-3 -3,-6 -4,-9 -4,-9 -1,-11 -1,-17 -1,-17 2,-9 4,-13 4,-13 6,0 9,0 9,0 -6,11 -8,16 -8,16 4,11 6,17 6,17 157,0 235,0 235,0 v 8 c -153,1 -229,1 -229,1 z"
           fill="#4f7e99"
           id="id-77427" />
        <path
           d="m 22,132 248,-3 c 25,9 38,13 38,13 -1,-6 -1,-8 -1,-8 -6,-6 -27,-9 -40,-14 -166,0 -249,0 -249,0 C 14,96 12,85 12,85 8,83 7,83 7,83 c 1,24 2,36 2,36 -2,3 -3,5 -3,5 2,2 3,3 3,3 h 15"
           fill="#873e2d"
           id="id-77428" />
        <path
           d="m 244,96 -3,24 H 18 c -2,-12 -3,-17 -3,-17 152,-5 229,-7 229,-7 z m -47,8 c 0,0 -31,1 -94,2 0,0 20,1 59,3 v 0 z"
           fill="#78797a"
           id="path157" />
        <path
           d="m 306,102 c 0,-5 0,-7 0,-7 l -59,-22 -3,7 c 42,15 62,22 62,22 z"
           fill="#7e3d30"
           id="id-77430" />
        <path
           d="M 244,80 C 87,82 9,83 9,83 7,80 6,79 6,79 l 7,-3 234,-3 z"
           fill="#c37161"
           id="id-77431" />
        <path
           d="m 13,77 c -3,-3 -5,-5 -5,-5 3,-16 4,-24 4,-24 160,-1 240,-2 240,-2 20,9 30,13 30,13 14,8 21,12 21,12 l -1,18 4,5 -59,-21 C 91,75 13,77 13,77 Z"
           fill="#5d4137"
           id="id-77432" />
        <path
           d="m 15,58 c 0,9 0,13 0,13 157,-1 236,-1 236,-1 23,9 35,14 35,14 0,-11 1,-16 1,-16 L 251,50 C 94,55 15,58 15,58 Z"
           fill="#a4977c"
           id="id-77433" />
        <path
           d="m 111,79 c 40,-21 60,-32 60,-32 -66,0 -99,-1 -99,-1 0,3 1,4 1,4 l 7,9 c 20,13 31,20 31,20 z"
           fill="#cfc6b4"
           id="id-77434" />
        <path
           d="m 151,63 c 66,-4 99,-6 99,-6 l -1,-3 2,-4 36,18 -1,16 C 262,75 251,70 251,70 V 64 C 184,63 151,63 151,63 Z"
           fill="#766b4b"
           id="id-77435" />
        <path
           d="m 305,175 -41,-2 c 0,-5 0,-8 0,-8 l 41,7 c 0,2 0,3 0,3 z"
           fill="#6c8584"
           id="id-77436" />
        <polygon
           points="286,84 306,94 302,89 303,71 281,59 287,68 "
           fill="#534a2b"
           id="id-77437" />
        <path
           d="m 306,75 c 2,-1 3,-1 3,-1 0,-2 0,-4 0,-4 L 271,52 c 23,15 35,23 35,23 z"
           fill="#716647"
           id="id-77438" />
        <path
           d="m 298,65 c 0,-4 0,-5 0,-5 10,0 16,0 16,0 -1,-4 -1,-6 -1,-6 -3,-1 -5,-2 -5,-2 0,-3 0,-5 0,-5 3,-3 5,-4 5,-4 -12,-4 -18,-5 -18,-5 -1,-2 -1,-3 -1,-3 -128,0 -193,0 -193,0 0,4 0,7 0,7 118,1 177,2 177,2 v 12 c 13,6 20,9 20,9 z"
           fill="#494a4b"
           id="id-77439" />
        <path
           d="m 91,46 3,-17 200,-1 v 7 C 166,35 101,35 101,35 V 47 C 95,47 91,46 91,46 Z"
           fill="#b3cba6"
           id="id-77440" />
        <path
           d="m 313,43 c 1,-2 1,-3 1,-3 l -19,-6 v 3 c 12,4 18,6 18,6 z"
           fill="#d8d8d8"
           id="id-77441" />
        <path
           d="m 101,47 v -6 c 118,2 177,3 177,3 l 1,14 -27,-12 z"
           fill="#a9a398"
           id="id-77442" />
        <path
           d="M 61,48 C 43,42 34,39 34,39 34,25 34,17 34,17 L 217,0 279,28 94,29 91,47 c -20,0 -30,1 -30,1 z"
           fill="#380102"
           id="id-77443" />
        <path
           d="m 40,33 c 0,-6 0,-9 0,-9 C 155,13 213,8 213,8 249,21 267,28 267,28 152,29 94,29 94,29 l -1,4 c -35,0 -53,0 -53,0 z"
           fill="#bfbbaf"
           id="id-77444" />
        <path
           d="m 218,27 c 2,-2 2,-3 2,-3 -2,-2 -4,-3 -4,-3 l -1,-12 52,19 c -33,-1 -49,-1 -49,-1 z"
           fill="#979383"
           id="id-77445" />
        <path
           d="m 262,275 c 5,-1 7,-1 7,-1 l -5,-28 -3,-4 c 1,22 1,33 1,33 z"
           fill="#422c17"
           id="id-77446" />
      </g>
      <g
         transform="rotate(-4,232.27251,-3179.8966)"
         id="id-77447">
        <path
           d="m 0,26 c 0,55 0,82 0,82 83,0 124,0 124,0 V 26 C 41,26 0,26 0,26 Z"
           fill="#b4a586"
           id="id-77448" />
        <path
           d="m 5,31 c 0,0 0,0 1,0 v 0 c 1,0 1,0 1,0 h 1 c 0,0 0,0 1,0 v 0 c 1,0 2,0 2,0 h 1 c 16,0 52,0 108,0 v 0 72 0 0 c 0,0 -1,0 -1,0 h -1 c 0,0 0,0 0,0 h -1 c 0,0 0,0 0,0 h -2 c 0,0 0,0 0,0 h -1 c -14,0 -50,0 -110,0 v 0 0 c 0,0 0,0 0,0 v -1 c 0,0 0,0 0,0 v 0 C 4,96 4,72 4,31 v 0 z m 3,3 H 7 v 0 c 0,41 0,63 0,66 v 0 c 0,1 0,1 0,1 v 0 0 c 71,0 107,0 110,0 v 0 c 0,0 0,0 0,0 V 34 c -48,0 -81,0 -97,0 h -2 c 0,0 -1,0 -2,0 h -1 c 0,0 0,0 0,0 h -2 c 0,0 0,0 0,0 h -2 c 0,0 0,0 0,0 H 10 C 9,34 9,34 9,34 H 8 c 0,0 0,0 0,0 z"
           fill="#4d4f77"
           id="path178" />
        <path
           d="m 42,23 c 0,9 0,13 0,13 28,0 42,0 42,0 V 23 c -28,0 -42,0 -42,0 z"
           fill="#4c4f77"
           id="id-77450" />
        <path
           d="m 66,3 7,21 c -13,0 -21,0 -22,0 v 0 c 0,0 0,0 0,0 v 0 0 c 0,-1 0,-2 1,-3 v -1 c 1,-4 2,-8 3,-10 V 9 C 56,7 56,6 56,5 V 5 C 57,4 57,4 57,4 V 3 c 0,0 0,0 0,0 v 0 c 0,0 0,0 0,0 2,-3 5,-5 9,0 z m -5,3 c -3,3 -4,4 -4,4 v 0 0 c 3,3 4,4 4,4 l 3,-4 C 62,7 61,6 61,6 Z"
           fill="#bacdf6"
           id="path181" />
        <path
           d="m 53,16 16,-2 4,10 H 51 c 1,-5 2,-8 2,-8 z"
           fill="#a6a5dd"
           id="id-77452" />
        <path
           d="m 8,77 c 71,0 107,0 107,0 0,15 0,23 0,23 H 8 C 8,84 8,77 8,77 Z"
           fill="#e0d5c5"
           id="id-77453" />
        <path
           d="m 45,50 v -5 h 4 v 5 h 2 V 38 h -2 v 4 h -4 v -4 h -2 v 12 z m 14,0 v -3 h -4 v -2 h 3 v -3 h -3 v -2 h 4 v -2 h -6 v 12 z m 7,0 v -3 h -3 v -9 h -3 v 12 z m 7,0 v -3 h -3 v -9 h -3 v 12 z m 5,0 c 1,0 2,0 2,0 1,-1 2,-2 2,-2 0,-1 1,-1 1,-2 0,-1 0,-2 0,-2 0,-1 0,-2 0,-3 0,-1 -1,-1 -1,-2 -1,-1 -1,-1 -2,-1 0,-1 -1,-1 -2,-1 0,0 -1,0 -1,1 -1,0 -2,0 -2,1 0,1 -1,1 -1,2 0,1 0,2 0,3 0,1 0,1 0,2 0,1 1,2 1,2 0,1 1,1 2,2 0,0 1,0 1,0 z m 0,-3 c 0,0 -1,0 -1,-1 -1,0 -1,-1 -1,-2 0,-1 0,-2 1,-3 0,-1 1,-1 1,-1 1,0 2,0 2,1 1,1 1,2 1,3 0,1 0,2 -1,2 0,1 -1,1 -2,1 z m -52,23 2,-6 1,6 h 2 L 29,57 v 0 l -3,8 -4,-8 v 0 l -2,13 h 2 l 1,-6 z m 11,0 v -6 l 3,-6 h -2 l -2,3 -2,-3 h -3 l 4,6 v 6 z m 16,0 V 58 h -2 v 6 l -6,-7 v 0 13 h 2 v -7 z m 3,0 v -2 h 4 l 1,2 h 2 L 59,57 h -1 l -4,13 z m 4,-4 h -3 l 1,-4 z m 9,4 2,-6 1,6 h 2 L 72,57 v 0 l -3,8 -4,-8 v 0 l -2,13 h 2 l 1,-6 z m 12,0 v -3 h -3 v -2 h 3 v -3 h -3 v -2 h 3 v -2 h -5 v 12 z m 8,0 V 58 h -2 v 12 z m 5,0 c 1,0 1,0 2,-1 1,-1 1,-2 1,-3 0,-1 0,-1 0,-2 -1,0 -1,-1 -2,-2 v 0 h -1 c -1,-1 -1,-1 -1,-1 0,0 0,0 0,0 0,-1 0,-1 0,-1 0,0 1,0 1,0 0,0 1,0 1,0 0,0 1,0 1,1 v 0 -3 c 0,0 -1,-1 -1,-1 0,0 -1,0 -1,0 -1,0 -2,1 -2,1 -1,1 -1,2 -1,3 0,0 0,1 0,2 1,0 1,1 2,1 v 0 1 c 0,0 0,0 1,0 0,0 1,1 1,1 0,1 0,1 0,1 -1,0 -1,1 -1,1 -1,0 -1,-1 -2,-1 0,0 0,0 -1,-1 v 0 4 c 1,0 1,0 1,0 1,0 1,0 2,0 z m 5,0 c 1,0 1,0 1,0 0,-1 1,-1 1,-1 0,-1 -1,-1 -1,-1 0,-1 0,-1 -1,-1 0,0 0,0 0,1 0,0 -1,0 -1,1 0,0 1,0 1,1 0,0 0,0 0,0 z m 4,0 c 1,0 1,0 1,0 0,-1 0,-1 0,-1 0,-1 0,-1 0,-1 0,-1 0,-1 -1,-1 0,0 0,0 0,1 -1,0 -1,0 -1,1 0,0 0,0 1,1 0,0 0,0 0,0 z"
           fill="#4d4f77"
           id="id-77454"
           fill-rule="nonzero" />
      </g>
    </g>
  </g>
</svg>
