<?xml version="1.0" encoding="UTF-8" standalone="no"?>
<svg
   width="580.92352"
   height="889.93787"
   viewBox="0 0 580.92352 889.93787"
   version="1.1"
   id="svg236"
   sodipodi:docname="cb-layer-0853.svg"
   xmlns:inkscape="http://www.inkscape.org/namespaces/inkscape"
   xmlns:sodipodi="http://sodipodi.sourceforge.net/DTD/sodipodi-0.dtd"
   xmlns:xlink="http://www.w3.org/1999/xlink"
   xmlns="http://www.w3.org/2000/svg"
   xmlns:svg="http://www.w3.org/2000/svg">
  <sodipodi:namedview
     id="namedview238"
     pagecolor="#ffffff"
     bordercolor="#666666"
     borderopacity="1.0"
     inkscape:pageshadow="2"
     inkscape:pageopacity="0.0"
     inkscape:pagecheckerboard="0" />
  <defs
     id="defs98">
    <linearGradient
       x1="0.5"
       y1="0"
       x2="0.5"
       y2="1"
       id="id-109835">
      <stop
         stop-color="#869DCE"
         offset="0%"
         id="stop2" />
      <stop
         stop-color="#536BAA"
         offset="37%"
         id="stop4" />
      <stop
         stop-color="#E5EBF6"
         offset="100%"
         id="stop6" />
    </linearGradient>
    <linearGradient
       x1="0.5"
       y1="0"
       x2="0.5"
       y2="1"
       id="id-109836">
      <stop
         stop-color="#141B2B"
         offset="0%"
         id="stop9" />
      <stop
         stop-color="#2B2B34"
         offset="100%"
         id="stop11" />
    </linearGradient>
    <linearGradient
       x1="0.94"
       y1="0.5"
       x2="0.37"
       y2="0.88"
       id="id-109837">
      <stop
         stop-color="#5B7CA5"
         offset="0%"
         id="stop14" />
      <stop
         stop-color="#2E466C"
         offset="100%"
         id="stop16" />
    </linearGradient>
    <linearGradient
       x1="0.49000001"
       y1="0.37"
       x2="0.52999997"
       y2="0.41"
       id="id-109838">
      <stop
         stop-color="#647ABD"
         offset="0%"
         id="stop19" />
      <stop
         stop-color="#8DA2E2"
         offset="100%"
         id="stop21" />
    </linearGradient>
    <linearGradient
       x1="0.49000001"
       y1="0.37"
       x2="0.51999998"
       y2="0.41"
       id="id-109839">
      <stop
         stop-color="#647ABD"
         offset="0%"
         id="stop24" />
      <stop
         stop-color="#8DA2E2"
         offset="100%"
         id="stop26" />
    </linearGradient>
    <linearGradient
       x1="0.47999999"
       y1="0.37"
       x2="0.52999997"
       y2="0.41"
       id="id-109840">
      <stop
         stop-color="#647ABD"
         offset="0%"
         id="stop29" />
      <stop
         stop-color="#8DA2E2"
         offset="100%"
         id="stop31" />
    </linearGradient>
    <linearGradient
       x1="0.50999999"
       y1="0.039999999"
       x2="0.49000001"
       y2="0.98000002"
       id="id-109841">
      <stop
         stop-color="#292C35"
         offset="0%"
         id="stop34" />
      <stop
         stop-color="#060F1C"
         offset="100%"
         id="stop36" />
    </linearGradient>
    <linearGradient
       x1="0.5"
       y1="0.039999999"
       x2="0.5"
       y2="1"
       id="id-109842">
      <stop
         stop-color="#516792"
         offset="0%"
         id="stop39" />
      <stop
         stop-color="#334973"
         offset="47%"
         id="stop41" />
      <stop
         stop-color="#7E92D0"
         offset="100%"
         id="stop43" />
    </linearGradient>
    <linearGradient
       x1="0.5"
       y1="0"
       x2="0.5"
       y2="1"
       id="linearGradient52">
      <stop
         stop-color="#869DCE"
         offset="0%"
         id="stop46" />
      <stop
         stop-color="#536BAA"
         offset="37%"
         id="stop48" />
      <stop
         stop-color="#E5EBF6"
         offset="100%"
         id="stop50" />
    </linearGradient>
    <linearGradient
       x1="0.5"
       y1="0"
       x2="0.5"
       y2="1"
       id="linearGradient58">
      <stop
         stop-color="#141B2B"
         offset="0%"
         id="stop54" />
      <stop
         stop-color="#2B2B34"
         offset="100%"
         id="stop56" />
    </linearGradient>
    <linearGradient
       x1="0.94"
       y1="0.5"
       x2="0.37"
       y2="0.88"
       id="linearGradient64">
      <stop
         stop-color="#5B7CA5"
         offset="0%"
         id="stop60" />
      <stop
         stop-color="#2E466C"
         offset="100%"
         id="stop62" />
    </linearGradient>
    <linearGradient
       x1="0.49000001"
       y1="0.37"
       x2="0.52999997"
       y2="0.41"
       id="linearGradient70">
      <stop
         stop-color="#647ABD"
         offset="0%"
         id="stop66" />
      <stop
         stop-color="#8DA2E2"
         offset="100%"
         id="stop68" />
    </linearGradient>
    <linearGradient
       x1="0.49000001"
       y1="0.37"
       x2="0.51999998"
       y2="0.41"
       id="linearGradient76">
      <stop
         stop-color="#647ABD"
         offset="0%"
         id="stop72" />
      <stop
         stop-color="#8DA2E2"
         offset="100%"
         id="stop74" />
    </linearGradient>
    <linearGradient
       x1="0.47999999"
       y1="0.37"
       x2="0.52999997"
       y2="0.41"
       id="linearGradient82">
      <stop
         stop-color="#647ABD"
         offset="0%"
         id="stop78" />
      <stop
         stop-color="#8DA2E2"
         offset="100%"
         id="stop80" />
    </linearGradient>
    <linearGradient
       x1="0.50999999"
       y1="0.039999999"
       x2="0.49000001"
       y2="0.98000002"
       id="linearGradient88">
      <stop
         stop-color="#292C35"
         offset="0%"
         id="stop84" />
      <stop
         stop-color="#060F1C"
         offset="100%"
         id="stop86" />
    </linearGradient>
    <linearGradient
       x1="0.5"
       y1="0.039999999"
       x2="0.5"
       y2="1"
       id="linearGradient96">
      <stop
         stop-color="#516792"
         offset="0%"
         id="stop90" />
      <stop
         stop-color="#334973"
         offset="47%"
         id="stop92" />
      <stop
         stop-color="#7E92D0"
         offset="100%"
         id="stop94" />
    </linearGradient>
    <linearGradient
       inkscape:collect="always"
       xlink:href="#id-109835"
       id="linearGradient240"
       x1="148.29194"
       y1="121.34847"
       x2="148.29194"
       y2="417.93235"
       gradientTransform="scale(0.41135074,2.4310154)"
       gradientUnits="userSpaceOnUse" />
    <linearGradient
       inkscape:collect="always"
       xlink:href="#id-109836"
       id="linearGradient242"
       x1="176.03409"
       y1="0"
       x2="176.03409"
       y2="352.06818"
       gradientTransform="scale(0.34652379,2.8858047)"
       gradientUnits="userSpaceOnUse" />
    <linearGradient
       inkscape:collect="always"
       xlink:href="#id-109837"
       id="linearGradient244"
       x1="71.792156"
       y1="305.18933"
       x2="51.004732"
       y2="319.04761"
       gradientTransform="scale(0.95971487,1.0419761)"
       gradientUnits="userSpaceOnUse" />
    <linearGradient
       inkscape:collect="always"
       xlink:href="#id-109838"
       id="linearGradient246"
       x1="100.47914"
       y1="134.5048"
       x2="102.9813"
       y2="137.00696"
       gradientTransform="scale(0.68740634,1.4547436)"
       gradientUnits="userSpaceOnUse" />
    <linearGradient
       inkscape:collect="always"
       xlink:href="#id-109839"
       id="linearGradient248"
       x1="102.04153"
       y1="88.893139"
       x2="103.72045"
       y2="91.131709"
       gradientTransform="scale(0.64326752,1.5545632)"
       gradientUnits="userSpaceOnUse" />
    <linearGradient
       inkscape:collect="always"
       xlink:href="#id-109840"
       id="linearGradient250"
       x1="91.689707"
       y1="56.568356"
       x2="94.641401"
       y2="58.929711"
       gradientTransform="scale(0.69451634,1.4398509)"
       gradientUnits="userSpaceOnUse" />
    <linearGradient
       inkscape:collect="always"
       xlink:href="#id-109841"
       id="linearGradient252"
       x1="163.82038"
       y1="12.848657"
       x2="157.39606"
       y2="314.79212"
       gradientTransform="scale(0.41716421,2.3971376)"
       gradientUnits="userSpaceOnUse" />
    <linearGradient
       inkscape:collect="always"
       xlink:href="#id-109842"
       id="linearGradient254"
       x1="126.72949"
       y1="27.590104"
       x2="126.72949"
       y2="247.17214"
       gradientTransform="scale(0.32352374,3.0909633)"
       gradientUnits="userSpaceOnUse" />
    <linearGradient
       inkscape:collect="always"
       xlink:href="#id-109835"
       id="linearGradient256"
       x1="148.29194"
       y1="121.34847"
       x2="148.29194"
       y2="417.93235"
       gradientTransform="scale(0.41135074,2.4310154)"
       gradientUnits="userSpaceOnUse" />
    <linearGradient
       inkscape:collect="always"
       xlink:href="#id-109836"
       id="linearGradient258"
       x1="176.03409"
       y1="0"
       x2="176.03409"
       y2="352.06818"
       gradientTransform="scale(0.34652379,2.8858047)"
       gradientUnits="userSpaceOnUse" />
    <linearGradient
       inkscape:collect="always"
       xlink:href="#id-109837"
       id="linearGradient260"
       x1="71.792156"
       y1="305.18933"
       x2="51.004732"
       y2="319.04761"
       gradientTransform="scale(0.95971487,1.0419761)"
       gradientUnits="userSpaceOnUse" />
    <linearGradient
       inkscape:collect="always"
       xlink:href="#id-109838"
       id="linearGradient262"
       x1="100.47914"
       y1="134.5048"
       x2="102.9813"
       y2="137.00696"
       gradientTransform="scale(0.68740634,1.4547436)"
       gradientUnits="userSpaceOnUse" />
    <linearGradient
       inkscape:collect="always"
       xlink:href="#id-109839"
       id="linearGradient264"
       x1="102.04153"
       y1="88.893139"
       x2="103.72045"
       y2="91.131709"
       gradientTransform="scale(0.64326752,1.5545632)"
       gradientUnits="userSpaceOnUse" />
    <linearGradient
       inkscape:collect="always"
       xlink:href="#id-109840"
       id="linearGradient266"
       x1="91.689707"
       y1="56.568356"
       x2="94.641401"
       y2="58.929711"
       gradientTransform="scale(0.69451634,1.4398509)"
       gradientUnits="userSpaceOnUse" />
    <linearGradient
       inkscape:collect="always"
       xlink:href="#id-109841"
       id="linearGradient268"
       x1="163.82038"
       y1="12.848657"
       x2="157.39606"
       y2="314.79212"
       gradientTransform="scale(0.41716421,2.3971376)"
       gradientUnits="userSpaceOnUse" />
    <linearGradient
       inkscape:collect="always"
       xlink:href="#id-109842"
       id="linearGradient270"
       x1="126.72949"
       y1="27.590104"
       x2="126.72949"
       y2="247.17214"
       gradientTransform="scale(0.32352374,3.0909633)"
       gradientUnits="userSpaceOnUse" />
  </defs>
  <g
     transform="translate(-43.780647,-32.336802)"
     id="id-109851">
    <g
       transform="rotate(29,274.36741,1064.6068)"
       id="id-109852">
      <g
         transform="translate(4)"
         id="id-109853">
        <path
           d="m 0,1016 c 1,-2 2,-4 2,-5 C 19,967 39,894 54,793 68,689 73,539 64,342 c 0,0 -2,-2 1,-6 5,-4 19,-16 43,-36 l 11,-5 -1,2 4,3 -3,5 c -6,14 -10,27 -11,37 -11,136 -6,180 -11,279 -8,161 -39,340 -49,364 -6,15 -22,25 -48,31 z"
           fill="url(#id-109835)"
           id="id-109854"
           style="fill:url(#linearGradient240)" />
        <path
           d="M 0,1016 C 18,972 34,897 49,793 64,689 69,539 60,342 c 0,-2 -1,-4 -2,-8 l -9,3 v -42 l 3,-7 h -4 l 1,-59 -6,1 6,-4 L 48,95 45,60 40,46 35,25 62,0 l 40,43 -20,39 -2,56 2,59 9,48 6,19 v 2 l -6,13 6,2 6,-4 2,4 1,-1 13,15 -1,2 4,3 -3,5 -45,50 c 5,150 4,270 -4,360 -11,134 -34,243 -45,266 -6,15 -15,27 -25,35 z"
           fill="url(#id-109836)"
           id="path101"
           style="fill:url(#linearGradient242)" />
        <polygon
           points="82,321 78,302 103,278 105,281 97,290 99,305 108,306 118,297 120,299 110,310 61,362 60,346 "
           fill="#332c34"
           id="polygon103" />
        <polygon
           points="110,283 118,293 108,302 101,301 100,292 "
           fill="#fd3a18"
           id="id-109857" />
        <polygon
           points="36,324 51,291 92,249 97,264 70,299 71,317 49,337 "
           fill="#2e466c"
           id="id-109858" />
        <polygon
           points="36,324 70,299 71,317 49,337 "
           fill="url(#id-109837)"
           id="polygon107"
           style="fill:url(#linearGradient244)" />
        <polygon
           points="57,224 43,231 48,287 80,256 "
           fill="#106c1d"
           id="id-109860" />
        <polygon
           points="51,233 57,224 43,231 46,236 52,283 57,279 "
           fill="#03c402"
           id="polygon110" />
        <polygon
           points="83,253 91,246 86,199 57,166 48,162 48,196 49,223 57,219 "
           fill="url(#id-109838)"
           id="id-109862"
           style="fill:url(#linearGradient246)" />
        <polygon
           points="90,246 83,196 62,172 68,234 83,253 "
           fill="#2c2f4e"
           id="polygon113" />
        <polygon
           points="62,172 57,166 58,220 69,234 "
           fill="#242740"
           id="polygon115" />
        <polygon
           points="52,169 48,171 48,196 49,223 54,220 "
           fill="#42486c"
           id="polygon117" />
        <polygon
           points="82,190 82,193 84,191 84,139 57,109 48,106 48,153 56,160 "
           fill="url(#id-109839)"
           id="id-109866"
           style="fill:url(#linearGradient248)" />
        <polygon
           points="61,113 57,109 56,160 61,166 "
           fill="#242740"
           id="polygon120" />
        <polygon
           points="82,193 80,135 60,113 61,166 82,190 "
           fill="#2c2f4e"
           id="polygon122" />
        <polygon
           points="52,111 48,112 48,153 53,157 "
           fill="#42486c"
           id="polygon124" />
        <polygon
           points="85,87 51,50 44,59 44,61 48,96 81,132 81,135 84,134 "
           fill="url(#id-109840)"
           id="id-109870"
           style="fill:url(#linearGradient250)" />
        <polygon
           points="61,111 81,132 82,83 65,65 "
           fill="#2c2f4e"
           id="polygon127" />
        <polygon
           points="57,106 61,111 65,65 56,55 "
           fill="#242740"
           id="polygon129" />
        <polygon
           points="44,63 48,96 53,101 51,58 44,61 "
           fill="#42486c"
           id="polygon131" />
        <polygon
           points="31,24 43,12 49,14 53,46 37,42 "
           fill="#2b2d4c"
           id="id-109874" />
        <polygon
           points="43,12 49,14 53,46 49,45 "
           fill="#3b3f61"
           id="polygon134" />
        <polygon
           points="49,14 36,19 43,12 "
           fill="#939dcc"
           id="polygon136" />
        <polygon
           points="49,14 62,0 43,12 "
           fill="#42486c"
           id="polygon138" />
        <path
           d="m 70,17 22,24 c 1,4 0,7 -2,10 -2,2 -5,3 -9,1 L 58,28 c -2,-4 -1,-7 2,-10 3,-3 7,-3 10,-1 z"
           fill="#26407f"
           id="id-109878" />
        <path
           d="m 71,23 18,20 c 0,2 0,3 -2,5 -2,1 -4,1 -6,-1 L 62,26 c -2,-2 -1,-3 1,-5 3,-2 5,-1 8,2 z"
           fill="#151c2c"
           id="path141" />
        <polygon
           points="85,29 84,31 78,25 80,23 71,17 67,22 73,29 72,31 79,38 80,37 87,42 92,36 "
           fill="#420101"
           id="id-109880" />
        <polygon
           points="71,17 67,22 73,29 78,25 80,23 "
           fill="#510b15"
           id="polygon144" />
        <polygon
           points="84,31 78,25 80,23 71,17 76,11 84,18 86,16 93,22 91,25 97,31 92,36 85,29 "
           fill="#85020c"
           id="polygon146" />
        <polygon
           points="83,19 81,21 73,15 75,12 83,19 84,18 91,25 89,26 95,33 94,34 87,27 89,26 "
           fill="#b60025"
           id="polygon148" />
      </g>
      <g
         transform="translate(0,264)"
         id="id-109884">
        <path
           d="M 58,75 81,54 80,35 108,0 134,35 c -14,23 -21,54 -21,93 0,28 -5,236 -23,418 -8,81 -37,199 -41,206 -2,4 -7,10 -13,18 L 3,762 0,755 C 31,665 51,562 59,447 68,331 68,207 58,75 Z"
           fill="url(#id-109841)"
           id="id-109885"
           style="fill:url(#linearGradient252)" />
        <path
           d="M 68,66 78,57 C 78,263 75,403 68,478 55,623 16,736 16,745 c 0,9 4,15 13,19 -4,0 -8,0 -11,-1 -3,-1 -8,-2 -14,-4 C 31,700 50,610 61,491 72,372 74,230 68,66 Z"
           fill="url(#id-109842)"
           id="path152"
           style="fill:url(#linearGradient254)" />
        <polygon
           points="131,32 124,41 104,12 111,4 "
           fill="#09101f"
           id="id-109887" />
        <polygon
           points="124,34 132,26 115,2 107,11 "
           fill="#106c1d"
           id="id-109888" />
        <polygon
           points="116,9 130,28 132,26 115,2 110,8 "
           fill="#02c300"
           id="polygon156" />
      </g>
    </g>
    <g
       transform="matrix(-0.87461971,0.48480962,0.48480962,0.87461971,117.95295,0.33936685)"
       id="id-109890">
      <g
         transform="translate(4)"
         id="g220">
        <path
           d="m 0,1016 c 1,-2 2,-4 2,-5 C 19,967 39,894 54,793 68,689 73,539 64,342 c 0,0 -2,-2 1,-6 5,-4 19,-16 43,-36 l 11,-5 -1,2 4,3 -3,5 c -6,14 -10,27 -11,37 -11,136 -6,180 -11,279 -8,161 -39,340 -49,364 -6,15 -22,25 -48,31 z"
           fill="url(#id-109835)"
           id="path160"
           style="fill:url(#linearGradient256)" />
        <path
           d="M 0,1016 C 18,972 34,897 49,793 64,689 69,539 60,342 c 0,-2 -1,-4 -2,-8 l -9,3 v -42 l 3,-7 h -4 l 1,-59 -6,1 6,-4 L 48,95 45,60 40,46 35,25 62,0 l 40,43 -20,39 -2,56 2,59 9,48 6,19 v 2 l -6,13 6,2 6,-4 2,4 1,-1 13,15 -1,2 4,3 -3,5 -45,50 c 5,150 4,270 -4,360 -11,134 -34,243 -45,266 -6,15 -15,27 -25,35 z"
           fill="url(#id-109836)"
           id="path162"
           style="fill:url(#linearGradient258)" />
        <polygon
           points="82,321 78,302 103,278 105,281 97,290 99,305 108,306 118,297 120,299 110,310 61,362 60,346 "
           fill="#332c34"
           id="polygon164" />
        <polygon
           points="110,283 118,293 108,302 101,301 100,292 "
           fill="#fd3a18"
           id="polygon166" />
        <polygon
           points="36,324 51,291 92,249 97,264 70,299 71,317 49,337 "
           fill="#2e466c"
           id="polygon168" />
        <polygon
           points="36,324 70,299 71,317 49,337 "
           fill="url(#id-109837)"
           id="polygon170"
           style="fill:url(#linearGradient260)" />
        <polygon
           points="57,224 43,231 48,287 80,256 "
           fill="#106c1d"
           id="polygon172" />
        <polygon
           points="51,233 57,224 43,231 46,236 52,283 57,279 "
           fill="#03c402"
           id="polygon174" />
        <polygon
           points="83,253 91,246 86,199 57,166 48,162 48,196 49,223 57,219 "
           fill="url(#id-109838)"
           id="polygon176"
           style="fill:url(#linearGradient262)" />
        <polygon
           points="90,246 83,196 62,172 68,234 83,253 "
           fill="#2c2f4e"
           id="polygon178" />
        <polygon
           points="62,172 57,166 58,220 69,234 "
           fill="#242740"
           id="polygon180" />
        <polygon
           points="52,169 48,171 48,196 49,223 54,220 "
           fill="#42486c"
           id="polygon182" />
        <polygon
           points="82,190 82,193 84,191 84,139 57,109 48,106 48,153 56,160 "
           fill="url(#id-109839)"
           id="polygon184"
           style="fill:url(#linearGradient264)" />
        <polygon
           points="61,113 57,109 56,160 61,166 "
           fill="#242740"
           id="polygon186" />
        <polygon
           points="82,193 80,135 60,113 61,166 82,190 "
           fill="#2c2f4e"
           id="polygon188" />
        <polygon
           points="52,111 48,112 48,153 53,157 "
           fill="#42486c"
           id="polygon190" />
        <polygon
           points="85,87 51,50 44,59 44,61 48,96 81,132 81,135 84,134 "
           fill="url(#id-109840)"
           id="polygon192"
           style="fill:url(#linearGradient266)" />
        <polygon
           points="61,111 81,132 82,83 65,65 "
           fill="#2c2f4e"
           id="polygon194" />
        <polygon
           points="57,106 61,111 65,65 56,55 "
           fill="#242740"
           id="polygon196" />
        <polygon
           points="44,63 48,96 53,101 51,58 44,61 "
           fill="#42486c"
           id="polygon198" />
        <polygon
           points="31,24 43,12 49,14 53,46 37,42 "
           fill="#2b2d4c"
           id="polygon200" />
        <polygon
           points="43,12 49,14 53,46 49,45 "
           fill="#3b3f61"
           id="polygon202" />
        <polygon
           points="49,14 36,19 43,12 "
           fill="#939dcc"
           id="polygon204" />
        <polygon
           points="49,14 62,0 43,12 "
           fill="#42486c"
           id="polygon206" />
        <path
           d="m 70,17 22,24 c 1,4 0,7 -2,10 -2,2 -5,3 -9,1 L 58,28 c -2,-4 -1,-7 2,-10 3,-3 7,-3 10,-1 z"
           fill="#26407f"
           id="path208" />
        <path
           d="m 71,23 18,20 c 0,2 0,3 -2,5 -2,1 -4,1 -6,-1 L 62,26 c -2,-2 -1,-3 1,-5 3,-2 5,-1 8,2 z"
           fill="#151c2c"
           id="path210" />
        <polygon
           points="85,29 84,31 78,25 80,23 71,17 67,22 73,29 72,31 79,38 80,37 87,42 92,36 "
           fill="#420101"
           id="polygon212" />
        <polygon
           points="71,17 67,22 73,29 78,25 80,23 "
           fill="#510b15"
           id="polygon214" />
        <polygon
           points="84,31 78,25 80,23 71,17 76,11 84,18 86,16 93,22 91,25 97,31 92,36 85,29 "
           fill="#85020c"
           id="polygon216" />
        <polygon
           points="83,19 81,21 73,15 75,12 83,19 84,18 91,25 89,26 95,33 94,34 87,27 89,26 "
           fill="#b60025"
           id="polygon218" />
      </g>
      <g
         transform="translate(0,264)"
         id="g232">
        <path
           d="M 58,75 81,54 80,35 108,0 134,35 c -14,23 -21,54 -21,93 0,28 -5,236 -23,418 -8,81 -37,199 -41,206 -2,4 -7,10 -13,18 L 3,762 0,755 C 31,665 51,562 59,447 68,331 68,207 58,75 Z"
           fill="url(#id-109841)"
           id="path222"
           style="fill:url(#linearGradient268)" />
        <path
           d="M 68,66 78,57 C 78,263 75,403 68,478 55,623 16,736 16,745 c 0,9 4,15 13,19 -4,0 -8,0 -11,-1 -3,-1 -8,-2 -14,-4 C 31,700 50,610 61,491 72,372 74,230 68,66 Z"
           fill="url(#id-109842)"
           id="path224"
           style="fill:url(#linearGradient270)" />
        <polygon
           points="131,32 124,41 104,12 111,4 "
           fill="#09101f"
           id="polygon226" />
        <polygon
           points="124,34 132,26 115,2 107,11 "
           fill="#106c1d"
           id="polygon228" />
        <polygon
           points="116,9 130,28 132,26 115,2 110,8 "
           fill="#02c300"
           id="polygon230" />
      </g>
    </g>
  </g>
</svg>
