<?xml version="1.0" encoding="UTF-8" standalone="no"?>
<svg
   width="190"
   height="142.12854"
   viewBox="0 0 190 142.12854"
   version="1.1"
   id="svg28"
   sodipodi:docname="cb-layer-1247.svg"
   xmlns:inkscape="http://www.inkscape.org/namespaces/inkscape"
   xmlns:sodipodi="http://sodipodi.sourceforge.net/DTD/sodipodi-0.dtd"
   xmlns="http://www.w3.org/2000/svg"
   xmlns:svg="http://www.w3.org/2000/svg">
  <sodipodi:namedview
     id="namedview30"
     pagecolor="#ffffff"
     bordercolor="#666666"
     borderopacity="1.0"
     inkscape:pageshadow="2"
     inkscape:pageopacity="0.0"
     inkscape:pagecheckerboard="0" />
  <defs
     id="defs2" />
  <g
     id="id-101377">
    <path
       d="m 41,37 c 1,1 2,1 2,1 -5,11 -7,16 -7,16 L 5,52 0,46 3,42 7,33 Z"
       fill="#3f1f28"
       id="id-101378" />
    <path
       d="m 0,46 c 23,5 34,7 34,7 C 39,42 41,37 41,37 18,31 6,29 6,29 c -1,3 -2,4 -2,4 6,2 9,4 9,4 -2,4 -3,6 -3,6 L 2,41 c -1,3 -2,5 -2,5 z"
       fill="#58484c"
       id="id-101379" />
    <path
       d="m 6,29 c 5,-1 8,-1 8,-1 18,6 27,9 27,9 L 22,34 Z"
       fill="#888496"
       id="id-101380" />
    <path
       d="m 1,76 c 4,1 6,2 6,2 7,-4 10,-6 10,-6 L 20,58 2,59 v 10 c 0,4 -1,7 -1,7 z"
       fill="#3e1f26"
       id="id-101381" />
    <path
       d="m 1,58 c 5,2 8,2 8,2 7,-1 10,-2 10,-2 -3,8 -4,13 -4,13 C 6,72 1,72 1,72 1,70 1,70 1,70 3,69 4,68 4,68 4,65 4,63 4,63 L 0,62 c 1,-3 1,-4 1,-4 z"
       fill="#564345"
       id="id-101382" />
    <path
       d="m 84,106 -67,-6 c 18,-7 35,-9 52,-9 4,2 8,4 11,7 z"
       fill="#89809d"
       id="id-101383" />
    <path
       d="m 117,104 c 4,-6 9,-11 14,-13 13,0 28,-1 43,6 7,1 14,1 16,2 -12,0 -36,2 -73,5 z"
       fill="#89809d"
       id="id-101384" />
    <path
       d="m 126,97 c -7,5 -10,7 -10,7 -1,5 -2,8 -2,8 5,20 16,30 32,30 25,2 33,-20 33,-20 6,-3 8,-5 8,-5 1,-7 2,-14 2,-18 -25,1 -63,-2 -63,-2 z"
       fill="#4c363b"
       id="id-101385" />
    <path
       d="m 15,119 c 5,3 7,4 7,4 5,13 16,19 32,19 17,0 27,-10 33,-30 l -3,-6 c -5,-5 -8,-8 -8,-8 l -60,2 c -2,4 -2,11 -1,19 z"
       fill="#4c363b"
       id="id-101386" />
    <path
       d="m 146,121 c -5,6 -9,9 -11,11 -2,1 -4,-1 -3,-4 1,-2 3,-5 5,-7 -9,0 -15,-1 -18,-4 -1,-2 -2,-7 -2,-13 6,-5 10,-7 10,-7 l 32,2 c 3,2 5,4 4,6 -2,4 -8,8 -8,8 1,3 1,6 -1,8 4,4 7,7 7,7 0,3 -1,4 -4,3 -3,-3 -11,-10 -11,-10 z"
       fill="#5f4f59"
       id="id-101387" />
    <path
       d="m 27,99 c -2,7 -3,10 -3,10 14,4 21,5 21,5 -1,3 -1,5 0,7 -1,4 -8,6 -5,9 2,1 5,-1 11,-7 3,0 6,2 11,8 4,2 4,-2 4,-2 -4,-5 -6,-7 -6,-7 14,-3 21,-4 21,-4 2,-8 3,-12 3,-12 l -8,-8 z"
       fill="#5f4f59"
       id="id-101388" />
    <path
       d="m 20,58 -13,-2 -6,2 9,3 c 7,-2 10,-3 10,-3 z"
       fill="#868393"
       id="id-101389" />
    <path
       d="m 66,23 c 1,1 2,1 2,1 -6,9 -9,14 -9,14 L 15,23 11,18 15,15 21,4 c 30,13 45,19 45,19 z"
       fill="#3f2228"
       id="id-101390" />
    <path
       d="m 5,91 c 3,0 4,-1 4,-1 5,9 7,13 7,13 -1,10 -2,16 -2,16 L 6,98 C 5,94 5,91 5,91 Z"
       fill="#3e1f26"
       id="id-101391" />
    <path
       d="m 9,90 h 7 v 16 C 11,95 9,90 9,90 Z"
       fill="#513c3b"
       id="id-101392" />
    <path
       d="M 21,0 32,2 66,23 C 36,8 21,0 21,0 Z"
       fill="#878395"
       id="id-101393" />
    <path
       d="M 21,0 C 51,15 66,23 66,23 59,32 56,36 56,36 26,24 10,18 10,18 c 2,-3 3,-5 3,-5 5,2 8,3 8,3 3,-5 4,-7 4,-7 L 19,5 c 2,-3 2,-5 2,-5 z"
       fill="#58484b"
       id="id-101394" />
    <path
       d="m 153,113 c 3,-4 5,-6 7,-8 2,-2 0,-4 -2,-3 -3,4 -4,5 -9,9 0,0 -3,-1 -5,0 -4,-4 -5,-6 -8,-8 -1,-1 -4,0 -3,2 3,4 6,6 9,9 -1,1 -1,2 -1,2 -9,0 -12,0 -19,0 -3,-2 -4,-4 -7,-5 0,-1 -1,0 0,1 3,2 4,3 6,5 9,0 11,0 20,1 0,0 0,1 1,1 -4,4 -6,4 -9,9 -1,1 1,3 2,2 4,-3 5,-5 9,-8 2,2 5,1 6,0 3,3 6,6 8,8 2,1 3,-1 3,-2 -3,-3 -5,-4 -8,-8 1,-1 1,-2 1,-3 16,0 25,0 25,0 2,-7 3,-10 3,-10 -1,-1 -1,-1 -1,-1 -2,7 -3,10 -3,10 h -24 c 0,-1 0,-2 -1,-3 z"
       fill="#260a0f"
       id="id-101395" />
    <path
       d="m 58,113 c 3,-4 5,-6 7,-8 2,-2 0,-4 -2,-3 -3,4 -4,5 -9,9 0,0 -3,-1 -5,0 -4,-4 -5,-6 -8,-8 -1,-1 -4,0 -3,2 3,4 6,6 9,9 -1,1 -1,2 -1,2 -7,1 -16,1 -25,1 -1,-3 -3,-7 -4,-12 0,0 -1,1 -1,1 0,2 2,6 4,12 11,0 20,0 26,0 0,0 0,1 1,1 -4,4 -6,4 -9,9 -1,1 1,3 2,2 4,-3 5,-5 9,-8 2,2 5,1 6,0 3,3 6,6 8,8 2,1 3,-1 3,-2 -3,-3 -5,-4 -8,-8 1,-1 1,-2 1,-3 14,-1 21,-1 21,-1 0,0 5,-8 5,-8 0,-1 0,-1 0,-1 -4,5 -6,8 -6,8 l -20,1 c 0,-1 0,-2 -1,-3 z"
       fill="#260a0f"
       id="id-101396" />
    <circle
       cx="52"
       cy="118"
       r="4"
       fill="#e50d1d"
       id="id-101397" />
    <circle
       cx="147"
       cy="118"
       r="4"
       fill="#e50d1d"
       id="id-101398" />
    <path
       d="m 13,105 c 2,0 3,0 3,0 0,5 0,7 0,7 l -3,1 c 0,-6 0,-8 0,-8 z"
       fill="#029969"
       id="id-101399" />
    <path
       d="m 181,106 c 2,0 3,0 3,0 0,3 0,5 0,5 l -3,2 c 0,-5 0,-7 0,-7 z"
       fill="#029969"
       id="id-101400" />
  </g>
</svg>
