<?xml version="1.0" encoding="UTF-8"?>
<svg width="1320px" height="1760px" viewBox="0 0 1320 1760" version="1.1" xmlns="http://www.w3.org/2000/svg" xmlns:xlink="http://www.w3.org/1999/xlink">
<defs >
</defs >
<g stroke="none" stroke-width="1" fill="none" id="id-bg-57-Artboard-0" fill-rule="evenodd">
<g id="id-bg-57-Artboard-1">
<rect fill="#212239" width="1320" height="1760" x="0" y="0" id="id-bg-57-Artboard-2">
</rect >
<g transform="translate(79,233)" fill="#323452" id="id-bg-57-Artboard-3">
<path d="M 990 0 C 970 22 959 32 959 32 C 939 16 928 7 928 7 C 926 14 925 18 925 18 C 955 45 969 59 969 59 L 1003 24 C 994 8 990 0 990 0 Z" transform="translate(964,30) rotate(-180) translate(-964,-30)" id="id-bg-57-Artboard-4">
</path >
<path d="M 971 163 C 962 145 957 137 957 137 C 937 159 927 170 927 170 C 907 154 897 146 897 146 C 894 150 893 153 893 153 C 836 96 808 67 808 67 C 829 54 839 47 839 47 C 950 43 1005 42 1005 42 C 996 51 992 55 992 55 C 1026 57 1043 57 1043 57 C 1039 47 1038 43 1038 43 C 1062 43 1074 43 1074 43 L 1083 52 C 1008 126 971 163 971 163 Z" transform="translate(945,106) rotate(-180) translate(-945,-106)" id="id-bg-57-Artboard-5">
</path >
<path d="M 272 709 C 269 709 267 709 267 709 C 260 699 257 695 257 695 C 263 688 266 685 266 685 L 275 688 C 273 702 272 709 272 709 Z" transform="translate(266,697) rotate(-180) translate(-266,-697)" id="id-bg-57-Artboard-6">
</path >
<path d="M 952 18 C 1034 100 1077 142 1080 145 L 1080 146 C 1080 146 1080 146 1080 146 C 1065 166 1057 176 1057 176 C 1094 177 1113 178 1113 178 C 1138 204 1151 217 1151 217 C 1062 307 1015 354 1011 358 L 1010 359 C 1010 359 1010 359 1010 359 L 1010 359 L 1010 359 C 1000 383 995 395 995 395 C 986 390 982 388 982 388 C 854 515 790 578 790 578 C 776 579 770 580 770 580 C 778 599 782 608 782 608 C 789 611 793 612 793 612 C 797 617 799 620 799 620 C 819 620 830 620 832 620 L 832 620 C 832 620 832 620 832 620 L 832 620 C 832 620 832 620 832 620 L 833 620 L 833 620 C 843 645 848 658 848 658 C 844 658 842 659 842 659 L 842 659 L 842 659 C 843 664 843 666 843 666 L 854 666 L 856 676 C 1055 870 1149 967 1149 967 C 1141 975 1137 980 1137 980 C 1054 988 1012 992 1012 992 C 1081 996 1115 998 1115 998 C 1005 1109 949 1165 947 1167 L 947 1168 L 947 1168 C 843 1064 788 1008 782 1002 L 782 1002 C 782 1002 782 1002 782 1002 L 782 1002 L 782 1002 C 814 988 831 981 831 981 C 767 963 736 954 736 954 C 628 848 575 795 575 795 C 526 843 501 867 501 867 C 498 721 497 647 497 647 C 486 636 481 630 481 630 C 482 773 482 846 482 849 L 482 849 L 482 849 C 475 843 471 839 471 839 C 471 874 471 893 471 897 L 471 897 C 471 897 471 897 471 897 L 471 898 C 471 898 471 898 471 898 L 471 898 L 471 898 L 364 1005 C 148 1009 40 1012 40 1012 C 13 984 0 970 0 970 C 108 862 163 807 165 805 L 166 805 L 166 805 C 236 801 271 799 271 799 C 206 797 174 797 174 797 C 221 793 245 791 245 791 C 203 789 183 788 183 788 C 232 781 257 778 257 778 C 220 777 202 776 202 776 C 257 765 285 759 285 759 C 234 761 209 761 209 761 C 315 656 370 600 374 596 L 374 596 L 374 596 C 408 596 425 595 426 595 L 426 595 L 426 595 L 445 584 L 296 584 L 296 584 C 325 566 339 558 339 558 C 129 348 21 241 15 234 L 15 234 C 15 234 15 234 15 234 C 45 205 60 191 60 191 C 44 189 36 187 36 187 C 100 124 132 93 132 93 C 94 91 75 90 75 90 C 126 78 152 71 153 71 L 153 71 L 153 71 C 185 38 202 21 203 20 L 203 20 L 203 20 C 292 108 340 157 348 165 L 348 165 C 349 165 349 165 349 165 L 349 166 C 349 166 349 166 349 166 C 170 170 80 173 80 173 C 269 179 364 182 364 182 C 438 256 476 293 477 295 L 477 295 L 477 295 C 477 324 477 341 477 346 L 477 347 C 477 347 477 347 477 347 L 477 347 C 477 347 477 347 477 347 L 477 347 C 477 347 477 347 477 348 L 477 348 L 477 348 C 492 365 500 374 500 374 C 501 338 501 320 501 319 L 501 319 L 501 319 C 537 356 556 375 558 377 L 558 377 C 558 377 558 377 558 377 C 571 386 577 391 577 391 C 591 391 599 392 599 392 L 599 392 L 599 392 C 592 385 589 381 589 381 C 607 363 617 354 617 354 L 617 354 L 617 354 C 592 345 579 341 579 341 C 627 328 650 321 650 321 C 748 223 797 173 799 171 L 799 171 L 799 171 C 860 169 906 168 938 167 L 942 167 C 975 166 992 166 992 166 C 873 160 813 157 813 157 C 900 70 946 24 951 18 L 952 18 C 952 18 952 18 952 18 L 952 18 L 952 18 Z M 499 557 C 482 574 473 583 472 584 L 472 584 L 472 584 L 501 610 C 500 575 499 557 499 557 Z M 755 567 C 746 570 742 572 742 572 C 731 581 726 586 726 586 C 746 595 756 599 756 599 C 760 586 763 580 763 580 L 755 580 C 755 572 755 567 755 567 L 755 567 L 755 567 Z M 722 580 L 716 580 L 716 580 C 717 583 717 585 717 585 L 722 585 L 722 580 Z M 652 388 C 653 392 653 395 653 395 L 678 392 C 661 389 652 388 652 388 Z M 536 387 L 528 387 C 528 387 528 388 528 392 L 528 392 L 536 392 L 536 392 L 536 387 L 536 387 Z" transform="translate(576,593) rotate(-180) translate(-576,-593)" id="id-bg-57-Artboard-7">
</path >
<path d="M 595 920 C 624 922 638 923 638 923 C 640 920 641 918 641 918 L 616 879 C 602 907 595 920 595 920 Z" transform="translate(618,901) rotate(-180) translate(-618,-901)" id="id-bg-57-Artboard-8">
</path >
<path d="M 592 938 C 578 910 571 895 571 895 C 573 891 574 889 574 889 L 615 894 C 600 924 592 938 592 938 Z" transform="translate(593,914) rotate(-180) translate(-593,-914)" id="id-bg-57-Artboard-9">
</path >
<path d="M 480 933 C 509 918 524 911 524 911 L 515 937 C 491 934 480 933 480 933 Z" transform="translate(502,924) rotate(-180) translate(-502,-924)" id="id-bg-57-Artboard-10">
</path >
<path d="M 338 594 C 339 613 339 622 339 622 L 353 604 C 343 597 338 594 338 594 Z" transform="translate(346,608) rotate(-180) translate(-346,-608)" id="id-bg-57-Artboard-11">
</path >
<path d="M 255 505 C 268 503 274 502 274 502 L 272 484 C 261 498 255 505 255 505 Z" transform="translate(265,495) rotate(-180) translate(-265,-495)" id="id-bg-57-Artboard-12">
</path >
<path d="M 238 541 C 231 524 228 516 228 516 L 244 525 C 240 535 238 541 238 541 Z" transform="translate(236,528) rotate(-180) translate(-236,-528)" id="id-bg-57-Artboard-13">
</path >
<path d="M 187 514 C 185 508 184 505 184 505 L 194 505 C 189 511 187 514 187 514 Z" transform="translate(189,509) rotate(-180) translate(-189,-509)" id="id-bg-57-Artboard-14">
</path >
<path d="M 259 554 L 261 541 C 270 521 274 511 274 511 L 290 538 C 270 549 259 554 259 554 Z" transform="translate(275,532) rotate(-180) translate(-275,-532)" id="id-bg-57-Artboard-15">
</path >
<path d="M 232 579 C 224 591 220 597 220 597 L 238 592 C 234 584 232 579 232 579 Z" transform="translate(229,588) rotate(-180) translate(-229,-588)" id="id-bg-57-Artboard-16">
</path >
<path d="M 267 632 C 288 597 298 580 298 580 L 301 618 C 278 627 267 632 267 632 Z" transform="translate(284,606) rotate(-180) translate(-284,-606)" id="id-bg-57-Artboard-17">
</path >
<path d="M 331 640 C 314 645 305 648 305 648 L 321 618 C 328 633 331 640 331 640 Z" transform="translate(318,633) rotate(-180) translate(-318,-633)" id="id-bg-57-Artboard-18">
</path >
<path d="M 196 745 C 190 729 187 721 187 721 L 205 726 C 199 739 196 745 196 745 Z" transform="translate(196,733) rotate(-180) translate(-196,-733)" id="id-bg-57-Artboard-19">
</path >
<path d="M 167 764 C 150 753 141 748 141 748 L 163 736 C 165 754 167 764 167 764 Z" transform="translate(154,750) rotate(-180) translate(-154,-750)" id="id-bg-57-Artboard-20">
</path >
<path d="M 197 769 C 192 769 189 769 189 769 C 191 762 192 758 192 758 L 199 760 C 198 766 197 769 197 769 Z" transform="translate(194,764) rotate(-180) translate(-194,-764)" id="id-bg-57-Artboard-21">
</path >
</g >
</g >
</g >
<defs >
</defs >
<g transform="translate(563,609)" id="id-female-4_degen_shirt_eth_purple_back-0">
<path d="M 0 33 C -3 27 17 12 24 2 C 40 3 49 3 49 3 C 47 19 46 28 46 28 C 37 35 32 38 32 38 L 9 50 L 0 33 Z" fill="#3d207a" id="id-female-4_degen_shirt_eth_purple_back-1">
</path >
<path d="M 155 36 L 145 0 C 156 0 162 0 162 0 C 166 9 176 19 189 28 C 187 41 179 55 169 68 L 155 36 Z" fill="#4e299c" id="id-female-4_degen_shirt_eth_purple_back-2">
</path >
<path d="M 146 4 C 154 4 159 4 159 4 L 167 15 C 166 22 162 29 155 36 L 151 22 C 148 10 146 4 146 4 Z" fill="#1e0f39" id="id-female-4_degen_shirt_eth_purple_back-3">
</path >
<path d="M 48 8 C 34 7 26 7 26 7 L 19 22 C 21 28 25 33 32 38 L 46 28 C 48 14 48 8 48 8 Z" fill="#1e0f39" id="id-female-4_degen_shirt_eth_purple_back-4">
</path >
</g >
<defs >
<linearGradient x1="82%" y1="56%" x2="29%" y2="56%" id="id-female-5_4_icy_back-0">
<stop stop-color="#e0d2e5" offset="0%">
</stop >
<stop stop-color="#e0d2e5" offset="9%">
</stop >
<stop stop-color="#9c94b6" offset="10%">
</stop >
<stop stop-color="#a099bb" offset="100%">
</stop >
</linearGradient >
</defs >
<path d="M 827 682 C 804 670 786 641 775 595 C 775 593 781 608 810 649 C 812 653 815 661 818 674 L 822 674 C 820 664 819 658 817 654 C 792 602 782 608 774 576 C 774 561 772 532 769 490 L 559 486 L 536 539 L 521 601 L 515 623 L 496 643 L 486 675 L 827 682 Z" fill="url(#id-female-5_4_icy_back-0)" id="id-female-5_4_icy_back-1">
</path >
<defs >
<linearGradient x1="100%" y1="46%" x2="12%" y2="47%" id="id-female-6.6_base_6-0">
<stop stop-color="#c77f5b" offset="0%">
</stop >
<stop stop-color="#c17a5b" offset="21%">
</stop >
<stop stop-color="#eec59e" offset="46%">
</stop >
<stop stop-color="#e4a677" offset="80%">
</stop >
<stop stop-color="#e0a679" offset="100%">
</stop >
</linearGradient >
<linearGradient x1="53%" y1="81%" x2="50%" y2="21%" id="id-female-6.6_base_6-1">
<stop stop-color="#cd885b" offset="0%">
</stop >
<stop stop-color="#de9362" offset="24%">
</stop >
<stop stop-color="#df9352" offset="100%">
</stop >
</linearGradient >
<linearGradient x1="52%" y1="-4%" x2="46%" y2="70%" id="id-female-6.6_base_6-2">
<stop stop-color="#be7c52" offset="0%">
</stop >
<stop stop-color="#b26f41" offset="100%">
</stop >
</linearGradient >
<linearGradient x1="46%" y1="43%" x2="15%" y2="43%" id="id-female-6.6_base_6-3">
<stop stop-color="#e09c61" offset="0%">
</stop >
<stop stop-color="#b86e3c" offset="100%">
</stop >
</linearGradient >
<linearGradient x1="54%" y1="37%" x2="12%" y2="72%" id="id-female-6.6_base_6-4">
<stop stop-color="#53161c" offset="0%">
</stop >
<stop stop-color="#99554b" offset="100%">
</stop >
</linearGradient >
<linearGradient x1="40%" y1="14%" x2="61%" y2="85%" id="id-female-6.6_base_6-5">
<stop stop-color="#6e3017" offset="0%">
</stop >
<stop stop-color="#855820" offset="100%">
</stop >
</linearGradient >
<linearGradient x1="27%" y1="47%" x2="91%" y2="49%" id="id-female-6.6_base_6-6">
<stop stop-color="#d4917e" offset="0%">
</stop >
<stop stop-color="#ffcbb7" offset="100%">
</stop >
</linearGradient >
<linearGradient x1="47%" y1="60%" x2="49%" y2="79%" id="id-female-6.6_base_6-7">
<stop stop-color="#e79066" offset="0%">
</stop >
<stop stop-color="#e08f62" offset="60%">
</stop >
<stop stop-color="#edaf7d" offset="100%">
</stop >
</linearGradient >
<linearGradient x1="29%" y1="56%" x2="69%" y2="53%" id="id-female-6.6_base_6-8">
<stop stop-color="#d49053" offset="0%">
</stop >
<stop stop-color="#cd8a51" offset="8%">
</stop >
<stop stop-color="#da8359" offset="18%">
</stop >
<stop stop-color="#d6935a" offset="38%">
</stop >
<stop stop-color="#d08c58" offset="65%">
</stop >
<stop stop-color="#cd7d52" offset="81%">
</stop >
<stop stop-color="#bd754a" offset="100%">
</stop >
</linearGradient >
<linearGradient x1="47%" y1="45%" x2="54%" y2="46%" id="id-female-6.6_base_6-9">
<stop stop-color="#d27f4c" offset="0%">
</stop >
<stop stop-color="#c97947" offset="62%">
</stop >
<stop stop-color="#bc703a" offset="77%">
</stop >
<stop stop-color="#d18c59" offset="100%">
</stop >
</linearGradient >
<linearGradient x1="51%" y1="7%" x2="50%" y2="100%" id="id-female-6.6_base_6-10">
<stop stop-color="#d27748" offset="0%">
</stop >
<stop stop-color="#e29f6d" offset="75%">
</stop >
<stop stop-color="#da986b" offset="100%">
</stop >
</linearGradient >
<linearGradient x1="51%" y1="11%" x2="49%" y2="93%" id="id-female-6.6_base_6-11">
<stop stop-color="#dc915f" offset="0%">
</stop >
<stop stop-color="#d58e5b" offset="73%">
</stop >
<stop stop-color="#e39d67" offset="100%">
</stop >
</linearGradient >
<linearGradient x1="51%" y1="-5%" x2="48%" y2="96%" id="id-female-6.6_base_6-12">
<stop stop-color="#d68f5b" offset="0%">
</stop >
<stop stop-color="#cc8352" offset="100%">
</stop >
</linearGradient >
<linearGradient x1="50%" y1="19%" x2="50%" y2="69%" id="id-female-6.6_base_6-13">
<stop stop-color="#b46c3c" offset="0%">
</stop >
<stop stop-color="#70411f" offset="45%">
</stop >
<stop stop-color="#996644" offset="100%">
</stop >
</linearGradient >
<linearGradient x1="46%" y1="74%" x2="39%" y2="35%" id="id-female-6.6_base_6-14">
<stop stop-color="#b06f3a" offset="0%">
</stop >
<stop stop-color="#c66d4a" offset="51%">
</stop >
<stop stop-color="#9f6a38" offset="100%" stop-opacity="0">
</stop >
</linearGradient >
<linearGradient x1="46%" y1="16%" x2="49%" y2="82%" id="id-female-6.6_base_6-15">
<stop stop-color="#9b573d" offset="0%" stop-opacity="0.19">
</stop >
<stop stop-color="#5f3720" offset="100%">
</stop >
</linearGradient >
<linearGradient x1="41%" y1="19%" x2="50%" y2="100%" id="id-female-6.6_base_6-16">
<stop stop-color="#be6f4b" offset="0%">
</stop >
<stop stop-color="#9e5637" offset="100%">
</stop >
</linearGradient >
<linearGradient x1="50%" y1="31%" x2="45%" y2="50%" id="id-female-6.6_base_6-17">
<stop stop-color="#cc7848" offset="0%">
</stop >
<stop stop-color="#eda871" offset="100%">
</stop >
</linearGradient >
<linearGradient x1="51%" y1="22%" x2="50%" y2="100%" id="id-female-6.6_base_6-18">
<stop stop-color="#b0683c" offset="0%">
</stop >
<stop stop-color="#bd7658" offset="100%">
</stop >
</linearGradient >
<linearGradient x1="49%" y1="0%" x2="50%" y2="100%" id="id-female-6.6_base_6-19">
<stop stop-color="#d48549" offset="0%">
</stop >
<stop stop-color="#e29159" offset="100%">
</stop >
</linearGradient >
<linearGradient x1="44%" y1="15%" x2="50%" y2="100%" id="id-female-6.6_base_6-20">
<stop stop-color="#b76538" offset="0%">
</stop >
<stop stop-color="#a6633c" offset="100%">
</stop >
</linearGradient >
<linearGradient x1="52%" y1="21%" x2="49%" y2="83%" id="id-female-6.6_base_6-21">
<stop stop-color="#de8850" offset="0%">
</stop >
<stop stop-color="#e78e5d" offset="48%">
</stop >
<stop stop-color="#e29e63" offset="100%">
</stop >
</linearGradient >
<linearGradient x1="85%" y1="60%" x2="15%" y2="60%" id="id-female-6.6_base_6-22">
<stop stop-color="#d27c44" offset="0%">
</stop >
<stop stop-color="#c06a37" offset="100%">
</stop >
</linearGradient >
<linearGradient x1="50%" y1="-3%" x2="59%" y2="91%" id="id-female-6.6_base_6-23">
<stop stop-color="#cc885c" offset="0%">
</stop >
<stop stop-color="#c6814f" offset="53%">
</stop >
<stop stop-color="#c2794d" offset="66%">
</stop >
<stop stop-color="#ba6b3c" offset="100%">
</stop >
</linearGradient >
<linearGradient x1="55%" y1="48%" x2="46%" y2="33%" id="id-female-6.6_base_6-24">
<stop stop-color="#ce8355" offset="0%">
</stop >
<stop stop-color="#df905f" offset="86%">
</stop >
<stop stop-color="#d48f57" offset="100%">
</stop >
</linearGradient >
<linearGradient x1="50%" y1="19%" x2="50%" y2="78%" id="id-female-6.6_base_6-25">
<stop stop-color="#914919" offset="0%">
</stop >
<stop stop-color="#ab5722" offset="50%">
</stop >
<stop stop-color="#845026" offset="100%">
</stop >
</linearGradient >
<linearGradient x1="50%" y1="10%" x2="50%" y2="43%" id="id-female-6.6_base_6-26">
<stop stop-color="#c27b41" offset="0%">
</stop >
<stop stop-color="#c77e4a" offset="15%">
</stop >
<stop stop-color="#995b2a" offset="68%">
</stop >
<stop stop-color="#b97842" offset="100%">
</stop >
</linearGradient >
<linearGradient x1="89%" y1="50%" x2="7%" y2="52%" id="id-female-6.6_base_6-27">
<stop stop-color="#8e4d2a" offset="0%">
</stop >
<stop stop-color="#b77b5b" offset="53%" stop-opacity="0.199">
</stop >
<stop stop-color="#a66134" offset="75%">
</stop >
<stop stop-color="#8b532c" offset="100%">
</stop >
</linearGradient >
<linearGradient x1="44%" y1="70%" x2="86%" y2="30%" id="id-female-6.6_base_6-28">
<stop stop-color="#e0a476" offset="0%">
</stop >
<stop stop-color="#e8ad86" offset="100%">
</stop >
</linearGradient >
<linearGradient x1="33%" y1="92%" x2="61%" y2="25%" id="id-female-6.6_base_6-29">
<stop stop-color="#be7342" offset="0%">
</stop >
<stop stop-color="#d48f5d" offset="40%">
</stop >
<stop stop-color="#efbc8e" offset="100%">
</stop >
</linearGradient >
<linearGradient x1="35%" y1="94%" x2="47%" y2="12%" id="id-female-6.6_base_6-30">
<stop stop-color="#d99461" offset="0%">
</stop >
<stop stop-color="#d28a5a" offset="40%">
</stop >
<stop stop-color="#e8b587" offset="100%">
</stop >
</linearGradient >
<linearGradient x1="50%" y1="54%" x2="27%" y2="9%" id="id-female-6.6_base_6-31">
<stop stop-color="#f7ab80" offset="0%">
</stop >
<stop stop-color="#ddab90" offset="100%" stop-opacity="0.078">
</stop >
</linearGradient >
<linearGradient x1="50%" y1="0%" x2="93%" y2="69%" id="id-female-6.6_base_6-32">
<stop stop-color="#dca37f" offset="0%">
</stop >
<stop stop-color="#dda16b" offset="70%">
</stop >
<stop stop-color="#c66d49" offset="100%">
</stop >
</linearGradient >
<linearGradient x1="36%" y1="84%" x2="25%" y2="44%" id="id-female-6.6_base_6-33">
<stop stop-color="#c98762" offset="0%" stop-opacity="0.509">
</stop >
<stop stop-color="#90492c" offset="35%" stop-opacity="0.675">
</stop >
<stop stop-color="#762e17" offset="100%" stop-opacity="0">
</stop >
</linearGradient >
<linearGradient x1="63%" y1="95%" x2="43%" y2="20%" id="id-female-6.6_base_6-34">
<stop stop-color="#d38e55" offset="0%">
</stop >
<stop stop-color="#e4a97d" offset="46%">
</stop >
<stop stop-color="#ce824b" offset="100%">
</stop >
</linearGradient >
<linearGradient x1="40%" y1="0%" x2="50%" y2="86%" id="id-female-6.6_base_6-35">
<stop stop-color="#dea071" offset="0%">
</stop >
<stop stop-color="#c27945" offset="100%">
</stop >
</linearGradient >
<linearGradient x1="50%" y1="0%" x2="50%" y2="92%" id="id-female-6.6_base_6-36">
<stop stop-color="#e0a272" offset="0%">
</stop >
<stop stop-color="#dca16f" offset="100%">
</stop >
</linearGradient >
<linearGradient x1="33%" y1="79%" x2="21%" y2="44%" id="id-female-6.6_base_6-37">
<stop stop-color="#be6457" offset="0%">
</stop >
<stop stop-color="#983f32" offset="28%" stop-opacity="0.928">
</stop >
<stop stop-color="#762e17" offset="100%" stop-opacity="0">
</stop >
</linearGradient >
<linearGradient x1="4%" y1="47%" x2="92%" y2="45%" id="id-female-6.6_base_6-38">
<stop stop-color="#752b0f" offset="0%">
</stop >
<stop stop-color="#83391d" offset="17%" stop-opacity="0.753">
</stop >
<stop stop-color="#9e4b3d" offset="48%" stop-opacity="0.386">
</stop >
<stop stop-color="#94401f" offset="78%" stop-opacity="0.762">
</stop >
<stop stop-color="#88391a" offset="100%">
</stop >
</linearGradient >
<linearGradient x1="60%" y1="45%" x2="67%" y2="53%" id="id-female-6.6_base_6-39">
<stop stop-color="#d79463" offset="0%">
</stop >
<stop stop-color="#ffc6b2" offset="100%">
</stop >
</linearGradient >
<linearGradient x1="48%" y1="15%" x2="54%" y2="81%" id="id-female-6.6_base_6-40">
<stop stop-color="#d99776" offset="0%" stop-opacity="0.4">
</stop >
<stop stop-color="#e5a875" offset="100%">
</stop >
</linearGradient >
<linearGradient x1="47%" y1="44%" x2="50%" y2="61%" id="id-female-6.6_base_6-41">
<stop stop-color="#943b2f" offset="0%" stop-opacity="0.175">
</stop >
<stop stop-color="#61301b" offset="100%">
</stop >
</linearGradient >
<linearGradient x1="26%" y1="-7%" x2="50%" y2="96%" id="id-female-6.6_base_6-42">
<stop stop-color="#37373f" offset="0%">
</stop >
<stop stop-color="#19191d" offset="100%">
</stop >
</linearGradient >
<linearGradient x1="50%" y1="12%" x2="59%" y2="82%" id="id-female-6.6_base_6-43">
<stop stop-color="#252525" offset="0%">
</stop >
<stop stop-color="#101010" offset="100%">
</stop >
</linearGradient >
<linearGradient x1="25%" y1="-16%" x2="50%" y2="98%" id="id-female-6.6_base_6-44">
<stop stop-color="#37373f" offset="0%">
</stop >
<stop stop-color="#19191d" offset="100%">
</stop >
</linearGradient >
<linearGradient x1="75%" y1="39%" x2="50%" y2="93%" id="id-female-6.6_base_6-45">
<stop stop-color="#252525" offset="0%">
</stop >
<stop stop-color="#000000" offset="100%">
</stop >
</linearGradient >
</defs >
<g transform="translate(334,549)" id="id-female-6.6_base_6-46">
<polygon points="561 754 565 871 565 881 537 893 533 897 535 901 532 909 543 910 597 864" fill="#562003" id="id-female-6.6_base_6-47">
</polygon >
<polygon points="537 282 539 246 535 195 529 158 522 137 484 118 440 111 212 111 188 113 157 123 121 139 111 186 108 221 109 290" fill="url(#id-female-6.6_base_6-0)" id="id-female-6.6_base_6-47">
</polygon >
<polygon points="467 393 474 506 503 589 537 672 556 728 561 754 546 794 552 851 551 861 552 874 556 885 567 882 568 866 570 860 570 843 571 834 576 843 576 859 579 864 573 874 571 884 544 903 541 916 582 901 597 864 607 852 600 821 597 716 589 695 582 655 569 523 544 425" fill="url(#id-female-6.6_base_6-1)" id="id-female-6.6_base_6-47">
</polygon >
<polygon points="546 794 552 851 551 861 552 874 556 885 567 882 568 866 570 860 570 843 571 834 576 843 576 859 579 864 573 874 571 884 544 903 541 916 582 901 597 864 583 871 588 855 573 815 561 823" fill="url(#id-female-6.6_base_6-2)" id="id-female-6.6_base_6-47">
</polygon >
<polygon points="552 851 551 861 552 874 556 887 567 884 568 866 570 860 558 860" fill="#8a5125" id="id-female-6.6_base_6-47">
</polygon >
<polygon points="544 906 541 916 582 901 571 889" fill="#92502a" id="id-female-6.6_base_6-47">
</polygon >
<polygon points="561 754 548 789 566 819 586 806" fill="#bd8171" id="id-female-6.6_base_6-47">
</polygon >
<polygon points="486 648 477 599 453 529 440 504 437 490 439 460 449 402 456 340 188 343 198 411 202 493 162 596 153 638 266 693 319 721 386 693" fill="url(#id-female-6.6_base_6-3)" id="id-female-6.6_base_6-47">
</polygon >
<polygon points="486 648 477 599 453 529 440 504 437 490 439 460 449 402 456 340 296 353 376 634" fill="#d8965f" id="id-female-6.6_base_6-47">
</polygon >
<g transform="translate(188,0)" id="id-female-6.6_base_6-56">
<polygon points="274 114 253 111 232 100 201 76 188 58 184 1 93 1 88 64 25 111 1 113 103 123 121 135 134 138 149 121 161 117 187 119 225 114" fill="#d18c5e" id="id-female-6.6_base_6-47">
</polygon >
<polygon points="201 76 188 58 185 12 175 57 155 111 185 73" fill="#edad85" id="id-female-6.6_base_6-47">
</polygon >
<polygon points="149 1 93 1 88 64 108 126 121 135 133 138" fill="#c1844f" id="id-female-6.6_base_6-47">
</polygon >
<polygon points="116 102 120 113 118 115 136 135 150 119 164 71 125 108" fill="#b57449" id="id-female-6.6_base_6-60">
</polygon >
<polygon points="121 127 133 138 145 124" fill="#9f593a" id="id-female-6.6_base_6-61">
</polygon >
<polygon points="136 98 164 71 175 57 186 17 134 51" fill="#d9986e" id="id-female-6.6_base_6-62">
</polygon >
<polygon points="97 96 116 80 164 60 178 48 186 17 184 1 93 1 88 64 45 96" fill="#a3663f" opacity="0.654" id="id-female-6.6_base_6-47">
</polygon >
<polygon points="186 17 184 1 93 1 88 64 45 96 66 96" fill="url(#id-female-6.6_base_6-4)" opacity="0.467" id="id-female-6.6_base_6-47">
</polygon >
<polygon points="123 58 176 23 186 17 184 1 93 1 91 22 108 55" fill="#3b1d0b" opacity="0.434" id="id-female-6.6_base_6-47">
</polygon >
</g >
<polygon points="41 844 33 856 36 895 64 915 84 911 83 903 71 898 72 892 63 884 52 849" fill="url(#id-female-6.6_base_6-5)" id="id-female-6.6_base_6-47">
</polygon >
<polygon points="315 152 285 173 320 188 357 166" fill="#fbc799" id="id-female-6.6_base_6-67">
</polygon >
<polygon points="327 150 370 130 342 127" fill="#d99c66" id="id-female-6.6_base_6-68">
</polygon >
<polygon points="301 142 303 148 243 131 240 119 276 119" fill="#d89462" id="id-female-6.6_base_6-69">
</polygon >
<polygon points="159 149 206 123 269 123 303 144 297 118 188 113 157 123 121 139" fill="url(#id-female-6.6_base_6-6)" id="id-female-6.6_base_6-47">
</polygon >
<polygon points="157 123 121 139 153 167 196 134" fill="#eeb898" id="id-female-6.6_base_6-47">
</polygon >
<polygon points="89 584 77 541 62 551 45 658 34 712 25 741 25 762 10 817 0 845 14 870 25 901 58 919 72 919 69 913 61 905 50 899 37 874 37 852 43 845 52 855 50 887 56 901 64 905 66 901 66 882 72 836 72 800 69 781 64 773 66 735 85 684 121 599 162 510" fill="url(#id-female-6.6_base_6-7)" id="id-female-6.6_base_6-47">
</polygon >
<polygon points="89 584 77 541 62 551 45 658 48 715 121 599 162 510" fill="#d58d5d" id="id-female-6.6_base_6-47">
</polygon >
<polygon points="55 843 45 827 37 848 17 852 8 836 5 851 0 845 14 870 25 901 58 919 72 919 69 913 61 905 50 899 37 874 37 852 43 845 52 855 50 887 56 901 64 905 66 901 66 882 72 836" fill="#d18653" id="id-female-6.6_base_6-47">
</polygon >
<polygon points="53 882 52 892 56 901 64 905 66 901 66 882 67 876" fill="#c07847" id="id-female-6.6_base_6-47">
</polygon >
<polygon points="25 901 58 919 72 919 62 909 37 895" fill="#c07847" id="id-female-6.6_base_6-47">
</polygon >
<polygon points="160 467 145 488 108 578 45 777 48 797 64 773 66 735 85 684 121 599 162 510" fill="#ac6130" id="id-female-6.6_base_6-47">
</polygon >
<polygon points="169 1211 277 1211 282 1183 281 1150 284 1127 286 1114 285 1063 293 972 306 866 311 792 309 768 323 771 337 768 333 817 333 855 339 924 346 1008 348 1113 351 1130 353 1176 361 1211 461 1211 458 1191 456 1170 460 1133 461 1082 505 905 516 839 518 826 512 762 503 706 486 648 482 629 386 690 318 718 266 690 184 629 153 637 132 731 119 781 118 813 123 862 131 916 166 1094 176 1179" fill="url(#id-female-6.6_base_6-8)" id="id-female-6.6_base_6-47">
</polygon >
<polygon points="463 664 416 771 400 819 392 1125 359 1178 398 1204 441 1153 461 1082 505 905 516 839 518 826 515 789 490 714" fill="url(#id-female-6.6_base_6-9)" id="id-female-6.6_base_6-47">
</polygon >
<polygon points="422 1160 395 1199 365 1171 401 1149 384 1120 391 983 411 786 416 771 448 697 454 1013 445 1116 407 1149" fill="url(#id-female-6.6_base_6-10)" id="id-female-6.6_base_6-80">
</polygon >
<polygon points="121 139 111 186 108 221 109 290 96 438 89 464 69 510 89 585 162 510 167 425 162 241" fill="url(#id-female-6.6_base_6-11)" id="id-female-6.6_base_6-47">
</polygon >
<polygon points="101 466 103 488 106 510 160 447 179 359 164 232 187 184 186 179 132 181 161 234 161 321 149 376 151 384 123 461 114 466" fill="url(#id-female-6.6_base_6-12)" id="id-female-6.6_base_6-82">
</polygon >
<polygon points="96 438 89 464 69 510 51 621 101 520 96 476" fill="#ffb988" id="id-female-6.6_base_6-47">
</polygon >
<polygon points="96 451 128 365 134 316 121 139 111 186 108 221 109 290 96 438" fill="#c57e4b" id="id-female-6.6_base_6-47">
</polygon >
<polygon points="184 241 177 248 162 225 138 289 161 321 170 375 161 420 151 411 162 510 167 425 188 343" fill="url(#id-female-6.6_base_6-13)" id="id-female-6.6_base_6-47">
</polygon >
<polygon points="284 1127 286 1114 285 1063 293 972 306 866 311 792 309 768 323 771 337 768 333 817 333 855 339 924 346 1008 375 889 416 771 463 664 490 714 515 790 512 762 503 706 486 648 477 599 471 583 420 650 316 720 201 654 244 742 264 824 275 994" fill="url(#id-female-6.6_base_6-14)" id="id-female-6.6_base_6-47">
</polygon >
<polygon points="298 930 306 866 311 792 309 768 323 771 337 768 333 817 333 855 336 894 347 826 360 784 378 733 388 687 321 739 254 687 267 736 291 821" fill="url(#id-female-6.6_base_6-15)" id="id-female-6.6_base_6-47">
</polygon >
<polygon points="348 1093 348 1113 351 1130 353 1176 361 1211 461 1211 439 1155 422 1136 403 1148 429 1168 400 1202 370 1170 382 1125" fill="url(#id-female-6.6_base_6-16)" id="id-female-6.6_base_6-47">
</polygon >
<polygon points="10 855 8 836 5 851 0 845 14 870" fill="#af5f3e" id="id-female-6.6_base_6-47">
</polygon >
<polygon points="520 500 516 520 544 629 474 500 490 399" fill="url(#id-female-6.6_base_6-17)" id="id-female-6.6_base_6-90">
</polygon >
<polygon points="461 1211 458 1191 456 1170 460 1133 461 1082 439 1155 450 1211" fill="url(#id-female-6.6_base_6-18)" id="id-female-6.6_base_6-47">
</polygon >
<polygon points="220 1149 259 1115 240 1063 232 973 266 819 240 713 201 661 158 650 201 784 183 925 170 1083" fill="url(#id-female-6.6_base_6-19)" id="id-female-6.6_base_6-92">
</polygon >
<polygon points="169 1211 277 1211 282 1183 281 1150 284 1127 286 1114 286 1098 226 1211 207 1211 196 1121 173 1078 150 1014 166 1094 176 1179" fill="url(#id-female-6.6_base_6-20)" id="id-female-6.6_base_6-47">
</polygon >
<polygon points="173 1078 183 924 150 1014" fill="#c57442" id="id-female-6.6_base_6-47">
</polygon >
<polygon points="169 1211 239 1211 230 1196 204 1175 173 1150 176 1179" fill="#8e512e" opacity="0.574" id="id-female-6.6_base_6-47">
</polygon >
<polygon points="221 1130 240 1097 224 1063 224 983 240 804 217 698 190 668 212 771 212 910 190 998 181 1094" fill="url(#id-female-6.6_base_6-21)" id="id-female-6.6_base_6-92">
</polygon >
<polygon points="217 795 221 692 200 667 169 658 200 737" fill="#f0a76b" id="id-female-6.6_base_6-97">
</polygon >
<polygon points="511 476 492 419 481 447 484 356 521 274 533 417" fill="url(#id-female-6.6_base_6-22)" id="id-female-6.6_base_6-98">
</polygon >
<polygon points="569 523 544 425 542 346 537 282 539 246 535 195 529 158 522 137 494 161 419 158 471 211 516 290 525 411 511 477 518 507 535 462 562 543" fill="url(#id-female-6.6_base_6-23)" id="id-female-6.6_base_6-47">
</polygon >
<polygon points="486 389 533 243 501 167 464 207 451 247 463 265" fill="url(#id-female-6.6_base_6-24)" id="id-female-6.6_base_6-100">
</polygon >
<polygon points="473 490 474 506 503 589 537 672 556 728 561 754 567 712 543 623" fill="#ad6139" id="id-female-6.6_base_6-47">
</polygon >
<polygon points="460 328 466 378 474 506 490 425 486 392 469 274 479 230 461 260 454 251" fill="url(#id-female-6.6_base_6-25)" id="id-female-6.6_base_6-47">
</polygon >
<polygon points="440 504 437 490 439 460 449 402 456 340 458 328 325 282 188 343 198 411 202 493 162 596 157 621 161 633 169 599 173 570 204 506 202 458 217 402 286 365 321 352 353 360 422 402 431 493 437 520" fill="url(#id-female-6.6_base_6-26)" id="id-female-6.6_base_6-47">
</polygon >
<polygon points="451 385 456 340 458 328 364 340 330 308 268 343 188 343 194 379 262 368 312 343 335 340 381 368" fill="url(#id-female-6.6_base_6-27)" id="id-female-6.6_base_6-47">
</polygon >
<polygon points="286 328 306 310 330 274 453 252 464 205 421 156 317 204 219 165 210 154 188 180" fill="url(#id-female-6.6_base_6-28)" id="id-female-6.6_base_6-105">
</polygon >
<path d="M 422 195 L 405 190 C 377 190 357 198 343 214 C 329 230 322 250 323 276 C 324 301 331 320 345 333 C 365 351 384 356 405 356 C 425 356 444 347 450 342 C 454 339 457 335 460 328 C 463 323 466 317 467 308 C 469 294 466 276 457 254 L 422 195 Z" fill="url(#id-female-6.6_base_6-29)" id="id-female-6.6_base_6-106">
</path >
<path d="M 422 195 L 417 175 C 386 188 366 196 358 201 C 355 203 351 206 348 208 C 348 209 381 253 448 342 C 454 338 459 332 463 324 C 469 310 469 301 469 293 C 469 287 465 275 459 257 L 422 195 Z" fill="url(#id-female-6.6_base_6-30)" id="id-female-6.6_base_6-106">
</path >
<path d="M 375 226 C 338 253 343 276 343 284 C 343 291 353 319 371 335 C 379 342 422 349 447 331 C 468 316 472 294 458 265 C 427 221 400 208 375 226 Z" fill="url(#id-female-6.6_base_6-31)" opacity="0.282" id="id-female-6.6_base_6-106">
</path >
<path d="M 272 205 C 260 199 243 200 221 209 C 187 227 169 258 168 303 C 167 319 184 342 190 346 C 197 351 212 356 239 353 C 257 351 272 344 284 333 C 303 312 312 288 309 260 C 305 217 291 214 272 205 Z" fill="url(#id-female-6.6_base_6-32)" id="id-female-6.6_base_6-109">
</path >
<path d="M 340 285 C 333 252 328 240 326 248 C 324 254 323 263 323 276 C 324 301 331 320 345 333 C 365 351 382 356 404 356 C 425 356 444 347 450 342 C 456 337 465 325 468 308 C 472 290 465 276 463 268 C 461 263 460 259 458 255 L 442 290 L 399 304 L 366 300 L 340 285 Z" fill="url(#id-female-6.6_base_6-33)" id="id-female-6.6_base_6-106">
</path >
<path d="M 153 637 L 149 654 L 132 731 L 130 739 C 133 730 135 723 137 718 C 140 709 147 691 149 680 C 151 671 155 655 161 633 L 172 570 L 162 596 L 153 637 Z" fill="#7d362e" id="id-female-6.6_base_6-47">
</path >
<path d="M 259 203 C 254 199 240 185 217 163 L 210 153 L 186 180 C 192 211 192 231 186 239 C 175 256 168 277 168 303 C 168 324 190 352 239 344 C 252 342 274 217 259 203 Z" fill="#e3a87c" id="id-female-6.6_base_6-109">
</path >
<polygon points="175 565 203 550 234 558 241 520 203 455 203 507" fill="#a95e2e" id="id-female-6.6_base_6-113">
</polygon >
<polygon points="241 442 241 518 229 556 233 629 266 657 316 707 381 659 395 629 364 504 350 504 301 380" fill="url(#id-female-6.6_base_6-34)" id="id-female-6.6_base_6-114">
</polygon >
<polygon points="432 626 427 589 407 518 414 505 450 568 470 618" fill="url(#id-female-6.6_base_6-35)" id="id-female-6.6_base_6-115">
</polygon >
<polygon points="302 376 254 442 254 546 302 590 364 568 364 504 350 504 376 454 345 400" fill="url(#id-female-6.6_base_6-36)" id="id-female-6.6_base_6-114">
</polygon >
<polygon points="317 480 342 436 319 413 300 447" fill="#e6b183" id="id-female-6.6_base_6-117">
</polygon >
<polygon points="304 541 318 507 329 541 314 549" fill="#ba703e" id="id-female-6.6_base_6-118">
</polygon >
<polygon points="306 543 316 578 329 541" fill="#d4925e" id="id-female-6.6_base_6-119">
</polygon >
<path d="M 178 333 C 179 334 180 336 182 338 C 184 342 186 343 189 346 C 190 347 197 351 206 353 C 215 354 226 355 239 353 C 257 351 272 344 284 333 C 293 322 299 313 302 305 C 304 301 307 293 309 277 C 310 274 310 268 309 260 L 228 277 L 207 295 L 178 333 Z" fill="url(#id-female-6.6_base_6-37)" id="id-female-6.6_base_6-109">
</path >
<polygon points="306 543 308 550 324 556 329 541" fill="#e6b183" id="id-female-6.6_base_6-119">
</polygon >
<polygon points="308 543 318 525 323 542 314 548" fill="#8f4427" id="id-female-6.6_base_6-122">
</polygon >
<polygon points="152 641 162 596 176 561 185 617 214 602 246 628 323 690 404 628 423 605 454 605 470 577 477 599 482 629 388 689 337 768 323 771 309 768 259 688 175 639 142 688" fill="url(#id-female-6.6_base_6-38)" opacity="0.442" id="id-female-6.6_base_6-123">
</polygon >
<polygon points="490 154 522 137 484 118 412 123" fill="url(#id-female-6.6_base_6-39)" id="id-female-6.6_base_6-47">
</polygon >
<polygon points="573 785 588 829 602 858 607 852 600 821 597 716 576 763" fill="#e19271" id="id-female-6.6_base_6-47">
</polygon >
<polygon points="574 722 589 695 582 655 533 542" fill="url(#id-female-6.6_base_6-40)" id="id-female-6.6_base_6-47">
</polygon >
<polygon points="172 640 241 690 309 768 323 771 338 768 395 706 469 661 404 650 313 706 217 629" fill="url(#id-female-6.6_base_6-41)" opacity="0.571" id="id-female-6.6_base_6-127">
</polygon >
<g transform="translate(188,270)" id="id-female-6.6_base_6-128">
<polygon points="207 13 207 10 217 2 220 2 239 21 258 39 260 42 250 51 246 52 226 33" fill="url(#id-female-6.6_base_6-42)" id="id-female-6.6_base_6-129">
</polygon >
<polygon points="208 40 218 50 222 50 240 33 257 13 257 9 247 0 244 1 230 19 209 36" fill="url(#id-female-6.6_base_6-43)" id="id-female-6.6_base_6-130">
</polygon >
<polygon points="1 13 1 10 10 2 15 2 32 21 50 39 52 42 42 52 38 52 19 33" fill="url(#id-female-6.6_base_6-44)" id="id-female-6.6_base_6-129">
</polygon >
<polygon points="0 43 10 53 14 53 33 35 50 15 50 11 40 3 36 4 19 23 1 39" fill="url(#id-female-6.6_base_6-45)" id="id-female-6.6_base_6-130">
</polygon >
</g >
</g >
<defs >
<linearGradient x1="69%" y1="0%" x2="69%" y2="21%" id="id-female-6.8_face_6-0">
<stop stop-color="#bb95af" offset="0%">
</stop >
<stop stop-color="#a56846" offset="100%">
</stop >
</linearGradient >
<radialGradient cx="50%" cy="61%" r="61%" id="id-female-6.8_face_6-1" fx="50%" fy="61%" gradientTransform="translate(0.5,0.609) scale(1,0.694) rotate(180) scale(1,1) translate(-0.5,-0.609)">
<stop stop-color="#d69e7b" offset="0%">
</stop >
<stop stop-color="#bf8763" offset="100%">
</stop >
</radialGradient >
<radialGradient cx="50%" cy="74%" r="74%" id="id-female-6.8_face_6-2" fx="50%" fy="74%" gradientTransform="translate(0.5,0.744) scale(0.748,1) rotate(-90) scale(1,0.864) translate(-0.5,-0.744)">
<stop stop-color="#deb99d" offset="0%">
</stop >
<stop stop-color="#89522f" offset="100%">
</stop >
</radialGradient >
<linearGradient x1="39%" y1="37%" x2="50%" y2="61%" id="id-female-6.8_face_6-3">
<stop stop-color="#cd926d" offset="0%">
</stop >
<stop stop-color="#c28864" offset="100%">
</stop >
</linearGradient >
<radialGradient cx="50%" cy="37%" r="75%" id="id-female-6.8_face_6-4" fx="50%" fy="37%" gradientTransform="translate(0.5,0.372) scale(0.536,1) rotate(90) scale(1,2) translate(-0.5,-0.372)">
<stop stop-color="#e5a88a" offset="0%">
</stop >
<stop stop-color="#c18662" offset="100%">
</stop >
</radialGradient >
<radialGradient cx="52%" cy="68%" r="169%" id="id-female-6.8_face_6-5" fx="52%" fy="68%" gradientTransform="translate(0.522,0.681) scale(1,0.367) rotate(-105) translate(-0.522,-0.681)">
<stop stop-color="#a77870" offset="0%">
</stop >
<stop stop-color="#9d6039" offset="100%">
</stop >
</radialGradient >
<linearGradient x1="100%" y1="63%" x2="50%" y2="63%" id="id-female-6.8_face_6-6">
<stop stop-color="#613821" offset="0%">
</stop >
<stop stop-color="#ac704e" offset="100%">
</stop >
</linearGradient >
<linearGradient x1="91%" y1="62%" x2="50%" y2="78%" id="id-female-6.8_face_6-7">
<stop stop-color="#8b532c" offset="0%">
</stop >
<stop stop-color="#a46a47" offset="100%">
</stop >
</linearGradient >
<linearGradient x1="39%" y1="5%" x2="39%" y2="73%" id="id-female-6.8_face_6-8">
<stop stop-color="#9f6a88" offset="0%">
</stop >
<stop stop-color="#ab8495" offset="100%">
</stop >
</linearGradient >
<linearGradient x1="38%" y1="50%" x2="38%" y2="58%" id="id-female-6.8_face_6-9">
<stop stop-color="#d2aea4" offset="0%">
</stop >
<stop stop-color="#996343" offset="100%">
</stop >
</linearGradient >
<linearGradient x1="28%" y1="92%" x2="75%" y2="13%" id="id-female-6.8_face_6-10">
<stop stop-color="#b88261" offset="0%">
</stop >
<stop stop-color="#b88260" offset="100%">
</stop >
</linearGradient >
<linearGradient x1="64%" y1="50%" x2="0%" y2="68%" id="id-female-6.8_face_6-11">
<stop stop-color="#9c6849" offset="0%">
</stop >
<stop stop-color="#c18a67" offset="100%">
</stop >
</linearGradient >
<linearGradient x1="38%" y1="38%" x2="90%" y2="78%" id="id-female-6.8_face_6-12">
<stop stop-color="#8e5b3d" offset="0%">
</stop >
<stop stop-color="#976445" offset="66%">
</stop >
<stop stop-color="#b6805f" offset="100%">
</stop >
</linearGradient >
<linearGradient x1="22%" y1="54%" x2="78%" y2="45%" id="id-female-6.8_face_6-13">
<stop stop-color="#b68663" offset="0%">
</stop >
<stop stop-color="#7b482a" offset="100%">
</stop >
</linearGradient >
<linearGradient x1="23%" y1="50%" x2="73%" y2="59%" id="id-female-6.8_face_6-14">
<stop stop-color="#a77455" offset="0%">
</stop >
<stop stop-color="#86583f" offset="100%">
</stop >
</linearGradient >
<linearGradient x1="50%" y1="14%" x2="50%" y2="125%" id="id-female-6.8_face_6-15">
<stop stop-color="#a66e4d" offset="0%">
</stop >
<stop stop-color="#905938" offset="100%">
</stop >
</linearGradient >
<linearGradient x1="50%" y1="0%" x2="50%" y2="100%" id="id-female-6.8_face_6-16">
<stop stop-color="#a66e4d" offset="0%">
</stop >
<stop stop-color="#cc9775" offset="100%">
</stop >
</linearGradient >
<linearGradient x1="50%" y1="34%" x2="50%" y2="100%" id="id-female-6.8_face_6-17">
<stop stop-color="#b47851" offset="0%">
</stop >
<stop stop-color="#b57d5d" offset="100%">
</stop >
</linearGradient >
<linearGradient x1="0%" y1="50%" x2="87%" y2="50%" id="id-female-6.8_face_6-18">
<stop stop-color="#d89a72" offset="0%">
</stop >
<stop stop-color="#ebc09e" offset="50%">
</stop >
<stop stop-color="#d89a72" offset="100%">
</stop >
</linearGradient >
<linearGradient x1="83%" y1="50%" x2="22%" y2="58%" id="id-female-6.8_face_6-19">
<stop stop-color="#b9785b" offset="0%">
</stop >
<stop stop-color="#a7644e" offset="100%">
</stop >
</linearGradient >
<linearGradient x1="59%" y1="52%" x2="79%" y2="50%" id="id-female-6.8_face_6-20">
<stop stop-color="#a46d4d" offset="0%">
</stop >
<stop stop-color="#6e4331" offset="100%">
</stop >
</linearGradient >
<linearGradient x1="66%" y1="52%" x2="50%" y2="53%" id="id-female-6.8_face_6-21">
<stop stop-color="#945a3d" offset="0%">
</stop >
<stop stop-color="#885034" offset="100%">
</stop >
</linearGradient >
<linearGradient x1="50%" y1="56%" x2="44%" y2="48%" id="id-female-6.8_face_6-22">
<stop stop-color="#923f20" offset="0%">
</stop >
<stop stop-color="#472214" offset="100%">
</stop >
</linearGradient >
<linearGradient x1="50%" y1="62%" x2="44%" y2="45%" id="id-female-6.8_face_6-23">
<stop stop-color="#923f20" offset="0%">
</stop >
<stop stop-color="#472214" offset="100%">
</stop >
</linearGradient >
<linearGradient x1="106%" y1="53%" x2="76%" y2="50%" id="id-female-6.8_face_6-24">
<stop stop-color="#c06f5a" offset="0%">
</stop >
<stop stop-color="#401f21" offset="100%">
</stop >
</linearGradient >
<linearGradient x1="-8%" y1="55%" x2="25%" y2="53%" id="id-female-6.8_face_6-25">
<stop stop-color="#c06e59" offset="0%">
</stop >
<stop stop-color="#4c2426" offset="100%">
</stop >
</linearGradient >
<linearGradient x1="50%" y1="20%" x2="50%" y2="100%" id="id-female-6.8_face_6-26">
<stop stop-color="#a95357" offset="0%">
</stop >
<stop stop-color="#9c4a4c" offset="100%">
</stop >
</linearGradient >
</defs >
<g transform="translate(561,332)" id="id-female-6.8_face_6-27">
<g transform="translate(172,115)" id="id-female-6.8_face_6-28">
<polygon points="14 1 18 0 25 8 27 21 24 41 14 66 0 68" fill="url(#id-female-6.8_face_6-0)" id="id-female-6.8_face_6-29">
</polygon >
<polygon points="12 48 19 50 23 42 26 24 20 12 12 22" fill="#9d5d3d" id="id-female-6.8_face_6-30">
</polygon >
<polygon points="11 21 17 10 20 5 24 7 26 24 20 36 18 31 20 16 9 29" fill="#713215" id="id-female-6.8_face_6-31">
</polygon >
<polygon points="10 28 11 38 8 45 13 49 19 38 13 24" fill="#713215" id="id-female-6.8_face_6-32">
</polygon >
<polygon points="12 18 17 17 18 9" fill="#5e1c1d" id="id-female-6.8_face_6-33">
</polygon >
<polygon points="18 50 10 51 8 50 5 61 12 63 14 61" fill="#be8864" id="id-female-6.8_face_6-34">
</polygon >
</g >
<g transform="translate(0,113)" id="id-female-6.8_face_6-35">
<polygon points="13 0 5 0 0 13 4 36 13 63 25 67" fill="#77391d" id="id-female-6.8_face_6-36">
</polygon >
<polygon points="5 9 0 13 4 36 13 63 25 67 13 24" fill="#8a492b" id="id-female-6.8_face_6-36">
</polygon >
<polygon points="18 46 14 47 7 32 11 26 4 9 6 5 16 20 17 29" fill="#b27651" id="id-female-6.8_face_6-38">
</polygon >
<polygon points="13 62 20 62 18 49 11 53" fill="#b27651" id="id-female-6.8_face_6-39">
</polygon >
<polygon points="25 68 13 63 20 62 17 46 14 47 13 44 14 29 17 26 14 22 10 19 10 11 17 20" fill="#492111" id="id-female-6.8_face_6-40">
</polygon >
<polygon points="13 9 4 3 5 0 12 0" fill="#bb805d" id="id-female-6.8_face_6-41">
</polygon >
</g >
<path d="M 29 199 C 21 167 16 144 15 130 C 4 44 33 0 103 0 C 180 0 191 63 186 119 C 183 157 173 191 170 202 C 169 206 168 214 164 217 C 152 228 130 244 113 250 C 108 252 95 251 92 251 C 77 247 52 234 36 218 C 34 215 31 209 29 199 Z" fill="url(#id-female-6.8_face_6-1)" id="id-female-6.8_face_6-42">
</path >
<polygon points="32 104 40 91 49 101 72 91 83 36 53 39 28 83" fill="#deb99d" opacity="0.497" id="id-female-6.8_face_6-43">
</polygon >
<path d="M 15 130 C 4 44 33 0 103 0 C 180 0 191 63 186 119 L 166 114 L 161 101 L 167 68 C 159 55 158 51 147 43 C 142 40 113 40 59 43 L 31 93 L 35 103 L 24 131 L 15 130 Z" fill="url(#id-female-6.8_face_6-2)" id="id-female-6.8_face_6-42">
</path >
<polygon points="28 117 28 73 69 24 134 24 172 49 172 134 132 129 124 78 141 61 105 65 61 58 45 117" fill="#b3754b" opacity="0.36" id="id-female-6.8_face_6-45">
</polygon >
<polygon points="115 32 172 49 172 75 132 70 141 61 120 63" fill="#d99f71" opacity="0.503" id="id-female-6.8_face_6-45">
</polygon >
<polygon points="42 181 65 170 128 173 155 186 137 233 51 226" fill="url(#id-female-6.8_face_6-3)" id="id-female-6.8_face_6-47">
</polygon >
<polygon points="58 235 52 221 61 204 132 206 137 209 130 235 116 248 90 249" fill="url(#id-female-6.8_face_6-4)" id="id-female-6.8_face_6-48">
</polygon >
<path d="M 29 199 C 21 167 16 144 15 130 C 14 122 13 114 13 106 L 22 129 L 29 113 L 43 137 L 24 149 L 24 156 L 43 181 L 59 232 C 54 234 46 229 36 218 C 34 215 31 209 29 199 Z" fill="url(#id-female-6.8_face_6-5)" id="id-female-6.8_face_6-42">
</path >
<path d="M 59 232 C 71 240 82 245 90 246 C 98 248 109 248 121 245 C 117 248 115 249 113 250 C 108 252 95 251 92 251 C 77 247 52 234 36 218 C 34 216 32 211 30 204 C 36 212 46 222 59 232 Z" fill="#894339" id="id-female-6.8_face_6-42">
</path >
<path d="M 184 63 C 187 81 188 100 186 119 C 183 157 173 191 170 202 C 169 206 168 214 164 217 C 152 228 130 244 113 250 L 137 226 L 152 184 L 174 150 L 148 128 L 170 120 L 184 63 Z" fill="url(#id-female-6.8_face_6-6)" id="id-female-6.8_face_6-42">
</path >
<polygon points="178 153 148 128 176 117" fill="url(#id-female-6.8_face_6-7)" id="id-female-6.8_face_6-42">
</polygon >
<path d="M 175 80 L 185 120 C 173 183 166 215 164 217 C 160 220 155 224 150 229 L 158 217 L 178 153 L 175 117 L 170 125 L 165 114 L 175 80 Z" fill="url(#id-female-6.8_face_6-8)" id="id-female-6.8_face_6-42">
</path >
<polygon points="82 232 88 225 112 224 114 238 88 241" fill="#e5a98a" id="id-female-6.8_face_6-54">
</polygon >
<polygon points="61 204 65 171 96 163 129 174 133 206" fill="#c38561" id="id-female-6.8_face_6-55">
</polygon >
<polygon points="81 217 88 225 112 225 123 216 97 216" fill="#7d4632" id="id-female-6.8_face_6-56">
</polygon >
<polygon points="66 205 81 220 122 219 130 214 134 206" fill="#b17d5d" id="id-female-6.8_face_6-57">
</polygon >
<path d="M 128 176 L 125 167 L 116 159 L 83 155 C 79 156 76 155 74 153 C 73 151 72 146 72 140 L 62 143 C 65 145 67 147 70 150 C 73 153 76 157 79 161 L 69 177 L 81 180 L 119 176 L 128 176 Z" fill="url(#id-female-6.8_face_6-9)" id="id-female-6.8_face_6-58">
</path >
<polygon points="31 164 67 170 43 181" fill="#d2aea4" id="id-female-6.8_face_6-59">
</polygon >
<polygon points="91 193 95 177 102 179 101 196" fill="#dfa483" id="id-female-6.8_face_6-60">
</polygon >
<polygon points="102 179 101 197 112 196 106 175" fill="#cd9271" id="id-female-6.8_face_6-61">
</polygon >
<polygon points="153 141 129 161 118 136 144 145" fill="#e2a37c" id="id-female-6.8_face_6-62">
</polygon >
<polygon points="138 153 159 136 166 143 147 164" fill="url(#id-female-6.8_face_6-10)" id="id-female-6.8_face_6-62">
</polygon >
<polygon points="87 193 91 191 101 193 110 189 112 193 100 198" fill="#eabd9c" id="id-female-6.8_face_6-64">
</polygon >
<polygon points="34 132 26 124 32 107 50 99 69 108" fill="url(#id-female-6.8_face_6-11)" id="id-female-6.8_face_6-65">
</polygon >
<polygon points="153 130 134 111 145 101 159 101 167 111 171 123 166 132" fill="url(#id-female-6.8_face_6-12)" id="id-female-6.8_face_6-66">
</polygon >
<g transform="translate(42,102)" id="id-female-6.8_face_6-67">
<path d="M 73 31 C 80 24 87 20 94 19 C 101 19 109 21 118 26 L 113 21 L 101 9 L 108 3 L 73 7 L 67 30 L 73 31 Z" fill="url(#id-female-6.8_face_6-13)" id="id-female-6.8_face_6-68">
</path >
<path d="M 1 22 L 6 16 L 18 7 L 8 2 L 36 5 L 46 31 C 37 24 29 20 22 19 C 15 17 8 18 1 22 Z" fill="url(#id-female-6.8_face_6-14)" id="id-female-6.8_face_6-69">
</path >
<polygon points="63 0 79 9 71 30 42 26 32 8" fill="url(#id-female-6.8_face_6-15)" id="id-female-6.8_face_6-70">
</polygon >
<polygon points="63 0 78 8 55 28 43 26 48 15 40 6" fill="#bf845c" id="id-female-6.8_face_6-70">
</polygon >
<path d="M 34 69 C 35 67 35 65 36 64 C 37 61 40 57 43 53 L 44 35 L 51 24 L 64 24 L 75 32 L 75 35 L 71 34 L 71 54 C 75 58 77 60 78 62 C 79 64 79 66 80 69 L 34 69 Z" fill="url(#id-female-6.8_face_6-16)" id="id-female-6.8_face_6-72">
</path >
<path d="M 34 69 C 35 67 35 65 36 64 C 38 59 42 56 42 53 L 44 69 L 34 69 Z" fill="url(#id-female-6.8_face_6-17)" id="id-female-6.8_face_6-72">
</path >
<polygon points="44 35 36 24 51 25" fill="#905938" id="id-female-6.8_face_6-74">
</polygon >
<polygon points="51 25 53 49 48 68 57 71 69 67 61 49 64 25" fill="url(#id-female-6.8_face_6-18)" id="id-female-6.8_face_6-75">
</polygon >
<polygon points="35 71 38 79 51 79 60 84 69 79 75 78 79 73 80 71 57 72" fill="#672f24" opacity="0.696" id="id-female-6.8_face_6-76">
</polygon >
<path d="M 45 77 C 38 76 35 73 34 69 C 36 67 38 65 39 65 C 40 65 43 66 49 69 L 66 69 L 70 66 L 75 63 L 80 68 L 80 71 C 78 74 76 76 73 76 C 72 77 70 75 69 75 C 67 75 66 76 62 77 C 59 78 56 77 51 77 C 51 77 46 77 45 77 Z" fill="url(#id-female-6.8_face_6-19)" id="id-female-6.8_face_6-77">
</path >
<path d="M 48 77 C 42 75 41 73 43 73 C 46 73 50 74 55 77 L 48 77 Z" fill="#3d1811" id="id-female-6.8_face_6-78">
</path >
<path d="M 62 77 C 65 74 68 73 70 72 C 72 72 73 73 72 76 L 62 77 Z" fill="#3d1811" id="id-female-6.8_face_6-79">
</path >
<polygon points="47 64 53 69 63 63" transform="translate(55,66) rotate(-177) translate(-55,-66)" fill="#fbeaf6" id="id-female-6.8_face_6-80">
</polygon >
<polygon points="51 24 55 16 64 25" fill="#ebc09e" id="id-female-6.8_face_6-81">
</polygon >
</g >
<g transform="translate(25,117)" id="id-female-6.8_face_6-82">
<path d="M 9 13 C 17 5 24 0 32 0 C 39 0 46 6 52 17 L 9 13 Z" fill="#583b28" id="id-female-6.8_face_6-83">
</path >
<path d="M 34 8 C 25 3 24 0 32 0 C 39 0 46 6 52 17 L 34 8 Z" fill="#704e3a" id="id-female-6.8_face_6-83">
</path >
<path d="M 92 20 C 92 10 98 4 109 2 C 119 0 128 4 135 13 L 92 20 Z" fill="#734e38" id="id-female-6.8_face_6-85">
</path >
<path d="M 106 13 C 105 6 106 2 110 1 C 114 1 118 3 121 8 L 106 13 Z" fill="#aa7f71" id="id-female-6.8_face_6-85">
</path >
<path d="M 97 23 C 109 28 118 29 123 28 C 125 28 130 26 137 23 L 136 18 C 128 21 122 23 118 23 C 111 24 103 21 97 23 Z" fill="url(#id-female-6.8_face_6-20)" id="id-female-6.8_face_6-87">
</path >
<path d="M 10 24 C 19 28 26 29 32 28 C 38 27 46 24 54 20 L 50 18 C 43 21 37 23 32 23 C 28 23 23 21 18 20 L 10 24 Z" fill="url(#id-female-6.8_face_6-21)" id="id-female-6.8_face_6-88">
</path >
<path d="M 10 24 C 16 26 19 27 22 28 C 22 23 32 23 35 23 C 27 23 22 21 18 19 L 10 24 Z" fill="#6e4331" id="id-female-6.8_face_6-88">
</path >
<path d="M 37 22 C 40 21 45 20 51 18 C 45 11 39 7 34 7 C 28 7 22 11 16 18 C 26 21 33 22 37 22 Z" fill="#e6d4c6" id="id-female-6.8_face_6-90">
</path >
<path d="M 98 20 C 107 22 113 23 117 22 C 122 21 126 20 130 17 L 117 7 L 107 9 L 100 15 L 98 20 Z" fill="#e6d4c6" id="id-female-6.8_face_6-91">
</path >
<path d="M 98 20 C 99 21 101 21 101 21 C 103 15 107 12 112 12 C 116 11 122 14 128 20 C 129 19 130 18 131 17 C 127 11 122 8 117 7 C 112 7 106 9 100 15 L 98 20 Z" fill="#000000" opacity="0.297" id="id-female-6.8_face_6-91">
</path >
<path d="M 95 20 L 101 21 C 100 21 99 20 100 19 C 100 18 101 17 102 15 L 95 20 Z" fill="#b26261" id="id-female-6.8_face_6-93">
</path >
<path d="M 25 13 C 25 19 28 22 33 21 C 39 21 42 18 42 12 C 40 9 37 7 32 7 C 28 7 26 9 25 13 Z" fill="#250a10" id="id-female-6.8_face_6-94">
</path >
<path d="M 30 16 L 26 17 C 28 20 30 21 33 21 C 37 21 40 19 41 15 C 41 15 40 15 36 15 C 36 17 35 18 34 18 C 32 18 31 17 30 16 Z" fill="url(#id-female-6.8_face_6-22)" id="id-female-6.8_face_6-94">
</path >
<path d="M 47 19 C 48 19 49 18 51 18 C 45 11 39 7 34 7 C 28 7 22 11 16 18 L 21 20 C 25 14 28 11 30 11 C 38 11 44 13 47 19 Z" fill="#000000" opacity="0.296" id="id-female-6.8_face_6-90">
</path >
<polygon points="32 15 32 14 33 14 33 12 30 12 30 15" fill="#b99794" id="id-female-6.8_face_6-97">
</polygon >
<path d="M 106 13 C 105 16 106 19 109 21 L 118 21 C 121 20 123 17 123 12 C 118 11 115 11 113 11 C 111 11 109 12 106 13 Z" fill="url(#id-female-6.8_face_6-23)" id="id-female-6.8_face_6-98">
</path >
<path d="M 106 13 C 105 16 106 19 109 21 C 108 19 107 18 107 17 C 108 17 108 17 110 16 C 110 16 110 19 113 19 C 116 19 118 17 119 15 C 120 15 121 15 122 15 C 122 17 120 19 118 21 C 122 20 123 15 123 12 C 121 9 118 7 113 7 C 109 7 106 9 106 13 Z" fill="#15050f" id="id-female-6.8_face_6-98">
</path >
<polygon points="114 13 111 14 112 16 114 16" fill="#d2b0ad" id="id-female-6.8_face_6-100">
</polygon >
<path d="M 47 14 C 47 16 47 17 47 17 C 47 18 47 19 46 19 L 51 18 L 47 14 Z" fill="#b26261" id="id-female-6.8_face_6-101">
</path >
<polygon points="47 15 52 19 54 20 53 18 48 15" fill="#26070c" id="id-female-6.8_face_6-102">
</polygon >
<path d="M 11 24 L 18 20 L 25 22 L 18 17 C 22 13 27 10 33 9 C 38 9 42 13 47 15 C 47 15 48 15 48 15 C 42 8 37 6 32 6 C 22 6 17 12 12 13 C 10 14 6 12 0 8 C 2 13 4 15 5 17 C 7 18 10 19 13 19 L 11 24 Z" fill="#26070c" id="id-female-6.8_face_6-103">
</path >
<path d="M 93 20 C 94 20 95 20 95 20 C 101 15 107 8 112 8 C 117 7 123 11 129 17 L 122 23 L 132 20 L 137 23 L 136 18 C 139 17 141 16 142 15 C 143 13 144 11 145 7 C 140 11 137 12 135 12 C 133 11 122 4 115 5 C 106 5 99 11 93 20 Z" fill="#24060d" id="id-female-6.8_face_6-104">
</path >
<polygon points="118 21 103 22 113 23" fill="#d0956f" id="id-female-6.8_face_6-105">
</polygon >
<polygon points="42 20 27 21 28 22 34 23" fill="#d0956f" id="id-female-6.8_face_6-105">
</polygon >
</g >
<g transform="translate(27,94)" id="id-female-6.8_face_6-107">
<path d="M 0 20 C 9 14 13 11 13 11 C 38 18 51 22 51 22 C 51 14 51 11 51 11 C 50 10 49 10 49 10 C 49 12 50 13 50 13 C 46 9 45 8 45 8 C 46 11 47 13 47 13 C 43 9 41 6 41 6 C 33 4 23 3 13 2 C 7 9 2 15 0 20 Z" fill="url(#id-female-6.8_face_6-24)" id="id-female-6.8_face_6-108">
</path >
<path d="M 90 22 C 88 16 87 12 87 12 C 89 11 89 10 89 10 C 90 12 90 13 90 13 C 91 10 93 8 95 8 C 94 11 93 13 93 13 L 99 6 C 108 4 119 -2 128 1 L 137 8 C 140 15 142 18 142 18 L 130 10 C 113 13 100 17 90 22 Z" fill="url(#id-female-6.8_face_6-25)" id="id-female-6.8_face_6-109">
</path >
</g >
<g transform="translate(66,192)" id="id-female-6.8_face_6-110">
<polygon points="2 14 11 20 60 19 68 14 67 14 21 6" fill="#481a12" id="id-female-6.8_face_6-111">
</polygon >
<path d="M 8 18 L 20 27 C 26 28 31 29 35 29 C 38 29 44 28 51 26 L 61 18 L 52 14 L 35 16 L 17 14 L 8 18 Z" fill="#944749" id="id-female-6.8_face_6-112">
</path >
<path d="M 20 27 C 26 28 31 29 35 29 C 38 29 44 28 51 26 C 52 23 53 21 53 19 C 53 18 53 16 52 14 L 35 16 L 17 14 C 17 17 17 19 17 20 C 17 22 18 24 20 27 Z" fill="url(#id-female-6.8_face_6-26)" id="id-female-6.8_face_6-112">
</path >
<path d="M 2 14 C 6 15 9 15 13 14 C 18 14 19 12 22 12 C 26 12 30 13 35 13 C 39 13 42 12 46 12 C 51 12 51 14 56 14 C 59 15 63 15 67 14 C 65 13 63 12 62 11 C 55 5 51 1 49 1 C 45 -1 39 3 35 3 C 30 3 30 1 24 1 C 21 1 16 5 8 10 C 7 11 5 11 2 12 L 0 13 L 2 14 Z" fill="#803d36" id="id-female-6.8_face_6-114">
</path >
<path d="M 19 11 C 27 8 33 7 35 7 C 39 7 43 11 48 11 C 57 11 63 12 63 11 C 55 5 51 1 49 1 C 45 -1 39 3 35 3 C 30 3 30 1 24 1 C 21 1 16 4 7 10 C 6 10 5 11 2 12 L 19 11 Z" fill="#8d4740" id="id-female-6.8_face_6-114">
</path >
<path d="M 19 11 C 27 8 33 7 35 7 L 35 3 C 30 3 30 1 24 1 L 19 11 Z" fill="#823537" id="id-female-6.8_face_6-114">
</path >
<path d="M 19 18 C 18 18 18 19 19 22 C 22 22 23 21 27 23 C 30 24 37 24 49 22 C 36 22 26 20 19 18 Z" fill="#df909d" id="id-female-6.8_face_6-117">
</path >
</g >
</g >
<defs >
<linearGradient x1="95%" y1="54%" x2="0%" y2="50%" id="id-female-11_neon_top-0">
<stop stop-color="#54338f" offset="0%">
</stop >
<stop stop-color="#13a0b0" offset="11%">
</stop >
<stop stop-color="#36c0d2" offset="21%">
</stop >
<stop stop-color="#3593c9" offset="32%">
</stop >
<stop stop-color="#5080cb" offset="50%">
</stop >
<stop stop-color="#656ec5" offset="67%">
</stop >
<stop stop-color="#be3fc0" offset="86%">
</stop >
<stop stop-color="#5e98d0" offset="100%">
</stop >
</linearGradient >
<radialGradient cx="50%" cy="10%" r="93%" id="id-female-11_neon_top-1" fx="50%" fy="10%" gradientTransform="translate(0.5,0.105) scale(0.406,1) rotate(90) scale(1,1) translate(-0.5,-0.105)">
<stop stop-color="#d1a2ea" offset="0%">
</stop >
<stop stop-color="#ae48c1" offset="44%">
</stop >
<stop stop-color="#54338f" offset="100%">
</stop >
</radialGradient >
<radialGradient cx="52%" cy="35%" r="46%" id="id-female-11_neon_top-2" fx="52%" fy="35%" gradientTransform="translate(0.524,0.347) scale(0.398,1) rotate(90) scale(1,3) translate(-0.524,-0.347)">
<stop stop-color="#76d9d3" offset="0%">
</stop >
<stop stop-color="#0ab0bc" offset="51%">
</stop >
<stop stop-color="#54338f" offset="100%">
</stop >
</radialGradient >
<linearGradient x1="100%" y1="50%" x2="0%" y2="50%" id="id-female-11_neon_top-3">
<stop stop-color="#a8dde4" offset="0%" stop-opacity="0">
</stop >
<stop stop-color="#34b9a8" offset="100%">
</stop >
</linearGradient >
<filter width="120%" height="124%" x="-10%" y="-12%" id="id-female-11_neon_top-4" filterUnits="objectBoundingBox">
<feGaussianBlur in="SourceGraphic" stdDeviation="2">
</feGaussianBlur >
</filter >
<filter width="134%" height="132%" x="-17%" y="-16%" id="id-female-11_neon_top-5" filterUnits="objectBoundingBox">
<feGaussianBlur in="SourceGraphic" stdDeviation="4">
</feGaussianBlur >
</filter >
<linearGradient x1="100%" y1="50%" x2="0%" y2="50%" id="id-female-11_neon_top-6">
<stop stop-color="#ffffff" offset="0%" stop-opacity="0">
</stop >
<stop stop-color="#ffffff" offset="100%" stop-opacity="0.246">
</stop >
</linearGradient >
<linearGradient x1="42%" y1="6%" x2="58%" y2="97%" id="id-female-11_neon_top-7">
<stop stop-color="#2d438a" offset="0%">
</stop >
<stop stop-color="#6972b9" offset="6%">
</stop >
<stop stop-color="#2e448b" offset="16%">
</stop >
<stop stop-color="#2e448b" offset="28%">
</stop >
<stop stop-color="#01215e" offset="38%">
</stop >
<stop stop-color="#01215e" offset="100%">
</stop >
</linearGradient >
<linearGradient x1="100%" y1="50%" x2="0%" y2="50%" id="id-female-11_neon_top-8">
<stop stop-color="#01215e" offset="0%">
</stop >
<stop stop-color="#01215e" offset="22%">
</stop >
<stop stop-color="#484298" offset="44%">
</stop >
<stop stop-color="#1c2e74" offset="73%">
</stop >
<stop stop-color="#01215e" offset="84%">
</stop >
<stop stop-color="#064470" offset="100%">
</stop >
</linearGradient >
</defs >
<g transform="translate(494,592)" id="id-female-11_neon_top-9">
<g transform="translate(17,360)" fill="#000000" fill-opacity="0.341" id="id-female-11_neon_top-10">
<path d="M 263 50 C 265 40 266 36 267 37 L 154 0 L 22 31 L 25 91 C 9 133 1 154 1 154 C 18 129 27 116 27 116 C 36 77 42 56 48 52 C 53 48 115 44 235 41 C 244 42 254 45 263 50 Z" id="id-female-11_neon_top-11">
</path >
</g >
<path d="M 281 405 C 287 400 289 397 289 397 C 298 328 302 293 302 293 C 309 283 316 273 319 265 C 314 231 306 208 297 190 C 263 172 193 197 160 197 C 127 197 38 176 33 182 C 28 188 20 195 18 199 C 8 218 0 235 0 256 C 5 272 13 286 24 299 C 30 323 31 367 33 404 C 36 406 37 408 40 409 C 40 406 40 404 40 404 C 46 398 96 397 161 397 C 198 397 237 388 281 399 L 281 405 Z" fill="url(#id-female-11_neon_top-0)" id="id-female-11_neon_top-12">
</path >
<path d="M 40 409 C 37 408 36 406 33 404 C 32 376 30 347 28 320 C 55 304 122 297 229 299 L 299 309 L 289 397 L 281 405 L 281 399 C 243 397 202 397 157 397 C 123 397 45 397 40 404 L 40 409 Z" fill="url(#id-female-11_neon_top-1)" opacity="0.649" id="id-female-11_neon_top-13">
</path >
<path d="M 302 293 C 309 283 316 273 319 265 C 314 231 306 208 297 190 C 263 172 193 197 160 197 C 127 197 38 176 33 182 C 28 188 20 195 18 199 C 8 218 0 235 0 256 C 5 272 13 286 24 299 C 30 323 302 293 302 293 Z" fill="url(#id-female-11_neon_top-2)" opacity="0.686" id="id-female-11_neon_top-12">
</path >
<path d="M 28 320 C 36 326 40 329 40 329 L 48 392 L 32 390 C 32 372 30 348 28 320 Z" fill="#57268b" fill-opacity="0.824" id="id-female-11_neon_top-15">
</path >
<path d="M 4 245 C 8 261 13 277 24 293 L 7 280 C 3 269 2 257 4 245 Z" fill="#9035a7" fill-opacity="0.409" id="id-female-11_neon_top-16">
</path >
<path d="M 78 385 C 89 336 81 342 69 314 C 76 311 79 309 79 309 C 68 297 53 292 40 285 C 43 274 45 268 45 268 C 64 279 85 287 107 291 C 98 293 89 295 79 299 C 87 300 91 301 91 301 C 88 305 87 307 87 307 C 85 308 82 307 85 311 C 95 327 101 350 97 387 C 84 386 78 385 78 385 Z" fill="#48a4d8" fill-opacity="0.462" id="id-female-11_neon_top-17">
</path >
<path d="M 74 322 C 87 317 94 314 94 314 C 153 325 182 330 182 330 C 162 336 125 328 122 346 C 117 345 115 345 115 345 L 106 334 C 84 326 74 322 74 322 Z" fill="#000000" fill-opacity="0.19" id="id-female-11_neon_top-18">
</path >
<path d="M 93 311 C 115 317 127 320 127 320 C 152 316 165 315 165 315 L 114 305 C 100 309 93 311 93 311 Z" fill="#19e9dc" fill-opacity="0.229" id="id-female-11_neon_top-19">
</path >
<path d="M 122 298 C 155 306 171 310 171 310 L 231 295 C 158 297 122 298 122 298 Z" fill="#19e9dc" fill-opacity="0.229" id="id-female-11_neon_top-20">
</path >
<path d="M 200 292 C 147 294 120 295 120 295 C 174 278 201 269 201 269 C 218 266 227 265 227 265 L 185 285 C 195 289 200 292 200 292 Z" fill="#0fcdc7" fill-opacity="0.318" id="id-female-11_neon_top-21">
</path >
<path d="M 219 204 C 225 233 228 248 228 248 C 262 244 278 242 278 242 L 275 197 C 251 198 232 200 219 204 Z" fill="url(#id-female-11_neon_top-3)" id="id-female-11_neon_top-22" filter="url(#id-female-11_neon_top-4)">
</path >
<path d="M 231 269 C 238 242 225 225 191 217 C 192 212 192 210 192 210 C 212 199 234 192 261 193 L 241 199 C 255 221 252 244 231 269 Z" fill="#ffffff" fill-opacity="0.455" id="id-female-11_neon_top-24" filter="url(#id-female-11_neon_top-5)">
</path >
<path d="M 40 269 C 36 251 50 229 82 202 L 43 199 C 28 219 27 242 40 269 Z" fill="#ffffff" fill-opacity="0.337" id="id-female-11_neon_top-26">
</path >
<path d="M 82 199 C 51 200 35 200 35 200 L 63 189 C 75 196 82 199 82 199 Z" fill="#ffffff" fill-opacity="0.349" id="id-female-11_neon_top-27">
</path >
<path d="M 122 220 C 137 215 145 212 145 212 L 104 205 C 116 215 122 220 122 220 Z" fill="#e398f0" id="id-female-11_neon_top-28">
</path >
<path d="M 212 336 L 296 325 L 289 386 C 251 389 184 392 135 389 C 171 374 212 375 212 336 Z" fill="url(#id-female-11_neon_top-6)" id="id-female-11_neon_top-29">
</path >
<path d="M 77 187 C 125 192 143 202 197 193 C 202 191 207 190 210 189 L 205 196 C 205 196 209 197 217 199 C 158 223 140 207 82 199 L 77 187 Z" fill="#000000" fill-opacity="0.165" id="id-female-11_neon_top-30">
</path >
<path d="M 168 343 L 143 334 C 154 332 172 333 182 330 C 145 324 127 320 127 320 L 167 315 C 207 315 264 307 297 320 L 296 325 C 216 335 174 341 168 343 Z" fill="#3a61a2" fill-opacity="0.383" id="id-female-11_neon_top-31">
</path >
<g transform="translate(11,63)" id="id-female-11_neon_top-32">
<path d="M 34 118 C 12 48 2 12 2 12 C 1 12 0 11 0 11 C 15 4 23 0 23 0 L 63 122 C 51 121 41 119 34 118 Z" fill="url(#id-female-11_neon_top-7)" id="id-female-11_neon_top-33">
</path >
<path d="M 11 0 C 8 6 7 9 7 9 C 12 10 14 11 14 11 L 20 5 C 14 2 11 0 11 0 Z" fill="#dce0e9" id="id-female-11_neon_top-34">
</path >
<path d="M 17 15 C 15 19 13 21 13 21 C 17 23 20 24 20 24 L 22 21 C 19 17 17 15 17 15 Z" fill="#dce0e9" id="id-female-11_neon_top-35">
</path >
<path d="M 20 29 C 18 32 17 34 17 34 C 21 37 23 38 23 38 L 27 31 C 22 29 20 29 20 29 Z" fill="#dce0e9" id="id-female-11_neon_top-36">
</path >
<path d="M 26 43 C 23 48 22 51 22 51 C 24 52 26 52 28 54 L 32 46 C 28 44 26 43 26 43 Z" fill="#dce0e9" id="id-female-11_neon_top-37">
</path >
<path d="M 30 57 C 28 63 27 65 27 65 C 30 66 32 66 35 68 L 37 61 C 32 59 30 57 30 57 Z" fill="#dce0e9" id="id-female-11_neon_top-38">
</path >
<path d="M 36 73 C 34 79 32 82 32 82 C 37 83 39 83 39 83 L 42 76 C 38 74 36 73 36 73 Z" fill="#dce0e9" id="id-female-11_neon_top-39">
</path >
<path d="M 40 88 C 37 95 36 98 36 98 C 41 99 43 99 43 99 L 46 93 C 42 90 40 88 40 88 Z" fill="#dce0e9" id="id-female-11_neon_top-40">
</path >
<path d="M 44 104 C 41 110 39 113 39 113 C 44 114 46 114 46 114 L 50 104 C 46 104 44 104 44 104 Z" fill="#dce0e9" id="id-female-11_neon_top-41">
</path >
</g >
<g transform="translate(106,0)" id="id-female-11_neon_top-42">
<path d="M 6 0 C 3 17 2 25 2 25 C 45 40 83 39 118 24 L 114 1 C 81 16 45 15 6 0 Z" fill="url(#id-female-11_neon_top-8)" id="id-female-11_neon_top-43">
</path >
<path d="M 0 12 C 3 10 4 9 4 9 C 6 13 7 15 7 15 L 2 18 C 1 14 0 12 0 12 Z" fill="#dddfef" id="id-female-11_neon_top-44">
</path >
<path d="M 12 18 C 16 15 18 13 18 13 C 21 17 23 19 23 19 L 17 25 C 14 20 12 18 12 18 Z" fill="#dddfef" id="id-female-11_neon_top-45">
</path >
<path d="M 30 22 C 35 19 37 17 37 17 C 39 21 40 23 40 23 L 35 28 C 32 24 30 22 30 22 Z" fill="#dddfef" id="id-female-11_neon_top-46">
</path >
<path d="M 55 25 C 59 21 61 19 61 19 C 63 23 64 25 64 25 L 60 29 C 57 26 55 25 55 25 Z" fill="#dddfef" id="id-female-11_neon_top-47">
</path >
<path d="M 77 24 C 80 20 82 18 82 18 C 86 22 88 23 88 23 L 83 28 C 79 25 77 24 77 24 Z" fill="#dddfef" id="id-female-11_neon_top-48">
</path >
<path d="M 98 21 C 101 17 102 15 102 15 C 105 18 107 19 107 19 L 104 24 C 100 22 98 21 98 21 Z" fill="#dddfef" id="id-female-11_neon_top-49">
</path >
<path d="M 113 16 C 115 12 116 9 116 9 C 119 12 120 13 120 13 L 117 19 C 115 17 113 16 113 16 Z" fill="#dddfef" id="id-female-11_neon_top-50">
</path >
<path d="M 83 15 C 87 11 90 9 90 9 L 73 11 C 80 14 83 15 83 15 Z" fill="#8494ed" id="id-female-11_neon_top-51">
</path >
</g >
</g >
<defs >
<linearGradient x1="51%" y1="6%" x2="49%" y2="89%" id="id-female-12_mini_skirt-0">
<stop stop-color="#161e2a" offset="0%">
</stop >
<stop stop-color="#18202d" offset="100%">
</stop >
</linearGradient >
</defs >
<g transform="translate(446,1048)" id="id-female-12_mini_skirt-1">
<path d="M 17 406 C 33 419 41 425 41 425 C 48 416 64 408 88 401 C 123 394 150 394 171 401 C 182 411 188 416 188 416 C 190 399 191 391 192 390 C 212 391 223 392 224 392 C 226 413 226 423 226 424 C 241 412 269 402 310 396 C 333 396 370 386 385 389 C 392 390 396 393 396 393 C 398 381 398 375 398 375 L 14 386 C 16 400 17 406 17 406 Z" fill="#000000" opacity="0.402" id="id-female-12_mini_skirt-2">
</path >
<path d="M 78 395 C 55 419 44 430 44 430 C 15 392 0 373 0 373 C 4 316 6 288 6 288 C 28 190 40 141 40 141 C 49 105 54 87 54 87 C 64 57 69 43 69 43 C 67 42 65 42 65 42 C 73 19 77 8 77 8 C 81 8 83 9 83 9 C 84 4 84 2 84 2 C 87 1 88 0 88 0 C 91 2 93 4 93 4 C 125 10 142 14 142 14 C 184 17 230 19 290 15 C 316 11 330 9 330 9 C 329 7 328 4 328 2 C 335 4 338 4 338 4 C 338 9 338 12 338 12 C 344 35 348 47 348 47 C 357 64 361 73 361 73 C 377 124 386 149 386 149 C 401 220 409 255 409 255 C 419 328 424 364 424 364 C 415 373 403 377 391 381 C 279 405 183 385 85 395 C 80 395 78 395 78 395 Z" fill="#121620" id="id-female-12_mini_skirt-3">
</path >
<path d="M 29 138 C 37 107 41 92 41 92 C 115 104 151 111 151 111 L 140 156 C 66 144 29 138 29 138 Z" fill="#192331" id="id-female-12_mini_skirt-4">
</path >
<path d="M 150 116 C 95 108 58 100 41 94 C 41 92 42 91 42 91 C 50 88 54 86 54 86 C 55 90 55 93 55 93 L 152 110 C 151 114 150 116 150 116 Z" fill="#1e2f45" id="id-female-12_mini_skirt-5">
</path >
<path d="M 72 142 C 78 136 81 133 81 133 C 77 126 74 122 74 122 L 64 131 C 70 139 72 142 72 142 Z" fill="#4d5e7b" id="id-female-12_mini_skirt-6">
</path >
<path d="M 98 150 C 101 150 102 150 102 150 C 110 160 114 165 114 165 C 101 244 98 307 104 353 C 58 397 35 419 35 419 C 29 411 26 408 26 408 C 42 400 48 384 47 363 C 91 301 108 230 98 150 Z" fill="#1d2a3e" id="id-female-12_mini_skirt-7">
</path >
<path d="M 77 379 C 83 358 86 345 88 339 L 87 370 C 81 376 77 379 77 379 Z" fill="#455672" id="id-female-12_mini_skirt-8">
</path >
<path d="M 104 353 C 112 283 120 233 129 181 L 114 165 C 100 239 96 301 104 353 Z" fill="url(#id-female-12_mini_skirt-0)" id="id-female-12_mini_skirt-9">
</path >
<path d="M 154 85 C 117 87 99 89 99 89 C 93 72 90 64 90 64 L 141 70 C 149 80 154 85 154 85 Z" fill="#192331" id="id-female-12_mini_skirt-10">
</path >
<path d="M 83 9 C 94 10 99 10 99 10 L 84 5 C 84 8 83 9 83 9 Z" fill="#192331" id="id-female-12_mini_skirt-11">
</path >
<path d="M 111 49 C 124 50 131 51 131 51 C 132 26 133 14 133 14 L 113 12 C 112 36 111 49 111 49 Z" fill="#4e607c" id="id-female-12_mini_skirt-12">
</path >
<path d="M 150 46 C 198 50 228 50 255 49 C 253 27 253 17 253 17 C 215 18 183 17 154 15 C 151 36 150 46 150 46 Z" fill="#1e2e45" id="id-female-12_mini_skirt-13">
</path >
<path d="M 207 18 C 207 14 207 13 207 13 C 234 13 247 13 247 13 C 247 41 247 55 247 55 C 220 55 207 55 207 55 C 207 52 207 51 207 51 C 229 51 239 51 239 51 L 239 18 C 218 18 207 18 207 18 Z" fill="#586b8b" id="id-female-12_mini_skirt-14">
</path >
<path d="M 170 52 C 165 52 163 51 163 51 C 163 25 163 12 163 12 L 169 12 C 170 39 170 52 170 52 Z" fill="#586b8b" id="id-female-12_mini_skirt-15">
</path >
<path d="M 186 39 C 183 35 181 34 181 34 C 185 29 188 26 188 26 L 191 33 C 188 37 186 39 186 39 Z" fill="#586b8b" id="id-female-12_mini_skirt-16">
</path >
<path d="M 225 39 C 220 36 217 34 217 34 C 221 29 224 27 224 27 L 229 33 C 226 37 225 39 225 39 Z" fill="#586b8b" id="id-female-12_mini_skirt-17">
</path >
<path d="M 288 38 C 284 35 283 33 283 33 C 286 29 288 27 288 27 L 293 33 C 290 37 288 38 288 38 Z" fill="#1e2e45" id="id-female-12_mini_skirt-18">
</path >
<path d="M 320 33 C 316 31 314 30 314 30 C 317 25 319 22 319 22 L 323 28 C 321 31 320 33 320 33 Z" fill="#1e2e45" id="id-female-12_mini_skirt-19">
</path >
<path d="M 330 53 C 335 52 337 52 337 52 C 333 24 332 9 332 9 L 324 11 C 328 39 330 53 330 53 Z" fill="#586b8b" id="id-female-12_mini_skirt-20">
</path >
<path d="M 341 48 C 349 46 353 46 353 46 C 347 23 344 12 344 12 L 333 12 C 339 36 341 48 341 48 Z" fill="#192537" id="id-female-12_mini_skirt-21">
</path >
<path d="M 139 51 C 138 58 138 61 138 61 C 173 62 190 63 190 63 C 260 58 295 55 295 55 L 295 52 C 212 55 160 55 139 51 Z" fill="#192331" id="id-female-12_mini_skirt-22">
</path >
<path d="M 168 71 C 201 85 217 93 217 93 C 217 111 216 131 209 155 C 245 139 263 131 263 131 C 265 105 275 86 292 75 C 309 86 318 91 318 91 C 319 72 319 62 319 62 L 265 74 C 201 72 168 71 168 71 Z" fill="#1f2f46" id="id-female-12_mini_skirt-23">
</path >
<path d="M 251 97 C 236 82 228 75 228 75 L 275 74 C 269 78 264 82 262 85 C 259 87 255 91 252 97" fill="#5b6e8e" id="id-female-12_mini_skirt-24">
</path >
<path d="M 143 92 C 167 86 178 84 178 84 L 186 78 L 217 92 C 218 113 216 134 209 155 C 232 157 243 157 243 157 C 233 170 228 176 228 176 C 179 178 155 180 155 180 C 186 134 201 112 201 112 L 186 99 C 163 99 149 97 143 92 Z" fill="#192331" id="id-female-12_mini_skirt-25">
</path >
<path d="M 243 157 C 220 156 209 155 209 155 C 207 161 205 164 205 164 L 197 177 L 228 176 L 231 172 L 243 157 Z" fill="#1b293b" id="id-female-12_mini_skirt-26">
</path >
<path d="M 239 163 C 195 172 173 177 173 177 L 228 176 L 231 172 C 236 166 239 163 239 163 Z" fill="#1e2e44" id="id-female-12_mini_skirt-27">
</path >
<path d="M 263 131 C 282 94 292 75 292 75 C 310 72 318 70 318 70 C 337 85 349 113 356 150 C 375 217 384 250 384 250 C 389 297 391 343 384 382 C 275 405 184 385 85 395 C 101 379 109 371 109 371 C 115 384 119 390 119 390 C 144 366 161 355 170 356 C 155 332 147 320 147 320 C 190 255 212 223 212 223 C 248 213 266 208 266 208 C 211 204 184 201 184 201 C 267 182 309 173 309 173 C 271 174 251 174 251 174 C 254 163 255 158 255 158 C 281 152 293 149 293 149 L 269 136 L 281 120" fill="#192331" id="id-female-12_mini_skirt-28">
</path >
<path d="M 193 227 C 187 228 183 229 183 229 L 162 272 C 183 242 193 227 193 227 Z" fill="#192331" id="id-female-12_mini_skirt-29">
</path >
<path d="M 203 203 C 287 186 328 178 328 178 C 279 211 254 228 254 228 C 229 268 217 288 217 288 C 265 309 289 320 289 320 C 226 335 195 343 195 343 C 197 376 198 393 198 393 C 175 392 151 392 124 393 C 171 365 187 284 217 222 L 274 209 C 227 205 203 203 203 203 Z" fill="#1d2c41" id="id-female-12_mini_skirt-30">
</path >
<path d="M 218 282 C 245 278 265 278 278 283 C 304 247 316 230 316 230 C 304 228 298 227 298 227 L 246 241 C 227 268 218 282 218 282 Z" fill="#141b26" id="id-female-12_mini_skirt-31">
</path >
<path d="M 195 343 C 234 349 257 354 263 357 C 279 367 273 392 273 392 C 287 370 300 346 310 316 C 233 334 195 343 195 343 Z" fill="#151c28" id="id-female-12_mini_skirt-32">
</path >
<path d="M 314 392 C 331 341 337 274 333 191 C 346 251 358 313 366 386 C 352 389 334 391 314 392 Z" fill="#1f3046" id="id-female-12_mini_skirt-33">
</path >
<path d="M 332 391 C 343 384 348 381 348 381 C 352 326 338 283 336 232 C 352 298 361 347 360 380 L 374 384 C 362 387 348 389 332 391 Z" fill="#526481" id="id-female-12_mini_skirt-34">
</path >
<path d="M 371 250 C 377 248 380 247 380 247 C 364 183 356 150 356 150 L 349 153 C 363 218 371 250 371 250 Z" fill="#5b6d8e" id="id-female-12_mini_skirt-35">
</path >
<path d="M 357 192 L 365 187 L 356 150 L 349 153 C 355 179 357 192 357 192 Z" fill="#94a7cc" id="id-female-12_mini_skirt-36">
</path >
<path d="M 333 216 C 327 176 323 140 320 107 L 323 101 C 330 168 333 206 333 216 Z" fill="#3f4d64" id="id-female-12_mini_skirt-37">
</path >
<path d="M 35 419 C 39 424 41 427 41 427 C 87 381 110 358 110 358 C 199 231 243 168 243 168 C 268 136 281 120 281 120 C 292 87 298 70 298 70 C 293 69 291 68 291 68 C 279 102 274 119 274 119 C 245 154 231 172 231 172 L 174 255 L 104 353 C 58 397 35 419 35 419 Z" fill="#5b6d8e" id="id-female-12_mini_skirt-38">
</path >
<path d="M 174 255 C 177 258 179 259 179 259 L 242 170 L 231 172 C 193 227 174 255 174 255 Z" fill="#8ea1c5" id="id-female-12_mini_skirt-39">
</path >
<polygon points="274 119 281 120 298 70 291 68" fill="#8699bd" id="id-female-12_mini_skirt-40">
</polygon >
</g >
<defs >
<linearGradient x1="50%" y1="11%" x2="50%" y2="100%" id="id-female-12.5_degen_shirt_eth_purple_front-0">
<stop stop-color="#3f217f" offset="0%">
</stop >
<stop stop-color="#422384" offset="32%">
</stop >
<stop stop-color="#3b2077" offset="58%">
</stop >
<stop stop-color="#3b2077" offset="100%">
</stop >
</linearGradient >
<linearGradient x1="50%" y1="11%" x2="50%" y2="99%" id="id-female-12.5_degen_shirt_eth_purple_front-1">
<stop stop-color="#4b2797" offset="0%">
</stop >
<stop stop-color="#4c2999" offset="26%">
</stop >
<stop stop-color="#432486" offset="100%">
</stop >
</linearGradient >
<linearGradient x1="76%" y1="13%" x2="5%" y2="100%" id="id-female-12.5_degen_shirt_eth_purple_front-2">
<stop stop-color="#eeedf5" offset="0%">
</stop >
<stop stop-color="#b6c8f0" offset="100%">
</stop >
</linearGradient >
<linearGradient x1="114%" y1="-24%" x2="8%" y2="100%" id="id-female-12.5_degen_shirt_eth_purple_front-3">
<stop stop-color="#eeedf5" offset="0%">
</stop >
<stop stop-color="#c5d2f1" offset="100%">
</stop >
</linearGradient >
</defs >
<g transform="translate(373,615)" id="id-female-12.5_degen_shirt_eth_purple_front-4">
<g transform="translate(25,0)" id="id-female-12.5_degen_shirt_eth_purple_front-5">
<path d="M 51 722 C 55 701 57 690 57 690 C 216 768 349 784 456 739 C 456 745 456 748 456 748 C 434 762 422 769 422 769 C 319 789 267 799 267 799 L 243 795 C 173 761 118 737 78 721 C 60 722 51 722 51 722 Z" fill="#000000" fill-opacity="0.303" id="id-female-12.5_degen_shirt_eth_purple_front-6">
</path >
<path d="M 50 688 C 52 675 53 669 53 669 C 57 665 58 664 58 664 C 58 653 58 648 58 648 C 62 643 64 641 64 641 C 71 588 74 561 74 561 C 82 548 86 542 86 542 C 85 530 85 524 85 524 C 92 511 95 505 95 505 C 92 483 91 472 91 472 C 98 460 102 455 102 455 C 112 420 117 403 117 403 C 115 369 114 353 114 353 C 106 366 102 373 102 373 C 65 376 47 378 47 378 C 16 365 0 359 0 359 C 9 235 37 185 22 108 C 38 87 46 77 46 77 C 73 57 122 41 165 19 C 163 15 177 9 185 1 C 193 17 197 24 197 24 C 235 63 276 62 320 22 C 334 11 345 8 353 13 C 377 31 413 48 448 64 C 455 69 458 71 458 71 C 475 95 484 108 484 108 C 495 184 507 259 524 327 C 520 331 518 333 518 333 C 466 348 439 356 439 356 C 419 358 409 358 409 358 C 410 407 415 448 425 482 C 426 497 427 505 427 505 C 449 575 461 611 461 611 C 455 633 464 679 473 726 C 461 735 454 743 426 760 C 387 771 199 783 50 688 Z" fill="url(#id-female-12.5_degen_shirt_eth_purple_front-0)" id="id-female-12.5_degen_shirt_eth_purple_front-7">
</path >
<path d="M 91 711 C 92 695 93 687 93 687 C 80 677 73 672 73 672 C 79 665 81 661 81 661 C 77 659 75 658 75 658 C 91 648 99 643 99 643 C 89 621 85 610 85 610 C 94 603 99 600 99 600 L 91 513 L 85 524 L 86 543 L 74 561 L 64 641 L 58 648 L 58 664 L 53 669 L 50 688 C 60 694 66 698 69 699 C 84 708 91 711 91 711 Z" fill="#2e185c" id="id-female-12.5_degen_shirt_eth_purple_front-8">
</path >
<path d="M 125 697 C 104 683 93 677 93 677 L 101 670 C 117 688 125 697 125 697 Z" fill="#281650" id="id-female-12.5_degen_shirt_eth_purple_front-9">
</path >
<path d="M 152 699 C 138 695 130 692 130 692 C 111 675 101 667 101 667 L 56 666 L 58 664 C 58 653 58 648 58 648 C 60 646 61 645 61 645 C 69 655 73 660 73 660 L 124 665 C 143 688 152 699 152 699 Z" fill="#26144b" id="id-female-12.5_degen_shirt_eth_purple_front-10">
</path >
<path d="M 64 641 C 73 650 78 655 78 655 C 90 643 96 637 96 637 C 85 609 79 595 79 595 L 87 604 C 95 601 99 600 99 600 C 97 581 96 571 96 571 L 72 579 C 67 620 64 641 64 641 Z" fill="#2c1756" id="id-female-12.5_degen_shirt_eth_purple_front-11">
</path >
<path d="M 73 573 C 87 554 94 544 94 544 L 92 519 L 85 524 L 84 542 L 74 561 C 73 569 73 573 73 573 Z" fill="#371c6c" id="id-female-12.5_degen_shirt_eth_purple_front-12">
</path >
<path d="M 85 524 L 98 515 L 94 504 C 88 517 85 524 85 524 Z" fill="#26144b" id="id-female-12.5_degen_shirt_eth_purple_front-13">
</path >
<path d="M 91 472 C 108 481 116 486 116 486 C 124 461 128 449 128 449 L 117 403 L 102 455 C 95 466 91 472 91 472 Z" fill="#321a64" id="id-female-12.5_degen_shirt_eth_purple_front-14">
</path >
<path d="M 102 373 L 99 266 L 114 318 L 114 353 C 106 366 102 373 102 373 Z" fill="#241348" id="id-female-12.5_degen_shirt_eth_purple_front-15">
</path >
<path d="M 47 379 C 47 365 48 359 48 359 C 65 357 73 356 73 356 C 79 311 81 288 81 288 C 85 298 88 303 88 304 C 88 304 88 304 88 304 C 88 338 88 354 88 354 C 94 354 97 354 97 354 L 96 373 C 63 377 47 379 47 379 Z" fill="#482493" id="id-female-12.5_degen_shirt_eth_purple_front-16">
</path >
<path d="M 96 373 C 97 339 98 322 98 322 C 91 274 85 227 75 174 C 93 240 103 273 103 273 L 105 228 C 105 265 111 288 114 318 L 102 373 C 98 373 96 373 96 373 Z" fill="#3b2077" id="id-female-12.5_degen_shirt_eth_purple_front-17">
</path >
<path d="M 37 135 C 37 153 37 161 37 161 C 56 219 74 274 94 318 C 86 273 76 229 66 174 C 69 167 70 163 70 163 C 60 131 55 115 55 115 C 54 90 53 78 53 78 C 44 108 39 123 39 123 C 55 141 63 150 63 150 L 61 161 C 45 144 37 135 37 135 Z" fill="#311b63" id="id-female-12.5_degen_shirt_eth_purple_front-18">
</path >
<path d="M 63 150 L 60 161 C 73 203 80 266 94 318 C 86 280 77 199 70 163 C 66 155 63 150 63 150 Z" fill="#2e185d" id="id-female-12.5_degen_shirt_eth_purple_front-19">
</path >
<path d="M 76 169 C 82 175 86 190 93 190 C 82 155 77 137 77 137 C 86 156 91 166 91 166 C 94 141 95 128 95 128 C 90 102 88 89 88 89 C 99 117 104 131 104 131 C 95 167 96 210 104 258 C 86 198 76 169 76 169 Z" fill="#311961" id="id-female-12.5_degen_shirt_eth_purple_front-20">
</path >
<path d="M 114 90 C 118 98 120 102 120 102 L 109 192 C 112 124 114 90 114 90 Z" fill="#341c69" id="id-female-12.5_degen_shirt_eth_purple_front-21">
</path >
<path d="M 108 229 C 120 151 126 112 126 112 C 138 101 144 95 144 95 C 177 110 194 117 194 117 L 212 37 C 242 59 279 61 321 22 L 330 0 C 335 5 344 7 351 12 C 344 48 294 72 246 97 C 278 101 294 102 294 102 C 356 65 387 46 387 46 C 418 58 434 64 434 64 C 443 64 448 64 448 64 C 455 68 458 71 458 71 C 452 76 450 79 450 79 C 444 129 441 154 441 154 C 434 156 430 157 430 157 C 434 102 436 75 436 75 C 422 93 415 102 415 102 C 421 146 424 168 424 168 C 336 298 292 363 292 363 C 364 348 400 340 400 340 C 394 394 394 454 400 517 C 327 636 291 695 291 695 C 248 690 205 685 174 693 L 187 649 L 141 502 L 168 399 L 144 319 L 135 193 L 120 218 C 112 226 108 229 108 229 Z" fill="url(#id-female-12.5_degen_shirt_eth_purple_front-1)" id="id-female-12.5_degen_shirt_eth_purple_front-22">
</path >
<path d="M 91 472 C 104 493 111 504 111 504 C 135 503 148 502 148 502 C 162 545 169 567 169 567 L 103 531 L 94 504 C 92 483 91 472 91 472 Z" fill="#422384" id="id-female-12.5_degen_shirt_eth_purple_front-23">
</path >
<path d="M 174 693 C 201 712 214 722 214 722 C 252 732 271 737 271 737 C 322 725 347 719 347 719 C 338 715 331 711 326 709 C 318 706 307 701 291 695 C 260 691 239 689 228 688 C 191 688 174 693 174 693 Z" fill="#321a64" id="id-female-12.5_degen_shirt_eth_purple_front-24">
</path >
<path d="M 291 695 C 328 711 347 719 347 719 C 379 690 395 675 395 675 C 414 611 424 579 424 579 L 413 530 L 400 517 C 327 636 291 695 291 695 Z" fill="#3f217e" id="id-female-12.5_degen_shirt_eth_purple_front-25">
</path >
<path d="M 395 675 C 404 632 421 593 432 551 C 444 576 450 588 450 588 L 446 623 C 412 658 395 675 395 675 Z" fill="#321a64" id="id-female-12.5_degen_shirt_eth_purple_front-26">
</path >
<path d="M 426 503 C 427 530 427 543 427 543 C 448 588 458 611 458 611 C 451 650 448 670 448 670 C 450 693 447 723 453 742 L 473 726 C 469 687 455 641 461 611 L 426 503 Z" fill="#2a1653" id="id-female-12.5_degen_shirt_eth_purple_front-27">
</path >
<path d="M 420 137 C 428 133 432 131 432 131 L 430 157 C 424 206 420 231 420 231 C 434 218 441 212 441 212 C 446 224 448 231 448 231 C 441 287 438 315 438 315 L 440 356 C 421 357 411 358 411 358 C 412 324 413 299 414 282 C 417 256 420 218 424 168 C 422 148 420 137 420 137 Z" fill="#321a64" id="id-female-12.5_degen_shirt_eth_purple_front-28">
</path >
<path d="M 430 157 C 426 164 424 168 424 168 L 420 231 C 427 182 430 157 430 157 Z" fill="#2a1653" id="id-female-12.5_degen_shirt_eth_purple_front-29">
</path >
<path d="M 439 356 C 436 302 439 263 446 231 C 443 216 436 214 443 157 C 456 142 462 135 462 135 L 497 339 C 458 350 439 355 439 356 Z" fill="#432387" id="id-female-12.5_degen_shirt_eth_purple_front-30">
</path >
<path d="M 424 168 L 396 241 C 400 269 400 306 400 341 L 409 358 C 415 292 419 248 420 227 C 424 187 424 168 424 168 Z" fill="#3b2077" id="id-female-12.5_degen_shirt_eth_purple_front-31">
</path >
<path d="M 484 108 C 476 168 496 249 518 333 L 524 327 C 508 257 495 184 484 108 Z" fill="#331b67" id="id-female-12.5_degen_shirt_eth_purple_front-32">
</path >
<path d="M 477 98 C 482 104 484 108 484 108 C 460 137 448 152 448 152 L 448 135 C 467 110 477 98 477 98 Z" fill="#4a2794" id="id-female-12.5_degen_shirt_eth_purple_front-33">
</path >
<path d="M 440 161 C 440 172 441 178 441 178 L 448 152 C 446 154 444 155 444 156 C 441 160 440 161 440 161 Z" fill="#2f195e" id="id-female-12.5_degen_shirt_eth_purple_front-34">
</path >
<path d="M 409 358 L 418 358 C 412 328 414 304 416 282 C 418 257 422 236 421 215 C 421 207 419 199 417 192 L 401 242 C 411 290 413 329 409 358 Z" fill="#432486" id="id-female-12.5_degen_shirt_eth_purple_front-35">
</path >
<path d="M 286 46 C 293 62 297 69 297 69 C 317 59 326 49 338 38 L 321 21 C 314 28 308 32 304 35 C 298 39 293 43 286 46 Z" fill="#552caa" id="id-female-12.5_degen_shirt_eth_purple_front-36">
</path >
<path d="M 206 67 C 170 70 128 65 83 56 C 110 45 136 33 165 19 C 169 32 182 48 206 67 Z" fill="#391f72" id="id-female-12.5_degen_shirt_eth_purple_front-37">
</path >
<path d="M 182 45 C 198 60 205 67 205 67 L 226 70 C 211 68 197 60 182 45 Z" fill="#2e185c" id="id-female-12.5_degen_shirt_eth_purple_front-38">
</path >
<path d="M 88 89 L 73 96 L 77 137 L 91 166 L 94 127 C 90 102 88 89 88 89 Z" fill="#3b1e75" id="id-female-12.5_degen_shirt_eth_purple_front-39">
</path >
<path d="M 53 72 C 39 99 32 119 31 134 L 36 374 L 0 359 C 4 309 13 251 23 191 C 27 162 28 134 22 108 L 46 77 C 51 74 53 72 53 72 Z" fill="#28144f" id="id-female-12.5_degen_shirt_eth_purple_front-40">
</path >
<path d="M 23 108 C 31 114 35 117 35 117 L 33 127 L 25 122 C 24 112 23 108 23 108 Z" fill="#24134a" id="id-female-12.5_degen_shirt_eth_purple_front-41">
</path >
<path d="M 121 724 C 126 711 129 705 129 705 C 159 719 193 730 232 737 L 227 756 C 200 750 182 746 172 743 C 146 736 130 729 121 724 Z" fill="#4a2794" id="id-female-12.5_degen_shirt_eth_purple_front-42">
</path >
<path d="M 296 745 C 296 759 296 765 296 765 C 330 769 364 769 394 765 L 392 745 C 343 750 310 749 296 745 Z" fill="#47258f" id="id-female-12.5_degen_shirt_eth_purple_front-43">
</path >
<path d="M 427 761 C 425 746 424 739 424 739 C 441 731 450 727 450 727 L 453 742 L 427 761 Z" fill="#47258f" id="id-female-12.5_degen_shirt_eth_purple_front-44">
</path >
</g >
<path d="M 426 737 C 441 734 448 732 448 732 C 451 751 452 761 452 761 L 430 765 C 427 746 426 737 426 737 Z" fill="#eeedf4" id="id-female-12.5_degen_shirt_eth_purple_front-45">
</path >
<g transform="translate(0,151)" id="id-female-12.5_degen_shirt_eth_purple_front-46">
<g transform="translate(492,0)" id="id-female-12.5_degen_shirt_eth_purple_front-5">
<path d="M 24 0 C 10 7 3 10 3 10 C 5 20 5 25 5 25 L 29 30 C 26 10 24 0 24 0 Z" fill="#eeedf4" id="id-female-12.5_degen_shirt_eth_purple_front-48">
</path >
<path d="M 25 5 C 13 10 8 13 8 13 C 9 19 9 22 9 22 L 28 25 C 26 12 25 5 25 5 Z" fill="#131313" id="id-female-12.5_degen_shirt_eth_purple_front-49">
</path >
<path d="M 35 64 C 12 74 0 79 0 79 C 9 155 14 193 14 193 L 63 179 C 44 102 35 64 35 64 Z" fill="#eeedf4" id="id-female-12.5_degen_shirt_eth_purple_front-50">
</path >
<path d="M 25 69 L 38 185 L 55 180 L 62 177 C 53 141 42 102 35 64 L 25 69 Z" fill="#eeedf4" id="id-female-12.5_degen_shirt_eth_purple_front-51">
</path >
<path d="M 38 76 C 16 84 5 88 5 88 C 7 104 8 111 8 111 L 44 102 C 40 85 38 76 38 76 Z" fill="#131313" id="id-female-12.5_degen_shirt_eth_purple_front-52">
</path >
<path d="M 25 137 C 33 136 37 135 37 135 C 43 171 46 189 46 189 L 33 192 C 28 156 25 137 25 137 Z" fill="#595445" id="id-female-12.5_degen_shirt_eth_purple_front-53">
</path >
<path d="M 26 141 L 38 139 L 37 135 L 25 137 C 26 140 26 141 26 141 Z" fill="#91886b" id="id-female-12.5_degen_shirt_eth_purple_front-54">
</path >
<path d="M 30 177 C 29 177 29 177 29 177 C 27 165 26 159 26 159 C 36 154 41 151 41 151 C 44 166 45 173 45 173 C 44 173 43 174 43 174 C 42 166 41 163 41 163 L 29 167 C 30 174 30 177 30 177 Z" fill="#868b9f" id="id-female-12.5_degen_shirt_eth_purple_front-55">
</path >
<path d="M 28 158 C 35 159 38 159 38 159 L 41 151 C 33 156 28 158 28 158 Z" fill="#f3efef" id="id-female-12.5_degen_shirt_eth_purple_front-56">
</path >
<path d="M 56 187 C 49 152 46 134 46 134 C 52 132 54 131 54 131 L 64 184 C 59 186 56 187 56 187 Z" fill="#595445" id="id-female-12.5_degen_shirt_eth_purple_front-57">
</path >
<path d="M 53 171 C 52 172 51 172 51 172 C 48 158 47 150 47 150 C 55 148 59 146 59 146 C 60 154 60 158 60 158 L 51 161 C 52 168 53 171 53 171 Z" fill="#868b9f" id="id-female-12.5_degen_shirt_eth_purple_front-58">
</path >
<path d="M 55 160 C 54 152 53 148 53 148 C 57 147 59 146 59 146 L 61 158 C 57 159 55 160 55 160 Z" fill="#f3efef" id="id-female-12.5_degen_shirt_eth_purple_front-59">
</path >
<path d="M 46 134 C 46 136 46 137 46 137 C 52 135 55 134 55 134 L 54 131 C 49 133 46 134 46 134 Z" fill="#91886b" id="id-female-12.5_degen_shirt_eth_purple_front-60">
</path >
</g >
<g transform="translate(42,118) rotate(-4) translate(-42,-118) translate(8,8)" id="id-female-12.5_degen_shirt_eth_purple_front-61">
<path d="M 32 94 C 56 101 69 105 69 105 C 61 183 57 222 57 222 L 2 195 C 22 128 32 94 32 94 Z" fill="#eeedf4" id="id-female-12.5_degen_shirt_eth_purple_front-62">
</path >
<path d="M 57 0 L 53 101 L 32 93 C 44 48 50 24 51 20 C 55 7 57 0 57 0 Z" fill="#000000" fill-opacity="0.137" id="id-female-12.5_degen_shirt_eth_purple_front-63">
</path >
<path d="M 29 104 C 50 110 61 113 61 113 L 59 124 L 40 124 C 37 131 34 138 29 144 C 26 144 22 144 17 144 C 25 117 29 104 29 104 Z" fill="#ee5798" id="id-female-12.5_degen_shirt_eth_purple_front-64">
</path >
<path d="M 31 160 C 40 161 45 162 45 162 C 37 199 34 218 34 218 L 19 212 C 27 177 31 160 31 160 Z" fill="#595446" id="id-female-12.5_degen_shirt_eth_purple_front-65">
</path >
<path d="M 22 157 C 15 191 11 209 11 209 C 4 206 0 204 0 204 L 12 156 C 19 157 22 157 22 157 Z" fill="#595446" id="id-female-12.5_degen_shirt_eth_purple_front-66">
</path >
<path d="M 8 173 C 17 175 21 176 21 176 C 19 187 18 192 18 192 C 15 192 14 192 14 192 C 15 186 16 183 16 183 L 5 181 C 7 176 8 173 8 173 Z" fill="#868b9f" id="id-female-12.5_degen_shirt_eth_purple_front-67">
</path >
<path d="M 11 160 C 18 161 22 161 22 161 C 22 159 22 157 22 157 L 12 156 C 11 158 11 160 11 160 Z" fill="#8b8368" id="id-female-12.5_degen_shirt_eth_purple_front-68">
</path >
<path d="M 30 163 C 39 165 44 165 44 165 C 45 163 45 161 45 161 L 31 159 C 30 162 30 163 30 163 Z" fill="#8b8368" id="id-female-12.5_degen_shirt_eth_purple_front-69">
</path >
<path d="M 23 194 C 21 193 20 193 20 193 C 23 183 24 177 24 177 C 38 181 44 183 44 183 C 42 193 41 198 41 198 C 39 197 38 197 38 197 C 39 192 39 190 39 190 L 25 186 C 24 191 23 194 23 194 Z" fill="#868b9f" id="id-female-12.5_degen_shirt_eth_purple_front-70">
</path >
<path d="M 11 182 C 12 177 13 174 13 174 C 9 173 8 173 8 173 L 5 181 C 9 182 11 182 11 182 Z" fill="#ffffff" id="id-female-12.5_degen_shirt_eth_purple_front-71">
</path >
<path d="M 24 177 C 28 181 30 183 30 183 L 44 183 C 31 179 24 177 24 177 Z" fill="#ffffff" id="id-female-12.5_degen_shirt_eth_purple_front-72">
</path >
<path d="M 50 12 C 58 15 62 16 62 16 C 62 32 62 40 62 40 C 59 48 58 52 58 52 L 43 48 C 47 24 50 12 50 12 Z" fill="#cfcfd6" id="id-female-12.5_degen_shirt_eth_purple_front-73">
</path >
</g >
</g >
<g transform="translate(190,152)" id="id-female-12.5_degen_shirt_eth_purple_front-74">
<path d="M 96 176 C 145 176 184 137 184 88 C 184 83 184 77 183 72 L 163 81 L 180 61 C 169 26 136 0 96 0 C 86 0 76 2 66 5 L 12 62 C 10 70 8 79 8 88 C 8 114 20 137 37 153 L 23 176 L 47 161 C 61 170 78 176 96 176 Z" stroke="#979797" fill="url(#id-female-12.5_degen_shirt_eth_purple_front-2)" id="id-female-12.5_degen_shirt_eth_purple_front-75">
</path >
<path d="M 0 65 L 52 8 C 39 13 28 21 20 30 C 11 39 5 51 0 65 Z" fill="url(#id-female-12.5_degen_shirt_eth_purple_front-3)" id="id-female-12.5_degen_shirt_eth_purple_front-76">
</path >
<polygon points="53 90 98 18 140 90 97 117" fill="#687887" id="id-female-12.5_degen_shirt_eth_purple_front-77">
</polygon >
<polygon points="98 18 140 90 97 117" fill="#232a35" id="id-female-12.5_degen_shirt_eth_purple_front-77">
</polygon >
<polygon points="53 100 98 159 140 100 96 124" fill="#687887" id="id-female-12.5_degen_shirt_eth_purple_front-79">
</polygon >
<polygon points="98 159 140 100 96 124" fill="#232a35" id="id-female-12.5_degen_shirt_eth_purple_front-79">
</polygon >
<polygon points="53 90 97 71 140 90 97 117" fill="#0c0c1a" opacity="0.618" id="id-female-12.5_degen_shirt_eth_purple_front-77">
</polygon >
</g >
</g >
<defs >
<linearGradient x1="47%" y1="5%" x2="51%" y2="64%" id="id-female-25_4_icy-0">
<stop stop-color="#e0d2e6" offset="0%">
</stop >
<stop stop-color="#fdf8ff" offset="100%">
</stop >
</linearGradient >
<linearGradient x1="53%" y1="18%" x2="45%" y2="94%" id="id-female-25_4_icy-1">
<stop stop-color="#fbf7fc" offset="0%">
</stop >
<stop stop-color="#e0d2e6" offset="63%">
</stop >
<stop stop-color="#f6edf8" offset="100%">
</stop >
</linearGradient >
<linearGradient x1="50%" y1="0%" x2="45%" y2="87%" id="id-female-25_4_icy-2">
<stop stop-color="#e1d4e8" offset="0%">
</stop >
<stop stop-color="#e3d6e8" offset="74%">
</stop >
<stop stop-color="#ffffff" offset="100%">
</stop >
</linearGradient >
<linearGradient x1="47%" y1="111%" x2="54%" y2="13%" id="id-female-25_4_icy-3">
<stop stop-color="#e5d9ea" offset="0%">
</stop >
<stop stop-color="#9c94b7" offset="100%">
</stop >
</linearGradient >
</defs >
<g transform="translate(484,312)" id="id-female-25_4_icy-4">
<path d="M 245 118 L 230 105 L 230 109 C 208 89 196 78 193 77 C 154 100 123 123 99 145 L 97 139 L 197 52 L 245 118 Z" fill="#000000" opacity="0.296" id="id-female-25_4_icy-5">
</path >
<g id="id-female-25_4_icy-6">
<polygon points="195 9 179 2 183 76 191 73 196 67 200 70 233 26 210 1" fill="#a49abc" id="id-female-25_4_icy-7">
</polygon >
<path d="M 197 27 L 215 28 L 198 34 L 205 54 L 198 54 L 197 65 C 203 74 207 81 211 86 C 213 88 217 89 225 90 L 239 114 C 247 142 251 163 251 175 C 254 231 249 275 258 314 C 269 362 287 395 311 412 C 302 388 296 371 292 360 C 284 340 276 321 273 307 C 267 281 265 249 266 210 C 268 234 271 252 273 263 C 275 274 279 290 286 311 C 285 292 284 272 283 249 C 282 227 282 204 282 181 C 283 214 288 244 297 272 C 301 287 310 302 314 317 C 315 321 315 330 315 344 C 317 347 319 349 321 352 C 322 340 322 321 317 311 C 306 286 298 267 294 247 C 286 205 286 164 275 118 C 269 92 263 75 260 67 C 252 44 236 23 213 3 C 212 2 206 7 196 17 L 197 27 Z" fill="url(#id-female-25_4_icy-0)" id="id-female-25_4_icy-7">
</path >
<path d="M 66 185 C 67 198 68 207 69 210 C 69 212 62 220 59 224 C 78 251 59 350 34 398 C 32 399 23 392 5 376 C 4 380 2 384 1 387 C 0 374 2 359 5 351 C 6 348 12 341 19 334 L 20 333 C 20 333 20 333 21 332 L 21 331 C 28 325 34 318 34 317 C 35 317 35 310 35 302 L 36 301 C 36 301 36 300 36 300 L 36 299 C 36 291 36 284 36 284 C 36 285 35 287 34 289 L 33 290 C 29 299 23 308 23 309 C 23 311 23 315 22 321 L 22 321 L 12 331 L 17 314 C 23 271 39 228 66 185 Z M 37 247 C 33 262 31 273 29 280 C 27 287 26 294 24 301 L 37 277 L 37 247 Z" fill="url(#id-female-25_4_icy-1)" id="id-female-25_4_icy-9">
</path >
<path d="M 194 25 L 179 2 C 141 11 113 28 96 53 C 84 71 78 82 76 134 C 75 145 72 162 66 185 C 67 209 68 225 69 235 C 71 252 76 265 77 274 C 78 287 81 326 80 330 C 80 332 79 316 76 280 C 59 332 49 362 46 370 C 44 374 40 383 34 397 C 36 384 38 378 38 378 C 30 382 23 375 17 358 L 5 376 C 3 404 8 427 20 445 C 22 425 22 420 31 404 C 35 400 39 398 43 394 C 43 394 68 344 69 343 C 69 343 47 390 48 390 C 54 384 96 352 97 342 C 105 292 97 235 89 198 C 88 192 82 169 81 164 C 81 161 90 150 91 147 C 91 144 92 152 93 157 C 106 131 146 100 182 77 C 186 74 190 68 193 58 L 194 34 L 187 37 L 194 25 Z" fill="url(#id-female-25_4_icy-2)" id="id-female-25_4_icy-7">
</path >
</g >
<g transform="translate(33,118)" id="id-female-25_4_icy-11">
<polygon points="58 8 54 25 51 41 58 29 59 33 65 1" fill="#bfb3cf" id="id-female-25_4_icy-7">
</polygon >
<polygon points="15 165 5 239 0 217 8 205 12 167" fill="url(#id-female-25_4_icy-3)" id="id-female-25_4_icy-13">
</polygon >
</g >
<g transform="translate(89,2)" id="id-female-25_4_icy-14">
<path d="M 117 76 C 119 81 126 89 138 100 L 135 90 L 150 112 C 157 136 161 162 163 189 C 166 155 162 126 153 102 C 167 83 173 71 171 65 C 165 47 154 30 138 14 C 136 12 137 31 132 46 C 127 62 113 69 117 76 Z" fill="#fffaff" id="id-female-25_4_icy-7">
</path >
<path d="M 50 32 C 55 28 60 25 64 23 C 67 22 74 21 83 21 C 86 7 87 1 86 1 C 50 10 24 27 7 51 C 4 55 2 58 0 62 C 0 63 5 58 18 51 C 21 49 27 47 37 43 C 29 60 25 71 25 76 C 24 84 26 91 30 96 L 61 72 L 32 102 L 39 108 C 51 96 61 87 67 82 C 73 76 79 72 86 69 L 87 56 L 67 62 L 83 54 L 83 51 L 69 51 L 83 46 L 83 23 C 74 24 68 25 64 26 C 59 27 55 29 50 32 Z" fill="#fdf8ff" id="id-female-25_4_icy-7">
</path >
</g >
</g >
<defs >
</defs >
<path d="M 1202 1685 C 1201 1683 1198 1681 1197 1679 C 1196 1678 1196 1676 1196 1675 C 1196 1674 1194 1672 1193 1671 C 1193 1670 1192 1669 1192 1668 C 1192 1667 1195 1666 1196 1665 C 1198 1663 1200 1661 1202 1658 C 1207 1649 1216 1643 1226 1641 C 1240 1638 1254 1644 1263 1655 C 1264 1657 1266 1660 1265 1663 C 1265 1664 1263 1665 1263 1666 C 1263 1667 1265 1669 1266 1670 C 1271 1673 1269 1673 1270 1678 C 1270 1682 1274 1681 1274 1685 L 1274 1685 L 1274 1686 C 1274 1686 1274 1686 1274 1686 C 1273 1688 1271 1688 1270 1689 C 1268 1691 1267 1692 1266 1694 C 1263 1698 1261 1700 1258 1704 C 1242 1719 1214 1716 1202 1696 C 1201 1695 1199 1691 1200 1689 C 1201 1688 1202 1688 1202 1685 L 1202 1685 Z M 1268 1685 C 1267 1682 1265 1682 1264 1679 C 1264 1678 1264 1677 1264 1676 C 1264 1675 1264 1674 1264 1674 C 1264 1673 1263 1672 1262 1672 C 1260 1670 1256 1669 1258 1665 C 1259 1662 1261 1662 1258 1658 C 1246 1643 1223 1641 1210 1656 C 1209 1658 1208 1659 1207 1661 C 1205 1663 1202 1665 1200 1667 C 1197 1669 1197 1669 1200 1671 C 1203 1675 1201 1676 1203 1679 C 1204 1681 1207 1682 1208 1685 L 1208 1685 L 1208 1685 C 1207 1690 1203 1688 1207 1694 C 1216 1706 1232 1711 1246 1705 C 1249 1704 1252 1702 1255 1699 C 1257 1697 1259 1694 1261 1691 C 1263 1689 1267 1687 1268 1685 L 1268 1685 Z M 1254 1685 C 1254 1682 1252 1682 1252 1680 C 1251 1677 1251 1673 1255 1674 C 1258 1675 1256 1678 1258 1680 C 1259 1682 1260 1682 1260 1685 L 1261 1686 L 1260 1686 C 1259 1688 1257 1689 1255 1690 C 1248 1694 1246 1699 1237 1700 C 1231 1701 1225 1700 1221 1697 C 1219 1696 1216 1694 1215 1692 C 1213 1689 1216 1688 1216 1685 C 1215 1683 1212 1682 1211 1680 C 1208 1677 1210 1673 1214 1674 L 1214 1674 L 1215 1675 C 1216 1678 1215 1679 1217 1681 C 1219 1682 1222 1683 1222 1686 C 1222 1689 1220 1690 1224 1692 C 1230 1696 1238 1695 1244 1691 C 1246 1690 1253 1687 1254 1685 L 1254 1685 Z M 1244 1674 C 1242 1675 1239 1674 1237 1673 C 1236 1672 1233 1670 1232 1669 C 1231 1669 1231 1668 1231 1667 C 1231 1666 1233 1665 1234 1664 C 1235 1662 1237 1661 1238 1659 C 1242 1652 1249 1658 1247 1663 C 1246 1665 1243 1666 1243 1668 C 1243 1670 1246 1671 1244 1674 L 1244 1674 L 1244 1674 L 1244 1674 Z M 1222 1656 C 1224 1655 1227 1656 1228 1659 C 1229 1660 1229 1661 1229 1663 C 1228 1665 1223 1666 1225 1669 C 1225 1670 1226 1670 1226 1671 C 1227 1674 1226 1675 1223 1675 C 1222 1675 1219 1673 1218 1672 C 1216 1671 1212 1669 1214 1666 C 1215 1664 1217 1664 1218 1662 C 1219 1660 1220 1658 1222 1656 L 1222 1656 Z" fill="#343d53" opacity="0.297" id="id-icons-Leftover-0">
</path >
</svg>