<?xml version="1.0" encoding="UTF-8"?>
<svg width="1320px" height="1760px" viewBox="0 0 1320 1760" version="1.1" xmlns="http://www.w3.org/2000/svg" xmlns:xlink="http://www.w3.org/1999/xlink">
<defs >
</defs >
<g transform="translate(0,-2)" id="id-bg-63-Group-0">
<rect fill="#cdd4e6" width="1320" height="1762" x="0" y="0" id="id-bg-63-Group-1">
</rect >
<g transform="translate(91,113)" fill="#b1bbd6" id="id-bg-63-Group-2">
<path d="M 579 1152 C 624 1159 646 1163 646 1163 C 630 1172 607 1213 587 1235 C 597 1215 607 1196 612 1171 C 590 1158 579 1152 579 1152 Z" id="id-bg-63-Group-3">
</path >
<path d="M 657 1148 C 607 1139 554 1129 501 1119 C 390 1106 306 1074 228 1015 C 214 982 200 951 193 905 C 290 1008 413 1067 572 1064 C 813 1048 1026 902 1081 649 C 1119 413 998 230 865 139 C 671 0 426 6 253 157 C 2 395 28 686 165 870 C 182 928 201 972 226 1013 C 147 950 74 868 28 715 C -8 569 7 422 103 272 C 204 108 337 28 492 4 C 631 -11 757 22 872 98 C 871 117 870 126 870 126 C 888 119 897 115 897 115 C 992 183 1061 279 1104 402 C 1109 461 1104 512 1098 563 C 1105 538 1113 513 1124 488 C 1151 680 1086 828 967 949 C 865 1044 749 1097 621 1115 C 645 1137 657 1148 657 1148 Z" id="id-bg-63-Group-4">
</path >
<path d="M 233 633 C 213 657 193 681 176 708 C 181 714 184 716 184 716 C 184 732 184 739 184 739 C 192 730 203 720 216 710 C 294 836 425 894 559 900 C 762 901 883 795 940 688 C 951 718 957 732 957 732 C 976 701 985 685 985 685 C 952 653 936 637 936 637 C 926 638 921 639 921 639 C 930 663 935 676 935 676 C 921 663 914 657 914 657 C 906 670 902 677 902 677 L 923 704 C 828 814 699 863 559 864 C 405 856 291 789 220 707 C 229 701 241 689 249 687 C 239 655 233 637 233 633 Z" id="id-bg-63-Group-5">
</path >
<path d="M 5 401 C 2 449 0 474 0 474 C 16 399 32 348 80 281 C 44 318 19 359 5 401 Z" id="id-bg-63-Group-6">
</path >
<path d="M 244 342 C 242 353 240 358 240 358 C 273 388 290 403 290 403 C 249 444 228 465 228 465 C 262 489 279 501 279 501 C 299 474 310 461 310 461 C 305 476 302 483 302 483 C 324 457 335 444 335 444 C 370 477 388 493 388 493 C 393 490 395 488 395 488 C 408 491 414 493 414 493 C 418 485 420 480 420 480 C 379 438 358 416 358 416 C 385 384 398 368 398 368 C 376 346 366 334 366 334 C 359 343 356 347 356 347 C 351 344 348 343 348 343 C 328 364 318 374 318 374 C 288 344 274 329 274 329 C 258 338 249 342 249 342 L 261 355 C 250 347 244 342 244 342 Z" id="id-bg-63-Group-7">
</path >
<path d="M 785 434 C 758 464 745 479 745 479 C 703 454 682 442 682 442 C 722 409 742 393 742 393 C 713 365 698 351 698 351 C 695 351 694 350 694 350 C 697 340 698 335 698 335 C 722 354 734 363 734 363 C 723 350 717 343 717 343 C 730 335 736 331 736 331 C 765 352 780 362 780 362 C 793 351 808 339 818 327 C 829 328 835 328 835 328 C 827 335 819 342 812 351 C 829 339 837 333 837 333 C 852 347 859 354 859 354 C 835 380 823 393 823 393 C 841 405 863 423 877 431 C 854 448 826 464 826 473 C 799 447 785 434 785 434 Z" id="id-bg-63-Group-8">
</path >
</g >
</g >
<defs >
</defs >
<path d="M 816 671 C 775 656 730 566 758 466 C 756 452 753 435 750 415 L 683 484 L 704 682 C 761 685 799 682 816 671 Z" fill="#04162e" id="id-female-5_43_wet_back-0">
</path >
<defs >
<linearGradient x1="100%" y1="46%" x2="12%" y2="47%" id="id-female-6.6_base_5-0">
<stop stop-color="#f97338" offset="0%">
</stop >
<stop stop-color="#f06728" offset="21%">
</stop >
<stop stop-color="#ffaa6b" offset="46%">
</stop >
<stop stop-color="#ff9a57" offset="80%">
</stop >
<stop stop-color="#ff8340" offset="100%">
</stop >
</linearGradient >
<linearGradient x1="53%" y1="81%" x2="50%" y2="21%" id="id-female-6.6_base_5-1">
<stop stop-color="#e58d69" offset="0%">
</stop >
<stop stop-color="#e1745c" offset="24%">
</stop >
<stop stop-color="#e27c40" offset="100%">
</stop >
</linearGradient >
<linearGradient x1="52%" y1="-4%" x2="46%" y2="70%" id="id-female-6.6_base_5-2">
<stop stop-color="#ed8d5b" offset="0%">
</stop >
<stop stop-color="#c76d3b" offset="100%">
</stop >
</linearGradient >
<linearGradient x1="46%" y1="43%" x2="15%" y2="43%" id="id-female-6.6_base_5-3">
<stop stop-color="#ee8152" offset="0%">
</stop >
<stop stop-color="#cf5621" offset="100%">
</stop >
</linearGradient >
<linearGradient x1="54%" y1="37%" x2="12%" y2="72%" id="id-female-6.6_base_5-4">
<stop stop-color="#3c1b05" offset="0%">
</stop >
<stop stop-color="#ae5b2e" offset="100%">
</stop >
</linearGradient >
<linearGradient x1="40%" y1="14%" x2="61%" y2="85%" id="id-female-6.6_base_5-5">
<stop stop-color="#6e1b17" offset="0%">
</stop >
<stop stop-color="#852720" offset="100%">
</stop >
</linearGradient >
<linearGradient x1="27%" y1="47%" x2="91%" y2="49%" id="id-female-6.6_base_5-6">
<stop stop-color="#ffa58a" offset="0%">
</stop >
<stop stop-color="#ffc3a1" offset="100%">
</stop >
</linearGradient >
<linearGradient x1="47%" y1="60%" x2="49%" y2="79%" id="id-female-6.6_base_5-7">
<stop stop-color="#ee833f" offset="0%">
</stop >
<stop stop-color="#e6713c" offset="60%">
</stop >
<stop stop-color="#f69666" offset="100%">
</stop >
</linearGradient >
<linearGradient x1="29%" y1="56%" x2="69%" y2="53%" id="id-female-6.6_base_5-8">
<stop stop-color="#d97647" offset="0%">
</stop >
<stop stop-color="#d6623c" offset="8%">
</stop >
<stop stop-color="#d77043" offset="18%">
</stop >
<stop stop-color="#d76545" offset="38%">
</stop >
<stop stop-color="#d36346" offset="65%">
</stop >
<stop stop-color="#d16140" offset="81%">
</stop >
<stop stop-color="#984f3b" offset="100%">
</stop >
</linearGradient >
<linearGradient x1="47%" y1="45%" x2="54%" y2="46%" id="id-female-6.6_base_5-9">
<stop stop-color="#e16241" offset="0%">
</stop >
<stop stop-color="#e1673e" offset="62%">
</stop >
<stop stop-color="#d45a30" offset="77%">
</stop >
<stop stop-color="#e37f49" offset="100%">
</stop >
</linearGradient >
<linearGradient x1="51%" y1="7%" x2="50%" y2="100%" id="id-female-6.6_base_5-10">
<stop stop-color="#e86b40" offset="0%">
</stop >
<stop stop-color="#e3845c" offset="75%">
</stop >
<stop stop-color="#e88461" offset="100%">
</stop >
</linearGradient >
<linearGradient x1="51%" y1="11%" x2="49%" y2="91%" id="id-female-6.6_base_5-11">
<stop stop-color="#e8793e" offset="0%">
</stop >
<stop stop-color="#e5763c" offset="73%">
</stop >
<stop stop-color="#e97e40" offset="100%">
</stop >
</linearGradient >
<linearGradient x1="51%" y1="-5%" x2="48%" y2="96%" id="id-female-6.6_base_5-12">
<stop stop-color="#ef773c" offset="0%">
</stop >
<stop stop-color="#dd662e" offset="100%">
</stop >
</linearGradient >
<linearGradient x1="50%" y1="19%" x2="50%" y2="69%" id="id-female-6.6_base_5-13">
<stop stop-color="#c04a19" offset="0%">
</stop >
<stop stop-color="#a33710" offset="46%">
</stop >
<stop stop-color="#be440b" offset="100%">
</stop >
</linearGradient >
<linearGradient x1="46%" y1="74%" x2="39%" y2="35%" id="id-female-6.6_base_5-14">
<stop stop-color="#b34a35" offset="0%">
</stop >
<stop stop-color="#c55e3e" offset="51%">
</stop >
<stop stop-color="#d4623b" offset="100%">
</stop >
</linearGradient >
<linearGradient x1="46%" y1="16%" x2="49%" y2="82%" id="id-female-6.6_base_5-15">
<stop stop-color="#9b473d" offset="0%" stop-opacity="0.186">
</stop >
<stop stop-color="#5f2520" offset="100%">
</stop >
</linearGradient >
<linearGradient x1="41%" y1="19%" x2="50%" y2="100%" id="id-female-6.6_base_5-16">
<stop stop-color="#cc5e47" offset="0%">
</stop >
<stop stop-color="#b13e35" offset="100%">
</stop >
</linearGradient >
<linearGradient x1="50%" y1="31%" x2="45%" y2="50%" id="id-female-6.6_base_5-17">
<stop stop-color="#e76a31" offset="0%">
</stop >
<stop stop-color="#eb8d54" offset="100%">
</stop >
</linearGradient >
<linearGradient x1="51%" y1="22%" x2="50%" y2="100%" id="id-female-6.6_base_5-18">
<stop stop-color="#c74b40" offset="0%">
</stop >
<stop stop-color="#c85e52" offset="100%">
</stop >
</linearGradient >
<linearGradient x1="49%" y1="0%" x2="50%" y2="99%" id="id-female-6.6_base_5-19">
<stop stop-color="#db6f3d" offset="0%">
</stop >
<stop stop-color="#e8764a" offset="100%">
</stop >
</linearGradient >
<linearGradient x1="44%" y1="15%" x2="50%" y2="100%" id="id-female-6.6_base_5-20">
<stop stop-color="#c15138" offset="0%">
</stop >
<stop stop-color="#ba4d37" offset="100%">
</stop >
</linearGradient >
<linearGradient x1="52%" y1="21%" x2="49%" y2="83%" id="id-female-6.6_base_5-21">
<stop stop-color="#e87740" offset="0%">
</stop >
<stop stop-color="#e77e4f" offset="48%">
</stop >
<stop stop-color="#e48553" offset="100%">
</stop >
</linearGradient >
<linearGradient x1="85%" y1="60%" x2="15%" y2="60%" id="id-female-6.6_base_5-22">
<stop stop-color="#e76c34" offset="0%">
</stop >
<stop stop-color="#d76128" offset="100%">
</stop >
</linearGradient >
<linearGradient x1="50%" y1="-3%" x2="59%" y2="91%" id="id-female-6.6_base_5-23">
<stop stop-color="#f98450" offset="0%">
</stop >
<stop stop-color="#e16c36" offset="53%">
</stop >
<stop stop-color="#d55d29" offset="66%">
</stop >
<stop stop-color="#d85620" offset="100%">
</stop >
</linearGradient >
<linearGradient x1="55%" y1="48%" x2="46%" y2="33%" id="id-female-6.6_base_5-24">
<stop stop-color="#e87c40" offset="0%">
</stop >
<stop stop-color="#e77c42" offset="86%">
</stop >
<stop stop-color="#e47138" offset="100%">
</stop >
</linearGradient >
<linearGradient x1="50%" y1="19%" x2="50%" y2="78%" id="id-female-6.6_base_5-25">
<stop stop-color="#913919" offset="0%">
</stop >
<stop stop-color="#ab4722" offset="50%">
</stop >
<stop stop-color="#842c26" offset="100%">
</stop >
</linearGradient >
<linearGradient x1="50%" y1="10%" x2="50%" y2="43%" id="id-female-6.6_base_5-26">
<stop stop-color="#ec7237" offset="0%">
</stop >
<stop stop-color="#cb5d37" offset="15%">
</stop >
<stop stop-color="#af3f09" offset="68%">
</stop >
<stop stop-color="#d04f19" offset="100%">
</stop >
</linearGradient >
<linearGradient x1="89%" y1="50%" x2="7%" y2="52%" id="id-female-6.6_base_5-27">
<stop stop-color="#a93700" offset="0%">
</stop >
<stop stop-color="#b85c4d" offset="53%" stop-opacity="0.199">
</stop >
<stop stop-color="#a3451f" offset="75%">
</stop >
<stop stop-color="#952903" offset="100%">
</stop >
</linearGradient >
<linearGradient x1="44%" y1="70%" x2="86%" y2="30%" id="id-female-6.6_base_5-28">
<stop stop-color="#ff975b" offset="0%">
</stop >
<stop stop-color="#ffaa6c" offset="100%">
</stop >
</linearGradient >
<linearGradient x1="33%" y1="92%" x2="62%" y2="23%" id="id-female-6.6_base_5-29">
<stop stop-color="#ac401f" offset="0%">
</stop >
<stop stop-color="#ff8245" offset="40%">
</stop >
<stop stop-color="#ff965b" offset="100%">
</stop >
</linearGradient >
<linearGradient x1="35%" y1="94%" x2="47%" y2="12%" id="id-female-6.6_base_5-30">
<stop stop-color="#df5820" offset="0%">
</stop >
<stop stop-color="#ff894d" offset="40%">
</stop >
<stop stop-color="#ffa769" offset="100%">
</stop >
</linearGradient >
<linearGradient x1="50%" y1="54%" x2="27%" y2="9%" id="id-female-6.6_base_5-31">
<stop stop-color="#f7ab80" offset="0%">
</stop >
<stop stop-color="#ddab90" offset="100%" stop-opacity="0.078">
</stop >
</linearGradient >
<linearGradient x1="50%" y1="0%" x2="93%" y2="69%" id="id-female-6.6_base_5-32">
<stop stop-color="#ff9558" offset="0%">
</stop >
<stop stop-color="#ff8b4a" offset="70%">
</stop >
<stop stop-color="#c6422f" offset="100%">
</stop >
</linearGradient >
<linearGradient x1="36%" y1="84%" x2="25%" y2="44%" id="id-female-6.6_base_5-33">
<stop stop-color="#c98762" offset="0%" stop-opacity="0.509">
</stop >
<stop stop-color="#90492c" offset="35%" stop-opacity="0.675">
</stop >
<stop stop-color="#762e17" offset="100%" stop-opacity="0">
</stop >
</linearGradient >
<linearGradient x1="63%" y1="95%" x2="43%" y2="20%" id="id-female-6.6_base_5-34">
<stop stop-color="#e67d45" offset="0%">
</stop >
<stop stop-color="#e98d52" offset="46%">
</stop >
<stop stop-color="#e27847" offset="100%">
</stop >
</linearGradient >
<linearGradient x1="40%" y1="0%" x2="50%" y2="86%" id="id-female-6.6_base_5-35">
<stop stop-color="#e67d42" offset="0%">
</stop >
<stop stop-color="#e47d44" offset="100%">
</stop >
</linearGradient >
<linearGradient x1="50%" y1="0%" x2="50%" y2="90%" id="id-female-6.6_base_5-36">
<stop stop-color="#ea8447" offset="0%">
</stop >
<stop stop-color="#e79253" offset="100%">
</stop >
</linearGradient >
<linearGradient x1="33%" y1="79%" x2="21%" y2="44%" id="id-female-6.6_base_5-37">
<stop stop-color="#be6457" offset="0%">
</stop >
<stop stop-color="#983f32" offset="28%" stop-opacity="0.928">
</stop >
<stop stop-color="#762e17" offset="100%" stop-opacity="0">
</stop >
</linearGradient >
<linearGradient x1="4%" y1="47%" x2="92%" y2="45%" id="id-female-6.6_base_5-38">
<stop stop-color="#7e2a0a" offset="0%">
</stop >
<stop stop-color="#993a16" offset="17%" stop-opacity="0.753">
</stop >
<stop stop-color="#a94736" offset="48%" stop-opacity="0.386">
</stop >
<stop stop-color="#ac4218" offset="78%" stop-opacity="0.762">
</stop >
<stop stop-color="#9f3b13" offset="100%">
</stop >
</linearGradient >
<linearGradient x1="60%" y1="45%" x2="67%" y2="53%" id="id-female-6.6_base_5-39">
<stop stop-color="#ff8b59" offset="0%">
</stop >
<stop stop-color="#ffba99" offset="100%">
</stop >
</linearGradient >
<linearGradient x1="48%" y1="15%" x2="54%" y2="81%" id="id-female-6.6_base_5-40">
<stop stop-color="#e6976b" offset="0%">
</stop >
<stop stop-color="#e39568" offset="100%">
</stop >
</linearGradient >
<linearGradient x1="47%" y1="44%" x2="50%" y2="61%" id="id-female-6.6_base_5-41">
<stop stop-color="#943b2f" offset="0%" stop-opacity="0.175">
</stop >
<stop stop-color="#61301b" offset="100%">
</stop >
</linearGradient >
<linearGradient x1="26%" y1="-7%" x2="50%" y2="96%" id="id-female-6.6_base_5-42">
<stop stop-color="#37373f" offset="0%">
</stop >
<stop stop-color="#19191d" offset="100%">
</stop >
</linearGradient >
<linearGradient x1="50%" y1="12%" x2="59%" y2="82%" id="id-female-6.6_base_5-43">
<stop stop-color="#252525" offset="0%">
</stop >
<stop stop-color="#101010" offset="100%">
</stop >
</linearGradient >
<linearGradient x1="25%" y1="-16%" x2="50%" y2="98%" id="id-female-6.6_base_5-44">
<stop stop-color="#37373f" offset="0%">
</stop >
<stop stop-color="#19191d" offset="100%">
</stop >
</linearGradient >
<linearGradient x1="75%" y1="39%" x2="50%" y2="93%" id="id-female-6.6_base_5-45">
<stop stop-color="#252525" offset="0%">
</stop >
<stop stop-color="#000000" offset="100%">
</stop >
</linearGradient >
</defs >
<g transform="translate(334,549)" id="id-female-6.6_base_5-46">
<polygon points="561 754 565 871 565 881 537 893 533 897 535 901 532 909 543 910 597 864" fill="#560304" id="id-female-6.6_base_5-47">
</polygon >
<polygon points="537 282 539 246 535 195 529 158 522 137 484 118 440 111 212 111 188 113 157 123 121 139 111 186 108 221 109 290" fill="url(#id-female-6.6_base_5-0)" id="id-female-6.6_base_5-47">
</polygon >
<polygon points="467 393 474 506 503 589 537 672 556 728 561 754 546 794 552 851 551 861 552 874 556 885 567 882 568 866 570 860 570 843 571 834 576 843 576 859 579 864 573 874 571 884 544 903 541 916 582 901 597 864 607 852 600 821 597 716 589 695 582 655 569 523 544 425" fill="url(#id-female-6.6_base_5-1)" id="id-female-6.6_base_5-47">
</polygon >
<polygon points="546 794 552 851 551 861 552 874 556 885 567 882 568 866 570 860 570 843 571 834 576 843 576 859 579 864 573 874 571 884 544 903 541 916 582 901 597 864 583 871 588 855 573 815 561 823" fill="url(#id-female-6.6_base_5-2)" id="id-female-6.6_base_5-47">
</polygon >
<polygon points="552 851 551 861 552 874 556 887 567 884 568 866 570 860 558 860" fill="#ab562c" id="id-female-6.6_base_5-47">
</polygon >
<polygon points="544 906 541 916 582 901 571 889" fill="#ab562c" id="id-female-6.6_base_5-47">
</polygon >
<polygon points="561 754 548 789 566 819 586 806" fill="#cf7c49" id="id-female-6.6_base_5-47">
</polygon >
<polygon points="486 648 477 599 453 529 440 504 437 490 439 460 449 402 456 340 188 343 198 411 202 493 162 596 153 638 266 693 319 721 386 693" fill="url(#id-female-6.6_base_5-3)" id="id-female-6.6_base_5-47">
</polygon >
<polygon points="486 648 477 599 453 529 440 504 437 490 439 460 449 402 456 340 296 353 376 634" fill="#dd6e3f" id="id-female-6.6_base_5-47">
</polygon >
<g transform="translate(188,0)" id="id-female-6.6_base_5-56">
<polygon points="274 114 253 111 232 100 201 76 188 58 184 1 93 1 88 64 25 111 1 113 103 123 121 135 134 138 149 121 161 117 187 119 225 114" fill="#ee773d" id="id-female-6.6_base_5-47">
</polygon >
<polygon points="201 76 188 58 185 12 175 57 155 111 185 73" fill="#e5995f" id="id-female-6.6_base_5-47">
</polygon >
<polygon points="149 1 93 1 88 64 108 126 121 135 133 138" fill="#da642e" id="id-female-6.6_base_5-47">
</polygon >
<polygon points="116 102 120 113 118 115 136 135 150 119 164 71 125 108" fill="#c7592d" id="id-female-6.6_base_5-60">
</polygon >
<polygon points="121 127 133 138 145 124" fill="#c43806" id="id-female-6.6_base_5-61">
</polygon >
<polygon points="136 98 164 71 175 57 186 17 134 51" fill="#e2803d" id="id-female-6.6_base_5-62">
</polygon >
<polygon points="97 96 116 80 164 60 178 48 186 17 184 1 93 1 88 64 45 96" fill="#a45026" opacity="0.654" id="id-female-6.6_base_5-47">
</polygon >
<polygon points="186 17 184 1 93 1 88 64 45 96 66 96" fill="url(#id-female-6.6_base_5-4)" opacity="0.467" id="id-female-6.6_base_5-47">
</polygon >
<polygon points="123 58 176 23 186 17 184 1 93 1 91 22 108 55" fill="#381404" opacity="0.434" id="id-female-6.6_base_5-47">
</polygon >
</g >
<polygon points="41 844 33 856 36 895 64 915 84 911 83 903 71 898 72 892 63 884 52 849" fill="url(#id-female-6.6_base_5-5)" id="id-female-6.6_base_5-47">
</polygon >
<polygon points="315 152 285 173 320 188 357 166" fill="#ffb67e" id="id-female-6.6_base_5-67">
</polygon >
<polygon points="327 150 370 130 342 127" fill="#ee7539" id="id-female-6.6_base_5-68">
</polygon >
<polygon points="301 142 303 148 243 131 240 119 276 119" fill="#eb7338" id="id-female-6.6_base_5-69">
</polygon >
<polygon points="159 149 206 123 269 123 303 144 297 118 188 113 157 123 121 139" fill="url(#id-female-6.6_base_5-6)" id="id-female-6.6_base_5-47">
</polygon >
<polygon points="157 123 121 139 153 167 196 134" fill="#ffc3a1" id="id-female-6.6_base_5-47">
</polygon >
<polygon points="89 584 77 541 62 551 45 658 34 712 25 741 25 762 10 817 0 845 14 870 25 901 58 919 72 919 69 913 61 905 50 899 37 874 37 852 43 845 52 855 50 887 56 901 64 905 66 901 66 882 72 836 72 800 69 781 64 773 66 735 85 684 121 599 162 510" fill="url(#id-female-6.6_base_5-7)" id="id-female-6.6_base_5-47">
</polygon >
<polygon points="89 584 77 541 62 551 45 658 48 715 121 599 162 510" fill="#e77038" id="id-female-6.6_base_5-47">
</polygon >
<polygon points="55 843 45 827 37 848 17 852 8 836 5 851 0 845 14 870 25 901 58 919 72 919 69 913 61 905 50 899 37 874 37 852 43 845 52 855 50 887 56 901 64 905 66 901 66 882 72 836" fill="#d5643c" id="id-female-6.6_base_5-47">
</polygon >
<polygon points="53 882 52 892 56 901 64 905 66 901 66 882 67 876" fill="#c45627" id="id-female-6.6_base_5-47">
</polygon >
<polygon points="25 901 58 919 72 919 62 909 37 895" fill="#c45627" id="id-female-6.6_base_5-47">
</polygon >
<polygon points="160 467 145 488 108 578 45 777 48 797 64 773 66 735 85 684 121 599 162 510" fill="#cb4a0c" id="id-female-6.6_base_5-47">
</polygon >
<polygon points="169 1211 277 1211 282 1183 281 1150 284 1127 286 1114 285 1063 293 972 306 866 311 792 309 768 323 771 337 768 333 817 333 855 339 924 346 1008 348 1113 351 1130 353 1176 361 1211 461 1211 458 1191 456 1170 460 1133 461 1082 505 905 516 839 518 826 512 762 503 706 486 648 482 629 386 690 318 718 266 690 184 629 153 637 132 731 119 781 118 813 123 862 131 916 166 1094 176 1179" fill="url(#id-female-6.6_base_5-8)" id="id-female-6.6_base_5-47">
</polygon >
<polygon points="463 664 416 771 400 819 392 1125 359 1178 398 1204 441 1153 461 1082 505 905 516 839 518 826 515 789 490 714" fill="url(#id-female-6.6_base_5-9)" id="id-female-6.6_base_5-47">
</polygon >
<polygon points="422 1160 395 1199 365 1171 401 1149 384 1120 391 983 411 786 416 771 448 697 454 1013 445 1116 407 1149" fill="url(#id-female-6.6_base_5-10)" id="id-female-6.6_base_5-80">
</polygon >
<polygon points="121 139 111 186 108 221 109 290 96 438 89 464 69 510 89 585 162 510 167 425 162 241" fill="url(#id-female-6.6_base_5-11)" id="id-female-6.6_base_5-47">
</polygon >
<polygon points="101 466 103 488 106 510 160 447 179 359 164 232 187 184 186 179 132 181 161 234 161 321 149 376 151 384 123 461 114 466" fill="url(#id-female-6.6_base_5-12)" id="id-female-6.6_base_5-82">
</polygon >
<polygon points="96 438 89 464 69 510 51 621 101 520 96 476" fill="#edac7e" id="id-female-6.6_base_5-47">
</polygon >
<polygon points="96 451 128 365 134 316 121 139 111 186 108 221 109 290 96 438" fill="#dc6429" id="id-female-6.6_base_5-47">
</polygon >
<polygon points="184 241 177 248 162 225 138 289 161 321 170 375 161 420 151 411 162 510 167 425 188 343" fill="url(#id-female-6.6_base_5-13)" id="id-female-6.6_base_5-47">
</polygon >
<polygon points="284 1127 286 1114 285 1063 293 972 306 866 311 792 309 768 323 771 337 768 333 817 333 855 339 924 346 1008 375 889 416 771 463 664 490 714 515 790 512 762 503 706 486 648 477 599 471 583 420 650 316 720 201 654 244 742 264 824 275 994" fill="url(#id-female-6.6_base_5-14)" id="id-female-6.6_base_5-47">
</polygon >
<polygon points="298 930 306 866 311 792 309 768 323 771 337 768 333 817 333 855 336 894 347 826 360 784 378 733 388 687 321 739 254 687 267 736 291 821" fill="url(#id-female-6.6_base_5-15)" id="id-female-6.6_base_5-47">
</polygon >
<polygon points="348 1093 348 1113 351 1130 353 1176 361 1211 461 1211 439 1155 422 1136 403 1148 429 1168 400 1202 370 1170 382 1125" fill="url(#id-female-6.6_base_5-16)" id="id-female-6.6_base_5-47">
</polygon >
<polygon points="10 855 8 836 5 851 0 845 14 870" fill="#af4a3e" id="id-female-6.6_base_5-47">
</polygon >
<polygon points="520 500 516 520 544 629 474 500 490 399" fill="url(#id-female-6.6_base_5-17)" id="id-female-6.6_base_5-90">
</polygon >
<polygon points="461 1211 458 1191 456 1170 460 1133 461 1082 439 1155 450 1211" fill="url(#id-female-6.6_base_5-18)" id="id-female-6.6_base_5-47">
</polygon >
<polygon points="220 1149 259 1115 240 1063 232 973 266 819 240 713 201 661 158 650 201 784 183 925 170 1083" fill="url(#id-female-6.6_base_5-19)" id="id-female-6.6_base_5-92">
</polygon >
<polygon points="169 1211 277 1211 282 1183 281 1150 284 1127 286 1114 286 1098 226 1211 207 1211 196 1121 173 1078 150 1014 166 1094 176 1179" fill="url(#id-female-6.6_base_5-20)" id="id-female-6.6_base_5-47">
</polygon >
<polygon points="173 1078 183 924 150 1014" fill="#d95d37" id="id-female-6.6_base_5-47">
</polygon >
<polygon points="169 1211 239 1211 230 1196 204 1175 173 1150 176 1179" fill="#c04934" opacity="0.574" id="id-female-6.6_base_5-47">
</polygon >
<polygon points="221 1130 240 1097 224 1063 224 983 240 804 217 698 190 668 212 771 212 910 190 998 181 1094" fill="url(#id-female-6.6_base_5-21)" id="id-female-6.6_base_5-92">
</polygon >
<polygon points="217 795 221 692 200 667 169 658 200 737" fill="#dd956b" id="id-female-6.6_base_5-97">
</polygon >
<polygon points="511 476 492 419 481 447 484 356 521 274 533 417" fill="url(#id-female-6.6_base_5-22)" id="id-female-6.6_base_5-98">
</polygon >
<polygon points="569 523 544 425 542 346 537 282 539 246 535 195 529 158 522 137 494 161 419 158 471 211 516 290 525 411 511 477 518 507 535 462 562 543" fill="url(#id-female-6.6_base_5-23)" id="id-female-6.6_base_5-47">
</polygon >
<polygon points="486 389 533 243 501 167 464 207 451 247 463 265" fill="url(#id-female-6.6_base_5-24)" id="id-female-6.6_base_5-100">
</polygon >
<polygon points="473 490 474 506 503 589 537 672 556 728 561 754 567 712 543 623" fill="#da531d" id="id-female-6.6_base_5-47">
</polygon >
<polygon points="460 328 466 378 474 506 490 425 486 392 469 274 479 230 461 260 454 251" fill="url(#id-female-6.6_base_5-25)" id="id-female-6.6_base_5-47">
</polygon >
<polygon points="440 504 437 490 439 460 449 402 456 340 458 328 325 282 188 343 198 411 202 493 162 596 157 621 161 633 169 599 173 570 204 506 202 458 217 402 286 365 321 352 353 360 422 402 431 493 437 520" fill="url(#id-female-6.6_base_5-26)" id="id-female-6.6_base_5-47">
</polygon >
<polygon points="451 385 456 340 458 328 364 340 330 308 268 343 188 343 194 379 262 368 312 343 335 340 381 368" fill="url(#id-female-6.6_base_5-27)" id="id-female-6.6_base_5-47">
</polygon >
<polygon points="286 328 306 310 330 274 453 252 464 205 421 156 317 204 219 165 210 154 188 180" fill="url(#id-female-6.6_base_5-28)" id="id-female-6.6_base_5-105">
</polygon >
<path d="M 422 195 L 405 190 C 377 190 357 198 343 214 C 329 230 322 250 323 276 C 324 301 331 320 345 333 C 365 351 384 356 405 356 C 425 356 444 347 450 342 C 454 339 457 335 460 328 C 463 323 466 317 467 308 C 469 294 466 276 457 254 L 422 195 Z" fill="url(#id-female-6.6_base_5-29)" id="id-female-6.6_base_5-106">
</path >
<path d="M 422 195 L 417 175 C 386 188 366 196 358 201 C 355 203 351 206 348 208 C 348 209 381 253 448 342 C 454 338 459 332 463 324 C 469 310 469 301 469 293 C 469 287 465 275 459 257 L 422 195 Z" fill="url(#id-female-6.6_base_5-30)" id="id-female-6.6_base_5-106">
</path >
<path d="M 375 226 C 338 253 343 276 343 284 C 343 291 353 319 371 335 C 379 342 422 349 447 331 C 468 316 472 294 458 265 C 427 221 400 208 375 226 Z" fill="url(#id-female-6.6_base_5-31)" opacity="0.282" id="id-female-6.6_base_5-106">
</path >
<path d="M 272 205 C 260 199 243 200 221 209 C 187 227 169 258 168 303 C 167 319 184 342 190 346 C 197 351 212 356 239 353 C 257 351 272 344 284 333 C 303 312 312 288 309 260 C 305 217 291 214 272 205 Z" fill="url(#id-female-6.6_base_5-32)" id="id-female-6.6_base_5-109">
</path >
<path d="M 340 285 C 333 252 328 240 326 248 C 324 254 323 263 323 276 C 324 301 331 320 345 333 C 365 351 382 356 404 356 C 425 356 444 347 450 342 C 456 337 465 325 468 308 C 472 290 465 276 463 268 C 461 263 460 259 458 255 L 442 290 L 399 304 L 366 300 L 340 285 Z" fill="url(#id-female-6.6_base_5-33)" id="id-female-6.6_base_5-106">
</path >
<path d="M 153 637 L 149 654 L 132 731 L 130 739 C 133 730 135 723 137 718 C 140 709 147 691 149 680 C 151 671 155 655 161 633 L 172 570 L 162 596 L 153 637 Z" fill="#7d362e" id="id-female-6.6_base_5-47">
</path >
<path d="M 259 203 C 254 199 240 185 217 163 L 210 153 L 186 180 C 192 211 192 231 186 239 C 175 256 168 277 168 303 C 168 324 190 352 239 344 C 252 342 274 217 259 203 Z" fill="#ff9558" id="id-female-6.6_base_5-109">
</path >
<polygon points="175 565 203 550 234 558 241 520 203 455 203 507" fill="#c6450c" id="id-female-6.6_base_5-113">
</polygon >
<polygon points="241 442 241 518 229 556 233 629 266 657 316 707 381 659 395 629 364 504 350 504 301 380" fill="url(#id-female-6.6_base_5-34)" id="id-female-6.6_base_5-114">
</polygon >
<polygon points="432 626 427 589 407 518 414 505 450 568 470 618" fill="url(#id-female-6.6_base_5-35)" id="id-female-6.6_base_5-115">
</polygon >
<polygon points="302 376 254 442 254 546 302 590 364 568 364 504 350 504 376 454 345 400" fill="url(#id-female-6.6_base_5-36)" id="id-female-6.6_base_5-114">
</polygon >
<polygon points="317 480 342 436 319 413 300 447" fill="#e67841" id="id-female-6.6_base_5-117">
</polygon >
<polygon points="304 541 318 507 329 541 314 549" fill="#e66d37" id="id-female-6.6_base_5-118">
</polygon >
<polygon points="306 543 316 578 329 541" fill="#e99b64" id="id-female-6.6_base_5-119">
</polygon >
<path d="M 178 333 C 179 334 180 336 182 338 C 184 342 186 343 189 346 C 190 347 197 351 206 353 C 215 354 226 355 239 353 C 257 351 272 344 284 333 C 293 322 299 313 302 305 C 304 301 307 293 309 277 C 310 274 310 268 309 260 L 228 277 L 207 295 L 178 333 Z" fill="url(#id-female-6.6_base_5-37)" id="id-female-6.6_base_5-109">
</path >
<polygon points="306 543 308 550 324 556 329 541" fill="#eca774" id="id-female-6.6_base_5-119">
</polygon >
<polygon points="308 543 318 525 323 542 314 548" fill="#b5491c" id="id-female-6.6_base_5-122">
</polygon >
<polygon points="152 641 162 596 176 561 185 617 214 602 246 628 323 690 404 628 423 605 454 605 470 577 477 599 482 629 388 689 337 768 323 771 309 768 259 688 175 639 142 688" fill="url(#id-female-6.6_base_5-38)" opacity="0.442" id="id-female-6.6_base_5-123">
</polygon >
<polygon points="490 154 522 137 484 118 412 123" fill="url(#id-female-6.6_base_5-39)" id="id-female-6.6_base_5-47">
</polygon >
<polygon points="573 785 588 829 602 858 607 852 600 821 597 716 576 763" fill="#ff966a" id="id-female-6.6_base_5-47">
</polygon >
<polygon points="574 722 589 695 582 655 533 542" fill="url(#id-female-6.6_base_5-40)" id="id-female-6.6_base_5-47">
</polygon >
<polygon points="172 640 241 690 309 768 323 771 338 768 395 706 469 661 404 650 313 706 217 629" fill="url(#id-female-6.6_base_5-41)" opacity="0.571" id="id-female-6.6_base_5-127">
</polygon >
<g transform="translate(188,270)" id="id-female-6.6_base_5-128">
<polygon points="207 13 207 10 217 2 220 2 239 21 258 39 260 42 250 51 246 52 226 33" fill="url(#id-female-6.6_base_5-42)" id="id-female-6.6_base_5-129">
</polygon >
<polygon points="208 40 218 50 222 50 240 33 257 13 257 9 247 0 244 1 230 19 209 36" fill="url(#id-female-6.6_base_5-43)" id="id-female-6.6_base_5-130">
</polygon >
<polygon points="1 13 1 10 10 2 15 2 32 21 50 39 52 42 42 52 38 52 19 33" fill="url(#id-female-6.6_base_5-44)" id="id-female-6.6_base_5-129">
</polygon >
<polygon points="0 43 10 53 14 53 33 35 50 15 50 11 40 3 36 4 19 23 1 39" fill="url(#id-female-6.6_base_5-45)" id="id-female-6.6_base_5-130">
</polygon >
</g >
</g >
<defs >
<linearGradient x1="79%" y1="0%" x2="79%" y2="22%" id="id-female-6.8_face_5-0">
<stop stop-color="#fde1e0" offset="0%">
</stop >
<stop stop-color="#d46a32" offset="100%">
</stop >
</linearGradient >
<linearGradient x1="40%" y1="32%" x2="50%" y2="75%" id="id-female-6.8_face_5-1">
<stop stop-color="#e98d54" offset="0%">
</stop >
<stop stop-color="#f4ad80" offset="100%">
</stop >
</linearGradient >
<linearGradient x1="50%" y1="0%" x2="50%" y2="82%" id="id-female-6.8_face_5-2">
<stop stop-color="#f7caab" offset="0%">
</stop >
<stop stop-color="#f3af87" offset="100%">
</stop >
</linearGradient >
<linearGradient x1="21%" y1="-8%" x2="64%" y2="50%" id="id-female-6.8_face_5-3">
<stop stop-color="#eb925a" offset="0%">
</stop >
<stop stop-color="#f6b48f" offset="100%">
</stop >
</linearGradient >
<radialGradient cx="48%" cy="50%" r="67%" id="id-female-6.8_face_5-4" fx="48%" fy="50%" gradientTransform="translate(0.478,0.5) scale(0.717,1) rotate(180) scale(1,1) translate(-0.478,-0.5)">
<stop stop-color="#eb925b" offset="0%">
</stop >
<stop stop-color="#d36e3d" offset="100%">
</stop >
</radialGradient >
<radialGradient cx="50%" cy="65%" r="73%" id="id-female-6.8_face_5-5" fx="50%" fy="65%" gradientTransform="translate(0.5,0.654) scale(0.748,1) rotate(90) scale(1,0.914) translate(-0.5,-0.654)">
<stop stop-color="#efa371" offset="0%">
</stop >
<stop stop-color="#bb561c" offset="100%">
</stop >
</radialGradient >
<linearGradient x1="47%" y1="38%" x2="54%" y2="70%" id="id-female-6.8_face_5-6">
<stop stop-color="#fa9263" offset="0%">
</stop >
<stop stop-color="#f69c6e" offset="41%">
</stop >
<stop stop-color="#f39969" offset="100%">
</stop >
</linearGradient >
<linearGradient x1="50%" y1="0%" x2="50%" y2="85%" id="id-female-6.8_face_5-7">
<stop stop-color="#f1a778" offset="0%">
</stop >
<stop stop-color="#f8af88" offset="100%">
</stop >
</linearGradient >
<linearGradient x1="15%" y1="28%" x2="74%" y2="73%" id="id-female-6.8_face_5-8">
<stop stop-color="#f2a97f" offset="0%">
</stop >
<stop stop-color="#feb18f" offset="100%">
</stop >
</linearGradient >
<linearGradient x1="109%" y1="57%" x2="0%" y2="43%" id="id-female-6.8_face_5-9">
<stop stop-color="#ea9264" offset="0%">
</stop >
<stop stop-color="#de7c45" offset="100%">
</stop >
</linearGradient >
<linearGradient x1="0%" y1="50%" x2="100%" y2="50%" id="id-female-6.8_face_5-10">
<stop stop-color="#cc7145" offset="0%">
</stop >
<stop stop-color="#914121" offset="51%">
</stop >
<stop stop-color="#ce7749" offset="100%">
</stop >
</linearGradient >
<linearGradient x1="50%" y1="31%" x2="35%" y2="71%" id="id-female-6.8_face_5-11">
<stop stop-color="#f1aa7d" offset="0%">
</stop >
<stop stop-color="#ffbd94" offset="40%">
</stop >
<stop stop-color="#fab189" offset="100%">
</stop >
</linearGradient >
<linearGradient x1="50%" y1="0%" x2="50%" y2="50%" id="id-female-6.8_face_5-12">
<stop stop-color="#e29369" offset="0%">
</stop >
<stop stop-color="#f9b897" offset="100%">
</stop >
</linearGradient >
<linearGradient x1="50%" y1="25%" x2="50%" y2="100%" id="id-female-6.8_face_5-13">
<stop stop-color="#e4854d" offset="0%">
</stop >
<stop stop-color="#ef673a" offset="20%">
</stop >
<stop stop-color="#f99466" offset="56%">
</stop >
<stop stop-color="#d97840" offset="100%">
</stop >
</linearGradient >
<linearGradient x1="40%" y1="22%" x2="50%" y2="69%" id="id-female-6.8_face_5-14">
<stop stop-color="#f4ac80" offset="0%">
</stop >
<stop stop-color="#e28d60" offset="100%">
</stop >
</linearGradient >
<linearGradient x1="50%" y1="85%" x2="50%" y2="50%" id="id-female-6.8_face_5-15">
<stop stop-color="#962525" offset="0%">
</stop >
<stop stop-color="#450000" offset="100%">
</stop >
</linearGradient >
<linearGradient x1="50%" y1="0%" x2="50%" y2="100%" id="id-female-6.8_face_5-16">
<stop stop-color="#eb5363" offset="0%">
</stop >
<stop stop-color="#f85c69" offset="54%">
</stop >
<stop stop-color="#d4494b" offset="100%">
</stop >
</linearGradient >
<linearGradient x1="50%" y1="0%" x2="50%" y2="77%" id="id-female-6.8_face_5-17">
<stop stop-color="#b83c3c" offset="0%">
</stop >
<stop stop-color="#bf3f3f" offset="100%">
</stop >
</linearGradient >
<linearGradient x1="99%" y1="50%" x2="93%" y2="54%" id="id-female-6.8_face_5-18">
<stop stop-color="#f19e6f" offset="0%">
</stop >
<stop stop-color="#a05029" offset="100%">
</stop >
</linearGradient >
<linearGradient x1="50%" y1="0%" x2="50%" y2="91%" id="id-female-6.8_face_5-19">
<stop stop-color="#dd996c" offset="0%">
</stop >
<stop stop-color="#d5804c" offset="77%">
</stop >
<stop stop-color="#d66735" offset="100%">
</stop >
</linearGradient >
<linearGradient x1="9%" y1="25%" x2="26%" y2="82%" id="id-female-6.8_face_5-20">
<stop stop-color="#c45929" offset="0%">
</stop >
<stop stop-color="#d3723e" offset="60%">
</stop >
<stop stop-color="#e57f4f" offset="100%">
</stop >
</linearGradient >
<linearGradient x1="55%" y1="46%" x2="68%" y2="95%" id="id-female-6.8_face_5-21">
<stop stop-color="#b75323" offset="0%">
</stop >
<stop stop-color="#f7ba9b" offset="100%">
</stop >
</linearGradient >
<linearGradient x1="50%" y1="0%" x2="50%" y2="100%" id="id-female-6.8_face_5-22">
<stop stop-color="#ea7440" offset="0%">
</stop >
<stop stop-color="#b94c1c" offset="100%">
</stop >
</linearGradient >
<linearGradient x1="50%" y1="11%" x2="50%" y2="100%" id="id-female-6.8_face_5-23">
<stop stop-color="#eead81" offset="0%">
</stop >
<stop stop-color="#f99566" offset="100%">
</stop >
</linearGradient >
<linearGradient x1="50%" y1="12%" x2="47%" y2="66%" id="id-female-6.8_face_5-24">
<stop stop-color="#f19e6f" offset="0%">
</stop >
<stop stop-color="#de8b58" offset="100%">
</stop >
</linearGradient >
<linearGradient x1="91%" y1="56%" x2="10%" y2="39%" id="id-female-6.8_face_5-25">
<stop stop-color="#cc6835" offset="0%">
</stop >
<stop stop-color="#a6482c" offset="74%">
</stop >
<stop stop-color="#c65b23" offset="100%">
</stop >
</linearGradient >
<linearGradient x1="50%" y1="50%" x2="50%" y2="74%" id="id-female-6.8_face_5-26">
<stop stop-color="#cf6042" offset="0%">
</stop >
<stop stop-color="#ea846d" offset="100%">
</stop >
</linearGradient >
<linearGradient x1="77%" y1="54%" x2="50%" y2="58%" id="id-female-6.8_face_5-27">
<stop stop-color="#d66c3f" offset="0%">
</stop >
<stop stop-color="#f8936b" offset="100%">
</stop >
</linearGradient >
<radialGradient cx="50%" cy="70%" r="100%" id="id-female-6.8_face_5-28" fx="50%" fy="70%" gradientTransform="translate(0.5,0.701) scale(0.442,1) rotate(73) translate(-0.5,-0.701)">
<stop stop-color="#98321f" offset="0%">
</stop >
<stop stop-color="#c96130" offset="100%">
</stop >
</radialGradient >
<linearGradient x1="47%" y1="40%" x2="47%" y2="91%" id="id-female-6.8_face_5-29">
<stop stop-color="#c35230" offset="0%">
</stop >
<stop stop-color="#dc6b59" offset="100%">
</stop >
</linearGradient >
<linearGradient x1="50%" y1="20%" x2="50%" y2="72%" id="id-female-6.8_face_5-30">
<stop stop-color="#3b2311" offset="0%">
</stop >
<stop stop-color="#714225" offset="100%">
</stop >
</linearGradient >
<linearGradient x1="67%" y1="29%" x2="67%" y2="76%" id="id-female-6.8_face_5-31">
<stop stop-color="#372311" offset="0%">
</stop >
<stop stop-color="#8c5031" offset="100%">
</stop >
</linearGradient >
</defs >
<g transform="translate(561,332)" id="id-female-6.8_face_5-32">
<g transform="translate(172,115)" id="id-female-6.8_face_5-33">
<polygon points="14 1 18 0 25 8 27 21 24 41 14 66 0 68" fill="url(#id-female-6.8_face_5-0)" id="id-female-6.8_face_5-34">
</polygon >
<polygon points="12 48 19 50 23 42 26 24 20 12 12 22" fill="#ec9266" id="id-female-6.8_face_5-35">
</polygon >
<polygon points="11 21 17 10 20 5 24 7 26 24 20 36 18 31 20 16 9 29" fill="#c1430b" id="id-female-6.8_face_5-36">
</polygon >
<polygon points="10 28 11 38 8 45 13 49 19 38 13 24" fill="#8c350a" id="id-female-6.8_face_5-37">
</polygon >
<polygon points="12 18 17 17 18 9" fill="#8c350a" id="id-female-6.8_face_5-38">
</polygon >
<polygon points="18 50 10 51 8 50 5 61 12 63 14 61" fill="#e88c5f" id="id-female-6.8_face_5-39">
</polygon >
</g >
<g transform="translate(0,113)" id="id-female-6.8_face_5-40">
<polygon points="13 0 5 0 0 13 4 36 13 63 25 67" fill="#d07c59" id="id-female-6.8_face_5-41">
</polygon >
<polygon points="5 9 0 13 4 36 13 63 25 67 13 24" fill="#de8959" id="id-female-6.8_face_5-41">
</polygon >
<polygon points="18 46 14 47 7 32 11 26 4 9 6 5 16 20 17 29" fill="#ae3a08" id="id-female-6.8_face_5-43">
</polygon >
<polygon points="13 62 20 62 18 49 11 53" fill="#fea878" id="id-female-6.8_face_5-44">
</polygon >
<polygon points="25 68 13 63 20 62 17 46 14 47 13 44 14 29 17 26 14 22 10 19 10 11 17 20" fill="#a00c07" id="id-female-6.8_face_5-45">
</polygon >
<polygon points="13 9 4 3 5 0 12 0" fill="#d6a2a5" id="id-female-6.8_face_5-46">
</polygon >
</g >
<path d="M 29 199 C 21 167 16 144 15 130 C 4 44 33 0 103 0 C 180 0 191 63 186 119 C 183 157 173 191 170 202 C 169 206 167 213 164 217 C 158 226 140 237 112 250 C 107 252 89 252 82 250 C 59 240 44 229 36 218 C 34 215 32 208 29 199 Z" fill="#eea16c" id="id-female-6.8_face_5-47">
</path >
<polygon points="33 108 34 36 99 6 175 45 171 113 95 117" fill="url(#id-female-6.8_face_5-1)" id="id-female-6.8_face_5-48">
</polygon >
<polygon points="53 107 64 92 47 46 97 53 133 46 111 74 123 96 142 110 105 123" fill="url(#id-female-6.8_face_5-2)" id="id-female-6.8_face_5-49">
</polygon >
<polygon points="63 87 47 46 78 51" fill="url(#id-female-6.8_face_5-3)" id="id-female-6.8_face_5-49">
</polygon >
<path d="M 32 97 L 55 101 L 37 41 L 61 32 L 114 41 L 136 39 L 125 56 L 155 58 L 155 100 L 169 107 L 184 119 L 174 43 C 139 6 101 -5 62 11 C 23 27 13 55 32 97 Z" fill="url(#id-female-6.8_face_5-4)" id="id-female-6.8_face_5-51">
</path >
<path d="M 15 130 C 4 44 33 0 103 0 C 180 0 191 63 186 119 L 167 94 L 166 70 L 151 27 C 145 18 127 13 99 13 C 71 13 52 19 43 32 L 40 53 L 34 70 L 36 104 C 22 124 15 132 15 130 Z" fill="url(#id-female-6.8_face_5-5)" id="id-female-6.8_face_5-47">
</path >
<polygon points="33 165 101 152 166 185 148 225 117 246 83 249 50 217" fill="url(#id-female-6.8_face_5-6)" id="id-female-6.8_face_5-53">
</polygon >
<polygon points="72 209 67 186 78 169 121 174 138 196 123 210" fill="url(#id-female-6.8_face_5-7)" id="id-female-6.8_face_5-54">
</polygon >
<polygon points="68 189 49 169 31 158 19 128 91 145" fill="url(#id-female-6.8_face_5-8)" id="id-female-6.8_face_5-55">
</polygon >
<polygon points="85 165 52 172 38 127 88 145" fill="#f7ba9b" id="id-female-6.8_face_5-55">
</polygon >
<polygon points="73 209 78 237 115 234 129 217 126 208" fill="url(#id-female-6.8_face_5-9)" id="id-female-6.8_face_5-57">
</polygon >
<polygon points="84 233 92 227 88 221 113 221 109 227 116 233" fill="url(#id-female-6.8_face_5-10)" id="id-female-6.8_face_5-58">
</polygon >
<polygon points="117 178 125 191 138 196 171 146 155 141 108 135" fill="url(#id-female-6.8_face_5-11)" id="id-female-6.8_face_5-59">
</polygon >
<path d="M 75 237 C 83 232 91 230 99 230 C 106 230 116 232 127 237 L 113 246 L 89 249 L 75 237 Z" fill="url(#id-female-6.8_face_5-12)" id="id-female-6.8_face_5-60">
</path >
<path d="M 29 199 C 21 167 16 144 15 130 C 14 127 14 124 14 121 L 20 115 L 31 135 L 25 141 L 32 158 L 43 166 C 48 187 53 203 58 214 C 68 227 79 238 91 246 L 111 246 C 125 238 134 230 138 223 C 143 209 147 190 150 168 L 170 145 L 166 103 C 179 108 186 113 186 119 C 183 157 173 191 170 202 C 169 206 167 213 164 217 C 158 226 140 237 112 250 C 107 252 89 252 82 250 C 59 240 44 229 36 218 C 34 215 32 208 29 199 Z" fill="url(#id-female-6.8_face_5-13)" id="id-female-6.8_face_5-47">
</path >
<path d="M 182 102 C 185 110 186 115 186 119 C 183 157 173 191 170 202 C 169 206 167 213 164 217 C 161 221 157 225 151 229 C 158 221 164 210 169 196 C 170 192 173 181 177 162 C 178 159 179 152 181 144 L 180 111 L 174 86 L 182 102 Z" fill="#e7b9b9" id="id-female-6.8_face_5-47">
</path >
<polygon points="94 180 93 195 101 204 110 197 104 176" fill="url(#id-female-6.8_face_5-14)" id="id-female-6.8_face_5-63">
</polygon >
<g transform="translate(71,178)" id="id-female-6.8_face_5-64">
<polygon points="21 2 21 9 23 11 25 3 23 0" fill="#fec5b4" id="id-female-6.8_face_5-65">
</polygon >
<path d="M 34 2 L 37 13 L 30 16 L 22 13 C 17 15 13 17 11 19 C 8 21 5 25 1 30 L 33 28 L 40 18 L 35 1 L 34 2 Z" fill="#fcbdab" id="id-female-6.8_face_5-66">
</path >
<path d="M 1 31 L 3 33 C 6 35 8 36 8 37 C 13 41 16 44 18 45 C 23 47 32 48 39 46 C 42 45 48 40 53 35 C 54 34 56 32 57 30 L 55 27 L 30 18 L 3 27 L 1 31 Z" fill="url(#id-female-6.8_face_5-15)" id="id-female-6.8_face_5-67">
</path >
<path d="M 14 30 C 6 32 2 33 3 33 C 11 39 15 42 18 43 C 23 45 33 46 39 44 C 43 43 48 40 55 33 C 55 33 51 32 43 30 C 36 32 32 32 28 32 C 24 32 20 32 14 30 Z" fill="url(#id-female-6.8_face_5-16)" id="id-female-6.8_face_5-67">
</path >
<path d="M 13 31 C 11 32 11 33 13 34 C 17 35 30 37 31 39 C 32 40 43 35 49 33 C 51 33 49 32 45 31 C 38 33 33 34 29 34 C 26 34 20 33 13 31 Z" fill="#fe7a9e" id="id-female-6.8_face_5-67">
</path >
<path d="M 3 29 C 11 29 15 29 17 29 C 19 29 20 28 21 28 C 25 29 28 29 29 29 C 32 29 35 28 37 28 C 40 28 46 29 48 29 C 57 29 55 27 55 27 C 49 22 43 18 37 15 C 36 15 33 16 30 18 C 27 17 25 16 22 15 C 15 17 9 21 3 27 L 3 29 Z" fill="url(#id-female-6.8_face_5-17)" id="id-female-6.8_face_5-67">
</path >
<path d="M 29 25 C 33 25 35 23 38 23 C 39 23 39 27 45 27 C 45 27 47 26 51 24 C 46 20 42 17 37 15 C 35 15 33 16 30 18 C 27 17 25 16 23 15 L 24 22 L 28 19 C 29 23 29 25 29 25 Z" fill="#df5858" id="id-female-6.8_face_5-67">
</path >
<path d="M 18 28 C 10 29 7 29 8 29 C 13 29 16 29 17 29 C 19 29 20 28 21 28 C 25 29 28 29 29 29 C 32 29 35 28 37 28 C 40 28 46 29 48 29 C 57 29 55 27 55 27 C 55 27 53 28 50 28 C 47 28 43 28 41 27 C 39 27 38 26 38 24 C 34 26 31 28 29 28 C 26 28 23 27 20 24 L 18 28 Z" fill="#8d1920" id="id-female-6.8_face_5-67">
</path >
</g >
<g transform="translate(55,106)" id="id-female-6.8_face_5-73">
<polygon points="24 72 25 76 40 76 46 80 53 76 67 75 70 71 69 67 66 61 64 58" fill="url(#id-female-6.8_face_5-18)" id="id-female-6.8_face_5-74">
</polygon >
<path d="M 18 4 L 35 5 L 46 0 L 57 5 L 83 5 L 55 34 L 64 65 C 40 72 27 74 24 71 C 20 67 28 52 30 35 C 32 24 28 14 18 4 Z" fill="url(#id-female-6.8_face_5-19)" id="id-female-6.8_face_5-75">
</path >
<path d="M 114 30 L 124 14 L 114 4 L 71 8 L 65 12 C 59 16 54 22 52 30 C 52 34 52 46 52 65 L 62 72 L 67 68 C 66 59 64 61 59 46 C 58 43 57 39 58 34 L 69 40 L 114 30 Z" fill="url(#id-female-6.8_face_5-20)" id="id-female-6.8_face_5-76">
</path >
<path d="M 25 46 C 31 42 34 38 34 35 C 34 31 33 24 29 10 C 29 9 19 6 0 0 C 9 10 15 17 17 22 C 20 28 23 36 25 46 Z" fill="url(#id-female-6.8_face_5-21)" id="id-female-6.8_face_5-77">
</path >
<path d="M 34 63 L 26 68 C 26 66 27 64 28 63 C 28 61 30 59 32 57 L 34 63 Z" fill="#f19f74" id="id-female-6.8_face_5-78">
</path >
<path d="M 58 63 C 58 59 59 57 60 58 C 61 59 63 62 65 66 L 58 63 Z" fill="#f09764" id="id-female-6.8_face_5-79">
</path >
<polygon points="24 72 29 73 40 73 42 76 48 76 51 74 61 74 66 72 67 69 65 66 58 63 31 63 26 67" fill="url(#id-female-6.8_face_5-22)" id="id-female-6.8_face_5-80">
</polygon >
<path d="M 35 63 L 32 66 C 36 67 39 68 40 68 C 41 69 42 72 43 74 C 44 74 47 74 47 74 C 48 72 50 69 51 68 C 53 67 55 66 59 66 L 57 63 L 52 63 L 35 63 Z" fill="#af4415" id="id-female-6.8_face_5-81">
</path >
<path d="M 51 74 L 61 74 C 59 71 58 70 55 70 C 53 70 52 71 51 74 Z" fill="#470f00" id="id-female-6.8_face_5-82">
</path >
<path d="M 29 73 L 40 73 C 40 72 39 70 36 69 C 34 69 32 70 29 73 Z" fill="#470f00" id="id-female-6.8_face_5-83">
</path >
<path d="M 52 27 C 50 25 47 25 44 25 C 40 25 38 26 36 30 C 38 34 38 39 38 44 C 38 50 34 58 36 62 C 37 64 40 65 44 65 C 49 65 52 64 53 62 C 55 58 52 50 52 40 C 51 34 51 30 52 27 Z" fill="url(#id-female-6.8_face_5-23)" id="id-female-6.8_face_5-84">
</path >
<path d="M 52 27 C 50 25 47 25 44 25 C 40 25 38 26 36 30 C 40 35 44 37 46 37 C 48 37 50 34 52 27 Z" fill="#f5b991" id="id-female-6.8_face_5-84">
</path >
<path d="M 51 62 C 50 61 46 60 38 59 C 36 62 38 64 42 64 C 48 65 52 63 51 62 Z" fill="#fdad88" id="id-female-6.8_face_5-86">
</path >
<path d="M 28 44 L 21 70 L 25 72 C 24 69 25 66 26 62 C 27 59 30 51 34 40 L 34 33 L 28 44 Z" fill="url(#id-female-6.8_face_5-24)" id="id-female-6.8_face_5-87">
</path >
</g >
<g transform="translate(23,110)" id="id-female-6.8_face_5-88">
<path d="M 7 23 L 0 11 L 3 1 L 41 2 C 45 7 49 12 50 15 C 52 18 53 24 54 31 L 7 23 Z" fill="url(#id-female-6.8_face_5-25)" id="id-female-6.8_face_5-89">
</path >
<polygon points="32 4 28 20 46 23 42 5" fill="url(#id-female-6.8_face_5-26)" id="id-female-6.8_face_5-90">
</polygon >
<path d="M 8 25 C 15 34 21 39 27 40 C 34 41 43 39 54 35 L 32 21 L 8 25 Z" fill="#fc8c66" id="id-female-6.8_face_5-91">
</path >
<path d="M 19 27 C 21 30 24 32 30 32 C 35 33 43 33 52 31 C 52 25 47 21 35 19 C 24 18 18 20 19 27 Z" fill="#bec3d7" id="id-female-6.8_face_5-92">
</path >
<path d="M 19 29 L 23 30 L 23 27 L 30 24 L 52 29 C 48 22 40 19 29 20 C 17 20 14 23 19 29 Z" fill="#000000" opacity="0.305" id="id-female-6.8_face_5-93">
</path >
<polygon points="49 32 54 35 55 32 50 26" fill="#751f00" id="id-female-6.8_face_5-94">
</polygon >
<path d="M 53 34 L 36 34 L 22 32 L 15 26 C 17 27 19 29 21 29 C 24 31 27 32 30 32 C 35 33 41 32 49 31 L 53 34 Z" fill="#64422d" id="id-female-6.8_face_5-95">
</path >
<path d="M 21 29 L 19 24 C 26 21 33 20 39 22 C 45 24 50 27 55 32 C 52 25 46 20 37 18 C 31 17 24 19 15 21 C 14 21 11 22 7 24 L 10 27 L 14 26 L 20 30 L 21 29 Z" fill="#181108" id="id-female-6.8_face_5-96">
</path >
<path d="M 26 22 C 26 29 29 32 35 32 C 41 32 44 29 45 24 C 41 21 37 19 35 19 C 33 19 30 20 26 22 Z" fill="#161209" id="id-female-6.8_face_5-97">
</path >
<polygon points="31 26 33 26 33 23 29 23 29 25 31 25" fill="#8c8f9e" id="id-female-6.8_face_5-98">
</polygon >
<path d="M 35 28 C 36 28 38 27 38 27 C 39 27 39 26 40 25 L 43 28 C 42 29 41 30 40 31 C 39 31 38 31 36 31 L 35 28 Z" fill="#6e1d00" id="id-female-6.8_face_5-99">
</path >
</g >
<g transform="translate(116,111)" id="id-female-6.8_face_5-100">
<path d="M 9 34 C 13 37 20 39 31 39 C 37 39 46 34 57 25 L 55 22 L 19 20 L 9 34 Z" fill="url(#id-female-6.8_face_5-27)" id="id-female-6.8_face_5-101">
</path >
<polygon points="11 28 0 20 10 5 53 1 61 11 52 23" fill="url(#id-female-6.8_face_5-28)" id="id-female-6.8_face_5-102">
</polygon >
<polygon points="20 21 24 1 32 1 38 21" fill="url(#id-female-6.8_face_5-29)" id="id-female-6.8_face_5-103">
</polygon >
<polygon points="13 32 31 34 41 31 45 28 14 25 10 34" fill="#8e5c40" id="id-female-6.8_face_5-104">
</polygon >
<path d="M 14 31 C 21 32 27 32 30 32 C 34 32 37 30 40 28 C 48 26 48 23 40 20 C 32 18 23 19 13 24 L 14 31 Z" fill="#ccccd7" id="id-female-6.8_face_5-105">
</path >
<path d="M 38 29 L 40 28 C 48 26 48 23 40 20 C 32 18 23 19 13 24 L 13 30 C 18 26 23 24 27 23 C 30 23 34 23 39 24 L 38 29 Z" fill="#000000" opacity="0.305" id="id-female-6.8_face_5-105">
</path >
<polygon points="8 32 9 34 14 31 14 25" fill="#782200" id="id-female-6.8_face_5-107">
</polygon >
<path d="M 18 24 C 19 29 22 32 28 32 C 34 31 37 28 37 21 C 35 20 31 19 26 19 C 21 20 18 21 18 24 Z" fill="#161209" id="id-female-6.8_face_5-108">
</path >
<path d="M 35 24 L 32 24 C 32 25 31 26 31 27 C 30 28 29 28 27 29 L 29 31 C 31 31 33 30 34 29 C 35 27 35 26 35 24 Z" fill="#761c00" id="id-female-6.8_face_5-109">
</path >
<polygon points="22 27 24 27 24 26 27 26 27 24 22 24" fill="#987a9e" id="id-female-6.8_face_5-110">
</polygon >
<path d="M 8 33 C 14 25 20 21 25 20 C 31 20 37 21 43 23 L 40 28 L 45 28 L 48 25 L 52 26 L 55 22 C 51 21 47 20 45 20 C 37 17 30 16 24 18 C 15 19 10 24 8 33 Z" fill="#171208" id="id-female-6.8_face_5-111">
</path >
</g >
<g transform="translate(23,101)" id="id-female-6.8_face_5-112">
<path d="M 1 13 L 11 11 L 9 13 L 28 12 L 28 13 L 51 16 L 49 17 L 56 17 L 56 20 L 65 11 L 62 11 L 60 13 L 60 9 L 56 13 L 56 7 L 54 12 L 46 4 C 28 1 18 0 14 1 C 11 2 7 6 1 13 Z" fill="url(#id-female-6.8_face_5-30)" id="id-female-6.8_face_5-113">
</path >
<polygon points="95 12 101 18 109 18 110 16 121 16 124 14 137 13 156 8 143 1 130 2 111 6 104 13 103 9 101 13 97 11" fill="url(#id-female-6.8_face_5-31)" id="id-female-6.8_face_5-114">
</polygon >
</g >
</g >
<defs >
<linearGradient x1="95%" y1="54%" x2="0%" y2="50%" id="id-female-11_neon_top-0">
<stop stop-color="#54338f" offset="0%">
</stop >
<stop stop-color="#13a0b0" offset="11%">
</stop >
<stop stop-color="#36c0d2" offset="21%">
</stop >
<stop stop-color="#3593c9" offset="32%">
</stop >
<stop stop-color="#5080cb" offset="50%">
</stop >
<stop stop-color="#656ec5" offset="67%">
</stop >
<stop stop-color="#be3fc0" offset="86%">
</stop >
<stop stop-color="#5e98d0" offset="100%">
</stop >
</linearGradient >
<radialGradient cx="50%" cy="10%" r="93%" id="id-female-11_neon_top-1" fx="50%" fy="10%" gradientTransform="translate(0.5,0.105) scale(0.406,1) rotate(90) scale(1,1) translate(-0.5,-0.105)">
<stop stop-color="#d1a2ea" offset="0%">
</stop >
<stop stop-color="#ae48c1" offset="44%">
</stop >
<stop stop-color="#54338f" offset="100%">
</stop >
</radialGradient >
<radialGradient cx="52%" cy="35%" r="46%" id="id-female-11_neon_top-2" fx="52%" fy="35%" gradientTransform="translate(0.524,0.347) scale(0.398,1) rotate(90) scale(1,3) translate(-0.524,-0.347)">
<stop stop-color="#76d9d3" offset="0%">
</stop >
<stop stop-color="#0ab0bc" offset="51%">
</stop >
<stop stop-color="#54338f" offset="100%">
</stop >
</radialGradient >
<linearGradient x1="100%" y1="50%" x2="0%" y2="50%" id="id-female-11_neon_top-3">
<stop stop-color="#a8dde4" offset="0%" stop-opacity="0">
</stop >
<stop stop-color="#34b9a8" offset="100%">
</stop >
</linearGradient >
<filter width="120%" height="124%" x="-10%" y="-12%" id="id-female-11_neon_top-4" filterUnits="objectBoundingBox">
<feGaussianBlur in="SourceGraphic" stdDeviation="2">
</feGaussianBlur >
</filter >
<filter width="134%" height="132%" x="-17%" y="-16%" id="id-female-11_neon_top-5" filterUnits="objectBoundingBox">
<feGaussianBlur in="SourceGraphic" stdDeviation="4">
</feGaussianBlur >
</filter >
<linearGradient x1="100%" y1="50%" x2="0%" y2="50%" id="id-female-11_neon_top-6">
<stop stop-color="#ffffff" offset="0%" stop-opacity="0">
</stop >
<stop stop-color="#ffffff" offset="100%" stop-opacity="0.246">
</stop >
</linearGradient >
<linearGradient x1="42%" y1="6%" x2="58%" y2="97%" id="id-female-11_neon_top-7">
<stop stop-color="#2d438a" offset="0%">
</stop >
<stop stop-color="#6972b9" offset="6%">
</stop >
<stop stop-color="#2e448b" offset="16%">
</stop >
<stop stop-color="#2e448b" offset="28%">
</stop >
<stop stop-color="#01215e" offset="38%">
</stop >
<stop stop-color="#01215e" offset="100%">
</stop >
</linearGradient >
<linearGradient x1="100%" y1="50%" x2="0%" y2="50%" id="id-female-11_neon_top-8">
<stop stop-color="#01215e" offset="0%">
</stop >
<stop stop-color="#01215e" offset="22%">
</stop >
<stop stop-color="#484298" offset="44%">
</stop >
<stop stop-color="#1c2e74" offset="73%">
</stop >
<stop stop-color="#01215e" offset="84%">
</stop >
<stop stop-color="#064470" offset="100%">
</stop >
</linearGradient >
</defs >
<g transform="translate(494,592)" id="id-female-11_neon_top-9">
<g transform="translate(17,360)" fill="#000000" fill-opacity="0.341" id="id-female-11_neon_top-10">
<path d="M 263 50 C 265 40 266 36 267 37 L 154 0 L 22 31 L 25 91 C 9 133 1 154 1 154 C 18 129 27 116 27 116 C 36 77 42 56 48 52 C 53 48 115 44 235 41 C 244 42 254 45 263 50 Z" id="id-female-11_neon_top-11">
</path >
</g >
<path d="M 281 405 C 287 400 289 397 289 397 C 298 328 302 293 302 293 C 309 283 316 273 319 265 C 314 231 306 208 297 190 C 263 172 193 197 160 197 C 127 197 38 176 33 182 C 28 188 20 195 18 199 C 8 218 0 235 0 256 C 5 272 13 286 24 299 C 30 323 31 367 33 404 C 36 406 37 408 40 409 C 40 406 40 404 40 404 C 46 398 96 397 161 397 C 198 397 237 388 281 399 L 281 405 Z" fill="url(#id-female-11_neon_top-0)" id="id-female-11_neon_top-12">
</path >
<path d="M 40 409 C 37 408 36 406 33 404 C 32 376 30 347 28 320 C 55 304 122 297 229 299 L 299 309 L 289 397 L 281 405 L 281 399 C 243 397 202 397 157 397 C 123 397 45 397 40 404 L 40 409 Z" fill="url(#id-female-11_neon_top-1)" opacity="0.649" id="id-female-11_neon_top-13">
</path >
<path d="M 302 293 C 309 283 316 273 319 265 C 314 231 306 208 297 190 C 263 172 193 197 160 197 C 127 197 38 176 33 182 C 28 188 20 195 18 199 C 8 218 0 235 0 256 C 5 272 13 286 24 299 C 30 323 302 293 302 293 Z" fill="url(#id-female-11_neon_top-2)" opacity="0.686" id="id-female-11_neon_top-12">
</path >
<path d="M 28 320 C 36 326 40 329 40 329 L 48 392 L 32 390 C 32 372 30 348 28 320 Z" fill="#57268b" fill-opacity="0.824" id="id-female-11_neon_top-15">
</path >
<path d="M 4 245 C 8 261 13 277 24 293 L 7 280 C 3 269 2 257 4 245 Z" fill="#9035a7" fill-opacity="0.409" id="id-female-11_neon_top-16">
</path >
<path d="M 78 385 C 89 336 81 342 69 314 C 76 311 79 309 79 309 C 68 297 53 292 40 285 C 43 274 45 268 45 268 C 64 279 85 287 107 291 C 98 293 89 295 79 299 C 87 300 91 301 91 301 C 88 305 87 307 87 307 C 85 308 82 307 85 311 C 95 327 101 350 97 387 C 84 386 78 385 78 385 Z" fill="#48a4d8" fill-opacity="0.462" id="id-female-11_neon_top-17">
</path >
<path d="M 74 322 C 87 317 94 314 94 314 C 153 325 182 330 182 330 C 162 336 125 328 122 346 C 117 345 115 345 115 345 L 106 334 C 84 326 74 322 74 322 Z" fill="#000000" fill-opacity="0.19" id="id-female-11_neon_top-18">
</path >
<path d="M 93 311 C 115 317 127 320 127 320 C 152 316 165 315 165 315 L 114 305 C 100 309 93 311 93 311 Z" fill="#19e9dc" fill-opacity="0.229" id="id-female-11_neon_top-19">
</path >
<path d="M 122 298 C 155 306 171 310 171 310 L 231 295 C 158 297 122 298 122 298 Z" fill="#19e9dc" fill-opacity="0.229" id="id-female-11_neon_top-20">
</path >
<path d="M 200 292 C 147 294 120 295 120 295 C 174 278 201 269 201 269 C 218 266 227 265 227 265 L 185 285 C 195 289 200 292 200 292 Z" fill="#0fcdc7" fill-opacity="0.318" id="id-female-11_neon_top-21">
</path >
<path d="M 219 204 C 225 233 228 248 228 248 C 262 244 278 242 278 242 L 275 197 C 251 198 232 200 219 204 Z" fill="url(#id-female-11_neon_top-3)" id="id-female-11_neon_top-22" filter="url(#id-female-11_neon_top-4)">
</path >
<path d="M 231 269 C 238 242 225 225 191 217 C 192 212 192 210 192 210 C 212 199 234 192 261 193 L 241 199 C 255 221 252 244 231 269 Z" fill="#ffffff" fill-opacity="0.455" id="id-female-11_neon_top-24" filter="url(#id-female-11_neon_top-5)">
</path >
<path d="M 40 269 C 36 251 50 229 82 202 L 43 199 C 28 219 27 242 40 269 Z" fill="#ffffff" fill-opacity="0.337" id="id-female-11_neon_top-26">
</path >
<path d="M 82 199 C 51 200 35 200 35 200 L 63 189 C 75 196 82 199 82 199 Z" fill="#ffffff" fill-opacity="0.349" id="id-female-11_neon_top-27">
</path >
<path d="M 122 220 C 137 215 145 212 145 212 L 104 205 C 116 215 122 220 122 220 Z" fill="#e398f0" id="id-female-11_neon_top-28">
</path >
<path d="M 212 336 L 296 325 L 289 386 C 251 389 184 392 135 389 C 171 374 212 375 212 336 Z" fill="url(#id-female-11_neon_top-6)" id="id-female-11_neon_top-29">
</path >
<path d="M 77 187 C 125 192 143 202 197 193 C 202 191 207 190 210 189 L 205 196 C 205 196 209 197 217 199 C 158 223 140 207 82 199 L 77 187 Z" fill="#000000" fill-opacity="0.165" id="id-female-11_neon_top-30">
</path >
<path d="M 168 343 L 143 334 C 154 332 172 333 182 330 C 145 324 127 320 127 320 L 167 315 C 207 315 264 307 297 320 L 296 325 C 216 335 174 341 168 343 Z" fill="#3a61a2" fill-opacity="0.383" id="id-female-11_neon_top-31">
</path >
<g transform="translate(11,63)" id="id-female-11_neon_top-32">
<path d="M 34 118 C 12 48 2 12 2 12 C 1 12 0 11 0 11 C 15 4 23 0 23 0 L 63 122 C 51 121 41 119 34 118 Z" fill="url(#id-female-11_neon_top-7)" id="id-female-11_neon_top-33">
</path >
<path d="M 11 0 C 8 6 7 9 7 9 C 12 10 14 11 14 11 L 20 5 C 14 2 11 0 11 0 Z" fill="#dce0e9" id="id-female-11_neon_top-34">
</path >
<path d="M 17 15 C 15 19 13 21 13 21 C 17 23 20 24 20 24 L 22 21 C 19 17 17 15 17 15 Z" fill="#dce0e9" id="id-female-11_neon_top-35">
</path >
<path d="M 20 29 C 18 32 17 34 17 34 C 21 37 23 38 23 38 L 27 31 C 22 29 20 29 20 29 Z" fill="#dce0e9" id="id-female-11_neon_top-36">
</path >
<path d="M 26 43 C 23 48 22 51 22 51 C 24 52 26 52 28 54 L 32 46 C 28 44 26 43 26 43 Z" fill="#dce0e9" id="id-female-11_neon_top-37">
</path >
<path d="M 30 57 C 28 63 27 65 27 65 C 30 66 32 66 35 68 L 37 61 C 32 59 30 57 30 57 Z" fill="#dce0e9" id="id-female-11_neon_top-38">
</path >
<path d="M 36 73 C 34 79 32 82 32 82 C 37 83 39 83 39 83 L 42 76 C 38 74 36 73 36 73 Z" fill="#dce0e9" id="id-female-11_neon_top-39">
</path >
<path d="M 40 88 C 37 95 36 98 36 98 C 41 99 43 99 43 99 L 46 93 C 42 90 40 88 40 88 Z" fill="#dce0e9" id="id-female-11_neon_top-40">
</path >
<path d="M 44 104 C 41 110 39 113 39 113 C 44 114 46 114 46 114 L 50 104 C 46 104 44 104 44 104 Z" fill="#dce0e9" id="id-female-11_neon_top-41">
</path >
</g >
<g transform="translate(106,0)" id="id-female-11_neon_top-42">
<path d="M 6 0 C 3 17 2 25 2 25 C 45 40 83 39 118 24 L 114 1 C 81 16 45 15 6 0 Z" fill="url(#id-female-11_neon_top-8)" id="id-female-11_neon_top-43">
</path >
<path d="M 0 12 C 3 10 4 9 4 9 C 6 13 7 15 7 15 L 2 18 C 1 14 0 12 0 12 Z" fill="#dddfef" id="id-female-11_neon_top-44">
</path >
<path d="M 12 18 C 16 15 18 13 18 13 C 21 17 23 19 23 19 L 17 25 C 14 20 12 18 12 18 Z" fill="#dddfef" id="id-female-11_neon_top-45">
</path >
<path d="M 30 22 C 35 19 37 17 37 17 C 39 21 40 23 40 23 L 35 28 C 32 24 30 22 30 22 Z" fill="#dddfef" id="id-female-11_neon_top-46">
</path >
<path d="M 55 25 C 59 21 61 19 61 19 C 63 23 64 25 64 25 L 60 29 C 57 26 55 25 55 25 Z" fill="#dddfef" id="id-female-11_neon_top-47">
</path >
<path d="M 77 24 C 80 20 82 18 82 18 C 86 22 88 23 88 23 L 83 28 C 79 25 77 24 77 24 Z" fill="#dddfef" id="id-female-11_neon_top-48">
</path >
<path d="M 98 21 C 101 17 102 15 102 15 C 105 18 107 19 107 19 L 104 24 C 100 22 98 21 98 21 Z" fill="#dddfef" id="id-female-11_neon_top-49">
</path >
<path d="M 113 16 C 115 12 116 9 116 9 C 119 12 120 13 120 13 L 117 19 C 115 17 113 16 113 16 Z" fill="#dddfef" id="id-female-11_neon_top-50">
</path >
<path d="M 83 15 C 87 11 90 9 90 9 L 73 11 C 80 14 83 15 83 15 Z" fill="#8494ed" id="id-female-11_neon_top-51">
</path >
</g >
</g >
<defs >
<linearGradient x1="50%" y1="0%" x2="50%" y2="100%" id="id-female-12_puzzlemaster_skirt_midnight-0">
<stop stop-color="#16294f" offset="0%">
</stop >
<stop stop-color="#162342" offset="100%">
</stop >
</linearGradient >
<linearGradient x1="50%" y1="0%" x2="50%" y2="100%" id="id-female-12_puzzlemaster_skirt_midnight-1">
<stop stop-color="#20355d" offset="0%">
</stop >
<stop stop-color="#162849" offset="100%">
</stop >
</linearGradient >
</defs >
<g transform="translate(449,940)" id="id-female-12_puzzlemaster_skirt_midnight-2">
<path d="M 304 651 C 129 669 42 678 42 678 C 27 617 16 553 5 489 C 2 453 -3 416 3 379 C 30 266 43 209 43 209 C 57 172 63 154 63 154 C 63 150 63 147 63 147 C 71 136 78 127 75 111 C 79 107 81 105 81 105 C 82 55 82 30 82 30 C 80 12 79 3 79 3 C 140 1 171 1 171 1 C 175 2 177 3 177 3 C 179 1 180 0 180 0 C 285 0 337 0 337 0 C 334 25 333 37 333 37 C 332 70 332 87 332 87 C 333 87 333 88 333 88 C 332 93 334 98 337 103 C 335 110 339 116 345 121 C 337 132 355 165 363 190 C 374 247 380 275 380 275 C 390 313 395 332 395 332 C 401 375 404 396 404 396 C 405 425 405 439 405 439 C 400 475 398 494 398 494 C 387 546 374 597 361 648 C 341 650 331 651 331 651 L 330 319 C 313 541 304 651 304 651 Z" fill="url(#id-female-12_puzzlemaster_skirt_midnight-0)" id="id-female-12_puzzlemaster_skirt_midnight-3">
</path >
<path d="M 361 648 L 331 651 C 356 551 379 439 395 332 L 404 396 L 405 441 L 398 494 C 383 560 371 611 361 648 Z" fill="#22365b" id="id-female-12_puzzlemaster_skirt_midnight-4">
</path >
<path d="M 117 670 C 97 546 87 484 87 484 C 91 400 93 358 93 358 C 170 283 208 245 208 245 C 291 169 333 132 333 132 L 343 131 C 342 127 343 124 345 121 C 341 118 338 114 337 110 C 180 222 101 278 101 278 L 45 328 C 17 363 3 380 3 380 C 37 346 53 329 53 329 C 81 302 95 289 95 289 C 207 208 263 167 263 167 C 304 144 324 132 324 132 C 246 201 168 274 91 348 L 3 462 L 5 485 C 14 550 29 614 42 678 C 92 673 117 670 117 670 Z" fill="#0c1a34" id="id-female-12_puzzlemaster_skirt_midnight-5">
</path >
<path d="M 236 536 C 300 376 333 296 333 296 L 312 151 L 208 245 L 93 359 C 188 477 236 536 236 536 Z" fill="#152545" id="id-female-12_puzzlemaster_skirt_midnight-6">
</path >
<path d="M 210 244 C 238 372 252 437 252 437 C 303 350 329 306 329 306 C 317 312 311 315 311 315 C 291 268 281 245 281 245 L 328 259 L 312 151 C 244 213 210 244 210 244 Z" fill="url(#id-female-12_puzzlemaster_skirt_midnight-1)" id="id-female-12_puzzlemaster_skirt_midnight-7">
</path >
<path d="M 277 241 C 308 228 323 222 323 222 C 337 240 345 249 345 249 L 327 254 C 294 245 277 241 277 241 Z" fill="#223a6b" id="id-female-12_puzzlemaster_skirt_midnight-8">
</path >
<path d="M 283 653 L 328 308 L 330 319 L 304 651 C 290 653 283 653 283 653 Z" fill="#0c1a34" id="id-female-12_puzzlemaster_skirt_midnight-9">
</path >
<path d="M 343 650 L 371 610 C 367 623 364 635 361 648 C 349 649 343 650 343 650 Z" fill="#1b2d50" id="id-female-12_puzzlemaster_skirt_midnight-10">
</path >
<path d="M 25 285 C 45 266 55 256 55 256 L 292 113 C 322 107 337 103 337 103 C 335 100 334 98 334 98 C 307 104 294 107 294 107 C 135 198 55 243 55 243 C 61 198 64 175 64 175 L 95 177 L 63 147 L 63 154 L 43 209 C 31 260 25 285 25 285 Z" fill="#0c1c39" id="id-female-12_puzzlemaster_skirt_midnight-11">
</path >
<path d="M 105 209 C 108 211 110 212 110 212 C 116 209 119 207 119 207 C 121 132 122 94 122 94 L 119 94 C 109 171 105 209 105 209 Z" fill="#0f1f3d" id="id-female-12_puzzlemaster_skirt_midnight-12">
</path >
<path d="M 304 105 C 302 106 299 106 294 107 C 206 157 162 182 162 182 C 156 133 152 108 152 108 L 188 89 L 300 87 L 304 105 Z" fill="#1b2e55" id="id-female-12_puzzlemaster_skirt_midnight-13">
</path >
<path d="M 204 89 C 239 95 256 98 256 98 L 300 87 C 236 88 204 89 204 89 Z" fill="#0c1c3a" id="id-female-12_puzzlemaster_skirt_midnight-14">
</path >
<path d="M 215 152 C 224 139 228 133 228 133 C 222 107 219 94 219 94 C 230 95 236 96 236 96 C 248 114 254 123 254 123 L 262 126 C 231 143 215 152 215 152 Z" fill="#20355e" id="id-female-12_puzzlemaster_skirt_midnight-15">
</path >
<path d="M 214 160 C 229 174 236 182 236 182 C 284 147 308 130 308 130 L 304 111 L 292 113 C 240 144 214 160 214 160 Z" fill="#203760" id="id-female-12_puzzlemaster_skirt_midnight-16">
</path >
<path d="M 203 211 C 200 233 199 243 199 243 C 273 177 310 144 310 144 L 310 141 L 262 169 C 222 197 203 211 203 211 Z" fill="#1d335e" id="id-female-12_puzzlemaster_skirt_midnight-17">
</path >
<path d="M 63 147 C 87 152 99 154 99 154 L 73 130 C 73 134 69 139 63 147 Z" fill="#0c1d37" id="id-female-12_puzzlemaster_skirt_midnight-18">
</path >
<path d="M 75 111 C 93 117 101 120 101 120 L 81 95 L 81 105 C 77 109 75 111 75 111 Z" fill="#0c1d37" id="id-female-12_puzzlemaster_skirt_midnight-19">
</path >
<path d="M 90 86 C 109 91 118 93 118 93 L 146 86 C 109 86 90 86 90 86 Z" fill="#000126" id="id-female-12_puzzlemaster_skirt_midnight-20">
</path >
<path d="M 81 85 C 164 85 248 86 332 87 L 333 37 L 337 0 L 180 0 L 177 3 L 171 1 L 79 3 L 82 30 L 81 85 Z" fill="#0c1c3a" id="id-female-12_puzzlemaster_skirt_midnight-21">
</path >
<path d="M 95 81 L 96 2 C 146 1 171 1 171 1 C 174 2 175 3 175 3 L 171 86 C 120 83 95 81 95 81 Z" fill="#132442" id="id-female-12_puzzlemaster_skirt_midnight-22">
</path >
<path d="M 103 85 C 113 45 118 24 118 24 L 185 25 L 171 86 C 126 85 103 85 103 85 Z" fill="#841d81" id="id-female-12_puzzlemaster_skirt_midnight-23">
</path >
<path d="M 117 85 C 129 45 135 24 135 24 C 139 25 141 25 141 25 L 126 85 L 117 85 Z" fill="#681079" id="id-female-12_puzzlemaster_skirt_midnight-24">
</path >
<path d="M 145 85 C 155 45 161 25 161 25 C 166 25 169 25 169 25 L 150 85 C 146 85 145 85 145 85 Z" fill="#681079" id="id-female-12_puzzlemaster_skirt_midnight-25">
</path >
<path d="M 118 24 C 124 30 127 32 127 32 C 133 27 137 25 137 25 C 145 30 149 33 149 33 C 157 28 160 25 160 25 L 173 34 L 185 25 C 141 24 119 24 118 24 Z" fill="#ba4eb0" id="id-female-12_puzzlemaster_skirt_midnight-26">
</path >
<path d="M 188 86 C 190 29 190 0 190 0 C 266 0 303 0 303 0 L 294 86 C 223 86 188 86 188 86 Z" fill="#1b3056" id="id-female-12_puzzlemaster_skirt_midnight-27">
</path >
<path d="M 236 2 C 257 3 267 3 267 3 C 269 55 269 80 269 80 C 271 84 272 86 272 86 C 245 86 231 86 231 86 C 235 82 237 80 237 80 L 240 9 C 237 5 236 2 236 2 Z" fill="#243a63" id="id-female-12_puzzlemaster_skirt_midnight-28">
</path >
<path d="M 196 64 C 203 64 207 65 207 65 C 206 75 205 80 205 80 L 196 80 C 196 69 196 64 196 64 Z" fill="#a37600" id="id-female-12_puzzlemaster_skirt_midnight-29">
</path >
<path d="M 196 47 C 203 47 207 46 207 46 C 207 36 206 31 206 31 L 196 29 C 196 41 196 47 196 47 Z" fill="#a37600" id="id-female-12_puzzlemaster_skirt_midnight-30">
</path >
<path d="M 175 96 C 174 89 174 86 174 86 L 188 86 L 188 89 C 179 93 175 96 175 96 Z" fill="#000126" id="id-female-12_puzzlemaster_skirt_midnight-31">
</path >
<path d="M 330 631 C 316 651 309 661 309 661 C 133 676 45 683 45 683 C 45 679 44 677 44 677 L 303 651 L 330 319 C 330 527 330 631 330 631 Z" fill="#94268c" id="id-female-12_puzzlemaster_skirt_midnight-32">
</path >
</g >
<defs >
<linearGradient x1="79%" y1="20%" x2="50%" y2="104%" id="id-female-25_43_wet-0">
<stop stop-color="#66a1ef" offset="0%">
</stop >
<stop stop-color="#315d98" offset="20%">
</stop >
<stop stop-color="#2e3e59" offset="39%">
</stop >
<stop stop-color="#2d3d57" offset="53%">
</stop >
<stop stop-color="#2e3e58" offset="70%">
</stop >
<stop stop-color="#445f8a" offset="85%">
</stop >
<stop stop-color="#526894" offset="92%">
</stop >
<stop stop-color="#263d60" offset="100%">
</stop >
</linearGradient >
<linearGradient x1="97%" y1="58%" x2="13%" y2="45%" id="id-female-25_43_wet-1">
<stop stop-color="#c9d6eb" offset="0%">
</stop >
<stop stop-color="#6186bc" offset="100%">
</stop >
</linearGradient >
<linearGradient x1="96%" y1="46%" x2="6%" y2="53%" id="id-female-25_43_wet-2">
<stop stop-color="#abc8f0" offset="0%">
</stop >
<stop stop-color="#d1ddef" offset="100%">
</stop >
</linearGradient >
<linearGradient x1="49%" y1="14%" x2="53%" y2="100%" id="id-female-25_43_wet-3">
<stop stop-color="#2e3e59" offset="0%">
</stop >
<stop stop-color="#415b84" offset="100%">
</stop >
</linearGradient >
</defs >
<g transform="translate(477,320)" id="id-female-25_43_wet-4">
<path d="M 197 1 C 207 -1 213 0 215 3 C 219 4 222 7 225 11 C 284 23 278 142 270 169 C 269 174 269 176 269 178 L 269 178 C 268 179 268 180 268 181 C 267 184 266 192 266 194 C 269 214 260 238 259 271 C 259 339 280 357 309 351 C 269 363 251 333 255 261 C 251 285 247 302 244 312 C 252 249 245 197 243 173 C 242 164 241 156 240 147 L 240 147 L 240 147 C 242 160 242 171 243 173 L 243 173 C 242 173 242 173 242 173 C 237 149 232 131 226 115 L 226 113 C 218 90 212 72 211 50 C 202 72 193 139 153 226 C 152 227 153 223 154 216 L 154 215 L 154 216 C 150 237 147 250 146 256 L 146 256 C 113 396 116 388 18 351 C 14 352 8 354 1 358 C 14 332 50 335 51 334 C 87 304 101 249 92 174 C 93 175 93 178 94 180 L 95 181 C 96 184 97 187 97 188 C 98 187 98 167 95 127 L 95 127 L 89 127 C 87 130 86 133 85 135 C 86 94 86 -4 197 1 Z M 93 274 C 85 299 73 319 58 334 L 69 334 C 77 328 85 308 93 274 Z M 200 67 C 172 123 159 189 154 215 L 154 215 L 154 215 C 156 208 157 200 159 191 C 174 155 188 114 200 67 Z M 238 134 L 238 134 C 239 138 239 142 240 146 L 240 147 L 240 146 C 240 142 239 138 238 135 L 238 134 Z M 237 130 L 237 131 C 237 132 238 133 238 133 L 238 133 L 238 133 C 238 132 237 132 237 131 L 237 130 Z M 214 47 C 217 84 233 117 237 130 L 237 130 L 237 130 C 233 111 226 87 215 49 Z" fill="url(#id-female-25_43_wet-0)" id="id-female-25_43_wet-5">
</path >
<path d="M 203 75 C 201 75 200 75 198 75 C 198 75 199 70 200 67 C 199 68 196 74 196 75 C 164 73 128 66 106 50 C 109 42 116 33 126 25 C 128 35 135 40 149 39 C 153 56 169 70 199 57 C 202 57 205 57 208 57 C 206 66 204 72 203 75 Z" fill="url(#id-female-25_43_wet-1)" id="id-female-25_43_wet-6">
</path >
<path d="M 211 57 C 213 57 214 57 215 56 C 216 62 217 68 219 75 C 218 75 217 75 214 75 C 213 70 212 64 211 57 Z" fill="#cfdbee" id="id-female-25_43_wet-6">
</path >
<path d="M 217 56 C 240 55 251 52 264 50 C 265 53 267 59 269 64 C 259 70 242 73 222 74 L 217 56 Z" fill="url(#id-female-25_43_wet-2)" id="id-female-25_43_wet-6">
</path >
<path d="M 153 18 C 154 13 182 0 207 7 C 213 6 215 6 221 7 C 222 7 224 9 225 11 C 235 13 242 17 247 23 C 241 22 234 22 227 22 C 228 35 227 43 224 46 C 223 47 225 31 223 26 C 221 33 212 50 209 52 C 209 51 214 37 219 24 C 204 24 193 23 187 21 C 175 23 162 35 163 34 C 162 31 174 22 202 11 C 169 6 153 21 153 18 Z" fill="#4173bc" id="id-female-25_43_wet-9">
</path >
<path d="M 124 288 C 124 288 116 380 42 357 C 110 377 124 288 124 288 Z" fill="#23334e" id="id-female-25_43_wet-10">
</path >
<path d="M 108 366 C 110 364 111 364 113 361 C 137 297 133 258 136 204 C 138 175 140 164 144 146 C 123 211 145 265 108 366 Z" fill="#23334e" id="id-female-25_43_wet-11">
</path >
<path d="M 150 123 C 119 177 157 363 26 347 C 81 347 112 318 120 261 C 126 241 126 171 150 123 Z" fill="#23334e" id="id-female-25_43_wet-12">
</path >
<path d="M 142 274 C 143 271 143 268 144 267 C 140 220 139 199 140 176 C 135 189 138 220 142 274 Z" fill="#23334e" id="id-female-25_43_wet-13">
</path >
<path d="M 252 78 C 256 124 267 159 252 250 C 269 176 261 131 252 78 Z" fill="#253c5c" id="id-female-25_43_wet-14">
</path >
<path d="M 104 44 C 103 45 101 50 99 54 C 89 93 93 104 93 127 C 93 127 94 127 94 127 C 93 92 96 64 104 44 Z" fill="#23334e" id="id-female-25_43_wet-15">
</path >
<path d="M 268 181 C 268 193 267 204 267 215 C 253 340 291 356 310 371 C 245 312 280 251 270 169 C 270 169 268 181 268 181 Z" fill="url(#id-female-25_43_wet-3)" id="id-female-25_43_wet-16">
</path >
</g >
<defs >
</defs >
<path d="M 1216 1656 C 1219 1656 1229 1656 1232 1656 C 1234 1656 1235 1655 1235 1654 C 1236 1652 1235 1647 1236 1644 C 1237 1638 1247 1638 1247 1645 C 1248 1650 1245 1656 1252 1656 C 1255 1656 1264 1656 1268 1656 L 1268 1670 C 1265 1670 1263 1670 1261 1670 C 1251 1673 1248 1686 1256 1692 C 1257 1693 1259 1694 1261 1695 C 1263 1695 1265 1695 1268 1695 C 1268 1696 1268 1707 1267 1708 C 1267 1708 1255 1708 1254 1708 C 1254 1704 1255 1700 1251 1696 C 1246 1690 1237 1690 1232 1696 C 1228 1701 1230 1705 1229 1708 L 1216 1708 C 1216 1708 1216 1708 1216 1708 C 1216 1707 1216 1699 1216 1697 C 1216 1694 1217 1690 1214 1688 C 1212 1688 1206 1689 1204 1688 C 1198 1687 1198 1677 1205 1677 C 1208 1677 1213 1677 1215 1676 C 1217 1674 1216 1669 1216 1666 C 1216 1663 1216 1658 1216 1656 L 1216 1656 Z M 1209 1695 C 1209 1700 1209 1705 1209 1710 C 1209 1716 1213 1714 1219 1714 C 1222 1714 1232 1715 1234 1714 C 1238 1712 1235 1706 1236 1702 C 1238 1698 1243 1697 1246 1700 C 1247 1702 1247 1703 1247 1706 C 1247 1707 1247 1711 1248 1712 C 1249 1715 1250 1714 1253 1714 L 1268 1714 C 1271 1714 1272 1715 1274 1713 C 1275 1711 1274 1708 1274 1706 C 1274 1703 1275 1694 1274 1691 C 1274 1685 1262 1692 1259 1685 C 1256 1681 1260 1677 1264 1677 C 1269 1677 1274 1678 1274 1673 C 1274 1668 1274 1663 1274 1658 C 1274 1656 1275 1653 1274 1651 C 1273 1649 1271 1649 1269 1649 C 1266 1649 1255 1649 1254 1649 C 1254 1646 1254 1645 1254 1642 C 1251 1630 1233 1630 1229 1642 C 1229 1645 1229 1646 1229 1649 C 1226 1649 1222 1649 1219 1649 C 1216 1649 1212 1648 1210 1650 C 1209 1652 1209 1657 1209 1660 C 1209 1663 1209 1667 1209 1670 C 1205 1670 1202 1670 1198 1673 C 1195 1675 1193 1678 1193 1683 C 1193 1687 1195 1690 1198 1692 C 1199 1693 1201 1694 1203 1695 C 1205 1695 1208 1695 1209 1695 L 1209 1695 Z" fill="#343d53" opacity="0.297" id="id-icons-PuzzleMaster-0">
</path >
</svg>