<?xml version="1.0" encoding="UTF-8"?>
<svg width="1320px" height="1760px" viewBox="0 0 1320 1760" version="1.1" xmlns="http://www.w3.org/2000/svg" xmlns:xlink="http://www.w3.org/1999/xlink">
<defs >
</defs >
<g stroke="none" stroke-width="1" fill="none" id="id-bg-37-Artboard-0" fill-rule="evenodd">
<g id="id-bg-37-Artboard-1">
<rect fill="#da1866" width="1320" height="1760" x="0" y="0" id="id-bg-37-Artboard-2">
</rect >
<g transform="translate(83,328)" id="id-bg-37-Artboard-3">
<path d="M 120 1019 C 96 961 84 932 84 932 C 28 863 0 829 0 829 C 24 734 37 686 37 686 L 51 716 C 97 918 120 1019 120 1019 Z" fill="#1d1d1d" id="id-bg-37-Artboard-4">
</path >
<path d="M 209 1012 C 217 1036 220 1048 220 1048 L 255 1035 C 225 1019 209 1012 209 1012 Z" fill="#1d1d1d" id="id-bg-37-Artboard-5">
</path >
<path d="M 214 1066 C 271 1044 299 1033 299 1033 C 241 1020 171 994 132 893 C 67 699 54 522 100 364 C 146 248 201 131 437 0 C 397 47 377 70 377 70 C 565 2 807 64 952 200 C 1087 346 1107 499 1086 650 C 1077 842 1073 938 1073 938 C 1047 842 1034 794 1034 794 C 1002 855 962 896 919 930 C 768 1081 693 1156 693 1156 C 778 1054 820 1003 820 1003 C 757 1026 726 1038 726 1038 C 708 1036 699 1036 699 1036 C 674 1070 661 1088 661 1088 C 648 1252 641 1334 641 1334 C 614 1181 600 1104 600 1104 C 581 1065 571 1046 571 1046 C 521 1049 463 1051 386 1047 C 363 1076 351 1091 351 1091 C 338 1279 331 1373 331 1373 L 331 1055 C 253 1062 214 1066 214 1066 Z" fill="#1d1d1d" id="id-bg-37-Artboard-6">
</path >
<path d="M 600 1207 C 598 1334 597 1397 597 1397 L 619 1334 C 607 1250 600 1207 600 1207 Z" fill="#1d1d1d" id="id-bg-37-Artboard-7">
</path >
<path d="M 829 1129 C 956 985 1020 913 1020 913 L 972 1084 C 877 1114 829 1129 829 1129 Z" fill="#1d1d1d" id="id-bg-37-Artboard-8">
</path >
<path d="M 876 1090 C 949 1005 986 963 986 963 L 954 1062 C 902 1080 876 1090 876 1090 Z" fill="#ffffff" id="id-bg-37-Artboard-9">
</path >
<path d="M 1104 565 C 1101 505 1100 476 1100 476 L 1133 509 C 1114 546 1104 565 1104 565 Z" fill="#1d1d1d" id="id-bg-37-Artboard-10">
</path >
<path d="M 1128 441 C 1095 346 1078 299 1078 299 L 1173 364 C 1143 415 1128 441 1128 441 Z" fill="#1d1d1d" id="id-bg-37-Artboard-11">
</path >
<path d="M 1130 413 C 1106 358 1094 331 1094 331 L 1146 362 C 1135 396 1130 413 1130 413 Z" fill="#ffffff" id="id-bg-37-Artboard-12">
</path >
<path d="M 1001 218 C 954 156 895 102 827 61 L 973 78 C 991 171 1001 218 1001 218 Z" fill="#1d1d1d" id="id-bg-37-Artboard-13">
</path >
<path d="M 908 96 C 927 114 947 133 969 160 C 968 141 968 128 961 102 L 954 96 C 924 96 908 96 908 96 Z" fill="#ffffff" id="id-bg-37-Artboard-14">
</path >
<path d="M 357 62 C 354 75 352 82 352 82 L 284 119 C 333 81 357 62 357 62 Z" fill="#ffffff" id="id-bg-37-Artboard-15">
</path >
<path d="M 68 347 C 58 337 52 332 52 332 C 50 315 48 292 50 248 C 97 203 144 167 192 134 C 121 215 79 286 68 347 Z" fill="#1d1d1d" id="id-bg-37-Artboard-16">
</path >
<path d="M 74 416 C 55 446 45 461 45 461 L 61 549 C 57 489 62 445 74 416 Z" fill="#1d1d1d" id="id-bg-37-Artboard-17">
</path >
<path d="M 39 714 C 26 790 19 827 19 827 L 74 877 C 51 769 39 714 39 714 Z" fill="#ffffff" id="id-bg-37-Artboard-18">
</path >
<path d="M 345 1061 C 361 1037 370 1025 370 1025 L 311 1004 C 333 1042 345 1061 345 1061 Z" fill="#ffffff" id="id-bg-37-Artboard-19">
</path >
<path d="M 842 990 C 832 983 827 980 827 980 L 855 951 C 847 977 842 990 842 990 Z" fill="#ffffff" id="id-bg-37-Artboard-20">
</path >
<path d="M 1086 585 C 1080 582 1077 581 1077 581 C 1077 601 1074 620 1070 638 C 1068 763 1067 826 1067 826 C 1050 767 1041 738 1041 738 C 1021 782 993 823 958 859 C 895 932 864 969 864 969 C 876 939 881 924 881 924 C 816 964 742 998 638 1007 C 632 1147 629 1217 629 1217 C 614 1113 606 1060 606 1060 C 592 1028 585 1012 585 1012 C 507 1012 431 1010 357 1006 C 304 1002 232 1014 190 971 C 190 1006 190 1024 190 1024 C 170 941 151 869 129 777 C 89 620 71 479 108 375 C 150 257 225 156 366 88 C 529 20 726 48 895 171 C 987 239 1046 340 1072 474 C 1077 521 1082 555 1086 585 Z" fill="#ffffff" id="id-bg-37-Artboard-21">
</path >
<path d="M 173 913 C 170 869 169 847 169 847 C 142 740 128 687 128 687 C 97 501 116 344 210 229 C 233 201 261 168 294 134 C 294 143 295 147 295 147 C 394 74 509 52 637 75 C 939 141 1033 311 1054 518 C 1051 585 1053 660 1054 734 C 1037 713 1028 702 1028 702 C 972 850 855 955 634 987 C 620 1020 613 1037 613 1037 C 597 1007 589 993 589 993 C 529 997 456 996 408 994 C 317 997 192 1014 173 913 Z" fill="#00ff39" id="id-bg-37-Artboard-22">
</path >
<path d="M 145 807 C 150 835 153 850 153 850 L 157 828 C 149 814 145 807 145 807 Z" fill="#000000" id="id-bg-37-Artboard-23">
</path >
<path d="M 142 871 C 142 918 142 942 142 942 L 168 981 C 151 907 142 871 142 871 Z" fill="#ffffff" id="id-bg-37-Artboard-24">
</path >
<path d="M 889 924 C 889 908 889 901 889 901 L 924 868 C 901 905 889 924 889 924 Z" fill="#19a94b" id="id-bg-37-Artboard-25">
</path >
<path d="M 60 320 C 61 296 58 267 64 249 L 114 207 C 91 241 73 278 60 320 Z" fill="#ffffff" id="id-bg-37-Artboard-26">
</path >
<path d="M 176 796 C 150 712 134 620 138 514 C 133 521 129 529 124 551 C 122 507 124 460 137 400 C 139 439 144 463 149 480 C 150 435 151 413 151 413 C 173 338 203 265 266 189 C 272 219 275 234 275 234 C 284 189 288 166 288 166 C 391 90 507 65 636 91 C 830 134 950 234 1005 385 C 1024 451 1026 518 1012 586 C 1024 548 1030 529 1030 529 C 1035 655 994 752 924 831 C 897 851 863 870 814 890 C 850 885 868 882 868 882 C 740 990 409 996 368 967 C 355 961 311 905 288 893 C 221 845 184 812 176 796 Z" fill="#117339" id="id-bg-37-Artboard-27">
</path >
<path d="M 209 845 C 204 839 196 846 193 854 C 173 888 203 939 217 948 C 241 974 274 982 314 977 C 319 975 331 971 332 964 C 333 960 320 939 302 921 C 273 893 249 894 209 845 Z" fill="#117339" id="id-bg-37-Artboard-28">
</path >
<path d="M 519 918 C 490 901 475 892 475 892 C 426 833 368 810 314 777 C 335 746 345 730 345 730 C 307 750 288 760 288 760 C 265 748 234 717 214 678 C 179 574 176 399 276 273 C 340 196 426 153 535 145 C 470 213 438 248 438 248 C 536 179 585 145 585 145 C 657 151 729 169 802 219 C 757 275 735 302 735 302 C 800 261 833 240 833 240 C 999 359 1003 574 925 733 C 856 853 721 915 519 918 Z" fill="#085828" id="id-bg-37-Artboard-29">
</path >
</g >
<g transform="translate(465,610)" fill="#112c1a" id="id-bg-37-Artboard-30">
<path d="M 186 574 C 158 570 144 567 144 567 L 144 530 C 172 560 186 574 186 574 Z" id="id-bg-37-Artboard-31">
</path >
<path d="M 42 225 C 30 227 24 227 24 227 C 33 234 37 237 37 237 C 19 318 27 396 43 423 C 78 481 155 497 171 518 C 191 538 211 559 233 569 C 327 577 452 529 485 458 C 547 336 530 230 433 139 C 440 129 443 124 443 124 C 432 131 427 135 427 135 C 413 124 399 115 384 109 C 386 105 387 104 387 104 C 371 99 363 96 363 96 C 363 98 363 99 363 99 C 348 93 334 88 319 85 C 324 72 326 66 326 66 C 316 67 310 67 310 67 C 311 78 312 83 312 83 C 301 81 296 80 296 80 C 294 72 292 68 292 68 C 288 75 285 79 285 79 C 280 78 274 78 267 77 C 271 73 274 70 274 70 C 262 73 256 74 256 74 C 256 76 256 77 256 77 C 249 77 245 77 245 77 C 246 75 246 74 246 74 C 225 64 214 60 214 60 C 211 74 210 81 210 81 C 203 82 195 84 187 86 C 189 81 190 79 190 79 C 195 77 197 76 197 76 C 189 75 185 74 185 74 C 183 80 181 83 181 83 C 137 94 114 99 114 99 C 130 105 139 108 139 108 C 129 113 118 120 109 128 C 79 110 63 102 63 102 C 85 128 95 141 95 141 C 92 144 90 146 90 146 C 87 142 86 140 86 140 L 80 156 C 62 181 49 204 42 225 Z" id="id-bg-37-Artboard-32">
</path >
<path d="M 38 183 C 42 167 45 159 45 159 L 70 166 C 48 177 38 183 38 183 Z" id="id-bg-37-Artboard-33">
</path >
<path d="M 9 187 C 4 223 8 231 10 249 C 19 212 31 177 52 150 C 23 174 9 187 9 187 Z" id="id-bg-37-Artboard-34">
</path >
<path d="M 18 171 C 6 165 0 162 0 162 L 35 137 C 24 160 18 171 18 171 Z" id="id-bg-37-Artboard-35">
</path >
<path d="M 25 116 C 30 91 32 79 32 79 L 49 99 C 33 110 25 116 25 116 Z" id="id-bg-37-Artboard-36">
</path >
<path d="M 72 71 C 82 53 87 45 87 45 C 97 62 102 70 102 70 L 100 75 C 81 72 72 71 72 71 Z" id="id-bg-37-Artboard-37">
</path >
<path d="M 103 68 C 95 49 91 39 91 39 C 93 36 93 34 93 34 L 120 42 C 109 59 103 68 103 68 Z" id="id-bg-37-Artboard-38">
</path >
<path d="M 136 74 C 132 70 130 68 130 68 L 136 64 C 136 70 136 74 136 74 Z" id="id-bg-37-Artboard-39">
</path >
<path d="M 171 61 C 157 57 150 55 150 55 L 178 43 C 173 55 171 61 171 61 Z" id="id-bg-37-Artboard-40">
</path >
<path d="M 190 62 C 183 35 180 22 180 22 C 212 22 227 22 227 22 L 223 45 C 201 56 190 62 190 62 Z" id="id-bg-37-Artboard-41">
</path >
<path d="M 257 19 C 248 13 244 9 244 9 L 259 0 C 258 13 257 19 257 19 Z" id="id-bg-37-Artboard-42">
</path >
<path d="M 259 43 C 255 40 253 38 253 38 L 252 44 C 256 43 259 43 259 43 Z" id="id-bg-37-Artboard-43">
</path >
<path d="M 271 43 C 270 35 270 31 270 31 L 284 33 C 276 40 271 43 271 43 Z" id="id-bg-37-Artboard-44">
</path >
<path d="M 255 65 C 243 65 237 65 237 65 L 239 50 C 250 60 255 65 255 65 Z" id="id-bg-37-Artboard-45">
</path >
<path d="M 408 96 C 386 83 375 76 375 76 L 383 59 C 400 83 408 96 408 96 Z" id="id-bg-37-Artboard-46">
</path >
<path d="M 444 109 C 434 94 429 86 429 86 L 463 93 C 451 104 444 109 444 109 Z" id="id-bg-37-Artboard-47">
</path >
<path d="M 472 163 C 469 161 467 160 467 160 C 470 142 472 133 472 133 L 497 148 C 480 158 472 163 472 163 Z" id="id-bg-37-Artboard-48">
</path >
<path d="M 475 164 C 493 157 503 153 503 153 C 506 155 507 155 507 155 L 500 181 C 483 170 475 164 475 164 Z" id="id-bg-37-Artboard-49">
</path >
<path d="M 520 203 C 536 232 549 264 557 309 L 566 255 C 536 221 520 203 520 203 Z" id="id-bg-37-Artboard-50">
</path >
</g >
</g >
</g >
<defs >
<linearGradient x1="50%" y1="6%" x2="50%" y2="100%" id="id-male-6.6_base_3-0">
<stop stop-color="#b37355" offset="0%">
</stop >
<stop stop-color="#c58b67" offset="8%">
</stop >
<stop stop-color="#a5684c" offset="20%">
</stop >
<stop stop-color="#975844" offset="34%">
</stop >
<stop stop-color="#934f3c" offset="71%">
</stop >
<stop stop-color="#602521" offset="100%">
</stop >
</linearGradient >
<linearGradient x1="50%" y1="-10%" x2="50%" y2="84%" id="id-male-6.6_base_3-1">
<stop stop-color="#a86549" offset="0%">
</stop >
<stop stop-color="#c1845e" offset="49%">
</stop >
<stop stop-color="#ab6a54" offset="100%">
</stop >
</linearGradient >
<linearGradient x1="57%" y1="50%" x2="47%" y2="56%" id="id-male-6.6_base_3-2">
<stop stop-color="#7a3a33" offset="0%">
</stop >
<stop stop-color="#783731" offset="100%">
</stop >
</linearGradient >
<linearGradient x1="45%" y1="35%" x2="55%" y2="47%" id="id-male-6.6_base_3-3">
<stop stop-color="#a66552" offset="0%">
</stop >
<stop stop-color="#824237" offset="100%">
</stop >
</linearGradient >
<linearGradient x1="54%" y1="31%" x2="47%" y2="81%" id="id-male-6.6_base_3-4">
<stop stop-color="#a5684e" offset="0%">
</stop >
<stop stop-color="#a7644c" offset="20%">
</stop >
<stop stop-color="#8a4938" offset="71%">
</stop >
<stop stop-color="#854739" offset="81%">
</stop >
<stop stop-color="#824036" offset="100%">
</stop >
</linearGradient >
<linearGradient x1="43%" y1="38%" x2="54%" y2="44%" id="id-male-6.6_base_3-5">
<stop stop-color="#aa6548" offset="0%">
</stop >
<stop stop-color="#9e5b43" offset="100%">
</stop >
</linearGradient >
<linearGradient x1="46%" y1="8%" x2="58%" y2="82%" id="id-male-6.6_base_3-6">
<stop stop-color="#c9906f" offset="0%">
</stop >
<stop stop-color="#a45848" offset="100%">
</stop >
</linearGradient >
<linearGradient x1="50%" y1="41%" x2="49%" y2="65%" id="id-male-6.6_base_3-7">
<stop stop-color="#622b30" offset="0%">
</stop >
<stop stop-color="#a8594b" offset="27%">
</stop >
<stop stop-color="#ab6f54" offset="100%">
</stop >
</linearGradient >
<linearGradient x1="63%" y1="4%" x2="25%" y2="77%" id="id-male-6.6_base_3-8">
<stop stop-color="#d2a185" offset="0%">
</stop >
<stop stop-color="#d5a88f" offset="55%">
</stop >
<stop stop-color="#b97a5d" offset="100%">
</stop >
</linearGradient >
<linearGradient x1="50%" y1="23%" x2="41%" y2="77%" id="id-male-6.6_base_3-9">
<stop stop-color="#7f3531" offset="0%">
</stop >
<stop stop-color="#9d4d4c" offset="100%">
</stop >
</linearGradient >
<linearGradient x1="47%" y1="22%" x2="55%" y2="89%" id="id-male-6.6_base_3-10">
<stop stop-color="#b57159" offset="0%">
</stop >
<stop stop-color="#bc8971" offset="100%">
</stop >
</linearGradient >
<linearGradient x1="86%" y1="87%" x2="11%" y2="66%" id="id-male-6.6_base_3-11">
<stop stop-color="#9e5c4a" offset="0%">
</stop >
<stop stop-color="#8c4e40" offset="100%">
</stop >
</linearGradient >
<linearGradient x1="71%" y1="11%" x2="50%" y2="100%" id="id-male-6.6_base_3-12">
<stop stop-color="#b27255" offset="0%">
</stop >
<stop stop-color="#a5684c" offset="100%" stop-opacity="0">
</stop >
</linearGradient >
<linearGradient x1="66%" y1="46%" x2="56%" y2="43%" id="id-male-6.6_base_3-13">
<stop stop-color="#8e5040" offset="0%">
</stop >
<stop stop-color="#7d403a" offset="100%">
</stop >
</linearGradient >
<linearGradient x1="100%" y1="41%" x2="50%" y2="63%" id="id-male-6.6_base_3-14">
<stop stop-color="#712725" offset="0%">
</stop >
<stop stop-color="#732825" offset="100%">
</stop >
</linearGradient >
<linearGradient x1="69%" y1="20%" x2="50%" y2="100%" id="id-male-6.6_base_3-15">
<stop stop-color="#925342" offset="0%">
</stop >
<stop stop-color="#9d5a48" offset="100%">
</stop >
</linearGradient >
<linearGradient x1="36%" y1="20%" x2="57%" y2="81%" id="id-male-6.6_base_3-16">
<stop stop-color="#b07254" offset="0%">
</stop >
<stop stop-color="#b37355" offset="100%">
</stop >
</linearGradient >
<linearGradient x1="26%" y1="83%" x2="92%" y2="50%" id="id-male-6.6_base_3-17">
<stop stop-color="#c48864" offset="0%" stop-opacity="0">
</stop >
<stop stop-color="#c38b6b" offset="99%">
</stop >
</linearGradient >
<linearGradient x1="17%" y1="56%" x2="85%" y2="45%" id="id-male-6.6_base_3-18">
<stop stop-color="#d0a183" offset="0%" stop-opacity="0">
</stop >
<stop stop-color="#d0a183" offset="51%">
</stop >
<stop stop-color="#c68e6e" offset="100%">
</stop >
</linearGradient >
<linearGradient x1="17%" y1="24%" x2="74%" y2="87%" id="id-male-6.6_base_3-19">
<stop stop-color="#c78e6c" offset="0%">
</stop >
<stop stop-color="#b87755" offset="100%">
</stop >
</linearGradient >
<linearGradient x1="26%" y1="42%" x2="80%" y2="75%" id="id-male-6.6_base_3-20">
<stop stop-color="#d9b09c" offset="0%">
</stop >
<stop stop-color="#d5a88f" offset="100%" stop-opacity="0">
</stop >
</linearGradient >
<linearGradient x1="29%" y1="56%" x2="77%" y2="50%" id="id-male-6.6_base_3-21">
<stop stop-color="#cda484" offset="0%">
</stop >
<stop stop-color="#cb9d7c" offset="100%" stop-opacity="0">
</stop >
</linearGradient >
<linearGradient x1="74%" y1="24%" x2="34%" y2="74%" id="id-male-6.6_base_3-22">
<stop stop-color="#c38260" offset="0%">
</stop >
<stop stop-color="#c58865" offset="100%">
</stop >
</linearGradient >
<linearGradient x1="66%" y1="100%" x2="40%" y2="0%" id="id-male-6.6_base_3-23">
<stop stop-color="#bc7a58" offset="0%">
</stop >
<stop stop-color="#d7aa98" offset="46%">
</stop >
<stop stop-color="#c28360" offset="100%">
</stop >
</linearGradient >
<linearGradient x1="52%" y1="13%" x2="59%" y2="75%" id="id-male-6.6_base_3-24">
<stop stop-color="#92463b" offset="0%">
</stop >
<stop stop-color="#af684f" offset="100%">
</stop >
</linearGradient >
<linearGradient x1="28%" y1="76%" x2="73%" y2="20%" id="id-male-6.6_base_3-25">
<stop stop-color="#b87356" offset="0%">
</stop >
<stop stop-color="#91453a" offset="67%">
</stop >
<stop stop-color="#a15745" offset="100%">
</stop >
</linearGradient >
<linearGradient x1="50%" y1="0%" x2="50%" y2="100%" id="id-male-6.6_base_3-26">
<stop stop-color="#9a5242" offset="0%">
</stop >
<stop stop-color="#6c2b27" offset="100%">
</stop >
</linearGradient >
<linearGradient x1="66%" y1="59%" x2="24%" y2="66%" id="id-male-6.6_base_3-27">
<stop stop-color="#a36149" offset="0%">
</stop >
<stop stop-color="#c07f5d" offset="100%">
</stop >
</linearGradient >
<linearGradient x1="41%" y1="11%" x2="55%" y2="61%" id="id-male-6.6_base_3-28">
<stop stop-color="#cd9781" offset="0%">
</stop >
<stop stop-color="#b4705c" offset="100%">
</stop >
</linearGradient >
<linearGradient x1="19%" y1="58%" x2="66%" y2="43%" id="id-male-6.6_base_3-29">
<stop stop-color="#d3a389" offset="0%">
</stop >
<stop stop-color="#c38761" offset="100%">
</stop >
</linearGradient >
<linearGradient x1="73%" y1="50%" x2="30%" y2="53%" id="id-male-6.6_base_3-30">
<stop stop-color="#9b5f42" offset="0%">
</stop >
<stop stop-color="#b67b61" offset="100%">
</stop >
</linearGradient >
<linearGradient x1="31%" y1="0%" x2="50%" y2="100%" id="id-male-6.6_base_3-31">
<stop stop-color="#d5a897" offset="0%">
</stop >
<stop stop-color="#d1a08e" offset="100%">
</stop >
</linearGradient >
<linearGradient x1="29%" y1="43%" x2="65%" y2="100%" id="id-male-6.6_base_3-32">
<stop stop-color="#d29d85" offset="0%">
</stop >
<stop stop-color="#c18265" offset="100%">
</stop >
</linearGradient >
<linearGradient x1="13%" y1="78%" x2="84%" y2="50%" id="id-male-6.6_base_3-33">
<stop stop-color="#b77456" offset="0%">
</stop >
<stop stop-color="#aa6244" offset="100%">
</stop >
</linearGradient >
<linearGradient x1="50%" y1="0%" x2="36%" y2="100%" id="id-male-6.6_base_3-34">
<stop stop-color="#d1a187" offset="0%">
</stop >
<stop stop-color="#cc957e" offset="100%">
</stop >
</linearGradient >
<linearGradient x1="50%" y1="28%" x2="64%" y2="55%" id="id-male-6.6_base_3-35">
<stop stop-color="#cf9d80" offset="0%">
</stop >
<stop stop-color="#c38869" offset="100%">
</stop >
</linearGradient >
<linearGradient x1="40%" y1="55%" x2="62%" y2="71%" id="id-male-6.6_base_3-36">
<stop stop-color="#b47251" offset="0%">
</stop >
<stop stop-color="#ba7b58" offset="100%">
</stop >
</linearGradient >
<linearGradient x1="9%" y1="37%" x2="88%" y2="55%" id="id-male-6.6_base_3-37">
<stop stop-color="#9d5d46" offset="0%">
</stop >
<stop stop-color="#86473b" offset="100%">
</stop >
</linearGradient >
<linearGradient x1="62%" y1="19%" x2="50%" y2="100%" id="id-male-6.6_base_3-38">
<stop stop-color="#b06a4d" offset="0%">
</stop >
<stop stop-color="#8e483a" offset="100%">
</stop >
</linearGradient >
<linearGradient x1="45%" y1="18%" x2="51%" y2="67%" id="id-male-6.6_base_3-39">
<stop stop-color="#d29f88" offset="0%">
</stop >
<stop stop-color="#be7f5d" offset="100%">
</stop >
</linearGradient >
<linearGradient x1="50%" y1="43%" x2="50%" y2="100%" id="id-male-6.6_base_3-40">
<stop stop-color="#ca9076" offset="0%">
</stop >
<stop stop-color="#ab6344" offset="100%">
</stop >
</linearGradient >
<linearGradient x1="45%" y1="50%" x2="58%" y2="50%" id="id-male-6.6_base_3-41">
<stop stop-color="#9d5d49" offset="0%">
</stop >
<stop stop-color="#be836d" offset="100%">
</stop >
</linearGradient >
<linearGradient x1="33%" y1="74%" x2="77%" y2="42%" id="id-male-6.6_base_3-42">
<stop stop-color="#a8644f" offset="0%">
</stop >
<stop stop-color="#b6765a" offset="100%">
</stop >
</linearGradient >
<linearGradient x1="63%" y1="59%" x2="38%" y2="59%" id="id-male-6.6_base_3-43">
<stop stop-color="#a86451" offset="0%">
</stop >
<stop stop-color="#b77154" offset="100%">
</stop >
</linearGradient >
<linearGradient x1="50%" y1="0%" x2="50%" y2="100%" id="id-male-6.6_base_3-44">
<stop stop-color="#bd907d" offset="0%">
</stop >
<stop stop-color="#9e5744" offset="100%">
</stop >
</linearGradient >
<linearGradient x1="47%" y1="47%" x2="53%" y2="50%" id="id-male-6.6_base_3-45">
<stop stop-color="#c19b86" offset="0%">
</stop >
<stop stop-color="#9e5744" offset="100%">
</stop >
</linearGradient >
<linearGradient x1="50%" y1="0%" x2="50%" y2="100%" id="id-male-6.6_base_3-46">
<stop stop-color="#ac6553" offset="0%">
</stop >
<stop stop-color="#9e5644" offset="100%">
</stop >
</linearGradient >
<linearGradient x1="50%" y1="0%" x2="50%" y2="100%" id="id-male-6.6_base_3-47">
<stop stop-color="#b28775" offset="0%">
</stop >
<stop stop-color="#b68776" offset="100%">
</stop >
</linearGradient >
<linearGradient x1="0%" y1="55%" x2="100%" y2="55%" id="id-male-6.6_base_3-48">
<stop stop-color="#a2675e" offset="0%">
</stop >
<stop stop-color="#8f4f4c" offset="100%">
</stop >
</linearGradient >
<linearGradient x1="50%" y1="0%" x2="50%" y2="100%" id="id-male-6.6_base_3-49">
<stop stop-color="#af8873" offset="0%">
</stop >
<stop stop-color="#93493e" offset="100%">
</stop >
</linearGradient >
<linearGradient x1="49%" y1="20%" x2="52%" y2="96%" id="id-male-6.6_base_3-50">
<stop stop-color="#9b5650" offset="0%">
</stop >
<stop stop-color="#984d3f" offset="100%">
</stop >
</linearGradient >
<linearGradient x1="50%" y1="0%" x2="50%" y2="100%" id="id-male-6.6_base_3-51">
<stop stop-color="#5a1d24" offset="0%">
</stop >
<stop stop-color="#72332b" offset="100%">
</stop >
</linearGradient >
<linearGradient x1="33%" y1="47%" x2="59%" y2="56%" id="id-male-6.6_base_3-52">
<stop stop-color="#8e4d39" offset="0%">
</stop >
<stop stop-color="#7c3a31" offset="100%">
</stop >
</linearGradient >
</defs >
<g transform="translate(304,473)" id="id-male-6.6_base_3-53">
<polygon points="174 662 139 824 137 906 146 1082 171 1154 176 1211 174 1230 175 1284 287 1284 284 1265 308 1195 306 1124 345 952 343 912 353 879 362 881 371 877 383 904 391 970 434 1079 457 1202 475 1252 475 1284 596 1284 600 1225 591 1146 609 1103 612 997 596 842 545 671 539 640 528 606 531 569 509 498 522 403 539 360 539 348 563 464 576 498 585 574 637 704 646 760 646 778 626 822 624 853 631 879 629 901 632 920 637 931 647 931 657 920 655 877 659 867 670 874 672 899 676 903 667 923 644 934 643 945 666 939 664 948 643 960 640 982 657 971 674 969 690 945 701 933 704 926 707 923 713 892 718 871 704 832 696 786 703 768 693 725 693 521 652 425 629 282 626 203 612 175 567 156 548 141 530 139 479 114 422 73 416 42 415 1 285 0 284 73 279 83 242 114 196 137 171 139 155 156 108 175 91 228 91 287 68 431 30 516 23 602 28 725 16 764 21 782 0 874 18 932 49 968 59 970 83 982 83 965 78 960 57 949 55 941 78 948 78 936 66 929 53 923 45 906 51 875 61 866 66 877 63 922 75 927 86 925 93 899 90 877 96 856 96 824 75 778 77 738 108 637 139 562 142 495 159 458 180 358 199 403 203 461 211 504 188 564 191 608" fill="url(#id-male-6.6_base_3-0)" id="id-male-6.6_base_3-54">
</polygon >
<polygon points="91 287 68 431 30 516 23 602 72 688 117 614 98 452 109 469 123 336 102 372 109 294 88 309 109 285" fill="url(#id-male-6.6_base_3-1)" id="id-male-6.6_base_3-54">
</polygon >
<polygon points="383 906 391 972 434 1081 457 1204 475 1254 475 1287 596 1287 600 1226 591 1148 609 1105 612 999 602 904 584 908 584 846 535 683 456 705 382 878" fill="url(#id-male-6.6_base_3-2)" id="id-male-6.6_base_3-54">
</polygon >
<polygon points="137 907 146 1083 171 1156 176 1212 174 1232 175 1286 175 1287 287 1287 284 1266 308 1197 306 1126 345 954 343 923 293 814 263 724 247 711" fill="url(#id-male-6.6_base_3-3)" id="id-male-6.6_base_3-54">
</polygon >
<polygon points="545 673 539 641 528 608 531 571 509 500 522 405 539 361 539 350 563 465 576 500 601 540 660 491 688 529 652 427 629 283 626 205 612 177 568 157 548 142 530 141 479 116 422 75 416 44 415 3 360 3 360 715 462 724" fill="url(#id-male-6.6_base_3-4)" id="id-male-6.6_base_3-54">
</polygon >
<polygon points="83 984 59 972 49 970 21 932 19 903 7 879 0 874 11 824 38 786 38 814 56 786 78 800 91 822 83 879 69 882 63 855 51 877 45 908 47 930 37 930 50 938 53 954 49 960 56 956 83 973" fill="#b1684a" id="id-male-6.6_base_3-59">
</polygon >
<polygon points="66 855 69 882 63 855 51 877 45 908 42 870 58 825" fill="url(#id-male-6.6_base_3-5)" id="id-male-6.6_base_3-59">
</polygon >
<polygon points="83 879 69 882 70 868" fill="#c7846a" id="id-male-6.6_base_3-59">
</polygon >
<polygon points="481 376 513 349 558 291 522 368" fill="#885f60" id="id-male-6.6_base_3-62">
</polygon >
<polygon points="313 697 260 560 246 448 259 424 355 408 361 366 317 404 285 409 267 378 313 343 394 351 431 378 420 404 368 399 371 404 449 421 466 441 449 510 466 547 406 697 358 717" fill="url(#id-male-6.6_base_3-6)" id="id-male-6.6_base_3-63">
</polygon >
<polygon points="410 90 430 82 423 76 416 45 416 7 286 9 286 48 283 76 278 86 244 114 195 139 366 139 390 70 410 26" fill="url(#id-male-6.6_base_3-7)" id="id-male-6.6_base_3-64">
</polygon >
<polygon points="182 180 133 231 97 289 97 231 113 182 165 159" fill="url(#id-male-6.6_base_3-8)" id="id-male-6.6_base_3-65">
</polygon >
<polygon points="346 107 384 55 409 31 414 23 299 31" fill="url(#id-male-6.6_base_3-9)" id="id-male-6.6_base_3-66">
</polygon >
<polygon points="287 93 295 32 323 129" fill="url(#id-male-6.6_base_3-10)" id="id-male-6.6_base_3-67">
</polygon >
<polygon points="336 139 314 151 270 146 224 139" fill="#e2b4a4" id="id-male-6.6_base_3-68">
</polygon >
<polygon points="410 84 409 136 461 129" fill="url(#id-male-6.6_base_3-11)" id="id-male-6.6_base_3-69">
</polygon >
<polygon points="173 246 167 286 191 351 263 386 328 330 359 330 359 152 348 139 336 139 309 152" fill="url(#id-male-6.6_base_3-12)" id="id-male-6.6_base_3-70">
</polygon >
<polygon points="464 159 516 190 500 159" fill="url(#id-male-6.6_base_3-13)" id="id-male-6.6_base_3-71">
</polygon >
<polygon points="302 31 346 72 382 62 409 37 416 28 416 13" fill="url(#id-male-6.6_base_3-14)" id="id-male-6.6_base_3-72">
</polygon >
<polygon points="263 151 191 202 219 151" fill="#b17054" id="id-male-6.6_base_3-73">
</polygon >
<polygon points="154 206 170 170 122 188" fill="#deb7a9" id="id-male-6.6_base_3-74">
</polygon >
<polygon points="358 285 344 299 323 318 305 354 358 345 354 305" fill="url(#id-male-6.6_base_3-15)" id="id-male-6.6_base_3-75">
</polygon >
<polygon points="260 361 265 387 203 371 191 347" fill="#94523b" id="id-male-6.6_base_3-76">
</polygon >
<polygon points="198 362 181 359 167 284" fill="#5e2227" id="id-male-6.6_base_3-77">
</polygon >
<polygon points="477 341 477 335 488 326 496 325 509 338 496 348 485 354" fill="#5d2221" id="id-male-6.6_base_3-78">
</polygon >
<polygon points="314 151 342 220 317 293 237 351 209 318 172 251 185 205 270 146" fill="url(#id-male-6.6_base_3-16)" id="id-male-6.6_base_3-79">
</polygon >
<polygon points="314 151 330 238 209 318 172 251 185 205 270 146" fill="url(#id-male-6.6_base_3-17)" id="id-male-6.6_base_3-79">
</polygon >
<polygon points="314 151 350 205 220 227 185 205 270 146" fill="url(#id-male-6.6_base_3-18)" opacity="0.369" id="id-male-6.6_base_3-79">
</polygon >
<polygon points="211 335 223 322 242 327 244 332 235 353 213 349" fill="#642b26" id="id-male-6.6_base_3-82">
</polygon >
<polygon points="224 339 226 342 226 345 222 349 235 350 242 333 230 338 227 335" fill="#70434f" id="id-male-6.6_base_3-83">
</polygon >
<polygon points="488 343 491 347 486 351 479 338 489 327 495 327 493 336" fill="#6f373c" id="id-male-6.6_base_3-84">
</polygon >
<polygon points="485 339 488 343 493 337" fill="#92523e" id="id-male-6.6_base_3-85">
</polygon >
<polygon points="359 162 359 291 406 325 455 347 529 267 463 182 415 166" fill="url(#id-male-6.6_base_3-19)" id="id-male-6.6_base_3-86">
</polygon >
<polygon points="359 178 359 281 391 302 391 249 489 270 461 189 415 166" fill="url(#id-male-6.6_base_3-20)" id="id-male-6.6_base_3-86">
</polygon >
<polygon points="359 178 359 219 472 220 461 189 415 166 371 163" fill="url(#id-male-6.6_base_3-21)" id="id-male-6.6_base_3-86">
</polygon >
<polygon points="358 178 372 168 440 156 413 137 378 158 411 80 396 60 358 146" fill="url(#id-male-6.6_base_3-22)" id="id-male-6.6_base_3-89">
</polygon >
<polygon points="346 140 358 152 372 129 400 48 369 86 364 130" fill="#d3a08c" id="id-male-6.6_base_3-90">
</polygon >
<polygon points="591 281 601 226 559 159 514 159 523 138 499 156 571 263" fill="url(#id-male-6.6_base_3-23)" id="id-male-6.6_base_3-91">
</polygon >
<polygon points="609 298 626 332 629 285 627 227 614 207 617 251" fill="#8581a0" id="id-male-6.6_base_3-92">
</polygon >
<polygon points="554 159 567 157 612 177 614 192 579 175 603 207 601 226" fill="#b67758" id="id-male-6.6_base_3-93">
</polygon >
<polygon points="641 823 648 826 697 896 713 873 682 781" fill="url(#id-male-6.6_base_3-24)" id="id-male-6.6_base_3-94">
</polygon >
<polygon points="625 840 700 762 688 738 679 784 648 776 626 822" fill="url(#id-male-6.6_base_3-25)" id="id-male-6.6_base_3-94">
</polygon >
<polygon points="648 862 648 845 661 825 661 870 654 878 657 922 652 929 637 929 632 914 632 893 632 877 644 888" fill="#94473b" id="id-male-6.6_base_3-96">
</polygon >
<polygon points="554 375 577 333 607 451 594 508 568 462" fill="#bb7966" id="id-male-6.6_base_3-97">
</polygon >
<polygon points="623 326 643 425 633 431 693 523 652 427 636 326 625 315" fill="#7b779a" id="id-male-6.6_base_3-98">
</polygon >
<polygon points="628 274 638 339 623 314" fill="#6f393c" id="id-male-6.6_base_3-99">
</polygon >
<polygon points="693 523 695 567 685 525 618 416 633 431" fill="#8d4e3b" id="id-male-6.6_base_3-100">
</polygon >
<polygon points="640 463 599 539 601 571 634 655 646 703 650 754 658 640 660 491" fill="#bd7b5a" id="id-male-6.6_base_3-101">
</polygon >
<polygon points="610 531 648 646 652 546 638 479" fill="#cb937c" id="id-male-6.6_base_3-101">
</polygon >
<polygon points="693 748 677 730 677 700 660 491 685 525 691 552 684 727" fill="url(#id-male-6.6_base_3-26)" id="id-male-6.6_base_3-103">
</polygon >
<polygon points="691 746 703 768 693 727 695 567 691 551 683 727" fill="#7e97bd" id="id-male-6.6_base_3-104">
</polygon >
<polygon points="260 559 310 683 355 716 263 713 238 685 195 582" fill="url(#id-male-6.6_base_3-27)" id="id-male-6.6_base_3-105">
</polygon >
<polygon points="637 931 636 919 639 914 653 914 653 922 651 929 648 931 644 933" fill="#9b5543" id="id-male-6.6_base_3-106">
</polygon >
<polygon points="637 861 637 882 641 890 653 886 649 861" fill="#a35b48" id="id-male-6.6_base_3-107">
</polygon >
<polygon points="691 871 693 912 688 936 669 956 671 965 696 924 696 909 705 877" fill="#ae664f" id="id-male-6.6_base_3-108">
</polygon >
<polygon points="703 768 684 788 693 837 712 873 702 908 701 933 707 925 718 873 704 834 697 788" fill="#824336" id="id-male-6.6_base_3-109">
</polygon >
<polygon points="667 939 643 946 644 934 657 928 667 922 676 903 672 899 670 874 660 870 660 854 671 867 680 873 680 902 677 920" fill="#77342e" id="id-male-6.6_base_3-110">
</polygon >
<polygon points="361 510 359 634 426 561 420 535" fill="url(#id-male-6.6_base_3-28)" opacity="0.626" id="id-male-6.6_base_3-111">
</polygon >
<polygon points="319 403 289 399 268 380 313 343 361 348 362 372" fill="url(#id-male-6.6_base_3-29)" id="id-male-6.6_base_3-112">
</polygon >
<polygon points="171 141 168 151 180 151 204 139 196 138" fill="url(#id-male-6.6_base_3-30)" id="id-male-6.6_base_3-113">
</polygon >
<polygon points="359 308 362 360 382 334" fill="#bb7863" opacity="0.625" id="id-male-6.6_base_3-114">
</polygon >
<polygon points="360 546 360 584 387 551 374 540" fill="url(#id-male-6.6_base_3-31)" opacity="0.626" id="id-male-6.6_base_3-115">
</polygon >
<polygon points="346 542 360 547 373 540 360 534" fill="#763735" id="id-male-6.6_base_3-116">
</polygon >
<polygon points="325 545 277 503 259 561 308 579" fill="url(#id-male-6.6_base_3-32)" opacity="0.758" id="id-male-6.6_base_3-117">
</polygon >
<polygon points="389 499 460 467 449 510 404 520" fill="url(#id-male-6.6_base_3-33)" id="id-male-6.6_base_3-118">
</polygon >
<polygon points="364 491 361 403 420 428" fill="url(#id-male-6.6_base_3-34)" opacity="0.758" id="id-male-6.6_base_3-119">
</polygon >
<polygon points="262 446 333 446 323 469 279 492" fill="url(#id-male-6.6_base_3-35)" opacity="0.758" id="id-male-6.6_base_3-120">
</polygon >
<polygon points="259 425 279 496 259 561 236 528 213 443 227 425 243 447" fill="url(#id-male-6.6_base_3-36)" id="id-male-6.6_base_3-121">
</polygon >
<polygon points="412 343 444 374 466 383 499 351 447 354 416 339" fill="url(#id-male-6.6_base_3-37)" id="id-male-6.6_base_3-122">
</polygon >
<polygon points="164 252 163 278 128 284" fill="#85483c" id="id-male-6.6_base_3-123">
</polygon >
<polygon points="58 478 88 441 88 416 69 430 66 456" fill="url(#id-male-6.6_base_3-38)" id="id-male-6.6_base_3-124">
</polygon >
<polygon points="76 684 69 634 61 517 89 474 111 569" fill="url(#id-male-6.6_base_3-39)" id="id-male-6.6_base_3-125">
</polygon >
<polygon points="53 489 47 539 69 635 76 684 53 760 40 781 16 766 28 727 23 604 28 544" fill="url(#id-male-6.6_base_3-40)" id="id-male-6.6_base_3-126">
</polygon >
<polygon points="136 452 127 497 153 460 177 340 170 300" fill="#965744" id="id-male-6.6_base_3-127">
</polygon >
<polygon points="181 359 159 460 143 497 142 514 123 532 109 514 108 490 127 497 153 460 177 340" fill="#8d4e42" id="id-male-6.6_base_3-127">
</polygon >
<polygon points="38 747 28 772 38 788 44 772" fill="#bb775c" id="id-male-6.6_base_3-129">
</polygon >
<polygon points="359 379 342 413 361 444 377 417" fill="url(#id-male-6.6_base_3-41)" id="id-male-6.6_base_3-130">
</polygon >
<polygon points="196 581 260 561 229 519" fill="url(#id-male-6.6_base_3-42)" id="id-male-6.6_base_3-131">
</polygon >
<polygon points="74 929 66 925 69 909 78 905 86 912 83 928" fill="url(#id-male-6.6_base_3-43)" id="id-male-6.6_base_3-132">
</polygon >
<polygon points="20 903 7 880 21 851 28 871" fill="#c78167" id="id-male-6.6_base_3-133">
</polygon >
<polygon points="218 1123 203 1040 191 913 171 1090 182 1169 230 1208 261 1237 270 1213 234 1175 212 1157 272 1191 281 1169" fill="url(#id-male-6.6_base_3-44)" opacity="0.808" id="id-male-6.6_base_3-134">
</polygon >
<polygon points="182 1207 181 1155 213 1106 236 1166 230 1210" fill="#a8614d" id="id-male-6.6_base_3-135">
</polygon >
<polygon points="187 902 211 1137 227 1161 275 1187 299 1137 272 1009 299 918 269 791 211 836" fill="url(#id-male-6.6_base_3-45)" id="id-male-6.6_base_3-136">
</polygon >
<polygon points="288 1079 311 1040 311 942 295 903 264 1019 275 1188 301 1137" fill="url(#id-male-6.6_base_3-46)" id="id-male-6.6_base_3-137">
</polygon >
<polygon points="584 908 604 1008 608 1106 614 998 599 887" fill="#848bb1" id="id-male-6.6_base_3-138">
</polygon >
<polygon points="430 886 488 1140 535 1115 561 925 566 886 536 816 500 786" fill="url(#id-male-6.6_base_3-47)" opacity="0.792" id="id-male-6.6_base_3-139">
</polygon >
<polygon points="581 921 588 1011 584 1112 576 1162 544 1046 566 886" fill="url(#id-male-6.6_base_3-48)" id="id-male-6.6_base_3-140">
</polygon >
<polygon points="561 1247 518 1200 472 1112 494 931 505 931 594 1188 579 1244" fill="url(#id-male-6.6_base_3-49)" id="id-male-6.6_base_3-141">
</polygon >
<polygon points="531 1221 539 1263 536 1269 516 1287 509 1287 500 1263 513 1199 488 1226 462 1170 472 1101 427 1010 398 877 469 771 518 739 536 818 500 787 433 890 477 1078 534 1212" fill="url(#id-male-6.6_base_3-50)" id="id-male-6.6_base_3-142">
</polygon >
<polygon points="321 1058 284 852 258 721 266 733 371 879 362 883 354 881 343 914 345 954" fill="#995346" id="id-male-6.6_base_3-143">
</polygon >
<polygon points="429 1068 424 875 536 705 454 704 380 865 384 906 391 972" fill="#9e5752" opacity="0.394" id="id-male-6.6_base_3-144">
</polygon >
<polygon points="175 1262 194 1287 206 1287 225 1226 213 1249 175 1221 174 1232" fill="#743428" id="id-male-6.6_base_3-145">
</polygon >
<polygon points="528 1227 554 1234 569 1169 549 1168" fill="#ac7064" id="id-male-6.6_base_3-146">
</polygon >
<polygon points="546 678 545 672 539 641 528 608 531 571 509 500 522 405 539 361 539 350 547 389 542 330 558 289 517 369 528 369 517 411 499 442 509 465 488 531 507 525 522 585 449 724" fill="url(#id-male-6.6_base_3-51)" id="id-male-6.6_base_3-54">
</polygon >
<polygon points="402 722 490 609 522 585 449 723" fill="#94493c" id="id-male-6.6_base_3-148">
</polygon >
<polygon points="174 664 139 826 137 907 139 937 238 690 352 886 354 881 362 883 371 879 383 906 471 773 548 712 596 844 545 673 539 641 478 697 449 723 278 705 232 657 188 566 191 610" fill="url(#id-male-6.6_base_3-52)" id="id-male-6.6_base_3-54">
</polygon >
<polygon points="189 616 211 620 190 586 190 609" fill="#813f3a" id="id-male-6.6_base_3-150">
</polygon >
<polygon points="139 836 225 709 167 697 139 826" fill="#753e2a" id="id-male-6.6_base_3-151">
</polygon >
<polygon points="518 734 596 843 547 678" fill="#622b30" id="id-male-6.6_base_3-152">
</polygon >
<polygon points="415 778 447 726 314 744 329 762" fill="#a6564c" opacity="0.52" id="id-male-6.6_base_3-54">
</polygon >
<polygon points="411 685 463 666 456 573" fill="#7a3b33" id="id-male-6.6_base_3-154">
</polygon >
</g >
<defs >
<linearGradient x1="53%" y1="5%" x2="47%" y2="91%" id="id-male-6.8_face_3-0">
<stop stop-color="#932126" offset="0%">
</stop >
<stop stop-color="#873f39" offset="82%">
</stop >
<stop stop-color="#9e5e4f" offset="100%">
</stop >
</linearGradient >
<linearGradient x1="62%" y1="61%" x2="50%" y2="36%" id="id-male-6.8_face_3-1">
<stop stop-color="#ba6e61" offset="0%">
</stop >
<stop stop-color="#4d1217" offset="100%">
</stop >
</linearGradient >
<linearGradient x1="50%" y1="13%" x2="57%" y2="81%" id="id-male-6.8_face_3-2">
<stop stop-color="#885154" offset="0%">
</stop >
<stop stop-color="#9e5e4f" offset="52%">
</stop >
<stop stop-color="#d79898" offset="100%">
</stop >
</linearGradient >
<linearGradient x1="50%" y1="0%" x2="54%" y2="88%" id="id-male-6.8_face_3-3">
<stop stop-color="#8b2f27" offset="0%">
</stop >
<stop stop-color="#803a2b" offset="100%">
</stop >
</linearGradient >
<linearGradient x1="36%" y1="75%" x2="36%" y2="18%" id="id-male-6.8_face_3-4">
<stop stop-color="#6f3938" offset="0%">
</stop >
<stop stop-color="#590f13" offset="100%">
</stop >
</linearGradient >
<linearGradient x1="33%" y1="21%" x2="62%" y2="79%" id="id-male-6.8_face_3-5">
<stop stop-color="#a56757" offset="0%">
</stop >
<stop stop-color="#b57363" offset="10%">
</stop >
<stop stop-color="#b9735d" offset="53%">
</stop >
<stop stop-color="#d0907a" offset="70%">
</stop >
<stop stop-color="#aa6e5a" offset="88%">
</stop >
<stop stop-color="#ad7464" offset="100%">
</stop >
</linearGradient >
<linearGradient x1="28%" y1="56%" x2="79%" y2="54%" id="id-male-6.8_face_3-6">
<stop stop-color="#c89a8a" offset="0%">
</stop >
<stop stop-color="#e0ad98" offset="16%">
</stop >
<stop stop-color="#c08c7d" offset="100%">
</stop >
</linearGradient >
<linearGradient x1="68%" y1="59%" x2="18%" y2="46%" id="id-male-6.8_face_3-7">
<stop stop-color="#b78372" offset="0%">
</stop >
<stop stop-color="#b4786a" offset="100%">
</stop >
</linearGradient >
<linearGradient x1="26%" y1="17%" x2="91%" y2="50%" id="id-male-6.8_face_3-8">
<stop stop-color="#945344" offset="0%">
</stop >
<stop stop-color="#b3715e" offset="16%">
</stop >
<stop stop-color="#cb8c74" offset="51%">
</stop >
<stop stop-color="#935a4f" offset="100%">
</stop >
</linearGradient >
<linearGradient x1="45%" y1="16%" x2="52%" y2="84%" id="id-male-6.8_face_3-9">
<stop stop-color="#9f6554" offset="0%">
</stop >
<stop stop-color="#925343" offset="100%">
</stop >
</linearGradient >
<linearGradient x1="91%" y1="32%" x2="50%" y2="77%" id="id-male-6.8_face_3-10">
<stop stop-color="#9d6655" offset="0%">
</stop >
<stop stop-color="#a96c5d" offset="100%">
</stop >
</linearGradient >
<linearGradient x1="72%" y1="40%" x2="61%" y2="55%" id="id-male-6.8_face_3-11">
<stop stop-color="#734233" offset="0%">
</stop >
<stop stop-color="#ae705b" offset="100%">
</stop >
</linearGradient >
<linearGradient x1="50%" y1="33%" x2="50%" y2="100%" id="id-male-6.8_face_3-12">
<stop stop-color="#1e0d0c" offset="0%">
</stop >
<stop stop-color="#7f4d40" offset="100%">
</stop >
</linearGradient >
<linearGradient x1="34%" y1="50%" x2="87%" y2="60%" id="id-male-6.8_face_3-13">
<stop stop-color="#d09a88" offset="0%">
</stop >
<stop stop-color="#c38774" offset="100%">
</stop >
</linearGradient >
<linearGradient x1="14%" y1="54%" x2="60%" y2="65%" id="id-male-6.8_face_3-14">
<stop stop-color="#945b4b" offset="0%">
</stop >
<stop stop-color="#894336" offset="50%">
</stop >
<stop stop-color="#824937" offset="100%">
</stop >
</linearGradient >
<linearGradient x1="50%" y1="0%" x2="50%" y2="100%" id="id-male-6.8_face_3-15">
<stop stop-color="#ce9386" offset="0%">
</stop >
<stop stop-color="#c99387" offset="100%">
</stop >
</linearGradient >
<linearGradient x1="50%" y1="9%" x2="44%" y2="54%" id="id-male-6.8_face_3-16">
<stop stop-color="#c58372" offset="0%">
</stop >
<stop stop-color="#d2977f" offset="100%">
</stop >
</linearGradient >
<linearGradient x1="61%" y1="87%" x2="61%" y2="8%" id="id-male-6.8_face_3-17">
<stop stop-color="#deac9d" offset="0%" stop-opacity="0">
</stop >
<stop stop-color="#d69c96" offset="100%">
</stop >
</linearGradient >
<radialGradient cx="50%" cy="39%" r="61%" id="id-male-6.8_face_3-18" fx="50%" fy="39%" gradientTransform="translate(0.5,0.392) scale(0.254,1) rotate(90) scale(1,3) translate(-0.5,-0.392)">
<stop stop-color="#b36061" offset="0%">
</stop >
<stop stop-color="#6c2c2e" offset="100%">
</stop >
</radialGradient >
<linearGradient x1="67%" y1="12%" x2="50%" y2="100%" id="id-male-6.8_face_3-19">
<stop stop-color="#8d5644" offset="0%">
</stop >
<stop stop-color="#e0ad98" offset="100%">
</stop >
</linearGradient >
<linearGradient x1="45%" y1="50%" x2="56%" y2="52%" id="id-male-6.8_face_3-20">
<stop stop-color="#bf7357" offset="0%">
</stop >
<stop stop-color="#945741" offset="100%">
</stop >
</linearGradient >
<linearGradient x1="18%" y1="22%" x2="62%" y2="71%" id="id-male-6.8_face_3-21">
<stop stop-color="#a5624f" offset="0%">
</stop >
<stop stop-color="#c59181" offset="100%">
</stop >
</linearGradient >
<linearGradient x1="50%" y1="35%" x2="87%" y2="93%" id="id-male-6.8_face_3-22">
<stop stop-color="#eec5b7" offset="0%">
</stop >
<stop stop-color="#d1a398" offset="100%">
</stop >
</linearGradient >
<linearGradient x1="50%" y1="115%" x2="50%" y2="50%" id="id-male-6.8_face_3-23">
<stop stop-color="#925f51" offset="0%">
</stop >
<stop stop-color="#593128" offset="100%">
</stop >
</linearGradient >
<linearGradient x1="73%" y1="44%" x2="22%" y2="46%" id="id-male-6.8_face_3-24">
<stop stop-color="#1f1619" offset="0%">
</stop >
<stop stop-color="#492a2a" offset="100%">
</stop >
</linearGradient >
</defs >
<g transform="translate(548,259)" id="id-male-6.8_face_3-25">
<g id="id-male-6.8_face_3-26">
<g transform="translate(0,121)" id="id-male-6.8_face_3-27">
<polygon points="199 13 214 3 222 9 221 25 214 38 214 43 210 54 208 65 197 70 190 64" fill="url(#id-male-6.8_face_3-0)" id="id-male-6.8_face_3-28">
</polygon >
<polygon points="197 24 209 14 216 9 219 10 220 22 214 37 195 43" fill="url(#id-male-6.8_face_3-1)" id="id-male-6.8_face_3-29">
</polygon >
<polygon points="203 38 208 34 199 25 203 22 209 23 207 18 212 16 214 38 214 43 213 48 207 51 201 46" fill="url(#id-male-6.8_face_3-2)" id="id-male-6.8_face_3-28">
</polygon >
<polygon points="212 5 214 3 222 9 222 10 219 10 216 9" fill="#d497ad" id="id-male-6.8_face_3-28">
</polygon >
<polygon points="208 65 197 70 190 64 194 42 199 50 193 62 199 67" fill="#50151b" id="id-male-6.8_face_3-28">
</polygon >
<polygon points="203 62 202 54 211 50" fill="#723c31" id="id-male-6.8_face_3-33">
</polygon >
<polygon points="196 50 202 51 203 42 196 46" fill="#a06051" id="id-male-6.8_face_3-34">
</polygon >
<polygon points="194 45 199 47 202 45 202 32 197 31" fill="#561b1f" id="id-male-6.8_face_3-35">
</polygon >
<path d="M 30 70 C 24 70 20 69 19 68 C 17 66 12 52 8 46 C 4 39 2 38 1 33 C 0 30 0 21 1 6 L 8 0 L 23 9 L 30 70 Z" fill="url(#id-male-6.8_face_3-3)" id="id-male-6.8_face_3-36">
</path >
<polygon points="8 6 2 6 7 3 10 2 23 9 19 14" fill="#c9899b" id="id-male-6.8_face_3-36">
</polygon >
<path d="M 26 68 C 23 69 20 69 19 68 C 17 66 12 52 8 46 C 7 44 6 43 6 42 C 9 45 10 47 12 48 C 13 50 14 52 16 56 L 26 68 Z" fill="#7e2e28" id="id-male-6.8_face_3-36">
</path >
<polygon points="26 68 29 65 27 53 20 61" fill="#954b3f" id="id-male-6.8_face_3-36">
</polygon >
<path d="M 23 19 C 12 12 6 9 5 9 C 3 10 2 18 2 33 L 17 53 L 26 52 L 23 19 Z" fill="url(#id-male-6.8_face_3-4)" id="id-male-6.8_face_3-40">
</path >
<polygon points="12 17 19 19 18 26 15 28 22 38 21 49 12 44" fill="#9c2429" id="id-male-6.8_face_3-41">
</polygon >
<path d="M 27 53 C 16 50 10 47 8 42 C 6 38 8 30 12 17 L 15 23 C 15 36 14 42 15 43 C 15 45 18 46 25 48 L 27 53 Z" fill="#9e4f4f" id="id-male-6.8_face_3-42">
</path >
<polygon points="11 31 19 26 19 18 14 20 12 18" fill="#c07080" id="id-male-6.8_face_3-43">
</polygon >
<polygon points="20 46 17 42 22 37 25 48" fill="#6a3032" id="id-male-6.8_face_3-44">
</polygon >
</g >
<g transform="translate(18,0)" id="id-male-6.8_face_3-45">
<path d="M 20 231 C 18 227 11 201 5 153 C 3 140 2 128 1 117 C -1 91 4 63 8 49 C 9 46 16 35 16 34 C 30 20 56 0 94 0 C 157 0 178 45 181 51 C 183 57 183 111 181 144 C 178 177 162 232 160 235 C 158 239 124 261 119 264 C 113 266 74 267 69 264 C 64 261 22 235 20 231 Z" fill="url(#id-male-6.8_face_3-5)" id="id-male-6.8_face_3-46">
</path >
<polygon points="7 140 17 117 33 106 149 120 167 144 154 168 73 161 39 177 29 171" fill="url(#id-male-6.8_face_3-6)" id="id-male-6.8_face_3-47">
</polygon >
<polygon points="7 140 17 117 33 106 31 136 77 131 86 136 75 144 52 152 49 152 30 154 23 163" fill="url(#id-male-6.8_face_3-7)" id="id-male-6.8_face_3-47">
</polygon >
<path d="M 5 153 C 3 140 2 128 1 117 C -1 91 4 63 8 49 C 9 46 16 35 16 34 C 30 20 56 0 94 0 C 157 0 178 45 181 51 C 183 57 183 111 181 144 C 181 149 180 153 179 158 L 159 161 L 145 148 L 115 146 L 101 161 L 86 110 L 108 103 C 144 108 161 111 161 110 C 158 100 155 92 154 86 C 152 81 151 76 149 69 L 159 43 L 95 32 L 26 43 L 17 71 L 19 112 L 5 153 Z" fill="url(#id-male-6.8_face_3-8)" id="id-male-6.8_face_3-46">
</path >
<polygon points="39 209 44 175 39 177 29 171" fill="#b57154" id="id-male-6.8_face_3-47">
</polygon >
<path d="M 20 231 C 18 227 11 201 5 153 C 4 146 3 140 3 133 L 30 171 L 54 255 C 40 246 21 234 20 231 Z" fill="url(#id-male-6.8_face_3-9)" id="id-male-6.8_face_3-46">
</path >
<polygon points="120 214 141 194 148 212 132 249 115 262 65 259 56 251 73 255 98 256" fill="url(#id-male-6.8_face_3-10)" id="id-male-6.8_face_3-52">
</polygon >
<path d="M 20 231 C 19 230 19 228 18 225 L 69 256 L 115 258 L 131 246 L 148 209 L 145 247 C 134 254 122 262 119 264 C 113 266 74 267 69 264 C 64 261 22 235 20 231 Z" fill="#764037" id="id-male-6.8_face_3-46">
</path >
<polygon points="80 183 80 201 103 202 128 183 128 174 108 161" fill="#a66755" id="id-male-6.8_face_3-54">
</polygon >
<polygon points="99 197 98 188 119 178 132 185 139 201 121 214" fill="#be8572" id="id-male-6.8_face_3-55">
</polygon >
<polygon points="108 201 117 190 117 182 129 189 115 204" fill="#cc9b8c" id="id-male-6.8_face_3-56">
</polygon >
<polygon points="60 213 54 208 54 188 67 176 88 184 86 187 86 196 93 198 102 194 113 205" fill="#d69b88" id="id-male-6.8_face_3-57">
</polygon >
<polygon points="49 222 65 211 125 212 126 233 120 246 75 244" fill="url(#id-male-6.8_face_3-11)" id="id-male-6.8_face_3-58">
</polygon >
<polygon points="125 214 110 238 84 237 70 222" fill="url(#id-male-6.8_face_3-12)" id="id-male-6.8_face_3-59">
</polygon >
<polygon points="69 252 62 246 95 233 113 238 123 243 121 251 98 256" fill="#ba806f" id="id-male-6.8_face_3-60">
</polygon >
<polygon points="102 249 97 237 108 240 117 246" fill="#c69384" id="id-male-6.8_face_3-61">
</polygon >
<polygon points="151 171 140 187 108 161 141 174" fill="url(#id-male-6.8_face_3-13)" id="id-male-6.8_face_3-62">
</polygon >
<polygon points="117 109 126 125 157 130 163 120 151 101" fill="#7d4c3d" id="id-male-6.8_face_3-63">
</polygon >
<polygon points="160 158 150 172 141 175 119 166 143 148" fill="#cb9d8d" id="id-male-6.8_face_3-62">
</polygon >
<polygon points="160 128 146 114 155 108 164 117 167 125 163 122" fill="#8c594e" id="id-male-6.8_face_3-65">
</polygon >
<polygon points="86 130 91 122 88 109 70 105" fill="#af694d" id="id-male-6.8_face_3-66">
</polygon >
<polygon points="23 133 41 147 57 147 80 134 85 140 87 129 74 106 31 109 31 122" fill="url(#id-male-6.8_face_3-14)" id="id-male-6.8_face_3-67">
</polygon >
<polygon points="43 109 60 118 72 128 82 133 69 109 52 105" fill="#593225" id="id-male-6.8_face_3-68">
</polygon >
<polygon points="28 138 48 154 57 146 42 147" fill="#ce9581" id="id-male-6.8_face_3-69">
</polygon >
<polygon points="94 31 159 40 152 69 154 90 145 103 90 86" fill="#deac9d" id="id-male-6.8_face_3-70">
</polygon >
<path d="M 180 154 C 175 187 161 232 160 235 C 159 237 151 243 142 249 L 154 166 L 172 136 L 180 154 Z" fill="#824a3f" id="id-male-6.8_face_3-46">
</path >
<polygon points="121 35 159 40 152 69 154 90 145 103 138 101" fill="url(#id-male-6.8_face_3-15)" id="id-male-6.8_face_3-70">
</polygon >
<polygon points="38 76 33 42 94 31 90 86 42 86" fill="url(#id-male-6.8_face_3-16)" id="id-male-6.8_face_3-73">
</polygon >
<polygon points="45 86 38 76 22 90 22 112" fill="#c98f82" id="id-male-6.8_face_3-74">
</polygon >
<path d="M 32 20 C 47 10 68 0 94 0 C 115 0 131 5 143 11 L 161 32 L 143 38 L 139 62 L 93 34 L 32 20 Z" fill="url(#id-male-6.8_face_3-17)" opacity="0.484" id="id-male-6.8_face_3-46">
</path >
<polygon points="174 133 176 78 165 112" fill="#b7868e" id="id-male-6.8_face_3-76">
</polygon >
<polygon points="167 55 176 78 169 100" fill="#854f45" id="id-male-6.8_face_3-76">
</polygon >
<polygon points="28 105 44 86 91 85 140 96 88 109 55 101" fill="#eabcab" id="id-male-6.8_face_3-78">
</polygon >
<polygon points="104 105 128 105 160 106 154 87 144 99 126 102 114 91" fill="#eecac1" id="id-male-6.8_face_3-79">
</polygon >
</g >
</g >
<g transform="translate(75,197)" id="id-male-6.8_face_3-80">
<polygon points="0 17 4 13 27 3 38 6 44 2 61 6 71 13 69 17 34 28 5 20" fill="#290b08" id="id-male-6.8_face_3-81">
</polygon >
<polygon points="12 16 4 14 13 7 27 1 38 4 44 0 60 6 68 11 59 15 49 14 38 15 24 15" fill="#621c21" id="id-male-6.8_face_3-81">
</polygon >
<polygon points="36 6 37 13 25 13 23 4" fill="#7c3a4f" id="id-male-6.8_face_3-81">
</polygon >
<path d="M 4 19 C 11 25 16 29 22 30 C 30 32 52 31 53 30 C 54 29 60 25 70 17 L 71 14 C 71 15 70 15 67 15 C 64 15 64 14 58 15 C 52 15 48 17 37 17 C 26 17 15 15 12 16 C 10 16 7 17 4 19 Z" fill="url(#id-male-6.8_face_3-18)" id="id-male-6.8_face_3-84">
</path >
<polygon points="16 19 16 23 33 24 33 25 43 25 51 22 34 23" fill="#c07aa2" opacity="0.532" id="id-male-6.8_face_3-85">
</polygon >
</g >
<polygon points="95 135 84 164 97 164 104 130 99 130" fill="url(#id-male-6.8_face_3-19)" id="id-male-6.8_face_3-86">
</polygon >
<polygon points="84 175 83 177 90 186 105 186 109 187 114 187 119 181 124 182 126 185 130 184 136 177 136 171 134 169 105 165" fill="url(#id-male-6.8_face_3-20)" id="id-male-6.8_face_3-87">
</polygon >
<polygon points="119 163 111 125 119 122 144 143" fill="url(#id-male-6.8_face_3-21)" id="id-male-6.8_face_3-88">
</polygon >
<path d="M 84 175 L 92 160 L 97 165 L 104 130 L 109 122 L 113 130 L 119 163 L 123 156 L 134 169 L 132 173 L 119 169 L 110 172 L 95 172 C 93 173 91 174 89 175 C 88 175 86 175 84 175 Z" fill="url(#id-male-6.8_face_3-22)" id="id-male-6.8_face_3-89">
</path >
<polygon points="179 128 167 143 148 145 115 128 126 112 137 110 148 120 161 118 172 126" fill="#6d4037" id="id-male-6.8_face_3-90">
</polygon >
<polygon points="102 140 104 130 108 136 113 130 116 148 104 156" fill="#e4ad96" id="id-male-6.8_face_3-89">
</polygon >
<polygon points="95 171 100 164 108 171" fill="#f0ecfd" id="id-male-6.8_face_3-92">
</polygon >
<path d="M 110 181 C 103 181 97 177 93 177 C 90 177 88 178 85 180 L 90 186 L 105 186 L 109 187 L 114 187 L 119 181 L 124 182 L 126 185 L 130 184 L 134 179 C 133 176 132 175 131 175 C 130 175 117 181 110 181 Z" fill="url(#id-male-6.8_face_3-23)" id="id-male-6.8_face_3-87">
</path >
<polygon points="92 180 94 186 105 186 97 179" fill="#895445" id="id-male-6.8_face_3-87">
</polygon >
<polygon points="117 180 131 175 132 177 124 182 119 182" fill="#290e08" id="id-male-6.8_face_3-95">
</polygon >
<polygon points="87 178 90 177 99 178 101 179 101 182 94 180" fill="#290e08" id="id-male-6.8_face_3-96">
</polygon >
<g transform="translate(34,94)" id="id-male-6.8_face_3-97">
<path d="M 0 26 C 4 21 12 17 24 15 C 35 14 45 15 54 18 L 59 16 L 49 2 L 54 14 L 45 2 L 21 3 L 14 9 L 17 3 L 2 18 L 0 26 Z" fill="url(#id-male-6.8_face_3-24)" id="id-male-6.8_face_3-98">
</path >
<polygon points="122 15 138 16 148 23 147 13 136 5 120 9" fill="#492a2a" id="id-male-6.8_face_3-99">
</polygon >
<polygon points="53 4 58 9 57 14" fill="#332325" id="id-male-6.8_face_3-100">
</polygon >
<polygon points="90 12 92 20 132 5 125 1 100 4 93 17 96 5" fill="#352325" id="id-male-6.8_face_3-101">
</polygon >
<polygon points="94 19 123 16 122 8" fill="#1f1619" id="id-male-6.8_face_3-102">
</polygon >
</g >
<path d="M 165 122 L 165 128 L 170 132 L 158 139 L 126 136 L 125 133 L 133 127 C 140 121 147 118 152 118 C 157 118 162 120 165 122 Z" fill="#9d7061" id="id-male-6.8_face_3-103">
</path >
<path d="M 136 129 L 133 127 C 139 123 143 120 146 120 L 150 123 L 136 129 Z" fill="#4f302b" id="id-male-6.8_face_3-103">
</path >
<path d="M 130 134 L 130 132 C 140 124 148 120 155 121 C 159 122 162 124 166 126 C 168 127 170 128 174 130 C 172 133 171 133 169 132 C 168 133 167 133 167 134 C 165 135 162 136 158 136 L 136 135 L 130 134 Z" fill="#1c1316" id="id-male-6.8_face_3-105">
</path >
<path d="M 135 133 L 136 135 L 158 136 L 165 132 C 158 127 153 125 149 125 C 144 125 139 128 135 133 Z" fill="#b5a7b5" id="id-male-6.8_face_3-106">
</path >
<path d="M 135 133 L 136 135 L 140 135 C 142 131 144 129 148 129 C 151 128 155 130 161 134 L 165 132 C 158 127 153 125 149 125 C 144 125 139 128 135 133 Z" fill="#a28f91" id="id-male-6.8_face_3-106">
</path >
<path d="M 149 136 C 154 136 157 134 158 128 C 154 126 151 124 149 124 C 146 124 144 126 141 128 C 141 133 143 135 149 136 Z" fill="#1b1216" id="id-male-6.8_face_3-106">
</path >
<polygon points="144 128 145 130 150 129 150 127" fill="#8f8793" id="id-male-6.8_face_3-109">
</polygon >
<polygon points="53 127 58 118 69 117 72 123 80 127 84 124 96 132 89 138 86 136 63 138 57 134" fill="#a97665" id="id-male-6.8_face_3-110">
</polygon >
<path d="M 46 126 C 48 121 54 118 63 116 C 72 114 83 119 96 132 C 84 123 75 118 68 117 C 62 117 55 119 47 126 L 46 126 Z" fill="#4e2b23" id="id-male-6.8_face_3-111">
</path >
<path d="M 47 134 L 45 132 C 55 124 63 120 69 121 C 76 122 82 126 90 132 L 86 136 L 59 135 L 51 133 L 47 134 Z" fill="#1e1410" id="id-male-6.8_face_3-112">
</path >
<path d="M 53 132 L 61 136 L 81 136 L 84 133 C 78 128 73 125 69 125 C 64 125 59 127 53 132 Z" fill="#b4a3af" id="id-male-6.8_face_3-113">
</path >
<path d="M 53 132 L 58 134 C 60 131 63 130 68 130 C 73 130 78 131 83 134 L 84 133 C 78 128 73 125 69 125 C 64 125 59 127 53 132 Z" fill="#a69398" id="id-male-6.8_face_3-113">
</path >
<path d="M 69 136 C 73 136 76 133 77 128 C 74 126 71 124 69 124 C 66 124 63 126 60 128 C 61 133 64 136 69 136 Z" fill="#1e1011" id="id-male-6.8_face_3-113">
</path >
<polygon points="63 128 64 130 69 128 67 127" fill="#999aa8" id="id-male-6.8_face_3-116">
</polygon >
</g >
<defs >
</defs >
<g transform="translate(318,470)" id="id-male-12_merchant_jumpsuit-0">
<path d="M 623 1180 C 623 1182 620 1209 620 1210 C 597 1234 590 1229 605 1261 L 600 1290 L 455 1290 L 450 1284 L 453 1257 L 440 1215 L 442 1169 C 440 1145 392 1063 380 1041 L 372 1038 L 358 1055 C 358 1055 329 1070 326 1076 C 324 1084 319 1178 317 1202 C 317 1202 287 1227 289 1234 C 292 1242 302 1290 302 1290 L 143 1290 L 137 1267 C 137 1267 142 1252 143 1251 C 141 1245 129 1218 127 1212 L 130 1201 L 137 1190 C 137 1186 137 1182 137 1178 C 128 1165 119 1080 116 1064 L 119 961 L 112 940 L 117 906 L 118 872 L 109 853 C 107 827 107 801 109 775 C 153 732 133 751 152 692 C 151 688 150 657 149 654 C 180 602 172 470 181 409 L 163 371 L 161 388 L 150 275 L 222 109 L 245 87 L 222 42 L 247 21 L 265 9 C 266 11 267 15 268 19 C 270 21 270 22 270 22 L 272 69 C 299 141 327 296 337 376 C 337 376 358 348 358 348 C 367 292 383 199 392 143 L 414 88 L 414 87 L 404 74 L 401 48 L 402 30 L 408 23 L 415 0 L 450 16 C 450 16 476 44 476 44 L 438 95 L 469 114 C 479 144 519 268 528 296 C 527 316 525 356 523 376 L 512 403 L 511 470 L 508 475 C 515 519 527 596 525 640 C 533 656 530 672 541 686 C 531 695 548 731 550 736 C 541 748 581 788 585 797 C 590 859 602 977 608 1043 L 598 1131 C 598 1131 623 1180 623 1180 Z" fill="#131725" id="id-male-12_merchant_jumpsuit-1">
</path >
<path d="M 623 1180 L 620 1208 C 596 1228 545 1269 522 1290 L 456 1290 L 450 1284 L 453 1257 L 435 1215 C 449 1134 375 1048 349 976 L 364 986 L 399 950 L 402 948 L 347 893 C 349 772 352 632 355 511 C 357 362 365 184 432 45 C 432 45 474 45 476 45 L 438 95 L 434 93 L 437 56 L 400 143 C 402 144 407 148 409 149 C 418 137 437 111 445 100 L 469 114 C 479 144 519 268 528 296 C 528 305 526 343 524 351 L 506 356 L 481 514 L 508 475 C 515 519 527 596 525 640 L 531 655 L 505 663 L 487 635 L 471 640 C 472 643 474 649 475 652 L 508 684 C 511 683 536 681 539 681 L 541 686 C 531 695 554 732 556 736 C 547 750 582 788 586 798 L 554 829 L 549 867 L 595 901 L 595 905 L 608 1043 L 598 1131 C 598 1131 623 1180 623 1180 Z" fill="#111724" id="id-male-12_merchant_jumpsuit-1">
</path >
<polygon points="476 44 475 45 440 50 430 42 464 38 447 18 415 1 415 0 450 16" fill="#3b5e97" id="id-male-12_merchant_jumpsuit-1">
</polygon >
<polygon points="435 55 441 49 432 42 429 47" fill="#818ea4" id="id-male-12_merchant_jumpsuit-1">
</polygon >
<path d="M 350 954 L 344 949 L 192 937 L 229 914 L 190 896 L 245 903 L 329 931 C 285 901 210 856 160 836 L 120 855 L 177 870 L 132 891 L 178 964 L 123 981 L 183 989 L 196 1048 L 167 1061 L 190 1076 L 190 1154 C 217 1134 289 1091 319 1074 L 343 1020 C 339 1013 202 979 192 976 C 229 975 314 975 350 984 L 350 954 L 350 954 Z" fill="#191d2c" id="id-male-12_merchant_jumpsuit-1">
</path >
<path d="M 340 818 L 340 881 L 274 866 L 267 870 L 166 834 L 167 831 L 109 780 C 109 777 109 775 109 775 C 109 775 131 752 137 747 L 151 769 C 151 769 169 790 169 791 C 170 792 167 767 167 767 L 244 792 L 277 830 L 336 818 L 289 788 L 264 782 L 213 757 C 214 758 238 782 239 784 C 240 786 196 758 196 758 L 144 738 C 144 736 144 734 145 733 L 183 733 L 227 742 L 158 689 L 184 687 L 177 663 L 150 660 L 149 654 L 160 634 L 178 643 L 175 659 C 181 647 208 557 213 542 L 251 603 L 228 391 L 167 356 L 266 352 L 187 327 C 181 313 163 275 161 259 C 171 221 217 132 236 97 L 246 87 L 239 112 L 279 147 L 284 137 L 292 138 C 346 297 338 493 339 659 L 270 701 L 266 703 L 336 701 L 339 663 L 340 818 Z" fill="#202432" id="id-male-12_merchant_jumpsuit-1">
</path >
<polygon points="195 679 331 719 309 762" fill="#2a334a" id="id-male-12_merchant_jumpsuit-1">
</polygon >
<path d="M 274 626 L 333 611 C 333 611 337 660 336 659 C 335 658 274 626 274 626 Z" fill="#2a334b" id="id-male-12_merchant_jumpsuit-1">
</path >
<polygon points="328 608 335 608 336 532 328 543" fill="#2a334b" id="id-male-12_merchant_jumpsuit-1">
</polygon >
<polygon points="157 275 252 320 185 326" fill="#293148" id="id-male-12_merchant_jumpsuit-1">
</polygon >
<polygon points="260 382 316 323 329 398" fill="#1c1f2f" id="id-male-12_merchant_jumpsuit-1">
</polygon >
<polygon points="240 339 319 317 324 353" fill="#29324a" id="id-male-12_merchant_jumpsuit-1">
</polygon >
<polygon points="315 303 190 272 297 201" fill="#2c344c" id="id-male-12_merchant_jumpsuit-1">
</polygon >
<polygon points="292 201 237 182 290 164" fill="#2c344c" id="id-male-12_merchant_jumpsuit-1">
</polygon >
<path d="M 280 161 C 280 161 293 155 293 156 C 311 218 323 321 332 385 L 326 390 C 317 327 295 224 280 161 Z" fill="#395586" id="id-male-12_merchant_jumpsuit-1">
</path >
<path d="M 284 126 L 280 130 L 251 85 C 248 85 246 85 243 85 L 222 42 L 225 40 L 261 50 L 284 126 Z" fill="#272d44" id="id-male-12_merchant_jumpsuit-1">
</path >
<path d="M 294 138 L 284 138 C 280 136 259 59 258 53 L 223 44 L 222 42 L 247 21 L 265 9 L 265 10 L 233 40 L 264 45 C 273 70 286 112 294 138 Z" fill="#395586" id="id-male-12_merchant_jumpsuit-1">
</path >
<polygon points="253 53 264 45 265 50 260 58" fill="#8592aa" id="id-male-12_merchant_jumpsuit-1">
</polygon >
<path d="M 289 1234 C 292 1242 302 1290 302 1290 L 143 1290 L 137 1267 C 137 1267 142 1252 143 1251 L 130 1220 L 177 1253 L 223 1267 C 240 1254 299 1211 318 1197 C 317 1200 317 1202 317 1202 C 317 1202 287 1227 289 1234 Z" fill="#11131a" id="id-male-12_merchant_jumpsuit-1">
</path >
<polygon points="172 1200 183 1200 216 1235 218 1249 179 1218" fill="#11131a" id="id-male-12_merchant_jumpsuit-1">
</polygon >
<path d="M 193 1192 L 230 1171 L 310 1199 C 310 1199 274 1218 273 1218 C 272 1218 193 1197 193 1197 L 193 1192 Z" fill="#11131a" id="id-male-12_merchant_jumpsuit-1">
</path >
<path d="M 555 738 L 504 762 L 415 774 L 470 730 L 499 727 L 540 687 C 538 692 543 697 544 703 C 546 715 558 735 555 738 Z" fill="#212533" id="id-male-12_merchant_jumpsuit-1">
</path >
<path d="M 540 683 C 494 708 399 750 349 766 L 350 731 L 461 694 L 393 702 L 350 701 L 351 664 L 474 651 L 473 645 L 473 645 L 473 645 L 508 684 L 532 680 L 535 674 C 535 676 539 682 540 683 Z" fill="#212533" id="id-male-12_merchant_jumpsuit-1">
</path >
<path d="M 420 439 L 502 378 L 484 491 L 444 484 L 463 635 L 468 639 L 383 648 L 381 656 L 351 659 C 355 524 351 350 381 217 L 523 292 L 420 439 Z" fill="#212533" id="id-male-12_merchant_jumpsuit-1">
</path >
<polygon points="433 513 379 650 356 653 355 611 352 612 355 511 370 496 390 516 364 529 364 574" fill="#2a334b" id="id-male-12_merchant_jumpsuit-1">
</polygon >
<polygon points="351 762 351 735 450 704 498 701" fill="#383940" id="id-male-12_merchant_jumpsuit-1">
</polygon >
<polygon points="423 870 487 821 532 833" fill="#009247" id="id-male-12_merchant_jumpsuit-1">
</polygon >
<path d="M 520 272 C 515 279 503 296 498 304 C 497 312 373 314 365 316 C 372 266 390 197 401 148 C 403 148 407 146 410 148 L 443 103 L 470 117 C 474 131 517 261 520 272 Z" fill="#2f3852" id="id-male-12_merchant_jumpsuit-1">
</path >
<path d="M 409 158 C 401 198 384 312 376 353 C 376 353 361 351 360 351 C 368 305 389 195 398 149 C 400 149 403 152 409 158 Z" fill="#375282" id="id-male-12_merchant_jumpsuit-1">
</path >
<path d="M 598 1131 L 598 1131 L 548 1040 L 506 1020 L 537 1004 L 558 949 L 595 905 C 595 902 595 899 594 896 L 569 873 L 510 856 L 451 891 L 447 893 L 481 923 L 497 944 L 442 925 L 392 921 L 471 858 L 531 837 L 551 841 L 553 830 L 554 829 L 585 797 C 582 793 553 755 550 748 L 508 805 L 508 782 L 389 808 L 493 810 L 397 878 C 393 880 342 894 340 896 L 347 956 L 365 942 L 390 950 C 392 950 509 953 515 953 L 419 983 L 481 1018 L 447 1008 L 484 1088 L 368 991 L 399 1037 C 404 1042 500 1125 499 1129 C 485 1126 432 1118 417 1115 C 417 1128 550 1249 559 1260 L 597 1238 C 597 1228 615 1217 620 1211 C 620 1209 623 1182 623 1181 L 598 1131 Z" fill="#1e2231" id="id-male-12_merchant_jumpsuit-1">
</path >
<path d="M 692 777 C 685 779 624 784 626 784 L 626 753 L 612 704 L 565 569 L 562 534 L 553 524 L 560 499 L 544 466 L 523 375 L 521 377 L 523 297 L 464 111 L 504 135 L 538 144 L 601 173 C 614 205 617 251 618 284 C 621 317 635 397 641 430 L 653 438 L 652 462 L 676 478 L 670 494 L 681 513 L 685 648 L 682 738 C 682 738 691 775 692 777 Z" fill="#931937" id="id-male-12_merchant_jumpsuit-1">
</path >
<path d="M 626 784 L 626 753 L 612 704 L 565 569 L 562 534 L 553 524 L 560 499 L 544 466 L 523 375 L 521 377 C 521 338 526 259 532 220 L 543 279 L 567 250 L 592 470 L 579 489 L 631 479 L 594 507 L 633 501 L 624 534 C 625 540 647 601 643 606 C 648 646 664 740 671 780 C 652 782 626 784 626 784 Z" fill="#590a32" id="id-male-12_merchant_jumpsuit-1">
</path >
<polygon points="513 154 599 179 572 216" fill="#b02350" id="id-male-12_merchant_jumpsuit-1">
</polygon >
<path d="M 152 277 L 162 384 L 146 479 L 132 506 L 145 535 L 129 552 C 130 555 132 565 132 568 C 117 593 62 742 62 774 L 0 766 C 18 687 -1 573 14 493 L 25 488 L 43 449 L 37 436 L 53 411 C 63 354 65 234 82 181 C 114 160 188 123 224 107 L 156 270 C 156 271 153 276 152 277 Z" fill="#4c1031" id="id-male-12_merchant_jumpsuit-1">
</path >
<path d="M 133 569 C 117 594 63 744 62 775 L 54 774 C 50 754 41 682 41 682 L 52 697 C 47 637 58 532 60 472 C 63 467 116 496 120 498 L 79 507 L 100 542 L 107 528 C 107 528 113 541 113 542 C 112 543 125 557 132 565 L 133 569 Z" fill="#731034" id="id-male-12_merchant_jumpsuit-1">
</path >
<path d="M 224 107 C 224 108 157 270 156 271 L 96 268 L 139 245 C 122 235 91 212 76 199 L 82 181 C 114 159 189 123 224 107 Z" fill="#911938" id="id-male-12_merchant_jumpsuit-1">
</path >
<path d="M 179 640 C 179 640 175 661 175 661 L 183 641 L 179 640 Z" fill="#0b0c0e" id="id-male-12_merchant_jumpsuit-1">
</path >
<path d="M 208 709 L 211 709 L 203 720 L 204 737 L 190 755 L 194 774 L 175 831 L 177 839 L 163 867 L 147 884 C 147 884 114 945 114 944 C 114 944 113 941 113 941 L 114 937 L 146 882 L 161 865 L 175 839 L 171 831 L 191 773 L 188 754 L 201 735 L 201 719 L 208 709 Z" fill="#0b0c0e" id="id-male-12_merchant_jumpsuit-1">
</path >
<polygon points="430 871 492 821 538 833" fill="#3c3c44" id="id-male-12_merchant_jumpsuit-1">
</polygon >
<polygon points="605 1077 584 1040 558 949 526 864 525 832 494 782 495 758 478 728 480 709 465 676 496 672 506 682 506 674 473 644 494 668 350 689 350 690 462 676 478 711 476 730 492 760 492 783 522 836 523 864 555 951 582 1043 605 1082" fill="#0b0c0e" id="id-male-12_merchant_jumpsuit-1">
</polygon >
<path d="M 445 100 L 464 111 L 379 215 C 390 155 407 97 432 45 C 432 45 474 45 475 45 L 438 95 L 434 93 L 437 56 L 400 143 C 402 144 407 148 409 149 C 418 137 437 111 445 100 Z" fill="#212533" id="id-male-12_merchant_jumpsuit-1">
</path >
</g >
<defs >
<linearGradient x1="100%" y1="50%" x2="0%" y2="50%" id="id-male-27_eye_shields-0">
<stop stop-color="#6af17a" offset="0%">
</stop >
<stop stop-color="#009987" offset="5%">
</stop >
<stop stop-color="#44006d" offset="17%">
</stop >
<stop stop-color="#225a7d" offset="29%">
</stop >
<stop stop-color="#45006d" offset="50%">
</stop >
<stop stop-color="#430272" offset="68%">
</stop >
<stop stop-color="#26547b" offset="82%">
</stop >
<stop stop-color="#019586" offset="97%">
</stop >
<stop stop-color="#6af17a" offset="100%">
</stop >
</linearGradient >
<linearGradient x1="50%" y1="6%" x2="50%" y2="100%" id="id-male-27_eye_shields-1">
<stop stop-color="#c700bd" offset="0%">
</stop >
<stop stop-color="#4d0072" offset="34%">
</stop >
<stop stop-color="#a07db0" offset="69%" stop-opacity="0">
</stop >
<stop stop-color="#0471ba" offset="79%">
</stop >
<stop stop-color="#009bd6" offset="100%">
</stop >
</linearGradient >
<linearGradient x1="104%" y1="93%" x2="9%" y2="6%" id="id-male-27_eye_shields-2">
<stop stop-color="#00ad8a" offset="0%">
</stop >
<stop stop-color="#56e180" offset="100%">
</stop >
</linearGradient >
<linearGradient x1="100%" y1="9%" x2="13%" y2="90%" id="id-male-27_eye_shields-3">
<stop stop-color="#56e180" offset="0%">
</stop >
<stop stop-color="#00ad8a" offset="100%">
</stop >
</linearGradient >
<linearGradient x1="100%" y1="50%" x2="0%" y2="50%" id="id-male-27_eye_shields-4">
<stop stop-color="#9001ad" offset="0%">
</stop >
<stop stop-color="#45006d" offset="100%">
</stop >
</linearGradient >
<linearGradient x1="100%" y1="50%" x2="0%" y2="50%" id="id-male-27_eye_shields-5">
<stop stop-color="#45006d" offset="0%">
</stop >
<stop stop-color="#9001ad" offset="100%">
</stop >
</linearGradient >
</defs >
<g transform="translate(469,188)" id="id-male-27_eye_shields-6">
<path d="M 87 221 C 93 226 96 228 96 228 C 119 229 137 235 149 246 C 145 282 144 305 146 316 C 147 257 162 260 167 221 C 183 214 180 200 192 198 C 204 198 196 213 213 225 C 221 272 238 265 232 320 C 238 315 240 295 239 260 C 235 256 232 252 230 246 C 249 229 274 233 278 224 C 254 221 232 215 212 208 C 202 206 204 192 192 190 C 192 190 192 190 191 190 C 180 191 173 208 167 208 C 164 216 160 225 154 235 C 128 225 106 220 87 221 Z" fill="#000000" fill-opacity="0.5" id="id-male-27_eye_shields-7">
</path >
<path d="M 147 321 C 146 321 145 321 143 318 C 137 297 140 272 139 250 C 143 249 146 248 150 244 C 123 210 12 240 0 155 L 2 154 C 22 236 92 193 154 234 C 159 225 161 213 158 195 C 133 168 102 155 95 133 L 85 131 C 68 104 105 25 126 1 C 128 5 81 77 103 126 C 117 161 161 174 166 200 L 170 206 C 177 193 183 187 190 187 C 203 185 207 209 211 206 C 214 206 209 195 220 184 C 237 166 266 152 278 122 C 290 77 268 41 252 1 C 316 92 293 130 293 130 C 290 132 286 133 283 133 C 269 162 225 182 219 201 C 218 211 219 222 223 234 C 283 194 357 233 376 155 C 377 154 377 154 378 155 C 370 238 254 210 229 244 C 230 248 234 250 239 250 C 240 283 238 323 232 321 C 238 265 213 244 213 219 C 203 219 199 193 190 193 C 181 193 179 216 166 219 C 160 256 140 268 147 321 Z" fill="url(#id-male-27_eye_shields-0)" id="id-male-27_eye_shields-8">
</path >
<path d="M 147 321 C 146 321 145 321 143 318 C 137 297 140 272 139 250 C 143 249 146 248 150 244 C 123 210 12 240 0 155 L 2 154 C 22 236 92 193 154 234 C 159 225 161 213 158 195 C 133 168 102 155 95 133 L 85 131 C 68 104 105 25 126 1 C 128 5 81 77 103 126 C 117 161 161 174 166 200 L 170 206 C 177 193 184 187 191 187 C 204 185 207 209 211 206 C 214 206 209 195 220 184 C 237 166 266 152 278 122 C 290 77 268 41 252 1 C 316 92 293 130 293 130 C 290 132 286 133 283 133 C 269 162 225 182 219 201 C 218 211 219 222 223 234 C 283 194 357 233 376 155 C 377 154 377 154 378 155 C 370 238 254 210 229 244 C 230 248 234 250 239 250 C 240 283 238 323 232 321 C 238 265 213 244 213 219 C 203 219 200 193 191 193 C 182 193 179 216 166 219 C 160 256 140 268 147 321 Z" fill="url(#id-male-27_eye_shields-1)" id="id-male-27_eye_shields-9">
</path >
<path d="M 101 123 C 80 78 104 37 126 1 C 126 7 104 42 100 71 C 95 90 96 108 101 123 Z" fill="#bc00b6" id="id-male-27_eye_shields-10">
</path >
<path d="M 220 229 C 218 224 216 216 216 202 L 218 202 C 218 210 219 219 220 229 Z" fill="#893aaf" id="id-male-27_eye_shields-11">
</path >
<path d="M 285 110 L 287 111 C 286 115 285 119 284 122 L 285 110 Z" fill="#b85cd8" id="id-male-27_eye_shields-12">
</path >
<path d="M 293 130 L 292 131 C 294 85 276 42 252 1 C 291 56 304 100 293 130 Z" fill="#b600b4" id="id-male-27_eye_shields-13">
</path >
<path d="M 293 106 C 291 83 282 55 266 22 C 272 31 278 42 283 54 C 291 72 294 90 293 106 Z" fill="#dd7bfa" id="id-male-27_eye_shields-14">
</path >
<path d="M 293 116 L 295 116 C 295 123 294 121 293 122 C 293 121 293 119 293 116 Z" fill="#d766ef" id="id-male-27_eye_shields-15">
</path >
<path d="M 153 248 C 153 248 154 247 154 248 C 155 248 155 249 155 249 C 146 270 143 293 147 319 C 147 320 147 321 146 321 C 146 321 145 320 145 320 C 141 293 144 270 153 248 Z" fill="#57c4f9" id="id-male-27_eye_shields-16" fill-rule="nonzero">
</path >
<path d="M 236 252 C 237 252 237 252 237 253 L 237 256 L 237 259 L 238 261 L 238 263 L 238 266 L 238 268 L 238 270 L 238 272 L 238 274 L 238 276 C 238 277 238 277 238 277 L 238 279 L 238 280 L 238 283 L 238 284 L 238 286 L 238 287 L 238 289 L 237 290 L 237 292 L 237 293 L 237 295 L 237 296 L 237 298 L 237 299 L 237 300 L 237 301 L 237 303 L 237 304 L 236 305 L 236 306 L 236 307 L 236 308 L 236 309 C 236 309 236 309 236 310 L 236 311 L 235 312 L 235 313 L 235 313 L 235 314 L 235 315 C 235 315 235 316 235 316 L 234 317 L 234 317 L 234 318 C 234 318 234 319 234 319 L 234 320 C 234 320 234 320 234 320 L 233 321 C 233 321 233 321 233 321 C 233 322 233 322 232 322 C 232 322 231 321 231 321 L 232 320 L 232 319 L 232 318 C 232 318 232 318 232 318 L 232 317 L 233 316 L 233 315 C 233 315 233 315 233 315 L 233 314 L 233 313 L 233 312 L 234 311 L 234 310 L 234 309 L 234 308 L 234 307 L 234 306 L 234 305 L 234 304 L 235 303 L 235 302 L 235 300 L 235 299 L 235 298 L 235 297 L 235 296 L 235 294 L 235 292 L 235 291 L 235 289 L 236 287 L 236 286 L 236 284 L 236 282 L 236 280 L 236 277 C 236 277 236 276 236 276 L 236 274 L 236 272 L 236 270 L 236 268 L 236 265 L 236 263 L 236 261 L 235 258 L 235 256 L 235 253 C 235 253 236 252 236 252 Z" fill="#57c4f9" id="id-male-27_eye_shields-17" fill-rule="nonzero">
</path >
<circle cx="237" cy="255" r="2" fill="#5bbaf2" id="id-male-27_eye_shields-18">
</circle >
<path d="M 156 233 C 157 233 157 233 158 234 C 158 234 158 235 157 235 C 157 235 157 235 157 235 L 157 235 C 157 235 157 235 157 235 L 157 235 L 156 236 C 155 237 153 237 149 236 C 149 236 149 235 149 234 C 149 234 150 234 150 234 C 153 235 154 235 155 234 L 155 234 C 156 233 156 233 156 233 Z" fill="#0078bd" id="id-male-27_eye_shields-19" fill-rule="nonzero">
</path >
<path d="M 62 210 L 69 211 L 75 212 L 79 212 L 82 213 L 85 213 L 87 213 L 89 214 L 91 214 L 92 214 L 94 215 L 96 215 L 98 215 L 99 215 L 101 216 L 102 216 L 104 216 L 104 216 L 105 217 C 106 217 106 217 107 217 C 122 220 134 225 145 232 C 145 232 145 233 145 234 C 145 234 144 234 143 234 C 133 227 121 222 106 219 C 106 219 105 219 104 218 L 104 218 C 103 218 102 218 102 218 L 100 218 L 100 217 L 98 217 L 96 217 L 94 216 L 92 216 L 91 216 L 88 216 L 86 215 L 85 215 L 83 215 L 80 215 L 77 214 L 73 214 L 62 212 C 61 212 61 212 61 211 C 61 211 61 210 62 210 L 62 210 Z" fill="#9137c0" id="id-male-27_eye_shields-20" fill-rule="nonzero">
</path >
<path d="M 1 153 C 1 153 2 153 2 154 C 9 187 27 204 55 208 C 56 208 56 209 56 209 C 56 210 55 210 55 210 C 26 205 7 188 0 154 C 0 154 0 153 1 153 Z" fill="url(#id-male-27_eye_shields-2)" id="id-male-27_eye_shields-21" fill-rule="nonzero">
</path >
<path d="M 138 170 C 138 169 139 169 139 170 C 148 176 155 183 161 191 C 161 192 161 192 160 192 C 160 193 159 193 159 192 C 154 184 147 178 138 171 C 138 171 138 170 138 170 Z" fill="#a14ac2" id="id-male-27_eye_shields-22" fill-rule="nonzero">
</path >
<circle cx="160" cy="191" r="2" fill="#c868e7" id="id-male-27_eye_shields-18">
</circle >
<path d="M 164 198 C 164 198 165 198 165 199 C 166 211 165 222 162 230 C 162 231 162 231 161 231 C 161 231 160 230 161 230 C 163 222 164 211 163 199 C 163 199 163 198 164 198 Z" fill="#b358d3" id="id-male-27_eye_shields-24" fill-rule="nonzero">
</path >
<path d="M 126 0 C 127 0 127 1 127 1 L 125 4 L 124 6 L 123 8 L 122 10 L 121 12 L 120 14 L 120 16 L 119 18 L 118 19 L 117 21 L 116 23 L 115 25 C 115 25 115 26 114 26 L 114 28 L 113 30 L 112 31 C 112 32 112 32 112 32 L 111 34 L 110 35 L 110 37 L 109 39 L 108 40 C 108 40 108 41 108 41 L 107 42 L 107 44 L 106 45 C 106 46 106 46 106 46 L 105 48 C 105 48 105 49 105 49 L 104 51 L 104 52 C 103 54 103 55 102 56 L 102 58 C 101 60 101 61 101 63 L 100 64 C 100 65 100 66 100 66 L 99 68 C 99 68 99 69 99 69 L 99 70 C 99 71 98 71 97 71 C 97 71 97 71 97 70 C 97 69 97 69 97 68 L 98 67 C 98 65 98 64 98 63 L 99 62 C 99 61 99 61 99 60 L 100 59 C 100 58 100 58 100 57 L 100 56 C 101 55 101 53 102 52 L 102 51 C 102 51 102 50 102 50 L 103 49 C 103 48 103 48 103 48 L 104 46 C 104 46 104 46 104 46 L 105 44 L 105 42 C 105 42 105 42 106 42 L 106 40 L 107 39 C 107 38 107 38 107 38 L 108 36 C 108 36 108 36 108 35 L 109 34 L 110 32 L 110 31 L 111 29 L 112 27 C 112 27 112 27 112 26 L 113 25 L 114 23 L 115 21 L 115 19 L 116 18 L 117 16 L 118 14 L 119 12 L 120 10 L 121 8 L 122 6 L 123 4 L 124 3 L 125 1 C 125 0 126 0 126 0 Z" fill="#dc75f8" id="id-male-27_eye_shields-25" fill-rule="nonzero">
</path >
<path d="M 97 56 C 97 56 98 55 98 55 C 99 56 99 56 99 57 C 92 74 91 89 94 105 C 94 106 94 107 94 107 C 93 107 92 106 92 106 C 89 89 90 74 97 56 Z" fill="#c55ee0" id="id-male-27_eye_shields-26" fill-rule="nonzero">
</path >
<path d="M 93 110 C 94 110 94 110 94 111 C 102 133 115 151 134 165 C 134 165 134 166 134 166 C 133 167 133 167 132 167 C 113 153 100 134 92 111 C 92 111 92 110 93 110 Z" fill="#c464e3" id="id-male-27_eye_shields-27" fill-rule="nonzero">
</path >
<path d="M 191 190 C 191 189 192 189 192 189 C 196 190 198 192 201 195 L 201 196 L 201 196 C 201 197 201 197 201 197 L 202 197 L 202 198 L 203 199 L 203 200 L 204 201 L 204 201 C 204 202 204 202 204 202 L 205 202 L 205 203 C 206 205 207 206 208 207 C 209 207 209 208 208 208 C 208 208 207 209 207 208 C 206 207 205 207 204 206 L 204 205 C 204 205 203 204 203 204 L 203 203 C 203 203 203 203 203 203 L 202 202 L 202 201 L 201 200 L 200 199 C 200 199 200 199 200 198 L 200 198 L 199 197 C 199 197 199 197 199 196 L 199 196 C 197 193 195 192 192 191 C 191 191 191 190 191 190 Z" fill="#8400a2" id="id-male-27_eye_shields-28" fill-rule="nonzero">
</path >
<circle cx="196" cy="191" r="2" fill="#c867e6" id="id-male-27_eye_shields-18">
</circle >
<path d="M 280 129 C 280 128 281 128 281 128 C 282 129 282 129 282 130 C 281 133 279 136 277 139 L 277 140 L 276 141 C 276 141 276 141 276 141 L 275 142 C 275 143 274 143 274 144 L 273 145 C 273 145 272 146 272 146 L 271 147 C 271 147 271 147 271 147 L 270 148 C 270 148 270 148 270 148 L 269 149 C 269 149 269 150 269 150 L 268 151 C 268 151 268 151 268 151 L 267 152 L 266 153 C 266 153 266 153 266 153 L 265 154 C 265 154 264 154 264 154 L 263 155 C 263 155 263 155 263 156 L 262 156 L 261 157 C 261 157 261 158 260 158 L 259 159 L 258 160 C 258 160 258 160 258 160 L 257 161 L 256 162 L 255 163 L 253 164 L 252 165 L 250 166 L 240 175 L 238 177 L 236 178 L 235 179 L 233 180 L 233 181 L 232 182 L 231 182 L 230 183 C 230 183 230 183 230 183 L 229 184 C 224 188 221 192 219 195 C 219 195 218 195 218 195 C 217 195 217 194 217 194 C 220 190 224 186 230 181 L 231 179 L 232 178 L 234 177 L 235 177 L 236 175 L 238 174 L 248 166 L 250 164 L 251 163 L 253 162 L 254 160 L 256 159 L 257 159 L 258 158 C 258 157 258 157 258 157 L 259 156 C 259 156 259 156 260 156 L 261 155 L 262 154 L 262 153 C 263 153 263 153 263 153 L 264 152 L 265 151 L 265 150 L 266 149 C 267 149 268 148 269 147 L 269 146 C 270 146 270 145 270 145 L 271 144 L 272 144 C 272 143 272 143 273 142 L 273 141 C 276 137 279 133 280 129 Z" fill="#b356d3" id="id-male-27_eye_shields-30" fill-rule="nonzero">
</path >
<path d="M 377 154 C 378 154 378 154 378 155 C 373 186 352 206 314 213 C 313 213 313 213 313 212 C 313 212 313 211 314 211 C 351 204 371 185 376 155 C 376 154 376 154 377 154 L 377 154 Z" fill="url(#id-male-27_eye_shields-3)" id="id-male-27_eye_shields-31" fill-rule="nonzero">
</path >
<path d="M 307 213 C 307 213 308 214 308 214 C 308 215 307 215 307 215 L 304 216 C 304 216 304 216 303 216 L 301 216 L 299 216 C 299 216 298 216 298 216 L 296 216 C 296 216 295 216 295 216 L 293 216 L 291 217 L 289 217 L 287 217 L 285 217 L 283 217 C 283 217 283 217 283 218 L 281 218 C 275 218 270 219 265 220 L 264 221 C 250 224 240 228 233 233 C 233 234 232 234 232 233 C 231 233 231 232 232 232 C 241 224 255 220 273 217 L 275 216 L 277 216 C 277 216 277 216 278 216 L 279 216 C 280 216 280 216 280 216 L 282 216 C 282 215 283 215 283 215 L 285 215 C 285 215 286 215 286 215 L 288 215 L 290 215 L 292 215 C 292 215 292 214 293 214 L 295 214 L 297 214 L 299 214 L 301 214 L 303 214 L 305 214 C 306 214 306 214 307 213 Z" fill="#b357d4" id="id-male-27_eye_shields-32" fill-rule="nonzero">
</path >
<path d="M 219 235 C 219 234 220 234 220 234 C 221 234 221 234 222 234 L 222 235 C 222 235 223 235 224 235 L 225 235 C 225 235 226 235 226 236 C 226 236 226 237 225 237 C 223 237 222 237 221 236 L 221 236 C 220 236 220 236 220 236 C 219 236 219 235 219 235 Z" fill="#027bbf" id="id-male-27_eye_shields-33" fill-rule="nonzero">
</path >
<path d="M 223 234 C 234 227 251 220 274 215 C 292 191 291 162 283 132 C 268 162 223 183 219 201 C 218 212 219 223 223 234 Z" fill="url(#id-male-27_eye_shields-4)" id="id-male-27_eye_shields-34">
</path >
<path d="M 154 234 C 140 225 123 219 104 215 C 87 196 86 167 94 133 L 95 133 C 106 156 141 173 158 195 C 163 212 162 225 154 234 Z" fill="url(#id-male-27_eye_shields-5)" id="id-male-27_eye_shields-35">
</path >
<path d="M 97 205 C 107 194 111 178 109 156 C 114 161 116 164 116 164 C 108 178 108 196 112 217 L 104 215 C 101 212 99 209 97 205 Z" fill="#ffffff" fill-opacity="0.256" id="id-male-27_eye_shields-36">
</path >
<path d="M 266 216 L 275 215 L 277 211 C 268 205 270 186 273 166 L 263 158 L 262 159 C 268 173 270 191 266 216 Z" fill="#ffffff" fill-opacity="0.256" id="id-male-27_eye_shields-37">
</path >
<polygon points="109 156 116 164 110 178" fill="#d96efb" id="id-male-27_eye_shields-38">
</polygon >
<path d="M 263 158 L 262 159 C 266 166 267 175 269 183 L 273 166 L 263 158 Z" fill="#d96efb" id="id-male-27_eye_shields-39">
</path >
<g transform="translate(97,144)" fill="#0d0c13" id="id-male-27_eye_shields-40">
<path d="M 3 16 C 4 16 5 15 5 14 C 5 13 4 12 3 12 C 1 12 0 13 0 14 C 0 15 1 16 3 16 Z M 3 39 C 4 39 5 38 5 37 C 5 36 4 35 3 35 C 1 35 0 36 0 37 C 0 38 1 39 3 39 Z M 3 27 C 4 27 5 26 5 25 C 5 24 4 23 3 23 C 1 23 0 24 0 25 C 0 26 1 27 3 27 Z M 3 52 C 4 52 5 51 5 50 C 5 49 4 48 3 48 C 1 48 0 49 0 50 C 0 51 1 52 3 52 Z M 9 22 C 10 22 11 21 11 20 C 11 19 10 18 9 18 C 8 18 7 19 7 20 C 7 21 8 22 9 22 Z M 9 33 C 10 33 11 32 11 31 C 11 30 10 29 9 29 C 8 29 7 30 7 31 C 7 32 8 33 9 33 Z M 9 45 C 10 45 11 44 11 43 C 11 42 10 41 9 41 C 8 41 7 42 7 43 C 7 44 8 45 9 45 Z M 9 58 C 10 58 11 57 11 56 C 11 55 10 54 9 54 C 8 54 7 55 7 56 C 7 57 8 58 9 58 Z M 21 69 C 22 69 23 68 23 67 C 23 66 22 65 21 65 C 20 65 19 66 19 67 C 19 68 20 69 21 69 Z M 15 63 C 16 63 17 62 17 61 C 17 60 16 59 15 59 C 14 59 13 60 13 61 C 13 62 14 63 15 63 Z M 15 52 C 16 52 17 51 17 50 C 17 49 16 48 15 48 C 14 48 13 49 13 50 C 13 51 14 52 15 52 Z M 15 39 C 16 39 17 38 17 37 C 17 36 16 35 15 35 C 14 35 13 36 13 37 C 13 38 14 39 15 39 Z M 15 27 C 16 27 17 26 17 25 C 17 24 16 23 15 23 C 14 23 13 24 13 25 C 13 26 14 27 15 27 Z M 21 33 C 22 33 23 32 23 31 C 23 30 22 29 21 29 C 20 29 19 30 19 31 C 19 32 20 33 21 33 Z M 21 45 C 22 45 23 44 23 43 C 23 42 22 41 21 41 C 20 41 19 42 19 43 C 19 44 20 45 21 45 Z M 21 57 C 22 57 23 56 23 55 C 23 54 22 53 21 53 C 20 53 19 54 19 55 C 19 56 20 57 21 57 Z M 26 63 C 27 63 28 62 28 61 C 28 60 27 59 26 59 C 25 59 24 60 24 61 C 24 62 25 63 26 63 Z M 26 51 C 27 51 28 50 28 49 C 28 48 27 47 26 47 C 25 47 24 48 24 49 C 24 50 25 51 26 51 Z M 26 39 C 27 39 28 38 28 37 C 28 36 27 35 26 35 C 25 35 24 36 24 37 C 24 38 25 39 26 39 Z M 32 45 C 33 45 34 44 34 43 C 34 42 33 41 32 41 C 31 41 30 42 30 43 C 30 44 31 45 32 45 Z M 32 58 C 33 58 34 57 34 56 C 34 55 33 54 32 54 C 31 54 30 55 30 56 C 30 57 31 58 32 58 Z M 32 69 C 33 69 34 68 34 67 C 34 66 33 65 32 65 C 31 65 30 66 30 67 C 30 68 31 69 32 69 Z M 38 75 C 39 75 40 74 40 73 C 40 72 39 71 38 71 C 37 71 36 72 36 73 C 36 74 37 75 38 75 Z M 38 64 C 39 64 40 63 40 62 C 40 61 39 60 38 60 C 37 60 36 61 36 62 C 36 63 37 64 38 64 Z M 38 52 C 39 52 40 51 40 50 C 40 49 39 48 38 48 C 37 48 36 49 36 50 C 36 51 37 52 38 52 Z M 44 45 C 45 45 46 44 46 43 C 46 42 45 41 44 41 C 43 41 42 42 42 43 C 42 44 43 45 44 45 Z M 38 39 C 39 39 40 38 40 37 C 40 36 39 35 38 35 C 37 35 36 36 36 37 C 36 38 37 39 38 39 Z M 51 52 C 52 52 53 51 53 50 C 53 49 52 48 51 48 C 50 48 49 49 49 50 C 49 51 50 52 51 52 Z M 44 58 C 45 58 46 57 46 56 C 46 55 45 54 44 54 C 43 54 42 55 42 56 C 42 57 43 58 44 58 Z M 51 63 C 52 63 53 62 53 61 C 53 60 52 59 51 59 C 50 59 49 60 49 61 C 49 62 50 63 51 63 Z M 44 69 C 45 69 46 68 46 67 C 46 66 45 65 44 65 C 43 65 42 66 42 67 C 42 68 43 69 44 69 Z M 51 75 C 52 75 53 74 53 73 C 53 72 52 71 51 71 C 50 71 49 72 49 73 C 49 74 50 75 51 75 Z M 57 81 C 58 81 59 80 59 79 C 59 78 58 77 57 77 C 56 77 55 78 55 79 C 55 80 56 81 57 81 Z M 57 69 C 58 69 59 68 59 67 C 59 66 58 65 57 65 C 56 65 55 66 55 67 C 55 68 56 69 57 69 Z M 57 58 C 58 58 59 57 59 56 C 59 55 58 54 57 54 C 56 54 55 55 55 56 C 55 57 56 58 57 58 Z M 128 57 C 129 57 130 56 130 55 C 130 54 129 53 128 53 C 127 53 126 54 126 55 C 126 56 127 57 128 57 Z M 128 69 C 129 69 130 68 130 67 C 130 66 129 65 128 65 C 127 65 126 66 126 67 C 126 68 127 69 128 69 Z M 128 81 C 129 81 130 80 130 79 C 130 78 129 77 128 77 C 127 77 126 78 126 79 C 126 80 127 81 128 81 Z M 133 75 C 134 75 135 74 135 73 C 135 72 134 71 133 71 C 132 71 131 72 131 73 C 131 74 132 75 133 75 Z M 133 63 C 134 63 135 62 135 61 C 135 60 134 59 133 59 C 132 59 131 60 131 61 C 131 62 132 63 133 63 Z M 133 51 C 134 51 135 50 135 49 C 135 48 134 47 133 47 C 132 47 131 48 131 49 C 131 50 132 51 133 51 Z M 139 46 C 140 46 141 45 141 44 C 141 42 140 41 139 41 C 138 41 137 42 137 44 C 137 45 138 46 139 46 Z M 152 46 C 153 46 154 45 154 44 C 154 42 153 41 152 41 C 151 41 150 42 150 44 C 150 45 151 46 152 46 Z M 164 46 C 165 46 166 45 166 44 C 166 42 165 41 164 41 C 163 41 162 42 162 44 C 162 45 163 46 164 46 Z M 176 46 C 177 46 178 45 178 44 C 178 42 177 41 176 41 C 175 41 174 42 174 44 C 174 45 175 46 176 46 Z M 139 57 C 140 57 141 56 141 55 C 141 54 140 53 139 53 C 138 53 137 54 137 55 C 137 56 138 57 139 57 Z M 139 69 C 140 69 141 68 141 67 C 141 66 140 65 139 65 C 138 65 137 66 137 67 C 137 68 138 69 139 69 Z M 152 69 C 153 69 154 68 154 67 C 154 66 153 65 152 65 C 151 65 150 66 150 67 C 150 68 151 69 152 69 Z M 164 69 C 165 69 166 68 166 67 C 166 66 165 65 164 65 C 163 65 162 66 162 67 C 162 68 163 69 164 69 Z M 158 64 C 159 64 160 63 160 62 C 160 61 159 60 158 60 C 157 60 156 61 156 62 C 156 63 157 64 158 64 Z M 152 58 C 153 58 154 57 154 56 C 154 55 153 54 152 54 C 151 54 150 55 150 56 C 150 57 151 58 152 58 Z M 158 52 C 159 52 160 51 160 50 C 160 49 159 48 158 48 C 157 48 156 49 156 50 C 156 51 157 52 158 52 Z M 164 58 C 165 58 166 57 166 56 C 166 55 165 54 164 54 C 163 54 162 55 162 56 C 162 57 163 58 164 58 Z M 170 64 C 171 64 172 63 172 62 C 172 61 171 60 170 60 C 169 60 168 61 168 62 C 168 63 169 64 170 64 Z M 170 52 C 171 52 172 51 172 50 C 172 49 171 48 170 48 C 169 48 168 49 168 50 C 168 51 169 52 170 52 Z M 158 39 C 159 39 160 38 160 37 C 160 36 159 35 158 35 C 157 35 156 36 156 37 C 156 38 157 39 158 39 Z M 152 33 C 153 33 154 32 154 31 C 154 30 153 29 152 29 C 151 29 150 30 150 31 C 150 32 151 33 152 33 Z M 158 28 C 159 28 160 27 160 26 C 160 25 159 24 158 24 C 157 24 156 25 156 26 C 156 27 157 28 158 28 Z M 164 33 C 165 33 166 32 166 31 C 166 30 165 29 164 29 C 163 29 162 30 162 31 C 162 32 163 33 164 33 Z M 164 22 C 165 22 166 21 166 20 C 166 19 165 18 164 18 C 163 18 162 19 162 20 C 162 21 163 22 164 22 Z M 170 39 C 171 39 172 38 172 37 C 172 36 171 35 170 35 C 169 35 168 36 168 37 C 168 38 169 39 170 39 Z M 176 58 C 177 58 178 57 178 56 C 178 55 177 54 176 54 C 175 54 174 55 174 56 C 174 57 175 58 176 58 Z M 181 51 C 182 51 183 50 183 49 C 183 48 182 47 181 47 C 180 47 179 48 179 49 C 179 50 180 51 181 51 Z M 181 39 C 182 39 183 38 183 37 C 183 36 182 35 181 35 C 180 35 179 36 179 37 C 179 38 180 39 181 39 Z M 176 33 C 177 33 178 32 178 31 C 178 30 177 29 176 29 C 175 29 174 30 174 31 C 174 32 175 33 176 33 Z M 181 28 C 182 28 183 27 183 26 C 183 25 182 24 181 24 C 180 24 179 25 179 26 C 179 27 180 28 181 28 Z M 176 21 C 177 21 178 20 178 19 C 178 18 177 17 176 17 C 175 17 174 18 174 19 C 174 20 175 21 176 21 Z M 182 15 C 183 15 184 14 184 13 C 184 12 183 11 182 11 C 181 11 180 12 180 13 C 180 14 181 15 182 15 Z M 170 28 C 171 28 172 27 172 26 C 172 25 171 24 170 24 C 169 24 168 25 168 26 C 168 27 169 28 170 28 Z M 170 16 C 171 16 172 15 172 14 C 172 13 171 12 170 12 C 169 12 168 13 168 14 C 168 15 169 16 170 16 Z M 176 10 C 177 10 178 9 178 8 C 178 7 177 6 176 6 C 175 6 174 7 174 8 C 174 9 175 10 176 10 Z M 182 3 C 182 3 183 2 183 2 C 183 1 182 0 182 0 C 181 0 180 1 180 2 C 180 2 181 3 182 3 Z M 146 75 C 147 75 148 74 148 73 C 148 72 147 71 146 71 C 144 71 143 72 143 73 C 143 74 144 75 146 75 Z M 146 63 C 147 63 148 62 148 61 C 148 60 147 59 146 59 C 144 59 143 60 143 61 C 143 62 144 63 146 63 Z M 146 52 C 147 52 148 51 148 50 C 148 49 147 48 146 48 C 144 48 143 49 143 50 C 143 51 144 52 146 52 Z M 146 39 C 147 39 148 38 148 37 C 148 36 147 35 146 35 C 144 35 143 36 143 37 C 143 38 144 39 146 39 Z" id="id-male-27_eye_shields-41">
</path >
</g >
</g >
<defs >
</defs >
<path d="M 1202 1685 C 1201 1683 1198 1681 1197 1679 C 1196 1678 1196 1676 1196 1675 C 1196 1674 1194 1672 1193 1671 C 1193 1670 1192 1669 1192 1668 C 1192 1667 1195 1666 1196 1665 C 1198 1663 1200 1661 1202 1658 C 1207 1649 1216 1643 1226 1641 C 1240 1638 1254 1644 1263 1655 C 1264 1657 1266 1660 1265 1663 C 1265 1664 1263 1665 1263 1666 C 1263 1667 1265 1669 1266 1670 C 1271 1673 1269 1673 1270 1678 C 1270 1682 1274 1681 1274 1685 L 1274 1685 L 1274 1686 C 1274 1686 1274 1686 1274 1686 C 1273 1688 1271 1688 1270 1689 C 1268 1691 1267 1692 1266 1694 C 1263 1698 1261 1700 1258 1704 C 1242 1719 1214 1716 1202 1696 C 1201 1695 1199 1691 1200 1689 C 1201 1688 1202 1688 1202 1685 L 1202 1685 Z M 1268 1685 C 1267 1682 1265 1682 1264 1679 C 1264 1678 1264 1677 1264 1676 C 1264 1675 1264 1674 1264 1674 C 1264 1673 1263 1672 1262 1672 C 1260 1670 1256 1669 1258 1665 C 1259 1662 1261 1662 1258 1658 C 1246 1643 1223 1641 1210 1656 C 1209 1658 1208 1659 1207 1661 C 1205 1663 1202 1665 1200 1667 C 1197 1669 1197 1669 1200 1671 C 1203 1675 1201 1676 1203 1679 C 1204 1681 1207 1682 1208 1685 L 1208 1685 L 1208 1685 C 1207 1690 1203 1688 1207 1694 C 1216 1706 1232 1711 1246 1705 C 1249 1704 1252 1702 1255 1699 C 1257 1697 1259 1694 1261 1691 C 1263 1689 1267 1687 1268 1685 L 1268 1685 Z M 1254 1685 C 1254 1682 1252 1682 1252 1680 C 1251 1677 1251 1673 1255 1674 C 1258 1675 1256 1678 1258 1680 C 1259 1682 1260 1682 1260 1685 L 1261 1686 L 1260 1686 C 1259 1688 1257 1689 1255 1690 C 1248 1694 1246 1699 1237 1700 C 1231 1701 1225 1700 1221 1697 C 1219 1696 1216 1694 1215 1692 C 1213 1689 1216 1688 1216 1685 C 1215 1683 1212 1682 1211 1680 C 1208 1677 1210 1673 1214 1674 L 1214 1674 L 1215 1675 C 1216 1678 1215 1679 1217 1681 C 1219 1682 1222 1683 1222 1686 C 1222 1689 1220 1690 1224 1692 C 1230 1696 1238 1695 1244 1691 C 1246 1690 1253 1687 1254 1685 L 1254 1685 Z M 1244 1674 C 1242 1675 1239 1674 1237 1673 C 1236 1672 1233 1670 1232 1669 C 1231 1669 1231 1668 1231 1667 C 1231 1666 1233 1665 1234 1664 C 1235 1662 1237 1661 1238 1659 C 1242 1652 1249 1658 1247 1663 C 1246 1665 1243 1666 1243 1668 C 1243 1670 1246 1671 1244 1674 L 1244 1674 L 1244 1674 L 1244 1674 Z M 1222 1656 C 1224 1655 1227 1656 1228 1659 C 1229 1660 1229 1661 1229 1663 C 1228 1665 1223 1666 1225 1669 C 1225 1670 1226 1670 1226 1671 C 1227 1674 1226 1675 1223 1675 C 1222 1675 1219 1673 1218 1672 C 1216 1671 1212 1669 1214 1666 C 1215 1664 1217 1664 1218 1662 C 1219 1660 1220 1658 1222 1656 L 1222 1656 Z" fill="#343d53" opacity="0.297" id="id-icons-Leftover-0">
</path >
</svg>