<?xml version="1.0" encoding="UTF-8"?>
<svg width="1320px" height="1760px" viewBox="0 0 1320 1760" version="1.1" xmlns="http://www.w3.org/2000/svg" xmlns:xlink="http://www.w3.org/1999/xlink">
<defs >
<linearGradient x1="10%" y1="9%" x2="81%" y2="74%" id="id-bg-8-Artboard-0">
<stop stop-color="#ffffff" offset="0%">
</stop >
<stop stop-color="#cfcfcf" offset="100%">
</stop >
</linearGradient >
<linearGradient x1="0%" y1="50%" x2="100%" y2="50%" id="id-bg-8-Artboard-1">
<stop stop-color="#f10275" offset="0%">
</stop >
<stop stop-color="#8a23ed" offset="24%">
</stop >
<stop stop-color="#00edcf" offset="51%">
</stop >
<stop stop-color="#ddff3b" offset="76%">
</stop >
<stop stop-color="#ff4c16" offset="100%">
</stop >
</linearGradient >
</defs >
<g stroke="none" stroke-width="1" fill="none" id="id-bg-8-Artboard-2" fill-rule="evenodd">
<g id="id-bg-8-Artboard-3">
<g id="id-bg-8-Artboard-4">
<g id="id-bg-8-Artboard-5">
<rect fill="url(#id-bg-8-Artboard-0)" width="1320" height="1760" x="0" y="0" id="id-bg-8-Artboard-6">
</rect >
<g transform="translate(54,314)" fill="url(#id-bg-8-Artboard-1)" id="id-bg-8-Artboard-7" fill-rule="nonzero">
<path d="M 596 769 C 432 778 280 770 169 745 C 56 720 -7 680 -4 632 C -1 584 67 537 183 499 C 299 460 453 433 616 423 C 780 414 932 423 1043 447 C 1156 472 1219 512 1216 560 C 1213 608 1145 655 1028 694 C 913 732 759 759 596 769 Z M 595 761 C 758 751 911 724 1026 686 C 1139 648 1206 603 1208 560 C 1211 517 1151 479 1041 455 C 931 431 780 422 617 431 C 454 441 301 468 186 506 C 73 544 6 589 4 632 C 1 675 61 713 171 737 C 281 762 432 770 595 761 Z" transform="translate(606,596) rotate(-328) translate(-606,-596)" id="id-bg-8-Artboard-8">
</path >
<path d="M 596 641 C 459 649 329 644 225 627 C 78 604 -8 560 -4 504 C -1 456 67 409 183 371 C 299 332 453 305 616 295 C 780 286 932 295 1043 319 C 1156 344 1219 384 1216 432 C 1212 494 1098 555 918 596 C 822 618 711 634 596 641 Z M 595 633 C 710 626 820 610 916 588 C 1093 548 1205 488 1208 432 C 1211 389 1151 351 1041 327 C 931 303 780 294 617 303 C 454 313 301 340 186 378 C 73 416 6 461 4 504 C 0 554 83 597 226 619 C 330 636 459 641 595 633 Z" transform="translate(606,468) rotate(-328) translate(-606,-468)" id="id-bg-8-Artboard-8">
</path >
</g >
</g >
</g >
<rect fill="#000000" width="37" height="134" x="0" y="0" id="id-bg-8-Artboard-6">
</rect >
<rect fill="#000000" width="37" height="134" x="0" y="813" id="id-bg-8-Artboard-6">
</rect >
<rect fill="#000000" width="37" height="134" x="0" y="1626" id="id-bg-8-Artboard-6">
</rect >
</g >
</g >
<defs >
<linearGradient x1="100%" y1="46%" x2="12%" y2="47%" id="id-female-6.6_base_2-0">
<stop stop-color="#723722" offset="0%">
</stop >
<stop stop-color="#96513b" offset="21%">
</stop >
<stop stop-color="#9a6555" offset="46%">
</stop >
<stop stop-color="#9f5e49" offset="80%">
</stop >
<stop stop-color="#93523a" offset="100%">
</stop >
</linearGradient >
<linearGradient x1="53%" y1="81%" x2="50%" y2="21%" id="id-female-6.6_base_2-1">
<stop stop-color="#7b3f37" offset="0%">
</stop >
<stop stop-color="#7d4538" offset="24%">
</stop >
<stop stop-color="#834b33" offset="100%">
</stop >
</linearGradient >
<linearGradient x1="52%" y1="-4%" x2="46%" y2="70%" id="id-female-6.6_base_2-2">
<stop stop-color="#834239" offset="0%">
</stop >
<stop stop-color="#5c3029" offset="100%">
</stop >
</linearGradient >
<linearGradient x1="46%" y1="43%" x2="15%" y2="43%" id="id-female-6.6_base_2-3">
<stop stop-color="#924833" offset="0%">
</stop >
<stop stop-color="#683011" offset="100%">
</stop >
</linearGradient >
<linearGradient x1="54%" y1="37%" x2="12%" y2="72%" id="id-female-6.6_base_2-4">
<stop stop-color="#1e0404" offset="0%">
</stop >
<stop stop-color="#34100e" offset="100%">
</stop >
</linearGradient >
<linearGradient x1="40%" y1="14%" x2="61%" y2="85%" id="id-female-6.6_base_2-5">
<stop stop-color="#461a1f" offset="0%">
</stop >
<stop stop-color="#5b2f2c" offset="100%">
</stop >
</linearGradient >
<linearGradient x1="27%" y1="47%" x2="91%" y2="49%" id="id-female-6.6_base_2-6">
<stop stop-color="#784730" offset="0%">
</stop >
<stop stop-color="#be8bc7" offset="100%">
</stop >
</linearGradient >
<linearGradient x1="47%" y1="60%" x2="49%" y2="79%" id="id-female-6.6_base_2-7">
<stop stop-color="#7f4235" offset="0%">
</stop >
<stop stop-color="#894241" offset="60%">
</stop >
<stop stop-color="#9b595a" offset="100%">
</stop >
</linearGradient >
<linearGradient x1="29%" y1="56%" x2="69%" y2="53%" id="id-female-6.6_base_2-8">
<stop stop-color="#804733" offset="0%">
</stop >
<stop stop-color="#743a2c" offset="8%">
</stop >
<stop stop-color="#7c3d34" offset="18%">
</stop >
<stop stop-color="#5d2920" offset="38%">
</stop >
<stop stop-color="#5b2725" offset="65%">
</stop >
<stop stop-color="#7e4037" offset="81%">
</stop >
<stop stop-color="#4c1b1f" offset="100%">
</stop >
</linearGradient >
<linearGradient x1="47%" y1="45%" x2="54%" y2="46%" id="id-female-6.6_base_2-9">
<stop stop-color="#7a3932" offset="0%">
</stop >
<stop stop-color="#763b2f" offset="62%">
</stop >
<stop stop-color="#5f2c1f" offset="77%">
</stop >
<stop stop-color="#794634" offset="100%">
</stop >
</linearGradient >
<linearGradient x1="51%" y1="7%" x2="50%" y2="100%" id="id-female-6.6_base_2-10">
<stop stop-color="#763d2d" offset="0%">
</stop >
<stop stop-color="#914e49" offset="75%">
</stop >
<stop stop-color="#7b3c3b" offset="100%">
</stop >
</linearGradient >
<linearGradient x1="51%" y1="11%" x2="49%" y2="93%" id="id-female-6.6_base_2-11">
<stop stop-color="#87523f" offset="0%">
</stop >
<stop stop-color="#80482f" offset="73%">
</stop >
<stop stop-color="#865037" offset="100%">
</stop >
</linearGradient >
<linearGradient x1="51%" y1="-5%" x2="48%" y2="96%" id="id-female-6.6_base_2-12">
<stop stop-color="#7d452e" offset="0%">
</stop >
<stop stop-color="#6c3821" offset="100%">
</stop >
</linearGradient >
<linearGradient x1="50%" y1="19%" x2="50%" y2="69%" id="id-female-6.6_base_2-13">
<stop stop-color="#50260a" offset="0%">
</stop >
<stop stop-color="#291000" offset="45%">
</stop >
<stop stop-color="#4c2106" offset="100%">
</stop >
</linearGradient >
<linearGradient x1="46%" y1="74%" x2="39%" y2="35%" id="id-female-6.6_base_2-14">
<stop stop-color="#492117" offset="0%">
</stop >
<stop stop-color="#64311e" offset="51%">
</stop >
<stop stop-color="#713121" offset="100%">
</stop >
</linearGradient >
<linearGradient x1="46%" y1="16%" x2="49%" y2="82%" id="id-female-6.6_base_2-15">
<stop stop-color="#512416" offset="0%" stop-opacity="0.186">
</stop >
<stop stop-color="#482015" offset="100%">
</stop >
</linearGradient >
<linearGradient x1="41%" y1="19%" x2="50%" y2="100%" id="id-female-6.6_base_2-16">
<stop stop-color="#5b2725" offset="0%">
</stop >
<stop stop-color="#50260a" offset="100%">
</stop >
</linearGradient >
<linearGradient x1="50%" y1="31%" x2="45%" y2="50%" id="id-female-6.6_base_2-17">
<stop stop-color="#68361d" offset="0%">
</stop >
<stop stop-color="#894c43" offset="100%">
</stop >
</linearGradient >
<linearGradient x1="51%" y1="22%" x2="50%" y2="100%" id="id-female-6.6_base_2-18">
<stop stop-color="#5d2126" offset="0%">
</stop >
<stop stop-color="#4f1c21" offset="100%">
</stop >
</linearGradient >
<linearGradient x1="49%" y1="0%" x2="50%" y2="100%" id="id-female-6.6_base_2-19">
<stop stop-color="#7a3f2e" offset="0%">
</stop >
<stop stop-color="#793f35" offset="100%">
</stop >
</linearGradient >
<linearGradient x1="44%" y1="15%" x2="50%" y2="100%" id="id-female-6.6_base_2-20">
<stop stop-color="#5b2c1f" offset="0%">
</stop >
<stop stop-color="#50281d" offset="100%">
</stop >
</linearGradient >
<linearGradient x1="52%" y1="21%" x2="49%" y2="83%" id="id-female-6.6_base_2-21">
<stop stop-color="#7f4534" offset="0%">
</stop >
<stop stop-color="#975549" offset="48%">
</stop >
<stop stop-color="#83453f" offset="100%">
</stop >
</linearGradient >
<linearGradient x1="85%" y1="60%" x2="15%" y2="60%" id="id-female-6.6_base_2-22">
<stop stop-color="#864a32" offset="0%">
</stop >
<stop stop-color="#5d2a11" offset="100%">
</stop >
</linearGradient >
<linearGradient x1="48%" y1="-20%" x2="59%" y2="91%" id="id-female-6.6_base_2-23">
<stop stop-color="#96533c" offset="0%">
</stop >
<stop stop-color="#5d2c12" offset="60%">
</stop >
<stop stop-color="#643418" offset="72%">
</stop >
<stop stop-color="#743e24" offset="100%">
</stop >
</linearGradient >
<linearGradient x1="55%" y1="48%" x2="46%" y2="33%" id="id-female-6.6_base_2-24">
<stop stop-color="#743f2a" offset="0%">
</stop >
<stop stop-color="#7e462e" offset="86%">
</stop >
<stop stop-color="#764228" offset="100%">
</stop >
</linearGradient >
<linearGradient x1="50%" y1="19%" x2="50%" y2="78%" id="id-female-6.6_base_2-25">
<stop stop-color="#401900" offset="0%">
</stop >
<stop stop-color="#522003" offset="50%">
</stop >
<stop stop-color="#371900" offset="100%">
</stop >
</linearGradient >
<linearGradient x1="50%" y1="10%" x2="50%" y2="43%" id="id-female-6.6_base_2-26">
<stop stop-color="#85462c" offset="0%">
</stop >
<stop stop-color="#602c13" offset="15%">
</stop >
<stop stop-color="#652d15" offset="68%">
</stop >
<stop stop-color="#592a10" offset="100%">
</stop >
</linearGradient >
<linearGradient x1="89%" y1="50%" x2="9%" y2="52%" id="id-female-6.6_base_2-27">
<stop stop-color="#401d02" offset="0%">
</stop >
<stop stop-color="#995734" offset="53%" stop-opacity="0.199">
</stop >
<stop stop-color="#5a2a10" offset="75%">
</stop >
<stop stop-color="#411900" offset="100%">
</stop >
</linearGradient >
<linearGradient x1="44%" y1="70%" x2="86%" y2="30%" id="id-female-6.6_base_2-28">
<stop stop-color="#9a5741" offset="0%">
</stop >
<stop stop-color="#9c6a5f" offset="100%">
</stop >
</linearGradient >
<linearGradient x1="19%" y1="86%" x2="73%" y2="32%" id="id-female-6.6_base_2-29">
<stop stop-color="#703010" offset="0%">
</stop >
<stop stop-color="#a66353" offset="40%">
</stop >
<stop stop-color="#ae745f" offset="100%">
</stop >
</linearGradient >
<linearGradient x1="35%" y1="94%" x2="47%" y2="12%" id="id-female-6.6_base_2-30">
<stop stop-color="#723c23" offset="0%">
</stop >
<stop stop-color="#966556" offset="40%">
</stop >
<stop stop-color="#ac715d" offset="46%">
</stop >
<stop stop-color="#a36655" offset="100%">
</stop >
</linearGradient >
<linearGradient x1="50%" y1="54%" x2="27%" y2="9%" id="id-female-6.6_base_2-31">
<stop stop-color="#ddab90" offset="0%">
</stop >
<stop stop-color="#ddab90" offset="100%" stop-opacity="0.078">
</stop >
</linearGradient >
<linearGradient x1="20%" y1="36%" x2="93%" y2="69%" id="id-female-6.6_base_2-32">
<stop stop-color="#a36150" offset="0%">
</stop >
<stop stop-color="#9d604e" offset="70%">
</stop >
<stop stop-color="#803a19" offset="100%">
</stop >
</linearGradient >
<linearGradient x1="36%" y1="84%" x2="25%" y2="44%" id="id-female-6.6_base_2-33">
<stop stop-color="#663d38" offset="0%" stop-opacity="0.509">
</stop >
<stop stop-color="#57260a" offset="35%" stop-opacity="0.675">
</stop >
<stop stop-color="#763217" offset="100%" stop-opacity="0">
</stop >
</linearGradient >
<linearGradient x1="63%" y1="95%" x2="43%" y2="20%" id="id-female-6.6_base_2-34">
<stop stop-color="#7c3c2b" offset="0%">
</stop >
<stop stop-color="#8a4b32" offset="46%">
</stop >
<stop stop-color="#88452f" offset="100%">
</stop >
</linearGradient >
<linearGradient x1="40%" y1="0%" x2="50%" y2="86%" id="id-female-6.6_base_2-35">
<stop stop-color="#804025" offset="0%">
</stop >
<stop stop-color="#955542" offset="100%">
</stop >
</linearGradient >
<linearGradient x1="50%" y1="0%" x2="50%" y2="92%" id="id-female-6.6_base_2-36">
<stop stop-color="#b56f5e" offset="0%">
</stop >
<stop stop-color="#8b4e35" offset="100%">
</stop >
</linearGradient >
<linearGradient x1="33%" y1="79%" x2="21%" y2="44%" id="id-female-6.6_base_2-37">
<stop stop-color="#936354" offset="0%">
</stop >
<stop stop-color="#633117" offset="28%">
</stop >
<stop stop-color="#763c17" offset="100%" stop-opacity="0">
</stop >
</linearGradient >
<linearGradient x1="4%" y1="47%" x2="92%" y2="45%" id="id-female-6.6_base_2-38">
<stop stop-color="#391108" offset="0%">
</stop >
<stop stop-color="#501a0f" offset="17%" stop-opacity="0.753">
</stop >
<stop stop-color="#6b3127" offset="48%" stop-opacity="0.386">
</stop >
<stop stop-color="#4a1c15" offset="78%" stop-opacity="0.762">
</stop >
<stop stop-color="#411610" offset="100%">
</stop >
</linearGradient >
<linearGradient x1="60%" y1="45%" x2="67%" y2="53%" id="id-female-6.6_base_2-39">
<stop stop-color="#a3716e" offset="0%">
</stop >
<stop stop-color="#cb93a9" offset="100%">
</stop >
</linearGradient >
<linearGradient x1="48%" y1="15%" x2="54%" y2="81%" id="id-female-6.6_base_2-40">
<stop stop-color="#8c4a35" offset="0%">
</stop >
<stop stop-color="#965850" offset="100%">
</stop >
</linearGradient >
<linearGradient x1="47%" y1="44%" x2="50%" y2="61%" id="id-female-6.6_base_2-41">
<stop stop-color="#3e0d06" offset="0%" stop-opacity="0.175">
</stop >
<stop stop-color="#33100b" offset="100%">
</stop >
</linearGradient >
<linearGradient x1="26%" y1="-7%" x2="50%" y2="96%" id="id-female-6.6_base_2-42">
<stop stop-color="#37373f" offset="0%">
</stop >
<stop stop-color="#19191d" offset="100%">
</stop >
</linearGradient >
<linearGradient x1="50%" y1="12%" x2="59%" y2="82%" id="id-female-6.6_base_2-43">
<stop stop-color="#252525" offset="0%">
</stop >
<stop stop-color="#101010" offset="100%">
</stop >
</linearGradient >
<linearGradient x1="25%" y1="-16%" x2="50%" y2="98%" id="id-female-6.6_base_2-44">
<stop stop-color="#37373f" offset="0%">
</stop >
<stop stop-color="#19191d" offset="100%">
</stop >
</linearGradient >
<linearGradient x1="75%" y1="39%" x2="50%" y2="93%" id="id-female-6.6_base_2-45">
<stop stop-color="#252525" offset="0%">
</stop >
<stop stop-color="#000000" offset="100%">
</stop >
</linearGradient >
</defs >
<g transform="translate(334,549)" id="id-female-6.6_base_2-46">
<polygon points="561 754 565 871 565 881 537 893 533 897 535 901 532 909 543 910 597 864" fill="#451f04" id="id-female-6.6_base_2-47">
</polygon >
<polygon points="537 282 539 246 535 195 529 158 522 137 484 118 440 111 212 111 188 113 157 123 121 139 111 186 108 221 109 290" fill="url(#id-female-6.6_base_2-0)" id="id-female-6.6_base_2-47">
</polygon >
<polygon points="467 393 474 506 503 589 537 672 556 728 561 754 546 794 552 851 551 861 552 874 556 885 567 882 568 866 570 860 570 843 571 834 576 843 576 859 579 864 573 874 571 884 544 903 541 916 582 901 597 864 607 852 600 821 597 716 589 695 582 655 569 523 544 425" fill="url(#id-female-6.6_base_2-1)" id="id-female-6.6_base_2-47">
</polygon >
<polygon points="546 794 552 851 551 861 552 874 556 885 567 882 568 866 570 860 570 843 571 834 576 843 576 859 579 864 573 874 571 884 544 903 541 916 582 901 597 864 583 871 588 855 573 815 561 823" fill="url(#id-female-6.6_base_2-2)" id="id-female-6.6_base_2-47">
</polygon >
<polygon points="552 851 551 861 552 874 556 887 567 884 568 866 570 860 558 860" fill="#552b28" id="id-female-6.6_base_2-47">
</polygon >
<polygon points="544 906 541 916 582 901 571 889" fill="#512926" id="id-female-6.6_base_2-47">
</polygon >
<polygon points="561 754 548 789 566 819 586 806" fill="#66342d" id="id-female-6.6_base_2-47">
</polygon >
<polygon points="486 648 477 599 453 529 440 504 437 490 439 460 449 402 456 340 188 343 198 411 202 493 162 596 153 638 266 693 319 721 386 693" fill="url(#id-female-6.6_base_2-3)" id="id-female-6.6_base_2-47">
</polygon >
<polygon points="486 648 477 599 453 529 440 504 437 490 439 460 449 402 456 340 296 353 376 634" fill="#804025" id="id-female-6.6_base_2-47">
</polygon >
<g transform="translate(188,0)" id="id-female-6.6_base_2-56">
<polygon points="274 114 253 111 232 100 201 76 188 58 184 1 93 1 88 64 25 111 1 113 103 123 121 135 134 138 149 121 161 117 187 119 225 114" fill="#83442e" id="id-female-6.6_base_2-47">
</polygon >
<polygon points="201 76 188 58 185 12 175 57 155 111 185 73" fill="#a06e95" id="id-female-6.6_base_2-47">
</polygon >
<polygon points="149 1 93 1 88 64 108 126 121 135 133 138" fill="#6e361f" id="id-female-6.6_base_2-47">
</polygon >
<polygon points="116 102 120 113 118 115 136 135 150 119 164 71 125 108" fill="#5a2f17" id="id-female-6.6_base_2-60">
</polygon >
<polygon points="121 127 133 138 145 124" fill="#431903" id="id-female-6.6_base_2-61">
</polygon >
<polygon points="136 98 164 71 175 57 186 17 134 51" fill="#68291c" id="id-female-6.6_base_2-62">
</polygon >
<polygon points="97 96 116 80 164 60 178 48 186 17 184 1 93 1 88 64 45 96" fill="#5e2519" opacity="0.654" id="id-female-6.6_base_2-47">
</polygon >
<polygon points="186 17 184 1 93 1 88 64 45 96 66 96" fill="url(#id-female-6.6_base_2-4)" opacity="0.467" id="id-female-6.6_base_2-47">
</polygon >
<polygon points="123 58 176 23 186 17 184 1 93 1 91 22 108 55" fill="#1e0404" opacity="0.434" id="id-female-6.6_base_2-47">
</polygon >
</g >
<polygon points="41 844 33 856 36 895 64 915 84 911 83 903 71 898 72 892 63 884 52 849" fill="url(#id-female-6.6_base_2-5)" id="id-female-6.6_base_2-47">
</polygon >
<polygon points="315 152 285 173 320 188 357 166" fill="#aa6d58" id="id-female-6.6_base_2-67">
</polygon >
<polygon points="327 150 370 130 342 127" fill="#7d452b" id="id-female-6.6_base_2-68">
</polygon >
<polygon points="301 142 303 148 243 131 240 119 276 119" fill="#7b442b" id="id-female-6.6_base_2-69">
</polygon >
<polygon points="159 149 206 123 269 123 303 144 297 118 188 113 157 123 121 139" fill="url(#id-female-6.6_base_2-6)" id="id-female-6.6_base_2-47">
</polygon >
<polygon points="157 123 121 139 153 167 196 134" fill="#be8ca3" id="id-female-6.6_base_2-47">
</polygon >
<polygon points="89 584 77 541 62 551 45 658 34 712 25 741 25 762 10 817 0 845 14 870 25 901 58 919 72 919 69 913 61 905 50 899 37 874 37 852 43 845 52 855 50 887 56 901 64 905 66 901 66 882 72 836 72 800 69 781 64 773 66 735 85 684 121 599 162 510" fill="url(#id-female-6.6_base_2-7)" id="id-female-6.6_base_2-47">
</polygon >
<polygon points="89 584 77 541 62 551 45 658 48 715 121 599 162 510" fill="#7a432a" id="id-female-6.6_base_2-47">
</polygon >
<polygon points="55 843 45 827 37 848 17 852 8 836 5 851 0 845 14 870 25 901 58 919 72 919 69 913 61 905 50 899 37 874 37 852 43 845 52 855 50 887 56 901 64 905 66 901 66 882 72 836" fill="#743e32" id="id-female-6.6_base_2-47">
</polygon >
<polygon points="53 882 52 892 56 901 64 905 66 901 66 882 67 876" fill="#6b362f" id="id-female-6.6_base_2-47">
</polygon >
<polygon points="25 901 58 919 72 919 62 909 37 895" fill="#6b362f" id="id-female-6.6_base_2-47">
</polygon >
<polygon points="160 467 145 488 108 578 45 777 48 797 64 773 66 735 85 684 121 599 162 510" fill="#643317" id="id-female-6.6_base_2-47">
</polygon >
<polygon points="169 1211 277 1211 282 1183 281 1150 284 1127 286 1114 285 1063 293 972 306 866 311 792 309 768 323 771 337 768 333 817 333 855 339 924 346 1008 348 1113 351 1130 353 1176 361 1211 461 1211 458 1191 456 1170 460 1133 461 1082 505 905 516 839 518 826 512 762 503 706 486 648 482 629 386 690 318 718 266 690 184 629 153 637 132 731 119 781 118 813 123 862 131 916 166 1094 176 1179" fill="url(#id-female-6.6_base_2-8)" id="id-female-6.6_base_2-47">
</polygon >
<polygon points="463 664 416 771 400 819 392 1125 359 1178 398 1204 441 1153 461 1082 505 905 516 839 518 826 515 789 490 714" fill="url(#id-female-6.6_base_2-9)" id="id-female-6.6_base_2-47">
</polygon >
<polygon points="422 1160 395 1199 365 1171 401 1149 384 1120 391 983 411 786 416 771 448 697 454 1013 445 1116 407 1149" fill="url(#id-female-6.6_base_2-10)" id="id-female-6.6_base_2-80">
</polygon >
<polygon points="121 139 111 186 108 221 109 290 96 438 89 464 69 510 89 585 162 510 167 425 162 241" fill="url(#id-female-6.6_base_2-11)" id="id-female-6.6_base_2-47">
</polygon >
<polygon points="101 466 103 488 106 510 160 447 179 359 164 232 187 184 186 179 132 181 161 234 161 321 149 376 151 384 123 461 114 466" fill="url(#id-female-6.6_base_2-12)" id="id-female-6.6_base_2-82">
</polygon >
<polygon points="96 438 89 464 69 510 51 621 101 520 96 476" fill="#82566b" id="id-female-6.6_base_2-47">
</polygon >
<polygon points="96 451 128 365 134 316 121 139 111 186 108 221 109 290 96 438" fill="#643317" id="id-female-6.6_base_2-47">
</polygon >
<polygon points="184 241 177 248 162 225 138 289 161 321 170 375 161 420 151 411 162 510 167 425 188 343" fill="url(#id-female-6.6_base_2-13)" id="id-female-6.6_base_2-47">
</polygon >
<polygon points="284 1127 286 1114 285 1063 293 972 306 866 311 792 309 768 323 771 337 768 333 817 333 855 339 924 346 1008 375 889 416 771 463 664 490 714 515 790 512 762 503 706 486 648 477 599 471 583 420 650 316 720 201 654 244 742 264 824 275 994" fill="url(#id-female-6.6_base_2-14)" id="id-female-6.6_base_2-47">
</polygon >
<polygon points="298 930 306 866 311 792 309 768 323 771 337 768 333 817 333 855 336 894 347 826 360 784 378 733 388 687 321 739 254 687 267 736 291 821" fill="url(#id-female-6.6_base_2-15)" id="id-female-6.6_base_2-47">
</polygon >
<polygon points="348 1093 348 1113 351 1130 353 1176 361 1211 461 1211 439 1155 422 1136 403 1148 429 1168 400 1202 370 1170 382 1125" fill="url(#id-female-6.6_base_2-16)" id="id-female-6.6_base_2-47">
</polygon >
<polygon points="10 855 8 836 5 851 0 845 14 870" fill="#6d342e" id="id-female-6.6_base_2-47">
</polygon >
<polygon points="520 500 516 520 544 629 474 500 490 399" fill="url(#id-female-6.6_base_2-17)" id="id-female-6.6_base_2-90">
</polygon >
<polygon points="461 1211 458 1191 456 1170 460 1133 461 1082 439 1155 450 1211" fill="url(#id-female-6.6_base_2-18)" id="id-female-6.6_base_2-47">
</polygon >
<polygon points="220 1149 259 1115 240 1063 232 973 266 819 240 713 201 661 158 650 201 784 183 925 170 1083" fill="url(#id-female-6.6_base_2-19)" id="id-female-6.6_base_2-92">
</polygon >
<polygon points="169 1211 277 1211 282 1183 281 1150 284 1127 286 1114 286 1098 226 1211 207 1211 196 1121 173 1078 150 1014 166 1094 176 1179" fill="url(#id-female-6.6_base_2-20)" id="id-female-6.6_base_2-47">
</polygon >
<polygon points="173 1078 183 924 150 1014" fill="#6b352c" id="id-female-6.6_base_2-47">
</polygon >
<polygon points="169 1211 239 1211 230 1196 204 1175 173 1150 176 1179" fill="#521e24" opacity="0.574" id="id-female-6.6_base_2-47">
</polygon >
<polygon points="221 1130 240 1097 224 1063 224 983 240 804 217 698 190 668 212 771 212 910 190 998 181 1094" fill="url(#id-female-6.6_base_2-21)" id="id-female-6.6_base_2-92">
</polygon >
<polygon points="217 795 221 692 200 667 169 658 200 737" fill="#9c5f46" id="id-female-6.6_base_2-97">
</polygon >
<polygon points="511 476 492 419 481 447 484 356 521 274 533 417" fill="url(#id-female-6.6_base_2-22)" id="id-female-6.6_base_2-98">
</polygon >
<polygon points="569 523 544 425 542 346 537 282 539 246 535 195 529 158 522 137 494 161 419 158 471 211 516 290 525 411 511 477 518 507 535 462 562 543" fill="url(#id-female-6.6_base_2-23)" id="id-female-6.6_base_2-47">
</polygon >
<polygon points="486 389 533 243 501 167 464 207 451 247 463 265" fill="url(#id-female-6.6_base_2-24)" id="id-female-6.6_base_2-100">
</polygon >
<polygon points="473 490 474 506 503 589 537 672 556 728 561 754 567 712 543 623" fill="#582a0f" id="id-female-6.6_base_2-47">
</polygon >
<polygon points="460 328 466 378 474 506 490 425 486 392 469 274 479 230 461 260 454 251" fill="url(#id-female-6.6_base_2-25)" id="id-female-6.6_base_2-47">
</polygon >
<polygon points="440 504 437 490 439 460 449 402 456 340 458 328 325 282 188 343 198 411 202 493 162 596 157 621 161 633 169 599 173 570 204 506 202 458 217 402 286 365 321 352 353 360 422 402 431 493 437 520" fill="url(#id-female-6.6_base_2-26)" id="id-female-6.6_base_2-47">
</polygon >
<polygon points="451 385 456 340 458 328 364 340 330 308 268 343 188 343 194 379 262 368 312 343 335 340 381 368" fill="url(#id-female-6.6_base_2-27)" id="id-female-6.6_base_2-47">
</polygon >
<polygon points="286 328 306 310 330 274 453 252 464 205 421 156 317 204 219 165 210 154 188 180" fill="url(#id-female-6.6_base_2-28)" id="id-female-6.6_base_2-105">
</polygon >
<path d="M 422 195 L 405 190 C 377 190 357 198 343 214 C 329 230 322 250 323 276 C 324 301 331 320 345 333 C 365 351 384 356 405 356 C 425 356 444 347 450 342 C 454 339 457 335 460 328 C 463 323 466 317 467 308 C 469 294 466 276 457 254 L 422 195 Z" fill="url(#id-female-6.6_base_2-29)" id="id-female-6.6_base_2-106">
</path >
<path d="M 422 195 L 417 175 C 386 188 366 196 358 201 C 355 203 351 206 348 208 C 348 209 381 253 448 342 C 454 338 459 332 463 324 C 469 310 469 301 469 293 C 469 287 465 275 459 257 L 422 195 Z" fill="url(#id-female-6.6_base_2-30)" id="id-female-6.6_base_2-106">
</path >
<path d="M 375 226 C 338 253 343 276 343 284 C 343 291 353 319 371 335 C 379 342 422 349 447 331 C 468 316 472 294 458 265 C 427 221 400 208 375 226 Z" fill="url(#id-female-6.6_base_2-31)" opacity="0.282" id="id-female-6.6_base_2-106">
</path >
<path d="M 272 205 C 260 199 243 200 221 209 C 187 227 169 258 168 303 C 167 319 184 342 190 346 C 197 351 212 356 239 353 C 257 351 272 344 284 333 C 303 312 312 288 309 260 C 305 217 291 214 272 205 Z" fill="url(#id-female-6.6_base_2-32)" id="id-female-6.6_base_2-109">
</path >
<path d="M 340 285 C 333 252 328 240 326 248 C 324 254 323 263 323 276 C 324 301 331 320 345 333 C 365 351 382 356 404 356 C 425 356 444 347 450 342 C 456 337 465 325 468 308 C 472 290 465 276 463 268 C 461 263 460 259 458 255 L 442 290 L 399 304 L 366 300 L 340 285 Z" fill="url(#id-female-6.6_base_2-33)" id="id-female-6.6_base_2-106">
</path >
<path d="M 153 637 L 149 654 L 132 731 L 130 739 C 133 730 135 723 137 718 C 140 709 147 691 149 680 C 151 671 155 655 161 633 L 172 570 L 162 596 L 153 637 Z" fill="#7d362e" id="id-female-6.6_base_2-47">
</path >
<path d="M 259 203 C 254 199 240 185 217 163 L 210 153 L 186 180 C 192 211 192 231 186 239 C 175 256 168 277 168 303 C 168 324 190 352 239 344 C 252 342 274 217 259 203 Z" fill="#a36150" id="id-female-6.6_base_2-109">
</path >
<polygon points="175 565 203 550 234 558 241 520 203 455 203 507" fill="#5e2d13" id="id-female-6.6_base_2-113">
</polygon >
<polygon points="241 442 241 518 229 556 233 629 266 657 316 707 381 659 395 629 364 504 350 504 301 380" fill="url(#id-female-6.6_base_2-34)" id="id-female-6.6_base_2-114">
</polygon >
<polygon points="432 626 427 589 407 518 414 505 450 568 470 618" fill="url(#id-female-6.6_base_2-35)" id="id-female-6.6_base_2-115">
</polygon >
<polygon points="302 376 254 442 254 546 302 590 364 568 364 504 350 504 376 454 345 400" fill="url(#id-female-6.6_base_2-36)" opacity="0.599" id="id-female-6.6_base_2-114">
</polygon >
<polygon points="317 480 342 436 319 413 300 447" fill="#874a31" id="id-female-6.6_base_2-117">
</polygon >
<polygon points="304 541 318 507 329 541 314 549" fill="#774029" id="id-female-6.6_base_2-118">
</polygon >
<polygon points="306 543 316 578 329 541" fill="#935f42" id="id-female-6.6_base_2-119">
</polygon >
<path d="M 178 333 C 179 334 180 336 182 338 C 184 342 186 343 189 346 C 190 347 197 351 206 353 C 215 354 226 355 239 353 C 257 351 272 344 284 333 C 293 322 299 313 302 305 C 304 301 307 293 309 277 C 310 274 310 268 309 260 L 228 277 L 207 295 L 178 333 Z" fill="url(#id-female-6.6_base_2-37)" id="id-female-6.6_base_2-109">
</path >
<polygon points="306 543 308 550 324 556 329 541" fill="#9e7261" id="id-female-6.6_base_2-119">
</polygon >
<polygon points="308 543 318 525 323 542 314 548" fill="#3c1e03" id="id-female-6.6_base_2-122">
</polygon >
<polygon points="152 641 162 596 176 561 185 617 214 602 246 628 323 690 404 628 423 605 454 605 470 577 477 599 482 629 388 689 337 768 323 771 309 768 259 688 175 639 142 688" fill="url(#id-female-6.6_base_2-38)" opacity="0.442" id="id-female-6.6_base_2-123">
</polygon >
<polygon points="490 154 522 137 484 118 412 123" fill="url(#id-female-6.6_base_2-39)" id="id-female-6.6_base_2-47">
</polygon >
<polygon points="573 785 588 829 602 858 607 852 600 821 597 716 576 763" fill="#8e4d48" id="id-female-6.6_base_2-47">
</polygon >
<polygon points="574 722 589 695 582 655 533 542" fill="url(#id-female-6.6_base_2-40)" id="id-female-6.6_base_2-47">
</polygon >
<polygon points="172 640 241 690 309 768 323 771 338 768 395 706 469 661 404 650 313 706 217 629" fill="url(#id-female-6.6_base_2-41)" opacity="0.571" id="id-female-6.6_base_2-127">
</polygon >
<g transform="translate(188,270)" id="id-female-6.6_base_2-128">
<polygon points="207 13 207 10 217 2 220 2 239 21 258 39 260 42 250 51 246 52 226 33" fill="url(#id-female-6.6_base_2-42)" id="id-female-6.6_base_2-129">
</polygon >
<polygon points="208 40 218 50 222 50 240 33 257 13 257 9 247 0 244 1 230 19 209 36" fill="url(#id-female-6.6_base_2-43)" id="id-female-6.6_base_2-130">
</polygon >
<polygon points="1 13 1 10 10 2 15 2 32 21 50 39 52 42 42 52 38 52 19 33" fill="url(#id-female-6.6_base_2-44)" id="id-female-6.6_base_2-129">
</polygon >
<polygon points="0 43 10 53 14 53 33 35 50 15 50 11 40 3 36 4 19 23 1 39" fill="url(#id-female-6.6_base_2-45)" id="id-female-6.6_base_2-130">
</polygon >
</g >
</g >
<defs >
<linearGradient x1="50%" y1="0%" x2="50%" y2="85%" id="id-female-6.8_face_2-0">
<stop stop-color="#874639" offset="0%">
</stop >
<stop stop-color="#4d2322" offset="100%">
</stop >
</linearGradient >
<radialGradient cx="50%" cy="55%" r="91%" id="id-female-6.8_face_2-1" fx="50%" fy="55%" gradientTransform="translate(0.5,0.55) scale(1,0.697) rotate(-90) scale(1,0.712) translate(-0.5,-0.55)">
<stop stop-color="#a3513a" offset="0%">
</stop >
<stop stop-color="#c87359" offset="39%">
</stop >
<stop stop-color="#291013" offset="100%">
</stop >
</radialGradient >
<linearGradient x1="11%" y1="60%" x2="57%" y2="52%" id="id-female-6.8_face_2-2">
<stop stop-color="#944831" offset="0%">
</stop >
<stop stop-color="#b46750" offset="48%">
</stop >
<stop stop-color="#d27d60" offset="100%">
</stop >
</linearGradient >
<linearGradient x1="46%" y1="46%" x2="22%" y2="61%" id="id-female-6.8_face_2-3">
<stop stop-color="#a0543d" offset="0%">
</stop >
<stop stop-color="#642d27" offset="100%">
</stop >
</linearGradient >
<linearGradient x1="48%" y1="50%" x2="57%" y2="65%" id="id-female-6.8_face_2-4">
<stop stop-color="#a55643" offset="0%">
</stop >
<stop stop-color="#66342f" offset="100%">
</stop >
</linearGradient >
<linearGradient x1="100%" y1="38%" x2="17%" y2="50%" id="id-female-6.8_face_2-5">
<stop stop-color="#cb7b65" offset="0%">
</stop >
<stop stop-color="#ae6452" offset="100%">
</stop >
</linearGradient >
<linearGradient x1="47%" y1="27%" x2="48%" y2="50%" id="id-female-6.8_face_2-6">
<stop stop-color="#532d32" offset="0%">
</stop >
<stop stop-color="#794968" offset="100%">
</stop >
</linearGradient >
<radialGradient cx="47%" cy="70%" r="97%" id="id-female-6.8_face_2-7" fx="47%" fy="70%" gradientTransform="translate(0.467,0.7) scale(0.592,1) rotate(-93) translate(-0.467,-0.7)">
<stop stop-color="#d17f6c" offset="0%">
</stop >
<stop stop-color="#622923" offset="100%">
</stop >
</radialGradient >
<linearGradient x1="42%" y1="43%" x2="61%" y2="33%" id="id-female-6.8_face_2-8">
<stop stop-color="#783a36" offset="0%">
</stop >
<stop stop-color="#632f2b" offset="100%">
</stop >
</linearGradient >
<radialGradient cx="45%" cy="79%" r="81%" id="id-female-6.8_face_2-9" fx="45%" fy="79%" gradientTransform="translate(0.447,0.79) scale(0.833,1) rotate(-90) scale(1,1) translate(-0.447,-0.79)">
<stop stop-color="#f2a292" offset="0%">
</stop >
<stop stop-color="#93483d" offset="100%">
</stop >
</radialGradient >
<linearGradient x1="58%" y1="0%" x2="20%" y2="89%" id="id-female-6.8_face_2-10">
<stop stop-color="#d48072" offset="0%" stop-opacity="0">
</stop >
<stop stop-color="#e49281" offset="46%">
</stop >
<stop stop-color="#f2a38f" offset="100%" stop-opacity="0.432">
</stop >
</linearGradient >
<linearGradient x1="52%" y1="22%" x2="50%" y2="16%" id="id-female-6.8_face_2-11">
<stop stop-color="#a06daa" offset="0%">
</stop >
<stop stop-color="#a471b2" offset="100%" stop-opacity="0.398">
</stop >
</linearGradient >
<radialGradient cx="45%" cy="76%" r="54%" id="id-female-6.8_face_2-12" fx="45%" fy="76%" gradientTransform="translate(0.455,0.761) scale(0.673,1) scale(1,0.612) translate(-0.455,-0.761)">
<stop stop-color="#bc6d5a" offset="0%">
</stop >
<stop stop-color="#974c3a" offset="100%">
</stop >
</radialGradient >
<linearGradient x1="50%" y1="0%" x2="50%" y2="73%" id="id-female-6.8_face_2-13">
<stop stop-color="#d88873" offset="0%">
</stop >
<stop stop-color="#b4624d" offset="100%">
</stop >
</linearGradient >
<linearGradient x1="25%" y1="52%" x2="67%" y2="55%" id="id-female-6.8_face_2-14">
<stop stop-color="#d37b62" offset="0%">
</stop >
<stop stop-color="#843c39" offset="100%">
</stop >
</linearGradient >
<linearGradient x1="71%" y1="52%" x2="18%" y2="50%" id="id-female-6.8_face_2-15">
<stop stop-color="#994d39" offset="0%">
</stop >
<stop stop-color="#5e2c26" offset="100%">
</stop >
</linearGradient >
<linearGradient x1="94%" y1="63%" x2="50%" y2="63%" id="id-female-6.8_face_2-16">
<stop stop-color="#6f3d40" offset="0%">
</stop >
<stop stop-color="#ad594c" offset="100%">
</stop >
</linearGradient >
<linearGradient x1="50%" y1="0%" x2="50%" y2="84%" id="id-female-6.8_face_2-17">
<stop stop-color="#0b071e" offset="0%">
</stop >
<stop stop-color="#3c2f7b" offset="100%">
</stop >
</linearGradient >
<linearGradient x1="75%" y1="46%" x2="36%" y2="49%" id="id-female-6.8_face_2-18">
<stop stop-color="#772f2b" offset="0%">
</stop >
<stop stop-color="#b35849" offset="46%">
</stop >
<stop stop-color="#693027" offset="100%">
</stop >
</linearGradient >
<linearGradient x1="50%" y1="0%" x2="50%" y2="84%" id="id-female-6.8_face_2-19">
<stop stop-color="#0b071e" offset="0%">
</stop >
<stop stop-color="#3c2f7b" offset="100%">
</stop >
</linearGradient >
<linearGradient x1="28%" y1="50%" x2="72%" y2="55%" id="id-female-6.8_face_2-20">
<stop stop-color="#4c1a19" offset="0%">
</stop >
<stop stop-color="#692928" offset="100%">
</stop >
</linearGradient >
<radialGradient cx="50%" cy="28%" r="98%" id="id-female-6.8_face_2-21" fx="50%" fy="28%" gradientTransform="translate(0.5,0.278) scale(0.259,1) rotate(90) scale(1,1) translate(-0.5,-0.278)">
<stop stop-color="#df6c71" offset="0%">
</stop >
<stop stop-color="#9f504c" offset="100%">
</stop >
</radialGradient >
<linearGradient x1="13%" y1="50%" x2="90%" y2="50%" id="id-female-6.8_face_2-22">
<stop stop-color="#682929" offset="0%">
</stop >
<stop stop-color="#b85454" offset="54%">
</stop >
<stop stop-color="#833a38" offset="100%">
</stop >
</linearGradient >
<radialGradient cx="48%" cy="82%" r="121%" id="id-female-6.8_face_2-23" fx="48%" fy="82%" gradientTransform="translate(0.483,0.816) scale(0.316,1) rotate(-95) translate(-0.483,-0.816)">
<stop stop-color="#ba354f" offset="0%">
</stop >
<stop stop-color="#592020" offset="100%">
</stop >
</radialGradient >
<linearGradient x1="32%" y1="49%" x2="112%" y2="53%" id="id-female-6.8_face_2-24">
<stop stop-color="#f6b8cb" offset="0%">
</stop >
<stop stop-color="#78272f" offset="100%">
</stop >
</linearGradient >
<linearGradient x1="50%" y1="0%" x2="50%" y2="100%" id="id-female-6.8_face_2-25">
<stop stop-color="#693c4e" offset="0%">
</stop >
<stop stop-color="#7a5771" offset="100%">
</stop >
</linearGradient >
<linearGradient x1="50%" y1="0%" x2="50%" y2="100%" id="id-female-6.8_face_2-26">
<stop stop-color="#693c4e" offset="0%">
</stop >
<stop stop-color="#7a5771" offset="100%">
</stop >
</linearGradient >
<linearGradient x1="-8%" y1="57%" x2="25%" y2="53%" id="id-female-6.8_face_2-27">
<stop stop-color="#c06e59" offset="0%">
</stop >
<stop stop-color="#4c2426" offset="100%">
</stop >
</linearGradient >
<linearGradient x1="106%" y1="53%" x2="76%" y2="50%" id="id-female-6.8_face_2-28">
<stop stop-color="#c06f5a" offset="0%">
</stop >
<stop stop-color="#401f21" offset="100%">
</stop >
</linearGradient >
<linearGradient x1="81%" y1="45%" x2="17%" y2="63%" id="id-female-6.8_face_2-29">
<stop stop-color="#c86c4d" offset="0%">
</stop >
<stop stop-color="#90452f" offset="100%">
</stop >
</linearGradient >
<linearGradient x1="50%" y1="14%" x2="50%" y2="87%" id="id-female-6.8_face_2-30">
<stop stop-color="#d37e62" offset="0%">
</stop >
<stop stop-color="#be6540" offset="100%">
</stop >
</linearGradient >
<linearGradient x1="50%" y1="29%" x2="50%" y2="100%" id="id-female-6.8_face_2-31">
<stop stop-color="#a4543f" offset="0%">
</stop >
<stop stop-color="#602b28" offset="100%">
</stop >
</linearGradient >
</defs >
<g transform="translate(561,332)" id="id-female-6.8_face_2-32">
<g transform="translate(172,115)" id="id-female-6.8_face_2-33">
<polygon points="14 1 18 0 25 8 27 21 24 41 14 66 0 68" fill="url(#id-female-6.8_face_2-0)" id="id-female-6.8_face_2-34">
</polygon >
<polygon points="12 48 19 50 23 42 26 24 20 12 12 22" fill="#7d3f38" id="id-female-6.8_face_2-35">
</polygon >
<polygon points="11 21 17 10 20 5 24 7 26 24 20 36 18 31 20 16 9 29" fill="#632a21" id="id-female-6.8_face_2-36">
</polygon >
<polygon points="10 28 11 38 8 45 13 49 19 38 13 24" fill="#381717" id="id-female-6.8_face_2-37">
</polygon >
<polygon points="12 18 17 17 18 9" fill="#381717" id="id-female-6.8_face_2-38">
</polygon >
<polygon points="17 51 9 52 7 51 4 62 11 64 13 62" fill="#7c4337" id="id-female-6.8_face_2-39">
</polygon >
</g >
<g transform="translate(0,113)" id="id-female-6.8_face_2-40">
<polygon points="13 0 5 0 0 13 4 36 13 63 25 67" fill="#9b4d38" id="id-female-6.8_face_2-41">
</polygon >
<polygon points="5 9 0 13 4 36 13 63 25 67 13 24" fill="#7d3f38" id="id-female-6.8_face_2-41">
</polygon >
<polygon points="18 46 14 47 7 32 11 26 4 9 6 5 16 20 17 29" fill="#632a21" id="id-female-6.8_face_2-43">
</polygon >
<polygon points="13 62 20 62 18 49 11 53" fill="#a0533d" id="id-female-6.8_face_2-44">
</polygon >
<polygon points="25 68 13 63 20 62 17 46 14 47 13 44 14 29 17 26 14 22 10 19 10 11 17 20" fill="#381717" id="id-female-6.8_face_2-45">
</polygon >
<polygon points="13 9 4 3 5 0 12 0" fill="#c26e60" id="id-female-6.8_face_2-46">
</polygon >
</g >
<path d="M 29 199 C 21 165 17 151 15 130 C 4 44 33 0 103 0 C 180 0 191 63 186 119 C 183 157 173 191 170 202 C 169 206 167 213 164 217 C 155 229 135 242 119 249 C 112 251 89 251 79 249 C 65 240 47 234 36 218 C 33 213 32 209 29 199 Z" fill="url(#id-female-6.8_face_2-1)" id="id-female-6.8_face_2-47">
</path >
<polygon points="122 166 151 182 171 155 113 120 77 124 20 148 51 190 66 182 86 155" fill="url(#id-female-6.8_face_2-2)" id="id-female-6.8_face_2-48">
</polygon >
<polygon points="115 140 139 167 156 148 121 130 119 140" fill="#e49484" id="id-female-6.8_face_2-49">
</polygon >
<polygon points="169 156 153 147 164 132 174 151" fill="#d66650" id="id-female-6.8_face_2-50">
</polygon >
<path d="M 29 199 C 24 176 20 162 18 149 C 18 148 33 157 51 182 C 54 187 57 195 59 208 C 110 231 130 244 119 249 C 112 251 89 251 79 249 C 65 240 47 234 36 218 C 33 213 32 209 29 199 Z" fill="url(#id-female-6.8_face_2-3)" id="id-female-6.8_face_2-47">
</path >
<path d="M 119 249 C 112 251 89 251 79 249 C 77 247 74 245 70 242 L 80 234 L 131 223 C 125 240 121 248 119 249 Z" fill="#79382d" id="id-female-6.8_face_2-47">
</path >
<path d="M 135 207 L 136 195 L 171 151 L 164 131 L 171 125 C 178 143 181 152 181 154 C 177 177 172 195 170 202 C 169 206 167 213 164 217 C 155 229 135 242 119 249 L 135 207 Z" fill="url(#id-female-6.8_face_2-4)" id="id-female-6.8_face_2-47">
</path >
<polygon points="179 117 171 125 177 143" fill="#90596c" id="id-female-6.8_face_2-47">
</polygon >
<polygon points="89 188 91 178 110 176 113 191 99 195" fill="url(#id-female-6.8_face_2-5)" id="id-female-6.8_face_2-55">
</polygon >
<polygon points="87 187 87 181 78 175 104 155 123 177 113 180 106 181 101 185 95 182 91 181 89 187" fill="#56281b" opacity="0.297" id="id-female-6.8_face_2-56">
</polygon >
<path d="M 119 249 C 112 251 89 251 79 249 C 65 240 47 234 36 218 L 79 247 L 119 249 Z" fill="#814c5e" id="id-female-6.8_face_2-47">
</path >
<polygon points="23 119 31 133 45 121 34 111" fill="#562722" id="id-female-6.8_face_2-58">
</polygon >
<polygon points="23 119 23 141 31 133" fill="#663632" id="id-female-6.8_face_2-58">
</polygon >
<path d="M 18 149 C 17 143 15 136 15 130 C 14 120 13 111 13 103 L 21 70 L 32 111 L 23 119 L 23 145 L 35 163 L 18 149 Z" fill="url(#id-female-6.8_face_2-6)" id="id-female-6.8_face_2-47">
</path >
<path d="M 30 111 L 24 83 C 36 49 59 30 92 24 C 126 19 155 33 180 67 L 186 98 L 183 119 L 99 103 L 30 111 Z" fill="url(#id-female-6.8_face_2-7)" id="id-female-6.8_face_2-61">
</path >
<path d="M 180 58 L 186 98 L 183 119 L 171 104 L 164 65 L 154 82 C 147 53 146 38 149 36 C 160 43 170 50 180 58 Z" fill="url(#id-female-6.8_face_2-8)" id="id-female-6.8_face_2-61">
</path >
<polygon points="56 102 62 49 99 32 135 45 149 102 99 109" fill="url(#id-female-6.8_face_2-9)" id="id-female-6.8_face_2-63">
</polygon >
<polygon points="92 39 75 62 99 99 122 62 103 39" fill="url(#id-female-6.8_face_2-10)" id="id-female-6.8_face_2-64">
</polygon >
<path d="M 149 226 L 167 206 L 178 150 L 174 144 L 178 121 L 167 106 L 174 75 L 184 97 L 181 113 L 184 132 C 180 165 172 193 170 202 C 169 206 167 213 164 217 L 149 226 Z" fill="url(#id-female-6.8_face_2-11)" id="id-female-6.8_face_2-47">
</path >
<polygon points="135 207 121 244 84 244 79 234 86 230" fill="url(#id-female-6.8_face_2-12)" id="id-female-6.8_face_2-47">
</polygon >
<polygon points="70 104 102 91 136 107 109 132 81 126" fill="url(#id-female-6.8_face_2-13)" id="id-female-6.8_face_2-67">
</polygon >
<polygon points="39 152 62 170 82 141 75 134" fill="#bf7666" id="id-female-6.8_face_2-68">
</polygon >
<polygon points="76 140 55 151 39 153 25 147 23 146 23 140 26 129 29 127" fill="#8b422f" id="id-female-6.8_face_2-69">
</polygon >
<polygon points="120 140 133 149 153 147 164 132" fill="url(#id-female-6.8_face_2-14)" id="id-female-6.8_face_2-70">
</polygon >
<polygon points="39 135 33 139 43 147 59 148 76 140" fill="url(#id-female-6.8_face_2-15)" id="id-female-6.8_face_2-71">
</polygon >
<polygon points="117 135 127 129 169 128 177 120 169 111 146 101 112 121 115 128" fill="url(#id-female-6.8_face_2-16)" id="id-female-6.8_face_2-72">
</polygon >
<polygon points="124 126 118 119 146 104 167 113 158 123" fill="#914840" id="id-female-6.8_face_2-73">
</polygon >
<polygon points="131 124 144 107 161 107 147 121" fill="#be6d65" id="id-female-6.8_face_2-74">
</polygon >
<path d="M 120 136 L 120 132 C 127 124 134 119 142 118 C 149 118 157 121 165 128 L 120 136 Z" fill="#a04740" id="id-female-6.8_face_2-75">
</path >
<path d="M 130 129 C 130 123 134 120 142 119 C 149 119 154 121 157 128 L 130 129 Z" fill="#c76355" id="id-female-6.8_face_2-75">
</path >
<polygon points="138 126 142 119 144 119 148 126" fill="#feb99c" id="id-female-6.8_face_2-77">
</polygon >
<polygon points="125 138 148 138 158 132 148 126 137 127 124 134" fill="#f4eaff" id="id-female-6.8_face_2-78">
</polygon >
<polygon points="127 137 124 134 120 137" fill="#d8706a" id="id-female-6.8_face_2-79">
</polygon >
<path d="M 132 131 C 132 134 133 136 134 137 C 137 139 142 139 146 137 C 148 136 149 133 149 128 C 145 127 142 127 140 127 C 138 128 135 129 132 131 Z" fill="#2a0610" id="id-female-6.8_face_2-80">
</path >
<path d="M 134 132 C 134 134 135 135 136 136 C 138 137 140 137 144 136 C 146 135 147 133 147 130 C 146 130 145 130 145 130 C 143 129 144 134 140 134 C 135 134 138 130 137 130 C 136 131 135 131 134 132 Z" fill="url(#id-female-6.8_face_2-17)" id="id-female-6.8_face_2-80">
</path >
<polygon points="74 135 82 129 69 114 44 105 34 110 52 129" fill="#8e4539" id="id-female-6.8_face_2-82">
</polygon >
<polygon points="51 121 48 109 62 113 68 119 68 125" fill="#a85e55" id="id-female-6.8_face_2-83">
</polygon >
<path d="M 32 127 C 39 121 46 118 55 120 C 64 121 71 126 76 135 L 32 127 Z" fill="url(#id-female-6.8_face_2-18)" id="id-female-6.8_face_2-84">
</path >
<path d="M 32 127 C 37 122 42 120 48 119 C 44 121 41 124 39 128 L 32 127 Z" fill="#824642" id="id-female-6.8_face_2-84">
</path >
<polygon points="47 128 54 120 61 129" fill="#f68a70" id="id-female-6.8_face_2-86">
</polygon >
<polygon points="49 137 76 137 73 133 62 128 42 128 38 131" fill="#ded5ff" id="id-female-6.8_face_2-87">
</polygon >
<polygon points="72 133 73 135 72 137 77 137 75 135" fill="#8e3d3c" id="id-female-6.8_face_2-88">
</polygon >
<path d="M 49 129 C 51 136 54 139 60 138 C 65 137 68 135 68 130 L 58 128 L 49 129 Z" fill="#24060d" id="id-female-6.8_face_2-89">
</path >
<path d="M 51 131 C 53 136 56 138 60 137 C 64 136 66 134 66 131 L 62 130 C 62 132 61 134 58 134 C 56 134 55 132 55 130 L 51 131 Z" fill="url(#id-female-6.8_face_2-19)" id="id-female-6.8_face_2-89">
</path >
<polygon points="50 139 65 138 78 138 77 137 65 137 49 137" fill="#3e1b19" id="id-female-6.8_face_2-91">
</polygon >
<polygon points="141 131 153 135 158 131 148 126 135 128 126 133" fill="#000000" opacity="0.4" id="id-female-6.8_face_2-92">
</polygon >
<polygon points="45 134 51 132 68 132 73 134 68 129 48 128 40 132" fill="#000000" opacity="0.4" id="id-female-6.8_face_2-93">
</polygon >
<polygon points="77 137 76 137 75 135 67 130 49 129 43 132 49 138 53 139 48 139 41 135 38 135 28 126 41 126 56 125 67 128" fill="#2a0710" id="id-female-6.8_face_2-94">
</polygon >
<path d="M 121 136 C 129 132 135 130 139 128 C 143 127 149 128 155 132 C 154 134 151 136 147 139 C 150 139 154 137 160 133 L 162 133 L 171 126 C 166 126 162 126 160 126 C 153 125 147 123 143 124 C 136 125 128 129 121 136 Z" fill="#340713" id="id-female-6.8_face_2-95">
</path >
<polygon points="135 133 138 133 138 130 136 130 136 132 135 132" fill="#f8e2f8" id="id-female-6.8_face_2-96">
</polygon >
<polygon points="53 131 53 133 55 133 55 132 57 132 56 130" fill="#c7abcd" id="id-female-6.8_face_2-97">
</polygon >
<g transform="translate(59,186)" id="id-female-6.8_face_2-98">
<polygon points="6 20 0 22 19 31" fill="#a4645e" id="id-female-6.8_face_2-99">
</polygon >
<polygon points="10 24 27 44 57 44 71 25" fill="url(#id-female-6.8_face_2-20)" id="id-female-6.8_face_2-100">
</polygon >
<polygon points="7 22 41 28 73 23 76 20 69 17 11 16 5 20" fill="#2a0710" id="id-female-6.8_face_2-101">
</polygon >
<path d="M 7 22 C 19 32 30 38 41 38 C 52 38 63 33 73 23 L 56 22 C 49 22 43 22 39 22 C 35 22 30 21 22 21 L 7 22 Z" fill="url(#id-female-6.8_face_2-21)" id="id-female-6.8_face_2-101">
</path >
<path d="M 7 22 C 19 32 30 38 41 38 C 52 38 63 33 73 23 L 66 23 C 58 31 49 35 41 35 C 33 35 25 30 15 21 L 7 22 Z" fill="url(#id-female-6.8_face_2-22)" opacity="0.651" id="id-female-6.8_face_2-101">
</path >
<path d="M 7 22 C 8 23 9 24 10 25 C 10 22 20 22 39 22 C 59 22 69 24 71 25 C 71 25 72 24 73 23 L 56 22 C 49 22 43 22 39 22 C 35 22 30 21 22 21 L 7 22 Z" fill="#632928" id="id-female-6.8_face_2-101">
</path >
<path d="M 15 21 L 23 20 C 30 19 37 18 41 19 C 46 19 51 20 58 21 L 75 21 C 68 12 60 6 53 2 C 50 2 46 3 41 5 C 36 3 32 1 29 0 C 22 5 15 11 8 18 L 15 21 Z" fill="url(#id-female-6.8_face_2-23)" id="id-female-6.8_face_2-105">
</path >
<path d="M 21 9 C 25 6 28 5 31 5 C 33 5 37 7 43 11 L 53 9 L 60 9 C 63 10 60 8 53 4 C 50 4 47 5 42 7 C 37 4 32 3 29 2 C 22 6 19 9 19 9 L 21 9 Z" fill="url(#id-female-6.8_face_2-24)" opacity="0.485" id="id-female-6.8_face_2-105">
</path >
<path d="M 20 24 L 33 30 C 30 28 31 27 34 27 C 37 27 44 28 54 28 L 59 30 L 58 26 L 61 23 L 56 26 L 30 26 L 20 24 Z" fill="#ee88aa" id="id-female-6.8_face_2-107">
</path >
<path d="M 31 20 C 31 20 31 21 31 21 C 31 21 34 21 40 21 C 40 20 40 20 40 19 C 38 19 35 19 31 20 Z" fill="url(#id-female-6.8_face_2-25)" id="id-female-6.8_face_2-108">
</path >
<path d="M 42 20 C 42 20 42 21 42 21 C 46 22 49 22 51 21 L 51 20 C 46 19 43 19 42 20 Z" fill="url(#id-female-6.8_face_2-26)" id="id-female-6.8_face_2-109">
</path >
</g >
<g transform="translate(22,95)" id="id-female-6.8_face_2-110">
<path d="M 97 23 L 132 12 L 146 18 L 145 11 C 137 4 132 1 129 1 C 120 1 109 4 96 9 C 95 9 95 14 97 23 Z" fill="url(#id-female-6.8_face_2-27)" id="id-female-6.8_face_2-111">
</path >
<polygon points="156 25 147 19 147 13" fill="#3e1f26" id="id-female-6.8_face_2-111">
</polygon >
<path d="M 1 24 L 17 16 L 33 16 L 60 28 L 60 11 C 48 7 35 4 22 4 L 10 11 L 10 16 L 9 12 L 1 24 Z" fill="url(#id-female-6.8_face_2-28)" id="id-female-6.8_face_2-113">
</path >
</g >
<polygon points="99 121 114 127 111 135 121 162 126 169 74 169 81 157 87 130" fill="url(#id-female-6.8_face_2-29)" id="id-female-6.8_face_2-114">
</polygon >
<polygon points="72 118 83 132 96 146 96 132 82 110" fill="#954c3a" id="id-female-6.8_face_2-115">
</polygon >
<polygon points="72 118 83 132 82 110" fill="#9b584a" id="id-female-6.8_face_2-115">
</polygon >
<polygon points="96 132 96 153 84 165 81 161 77 167 78 174 124 174 124 169 121 162 110 161 104 153 104 132" fill="url(#id-female-6.8_face_2-30)" id="id-female-6.8_face_2-117">
</polygon >
<polygon points="78 163 74 169 76 177 87 181 81 176 92 177 95 181 100 182 106 181 106 178 120 175 113 180 118 181 124 179 126 176 126 168 121 160 123 169 123 174 112 169 98 174 89 169 84 173 78 171" fill="url(#id-female-6.8_face_2-31)" id="id-female-6.8_face_2-118">
</polygon >
<polygon points="93 127 100 140 106 127 100 123" fill="#ee9d8c" id="id-female-6.8_face_2-119">
</polygon >
<polygon points="93 167 99 170 105 167 99 161" fill="#db9a77" id="id-female-6.8_face_2-120">
</polygon >
<polygon points="80 170 84 173 89 170 84 166" fill="#d27f62" id="id-female-6.8_face_2-121">
</polygon >
<polygon points="113 169 119 171 120 166 116 164" fill="#d88365" id="id-female-6.8_face_2-122">
</polygon >
<polygon points="115 159 117 152 121 160" fill="#a35547" id="id-female-6.8_face_2-123">
</polygon >
<polygon points="93 178 81 176 81 173 89 173" fill="#2e1111" id="id-female-6.8_face_2-124">
</polygon >
<polygon points="106 178 112 173 118 173 120 175 117 177" fill="#2e1111" id="id-female-6.8_face_2-125">
</polygon >
<polygon points="124 137 145 138 147 139 125 138 120 137" fill="#3f0a19" id="id-female-6.8_face_2-126">
</polygon >
<polygon points="124 140 137 141 147 140" fill="#feaf93" id="id-female-6.8_face_2-127">
</polygon >
<polygon points="49 140 60 141 74 140" fill="#bb735f" id="id-female-6.8_face_2-128">
</polygon >
</g >
<defs >
<linearGradient x1="50%" y1="22%" x2="72%" y2="62%" id="id-female-9_strappy_underwear-0">
<stop stop-color="#10454d" offset="0%">
</stop >
<stop stop-color="#002325" offset="100%">
</stop >
</linearGradient >
</defs >
<g transform="translate(496,1113)" id="id-female-9_strappy_underwear-1">
<path d="M 9 8 C 6 15 5 19 5 19 C 53 55 76 73 76 73 C 123 164 146 209 146 209 C 155 211 159 212 159 212 C 169 210 174 209 174 209 C 218 121 240 78 240 78 C 285 34 307 12 307 12 C 306 4 305 1 305 1 L 233 69 L 88 66 L 9 8 Z" fill="#151716" id="id-female-9_strappy_underwear-2">
</path >
<path d="M 7 14 L 1 31 L 8 26 C 54 59 76 76 76 76 C 123 160 146 202 146 202 C 155 204 159 205 159 205 L 179 196 L 245 82 C 279 47 298 27 303 23 C 304 21 307 22 311 24 C 307 12 305 7 305 7 L 233 75 L 89 63 L 7 14 Z" fill="#151716" opacity="0.404" id="id-female-9_strappy_underwear-2">
</path >
<polygon points="93 80 142 178 178 178 225 81" fill="url(#id-female-9_strappy_underwear-0)" id="id-female-9_strappy_underwear-4">
</polygon >
</g >
<defs >
<radialGradient cx="50%" cy="67%" r="44%" id="id-female-11_strappy_tank-0" fx="50%" fy="67%" gradientTransform="translate(0.5,0.674) scale(1,0.79) scale(1,2) translate(-0.5,-0.674)">
<stop stop-color="#244454" offset="0%">
</stop >
<stop stop-color="#0b2532" offset="100%">
</stop >
</radialGradient >
<radialGradient cx="50%" cy="99%" r="62%" id="id-female-11_strappy_tank-1" fx="50%" fy="99%" gradientTransform="translate(0.505,0.987) scale(0.867,1) translate(-0.505,-0.987)">
<stop stop-color="#04161f" offset="0%">
</stop >
<stop stop-color="#0a1e24" offset="39%">
</stop >
<stop stop-color="#18303c" offset="60%">
</stop >
<stop stop-color="#325066" offset="92%">
</stop >
</radialGradient >
<linearGradient x1="65%" y1="12%" x2="65%" y2="91%" id="id-female-11_strappy_tank-2">
<stop stop-color="#325066" offset="0%">
</stop >
<stop stop-color="#07212d" offset="100%">
</stop >
</linearGradient >
<linearGradient x1="50%" y1="100%" x2="50%" y2="0%" id="id-female-11_strappy_tank-3">
<stop stop-color="#325066" offset="8%">
</stop >
<stop stop-color="#2f4c61" offset="29%">
</stop >
<stop stop-color="#274254" offset="53%">
</stop >
<stop stop-color="#19313d" offset="78%">
</stop >
<stop stop-color="#0a1e24" offset="100%">
</stop >
</linearGradient >
<linearGradient x1="35%" y1="12%" x2="35%" y2="95%" id="id-female-11_strappy_tank-4">
<stop stop-color="#325066" offset="0%">
</stop >
<stop stop-color="#07212d" offset="100%">
</stop >
</linearGradient >
<linearGradient x1="50%" y1="100%" x2="50%" y2="0%" id="id-female-11_strappy_tank-5">
<stop stop-color="#325066" offset="8%">
</stop >
<stop stop-color="#2f4c61" offset="29%">
</stop >
<stop stop-color="#274254" offset="53%">
</stop >
<stop stop-color="#19313d" offset="78%">
</stop >
<stop stop-color="#0a1e24" offset="100%">
</stop >
</linearGradient >
</defs >
<g transform="translate(499,631)" id="id-female-11_strappy_tank-6">
<polygon points="36 385 36 378 274 374 273 386 246 398" fill="#000000" opacity="0.277" id="id-female-11_strappy_tank-7" fill-rule="nonzero">
</polygon >
<path d="M 292 255 C 292 255 331 214 267 122 L 249 10 L 235 0 L 250 79 C 250 79 185 108 153 142 C 121 108 57 79 57 79 L 72 9 L 57 19 L 39 122 C -25 214 13 253 13 253 C 13 254 16 258 23 266 L 32 327 L 34 366 L 33 379 C 194 386 275 384 277 374 C 277 370 279 362 281 351 C 287 309 291 277 292 255 Z M 147 241 C 131 220 114 200 96 182 C 67 152 49 118 49 118 L 52 108 C 114 145 147 203 147 203 L 147 241 Z M 148 186 C 148 186 96 118 54 100 L 56 87 C 56 87 117 119 148 151 L 148 186 Z M 158 151 C 190 119 250 87 250 87 L 252 100 C 210 118 158 186 158 186 L 158 151 Z M 210 182 C 192 200 175 220 159 241 L 159 203 C 159 203 192 145 254 108 L 257 118 C 257 118 239 152 210 182 L 210 182 Z" fill="url(#id-female-11_strappy_tank-0)" id="id-female-11_strappy_tank-8" fill-rule="nonzero">
</path >
<path d="M 159 241 L 159 203 C 159 203 192 145 254 108 L 257 118 C 257 118 257 119 256 120 L 266 114 L 255 48 L 244 49 L 250 79 C 250 79 185 108 153 142 C 121 108 57 79 57 79 L 59 64 L 49 65 L 43 99 L 51 111 L 52 108 C 114 145 147 203 147 203 L 147 241 L 159 241 Z M 158 151 C 190 119 250 87 250 87 L 252 100 C 210 118 158 186 158 186 L 158 151 Z M 54 100 L 56 87 C 56 87 117 119 148 151 L 148 186 C 148 186 96 118 54 100 L 54 100 Z" fill="url(#id-female-11_strappy_tank-1)" id="id-female-11_strappy_tank-8" fill-rule="nonzero">
</path >
<path d="M 267 122 L 257 118 C 257 118 239 152 210 182 C 195 197 181 214 167 231 C 171 240 181 250 201 261 C 251 289 296 249 296 249 C 296 249 331 214 267 122 Z" fill="url(#id-female-11_strappy_tank-2)" id="id-female-11_strappy_tank-7">
</path >
<polygon points="235 0 250 79 250 87 252 100 254 108 257 118 267 122 249 10" fill="url(#id-female-11_strappy_tank-3)" id="id-female-11_strappy_tank-7">
</polygon >
<path d="M 39 122 L 49 118 C 49 118 67 152 96 182 C 111 197 126 214 139 231 C 135 240 125 250 106 261 C 55 289 10 249 10 249 C 10 249 -25 214 39 122 Z" fill="url(#id-female-11_strappy_tank-4)" id="id-female-11_strappy_tank-7">
</path >
<polygon points="57 79 56 87 54 100 52 108 49 118 39 122 57 19 72 9" fill="url(#id-female-11_strappy_tank-5)" id="id-female-11_strappy_tank-7">
</polygon >
</g >
<defs >
<linearGradient x1="64%" y1="5%" x2="44%" y2="53%" id="id-female-12_baggy_pants-0">
<stop stop-color="#204c8a" offset="0%">
</stop >
<stop stop-color="#0e2552" offset="100%">
</stop >
</linearGradient >
<linearGradient x1="100%" y1="33%" x2="7%" y2="64%" id="id-female-12_baggy_pants-1">
<stop stop-color="#14326a" offset="0%">
</stop >
<stop stop-color="#0e2552" offset="100%">
</stop >
</linearGradient >
<linearGradient x1="88%" y1="6%" x2="25%" y2="97%" id="id-female-12_baggy_pants-2">
<stop stop-color="#2c5c9c" offset="0%">
</stop >
<stop stop-color="#19417e" offset="100%">
</stop >
</linearGradient >
</defs >
<g transform="translate(407,1077)" id="id-female-12_baggy_pants-3">
<path d="M 51 683 L 35 649 C 35 626 35 614 34 612 C 27 599 10 568 0 535 C 0 500 13 441 38 359 L 48 236 L 64 177 L 57 170 L 77 75 L 83 73 L 93 60 L 98 31 L 99 31 L 101 0 C 141 11 197 17 268 19 C 270 22 275 23 297 22 C 297 22 329 20 392 14 L 392 32 L 394 32 L 403 61 L 411 72 L 413 70 L 447 173 L 432 174 L 458 424 L 488 559 L 460 613 C 460 625 460 634 460 640 C 453 655 440 665 440 683 C 399 683 345 683 280 683 L 278 653 L 267 633 L 264 391 L 237 398 L 229 454 L 220 464 L 230 600 L 230 614 L 215 638 L 211 683 L 51 683 Z" fill="url(#id-female-12_baggy_pants-0)" id="id-female-12_baggy_pants-4">
</path >
<path d="M 112 180 L 109 180 L 109 178 L 71 175 L 67 179 L 57 170 L 77 75 L 83 73 L 403 66 L 403 62 L 412 73 L 447 173 L 377 184 C 380 279 382 347 383 388 C 343 389 287 389 215 388 L 214 388 L 102 388 L 108 214 L 112 180 Z" fill="#1a4682" id="id-female-12_baggy_pants-5">
</path >
<path d="M 273 644 L 298 609 L 290 608 L 311 521 L 375 430 L 330 437 L 342 390 L 377 184 L 432 174 L 445 250 L 458 424 L 488 559 L 460 613 C 460 625 460 634 460 640 C 451 657 440 667 440 683 C 391 683 338 683 280 683 L 278 653 L 273 644 Z" fill="#163877" id="id-female-12_baggy_pants-6">
</path >
<polygon points="175 533 175 569 35 635 42 589" fill="url(#id-female-12_baggy_pants-1)" id="id-female-12_baggy_pants-7">
</polygon >
<polygon points="101 656 166 641 167 632 148 628" fill="#111a28" id="id-female-12_baggy_pants-8">
</polygon >
<polygon points="338 609 384 513 384 492 391 399 392 227 394 227 414 198 436 471 461 559 466 570 398 630" fill="#18467f" id="id-female-12_baggy_pants-9">
</polygon >
<polygon points="346 665 319 629 329 631 400 643" fill="#0e2351" id="id-female-12_baggy_pants-10">
</polygon >
<polygon points="400 632 469 572 422 492 407 510" fill="#355e97" id="id-female-12_baggy_pants-11">
</polygon >
<path d="M 348 79 C 347 82 346 85 345 89 L 177 93 L 267 108 L 269 113 L 107 119 L 265 195 L 227 251 L 383 133 L 381 388 L 215 388 L 102 388 L 112 180 L 109 180 L 109 178 L 71 175 L 67 179 L 57 170 L 77 75 L 83 73 L 134 76 C 208 75 279 77 348 79 Z" fill="url(#id-female-12_baggy_pants-2)" id="id-female-12_baggy_pants-12">
</path >
<polygon points="250 107 134 76 83 73 93 60 219 68 226 77 189 76" fill="#0f2755" id="id-female-12_baggy_pants-13">
</polygon >
<polygon points="113 339 114 342 114 349 122 349 132 340" stroke="#979797" id="id-female-12_baggy_pants-14">
</polygon >
<polygon points="111 295 107 388 162 388" fill="#2e5090" id="id-female-12_baggy_pants-15">
</polygon >
<polygon points="299 376 288 389 297 389" fill="#375f9c" id="id-female-12_baggy_pants-16">
</polygon >
<polygon points="330 389 381 325 383 388" fill="#3d63a1" id="id-female-12_baggy_pants-17">
</polygon >
<polygon points="198 400 125 394 76 465 69 476 76 496 94 500 91 510 89 509 54 596 145 580 111 567 133 537 173 523 194 409" fill="#14336b" id="id-female-12_baggy_pants-18">
</polygon >
<polygon points="383 221 382 188 381 184 415 178" fill="#0e2351" id="id-female-12_baggy_pants-19">
</polygon >
<polygon points="88 179 108 217 108 214 112 180" fill="#111925" id="id-female-12_baggy_pants-20">
</polygon >
<polygon points="124 178 122 232 171 230 168 181" fill="#947c17" id="id-female-12_baggy_pants-21">
</polygon >
<polygon points="212 332 245 238 383 133 349 128 413 70 447 173 344 190" fill="#1c508b" id="id-female-12_baggy_pants-22">
</polygon >
<polygon points="144 150 220 236 258 201" fill="#1a508b" id="id-female-12_baggy_pants-23">
</polygon >
<polygon points="98 31 93 60 217 68 217 38 171 35" fill="#84671b" id="id-female-12_baggy_pants-24">
</polygon >
<polygon points="171 35 163 65 93 60 98 31" fill="#654a16" id="id-female-12_baggy_pants-25">
</polygon >
<polygon points="294 46 297 73 363 68 363 36" fill="#7b5c19" id="id-female-12_baggy_pants-26">
</polygon >
<polygon points="363 36 394 32 403 62 403 66 363 68" fill="#654a16" id="id-female-12_baggy_pants-27">
</polygon >
<path d="M 221 38 C 219 40 218 41 218 41 C 217 63 217 75 217 75 L 297 75 L 297 73 C 295 55 294 46 294 46 L 293 38 C 245 38 221 38 221 38 Z" fill="#111925" id="id-female-12_baggy_pants-28">
</path >
<path d="M 221 29 C 221 32 221 35 221 38 L 293 38 C 259 32 235 29 221 29 Z" fill="#111823" id="id-female-12_baggy_pants-29">
</path >
<path d="M 292 33 L 295 40 L 221 38 L 221 33 C 223 32 225 31 225 31 L 224 30 C 269 32 292 33 292 33 Z" fill="#566986" id="id-female-12_baggy_pants-30">
</path >
</g >
<defs >
</defs >
<g transform="translate(570,613)" id="id-female-19_gunter_necklace-0">
<path d="M 145 0 C 146 3 147 5 147 5 L 147 5 C 147 5 147 5 147 5 C 154 4 157 3 157 3 L 157 3 L 157 3 C 166 15 172 22 174 25 L 174 25 C 175 26 175 26 175 26 C 131 134 108 188 108 188 C 103 208 101 217 101 217 C 103 218 104 218 104 218 C 112 250 116 266 116 266 C 98 267 90 267 89 267 L 89 267 L 89 267 C 84 285 82 295 81 295 L 81 295 L 81 295 C 82 302 82 305 82 305 C 90 308 95 310 95 310 C 92 319 90 324 90 325 L 90 325 L 90 325 C 89 318 89 315 89 315 C 85 314 82 313 82 313 C 82 316 82 318 82 318 C 77 316 75 315 75 315 C 75 314 74 313 74 313 L 73 314 C 75 326 76 334 76 336 L 76 337 C 76 337 76 337 76 337 C 69 341 66 343 66 343 C 63 322 62 311 62 311 C 63 311 63 310 64 310 L 65 309 C 69 307 73 305 76 305 C 77 303 77 302 77 302 C 41 152 24 77 24 77 C 8 46 0 30 0 29 L 0 29 C 0 29 0 29 0 29 C 4 22 6 19 6 19 C 7 15 8 13 8 13 C 12 15 15 15 16 16 L 16 16 C 16 16 16 16 16 16 L 16 16 L 16 16 C 15 18 14 19 14 19 C 20 44 23 58 23 58 L 23 58 L 23 58 C 71 150 95 196 95 196 C 109 161 116 144 116 144 C 138 55 149 10 149 10 C 147 9 147 9 147 9 L 147 7 L 147 7 C 145 4 144 3 144 3 C 144 1 144 0 144 0 C 144 0 145 0 145 0 Z M 80 298 L 78 298 C 77 307 76 312 76 312 C 78 312 80 312 80 312 C 80 304 80 299 80 298 L 80 298 C 80 298 80 298 80 298 L 80 298 L 80 298 Z M 31 92 C 61 221 77 288 78 295 L 78 295 C 78 295 78 295 78 295 C 79 295 80 294 80 294 C 84 276 87 267 87 267 C 78 267 74 267 73 267 L 73 267 L 73 267 C 81 232 85 215 85 215 C 86 217 86 217 86 217 C 90 217 92 217 92 217 L 31 92 Z M 150 11 C 150 11 150 12 150 14 C 150 14 141 52 123 127 C 123 127 137 92 165 23 L 165 23 Z M 11 21 L 11 21 C 11 21 11 21 11 21 L 11 21 C 10 22 9 23 8 24 C 8 24 10 29 15 40 L 15 40 L 11 24 C 11 24 11 23 11 21 L 11 21 Z" fill="#200001" id="id-female-19_gunter_necklace-1">
</path >
<path d="M 102 202 C 98 212 95 217 95 217 L 99 218 C 101 207 102 202 102 202 Z" fill="#6a5f43" id="id-female-19_gunter_necklace-2">
</path >
<path d="M 88 217 C 95 217 99 218 99 218 C 99 204 99 198 99 198 L 94 197 C 47 105 23 59 23 59 C 25 68 26 72 26 72 L 88 196 L 88 217 Z" fill="#443a21" id="id-female-19_gunter_necklace-3">
</path >
<path d="M 98 202 C 96 199 96 197 96 197 C 108 167 114 153 114 153 L 109 175 C 102 193 98 202 98 202 Z" fill="#757364" id="id-female-19_gunter_necklace-4">
</path >
<path d="M 116 157 C 119 142 121 134 121 134 C 149 67 163 33 163 33 L 165 34 C 132 116 116 157 116 157 Z" fill="#443920" id="id-female-19_gunter_necklace-5">
</path >
<path d="M 18 57 C 9 38 5 29 5 29 L 8 26 L 15 40 C 17 51 18 57 18 57 Z" fill="#423922" id="id-female-19_gunter_necklace-6">
</path >
<path d="M 80 255 C 87 251 91 249 91 249 C 95 232 97 223 97 223 L 88 223 C 83 244 80 255 80 255 Z" fill="#4c463b" id="id-female-19_gunter_necklace-7">
</path >
<path d="M 93 248 C 97 232 99 223 99 223 C 100 223 101 223 101 223 L 106 242 C 97 246 93 248 93 248 Z" fill="#4f483e" id="id-female-19_gunter_necklace-8">
</path >
<path d="M 101 262 C 107 262 111 262 111 262 L 107 247 C 103 257 101 262 101 262 Z" fill="#40332b" id="id-female-19_gunter_necklace-9">
</path >
</g >
<defs >
<linearGradient x1="50%" y1="0%" x2="50%" y2="69%" id="id-female-24_face_boning-0">
<stop stop-color="#eadaf6" offset="0%">
</stop >
<stop stop-color="#979ee0" offset="100%">
</stop >
</linearGradient >
<linearGradient x1="50%" y1="0%" x2="50%" y2="69%" id="id-female-24_face_boning-0">
<stop stop-color="#eadaf6" offset="0%">
</stop >
<stop stop-color="#979ee0" offset="100%">
</stop >
</linearGradient >
<filter width="102%" height="105%" x="-1%" y="-1%" id="id-female-24_face_boning-2" filterUnits="objectBoundingBox">
<feOffset result="id-female-24_face_boning-3" in="SourceAlpha" dx="0" dy="3">
</feOffset >
<feColorMatrix in="id-female-24_face_boning-3" type="matrix" values="0 0 0 0 0 0 0 0 0 0 0 0 0 0 0 0 0 0 0.4 0">
</feColorMatrix >
</filter >
<path d="M 94 1 C 104 13 106 24 99 34 C 100 38 104 44 111 52 C 111 52 111 52 111 52 L 111 52 C 112 52 112 52 112 52 C 114 53 115 54 115 54 C 114 54 114 55 114 55 C 127 68 138 72 147 69 C 148 63 151 63 153 66 C 154 66 154 65 154 65 C 154 61 157 56 160 61 C 166 55 170 47 173 36 C 175 34 176 33 177 33 L 177 33 C 178 33 178 33 178 33 L 176 30 C 178 27 179 22 180 18 L 180 17 C 180 16 180 15 181 14 L 183 14 C 182 20 181 26 186 29 L 182 45 L 175 50 L 173 45 C 171 55 166 62 160 67 L 160 71 C 168 83 167 91 165 99 L 165 100 C 165 100 165 100 165 100 L 165 101 C 165 101 165 101 165 101 C 165 92 162 83 154 71 L 153 71 L 152 77 C 156 87 158 98 151 117 C 155 102 152 89 146 77 L 146 74 C 134 76 122 71 110 59 C 109 58 107 56 106 55 L 105 53 L 105 53 L 104 52 C 100 49 97 45 94 43 C 90 44 85 49 81 54 L 80 55 C 79 56 77 58 76 59 L 75 59 C 67 67 58 74 40 74 L 41 78 C 33 89 33 103 35 117 C 30 97 30 84 35 77 L 33 71 L 32 71 C 26 79 22 89 22 102 C 18 90 21 79 27 68 C 21 63 17 56 13 46 C 12 49 11 50 11 50 C 7 46 5 45 5 45 C 2 34 0 28 0 28 C 4 28 5 26 6 23 C 6 20 6 17 4 15 L 8 11 L 11 31 L 9 33 L 13 36 C 17 46 17 51 26 61 C 28 57 32 57 32 66 L 34 67 C 35 65 39 62 39 69 C 51 72 62 66 72 55 L 72 53 L 76 52 C 82 45 86 40 87 35 C 80 25 80 14 94 1 Z M 93 8 C 87 16 86 24 91 32 L 96 32 C 101 23 99 15 93 8 Z" id="id-female-24_face_boning-5">
</path >
<path d="M 94 1 C 104 13 106 24 99 34 C 100 38 104 44 111 52 C 111 52 111 52 111 52 L 111 52 C 112 52 112 52 112 52 C 114 53 115 54 115 54 C 114 54 114 55 114 55 C 127 68 138 72 147 69 C 148 63 151 63 153 66 C 154 66 154 65 154 65 C 154 61 157 56 160 61 C 166 55 170 47 173 36 C 175 34 176 33 177 33 L 177 33 C 178 33 178 33 178 33 L 176 30 C 178 27 179 22 180 18 L 180 17 C 180 16 180 15 181 14 L 183 14 C 182 20 181 26 186 29 L 182 45 L 175 50 L 173 45 C 171 55 166 62 160 67 L 160 71 C 168 83 167 91 165 99 L 165 100 C 165 100 165 100 165 100 L 165 101 C 165 101 165 101 165 101 C 165 92 162 83 154 71 L 153 71 L 152 77 C 156 87 158 98 151 117 C 155 102 152 89 146 77 L 146 74 C 134 76 122 71 110 59 C 109 58 107 56 106 55 L 105 53 L 105 53 L 104 52 C 100 49 97 45 94 43 C 90 44 85 49 81 54 L 80 55 C 79 56 77 58 76 59 L 75 59 C 67 67 58 74 40 74 L 41 78 C 33 89 33 103 35 117 C 30 97 30 84 35 77 L 33 71 L 32 71 C 26 79 22 89 22 102 C 18 90 21 79 27 68 C 21 63 17 56 13 46 C 12 49 11 50 11 50 C 7 46 5 45 5 45 C 2 34 0 28 0 28 C 4 28 5 26 6 23 C 6 20 6 17 4 15 L 8 11 L 11 31 L 9 33 L 13 36 C 17 46 17 51 26 61 C 28 57 32 57 32 66 L 34 67 C 35 65 39 62 39 69 C 51 72 62 66 72 55 L 72 53 L 76 52 C 82 45 86 40 87 35 C 80 25 80 14 94 1 Z M 93 8 C 87 16 86 24 91 32 L 96 32 C 101 23 99 15 93 8 Z" id="id-female-24_face_boning-5">
</path >
<linearGradient x1="91%" y1="59%" x2="4%" y2="42%" id="id-female-24_face_boning-7">
<stop stop-color="#9fa2e1" offset="0%">
</stop >
<stop stop-color="#e3d5f4" offset="100%">
</stop >
</linearGradient >
</defs >
<g transform="translate(567,430)" id="id-female-24_face_boning-8">
<g transform="translate(2,71)" id="id-female-24_face_boning-9">
<path d="M 8 78 C 12 42 13 24 13 24 C 9 15 7 10 7 10 C 8 4 8 0 8 0 C 6 0 5 0 5 0 C 5 7 5 10 5 10 L 0 15 L 8 78 Z" fill="url(#id-female-24_face_boning-0)" id="id-female-24_face_boning-10">
</path >
<polygon points="6 29 10 24 6 11 0 17" fill="#272648" id="id-female-24_face_boning-11">
</polygon >
<path d="M 4 26 C 7 24 8 22 8 22 C 6 18 5 16 5 16 L 1 20 C 3 24 4 26 4 26 Z" fill="#00d170" id="id-female-24_face_boning-12">
</path >
<path d="M 11 25 L 11 50 L 13 24 L 7 10 L 5 10 L 6 11 C 9 21 11 25 11 25 Z" fill="#979ee0" id="id-female-24_face_boning-13">
</path >
<path d="M 8 1 C 10 3 10 5 10 5 L 8 7 L 8 1 Z" fill="#48487a" id="id-female-24_face_boning-14">
</path >
</g >
<g transform="translate(178,111) scale(-1,1) translate(-178,-111) translate(171,72)" id="id-female-24_face_boning-15">
<path d="M 8 78 C 12 42 13 24 13 24 C 9 15 7 10 7 10 C 8 4 8 0 8 0 C 6 0 5 0 5 0 C 5 7 5 10 5 10 L 0 15 L 8 78 Z" fill="url(#id-female-24_face_boning-0)" id="id-female-24_face_boning-10">
</path >
<polygon points="6 29 10 24 6 11 0 17" fill="#272648" id="id-female-24_face_boning-11">
</polygon >
<path d="M 4 26 C 7 24 8 22 8 22 C 6 18 5 16 5 16 L 1 20 C 3 24 4 26 4 26 Z" fill="#00d170" id="id-female-24_face_boning-12">
</path >
<path d="M 11 25 L 11 50 L 13 24 L 7 10 L 5 10 L 6 11 C 9 21 11 25 11 25 Z" fill="#979ee0" id="id-female-24_face_boning-13">
</path >
<path d="M 8 1 C 10 3 10 5 10 5 L 8 7 L 8 1 Z" fill="#48487a" id="id-female-24_face_boning-14">
</path >
</g >
<g id="id-female-24_face_boning-21">
<use fill="#000000" fill-opacity="1" xlink:href="#id-female-24_face_boning-5" filter="url(#id-female-24_face_boning-2)">
</use >
<use fill="#474878" xlink:href="#id-female-24_face_boning-5" fill-rule="evenodd">
</use >
</g >
<polygon points="72 53 77 59 93 55 109 60 115 54 112 52 107 56 94 51 81 55 75 50" fill="#5c64a8" id="id-female-24_face_boning-25">
</polygon >
<path d="M 39 69 L 40 74 L 41 78 L 35 68 L 35 65 C 36 64 39 62 39 69 Z" fill="#979de0" id="id-female-24_face_boning-26">
</path >
<path d="M 31 71 L 33 68 L 33 66 C 33 66 32 66 32 66 L 32 62 C 31 58 29 57 27 60 L 31 71 Z" fill="#aface4" id="id-female-24_face_boning-27">
</path >
<path d="M 13 36 L 12 35 L 8 41 C 9 39 9 37 9 37 C 8 34 8 33 8 33 C 8 31 9 30 11 30 L 8 11 L 5 14 C 6 15 8 15 6 20 C 6 25 5 28 0 28 C 4 38 6 43 6 43 L 11 47 C 13 45 13 41 13 36 Z" fill="#8d95df" id="id-female-24_face_boning-28">
</path >
<path d="M 13 36 L 13 43 C 16 53 21 59 25 64 L 25 60 C 19 53 16 44 13 36 Z" fill="#beb6e0" id="id-female-24_face_boning-29">
</path >
<path d="M 26 61 C 29 62 31 62 31 62 C 31 68 31 71 31 71 L 26 70 C 27 69 27 68 27 68 L 26 67 C 26 63 26 61 26 61 Z" fill="#220d07" id="id-female-24_face_boning-30">
</path >
<polygon points="33 68 38 68 40 77 35 77" fill="#220d07" id="id-female-24_face_boning-31">
</polygon >
<path d="M 29 70 C 28 68 27 67 27 66 C 27 66 27 65 28 62 L 31 64 L 29 70 Z" fill="#00d170" id="id-female-24_face_boning-32">
</path >
<polygon points="34 73 37 77 39 73 38 70 37 68" fill="#00d170" id="id-female-24_face_boning-33">
</polygon >
<path d="M 40 77 L 35 77 C 29 88 31 102 35 117 C 33 101 33 86 40 77 Z" fill="#9b9de2" id="id-female-24_face_boning-34">
</path >
<path d="M 27 70 L 31 71 C 25 79 22 90 21 101 C 19 91 20 80 27 70 Z" fill="#bfb7e4" id="id-female-24_face_boning-35">
</path >
<path d="M 40 72 C 52 74 64 68 76 57 L 75 57 C 70 60 66 64 61 65 C 54 69 47 71 39 69 L 40 72 Z" fill="#8c94dc" id="id-female-24_face_boning-36">
</path >
<polyline points="81 55 80 58 72 53 75 50 81 55" fill="#eadaf6" id="id-female-24_face_boning-37">
</polyline >
<polygon points="80 57 93 54 110 59 107 56 94 51 81 55" fill="#9198dd" id="id-female-24_face_boning-38">
</polygon >
<polygon points="94 51 93 54 104 57 103 55" fill="#eadaf6" id="id-female-24_face_boning-39">
</polygon >
<path d="M 79 53 L 79 54 C 84 48 88 43 92 42 L 89 40 L 84 42 C 83 45 81 48 79 53 Z" fill="#8e96df" id="id-female-24_face_boning-40">
</path >
<path d="M 90 39 L 84 42 L 82 38 C 85 36 86 35 86 35 C 85 34 85 33 85 33 C 87 30 88 28 88 28 L 91 32 L 89 37 L 90 39 Z" fill="#220d07" id="id-female-24_face_boning-41">
</path >
<path d="M 86 32 C 87 31 88 30 88 30 C 89 31 89 32 89 32 L 88 34 C 87 33 86 32 86 32 Z" fill="#00d170" id="id-female-24_face_boning-42">
</path >
<path d="M 83 38 L 86 36 C 87 38 88 39 88 39 L 85 41 C 84 39 83 38 83 38 Z" fill="#00d170" id="id-female-24_face_boning-43">
</path >
<path d="M 94 41 L 99 34 C 108 19 101 10 94 1 L 94 7 C 100 11 102 26 96 32 L 91 32 L 89 36 L 94 41 Z" fill="#e4d6f4" id="id-female-24_face_boning-44">
</path >
<polygon points="93 29 89 34 94 40 98 33" fill="#220d07" id="id-female-24_face_boning-45">
</polygon >
<polygon points="94 37 91 34 93 31 96 34" fill="#00d170" id="id-female-24_face_boning-46">
</polygon >
<polygon points="96 40 102 44 105 39 99 35" fill="#220d07" id="id-female-24_face_boning-47">
</polygon >
<polygon points="101 42 98 40 99 36 103 38" fill="#00d170" id="id-female-24_face_boning-48">
</polygon >
<polygon points="98 28 101 31 99 35 96 31" fill="#220d07" id="id-female-24_face_boning-49">
</polygon >
<polygon points="99 30 97 32 99 34 101 31" fill="#00d170" id="id-female-24_face_boning-50">
</polygon >
<polygon points="93 11 88 20 93 29 98 22" fill="#272748" id="id-female-24_face_boning-51">
</polygon >
<polygon points="89 21 93 27 96 22 93 15" fill="#00d070" id="id-female-24_face_boning-52">
</polygon >
<polygon points="93 15 93 23 96 21" fill="#eadaf6" id="id-female-24_face_boning-53">
</polygon >
<path d="M 92 3 L 92 7 C 88 11 86 17 88 28 L 87 28 C 85 23 85 17 86 10 C 88 7 90 5 92 3 Z" fill="#8d96e0" id="id-female-24_face_boning-54">
</path >
<path d="M 92 0 C 94 0 95 0 95 0 C 95 5 95 7 95 7 L 93 8 C 92 3 92 0 92 0 Z" fill="#272648" id="id-female-24_face_boning-55">
</path >
<path d="M 96 42 C 98 44 100 45 100 45 L 108 55 C 110 53 111 52 111 52 C 105 46 103 42 103 42 L 97 40 C 96 41 96 42 96 42 Z" fill="#e9d8f4" id="id-female-24_face_boning-56">
</path >
<path d="M 114 55 C 113 56 112 56 112 56 C 112 58 112 59 112 59 C 123 69 134 74 147 72 L 147 69 C 137 72 126 67 114 55 Z" fill="url(#id-female-24_face_boning-7)" id="id-female-24_face_boning-57">
</path >
<path d="M 147 78 L 149 65 C 151 64 152 65 153 66 L 154 65 L 152 78 C 157 89 157 103 151 117 C 155 98 152 86 147 78 Z" fill="#aeade8" id="id-female-24_face_boning-58">
</path >
<path d="M 155 71 L 156 60 C 157 59 158 58 160 61 C 167 54 171 45 173 36 C 173 48 168 58 160 65 L 160 71 C 167 80 167 90 165 101 C 165 87 162 78 155 71 Z" fill="#bfb9eb" id="id-female-24_face_boning-59">
</path >
<path d="M 146 77 C 149 78 150 79 150 79 C 151 72 152 69 152 69 L 147 68 L 146 77 Z" fill="#220d07" id="id-female-24_face_boning-60">
</path >
<path d="M 150 70 C 148 72 147 72 147 72 C 148 76 148 77 148 77 L 151 73 L 150 70 Z" fill="#00d170" id="id-female-24_face_boning-61">
</path >
<path d="M 155 70 C 157 71 158 72 158 72 C 160 66 161 63 161 63 L 156 62 L 155 70 Z" fill="#220d07" id="id-female-24_face_boning-62">
</path >
<path d="M 158 64 C 156 65 155 66 155 66 C 156 69 157 70 157 70 L 160 66 C 159 65 158 64 158 64 Z" fill="#00d170" id="id-female-24_face_boning-63">
</path >
<path d="M 173 43 C 174 46 175 48 175 48 C 179 45 181 43 181 43 C 184 34 186 29 186 29 C 184 27 183 26 182 23 C 180 24 179 24 179 24 C 177 27 177 29 177 29 C 178 32 179 33 179 33 C 178 36 177 38 177 38 L 178 41 L 174 36 C 174 39 173 41 173 43 Z" fill="#8d95db" id="id-female-24_face_boning-64">
</path >
<path d="M 182 32 C 183 33 183 33 183 33 C 182 37 181 39 181 39 L 179 39 C 181 35 182 32 182 32 Z" fill="#00b900" id="id-female-24_face_boning-65">
</path >
<path d="M 177 29 C 178 27 178 26 178 26 C 183 27 185 28 185 28 L 184 31 C 179 31 176 30 177 29 Z" fill="#e6d6f5" id="id-female-24_face_boning-66">
</path >
<path d="M 2 30 C 2 31 3 32 3 32 C 7 30 9 29 9 29 L 9 26 C 4 28 2 30 2 30 Z" fill="#e6d6f5" id="id-female-24_face_boning-67">
</path >
</g >
<defs >
</defs >
<g transform="translate(546,314)" id="id-female-27_gunter_hat-0">
<path d="M 24 114 C 38 107 45 103 45 103 C 89 94 132 79 176 78 C 186 79 192 81 198 84 C 200 86 202 89 204 94 C 206 93 207 93 207 93 C 205 83 204 72 206 59 C 213 49 216 44 216 44 C 220 35 211 27 207 19 C 196 12 183 7 169 2 C 133 -3 100 1 70 13 C 51 30 7 49 0 98 C 3 105 5 108 5 108 C 16 106 22 105 22 105 L 17 110 C 22 113 24 114 24 114 Z" fill="#151515" id="id-female-27_gunter_hat-1">
</path >
<path d="M 0 98 C 3 99 5 99 5 99 C 35 80 38 51 60 21 C 23 44 3 70 0 98 Z" fill="#1c222e" id="id-female-27_gunter_hat-2">
</path >
<path d="M 91 83 C 116 78 128 76 128 76 C 125 51 123 38 123 38 L 80 45 C 87 70 91 83 91 83 Z" fill="#6a5d40" id="id-female-27_gunter_hat-3">
</path >
<path d="M 95 64 C 104 70 109 74 109 74 C 117 57 122 48 122 48 L 106 63 C 99 63 95 64 95 64 Z" fill="#ff456e" id="id-female-27_gunter_hat-4">
</path >
<path d="M 173 73 L 181 55 C 189 54 197 55 205 58 L 205 84 C 196 76 185 72 173 73 Z" fill="#1d2330" id="id-female-27_gunter_hat-5">
</path >
<path d="M 214 44 C 158 19 112 13 70 13 C 99 1 131 -3 168 3 C 181 6 194 11 205 19 C 210 28 220 37 214 44 Z" fill="#1d2431" id="id-female-27_gunter_hat-6">
</path >
</g >
<defs >
</defs >
<g transform="translate(1196,1648)" fill="#343d53" opacity="0.3" id="id-icons-Gunter-0">
<path d="M 42 50 L 42 37 C 43 37 44 38 44 38 C 44 38 44 38 44 38 C 45 38 44 38 45 38 L 46 39 C 46 39 48 40 48 41 L 49 41 C 49 41 49 41 49 41 C 49 41 49 41 49 41 L 50 42 C 50 42 50 42 51 42 C 51 42 51 42 51 43 C 51 44 52 44 52 45 L 52 48 C 52 49 53 52 53 52 C 53 52 53 52 53 52 C 53 53 53 53 53 53 C 53 53 54 56 54 56 C 53 56 53 56 52 56 C 51 55 51 55 51 55 L 50 54 C 49 54 49 54 49 54 C 48 53 48 54 48 53 C 48 53 48 53 47 53 L 46 52 C 46 52 45 52 45 52 C 45 52 45 51 44 51 C 44 51 44 51 44 51 C 43 51 43 50 42 50 L 42 50 Z M 25 54 C 25 53 25 51 25 50 C 26 49 26 49 26 48 C 26 47 26 46 26 45 C 26 45 26 45 26 45 L 27 43 C 27 42 27 42 27 42 L 28 42 C 28 42 28 42 28 42 L 30 40 C 30 40 30 40 30 40 C 31 40 31 40 31 40 L 32 39 C 32 39 33 39 33 38 C 34 38 33 38 34 38 C 34 38 35 37 36 37 L 36 41 C 36 44 36 48 36 50 C 35 51 36 50 35 51 C 34 51 34 51 34 51 C 33 51 33 52 32 52 C 32 52 31 52 31 53 C 31 53 31 53 31 53 L 31 53 C 31 53 31 53 31 53 L 30 53 C 30 53 30 53 29 54 L 27 55 C 27 55 27 55 27 55 C 26 55 26 55 26 56 C 26 56 26 56 25 56 L 24 56 L 25 54 L 25 54 Z M 17 57 C 17 57 17 57 17 57 C 16 57 15 57 15 56 L 14 56 C 14 56 14 56 14 56 C 13 56 13 56 13 56 L 12 55 C 12 55 11 55 11 54 C 11 54 11 54 10 54 L 9 53 C 9 53 9 52 9 52 C 10 51 10 52 10 51 C 10 50 11 48 11 48 C 12 47 12 46 12 45 C 13 45 13 45 13 44 L 13 43 C 14 43 14 43 14 42 C 14 42 14 42 14 42 C 14 42 14 42 14 41 C 14 41 14 41 15 41 L 15 39 C 16 38 17 36 17 36 C 17 36 17 36 17 36 L 18 37 C 18 37 18 37 18 37 L 19 38 C 19 38 19 38 20 38 L 20 39 C 21 40 20 42 20 42 C 20 43 20 42 20 43 L 19 46 C 19 46 19 46 19 47 L 19 50 C 19 50 19 50 19 51 L 17 57 L 17 57 Z M 0 57 C 1 57 1 57 2 57 L 3 58 C 3 58 3 58 3 58 L 6 59 C 6 59 6 59 7 60 C 7 60 7 60 7 60 L 14 63 C 14 63 16 64 16 64 C 16 64 16 64 16 64 C 16 64 17 64 17 64 L 20 66 C 20 66 20 66 21 66 L 24 64 C 24 64 24 64 24 64 C 24 64 24 64 25 64 L 29 61 C 29 61 29 61 29 61 C 30 61 30 61 31 60 C 31 60 32 60 32 60 C 32 59 33 59 33 59 C 33 59 33 59 33 59 C 33 59 33 59 33 59 C 34 58 34 58 35 58 L 36 57 C 37 57 39 56 39 56 C 39 56 40 56 40 56 L 45 59 C 45 59 45 59 46 59 C 46 60 46 60 47 60 L 51 63 C 51 63 51 63 51 63 L 53 63 C 53 63 53 63 53 64 L 55 65 C 55 65 55 65 56 65 C 56 65 56 65 56 65 L 58 66 C 58 66 59 66 59 65 C 60 65 60 65 60 65 C 61 65 61 65 62 64 C 62 64 62 64 63 64 L 65 62 C 66 62 66 62 67 62 L 70 60 C 70 60 70 60 70 60 C 71 60 71 60 72 60 C 72 59 74 59 74 58 C 75 58 76 58 77 57 C 77 57 77 57 78 57 C 78 56 77 55 77 54 C 77 54 77 54 77 54 C 77 53 76 53 76 53 L 76 52 C 76 51 75 51 75 51 L 75 50 C 75 50 75 50 75 50 L 75 49 C 74 49 74 48 74 48 L 74 47 C 73 47 73 46 73 46 C 73 45 73 45 72 45 C 72 44 72 44 72 44 L 70 39 C 69 38 70 39 69 38 C 69 38 69 38 69 37 C 69 37 69 36 68 36 C 68 36 68 36 68 35 C 68 35 68 35 68 35 C 68 34 68 34 67 34 L 67 36 C 67 36 66 37 66 37 C 66 38 66 38 66 38 L 66 39 C 65 39 65 40 65 40 C 65 41 65 41 65 42 L 65 42 C 65 42 65 42 65 42 L 64 42 C 64 43 64 43 64 43 L 65 44 C 65 44 65 44 65 45 L 66 46 C 66 46 66 46 66 46 L 67 49 C 67 49 68 49 68 50 L 68 52 C 69 52 69 52 69 53 C 69 53 69 53 69 53 C 69 54 68 54 67 54 L 65 55 C 65 56 65 56 64 56 C 63 56 63 56 63 56 C 62 57 62 57 61 57 C 61 57 61 57 61 57 C 60 57 60 55 60 54 L 60 53 C 60 53 60 53 60 52 C 59 52 59 50 59 50 L 59 48 C 59 48 59 47 59 46 C 58 45 58 44 58 43 C 58 43 58 42 58 42 C 58 42 58 41 58 41 C 58 41 57 41 57 39 C 58 39 58 39 58 39 L 57 38 C 57 38 57 38 57 38 L 57 37 C 57 37 57 37 57 37 C 57 37 57 37 57 37 C 57 36 57 36 57 36 L 56 34 C 56 34 55 33 55 32 C 55 33 55 33 55 33 L 54 34 C 53 34 53 34 53 35 C 52 36 53 36 51 35 L 48 33 C 48 32 46 32 46 31 L 44 30 C 44 30 43 30 43 29 L 39 27 L 38 27 C 38 27 38 27 38 28 L 34 30 C 34 30 32 31 32 32 L 26 35 C 26 35 26 36 25 35 C 25 35 25 34 24 34 L 21 31 C 21 31 21 31 21 30 L 18 27 C 18 27 18 27 17 27 C 17 27 17 27 17 27 C 17 27 17 27 17 27 C 17 26 17 26 16 26 C 16 26 15 25 15 25 L 15 25 C 15 25 15 25 15 25 L 13 28 C 13 28 13 28 13 28 L 12 31 C 11 32 11 33 11 33 L 10 34 C 10 34 10 34 10 34 C 10 35 10 35 10 35 C 10 35 10 35 10 35 L 9 36 C 9 37 9 37 9 37 C 9 38 9 38 9 38 C 8 38 8 39 8 39 C 8 40 7 41 7 41 C 7 41 7 42 6 42 C 6 43 6 43 6 43 C 6 44 5 45 5 45 L 5 46 C 5 47 4 47 4 47 L 4 48 C 4 48 4 49 3 49 C 3 50 3 50 3 51 C 2 51 2 52 2 52 L 1 53 C 1 54 1 54 1 54 L 0 56 C 0 56 0 56 0 57 L 0 57 Z" id="id-icons-Gunter-1">
</path >
<path d="M 62 35 L 62 33 C 62 33 63 32 63 32 C 63 32 63 32 63 32 C 63 31 63 31 63 31 C 63 30 63 31 63 30 C 63 30 63 30 63 30 C 63 30 64 30 64 29 L 64 28 C 64 28 64 28 64 27 C 65 27 65 26 65 25 L 68 18 C 68 18 68 17 68 17 L 69 15 C 69 15 69 15 69 14 L 71 10 C 71 9 71 8 72 8 C 72 7 72 7 72 7 C 72 6 72 6 72 6 L 74 1 C 74 1 74 0 74 0 C 74 0 74 0 73 1 L 71 3 C 71 3 71 3 71 3 L 67 6 C 67 6 67 7 67 7 L 62 11 C 62 11 62 11 62 11 C 61 11 62 11 61 11 L 60 10 C 60 10 60 10 60 9 C 60 9 60 9 60 9 L 58 8 C 58 8 58 8 57 7 C 57 7 57 7 57 7 C 57 7 57 7 57 7 L 55 6 C 55 5 54 5 54 4 C 54 4 53 4 53 4 L 49 0 C 49 0 49 0 49 0 C 49 0 49 0 49 0 L 49 1 C 49 1 50 1 50 2 C 50 2 50 2 50 2 C 50 3 50 3 50 4 C 51 4 51 5 51 5 C 51 5 51 5 51 5 C 51 6 51 7 52 7 C 52 7 52 7 52 8 L 53 10 C 53 11 53 10 53 11 L 53 12 C 53 12 54 12 54 13 C 54 13 55 15 55 16 C 55 17 55 17 55 17 C 55 17 55 17 55 17 C 56 18 56 18 56 19 C 56 19 56 19 56 19 C 56 19 56 20 56 20 C 56 20 56 20 56 20 L 57 21 C 57 21 57 22 57 22 C 57 23 57 23 57 23 C 57 23 58 24 58 24 C 58 24 58 25 58 26 C 59 26 59 26 59 26 C 59 27 59 27 59 27 C 59 28 59 28 59 28 L 60 29 C 60 29 60 29 60 29 L 61 32 C 61 32 61 33 61 33 L 62 34 C 62 35 62 35 62 35 L 62 35 Z" id="id-icons-Gunter-2">
</path >
<path d="M 13 6 C 13 7 14 8 14 8 C 14 8 14 8 15 8 C 15 8 15 8 15 9 L 16 10 C 16 10 16 10 16 10 L 18 11 C 18 11 18 11 18 11 L 16 13 C 16 13 16 13 16 13 L 14 15 C 14 15 14 15 14 15 L 13 16 C 12 17 13 17 13 18 C 14 18 14 18 14 18 L 17 21 C 17 21 17 21 17 21 C 17 21 17 21 17 21 L 18 20 C 18 20 18 20 19 20 C 19 20 19 20 19 20 L 20 19 C 20 18 20 18 20 18 C 20 18 20 18 20 18 L 21 17 C 22 17 22 16 22 16 C 23 17 24 18 24 18 L 25 19 C 25 19 25 19 25 19 L 25 19 C 26 19 26 20 26 20 C 26 20 26 20 26 20 C 26 20 26 20 26 20 C 27 21 27 21 27 21 C 27 21 27 21 27 21 L 27 21 C 28 22 28 21 28 21 L 29 20 C 29 20 30 19 30 19 C 31 19 31 18 32 17 C 32 17 32 16 32 16 L 29 13 C 29 13 29 13 29 13 L 27 12 C 27 12 27 12 27 12 C 27 11 27 11 27 11 C 28 11 28 11 28 11 C 28 10 29 10 29 9 C 29 9 30 9 30 8 L 30 8 C 31 8 31 7 31 7 C 32 7 32 7 32 6 C 32 6 32 6 32 6 C 31 5 31 5 31 5 L 28 2 C 28 2 28 2 28 2 C 28 2 28 2 28 2 C 28 2 28 2 28 2 C 28 2 27 2 27 3 L 26 3 C 26 3 26 3 26 3 C 26 4 26 4 25 4 C 25 4 25 4 25 4 C 25 5 25 5 24 5 C 24 5 24 6 23 6 C 23 6 23 6 23 6 C 23 6 23 7 22 7 C 22 7 22 6 22 6 C 22 6 22 6 22 6 L 21 6 C 21 6 21 5 21 5 L 20 5 C 20 5 20 5 20 4 L 19 4 C 19 4 19 4 19 4 L 18 2 C 17 2 17 1 17 2 C 17 2 16 3 16 3 C 16 3 16 3 15 3 L 15 4 C 15 4 15 4 15 4 C 14 5 14 5 14 5 L 13 6 C 13 6 13 6 13 6 L 13 6 Z" id="id-icons-Gunter-2">
</path >
</g >
</svg>