<?xml version="1.0" encoding="UTF-8"?><svg width="1320px" height="1760px" viewBox="0 0 1320 1760" version="1.1" xmlns="http://www.w3.org/2000/svg" xmlns:xlink="http://www.w3.org/1999/xlink"><defs></defs><g stroke="none" stroke-width="1" fill="none" id="id-31478" fill-rule="evenodd"><g id="id-31479"><rect fill="#1A161E" width="1320" height="1760" x="0" y="0" id="id-31480"></rect><g transform=" translate(660,890) rotate(-180) translate(-660,-889) translate(67,258)" fill="#302938" id="id-31481"><path d=" M 581,0 C 632,61 657,92 657,92 C 943,379 1089,525 1095,531 L 1095,531 L 1095,531 C 1044,588 1018,618 1016,620 L 1016,620 L 1016,620 C 1037,603 1054,589 1067,579 L 1069,577 C 1087,562 1097,554 1097,554 C 1085,597 1078,618 1078,618 C 1117,587 1136,572 1136,572 C 1166,603 1183,619 1185,622 L 1185,622 C 1185,622 1185,622 1186,622 L 1186,622 L 1186,622 C 989,819 871,936 834,974 L 830,977 C 830,978 829,978 829,979 L 826,981 C 826,982 825,982 825,982 L 824,984 C 823,985 822,985 822,986 L 821,987 C 821,987 821,987 821,987 C 823,973 824,967 824,967 C 782,1007 761,1027 761,1027 C 783,1017 795,1012 795,1012 C 660,1148 590,1217 586,1221 L 586,1221 L 586,1221 C 524,1159 491,1126 488,1123 L 488,1123 C 488,1123 488,1123 488,1123 C 421,1181 387,1211 386,1212 L 386,1212 L 386,1212 C 432,1164 461,1133 473,1121 L 474,1120 C 477,1116 479,1114 479,1114 C 474,1109 471,1107 471,1107 C 458,1119 452,1126 451,1126 L 451,1126 C 451,1126 451,1126 451,1126 C 439,1098 433,1084 433,1084 C 403,1107 387,1119 387,1119 C 419,1086 434,1069 434,1069 C 418,1054 410,1046 410,1046 C 464,984 490,954 490,954 L 403,1038 C 145,780 11,646 1,636 L 0,635 L 0,635 C 115,511 173,449 173,449 C 101,512 64,543 64,543 C 260,348 365,243 381,227 L 382,226 C 382,226 382,225 382,225 L 382,225 C 383,225 383,225 383,225 C 400,227 409,227 409,227 C 414,204 416,192 416,192 C 458,150 485,123 497,110 L 498,110 C 499,109 499,109 499,109 L 500,108 C 500,108 500,108 500,108 L 501,107 C 502,106 503,105 503,105 L 504,104 C 504,104 504,104 504,104 L 504,104 C 504,104 504,104 504,104 L 505,103 L 505,103 C 556,34 581,0 581,0 Z M 518,106 C 494,131 482,144 482,144 L 513,128 C 517,114 518,107 518,106 L 518,106 C 518,106 518,106 518,106 Z" id="id-31482"></path><path d=" M 395,1039 C 380,1051 373,1057 373,1057 C 362,1046 357,1041 357,1041 C 364,1031 368,1027 368,1027 L 297,946 C 362,1008 395,1039 395,1039 Z" id="id-31483"></path><path d=" M 526,1179 C 569,1235 590,1263 590,1263 C 658,1174 691,1130 691,1130 L 588,1241 C 547,1200 526,1179 526,1179 Z" id="id-31484"></path><path d=" M 952,866 C 957,866 959,867 959,867 C 1053,777 1100,732 1100,732 L 1111,708 C 1005,813 952,866 952,866 Z" id="id-31485"></path><path d=" M 1113,539 C 1099,579 1091,599 1091,599 L 1133,560 C 1119,546 1113,539 1113,539 Z" id="id-31486"></path><path d=" M 1081,497 C 1089,487 1092,482 1092,482 L 1034,449 C 1065,481 1081,497 1081,497 Z" id="id-31487"></path><path d=" M 643,61 C 625,38 616,26 616,26 L 639,40 C 642,54 643,61 643,61 Z" id="id-31488"></path></g></g></g><defs><linearGradient x1="52%" y1="14%" x2="49%" y2="91%" id="id-73985"><stop stop-color="#411823" offset="0%"></stop><stop stop-color="#250B12" offset="100%"></stop></linearGradient></defs><g transform=" translate(614,269)" id="id-73986"><path d=" M 77,45 C 106,44 126,53 137,73 C 147,93 144,111 127,127 C 151,133 165,150 168,177 C 172,204 158,224 127,237 C 150,247 161,259 161,272 C 161,285 149,302 124,325 L 94,332 C 95,312 91,274 84,218 C 76,162 74,105 77,45 Z" fill="url(#id-73985)" id="id-73987"></path><path d=" M 131,285 C 162,280 159,293 124,325 L 107,329 C 93,305 101,291 131,285 Z" fill="#471C28" id="id-73987"></path><path d=" M 133,281 C 171,245 150,310 127,306 C 104,301 95,317 133,281 Z" fill="#612D3B" id="id-73987"></path><path d=" M 131,136 C 154,138 165,157 165,192 C 162,175 151,146 145,165 C 140,177 135,167 131,136 Z" fill="#612D3B" id="id-73987"></path><path d=" M 86,49 C 108,48 123,55 130,72 C 141,96 136,86 122,75 C 116,70 112,71 115,96 C 116,103 96,75 82,73 C 72,59 98,66 104,66 C 118,66 112,61 86,49 Z" fill="#592533" id="id-73987"></path><path d=" M 5,69 C 0,47 -1,32 3,24 C 8,11 50,-14 81,11 C 102,27 104,47 88,71 C 78,67 65,64 49,63 C 33,62 18,64 5,69 Z" fill="#2E1018" id="id-73992"></path><path d=" M 16,44 C 3,39 1,26 3,24 C 8,11 50,-14 81,11 C 84,13 44,13 46,15 C 49,18 78,22 81,26 C 84,29 44,23 45,30 C 45,33 81,34 88,40 C 92,45 84,46 63,45 C 41,48 25,47 16,44 Z" fill="#461C27" id="id-73992"></path><path d=" M 47,41 C 27,41 16,40 14,38 C 10,35 7,25 11,18 C 13,14 23,10 40,6 C 30,11 24,15 22,18 C 21,24 47,29 32,32 C 22,33 27,36 47,41 Z" fill="#7B3F50" id="id-73994"></path></g><defs></defs><g transform=" translate(323,556)" id="id-75605"><path d=" M 121,748 L 89,762 L 5,737 C 3,734 0,727 1,726 C 2,724 28,718 28,718 L 50,721 L 54,722 L 79,724 L 121,748 Z" fill="#0C424F" id="id-75606"></path><polygon points="547 751 531 739 561 719 606 712 610 713 639 722" fill="#0C424F" id="id-75606"></polygon><path d=" M 436,40 L 329,149 C 309,125 247,46 222,30 L 222,26 C 313,-22 381,7 434,25 C 434,30 432,35 436,40 Z" fill="#067E53" id="id-75606"></path><path d=" M 529,742 L 533,738 C 541,744 546,747 548,747 C 551,748 579,740 633,722 L 643,726 C 583,745 552,755 548,754 C 544,753 538,749 529,742 Z" fill="#210F10" id="id-75609"></path><path d=" M 4,757 L 12,749 C 22,754 28,756 31,757 C 33,758 63,751 120,736 L 122,742 C 65,757 34,764 31,764 C 27,763 18,761 4,757 Z" transform=" translate(63,750) scale(-1,1) translate(-63,-750)" fill="#210F10" id="id-75609"></path><path d=" M 433,36 L 434,36 L 401,64 L 369,71 L 369,63 L 395,60 L 427,31 L 407,22 L 382,18 L 287,15 L 257,21 L 230,31 L 257,56 L 292,60 L 292,66 C 247,60 257,65 220,38 C 222,35 222,30 222,26 C 314,-22 381,7 434,25 C 434,25 433,36 433,36 Z" fill="#210F10" id="id-75606"></path></g><defs><linearGradient x1="100%" y1="46%" x2="12%" y2="47%" id="id-74687"><stop stop-color="#C77F5B" offset="0%"></stop><stop stop-color="#C17A5B" offset="21%"></stop><stop stop-color="#EEC59E" offset="46%"></stop><stop stop-color="#E4A677" offset="80%"></stop><stop stop-color="#E0A679" offset="100%"></stop></linearGradient><linearGradient x1="53%" y1="81%" x2="50%" y2="21%" id="id-74688"><stop stop-color="#CD885B" offset="0%"></stop><stop stop-color="#DE9362" offset="24%"></stop><stop stop-color="#DF9352" offset="100%"></stop></linearGradient><linearGradient x1="52%" y1="-4%" x2="46%" y2="70%" id="id-74689"><stop stop-color="#BE7C52" offset="0%"></stop><stop stop-color="#B26F41" offset="100%"></stop></linearGradient><linearGradient x1="46%" y1="43%" x2="15%" y2="43%" id="id-74690"><stop stop-color="#E09C61" offset="0%"></stop><stop stop-color="#B86E3C" offset="100%"></stop></linearGradient><linearGradient x1="54%" y1="37%" x2="12%" y2="72%" id="id-74691"><stop stop-color="#53161C" offset="0%"></stop><stop stop-color="#99554B" offset="100%"></stop></linearGradient><linearGradient x1="40%" y1="14%" x2="61%" y2="85%" id="id-74692"><stop stop-color="#6E3017" offset="0%"></stop><stop stop-color="#855820" offset="100%"></stop></linearGradient><linearGradient x1="27%" y1="47%" x2="91%" y2="49%" id="id-74693"><stop stop-color="#D4917E" offset="0%"></stop><stop stop-color="#FFCBB7" offset="100%"></stop></linearGradient><linearGradient x1="47%" y1="60%" x2="49%" y2="79%" id="id-74694"><stop stop-color="#E79066" offset="0%"></stop><stop stop-color="#E08F62" offset="60%"></stop><stop stop-color="#EDAF7D" offset="100%"></stop></linearGradient><linearGradient x1="29%" y1="56%" x2="69%" y2="53%" id="id-74695"><stop stop-color="#D49053" offset="0%"></stop><stop stop-color="#CD8A51" offset="8%"></stop><stop stop-color="#DA8359" offset="18%"></stop><stop stop-color="#D6935A" offset="38%"></stop><stop stop-color="#D08C58" offset="65%"></stop><stop stop-color="#CD7D52" offset="81%"></stop><stop stop-color="#BD754A" offset="100%"></stop></linearGradient><linearGradient x1="47%" y1="45%" x2="54%" y2="46%" id="id-74696"><stop stop-color="#D27F4C" offset="0%"></stop><stop stop-color="#C97947" offset="62%"></stop><stop stop-color="#BC703A" offset="77%"></stop><stop stop-color="#D18C59" offset="100%"></stop></linearGradient><linearGradient x1="51%" y1="7%" x2="50%" y2="100%" id="id-74697"><stop stop-color="#D27748" offset="0%"></stop><stop stop-color="#E29F6D" offset="75%"></stop><stop stop-color="#DA986B" offset="100%"></stop></linearGradient><linearGradient x1="51%" y1="11%" x2="49%" y2="93%" id="id-74698"><stop stop-color="#DC915F" offset="0%"></stop><stop stop-color="#D58E5B" offset="73%"></stop><stop stop-color="#E39D67" offset="100%"></stop></linearGradient><linearGradient x1="51%" y1="-5%" x2="48%" y2="96%" id="id-74699"><stop stop-color="#D68F5B" offset="0%"></stop><stop stop-color="#CC8352" offset="100%"></stop></linearGradient><linearGradient x1="50%" y1="19%" x2="50%" y2="69%" id="id-74700"><stop stop-color="#B46C3C" offset="0%"></stop><stop stop-color="#70411F" offset="45%"></stop><stop stop-color="#996644" offset="100%"></stop></linearGradient><linearGradient x1="46%" y1="74%" x2="39%" y2="35%" id="id-74701"><stop stop-color="#B06F3A" offset="0%"></stop><stop stop-color="#C66D4A" offset="51%"></stop><stop stop-color="#9F6A38" offset="100%" stop-opacity="0"></stop></linearGradient><linearGradient x1="46%" y1="16%" x2="49%" y2="82%" id="id-74702"><stop stop-color="#9B573D" offset="0%" stop-opacity="0.190"></stop><stop stop-color="#5F3720" offset="100%"></stop></linearGradient><linearGradient x1="41%" y1="19%" x2="50%" y2="100%" id="id-74703"><stop stop-color="#BE6F4B" offset="0%"></stop><stop stop-color="#9E5637" offset="100%"></stop></linearGradient><linearGradient x1="50%" y1="31%" x2="45%" y2="50%" id="id-74704"><stop stop-color="#CC7848" offset="0%"></stop><stop stop-color="#EDA871" offset="100%"></stop></linearGradient><linearGradient x1="51%" y1="22%" x2="50%" y2="100%" id="id-74705"><stop stop-color="#B0683C" offset="0%"></stop><stop stop-color="#BD7658" offset="100%"></stop></linearGradient><linearGradient x1="49%" y1="0%" x2="50%" y2="100%" id="id-74706"><stop stop-color="#D48549" offset="0%"></stop><stop stop-color="#E29159" offset="100%"></stop></linearGradient><linearGradient x1="44%" y1="15%" x2="50%" y2="100%" id="id-74707"><stop stop-color="#B76538" offset="0%"></stop><stop stop-color="#A6633C" offset="100%"></stop></linearGradient><linearGradient x1="52%" y1="21%" x2="49%" y2="83%" id="id-74708"><stop stop-color="#DE8850" offset="0%"></stop><stop stop-color="#E78E5D" offset="48%"></stop><stop stop-color="#E29E63" offset="100%"></stop></linearGradient><linearGradient x1="85%" y1="60%" x2="15%" y2="60%" id="id-74709"><stop stop-color="#D27C44" offset="0%"></stop><stop stop-color="#C06A37" offset="100%"></stop></linearGradient><linearGradient x1="50%" y1="-3%" x2="59%" y2="91%" id="id-74710"><stop stop-color="#CC885C" offset="0%"></stop><stop stop-color="#C6814F" offset="53%"></stop><stop stop-color="#C2794D" offset="66%"></stop><stop stop-color="#BA6B3C" offset="100%"></stop></linearGradient><linearGradient x1="55%" y1="48%" x2="46%" y2="33%" id="id-74711"><stop stop-color="#CE8355" offset="0%"></stop><stop stop-color="#DF905F" offset="86%"></stop><stop stop-color="#D48F57" offset="100%"></stop></linearGradient><linearGradient x1="50%" y1="19%" x2="50%" y2="78%" id="id-74712"><stop stop-color="#914919" offset="0%"></stop><stop stop-color="#AB5722" offset="50%"></stop><stop stop-color="#845026" offset="100%"></stop></linearGradient><linearGradient x1="50%" y1="10%" x2="50%" y2="43%" id="id-74713"><stop stop-color="#C27B41" offset="0%"></stop><stop stop-color="#C77E4A" offset="15%"></stop><stop stop-color="#995B2A" offset="68%"></stop><stop stop-color="#B97842" offset="100%"></stop></linearGradient><linearGradient x1="89%" y1="50%" x2="7%" y2="52%" id="id-74714"><stop stop-color="#8E4D2A" offset="0%"></stop><stop stop-color="#B77B5B" offset="53%" stop-opacity="0.199"></stop><stop stop-color="#A66134" offset="75%"></stop><stop stop-color="#8B532C" offset="100%"></stop></linearGradient><linearGradient x1="44%" y1="70%" x2="86%" y2="30%" id="id-74715"><stop stop-color="#E0A476" offset="0%"></stop><stop stop-color="#E8AD86" offset="100%"></stop></linearGradient><linearGradient x1="33%" y1="92%" x2="61%" y2="25%" id="id-74716"><stop stop-color="#BE7342" offset="0%"></stop><stop stop-color="#D48F5D" offset="40%"></stop><stop stop-color="#EFBC8E" offset="100%"></stop></linearGradient><linearGradient x1="35%" y1="94%" x2="47%" y2="12%" id="id-74717"><stop stop-color="#D99461" offset="0%"></stop><stop stop-color="#D28A5A" offset="40%"></stop><stop stop-color="#E8B587" offset="100%"></stop></linearGradient><linearGradient x1="50%" y1="54%" x2="27%" y2="9%" id="id-74718"><stop stop-color="#F7AB80" offset="0%"></stop><stop stop-color="#DDAB90" offset="100%" stop-opacity="0.078"></stop></linearGradient><linearGradient x1="50%" y1="0%" x2="93%" y2="69%" id="id-74719"><stop stop-color="#DCA37F" offset="0%"></stop><stop stop-color="#DDA16B" offset="70%"></stop><stop stop-color="#C66D49" offset="100%"></stop></linearGradient><linearGradient x1="36%" y1="84%" x2="25%" y2="44%" id="id-74720"><stop stop-color="#C98762" offset="0%" stop-opacity="0.509"></stop><stop stop-color="#90492C" offset="35%" stop-opacity="0.675"></stop><stop stop-color="#762E17" offset="100%" stop-opacity="0"></stop></linearGradient><linearGradient x1="63%" y1="95%" x2="43%" y2="20%" id="id-74721"><stop stop-color="#D38E55" offset="0%"></stop><stop stop-color="#E4A97D" offset="46%"></stop><stop stop-color="#CE824B" offset="100%"></stop></linearGradient><linearGradient x1="40%" y1="0%" x2="50%" y2="86%" id="id-74722"><stop stop-color="#DEA071" offset="0%"></stop><stop stop-color="#C27945" offset="100%"></stop></linearGradient><linearGradient x1="50%" y1="0%" x2="50%" y2="92%" id="id-74723"><stop stop-color="#E0A272" offset="0%"></stop><stop stop-color="#DCA16F" offset="100%"></stop></linearGradient><linearGradient x1="33%" y1="79%" x2="21%" y2="44%" id="id-74724"><stop stop-color="#BE6457" offset="0%"></stop><stop stop-color="#983F32" offset="28%" stop-opacity="0.928"></stop><stop stop-color="#762E17" offset="100%" stop-opacity="0"></stop></linearGradient><linearGradient x1="4%" y1="47%" x2="92%" y2="45%" id="id-74725"><stop stop-color="#752B0F" offset="0%"></stop><stop stop-color="#83391D" offset="17%" stop-opacity="0.753"></stop><stop stop-color="#9E4B3D" offset="48%" stop-opacity="0.386"></stop><stop stop-color="#94401F" offset="78%" stop-opacity="0.762"></stop><stop stop-color="#88391A" offset="100%"></stop></linearGradient><linearGradient x1="60%" y1="45%" x2="67%" y2="53%" id="id-74726"><stop stop-color="#D79463" offset="0%"></stop><stop stop-color="#FFC6B2" offset="100%"></stop></linearGradient><linearGradient x1="48%" y1="15%" x2="54%" y2="81%" id="id-74727"><stop stop-color="#D99776" offset="0%" stop-opacity="0.400"></stop><stop stop-color="#E5A875" offset="100%"></stop></linearGradient><linearGradient x1="47%" y1="44%" x2="50%" y2="61%" id="id-74728"><stop stop-color="#943B2F" offset="0%" stop-opacity="0.175"></stop><stop stop-color="#61301B" offset="100%"></stop></linearGradient><linearGradient x1="26%" y1="-7%" x2="50%" y2="96%" id="id-74729"><stop stop-color="#37373F" offset="0%"></stop><stop stop-color="#19191D" offset="100%"></stop></linearGradient><linearGradient x1="50%" y1="12%" x2="59%" y2="82%" id="id-74730"><stop stop-color="#252525" offset="0%"></stop><stop stop-color="#101010" offset="100%"></stop></linearGradient><linearGradient x1="25%" y1="-16%" x2="50%" y2="98%" id="id-74731"><stop stop-color="#37373F" offset="0%"></stop><stop stop-color="#19191D" offset="100%"></stop></linearGradient><linearGradient x1="75%" y1="39%" x2="50%" y2="93%" id="id-74732"><stop stop-color="#252525" offset="0%"></stop><stop stop-color="#000000" offset="100%"></stop></linearGradient></defs><g transform=" translate(334,549)" id="id-74733"><polygon points="561 754 565 871 565 881 537 893 533 897 535 901 532 909 543 910 597 864" fill="#562003" id="id-74734"></polygon><polygon points="537 282 539 246 535 195 529 158 522 137 484 118 440 111 212 111 188 113 157 123 121 139 111 186 108 221 109 290" fill="url(#id-74687)" id="id-74734"></polygon><polygon points="467 393 474 506 503 589 537 672 556 728 561 754 546 794 552 851 551 861 552 874 556 885 567 882 568 866 570 860 570 843 571 834 576 843 576 859 579 864 573 874 571 884 544 903 541 916 582 901 597 864 607 852 600 821 597 716 589 695 582 655 569 523 544 425" fill="url(#id-74688)" id="id-74734"></polygon><polygon points="546 794 552 851 551 861 552 874 556 885 567 882 568 866 570 860 570 843 571 834 576 843 576 859 579 864 573 874 571 884 544 903 541 916 582 901 597 864 583 871 588 855 573 815 561 823" fill="url(#id-74689)" id="id-74734"></polygon><polygon points="552 851 551 861 552 874 556 887 567 884 568 866 570 860 558 860" fill="#8A5125" id="id-74734"></polygon><polygon points="544 906 541 916 582 901 571 889" fill="#92502A" id="id-74734"></polygon><polygon points="561 754 548 789 566 819 586 806" fill="#BD8171" id="id-74734"></polygon><polygon points="486 648 477 599 453 529 440 504 437 490 439 460 449 402 456 340 188 343 198 411 202 493 162 596 153 638 266 693 319 721 386 693" fill="url(#id-74690)" id="id-74734"></polygon><polygon points="486 648 477 599 453 529 440 504 437 490 439 460 449 402 456 340 296 353 376 634" fill="#D8965F" id="id-74734"></polygon><g transform=" translate(188,0)" id="id-74743"><polygon points="274 114 253 111 232 100 201 76 188 58 184 1 93 1 88 64 25 111 1 113 103 123 121 135 134 138 149 121 161 117 187 119 225 114" fill="#D18C5E" id="id-74734"></polygon><polygon points="201 76 188 58 185 12 175 57 155 111 185 73" fill="#EDAD85" id="id-74734"></polygon><polygon points="149 1 93 1 88 64 108 126 121 135 133 138" fill="#C1844F" id="id-74734"></polygon><polygon points="116 102 120 113 118 115 136 135 150 119 164 71 125 108" fill="#B57449" id="id-74747"></polygon><polygon points="121 127 133 138 145 124" fill="#9F593A" id="id-74748"></polygon><polygon points="136 98 164 71 175 57 186 17 134 51" fill="#D9986E" id="id-74749"></polygon><polygon points="97 96 116 80 164 60 178 48 186 17 184 1 93 1 88 64 45 96" fill="#A3663F" opacity="0.654" id="id-74734"></polygon><polygon points="186 17 184 1 93 1 88 64 45 96 66 96" fill="url(#id-74691)" opacity="0.467" id="id-74734"></polygon><polygon points="123 58 176 23 186 17 184 1 93 1 91 22 108 55" fill="#3B1D0B" opacity="0.434" id="id-74734"></polygon></g><polygon points="41 844 33 856 36 895 64 915 84 911 83 903 71 898 72 892 63 884 52 849" fill="url(#id-74692)" id="id-74734"></polygon><polygon points="315 152 285 173 320 188 357 166" fill="#FBC799" id="id-74754"></polygon><polygon points="327 150 370 130 342 127" fill="#D99C66" id="id-74755"></polygon><polygon points="301 142 303 148 243 131 240 119 276 119" fill="#D89462" id="id-74756"></polygon><polygon points="159 149 206 123 269 123 303 144 297 118 188 113 157 123 121 139" fill="url(#id-74693)" id="id-74734"></polygon><polygon points="157 123 121 139 153 167 196 134" fill="#EEB898" id="id-74734"></polygon><polygon points="89 584 77 541 62 551 45 658 34 712 25 741 25 762 10 817 0 845 14 870 25 901 58 919 72 919 69 913 61 905 50 899 37 874 37 852 43 845 52 855 50 887 56 901 64 905 66 901 66 882 72 836 72 800 69 781 64 773 66 735 85 684 121 599 162 510" fill="url(#id-74694)" id="id-74734"></polygon><polygon points="89 584 77 541 62 551 45 658 48 715 121 599 162 510" fill="#D58D5D" id="id-74734"></polygon><polygon points="55 843 45 827 37 848 17 852 8 836 5 851 0 845 14 870 25 901 58 919 72 919 69 913 61 905 50 899 37 874 37 852 43 845 52 855 50 887 56 901 64 905 66 901 66 882 72 836" fill="#D18653" id="id-74734"></polygon><polygon points="53 882 52 892 56 901 64 905 66 901 66 882 67 876" fill="#C07847" id="id-74734"></polygon><polygon points="25 901 58 919 72 919 62 909 37 895" fill="#C07847" id="id-74734"></polygon><polygon points="160 467 145 488 108 578 45 777 48 797 64 773 66 735 85 684 121 599 162 510" fill="#AC6130" id="id-74734"></polygon><polygon points="169 1211 277 1211 282 1183 281 1150 284 1127 286 1114 285 1063 293 972 306 866 311 792 309 768 323 771 337 768 333 817 333 855 339 924 346 1008 348 1113 351 1130 353 1176 361 1211 461 1211 458 1191 456 1170 460 1133 461 1082 505 905 516 839 518 826 512 762 503 706 486 648 482 629 386 690 318 718 266 690 184 629 153 637 132 731 119 781 118 813 123 862 131 916 166 1094 176 1179" fill="url(#id-74695)" id="id-74734"></polygon><polygon points="463 664 416 771 400 819 392 1125 359 1178 398 1204 441 1153 461 1082 505 905 516 839 518 826 515 789 490 714" fill="url(#id-74696)" id="id-74734"></polygon><polygon points="422 1160 395 1199 365 1171 401 1149 384 1120 391 983 411 786 416 771 448 697 454 1013 445 1116 407 1149" fill="url(#id-74697)" id="id-74767"></polygon><polygon points="121 139 111 186 108 221 109 290 96 438 89 464 69 510 89 585 162 510 167 425 162 241" fill="url(#id-74698)" id="id-74734"></polygon><polygon points="101 466 103 488 106 510 160 447 179 359 164 232 187 184 186 179 132 181 161 234 161 321 149 376 151 384 123 461 114 466" fill="url(#id-74699)" id="id-74769"></polygon><polygon points="96 438 89 464 69 510 51 621 101 520 96 476" fill="#FFB988" id="id-74734"></polygon><polygon points="96 451 128 365 134 316 121 139 111 186 108 221 109 290 96 438" fill="#C57E4B" id="id-74734"></polygon><polygon points="184 241 177 248 162 225 138 289 161 321 170 375 161 420 151 411 162 510 167 425 188 343" fill="url(#id-74700)" id="id-74734"></polygon><polygon points="284 1127 286 1114 285 1063 293 972 306 866 311 792 309 768 323 771 337 768 333 817 333 855 339 924 346 1008 375 889 416 771 463 664 490 714 515 790 512 762 503 706 486 648 477 599 471 583 420 650 316 720 201 654 244 742 264 824 275 994" fill="url(#id-74701)" id="id-74734"></polygon><polygon points="298 930 306 866 311 792 309 768 323 771 337 768 333 817 333 855 336 894 347 826 360 784 378 733 388 687 321 739 254 687 267 736 291 821" fill="url(#id-74702)" id="id-74734"></polygon><polygon points="348 1093 348 1113 351 1130 353 1176 361 1211 461 1211 439 1155 422 1136 403 1148 429 1168 400 1202 370 1170 382 1125" fill="url(#id-74703)" id="id-74734"></polygon><polygon points="10 855 8 836 5 851 0 845 14 870" fill="#AF5F3E" id="id-74734"></polygon><polygon points="520 500 516 520 544 629 474 500 490 399" fill="url(#id-74704)" id="id-74777"></polygon><polygon points="461 1211 458 1191 456 1170 460 1133 461 1082 439 1155 450 1211" fill="url(#id-74705)" id="id-74734"></polygon><polygon points="220 1149 259 1115 240 1063 232 973 266 819 240 713 201 661 158 650 201 784 183 925 170 1083" fill="url(#id-74706)" id="id-74779"></polygon><polygon points="169 1211 277 1211 282 1183 281 1150 284 1127 286 1114 286 1098 226 1211 207 1211 196 1121 173 1078 150 1014 166 1094 176 1179" fill="url(#id-74707)" id="id-74734"></polygon><polygon points="173 1078 183 924 150 1014" fill="#C57442" id="id-74734"></polygon><polygon points="169 1211 239 1211 230 1196 204 1175 173 1150 176 1179" fill="#8E512E" opacity="0.574" id="id-74734"></polygon><polygon points="221 1130 240 1097 224 1063 224 983 240 804 217 698 190 668 212 771 212 910 190 998 181 1094" fill="url(#id-74708)" id="id-74779"></polygon><polygon points="217 795 221 692 200 667 169 658 200 737" fill="#F0A76B" id="id-74784"></polygon><polygon points="511 476 492 419 481 447 484 356 521 274 533 417" fill="url(#id-74709)" id="id-74785"></polygon><polygon points="569 523 544 425 542 346 537 282 539 246 535 195 529 158 522 137 494 161 419 158 471 211 516 290 525 411 511 477 518 507 535 462 562 543" fill="url(#id-74710)" id="id-74734"></polygon><polygon points="486 389 533 243 501 167 464 207 451 247 463 265" fill="url(#id-74711)" id="id-74787"></polygon><polygon points="473 490 474 506 503 589 537 672 556 728 561 754 567 712 543 623" fill="#AD6139" id="id-74734"></polygon><polygon points="460 328 466 378 474 506 490 425 486 392 469 274 479 230 461 260 454 251" fill="url(#id-74712)" id="id-74734"></polygon><polygon points="440 504 437 490 439 460 449 402 456 340 458 328 325 282 188 343 198 411 202 493 162 596 157 621 161 633 169 599 173 570 204 506 202 458 217 402 286 365 321 352 353 360 422 402 431 493 437 520" fill="url(#id-74713)" id="id-74734"></polygon><polygon points="451 385 456 340 458 328 364 340 330 308 268 343 188 343 194 379 262 368 312 343 335 340 381 368" fill="url(#id-74714)" id="id-74734"></polygon><polygon points="286 328 306 310 330 274 453 252 464 205 421 156 317 204 219 165 210 154 188 180" fill="url(#id-74715)" id="id-74792"></polygon><path d=" M 422,195 L 405,190 C 377,190 357,198 343,214 C 329,230 322,250 323,276 C 324,301 331,320 345,333 C 365,351 384,356 405,356 C 425,356 444,347 450,342 C 454,339 457,335 460,328 C 463,323 466,317 467,308 C 469,294 466,276 457,254 L 422,195 Z" fill="url(#id-74716)" id="id-74793"></path><path d=" M 422,195 L 417,175 C 386,188 366,196 358,201 C 355,203 351,206 348,208 C 348,209 381,253 448,342 C 454,338 459,332 463,324 C 469,310 469,301 469,293 C 469,287 465,275 459,257 L 422,195 Z" fill="url(#id-74717)" id="id-74793"></path><path d=" M 375,226 C 338,253 343,276 343,284 C 343,291 353,319 371,335 C 379,342 422,349 447,331 C 468,316 472,294 458,265 C 427,221 400,208 375,226 Z" fill="url(#id-74718)" opacity="0.282" id="id-74793"></path><path d=" M 272,205 C 260,199 243,200 221,209 C 187,227 169,258 168,303 C 167,319 184,342 190,346 C 197,351 212,356 239,353 C 257,351 272,344 284,333 C 303,312 312,288 309,260 C 305,217 291,214 272,205 Z" fill="url(#id-74719)" id="id-74796"></path><path d=" M 340,285 C 333,252 328,240 326,248 C 324,254 323,263 323,276 C 324,301 331,320 345,333 C 365,351 382,356 404,356 C 425,356 444,347 450,342 C 456,337 465,325 468,308 C 472,290 465,276 463,268 C 461,263 460,259 458,255 L 442,290 L 399,304 L 366,300 L 340,285 Z" fill="url(#id-74720)" id="id-74793"></path><path d=" M 153,637 L 149,654 L 132,731 L 130,739 C 133,730 135,723 137,718 C 140,709 147,691 149,680 C 151,671 155,655 161,633 L 172,570 L 162,596 L 153,637 Z" fill="#7D362E" id="id-74734"></path><path d=" M 259,203 C 254,199 240,185 217,163 L 210,153 L 186,180 C 192,211 192,231 186,239 C 175,256 168,277 168,303 C 168,324 190,352 239,344 C 252,342 274,217 259,203 Z" fill="#E3A87C" id="id-74796"></path><polygon points="175 565 203 550 234 558 241 520 203 455 203 507" fill="#A95E2E" id="id-74800"></polygon><polygon points="241 442 241 518 229 556 233 629 266 657 316 707 381 659 395 629 364 504 350 504 301 380" fill="url(#id-74721)" id="id-74801"></polygon><polygon points="432 626 427 589 407 518 414 505 450 568 470 618" fill="url(#id-74722)" id="id-74802"></polygon><polygon points="302 376 254 442 254 546 302 590 364 568 364 504 350 504 376 454 345 400" fill="url(#id-74723)" id="id-74801"></polygon><polygon points="317 480 342 436 319 413 300 447" fill="#E6B183" id="id-74804"></polygon><polygon points="304 541 318 507 329 541 314 549" fill="#BA703E" id="id-74805"></polygon><polygon points="306 543 316 578 329 541" fill="#D4925E" id="id-74806"></polygon><path d=" M 178,333 C 179,334 180,336 182,338 C 184,342 186,343 189,346 C 190,347 197,351 206,353 C 215,354 226,355 239,353 C 257,351 272,344 284,333 C 293,322 299,313 302,305 C 304,301 307,293 309,277 C 310,274 310,268 309,260 L 228,277 L 207,295 L 178,333 Z" fill="url(#id-74724)" id="id-74796"></path><polygon points="306 543 308 550 324 556 329 541" fill="#E6B183" id="id-74806"></polygon><polygon points="308 543 318 525 323 542 314 548" fill="#8F4427" id="id-74809"></polygon><polygon points="152 641 162 596 176 561 185 617 214 602 246 628 323 690 404 628 423 605 454 605 470 577 477 599 482 629 388 689 337 768 323 771 309 768 259 688 175 639 142 688" fill="url(#id-74725)" opacity="0.442" id="id-74810"></polygon><polygon points="490 154 522 137 484 118 412 123" fill="url(#id-74726)" id="id-74734"></polygon><polygon points="573 785 588 829 602 858 607 852 600 821 597 716 576 763" fill="#E19271" id="id-74734"></polygon><polygon points="574 722 589 695 582 655 533 542" fill="url(#id-74727)" id="id-74734"></polygon><polygon points="172 640 241 690 309 768 323 771 338 768 395 706 469 661 404 650 313 706 217 629" fill="url(#id-74728)" opacity="0.571" id="id-74814"></polygon><g transform=" translate(188,270)" id="id-74815"><polygon points="207 13 207 10 217 2 220 2 239 21 258 39 260 42 250 51 246 52 226 33" fill="url(#id-74729)" id="id-74816"></polygon><polygon points="208 40 218 50 222 50 240 33 257 13 257 9 247 0 244 1 230 19 209 36" fill="url(#id-74730)" id="id-74817"></polygon><polygon points="1 13 1 10 10 2 15 2 32 21 50 39 52 42 42 52 38 52 19 33" fill="url(#id-74731)" id="id-74816"></polygon><polygon points="0 43 10 53 14 53 33 35 50 15 50 11 40 3 36 4 19 23 1 39" fill="url(#id-74732)" id="id-74817"></polygon></g></g><defs><linearGradient x1="69%" y1="0%" x2="69%" y2="21%" id="id-75456"><stop stop-color="#BB95AF" offset="0%"></stop><stop stop-color="#A56846" offset="100%"></stop></linearGradient><radialGradient cx="50%" cy="61%" r="61%" id="id-75457" fx="50%" fy="61%" gradientTransform=" translate(0.500,0.609) scale(1,0.694) rotate(180) scale(1,1) translate(-0.500,-0.609)"><stop stop-color="#D69E7B" offset="0%"></stop><stop stop-color="#BF8763" offset="100%"></stop></radialGradient><radialGradient cx="50%" cy="74%" r="74%" id="id-75458" fx="50%" fy="74%" gradientTransform=" translate(0.500,0.744) scale(0.748,1) rotate(-90) scale(1,0.864) translate(-0.500,-0.744)"><stop stop-color="#DEB99D" offset="0%"></stop><stop stop-color="#89522F" offset="100%"></stop></radialGradient><linearGradient x1="39%" y1="37%" x2="50%" y2="61%" id="id-75459"><stop stop-color="#CD926D" offset="0%"></stop><stop stop-color="#C28864" offset="100%"></stop></linearGradient><radialGradient cx="50%" cy="37%" r="75%" id="id-75460" fx="50%" fy="37%" gradientTransform=" translate(0.500,0.372) scale(0.536,1) rotate(90) scale(1,2) translate(-0.500,-0.372)"><stop stop-color="#E5A88A" offset="0%"></stop><stop stop-color="#C18662" offset="100%"></stop></radialGradient><radialGradient cx="52%" cy="68%" r="169%" id="id-75461" fx="52%" fy="68%" gradientTransform=" translate(0.522,0.681) scale(1,0.367) rotate(-105) translate(-0.522,-0.681)"><stop stop-color="#A77870" offset="0%"></stop><stop stop-color="#9D6039" offset="100%"></stop></radialGradient><linearGradient x1="100%" y1="63%" x2="50%" y2="63%" id="id-75462"><stop stop-color="#613821" offset="0%"></stop><stop stop-color="#AC704E" offset="100%"></stop></linearGradient><linearGradient x1="91%" y1="62%" x2="50%" y2="78%" id="id-75463"><stop stop-color="#8B532C" offset="0%"></stop><stop stop-color="#A46A47" offset="100%"></stop></linearGradient><linearGradient x1="39%" y1="5%" x2="39%" y2="73%" id="id-75464"><stop stop-color="#9F6A88" offset="0%"></stop><stop stop-color="#AB8495" offset="100%"></stop></linearGradient><linearGradient x1="38%" y1="50%" x2="38%" y2="58%" id="id-75465"><stop stop-color="#D2AEA4" offset="0%"></stop><stop stop-color="#996343" offset="100%"></stop></linearGradient><linearGradient x1="28%" y1="92%" x2="75%" y2="13%" id="id-75466"><stop stop-color="#B88261" offset="0%"></stop><stop stop-color="#B88260" offset="100%"></stop></linearGradient><linearGradient x1="64%" y1="50%" x2="0%" y2="68%" id="id-75467"><stop stop-color="#9C6849" offset="0%"></stop><stop stop-color="#C18A67" offset="100%"></stop></linearGradient><linearGradient x1="38%" y1="38%" x2="90%" y2="78%" id="id-75468"><stop stop-color="#8E5B3D" offset="0%"></stop><stop stop-color="#976445" offset="66%"></stop><stop stop-color="#B6805F" offset="100%"></stop></linearGradient><linearGradient x1="22%" y1="54%" x2="78%" y2="45%" id="id-75469"><stop stop-color="#B68663" offset="0%"></stop><stop stop-color="#7B482A" offset="100%"></stop></linearGradient><linearGradient x1="23%" y1="50%" x2="73%" y2="59%" id="id-75470"><stop stop-color="#A77455" offset="0%"></stop><stop stop-color="#86583F" offset="100%"></stop></linearGradient><linearGradient x1="50%" y1="14%" x2="50%" y2="125%" id="id-75471"><stop stop-color="#A66E4D" offset="0%"></stop><stop stop-color="#905938" offset="100%"></stop></linearGradient><linearGradient x1="50%" y1="0%" x2="50%" y2="100%" id="id-75472"><stop stop-color="#A66E4D" offset="0%"></stop><stop stop-color="#CC9775" offset="100%"></stop></linearGradient><linearGradient x1="50%" y1="34%" x2="50%" y2="100%" id="id-75473"><stop stop-color="#B47851" offset="0%"></stop><stop stop-color="#B57D5D" offset="100%"></stop></linearGradient><linearGradient x1="0%" y1="50%" x2="87%" y2="50%" id="id-75474"><stop stop-color="#D89A72" offset="0%"></stop><stop stop-color="#EBC09E" offset="50%"></stop><stop stop-color="#D89A72" offset="100%"></stop></linearGradient><linearGradient x1="83%" y1="50%" x2="22%" y2="58%" id="id-75475"><stop stop-color="#B9785B" offset="0%"></stop><stop stop-color="#A7644E" offset="100%"></stop></linearGradient><linearGradient x1="59%" y1="52%" x2="79%" y2="50%" id="id-75476"><stop stop-color="#A46D4D" offset="0%"></stop><stop stop-color="#6E4331" offset="100%"></stop></linearGradient><linearGradient x1="66%" y1="52%" x2="50%" y2="53%" id="id-75477"><stop stop-color="#945A3D" offset="0%"></stop><stop stop-color="#885034" offset="100%"></stop></linearGradient><linearGradient x1="50%" y1="56%" x2="44%" y2="48%" id="id-75478"><stop stop-color="#923F20" offset="0%"></stop><stop stop-color="#472214" offset="100%"></stop></linearGradient><linearGradient x1="50%" y1="62%" x2="44%" y2="45%" id="id-75479"><stop stop-color="#923F20" offset="0%"></stop><stop stop-color="#472214" offset="100%"></stop></linearGradient><linearGradient x1="106%" y1="53%" x2="76%" y2="50%" id="id-75480"><stop stop-color="#C06F5A" offset="0%"></stop><stop stop-color="#401F21" offset="100%"></stop></linearGradient><linearGradient x1="-8%" y1="55%" x2="25%" y2="53%" id="id-75481"><stop stop-color="#C06E59" offset="0%"></stop><stop stop-color="#4C2426" offset="100%"></stop></linearGradient><linearGradient x1="50%" y1="20%" x2="50%" y2="100%" id="id-75482"><stop stop-color="#A95357" offset="0%"></stop><stop stop-color="#9C4A4C" offset="100%"></stop></linearGradient></defs><g transform=" translate(561,332)" id="id-75483"><g transform=" translate(172,115)" id="id-75484"><polygon points="14 1 18 0 25 8 27 21 24 41 14 66 0 68" fill="url(#id-75456)" id="id-75485"></polygon><polygon points="12 48 19 50 23 42 26 24 20 12 12 22" fill="#9D5D3D" id="id-75486"></polygon><polygon points="11 21 17 10 20 5 24 7 26 24 20 36 18 31 20 16 9 29" fill="#713215" id="id-75487"></polygon><polygon points="10 28 11 38 8 45 13 49 19 38 13 24" fill="#713215" id="id-75488"></polygon><polygon points="12 18 17 17 18 9" fill="#5E1C1D" id="id-75489"></polygon><polygon points="18 50 10 51 8 50 5 61 12 63 14 61" fill="#BE8864" id="id-75490"></polygon></g><g transform=" translate(0,113)" id="id-75491"><polygon points="13 0 5 0 0 13 4 36 13 63 25 67" fill="#77391D" id="id-75492"></polygon><polygon points="5 9 0 13 4 36 13 63 25 67 13 24" fill="#8A492B" id="id-75492"></polygon><polygon points="18 46 14 47 7 32 11 26 4 9 6 5 16 20 17 29" fill="#B27651" id="id-75494"></polygon><polygon points="13 62 20 62 18 49 11 53" fill="#B27651" id="id-75495"></polygon><polygon points="25 68 13 63 20 62 17 46 14 47 13 44 14 29 17 26 14 22 10 19 10 11 17 20" fill="#492111" id="id-75496"></polygon><polygon points="13 9 4 3 5 0 12 0" fill="#BB805D" id="id-75497"></polygon></g><path d=" M 29,199 C 21,167 16,144 15,130 C 4,44 33,0 103,0 C 180,0 191,63 186,119 C 183,157 173,191 170,202 C 169,206 168,214 164,217 C 152,228 130,244 113,250 C 108,252 95,251 92,251 C 77,247 52,234 36,218 C 34,215 31,209 29,199 Z" fill="url(#id-75457)" id="id-75498"></path><polygon points="32 104 40 91 49 101 72 91 83 36 53 39 28 83" fill="#DEB99D" opacity="0.497" id="id-75499"></polygon><path d=" M 15,130 C 4,44 33,0 103,0 C 180,0 191,63 186,119 L 166,114 L 161,101 L 167,68 C 159,55 158,51 147,43 C 142,40 113,40 59,43 L 31,93 L 35,103 L 24,131 L 15,130 Z" fill="url(#id-75458)" id="id-75498"></path><polygon points="28 117 28 73 69 24 134 24 172 49 172 134 132 129 124 78 141 61 105 65 61 58 45 117" fill="#B3754B" opacity="0.360" id="id-75501"></polygon><polygon points="115 32 172 49 172 75 132 70 141 61 120 63" fill="#D99F71" opacity="0.503" id="id-75501"></polygon><polygon points="42 181 65 170 128 173 155 186 137 233 51 226" fill="url(#id-75459)" id="id-75503"></polygon><polygon points="58 235 52 221 61 204 132 206 137 209 130 235 116 248 90 249" fill="url(#id-75460)" id="id-75504"></polygon><path d=" M 29,199 C 21,167 16,144 15,130 C 14,122 13,114 13,106 L 22,129 L 29,113 L 43,137 L 24,149 L 24,156 L 43,181 L 59,232 C 54,234 46,229 36,218 C 34,215 31,209 29,199 Z" fill="url(#id-75461)" id="id-75498"></path><path d=" M 59,232 C 71,240 82,245 90,246 C 98,248 109,248 121,245 C 117,248 115,249 113,250 C 108,252 95,251 92,251 C 77,247 52,234 36,218 C 34,216 32,211 30,204 C 36,212 46,222 59,232 Z" fill="#894339" id="id-75498"></path><path d=" M 184,63 C 187,81 188,100 186,119 C 183,157 173,191 170,202 C 169,206 168,214 164,217 C 152,228 130,244 113,250 L 137,226 L 152,184 L 174,150 L 148,128 L 170,120 L 184,63 Z" fill="url(#id-75462)" id="id-75498"></path><polygon points="178 153 148 128 176 117" fill="url(#id-75463)" id="id-75498"></polygon><path d=" M 175,80 L 185,120 C 173,183 166,215 164,217 C 160,220 155,224 150,229 L 158,217 L 178,153 L 175,117 L 170,125 L 165,114 L 175,80 Z" fill="url(#id-75464)" id="id-75498"></path><polygon points="82 232 88 225 112 224 114 238 88 241" fill="#E5A98A" id="id-75510"></polygon><polygon points="61 204 65 171 96 163 129 174 133 206" fill="#C38561" id="id-75511"></polygon><polygon points="81 217 88 225 112 225 123 216 97 216" fill="#7D4632" id="id-75512"></polygon><polygon points="66 205 81 220 122 219 130 214 134 206" fill="#B17D5D" id="id-75513"></polygon><path d=" M 128,176 L 125,167 L 116,159 L 83,155 C 79,156 76,155 74,153 C 73,151 72,146 72,140 L 62,143 C 65,145 67,147 70,150 C 73,153 76,157 79,161 L 69,177 L 81,180 L 119,176 L 128,176 Z" fill="url(#id-75465)" id="id-75514"></path><polygon points="31 164 67 170 43 181" fill="#D2AEA4" id="id-75515"></polygon><polygon points="91 193 95 177 102 179 101 196" fill="#DFA483" id="id-75516"></polygon><polygon points="102 179 101 197 112 196 106 175" fill="#CD9271" id="id-75517"></polygon><polygon points="153 141 129 161 118 136 144 145" fill="#E2A37C" id="id-75518"></polygon><polygon points="138 153 159 136 166 143 147 164" fill="url(#id-75466)" id="id-75518"></polygon><polygon points="87 193 91 191 101 193 110 189 112 193 100 198" fill="#EABD9C" id="id-75520"></polygon><polygon points="34 132 26 124 32 107 50 99 69 108" fill="url(#id-75467)" id="id-75521"></polygon><polygon points="153 130 134 111 145 101 159 101 167 111 171 123 166 132" fill="url(#id-75468)" id="id-75522"></polygon><g transform=" translate(42,102)" id="id-75523"><path d=" M 73,31 C 80,24 87,20 94,19 C 101,19 109,21 118,26 L 113,21 L 101,9 L 108,3 L 73,7 L 67,30 L 73,31 Z" fill="url(#id-75469)" id="id-75524"></path><path d=" M 1,22 L 6,16 L 18,7 L 8,2 L 36,5 L 46,31 C 37,24 29,20 22,19 C 15,17 8,18 1,22 Z" fill="url(#id-75470)" id="id-75525"></path><polygon points="63 0 79 9 71 30 42 26 32 8" fill="url(#id-75471)" id="id-75526"></polygon><polygon points="63 0 78 8 55 28 43 26 48 15 40 6" fill="#BF845C" id="id-75526"></polygon><path d=" M 34,69 C 35,67 35,65 36,64 C 37,61 40,57 43,53 L 44,35 L 51,24 L 64,24 L 75,32 L 75,35 L 71,34 L 71,54 C 75,58 77,60 78,62 C 79,64 79,66 80,69 L 34,69 Z" fill="url(#id-75472)" id="id-75528"></path><path d=" M 34,69 C 35,67 35,65 36,64 C 38,59 42,56 42,53 L 44,69 L 34,69 Z" fill="url(#id-75473)" id="id-75528"></path><polygon points="44 35 36 24 51 25" fill="#905938" id="id-75530"></polygon><polygon points="51 25 53 49 48 68 57 71 69 67 61 49 64 25" fill="url(#id-75474)" id="id-75531"></polygon><polygon points="35 71 38 79 51 79 60 84 69 79 75 78 79 73 80 71 57 72" fill="#672F24" opacity="0.696" id="id-75532"></polygon><path d=" M 45,77 C 38,76 35,73 34,69 C 36,67 38,65 39,65 C 40,65 43,66 49,69 L 66,69 L 70,66 L 75,63 L 80,68 L 80,71 C 78,74 76,76 73,76 C 72,77 70,75 69,75 C 67,75 66,76 62,77 C 59,78 56,77 51,77 C 51,77 46,77 45,77 Z" fill="url(#id-75475)" id="id-75533"></path><path d=" M 48,77 C 42,75 41,73 43,73 C 46,73 50,74 55,77 L 48,77 Z" fill="#3D1811" id="id-75534"></path><path d=" M 62,77 C 65,74 68,73 70,72 C 72,72 73,73 72,76 L 62,77 Z" fill="#3D1811" id="id-75535"></path><polygon points="47 64 53 69 63 63" transform=" translate(55,66) rotate(-177) translate(-55,-66)" fill="#FBEAF6" id="id-75536"></polygon><polygon points="51 24 55 16 64 25" fill="#EBC09E" id="id-75537"></polygon></g><g transform=" translate(25,117)" id="id-75538"><path d=" M 9,13 C 17,5 24,0 32,0 C 39,0 46,6 52,17 L 9,13 Z" fill="#583B28" id="id-75539"></path><path d=" M 34,8 C 25,3 24,0 32,0 C 39,0 46,6 52,17 L 34,8 Z" fill="#704E3A" id="id-75539"></path><path d=" M 92,20 C 92,10 98,4 109,2 C 119,0 128,4 135,13 L 92,20 Z" fill="#734E38" id="id-75541"></path><path d=" M 106,13 C 105,6 106,2 110,1 C 114,1 118,3 121,8 L 106,13 Z" fill="#AA7F71" id="id-75541"></path><path d=" M 97,23 C 109,28 118,29 123,28 C 125,28 130,26 137,23 L 136,18 C 128,21 122,23 118,23 C 111,24 103,21 97,23 Z" fill="url(#id-75476)" id="id-75543"></path><path d=" M 10,24 C 19,28 26,29 32,28 C 38,27 46,24 54,20 L 50,18 C 43,21 37,23 32,23 C 28,23 23,21 18,20 L 10,24 Z" fill="url(#id-75477)" id="id-75544"></path><path d=" M 10,24 C 16,26 19,27 22,28 C 22,23 32,23 35,23 C 27,23 22,21 18,19 L 10,24 Z" fill="#6E4331" id="id-75544"></path><path d=" M 37,22 C 40,21 45,20 51,18 C 45,11 39,7 34,7 C 28,7 22,11 16,18 C 26,21 33,22 37,22 Z" fill="#E6D4C6" id="id-75546"></path><path d=" M 98,20 C 107,22 113,23 117,22 C 122,21 126,20 130,17 L 117,7 L 107,9 L 100,15 L 98,20 Z" fill="#E6D4C6" id="id-75547"></path><path d=" M 98,20 C 99,21 101,21 101,21 C 103,15 107,12 112,12 C 116,11 122,14 128,20 C 129,19 130,18 131,17 C 127,11 122,8 117,7 C 112,7 106,9 100,15 L 98,20 Z" fill="#000000" opacity="0.297" id="id-75547"></path><path d=" M 95,20 L 101,21 C 100,21 99,20 100,19 C 100,18 101,17 102,15 L 95,20 Z" fill="#B26261" id="id-75549"></path><path d=" M 25,13 C 25,19 28,22 33,21 C 39,21 42,18 42,12 C 40,9 37,7 32,7 C 28,7 26,9 25,13 Z" fill="#250A10" id="id-75550"></path><path d=" M 30,16 L 26,17 C 28,20 30,21 33,21 C 37,21 40,19 41,15 C 41,15 40,15 36,15 C 36,17 35,18 34,18 C 32,18 31,17 30,16 Z" fill="url(#id-75478)" id="id-75550"></path><path d=" M 47,19 C 48,19 49,18 51,18 C 45,11 39,7 34,7 C 28,7 22,11 16,18 L 21,20 C 25,14 28,11 30,11 C 38,11 44,13 47,19 Z" fill="#000000" opacity="0.296" id="id-75546"></path><polygon points="32 15 32 14 33 14 33 12 30 12 30 15" fill="#B99794" id="id-75553"></polygon><path d=" M 106,13 C 105,16 106,19 109,21 L 118,21 C 121,20 123,17 123,12 C 118,11 115,11 113,11 C 111,11 109,12 106,13 Z" fill="url(#id-75479)" id="id-75554"></path><path d=" M 106,13 C 105,16 106,19 109,21 C 108,19 107,18 107,17 C 108,17 108,17 110,16 C 110,16 110,19 113,19 C 116,19 118,17 119,15 C 120,15 121,15 122,15 C 122,17 120,19 118,21 C 122,20 123,15 123,12 C 121,9 118,7 113,7 C 109,7 106,9 106,13 Z" fill="#15050F" id="id-75554"></path><polygon points="114 13 111 14 112 16 114 16" fill="#D2B0AD" id="id-75556"></polygon><path d=" M 47,14 C 47,16 47,17 47,17 C 47,18 47,19 46,19 L 51,18 L 47,14 Z" fill="#B26261" id="id-75557"></path><polygon points="47 15 52 19 54 20 53 18 48 15" fill="#26070C" id="id-75558"></polygon><path d=" M 11,24 L 18,20 L 25,22 L 18,17 C 22,13 27,10 33,9 C 38,9 42,13 47,15 C 47,15 48,15 48,15 C 42,8 37,6 32,6 C 22,6 17,12 12,13 C 10,14 6,12 0,8 C 2,13 4,15 5,17 C 7,18 10,19 13,19 L 11,24 Z" fill="#26070C" id="id-75559"></path><path d=" M 93,20 C 94,20 95,20 95,20 C 101,15 107,8 112,8 C 117,7 123,11 129,17 L 122,23 L 132,20 L 137,23 L 136,18 C 139,17 141,16 142,15 C 143,13 144,11 145,7 C 140,11 137,12 135,12 C 133,11 122,4 115,5 C 106,5 99,11 93,20 Z" fill="#24060D" id="id-75560"></path><polygon points="118 21 103 22 113 23" fill="#D0956F" id="id-75561"></polygon><polygon points="42 20 27 21 28 22 34 23" fill="#D0956F" id="id-75561"></polygon></g><g transform=" translate(27,94)" id="id-75563"><path d=" M 0,20 C 9,14 13,11 13,11 C 38,18 51,22 51,22 C 51,14 51,11 51,11 C 50,10 49,10 49,10 C 49,12 50,13 50,13 C 46,9 45,8 45,8 C 46,11 47,13 47,13 C 43,9 41,6 41,6 C 33,4 23,3 13,2 C 7,9 2,15 0,20 Z" fill="url(#id-75480)" id="id-75564"></path><path d=" M 90,22 C 88,16 87,12 87,12 C 89,11 89,10 89,10 C 90,12 90,13 90,13 C 91,10 93,8 95,8 C 94,11 93,13 93,13 L 99,6 C 108,4 119,-2 128,1 L 137,8 C 140,15 142,18 142,18 L 130,10 C 113,13 100,17 90,22 Z" fill="url(#id-75481)" id="id-75565"></path></g><g transform=" translate(66,192)" id="id-75566"><polygon points="2 14 11 20 60 19 68 14 67 14 21 6" fill="#481A12" id="id-75567"></polygon><path d=" M 8,18 L 20,27 C 26,28 31,29 35,29 C 38,29 44,28 51,26 L 61,18 L 52,14 L 35,16 L 17,14 L 8,18 Z" fill="#944749" id="id-75568"></path><path d=" M 20,27 C 26,28 31,29 35,29 C 38,29 44,28 51,26 C 52,23 53,21 53,19 C 53,18 53,16 52,14 L 35,16 L 17,14 C 17,17 17,19 17,20 C 17,22 18,24 20,27 Z" fill="url(#id-75482)" id="id-75568"></path><path d=" M 2,14 C 6,15 9,15 13,14 C 18,14 19,12 22,12 C 26,12 30,13 35,13 C 39,13 42,12 46,12 C 51,12 51,14 56,14 C 59,15 63,15 67,14 C 65,13 63,12 62,11 C 55,5 51,1 49,1 C 45,-1 39,3 35,3 C 30,3 30,1 24,1 C 21,1 16,5 8,10 C 7,11 5,11 2,12 L 0,13 L 2,14 Z" fill="#803D36" id="id-75570"></path><path d=" M 19,11 C 27,8 33,7 35,7 C 39,7 43,11 48,11 C 57,11 63,12 63,11 C 55,5 51,1 49,1 C 45,-1 39,3 35,3 C 30,3 30,1 24,1 C 21,1 16,4 7,10 C 6,10 5,11 2,12 L 19,11 Z" fill="#8D4740" id="id-75570"></path><path d=" M 19,11 C 27,8 33,7 35,7 L 35,3 C 30,3 30,1 24,1 L 19,11 Z" fill="#823537" id="id-75570"></path><path d=" M 19,18 C 18,18 18,19 19,22 C 22,22 23,21 27,23 C 30,24 37,24 49,22 C 36,22 26,20 19,18 Z" fill="#DF909D" id="id-75573"></path></g></g><defs><linearGradient x1="50%" y1="0%" x2="67%" y2="70%" id="id-40775"><stop stop-color="#9D9252" offset="0%"></stop><stop stop-color="#91874C" offset="100%"></stop></linearGradient></defs><g transform=" translate(433,637)" id="id-40776"><path d=" M 132,0 C 149,38 180,57 225,56 C 267,54 296,35 314,0 C 330,11 351,20 376,26 C 382,20 389,16 396,14 C 386,31 381,40 380,42 L 380,42 C 380,42 380,42 380,42 C 370,50 362,61 354,76 C 359,64 362,58 362,58 C 353,72 349,79 349,79 C 392,53 414,39 414,39 C 420,41 423,42 424,43 L 424,43 C 424,43 424,43 424,43 C 434,68 441,92 444,115 C 443,124 443,129 443,129 C 430,131 424,132 424,132 C 425,134 426,136 426,136 L 426,136 C 426,136 426,136 426,136 C 428,153 428,162 428,162 L 428,162 L 428,162 C 438,160 443,159 443,159 L 443,159 L 443,159 C 445,229 446,264 446,264 C 390,269 362,271 362,271 C 361,268 360,266 360,266 C 360,271 359,274 359,274 C 360,273 361,272 361,272 L 355,375 C 362,412 365,431 365,431 C 311,438 283,441 283,441 C 192,442 145,442 143,442 L 143,442 L 143,442 C 105,435 87,431 87,431 C 84,432 83,432 83,432 C 84,429 85,428 85,428 L 85,428 L 85,428 C 83,423 83,421 83,421 C 88,400 90,390 90,390 C 89,320 88,285 88,285 C 29,279 0,275 0,275 C 1,251 2,234 3,223 C 5,108 20,51 19,51 C 44,37 73,25 106,14 C 110,11 113,7 115,4 C 118,2 119,1 119,1 L 119,1 L 119,1 C 127,0 132,0 132,0 L 132,0 L 132,0 Z M 15,104 C 15,104 15,104 15,104 L 15,104 C 15,104 17,114 21,134 C 21,134 26,141 36,155 C 36,155 41,146 50,130 L 50,130 Z" fill="#65603D" id="id-40777"></path><path d=" M 313,437 C 316,400 318,381 318,381 C 304,318 298,287 298,287 L 236,289 L 202,312 L 193,390 L 179,414 L 171,390 L 164,390 L 141,438 L 87,431 L 141,442 L 283,441 C 303,438 313,437 313,437 Z" fill="#787147" id="id-40778"></path><path d=" M 53,129 C 42,134 37,136 37,136 L 17,108 C 41,122 53,129 53,129 Z" fill="#514B2C" id="id-40779"></path><path d=" M 42,169 C 37,161 34,158 34,158 C 45,140 51,131 51,131 C 52,135 53,137 53,137 L 48,157 C 44,165 42,169 42,169 Z" fill="#847D4E" id="id-40780"></path><path d=" M 19,51 C 39,99 50,122 50,122 C 50,118 50,116 50,116 C 58,126 62,130 62,130 C 84,129 94,128 94,128 C 97,146 99,154 99,154 C 81,183 73,197 73,197 C 109,188 127,183 127,183 C 138,183 144,183 144,183 C 245,202 296,211 296,211 C 266,193 250,184 250,184 C 302,186 328,187 328,187 C 331,203 332,211 332,211 C 341,190 345,180 345,180 C 317,141 303,121 303,121 C 280,71 268,46 268,46 C 240,58 211,60 181,48 C 157,39 142,22 132,0 L 119,1 C 115,5 112,11 106,14 C 68,28 39,40 19,51 Z" fill="#8E844C" id="id-40781"></path><path d=" M 275,139 L 303,121 C 331,160 345,180 345,180 C 337,144 333,126 333,126 C 348,167 355,187 355,187 C 369,207 375,217 375,217 C 385,212 376,182 365,149 C 348,105 340,82 340,82 C 352,102 358,112 358,112 C 358,108 358,106 358,106 C 362,102 363,99 363,99 C 364,115 365,123 365,123 C 368,131 369,135 369,135 C 373,127 374,123 374,123 C 388,105 394,96 394,96 C 391,112 386,128 380,144 C 398,202 407,231 407,231 C 420,235 427,237 427,237 C 394,248 377,253 377,253 L 379,270 L 446,264 L 443,159 L 428,162 L 426,136 L 424,132 L 443,129 L 444,115 C 441,92 434,67 424,43 L 414,39 L 349,79 C 358,65 362,58 362,58 L 355,74 C 361,63 369,52 380,42 L 396,14 C 390,16 383,19 376,26 C 353,20 332,13 314,0 C 305,20 290,35 268,46 C 255,52 248,55 248,55 L 255,68 C 268,115 275,139 275,139 Z" fill="url(#id-40775)" id="id-40782"></path><path d=" M 267,69 C 284,65 298,57 308,45 C 303,30 300,22 300,22 C 290,34 276,44 255,53 C 263,64 267,69 267,69 Z" fill="#B8AE76" id="id-40783"></path><path d=" M 318,32 L 304,17 C 311,6 314,0 314,0 L 333,11 C 325,23 321,30 318,32 Z" fill="#817946" id="id-40784"></path><path d=" M 322,5 L 310,7 L 314,0 C 319,3 322,5 322,5 Z" fill="#716A3D" id="id-40785"></path><path d=" M 365,55 C 354,32 349,20 349,20 L 376,28 C 369,46 365,55 365,55 Z" fill="#887E47" id="id-40786"></path><path d=" M 424,43 C 401,61 389,71 389,71 C 382,93 378,105 378,105 C 391,97 398,92 398,92 L 427,149 L 426,136 L 424,132 L 443,129 L 444,115 C 441,92 434,67 424,43 Z" fill="#A09556" id="id-40787"></path><path d=" M 387,78 C 399,64 405,57 405,57 L 390,58 C 388,72 387,78 387,78 Z" fill="#807441" id="id-40788"></path><path d=" M 365,118 C 373,81 377,62 377,62 C 365,70 358,73 358,73 L 355,117 C 362,118 365,118 365,118 Z" fill="#8E8349" id="id-40789"></path><path d=" M 219,56 C 210,69 205,75 205,75 C 192,74 179,72 165,68 C 141,51 121,34 107,16 L 119,1 C 128,0 132,0 132,0 C 140,18 152,32 169,43 C 187,55 219,56 219,56 Z" fill="#817846" id="id-40790"></path><path d=" M 175,71 C 162,85 156,92 156,92 C 175,124 185,140 185,140 L 246,73 C 229,78 206,77 175,71 Z" fill="#964932" fill-opacity="0.620" id="id-40791"></path><path d=" M 227,114 C 255,84 269,69 269,69 C 274,67 276,67 276,67 C 276,73 277,77 277,77 L 238,116 C 230,114 227,114 227,114 Z" fill="#965336" id="id-40792"></path><path d=" M 259,159 C 260,158 261,157 261,157 C 334,181 370,193 370,193 L 367,197 C 295,172 259,159 259,159 Z" fill="#935F3B" id="id-40793"></path><path d=" M 261,125 C 263,124 263,123 263,123 C 339,152 377,167 377,167 L 376,169 C 299,140 261,125 261,125 Z" fill="#935F3B" id="id-40794"></path><path d=" M 287,102 C 340,122 367,132 367,132 L 366,134 C 313,113 287,102 287,102 Z" fill="#92613C" id="id-40795"></path><path d=" M 367,217 L 338,271 C 336,304 335,321 335,321 C 301,309 284,303 284,303 L 284,274 C 302,250 311,238 311,238 C 318,237 322,236 322,236 L 335,207 C 356,214 367,217 367,217 Z" fill="#935F3B" fill-opacity="0.647" id="id-40796"></path><path d=" M 445,226 C 426,214 417,208 417,208 L 431,162 L 443,159 C 445,204 445,226 445,226 Z" fill="#9D9152" id="id-40797"></path><path d=" M 454,150 C 437,136 428,128 428,128 L 448,122 C 452,141 454,150 454,150 Z" fill="#746C3C" id="id-40798"></path><path d=" M 160,221 C 209,214 234,210 234,210 L 288,226 C 203,223 160,221 160,221 Z" fill="#7D7544" id="id-40799"></path><path d=" M 175,226 C 247,226 283,227 283,227 L 225,237 C 192,229 175,226 175,226 Z" fill="#635D36" id="id-40800"></path><path d=" M 89,354 C 122,315 138,295 138,295 C 190,291 216,290 216,290 C 307,277 353,270 353,270 C 299,269 271,268 271,268 C 293,254 304,247 304,247 C 226,256 187,260 187,260 C 217,250 232,245 232,245 C 172,247 142,247 142,247 C 91,230 66,221 66,221 C 71,238 73,246 73,246 L 88,269 C 89,325 89,354 89,354 Z" fill="#534D2D" id="id-40801"></path><path d=" M 88,269 C 171,253 213,245 213,245 C 157,243 128,243 128,243 L 64,217 L 73,246 C 83,261 88,269 88,269 Z" fill="#4F4A2A" id="id-40802"></path><path d=" M 141,438 L 87,431 L 83,432 L 85,428 L 83,420 L 90,390 C 90,366 89,354 89,354 C 120,317 135,299 135,299 L 164,390 L 141,438 Z" fill="#5E593B" id="id-40803"></path><path d=" M 164,390 C 169,390 171,390 171,390 C 176,406 179,414 179,414 C 188,398 193,390 193,390 C 199,338 202,312 202,312 L 239,287 L 216,290 L 138,295 L 135,299 C 154,360 164,390 164,390 Z" fill="#686140" id="id-40804"></path><path d=" M 227,380 C 208,404 199,417 199,417 L 235,436 C 230,399 227,380 227,380 Z" fill="#686139" id="id-40805"></path><path d=" M 231,322 L 181,292 L 216,290 C 226,311 231,322 231,322 Z" fill="#69643C" id="id-40806"></path><path d=" M 0,275 C 1,262 2,256 2,256 L 84,263 L 88,269 L 88,285 C 29,279 0,275 0,275 Z" fill="#544F2F" id="id-40807"></path><path d=" M 61,129 C 79,102 88,89 88,89 C 91,112 93,123 93,123 C 73,186 63,217 63,217 C 70,261 73,284 73,284 L 70,283 L 50,123 L 50,117 C 58,125 61,129 61,129 Z" fill="#69613B" id="id-40808"></path><path d=" M 79,172 C 71,196 66,208 66,208 L 64,133 C 74,159 79,172 79,172 Z" fill="#3E3918" id="id-40809"></path></g><defs><linearGradient x1="71%" y1="40%" x2="30%" y2="39%" id="id-48791"><stop stop-color="#4C397E" offset="0%"></stop><stop stop-color="#02BAAE" offset="17%"></stop><stop stop-color="#02AFB7" offset="25%"></stop><stop stop-color="#008BB4" offset="32%"></stop><stop stop-color="#4E3791" offset="45%"></stop><stop stop-color="#4D93DB" offset="55%"></stop><stop stop-color="#8678DA" offset="72%"></stop><stop stop-color="#B648C5" offset="88%"></stop><stop stop-color="#9B1397" offset="100%"></stop></linearGradient><filter width="206%" height="111%" x="-53%" y="-6%" id="id-48792" filterUnits="objectBoundingBox"><feGaussianBlur in="SourceGraphic" stdDeviation="5"></feGaussianBlur></filter><linearGradient x1="50%" y1="1%" x2="50%" y2="100%" id="id-48793"><stop stop-color="#7FF8F2" offset="0%" stop-opacity="0.754"></stop><stop stop-color="#6FEEE8" offset="100%" stop-opacity="0.194"></stop></linearGradient><linearGradient x1="100%" y1="50%" x2="0%" y2="50%" id="id-48794"><stop stop-color="#002D70" offset="0%"></stop><stop stop-color="#37569E" offset="12%"></stop><stop stop-color="#287AAB" offset="29%"></stop><stop stop-color="#493D97" offset="55%"></stop><stop stop-color="#072C70" offset="61%"></stop><stop stop-color="#0E2B70" offset="79%"></stop><stop stop-color="#6F44A9" offset="88%"></stop><stop stop-color="#552F95" offset="92%"></stop><stop stop-color="#002D6F" offset="100%"></stop></linearGradient></defs><g transform=" translate(450,1104)" id="id-48795"><path d=" M 52,656 C 56,633 58,622 58,622 C 51,561 47,530 47,530 C 21,438 8,341 0,241 C 3,200 17,154 28,108 C 37,61 42,37 42,37 C 47,32 50,29 50,29 L 204,43 L 360,30 C 362,36 362,39 362,39 C 368,45 371,49 371,49 C 370,69 375,88 382,106 C 389,142 393,160 393,160 C 423,294 385,363 350,524 C 350,569 338,618 350,656 C 279,656 244,656 244,656 C 235,630 233,603 230,557 C 223,448 219,360 214,297 C 214,263 214,236 217,223 C 204,222 198,221 198,221 C 197,330 170,446 174,552 C 169,579 167,604 171,628 L 164,656 C 89,656 52,656 52,656 Z" fill="url(#id-48791)" id="id-48796"></path><path d=" M 73,656 C 89,626 96,611 96,611 L 56,630 L 52,656 C 66,656 73,656 73,656 Z" fill="#FFFFFF" fill-opacity="0.235" id="id-48797"></path><path d=" M 59,621 C 58,602 57,593 57,593 L 86,590 C 68,611 59,621 59,621 Z" fill="#FFFFFF" fill-opacity="0.404" id="id-48798"></path><path d=" M 126,656 C 126,650 126,647 126,647 C 143,636 151,631 151,631 C 157,576 160,549 160,549 L 173,555 C 168,583 168,607 171,628 L 164,656 C 139,656 126,656 126,656 Z" fill="#000000" fill-opacity="0.206" id="id-48799"></path><path d=" M 126,654 L 103,636 L 103,656 C 121,656 130,656 130,656 C 133,619 151,572 142,544 C 151,508 167,474 178,438 C 187,367 191,331 191,331 C 140,447 115,506 115,506 C 104,372 99,305 99,305 C 97,439 97,506 97,506 C 68,469 54,450 54,450 C 54,472 54,483 54,483 C 82,544 97,574 97,574 C 100,613 102,632 102,632 L 127,646 C 127,651 126,654 126,654 Z" fill="#359FEE" fill-opacity="0.669" id="id-48800"></path><path d=" M 141,543 L 157,530 L 160,549 L 173,555 L 174,552 C 172,489 181,419 191,331 C 158,457 142,527 141,543 Z" fill="#000000" fill-opacity="0.112" id="id-48801"></path><path d=" M 145,454 C 141,385 140,351 140,351 L 182,348 C 157,418 145,454 145,454 Z" fill="#FFFFFF" fill-opacity="0.351" id="id-48802"></path><path d=" M 54,450 C 86,523 102,560 102,560 C 126,510 138,486 138,486 C 117,353 112,230 123,118 C 112,119 106,120 106,120 C 94,185 92,271 100,378 L 103,484 C 103,497 102,506 102,511 C 70,470 54,450 54,450 Z" fill="#FFFFFF" fill-opacity="0.292" id="id-48803"></path><path d=" M 132,444 C 142,419 147,407 147,407 C 143,264 141,192 141,192 L 121,138 C 114,229 117,331 132,444 Z" stroke="#979797" fill="#FFFFFF" fill-opacity="0.175" id="id-48804" filter="url(#id-48792)"></path><path d=" M 59,301 C 30,236 15,204 15,204 C 64,132 88,97 88,97 C 114,107 126,112 126,112 C 109,74 101,55 101,55 C 146,60 169,62 169,62 C 170,61 170,61 170,61 C 182,62 188,63 188,63 C 190,115 191,141 191,141 C 186,142 183,142 183,142 C 154,134 140,130 140,130 C 178,199 198,233 198,233 C 117,292 77,321 77,321 L 75,201 C 64,268 59,301 59,301 Z" fill="#FFFFFF" fill-opacity="0.122" id="id-48806"></path><path d=" M 87,116 C 102,104 109,98 109,98 C 99,81 96,69 98,60 L 78,55 C 84,77 88,97 87,116 Z" fill="#FFFFFF" fill-opacity="0.228" id="id-48807"></path><path d=" M 50,29 L 87,55 L 42,37 C 47,32 50,29 50,29 Z" fill="#DD5CD9" id="id-48808"></path><path d=" M 83,43 C 82,47 81,48 81,48 C 96,54 103,56 103,56 L 105,48 C 96,46 88,45 83,43 Z" fill="#EC81F1" id="id-48809"></path><path d=" M 83,43 C 88,24 91,14 91,14 L 111,18 L 105,48 C 90,45 83,43 83,43 Z" stroke="#979797" id="id-48810"></path><path d=" M 253,656 C 246,633 239,611 234,584 C 235,610 237,634 244,656 C 250,656 253,656 253,656 Z" fill="#2D2966" id="id-48811"></path><path d=" M 253,656 C 282,656 297,656 297,656 C 296,645 296,640 296,640 C 266,628 251,622 251,622 C 247,603 245,593 245,593 L 244,627 L 253,656 Z" fill="#000000" fill-opacity="0.101" id="id-48812"></path><path d=" M 244,627 C 236,599 232,586 232,586 C 231,573 230,567 230,567 L 246,550 L 245,593 L 244,627 Z" fill="#665FC0" id="id-48813"></path><path d=" M 288,127 L 258,183 L 215,267 C 215,251 215,234 217,223 L 198,221 L 198,234 L 180,203 L 140,130 L 202,143 L 288,127 Z" fill="#000000" fill-opacity="0.025" id="id-48814"></path><path d=" M 331,656 C 325,636 322,627 322,627 C 305,623 297,621 297,621 C 309,611 319,596 329,576 L 337,656 L 331,656 Z" fill="#2AE4E5" id="id-48815"></path><path d=" M 344,656 C 337,629 337,591 340,545 C 336,549 332,554 328,561 C 334,462 382,381 401,301 C 393,360 360,468 350,524 C 350,572 338,611 350,656 L 344,656 Z" fill="#000000" fill-opacity="0.146" id="id-48816"></path><path d=" M 297,594 C 292,586 331,236 315,191 C 287,191 273,191 273,191 C 298,174 311,165 311,165 C 274,179 256,186 256,186 C 294,129 317,95 325,84 C 336,81 342,79 342,79 C 329,102 326,122 333,140 C 343,141 350,140 364,138 C 362,232 303,493 297,594 Z" fill="#19E8DD" id="id-48817"></path><path d=" M 371,55 C 349,99 339,120 339,120 C 360,114 370,111 370,111 C 379,143 383,159 383,159 C 372,179 366,189 366,189 L 381,182 C 393,206 397,252 401,301 C 410,223 395,172 382,106 C 375,89 371,72 371,55 Z" fill="#000000" fill-opacity="0.096" id="id-48818"></path><path d=" M 198,226 C 186,210 180,203 180,203 C 144,192 126,187 126,187 C 155,190 183,194 212,197 C 211,208 211,214 211,214 C 230,207 240,204 240,204 L 215,223 L 198,221 C 198,224 198,226 198,226 Z" fill="#4B4191" id="id-48819"></path><path d=" M 227,508 C 237,500 242,496 242,496 C 226,406 219,328 221,261 L 215,267 C 214,280 214,291 215,298 C 221,380 222,455 227,508 Z" fill="#665FC0" id="id-48820"></path><path d=" M 215,267 C 247,210 263,181 263,181 C 250,186 243,189 243,189 C 202,176 182,170 182,170 L 219,195 L 126,187 L 180,203 L 198,233 L 198,221 L 217,223 C 215,230 215,244 215,267 Z" fill="#000000" fill-opacity="0.140" id="id-48821"></path><path d=" M 199,140 C 199,88 198,62 198,62 L 195,56 C 253,55 321,50 360,30 L 362,39 L 371,49 C 371,53 371,56 371,56 C 333,74 314,83 314,83 L 280,128 C 226,136 199,140 199,140 Z" fill="#FFFFFF" fill-opacity="0.110" id="id-48822"></path><path d=" M 202,63 C 220,62 229,61 229,61 C 227,89 227,121 217,131 L 202,135 C 202,87 202,63 202,63 Z" fill="url(#id-48793)" id="id-48823"></path><path d=" M 253,106 C 257,90 259,83 259,83 L 340,63 C 282,91 253,106 253,106 Z" fill="#44D7E0" id="id-48824"></path><path d=" M 313,48 C 314,53 315,56 315,56 C 328,52 334,51 334,51 L 332,43 C 320,46 313,48 313,48 Z" fill="#1FE7DA" id="id-48825"></path><polygon points="335 55 362 39 371 49" fill="#13EBD8" id="id-48826"></polygon><path d=" M 15,162 C 15,211 15,236 15,236 L 40,503 C 21,429 8,342 0,241 C 4,207 9,181 15,162 Z" fill="#850485" id="id-48827"></path><path d=" M 50,29 C 56,10 59,0 59,0 C 133,34 264,35 354,6 L 360,30 C 329,46 279,55 208,56 C 89,58 49,29 50,29 Z" fill="url(#id-48794)" id="id-48828"></path><path d=" M 81,9 C 76,30 74,40 74,40 C 83,44 94,46 104,49 L 108,16 C 94,12 85,10 81,9 Z" fill="#5F3B9F" id="id-48829"></path><path d=" M 106,49 C 108,27 109,17 109,17 C 134,22 159,26 185,27 C 182,45 180,54 180,54 L 148,47 C 120,48 106,49 106,49 Z" fill="#9B1A70" id="id-48830"></path><path d=" M 192,56 C 192,38 192,29 192,29 C 215,28 227,28 227,28 L 228,54 C 204,55 192,56 192,56 Z" fill="#74DFF4" id="id-48831"></path><path d=" M 238,26 C 239,45 239,55 239,55 C 262,54 284,52 304,48 L 306,18 C 284,23 261,25 238,26 Z" fill="#2A7CAC" id="id-48832"></path><path d=" M 304,48 C 319,45 330,42 339,39 L 337,11 C 327,14 316,17 306,18 C 305,38 304,48 304,48 Z" fill="#304C94" id="id-48833"></path><path d=" M 313,46 C 311,30 310,22 310,22 C 321,18 327,16 327,16 L 332,41 C 320,44 313,46 313,46 Z" fill="#36569E" id="id-48834"></path><path d=" M 227,508 C 228,533 229,552 230,566 C 266,523 358,459 371,433 L 390,359 C 340,419 291,459 242,496 L 227,508 Z" fill="#131A26" id="id-48835"></path><path d=" M 274,472 C 272,507 271,525 271,525 C 314,488 336,470 336,470 L 346,408 C 321,432 297,453 274,472 Z" fill="#00418D" id="id-48836"></path><path d=" M 148,656 C 155,628 159,615 159,615 C 162,582 165,550 173,519 L 174,552 C 168,583 168,606 171,628 L 164,656 C 153,656 148,656 148,656 Z" fill="#2D2865" id="id-48837"></path><path d=" M 126,158 C 144,155 153,153 153,153 L 185,165 C 146,160 126,158 126,158 Z" fill="#BF81E7" id="id-48838"></path><path d=" M 128,185 C 158,183 172,182 172,182 L 204,195 C 153,188 128,185 128,185 Z" fill="#BF81E7" id="id-48839"></path></g><defs></defs><g transform=" translate(264,580)" id="id-58126"><path d=" M 699,457 C 748,618 728,808 714,973 C 689,924 702,865 711,821 C 710,729 715,574 690,486 L 699,457 Z" fill="#210F10" id="id-58127"></path><path d=" M 41,927 C -4,797 44,602 74,473 L 60,450 C 48,482 33,631 20,682 C 13,726 -1,743 0,801 C 1,859 2,902 10,927 L 41,927 Z" fill="#210F10" id="id-58127"></path><path d=" M 715,424 C 715,432 711,443 708,451 C 633,482 550,440 517,386 C 519,373 521,359 522,346 C 522,336 521,295 522,275 C 523,270 524,267 524,266 C 519,248 503,201 499,196 C 489,192 390,171 380,177 C 346,184 289,190 264,210 C 261,219 252,246 248,255 C 248,255 245,265 245,265 C 250,279 257,301 262,315 L 246,358 C 254,416 263,481 216,524 C 173,520 122,514 80,510 C 73,480 44,446 41,416 C 41,397 55,349 58,335 C 63,327 91,319 92,319 C 58,265 36,195 54,140 C 63,109 95,89 139,69 C 154,64 170,60 186,58 L 227,81 L 261,67 L 264,66 C 265,56 267,40 269,31 L 379,108 L 527,67 L 554,61 C 569,60 585,62 600,65 C 659,81 680,101 707,154 C 712,172 705,204 704,224 C 698,244 685,263 678,282 C 701,344 714,353 715,424 Z" fill="#20AE4B" id="id-58127"></path><path d=" M 705,671 C 702,679 700,688 701,698 L 698,698 L 667,689 L 620,695 C 620,695 591,716 590,715 L 594,697 C 574,680 577,676 577,643 C 578,628 560,600 556,588 C 553,571 560,521 560,520 C 560,520 550,498 539,488 C 502,456 518,386 522,346 C 522,338 521,317 519,284 L 573,290 C 433,376 632,474 715,409 C 721,436 692,486 682,505 C 767,586 742,584 705,671 Z" fill="#027F53" id="id-58127"></path><path d=" M 206,537 C 204,540 208,555 212,585 C 214,623 182,694 182,694 L 182,723 L 180,724 L 139,701 L 87,694 C 70,698 62,701 60,702 C 59,703 60,707 64,713 C 31,677 18,602 21,577 C 24,555 67,522 81,512 C 77,491 49,447 42,424 C 37,406 57,342 59,335 C 60,328 108,316 114,313 C 108,365 73,442 127,498 C 135,505 196,484 196,484 C 227,462 244,409 250,386 C 256,471 253,480 206,537 Z" fill="#067E53" id="id-58127"></path><path d=" M 705,671 C 702,679 700,688 701,698 L 699,698 C 689,691 654,665 656,661 C 659,657 684,599 684,599 L 739,581 C 745,601 711,656 705,671 Z" fill="#106851" id="id-58127"></path><polygon points="664 688 648 665 620 670 620 693" fill="#106851" id="id-58127"></polygon><path d=" M 643,577 L 618,630 C 618,630 597,640 597,640 C 596,639 558,593 587,556 L 643,577 Z" fill="#0E9748" id="id-58127"></path><path d=" M 609,517 L 632,515 L 669,567 C 669,567 614,526 609,517 Z" fill="#0E9648" id="id-58127"></path><path d=" M 632,516 C 637,509 686,518 691,519 C 693,520 700,521 696,527 C 692,533 675,562 666,566 L 632,516 Z" fill="#0E9748" id="id-58127"></path><path d=" M 629,493 L 579,480 L 528,441 L 530,467 C 530,467 547,488 566,497 L 569,501 L 629,493 Z" fill="#0E6C51" id="id-58127"></path><path d=" M 633,435 L 637,415 L 624,327 L 641,417 C 641,417 636,435 633,435 Z" fill="#72BF44" id="id-58127"></path><path d=" M 640,421 C 640,398 627,333 627,327 L 580,295 L 583,293 L 630,319 L 644,413 C 641,421 640,424 640,421 Z" fill="#11753D" id="id-58127"></path><path d=" M 705,215 C 704,234 684,263 678,281 C 653,283 626,288 599,265 C 610,259 618,249 622,237 C 629,216 660,171 672,166 C 678,164 694,158 707,154 C 712,167 704,200 705,215 Z" fill="#0E9C4A" id="id-58127"></path><polygon points="630 286 659 354 673 297" fill="#45B649" id="id-58127"></polygon><path d=" M 576,269 C 588,255 617,201 630,187 C 630,187 591,129 570,113 C 587,130 597,196 597,217 C 597,221 576,269 576,269 Z" fill="#73BF44" id="id-58127"></path><path d=" M 567,288 L 520,284 L 519,283 C 520,281 522,274 523,271 C 524,278 567,288 567,288 Z" fill="#0C964B" id="id-58127"></path><polygon points="568 290 545 221 519 204 518 196 551 217 573 290" fill="#0E7A3E" id="id-58127"></polygon><path d=" M 524,267 L 548,220 C 548,220 516,229 516,229 C 515,229 529,150 529,150 L 504,200 C 504,200 512,227 518,247 C 521,256 524,263 524,267 Z" fill="#0C8844" id="id-58127"></path><polygon points="510 159 566 116 527 85 511 107" fill="#74C044" id="id-58127"></polygon><polygon points="647 378 652 406 671 403 667 375" fill="#210F10" id="id-58127"></polygon><path d=" M 718,425 L 706,411 L 673,415 C 672,400 670,370 670,355 L 701,351 L 712,360 C 712,377 718,409 718,425 Z" fill="#61062B" id="id-58127"></path><path d=" M 717,411 L 702,405 L 678,408 L 676,354 L 701,351 L 712,359 C 712,374 716,397 717,411 Z" fill="#D11C65" id="id-58127"></path><polygon points="680 359 679 372 702 369 709 376 710 361 701 355" fill="#CF8297" id="id-58127"></polygon><path d=" M 700,209 C 699,237 699,239 686,264 C 686,230 682,239 700,209 Z" fill="#0A7B53" id="id-58127"></path><path d=" M 515,64 L 497,100 L 429,157 L 415,157 L 415,166 C 407,169 399,171 391,172 L 389,128 L 393,107 L 420,76 L 428,47 L 453,39 C 461,33 484,16 492,12 L 492,12 C 510,37 510,38 507,62 L 508,62 L 515,64 Z" fill="#4CB748" id="id-58127"></path><polygon points="425 80 406 112 460 107 466 80" fill="#25AF4B" id="id-58127"></polygon><path d=" M 466,80 L 500,62 L 505,69 C 507,71 488,95 488,97 L 460,107 L 466,80 Z" fill="#099251" id="id-58127"></path><polygon points="472 159 459 132 497 118 510 141 508 159" fill="#0B1F28" id="id-58127"></polygon><path d=" M 509,152 L 502,158 L 480,159 L 468,133 L 494,123 C 497,129 506,145 509,152 Z" fill="#4F60AB" id="id-58127"></path><polygon points="485 134 480 150 497 154 501 140" fill="#F78F20" id="id-58127"></polygon><polygon points="499 133 473 131 494 123" fill="#C8C7E2" id="id-58127"></polygon><path d=" M 385,115 L 385,168 L 340,181 L 339,185 C 306,190 283,196 264,210 L 248,255 C 248,255 245,265 245,265 L 253,288 C 253,288 258,303 258,303 L 238,323 L 111,314 L 186,275 L 158,278 C 140,274 105,225 105,225 C 71,192 59,156 55,135 C 76,90 162,57 186,58 L 227,81 L 261,67 L 277,79 L 331,91 L 265,54 C 266,50 268,34 269,31 C 270,28 281,12 280,9 L 312,36 L 350,39 C 360,61 371,95 385,115 Z" fill="#48B649" id="id-58127"></path><path d=" M 381,108 L 356,96 L 362,67 C 364,73 377,104 381,108 Z" fill="#1CAB4B" id="id-58127"></path><polygon points="360 75 342 94 309 67" fill="#89D4E9" id="id-58127"></polygon><polygon points="304 183 317 158 329 158 340 181" fill="#19A94B" id="id-58127"></polygon><polygon points="300 185 287 154 272 159 257 211" fill="#19A94B" id="id-58127"></polygon><path d=" M 130,307 L 186,282 C 186,282 223,307 223,318 C 223,318 187,301 172,303 C 157,305 138,302 130,307 Z" fill="#86C442" id="id-58127"></path><path d=" M 152,364 C 149,383 147,412 160,435 C 160,435 161,478 175,488 C 175,488 134,485 131,492 C 128,499 140,471 141,442 C 142,413 150,366 152,364 Z" fill="#51B848" id="id-58127"></path><path d=" M 235,97 L 247,138 C 234,150 207,189 197,204 C 199,216 192,244 212,260 L 159,273 L 124,232 L 117,204 L 130,191 L 158,219 L 183,192 L 167,144 L 178,128 L 235,97 Z" fill="#86C442" id="id-58127"></path><path d=" M 258,303 L 259,305 L 248,318 L 236,321 L 199,269 L 232,280 L 228,256 L 242,246 L 221,220 L 252,219 L 238,197 L 203,225 L 189,278 L 156,304 L 161,399 L 144,486 L 140,486 L 157,401 L 152,305 C 194,266 182,277 198,224 L 235,190 L 229,176 L 248,138 C 249,144 255,222 259,224 L 248,255 C 248,255 245,265 245,265 L 253,288 C 253,288 258,303 258,303 Z" fill="#0C8844" id="id-58127"></path><polygon points="214 322 235 357 242 359 241 328 226 322" fill="#0D944C" id="id-58127"></polygon><path d=" M 99,565 L 129,631 L 179,604 L 211,578 C 208,584 223,541 180,507 L 158,514 L 99,565 Z" fill="#0E9748" id="id-58127"></path><path d=" M 115,578 C 115,578 145,602 184,588 C 184,588 154,609 149,615 C 145,622 128,686 128,686 C 128,686 136,616 131,604 C 126,592 115,587 115,578 Z" fill="#3BB54A" id="id-58127"></path><polygon points="175 627 153 669 176 721" fill="#0E9648" id="id-58127"></polygon><polygon points="122 692 120 676 84 671 74 690 122 696" fill="#109948" id="id-58127"></polygon><path d=" M 182,694 L 182,700 C 176,639 175,644 212,585 C 214,623 182,694 182,694 Z" fill="#0C424F" id="id-58127"></path><path d=" M 246,358 C 254,405 252,440 250,467 C 247,492 216,522 208,534 L 184,510 C 192,508 214,518 214,518 C 277,432 236,413 240,323 C 243,321 250,297 253,289 L 262,315 L 246,358 Z" fill="#0C424F" id="id-58127"></path><path d=" M 135,513 C 132,513 78,518 77,514 L 81,512 C 80,510 80,509 79,505 L 96,477 L 135,513 Z" fill="#0C424F" id="id-58127"></path><path d=" M 163,286 L 110,305 L 91,318 C 90,318 59,262 51,228 C 55,229 58,231 60,234 C 65,244 103,294 103,294 C 103,294 158,286 163,286 Z" fill="#0E444F" id="id-58127"></path><path d=" M 520,252 C 514,233 502,199 499,196 C 496,192 395,175 390,175 C 385,175 315,190 303,192 C 291,193 264,210 264,210 L 248,255 C 249,241 252,226 256,212 L 307,181 L 343,180 L 385,168 L 384,117 L 377,112 L 377,97 C 377,97 401,94 402,99 C 403,104 402,116 402,116 L 394,117 L 395,169 L 467,186 L 504,189 L 520,252 Z" fill="#0C424F" id="id-58127"></path><path d=" M 684,503 C 670,501 607,498 598,527 L 569,540 L 555,580 C 555,561 560,520 560,520 C 531,467 503,476 516,395 C 519,371 521,355 522,346 C 521,311 511,302 522,275 C 525,283 527,318 531,319 C 533,320 536,320 538,321 L 527,333 C 528,370 526,430 530,467 C 532,468 551,490 566,496 L 574,507 L 593,513 C 593,513 611,503 621,504 L 639,487 C 638,478 633,455 632,446 L 641,424 L 641,432 L 635,446 L 644,487 L 629,500 L 668,484 L 684,503 Z" fill="#0C424F" id="id-58127"></path><path d=" M 109,697 C 105,668 109,664 117,639 L 95,563 L 155,512 L 141,486 L 166,511 C 160,507 104,561 99,564 L 120,635 L 111,670 L 113,698 L 109,697 Z" fill="#0C424F" id="id-58127"></path><polygon points="665 688 651 661 652 625 669 566 625 505 632 505 672 566 657 623 655 659 669 689" fill="#0C424F" id="id-58127"></polygon><path d=" M 681,289 L 672,298 L 631,284 L 631,283 L 578,295 C 567,284 634,281 632,280 L 634,278 L 678,280 C 678,283 679,284 681,289 Z" fill="#0C424F" id="id-58127"></path><path d=" M 706,354 C 698,341 666,307 681,289 C 688,308 702,339 706,354 Z" fill="#82D1E0" id="id-58127"></path><path d=" M 703,147 L 680,124 L 588,88 L 556,68 L 513,92 L 512,102 L 487,96 L 508,62 L 527,67 L 554,61 C 618,58 658,91 668,96 C 676,101 694,129 703,147 Z" fill="#89D4E9" id="id-58127"></path><path d=" M 439,45 L 476,42 L 497,19 L 491,11 C 491,11 453,44 439,45 Z" fill="#89D4E9" id="id-58127"></path><path d=" M 344,41 L 299,44 L 268,35 C 267,29 281,15 280,9 L 305,28 L 344,41 Z" fill="#89D4E9" id="id-58127"></path><path d=" M 282,82 L 248,101 L 239,99 C 239,99 239,88 232,86 C 165,124 170,62 123,92 L 119,78 C 140,68 163,61 186,58 L 227,81 L 264,66 L 264,64 L 282,82 Z" fill="#89D4E9" id="id-58127"></path><path d=" M 64,238 L 50,223 C 43,189 49,156 52,144 C 58,159 69,229 64,238 Z" fill="#949CCE" id="id-58127"></path><path d=" M 84,481 L 81,500 L 78,504 C 74,488 47,443 42,423 C 39,410 45,380 59,334 C 62,331 65,329 66,329 C 52,405 43,420 84,481 Z" fill="#879CD0" id="id-58127"></path><path d=" M 61,545 C 65,550 71,553 77,551 L 38,585 C 38,585 30,652 56,703 C 28,664 19,600 21,577 C 24,555 67,522 81,512 C 81,512 80,511 80,511 L 86,513 C 78,519 54,537 61,545 Z" fill="#7D99CF" id="id-58127"></path><path d=" M 605,163 C 602,169 630,198 637,196 C 644,196 662,182 665,177 C 669,172 666,160 661,154 L 665,149 L 651,133 L 644,141 C 632,129 604,152 605,163 Z" fill="#210F10" id="id-58127"></path><path d=" M 609,163 L 627,164 L 630,161 L 632,162 L 652,144 L 652,138 L 638,151 L 624,142 C 624,142 610,154 609,163 Z" fill="#67587F" id="id-58127"></path><polygon points="639 171 659 153 642 176" fill="#129247" id="id-58127"></polygon><polygon points="656 171 644 176 641 190 655 182" fill="#1F4822" id="id-58127"></polygon><path d=" M 672,104 L 632,99 L 599,67 C 601,60 632,58 632,58 L 648,30 L 648,29 L 670,40 L 658,73 L 672,104 Z" fill="#210F10" id="id-58127"></path><path d=" M 612,71 C 612,71 634,64 638,65 C 641,65 645,70 645,70 L 625,87 L 612,71 Z" fill="#675880" id="id-58127"></path><polygon points="670 40 670 41 651 42 648 30 648 29" fill="#675880" id="id-58127"></polygon><path d=" M 693,249 L 697,212 L 708,185 L 715,198 L 738,212 L 731,228 L 708,228 C 708,228 694,249 693,249 Z" fill="#210F10" id="id-58127"></path><path d=" M 699,214 L 712,214 L 716,207 L 732,214 L 735,212 L 714,201 L 709,192 C 709,192 699,209 699,214 Z" fill="#67587F" id="id-58127"></path><polygon points="171 201 185 190 187 154 154 141 124 181 142 195" fill="#210F10" id="id-58127"></polygon><path d=" M 155,149 L 159,171 L 175,168 L 185,158 C 185,158 168,145 155,149 Z" fill="#5F4F76" id="id-58127"></path><path d=" M 172,171 L 152,166 L 147,176 L 152,183 C 152,183 165,170 172,171 Z" fill="#5F4F76" id="id-58127"></path><polygon points="172 177 159 188 170 188" fill="#86C442" id="id-58127"></polygon><polygon points="139 69 119 105 70 119 85 84 68 60 90 48 104 72" fill="#210F10" id="id-58127"></polygon><polygon points="107 75 98 83 119 100 129 75" fill="#685983" id="id-58127"></polygon><polygon points="90 48 85 61 68 60" fill="#365AA9" id="id-58127"></polygon><path d=" M 47,177 L 61,206 L 58,250 C 58,250 40,227 39,218 L 18,218 L 16,198 L 38,192 C 38,192 42,178 47,177 Z" fill="#210F10" id="id-58127"></path><polygon points="93 367 139 365 130 397 89 395" fill="#210F10" id="id-58127"></polygon><polygon points="100 356 90 407 60 407 37 417 44 372 60 361" fill="#D11C65" id="id-58127"></polygon><polygon points="90 407 89 412 59 412 42 419 42 427 37 424 37 417 60 407" fill="#61062B" id="id-58127"></polygon><polygon points="44 376 46 382 59 377 93 375 94 362 60 366" fill="#CFAFA8" id="id-58127"></polygon><polygon points="494 61 502 73 514 59 529 59 532 53 532 47 510 47 504 32" fill="#210F10" id="id-58127"></polygon><polygon points="268 29 272 51 264 64 259 53 242 50 244 37 259 38" fill="#210F10" id="id-58127"></polygon><polygon points="263 117 271 160 336 149 323 106" fill="#0B1E27" id="id-58127"></polygon><polygon points="269 120 270 130 324 122 321 111" fill="#D88328" id="id-58127"></polygon><polygon points="272 135 277 152 326 144 322 126" fill="#61062B" id="id-58127"></polygon><polygon points="380 111 400 111 390 117" fill="#210F10" id="id-58127"></polygon><polygon points="379 98 379 101 400 101 399 98" fill="#89D4E9" id="id-58127"></polygon><path d=" M 289,7 L 316,30 L 351,36 L 351,42 C 306,36 315,41 278,14 C 280,11 281,6 281,2 M 493,1 C 493,1 493,5 493,12 L 460,40 L 428,47 L 428,39 L 454,36 L 486,7" fill="#210F10" id="id-58218"></path><path d=" M 60,709 L 60,701 C 66,696 74,693 86,693 C 103,693 120,693 139,699 C 151,703 166,711 182,723 L 181,733 C 165,720 151,712 138,708 C 119,702 94,702 84,701 C 77,701 72,703 67,707 L 63,718 L 60,709 Z" fill="#210F10" id="id-58219"></path><path d=" M 588,718 L 590,708 C 604,699 614,693 621,691 C 635,686 650,684 656,684 C 668,684 683,687 703,693 L 702,702 C 677,696 661,693 654,693 C 650,693 638,694 623,699 C 617,701 609,705 598,711 L 588,718 Z" fill="#210F10" opacity="0.839" id="id-58219"></path></g><defs><linearGradient x1="43%" y1="46%" x2="50%" y2="68%" id="id-64403"><stop stop-color="#4D1E2B" offset="0%"></stop><stop stop-color="#2E1018" offset="100%"></stop></linearGradient><linearGradient x1="34%" y1="50%" x2="37%" y2="69%" id="id-64404"><stop stop-color="#4D1E2B" offset="0%"></stop><stop stop-color="#2E1018" offset="100%"></stop></linearGradient><linearGradient x1="49%" y1="6%" x2="51%" y2="88%" id="id-64405"><stop stop-color="#270C13" offset="0%"></stop><stop stop-color="#6D2F40" offset="100%"></stop></linearGradient><linearGradient x1="46%" y1="10%" x2="55%" y2="85%" id="id-64406"><stop stop-color="#6D2E40" offset="0%"></stop><stop stop-color="#20090F" offset="52%"></stop><stop stop-color="#6D2F40" offset="100%"></stop></linearGradient></defs><g transform=" translate(569,310)" id="id-64407"><g transform=" translate(0,13)" id="id-64408"><path d=" M 67,53 C 67,54 52,64 42,81 C 38,88 27,89 23,83 C 18,77 38,65 34,78 C 34,70 21,78 25,82 C 28,85 35,87 39,80 C 42,75 49,62 50,56 C 51,51 41,87 29,83 C 25,82 26,77 30,76 C 33,76 32,80 31,80 C 33,76 26,80 29,82 C 32,84 39,76 39,73 C 41,68 35,68 21,73 C 34,62 43,56 48,54 C 60,50 67,53 67,53 Z" fill="url(#id-64403)" id="id-64409"></path><path d=" M 14,73 C 13,75 21,104 10,102 C 5,102 8,102 11,101 C 19,98 11,71 11,69 C 13,72 14,73 14,73 Z" transform=" translate(12,86) rotate(-13) translate(-12,-86)" fill="#2E1018" id="id-64409"></path><path d=" M 18,71 C 18,72 21,90 21,96 C 20,103 13,108 8,105 C 2,103 4,103 9,104 C 12,105 18,102 18,96 C 19,89 14,77 14,75 C 17,72 18,71 18,71 Z" transform=" translate(13,89) rotate(-13) translate(-13,-89)" fill="#2E1018" id="id-64409"></path><path d=" M 157,51 C 158,52 139,67 131,79 C 127,86 118,93 113,81 C 108,68 137,66 121,78 C 128,68 113,70 115,81 C 116,87 125,85 128,78 C 131,73 148,54 142,55 C 135,56 130,85 118,81 C 114,80 117,73 121,74 C 120,75 117,77 119,79 C 121,81 129,74 129,71 C 129,64 123,64 111,71 C 113,61 119,55 128,52 C 141,47 152,44 157,51 Z" transform=" translate(134,67) scale(-1,1) translate(-134,-67)" fill="url(#id-64404)" id="id-64409"></path><path d=" M 171,64 C 170,65 178,94 167,93 C 163,92 165,92 168,91 C 176,89 168,61 168,60 C 170,62 171,64 171,64 Z" transform=" translate(169,76) scale(-1,1) rotate(-13) translate(-169,-76)" fill="#2E1018" id="id-64409"></path><path d=" M 173,62 C 173,63 177,81 176,88 C 175,94 168,99 163,96 C 157,94 160,94 164,95 C 167,96 173,93 173,88 C 174,80 169,68 169,67 C 172,64 173,62 173,62 Z" transform=" translate(168,80) scale(-1,1) rotate(-13) translate(-168,-80)" fill="#2E1018" id="id-64409"></path><path d=" M 183,123 C 180,130 178,135 177,138 C 177,139 176,170 166,169 C 161,169 164,157 169,162 C 164,161 164,168 167,167 C 175,164 175,135 174,134 C 172,112 168,79 157,69 C 149,43 126,30 90,30 C 35,30 49,48 19,79 C 7,90 10,184 20,172 C 21,171 21,165 17,168 C 20,162 24,170 22,173 C 22,174 10,190 4,123 C 3,111 0,69 5,56 C 11,42 17,10 84,3 C 109,0 147,-1 168,40 C 188,81 186,124 183,123 Z" fill="#2E1018" id="id-64409"></path><path d=" M 101,1 C 55,5 34,10 14,36 C 15,35 29,23 36,23 C 36,23 14,40 14,46 C 14,46 26,36 30,36 C 30,36 22,42 22,44 C 25,42 27,41 30,40 C 30,40 17,53 17,58 C 17,58 34,48 39,49 C 39,49 22,62 18,75 L 23,75 C 45,57 86,49 119,52 C 151,54 162,75 167,90 L 168,90 C 168,88 169,81 168,62 C 168,44 146,-3 101,1 Z" fill="#4D1E2B" id="id-64409"></path><path d=" M 90,46 C 89,46 81,44 65,46 C 56,47 58,35 72,29 C 72,29 46,32 47,30 C 48,29 62,14 86,12 C 86,12 48,2 34,33 C 34,33 43,33 46,33 C 46,33 41,44 54,48 C 61,50 83,46 90,46 Z" fill="#7B3F50" id="id-64409"></path><path d=" M 126,9 C 126,9 144,34 147,55 C 148,50 149,45 148,40 C 148,40 157,56 159,65 C 159,48 145,16 126,9 Z" fill="#7B3F50" id="id-64409"></path></g><g transform=" translate(122,283)" id="id-64419"><path d=" M 47,1 C 85,37 83,69 43,97 C 93,129 68,177 61,179 C 93,220 93,251 61,273 L 61,287 C 76,297 84,311 85,327 C 86,344 79,360 64,377 L 68,383 C 83,389 91,400 91,417 C 91,435 83,457 68,485 C 57,456 51,436 50,425 C 49,414 51,402 58,387 L 54,380 C 38,378 28,365 25,341 C 22,316 28,300 42,291 L 42,277 C 11,263 11,230 42,179 C 10,179 -16,124 22,97 C -5,72 -6,42 17,8 L 47,1 Z" fill="url(#id-64405)" id="id-64420"></path><path d=" M 81,213 C 91,240 84,260 61,273 L 42,277 C 23,270 15,255 19,232 C 38,267 34,232 46,241 C 79,267 73,188 81,213 Z" fill="#3B1620" id="id-64420"></path><path d=" M 43,97 C 93,129 68,177 61,179 C 79,202 80,209 77,213 C 74,217 65,198 57,211 C 52,219 52,178 42,194 C 33,208 21,213 42,179 C 10,179 -16,124 22,97 C 10,82 18,81 30,77 C 40,74 20,49 43,57 C 63,65 55,22 61,25 C 69,29 94,63 43,97 Z" fill="url(#id-64406)" id="id-64420"></path><path d=" M 85,327 C 86,344 79,360 64,377 L 54,380 C 38,378 28,365 25,341 C 43,350 54,350 57,341 C 72,291 80,343 85,327 Z" fill="#3B1620" id="id-64420"></path><path d=" M 91,417 C 91,435 83,457 68,485 C 57,456 51,436 50,425 C 49,415 71,420 74,446 C 74,449 80,440 91,417 Z" fill="#3B1620" id="id-64420"></path><path d=" M 34,129 C 28,135 25,175 63,171 C 89,169 30,165 59,147 C 66,142 35,144 41,138 C 59,119 40,123 34,129 Z" transform=" translate(50,148) rotate(-119) translate(-50,-148)" fill="#582533" id="id-64425"></path></g><g transform=" translate(72,1)" id="id-64426"><path d=" M 6,2 C 18,1 25,0 28,0 C 32,0 43,3 43,6 C 43,9 44,14 42,14 C 42,14 28,15 1,17 C 2,8 3,3 6,2 Z" fill="#866E90" id="id-64409"></path><path d=" M 9,5 L 19,2 L 19,14 C 16,14 12,14 9,15 L 9,5 Z" fill="#B4BFDC" id="id-64409"></path><path d=" M 67,291 L 67,283 C 79,280 87,278 91,277 C 94,277 97,278 101,279 C 103,283 102,286 97,289 C 92,292 82,293 67,291 Z" fill="#866E90" id="id-64429"></path><path d=" M 67,382 C 67,381 67,379 67,376 C 67,373 76,373 81,373 C 84,372 90,373 99,375 C 100,379 99,381 97,382 C 96,383 92,385 87,385 C 84,385 77,384 67,382 Z" fill="#866E90" id="id-64429"></path><path d=" M 89,466 C 89,465 89,463 89,460 C 89,457 95,457 99,456 C 101,456 106,457 114,459 C 114,462 113,465 111,466 C 110,467 107,469 104,469 C 101,469 96,468 89,466 Z" fill="#866E90" id="id-64429"></path><path d=" M 92,573 C 91,566 91,561 91,559 C 91,556 95,557 99,556 C 101,556 105,556 111,555 C 113,563 113,568 111,569 C 110,570 107,569 104,569 C 101,569 97,570 92,573 Z" fill="#866E90" id="id-64429"></path><path d=" M 108,670 C 105,667 103,665 103,663 C 103,660 107,659 113,660 C 118,663 119,665 117,667 C 117,667 114,668 108,670 Z" fill="#866E90" id="id-64429"></path><path d=" M 70,282 C 75,281 78,280 80,279 L 81,292 C 78,292 75,292 70,291 C 69,291 69,282 70,282 Z" fill="#B4BFDC" id="id-64429"></path><path d=" M 73,373 C 75,373 79,373 81,373 C 83,381 83,385 82,385 C 80,385 77,384 73,384 C 71,383 70,374 73,373 Z" fill="#B4BFDC" id="id-64429"></path><path d=" M 94,457 C 96,457 98,457 99,456 C 101,456 103,460 104,469 C 102,469 98,468 93,467 C 91,467 91,457 94,457 Z" fill="#B4BFDC" id="id-64429"></path><path d=" M 93,557 C 95,556 97,557 99,556 C 101,556 103,560 104,569 C 102,569 99,570 96,571 C 95,572 92,557 93,557 Z" fill="#B4BFDC" id="id-64429"></path><path d=" M 106,660 C 107,660 108,660 110,660 L 112,669 C 111,669 110,669 109,669 C 109,670 104,661 106,660 Z" fill="#B4BFDC" id="id-64429"></path></g></g><defs></defs><path d=" M 1202,1685 C 1201,1683 1198,1681 1197,1679 C 1196,1678 1196,1676 1196,1675 C 1196,1674 1194,1672 1193,1671 C 1193,1670 1192,1669 1192,1668 C 1192,1667 1195,1666 1196,1665 C 1198,1663 1200,1661 1202,1658 C 1207,1649 1216,1643 1226,1641 C 1240,1638 1254,1644 1263,1655 C 1264,1657 1266,1660 1265,1663 C 1265,1664 1263,1665 1263,1666 C 1263,1667 1265,1669 1266,1670 C 1271,1673 1269,1673 1270,1678 C 1270,1682 1274,1681 1274,1685 L 1274,1685 L 1274,1686 C 1274,1686 1274,1686 1274,1686 C 1273,1688 1271,1688 1270,1689 C 1268,1691 1267,1692 1266,1694 C 1263,1698 1261,1700 1258,1704 C 1242,1719 1214,1716 1202,1696 C 1201,1695 1199,1691 1200,1689 C 1201,1688 1202,1688 1202,1685 L 1202,1685 Z M 1268,1685 C 1267,1682 1265,1682 1264,1679 C 1264,1678 1264,1677 1264,1676 C 1264,1675 1264,1674 1264,1674 C 1264,1673 1263,1672 1262,1672 C 1260,1670 1256,1669 1258,1665 C 1259,1662 1261,1662 1258,1658 C 1246,1643 1223,1641 1210,1656 C 1209,1658 1208,1659 1207,1661 C 1205,1663 1202,1665 1200,1667 C 1197,1669 1197,1669 1200,1671 C 1203,1675 1201,1676 1203,1679 C 1204,1681 1207,1682 1208,1685 L 1208,1685 L 1208,1685 C 1207,1690 1203,1688 1207,1694 C 1216,1706 1232,1711 1246,1705 C 1249,1704 1252,1702 1255,1699 C 1257,1697 1259,1694 1261,1691 C 1263,1689 1267,1687 1268,1685 L 1268,1685 Z M 1254,1685 C 1254,1682 1252,1682 1252,1680 C 1251,1677 1251,1673 1255,1674 C 1258,1675 1256,1678 1258,1680 C 1259,1682 1260,1682 1260,1685 L 1261,1686 L 1260,1686 C 1259,1688 1257,1689 1255,1690 C 1248,1694 1246,1699 1237,1700 C 1231,1701 1225,1700 1221,1697 C 1219,1696 1216,1694 1215,1692 C 1213,1689 1216,1688 1216,1685 C 1215,1683 1212,1682 1211,1680 C 1208,1677 1210,1673 1214,1674 L 1214,1674 L 1215,1675 C 1216,1678 1215,1679 1217,1681 C 1219,1682 1222,1683 1222,1686 C 1222,1689 1220,1690 1224,1692 C 1230,1696 1238,1695 1244,1691 C 1246,1690 1253,1687 1254,1685 L 1254,1685 Z M 1244,1674 C 1242,1675 1239,1674 1237,1673 C 1236,1672 1233,1670 1232,1669 C 1231,1669 1231,1668 1231,1667 C 1231,1666 1233,1665 1234,1664 C 1235,1662 1237,1661 1238,1659 C 1242,1652 1249,1658 1247,1663 C 1246,1665 1243,1666 1243,1668 C 1243,1670 1246,1671 1244,1674 L 1244,1674 L 1244,1674 L 1244,1674 Z M 1222,1656 C 1224,1655 1227,1656 1228,1659 C 1229,1660 1229,1661 1229,1663 C 1228,1665 1223,1666 1225,1669 C 1225,1670 1226,1670 1226,1671 C 1227,1674 1226,1675 1223,1675 C 1222,1675 1219,1673 1218,1672 C 1216,1671 1212,1669 1214,1666 C 1215,1664 1217,1664 1218,1662 C 1219,1660 1220,1658 1222,1656 L 1222,1656 Z" fill="#343D53" opacity="0.297" id="id-77051"></path></svg>