<?xml version="1.0" encoding="UTF-8"?><svg width="1320px" height="1760px" viewBox="0 0 1320 1760" version="1.1" xmlns="http://www.w3.org/2000/svg" xmlns:xlink="http://www.w3.org/1999/xlink"><defs></defs><g stroke="none" stroke-width="1" fill="none" id="id-30249" fill-rule="evenodd"><g id="id-30250"><g id="id-30251"><rect fill="#CACFDA" width="1320" height="1760" x="0" y="0" id="id-30252"></rect><g transform=" translate(143,346)" fill="#0038A7" id="id-30253"><path d=" M 211,114 C 377,-11 604,-33 770,47 C 796,70 821,56 828,29 C 828,29 832,91 841,215 L 841,215 L 841,215 C 841,209 842,138 842,0 L 842,0 L 842,0 C 843,3 863,53 902,150 C 920,168 933,187 945,205 L 947,207 C 948,209 950,211 951,214 C 966,252 972,295 978,337 C 978,337 981,317 986,278 C 1060,439 1065,594 1000,746 L 1000,746 L 1000,746 C 1000,745 1000,734 1001,710 C 986,759 960,805 925,850 C 925,850 934,845 951,835 C 951,835 951,835 951,835 L 951,835 C 950,836 940,849 920,875 C 920,875 912,915 896,995 C 896,995 895,926 893,789 L 893,789 L 893,789 C 892,789 890,791 885,793 L 885,793 L 885,793 C 885,795 884,835 884,911 C 731,1052 520,1074 365,1011 C 365,1011 353,1027 330,1058 L 330,1058 L 330,1058 C 330,1057 330,1033 331,986 C 324,979 318,974 313,968 C 313,968 309,1028 301,1149 C 301,1149 298,1092 294,978 C 250,951 211,922 179,888 C 176,892 174,897 173,903 C 173,903 171,955 167,1060 C 162,981 160,947 140,894 C 128,871 115,844 103,817 L 100,811 C 94,798 89,786 83,774 C 101,807 126,843 156,882 L 156,882 L 155,863 C -2,681 -41,428 116,210 C 135,190 151,171 167,152 L 170,149 L 170,149 L 173,145 C 176,142 179,139 182,135 C 182,135 182,135 182,135 L 182,135 C 182,136 182,143 182,155 C 182,155 184,154 187,152 C 187,152 186,114 185,40 C 185,40 193,65 211,114 Z M 885,607 L 880,721 L 890,713 C 890,713 888,678 885,607 L 885,607 Z" id="id-30254"></path><path d=" M 740,1028 L 718,1024 C 718,1024 788,993 788,993 L 743,1039 C 745,1031 743,1028 740,1028 Z" id="id-30255"></path><path d=" M 719,1044 C 711,1052 707,1056 707,1056 L 730,1065 C 722,1051 719,1044 719,1044 Z" id="id-30256"></path><path d=" M 683,1098 C 696,1087 702,1082 702,1082 L 696,1109 C 687,1101 683,1098 683,1098 Z" id="id-30257"></path><path d=" M 683,1059 C 663,1047 653,1042 653,1042 L 700,1028 C 689,1049 683,1059 683,1059 Z" id="id-30258"></path><path d=" M 46,302 C 15,355 0,382 0,382 C 5,389 7,392 7,392 C 1,433 1,467 6,496 C 7,422 20,357 46,302 Z" id="id-30259"></path></g></g><rect fill="#FA1800" width="37" height="134" x="0" y="0" id="id-30252"></rect><rect fill="#FA1800" width="37" height="134" x="0" y="813" id="id-30252"></rect><rect fill="#FA1800" width="37" height="134" x="0" y="1626" id="id-30252"></rect></g></g><defs><linearGradient x1="100%" y1="46%" x2="12%" y2="47%" id="id-74554"><stop stop-color="#F97338" offset="0%"></stop><stop stop-color="#F06728" offset="21%"></stop><stop stop-color="#FFAA6B" offset="46%"></stop><stop stop-color="#FF9A57" offset="80%"></stop><stop stop-color="#FF8340" offset="100%"></stop></linearGradient><linearGradient x1="53%" y1="81%" x2="50%" y2="21%" id="id-74555"><stop stop-color="#E58D69" offset="0%"></stop><stop stop-color="#E1745C" offset="24%"></stop><stop stop-color="#E27C40" offset="100%"></stop></linearGradient><linearGradient x1="52%" y1="-4%" x2="46%" y2="70%" id="id-74556"><stop stop-color="#ED8D5B" offset="0%"></stop><stop stop-color="#C76D3B" offset="100%"></stop></linearGradient><linearGradient x1="46%" y1="43%" x2="15%" y2="43%" id="id-74557"><stop stop-color="#EE8152" offset="0%"></stop><stop stop-color="#CF5621" offset="100%"></stop></linearGradient><linearGradient x1="54%" y1="37%" x2="12%" y2="72%" id="id-74558"><stop stop-color="#3C1B05" offset="0%"></stop><stop stop-color="#AE5B2E" offset="100%"></stop></linearGradient><linearGradient x1="40%" y1="14%" x2="61%" y2="85%" id="id-74559"><stop stop-color="#6E1B17" offset="0%"></stop><stop stop-color="#852720" offset="100%"></stop></linearGradient><linearGradient x1="27%" y1="47%" x2="91%" y2="49%" id="id-74560"><stop stop-color="#FFA58A" offset="0%"></stop><stop stop-color="#FFC3A1" offset="100%"></stop></linearGradient><linearGradient x1="47%" y1="60%" x2="49%" y2="79%" id="id-74561"><stop stop-color="#EE833F" offset="0%"></stop><stop stop-color="#E6713C" offset="60%"></stop><stop stop-color="#F69666" offset="100%"></stop></linearGradient><linearGradient x1="29%" y1="56%" x2="69%" y2="53%" id="id-74562"><stop stop-color="#D97647" offset="0%"></stop><stop stop-color="#D6623C" offset="8%"></stop><stop stop-color="#D77043" offset="18%"></stop><stop stop-color="#D76545" offset="38%"></stop><stop stop-color="#D36346" offset="65%"></stop><stop stop-color="#D16140" offset="81%"></stop><stop stop-color="#984F3B" offset="100%"></stop></linearGradient><linearGradient x1="47%" y1="45%" x2="54%" y2="46%" id="id-74563"><stop stop-color="#E16241" offset="0%"></stop><stop stop-color="#E1673E" offset="62%"></stop><stop stop-color="#D45A30" offset="77%"></stop><stop stop-color="#E37F49" offset="100%"></stop></linearGradient><linearGradient x1="51%" y1="7%" x2="50%" y2="100%" id="id-74564"><stop stop-color="#E86B40" offset="0%"></stop><stop stop-color="#E3845C" offset="75%"></stop><stop stop-color="#E88461" offset="100%"></stop></linearGradient><linearGradient x1="51%" y1="11%" x2="49%" y2="91%" id="id-74565"><stop stop-color="#E8793E" offset="0%"></stop><stop stop-color="#E5763C" offset="73%"></stop><stop stop-color="#E97E40" offset="100%"></stop></linearGradient><linearGradient x1="51%" y1="-5%" x2="48%" y2="96%" id="id-74566"><stop stop-color="#EF773C" offset="0%"></stop><stop stop-color="#DD662E" offset="100%"></stop></linearGradient><linearGradient x1="50%" y1="19%" x2="50%" y2="69%" id="id-74567"><stop stop-color="#C04A19" offset="0%"></stop><stop stop-color="#A33710" offset="46%"></stop><stop stop-color="#BE440B" offset="100%"></stop></linearGradient><linearGradient x1="46%" y1="74%" x2="39%" y2="35%" id="id-74568"><stop stop-color="#B34A35" offset="0%"></stop><stop stop-color="#C55E3E" offset="51%"></stop><stop stop-color="#D4623B" offset="100%"></stop></linearGradient><linearGradient x1="46%" y1="16%" x2="49%" y2="82%" id="id-74569"><stop stop-color="#9B473D" offset="0%" stop-opacity="0.186"></stop><stop stop-color="#5F2520" offset="100%"></stop></linearGradient><linearGradient x1="41%" y1="19%" x2="50%" y2="100%" id="id-74570"><stop stop-color="#CC5E47" offset="0%"></stop><stop stop-color="#B13E35" offset="100%"></stop></linearGradient><linearGradient x1="50%" y1="31%" x2="45%" y2="50%" id="id-74571"><stop stop-color="#E76A31" offset="0%"></stop><stop stop-color="#EB8D54" offset="100%"></stop></linearGradient><linearGradient x1="51%" y1="22%" x2="50%" y2="100%" id="id-74572"><stop stop-color="#C74B40" offset="0%"></stop><stop stop-color="#C85E52" offset="100%"></stop></linearGradient><linearGradient x1="49%" y1="0%" x2="50%" y2="99%" id="id-74573"><stop stop-color="#DB6F3D" offset="0%"></stop><stop stop-color="#E8764A" offset="100%"></stop></linearGradient><linearGradient x1="44%" y1="15%" x2="50%" y2="100%" id="id-74574"><stop stop-color="#C15138" offset="0%"></stop><stop stop-color="#BA4D37" offset="100%"></stop></linearGradient><linearGradient x1="52%" y1="21%" x2="49%" y2="83%" id="id-74575"><stop stop-color="#E87740" offset="0%"></stop><stop stop-color="#E77E4F" offset="48%"></stop><stop stop-color="#E48553" offset="100%"></stop></linearGradient><linearGradient x1="85%" y1="60%" x2="15%" y2="60%" id="id-74576"><stop stop-color="#E76C34" offset="0%"></stop><stop stop-color="#D76128" offset="100%"></stop></linearGradient><linearGradient x1="50%" y1="-3%" x2="59%" y2="91%" id="id-74577"><stop stop-color="#F98450" offset="0%"></stop><stop stop-color="#E16C36" offset="53%"></stop><stop stop-color="#D55D29" offset="66%"></stop><stop stop-color="#D85620" offset="100%"></stop></linearGradient><linearGradient x1="55%" y1="48%" x2="46%" y2="33%" id="id-74578"><stop stop-color="#E87C40" offset="0%"></stop><stop stop-color="#E77C42" offset="86%"></stop><stop stop-color="#E47138" offset="100%"></stop></linearGradient><linearGradient x1="50%" y1="19%" x2="50%" y2="78%" id="id-74579"><stop stop-color="#913919" offset="0%"></stop><stop stop-color="#AB4722" offset="50%"></stop><stop stop-color="#842C26" offset="100%"></stop></linearGradient><linearGradient x1="50%" y1="10%" x2="50%" y2="43%" id="id-74580"><stop stop-color="#EC7237" offset="0%"></stop><stop stop-color="#CB5D37" offset="15%"></stop><stop stop-color="#AF3F09" offset="68%"></stop><stop stop-color="#D04F19" offset="100%"></stop></linearGradient><linearGradient x1="89%" y1="50%" x2="7%" y2="52%" id="id-74581"><stop stop-color="#A93700" offset="0%"></stop><stop stop-color="#B85C4D" offset="53%" stop-opacity="0.199"></stop><stop stop-color="#A3451F" offset="75%"></stop><stop stop-color="#952903" offset="100%"></stop></linearGradient><linearGradient x1="44%" y1="70%" x2="86%" y2="30%" id="id-74582"><stop stop-color="#FF975B" offset="0%"></stop><stop stop-color="#FFAA6C" offset="100%"></stop></linearGradient><linearGradient x1="33%" y1="92%" x2="62%" y2="23%" id="id-74583"><stop stop-color="#AC401F" offset="0%"></stop><stop stop-color="#FF8245" offset="40%"></stop><stop stop-color="#FF965B" offset="100%"></stop></linearGradient><linearGradient x1="35%" y1="94%" x2="47%" y2="12%" id="id-74584"><stop stop-color="#DF5820" offset="0%"></stop><stop stop-color="#FF894D" offset="40%"></stop><stop stop-color="#FFA769" offset="100%"></stop></linearGradient><linearGradient x1="50%" y1="54%" x2="27%" y2="9%" id="id-74585"><stop stop-color="#F7AB80" offset="0%"></stop><stop stop-color="#DDAB90" offset="100%" stop-opacity="0.078"></stop></linearGradient><linearGradient x1="50%" y1="0%" x2="93%" y2="69%" id="id-74586"><stop stop-color="#FF9558" offset="0%"></stop><stop stop-color="#FF8B4A" offset="70%"></stop><stop stop-color="#C6422F" offset="100%"></stop></linearGradient><linearGradient x1="36%" y1="84%" x2="25%" y2="44%" id="id-74587"><stop stop-color="#C98762" offset="0%" stop-opacity="0.509"></stop><stop stop-color="#90492C" offset="35%" stop-opacity="0.675"></stop><stop stop-color="#762E17" offset="100%" stop-opacity="0"></stop></linearGradient><linearGradient x1="63%" y1="95%" x2="43%" y2="20%" id="id-74588"><stop stop-color="#E67D45" offset="0%"></stop><stop stop-color="#E98D52" offset="46%"></stop><stop stop-color="#E27847" offset="100%"></stop></linearGradient><linearGradient x1="40%" y1="0%" x2="50%" y2="86%" id="id-74589"><stop stop-color="#E67D42" offset="0%"></stop><stop stop-color="#E47D44" offset="100%"></stop></linearGradient><linearGradient x1="50%" y1="0%" x2="50%" y2="90%" id="id-74590"><stop stop-color="#EA8447" offset="0%"></stop><stop stop-color="#E79253" offset="100%"></stop></linearGradient><linearGradient x1="33%" y1="79%" x2="21%" y2="44%" id="id-74591"><stop stop-color="#BE6457" offset="0%"></stop><stop stop-color="#983F32" offset="28%" stop-opacity="0.928"></stop><stop stop-color="#762E17" offset="100%" stop-opacity="0"></stop></linearGradient><linearGradient x1="4%" y1="47%" x2="92%" y2="45%" id="id-74592"><stop stop-color="#7E2A0A" offset="0%"></stop><stop stop-color="#993A16" offset="17%" stop-opacity="0.753"></stop><stop stop-color="#A94736" offset="48%" stop-opacity="0.386"></stop><stop stop-color="#AC4218" offset="78%" stop-opacity="0.762"></stop><stop stop-color="#9F3B13" offset="100%"></stop></linearGradient><linearGradient x1="60%" y1="45%" x2="67%" y2="53%" id="id-74593"><stop stop-color="#FF8B59" offset="0%"></stop><stop stop-color="#FFBA99" offset="100%"></stop></linearGradient><linearGradient x1="48%" y1="15%" x2="54%" y2="81%" id="id-74594"><stop stop-color="#E6976B" offset="0%"></stop><stop stop-color="#E39568" offset="100%"></stop></linearGradient><linearGradient x1="47%" y1="44%" x2="50%" y2="61%" id="id-74595"><stop stop-color="#943B2F" offset="0%" stop-opacity="0.175"></stop><stop stop-color="#61301B" offset="100%"></stop></linearGradient><linearGradient x1="26%" y1="-7%" x2="50%" y2="96%" id="id-74596"><stop stop-color="#37373F" offset="0%"></stop><stop stop-color="#19191D" offset="100%"></stop></linearGradient><linearGradient x1="50%" y1="12%" x2="59%" y2="82%" id="id-74597"><stop stop-color="#252525" offset="0%"></stop><stop stop-color="#101010" offset="100%"></stop></linearGradient><linearGradient x1="25%" y1="-16%" x2="50%" y2="98%" id="id-74598"><stop stop-color="#37373F" offset="0%"></stop><stop stop-color="#19191D" offset="100%"></stop></linearGradient><linearGradient x1="75%" y1="39%" x2="50%" y2="93%" id="id-74599"><stop stop-color="#252525" offset="0%"></stop><stop stop-color="#000000" offset="100%"></stop></linearGradient></defs><g transform=" translate(334,549)" id="id-74600"><polygon points="561 754 565 871 565 881 537 893 533 897 535 901 532 909 543 910 597 864" fill="#560304" id="id-74601"></polygon><polygon points="537 282 539 246 535 195 529 158 522 137 484 118 440 111 212 111 188 113 157 123 121 139 111 186 108 221 109 290" fill="url(#id-74554)" id="id-74601"></polygon><polygon points="467 393 474 506 503 589 537 672 556 728 561 754 546 794 552 851 551 861 552 874 556 885 567 882 568 866 570 860 570 843 571 834 576 843 576 859 579 864 573 874 571 884 544 903 541 916 582 901 597 864 607 852 600 821 597 716 589 695 582 655 569 523 544 425" fill="url(#id-74555)" id="id-74601"></polygon><polygon points="546 794 552 851 551 861 552 874 556 885 567 882 568 866 570 860 570 843 571 834 576 843 576 859 579 864 573 874 571 884 544 903 541 916 582 901 597 864 583 871 588 855 573 815 561 823" fill="url(#id-74556)" id="id-74601"></polygon><polygon points="552 851 551 861 552 874 556 887 567 884 568 866 570 860 558 860" fill="#AB562C" id="id-74601"></polygon><polygon points="544 906 541 916 582 901 571 889" fill="#AB562C" id="id-74601"></polygon><polygon points="561 754 548 789 566 819 586 806" fill="#CF7C49" id="id-74601"></polygon><polygon points="486 648 477 599 453 529 440 504 437 490 439 460 449 402 456 340 188 343 198 411 202 493 162 596 153 638 266 693 319 721 386 693" fill="url(#id-74557)" id="id-74601"></polygon><polygon points="486 648 477 599 453 529 440 504 437 490 439 460 449 402 456 340 296 353 376 634" fill="#DD6E3F" id="id-74601"></polygon><g transform=" translate(188,0)" id="id-74610"><polygon points="274 114 253 111 232 100 201 76 188 58 184 1 93 1 88 64 25 111 1 113 103 123 121 135 134 138 149 121 161 117 187 119 225 114" fill="#EE773D" id="id-74601"></polygon><polygon points="201 76 188 58 185 12 175 57 155 111 185 73" fill="#E5995F" id="id-74601"></polygon><polygon points="149 1 93 1 88 64 108 126 121 135 133 138" fill="#DA642E" id="id-74601"></polygon><polygon points="116 102 120 113 118 115 136 135 150 119 164 71 125 108" fill="#C7592D" id="id-74614"></polygon><polygon points="121 127 133 138 145 124" fill="#C43806" id="id-74615"></polygon><polygon points="136 98 164 71 175 57 186 17 134 51" fill="#E2803D" id="id-74616"></polygon><polygon points="97 96 116 80 164 60 178 48 186 17 184 1 93 1 88 64 45 96" fill="#A45026" opacity="0.654" id="id-74601"></polygon><polygon points="186 17 184 1 93 1 88 64 45 96 66 96" fill="url(#id-74558)" opacity="0.467" id="id-74601"></polygon><polygon points="123 58 176 23 186 17 184 1 93 1 91 22 108 55" fill="#381404" opacity="0.434" id="id-74601"></polygon></g><polygon points="41 844 33 856 36 895 64 915 84 911 83 903 71 898 72 892 63 884 52 849" fill="url(#id-74559)" id="id-74601"></polygon><polygon points="315 152 285 173 320 188 357 166" fill="#FFB67E" id="id-74621"></polygon><polygon points="327 150 370 130 342 127" fill="#EE7539" id="id-74622"></polygon><polygon points="301 142 303 148 243 131 240 119 276 119" fill="#EB7338" id="id-74623"></polygon><polygon points="159 149 206 123 269 123 303 144 297 118 188 113 157 123 121 139" fill="url(#id-74560)" id="id-74601"></polygon><polygon points="157 123 121 139 153 167 196 134" fill="#FFC3A1" id="id-74601"></polygon><polygon points="89 584 77 541 62 551 45 658 34 712 25 741 25 762 10 817 0 845 14 870 25 901 58 919 72 919 69 913 61 905 50 899 37 874 37 852 43 845 52 855 50 887 56 901 64 905 66 901 66 882 72 836 72 800 69 781 64 773 66 735 85 684 121 599 162 510" fill="url(#id-74561)" id="id-74601"></polygon><polygon points="89 584 77 541 62 551 45 658 48 715 121 599 162 510" fill="#E77038" id="id-74601"></polygon><polygon points="55 843 45 827 37 848 17 852 8 836 5 851 0 845 14 870 25 901 58 919 72 919 69 913 61 905 50 899 37 874 37 852 43 845 52 855 50 887 56 901 64 905 66 901 66 882 72 836" fill="#D5643C" id="id-74601"></polygon><polygon points="53 882 52 892 56 901 64 905 66 901 66 882 67 876" fill="#C45627" id="id-74601"></polygon><polygon points="25 901 58 919 72 919 62 909 37 895" fill="#C45627" id="id-74601"></polygon><polygon points="160 467 145 488 108 578 45 777 48 797 64 773 66 735 85 684 121 599 162 510" fill="#CB4A0C" id="id-74601"></polygon><polygon points="169 1211 277 1211 282 1183 281 1150 284 1127 286 1114 285 1063 293 972 306 866 311 792 309 768 323 771 337 768 333 817 333 855 339 924 346 1008 348 1113 351 1130 353 1176 361 1211 461 1211 458 1191 456 1170 460 1133 461 1082 505 905 516 839 518 826 512 762 503 706 486 648 482 629 386 690 318 718 266 690 184 629 153 637 132 731 119 781 118 813 123 862 131 916 166 1094 176 1179" fill="url(#id-74562)" id="id-74601"></polygon><polygon points="463 664 416 771 400 819 392 1125 359 1178 398 1204 441 1153 461 1082 505 905 516 839 518 826 515 789 490 714" fill="url(#id-74563)" id="id-74601"></polygon><polygon points="422 1160 395 1199 365 1171 401 1149 384 1120 391 983 411 786 416 771 448 697 454 1013 445 1116 407 1149" fill="url(#id-74564)" id="id-74634"></polygon><polygon points="121 139 111 186 108 221 109 290 96 438 89 464 69 510 89 585 162 510 167 425 162 241" fill="url(#id-74565)" id="id-74601"></polygon><polygon points="101 466 103 488 106 510 160 447 179 359 164 232 187 184 186 179 132 181 161 234 161 321 149 376 151 384 123 461 114 466" fill="url(#id-74566)" id="id-74636"></polygon><polygon points="96 438 89 464 69 510 51 621 101 520 96 476" fill="#EDAC7E" id="id-74601"></polygon><polygon points="96 451 128 365 134 316 121 139 111 186 108 221 109 290 96 438" fill="#DC6429" id="id-74601"></polygon><polygon points="184 241 177 248 162 225 138 289 161 321 170 375 161 420 151 411 162 510 167 425 188 343" fill="url(#id-74567)" id="id-74601"></polygon><polygon points="284 1127 286 1114 285 1063 293 972 306 866 311 792 309 768 323 771 337 768 333 817 333 855 339 924 346 1008 375 889 416 771 463 664 490 714 515 790 512 762 503 706 486 648 477 599 471 583 420 650 316 720 201 654 244 742 264 824 275 994" fill="url(#id-74568)" id="id-74601"></polygon><polygon points="298 930 306 866 311 792 309 768 323 771 337 768 333 817 333 855 336 894 347 826 360 784 378 733 388 687 321 739 254 687 267 736 291 821" fill="url(#id-74569)" id="id-74601"></polygon><polygon points="348 1093 348 1113 351 1130 353 1176 361 1211 461 1211 439 1155 422 1136 403 1148 429 1168 400 1202 370 1170 382 1125" fill="url(#id-74570)" id="id-74601"></polygon><polygon points="10 855 8 836 5 851 0 845 14 870" fill="#AF4A3E" id="id-74601"></polygon><polygon points="520 500 516 520 544 629 474 500 490 399" fill="url(#id-74571)" id="id-74644"></polygon><polygon points="461 1211 458 1191 456 1170 460 1133 461 1082 439 1155 450 1211" fill="url(#id-74572)" id="id-74601"></polygon><polygon points="220 1149 259 1115 240 1063 232 973 266 819 240 713 201 661 158 650 201 784 183 925 170 1083" fill="url(#id-74573)" id="id-74646"></polygon><polygon points="169 1211 277 1211 282 1183 281 1150 284 1127 286 1114 286 1098 226 1211 207 1211 196 1121 173 1078 150 1014 166 1094 176 1179" fill="url(#id-74574)" id="id-74601"></polygon><polygon points="173 1078 183 924 150 1014" fill="#D95D37" id="id-74601"></polygon><polygon points="169 1211 239 1211 230 1196 204 1175 173 1150 176 1179" fill="#C04934" opacity="0.574" id="id-74601"></polygon><polygon points="221 1130 240 1097 224 1063 224 983 240 804 217 698 190 668 212 771 212 910 190 998 181 1094" fill="url(#id-74575)" id="id-74646"></polygon><polygon points="217 795 221 692 200 667 169 658 200 737" fill="#DD956B" id="id-74651"></polygon><polygon points="511 476 492 419 481 447 484 356 521 274 533 417" fill="url(#id-74576)" id="id-74652"></polygon><polygon points="569 523 544 425 542 346 537 282 539 246 535 195 529 158 522 137 494 161 419 158 471 211 516 290 525 411 511 477 518 507 535 462 562 543" fill="url(#id-74577)" id="id-74601"></polygon><polygon points="486 389 533 243 501 167 464 207 451 247 463 265" fill="url(#id-74578)" id="id-74654"></polygon><polygon points="473 490 474 506 503 589 537 672 556 728 561 754 567 712 543 623" fill="#DA531D" id="id-74601"></polygon><polygon points="460 328 466 378 474 506 490 425 486 392 469 274 479 230 461 260 454 251" fill="url(#id-74579)" id="id-74601"></polygon><polygon points="440 504 437 490 439 460 449 402 456 340 458 328 325 282 188 343 198 411 202 493 162 596 157 621 161 633 169 599 173 570 204 506 202 458 217 402 286 365 321 352 353 360 422 402 431 493 437 520" fill="url(#id-74580)" id="id-74601"></polygon><polygon points="451 385 456 340 458 328 364 340 330 308 268 343 188 343 194 379 262 368 312 343 335 340 381 368" fill="url(#id-74581)" id="id-74601"></polygon><polygon points="286 328 306 310 330 274 453 252 464 205 421 156 317 204 219 165 210 154 188 180" fill="url(#id-74582)" id="id-74659"></polygon><path d=" M 422,195 L 405,190 C 377,190 357,198 343,214 C 329,230 322,250 323,276 C 324,301 331,320 345,333 C 365,351 384,356 405,356 C 425,356 444,347 450,342 C 454,339 457,335 460,328 C 463,323 466,317 467,308 C 469,294 466,276 457,254 L 422,195 Z" fill="url(#id-74583)" id="id-74660"></path><path d=" M 422,195 L 417,175 C 386,188 366,196 358,201 C 355,203 351,206 348,208 C 348,209 381,253 448,342 C 454,338 459,332 463,324 C 469,310 469,301 469,293 C 469,287 465,275 459,257 L 422,195 Z" fill="url(#id-74584)" id="id-74660"></path><path d=" M 375,226 C 338,253 343,276 343,284 C 343,291 353,319 371,335 C 379,342 422,349 447,331 C 468,316 472,294 458,265 C 427,221 400,208 375,226 Z" fill="url(#id-74585)" opacity="0.282" id="id-74660"></path><path d=" M 272,205 C 260,199 243,200 221,209 C 187,227 169,258 168,303 C 167,319 184,342 190,346 C 197,351 212,356 239,353 C 257,351 272,344 284,333 C 303,312 312,288 309,260 C 305,217 291,214 272,205 Z" fill="url(#id-74586)" id="id-74663"></path><path d=" M 340,285 C 333,252 328,240 326,248 C 324,254 323,263 323,276 C 324,301 331,320 345,333 C 365,351 382,356 404,356 C 425,356 444,347 450,342 C 456,337 465,325 468,308 C 472,290 465,276 463,268 C 461,263 460,259 458,255 L 442,290 L 399,304 L 366,300 L 340,285 Z" fill="url(#id-74587)" id="id-74660"></path><path d=" M 153,637 L 149,654 L 132,731 L 130,739 C 133,730 135,723 137,718 C 140,709 147,691 149,680 C 151,671 155,655 161,633 L 172,570 L 162,596 L 153,637 Z" fill="#7D362E" id="id-74601"></path><path d=" M 259,203 C 254,199 240,185 217,163 L 210,153 L 186,180 C 192,211 192,231 186,239 C 175,256 168,277 168,303 C 168,324 190,352 239,344 C 252,342 274,217 259,203 Z" fill="#FF9558" id="id-74663"></path><polygon points="175 565 203 550 234 558 241 520 203 455 203 507" fill="#C6450C" id="id-74667"></polygon><polygon points="241 442 241 518 229 556 233 629 266 657 316 707 381 659 395 629 364 504 350 504 301 380" fill="url(#id-74588)" id="id-74668"></polygon><polygon points="432 626 427 589 407 518 414 505 450 568 470 618" fill="url(#id-74589)" id="id-74669"></polygon><polygon points="302 376 254 442 254 546 302 590 364 568 364 504 350 504 376 454 345 400" fill="url(#id-74590)" id="id-74668"></polygon><polygon points="317 480 342 436 319 413 300 447" fill="#E67841" id="id-74671"></polygon><polygon points="304 541 318 507 329 541 314 549" fill="#E66D37" id="id-74672"></polygon><polygon points="306 543 316 578 329 541" fill="#E99B64" id="id-74673"></polygon><path d=" M 178,333 C 179,334 180,336 182,338 C 184,342 186,343 189,346 C 190,347 197,351 206,353 C 215,354 226,355 239,353 C 257,351 272,344 284,333 C 293,322 299,313 302,305 C 304,301 307,293 309,277 C 310,274 310,268 309,260 L 228,277 L 207,295 L 178,333 Z" fill="url(#id-74591)" id="id-74663"></path><polygon points="306 543 308 550 324 556 329 541" fill="#ECA774" id="id-74673"></polygon><polygon points="308 543 318 525 323 542 314 548" fill="#B5491C" id="id-74676"></polygon><polygon points="152 641 162 596 176 561 185 617 214 602 246 628 323 690 404 628 423 605 454 605 470 577 477 599 482 629 388 689 337 768 323 771 309 768 259 688 175 639 142 688" fill="url(#id-74592)" opacity="0.442" id="id-74677"></polygon><polygon points="490 154 522 137 484 118 412 123" fill="url(#id-74593)" id="id-74601"></polygon><polygon points="573 785 588 829 602 858 607 852 600 821 597 716 576 763" fill="#FF966A" id="id-74601"></polygon><polygon points="574 722 589 695 582 655 533 542" fill="url(#id-74594)" id="id-74601"></polygon><polygon points="172 640 241 690 309 768 323 771 338 768 395 706 469 661 404 650 313 706 217 629" fill="url(#id-74595)" opacity="0.571" id="id-74681"></polygon><g transform=" translate(188,270)" id="id-74682"><polygon points="207 13 207 10 217 2 220 2 239 21 258 39 260 42 250 51 246 52 226 33" fill="url(#id-74596)" id="id-74683"></polygon><polygon points="208 40 218 50 222 50 240 33 257 13 257 9 247 0 244 1 230 19 209 36" fill="url(#id-74597)" id="id-74684"></polygon><polygon points="1 13 1 10 10 2 15 2 32 21 50 39 52 42 42 52 38 52 19 33" fill="url(#id-74598)" id="id-74683"></polygon><polygon points="0 43 10 53 14 53 33 35 50 15 50 11 40 3 36 4 19 23 1 39" fill="url(#id-74599)" id="id-74684"></polygon></g></g><defs><linearGradient x1="79%" y1="0%" x2="79%" y2="22%" id="id-75341"><stop stop-color="#FDE1E0" offset="0%"></stop><stop stop-color="#D46A32" offset="100%"></stop></linearGradient><linearGradient x1="40%" y1="32%" x2="50%" y2="75%" id="id-75342"><stop stop-color="#E98D54" offset="0%"></stop><stop stop-color="#F4AD80" offset="100%"></stop></linearGradient><linearGradient x1="50%" y1="0%" x2="50%" y2="82%" id="id-75343"><stop stop-color="#F7CAAB" offset="0%"></stop><stop stop-color="#F3AF87" offset="100%"></stop></linearGradient><linearGradient x1="21%" y1="-8%" x2="64%" y2="50%" id="id-75344"><stop stop-color="#EB925A" offset="0%"></stop><stop stop-color="#F6B48F" offset="100%"></stop></linearGradient><radialGradient cx="48%" cy="50%" r="67%" id="id-75345" fx="48%" fy="50%" gradientTransform=" translate(0.478,0.500) scale(0.717,1) rotate(180) scale(1,1) translate(-0.478,-0.500)"><stop stop-color="#EB925B" offset="0%"></stop><stop stop-color="#D36E3D" offset="100%"></stop></radialGradient><radialGradient cx="50%" cy="65%" r="73%" id="id-75346" fx="50%" fy="65%" gradientTransform=" translate(0.500,0.654) scale(0.748,1) rotate(90) scale(1,0.914) translate(-0.500,-0.654)"><stop stop-color="#EFA371" offset="0%"></stop><stop stop-color="#BB561C" offset="100%"></stop></radialGradient><linearGradient x1="47%" y1="38%" x2="54%" y2="70%" id="id-75347"><stop stop-color="#FA9263" offset="0%"></stop><stop stop-color="#F69C6E" offset="41%"></stop><stop stop-color="#F39969" offset="100%"></stop></linearGradient><linearGradient x1="50%" y1="0%" x2="50%" y2="85%" id="id-75348"><stop stop-color="#F1A778" offset="0%"></stop><stop stop-color="#F8AF88" offset="100%"></stop></linearGradient><linearGradient x1="15%" y1="28%" x2="74%" y2="73%" id="id-75349"><stop stop-color="#F2A97F" offset="0%"></stop><stop stop-color="#FEB18F" offset="100%"></stop></linearGradient><linearGradient x1="109%" y1="57%" x2="0%" y2="43%" id="id-75350"><stop stop-color="#EA9264" offset="0%"></stop><stop stop-color="#DE7C45" offset="100%"></stop></linearGradient><linearGradient x1="0%" y1="50%" x2="100%" y2="50%" id="id-75351"><stop stop-color="#CC7145" offset="0%"></stop><stop stop-color="#914121" offset="51%"></stop><stop stop-color="#CE7749" offset="100%"></stop></linearGradient><linearGradient x1="50%" y1="31%" x2="35%" y2="71%" id="id-75352"><stop stop-color="#F1AA7D" offset="0%"></stop><stop stop-color="#FFBD94" offset="40%"></stop><stop stop-color="#FAB189" offset="100%"></stop></linearGradient><linearGradient x1="50%" y1="0%" x2="50%" y2="50%" id="id-75353"><stop stop-color="#E29369" offset="0%"></stop><stop stop-color="#F9B897" offset="100%"></stop></linearGradient><linearGradient x1="50%" y1="25%" x2="50%" y2="100%" id="id-75354"><stop stop-color="#E4854D" offset="0%"></stop><stop stop-color="#EF673A" offset="20%"></stop><stop stop-color="#F99466" offset="56%"></stop><stop stop-color="#D97840" offset="100%"></stop></linearGradient><linearGradient x1="40%" y1="22%" x2="50%" y2="69%" id="id-75355"><stop stop-color="#F4AC80" offset="0%"></stop><stop stop-color="#E28D60" offset="100%"></stop></linearGradient><linearGradient x1="50%" y1="85%" x2="50%" y2="50%" id="id-75356"><stop stop-color="#962525" offset="0%"></stop><stop stop-color="#450000" offset="100%"></stop></linearGradient><linearGradient x1="50%" y1="0%" x2="50%" y2="100%" id="id-75357"><stop stop-color="#EB5363" offset="0%"></stop><stop stop-color="#F85C69" offset="54%"></stop><stop stop-color="#D4494B" offset="100%"></stop></linearGradient><linearGradient x1="50%" y1="0%" x2="50%" y2="77%" id="id-75358"><stop stop-color="#B83C3C" offset="0%"></stop><stop stop-color="#BF3F3F" offset="100%"></stop></linearGradient><linearGradient x1="99%" y1="50%" x2="93%" y2="54%" id="id-75359"><stop stop-color="#F19E6F" offset="0%"></stop><stop stop-color="#A05029" offset="100%"></stop></linearGradient><linearGradient x1="50%" y1="0%" x2="50%" y2="91%" id="id-75360"><stop stop-color="#DD996C" offset="0%"></stop><stop stop-color="#D5804C" offset="77%"></stop><stop stop-color="#D66735" offset="100%"></stop></linearGradient><linearGradient x1="9%" y1="25%" x2="26%" y2="82%" id="id-75361"><stop stop-color="#C45929" offset="0%"></stop><stop stop-color="#D3723E" offset="60%"></stop><stop stop-color="#E57F4F" offset="100%"></stop></linearGradient><linearGradient x1="55%" y1="46%" x2="68%" y2="95%" id="id-75362"><stop stop-color="#B75323" offset="0%"></stop><stop stop-color="#F7BA9B" offset="100%"></stop></linearGradient><linearGradient x1="50%" y1="0%" x2="50%" y2="100%" id="id-75363"><stop stop-color="#EA7440" offset="0%"></stop><stop stop-color="#B94C1C" offset="100%"></stop></linearGradient><linearGradient x1="50%" y1="11%" x2="50%" y2="100%" id="id-75364"><stop stop-color="#EEAD81" offset="0%"></stop><stop stop-color="#F99566" offset="100%"></stop></linearGradient><linearGradient x1="50%" y1="12%" x2="47%" y2="66%" id="id-75365"><stop stop-color="#F19E6F" offset="0%"></stop><stop stop-color="#DE8B58" offset="100%"></stop></linearGradient><linearGradient x1="91%" y1="56%" x2="10%" y2="39%" id="id-75366"><stop stop-color="#CC6835" offset="0%"></stop><stop stop-color="#A6482C" offset="74%"></stop><stop stop-color="#C65B23" offset="100%"></stop></linearGradient><linearGradient x1="50%" y1="50%" x2="50%" y2="74%" id="id-75367"><stop stop-color="#CF6042" offset="0%"></stop><stop stop-color="#EA846D" offset="100%"></stop></linearGradient><linearGradient x1="77%" y1="54%" x2="50%" y2="58%" id="id-75368"><stop stop-color="#D66C3F" offset="0%"></stop><stop stop-color="#F8936B" offset="100%"></stop></linearGradient><radialGradient cx="50%" cy="70%" r="100%" id="id-75369" fx="50%" fy="70%" gradientTransform=" translate(0.500,0.701) scale(0.442,1) rotate(73) translate(-0.500,-0.701)"><stop stop-color="#98321F" offset="0%"></stop><stop stop-color="#C96130" offset="100%"></stop></radialGradient><linearGradient x1="47%" y1="40%" x2="47%" y2="91%" id="id-75370"><stop stop-color="#C35230" offset="0%"></stop><stop stop-color="#DC6B59" offset="100%"></stop></linearGradient><linearGradient x1="50%" y1="20%" x2="50%" y2="72%" id="id-75371"><stop stop-color="#3B2311" offset="0%"></stop><stop stop-color="#714225" offset="100%"></stop></linearGradient><linearGradient x1="67%" y1="29%" x2="67%" y2="76%" id="id-75372"><stop stop-color="#372311" offset="0%"></stop><stop stop-color="#8C5031" offset="100%"></stop></linearGradient></defs><g transform=" translate(561,332)" id="id-75373"><g transform=" translate(172,115)" id="id-75374"><polygon points="14 1 18 0 25 8 27 21 24 41 14 66 0 68" fill="url(#id-75341)" id="id-75375"></polygon><polygon points="12 48 19 50 23 42 26 24 20 12 12 22" fill="#EC9266" id="id-75376"></polygon><polygon points="11 21 17 10 20 5 24 7 26 24 20 36 18 31 20 16 9 29" fill="#C1430B" id="id-75377"></polygon><polygon points="10 28 11 38 8 45 13 49 19 38 13 24" fill="#8C350A" id="id-75378"></polygon><polygon points="12 18 17 17 18 9" fill="#8C350A" id="id-75379"></polygon><polygon points="18 50 10 51 8 50 5 61 12 63 14 61" fill="#E88C5F" id="id-75380"></polygon></g><g transform=" translate(0,113)" id="id-75381"><polygon points="13 0 5 0 0 13 4 36 13 63 25 67" fill="#D07C59" id="id-75382"></polygon><polygon points="5 9 0 13 4 36 13 63 25 67 13 24" fill="#DE8959" id="id-75382"></polygon><polygon points="18 46 14 47 7 32 11 26 4 9 6 5 16 20 17 29" fill="#AE3A08" id="id-75384"></polygon><polygon points="13 62 20 62 18 49 11 53" fill="#FEA878" id="id-75385"></polygon><polygon points="25 68 13 63 20 62 17 46 14 47 13 44 14 29 17 26 14 22 10 19 10 11 17 20" fill="#A00C07" id="id-75386"></polygon><polygon points="13 9 4 3 5 0 12 0" fill="#D6A2A5" id="id-75387"></polygon></g><path d=" M 29,199 C 21,167 16,144 15,130 C 4,44 33,0 103,0 C 180,0 191,63 186,119 C 183,157 173,191 170,202 C 169,206 167,213 164,217 C 158,226 140,237 112,250 C 107,252 89,252 82,250 C 59,240 44,229 36,218 C 34,215 32,208 29,199 Z" fill="#EEA16C" id="id-75388"></path><polygon points="33 108 34 36 99 6 175 45 171 113 95 117" fill="url(#id-75342)" id="id-75389"></polygon><polygon points="53 107 64 92 47 46 97 53 133 46 111 74 123 96 142 110 105 123" fill="url(#id-75343)" id="id-75390"></polygon><polygon points="63 87 47 46 78 51" fill="url(#id-75344)" id="id-75390"></polygon><path d=" M 32,97 L 55,101 L 37,41 L 61,32 L 114,41 L 136,39 L 125,56 L 155,58 L 155,100 L 169,107 L 184,119 L 174,43 C 139,6 101,-5 62,11 C 23,27 13,55 32,97 Z" fill="url(#id-75345)" id="id-75392"></path><path d=" M 15,130 C 4,44 33,0 103,0 C 180,0 191,63 186,119 L 167,94 L 166,70 L 151,27 C 145,18 127,13 99,13 C 71,13 52,19 43,32 L 40,53 L 34,70 L 36,104 C 22,124 15,132 15,130 Z" fill="url(#id-75346)" id="id-75388"></path><polygon points="33 165 101 152 166 185 148 225 117 246 83 249 50 217" fill="url(#id-75347)" id="id-75394"></polygon><polygon points="72 209 67 186 78 169 121 174 138 196 123 210" fill="url(#id-75348)" id="id-75395"></polygon><polygon points="68 189 49 169 31 158 19 128 91 145" fill="url(#id-75349)" id="id-75396"></polygon><polygon points="85 165 52 172 38 127 88 145" fill="#F7BA9B" id="id-75396"></polygon><polygon points="73 209 78 237 115 234 129 217 126 208" fill="url(#id-75350)" id="id-75398"></polygon><polygon points="84 233 92 227 88 221 113 221 109 227 116 233" fill="url(#id-75351)" id="id-75399"></polygon><polygon points="117 178 125 191 138 196 171 146 155 141 108 135" fill="url(#id-75352)" id="id-75400"></polygon><path d=" M 75,237 C 83,232 91,230 99,230 C 106,230 116,232 127,237 L 113,246 L 89,249 L 75,237 Z" fill="url(#id-75353)" id="id-75401"></path><path d=" M 29,199 C 21,167 16,144 15,130 C 14,127 14,124 14,121 L 20,115 L 31,135 L 25,141 L 32,158 L 43,166 C 48,187 53,203 58,214 C 68,227 79,238 91,246 L 111,246 C 125,238 134,230 138,223 C 143,209 147,190 150,168 L 170,145 L 166,103 C 179,108 186,113 186,119 C 183,157 173,191 170,202 C 169,206 167,213 164,217 C 158,226 140,237 112,250 C 107,252 89,252 82,250 C 59,240 44,229 36,218 C 34,215 32,208 29,199 Z" fill="url(#id-75354)" id="id-75388"></path><path d=" M 182,102 C 185,110 186,115 186,119 C 183,157 173,191 170,202 C 169,206 167,213 164,217 C 161,221 157,225 151,229 C 158,221 164,210 169,196 C 170,192 173,181 177,162 C 178,159 179,152 181,144 L 180,111 L 174,86 L 182,102 Z" fill="#E7B9B9" id="id-75388"></path><polygon points="94 180 93 195 101 204 110 197 104 176" fill="url(#id-75355)" id="id-75404"></polygon><g transform=" translate(71,178)" id="id-75405"><polygon points="21 2 21 9 23 11 25 3 23 0" fill="#FEC5B4" id="id-75406"></polygon><path d=" M 34,2 L 37,13 L 30,16 L 22,13 C 17,15 13,17 11,19 C 8,21 5,25 1,30 L 33,28 L 40,18 L 35,1 L 34,2 Z" fill="#FCBDAB" id="id-75407"></path><path d=" M 1,31 L 3,33 C 6,35 8,36 8,37 C 13,41 16,44 18,45 C 23,47 32,48 39,46 C 42,45 48,40 53,35 C 54,34 56,32 57,30 L 55,27 L 30,18 L 3,27 L 1,31 Z" fill="url(#id-75356)" id="id-75408"></path><path d=" M 14,30 C 6,32 2,33 3,33 C 11,39 15,42 18,43 C 23,45 33,46 39,44 C 43,43 48,40 55,33 C 55,33 51,32 43,30 C 36,32 32,32 28,32 C 24,32 20,32 14,30 Z" fill="url(#id-75357)" id="id-75408"></path><path d=" M 13,31 C 11,32 11,33 13,34 C 17,35 30,37 31,39 C 32,40 43,35 49,33 C 51,33 49,32 45,31 C 38,33 33,34 29,34 C 26,34 20,33 13,31 Z" fill="#FE7A9E" id="id-75408"></path><path d=" M 3,29 C 11,29 15,29 17,29 C 19,29 20,28 21,28 C 25,29 28,29 29,29 C 32,29 35,28 37,28 C 40,28 46,29 48,29 C 57,29 55,27 55,27 C 49,22 43,18 37,15 C 36,15 33,16 30,18 C 27,17 25,16 22,15 C 15,17 9,21 3,27 L 3,29 Z" fill="url(#id-75358)" id="id-75408"></path><path d=" M 29,25 C 33,25 35,23 38,23 C 39,23 39,27 45,27 C 45,27 47,26 51,24 C 46,20 42,17 37,15 C 35,15 33,16 30,18 C 27,17 25,16 23,15 L 24,22 L 28,19 C 29,23 29,25 29,25 Z" fill="#DF5858" id="id-75408"></path><path d=" M 18,28 C 10,29 7,29 8,29 C 13,29 16,29 17,29 C 19,29 20,28 21,28 C 25,29 28,29 29,29 C 32,29 35,28 37,28 C 40,28 46,29 48,29 C 57,29 55,27 55,27 C 55,27 53,28 50,28 C 47,28 43,28 41,27 C 39,27 38,26 38,24 C 34,26 31,28 29,28 C 26,28 23,27 20,24 L 18,28 Z" fill="#8D1920" id="id-75408"></path></g><g transform=" translate(55,106)" id="id-75414"><polygon points="24 72 25 76 40 76 46 80 53 76 67 75 70 71 69 67 66 61 64 58" fill="url(#id-75359)" id="id-75415"></polygon><path d=" M 18,4 L 35,5 L 46,0 L 57,5 L 83,5 L 55,34 L 64,65 C 40,72 27,74 24,71 C 20,67 28,52 30,35 C 32,24 28,14 18,4 Z" fill="url(#id-75360)" id="id-75416"></path><path d=" M 114,30 L 124,14 L 114,4 L 71,8 L 65,12 C 59,16 54,22 52,30 C 52,34 52,46 52,65 L 62,72 L 67,68 C 66,59 64,61 59,46 C 58,43 57,39 58,34 L 69,40 L 114,30 Z" fill="url(#id-75361)" id="id-75417"></path><path d=" M 25,46 C 31,42 34,38 34,35 C 34,31 33,24 29,10 C 29,9 19,6 0,0 C 9,10 15,17 17,22 C 20,28 23,36 25,46 Z" fill="url(#id-75362)" id="id-75418"></path><path d=" M 34,63 L 26,68 C 26,66 27,64 28,63 C 28,61 30,59 32,57 L 34,63 Z" fill="#F19F74" id="id-75419"></path><path d=" M 58,63 C 58,59 59,57 60,58 C 61,59 63,62 65,66 L 58,63 Z" fill="#F09764" id="id-75420"></path><polygon points="24 72 29 73 40 73 42 76 48 76 51 74 61 74 66 72 67 69 65 66 58 63 31 63 26 67" fill="url(#id-75363)" id="id-75421"></polygon><path d=" M 35,63 L 32,66 C 36,67 39,68 40,68 C 41,69 42,72 43,74 C 44,74 47,74 47,74 C 48,72 50,69 51,68 C 53,67 55,66 59,66 L 57,63 L 52,63 L 35,63 Z" fill="#AF4415" id="id-75422"></path><path d=" M 51,74 L 61,74 C 59,71 58,70 55,70 C 53,70 52,71 51,74 Z" fill="#470F00" id="id-75423"></path><path d=" M 29,73 L 40,73 C 40,72 39,70 36,69 C 34,69 32,70 29,73 Z" fill="#470F00" id="id-75424"></path><path d=" M 52,27 C 50,25 47,25 44,25 C 40,25 38,26 36,30 C 38,34 38,39 38,44 C 38,50 34,58 36,62 C 37,64 40,65 44,65 C 49,65 52,64 53,62 C 55,58 52,50 52,40 C 51,34 51,30 52,27 Z" fill="url(#id-75364)" id="id-75425"></path><path d=" M 52,27 C 50,25 47,25 44,25 C 40,25 38,26 36,30 C 40,35 44,37 46,37 C 48,37 50,34 52,27 Z" fill="#F5B991" id="id-75425"></path><path d=" M 51,62 C 50,61 46,60 38,59 C 36,62 38,64 42,64 C 48,65 52,63 51,62 Z" fill="#FDAD88" id="id-75427"></path><path d=" M 28,44 L 21,70 L 25,72 C 24,69 25,66 26,62 C 27,59 30,51 34,40 L 34,33 L 28,44 Z" fill="url(#id-75365)" id="id-75428"></path></g><g transform=" translate(23,110)" id="id-75429"><path d=" M 7,23 L 0,11 L 3,1 L 41,2 C 45,7 49,12 50,15 C 52,18 53,24 54,31 L 7,23 Z" fill="url(#id-75366)" id="id-75430"></path><polygon points="32 4 28 20 46 23 42 5" fill="url(#id-75367)" id="id-75431"></polygon><path d=" M 8,25 C 15,34 21,39 27,40 C 34,41 43,39 54,35 L 32,21 L 8,25 Z" fill="#FC8C66" id="id-75432"></path><path d=" M 19,27 C 21,30 24,32 30,32 C 35,33 43,33 52,31 C 52,25 47,21 35,19 C 24,18 18,20 19,27 Z" fill="#BEC3D7" id="id-75433"></path><path d=" M 19,29 L 23,30 L 23,27 L 30,24 L 52,29 C 48,22 40,19 29,20 C 17,20 14,23 19,29 Z" fill="#000000" opacity="0.305" id="id-75434"></path><polygon points="49 32 54 35 55 32 50 26" fill="#751F00" id="id-75435"></polygon><path d=" M 53,34 L 36,34 L 22,32 L 15,26 C 17,27 19,29 21,29 C 24,31 27,32 30,32 C 35,33 41,32 49,31 L 53,34 Z" fill="#64422D" id="id-75436"></path><path d=" M 21,29 L 19,24 C 26,21 33,20 39,22 C 45,24 50,27 55,32 C 52,25 46,20 37,18 C 31,17 24,19 15,21 C 14,21 11,22 7,24 L 10,27 L 14,26 L 20,30 L 21,29 Z" fill="#181108" id="id-75437"></path><path d=" M 26,22 C 26,29 29,32 35,32 C 41,32 44,29 45,24 C 41,21 37,19 35,19 C 33,19 30,20 26,22 Z" fill="#161209" id="id-75438"></path><polygon points="31 26 33 26 33 23 29 23 29 25 31 25" fill="#8C8F9E" id="id-75439"></polygon><path d=" M 35,28 C 36,28 38,27 38,27 C 39,27 39,26 40,25 L 43,28 C 42,29 41,30 40,31 C 39,31 38,31 36,31 L 35,28 Z" fill="#6E1D00" id="id-75440"></path></g><g transform=" translate(116,111)" id="id-75441"><path d=" M 9,34 C 13,37 20,39 31,39 C 37,39 46,34 57,25 L 55,22 L 19,20 L 9,34 Z" fill="url(#id-75368)" id="id-75442"></path><polygon points="11 28 0 20 10 5 53 1 61 11 52 23" fill="url(#id-75369)" id="id-75443"></polygon><polygon points="20 21 24 1 32 1 38 21" fill="url(#id-75370)" id="id-75444"></polygon><polygon points="13 32 31 34 41 31 45 28 14 25 10 34" fill="#8E5C40" id="id-75445"></polygon><path d=" M 14,31 C 21,32 27,32 30,32 C 34,32 37,30 40,28 C 48,26 48,23 40,20 C 32,18 23,19 13,24 L 14,31 Z" fill="#CCCCD7" id="id-75446"></path><path d=" M 38,29 L 40,28 C 48,26 48,23 40,20 C 32,18 23,19 13,24 L 13,30 C 18,26 23,24 27,23 C 30,23 34,23 39,24 L 38,29 Z" fill="#000000" opacity="0.305" id="id-75446"></path><polygon points="8 32 9 34 14 31 14 25" fill="#782200" id="id-75448"></polygon><path d=" M 18,24 C 19,29 22,32 28,32 C 34,31 37,28 37,21 C 35,20 31,19 26,19 C 21,20 18,21 18,24 Z" fill="#161209" id="id-75449"></path><path d=" M 35,24 L 32,24 C 32,25 31,26 31,27 C 30,28 29,28 27,29 L 29,31 C 31,31 33,30 34,29 C 35,27 35,26 35,24 Z" fill="#761C00" id="id-75450"></path><polygon points="22 27 24 27 24 26 27 26 27 24 22 24" fill="#987A9E" id="id-75451"></polygon><path d=" M 8,33 C 14,25 20,21 25,20 C 31,20 37,21 43,23 L 40,28 L 45,28 L 48,25 L 52,26 L 55,22 C 51,21 47,20 45,20 C 37,17 30,16 24,18 C 15,19 10,24 8,33 Z" fill="#171208" id="id-75452"></path></g><g transform=" translate(23,101)" id="id-75453"><path d=" M 1,13 L 11,11 L 9,13 L 28,12 L 28,13 L 51,16 L 49,17 L 56,17 L 56,20 L 65,11 L 62,11 L 60,13 L 60,9 L 56,13 L 56,7 L 54,12 L 46,4 C 28,1 18,0 14,1 C 11,2 7,6 1,13 Z" fill="url(#id-75371)" id="id-75454"></path><polygon points="95 12 101 18 109 18 110 16 121 16 124 14 137 13 156 8 143 1 130 2 111 6 104 13 103 9 101 13 97 11" fill="url(#id-75372)" id="id-75455"></polygon></g></g><defs><linearGradient x1="54%" y1="100%" x2="54%" y2="22%" id="id-76147"><stop stop-color="#101721" offset="0%"></stop><stop stop-color="#1D2B3E" offset="53%"></stop><stop stop-color="#101721" offset="100%"></stop></linearGradient><linearGradient x1="64%" y1="37%" x2="50%" y2="70%" id="id-76148"><stop stop-color="#182738" offset="0%"></stop><stop stop-color="#24374D" offset="55%"></stop><stop stop-color="#182738" offset="100%"></stop></linearGradient></defs><g transform=" translate(484,1152)" id="id-76149"><polygon points="28 61 112 127 152 157 187 165 256 112 321 58" fill="#1E0A07" fill-opacity="0.296" id="id-76150"></polygon><polygon points="0 44 4 23 10 0 45 12 90 20 147 25 204 25 262 19 308 8 328 0 339 47 308 68 261 94 234 112 217 128 196 152 187 168 174 170 156 166 137 141 118 121 84 94 51 73 13 54" fill="url(#id-76147)" id="id-76151"></polygon><polygon points="322 11 321 3 328 0 339 47 333 51 331 44 317 49 313 17" fill="#3B485A" id="id-76151"></polygon><polygon points="90 20 147 25 204 25 262 19 308 8 276 47 302 35 193 148 180 151 173 146 164 151 148 148 84 62 164 130 200 130 213 122 246 62 250 59 247 45 243 48 201 127 208 52" fill="url(#id-76148)" id="id-76151"></polygon><polygon points="71 25 71 17 90 20 147 25 147 34" fill="#223953" id="id-76151"></polygon><polygon points="231 30 229 22 262 19 287 13 287 22" fill="#586C87" id="id-76151"></polygon><polygon points="53 68 70 49 54 29 37 47" fill="#AD5100" id="id-76156"></polygon><polygon points="67 52 70 49 54 29 51 32" fill="#F38B00" id="id-76156"></polygon><polygon points="131 40 171 72 215 38 210 38 171 67 137 40" fill="#7688A0" id="id-76158"></polygon><polygon points="146 39 174 58 202 38" fill="#7788A0" id="id-76159"></polygon></g><defs><linearGradient x1="0%" y1="50%" x2="50%" y2="50%" id="id-40279"><stop stop-color="#162C47" offset="0%"></stop><stop stop-color="#0F1620" offset="100%"></stop></linearGradient><linearGradient x1="50%" y1="50%" x2="50%" y2="89%" id="id-40280"><stop stop-color="#101721" offset="0%" stop-opacity="0"></stop><stop stop-color="#253345" offset="56%" stop-opacity="0.397"></stop><stop stop-color="#253345" offset="100%" stop-opacity="0"></stop></linearGradient><radialGradient cx="28%" cy="50%" r="44%" id="id-40281" fx="28%" fy="50%" gradientTransform=" translate(0.282,0.500) scale(1,0.786) rotate(-45) scale(1,1) translate(-0.282,-0.500)"><stop stop-color="#1F3F5F" offset="0%"></stop><stop stop-color="#1B222C" offset="100%"></stop></radialGradient><linearGradient x1="50%" y1="33%" x2="50%" y2="81%" id="id-40282"><stop stop-color="#1C2631" offset="0%" stop-opacity="0"></stop><stop stop-color="#1C2631" offset="12%"></stop><stop stop-color="#17314F" offset="56%"></stop><stop stop-color="#17314F" offset="100%" stop-opacity="0"></stop></linearGradient><linearGradient x1="100%" y1="50%" x2="35%" y2="50%" id="id-40283"><stop stop-color="#162D49" offset="0%"></stop><stop stop-color="#111822" offset="100%"></stop></linearGradient></defs><g transform=" translate(439,636)" id="id-40284"><path d=" M 347,78 L 426,85 L 434,141 L 373,157 C 356,105 347,78 347,78 Z" fill="#111822" id="id-40285"></path><path d=" M 135,0 C 127,6 119,12 112,18 C 52,30 32,39 16,51 C 10,71 5,104 0,150 C 30,157 52,163 66,167 C 46,223 73,246 83,262 C 93,330 96,382 93,417 C 60,492 43,542 42,567 C 77,589 113,610 150,629 L 193,673 L 196,681 L 219,686 L 235,681 L 239,670 L 280,629 L 386,570 C 381,549 378,528 375,508 C 359,468 355,455 338,415 C 336,398 337,374 340,343 C 344,312 348,282 351,252 C 371,220 368,204 367,167 C 383,162 405,157 434,150 C 430,104 426,72 420,54 C 404,37 378,27 344,25 L 325,19 L 301,0 L 217,26 L 135,0 Z" fill="#161E27" id="id-40286"></path><path d=" M 18,66 C 30,58 35,54 35,54 C 62,57 83,59 98,59 C 104,80 103,104 95,131 L 66,167 L 0,150 C 12,94 18,66 18,66 Z" fill="#1B232D" id="id-40287"></path><polygon points="123 9 222 39 308 6 301 0 217 26 135 0" fill="#111822" id="id-40288"></polygon><path d=" M 13,64 C 32,69 56,72 86,75 C 73,113 57,141 37,159 C 28,157 16,154 0,150 C 5,108 9,80 13,64 Z" fill="url(#id-40279)" id="id-40289"></path><path d=" M 76,156 C 78,149 50,263 186,200 C 203,189 290,213 319,197 C 338,180 343,153 335,115 C 353,136 363,163 365,197 C 365,220 332,272 213,238 C 166,261 127,265 97,250 C 57,222 50,190 76,156 Z" fill="url(#id-40280)" id="id-40290"></path><polygon points="367 167 365 159 434 141 434 150" fill="#0D1725" id="id-40291"></polygon><path d=" M 423,66 C 384,58 347,53 311,52 C 278,44 267,39 249,29 C 256,26 275,18 308,6 C 314,11 320,15 326,20 C 332,22 336,22 344,25 C 390,29 404,39 420,54 C 421,58 422,62 423,66 Z" fill="#17314F" id="id-40292"></path><path d=" M 187,29 C 193,41 200,47 210,48 C 218,48 228,43 240,33 L 222,39 L 187,29 Z" fill="#121921" id="id-40293"></path><path d=" M 171,24 L 98,59 C 70,58 49,56 35,54 C 30,57 24,62 18,66 L 13,64 L 16,51 C 31,40 53,31 82,25 C 91,22 101,19 112,18 L 123,9 L 171,24 Z" fill="#163357" id="id-40294"></path><path d=" M 295,48 C 338,42 372,39 397,38 C 405,41 412,47 420,54 L 423,66 C 410,54 372,49 311,52 C 306,51 300,49 295,48 Z" fill="#223C5E" id="id-40295"></path><polygon points="133 306 213 259 316 296 309 440 371 515 217 626 81 504 95 486 115 497 145 403" fill="url(#id-40281)" id="id-40296"></polygon><polygon points="133 306 202 301 193 525 125 470 145 403" fill="#172F4B" fill-opacity="0.372" id="id-40297"></polygon><polygon points="285 329 311 377 249 525 193 525 195 408 259 398" fill="#172F4B" fill-opacity="0.581" id="id-40298"></polygon><polygon points="207 419 193 449 207 470 223 449" fill="#131E2C" id="id-40299"></polygon><polygon points="320 552 343 494 368 512" fill="#19293D" id="id-40300"></polygon><path d=" M 154,260 C 143,268 117,282 83,262 C 57,230 57,207 60,189 C 61,260 132,262 154,260 Z" fill="#18273A" id="id-40301"></path><path d=" M 259,253 C 306,279 344,255 344,255 C 344,255 365,245 368,191 C 355,264 274,257 259,253 Z" fill="#18273A" id="id-40302"></path><path d=" M 171,24 C 155,32 131,44 98,59 C 104,82 103,106 95,131 C 88,145 91,139 81,154 C 77,161 65,202 112,205 C 123,205 152,200 197,197 C 213,194 308,209 319,197 C 353,177 335,115 335,115 L 329,54 C 317,52 311,52 311,52 L 271,40 L 226,72 C 198,76 179,60 171,24 Z" fill="url(#id-40282)" id="id-40303"></path><polygon points="0 143 0 150 68 168 74 158" fill="#101924" id="id-40304"></polygon><path d=" M 142,15 C 120,29 100,32 82,25 L 112,18 L 123,9 C 134,13 140,15 142,15 Z" fill="#112640" id="id-40305"></path><path d=" M 349,80 C 368,129 378,154 378,154 C 415,145 434,140 434,140 L 427,85 C 375,82 349,80 349,80 Z" fill="url(#id-40283)" id="id-40306"></path></g><defs><linearGradient x1="0%" y1="50%" x2="100%" y2="50%" id="id-44670"><stop stop-color="#313A47" offset="0%"></stop><stop stop-color="#404E63" offset="41%"></stop><stop stop-color="#52678B" offset="59%"></stop><stop stop-color="#4D5B75" offset="93%"></stop></linearGradient><linearGradient x1="0%" y1="50%" x2="100%" y2="50%" id="id-44671"><stop stop-color="#313A47" offset="0%"></stop><stop stop-color="#404E63" offset="41%"></stop><stop stop-color="#52678B" offset="59%"></stop><stop stop-color="#3F4B61" offset="93%"></stop></linearGradient><linearGradient x1="49%" y1="51%" x2="50%" y2="51%" id="id-44672"><stop stop-color="#56757C" offset="0%"></stop><stop stop-color="#56757C" offset="100%" stop-opacity="0"></stop></linearGradient><linearGradient x1="0%" y1="50%" x2="100%" y2="50%" id="id-44673"><stop stop-color="#61789B" offset="0%" stop-opacity="0"></stop><stop stop-color="#61789B" offset="100%"></stop></linearGradient><linearGradient x1="0%" y1="50%" x2="100%" y2="50%" id="id-44674"><stop stop-color="#383F4C" offset="27%"></stop><stop stop-color="#424E63" offset="45%"></stop><stop stop-color="#4E607F" offset="63%"></stop></linearGradient></defs><g transform=" translate(451,991)" id="id-44675"><path d=" M 221,333 C 208,332 189,333 189,333 C 189,333 2,385 2,375 L 2,375 C 2,368 2,362 2,355 C 3,334 10,307 16,279 C 39,177 80,45 80,45 L 80,6 C 90,7 100,8 110,8 C 118,9 125,9 133,10 C 136,10 169,11 171,11 C 192,11 211,11 228,10 C 240,9 286,5 287,5 C 302,4 314,2 325,1 L 321,44 C 321,44 350,149 356,175 C 361,202 387,302 392,324 C 395,335 395,349 395,365 C 395,365 395,365 395,365 C 395,366 221,333 221,333 Z" fill="#4A576A" id="id-44676"></path><path d=" M 325,242 L 286,263 L 241,302 C 241,302 218,334 218,335 C 218,336 217,344 217,352 C 216,368 214,397 216,421 C 218,435 220,461 222,486 C 225,523 228,560 228,580 C 230,615 228,676 226,685 C 224,695 222,701 222,701 L 230,709 L 226,724 L 232,730 L 232,733 L 229,734 L 233,769 L 346,769 L 342,758 L 340,740 C 340,721 341,709 343,705 C 346,699 349,695 349,695 L 345,686 L 352,667 C 352,667 348,662 350,652 C 351,644 365,557 389,465 C 391,455 394,439 397,415 L 401,384 C 398,343 397,321 396,318 C 362,279 325,242 325,242 Z" fill="url(#id-44670)" id="id-44676"></path><path d=" M 72,242 L 111,263 L 156,302 C 156,302 168,313 192,335 L 194,350 C 193,382 191,405 189,421 C 186,456 176,546 174,580 C 173,615 169,676 171,685 C 173,695 172,701 172,701 L 163,709 L 168,724 L 165,729 L 167,734 L 167,769 L 51,769 L 54,758 L 57,740 L 58,740 C 58,740 57,711 54,705 C 50,699 48,695 48,695 L 52,686 L 45,667 C 45,667 49,662 47,652 C 45,640 34,585 21,517 C 8,449 9,433 5,409 C 3,399 4,390 4,380 C 4,379 3,370 3,370 C 3,368 3,366 3,365 C 3,365 3,365 3,365 C 3,349 3,335 6,324 C 7,322 8,317 9,312 C 43,273 72,242 72,242 Z" fill="url(#id-44671)" id="id-44676"></path><path d=" M 108,265 L 132,292 L 222,302 L 169,254 C 169,254 105,265 108,265 Z" fill="#565E6D" id="id-44676"></path><path d=" M 52,682 C 53,685 54,686 52,690 C 50,693 50,695 51,698 C 51,699 53,700 54,703 L 79,715 C 79,715 68,692 70,682 L 56,673 L 93,685 L 96,679 C 96,679 63,670 60,647 C 58,624 25,435 38,344 C 45,297 64,257 64,257 L 86,229 C 86,229 49,239 23,248 C 21,259 18,269 16,279 C 10,307 1,334 0,355 C 0,360 0,366 0,375 C 1,385 1,395 2,405 C 4,416 26,549 31,576 C 37,604 49,654 48,662 C 46,670 51,679 52,682 Z" fill="url(#id-44672)" id="id-44676"></path><path d=" M 57,730 C 58,733 58,737 58,740 L 54,760 L 51,769 L 67,769 C 70,747 72,736 72,736 L 57,730 Z" fill="#435F66" id="id-44676"></path><polygon points="295 216 319 240 357 182 308 179" fill="#46566F" id="id-44676"></polygon><path d=" M 314,235 C 314,235 286,206 285,207 C 285,208 226,294 226,294 L 286,264 L 318,244 L 314,235 Z" fill="#5A6B84" id="id-44676"></path><path d=" M 392,324 C 390,317 386,300 381,280 C 376,287 371,295 367,302 C 367,302 370,335 371,380 L 343,661 L 349,657 C 349,655 350,653 350,652 C 352,640 390,417 391,409 C 392,399 395,366 395,365 C 395,365 395,365 395,365 C 395,349 394,335 392,324 Z" fill="url(#id-44673)" id="id-44676"></path><polygon points="241 40 301 38 326 142 320 188 245 184 218 204 196 72" fill="url(#id-44674)" id="id-44676"></polygon><path d=" M 399,354 C 399,350 399,336 396,316 C 395,306 391,289 386,264 L 369,205 L 362,157 L 349,123 L 350,106 L 338,85 C 324,57 318,44 318,44 L 318,34 L 301,38 L 326,142 L 320,188 L 350,188 L 286,264 L 321,246 C 321,246 338,257 373,312 C 385,331 396,344 399,354 Z" fill="#6984AF" id="id-44676"></path><path d=" M 85,233 L 105,208 L 124,40 L 80,40 L 84,52 C 84,52 75,71 58,107 L 57,122 L 45,154 C 35,197 27,231 21,255 L 85,233 Z" fill="#394550" id="id-44676"></path><path d=" M 320,188 C 320,188 246,184 245,184 C 244,184 218,204 218,204 L 196,71 C 196,71 189,44 189,44 C 189,44 147,47 147,47 L 152,79 L 128,49 L 124,49 L 120,89 L 105,211 L 75,245 L 91,241 C 91,241 108,264 108,265 C 109,265 195,292 195,292 L 132,292 C 138,297 159,319 194,356 L 194,350 L 192,335 L 218,336 L 241,302 L 286,264 L 232,284 L 320,188 Z M 134,125 L 154,86 L 169,193 L 134,125 Z" fill="#373E4B" id="id-44688" fill-rule="nonzero"></path><path d=" M 131,50 C 145,50 158,51 170,51 L 174,11 L 174,11 C 170,11 131,50 131,50 L 131,50 Z" fill="#4A5870" id="id-44676"></path><path d=" M 224,51 C 243,51 273,49 287,48 L 287,5 C 287,5 233,10 224,10 L 224,51 Z" fill="#728EBA" id="id-44676"></path><path d=" M 80,6 L 80,45 C 92,46 104,47 116,48 C 116,48 92,7 80,6 Z" fill="#435A63" id="id-44676"></path><path d=" M 273,49 C 301,47 321,44 321,44 L 324,1 L 259,8 L 273,49 Z" fill="#61789B" id="id-44676"></path><path d=" M 110,48 C 118,49 126,49 134,50 L 134,10 C 126,9 117,9 108,8 L 110,48 Z" fill="#9BABC2" id="id-44676"></path><path d=" M 287,48 L 287,5 L 259,10 L 261,50 C 271,49 279,48 287,48 Z" fill="#BDCBDB" id="id-44676"></path><path d=" M 399,357 C 397,346 366,293 356,280 C 355,278 354,277 353,276 C 343,261 302,216 296,209 L 277,48 L 270,49 L 289,212 L 290,213 C 290,214 336,265 347,281 C 348,282 349,283 351,285 C 363,300 395,346 395,418 C 397,407 399,398 399,387 C 400,383 399,362 399,357 Z" fill="#2D3F61" id="id-44676"></path><path d=" M 47,285 C 48,283 49,282 50,281 C 61,265 107,214 108,213 L 109,212 L 128,49 L 121,48 L 101,209 C 95,216 55,261 44,276 C 43,277 42,278 41,280 C 32,292 10,316 1,358 C 1,373 2,389 3,405 C 5,336 35,300 47,285 Z" fill="#2D3F61" id="id-44676"></path><path d=" M 170,11 L 169,51 L 196,71 L 201,71 L 231,51 L 231,51 L 229,10 C 211,11 191,11 170,11 Z" fill="#0D131F" id="id-44676"></path><path d=" M 173,16 L 229,16 L 229,10 C 211,11 191,11 170,11 L 169,22 L 173,16 Z" fill="#353077" id="id-44676"></path><polygon points="210 335 192 335 192 340 150 302 195 316 241 302" fill="#28303F" id="id-44676"></polygon><path d=" M 349,657 C 342,661 294,684 294,684 C 341,680 352,667 352,667 C 352,667 349,664 349,657 L 349,657 Z" fill="#7F92AD" id="id-44676"></path><polygon points="345 686 315 695 349 695" fill="#7F92AD" id="id-44676"></polygon><polygon points="222 701 254 692 225 688" fill="#526066" id="id-44676"></polygon><path d=" M 289,655 C 288,655 287,656 287,658 L 287,664 L 273,664 L 273,660 L 283,660 L 283,654 L 270,654 C 269,654 267,656 267,657 L 267,668 C 267,669 269,671 270,671 L 289,671 L 289,655 Z" fill="#92A7D4" id="id-44676"></path><path d=" M 309,655 L 291,655 L 290,670 C 292,670 293,669 293,668 L 293,661 L 306,661 L 306,666 L 296,666 L 296,672 L 309,672 C 311,672 312,670 312,669 L 312,658 C 312,656 311,655 309,655 Z" fill="#92A7D4" id="id-44676"></path><path d=" M 289,641 C 277,641 268,641 267,641 L 268,647 C 268,647 278,647 289,647 L 289,641 Z" fill="#92A7D4" id="id-44676"></path><polygon points="291 641 291 647 312 647 312 641" fill="#92A7D4" id="id-44676"></polygon><path d=" M 288,630 L 273,630 L 273,624 L 285,624 L 285,618 L 270,618 C 269,618 267,619 267,621 L 267,633 C 267,634 269,636 270,636 L 289,636 L 288,630 Z" fill="#92A7D4" id="id-44676"></path><path d=" M 294,618 L 294,624 L 306,624 L 306,630 L 291,630 L 291,636 L 308,636 C 310,636 311,634 311,633 L 311,621 C 311,619 310,618 309,618 L 294,618 Z" fill="#92A7D4" id="id-44676"></path><polygon points="301 602 313 600 312 594 292 597 292 604 295 603 295 606 292 605 292 612 311 615 312 609 301 607" fill="#92A7D4" id="id-44676"></polygon><polygon points="288 605 287 605 288 604 288 598 268 602 268 608 288 611" fill="#92A7D4" id="id-44676"></polygon><path d=" M 287,573 L 270,573 C 269,573 267,574 267,576 L 267,587 C 267,589 269,590 270,590 L 287,590 L 287,573 Z M 273,584 L 273,579 L 287,579 L 287,584 L 273,584 Z" fill="#92A7D4" id="id-44688" fill-rule="nonzero"></path><polygon points="293 583 313 575 311 569 293 577 293 590 312 590 312 584 293 584" fill="#92A7D4" id="id-44676"></polygon><polygon points="287 560 267 560 267 566 287 566" fill="#92A7D4" id="id-44676"></polygon><polygon points="293 560 293 566 312 566 312 560" fill="#92A7D4" id="id-44676"></polygon><path d=" M 286,548 L 273,548 L 273,542 L 286,542 L 286,536 L 270,536 C 268,536 267,537 267,539 L 267,551 C 267,552 268,554 270,554 L 287,554 L 286,548 Z" fill="#92A7D4" id="id-44676"></path><path d=" M 309,536 L 294,536 L 294,542 L 306,542 L 306,548 L 294,548 L 294,554 L 309,554 C 311,554 312,552 312,551 L 312,539 C 312,538 312,538 311,537 C 311,536 310,536 309,536 L 309,536 Z" fill="#92A7D4" id="id-44676"></path><polygon points="235 316 261 326 286 264 255 296" fill="#495266" id="id-44676"></polygon><path d=" M 329,740 L 323,708 L 286,690 L 251,701 L 248,727 L 234,734 L 234,769 L 334,769 L 332,762 L 343,761 C 342,754 341,747 340,740 L 329,740 Z" fill="#0D1726" id="id-44676"></path><path d=" M 313,727 C 313,727 329,744 329,745 C 328,745 321,764 321,764 L 313,762 L 313,727 Z" fill="#1B3A59" id="id-44676"></path><polygon points="256 735 256 756 246 745 246 741" fill="#EF5526" id="id-44676"></polygon><path d=" M 256,756 C 256,756 256,764 256,764 L 250,764 L 246,745 L 256,756 Z" fill="#662A12" id="id-44676"></path><path d=" M 261,716 C 261,716 288,714 306,719 L 306,769 L 261,769 L 261,716 Z" fill="#292F3A" id="id-44676"></path><path d=" M 263,724 L 261,716 C 261,716 289,697 308,730 L 306,735 C 306,735 281,700 263,724 Z" fill="#4D596B" id="id-44676"></path><path d=" M 68,740 L 73,708 L 111,690 L 145,701 L 148,727 L 162,734 L 162,769 L 62,769 L 64,762 L 53,761 C 54,754 55,747 56,740 L 68,740 Z" fill="#0D1726" id="id-44676"></path><path d=" M 83,727 C 83,727 67,744 68,745 C 68,745 76,764 76,764 L 83,762 L 83,727 Z" fill="#1B3A59" id="id-44676"></path><polygon points="140 735 140 756 150 745 150 741" fill="#EF5526" id="id-44676"></polygon><path d=" M 140,756 C 140,756 140,764 140,764 L 146,764 L 150,745 L 140,756 Z" fill="#662A12" id="id-44676"></path><path d=" M 136,716 C 136,716 108,714 90,719 L 90,769 L 135,769 L 136,716 Z" fill="#292F3A" id="id-44676"></path><path d=" M 133,724 L 136,716 C 136,716 107,697 88,730 L 90,735 C 90,735 115,700 133,724 Z" fill="#4D596B" id="id-44676"></path><polygon points="61 707 73 712 69 734 63 732" fill="#3C4759" id="id-44676"></polygon><path d=" M 61,676 L 93,685 L 89,701 L 76,707 C 76,707 69,691 70,682 L 61,676 Z" fill="#3C4759" id="id-44676"></path><polygon points="170 698 146 712 147 718" fill="#27303D" id="id-44676"></polygon><polygon points="147 718 148 728 161 735 161 732 169 725 165 709 171 702 170 698" fill="#1E2530" id="id-44676"></polygon></g><defs><linearGradient x1="0%" y1="50%" x2="100%" y2="50%" id="id-53381"><stop stop-color="#060E1D" offset="0%"></stop><stop stop-color="#0F1625" offset="52%"></stop><stop stop-color="#181E2E" offset="100%"></stop></linearGradient><linearGradient x1="0%" y1="50%" x2="100%" y2="50%" id="id-53382"><stop stop-color="#060E1D" offset="0%"></stop><stop stop-color="#0F1625" offset="52%"></stop><stop stop-color="#181E2E" offset="100%"></stop></linearGradient><linearGradient x1="0%" y1="50%" x2="100%" y2="50%" id="id-53383"><stop stop-color="#181E2E" offset="0%"></stop><stop stop-color="#0F1625" offset="48%"></stop><stop stop-color="#060E1D" offset="100%"></stop></linearGradient></defs><g transform=" translate(429,1018)" id="id-53384"><path d=" M 221,374 L 213,445 L 142,434 L 141,437 L 116,434 L 117,430 C 116,430 75,425 75,425 L 75,431 L 62,451 L 65,509 L 38,508 L 17,498 L 5,376 L 2,375 L 2,343 C 2,343 3,341 3,341 L 4,341 L 4,314 L 13,311 L 12,238 L 43,233 L 43,285 L 50,294 L 191,125 L 195,112 L 194,64 L 193,36 L 261,36 L 261,42 L 260,66 L 259,117 L 263,129 L 401,295 L 406,230 L 427,235 L 427,296 L 434,304 L 432,309 L 446,315 L 432,498 L 413,508 L 385,508 L 388,451 L 374,431 L 375,424 L 333,430 L 333,434 L 308,438 L 308,434 L 237,445 L 229,374 L 302,367 L 302,363 L 328,361 L 328,364 L 375,358 L 376,328 L 375,327 L 375,322 L 231,164 L 219,163 L 74,323 L 75,327 L 74,328 L 74,358 L 122,364 L 122,361 L 148,364 L 148,367 C 148,367 201,374 221,374 Z" fill="#212838" id="id-53385"></path><polygon points="122 361 116 434 141 437 148 364" fill="#5E6D84" id="id-53385"></polygon><path d=" M 441,313 L 432,309 L 434,304 C 421,304 402,304 402,304 C 401,303 379,310 379,310 L 435,321 C 435,321 438,317 441,313 Z" fill="#5E6D84" id="id-53385"></path><polygon points="397 329 427 328 425 335 421 333 396 333" fill="#5E6D84" id="id-53385"></polygon><polygon points="54 329 23 328 25 335 29 333 54 333" fill="#5E6D84" id="id-53385"></polygon><polygon points="419 474 422 488 410 485" fill="#5E6D84" id="id-53385"></polygon><polygon points="31 474 28 488 40 485" fill="#5E6D84" id="id-53385"></polygon><polygon points="302 363 308 438 333 434 328 361" fill="#5E6D84" id="id-53385"></polygon><polygon points="9 313 16 320 70 310 42 302" fill="#5E6D84" id="id-53385"></polygon><polygon points="74 426 72 365 73 333 74 358 121 364 116 430" fill="#171D35" id="id-53385"></polygon><polygon points="397 329 427 328 423 397 409 408 394 398" fill="#3A465E" id="id-53385"></polygon><polygon points="54 329 23 328 27 397 41 408 56 398" fill="#3A465E" id="id-53385"></polygon><path d=" M 343,426 L 384,417 L 382,362 L 341,366 C 341,366 332,367 332,367 C 332,368 343,426 343,426 Z" fill="#1A324F" id="id-53385"></path><polygon points="73 365 73 417 108 424 114 370" fill="#1A324F" id="id-53385"></polygon><path d=" M 352,296 L 375,322 L 380,301 L 401,299 L 401,295 L 383,274 C 376,279 356,293 352,296 Z" fill="#0C1A2D" id="id-53385"></path><polygon points="69 302 74 323 94 301 64 277 50 294 50 299" fill="#0C1A2D" id="id-53385"></polygon><polygon points="231 164 265 126 262 120 188 120 219 163 219 163 221 165 226 165 229 166 231 164" fill="#475772" id="id-53385"></polygon><polygon points="229 166 265 126 264 125 226 165" fill="#707D8E" id="id-53385"></polygon><polygon points="262 120 261 117 193 112 188 120" fill="#9CB3DC" id="id-53385"></polygon><polygon points="380 302 385 276 350 234 324 266 359 303" fill="#0A1221" id="id-53385"></polygon><polygon points="69 302 93 302 126 266 98 236 64 277" fill="#0A1221" id="id-53385"></polygon><path d=" M 379,438 L 380,345 L 375,322 L 375,327 L 376,328 L 376,358 L 377,365 C 377,379 375,424 375,424 L 374,431 L 379,438 Z" fill="#0B1221" id="id-53385"></path><path d=" M 70,438 L 70,345 L 74,322 L 74,327 L 73,328 L 74,358 L 72,365 C 72,379 74,424 74,424 L 75,431 L 70,438 Z" fill="#0B1221" id="id-53385"></path><polygon points="377 417 342 423 340 409 335 410 333 430 375 424" fill="#0E192B" id="id-53385"></polygon><polygon points="336 369 377 365 376 333 376 358 328 364 333 430 340 409" fill="#171D35" id="id-53385"></polygon><polygon points="379 310 393 338 387 447 378 431" fill="#111B30" id="id-53385"></polygon><polygon points="70 310 56 338 62 447 71 431" fill="#111B30" id="id-53385"></polygon><polygon points="396 347 426 350 427 338 396 337" fill="#111929" id="id-53385"></polygon><polygon points="408 377 417 391 407 399 400 390" fill="#111929" id="id-53385"></polygon><polygon points="54 347 24 350 24 338 54 337" fill="#111929" id="id-53385"></polygon><polygon points="42 377 33 391 43 399 51 390" fill="#111929" id="id-53385"></polygon><path d=" M 426,403 L 419,474 C 419,474 410,485 410,485 C 409,485 389,493 389,493 L 394,402 L 408,418 L 426,403 Z" fill="#273851" id="id-53385"></path><path d=" M 25,403 L 31,474 C 31,474 40,485 41,485 C 41,485 61,493 61,493 L 56,402 L 42,418 L 25,403 Z" fill="#273851" id="id-53385"></path><polygon points="424 480 432 498 446 315 434 330" fill="#171D28" id="id-53385"></polygon><path d=" M 26,480 L 16,498 L 4,376 L 1,375 L 1,343 C 1,343 2,341 2,341 L 3,341 L 4,315 L 16,330 L 26,480 Z" fill="#171D28" id="id-53385"></path><polygon points="448 341 433 342 431 377 449 375 449 343" fill="#AD0053" id="id-53385"></polygon><polygon points="2 341 17 342 19 377 1 375 1 343" fill="#AD0053" id="id-53385"></polygon><polygon points="434 343 434 345 448 344 447 342" fill="#EE4C56" id="id-53385"></polygon><polygon points="16 343 16 345 2 344 3 342" fill="#EE4C56" id="id-53385"></polygon><path d=" M 286,437 C 283,421 280,389 277,370 L 246,373 L 257,442 L 286,437 Z" fill="#161F33" id="id-53385"></path><path d=" M 207,374 C 197,373 185,372 174,370 C 172,387 168,421 166,438 L 195,442 L 207,374 Z" fill="#161F33" id="id-53385"></path><polygon points="258 442 251 372 230 374 238 445" fill="#060E1D" id="id-53385"></polygon><path d=" M 221,374 C 216,374 210,374 204,373 L 194,442 L 213,445 L 221,374 Z" fill="#060E1D" id="id-53385"></path><polygon points="328 364 328 364 328 361 302 363 302 367" fill="#B3CBF6" id="id-53385"></polygon><polygon points="148 366 148 364 122 361 122 364 148 367" fill="#B3CBF6" id="id-53385"></polygon><polygon points="308 434 308 434 308 438 333 434 333 430" fill="#293345" id="id-53385"></polygon><polygon points="141 437 142 433 117 428 117 429 117 430 117 430 116 434" fill="#293345" id="id-53385"></polygon><path d=" M 446,315 L 441,313 L 431,328 L 420,479 L 422,488 C 422,488 425,492 431,499 L 432,498 L 432,495 L 424,480 L 434,330 L 446,315 Z" fill="#0C1323" id="id-53385"></path><path d=" M 9,313 L 4,314 L 4,315 L 16,330 L 26,480 L 17,497 L 17,498 L 19,499 C 22,496 28,488 28,488 L 30,479 L 19,328 L 9,313 Z" fill="#0C1323" id="id-53385"></path><polygon points="435 311 432 309 434 303 427 296 427 235 406 230 401 295 399 309 428 316" fill="#08101F" id="id-53385"></polygon><path d=" M 48,310 L 50,309 L 50,299 L 50,294 L 50,294 L 43,285 L 43,233 L 12,238 L 13,310 L 13,310 C 13,310 20,316 20,316 C 20,316 48,310 48,310 Z" fill="#08101F" id="id-53385"></path><polygon points="302 367 302 367 302 367 230 374 238 445 308 434 308 436 309 435" fill="url(#id-53381)" id="id-53385"></polygon><polygon points="343 0 262 14 187 14 105 0 98 43 187 57 266 57 352 43" fill="url(#id-53382)" id="id-53385"></polygon><path d=" M 221,374 C 201,374 148,367 148,367 L 142,434 L 213,445 L 221,374 Z" fill="url(#id-53383)" id="id-53385"></path></g><defs><linearGradient x1="0%" y1="50%" x2="100%" y2="50%" id="id-62555"><stop stop-color="#3C2944" offset="0%"></stop><stop stop-color="#372640" offset="21%"></stop><stop stop-color="#2A1F36" offset="45%"></stop><stop stop-color="#191629" offset="64%"></stop><stop stop-color="#0A172B" offset="100%"></stop></linearGradient></defs><g transform=" translate(578,475)" id="id-62556"><polygon points="33 82 32 138 82 180 133 133 132 82" fill="#0B1526" id="id-62557"></polygon><polygon points="46 138 82 174 116 136 81 144" fill="#17263D" id="id-62558"></polygon><path d=" M 146,27 C 146,27 105,9 89,2 C 85,0 80,0 76,2 C 60,9 20,27 19,27 C 18,27 1,16 1,16 L 17,73 C 28,93 64,107 78,111 C 81,112 85,112 88,111 C 102,107 138,93 149,73 L 165,16 C 153,23 147,27 146,27 Z" fill="#0D2849" id="id-62559"></path><path d=" M 83,0 C 81,0 78,1 76,2 C 60,9 20,27 19,27 C 18,27 1,16 1,16 L 17,73 C 28,93 64,107 78,111 C 79,111 81,112 83,112 L 83,0 Z" fill="url(#id-62555)" id="id-62559"></path><path d=" M 89,2 C 85,0 80,0 76,2 C 60,9 20,27 19,27 C 18,27 1,16 1,16 L 3,24 L 17,33 L 76,7 C 81,6 85,6 89,7 L 147,33 L 163,24 L 165,16 C 165,16 147,27 146,27 C 146,27 105,9 89,2 Z" fill="#071021" id="id-62559"></path><path d=" M 11,23 L 12,30 L 17,33 L 38,24 L 38,18 C 28,23 19,27 19,27 C 19,27 15,25 11,23 Z" fill="#56405E" id="id-62559"></path><polygon points="106 15 142 31 143 25 109 11" fill="#345080" id="id-62559"></polygon><path d=" M 111,17 L 130,26 C 131,24 133,23 134,21 L 112,12 L 111,17 Z" fill="#42608C" id="id-62559"></path><g transform=" translate(119,44)" fill="#FFFFFF" id="id-62565"><path d=" M 24,9 L 24,0 L 21,0 L 14,9 L 14,13 L 21,12 L 21,14 L 24,14 L 24,12 L 25,12 L 25,9 L 24,9 Z M 22,9 L 18,9 L 22,4 L 22,9 Z" id="id-62566" fill-rule="nonzero"></path><path d=" M 7,10 L 7,7 L 14,7 L 14,9 L 14,11 C 14,14 12,16 9,16 L 7,17 C 5,17 4,16 3,15 C 1,14 1,13 1,11 L 1,6 C 1,3 3,0 6,0 L 13,0 L 13,4 L 6,4 C 5,4 4,5 4,6 L 4,11 C 4,12 4,12 5,13 C 5,13 6,13 7,13 L 8,13 C 10,13 10,12 10,11 L 10,10 L 7,10 Z" id="id-62559" fill-rule="nonzero"></path><path d=" M 18,22 C 17,22 17,22 17,23 C 17,23 18,24 18,24 C 18,24 18,23 18,23 C 18,22 18,22 18,22 Z" id="id-62559"></path><path d=" M 13,22 C 12,22 12,23 12,23 C 12,23 12,23 12,23 C 12,24 12,25 13,24 C 14,24 14,24 14,23 C 14,23 13,22 13,22 Z" id="id-62559"></path><path d=" M 16,21 C 16,21 16,20 15,20 C 15,20 15,21 15,21 C 15,22 15,22 15,22 C 16,22 16,22 16,21 Z" id="id-62559"></path><path d=" M 22,17 L 4,21 L 1,25 L 5,28 L 22,24 L 25,20 L 22,17 Z M 10,26 C 9,26 9,26 9,26 L 9,25 C 9,25 9,25 10,25 C 10,25 10,25 10,24 C 10,23 10,23 9,23 C 9,23 9,23 9,23 L 9,21 L 11,21 L 11,21 L 9,21 L 9,23 C 9,23 9,23 9,23 C 10,23 10,23 10,23 C 11,23 11,23 11,24 C 11,25 10,25 10,26 L 10,26 Z M 13,25 C 12,25 12,24 11,23 C 11,23 12,22 12,21 C 12,21 13,20 13,20 C 13,20 13,20 14,20 L 14,21 C 13,21 13,21 13,21 C 12,21 12,22 12,23 L 12,23 C 12,22 12,22 13,22 C 14,22 14,22 14,23 C 14,24 14,25 13,25 L 13,25 Z M 14,21 C 14,20 15,20 15,20 C 16,20 16,20 16,21 C 16,22 16,23 15,23 C 15,23 14,22 14,21 L 14,21 Z M 15,24 L 17,19 L 18,19 L 16,24 L 15,24 Z M 18,24 C 17,24 17,24 17,23 C 17,22 17,21 18,21 C 18,21 19,22 19,22 C 19,23 18,24 18,24 L 18,24 Z" id="id-62566" fill-rule="nonzero"></path></g></g><defs><linearGradient x1="68%" y1="30%" x2="-5%" y2="77%" id="id-64450"><stop stop-color="#C5DCDA" offset="0%"></stop><stop stop-color="#D6F4E8" offset="100%"></stop></linearGradient><linearGradient x1="65%" y1="23%" x2="38%" y2="44%" id="id-64451"><stop stop-color="#FEFEFE" offset="0%"></stop><stop stop-color="#B1D4CF" offset="100%"></stop></linearGradient></defs><g transform=" translate(559,309)" id="id-64452"><path d=" M 104,0 C 121,4 137,11 155,22 C 165,31 181,48 202,74 L 186,162 L 180,124 L 178,92 L 158,77 C 142,102 114,127 75,152 C 94,131 111,111 124,94 C 98,114 63,130 21,143 C 19,149 19,158 19,171 L 12,147 L 0,151 L 9,132 C 5,105 2,86 0,74 C 55,17 75,8 104,0 Z M 52,93 L 25,105 L 22,117 L 52,93 Z" fill="url(#id-64450)" id="id-64453"></path><polygon points="169 48 180 60 188 99 166 70" fill="#FDFDFD" id="id-64454"></polygon><polygon points="179 96 193 115 188 144" fill="#FBFBFB" id="id-64455"></polygon><path d=" M 20,90 C 31,69 55,48 91,28 L 104,0 C 76,7 51,23 27,48 C 27,61 22,76 20,90 Z" fill="#BCD7D5" id="id-64456"></path><path d=" M 158,77 C 166,64 165,52 155,43 L 163,48 L 158,28 L 152,41 L 136,48 L 144,36 L 127,39 L 155,28 L 131,28 C 137,25 142,23 145,21 C 136,14 122,7 104,0 C 77,14 61,26 57,36 C 63,38 74,35 91,28 C 59,47 35,73 18,105 C 21,109 47,95 96,61 C 54,91 34,114 37,131 C 82,119 119,98 148,68 L 75,152 C 112,129 140,104 158,77 Z" fill="url(#id-64451)" id="id-64457"></path><polygon points="24 51 11 130 2 74" fill="#C3DBDA" id="id-64458"></polygon></g><defs></defs><g transform=" translate(1210,1639)" fill="#343D53" opacity="0.297" id="id-76988"><path d=" M 14,66 C 14,66 11,63 11,63 C 10,62 9,61 9,60 C 9,60 13,56 13,56 L 15,54 C 15,54 17,52 17,52 L 17,52 C 18,52 18,52 18,52 C 18,52 18,52 18,52 C 19,53 22,56 23,57 C 23,58 19,61 19,62 L 15,66 C 15,66 15,66 14,66 L 14,66 Z M 35,60 L 32,57 L 37,52 C 38,52 38,52 38,51 L 40,49 C 41,48 53,36 54,36 C 54,36 53,37 53,38 C 53,40 52,42 51,44 C 50,44 50,45 49,45 C 49,45 49,45 49,46 C 49,46 49,46 49,46 L 47,47 C 47,47 47,47 47,48 L 45,50 C 44,50 44,50 44,51 L 40,55 C 39,56 38,56 37,57 C 37,58 35,60 35,60 L 35,60 Z M 28,53 C 27,52 24,49 22,48 C 22,48 22,48 22,47 C 22,47 23,46 24,45 L 54,15 C 54,16 54,26 54,27 C 54,27 40,41 37,43 L 34,47 C 33,47 33,47 33,47 C 32,49 28,52 28,53 L 28,53 Z M 17,43 C 16,42 16,41 15,40 C 13,40 12,40 11,41 C 10,42 10,43 10,45 C 11,46 12,46 13,47 C 12,48 6,54 6,54 L 3,57 C 3,58 3,58 2,58 C 2,58 0,60 0,60 C 0,61 1,61 1,62 L 1,62 C 1,62 1,62 2,62 L 8,69 C 8,69 8,69 8,69 C 8,69 9,69 9,70 C 10,71 12,72 13,74 C 13,74 14,75 14,75 L 23,66 C 24,66 24,66 24,65 C 25,64 27,62 28,62 C 28,62 34,69 35,69 C 35,69 37,66 38,66 C 40,64 41,62 43,60 L 47,56 C 47,56 47,56 47,56 C 48,56 49,55 49,54 L 52,52 C 53,51 55,49 55,48 C 56,48 56,48 56,47 C 57,46 59,42 59,40 C 60,37 60,33 60,29 C 60,28 60,25 60,24 C 60,16 60,8 60,0 C 59,1 58,2 57,3 C 57,3 57,3 57,3 L 54,6 C 53,7 52,8 51,9 L 49,11 C 46,14 42,18 39,21 L 33,26 C 33,26 33,26 33,26 L 31,29 C 31,29 31,29 31,29 L 28,32 C 27,33 20,39 19,41 C 18,42 18,42 17,43 L 17,43 Z" id="id-76989"></path><path d=" M 53,63 C 53,65 54,66 55,67 C 59,71 64,68 64,63 C 64,62 64,60 63,60 C 63,59 63,58 63,58 L 62,55 C 61,54 60,51 59,49 C 59,50 55,58 54,60 C 54,61 53,62 53,63 L 53,63 Z" id="id-76990"></path></g></svg>