<?xml version="1.0" encoding="UTF-8"?><svg width="1320px" height="1760px" viewBox="0 0 1320 1760" version="1.1" xmlns="http://www.w3.org/2000/svg" xmlns:xlink="http://www.w3.org/1999/xlink"><defs></defs><g stroke="none" stroke-width="1" fill="none" id="id-31054" fill-rule="evenodd"><g id="id-31055"><rect fill="#B9B9B9" width="1320" height="1760" x="0" y="0" id="id-31056"></rect><g transform=" translate(126,166)" fill="#C3C3C3" id="id-31057"><path d=" M 336,462 C 336,470 342,476 350,476 L 350,476 L 375,476 C 382,476 389,470 389,462 L 389,462 L 389,61 L 450,61 L 450,234 L 415,277 L 450,264 L 450,478 C 450,510 424,536 392,536 L 331,536 C 299,536 273,510 273,478 L 273,383 L 290,349 L 273,358 L 273,61 L 336,61 Z" id="id-31058"></path><path d=" M 1,1 C 6,22 8,33 8,33 L 21,193 L 21,1306 C 98,1306 136,1306 136,1306 L 155,1282 L 36,1282 L 36,24 L 1014,24 L 1014,1032 L 1037,998 C 1037,431 1037,148 1037,148 C 1024,128 1018,118 1018,118 L 1037,94 L 1037,4 L 30,4 C 11,2 1,1 1,1 Z" id="id-31059"></path><path d=" M 158,1306 L 188,1282 L 850,1282 L 834,1306 C 383,1306 158,1306 158,1306 Z" id="id-31060"></path><path d=" M 784,1313 C 813,1313 827,1312 827,1312 C 803,1346 791,1362 791,1362 L 799,1327 C 789,1318 784,1313 784,1313 Z" id="id-31061"></path><path d=" M 875,1282 C 861,1298 854,1306 854,1306 C 976,1306 1037,1306 1037,1306 C 1037,1165 1037,1094 1037,1094 C 1022,1112 1014,1120 1014,1120 L 1014,1282 C 921,1282 875,1282 875,1282 Z" id="id-31062"></path><path d=" M 708,1079 C 730,1049 740,1034 740,1034 L 708,1113 L 708,1150 C 712,1184 740,1213 776,1215 L 862,1215 C 896,1212 927,1188 930,1147 L 930,699 L 852,814 L 852,1124 C 849,1139 838,1140 819,1140 C 805,1140 790,1142 786,1125 L 786,914 L 718,1015 L 786,902 L 786,619 L 708,619 C 708,926 708,1079 708,1079 Z" id="id-31063"></path><path d=" M 544,619 L 523,658 L 580,624 C 606,635 624,660 624,690 L 624,1144 C 624,1183 592,1215 553,1215 L 470,1215 C 431,1215 399,1183 399,1144 L 399,690 C 399,651 431,619 470,619 L 544,619 L 544,619 Z M 529,694 L 494,694 C 485,694 477,702 477,711 L 477,711 L 477,1123 C 477,1132 485,1140 494,1140 L 494,1140 L 529,1140 C 538,1140 546,1132 546,1123 L 546,1123 L 546,711 C 546,702 538,694 529,694 L 529,694 Z" id="id-31058"></path><polygon points="220 61 78 61 78 536 140 536 140 328 220 328 220 268 140 268 140 123 220 123" id="id-31065"></polygon><polygon points="761 61 822 61 822 221 908 61 975 61 876 245 984 536 916 536 835 312 822 338 822 536 761 536" id="id-31066"></polygon><path d=" M 286,619 L 362,619 L 259,957 L 259,1215 L 181,1215 C 181,1043 181,957 181,957 L 79,620 C 129,620 155,620 155,620 L 222,846 L 286,619 Z" id="id-31067"></path><path d=" M 696,342 L 696,478 C 696,510 670,536 638,536 L 575,536 C 543,536 517,510 517,478 L 517,119 C 517,87 543,61 575,61 L 638,61 C 670,61 696,87 696,119 L 696,256 L 636,256 L 636,136 C 636,128 629,121 621,121 L 595,121 C 586,121 580,128 580,136 L 580,461 C 580,469 586,476 595,476 L 621,476 C 629,476 636,469 636,461 L 636,342" id="id-31059"></path><polygon points="852 619 930 619 930 662 852 791" id="id-31069"></polygon></g></g></g><defs><linearGradient x1="100%" y1="46%" x2="12%" y2="47%" id="id-74554"><stop stop-color="#F97338" offset="0%"></stop><stop stop-color="#F06728" offset="21%"></stop><stop stop-color="#FFAA6B" offset="46%"></stop><stop stop-color="#FF9A57" offset="80%"></stop><stop stop-color="#FF8340" offset="100%"></stop></linearGradient><linearGradient x1="53%" y1="81%" x2="50%" y2="21%" id="id-74555"><stop stop-color="#E58D69" offset="0%"></stop><stop stop-color="#E1745C" offset="24%"></stop><stop stop-color="#E27C40" offset="100%"></stop></linearGradient><linearGradient x1="52%" y1="-4%" x2="46%" y2="70%" id="id-74556"><stop stop-color="#ED8D5B" offset="0%"></stop><stop stop-color="#C76D3B" offset="100%"></stop></linearGradient><linearGradient x1="46%" y1="43%" x2="15%" y2="43%" id="id-74557"><stop stop-color="#EE8152" offset="0%"></stop><stop stop-color="#CF5621" offset="100%"></stop></linearGradient><linearGradient x1="54%" y1="37%" x2="12%" y2="72%" id="id-74558"><stop stop-color="#3C1B05" offset="0%"></stop><stop stop-color="#AE5B2E" offset="100%"></stop></linearGradient><linearGradient x1="40%" y1="14%" x2="61%" y2="85%" id="id-74559"><stop stop-color="#6E1B17" offset="0%"></stop><stop stop-color="#852720" offset="100%"></stop></linearGradient><linearGradient x1="27%" y1="47%" x2="91%" y2="49%" id="id-74560"><stop stop-color="#FFA58A" offset="0%"></stop><stop stop-color="#FFC3A1" offset="100%"></stop></linearGradient><linearGradient x1="47%" y1="60%" x2="49%" y2="79%" id="id-74561"><stop stop-color="#EE833F" offset="0%"></stop><stop stop-color="#E6713C" offset="60%"></stop><stop stop-color="#F69666" offset="100%"></stop></linearGradient><linearGradient x1="29%" y1="56%" x2="69%" y2="53%" id="id-74562"><stop stop-color="#D97647" offset="0%"></stop><stop stop-color="#D6623C" offset="8%"></stop><stop stop-color="#D77043" offset="18%"></stop><stop stop-color="#D76545" offset="38%"></stop><stop stop-color="#D36346" offset="65%"></stop><stop stop-color="#D16140" offset="81%"></stop><stop stop-color="#984F3B" offset="100%"></stop></linearGradient><linearGradient x1="47%" y1="45%" x2="54%" y2="46%" id="id-74563"><stop stop-color="#E16241" offset="0%"></stop><stop stop-color="#E1673E" offset="62%"></stop><stop stop-color="#D45A30" offset="77%"></stop><stop stop-color="#E37F49" offset="100%"></stop></linearGradient><linearGradient x1="51%" y1="7%" x2="50%" y2="100%" id="id-74564"><stop stop-color="#E86B40" offset="0%"></stop><stop stop-color="#E3845C" offset="75%"></stop><stop stop-color="#E88461" offset="100%"></stop></linearGradient><linearGradient x1="51%" y1="11%" x2="49%" y2="91%" id="id-74565"><stop stop-color="#E8793E" offset="0%"></stop><stop stop-color="#E5763C" offset="73%"></stop><stop stop-color="#E97E40" offset="100%"></stop></linearGradient><linearGradient x1="51%" y1="-5%" x2="48%" y2="96%" id="id-74566"><stop stop-color="#EF773C" offset="0%"></stop><stop stop-color="#DD662E" offset="100%"></stop></linearGradient><linearGradient x1="50%" y1="19%" x2="50%" y2="69%" id="id-74567"><stop stop-color="#C04A19" offset="0%"></stop><stop stop-color="#A33710" offset="46%"></stop><stop stop-color="#BE440B" offset="100%"></stop></linearGradient><linearGradient x1="46%" y1="74%" x2="39%" y2="35%" id="id-74568"><stop stop-color="#B34A35" offset="0%"></stop><stop stop-color="#C55E3E" offset="51%"></stop><stop stop-color="#D4623B" offset="100%"></stop></linearGradient><linearGradient x1="46%" y1="16%" x2="49%" y2="82%" id="id-74569"><stop stop-color="#9B473D" offset="0%" stop-opacity="0.186"></stop><stop stop-color="#5F2520" offset="100%"></stop></linearGradient><linearGradient x1="41%" y1="19%" x2="50%" y2="100%" id="id-74570"><stop stop-color="#CC5E47" offset="0%"></stop><stop stop-color="#B13E35" offset="100%"></stop></linearGradient><linearGradient x1="50%" y1="31%" x2="45%" y2="50%" id="id-74571"><stop stop-color="#E76A31" offset="0%"></stop><stop stop-color="#EB8D54" offset="100%"></stop></linearGradient><linearGradient x1="51%" y1="22%" x2="50%" y2="100%" id="id-74572"><stop stop-color="#C74B40" offset="0%"></stop><stop stop-color="#C85E52" offset="100%"></stop></linearGradient><linearGradient x1="49%" y1="0%" x2="50%" y2="99%" id="id-74573"><stop stop-color="#DB6F3D" offset="0%"></stop><stop stop-color="#E8764A" offset="100%"></stop></linearGradient><linearGradient x1="44%" y1="15%" x2="50%" y2="100%" id="id-74574"><stop stop-color="#C15138" offset="0%"></stop><stop stop-color="#BA4D37" offset="100%"></stop></linearGradient><linearGradient x1="52%" y1="21%" x2="49%" y2="83%" id="id-74575"><stop stop-color="#E87740" offset="0%"></stop><stop stop-color="#E77E4F" offset="48%"></stop><stop stop-color="#E48553" offset="100%"></stop></linearGradient><linearGradient x1="85%" y1="60%" x2="15%" y2="60%" id="id-74576"><stop stop-color="#E76C34" offset="0%"></stop><stop stop-color="#D76128" offset="100%"></stop></linearGradient><linearGradient x1="50%" y1="-3%" x2="59%" y2="91%" id="id-74577"><stop stop-color="#F98450" offset="0%"></stop><stop stop-color="#E16C36" offset="53%"></stop><stop stop-color="#D55D29" offset="66%"></stop><stop stop-color="#D85620" offset="100%"></stop></linearGradient><linearGradient x1="55%" y1="48%" x2="46%" y2="33%" id="id-74578"><stop stop-color="#E87C40" offset="0%"></stop><stop stop-color="#E77C42" offset="86%"></stop><stop stop-color="#E47138" offset="100%"></stop></linearGradient><linearGradient x1="50%" y1="19%" x2="50%" y2="78%" id="id-74579"><stop stop-color="#913919" offset="0%"></stop><stop stop-color="#AB4722" offset="50%"></stop><stop stop-color="#842C26" offset="100%"></stop></linearGradient><linearGradient x1="50%" y1="10%" x2="50%" y2="43%" id="id-74580"><stop stop-color="#EC7237" offset="0%"></stop><stop stop-color="#CB5D37" offset="15%"></stop><stop stop-color="#AF3F09" offset="68%"></stop><stop stop-color="#D04F19" offset="100%"></stop></linearGradient><linearGradient x1="89%" y1="50%" x2="7%" y2="52%" id="id-74581"><stop stop-color="#A93700" offset="0%"></stop><stop stop-color="#B85C4D" offset="53%" stop-opacity="0.199"></stop><stop stop-color="#A3451F" offset="75%"></stop><stop stop-color="#952903" offset="100%"></stop></linearGradient><linearGradient x1="44%" y1="70%" x2="86%" y2="30%" id="id-74582"><stop stop-color="#FF975B" offset="0%"></stop><stop stop-color="#FFAA6C" offset="100%"></stop></linearGradient><linearGradient x1="33%" y1="92%" x2="62%" y2="23%" id="id-74583"><stop stop-color="#AC401F" offset="0%"></stop><stop stop-color="#FF8245" offset="40%"></stop><stop stop-color="#FF965B" offset="100%"></stop></linearGradient><linearGradient x1="35%" y1="94%" x2="47%" y2="12%" id="id-74584"><stop stop-color="#DF5820" offset="0%"></stop><stop stop-color="#FF894D" offset="40%"></stop><stop stop-color="#FFA769" offset="100%"></stop></linearGradient><linearGradient x1="50%" y1="54%" x2="27%" y2="9%" id="id-74585"><stop stop-color="#F7AB80" offset="0%"></stop><stop stop-color="#DDAB90" offset="100%" stop-opacity="0.078"></stop></linearGradient><linearGradient x1="50%" y1="0%" x2="93%" y2="69%" id="id-74586"><stop stop-color="#FF9558" offset="0%"></stop><stop stop-color="#FF8B4A" offset="70%"></stop><stop stop-color="#C6422F" offset="100%"></stop></linearGradient><linearGradient x1="36%" y1="84%" x2="25%" y2="44%" id="id-74587"><stop stop-color="#C98762" offset="0%" stop-opacity="0.509"></stop><stop stop-color="#90492C" offset="35%" stop-opacity="0.675"></stop><stop stop-color="#762E17" offset="100%" stop-opacity="0"></stop></linearGradient><linearGradient x1="63%" y1="95%" x2="43%" y2="20%" id="id-74588"><stop stop-color="#E67D45" offset="0%"></stop><stop stop-color="#E98D52" offset="46%"></stop><stop stop-color="#E27847" offset="100%"></stop></linearGradient><linearGradient x1="40%" y1="0%" x2="50%" y2="86%" id="id-74589"><stop stop-color="#E67D42" offset="0%"></stop><stop stop-color="#E47D44" offset="100%"></stop></linearGradient><linearGradient x1="50%" y1="0%" x2="50%" y2="90%" id="id-74590"><stop stop-color="#EA8447" offset="0%"></stop><stop stop-color="#E79253" offset="100%"></stop></linearGradient><linearGradient x1="33%" y1="79%" x2="21%" y2="44%" id="id-74591"><stop stop-color="#BE6457" offset="0%"></stop><stop stop-color="#983F32" offset="28%" stop-opacity="0.928"></stop><stop stop-color="#762E17" offset="100%" stop-opacity="0"></stop></linearGradient><linearGradient x1="4%" y1="47%" x2="92%" y2="45%" id="id-74592"><stop stop-color="#7E2A0A" offset="0%"></stop><stop stop-color="#993A16" offset="17%" stop-opacity="0.753"></stop><stop stop-color="#A94736" offset="48%" stop-opacity="0.386"></stop><stop stop-color="#AC4218" offset="78%" stop-opacity="0.762"></stop><stop stop-color="#9F3B13" offset="100%"></stop></linearGradient><linearGradient x1="60%" y1="45%" x2="67%" y2="53%" id="id-74593"><stop stop-color="#FF8B59" offset="0%"></stop><stop stop-color="#FFBA99" offset="100%"></stop></linearGradient><linearGradient x1="48%" y1="15%" x2="54%" y2="81%" id="id-74594"><stop stop-color="#E6976B" offset="0%"></stop><stop stop-color="#E39568" offset="100%"></stop></linearGradient><linearGradient x1="47%" y1="44%" x2="50%" y2="61%" id="id-74595"><stop stop-color="#943B2F" offset="0%" stop-opacity="0.175"></stop><stop stop-color="#61301B" offset="100%"></stop></linearGradient><linearGradient x1="26%" y1="-7%" x2="50%" y2="96%" id="id-74596"><stop stop-color="#37373F" offset="0%"></stop><stop stop-color="#19191D" offset="100%"></stop></linearGradient><linearGradient x1="50%" y1="12%" x2="59%" y2="82%" id="id-74597"><stop stop-color="#252525" offset="0%"></stop><stop stop-color="#101010" offset="100%"></stop></linearGradient><linearGradient x1="25%" y1="-16%" x2="50%" y2="98%" id="id-74598"><stop stop-color="#37373F" offset="0%"></stop><stop stop-color="#19191D" offset="100%"></stop></linearGradient><linearGradient x1="75%" y1="39%" x2="50%" y2="93%" id="id-74599"><stop stop-color="#252525" offset="0%"></stop><stop stop-color="#000000" offset="100%"></stop></linearGradient></defs><g transform=" translate(334,549)" id="id-74600"><polygon points="561 754 565 871 565 881 537 893 533 897 535 901 532 909 543 910 597 864" fill="#560304" id="id-74601"></polygon><polygon points="537 282 539 246 535 195 529 158 522 137 484 118 440 111 212 111 188 113 157 123 121 139 111 186 108 221 109 290" fill="url(#id-74554)" id="id-74601"></polygon><polygon points="467 393 474 506 503 589 537 672 556 728 561 754 546 794 552 851 551 861 552 874 556 885 567 882 568 866 570 860 570 843 571 834 576 843 576 859 579 864 573 874 571 884 544 903 541 916 582 901 597 864 607 852 600 821 597 716 589 695 582 655 569 523 544 425" fill="url(#id-74555)" id="id-74601"></polygon><polygon points="546 794 552 851 551 861 552 874 556 885 567 882 568 866 570 860 570 843 571 834 576 843 576 859 579 864 573 874 571 884 544 903 541 916 582 901 597 864 583 871 588 855 573 815 561 823" fill="url(#id-74556)" id="id-74601"></polygon><polygon points="552 851 551 861 552 874 556 887 567 884 568 866 570 860 558 860" fill="#AB562C" id="id-74601"></polygon><polygon points="544 906 541 916 582 901 571 889" fill="#AB562C" id="id-74601"></polygon><polygon points="561 754 548 789 566 819 586 806" fill="#CF7C49" id="id-74601"></polygon><polygon points="486 648 477 599 453 529 440 504 437 490 439 460 449 402 456 340 188 343 198 411 202 493 162 596 153 638 266 693 319 721 386 693" fill="url(#id-74557)" id="id-74601"></polygon><polygon points="486 648 477 599 453 529 440 504 437 490 439 460 449 402 456 340 296 353 376 634" fill="#DD6E3F" id="id-74601"></polygon><g transform=" translate(188,0)" id="id-74610"><polygon points="274 114 253 111 232 100 201 76 188 58 184 1 93 1 88 64 25 111 1 113 103 123 121 135 134 138 149 121 161 117 187 119 225 114" fill="#EE773D" id="id-74601"></polygon><polygon points="201 76 188 58 185 12 175 57 155 111 185 73" fill="#E5995F" id="id-74601"></polygon><polygon points="149 1 93 1 88 64 108 126 121 135 133 138" fill="#DA642E" id="id-74601"></polygon><polygon points="116 102 120 113 118 115 136 135 150 119 164 71 125 108" fill="#C7592D" id="id-74614"></polygon><polygon points="121 127 133 138 145 124" fill="#C43806" id="id-74615"></polygon><polygon points="136 98 164 71 175 57 186 17 134 51" fill="#E2803D" id="id-74616"></polygon><polygon points="97 96 116 80 164 60 178 48 186 17 184 1 93 1 88 64 45 96" fill="#A45026" opacity="0.654" id="id-74601"></polygon><polygon points="186 17 184 1 93 1 88 64 45 96 66 96" fill="url(#id-74558)" opacity="0.467" id="id-74601"></polygon><polygon points="123 58 176 23 186 17 184 1 93 1 91 22 108 55" fill="#381404" opacity="0.434" id="id-74601"></polygon></g><polygon points="41 844 33 856 36 895 64 915 84 911 83 903 71 898 72 892 63 884 52 849" fill="url(#id-74559)" id="id-74601"></polygon><polygon points="315 152 285 173 320 188 357 166" fill="#FFB67E" id="id-74621"></polygon><polygon points="327 150 370 130 342 127" fill="#EE7539" id="id-74622"></polygon><polygon points="301 142 303 148 243 131 240 119 276 119" fill="#EB7338" id="id-74623"></polygon><polygon points="159 149 206 123 269 123 303 144 297 118 188 113 157 123 121 139" fill="url(#id-74560)" id="id-74601"></polygon><polygon points="157 123 121 139 153 167 196 134" fill="#FFC3A1" id="id-74601"></polygon><polygon points="89 584 77 541 62 551 45 658 34 712 25 741 25 762 10 817 0 845 14 870 25 901 58 919 72 919 69 913 61 905 50 899 37 874 37 852 43 845 52 855 50 887 56 901 64 905 66 901 66 882 72 836 72 800 69 781 64 773 66 735 85 684 121 599 162 510" fill="url(#id-74561)" id="id-74601"></polygon><polygon points="89 584 77 541 62 551 45 658 48 715 121 599 162 510" fill="#E77038" id="id-74601"></polygon><polygon points="55 843 45 827 37 848 17 852 8 836 5 851 0 845 14 870 25 901 58 919 72 919 69 913 61 905 50 899 37 874 37 852 43 845 52 855 50 887 56 901 64 905 66 901 66 882 72 836" fill="#D5643C" id="id-74601"></polygon><polygon points="53 882 52 892 56 901 64 905 66 901 66 882 67 876" fill="#C45627" id="id-74601"></polygon><polygon points="25 901 58 919 72 919 62 909 37 895" fill="#C45627" id="id-74601"></polygon><polygon points="160 467 145 488 108 578 45 777 48 797 64 773 66 735 85 684 121 599 162 510" fill="#CB4A0C" id="id-74601"></polygon><polygon points="169 1211 277 1211 282 1183 281 1150 284 1127 286 1114 285 1063 293 972 306 866 311 792 309 768 323 771 337 768 333 817 333 855 339 924 346 1008 348 1113 351 1130 353 1176 361 1211 461 1211 458 1191 456 1170 460 1133 461 1082 505 905 516 839 518 826 512 762 503 706 486 648 482 629 386 690 318 718 266 690 184 629 153 637 132 731 119 781 118 813 123 862 131 916 166 1094 176 1179" fill="url(#id-74562)" id="id-74601"></polygon><polygon points="463 664 416 771 400 819 392 1125 359 1178 398 1204 441 1153 461 1082 505 905 516 839 518 826 515 789 490 714" fill="url(#id-74563)" id="id-74601"></polygon><polygon points="422 1160 395 1199 365 1171 401 1149 384 1120 391 983 411 786 416 771 448 697 454 1013 445 1116 407 1149" fill="url(#id-74564)" id="id-74634"></polygon><polygon points="121 139 111 186 108 221 109 290 96 438 89 464 69 510 89 585 162 510 167 425 162 241" fill="url(#id-74565)" id="id-74601"></polygon><polygon points="101 466 103 488 106 510 160 447 179 359 164 232 187 184 186 179 132 181 161 234 161 321 149 376 151 384 123 461 114 466" fill="url(#id-74566)" id="id-74636"></polygon><polygon points="96 438 89 464 69 510 51 621 101 520 96 476" fill="#EDAC7E" id="id-74601"></polygon><polygon points="96 451 128 365 134 316 121 139 111 186 108 221 109 290 96 438" fill="#DC6429" id="id-74601"></polygon><polygon points="184 241 177 248 162 225 138 289 161 321 170 375 161 420 151 411 162 510 167 425 188 343" fill="url(#id-74567)" id="id-74601"></polygon><polygon points="284 1127 286 1114 285 1063 293 972 306 866 311 792 309 768 323 771 337 768 333 817 333 855 339 924 346 1008 375 889 416 771 463 664 490 714 515 790 512 762 503 706 486 648 477 599 471 583 420 650 316 720 201 654 244 742 264 824 275 994" fill="url(#id-74568)" id="id-74601"></polygon><polygon points="298 930 306 866 311 792 309 768 323 771 337 768 333 817 333 855 336 894 347 826 360 784 378 733 388 687 321 739 254 687 267 736 291 821" fill="url(#id-74569)" id="id-74601"></polygon><polygon points="348 1093 348 1113 351 1130 353 1176 361 1211 461 1211 439 1155 422 1136 403 1148 429 1168 400 1202 370 1170 382 1125" fill="url(#id-74570)" id="id-74601"></polygon><polygon points="10 855 8 836 5 851 0 845 14 870" fill="#AF4A3E" id="id-74601"></polygon><polygon points="520 500 516 520 544 629 474 500 490 399" fill="url(#id-74571)" id="id-74644"></polygon><polygon points="461 1211 458 1191 456 1170 460 1133 461 1082 439 1155 450 1211" fill="url(#id-74572)" id="id-74601"></polygon><polygon points="220 1149 259 1115 240 1063 232 973 266 819 240 713 201 661 158 650 201 784 183 925 170 1083" fill="url(#id-74573)" id="id-74646"></polygon><polygon points="169 1211 277 1211 282 1183 281 1150 284 1127 286 1114 286 1098 226 1211 207 1211 196 1121 173 1078 150 1014 166 1094 176 1179" fill="url(#id-74574)" id="id-74601"></polygon><polygon points="173 1078 183 924 150 1014" fill="#D95D37" id="id-74601"></polygon><polygon points="169 1211 239 1211 230 1196 204 1175 173 1150 176 1179" fill="#C04934" opacity="0.574" id="id-74601"></polygon><polygon points="221 1130 240 1097 224 1063 224 983 240 804 217 698 190 668 212 771 212 910 190 998 181 1094" fill="url(#id-74575)" id="id-74646"></polygon><polygon points="217 795 221 692 200 667 169 658 200 737" fill="#DD956B" id="id-74651"></polygon><polygon points="511 476 492 419 481 447 484 356 521 274 533 417" fill="url(#id-74576)" id="id-74652"></polygon><polygon points="569 523 544 425 542 346 537 282 539 246 535 195 529 158 522 137 494 161 419 158 471 211 516 290 525 411 511 477 518 507 535 462 562 543" fill="url(#id-74577)" id="id-74601"></polygon><polygon points="486 389 533 243 501 167 464 207 451 247 463 265" fill="url(#id-74578)" id="id-74654"></polygon><polygon points="473 490 474 506 503 589 537 672 556 728 561 754 567 712 543 623" fill="#DA531D" id="id-74601"></polygon><polygon points="460 328 466 378 474 506 490 425 486 392 469 274 479 230 461 260 454 251" fill="url(#id-74579)" id="id-74601"></polygon><polygon points="440 504 437 490 439 460 449 402 456 340 458 328 325 282 188 343 198 411 202 493 162 596 157 621 161 633 169 599 173 570 204 506 202 458 217 402 286 365 321 352 353 360 422 402 431 493 437 520" fill="url(#id-74580)" id="id-74601"></polygon><polygon points="451 385 456 340 458 328 364 340 330 308 268 343 188 343 194 379 262 368 312 343 335 340 381 368" fill="url(#id-74581)" id="id-74601"></polygon><polygon points="286 328 306 310 330 274 453 252 464 205 421 156 317 204 219 165 210 154 188 180" fill="url(#id-74582)" id="id-74659"></polygon><path d=" M 422,195 L 405,190 C 377,190 357,198 343,214 C 329,230 322,250 323,276 C 324,301 331,320 345,333 C 365,351 384,356 405,356 C 425,356 444,347 450,342 C 454,339 457,335 460,328 C 463,323 466,317 467,308 C 469,294 466,276 457,254 L 422,195 Z" fill="url(#id-74583)" id="id-74660"></path><path d=" M 422,195 L 417,175 C 386,188 366,196 358,201 C 355,203 351,206 348,208 C 348,209 381,253 448,342 C 454,338 459,332 463,324 C 469,310 469,301 469,293 C 469,287 465,275 459,257 L 422,195 Z" fill="url(#id-74584)" id="id-74660"></path><path d=" M 375,226 C 338,253 343,276 343,284 C 343,291 353,319 371,335 C 379,342 422,349 447,331 C 468,316 472,294 458,265 C 427,221 400,208 375,226 Z" fill="url(#id-74585)" opacity="0.282" id="id-74660"></path><path d=" M 272,205 C 260,199 243,200 221,209 C 187,227 169,258 168,303 C 167,319 184,342 190,346 C 197,351 212,356 239,353 C 257,351 272,344 284,333 C 303,312 312,288 309,260 C 305,217 291,214 272,205 Z" fill="url(#id-74586)" id="id-74663"></path><path d=" M 340,285 C 333,252 328,240 326,248 C 324,254 323,263 323,276 C 324,301 331,320 345,333 C 365,351 382,356 404,356 C 425,356 444,347 450,342 C 456,337 465,325 468,308 C 472,290 465,276 463,268 C 461,263 460,259 458,255 L 442,290 L 399,304 L 366,300 L 340,285 Z" fill="url(#id-74587)" id="id-74660"></path><path d=" M 153,637 L 149,654 L 132,731 L 130,739 C 133,730 135,723 137,718 C 140,709 147,691 149,680 C 151,671 155,655 161,633 L 172,570 L 162,596 L 153,637 Z" fill="#7D362E" id="id-74601"></path><path d=" M 259,203 C 254,199 240,185 217,163 L 210,153 L 186,180 C 192,211 192,231 186,239 C 175,256 168,277 168,303 C 168,324 190,352 239,344 C 252,342 274,217 259,203 Z" fill="#FF9558" id="id-74663"></path><polygon points="175 565 203 550 234 558 241 520 203 455 203 507" fill="#C6450C" id="id-74667"></polygon><polygon points="241 442 241 518 229 556 233 629 266 657 316 707 381 659 395 629 364 504 350 504 301 380" fill="url(#id-74588)" id="id-74668"></polygon><polygon points="432 626 427 589 407 518 414 505 450 568 470 618" fill="url(#id-74589)" id="id-74669"></polygon><polygon points="302 376 254 442 254 546 302 590 364 568 364 504 350 504 376 454 345 400" fill="url(#id-74590)" id="id-74668"></polygon><polygon points="317 480 342 436 319 413 300 447" fill="#E67841" id="id-74671"></polygon><polygon points="304 541 318 507 329 541 314 549" fill="#E66D37" id="id-74672"></polygon><polygon points="306 543 316 578 329 541" fill="#E99B64" id="id-74673"></polygon><path d=" M 178,333 C 179,334 180,336 182,338 C 184,342 186,343 189,346 C 190,347 197,351 206,353 C 215,354 226,355 239,353 C 257,351 272,344 284,333 C 293,322 299,313 302,305 C 304,301 307,293 309,277 C 310,274 310,268 309,260 L 228,277 L 207,295 L 178,333 Z" fill="url(#id-74591)" id="id-74663"></path><polygon points="306 543 308 550 324 556 329 541" fill="#ECA774" id="id-74673"></polygon><polygon points="308 543 318 525 323 542 314 548" fill="#B5491C" id="id-74676"></polygon><polygon points="152 641 162 596 176 561 185 617 214 602 246 628 323 690 404 628 423 605 454 605 470 577 477 599 482 629 388 689 337 768 323 771 309 768 259 688 175 639 142 688" fill="url(#id-74592)" opacity="0.442" id="id-74677"></polygon><polygon points="490 154 522 137 484 118 412 123" fill="url(#id-74593)" id="id-74601"></polygon><polygon points="573 785 588 829 602 858 607 852 600 821 597 716 576 763" fill="#FF966A" id="id-74601"></polygon><polygon points="574 722 589 695 582 655 533 542" fill="url(#id-74594)" id="id-74601"></polygon><polygon points="172 640 241 690 309 768 323 771 338 768 395 706 469 661 404 650 313 706 217 629" fill="url(#id-74595)" opacity="0.571" id="id-74681"></polygon><g transform=" translate(188,270)" id="id-74682"><polygon points="207 13 207 10 217 2 220 2 239 21 258 39 260 42 250 51 246 52 226 33" fill="url(#id-74596)" id="id-74683"></polygon><polygon points="208 40 218 50 222 50 240 33 257 13 257 9 247 0 244 1 230 19 209 36" fill="url(#id-74597)" id="id-74684"></polygon><polygon points="1 13 1 10 10 2 15 2 32 21 50 39 52 42 42 52 38 52 19 33" fill="url(#id-74598)" id="id-74683"></polygon><polygon points="0 43 10 53 14 53 33 35 50 15 50 11 40 3 36 4 19 23 1 39" fill="url(#id-74599)" id="id-74684"></polygon></g></g><defs><linearGradient x1="79%" y1="0%" x2="79%" y2="22%" id="id-75341"><stop stop-color="#FDE1E0" offset="0%"></stop><stop stop-color="#D46A32" offset="100%"></stop></linearGradient><linearGradient x1="40%" y1="32%" x2="50%" y2="75%" id="id-75342"><stop stop-color="#E98D54" offset="0%"></stop><stop stop-color="#F4AD80" offset="100%"></stop></linearGradient><linearGradient x1="50%" y1="0%" x2="50%" y2="82%" id="id-75343"><stop stop-color="#F7CAAB" offset="0%"></stop><stop stop-color="#F3AF87" offset="100%"></stop></linearGradient><linearGradient x1="21%" y1="-8%" x2="64%" y2="50%" id="id-75344"><stop stop-color="#EB925A" offset="0%"></stop><stop stop-color="#F6B48F" offset="100%"></stop></linearGradient><radialGradient cx="48%" cy="50%" r="67%" id="id-75345" fx="48%" fy="50%" gradientTransform=" translate(0.478,0.500) scale(0.717,1) rotate(180) scale(1,1) translate(-0.478,-0.500)"><stop stop-color="#EB925B" offset="0%"></stop><stop stop-color="#D36E3D" offset="100%"></stop></radialGradient><radialGradient cx="50%" cy="65%" r="73%" id="id-75346" fx="50%" fy="65%" gradientTransform=" translate(0.500,0.654) scale(0.748,1) rotate(90) scale(1,0.914) translate(-0.500,-0.654)"><stop stop-color="#EFA371" offset="0%"></stop><stop stop-color="#BB561C" offset="100%"></stop></radialGradient><linearGradient x1="47%" y1="38%" x2="54%" y2="70%" id="id-75347"><stop stop-color="#FA9263" offset="0%"></stop><stop stop-color="#F69C6E" offset="41%"></stop><stop stop-color="#F39969" offset="100%"></stop></linearGradient><linearGradient x1="50%" y1="0%" x2="50%" y2="85%" id="id-75348"><stop stop-color="#F1A778" offset="0%"></stop><stop stop-color="#F8AF88" offset="100%"></stop></linearGradient><linearGradient x1="15%" y1="28%" x2="74%" y2="73%" id="id-75349"><stop stop-color="#F2A97F" offset="0%"></stop><stop stop-color="#FEB18F" offset="100%"></stop></linearGradient><linearGradient x1="109%" y1="57%" x2="0%" y2="43%" id="id-75350"><stop stop-color="#EA9264" offset="0%"></stop><stop stop-color="#DE7C45" offset="100%"></stop></linearGradient><linearGradient x1="0%" y1="50%" x2="100%" y2="50%" id="id-75351"><stop stop-color="#CC7145" offset="0%"></stop><stop stop-color="#914121" offset="51%"></stop><stop stop-color="#CE7749" offset="100%"></stop></linearGradient><linearGradient x1="50%" y1="31%" x2="35%" y2="71%" id="id-75352"><stop stop-color="#F1AA7D" offset="0%"></stop><stop stop-color="#FFBD94" offset="40%"></stop><stop stop-color="#FAB189" offset="100%"></stop></linearGradient><linearGradient x1="50%" y1="0%" x2="50%" y2="50%" id="id-75353"><stop stop-color="#E29369" offset="0%"></stop><stop stop-color="#F9B897" offset="100%"></stop></linearGradient><linearGradient x1="50%" y1="25%" x2="50%" y2="100%" id="id-75354"><stop stop-color="#E4854D" offset="0%"></stop><stop stop-color="#EF673A" offset="20%"></stop><stop stop-color="#F99466" offset="56%"></stop><stop stop-color="#D97840" offset="100%"></stop></linearGradient><linearGradient x1="40%" y1="22%" x2="50%" y2="69%" id="id-75355"><stop stop-color="#F4AC80" offset="0%"></stop><stop stop-color="#E28D60" offset="100%"></stop></linearGradient><linearGradient x1="50%" y1="85%" x2="50%" y2="50%" id="id-75356"><stop stop-color="#962525" offset="0%"></stop><stop stop-color="#450000" offset="100%"></stop></linearGradient><linearGradient x1="50%" y1="0%" x2="50%" y2="100%" id="id-75357"><stop stop-color="#EB5363" offset="0%"></stop><stop stop-color="#F85C69" offset="54%"></stop><stop stop-color="#D4494B" offset="100%"></stop></linearGradient><linearGradient x1="50%" y1="0%" x2="50%" y2="77%" id="id-75358"><stop stop-color="#B83C3C" offset="0%"></stop><stop stop-color="#BF3F3F" offset="100%"></stop></linearGradient><linearGradient x1="99%" y1="50%" x2="93%" y2="54%" id="id-75359"><stop stop-color="#F19E6F" offset="0%"></stop><stop stop-color="#A05029" offset="100%"></stop></linearGradient><linearGradient x1="50%" y1="0%" x2="50%" y2="91%" id="id-75360"><stop stop-color="#DD996C" offset="0%"></stop><stop stop-color="#D5804C" offset="77%"></stop><stop stop-color="#D66735" offset="100%"></stop></linearGradient><linearGradient x1="9%" y1="25%" x2="26%" y2="82%" id="id-75361"><stop stop-color="#C45929" offset="0%"></stop><stop stop-color="#D3723E" offset="60%"></stop><stop stop-color="#E57F4F" offset="100%"></stop></linearGradient><linearGradient x1="55%" y1="46%" x2="68%" y2="95%" id="id-75362"><stop stop-color="#B75323" offset="0%"></stop><stop stop-color="#F7BA9B" offset="100%"></stop></linearGradient><linearGradient x1="50%" y1="0%" x2="50%" y2="100%" id="id-75363"><stop stop-color="#EA7440" offset="0%"></stop><stop stop-color="#B94C1C" offset="100%"></stop></linearGradient><linearGradient x1="50%" y1="11%" x2="50%" y2="100%" id="id-75364"><stop stop-color="#EEAD81" offset="0%"></stop><stop stop-color="#F99566" offset="100%"></stop></linearGradient><linearGradient x1="50%" y1="12%" x2="47%" y2="66%" id="id-75365"><stop stop-color="#F19E6F" offset="0%"></stop><stop stop-color="#DE8B58" offset="100%"></stop></linearGradient><linearGradient x1="91%" y1="56%" x2="10%" y2="39%" id="id-75366"><stop stop-color="#CC6835" offset="0%"></stop><stop stop-color="#A6482C" offset="74%"></stop><stop stop-color="#C65B23" offset="100%"></stop></linearGradient><linearGradient x1="50%" y1="50%" x2="50%" y2="74%" id="id-75367"><stop stop-color="#CF6042" offset="0%"></stop><stop stop-color="#EA846D" offset="100%"></stop></linearGradient><linearGradient x1="77%" y1="54%" x2="50%" y2="58%" id="id-75368"><stop stop-color="#D66C3F" offset="0%"></stop><stop stop-color="#F8936B" offset="100%"></stop></linearGradient><radialGradient cx="50%" cy="70%" r="100%" id="id-75369" fx="50%" fy="70%" gradientTransform=" translate(0.500,0.701) scale(0.442,1) rotate(73) translate(-0.500,-0.701)"><stop stop-color="#98321F" offset="0%"></stop><stop stop-color="#C96130" offset="100%"></stop></radialGradient><linearGradient x1="47%" y1="40%" x2="47%" y2="91%" id="id-75370"><stop stop-color="#C35230" offset="0%"></stop><stop stop-color="#DC6B59" offset="100%"></stop></linearGradient><linearGradient x1="50%" y1="20%" x2="50%" y2="72%" id="id-75371"><stop stop-color="#3B2311" offset="0%"></stop><stop stop-color="#714225" offset="100%"></stop></linearGradient><linearGradient x1="67%" y1="29%" x2="67%" y2="76%" id="id-75372"><stop stop-color="#372311" offset="0%"></stop><stop stop-color="#8C5031" offset="100%"></stop></linearGradient></defs><g transform=" translate(561,332)" id="id-75373"><g transform=" translate(172,115)" id="id-75374"><polygon points="14 1 18 0 25 8 27 21 24 41 14 66 0 68" fill="url(#id-75341)" id="id-75375"></polygon><polygon points="12 48 19 50 23 42 26 24 20 12 12 22" fill="#EC9266" id="id-75376"></polygon><polygon points="11 21 17 10 20 5 24 7 26 24 20 36 18 31 20 16 9 29" fill="#C1430B" id="id-75377"></polygon><polygon points="10 28 11 38 8 45 13 49 19 38 13 24" fill="#8C350A" id="id-75378"></polygon><polygon points="12 18 17 17 18 9" fill="#8C350A" id="id-75379"></polygon><polygon points="18 50 10 51 8 50 5 61 12 63 14 61" fill="#E88C5F" id="id-75380"></polygon></g><g transform=" translate(0,113)" id="id-75381"><polygon points="13 0 5 0 0 13 4 36 13 63 25 67" fill="#D07C59" id="id-75382"></polygon><polygon points="5 9 0 13 4 36 13 63 25 67 13 24" fill="#DE8959" id="id-75382"></polygon><polygon points="18 46 14 47 7 32 11 26 4 9 6 5 16 20 17 29" fill="#AE3A08" id="id-75384"></polygon><polygon points="13 62 20 62 18 49 11 53" fill="#FEA878" id="id-75385"></polygon><polygon points="25 68 13 63 20 62 17 46 14 47 13 44 14 29 17 26 14 22 10 19 10 11 17 20" fill="#A00C07" id="id-75386"></polygon><polygon points="13 9 4 3 5 0 12 0" fill="#D6A2A5" id="id-75387"></polygon></g><path d=" M 29,199 C 21,167 16,144 15,130 C 4,44 33,0 103,0 C 180,0 191,63 186,119 C 183,157 173,191 170,202 C 169,206 167,213 164,217 C 158,226 140,237 112,250 C 107,252 89,252 82,250 C 59,240 44,229 36,218 C 34,215 32,208 29,199 Z" fill="#EEA16C" id="id-75388"></path><polygon points="33 108 34 36 99 6 175 45 171 113 95 117" fill="url(#id-75342)" id="id-75389"></polygon><polygon points="53 107 64 92 47 46 97 53 133 46 111 74 123 96 142 110 105 123" fill="url(#id-75343)" id="id-75390"></polygon><polygon points="63 87 47 46 78 51" fill="url(#id-75344)" id="id-75390"></polygon><path d=" M 32,97 L 55,101 L 37,41 L 61,32 L 114,41 L 136,39 L 125,56 L 155,58 L 155,100 L 169,107 L 184,119 L 174,43 C 139,6 101,-5 62,11 C 23,27 13,55 32,97 Z" fill="url(#id-75345)" id="id-75392"></path><path d=" M 15,130 C 4,44 33,0 103,0 C 180,0 191,63 186,119 L 167,94 L 166,70 L 151,27 C 145,18 127,13 99,13 C 71,13 52,19 43,32 L 40,53 L 34,70 L 36,104 C 22,124 15,132 15,130 Z" fill="url(#id-75346)" id="id-75388"></path><polygon points="33 165 101 152 166 185 148 225 117 246 83 249 50 217" fill="url(#id-75347)" id="id-75394"></polygon><polygon points="72 209 67 186 78 169 121 174 138 196 123 210" fill="url(#id-75348)" id="id-75395"></polygon><polygon points="68 189 49 169 31 158 19 128 91 145" fill="url(#id-75349)" id="id-75396"></polygon><polygon points="85 165 52 172 38 127 88 145" fill="#F7BA9B" id="id-75396"></polygon><polygon points="73 209 78 237 115 234 129 217 126 208" fill="url(#id-75350)" id="id-75398"></polygon><polygon points="84 233 92 227 88 221 113 221 109 227 116 233" fill="url(#id-75351)" id="id-75399"></polygon><polygon points="117 178 125 191 138 196 171 146 155 141 108 135" fill="url(#id-75352)" id="id-75400"></polygon><path d=" M 75,237 C 83,232 91,230 99,230 C 106,230 116,232 127,237 L 113,246 L 89,249 L 75,237 Z" fill="url(#id-75353)" id="id-75401"></path><path d=" M 29,199 C 21,167 16,144 15,130 C 14,127 14,124 14,121 L 20,115 L 31,135 L 25,141 L 32,158 L 43,166 C 48,187 53,203 58,214 C 68,227 79,238 91,246 L 111,246 C 125,238 134,230 138,223 C 143,209 147,190 150,168 L 170,145 L 166,103 C 179,108 186,113 186,119 C 183,157 173,191 170,202 C 169,206 167,213 164,217 C 158,226 140,237 112,250 C 107,252 89,252 82,250 C 59,240 44,229 36,218 C 34,215 32,208 29,199 Z" fill="url(#id-75354)" id="id-75388"></path><path d=" M 182,102 C 185,110 186,115 186,119 C 183,157 173,191 170,202 C 169,206 167,213 164,217 C 161,221 157,225 151,229 C 158,221 164,210 169,196 C 170,192 173,181 177,162 C 178,159 179,152 181,144 L 180,111 L 174,86 L 182,102 Z" fill="#E7B9B9" id="id-75388"></path><polygon points="94 180 93 195 101 204 110 197 104 176" fill="url(#id-75355)" id="id-75404"></polygon><g transform=" translate(71,178)" id="id-75405"><polygon points="21 2 21 9 23 11 25 3 23 0" fill="#FEC5B4" id="id-75406"></polygon><path d=" M 34,2 L 37,13 L 30,16 L 22,13 C 17,15 13,17 11,19 C 8,21 5,25 1,30 L 33,28 L 40,18 L 35,1 L 34,2 Z" fill="#FCBDAB" id="id-75407"></path><path d=" M 1,31 L 3,33 C 6,35 8,36 8,37 C 13,41 16,44 18,45 C 23,47 32,48 39,46 C 42,45 48,40 53,35 C 54,34 56,32 57,30 L 55,27 L 30,18 L 3,27 L 1,31 Z" fill="url(#id-75356)" id="id-75408"></path><path d=" M 14,30 C 6,32 2,33 3,33 C 11,39 15,42 18,43 C 23,45 33,46 39,44 C 43,43 48,40 55,33 C 55,33 51,32 43,30 C 36,32 32,32 28,32 C 24,32 20,32 14,30 Z" fill="url(#id-75357)" id="id-75408"></path><path d=" M 13,31 C 11,32 11,33 13,34 C 17,35 30,37 31,39 C 32,40 43,35 49,33 C 51,33 49,32 45,31 C 38,33 33,34 29,34 C 26,34 20,33 13,31 Z" fill="#FE7A9E" id="id-75408"></path><path d=" M 3,29 C 11,29 15,29 17,29 C 19,29 20,28 21,28 C 25,29 28,29 29,29 C 32,29 35,28 37,28 C 40,28 46,29 48,29 C 57,29 55,27 55,27 C 49,22 43,18 37,15 C 36,15 33,16 30,18 C 27,17 25,16 22,15 C 15,17 9,21 3,27 L 3,29 Z" fill="url(#id-75358)" id="id-75408"></path><path d=" M 29,25 C 33,25 35,23 38,23 C 39,23 39,27 45,27 C 45,27 47,26 51,24 C 46,20 42,17 37,15 C 35,15 33,16 30,18 C 27,17 25,16 23,15 L 24,22 L 28,19 C 29,23 29,25 29,25 Z" fill="#DF5858" id="id-75408"></path><path d=" M 18,28 C 10,29 7,29 8,29 C 13,29 16,29 17,29 C 19,29 20,28 21,28 C 25,29 28,29 29,29 C 32,29 35,28 37,28 C 40,28 46,29 48,29 C 57,29 55,27 55,27 C 55,27 53,28 50,28 C 47,28 43,28 41,27 C 39,27 38,26 38,24 C 34,26 31,28 29,28 C 26,28 23,27 20,24 L 18,28 Z" fill="#8D1920" id="id-75408"></path></g><g transform=" translate(55,106)" id="id-75414"><polygon points="24 72 25 76 40 76 46 80 53 76 67 75 70 71 69 67 66 61 64 58" fill="url(#id-75359)" id="id-75415"></polygon><path d=" M 18,4 L 35,5 L 46,0 L 57,5 L 83,5 L 55,34 L 64,65 C 40,72 27,74 24,71 C 20,67 28,52 30,35 C 32,24 28,14 18,4 Z" fill="url(#id-75360)" id="id-75416"></path><path d=" M 114,30 L 124,14 L 114,4 L 71,8 L 65,12 C 59,16 54,22 52,30 C 52,34 52,46 52,65 L 62,72 L 67,68 C 66,59 64,61 59,46 C 58,43 57,39 58,34 L 69,40 L 114,30 Z" fill="url(#id-75361)" id="id-75417"></path><path d=" M 25,46 C 31,42 34,38 34,35 C 34,31 33,24 29,10 C 29,9 19,6 0,0 C 9,10 15,17 17,22 C 20,28 23,36 25,46 Z" fill="url(#id-75362)" id="id-75418"></path><path d=" M 34,63 L 26,68 C 26,66 27,64 28,63 C 28,61 30,59 32,57 L 34,63 Z" fill="#F19F74" id="id-75419"></path><path d=" M 58,63 C 58,59 59,57 60,58 C 61,59 63,62 65,66 L 58,63 Z" fill="#F09764" id="id-75420"></path><polygon points="24 72 29 73 40 73 42 76 48 76 51 74 61 74 66 72 67 69 65 66 58 63 31 63 26 67" fill="url(#id-75363)" id="id-75421"></polygon><path d=" M 35,63 L 32,66 C 36,67 39,68 40,68 C 41,69 42,72 43,74 C 44,74 47,74 47,74 C 48,72 50,69 51,68 C 53,67 55,66 59,66 L 57,63 L 52,63 L 35,63 Z" fill="#AF4415" id="id-75422"></path><path d=" M 51,74 L 61,74 C 59,71 58,70 55,70 C 53,70 52,71 51,74 Z" fill="#470F00" id="id-75423"></path><path d=" M 29,73 L 40,73 C 40,72 39,70 36,69 C 34,69 32,70 29,73 Z" fill="#470F00" id="id-75424"></path><path d=" M 52,27 C 50,25 47,25 44,25 C 40,25 38,26 36,30 C 38,34 38,39 38,44 C 38,50 34,58 36,62 C 37,64 40,65 44,65 C 49,65 52,64 53,62 C 55,58 52,50 52,40 C 51,34 51,30 52,27 Z" fill="url(#id-75364)" id="id-75425"></path><path d=" M 52,27 C 50,25 47,25 44,25 C 40,25 38,26 36,30 C 40,35 44,37 46,37 C 48,37 50,34 52,27 Z" fill="#F5B991" id="id-75425"></path><path d=" M 51,62 C 50,61 46,60 38,59 C 36,62 38,64 42,64 C 48,65 52,63 51,62 Z" fill="#FDAD88" id="id-75427"></path><path d=" M 28,44 L 21,70 L 25,72 C 24,69 25,66 26,62 C 27,59 30,51 34,40 L 34,33 L 28,44 Z" fill="url(#id-75365)" id="id-75428"></path></g><g transform=" translate(23,110)" id="id-75429"><path d=" M 7,23 L 0,11 L 3,1 L 41,2 C 45,7 49,12 50,15 C 52,18 53,24 54,31 L 7,23 Z" fill="url(#id-75366)" id="id-75430"></path><polygon points="32 4 28 20 46 23 42 5" fill="url(#id-75367)" id="id-75431"></polygon><path d=" M 8,25 C 15,34 21,39 27,40 C 34,41 43,39 54,35 L 32,21 L 8,25 Z" fill="#FC8C66" id="id-75432"></path><path d=" M 19,27 C 21,30 24,32 30,32 C 35,33 43,33 52,31 C 52,25 47,21 35,19 C 24,18 18,20 19,27 Z" fill="#BEC3D7" id="id-75433"></path><path d=" M 19,29 L 23,30 L 23,27 L 30,24 L 52,29 C 48,22 40,19 29,20 C 17,20 14,23 19,29 Z" fill="#000000" opacity="0.305" id="id-75434"></path><polygon points="49 32 54 35 55 32 50 26" fill="#751F00" id="id-75435"></polygon><path d=" M 53,34 L 36,34 L 22,32 L 15,26 C 17,27 19,29 21,29 C 24,31 27,32 30,32 C 35,33 41,32 49,31 L 53,34 Z" fill="#64422D" id="id-75436"></path><path d=" M 21,29 L 19,24 C 26,21 33,20 39,22 C 45,24 50,27 55,32 C 52,25 46,20 37,18 C 31,17 24,19 15,21 C 14,21 11,22 7,24 L 10,27 L 14,26 L 20,30 L 21,29 Z" fill="#181108" id="id-75437"></path><path d=" M 26,22 C 26,29 29,32 35,32 C 41,32 44,29 45,24 C 41,21 37,19 35,19 C 33,19 30,20 26,22 Z" fill="#161209" id="id-75438"></path><polygon points="31 26 33 26 33 23 29 23 29 25 31 25" fill="#8C8F9E" id="id-75439"></polygon><path d=" M 35,28 C 36,28 38,27 38,27 C 39,27 39,26 40,25 L 43,28 C 42,29 41,30 40,31 C 39,31 38,31 36,31 L 35,28 Z" fill="#6E1D00" id="id-75440"></path></g><g transform=" translate(116,111)" id="id-75441"><path d=" M 9,34 C 13,37 20,39 31,39 C 37,39 46,34 57,25 L 55,22 L 19,20 L 9,34 Z" fill="url(#id-75368)" id="id-75442"></path><polygon points="11 28 0 20 10 5 53 1 61 11 52 23" fill="url(#id-75369)" id="id-75443"></polygon><polygon points="20 21 24 1 32 1 38 21" fill="url(#id-75370)" id="id-75444"></polygon><polygon points="13 32 31 34 41 31 45 28 14 25 10 34" fill="#8E5C40" id="id-75445"></polygon><path d=" M 14,31 C 21,32 27,32 30,32 C 34,32 37,30 40,28 C 48,26 48,23 40,20 C 32,18 23,19 13,24 L 14,31 Z" fill="#CCCCD7" id="id-75446"></path><path d=" M 38,29 L 40,28 C 48,26 48,23 40,20 C 32,18 23,19 13,24 L 13,30 C 18,26 23,24 27,23 C 30,23 34,23 39,24 L 38,29 Z" fill="#000000" opacity="0.305" id="id-75446"></path><polygon points="8 32 9 34 14 31 14 25" fill="#782200" id="id-75448"></polygon><path d=" M 18,24 C 19,29 22,32 28,32 C 34,31 37,28 37,21 C 35,20 31,19 26,19 C 21,20 18,21 18,24 Z" fill="#161209" id="id-75449"></path><path d=" M 35,24 L 32,24 C 32,25 31,26 31,27 C 30,28 29,28 27,29 L 29,31 C 31,31 33,30 34,29 C 35,27 35,26 35,24 Z" fill="#761C00" id="id-75450"></path><polygon points="22 27 24 27 24 26 27 26 27 24 22 24" fill="#987A9E" id="id-75451"></polygon><path d=" M 8,33 C 14,25 20,21 25,20 C 31,20 37,21 43,23 L 40,28 L 45,28 L 48,25 L 52,26 L 55,22 C 51,21 47,20 45,20 C 37,17 30,16 24,18 C 15,19 10,24 8,33 Z" fill="#171208" id="id-75452"></path></g><g transform=" translate(23,101)" id="id-75453"><path d=" M 1,13 L 11,11 L 9,13 L 28,12 L 28,13 L 51,16 L 49,17 L 56,17 L 56,20 L 65,11 L 62,11 L 60,13 L 60,9 L 56,13 L 56,7 L 54,12 L 46,4 C 28,1 18,0 14,1 C 11,2 7,6 1,13 Z" fill="url(#id-75371)" id="id-75454"></path><polygon points="95 12 101 18 109 18 110 16 121 16 124 14 137 13 156 8 143 1 130 2 111 6 104 13 103 9 101 13 97 11" fill="url(#id-75372)" id="id-75455"></polygon></g></g><defs><linearGradient x1="33%" y1="59%" x2="66%" y2="64%" id="id-40035"><stop stop-color="#050E15" offset="0%" stop-opacity="0.810"></stop><stop stop-color="#040D13" offset="11%" stop-opacity="0.379"></stop><stop stop-color="#040D13" offset="19%" stop-opacity="0.151"></stop><stop stop-color="#040D13" offset="28%" stop-opacity="0.329"></stop><stop stop-color="#040B10" offset="41%" stop-opacity="0.741"></stop><stop stop-color="#03090E" offset="59%" stop-opacity="0.740"></stop><stop stop-color="#03080B" offset="70%" stop-opacity="0.221"></stop><stop stop-color="#03070B" offset="79%" stop-opacity="0.133"></stop><stop stop-color="#02070B" offset="89%" stop-opacity="0.332"></stop><stop stop-color="#020609" offset="100%" stop-opacity="0.712"></stop></linearGradient></defs><g transform=" translate(450,1060)" id="id-40036"><path d=" M 315,72 C 331,189 359,253 401,265 C 402,281 403,298 402,314 C 394,426 347,550 347,571 C 347,626 340,674 347,700 L 347,700 L 245,700 C 231,673 238,628 231,601 C 229,568 229,533 228,499 C 228,446 209,336 219,260 C 246,202 278,140 315,72 Z M 86,54 L 194,258 C 194,258 195,269 196,281 C 188,416 173,470 169,554 C 169,578 171,579 171,604 C 166,624 165,646 167,673 L 167,673 L 162,700 L 53,700 C 56,692 58,681 60,667 C 32,461 4,415 0,271 C 40,271 69,199 86,54 L 86,54 Z M 104,605 L 98,619 L 106,655 L 128,654 L 129,633 L 104,605 Z M 122,575 L 115,585 L 110,601 L 127,616 L 122,575 Z M 117,495 L 103,497 L 103,514 L 109,512 L 104,520 L 106,536 L 116,536 L 117,512 L 117,495 Z M 115,420 L 97,423 L 100,480 L 117,471 L 117,446 L 101,445 L 116,432 L 115,420 Z M 305,370 L 305,380 L 332,392 L 307,396 L 311,435 L 347,444 L 347,428 L 329,425 L 347,420 L 347,404 L 347,377 L 305,370 Z M 109,383 L 99,383 L 98,407 L 110,407 L 109,383 Z M 110,346 L 102,350 L 98,375 L 110,369 L 110,346 Z" fill="url(#id-40035)" id="id-40037"></path><path d=" M 77,1 C 77,1 95,31 130,90 L 130,90 L 280,90 C 280,90 297,62 332,6 C 332,6 332,6 332,6 L 332,6 C 332,7 336,13 343,24 C 343,24 344,26 345,30 L 345,30 L 294,118 C 294,118 318,111 365,95 C 365,95 366,99 367,107 C 367,107 367,107 367,107 L 367,107 C 365,108 361,109 355,111 L 354,112 C 341,116 318,124 286,134 C 286,134 268,169 232,240 C 232,240 279,207 373,141 C 373,141 374,144 375,149 C 375,149 323,187 220,264 C 215,265 213,266 204,267 C 199,266 196,265 193,264 C 189,260 187,256 185,251 L 185,251 L 27,161 C 27,161 28,159 29,153 C 29,153 79,181 178,238 C 178,238 159,202 122,129 C 122,129 94,121 40,103 L 40,103 L 40,103 C 40,103 41,98 43,90 C 43,90 67,98 114,114 L 114,114 L 66,28 C 66,28 70,19 77,1 Z M 276,100 C 276,100 276,100 276,100 L 276,100 C 273,100 226,100 136,100 C 136,100 140,109 149,126 C 183,141 222,139 260,129 C 260,129 265,119 276,100 Z" fill="#131415" id="id-40037"></path><g transform=" translate(42,179)" fill="#BFBFBF" fill-opacity="0.193" id="id-40039"><path d=" M 239,132 C 231,134 226,136 226,136 C 224,107 223,92 223,92 L 230,57 C 236,107 239,132 239,132 Z" id="id-40040"></path><path d=" M 232,190 C 242,191 254,193 254,193 C 254,202 254,211 254,218 C 205,401 221,458 221,458 C 210,418 205,379 205,342 C 209,321 230,273 232,190 Z" id="id-40041"></path><path d=" M 44,266 C 29,264 16,262 1,259 C 23,372 39,474 39,474 L 48,413 C 39,391 37,341 44,266 Z" id="id-40042"></path><path d=" M 30,120 C 20,120 3,107 3,107 C 5,84 6,72 6,72 L 16,55 C 18,85 23,107 30,120 Z" id="id-40043"></path><path d=" M 74,118 C 59,100 57,65 57,65 L 61,1 C 100,41 104,80 74,118 Z" id="id-40044"></path></g></g><defs><linearGradient x1="50%" y1="6%" x2="50%" y2="92%" id="id-40193"><stop stop-color="#02E38E" offset="0%"></stop><stop stop-color="#02B38A" offset="75%"></stop><stop stop-color="#029C66" offset="100%"></stop></linearGradient><linearGradient x1="0%" y1="48%" x2="100%" y2="48%" id="id-40194"><stop stop-color="#99E8C3" offset="0%"></stop><stop stop-color="#04B16C" offset="3%"></stop><stop stop-color="#49DAAD" offset="11%"></stop><stop stop-color="#B9FBEA" offset="16%"></stop><stop stop-color="#00985F" offset="24%"></stop><stop stop-color="#009958" offset="75%"></stop><stop stop-color="#BAF7E5" offset="82%"></stop><stop stop-color="#2FC697" offset="87%"></stop><stop stop-color="#05AA7A" offset="95%"></stop><stop stop-color="#C0EFDC" offset="100%"></stop></linearGradient></defs><g transform=" translate(497,803)" id="id-40195"><polygon points="292 103 250 114 158 116 73 114 54 113 26 106 24 91 10 72 1 47 1 37 8 13 39 2 47 4 73 18 116 46 132 58 132 72 135 79 151 84 171 79 174 58 207 32 263 2 268 1 287 7 303 15 309 34 307 58 294 81" fill="url(#id-40193)" id="id-40196"></polygon><polygon points="198 115 158 116 105 115 142 92 151 84 165 90" fill="#0BC082" opacity="0.783" id="id-40196"></polygon><polygon points="110 86 67 99 24 91 10 72 1 47 1 37 5 22 7 47 21 72 36 81 58 86" fill="#0BC372" id="id-40196"></polygon><polygon points="67 99 24 91 10 72 1 47 1 37 5 22 7 47 21 72 29 84" fill="#04E5A1" id="id-40196"></polygon><polygon points="245 97 210 84 258 74 295 56 304 37 302 15 307 34 307 58 293 81" fill="#0BC372" id="id-40196"></polygon><polygon points="295 56 301 37 303 15 309 34 307 58 294 81 272 88" fill="#04E5AE" id="id-40196"></polygon><polygon points="206 41 217 56 249 64 288 42 297 16 269 4 214 33" fill="#15DB99" id="id-40202"></polygon><polygon points="14 14 14 33 36 55 77 53 97 38 45 6" fill="#15DB9C" id="id-40203"></polygon><polygon points="128 79 123 58 85 32 49 10 25 11 5 21 8 13 39 2 47 4 73 18 116 46 132 58 132 63 173 63 172 71 132 71 132 72 135 79 151 84 171 79 174 58 207 32 263 2 268 1 287 7 303 15 305 21 280 10 265 9 212 36 180 59 175 83 153 90 133 84" fill="url(#id-40194)" id="id-40196"></polygon></g><defs><linearGradient x1="54%" y1="55%" x2="47%" y2="53%" id="id-49074"><stop stop-color="#8563AC" offset="0%"></stop><stop stop-color="#D9AEFA" offset="37%"></stop><stop stop-color="#DDBBFF" offset="62%"></stop><stop stop-color="#B48CD4" offset="100%"></stop></linearGradient><linearGradient x1="54%" y1="53%" x2="47%" y2="53%" id="id-49075"><stop stop-color="#B68CD4" offset="0%"></stop><stop stop-color="#DBAEFA" offset="37%"></stop><stop stop-color="#D9BBFF" offset="62%"></stop><stop stop-color="#9270BD" offset="100%"></stop></linearGradient><linearGradient x1="51%" y1="27%" x2="50%" y2="79%" id="id-49076"><stop stop-color="#AB8CD4" offset="0%"></stop><stop stop-color="#B28DD4" offset="55%"></stop><stop stop-color="#9777C2" offset="100%"></stop></linearGradient></defs><g transform=" translate(450,1060)" id="id-49077"><path d=" M 220,264 C 217,293 216,321 217,350 C 223,431 232,512 231,594 C 231,603 233,612 235,623 C 237,636 236,644 236,655 C 236,672 242,685 244,701 C 313,701 347,701 347,701 C 342,682 340,661 344,640 C 346,625 344,610 346,595 C 346,582 346,575 346,575 C 346,567 349,559 351,551 C 375,460 387,414 387,414 C 396,374 404,336 403,304 C 401,268 397,232 390,197 C 385,179 377,160 373,142 C 368,110 365,93 365,93 C 349,47 341,24 341,24 C 335,15 332,11 332,11 C 290,95 270,137 270,137 C 234,215 220,264 220,264 Z" fill="url(#id-49074)" id="id-49078"></path><path d=" M 78,1 C 55,60 43,90 43,90 C 37,117 33,131 33,131 C 30,152 25,172 19,193 C 14,218 9,244 2,272 C 1,289 0,299 0,309 C 13,431 22,455 32,509 C 39,542 49,586 58,666 C 59,681 52,701 52,701 C 125,701 162,701 162,701 C 165,683 167,675 167,675 C 166,652 165,630 171,607 C 170,572 169,555 169,555 C 173,514 175,472 181,433 C 189,376 199,300 194,264 C 178,218 160,174 140,131 C 99,44 78,1 78,1 Z" fill="url(#id-49075)" id="id-49078"></path><path d=" M 18,436 C 65,475 114,515 170,553 C 171,589 172,607 172,607 C 167,621 168,644 167,667 L 38,538 C 24,470 18,436 18,436 Z" fill="#AA89D3" id="id-49080"></path><path d=" M 59,475 C 112,517 138,538 138,538 C 138,604 138,638 138,638 L 77,573 C 65,507 59,475 59,475 Z" fill="#C19FE9" id="id-49081"></path><path d=" M 56,553 L 40,537 C 25,470 18,436 18,436 L 33,449 C 48,518 56,553 56,553 Z" fill="#DDBBFF" id="id-49082"></path><path d=" M 231,557 C 278,521 332,472 384,425 C 384,425 374,463 355,538 C 355,538 316,582 238,670 C 236,660 236,639 234,623 C 228,600 232,577 231,557 Z" fill="#AC8CD4" id="id-49083"></path><path d=" M 261,638 C 300,595 319,573 319,573 C 332,506 338,472 338,472 L 262,540 C 261,605 261,638 261,638 Z" fill="#CE9FE9" id="id-49084"></path><path d=" M 355,538 C 345,548 340,553 340,553 L 363,445 L 384,425 C 365,500 355,538 355,538 Z" fill="#E6BBFF" id="id-49085"></path><path d=" M 78,1 C 78,1 96,31 130,90 L 130,90 L 280,90 C 280,90 297,62 332,6 C 332,6 332,6 332,6 L 332,6 C 332,7 336,13 343,24 C 343,24 344,26 345,30 L 345,30 L 294,118 C 294,118 318,111 365,95 C 365,95 366,99 367,107 C 367,107 367,107 367,107 L 367,107 C 365,108 361,109 355,111 L 354,112 C 341,116 318,124 286,134 C 286,134 268,169 232,240 C 232,240 279,207 373,141 C 373,141 374,144 375,149 C 375,149 323,187 220,264 C 215,265 213,266 204,267 C 199,266 196,265 193,264 C 189,260 187,256 185,251 L 185,251 L 27,161 C 27,161 28,159 29,153 C 29,153 79,181 178,238 C 178,238 159,202 122,129 C 122,129 94,121 40,103 L 40,103 L 40,103 C 40,103 41,98 43,90 C 43,90 67,98 114,114 L 114,114 L 67,28 C 67,28 71,19 78,1 Z M 276,100 C 276,100 276,100 276,100 L 276,100 C 273,100 226,100 136,100 C 136,100 140,109 149,126 C 183,141 222,139 260,129 C 260,129 265,119 276,100 Z" fill="url(#id-49076)" id="id-49086"></path></g><defs><linearGradient x1="50%" y1="3%" x2="49%" y2="69%" id="id-64525"><stop stop-color="#8257AF" offset="0%"></stop><stop stop-color="#8E68BB" offset="29%"></stop><stop stop-color="#926DBE" offset="67%"></stop><stop stop-color="#825FAE" offset="100%"></stop></linearGradient><linearGradient x1="46%" y1="-5%" x2="66%" y2="79%" id="id-64526"><stop stop-color="#A884C9" offset="0%"></stop><stop stop-color="#A683CA" offset="26%"></stop><stop stop-color="#D5BAF5" offset="53%"></stop><stop stop-color="#A481CB" offset="70%"></stop><stop stop-color="#A280CC" offset="100%"></stop></linearGradient><linearGradient x1="50%" y1="44%" x2="50%" y2="72%" id="id-64527"><stop stop-color="#F0D9FF" offset="0%"></stop><stop stop-color="#FFFFFF" offset="53%"></stop><stop stop-color="#DEC1FF" offset="100%"></stop></linearGradient><linearGradient x1="46%" y1="47%" x2="50%" y2="54%" id="id-64528"><stop stop-color="#E9D3FD" offset="0%"></stop><stop stop-color="#C0A3E6" offset="100%"></stop></linearGradient><linearGradient x1="50%" y1="5%" x2="50%" y2="82%" id="id-64529"><stop stop-color="#B597DC" offset="0%"></stop><stop stop-color="#C6A6F1" offset="56%"></stop><stop stop-color="#926DBF" offset="73%"></stop><stop stop-color="#CBAEED" offset="100%"></stop></linearGradient><linearGradient x1="50%" y1="4%" x2="51%" y2="83%" id="id-64530"><stop stop-color="#BFA2E5" offset="0%"></stop><stop stop-color="#B797DD" offset="47%"></stop><stop stop-color="#A17ECA" offset="80%"></stop><stop stop-color="#C4A7E7" offset="100%"></stop></linearGradient><linearGradient x1="50%" y1="59%" x2="50%" y2="95%" id="id-64531"><stop stop-color="#E0C3FF" offset="0%"></stop><stop stop-color="#B58FE0" offset="40%"></stop><stop stop-color="#DBBDFF" offset="100%"></stop></linearGradient><linearGradient x1="50%" y1="0%" x2="50%" y2="100%" id="id-64532"><stop stop-color="#EFE0FF" offset="0%"></stop><stop stop-color="#BF9FE6" offset="100%"></stop></linearGradient><linearGradient x1="50%" y1="0%" x2="75%" y2="54%" id="id-64533"><stop stop-color="#C5A7E7" offset="0%"></stop><stop stop-color="#D7BEF1" offset="100%"></stop></linearGradient><linearGradient x1="84%" y1="41%" x2="0%" y2="60%" id="id-64534"><stop stop-color="#C8ADEA" offset="0%"></stop><stop stop-color="#F1DAFD" offset="100%"></stop></linearGradient></defs><g transform=" translate(463,323)" id="id-64535"><path d=" M 113,141 C 109,132 104,115 99,90 L 106,56 L 88,42 L 84,34 L 81,42 C 78,60 76,79 75,96 C 70,225 75,273 88,344 C 86,386 73,424 51,459 L 29,470 L 29,563 L 21,600 C 17,559 14,518 13,477 C 13,349 16,295 21,220 C 34,148 51,87 70,37 L 102,2 L 111,0 L 139,20 L 198,41 L 257,20 L 283,0 L 293,2 L 324,42 L 358,141 L 372,213 C 377,300 381,389 382,479 C 379,536 376,560 374,599 C 372,592 370,580 365,563 C 367,538 369,519 372,505 C 368,488 358,474 343,464 L 304,370 L 304,337 C 310,306 315,269 319,227 C 322,185 323,141 320,96 L 313,44 L 310,34 L 306,42 L 288,56 C 290,67 293,78 296,88 C 294,103 289,121 282,141 L 283,123 L 271,106 C 271,94 268,81 260,66 C 242,55 221,49 198,49 C 175,53 154,59 134,67 C 129,77 123,88 123,106 C 118,113 116,113 111,124 C 111,132 113,133 113,141 Z" fill="url(#id-64525)" id="id-64536"></path><polygon points="265 78 279 66 269 88 271 106 276 112 289 84 281 95 288 74 285 54 276 44 270 65 270 56 267 31 261 25 243 32 259 66 260 66" fill="url(#id-64526)" id="id-64537"></polygon><path d=" M 210,4 L 252,17 L 261,25 L 245,37 L 247,38 L 267,31 L 269,34 L 270,57 L 262,59 L 251,47 L 259,66 C 270,130 274,187 273,239 C 261,299 260,342 270,365 C 261,350 254,336 249,321 C 254,298 262,279 267,251 C 269,219 267,184 261,147 C 261,176 260,196 259,206 C 257,141 251,92 240,59 L 198,49 L 172,55 C 157,124 148,170 146,194 C 144,197 152,128 164,67 C 139,155 130,214 133,270 C 135,296 145,327 149,356 C 140,383 130,403 121,419 C 141,368 132,322 126,253 C 127,188 135,124 149,62 L 145,63 L 124,56 L 126,33 L 143,16 L 184,4 L 197,9 L 198,9 L 210,4 Z" fill="url(#id-64527)" id="id-64538"></path><path d=" M 137,19 L 114,42 L 110,42 L 110,27 L 87,37 C 90,30 93,24 95,21 L 137,19 Z" fill="#C0A3E6" id="id-64539"></path><path d=" M 107,1 C 102,8 98,14 94,22 C 101,25 113,27 130,26 L 137,19 L 133,15 L 120,19 L 119,7 C 104,21 100,19 107,1 Z" fill="#EAD2FD" id="id-64540"></path><path d=" M 143,16 L 159,24 C 158,19 159,15 163,12 C 171,13 175,17 178,22 L 184,4 L 143,16 Z" fill="#FFF4FF" id="id-64541"></path><path d=" M 210,4 C 217,6 231,10 252,17 L 229,28 C 229,17 229,12 228,13 C 216,18 216,26 227,37 L 212,42 L 210,46 C 207,46 205,46 203,45 C 226,41 213,13 210,4 Z" fill="#FFF3FF" id="id-64542"></path><path d=" M 282,42 L 279,42 L 257,20 L 263,16 C 269,18 273,19 274,18 C 274,17 275,14 275,8 C 283,13 288,16 289,15 C 290,14 290,9 287,1 L 309,36 L 307,40 L 302,35 L 287,40 L 277,12 L 282,42 Z" fill="url(#id-64528)" id="id-64543"></path><polygon points="262 22 269 31 276 26 275 19" fill="#FCF0FF" id="id-64544"></polygon><path d=" M 285,36 C 288,30 293,26 301,24 C 300,21 298,18 296,15 L 278,17 L 285,36 Z" fill="#FFF3FF" id="id-64545"></path><polygon points="264 8 261 13 275 39 279 42" fill="#FF0000" id="id-64546"></polygon><polygon points="272 2 269 5 308 43 309 40" fill="#FF0000" id="id-64547"></polygon><path d=" M 123,106 C 121,108 120,110 118,112 L 105,84 L 117,101 L 106,74 L 110,53 L 118,44 L 124,65 L 124,56 L 145,63 L 134,67 L 129,78 L 115,67 C 122,80 126,87 126,88 C 124,94 123,100 123,106 Z" fill="#C4A7E7" id="id-64548"></path><path d=" M 102,2 C 99,2 95,1 90,1 L 66,14 C 54,48 44,92 36,146 C 31,201 23,267 14,346 C -3,436 -4,519 11,595 C 9,533 11,474 17,419 L 29,563 L 36,484 L 38,529 C 60,430 72,363 75,328 C 81,366 63,419 50,473 C 56,457 71,420 94,362 L 77,270 L 77,328 C 69,276 65,202 66,107 C 64,111 61,122 56,141 L 56,124 L 71,43 C 87,26 97,12 102,2 Z" fill="url(#id-64529)" id="id-64549"></path><path d=" M 77,328 L 75,388 L 84,363 L 88,373 C 90,372 91,360 90,337 C 88,344 86,347 84,345 C 83,342 81,336 77,328 Z" fill="#C5A7ED" id="id-64550"></path><path d=" M 293,2 L 305,0 L 328,13 L 348,91 L 358,141 C 371,234 379,300 382,339 C 400,457 389,531 383,597 C 376,568 374,447 376,406 C 364,456 378,506 366,568 C 363,555 360,543 360,531 L 358,486 L 357,530 L 344,472 C 333,442 325,413 319,382 C 310,337 327,280 328,107 L 338,141 L 323,42 L 293,2 Z" fill="url(#id-64530)" id="id-64551"></path><path d=" M 65,135 L 60,312 L 52,203 L 51,468 L 45,496 C 38,465 34,428 33,386 C 34,356 36,281 40,159 C 34,230 30,290 28,339 C 27,342 18,386 0,474 C 10,370 17,298 21,260 C 27,203 27,187 35,142 C 49,64 56,47 66,13 C 73,8 81,4 90,1 L 92,1 L 70,23 L 68,18 L 56,124 L 54,164 L 65,135 Z" fill="url(#id-64531)" id="id-64552"></path><path d=" M 33,243 C 33,252 32,270 30,296 C 27,294 22,298 16,307 C 16,300 18,284 21,257 C 25,263 29,259 33,243 Z" fill="#F8E8FF" id="id-64553"></path><path d=" M 38,223 C 36,267 36,296 36,307 C 37,299 43,289 52,276 L 52,215 C 49,234 46,245 42,247 C 40,246 39,238 38,223 Z" fill="#F3E2FF" id="id-64554"></path><polygon points="334 312 331 205 331 136 340 164 336 60 326 19 324 25 301 1 305 0 328 13 358 141 379 303 363 361 363 256 357 178 360 384 349 495 343 464 343 202" fill="url(#id-64532)" id="id-64555"></polygon><polygon points="331 149 341 183 338 253 331 208" fill="#F3E3FF" id="id-64556"></polygon><path d=" M 343,276 C 348,281 353,292 359,308 L 357,220 C 356,232 354,241 353,247 C 350,247 347,238 343,220 C 343,246 343,265 343,276 Z" fill="#F1E0FF" id="id-64557"></path><path d=" M 374,259 C 369,261 365,257 362,246 C 362,255 363,283 363,297 C 367,292 372,294 379,303 L 374,259 Z" fill="#F8E8FF" id="id-64558"></path><path d=" M 310,363 C 312,368 315,374 319,382 C 317,371 316,353 317,329 C 315,333 310,346 308,346 C 307,347 306,344 304,337 C 302,351 301,360 302,364 C 304,371 306,381 310,363 Z" fill="#C7A9EF" id="id-64559"></path><polygon points="83 36 85 40 116 10 99 54 104 56 122 4 119 1" fill="#FF0004" id="id-64560"></polygon><polygon points="276 45 273 55 282 52" fill="#E3CCF6" id="id-64561"></polygon><polygon points="337 103 334 60 325 18 329 13 357 123 364 186 357 181 341 80" fill="#F3E2FF" id="id-64562"></polygon><polygon points="183 31 197 40 207 33 197 27 203 23 197 20 208 13 204 7 183 15 195 19 195 31" fill="#AF8DD6" id="id-64563"></polygon><polygon points="227 49 224 50 238 54 235 49" fill="#FCECFE" id="id-64564"></polygon><polygon points="224 48 235 49 242 65 237 45" fill="url(#id-64533)" id="id-64565"></polygon><polygon points="209 47 241 39 211 42" fill="#C3A8E7" id="id-64566"></polygon><polygon points="169 55 175 47 186 46 173 43" fill="url(#id-64534)" id="id-64567"></polygon><polygon points="165 36 201 45 198 40" fill="#C3A8E7" id="id-64568"></polygon><polygon points="142 60 152 57 162 38" fill="#C4A7E7" id="id-64569"></polygon><path d=" M 317,330 C 316,345 316,359 317,372 C 319,386 321,396 323,402 L 317,330 Z" fill="#7046A1" id="id-64570"></path><path d=" M 357,205 C 360,224 362,238 362,246 C 363,259 362,284 359,321 L 357,205 Z" fill="#7046A1" id="id-64570"></path><polygon points="343 201 341 230 341 266 343 231" fill="#8665B6" id="id-64572"></polygon><polygon points="64 158 51 189 56 254 63 218" fill="#F5E4FF" id="id-64573"></polygon><polygon points="66 13 45 80 31 167 39 164 49 80 62 42 62 73 68 18" fill="#F1E0FF" id="id-64574"></polygon></g><defs></defs><g transform=" translate(570,421)" id="id-68470"><path d=" M 15,67 L 15,71 L 31,83 L 66,85 L 75,81 L 74,77 L 83,67 L 97,65 C 97,65 112,85 117,86 C 121,87 157,81 164,82 L 173,65 L 162,66 L 150,78 L 118,81 L 97,56 L 77,64 L 66,80 C 66,80 37,82 15,67 Z" fill="#000000" opacity="0.300" id="id-68471"></path><path d=" M 170,37 C 170,42 168,60 168,60 L 145,81 L 114,81 L 98,58 L 83,58 L 65,82 L 33,80 L 13,62 L 13,18 C 41,0 139,-3 168,19 C 168,19 170,31 170,37 Z" fill="#63D080" opacity="0.460" id="id-68471"></path><path d=" M 38,10 L 37,27 C 48,16 133,15 145,24 L 145,9 C 145,9 80,-4 38,10 Z" fill="#3C1417" opacity="0.600" id="id-68471"></path><path d=" M 37,59 L 37,79 L 66,81 L 83,59 L 100,60 L 119,80 L 144,78 L 146,57 C 99,83 122,61 98,50 C 88,49 78,48 71,66 C 66,76 48,63 37,59 Z" fill="#3C1417" opacity="0.600" id="id-68471"></path><path d=" M 177,55 L 184,52 L 183,26 L 178,26 L 178,22 L 180,21 C 163,-7 19,-5 2,22 L 4,23 L 4,26 L 0,26 L 2,57 L 6,56 L 6,59 C 6,60 6,60 5,61 C 5,61 10,68 10,68 L 17,69 C 17,69 28,80 30,81 C 32,82 63,85 65,84 C 68,84 82,65 82,65 L 99,64 C 99,64 113,83 116,84 C 118,86 153,81 153,81 L 166,68 L 173,67 C 173,67 180,60 177,59 L 177,55 Z M 9,57 L 9,56 L 10,56 L 10,25 L 7,26 L 7,24 C 7,24 10,24 10,25 C 10,25 10,47 11,57 C 11,57 10,58 9,57 Z M 167,59 C 165,61 156,69 147,74 C 146,75 138,76 120,77 C 119,77 118,77 118,76 C 112,69 106,62 102,53 C 99,51 87,50 81,53 C 80,54 65,79 63,77 C 36,76 34,77 17,60 C 15,58 15,53 14,40 C 14,24 14,22 21,16 C 39,5 136,2 159,15 C 167,19 168,24 168,30 C 168,36 168,57 167,59 L 167,59 Z M 172,58 L 172,46 L 172,57 L 174,56 C 174,56 174,58 172,58 L 172,58 Z M 173,26 L 172,46 L 172,25 C 173,24 174,24 175,24 L 175,26 C 174,25 174,25 173,26 L 173,26 Z" fill="#151514" id="id-68475" fill-rule="nonzero"></path><path d=" M 128,11 L 153,20 C 153,20 154,64 149,70 L 128,73 L 128,11 Z" fill="#D1CDC2" opacity="0.580" id="id-68471"></path><path d=" M 35,16 C 38,14 56,12 56,12 L 65,73 L 36,71 C 31,60 35,16 35,16 Z" fill="#D1CDC2" opacity="0.580" id="id-68471"></path></g><defs></defs><path d=" M 1202,1685 C 1201,1683 1198,1681 1197,1679 C 1196,1678 1196,1676 1196,1675 C 1196,1674 1194,1672 1193,1671 C 1193,1670 1192,1669 1192,1668 C 1192,1667 1195,1666 1196,1665 C 1198,1663 1200,1661 1202,1658 C 1207,1649 1216,1643 1226,1641 C 1240,1638 1254,1644 1263,1655 C 1264,1657 1266,1660 1265,1663 C 1265,1664 1263,1665 1263,1666 C 1263,1667 1265,1669 1266,1670 C 1271,1673 1269,1673 1270,1678 C 1270,1682 1274,1681 1274,1685 L 1274,1685 L 1274,1686 C 1274,1686 1274,1686 1274,1686 C 1273,1688 1271,1688 1270,1689 C 1268,1691 1267,1692 1266,1694 C 1263,1698 1261,1700 1258,1704 C 1242,1719 1214,1716 1202,1696 C 1201,1695 1199,1691 1200,1689 C 1201,1688 1202,1688 1202,1685 L 1202,1685 Z M 1268,1685 C 1267,1682 1265,1682 1264,1679 C 1264,1678 1264,1677 1264,1676 C 1264,1675 1264,1674 1264,1674 C 1264,1673 1263,1672 1262,1672 C 1260,1670 1256,1669 1258,1665 C 1259,1662 1261,1662 1258,1658 C 1246,1643 1223,1641 1210,1656 C 1209,1658 1208,1659 1207,1661 C 1205,1663 1202,1665 1200,1667 C 1197,1669 1197,1669 1200,1671 C 1203,1675 1201,1676 1203,1679 C 1204,1681 1207,1682 1208,1685 L 1208,1685 L 1208,1685 C 1207,1690 1203,1688 1207,1694 C 1216,1706 1232,1711 1246,1705 C 1249,1704 1252,1702 1255,1699 C 1257,1697 1259,1694 1261,1691 C 1263,1689 1267,1687 1268,1685 L 1268,1685 Z M 1254,1685 C 1254,1682 1252,1682 1252,1680 C 1251,1677 1251,1673 1255,1674 C 1258,1675 1256,1678 1258,1680 C 1259,1682 1260,1682 1260,1685 L 1261,1686 L 1260,1686 C 1259,1688 1257,1689 1255,1690 C 1248,1694 1246,1699 1237,1700 C 1231,1701 1225,1700 1221,1697 C 1219,1696 1216,1694 1215,1692 C 1213,1689 1216,1688 1216,1685 C 1215,1683 1212,1682 1211,1680 C 1208,1677 1210,1673 1214,1674 L 1214,1674 L 1215,1675 C 1216,1678 1215,1679 1217,1681 C 1219,1682 1222,1683 1222,1686 C 1222,1689 1220,1690 1224,1692 C 1230,1696 1238,1695 1244,1691 C 1246,1690 1253,1687 1254,1685 L 1254,1685 Z M 1244,1674 C 1242,1675 1239,1674 1237,1673 C 1236,1672 1233,1670 1232,1669 C 1231,1669 1231,1668 1231,1667 C 1231,1666 1233,1665 1234,1664 C 1235,1662 1237,1661 1238,1659 C 1242,1652 1249,1658 1247,1663 C 1246,1665 1243,1666 1243,1668 C 1243,1670 1246,1671 1244,1674 L 1244,1674 L 1244,1674 L 1244,1674 Z M 1222,1656 C 1224,1655 1227,1656 1228,1659 C 1229,1660 1229,1661 1229,1663 C 1228,1665 1223,1666 1225,1669 C 1225,1670 1226,1670 1226,1671 C 1227,1674 1226,1675 1223,1675 C 1222,1675 1219,1673 1218,1672 C 1216,1671 1212,1669 1214,1666 C 1215,1664 1217,1664 1218,1662 C 1219,1660 1220,1658 1222,1656 L 1222,1656 Z" fill="#343D53" opacity="0.297" id="id-77051"></path></svg>