<?xml version="1.0" encoding="UTF-8"?><svg width="1320px" height="1760px" viewBox="0 0 1320 1760" version="1.1" xmlns="http://www.w3.org/2000/svg" xmlns:xlink="http://www.w3.org/1999/xlink"><defs><linearGradient x1="50%" y1="7%" x2="50%" y2="83%" id="id-30075"><stop stop-color="#1D7C46" offset="0%"></stop><stop stop-color="#151917" offset="100%"></stop></linearGradient></defs><g stroke="none" stroke-width="1" fill="none" id="id-30076" fill-rule="evenodd"><g id="id-30077"><rect fill="#242B27" width="1320" height="1760" x="0" y="0" id="id-30078"></rect><rect stroke="#00FF6F" stroke-width="26" fill="#242B27" width="1219" height="1644" x="51" y="58" id="id-30078"></rect><rect stroke="#00FF6F" stroke-width="53" fill="url(#id-30075)" width="1145" height="1572" x="89" y="94" id="id-30078" rx="107"></rect></g></g><defs></defs><g transform=" translate(547,542)" id="id-110022"><path d=" M 0,40 C -3,33 20,15 30,3 C 50,3 60,3 60,3 C 58,24 57,34 57,34 C 45,43 39,47 39,47 L 11,62 L 0,40 Z" fill="#3D207A" id="id-110023"></path><path d=" M 191,45 L 177,0 C 192,0 199,0 199,0 C 204,11 216,23 233,35 C 229,50 219,67 208,84 L 191,45 Z" fill="#4E299C" id="id-110024"></path><path d=" M 179,5 C 189,5 195,5 195,5 L 205,18 C 204,27 199,36 191,45 L 186,27 C 181,12 179,5 179,5 Z" fill="#1E0F39" id="id-110025"></path><path d=" M 59,9 C 41,9 32,9 32,9 L 23,27 C 26,34 31,41 39,47 L 57,34 C 58,18 59,9 59,9 Z" fill="#1E0F39" id="id-110026"></path></g><defs><linearGradient x1="50%" y1="6%" x2="50%" y2="100%" id="id-110679"><stop stop-color="#6F4A3F" offset="0%"></stop><stop stop-color="#45191D" offset="8%"></stop><stop stop-color="#54241C" offset="20%"></stop><stop stop-color="#35100A" offset="34%"></stop><stop stop-color="#4C1B14" offset="71%"></stop><stop stop-color="#602521" offset="100%"></stop></linearGradient><linearGradient x1="50%" y1="-10%" x2="50%" y2="84%" id="id-110680"><stop stop-color="#270702" offset="0%"></stop><stop stop-color="#4D190D" offset="49%"></stop><stop stop-color="#48150A" offset="100%"></stop></linearGradient><linearGradient x1="57%" y1="50%" x2="47%" y2="56%" id="id-110681"><stop stop-color="#290805" offset="0%"></stop><stop stop-color="#2C0303" offset="100%"></stop></linearGradient><linearGradient x1="45%" y1="35%" x2="55%" y2="47%" id="id-110682"><stop stop-color="#4B1B14" offset="0%"></stop><stop stop-color="#2D0303" offset="100%"></stop></linearGradient><linearGradient x1="54%" y1="31%" x2="47%" y2="81%" id="id-110683"><stop stop-color="#451A11" offset="0%"></stop><stop stop-color="#320D07" offset="19%"></stop><stop stop-color="#370404" offset="71%"></stop><stop stop-color="#340505" offset="81%"></stop><stop stop-color="#220000" offset="100%"></stop></linearGradient><linearGradient x1="43%" y1="38%" x2="54%" y2="44%" id="id-110684"><stop stop-color="#2E0A04" offset="0%"></stop><stop stop-color="#270701" offset="100%"></stop></linearGradient><linearGradient x1="46%" y1="8%" x2="58%" y2="82%" id="id-110685"><stop stop-color="#4D1E18" offset="0%"></stop><stop stop-color="#36100D" offset="100%"></stop></linearGradient><linearGradient x1="50%" y1="41%" x2="49%" y2="66%" id="id-110686"><stop stop-color="#592D1F" offset="0%"></stop><stop stop-color="#480A09" offset="27%"></stop><stop stop-color="#2F0B06" offset="100%"></stop></linearGradient><linearGradient x1="63%" y1="4%" x2="25%" y2="77%" id="id-110687"><stop stop-color="#5A1821" offset="0%"></stop><stop stop-color="#63271A" offset="55%"></stop><stop stop-color="#3F1007" offset="100%"></stop></linearGradient><linearGradient x1="50%" y1="23%" x2="41%" y2="77%" id="id-110688"><stop stop-color="#2C0C04" offset="0%"></stop><stop stop-color="#190501" offset="100%"></stop></linearGradient><linearGradient x1="47%" y1="22%" x2="55%" y2="89%" id="id-110689"><stop stop-color="#4A2318" offset="0%"></stop><stop stop-color="#481F15" offset="100%"></stop></linearGradient><linearGradient x1="86%" y1="87%" x2="12%" y2="66%" id="id-110690"><stop stop-color="#220401" offset="0%"></stop><stop stop-color="#2C0903" offset="100%"></stop></linearGradient><linearGradient x1="71%" y1="11%" x2="50%" y2="100%" id="id-110691"><stop stop-color="#320A06" offset="0%"></stop><stop stop-color="#48160A" offset="100%"></stop></linearGradient><linearGradient x1="66%" y1="46%" x2="56%" y2="43%" id="id-110692"><stop stop-color="#1A0002" offset="0%"></stop><stop stop-color="#140000" offset="100%"></stop></linearGradient><linearGradient x1="100%" y1="41%" x2="50%" y2="63%" id="id-110693"><stop stop-color="#130000" offset="0%"></stop><stop stop-color="#120000" offset="100%"></stop></linearGradient><linearGradient x1="69%" y1="20%" x2="50%" y2="100%" id="id-110694"><stop stop-color="#2F0A04" offset="0%"></stop><stop stop-color="#1E0200" offset="100%"></stop></linearGradient><linearGradient x1="36%" y1="20%" x2="57%" y2="81%" id="id-110695"><stop stop-color="#59243C" offset="0%"></stop><stop stop-color="#4B191E" offset="100%"></stop></linearGradient><linearGradient x1="46%" y1="67%" x2="92%" y2="50%" id="id-110696"><stop stop-color="#47120E" offset="0%"></stop><stop stop-color="#525767" offset="100%" stop-opacity="0.348"></stop></linearGradient><linearGradient x1="17%" y1="24%" x2="78%" y2="69%" id="id-110697"><stop stop-color="#6C3328" offset="0%"></stop><stop stop-color="#3A140E" offset="100%"></stop></linearGradient><linearGradient x1="26%" y1="42%" x2="80%" y2="75%" id="id-110698"><stop stop-color="#662620" offset="0%"></stop><stop stop-color="#6D6172" offset="100%" stop-opacity="0.068"></stop></linearGradient><linearGradient x1="29%" y1="56%" x2="77%" y2="50%" id="id-110699"><stop stop-color="#622121" offset="0%"></stop><stop stop-color="#61474D" offset="100%" stop-opacity="0.449"></stop></linearGradient><linearGradient x1="74%" y1="24%" x2="34%" y2="74%" id="id-110700"><stop stop-color="#5D3325" offset="0%"></stop><stop stop-color="#46140A" offset="100%"></stop></linearGradient><linearGradient x1="66%" y1="100%" x2="40%" y2="0%" id="id-110701"><stop stop-color="#3B0710" offset="0%"></stop><stop stop-color="#70253E" offset="45%"></stop><stop stop-color="#45130B" offset="100%"></stop></linearGradient><linearGradient x1="52%" y1="13%" x2="59%" y2="75%" id="id-110702"><stop stop-color="#3F0F09" offset="0%"></stop><stop stop-color="#642A26" offset="100%"></stop></linearGradient><linearGradient x1="28%" y1="76%" x2="73%" y2="20%" id="id-110703"><stop stop-color="#5E1D14" offset="0%"></stop><stop stop-color="#470F09" offset="67%"></stop><stop stop-color="#45130D" offset="100%"></stop></linearGradient><linearGradient x1="66%" y1="59%" x2="24%" y2="66%" id="id-110704"><stop stop-color="#230401" offset="0%"></stop><stop stop-color="#400F07" offset="100%"></stop></linearGradient><linearGradient x1="41%" y1="11%" x2="61%" y2="81%" id="id-110705"><stop stop-color="#541E13" offset="0%"></stop><stop stop-color="#43130B" offset="100%"></stop></linearGradient><linearGradient x1="19%" y1="58%" x2="66%" y2="43%" id="id-110706"><stop stop-color="#602617" offset="0%"></stop><stop stop-color="#46140A" offset="100%"></stop></linearGradient><linearGradient x1="73%" y1="50%" x2="30%" y2="53%" id="id-110707"><stop stop-color="#591531" offset="0%"></stop><stop stop-color="#853542" offset="100%"></stop></linearGradient><linearGradient x1="31%" y1="0%" x2="50%" y2="100%" id="id-110708"><stop stop-color="#6A2C21" offset="0%"></stop><stop stop-color="#61261C" offset="100%"></stop></linearGradient><linearGradient x1="29%" y1="43%" x2="65%" y2="100%" id="id-110709"><stop stop-color="#5F1C26" offset="0%"></stop><stop stop-color="#4E1715" offset="100%"></stop></linearGradient><linearGradient x1="13%" y1="78%" x2="84%" y2="50%" id="id-110710"><stop stop-color="#360808" offset="0%"></stop><stop stop-color="#230401" offset="100%"></stop></linearGradient><linearGradient x1="50%" y1="0%" x2="36%" y2="100%" id="id-110711"><stop stop-color="#61173B" offset="0%"></stop><stop stop-color="#581F13" offset="100%"></stop></linearGradient><linearGradient x1="50%" y1="28%" x2="64%" y2="55%" id="id-110712"><stop stop-color="#501021" offset="0%"></stop><stop stop-color="#571626" offset="100%"></stop></linearGradient><linearGradient x1="40%" y1="55%" x2="62%" y2="71%" id="id-110713"><stop stop-color="#421209" offset="0%"></stop><stop stop-color="#39090A" offset="100%"></stop></linearGradient><linearGradient x1="9%" y1="37%" x2="88%" y2="55%" id="id-110714"><stop stop-color="#1F0301" offset="0%"></stop><stop stop-color="#150000" offset="100%"></stop></linearGradient><linearGradient x1="62%" y1="19%" x2="50%" y2="100%" id="id-110715"><stop stop-color="#47140A" offset="0%"></stop><stop stop-color="#220301" offset="100%"></stop></linearGradient><linearGradient x1="45%" y1="18%" x2="51%" y2="67%" id="id-110716"><stop stop-color="#6C2E20" offset="0%"></stop><stop stop-color="#46140A" offset="100%"></stop></linearGradient><linearGradient x1="50%" y1="0%" x2="50%" y2="100%" id="id-110717"><stop stop-color="#6A2B1E" offset="0%"></stop><stop stop-color="#45130A" offset="100%"></stop></linearGradient><linearGradient x1="45%" y1="50%" x2="58%" y2="50%" id="id-110718"><stop stop-color="#220401" offset="0%"></stop><stop stop-color="#40140B" offset="100%"></stop></linearGradient><linearGradient x1="33%" y1="74%" x2="77%" y2="42%" id="id-110719"><stop stop-color="#43140C" offset="0%"></stop><stop stop-color="#551E11" offset="100%"></stop></linearGradient><linearGradient x1="63%" y1="59%" x2="38%" y2="59%" id="id-110720"><stop stop-color="#551810" offset="0%"></stop><stop stop-color="#5E2517" offset="100%"></stop></linearGradient><linearGradient x1="50%" y1="0%" x2="50%" y2="100%" id="id-110721"><stop stop-color="#512418" offset="0%"></stop><stop stop-color="#3F0F0D" offset="100%"></stop></linearGradient><linearGradient x1="47%" y1="47%" x2="53%" y2="50%" id="id-110722"><stop stop-color="#5B291F" offset="0%"></stop><stop stop-color="#42120D" offset="100%"></stop></linearGradient><linearGradient x1="50%" y1="0%" x2="50%" y2="100%" id="id-110723"><stop stop-color="#350B08" offset="0%"></stop><stop stop-color="#320706" offset="100%"></stop></linearGradient><linearGradient x1="50%" y1="0%" x2="50%" y2="100%" id="id-110724"><stop stop-color="#732A2A" offset="0%"></stop><stop stop-color="#482115" offset="100%"></stop></linearGradient><linearGradient x1="0%" y1="55%" x2="100%" y2="55%" id="id-110725"><stop stop-color="#4E1513" offset="0%"></stop><stop stop-color="#2E0705" offset="100%"></stop></linearGradient><linearGradient x1="50%" y1="0%" x2="50%" y2="100%" id="id-110726"><stop stop-color="#5F251C" offset="0%"></stop><stop stop-color="#3E0D0A" offset="100%"></stop></linearGradient><linearGradient x1="49%" y1="20%" x2="52%" y2="96%" id="id-110727"><stop stop-color="#441410" offset="0%"></stop><stop stop-color="#3A0F0B" offset="100%"></stop></linearGradient><linearGradient x1="33%" y1="47%" x2="59%" y2="56%" id="id-110728"><stop stop-color="#3F150C" offset="0%"></stop><stop stop-color="#2B0605" offset="100%"></stop></linearGradient></defs><g transform=" translate(304,473)" id="id-110729"><polygon points="174 662 139 824 137 906 146 1082 171 1154 176 1211 174 1230 175 1284 287 1284 284 1265 308 1195 306 1124 345 952 343 912 353 879 362 881 371 877 383 904 391 970 434 1079 457 1202 475 1252 475 1284 596 1284 600 1225 591 1146 609 1103 612 997 596 842 545 671 539 640 528 606 531 569 509 498 522 403 539 360 539 348 563 464 576 498 585 574 637 704 646 760 646 778 626 822 624 853 631 879 629 901 632 920 637 931 647 931 657 920 655 877 659 867 670 874 672 899 676 903 667 923 644 934 643 945 666 939 664 948 643 960 640 982 657 971 674 969 690 945 701 933 704 926 707 923 713 892 718 871 704 832 696 786 703 768 693 725 693 521 652 425 629 282 626 203 612 175 567 156 548 141 530 139 479 114 422 73 416 42 415 1 285 0 284 73 279 83 242 114 196 137 171 139 155 156 108 175 91 228 91 287 68 431 30 516 23 602 28 725 16 764 21 782 0 874 18 932 49 968 59 970 83 982 83 965 78 960 57 949 55 941 78 948 78 936 66 929 53 923 45 906 51 875 61 866 66 877 63 922 75 927 86 925 93 899 90 877 96 856 96 824 75 778 77 738 108 637 139 562 142 495 159 458 180 358 199 403 203 461 211 504 188 564 191 608" fill="url(#id-110679)" id="id-110730"></polygon><polygon points="91 287 68 431 30 516 23 602 72 688 117 614 98 452 109 469 123 336 102 372 109 294 88 309 109 285" fill="url(#id-110680)" id="id-110730"></polygon><polygon points="383 906 391 972 434 1081 457 1204 475 1254 475 1287 596 1287 600 1226 591 1148 609 1105 612 999 602 904 584 908 584 846 535 683 456 705 382 878" fill="url(#id-110681)" id="id-110730"></polygon><polygon points="137 907 146 1083 171 1156 176 1212 174 1232 175 1286 175 1287 287 1287 284 1266 308 1197 306 1126 345 954 343 923 293 814 263 724 247 711" fill="url(#id-110682)" id="id-110730"></polygon><polygon points="545 671 539 639 528 606 531 569 509 498 522 403 539 359 539 348 563 463 576 498 601 538 660 489 688 527 652 425 629 281 626 203 612 175 568 155 548 140 530 139 479 114 422 73 416 42 415 1 360 1 360 713 462 722" fill="url(#id-110683)" id="id-110730"></polygon><polygon points="83 984 59 972 49 970 21 932 19 903 7 879 0 874 11 824 38 786 38 814 56 786 78 800 91 822 83 879 69 882 63 855 51 877 45 908 47 930 37 930 50 938 53 954 49 960 56 956 83 973" fill="#5F1F13" id="id-110735"></polygon><polygon points="66 855 69 882 63 855 51 877 45 908 42 870 58 825" fill="url(#id-110684)" id="id-110735"></polygon><polygon points="83 879 69 882 70 868" fill="#6C2A1B" id="id-110735"></polygon><polygon points="481 376 513 349 558 291 522 368" fill="#410721" id="id-110738"></polygon><polygon points="313 697 260 560 246 448 259 424 355 408 361 366 317 404 285 409 267 378 313 343 394 351 431 378 420 404 368 399 371 404 449 421 466 441 449 510 466 547 406 697 358 717" fill="url(#id-110685)" id="id-110739"></polygon><polygon points="410 87 430 79 423 73 416 42 416 4 284 6 284 45 283 73 278 83 244 111 195 136 366 136 390 67 410 23" fill="url(#id-110686)" id="id-110740"></polygon><polygon points="182 180 133 231 97 289 97 231 113 182 165 159" fill="url(#id-110687)" id="id-110741"></polygon><polygon points="346 107 384 55 409 31 414 23 299 31" fill="url(#id-110688)" id="id-110742"></polygon><polygon points="287 93 295 32 323 129" fill="url(#id-110689)" id="id-110743"></polygon><polygon points="336 139 314 151 270 146 224 139" fill="#6C362B" id="id-110744"></polygon><polygon points="410 84 409 136 461 129" fill="url(#id-110690)" id="id-110745"></polygon><polygon points="173 246 167 286 191 351 263 386 328 330 359 330 359 152 348 139 336 139 309 152" fill="url(#id-110691)" id="id-110746"></polygon><polygon points="464 159 516 190 500 159" fill="url(#id-110692)" id="id-110747"></polygon><polygon points="302 31 346 72 382 62 409 37 416 28 416 13" fill="url(#id-110693)" id="id-110748"></polygon><polygon points="263 151 191 202 219 151" fill="#31050C" id="id-110749"></polygon><polygon points="154 206 170 170 122 188" fill="#894752" id="id-110750"></polygon><polygon points="358 285 344 299 323 318 305 354 358 345 354 305" fill="url(#id-110694)" id="id-110751"></polygon><polygon points="260 361 265 387 203 371 191 347" fill="#380B07" id="id-110752"></polygon><polygon points="198 362 181 359 167 284" fill="#1D0100" id="id-110753"></polygon><polygon points="477 341 477 335 488 326 496 325 509 338 496 348 485 354" fill="#130000" id="id-110754"></polygon><polygon points="314 151 342 220 317 293 237 351 209 318 172 251 185 205 270 146" fill="url(#id-110695)" id="id-110755"></polygon><polygon points="314 151 330 238 209 318 172 251 185 205 270 146" fill="url(#id-110696)" id="id-110755"></polygon><polygon points="211 335 223 322 242 327 244 332 235 353 213 349" fill="#190001" id="id-110757"></polygon><polygon points="224 339 226 342 226 345 222 349 235 350 242 333 230 338 227 335" fill="#210A0F" id="id-110758"></polygon><polygon points="488 343 491 347 486 351 479 338 489 327 495 327 493 336" fill="#1F0405" id="id-110759"></polygon><polygon points="485 339 488 343 493 337" fill="#310C07" id="id-110760"></polygon><polygon points="359 162 359 291 406 325 455 347 529 267 463 182 415 166" fill="url(#id-110697)" id="id-110761"></polygon><polygon points="359 178 359 281 391 302 391 249 489 270 461 189 415 166" fill="url(#id-110698)" id="id-110761"></polygon><polygon points="359 178 359 219 472 220 461 189 415 166 371 163" fill="url(#id-110699)" id="id-110761"></polygon><polygon points="358 178 372 168 440 156 413 137 378 158 411 80 396 60 358 146" fill="url(#id-110700)" id="id-110764"></polygon><polygon points="346 140 358 152 372 129 400 48 369 86 364 130" fill="#622D32" id="id-110765"></polygon><polygon points="591 281 601 226 559 159 514 159 523 138 499 156 571 263" fill="url(#id-110701)" id="id-110766"></polygon><polygon points="609 298 626 332 629 285 627 227 614 207 617 251" fill="#421D30" id="id-110767"></polygon><polygon points="554 159 567 157 612 177 614 192 579 175 603 207 601 226" fill="#420A1F" id="id-110768"></polygon><polygon points="641 823 648 826 697 896 713 873 682 781" fill="url(#id-110702)" id="id-110769"></polygon><polygon points="625 840 700 762 688 738 679 784 648 776 626 822" fill="url(#id-110703)" id="id-110769"></polygon><polygon points="648 862 648 845 661 825 661 870 654 878 657 922 652 929 637 929 632 914 632 893 632 877 644 888" fill="#340807" id="id-110771"></polygon><polygon points="554 375 577 333 607 451 594 508 568 462" fill="#441208" id="id-110772"></polygon><polygon points="623 326 643 425 633 431 693 523 652 427 636 326 625 315" fill="#5A1935" id="id-110773"></polygon><polygon points="628 274 638 339 623 314" fill="#2A0303" id="id-110774"></polygon><polygon points="693 523 695 567 685 525 618 416 633 431" fill="#150000" id="id-110775"></polygon><polygon points="640 463 599 539 601 571 634 655 646 703 650 754 658 640 660 491" fill="#43150C" id="id-110776"></polygon><polygon points="610 531 648 646 652 546 638 479" fill="#571F15" id="id-110776"></polygon><polygon points="693 748 677 730 677 700 660 491 685 525 691 552 684 727" fill="#210200" id="id-110778"></polygon><polygon points="691 746 703 768 693 727 695 567 691 551 683 727" fill="#722345" id="id-110779"></polygon><polygon points="260 559 310 683 355 716 263 713 238 685 195 582" fill="url(#id-110704)" id="id-110780"></polygon><polygon points="637 931 636 919 639 914 653 914 653 922 651 929 648 931 644 933" fill="#3D100E" id="id-110781"></polygon><polygon points="637 861 637 882 641 890 653 886 649 861" fill="#602018" id="id-110782"></polygon><polygon points="691 871 693 912 688 936 669 956 671 965 696 924 696 909 705 877" fill="#59211D" id="id-110783"></polygon><polygon points="703 768 684 788 693 837 712 873 702 908 701 933 707 925 718 873 704 834 697 788" fill="#2D0303" id="id-110784"></polygon><polygon points="667 939 643 946 644 934 657 928 667 922 676 903 672 899 670 874 660 870 660 854 671 867 680 873 680 902 677 920" fill="#200600" id="id-110785"></polygon><polygon points="361 510 359 634 426 561 420 535" fill="url(#id-110705)" opacity="0.626" id="id-110786"></polygon><polygon points="319 403 289 399 268 380 313 343 361 348 362 372" fill="url(#id-110706)" id="id-110787"></polygon><polygon points="171 141 168 151 180 151 204 139 196 138" fill="url(#id-110707)" id="id-110788"></polygon><polygon points="359 308 362 360 382 334" fill="#6A2C1E" opacity="0.625" id="id-110789"></polygon><polygon points="360 546 360 584 387 551 374 540" fill="url(#id-110708)" opacity="0.626" id="id-110790"></polygon><polygon points="346 542 360 547 373 540 360 534" fill="#0E0000" id="id-110791"></polygon><polygon points="325 545 277 503 259 561 308 579" fill="url(#id-110709)" opacity="0.758" id="id-110792"></polygon><polygon points="389 499 460 467 449 510 404 520" fill="url(#id-110710)" id="id-110793"></polygon><polygon points="364 491 361 403 420 428" fill="url(#id-110711)" opacity="0.758" id="id-110794"></polygon><polygon points="262 446 333 446 323 469 279 492" fill="url(#id-110712)" opacity="0.758" id="id-110795"></polygon><polygon points="259 425 279 496 259 561 236 528 213 443 227 425 243 447" fill="url(#id-110713)" id="id-110796"></polygon><polygon points="412 343 444 374 466 383 499 351 447 354 416 339" fill="url(#id-110714)" id="id-110797"></polygon><polygon points="164 252 163 278 128 284" fill="#170000" id="id-110798"></polygon><polygon points="58 478 88 441 88 416 69 430 66 456" fill="url(#id-110715)" id="id-110799"></polygon><polygon points="76 684 69 634 61 517 89 474 111 569" fill="url(#id-110716)" id="id-110800"></polygon><polygon points="53 489 47 539 69 635 76 684 53 760 40 781 16 766 28 727 23 604 28 544" fill="url(#id-110717)" id="id-110801"></polygon><polygon points="136 452 127 497 153 460 177 340 170 300" fill="#1F0300" id="id-110802"></polygon><polygon points="181 359 159 460 143 497 142 514 123 532 109 514 108 490 127 497 153 460 177 340" fill="#2B0903" id="id-110802"></polygon><polygon points="38 747 28 772 38 788 44 772" fill="#591F14" id="id-110804"></polygon><polygon points="359 379 342 413 361 444 377 417" fill="url(#id-110718)" id="id-110805"></polygon><polygon points="196 581 260 561 229 519" fill="url(#id-110719)" id="id-110806"></polygon><polygon points="74 929 66 925 69 909 78 905 86 912 83 928" fill="url(#id-110720)" id="id-110807"></polygon><polygon points="20 903 7 880 21 851 28 871" fill="#723021" id="id-110808"></polygon><polygon points="218 1123 203 1040 191 913 171 1090 182 1169 230 1208 261 1237 270 1213 234 1175 212 1157 272 1191 281 1169" fill="url(#id-110721)" opacity="0.808" id="id-110809"></polygon><polygon points="182 1207 181 1155 213 1106 236 1166 230 1210" fill="#44120C" id="id-110810"></polygon><polygon points="187 902 211 1137 227 1161 275 1187 299 1137 272 1009 299 918 269 791 211 836" fill="url(#id-110722)" id="id-110811"></polygon><polygon points="288 1079 311 1040 311 942 295 903 264 1019 275 1188 301 1137" fill="url(#id-110723)" id="id-110812"></polygon><polygon points="584 908 604 1008 608 1106 614 998 599 887" fill="#722345" id="id-110813"></polygon><polygon points="430 886 488 1140 535 1115 561 925 566 886 536 816 500 786" fill="url(#id-110724)" opacity="0.792" id="id-110814"></polygon><polygon points="581 921 588 1011 584 1112 576 1162 544 1046 566 886" fill="url(#id-110725)" id="id-110815"></polygon><polygon points="561 1247 518 1200 472 1112 494 931 505 931 594 1188 579 1244" fill="url(#id-110726)" id="id-110816"></polygon><polygon points="531 1221 539 1263 536 1269 516 1287 509 1287 500 1263 513 1199 488 1226 462 1170 472 1101 427 1010 398 877 469 771 518 739 536 818 500 787 433 890 477 1078 534 1212" fill="url(#id-110727)" id="id-110817"></polygon><polygon points="321 1058 284 852 258 721 266 733 371 879 362 883 354 881 343 914 345 954" fill="#3E1009" id="id-110818"></polygon><polygon points="429 1068 424 875 536 705 454 704 380 865 384 906 391 972" fill="#47100B" opacity="0.394" id="id-110819"></polygon><polygon points="175 1262 194 1287 206 1287 225 1226 213 1249 175 1221 174 1232" fill="#210300" id="id-110820"></polygon><polygon points="528 1227 554 1234 569 1169 549 1168" fill="#551E14" id="id-110821"></polygon><polygon points="546 678 545 672 539 641 528 608 531 571 509 500 522 405 539 361 539 350 547 389 542 330 558 289 517 369 528 369 517 411 499 442 509 465 488 531 507 525 522 585 449 724" fill="#1B0000" id="id-110730"></polygon><polygon points="402 722 490 609 522 585 449 723" fill="#401009" id="id-110823"></polygon><polygon points="174 664 139 826 137 907 139 937 238 690 352 886 354 881 362 883 371 879 383 906 471 773 548 712 596 844 545 673 539 641 478 697 449 723 278 705 232 657 188 566 191 610" fill="url(#id-110728)" id="id-110730"></polygon><polygon points="189 616 211 620 190 586 190 609" fill="#1B0000" id="id-110825"></polygon><polygon points="139 836 225 709 167 697 139 826" fill="#1B0000" id="id-110826"></polygon><polygon points="518 734 596 843 547 678" fill="#1B0000" id="id-110827"></polygon><polygon points="415 778 447 726 314 744 329 762" fill="#511911" opacity="0.520" id="id-110730"></polygon><polygon points="411 685 463 666 456 573" fill="#300404" id="id-110829"></polygon></g><defs><linearGradient x1="53%" y1="5%" x2="47%" y2="91%" id="id-111395"><stop stop-color="#98AEEE" offset="0%"></stop><stop stop-color="#60261D" offset="82%"></stop><stop stop-color="#AF4336" offset="100%"></stop></linearGradient><linearGradient x1="62%" y1="61%" x2="50%" y2="36%" id="id-111396"><stop stop-color="#763E30" offset="0%"></stop><stop stop-color="#230801" offset="100%"></stop></linearGradient><linearGradient x1="50%" y1="13%" x2="57%" y2="81%" id="id-111397"><stop stop-color="#5C0D0D" offset="0%"></stop><stop stop-color="#AF4336" offset="100%"></stop></linearGradient><linearGradient x1="50%" y1="0%" x2="54%" y2="88%" id="id-111398"><stop stop-color="#341108" offset="0%"></stop><stop stop-color="#4D1910" offset="100%"></stop></linearGradient><linearGradient x1="46%" y1="75%" x2="35%" y2="25%" id="id-111399"><stop stop-color="#5E241A" offset="0%"></stop><stop stop-color="#8C1919" offset="100%"></stop><stop stop-color="#8C1919" offset="100%"></stop></linearGradient><linearGradient x1="33%" y1="21%" x2="55%" y2="84%" id="id-111400"><stop stop-color="#622513" offset="0%"></stop><stop stop-color="#5D322A" offset="10%"></stop><stop stop-color="#673225" offset="53%"></stop><stop stop-color="#70392B" offset="70%"></stop><stop stop-color="#592419" offset="88%"></stop><stop stop-color="#59261B" offset="100%"></stop></linearGradient><linearGradient x1="28%" y1="56%" x2="79%" y2="54%" id="id-111401"><stop stop-color="#7F4233" offset="0%"></stop><stop stop-color="#804D39" offset="16%"></stop><stop stop-color="#935643" offset="100%"></stop></linearGradient><linearGradient x1="68%" y1="59%" x2="18%" y2="46%" id="id-111402"><stop stop-color="#7A4334" offset="0%"></stop><stop stop-color="#230802" offset="100%"></stop></linearGradient><linearGradient x1="26%" y1="17%" x2="91%" y2="50%" id="id-111403"><stop stop-color="#693528" offset="0%"></stop><stop stop-color="#8B576B" offset="16%"></stop><stop stop-color="#63372F" offset="51%"></stop><stop stop-color="#5A332E" offset="85%"></stop><stop stop-color="#59322D" offset="88%"></stop><stop stop-color="#56312D" offset="100%"></stop></linearGradient><linearGradient x1="45%" y1="16%" x2="52%" y2="84%" id="id-111404"><stop stop-color="#451B10" offset="0%"></stop><stop stop-color="#592419" offset="100%"></stop></linearGradient><linearGradient x1="91%" y1="32%" x2="50%" y2="77%" id="id-111405"><stop stop-color="#441F15" offset="0%"></stop><stop stop-color="#4F261A" offset="100%"></stop></linearGradient><linearGradient x1="61%" y1="0%" x2="61%" y2="72%" id="id-111406"><stop stop-color="#2A0F0A" offset="0%"></stop><stop stop-color="#55291D" offset="100%"></stop></linearGradient><linearGradient x1="34%" y1="50%" x2="87%" y2="60%" id="id-111407"><stop stop-color="#854A3B" offset="0%"></stop><stop stop-color="#723A2C" offset="100%"></stop></linearGradient><linearGradient x1="50%" y1="2%" x2="46%" y2="90%" id="id-111408"><stop stop-color="#44190E" offset="0%"></stop><stop stop-color="#6E2A15" offset="100%"></stop></linearGradient><linearGradient x1="67%" y1="12%" x2="50%" y2="100%" id="id-111409"><stop stop-color="#5B2926" offset="0%"></stop><stop stop-color="#622D29" offset="100%"></stop></linearGradient><linearGradient x1="45%" y1="50%" x2="56%" y2="52%" id="id-111410"><stop stop-color="#612C28" offset="0%"></stop><stop stop-color="#380F0A" offset="100%"></stop></linearGradient><linearGradient x1="18%" y1="22%" x2="62%" y2="71%" id="id-111411"><stop stop-color="#622D29" offset="0%"></stop><stop stop-color="#724037" offset="100%"></stop></linearGradient><linearGradient x1="50%" y1="35%" x2="87%" y2="93%" id="id-111412"><stop stop-color="#8C5743" offset="0%"></stop><stop stop-color="#622D29" offset="100%"></stop></linearGradient><linearGradient x1="50%" y1="50%" x2="18%" y2="50%" id="id-111413"><stop stop-color="#70392C" offset="0%"></stop><stop stop-color="#54281C" offset="100%"></stop></linearGradient><linearGradient x1="54%" y1="44%" x2="58%" y2="44%" id="id-111414"><stop stop-color="#8FA6D7" offset="0%"></stop><stop stop-color="#93ABDC" offset="100%" stop-opacity="0"></stop></linearGradient><linearGradient x1="52%" y1="37%" x2="52%" y2="60%" id="id-111415"><stop stop-color="#441F15" offset="0%"></stop><stop stop-color="#3F1D13" offset="100%" stop-opacity="0"></stop><stop stop-color="#3F1D13" offset="100%" stop-opacity="0"></stop></linearGradient><linearGradient x1="50%" y1="22%" x2="50%" y2="100%" id="id-111416"><stop stop-color="#2D0E09" offset="0%"></stop><stop stop-color="#4C2119" offset="100%"></stop></linearGradient><linearGradient x1="50%" y1="41%" x2="45%" y2="59%" id="id-111417"><stop stop-color="#35130A" offset="0%"></stop><stop stop-color="#2B1935" offset="100%"></stop></linearGradient><linearGradient x1="50%" y1="115%" x2="50%" y2="50%" id="id-111418"><stop stop-color="#370D0A" offset="0%"></stop><stop stop-color="#380F0A" offset="100%"></stop></linearGradient><linearGradient x1="73%" y1="34%" x2="35%" y2="50%" id="id-111419"><stop stop-color="#5C2D21" offset="0%"></stop><stop stop-color="#200E09" offset="42%"></stop><stop stop-color="#210701" offset="100%"></stop></linearGradient><linearGradient x1="26%" y1="40%" x2="50%" y2="72%" id="id-111420"><stop stop-color="#401910" offset="0%"></stop><stop stop-color="#270B06" offset="21%"></stop><stop stop-color="#3D1C17" offset="100%"></stop></linearGradient><linearGradient x1="100%" y1="50%" x2="0%" y2="50%" id="id-111421"><stop stop-color="#401A0F" offset="0%"></stop><stop stop-color="#A9715B" offset="44%"></stop><stop stop-color="#5D2F1F" offset="100%"></stop></linearGradient><linearGradient x1="100%" y1="50%" x2="0%" y2="50%" id="id-111422"><stop stop-color="#401A0F" offset="0%"></stop><stop stop-color="#A9715B" offset="44%"></stop><stop stop-color="#5D2F1F" offset="100%"></stop></linearGradient><linearGradient x1="82%" y1="50%" x2="18%" y2="50%" id="id-111423"><stop stop-color="#6A3523" offset="0%"></stop><stop stop-color="#552216" offset="100%"></stop></linearGradient><linearGradient x1="82%" y1="50%" x2="18%" y2="50%" id="id-111424"><stop stop-color="#552216" offset="0%"></stop><stop stop-color="#6A3523" offset="100%"></stop></linearGradient><linearGradient x1="50%" y1="50%" x2="50%" y2="100%" id="id-111425"><stop stop-color="#060505" offset="0%"></stop><stop stop-color="#34368A" offset="100%"></stop></linearGradient><linearGradient x1="50%" y1="50%" x2="50%" y2="100%" id="id-111426"><stop stop-color="#060505" offset="0%"></stop><stop stop-color="#34368A" offset="100%"></stop></linearGradient></defs><g transform=" translate(548,259)" id="id-111427"><g id="id-111428"><g transform=" translate(0,121)" id="id-111429"><polygon points="199 13 214 3 222 9 221 25 214 38 214 43 210 54 208 65 197 70 190 64" fill="url(#id-111395)" id="id-111430"></polygon><polygon points="197 24 209 14 216 9 219 10 220 22 214 37 195 43" fill="url(#id-111396)" id="id-111431"></polygon><polygon points="203 38 208 34 199 25 203 22 209 23 207 18 212 16 214 38 214 43 213 48 207 51 201 46" fill="url(#id-111397)" id="id-111430"></polygon><polygon points="212 5 214 3 222 9 222 10 219 10 216 9" fill="#5771A7" id="id-111430"></polygon><polygon points="208 65 197 70 190 64 194 42 199 50 193 62 199 67" fill="#50151B" id="id-111430"></polygon><polygon points="203 62 202 54 211 50" fill="#723C31" id="id-111435"></polygon><polygon points="196 50 202 51 203 42 196 46" fill="#230801" id="id-111436"></polygon><polygon points="194 45 199 47 202 45 202 32 197 31" fill="#421518" id="id-111437"></polygon><path d=" M 30,70 C 24,70 20,69 19,68 C 17,66 12,52 8,46 C 4,39 2,38 1,33 C 0,30 0,21 1,6 L 8,0 L 23,9 L 30,70 Z" fill="url(#id-111398)" id="id-111438"></path><polygon points="8 6 2 6 7 3 10 2 23 9 19 14" fill="#110A0C" id="id-111438"></polygon><path d=" M 26,68 C 23,69 20,69 19,68 C 17,66 12,52 8,46 C 7,44 6,43 6,42 C 9,45 10,47 12,48 C 13,50 14,52 16,56 L 26,68 Z" fill="#3F150D" id="id-111438"></path><polygon points="26 68 29 65 27 53 20 61" fill="#5E241A" id="id-111438"></polygon><path d=" M 23,19 C 12,12 6,9 5,9 C 3,10 2,18 2,33 L 17,53 L 26,52 L 23,19 Z" fill="url(#id-111399)" id="id-111442"></path><polygon points="12 17 19 19 18 26 15 28 22 38 21 49 12 44" fill="#3F150D" id="id-111443"></polygon><path d=" M 27,53 C 16,50 10,47 8,42 C 6,38 8,30 12,17 L 15,23 C 15,36 14,42 15,43 C 15,45 18,46 25,48 L 27,53 Z" fill="#5E241A" id="id-111444"></path><polygon points="11 31 19 26 19 18 14 20 12 18" fill="#3E150D" id="id-111445"></polygon><polygon points="20 46 17 42 22 37 25 48" fill="#6A3032" id="id-111446"></polygon></g><g transform=" translate(18,0)" id="id-111447"><path d=" M 20,231 C 18,227 11,201 5,153 C 3,140 2,128 1,117 C -1,91 4,63 8,49 C 9,46 16,35 16,34 C 30,20 56,0 94,0 C 157,0 178,45 181,51 C 183,57 183,111 181,144 C 178,177 162,232 160,235 C 158,239 124,261 119,264 C 113,266 74,267 69,264 C 64,261 22,235 20,231 Z" fill="url(#id-111400)" id="id-111448"></path><polygon points="7 140 17 117 33 106 149 120 167 144 147 176 73 161 39 177 29 171" fill="url(#id-111401)" id="id-111449"></polygon><polygon points="7 140 17 117 33 106 31 136 77 131 86 136 75 144 52 152 49 152 30 154 23 163" fill="url(#id-111402)" id="id-111449"></polygon><path d=" M 5,153 C 3,140 2,128 1,117 C -1,91 4,63 8,49 C 9,46 16,35 16,34 C 30,20 56,0 94,0 C 157,0 178,45 181,51 C 183,57 183,111 181,144 C 181,149 180,153 179,158 L 159,161 L 145,148 L 115,146 L 101,161 L 86,110 L 108,103 C 144,108 161,111 161,110 C 158,100 155,92 154,86 C 152,81 151,76 149,69 L 159,43 L 95,32 L 26,43 L 17,71 L 19,112 L 5,153 Z" fill="url(#id-111403)" id="id-111448"></path><polygon points="39 209 44 175 39 177 29 171" fill="#713A2C" id="id-111449"></polygon><path d=" M 20,231 C 18,227 11,201 5,153 C 4,146 3,140 3,133 L 30,171 L 54,255 C 40,246 21,234 20,231 Z" fill="url(#id-111404)" id="id-111448"></path><polygon points="120 214 141 194 148 211 132 249 115 262 65 259 56 251 73 255 98 256" fill="url(#id-111405)" id="id-111454"></polygon><polygon points="80 183 80 201 103 202 128 183 128 174 108 161" fill="#6D3E34" id="id-111455"></polygon><polygon points="99 197 98 188 119 178 132 185 139 201 121 214" fill="#5B2C22" id="id-111456"></polygon><polygon points="60 213 54 208 54 188 67 176 88 184 86 187 86 196 93 198 102 194 113 205" fill="#663226" id="id-111457"></polygon><polygon points="59 173 74 168 112 165 129 177 129 183 121 186 107 180 84 180 58 189" fill="#532016" id="id-111457"></polygon><polygon points="52 220 65 211 125 212 126 233 120 246 77 258" fill="url(#id-111406)" id="id-111459"></polygon><polygon points="151 171 140 187 108 161 141 174" fill="url(#id-111407)" id="id-111460"></polygon><polygon points="117 109 126 125 157 130 163 120 151 101" fill="#7D4C3D" id="id-111461"></polygon><polygon points="160 128 146 114 155 108 164 117 167 125 163 122" fill="#8C594E" id="id-111462"></polygon><polygon points="80 135 91 122 88 109 70 105" fill="#704131" id="id-111463"></polygon><polygon points="43 109 60 118 72 128 82 133 69 109 52 105" fill="#593225" id="id-111464"></polygon><path d=" M 180,154 C 175,187 161,232 160,235 C 159,237 151,243 142,249 L 154,166 L 172,136 L 180,154 Z" fill="url(#id-111408)" id="id-111448"></path><polygon points="104 105 128 105 160 106 154 87 144 99 126 102 114 91" fill="#5E2A1B" id="id-111466"></polygon></g></g><polygon points="95 135 84 164 97 164 104 130 99 130" fill="url(#id-111409)" id="id-111467"></polygon><polygon points="84 175 83 177 90 186 105 186 109 187 114 187 119 181 124 182 126 185 130 184 136 177 136 171 134 169 105 165" fill="url(#id-111410)" id="id-111468"></polygon><polygon points="119 163 111 125 119 122 144 143" fill="url(#id-111411)" id="id-111469"></polygon><path d=" M 84,175 L 89,160 L 94,163 L 102,127 L 109,122 L 115,127 L 121,157 L 122,161 L 126,156 L 134,169 L 132,173 L 119,169 L 110,172 L 95,172 C 93,173 91,174 89,175 C 88,175 86,175 84,175 Z" fill="url(#id-111412)" id="id-111470"></path><polygon points="179 128 167 143 148 145 131 138 115 128 126 112 137 110 148 120 161 118 172 126" fill="#6D4037" id="id-111471"></polygon><polygon points="102 154 104 144 111 144 119 169 108 172 96 170" fill="#A57563" id="id-111470"></polygon><polygon points="95 171 100 164 108 171" fill="#C393A5" id="id-111473"></polygon><g transform=" translate(20,1)"><g id="id-111474"><path d=" M 0,128 C 2,128 3,128 3,128 L 9,130 C 8,150 8,159 8,159 C 6,158 5,158 5,158 L 0,144 C 0,133 0,128 0,128 Z" fill="#190D0D" id="id-111475"></path><g transform=" translate(1,0)" id="id-111476"><path d=" M 7,131 L 25,91 L 25,61 L 47,20 L 36,26 C 21,39 11,56 0,78 L 2,129 L 7,131 Z" fill="url(#id-111413)" id="id-111477"></path><path d=" M 104,0 C 134,4 155,22 167,55 C 166,89 166,106 166,106 C 171,123 174,139 168,153 L 169,190 C 180,155 181,98 178,51 C 168,30 163,27 146,14 C 132,5 118,1 104,0 Z" fill="url(#id-111414)" id="id-111478"></path><path d=" M 24,96 C 50,94 63,93 63,93 C 83,97 92,99 92,99 C 112,94 121,92 121,92 C 138,93 148,97 158,101 C 152,94 141,88 128,83 C 104,86 92,87 92,87 L 63,80 C 37,91 24,96 24,96 Z" fill="#89594A" id="id-111479"></path><path d=" M 132,43 L 147,52 C 135,73 129,84 129,84 C 105,87 93,89 93,89 C 70,84 59,81 59,81 L 64,66 C 109,51 132,43 132,43 Z" fill="#724037" id="id-111480"></path><path d=" M 1,72 L 39,14 L 26,22 C 7,33 2,58 1,72 Z" fill="#8B576B" id="id-111481"></path></g><path d=" M 2,109 C 9,108 12,108 12,108 L 12,122 C 9,129 7,132 7,132 L 3,128 C 2,115 2,109 2,109 Z" fill="#32130A" id="id-111482"></path></g><g transform=" translate(47,194)" id="id-111483"><path d=" M 24,64 C 24,54 24,49 24,49 C 29,46 32,44 32,44 C 44,44 49,44 49,44 C 58,48 62,50 62,50 L 59,66 C 36,64 24,64 24,64 Z" fill="#724037" id="id-111484"></path><path d=" M 16,29 C 26,43 30,50 30,50 C 49,50 58,50 58,50 L 74,29 C 36,29 16,29 16,29 Z" fill="#300F08" id="id-111485"></path><path d=" M 15,12 C 21,4 24,0 24,0 C 49,0 61,0 61,0 C 71,10 77,16 77,16 C 63,8 57,5 57,5 L 30,5 C 20,10 15,12 15,12 Z" fill="#986857" id="id-111486"></path><path d=" M 63,51 C 51,53 45,54 45,54 C 31,50 25,49 25,49 C 31,46 34,45 34,45 L 53,45 C 60,49 63,51 63,51 Z" fill="#92604E" id="id-111487"></path><path d=" M 25,49 C 31,46 34,45 34,45 C 42,49 46,51 46,51 L 38,51 L 25,49 Z" fill="#BA8B94" id="id-111488"></path><path d=" M 72,11 C 82,9 87,9 87,9 C 89,12 89,14 89,14 L 83,34 C 75,19 72,11 72,11 Z" fill="url(#id-111415)" id="id-111489"></path><path d=" M 3,12 C 10,15 13,16 13,16 C 15,26 16,31 16,31 C 13,36 12,39 12,39 L 0,21 C 2,15 3,12 3,12 Z" fill="#3A1911" id="id-111490"></path><path d=" M 5,19 C 4,23 4,25 4,25 L 13,29 C 8,22 5,19 5,19 Z" fill="#642F23" id="id-111491"></path><path d=" M 9,18 C 16,10 22,5 27,4 C 38,2 49,1 60,4 C 65,7 70,11 75,14 C 76,15 77,18 78,19 C 75,20 74,20 74,20 C 64,19 59,18 59,18 L 21,19 C 13,19 9,18 9,18 Z" fill="#2D0E09" id="id-111492"></path><path d=" M 12,17 C 21,9 26,5 26,5 C 29,8 31,12 32,17 L 20,18 C 15,17 12,17 12,17 Z" fill="#3A0C0A" id="id-111493"></path><path d=" M 41,3 C 38,8 36,12 34,16 C 47,16 53,16 53,16 L 47,4 C 43,3 41,3 41,3 Z" fill="url(#id-111416)" id="id-111494"></path><path d=" M 61,7 C 58,13 56,17 56,17 C 67,18 73,19 73,19 L 76,17 C 69,10 64,7 61,7 Z" fill="#460F0C" id="id-111495"></path><path d=" M 9,22 C 15,28 21,32 28,36 C 39,38 50,38 60,36 C 69,32 74,28 78,21 C 72,21 68,21 68,21 C 54,16 32,20 16,19 C 12,21 9,22 9,22 Z" fill="#6F2323" id="id-111496"></path><path d=" M 17,21 C 25,28 29,31 29,31 C 50,32 61,32 61,32 L 70,21 C 54,17 36,17 17,21 Z" fill="#A56172" id="id-111497"></path><path d=" M 25,21 C 21,21 19,21 19,21 C 25,26 27,28 27,28 C 34,26 42,25 50,27 C 57,26 61,26 61,26 C 54,25 51,25 51,25 C 46,23 39,22 28,24 C 26,22 25,21 25,21 Z" fill="#B77F91" id="id-111498"></path><path d=" M 5,18 L 11,25 L 15,20 C 25,21 34,20 42,19 C 48,18 54,19 60,20 L 66,20 L 75,26 L 80,18 C 77,19 73,19 69,18 C 65,18 58,17 50,15 C 45,17 40,16 35,15 C 26,17 17,18 5,18 Z" fill="#1F0805" id="id-111499"></path></g></g><path d=" M 38,231 C 37,230 37,228 36,225 L 87,256 L 133,258 L 149,246 L 166,209 L 163,247 C 152,254 140,262 137,264 C 131,266 92,267 87,264 C 82,261 40,235 38,231 Z" fill="url(#id-111417)" id="id-111448"></path><path d=" M 110,181 C 103,181 97,177 93,177 C 90,177 88,178 85,180 L 90,186 L 105,186 L 109,187 L 114,187 L 119,181 L 124,182 L 126,185 L 130,184 L 134,179 C 133,176 132,175 131,175 C 130,175 117,181 110,181 Z" fill="url(#id-111418)" id="id-111468"></path><polygon points="92 180 94 186 105 186 97 179" fill="#592B23" id="id-111468"></polygon><polygon points="117 180 131 175 132 178 125 183 119 183" fill="#180300" id="id-111503"></polygon><polygon points="87 180 90 177 99 178 101 179 101 184 92 183" fill="#180300" id="id-111504"></polygon><g transform=" translate(26,89)" id="id-111505"><path d=" M 1,48 C 15,48 22,48 22,48 C 32,53 37,56 37,56 C 50,55 57,55 57,55 C 63,44 66,39 66,39 C 66,38 66,37 66,37 L 63,36 C 71,30 75,27 75,27 C 68,15 64,9 64,9 C 39,9 26,9 26,9 L 11,19 L 1,40 C 1,45 1,48 1,48 Z" fill="url(#id-111419)" id="id-111506"></path><path d=" M 68,15 C 73,23 75,27 75,27 C 90,31 98,34 98,34 L 97,18 C 78,16 68,15 68,15 Z" fill="#53281D" id="id-111507"></path><path d=" M 92,27 C 97,34 99,37 99,37 C 103,41 105,43 105,43 C 109,48 118,51 129,52 C 123,55 120,56 120,56 C 134,57 141,57 141,57 C 147,50 150,47 150,47 L 158,52 L 163,47 C 162,39 162,33 158,23 C 151,16 148,12 148,12 C 135,11 121,10 105,10 C 97,22 92,27 92,27 Z" fill="url(#id-111420)" id="id-111508"></path><path d=" M 24,34 C 27,29 33,26 43,25 C 51,28 58,32 64,37 C 66,38 67,39 67,39 L 63,43 C 54,30 41,27 24,34 Z" fill="url(#id-111421)" id="id-111509"></path><path d=" M 98,39 C 100,43 101,45 101,45 C 111,31 124,25 141,37 C 130,23 116,24 98,39 Z" fill="url(#id-111422)" id="id-111510"></path><path d=" M 11,27 C 22,28 28,29 28,29 C 32,23 40,21 52,22 C 46,14 43,11 43,11 L 26,10 C 16,22 11,27 11,27 Z" fill="url(#id-111423)" id="id-111511"></path><path d=" M 107,23 L 126,10 C 140,12 147,12 147,12 C 154,19 158,23 158,23 C 159,27 160,29 160,29 L 142,31 C 142,26 130,24 107,23 Z" fill="url(#id-111424)" id="id-111512"></path><path d=" M 122,23 C 122,21 122,20 122,20 C 125,19 128,20 130,22 L 129,25 C 124,23 122,23 122,23 Z" fill="#8A5845" id="id-111513"></path><path d=" M 35,23 C 35,20 35,19 35,19 C 41,18 44,18 44,18 L 45,22 C 38,23 35,23 35,23 Z" fill="#8A5845" id="id-111514"></path><path d=" M 61,34 C 59,36 58,37 58,37 C 61,39 62,40 62,40 C 63,42 64,43 64,43 L 65,37 C 62,35 61,34 61,34 Z" fill="#986C7F" id="id-111515"></path><path d=" M 100,39 C 100,43 100,45 100,45 C 104,53 112,51 119,50 C 110,48 104,44 100,39 Z" fill="#90647C" id="id-111516"></path><path d=" M 32,50 C 31,48 31,47 31,47 C 37,46 41,45 41,45 L 53,46 L 49,49 C 38,50 32,50 32,50 Z" fill="#723B2C" id="id-111517"></path><path d=" M 32,39 C 31,40 30,41 30,41 C 32,44 32,45 32,45 L 36,45 C 33,41 32,39 32,39 Z" fill="#421B14" id="id-111518"></path><path d=" M 42,38 C 45,38 47,38 47,38 L 45,44 C 43,40 42,38 42,38 Z" fill="#421B14" id="id-111519"></path><path d=" M 18,42 C 28,51 34,56 34,56 C 34,56 47,55 47,55 L 59,42 L 50,48 L 35,49 C 24,44 18,42 18,42 Z" fill="#3A1A10" id="id-111520"></path><path d=" M 68,14 C 68,10 68,8 68,8 C 66,6 65,5 65,5 C 65,8 65,10 65,10 C 61,4 59,1 59,1 C 51,1 46,1 46,1 C 32,2 25,3 25,3 C 21,6 19,8 19,8 C 19,6 19,5 19,5 C 16,9 14,11 14,11 C 12,17 10,20 10,20 L 17,14 C 17,18 17,20 17,20 C 24,14 28,11 28,11 C 41,11 53,10 64,12 C 66,13 68,14 68,14 Z" fill="#000000" id="id-111521"></path><path d=" M 100,12 C 100,9 100,8 100,8 C 103,5 105,4 105,4 C 104,7 104,8 104,8 C 109,3 112,1 112,1 C 121,1 130,1 138,3 C 140,10 141,14 141,14 L 123,11 C 108,12 100,12 100,12 Z" fill="#000000" id="id-111522"></path><path d=" M 142,5 C 145,11 147,15 147,15 C 153,21 157,24 157,24 C 156,20 156,17 156,17 C 154,14 153,12 153,12 C 152,14 152,15 152,15 L 148,7 C 144,6 142,5 142,5 Z" fill="#000000" id="id-111523"></path></g><g transform=" translate(41,120)" id="id-111524"><g transform=" translate(87,0)" id="id-111525"><path d=" M 1,15 L 1,13 C 11,4 19,-1 26,0 C 31,1 34,3 38,6 C 39,7 42,9 46,11 C 44,14 43,14 41,13 C 40,14 39,15 39,15 C 37,16 34,17 30,18 L 7,16 L 1,15 Z" fill="#060505" id="id-111526"></path><path d=" M 6,14 L 8,17 L 29,18 L 37,13 C 30,7 25,5 20,5 C 15,5 11,8 6,14 Z" fill="#B5A7B5" id="id-111527"></path><path d=" M 6,14 L 8,17 L 11,17 C 13,12 16,9 19,9 C 23,9 27,11 33,16 L 37,13 C 30,7 25,5 20,5 C 15,5 11,8 6,14 Z" fill="#828080" id="id-111527"></path><path d=" M 20,18 C 25,18 28,15 29,8 C 26,6 23,4 20,4 C 18,4 15,6 12,8 C 12,14 15,17 20,18 Z" fill="url(#id-111425)" id="id-111527"></path></g><g id="id-111530"><path d=" M 3,15 L 1,13 C 11,3 20,-1 26,0 C 32,1 39,6 47,13 L 43,18 L 15,17 L 7,14 L 3,15 Z" fill="#060505" id="id-111531"></path><path d=" M 9,13 L 17,17 L 38,17 L 41,14 C 35,8 30,5 25,5 C 21,5 15,8 9,13 Z" fill="#B4A3AF" id="id-111532"></path><path d=" M 9,13 L 14,16 C 16,12 20,10 25,10 C 29,10 35,12 40,16 L 41,14 C 35,8 30,5 25,5 C 21,5 15,8 9,13 Z" fill="#828080" id="id-111532"></path><path d=" M 25,17 C 30,18 33,14 34,8 C 31,6 28,4 25,4 C 22,4 19,6 16,8 C 17,14 20,17 25,17 Z" fill="url(#id-111426)" id="id-111532"></path><circle cx="25" cy="9" r="5" fill="#000000" id="id-111535"></circle><path d=" M 108,14 C 110,14 113,12 113,9 C 113,6 110,4 108,4 C 105,4 103,6 103,9 C 103,12 105,14 108,14 Z" fill="#000000" id="id-111535"></path><polygon points="19 8 21 11 25 9 24 7" fill="#999AA8" id="id-111537"></polygon></g><polygon points="103 8 103 10 108 9 108 7" fill="#8F8793" id="id-111538"></polygon></g></g><defs></defs><g transform=" translate(329,309)" id="id-111745"><path d=" M 347,1 C 349,0 350,0 350,0 C 353,17 349,34 364,52 C 362,59 364,63 368,65 C 359,67 354,68 354,68 C 354,55 351,48 345,44 C 348,18 348,4 347,1 Z" fill="#833838" id="id-111746"></path><path d=" M 341,44 L 350,61 C 358,56 362,53 362,53 C 363,54 364,54 364,54 C 363,46 362,41 362,41 C 360,37 359,35 359,35 C 358,41 357,44 357,44 L 348,48 L 341,44 Z" fill="#D5B3A5" opacity="0.465" id="id-111747"></path><path d=" M 345,44 C 351,42 354,41 354,41 C 359,49 362,53 362,53 L 361,63 C 356,67 354,68 354,68 C 351,63 350,60 350,60 L 350,51 C 347,46 345,44 345,44 Z" fill="#6D112A" id="id-111748"></path><path d=" M 348,43 C 349,23 349,13 349,13 L 351,42 C 349,43 348,43 348,43 Z" fill="#AE7764" id="id-111749"></path><path d=" M 353,87 C 355,87 356,86 356,86 C 365,90 370,91 370,91 C 364,104 361,110 361,110 L 357,91 C 354,88 353,87 353,87 Z" fill="#6D112A" id="id-111750"></path><path d=" M 357,112 C 364,125 368,132 368,132 C 366,118 365,106 366,97 L 360,103 C 358,109 357,112 357,112 Z" fill="#7C2E2B" id="id-111751"></path><path d=" M 366,98 C 361,107 359,111 359,111 L 367,121 C 366,112 366,105 366,98 Z" fill="#914245" id="id-111752"></path><path d=" M 366,104 C 364,109 363,112 363,112 L 363,117 L 367,121 C 366,110 366,104 366,104 Z" fill="#C8798A" id="id-111753"></path><path d=" M 37,609 C 47,601 51,596 51,596 C 75,598 87,599 87,599 C 84,595 76,592 63,589 C 54,582 48,578 45,577 C 42,589 40,595 40,595 L 39,599 C 38,605 37,609 37,609 Z" fill="#86302D" id="id-111754"></path><path d=" M 45,589 L 42,600 C 48,598 51,596 51,596 L 74,597 C 54,592 45,589 45,589 Z" fill="#5A211F" id="id-111755"></path><path d=" M 2,728 C 0,721 1,714 5,707 C 12,693 18,684 23,678 L 48,653 C 20,694 5,719 2,728 Z" fill="#85302E" id="id-111756"></path><path d=" M 37,668 C 29,681 24,692 21,699 C 13,711 6,723 1,735 C -2,727 10,704 37,668 Z" fill="#B57760" id="id-111757"></path><path d=" M 39,608 C 44,602 48,598 52,597 C 54,596 63,597 81,599 C 53,605 39,608 39,608 Z" fill="#B47760" id="id-111758"></path></g><defs><linearGradient x1="50%" y1="0%" x2="50%" y2="100%" id="id-85948"><stop stop-color="#094359" offset="0%"></stop><stop stop-color="#00394D" offset="100%"></stop></linearGradient></defs><g transform=" translate(420,1053)" id="id-85949"><g transform=" translate(1,0)" id="id-85950"><path d=" M 173,708 C 177,658 178,633 178,633 C 193,620 201,613 201,613 C 200,565 199,541 199,541 C 204,509 207,493 207,493 C 213,488 217,486 217,486 C 225,452 229,435 229,435 C 226,417 225,408 225,408 C 229,380 232,366 232,366 C 235,362 237,360 237,360 C 240,339 241,328 241,328 C 248,322 251,319 251,319 C 257,325 260,328 260,328 C 260,343 261,350 261,350 L 260,371 C 272,419 279,443 279,443 C 291,473 297,489 297,489 C 303,491 306,492 306,492 C 311,511 314,520 314,520 C 310,529 307,533 307,533 C 322,571 329,589 329,589 C 329,613 329,624 329,624 C 343,635 351,641 351,641 L 364,708 C 465,708 516,708 516,708 L 505,631 L 496,631 C 496,617 495,610 495,610 C 484,591 479,581 479,581 C 490,547 495,530 495,530 C 496,518 496,512 496,512 C 504,500 507,495 507,495 C 485,312 474,221 474,221 L 452,153 C 443,130 439,118 439,118 C 433,86 430,70 430,70 C 421,47 416,35 416,35 C 415,13 415,3 415,3 C 354,5 324,7 324,7 C 214,8 159,9 159,9 C 98,3 67,0 67,0 C 67,22 67,33 67,33 C 51,80 41,125 37,167 C 14,340 4,440 6,467 C 11,470 13,471 13,471 C 14,493 14,504 14,504 C 20,507 22,509 22,509 C 26,535 27,548 27,548 C 37,563 42,571 42,571 C 31,592 26,603 26,603 L 43,622 L 43,708 C 130,708 173,708 173,708 Z" fill="#003348" id="id-85951"></path><path d=" M 240,54 C 316,51 354,50 354,50 C 358,98 360,122 360,122 C 383,102 394,92 394,92 C 377,129 369,148 369,148 C 391,168 402,178 402,178 C 410,176 414,175 414,175 L 438,199 L 379,242 L 402,267 C 333,299 299,315 299,315 L 245,302 C 242,137 240,54 240,54 Z" fill="#094359" id="id-85952"></path><path d=" M 237,303 L 193,319 C 140,409 113,454 113,454 C 117,345 125,284 137,272 C 111,206 97,173 97,173 C 118,136 128,117 128,117 C 129,79 130,59 130,59 L 227,54 C 240,198 243,281 237,303 Z" fill="url(#id-85948)" id="id-85953"></path><path d=" M 172,63 L 228,63 C 240,222 243,302 236,302 C 218,288 209,282 209,282 C 210,268 210,262 210,262 C 185,249 173,242 173,242 C 210,231 229,225 229,225 L 232,212 C 178,188 151,176 151,176 C 205,176 231,177 231,177 C 231,171 230,168 230,168 L 174,121 L 172,63 Z" fill="#03374D" id="id-85954"></path><path d=" M 97,173 L 145,189 L 111,209 C 151,210 191,215 229,226 L 129,255 C 108,200 97,173 97,173 Z" fill="#1D536D" id="id-85955"></path><path d=" M 149,272 C 145,287 142,294 142,294 C 174,304 190,309 190,309 C 216,303 229,301 229,301 L 206,286 C 168,277 149,272 149,272 Z" fill="#20546F" id="id-85956"></path><path d=" M 244,125 C 285,106 306,97 306,97 C 308,133 308,151 308,151 C 274,170 257,179 257,179 C 306,179 339,187 356,205 C 295,237 265,253 265,253 L 330,265 L 254,291 C 247,180 244,125 244,125 Z" fill="#033A4E" id="id-85957"></path><path d=" M 342,257 C 298,249 276,245 276,245 C 305,227 319,218 319,218 L 376,227 C 353,247 342,257 342,257 Z" fill="#1E546E" id="id-85958"></path><path d=" M 332,175 C 349,170 383,166 383,166 C 390,174 393,178 393,178 L 379,214 C 375,193 360,180 332,175 Z" fill="#1A526B" id="id-85959"></path><path d=" M 298,316 C 365,283 399,267 399,267 C 447,239 471,225 471,225 L 455,292 L 372,335 L 298,316 Z" fill="#174E66" id="id-85960"></path><path d=" M 471,520 C 449,530 438,535 438,535 C 438,554 438,564 438,564 L 413,568 L 428,648 L 417,708 L 348,709 L 341,648 L 328,637 L 327,589 L 306,533 L 312,520 L 304,492 L 295,488 L 275,426 L 260,371 L 392,455 C 444,498 471,520 471,520 Z" fill="#094358" id="id-85961"></path><path d=" M 468,464 L 501,505 L 496,511 L 496,529 C 478,486 468,464 468,464 Z" fill="#222D45" id="id-85962"></path><path d=" M 417,367 C 450,388 466,398 466,398 L 477,443 C 437,392 417,367 417,367 Z" fill="#222D45" id="id-85963"></path><path d=" M 435,91 C 396,165 371,228 361,281 C 376,336 383,363 383,363 C 381,382 380,392 380,392 L 429,649 L 418,708 L 516,707 L 507,631 L 498,631 L 497,611 L 480,582 L 497,530 L 498,512 L 509,495 L 474,221 L 452,154 L 441,124 L 439,118 C 436,100 435,91 435,91 Z" fill="#060F1E" id="id-85964"></path><path d=" M 275,426 L 295,488 L 304,492 L 312,520 L 306,533 L 327,589 L 328,637 C 337,645 341,648 341,648 L 430,654 L 275,426 Z" fill="#02364B" id="id-85965"></path><path d=" M 37,510 C 60,513 72,514 72,514 L 237,360 L 240,385 L 230,433 L 217,485 L 208,492 L 200,541 L 201,613 L 208,633 L 184,652 L 196,653 L 191,708 C 130,708 100,708 100,708 C 106,614 109,566 109,566 L 100,575 C 58,532 37,510 37,510 Z" fill="#094357" id="id-85966"></path><path d=" M 100,708 L 25,709 L 24,646 L 36,634 L 25,604 L 38,572 L 22,544 L 18,511 L 10,506 L 8,473 L 1,465 C -2,416 7,318 29,173 L 36,167 C 40,136 47,105 53,73 L 85,141 L 83,146 L 137,272 L 123,345 C 127,396 118,432 109,500 C 109,590 106,639 100,708 Z" fill="#060F1E" id="id-85967"></path><path d=" M 168,663 C 144,616 132,593 132,593 L 229,423 L 229,435 L 217,484 L 208,491 C 203,523 200,539 200,539 L 200,563 L 200,616 L 208,635 C 181,653 168,663 168,663 Z" fill="#02364B" id="id-85968"></path><path d=" M 65,40 C 108,52 129,58 129,58 L 367,52 L 419,45 L 415,36 L 414,3 L 323,7 L 159,9 L 67,0 L 67,36 L 65,40 Z" fill="#041424" id="id-85969"></path><path d=" M 145,63 C 129,62 121,62 121,62 C 122,25 122,6 122,6 L 144,9 C 145,45 145,63 145,63 Z" fill="#222B42" id="id-85970"></path><path d=" M 341,60 C 358,58 367,57 367,57 C 365,23 363,6 363,6 L 343,8 C 342,43 341,60 341,60 Z" fill="#18485F" id="id-85971"></path><path d=" M 285,50 C 234,51 208,52 208,52 C 206,26 205,13 205,13 L 284,11 C 285,37 285,50 285,50 Z" fill="#5A6171" id="id-85972"></path><path d=" M 283,17 L 206,17 L 205,11 L 283,9 C 283,14 283,17 283,17 Z" fill="#969DAF" id="id-85973"></path><path d=" M 291,160 C 273,174 264,181 264,181 C 252,176 246,173 246,173 L 271,169 C 285,163 291,160 291,160 Z" fill="#122D40" id="id-85974"></path></g></g><defs><linearGradient x1="50%" y1="11%" x2="50%" y2="100%" id="id-80627"><stop stop-color="#3F217F" offset="0%"></stop><stop stop-color="#422384" offset="32%"></stop><stop stop-color="#3B2077" offset="58%"></stop><stop stop-color="#3B2077" offset="100%"></stop></linearGradient><linearGradient x1="50%" y1="11%" x2="50%" y2="99%" id="id-80628"><stop stop-color="#4B2797" offset="0%"></stop><stop stop-color="#4C2999" offset="26%"></stop><stop stop-color="#432486" offset="100%"></stop></linearGradient><linearGradient x1="76%" y1="13%" x2="5%" y2="100%" id="id-80629"><stop stop-color="#EEEDF5" offset="0%"></stop><stop stop-color="#B6C8F0" offset="100%"></stop></linearGradient><linearGradient x1="114%" y1="-24%" x2="8%" y2="100%" id="id-80630"><stop stop-color="#EEEDF5" offset="0%"></stop><stop stop-color="#C5D2F1" offset="100%"></stop></linearGradient></defs><g transform=" translate(313,549)" id="id-80631"><g transform=" translate(31,0)" id="id-80632"><path d=" M 70,847 C 266,943 429,963 560,908 C 560,915 560,918 560,918 C 532,936 518,944 518,944 C 391,969 328,981 328,981 L 299,976 C 212,935 145,904 96,885 C 78,860 70,847 70,847 Z" fill="#000000" fill-opacity="0.303" id="id-80633"></path><path d=" M 62,845 C 64,829 66,821 66,821 C 69,817 71,815 71,815 C 72,802 72,796 72,796 C 76,790 79,786 79,786 C 87,721 91,689 91,689 C 101,673 106,665 106,665 C 105,651 104,643 104,643 C 113,627 117,619 117,619 C 113,593 112,579 112,579 C 120,565 125,558 125,558 C 137,515 143,494 143,494 C 141,454 139,433 139,433 C 130,449 126,457 126,457 C 80,462 58,464 58,464 C 19,448 0,441 0,441 C 11,288 45,227 27,132 C 47,107 57,95 57,95 C 89,70 150,51 203,23 C 200,18 217,12 227,2 C 237,20 242,30 242,30 C 289,77 339,76 393,28 C 410,13 424,9 433,17 C 463,38 507,58 550,79 C 559,84 564,87 564,87 C 584,117 594,132 594,132 C 608,225 623,318 644,401 C 639,406 636,408 636,408 C 571,427 539,437 539,437 C 514,439 502,440 502,440 C 503,500 509,550 522,591 C 523,610 524,619 524,619 C 552,706 565,750 565,750 C 558,777 570,834 581,891 C 565,902 557,912 523,933 C 475,947 244,961 62,845 Z" fill="url(#id-80627)" id="id-80634"></path><path d=" M 112,873 C 113,853 114,843 114,843 C 98,831 90,825 90,825 C 97,816 100,811 100,811 C 95,809 92,807 92,807 C 112,795 121,789 121,789 C 110,762 104,748 104,748 C 116,740 121,737 121,737 L 112,630 L 104,643 L 106,667 L 91,689 L 79,786 L 72,796 L 71,815 L 66,821 L 62,845 C 73,852 81,856 85,859 C 103,869 112,873 112,873 Z" fill="#2E185C" id="id-80635"></path><path d=" M 154,855 C 127,839 114,831 114,831 L 125,822 C 144,844 154,855 154,855 Z" fill="#281650" id="id-80636"></path><path d=" M 186,859 C 169,853 160,850 160,850 C 136,829 124,818 124,818 L 69,818 L 71,815 C 72,802 72,796 72,796 C 74,793 75,792 75,792 C 84,804 89,810 89,810 L 152,817 C 175,845 186,859 186,859 Z" fill="#26144B" id="id-80637"></path><path d=" M 79,786 C 90,798 96,803 96,803 C 111,789 118,782 118,782 C 104,747 97,730 97,730 L 107,742 C 117,738 121,737 121,737 C 119,713 118,701 118,701 L 89,710 C 82,761 79,786 79,786 Z" fill="#2C1756" id="id-80638"></path><path d=" M 90,704 C 107,680 115,668 115,668 L 112,637 L 104,643 L 103,666 L 91,689 C 90,699 90,704 90,704 Z" fill="#371C6C" id="id-80639"></path><path d=" M 104,643 L 120,632 L 116,619 C 108,635 104,643 104,643 Z" fill="#26144B" id="id-80640"></path><path d=" M 112,579 C 132,590 142,596 142,596 C 152,566 157,551 157,551 L 143,494 L 125,558 C 116,572 112,579 112,579 Z" fill="#321A64" id="id-80641"></path><path d=" M 126,457 L 122,327 L 140,390 L 139,433 C 130,449 126,457 126,457 Z" fill="#241348" id="id-80642"></path><path d=" M 57,465 C 58,448 58,440 58,440 C 80,438 90,438 90,438 C 97,382 100,354 100,354 C 105,365 107,372 108,373 C 108,373 108,373 108,373 C 108,415 108,435 108,435 C 115,435 119,435 119,435 L 118,458 C 78,463 57,465 57,465 Z" fill="#482493" id="id-80643"></path><path d=" M 118,458 C 119,416 120,395 120,395 C 112,337 104,279 92,213 C 115,295 126,335 126,335 L 129,280 C 129,325 136,354 140,390 L 126,457 C 121,458 118,458 118,458 Z" fill="#3B2077" id="id-80644"></path><path d=" M 46,166 C 46,187 46,198 46,198 C 68,269 91,336 115,390 C 105,335 93,281 81,213 C 84,205 86,200 86,200 C 74,161 68,142 68,142 C 66,111 65,96 65,96 C 54,132 48,151 48,151 C 68,173 78,185 78,185 L 75,198 C 56,176 46,166 46,166 Z" fill="#311B63" id="id-80645"></path><path d=" M 78,185 L 73,197 C 90,249 99,327 115,390 C 106,344 94,244 86,200 C 81,190 78,185 78,185 Z" fill="#2E185D" id="id-80646"></path><path d=" M 94,207 C 100,215 106,233 114,234 C 101,190 94,168 94,168 C 106,192 112,203 112,203 C 115,173 117,157 117,157 C 111,125 108,109 108,109 C 121,144 128,161 128,161 C 117,206 118,258 128,317 C 105,244 94,207 94,207 Z" fill="#311961" id="id-80647"></path><path d=" M 140,111 C 145,120 147,125 147,125 L 133,236 C 138,152 140,111 140,111 Z" fill="#341C69" id="id-80648"></path><path d=" M 132,281 C 148,186 155,138 155,138 C 170,124 177,116 177,116 C 218,135 238,144 238,144 L 260,46 C 297,73 342,74 394,27 L 405,0 C 411,6 422,9 431,15 C 422,59 360,88 302,120 C 341,123 360,125 360,125 C 437,80 475,57 475,57 C 513,71 532,78 532,78 C 544,78 551,78 551,78 C 558,84 562,87 562,87 C 555,94 552,97 552,97 C 545,158 542,189 542,189 C 532,192 528,193 528,193 C 533,125 535,92 535,92 C 518,114 509,125 509,125 C 517,179 521,206 521,206 C 413,365 359,445 359,445 C 447,427 491,418 491,418 C 483,484 484,557 491,634 C 402,780 357,853 357,853 C 304,847 252,841 214,850 L 230,796 L 173,616 L 206,490 L 177,392 L 166,237 L 148,268 C 138,277 132,281 132,281 Z" fill="url(#id-80628)" id="id-80649"></path><path d=" M 112,579 C 128,606 136,619 136,619 C 166,617 181,616 181,616 C 199,670 208,696 208,696 L 126,652 L 116,619 C 113,592 112,579 112,579 Z" fill="#422384" id="id-80650"></path><path d=" M 214,850 C 246,874 263,886 263,886 C 310,898 333,904 333,904 C 395,890 426,883 426,883 C 415,877 406,873 400,871 C 391,867 377,861 357,853 C 319,848 293,845 279,845 C 234,844 214,850 214,850 Z" fill="#321A64" id="id-80651"></path><path d=" M 357,853 C 403,873 426,883 426,883 C 466,847 485,829 485,829 C 509,750 520,711 520,711 L 507,651 L 491,634 C 402,780 357,853 357,853 Z" fill="#3F217E" id="id-80652"></path><path d=" M 485,829 C 496,776 516,728 531,677 C 545,707 552,722 552,722 L 548,765 C 506,808 485,829 485,829 Z" fill="#321A64" id="id-80653"></path><path d=" M 522,618 C 524,650 525,667 525,667 C 549,722 562,750 562,750 C 554,798 550,822 550,822 C 552,851 548,888 556,911 L 581,891 C 576,844 559,787 566,750 L 522,618 Z" fill="#2A1653" id="id-80654"></path><path d=" M 516,169 C 525,163 530,161 530,161 L 528,193 C 521,253 516,284 516,284 C 533,268 542,260 542,260 C 547,276 550,283 550,283 C 541,352 537,386 537,386 L 540,437 C 516,439 505,440 505,440 C 506,398 507,367 509,346 C 511,315 515,268 521,206 C 518,181 516,169 516,169 Z" fill="#321A64" id="id-80655"></path><path d=" M 528,193 C 523,202 521,206 521,206 L 516,283 C 524,223 528,193 528,193 Z" fill="#2A1653" id="id-80656"></path><path d=" M 539,437 C 535,370 539,323 547,284 C 543,265 535,262 544,192 C 559,174 567,166 567,166 L 610,416 C 562,430 539,436 539,437 Z" fill="#432387" id="id-80657"></path><path d=" M 521,206 L 486,296 C 492,331 491,376 491,418 L 502,440 C 509,358 514,304 516,278 C 520,230 521,206 521,206 Z" fill="#3B2077" id="id-80658"></path><path d=" M 594,132 C 585,206 608,305 636,408 L 644,401 C 624,316 608,226 594,132 Z" fill="#331B67" id="id-80659"></path><path d=" M 585,121 C 592,128 595,132 595,132 C 565,168 550,187 550,187 L 550,166 C 574,136 585,121 585,121 Z" fill="#4A2794" id="id-80660"></path><path d=" M 540,198 C 540,211 541,218 541,218 L 550,187 C 547,189 546,191 545,191 C 541,196 540,198 540,198 Z" fill="#2F195E" id="id-80661"></path><path d=" M 502,440 L 513,439 C 506,403 508,373 511,346 C 514,316 518,290 517,264 C 517,255 514,245 512,235 L 492,297 C 504,356 508,404 502,440 Z" fill="#432486" id="id-80662"></path><path d=" M 351,56 C 360,76 364,85 364,85 C 389,73 400,60 415,46 L 394,26 C 385,34 378,40 374,43 C 366,48 359,53 351,56 Z" fill="#552CAA" id="id-80663"></path><path d=" M 253,82 C 208,86 157,80 102,69 C 135,55 167,41 203,23 C 207,39 224,59 253,82 Z" fill="#391F72" id="id-80664"></path><path d=" M 223,55 C 242,74 252,83 252,83 L 277,86 C 260,84 242,74 223,55 Z" fill="#2E185C" id="id-80665"></path><path d=" M 109,109 L 89,118 L 94,168 L 112,203 L 116,156 C 111,125 109,109 109,109 Z" fill="#3B1E75" id="id-80666"></path><path d=" M 65,89 C 48,121 39,147 38,164 L 44,459 L 0,441 C 5,380 16,308 28,234 C 33,199 34,164 27,132 L 57,94 C 62,91 65,89 65,89 Z" fill="#28144F" id="id-80667"></path><path d=" M 28,132 C 38,140 43,144 43,144 L 40,156 L 31,149 C 29,138 28,132 28,132 Z" fill="#24134A" id="id-80668"></path><path d=" M 149,889 C 155,873 158,866 158,866 C 195,883 237,896 285,905 L 278,928 C 246,921 223,916 211,912 C 180,903 159,895 149,889 Z" fill="#4A2794" id="id-80669"></path><path d=" M 363,914 C 363,931 364,939 364,939 C 405,944 447,944 484,939 L 481,915 C 420,920 381,920 363,914 Z" fill="#47258F" id="id-80670"></path><path d=" M 524,934 C 521,916 520,907 520,907 C 542,897 552,893 552,893 L 556,911 L 524,934 Z" fill="#47258F" id="id-80671"></path></g><path d=" M 523,905 C 541,901 550,899 550,899 C 553,922 555,934 555,934 L 528,939 C 525,916 523,905 523,905 Z" fill="#EEEDF4" id="id-80672"></path><g transform=" translate(0,185)" id="id-80673"><g transform=" translate(604,0)" id="id-80632"><path d=" M 30,0 C 13,8 4,13 4,13 C 6,25 7,31 7,31 L 36,37 C 32,12 30,0 30,0 Z" fill="#EEEDF4" id="id-80675"></path><path d=" M 31,6 C 17,12 10,16 10,16 C 11,23 11,27 11,27 L 35,30 C 32,14 31,6 31,6 Z" fill="#131313" id="id-80676"></path><path d=" M 43,79 C 14,91 0,97 0,97 C 11,190 17,237 17,237 L 77,219 C 55,126 43,79 43,79 Z" fill="#EEEDF4" id="id-80677"></path><path d=" M 31,84 L 47,228 L 67,221 L 76,217 C 66,173 52,125 43,79 L 31,84 Z" fill="#EEEDF4" id="id-80678"></path><path d=" M 47,93 C 20,103 6,108 6,108 C 8,127 9,137 9,137 L 54,125 C 50,104 47,93 47,93 Z" fill="#131313" id="id-80679"></path><path d=" M 31,169 C 41,167 46,166 46,166 C 53,210 56,232 56,232 L 40,236 C 34,191 31,169 31,169 Z" fill="#595445" id="id-80680"></path><path d=" M 32,173 L 46,170 L 46,166 L 31,169 C 31,172 32,173 32,173 Z" fill="#91886B" id="id-80681"></path><path d=" M 37,217 C 36,217 35,217 35,217 C 33,202 32,195 32,195 C 44,189 51,186 51,186 C 54,204 55,212 55,212 C 54,213 53,213 53,213 C 52,204 51,200 51,200 L 36,205 C 37,213 37,217 37,217 Z" fill="#868B9F" id="id-80682"></path><path d=" M 35,194 C 43,195 46,195 46,195 L 51,186 C 40,191 35,194 35,194 Z" fill="#F3EFEF" id="id-80683"></path><path d=" M 69,229 C 60,186 56,164 56,164 C 63,162 67,161 67,161 L 79,226 C 72,228 69,229 69,229 Z" fill="#595445" id="id-80684"></path><path d=" M 65,210 C 63,211 63,211 63,211 C 59,193 58,185 58,185 C 67,181 72,180 72,180 C 73,189 74,194 74,194 L 63,198 C 64,206 65,210 65,210 Z" fill="#868B9F" id="id-80685"></path><path d=" M 68,196 C 66,187 65,182 65,182 C 70,180 72,180 72,180 L 75,194 C 70,196 68,196 68,196 Z" fill="#F3EFEF" id="id-80686"></path><path d=" M 56,164 C 57,167 57,168 57,168 C 64,166 68,165 68,165 L 67,161 C 60,163 56,164 56,164 Z" fill="#91886B" id="id-80687"></path></g><g transform=" translate(52,145) rotate(-4) translate(-52,-145) translate(9,9)" id="id-80688"><path d=" M 39,115 C 69,124 85,129 85,129 C 75,224 70,272 70,272 L 3,240 C 27,157 39,115 39,115 Z" fill="#EEEDF4" id="id-80689"></path><path d=" M 70,0 L 65,123 L 40,115 C 54,59 61,29 63,24 C 67,8 70,0 70,0 Z" fill="#000000" fill-opacity="0.137" id="id-80690"></path><path d=" M 35,128 C 62,135 75,139 75,139 L 73,152 L 49,152 C 46,161 41,169 36,177 C 32,177 27,177 21,177 C 30,144 35,128 35,128 Z" fill="#EE5798" id="id-80691"></path><path d=" M 38,196 C 49,198 55,198 55,198 C 46,244 41,267 41,267 L 23,260 C 33,218 38,196 38,196 Z" fill="#595446" id="id-80692"></path><path d=" M 27,193 C 18,235 13,256 13,256 C 4,252 0,251 0,251 L 15,191 C 23,192 27,193 27,193 Z" fill="#595446" id="id-80693"></path><path d=" M 10,212 C 20,215 26,216 26,216 C 23,230 22,236 22,236 C 19,236 17,235 17,235 C 19,228 19,225 19,225 L 7,223 C 9,216 10,212 10,212 Z" fill="#868B9F" id="id-80694"></path><path d=" M 13,196 C 22,197 27,198 27,198 C 27,195 27,193 27,193 L 15,191 C 14,195 13,196 13,196 Z" fill="#8B8368" id="id-80695"></path><path d=" M 37,201 C 48,202 54,203 54,203 C 55,200 55,198 55,198 L 38,196 C 37,199 37,201 37,201 Z" fill="#8B8368" id="id-80696"></path><path d=" M 28,238 C 26,238 25,237 25,237 C 28,224 30,218 30,218 C 46,223 54,225 54,225 C 51,237 50,243 50,243 C 48,242 46,242 46,242 C 47,236 48,233 48,233 L 31,228 C 29,235 28,238 28,238 Z" fill="#868B9F" id="id-80697"></path><path d=" M 13,224 C 15,217 16,214 16,214 C 11,213 9,212 9,212 L 7,223 C 11,224 13,224 13,224 Z" fill="#FFFFFF" id="id-80698"></path><path d=" M 30,218 C 34,223 36,225 36,225 L 54,225 C 38,220 30,218 30,218 Z" fill="#FFFFFF" id="id-80699"></path><path d=" M 61,15 C 71,18 77,20 77,20 C 76,39 76,49 76,49 C 73,59 71,64 71,64 L 52,58 C 58,29 61,15 61,15 Z" fill="#CFCFD6" id="id-80700"></path></g></g><g transform=" translate(233,187)" id="id-80701"><path d=" M 118,216 C 178,216 226,168 226,108 C 226,101 226,95 225,89 L 200,99 L 221,75 C 208,32 167,0 118,0 C 105,0 93,2 81,6 L 15,76 C 12,86 10,97 10,108 C 10,140 24,168 46,188 L 28,217 L 58,198 C 75,209 96,216 118,216 Z" stroke="#979797" fill="url(#id-80629)" id="id-80702"></path><path d=" M 0,80 L 64,10 C 48,17 35,25 24,37 C 14,48 6,63 0,80 Z" fill="url(#id-80630)" id="id-80703"></path><polygon points="65 110 120 22 172 110 119 144" fill="#687887" id="id-80704"></polygon><polygon points="120 22 172 110 119 144" fill="#232A35" id="id-80704"></polygon><polygon points="65 123 120 196 172 123 118 152" fill="#687887" id="id-80706"></polygon><polygon points="120 196 172 123 118 152" fill="#232A35" id="id-80706"></polygon><polygon points="65 110 119 87 172 110 119 144" fill="#0C0C1A" opacity="0.618" id="id-80704"></polygon></g></g><defs><linearGradient x1="11%" y1="23%" x2="57%" y2="61%" id="id-100192"><stop stop-color="#FFFFFF" offset="0%"></stop><stop stop-color="#FFFFFF" offset="100%" stop-opacity="0"></stop></linearGradient><linearGradient x1="75%" y1="50%" x2="71%" y2="50%" id="id-100193"><stop stop-color="#FFFFFF" offset="0%" stop-opacity="0.619"></stop><stop stop-color="#FFFFFF" offset="100%" stop-opacity="0.338"></stop></linearGradient><linearGradient x1="41%" y1="6%" x2="8%" y2="39%" id="id-100194"><stop stop-color="#F6F3F3" offset="0%"></stop><stop stop-color="#F5F2F2" offset="100%" stop-opacity="0.259"></stop></linearGradient><linearGradient x1="100%" y1="50%" x2="50%" y2="50%" id="id-100195"><stop stop-color="#FAF8F7" offset="0%"></stop><stop stop-color="#F4EEED" offset="100%" stop-opacity="0.429"></stop></linearGradient><linearGradient x1="50%" y1="0%" x2="50%" y2="100%" id="id-100196"><stop stop-color="#2B1013" offset="0%" stop-opacity="0"></stop><stop stop-color="#2B1013" offset="100%" stop-opacity="0.532"></stop></linearGradient></defs><g transform=" translate(566,311)" id="id-100197"><path d=" M 21,118 L 26,124 L 39,121 L 73,105 C 79,100 85,98 92,98 C 98,98 104,100 110,105 L 128,117 L 141,125 L 162,121 L 171,108 L 161,118 L 141,115 L 112,104 C 107,101 104,98 102,98 C 97,95 94,95 92,95 C 85,95 79,98 72,104 L 38,116 L 21,118 Z" fill="#000000" opacity="0.369" id="id-100198"></path><path d=" M 32,0 L 48,7 L 82,6 L 46,10 C 44,9 42,8 40,6 C 38,5 35,3 32,0 Z" fill="#000000" opacity="0.278" id="id-100199"></path><path d=" M 121,8 L 133,8 L 144,5 L 138,10 C 135,10 132,10 130,9 C 128,9 125,9 121,8 Z" fill="#000000" opacity="0.278" id="id-100199"></path><path d=" M 73,50 C 77,52 79,57 79,62 C 72,62 67,70 67,70 L 64,69 C 72,63 75,57 73,50 Z" fill="#2B1013" id="id-100201"></path><path d=" M 25,5 C 25,21 15,45 14,63 C 14,90 20,117 20,117 C 14,110 9,104 5,100 C 15,98 10,77 11,54 C 14,32 20,21 19,11 C 21,8 23,7 25,5 Z" fill="#2B1013" opacity="0.597" id="id-100202"></path><path d=" M 143,118 L 112,106 C 98,89 82,93 72,104 C 49,113 38,118 38,118 C 26,118 20,119 20,119 C 7,104 0,97 0,97 C -1,70 2,43 9,17 C 19,7 31,0 31,0 C 37,4 42,8 46,10 C 102,0 122,10 137,10 C 143,7 151,0 151,0 C 161,7 169,12 173,17 C 180,56 182,67 182,98 C 177,103 170,110 162,118 C 149,118 143,118 143,118 Z" fill="#FFFFFF" fill-opacity="0.262" id="id-100203"></path><path d=" M 47,10 C 69,5 91,4 111,6 L 77,7 C 54,9 45,10 47,10 Z" fill="#F9F7F5" id="id-100204"></path><path d=" M 71,8 C 70,22 73,34 78,44 C 75,45 67,48 65,63 C 60,59 55,51 42,54 C 41,49 42,45 32,45 C 42,38 47,27 46,10 L 71,8 Z" fill="#2B1013" fill-opacity="0.348" id="id-100205"></path><path d=" M 17,59 C 21,52 26,46 34,41 L 51,41 L 36,34 C 32,23 31,17 31,17 L 30,28 C 22,38 17,48 17,59 Z" fill="#FFFFFF" fill-opacity="0.667" id="id-100206"></path><path d=" M 23,116 C 27,116 29,115 35,115 C 29,108 22,89 18,75 C 18,84 23,101 23,116 Z" fill="#F9F6F4" fill-opacity="0.514" id="id-100207"></path><path d=" M 75,75 C 72,81 70,84 70,84 C 67,75 58,71 46,71 C 39,71 25,79 20,79 C 25,72 29,65 46,63 C 58,62 66,66 70,75 C 73,75 75,75 75,75 Z" fill="#EBE0DD" fill-opacity="0.535" id="id-100208"></path><path d=" M 93,61 C 86,62 81,65 80,67 L 79,58 C 81,61 86,62 93,61 Z" fill="#D0B6AD" id="id-100209"></path><path d=" M 93,57 C 96,66 98,67 105,76 C 105,87 106,95 108,101 C 105,99 102,98 101,97 C 100,97 98,96 95,95 C 92,85 92,72 93,57 Z" fill="#C99E98" fill-opacity="0.760" id="id-100210"></path><path d=" M 109,86 C 113,84 115,84 115,84 C 137,90 147,93 147,93 L 134,111 C 118,95 109,86 109,86 Z" fill="url(#id-100192)" id="id-100211"></path><path d=" M 107,83 C 106,80 106,79 105,76 C 109,72 111,69 116,66 C 135,53 154,67 160,72 C 163,73 167,72 167,72 C 161,76 158,78 158,78 C 156,76 153,75 150,76 C 146,73 139,70 131,71 C 124,71 114,72 107,83 Z" fill="url(#id-100193)" id="id-100212"></path><path d=" M 133,72 C 130,75 129,76 129,76 C 132,80 133,81 133,81 L 137,77 C 134,74 133,72 133,72 Z" fill="#B5FF16" id="id-100213"></path><path d=" M 43,73 C 44,73 44,74 44,74 L 40,79 L 44,83 C 44,83 44,84 44,84 L 43,84 C 43,84 43,84 42,84 L 42,84 L 38,79 C 38,79 38,78 38,78 L 42,73 C 42,72 43,72 43,73 Z" fill="#B5FE18" id="id-100214" fill-rule="nonzero"></path><path d=" M 2,70 C 3,70 3,70 3,70 L 3,70 L 14,93 L 24,93 L 22,79 C 22,79 23,78 23,78 L 39,78 C 39,78 40,78 40,79 C 40,79 39,79 39,79 L 24,80 L 26,94 C 26,94 26,95 25,95 L 25,95 L 14,95 C 13,95 13,95 13,94 L 13,94 L 2,71 C 1,71 2,70 2,70 Z" fill="#B5FE18" id="id-100215" fill-rule="nonzero"></path><path d=" M 143,118 C 147,118 154,118 162,118 C 175,105 182,98 182,98 C 182,94 182,92 182,92 L 169,69 L 151,88 L 135,93 C 138,104 140,113 143,118 Z" fill="#FFFFFF" fill-opacity="0.220" id="id-100216"></path><path d=" M 162,117 C 158,118 149,116 149,116 C 153,114 157,111 160,106 C 162,93 168,69 168,71 C 169,74 161,108 162,117 Z" fill="#F4F3F3" fill-opacity="0.615" id="id-100217"></path><path d=" M 130,9 C 132,14 133,20 133,28 C 141,7 144,7 144,7 C 147,9 148,10 148,10 C 150,5 152,3 152,3 L 172,18 L 179,54 C 177,39 176,27 173,17 C 168,11 160,6 151,0 L 137,10 C 133,10 130,9 130,9 Z" fill="url(#id-100194)" id="id-100218"></path><path d=" M 152,3 C 149,8 148,10 148,10 L 149,35 L 182,93 C 182,63 178,38 172,19 C 167,14 160,9 152,3 Z" fill="#FFFFFF" fill-opacity="0.525" id="id-100219"></path><path d=" M 160,55 C 154,47 151,43 151,43 C 123,44 105,45 95,48 C 87,45 78,44 78,44 C 77,40 76,37 76,37 C 80,40 82,42 82,42 C 98,33 106,28 106,28 C 110,32 116,37 122,42 C 132,41 140,39 149,35 C 157,48 160,55 160,55 Z" fill="url(#id-100195)" id="id-100220"></path><path d=" M 152,45 C 155,48 157,51 160,55 C 156,56 152,60 149,64 L 145,61 C 150,56 152,51 152,45 Z" fill="#485B82" fill-opacity="0.688" id="id-100221"></path><path d=" M 122,42 C 142,35 139,22 139,13 C 141,10 142,8 144,7 L 148,10 L 149,35 C 140,39 131,42 122,42 Z" fill="#E8DEDE" fill-opacity="0.380" id="id-100222"></path><path d=" M 19,11 C 18,11 16,14 16,14 C 17,16 17,21 17,27 C 18,23 19,15 19,11 Z" fill="#EDE7E6" id="id-100223"></path><path d=" M 78,99 C 79,92 80,81 82,66 C 89,81 92,90 92,95 C 89,95 86,96 84,96 C 83,97 81,98 78,99 Z" fill="url(#id-100196)" id="id-100224"></path><ellipse cx="147" cy="72" fill="#B5FF16" id="id-100225" rx="1" ry="1"></ellipse><ellipse cx="148" cy="78" fill="#B5FF16" id="id-100226" rx="1" ry="2"></ellipse><path d=" M 28,2 C 23,7 18,12 13,17 C -2,50 2,97 2,97 C 14,110 20,117 20,117 C 32,115 38,114 38,114 L 72,102 C 80,97 87,94 93,95 C 82,97 75,100 72,105 L 38,118 L 20,119 L 0,97 C -1,72 2,45 9,17 C 17,8 28,2 28,2 Z" fill="#FDFCFC" id="id-100227"></path><path d=" M 90,96 C 90,91 91,84 91,76 C 93,87 94,93 94,94 C 104,97 110,100 111,102 C 112,103 122,107 144,114 L 162,116 L 179,101 L 162,119 C 149,118 143,118 143,118 C 123,111 112,107 112,106 C 106,97 97,96 90,96 Z" fill="#FFFFFF" id="id-100228"></path><ellipse transform=" translate(145,85) rotate(30) translate(-145,-85)" cx="145" cy="85" fill="#B5FF16" id="id-100229" rx="1" ry="2"></ellipse><ellipse transform=" translate(139,90) rotate(60) translate(-139,-90)" cx="139" cy="90" fill="#B5FF16" id="id-100230" rx="1" ry="2"></ellipse><path d=" M 147,62 L 168,68 L 180,62 C 180,62 181,62 181,63 L 181,63 C 181,63 181,64 181,64 L 181,64 L 168,70 C 168,70 168,70 168,70 L 147,64 L 140,71 C 140,71 139,71 139,71 C 138,70 138,70 139,69 L 146,62 C 147,62 147,62 147,62 Z" fill="#B5FF16" id="id-100231" fill-rule="nonzero"></path><path d=" M 179,58 C 180,57 180,58 180,58 C 181,59 181,59 180,59 L 180,59 L 168,65 C 167,65 167,65 167,65 C 166,64 167,64 167,64 L 167,64 L 179,58 Z" fill="#B5FF16" id="id-100232" fill-rule="nonzero"></path><path d=" M 179,53 C 179,52 180,53 180,53 C 180,54 180,54 180,54 L 179,54 L 172,57 C 172,58 171,57 171,57 C 171,56 171,56 172,56 L 172,56 L 179,53 Z" fill="#B5FF16" id="id-100233" fill-rule="nonzero"></path><path d=" M 133,68 C 127,68 123,72 123,78 C 123,83 127,88 133,88 C 138,88 143,83 143,78 C 143,72 138,68 133,68 Z M 133,70 C 137,70 141,73 141,78 C 141,82 137,86 133,86 C 128,86 125,82 125,78 C 125,73 128,70 133,70 Z" fill="#B5FF16" id="id-100225" fill-rule="nonzero"></path><path d=" M 94,17 C 102,10 105,6 105,6 C 103,4 102,4 102,4 C 90,3 84,3 84,3 L 83,6 C 90,14 94,17 94,17 Z" fill="#4C374D" id="id-100235"></path><path d=" M 84,6 C 86,9 93,15 93,15 L 103,6 C 93,6 87,6 84,6 Z" fill="#200000" id="id-100236"></path><path d=" M 88,9 C 87,7 86,6 86,6 C 89,6 91,6 91,6 C 91,6 91,7 91,7 L 89,7 C 88,8 88,9 88,9 Z" fill="#978986" id="id-100237"></path><path d=" M 93,10 C 97,7 98,6 98,6 L 90,6 C 92,9 93,10 93,10 Z" fill="#A3E013" id="id-100238"></path></g><defs><linearGradient x1="62%" y1="50%" x2="0%" y2="50%" id="id-103136"><stop stop-color="#F70478" offset="0%"></stop><stop stop-color="#B4003A" offset="100%"></stop></linearGradient></defs><g transform=" translate(551,252)" id="id-103137"><path d=" M 14,98 C 78,64 145,65 201,98 C 200,86 199,74 198,62 C 205,44 212,23 221,0 C 198,11 178,20 171,24 C 149,5 93,-19 43,30 C 26,20 15,11 0,1 C 3,14 9,38 18,74 C 17,82 15,90 14,98 Z" fill="url(#id-103136)" id="id-103138"></path><path d=" M 144,75 C 165,79 182,87 201,98 C 200,86 199,74 198,62 C 205,44 212,23 221,0 C 198,11 178,20 171,24 C 161,15 143,6 124,2 C 101,-2 179,40 144,75 Z" fill="#FF5BA8" id="id-103138"></path><path d=" M 23,60 C 27,50 32,42 37,36 C 29,29 19,22 7,12 L 23,60 Z" fill="#6A0032" id="id-103140"></path><path d=" M 177,29 L 213,10 C 205,27 199,42 194,53 C 191,46 185,38 177,29 Z" fill="#BF005A" id="id-103141"></path></g><defs></defs><path d=" M 1202,1685 C 1201,1683 1198,1681 1197,1679 C 1196,1678 1196,1676 1196,1675 C 1196,1674 1194,1672 1193,1671 C 1193,1670 1192,1669 1192,1668 C 1192,1667 1195,1666 1196,1665 C 1198,1663 1200,1661 1202,1658 C 1207,1649 1216,1643 1226,1641 C 1240,1638 1254,1644 1263,1655 C 1264,1657 1266,1660 1265,1663 C 1265,1664 1263,1665 1263,1666 C 1263,1667 1265,1669 1266,1670 C 1271,1673 1269,1673 1270,1678 C 1270,1682 1274,1681 1274,1685 L 1274,1685 L 1274,1686 C 1274,1686 1274,1686 1274,1686 C 1273,1688 1271,1688 1270,1689 C 1268,1691 1267,1692 1266,1694 C 1263,1698 1261,1700 1258,1704 C 1242,1719 1214,1716 1202,1696 C 1201,1695 1199,1691 1200,1689 C 1201,1688 1202,1688 1202,1685 L 1202,1685 Z M 1268,1685 C 1267,1682 1265,1682 1264,1679 C 1264,1678 1264,1677 1264,1676 C 1264,1675 1264,1674 1264,1674 C 1264,1673 1263,1672 1262,1672 C 1260,1670 1256,1669 1258,1665 C 1259,1662 1261,1662 1258,1658 C 1246,1643 1223,1641 1210,1656 C 1209,1658 1208,1659 1207,1661 C 1205,1663 1202,1665 1200,1667 C 1197,1669 1197,1669 1200,1671 C 1203,1675 1201,1676 1203,1679 C 1204,1681 1207,1682 1208,1685 L 1208,1685 L 1208,1685 C 1207,1690 1203,1688 1207,1694 C 1216,1706 1232,1711 1246,1705 C 1249,1704 1252,1702 1255,1699 C 1257,1697 1259,1694 1261,1691 C 1263,1689 1267,1687 1268,1685 L 1268,1685 Z M 1254,1685 C 1254,1682 1252,1682 1252,1680 C 1251,1677 1251,1673 1255,1674 C 1258,1675 1256,1678 1258,1680 C 1259,1682 1260,1682 1260,1685 L 1261,1686 L 1260,1686 C 1259,1688 1257,1689 1255,1690 C 1248,1694 1246,1699 1237,1700 C 1231,1701 1225,1700 1221,1697 C 1219,1696 1216,1694 1215,1692 C 1213,1689 1216,1688 1216,1685 C 1215,1683 1212,1682 1211,1680 C 1208,1677 1210,1673 1214,1674 L 1214,1674 L 1215,1675 C 1216,1678 1215,1679 1217,1681 C 1219,1682 1222,1683 1222,1686 C 1222,1689 1220,1690 1224,1692 C 1230,1696 1238,1695 1244,1691 C 1246,1690 1253,1687 1254,1685 L 1254,1685 Z M 1244,1674 C 1242,1675 1239,1674 1237,1673 C 1236,1672 1233,1670 1232,1669 C 1231,1669 1231,1668 1231,1667 C 1231,1666 1233,1665 1234,1664 C 1235,1662 1237,1661 1238,1659 C 1242,1652 1249,1658 1247,1663 C 1246,1665 1243,1666 1243,1668 C 1243,1670 1246,1671 1244,1674 L 1244,1674 L 1244,1674 L 1244,1674 Z M 1222,1656 C 1224,1655 1227,1656 1228,1659 C 1229,1660 1229,1661 1229,1663 C 1228,1665 1223,1666 1225,1669 C 1225,1670 1226,1670 1226,1671 C 1227,1674 1226,1675 1223,1675 C 1222,1675 1219,1673 1218,1672 C 1216,1671 1212,1669 1214,1666 C 1215,1664 1217,1664 1218,1662 C 1219,1660 1220,1658 1222,1656 L 1222,1656 Z" fill="#343D53" opacity="0.297" id="id-77051"></path></svg>