<?xml version="1.0" encoding="UTF-8"?><svg width="1320px" height="1760px" viewBox="0 0 1320 1760" version="1.1" xmlns="http://www.w3.org/2000/svg" xmlns:xlink="http://www.w3.org/1999/xlink"><defs></defs><g stroke="none" stroke-width="1" fill="none" id="id-32995" fill-rule="evenodd"><g id="id-32996"><rect fill="#111112" width="1320" height="1760" x="0" y="0" id="id-32997"></rect><path d=" M 544,357 C 544,359 544,360 544,360 C 543,359 542,359 542,359 C 541,357 541,355 541,355 C 538,351 534,346 527,345 C 512,336 498,333 487,339 C 473,340 466,348 458,353 C 452,359 445,367 439,377 C 438,380 438,381 438,381 C 432,390 425,410 417,439 L 417,443 C 412,459 409,483 406,508 C 404,525 403,544 402,567 C 403,570 403,571 403,571 C 402,572 401,573 401,573 C 401,585 401,591 401,591 C 402,594 403,595 403,595 C 402,597 401,598 401,598 C 401,602 401,605 401,605 C 401,620 401,627 401,627 C 403,632 403,635 403,635 C 402,638 401,639 401,639 C 403,669 403,684 403,684 C 404,691 405,695 405,695 C 407,696 407,697 407,697 C 406,700 405,702 405,702 C 406,709 406,713 406,713 C 407,715 408,716 408,716 C 408,720 408,722 408,722 C 409,724 410,725 410,725 C 408,726 407,727 407,727 C 408,735 408,739 408,739 C 409,740 410,740 410,740 C 410,750 410,754 410,754 C 411,756 412,757 412,757 C 413,769 414,776 414,776 C 415,778 416,779 416,779 C 415,781 414,782 414,782 C 415,797 417,809 420,818 C 422,820 422,822 422,822 C 421,824 421,825 421,825 C 422,840 424,851 427,859 C 426,870 428,881 433,892 C 434,897 432,904 436,906 C 435,912 435,918 438,922 C 438,932 440,935 441,938 C 443,934 443,932 443,932 C 446,938 448,941 448,941 C 444,942 442,943 442,943 C 442,945 442,947 442,947 C 446,971 449,984 449,984 C 450,985 451,986 451,986 C 456,1001 458,1009 458,1009 C 457,1014 457,1017 457,1017 C 461,1031 463,1039 463,1039 C 467,1044 469,1046 469,1046 C 470,1052 471,1055 471,1055 C 470,1063 469,1066 469,1066 C 472,1070 474,1072 474,1072 C 474,1078 474,1081 474,1081 C 476,1085 476,1087 476,1087 C 477,1092 477,1095 477,1095 C 480,1102 481,1105 481,1105 C 482,1111 482,1117 485,1122 C 486,1130 487,1134 487,1134 C 495,1138 499,1140 499,1140 C 496,1146 495,1149 495,1149 C 496,1154 496,1156 496,1156 C 499,1159 501,1160 501,1160 C 501,1164 499,1165 503,1173 C 504,1182 504,1186 504,1186 C 507,1190 509,1192 509,1192 C 512,1197 513,1200 513,1200 C 513,1205 513,1207 513,1207 C 515,1217 518,1222 522,1226 C 522,1230 523,1232 523,1232 C 525,1236 526,1238 526,1238 C 526,1244 527,1248 527,1248 C 529,1252 530,1254 530,1254 C 531,1259 532,1261 532,1261 C 534,1267 535,1269 535,1269 C 536,1275 536,1277 536,1277 C 539,1283 541,1285 541,1285 C 543,1286 545,1286 545,1286 C 545,1291 545,1293 545,1293 C 550,1307 552,1314 552,1314 C 556,1319 557,1321 557,1321 C 558,1327 558,1331 558,1331 C 561,1335 563,1337 563,1337 C 563,1343 563,1346 563,1346 L 573,1356 C 573,1362 573,1366 573,1366 C 575,1367 577,1368 577,1368 C 584,1384 587,1393 587,1393 C 588,1397 588,1399 588,1399 C 590,1400 591,1400 591,1400 C 601,1419 606,1428 606,1428 C 608,1434 609,1437 609,1437 C 611,1438 612,1438 612,1438 C 613,1443 613,1445 613,1445 C 617,1449 618,1450 618,1450 C 620,1451 621,1451 621,1451 C 622,1458 622,1462 622,1462 C 624,1464 625,1465 625,1465 C 627,1468 627,1470 627,1470 C 635,1482 638,1487 638,1487 C 640,1492 641,1494 641,1494 C 654,1514 661,1524 661,1524 C 663,1526 664,1526 664,1526 C 666,1531 666,1533 666,1533 C 670,1538 672,1540 672,1540 C 673,1544 673,1546 673,1546 C 676,1546 677,1547 677,1547 C 680,1551 682,1554 682,1554 C 684,1558 686,1560 686,1560 C 687,1563 688,1565 688,1565 C 692,1567 694,1567 694,1567 C 698,1574 700,1578 700,1578 C 706,1582 709,1583 709,1583 C 719,1597 735,1611 752,1625 C 757,1625 759,1625 759,1625 C 764,1630 766,1635 776,1637 C 800,1650 844,1649 857,1636 C 883,1622 906,1597 918,1556 C 920,1551 921,1549 921,1549 C 922,1543 922,1540 922,1540 C 924,1533 925,1530 925,1530 C 927,1526 928,1525 928,1525 C 931,1505 933,1495 933,1495 C 935,1466 936,1452 936,1452 C 937,1447 937,1445 937,1445 C 940,1338 933,1230 913,1120 C 912,1115 911,1113 911,1113 C 911,1107 911,1104 911,1104 C 907,1096 906,1092 906,1092 C 906,1086 906,1083 906,1083 C 903,1077 902,1074 902,1074 C 902,1067 902,1064 902,1064 C 899,1058 897,1055 897,1055 C 887,1021 882,1005 882,1005 C 881,1002 880,1000 880,1000 C 879,996 878,994 878,994 C 870,969 866,956 866,956 C 858,937 853,927 853,927 C 850,917 849,912 849,912 C 839,884 834,870 834,870 C 828,873 824,875 824,875 C 835,906 840,922 840,922 C 840,929 840,933 840,933 C 843,937 844,939 844,939 C 844,944 844,947 844,947 C 847,950 849,952 849,952 C 849,959 849,962 849,962 C 852,968 853,971 853,971 C 853,975 853,977 853,977 C 856,978 858,979 858,979 C 858,983 859,986 859,986 C 860,995 860,999 860,999 C 864,1006 860,1010 866,1018 C 867,1028 867,1032 867,1032 C 869,1036 870,1038 870,1038 C 873,1048 875,1054 875,1054 C 876,1065 876,1070 876,1070 C 880,1074 881,1075 881,1075 C 883,1090 884,1097 884,1097 C 891,1118 897,1151 903,1190 C 902,1195 902,1197 902,1197 C 905,1209 908,1231 911,1248 C 912,1257 912,1262 912,1262 C 911,1271 911,1276 911,1276 C 914,1285 915,1290 915,1290 C 915,1298 915,1301 915,1301 C 915,1310 916,1314 916,1314 C 916,1322 916,1326 916,1326 C 917,1334 917,1338 917,1338 C 918,1352 919,1359 919,1359 C 920,1366 920,1370 920,1370 C 918,1427 918,1455 918,1455 C 918,1460 919,1463 919,1463 C 917,1465 916,1466 916,1466 C 908,1543 891,1604 849,1623 C 834,1627 822,1628 812,1627 C 808,1624 806,1623 806,1623 C 794,1622 783,1616 770,1608 C 750,1597 727,1568 705,1549 C 704,1545 704,1543 704,1543 C 694,1532 689,1527 689,1527 C 688,1523 688,1522 688,1522 C 680,1510 676,1505 676,1505 C 677,1500 677,1498 677,1498 C 673,1499 671,1499 671,1499 C 657,1479 650,1469 650,1469 C 651,1467 652,1467 652,1467 C 645,1458 642,1453 642,1453 C 635,1442 632,1436 632,1436 C 634,1432 636,1430 636,1430 C 631,1430 629,1430 629,1430 C 614,1402 607,1389 607,1389 C 590,1350 582,1331 582,1331 C 575,1314 571,1305 571,1305 C 562,1285 558,1275 558,1275 C 558,1269 558,1266 558,1266 C 550,1248 545,1238 545,1238 C 531,1199 524,1179 524,1179 C 524,1172 524,1169 524,1169 C 512,1147 503,1115 495,1081 C 491,1071 489,1067 489,1067 C 486,1054 484,1048 484,1048 C 481,1030 479,1021 479,1021 C 478,1013 477,1009 477,1009 C 472,995 470,988 470,988 C 468,974 467,967 467,967 C 463,955 461,949 461,949 C 460,935 456,917 450,895 C 449,891 449,888 449,888 C 447,882 446,879 446,879 C 447,872 447,869 447,869 C 445,867 444,866 444,866 C 445,862 446,859 446,859 C 444,856 443,855 443,855 C 444,853 444,852 444,852 C 441,846 440,844 440,844 C 442,840 443,838 443,838 C 441,833 440,831 440,831 C 441,828 441,826 441,826 C 440,819 439,812 436,807 C 437,804 437,802 437,802 C 434,797 433,794 433,794 C 433,783 434,770 431,762 C 431,756 431,750 428,746 C 427,738 428,730 424,722 C 429,698 425,685 421,673 C 421,671 421,670 421,670 C 422,664 422,661 422,661 C 423,657 423,655 423,655 C 425,648 424,641 420,636 C 420,630 420,627 420,627 L 418,624 C 420,619 420,615 418,612 C 421,606 423,604 423,604 C 419,599 417,597 417,597 C 421,592 422,589 422,589 C 422,581 422,577 422,577 C 421,575 420,573 420,573 C 421,569 422,566 422,566 C 420,559 419,555 419,555 C 421,550 422,548 422,548 C 422,539 421,529 422,511 C 425,507 427,505 427,505 C 426,501 426,499 426,499 C 435,425 450,366 485,353 C 497,349 511,355 532,373 C 534,377 535,378 535,378 C 537,378 539,378 539,378 C 560,401 583,430 609,476 C 611,478 612,479 612,479 C 624,501 629,512 629,512 C 644,512 652,511 652,511 C 644,497 640,490 640,490 C 639,487 639,486 639,486 C 637,483 636,481 636,481 C 634,475 629,468 625,461 C 623,457 623,455 623,455 C 617,446 614,441 614,441 C 613,438 613,436 613,436 C 607,430 604,427 604,427 C 603,424 603,423 603,423 C 592,411 587,406 587,406 C 586,404 586,402 586,402 C 584,401 583,400 583,400 C 581,392 576,385 568,379 C 564,373 561,368 553,362 C 549,358 547,356 544,357 Z" transform=" translate(669,991) rotate(-38) translate(-669,-991)" fill="#B6DD21" id="id-32998"></path><rect fill="#FA1800" width="37" height="134" x="0" y="0" id="id-32997"></rect><rect fill="#FA1800" width="37" height="134" x="0" y="813" id="id-32997"></rect><rect fill="#FA1800" width="37" height="134" x="0" y="1626" id="id-32997"></rect></g></g><defs><linearGradient x1="50%" y1="6%" x2="50%" y2="100%" id="id-110524"><stop stop-color="#B37355" offset="0%"></stop><stop stop-color="#C58B67" offset="8%"></stop><stop stop-color="#A5684C" offset="20%"></stop><stop stop-color="#975844" offset="34%"></stop><stop stop-color="#934F3C" offset="71%"></stop><stop stop-color="#602521" offset="100%"></stop></linearGradient><linearGradient x1="50%" y1="-10%" x2="50%" y2="84%" id="id-110525"><stop stop-color="#A86549" offset="0%"></stop><stop stop-color="#C1845E" offset="49%"></stop><stop stop-color="#AB6A54" offset="100%"></stop></linearGradient><linearGradient x1="57%" y1="50%" x2="47%" y2="56%" id="id-110526"><stop stop-color="#7A3A33" offset="0%"></stop><stop stop-color="#783731" offset="100%"></stop></linearGradient><linearGradient x1="45%" y1="35%" x2="55%" y2="47%" id="id-110527"><stop stop-color="#A66552" offset="0%"></stop><stop stop-color="#824237" offset="100%"></stop></linearGradient><linearGradient x1="54%" y1="31%" x2="47%" y2="81%" id="id-110528"><stop stop-color="#A5684E" offset="0%"></stop><stop stop-color="#A7644C" offset="20%"></stop><stop stop-color="#8A4938" offset="71%"></stop><stop stop-color="#854739" offset="81%"></stop><stop stop-color="#824036" offset="100%"></stop></linearGradient><linearGradient x1="43%" y1="38%" x2="54%" y2="44%" id="id-110529"><stop stop-color="#AA6548" offset="0%"></stop><stop stop-color="#9E5B43" offset="100%"></stop></linearGradient><linearGradient x1="46%" y1="8%" x2="58%" y2="82%" id="id-110530"><stop stop-color="#C9906F" offset="0%"></stop><stop stop-color="#A45848" offset="100%"></stop></linearGradient><linearGradient x1="50%" y1="41%" x2="49%" y2="65%" id="id-110531"><stop stop-color="#622B30" offset="0%"></stop><stop stop-color="#A8594B" offset="27%"></stop><stop stop-color="#AB6F54" offset="100%"></stop></linearGradient><linearGradient x1="63%" y1="4%" x2="25%" y2="77%" id="id-110532"><stop stop-color="#D2A185" offset="0%"></stop><stop stop-color="#D5A88F" offset="55%"></stop><stop stop-color="#B97A5D" offset="100%"></stop></linearGradient><linearGradient x1="50%" y1="23%" x2="41%" y2="77%" id="id-110533"><stop stop-color="#7F3531" offset="0%"></stop><stop stop-color="#9D4D4C" offset="100%"></stop></linearGradient><linearGradient x1="47%" y1="22%" x2="55%" y2="89%" id="id-110534"><stop stop-color="#B57159" offset="0%"></stop><stop stop-color="#BC8971" offset="100%"></stop></linearGradient><linearGradient x1="86%" y1="87%" x2="11%" y2="66%" id="id-110535"><stop stop-color="#9E5C4A" offset="0%"></stop><stop stop-color="#8C4E40" offset="100%"></stop></linearGradient><linearGradient x1="71%" y1="11%" x2="50%" y2="100%" id="id-110536"><stop stop-color="#B27255" offset="0%"></stop><stop stop-color="#A5684C" offset="100%" stop-opacity="0"></stop></linearGradient><linearGradient x1="66%" y1="46%" x2="56%" y2="43%" id="id-110537"><stop stop-color="#8E5040" offset="0%"></stop><stop stop-color="#7D403A" offset="100%"></stop></linearGradient><linearGradient x1="100%" y1="41%" x2="50%" y2="63%" id="id-110538"><stop stop-color="#712725" offset="0%"></stop><stop stop-color="#732825" offset="100%"></stop></linearGradient><linearGradient x1="69%" y1="20%" x2="50%" y2="100%" id="id-110539"><stop stop-color="#925342" offset="0%"></stop><stop stop-color="#9D5A48" offset="100%"></stop></linearGradient><linearGradient x1="36%" y1="20%" x2="57%" y2="81%" id="id-110540"><stop stop-color="#B07254" offset="0%"></stop><stop stop-color="#B37355" offset="100%"></stop></linearGradient><linearGradient x1="26%" y1="83%" x2="92%" y2="50%" id="id-110541"><stop stop-color="#C48864" offset="0%" stop-opacity="0"></stop><stop stop-color="#C38B6B" offset="99%"></stop></linearGradient><linearGradient x1="17%" y1="56%" x2="85%" y2="45%" id="id-110542"><stop stop-color="#D0A183" offset="0%" stop-opacity="0"></stop><stop stop-color="#D0A183" offset="51%"></stop><stop stop-color="#C68E6E" offset="100%"></stop></linearGradient><linearGradient x1="17%" y1="24%" x2="74%" y2="87%" id="id-110543"><stop stop-color="#C78E6C" offset="0%"></stop><stop stop-color="#B87755" offset="100%"></stop></linearGradient><linearGradient x1="26%" y1="42%" x2="80%" y2="75%" id="id-110544"><stop stop-color="#D9B09C" offset="0%"></stop><stop stop-color="#D5A88F" offset="100%" stop-opacity="0"></stop></linearGradient><linearGradient x1="29%" y1="56%" x2="77%" y2="50%" id="id-110545"><stop stop-color="#CDA484" offset="0%"></stop><stop stop-color="#CB9D7C" offset="100%" stop-opacity="0"></stop></linearGradient><linearGradient x1="74%" y1="24%" x2="34%" y2="74%" id="id-110546"><stop stop-color="#C38260" offset="0%"></stop><stop stop-color="#C58865" offset="100%"></stop></linearGradient><linearGradient x1="66%" y1="100%" x2="40%" y2="0%" id="id-110547"><stop stop-color="#BC7A58" offset="0%"></stop><stop stop-color="#D7AA98" offset="46%"></stop><stop stop-color="#C28360" offset="100%"></stop></linearGradient><linearGradient x1="52%" y1="13%" x2="59%" y2="75%" id="id-110548"><stop stop-color="#92463B" offset="0%"></stop><stop stop-color="#AF684F" offset="100%"></stop></linearGradient><linearGradient x1="28%" y1="76%" x2="73%" y2="20%" id="id-110549"><stop stop-color="#B87356" offset="0%"></stop><stop stop-color="#91453A" offset="67%"></stop><stop stop-color="#A15745" offset="100%"></stop></linearGradient><linearGradient x1="50%" y1="0%" x2="50%" y2="100%" id="id-110550"><stop stop-color="#9A5242" offset="0%"></stop><stop stop-color="#6C2B27" offset="100%"></stop></linearGradient><linearGradient x1="66%" y1="59%" x2="24%" y2="66%" id="id-110551"><stop stop-color="#A36149" offset="0%"></stop><stop stop-color="#C07F5D" offset="100%"></stop></linearGradient><linearGradient x1="41%" y1="11%" x2="55%" y2="61%" id="id-110552"><stop stop-color="#CD9781" offset="0%"></stop><stop stop-color="#B4705C" offset="100%"></stop></linearGradient><linearGradient x1="19%" y1="58%" x2="66%" y2="43%" id="id-110553"><stop stop-color="#D3A389" offset="0%"></stop><stop stop-color="#C38761" offset="100%"></stop></linearGradient><linearGradient x1="73%" y1="50%" x2="30%" y2="53%" id="id-110554"><stop stop-color="#9B5F42" offset="0%"></stop><stop stop-color="#B67B61" offset="100%"></stop></linearGradient><linearGradient x1="31%" y1="0%" x2="50%" y2="100%" id="id-110555"><stop stop-color="#D5A897" offset="0%"></stop><stop stop-color="#D1A08E" offset="100%"></stop></linearGradient><linearGradient x1="29%" y1="43%" x2="65%" y2="100%" id="id-110556"><stop stop-color="#D29D85" offset="0%"></stop><stop stop-color="#C18265" offset="100%"></stop></linearGradient><linearGradient x1="13%" y1="78%" x2="84%" y2="50%" id="id-110557"><stop stop-color="#B77456" offset="0%"></stop><stop stop-color="#AA6244" offset="100%"></stop></linearGradient><linearGradient x1="50%" y1="0%" x2="36%" y2="100%" id="id-110558"><stop stop-color="#D1A187" offset="0%"></stop><stop stop-color="#CC957E" offset="100%"></stop></linearGradient><linearGradient x1="50%" y1="28%" x2="64%" y2="55%" id="id-110559"><stop stop-color="#CF9D80" offset="0%"></stop><stop stop-color="#C38869" offset="100%"></stop></linearGradient><linearGradient x1="40%" y1="55%" x2="62%" y2="71%" id="id-110560"><stop stop-color="#B47251" offset="0%"></stop><stop stop-color="#BA7B58" offset="100%"></stop></linearGradient><linearGradient x1="9%" y1="37%" x2="88%" y2="55%" id="id-110561"><stop stop-color="#9D5D46" offset="0%"></stop><stop stop-color="#86473B" offset="100%"></stop></linearGradient><linearGradient x1="62%" y1="19%" x2="50%" y2="100%" id="id-110562"><stop stop-color="#B06A4D" offset="0%"></stop><stop stop-color="#8E483A" offset="100%"></stop></linearGradient><linearGradient x1="45%" y1="18%" x2="51%" y2="67%" id="id-110563"><stop stop-color="#D29F88" offset="0%"></stop><stop stop-color="#BE7F5D" offset="100%"></stop></linearGradient><linearGradient x1="50%" y1="43%" x2="50%" y2="100%" id="id-110564"><stop stop-color="#CA9076" offset="0%"></stop><stop stop-color="#AB6344" offset="100%"></stop></linearGradient><linearGradient x1="45%" y1="50%" x2="58%" y2="50%" id="id-110565"><stop stop-color="#9D5D49" offset="0%"></stop><stop stop-color="#BE836D" offset="100%"></stop></linearGradient><linearGradient x1="33%" y1="74%" x2="77%" y2="42%" id="id-110566"><stop stop-color="#A8644F" offset="0%"></stop><stop stop-color="#B6765A" offset="100%"></stop></linearGradient><linearGradient x1="63%" y1="59%" x2="38%" y2="59%" id="id-110567"><stop stop-color="#A86451" offset="0%"></stop><stop stop-color="#B77154" offset="100%"></stop></linearGradient><linearGradient x1="50%" y1="0%" x2="50%" y2="100%" id="id-110568"><stop stop-color="#BD907D" offset="0%"></stop><stop stop-color="#9E5744" offset="100%"></stop></linearGradient><linearGradient x1="47%" y1="47%" x2="53%" y2="50%" id="id-110569"><stop stop-color="#C19B86" offset="0%"></stop><stop stop-color="#9E5744" offset="100%"></stop></linearGradient><linearGradient x1="50%" y1="0%" x2="50%" y2="100%" id="id-110570"><stop stop-color="#AC6553" offset="0%"></stop><stop stop-color="#9E5644" offset="100%"></stop></linearGradient><linearGradient x1="50%" y1="0%" x2="50%" y2="100%" id="id-110571"><stop stop-color="#B28775" offset="0%"></stop><stop stop-color="#B68776" offset="100%"></stop></linearGradient><linearGradient x1="0%" y1="55%" x2="100%" y2="55%" id="id-110572"><stop stop-color="#A2675E" offset="0%"></stop><stop stop-color="#8F4F4C" offset="100%"></stop></linearGradient><linearGradient x1="50%" y1="0%" x2="50%" y2="100%" id="id-110573"><stop stop-color="#AF8873" offset="0%"></stop><stop stop-color="#93493E" offset="100%"></stop></linearGradient><linearGradient x1="49%" y1="20%" x2="52%" y2="96%" id="id-110574"><stop stop-color="#9B5650" offset="0%"></stop><stop stop-color="#984D3F" offset="100%"></stop></linearGradient><linearGradient x1="50%" y1="0%" x2="50%" y2="100%" id="id-110575"><stop stop-color="#5A1D24" offset="0%"></stop><stop stop-color="#72332B" offset="100%"></stop></linearGradient><linearGradient x1="33%" y1="47%" x2="59%" y2="56%" id="id-110576"><stop stop-color="#8E4D39" offset="0%"></stop><stop stop-color="#7C3A31" offset="100%"></stop></linearGradient></defs><g transform=" translate(304,473)" id="id-110577"><polygon points="174 662 139 824 137 906 146 1082 171 1154 176 1211 174 1230 175 1284 287 1284 284 1265 308 1195 306 1124 345 952 343 912 353 879 362 881 371 877 383 904 391 970 434 1079 457 1202 475 1252 475 1284 596 1284 600 1225 591 1146 609 1103 612 997 596 842 545 671 539 640 528 606 531 569 509 498 522 403 539 360 539 348 563 464 576 498 585 574 637 704 646 760 646 778 626 822 624 853 631 879 629 901 632 920 637 931 647 931 657 920 655 877 659 867 670 874 672 899 676 903 667 923 644 934 643 945 666 939 664 948 643 960 640 982 657 971 674 969 690 945 701 933 704 926 707 923 713 892 718 871 704 832 696 786 703 768 693 725 693 521 652 425 629 282 626 203 612 175 567 156 548 141 530 139 479 114 422 73 416 42 415 1 285 0 284 73 279 83 242 114 196 137 171 139 155 156 108 175 91 228 91 287 68 431 30 516 23 602 28 725 16 764 21 782 0 874 18 932 49 968 59 970 83 982 83 965 78 960 57 949 55 941 78 948 78 936 66 929 53 923 45 906 51 875 61 866 66 877 63 922 75 927 86 925 93 899 90 877 96 856 96 824 75 778 77 738 108 637 139 562 142 495 159 458 180 358 199 403 203 461 211 504 188 564 191 608" fill="url(#id-110524)" id="id-110578"></polygon><polygon points="91 287 68 431 30 516 23 602 72 688 117 614 98 452 109 469 123 336 102 372 109 294 88 309 109 285" fill="url(#id-110525)" id="id-110578"></polygon><polygon points="383 906 391 972 434 1081 457 1204 475 1254 475 1287 596 1287 600 1226 591 1148 609 1105 612 999 602 904 584 908 584 846 535 683 456 705 382 878" fill="url(#id-110526)" id="id-110578"></polygon><polygon points="137 907 146 1083 171 1156 176 1212 174 1232 175 1286 175 1287 287 1287 284 1266 308 1197 306 1126 345 954 343 923 293 814 263 724 247 711" fill="url(#id-110527)" id="id-110578"></polygon><polygon points="545 673 539 641 528 608 531 571 509 500 522 405 539 361 539 350 563 465 576 500 601 540 660 491 688 529 652 427 629 283 626 205 612 177 568 157 548 142 530 141 479 116 422 75 416 44 415 3 360 3 360 715 462 724" fill="url(#id-110528)" id="id-110578"></polygon><polygon points="83 984 59 972 49 970 21 932 19 903 7 879 0 874 11 824 38 786 38 814 56 786 78 800 91 822 83 879 69 882 63 855 51 877 45 908 47 930 37 930 50 938 53 954 49 960 56 956 83 973" fill="#B1684A" id="id-110583"></polygon><polygon points="66 855 69 882 63 855 51 877 45 908 42 870 58 825" fill="url(#id-110529)" id="id-110583"></polygon><polygon points="83 879 69 882 70 868" fill="#C7846A" id="id-110583"></polygon><polygon points="481 376 513 349 558 291 522 368" fill="#885F60" id="id-110586"></polygon><polygon points="313 697 260 560 246 448 259 424 355 408 361 366 317 404 285 409 267 378 313 343 394 351 431 378 420 404 368 399 371 404 449 421 466 441 449 510 466 547 406 697 358 717" fill="url(#id-110530)" id="id-110587"></polygon><polygon points="410 90 430 82 423 76 416 45 416 7 286 9 286 48 283 76 278 86 244 114 195 139 366 139 390 70 410 26" fill="url(#id-110531)" id="id-110588"></polygon><polygon points="182 180 133 231 97 289 97 231 113 182 165 159" fill="url(#id-110532)" id="id-110589"></polygon><polygon points="346 107 384 55 409 31 414 23 299 31" fill="url(#id-110533)" id="id-110590"></polygon><polygon points="287 93 295 32 323 129" fill="url(#id-110534)" id="id-110591"></polygon><polygon points="336 139 314 151 270 146 224 139" fill="#E2B4A4" id="id-110592"></polygon><polygon points="410 84 409 136 461 129" fill="url(#id-110535)" id="id-110593"></polygon><polygon points="173 246 167 286 191 351 263 386 328 330 359 330 359 152 348 139 336 139 309 152" fill="url(#id-110536)" id="id-110594"></polygon><polygon points="464 159 516 190 500 159" fill="url(#id-110537)" id="id-110595"></polygon><polygon points="302 31 346 72 382 62 409 37 416 28 416 13" fill="url(#id-110538)" id="id-110596"></polygon><polygon points="263 151 191 202 219 151" fill="#B17054" id="id-110597"></polygon><polygon points="154 206 170 170 122 188" fill="#DEB7A9" id="id-110598"></polygon><polygon points="358 285 344 299 323 318 305 354 358 345 354 305" fill="url(#id-110539)" id="id-110599"></polygon><polygon points="260 361 265 387 203 371 191 347" fill="#94523B" id="id-110600"></polygon><polygon points="198 362 181 359 167 284" fill="#5E2227" id="id-110601"></polygon><polygon points="477 341 477 335 488 326 496 325 509 338 496 348 485 354" fill="#5D2221" id="id-110602"></polygon><polygon points="314 151 342 220 317 293 237 351 209 318 172 251 185 205 270 146" fill="url(#id-110540)" id="id-110603"></polygon><polygon points="314 151 330 238 209 318 172 251 185 205 270 146" fill="url(#id-110541)" id="id-110603"></polygon><polygon points="314 151 350 205 220 227 185 205 270 146" fill="url(#id-110542)" opacity="0.369" id="id-110603"></polygon><polygon points="211 335 223 322 242 327 244 332 235 353 213 349" fill="#642B26" id="id-110606"></polygon><polygon points="224 339 226 342 226 345 222 349 235 350 242 333 230 338 227 335" fill="#70434F" id="id-110607"></polygon><polygon points="488 343 491 347 486 351 479 338 489 327 495 327 493 336" fill="#6F373C" id="id-110608"></polygon><polygon points="485 339 488 343 493 337" fill="#92523E" id="id-110609"></polygon><polygon points="359 162 359 291 406 325 455 347 529 267 463 182 415 166" fill="url(#id-110543)" id="id-110610"></polygon><polygon points="359 178 359 281 391 302 391 249 489 270 461 189 415 166" fill="url(#id-110544)" id="id-110610"></polygon><polygon points="359 178 359 219 472 220 461 189 415 166 371 163" fill="url(#id-110545)" id="id-110610"></polygon><polygon points="358 178 372 168 440 156 413 137 378 158 411 80 396 60 358 146" fill="url(#id-110546)" id="id-110613"></polygon><polygon points="346 140 358 152 372 129 400 48 369 86 364 130" fill="#D3A08C" id="id-110614"></polygon><polygon points="591 281 601 226 559 159 514 159 523 138 499 156 571 263" fill="url(#id-110547)" id="id-110615"></polygon><polygon points="609 298 626 332 629 285 627 227 614 207 617 251" fill="#8581A0" id="id-110616"></polygon><polygon points="554 159 567 157 612 177 614 192 579 175 603 207 601 226" fill="#B67758" id="id-110617"></polygon><polygon points="641 823 648 826 697 896 713 873 682 781" fill="url(#id-110548)" id="id-110618"></polygon><polygon points="625 840 700 762 688 738 679 784 648 776 626 822" fill="url(#id-110549)" id="id-110618"></polygon><polygon points="648 862 648 845 661 825 661 870 654 878 657 922 652 929 637 929 632 914 632 893 632 877 644 888" fill="#94473B" id="id-110620"></polygon><polygon points="554 375 577 333 607 451 594 508 568 462" fill="#BB7966" id="id-110621"></polygon><polygon points="623 326 643 425 633 431 693 523 652 427 636 326 625 315" fill="#7B779A" id="id-110622"></polygon><polygon points="628 274 638 339 623 314" fill="#6F393C" id="id-110623"></polygon><polygon points="693 523 695 567 685 525 618 416 633 431" fill="#8D4E3B" id="id-110624"></polygon><polygon points="640 463 599 539 601 571 634 655 646 703 650 754 658 640 660 491" fill="#BD7B5A" id="id-110625"></polygon><polygon points="610 531 648 646 652 546 638 479" fill="#CB937C" id="id-110625"></polygon><polygon points="693 748 677 730 677 700 660 491 685 525 691 552 684 727" fill="url(#id-110550)" id="id-110627"></polygon><polygon points="691 746 703 768 693 727 695 567 691 551 683 727" fill="#7E97BD" id="id-110628"></polygon><polygon points="260 559 310 683 355 716 263 713 238 685 195 582" fill="url(#id-110551)" id="id-110629"></polygon><polygon points="637 931 636 919 639 914 653 914 653 922 651 929 648 931 644 933" fill="#9B5543" id="id-110630"></polygon><polygon points="637 861 637 882 641 890 653 886 649 861" fill="#A35B48" id="id-110631"></polygon><polygon points="691 871 693 912 688 936 669 956 671 965 696 924 696 909 705 877" fill="#AE664F" id="id-110632"></polygon><polygon points="703 768 684 788 693 837 712 873 702 908 701 933 707 925 718 873 704 834 697 788" fill="#824336" id="id-110633"></polygon><polygon points="667 939 643 946 644 934 657 928 667 922 676 903 672 899 670 874 660 870 660 854 671 867 680 873 680 902 677 920" fill="#77342E" id="id-110634"></polygon><polygon points="361 510 359 634 426 561 420 535" fill="url(#id-110552)" opacity="0.626" id="id-110635"></polygon><polygon points="319 403 289 399 268 380 313 343 361 348 362 372" fill="url(#id-110553)" id="id-110636"></polygon><polygon points="171 141 168 151 180 151 204 139 196 138" fill="url(#id-110554)" id="id-110637"></polygon><polygon points="359 308 362 360 382 334" fill="#BB7863" opacity="0.625" id="id-110638"></polygon><polygon points="360 546 360 584 387 551 374 540" fill="url(#id-110555)" opacity="0.626" id="id-110639"></polygon><polygon points="346 542 360 547 373 540 360 534" fill="#763735" id="id-110640"></polygon><polygon points="325 545 277 503 259 561 308 579" fill="url(#id-110556)" opacity="0.758" id="id-110641"></polygon><polygon points="389 499 460 467 449 510 404 520" fill="url(#id-110557)" id="id-110642"></polygon><polygon points="364 491 361 403 420 428" fill="url(#id-110558)" opacity="0.758" id="id-110643"></polygon><polygon points="262 446 333 446 323 469 279 492" fill="url(#id-110559)" opacity="0.758" id="id-110644"></polygon><polygon points="259 425 279 496 259 561 236 528 213 443 227 425 243 447" fill="url(#id-110560)" id="id-110645"></polygon><polygon points="412 343 444 374 466 383 499 351 447 354 416 339" fill="url(#id-110561)" id="id-110646"></polygon><polygon points="164 252 163 278 128 284" fill="#85483C" id="id-110647"></polygon><polygon points="58 478 88 441 88 416 69 430 66 456" fill="url(#id-110562)" id="id-110648"></polygon><polygon points="76 684 69 634 61 517 89 474 111 569" fill="url(#id-110563)" id="id-110649"></polygon><polygon points="53 489 47 539 69 635 76 684 53 760 40 781 16 766 28 727 23 604 28 544" fill="url(#id-110564)" id="id-110650"></polygon><polygon points="136 452 127 497 153 460 177 340 170 300" fill="#965744" id="id-110651"></polygon><polygon points="181 359 159 460 143 497 142 514 123 532 109 514 108 490 127 497 153 460 177 340" fill="#8D4E42" id="id-110651"></polygon><polygon points="38 747 28 772 38 788 44 772" fill="#BB775C" id="id-110653"></polygon><polygon points="359 379 342 413 361 444 377 417" fill="url(#id-110565)" id="id-110654"></polygon><polygon points="196 581 260 561 229 519" fill="url(#id-110566)" id="id-110655"></polygon><polygon points="74 929 66 925 69 909 78 905 86 912 83 928" fill="url(#id-110567)" id="id-110656"></polygon><polygon points="20 903 7 880 21 851 28 871" fill="#C78167" id="id-110657"></polygon><polygon points="218 1123 203 1040 191 913 171 1090 182 1169 230 1208 261 1237 270 1213 234 1175 212 1157 272 1191 281 1169" fill="url(#id-110568)" opacity="0.808" id="id-110658"></polygon><polygon points="182 1207 181 1155 213 1106 236 1166 230 1210" fill="#A8614D" id="id-110659"></polygon><polygon points="187 902 211 1137 227 1161 275 1187 299 1137 272 1009 299 918 269 791 211 836" fill="url(#id-110569)" id="id-110660"></polygon><polygon points="288 1079 311 1040 311 942 295 903 264 1019 275 1188 301 1137" fill="url(#id-110570)" id="id-110661"></polygon><polygon points="584 908 604 1008 608 1106 614 998 599 887" fill="#848BB1" id="id-110662"></polygon><polygon points="430 886 488 1140 535 1115 561 925 566 886 536 816 500 786" fill="url(#id-110571)" opacity="0.792" id="id-110663"></polygon><polygon points="581 921 588 1011 584 1112 576 1162 544 1046 566 886" fill="url(#id-110572)" id="id-110664"></polygon><polygon points="561 1247 518 1200 472 1112 494 931 505 931 594 1188 579 1244" fill="url(#id-110573)" id="id-110665"></polygon><polygon points="531 1221 539 1263 536 1269 516 1287 509 1287 500 1263 513 1199 488 1226 462 1170 472 1101 427 1010 398 877 469 771 518 739 536 818 500 787 433 890 477 1078 534 1212" fill="url(#id-110574)" id="id-110666"></polygon><polygon points="321 1058 284 852 258 721 266 733 371 879 362 883 354 881 343 914 345 954" fill="#995346" id="id-110667"></polygon><polygon points="429 1068 424 875 536 705 454 704 380 865 384 906 391 972" fill="#9E5752" opacity="0.394" id="id-110668"></polygon><polygon points="175 1262 194 1287 206 1287 225 1226 213 1249 175 1221 174 1232" fill="#743428" id="id-110669"></polygon><polygon points="528 1227 554 1234 569 1169 549 1168" fill="#AC7064" id="id-110670"></polygon><polygon points="546 678 545 672 539 641 528 608 531 571 509 500 522 405 539 361 539 350 547 389 542 330 558 289 517 369 528 369 517 411 499 442 509 465 488 531 507 525 522 585 449 724" fill="url(#id-110575)" id="id-110578"></polygon><polygon points="402 722 490 609 522 585 449 723" fill="#94493C" id="id-110672"></polygon><polygon points="174 664 139 826 137 907 139 937 238 690 352 886 354 881 362 883 371 879 383 906 471 773 548 712 596 844 545 673 539 641 478 697 449 723 278 705 232 657 188 566 191 610" fill="url(#id-110576)" id="id-110578"></polygon><polygon points="189 616 211 620 190 586 190 609" fill="#813F3A" id="id-110674"></polygon><polygon points="139 836 225 709 167 697 139 826" fill="#753E2A" id="id-110675"></polygon><polygon points="518 734 596 843 547 678" fill="#622B30" id="id-110676"></polygon><polygon points="415 778 447 726 314 744 329 762" fill="#A6564C" opacity="0.520" id="id-110578"></polygon><polygon points="411 685 463 666 456 573" fill="#7A3B33" id="id-110678"></polygon></g><defs><linearGradient x1="53%" y1="5%" x2="47%" y2="91%" id="id-111278"><stop stop-color="#932126" offset="0%"></stop><stop stop-color="#873F39" offset="82%"></stop><stop stop-color="#9E5E4F" offset="100%"></stop></linearGradient><linearGradient x1="62%" y1="61%" x2="50%" y2="36%" id="id-111279"><stop stop-color="#BA6E61" offset="0%"></stop><stop stop-color="#4D1217" offset="100%"></stop></linearGradient><linearGradient x1="50%" y1="13%" x2="57%" y2="81%" id="id-111280"><stop stop-color="#885154" offset="0%"></stop><stop stop-color="#9E5E4F" offset="52%"></stop><stop stop-color="#D79898" offset="100%"></stop></linearGradient><linearGradient x1="50%" y1="0%" x2="54%" y2="88%" id="id-111281"><stop stop-color="#8B2F27" offset="0%"></stop><stop stop-color="#803A2B" offset="100%"></stop></linearGradient><linearGradient x1="36%" y1="75%" x2="36%" y2="18%" id="id-111282"><stop stop-color="#6F3938" offset="0%"></stop><stop stop-color="#590F13" offset="100%"></stop></linearGradient><linearGradient x1="33%" y1="21%" x2="62%" y2="79%" id="id-111283"><stop stop-color="#A56757" offset="0%"></stop><stop stop-color="#B57363" offset="10%"></stop><stop stop-color="#B9735D" offset="53%"></stop><stop stop-color="#D0907A" offset="70%"></stop><stop stop-color="#AA6E5A" offset="88%"></stop><stop stop-color="#AD7464" offset="100%"></stop></linearGradient><linearGradient x1="28%" y1="56%" x2="79%" y2="54%" id="id-111284"><stop stop-color="#C89A8A" offset="0%"></stop><stop stop-color="#E0AD98" offset="16%"></stop><stop stop-color="#C08C7D" offset="100%"></stop></linearGradient><linearGradient x1="68%" y1="59%" x2="18%" y2="46%" id="id-111285"><stop stop-color="#B78372" offset="0%"></stop><stop stop-color="#B4786A" offset="100%"></stop></linearGradient><linearGradient x1="26%" y1="17%" x2="91%" y2="50%" id="id-111286"><stop stop-color="#945344" offset="0%"></stop><stop stop-color="#B3715E" offset="16%"></stop><stop stop-color="#CB8C74" offset="51%"></stop><stop stop-color="#935A4F" offset="100%"></stop></linearGradient><linearGradient x1="45%" y1="16%" x2="52%" y2="84%" id="id-111287"><stop stop-color="#9F6554" offset="0%"></stop><stop stop-color="#925343" offset="100%"></stop></linearGradient><linearGradient x1="91%" y1="32%" x2="50%" y2="77%" id="id-111288"><stop stop-color="#9D6655" offset="0%"></stop><stop stop-color="#A96C5D" offset="100%"></stop></linearGradient><linearGradient x1="72%" y1="40%" x2="61%" y2="55%" id="id-111289"><stop stop-color="#734233" offset="0%"></stop><stop stop-color="#AE705B" offset="100%"></stop></linearGradient><linearGradient x1="50%" y1="33%" x2="50%" y2="100%" id="id-111290"><stop stop-color="#1E0D0C" offset="0%"></stop><stop stop-color="#7F4D40" offset="100%"></stop></linearGradient><linearGradient x1="34%" y1="50%" x2="87%" y2="60%" id="id-111291"><stop stop-color="#D09A88" offset="0%"></stop><stop stop-color="#C38774" offset="100%"></stop></linearGradient><linearGradient x1="14%" y1="54%" x2="60%" y2="65%" id="id-111292"><stop stop-color="#945B4B" offset="0%"></stop><stop stop-color="#894336" offset="50%"></stop><stop stop-color="#824937" offset="100%"></stop></linearGradient><linearGradient x1="50%" y1="0%" x2="50%" y2="100%" id="id-111293"><stop stop-color="#CE9386" offset="0%"></stop><stop stop-color="#C99387" offset="100%"></stop></linearGradient><linearGradient x1="50%" y1="9%" x2="44%" y2="54%" id="id-111294"><stop stop-color="#C58372" offset="0%"></stop><stop stop-color="#D2977F" offset="100%"></stop></linearGradient><linearGradient x1="61%" y1="87%" x2="61%" y2="8%" id="id-111295"><stop stop-color="#DEAC9D" offset="0%" stop-opacity="0"></stop><stop stop-color="#D69C96" offset="100%"></stop></linearGradient><radialGradient cx="50%" cy="39%" r="61%" id="id-111296" fx="50%" fy="39%" gradientTransform=" translate(0.500,0.392) scale(0.254,1) rotate(90) scale(1,3) translate(-0.500,-0.392)"><stop stop-color="#B36061" offset="0%"></stop><stop stop-color="#6C2C2E" offset="100%"></stop></radialGradient><linearGradient x1="67%" y1="12%" x2="50%" y2="100%" id="id-111297"><stop stop-color="#8D5644" offset="0%"></stop><stop stop-color="#E0AD98" offset="100%"></stop></linearGradient><linearGradient x1="45%" y1="50%" x2="56%" y2="52%" id="id-111298"><stop stop-color="#BF7357" offset="0%"></stop><stop stop-color="#945741" offset="100%"></stop></linearGradient><linearGradient x1="18%" y1="22%" x2="62%" y2="71%" id="id-111299"><stop stop-color="#A5624F" offset="0%"></stop><stop stop-color="#C59181" offset="100%"></stop></linearGradient><linearGradient x1="50%" y1="35%" x2="87%" y2="93%" id="id-111300"><stop stop-color="#EEC5B7" offset="0%"></stop><stop stop-color="#D1A398" offset="100%"></stop></linearGradient><linearGradient x1="50%" y1="115%" x2="50%" y2="50%" id="id-111301"><stop stop-color="#925F51" offset="0%"></stop><stop stop-color="#593128" offset="100%"></stop></linearGradient><linearGradient x1="73%" y1="44%" x2="22%" y2="46%" id="id-111302"><stop stop-color="#1F1619" offset="0%"></stop><stop stop-color="#492A2A" offset="100%"></stop></linearGradient></defs><g transform=" translate(548,259)" id="id-111303"><g id="id-111304"><g transform=" translate(0,121)" id="id-111305"><polygon points="199 13 214 3 222 9 221 25 214 38 214 43 210 54 208 65 197 70 190 64" fill="url(#id-111278)" id="id-111306"></polygon><polygon points="197 24 209 14 216 9 219 10 220 22 214 37 195 43" fill="url(#id-111279)" id="id-111307"></polygon><polygon points="203 38 208 34 199 25 203 22 209 23 207 18 212 16 214 38 214 43 213 48 207 51 201 46" fill="url(#id-111280)" id="id-111306"></polygon><polygon points="212 5 214 3 222 9 222 10 219 10 216 9" fill="#D497AD" id="id-111306"></polygon><polygon points="208 65 197 70 190 64 194 42 199 50 193 62 199 67" fill="#50151B" id="id-111306"></polygon><polygon points="203 62 202 54 211 50" fill="#723C31" id="id-111311"></polygon><polygon points="196 50 202 51 203 42 196 46" fill="#A06051" id="id-111312"></polygon><polygon points="194 45 199 47 202 45 202 32 197 31" fill="#561B1F" id="id-111313"></polygon><path d=" M 30,70 C 24,70 20,69 19,68 C 17,66 12,52 8,46 C 4,39 2,38 1,33 C 0,30 0,21 1,6 L 8,0 L 23,9 L 30,70 Z" fill="url(#id-111281)" id="id-111314"></path><polygon points="8 6 2 6 7 3 10 2 23 9 19 14" fill="#C9899B" id="id-111314"></polygon><path d=" M 26,68 C 23,69 20,69 19,68 C 17,66 12,52 8,46 C 7,44 6,43 6,42 C 9,45 10,47 12,48 C 13,50 14,52 16,56 L 26,68 Z" fill="#7E2E28" id="id-111314"></path><polygon points="26 68 29 65 27 53 20 61" fill="#954B3F" id="id-111314"></polygon><path d=" M 23,19 C 12,12 6,9 5,9 C 3,10 2,18 2,33 L 17,53 L 26,52 L 23,19 Z" fill="url(#id-111282)" id="id-111318"></path><polygon points="12 17 19 19 18 26 15 28 22 38 21 49 12 44" fill="#9C2429" id="id-111319"></polygon><path d=" M 27,53 C 16,50 10,47 8,42 C 6,38 8,30 12,17 L 15,23 C 15,36 14,42 15,43 C 15,45 18,46 25,48 L 27,53 Z" fill="#9E4F4F" id="id-111320"></path><polygon points="11 31 19 26 19 18 14 20 12 18" fill="#C07080" id="id-111321"></polygon><polygon points="20 46 17 42 22 37 25 48" fill="#6A3032" id="id-111322"></polygon></g><g transform=" translate(18,0)" id="id-111323"><path d=" M 20,231 C 18,227 11,201 5,153 C 3,140 2,128 1,117 C -1,91 4,63 8,49 C 9,46 16,35 16,34 C 30,20 56,0 94,0 C 157,0 178,45 181,51 C 183,57 183,111 181,144 C 178,177 162,232 160,235 C 158,239 124,261 119,264 C 113,266 74,267 69,264 C 64,261 22,235 20,231 Z" fill="url(#id-111283)" id="id-111324"></path><polygon points="7 140 17 117 33 106 149 120 167 144 154 168 73 161 39 177 29 171" fill="url(#id-111284)" id="id-111325"></polygon><polygon points="7 140 17 117 33 106 31 136 77 131 86 136 75 144 52 152 49 152 30 154 23 163" fill="url(#id-111285)" id="id-111325"></polygon><path d=" M 5,153 C 3,140 2,128 1,117 C -1,91 4,63 8,49 C 9,46 16,35 16,34 C 30,20 56,0 94,0 C 157,0 178,45 181,51 C 183,57 183,111 181,144 C 181,149 180,153 179,158 L 159,161 L 145,148 L 115,146 L 101,161 L 86,110 L 108,103 C 144,108 161,111 161,110 C 158,100 155,92 154,86 C 152,81 151,76 149,69 L 159,43 L 95,32 L 26,43 L 17,71 L 19,112 L 5,153 Z" fill="url(#id-111286)" id="id-111324"></path><polygon points="39 209 44 175 39 177 29 171" fill="#B57154" id="id-111325"></polygon><path d=" M 20,231 C 18,227 11,201 5,153 C 4,146 3,140 3,133 L 30,171 L 54,255 C 40,246 21,234 20,231 Z" fill="url(#id-111287)" id="id-111324"></path><polygon points="120 214 141 194 148 212 132 249 115 262 65 259 56 251 73 255 98 256" fill="url(#id-111288)" id="id-111330"></polygon><path d=" M 20,231 C 19,230 19,228 18,225 L 69,256 L 115,258 L 131,246 L 148,209 L 145,247 C 134,254 122,262 119,264 C 113,266 74,267 69,264 C 64,261 22,235 20,231 Z" fill="#764037" id="id-111324"></path><polygon points="80 183 80 201 103 202 128 183 128 174 108 161" fill="#A66755" id="id-111332"></polygon><polygon points="99 197 98 188 119 178 132 185 139 201 121 214" fill="#BE8572" id="id-111333"></polygon><polygon points="108 201 117 190 117 182 129 189 115 204" fill="#CC9B8C" id="id-111334"></polygon><polygon points="60 213 54 208 54 188 67 176 88 184 86 187 86 196 93 198 102 194 113 205" fill="#D69B88" id="id-111335"></polygon><polygon points="49 222 65 211 125 212 126 233 120 246 75 244" fill="url(#id-111289)" id="id-111336"></polygon><polygon points="125 214 110 238 84 237 70 222" fill="url(#id-111290)" id="id-111337"></polygon><polygon points="69 252 62 246 95 233 113 238 123 243 121 251 98 256" fill="#BA806F" id="id-111338"></polygon><polygon points="102 249 97 237 108 240 117 246" fill="#C69384" id="id-111339"></polygon><polygon points="151 171 140 187 108 161 141 174" fill="url(#id-111291)" id="id-111340"></polygon><polygon points="117 109 126 125 157 130 163 120 151 101" fill="#7D4C3D" id="id-111341"></polygon><polygon points="160 158 150 172 141 175 119 166 143 148" fill="#CB9D8D" id="id-111340"></polygon><polygon points="160 128 146 114 155 108 164 117 167 125 163 122" fill="#8C594E" id="id-111343"></polygon><polygon points="86 130 91 122 88 109 70 105" fill="#AF694D" id="id-111344"></polygon><polygon points="23 133 41 147 57 147 80 134 85 140 87 129 74 106 31 109 31 122" fill="url(#id-111292)" id="id-111345"></polygon><polygon points="43 109 60 118 72 128 82 133 69 109 52 105" fill="#593225" id="id-111346"></polygon><polygon points="28 138 48 154 57 146 42 147" fill="#CE9581" id="id-111347"></polygon><polygon points="94 31 159 40 152 69 154 90 145 103 90 86" fill="#DEAC9D" id="id-111348"></polygon><path d=" M 180,154 C 175,187 161,232 160,235 C 159,237 151,243 142,249 L 154,166 L 172,136 L 180,154 Z" fill="#824A3F" id="id-111324"></path><polygon points="121 35 159 40 152 69 154 90 145 103 138 101" fill="url(#id-111293)" id="id-111348"></polygon><polygon points="38 76 33 42 94 31 90 86 42 86" fill="url(#id-111294)" id="id-111351"></polygon><polygon points="45 86 38 76 22 90 22 112" fill="#C98F82" id="id-111352"></polygon><path d=" M 32,20 C 47,10 68,0 94,0 C 115,0 131,5 143,11 L 161,32 L 143,38 L 139,62 L 93,34 L 32,20 Z" fill="url(#id-111295)" opacity="0.484" id="id-111324"></path><polygon points="174 133 176 78 165 112" fill="#B7868E" id="id-111354"></polygon><polygon points="167 55 176 78 169 100" fill="#854F45" id="id-111354"></polygon><polygon points="28 105 44 86 91 85 140 96 88 109 55 101" fill="#EABCAB" id="id-111356"></polygon><polygon points="104 105 128 105 160 106 154 87 144 99 126 102 114 91" fill="#EECAC1" id="id-111357"></polygon></g></g><g transform=" translate(75,197)" id="id-111358"><polygon points="0 17 4 13 27 3 38 6 44 2 61 6 71 13 69 17 34 28 5 20" fill="#290B08" id="id-111359"></polygon><polygon points="12 16 4 14 13 7 27 1 38 4 44 0 60 6 68 11 59 15 49 14 38 15 24 15" fill="#621C21" id="id-111359"></polygon><polygon points="36 6 37 13 25 13 23 4" fill="#7C3A4F" id="id-111359"></polygon><path d=" M 4,19 C 11,25 16,29 22,30 C 30,32 52,31 53,30 C 54,29 60,25 70,17 L 71,14 C 71,15 70,15 67,15 C 64,15 64,14 58,15 C 52,15 48,17 37,17 C 26,17 15,15 12,16 C 10,16 7,17 4,19 Z" fill="url(#id-111296)" id="id-111362"></path><polygon points="16 19 16 23 33 24 33 25 43 25 51 22 34 23" fill="#C07AA2" opacity="0.532" id="id-111363"></polygon></g><polygon points="95 135 84 164 97 164 104 130 99 130" fill="url(#id-111297)" id="id-111364"></polygon><polygon points="84 175 83 177 90 186 105 186 109 187 114 187 119 181 124 182 126 185 130 184 136 177 136 171 134 169 105 165" fill="url(#id-111298)" id="id-111365"></polygon><polygon points="119 163 111 125 119 122 144 143" fill="url(#id-111299)" id="id-111366"></polygon><path d=" M 84,175 L 92,160 L 97,165 L 104,130 L 109,122 L 113,130 L 119,163 L 123,156 L 134,169 L 132,173 L 119,169 L 110,172 L 95,172 C 93,173 91,174 89,175 C 88,175 86,175 84,175 Z" fill="url(#id-111300)" id="id-111367"></path><polygon points="179 128 167 143 148 145 115 128 126 112 137 110 148 120 161 118 172 126" fill="#6D4037" id="id-111368"></polygon><polygon points="102 140 104 130 108 136 113 130 116 148 104 156" fill="#E4AD96" id="id-111367"></polygon><polygon points="95 171 100 164 108 171" fill="#F0ECFD" id="id-111370"></polygon><path d=" M 110,181 C 103,181 97,177 93,177 C 90,177 88,178 85,180 L 90,186 L 105,186 L 109,187 L 114,187 L 119,181 L 124,182 L 126,185 L 130,184 L 134,179 C 133,176 132,175 131,175 C 130,175 117,181 110,181 Z" fill="url(#id-111301)" id="id-111365"></path><polygon points="92 180 94 186 105 186 97 179" fill="#895445" id="id-111365"></polygon><polygon points="117 180 131 175 132 177 124 182 119 182" fill="#290E08" id="id-111373"></polygon><polygon points="87 178 90 177 99 178 101 179 101 182 94 180" fill="#290E08" id="id-111374"></polygon><g transform=" translate(34,94)" id="id-111375"><path d=" M 0,26 C 4,21 12,17 24,15 C 35,14 45,15 54,18 L 59,16 L 49,2 L 54,14 L 45,2 L 21,3 L 14,9 L 17,3 L 2,18 L 0,26 Z" fill="url(#id-111302)" id="id-111376"></path><polygon points="122 15 138 16 148 23 147 13 136 5 120 9" fill="#492A2A" id="id-111377"></polygon><polygon points="53 4 58 9 57 14" fill="#332325" id="id-111378"></polygon><polygon points="90 12 92 20 132 5 125 1 100 4 93 17 96 5" fill="#352325" id="id-111379"></polygon><polygon points="94 19 123 16 122 8" fill="#1F1619" id="id-111380"></polygon></g><path d=" M 165,122 L 165,128 L 170,132 L 158,139 L 126,136 L 125,133 L 133,127 C 140,121 147,118 152,118 C 157,118 162,120 165,122 Z" fill="#9D7061" id="id-111381"></path><path d=" M 136,129 L 133,127 C 139,123 143,120 146,120 L 150,123 L 136,129 Z" fill="#4F302B" id="id-111381"></path><path d=" M 130,134 L 130,132 C 140,124 148,120 155,121 C 159,122 162,124 166,126 C 168,127 170,128 174,130 C 172,133 171,133 169,132 C 168,133 167,133 167,134 C 165,135 162,136 158,136 L 136,135 L 130,134 Z" fill="#1C1316" id="id-111383"></path><path d=" M 135,133 L 136,135 L 158,136 L 165,132 C 158,127 153,125 149,125 C 144,125 139,128 135,133 Z" fill="#B5A7B5" id="id-111384"></path><path d=" M 135,133 L 136,135 L 140,135 C 142,131 144,129 148,129 C 151,128 155,130 161,134 L 165,132 C 158,127 153,125 149,125 C 144,125 139,128 135,133 Z" fill="#A28F91" id="id-111384"></path><path d=" M 149,136 C 154,136 157,134 158,128 C 154,126 151,124 149,124 C 146,124 144,126 141,128 C 141,133 143,135 149,136 Z" fill="#1B1216" id="id-111384"></path><polygon points="144 128 145 130 150 129 150 127" fill="#8F8793" id="id-111387"></polygon><polygon points="53 127 58 118 69 117 72 123 80 127 84 124 96 132 89 138 86 136 63 138 57 134" fill="#A97665" id="id-111388"></polygon><path d=" M 46,126 C 48,121 54,118 63,116 C 72,114 83,119 96,132 C 84,123 75,118 68,117 C 62,117 55,119 47,126 L 46,126 Z" fill="#4E2B23" id="id-111389"></path><path d=" M 47,134 L 45,132 C 55,124 63,120 69,121 C 76,122 82,126 90,132 L 86,136 L 59,135 L 51,133 L 47,134 Z" fill="#1E1410" id="id-111390"></path><path d=" M 53,132 L 61,136 L 81,136 L 84,133 C 78,128 73,125 69,125 C 64,125 59,127 53,132 Z" fill="#B4A3AF" id="id-111391"></path><path d=" M 53,132 L 58,134 C 60,131 63,130 68,130 C 73,130 78,131 83,134 L 84,133 C 78,128 73,125 69,125 C 64,125 59,127 53,132 Z" fill="#A69398" id="id-111391"></path><path d=" M 69,136 C 73,136 76,133 77,128 C 74,126 71,124 69,124 C 66,124 63,126 60,128 C 61,133 64,136 69,136 Z" fill="#1E1011" id="id-111391"></path><polygon points="63 128 64 130 69 128 67 127" fill="#999AA8" id="id-111394"></polygon></g><defs><linearGradient x1="72%" y1="5%" x2="41%" y2="53%" id="id-83070"><stop stop-color="#204C8A" offset="0%"></stop><stop stop-color="#0E2552" offset="100%"></stop></linearGradient><linearGradient x1="100%" y1="39%" x2="7%" y2="59%" id="id-83071"><stop stop-color="#14326A" offset="0%"></stop><stop stop-color="#0E2552" offset="100%"></stop></linearGradient><linearGradient x1="88%" y1="21%" x2="25%" y2="81%" id="id-83072"><stop stop-color="#2C5C9C" offset="0%"></stop><stop stop-color="#19417E" offset="100%"></stop></linearGradient></defs><g transform=" translate(340,1079)" id="id-83073"><path d=" M 32,560 C 11,572 0,579 0,579 C 15,605 23,618 23,618 L 54,596 C 39,572 32,560 32,560 Z" fill="#101724" id="id-83074"></path><path d=" M 582,640 C 589,657 593,665 593,665 C 574,674 565,679 565,679 L 561,670 C 562,664 569,654 582,640 Z" fill="#101724" id="id-83075"></path><path d=" M 82,681 L 63,647 C 64,625 63,612 62,610 C 54,597 33,566 20,533 C 20,498 36,440 68,358 L 101,178 L 90,170 L 114,75 L 122,72 L 134,60 L 140,31 L 142,31 L 144,0 C 193,11 261,17 349,19 C 351,22 358,23 384,22 C 384,22 423,20 500,14 L 501,32 L 503,32 L 514,61 L 524,72 L 526,70 L 567,172 L 549,174 L 581,422 L 617,557 L 584,611 C 583,623 583,632 584,638 C 575,653 558,663 558,681 C 508,681 447,681 374,681 L 372,651 L 358,631 L 344,390 L 311,397 L 300,452 L 290,462 L 282,612 L 263,636 L 259,681 L 82,681 Z" fill="url(#id-83070)" id="id-83076"></path><path d=" M 157,179 L 154,179 L 154,178 L 107,174 L 102,178 L 89,170 L 114,75 L 121,73 L 513,66 L 513,62 L 524,73 L 566,172 L 482,184 C 485,278 487,345 489,386 C 440,387 371,387 283,386 L 282,386 L 145,386 L 152,213 L 157,179 Z" fill="#1A4682" id="id-83077"></path><path d=" M 366,642 L 386,607 L 376,606 L 401,519 L 480,429 L 425,435 L 439,389 L 483,183 L 557,173 L 583,422 L 617,557 L 584,611 C 584,624 584,633 584,638 C 572,655 559,665 559,681 C 499,681 438,681 375,681 L 372,651 L 366,642 Z" fill="#163877" id="id-83078"></path><polygon points="234 531 234 567 63 633 73 587" fill="url(#id-83071)" id="id-83079"></polygon><polygon points="143 654 224 639 225 629 202 626" fill="#111A28" id="id-83080"></polygon><polygon points="433 607 489 511 489 490 497 398 499 227 501 227 526 197 553 469 583 557 589 568 507 628" fill="#18467F" id="id-83081"></polygon><polygon points="444 663 410 627 423 629 510 641" fill="#0E2351" id="id-83082"></polygon><polygon points="511 631 594 571 538 491 520 509" fill="#355E97" id="id-83083"></polygon><path d=" M 445,79 C 444,81 443,85 442,89 L 236,93 L 346,108 L 349,112 L 150,118 L 344,194 L 297,250 L 488,133 L 486,386 L 282,386 L 144,386 L 156,179 L 153,179 L 153,177 L 106,174 L 101,178 L 88,169 L 113,75 L 120,72 L 184,75 C 274,75 361,76 445,79 Z" fill="url(#id-83072)" id="id-83084"></path><polygon points="326 106 185 75 121 72 134 60 288 68 297 76 252 75" fill="#0F2755" id="id-83085"></polygon><polygon points="159 338 161 341 161 348 169 348 181 339" stroke="#979797" id="id-83086"></polygon><polygon points="156 294 151 387 218 387" fill="#2E5090" id="id-83087"></polygon><polygon points="386 375 373 387 384 387" fill="#375F9C" id="id-83088"></polygon><polygon points="423 387 486 324 488 386" fill="#3D63A1" id="id-83089"></polygon><polygon points="262 399 174 393 113 464 106 475 113 495 136 498 132 509 129 508 86 595 197 578 157 566 183 536 233 522 258 408" fill="#14336B" id="id-83090"></polygon><polygon points="489 221 488 188 486 184 528 178" fill="#0E2351" id="id-83091"></polygon><polygon points="127 179 152 217 152 214 156 180" fill="#111925" id="id-83092"></polygon><polygon points="173 178 170 232 229 230 226 181" fill="#947C17" id="id-83093"></polygon><polygon points="280 331 321 238 490 133 447 128 526 70 567 173 441 190" fill="#1C508B" id="id-83094"></polygon><polygon points="196 149 291 235 336 200" fill="#1A508B" id="id-83095"></polygon><polygon points="141 30 135 59 286 67 286 37 230 34" fill="#84671B" id="id-83096"></polygon><polygon points="230 34 221 64 135 60 141 30" fill="#654A16" id="id-83097"></polygon><polygon points="380 46 385 73 464 68 464 36" fill="#7B5C19" id="id-83098"></polygon><polygon points="465 36 503 32 514 62 514 66 465 68" fill="#654A16" id="id-83099"></polygon><path d=" M 291,37 C 288,39 286,40 286,40 C 286,63 285,74 285,74 L 384,75 L 384,72 C 382,54 380,45 380,45 L 379,37 C 320,37 291,37 291,37 Z" fill="#111925" id="id-83100"></path><path d=" M 291,28 C 291,31 291,34 291,37 L 379,37 C 338,31 309,28 291,28 Z" fill="#111823" id="id-83101"></path><path d=" M 379,33 L 382,40 L 291,37 L 291,33 C 294,32 296,31 296,31 L 295,30 C 351,32 379,33 379,33 Z" fill="#566986" id="id-83102"></path></g><defs><linearGradient x1="50%" y1="0%" x2="50%" y2="96%" id="id-95108"><stop stop-color="#642488" offset="0%"></stop><stop stop-color="#622486" offset="38%"></stop><stop stop-color="#2877B0" offset="54%"></stop><stop stop-color="#0E97C8" offset="79%"></stop><stop stop-color="#0A96C8" offset="100%"></stop></linearGradient><linearGradient x1="50%" y1="0%" x2="50%" y2="95%" id="id-95109"><stop stop-color="#63D5D8" offset="0%"></stop><stop stop-color="#00DCEA" offset="55%"></stop><stop stop-color="#00DDED" offset="100%"></stop></linearGradient><linearGradient x1="50%" y1="0%" x2="50%" y2="94%" id="id-95110"><stop stop-color="#B754FF" offset="0%"></stop><stop stop-color="#E4ADD9" offset="32%"></stop><stop stop-color="#55D6DA" offset="59%"></stop><stop stop-color="#00BBE2" offset="75%"></stop><stop stop-color="#00DDEC" offset="100%"></stop></linearGradient><linearGradient x1="50%" y1="0%" x2="50%" y2="100%" id="id-95111"><stop stop-color="#9D54B5" offset="0%"></stop><stop stop-color="#6069AB" offset="100%"></stop></linearGradient><linearGradient x1="50%" y1="0%" x2="50%" y2="100%" id="id-95112"><stop stop-color="#A049B9" offset="0%"></stop><stop stop-color="#7A6EAF" offset="100%"></stop></linearGradient><linearGradient x1="54%" y1="16%" x2="56%" y2="92%" id="id-95113"><stop stop-color="#F856EC" offset="0%"></stop><stop stop-color="#CC8DDA" offset="32%"></stop><stop stop-color="#0FC4D0" offset="65%"></stop><stop stop-color="#00C7D0" offset="81%"></stop><stop stop-color="#00D8B0" offset="100%"></stop></linearGradient><linearGradient x1="50%" y1="0%" x2="50%" y2="100%" id="id-95114"><stop stop-color="#53D6DD" offset="0%"></stop><stop stop-color="#24E0CC" offset="56%"></stop><stop stop-color="#00E7BF" offset="100%"></stop></linearGradient><linearGradient x1="50%" y1="0%" x2="50%" y2="100%" id="id-95115"><stop stop-color="#C7CADD" offset="0%"></stop><stop stop-color="#67D4DD" offset="100%"></stop></linearGradient><linearGradient x1="50%" y1="0%" x2="50%" y2="100%" id="id-95116"><stop stop-color="#DA5CD6" offset="0%"></stop><stop stop-color="#C56ED2" offset="100%"></stop></linearGradient><linearGradient x1="54%" y1="4%" x2="48%" y2="100%" id="id-95117"><stop stop-color="#FD67EF" offset="0%"></stop><stop stop-color="#E3AFDE" offset="35%"></stop><stop stop-color="#00DFE3" offset="100%"></stop></linearGradient><linearGradient x1="54%" y1="-13%" x2="48%" y2="100%" id="id-95118"><stop stop-color="#F7A1F2" offset="0%"></stop><stop stop-color="#00B3DE" offset="100%"></stop></linearGradient><linearGradient x1="59%" y1="15%" x2="47%" y2="94%" id="id-95119"><stop stop-color="#00B8D5" offset="0%"></stop><stop stop-color="#00CDD3" offset="100%"></stop></linearGradient></defs><g transform=" translate(249,658)" id="id-95120"><g transform=" translate(0,56)" id="id-95121"><path d=" M 177,672 C 166,657 155,643 146,627 C 144,615 142,602 139,588 C 132,593 129,596 129,596 C 127,586 126,582 126,582 C 110,587 93,594 76,603 C 63,619 56,627 56,627 C 60,636 62,640 62,640 C 49,641 43,641 43,641 C 30,639 24,636 20,623 C 12,599 6,574 1,548 C 0,540 -1,531 2,522 C 14,467 30,402 48,362 C 55,360 62,357 69,351 C 65,346 63,342 64,338 C 64,335 72,335 75,327 C 64,316 69,272 70,221 C 73,213 93,177 109,154 C 115,151 118,149 118,149 C 112,137 107,125 104,110 C 108,98 113,86 121,74 C 117,63 115,52 115,41 C 105,41 95,41 86,35 C 97,24 109,12 120,9 C 142,3 152,0 152,0 C 157,33 163,68 182,125 C 178,135 176,141 176,141 C 190,157 201,166 217,189 C 232,121 239,87 239,87 C 245,101 248,116 249,133 C 255,149 258,157 258,157 C 262,195 263,215 263,215 C 265,229 272,240 270,258 C 254,303 247,325 247,325 C 249,353 249,367 249,367 C 245,382 243,389 243,389 C 235,415 231,428 231,428 C 220,479 215,504 215,504 C 219,526 222,549 223,574 C 216,587 209,602 205,617 C 191,635 181,653 177,672 Z" fill="url(#id-95108)" id="id-95122"></path><path d=" M 109,581 C 103,584 100,586 100,586 C 101,577 101,573 101,573 C 97,579 91,585 84,591 L 95,545 L 20,573 L 56,530 L 45,507 L 38,467 L 108,428 C 115,417 118,411 118,411 L 128,434 L 134,567 C 117,576 109,581 109,581 Z" fill="#00C2E0" id="id-95123"></path><path d=" M 62,640 C 45,635 36,632 36,632 C 60,611 72,601 72,601 C 113,578 134,567 134,567 L 139,583 L 129,596 L 126,582 C 109,587 92,595 76,603 L 56,627 C 60,636 62,640 62,640 Z" fill="#005A88" id="id-95124"></path><path d=" M 20,623 L 67,604 L 36,632 L 62,640 L 43,641 C 30,640 22,634 20,623 Z" fill="#00A4BF" id="id-95125"></path><path d=" M 20,623 C 62,605 82,597 82,597 C 91,562 95,545 95,545 C 45,563 20,573 20,573 C 44,544 56,530 56,530 C 48,515 45,507 45,507 C 77,508 94,509 94,509 C 95,507 96,505 96,505 C 89,485 86,476 86,476 C 54,470 38,467 38,467 C 84,441 108,428 108,428 C 115,417 118,411 118,411 C 116,402 115,397 115,397 C 92,390 80,387 80,387 C 65,390 58,392 58,392 L 56,359 L 48,362 C 22,427 12,477 0,530 C 0,550 7,581 20,623 Z" fill="url(#id-95109)" id="id-95126"></path><path d=" M 32,619 C 44,615 49,613 49,613 C 59,593 62,574 80,554 C 40,566 20,573 20,573 C 20,571 20,571 20,571 C 16,574 12,578 15,581 C 49,583 55,596 32,619 Z" fill="#00FFFF" id="id-95127"></path><path d=" M 8,578 C 38,547 53,532 53,532 C 41,501 35,486 35,486 C 31,468 30,454 38,447 L 51,416 C 49,380 48,362 48,362 C 32,402 21,442 11,482 L 23,467 C 30,518 25,555 8,578 Z" fill="#00FEFF" id="id-95128"></path><path d=" M 18,567 C 34,548 37,518 29,476 L 32,465 C 32,471 33,476 35,486 L 53,532 C 30,555 18,567 18,567 Z" fill="#45FFFF" id="id-95129"></path><polygon points="109 581 131 501 134 567" fill="#00A4C8" id="id-95130"></polygon><path d=" M 128,521 C 103,520 91,520 91,520 L 131,506 C 129,516 128,521 128,521 Z" fill="#008EB1" id="id-95131"></path><path d=" M 53,410 C 62,419 66,424 66,424 L 109,418 C 71,413 53,410 53,410 Z" fill="#08C1DE" id="id-95132"></path><path d=" M 139,583 C 135,556 133,531 133,507 C 143,469 148,450 148,450 C 131,426 122,415 122,415 C 121,404 120,399 120,399 C 119,356 119,335 119,335 C 117,352 116,360 116,360 C 107,367 102,370 102,370 C 111,373 116,375 116,375 L 115,403 L 118,411 L 128,434 L 131,506 L 134,567 C 137,578 139,583 139,583 Z" fill="#008AAE" id="id-95133"></path><path d=" M 177,672 C 167,658 156,645 146,627 L 139,588 L 139,583 C 135,557 134,532 133,507 L 148,450 L 122,415 L 120,399 L 118,336 C 117,352 116,360 116,360 C 98,372 89,378 89,378 L 65,354 L 69,351 C 63,344 62,339 65,336 C 69,334 72,333 75,327 C 65,316 68,289 70,221 C 81,198 94,176 109,154 L 118,149 C 112,137 107,125 104,110 C 108,99 112,88 121,74 C 118,65 115,57 115,41 C 104,41 94,40 86,35 C 94,26 102,18 115,10 L 152,0 C 158,40 167,82 182,125 L 176,141 C 190,156 205,171 217,189 C 231,213 238,225 238,225 C 227,259 222,276 222,276 C 223,279 224,280 224,280 C 199,289 187,293 187,293 C 214,294 228,294 228,294 C 211,359 202,392 202,392 C 185,373 177,364 177,364 C 172,351 170,344 170,344 C 173,374 174,408 174,445 C 181,409 185,391 185,391 C 189,408 194,427 198,447 L 211,479 C 214,496 215,504 215,504 C 216,534 217,549 217,549 C 182,499 164,474 164,474 C 170,577 173,629 173,629 L 181,658 L 177,672 Z" fill="url(#id-95110)" id="id-95134"></path><path d=" M 161,650 C 161,644 161,641 161,641 C 165,649 167,652 167,652 L 167,659 C 163,653 161,650 161,650 Z" stroke="#979797" id="id-95135"></path><polygon points="155 547 134 506 148 450" fill="#00FBFE" id="id-95136"></polygon><path d=" M 180,661 C 179,664 179,665 179,665 C 174,665 172,665 172,665 C 167,642 165,630 165,630 C 146,380 137,255 137,255 C 132,128 130,65 130,65 C 122,33 118,17 118,17 C 124,13 126,11 126,11 C 134,45 139,61 139,61 C 142,194 144,260 144,260 C 157,403 163,474 163,474 L 172,629 C 177,650 180,661 180,661 Z" fill="#FBFCFC" id="id-95137"></path><polygon points="216 586 216 547 215 504 221 545 223 574" fill="#2C7BB2" id="id-95138"></polygon><path d=" M 201,622 C 183,589 174,573 174,573 C 172,560 171,553 171,553 L 174,632 L 181,658 C 188,642 194,630 201,622 Z" fill="#1B90C1" id="id-95139"></path><path d=" M 82,345 C 96,320 103,307 103,307 C 86,310 77,304 84,282 C 78,274 75,270 75,270 C 77,283 77,298 75,315 C 87,321 90,331 82,345 Z" fill="#A3F8FF" id="id-95140"></path><path d=" M 107,366 C 112,321 115,299 115,299 C 102,280 96,271 96,271 C 102,244 106,231 106,231 L 119,298 L 118,335 L 116,359 C 110,364 107,366 107,366 Z" fill="#826890" fill-opacity="0.241" id="id-95141"></path><path d=" M 121,365 C 119,344 118,333 118,333 C 124,307 127,294 127,294 L 141,327 C 135,336 128,344 121,365 Z" fill="#AAEEF2" id="id-95142"></path><path d=" M 127,294 C 121,280 115,264 110,242 L 108,210 L 118,149 C 113,139 108,127 104,110 C 105,106 106,104 106,104 C 112,122 120,135 129,144 C 127,163 131,167 133,176 C 118,211 116,250 127,294 Z" fill="#FFC0FF" id="id-95143"></path><path d=" M 177,364 C 188,343 193,332 193,332 L 219,294 L 228,294 L 213,353 L 202,392 C 185,373 177,364 177,364 Z" fill="#3E92BE" id="id-95144"></path><path d=" M 152,295 L 177,364 C 194,382 202,392 202,392 C 209,366 213,353 213,353 C 200,339 194,333 194,333 L 162,297 L 188,294 L 224,280 C 222,277 222,276 222,276 C 223,271 224,269 224,269 L 170,292 L 152,295 Z" fill="#2985B8" fill-opacity="0.712" id="id-95145"></path><path d=" M 149,293 C 154,303 157,308 157,308 C 161,310 163,311 163,311 C 164,306 165,301 168,295 L 167,213 C 155,267 149,293 149,293 Z" fill="url(#id-95111)" id="id-95146"></path><path d=" M 214,284 L 176,141 C 190,156 204,170 217,189 L 238,225 L 222,276 L 224,279 L 214,284 Z" fill="url(#id-95112)" id="id-95147"></path><path d=" M 205,243 C 189,179 181,146 181,146 C 191,157 202,168 213,183 C 208,223 205,243 205,243 Z" fill="#9B48B6" id="id-95148"></path><path d=" M 226,205 C 231,200 234,198 234,198 L 247,118 C 246,107 243,97 239,87 L 217,189 C 223,199 226,205 226,205 Z" fill="#4E1275" id="id-95149"></path><path d=" M 247,118 C 241,129 235,143 229,161 L 238,225 C 244,154 247,118 247,118 Z" fill="#9F18A6" id="id-95150"></path><path d=" M 237,229 C 252,248 260,258 260,258 L 260,287 L 247,325 L 228,294 L 188,294 L 224,280 L 222,276 C 232,245 237,229 237,229 Z" fill="#544692" id="id-95151"></path><path d=" M 158,220 C 152,179 149,158 149,158 L 164,178 C 160,206 158,220 158,220 Z" fill="#B33CBD" id="id-95152"></path><path d=" M 165,163 C 149,145 141,136 141,136 C 155,120 162,112 162,112 C 165,91 166,81 166,81 C 159,53 155,39 155,39 C 138,23 130,15 130,15 L 153,6 C 159,46 169,86 182,125 C 171,150 165,163 165,163 Z" fill="#9F22AE" id="id-95153"></path><path d=" M 140,61 L 130,21 L 155,39 C 145,53 140,61 140,61 Z" fill="#D680FF" id="id-95154"></path><path d=" M 108,35 C 93,35 86,35 86,35 L 117,11 L 108,35 Z" fill="#F9AAFE" id="id-95155"></path><path d=" M 176,141 C 196,176 207,194 207,194 L 204,171 C 185,151 176,141 176,141 Z" fill="#8F26A1" id="id-95156"></path><path d=" M 234,341 C 223,310 218,294 218,294 C 229,273 234,262 234,262 L 247,277 C 238,320 234,341 234,341 Z" fill="#3070AB" fill-opacity="0.559" id="id-95157"></path></g><g transform=" translate(453,0)" id="id-95158"><path d=" M 134,49 C 174,28 214,12 254,0 C 303,56 328,84 328,84 C 325,89 324,91 324,91 C 282,101 261,106 261,106 C 262,111 262,114 262,114 C 254,138 250,149 250,149 C 258,150 267,151 273,158 C 292,197 301,217 301,217 C 309,222 313,225 313,225 C 312,268 312,290 312,290 C 318,301 322,306 322,306 C 320,311 318,316 314,317 C 317,336 323,353 332,366 C 330,372 329,377 322,383 C 325,385 329,387 331,392 C 332,418 334,442 340,464 C 338,468 335,472 330,476 C 332,483 333,486 333,486 C 336,486 339,485 342,485 C 354,532 360,555 360,555 C 362,560 358,566 354,571 C 357,589 365,599 365,623 C 358,647 349,671 339,693 C 332,698 329,701 329,701 C 313,704 306,706 306,706 C 304,700 303,698 303,698 C 249,686 222,680 222,680 C 217,660 213,639 210,610 C 190,612 171,615 153,621 C 136,619 119,612 102,603 C 81,603 59,602 40,606 C 32,607 28,608 28,608 C 21,604 10,601 0,598 C 14,538 20,508 20,508 C 36,452 44,425 44,425 C 56,387 69,353 78,308 C 117,135 136,49 134,49 Z" fill="url(#id-95113)" id="id-95159"></path><path d=" M 222,680 C 258,687 287,687 329,701 L 306,706 L 303,698 C 272,693 244,687 222,680 Z" fill="#00BC84" id="id-95160"></path><path d=" M 222,680 C 262,686 282,689 282,689 C 283,670 282,651 279,631 C 265,617 258,611 258,611 C 270,609 275,608 275,608 C 285,590 290,581 290,581 C 280,567 275,561 275,561 C 284,559 288,559 288,559 C 276,544 270,536 270,536 C 277,524 284,514 292,506 C 272,424 263,383 263,383 C 250,381 244,379 244,379 C 207,390 188,396 188,396 C 182,403 178,406 178,406 C 188,454 193,479 193,479 C 215,478 225,477 225,477 C 208,483 199,485 199,485 C 213,519 220,536 220,536 C 253,526 269,522 269,522 C 254,532 246,537 246,537 C 250,544 252,547 252,547 C 238,546 231,546 231,546 C 223,567 220,577 220,577 C 223,582 224,584 224,584 C 243,589 253,591 253,591 C 244,596 240,598 240,598 L 210,587 L 210,611 C 215,644 219,667 222,680 Z" fill="url(#id-95114)" id="id-95161"></path><path d=" M 303,690 C 305,658 301,630 291,606 C 308,591 317,583 317,583 L 351,584 L 365,623 C 359,645 350,669 339,693 L 329,701 C 312,694 303,690 303,690 Z" fill="#00C89F" id="id-95162"></path><path d=" M 289,582 C 280,568 275,561 275,561 L 332,568 L 289,582 Z" fill="#00BC96" id="id-95163"></path><path d=" M 358,586 C 351,581 348,578 348,578 C 312,572 294,570 294,570 L 361,559 C 360,563 358,567 354,570 C 356,581 358,586 358,586 Z" fill="#00AE80" id="id-95164"></path><path d=" M 333,639 C 329,631 327,627 327,627 C 335,611 339,604 339,604 C 346,620 350,629 350,629 L 332,649 C 333,642 333,639 333,639 Z" fill="#4BDAC6" id="id-95165"></path><path d=" M 348,632 C 342,643 338,648 338,648 C 338,827 338,916 338,916 L 328,905 L 332,649 C 343,638 348,632 348,632 Z" fill="#38D9C4" id="id-95166"></path><path d=" M 331,750 L 338,742 L 338,649 L 350,629 L 332,649 C 331,716 331,750 331,750 Z" fill="#55FFE6" id="id-95167"></path><path d=" M 329,701 C 324,698 321,697 321,697 L 332,637 L 333,639 L 332,649 C 330,684 329,701 329,701 Z" fill="#009D76" id="id-95168"></path><path d=" M 333,486 L 305,491 L 340,464 C 337,471 333,472 330,476 C 332,483 333,486 333,486 Z" fill="#00AF81" id="id-95169"></path><path d=" M 221,533 C 232,531 243,527 255,521 C 262,484 266,466 266,466 C 244,469 233,471 233,471 C 235,469 237,468 237,468 C 243,432 239,394 259,387 C 254,385 251,383 251,383 C 232,392 204,397 189,408 C 222,416 231,439 220,473 C 231,479 231,500 221,533 Z" fill="#83E5F6" id="id-95170"></path><path d=" M 308,378 C 271,376 252,375 252,375 L 287,361 C 301,372 308,378 308,378 Z" fill="#3494C1" id="id-95171"></path><path d=" M 310,377 C 296,365 290,359 290,359 L 300,316 C 309,316 314,317 314,317 C 316,334 322,349 330,363 C 317,373 310,377 310,377 Z" fill="#1DA1DB" id="id-95172"></path><path d=" M 300,316 C 277,315 265,314 265,314 L 266,369 L 290,359 C 296,330 300,316 300,316 Z" fill="#4CABE2" id="id-95173"></path><path d=" M 196,383 C 228,380 244,378 244,378 C 251,374 254,371 254,371 C 259,343 261,329 261,329 C 245,322 237,319 237,319 C 238,308 239,302 239,302 C 206,313 190,318 190,318 L 191,368 C 194,378 196,383 196,383 Z" fill="url(#id-95115)" id="id-95174"></path><path d=" M 193,367 C 200,345 203,334 203,334 L 234,338 C 207,357 193,367 193,367 Z" fill="#A8E6FC" id="id-95175"></path><path d=" M 147,411 C 161,399 168,392 168,392 C 179,369 185,357 185,357 C 187,332 188,320 188,320 C 189,349 190,363 190,363 C 174,391 166,405 166,405 C 177,446 182,467 182,467 C 201,513 210,536 210,536 L 226,537 C 229,543 231,546 231,546 C 229,552 228,555 228,555 C 219,547 209,540 196,534 C 197,523 197,518 197,518 C 186,484 180,467 180,467 L 171,436 C 155,419 147,411 147,411 Z" fill="#0075B3" id="id-95176"></path><path d=" M 189,312 C 199,305 205,302 205,302 C 197,292 193,288 193,288 C 193,278 192,273 192,273 C 191,272 191,271 191,271 C 192,264 193,260 193,260 C 232,242 259,230 274,226 C 251,227 240,227 240,227 C 230,237 225,242 225,242 C 205,249 195,253 195,253 C 201,229 204,217 204,217 C 190,245 184,259 184,259 L 189,283 C 189,302 189,312 189,312 Z" fill="#A650C2" id="id-95177"></path><path d=" M 230,253 C 248,246 266,236 284,223 C 303,224 313,225 313,225 C 312,266 312,286 312,286 C 294,296 285,301 285,301 L 257,291 C 239,266 230,253 230,253 Z" fill="url(#id-95116)" id="id-95178"></path><polygon points="322 306 285 301 312 286 312 290" fill="#EE7BF1" id="id-95179"></polygon><path d=" M 291,307 C 260,304 245,302 245,302 L 267,296 C 283,304 291,307 291,307 Z" fill="#8981C9" id="id-95180"></path><path d=" M 305,219 C 273,210 258,206 258,206 C 272,202 279,200 279,200 C 287,208 291,211 291,211 L 299,213 L 302,217 C 304,218 305,219 305,219 Z" fill="#DD52D8" id="id-95181"></path><path d=" M 267,199 C 253,197 239,200 227,206 C 241,193 252,184 260,179 C 263,180 264,181 264,181 L 255,192 C 263,196 267,199 267,199 Z" fill="#FA9BF5" id="id-95182"></path><path d=" M 206,208 C 212,196 215,190 215,190 L 253,182 C 221,199 206,208 206,208 Z" fill="#E852DB" id="id-95183"></path><path d=" M 177,130 C 150,160 121,189 109,227 C 114,228 116,229 116,229 C 116,258 116,272 116,272 C 103,283 96,288 96,288 C 86,337 81,361 81,361 C 87,389 91,403 91,403 C 85,401 82,400 82,400 C 71,416 65,424 65,424 C 49,492 42,526 42,526 C 41,544 41,553 41,553 L 47,605 C 65,603 83,602 101,604 C 128,502 142,451 142,451 C 132,416 126,399 126,399 L 188,201 C 180,153 177,130 177,130 Z" fill="url(#id-95117)" id="id-95184"></path><path d=" M 145,225 C 156,221 168,219 181,207 C 179,157 179,133 179,133 C 189,111 194,101 194,101 C 190,97 188,95 188,95 C 185,110 174,118 172,135 C 170,152 170,174 171,196 C 170,204 161,213 145,225 Z" fill="#FFB2FD" id="id-95185"></path><path d=" M 129,239 C 126,231 125,227 125,227 L 141,212 C 133,230 129,239 129,239 Z" fill="#FFC4FF" id="id-95186"></path><path d=" M 131,259 C 131,244 131,236 131,236 C 139,221 143,213 143,213 L 142,235 C 134,251 131,259 131,259 Z" fill="#DF79DD" id="id-95187"></path><path d=" M 144,231 C 144,236 145,239 145,239 L 139,245 C 142,236 144,231 144,231 Z" fill="#FFC4FF" id="id-95188"></path><path d=" M 149,244 C 151,231 152,225 152,225 C 163,220 169,218 169,218 L 166,227 C 155,238 149,244 149,244 Z" fill="#FFC4FF" id="id-95189"></path><path d=" M 157,240 C 157,255 157,262 157,262 C 164,248 168,241 168,241 L 169,225 C 161,235 157,240 157,240 Z" fill="#DE7ADD" id="id-95190"></path><path d=" M 84,349 C 100,303 108,279 108,279 L 104,248 C 91,315 84,349 84,349 Z" fill="#D8D8D8" id="id-95191"></path><path d=" M 38,460 L 57,430 L 91,403 C 84,375 81,361 81,361 L 84,308 L 38,460 Z" fill="#2F82B6" id="id-95192"></path><path d=" M 59,419 C 41,498 32,538 32,538 C 30,590 29,615 29,615 C 36,613 39,612 39,612 L 38,539 C 56,463 65,424 65,424 C 78,373 85,348 85,348 C 106,240 116,186 116,186 C 131,126 139,96 139,96 C 133,93 131,91 131,91 L 74,362 C 71,380 66,398 59,419 Z" fill="#D8E1DE" id="id-95193"></path><path d=" M 91,403 C 112,409 123,413 123,413 C 126,350 127,319 127,319 L 104,301 L 81,364 C 87,390 91,403 91,403 Z" fill="#ADEDF3" id="id-95194"></path><path d=" M 80,488 C 89,512 94,524 94,524 C 110,482 117,460 117,460 L 98,448 C 86,474 80,488 80,488 Z" fill="#6BEAF2" id="id-95195"></path><path d=" M 42,544 C 69,532 83,525 83,525 C 87,478 89,454 89,454 L 66,430 C 50,506 42,544 42,544 Z" fill="#67E9F0" id="id-95196"></path><path d=" M 90,448 C 86,438 84,433 84,433 C 89,416 92,408 92,408 L 99,407 C 93,435 90,448 90,448 Z" fill="#2DBFD9" id="id-95197"></path><path d=" M 103,444 C 110,451 114,455 114,455 L 117,429 L 108,410 C 105,432 103,444 103,444 Z" fill="#2DBFD9" id="id-95198"></path><path d=" M 82,409 C 82,403 82,400 82,400 L 91,403 L 82,409 Z" fill="#4BBCD5" id="id-95199"></path><path d=" M 191,498 C 185,550 182,576 182,576 C 170,594 164,604 164,604 L 194,593 L 196,534 L 197,518 C 193,505 191,498 191,498 Z" fill="#00AAB8" id="id-95200"></path><path d=" M 194,593 C 201,590 204,588 204,588 L 203,538 L 196,534 C 195,573 194,593 194,593 Z" fill="#008EB7" id="id-95201"></path><path d=" M 204,588 L 224,584 L 220,577 L 228,555 C 221,549 212,543 203,538 L 204,588 Z" fill="#009BB9" id="id-95202"></path><path d=" M 210,587 C 206,588 204,588 204,588 L 190,613 L 210,611 L 210,587 Z" stroke="#979797" id="id-95203"></path><path d=" M 128,615 C 144,610 156,607 164,604 C 173,601 186,595 204,588 L 210,587 L 210,611 C 194,611 174,616 153,621 C 146,620 139,619 128,615 Z" fill="#0090B5" id="id-95204"></path><path d=" M 145,613 C 153,615 156,617 156,617 C 169,613 176,611 176,611 L 173,604 C 154,610 145,613 145,613 Z" fill="#17273A" id="id-95205"></path><path d=" M 102,603 C 133,602 148,601 148,601 L 119,612 C 108,606 102,603 102,603 Z" fill="#00BBC5" id="id-95206"></path><polygon points="47 604 41 553 39 607" fill="#D8D8D8" id="id-95207"></polygon><path d=" M 22,605 C 28,576 30,562 30,562 L 27,607 C 24,606 22,605 22,605 Z" stroke="#979797" id="id-95208"></path><polygon points="0 598 22 605 29 607 31 538 59 419 112 180 104 188 74 324 20 508" fill="url(#id-95118)" id="id-95209"></polygon><path d=" M 2,598 C 6,580 9,570 9,570 L 31,552 L 22,605 C 9,601 2,598 2,598 Z" fill="#00A7D8" id="id-95210"></path><path d=" M 108,226 L 117,182 C 131,124 139,95 139,95 C 133,130 127,167 126,191 C 120,199 114,212 108,226 Z" fill="#C136E0" id="id-95211"></path><path d=" M 274,246 C 274,261 274,269 274,269 C 301,275 314,277 314,277 L 314,246 C 287,246 274,246 274,246 Z" fill="#1D3452" id="id-95212"></path><path d=" M 224,166 C 228,143 229,131 229,131 C 202,101 189,87 189,87 C 154,91 137,93 137,93 C 140,87 142,84 142,84 C 144,88 144,89 144,89 C 174,87 190,85 190,85 C 218,115 233,130 233,130 C 242,144 247,151 247,151 L 232,155 C 227,162 224,166 224,166 Z" fill="#B733EF" id="id-95213"></path><path d=" M 191,123 C 206,92 213,77 213,77 L 212,98 C 198,114 191,123 191,123 Z" fill="#F7B4FB" id="id-95214"></path><path d=" M 151,114 C 180,79 195,62 195,62 L 181,92 C 161,107 151,114 151,114 Z" fill="#FEBCFF" id="id-95215"></path><path d=" M 143,107 C 149,92 153,84 153,84 L 174,72 C 153,96 143,107 143,107 Z" fill="#FBB2FF" id="id-95216"></path><path d=" M 138,104 C 146,76 149,62 149,62 L 171,59 C 149,89 138,104 138,104 Z" fill="#FD8DFF" id="id-95217"></path><path d=" M 127,89 C 132,90 134,90 134,90 L 151,40 L 134,49 C 129,75 127,89 127,89 Z" fill="#FFC4FF" id="id-95218"></path><path d=" M 261,106 L 271,90 L 324,91 C 282,101 261,106 261,106 Z" fill="#F32EDD" id="id-95219"></path><path d=" M 124,98 C 127,100 129,100 129,100 C 118,153 112,180 112,180 L 104,188 C 118,128 124,98 124,98 Z" stroke="#979797" id="id-95220"></path><path d=" M 182,77 C 188,77 192,77 192,77 C 200,89 205,94 205,94 C 207,91 208,89 208,89 C 207,74 210,62 217,51 L 209,44 C 191,66 182,77 182,77 Z" fill="#FF85FD" id="id-95221"></path><path d=" M 143,60 C 178,43 196,34 196,34 C 235,24 254,18 254,18 C 252,55 250,74 250,74 L 291,98 C 271,103 261,106 261,106 C 240,70 230,53 230,53 C 207,44 196,39 196,39 L 171,58 C 152,59 143,60 143,60 Z" fill="#C51FD8" id="id-95222"></path><path d=" M 216,29 C 235,15 244,8 244,8 L 209,15 C 184,26 157,35 134,49 L 131,65 L 145,59 L 196,34 C 209,31 216,29 216,29 Z" fill="#ED70FC" id="id-95223"></path><path d=" M 160,52 C 173,51 179,51 179,51 C 191,43 197,38 197,38 L 222,27 L 196,34 C 172,46 160,52 160,52 Z" fill="#7700AF" id="id-95224"></path><path d=" M 134,49 C 161,44 174,41 174,41 L 210,15 C 173,29 147,41 134,49 Z" fill="#FF9AFF" id="id-95225"></path><path d=" M 197,38 C 209,41 214,42 214,42 C 225,49 230,52 230,52 C 227,39 226,33 226,33 L 237,24 L 222,27 C 205,35 197,38 197,38 Z" fill="#9500CD" id="id-95226"></path><path d=" M 326,87 L 286,52 L 254,0 L 292,44 L 328,84 C 326,86 326,87 326,87 Z" fill="#A315D4" id="id-95227"></path><path d=" M 254,18 C 260,16 263,15 263,15 C 266,19 267,21 267,21 C 269,47 270,60 270,60 L 262,80 L 250,74 C 253,37 254,18 254,18 Z" fill="#D944F0" id="id-95228"></path><path d=" M 241,71 L 251,67 L 254,18 L 239,22 L 226,33 L 230,54 C 237,65 241,71 241,71 Z" fill="#AF22DA" id="id-95229"></path><path d=" M 178,94 C 180,93 181,92 181,92 L 182,90 C 186,93 188,95 188,95 C 186,105 182,111 178,118 C 179,110 182,100 178,94 Z" fill="#F97EFA" id="id-95230"></path><path d=" M 180,466 C 174,499 162,528 146,553 C 153,579 157,593 157,593 L 131,602 L 148,601 L 119,612 L 128,615 L 164,604 L 182,576 L 190,498 C 183,477 180,466 180,466 Z" fill="url(#id-95119)" id="id-95231"></path></g><path d=" M 609,613 C 612,611 615,611 618,615 C 619,784 620,868 620,868 L 608,882 C 608,703 609,613 609,613 Z" fill="#FF84FC" id="id-95232"></path><path d=" M 161,698 C 165,705 167,709 167,709 C 169,828 170,888 170,888 L 165,884 C 162,760 161,698 161,698 Z" fill="#0B80B8" id="id-95233"></path></g><defs><linearGradient x1="49%" y1="25%" x2="50%" y2="0%" id="id-102770"><stop stop-color="#000010" offset="0%" stop-opacity="0"></stop><stop stop-color="#666553" offset="100%"></stop></linearGradient><linearGradient x1="100%" y1="50%" x2="0%" y2="50%" id="id-102771"><stop stop-color="#656640" offset="0%"></stop><stop stop-color="#000010" offset="38%"></stop><stop stop-color="#080815" offset="61%"></stop><stop stop-color="#30554C" offset="100%"></stop></linearGradient><linearGradient x1="100%" y1="50%" x2="0%" y2="50%" id="id-102772"><stop stop-color="#0A2547" offset="0%"></stop><stop stop-color="#091424" offset="100%"></stop></linearGradient><linearGradient x1="51%" y1="15%" x2="46%" y2="78%" id="id-102773"><stop stop-color="#3C4556" offset="0%"></stop><stop stop-color="#151E2E" offset="100%"></stop></linearGradient><linearGradient x1="48%" y1="14%" x2="55%" y2="92%" id="id-102774"><stop stop-color="#1F2939" offset="0%"></stop><stop stop-color="#091424" offset="100%"></stop></linearGradient><linearGradient x1="50%" y1="0%" x2="50%" y2="100%" id="id-102775"><stop stop-color="#E5EAF3" offset="0%"></stop><stop stop-color="#445A66" offset="100%"></stop></linearGradient><linearGradient x1="50%" y1="0%" x2="50%" y2="100%" id="id-102776"><stop stop-color="#E5EAF3" offset="0%"></stop><stop stop-color="#445A66" offset="100%"></stop></linearGradient><filter width="280%" height="173%" x="-90%" y="-32%" id="id-102777" filterUnits="objectBoundingBox"><feMorphology result="id-102778" in="SourceAlpha" operator="dilate" radius="2"></feMorphology><feOffset result="id-102779" in="SourceAlpha" dx="0" dy="2"></feOffset><feGaussianBlur result="id-102781" in="SourceAlpha" stdDeviation="4"></feGaussianBlur><feColorMatrix in="SourceAlpha" type="matrix" values="0 0 0 0 0.561 0 0 0 0 0.039 0 0 0 0 0 0 0 0 1 0"></feColorMatrix></filter><path d=" M 106,126 L 123,127 L 123,127 L 123,127 C 123,127 123,142 122,170 C 122,170 122,170 122,170 L 122,170 C 122,170 116,171 105,171 L 105,171 L 105,171 C 105,171 105,171 105,171 L 105,170 C 105,169 105,154 106,126 L 106,126 Z M 111,130 C 110,154 110,166 110,167 L 110,167 L 110,167 C 115,167 117,167 119,167 L 119,167 C 119,167 119,167 119,167 L 119,167 C 119,167 119,167 119,167 L 119,167 L 119,167 C 119,166 119,165 119,164 L 119,163 C 119,163 119,162 119,162 L 119,161 C 119,160 119,159 119,159 L 119,157 C 119,157 119,157 119,157 L 119,156 C 119,155 119,155 119,155 L 119,154 C 119,154 119,153 119,153 L 119,151 C 119,151 119,151 119,151 L 119,150 C 119,150 119,149 119,149 L 119,148 C 119,148 119,148 119,148 L 119,146 C 119,146 119,146 119,146 L 119,144 C 119,144 119,144 119,144 L 119,143 C 119,142 119,142 119,142 L 119,141 C 119,140 119,140 119,140 L 119,139 C 119,139 119,138 119,138 L 119,137 C 119,137 119,137 119,137 L 119,135 C 119,135 119,135 119,135 L 119,133 C 119,133 119,133 119,133 L 119,131 C 119,131 119,131 119,131 L 119,130 L 119,130 L 111,130 Z" id="id-102784"></path><path d=" M 106,126 L 123,127 L 123,127 L 123,127 C 123,127 123,142 122,170 C 122,170 122,170 122,170 L 122,170 C 122,170 116,171 105,171 L 105,171 L 105,171 C 105,171 105,171 105,171 L 105,170 C 105,169 105,154 106,126 L 106,126 Z M 111,130 C 110,154 110,166 110,167 L 110,167 L 110,167 C 115,167 117,167 119,167 L 119,167 C 119,167 119,167 119,167 L 119,167 C 119,167 119,167 119,167 L 119,167 L 119,167 C 119,166 119,165 119,164 L 119,163 C 119,163 119,162 119,162 L 119,161 C 119,160 119,159 119,159 L 119,157 C 119,157 119,157 119,157 L 119,156 C 119,155 119,155 119,155 L 119,154 C 119,154 119,153 119,153 L 119,151 C 119,151 119,151 119,151 L 119,150 C 119,150 119,149 119,149 L 119,148 C 119,148 119,148 119,148 L 119,146 C 119,146 119,146 119,146 L 119,144 C 119,144 119,144 119,144 L 119,143 C 119,142 119,142 119,142 L 119,141 C 119,140 119,140 119,140 L 119,139 C 119,139 119,138 119,138 L 119,137 C 119,137 119,137 119,137 L 119,135 C 119,135 119,135 119,135 L 119,133 C 119,133 119,133 119,133 L 119,131 C 119,131 119,131 119,131 L 119,130 L 119,130 L 111,130 Z" id="id-102784"></path><linearGradient x1="49%" y1="22%" x2="50%" y2="77%" id="id-102786"><stop stop-color="#252522" offset="0%" stop-opacity="0"></stop><stop stop-color="#282623" offset="100%"></stop></linearGradient></defs><g transform=" translate(538,239)" id="id-102787"><path d=" M 115,0 C 69,5 35,27 10,66 L 44,103 L 71,246 L 116,261 L 161,245 L 222,66 C 199,33 172,5 115,0 Z" fill="url(#id-102770)" id="id-102788"></path><path d=" M 115,0 C 69,5 35,27 10,66 L 44,103 L 71,246 L 116,261 L 161,245 L 222,66 C 199,33 172,5 115,0 Z" fill="url(#id-102771)" id="id-102789"></path><path d=" M 206,79 C 210,75 213,72 213,72 L 213,64 L 202,51 C 185,19 153,9 116,8 C 94,10 73,16 55,30 C 52,36 51,39 51,39 C 66,27 73,21 73,21 C 100,13 129,13 158,20 C 185,44 201,64 206,79 Z" fill="#9FA18B" fill-opacity="0.596" id="id-102790"></path><polygon points="195 91 202 51 213 64 213 71" fill="#9FA18B" fill-opacity="0.651" id="id-102791"></polygon><path d=" M 24,71 L 18,64 C 19,60 22,56 28,52 L 39,50 C 29,64 24,71 24,71 Z" fill="#ACBDB9" id="id-102792"></path><path d=" M 115,0 C 159,3 195,24 222,65 L 222,65 L 222,65 C 222,66 222,85 220,122 C 220,122 224,129 232,141 C 234,165 226,193 210,223 C 210,223 210,232 211,250 L 211,250 L 211,250 C 211,250 208,254 201,259 C 199,260 195,262 189,265 L 189,265 L 189,265 C 189,265 189,265 189,265 L 189,265 C 190,266 190,269 192,275 C 192,275 190,277 188,281 L 188,281 L 188,281 C 188,281 188,281 188,282 L 188,282 C 188,285 188,296 195,307 C 197,311 203,317 213,324 C 205,349 173,377 116,408 C 64,378 33,353 24,333 C 45,318 46,315 45,283 C 45,283 45,283 45,283 L 45,283 C 44,282 43,280 41,276 C 41,276 41,272 42,265 C 31,259 24,254 21,250 C 21,250 22,241 22,223 C 6,193 -1,166 0,141 C 0,141 4,135 12,123 C 12,123 11,104 10,66 C 35,27 70,5 115,0 Z M 116,8 L 115,8 L 115,8 L 113,9 C 112,9 111,9 110,9 L 108,10 C 89,15 70,20 55,30 C 50,42 47,48 47,48 L 28,52 C 23,55 19,60 16,66 L 53,109 C 67,199 74,245 74,245 L 91,250 C 108,247 116,245 116,245 C 131,249 139,251 139,251 C 153,247 160,244 160,244 L 160,244 C 160,244 160,244 160,244 C 176,150 184,102 184,102 C 206,79 217,68 217,68 C 207,57 202,51 202,51 C 191,49 185,48 185,48 C 178,34 175,27 175,27 C 167,23 163,21 162,21 L 162,21 L 162,21 C 131,12 116,8 116,8 Z" fill="url(#id-102772)" id="id-102793"></path><path d=" M 213,324 C 210,322 209,321 209,321 C 203,333 200,338 200,338 C 177,360 150,380 118,400 L 116,408 C 173,377 205,349 213,324 Z" fill="#091424" id="id-102794"></path><path d=" M 118,400 L 118,393 C 164,354 190,317 188,281 C 190,309 201,312 209,321 L 200,338 C 177,360 150,381 118,400 Z" fill="#21395E" id="id-102795"></path><path d=" M 77,298 L 77,308 C 77,308 82,311 90,317 C 90,317 86,325 78,340 C 78,340 71,345 57,354 C 57,354 60,356 60,356 C 74,346 81,340 81,340 C 89,328 93,323 93,323 L 116,355 C 135,329 144,317 144,317 C 142,318 141,318 141,318 C 125,339 117,350 117,350 C 104,330 97,319 97,319 C 119,314 130,312 130,312 C 122,324 117,330 117,330 C 143,315 155,308 155,308 L 156,300 L 188,281 L 192,275 L 189,265 C 200,261 207,256 211,250 C 150,282 87,286 21,250 C 26,256 34,261 42,265 L 41,276 L 45,283 C 58,289 69,294 77,298 Z" fill="#000212" id="id-102796"></path><path d=" M 34,326 C 27,330 24,333 24,333 C 29,342 34,348 38,352 C 60,373 79,385 79,385 L 87,376 C 68,361 48,348 34,326 Z" fill="#1E2E4A" id="id-102797"></path><path d=" M 53,366 C 56,363 58,362 58,362 C 68,369 73,372 73,372 L 68,377 C 58,369 53,366 53,366 Z" fill="#007AFE" id="id-102798"></path><path d=" M 41,276 C 41,274 41,273 41,273 C 47,271 50,270 50,270 L 73,279 L 21,250 C 22,232 22,223 22,223 C 55,247 71,259 71,259 C 71,250 71,246 71,246 C 101,256 116,261 116,261 C 146,251 161,245 161,245 C 161,256 161,261 161,261 L 210,227 C 211,242 211,250 211,250 C 176,269 158,279 158,279 L 185,269 C 189,273 192,275 192,275 L 117,315 C 66,289 41,276 41,276 Z" fill="#151F2F" id="id-102799"></path><path d=" M 80,301 C 81,287 81,280 81,280 C 85,272 87,268 87,268 C 84,267 83,266 83,266 C 83,258 83,254 83,254 C 105,262 116,266 116,266 C 138,258 149,254 149,254 C 149,262 149,266 149,266 C 146,267 144,268 144,268 C 148,276 150,280 150,280 L 151,302 C 143,307 135,312 117,315 C 107,313 95,309 80,301 Z" fill="#50586A" id="id-102800"></path><path d=" M 128,313 C 127,290 127,279 127,279 C 136,274 140,271 140,271 L 141,308 C 132,311 128,313 128,313 Z" fill="#828793" id="id-102801"></path><path d=" M 116,315 L 116,266 L 83,254 L 83,266 L 87,268 L 81,280 L 80,301 C 92,308 104,312 116,315 Z" fill="#384051" id="id-102802"></path><path d=" M 109,276 C 113,274 116,273 116,273 C 120,276 123,277 123,277 L 116,287 C 111,280 109,276 109,276 Z" fill="#161F30" id="id-102803"></path><path d=" M 131,271 C 139,268 143,267 143,267 C 142,260 142,257 142,257 L 129,261 C 130,268 131,271 131,271 Z" fill="#9499A2" id="id-102804"></path><path d=" M 22,226 C 34,234 39,238 39,238 L 34,256 L 21,250 C 22,234 22,226 22,226 Z" fill="#393D40" id="id-102805"></path><path d=" M 196,258 C 193,248 192,243 192,243 L 210,228 L 211,250 C 201,255 196,258 196,258 Z" fill="#393D40" id="id-102806"></path><path d=" M 90,306 C 91,284 92,273 92,273 C 99,276 103,278 103,278 L 101,311 C 94,307 90,306 90,306 Z" fill="#242D3E" id="id-102807"></path><path d=" M 46,45 C 50,33 52,27 52,27 L 66,14 C 54,19 29,35 10,66 L 25,49 C 39,46 46,45 46,45 Z" fill="#7F8592" id="id-102808"></path><path d=" M 161,261 L 210,227 L 210,223 C 200,232 200,218 211,178 C 220,153 227,141 232,141 L 220,122 L 222,66 L 189,102 L 161,243 L 161,261 Z" fill="url(#id-102773)" id="id-102809"></path><path d=" M 184,245 L 161,261 L 162,241 L 163,227 L 183,182 L 193,171 C 184,194 184,219 184,245 Z" fill="#0D1727" id="id-102810"></path><path d=" M 189,102 C 193,118 194,126 194,126 L 210,132 C 204,143 198,156 193,171 C 187,186 184,210 184,245 L 210,227 L 210,223 C 200,233 200,218 211,178 C 220,152 227,140 232,141 L 220,122 L 222,66 C 200,90 189,102 189,102 Z" fill="#2C3647" id="id-102811"></path><path d=" M 193,171 L 214,171 C 220,156 226,140 232,141 L 220,122 L 222,66 L 189,102 L 194,126 L 210,133 C 203,143 198,156 193,171 Z" fill="#505869" id="id-102812"></path><path d=" M 199,155 C 212,159 218,161 218,161 C 221,154 223,150 223,150 L 205,142 C 202,148 200,152 199,155 Z" fill="#5A6E94" id="id-102813"></path><path d=" M 213,133 C 211,131 210,130 210,130 C 207,136 205,139 205,139 L 208,141 L 213,133 Z" fill="#C0C4C8" id="id-102814"></path><path d=" M 199,162 C 196,161 195,160 195,160 C 193,167 192,171 192,171 L 196,172 C 198,165 199,162 199,162 Z" fill="#C5C8CE" id="id-102815"></path><polygon points="189 102 192 99 193 102 187 110" fill="#FFFFFF" id="id-102816"></polygon><path d=" M 210,227 C 194,238 186,243 186,243 L 200,223 C 202,229 206,230 210,227 Z" fill="#676868" id="id-102817"></path><path d=" M 215,74 C 217,71 218,70 218,70 L 216,84 C 215,77 215,74 215,74 Z" fill="#D1D4D9" id="id-102818"></path><path d=" M 10,66 C 21,75 33,89 45,103 L 74,245 L 71,246 C 71,254 71,259 71,259 C 43,238 29,228 29,228 C 27,210 26,201 26,201 L 15,161 C 8,151 3,142 0,141 L 12,123 C 11,85 10,66 10,66 Z" fill="#31394A" id="id-102819"></path><path d=" M 46,240 C 39,203 45,169 16,125 C 33,131 41,135 41,135 C 43,122 45,115 45,115 L 68,223 L 71,246 L 71,259 C 54,246 46,240 46,240 Z" fill="url(#id-102774)" id="id-102820"></path><path d=" M 17,73 C 16,79 16,82 16,82 L 12,68 C 16,71 17,73 17,73 Z" fill="#D0D1D7" id="id-102821"></path><path d=" M 15,161 L 31,159 C 22,138 16,126 12,123 L 2,138 C 9,146 14,154 15,161 Z" fill="#46526D" id="id-102822"></path><path d=" M 9,147 C 18,143 22,140 22,140 C 24,146 25,149 25,149 C 21,148 16,150 12,153 C 10,149 9,147 9,147 Z" fill="#596E97" id="id-102823"></path><path d=" M 35,168 C 33,169 32,169 32,169 C 30,162 29,159 29,159 L 32,158 C 34,165 35,168 35,168 Z" fill="#C8CDD1" id="id-102824"></path><path d=" M 32,230 C 29,204 28,192 28,192 C 35,196 38,197 38,197 L 42,237 C 35,232 32,230 32,230 Z" fill="#091424" id="id-102825"></path><path d=" M 27,145 C 24,146 23,146 23,146 C 20,140 18,137 18,137 L 22,135 C 25,141 27,145 27,145 Z" fill="#C8CCD1" id="id-102826"></path><path d=" M 29,227 C 17,204 11,193 11,193 C 15,196 18,195 22,193 C 26,216 29,227 29,227 Z" fill="#404957" id="id-102827"></path><path d=" M 116,261 C 146,251 161,245 161,245 C 161,251 162,253 162,253 C 181,156 190,107 190,107 C 190,104 190,103 190,103 C 170,197 161,244 161,244 C 147,249 140,251 140,251 C 125,247 117,244 117,244 C 100,248 92,250 92,250 C 80,247 74,245 74,245 C 59,162 50,115 45,103 C 23,78 12,65 12,65 C 11,67 11,67 11,67 C 32,92 43,104 43,104 C 54,154 63,200 72,245 C 102,256 116,261 116,261 Z" fill="#4D5365" id="id-102828"></path><path d=" M 19,188 C 14,187 11,185 10,182 C 6,164 4,155 5,156 C 9,156 19,188 19,188 Z" fill="#FA002A" id="id-102829"></path><path d=" M 207,198 C 212,200 214,201 214,201 C 220,197 222,195 222,195 C 212,215 207,225 207,225 C 204,226 204,223 203,220 C 206,205 207,198 207,198 Z" fill="#007AFF" id="id-102830"></path><path d=" M 115,260 C 112,256 110,254 110,254 C 114,250 115,249 115,249 L 121,255 C 117,258 115,260 115,260 Z" fill="#0078F8" id="id-102831"></path><path d=" M 115,0 C 111,2 109,4 109,4 C 131,9 154,15 178,25 C 184,38 188,45 188,45 C 199,48 205,49 205,49 C 213,59 217,64 217,64 L 220,62 C 195,24 159,3 115,0 Z" fill="#2C3D5D" id="id-102832"></path><path d=" M 84,248 C 72,155 66,108 66,108 C 72,92 75,84 75,84 C 85,108 90,120 90,120 C 120,120 135,120 135,120 C 158,92 169,77 169,77 L 153,156 L 144,250 L 139,251 L 116,245 L 90,250 L 84,248 Z" fill="#000010" id="id-102833"></path><path d=" M 93,224 C 90,192 88,177 88,177 L 87,122 C 91,190 93,224 93,224 Z" fill="#3F4859" id="id-102834"></path><path d=" M 134,226 C 137,158 138,123 138,123 L 139,184 C 136,212 134,226 134,226 Z" fill="#3F4859" id="id-102835"></path><path d=" M 87,177 L 75,166 L 70,136 L 63,130 L 69,128 L 66,108 L 87,122 C 87,159 87,177 87,177 Z" fill="url(#id-102775)" id="id-102836"></path><path d=" M 139,184 C 139,141 139,120 139,120 C 158,112 167,108 167,108 C 162,125 160,134 160,134 C 154,139 151,142 151,142 L 146,179 C 141,182 139,184 139,184 Z" fill="url(#id-102776)" id="id-102837"></path><g id="id-102793"><use fill="#000000" fill-opacity="1" xlink:href="#id-102784" filter="url(#id-102777)"></use><use fill="#FFD000" xlink:href="#id-102784" fill-rule="evenodd"></use></g><path d=" M 163,371 C 165,374 167,376 167,376 C 178,368 183,364 183,364 L 178,359 C 168,367 163,371 163,371 Z" fill="#007AFE" id="id-102842"></path><path d=" M 90,120 C 120,121 135,121 135,121 L 157,66 L 79,64 L 90,120 Z" fill="url(#id-102786)" id="id-102843"></path><path d=" M 218,193 C 215,195 213,195 213,195 C 212,193 211,193 211,193 C 215,180 219,170 223,166 C 224,173 222,182 218,193 Z" fill="#FF002A" id="id-102844"></path></g><defs></defs><path d=" M 1202,1685 C 1201,1683 1198,1681 1197,1679 C 1196,1678 1196,1676 1196,1675 C 1196,1674 1194,1672 1193,1671 C 1193,1670 1192,1669 1192,1668 C 1192,1667 1195,1666 1196,1665 C 1198,1663 1200,1661 1202,1658 C 1207,1649 1216,1643 1226,1641 C 1240,1638 1254,1644 1263,1655 C 1264,1657 1266,1660 1265,1663 C 1265,1664 1263,1665 1263,1666 C 1263,1667 1265,1669 1266,1670 C 1271,1673 1269,1673 1270,1678 C 1270,1682 1274,1681 1274,1685 L 1274,1685 L 1274,1686 C 1274,1686 1274,1686 1274,1686 C 1273,1688 1271,1688 1270,1689 C 1268,1691 1267,1692 1266,1694 C 1263,1698 1261,1700 1258,1704 C 1242,1719 1214,1716 1202,1696 C 1201,1695 1199,1691 1200,1689 C 1201,1688 1202,1688 1202,1685 L 1202,1685 Z M 1268,1685 C 1267,1682 1265,1682 1264,1679 C 1264,1678 1264,1677 1264,1676 C 1264,1675 1264,1674 1264,1674 C 1264,1673 1263,1672 1262,1672 C 1260,1670 1256,1669 1258,1665 C 1259,1662 1261,1662 1258,1658 C 1246,1643 1223,1641 1210,1656 C 1209,1658 1208,1659 1207,1661 C 1205,1663 1202,1665 1200,1667 C 1197,1669 1197,1669 1200,1671 C 1203,1675 1201,1676 1203,1679 C 1204,1681 1207,1682 1208,1685 L 1208,1685 L 1208,1685 C 1207,1690 1203,1688 1207,1694 C 1216,1706 1232,1711 1246,1705 C 1249,1704 1252,1702 1255,1699 C 1257,1697 1259,1694 1261,1691 C 1263,1689 1267,1687 1268,1685 L 1268,1685 Z M 1254,1685 C 1254,1682 1252,1682 1252,1680 C 1251,1677 1251,1673 1255,1674 C 1258,1675 1256,1678 1258,1680 C 1259,1682 1260,1682 1260,1685 L 1261,1686 L 1260,1686 C 1259,1688 1257,1689 1255,1690 C 1248,1694 1246,1699 1237,1700 C 1231,1701 1225,1700 1221,1697 C 1219,1696 1216,1694 1215,1692 C 1213,1689 1216,1688 1216,1685 C 1215,1683 1212,1682 1211,1680 C 1208,1677 1210,1673 1214,1674 L 1214,1674 L 1215,1675 C 1216,1678 1215,1679 1217,1681 C 1219,1682 1222,1683 1222,1686 C 1222,1689 1220,1690 1224,1692 C 1230,1696 1238,1695 1244,1691 C 1246,1690 1253,1687 1254,1685 L 1254,1685 Z M 1244,1674 C 1242,1675 1239,1674 1237,1673 C 1236,1672 1233,1670 1232,1669 C 1231,1669 1231,1668 1231,1667 C 1231,1666 1233,1665 1234,1664 C 1235,1662 1237,1661 1238,1659 C 1242,1652 1249,1658 1247,1663 C 1246,1665 1243,1666 1243,1668 C 1243,1670 1246,1671 1244,1674 L 1244,1674 L 1244,1674 L 1244,1674 Z M 1222,1656 C 1224,1655 1227,1656 1228,1659 C 1229,1660 1229,1661 1229,1663 C 1228,1665 1223,1666 1225,1669 C 1225,1670 1226,1670 1226,1671 C 1227,1674 1226,1675 1223,1675 C 1222,1675 1219,1673 1218,1672 C 1216,1671 1212,1669 1214,1666 C 1215,1664 1217,1664 1218,1662 C 1219,1660 1220,1658 1222,1656 L 1222,1656 Z" fill="#343D53" opacity="0.297" id="id-77051"></path></svg>