<?xml version="1.0" encoding="UTF-8"?><svg width="1320px" height="1760px" viewBox="0 0 1320 1760" version="1.1" xmlns="http://www.w3.org/2000/svg" xmlns:xlink="http://www.w3.org/1999/xlink"><defs></defs><g stroke="none" stroke-width="1" fill="none" id="id-32932" fill-rule="evenodd"><g id="id-32933"><rect fill="#DCDDEB" width="1320" height="1760" x="0" y="0" id="id-32934"></rect><path d=" M 544,357 C 544,359 544,360 544,360 C 543,359 542,359 542,359 C 541,357 541,355 541,355 C 538,351 534,346 527,345 C 512,336 498,333 487,339 C 473,340 466,348 458,353 C 452,359 445,367 439,377 C 438,380 438,381 438,381 C 432,390 425,410 417,439 L 417,443 C 412,459 409,483 406,508 C 404,525 403,544 402,567 C 403,570 403,571 403,571 C 402,572 401,573 401,573 C 401,585 401,591 401,591 C 402,594 403,595 403,595 C 402,597 401,598 401,598 C 401,602 401,605 401,605 C 401,620 401,627 401,627 C 403,632 403,635 403,635 C 402,638 401,639 401,639 C 403,669 403,684 403,684 C 404,691 405,695 405,695 C 407,696 407,697 407,697 C 406,700 405,702 405,702 C 406,709 406,713 406,713 C 407,715 408,716 408,716 C 408,720 408,722 408,722 C 409,724 410,725 410,725 C 408,726 407,727 407,727 C 408,735 408,739 408,739 C 409,740 410,740 410,740 C 410,750 410,754 410,754 C 411,756 412,757 412,757 C 413,769 414,776 414,776 C 415,778 416,779 416,779 C 415,781 414,782 414,782 C 415,797 417,809 420,818 C 422,820 422,822 422,822 C 421,824 421,825 421,825 C 422,840 424,851 427,859 C 426,870 428,881 433,892 C 434,897 432,904 436,906 C 435,912 435,918 438,922 C 438,932 440,935 441,938 C 443,934 443,932 443,932 C 446,938 448,941 448,941 C 444,942 442,943 442,943 C 442,945 442,947 442,947 C 446,971 449,984 449,984 C 450,985 451,986 451,986 C 456,1001 458,1009 458,1009 C 457,1014 457,1017 457,1017 C 461,1031 463,1039 463,1039 C 467,1044 469,1046 469,1046 C 470,1052 471,1055 471,1055 C 470,1063 469,1066 469,1066 C 472,1070 474,1072 474,1072 C 474,1078 474,1081 474,1081 C 476,1085 476,1087 476,1087 C 477,1092 477,1095 477,1095 C 480,1102 481,1105 481,1105 C 482,1111 482,1117 485,1122 C 486,1130 487,1134 487,1134 C 495,1138 499,1140 499,1140 C 496,1146 495,1149 495,1149 C 496,1154 496,1156 496,1156 C 499,1159 501,1160 501,1160 C 501,1164 499,1165 503,1173 C 504,1182 504,1186 504,1186 C 507,1190 509,1192 509,1192 C 512,1197 513,1200 513,1200 C 513,1205 513,1207 513,1207 C 515,1217 518,1222 522,1226 C 522,1230 523,1232 523,1232 C 525,1236 526,1238 526,1238 C 526,1244 527,1248 527,1248 C 529,1252 530,1254 530,1254 C 531,1259 532,1261 532,1261 C 534,1267 535,1269 535,1269 C 536,1275 536,1277 536,1277 C 539,1283 541,1285 541,1285 C 543,1286 545,1286 545,1286 C 545,1291 545,1293 545,1293 C 550,1307 552,1314 552,1314 C 556,1319 557,1321 557,1321 C 558,1327 558,1331 558,1331 C 561,1335 563,1337 563,1337 C 563,1343 563,1346 563,1346 L 573,1356 C 573,1362 573,1366 573,1366 C 575,1367 577,1368 577,1368 C 584,1384 587,1393 587,1393 C 588,1397 588,1399 588,1399 C 590,1400 591,1400 591,1400 C 601,1419 606,1428 606,1428 C 608,1434 609,1437 609,1437 C 611,1438 612,1438 612,1438 C 613,1443 613,1445 613,1445 C 617,1449 618,1450 618,1450 C 620,1451 621,1451 621,1451 C 622,1458 622,1462 622,1462 C 624,1464 625,1465 625,1465 C 627,1468 627,1470 627,1470 C 635,1482 638,1487 638,1487 C 640,1492 641,1494 641,1494 C 654,1514 661,1524 661,1524 C 663,1526 664,1526 664,1526 C 666,1531 666,1533 666,1533 C 670,1538 672,1540 672,1540 C 673,1544 673,1546 673,1546 C 676,1546 677,1547 677,1547 C 680,1551 682,1554 682,1554 C 684,1558 686,1560 686,1560 C 687,1563 688,1565 688,1565 C 692,1567 694,1567 694,1567 C 698,1574 700,1578 700,1578 C 706,1582 709,1583 709,1583 C 719,1597 735,1611 752,1625 C 757,1625 759,1625 759,1625 C 764,1630 766,1635 776,1637 C 800,1650 844,1649 857,1636 C 883,1622 906,1597 918,1556 C 920,1551 921,1549 921,1549 C 922,1543 922,1540 922,1540 C 924,1533 925,1530 925,1530 C 927,1526 928,1525 928,1525 C 931,1505 933,1495 933,1495 C 935,1466 936,1452 936,1452 C 937,1447 937,1445 937,1445 C 940,1338 933,1230 913,1120 C 912,1115 911,1113 911,1113 C 911,1107 911,1104 911,1104 C 907,1096 906,1092 906,1092 C 906,1086 906,1083 906,1083 C 903,1077 902,1074 902,1074 C 902,1067 902,1064 902,1064 C 899,1058 897,1055 897,1055 C 887,1021 882,1005 882,1005 C 881,1002 880,1000 880,1000 C 879,996 878,994 878,994 C 870,969 866,956 866,956 C 858,937 853,927 853,927 C 850,917 849,912 849,912 C 839,884 834,870 834,870 C 828,873 824,875 824,875 C 835,906 840,922 840,922 C 840,929 840,933 840,933 C 843,937 844,939 844,939 C 844,944 844,947 844,947 C 847,950 849,952 849,952 C 849,959 849,962 849,962 C 852,968 853,971 853,971 C 853,975 853,977 853,977 C 856,978 858,979 858,979 C 858,983 859,986 859,986 C 860,995 860,999 860,999 C 864,1006 860,1010 866,1018 C 867,1028 867,1032 867,1032 C 869,1036 870,1038 870,1038 C 873,1048 875,1054 875,1054 C 876,1065 876,1070 876,1070 C 880,1074 881,1075 881,1075 C 883,1090 884,1097 884,1097 C 891,1118 897,1151 903,1190 C 902,1195 902,1197 902,1197 C 905,1209 908,1231 911,1248 C 912,1257 912,1262 912,1262 C 911,1271 911,1276 911,1276 C 914,1285 915,1290 915,1290 C 915,1298 915,1301 915,1301 C 915,1310 916,1314 916,1314 C 916,1322 916,1326 916,1326 C 917,1334 917,1338 917,1338 C 918,1352 919,1359 919,1359 C 920,1366 920,1370 920,1370 C 918,1427 918,1455 918,1455 C 918,1460 919,1463 919,1463 C 917,1465 916,1466 916,1466 C 908,1543 891,1604 849,1623 C 834,1627 822,1628 812,1627 C 808,1624 806,1623 806,1623 C 794,1622 783,1616 770,1608 C 750,1597 727,1568 705,1549 C 704,1545 704,1543 704,1543 C 694,1532 689,1527 689,1527 C 688,1523 688,1522 688,1522 C 680,1510 676,1505 676,1505 C 677,1500 677,1498 677,1498 C 673,1499 671,1499 671,1499 C 657,1479 650,1469 650,1469 C 651,1467 652,1467 652,1467 C 645,1458 642,1453 642,1453 C 635,1442 632,1436 632,1436 C 634,1432 636,1430 636,1430 C 631,1430 629,1430 629,1430 C 614,1402 607,1389 607,1389 C 590,1350 582,1331 582,1331 C 575,1314 571,1305 571,1305 C 562,1285 558,1275 558,1275 C 558,1269 558,1266 558,1266 C 550,1248 545,1238 545,1238 C 531,1199 524,1179 524,1179 C 524,1172 524,1169 524,1169 C 512,1147 503,1115 495,1081 C 491,1071 489,1067 489,1067 C 486,1054 484,1048 484,1048 C 481,1030 479,1021 479,1021 C 478,1013 477,1009 477,1009 C 472,995 470,988 470,988 C 468,974 467,967 467,967 C 463,955 461,949 461,949 C 460,935 456,917 450,895 C 449,891 449,888 449,888 C 447,882 446,879 446,879 C 447,872 447,869 447,869 C 445,867 444,866 444,866 C 445,862 446,859 446,859 C 444,856 443,855 443,855 C 444,853 444,852 444,852 C 441,846 440,844 440,844 C 442,840 443,838 443,838 C 441,833 440,831 440,831 C 441,828 441,826 441,826 C 440,819 439,812 436,807 C 437,804 437,802 437,802 C 434,797 433,794 433,794 C 433,783 434,770 431,762 C 431,756 431,750 428,746 C 427,738 428,730 424,722 C 429,698 425,685 421,673 C 421,671 421,670 421,670 C 422,664 422,661 422,661 C 423,657 423,655 423,655 C 425,648 424,641 420,636 C 420,630 420,627 420,627 L 418,624 C 420,619 420,615 418,612 C 421,606 423,604 423,604 C 419,599 417,597 417,597 C 421,592 422,589 422,589 C 422,581 422,577 422,577 C 421,575 420,573 420,573 C 421,569 422,566 422,566 C 420,559 419,555 419,555 C 421,550 422,548 422,548 C 422,539 421,529 422,511 C 425,507 427,505 427,505 C 426,501 426,499 426,499 C 435,425 450,366 485,353 C 497,349 511,355 532,373 C 534,377 535,378 535,378 C 537,378 539,378 539,378 C 560,401 583,430 609,476 C 611,478 612,479 612,479 C 624,501 629,512 629,512 C 644,512 652,511 652,511 C 644,497 640,490 640,490 C 639,487 639,486 639,486 C 637,483 636,481 636,481 C 634,475 629,468 625,461 C 623,457 623,455 623,455 C 617,446 614,441 614,441 C 613,438 613,436 613,436 C 607,430 604,427 604,427 C 603,424 603,423 603,423 C 592,411 587,406 587,406 C 586,404 586,402 586,402 C 584,401 583,400 583,400 C 581,392 576,385 568,379 C 564,373 561,368 553,362 C 549,358 547,356 544,357 Z" transform=" translate(669,991) rotate(-38) translate(-669,-991)" fill="#EA2055" id="id-32935"></path><rect fill="#000000" width="37" height="134" x="0" y="0" id="id-32934"></rect><rect fill="#000000" width="37" height="134" x="0" y="813" id="id-32934"></rect><rect fill="#000000" width="37" height="134" x="0" y="1626" id="id-32934"></rect></g></g><defs></defs><g transform=" translate(439,879)" id="id-73630"><path d=" M 76,149 C 72,105 70,83 70,83 L 89,43 C 93,63 105,87 106,117 C 86,139 76,149 76,149 Z" fill="#9D18A2" id="id-73631"></path><path d=" M 73,119 L 57,134 L 58,110 C 65,82 75,25 82,0 C 85,6 86,27 89,42 L 72,85 C 72,107 73,119 73,119 Z" fill="#4E1275" id="id-73632"></path><polygon points="91 104 46 128 14 301 31 391 120 154" fill="#474E93" id="id-73633"></polygon><path d=" M 98,170 C 96,173 95,175 95,175 C 83,158 77,149 77,149 L 96,121 C 97,153 98,170 98,170 Z" fill="#5F2486" id="id-73634"></path><path d=" M 40,304 L 63,210 L 27,210 C 50,201 61,197 61,197 C 60,195 61,192 63,187 L 10,208 L 10,213 C 5,219 5,222 4,226 L 0,223 L 10,255 L 25,299 C 35,302 40,304 40,304 Z" fill="#3C8FB9" id="id-73635"></path><path d=" M 28,241 C 23,235 16,227 7,216 L 10,212 L 10,210 L 28,210 L 42,210 L 28,241 Z" fill="#60A8C9" id="id-73636"></path></g><defs><linearGradient x1="57%" y1="37%" x2="50%" y2="63%" id="id-73810"><stop stop-color="#AF0085" offset="0%"></stop><stop stop-color="#008FCC" offset="100%"></stop></linearGradient></defs><path d=" M 729,588 C 732,579 733,570 731,560 C 731,562 731,600 708,602 C 708,602 726,592 724,550 C 721,508 607,556 607,556 C 608,557 598,554 578,548 C 576,535 575,520 576,507 C 576,507 705,482 736,513 C 736,513 742,575 729,588 Z" fill="url(#id-73810)" id="id-73811"></path><defs><linearGradient x1="100%" y1="46%" x2="12%" y2="47%" id="id-74554"><stop stop-color="#F97338" offset="0%"></stop><stop stop-color="#F06728" offset="21%"></stop><stop stop-color="#FFAA6B" offset="46%"></stop><stop stop-color="#FF9A57" offset="80%"></stop><stop stop-color="#FF8340" offset="100%"></stop></linearGradient><linearGradient x1="53%" y1="81%" x2="50%" y2="21%" id="id-74555"><stop stop-color="#E58D69" offset="0%"></stop><stop stop-color="#E1745C" offset="24%"></stop><stop stop-color="#E27C40" offset="100%"></stop></linearGradient><linearGradient x1="52%" y1="-4%" x2="46%" y2="70%" id="id-74556"><stop stop-color="#ED8D5B" offset="0%"></stop><stop stop-color="#C76D3B" offset="100%"></stop></linearGradient><linearGradient x1="46%" y1="43%" x2="15%" y2="43%" id="id-74557"><stop stop-color="#EE8152" offset="0%"></stop><stop stop-color="#CF5621" offset="100%"></stop></linearGradient><linearGradient x1="54%" y1="37%" x2="12%" y2="72%" id="id-74558"><stop stop-color="#3C1B05" offset="0%"></stop><stop stop-color="#AE5B2E" offset="100%"></stop></linearGradient><linearGradient x1="40%" y1="14%" x2="61%" y2="85%" id="id-74559"><stop stop-color="#6E1B17" offset="0%"></stop><stop stop-color="#852720" offset="100%"></stop></linearGradient><linearGradient x1="27%" y1="47%" x2="91%" y2="49%" id="id-74560"><stop stop-color="#FFA58A" offset="0%"></stop><stop stop-color="#FFC3A1" offset="100%"></stop></linearGradient><linearGradient x1="47%" y1="60%" x2="49%" y2="79%" id="id-74561"><stop stop-color="#EE833F" offset="0%"></stop><stop stop-color="#E6713C" offset="60%"></stop><stop stop-color="#F69666" offset="100%"></stop></linearGradient><linearGradient x1="29%" y1="56%" x2="69%" y2="53%" id="id-74562"><stop stop-color="#D97647" offset="0%"></stop><stop stop-color="#D6623C" offset="8%"></stop><stop stop-color="#D77043" offset="18%"></stop><stop stop-color="#D76545" offset="38%"></stop><stop stop-color="#D36346" offset="65%"></stop><stop stop-color="#D16140" offset="81%"></stop><stop stop-color="#984F3B" offset="100%"></stop></linearGradient><linearGradient x1="47%" y1="45%" x2="54%" y2="46%" id="id-74563"><stop stop-color="#E16241" offset="0%"></stop><stop stop-color="#E1673E" offset="62%"></stop><stop stop-color="#D45A30" offset="77%"></stop><stop stop-color="#E37F49" offset="100%"></stop></linearGradient><linearGradient x1="51%" y1="7%" x2="50%" y2="100%" id="id-74564"><stop stop-color="#E86B40" offset="0%"></stop><stop stop-color="#E3845C" offset="75%"></stop><stop stop-color="#E88461" offset="100%"></stop></linearGradient><linearGradient x1="51%" y1="11%" x2="49%" y2="91%" id="id-74565"><stop stop-color="#E8793E" offset="0%"></stop><stop stop-color="#E5763C" offset="73%"></stop><stop stop-color="#E97E40" offset="100%"></stop></linearGradient><linearGradient x1="51%" y1="-5%" x2="48%" y2="96%" id="id-74566"><stop stop-color="#EF773C" offset="0%"></stop><stop stop-color="#DD662E" offset="100%"></stop></linearGradient><linearGradient x1="50%" y1="19%" x2="50%" y2="69%" id="id-74567"><stop stop-color="#C04A19" offset="0%"></stop><stop stop-color="#A33710" offset="46%"></stop><stop stop-color="#BE440B" offset="100%"></stop></linearGradient><linearGradient x1="46%" y1="74%" x2="39%" y2="35%" id="id-74568"><stop stop-color="#B34A35" offset="0%"></stop><stop stop-color="#C55E3E" offset="51%"></stop><stop stop-color="#D4623B" offset="100%"></stop></linearGradient><linearGradient x1="46%" y1="16%" x2="49%" y2="82%" id="id-74569"><stop stop-color="#9B473D" offset="0%" stop-opacity="0.186"></stop><stop stop-color="#5F2520" offset="100%"></stop></linearGradient><linearGradient x1="41%" y1="19%" x2="50%" y2="100%" id="id-74570"><stop stop-color="#CC5E47" offset="0%"></stop><stop stop-color="#B13E35" offset="100%"></stop></linearGradient><linearGradient x1="50%" y1="31%" x2="45%" y2="50%" id="id-74571"><stop stop-color="#E76A31" offset="0%"></stop><stop stop-color="#EB8D54" offset="100%"></stop></linearGradient><linearGradient x1="51%" y1="22%" x2="50%" y2="100%" id="id-74572"><stop stop-color="#C74B40" offset="0%"></stop><stop stop-color="#C85E52" offset="100%"></stop></linearGradient><linearGradient x1="49%" y1="0%" x2="50%" y2="99%" id="id-74573"><stop stop-color="#DB6F3D" offset="0%"></stop><stop stop-color="#E8764A" offset="100%"></stop></linearGradient><linearGradient x1="44%" y1="15%" x2="50%" y2="100%" id="id-74574"><stop stop-color="#C15138" offset="0%"></stop><stop stop-color="#BA4D37" offset="100%"></stop></linearGradient><linearGradient x1="52%" y1="21%" x2="49%" y2="83%" id="id-74575"><stop stop-color="#E87740" offset="0%"></stop><stop stop-color="#E77E4F" offset="48%"></stop><stop stop-color="#E48553" offset="100%"></stop></linearGradient><linearGradient x1="85%" y1="60%" x2="15%" y2="60%" id="id-74576"><stop stop-color="#E76C34" offset="0%"></stop><stop stop-color="#D76128" offset="100%"></stop></linearGradient><linearGradient x1="50%" y1="-3%" x2="59%" y2="91%" id="id-74577"><stop stop-color="#F98450" offset="0%"></stop><stop stop-color="#E16C36" offset="53%"></stop><stop stop-color="#D55D29" offset="66%"></stop><stop stop-color="#D85620" offset="100%"></stop></linearGradient><linearGradient x1="55%" y1="48%" x2="46%" y2="33%" id="id-74578"><stop stop-color="#E87C40" offset="0%"></stop><stop stop-color="#E77C42" offset="86%"></stop><stop stop-color="#E47138" offset="100%"></stop></linearGradient><linearGradient x1="50%" y1="19%" x2="50%" y2="78%" id="id-74579"><stop stop-color="#913919" offset="0%"></stop><stop stop-color="#AB4722" offset="50%"></stop><stop stop-color="#842C26" offset="100%"></stop></linearGradient><linearGradient x1="50%" y1="10%" x2="50%" y2="43%" id="id-74580"><stop stop-color="#EC7237" offset="0%"></stop><stop stop-color="#CB5D37" offset="15%"></stop><stop stop-color="#AF3F09" offset="68%"></stop><stop stop-color="#D04F19" offset="100%"></stop></linearGradient><linearGradient x1="89%" y1="50%" x2="7%" y2="52%" id="id-74581"><stop stop-color="#A93700" offset="0%"></stop><stop stop-color="#B85C4D" offset="53%" stop-opacity="0.199"></stop><stop stop-color="#A3451F" offset="75%"></stop><stop stop-color="#952903" offset="100%"></stop></linearGradient><linearGradient x1="44%" y1="70%" x2="86%" y2="30%" id="id-74582"><stop stop-color="#FF975B" offset="0%"></stop><stop stop-color="#FFAA6C" offset="100%"></stop></linearGradient><linearGradient x1="33%" y1="92%" x2="62%" y2="23%" id="id-74583"><stop stop-color="#AC401F" offset="0%"></stop><stop stop-color="#FF8245" offset="40%"></stop><stop stop-color="#FF965B" offset="100%"></stop></linearGradient><linearGradient x1="35%" y1="94%" x2="47%" y2="12%" id="id-74584"><stop stop-color="#DF5820" offset="0%"></stop><stop stop-color="#FF894D" offset="40%"></stop><stop stop-color="#FFA769" offset="100%"></stop></linearGradient><linearGradient x1="50%" y1="54%" x2="27%" y2="9%" id="id-74585"><stop stop-color="#F7AB80" offset="0%"></stop><stop stop-color="#DDAB90" offset="100%" stop-opacity="0.078"></stop></linearGradient><linearGradient x1="50%" y1="0%" x2="93%" y2="69%" id="id-74586"><stop stop-color="#FF9558" offset="0%"></stop><stop stop-color="#FF8B4A" offset="70%"></stop><stop stop-color="#C6422F" offset="100%"></stop></linearGradient><linearGradient x1="36%" y1="84%" x2="25%" y2="44%" id="id-74587"><stop stop-color="#C98762" offset="0%" stop-opacity="0.509"></stop><stop stop-color="#90492C" offset="35%" stop-opacity="0.675"></stop><stop stop-color="#762E17" offset="100%" stop-opacity="0"></stop></linearGradient><linearGradient x1="63%" y1="95%" x2="43%" y2="20%" id="id-74588"><stop stop-color="#E67D45" offset="0%"></stop><stop stop-color="#E98D52" offset="46%"></stop><stop stop-color="#E27847" offset="100%"></stop></linearGradient><linearGradient x1="40%" y1="0%" x2="50%" y2="86%" id="id-74589"><stop stop-color="#E67D42" offset="0%"></stop><stop stop-color="#E47D44" offset="100%"></stop></linearGradient><linearGradient x1="50%" y1="0%" x2="50%" y2="90%" id="id-74590"><stop stop-color="#EA8447" offset="0%"></stop><stop stop-color="#E79253" offset="100%"></stop></linearGradient><linearGradient x1="33%" y1="79%" x2="21%" y2="44%" id="id-74591"><stop stop-color="#BE6457" offset="0%"></stop><stop stop-color="#983F32" offset="28%" stop-opacity="0.928"></stop><stop stop-color="#762E17" offset="100%" stop-opacity="0"></stop></linearGradient><linearGradient x1="4%" y1="47%" x2="92%" y2="45%" id="id-74592"><stop stop-color="#7E2A0A" offset="0%"></stop><stop stop-color="#993A16" offset="17%" stop-opacity="0.753"></stop><stop stop-color="#A94736" offset="48%" stop-opacity="0.386"></stop><stop stop-color="#AC4218" offset="78%" stop-opacity="0.762"></stop><stop stop-color="#9F3B13" offset="100%"></stop></linearGradient><linearGradient x1="60%" y1="45%" x2="67%" y2="53%" id="id-74593"><stop stop-color="#FF8B59" offset="0%"></stop><stop stop-color="#FFBA99" offset="100%"></stop></linearGradient><linearGradient x1="48%" y1="15%" x2="54%" y2="81%" id="id-74594"><stop stop-color="#E6976B" offset="0%"></stop><stop stop-color="#E39568" offset="100%"></stop></linearGradient><linearGradient x1="47%" y1="44%" x2="50%" y2="61%" id="id-74595"><stop stop-color="#943B2F" offset="0%" stop-opacity="0.175"></stop><stop stop-color="#61301B" offset="100%"></stop></linearGradient><linearGradient x1="26%" y1="-7%" x2="50%" y2="96%" id="id-74596"><stop stop-color="#37373F" offset="0%"></stop><stop stop-color="#19191D" offset="100%"></stop></linearGradient><linearGradient x1="50%" y1="12%" x2="59%" y2="82%" id="id-74597"><stop stop-color="#252525" offset="0%"></stop><stop stop-color="#101010" offset="100%"></stop></linearGradient><linearGradient x1="25%" y1="-16%" x2="50%" y2="98%" id="id-74598"><stop stop-color="#37373F" offset="0%"></stop><stop stop-color="#19191D" offset="100%"></stop></linearGradient><linearGradient x1="75%" y1="39%" x2="50%" y2="93%" id="id-74599"><stop stop-color="#252525" offset="0%"></stop><stop stop-color="#000000" offset="100%"></stop></linearGradient></defs><g transform=" translate(334,549)" id="id-74600"><polygon points="561 754 565 871 565 881 537 893 533 897 535 901 532 909 543 910 597 864" fill="#560304" id="id-74601"></polygon><polygon points="537 282 539 246 535 195 529 158 522 137 484 118 440 111 212 111 188 113 157 123 121 139 111 186 108 221 109 290" fill="url(#id-74554)" id="id-74601"></polygon><polygon points="467 393 474 506 503 589 537 672 556 728 561 754 546 794 552 851 551 861 552 874 556 885 567 882 568 866 570 860 570 843 571 834 576 843 576 859 579 864 573 874 571 884 544 903 541 916 582 901 597 864 607 852 600 821 597 716 589 695 582 655 569 523 544 425" fill="url(#id-74555)" id="id-74601"></polygon><polygon points="546 794 552 851 551 861 552 874 556 885 567 882 568 866 570 860 570 843 571 834 576 843 576 859 579 864 573 874 571 884 544 903 541 916 582 901 597 864 583 871 588 855 573 815 561 823" fill="url(#id-74556)" id="id-74601"></polygon><polygon points="552 851 551 861 552 874 556 887 567 884 568 866 570 860 558 860" fill="#AB562C" id="id-74601"></polygon><polygon points="544 906 541 916 582 901 571 889" fill="#AB562C" id="id-74601"></polygon><polygon points="561 754 548 789 566 819 586 806" fill="#CF7C49" id="id-74601"></polygon><polygon points="486 648 477 599 453 529 440 504 437 490 439 460 449 402 456 340 188 343 198 411 202 493 162 596 153 638 266 693 319 721 386 693" fill="url(#id-74557)" id="id-74601"></polygon><polygon points="486 648 477 599 453 529 440 504 437 490 439 460 449 402 456 340 296 353 376 634" fill="#DD6E3F" id="id-74601"></polygon><g transform=" translate(188,0)" id="id-74610"><polygon points="274 114 253 111 232 100 201 76 188 58 184 1 93 1 88 64 25 111 1 113 103 123 121 135 134 138 149 121 161 117 187 119 225 114" fill="#EE773D" id="id-74601"></polygon><polygon points="201 76 188 58 185 12 175 57 155 111 185 73" fill="#E5995F" id="id-74601"></polygon><polygon points="149 1 93 1 88 64 108 126 121 135 133 138" fill="#DA642E" id="id-74601"></polygon><polygon points="116 102 120 113 118 115 136 135 150 119 164 71 125 108" fill="#C7592D" id="id-74614"></polygon><polygon points="121 127 133 138 145 124" fill="#C43806" id="id-74615"></polygon><polygon points="136 98 164 71 175 57 186 17 134 51" fill="#E2803D" id="id-74616"></polygon><polygon points="97 96 116 80 164 60 178 48 186 17 184 1 93 1 88 64 45 96" fill="#A45026" opacity="0.654" id="id-74601"></polygon><polygon points="186 17 184 1 93 1 88 64 45 96 66 96" fill="url(#id-74558)" opacity="0.467" id="id-74601"></polygon><polygon points="123 58 176 23 186 17 184 1 93 1 91 22 108 55" fill="#381404" opacity="0.434" id="id-74601"></polygon></g><polygon points="41 844 33 856 36 895 64 915 84 911 83 903 71 898 72 892 63 884 52 849" fill="url(#id-74559)" id="id-74601"></polygon><polygon points="315 152 285 173 320 188 357 166" fill="#FFB67E" id="id-74621"></polygon><polygon points="327 150 370 130 342 127" fill="#EE7539" id="id-74622"></polygon><polygon points="301 142 303 148 243 131 240 119 276 119" fill="#EB7338" id="id-74623"></polygon><polygon points="159 149 206 123 269 123 303 144 297 118 188 113 157 123 121 139" fill="url(#id-74560)" id="id-74601"></polygon><polygon points="157 123 121 139 153 167 196 134" fill="#FFC3A1" id="id-74601"></polygon><polygon points="89 584 77 541 62 551 45 658 34 712 25 741 25 762 10 817 0 845 14 870 25 901 58 919 72 919 69 913 61 905 50 899 37 874 37 852 43 845 52 855 50 887 56 901 64 905 66 901 66 882 72 836 72 800 69 781 64 773 66 735 85 684 121 599 162 510" fill="url(#id-74561)" id="id-74601"></polygon><polygon points="89 584 77 541 62 551 45 658 48 715 121 599 162 510" fill="#E77038" id="id-74601"></polygon><polygon points="55 843 45 827 37 848 17 852 8 836 5 851 0 845 14 870 25 901 58 919 72 919 69 913 61 905 50 899 37 874 37 852 43 845 52 855 50 887 56 901 64 905 66 901 66 882 72 836" fill="#D5643C" id="id-74601"></polygon><polygon points="53 882 52 892 56 901 64 905 66 901 66 882 67 876" fill="#C45627" id="id-74601"></polygon><polygon points="25 901 58 919 72 919 62 909 37 895" fill="#C45627" id="id-74601"></polygon><polygon points="160 467 145 488 108 578 45 777 48 797 64 773 66 735 85 684 121 599 162 510" fill="#CB4A0C" id="id-74601"></polygon><polygon points="169 1211 277 1211 282 1183 281 1150 284 1127 286 1114 285 1063 293 972 306 866 311 792 309 768 323 771 337 768 333 817 333 855 339 924 346 1008 348 1113 351 1130 353 1176 361 1211 461 1211 458 1191 456 1170 460 1133 461 1082 505 905 516 839 518 826 512 762 503 706 486 648 482 629 386 690 318 718 266 690 184 629 153 637 132 731 119 781 118 813 123 862 131 916 166 1094 176 1179" fill="url(#id-74562)" id="id-74601"></polygon><polygon points="463 664 416 771 400 819 392 1125 359 1178 398 1204 441 1153 461 1082 505 905 516 839 518 826 515 789 490 714" fill="url(#id-74563)" id="id-74601"></polygon><polygon points="422 1160 395 1199 365 1171 401 1149 384 1120 391 983 411 786 416 771 448 697 454 1013 445 1116 407 1149" fill="url(#id-74564)" id="id-74634"></polygon><polygon points="121 139 111 186 108 221 109 290 96 438 89 464 69 510 89 585 162 510 167 425 162 241" fill="url(#id-74565)" id="id-74601"></polygon><polygon points="101 466 103 488 106 510 160 447 179 359 164 232 187 184 186 179 132 181 161 234 161 321 149 376 151 384 123 461 114 466" fill="url(#id-74566)" id="id-74636"></polygon><polygon points="96 438 89 464 69 510 51 621 101 520 96 476" fill="#EDAC7E" id="id-74601"></polygon><polygon points="96 451 128 365 134 316 121 139 111 186 108 221 109 290 96 438" fill="#DC6429" id="id-74601"></polygon><polygon points="184 241 177 248 162 225 138 289 161 321 170 375 161 420 151 411 162 510 167 425 188 343" fill="url(#id-74567)" id="id-74601"></polygon><polygon points="284 1127 286 1114 285 1063 293 972 306 866 311 792 309 768 323 771 337 768 333 817 333 855 339 924 346 1008 375 889 416 771 463 664 490 714 515 790 512 762 503 706 486 648 477 599 471 583 420 650 316 720 201 654 244 742 264 824 275 994" fill="url(#id-74568)" id="id-74601"></polygon><polygon points="298 930 306 866 311 792 309 768 323 771 337 768 333 817 333 855 336 894 347 826 360 784 378 733 388 687 321 739 254 687 267 736 291 821" fill="url(#id-74569)" id="id-74601"></polygon><polygon points="348 1093 348 1113 351 1130 353 1176 361 1211 461 1211 439 1155 422 1136 403 1148 429 1168 400 1202 370 1170 382 1125" fill="url(#id-74570)" id="id-74601"></polygon><polygon points="10 855 8 836 5 851 0 845 14 870" fill="#AF4A3E" id="id-74601"></polygon><polygon points="520 500 516 520 544 629 474 500 490 399" fill="url(#id-74571)" id="id-74644"></polygon><polygon points="461 1211 458 1191 456 1170 460 1133 461 1082 439 1155 450 1211" fill="url(#id-74572)" id="id-74601"></polygon><polygon points="220 1149 259 1115 240 1063 232 973 266 819 240 713 201 661 158 650 201 784 183 925 170 1083" fill="url(#id-74573)" id="id-74646"></polygon><polygon points="169 1211 277 1211 282 1183 281 1150 284 1127 286 1114 286 1098 226 1211 207 1211 196 1121 173 1078 150 1014 166 1094 176 1179" fill="url(#id-74574)" id="id-74601"></polygon><polygon points="173 1078 183 924 150 1014" fill="#D95D37" id="id-74601"></polygon><polygon points="169 1211 239 1211 230 1196 204 1175 173 1150 176 1179" fill="#C04934" opacity="0.574" id="id-74601"></polygon><polygon points="221 1130 240 1097 224 1063 224 983 240 804 217 698 190 668 212 771 212 910 190 998 181 1094" fill="url(#id-74575)" id="id-74646"></polygon><polygon points="217 795 221 692 200 667 169 658 200 737" fill="#DD956B" id="id-74651"></polygon><polygon points="511 476 492 419 481 447 484 356 521 274 533 417" fill="url(#id-74576)" id="id-74652"></polygon><polygon points="569 523 544 425 542 346 537 282 539 246 535 195 529 158 522 137 494 161 419 158 471 211 516 290 525 411 511 477 518 507 535 462 562 543" fill="url(#id-74577)" id="id-74601"></polygon><polygon points="486 389 533 243 501 167 464 207 451 247 463 265" fill="url(#id-74578)" id="id-74654"></polygon><polygon points="473 490 474 506 503 589 537 672 556 728 561 754 567 712 543 623" fill="#DA531D" id="id-74601"></polygon><polygon points="460 328 466 378 474 506 490 425 486 392 469 274 479 230 461 260 454 251" fill="url(#id-74579)" id="id-74601"></polygon><polygon points="440 504 437 490 439 460 449 402 456 340 458 328 325 282 188 343 198 411 202 493 162 596 157 621 161 633 169 599 173 570 204 506 202 458 217 402 286 365 321 352 353 360 422 402 431 493 437 520" fill="url(#id-74580)" id="id-74601"></polygon><polygon points="451 385 456 340 458 328 364 340 330 308 268 343 188 343 194 379 262 368 312 343 335 340 381 368" fill="url(#id-74581)" id="id-74601"></polygon><polygon points="286 328 306 310 330 274 453 252 464 205 421 156 317 204 219 165 210 154 188 180" fill="url(#id-74582)" id="id-74659"></polygon><path d=" M 422,195 L 405,190 C 377,190 357,198 343,214 C 329,230 322,250 323,276 C 324,301 331,320 345,333 C 365,351 384,356 405,356 C 425,356 444,347 450,342 C 454,339 457,335 460,328 C 463,323 466,317 467,308 C 469,294 466,276 457,254 L 422,195 Z" fill="url(#id-74583)" id="id-74660"></path><path d=" M 422,195 L 417,175 C 386,188 366,196 358,201 C 355,203 351,206 348,208 C 348,209 381,253 448,342 C 454,338 459,332 463,324 C 469,310 469,301 469,293 C 469,287 465,275 459,257 L 422,195 Z" fill="url(#id-74584)" id="id-74660"></path><path d=" M 375,226 C 338,253 343,276 343,284 C 343,291 353,319 371,335 C 379,342 422,349 447,331 C 468,316 472,294 458,265 C 427,221 400,208 375,226 Z" fill="url(#id-74585)" opacity="0.282" id="id-74660"></path><path d=" M 272,205 C 260,199 243,200 221,209 C 187,227 169,258 168,303 C 167,319 184,342 190,346 C 197,351 212,356 239,353 C 257,351 272,344 284,333 C 303,312 312,288 309,260 C 305,217 291,214 272,205 Z" fill="url(#id-74586)" id="id-74663"></path><path d=" M 340,285 C 333,252 328,240 326,248 C 324,254 323,263 323,276 C 324,301 331,320 345,333 C 365,351 382,356 404,356 C 425,356 444,347 450,342 C 456,337 465,325 468,308 C 472,290 465,276 463,268 C 461,263 460,259 458,255 L 442,290 L 399,304 L 366,300 L 340,285 Z" fill="url(#id-74587)" id="id-74660"></path><path d=" M 153,637 L 149,654 L 132,731 L 130,739 C 133,730 135,723 137,718 C 140,709 147,691 149,680 C 151,671 155,655 161,633 L 172,570 L 162,596 L 153,637 Z" fill="#7D362E" id="id-74601"></path><path d=" M 259,203 C 254,199 240,185 217,163 L 210,153 L 186,180 C 192,211 192,231 186,239 C 175,256 168,277 168,303 C 168,324 190,352 239,344 C 252,342 274,217 259,203 Z" fill="#FF9558" id="id-74663"></path><polygon points="175 565 203 550 234 558 241 520 203 455 203 507" fill="#C6450C" id="id-74667"></polygon><polygon points="241 442 241 518 229 556 233 629 266 657 316 707 381 659 395 629 364 504 350 504 301 380" fill="url(#id-74588)" id="id-74668"></polygon><polygon points="432 626 427 589 407 518 414 505 450 568 470 618" fill="url(#id-74589)" id="id-74669"></polygon><polygon points="302 376 254 442 254 546 302 590 364 568 364 504 350 504 376 454 345 400" fill="url(#id-74590)" id="id-74668"></polygon><polygon points="317 480 342 436 319 413 300 447" fill="#E67841" id="id-74671"></polygon><polygon points="304 541 318 507 329 541 314 549" fill="#E66D37" id="id-74672"></polygon><polygon points="306 543 316 578 329 541" fill="#E99B64" id="id-74673"></polygon><path d=" M 178,333 C 179,334 180,336 182,338 C 184,342 186,343 189,346 C 190,347 197,351 206,353 C 215,354 226,355 239,353 C 257,351 272,344 284,333 C 293,322 299,313 302,305 C 304,301 307,293 309,277 C 310,274 310,268 309,260 L 228,277 L 207,295 L 178,333 Z" fill="url(#id-74591)" id="id-74663"></path><polygon points="306 543 308 550 324 556 329 541" fill="#ECA774" id="id-74673"></polygon><polygon points="308 543 318 525 323 542 314 548" fill="#B5491C" id="id-74676"></polygon><polygon points="152 641 162 596 176 561 185 617 214 602 246 628 323 690 404 628 423 605 454 605 470 577 477 599 482 629 388 689 337 768 323 771 309 768 259 688 175 639 142 688" fill="url(#id-74592)" opacity="0.442" id="id-74677"></polygon><polygon points="490 154 522 137 484 118 412 123" fill="url(#id-74593)" id="id-74601"></polygon><polygon points="573 785 588 829 602 858 607 852 600 821 597 716 576 763" fill="#FF966A" id="id-74601"></polygon><polygon points="574 722 589 695 582 655 533 542" fill="url(#id-74594)" id="id-74601"></polygon><polygon points="172 640 241 690 309 768 323 771 338 768 395 706 469 661 404 650 313 706 217 629" fill="url(#id-74595)" opacity="0.571" id="id-74681"></polygon><g transform=" translate(188,270)" id="id-74682"><polygon points="207 13 207 10 217 2 220 2 239 21 258 39 260 42 250 51 246 52 226 33" fill="url(#id-74596)" id="id-74683"></polygon><polygon points="208 40 218 50 222 50 240 33 257 13 257 9 247 0 244 1 230 19 209 36" fill="url(#id-74597)" id="id-74684"></polygon><polygon points="1 13 1 10 10 2 15 2 32 21 50 39 52 42 42 52 38 52 19 33" fill="url(#id-74598)" id="id-74683"></polygon><polygon points="0 43 10 53 14 53 33 35 50 15 50 11 40 3 36 4 19 23 1 39" fill="url(#id-74599)" id="id-74684"></polygon></g></g><defs><linearGradient x1="79%" y1="0%" x2="79%" y2="22%" id="id-75341"><stop stop-color="#FDE1E0" offset="0%"></stop><stop stop-color="#D46A32" offset="100%"></stop></linearGradient><linearGradient x1="40%" y1="32%" x2="50%" y2="75%" id="id-75342"><stop stop-color="#E98D54" offset="0%"></stop><stop stop-color="#F4AD80" offset="100%"></stop></linearGradient><linearGradient x1="50%" y1="0%" x2="50%" y2="82%" id="id-75343"><stop stop-color="#F7CAAB" offset="0%"></stop><stop stop-color="#F3AF87" offset="100%"></stop></linearGradient><linearGradient x1="21%" y1="-8%" x2="64%" y2="50%" id="id-75344"><stop stop-color="#EB925A" offset="0%"></stop><stop stop-color="#F6B48F" offset="100%"></stop></linearGradient><radialGradient cx="48%" cy="50%" r="67%" id="id-75345" fx="48%" fy="50%" gradientTransform=" translate(0.478,0.500) scale(0.717,1) rotate(180) scale(1,1) translate(-0.478,-0.500)"><stop stop-color="#EB925B" offset="0%"></stop><stop stop-color="#D36E3D" offset="100%"></stop></radialGradient><radialGradient cx="50%" cy="65%" r="73%" id="id-75346" fx="50%" fy="65%" gradientTransform=" translate(0.500,0.654) scale(0.748,1) rotate(90) scale(1,0.914) translate(-0.500,-0.654)"><stop stop-color="#EFA371" offset="0%"></stop><stop stop-color="#BB561C" offset="100%"></stop></radialGradient><linearGradient x1="47%" y1="38%" x2="54%" y2="70%" id="id-75347"><stop stop-color="#FA9263" offset="0%"></stop><stop stop-color="#F69C6E" offset="41%"></stop><stop stop-color="#F39969" offset="100%"></stop></linearGradient><linearGradient x1="50%" y1="0%" x2="50%" y2="85%" id="id-75348"><stop stop-color="#F1A778" offset="0%"></stop><stop stop-color="#F8AF88" offset="100%"></stop></linearGradient><linearGradient x1="15%" y1="28%" x2="74%" y2="73%" id="id-75349"><stop stop-color="#F2A97F" offset="0%"></stop><stop stop-color="#FEB18F" offset="100%"></stop></linearGradient><linearGradient x1="109%" y1="57%" x2="0%" y2="43%" id="id-75350"><stop stop-color="#EA9264" offset="0%"></stop><stop stop-color="#DE7C45" offset="100%"></stop></linearGradient><linearGradient x1="0%" y1="50%" x2="100%" y2="50%" id="id-75351"><stop stop-color="#CC7145" offset="0%"></stop><stop stop-color="#914121" offset="51%"></stop><stop stop-color="#CE7749" offset="100%"></stop></linearGradient><linearGradient x1="50%" y1="31%" x2="35%" y2="71%" id="id-75352"><stop stop-color="#F1AA7D" offset="0%"></stop><stop stop-color="#FFBD94" offset="40%"></stop><stop stop-color="#FAB189" offset="100%"></stop></linearGradient><linearGradient x1="50%" y1="0%" x2="50%" y2="50%" id="id-75353"><stop stop-color="#E29369" offset="0%"></stop><stop stop-color="#F9B897" offset="100%"></stop></linearGradient><linearGradient x1="50%" y1="25%" x2="50%" y2="100%" id="id-75354"><stop stop-color="#E4854D" offset="0%"></stop><stop stop-color="#EF673A" offset="20%"></stop><stop stop-color="#F99466" offset="56%"></stop><stop stop-color="#D97840" offset="100%"></stop></linearGradient><linearGradient x1="40%" y1="22%" x2="50%" y2="69%" id="id-75355"><stop stop-color="#F4AC80" offset="0%"></stop><stop stop-color="#E28D60" offset="100%"></stop></linearGradient><linearGradient x1="50%" y1="85%" x2="50%" y2="50%" id="id-75356"><stop stop-color="#962525" offset="0%"></stop><stop stop-color="#450000" offset="100%"></stop></linearGradient><linearGradient x1="50%" y1="0%" x2="50%" y2="100%" id="id-75357"><stop stop-color="#EB5363" offset="0%"></stop><stop stop-color="#F85C69" offset="54%"></stop><stop stop-color="#D4494B" offset="100%"></stop></linearGradient><linearGradient x1="50%" y1="0%" x2="50%" y2="77%" id="id-75358"><stop stop-color="#B83C3C" offset="0%"></stop><stop stop-color="#BF3F3F" offset="100%"></stop></linearGradient><linearGradient x1="99%" y1="50%" x2="93%" y2="54%" id="id-75359"><stop stop-color="#F19E6F" offset="0%"></stop><stop stop-color="#A05029" offset="100%"></stop></linearGradient><linearGradient x1="50%" y1="0%" x2="50%" y2="91%" id="id-75360"><stop stop-color="#DD996C" offset="0%"></stop><stop stop-color="#D5804C" offset="77%"></stop><stop stop-color="#D66735" offset="100%"></stop></linearGradient><linearGradient x1="9%" y1="25%" x2="26%" y2="82%" id="id-75361"><stop stop-color="#C45929" offset="0%"></stop><stop stop-color="#D3723E" offset="60%"></stop><stop stop-color="#E57F4F" offset="100%"></stop></linearGradient><linearGradient x1="55%" y1="46%" x2="68%" y2="95%" id="id-75362"><stop stop-color="#B75323" offset="0%"></stop><stop stop-color="#F7BA9B" offset="100%"></stop></linearGradient><linearGradient x1="50%" y1="0%" x2="50%" y2="100%" id="id-75363"><stop stop-color="#EA7440" offset="0%"></stop><stop stop-color="#B94C1C" offset="100%"></stop></linearGradient><linearGradient x1="50%" y1="11%" x2="50%" y2="100%" id="id-75364"><stop stop-color="#EEAD81" offset="0%"></stop><stop stop-color="#F99566" offset="100%"></stop></linearGradient><linearGradient x1="50%" y1="12%" x2="47%" y2="66%" id="id-75365"><stop stop-color="#F19E6F" offset="0%"></stop><stop stop-color="#DE8B58" offset="100%"></stop></linearGradient><linearGradient x1="91%" y1="56%" x2="10%" y2="39%" id="id-75366"><stop stop-color="#CC6835" offset="0%"></stop><stop stop-color="#A6482C" offset="74%"></stop><stop stop-color="#C65B23" offset="100%"></stop></linearGradient><linearGradient x1="50%" y1="50%" x2="50%" y2="74%" id="id-75367"><stop stop-color="#CF6042" offset="0%"></stop><stop stop-color="#EA846D" offset="100%"></stop></linearGradient><linearGradient x1="77%" y1="54%" x2="50%" y2="58%" id="id-75368"><stop stop-color="#D66C3F" offset="0%"></stop><stop stop-color="#F8936B" offset="100%"></stop></linearGradient><radialGradient cx="50%" cy="70%" r="100%" id="id-75369" fx="50%" fy="70%" gradientTransform=" translate(0.500,0.701) scale(0.442,1) rotate(73) translate(-0.500,-0.701)"><stop stop-color="#98321F" offset="0%"></stop><stop stop-color="#C96130" offset="100%"></stop></radialGradient><linearGradient x1="47%" y1="40%" x2="47%" y2="91%" id="id-75370"><stop stop-color="#C35230" offset="0%"></stop><stop stop-color="#DC6B59" offset="100%"></stop></linearGradient><linearGradient x1="50%" y1="20%" x2="50%" y2="72%" id="id-75371"><stop stop-color="#3B2311" offset="0%"></stop><stop stop-color="#714225" offset="100%"></stop></linearGradient><linearGradient x1="67%" y1="29%" x2="67%" y2="76%" id="id-75372"><stop stop-color="#372311" offset="0%"></stop><stop stop-color="#8C5031" offset="100%"></stop></linearGradient></defs><g transform=" translate(561,332)" id="id-75373"><g transform=" translate(172,115)" id="id-75374"><polygon points="14 1 18 0 25 8 27 21 24 41 14 66 0 68" fill="url(#id-75341)" id="id-75375"></polygon><polygon points="12 48 19 50 23 42 26 24 20 12 12 22" fill="#EC9266" id="id-75376"></polygon><polygon points="11 21 17 10 20 5 24 7 26 24 20 36 18 31 20 16 9 29" fill="#C1430B" id="id-75377"></polygon><polygon points="10 28 11 38 8 45 13 49 19 38 13 24" fill="#8C350A" id="id-75378"></polygon><polygon points="12 18 17 17 18 9" fill="#8C350A" id="id-75379"></polygon><polygon points="18 50 10 51 8 50 5 61 12 63 14 61" fill="#E88C5F" id="id-75380"></polygon></g><g transform=" translate(0,113)" id="id-75381"><polygon points="13 0 5 0 0 13 4 36 13 63 25 67" fill="#D07C59" id="id-75382"></polygon><polygon points="5 9 0 13 4 36 13 63 25 67 13 24" fill="#DE8959" id="id-75382"></polygon><polygon points="18 46 14 47 7 32 11 26 4 9 6 5 16 20 17 29" fill="#AE3A08" id="id-75384"></polygon><polygon points="13 62 20 62 18 49 11 53" fill="#FEA878" id="id-75385"></polygon><polygon points="25 68 13 63 20 62 17 46 14 47 13 44 14 29 17 26 14 22 10 19 10 11 17 20" fill="#A00C07" id="id-75386"></polygon><polygon points="13 9 4 3 5 0 12 0" fill="#D6A2A5" id="id-75387"></polygon></g><path d=" M 29,199 C 21,167 16,144 15,130 C 4,44 33,0 103,0 C 180,0 191,63 186,119 C 183,157 173,191 170,202 C 169,206 167,213 164,217 C 158,226 140,237 112,250 C 107,252 89,252 82,250 C 59,240 44,229 36,218 C 34,215 32,208 29,199 Z" fill="#EEA16C" id="id-75388"></path><polygon points="33 108 34 36 99 6 175 45 171 113 95 117" fill="url(#id-75342)" id="id-75389"></polygon><polygon points="53 107 64 92 47 46 97 53 133 46 111 74 123 96 142 110 105 123" fill="url(#id-75343)" id="id-75390"></polygon><polygon points="63 87 47 46 78 51" fill="url(#id-75344)" id="id-75390"></polygon><path d=" M 32,97 L 55,101 L 37,41 L 61,32 L 114,41 L 136,39 L 125,56 L 155,58 L 155,100 L 169,107 L 184,119 L 174,43 C 139,6 101,-5 62,11 C 23,27 13,55 32,97 Z" fill="url(#id-75345)" id="id-75392"></path><path d=" M 15,130 C 4,44 33,0 103,0 C 180,0 191,63 186,119 L 167,94 L 166,70 L 151,27 C 145,18 127,13 99,13 C 71,13 52,19 43,32 L 40,53 L 34,70 L 36,104 C 22,124 15,132 15,130 Z" fill="url(#id-75346)" id="id-75388"></path><polygon points="33 165 101 152 166 185 148 225 117 246 83 249 50 217" fill="url(#id-75347)" id="id-75394"></polygon><polygon points="72 209 67 186 78 169 121 174 138 196 123 210" fill="url(#id-75348)" id="id-75395"></polygon><polygon points="68 189 49 169 31 158 19 128 91 145" fill="url(#id-75349)" id="id-75396"></polygon><polygon points="85 165 52 172 38 127 88 145" fill="#F7BA9B" id="id-75396"></polygon><polygon points="73 209 78 237 115 234 129 217 126 208" fill="url(#id-75350)" id="id-75398"></polygon><polygon points="84 233 92 227 88 221 113 221 109 227 116 233" fill="url(#id-75351)" id="id-75399"></polygon><polygon points="117 178 125 191 138 196 171 146 155 141 108 135" fill="url(#id-75352)" id="id-75400"></polygon><path d=" M 75,237 C 83,232 91,230 99,230 C 106,230 116,232 127,237 L 113,246 L 89,249 L 75,237 Z" fill="url(#id-75353)" id="id-75401"></path><path d=" M 29,199 C 21,167 16,144 15,130 C 14,127 14,124 14,121 L 20,115 L 31,135 L 25,141 L 32,158 L 43,166 C 48,187 53,203 58,214 C 68,227 79,238 91,246 L 111,246 C 125,238 134,230 138,223 C 143,209 147,190 150,168 L 170,145 L 166,103 C 179,108 186,113 186,119 C 183,157 173,191 170,202 C 169,206 167,213 164,217 C 158,226 140,237 112,250 C 107,252 89,252 82,250 C 59,240 44,229 36,218 C 34,215 32,208 29,199 Z" fill="url(#id-75354)" id="id-75388"></path><path d=" M 182,102 C 185,110 186,115 186,119 C 183,157 173,191 170,202 C 169,206 167,213 164,217 C 161,221 157,225 151,229 C 158,221 164,210 169,196 C 170,192 173,181 177,162 C 178,159 179,152 181,144 L 180,111 L 174,86 L 182,102 Z" fill="#E7B9B9" id="id-75388"></path><polygon points="94 180 93 195 101 204 110 197 104 176" fill="url(#id-75355)" id="id-75404"></polygon><g transform=" translate(71,178)" id="id-75405"><polygon points="21 2 21 9 23 11 25 3 23 0" fill="#FEC5B4" id="id-75406"></polygon><path d=" M 34,2 L 37,13 L 30,16 L 22,13 C 17,15 13,17 11,19 C 8,21 5,25 1,30 L 33,28 L 40,18 L 35,1 L 34,2 Z" fill="#FCBDAB" id="id-75407"></path><path d=" M 1,31 L 3,33 C 6,35 8,36 8,37 C 13,41 16,44 18,45 C 23,47 32,48 39,46 C 42,45 48,40 53,35 C 54,34 56,32 57,30 L 55,27 L 30,18 L 3,27 L 1,31 Z" fill="url(#id-75356)" id="id-75408"></path><path d=" M 14,30 C 6,32 2,33 3,33 C 11,39 15,42 18,43 C 23,45 33,46 39,44 C 43,43 48,40 55,33 C 55,33 51,32 43,30 C 36,32 32,32 28,32 C 24,32 20,32 14,30 Z" fill="url(#id-75357)" id="id-75408"></path><path d=" M 13,31 C 11,32 11,33 13,34 C 17,35 30,37 31,39 C 32,40 43,35 49,33 C 51,33 49,32 45,31 C 38,33 33,34 29,34 C 26,34 20,33 13,31 Z" fill="#FE7A9E" id="id-75408"></path><path d=" M 3,29 C 11,29 15,29 17,29 C 19,29 20,28 21,28 C 25,29 28,29 29,29 C 32,29 35,28 37,28 C 40,28 46,29 48,29 C 57,29 55,27 55,27 C 49,22 43,18 37,15 C 36,15 33,16 30,18 C 27,17 25,16 22,15 C 15,17 9,21 3,27 L 3,29 Z" fill="url(#id-75358)" id="id-75408"></path><path d=" M 29,25 C 33,25 35,23 38,23 C 39,23 39,27 45,27 C 45,27 47,26 51,24 C 46,20 42,17 37,15 C 35,15 33,16 30,18 C 27,17 25,16 23,15 L 24,22 L 28,19 C 29,23 29,25 29,25 Z" fill="#DF5858" id="id-75408"></path><path d=" M 18,28 C 10,29 7,29 8,29 C 13,29 16,29 17,29 C 19,29 20,28 21,28 C 25,29 28,29 29,29 C 32,29 35,28 37,28 C 40,28 46,29 48,29 C 57,29 55,27 55,27 C 55,27 53,28 50,28 C 47,28 43,28 41,27 C 39,27 38,26 38,24 C 34,26 31,28 29,28 C 26,28 23,27 20,24 L 18,28 Z" fill="#8D1920" id="id-75408"></path></g><g transform=" translate(55,106)" id="id-75414"><polygon points="24 72 25 76 40 76 46 80 53 76 67 75 70 71 69 67 66 61 64 58" fill="url(#id-75359)" id="id-75415"></polygon><path d=" M 18,4 L 35,5 L 46,0 L 57,5 L 83,5 L 55,34 L 64,65 C 40,72 27,74 24,71 C 20,67 28,52 30,35 C 32,24 28,14 18,4 Z" fill="url(#id-75360)" id="id-75416"></path><path d=" M 114,30 L 124,14 L 114,4 L 71,8 L 65,12 C 59,16 54,22 52,30 C 52,34 52,46 52,65 L 62,72 L 67,68 C 66,59 64,61 59,46 C 58,43 57,39 58,34 L 69,40 L 114,30 Z" fill="url(#id-75361)" id="id-75417"></path><path d=" M 25,46 C 31,42 34,38 34,35 C 34,31 33,24 29,10 C 29,9 19,6 0,0 C 9,10 15,17 17,22 C 20,28 23,36 25,46 Z" fill="url(#id-75362)" id="id-75418"></path><path d=" M 34,63 L 26,68 C 26,66 27,64 28,63 C 28,61 30,59 32,57 L 34,63 Z" fill="#F19F74" id="id-75419"></path><path d=" M 58,63 C 58,59 59,57 60,58 C 61,59 63,62 65,66 L 58,63 Z" fill="#F09764" id="id-75420"></path><polygon points="24 72 29 73 40 73 42 76 48 76 51 74 61 74 66 72 67 69 65 66 58 63 31 63 26 67" fill="url(#id-75363)" id="id-75421"></polygon><path d=" M 35,63 L 32,66 C 36,67 39,68 40,68 C 41,69 42,72 43,74 C 44,74 47,74 47,74 C 48,72 50,69 51,68 C 53,67 55,66 59,66 L 57,63 L 52,63 L 35,63 Z" fill="#AF4415" id="id-75422"></path><path d=" M 51,74 L 61,74 C 59,71 58,70 55,70 C 53,70 52,71 51,74 Z" fill="#470F00" id="id-75423"></path><path d=" M 29,73 L 40,73 C 40,72 39,70 36,69 C 34,69 32,70 29,73 Z" fill="#470F00" id="id-75424"></path><path d=" M 52,27 C 50,25 47,25 44,25 C 40,25 38,26 36,30 C 38,34 38,39 38,44 C 38,50 34,58 36,62 C 37,64 40,65 44,65 C 49,65 52,64 53,62 C 55,58 52,50 52,40 C 51,34 51,30 52,27 Z" fill="url(#id-75364)" id="id-75425"></path><path d=" M 52,27 C 50,25 47,25 44,25 C 40,25 38,26 36,30 C 40,35 44,37 46,37 C 48,37 50,34 52,27 Z" fill="#F5B991" id="id-75425"></path><path d=" M 51,62 C 50,61 46,60 38,59 C 36,62 38,64 42,64 C 48,65 52,63 51,62 Z" fill="#FDAD88" id="id-75427"></path><path d=" M 28,44 L 21,70 L 25,72 C 24,69 25,66 26,62 C 27,59 30,51 34,40 L 34,33 L 28,44 Z" fill="url(#id-75365)" id="id-75428"></path></g><g transform=" translate(23,110)" id="id-75429"><path d=" M 7,23 L 0,11 L 3,1 L 41,2 C 45,7 49,12 50,15 C 52,18 53,24 54,31 L 7,23 Z" fill="url(#id-75366)" id="id-75430"></path><polygon points="32 4 28 20 46 23 42 5" fill="url(#id-75367)" id="id-75431"></polygon><path d=" M 8,25 C 15,34 21,39 27,40 C 34,41 43,39 54,35 L 32,21 L 8,25 Z" fill="#FC8C66" id="id-75432"></path><path d=" M 19,27 C 21,30 24,32 30,32 C 35,33 43,33 52,31 C 52,25 47,21 35,19 C 24,18 18,20 19,27 Z" fill="#BEC3D7" id="id-75433"></path><path d=" M 19,29 L 23,30 L 23,27 L 30,24 L 52,29 C 48,22 40,19 29,20 C 17,20 14,23 19,29 Z" fill="#000000" opacity="0.305" id="id-75434"></path><polygon points="49 32 54 35 55 32 50 26" fill="#751F00" id="id-75435"></polygon><path d=" M 53,34 L 36,34 L 22,32 L 15,26 C 17,27 19,29 21,29 C 24,31 27,32 30,32 C 35,33 41,32 49,31 L 53,34 Z" fill="#64422D" id="id-75436"></path><path d=" M 21,29 L 19,24 C 26,21 33,20 39,22 C 45,24 50,27 55,32 C 52,25 46,20 37,18 C 31,17 24,19 15,21 C 14,21 11,22 7,24 L 10,27 L 14,26 L 20,30 L 21,29 Z" fill="#181108" id="id-75437"></path><path d=" M 26,22 C 26,29 29,32 35,32 C 41,32 44,29 45,24 C 41,21 37,19 35,19 C 33,19 30,20 26,22 Z" fill="#161209" id="id-75438"></path><polygon points="31 26 33 26 33 23 29 23 29 25 31 25" fill="#8C8F9E" id="id-75439"></polygon><path d=" M 35,28 C 36,28 38,27 38,27 C 39,27 39,26 40,25 L 43,28 C 42,29 41,30 40,31 C 39,31 38,31 36,31 L 35,28 Z" fill="#6E1D00" id="id-75440"></path></g><g transform=" translate(116,111)" id="id-75441"><path d=" M 9,34 C 13,37 20,39 31,39 C 37,39 46,34 57,25 L 55,22 L 19,20 L 9,34 Z" fill="url(#id-75368)" id="id-75442"></path><polygon points="11 28 0 20 10 5 53 1 61 11 52 23" fill="url(#id-75369)" id="id-75443"></polygon><polygon points="20 21 24 1 32 1 38 21" fill="url(#id-75370)" id="id-75444"></polygon><polygon points="13 32 31 34 41 31 45 28 14 25 10 34" fill="#8E5C40" id="id-75445"></polygon><path d=" M 14,31 C 21,32 27,32 30,32 C 34,32 37,30 40,28 C 48,26 48,23 40,20 C 32,18 23,19 13,24 L 14,31 Z" fill="#CCCCD7" id="id-75446"></path><path d=" M 38,29 L 40,28 C 48,26 48,23 40,20 C 32,18 23,19 13,24 L 13,30 C 18,26 23,24 27,23 C 30,23 34,23 39,24 L 38,29 Z" fill="#000000" opacity="0.305" id="id-75446"></path><polygon points="8 32 9 34 14 31 14 25" fill="#782200" id="id-75448"></polygon><path d=" M 18,24 C 19,29 22,32 28,32 C 34,31 37,28 37,21 C 35,20 31,19 26,19 C 21,20 18,21 18,24 Z" fill="#161209" id="id-75449"></path><path d=" M 35,24 L 32,24 C 32,25 31,26 31,27 C 30,28 29,28 27,29 L 29,31 C 31,31 33,30 34,29 C 35,27 35,26 35,24 Z" fill="#761C00" id="id-75450"></path><polygon points="22 27 24 27 24 26 27 26 27 24 22 24" fill="#987A9E" id="id-75451"></polygon><path d=" M 8,33 C 14,25 20,21 25,20 C 31,20 37,21 43,23 L 40,28 L 45,28 L 48,25 L 52,26 L 55,22 C 51,21 47,20 45,20 C 37,17 30,16 24,18 C 15,19 10,24 8,33 Z" fill="#171208" id="id-75452"></path></g><g transform=" translate(23,101)" id="id-75453"><path d=" M 1,13 L 11,11 L 9,13 L 28,12 L 28,13 L 51,16 L 49,17 L 56,17 L 56,20 L 65,11 L 62,11 L 60,13 L 60,9 L 56,13 L 56,7 L 54,12 L 46,4 C 28,1 18,0 14,1 C 11,2 7,6 1,13 Z" fill="url(#id-75371)" id="id-75454"></path><polygon points="95 12 101 18 109 18 110 16 121 16 124 14 137 13 156 8 143 1 130 2 111 6 104 13 103 9 101 13 97 11" fill="url(#id-75372)" id="id-75455"></polygon></g></g><defs><linearGradient x1="33%" y1="59%" x2="66%" y2="64%" id="id-40035"><stop stop-color="#050E15" offset="0%" stop-opacity="0.810"></stop><stop stop-color="#040D13" offset="11%" stop-opacity="0.379"></stop><stop stop-color="#040D13" offset="19%" stop-opacity="0.151"></stop><stop stop-color="#040D13" offset="28%" stop-opacity="0.329"></stop><stop stop-color="#040B10" offset="41%" stop-opacity="0.741"></stop><stop stop-color="#03090E" offset="59%" stop-opacity="0.740"></stop><stop stop-color="#03080B" offset="70%" stop-opacity="0.221"></stop><stop stop-color="#03070B" offset="79%" stop-opacity="0.133"></stop><stop stop-color="#02070B" offset="89%" stop-opacity="0.332"></stop><stop stop-color="#020609" offset="100%" stop-opacity="0.712"></stop></linearGradient></defs><g transform=" translate(450,1060)" id="id-40036"><path d=" M 315,72 C 331,189 359,253 401,265 C 402,281 403,298 402,314 C 394,426 347,550 347,571 C 347,626 340,674 347,700 L 347,700 L 245,700 C 231,673 238,628 231,601 C 229,568 229,533 228,499 C 228,446 209,336 219,260 C 246,202 278,140 315,72 Z M 86,54 L 194,258 C 194,258 195,269 196,281 C 188,416 173,470 169,554 C 169,578 171,579 171,604 C 166,624 165,646 167,673 L 167,673 L 162,700 L 53,700 C 56,692 58,681 60,667 C 32,461 4,415 0,271 C 40,271 69,199 86,54 L 86,54 Z M 104,605 L 98,619 L 106,655 L 128,654 L 129,633 L 104,605 Z M 122,575 L 115,585 L 110,601 L 127,616 L 122,575 Z M 117,495 L 103,497 L 103,514 L 109,512 L 104,520 L 106,536 L 116,536 L 117,512 L 117,495 Z M 115,420 L 97,423 L 100,480 L 117,471 L 117,446 L 101,445 L 116,432 L 115,420 Z M 305,370 L 305,380 L 332,392 L 307,396 L 311,435 L 347,444 L 347,428 L 329,425 L 347,420 L 347,404 L 347,377 L 305,370 Z M 109,383 L 99,383 L 98,407 L 110,407 L 109,383 Z M 110,346 L 102,350 L 98,375 L 110,369 L 110,346 Z" fill="url(#id-40035)" id="id-40037"></path><path d=" M 77,1 C 77,1 95,31 130,90 L 130,90 L 280,90 C 280,90 297,62 332,6 C 332,6 332,6 332,6 L 332,6 C 332,7 336,13 343,24 C 343,24 344,26 345,30 L 345,30 L 294,118 C 294,118 318,111 365,95 C 365,95 366,99 367,107 C 367,107 367,107 367,107 L 367,107 C 365,108 361,109 355,111 L 354,112 C 341,116 318,124 286,134 C 286,134 268,169 232,240 C 232,240 279,207 373,141 C 373,141 374,144 375,149 C 375,149 323,187 220,264 C 215,265 213,266 204,267 C 199,266 196,265 193,264 C 189,260 187,256 185,251 L 185,251 L 27,161 C 27,161 28,159 29,153 C 29,153 79,181 178,238 C 178,238 159,202 122,129 C 122,129 94,121 40,103 L 40,103 L 40,103 C 40,103 41,98 43,90 C 43,90 67,98 114,114 L 114,114 L 66,28 C 66,28 70,19 77,1 Z M 276,100 C 276,100 276,100 276,100 L 276,100 C 273,100 226,100 136,100 C 136,100 140,109 149,126 C 183,141 222,139 260,129 C 260,129 265,119 276,100 Z" fill="#131415" id="id-40037"></path><g transform=" translate(42,179)" fill="#BFBFBF" fill-opacity="0.193" id="id-40039"><path d=" M 239,132 C 231,134 226,136 226,136 C 224,107 223,92 223,92 L 230,57 C 236,107 239,132 239,132 Z" id="id-40040"></path><path d=" M 232,190 C 242,191 254,193 254,193 C 254,202 254,211 254,218 C 205,401 221,458 221,458 C 210,418 205,379 205,342 C 209,321 230,273 232,190 Z" id="id-40041"></path><path d=" M 44,266 C 29,264 16,262 1,259 C 23,372 39,474 39,474 L 48,413 C 39,391 37,341 44,266 Z" id="id-40042"></path><path d=" M 30,120 C 20,120 3,107 3,107 C 5,84 6,72 6,72 L 16,55 C 18,85 23,107 30,120 Z" id="id-40043"></path><path d=" M 74,118 C 59,100 57,65 57,65 L 61,1 C 100,41 104,80 74,118 Z" id="id-40044"></path></g></g><defs></defs><g transform=" translate(495,774)" id="id-41024"><path d=" M 39,242 C 39,237 38,231 37,226 C 28,158 24,123 24,123 C -4,82 -8,81 15,28 C 28,17 48,11 72,8 C 135,14 166,17 166,17 C 195,9 223,4 250,0 C 267,4 286,14 305,24 L 319,83 L 302,126 C 301,135 294,144 291,157 C 287,184 287,218 285,243 C 284,256 40,251 39,242 Z" fill="#AB8CD4" id="id-41025"></path><path d=" M 54,246 C 96,242 117,240 117,240 C 72,227 49,220 49,220 C 44,207 42,201 42,201 C 58,171 66,156 66,156 C 128,154 159,153 159,153 C 100,143 71,138 71,138 C 77,129 79,125 79,125 C 105,117 118,113 118,113 C 64,111 36,110 36,110 C 23,98 16,92 16,92 L 51,12 L 72,8 C 135,14 166,17 166,17 C 166,67 165,93 165,93 C 226,86 257,83 257,83 C 251,106 248,117 248,117 C 193,132 166,140 166,140 C 212,147 234,151 234,151 C 232,162 231,168 231,168 C 146,184 104,192 104,192 C 186,191 227,190 227,190 C 220,219 217,233 217,233 C 194,237 176,243 163,251 C 139,250 122,250 113,250 C 82,248 63,247 54,246 Z" fill="#B89DE3" id="id-41026"></path><path d=" M 88,232 C 85,204 83,191 83,191 L 187,153 L 231,168 L 104,192 L 227,190 L 217,233 C 189,239 169,245 159,251 L 92,249 C 92,248 91,246 90,245 L 114,240 C 97,235 88,232 88,232 Z" fill="#C1AEFA" id="id-41027"></path><path d=" M 160,252 C 156,216 154,198 154,198 L 160,192 C 160,232 160,252 160,252 Z" fill="#F4DBFA" id="id-41028"></path><path d=" M 222,212 L 220,223 C 204,225 195,226 195,226 C 209,220 216,217 216,217 L 214,211 C 219,211 222,212 222,212 Z" fill="#FFFFFF" id="id-41029"></path><path d=" M 221,206 C 207,206 199,206 199,206 C 211,201 217,198 217,198 C 208,193 203,190 203,190 L 225,192 C 222,202 221,206 221,206 Z" fill="#FFFFFF" id="id-41030"></path><path d=" M 232,237 C 262,234 277,232 277,232 C 248,217 234,209 234,209 C 245,159 250,134 250,134 C 294,92 316,71 316,71 L 318,83 L 302,126 C 301,135 293,146 291,159 C 289,175 287,203 283,244 C 249,239 232,237 232,237 Z" fill="#CA8EE1" id="id-41031"></path><path d=" M 262,226 C 269,220 272,217 272,217 L 266,205 C 263,219 262,226 262,226 Z" fill="#FFFFFF" id="id-41032"></path><path d=" M 225,232 C 223,227 223,225 223,225 C 229,185 233,165 233,165 L 246,139 C 232,201 225,232 225,232 Z" fill="#FFFFFF" id="id-41033"></path><path d=" M 194,173 C 216,169 227,166 227,166 C 213,162 206,159 206,159 L 206,166 C 198,171 194,173 194,173 Z" fill="#FFFFFF" id="id-41034"></path><path d=" M 152,131 C 190,120 209,115 209,115 L 107,122 C 137,128 152,131 152,131 Z" fill="#AB89D3" id="id-41035"></path><path d=" M 164,139 C 172,135 175,133 175,133 C 172,128 170,126 170,126 L 165,128 C 164,135 164,139 164,139 Z" fill="#F4DBFA" id="id-41036"></path><path d=" M 164,115 C 170,115 172,115 172,115 L 164,101 C 164,111 164,115 164,115 Z" fill="#F4DBFA" id="id-41037"></path><path d=" M 250,115 C 249,101 248,95 248,95 C 257,87 261,83 261,83 L 265,86 C 255,105 250,115 250,115 Z" fill="#FFFFFF" id="id-41038"></path><path d=" M 105,102 C 64,103 43,104 43,104 C 24,92 14,87 14,87 C 31,51 39,33 39,33 L 57,11 C 67,9 73,8 73,8 C 116,12 137,14 137,14 C 99,38 81,51 81,51 C 88,34 91,26 91,26 C 69,46 58,56 58,56 L 77,84 C 96,96 105,102 105,102 Z" fill="#BFBBFF" id="id-41039"></path><path d=" M 43,104 L 52,86 L 66,101 C 50,103 43,104 43,104 Z" fill="#EFE5FF" id="id-41040"></path><path d=" M 4,91 C 7,69 13,46 26,21 L 14,28 C 0,60 -3,81 4,91 Z" fill="#CBF4FF" id="id-41041"></path><path d=" M 161,93 C 157,69 154,56 154,56 L 162,27 C 161,71 161,93 161,93 Z" fill="#F4DBFA" id="id-41042"></path><path d=" M 166,90 C 234,73 267,65 267,65 C 292,70 304,73 304,73 L 292,19 L 250,0 C 223,4 195,10 166,17 C 166,66 166,90 166,90 Z" fill="#BCA9F3" id="id-41043"></path><path d=" M 166,17 C 187,18 198,19 198,19 L 212,7 C 181,14 166,17 166,17 Z" fill="#CBF4FF" id="id-41044"></path><path d=" M 200,23 C 203,44 205,55 205,55 C 242,54 260,53 260,53 C 266,58 269,60 269,60 C 261,34 257,21 257,21 L 265,8 L 250,0 C 217,15 200,23 200,23 Z" fill="#AB89D3" id="id-41045"></path><path d=" M 246,8 C 251,6 254,6 254,6 C 260,9 263,11 263,11 L 256,18 C 250,11 246,8 246,8 Z" fill="#FFFFFF" id="id-41046"></path><path d=" M 256,25 C 256,37 257,43 257,43 L 269,58 C 260,36 256,25 256,25 Z" fill="#FFFFFF" id="id-41047"></path><path d=" M 252,71 C 265,66 271,64 271,64 L 260,56 C 255,66 252,71 252,71 Z" fill="#FFFFFF" id="id-41048"></path><path d=" M 83,159 L 77,162 C 77,171 78,180 83,190 C 81,192 80,192 80,192 C 83,216 84,227 84,227 L 86,190 C 84,182 81,174 83,159 Z" fill="#F4DBFA" id="id-41049"></path><path d=" M 26,144 C 32,159 35,167 35,167 C 41,217 44,242 44,242 C 44,243 43,243 43,244 L 39,243 C 39,237 38,232 37,226 C 30,171 26,144 26,144 Z" fill="#CBF4FF" id="id-41050"></path></g><defs><linearGradient x1="70%" y1="50%" x2="8%" y2="50%" id="id-49087"><stop stop-color="#B89DE3" offset="0%"></stop><stop stop-color="#AB89D3" offset="63%"></stop><stop stop-color="#AB8CD4" offset="100%"></stop></linearGradient><linearGradient x1="50%" y1="0%" x2="50%" y2="100%" id="id-49088"><stop stop-color="#C09CEF" offset="0%"></stop><stop stop-color="#906EBC" offset="100%"></stop></linearGradient></defs><g transform=" translate(442,1029)" id="id-49089"><path d=" M 9,320 C 11,299 12,288 12,288 C 38,179 51,124 51,124 C 57,110 60,94 63,74 C 70,67 74,64 74,64 C 76,54 80,46 84,40 C 87,13 89,0 89,0 C 252,0 333,1 333,1 C 338,25 341,37 341,37 C 348,47 352,52 352,52 C 356,70 361,87 368,103 C 378,150 387,198 401,243 C 407,284 410,305 410,305 L 410,325 L 226,340 C 226,304 227,286 227,286 C 212,286 204,285 204,285 L 203,341 C 74,327 9,320 9,320 Z" fill="url(#id-49087)" id="id-49090"></path><path d=" M 368,103 C 375,134 383,170 392,211 L 339,252 L 324,112 L 368,103 Z" fill="#CA8EE1" id="id-49090"></path><path d=" M 251,336 C 275,311 287,298 287,298 L 285,331 C 263,334 251,336 251,336 Z" fill="#FFFFFF" id="id-49092"></path><path d=" M 287,298 C 297,285 301,278 301,278 C 306,275 308,274 308,274 L 305,329 L 285,331 C 287,309 287,298 287,298 Z" fill="#B9A5E6" id="id-49093"></path><path d=" M 310,330 C 311,291 312,272 312,272 C 342,249 357,238 357,238 L 321,329 C 314,330 310,330 310,330 Z" fill="#BFBFFF" id="id-49094"></path><path d=" M 353,247 C 371,274 379,288 379,288 L 379,219 L 357,237 C 354,243 353,247 353,247 Z" fill="#BBACFF" id="id-49095"></path><path d=" M 78,202 L 105,201 L 107,203 C 100,208 88,208 83,215 L 48,236 L 84,280 L 88,280 L 89,282 L 84,292 L 73,338 L 18,330 L 21,310 L 14,302 L 20,295 L 21,273 L 31,148 L 78,202 Z" transform=" translate(61,243) rotate(9) translate(-61,-243)" fill="#C1AEFA" id="id-49096"></path><polygon points="35 327 22 325 25 305 19 297 24 290 26 267 37 121 40 99 41 150 33 254" transform=" translate(30,213) rotate(9) translate(-30,-213)" fill="#CBF4FF" id="id-49096"></polygon><path d=" M 103,134 C 103,129 103,126 103,126 C 111,115 115,109 115,109 C 111,101 109,96 109,96 L 124,81 L 124,57 C 162,52 181,50 181,50 C 190,53 195,54 195,54 L 189,134 C 132,134 103,134 103,134 Z" fill="#B5B0F8" id="id-49098"></path><path d=" M 191,53 C 184,51 180,50 180,50 C 160,50 149,49 149,49 C 131,54 122,57 122,57 L 96,49 C 153,16 182,0 182,0 C 184,0 185,0 185,0 L 184,45 C 189,50 191,53 191,53 Z" fill="#9C79CA" id="id-49099"></path><path d=" M 89,0 C 88,30 87,45 87,45 C 94,47 97,49 97,49 C 153,49 181,50 181,50 L 182,1 C 120,0 89,0 89,0 Z" fill="#906EBC" id="id-49100"></path><path d=" M 78,329 C 101,306 112,294 112,294 C 124,256 131,237 131,237 C 157,218 170,209 170,209 C 172,229 173,239 173,239 C 213,245 233,248 233,248 C 188,271 166,282 166,282 L 167,347 L 131,347 L 134,316 L 123,309 C 93,322 78,329 78,329 Z" fill="#BDADFE" id="id-49101"></path><path d=" M 114,1 L 112,31 L 97,49 L 81,45 L 89,0 C 106,1 114,1 114,1 Z" fill="#5E4AA1" id="id-49102"></path><path d=" M 201,38 C 195,40 192,41 192,41 C 192,16 191,3 191,3 L 199,3 C 200,27 201,38 201,38 Z" fill="#3B2C94" id="id-49103"></path><path d=" M 248,339 C 233,340 226,340 226,340 C 226,304 227,286 227,286 C 202,280 189,278 189,278 C 150,245 130,228 130,228 C 162,233 178,235 178,235 C 156,216 135,202 113,187 C 153,190 173,191 173,191 C 193,177 203,169 203,169 C 270,182 304,189 304,189 C 281,205 270,213 270,213 C 242,221 228,226 228,226 C 244,230 252,232 252,232 C 238,246 232,253 232,253 C 235,254 236,254 236,254 C 280,234 302,224 302,224 C 305,230 307,233 307,233 L 262,271 C 252,317 248,339 248,339 Z" fill="url(#id-49088)" opacity="0.900" id="id-49104"></path><path d=" M 196,340 L 203,341 C 204,304 204,285 204,285 L 199,285 L 196,340 Z" fill="#6A3B7C" id="id-49105"></path><path d=" M 298,233 C 258,267 237,284 237,284 L 213,280 C 270,248 298,233 298,233 Z" fill="#704AA1" id="id-49106"></path><path d=" M 220,273 C 202,277 193,279 193,279 L 154,242 C 198,263 220,273 220,273 Z" fill="#704AA1" id="id-49107"></path><path d=" M 186,271 C 221,270 239,269 242,271 C 246,273 234,296 214,298 C 204,297 194,288 186,271 Z" fill="#633C95" id="id-49108"></path><path d=" M 261,65 L 307,85 C 307,85 306,120 304,189 L 196,167 L 195,134 C 195,134 193,134 191,134 L 198,51 C 198,51 214,51 214,51 L 229,85 L 261,65 Z" fill="#BFBBFF" id="id-49109"></path><path d=" M 115,184 C 165,181 190,178 190,175 L 171,188 L 173,191 C 134,186 115,184 115,184 Z" fill="#BDB8FF" id="id-49110"></path><path d=" M 99,120 C 73,115 61,112 61,112 L 75,93 C 91,111 99,120 99,120 Z" fill="#BDB8FF" id="id-49111"></path><path d=" M 97,100 C 147,110 172,116 172,116 L 115,85 C 103,95 97,100 97,100 Z" fill="#DFFFFE" id="id-49112"></path><path d=" M 239,160 C 266,146 280,139 280,139 L 325,147 C 268,155 239,160 239,160 Z" fill="#E7E3FF" id="id-49113"></path><path d=" M 223,121 C 226,140 228,150 228,150 C 211,152 203,153 203,153 C 200,139 199,133 199,133 L 212,133 C 220,125 223,121 223,121 Z" fill="#CECBFF" id="id-49114"></path><path d=" M 203,153 C 199,154 198,155 198,155 L 195,133 L 199,133 C 201,146 203,153 203,153 Z" fill="#CBF4FF" id="id-49115"></path><path d=" M 340,176 C 330,186 325,191 325,191 L 273,175 C 317,175 340,176 340,176 Z" fill="#CAC6FF" id="id-49116"></path><path d=" M 331,208 L 289,201 L 256,235 C 306,217 331,208 331,208 Z" fill="#E7E3FF" id="id-49117"></path><path d=" M 345,212 C 339,205 336,201 336,201 C 336,194 336,190 336,190 L 370,201 C 354,208 345,212 345,212 Z" fill="#FF8FFF" id="id-49118"></path><path d=" M 341,211 C 341,293 340,333 340,333 C 335,334 333,334 333,334 L 335,219 C 339,214 341,211 341,211 Z" fill="#FF8FFF" id="id-49119"></path><path d=" M 410,325 C 405,325 403,325 403,325 C 402,271 401,243 401,243 L 410,305 C 410,318 410,325 410,325 Z" fill="#DD7AF2" id="id-49120"></path><path d=" M 322,103 C 312,91 306,85 306,85 L 261,104 C 302,104 322,103 322,103 Z" fill="#E7E3FF" id="id-49121"></path><path d=" M 318,82 C 327,91 332,96 332,96 C 347,89 354,85 354,85 L 339,79 C 325,81 318,82 318,82 Z" fill="#FF8FFF" id="id-49122"></path><path d=" M 103,331 C 99,330 98,330 98,330 C 97,276 97,248 97,248 C 94,243 92,240 92,240 C 92,232 92,227 92,227 C 96,224 98,223 98,223 C 97,219 97,217 97,217 C 94,211 91,209 86,209 C 94,198 97,192 97,192 C 96,174 100,154 106,133 C 102,133 100,134 100,134 C 105,121 108,115 108,115 C 104,104 102,99 102,99 C 113,88 118,83 118,83 C 120,60 121,49 121,49 L 124,45 L 124,81 C 114,91 109,96 109,96 L 108,104 C 112,107 115,109 115,109 C 107,123 104,131 104,131 C 108,131 110,131 110,131 C 104,147 102,167 102,192 C 99,196 92,203 92,206 C 98,213 101,217 101,217 C 102,223 102,225 102,225 C 90,228 95,237 102,246 C 102,303 103,331 103,331 Z" fill="#F4DBFA" id="id-49123"></path><polygon points="264 0 268 43 303 43 313 28 313 0" fill="#E898FC" id="id-49124"></polygon><path d=" M 184,45 L 212,45 L 212,48 L 325,45 L 325,48 L 308,51 L 312,85 L 330,96 L 325,116 L 330,134 L 325,134 L 337,203 L 341,210 C 337,216 335,219 335,219 C 334,294 333,331 333,331 C 332,331 331,331 331,331 L 334,218 L 337,211 L 334,206 C 333,195 331,185 330,175 C 328,160 325,147 321,134 C 323,134 324,133 325,132 L 320,118 L 327,102 L 310,89 L 305,51 L 302,49 L 198,51 L 198,84 C 196,84 195,84 195,84 C 193,117 192,134 192,134 C 190,134 189,134 189,134 C 193,80 195,53 195,53 L 189,51 L 184,45 Z" fill="#FFFFFF" id="id-49125"></path><path d=" M 4,320 C 3,350 3,365 3,365 C 137,374 203,379 203,379 L 204,341 C 71,327 4,320 4,320 Z" fill="#8667D6" id="id-49126"></path><path d=" M 108,372 C 82,371 69,370 69,370 C 61,340 57,326 57,326 L 107,331 C 108,358 108,372 108,372 Z" fill="#9CC0FF" opacity="0.566" id="id-49127"></path><path d=" M 221,378 C 221,353 221,341 221,341 C 348,330 412,324 412,324 L 414,364 C 285,374 221,378 221,378 Z" fill="#8667D6" id="id-49128"></path><path d=" M 351,330 C 348,344 348,357 350,369 C 326,371 314,371 314,371 C 313,354 307,345 303,334 C 335,331 351,330 351,330 Z" fill="#9CC0FF" opacity="0.566" id="id-49129"></path></g><defs><linearGradient x1="50%" y1="0%" x2="62%" y2="82%" id="id-57793"><stop stop-color="#F85AE6" offset="0%"></stop><stop stop-color="#F05FE5" offset="34%"></stop><stop stop-color="#B7A1D8" offset="53%"></stop><stop stop-color="#00C2DF" offset="71%"></stop><stop stop-color="#00D8B0" offset="100%"></stop></linearGradient><linearGradient x1="50%" y1="31%" x2="50%" y2="37%" id="id-57794"><stop stop-color="#55FFE6" offset="0%"></stop><stop stop-color="#37D9C4" offset="100%"></stop></linearGradient><linearGradient x1="50%" y1="0%" x2="50%" y2="100%" id="id-57795"><stop stop-color="#4ED6DE" offset="0%"></stop><stop stop-color="#00E7BF" offset="100%"></stop></linearGradient><linearGradient x1="50%" y1="0%" x2="50%" y2="100%" id="id-57796"><stop stop-color="#ED70FC" offset="0%"></stop><stop stop-color="#00B3DF" offset="100%"></stop></linearGradient><linearGradient x1="53%" y1="8%" x2="50%" y2="100%" id="id-57797"><stop stop-color="#FE67EF" offset="0%"></stop><stop stop-color="#E2B0DE" offset="37%"></stop><stop stop-color="#4BD6DE" offset="71%"></stop><stop stop-color="#00DFE2" offset="100%"></stop></linearGradient><linearGradient x1="50%" y1="0%" x2="50%" y2="100%" id="id-57798"><stop stop-color="#CBC8DD" offset="0%"></stop><stop stop-color="#6AD4DE" offset="100%"></stop></linearGradient><linearGradient x1="100%" y1="50%" x2="0%" y2="50%" id="id-57799"><stop stop-color="#0091B4" offset="0%"></stop><stop stop-color="#00A5BE" offset="100%"></stop></linearGradient><linearGradient x1="50%" y1="0%" x2="50%" y2="100%" id="id-57800"><stop stop-color="#9F22AF" offset="0%"></stop><stop stop-color="#4A4A90" offset="40%"></stop><stop stop-color="#1A91C1" offset="100%"></stop></linearGradient><linearGradient x1="50%" y1="0%" x2="50%" y2="100%" id="id-57801"><stop stop-color="#B654FE" offset="0%"></stop><stop stop-color="#E4A7DC" offset="32%"></stop><stop stop-color="#03C0DE" offset="64%"></stop><stop stop-color="#00DDED" offset="100%"></stop></linearGradient><linearGradient x1="50%" y1="0%" x2="50%" y2="99%" id="id-57802"><stop stop-color="#48D7DD" offset="0%"></stop><stop stop-color="#00DDEC" offset="100%"></stop></linearGradient><linearGradient x1="50%" y1="0%" x2="50%" y2="99%" id="id-57803"><stop stop-color="#EC8CE8" offset="0%"></stop><stop stop-color="#D1C9D3" offset="49%"></stop><stop stop-color="#67D5D8" offset="100%"></stop></linearGradient></defs><g transform=" translate(288,740)" id="id-57804"><g transform=" translate(369,0)" id="id-57805"><path d=" M 141,580 C 126,577 110,571 95,563 C 61,563 44,564 44,564 C 40,565 38,565 38,565 C 37,569 37,571 37,571 C 30,573 27,574 27,574 C 26,569 26,567 26,567 C 9,561 0,558 0,558 C 15,487 36,412 65,332 C 83,255 92,217 92,217 C 104,160 123,105 131,46 C 166,27 203,11 244,0 C 265,25 286,51 309,77 C 308,82 307,84 307,84 C 288,89 268,94 248,98 C 249,103 250,106 250,106 C 241,128 237,140 237,140 C 245,140 252,141 257,147 C 275,183 284,201 284,201 C 291,206 294,209 294,209 C 293,250 293,271 293,271 C 299,280 302,284 302,284 C 302,286 302,287 302,287 C 300,290 298,293 294,297 C 298,312 301,327 310,342 C 308,347 305,352 301,358 C 305,359 307,361 309,364 C 310,390 312,414 316,432 C 315,436 311,440 306,444 C 308,451 309,454 309,454 C 312,453 315,451 318,453 C 325,478 332,503 333,524 C 329,529 327,532 327,532 C 330,548 336,557 337,580 C 333,596 325,616 317,635 C 311,647 308,653 308,653 C 290,657 281,660 281,660 C 279,653 278,650 278,650 C 252,647 228,641 204,635 C 200,617 196,594 193,570 C 167,573 149,577 141,580 Z" fill="url(#id-57793)" id="id-57806"></path><path d=" M 204,635 C 265,645 295,650 295,650 C 283,647 278,645 278,645 C 282,617 279,591 270,566 C 284,552 292,545 292,545 L 323,545 C 328,555 333,566 337,580 C 331,605 320,629 308,653 L 281,660 L 278,650 C 251,646 226,641 204,635 Z" fill="#00C79B" id="id-57807"></path><path d=" M 299,651 L 311,589 L 308,653 C 302,652 299,651 299,651 Z" fill="#009D76" id="id-57808"></path><path d=" M 308,703 L 311,602 C 311,602 325,586 325,586 C 320,595 318,600 318,600 C 317,781 316,872 316,872 L 306,859 L 308,703 Z" fill="url(#id-57794)" id="id-57809"></path><path d=" M 311,601 C 311,593 311,589 311,589 C 307,583 305,581 305,581 C 313,565 317,557 317,557 L 328,580 L 325,586 L 311,601 Z" fill="#59DBC8" id="id-57810"></path><path d=" M 258,644 C 261,630 263,616 258,589 C 245,577 238,571 238,571 C 249,568 254,567 254,567 C 263,551 268,543 268,543 C 258,529 254,522 254,522 C 263,521 267,521 267,521 C 256,507 251,500 251,500 C 256,491 261,481 271,474 C 254,396 246,356 246,356 C 232,355 226,354 226,354 C 194,364 178,369 178,369 C 171,375 168,378 168,378 C 176,424 180,446 180,446 C 200,445 210,445 210,445 C 194,450 186,453 186,453 C 198,485 205,501 205,501 C 208,501 209,501 209,501 C 212,507 213,510 213,510 C 207,529 204,538 204,538 C 206,542 207,544 207,544 L 194,548 L 193,570 C 196,594 199,617 204,635 C 240,641 258,644 258,644 Z" fill="url(#id-57795)" id="id-57811"></path><path d=" M 194,548 C 212,555 221,558 221,558 L 233,552 L 207,544 C 198,546 194,548 194,548 Z" fill="#00D5BE" id="id-57812"></path><path d=" M 213,510 L 233,510 C 230,505 228,502 228,502 L 249,487 L 209,501 C 212,507 213,510 213,510 Z" fill="#00D0CA" id="id-57813"></path><path d=" M 254,522 L 307,530 L 268,543 C 258,529 254,522 254,522 Z" fill="#00BA8F" id="id-57814"></path><path d=" M 333,522 C 293,530 272,533 272,533 C 307,537 324,539 324,539 L 332,550 L 327,532 L 333,524 C 333,523 333,522 333,522 Z" fill="#00C395" id="id-57815"></path><path d=" M 134,87 C 137,81 139,79 139,79 C 139,82 139,84 139,84 C 169,80 183,79 183,79 C 210,107 223,122 223,122 C 231,135 235,141 235,141 C 225,143 221,145 221,145 C 215,153 212,157 212,157 C 216,134 219,122 219,122 L 182,81 C 150,85 134,87 134,87 Z" fill="#B733EF" id="id-57816"></path><path d=" M 309,454 C 292,457 284,458 284,458 L 316,432 C 317,436 310,441 306,445 C 308,451 309,454 309,454 Z" fill="#00AF81" id="id-57817"></path><path d=" M 194,548 C 189,550 187,551 187,551 L 175,572 L 193,570 C 194,555 194,548 194,548 Z" fill="#0076B3" id="id-57818"></path><path d=" M 187,551 L 118,574 C 124,576 132,579 141,580 C 151,577 160,574 175,572 C 183,558 187,551 187,551 Z" fill="#0099BD" id="id-57819"></path><path d=" M 141,571 C 160,564 170,561 170,561 C 172,566 173,569 173,569 L 155,575 C 146,573 141,571 141,571 Z" fill="#172739" id="id-57820"></path><path d=" M 156,571 C 158,570 160,569 165,571 C 167,744 167,830 167,830 L 155,842 C 156,661 156,571 156,571 Z" fill="#FF84FC" id="id-57821"></path><path d=" M 26,567 L 0,558 C 17,477 39,401 66,330 C 85,239 120,111 131,46 C 166,28 202,11 244,0 C 248,10 250,15 250,15 C 208,27 187,33 187,33 C 155,48 139,56 139,56 C 95,245 72,339 72,339 C 63,372 59,389 59,389 L 31,500 L 26,567 Z" fill="url(#id-57796)" id="id-57822"></path><path d=" M 27,574 C 33,572 36,571 36,571 C 36,524 36,501 36,501 C 55,426 65,389 65,389 C 74,356 79,340 79,340 C 82,308 97,267 100,236 C 110,196 114,159 136,89 C 131,87 129,86 129,86 L 108,172 L 71,344 C 56,395 44,449 30,501 L 26,567 C 27,571 27,574 27,574 Z" fill="#FFFEFF" id="id-57823"></path><path d=" M 95,563 C 120,468 133,421 133,421 C 125,389 120,373 120,373 C 160,248 179,185 179,185 C 174,145 171,124 171,124 C 182,104 187,93 187,93 C 182,87 179,84 179,84 C 175,86 173,86 173,86 C 170,111 169,123 169,123 C 137,161 120,180 120,180 C 111,202 106,212 106,212 C 102,229 100,237 100,237 L 104,261 L 81,324 C 80,334 79,340 79,340 C 84,364 87,376 87,376 C 81,373 79,372 79,372 C 68,390 62,399 62,399 L 39,489 L 44,563 C 78,563 95,563 95,563 Z" fill="url(#id-57797)" id="id-57824"></path><path d=" M 38,565 L 39,516 L 44,564 C 40,565 38,565 38,565 Z" fill="#005E8B" id="id-57825"></path><path d=" M 40,507 C 65,498 78,493 78,493 C 82,448 84,426 84,426 L 64,402 C 48,472 40,507 40,507 Z" fill="#45E7F0" id="id-57826"></path><path d=" M 92,418 C 105,426 111,430 111,430 C 95,469 87,489 87,489 L 77,453 C 87,430 92,418 92,418 Z" fill="#6EEAF1" id="id-57827"></path><path d=" M 108,426 C 101,418 98,413 98,413 C 102,392 104,381 104,381 L 112,402 C 110,418 108,426 108,426 Z" fill="#33BED8" id="id-57828"></path><path d=" M 86,420 C 82,408 80,402 80,402 C 86,388 88,381 88,381 L 94,381 C 88,407 86,420 86,420 Z" fill="#2CBFD9" id="id-57829"></path><polygon points="78 381 79 372 87 376" fill="#4CBCD5" id="id-57830"></polygon><path d=" M 116,385 L 87,376 L 79,340 C 80,329 81,324 81,324 C 92,294 98,279 98,279 L 122,297 L 116,385 Z" fill="#AFEFF4" id="id-57831"></path><path d=" M 104,261 C 110,256 113,254 113,254 L 114,214 L 106,212 L 101,236 C 103,253 104,261 104,261 Z" fill="#D682DA" id="id-57832"></path><path d=" M 127,239 C 127,226 127,219 127,219 C 134,206 137,200 137,200 L 137,218 C 130,232 127,239 127,239 Z" fill="#DD7CDD" id="id-57833"></path><path d=" M 150,245 C 151,231 151,224 151,224 C 158,215 162,210 162,210 L 160,226 C 153,238 150,245 150,245 Z" fill="#DE7ADD" id="id-57834"></path><path d=" M 143,229 C 145,216 145,209 145,209 C 155,206 160,204 160,204 L 159,211 C 148,223 143,229 143,229 Z" fill="#FFC4FF" id="id-57835"></path><path d=" M 124,222 C 123,215 122,212 122,212 L 136,198 C 128,214 124,222 124,222 Z" fill="#FFC1FF" id="id-57836"></path><path d=" M 137,213 C 139,220 140,223 140,223 L 133,228 L 137,218 C 137,215 137,213 137,213 Z" fill="#FFC1FF" id="id-57837"></path><path d=" M 167,119 C 174,108 179,97 181,86 C 181,86 183,89 187,93 C 187,93 182,104 171,124 L 173,192 C 167,200 155,205 141,208 C 149,199 159,198 164,179 C 163,157 163,135 167,119 Z" fill="#FFA8F9" id="id-57838"></path><path d=" M 185,113 C 198,86 205,72 205,72 L 204,91 C 191,106 185,113 185,113 Z" fill="#FEB4FE" id="id-57839"></path><path d=" M 146,107 C 173,74 187,58 187,58 L 175,86 C 156,100 146,107 146,107 Z" fill="#FEBCFF" id="id-57840"></path><path d=" M 139,100 C 145,86 148,79 148,79 L 168,67 C 149,89 139,100 139,100 Z" fill="#FCB1FE" id="id-57841"></path><path d=" M 136,96 C 142,71 146,59 146,59 L 165,55 C 145,83 136,96 136,96 Z" fill="#FB8AFE" id="id-57842"></path><path d=" M 124,82 C 129,83 131,83 131,83 L 146,39 L 132,46 C 127,70 124,82 124,82 Z" fill="#FFC4FF" id="id-57843"></path><path d=" M 181,72 C 184,72 186,72 186,72 C 193,82 197,88 197,88 C 199,85 199,84 199,84 C 199,72 202,59 209,46 L 201,41 L 187,58 C 183,67 181,72 181,72 Z" fill="#FF85FD" id="id-57844"></path><path d=" M 197,193 C 200,183 202,178 202,178 L 240,170 C 211,185 197,193 197,193 Z" fill="#EE51DE" id="id-57845"></path><path d=" M 215,191 C 236,175 246,166 246,166 C 250,168 251,169 251,169 C 245,176 242,179 242,179 L 253,185 C 238,184 225,186 215,191 Z" fill="#FA9AF5" id="id-57846"></path><path d=" M 245,192 C 258,188 264,186 264,186 C 271,193 275,197 275,197 L 282,198 C 283,200 284,201 284,201 L 288,204 C 260,196 245,192 245,192 Z" fill="#D8D8D8" id="id-57847"></path><path d=" M 258,210 C 236,222 197,231 183,244 C 182,259 182,267 182,267 C 190,277 194,282 194,282 C 183,288 178,292 178,292 C 179,272 179,262 179,262 C 176,248 175,241 175,241 C 187,216 193,203 193,203 C 192,212 183,230 184,236 C 204,228 214,224 214,224 L 226,212 C 248,211 258,210 258,210 Z" fill="#A650C2" id="id-57848"></path><path d=" M 294,211 C 276,208 267,207 267,207 C 254,217 237,227 218,236 C 234,259 242,271 242,271 C 259,277 268,280 268,280 L 293,267 C 294,230 294,211 294,211 Z" fill="#CD69D3" id="id-57849"></path><path d=" M 293,267 C 276,275 268,280 268,280 L 268,282 L 302,287 L 302,284 L 293,271 L 293,267 Z" fill="#F07AF2" id="id-57850"></path><path d=" M 293,253 C 276,248 267,246 267,246 C 269,228 270,220 270,220 L 294,228 C 293,245 293,253 293,253 Z" fill="#003265" id="id-57851"></path><path d=" M 274,287 C 259,280 251,276 251,276 L 230,282 C 260,285 274,287 274,287 Z" fill="#8D84C9" id="id-57852"></path><path d=" M 281,295 C 260,293 249,293 249,293 C 249,327 250,343 250,343 L 271,335 C 278,308 281,295 281,295 Z" fill="#4DA9E2" id="id-57853"></path><path d=" M 296,295 L 281,295 C 275,321 271,335 271,335 C 282,346 288,352 288,352 L 308,339 C 302,327 298,312 294,297 L 296,295 Z" fill="#1FA1DB" id="id-57854"></path><path d=" M 287,352 C 275,342 269,337 269,337 L 237,350 C 270,351 287,352 287,352 Z" fill="#3D92C2" id="id-57855"></path><path d=" M 184,356 C 215,354 231,353 231,353 C 236,348 239,345 239,345 C 243,320 245,307 245,307 C 231,300 223,297 223,297 C 225,287 226,283 226,283 C 195,292 180,297 180,297 L 179,341 C 182,351 184,356 184,356 Z" fill="url(#id-57798)" id="id-57856"></path><path d=" M 182,341 C 189,321 192,312 192,312 L 221,315 C 195,332 182,341 182,341 Z" fill="#A7E6FC" id="id-57857"></path><path d=" M 178,381 C 181,378 183,376 183,376 C 218,364 235,357 235,357 C 240,360 242,361 242,361 C 230,364 223,389 221,437 C 219,439 218,439 218,439 C 238,436 248,434 248,434 C 241,469 237,486 237,486 C 227,490 216,496 206,496 C 211,483 221,444 205,442 C 216,408 207,388 178,381 Z" fill="#83E4F6" id="id-57858"></path><path d=" M 180,297 C 176,320 174,331 174,331 C 163,354 158,365 158,365 C 145,378 138,384 138,384 C 154,399 161,407 161,407 C 166,428 175,455 183,482 C 183,494 183,499 183,499 C 192,502 201,509 211,517 L 213,510 L 209,501 C 206,501 204,501 204,501 C 198,499 195,499 195,499 C 179,459 163,419 157,378 C 163,363 171,351 179,341 C 180,312 180,297 180,297 Z" fill="#1F89BC" id="id-57859"></path><path d=" M 37,431 C 49,412 55,403 55,403 C 66,363 71,343 71,343 L 82,286 C 52,382 37,431 37,431 Z" fill="#1B89BC" id="id-57860"></path><path d=" M 109,169 C 105,173 102,175 102,175 C 115,121 122,94 122,94 L 126,96 C 115,145 109,169 109,169 Z" fill="#FFA7FB" id="id-57861"></path><path d=" M 106,212 C 116,191 120,180 120,180 C 122,179 122,178 122,178 L 132,103 L 106,212 Z" fill="#C135E0" id="id-57862"></path><path d=" M 248,98 C 230,66 221,49 221,49 C 200,41 189,36 189,36 C 174,48 166,54 166,54 L 141,55 C 171,40 187,33 187,33 C 225,22 244,17 244,17 C 241,51 240,69 240,69 L 277,92 C 258,96 248,98 248,98 Z" fill="#C62DDD" id="id-57863"></path><path d=" M 221,49 C 218,37 217,31 217,31 L 227,22 C 200,29 187,33 187,33 C 166,43 156,48 156,48 L 173,47 L 189,36 C 210,45 221,49 221,49 Z" fill="#9500CD" id="id-57864"></path><path d=" M 272,48 L 308,80 L 309,77 L 244,0 C 263,32 272,48 272,48 Z" fill="#A315D4" id="id-57865"></path><path d=" M 240,69 C 245,72 247,73 247,73 C 254,63 257,58 257,58 L 256,20 L 244,0 C 241,46 240,69 240,69 Z" fill="#E143ED" id="id-57866"></path><path d=" M 141,54 C 145,44 146,39 146,39 C 166,29 184,21 202,14 C 224,9 235,7 235,7 L 206,28 L 187,33 L 141,54 Z" fill="#ED70FC" id="id-57867"></path><path d=" M 145,44 L 170,39 L 205,13 C 186,21 167,27 146,39 C 145,42 145,44 145,44 Z" fill="#FF9AFF" id="id-57868"></path><path d=" M 26,567 C 22,565 20,565 20,565 L 29,524 C 27,552 26,567 26,567 Z" fill="#0087BF" id="id-57869"></path><path d=" M 3,558 C 7,541 9,532 9,532 L 29,514 L 29,524 L 20,565 C 8,560 3,558 3,558 Z" fill="#00A8D6" id="id-57870"></path><path d=" M 95,563 C 123,561 138,561 138,561 L 111,571 C 100,566 95,563 95,563 Z" fill="#00BBC3" id="id-57871"></path><path d=" M 154,562 C 165,541 170,531 170,531 L 178,466 L 183,482 L 183,499 C 190,501 198,506 211,517 L 204,538 L 207,544 L 194,548 L 187,551 C 165,558 154,562 154,562 Z" fill="url(#id-57799)" id="id-57872"></path><path d=" M 180,553 C 182,517 182,499 182,499 C 186,500 188,501 188,501 L 188,551 L 180,553 Z" fill="#0089B8" id="id-57873"></path></g><g transform=" translate(0,72)" id="id-57874"><path d=" M 160,631 C 150,620 141,608 133,591 C 129,567 127,554 127,554 C 121,559 118,561 118,561 C 116,552 115,548 115,548 C 102,553 86,560 70,567 C 63,573 56,582 50,592 C 55,599 57,603 57,603 C 45,601 26,606 20,596 C 13,574 6,559 0,503 C 12,455 21,410 48,343 C 61,336 68,332 68,332 C 67,328 62,327 64,319 C 70,312 74,309 74,309 C 66,299 69,255 73,209 C 88,178 104,147 118,141 C 112,127 107,113 106,104 C 117,81 122,70 122,70 C 118,56 116,45 118,39 C 107,39 97,38 91,33 C 98,27 106,19 121,9 C 143,3 154,0 154,0 C 155,20 155,30 155,30 C 162,62 170,95 178,118 C 174,127 171,132 171,132 C 198,171 211,190 211,190 L 187,215 C 198,247 204,262 204,262 C 196,281 187,315 176,366 C 170,411 177,439 198,451 C 203,509 205,538 205,538 C 198,552 191,566 187,581 C 176,595 167,611 160,631 Z" fill="url(#id-57800)" id="id-57875"></path><path d=" M 200,549 L 200,480 L 205,538 C 201,546 200,549 200,549 Z" fill="#2C7BB2" id="id-57876"></path><path d=" M 200,518 C 168,469 152,445 152,445 C 156,543 158,591 158,591 L 164,621 L 160,631 C 150,620 141,608 133,591 C 129,567 127,554 127,554 C 124,536 123,514 125,479 C 134,443 139,425 139,425 C 123,402 115,391 115,391 C 115,337 114,310 114,310 C 120,289 123,278 123,278 C 117,263 112,249 108,221 C 108,239 109,258 115,278 C 113,318 113,338 113,338 C 103,345 98,349 98,349 C 107,351 111,353 111,353 C 110,370 110,378 110,378 C 116,397 119,407 119,407 L 120,476 L 127,554 L 118,561 L 115,548 C 101,554 85,560 70,567 C 63,574 56,582 50,592 L 57,603 C 45,600 31,608 20,596 C 12,573 4,546 0,503 C 11,452 25,399 48,343 L 68,332 C 67,327 62,327 64,319 L 74,309 C 64,294 71,239 73,209 C 85,186 97,156 118,141 C 114,130 109,122 106,104 L 122,70 C 120,61 116,57 118,39 C 108,39 97,38 91,33 C 98,26 106,19 121,9 C 143,3 154,0 154,0 C 155,4 155,6 155,6 C 140,11 132,14 132,14 C 147,29 155,36 155,36 C 161,63 164,76 164,76 C 161,96 160,105 160,105 C 146,121 140,128 140,128 C 154,146 161,155 161,155 C 167,141 171,134 171,134 C 189,167 198,184 198,184 C 198,171 197,164 197,164 C 215,194 225,208 225,208 C 227,236 211,250 212,264 C 189,273 177,277 177,277 C 166,306 161,321 161,321 C 162,384 163,416 163,416 C 167,399 172,384 174,366 L 187,428 L 198,451 C 199,496 200,518 200,518 Z" fill="url(#id-57801)" id="id-57877"></path><path d=" M 143,515 L 123,476 L 139,425 C 141,485 143,515 143,515 Z" fill="#00FBFE" id="id-57878"></path><path d=" M 17,586 C 56,570 76,561 76,561 C 83,530 87,514 87,514 C 42,531 19,539 19,539 C 40,513 51,500 51,500 C 45,486 42,478 42,478 C 72,480 87,481 87,481 C 88,479 89,478 89,478 C 83,458 80,449 80,449 C 52,444 38,441 38,441 C 81,416 103,404 103,404 L 113,389 C 111,382 110,378 110,378 C 110,376 110,374 110,374 C 87,368 75,365 75,365 C 62,369 56,371 56,371 L 55,339 L 48,343 C 26,395 12,449 0,503 C 4,540 10,568 17,586 Z" fill="url(#id-57802)" id="id-57879"></path><path d=" M 28,582 C 39,579 44,578 44,578 C 51,560 56,543 75,521 C 37,533 19,539 19,539 C 40,513 51,500 51,500 C 45,474 32,471 31,437 L 50,394 C 49,360 48,343 48,343 C 33,378 22,415 12,454 C 20,445 24,440 24,440 C 27,478 24,514 6,545 C 13,540 16,537 16,537 L 12,546 C 43,548 49,560 28,582 Z" fill="#2AFFFF" id="id-57880"></path><path d=" M 14,537 C 37,513 49,501 49,501 C 37,474 33,465 29,440 C 35,488 29,520 14,537 Z" fill="#44FFFF" id="id-57881"></path><path d=" M 57,603 C 49,602 40,600 32,595 C 54,575 65,566 65,566 C 83,558 101,548 125,533 L 127,554 L 118,561 L 115,548 L 70,567 L 51,590 C 55,599 57,603 57,603 Z" fill="#005B87" id="id-57882"></path><path d=" M 65,566 C 80,555 89,546 93,539 L 92,553 C 80,559 71,564 65,566 Z" fill="#005C89" id="id-57883"></path><path d=" M 99,549 C 106,527 114,495 121,482 L 125,533 C 107,544 99,549 99,549 Z" fill="#00A2C5" id="id-57884"></path><path d=" M 122,490 C 97,489 84,489 84,489 L 121,478 C 122,486 122,490 122,490 Z" fill="#008FB2" id="id-57885"></path><path d=" M 51,386 C 60,395 65,399 65,399 L 104,393 C 68,388 51,386 51,386 Z" fill="#06C1DE" id="id-57886"></path><path d=" M 75,365 C 82,362 86,361 86,361 L 110,364 L 110,374 C 87,368 75,365 75,365 Z" fill="#45C1D4" id="id-57887"></path><path d=" M 65,334 C 79,349 86,356 86,356 C 97,349 103,345 103,345 C 109,303 112,282 112,282 C 100,264 95,255 95,255 C 102,231 105,219 105,219 L 92,172 L 73,209 C 72,226 64,296 74,309 L 64,319 C 63,328 67,327 68,332 C 66,333 65,334 65,334 Z" fill="url(#id-57803)" id="id-57888"></path><path d=" M 82,325 C 94,302 100,290 100,290 C 86,290 76,286 84,267 C 78,259 75,254 75,254 C 78,264 79,275 74,296 C 78,301 83,300 86,311 L 80,325 C 81,325 82,325 82,325 Z" fill="#A3F9FF" id="id-57889"></path><path d=" M 117,342 L 114,310 C 120,289 123,278 123,278 L 136,308 C 128,318 121,329 117,342 Z" fill="#A9EEF1" id="id-57890"></path><path d=" M 122,268 C 105,235 103,193 118,141 C 124,138 127,137 127,137 L 131,166 C 123,193 111,214 122,268 Z" fill="#FFBFFF" id="id-57891"></path><path d=" M 118,141 C 124,138 127,137 127,137 C 120,125 113,113 109,100 L 106,104 C 109,119 114,129 118,141 Z" fill="#F9A9FF" id="id-57892"></path><path d=" M 147,149 C 151,188 153,207 153,207 L 159,168 C 151,155 147,149 147,149 Z" fill="#B33BBD" id="id-57893"></path><path d=" M 143,276 C 146,283 148,290 155,294 C 156,288 158,283 161,279 L 161,201 C 149,251 143,276 143,276 Z" fill="#7F61B0" id="id-57894"></path><path d=" M 196,231 L 178,147 C 191,159 197,164 197,164 L 206,178 C 198,206 195,224 196,231 Z" fill="#B845C6" id="id-57895"></path><path d=" M 164,621 C 162,624 162,626 162,626 C 158,626 156,626 156,626 C 151,604 149,592 149,592 C 139,363 133,249 133,249 C 132,123 131,60 131,60 C 125,31 122,16 122,16 C 127,13 129,11 129,11 C 136,43 139,59 139,59 L 141,255 L 152,445 L 158,592 C 162,611 164,621 164,621 Z" fill="#F4F6F5" id="id-57896"></path><path d=" M 178,278 C 201,269 212,264 212,264 C 211,262 212,259 214,254 L 161,276 L 161,280 C 156,286 156,290 155,294 L 151,291 L 176,367 L 203,286 L 178,278 Z" fill="#3C8FB9" id="id-57897"></path><path d=" M 199,334 C 196,331 182,314 158,284 L 161,279 L 161,278 L 214,278 L 199,334 Z" fill="#60A8C9" id="id-57898"></path><path d=" M 140,57 C 149,43 154,36 154,36 L 132,19 C 137,45 140,57 140,57 Z" fill="#D680FF" id="id-57899"></path><path d=" M 113,34 L 91,34 C 100,25 108,17 121,9 C 118,18 111,29 113,34 Z" fill="#F9AAFE" id="id-57900"></path><path d=" M 145,613 C 148,737 149,799 149,799 C 152,801 154,802 154,802 L 152,621 C 147,616 145,613 145,613 Z" fill="#047FB8" id="id-57901"></path></g></g><defs><linearGradient x1="50%" y1="47%" x2="50%" y2="96%" id="id-63196"><stop stop-color="#B2007A" offset="0%"></stop><stop stop-color="#0CBBF9" offset="100%"></stop></linearGradient><linearGradient x1="35%" y1="7%" x2="50%" y2="66%" id="id-63197"><stop stop-color="#FF29C6" offset="0%"></stop><stop stop-color="#1FC2FF" offset="100%"></stop></linearGradient><linearGradient x1="50%" y1="0%" x2="50%" y2="37%" id="id-63198"><stop stop-color="#C60287" offset="0%"></stop><stop stop-color="#FF0EB3" offset="100%"></stop></linearGradient><linearGradient x1="81%" y1="31%" x2="33%" y2="60%" id="id-63199"><stop stop-color="#D234B0" offset="0%"></stop><stop stop-color="#32A7F0" offset="100%"></stop></linearGradient><linearGradient x1="70%" y1="7%" x2="36%" y2="86%" id="id-63200"><stop stop-color="#D33AD6" offset="0%"></stop><stop stop-color="#2DD1FF" offset="100%"></stop></linearGradient></defs><g transform=" translate(484,324)" id="id-63201"><path d=" M 334,162 C 338,164 357,162 357,162 C 331,176 309,158 308,157 C 339,212 307,248 307,248 C 320,217 304,187 304,187 C 306,220 294,235 293,236 C 298,227 296,193 295,192 C 294,203 283,217 277,218 C 284,207 288,194 287,180 C 286,190 282,200 276,207 C 282,178 267,143 267,143 C 259,149 257,167 257,167 C 253,139 260,127 249,114 L 251,125 C 240,127 219,102 214,95 C 217,103 230,119 233,122 C 208,128 183,79 183,79 C 185,91 199,135 199,135 C 173,133 159,94 161,83 C 158,95 131,129 130,129 C 128,127 111,126 105,126 C 109,122 117,104 118,103 C 112,111 96,117 96,117 C 96,130 97,144 95,157 C 95,162 94,166 94,166 C 89,174 87,204 87,204 C 85,197 85,181 85,181 C 76,198 72,232 72,232 C 67,223 69,199 69,199 C 61,213 33,233 32,256 C 23,238 33,200 39,191 C 39,191 16,212 16,212 C 18,200 46,165 47,164 C 43,165 39,167 35,168 C 15,174 1,171 1,171 C 44,167 72,129 83,103 C 68,78 71,73 71,73 C 118,2 152,-5 184,4 C 204,-7 232,15 245,24 C 281,58 281,71 270,101 C 290,108 285,120 285,120 C 328,158 367,147 364,145 C 358,159 334,162 334,162 Z" fill="url(#id-63196)" id="id-63202"></path><g transform=" translate(1,1)" id="id-63203"><path d=" M 333,161 C 337,163 356,161 356,161 C 330,175 308,157 307,156 C 338,211 306,247 306,247 C 319,216 303,186 303,186 C 305,219 293,234 292,235 C 303,206 299,175 293,168 C 295,184 290,213 276,217 C 290,198 286,171 287,158 C 300,165 307,187 307,189 C 303,160 280,134 280,134 L 287,122 C 334,158 364,144 364,144 C 357,158 333,161 333,161 Z" fill="url(#id-63197)" id="id-63204"></path><path d=" M 232,121 L 232,121 C 207,127 182,78 182,78 C 184,90 198,134 198,134 C 158,131 162,65 160,54 C 158,64 159,81 160,82 C 156,95 131,128 129,128 C 128,126 113,125 107,125 L 130,80 C 129,82 114,102 111,102 C 109,102 107,89 119,72 C 131,55 174,41 174,41 L 181,52 L 183,45 C 225,30 246,108 249,124 C 226,123 196,60 195,57 C 207,97 225,115 232,121 Z" fill="url(#id-63198)" id="id-63204"></path><path d=" M 236,75 C 243,83 259,105 259,105 L 256,117 C 215,32 189,23 107,68 L 114,62 L 94,71 L 96,60 L 114,42 L 95,51 L 119,30 L 99,40 C 131,6 143,3 158,0 C 172,5 179,7 179,7 C 179,28 178,30 181,33 C 184,31 185,7 185,7 L 193,0 C 241,5 255,40 266,68 C 269,73 260,101 260,101 C 258,94 242,80 236,75 Z" fill="#FA00AC" id="id-63204"></path><polygon points="116 72 103 81 106 88" fill="#E53895" id="id-63204"></polygon><path d=" M 75,133 C 63,145 31,179 0,170 C 34,166 56,143 69,125 L 75,133 Z" fill="url(#id-63199)" id="id-63204"></path><path d=" M 90,163 C 91,164 64,199 52,208 C 52,208 58,187 64,179 C 60,184 45,202 41,217 C 41,216 44,197 46,192 C 45,194 30,221 28,245 C 24,209 42,170 73,145 L 63,160 L 80,149 L 78,162 C 83,158 87,152 87,145 C 87,145 90,161 90,163 Z" fill="url(#id-63200)" id="id-63204"></path><path d=" M 97,228 C 97,228 97,240 99,245 C 88,235 93,210 99,198 C 99,208 109,253 117,258 C 116,258 105,255 97,228 Z" fill="#3CBCFF" id="id-63204"></path></g><g transform=" translate(99,4)" fill="#FE8AED" id="id-63211"><path d=" M 35,75 C 35,75 36,87 54,86 L 49,97 C 45,92 39,89 33,89 C 33,89 28,88 28,85 L 35,75 Z" id="id-63204"></path><path d=" M 66,88 L 69,100 C 69,100 74,96 87,96 L 83,83 C 79,88 72,90 66,88 Z" id="id-63204"></path><path d=" M 91,83 C 91,83 100,83 103,76 L 109,87 C 109,87 97,88 96,90 L 91,83 Z" id="id-63204"></path><path d=" M 109,75 L 113,83 C 113,83 128,72 129,69 L 124,63 C 123,70 116,76 109,75 Z" id="id-63204"></path><path d=" M 129,50 L 113,44 C 113,44 146,19 103,1 C 103,1 131,9 145,23 L 157,45 C 157,45 139,24 132,23 C 132,23 124,36 129,50 Z" id="id-63204"></path><path d=" M 38,50 L 49,45 C 49,45 23,8 68,2 C 68,2 57,-1 52,1 C 46,4 13,21 1,37 C 1,37 29,22 36,21 C 36,21 36,31 30,35 C 30,35 40,39 38,50 Z" id="id-63204"></path></g><g transform=" translate(70,35)" id="id-63218"><path d=" M 70,18 L 68,16 L 52,0 L 47,4 L 56,29 L 70,18 L 70,18 Z M 56,20 L 50,5 L 51,4 L 62,16 L 56,20 Z" fill="#01FF4F" id="id-63219" fill-rule="nonzero"></path><path d=" M 34,14 L 29,18 L 38,43 L 53,32 L 34,14 Z M 32,20 L 34,18 L 44,30 L 38,33 L 32,20 Z" fill="#01FF4F" id="id-63219" fill-rule="nonzero"></path><path d=" M 186,33 L 161,42 C 161,42 171,56 171,57 C 171,57 190,38 190,38 L 186,33 Z M 171,42 C 171,42 185,36 185,36 L 187,38 C 187,38 175,47 175,47 C 174,47 171,42 171,42 Z" fill="#01FF4F" id="id-63219" fill-rule="nonzero"></path><path d=" M 176,16 L 151,25 L 161,39 L 180,21 L 176,16 Z M 160,25 L 175,19 L 177,21 L 164,31 L 160,25 Z" fill="#01FF4F" id="id-63219" fill-rule="nonzero"></path><path d=" M 189,84 L 198,97 C 198,97 218,81 218,79 C 218,78 214,66 214,66 L 202,64 L 189,84 Z" fill="#F7EC1F" id="id-63204"></path><polygon points="21 99 23 85 12 66 4 70 0 86" fill="#F7EC1F" id="id-63204"></polygon></g></g><defs></defs><path d=" M 1202,1685 C 1201,1683 1198,1681 1197,1679 C 1196,1678 1196,1676 1196,1675 C 1196,1674 1194,1672 1193,1671 C 1193,1670 1192,1669 1192,1668 C 1192,1667 1195,1666 1196,1665 C 1198,1663 1200,1661 1202,1658 C 1207,1649 1216,1643 1226,1641 C 1240,1638 1254,1644 1263,1655 C 1264,1657 1266,1660 1265,1663 C 1265,1664 1263,1665 1263,1666 C 1263,1667 1265,1669 1266,1670 C 1271,1673 1269,1673 1270,1678 C 1270,1682 1274,1681 1274,1685 L 1274,1685 L 1274,1686 C 1274,1686 1274,1686 1274,1686 C 1273,1688 1271,1688 1270,1689 C 1268,1691 1267,1692 1266,1694 C 1263,1698 1261,1700 1258,1704 C 1242,1719 1214,1716 1202,1696 C 1201,1695 1199,1691 1200,1689 C 1201,1688 1202,1688 1202,1685 L 1202,1685 Z M 1268,1685 C 1267,1682 1265,1682 1264,1679 C 1264,1678 1264,1677 1264,1676 C 1264,1675 1264,1674 1264,1674 C 1264,1673 1263,1672 1262,1672 C 1260,1670 1256,1669 1258,1665 C 1259,1662 1261,1662 1258,1658 C 1246,1643 1223,1641 1210,1656 C 1209,1658 1208,1659 1207,1661 C 1205,1663 1202,1665 1200,1667 C 1197,1669 1197,1669 1200,1671 C 1203,1675 1201,1676 1203,1679 C 1204,1681 1207,1682 1208,1685 L 1208,1685 L 1208,1685 C 1207,1690 1203,1688 1207,1694 C 1216,1706 1232,1711 1246,1705 C 1249,1704 1252,1702 1255,1699 C 1257,1697 1259,1694 1261,1691 C 1263,1689 1267,1687 1268,1685 L 1268,1685 Z M 1254,1685 C 1254,1682 1252,1682 1252,1680 C 1251,1677 1251,1673 1255,1674 C 1258,1675 1256,1678 1258,1680 C 1259,1682 1260,1682 1260,1685 L 1261,1686 L 1260,1686 C 1259,1688 1257,1689 1255,1690 C 1248,1694 1246,1699 1237,1700 C 1231,1701 1225,1700 1221,1697 C 1219,1696 1216,1694 1215,1692 C 1213,1689 1216,1688 1216,1685 C 1215,1683 1212,1682 1211,1680 C 1208,1677 1210,1673 1214,1674 L 1214,1674 L 1215,1675 C 1216,1678 1215,1679 1217,1681 C 1219,1682 1222,1683 1222,1686 C 1222,1689 1220,1690 1224,1692 C 1230,1696 1238,1695 1244,1691 C 1246,1690 1253,1687 1254,1685 L 1254,1685 Z M 1244,1674 C 1242,1675 1239,1674 1237,1673 C 1236,1672 1233,1670 1232,1669 C 1231,1669 1231,1668 1231,1667 C 1231,1666 1233,1665 1234,1664 C 1235,1662 1237,1661 1238,1659 C 1242,1652 1249,1658 1247,1663 C 1246,1665 1243,1666 1243,1668 C 1243,1670 1246,1671 1244,1674 L 1244,1674 L 1244,1674 L 1244,1674 Z M 1222,1656 C 1224,1655 1227,1656 1228,1659 C 1229,1660 1229,1661 1229,1663 C 1228,1665 1223,1666 1225,1669 C 1225,1670 1226,1670 1226,1671 C 1227,1674 1226,1675 1223,1675 C 1222,1675 1219,1673 1218,1672 C 1216,1671 1212,1669 1214,1666 C 1215,1664 1217,1664 1218,1662 C 1219,1660 1220,1658 1222,1656 L 1222,1656 Z" fill="#343D53" opacity="0.297" id="id-77051"></path></svg>