<?xml version="1.0" encoding="UTF-8"?><svg width="1320px" height="1760px" viewBox="0 0 1320 1760" version="1.1" xmlns="http://www.w3.org/2000/svg" xmlns:xlink="http://www.w3.org/1999/xlink"><defs></defs><g stroke="none" stroke-width="1" fill="none" id="id-32974" fill-rule="evenodd"><g id="id-32975"><rect fill="#402D25" width="1320" height="1760" x="0" y="0" id="id-32976"></rect><path d=" M 544,357 C 544,359 544,360 544,360 C 543,359 542,359 542,359 C 541,357 541,355 541,355 C 538,351 534,346 527,345 C 512,336 498,333 487,339 C 473,340 466,348 458,353 C 452,359 445,367 439,377 C 438,380 438,381 438,381 C 432,390 425,410 417,439 L 417,443 C 412,459 409,483 406,508 C 404,525 403,544 402,567 C 403,570 403,571 403,571 C 402,572 401,573 401,573 C 401,585 401,591 401,591 C 402,594 403,595 403,595 C 402,597 401,598 401,598 C 401,602 401,605 401,605 C 401,620 401,627 401,627 C 403,632 403,635 403,635 C 402,638 401,639 401,639 C 403,669 403,684 403,684 C 404,691 405,695 405,695 C 407,696 407,697 407,697 C 406,700 405,702 405,702 C 406,709 406,713 406,713 C 407,715 408,716 408,716 C 408,720 408,722 408,722 C 409,724 410,725 410,725 C 408,726 407,727 407,727 C 408,735 408,739 408,739 C 409,740 410,740 410,740 C 410,750 410,754 410,754 C 411,756 412,757 412,757 C 413,769 414,776 414,776 C 415,778 416,779 416,779 C 415,781 414,782 414,782 C 415,797 417,809 420,818 C 422,820 422,822 422,822 C 421,824 421,825 421,825 C 422,840 424,851 427,859 C 426,870 428,881 433,892 C 434,897 432,904 436,906 C 435,912 435,918 438,922 C 438,932 440,935 441,938 C 443,934 443,932 443,932 C 446,938 448,941 448,941 C 444,942 442,943 442,943 C 442,945 442,947 442,947 C 446,971 449,984 449,984 C 450,985 451,986 451,986 C 456,1001 458,1009 458,1009 C 457,1014 457,1017 457,1017 C 461,1031 463,1039 463,1039 C 467,1044 469,1046 469,1046 C 470,1052 471,1055 471,1055 C 470,1063 469,1066 469,1066 C 472,1070 474,1072 474,1072 C 474,1078 474,1081 474,1081 C 476,1085 476,1087 476,1087 C 477,1092 477,1095 477,1095 C 480,1102 481,1105 481,1105 C 482,1111 482,1117 485,1122 C 486,1130 487,1134 487,1134 C 495,1138 499,1140 499,1140 C 496,1146 495,1149 495,1149 C 496,1154 496,1156 496,1156 C 499,1159 501,1160 501,1160 C 501,1164 499,1165 503,1173 C 504,1182 504,1186 504,1186 C 507,1190 509,1192 509,1192 C 512,1197 513,1200 513,1200 C 513,1205 513,1207 513,1207 C 515,1217 518,1222 522,1226 C 522,1230 523,1232 523,1232 C 525,1236 526,1238 526,1238 C 526,1244 527,1248 527,1248 C 529,1252 530,1254 530,1254 C 531,1259 532,1261 532,1261 C 534,1267 535,1269 535,1269 C 536,1275 536,1277 536,1277 C 539,1283 541,1285 541,1285 C 543,1286 545,1286 545,1286 C 545,1291 545,1293 545,1293 C 550,1307 552,1314 552,1314 C 556,1319 557,1321 557,1321 C 558,1327 558,1331 558,1331 C 561,1335 563,1337 563,1337 C 563,1343 563,1346 563,1346 L 573,1356 C 573,1362 573,1366 573,1366 C 575,1367 577,1368 577,1368 C 584,1384 587,1393 587,1393 C 588,1397 588,1399 588,1399 C 590,1400 591,1400 591,1400 C 601,1419 606,1428 606,1428 C 608,1434 609,1437 609,1437 C 611,1438 612,1438 612,1438 C 613,1443 613,1445 613,1445 C 617,1449 618,1450 618,1450 C 620,1451 621,1451 621,1451 C 622,1458 622,1462 622,1462 C 624,1464 625,1465 625,1465 C 627,1468 627,1470 627,1470 C 635,1482 638,1487 638,1487 C 640,1492 641,1494 641,1494 C 654,1514 661,1524 661,1524 C 663,1526 664,1526 664,1526 C 666,1531 666,1533 666,1533 C 670,1538 672,1540 672,1540 C 673,1544 673,1546 673,1546 C 676,1546 677,1547 677,1547 C 680,1551 682,1554 682,1554 C 684,1558 686,1560 686,1560 C 687,1563 688,1565 688,1565 C 692,1567 694,1567 694,1567 C 698,1574 700,1578 700,1578 C 706,1582 709,1583 709,1583 C 719,1597 735,1611 752,1625 C 757,1625 759,1625 759,1625 C 764,1630 766,1635 776,1637 C 800,1650 844,1649 857,1636 C 883,1622 906,1597 918,1556 C 920,1551 921,1549 921,1549 C 922,1543 922,1540 922,1540 C 924,1533 925,1530 925,1530 C 927,1526 928,1525 928,1525 C 931,1505 933,1495 933,1495 C 935,1466 936,1452 936,1452 C 937,1447 937,1445 937,1445 C 940,1338 933,1230 913,1120 C 912,1115 911,1113 911,1113 C 911,1107 911,1104 911,1104 C 907,1096 906,1092 906,1092 C 906,1086 906,1083 906,1083 C 903,1077 902,1074 902,1074 C 902,1067 902,1064 902,1064 C 899,1058 897,1055 897,1055 C 887,1021 882,1005 882,1005 C 881,1002 880,1000 880,1000 C 879,996 878,994 878,994 C 870,969 866,956 866,956 C 858,937 853,927 853,927 C 850,917 849,912 849,912 C 839,884 834,870 834,870 C 828,873 824,875 824,875 C 835,906 840,922 840,922 C 840,929 840,933 840,933 C 843,937 844,939 844,939 C 844,944 844,947 844,947 C 847,950 849,952 849,952 C 849,959 849,962 849,962 C 852,968 853,971 853,971 C 853,975 853,977 853,977 C 856,978 858,979 858,979 C 858,983 859,986 859,986 C 860,995 860,999 860,999 C 864,1006 860,1010 866,1018 C 867,1028 867,1032 867,1032 C 869,1036 870,1038 870,1038 C 873,1048 875,1054 875,1054 C 876,1065 876,1070 876,1070 C 880,1074 881,1075 881,1075 C 883,1090 884,1097 884,1097 C 891,1118 897,1151 903,1190 C 902,1195 902,1197 902,1197 C 905,1209 908,1231 911,1248 C 912,1257 912,1262 912,1262 C 911,1271 911,1276 911,1276 C 914,1285 915,1290 915,1290 C 915,1298 915,1301 915,1301 C 915,1310 916,1314 916,1314 C 916,1322 916,1326 916,1326 C 917,1334 917,1338 917,1338 C 918,1352 919,1359 919,1359 C 920,1366 920,1370 920,1370 C 918,1427 918,1455 918,1455 C 918,1460 919,1463 919,1463 C 917,1465 916,1466 916,1466 C 908,1543 891,1604 849,1623 C 834,1627 822,1628 812,1627 C 808,1624 806,1623 806,1623 C 794,1622 783,1616 770,1608 C 750,1597 727,1568 705,1549 C 704,1545 704,1543 704,1543 C 694,1532 689,1527 689,1527 C 688,1523 688,1522 688,1522 C 680,1510 676,1505 676,1505 C 677,1500 677,1498 677,1498 C 673,1499 671,1499 671,1499 C 657,1479 650,1469 650,1469 C 651,1467 652,1467 652,1467 C 645,1458 642,1453 642,1453 C 635,1442 632,1436 632,1436 C 634,1432 636,1430 636,1430 C 631,1430 629,1430 629,1430 C 614,1402 607,1389 607,1389 C 590,1350 582,1331 582,1331 C 575,1314 571,1305 571,1305 C 562,1285 558,1275 558,1275 C 558,1269 558,1266 558,1266 C 550,1248 545,1238 545,1238 C 531,1199 524,1179 524,1179 C 524,1172 524,1169 524,1169 C 512,1147 503,1115 495,1081 C 491,1071 489,1067 489,1067 C 486,1054 484,1048 484,1048 C 481,1030 479,1021 479,1021 C 478,1013 477,1009 477,1009 C 472,995 470,988 470,988 C 468,974 467,967 467,967 C 463,955 461,949 461,949 C 460,935 456,917 450,895 C 449,891 449,888 449,888 C 447,882 446,879 446,879 C 447,872 447,869 447,869 C 445,867 444,866 444,866 C 445,862 446,859 446,859 C 444,856 443,855 443,855 C 444,853 444,852 444,852 C 441,846 440,844 440,844 C 442,840 443,838 443,838 C 441,833 440,831 440,831 C 441,828 441,826 441,826 C 440,819 439,812 436,807 C 437,804 437,802 437,802 C 434,797 433,794 433,794 C 433,783 434,770 431,762 C 431,756 431,750 428,746 C 427,738 428,730 424,722 C 429,698 425,685 421,673 C 421,671 421,670 421,670 C 422,664 422,661 422,661 C 423,657 423,655 423,655 C 425,648 424,641 420,636 C 420,630 420,627 420,627 L 418,624 C 420,619 420,615 418,612 C 421,606 423,604 423,604 C 419,599 417,597 417,597 C 421,592 422,589 422,589 C 422,581 422,577 422,577 C 421,575 420,573 420,573 C 421,569 422,566 422,566 C 420,559 419,555 419,555 C 421,550 422,548 422,548 C 422,539 421,529 422,511 C 425,507 427,505 427,505 C 426,501 426,499 426,499 C 435,425 450,366 485,353 C 497,349 511,355 532,373 C 534,377 535,378 535,378 C 537,378 539,378 539,378 C 560,401 583,430 609,476 C 611,478 612,479 612,479 C 624,501 629,512 629,512 C 644,512 652,511 652,511 C 644,497 640,490 640,490 C 639,487 639,486 639,486 C 637,483 636,481 636,481 C 634,475 629,468 625,461 C 623,457 623,455 623,455 C 617,446 614,441 614,441 C 613,438 613,436 613,436 C 607,430 604,427 604,427 C 603,424 603,423 603,423 C 592,411 587,406 587,406 C 586,404 586,402 586,402 C 584,401 583,400 583,400 C 581,392 576,385 568,379 C 564,373 561,368 553,362 C 549,358 547,356 544,357 Z" transform=" translate(669,991) rotate(-38) translate(-669,-991)" fill="#201510" id="id-32977"></path><rect fill="#765446" width="37" height="134" x="0" y="0" id="id-32976"></rect><rect fill="#765446" width="37" height="134" x="0" y="813" id="id-32976"></rect><rect fill="#765446" width="37" height="134" x="0" y="1626" id="id-32976"></rect></g></g><defs><filter width="155%" height="561%" x="-27%" y="-230%" id="id-106583" filterUnits="objectBoundingBox"><feGaussianBlur in="SourceGraphic" stdDeviation="30"></feGaussianBlur></filter><linearGradient x1="87%" y1="158%" x2="23%" y2="158%" id="id-106584"><stop stop-color="#D5D4D8" offset="0%"></stop><stop stop-color="#AAA9B0" offset="100%"></stop></linearGradient></defs><g transform=" translate(494,196)" id="id-106585"><path d=" M 168,41 C 254,41 329,20 330,7 C 331,-7 250,25 165,25 C 80,25 0,-10 0,7 C 0,23 83,41 168,41 Z" fill="#EAFDFF" id="id-106586" filter="url(#id-106583)"></path><path d=" M 164,28 C 250,28 320,24 320,7 C 320,3 315,1 304,1 C 298,10 249,14 157,14 C 65,14 22,10 28,0 C 18,1 13,3 13,7 C 13,24 78,28 164,28 Z" fill="#D4D4D4" id="id-106586"></path><path d=" M 28,14 C 53,22 95,25 156,25 C 217,25 265,22 300,15 C 249,20 201,22 156,22 C 111,22 68,19 28,14 Z" fill="url(#id-106584)" id="id-106589"></path></g><defs></defs><g transform=" translate(471,487)" id="id-109986"><path d=" M 35,43 C 96,14 127,0 127,0 L 268,2 L 350,40 L 325,79 L 188,186 L 32,51 C 34,46 35,43 35,43 Z" fill="#56837D" id="id-109987"></path><path d=" M 40,46 C 72,31 87,23 87,23 C 115,10 129,4 129,4 C 218,7 262,9 262,9 C 318,31 346,43 346,43 L 323,78 L 188,186 L 40,46 Z" fill="#527BBB" id="id-109988"></path><path d=" M 1,464 C 29,434 59,416 91,411 C 154,401 296,417 296,417 C 352,440 380,451 380,451 L 380,466 C 308,477 257,483 226,484 C 196,486 129,482 24,475 L 1,464 Z" fill="#0C2F21" id="id-109988"></path><path d=" M 40,46 C 60,34 87,23 87,23 C 90,44 91,54 91,54 C 76,71 68,80 68,80 C 112,64 134,56 134,56 C 133,70 133,77 133,77 C 119,88 112,93 112,93 L 125,133 L 40,56 C 37,53 37,50 40,46 Z" fill="#80A5E4" id="id-109990"></path><path d=" M 261,60 L 319,78 L 342,43 L 350,40 C 332,66 323,79 323,79 C 280,118 259,138 259,138 C 266,95 269,74 269,74 L 262,70 C 262,63 261,60 261,60 Z" fill="#80A5E4" id="id-109991"></path></g><defs><linearGradient x1="50%" y1="6%" x2="50%" y2="100%" id="id-110371"><stop stop-color="#783F2F" offset="0%"></stop><stop stop-color="#97573C" offset="8%"></stop><stop stop-color="#7A3F2D" offset="20%"></stop><stop stop-color="#884B31" offset="34%"></stop><stop stop-color="#6B2923" offset="71%"></stop><stop stop-color="#602521" offset="100%"></stop></linearGradient><linearGradient x1="50%" y1="-10%" x2="50%" y2="84%" id="id-110372"><stop stop-color="#824631" offset="0%"></stop><stop stop-color="#9D5940" offset="49%"></stop><stop stop-color="#91533A" offset="100%"></stop></linearGradient><linearGradient x1="57%" y1="50%" x2="47%" y2="56%" id="id-110373"><stop stop-color="#551B1B" offset="0%"></stop><stop stop-color="#612520" offset="100%"></stop></linearGradient><linearGradient x1="45%" y1="35%" x2="55%" y2="47%" id="id-110374"><stop stop-color="#81452F" offset="0%"></stop><stop stop-color="#5D221E" offset="100%"></stop></linearGradient><linearGradient x1="54%" y1="31%" x2="47%" y2="81%" id="id-110375"><stop stop-color="#80402E" offset="0%"></stop><stop stop-color="#793E2D" offset="20%"></stop><stop stop-color="#77382C" offset="71%"></stop><stop stop-color="#6D2F27" offset="81%"></stop><stop stop-color="#5B201C" offset="100%"></stop></linearGradient><linearGradient x1="43%" y1="38%" x2="54%" y2="44%" id="id-110376"><stop stop-color="#8F4F38" offset="0%"></stop><stop stop-color="#6D2C24" offset="100%"></stop></linearGradient><linearGradient x1="46%" y1="8%" x2="58%" y2="82%" id="id-110377"><stop stop-color="#9B5B3F" offset="0%" stop-opacity="0.880"></stop><stop stop-color="#6B2A22" offset="100%"></stop></linearGradient><linearGradient x1="50%" y1="41%" x2="49%" y2="66%" id="id-110378"><stop stop-color="#581B1B" offset="0%"></stop><stop stop-color="#843428" offset="27%"></stop><stop stop-color="#86422D" offset="100%"></stop></linearGradient><linearGradient x1="63%" y1="4%" x2="25%" y2="77%" id="id-110379"><stop stop-color="#9F5F44" offset="0%"></stop><stop stop-color="#B37459" offset="55%"></stop><stop stop-color="#9C5D42" offset="100%"></stop></linearGradient><linearGradient x1="50%" y1="23%" x2="41%" y2="77%" id="id-110380"><stop stop-color="#541214" offset="0%"></stop><stop stop-color="#5D1B1C" offset="100%"></stop></linearGradient><linearGradient x1="47%" y1="22%" x2="55%" y2="89%" id="id-110381"><stop stop-color="#703527" offset="0%"></stop><stop stop-color="#A9624A" offset="100%"></stop></linearGradient><linearGradient x1="86%" y1="87%" x2="11%" y2="66%" id="id-110382"><stop stop-color="#773D31" offset="0%"></stop><stop stop-color="#672D25" offset="100%"></stop></linearGradient><linearGradient x1="71%" y1="11%" x2="50%" y2="100%" id="id-110383"><stop stop-color="#81432F" offset="0%" stop-opacity="0"></stop><stop stop-color="#783A28" offset="100%"></stop></linearGradient><linearGradient x1="66%" y1="46%" x2="56%" y2="43%" id="id-110384"><stop stop-color="#672B26" offset="0%"></stop><stop stop-color="#5D2221" offset="100%"></stop></linearGradient><linearGradient x1="100%" y1="41%" x2="50%" y2="63%" id="id-110385"><stop stop-color="#271321" offset="0%"></stop><stop stop-color="#43151B" offset="100%"></stop></linearGradient><linearGradient x1="69%" y1="20%" x2="50%" y2="100%" id="id-110386"><stop stop-color="#672D26" offset="0%"></stop><stop stop-color="#75382C" offset="100%"></stop></linearGradient><linearGradient x1="36%" y1="20%" x2="57%" y2="81%" id="id-110387"><stop stop-color="#B16549" offset="0%"></stop><stop stop-color="#8A4934" offset="100%"></stop></linearGradient><linearGradient x1="26%" y1="83%" x2="92%" y2="50%" id="id-110388"><stop stop-color="#874834" offset="0%"></stop><stop stop-color="#CF836C" offset="100%" stop-opacity="0.095"></stop></linearGradient><linearGradient x1="17%" y1="56%" x2="85%" y2="45%" id="id-110389"><stop stop-color="#B16549" offset="0%" stop-opacity="0"></stop><stop stop-color="#CA8266" offset="52%"></stop><stop stop-color="#A55D43" offset="100%"></stop></linearGradient><linearGradient x1="17%" y1="24%" x2="74%" y2="87%" id="id-110390"><stop stop-color="#C0765D" offset="0%"></stop><stop stop-color="#7A3C2D" offset="100%"></stop></linearGradient><linearGradient x1="26%" y1="42%" x2="80%" y2="75%" id="id-110391"><stop stop-color="#BD7964" offset="0%"></stop><stop stop-color="#965340" offset="100%" stop-opacity="0"></stop></linearGradient><linearGradient x1="29%" y1="56%" x2="77%" y2="50%" id="id-110392"><stop stop-color="#CC876F" offset="0%"></stop><stop stop-color="#B97055" offset="100%" stop-opacity="0"></stop></linearGradient><linearGradient x1="74%" y1="24%" x2="34%" y2="74%" id="id-110393"><stop stop-color="#7E4434" offset="0%"></stop><stop stop-color="#A85A3B" offset="100%"></stop></linearGradient><linearGradient x1="66%" y1="100%" x2="40%" y2="0%" id="id-110394"><stop stop-color="#874837" offset="0%"></stop><stop stop-color="#B56F57" offset="46%"></stop><stop stop-color="#945437" offset="100%"></stop></linearGradient><linearGradient x1="52%" y1="13%" x2="59%" y2="75%" id="id-110395"><stop stop-color="#763628" offset="0%"></stop><stop stop-color="#813F2F" offset="100%"></stop></linearGradient><linearGradient x1="28%" y1="76%" x2="73%" y2="20%" id="id-110396"><stop stop-color="#934D3C" offset="0%"></stop><stop stop-color="#753528" offset="67%"></stop><stop stop-color="#934D3C" offset="100%"></stop></linearGradient><linearGradient x1="66%" y1="59%" x2="24%" y2="66%" id="id-110397"><stop stop-color="#612115" offset="0%"></stop><stop stop-color="#93533A" offset="100%"></stop></linearGradient><linearGradient x1="41%" y1="11%" x2="61%" y2="81%" id="id-110398"><stop stop-color="#A06350" offset="0%"></stop><stop stop-color="#713127" offset="100%"></stop></linearGradient><linearGradient x1="19%" y1="58%" x2="66%" y2="43%" id="id-110399"><stop stop-color="#AA6B53" offset="0%"></stop><stop stop-color="#93523B" offset="100%"></stop></linearGradient><linearGradient x1="73%" y1="50%" x2="30%" y2="53%" id="id-110400"><stop stop-color="#9B5F42" offset="0%"></stop><stop stop-color="#B67B61" offset="100%"></stop></linearGradient><linearGradient x1="31%" y1="0%" x2="50%" y2="100%" id="id-110401"><stop stop-color="#B27562" offset="0%"></stop><stop stop-color="#9B5C4B" offset="100%"></stop></linearGradient><linearGradient x1="29%" y1="43%" x2="65%" y2="100%" id="id-110402"><stop stop-color="#A86B54" offset="0%"></stop><stop stop-color="#814030" offset="100%"></stop></linearGradient><linearGradient x1="13%" y1="78%" x2="84%" y2="50%" id="id-110403"><stop stop-color="#7E3E2E" offset="0%"></stop><stop stop-color="#74372C" offset="100%"></stop></linearGradient><linearGradient x1="50%" y1="0%" x2="36%" y2="100%" id="id-110404"><stop stop-color="#AB6C57" offset="0%"></stop><stop stop-color="#A56750" offset="100%"></stop></linearGradient><linearGradient x1="50%" y1="28%" x2="64%" y2="55%" id="id-110405"><stop stop-color="#A3664E" offset="0%"></stop><stop stop-color="#98593D" offset="100%"></stop></linearGradient><linearGradient x1="40%" y1="55%" x2="62%" y2="71%" id="id-110406"><stop stop-color="#96573E" offset="0%"></stop><stop stop-color="#713528" offset="100%"></stop></linearGradient><linearGradient x1="9%" y1="37%" x2="88%" y2="55%" id="id-110407"><stop stop-color="#723829" offset="0%"></stop><stop stop-color="#612824" offset="100%"></stop></linearGradient><linearGradient x1="62%" y1="19%" x2="50%" y2="100%" id="id-110408"><stop stop-color="#914D34" offset="0%"></stop><stop stop-color="#5F2420" offset="100%"></stop></linearGradient><linearGradient x1="45%" y1="18%" x2="51%" y2="67%" id="id-110409"><stop stop-color="#B67760" offset="0%"></stop><stop stop-color="#A95C3F" offset="100%"></stop></linearGradient><linearGradient x1="50%" y1="0%" x2="50%" y2="100%" id="id-110410"><stop stop-color="#AC6D55" offset="0%"></stop><stop stop-color="#9F5136" offset="100%"></stop></linearGradient><linearGradient x1="45%" y1="50%" x2="58%" y2="50%" id="id-110411"><stop stop-color="#733829" offset="0%"></stop><stop stop-color="#8A4E3C" offset="100%"></stop></linearGradient><linearGradient x1="33%" y1="74%" x2="77%" y2="42%" id="id-110412"><stop stop-color="#985C46" offset="0%"></stop><stop stop-color="#834732" offset="100%"></stop></linearGradient><linearGradient x1="63%" y1="59%" x2="38%" y2="59%" id="id-110413"><stop stop-color="#7E4231" offset="0%"></stop><stop stop-color="#905239" offset="100%"></stop></linearGradient><linearGradient x1="50%" y1="0%" x2="50%" y2="100%" id="id-110414"><stop stop-color="#925F4E" offset="0%"></stop><stop stop-color="#6E2F26" offset="100%"></stop></linearGradient><linearGradient x1="47%" y1="47%" x2="53%" y2="50%" id="id-110415"><stop stop-color="#956855" offset="0%"></stop><stop stop-color="#7C3C32" offset="100%"></stop></linearGradient><linearGradient x1="50%" y1="0%" x2="50%" y2="100%" id="id-110416"><stop stop-color="#753229" offset="0%"></stop><stop stop-color="#833E34" offset="100%"></stop></linearGradient><linearGradient x1="50%" y1="0%" x2="50%" y2="100%" id="id-110417"><stop stop-color="#925644" offset="0%"></stop><stop stop-color="#865648" offset="100%"></stop></linearGradient><linearGradient x1="0%" y1="55%" x2="100%" y2="55%" id="id-110418"><stop stop-color="#804A40" offset="0%"></stop><stop stop-color="#692E2C" offset="100%"></stop></linearGradient><linearGradient x1="50%" y1="0%" x2="50%" y2="100%" id="id-110419"><stop stop-color="#916451" offset="0%"></stop><stop stop-color="#712E26" offset="100%"></stop></linearGradient><linearGradient x1="49%" y1="20%" x2="52%" y2="96%" id="id-110420"><stop stop-color="#773530" offset="0%"></stop><stop stop-color="#6F2C24" offset="100%"></stop></linearGradient><linearGradient x1="33%" y1="47%" x2="59%" y2="56%" id="id-110421"><stop stop-color="#5F2419" offset="0%"></stop><stop stop-color="#4F161A" offset="100%"></stop></linearGradient></defs><g transform=" translate(303,473)" id="id-110422"><polygon points="174 662 140 824 138 906 147 1082 171 1154 176 1211 174 1230 176 1284 287 1284 284 1265 308 1195 306 1124 345 952 343 912 354 879 363 881 371 877 384 904 391 970 434 1079 458 1202 475 1252 475 1284 596 1284 601 1225 592 1146 609 1103 613 997 596 842 545 671 540 640 529 606 532 569 510 498 522 403 540 360 540 348 563 464 576 498 586 574 637 704 646 760 646 778 626 822 625 853 632 879 630 901 633 920 637 931 648 931 658 920 656 877 660 867 670 874 673 899 677 903 667 923 645 934 643 945 666 939 665 948 643 960 640 982 658 971 674 969 691 945 701 933 705 926 707 923 714 892 719 871 704 832 697 786 704 768 693 725 693 521 653 425 630 282 626 203 613 175 568 156 548 141 530 139 479 114 422 73 416 42 415 1 285 0 284 73 279 83 242 114 196 137 171 139 156 156 108 175 92 228 92 287 68 431 30 516 24 602 28 725 17 764 22 782 1 874 18 932 49 968 60 970 83 982 83 965 79 960 58 949 56 941 79 948 79 936 66 929 54 923 45 906 51 875 62 866 66 877 63 922 75 927 86 925 93 899 90 877 96 856 96 824 75 778 77 738 108 637 140 562 143 495 160 458 181 358 200 403 203 461 212 504 189 564 191 608" fill="url(#id-110371)" id="id-110423"></polygon><polygon points="92 287 68 431 30 516 24 602 73 688 118 614 98 452 110 469 124 336 102 372 110 294 89 309 110 285" fill="url(#id-110372)" id="id-110423"></polygon><polygon points="384 906 391 972 434 1081 458 1204 475 1254 475 1287 596 1287 601 1226 592 1148 609 1105 613 999 603 904 585 908 585 846 535 683 457 705 382 878" fill="url(#id-110373)" id="id-110423"></polygon><polygon points="138 907 147 1083 172 1156 176 1212 174 1232 176 1286 176 1287 287 1287 284 1266 309 1197 306 1126 345 954 344 923 294 814 264 724 247 711" fill="url(#id-110374)" id="id-110423"></polygon><polygon points="545 673 540 641 529 608 532 571 510 500 522 405 540 361 540 350 563 465 576 500 602 540 660 491 688 529 653 427 630 283 626 205 613 177 568 157 548 142 531 141 479 116 422 75 416 44 415 3 360 3 360 715 463 724" fill="url(#id-110375)" id="id-110423"></polygon><polygon points="83 984 60 972 49 970 22 932 20 903 8 879 1 874 12 824 39 786 39 814 57 786 78 800 91 822 83 879 69 882 64 855 51 877 46 908 48 930 37 930 50 938 53 954 49 960 57 956 83 973" fill="#974E34" id="id-110428"></polygon><polygon points="66 855 69 882 64 855 51 877 46 908 43 870 58 825" fill="url(#id-110376)" id="id-110428"></polygon><polygon points="83 879 69 882 70 868" fill="#A16148" id="id-110428"></polygon><polygon points="482 376 513 349 558 291 522 368" fill="#714A47" id="id-110431"></polygon><polygon points="313 697 261 560 246 448 259 424 356 408 362 366 318 404 285 409 268 378 314 343 394 351 431 378 420 404 369 399 371 404 450 421 467 441 449 510 467 547 407 697 358 717" fill="url(#id-110377)" id="id-110432"></polygon><polygon points="410 90 430 82 423 76 417 45 417 7 287 9 287 48 283 76 278 86 245 114 195 139 366 139 391 70 410 26" fill="url(#id-110378)" id="id-110433"></polygon><polygon points="182 180 133 231 98 289 98 231 114 182 166 159" fill="url(#id-110379)" id="id-110434"></polygon><polygon points="347 107 384 55 410 31 414 23 300 31" fill="url(#id-110380)" id="id-110435"></polygon><polygon points="287 93 296 32 323 129" fill="url(#id-110381)" id="id-110436"></polygon><polygon points="336 139 314 151 271 146 224 139" fill="#C0775D" id="id-110437"></polygon><polygon points="410 84 410 136 462 129" fill="url(#id-110382)" id="id-110438"></polygon><polygon points="173 246 167 286 191 351 263 386 329 330 360 330 360 152 349 139 336 139 310 152" fill="url(#id-110383)" id="id-110439"></polygon><polygon points="464 159 516 190 500 159" fill="url(#id-110384)" id="id-110440"></polygon><polygon points="302 31 347 72 383 62 410 37 417 28 417 13" fill="url(#id-110385)" id="id-110441"></polygon><polygon points="264 151 191 202 220 151" fill="#814431" id="id-110442"></polygon><polygon points="154 206 170 170 123 188" fill="#CE826D" id="id-110443"></polygon><polygon points="359 285 345 299 323 318 305 354 359 345 354 305" fill="url(#id-110386)" id="id-110444"></polygon><polygon points="261 361 265 387 204 371 192 347" fill="#6B3127" id="id-110445"></polygon><polygon points="199 362 181 359 167 284" fill="#4B131A" id="id-110446"></polygon><polygon points="477 341 477 335 488 326 496 325 509 338 497 348 485 354" fill="#5D2221" id="id-110447"></polygon><polygon points="314 151 343 220 317 293 238 351 209 318 172 251 186 205 271 146" fill="url(#id-110387)" id="id-110448"></polygon><polygon points="314 151 330 238 209 318 172 251 186 205 271 146" fill="url(#id-110388)" id="id-110448"></polygon><polygon points="314 151 351 205 221 227 186 205 271 146" fill="url(#id-110389)" opacity="0.369" id="id-110448"></polygon><polygon points="212 335 223 322 242 327 244 332 236 353 214 349" fill="#642B26" id="id-110451"></polygon><polygon points="224 339 227 342 227 345 223 349 236 350 242 333 230 338 227 335" fill="#70434F" id="id-110452"></polygon><polygon points="489 343 491 347 486 351 479 338 490 327 495 327 494 336" fill="#6F373C" id="id-110453"></polygon><polygon points="486 339 489 343 494 337" fill="#92523E" id="id-110454"></polygon><polygon points="360 162 360 291 406 325 455 347 529 267 464 182 416 166" fill="url(#id-110390)" id="id-110455"></polygon><polygon points="360 178 360 281 391 302 391 249 489 270 462 189 416 166" fill="url(#id-110391)" id="id-110455"></polygon><polygon points="360 178 360 219 472 220 462 189 416 166 371 163" fill="url(#id-110392)" id="id-110455"></polygon><polygon points="358 178 373 168 440 156 414 137 378 158 412 80 396 60 358 146" fill="url(#id-110393)" id="id-110458"></polygon><polygon points="347 140 358 152 373 129 400 48 369 86 365 130" fill="#B66B53" id="id-110459"></polygon><polygon points="591 281 602 226 559 159 514 159 524 138 499 156 571 263" fill="url(#id-110394)" id="id-110460"></polygon><polygon points="609 298 626 332 630 285 627 227 614 207 617 251" fill="#695B75" id="id-110461"></polygon><polygon points="555 159 567 157 613 177 614 192 580 175 604 207 602 226" fill="#8A4E37" id="id-110462"></polygon><polygon points="641 823 649 826 697 896 714 873 682 781" fill="url(#id-110395)" id="id-110463"></polygon><polygon points="626 840 701 762 689 738 679 784 648 776 626 822" fill="url(#id-110396)" id="id-110463"></polygon><polygon points="649 862 649 845 661 825 661 870 655 878 658 922 652 929 638 929 632 914 632 893 632 877 645 888" fill="#602222" id="id-110465"></polygon><polygon points="554 375 578 333 608 451 594 508 569 462" fill="#994B3B" id="id-110466"></polygon><polygon points="623 326 643 425 633 431 693 523 653 427 637 326 626 315" fill="#583847" id="id-110467"></polygon><polygon points="628 274 639 339 623 314" fill="#561B1F" id="id-110468"></polygon><polygon points="693 523 695 567 685 525 618 416 633 431" fill="#4B1114" id="id-110469"></polygon><polygon points="641 463 599 539 602 571 635 655 646 703 650 754 658 640 661 491" fill="#914F3A" id="id-110470"></polygon><polygon points="610 531 648 646 652 546 638 479" fill="#A8614D" id="id-110470"></polygon><polygon points="693 748 677 730 677 700 660 491 685 525 692 552 684 727" fill="#74332A" id="id-110472"></polygon><polygon points="692 746 704 768 693 727 695 567 692 551 684 727" fill="#5C3C47" id="id-110473"></polygon><polygon points="260 559 310 683 356 716 264 713 238 685 196 582" fill="url(#id-110397)" id="id-110474"></polygon><polygon points="638 931 637 919 639 914 654 914 654 922 652 929 648 931 644 933" fill="#7C4139" id="id-110475"></polygon><polygon points="638 861 638 882 642 890 654 886 649 861" fill="#79372B" id="id-110476"></polygon><polygon points="691 871 694 912 689 936 669 956 672 965 696 924 696 909 705 877" fill="#934D3C" id="id-110477"></polygon><polygon points="704 768 685 788 694 837 712 873 703 908 701 933 707 925 719 873 704 834 697 788" fill="#591F1C" id="id-110478"></polygon><polygon points="667 939 643 946 645 934 658 928 667 922 677 903 673 899 670 874 661 870 661 854 671 867 681 873 681 902 677 920" fill="#431105" id="id-110479"></polygon><polygon points="362 510 360 634 426 561 421 535" fill="url(#id-110398)" opacity="0.626" id="id-110480"></polygon><polygon points="320 403 289 399 268 380 314 343 361 348 362 372" fill="url(#id-110399)" id="id-110481"></polygon><polygon points="172 141 169 151 181 151 205 139 196 138" fill="url(#id-110400)" id="id-110482"></polygon><polygon points="359 308 362 360 383 334" fill="#BB7863" opacity="0.625" id="id-110483"></polygon><polygon points="361 546 361 584 388 551 374 540" fill="url(#id-110401)" opacity="0.626" id="id-110484"></polygon><polygon points="347 542 361 547 374 540 361 534" fill="#581C1C" id="id-110485"></polygon><polygon points="325 545 278 503 259 561 308 579" fill="url(#id-110402)" opacity="0.758" id="id-110486"></polygon><polygon points="389 499 460 467 450 510 404 520" fill="url(#id-110403)" id="id-110487"></polygon><polygon points="364 491 361 403 420 428" fill="url(#id-110404)" opacity="0.758" id="id-110488"></polygon><polygon points="263 446 333 446 323 469 279 492" fill="url(#id-110405)" opacity="0.758" id="id-110489"></polygon><polygon points="260 425 280 496 260 561 237 528 213 443 227 425 244 447" fill="url(#id-110406)" id="id-110490"></polygon><polygon points="412 343 445 374 466 383 500 351 448 354 416 339" fill="url(#id-110407)" id="id-110491"></polygon><polygon points="165 252 164 278 128 284" fill="#642A24" id="id-110492"></polygon><polygon points="58 478 89 441 89 416 69 430 66 456" fill="url(#id-110408)" id="id-110493"></polygon><polygon points="77 684 70 634 62 517 89 474 112 569" fill="url(#id-110409)" id="id-110494"></polygon><polygon points="54 489 48 539 70 635 77 684 54 760 41 781 17 766 28 727 24 604 29 544" fill="url(#id-110410)" id="id-110495"></polygon><polygon points="136 452 128 497 154 460 178 340 170 300" fill="#793B28" id="id-110496"></polygon><polygon points="181 359 160 460 143 497 142 514 124 532 109 514 108 490 128 497 154 460 178 340" fill="#5F2420" id="id-110496"></polygon><polygon points="39 747 28 772 39 788 44 772" fill="#AE7058" id="id-110498"></polygon><polygon points="360 379 343 413 362 444 378 417" fill="url(#id-110411)" id="id-110499"></polygon><polygon points="196 581 260 561 230 519" fill="url(#id-110412)" id="id-110500"></polygon><polygon points="75 929 67 925 69 909 78 905 86 912 84 928" fill="url(#id-110413)" id="id-110501"></polygon><polygon points="20 903 7 880 21 851 28 871" fill="#A16148" id="id-110502"></polygon><polygon points="219 1123 204 1040 192 913 171 1090 183 1169 230 1208 262 1237 271 1213 235 1175 213 1157 273 1191 282 1169" fill="url(#id-110414)" opacity="0.808" id="id-110503"></polygon><polygon points="183 1207 182 1155 214 1106 237 1166 231 1210" fill="#7D3B2D" id="id-110504"></polygon><polygon points="187 902 212 1137 227 1161 275 1187 300 1137 273 1009 300 918 270 791 212 836" fill="url(#id-110415)" id="id-110505"></polygon><polygon points="288 1079 311 1040 312 942 295 903 265 1019 276 1188 302 1137" fill="url(#id-110416)" id="id-110506"></polygon><polygon points="585 908 604 1008 608 1106 614 998 599 887" fill="#604050" id="id-110507"></polygon><polygon points="431 886 489 1140 536 1115 561 925 566 886 537 816 501 786" fill="url(#id-110417)" opacity="0.792" id="id-110508"></polygon><polygon points="582 921 588 1011 585 1112 576 1162 545 1046 566 886" fill="url(#id-110418)" id="id-110509"></polygon><polygon points="562 1247 519 1200 472 1112 495 931 506 931 595 1188 579 1244" fill="url(#id-110419)" id="id-110510"></polygon><polygon points="532 1221 540 1263 537 1269 516 1287 510 1287 500 1263 513 1199 488 1226 462 1170 472 1101 428 1010 399 877 469 771 519 739 537 818 501 787 433 890 477 1078 534 1212" fill="url(#id-110420)" id="id-110511"></polygon><polygon points="322 1058 284 852 258 721 267 733 371 879 363 883 354 881 343 914 345 954" fill="#6B2D24" id="id-110512"></polygon><polygon points="430 1068 425 875 536 705 454 704 380 865 384 906 392 972" fill="#571D1C" opacity="0.394" id="id-110513"></polygon><polygon points="175 1262 194 1287 207 1287 225 1226 214 1249 175 1221 174 1232" fill="#743428" id="id-110514"></polygon><polygon points="529 1227 554 1234 569 1169 549 1168" fill="#824C40" id="id-110515"></polygon><polygon points="547 678 545 672 540 641 529 608 532 571 510 500 522 405 540 361 540 350 548 389 543 330 558 289 517 369 529 369 517 411 500 442 510 465 488 531 508 525 522 585 450 724" fill="#520D17" id="id-110423"></polygon><polygon points="403 722 491 609 523 585 450 723" fill="#5F211F" id="id-110517"></polygon><polygon points="174 664 140 826 138 907 139 937 238 690 352 886 354 881 363 883 371 879 384 906 472 773 549 712 597 844 545 673 540 641 478 697 450 723 279 705 232 657 189 566 191 610" fill="url(#id-110421)" id="id-110423"></polygon><polygon points="189 616 211 620 191 586 191 609" fill="#40120E" id="id-110519"></polygon><polygon points="139 836 226 709 167 697 139 826" fill="#4F1C18" id="id-110520"></polygon><polygon points="519 734 596 843 547 678" fill="#420F15" id="id-110521"></polygon><polygon points="416 778 448 726 315 744 330 762" fill="#6B2C26" opacity="0.520" id="id-110423"></polygon><polygon points="412 685 464 666 457 573" fill="#4F161A" id="id-110523"></polygon></g><defs><linearGradient x1="53%" y1="5%" x2="47%" y2="91%" id="id-111127"><stop stop-color="#8F4340" offset="0%"></stop><stop stop-color="#702A2C" offset="82%"></stop><stop stop-color="#974B47" offset="100%"></stop></linearGradient><linearGradient x1="62%" y1="61%" x2="50%" y2="36%" id="id-111128"><stop stop-color="#822F31" offset="0%"></stop><stop stop-color="#3C1B25" offset="100%"></stop></linearGradient><linearGradient x1="50%" y1="13%" x2="57%" y2="81%" id="id-111129"><stop stop-color="#773435" offset="0%"></stop><stop stop-color="#944945" offset="52%"></stop><stop stop-color="#A57660" offset="100%"></stop></linearGradient><linearGradient x1="50%" y1="0%" x2="54%" y2="88%" id="id-111130"><stop stop-color="#9F7D60" offset="0%"></stop><stop stop-color="#8F4539" offset="100%"></stop></linearGradient><linearGradient x1="36%" y1="75%" x2="36%" y2="18%" id="id-111131"><stop stop-color="#8B2E30" offset="0%"></stop><stop stop-color="#662221" offset="100%"></stop></linearGradient><linearGradient x1="30%" y1="63%" x2="66%" y2="53%" id="id-111132"><stop stop-color="#995C43" offset="0%"></stop><stop stop-color="#A2705A" offset="11%"></stop><stop stop-color="#AC8266" offset="35%"></stop><stop stop-color="#955D4B" offset="72%"></stop><stop stop-color="#844137" offset="100%"></stop></linearGradient><linearGradient x1="12%" y1="55%" x2="89%" y2="49%" id="id-111133"><stop stop-color="#BAA188" offset="0%"></stop><stop stop-color="#B5A382" offset="69%"></stop><stop stop-color="#8A4C3B" offset="100%"></stop></linearGradient><linearGradient x1="77%" y1="45%" x2="9%" y2="48%" id="id-111134"><stop stop-color="#B6A383" offset="0%"></stop><stop stop-color="#A3775D" offset="100%"></stop></linearGradient><linearGradient x1="4%" y1="59%" x2="84%" y2="52%" id="id-111135"><stop stop-color="#925340" offset="0%"></stop><stop stop-color="#A98468" offset="40%"></stop><stop stop-color="#9D6E56" offset="75%"></stop><stop stop-color="#7E352A" offset="100%"></stop></linearGradient><linearGradient x1="0%" y1="62%" x2="75%" y2="50%" id="id-111136"><stop stop-color="#A07158" offset="0%"></stop><stop stop-color="#C8B5A3" offset="100%"></stop></linearGradient><linearGradient x1="91%" y1="50%" x2="43%" y2="50%" id="id-111137"><stop stop-color="#915B47" offset="0%"></stop><stop stop-color="#C1AE9D" offset="100%"></stop></linearGradient><linearGradient x1="73%" y1="44%" x2="36%" y2="73%" id="id-111138"><stop stop-color="#8B493B" offset="0%"></stop><stop stop-color="#905C4E" offset="100%" stop-opacity="0.589"></stop></linearGradient><linearGradient x1="22%" y1="31%" x2="35%" y2="66%" id="id-111139"><stop stop-color="#A96D54" offset="0%"></stop><stop stop-color="#945949" offset="100%"></stop></linearGradient><linearGradient x1="13%" y1="-5%" x2="103%" y2="59%" id="id-111140"><stop stop-color="#AC887C" offset="0%"></stop><stop stop-color="#985D44" offset="31%"></stop><stop stop-color="#7D3328" offset="79%"></stop><stop stop-color="#712D2C" offset="100%"></stop></linearGradient><linearGradient x1="47%" y1="96%" x2="25%" y2="14%" id="id-111141"><stop stop-color="#A56B59" offset="0%" stop-opacity="0.302"></stop><stop stop-color="#874339" offset="100%"></stop></linearGradient><linearGradient x1="24%" y1="56%" x2="50%" y2="45%" id="id-111142"><stop stop-color="#976043" offset="0%"></stop><stop stop-color="#AA7758" offset="59%"></stop><stop stop-color="#8F523B" offset="100%"></stop></linearGradient><linearGradient x1="87%" y1="65%" x2="23%" y2="32%" id="id-111143"><stop stop-color="#9E6E50" offset="0%"></stop><stop stop-color="#B89475" offset="100%"></stop></linearGradient><linearGradient x1="13%" y1="29%" x2="91%" y2="29%" id="id-111144"><stop stop-color="#80372B" offset="0%"></stop><stop stop-color="#833E2E" offset="38%"></stop><stop stop-color="#8E4939" offset="51%"></stop><stop stop-color="#894036" offset="70%"></stop><stop stop-color="#8D413B" offset="100%"></stop></linearGradient><linearGradient x1="9%" y1="45%" x2="41%" y2="63%" id="id-111145"><stop stop-color="#8E4836" offset="0%"></stop><stop stop-color="#772E23" offset="100%"></stop></linearGradient><linearGradient x1="50%" y1="19%" x2="50%" y2="70%" id="id-111146"><stop stop-color="#975B45" offset="0%"></stop><stop stop-color="#AA836D" offset="100%"></stop></linearGradient><linearGradient x1="9%" y1="54%" x2="38%" y2="50%" id="id-111147"><stop stop-color="#5E3931" offset="0%"></stop><stop stop-color="#2F1B1D" offset="100%"></stop></linearGradient><linearGradient x1="97%" y1="55%" x2="73%" y2="44%" id="id-111148"><stop stop-color="#6F3F30" offset="0%"></stop><stop stop-color="#2E1A1C" offset="100%"></stop></linearGradient><linearGradient x1="40%" y1="21%" x2="72%" y2="94%" id="id-111149"><stop stop-color="#A67A62" offset="0%"></stop><stop stop-color="#AF8E6F" offset="50%"></stop><stop stop-color="#AF7C69" offset="100%"></stop></linearGradient><linearGradient x1="7%" y1="41%" x2="71%" y2="63%" id="id-111150"><stop stop-color="#A77E68" offset="0%"></stop><stop stop-color="#BFB0A1" offset="100%"></stop></linearGradient><linearGradient x1="87%" y1="51%" x2="37%" y2="52%" id="id-111151"><stop stop-color="#935943" offset="0%"></stop><stop stop-color="#AE7F68" offset="100%"></stop></linearGradient><linearGradient x1="50%" y1="0%" x2="50%" y2="100%" id="id-111152"><stop stop-color="#B18B6B" offset="0%"></stop><stop stop-color="#B35746" offset="100%"></stop></linearGradient><linearGradient x1="71%" y1="47%" x2="15%" y2="54%" id="id-111153"><stop stop-color="#9E6E5A" offset="0%"></stop><stop stop-color="#C6B4A8" offset="100%"></stop></linearGradient><linearGradient x1="66%" y1="11%" x2="44%" y2="95%" id="id-111154"><stop stop-color="#AD6F5D" offset="0%" stop-opacity="0.528"></stop><stop stop-color="#AA5F4F" offset="49%"></stop><stop stop-color="#AA604E" offset="100%" stop-opacity="0"></stop></linearGradient><linearGradient x1="-5%" y1="53%" x2="86%" y2="50%" id="id-111155"><stop stop-color="#6D352D" offset="0%"></stop><stop stop-color="#341D27" offset="47%"></stop><stop stop-color="#692522" offset="100%"></stop></linearGradient><linearGradient x1="10%" y1="52%" x2="66%" y2="50%" id="id-111156"><stop stop-color="#A47A65" offset="0%"></stop><stop stop-color="#884237" offset="100%"></stop></linearGradient><linearGradient x1="50%" y1="-36%" x2="50%" y2="100%" id="id-111157"><stop stop-color="#8F293E" offset="0%"></stop><stop stop-color="#56121D" offset="100%"></stop></linearGradient><linearGradient x1="23%" y1="39%" x2="61%" y2="66%" id="id-111158"><stop stop-color="#C1A490" offset="0%"></stop><stop stop-color="#BD9D86" offset="100%" stop-opacity="0"></stop></linearGradient><linearGradient x1="50%" y1="0%" x2="50%" y2="100%" id="id-111159"><stop stop-color="#A93F54" offset="0%"></stop><stop stop-color="#852E3C" offset="100%"></stop></linearGradient><linearGradient x1="23%" y1="50%" x2="76%" y2="52%" id="id-111160"><stop stop-color="#AE507E" offset="0%" stop-opacity="0"></stop><stop stop-color="#D7709A" offset="100%"></stop></linearGradient><linearGradient x1="58%" y1="36%" x2="35%" y2="100%" id="id-111161"><stop stop-color="#B18F79" offset="0%"></stop><stop stop-color="#B18D76" offset="100%" stop-opacity="0"></stop></linearGradient><linearGradient x1="96%" y1="25%" x2="45%" y2="90%" id="id-111162"><stop stop-color="#361B27" offset="0%"></stop><stop stop-color="#411720" offset="100%"></stop></linearGradient><linearGradient x1="40%" y1="34%" x2="57%" y2="75%" id="id-111163"><stop stop-color="#853B31" offset="0%"></stop><stop stop-color="#722B2C" offset="100%"></stop></linearGradient><linearGradient x1="66%" y1="30%" x2="24%" y2="92%" id="id-111164"><stop stop-color="#401923" offset="0%"></stop><stop stop-color="#7E3530" offset="100%" stop-opacity="0"></stop></linearGradient><linearGradient x1="53%" y1="73%" x2="54%" y2="75%" id="id-111165"><stop stop-color="#5E231E" offset="0%" stop-opacity="0.476"></stop><stop stop-color="#471A24" offset="100%"></stop></linearGradient><linearGradient x1="36%" y1="31%" x2="47%" y2="50%" id="id-111166"><stop stop-color="#C0A895" offset="0%"></stop><stop stop-color="#945D46" offset="100%"></stop></linearGradient><linearGradient x1="52%" y1="46%" x2="46%" y2="43%" id="id-111167"><stop stop-color="#995C43" offset="0%"></stop><stop stop-color="#844137" offset="100%"></stop></linearGradient></defs><g transform=" translate(548,259)" id="id-111168"><g transform=" translate(0,121)" id="id-111169"><polygon points="199 13 214 3 222 9 221 25 214 38 214 43 210 54 208 65 197 70 190 64" fill="url(#id-111127)" id="id-111170"></polygon><polygon points="197 24 209 14 216 9 219 10 220 22 214 37 195 43" fill="url(#id-111128)" id="id-111171"></polygon><polygon points="203 38 208 34 199 25 203 22 209 23 207 18 212 16 214 38 214 43 213 48 207 51 201 46" fill="url(#id-111129)" id="id-111170"></polygon><polygon points="212 5 214 3 222 9 222 10 219 10 216 9" fill="#D49BA0" id="id-111170"></polygon><polygon points="208 65 197 70 190 64 194 42 199 50 193 62 199 67" fill="#602D31" id="id-111170"></polygon><polygon points="203 62 202 54 211 50" fill="#722C2D" id="id-111175"></polygon><polygon points="196 50 202 51 203 42 196 46" fill="#874B46" id="id-111176"></polygon><polygon points="194 45 199 47 202 45 202 32 197 31" fill="#361B27" id="id-111177"></polygon><path d=" M 30,70 C 24,70 20,69 19,68 C 17,66 12,52 8,46 C 4,39 2,38 1,33 C 0,30 0,21 1,6 L 8,0 L 23,9 L 30,70 Z" fill="url(#id-111130)" id="id-111178"></path><polygon points="8 6 2 6 7 3 10 2 23 9 19 14" fill="#B99D8C" id="id-111178"></polygon><path d=" M 26,68 C 23,69 20,69 19,68 C 17,66 12,52 8,46 C 7,44 6,43 6,42 C 9,45 10,47 12,48 C 13,50 14,52 16,56 L 26,68 Z" fill="#AB7260" id="id-111178"></path><polygon points="26 68 29 65 27 53 20 61" fill="#C67B6D" id="id-111178"></polygon><path d=" M 23,19 C 12,12 6,9 5,9 C 3,10 2,18 2,33 L 17,53 L 26,52 L 23,19 Z" fill="url(#id-111131)" id="id-111182"></path><polygon points="12 17 19 19 18 26 15 28 22 38 21 49 12 44" fill="#8E4F46" id="id-111183"></polygon><path d=" M 27,53 C 16,50 10,47 8,42 C 6,38 8,30 12,17 L 15,23 C 15,36 14,42 15,43 C 15,45 18,46 25,48 L 27,53 Z" fill="#A6866B" id="id-111184"></path><polygon points="11 31 19 26 19 18 14 20 12 18" fill="#BCA28F" id="id-111185"></polygon><polygon points="20 46 17 42 22 37 25 48" fill="#B27668" id="id-111186"></polygon></g><g transform=" translate(18,0)" id="id-111187"><path d=" M 20,231 C 18,227 11,201 5,153 C 3,140 2,128 1,117 C -1,91 4,63 8,49 C 9,46 16,35 16,34 C 30,20 56,0 94,0 C 157,0 178,45 181,51 C 183,57 183,111 181,144 C 178,177 162,232 160,235 C 158,239 124,261 119,264 C 113,266 74,267 69,264 C 64,261 22,235 20,231 Z" fill="url(#id-111132)" id="id-111188"></path><polygon points="42 97 56 74 52 61 155 41 139 103 93 103" fill="url(#id-111133)" id="id-111189"></polygon><polygon points="96 68 135 48 39 38 42 54" fill="url(#id-111134)" id="id-111190"></polygon><path d=" M 27,130 L 4,145 C 3,135 2,126 1,117 C -1,91 4,63 8,49 C 9,46 16,35 16,34 C 30,20 56,0 94,0 C 157,0 178,45 181,51 L 147,47 L 86,54 L 44,42 L 57,74 L 27,98 L 27,130 Z" fill="url(#id-111135)" id="id-111188"></path><polygon points="42 81 80 64 52 52 42 54" fill="url(#id-111136)" id="id-111192"></polygon><polygon points="45 68 60 57 52 52 45 54" fill="#CEC5B3" opacity="0.553" id="id-111193"></polygon><polygon points="90 96 73 84 69 76 91 79 113 76 93 88" fill="#AD8F72" id="id-111194"></polygon><polygon points="137 97 137 86 108 81 98 91 102 103" fill="url(#id-111137)" id="id-111195"></polygon><polygon points="99 91 101 94 111 91 111 84" fill="#D3CBB9" opacity="0.560" id="id-111196"></polygon><polygon points="60 213 39 221 45 248 56 248 84 233 80 206" fill="url(#id-111138)" id="id-111197"></polygon><path d=" M 20,231 C 18,227 12,203 6,158 C 22,179 32,191 34,197 C 36,202 40,220 47,250 C 35,242 21,233 20,231 Z" fill="#804033" id="id-111188"></path><path d=" M 11,192 C 9,183 7,171 6,158 C 26,171 38,180 40,188 C 42,191 42,202 40,221 L 11,192 Z" fill="#6D3322" opacity="0.470" id="id-111188"></path><polygon points="132 203 121 178 107 160 107 139 115 134 168 130 179 136" fill="url(#id-111139)" id="id-111200"></polygon><path d=" M 160,158 C 165,146 167,139 164,138 C 153,133 136,132 136,127 C 135,126 137,111 140,83 L 129,85 L 143,73 C 144,62 144,56 143,55 C 141,53 143,36 130,31 C 126,30 112,32 88,38 L 51,31 L 35,38 C 22,36 16,35 16,34 C 30,20 56,0 94,0 C 157,0 178,45 181,51 C 183,57 183,111 181,144 L 160,158 Z" fill="url(#id-111140)" id="id-111188"></path><polygon points="93 230 129 249 146 243 153 201 125 219 113 221" fill="#662826" id="id-111202"></polygon><polygon points="120 175 124 185 115 193 133 206 135 223 104 221 103 198 95 176" fill="url(#id-111141)" id="id-111203"></polygon><polygon points="117 131 107 134 112 117 140 96 157 104 144 127" fill="#944B36" id="id-111204"></polygon><polygon points="65 125 74 128 77 122 60 101 35 99 20 129" fill="url(#id-111142)" id="id-111205"></polygon><polygon points="44 112 41 108 49 105 59 112 61 115 66 120 66 125" fill="url(#id-111143)" id="id-111206"></polygon><polygon points="44 135 30 136 15 132 23 105 35 93 73 94 92 101 115 98 157 102 159 108 151 121 157 123 153 129 143 126 153 105 147 96 108 119 108 139 111 159 120 175 118 179 86 167 76 123 69 121 54 98 37 105 26 123 23 127" fill="url(#id-111144)" id="id-111207"></polygon><polygon points="100 118 108 126 137 102 113 98" fill="url(#id-111145)" id="id-111208"></polygon><polygon points="125 120 128 110 137 104 144 103 137 110 139 118 144 122 144 125 122 125" fill="url(#id-111146)" id="id-111209"></polygon><polygon points="99 109 105 101 103 110" fill="#5E3931" id="id-111210"></polygon><polygon points="105 109 108 97 117 96 132 96 126 94 146 93 152 98 149 93 151 92 162 106 161 112 149 103 108 110 112 100" fill="url(#id-111147)" id="id-111211"></polygon><polygon points="163 108 163 116 166 120 166 113" fill="#2F1B1D" id="id-111212"></polygon><path d=" M 19,119 C 20,112 22,106 24,103 C 26,99 30,96 34,93 L 29,94 L 31,92 L 45,91 L 75,96 L 77,107 L 79,100 L 77,111 L 73,105 L 73,109 L 69,104 L 71,109 C 50,104 39,101 38,101 C 37,101 32,104 25,110 L 26,104 L 19,119 Z" fill="url(#id-111148)" id="id-111213"></path><path d=" M 116,127 L 156,130 L 167,133 L 163,138 L 156,135 C 149,139 143,141 137,141 C 132,141 124,140 115,137 L 108,140 L 108,134 L 111,130 L 116,127 Z" fill="#753529" id="id-111214"></path><polygon points="137 136 147 137 162 128 147 130" transform=" translate(150,133) rotate(-2) translate(-150,-133)" fill="#431D1F" id="id-111215"></polygon><polygon points="125 121 133 114 137 118" transform=" translate(131,118) rotate(-2) translate(-131,-118)" fill="#D0C0BB" id="id-111216"></polygon><path d=" M 125,135 L 112,131 L 116,127 C 123,121 130,118 137,118 C 144,118 150,120 156,125 C 148,121 142,119 135,119 C 129,120 124,123 119,128 L 122,132 L 125,135 Z" transform=" translate(134,126) rotate(-2) translate(-134,-126)" fill="#55241F" id="id-111217"></path><path d=" M 112,131 C 112,131 116,132 123,134 L 114,130 C 120,129 133,126 142,130 C 149,133 157,132 164,129 C 159,128 156,128 153,127 C 146,125 142,122 132,123 C 121,123 119,127 112,131 Z" transform=" translate(138,128) rotate(-2) translate(-138,-128)" fill="#220F0F" id="id-111218"></path><path d=" M 118,129 L 121,133 C 127,136 132,137 137,136 C 141,136 146,135 152,132 C 144,129 138,127 134,127 C 130,126 125,127 118,129 Z" transform=" translate(135,132) rotate(-2) translate(-135,-132)" fill="#E0CBBB" id="id-111219"></path><path d=" M 124,127 C 126,133 129,136 133,137 C 137,137 141,134 143,128 C 140,127 138,127 135,127 C 133,126 129,127 124,127 Z" transform=" translate(134,132) rotate(-2) translate(-134,-132)" fill="#321B1D" id="id-111220"></path><path d=" M 130,128 C 131,130 132,131 133,131 C 134,131 136,130 138,128 C 136,127 135,127 134,127 C 133,127 131,127 130,128 Z" transform=" translate(134,129) rotate(-2) translate(-134,-129)" fill="#220E0F" id="id-111221"></path><path d=" M 139,130 L 140,132 C 138,135 136,136 134,136 C 131,136 129,135 126,132 L 132,131 L 134,134 L 135,132 L 139,130 Z" transform=" translate(133,133) rotate(-2) translate(-133,-133)" fill="#3F405E" id="id-111222"></path><path d=" M 117,129 L 119,131 C 123,130 127,129 132,129 C 134,129 138,131 146,134 C 147,134 149,133 152,131 C 144,129 138,127 134,127 C 130,126 124,127 117,129 Z" transform=" translate(135,130) rotate(-2) translate(-135,-130)" fill="#1A0A04" fill-opacity="0.556" id="id-111219"></path><polygon points="127 131 128 129 131 128 132 130" transform=" translate(130,130) rotate(-2) translate(-130,-130)" fill="#D0BCAE" id="id-111224"></polygon><polygon points="66 221 111 223 125 219 126 212 102 197 95 177 99 123 86 122 80 129 64 179 58 199 62 214" fill="url(#id-111149)" id="id-111225"></polygon><polygon points="78 151 81 128 76 132 74 130 64 126 37 130 19 159 24 163" fill="url(#id-111150)" id="id-111226"></polygon><polygon points="30 136 48 140 71 133 73 131 52 125 34 130" fill="#874A3A" id="id-111227"></polygon><path d=" M 21,127 L 29,122 C 37,117 44,115 49,116 C 55,117 60,120 65,125 L 21,127 Z" fill="url(#id-111151)" id="id-111228"></path><polygon points="39 117 44 110 52 116" fill="#D0C0BB" id="id-111229"></polygon><polygon points="33 127 40 118 47 116 49 123" fill="#B89F8C" id="id-111230"></polygon><path d=" M 32,130 C 35,134 40,136 48,136 C 56,136 62,134 67,129 C 61,127 56,126 51,126 C 47,126 40,127 32,130 Z" fill="#E5D2C5" id="id-111231"></path><path d=" M 40,128 C 41,133 44,136 49,136 C 54,136 57,133 59,127 C 55,125 52,125 49,125 C 46,125 43,126 40,128 Z" fill="#392524" id="id-111232"></path><path d=" M 32,130 C 33,131 34,132 35,132 C 43,131 48,130 50,130 C 51,130 53,131 54,131 C 56,131 57,129 59,129 C 60,130 61,130 63,132 C 64,131 65,130 67,129 C 61,127 56,126 51,126 C 47,126 40,127 32,130 Z" fill="#1F0606" fill-opacity="0.510" id="id-111231"></path><path d=" M 49,117 C 42,117 35,119 28,123 C 36,117 44,114 52,116 C 59,118 65,122 71,131 C 67,128 65,126 64,126 C 59,121 55,118 49,117 Z" fill="#663123" id="id-111234"></path><path d=" M 36,134 L 20,127 C 24,126 27,126 30,125 C 35,124 43,121 49,121 C 59,121 70,131 73,131 C 71,132 69,133 67,133 C 65,133 61,134 57,134 L 66,130 C 64,128 60,127 54,127 C 47,127 40,128 33,130 L 36,134 Z" fill="#220F0D" id="id-111235"></path><path d=" M 42,132 L 45,128 C 47,130 49,131 50,131 C 51,131 53,130 55,128 L 56,130 C 54,133 52,135 49,135 C 46,135 43,134 42,132 Z" fill="#434564" id="id-111236"></path><path d=" M 44,126 C 46,129 47,130 49,130 C 51,130 53,128 56,126 C 53,125 51,125 49,125 C 48,125 46,125 44,126 Z" fill="#220F0F" id="id-111237"></path><polygon points="43 129 45 130 47 129 46 128" fill="#B3A2A0" id="id-111238"></polygon><polygon points="83 161 100 165 103 158 99 150 97 124 86 125 86 155" fill="url(#id-111152)" id="id-111239"></polygon><polygon points="93 191 98 185 100 191 97 194" fill="#BAA193" id="id-111240"></polygon><polygon points="64 132 66 130 69 131" fill="#72473C" id="id-111241"></polygon><polygon points="84 193 92 197 98 193 92 190 91 184 88 184" fill="#985C49" id="id-111242"></polygon><polygon points="19 159 15 148 70 133 52 148" fill="url(#id-111153)" id="id-111243"></polygon><polygon points="67 179 75 186 83 182 88 184 92 184 100 181 114 185 119 178 90 167" fill="#490B11" id="id-111244"></polygon><polygon points="74 171 89 162 81 160" fill="#BFB3A1" id="id-111245"></polygon><path d=" M 68,174 L 78,154 L 85,146 C 85,153 83,158 80,163 C 78,168 73,172 68,174 Z" fill="url(#id-111154)" id="id-111246"></path><polygon points="88 162 101 164 91 167 83 165" fill="#BA9B78" id="id-111247"></polygon><polygon points="99 166 103 158 99 150 113 167 108 172" fill="#914F3B" id="id-111248"></polygon><polygon points="117 175 108 172 113 167" fill="#9E654D" id="id-111249"></polygon><polygon points="84 127 86 131 99 123 86 122" fill="#C4AC85" id="id-111250"></polygon><path d=" M 79,181 L 75,183 L 67,179 L 66,177 L 84,165 L 91,167 L 99,165 L 117,175 L 119,178 L 112,182 L 107,182 C 108,180 108,178 105,177 C 103,176 100,177 96,181 L 89,181 C 86,178 84,176 82,176 C 81,176 76,177 75,179 C 75,179 76,180 79,181 Z" fill="#7A332D" id="id-111251"></path><path d=" M 98,179 C 97,180 96,180 96,181 L 89,181 C 88,180 87,179 87,179 L 90,180 L 98,179 Z" fill="#8B5056" id="id-111251"></path><polygon points="117 175 119 178 112 182 107 182 108 179" fill="#884D4F" id="id-111253"></polygon><path d=" M 67,179 L 66,177 L 84,165 L 89,167 L 84,176 C 80,176 77,175 75,176 C 72,176 70,177 67,179 Z" fill="#965646" id="id-111251"></path><polygon points="90 178 98 178 101 176 107 170 105 169" fill="#6D2923" id="id-111255"></polygon><polygon points="110 223 107 228 111 239 75 236 66 221 115 218" fill="url(#id-111155)" id="id-111256"></polygon><polygon points="66 221 88 233 107 224 77 223" fill="#341D27" id="id-111257"></polygon><path d=" M 52,251 L 74,236 L 90,231 L 110,237 L 132,249 C 117,258 103,263 90,263 C 76,263 64,259 52,251 Z" fill="url(#id-111156)" id="id-111258"></path><polygon points="87 253 71 244 74 241 69 239 74 236 90 231 93 232 88 239" fill="#B69F8E" opacity="0.481" id="id-111258"></polygon><polygon points="59 213 64 205 96 201 120 205 126 211 121 215 63 215" fill="#410409" id="id-111260"></polygon><path d=" M 64,205 C 73,199 79,196 81,196 C 83,195 87,196 93,199 L 102,195 C 106,196 109,198 112,199 C 114,200 117,202 120,205 L 111,208 L 96,205 L 76,208 L 68,208 L 64,205 Z" fill="url(#id-111157)" id="id-111261"></path><polygon points="149 148 115 136 108 140 133 164" fill="url(#id-111158)" id="id-111262"></polygon><path d=" M 72,200 C 77,197 80,196 81,196 C 83,195 87,196 93,199 L 90,205 L 76,208 L 72,200 Z" fill="#78152E" id="id-111261"></path><path d=" M 98,197 L 102,195 C 106,196 109,198 112,199 C 114,200 115,201 117,202 L 112,205 L 102,203 L 98,197 Z" fill="#7C1831" id="id-111261"></path><path d=" M 62,215 C 71,212 77,211 81,210 C 84,210 89,211 91,211 C 93,211 98,210 100,210 C 104,210 112,212 122,215 C 113,223 103,227 91,226 C 79,226 70,222 62,215 Z" fill="url(#id-111159)" id="id-111265"></path><path d=" M 112,213 C 104,216 100,218 98,219 C 96,219 94,220 93,222 L 92,214 C 93,216 94,217 97,216 C 99,216 105,215 112,213 Z" fill="#D7709A" opacity="0.667" id="id-111266"></path><path d=" M 91,216 L 91,222 C 84,219 78,217 74,216 C 70,216 66,215 64,215 C 70,213 74,213 77,214 C 80,216 85,217 91,216 Z" fill="url(#id-111160)" id="id-111267"></path><polygon points="104 129 106 136 111 129 111 124" fill="url(#id-111161)" id="id-111268"></polygon><path d=" M 181,144 C 178,177 162,232 160,235 C 158,239 124,261 119,264 C 113,266 74,267 69,264 C 67,263 59,258 51,253 C 69,259 83,262 93,261 C 107,259 128,246 137,242 C 141,241 144,232 149,215 L 163,207 L 170,172 L 154,183 L 181,144 Z" fill="url(#id-111162)" id="id-111188"></path><path d=" M 133,228 C 130,202 130,187 133,180 C 137,173 146,166 160,157 L 181,144 L 171,162 L 163,207 L 133,228 Z" fill="url(#id-111163)" id="id-111270"></path><polygon points="133 228 133 244 140 242 152 215" fill="#722C2C" id="id-111270"></polygon><polygon points="172 159 143 191 164 205" fill="url(#id-111164)" id="id-111272"></polygon><path d=" M 102,259 L 104,235 L 110,237 L 128,247 C 115,253 107,257 102,259 Z" fill="#954A3D" id="id-111273"></path><path d=" M 20,231 C 20,230 19,228 18,225 C 30,234 39,240 45,243 C 57,248 70,255 82,255 C 94,255 108,246 117,241 C 123,238 129,233 133,228 L 163,207 L 169,204 C 165,221 161,233 160,235 C 158,239 124,261 119,264 C 113,266 74,267 69,264 C 64,261 22,235 20,231 Z" fill="#501517" opacity="0.375" id="id-111188"></path><path d=" M 157,157 C 157,146 153,139 145,136 L 158,130 C 162,129 164,128 164,128 C 165,123 168,115 170,105 C 170,103 170,91 170,69 C 165,63 160,57 155,51 C 154,36 148,22 136,8 C 167,21 179,47 181,51 C 183,57 183,111 181,144 C 180,156 172,166 157,177 C 157,166 157,159 157,157 Z" fill="url(#id-111165)" id="id-111188"></path><path d=" M 4,66 C 5,59 7,54 8,49 C 9,46 16,35 16,34 C 26,24 42,11 65,5 C 55,10 50,15 47,18 C 40,28 28,50 13,83 L 4,66 Z" fill="url(#id-111166)" id="id-111188"></path><path d=" M 4,145 C 3,135 2,126 1,117 C 0,97 2,76 5,61 C 9,60 11,58 13,56 C 16,53 23,47 35,38 C 25,59 18,74 17,83 C 14,98 9,119 4,145 Z" fill="url(#id-111167)" id="id-111188"></path></g></g><defs><linearGradient x1="50%" y1="0%" x2="58%" y2="87%" id="id-85730"><stop stop-color="#1E304F" offset="0%"></stop><stop stop-color="#0F1A2F" offset="100%"></stop></linearGradient><linearGradient x1="50%" y1="0%" x2="50%" y2="100%" id="id-85731"><stop stop-color="#1C2F4D" offset="0%"></stop><stop stop-color="#0F1A2F" offset="100%"></stop></linearGradient></defs><g transform=" translate(418,1024)" id="id-85732"><g id="id-85733"><path d=" M 174,736 C 177,684 179,658 179,658 C 194,645 202,638 202,638 C 201,588 200,563 200,563 C 205,530 208,513 208,513 C 214,508 217,506 217,506 C 226,470 230,452 230,452 C 227,434 225,425 225,425 C 230,396 232,381 232,381 C 235,378 236,377 236,377 C 240,353 242,341 242,341 C 249,335 252,332 252,332 C 258,339 260,342 260,342 C 260,357 259,364 259,364 C 269,384 275,405 277,426 C 279,449 280,461 280,461 C 292,493 298,509 298,509 C 304,511 307,512 307,512 C 312,531 315,541 315,541 C 311,550 308,555 308,555 C 322,594 330,613 330,613 C 329,638 329,650 329,650 C 344,661 352,667 352,667 L 365,737 C 444,737 484,736 484,736 C 487,659 488,620 488,620 C 482,610 480,605 480,605 C 491,569 497,551 497,551 C 497,539 497,532 497,532 C 505,521 509,515 509,515 C 486,325 475,230 475,230 C 448,159 435,124 435,124 C 432,90 431,72 431,72 C 422,48 417,36 417,36 C 416,14 416,3 416,3 C 355,5 325,7 325,7 C 215,8 160,9 160,9 C 99,3 68,0 68,0 C 68,23 67,35 67,35 C 52,83 42,130 37,174 C 33,178 31,180 31,180 C 25,211 22,227 22,227 C 11,231 5,234 5,234 C 6,242 7,246 7,246 C 6,247 4,248 2,251 C -2,368 3,444 6,486 C 11,489 13,490 13,490 C 14,513 14,525 14,525 C 20,528 23,530 23,530 C 26,557 28,570 28,570 C 37,586 42,594 42,594 C 32,616 26,627 26,627 L 44,647 L 44,737 C 130,737 174,736 174,736 Z" fill="#0E192D" id="id-85734"></path><path d=" M 239,56 C 316,53 354,52 354,52 C 358,101 360,126 360,126 C 383,106 395,96 395,96 C 377,134 369,153 369,153 C 391,174 402,185 402,185 C 410,183 414,182 414,182 L 439,206 L 379,251 L 402,276 C 333,310 299,326 299,326 L 245,312 C 241,141 239,56 239,56 Z" fill="#152138" id="id-85735"></path><path d=" M 237,314 C 161,343 123,358 123,358 C 132,307 137,282 137,282 C 110,213 97,178 97,178 C 117,140 128,120 128,120 C 129,80 130,60 130,60 L 227,54 C 239,204 243,290 237,314 Z" fill="#152138" id="id-85736"></path><path d=" M 172,65 L 228,65 C 240,231 243,314 237,314 C 218,300 209,292 209,292 C 210,279 210,272 210,272 C 185,259 173,252 173,252 C 211,239 230,233 230,233 L 232,221 C 178,195 151,183 151,183 C 205,183 231,183 231,183 C 231,178 230,175 230,175 L 174,126 L 172,65 Z" fill="#101B31" id="id-85737"></path><path d=" M 97,178 L 145,195 L 111,216 C 151,217 191,223 230,233 L 129,263 C 107,207 97,178 97,178 Z" fill="#263049" id="id-85738"></path><path d=" M 148,281 C 144,297 142,305 142,305 C 173,315 189,320 189,320 C 214,314 227,311 227,311 L 205,295 C 167,286 148,281 148,281 Z" fill="#2B354E" id="id-85739"></path><path d=" M 245,128 C 286,109 307,100 307,100 C 309,137 309,156 309,156 C 275,175 258,185 258,185 C 307,184 340,193 357,211 C 296,244 265,261 265,261 L 331,273 L 254,300 C 248,186 245,128 245,128 Z" fill="#101B31" id="id-85740"></path><path d=" M 343,267 C 300,258 278,254 278,254 C 306,235 320,226 320,226 L 376,235 C 354,256 343,267 343,267 Z" fill="#27314A" id="id-85741"></path><path d=" M 335,181 C 352,176 385,172 385,172 C 392,180 395,185 395,185 L 381,222 C 377,201 362,187 335,181 Z" fill="#242F47" id="id-85742"></path><path d=" M 293,166 C 275,182 266,190 266,190 C 254,184 247,181 247,181 L 273,176 C 287,169 293,166 293,166 Z" fill="#2B344E" id="id-85743"></path><path d=" M 55,78 C 78,89 90,95 90,95 L 82,169 C 69,146 57,141 45,129 C 52,95 55,78 55,78 Z" fill="#222C44" id="id-85744"></path><path d=" M 301,326 C 369,293 402,276 402,276 C 450,247 474,232 474,232 L 458,302 L 376,346 L 301,326 Z" fill="#222D45" id="id-85745"></path><path d=" M 473,541 C 451,552 440,557 440,557 C 440,577 440,588 440,588 L 415,592 L 430,675 L 420,736 L 358,737 L 345,667 L 329,650 L 330,613 L 308,555 L 315,541 L 307,512 L 298,509 L 279,461 C 275,431 273,416 273,416 L 274,403 L 280,402 L 395,474 C 447,519 473,541 473,541 Z" fill="#152138" id="id-85746"></path><path d=" M 470,484 L 502,526 L 497,532 L 497,551 C 479,507 470,484 470,484 Z" fill="#222D45" id="id-85747"></path><path d=" M 420,382 C 453,404 469,414 469,414 L 480,461 C 440,408 420,382 420,382 Z" fill="#222D45" id="id-85748"></path><path d=" M 432,93 C 396,170 372,236 362,291 C 377,348 385,377 385,377 C 383,396 382,406 382,406 L 430,675 L 419,736 L 484,736 L 485,647 L 488,620 L 480,605 L 497,551 L 497,532 L 509,515 L 474,232 L 435,124 C 433,103 432,93 432,93 Z" fill="#060F1E" fill-opacity="0.400" id="id-85749"></path><path d=" M 450,168 C 418,179 402,185 402,185 C 403,177 403,173 403,173 L 433,109 L 433,124 L 450,168 Z" fill="#0E192D" id="id-85750"></path><path d=" M 281,449 L 279,461 L 298,509 L 307,512 L 315,541 L 308,555 L 330,613 L 330,649 C 344,661 352,667 352,667 L 429,681 L 281,449 Z" fill="#0F1A30" id="id-85751"></path><path d=" M 37,531 C 61,535 72,536 72,536 L 234,386 L 227,423 L 230,452 L 217,506 L 208,513 L 200,563 L 202,638 L 185,669 L 174,736 C 125,736 100,736 100,736 C 106,639 109,590 109,590 L 101,599 C 58,554 37,531 37,531 Z" fill="#152138" id="id-85752"></path><path d=" M 100,736 L 44,737 L 44,647 L 26,627 L 42,594 L 26,565 L 23,530 L 14,525 L 13,490 L 6,483 C 1,405 -2,328 2,251 L 7,246 L 6,232 L 23,226 L 31,180 L 37,174 L 45,129 C 64,144 76,157 82,169 L 84,150 L 137,282 L 123,358 C 127,411 118,449 109,519 C 109,614 106,665 100,736 Z" fill="#060F1E" fill-opacity="0.400" id="id-85753"></path><path d=" M 168,690 C 144,642 132,618 132,618 L 229,443 L 229,454 L 217,506 L 208,513 C 203,546 200,562 200,562 L 200,586 C 179,655 168,690 168,690 Z" fill="#0F1A2F" id="id-85754"></path><path d=" M 65,41 C 108,53 130,60 130,60 L 369,53 L 421,46 L 417,36 L 416,3 L 325,7 L 160,9 L 67,0 L 67,36 L 65,41 Z" fill="#0B0D19" id="id-85755"></path><path d=" M 146,65 C 130,65 122,65 122,65 C 123,25 123,6 123,6 L 146,9 C 146,46 146,65 146,65 Z" fill="#222B42" id="id-85756"></path><path d=" M 342,61 C 359,59 367,58 367,58 C 365,23 364,6 364,6 L 343,7 C 342,43 342,61 342,61 Z" fill="#20293F" id="id-85757"></path><path d=" M 284,51 C 233,53 208,53 208,53 C 206,26 205,12 205,12 L 282,9 C 283,37 284,51 284,51 Z" fill="#4D4D58" id="id-85758"></path><path d=" M 283,18 L 205,18 L 205,12 L 282,9 C 282,15 283,18 283,18 Z" fill="#7F7E89" id="id-85759"></path></g><g transform=" translate(350,590)" id="id-85760"><path d=" M 18,146 C 14,115 12,99 12,99 C 5,81 1,72 1,72 C 3,69 5,68 5,68 C 2,61 0,57 0,57 C 11,51 17,48 17,48 C 20,27 21,16 21,16 C 43,6 54,1 54,1 C 88,0 106,0 106,0 C 115,29 119,44 119,44 C 135,51 143,54 143,54 C 143,73 142,84 138,87 L 143,146 C 60,146 18,146 18,146 Z" fill="#0F1A2F" id="id-85761"></path><path d=" M 36,146 C 31,118 29,104 29,104 C 31,102 32,101 32,101 C 30,81 29,71 29,71 C 23,62 20,58 20,58 C 26,49 28,44 28,44 C 29,29 29,21 29,21 C 53,11 65,5 65,5 C 92,12 106,16 106,16 C 114,38 119,49 119,49 C 115,57 113,61 113,61 C 114,82 114,93 114,93 C 118,94 119,95 119,95 L 121,135 L 114,146 C 62,146 36,146 36,146 Z" fill="#243A5E" id="id-85762"></path><path d=" M 43,146 C 37,103 33,81 33,81 C 53,72 63,67 63,67 C 88,71 101,73 101,73 L 107,79 L 107,146 C 65,146 43,146 43,146 Z" fill="url(#id-85730)" id="id-85763"></path><path d=" M 111,60 L 100,70 L 100,73 L 107,79 C 105,73 106,67 111,60 Z" fill="#6D788B" id="id-85764"></path><path d=" M 63,67 C 63,48 64,39 64,39 C 61,37 60,36 60,36 C 68,34 71,34 71,34 L 65,68 C 63,67 63,67 63,67 Z" fill="#6D788B" id="id-85765"></path><path d=" M 71,34 L 117,51 L 111,60 L 100,70 L 100,73 L 65,68 C 69,45 71,34 71,34 Z" fill="#394D6C" id="id-85766"></path><path d=" M 71,34 C 75,22 76,16 76,16 C 94,21 102,24 102,24 L 95,43 C 79,37 71,34 71,34 Z" fill="#1A2C48" id="id-85767"></path><path d=" M 65,5 C 64,8 63,10 63,10 C 90,16 104,19 104,19 C 109,35 112,43 112,43 L 117,44 L 106,16 C 78,9 65,5 65,5 Z" fill="#384D6C" id="id-85768"></path><path d=" M 24,103 C 27,97 28,94 28,94 C 26,81 25,75 25,75 L 19,67 C 16,77 18,89 24,103 Z" fill="#233A5D" id="id-85769"></path><path d=" M 25,75 C 21,69 19,67 19,67 C 18,71 18,73 18,73 L 24,78 L 25,75 Z" fill="#5B697E" id="id-85770"></path><path d=" M 43,94 C 46,88 47,85 47,85 C 42,80 39,78 39,78 L 37,85 C 41,91 43,94 43,94 Z" fill="#0F1A2F" id="id-85771"></path><path d=" M 43,94 L 46,87 L 37,85 C 41,91 43,94 43,94 Z" fill="#2C3C59" id="id-85772"></path><path d=" M 97,90 C 99,87 100,85 100,85 L 92,78 C 95,86 97,90 97,90 Z" fill="#253652" id="id-85773"></path><path d=" M 100,84 C 102,82 103,81 103,81 L 96,73 L 90,76 C 97,81 100,84 100,84 Z" fill="#0F1A2F" id="id-85774"></path><path d=" M 121,90 C 123,86 124,84 124,84 C 123,71 123,64 123,64 C 120,61 118,60 118,60 C 116,64 115,66 115,66 L 116,86 C 119,88 121,90 121,90 Z" fill="#233A5D" id="id-85775"></path><polygon points="115 73 123 64 118 60 115 66" fill="#4C5C75" id="id-85776"></polygon><path d=" M 138,87 C 139,94 139,97 139,97 C 129,106 124,111 124,111 L 124,92 C 134,89 138,87 138,87 Z" fill="#060F1E" id="id-85777"></path><path d=" M 139,97 C 140,103 140,106 140,106 L 124,133 L 124,111 C 134,102 139,97 139,97 Z" fill="#1D2840" id="id-85778"></path><polygon points="141 117 143 146 130 146" fill="#1A253C" id="id-85779"></polygon><path d=" M 143,59 C 143,63 143,66 143,66 C 125,58 116,55 116,55 L 118,51 C 135,56 143,59 143,59 Z" fill="#222C45" id="id-85780"></path><path d=" M 41,23 C 42,29 42,31 42,31 C 37,32 35,32 35,32 L 35,26 C 39,24 41,23 41,23 Z" fill="#060F1E" id="id-85781"></path><path d=" M 14,117 C 22,117 25,117 25,117 C 29,123 31,126 31,126 L 16,128 C 15,121 14,117 14,117 Z" fill="#1D2840" id="id-85782"></path><path d=" M 25,117 L 26,105 L 12,99 L 14,117 C 22,117 25,117 25,117 Z" fill="#060F1E" id="id-85783"></path><path d=" M 20,58 C 10,65 5,68 5,68 L 3,64 C 12,54 17,48 17,48 C 18,39 19,34 19,34 L 29,12 L 54,1 L 106,0 L 119,44 L 143,54 L 143,58 L 117,51 L 118,48 L 106,16 L 65,5 L 29,21 L 28,44 L 20,58 Z" fill="#060F1E" id="id-85784"></path></g><g transform=" translate(35,589)" id="id-85760"><path d=" M 9,148 C 8,107 7,87 7,87 C 3,69 1,60 1,60 C 3,57 5,55 5,55 C 2,49 0,47 0,47 C 14,42 21,40 21,40 C 27,19 30,9 30,9 C 58,3 72,0 72,0 C 106,4 123,6 123,6 C 129,34 132,49 132,49 C 148,57 155,61 155,61 C 156,72 153,83 146,91 L 143,147 C 53,148 9,148 9,148 Z" fill="#0F1A2F" id="id-85786"></path><path d=" M 38,17 C 65,9 78,6 78,6 C 107,16 122,21 122,21 C 128,44 131,55 131,55 C 125,62 121,65 121,65 C 121,84 121,94 121,94 C 124,95 126,96 126,96 L 121,134 L 108,148 L 40,148 C 32,141 28,137 28,137 C 27,108 27,94 27,94 C 29,92 30,91 30,91 C 30,72 30,63 30,63 C 26,57 24,55 24,55 C 24,50 24,47 24,47 L 34,38 C 36,24 38,17 38,17 Z" fill="#233A5D" id="id-85787"></path><path d=" M 26,85 C 23,89 21,91 21,91 C 18,86 17,83 17,83 C 17,69 17,62 17,62 C 20,58 21,56 21,56 L 26,65 C 26,78 26,85 26,85 Z" fill="#233A5E" id="id-85788"></path><path d=" M 103,148 C 108,143 114,120 116,66 L 35,61 C 36,91 32,129 40,148 C 70,148 91,148 103,148 Z" fill="url(#id-85731)" id="id-85789"></path><path d=" M 26,65 L 24,70 L 17,62 L 21,56 C 25,62 26,65 26,65 Z" fill="#5B697F" id="id-85790"></path><path d=" M 49,78 C 44,72 42,69 42,69 C 38,73 36,75 36,75 L 42,88 C 47,81 49,78 49,78 Z" fill="#0F1A2F" id="id-85791"></path><path d=" M 42,88 L 47,81 L 36,75 C 40,83 42,88 42,88 Z" fill="#2D3E5B" id="id-85792"></path><path d=" M 104,89 C 108,85 110,82 110,82 C 106,75 104,71 104,71 L 97,77 C 102,85 104,89 104,89 Z" fill="#0F1A2F" id="id-85793"></path><path d=" M 104,89 L 108,85 L 97,77 C 102,85 104,89 104,89 Z" fill="#21304A" id="id-85794"></path><path d=" M 68,63 C 73,56 75,52 75,52 L 96,65 C 77,64 68,63 68,63 Z" fill="#6C788B" id="id-85795"></path><path d=" M 75,52 C 78,39 79,32 79,32 L 129,55 L 116,66 L 96,65 C 82,57 75,52 75,52 Z" fill="#384D6C" id="id-85796"></path><path d=" M 106,41 C 95,36 90,33 90,33 C 91,24 92,19 92,19 L 114,27 C 109,36 106,41 106,41 Z" fill="#0F192F" id="id-85797"></path><path d=" M 78,6 C 77,9 76,10 76,10 C 105,20 120,25 120,25 L 126,48 L 129,48 L 122,21 C 92,11 78,6 78,6 Z" fill="#384D6C" id="id-85798"></path><path d=" M 129,64 C 132,68 134,69 134,69 C 133,81 132,86 132,86 C 129,90 128,92 128,92 C 125,88 123,86 123,86 L 124,68 C 128,66 129,64 129,64 Z" fill="#233A5D" id="id-85799"></path><path d=" M 133,68 L 124,75 L 124,68 L 129,64 C 132,67 133,68 133,68 Z" fill="#4B5B75" id="id-85800"></path><path d=" M 96,24 L 95,29 C 103,31 107,32 107,32 L 109,29 L 96,24 Z" fill="#687385" id="id-85801"></path><polygon points="146 91 131 94 128 109 146 100" fill="#060F1E" id="id-85802"></polygon><path d=" M 23,95 C 23,101 23,105 23,105 L 8,103 L 7,87 L 23,95 Z" fill="#060F1E" id="id-85803"></path><path d=" M 25,115 L 8,115 L 8,103 L 19,105 C 23,111 25,115 25,115 Z" fill="#1D2840" id="id-85804"></path><path d=" M 146,100 L 145,107 L 126,129 L 128,109 C 140,103 146,100 146,100 Z" fill="#1D2840" id="id-85805"></path><path d=" M 9,148 L 8,122 L 20,148 C 13,148 9,148 9,148 Z" fill="#1D2840" id="id-85806"></path><polygon points="143 147 145 120 126 147" fill="#1A253C" id="id-85807"></polygon><path d=" M 156,66 C 155,69 155,71 155,71 L 128,59 L 131,55 C 147,62 156,66 156,66 Z" id="id-85808"></path><path d=" M 156,67 C 155,70 155,72 155,72 L 128,59 L 131,55 C 147,63 156,67 156,67 Z" fill="#222C45" id="id-85809"></path><path d=" M 24,50 C 11,54 5,55 5,55 C 4,53 3,52 3,52 C 15,46 21,43 21,43 C 24,31 26,25 26,25 L 39,7 L 72,0 L 124,6 L 132,49 L 156,61 L 156,66 L 131,55 L 122,21 L 77,6 L 38,17 L 34,38 L 24,48 C 24,49 24,50 24,50 Z" fill="#060F1E" id="id-85810"></path></g></g><defs><linearGradient x1="26%" y1="14%" x2="56%" y2="60%" id="id-79893"><stop stop-color="#79A491" offset="0%"></stop><stop stop-color="#2E544B" offset="100%"></stop></linearGradient><linearGradient x1="42%" y1="10%" x2="58%" y2="70%" id="id-79894"><stop stop-color="#457C6F" offset="0%"></stop><stop stop-color="#326256" offset="100%"></stop></linearGradient><linearGradient x1="30%" y1="11%" x2="64%" y2="100%" id="id-79895"><stop stop-color="#2F5349" offset="0%"></stop><stop stop-color="#436B5C" offset="100%"></stop></linearGradient></defs><g transform=" translate(265,525)" id="id-79896"><g transform=" translate(1,0)" id="id-79897"><path d=" M 138,766 L 122,738 C 135,728 142,718 142,708 C 138,698 121,670 121,670 C 146,655 159,648 159,648 C 157,627 162,596 174,554 C 171,550 168,544 163,538 L 189,521 C 185,495 183,469 183,445 C 194,429 201,407 204,380 L 206,421 C 221,416 235,412 248,410 C 402,399 393,399 549,403 C 562,408 574,414 585,421 C 586,426 587,428 587,428 C 588,375 588,348 588,348 C 590,407 594,465 601,520 C 614,561 629,606 629,606 C 626,639 625,656 625,656 C 642,680 651,692 651,692 C 644,705 640,712 640,712 C 660,731 669,741 669,741 C 660,755 655,762 655,762 C 684,764 698,764 698,764 C 734,779 752,787 752,787 C 752,763 752,751 752,751 C 775,737 786,730 786,730 C 774,687 767,665 767,665 C 767,642 767,631 767,631 C 756,623 751,619 751,619 C 752,610 753,606 753,606 C 761,587 766,577 766,577 C 752,558 745,548 745,548 C 757,503 762,480 762,480 C 731,385 710,321 701,289 C 701,263 689,216 689,216 C 693,211 695,208 697,204 C 682,189 682,185 650,108 C 621,94 573,71 573,71 C 575,63 576,59 576,59 C 561,21 553,2 553,2 L 526,42 L 463,96 L 393,143 L 330,96 C 272,32 242,1 242,1 C 226,40 218,60 218,60 C 218,68 218,72 218,72 C 167,95 142,107 142,107 C 119,158 108,183 108,183 C 107,191 106,195 106,195 C 101,201 99,204 99,204 C 101,231 99,258 93,283 C 74,360 61,403 41,434 C 35,454 30,475 30,475 C 39,516 44,537 44,537 C 32,562 26,574 26,574 C 29,583 30,591 31,598 C 58,601 37,619 19,642 C 20,653 21,663 21,674 C 10,702 3,722 0,734 C 10,741 23,747 40,752 C 40,762 38,775 37,792 L 50,781 L 99,764 L 127,760 C 134,764 138,766 138,766 Z" fill="url(#id-79893)" id="id-79898"></path><path d=" M 121,714 C 94,714 53,720 1,731 L 21,674 C 20,663 19,653 18,642 C 31,626 59,600 31,598 C 29,590 28,582 26,574 L 99,606 C 110,659 117,695 121,714 Z" fill="#2C5146" id="id-79899"></path><path d=" M 138,766 C 133,770 130,772 130,772 C 126,768 124,766 124,766 C 73,780 48,788 48,788 C 46,791 46,793 46,793 C 40,792 37,792 37,792 C 45,785 50,781 50,781 C 82,770 98,765 98,765 L 127,760 L 138,766 Z" fill="#0E2E21" id="id-79900"></path><path d=" M 99,764 L 84,727 L 40,752 C 13,740 0,734 0,734 C 1,732 1,731 1,731 C 58,720 99,714 121,714 L 99,606 C 143,576 168,558 174,554 C 162,597 157,629 159,648 L 121,670 C 130,688 138,701 142,708 C 143,716 137,726 122,738 L 138,766 L 127,760 C 108,763 99,764 99,764 Z" fill="#214740" id="id-79901"></path><path d=" M 76,737 C 85,764 90,777 90,777 C 70,784 61,787 61,787 L 51,751 C 68,742 76,737 76,737 Z" fill="#FFAC00" id="id-79902"></path><path d=" M 18,681 L 82,662 L 19,642 L 21,674 C 19,679 18,681 18,681 Z" fill="#264A42" id="id-79903"></path><path d=" M 22,638 C 40,632 81,610 81,610 L 40,600 C 47,604 41,617 22,638 Z" fill="#1C433D" id="id-79904"></path><path d=" M 141,550 C 89,550 63,550 63,550 L 79,484 C 120,528 141,550 141,550 Z" fill="#315A4F" id="id-79905"></path><path d=" M 304,406 C 295,388 291,379 291,379 C 240,339 214,319 214,319 C 221,263 224,236 224,236 C 216,223 211,216 211,216 C 202,190 198,177 198,177 C 180,154 171,143 171,143 C 169,175 168,191 168,191 L 149,115 L 142,107 L 108,183 L 107,192 L 135,227 L 101,202 C 100,203 99,204 99,204 C 99,211 100,214 100,214 C 138,272 157,301 157,301 C 139,310 130,314 130,314 C 152,389 163,426 163,426 C 148,450 127,468 98,478 C 126,493 149,512 168,534 L 189,521 L 183,445 L 204,379 L 206,421 C 220,416 234,412 248,410 C 276,409 304,406 304,406 Z" fill="url(#id-79894)" id="id-79906"></path><path d=" M 583,420 C 575,296 571,234 571,234 C 587,195 595,175 595,175 C 592,281 591,334 591,334 C 631,270 651,237 651,237 C 612,315 592,353 592,353 C 599,456 603,507 603,507 C 620,558 628,584 628,584 C 649,583 659,583 659,583 L 628,618 L 628,606 L 601,520 L 588,348 L 587,428 C 584,423 583,420 583,420 Z" fill="#0D3632" id="id-79907"></path><path d=" M 202,386 C 213,286 218,237 218,237 C 205,213 199,202 199,202 C 200,264 201,295 201,295 C 170,268 154,254 154,254 L 202,340 C 202,371 202,386 202,386 Z" fill="#1C5049" id="id-79908"></path><path d=" M 135,227 L 107,192 C 106,194 106,195 106,195 L 101,202 C 124,219 135,227 135,227 Z" fill="#265B53" id="id-79909"></path><path d=" M 199,172 C 227,185 242,191 242,191 L 188,235 C 195,193 199,172 199,172 Z" fill="#639683" id="id-79910"></path><path d=" M 141,376 C 135,395 133,404 133,404 C 87,390 65,384 65,384 C 68,375 69,370 69,370 C 103,380 119,385 119,385 L 123,372 C 135,375 141,376 141,376 Z" fill="#E1E2E5" id="id-79911"></path><path d=" M 91,475 L 36,451 C 38,447 39,442 39,437 C 52,418 62,395 69,370 C 84,440 91,475 91,475 Z" fill="#578371" id="id-79912"></path><path d=" M 103,403 C 100,411 99,415 99,415 C 59,430 39,437 39,437 C 46,425 50,419 50,419 C 71,414 82,411 82,411 C 65,406 57,404 57,404 L 62,391 C 89,399 103,403 103,403 Z" fill="#E1E2E5" id="id-79913"></path><path d=" M 100,228 C 114,247 134,289 134,289 C 110,311 91,329 78,341 C 83,319 101,268 100,228 Z" fill="#699A87" id="id-79914"></path><path d=" M 365,402 C 365,379 365,368 365,368 L 373,402 C 368,402 365,402 365,402 Z" fill="#336153" id="id-79915"></path><path d=" M 431,401 C 433,382 435,373 435,373 L 440,401 C 434,401 431,401 431,401 Z" fill="#315D4F" id="id-79916"></path><polygon points="664 775 655 762 698 764 752 787 752 795 696 771 666 768" fill="#0F3224" id="id-79917"></polygon><path d=" M 786,727 L 646,718 L 669,741 L 655,762 L 698,764 L 752,787 L 752,752 L 786,730 C 786,728 786,727 786,727 Z" fill="#16403B" id="id-79918"></path><path d=" M 698,764 L 711,732 C 730,741 740,745 740,745 L 738,781 L 698,764 Z" fill="#2C5950" id="id-79919"></path><path d=" M 765,667 C 743,700 732,717 732,717 L 784,721 C 771,685 765,667 765,667 Z" fill="#517F6F" id="id-79920"></path><path d=" M 649,695 C 712,691 743,689 743,689 L 628,656 L 651,692 C 650,694 649,695 649,695 Z" fill="#16403B" id="id-79921"></path><polygon points="668 660 686 627 642 615 628 653" fill="#42695C" id="id-79922"></polygon><polygon points="686 645 745 605 763 583 753 606 751 619 767 631 767 634" fill="#1A4943" id="id-79923"></polygon><path d=" M 693,390 L 710,320 C 704,299 701,289 701,289 C 701,277 700,271 700,271 L 684,283 C 690,355 693,390 693,390 Z" fill="#3C6053" id="id-79924"></path><polygon points="628 618 717 550 623 501 606 515 628 583 659 583" fill="#204841" id="id-79925"></polygon><polygon points="745 548 726 530 760 489" fill="#204B43" id="id-79926"></polygon><path d=" M 578,342 L 551,402 C 541,402 535,402 535,402 C 533,375 532,361 532,361 C 482,354 457,351 457,351 L 571,238 L 578,342 Z" fill="#2F5A4E" id="id-79927"></path><path d=" M 591,334 C 592,289 593,266 593,266 C 602,233 607,216 607,216 L 610,287 L 651,237 C 611,302 591,334 591,334 Z" fill="#335A50" id="id-79928"></path><path d=" M 249,101 C 254,106 257,109 257,109 C 211,130 188,141 188,141 L 184,133 C 228,112 249,101 249,101 Z" fill="#D6DBDC" id="id-79929"></path><path d=" M 207,77 C 322,120 380,142 380,142 L 243,18 L 242,1 L 218,60 L 218,71 L 207,77 Z" fill="#36685C" id="id-79930"></path><path d=" M 275,465 C 252,467 241,468 241,468 L 251,410 C 369,404 469,403 549,407 C 546,422 543,434 543,434 C 466,420 427,413 427,413 L 274,433 C 274,455 275,465 275,465 Z" fill="#551C1C" fill-opacity="0.500" id="id-79931"></path><path d=" M 220,54 L 309,112 L 207,77 L 218,71 L 218,60 C 219,56 220,54 220,54 Z" fill="#1D4842" id="id-79932"></path><path d=" M 553,2 L 576,59 C 574,67 573,71 573,71 C 465,118 411,142 411,142 L 398,140 L 463,96 L 526,42 L 553,2 Z" fill="#305C52" id="id-79933"></path><path d=" M 576,58 C 517,95 488,113 488,113 L 583,76 L 573,71 C 575,62 576,58 576,58 Z" fill="#1A443E" id="id-79934"></path><path d=" M 615,196 C 619,161 621,144 621,144 C 601,164 592,174 592,174 L 471,124 L 583,76 C 627,97 650,108 650,108 L 652,114 C 627,169 615,196 615,196 Z" fill="#5B8776" id="id-79935"></path><path d=" M 697,204 C 670,219 656,227 656,227 L 690,219 L 689,216 C 695,208 697,204 697,204 Z" fill="#1C443E" id="id-79936"></path><polygon points="651 238 603 507 592 353" fill="#214840" id="id-79937"></polygon><path d=" M 206,421 C 206,424 205,426 205,426 C 218,423 225,422 225,422 C 244,419 260,416 272,413 C 388,399 549,407 549,407 L 566,417 L 587,428 L 585,421 C 578,416 566,410 549,403 C 449,397 336,403 248,410 C 223,415 206,421 206,421 Z" fill="#0C2F21" id="id-79938"></path><path d=" M 656,502 C 636,494 611,494 611,494 C 638,348 652,268 651,253 C 667,275 615,460 656,502 Z" fill="#3D6357" id="id-79939"></path><path d=" M 757,466 C 751,445 738,407 738,407 C 701,418 669,428 643,436 C 642,464 648,488 662,506 C 697,542 729,528 757,466 Z" fill="url(#id-79895)" id="id-79940"></path><path d=" M 271,457 C 243,457 230,457 230,457 L 230,414 C 242,412 248,410 248,410 L 272,409 C 271,441 271,457 271,457 Z" fill="#FFAC00" id="id-79941"></path><path d=" M 694,339 C 678,339 669,339 669,339 C 670,377 670,397 670,397 C 686,410 695,416 695,416 C 712,408 721,404 721,404 C 716,385 713,375 713,375 C 707,379 703,381 703,381 L 696,379 C 695,352 694,339 694,339 Z" fill="#E1E2E5" id="id-79942"></path><path d=" M 727,367 C 721,370 718,372 718,372 C 723,392 726,402 726,402 L 735,396 C 730,377 727,367 727,367 Z" fill="#E1E2E5" id="id-79943"></path><path d=" M 694,325 C 678,326 670,326 670,326 C 670,281 670,259 670,259 C 687,248 695,243 695,243 C 700,267 702,279 702,279 L 691,283 C 693,311 694,325 694,325 Z" fill="#E1E2E5" id="id-79944"></path><path d=" M 363,200 C 346,200 338,200 338,200 C 336,202 335,204 335,204 C 319,194 311,189 311,189 C 319,179 324,174 324,174 L 363,174 C 363,191 363,200 363,200 Z" fill="#E1E2E5" id="id-79945"></path><path d=" M 332,210 C 330,213 329,215 329,215 C 365,277 383,309 383,309 C 387,309 389,309 389,309 C 389,327 389,336 389,336 C 376,336 369,336 369,336 C 319,253 293,211 293,211 L 305,197 C 323,206 332,210 332,210 Z" fill="#E1E2E5" id="id-79946"></path><path d=" M 412,231 C 399,249 392,258 392,258 L 379,233 C 401,232 412,231 412,231 Z" fill="#FFAC00" id="id-79947"></path><path d=" M 394,309 C 394,327 395,336 395,336 C 407,336 414,336 414,336 C 463,256 488,216 488,216 C 480,204 476,199 476,199 C 461,207 454,211 454,211 C 456,215 457,217 457,217 L 401,309 C 397,309 394,309 394,309 Z" fill="#E1E2E5" id="id-79948"></path><path d=" M 472,269 C 465,278 462,283 462,283 C 481,294 490,299 490,299 L 500,286 C 481,275 472,269 472,269 Z" fill="#E1E2E5" id="id-79949"></path><path d=" M 316,276 C 321,284 323,287 323,287 C 305,298 295,304 295,304 L 289,293 C 307,282 316,276 316,276 Z" fill="#E1E2E5" id="id-79950"></path><path d=" M 415,173 C 415,192 415,202 415,203 L 415,203 L 415,203 L 396,202 C 395,185 395,176 395,175 L 395,174 C 395,174 395,174 395,174 L 395,174 L 395,174 C 408,174 415,173 415,173 L 415,173 L 415,173 Z M 408,180 L 402,180 C 402,180 402,186 402,197 L 402,197 L 408,197 L 408,197 L 408,197 C 408,197 408,197 408,197 L 408,196 C 408,196 408,196 408,196 L 408,196 C 408,196 408,196 408,196 L 408,196 C 408,194 408,189 408,180 L 408,180 Z" fill="#E1E2E5" id="id-79951"></path><path d=" M 382,184 C 373,183 368,182 368,182 C 368,177 368,174 368,174 C 383,174 391,174 391,174 C 391,183 391,188 391,188 C 383,192 379,194 379,194 C 387,194 391,193 391,193 C 391,199 391,201 391,201 C 375,202 368,202 368,202 L 368,191 C 377,186 382,184 382,184 Z" fill="#E1E2E5" id="id-79952"></path><path d=" M 424,174 C 422,192 422,202 422,202 C 439,201 448,201 448,201 C 448,204 448,205 448,205 C 463,195 471,190 471,190 L 458,174 C 435,174 424,174 424,174 Z" fill="#E1E2E5" id="id-79953"></path><path d=" M 88,283 C 122,294 139,300 139,300 C 133,312 130,318 130,318 L 83,310 C 87,292 88,283 88,283 Z" fill="#FFAC00" id="id-79954"></path><path d=" M 123,329 C 119,342 118,349 118,349 C 88,346 73,345 73,345 L 80,317 C 109,325 123,329 123,329 Z" fill="#EE0000" id="id-79955"></path><polygon points="272 409 272 412 230 423 230 414 248 410" fill="#E87700" id="id-79956"></polygon><g transform=" translate(307,98)" id="id-79957"><path d=" M 10,0 C 18,6 22,9 22,9 C 16,16 13,20 13,20 L 0,10 C 7,3 10,0 10,0 Z" fill="#82A6DA" id="id-79958"></path><path d=" M 11,4 C 15,7 17,8 17,8 C 14,11 13,13 13,13 L 5,10 C 9,6 11,4 11,4 Z" fill="#4476BA" id="id-79959"></path><path d=" M 139,18 C 147,26 151,30 151,30 C 160,24 165,20 165,20 L 150,7 C 143,14 139,18 139,18 Z" fill="#769EE0" id="id-79960"></path><path d=" M 150,13 C 146,16 145,18 145,18 C 150,23 152,26 152,26 L 160,21 C 153,15 150,13 150,13 Z" fill="#4170B2" id="id-79961"></path><path d=" M 148,21 C 147,182 146,262 146,262 C 151,265 154,266 154,266 L 153,22 C 150,21 148,21 148,21 Z" fill="#769EE0" id="id-79962"></path><path d=" M 7,12 C 6,139 6,203 6,203 L 13,206 L 13,12 C 9,12 7,12 7,12 Z" fill="#769EE0" id="id-79963"></path></g></g></g><defs><linearGradient x1="98%" y1="50%" x2="2%" y2="49%" id="id-90092"><stop stop-color="#2F4047" offset="0%"></stop><stop stop-color="#2F4048" offset="4%"></stop><stop stop-color="#828796" offset="5%"></stop><stop stop-color="#A4ABB3" offset="14%"></stop><stop stop-color="#BCBFC7" offset="15%"></stop><stop stop-color="#F7F9F8" offset="27%"></stop><stop stop-color="#384750" offset="28%"></stop><stop stop-color="#273A40" offset="35%"></stop><stop stop-color="#BECED3" offset="37%"></stop><stop stop-color="#CCDEE0" offset="43%"></stop><stop stop-color="#75858B" offset="44%"></stop><stop stop-color="#75878B" offset="50%"></stop><stop stop-color="#819FAF" offset="51%"></stop><stop stop-color="#84A8B7" offset="63%"></stop><stop stop-color="#4A6B94" offset="64%"></stop><stop stop-color="#416997" offset="77%"></stop><stop stop-color="#293B52" offset="79%"></stop><stop stop-color="#1C3048" offset="93%"></stop><stop stop-color="#707C98" offset="94%"></stop><stop stop-color="#707C98" offset="96%"></stop><stop stop-color="#D2D7DD" offset="98%"></stop><stop stop-color="#D4D9DF" offset="100%"></stop></linearGradient><linearGradient x1="98%" y1="50%" x2="2%" y2="49%" id="id-90093"><stop stop-color="#2F4047" offset="0%"></stop><stop stop-color="#2F4048" offset="4%"></stop><stop stop-color="#828796" offset="5%"></stop><stop stop-color="#A4ABB3" offset="14%"></stop><stop stop-color="#BCBFC7" offset="15%"></stop><stop stop-color="#F7F9F8" offset="27%"></stop><stop stop-color="#384750" offset="28%"></stop><stop stop-color="#273A40" offset="35%"></stop><stop stop-color="#BECED3" offset="37%"></stop><stop stop-color="#CCDEE0" offset="43%"></stop><stop stop-color="#75858B" offset="44%"></stop><stop stop-color="#75878B" offset="50%"></stop><stop stop-color="#819FAF" offset="51%"></stop><stop stop-color="#84A8B7" offset="63%"></stop><stop stop-color="#4A6B94" offset="64%"></stop><stop stop-color="#416997" offset="77%"></stop><stop stop-color="#293B52" offset="79%"></stop><stop stop-color="#1C3048" offset="93%"></stop><stop stop-color="#707C98" offset="94%"></stop><stop stop-color="#707C98" offset="96%"></stop><stop stop-color="#D2D7DD" offset="98%"></stop><stop stop-color="#D4D9DF" offset="100%"></stop></linearGradient></defs><g transform=" translate(365,883)" id="id-90094"><path d=" M 6,4 C 24,10 43,14 63,15 C 95,17 109,17 109,17 L 106,30 C 88,30 69,30 51,28 C 34,26 18,24 1,20 L 6,4 Z" transform=" translate(55,17) rotate(4) translate(-55,-17)" fill="url(#id-90092)" id="id-90095"></path><path d=" M 492,15 C 510,18 528,20 546,19 C 562,18 574,17 582,16 C 590,15 594,13 594,13 L 595,26 C 591,27 588,28 583,29 C 569,31 552,32 539,33 C 523,33 507,32 491,31 L 492,15 Z" transform=" translate(543,23) rotate(-10) translate(-543,-23)" fill="url(#id-90093)" id="id-90095"></path></g><defs></defs><g transform=" translate(578,473)" id="id-98061"><path d=" M 10,43 C 11,47 11,49 11,49 C 27,63 88,67 104,65 C 104,63 104,61 104,61 C 114,58 120,56 120,56 C 123,37 134,10 143,0 C 166,-1 185,1 200,7 C 196,17 194,24 191,28 C 188,35 183,41 180,47 C 169,52 158,56 147,58 C 148,65 148,68 148,68 C 151,69 153,70 153,70 C 154,76 154,79 154,79 C 178,76 203,74 227,74 C 229,87 230,100 229,114 C 216,123 202,137 187,152 C 178,159 167,164 157,167 C 151,154 139,143 127,132 C 123,123 121,113 121,101 C 118,102 115,102 110,104 C 108,101 107,99 107,99 C 83,99 10,99 0,75 C 4,53 7,42 10,43 Z" fill="#170C2C" id="id-98062"></path><path d=" M 28,58 C 26,80 25,92 25,92 C 36,95 66,98 78,99 L 80,65 C 54,63 37,60 28,58 Z" fill="#261F3C" id="id-98063"></path><path d=" M 43,93 C 43,91 43,90 43,90 C 53,81 64,72 75,64 L 80,65 L 78,99 C 63,98 51,96 43,93 Z" fill="#34335E" id="id-98064"></path><path d=" M 72,68 C 77,72 79,74 79,74 C 86,70 90,67 90,67 L 76,66 C 73,68 72,68 72,68 Z" fill="#6D6982" id="id-98065"></path><path d=" M 101,66 L 104,65 L 104,61 C 114,58 120,56 120,56 C 123,59 124,60 124,60 C 128,44 132,27 144,16 C 151,16 155,17 155,17 C 156,20 156,21 156,21 C 145,33 134,46 128,60 C 135,60 139,60 139,60 C 140,61 140,61 140,61 C 145,61 147,60 147,60 C 148,65 148,68 148,68 L 153,70 C 154,76 154,79 154,79 C 175,89 186,94 186,94 C 182,94 180,94 180,94 C 160,116 150,128 150,128 L 166,148 L 157,167 C 151,155 140,143 127,132 C 123,124 122,113 121,101 C 118,101 114,102 110,104 L 107,99 L 101,66 Z" fill="#110425" id="id-98066"></path><path d=" M 105,70 C 107,67 108,66 108,66 C 116,65 121,65 121,65 L 121,68 C 110,69 105,70 105,70 Z" fill="#343560" id="id-98067"></path><path d=" M 129,70 L 133,87 L 154,79 L 153,70 L 148,68 C 135,69 129,70 129,70 Z" fill="#312F5A" id="id-98068"></path><path d=" M 127,95 L 127,98 L 150,128 C 170,105 180,94 180,94 C 150,90 134,89 134,89 L 147,103 C 134,97 127,95 127,95 Z" fill="#34325D" id="id-98069"></path><path d=" M 122,111 C 127,122 129,128 129,128 C 136,131 139,132 139,132 L 148,152 C 140,145 133,137 127,132 C 124,126 123,119 122,111 Z" fill="#261F3D" id="id-98070"></path><path d=" M 157,136 L 188,135 C 180,139 175,145 166,148 C 160,140 157,136 157,136 Z" fill="#E0DFDB" id="id-98071"></path><path d=" M 150,128 L 157,136 L 188,135 L 229,114 C 230,101 229,88 227,74 C 203,74 179,75 154,79 L 188,94 L 180,94 L 150,128 Z" fill="#5968B2" id="id-98072"></path><path d=" M 184,95 L 196,109 C 218,109 229,109 229,109 C 229,96 229,89 229,89 L 211,81 C 193,90 184,95 184,95 Z" fill="#34325D" id="id-98073"></path><path d=" M 184,86 C 187,91 188,94 188,94 L 206,84 C 191,85 184,86 184,86 Z" fill="#DFDFDB" id="id-98074"></path><path d=" M 211,81 C 221,77 227,74 227,74 C 228,79 229,83 229,89 L 211,81 Z" fill="#49518F" id="id-98075"></path><path d=" M 147,60 L 140,61 L 139,60 C 154,39 176,23 200,7 C 192,31 184,39 180,47 C 169,53 158,56 147,58 L 147,60 Z" fill="#373866" id="id-98076"></path><path d=" M 164,16 L 143,0 C 163,0 182,0 200,7 C 188,11 176,15 164,16 Z" fill="#5968B2" id="id-98077"></path><path d=" M 164,16 L 157,30 L 200,7 C 185,12 174,15 164,16 Z" fill="#E0DFDB" id="id-98078"></path></g><defs></defs><g transform=" translate(551,244)" id="id-100516"><g transform=" translate(8,78)" id="id-100517"><path d=" M 176,150 C 174,175 184,173 150,203 C 126,220 100,225 96,224 C 92,223 56,208 44,195 C 40,190 31,181 27,173 C 15,148 15,113 14,92 L 5,87 C 5,87 4,55 7,51 L 3,54 C 3,54 0,45 0,44 C 0,44 14,5 24,0 L 23,3 L 30,3 L 28,11 L 19,18 L 24,16 L 21,25 L 14,31 L 18,30 L 13,51 C 15,79 21,119 34,149 L 35,142 L 41,149 L 41,142 L 47,145 L 71,122 C 78,122 86,121 93,119 L 90,128 L 51,153 L 60,151 L 56,167 L 61,158 C 62,162 66,175 67,179 L 77,182 L 90,175 L 88,179 L 97,173 L 96,180 L 100,174 C 100,174 111,203 128,188 C 137,179 148,172 160,166 L 176,150 Z" fill="#93A2C1" id="id-100518"></path><path d=" M 193,81 C 192,101 183,155 174,171 L 174,157 L 167,182 L 157,191 L 145,176 L 154,193 L 145,201 L 143,188 L 138,207 L 110,218 L 108,212 L 102,221 L 98,197 L 89,205 L 100,174 L 107,181 L 105,176 L 116,183 L 134,177 L 139,157 L 148,166 L 142,149 L 152,149 L 149,147 L 107,127 L 105,119 L 134,122 L 156,145 L 167,136 C 167,136 165,145 165,146 C 166,145 171,137 171,137 L 171,146 C 177,125 187,97 189,76 L 193,81 Z" fill="#C4CADC" id="id-100518"></path><polygon points="93 176 82 198 73 188 68 194 63 164 67 179 77 182 90 175 88 179" fill="#D6DDE8" id="id-100518"></polygon><path d=" M 160,142 L 159,158 L 150,149 L 152,149 C 150,149 133,129 131,128 L 130,134 L 110,120 L 134,122 L 156,145 L 160,142 Z" fill="#D5DCE7" id="id-100518"></path></g><g id="id-100522"><path d=" M 200,159 C 200,165 197,191 194,202 L 187,194 C 192,181 194,167 196,154 L 200,159 Z" fill="#92A1C0" id="id-100518"></path><path d=" M 221,76 C 221,75 210,122 210,124 L 206,115 C 208,123 203,167 203,167 L 199,173 L 200,160 C 199,159 197,158 196,154 C 195,146 198,131 197,127 C 195,124 193,109 193,109 L 198,110 L 189,103 L 187,94 L 192,95 L 182,81 L 190,84 C 174,50 125,70 123,71 L 125,63 L 111,67 L 105,63 L 108,68 C 71,53 52,47 31,83 C 21,86 9,130 9,130 C -4,75 -10,65 41,21 C 36,20 23,23 23,23 C 32,14 55,13 55,13 C 52,12 45,10 45,10 C 73,4 109,15 109,15 C 119,0 162,-2 163,2 C 154,3 139,10 139,10 C 151,11 162,14 172,20 C 200,36 223,77 221,76 Z" fill="#D5DCE7" id="id-100518"></path><path d=" M 172,20 C 154,14 124,10 124,10 C 124,10 124,9 125,7 C 137,1 150,-1 163,1 C 154,3 139,9 139,9 C 151,10 162,14 172,20 Z" fill="#FBFEFF" id="id-100518"></path><path d=" M 221,76 L 220,81 C 212,70 184,49 184,49 L 192,74 C 160,43 135,46 135,46 C 139,42 163,39 163,39 L 145,33 C 147,31 160,31 160,31 C 156,27 125,23 125,23 C 185,9 204,46 221,76 Z" fill="#FBFEFF" id="id-100518"></path><path d=" M 54,51 C 54,51 19,74 13,107 C 13,107 13,68 24,61 C 23,61 8,68 4,73 C 6,66 29,27 41,21 C 40,21 39,21 38,21 C 51,18 77,12 81,14 C 81,14 46,26 45,33 C 45,33 76,24 87,29 C 87,29 38,46 36,51 C 36,51 50,50 54,51 Z" fill="#FBFEFF" id="id-100518"></path><path d=" M 92,142 C 92,143 89,150 89,152 L 83,155 C 82,161 78,165 73,167 C 66,171 56,170 51,165 L 32,182 L 27,174 C 29,168 35,149 37,143 L 47,140 C 52,129 66,128 75,132 C 79,134 81,138 82,140 C 82,140 92,142 92,142 Z" fill="#251012" id="id-100518"></path><polygon points="48 161 41 169 41 171 32 181 26 174 24 145 46 140 38 144 36 150 39 156 45 157" fill="#544F68" id="id-100518"></polygon><path d=" M 39,171 L 28,144 L 47,140 C 31,144 37,164 40,171 L 39,171 Z" fill="#9794A2" id="id-100518"></path><polygon points="41 154 45 153 44 146 40 147" fill="#D61C51" id="id-100518"></polygon><path d=" M 70,132 L 68,135 C 70,136 72,137 73,137 C 73,138 74,139 76,140 C 76,139 77,138 78,137 C 78,137 77,135 75,134 C 73,133 70,132 70,132 Z" fill="#787282" id="id-100518"></path><path d=" M 92,142 L 91,144 L 81,146 C 81,146 80,141 80,141 L 82,140 C 85,140 91,142 92,142 Z" fill="#787282" id="id-100518"></path><path d=" M 64,137 C 47,136 47,163 64,163 C 80,163 80,136 64,137 Z M 63,159 C 51,160 51,140 63,140 C 76,140 76,160 63,159 L 63,159 Z" fill="#62565B" id="id-100534" fill-rule="nonzero"></path><path d=" M 71,150 C 71,160 55,160 56,150 C 56,140 71,140 71,150 Z" fill="#D61C51" id="id-100518"></path><path d=" M 62,144 C 62,144 61,145 61,145 C 60,145 60,144 60,144 C 60,143 60,143 61,143 C 61,143 62,143 62,144 Z" fill="#740F1E" id="id-100518"></path><path d=" M 68,143 C 68,146 64,144 67,143 L 68,143 Z" fill="#740F1E" id="id-100518"></path><path d=" M 65,146 C 65,147 64,147 64,147 C 63,147 63,147 63,146 C 63,146 63,145 64,145 C 64,145 65,146 65,146 Z" fill="#740F1E" id="id-100518"></path><path d=" M 67,148 C 67,149 67,149 66,149 C 66,149 65,149 65,148 C 65,148 66,148 66,148 C 67,148 67,148 67,148 L 67,148 Z" fill="#740F1E" id="id-100518"></path><path d=" M 70,151 C 70,152 70,152 69,152 C 69,152 68,152 68,151 C 68,151 69,150 69,150 C 70,150 70,151 70,151 Z" fill="#740F1E" id="id-100518"></path><path d=" M 70,147 C 69,149 67,145 70,145 L 70,147 Z" fill="#740F1E" id="id-100518"></path><path d=" M 65,152 C 65,152 64,153 64,153 C 63,153 63,152 63,152 C 63,151 63,151 64,151 C 64,151 65,151 65,152 Z" fill="#740F1E" id="id-100518"></path><path d=" M 62,149 C 62,149 61,150 61,150 C 60,150 60,149 60,149 C 60,148 60,148 61,148 C 61,148 62,148 62,149 Z" fill="#740F1E" id="id-100518"></path><path d=" M 59,146 C 59,147 59,147 58,147 C 58,147 57,147 57,146 C 57,146 58,145 58,145 C 59,145 59,146 59,146 L 59,146 Z" fill="#740F1E" id="id-100518"></path><path d=" M 59,152 C 59,152 59,153 58,153 C 57,153 57,152 57,152 C 57,151 57,151 58,151 C 59,151 59,151 59,152 Z" fill="#740F1E" id="id-100518"></path><path d=" M 62,154 C 62,155 61,155 61,155 C 60,155 60,155 60,154 C 60,154 60,153 61,153 C 61,153 62,154 62,154 Z" fill="#740F1E" id="id-100518"></path><path d=" M 68,155 C 67,155 67,155 67,155 C 66,155 66,155 65,155 C 66,154 66,154 67,154 C 67,154 67,154 68,155 Z" fill="#740F1E" id="id-100518"></path><polygon points="46 144 47 141 40 144 40 146" fill="#787282" id="id-100518"></polygon><path d=" M 76,150 C 77,166 51,166 51,151 C 52,151 53,151 54,152 C 55,162 72,162 72,152 C 74,151 75,151 76,150 L 76,150 Z" fill="#938FA8" id="id-100518"></path><path d=" M 37,142 C 35,144 32,146 29,147 L 28,144 L 37,142 Z" fill="#FBFEFF" id="id-100518"></path></g></g><defs><linearGradient x1="6%" y1="50%" x2="92%" y2="50%" id="id-106055"><stop stop-color="#FFFFFF" offset="0%"></stop><stop stop-color="#FFFFFF" offset="50%"></stop><stop stop-color="#F5F8F9" offset="100%"></stop></linearGradient><filter width="155%" height="577%" x="-27%" y="-238%" id="id-106056" filterUnits="objectBoundingBox"><feGaussianBlur in="SourceGraphic" stdDeviation="30"></feGaussianBlur></filter></defs><g transform=" translate(494,168)" id="id-106057"><path d=" M 161,27 C 202,27 252,28 295,34 C 301,34 308,37 316,40 C 316,40 316,40 317,39 C 319,38 320,36 320,34 C 320,16 250,12 164,12 C 78,12 13,16 13,34 C 13,35 14,37 15,38 C 15,38 15,38 15,39 C 24,36 32,34 39,34 C 75,29 122,27 161,27 Z" fill="url(#id-106055)" id="id-106058"></path><path d=" M 31,31 C 63,26 105,23 158,23 C 211,23 260,26 305,31 C 285,24 236,20 158,20 C 80,20 38,24 31,31 Z" fill="#E8E5EC" id="id-106059"></path><path d=" M 163,20 C 248,20 329,47 330,34 C 331,20 254,1 168,1 C 83,1 0,17 0,34 C 0,50 77,20 163,20 Z" fill="#EAFDFF" id="id-106058" filter="url(#id-106056)"></path></g><defs></defs><path d=" M 1202,1685 C 1201,1683 1198,1681 1197,1679 C 1196,1678 1196,1676 1196,1675 C 1196,1674 1194,1672 1193,1671 C 1193,1670 1192,1669 1192,1668 C 1192,1667 1195,1666 1196,1665 C 1198,1663 1200,1661 1202,1658 C 1207,1649 1216,1643 1226,1641 C 1240,1638 1254,1644 1263,1655 C 1264,1657 1266,1660 1265,1663 C 1265,1664 1263,1665 1263,1666 C 1263,1667 1265,1669 1266,1670 C 1271,1673 1269,1673 1270,1678 C 1270,1682 1274,1681 1274,1685 L 1274,1685 L 1274,1686 C 1274,1686 1274,1686 1274,1686 C 1273,1688 1271,1688 1270,1689 C 1268,1691 1267,1692 1266,1694 C 1263,1698 1261,1700 1258,1704 C 1242,1719 1214,1716 1202,1696 C 1201,1695 1199,1691 1200,1689 C 1201,1688 1202,1688 1202,1685 L 1202,1685 Z M 1268,1685 C 1267,1682 1265,1682 1264,1679 C 1264,1678 1264,1677 1264,1676 C 1264,1675 1264,1674 1264,1674 C 1264,1673 1263,1672 1262,1672 C 1260,1670 1256,1669 1258,1665 C 1259,1662 1261,1662 1258,1658 C 1246,1643 1223,1641 1210,1656 C 1209,1658 1208,1659 1207,1661 C 1205,1663 1202,1665 1200,1667 C 1197,1669 1197,1669 1200,1671 C 1203,1675 1201,1676 1203,1679 C 1204,1681 1207,1682 1208,1685 L 1208,1685 L 1208,1685 C 1207,1690 1203,1688 1207,1694 C 1216,1706 1232,1711 1246,1705 C 1249,1704 1252,1702 1255,1699 C 1257,1697 1259,1694 1261,1691 C 1263,1689 1267,1687 1268,1685 L 1268,1685 Z M 1254,1685 C 1254,1682 1252,1682 1252,1680 C 1251,1677 1251,1673 1255,1674 C 1258,1675 1256,1678 1258,1680 C 1259,1682 1260,1682 1260,1685 L 1261,1686 L 1260,1686 C 1259,1688 1257,1689 1255,1690 C 1248,1694 1246,1699 1237,1700 C 1231,1701 1225,1700 1221,1697 C 1219,1696 1216,1694 1215,1692 C 1213,1689 1216,1688 1216,1685 C 1215,1683 1212,1682 1211,1680 C 1208,1677 1210,1673 1214,1674 L 1214,1674 L 1215,1675 C 1216,1678 1215,1679 1217,1681 C 1219,1682 1222,1683 1222,1686 C 1222,1689 1220,1690 1224,1692 C 1230,1696 1238,1695 1244,1691 C 1246,1690 1253,1687 1254,1685 L 1254,1685 Z M 1244,1674 C 1242,1675 1239,1674 1237,1673 C 1236,1672 1233,1670 1232,1669 C 1231,1669 1231,1668 1231,1667 C 1231,1666 1233,1665 1234,1664 C 1235,1662 1237,1661 1238,1659 C 1242,1652 1249,1658 1247,1663 C 1246,1665 1243,1666 1243,1668 C 1243,1670 1246,1671 1244,1674 L 1244,1674 L 1244,1674 L 1244,1674 Z M 1222,1656 C 1224,1655 1227,1656 1228,1659 C 1229,1660 1229,1661 1229,1663 C 1228,1665 1223,1666 1225,1669 C 1225,1670 1226,1670 1226,1671 C 1227,1674 1226,1675 1223,1675 C 1222,1675 1219,1673 1218,1672 C 1216,1671 1212,1669 1214,1666 C 1215,1664 1217,1664 1218,1662 C 1219,1660 1220,1658 1222,1656 L 1222,1656 Z" fill="#343D53" opacity="0.297" id="id-77051"></path></svg>