<?xml version="1.0" encoding="UTF-8"?><svg width="1320px" height="1760px" viewBox="0 0 1320 1760" version="1.1" xmlns="http://www.w3.org/2000/svg" xmlns:xlink="http://www.w3.org/1999/xlink"><defs><linearGradient x1="0%" y1="41%" x2="100%" y2="41%" id="id-30352"><stop stop-color="#C8D4F2" offset="0%"></stop><stop stop-color="#94A0BE" offset="100%"></stop></linearGradient><linearGradient x1="0%" y1="50%" x2="100%" y2="50%" id="id-30353"><stop stop-color="#E4EBFF" offset="0%"></stop><stop stop-color="#6A7595" offset="100%"></stop></linearGradient><filter width="106%" height="106%" x="-3%" y="-3%" id="id-30354" filterUnits="objectBoundingBox"><feGaussianBlur in="SourceGraphic" stdDeviation="10"></feGaussianBlur></filter><linearGradient x1="0%" y1="50%" x2="100%" y2="50%" id="id-30355"><stop stop-color="#C9D0F1" offset="0%"></stop><stop stop-color="#949FC0" offset="100%"></stop></linearGradient></defs><g stroke="none" stroke-width="1" fill="none" id="id-30356" fill-rule="evenodd"><g id="id-30357"><rect fill="url(#id-30352)" width="1320" height="1760" x="0" y="0" id="id-30358"></rect><circle cx="661" cy="898" r="504" fill="url(#id-30353)" id="id-30359" filter="url(#id-30354)"></circle><circle cx="660" cy="897" r="491" fill="url(#id-30355)" id="id-30359"></circle></g></g><defs><linearGradient x1="100%" y1="46%" x2="12%" y2="47%" id="id-74421"><stop stop-color="#C5663D" offset="0%"></stop><stop stop-color="#C1633A" offset="21%"></stop><stop stop-color="#EDA377" offset="46%"></stop><stop stop-color="#EB8C5C" offset="80%"></stop><stop stop-color="#DC7E50" offset="100%"></stop></linearGradient><linearGradient x1="53%" y1="81%" x2="50%" y2="21%" id="id-74422"><stop stop-color="#CD6C5B" offset="0%"></stop><stop stop-color="#DE7862" offset="24%"></stop><stop stop-color="#DF8352" offset="100%"></stop></linearGradient><linearGradient x1="52%" y1="-4%" x2="46%" y2="70%" id="id-74423"><stop stop-color="#BE6352" offset="0%"></stop><stop stop-color="#B25041" offset="100%"></stop></linearGradient><linearGradient x1="46%" y1="43%" x2="15%" y2="43%" id="id-74424"><stop stop-color="#DF8655" offset="0%"></stop><stop stop-color="#B95831" offset="100%"></stop></linearGradient><linearGradient x1="54%" y1="37%" x2="12%" y2="72%" id="id-74425"><stop stop-color="#3C050A" offset="0%"></stop><stop stop-color="#9A4336" offset="100%"></stop></linearGradient><linearGradient x1="40%" y1="14%" x2="61%" y2="85%" id="id-74426"><stop stop-color="#6E1B17" offset="0%"></stop><stop stop-color="#852720" offset="100%"></stop></linearGradient><linearGradient x1="27%" y1="47%" x2="91%" y2="49%" id="id-74427"><stop stop-color="#E19D89" offset="0%"></stop><stop stop-color="#FFBBA2" offset="100%"></stop></linearGradient><linearGradient x1="47%" y1="60%" x2="49%" y2="79%" id="id-74428"><stop stop-color="#E78666" offset="0%"></stop><stop stop-color="#E07C62" offset="60%"></stop><stop stop-color="#ED9F7D" offset="100%"></stop></linearGradient><linearGradient x1="29%" y1="56%" x2="69%" y2="53%" id="id-74429"><stop stop-color="#D47D53" offset="0%"></stop><stop stop-color="#C86443" offset="8%"></stop><stop stop-color="#D9774F" offset="18%"></stop><stop stop-color="#D26B50" offset="38%"></stop><stop stop-color="#D1694C" offset="65%"></stop><stop stop-color="#CD6944" offset="81%"></stop><stop stop-color="#BE5B3F" offset="100%"></stop></linearGradient><linearGradient x1="47%" y1="45%" x2="54%" y2="46%" id="id-74430"><stop stop-color="#D26A4C" offset="0%"></stop><stop stop-color="#C96947" offset="62%"></stop><stop stop-color="#BC5B3A" offset="77%"></stop><stop stop-color="#D18459" offset="100%"></stop></linearGradient><linearGradient x1="51%" y1="7%" x2="50%" y2="100%" id="id-74431"><stop stop-color="#D26C48" offset="0%"></stop><stop stop-color="#E28F6D" offset="75%"></stop><stop stop-color="#DA876B" offset="100%"></stop></linearGradient><linearGradient x1="51%" y1="11%" x2="49%" y2="93%" id="id-74432"><stop stop-color="#DC7E50" offset="0%"></stop><stop stop-color="#DA7B4D" offset="73%"></stop><stop stop-color="#E08955" offset="100%"></stop></linearGradient><linearGradient x1="51%" y1="-5%" x2="48%" y2="96%" id="id-74433"><stop stop-color="#D8794C" offset="0%"></stop><stop stop-color="#C6683E" offset="100%"></stop></linearGradient><linearGradient x1="50%" y1="19%" x2="50%" y2="69%" id="id-74434"><stop stop-color="#A84C29" offset="0%"></stop><stop stop-color="#742F19" offset="45%"></stop><stop stop-color="#A54622" offset="100%"></stop></linearGradient><linearGradient x1="46%" y1="74%" x2="39%" y2="35%" id="id-74435"><stop stop-color="#B04F3A" offset="0%"></stop><stop stop-color="#C6644A" offset="51%"></stop><stop stop-color="#9F5738" offset="100%" stop-opacity="0"></stop></linearGradient><linearGradient x1="46%" y1="16%" x2="49%" y2="82%" id="id-74436"><stop stop-color="#9B473D" offset="0%" stop-opacity="0.186"></stop><stop stop-color="#5F2520" offset="100%"></stop></linearGradient><linearGradient x1="41%" y1="19%" x2="50%" y2="100%" id="id-74437"><stop stop-color="#BE614B" offset="0%"></stop><stop stop-color="#9E4237" offset="100%"></stop></linearGradient><linearGradient x1="50%" y1="31%" x2="45%" y2="50%" id="id-74438"><stop stop-color="#D06C41" offset="0%"></stop><stop stop-color="#EC8E5F" offset="100%"></stop></linearGradient><linearGradient x1="51%" y1="22%" x2="50%" y2="100%" id="id-74439"><stop stop-color="#B0483C" offset="0%"></stop><stop stop-color="#BD6558" offset="100%"></stop></linearGradient><linearGradient x1="49%" y1="0%" x2="50%" y2="100%" id="id-74440"><stop stop-color="#D47449" offset="0%"></stop><stop stop-color="#E27C59" offset="100%"></stop></linearGradient><linearGradient x1="44%" y1="15%" x2="50%" y2="100%" id="id-74441"><stop stop-color="#B75738" offset="0%"></stop><stop stop-color="#A6503C" offset="100%"></stop></linearGradient><linearGradient x1="52%" y1="21%" x2="49%" y2="83%" id="id-74442"><stop stop-color="#DE7B50" offset="0%"></stop><stop stop-color="#E7845D" offset="48%"></stop><stop stop-color="#E28D63" offset="100%"></stop></linearGradient><linearGradient x1="85%" y1="60%" x2="15%" y2="60%" id="id-74443"><stop stop-color="#D27044" offset="0%"></stop><stop stop-color="#C06137" offset="100%"></stop></linearGradient><linearGradient x1="50%" y1="-3%" x2="59%" y2="91%" id="id-74444"><stop stop-color="#CE754C" offset="0%"></stop><stop stop-color="#CA6B41" offset="53%"></stop><stop stop-color="#BF6138" offset="66%"></stop><stop stop-color="#B8522C" offset="100%"></stop></linearGradient><linearGradient x1="55%" y1="48%" x2="46%" y2="33%" id="id-74445"><stop stop-color="#CE6E44" offset="0%"></stop><stop stop-color="#DF8152" offset="86%"></stop><stop stop-color="#D37547" offset="100%"></stop></linearGradient><linearGradient x1="50%" y1="19%" x2="50%" y2="78%" id="id-74446"><stop stop-color="#913919" offset="0%"></stop><stop stop-color="#AB4722" offset="50%"></stop><stop stop-color="#842C26" offset="100%"></stop></linearGradient><linearGradient x1="50%" y1="10%" x2="50%" y2="43%" id="id-74447"><stop stop-color="#C26338" offset="0%"></stop><stop stop-color="#C4643B" offset="15%"></stop><stop stop-color="#993E1B" offset="68%"></stop><stop stop-color="#B7512B" offset="100%"></stop></linearGradient><linearGradient x1="89%" y1="50%" x2="7%" y2="52%" id="id-74448"><stop stop-color="#8C371B" offset="0%"></stop><stop stop-color="#B85C4D" offset="53%" stop-opacity="0.199"></stop><stop stop-color="#A3451F" offset="75%"></stop><stop stop-color="#8D381A" offset="100%"></stop></linearGradient><linearGradient x1="44%" y1="70%" x2="86%" y2="30%" id="id-74449"><stop stop-color="#E39165" offset="0%"></stop><stop stop-color="#F0A57A" offset="100%"></stop></linearGradient><linearGradient x1="33%" y1="92%" x2="62%" y2="23%" id="id-74450"><stop stop-color="#C15B34" offset="0%"></stop><stop stop-color="#D27347" offset="40%"></stop><stop stop-color="#EFA478" offset="100%"></stop></linearGradient><linearGradient x1="35%" y1="94%" x2="47%" y2="12%" id="id-74451"><stop stop-color="#DC8458" offset="0%"></stop><stop stop-color="#D77E53" offset="40%"></stop><stop stop-color="#ECA478" offset="100%"></stop></linearGradient><linearGradient x1="50%" y1="54%" x2="27%" y2="9%" id="id-74452"><stop stop-color="#F7AB80" offset="0%"></stop><stop stop-color="#DDAB90" offset="100%" stop-opacity="0.078"></stop></linearGradient><linearGradient x1="50%" y1="0%" x2="93%" y2="69%" id="id-74453"><stop stop-color="#E99A6F" offset="0%"></stop><stop stop-color="#DD8557" offset="70%"></stop><stop stop-color="#C56138" offset="100%"></stop></linearGradient><linearGradient x1="36%" y1="84%" x2="25%" y2="44%" id="id-74454"><stop stop-color="#C98762" offset="0%" stop-opacity="0.509"></stop><stop stop-color="#90492C" offset="35%" stop-opacity="0.675"></stop><stop stop-color="#762E17" offset="100%" stop-opacity="0"></stop></linearGradient><linearGradient x1="63%" y1="95%" x2="43%" y2="20%" id="id-74455"><stop stop-color="#D27146" offset="0%"></stop><stop stop-color="#E29562" offset="46%"></stop><stop stop-color="#D17045" offset="100%"></stop></linearGradient><linearGradient x1="40%" y1="0%" x2="50%" y2="86%" id="id-74456"><stop stop-color="#D87C4D" offset="0%"></stop><stop stop-color="#DD8253" offset="100%"></stop></linearGradient><linearGradient x1="50%" y1="0%" x2="50%" y2="92%" id="id-74457"><stop stop-color="#E58656" offset="0%"></stop><stop stop-color="#E39361" offset="100%"></stop></linearGradient><linearGradient x1="33%" y1="79%" x2="21%" y2="44%" id="id-74458"><stop stop-color="#BE6457" offset="0%"></stop><stop stop-color="#983F32" offset="28%" stop-opacity="0.928"></stop><stop stop-color="#762E17" offset="100%" stop-opacity="0"></stop></linearGradient><linearGradient x1="4%" y1="47%" x2="92%" y2="45%" id="id-74459"><stop stop-color="#752B0F" offset="0%"></stop><stop stop-color="#83391D" offset="17%" stop-opacity="0.753"></stop><stop stop-color="#9E4B3D" offset="48%" stop-opacity="0.386"></stop><stop stop-color="#94401F" offset="78%" stop-opacity="0.762"></stop><stop stop-color="#88391A" offset="100%"></stop></linearGradient><linearGradient x1="60%" y1="45%" x2="67%" y2="53%" id="id-74460"><stop stop-color="#D57A51" offset="0%"></stop><stop stop-color="#FFB49C" offset="100%"></stop></linearGradient><linearGradient x1="48%" y1="15%" x2="54%" y2="81%" id="id-74461"><stop stop-color="#D99776" offset="0%" stop-opacity="0.400"></stop><stop stop-color="#E59B75" offset="100%"></stop></linearGradient><linearGradient x1="47%" y1="44%" x2="50%" y2="61%" id="id-74462"><stop stop-color="#943B2F" offset="0%" stop-opacity="0.175"></stop><stop stop-color="#61301B" offset="100%"></stop></linearGradient><linearGradient x1="26%" y1="-7%" x2="50%" y2="96%" id="id-74463"><stop stop-color="#37373F" offset="0%"></stop><stop stop-color="#19191D" offset="100%"></stop></linearGradient><linearGradient x1="50%" y1="12%" x2="59%" y2="82%" id="id-74464"><stop stop-color="#252525" offset="0%"></stop><stop stop-color="#101010" offset="100%"></stop></linearGradient><linearGradient x1="25%" y1="-16%" x2="50%" y2="98%" id="id-74465"><stop stop-color="#37373F" offset="0%"></stop><stop stop-color="#19191D" offset="100%"></stop></linearGradient><linearGradient x1="75%" y1="39%" x2="50%" y2="93%" id="id-74466"><stop stop-color="#252525" offset="0%"></stop><stop stop-color="#000000" offset="100%"></stop></linearGradient></defs><g transform=" translate(334,549)" id="id-74467"><polygon points="561 754 565 871 565 881 537 893 533 897 535 901 532 909 543 910 597 864" fill="#560304" id="id-74468"></polygon><polygon points="537 282 539 246 535 195 529 158 522 137 484 118 440 111 212 111 188 113 157 123 121 139 111 186 108 221 109 290" fill="url(#id-74421)" id="id-74468"></polygon><polygon points="467 393 474 506 503 589 537 672 556 728 561 754 546 794 552 851 551 861 552 874 556 885 567 882 568 866 570 860 570 843 571 834 576 843 576 859 579 864 573 874 571 884 544 903 541 916 582 901 597 864 607 852 600 821 597 716 589 695 582 655 569 523 544 425" fill="url(#id-74422)" id="id-74468"></polygon><polygon points="546 794 552 851 551 861 552 874 556 885 567 882 568 866 570 860 570 843 571 834 576 843 576 859 579 864 573 874 571 884 544 903 541 916 582 901 597 864 583 871 588 855 573 815 561 823" fill="url(#id-74423)" id="id-74468"></polygon><polygon points="552 851 551 861 552 874 556 887 567 884 568 866 570 860 558 860" fill="#8A2C25" id="id-74468"></polygon><polygon points="544 906 541 916 582 901 571 889" fill="#92352A" id="id-74468"></polygon><polygon points="561 754 548 789 566 819 586 806" fill="#BD8171" id="id-74468"></polygon><polygon points="486 648 477 599 453 529 440 504 437 490 439 460 449 402 456 340 188 343 198 411 202 493 162 596 153 638 266 693 319 721 386 693" fill="url(#id-74424)" id="id-74468"></polygon><polygon points="486 648 477 599 453 529 440 504 437 490 439 460 449 402 456 340 296 353 376 634" fill="#D06F45" id="id-74468"></polygon><g transform=" translate(188,0)" id="id-74477"><polygon points="274 114 253 111 232 100 201 76 188 58 184 1 93 1 88 64 25 111 1 113 103 123 121 135 134 138 149 121 161 117 187 119 225 114" fill="#D37245" id="id-74468"></polygon><polygon points="201 76 188 58 185 12 175 57 155 111 185 73" fill="#EB9E6D" id="id-74468"></polygon><polygon points="149 1 93 1 88 64 108 126 121 135 133 138" fill="#C1663D" id="id-74468"></polygon><polygon points="116 102 120 113 118 115 136 135 150 119 164 71 125 108" fill="#B65C38" id="id-74481"></polygon><polygon points="121 127 133 138 145 124" fill="#AC3F1F" id="id-74482"></polygon><polygon points="136 98 164 71 175 57 186 17 134 51" fill="#DA854F" id="id-74483"></polygon><polygon points="97 96 116 80 164 60 178 48 186 17 184 1 93 1 88 64 45 96" fill="#A14F27" opacity="0.654" id="id-74468"></polygon><polygon points="186 17 184 1 93 1 88 64 45 96 66 96" fill="url(#id-74425)" opacity="0.467" id="id-74468"></polygon><polygon points="123 58 176 23 186 17 184 1 93 1 91 22 108 55" fill="#381404" opacity="0.434" id="id-74468"></polygon></g><polygon points="41 844 33 856 36 895 64 915 84 911 83 903 71 898 72 892 63 884 52 849" fill="url(#id-74426)" id="id-74468"></polygon><polygon points="315 152 285 173 320 188 357 166" fill="#FAAF86" id="id-74488"></polygon><polygon points="327 150 370 130 342 127" fill="#D5774A" id="id-74489"></polygon><polygon points="301 142 303 148 243 131 240 119 276 119" fill="#D5774A" id="id-74490"></polygon><polygon points="159 149 206 123 269 123 303 144 297 118 188 113 157 123 121 139" fill="url(#id-74427)" id="id-74468"></polygon><polygon points="157 123 121 139 153 167 196 134" fill="#FFBBA2" id="id-74468"></polygon><polygon points="89 584 77 541 62 551 45 658 34 712 25 741 25 762 10 817 0 845 14 870 25 901 58 919 72 919 69 913 61 905 50 899 37 874 37 852 43 845 52 855 50 887 56 901 64 905 66 901 66 882 72 836 72 800 69 781 64 773 66 735 85 684 121 599 162 510" fill="url(#id-74428)" id="id-74468"></polygon><polygon points="89 584 77 541 62 551 45 658 48 715 121 599 162 510" fill="#D37347" id="id-74468"></polygon><polygon points="55 843 45 827 37 848 17 852 8 836 5 851 0 845 14 870 25 901 58 919 72 919 69 913 61 905 50 899 37 874 37 852 43 845 52 855 50 887 56 901 64 905 66 901 66 882 72 836" fill="#D16753" id="id-74468"></polygon><polygon points="53 882 52 892 56 901 64 905 66 901 66 882 67 876" fill="#B24B40" id="id-74468"></polygon><polygon points="25 901 58 919 72 919 62 909 37 895" fill="#B44D41" id="id-74468"></polygon><polygon points="160 467 145 488 108 578 45 777 48 797 64 773 66 735 85 684 121 599 162 510" fill="#B04C25" id="id-74468"></polygon><polygon points="169 1211 277 1211 282 1183 281 1150 284 1127 286 1114 285 1063 293 972 306 866 311 792 309 768 323 771 337 768 333 817 333 855 339 924 346 1008 348 1113 351 1130 353 1176 361 1211 461 1211 458 1191 456 1170 460 1133 461 1082 505 905 516 839 518 826 512 762 503 706 486 648 482 629 386 690 318 718 266 690 184 629 153 637 132 731 119 781 118 813 123 862 131 916 166 1094 176 1179" fill="url(#id-74429)" id="id-74468"></polygon><polygon points="463 664 416 771 400 819 392 1125 359 1178 398 1204 441 1153 461 1082 505 905 516 839 518 826 515 789 490 714" fill="url(#id-74430)" id="id-74468"></polygon><polygon points="422 1160 395 1199 365 1171 401 1149 384 1120 391 983 411 786 416 771 448 697 454 1013 445 1116 407 1149" fill="url(#id-74431)" id="id-74501"></polygon><polygon points="121 139 111 186 108 221 109 290 96 438 89 464 69 510 89 585 162 510 167 425 162 241" fill="url(#id-74432)" id="id-74468"></polygon><polygon points="101 466 103 488 106 510 160 447 179 359 164 232 187 184 186 179 132 181 161 234 161 321 149 376 151 384 123 461 114 466" fill="url(#id-74433)" id="id-74503"></polygon><polygon points="96 438 89 464 69 510 51 621 101 520 96 476" fill="#FFAF88" id="id-74468"></polygon><polygon points="96 451 128 365 134 316 121 139 111 186 108 221 109 290 96 438" fill="#C5673B" id="id-74468"></polygon><polygon points="184 241 177 248 162 225 138 289 161 321 170 375 161 420 151 411 162 510 167 425 188 343" fill="url(#id-74434)" id="id-74468"></polygon><polygon points="284 1127 286 1114 285 1063 293 972 306 866 311 792 309 768 323 771 337 768 333 817 333 855 339 924 346 1008 375 889 416 771 463 664 490 714 515 790 512 762 503 706 486 648 477 599 471 583 420 650 316 720 201 654 244 742 264 824 275 994" fill="url(#id-74435)" id="id-74468"></polygon><polygon points="298 930 306 866 311 792 309 768 323 771 337 768 333 817 333 855 336 894 347 826 360 784 378 733 388 687 321 739 254 687 267 736 291 821" fill="url(#id-74436)" id="id-74468"></polygon><polygon points="348 1093 348 1113 351 1130 353 1176 361 1211 461 1211 439 1155 422 1136 403 1148 429 1168 400 1202 370 1170 382 1125" fill="url(#id-74437)" id="id-74468"></polygon><polygon points="10 855 8 836 5 851 0 845 14 870" fill="#AF4A3E" id="id-74468"></polygon><polygon points="520 500 516 520 544 629 474 500 490 399" fill="url(#id-74438)" id="id-74511"></polygon><polygon points="461 1211 458 1191 456 1170 460 1133 461 1082 439 1155 450 1211" fill="url(#id-74439)" id="id-74468"></polygon><polygon points="220 1149 259 1115 240 1063 232 973 266 819 240 713 201 661 158 650 201 784 183 925 170 1083" fill="url(#id-74440)" id="id-74513"></polygon><polygon points="169 1211 277 1211 282 1183 281 1150 284 1127 286 1114 286 1098 226 1211 207 1211 196 1121 173 1078 150 1014 166 1094 176 1179" fill="url(#id-74441)" id="id-74468"></polygon><polygon points="173 1078 183 924 150 1014" fill="#C56242" id="id-74468"></polygon><polygon points="169 1211 239 1211 230 1196 204 1175 173 1150 176 1179" fill="#8E332E" opacity="0.574" id="id-74468"></polygon><polygon points="221 1130 240 1097 224 1063 224 983 240 804 217 698 190 668 212 771 212 910 190 998 181 1094" fill="url(#id-74442)" id="id-74513"></polygon><polygon points="217 795 221 692 200 667 169 658 200 737" fill="#F09C6B" id="id-74518"></polygon><polygon points="511 476 492 419 481 447 484 356 521 274 533 417" fill="url(#id-74443)" id="id-74519"></polygon><polygon points="569 523 544 425 542 346 537 282 539 246 535 195 529 158 522 137 494 161 419 158 471 211 516 290 525 411 511 477 518 507 535 462 562 543" fill="url(#id-74444)" id="id-74468"></polygon><polygon points="486 389 533 243 501 167 464 207 451 247 463 265" fill="url(#id-74445)" id="id-74521"></polygon><polygon points="473 490 474 506 503 589 537 672 556 728 561 754 567 712 543 623" fill="#AE522F" id="id-74468"></polygon><polygon points="460 328 466 378 474 506 490 425 486 392 469 274 479 230 461 260 454 251" fill="url(#id-74446)" id="id-74468"></polygon><polygon points="440 504 437 490 439 460 449 402 456 340 458 328 325 282 188 343 198 411 202 493 162 596 157 621 161 633 169 599 173 570 204 506 202 458 217 402 286 365 321 352 353 360 422 402 431 493 437 520" fill="url(#id-74447)" id="id-74468"></polygon><polygon points="451 385 456 340 458 328 364 340 330 308 268 343 188 343 194 379 262 368 312 343 335 340 381 368" fill="url(#id-74448)" id="id-74468"></polygon><polygon points="286 328 306 310 330 274 453 252 464 205 421 156 317 204 219 165 210 154 188 180" fill="url(#id-74449)" id="id-74526"></polygon><path d=" M 422,195 L 405,190 C 377,190 357,198 343,214 C 329,230 322,250 323,276 C 324,301 331,320 345,333 C 365,351 384,356 405,356 C 425,356 444,347 450,342 C 454,339 457,335 460,328 C 463,323 466,317 467,308 C 469,294 466,276 457,254 L 422,195 Z" fill="url(#id-74450)" id="id-74527"></path><path d=" M 422,195 L 417,175 C 386,188 366,196 358,201 C 355,203 351,206 348,208 C 348,209 381,253 448,342 C 454,338 459,332 463,324 C 469,310 469,301 469,293 C 469,287 465,275 459,257 L 422,195 Z" fill="url(#id-74451)" id="id-74527"></path><path d=" M 375,226 C 338,253 343,276 343,284 C 343,291 353,319 371,335 C 379,342 422,349 447,331 C 468,316 472,294 458,265 C 427,221 400,208 375,226 Z" fill="url(#id-74452)" opacity="0.282" id="id-74527"></path><path d=" M 272,205 C 260,199 243,200 221,209 C 187,227 169,258 168,303 C 167,319 184,342 190,346 C 197,351 212,356 239,353 C 257,351 272,344 284,333 C 303,312 312,288 309,260 C 305,217 291,214 272,205 Z" fill="url(#id-74453)" id="id-74530"></path><path d=" M 340,285 C 333,252 328,240 326,248 C 324,254 323,263 323,276 C 324,301 331,320 345,333 C 365,351 382,356 404,356 C 425,356 444,347 450,342 C 456,337 465,325 468,308 C 472,290 465,276 463,268 C 461,263 460,259 458,255 L 442,290 L 399,304 L 366,300 L 340,285 Z" fill="url(#id-74454)" id="id-74527"></path><path d=" M 153,637 L 149,654 L 132,731 L 130,739 C 133,730 135,723 137,718 C 140,709 147,691 149,680 C 151,671 155,655 161,633 L 172,570 L 162,596 L 153,637 Z" fill="#7D362E" id="id-74468"></path><path d=" M 259,203 C 254,199 240,185 217,163 L 210,153 L 186,180 C 192,211 192,231 186,239 C 175,256 168,277 168,303 C 168,324 190,352 239,344 C 252,342 274,217 259,203 Z" fill="#E39165" id="id-74530"></path><polygon points="175 565 203 550 234 558 241 520 203 455 203 507" fill="#B04924" id="id-74534"></polygon><polygon points="241 442 241 518 229 556 233 629 266 657 316 707 381 659 395 629 364 504 350 504 301 380" fill="url(#id-74455)" id="id-74535"></polygon><polygon points="432 626 427 589 407 518 414 505 450 568 470 618" fill="url(#id-74456)" id="id-74536"></polygon><polygon points="302 376 254 442 254 546 302 590 364 568 364 504 350 504 376 454 345 400" fill="url(#id-74457)" id="id-74535"></polygon><polygon points="317 480 342 436 319 413 300 447" fill="#DA7B4E" id="id-74538"></polygon><polygon points="304 541 318 507 329 541 314 549" fill="#D17045" id="id-74539"></polygon><polygon points="306 543 316 578 329 541" fill="#E99A65" id="id-74540"></polygon><path d=" M 178,333 C 179,334 180,336 182,338 C 184,342 186,343 189,346 C 190,347 197,351 206,353 C 215,354 226,355 239,353 C 257,351 272,344 284,333 C 293,322 299,313 302,305 C 304,301 307,293 309,277 C 310,274 310,268 309,260 L 228,277 L 207,295 L 178,333 Z" fill="url(#id-74458)" id="id-74530"></path><polygon points="306 543 308 550 324 556 329 541" fill="#E9A376" id="id-74540"></polygon><polygon points="308 543 318 525 323 542 314 548" fill="#8F4427" id="id-74543"></polygon><polygon points="152 641 162 596 176 561 185 617 214 602 246 628 323 690 404 628 423 605 454 605 470 577 477 599 482 629 388 689 337 768 323 771 309 768 259 688 175 639 142 688" fill="url(#id-74459)" opacity="0.442" id="id-74544"></polygon><polygon points="490 154 522 137 484 118 412 123" fill="url(#id-74460)" id="id-74468"></polygon><polygon points="573 785 588 829 602 858 607 852 600 821 597 716 576 763" fill="#E19271" id="id-74468"></polygon><polygon points="574 722 589 695 582 655 533 542" fill="url(#id-74461)" id="id-74468"></polygon><polygon points="172 640 241 690 309 768 323 771 338 768 395 706 469 661 404 650 313 706 217 629" fill="url(#id-74462)" opacity="0.571" id="id-74548"></polygon><g transform=" translate(188,270)" id="id-74549"><polygon points="207 13 207 10 217 2 220 2 239 21 258 39 260 42 250 51 246 52 226 33" fill="url(#id-74463)" id="id-74550"></polygon><polygon points="208 40 218 50 222 50 240 33 257 13 257 9 247 0 244 1 230 19 209 36" fill="url(#id-74464)" id="id-74551"></polygon><polygon points="1 13 1 10 10 2 15 2 32 21 50 39 52 42 42 52 38 52 19 33" fill="url(#id-74465)" id="id-74550"></polygon><polygon points="0 43 10 53 14 53 33 35 50 15 50 11 40 3 36 4 19 23 1 39" fill="url(#id-74466)" id="id-74551"></polygon></g></g><defs><linearGradient x1="68%" y1="4%" x2="68%" y2="39%" id="id-75205"><stop stop-color="#CF915B" offset="0%"></stop><stop stop-color="#A2582E" offset="100%"></stop></linearGradient><linearGradient x1="63%" y1="29%" x2="43%" y2="65%" id="id-75206"><stop stop-color="#EF9D68" offset="0%"></stop><stop stop-color="#CA8252" offset="100%"></stop></linearGradient><linearGradient x1="60%" y1="73%" x2="11%" y2="32%" id="id-75207"><stop stop-color="#F0A97B" offset="0%"></stop><stop stop-color="#E7976B" offset="100%"></stop></linearGradient><linearGradient x1="79%" y1="15%" x2="31%" y2="87%" id="id-75208"><stop stop-color="#D98757" offset="0%"></stop><stop stop-color="#E99F6F" offset="100%"></stop></linearGradient><radialGradient cx="50%" cy="46%" r="72%" id="id-75209" fx="50%" fy="46%" gradientTransform=" translate(0.500,0.465) scale(0.889,1) rotate(90) scale(1,1) translate(-0.500,-0.465)"><stop stop-color="#FBAF7C" offset="0%"></stop><stop stop-color="#8E4218" offset="100%"></stop></radialGradient><linearGradient x1="32%" y1="4%" x2="54%" y2="75%" id="id-75210"><stop stop-color="#B5673B" offset="0%"></stop><stop stop-color="#D69065" offset="38%"></stop><stop stop-color="#CD7F54" offset="100%"></stop></linearGradient><linearGradient x1="11%" y1="50%" x2="57%" y2="50%" id="id-75211"><stop stop-color="#D88A61" offset="0%"></stop><stop stop-color="#F4A678" offset="100%"></stop></linearGradient><linearGradient x1="50%" y1="0%" x2="50%" y2="100%" id="id-75212"><stop stop-color="#DF8A54" offset="0%"></stop><stop stop-color="#BD693B" offset="100%"></stop></linearGradient><linearGradient x1="50%" y1="0%" x2="50%" y2="65%" id="id-75213"><stop stop-color="#E8A174" offset="0%"></stop><stop stop-color="#F9BB92" offset="100%"></stop></linearGradient><linearGradient x1="93%" y1="38%" x2="20%" y2="70%" id="id-75214"><stop stop-color="#EBA776" offset="0%"></stop><stop stop-color="#F5BF98" offset="60%"></stop><stop stop-color="#CA8252" offset="100%"></stop></linearGradient><linearGradient x1="17%" y1="66%" x2="58%" y2="41%" id="id-75215"><stop stop-color="#F3BA91" offset="0%"></stop><stop stop-color="#FCDFC9" offset="100%"></stop></linearGradient><linearGradient x1="25%" y1="46%" x2="50%" y2="58%" id="id-75216"><stop stop-color="#B55E35" offset="0%"></stop><stop stop-color="#C46A3C" offset="100%"></stop></linearGradient><linearGradient x1="75%" y1="15%" x2="41%" y2="68%" id="id-75217"><stop stop-color="#F0AA7E" offset="0%"></stop><stop stop-color="#F5BB97" offset="100%"></stop></linearGradient><linearGradient x1="43%" y1="47%" x2="85%" y2="53%" id="id-75218"><stop stop-color="#903F1B" offset="0%"></stop><stop stop-color="#B45C2E" offset="100%"></stop></linearGradient><linearGradient x1="65%" y1="43%" x2="13%" y2="55%" id="id-75219"><stop stop-color="#7B3014" offset="0%"></stop><stop stop-color="#813113" offset="100%"></stop></linearGradient><linearGradient x1="85%" y1="61%" x2="16%" y2="50%" id="id-75220"><stop stop-color="#E3956C" offset="0%"></stop><stop stop-color="#D0825C" offset="100%"></stop></linearGradient><linearGradient x1="50%" y1="34%" x2="72%" y2="84%" id="id-75221"><stop stop-color="#C06E40" offset="0%"></stop><stop stop-color="#D7795C" offset="42%"></stop><stop stop-color="#D07E52" offset="59%"></stop><stop stop-color="#DB885D" offset="100%"></stop></linearGradient><linearGradient x1="50%" y1="50%" x2="50%" y2="78%" id="id-75222"><stop stop-color="#F3B28C" offset="0%"></stop><stop stop-color="#EC8C70" offset="100%"></stop></linearGradient><linearGradient x1="36%" y1="33%" x2="50%" y2="71%" id="id-75223"><stop stop-color="#D26945" offset="0%"></stop><stop stop-color="#A63821" offset="100%"></stop></linearGradient><linearGradient x1="0%" y1="50%" x2="100%" y2="50%" id="id-75224"><stop stop-color="#C46F40" offset="0%"></stop><stop stop-color="#DF9F77" offset="42%"></stop><stop stop-color="#C36F3F" offset="100%"></stop></linearGradient><linearGradient x1="50%" y1="57%" x2="-8%" y2="54%" id="id-75225"><stop stop-color="#9C4A26" offset="0%"></stop><stop stop-color="#662A11" offset="100%"></stop></linearGradient><linearGradient x1="14%" y1="61%" x2="23%" y2="56%" id="id-75226"><stop stop-color="#AB4B21" offset="0%"></stop><stop stop-color="#B45C31" offset="100%"></stop></linearGradient><linearGradient x1="48%" y1="50%" x2="55%" y2="57%" id="id-75227"><stop stop-color="#E1885B" offset="0%"></stop><stop stop-color="#B8603B" offset="100%"></stop></linearGradient><linearGradient x1="50%" y1="0%" x2="43%" y2="121%" id="id-75228"><stop stop-color="#F3D2BA" offset="0%"></stop><stop stop-color="#EEAB96" offset="100%"></stop></linearGradient><linearGradient x1="100%" y1="37%" x2="80%" y2="57%" id="id-75229"><stop stop-color="#9E421E" offset="0%"></stop><stop stop-color="#CF784A" offset="100%"></stop></linearGradient><linearGradient x1="55%" y1="43%" x2="43%" y2="53%" id="id-75230"><stop stop-color="#BE663B" offset="0%"></stop><stop stop-color="#B3592E" offset="100%"></stop></linearGradient><linearGradient x1="72%" y1="4%" x2="28%" y2="76%" id="id-75231"><stop stop-color="#B15A37" offset="0%"></stop><stop stop-color="#7D341B" offset="100%"></stop></linearGradient><linearGradient x1="22%" y1="50%" x2="83%" y2="50%" id="id-75232"><stop stop-color="#C2805E" offset="0%"></stop><stop stop-color="#903A22" offset="100%"></stop></linearGradient><linearGradient x1="82%" y1="54%" x2="50%" y2="59%" id="id-75233"><stop stop-color="#843818" offset="0%"></stop><stop stop-color="#BA663F" offset="100%"></stop></linearGradient><linearGradient x1="25%" y1="53%" x2="75%" y2="52%" id="id-75234"><stop stop-color="#E1BB9F" offset="0%"></stop><stop stop-color="#C08666" offset="100%"></stop></linearGradient><linearGradient x1="50%" y1="0%" x2="50%" y2="80%" id="id-75235"><stop stop-color="#B2401E" offset="0%"></stop><stop stop-color="#C84D2C" offset="100%"></stop></linearGradient><linearGradient x1="50%" y1="0%" x2="50%" y2="100%" id="id-75236"><stop stop-color="#EC5F3D" offset="0%"></stop><stop stop-color="#D65032" offset="100%"></stop></linearGradient><linearGradient x1="109%" y1="50%" x2="23%" y2="43%" id="id-75237"><stop stop-color="#B55D33" offset="0%"></stop><stop stop-color="#C18055" offset="100%"></stop></linearGradient></defs><g transform=" translate(561,332)" id="id-75238"><g transform=" translate(172,115)" id="id-75239"><polygon points="14 1 18 0 25 8 27 21 24 41 14 66 0 68" fill="url(#id-75205)" id="id-75240"></polygon><polygon points="12 48 19 50 23 42 26 24 20 12 12 22" fill="#CB8154" id="id-75241"></polygon><polygon points="11 21 17 10 20 5 24 7 26 24 20 36 18 31 20 16 9 29" fill="#8E4015" id="id-75242"></polygon><polygon points="10 28 11 38 8 45 13 49 19 38 13 24" fill="#7D3102" id="id-75243"></polygon><polygon points="12 18 17 17 18 9" fill="#5B1C00" id="id-75244"></polygon><polygon points="18 50 10 51 8 50 5 61 12 63 14 61" fill="#E68969" id="id-75245"></polygon></g><g transform=" translate(0,113)" id="id-75246"><polygon points="13 0 5 0 0 13 4 36 13 63 25 67" fill="#D07C59" id="id-75247"></polygon><polygon points="5 9 0 13 4 36 13 63 25 67 13 24" fill="#CA7F53" id="id-75247"></polygon><polygon points="18 46 14 47 7 32 11 26 4 9 6 5 16 20 17 29" fill="#AB5E32" id="id-75249"></polygon><polygon points="13 62 20 62 18 49 11 53" fill="#AE6135" id="id-75250"></polygon><polygon points="25 68 13 63 20 62 17 46 14 47 13 44 14 29 17 26 14 22 10 19 10 11 17 20" fill="#7D3001" id="id-75251"></polygon><polygon points="13 9 4 3 5 0 12 0" fill="#E19B77" id="id-75252"></polygon></g><path d=" M 29,199 C 21,167 16,144 15,130 C 4,44 33,0 103,0 C 180,0 191,63 186,119 C 183,157 173,191 170,202 C 169,206 167,213 164,217 C 143,234 127,244 115,249 L 81,249 C 71,246 56,236 36,218 C 34,215 32,208 29,199 Z" fill="#D1865A" opacity="0.966" id="id-75253"></path><polygon points="36 106 25 118 37 39 104 9 160 39 166 105 106 122" fill="url(#id-75206)" id="id-75254"></polygon><polygon points="120 178 110 136 130 128 178 139 169 176 139 192" fill="url(#id-75207)" id="id-75255"></polygon><polygon points="169 161 135 146 164 134 176 140" fill="#F6AA7A" id="id-75256"></polygon><polygon points="169 161 156 155 176 140" fill="url(#id-75208)" id="id-75256"></polygon><path d=" M 19,155 C 17,145 16,137 15,130 C 4,44 33,0 103,0 C 180,0 191,63 186,119 C 185,128 184,136 183,145 L 148,128 L 142,124 L 162,99 C 162,80 157,59 148,36 C 125,28 107,26 95,28 C 83,31 66,39 45,53 L 39,91 L 28,114 L 42,106 L 19,155 Z" fill="url(#id-75209)" opacity="0.966" id="id-75253"></path><polygon points="77 145 37 128 23 149 57 218 88 200" fill="url(#id-75210)" id="id-75259"></polygon><polygon points="69 192 59 171 70 146 85 132 94 140 87 186" fill="#D99168" id="id-75260"></polygon><polygon points="85 180 68 192 72 205 130 208 138 197 114 170" fill="url(#id-75211)" id="id-75261"></polygon><polygon points="74 204 70 202 57 211 76 239 132 235 143 205 136 197 125 204" fill="url(#id-75212)" id="id-75262"></polygon><polygon points="91 200 95 178 107 178 112 200" fill="url(#id-75213)" id="id-75263"></polygon><path d=" M 38,101 L 64,86 C 69,68 73,57 76,53 C 79,50 94,46 119,41 L 151,70 L 126,114 L 81,113 L 73,99 L 38,101 Z" fill="url(#id-75214)" id="id-75264"></path><polygon points="156 99 123 78 105 98 127 111" fill="url(#id-75215)" id="id-75265"></polygon><polygon points="91 200 93 192 102 194 110 193 112 200" fill="#FFD9B0" id="id-75263"></polygon><polygon points="74 218 67 215 74 207 130 206 130 213 119 213" fill="#EDA177" id="id-75267"></polygon><polygon points="80 211 69 221 89 231 120 232 129 227 123 209" fill="url(#id-75216)" id="id-75268"></polygon><polygon points="141 204 117 180 128 170 150 185" fill="url(#id-75217)" id="id-75269"></polygon><polygon points="28 151 39 132 64 125 49 107 32 109 23 145" fill="#B6663A" id="id-75270"></polygon><polygon points="80 110 93 132 80 138 34 131 27 127 44 119" fill="url(#id-75218)" id="id-75271"></polygon><polygon points="30 117 27 127 45 106 61 121 79 130 56 105 40 104" fill="url(#id-75219)" id="id-75272"></polygon><polygon points="91 140 73 164 89 164 121 175 126 171 133 174 113 148" fill="url(#id-75220)" id="id-75273"></polygon><polygon points="84 181 93 185 109 186 117 182 120 177" fill="#642C18" opacity="0.599" id="id-75274"></polygon><polygon points="123 135 114 141 123 168 123 174 117 180 81 173 80 170 81 166 90 138 86 133 101 127" fill="url(#id-75221)" id="id-75275"></polygon><polygon points="79 111 99 104 121 113 107 143 98 143" fill="#E49061" id="id-75276"></polygon><polygon points="101 119 96 132 96 153 83 175 120 176 107 154 107 132" fill="url(#id-75222)" id="id-75277"></polygon><polygon points="90 163 83 175 99 175" fill="#DF765D" id="id-75277"></polygon><path d=" M 80,170 L 80,178 L 84,181 L 90,180 L 109,180 L 116,181 C 118,180 120,178 121,176 C 122,174 122,172 122,170 L 119,176 C 114,174 109,172 103,171 C 98,171 92,172 85,174 L 84,173 L 95,154 L 93,156 L 80,170 Z" fill="url(#id-75223)" id="id-75279"></path><path d=" M 105,179 C 106,177 109,176 111,176 C 113,176 116,176 119,176 C 115,174 111,173 107,172 C 106,172 105,174 105,179 Z" fill="#CE6065" id="id-75279"></path><path d=" M 87,180 L 98,180 C 96,177 94,176 91,176 C 89,176 87,177 87,180 Z" fill="#60140D" id="id-75281"></path><path d=" M 105,180 L 113,181 C 115,178 114,176 112,176 C 109,176 106,177 105,180 Z" fill="#5B120B" id="id-75282"></path><polygon points="88 220 94 227 111 227 116 218" fill="#621608" id="id-75283"></polygon><path d=" M 76,233 C 85,229 94,226 103,226 C 112,226 121,229 130,233 L 117,246 L 86,246 L 76,233 Z" fill="url(#id-75224)" id="id-75284"></path><path d=" M 113,227 C 117,228 122,230 130,233 L 117,246 L 101,242 L 113,227 Z" fill="#F5B78E" opacity="0.499" id="id-75284"></path><path d=" M 94,229 C 99,227 100,227 105,227 C 107,227 109,228 112,228 C 109,233 106,236 104,237 C 96,232 93,229 94,229 Z" fill="#F0BA9F" id="id-75284"></path><polygon points="80 140 73 146 51 147 37 135 46 132 51 138 73 140" fill="url(#id-75225)" id="id-75287"></polygon><path d=" M 26,119 L 39,110 L 50,111 L 53,114 L 57,114 L 57,112 L 60,114 L 63,114 L 63,113 L 67,116 L 76,118 L 76,115 L 68,105 C 63,104 59,103 55,102 C 52,102 46,101 39,101 L 26,115 L 26,119 Z" fill="#501C0D" id="id-75288"></path><polygon points="26 119 39 110 43 107 57 105 39 101 26 115" fill="#220F06" id="id-75288"></polygon><polygon points="77 113 73 107 76 107" fill="#501C0D" id="id-75290"></polygon><polygon points="80 114 79 109 81 110" fill="#501C0D" id="id-75291"></polygon><path d=" M 29,199 C 21,167 16,144 15,130 C 15,129 28,148 55,188 L 64,222 L 88,242 L 104,239 L 118,242 L 129,230 C 154,219 166,214 164,217 C 143,234 127,244 115,249 L 81,249 C 71,246 56,236 36,218 C 34,215 32,208 29,199 Z" fill="url(#id-75226)" opacity="0.966" id="id-75253"></path><path d=" M 118,242 L 129,230 L 147,183 L 167,160 L 172,141 L 186,119 C 183,157 173,191 170,202 C 169,206 167,213 164,217 C 145,232 132,241 125,245 C 122,246 120,245 118,242 Z" fill="url(#id-75227)" opacity="0.966" id="id-75253"></path><polygon points="42 190 29 150 55 188 64 222" fill="#C1673F" opacity="0.966" id="id-75253"></polygon><path d=" M 182,70 C 184,81 184,98 184,122 C 176,168 172,195 170,202 C 169,206 167,213 164,217 C 150,228 140,235 134,239 L 163,214 L 179,154 L 179,108 L 175,113 L 168,106 L 182,70 Z" fill="#E58F9B" opacity="0.966" id="id-75253"></path><path d=" M 95,166 L 101,168 C 107,166 108,165 107,165 C 104,164 100,164 95,166 Z" fill="#F5AA9C" id="id-75296"></path><polygon points="107 154 100 151 96 154 100 140 97 134 102 130 106 133 104 140" fill="url(#id-75228)" id="id-75297"></polygon><polygon points="108 154 122 169 119 175 115 167 109 170 113 164" fill="#C56443" id="id-75298"></polygon><path d=" M 166,131 C 169,130 171,129 172,127 C 173,125 174,121 175,115 L 164,104 L 151,105 L 137,122 L 166,131 Z" fill="url(#id-75229)" id="id-75299"></path><polygon points="123 135 117 140 124 143 131 139" fill="#F3B693" id="id-75300"></polygon><path d=" M 111,132 L 124,135 L 168,130 C 165,125 162,121 157,119 C 152,117 147,116 139,117 L 119,109 L 114,118 L 116,122 L 111,132 Z" fill="url(#id-75230)" id="id-75301"></path><polygon points="121 134 134 113 150 109 138 125" fill="url(#id-75231)" id="id-75302"></polygon><path d=" M 124,135 C 128,128 134,124 142,123 C 150,122 158,125 168,132 L 124,135 Z" fill="url(#id-75232)" id="id-75303"></path><polygon points="125 143 138 147 153 147 165 134 158 130 127 138" fill="url(#id-75233)" id="id-75304"></polygon><path d=" M 128,135 L 126,139 L 151,140 L 160,134 C 155,130 150,128 145,128 C 140,128 134,131 128,135 Z" fill="#E9D5DF" id="id-75305"></path><path d=" M 130,140 L 133,135 L 150,133 L 156,137 L 160,134 C 155,130 149,128 142,129 C 135,130 130,133 126,139 L 130,140 Z" fill="#000000" opacity="0.295" id="id-75306"></path><polygon points="124 140 143 140 152 140 160 134 158 133 151 138 128 139" fill="url(#id-75234)" id="id-75307"></polygon><polygon points="129 135 128 137 136 138 129 139 124 139 125 138" fill="#9D5133" id="id-75308"></polygon><polygon points="134 130 131 128 142 124 146 127" fill="#EDB57F" id="id-75309"></polygon><path d=" M 132,134 C 134,137 137,139 142,139 C 148,138 150,135 150,130 C 145,129 141,129 138,129 C 136,130 134,131 132,134 Z" fill="#200C09" id="id-75310"></path><path d=" M 135,135 C 135,137 137,138 142,138 C 147,137 149,136 147,133 C 147,134 145,134 143,135 C 141,135 138,135 135,135 Z" fill="#BF0526" id="id-75310"></path><polygon points="139 132 137 132 137 134 141 133 141 132 143 132 143 131 139 131" fill="#B49EBB" id="id-75312"></polygon><path d=" M 125,138 C 132,133 138,130 144,130 C 150,130 156,132 163,136 L 171,129 L 162,130 C 154,127 147,127 140,128 C 134,129 129,133 125,138 Z" fill="#200F09" id="id-75313"></path><polygon points="147 145 147 141 143 141" fill="#2D130A" id="id-75314"></polygon><polygon points="150 140 154 143 153 140" fill="#2D130A" id="id-75315"></polygon><polygon points="155 139 162 140 158 136 157 137" fill="#2D130A" id="id-75316"></polygon><polygon points="122 119 130 111 126 118 131 115 133 117 137 112 138 114 142 113 142 112 145 113 155 109 163 108 174 117 174 112 162 99 150 99 129 104" fill="#662913" id="id-75317"></polygon><polygon points="160 105 174 117 174 112 162 99 141 106" fill="#36150E" id="id-75317"></polygon><polygon points="77 210 72 210 72 205 79 205 125 203 132 203 134 206 131 209" fill="#97211C" id="id-75319"></polygon><polygon points="77 209 75 209 76 206 102 200 130 206 131 208" fill="#530C03" id="id-75320"></polygon><path d=" M 74,205 C 80,206 84,206 88,206 C 93,206 97,204 102,204 C 107,204 111,206 115,206 C 118,206 122,205 126,204 C 121,200 116,197 111,193 C 110,193 106,194 102,197 C 96,195 93,194 92,194 C 87,197 80,201 74,205 Z" fill="url(#id-75235)" id="id-75321"></path><path d=" M 76,209 C 79,211 86,224 103,223 C 119,222 123,211 129,208 C 117,206 117,207 101,208 C 94,209 90,206 76,209 Z" fill="#A13421" id="id-75322"></path><path d=" M 76,209 C 78,210 80,215 86,218 C 90,221 118,219 122,215 C 124,212 127,209 129,208 C 117,206 117,207 101,208 C 94,209 90,206 76,209 Z" fill="url(#id-75236)" id="id-75322"></path><path d=" M 76,209 C 78,210 80,215 86,218 C 90,221 118,219 122,215 C 124,212 127,209 129,208 C 117,206 118,217 102,218 C 85,219 90,206 76,209 Z" fill="#D04E2F" id="id-75322"></path><path d=" M 89,212 C 91,214 94,215 97,214 C 101,213 106,212 113,212 C 109,210 106,210 104,210 C 99,211 96,210 91,211 C 90,211 90,212 89,212 Z" fill="#FA827F" id="id-75325"></path><polygon points="50 128 50 122 64 123 65 128" fill="url(#id-75237)" id="id-75326"></polygon><path d=" M 41,126 C 47,123 52,121 57,122 C 62,123 70,126 80,131 C 72,123 63,119 54,119 C 46,120 41,122 41,126 Z" fill="#662917" id="id-75327"></path><polygon points="60 139 79 141 84 137" fill="#F8B291" id="id-75328"></polygon><polygon points="69 138 80 138 80 137 75 134 75 137" fill="#902727" id="id-75329"></polygon><path d=" M 47,132 L 50,138 C 56,138 60,139 63,138 C 66,138 70,138 75,137 C 75,136 75,135 75,134 C 71,130 65,129 61,128 C 56,127 51,129 47,132 Z" fill="#D2B3B9" id="id-75330"></path><path d=" M 53,131 C 54,135 56,138 61,138 C 66,138 69,136 70,131 C 66,129 62,128 60,128 C 58,128 56,129 53,131 Z" fill="#250B06" id="id-75331"></path><path d=" M 57,133 C 55,134 54,135 55,135 C 56,137 58,138 61,138 C 64,138 66,137 68,136 C 68,135 67,133 65,133 C 63,135 60,134 57,133 Z" fill="#920017" id="id-75331"></path><path d=" M 47,132 L 49,136 C 54,133 57,132 58,132 C 71,131 75,135 75,134 C 71,130 65,129 61,128 C 56,127 51,129 47,132 Z" fill="#000000" opacity="0.300" id="id-75330"></path><polygon points="57 132 57 130 60 130 60 132" fill="#BDA7A9" id="id-75334"></polygon><path d=" M 33,131 L 39,135 L 43,134 C 50,131 56,129 61,130 C 66,130 72,132 81,137 C 77,132 72,129 64,128 C 56,126 48,127 41,131 L 33,131 Z" fill="#2C1309" id="id-75335"></path><polygon points="43 137 47 135 50 137" fill="#3A180F" id="id-75336"></polygon><polygon points="50 139 50 143 53 139" fill="#3A180F" id="id-75337"></polygon><polygon points="55 140 58 140 55 145" fill="#3A180F" id="id-75338"></polygon><polygon points="122 107 126 106 120 118" fill="#662913" id="id-75339"></polygon><polygon points="118 108 120 108 118 115 114 118" fill="#662913" id="id-75340"></polygon></g><defs><linearGradient x1="50%" y1="22%" x2="72%" y2="62%" id="id-76142"><stop stop-color="#10454D" offset="0%"></stop><stop stop-color="#002325" offset="100%"></stop></linearGradient></defs><g transform=" translate(496,1113)" id="id-76143"><path d=" M 9,8 C 6,15 5,19 5,19 C 53,55 76,73 76,73 C 123,164 146,209 146,209 C 155,211 159,212 159,212 C 169,210 174,209 174,209 C 218,121 240,78 240,78 C 285,34 307,12 307,12 C 306,4 305,1 305,1 L 233,69 L 88,66 L 9,8 Z" fill="#151716" id="id-76144"></path><path d=" M 7,14 L 1,31 L 8,26 C 54,59 76,76 76,76 C 123,160 146,202 146,202 C 155,204 159,205 159,205 L 179,196 L 245,82 C 279,47 298,27 303,23 C 304,21 307,22 311,24 C 307,12 305,7 305,7 L 233,75 L 89,63 L 7,14 Z" fill="#151716" opacity="0.404" id="id-76144"></path><polygon points="93 80 142 178 178 178 225 81" fill="url(#id-76142)" id="id-76146"></polygon></g><defs></defs><g transform=" translate(434,1386)" id="id-40019"><path d=" M 66,373 C 71,347 73,333 73,333 C 68,296 66,277 66,277 C 54,218 48,189 48,189 C 80,178 155,176 189,179 C 187,204 186,217 186,217 C 187,252 187,270 187,270 C 184,288 183,298 183,298 L 184,346 L 177,373 C 103,373 66,373 66,373 Z" fill="#00081A" id="id-40020"></path><path d=" M 243,180 C 244,188 244,192 244,192 C 245,249 245,278 245,278 C 248,289 250,294 250,294 L 249,336 L 258,374 C 329,374 364,374 364,374 C 360,349 357,336 357,336 C 360,313 361,302 361,302 C 362,261 363,241 363,241 L 377,188 C 316,172 271,170 243,180 Z" fill="#00081A" id="id-40021"></path><path d=" M 289,174 L 297,344 L 293,373 L 333,373 C 323,301 325,262 344,181 C 329,177 310,175 289,174 Z" fill="#182137" id="id-40022"></path><path d=" M 115,373 C 109,354 106,315 107,258 C 103,206 101,180 101,180 C 119,179 135,178 150,178 C 145,225 141,271 141,312 C 127,313 127,340 131,373 C 120,373 115,373 115,373 Z" fill="#182137" id="id-40023"></path><path d=" M 17,0 C 15,3 14,4 14,4 C 5,11 0,14 0,14 C 13,79 19,112 19,112 C 27,116 31,118 31,118 L 16,14 C 16,9 16,4 17,0 Z" fill="#1B1F27" id="id-40024"></path><path d=" M 389,131 C 398,131 403,131 403,131 C 423,54 433,15 433,15 L 417,0 C 399,82 390,126 389,131 Z" fill="#1B1F27" id="id-40025"></path><path d=" M 400,83 C 320,77 265,77 236,83 C 238,104 238,115 238,115 C 283,109 335,108 393,112 C 398,93 400,83 400,83 Z" fill="#00081A" id="id-40026"></path><path d=" M 286,79 C 288,100 288,111 288,111 C 334,110 356,110 356,110 L 364,81 C 325,79 299,78 286,79 Z" fill="#182137" id="id-40027"></path><path d=" M 338,77 C 337,100 336,112 336,112 C 347,113 353,113 353,113 L 355,78 C 344,77 338,77 338,77 Z" fill="#454B5B" id="id-40028"></path><path d=" M 199,93 C 197,112 196,121 196,121 C 141,120 89,124 41,133 L 35,99 C 117,90 171,89 199,93 Z" fill="#00081A" id="id-40029"></path><path d=" M 86,126 C 82,105 80,95 80,95 C 114,92 141,91 161,91 L 160,122 C 130,122 105,123 86,126 Z" fill="#182137" id="id-40030"></path><path d=" M 87,89 C 90,116 92,130 92,130 C 104,129 110,128 110,128 L 105,89 C 93,89 87,89 87,89 Z" fill="#454B5B" id="id-40031"></path><path d=" M 88,96 L 105,94 L 105,89 L 87,89 C 87,94 88,96 88,96 Z" fill="#67718A" id="id-40032"></path><path d=" M 43,148 L 33,136 C 21,55 16,15 16,15 C 16,6 16,1 16,1 C 20,2 21,3 21,3 L 24,23 C 37,106 43,148 43,148 Z" fill="#101622" id="id-40033"></path><path d=" M 337,80 C 349,81 355,81 355,81 C 355,79 355,78 355,78 L 339,77 C 338,79 337,80 337,80 Z" fill="#68718B" id="id-40034"></path></g><defs><radialGradient cx="50%" cy="10%" r="93%" id="id-40217" fx="50%" fy="10%" gradientTransform=" translate(0.500,0.105) scale(0.438,1) rotate(90) scale(1,1) translate(-0.500,-0.105)"><stop stop-color="#33394B" offset="0%"></stop><stop stop-color="#343A4B" offset="44%" stop-opacity="0.390"></stop><stop stop-color="#292728" offset="100%"></stop></radialGradient><radialGradient cx="52%" cy="35%" r="46%" id="id-40218" fx="52%" fy="35%" gradientTransform=" translate(0.524,0.347) scale(0.395,1) rotate(90) scale(1,3) translate(-0.524,-0.347)"><stop stop-color="#3D4B6D" offset="0%"></stop><stop stop-color="#3D4B6D" offset="51%" stop-opacity="0.482"></stop><stop stop-color="#292728" offset="100%"></stop></radialGradient><linearGradient x1="50%" y1="0%" x2="47%" y2="100%" id="id-40219"><stop stop-color="#30323E" offset="0%"></stop><stop stop-color="#292728" offset="100%"></stop></linearGradient></defs><g transform=" translate(494,648)" id="id-40220"><path d=" M 40,357 C 41,360 41,361 41,361 C 102,372 152,377 189,375 C 189,381 189,384 189,384 C 216,383 230,383 230,383 C 232,376 233,372 233,372 C 263,368 278,365 278,365 C 278,363 278,361 278,361 C 282,363 284,364 284,364 C 284,382 284,392 284,392 C 271,397 253,400 233,403 C 233,398 233,395 233,395 C 204,396 190,397 190,397 C 190,404 190,408 190,408 C 181,409 176,409 176,409 C 176,406 176,405 176,405 C 99,400 53,395 39,388 L 33,360 C 38,358 40,357 40,357 Z" fill="#292828" id="id-40221"></path><path d=" M 177,376 C 177,374 177,373 177,373 C 186,373 190,373 190,373 C 190,381 189,384 189,384 C 215,384 228,383 228,383 C 227,375 227,370 227,370 C 236,369 240,368 240,368 L 240,371 L 233,373 C 234,393 235,404 235,404 C 239,403 242,403 242,403 C 242,405 242,407 242,407 C 234,408 230,408 230,408 C 229,399 229,395 229,395 C 203,395 189,395 189,395 C 189,404 189,408 189,408 C 182,408 178,408 178,408 C 178,406 178,405 178,405 C 182,405 184,405 184,405 L 185,376 C 180,376 177,376 177,376 Z" fill="#4B5D78" id="id-40222"></path><path d=" M 191,386 C 214,385 226,385 226,385 C 226,391 226,393 226,393 L 192,394 C 191,389 191,386 191,386 Z" fill="#7D97C2" id="id-40223"></path><path d=" M 191,386 C 200,386 205,386 205,386 L 205,394 L 192,394 C 191,389 191,386 191,386 Z" fill="#FF0000" id="id-40224"></path><path d=" M 177,372 L 186,375 L 190,372 C 181,372 177,372 177,372 Z" fill="#7D97C3" id="id-40225"></path><path d=" M 227,370 L 231,373 L 240,368 C 231,369 227,370 227,370 Z" fill="#7D97C3" id="id-40226"></path><path d=" M 284,388 L 284,368 L 283,368 C 267,373 254,375 241,375 L 240,375 L 241,398 C 252,396 261,395 267,393 C 272,392 278,391 283,389 L 284,388 Z M 281,371 L 282,370 L 282,387 C 276,389 270,391 265,392 C 260,393 253,394 243,396 L 242,377 L 243,377 C 255,377 267,374 281,371 Z" fill="#414D61" id="id-40227" fill-rule="nonzero"></path><polygon points="253 376 255 376 254 396 252 396" fill="#414D61" id="id-40228" fill-rule="nonzero"></polygon><path d=" M 34,366 C 41,368 74,374 107,377 C 131,379 155,380 181,380 L 181,400 L 180,400 C 119,401 72,396 38,385 L 37,382 C 69,393 112,398 167,398 L 171,398 C 172,398 175,398 179,398 L 179,382 L 178,382 C 178,382 142,383 107,380 C 74,377 41,370 35,368 L 34,366 Z" fill="#414D61" id="id-40229" fill-rule="nonzero"></path><polygon points="168 381 170 381 169 399 167 399" fill="#414D61" id="id-40230" fill-rule="nonzero"></polygon><path d=" M 49,69 C 59,68 64,68 64,68 C 62,47 61,36 61,36 C 71,35 76,35 76,35 C 75,26 74,22 74,22 C 45,25 31,27 31,27 C 33,35 33,39 33,39 L 46,38 C 48,59 49,69 49,69 Z" fill="#495B75" id="id-40231"></path><path d=" M 33,82 L 78,80 C 78,70 78,65 78,65 L 32,68 L 33,82 Z" fill="#495B75" id="id-40232"></path><path d=" M 32,73 L 75,69 L 78,80 L 78,65 L 32,68 C 32,71 32,73 32,73 Z" fill="#7791BA" id="id-40233"></path><path d=" M 287,351 C 297,275 302,237 302,237 C 309,227 316,217 319,209 C 314,175 306,152 297,134 C 263,116 218,121 184,130 C 151,133 119,129 89,118 C 84,115 79,100 74,72 L 36,74 C 33,92 30,111 24,132 C 12,156 0,175 0,200 C 5,216 13,230 24,243 C 30,267 31,311 33,348 C 36,350 38,352 41,353 C 41,349 40,348 40,348 C 46,342 96,341 161,341 C 198,341 236,342 280,353 C 285,352 287,351 287,351 Z" fill="#292828" id="id-40234"></path><path d=" M 40,353 C 38,352 35,350 33,348 C 31,319 30,291 27,264 C 68,241 112,237 157,242 L 127,251 L 205,242 L 299,253 L 286,351 L 279,359 L 279,353 C 245,343 202,341 157,341 C 123,341 45,341 40,348 L 40,353 Z" fill="url(#id-40217)" id="id-40235"></path><path d=" M 89,118 C 86,113 84,111 84,111 L 28,115 L 24,132 C 14,154 -1,174 0,200 C 2,208 5,215 10,222 L 302,237 C 310,225 316,215 319,208 C 316,187 312,164 297,134 C 259,115 222,122 184,130 C 150,133 118,129 89,118 Z" fill="url(#id-40218)" opacity="0.789" id="id-40236"></path><path d=" M 39,81 L 70,79 L 70,82 C 73,94 75,102 76,108 C 77,112 79,118 81,126 C 92,134 107,137 125,138 L 126,138 C 127,138 139,137 163,136 L 194,132 L 226,130 C 253,129 275,131 294,139 L 296,140 C 296,142 300,148 304,156 C 310,172 317,193 317,194 C 317,194 317,196 318,198 C 316,196 315,195 315,194 C 310,178 305,166 302,158 C 301,155 298,149 294,142 L 294,141 C 274,133 252,131 225,132 L 195,134 L 162,138 L 127,140 C 126,140 126,140 126,140 C 107,140 92,136 80,127 C 77,120 76,114 75,111 C 73,104 71,94 68,81 L 41,83 L 38,99 L 31,131 C 16,157 7,182 4,208 C 4,208 4,209 4,210 C 3,208 2,207 2,206 C 6,181 15,156 29,130 L 36,102 L 39,81 Z" fill="#485A74" id="id-40237" fill-rule="nonzero"></path><path d=" M 70,93 L 71,93 C 72,93 72,95 71,95 L 39,96 L 37,96 C 37,96 37,95 39,94 L 70,93 Z" fill="#46556D" id="id-40238" fill-rule="nonzero"></path><polygon points="49 51 59 50 61 64 50 65" fill="#FF0000" id="id-40239"></polygon><polygon points="49 48 48 36 58 33 59 48" fill="#758EB5" id="id-40240"></polygon><polygon points="34 33 70 29 70 12 66 0 28 9 26 15 30 14" fill="#292728" id="id-40241"></polygon><path d=" M 60,1 L 33,8 L 34,9 C 37,15 37,21 38,27 L 38,28 L 64,24 L 61,3 C 61,3 60,2 60,1 Z M 59,3 L 63,23 L 39,27 L 39,27 C 38,21 38,15 35,9 L 59,3 Z" fill="#475770" id="id-40242" fill-rule="nonzero"></path><polygon points="62 13 62 14 37 20 37 19" fill="#475770" id="id-40243" fill-rule="nonzero"></polygon><polygon points="33 252 33 229 49 215" fill="#2A272A" id="id-40244"></polygon><path d=" M 37,305 L 37,269 L 53,242 C 54,258 50,279 37,305 Z" fill="url(#id-40219)" id="id-40245"></path><path d=" M 32,341 C 56,331 99,326 151,328 C 177,330 196,331 209,332 C 223,334 278,344 286,347 L 287,348 L 287,348 C 278,345 221,335 207,333 C 195,332 176,331 151,329 C 100,327 57,332 33,342 L 32,342 L 32,341 Z" fill="#435267" id="id-40246" fill-rule="nonzero"></path><polygon points="74 22 76 22 78 34 76 35" fill="#7690B8" id="id-40247"></polygon></g><defs></defs><g transform=" translate(444,771)" id="id-47936"><g transform=" translate(1,267)" id="id-47937"><path d=" M 15,390 C 10,388 8,386 5,383 C -5,322 0,267 19,217 C 30,171 39,130 48,93 C 60,62 77,31 85,1 C 145,0 187,0 213,1 C 286,2 337,6 338,7 C 348,37 361,65 373,103 C 387,156 400,210 413,266 C 417,312 416,350 408,381 C 404,379 402,378 402,378 C 354,365 292,365 226,370 C 206,370 197,370 197,370 C 128,367 76,365 15,382 L 15,390 Z" fill="#130727" id="id-47938"></path><path d=" M 5,383 C 17,364 28,349 40,340 L 1,355 C 2,367 4,377 5,383 Z" fill="#343360" id="id-47939"></path><path d=" M 41,376 C 58,321 72,267 116,190 C 138,162 159,136 178,118 C 172,114 168,111 168,111 C 133,135 97,164 57,207 C 55,129 54,90 54,90 C 70,46 78,24 78,24 C 102,54 114,70 114,70 L 169,21 C 239,89 275,123 275,123 C 271,157 270,174 270,174 C 235,202 217,217 217,217 C 217,294 216,333 216,333 C 263,277 287,249 287,249 C 304,260 312,265 312,265 L 315,367 C 289,366 258,368 226,370 L 196,370 C 121,366 70,368 41,376 Z" fill="#1C1231" id="id-47940"></path><path d=" M 41,376 C 58,315 80,253 116,190 C 135,167 154,143 178,118 C 181,119 182,120 182,120 C 147,176 130,204 130,204 L 132,216 C 176,189 198,176 198,176 C 202,167 204,162 204,162 C 212,159 217,157 217,157 C 205,180 200,192 200,192 C 160,239 141,263 141,263 C 202,215 232,191 232,191 L 233,204 C 222,212 217,216 217,216 C 216,230 216,237 216,237 C 191,244 179,248 179,248 C 128,288 102,308 102,308 C 71,348 56,368 56,368 C 97,364 117,362 117,362 C 181,366 212,368 212,368 L 271,362 L 315,367 C 288,367 258,368 226,370 L 196,370 C 136,367 83,368 41,376 Z" fill="#1D1333" id="id-47941"></path><path d=" M 56,368 C 78,342 89,330 89,330 L 88,363 C 66,366 56,368 56,368 Z" fill="#97939B" id="id-47942"></path><path d=" M 89,330 C 98,316 103,310 103,310 C 107,307 109,306 109,306 L 106,361 L 88,363 C 89,341 89,330 89,330 Z" fill="#251E3B" id="id-47943"></path><path d=" M 111,361 C 112,322 113,303 113,303 C 142,280 156,269 156,269 L 122,360 C 115,361 111,361 111,361 Z" fill="#363766" id="id-47944"></path><path d=" M 153,278 C 170,306 178,320 178,320 L 178,251 L 156,269 C 154,275 153,278 153,278 Z" fill="#2B264C" id="id-47945"></path><path d=" M 178,366 L 178,251 L 216,237 C 216,302 216,334 216,334 C 260,278 282,250 282,250 C 288,248 291,246 291,246 L 265,363 L 212,368 L 178,366 Z" fill="#363764" id="id-47946"></path><path d=" M 216,309 C 212,317 210,320 210,320 C 200,311 196,306 196,306 C 201,319 203,325 203,325 L 207,368 C 210,368 212,368 212,368 L 216,367 L 216,334 C 216,317 216,309 216,309 Z" fill="#2B2549" id="id-47947"></path><path d=" M 197,306 C 206,297 210,293 210,293 L 208,320 C 201,311 197,306 197,306 Z" fill="#9895A0" id="id-47948"></path><path d=" M 295,293 C 298,294 299,295 299,295 C 301,281 302,274 302,274 L 295,266 C 295,284 295,293 295,293 Z" fill="#ACA8AD" id="id-47949"></path><path d=" M 317,353 C 316,328 316,315 316,315 C 330,304 338,298 338,298 C 331,258 328,239 328,239 C 335,267 339,281 339,281 C 345,293 348,300 348,300 C 362,270 369,256 369,256 C 367,279 366,291 366,291 C 382,297 389,300 389,300 C 374,346 366,369 366,369 L 358,363 C 330,356 317,353 317,353 Z" fill="#ACA8AD" id="id-47950"></path><path d=" M 375,370 C 384,371 388,372 388,372 C 389,343 389,329 389,329 L 383,352 C 377,364 375,370 375,370 Z" fill="#ACA8AD" id="id-47951"></path><path d=" M 393,376 C 403,304 402,235 389,167 L 413,266 C 418,307 415,345 408,381 L 400,382 L 400,378 C 395,377 393,376 393,376 Z" fill="#2B2345" id="id-47952"></path><path d=" M 348,300 L 339,281 C 332,253 328,239 328,239 C 322,194 318,172 318,172 L 371,251 L 348,300 Z" fill="#250E32" id="id-47953"></path><path d=" M 319,223 C 309,194 305,179 305,179 C 307,172 309,169 309,169 L 318,177 C 319,208 319,223 319,223 Z" fill="#2A2750" id="id-47954"></path><path d=" M 252,258 C 259,212 262,190 262,190 C 292,168 307,156 307,156 L 301,179 C 268,231 252,258 252,258 Z" fill="#7E7784" id="id-47955"></path><path d=" M 108,120 C 125,85 134,68 134,68 C 126,114 122,136 122,136 L 83,218 C 99,152 108,120 108,120 Z" fill="#241C3B" id="id-47956"></path><path d=" M 215,201 C 264,149 289,123 289,123 C 292,113 293,108 293,108 C 282,72 277,53 277,53 C 277,43 276,31 272,18 C 274,24 276,15 281,46 C 292,96 298,120 298,120 C 298,128 297,136 292,146 C 241,183 215,201 215,201 Z" fill="#96919A" id="id-47957"></path><path d=" M 209,208 C 204,197 202,192 202,192 L 208,176 C 208,197 209,208 209,208 Z" fill="#ACA8AD" id="id-47958"></path><path d=" M 203,160 C 209,159 211,159 211,159 L 210,140 C 206,153 203,160 203,160 Z" fill="#ACA8AD" id="id-47959"></path><path d=" M 0,325 C 23,289 34,271 34,271 C 67,223 84,199 84,199 C 43,230 23,245 23,245 L 37,141 L 19,217 C 6,253 -1,289 0,325 Z" fill="#343360" id="id-47960"></path><path d=" M 56,218 C 67,202 72,194 72,194 C 91,177 101,168 101,168 L 87,196 C 66,211 56,218 56,218 Z" fill="#948F97" id="id-47961"></path><path d=" M 100,187 C 102,173 104,165 104,165 L 119,153 C 106,176 100,187 100,187 Z" fill="#9A959D" id="id-47962"></path><polygon points="48 93 90 60 78 24" fill="#302E57" id="id-47963"></polygon><path d=" M 123,69 C 136,58 142,52 142,52 L 158,59 C 135,66 123,69 123,69 Z" fill="#686781" id="id-47964"></path><path d=" M 272,147 C 278,142 284,136 281,123 C 269,81 263,59 263,59 L 253,58 C 274,105 280,135 272,147 Z" fill="#ACA8AD" id="id-47965"></path><path d=" M 213,148 C 213,102 213,79 213,79 L 222,107 C 216,134 213,148 213,148 Z" fill="#312B4E" id="id-47966"></path><path d=" M 121,146 C 124,136 125,131 125,131 C 147,108 158,96 158,96 C 170,58 176,39 176,39 C 201,20 213,11 213,11 C 216,31 217,41 217,41 C 255,47 274,50 274,50 C 231,73 209,84 209,84 C 209,123 208,143 208,143 L 199,171 L 132,216 L 130,204 L 182,120 L 178,118 L 168,111 C 137,134 121,146 121,146 Z" fill="#2C274B" id="id-47967"></path><path d=" M 170,58 C 201,47 217,42 217,42 L 210,12 L 176,39 C 172,51 170,58 170,58 Z" fill="#686781" id="id-47968"></path><path d=" M 136,51 L 167,65 C 173,48 176,39 176,39 C 201,20 214,10 214,10 L 214,3 L 169,21 C 147,41 136,51 136,51 Z" fill="#261F3C" id="id-47969"></path><path d=" M 214,3 C 217,2 219,1 220,0 L 274,2 C 276,3 279,5 283,7 C 277,36 274,50 274,50 L 217,40 C 215,16 214,3 214,3 Z" fill="#1A1030" id="id-47970"></path><path d=" M 302,150 C 304,133 306,124 306,124 C 353,180 377,208 377,208 C 363,199 357,195 357,195 L 316,150 C 307,150 302,150 302,150 Z" fill="#261F40" id="id-47971"></path><path d=" M 360,198 C 375,219 383,229 383,229 C 389,248 391,257 391,257 L 391,223 C 370,206 360,198 360,198 Z" fill="#97929B" id="id-47972"></path><path d=" M 397,224 C 374,203 363,192 363,192 C 361,137 331,72 318,13 C 302,7 293,4 293,4 L 337,5 C 376,106 396,179 397,224 Z" fill="#250E32" id="id-47973"></path><path d=" M 286,6 C 285,25 284,35 284,35 C 317,16 333,6 333,6 L 312,5 C 295,6 286,6 286,6 Z" fill="#2E264F" id="id-47974"></path><path d=" M 282,26 C 275,15 272,10 272,10 C 273,6 274,4 274,4 L 282,8 C 282,20 282,26 282,26 Z" fill="#ACA8AD" id="id-47975"></path><path d=" M 94,255 C 104,237 109,228 109,228 L 109,242 C 99,250 94,255 94,255 Z" fill="#9A959D" id="id-47976"></path></g><g transform=" translate(50,0)" id="id-47937"><path d=" M 36,270 C 40,255 41,240 37,226 C 28,158 24,123 24,123 C -4,82 -8,81 15,28 C 28,17 48,11 72,8 C 135,14 166,17 166,17 C 195,9 223,4 250,0 C 267,4 286,14 305,24 L 319,83 L 302,126 C 297,167 279,244 285,274 C 226,270 87,265 36,270 Z" fill="#130727" id="id-47938"></path><path d=" M 50,269 C 92,262 114,258 114,258 C 68,245 46,238 46,238 C 43,213 42,201 42,201 C 58,171 66,156 66,156 C 128,154 159,153 159,153 C 100,143 71,138 71,138 C 77,129 79,125 79,125 C 105,117 118,113 118,113 C 64,111 36,110 36,110 C 23,98 16,92 16,92 L 51,12 L 72,8 C 135,14 166,17 166,17 C 166,67 165,93 165,93 C 226,86 257,83 257,83 C 251,106 248,117 248,117 C 193,132 166,140 166,140 C 212,147 234,151 234,151 C 232,162 231,168 231,168 C 146,184 104,192 104,192 C 186,191 227,190 227,190 C 220,219 217,233 217,233 C 191,249 172,261 159,269 C 86,269 50,269 50,269 Z" fill="#211736" id="id-47979"></path><path d=" M 88,251 C 85,211 83,191 83,191 L 187,153 L 231,168 L 104,192 L 227,190 L 217,233 C 189,251 169,263 159,269 L 91,268 C 91,267 91,265 91,263 L 114,258 C 97,253 88,251 88,251 Z" fill="#2E284A" id="id-47980"></path><path d=" M 160,252 C 156,216 154,198 154,198 L 160,192 C 160,232 160,252 160,252 Z" fill="#7D7885" id="id-47981"></path><path d=" M 222,212 L 220,223 C 204,225 195,226 195,226 C 209,220 216,217 216,217 L 214,211 C 219,211 222,212 222,212 Z" fill="#ACA8AD" id="id-47982"></path><path d=" M 221,206 C 207,206 199,206 199,206 C 211,201 217,198 217,198 C 208,193 203,190 203,190 L 225,192 C 222,202 221,206 221,206 Z" fill="#ACA8AD" id="id-47983"></path><path d=" M 232,265 C 262,261 277,260 277,260 C 248,244 234,237 234,237 C 245,168 250,134 250,134 C 294,92 316,71 316,71 L 318,83 L 302,126 C 299,152 293,197 285,263 C 284,265 286,268 289,274 C 251,268 232,265 232,265 Z" fill="#250E32" id="id-47973"></path><path d=" M 262,226 C 269,220 272,217 272,217 L 266,205 C 263,219 262,226 262,226 Z" fill="#ACA8AD" id="id-47985"></path><path d=" M 225,232 C 223,227 223,225 223,225 C 229,185 233,165 233,165 L 246,139 C 232,201 225,232 225,232 Z" fill="#ACA8AD" id="id-47986"></path><path d=" M 194,173 C 216,169 227,166 227,166 C 213,162 206,159 206,159 L 206,166 C 198,171 194,173 194,173 Z" fill="#ACA8AD" id="id-47987"></path><path d=" M 152,131 C 190,120 209,115 209,115 L 107,122 C 137,128 152,131 152,131 Z" fill="#110425" id="id-47988"></path><path d=" M 164,139 C 172,135 175,133 175,133 C 172,128 170,126 170,126 L 165,128 C 164,135 164,139 164,139 Z" fill="#787180" id="id-47989"></path><path d=" M 164,115 C 170,115 172,115 172,115 L 164,101 C 164,111 164,115 164,115 Z" fill="#585065" id="id-47990"></path><path d=" M 250,115 C 249,101 248,95 248,95 C 257,87 261,83 261,83 L 265,86 C 255,105 250,115 250,115 Z" fill="#ACA8AD" id="id-47991"></path><path d=" M 105,102 C 64,103 43,104 43,104 C 24,92 14,87 14,87 C 31,51 39,33 39,33 L 57,11 C 67,9 73,8 73,8 C 116,12 137,14 137,14 C 99,38 81,51 81,51 C 88,34 91,26 91,26 C 69,46 58,56 58,56 L 77,84 C 96,96 105,102 105,102 Z" fill="#34335E" id="id-47992"></path><path d=" M 43,104 L 52,86 L 66,101 C 50,103 43,104 43,104 Z" fill="#6D6982" id="id-47993"></path><path d=" M 4,91 C 7,69 13,46 26,21 L 14,28 C 0,60 -3,81 4,91 Z" fill="#5968B3" id="id-47994"></path><path d=" M 161,93 C 157,69 154,56 154,56 L 162,27 C 161,71 161,93 161,93 Z" fill="#686274" id="id-47995"></path><path d=" M 166,90 C 234,73 267,65 267,65 C 292,70 304,73 304,73 L 292,19 L 250,0 C 223,4 195,10 166,17 C 166,66 166,90 166,90 Z" fill="#292344" id="id-47996"></path><path d=" M 166,17 C 187,18 198,19 198,19 L 212,7 C 181,14 166,17 166,17 Z" fill="#5968B2" id="id-47997"></path><path d=" M 200,23 C 203,44 205,55 205,55 C 242,54 260,53 260,53 C 266,58 269,60 269,60 C 261,34 257,21 257,21 L 265,8 L 250,0 C 217,15 200,23 200,23 Z" fill="#110425" id="id-47998"></path><path d=" M 246,8 C 251,6 254,6 254,6 C 260,9 263,11 263,11 L 256,18 C 250,11 246,8 246,8 Z" fill="#ACA8AD" id="id-47999"></path><path d=" M 256,25 C 256,37 257,43 257,43 L 269,58 C 260,36 256,25 256,25 Z" fill="#ACA8AD" id="id-48000"></path><path d=" M 252,71 C 265,66 271,64 271,64 L 260,56 C 255,66 252,71 252,71 Z" fill="#ACA8AD" id="id-48001"></path><path d=" M 83,159 L 77,162 C 77,171 78,180 83,190 C 81,192 80,192 80,192 C 83,216 84,227 84,227 L 86,190 C 84,182 81,174 83,159 Z" fill="#716B7A" id="id-48002"></path><path d=" M 26,144 C 32,159 35,167 35,167 C 41,217 44,242 44,242 C 42,251 40,267 35,272 C 36,266 39,255 39,250 C 39,242 39,234 37,226 C 30,171 26,144 26,144 Z" fill="#5968B3" id="id-48003"></path></g></g><defs></defs><g transform=" translate(570,613)" id="id-61019"><path d=" M 145,0 C 146,3 147,5 147,5 L 147,5 C 147,5 147,5 147,5 C 154,4 157,3 157,3 L 157,3 L 157,3 C 166,15 172,22 174,25 L 174,25 C 175,26 175,26 175,26 C 131,134 108,188 108,188 C 103,208 101,217 101,217 C 103,218 104,218 104,218 C 112,250 116,266 116,266 C 98,267 90,267 89,267 L 89,267 L 89,267 C 84,285 82,295 81,295 L 81,295 L 81,295 C 82,302 82,305 82,305 C 90,308 95,310 95,310 C 92,319 90,324 90,325 L 90,325 L 90,325 C 89,318 89,315 89,315 C 85,314 82,313 82,313 C 82,316 82,318 82,318 C 77,316 75,315 75,315 C 75,314 74,313 74,313 L 73,314 C 75,326 76,334 76,336 L 76,337 C 76,337 76,337 76,337 C 69,341 66,343 66,343 C 63,322 62,311 62,311 C 63,311 63,310 64,310 L 65,309 C 69,307 73,305 76,305 C 77,303 77,302 77,302 C 41,152 24,77 24,77 C 8,46 0,30 0,29 L 0,29 C 0,29 0,29 0,29 C 4,22 6,19 6,19 C 7,15 8,13 8,13 C 12,15 15,15 16,16 L 16,16 C 16,16 16,16 16,16 L 16,16 L 16,16 C 15,18 14,19 14,19 C 20,44 23,58 23,58 L 23,58 L 23,58 C 71,150 95,196 95,196 C 109,161 116,144 116,144 C 138,55 149,10 149,10 C 147,9 147,9 147,9 L 147,7 L 147,7 C 145,4 144,3 144,3 C 144,1 144,0 144,0 C 144,0 145,0 145,0 Z M 80,298 L 78,298 C 77,307 76,312 76,312 C 78,312 80,312 80,312 C 80,304 80,299 80,298 L 80,298 C 80,298 80,298 80,298 L 80,298 L 80,298 Z M 31,92 C 61,221 77,288 78,295 L 78,295 C 78,295 78,295 78,295 C 79,295 80,294 80,294 C 84,276 87,267 87,267 C 78,267 74,267 73,267 L 73,267 L 73,267 C 81,232 85,215 85,215 C 86,217 86,217 86,217 C 90,217 92,217 92,217 L 31,92 Z M 150,11 C 150,11 150,12 150,14 C 150,14 141,52 123,127 C 123,127 137,92 165,23 L 165,23 Z M 11,21 L 11,21 C 11,21 11,21 11,21 L 11,21 C 10,22 9,23 8,24 C 8,24 10,29 15,40 L 15,40 L 11,24 C 11,24 11,23 11,21 L 11,21 Z" fill="#200001" id="id-61020"></path><path d=" M 102,202 C 98,212 95,217 95,217 L 99,218 C 101,207 102,202 102,202 Z" fill="#6A5F43" id="id-61021"></path><path d=" M 88,217 C 95,217 99,218 99,218 C 99,204 99,198 99,198 L 94,197 C 47,105 23,59 23,59 C 25,68 26,72 26,72 L 88,196 L 88,217 Z" fill="#443A21" id="id-61022"></path><path d=" M 98,202 C 96,199 96,197 96,197 C 108,167 114,153 114,153 L 109,175 C 102,193 98,202 98,202 Z" fill="#757364" id="id-61023"></path><path d=" M 116,157 C 119,142 121,134 121,134 C 149,67 163,33 163,33 L 165,34 C 132,116 116,157 116,157 Z" fill="#443920" id="id-61024"></path><path d=" M 18,57 C 9,38 5,29 5,29 L 8,26 L 15,40 C 17,51 18,57 18,57 Z" fill="#423922" id="id-61025"></path><path d=" M 80,255 C 87,251 91,249 91,249 C 95,232 97,223 97,223 L 88,223 C 83,244 80,255 80,255 Z" fill="#4C463B" id="id-61026"></path><path d=" M 93,248 C 97,232 99,223 99,223 C 100,223 101,223 101,223 L 106,242 C 97,246 93,248 93,248 Z" fill="#4F483E" id="id-61027"></path><path d=" M 101,262 C 107,262 111,262 111,262 L 107,247 C 103,257 101,262 101,262 Z" fill="#40332B" id="id-61028"></path></g><defs><linearGradient x1="66%" y1="18%" x2="14%" y2="72%" id="id-62436"><stop stop-color="#FFFFFF" offset="0%" stop-opacity="0"></stop><stop stop-color="#FFFFFF" offset="100%"></stop></linearGradient><linearGradient x1="66%" y1="32%" x2="14%" y2="62%" id="id-62437"><stop stop-color="#FFFFFF" offset="0%" stop-opacity="0"></stop><stop stop-color="#FFFFFF" offset="100%"></stop></linearGradient></defs><g transform=" translate(585,435)" id="id-62438"><path d=" M 0,20 C 2,20 3,20 3,20 C 2,23 2,24 2,24 L 0,24 C 0,21 0,20 0,20 Z" fill="#141415" id="id-62439"></path><path d=" M 156,21 C 154,20 153,20 153,20 C 153,24 153,26 153,26 L 155,25 C 156,22 156,21 156,21 Z" fill="#141415" id="id-62440"></path><path d=" M 71,18 C 72,17 73,16 73,16 C 78,16 81,16 81,16 C 83,18 84,19 84,19 C 84,17 84,16 84,16 C 83,15 82,14 82,14 C 76,14 72,14 72,14 L 71,15 C 71,17 71,18 71,18 Z" fill="#141414" id="id-62441"></path><path d=" M 2,24 C 3,35 3,45 9,52 C 21,66 41,64 49,56 C 59,49 70,35 71,18 C 70,6 58,2 41,1 C 16,0 3,8 2,24 Z" fill="#6E2107" fill-opacity="0.840" id="id-62442"></path><path d=" M 118,1 C 95,1 83,8 84,20 C 87,36 96,47 105,56 C 120,67 142,63 149,48 C 155,36 155,14 145,8 C 140,4 131,1 118,1 Z" fill="#6E2107" fill-opacity="0.840" id="id-62443"></path><path d=" M 1,24 L 1,24 L 1,26 L 1,27 L 1,28 L 2,29 L 2,30 L 2,32 L 2,33 L 2,34 C 2,34 2,34 2,34 L 2,35 C 2,35 2,36 2,36 L 2,37 C 2,38 2,38 3,39 L 3,40 C 4,45 5,49 8,53 C 14,60 22,63 30,63 C 38,63 45,61 50,57 C 62,47 71,33 72,19 L 72,18 C 71,9 65,3 52,1 L 52,1 C 50,1 49,1 48,1 L 47,0 C 47,0 47,0 46,0 L 45,0 C 45,0 45,0 45,0 L 44,0 C 43,0 43,0 43,0 L 41,0 C 41,0 41,0 41,0 C 16,-1 2,7 1,24 Z M 41,2 L 41,2 L 42,2 C 43,2 43,2 43,2 L 44,2 L 45,2 C 45,2 46,2 46,2 L 47,2 L 48,3 L 49,3 C 49,3 49,3 49,3 L 50,3 C 63,5 69,9 70,18 L 70,18 L 70,18 C 69,33 60,46 49,55 C 45,59 38,62 31,61 C 22,61 15,58 10,52 L 10,52 C 7,48 5,43 4,37 L 4,36 C 4,36 4,36 4,35 L 4,34 L 4,33 L 4,32 L 4,31 L 3,30 L 3,29 L 3,27 L 3,26 L 3,25 L 3,24 L 3,24 C 4,8 16,1 41,2 Z" fill="#151414" id="id-62444" fill-rule="nonzero"></path><path d=" M 118,0 L 118,0 C 94,0 82,7 83,20 C 85,34 93,45 105,56 C 119,68 142,64 150,48 C 156,35 155,13 146,7 C 141,4 134,1 125,0 L 124,0 C 122,0 120,0 118,0 Z M 118,2 L 118,2 L 118,2 C 130,2 139,5 145,8 C 153,14 154,35 148,47 C 141,62 120,66 106,55 C 94,44 87,34 85,20 C 84,9 93,3 111,2 L 112,2 C 114,2 116,2 118,2 Z" fill="#151414" id="id-62445" fill-rule="nonzero"></path><polygon points="119 0 119 2 37 2 37 0" fill="#151414" id="id-62446" fill-rule="nonzero"></polygon><path d=" M 13,35 C 12,24 13,19 14,13 C 21,10 24,8 24,8 L 45,13 C 28,23 17,30 13,35 Z" fill="url(#id-62436)" id="id-62447"></path><path d=" M 51,12 C 55,16 57,18 57,18 L 59,12 C 54,12 51,12 51,12 Z" fill="#FFFFFF" opacity="0.511" id="id-62448"></path><path d=" M 95,36 C 91,29 89,21 89,12 C 103,7 118,5 132,6 L 136,11 C 114,20 100,29 95,36 Z" fill="url(#id-62437)" id="id-62449"></path><path d=" M 140,19 C 138,16 137,14 137,14 L 145,16 C 142,18 140,19 140,19 Z" fill="#FFFFFF" opacity="0.511" id="id-62450"></path></g><defs></defs><g transform=" translate(546,314)" id="id-66746"><path d=" M 24,114 C 38,107 45,103 45,103 C 89,94 132,79 176,78 C 186,79 192,81 198,84 C 200,86 202,89 204,94 C 206,93 207,93 207,93 C 205,83 204,72 206,59 C 213,49 216,44 216,44 C 220,35 211,27 207,19 C 196,12 183,7 169,2 C 133,-3 100,1 70,13 C 51,30 7,49 0,98 C 3,105 5,108 5,108 C 16,106 22,105 22,105 L 17,110 C 22,113 24,114 24,114 Z" fill="#151515" id="id-66747"></path><path d=" M 0,98 C 3,99 5,99 5,99 C 35,80 38,51 60,21 C 23,44 3,70 0,98 Z" fill="#1C222E" id="id-66748"></path><path d=" M 91,83 C 116,78 128,76 128,76 C 125,51 123,38 123,38 L 80,45 C 87,70 91,83 91,83 Z" fill="#6A5D40" id="id-66749"></path><path d=" M 95,64 C 104,70 109,74 109,74 C 117,57 122,48 122,48 L 106,63 C 99,63 95,64 95,64 Z" fill="#FF456E" id="id-66750"></path><path d=" M 173,73 L 181,55 C 189,54 197,55 205,58 L 205,84 C 196,76 185,72 173,73 Z" fill="#1D2330" id="id-66751"></path><path d=" M 214,44 C 158,19 112,13 70,13 C 99,1 131,-3 168,3 C 181,6 194,11 205,19 C 210,28 220,37 214,44 Z" fill="#1D2431" id="id-66752"></path></g><defs></defs><g transform=" translate(1196,1648)" fill="#343D53" opacity="0.300" id="id-77044"><path d=" M 42,50 L 42,37 C 43,37 44,38 44,38 C 44,38 44,38 44,38 C 45,38 44,38 45,38 L 46,39 C 46,39 48,40 48,41 L 49,41 C 49,41 49,41 49,41 C 49,41 49,41 49,41 L 50,42 C 50,42 50,42 51,42 C 51,42 51,42 51,43 C 51,44 52,44 52,45 L 52,48 C 52,49 53,52 53,52 C 53,52 53,52 53,52 C 53,53 53,53 53,53 C 53,53 54,56 54,56 C 53,56 53,56 52,56 C 51,55 51,55 51,55 L 50,54 C 49,54 49,54 49,54 C 48,53 48,54 48,53 C 48,53 48,53 47,53 L 46,52 C 46,52 45,52 45,52 C 45,52 45,51 44,51 C 44,51 44,51 44,51 C 43,51 43,50 42,50 L 42,50 Z M 25,54 C 25,53 25,51 25,50 C 26,49 26,49 26,48 C 26,47 26,46 26,45 C 26,45 26,45 26,45 L 27,43 C 27,42 27,42 27,42 L 28,42 C 28,42 28,42 28,42 L 30,40 C 30,40 30,40 30,40 C 31,40 31,40 31,40 L 32,39 C 32,39 33,39 33,38 C 34,38 33,38 34,38 C 34,38 35,37 36,37 L 36,41 C 36,44 36,48 36,50 C 35,51 36,50 35,51 C 34,51 34,51 34,51 C 33,51 33,52 32,52 C 32,52 31,52 31,53 C 31,53 31,53 31,53 L 31,53 C 31,53 31,53 31,53 L 30,53 C 30,53 30,53 29,54 L 27,55 C 27,55 27,55 27,55 C 26,55 26,55 26,56 C 26,56 26,56 25,56 L 24,56 L 25,54 L 25,54 Z M 17,57 C 17,57 17,57 17,57 C 16,57 15,57 15,56 L 14,56 C 14,56 14,56 14,56 C 13,56 13,56 13,56 L 12,55 C 12,55 11,55 11,54 C 11,54 11,54 10,54 L 9,53 C 9,53 9,52 9,52 C 10,51 10,52 10,51 C 10,50 11,48 11,48 C 12,47 12,46 12,45 C 13,45 13,45 13,44 L 13,43 C 14,43 14,43 14,42 C 14,42 14,42 14,42 C 14,42 14,42 14,41 C 14,41 14,41 15,41 L 15,39 C 16,38 17,36 17,36 C 17,36 17,36 17,36 L 18,37 C 18,37 18,37 18,37 L 19,38 C 19,38 19,38 20,38 L 20,39 C 21,40 20,42 20,42 C 20,43 20,42 20,43 L 19,46 C 19,46 19,46 19,47 L 19,50 C 19,50 19,50 19,51 L 17,57 L 17,57 Z M 0,57 C 1,57 1,57 2,57 L 3,58 C 3,58 3,58 3,58 L 6,59 C 6,59 6,59 7,60 C 7,60 7,60 7,60 L 14,63 C 14,63 16,64 16,64 C 16,64 16,64 16,64 C 16,64 17,64 17,64 L 20,66 C 20,66 20,66 21,66 L 24,64 C 24,64 24,64 24,64 C 24,64 24,64 25,64 L 29,61 C 29,61 29,61 29,61 C 30,61 30,61 31,60 C 31,60 32,60 32,60 C 32,59 33,59 33,59 C 33,59 33,59 33,59 C 33,59 33,59 33,59 C 34,58 34,58 35,58 L 36,57 C 37,57 39,56 39,56 C 39,56 40,56 40,56 L 45,59 C 45,59 45,59 46,59 C 46,60 46,60 47,60 L 51,63 C 51,63 51,63 51,63 L 53,63 C 53,63 53,63 53,64 L 55,65 C 55,65 55,65 56,65 C 56,65 56,65 56,65 L 58,66 C 58,66 59,66 59,65 C 60,65 60,65 60,65 C 61,65 61,65 62,64 C 62,64 62,64 63,64 L 65,62 C 66,62 66,62 67,62 L 70,60 C 70,60 70,60 70,60 C 71,60 71,60 72,60 C 72,59 74,59 74,58 C 75,58 76,58 77,57 C 77,57 77,57 78,57 C 78,56 77,55 77,54 C 77,54 77,54 77,54 C 77,53 76,53 76,53 L 76,52 C 76,51 75,51 75,51 L 75,50 C 75,50 75,50 75,50 L 75,49 C 74,49 74,48 74,48 L 74,47 C 73,47 73,46 73,46 C 73,45 73,45 72,45 C 72,44 72,44 72,44 L 70,39 C 69,38 70,39 69,38 C 69,38 69,38 69,37 C 69,37 69,36 68,36 C 68,36 68,36 68,35 C 68,35 68,35 68,35 C 68,34 68,34 67,34 L 67,36 C 67,36 66,37 66,37 C 66,38 66,38 66,38 L 66,39 C 65,39 65,40 65,40 C 65,41 65,41 65,42 L 65,42 C 65,42 65,42 65,42 L 64,42 C 64,43 64,43 64,43 L 65,44 C 65,44 65,44 65,45 L 66,46 C 66,46 66,46 66,46 L 67,49 C 67,49 68,49 68,50 L 68,52 C 69,52 69,52 69,53 C 69,53 69,53 69,53 C 69,54 68,54 67,54 L 65,55 C 65,56 65,56 64,56 C 63,56 63,56 63,56 C 62,57 62,57 61,57 C 61,57 61,57 61,57 C 60,57 60,55 60,54 L 60,53 C 60,53 60,53 60,52 C 59,52 59,50 59,50 L 59,48 C 59,48 59,47 59,46 C 58,45 58,44 58,43 C 58,43 58,42 58,42 C 58,42 58,41 58,41 C 58,41 57,41 57,39 C 58,39 58,39 58,39 L 57,38 C 57,38 57,38 57,38 L 57,37 C 57,37 57,37 57,37 C 57,37 57,37 57,37 C 57,36 57,36 57,36 L 56,34 C 56,34 55,33 55,32 C 55,33 55,33 55,33 L 54,34 C 53,34 53,34 53,35 C 52,36 53,36 51,35 L 48,33 C 48,32 46,32 46,31 L 44,30 C 44,30 43,30 43,29 L 39,27 L 38,27 C 38,27 38,27 38,28 L 34,30 C 34,30 32,31 32,32 L 26,35 C 26,35 26,36 25,35 C 25,35 25,34 24,34 L 21,31 C 21,31 21,31 21,30 L 18,27 C 18,27 18,27 17,27 C 17,27 17,27 17,27 C 17,27 17,27 17,27 C 17,26 17,26 16,26 C 16,26 15,25 15,25 L 15,25 C 15,25 15,25 15,25 L 13,28 C 13,28 13,28 13,28 L 12,31 C 11,32 11,33 11,33 L 10,34 C 10,34 10,34 10,34 C 10,35 10,35 10,35 C 10,35 10,35 10,35 L 9,36 C 9,37 9,37 9,37 C 9,38 9,38 9,38 C 8,38 8,39 8,39 C 8,40 7,41 7,41 C 7,41 7,42 6,42 C 6,43 6,43 6,43 C 6,44 5,45 5,45 L 5,46 C 5,47 4,47 4,47 L 4,48 C 4,48 4,49 3,49 C 3,50 3,50 3,51 C 2,51 2,52 2,52 L 1,53 C 1,54 1,54 1,54 L 0,56 C 0,56 0,56 0,57 L 0,57 Z" id="id-77045"></path><path d=" M 62,35 L 62,33 C 62,33 63,32 63,32 C 63,32 63,32 63,32 C 63,31 63,31 63,31 C 63,30 63,31 63,30 C 63,30 63,30 63,30 C 63,30 64,30 64,29 L 64,28 C 64,28 64,28 64,27 C 65,27 65,26 65,25 L 68,18 C 68,18 68,17 68,17 L 69,15 C 69,15 69,15 69,14 L 71,10 C 71,9 71,8 72,8 C 72,7 72,7 72,7 C 72,6 72,6 72,6 L 74,1 C 74,1 74,0 74,0 C 74,0 74,0 73,1 L 71,3 C 71,3 71,3 71,3 L 67,6 C 67,6 67,7 67,7 L 62,11 C 62,11 62,11 62,11 C 61,11 62,11 61,11 L 60,10 C 60,10 60,10 60,9 C 60,9 60,9 60,9 L 58,8 C 58,8 58,8 57,7 C 57,7 57,7 57,7 C 57,7 57,7 57,7 L 55,6 C 55,5 54,5 54,4 C 54,4 53,4 53,4 L 49,0 C 49,0 49,0 49,0 C 49,0 49,0 49,0 L 49,1 C 49,1 50,1 50,2 C 50,2 50,2 50,2 C 50,3 50,3 50,4 C 51,4 51,5 51,5 C 51,5 51,5 51,5 C 51,6 51,7 52,7 C 52,7 52,7 52,8 L 53,10 C 53,11 53,10 53,11 L 53,12 C 53,12 54,12 54,13 C 54,13 55,15 55,16 C 55,17 55,17 55,17 C 55,17 55,17 55,17 C 56,18 56,18 56,19 C 56,19 56,19 56,19 C 56,19 56,20 56,20 C 56,20 56,20 56,20 L 57,21 C 57,21 57,22 57,22 C 57,23 57,23 57,23 C 57,23 58,24 58,24 C 58,24 58,25 58,26 C 59,26 59,26 59,26 C 59,27 59,27 59,27 C 59,28 59,28 59,28 L 60,29 C 60,29 60,29 60,29 L 61,32 C 61,32 61,33 61,33 L 62,34 C 62,35 62,35 62,35 L 62,35 Z" id="id-77046"></path><path d=" M 13,6 C 13,7 14,8 14,8 C 14,8 14,8 15,8 C 15,8 15,8 15,9 L 16,10 C 16,10 16,10 16,10 L 18,11 C 18,11 18,11 18,11 L 16,13 C 16,13 16,13 16,13 L 14,15 C 14,15 14,15 14,15 L 13,16 C 12,17 13,17 13,18 C 14,18 14,18 14,18 L 17,21 C 17,21 17,21 17,21 C 17,21 17,21 17,21 L 18,20 C 18,20 18,20 19,20 C 19,20 19,20 19,20 L 20,19 C 20,18 20,18 20,18 C 20,18 20,18 20,18 L 21,17 C 22,17 22,16 22,16 C 23,17 24,18 24,18 L 25,19 C 25,19 25,19 25,19 L 25,19 C 26,19 26,20 26,20 C 26,20 26,20 26,20 C 26,20 26,20 26,20 C 27,21 27,21 27,21 C 27,21 27,21 27,21 L 27,21 C 28,22 28,21 28,21 L 29,20 C 29,20 30,19 30,19 C 31,19 31,18 32,17 C 32,17 32,16 32,16 L 29,13 C 29,13 29,13 29,13 L 27,12 C 27,12 27,12 27,12 C 27,11 27,11 27,11 C 28,11 28,11 28,11 C 28,10 29,10 29,9 C 29,9 30,9 30,8 L 30,8 C 31,8 31,7 31,7 C 32,7 32,7 32,6 C 32,6 32,6 32,6 C 31,5 31,5 31,5 L 28,2 C 28,2 28,2 28,2 C 28,2 28,2 28,2 C 28,2 28,2 28,2 C 28,2 27,2 27,3 L 26,3 C 26,3 26,3 26,3 C 26,4 26,4 25,4 C 25,4 25,4 25,4 C 25,5 25,5 24,5 C 24,5 24,6 23,6 C 23,6 23,6 23,6 C 23,6 23,7 22,7 C 22,7 22,6 22,6 C 22,6 22,6 22,6 L 21,6 C 21,6 21,5 21,5 L 20,5 C 20,5 20,5 20,4 L 19,4 C 19,4 19,4 19,4 L 18,2 C 17,2 17,1 17,2 C 17,2 16,3 16,3 C 16,3 16,3 15,3 L 15,4 C 15,4 15,4 15,4 C 14,5 14,5 14,5 L 13,6 C 13,6 13,6 13,6 L 13,6 Z" id="id-77046"></path></g></svg>