<?xml version="1.0" encoding="UTF-8"?><svg width="1320px" height="1760px" viewBox="0 0 1320 1760" version="1.1" xmlns="http://www.w3.org/2000/svg" xmlns:xlink="http://www.w3.org/1999/xlink"><defs><rect width="1320" height="1760" x="0" y="0" id="id-30271"></rect><filter width="127%" height="127%" x="-13%" y="-13%" id="id-30272" filterUnits="objectBoundingBox"><feGaussianBlur in="SourceGraphic" stdDeviation="38"></feGaussianBlur></filter><filter width="112%" height="112%" x="-6%" y="-6%" id="id-30273" filterUnits="objectBoundingBox"><feGaussianBlur in="SourceGraphic" stdDeviation="17"></feGaussianBlur></filter><linearGradient x1="17%" y1="12%" x2="84%" y2="88%" id="id-30274"><stop stop-color="#FFCFCF" offset="0%"></stop><stop stop-color="#FF5B5B" offset="100%"></stop></linearGradient></defs><g stroke="none" stroke-width="1" fill="none" id="id-30275" fill-rule="evenodd"><g id="id-30276"><g id="id-30277"><use fill="#2F3959" xlink:href="#id-30271"></use><use fill="#0D0D24" xlink:href="#id-30271"></use></g><g transform=" translate(134,393)" id="id-30280"><circle cx="527" cy="527" r="527" stroke="#FF0000" stroke-width="56" id="id-30281" filter="url(#id-30272)"></circle><circle cx="527" cy="527" r="527" stroke="#FF0000" stroke-width="27" id="id-30281" filter="url(#id-30273)"></circle><circle cx="527" cy="527" r="527" stroke="url(#id-30274)" stroke-width="12" id="id-30281"></circle></g></g></g><defs><linearGradient x1="100%" y1="46%" x2="12%" y2="47%" id="id-74155"><stop stop-color="#723722" offset="0%"></stop><stop stop-color="#96513B" offset="21%"></stop><stop stop-color="#9A6555" offset="46%"></stop><stop stop-color="#9F5E49" offset="80%"></stop><stop stop-color="#93523A" offset="100%"></stop></linearGradient><linearGradient x1="53%" y1="81%" x2="50%" y2="21%" id="id-74156"><stop stop-color="#7B3F37" offset="0%"></stop><stop stop-color="#7D4538" offset="24%"></stop><stop stop-color="#834B33" offset="100%"></stop></linearGradient><linearGradient x1="52%" y1="-4%" x2="46%" y2="70%" id="id-74157"><stop stop-color="#834239" offset="0%"></stop><stop stop-color="#5C3029" offset="100%"></stop></linearGradient><linearGradient x1="46%" y1="43%" x2="15%" y2="43%" id="id-74158"><stop stop-color="#924833" offset="0%"></stop><stop stop-color="#683011" offset="100%"></stop></linearGradient><linearGradient x1="54%" y1="37%" x2="12%" y2="72%" id="id-74159"><stop stop-color="#1E0404" offset="0%"></stop><stop stop-color="#34100E" offset="100%"></stop></linearGradient><linearGradient x1="40%" y1="14%" x2="61%" y2="85%" id="id-74160"><stop stop-color="#461A1F" offset="0%"></stop><stop stop-color="#5B2F2C" offset="100%"></stop></linearGradient><linearGradient x1="27%" y1="47%" x2="91%" y2="49%" id="id-74161"><stop stop-color="#784730" offset="0%"></stop><stop stop-color="#BE8BC7" offset="100%"></stop></linearGradient><linearGradient x1="47%" y1="60%" x2="49%" y2="79%" id="id-74162"><stop stop-color="#7F4235" offset="0%"></stop><stop stop-color="#894241" offset="60%"></stop><stop stop-color="#9B595A" offset="100%"></stop></linearGradient><linearGradient x1="29%" y1="56%" x2="69%" y2="53%" id="id-74163"><stop stop-color="#804733" offset="0%"></stop><stop stop-color="#743A2C" offset="8%"></stop><stop stop-color="#7C3D34" offset="18%"></stop><stop stop-color="#5D2920" offset="38%"></stop><stop stop-color="#5B2725" offset="65%"></stop><stop stop-color="#7E4037" offset="81%"></stop><stop stop-color="#4C1B1F" offset="100%"></stop></linearGradient><linearGradient x1="47%" y1="45%" x2="54%" y2="46%" id="id-74164"><stop stop-color="#7A3932" offset="0%"></stop><stop stop-color="#763B2F" offset="62%"></stop><stop stop-color="#5F2C1F" offset="77%"></stop><stop stop-color="#794634" offset="100%"></stop></linearGradient><linearGradient x1="51%" y1="7%" x2="50%" y2="100%" id="id-74165"><stop stop-color="#763D2D" offset="0%"></stop><stop stop-color="#914E49" offset="75%"></stop><stop stop-color="#7B3C3B" offset="100%"></stop></linearGradient><linearGradient x1="51%" y1="11%" x2="49%" y2="93%" id="id-74166"><stop stop-color="#87523F" offset="0%"></stop><stop stop-color="#80482F" offset="73%"></stop><stop stop-color="#865037" offset="100%"></stop></linearGradient><linearGradient x1="51%" y1="-5%" x2="48%" y2="96%" id="id-74167"><stop stop-color="#7D452E" offset="0%"></stop><stop stop-color="#6C3821" offset="100%"></stop></linearGradient><linearGradient x1="50%" y1="19%" x2="50%" y2="69%" id="id-74168"><stop stop-color="#50260A" offset="0%"></stop><stop stop-color="#291000" offset="45%"></stop><stop stop-color="#4C2106" offset="100%"></stop></linearGradient><linearGradient x1="46%" y1="74%" x2="39%" y2="35%" id="id-74169"><stop stop-color="#492117" offset="0%"></stop><stop stop-color="#64311E" offset="51%"></stop><stop stop-color="#713121" offset="100%"></stop></linearGradient><linearGradient x1="46%" y1="16%" x2="49%" y2="82%" id="id-74170"><stop stop-color="#512416" offset="0%" stop-opacity="0.186"></stop><stop stop-color="#482015" offset="100%"></stop></linearGradient><linearGradient x1="41%" y1="19%" x2="50%" y2="100%" id="id-74171"><stop stop-color="#5B2725" offset="0%"></stop><stop stop-color="#50260A" offset="100%"></stop></linearGradient><linearGradient x1="50%" y1="31%" x2="45%" y2="50%" id="id-74172"><stop stop-color="#68361D" offset="0%"></stop><stop stop-color="#894C43" offset="100%"></stop></linearGradient><linearGradient x1="51%" y1="22%" x2="50%" y2="100%" id="id-74173"><stop stop-color="#5D2126" offset="0%"></stop><stop stop-color="#4F1C21" offset="100%"></stop></linearGradient><linearGradient x1="49%" y1="0%" x2="50%" y2="100%" id="id-74174"><stop stop-color="#7A3F2E" offset="0%"></stop><stop stop-color="#793F35" offset="100%"></stop></linearGradient><linearGradient x1="44%" y1="15%" x2="50%" y2="100%" id="id-74175"><stop stop-color="#5B2C1F" offset="0%"></stop><stop stop-color="#50281D" offset="100%"></stop></linearGradient><linearGradient x1="52%" y1="21%" x2="49%" y2="83%" id="id-74176"><stop stop-color="#7F4534" offset="0%"></stop><stop stop-color="#975549" offset="48%"></stop><stop stop-color="#83453F" offset="100%"></stop></linearGradient><linearGradient x1="85%" y1="60%" x2="15%" y2="60%" id="id-74177"><stop stop-color="#864A32" offset="0%"></stop><stop stop-color="#5D2A11" offset="100%"></stop></linearGradient><linearGradient x1="48%" y1="-20%" x2="59%" y2="91%" id="id-74178"><stop stop-color="#96533C" offset="0%"></stop><stop stop-color="#5D2C12" offset="60%"></stop><stop stop-color="#643418" offset="72%"></stop><stop stop-color="#743E24" offset="100%"></stop></linearGradient><linearGradient x1="55%" y1="48%" x2="46%" y2="33%" id="id-74179"><stop stop-color="#743F2A" offset="0%"></stop><stop stop-color="#7E462E" offset="86%"></stop><stop stop-color="#764228" offset="100%"></stop></linearGradient><linearGradient x1="50%" y1="19%" x2="50%" y2="78%" id="id-74180"><stop stop-color="#401900" offset="0%"></stop><stop stop-color="#522003" offset="50%"></stop><stop stop-color="#371900" offset="100%"></stop></linearGradient><linearGradient x1="50%" y1="10%" x2="50%" y2="43%" id="id-74181"><stop stop-color="#85462C" offset="0%"></stop><stop stop-color="#602C13" offset="15%"></stop><stop stop-color="#652D15" offset="68%"></stop><stop stop-color="#592A10" offset="100%"></stop></linearGradient><linearGradient x1="89%" y1="50%" x2="9%" y2="52%" id="id-74182"><stop stop-color="#401D02" offset="0%"></stop><stop stop-color="#995734" offset="53%" stop-opacity="0.199"></stop><stop stop-color="#5A2A10" offset="75%"></stop><stop stop-color="#411900" offset="100%"></stop></linearGradient><linearGradient x1="44%" y1="70%" x2="86%" y2="30%" id="id-74183"><stop stop-color="#9A5741" offset="0%"></stop><stop stop-color="#9C6A5F" offset="100%"></stop></linearGradient><linearGradient x1="19%" y1="86%" x2="73%" y2="32%" id="id-74184"><stop stop-color="#703010" offset="0%"></stop><stop stop-color="#A66353" offset="40%"></stop><stop stop-color="#AE745F" offset="100%"></stop></linearGradient><linearGradient x1="35%" y1="94%" x2="47%" y2="12%" id="id-74185"><stop stop-color="#723C23" offset="0%"></stop><stop stop-color="#966556" offset="40%"></stop><stop stop-color="#AC715D" offset="46%"></stop><stop stop-color="#A36655" offset="100%"></stop></linearGradient><linearGradient x1="50%" y1="54%" x2="27%" y2="9%" id="id-74186"><stop stop-color="#DDAB90" offset="0%"></stop><stop stop-color="#DDAB90" offset="100%" stop-opacity="0.078"></stop></linearGradient><linearGradient x1="20%" y1="36%" x2="93%" y2="69%" id="id-74187"><stop stop-color="#A36150" offset="0%"></stop><stop stop-color="#9D604E" offset="70%"></stop><stop stop-color="#803A19" offset="100%"></stop></linearGradient><linearGradient x1="36%" y1="84%" x2="25%" y2="44%" id="id-74188"><stop stop-color="#663D38" offset="0%" stop-opacity="0.509"></stop><stop stop-color="#57260A" offset="35%" stop-opacity="0.675"></stop><stop stop-color="#763217" offset="100%" stop-opacity="0"></stop></linearGradient><linearGradient x1="63%" y1="95%" x2="43%" y2="20%" id="id-74189"><stop stop-color="#7C3C2B" offset="0%"></stop><stop stop-color="#8A4B32" offset="46%"></stop><stop stop-color="#88452F" offset="100%"></stop></linearGradient><linearGradient x1="40%" y1="0%" x2="50%" y2="86%" id="id-74190"><stop stop-color="#804025" offset="0%"></stop><stop stop-color="#955542" offset="100%"></stop></linearGradient><linearGradient x1="50%" y1="0%" x2="50%" y2="92%" id="id-74191"><stop stop-color="#B56F5E" offset="0%"></stop><stop stop-color="#8B4E35" offset="100%"></stop></linearGradient><linearGradient x1="33%" y1="79%" x2="21%" y2="44%" id="id-74192"><stop stop-color="#936354" offset="0%"></stop><stop stop-color="#633117" offset="28%"></stop><stop stop-color="#763C17" offset="100%" stop-opacity="0"></stop></linearGradient><linearGradient x1="4%" y1="47%" x2="92%" y2="45%" id="id-74193"><stop stop-color="#391108" offset="0%"></stop><stop stop-color="#501A0F" offset="17%" stop-opacity="0.753"></stop><stop stop-color="#6B3127" offset="48%" stop-opacity="0.386"></stop><stop stop-color="#4A1C15" offset="78%" stop-opacity="0.762"></stop><stop stop-color="#411610" offset="100%"></stop></linearGradient><linearGradient x1="60%" y1="45%" x2="67%" y2="53%" id="id-74194"><stop stop-color="#A3716E" offset="0%"></stop><stop stop-color="#CB93A9" offset="100%"></stop></linearGradient><linearGradient x1="48%" y1="15%" x2="54%" y2="81%" id="id-74195"><stop stop-color="#8C4A35" offset="0%"></stop><stop stop-color="#965850" offset="100%"></stop></linearGradient><linearGradient x1="47%" y1="44%" x2="50%" y2="61%" id="id-74196"><stop stop-color="#3E0D06" offset="0%" stop-opacity="0.175"></stop><stop stop-color="#33100B" offset="100%"></stop></linearGradient><linearGradient x1="26%" y1="-7%" x2="50%" y2="96%" id="id-74197"><stop stop-color="#37373F" offset="0%"></stop><stop stop-color="#19191D" offset="100%"></stop></linearGradient><linearGradient x1="50%" y1="12%" x2="59%" y2="82%" id="id-74198"><stop stop-color="#252525" offset="0%"></stop><stop stop-color="#101010" offset="100%"></stop></linearGradient><linearGradient x1="25%" y1="-16%" x2="50%" y2="98%" id="id-74199"><stop stop-color="#37373F" offset="0%"></stop><stop stop-color="#19191D" offset="100%"></stop></linearGradient><linearGradient x1="75%" y1="39%" x2="50%" y2="93%" id="id-74200"><stop stop-color="#252525" offset="0%"></stop><stop stop-color="#000000" offset="100%"></stop></linearGradient></defs><g transform=" translate(334,549)" id="id-74201"><polygon points="561 754 565 871 565 881 537 893 533 897 535 901 532 909 543 910 597 864" fill="#451F04" id="id-74202"></polygon><polygon points="537 282 539 246 535 195 529 158 522 137 484 118 440 111 212 111 188 113 157 123 121 139 111 186 108 221 109 290" fill="url(#id-74155)" id="id-74202"></polygon><polygon points="467 393 474 506 503 589 537 672 556 728 561 754 546 794 552 851 551 861 552 874 556 885 567 882 568 866 570 860 570 843 571 834 576 843 576 859 579 864 573 874 571 884 544 903 541 916 582 901 597 864 607 852 600 821 597 716 589 695 582 655 569 523 544 425" fill="url(#id-74156)" id="id-74202"></polygon><polygon points="546 794 552 851 551 861 552 874 556 885 567 882 568 866 570 860 570 843 571 834 576 843 576 859 579 864 573 874 571 884 544 903 541 916 582 901 597 864 583 871 588 855 573 815 561 823" fill="url(#id-74157)" id="id-74202"></polygon><polygon points="552 851 551 861 552 874 556 887 567 884 568 866 570 860 558 860" fill="#552B28" id="id-74202"></polygon><polygon points="544 906 541 916 582 901 571 889" fill="#512926" id="id-74202"></polygon><polygon points="561 754 548 789 566 819 586 806" fill="#66342D" id="id-74202"></polygon><polygon points="486 648 477 599 453 529 440 504 437 490 439 460 449 402 456 340 188 343 198 411 202 493 162 596 153 638 266 693 319 721 386 693" fill="url(#id-74158)" id="id-74202"></polygon><polygon points="486 648 477 599 453 529 440 504 437 490 439 460 449 402 456 340 296 353 376 634" fill="#804025" id="id-74202"></polygon><g transform=" translate(188,0)" id="id-74211"><polygon points="274 114 253 111 232 100 201 76 188 58 184 1 93 1 88 64 25 111 1 113 103 123 121 135 134 138 149 121 161 117 187 119 225 114" fill="#83442E" id="id-74202"></polygon><polygon points="201 76 188 58 185 12 175 57 155 111 185 73" fill="#A06E95" id="id-74202"></polygon><polygon points="149 1 93 1 88 64 108 126 121 135 133 138" fill="#6E361F" id="id-74202"></polygon><polygon points="116 102 120 113 118 115 136 135 150 119 164 71 125 108" fill="#5A2F17" id="id-74215"></polygon><polygon points="121 127 133 138 145 124" fill="#431903" id="id-74216"></polygon><polygon points="136 98 164 71 175 57 186 17 134 51" fill="#68291C" id="id-74217"></polygon><polygon points="97 96 116 80 164 60 178 48 186 17 184 1 93 1 88 64 45 96" fill="#5E2519" opacity="0.654" id="id-74202"></polygon><polygon points="186 17 184 1 93 1 88 64 45 96 66 96" fill="url(#id-74159)" opacity="0.467" id="id-74202"></polygon><polygon points="123 58 176 23 186 17 184 1 93 1 91 22 108 55" fill="#1E0404" opacity="0.434" id="id-74202"></polygon></g><polygon points="41 844 33 856 36 895 64 915 84 911 83 903 71 898 72 892 63 884 52 849" fill="url(#id-74160)" id="id-74202"></polygon><polygon points="315 152 285 173 320 188 357 166" fill="#AA6D58" id="id-74222"></polygon><polygon points="327 150 370 130 342 127" fill="#7D452B" id="id-74223"></polygon><polygon points="301 142 303 148 243 131 240 119 276 119" fill="#7B442B" id="id-74224"></polygon><polygon points="159 149 206 123 269 123 303 144 297 118 188 113 157 123 121 139" fill="url(#id-74161)" id="id-74202"></polygon><polygon points="157 123 121 139 153 167 196 134" fill="#BE8CA3" id="id-74202"></polygon><polygon points="89 584 77 541 62 551 45 658 34 712 25 741 25 762 10 817 0 845 14 870 25 901 58 919 72 919 69 913 61 905 50 899 37 874 37 852 43 845 52 855 50 887 56 901 64 905 66 901 66 882 72 836 72 800 69 781 64 773 66 735 85 684 121 599 162 510" fill="url(#id-74162)" id="id-74202"></polygon><polygon points="89 584 77 541 62 551 45 658 48 715 121 599 162 510" fill="#7A432A" id="id-74202"></polygon><polygon points="55 843 45 827 37 848 17 852 8 836 5 851 0 845 14 870 25 901 58 919 72 919 69 913 61 905 50 899 37 874 37 852 43 845 52 855 50 887 56 901 64 905 66 901 66 882 72 836" fill="#743E32" id="id-74202"></polygon><polygon points="53 882 52 892 56 901 64 905 66 901 66 882 67 876" fill="#6B362F" id="id-74202"></polygon><polygon points="25 901 58 919 72 919 62 909 37 895" fill="#6B362F" id="id-74202"></polygon><polygon points="160 467 145 488 108 578 45 777 48 797 64 773 66 735 85 684 121 599 162 510" fill="#643317" id="id-74202"></polygon><polygon points="169 1211 277 1211 282 1183 281 1150 284 1127 286 1114 285 1063 293 972 306 866 311 792 309 768 323 771 337 768 333 817 333 855 339 924 346 1008 348 1113 351 1130 353 1176 361 1211 461 1211 458 1191 456 1170 460 1133 461 1082 505 905 516 839 518 826 512 762 503 706 486 648 482 629 386 690 318 718 266 690 184 629 153 637 132 731 119 781 118 813 123 862 131 916 166 1094 176 1179" fill="url(#id-74163)" id="id-74202"></polygon><polygon points="463 664 416 771 400 819 392 1125 359 1178 398 1204 441 1153 461 1082 505 905 516 839 518 826 515 789 490 714" fill="url(#id-74164)" id="id-74202"></polygon><polygon points="422 1160 395 1199 365 1171 401 1149 384 1120 391 983 411 786 416 771 448 697 454 1013 445 1116 407 1149" fill="url(#id-74165)" id="id-74235"></polygon><polygon points="121 139 111 186 108 221 109 290 96 438 89 464 69 510 89 585 162 510 167 425 162 241" fill="url(#id-74166)" id="id-74202"></polygon><polygon points="101 466 103 488 106 510 160 447 179 359 164 232 187 184 186 179 132 181 161 234 161 321 149 376 151 384 123 461 114 466" fill="url(#id-74167)" id="id-74237"></polygon><polygon points="96 438 89 464 69 510 51 621 101 520 96 476" fill="#82566B" id="id-74202"></polygon><polygon points="96 451 128 365 134 316 121 139 111 186 108 221 109 290 96 438" fill="#643317" id="id-74202"></polygon><polygon points="184 241 177 248 162 225 138 289 161 321 170 375 161 420 151 411 162 510 167 425 188 343" fill="url(#id-74168)" id="id-74202"></polygon><polygon points="284 1127 286 1114 285 1063 293 972 306 866 311 792 309 768 323 771 337 768 333 817 333 855 339 924 346 1008 375 889 416 771 463 664 490 714 515 790 512 762 503 706 486 648 477 599 471 583 420 650 316 720 201 654 244 742 264 824 275 994" fill="url(#id-74169)" id="id-74202"></polygon><polygon points="298 930 306 866 311 792 309 768 323 771 337 768 333 817 333 855 336 894 347 826 360 784 378 733 388 687 321 739 254 687 267 736 291 821" fill="url(#id-74170)" id="id-74202"></polygon><polygon points="348 1093 348 1113 351 1130 353 1176 361 1211 461 1211 439 1155 422 1136 403 1148 429 1168 400 1202 370 1170 382 1125" fill="url(#id-74171)" id="id-74202"></polygon><polygon points="10 855 8 836 5 851 0 845 14 870" fill="#6D342E" id="id-74202"></polygon><polygon points="520 500 516 520 544 629 474 500 490 399" fill="url(#id-74172)" id="id-74245"></polygon><polygon points="461 1211 458 1191 456 1170 460 1133 461 1082 439 1155 450 1211" fill="url(#id-74173)" id="id-74202"></polygon><polygon points="220 1149 259 1115 240 1063 232 973 266 819 240 713 201 661 158 650 201 784 183 925 170 1083" fill="url(#id-74174)" id="id-74247"></polygon><polygon points="169 1211 277 1211 282 1183 281 1150 284 1127 286 1114 286 1098 226 1211 207 1211 196 1121 173 1078 150 1014 166 1094 176 1179" fill="url(#id-74175)" id="id-74202"></polygon><polygon points="173 1078 183 924 150 1014" fill="#6B352C" id="id-74202"></polygon><polygon points="169 1211 239 1211 230 1196 204 1175 173 1150 176 1179" fill="#521E24" opacity="0.574" id="id-74202"></polygon><polygon points="221 1130 240 1097 224 1063 224 983 240 804 217 698 190 668 212 771 212 910 190 998 181 1094" fill="url(#id-74176)" id="id-74247"></polygon><polygon points="217 795 221 692 200 667 169 658 200 737" fill="#9C5F46" id="id-74252"></polygon><polygon points="511 476 492 419 481 447 484 356 521 274 533 417" fill="url(#id-74177)" id="id-74253"></polygon><polygon points="569 523 544 425 542 346 537 282 539 246 535 195 529 158 522 137 494 161 419 158 471 211 516 290 525 411 511 477 518 507 535 462 562 543" fill="url(#id-74178)" id="id-74202"></polygon><polygon points="486 389 533 243 501 167 464 207 451 247 463 265" fill="url(#id-74179)" id="id-74255"></polygon><polygon points="473 490 474 506 503 589 537 672 556 728 561 754 567 712 543 623" fill="#582A0F" id="id-74202"></polygon><polygon points="460 328 466 378 474 506 490 425 486 392 469 274 479 230 461 260 454 251" fill="url(#id-74180)" id="id-74202"></polygon><polygon points="440 504 437 490 439 460 449 402 456 340 458 328 325 282 188 343 198 411 202 493 162 596 157 621 161 633 169 599 173 570 204 506 202 458 217 402 286 365 321 352 353 360 422 402 431 493 437 520" fill="url(#id-74181)" id="id-74202"></polygon><polygon points="451 385 456 340 458 328 364 340 330 308 268 343 188 343 194 379 262 368 312 343 335 340 381 368" fill="url(#id-74182)" id="id-74202"></polygon><polygon points="286 328 306 310 330 274 453 252 464 205 421 156 317 204 219 165 210 154 188 180" fill="url(#id-74183)" id="id-74260"></polygon><path d=" M 422,195 L 405,190 C 377,190 357,198 343,214 C 329,230 322,250 323,276 C 324,301 331,320 345,333 C 365,351 384,356 405,356 C 425,356 444,347 450,342 C 454,339 457,335 460,328 C 463,323 466,317 467,308 C 469,294 466,276 457,254 L 422,195 Z" fill="url(#id-74184)" id="id-74261"></path><path d=" M 422,195 L 417,175 C 386,188 366,196 358,201 C 355,203 351,206 348,208 C 348,209 381,253 448,342 C 454,338 459,332 463,324 C 469,310 469,301 469,293 C 469,287 465,275 459,257 L 422,195 Z" fill="url(#id-74185)" id="id-74261"></path><path d=" M 375,226 C 338,253 343,276 343,284 C 343,291 353,319 371,335 C 379,342 422,349 447,331 C 468,316 472,294 458,265 C 427,221 400,208 375,226 Z" fill="url(#id-74186)" opacity="0.282" id="id-74261"></path><path d=" M 272,205 C 260,199 243,200 221,209 C 187,227 169,258 168,303 C 167,319 184,342 190,346 C 197,351 212,356 239,353 C 257,351 272,344 284,333 C 303,312 312,288 309,260 C 305,217 291,214 272,205 Z" fill="url(#id-74187)" id="id-74264"></path><path d=" M 340,285 C 333,252 328,240 326,248 C 324,254 323,263 323,276 C 324,301 331,320 345,333 C 365,351 382,356 404,356 C 425,356 444,347 450,342 C 456,337 465,325 468,308 C 472,290 465,276 463,268 C 461,263 460,259 458,255 L 442,290 L 399,304 L 366,300 L 340,285 Z" fill="url(#id-74188)" id="id-74261"></path><path d=" M 153,637 L 149,654 L 132,731 L 130,739 C 133,730 135,723 137,718 C 140,709 147,691 149,680 C 151,671 155,655 161,633 L 172,570 L 162,596 L 153,637 Z" fill="#7D362E" id="id-74202"></path><path d=" M 259,203 C 254,199 240,185 217,163 L 210,153 L 186,180 C 192,211 192,231 186,239 C 175,256 168,277 168,303 C 168,324 190,352 239,344 C 252,342 274,217 259,203 Z" fill="#A36150" id="id-74264"></path><polygon points="175 565 203 550 234 558 241 520 203 455 203 507" fill="#5E2D13" id="id-74268"></polygon><polygon points="241 442 241 518 229 556 233 629 266 657 316 707 381 659 395 629 364 504 350 504 301 380" fill="url(#id-74189)" id="id-74269"></polygon><polygon points="432 626 427 589 407 518 414 505 450 568 470 618" fill="url(#id-74190)" id="id-74270"></polygon><polygon points="302 376 254 442 254 546 302 590 364 568 364 504 350 504 376 454 345 400" fill="url(#id-74191)" opacity="0.599" id="id-74269"></polygon><polygon points="317 480 342 436 319 413 300 447" fill="#874A31" id="id-74272"></polygon><polygon points="304 541 318 507 329 541 314 549" fill="#774029" id="id-74273"></polygon><polygon points="306 543 316 578 329 541" fill="#935F42" id="id-74274"></polygon><path d=" M 178,333 C 179,334 180,336 182,338 C 184,342 186,343 189,346 C 190,347 197,351 206,353 C 215,354 226,355 239,353 C 257,351 272,344 284,333 C 293,322 299,313 302,305 C 304,301 307,293 309,277 C 310,274 310,268 309,260 L 228,277 L 207,295 L 178,333 Z" fill="url(#id-74192)" id="id-74264"></path><polygon points="306 543 308 550 324 556 329 541" fill="#9E7261" id="id-74274"></polygon><polygon points="308 543 318 525 323 542 314 548" fill="#3C1E03" id="id-74277"></polygon><polygon points="152 641 162 596 176 561 185 617 214 602 246 628 323 690 404 628 423 605 454 605 470 577 477 599 482 629 388 689 337 768 323 771 309 768 259 688 175 639 142 688" fill="url(#id-74193)" opacity="0.442" id="id-74278"></polygon><polygon points="490 154 522 137 484 118 412 123" fill="url(#id-74194)" id="id-74202"></polygon><polygon points="573 785 588 829 602 858 607 852 600 821 597 716 576 763" fill="#8E4D48" id="id-74202"></polygon><polygon points="574 722 589 695 582 655 533 542" fill="url(#id-74195)" id="id-74202"></polygon><polygon points="172 640 241 690 309 768 323 771 338 768 395 706 469 661 404 650 313 706 217 629" fill="url(#id-74196)" opacity="0.571" id="id-74282"></polygon><g transform=" translate(188,270)" id="id-74283"><polygon points="207 13 207 10 217 2 220 2 239 21 258 39 260 42 250 51 246 52 226 33" fill="url(#id-74197)" id="id-74284"></polygon><polygon points="208 40 218 50 222 50 240 33 257 13 257 9 247 0 244 1 230 19 209 36" fill="url(#id-74198)" id="id-74285"></polygon><polygon points="1 13 1 10 10 2 15 2 32 21 50 39 52 42 42 52 38 52 19 33" fill="url(#id-74199)" id="id-74284"></polygon><polygon points="0 43 10 53 14 53 33 35 50 15 50 11 40 3 36 4 19 23 1 39" fill="url(#id-74200)" id="id-74285"></polygon></g></g><defs><linearGradient x1="50%" y1="0%" x2="50%" y2="85%" id="id-74953"><stop stop-color="#874639" offset="0%"></stop><stop stop-color="#4D2322" offset="100%"></stop></linearGradient><radialGradient cx="50%" cy="55%" r="91%" id="id-74954" fx="50%" fy="55%" gradientTransform=" translate(0.500,0.550) scale(1,0.697) rotate(-90) scale(1,0.712) translate(-0.500,-0.550)"><stop stop-color="#A3513A" offset="0%"></stop><stop stop-color="#C87359" offset="39%"></stop><stop stop-color="#291013" offset="100%"></stop></radialGradient><linearGradient x1="11%" y1="60%" x2="57%" y2="52%" id="id-74955"><stop stop-color="#944831" offset="0%"></stop><stop stop-color="#B46750" offset="48%"></stop><stop stop-color="#D27D60" offset="100%"></stop></linearGradient><linearGradient x1="46%" y1="46%" x2="22%" y2="61%" id="id-74956"><stop stop-color="#A0543D" offset="0%"></stop><stop stop-color="#642D27" offset="100%"></stop></linearGradient><linearGradient x1="48%" y1="50%" x2="57%" y2="65%" id="id-74957"><stop stop-color="#A55643" offset="0%"></stop><stop stop-color="#66342F" offset="100%"></stop></linearGradient><linearGradient x1="100%" y1="38%" x2="17%" y2="50%" id="id-74958"><stop stop-color="#CB7B65" offset="0%"></stop><stop stop-color="#AE6452" offset="100%"></stop></linearGradient><linearGradient x1="47%" y1="27%" x2="48%" y2="50%" id="id-74959"><stop stop-color="#532D32" offset="0%"></stop><stop stop-color="#794968" offset="100%"></stop></linearGradient><radialGradient cx="47%" cy="70%" r="97%" id="id-74960" fx="47%" fy="70%" gradientTransform=" translate(0.467,0.700) scale(0.592,1) rotate(-93) translate(-0.467,-0.700)"><stop stop-color="#D17F6C" offset="0%"></stop><stop stop-color="#622923" offset="100%"></stop></radialGradient><linearGradient x1="42%" y1="43%" x2="61%" y2="33%" id="id-74961"><stop stop-color="#783A36" offset="0%"></stop><stop stop-color="#632F2B" offset="100%"></stop></linearGradient><radialGradient cx="45%" cy="79%" r="81%" id="id-74962" fx="45%" fy="79%" gradientTransform=" translate(0.447,0.790) scale(0.833,1) rotate(-90) scale(1,1) translate(-0.447,-0.790)"><stop stop-color="#F2A292" offset="0%"></stop><stop stop-color="#93483D" offset="100%"></stop></radialGradient><linearGradient x1="58%" y1="0%" x2="20%" y2="89%" id="id-74963"><stop stop-color="#D48072" offset="0%" stop-opacity="0"></stop><stop stop-color="#E49281" offset="46%"></stop><stop stop-color="#F2A38F" offset="100%" stop-opacity="0.432"></stop></linearGradient><linearGradient x1="52%" y1="22%" x2="50%" y2="16%" id="id-74964"><stop stop-color="#A06DAA" offset="0%"></stop><stop stop-color="#A471B2" offset="100%" stop-opacity="0.398"></stop></linearGradient><radialGradient cx="45%" cy="76%" r="54%" id="id-74965" fx="45%" fy="76%" gradientTransform=" translate(0.455,0.761) scale(0.673,1) scale(1,0.612) translate(-0.455,-0.761)"><stop stop-color="#BC6D5A" offset="0%"></stop><stop stop-color="#974C3A" offset="100%"></stop></radialGradient><linearGradient x1="50%" y1="0%" x2="50%" y2="73%" id="id-74966"><stop stop-color="#D88873" offset="0%"></stop><stop stop-color="#B4624D" offset="100%"></stop></linearGradient><linearGradient x1="25%" y1="52%" x2="67%" y2="55%" id="id-74967"><stop stop-color="#D37B62" offset="0%"></stop><stop stop-color="#843C39" offset="100%"></stop></linearGradient><linearGradient x1="71%" y1="52%" x2="18%" y2="50%" id="id-74968"><stop stop-color="#994D39" offset="0%"></stop><stop stop-color="#5E2C26" offset="100%"></stop></linearGradient><linearGradient x1="94%" y1="63%" x2="50%" y2="63%" id="id-74969"><stop stop-color="#6F3D40" offset="0%"></stop><stop stop-color="#AD594C" offset="100%"></stop></linearGradient><linearGradient x1="50%" y1="0%" x2="50%" y2="84%" id="id-74970"><stop stop-color="#0B071E" offset="0%"></stop><stop stop-color="#3C2F7B" offset="100%"></stop></linearGradient><linearGradient x1="75%" y1="46%" x2="36%" y2="49%" id="id-74971"><stop stop-color="#772F2B" offset="0%"></stop><stop stop-color="#B35849" offset="46%"></stop><stop stop-color="#693027" offset="100%"></stop></linearGradient><linearGradient x1="50%" y1="0%" x2="50%" y2="84%" id="id-74972"><stop stop-color="#0B071E" offset="0%"></stop><stop stop-color="#3C2F7B" offset="100%"></stop></linearGradient><linearGradient x1="28%" y1="50%" x2="72%" y2="55%" id="id-74973"><stop stop-color="#4C1A19" offset="0%"></stop><stop stop-color="#692928" offset="100%"></stop></linearGradient><radialGradient cx="50%" cy="28%" r="98%" id="id-74974" fx="50%" fy="28%" gradientTransform=" translate(0.500,0.278) scale(0.259,1) rotate(90) scale(1,1) translate(-0.500,-0.278)"><stop stop-color="#DF6C71" offset="0%"></stop><stop stop-color="#9F504C" offset="100%"></stop></radialGradient><linearGradient x1="13%" y1="50%" x2="90%" y2="50%" id="id-74975"><stop stop-color="#682929" offset="0%"></stop><stop stop-color="#B85454" offset="54%"></stop><stop stop-color="#833A38" offset="100%"></stop></linearGradient><radialGradient cx="48%" cy="82%" r="121%" id="id-74976" fx="48%" fy="82%" gradientTransform=" translate(0.483,0.816) scale(0.316,1) rotate(-95) translate(-0.483,-0.816)"><stop stop-color="#BA354F" offset="0%"></stop><stop stop-color="#592020" offset="100%"></stop></radialGradient><linearGradient x1="32%" y1="49%" x2="112%" y2="53%" id="id-74977"><stop stop-color="#F6B8CB" offset="0%"></stop><stop stop-color="#78272F" offset="100%"></stop></linearGradient><linearGradient x1="50%" y1="0%" x2="50%" y2="100%" id="id-74978"><stop stop-color="#693C4E" offset="0%"></stop><stop stop-color="#7A5771" offset="100%"></stop></linearGradient><linearGradient x1="50%" y1="0%" x2="50%" y2="100%" id="id-74979"><stop stop-color="#693C4E" offset="0%"></stop><stop stop-color="#7A5771" offset="100%"></stop></linearGradient><linearGradient x1="-8%" y1="57%" x2="25%" y2="53%" id="id-74980"><stop stop-color="#C06E59" offset="0%"></stop><stop stop-color="#4C2426" offset="100%"></stop></linearGradient><linearGradient x1="106%" y1="53%" x2="76%" y2="50%" id="id-74981"><stop stop-color="#C06F5A" offset="0%"></stop><stop stop-color="#401F21" offset="100%"></stop></linearGradient><linearGradient x1="81%" y1="45%" x2="17%" y2="63%" id="id-74982"><stop stop-color="#C86C4D" offset="0%"></stop><stop stop-color="#90452F" offset="100%"></stop></linearGradient><linearGradient x1="50%" y1="14%" x2="50%" y2="87%" id="id-74983"><stop stop-color="#D37E62" offset="0%"></stop><stop stop-color="#BE6540" offset="100%"></stop></linearGradient><linearGradient x1="50%" y1="29%" x2="50%" y2="100%" id="id-74984"><stop stop-color="#A4543F" offset="0%"></stop><stop stop-color="#602B28" offset="100%"></stop></linearGradient></defs><g transform=" translate(561,332)" id="id-74985"><g transform=" translate(172,115)" id="id-74986"><polygon points="14 1 18 0 25 8 27 21 24 41 14 66 0 68" fill="url(#id-74953)" id="id-74987"></polygon><polygon points="12 48 19 50 23 42 26 24 20 12 12 22" fill="#7D3F38" id="id-74988"></polygon><polygon points="11 21 17 10 20 5 24 7 26 24 20 36 18 31 20 16 9 29" fill="#632A21" id="id-74989"></polygon><polygon points="10 28 11 38 8 45 13 49 19 38 13 24" fill="#381717" id="id-74990"></polygon><polygon points="12 18 17 17 18 9" fill="#381717" id="id-74991"></polygon><polygon points="17 51 9 52 7 51 4 62 11 64 13 62" fill="#7C4337" id="id-74992"></polygon></g><g transform=" translate(0,113)" id="id-74993"><polygon points="13 0 5 0 0 13 4 36 13 63 25 67" fill="#9B4D38" id="id-74994"></polygon><polygon points="5 9 0 13 4 36 13 63 25 67 13 24" fill="#7D3F38" id="id-74994"></polygon><polygon points="18 46 14 47 7 32 11 26 4 9 6 5 16 20 17 29" fill="#632A21" id="id-74996"></polygon><polygon points="13 62 20 62 18 49 11 53" fill="#A0533D" id="id-74997"></polygon><polygon points="25 68 13 63 20 62 17 46 14 47 13 44 14 29 17 26 14 22 10 19 10 11 17 20" fill="#381717" id="id-74998"></polygon><polygon points="13 9 4 3 5 0 12 0" fill="#C26E60" id="id-74999"></polygon></g><path d=" M 29,199 C 21,165 17,151 15,130 C 4,44 33,0 103,0 C 180,0 191,63 186,119 C 183,157 173,191 170,202 C 169,206 167,213 164,217 C 155,229 135,242 119,249 C 112,251 89,251 79,249 C 65,240 47,234 36,218 C 33,213 32,209 29,199 Z" fill="url(#id-74954)" id="id-75000"></path><polygon points="122 166 151 182 171 155 113 120 77 124 20 148 51 190 66 182 86 155" fill="url(#id-74955)" id="id-75001"></polygon><polygon points="115 140 139 167 156 148 121 130 119 140" fill="#E49484" id="id-75002"></polygon><polygon points="169 156 153 147 164 132 174 151" fill="#D66650" id="id-75003"></polygon><path d=" M 29,199 C 24,176 20,162 18,149 C 18,148 33,157 51,182 C 54,187 57,195 59,208 C 110,231 130,244 119,249 C 112,251 89,251 79,249 C 65,240 47,234 36,218 C 33,213 32,209 29,199 Z" fill="url(#id-74956)" id="id-75000"></path><path d=" M 119,249 C 112,251 89,251 79,249 C 77,247 74,245 70,242 L 80,234 L 131,223 C 125,240 121,248 119,249 Z" fill="#79382D" id="id-75000"></path><path d=" M 135,207 L 136,195 L 171,151 L 164,131 L 171,125 C 178,143 181,152 181,154 C 177,177 172,195 170,202 C 169,206 167,213 164,217 C 155,229 135,242 119,249 L 135,207 Z" fill="url(#id-74957)" id="id-75000"></path><polygon points="179 117 171 125 177 143" fill="#90596C" id="id-75000"></polygon><polygon points="89 188 91 178 110 176 113 191 99 195" fill="url(#id-74958)" id="id-75008"></polygon><polygon points="87 187 87 181 78 175 104 155 123 177 113 180 106 181 101 185 95 182 91 181 89 187" fill="#56281B" opacity="0.297" id="id-75009"></polygon><path d=" M 119,249 C 112,251 89,251 79,249 C 65,240 47,234 36,218 L 79,247 L 119,249 Z" fill="#814C5E" id="id-75000"></path><polygon points="23 119 31 133 45 121 34 111" fill="#562722" id="id-75011"></polygon><polygon points="23 119 23 141 31 133" fill="#663632" id="id-75011"></polygon><path d=" M 18,149 C 17,143 15,136 15,130 C 14,120 13,111 13,103 L 21,70 L 32,111 L 23,119 L 23,145 L 35,163 L 18,149 Z" fill="url(#id-74959)" id="id-75000"></path><path d=" M 30,111 L 24,83 C 36,49 59,30 92,24 C 126,19 155,33 180,67 L 186,98 L 183,119 L 99,103 L 30,111 Z" fill="url(#id-74960)" id="id-75014"></path><path d=" M 180,58 L 186,98 L 183,119 L 171,104 L 164,65 L 154,82 C 147,53 146,38 149,36 C 160,43 170,50 180,58 Z" fill="url(#id-74961)" id="id-75014"></path><polygon points="56 102 62 49 99 32 135 45 149 102 99 109" fill="url(#id-74962)" id="id-75016"></polygon><polygon points="92 39 75 62 99 99 122 62 103 39" fill="url(#id-74963)" id="id-75017"></polygon><path d=" M 149,226 L 167,206 L 178,150 L 174,144 L 178,121 L 167,106 L 174,75 L 184,97 L 181,113 L 184,132 C 180,165 172,193 170,202 C 169,206 167,213 164,217 L 149,226 Z" fill="url(#id-74964)" id="id-75000"></path><polygon points="135 207 121 244 84 244 79 234 86 230" fill="url(#id-74965)" id="id-75000"></polygon><polygon points="70 104 102 91 136 107 109 132 81 126" fill="url(#id-74966)" id="id-75020"></polygon><polygon points="39 152 62 170 82 141 75 134" fill="#BF7666" id="id-75021"></polygon><polygon points="76 140 55 151 39 153 25 147 23 146 23 140 26 129 29 127" fill="#8B422F" id="id-75022"></polygon><polygon points="120 140 133 149 153 147 164 132" fill="url(#id-74967)" id="id-75023"></polygon><polygon points="39 135 33 139 43 147 59 148 76 140" fill="url(#id-74968)" id="id-75024"></polygon><polygon points="117 135 127 129 169 128 177 120 169 111 146 101 112 121 115 128" fill="url(#id-74969)" id="id-75025"></polygon><polygon points="124 126 118 119 146 104 167 113 158 123" fill="#914840" id="id-75026"></polygon><polygon points="131 124 144 107 161 107 147 121" fill="#BE6D65" id="id-75027"></polygon><path d=" M 120,136 L 120,132 C 127,124 134,119 142,118 C 149,118 157,121 165,128 L 120,136 Z" fill="#A04740" id="id-75028"></path><path d=" M 130,129 C 130,123 134,120 142,119 C 149,119 154,121 157,128 L 130,129 Z" fill="#C76355" id="id-75028"></path><polygon points="138 126 142 119 144 119 148 126" fill="#FEB99C" id="id-75030"></polygon><polygon points="125 138 148 138 158 132 148 126 137 127 124 134" fill="#F4EAFF" id="id-75031"></polygon><polygon points="127 137 124 134 120 137" fill="#D8706A" id="id-75032"></polygon><path d=" M 132,131 C 132,134 133,136 134,137 C 137,139 142,139 146,137 C 148,136 149,133 149,128 C 145,127 142,127 140,127 C 138,128 135,129 132,131 Z" fill="#2A0610" id="id-75033"></path><path d=" M 134,132 C 134,134 135,135 136,136 C 138,137 140,137 144,136 C 146,135 147,133 147,130 C 146,130 145,130 145,130 C 143,129 144,134 140,134 C 135,134 138,130 137,130 C 136,131 135,131 134,132 Z" fill="url(#id-74970)" id="id-75033"></path><polygon points="74 135 82 129 69 114 44 105 34 110 52 129" fill="#8E4539" id="id-75035"></polygon><polygon points="51 121 48 109 62 113 68 119 68 125" fill="#A85E55" id="id-75036"></polygon><path d=" M 32,127 C 39,121 46,118 55,120 C 64,121 71,126 76,135 L 32,127 Z" fill="url(#id-74971)" id="id-75037"></path><path d=" M 32,127 C 37,122 42,120 48,119 C 44,121 41,124 39,128 L 32,127 Z" fill="#824642" id="id-75037"></path><polygon points="47 128 54 120 61 129" fill="#F68A70" id="id-75039"></polygon><polygon points="49 137 76 137 73 133 62 128 42 128 38 131" fill="#DED5FF" id="id-75040"></polygon><polygon points="72 133 73 135 72 137 77 137 75 135" fill="#8E3D3C" id="id-75041"></polygon><path d=" M 49,129 C 51,136 54,139 60,138 C 65,137 68,135 68,130 L 58,128 L 49,129 Z" fill="#24060D" id="id-75042"></path><path d=" M 51,131 C 53,136 56,138 60,137 C 64,136 66,134 66,131 L 62,130 C 62,132 61,134 58,134 C 56,134 55,132 55,130 L 51,131 Z" fill="url(#id-74972)" id="id-75042"></path><polygon points="50 139 65 138 78 138 77 137 65 137 49 137" fill="#3E1B19" id="id-75044"></polygon><polygon points="141 131 153 135 158 131 148 126 135 128 126 133" fill="#000000" opacity="0.400" id="id-75045"></polygon><polygon points="45 134 51 132 68 132 73 134 68 129 48 128 40 132" fill="#000000" opacity="0.400" id="id-75046"></polygon><polygon points="77 137 76 137 75 135 67 130 49 129 43 132 49 138 53 139 48 139 41 135 38 135 28 126 41 126 56 125 67 128" fill="#2A0710" id="id-75047"></polygon><path d=" M 121,136 C 129,132 135,130 139,128 C 143,127 149,128 155,132 C 154,134 151,136 147,139 C 150,139 154,137 160,133 L 162,133 L 171,126 C 166,126 162,126 160,126 C 153,125 147,123 143,124 C 136,125 128,129 121,136 Z" fill="#340713" id="id-75048"></path><polygon points="135 133 138 133 138 130 136 130 136 132 135 132" fill="#F8E2F8" id="id-75049"></polygon><polygon points="53 131 53 133 55 133 55 132 57 132 56 130" fill="#C7ABCD" id="id-75050"></polygon><g transform=" translate(59,186)" id="id-75051"><polygon points="6 20 0 22 19 31" fill="#A4645E" id="id-75052"></polygon><polygon points="10 24 27 44 57 44 71 25" fill="url(#id-74973)" id="id-75053"></polygon><polygon points="7 22 41 28 73 23 76 20 69 17 11 16 5 20" fill="#2A0710" id="id-75054"></polygon><path d=" M 7,22 C 19,32 30,38 41,38 C 52,38 63,33 73,23 L 56,22 C 49,22 43,22 39,22 C 35,22 30,21 22,21 L 7,22 Z" fill="url(#id-74974)" id="id-75054"></path><path d=" M 7,22 C 19,32 30,38 41,38 C 52,38 63,33 73,23 L 66,23 C 58,31 49,35 41,35 C 33,35 25,30 15,21 L 7,22 Z" fill="url(#id-74975)" opacity="0.651" id="id-75054"></path><path d=" M 7,22 C 8,23 9,24 10,25 C 10,22 20,22 39,22 C 59,22 69,24 71,25 C 71,25 72,24 73,23 L 56,22 C 49,22 43,22 39,22 C 35,22 30,21 22,21 L 7,22 Z" fill="#632928" id="id-75054"></path><path d=" M 15,21 L 23,20 C 30,19 37,18 41,19 C 46,19 51,20 58,21 L 75,21 C 68,12 60,6 53,2 C 50,2 46,3 41,5 C 36,3 32,1 29,0 C 22,5 15,11 8,18 L 15,21 Z" fill="url(#id-74976)" id="id-75058"></path><path d=" M 21,9 C 25,6 28,5 31,5 C 33,5 37,7 43,11 L 53,9 L 60,9 C 63,10 60,8 53,4 C 50,4 47,5 42,7 C 37,4 32,3 29,2 C 22,6 19,9 19,9 L 21,9 Z" fill="url(#id-74977)" opacity="0.485" id="id-75058"></path><path d=" M 20,24 L 33,30 C 30,28 31,27 34,27 C 37,27 44,28 54,28 L 59,30 L 58,26 L 61,23 L 56,26 L 30,26 L 20,24 Z" fill="#EE88AA" id="id-75060"></path><path d=" M 31,20 C 31,20 31,21 31,21 C 31,21 34,21 40,21 C 40,20 40,20 40,19 C 38,19 35,19 31,20 Z" fill="url(#id-74978)" id="id-75061"></path><path d=" M 42,20 C 42,20 42,21 42,21 C 46,22 49,22 51,21 L 51,20 C 46,19 43,19 42,20 Z" fill="url(#id-74979)" id="id-75062"></path></g><g transform=" translate(22,95)" id="id-75063"><path d=" M 97,23 L 132,12 L 146,18 L 145,11 C 137,4 132,1 129,1 C 120,1 109,4 96,9 C 95,9 95,14 97,23 Z" fill="url(#id-74980)" id="id-75064"></path><polygon points="156 25 147 19 147 13" fill="#3E1F26" id="id-75064"></polygon><path d=" M 1,24 L 17,16 L 33,16 L 60,28 L 60,11 C 48,7 35,4 22,4 L 10,11 L 10,16 L 9,12 L 1,24 Z" fill="url(#id-74981)" id="id-75066"></path></g><polygon points="99 121 114 127 111 135 121 162 126 169 74 169 81 157 87 130" fill="url(#id-74982)" id="id-75067"></polygon><polygon points="72 118 83 132 96 146 96 132 82 110" fill="#954C3A" id="id-75068"></polygon><polygon points="72 118 83 132 82 110" fill="#9B584A" id="id-75068"></polygon><polygon points="96 132 96 153 84 165 81 161 77 167 78 174 124 174 124 169 121 162 110 161 104 153 104 132" fill="url(#id-74983)" id="id-75070"></polygon><polygon points="78 163 74 169 76 177 87 181 81 176 92 177 95 181 100 182 106 181 106 178 120 175 113 180 118 181 124 179 126 176 126 168 121 160 123 169 123 174 112 169 98 174 89 169 84 173 78 171" fill="url(#id-74984)" id="id-75071"></polygon><polygon points="93 127 100 140 106 127 100 123" fill="#EE9D8C" id="id-75072"></polygon><polygon points="93 167 99 170 105 167 99 161" fill="#DB9A77" id="id-75073"></polygon><polygon points="80 170 84 173 89 170 84 166" fill="#D27F62" id="id-75074"></polygon><polygon points="113 169 119 171 120 166 116 164" fill="#D88365" id="id-75075"></polygon><polygon points="115 159 117 152 121 160" fill="#A35547" id="id-75076"></polygon><polygon points="93 178 81 176 81 173 89 173" fill="#2E1111" id="id-75077"></polygon><polygon points="106 178 112 173 118 173 120 175 117 177" fill="#2E1111" id="id-75078"></polygon><polygon points="124 137 145 138 147 139 125 138 120 137" fill="#3F0A19" id="id-75079"></polygon><polygon points="124 140 137 141 147 140" fill="#FEAF93" id="id-75080"></polygon><polygon points="49 140 60 141 74 140" fill="#BB735F" id="id-75081"></polygon></g><defs><linearGradient x1="33%" y1="59%" x2="66%" y2="64%" id="id-40035"><stop stop-color="#050E15" offset="0%" stop-opacity="0.810"></stop><stop stop-color="#040D13" offset="11%" stop-opacity="0.379"></stop><stop stop-color="#040D13" offset="19%" stop-opacity="0.151"></stop><stop stop-color="#040D13" offset="28%" stop-opacity="0.329"></stop><stop stop-color="#040B10" offset="41%" stop-opacity="0.741"></stop><stop stop-color="#03090E" offset="59%" stop-opacity="0.740"></stop><stop stop-color="#03080B" offset="70%" stop-opacity="0.221"></stop><stop stop-color="#03070B" offset="79%" stop-opacity="0.133"></stop><stop stop-color="#02070B" offset="89%" stop-opacity="0.332"></stop><stop stop-color="#020609" offset="100%" stop-opacity="0.712"></stop></linearGradient></defs><g transform=" translate(450,1060)" id="id-40036"><path d=" M 315,72 C 331,189 359,253 401,265 C 402,281 403,298 402,314 C 394,426 347,550 347,571 C 347,626 340,674 347,700 L 347,700 L 245,700 C 231,673 238,628 231,601 C 229,568 229,533 228,499 C 228,446 209,336 219,260 C 246,202 278,140 315,72 Z M 86,54 L 194,258 C 194,258 195,269 196,281 C 188,416 173,470 169,554 C 169,578 171,579 171,604 C 166,624 165,646 167,673 L 167,673 L 162,700 L 53,700 C 56,692 58,681 60,667 C 32,461 4,415 0,271 C 40,271 69,199 86,54 L 86,54 Z M 104,605 L 98,619 L 106,655 L 128,654 L 129,633 L 104,605 Z M 122,575 L 115,585 L 110,601 L 127,616 L 122,575 Z M 117,495 L 103,497 L 103,514 L 109,512 L 104,520 L 106,536 L 116,536 L 117,512 L 117,495 Z M 115,420 L 97,423 L 100,480 L 117,471 L 117,446 L 101,445 L 116,432 L 115,420 Z M 305,370 L 305,380 L 332,392 L 307,396 L 311,435 L 347,444 L 347,428 L 329,425 L 347,420 L 347,404 L 347,377 L 305,370 Z M 109,383 L 99,383 L 98,407 L 110,407 L 109,383 Z M 110,346 L 102,350 L 98,375 L 110,369 L 110,346 Z" fill="url(#id-40035)" id="id-40037"></path><path d=" M 77,1 C 77,1 95,31 130,90 L 130,90 L 280,90 C 280,90 297,62 332,6 C 332,6 332,6 332,6 L 332,6 C 332,7 336,13 343,24 C 343,24 344,26 345,30 L 345,30 L 294,118 C 294,118 318,111 365,95 C 365,95 366,99 367,107 C 367,107 367,107 367,107 L 367,107 C 365,108 361,109 355,111 L 354,112 C 341,116 318,124 286,134 C 286,134 268,169 232,240 C 232,240 279,207 373,141 C 373,141 374,144 375,149 C 375,149 323,187 220,264 C 215,265 213,266 204,267 C 199,266 196,265 193,264 C 189,260 187,256 185,251 L 185,251 L 27,161 C 27,161 28,159 29,153 C 29,153 79,181 178,238 C 178,238 159,202 122,129 C 122,129 94,121 40,103 L 40,103 L 40,103 C 40,103 41,98 43,90 C 43,90 67,98 114,114 L 114,114 L 66,28 C 66,28 70,19 77,1 Z M 276,100 C 276,100 276,100 276,100 L 276,100 C 273,100 226,100 136,100 C 136,100 140,109 149,126 C 183,141 222,139 260,129 C 260,129 265,119 276,100 Z" fill="#131415" id="id-40037"></path><g transform=" translate(42,179)" fill="#BFBFBF" fill-opacity="0.193" id="id-40039"><path d=" M 239,132 C 231,134 226,136 226,136 C 224,107 223,92 223,92 L 230,57 C 236,107 239,132 239,132 Z" id="id-40040"></path><path d=" M 232,190 C 242,191 254,193 254,193 C 254,202 254,211 254,218 C 205,401 221,458 221,458 C 210,418 205,379 205,342 C 209,321 230,273 232,190 Z" id="id-40041"></path><path d=" M 44,266 C 29,264 16,262 1,259 C 23,372 39,474 39,474 L 48,413 C 39,391 37,341 44,266 Z" id="id-40042"></path><path d=" M 30,120 C 20,120 3,107 3,107 C 5,84 6,72 6,72 L 16,55 C 18,85 23,107 30,120 Z" id="id-40043"></path><path d=" M 74,118 C 59,100 57,65 57,65 L 61,1 C 100,41 104,80 74,118 Z" id="id-40044"></path></g></g><defs><linearGradient x1="50%" y1="0%" x2="50%" y2="100%" id="id-41418"><stop stop-color="#6CAEE2" offset="0%"></stop><stop stop-color="#78B5E3" offset="30%"></stop><stop stop-color="#6CAFE3" offset="67%"></stop><stop stop-color="#6CAFE3" offset="100%"></stop></linearGradient><linearGradient x1="47%" y1="6%" x2="51%" y2="33%" id="id-41419"><stop stop-color="#B4DBEB" offset="0%" stop-opacity="0"></stop><stop stop-color="#B4DBEC" offset="100%"></stop></linearGradient><linearGradient x1="50%" y1="0%" x2="50%" y2="96%" id="id-41420"><stop stop-color="#AAD7F2" offset="0%" stop-opacity="0.837"></stop><stop stop-color="#B7DDE9" offset="100%"></stop></linearGradient></defs><g transform=" translate(322,734)" id="id-41421"><path d=" M 202,176 C 201,169 202,179 201,171 C 183,226 177,275 181,311 C 157,369 127,427 106,485 C 93,534 93,582 96,629 C 86,628 81,627 81,627 C 55,635 41,639 41,639 C 14,670 1,685 1,685 C 8,646 12,627 12,627 C 22,579 35,531 50,482 C 61,405 67,366 67,366 C 64,356 62,352 62,352 C 68,343 71,338 71,338 C 91,279 101,249 101,249 C 108,208 113,177 115,156 C 117,133 115,110 117,87 C 117,75 117,64 117,56 C 116,45 114,38 114,30 C 142,27 168,28 193,34 C 194,34 203,39 218,48 L 437,48 L 482,28 L 553,26 C 556,36 557,45 557,69 C 560,126 557,183 564,240 C 575,290 589,333 593,377 C 606,478 632,578 632,676 C 610,651 599,638 599,638 C 577,634 566,633 566,633 C 555,632 550,632 550,632 C 557,597 561,562 558,527 C 544,468 502,386 485,322 C 482,262 480,232 480,232 C 473,187 470,165 470,165 C 469,173 467,163 466,171 C 409,181 363,186 328,187 C 305,187 263,184 202,176 Z" fill="url(#id-41418)" id="id-41422"></path><path d=" M 205,102 L 177,92 L 196,38 C 199,46 208,59 221,76 L 205,102 Z" fill="#87C2F0" id="id-41423"></path><path d=" M 495,287 C 505,251 508,225 514,205 C 503,194 498,189 498,189 L 526,133 L 539,148 L 567,256 C 576,290 584,325 591,363 C 597,420 598,464 593,491 C 607,526 624,558 629,609 L 616,658 L 599,638 L 566,633 L 550,632 C 557,598 565,569 558,527 C 562,404 508,356 495,287 Z" fill="url(#id-41419)" id="id-41424"></path><path d=" M 417,174 C 447,138 462,120 462,120 L 459,118 L 393,113 L 277,115 L 218,103 L 233,148 L 233,173 L 248,180 C 342,180 398,178 417,174 Z" fill="#86BFE8" id="id-41425"></path><path d=" M 253,48 C 233,72 222,84 222,84 C 219,97 217,103 217,103 C 256,111 276,115 276,115 C 354,114 393,113 393,113 C 384,119 380,122 380,122 C 334,134 311,140 311,140 C 370,140 399,139 399,139 C 439,125 460,118 460,118 C 483,105 494,99 494,99 C 485,72 476,51 466,36 C 478,44 484,48 484,48 C 496,40 502,36 502,36 C 495,52 492,60 492,60 C 499,92 503,107 503,107 C 527,134 539,148 539,148 C 551,95 557,69 557,69 C 554,47 552,32 550,24 L 482,26 L 439,44 L 253,48 Z" fill="url(#id-41420)" id="id-41426"></path><path d=" M 117,93 C 119,92 120,91 120,91 L 119,56 L 116,56 C 117,72 118,84 117,93 Z" fill="#37DFF4" id="id-41427"></path><path d=" M 18,599 C 33,581 40,573 40,573 C 66,563 78,558 78,558 C 59,558 50,558 50,558 C 66,521 74,503 74,503 C 92,506 101,507 101,507 C 101,505 102,503 102,503 C 78,487 67,479 67,479 L 46,494 C 31,546 22,581 18,599 Z" fill="#87C1F0" id="id-41428"></path><path d=" M 98,528 C 76,532 65,534 65,534 C 59,544 56,548 56,548 L 96,554 C 96,543 97,534 98,528 Z" fill="#87C1F0" id="id-41429"></path><path d=" M 102,498 C 81,483 71,475 71,475 C 96,473 109,472 109,472 C 115,415 117,386 117,386 C 137,364 147,354 147,354 C 127,351 116,349 116,349 C 145,345 159,343 159,343 L 179,317 C 155,371 128,426 106,485 C 103,494 102,498 102,498 Z" fill="#6798BE" id="id-41430"></path><path d=" M 98,473 L 99,496 L 71,475 C 89,474 98,473 98,473 Z" fill="#87C1F0" id="id-41431"></path><path d=" M 50,482 C 63,471 70,466 70,466 C 93,466 105,466 105,466 C 111,410 114,382 114,382 C 129,368 136,360 136,360 C 108,359 93,359 93,359 C 105,319 111,299 111,299 C 137,295 150,293 150,293 C 130,275 121,267 121,267 C 159,259 178,256 178,256 C 139,240 120,232 120,232 C 114,232 111,232 111,232 C 107,233 105,234 105,234 C 111,226 117,221 123,218 C 155,219 171,219 171,219 C 156,213 148,211 148,211 C 145,191 143,181 143,181 L 200,175 C 201,172 201,171 201,171 C 192,147 187,135 187,135 C 181,106 178,92 178,92 C 186,67 190,54 190,54 C 159,43 143,38 143,38 C 143,38 133,36 114,30 L 116,56 C 139,61 151,63 151,63 C 136,81 128,89 128,89 C 121,92 117,93 117,93 L 116,148 C 112,189 106,218 101,249 C 110,258 114,262 114,262 C 110,264 108,265 108,265 C 122,281 129,288 129,288 C 114,289 106,289 106,289 C 96,336 91,360 91,360 C 74,369 65,373 65,373 C 60,409 58,428 58,428 C 77,422 87,420 87,420 L 55,443 C 51,469 50,482 50,482 Z" fill="#9FD2F5" id="id-41432"></path><path d=" M 61,427 C 66,407 70,389 78,367 C 85,363 88,362 88,362 C 92,396 96,431 98,466 C 80,466 71,466 71,466 C 60,475 54,479 54,479 L 59,441 L 90,419 C 71,424 61,427 61,427 Z" fill="#87C1F0" id="id-41433"></path><path d=" M 148,386 C 151,373 154,362 159,352 C 164,339 171,328 178,319 C 158,364 148,386 148,386 Z" fill="#6798BE" id="id-41434"></path><path d=" M 182,254 C 178,246 176,242 176,242 C 144,232 128,226 128,226 L 186,231 C 184,242 183,250 182,254 Z" fill="#6798BE" id="id-41435"></path><path d=" M 180,273 C 163,218 157,186 164,179 C 162,179 161,179 159,179 C 151,117 147,86 147,86 L 182,78 L 178,92 L 187,135 L 201,171 C 194,191 190,211 186,231 C 183,246 181,260 180,273 Z" fill="#000000" fill-opacity="0.142" id="id-41436"></path><path d=" M 195,191 L 193,176 L 200,175 C 197,186 195,191 195,191 Z" fill="#3E85B7" id="id-41437"></path><path d=" M 194,195 C 167,197 153,198 153,198 L 190,211 C 192,202 193,197 194,195 Z" fill="#4678A0" id="id-41438"></path><path d=" M 182,78 C 188,62 190,54 190,54 C 149,63 128,68 128,68 C 120,66 117,65 117,65 C 116,61 116,59 116,59 C 107,63 103,65 103,65 L 105,84 L 128,89 L 182,78 Z" fill="#3C3953" id="id-41439"></path><path d=" M 121,68 L 121,88 L 105,84 L 103,65 C 115,67 121,68 121,68 Z" fill="#819AEC" id="id-41440"></path><path d=" M 183,119 L 179,97 C 145,105 128,109 128,109 C 121,107 117,106 117,106 C 117,101 117,99 117,99 C 108,103 103,105 103,105 L 106,124 L 129,130 L 183,119 Z" fill="#3C3953" id="id-41439"></path><path d=" M 121,108 L 121,128 L 106,124 L 103,105 C 115,107 121,108 121,108 Z" fill="#819AEC" id="id-41440"></path><path d=" M 63,356 C 77,357 84,358 84,358 C 78,346 75,340 75,340 L 96,271 L 114,262 L 101,249 L 71,338 L 62,352 C 63,354 63,356 63,356 Z" fill="#26F0FC" id="id-41443"></path><path d=" M 182,51 C 182,46 182,44 182,44 L 195,42 L 190,54 C 185,52 182,51 182,51 Z" fill="#005180" id="id-41444"></path><path d=" M 196,99 L 177,92 C 190,55 197,36 197,36 L 190,82 C 189,87 192,93 196,99 Z" fill="#63F9FF" id="id-41445"></path><path d=" M 485,46 C 485,16 485,0 485,0 L 499,24 C 490,39 485,46 485,46 Z" id="id-41446"></path><path d=" M 493,91 C 481,58 475,42 475,42 C 481,50 484,54 484,54 C 490,48 493,44 493,44 L 485,62 C 490,81 493,91 493,91 Z" fill="#005180" id="id-41447"></path><path d=" M 485,61 C 486,60 487,59 487,59 C 527,67 547,70 547,70 C 554,69 558,68 558,68 C 558,64 557,62 557,62 C 565,64 569,65 569,65 L 572,87 C 558,91 551,94 551,94 L 491,86 C 487,69 485,61 485,61 Z" fill="#3C3953" id="id-41448"></path><path d=" M 551,94 C 549,79 548,72 548,72 L 569,67 L 572,87 C 558,91 551,94 551,94 Z" fill="#4D5688" id="id-41449"></path><path d=" M 485,105 C 486,104 486,103 486,103 C 527,111 547,114 547,114 C 554,113 558,112 558,112 C 557,108 557,106 557,106 C 565,108 568,109 568,109 L 572,131 C 558,135 551,138 551,138 L 491,130 C 487,113 485,105 485,105 Z" fill="#3C3953" id="id-41448"></path><path d=" M 552,138 C 549,123 548,116 548,116 L 569,111 L 572,131 C 558,135 552,138 552,138 Z" fill="#4D5688" id="id-41449"></path><path d=" M 473,176 C 487,128 494,103 494,103 L 470,160 C 472,171 473,176 473,176 Z" fill="#00517F" id="id-41452"></path><path d=" M 481,233 C 481,240 481,243 481,243 C 484,229 490,218 492,208 L 480,151 L 473,176 C 478,214 481,233 481,233 Z" fill="#478CBD" id="id-41453"></path><path d=" M 539,269 C 525,275 518,278 518,278 L 505,263 C 528,267 539,269 539,269 Z" fill="#7DB8E2" id="id-41454"></path><path d=" M 532,290 C 555,267 567,256 567,256 C 572,273 574,281 574,281 L 568,274 C 544,285 532,290 532,290 Z" fill="#8CC2E3" id="id-41455"></path><path d=" M 215,177 C 222,169 225,165 225,165 L 191,145 L 202,177 L 215,177 Z" fill="#94CEFD" id="id-41456"></path><path d=" M 83,663 L 96,629 L 81,627 L 41,639 C 14,670 1,685 1,685 C 0,689 0,691 0,691 C 17,687 26,686 26,686 C 20,675 17,669 17,669 C 34,650 43,640 43,640 L 83,629 L 83,663 Z" fill="#005F91" id="id-41457"></path><path d=" M 550,632 C 559,652 564,662 564,662 C 564,643 564,634 564,634 C 587,639 598,641 598,641 C 612,658 619,667 619,667 C 613,674 610,678 610,678 L 606,687 C 615,687 628,685 632,676 L 599,638 L 566,633 C 555,632 550,632 550,632 Z" fill="#005F90" id="id-41458"></path></g><defs><linearGradient x1="50%" y1="0%" x2="50%" y2="100%" id="id-50839"><stop stop-color="#B1FF24" offset="0%"></stop><stop stop-color="#44D930" offset="100%"></stop></linearGradient><linearGradient x1="50%" y1="0%" x2="50%" y2="100%" id="id-50839"><stop stop-color="#B1FF24" offset="0%"></stop><stop stop-color="#44D930" offset="100%"></stop></linearGradient><linearGradient x1="50%" y1="0%" x2="50%" y2="100%" id="id-50839"><stop stop-color="#B1FF24" offset="0%"></stop><stop stop-color="#44D930" offset="100%"></stop></linearGradient><linearGradient x1="54%" y1="50%" x2="46%" y2="51%" id="id-50842"><stop stop-color="#062847" offset="0%" stop-opacity="0"></stop><stop stop-color="#072644" offset="52%"></stop><stop stop-color="#072643" offset="100%" stop-opacity="0"></stop></linearGradient><linearGradient x1="50%" y1="0%" x2="50%" y2="100%" id="id-50843"><stop stop-color="#023058" offset="0%" stop-opacity="0.124"></stop><stop stop-color="#022F57" offset="56%"></stop><stop stop-color="#022F57" offset="100%" stop-opacity="0.239"></stop></linearGradient><linearGradient x1="32%" y1="3%" x2="48%" y2="27%" id="id-50844"><stop stop-color="#143253" offset="0%"></stop><stop stop-color="#29466A" offset="100%"></stop></linearGradient><linearGradient x1="58%" y1="21%" x2="69%" y2="5%" id="id-50845"><stop stop-color="#29466A" offset="0%"></stop><stop stop-color="#143253" offset="100%"></stop></linearGradient><linearGradient x1="50%" y1="23%" x2="50%" y2="92%" id="id-50846"><stop stop-color="#003563" offset="0%"></stop><stop stop-color="#0D1E30" offset="58%"></stop><stop stop-color="#243245" offset="100%"></stop></linearGradient><linearGradient x1="80%" y1="50%" x2="28%" y2="50%" id="id-50847"><stop stop-color="#2BC51B" offset="0%"></stop><stop stop-color="#36CB17" offset="75%"></stop><stop stop-color="#00A60F" offset="100%"></stop></linearGradient><linearGradient x1="57%" y1="56%" x2="40%" y2="50%" id="id-50848"><stop stop-color="#314C75" offset="0%"></stop><stop stop-color="#13273F" offset="100%"></stop></linearGradient><linearGradient x1="94%" y1="12%" x2="17%" y2="55%" id="id-50849"><stop stop-color="#FF89CD" offset="0%"></stop><stop stop-color="#FFAADB" offset="100%"></stop></linearGradient><linearGradient x1="100%" y1="50%" x2="0%" y2="50%" id="id-50850"><stop stop-color="#FF4CB4" offset="0%"></stop><stop stop-color="#F132A1" offset="100%"></stop></linearGradient><linearGradient x1="48%" y1="55%" x2="48%" y2="60%" id="id-50851"><stop stop-color="#203956" offset="0%"></stop><stop stop-color="#000102" offset="100%"></stop></linearGradient></defs><g transform=" translate(325,569)" id="id-50852"><polygon points="311 320 286 333 275 410 262 315 265 284 272 254 396 270 324 273 272 273 274 285 402 298 323 301 269 300 272 316" fill="#000000" opacity="0.301" id="id-50853"></polygon><polygon points="318 319 367 329 377 358 392 319" fill="#000000" opacity="0.301" id="id-50854"></polygon><path d=" M 262,248 C 281,251 302,252 325,252 C 348,252 370,251 393,248 L 393,269 C 369,268 346,267 325,267 C 304,267 283,268 262,269 L 262,248 Z" fill="url(#id-50839)" id="id-50855"></path><path d=" M 262,276 C 281,278 302,279 324,279 C 347,279 370,278 393,276 L 393,297 C 368,296 345,295 324,295 C 304,295 283,296 262,297 L 262,276 Z" fill="url(#id-50839)" id="id-50855"></path><path d=" M 262,304 C 281,305 301,306 324,306 C 347,306 370,305 393,304 L 393,325 C 368,323 345,322 324,322 C 303,322 283,323 262,325 L 262,304 Z" fill="url(#id-50839)" id="id-50855"></path><path d=" M 0,837 C 7,849 10,855 10,855 C 10,1046 10,1141 10,1141 C 24,1140 30,1139 30,1139 L 29,900 L 92,811 C 61,817 30,826 0,837 Z" fill="#022E54" id="id-50858"></path><path d=" M 544,793 C 542,801 554,805 560,810 C 584,863 596,889 596,889 C 599,992 600,1043 600,1043 C 610,1035 615,1030 615,1030 L 614,841 L 635,816 C 583,800 553,792 544,793 Z" fill="#022E54" id="id-50859"></path><path d=" M 11,1143 C 24,1142 31,1141 31,1141 C 31,1127 31,1120 31,1120 L 11,1111 L 11,1143 Z" fill="#1DBD18" id="id-50860"></path><path d=" M 600,1012 L 615,1003 L 616,1032 L 601,1044 C 600,1023 600,1012 600,1012 Z" fill="#1DBD18" id="id-50861"></path><path d=" M 301,170 L 301,169 C 285,213 276,243 275,260 C 275,284 275,313 279,341 L 297,480 L 282,582 C 308,601 342,608 372,584 L 358,477 C 373,375 381,324 381,324 C 380,299 383,279 380,252 C 379,242 377,229 374,215 L 373,212 C 370,195 366,178 364,170 C 374,171 384,172 394,174 C 423,179 450,193 474,222 C 480,237 486,253 491,273 C 488,288 481,306 469,326 C 466,354 462,374 459,394 L 459,397 C 455,421 452,444 450,479 C 450,481 451,482 452,484 L 453,486 C 468,515 483,544 492,580 C 499,621 503,641 503,641 C 556,830 513,895 473,1074 L 470,1155 L 474,1191 L 366,1191 L 366,1191 C 357,1115 353,1076 353,1076 C 358,966 327,850 343,754 C 332,754 326,754 323,754 L 323,754 C 323,754 323,754 323,754 L 323,754 C 323,754 323,754 323,754 L 322,754 C 322,754 322,754 322,754 L 322,754 L 322,754 C 324,814 317,873 310,932 L 310,939 L 310,939 L 309,946 C 303,999 297,1051 297,1104 C 293,1126 293,1142 295,1157 L 289,1191 L 175,1191 L 175,1191 C 180,1168 183,1156 183,1156 C 181,1132 178,1112 177,1097 L 176,1095 C 175,1087 174,1080 173,1075 C 164,1019 153,986 147,950 C 108,772 122,767 163,597 C 176,546 191,502 209,472 C 201,389 198,347 198,347 C 197,339 196,333 195,330 C 180,304 172,285 172,272 C 175,256 180,239 190,219 C 214,198 226,187 226,187 C 255,178 269,173 269,173 C 280,172 290,171 301,170 Z" fill="#0F1822" id="id-50862"></path><path d=" M 474,631 L 341,822 C 345,892 353,968 353,1052 L 378,1125 L 442,1035 L 448,1026 L 503,954 C 544,809 534,701 474,631 Z" fill="url(#id-50842)" id="id-50863"></path><path d=" M 252,1099 C 236,1028 234,974 232,919 C 243,860 248,830 248,830 C 252,776 255,749 255,749 C 230,700 208,663 187,638 C 200,709 214,780 221,853 L 208,1032 C 238,1076 252,1099 252,1099 Z" fill="url(#id-50843)" id="id-50864"></path><path d=" M 276,1191 C 287,1135 278,1111 277,1075 L 303,1004 C 300,1042 298,1075 297,1104 C 294,1124 293,1141 295,1157 L 289,1191 C 280,1191 276,1191 276,1191 Z" fill="#08121D" id="id-50865"></path><path d=" M 354,1052 L 353,1076 L 363,1191 C 376,1191 383,1191 383,1191 L 378,1125 L 354,1052 Z" fill="#08121D" id="id-50866"></path><path d=" M 383,1191 C 387,1191 389,1191 389,1191 C 386,1152 384,1132 384,1132 C 421,1077 458,1022 498,972 C 501,960 503,954 503,954 C 467,1002 448,1026 448,1026 C 397,983 372,961 372,961 C 356,942 348,932 348,932 C 349,940 349,944 349,944 C 363,961 369,969 369,969 L 442,1035 L 378,1125 C 382,1169 383,1191 383,1191 Z" fill="url(#id-50844)" id="id-50867"></path><path d=" M 268,1191 C 272,1154 274,1136 274,1136 C 234,1071 215,1038 215,1038 C 249,1015 281,984 309,943 C 310,935 311,931 311,931 C 275,979 241,1013 208,1032 C 167,977 147,950 147,950 C 148,958 148,962 148,962 C 199,1028 239,1086 268,1136 L 264,1191 C 266,1191 268,1191 268,1191 Z" fill="url(#id-50845)" id="id-50868"></path><path d=" M 211,739 C 218,727 221,722 221,722 C 215,707 212,700 212,700 L 197,721 C 207,733 211,739 211,739 Z" fill="#435271" id="id-50869"></path><path d=" M 316,886 C 307,830 293,773 279,717 C 249,690 235,677 235,677 C 246,676 251,676 251,676 C 230,650 219,636 219,636 C 230,633 235,632 235,632 C 219,618 212,612 212,612 C 283,630 318,639 318,639 C 329,702 335,734 335,734 C 350,733 365,728 381,715 C 393,694 400,683 400,683 C 416,668 424,661 424,661 C 434,661 439,661 439,661 C 407,691 374,732 341,802 L 343,754 L 322,754 C 322,804 320,848 316,886 Z" fill="#0A131D" id="id-50870"></path><path d=" M 474,704 C 463,694 458,689 458,689 C 451,700 447,706 447,706 L 462,719 C 470,709 474,704 474,704 Z" fill="#3B567C" id="id-50871"></path><path d=" M 439,330 C 452,323 465,318 480,304 L 491,273 C 487,258 481,240 474,222 C 438,179 394,169 334,169 C 312,170 290,171 267,173 L 227,186 L 190,219 C 183,234 176,250 172,273 C 173,293 186,311 195,330 C 219,334 231,337 231,337 C 263,337 279,337 278,337 C 276,312 276,286 279,260 C 282,233 288,206 298,179 C 338,172 319,171 358,179 C 366,200 373,224 376,250 C 379,275 379,307 376,332 C 376,333 439,330 439,330 Z" fill="url(#id-50846)" id="id-50872"></path><path d=" M 360,674 C 421,637 452,618 452,618 C 420,610 404,606 404,606 C 417,524 423,482 423,482 C 401,488 390,491 390,491 C 417,439 431,414 431,414 C 436,358 439,330 439,330 C 398,325 377,323 377,323 C 362,426 354,478 354,478 C 365,547 369,582 367,582 C 343,600 316,607 282,582 C 292,512 297,477 297,477 C 284,385 277,338 277,338 C 257,346 220,366 231,423 C 253,499 264,537 264,537 C 250,524 242,518 242,518 L 253,598 C 225,607 212,612 212,612 C 273,627 304,635 304,635 L 259,641 C 326,663 360,674 360,674 Z" fill="#0A2338" id="id-50873"></path><path d=" M 404,648 L 366,642 L 452,618 C 420,638 404,648 404,648 Z" fill="#08121D" id="id-50874"></path><path d=" M 348,653 C 340,657 336,660 336,660 C 336,625 336,607 336,607 L 347,602 C 348,636 348,653 348,653 Z" fill="#3B567C" id="id-50875"></path><path d=" M 324,657 C 317,655 313,654 313,654 C 314,620 315,604 315,604 L 324,607 C 324,641 324,657 324,657 Z" fill="#3B567C" id="id-50876"></path><path d=" M 229,587 C 202,566 189,555 189,555 L 207,546 C 221,574 229,587 229,587 Z" fill="#0A2238" id="id-50877"></path><path d=" M 459,496 C 409,539 384,561 384,561 C 384,574 384,581 384,581 C 431,556 455,543 455,543 C 475,551 485,555 485,555 L 482,541 C 467,511 459,496 459,496 Z" fill="#21BF19" id="id-50878"></path><path d=" M 171,564 C 196,552 208,545 208,545 C 248,569 268,580 268,580 C 268,566 268,559 268,559 L 198,493 C 186,517 177,541 171,564 Z" fill="#21BF19" id="id-50879"></path><path d=" M 148,962 C 165,1029 176,1091 181,1156 L 175,1191 L 263,1191 L 268,1136 C 234,1078 195,1020 148,962 Z" fill="#3CC317" fill-opacity="0.548" id="id-50880"></path><path d=" M 389,1191 L 474,1191 L 470,1155 L 473,1074 L 498,972 C 458,1022 421,1077 384,1132 L 389,1191 Z" fill="#3CC317" fill-opacity="0.548" id="id-50881"></path><path d=" M 90,812 C 58,819 29,826 0,838 C 22,757 32,717 32,717 C 45,647 64,570 63,515 C 65,485 96,440 101,413 C 121,293 106,191 126,111 C 161,92 219,77 245,63 C 255,48 260,31 263,13 C 310,26 358,29 406,11 C 406,32 407,51 414,59 C 440,78 506,83 537,113 C 542,148 547,182 550,217 C 552,277 550,335 556,392 C 561,433 574,473 589,510 C 581,577 609,641 620,707 C 611,725 638,780 635,817 C 616,812 561,793 544,794 C 550,770 553,758 553,758 C 563,746 562,727 562,707 C 551,692 546,684 546,684 C 540,629 512,588 495,540 C 491,522 491,504 477,491 C 480,440 474,386 469,322 C 477,306 487,289 491,273 C 488,259 482,242 474,222 C 440,186 418,171 332,169 L 267,173 L 226,187 L 190,219 C 183,235 176,251 172,273 C 173,290 184,310 195,330 C 195,386 174,402 179,496 C 164,511 149,526 154,550 C 131,594 103,632 96,698 C 92,706 89,712 79,722 C 75,755 88,779 90,812 Z" fill="url(#id-50847)" id="id-50882"></path><path d=" M 292,37 C 304,64 310,77 310,77 C 289,81 279,83 279,83 C 275,86 273,87 273,87 C 328,87 356,87 356,87 L 378,20 L 406,11 C 407,31 406,46 414,59 C 439,76 483,83 513,97 L 434,188 C 377,159 296,171 269,173 C 250,178 236,183 227,188 C 228,143 229,121 229,121 L 224,119 L 286,77 C 290,51 292,37 292,37 Z" fill="#5DE314" id="id-50883"></path><path d=" M 398,78 C 379,91 361,100 342,106 C 404,117 464,120 523,121 C 528,135 531,142 531,142 C 524,215 520,251 520,251 C 521,260 521,264 521,264 C 528,281 532,289 532,289 C 544,337 536,374 533,414 L 575,472 C 565,444 558,417 556,392 C 550,328 553,260 549,196 L 537,113 C 505,83 451,82 414,59 C 406,49 407,29 406,11 C 387,16 378,19 378,19 L 382,55 C 393,70 398,78 398,78 Z" fill="#B1FF24" id="id-50884"></path><path d=" M 6,836 C 2,837 0,838 0,838 C 0,802 25,752 34,711 C 28,757 9,790 6,836 Z" fill="#06EEB2" id="id-50885"></path><path d=" M 160,158 L 175,195 C 173,181 174,166 179,152 C 179,152 182,157 188,167 C 184,191 181,214 188,225 C 177,246 174,257 172,272 C 172,282 175,291 180,300 L 185,342 L 158,434 L 178,498 C 130,538 106,558 106,558 C 134,548 148,542 148,542 C 141,568 95,630 89,696 C 59,750 44,776 44,776 C 61,778 71,781 73,785 C 73,801 66,808 61,819 C 42,824 32,827 32,827 C 30,786 29,765 29,765 C 59,702 75,636 83,568 C 94,530 100,511 100,511 L 102,407 C 119,311 107,190 126,111 L 160,158 Z" fill="#04B418" id="id-50886"></path><path d=" M 34,826 C 31,785 29,765 29,765 C 46,748 55,739 55,739 C 46,764 41,776 41,776 C 58,785 66,790 66,790 L 59,820 L 34,826 Z" fill="#42D31D" id="id-50887"></path><path d=" M 46,646 C 71,644 86,628 91,598 C 92,556 62,545 62,545 C 61,553 60,558 60,558 C 75,565 82,580 80,602 C 74,621 63,632 48,635 C 47,642 46,646 46,646 Z" fill="url(#id-50848)" id="id-50888"></path><path d=" M 98,514 C 86,496 79,487 79,487 L 156,483 C 117,504 98,514 98,514 Z" fill="#38CD1D" id="id-50889"></path><path d=" M 64,508 C 73,497 78,491 78,491 C 76,486 75,484 75,484 C 92,442 101,422 101,422 C 103,407 103,401 101,404 C 97,434 65,487 64,508 Z" fill="#06EEB2" id="id-50890"></path><path d=" M 154,463 C 126,447 112,438 112,438 C 120,386 123,360 123,360 L 156,431 C 155,453 154,463 154,463 Z" fill="#3FD21E" id="id-50891"></path><path d=" M 143,484 L 160,465 C 128,447 112,438 112,438 C 108,444 106,447 106,447 L 103,412 L 75,484 L 79,487 C 121,485 143,484 143,484 Z" fill="#00A60F" id="id-50892"></path><path d=" M 189,380 L 180,300 L 195,330 C 195,350 193,367 189,380 Z" fill="#006300" id="id-50893"></path><path d=" M 109,341 C 114,343 117,343 117,343 C 121,289 124,262 124,262 C 120,208 119,169 120,143 C 107,167 115,264 109,341 Z" fill="#02EFB1" id="id-50894"></path><path d=" M 175,260 C 162,203 156,175 156,175 L 187,227 C 181,241 177,251 175,260 Z" fill="#008D04" id="id-50895"></path><path d=" M 113,187 C 172,151 233,116 286,78 L 293,20 L 263,13 C 261,30 255,46 246,63 C 212,80 153,95 126,111 C 117,139 113,164 113,187 Z" fill="url(#id-50849)" id="id-50896"></path><path d=" M 224,120 L 125,111 C 114,142 114,164 113,187 L 224,120 Z" fill="url(#id-50850)" id="id-50897"></path><path d=" M 246,63 C 247,67 247,68 247,68 C 257,58 268,34 278,17 L 263,13 C 261,31 255,47 246,63 Z" fill="#FFA7DB" id="id-50898"></path><path d=" M 293,20 C 292,29 291,33 291,33 L 286,19 C 290,20 293,20 293,20 Z" fill="#FF64BE" id="id-50899"></path><path d=" M 224,190 C 227,194 229,196 229,196 C 251,195 262,194 262,194 C 265,180 267,173 267,173 L 227,186 C 225,189 224,190 224,190 Z" fill="#0F1822" id="id-50900"></path><path d=" M 399,192 C 422,195 434,196 434,196 L 436,190 C 435,188 434,188 434,188 L 393,180 C 397,188 399,192 399,192 Z" fill="#0F1822" id="id-50901"></path><path d=" M 392,180 C 419,185 432,188 432,188 C 436,180 438,176 438,176 C 424,173 417,171 417,171 C 425,137 430,121 430,121 C 395,91 378,76 378,76 C 375,39 374,20 374,20 C 370,21 368,21 368,21 C 371,60 373,79 373,79 L 378,81 C 409,108 425,122 425,122 C 417,154 413,170 413,170 L 396,167 C 394,175 392,180 392,180 Z" fill="#314D75" id="id-50902"></path><path d=" M 228,192 C 255,185 269,181 269,181 C 269,171 268,166 268,166 C 258,169 253,170 253,170 C 246,133 242,114 242,114 C 275,92 291,81 291,81 L 300,21 L 293,20 C 288,58 286,77 286,77 C 253,100 237,111 237,111 C 245,151 249,171 249,171 L 224,176 C 227,186 228,192 228,192 Z" fill="#314D75" id="id-50903"></path><path d=" M 338,169 C 334,169 332,169 332,169 C 331,154 330,147 330,147 C 333,151 334,153 334,153 L 339,146 C 338,161 338,169 338,169 Z" fill="#000102" id="id-50904"></path><path d=" M 334,149 C 328,140 325,136 325,136 C 327,131 328,128 328,128 C 338,128 343,128 343,128 L 345,135 C 338,144 334,149 334,149 Z" fill="#000102" id="id-50905"></path><path d=" M 335,71 C 337,82 338,87 338,87 C 355,97 364,103 365,104 L 365,104 C 365,104 365,104 365,104 C 365,113 364,117 364,117 L 355,118 C 350,125 348,129 346,130 L 346,130 C 346,131 346,131 346,131 L 346,131 C 346,131 346,131 346,131 C 345,129 344,127 344,127 L 344,127 L 344,127 C 333,127 327,126 327,126 L 327,126 L 327,126 C 324,130 323,132 323,132 C 318,123 315,119 315,119 C 309,118 306,118 306,118 C 304,108 303,103 303,103 C 323,93 332,87 332,87 C 334,76 335,71 335,71 Z M 335,111 L 335,111 C 335,111 332,114 328,119 L 328,119 L 328,119 C 328,119 329,120 332,123 C 332,123 333,122 334,119 L 334,119 L 334,119 C 335,119 336,121 338,123 L 338,123 L 338,122 C 338,122 339,121 342,118 L 342,118 L 335,111 L 335,111 Z M 314,104 C 317,110 319,112 319,112 C 327,109 331,107 331,106 L 331,106 L 331,106 L 314,104 Z M 355,104 L 339,107 C 339,107 342,108 349,112 C 349,112 351,109 355,104 L 355,104 Z" fill="url(#id-50851)" id="id-50862"></path><path d=" M 398,170 C 396,176 395,179 395,179 C 419,184 431,186 431,186 L 433,178 C 410,173 398,170 398,170 Z" fill="#FFF200" id="id-50907"></path><path d=" M 229,179 C 230,185 230,189 230,189 C 254,183 266,180 266,180 L 265,172 C 241,177 229,179 229,179 Z" fill="#FFF200" id="id-50908"></path><path d=" M 343,88 C 352,93 356,95 356,95 C 361,90 363,87 363,87 C 362,77 362,73 362,73 L 357,82 C 348,86 343,88 343,88 Z" fill="#223C5C" id="id-50909"></path><path d=" M 313,95 C 321,90 326,88 326,88 C 316,85 312,83 312,83 C 309,76 308,72 308,72 L 305,87 C 311,92 313,95 313,95 Z" fill="#223C5C" id="id-50910"></path><path d=" M 334,69 C 331,62 329,58 329,58 C 331,55 332,53 332,53 C 332,35 332,26 332,26 C 334,26 335,26 335,26 C 335,45 335,54 335,54 L 339,63 C 336,67 334,69 334,69 Z" fill="#223C5C" id="id-50911"></path><path d=" M 479,116 C 467,112 461,110 461,110 C 473,92 478,84 478,84 L 500,91 C 486,107 479,116 479,116 Z" fill="#314C75" id="id-50912"></path><path d=" M 469,168 C 477,160 481,156 481,156 C 483,170 484,178 484,178 C 481,209 479,225 479,225 C 498,185 508,165 508,165 C 511,180 512,188 512,188 C 499,236 492,260 492,260 C 512,247 522,240 522,240 C 509,356 503,414 503,414 C 516,454 522,474 522,474 C 506,494 498,503 498,503 C 532,533 550,548 550,548 C 555,557 558,562 558,562 L 505,563 L 495,540 C 496,522 493,505 477,491 C 481,444 478,396 469,323 C 477,309 487,292 491,273 C 487,260 483,246 474,222 C 470,186 469,168 469,168 Z" fill="#11B818" id="id-50913"></path><path d=" M 479,236 C 491,208 496,194 496,194 C 497,209 498,216 498,216 L 488,262 C 482,244 479,236 479,236 Z" fill="#008A00" id="id-50914"></path><path d=" M 490,369 L 483,350 L 508,165 L 523,121 L 531,142 L 522,240 C 512,261 502,304 490,369 Z" fill="#5DE522" id="id-50915"></path><path d=" M 496,474 C 492,490 490,498 490,498 L 549,550 C 555,558 558,563 558,563 C 528,555 513,551 513,551 C 539,608 552,637 552,637 C 551,655 551,664 551,664 C 564,691 570,704 570,704 C 595,695 607,690 607,690 C 597,641 593,592 576,544 C 581,515 584,500 584,500 C 561,491 550,486 550,486 L 564,457 C 543,429 533,414 533,414 C 536,374 545,335 532,290 L 521,264 L 521,245 C 509,358 503,414 503,414 C 516,455 523,475 523,475 L 515,483 C 502,477 496,474 496,474 Z" fill="#67EB25" id="id-50916"></path><path d=" M 554,541 L 507,503 L 517,485 C 539,486 550,486 550,486 C 567,493 575,496 575,496 L 582,504 L 554,541 Z" fill="#A0FB24" id="id-50917"></path><path d=" M 616,686 C 586,694 570,698 570,698 C 569,762 568,794 568,794 L 636,815 C 632,760 612,727 620,707 C 618,693 616,686 616,686 Z" fill="#FF48B3" id="id-50918"></path><path d=" M 607,689 C 583,695 570,698 570,698 C 581,723 586,736 586,736 L 587,799 C 619,810 636,815 636,815 L 635,798 C 633,788 628,770 618,744 L 607,689 Z" fill="#FF82CA" id="id-50919"></path><path d=" M 615,682 C 603,685 597,687 597,687 C 589,655 585,639 585,639 L 603,634 C 611,666 615,682 615,682 Z" fill="#314C75" id="id-50920"></path><path d=" M 105,385 C 121,383 130,381 130,381 C 133,358 135,347 135,347 L 110,341 C 106,370 105,385 105,385 Z" fill="#314C75" id="id-50921"></path><path d=" M 384,17 C 383,7 382,2 382,2 C 399,5 407,8 406,11 C 392,15 384,17 384,17 Z" fill="#006300" id="id-50922"></path><path d=" M 286,19 L 288,0 C 265,8 263,11 263,13 C 278,17 286,19 286,19 Z" fill="#006300" id="id-50923"></path><path d=" M 376,249 C 431,243 459,239 459,239 C 447,228 397,218 370,217 C 374,235 376,246 376,249 Z" fill="#445E84" id="id-50924"></path><path d=" M 476,288 C 470,266 464,244 472,240 C 480,245 481,260 476,288 Z" fill="#415B80" id="id-50925"></path><path d=" M 280,250 C 235,255 211,257 206,258 C 198,258 198,253 198,253 C 207,238 250,213 289,208 C 285,224 282,238 280,250 Z" fill="#264366" id="id-50926"></path></g><defs><linearGradient x1="87%" y1="35%" x2="76%" y2="60%" id="id-63895"><stop stop-color="#942390" offset="0%"></stop><stop stop-color="#150717" offset="100%"></stop></linearGradient><linearGradient x1="50%" y1="4%" x2="50%" y2="53%" id="id-63896"><stop stop-color="#410C40" offset="0%"></stop><stop stop-color="#4B1548" offset="46%"></stop><stop stop-color="#B825B5" offset="70%"></stop><stop stop-color="#BF32B9" offset="100%"></stop></linearGradient><linearGradient x1="67%" y1="58%" x2="45%" y2="42%" id="id-63897"><stop stop-color="#FFFEFF" offset="0%" stop-opacity="0.704"></stop><stop stop-color="#FEFCFD" offset="100%" stop-opacity="0.186"></stop></linearGradient></defs><g transform=" translate(560,270)" id="id-63898"><path d=" M 45,241 C 62,198 72,163 84,148 C 86,162 99,193 128,217 C 124,189 122,167 123,168 C 138,185 157,215 179,260 C 170,222 148,183 113,145 C 105,140 94,136 85,135 C 59,169 49,213 45,241 Z" fill="#000000" opacity="0.377" id="id-63899"></path><path d=" M 26,353 C 19,269 11,236 16,227 C 11,201 13,208 11,175 C 10,175 9,175 8,175 C 3,146 1,128 0,121 C 12,106 22,98 32,89 C 87,57 118,74 174,90 C 185,100 193,111 200,123 L 192,178 L 188,178 L 186,219 L 169,179 L 128,108 L 86,136 C 47,160 26,198 21,251 C 36,330 28,265 26,353 Z" fill="#320D30" id="id-63900"></path><path d=" M 46,80 C 40,78 36,71 34,58 C 30,65 30,75 35,88 C 35,88 34,90 34,89 C 17,58 20,57 71,8 C 73,9 77,10 77,9 C 97,-5 118,1 122,3 C 128,-2 143,14 155,23 C 177,40 176,61 168,73 C 168,66 168,66 167,60 C 173,42 151,29 151,29 C 164,57 151,40 167,60 C 169,69 168,78 164,88 C 118,90 79,87 46,80 Z" fill="url(#id-63895)" id="id-63901"></path><path d=" M 20,127 C 21,109 16,121 40,96 C 37,97 31,100 22,105 C 32,95 40,88 46,84 C 44,85 38,87 31,90 C 44,79 60,68 78,59 C 83,59 91,61 101,64 C 109,60 116,56 121,54 C 182,92 177,87 192,127 C 189,142 187,149 184,156 C 175,138 189,155 158,127 C 159,131 165,139 175,149 C 176,159 177,168 176,177 C 138,100 168,125 140,109 C 153,118 163,157 169,179 C 156,171 134,148 120,111 C 138,183 195,175 187,245 C 181,237 180,226 178,225 C 177,239 186,265 182,285 C 178,264 180,233 114,151 C 123,181 143,242 148,298 C 138,231 83,210 84,109 C 82,125 83,127 83,138 C 38,215 39,281 37,319 C 32,305 28,271 26,217 C 37,174 45,150 49,145 C 37,151 27,196 16,222 C 16,208 16,195 16,182 C 26,148 46,121 76,103 C 55,112 29,122 20,127 Z" fill="url(#id-63896)" id="id-63902"></path><path d=" M 121,54 C 105,61 104,63 101,64 C 97,63 93,62 80,59 C 83,64 88,71 94,80 L 80,89 L 98,89 L 79,102 L 96,99 L 101,108 L 105,100 L 131,103 L 110,89 C 116,89 119,89 119,89 L 109,79 C 114,69 118,60 121,54 Z" fill="#280B2E" id="id-63903"></path><path d=" M 27,155 C 29,151 33,145 39,137 C 48,146 50,137 54,136 C 57,145 71,141 83,138 C 77,148 72,156 71,160 C 66,157 58,155 44,155 C 47,149 49,146 50,144 C 48,144 45,148 39,155 C 35,154 31,154 27,155 Z" fill="#FEFCFD" fill-opacity="0.704" opacity="0.504" id="id-63904"></path><path d=" M 91,163 L 114,156 L 111,147 L 118,156 L 130,148 C 128,142 126,136 123,130 C 120,141 112,143 110,138 C 109,141 108,145 108,149 L 90,151 L 87,143 L 91,163 Z" fill="#FEFCFD" fill-opacity="0.704" opacity="0.504" id="id-63905"></path><path d=" M 129,130 C 135,139 142,150 145,155 C 144,146 152,142 156,141 C 154,135 152,131 150,122 C 148,135 140,133 129,130 Z" fill="#FEFCFD" fill-opacity="0.704" opacity="0.504" id="id-63906"></path><path d=" M 172,131 C 162,119 158,120 146,110 C 165,105 169,111 151,74 C 160,78 165,83 174,91 C 174,109 167,105 172,131 Z" fill="url(#id-63897)" opacity="0.504" id="id-63907"></path></g><defs></defs><path d=" M 1202,1685 C 1201,1683 1198,1681 1197,1679 C 1196,1678 1196,1676 1196,1675 C 1196,1674 1194,1672 1193,1671 C 1193,1670 1192,1669 1192,1668 C 1192,1667 1195,1666 1196,1665 C 1198,1663 1200,1661 1202,1658 C 1207,1649 1216,1643 1226,1641 C 1240,1638 1254,1644 1263,1655 C 1264,1657 1266,1660 1265,1663 C 1265,1664 1263,1665 1263,1666 C 1263,1667 1265,1669 1266,1670 C 1271,1673 1269,1673 1270,1678 C 1270,1682 1274,1681 1274,1685 L 1274,1685 L 1274,1686 C 1274,1686 1274,1686 1274,1686 C 1273,1688 1271,1688 1270,1689 C 1268,1691 1267,1692 1266,1694 C 1263,1698 1261,1700 1258,1704 C 1242,1719 1214,1716 1202,1696 C 1201,1695 1199,1691 1200,1689 C 1201,1688 1202,1688 1202,1685 L 1202,1685 Z M 1268,1685 C 1267,1682 1265,1682 1264,1679 C 1264,1678 1264,1677 1264,1676 C 1264,1675 1264,1674 1264,1674 C 1264,1673 1263,1672 1262,1672 C 1260,1670 1256,1669 1258,1665 C 1259,1662 1261,1662 1258,1658 C 1246,1643 1223,1641 1210,1656 C 1209,1658 1208,1659 1207,1661 C 1205,1663 1202,1665 1200,1667 C 1197,1669 1197,1669 1200,1671 C 1203,1675 1201,1676 1203,1679 C 1204,1681 1207,1682 1208,1685 L 1208,1685 L 1208,1685 C 1207,1690 1203,1688 1207,1694 C 1216,1706 1232,1711 1246,1705 C 1249,1704 1252,1702 1255,1699 C 1257,1697 1259,1694 1261,1691 C 1263,1689 1267,1687 1268,1685 L 1268,1685 Z M 1254,1685 C 1254,1682 1252,1682 1252,1680 C 1251,1677 1251,1673 1255,1674 C 1258,1675 1256,1678 1258,1680 C 1259,1682 1260,1682 1260,1685 L 1261,1686 L 1260,1686 C 1259,1688 1257,1689 1255,1690 C 1248,1694 1246,1699 1237,1700 C 1231,1701 1225,1700 1221,1697 C 1219,1696 1216,1694 1215,1692 C 1213,1689 1216,1688 1216,1685 C 1215,1683 1212,1682 1211,1680 C 1208,1677 1210,1673 1214,1674 L 1214,1674 L 1215,1675 C 1216,1678 1215,1679 1217,1681 C 1219,1682 1222,1683 1222,1686 C 1222,1689 1220,1690 1224,1692 C 1230,1696 1238,1695 1244,1691 C 1246,1690 1253,1687 1254,1685 L 1254,1685 Z M 1244,1674 C 1242,1675 1239,1674 1237,1673 C 1236,1672 1233,1670 1232,1669 C 1231,1669 1231,1668 1231,1667 C 1231,1666 1233,1665 1234,1664 C 1235,1662 1237,1661 1238,1659 C 1242,1652 1249,1658 1247,1663 C 1246,1665 1243,1666 1243,1668 C 1243,1670 1246,1671 1244,1674 L 1244,1674 L 1244,1674 L 1244,1674 Z M 1222,1656 C 1224,1655 1227,1656 1228,1659 C 1229,1660 1229,1661 1229,1663 C 1228,1665 1223,1666 1225,1669 C 1225,1670 1226,1670 1226,1671 C 1227,1674 1226,1675 1223,1675 C 1222,1675 1219,1673 1218,1672 C 1216,1671 1212,1669 1214,1666 C 1215,1664 1217,1664 1218,1662 C 1219,1660 1220,1658 1222,1656 L 1222,1656 Z" fill="#343D53" opacity="0.297" id="id-77051"></path></svg>