<?xml version="1.0" encoding="UTF-8"?><svg width="1320px" height="1760px" viewBox="0 0 1320 1760" version="1.1" xmlns="http://www.w3.org/2000/svg" xmlns:xlink="http://www.w3.org/1999/xlink"><defs><linearGradient x1="0%" y1="41%" x2="100%" y2="41%" id="id-30352"><stop stop-color="#C8D4F2" offset="0%"></stop><stop stop-color="#94A0BE" offset="100%"></stop></linearGradient><linearGradient x1="0%" y1="50%" x2="100%" y2="50%" id="id-30353"><stop stop-color="#E4EBFF" offset="0%"></stop><stop stop-color="#6A7595" offset="100%"></stop></linearGradient><filter width="106%" height="106%" x="-3%" y="-3%" id="id-30354" filterUnits="objectBoundingBox"><feGaussianBlur in="SourceGraphic" stdDeviation="10"></feGaussianBlur></filter><linearGradient x1="0%" y1="50%" x2="100%" y2="50%" id="id-30355"><stop stop-color="#C9D0F1" offset="0%"></stop><stop stop-color="#949FC0" offset="100%"></stop></linearGradient></defs><g stroke="none" stroke-width="1" fill="none" id="id-30356" fill-rule="evenodd"><g id="id-30357"><rect fill="url(#id-30352)" width="1320" height="1760" x="0" y="0" id="id-30358"></rect><circle cx="661" cy="898" r="504" fill="url(#id-30353)" id="id-30359" filter="url(#id-30354)"></circle><circle cx="660" cy="897" r="491" fill="url(#id-30355)" id="id-30359"></circle></g></g><defs></defs><g transform=" translate(344,555)" id="id-73551"><path d=" M 185,35 C 235,12 260,0 260,0 L 376,2 L 442,33 L 422,65 L 310,153 L 182,42 C 184,37 185,35 185,35 Z" fill="#56837D" id="id-73552"></path><path d=" M 189,38 C 215,25 228,19 228,19 C 250,8 262,3 262,3 C 335,6 371,7 371,7 C 416,26 438,35 438,35 L 419,64 L 310,153 L 189,38 Z" fill="#527BBB" id="id-73553"></path><path d=" M 7,774 C 0,773 -1,769 3,763 C 22,755 41,737 60,710 C 79,733 88,745 88,745 C 74,757 66,763 66,763 L 7,774 Z" fill="#0E2E21" id="id-73554"></path><path d=" M 609,765 C 597,768 591,769 591,769 L 537,761 L 522,738 L 561,709 L 607,759 C 608,763 609,765 609,765 Z" fill="#0E3224" id="id-73555"></path><path d=" M 189,38 C 205,27 228,19 228,19 C 230,36 231,44 231,44 C 218,58 212,65 212,65 C 248,53 266,46 266,46 C 265,58 265,63 265,63 C 254,72 248,76 248,76 L 259,109 L 189,46 C 187,44 187,41 189,38 Z" fill="#80A5E4" id="id-73556"></path><path d=" M 370,49 L 419,64 L 438,35 L 442,33 C 429,54 422,65 422,65 C 386,97 368,113 368,113 C 374,78 377,60 377,60 L 371,57 C 370,52 370,49 370,49 Z" fill="#80A5E4" id="id-73557"></path></g><defs></defs><path d=" M 544,668 L 581,493 L 740,496 L 737,656 L 619,631 C 607,609 600,595 597,589 C 598,594 600,609 602,634 L 595,638 L 592,599 L 586,646 L 544,668 Z" fill="#8B8B7D" id="id-73858"></path><defs><linearGradient x1="100%" y1="46%" x2="12%" y2="47%" id="id-74421"><stop stop-color="#C5663D" offset="0%"></stop><stop stop-color="#C1633A" offset="21%"></stop><stop stop-color="#EDA377" offset="46%"></stop><stop stop-color="#EB8C5C" offset="80%"></stop><stop stop-color="#DC7E50" offset="100%"></stop></linearGradient><linearGradient x1="53%" y1="81%" x2="50%" y2="21%" id="id-74422"><stop stop-color="#CD6C5B" offset="0%"></stop><stop stop-color="#DE7862" offset="24%"></stop><stop stop-color="#DF8352" offset="100%"></stop></linearGradient><linearGradient x1="52%" y1="-4%" x2="46%" y2="70%" id="id-74423"><stop stop-color="#BE6352" offset="0%"></stop><stop stop-color="#B25041" offset="100%"></stop></linearGradient><linearGradient x1="46%" y1="43%" x2="15%" y2="43%" id="id-74424"><stop stop-color="#DF8655" offset="0%"></stop><stop stop-color="#B95831" offset="100%"></stop></linearGradient><linearGradient x1="54%" y1="37%" x2="12%" y2="72%" id="id-74425"><stop stop-color="#3C050A" offset="0%"></stop><stop stop-color="#9A4336" offset="100%"></stop></linearGradient><linearGradient x1="40%" y1="14%" x2="61%" y2="85%" id="id-74426"><stop stop-color="#6E1B17" offset="0%"></stop><stop stop-color="#852720" offset="100%"></stop></linearGradient><linearGradient x1="27%" y1="47%" x2="91%" y2="49%" id="id-74427"><stop stop-color="#E19D89" offset="0%"></stop><stop stop-color="#FFBBA2" offset="100%"></stop></linearGradient><linearGradient x1="47%" y1="60%" x2="49%" y2="79%" id="id-74428"><stop stop-color="#E78666" offset="0%"></stop><stop stop-color="#E07C62" offset="60%"></stop><stop stop-color="#ED9F7D" offset="100%"></stop></linearGradient><linearGradient x1="29%" y1="56%" x2="69%" y2="53%" id="id-74429"><stop stop-color="#D47D53" offset="0%"></stop><stop stop-color="#C86443" offset="8%"></stop><stop stop-color="#D9774F" offset="18%"></stop><stop stop-color="#D26B50" offset="38%"></stop><stop stop-color="#D1694C" offset="65%"></stop><stop stop-color="#CD6944" offset="81%"></stop><stop stop-color="#BE5B3F" offset="100%"></stop></linearGradient><linearGradient x1="47%" y1="45%" x2="54%" y2="46%" id="id-74430"><stop stop-color="#D26A4C" offset="0%"></stop><stop stop-color="#C96947" offset="62%"></stop><stop stop-color="#BC5B3A" offset="77%"></stop><stop stop-color="#D18459" offset="100%"></stop></linearGradient><linearGradient x1="51%" y1="7%" x2="50%" y2="100%" id="id-74431"><stop stop-color="#D26C48" offset="0%"></stop><stop stop-color="#E28F6D" offset="75%"></stop><stop stop-color="#DA876B" offset="100%"></stop></linearGradient><linearGradient x1="51%" y1="11%" x2="49%" y2="93%" id="id-74432"><stop stop-color="#DC7E50" offset="0%"></stop><stop stop-color="#DA7B4D" offset="73%"></stop><stop stop-color="#E08955" offset="100%"></stop></linearGradient><linearGradient x1="51%" y1="-5%" x2="48%" y2="96%" id="id-74433"><stop stop-color="#D8794C" offset="0%"></stop><stop stop-color="#C6683E" offset="100%"></stop></linearGradient><linearGradient x1="50%" y1="19%" x2="50%" y2="69%" id="id-74434"><stop stop-color="#A84C29" offset="0%"></stop><stop stop-color="#742F19" offset="45%"></stop><stop stop-color="#A54622" offset="100%"></stop></linearGradient><linearGradient x1="46%" y1="74%" x2="39%" y2="35%" id="id-74435"><stop stop-color="#B04F3A" offset="0%"></stop><stop stop-color="#C6644A" offset="51%"></stop><stop stop-color="#9F5738" offset="100%" stop-opacity="0"></stop></linearGradient><linearGradient x1="46%" y1="16%" x2="49%" y2="82%" id="id-74436"><stop stop-color="#9B473D" offset="0%" stop-opacity="0.186"></stop><stop stop-color="#5F2520" offset="100%"></stop></linearGradient><linearGradient x1="41%" y1="19%" x2="50%" y2="100%" id="id-74437"><stop stop-color="#BE614B" offset="0%"></stop><stop stop-color="#9E4237" offset="100%"></stop></linearGradient><linearGradient x1="50%" y1="31%" x2="45%" y2="50%" id="id-74438"><stop stop-color="#D06C41" offset="0%"></stop><stop stop-color="#EC8E5F" offset="100%"></stop></linearGradient><linearGradient x1="51%" y1="22%" x2="50%" y2="100%" id="id-74439"><stop stop-color="#B0483C" offset="0%"></stop><stop stop-color="#BD6558" offset="100%"></stop></linearGradient><linearGradient x1="49%" y1="0%" x2="50%" y2="100%" id="id-74440"><stop stop-color="#D47449" offset="0%"></stop><stop stop-color="#E27C59" offset="100%"></stop></linearGradient><linearGradient x1="44%" y1="15%" x2="50%" y2="100%" id="id-74441"><stop stop-color="#B75738" offset="0%"></stop><stop stop-color="#A6503C" offset="100%"></stop></linearGradient><linearGradient x1="52%" y1="21%" x2="49%" y2="83%" id="id-74442"><stop stop-color="#DE7B50" offset="0%"></stop><stop stop-color="#E7845D" offset="48%"></stop><stop stop-color="#E28D63" offset="100%"></stop></linearGradient><linearGradient x1="85%" y1="60%" x2="15%" y2="60%" id="id-74443"><stop stop-color="#D27044" offset="0%"></stop><stop stop-color="#C06137" offset="100%"></stop></linearGradient><linearGradient x1="50%" y1="-3%" x2="59%" y2="91%" id="id-74444"><stop stop-color="#CE754C" offset="0%"></stop><stop stop-color="#CA6B41" offset="53%"></stop><stop stop-color="#BF6138" offset="66%"></stop><stop stop-color="#B8522C" offset="100%"></stop></linearGradient><linearGradient x1="55%" y1="48%" x2="46%" y2="33%" id="id-74445"><stop stop-color="#CE6E44" offset="0%"></stop><stop stop-color="#DF8152" offset="86%"></stop><stop stop-color="#D37547" offset="100%"></stop></linearGradient><linearGradient x1="50%" y1="19%" x2="50%" y2="78%" id="id-74446"><stop stop-color="#913919" offset="0%"></stop><stop stop-color="#AB4722" offset="50%"></stop><stop stop-color="#842C26" offset="100%"></stop></linearGradient><linearGradient x1="50%" y1="10%" x2="50%" y2="43%" id="id-74447"><stop stop-color="#C26338" offset="0%"></stop><stop stop-color="#C4643B" offset="15%"></stop><stop stop-color="#993E1B" offset="68%"></stop><stop stop-color="#B7512B" offset="100%"></stop></linearGradient><linearGradient x1="89%" y1="50%" x2="7%" y2="52%" id="id-74448"><stop stop-color="#8C371B" offset="0%"></stop><stop stop-color="#B85C4D" offset="53%" stop-opacity="0.199"></stop><stop stop-color="#A3451F" offset="75%"></stop><stop stop-color="#8D381A" offset="100%"></stop></linearGradient><linearGradient x1="44%" y1="70%" x2="86%" y2="30%" id="id-74449"><stop stop-color="#E39165" offset="0%"></stop><stop stop-color="#F0A57A" offset="100%"></stop></linearGradient><linearGradient x1="33%" y1="92%" x2="62%" y2="23%" id="id-74450"><stop stop-color="#C15B34" offset="0%"></stop><stop stop-color="#D27347" offset="40%"></stop><stop stop-color="#EFA478" offset="100%"></stop></linearGradient><linearGradient x1="35%" y1="94%" x2="47%" y2="12%" id="id-74451"><stop stop-color="#DC8458" offset="0%"></stop><stop stop-color="#D77E53" offset="40%"></stop><stop stop-color="#ECA478" offset="100%"></stop></linearGradient><linearGradient x1="50%" y1="54%" x2="27%" y2="9%" id="id-74452"><stop stop-color="#F7AB80" offset="0%"></stop><stop stop-color="#DDAB90" offset="100%" stop-opacity="0.078"></stop></linearGradient><linearGradient x1="50%" y1="0%" x2="93%" y2="69%" id="id-74453"><stop stop-color="#E99A6F" offset="0%"></stop><stop stop-color="#DD8557" offset="70%"></stop><stop stop-color="#C56138" offset="100%"></stop></linearGradient><linearGradient x1="36%" y1="84%" x2="25%" y2="44%" id="id-74454"><stop stop-color="#C98762" offset="0%" stop-opacity="0.509"></stop><stop stop-color="#90492C" offset="35%" stop-opacity="0.675"></stop><stop stop-color="#762E17" offset="100%" stop-opacity="0"></stop></linearGradient><linearGradient x1="63%" y1="95%" x2="43%" y2="20%" id="id-74455"><stop stop-color="#D27146" offset="0%"></stop><stop stop-color="#E29562" offset="46%"></stop><stop stop-color="#D17045" offset="100%"></stop></linearGradient><linearGradient x1="40%" y1="0%" x2="50%" y2="86%" id="id-74456"><stop stop-color="#D87C4D" offset="0%"></stop><stop stop-color="#DD8253" offset="100%"></stop></linearGradient><linearGradient x1="50%" y1="0%" x2="50%" y2="92%" id="id-74457"><stop stop-color="#E58656" offset="0%"></stop><stop stop-color="#E39361" offset="100%"></stop></linearGradient><linearGradient x1="33%" y1="79%" x2="21%" y2="44%" id="id-74458"><stop stop-color="#BE6457" offset="0%"></stop><stop stop-color="#983F32" offset="28%" stop-opacity="0.928"></stop><stop stop-color="#762E17" offset="100%" stop-opacity="0"></stop></linearGradient><linearGradient x1="4%" y1="47%" x2="92%" y2="45%" id="id-74459"><stop stop-color="#752B0F" offset="0%"></stop><stop stop-color="#83391D" offset="17%" stop-opacity="0.753"></stop><stop stop-color="#9E4B3D" offset="48%" stop-opacity="0.386"></stop><stop stop-color="#94401F" offset="78%" stop-opacity="0.762"></stop><stop stop-color="#88391A" offset="100%"></stop></linearGradient><linearGradient x1="60%" y1="45%" x2="67%" y2="53%" id="id-74460"><stop stop-color="#D57A51" offset="0%"></stop><stop stop-color="#FFB49C" offset="100%"></stop></linearGradient><linearGradient x1="48%" y1="15%" x2="54%" y2="81%" id="id-74461"><stop stop-color="#D99776" offset="0%" stop-opacity="0.400"></stop><stop stop-color="#E59B75" offset="100%"></stop></linearGradient><linearGradient x1="47%" y1="44%" x2="50%" y2="61%" id="id-74462"><stop stop-color="#943B2F" offset="0%" stop-opacity="0.175"></stop><stop stop-color="#61301B" offset="100%"></stop></linearGradient><linearGradient x1="26%" y1="-7%" x2="50%" y2="96%" id="id-74463"><stop stop-color="#37373F" offset="0%"></stop><stop stop-color="#19191D" offset="100%"></stop></linearGradient><linearGradient x1="50%" y1="12%" x2="59%" y2="82%" id="id-74464"><stop stop-color="#252525" offset="0%"></stop><stop stop-color="#101010" offset="100%"></stop></linearGradient><linearGradient x1="25%" y1="-16%" x2="50%" y2="98%" id="id-74465"><stop stop-color="#37373F" offset="0%"></stop><stop stop-color="#19191D" offset="100%"></stop></linearGradient><linearGradient x1="75%" y1="39%" x2="50%" y2="93%" id="id-74466"><stop stop-color="#252525" offset="0%"></stop><stop stop-color="#000000" offset="100%"></stop></linearGradient></defs><g transform=" translate(334,549)" id="id-74467"><polygon points="561 754 565 871 565 881 537 893 533 897 535 901 532 909 543 910 597 864" fill="#560304" id="id-74468"></polygon><polygon points="537 282 539 246 535 195 529 158 522 137 484 118 440 111 212 111 188 113 157 123 121 139 111 186 108 221 109 290" fill="url(#id-74421)" id="id-74468"></polygon><polygon points="467 393 474 506 503 589 537 672 556 728 561 754 546 794 552 851 551 861 552 874 556 885 567 882 568 866 570 860 570 843 571 834 576 843 576 859 579 864 573 874 571 884 544 903 541 916 582 901 597 864 607 852 600 821 597 716 589 695 582 655 569 523 544 425" fill="url(#id-74422)" id="id-74468"></polygon><polygon points="546 794 552 851 551 861 552 874 556 885 567 882 568 866 570 860 570 843 571 834 576 843 576 859 579 864 573 874 571 884 544 903 541 916 582 901 597 864 583 871 588 855 573 815 561 823" fill="url(#id-74423)" id="id-74468"></polygon><polygon points="552 851 551 861 552 874 556 887 567 884 568 866 570 860 558 860" fill="#8A2C25" id="id-74468"></polygon><polygon points="544 906 541 916 582 901 571 889" fill="#92352A" id="id-74468"></polygon><polygon points="561 754 548 789 566 819 586 806" fill="#BD8171" id="id-74468"></polygon><polygon points="486 648 477 599 453 529 440 504 437 490 439 460 449 402 456 340 188 343 198 411 202 493 162 596 153 638 266 693 319 721 386 693" fill="url(#id-74424)" id="id-74468"></polygon><polygon points="486 648 477 599 453 529 440 504 437 490 439 460 449 402 456 340 296 353 376 634" fill="#D06F45" id="id-74468"></polygon><g transform=" translate(188,0)" id="id-74477"><polygon points="274 114 253 111 232 100 201 76 188 58 184 1 93 1 88 64 25 111 1 113 103 123 121 135 134 138 149 121 161 117 187 119 225 114" fill="#D37245" id="id-74468"></polygon><polygon points="201 76 188 58 185 12 175 57 155 111 185 73" fill="#EB9E6D" id="id-74468"></polygon><polygon points="149 1 93 1 88 64 108 126 121 135 133 138" fill="#C1663D" id="id-74468"></polygon><polygon points="116 102 120 113 118 115 136 135 150 119 164 71 125 108" fill="#B65C38" id="id-74481"></polygon><polygon points="121 127 133 138 145 124" fill="#AC3F1F" id="id-74482"></polygon><polygon points="136 98 164 71 175 57 186 17 134 51" fill="#DA854F" id="id-74483"></polygon><polygon points="97 96 116 80 164 60 178 48 186 17 184 1 93 1 88 64 45 96" fill="#A14F27" opacity="0.654" id="id-74468"></polygon><polygon points="186 17 184 1 93 1 88 64 45 96 66 96" fill="url(#id-74425)" opacity="0.467" id="id-74468"></polygon><polygon points="123 58 176 23 186 17 184 1 93 1 91 22 108 55" fill="#381404" opacity="0.434" id="id-74468"></polygon></g><polygon points="41 844 33 856 36 895 64 915 84 911 83 903 71 898 72 892 63 884 52 849" fill="url(#id-74426)" id="id-74468"></polygon><polygon points="315 152 285 173 320 188 357 166" fill="#FAAF86" id="id-74488"></polygon><polygon points="327 150 370 130 342 127" fill="#D5774A" id="id-74489"></polygon><polygon points="301 142 303 148 243 131 240 119 276 119" fill="#D5774A" id="id-74490"></polygon><polygon points="159 149 206 123 269 123 303 144 297 118 188 113 157 123 121 139" fill="url(#id-74427)" id="id-74468"></polygon><polygon points="157 123 121 139 153 167 196 134" fill="#FFBBA2" id="id-74468"></polygon><polygon points="89 584 77 541 62 551 45 658 34 712 25 741 25 762 10 817 0 845 14 870 25 901 58 919 72 919 69 913 61 905 50 899 37 874 37 852 43 845 52 855 50 887 56 901 64 905 66 901 66 882 72 836 72 800 69 781 64 773 66 735 85 684 121 599 162 510" fill="url(#id-74428)" id="id-74468"></polygon><polygon points="89 584 77 541 62 551 45 658 48 715 121 599 162 510" fill="#D37347" id="id-74468"></polygon><polygon points="55 843 45 827 37 848 17 852 8 836 5 851 0 845 14 870 25 901 58 919 72 919 69 913 61 905 50 899 37 874 37 852 43 845 52 855 50 887 56 901 64 905 66 901 66 882 72 836" fill="#D16753" id="id-74468"></polygon><polygon points="53 882 52 892 56 901 64 905 66 901 66 882 67 876" fill="#B24B40" id="id-74468"></polygon><polygon points="25 901 58 919 72 919 62 909 37 895" fill="#B44D41" id="id-74468"></polygon><polygon points="160 467 145 488 108 578 45 777 48 797 64 773 66 735 85 684 121 599 162 510" fill="#B04C25" id="id-74468"></polygon><polygon points="169 1211 277 1211 282 1183 281 1150 284 1127 286 1114 285 1063 293 972 306 866 311 792 309 768 323 771 337 768 333 817 333 855 339 924 346 1008 348 1113 351 1130 353 1176 361 1211 461 1211 458 1191 456 1170 460 1133 461 1082 505 905 516 839 518 826 512 762 503 706 486 648 482 629 386 690 318 718 266 690 184 629 153 637 132 731 119 781 118 813 123 862 131 916 166 1094 176 1179" fill="url(#id-74429)" id="id-74468"></polygon><polygon points="463 664 416 771 400 819 392 1125 359 1178 398 1204 441 1153 461 1082 505 905 516 839 518 826 515 789 490 714" fill="url(#id-74430)" id="id-74468"></polygon><polygon points="422 1160 395 1199 365 1171 401 1149 384 1120 391 983 411 786 416 771 448 697 454 1013 445 1116 407 1149" fill="url(#id-74431)" id="id-74501"></polygon><polygon points="121 139 111 186 108 221 109 290 96 438 89 464 69 510 89 585 162 510 167 425 162 241" fill="url(#id-74432)" id="id-74468"></polygon><polygon points="101 466 103 488 106 510 160 447 179 359 164 232 187 184 186 179 132 181 161 234 161 321 149 376 151 384 123 461 114 466" fill="url(#id-74433)" id="id-74503"></polygon><polygon points="96 438 89 464 69 510 51 621 101 520 96 476" fill="#FFAF88" id="id-74468"></polygon><polygon points="96 451 128 365 134 316 121 139 111 186 108 221 109 290 96 438" fill="#C5673B" id="id-74468"></polygon><polygon points="184 241 177 248 162 225 138 289 161 321 170 375 161 420 151 411 162 510 167 425 188 343" fill="url(#id-74434)" id="id-74468"></polygon><polygon points="284 1127 286 1114 285 1063 293 972 306 866 311 792 309 768 323 771 337 768 333 817 333 855 339 924 346 1008 375 889 416 771 463 664 490 714 515 790 512 762 503 706 486 648 477 599 471 583 420 650 316 720 201 654 244 742 264 824 275 994" fill="url(#id-74435)" id="id-74468"></polygon><polygon points="298 930 306 866 311 792 309 768 323 771 337 768 333 817 333 855 336 894 347 826 360 784 378 733 388 687 321 739 254 687 267 736 291 821" fill="url(#id-74436)" id="id-74468"></polygon><polygon points="348 1093 348 1113 351 1130 353 1176 361 1211 461 1211 439 1155 422 1136 403 1148 429 1168 400 1202 370 1170 382 1125" fill="url(#id-74437)" id="id-74468"></polygon><polygon points="10 855 8 836 5 851 0 845 14 870" fill="#AF4A3E" id="id-74468"></polygon><polygon points="520 500 516 520 544 629 474 500 490 399" fill="url(#id-74438)" id="id-74511"></polygon><polygon points="461 1211 458 1191 456 1170 460 1133 461 1082 439 1155 450 1211" fill="url(#id-74439)" id="id-74468"></polygon><polygon points="220 1149 259 1115 240 1063 232 973 266 819 240 713 201 661 158 650 201 784 183 925 170 1083" fill="url(#id-74440)" id="id-74513"></polygon><polygon points="169 1211 277 1211 282 1183 281 1150 284 1127 286 1114 286 1098 226 1211 207 1211 196 1121 173 1078 150 1014 166 1094 176 1179" fill="url(#id-74441)" id="id-74468"></polygon><polygon points="173 1078 183 924 150 1014" fill="#C56242" id="id-74468"></polygon><polygon points="169 1211 239 1211 230 1196 204 1175 173 1150 176 1179" fill="#8E332E" opacity="0.574" id="id-74468"></polygon><polygon points="221 1130 240 1097 224 1063 224 983 240 804 217 698 190 668 212 771 212 910 190 998 181 1094" fill="url(#id-74442)" id="id-74513"></polygon><polygon points="217 795 221 692 200 667 169 658 200 737" fill="#F09C6B" id="id-74518"></polygon><polygon points="511 476 492 419 481 447 484 356 521 274 533 417" fill="url(#id-74443)" id="id-74519"></polygon><polygon points="569 523 544 425 542 346 537 282 539 246 535 195 529 158 522 137 494 161 419 158 471 211 516 290 525 411 511 477 518 507 535 462 562 543" fill="url(#id-74444)" id="id-74468"></polygon><polygon points="486 389 533 243 501 167 464 207 451 247 463 265" fill="url(#id-74445)" id="id-74521"></polygon><polygon points="473 490 474 506 503 589 537 672 556 728 561 754 567 712 543 623" fill="#AE522F" id="id-74468"></polygon><polygon points="460 328 466 378 474 506 490 425 486 392 469 274 479 230 461 260 454 251" fill="url(#id-74446)" id="id-74468"></polygon><polygon points="440 504 437 490 439 460 449 402 456 340 458 328 325 282 188 343 198 411 202 493 162 596 157 621 161 633 169 599 173 570 204 506 202 458 217 402 286 365 321 352 353 360 422 402 431 493 437 520" fill="url(#id-74447)" id="id-74468"></polygon><polygon points="451 385 456 340 458 328 364 340 330 308 268 343 188 343 194 379 262 368 312 343 335 340 381 368" fill="url(#id-74448)" id="id-74468"></polygon><polygon points="286 328 306 310 330 274 453 252 464 205 421 156 317 204 219 165 210 154 188 180" fill="url(#id-74449)" id="id-74526"></polygon><path d=" M 422,195 L 405,190 C 377,190 357,198 343,214 C 329,230 322,250 323,276 C 324,301 331,320 345,333 C 365,351 384,356 405,356 C 425,356 444,347 450,342 C 454,339 457,335 460,328 C 463,323 466,317 467,308 C 469,294 466,276 457,254 L 422,195 Z" fill="url(#id-74450)" id="id-74527"></path><path d=" M 422,195 L 417,175 C 386,188 366,196 358,201 C 355,203 351,206 348,208 C 348,209 381,253 448,342 C 454,338 459,332 463,324 C 469,310 469,301 469,293 C 469,287 465,275 459,257 L 422,195 Z" fill="url(#id-74451)" id="id-74527"></path><path d=" M 375,226 C 338,253 343,276 343,284 C 343,291 353,319 371,335 C 379,342 422,349 447,331 C 468,316 472,294 458,265 C 427,221 400,208 375,226 Z" fill="url(#id-74452)" opacity="0.282" id="id-74527"></path><path d=" M 272,205 C 260,199 243,200 221,209 C 187,227 169,258 168,303 C 167,319 184,342 190,346 C 197,351 212,356 239,353 C 257,351 272,344 284,333 C 303,312 312,288 309,260 C 305,217 291,214 272,205 Z" fill="url(#id-74453)" id="id-74530"></path><path d=" M 340,285 C 333,252 328,240 326,248 C 324,254 323,263 323,276 C 324,301 331,320 345,333 C 365,351 382,356 404,356 C 425,356 444,347 450,342 C 456,337 465,325 468,308 C 472,290 465,276 463,268 C 461,263 460,259 458,255 L 442,290 L 399,304 L 366,300 L 340,285 Z" fill="url(#id-74454)" id="id-74527"></path><path d=" M 153,637 L 149,654 L 132,731 L 130,739 C 133,730 135,723 137,718 C 140,709 147,691 149,680 C 151,671 155,655 161,633 L 172,570 L 162,596 L 153,637 Z" fill="#7D362E" id="id-74468"></path><path d=" M 259,203 C 254,199 240,185 217,163 L 210,153 L 186,180 C 192,211 192,231 186,239 C 175,256 168,277 168,303 C 168,324 190,352 239,344 C 252,342 274,217 259,203 Z" fill="#E39165" id="id-74530"></path><polygon points="175 565 203 550 234 558 241 520 203 455 203 507" fill="#B04924" id="id-74534"></polygon><polygon points="241 442 241 518 229 556 233 629 266 657 316 707 381 659 395 629 364 504 350 504 301 380" fill="url(#id-74455)" id="id-74535"></polygon><polygon points="432 626 427 589 407 518 414 505 450 568 470 618" fill="url(#id-74456)" id="id-74536"></polygon><polygon points="302 376 254 442 254 546 302 590 364 568 364 504 350 504 376 454 345 400" fill="url(#id-74457)" id="id-74535"></polygon><polygon points="317 480 342 436 319 413 300 447" fill="#DA7B4E" id="id-74538"></polygon><polygon points="304 541 318 507 329 541 314 549" fill="#D17045" id="id-74539"></polygon><polygon points="306 543 316 578 329 541" fill="#E99A65" id="id-74540"></polygon><path d=" M 178,333 C 179,334 180,336 182,338 C 184,342 186,343 189,346 C 190,347 197,351 206,353 C 215,354 226,355 239,353 C 257,351 272,344 284,333 C 293,322 299,313 302,305 C 304,301 307,293 309,277 C 310,274 310,268 309,260 L 228,277 L 207,295 L 178,333 Z" fill="url(#id-74458)" id="id-74530"></path><polygon points="306 543 308 550 324 556 329 541" fill="#E9A376" id="id-74540"></polygon><polygon points="308 543 318 525 323 542 314 548" fill="#8F4427" id="id-74543"></polygon><polygon points="152 641 162 596 176 561 185 617 214 602 246 628 323 690 404 628 423 605 454 605 470 577 477 599 482 629 388 689 337 768 323 771 309 768 259 688 175 639 142 688" fill="url(#id-74459)" opacity="0.442" id="id-74544"></polygon><polygon points="490 154 522 137 484 118 412 123" fill="url(#id-74460)" id="id-74468"></polygon><polygon points="573 785 588 829 602 858 607 852 600 821 597 716 576 763" fill="#E19271" id="id-74468"></polygon><polygon points="574 722 589 695 582 655 533 542" fill="url(#id-74461)" id="id-74468"></polygon><polygon points="172 640 241 690 309 768 323 771 338 768 395 706 469 661 404 650 313 706 217 629" fill="url(#id-74462)" opacity="0.571" id="id-74548"></polygon><g transform=" translate(188,270)" id="id-74549"><polygon points="207 13 207 10 217 2 220 2 239 21 258 39 260 42 250 51 246 52 226 33" fill="url(#id-74463)" id="id-74550"></polygon><polygon points="208 40 218 50 222 50 240 33 257 13 257 9 247 0 244 1 230 19 209 36" fill="url(#id-74464)" id="id-74551"></polygon><polygon points="1 13 1 10 10 2 15 2 32 21 50 39 52 42 42 52 38 52 19 33" fill="url(#id-74465)" id="id-74550"></polygon><polygon points="0 43 10 53 14 53 33 35 50 15 50 11 40 3 36 4 19 23 1 39" fill="url(#id-74466)" id="id-74551"></polygon></g></g><defs><linearGradient x1="68%" y1="4%" x2="68%" y2="39%" id="id-75205"><stop stop-color="#CF915B" offset="0%"></stop><stop stop-color="#A2582E" offset="100%"></stop></linearGradient><linearGradient x1="63%" y1="29%" x2="43%" y2="65%" id="id-75206"><stop stop-color="#EF9D68" offset="0%"></stop><stop stop-color="#CA8252" offset="100%"></stop></linearGradient><linearGradient x1="60%" y1="73%" x2="11%" y2="32%" id="id-75207"><stop stop-color="#F0A97B" offset="0%"></stop><stop stop-color="#E7976B" offset="100%"></stop></linearGradient><linearGradient x1="79%" y1="15%" x2="31%" y2="87%" id="id-75208"><stop stop-color="#D98757" offset="0%"></stop><stop stop-color="#E99F6F" offset="100%"></stop></linearGradient><radialGradient cx="50%" cy="46%" r="72%" id="id-75209" fx="50%" fy="46%" gradientTransform=" translate(0.500,0.465) scale(0.889,1) rotate(90) scale(1,1) translate(-0.500,-0.465)"><stop stop-color="#FBAF7C" offset="0%"></stop><stop stop-color="#8E4218" offset="100%"></stop></radialGradient><linearGradient x1="32%" y1="4%" x2="54%" y2="75%" id="id-75210"><stop stop-color="#B5673B" offset="0%"></stop><stop stop-color="#D69065" offset="38%"></stop><stop stop-color="#CD7F54" offset="100%"></stop></linearGradient><linearGradient x1="11%" y1="50%" x2="57%" y2="50%" id="id-75211"><stop stop-color="#D88A61" offset="0%"></stop><stop stop-color="#F4A678" offset="100%"></stop></linearGradient><linearGradient x1="50%" y1="0%" x2="50%" y2="100%" id="id-75212"><stop stop-color="#DF8A54" offset="0%"></stop><stop stop-color="#BD693B" offset="100%"></stop></linearGradient><linearGradient x1="50%" y1="0%" x2="50%" y2="65%" id="id-75213"><stop stop-color="#E8A174" offset="0%"></stop><stop stop-color="#F9BB92" offset="100%"></stop></linearGradient><linearGradient x1="93%" y1="38%" x2="20%" y2="70%" id="id-75214"><stop stop-color="#EBA776" offset="0%"></stop><stop stop-color="#F5BF98" offset="60%"></stop><stop stop-color="#CA8252" offset="100%"></stop></linearGradient><linearGradient x1="17%" y1="66%" x2="58%" y2="41%" id="id-75215"><stop stop-color="#F3BA91" offset="0%"></stop><stop stop-color="#FCDFC9" offset="100%"></stop></linearGradient><linearGradient x1="25%" y1="46%" x2="50%" y2="58%" id="id-75216"><stop stop-color="#B55E35" offset="0%"></stop><stop stop-color="#C46A3C" offset="100%"></stop></linearGradient><linearGradient x1="75%" y1="15%" x2="41%" y2="68%" id="id-75217"><stop stop-color="#F0AA7E" offset="0%"></stop><stop stop-color="#F5BB97" offset="100%"></stop></linearGradient><linearGradient x1="43%" y1="47%" x2="85%" y2="53%" id="id-75218"><stop stop-color="#903F1B" offset="0%"></stop><stop stop-color="#B45C2E" offset="100%"></stop></linearGradient><linearGradient x1="65%" y1="43%" x2="13%" y2="55%" id="id-75219"><stop stop-color="#7B3014" offset="0%"></stop><stop stop-color="#813113" offset="100%"></stop></linearGradient><linearGradient x1="85%" y1="61%" x2="16%" y2="50%" id="id-75220"><stop stop-color="#E3956C" offset="0%"></stop><stop stop-color="#D0825C" offset="100%"></stop></linearGradient><linearGradient x1="50%" y1="34%" x2="72%" y2="84%" id="id-75221"><stop stop-color="#C06E40" offset="0%"></stop><stop stop-color="#D7795C" offset="42%"></stop><stop stop-color="#D07E52" offset="59%"></stop><stop stop-color="#DB885D" offset="100%"></stop></linearGradient><linearGradient x1="50%" y1="50%" x2="50%" y2="78%" id="id-75222"><stop stop-color="#F3B28C" offset="0%"></stop><stop stop-color="#EC8C70" offset="100%"></stop></linearGradient><linearGradient x1="36%" y1="33%" x2="50%" y2="71%" id="id-75223"><stop stop-color="#D26945" offset="0%"></stop><stop stop-color="#A63821" offset="100%"></stop></linearGradient><linearGradient x1="0%" y1="50%" x2="100%" y2="50%" id="id-75224"><stop stop-color="#C46F40" offset="0%"></stop><stop stop-color="#DF9F77" offset="42%"></stop><stop stop-color="#C36F3F" offset="100%"></stop></linearGradient><linearGradient x1="50%" y1="57%" x2="-8%" y2="54%" id="id-75225"><stop stop-color="#9C4A26" offset="0%"></stop><stop stop-color="#662A11" offset="100%"></stop></linearGradient><linearGradient x1="14%" y1="61%" x2="23%" y2="56%" id="id-75226"><stop stop-color="#AB4B21" offset="0%"></stop><stop stop-color="#B45C31" offset="100%"></stop></linearGradient><linearGradient x1="48%" y1="50%" x2="55%" y2="57%" id="id-75227"><stop stop-color="#E1885B" offset="0%"></stop><stop stop-color="#B8603B" offset="100%"></stop></linearGradient><linearGradient x1="50%" y1="0%" x2="43%" y2="121%" id="id-75228"><stop stop-color="#F3D2BA" offset="0%"></stop><stop stop-color="#EEAB96" offset="100%"></stop></linearGradient><linearGradient x1="100%" y1="37%" x2="80%" y2="57%" id="id-75229"><stop stop-color="#9E421E" offset="0%"></stop><stop stop-color="#CF784A" offset="100%"></stop></linearGradient><linearGradient x1="55%" y1="43%" x2="43%" y2="53%" id="id-75230"><stop stop-color="#BE663B" offset="0%"></stop><stop stop-color="#B3592E" offset="100%"></stop></linearGradient><linearGradient x1="72%" y1="4%" x2="28%" y2="76%" id="id-75231"><stop stop-color="#B15A37" offset="0%"></stop><stop stop-color="#7D341B" offset="100%"></stop></linearGradient><linearGradient x1="22%" y1="50%" x2="83%" y2="50%" id="id-75232"><stop stop-color="#C2805E" offset="0%"></stop><stop stop-color="#903A22" offset="100%"></stop></linearGradient><linearGradient x1="82%" y1="54%" x2="50%" y2="59%" id="id-75233"><stop stop-color="#843818" offset="0%"></stop><stop stop-color="#BA663F" offset="100%"></stop></linearGradient><linearGradient x1="25%" y1="53%" x2="75%" y2="52%" id="id-75234"><stop stop-color="#E1BB9F" offset="0%"></stop><stop stop-color="#C08666" offset="100%"></stop></linearGradient><linearGradient x1="50%" y1="0%" x2="50%" y2="80%" id="id-75235"><stop stop-color="#B2401E" offset="0%"></stop><stop stop-color="#C84D2C" offset="100%"></stop></linearGradient><linearGradient x1="50%" y1="0%" x2="50%" y2="100%" id="id-75236"><stop stop-color="#EC5F3D" offset="0%"></stop><stop stop-color="#D65032" offset="100%"></stop></linearGradient><linearGradient x1="109%" y1="50%" x2="23%" y2="43%" id="id-75237"><stop stop-color="#B55D33" offset="0%"></stop><stop stop-color="#C18055" offset="100%"></stop></linearGradient></defs><g transform=" translate(561,332)" id="id-75238"><g transform=" translate(172,115)" id="id-75239"><polygon points="14 1 18 0 25 8 27 21 24 41 14 66 0 68" fill="url(#id-75205)" id="id-75240"></polygon><polygon points="12 48 19 50 23 42 26 24 20 12 12 22" fill="#CB8154" id="id-75241"></polygon><polygon points="11 21 17 10 20 5 24 7 26 24 20 36 18 31 20 16 9 29" fill="#8E4015" id="id-75242"></polygon><polygon points="10 28 11 38 8 45 13 49 19 38 13 24" fill="#7D3102" id="id-75243"></polygon><polygon points="12 18 17 17 18 9" fill="#5B1C00" id="id-75244"></polygon><polygon points="18 50 10 51 8 50 5 61 12 63 14 61" fill="#E68969" id="id-75245"></polygon></g><g transform=" translate(0,113)" id="id-75246"><polygon points="13 0 5 0 0 13 4 36 13 63 25 67" fill="#D07C59" id="id-75247"></polygon><polygon points="5 9 0 13 4 36 13 63 25 67 13 24" fill="#CA7F53" id="id-75247"></polygon><polygon points="18 46 14 47 7 32 11 26 4 9 6 5 16 20 17 29" fill="#AB5E32" id="id-75249"></polygon><polygon points="13 62 20 62 18 49 11 53" fill="#AE6135" id="id-75250"></polygon><polygon points="25 68 13 63 20 62 17 46 14 47 13 44 14 29 17 26 14 22 10 19 10 11 17 20" fill="#7D3001" id="id-75251"></polygon><polygon points="13 9 4 3 5 0 12 0" fill="#E19B77" id="id-75252"></polygon></g><path d=" M 29,199 C 21,167 16,144 15,130 C 4,44 33,0 103,0 C 180,0 191,63 186,119 C 183,157 173,191 170,202 C 169,206 167,213 164,217 C 143,234 127,244 115,249 L 81,249 C 71,246 56,236 36,218 C 34,215 32,208 29,199 Z" fill="#D1865A" opacity="0.966" id="id-75253"></path><polygon points="36 106 25 118 37 39 104 9 160 39 166 105 106 122" fill="url(#id-75206)" id="id-75254"></polygon><polygon points="120 178 110 136 130 128 178 139 169 176 139 192" fill="url(#id-75207)" id="id-75255"></polygon><polygon points="169 161 135 146 164 134 176 140" fill="#F6AA7A" id="id-75256"></polygon><polygon points="169 161 156 155 176 140" fill="url(#id-75208)" id="id-75256"></polygon><path d=" M 19,155 C 17,145 16,137 15,130 C 4,44 33,0 103,0 C 180,0 191,63 186,119 C 185,128 184,136 183,145 L 148,128 L 142,124 L 162,99 C 162,80 157,59 148,36 C 125,28 107,26 95,28 C 83,31 66,39 45,53 L 39,91 L 28,114 L 42,106 L 19,155 Z" fill="url(#id-75209)" opacity="0.966" id="id-75253"></path><polygon points="77 145 37 128 23 149 57 218 88 200" fill="url(#id-75210)" id="id-75259"></polygon><polygon points="69 192 59 171 70 146 85 132 94 140 87 186" fill="#D99168" id="id-75260"></polygon><polygon points="85 180 68 192 72 205 130 208 138 197 114 170" fill="url(#id-75211)" id="id-75261"></polygon><polygon points="74 204 70 202 57 211 76 239 132 235 143 205 136 197 125 204" fill="url(#id-75212)" id="id-75262"></polygon><polygon points="91 200 95 178 107 178 112 200" fill="url(#id-75213)" id="id-75263"></polygon><path d=" M 38,101 L 64,86 C 69,68 73,57 76,53 C 79,50 94,46 119,41 L 151,70 L 126,114 L 81,113 L 73,99 L 38,101 Z" fill="url(#id-75214)" id="id-75264"></path><polygon points="156 99 123 78 105 98 127 111" fill="url(#id-75215)" id="id-75265"></polygon><polygon points="91 200 93 192 102 194 110 193 112 200" fill="#FFD9B0" id="id-75263"></polygon><polygon points="74 218 67 215 74 207 130 206 130 213 119 213" fill="#EDA177" id="id-75267"></polygon><polygon points="80 211 69 221 89 231 120 232 129 227 123 209" fill="url(#id-75216)" id="id-75268"></polygon><polygon points="141 204 117 180 128 170 150 185" fill="url(#id-75217)" id="id-75269"></polygon><polygon points="28 151 39 132 64 125 49 107 32 109 23 145" fill="#B6663A" id="id-75270"></polygon><polygon points="80 110 93 132 80 138 34 131 27 127 44 119" fill="url(#id-75218)" id="id-75271"></polygon><polygon points="30 117 27 127 45 106 61 121 79 130 56 105 40 104" fill="url(#id-75219)" id="id-75272"></polygon><polygon points="91 140 73 164 89 164 121 175 126 171 133 174 113 148" fill="url(#id-75220)" id="id-75273"></polygon><polygon points="84 181 93 185 109 186 117 182 120 177" fill="#642C18" opacity="0.599" id="id-75274"></polygon><polygon points="123 135 114 141 123 168 123 174 117 180 81 173 80 170 81 166 90 138 86 133 101 127" fill="url(#id-75221)" id="id-75275"></polygon><polygon points="79 111 99 104 121 113 107 143 98 143" fill="#E49061" id="id-75276"></polygon><polygon points="101 119 96 132 96 153 83 175 120 176 107 154 107 132" fill="url(#id-75222)" id="id-75277"></polygon><polygon points="90 163 83 175 99 175" fill="#DF765D" id="id-75277"></polygon><path d=" M 80,170 L 80,178 L 84,181 L 90,180 L 109,180 L 116,181 C 118,180 120,178 121,176 C 122,174 122,172 122,170 L 119,176 C 114,174 109,172 103,171 C 98,171 92,172 85,174 L 84,173 L 95,154 L 93,156 L 80,170 Z" fill="url(#id-75223)" id="id-75279"></path><path d=" M 105,179 C 106,177 109,176 111,176 C 113,176 116,176 119,176 C 115,174 111,173 107,172 C 106,172 105,174 105,179 Z" fill="#CE6065" id="id-75279"></path><path d=" M 87,180 L 98,180 C 96,177 94,176 91,176 C 89,176 87,177 87,180 Z" fill="#60140D" id="id-75281"></path><path d=" M 105,180 L 113,181 C 115,178 114,176 112,176 C 109,176 106,177 105,180 Z" fill="#5B120B" id="id-75282"></path><polygon points="88 220 94 227 111 227 116 218" fill="#621608" id="id-75283"></polygon><path d=" M 76,233 C 85,229 94,226 103,226 C 112,226 121,229 130,233 L 117,246 L 86,246 L 76,233 Z" fill="url(#id-75224)" id="id-75284"></path><path d=" M 113,227 C 117,228 122,230 130,233 L 117,246 L 101,242 L 113,227 Z" fill="#F5B78E" opacity="0.499" id="id-75284"></path><path d=" M 94,229 C 99,227 100,227 105,227 C 107,227 109,228 112,228 C 109,233 106,236 104,237 C 96,232 93,229 94,229 Z" fill="#F0BA9F" id="id-75284"></path><polygon points="80 140 73 146 51 147 37 135 46 132 51 138 73 140" fill="url(#id-75225)" id="id-75287"></polygon><path d=" M 26,119 L 39,110 L 50,111 L 53,114 L 57,114 L 57,112 L 60,114 L 63,114 L 63,113 L 67,116 L 76,118 L 76,115 L 68,105 C 63,104 59,103 55,102 C 52,102 46,101 39,101 L 26,115 L 26,119 Z" fill="#501C0D" id="id-75288"></path><polygon points="26 119 39 110 43 107 57 105 39 101 26 115" fill="#220F06" id="id-75288"></polygon><polygon points="77 113 73 107 76 107" fill="#501C0D" id="id-75290"></polygon><polygon points="80 114 79 109 81 110" fill="#501C0D" id="id-75291"></polygon><path d=" M 29,199 C 21,167 16,144 15,130 C 15,129 28,148 55,188 L 64,222 L 88,242 L 104,239 L 118,242 L 129,230 C 154,219 166,214 164,217 C 143,234 127,244 115,249 L 81,249 C 71,246 56,236 36,218 C 34,215 32,208 29,199 Z" fill="url(#id-75226)" opacity="0.966" id="id-75253"></path><path d=" M 118,242 L 129,230 L 147,183 L 167,160 L 172,141 L 186,119 C 183,157 173,191 170,202 C 169,206 167,213 164,217 C 145,232 132,241 125,245 C 122,246 120,245 118,242 Z" fill="url(#id-75227)" opacity="0.966" id="id-75253"></path><polygon points="42 190 29 150 55 188 64 222" fill="#C1673F" opacity="0.966" id="id-75253"></polygon><path d=" M 182,70 C 184,81 184,98 184,122 C 176,168 172,195 170,202 C 169,206 167,213 164,217 C 150,228 140,235 134,239 L 163,214 L 179,154 L 179,108 L 175,113 L 168,106 L 182,70 Z" fill="#E58F9B" opacity="0.966" id="id-75253"></path><path d=" M 95,166 L 101,168 C 107,166 108,165 107,165 C 104,164 100,164 95,166 Z" fill="#F5AA9C" id="id-75296"></path><polygon points="107 154 100 151 96 154 100 140 97 134 102 130 106 133 104 140" fill="url(#id-75228)" id="id-75297"></polygon><polygon points="108 154 122 169 119 175 115 167 109 170 113 164" fill="#C56443" id="id-75298"></polygon><path d=" M 166,131 C 169,130 171,129 172,127 C 173,125 174,121 175,115 L 164,104 L 151,105 L 137,122 L 166,131 Z" fill="url(#id-75229)" id="id-75299"></path><polygon points="123 135 117 140 124 143 131 139" fill="#F3B693" id="id-75300"></polygon><path d=" M 111,132 L 124,135 L 168,130 C 165,125 162,121 157,119 C 152,117 147,116 139,117 L 119,109 L 114,118 L 116,122 L 111,132 Z" fill="url(#id-75230)" id="id-75301"></path><polygon points="121 134 134 113 150 109 138 125" fill="url(#id-75231)" id="id-75302"></polygon><path d=" M 124,135 C 128,128 134,124 142,123 C 150,122 158,125 168,132 L 124,135 Z" fill="url(#id-75232)" id="id-75303"></path><polygon points="125 143 138 147 153 147 165 134 158 130 127 138" fill="url(#id-75233)" id="id-75304"></polygon><path d=" M 128,135 L 126,139 L 151,140 L 160,134 C 155,130 150,128 145,128 C 140,128 134,131 128,135 Z" fill="#E9D5DF" id="id-75305"></path><path d=" M 130,140 L 133,135 L 150,133 L 156,137 L 160,134 C 155,130 149,128 142,129 C 135,130 130,133 126,139 L 130,140 Z" fill="#000000" opacity="0.295" id="id-75306"></path><polygon points="124 140 143 140 152 140 160 134 158 133 151 138 128 139" fill="url(#id-75234)" id="id-75307"></polygon><polygon points="129 135 128 137 136 138 129 139 124 139 125 138" fill="#9D5133" id="id-75308"></polygon><polygon points="134 130 131 128 142 124 146 127" fill="#EDB57F" id="id-75309"></polygon><path d=" M 132,134 C 134,137 137,139 142,139 C 148,138 150,135 150,130 C 145,129 141,129 138,129 C 136,130 134,131 132,134 Z" fill="#200C09" id="id-75310"></path><path d=" M 135,135 C 135,137 137,138 142,138 C 147,137 149,136 147,133 C 147,134 145,134 143,135 C 141,135 138,135 135,135 Z" fill="#BF0526" id="id-75310"></path><polygon points="139 132 137 132 137 134 141 133 141 132 143 132 143 131 139 131" fill="#B49EBB" id="id-75312"></polygon><path d=" M 125,138 C 132,133 138,130 144,130 C 150,130 156,132 163,136 L 171,129 L 162,130 C 154,127 147,127 140,128 C 134,129 129,133 125,138 Z" fill="#200F09" id="id-75313"></path><polygon points="147 145 147 141 143 141" fill="#2D130A" id="id-75314"></polygon><polygon points="150 140 154 143 153 140" fill="#2D130A" id="id-75315"></polygon><polygon points="155 139 162 140 158 136 157 137" fill="#2D130A" id="id-75316"></polygon><polygon points="122 119 130 111 126 118 131 115 133 117 137 112 138 114 142 113 142 112 145 113 155 109 163 108 174 117 174 112 162 99 150 99 129 104" fill="#662913" id="id-75317"></polygon><polygon points="160 105 174 117 174 112 162 99 141 106" fill="#36150E" id="id-75317"></polygon><polygon points="77 210 72 210 72 205 79 205 125 203 132 203 134 206 131 209" fill="#97211C" id="id-75319"></polygon><polygon points="77 209 75 209 76 206 102 200 130 206 131 208" fill="#530C03" id="id-75320"></polygon><path d=" M 74,205 C 80,206 84,206 88,206 C 93,206 97,204 102,204 C 107,204 111,206 115,206 C 118,206 122,205 126,204 C 121,200 116,197 111,193 C 110,193 106,194 102,197 C 96,195 93,194 92,194 C 87,197 80,201 74,205 Z" fill="url(#id-75235)" id="id-75321"></path><path d=" M 76,209 C 79,211 86,224 103,223 C 119,222 123,211 129,208 C 117,206 117,207 101,208 C 94,209 90,206 76,209 Z" fill="#A13421" id="id-75322"></path><path d=" M 76,209 C 78,210 80,215 86,218 C 90,221 118,219 122,215 C 124,212 127,209 129,208 C 117,206 117,207 101,208 C 94,209 90,206 76,209 Z" fill="url(#id-75236)" id="id-75322"></path><path d=" M 76,209 C 78,210 80,215 86,218 C 90,221 118,219 122,215 C 124,212 127,209 129,208 C 117,206 118,217 102,218 C 85,219 90,206 76,209 Z" fill="#D04E2F" id="id-75322"></path><path d=" M 89,212 C 91,214 94,215 97,214 C 101,213 106,212 113,212 C 109,210 106,210 104,210 C 99,211 96,210 91,211 C 90,211 90,212 89,212 Z" fill="#FA827F" id="id-75325"></path><polygon points="50 128 50 122 64 123 65 128" fill="url(#id-75237)" id="id-75326"></polygon><path d=" M 41,126 C 47,123 52,121 57,122 C 62,123 70,126 80,131 C 72,123 63,119 54,119 C 46,120 41,122 41,126 Z" fill="#662917" id="id-75327"></path><polygon points="60 139 79 141 84 137" fill="#F8B291" id="id-75328"></polygon><polygon points="69 138 80 138 80 137 75 134 75 137" fill="#902727" id="id-75329"></polygon><path d=" M 47,132 L 50,138 C 56,138 60,139 63,138 C 66,138 70,138 75,137 C 75,136 75,135 75,134 C 71,130 65,129 61,128 C 56,127 51,129 47,132 Z" fill="#D2B3B9" id="id-75330"></path><path d=" M 53,131 C 54,135 56,138 61,138 C 66,138 69,136 70,131 C 66,129 62,128 60,128 C 58,128 56,129 53,131 Z" fill="#250B06" id="id-75331"></path><path d=" M 57,133 C 55,134 54,135 55,135 C 56,137 58,138 61,138 C 64,138 66,137 68,136 C 68,135 67,133 65,133 C 63,135 60,134 57,133 Z" fill="#920017" id="id-75331"></path><path d=" M 47,132 L 49,136 C 54,133 57,132 58,132 C 71,131 75,135 75,134 C 71,130 65,129 61,128 C 56,127 51,129 47,132 Z" fill="#000000" opacity="0.300" id="id-75330"></path><polygon points="57 132 57 130 60 130 60 132" fill="#BDA7A9" id="id-75334"></polygon><path d=" M 33,131 L 39,135 L 43,134 C 50,131 56,129 61,130 C 66,130 72,132 81,137 C 77,132 72,129 64,128 C 56,126 48,127 41,131 L 33,131 Z" fill="#2C1309" id="id-75335"></path><polygon points="43 137 47 135 50 137" fill="#3A180F" id="id-75336"></polygon><polygon points="50 139 50 143 53 139" fill="#3A180F" id="id-75337"></polygon><polygon points="55 140 58 140 55 145" fill="#3A180F" id="id-75338"></polygon><polygon points="122 107 126 106 120 118" fill="#662913" id="id-75339"></polygon><polygon points="118 108 120 108 118 115 114 118" fill="#662913" id="id-75340"></polygon></g><defs><linearGradient x1="50%" y1="18%" x2="50%" y2="63%" id="id-40045"><stop stop-color="#0E2126" offset="0%"></stop><stop stop-color="#2F4C61" offset="100%"></stop></linearGradient><linearGradient x1="37%" y1="48%" x2="62%" y2="53%" id="id-40046"><stop stop-color="#2E1F2E" offset="0%"></stop><stop stop-color="#312332" offset="14%"></stop><stop stop-color="#3B303D" offset="29%"></stop><stop stop-color="#4B444F" offset="44%"></stop><stop stop-color="#2E1F2E" offset="100%"></stop></linearGradient><linearGradient x1="63%" y1="46%" x2="37%" y2="53%" id="id-40047"><stop stop-color="#2E1F2E" offset="0%"></stop><stop stop-color="#312332" offset="14%"></stop><stop stop-color="#3B303D" offset="29%"></stop><stop stop-color="#4B444F" offset="44%"></stop><stop stop-color="#2E1F2E" offset="100%"></stop></linearGradient></defs><g transform=" translate(451,1051)" id="id-40048"><path d=" M 52,709 L 160,709 L 165,681 L 164,648 L 167,625 L 169,612 L 168,561 L 176,470 L 189,364 L 194,290 L 192,266 L 206,269 L 220,266 L 216,315 L 216,353 L 222,422 L 229,506 L 231,611 L 234,628 L 236,674 L 244,709 L 344,709 L 341,689 L 339,668 L 343,631 L 344,580 L 388,403 L 399,337 L 401,324 L 395,260 L 386,204 L 369,146 L 362,95 L 337,25 L 324,0 C 268,25 226,37 199,37 C 171,38 131,26 79,2 L 45,94 L 36,135 L 15,229 L 2,279 L 1,311 L 6,360 L 14,414 L 49,592 L 59,677 L 52,709 Z" fill="url(#id-40045)" opacity="0.596" id="id-40049"></path><path d=" M 341,36 L 337,25 L 324,0 C 268,25 226,37 199,37 C 171,38 131,26 79,2 L 65,42 C 106,63 151,73 199,72 C 248,71 295,59 341,36 Z" fill="#001D1D" id="id-40049"></path><path d=" M 218,375 C 221,427 228,544 229,568 C 230,599 229,619 233,639 C 234,649 235,664 236,678 C 237,689 239,700 242,709 L 345,709 C 345,708 343,695 340,669 L 344,633 L 346,578 C 367,495 382,433 390,394 C 391,391 391,386 392,383 C 395,368 216,360 218,375 Z" fill="url(#id-40046)" id="id-40051"></path><path d=" M 220,398 L 221,411 C 234,414 264,420 306,420 C 333,420 360,418 387,413 C 388,409 389,405 389,401 C 297,416 235,402 220,398 Z" fill="#071C1C" id="id-40051"></path><path d=" M 319,311 C 296,229 293,50 293,50 L 283,64 C 283,64 289,267 276,306 C 264,344 249,381 216,350 C 216,350 216,363 218,382 C 242,390 316,408 391,389 C 395,371 396,357 397,353 C 397,353 343,393 319,311 Z" fill="#001D1D" id="id-40051"></path><path d=" M 188,375 C 183,426 170,544 170,568 C 169,599 171,619 167,639 C 164,659 161,709 161,709 L 49,709 C 49,709 56,700 57,677 C 57,663 55,644 51,620 C 43,569 18,440 8,381 C 5,367 190,359 188,375 Z" fill="url(#id-40047)" id="id-40051"></path><path d=" M 186,396 L 184,409 C 171,412 140,418 96,418 C 69,418 41,416 13,411 C 13,407 12,403 11,399 C 106,414 170,400 186,396 Z" fill="#071C1C" id="id-40051"></path><path d=" M 83,309 C 107,227 110,48 110,48 L 120,62 C 120,62 114,265 127,304 C 140,342 157,379 191,348 C 191,348 190,360 188,380 C 163,387 86,406 9,387 C 5,369 4,355 4,351 C 4,351 59,391 83,309 Z" fill="#001D1D" id="id-40051"></path></g><defs><linearGradient x1="50%" y1="6%" x2="50%" y2="92%" id="id-40181"><stop stop-color="#FE2910" offset="0%"></stop><stop stop-color="#FE2910" offset="75%"></stop><stop stop-color="#C30026" offset="100%"></stop></linearGradient><linearGradient x1="0%" y1="48%" x2="100%" y2="48%" id="id-40182"><stop stop-color="#E89999" offset="0%"></stop><stop stop-color="#B1043D" offset="3%"></stop><stop stop-color="#DA4949" offset="11%"></stop><stop stop-color="#FBB9B9" offset="16%"></stop><stop stop-color="#980000" offset="24%"></stop><stop stop-color="#990000" offset="75%"></stop><stop stop-color="#F7BABA" offset="82%"></stop><stop stop-color="#C62F2F" offset="87%"></stop><stop stop-color="#AA0505" offset="95%"></stop><stop stop-color="#EFC0C0" offset="100%"></stop></linearGradient></defs><g transform=" translate(497,803)" id="id-40183"><polygon points="292 103 250 114 158 116 73 114 54 113 26 106 24 91 10 72 1 47 1 37 8 13 39 2 47 4 73 18 116 46 132 58 132 72 135 79 151 84 171 79 174 58 207 32 263 2 268 1 287 7 303 15 309 34 307 58 294 81" fill="url(#id-40181)" id="id-40184"></polygon><polygon points="198 115 158 116 105 115 142 92 151 84 165 90" fill="#C30026" opacity="0.783" id="id-40184"></polygon><polygon points="110 86 67 99 24 91 10 72 1 47 1 37 5 22 7 47 21 72 36 81 58 86" fill="#D00029" id="id-40184"></polygon><polygon points="67 99 24 91 10 72 1 47 1 37 5 22 7 47 21 72 29 84" fill="#E50444" id="id-40184"></polygon><polygon points="245 97 210 84 258 74 295 56 304 37 302 15 307 34 307 58 293 81" fill="#D00029" id="id-40184"></polygon><polygon points="295 56 301 37 303 15 309 34 307 58 294 81 272 88" fill="#DF1700" id="id-40184"></polygon><polygon points="206 41 217 56 249 64 288 42 297 16 269 4 214 33" fill="#FF4F45" id="id-40190"></polygon><polygon points="14 14 14 33 36 55 77 53 97 38 45 6" fill="#FF4F45" id="id-40191"></polygon><polygon points="128 79 123 58 85 32 49 10 25 11 5 21 8 13 39 2 47 4 73 18 116 46 132 58 132 63 173 63 172 71 132 71 132 72 135 79 151 84 171 79 174 58 207 32 263 2 268 1 287 7 303 15 305 21 280 10 265 9 212 36 180 59 175 83 153 90 133 84" fill="url(#id-40182)" id="id-40184"></polygon></g><defs><linearGradient x1="50%" y1="0%" x2="50%" y2="100%" id="id-51317"><stop stop-color="#F60057" offset="0%"></stop><stop stop-color="#F50050" offset="50%"></stop><stop stop-color="#B40056" offset="100%"></stop></linearGradient></defs><g transform=" translate(440,609)" id="id-51318"><path d=" M 9,781 C 10,760 5,753 11,714 C 7,662 5,636 5,636 C 8,627 16,617 26,607 C 27,581 28,568 28,568 C 41,546 48,535 48,535 C 50,525 50,521 50,521 C 67,486 75,469 75,469 C 72,427 71,407 71,407 C 92,363 102,341 102,341 C 98,297 93,256 93,204 C 121,202 135,201 135,201 C 135,217 135,225 135,225 C 186,226 241,230 289,226 C 291,209 292,201 292,201 C 316,203 329,204 329,204 C 326,249 331,277 326,340 C 342,387 350,411 350,411 C 349,450 349,470 349,470 C 384,547 374,560 392,615 C 402,623 407,628 407,628 C 404,645 402,654 402,654 C 410,701 419,749 414,792 L 419,796 L 415,803 L 385,812 C 343,826 302,828 261,823 C 230,823 215,823 215,823 C 219,819 222,817 222,817 C 222,784 220,751 224,718 C 218,718 212,718 206,717 C 206,752 205,789 202,822 C 175,823 162,823 162,823 L 116,816 C 45,793 9,781 9,781 Z" fill="url(#id-51317)" id="id-51319"></path><path d=" M 210,822 C 208,839 207,848 207,848 C 174,853 145,852 119,846 C 85,838 46,826 6,814 C 2,794 0,784 0,784 C 6,778 9,775 9,775 C 9,779 9,781 9,781 C 81,805 117,816 117,816 C 148,821 164,823 164,823 L 201,821 C 205,819 208,820 210,822 Z" fill="#191B37" id="id-51320"></path><path d=" M 172,822 C 188,753 197,718 197,718 C 165,702 150,694 150,694 C 171,688 182,685 182,685 C 142,647 122,628 122,628 C 171,640 195,646 195,646 C 192,639 190,636 190,636 C 157,625 140,619 140,619 C 112,598 98,587 98,587 C 95,595 94,599 94,599 C 105,611 111,617 111,617 L 89,604 L 32,562 L 48,535 L 50,521 L 74,469 L 71,407 L 102,341 C 98,291 96,266 96,266 C 94,238 93,225 93,225 C 97,247 98,258 98,258 C 115,269 123,275 123,275 C 148,356 161,397 161,397 C 138,409 127,416 127,416 C 93,486 76,522 76,522 C 106,505 121,497 121,497 C 115,518 112,529 112,529 C 140,535 154,538 154,538 C 210,536 238,535 238,535 C 238,537 238,538 238,538 C 211,539 198,539 198,539 L 196,542 L 205,694 L 206,717 C 206,754 205,789 201,820 C 182,822 172,822 172,822 Z" fill="#A10054" id="id-51321"></path><path d=" M 171,823 L 169,851 C 149,851 133,849 119,846 C 93,839 79,836 79,836 L 74,802 L 116,816 L 162,823 C 168,823 171,823 171,823 Z" fill="#282946" id="id-51322"></path><path d=" M 116,816 C 147,821 162,823 162,823 C 162,823 156,851 156,851 C 143,851 131,849 119,845 L 116,816 Z" fill="#2B2C49" id="id-51323"></path><path d=" M 116,816 C 128,820 134,822 134,822 L 162,826 L 201,821 L 162,823 C 131,819 116,816 116,816 Z" fill="#5C6597" id="id-51324"></path><path d=" M 215,822 C 216,837 216,845 216,845 C 238,846 248,847 248,847 C 294,848 355,849 380,843 C 394,838 406,831 419,823 C 420,807 421,799 421,799 C 419,797 418,795 418,795 C 416,801 415,803 415,803 C 395,808 385,811 385,811 L 261,823 C 230,822 215,822 215,822 Z" fill="#191B37" id="id-51325"></path><path d=" M 259,823 C 303,824 326,824 326,824 L 383,812 C 300,819 259,823 259,823 Z" fill="#5C6697" id="id-51326"></path><path d=" M 253,823 C 249,839 247,847 247,847 C 307,849 351,848 380,843 L 383,812 L 326,824 C 277,823 253,823 253,823 Z" fill="#191B37" id="id-51327"></path><path d=" M 304,848 L 304,824 C 319,824 326,824 326,824 C 340,821 347,820 347,820 L 346,847 C 337,848 324,848 304,848 Z" fill="#2A2B49" id="id-51328"></path><path d=" M 9,627 L 5,636 L 7,714 C 2,744 6,760 7,782 C 70,802 102,812 102,812 L 45,673 L 9,627 Z" fill="#880052" id="id-51329"></path><path d=" M 43,670 C 52,657 57,650 57,650 L 22,611 C 16,616 13,622 9,627 C 32,656 43,670 43,670 Z" fill="#B20053" id="id-51330"></path><path d=" M 22,611 C 26,615 28,618 28,618 C 44,609 52,604 52,604 C 92,625 112,636 112,636 C 101,618 96,609 96,609 C 79,597 70,591 70,591 C 79,573 84,565 84,565 C 61,571 50,575 50,575 L 32,562 L 28,568 L 26,607 C 23,609 22,611 22,611 Z" fill="#920054" id="id-51331"></path><path d=" M 5,636 C 62,583 90,557 90,557 C 92,573 93,581 93,581 L 5,662 C 5,645 5,636 5,636 Z" fill="#BD0055" id="id-51332"></path><path d=" M 67,604 C 58,597 54,593 54,593 C 69,579 76,573 76,573 L 88,585 C 74,598 67,604 67,604 Z" fill="#EF0050" id="id-51333"></path><path d=" M 50,594 C 46,588 43,585 43,585 C 56,579 62,576 62,576 L 65,581 C 55,590 50,594 50,594 Z" fill="#2B011F" id="id-51334"></path><path d=" M 77,631 C 118,663 138,679 138,679 C 136,682 135,683 135,683 C 135,726 135,771 131,818 C 121,817 116,816 116,816 C 108,814 104,812 104,812 C 115,781 123,744 119,689 C 91,650 77,631 77,631 Z" fill="#BE0055" id="id-51335"></path><path d=" M 198,821 L 189,822 C 195,797 202,758 206,717 C 204,754 202,788 198,821 Z" fill="#8A0051" id="id-51336"></path><path d=" M 142,535 C 168,458 180,419 180,419 C 229,394 253,382 253,382 C 263,394 267,400 267,400 C 246,423 236,435 236,435 C 256,426 267,422 267,422 L 300,533 L 238,535 L 154,538 C 146,536 142,535 142,535 Z" fill="#FF3678" id="id-51337"></path><path d=" M 206,720 C 182,706 170,699 170,699 C 185,701 192,702 192,702 C 201,695 205,692 205,692 C 218,698 224,701 224,701 C 249,701 261,701 261,701 C 238,711 227,716 227,716 C 225,714 224,713 224,713 L 220,718 C 216,719 211,718 206,717 C 206,719 206,720 206,720 Z" fill="#B00050" id="id-51338"></path><path d=" M 202,624 C 223,618 234,615 234,615 C 234,565 234,541 234,541 C 247,598 253,626 253,626 C 288,620 306,617 306,617 C 268,639 249,651 249,651 C 254,658 257,662 257,662 C 315,639 344,628 344,628 C 279,669 246,689 246,689 C 282,693 301,694 301,694 C 265,705 247,710 247,710 L 238,785 L 222,817 C 221,783 221,749 224,718 L 206,717 C 203,655 202,624 202,624 Z" fill="#B80055" id="id-51339"></path><path d=" M 203,682 C 224,679 234,677 234,677 C 235,638 236,619 236,619 L 198,626 C 201,663 203,682 203,682 Z" fill="#B0004E" id="id-51340"></path><path d=" M 160,639 C 184,665 195,678 195,678 L 204,674 C 175,651 160,639 160,639 Z" fill="#B00050" id="id-51341"></path><path d=" M 201,663 C 193,644 189,634 189,634 C 193,612 195,601 195,601 L 196,549 C 199,625 201,663 201,663 Z" fill="#D7004D" id="id-51342"></path><path d=" M 226,701 C 232,692 235,687 235,687 C 242,687 245,688 245,688 C 253,672 256,664 256,664 C 251,656 248,652 248,652 L 236,618 L 234,677 L 204,682 L 205,692 C 219,698 226,701 226,701 Z" fill="#9A0053" id="id-51343"></path><path d=" M 249,651 C 301,621 327,606 327,606 L 308,642 L 257,662 C 252,654 249,651 249,651 Z" fill="#E30051" id="id-51344"></path><path d=" M 354,713 L 399,643 L 404,646 C 403,651 402,654 402,654 C 408,684 413,716 416,750 C 400,718 392,702 392,702 L 388,709 C 365,712 354,713 354,713 Z" fill="#A30054" id="id-51345"></path><path d=" M 316,759 C 365,737 389,727 389,727 C 385,759 383,775 383,775 L 380,811 L 415,803 L 419,796 L 414,792 C 416,782 416,769 416,750 L 392,702 L 388,709 L 354,713 L 382,672 C 338,730 316,759 316,759 Z" fill="#B10055" id="id-51346"></path><path d=" M 308,770 C 332,771 344,772 344,772 C 345,788 342,802 333,816 C 352,814 361,813 361,813 C 362,799 362,787 367,768 L 389,727 L 316,759 C 310,766 308,770 308,770 Z" fill="#C30054" id="id-51347"></path><path d=" M 243,823 L 227,716 C 225,714 224,713 224,713 L 220,718 L 224,718 C 221,749 221,782 222,816 L 216,823 L 243,823 Z" fill="#8D0052" id="id-51348"></path><path d=" M 344,773 C 346,792 339,804 333,816 C 322,817 317,818 317,818 L 272,802 L 276,785 L 306,773 L 308,770 L 344,773 Z" fill="#B50054" id="id-51349"></path><path d=" M 318,565 L 384,588 L 372,533 C 366,513 360,493 348,470 L 349,440 C 318,384 303,356 303,356 C 312,392 317,409 317,409 C 295,414 284,416 284,416 C 310,433 323,441 323,441 C 332,491 337,515 337,515 C 340,521 341,523 341,523 C 336,532 334,537 334,537 L 330,541 C 322,557 318,565 318,565 Z" fill="#D80056" id="id-51350"></path><path d=" M 336,577 C 343,572 347,569 347,569 C 357,577 362,581 362,581 L 357,592 C 343,582 336,577 336,577 Z" fill="#2B011F" id="id-51351"></path><path d=" M 349,470 C 329,425 319,403 319,403 C 324,366 326,348 326,348 C 306,356 296,360 296,360 C 297,313 297,290 297,290 L 328,285 L 326,340 L 350,411 L 351,453 C 350,464 349,470 349,470 Z" fill="#C60056" id="id-51352"></path><path d=" M 215,228 C 249,228 265,228 265,228 C 264,261 264,278 264,278 L 217,279 C 216,245 215,228 215,228 Z" fill="#F90045" id="id-51353"></path><path d=" M 292,201 C 290,218 289,226 289,226 C 271,240 262,247 262,247 L 304,234 L 292,201 Z" fill="#DA0057" id="id-51354"></path><path d=" M 96,228 C 120,227 132,227 132,227 C 132,212 132,204 132,204 L 96,206 C 96,221 96,228 96,228 Z" fill="#191B37" id="id-51355"></path><path d=" M 294,224 C 315,227 325,228 325,228 C 325,214 325,206 325,206 L 296,204 C 295,218 294,224 294,224 Z" fill="#191B37" id="id-51356"></path><path d=" M 96,274 C 119,291 130,300 130,300 C 174,366 196,399 196,399 C 148,402 124,403 124,403 C 122,380 121,369 121,369 C 115,369 112,369 112,369 C 113,354 114,347 114,347 L 101,343 L 102,341 C 98,296 96,274 96,274 Z" fill="#880052" id="id-51357"></path><path d=" M 75,470 C 97,423 108,400 108,400 L 76,397 L 71,407 C 74,449 75,470 75,470 Z" fill="#7D0342" id="id-51358"></path><path d=" M 72,429 L 100,418 L 75,469 C 73,442 72,429 72,429 Z" fill="#880052" id="id-51359"></path><path d=" M 295,202 C 294,133 294,99 294,99 C 294,94 294,91 294,91 C 294,86 294,83 294,83 C 293,77 293,74 293,74 C 289,38 287,20 287,20 L 282,17 C 277,9 274,5 273,3 C 279,1 281,0 281,0 C 299,18 308,26 308,26 C 312,40 315,58 316,78 C 322,150 325,186 325,186 L 326,204 C 305,202 295,202 295,202 Z" fill="#000000" id="id-51360"></path><path d=" M 129,202 C 128,167 131,134 135,101 L 135,97 C 137,89 137,85 137,85 C 138,77 138,73 138,73 C 144,38 147,21 147,21 C 155,15 160,11 161,10 C 154,7 150,6 150,6 C 132,20 123,27 123,27 C 119,41 115,57 113,75 C 107,119 102,162 100,203 C 120,202 129,202 129,202 Z" fill="#000000" id="id-51361"></path><path d=" M 93,217 C 90,217 88,217 88,217 C 88,199 88,190 88,190 C 122,190 139,189 139,189 C 139,204 139,211 139,211 C 136,213 135,213 135,213 C 135,201 136,196 136,196 L 93,196 C 93,210 93,217 93,217 Z" fill="#4F5866" id="id-51362"></path><path d=" M 139,189 C 139,191 139,192 139,192 C 136,193 135,194 135,194 L 135,189 C 138,189 139,189 139,189 Z" fill="#92B6F2" id="id-51363"></path><path d=" M 291,209 C 288,208 286,208 286,208 C 287,195 287,188 287,188 C 319,188 334,189 334,189 C 334,189 334,189 334,190 C 333,206 332,214 332,214 C 329,213 328,213 328,213 C 329,200 330,194 330,194 L 293,193 C 292,204 291,209 291,209 Z" fill="#4F5866" id="id-51364"></path><path d=" M 334,189 C 334,191 334,193 334,193 C 331,194 330,194 330,194 L 332,189 C 333,189 334,189 334,189 Z" fill="#92B6F2" id="id-51365"></path><path d=" M 321,101 C 300,101 289,101 289,101 C 289,95 289,93 289,93 L 321,92 C 321,98 321,101 321,101 Z" fill="#4F5866" id="id-51366"></path><path d=" M 321,88 C 300,87 290,87 290,87 C 290,81 290,79 290,79 L 321,78 C 321,84 321,88 321,88 Z" fill="#4F5866" id="id-51367"></path><path d=" M 290,79 C 311,78 321,78 321,78 C 321,80 321,81 321,81 L 290,81 L 290,79 Z" fill="#5D6F8F" id="id-51368"></path><path d=" M 107,101 C 129,100 140,100 140,100 C 140,95 140,93 140,93 L 107,93 C 107,98 107,101 107,101 Z" fill="#4F5866" id="id-51369"></path><path d=" M 108,84 C 130,85 141,86 141,86 C 141,80 141,77 141,77 C 132,77 125,76 120,76 C 117,76 113,76 108,76 C 108,82 108,84 108,84 Z" fill="#4F5866" id="id-51370"></path><polygon points="108 78 141 79 141 77 108 76" fill="#5D6F8F" id="id-51371"></polygon><path d=" M 123,275 C 118,309 115,325 115,325 C 120,326 123,326 123,326 C 126,372 127,395 127,395 C 150,397 165,398 173,399 C 208,400 223,399 223,399 C 273,398 298,397 298,397 C 298,354 298,332 298,332 C 301,329 303,327 303,327 C 302,292 302,274 302,274 L 193,275 C 147,275 123,275 123,275 Z" fill="#009591" id="id-51372"></path><path d=" M 176,326 C 184,292 188,275 188,275 C 191,275 193,275 193,275 C 241,275 265,274 265,274 L 254,327 C 202,326 176,326 176,326 Z" fill="#009E9D" id="id-51373"></path><path d=" M 258,304 C 257,317 256,324 256,324 C 285,324 299,324 299,324 L 299,304 C 271,304 258,304 258,304 Z" fill="#866600" id="id-51374"></path><path d=" M 260,307 C 284,307 296,307 296,307 C 296,316 296,321 296,321 L 259,321 C 259,312 260,307 260,307 Z" fill="#524800" id="id-51375"></path><path d=" M 115,325 L 303,327 C 300,331 298,332 298,332 C 293,331 291,330 291,330 C 202,330 158,330 158,330 C 137,337 127,341 127,341 L 123,327 L 115,325 Z" fill="#005F58" id="id-51376"></path><path d=" M 184,313 C 189,290 192,278 192,278 L 242,278 C 203,302 184,313 184,313 Z" fill="#00A7A6" id="id-51377"></path><path d=" M 170,330 L 173,399 C 205,399 221,399 221,399 C 232,399 237,399 237,399 C 241,384 243,376 243,376 L 254,330 C 198,330 170,330 170,330 Z" fill="#00A7A6" id="id-51378"></path><g transform=" translate(142,342)" id="id-51379"><polygon points="132 36 141 36 141 2 107 2 107 36 118 36 118 13 120 13 120 36 130 36 130 13 132 13" fill="#03091E" id="id-51380"></polygon><polygon points="118 2 107 2 107 18" fill="#182451" id="id-51380"></polygon><polygon points="72 35 81 35 82 11 96 11 96 13 87 13 83 19 100 36 106 30 100 24 105 24 105 2 73 1" fill="#182451" id="id-51382"></polygon><polygon points="96 33 100 36 106 30 102 26" fill="#03091E" id="id-51382"></polygon><polygon points="0 35 10 35 10 23 34 23 34 13 10 13 10 11 34 11 35 1 1 1" fill="#03091E" id="id-51384"></polygon><polygon points="28 23 34 23 34 13 29 13" fill="#182451" id="id-51384"></polygon><polygon points="29 11 34 11 35 1 31 1" fill="#182451" id="id-51384"></polygon><path d=" M 70,1 L 70,35 L 61,35 L 61,28 L 46,28 L 46,35 L 37,35 L 37,1 L 70,1 Z M 61,11 L 46,11 L 46,18 L 61,18 L 61,11 Z" fill="#182451" id="id-51387"></path></g></g><defs><linearGradient x1="33%" y1="10%" x2="62%" y2="54%" id="id-41682"><stop stop-color="#79A491" offset="0%"></stop><stop stop-color="#2E544B" offset="100%"></stop></linearGradient><linearGradient x1="50%" y1="0%" x2="50%" y2="100%" id="id-41683"><stop stop-color="#43796D" offset="0%"></stop><stop stop-color="#336356" offset="100%"></stop></linearGradient><linearGradient x1="34%" y1="0%" x2="50%" y2="100%" id="id-41684"><stop stop-color="#2F5349" offset="0%"></stop><stop stop-color="#446D5E" offset="100%"></stop></linearGradient></defs><g transform=" translate(332,587)" id="id-41685"><path d=" M 92,687 L 100,713 C 98,711 95,709 92,707 C 59,716 45,718 15,731 C 33,685 20,685 1,670 C 20,633 24,613 15,595 C 27,582 53,558 27,555 C 27,550 25,549 26,543 C 58,495 37,462 37,440 C 61,390 100,254 86,188 C 88,184 90,181 92,177 L 92,163 L 117,97 L 179,62 L 179,48 L 197,3 L 201,6 C 199,9 199,12 201,13 C 260,71 296,99 322,121 C 338,111 359,96 385,76 L 434,33 L 454,1 L 474,48 L 471,59 L 537,97 L 557,163 L 568,183 L 562,193 C 568,271 584,351 610,434 C 592,505 587,501 610,539 C 587,579 610,576 616,592 C 614,634 616,624 636,670 C 631,675 624,683 614,695 L 619,727 C 587,714 571,707 571,707 L 534,706 L 542,685 L 515,659 L 523,641 L 499,601 C 499,587 500,572 501,558 C 492,540 484,510 475,467 L 454,390 L 451,370 L 443,364 L 318,360 L 199,377 L 170,480 L 152,500 L 157,513 C 147,543 140,573 136,603 C 127,609 115,616 100,624 C 106,637 111,649 114,659 C 112,674 92,687 92,687 Z" fill="url(#id-41682)" id="id-41686"></path><polygon points="120 294 114 313 72 308 80 282" fill="#EE0000" id="id-41687"></polygon><path d=" M 82,275 C 111,281 126,284 126,284 C 131,272 134,266 134,266 L 88,249 C 84,267 82,275 82,275 Z" fill="#FFAC00" id="id-41688"></path><path d=" M 157,513 C 146,546 140,576 136,603 C 126,609 114,616 100,624 C 106,637 111,649 114,659 C 112,671 104,680 92,687 L 100,713 C 95,709 92,707 92,707 C 75,711 66,714 66,714 C 65,689 64,676 64,676 C 37,690 23,697 23,697 C 24,691 20,684 10,677 C 47,665 95,665 95,665 L 89,562 L 157,513 Z" fill="#204740" id="id-41689"></path><path d=" M 17,631 C 29,628 46,623 67,616 L 15,595 C 20,607 21,619 17,631 Z" fill="#264B42" id="id-41690"></path><path d=" M 15,595 C 29,589 48,580 73,568 C 56,564 44,560 36,557 C 44,565 29,581 15,595 Z" fill="#1B433D" id="id-41691"></path><polygon points="69 715 41 723 33 690 56 678" fill="#FFAC00" id="id-41692"></polygon><path d=" M 89,562 L 38,541 L 27,555 L 73,568 L 15,595 L 67,616 L 17,631 L 1,670 L 10,677 C 36,669 64,665 95,665 C 93,635 91,601 89,562 Z" fill="#2C5045" id="id-41693"></path><path d=" M 60,510 C 106,509 129,509 129,509 L 77,446 C 66,488 60,510 60,510 Z" fill="#335C51" id="id-41694"></path><path d=" M 152,500 C 155,497 157,496 157,496 C 145,480 134,469 125,463 C 123,464 152,500 152,500 Z" fill="#254E45" id="id-41695"></path><path d=" M 87,441 C 59,428 45,421 45,421 L 68,353 C 81,411 87,441 87,441 Z" fill="#56816F" id="id-41696"></path><path d=" M 170,480 C 120,456 94,443 94,443 C 131,409 149,392 149,392 C 128,320 118,284 118,284 C 132,276 139,272 139,272 L 88,199 L 86,188 C 90,181 92,177 92,177 C 99,184 102,187 102,187 C 105,159 107,145 107,145 L 102,137 C 112,110 117,97 117,97 C 122,101 124,103 124,103 C 137,148 143,170 143,170 C 143,142 143,128 143,128 C 158,147 166,156 166,156 C 164,193 162,211 162,211 C 169,246 172,264 172,264 C 170,335 168,371 168,371 L 183,434 C 174,465 170,480 170,480 Z" fill="url(#id-41683)" id="id-41697"></path><path d=" M 259,369 C 219,375 199,377 199,377 C 192,381 189,382 189,382 C 185,340 183,319 183,319 C 187,299 190,289 190,289 L 250,341 L 259,369 Z" fill="#36675B" id="id-41698"></path><path d=" M 135,231 L 175,265 L 183,319 L 189,382 C 195,379 199,377 199,377 C 199,387 200,391 200,391 C 190,386 185,383 185,383 L 174,300 C 148,254 135,231 135,231 Z" fill="#21544C" id="id-41699"></path><path d=" M 220,374 C 287,368 321,365 321,365 L 441,367 L 451,370 L 443,364 L 318,360 C 253,370 220,374 220,374 Z" fill="#0D3021" id="id-41700"></path><path d=" M 305,362 C 305,341 305,331 305,331 L 310,361 C 307,362 305,362 305,362 Z" fill="#336053" id="id-41701"></path><path d=" M 354,361 C 355,343 356,334 356,334 L 360,361 C 356,361 354,361 354,361 Z" fill="#315C4F" id="id-41702"></path><path d=" M 443,364 C 434,363 430,363 430,363 C 430,336 429,323 429,323 C 391,316 372,313 372,313 C 409,268 428,246 428,246 L 465,308 C 450,345 443,364 443,364 Z" fill="#2C554B" id="id-41703"></path><path d=" M 118,328 C 116,336 115,340 115,340 L 74,328 C 72,336 71,340 71,340 C 108,351 127,356 127,356 L 135,332 C 123,329 118,328 118,328 Z" fill="#E1E2E5" id="id-41704"></path><path d=" M 226,150 C 184,186 163,205 163,205 L 166,144 C 206,148 226,150 226,150 Z" fill="#739F8D" id="id-41705"></path><path d=" M 190,77 C 192,82 193,84 193,84 C 155,103 136,112 136,112 L 131,106 C 170,86 190,77 190,77 Z" fill="#D6DBDC" id="id-41706"></path><polygon points="249 231 255 243 230 257 226 246" fill="#E1E2E5" id="id-41707"></polygon><path d=" M 290,164 C 290,149 290,141 290,141 C 267,141 256,141 256,141 C 248,150 244,155 244,155 C 259,164 267,168 267,168 L 270,164 C 283,164 290,164 290,164 Z" fill="#E1E2E5" id="id-41708"></path><path d=" M 295,142 C 295,147 295,149 295,149 C 303,149 306,149 306,149 C 299,154 295,156 295,156 C 295,162 295,166 295,166 C 309,165 316,165 316,165 C 316,161 316,159 316,159 C 308,159 305,159 305,159 C 312,155 316,153 316,153 L 315,142 C 302,142 295,142 295,142 Z" fill="#E1E2E5" id="id-41709"></path><path d=" M 337,141 L 337,141 C 337,141 337,149 337,165 C 337,165 331,165 320,166 L 320,166 L 320,166 C 320,165 320,157 320,142 L 320,142 L 337,141 L 337,141 Z M 331,146 C 331,146 329,146 326,146 L 326,146 L 326,162 C 326,162 327,162 331,162 L 331,162 L 331,161 C 331,161 331,156 331,146 Z" fill="#E1E2E5" id="id-41710"></path><path d=" M 344,141 C 343,158 343,166 343,166 C 360,167 369,167 369,167 C 381,159 387,155 387,155 L 376,141 C 355,141 344,141 344,141 Z" fill="#E1E2E5" id="id-41711"></path><path d=" M 390,162 C 399,173 403,178 403,178 C 358,250 336,285 336,285 C 325,286 319,286 319,286 C 318,270 318,261 318,261 C 322,261 324,261 324,261 C 358,207 376,180 376,180 L 371,174 C 384,166 390,162 390,162 Z" fill="#E1E2E5" id="id-41712"></path><path d=" M 335,192 C 322,208 316,216 316,216 L 304,193 C 324,192 335,192 335,192 Z" fill="#FFAC00" id="id-41713"></path><path d=" M 313,262 C 313,278 314,286 314,286 C 302,286 296,286 296,286 C 251,211 228,174 228,174 C 235,165 239,161 239,161 C 254,169 262,173 262,173 C 260,175 259,176 259,176 L 308,261 C 312,262 313,262 313,262 Z" fill="#E1E2E5" id="id-41714"></path><path d=" M 413,242 C 407,250 403,253 403,253 C 387,243 378,237 378,237 L 387,226 C 404,236 413,242 413,242 Z" fill="#E1E2E5" id="id-41715"></path><path d=" M 326,119 C 335,119 340,120 340,120 L 476,63 L 471,59 L 474,48 L 454,1 L 434,33 L 385,76 C 346,104 326,119 326,119 Z" fill="#305C52" id="id-41716"></path><polygon points="474 48 403 93 476 63 471 59" fill="#1A443E" id="id-41717"></polygon><path d=" M 314,120 C 287,111 240,93 173,65 L 179,62 L 179,48 L 194,10 C 254,70 293,106 314,120 Z" fill="#36685C" id="id-41718"></path><polygon points="179 48 255 94 173 65 179 62" fill="#1D4842" id="id-41719"></polygon><polygon points="382 79 324 116 269 76 322 121" fill="#95B0E3" id="id-41720"></polygon><polygon points="502 170 508 125 482 151 387 105 476 63 537 97" fill="#5C8574" id="id-41721"></polygon><polygon points="562 193 537 201 568 183" fill="#1D443E" id="id-41722"></polygon><path d=" M 636,670 C 610,672 571,670 521,664 L 542,685 L 534,706 L 571,707 L 619,727 L 614,695 C 621,686 629,678 636,670 Z" fill="#16423D" id="id-41723"></path><path d=" M 571,707 C 574,687 576,677 576,677 C 593,684 601,688 601,688 L 605,721 C 582,712 571,707 571,707 Z" fill="#2B574F" id="id-41724"></path><path d=" M 615,619 C 609,632 591,663 591,663 C 612,665 626,666 634,666 C 629,654 616,633 615,619 Z" fill="#4D7B6B" id="id-41725"></path><path d=" M 503,607 C 568,626 600,636 600,636 L 521,644 L 523,641 L 503,607 Z" fill="#16413C" id="id-41726"></path><path d=" M 510,568 C 536,575 549,579 549,579 C 539,600 534,611 534,611 L 501,603 C 507,580 510,568 510,568 Z" fill="#42695C" id="id-41727"></path><path d=" M 610,539 C 605,542 596,559 596,559 C 563,584 546,596 546,596 C 576,592 598,588 612,586 C 602,576 592,570 610,539 Z" fill="#1A4843" id="id-41728"></path><path d=" M 524,538 L 500,570 L 501,558 L 475,467 L 454,390 C 464,388 468,386 468,386 L 467,315 L 482,246 L 484,283 C 507,244 522,219 528,209 C 524,226 482,295 474,336 C 474,362 477,406 482,470 L 500,537 C 516,538 524,538 524,538 Z" fill="#163F3A" id="id-41729"></path><polygon points="484 283 482 246 494 193 494 253 528 209" fill="#32584E" id="id-41730"></polygon><path d=" M 521,459 C 511,457 499,454 485,451 C 509,309 524,231 528,216 C 541,246 485,417 521,459 Z" fill="#3E6356" id="id-41731"></path><path d=" M 608,428 C 575,492 547,501 524,456 C 508,421 514,375 514,375 L 590,365 C 602,407 608,428 608,428 Z" fill="url(#id-41684)" id="id-41732"></path><path d=" M 482,470 C 491,462 495,459 495,459 L 573,507 L 506,562 L 524,538 L 500,537 C 488,492 482,470 482,470 Z" fill="#1F4841" id="id-41733"></path><path d=" M 595,503 C 589,499 584,494 579,487 C 593,468 602,456 605,452 C 605,459 592,495 595,503 Z" fill="#204943" id="id-41734"></path><path d=" M 547,348 L 569,348 C 569,372 569,384 569,384 C 574,385 577,386 577,386 C 582,383 584,381 584,381 C 590,398 593,407 593,407 C 576,414 568,417 568,417 L 547,398 L 547,348 Z" fill="#E1E2E5" id="id-41735"></path><path d=" M 590,377 C 595,375 598,373 598,373 C 603,391 606,400 606,400 L 597,404 C 592,386 590,377 590,377 Z" fill="#E1E2E5" id="id-41736"></path><path d=" M 568,335 C 554,337 546,337 546,337 C 547,297 547,276 547,276 C 562,267 570,262 570,262 C 573,284 575,295 575,295 L 566,297 C 567,323 568,335 568,335 Z" fill="#E1E2E5" id="id-41737"></path><path d=" M 199,377 C 199,405 199,418 199,418 C 224,418 237,418 237,418 L 238,372 C 212,376 199,377 199,377 Z" fill="#FFAC00" id="id-41738"></path><path d=" M 238,372 C 238,377 237,380 237,380 L 199,390 L 199,377 C 225,374 238,372 238,372 Z" fill="#E87700" id="id-41739"></path><path d=" M 69,347 C 91,353 102,357 102,357 C 99,363 97,366 97,366 C 72,376 59,381 59,381 C 62,372 63,368 63,368 C 75,365 81,363 81,363 L 66,359 C 68,351 69,347 69,347 Z" fill="#E1E2E5" id="id-41740"></path><path d=" M 260,81 C 267,86 270,89 270,89 C 266,95 263,98 263,98 L 252,90 C 258,84 260,81 260,81 Z" fill="#82A6DA" id="id-41741"></path><path d=" M 261,85 C 264,87 266,88 266,88 C 264,91 263,92 263,92 L 256,90 C 259,87 261,85 261,85 Z" fill="#4476BA" id="id-41742"></path><path d=" M 367,96 C 373,103 376,106 376,106 C 384,101 387,98 387,98 L 375,87 C 369,93 367,96 367,96 Z" fill="#769EE0" id="id-41743"></path><path d=" M 375,92 C 372,95 371,96 371,96 C 375,101 377,103 377,103 L 383,99 C 378,94 375,92 375,92 Z" fill="#4170B2" id="id-41744"></path><path d=" M 376,97 C 375,249 374,325 374,325 C 379,328 381,329 381,329 L 380,99 C 377,98 376,97 376,97 Z" fill="#769EE0" id="id-41745"></path><path d=" M 259,91 C 258,213 258,274 258,274 L 264,277 L 264,92 C 260,91 259,91 259,91 Z" fill="#769EE0" id="id-41746"></path></g><defs><linearGradient x1="61%" y1="47%" x2="39%" y2="44%" id="id-64127"><stop stop-color="#FFFFFF" offset="0%"></stop><stop stop-color="#DCD6C6" offset="100%"></stop></linearGradient></defs><g transform=" translate(508,325)" id="id-64128"><g transform=" translate(1,0)" id="id-64129"><path d=" M 234,191 C 234,242 237,256 209,294 C 208,282 207,249 210,241 C 212,234 215,227 219,218 L 222,266 L 229,182 C 229,186 231,189 234,191 Z" fill="#CFCECC" id="id-64130"></path><path d=" M 160,1 C 161,0 244,-8 245,127 C 268,211 231,228 229,264 C 225,231 257,204 244,147 C 244,145 242,174 232,199 C 226,232 226,240 226,247 L 226,247 C 226,249 225,252 225,254 C 245,316 250,300 268,346 C 278,377 286,383 290,419 C 286,444 280,461 276,461 C 270,458 266,447 266,443 C 269,446 269,448 270,448 C 276,444 282,438 283,433 C 290,369 244,321 225,266 C 233,318 249,320 263,345 C 274,365 281,389 278,409 C 281,367 246,340 231,341 C 223,318 221,274 222,257 C 224,186 241,156 209,100 C 231,163 211,179 221,272 C 205,218 230,156 204,89 C 204,89 172,50 159,45 C 159,45 158,39 157,33 L 157,32 C 156,25 155,17 154,18 C 154,18 154,23 154,28 L 154,30 C 154,30 154,31 154,31 L 154,32 C 154,38 154,45 153,45 C 143,52 124,56 114,76 C 98,106 84,202 70,213 C 70,213 70,214 70,216 L 70,217 C 70,231 69,275 53,308 C 28,359 -13,383 12,428 C -11,400 4,361 34,316 C 41,305 59,283 60,266 C 60,260 60,256 60,251 L 60,250 C 60,240 59,230 56,205 C 56,202 56,199 55,194 L 55,194 L 55,195 C 56,210 57,230 58,255 L 58,256 C 54,213 51,190 50,187 C 48,227 53,249 59,260 C 52,254 44,241 44,221 C 44,145 52,147 60,105 C 64,41 85,5 146,1 C 148,1 149,2 149,2 L 150,3 C 150,3 150,3 150,3 L 150,3 L 150,3 L 150,3 C 153,5 155,8 160,1 Z M 106,85 C 96,101 65,124 70,207 C 77,194 96,107 106,85 Z M 61,126 C 56,136 54,144 53,153 C 52,163 54,180 55,194 L 55,194 L 55,194 C 55,187 55,180 55,175 L 55,174 C 55,172 55,170 55,168 C 55,154 58,140 61,126 Z" fill="url(#id-64127)"></path></g><g transform=" translate(0,36)" id="id-64131"><path d=" M 103,46 C 64,106 71,167 72,201 C 73,251 -22,290 6,367 C -10,270 87,269 74,178 C 74,149 94,37 151,5 C 151,-13 115,28 103,46 Z" fill="#FEFEFC" id="id-64132"></path><path d=" M 68,228 C 61,271 23,277 3,346 C 6,329 16,300 36,273 C 51,257 58,246 68,228 Z" fill="#B6AE97" id="id-64133"></path><path d=" M 230,129 C 234,115 239,105 243,101 C 245,105 246,110 244,117 C 236,123 231,132 229,146 C 229,137 230,132 230,129 Z" fill="#CFCECC" id="id-64130"></path><path d=" M 235,311 C 233,309 232,305 232,305 C 235,300 282,323 279,373 C 278,348 255,319 235,311 Z" fill="#CFCECC" id="id-64135"></path></g></g><defs></defs><path d=" M 1202,1685 C 1201,1683 1198,1681 1197,1679 C 1196,1678 1196,1676 1196,1675 C 1196,1674 1194,1672 1193,1671 C 1193,1670 1192,1669 1192,1668 C 1192,1667 1195,1666 1196,1665 C 1198,1663 1200,1661 1202,1658 C 1207,1649 1216,1643 1226,1641 C 1240,1638 1254,1644 1263,1655 C 1264,1657 1266,1660 1265,1663 C 1265,1664 1263,1665 1263,1666 C 1263,1667 1265,1669 1266,1670 C 1271,1673 1269,1673 1270,1678 C 1270,1682 1274,1681 1274,1685 L 1274,1685 L 1274,1686 C 1274,1686 1274,1686 1274,1686 C 1273,1688 1271,1688 1270,1689 C 1268,1691 1267,1692 1266,1694 C 1263,1698 1261,1700 1258,1704 C 1242,1719 1214,1716 1202,1696 C 1201,1695 1199,1691 1200,1689 C 1201,1688 1202,1688 1202,1685 L 1202,1685 Z M 1268,1685 C 1267,1682 1265,1682 1264,1679 C 1264,1678 1264,1677 1264,1676 C 1264,1675 1264,1674 1264,1674 C 1264,1673 1263,1672 1262,1672 C 1260,1670 1256,1669 1258,1665 C 1259,1662 1261,1662 1258,1658 C 1246,1643 1223,1641 1210,1656 C 1209,1658 1208,1659 1207,1661 C 1205,1663 1202,1665 1200,1667 C 1197,1669 1197,1669 1200,1671 C 1203,1675 1201,1676 1203,1679 C 1204,1681 1207,1682 1208,1685 L 1208,1685 L 1208,1685 C 1207,1690 1203,1688 1207,1694 C 1216,1706 1232,1711 1246,1705 C 1249,1704 1252,1702 1255,1699 C 1257,1697 1259,1694 1261,1691 C 1263,1689 1267,1687 1268,1685 L 1268,1685 Z M 1254,1685 C 1254,1682 1252,1682 1252,1680 C 1251,1677 1251,1673 1255,1674 C 1258,1675 1256,1678 1258,1680 C 1259,1682 1260,1682 1260,1685 L 1261,1686 L 1260,1686 C 1259,1688 1257,1689 1255,1690 C 1248,1694 1246,1699 1237,1700 C 1231,1701 1225,1700 1221,1697 C 1219,1696 1216,1694 1215,1692 C 1213,1689 1216,1688 1216,1685 C 1215,1683 1212,1682 1211,1680 C 1208,1677 1210,1673 1214,1674 L 1214,1674 L 1215,1675 C 1216,1678 1215,1679 1217,1681 C 1219,1682 1222,1683 1222,1686 C 1222,1689 1220,1690 1224,1692 C 1230,1696 1238,1695 1244,1691 C 1246,1690 1253,1687 1254,1685 L 1254,1685 Z M 1244,1674 C 1242,1675 1239,1674 1237,1673 C 1236,1672 1233,1670 1232,1669 C 1231,1669 1231,1668 1231,1667 C 1231,1666 1233,1665 1234,1664 C 1235,1662 1237,1661 1238,1659 C 1242,1652 1249,1658 1247,1663 C 1246,1665 1243,1666 1243,1668 C 1243,1670 1246,1671 1244,1674 L 1244,1674 L 1244,1674 L 1244,1674 Z M 1222,1656 C 1224,1655 1227,1656 1228,1659 C 1229,1660 1229,1661 1229,1663 C 1228,1665 1223,1666 1225,1669 C 1225,1670 1226,1670 1226,1671 C 1227,1674 1226,1675 1223,1675 C 1222,1675 1219,1673 1218,1672 C 1216,1671 1212,1669 1214,1666 C 1215,1664 1217,1664 1218,1662 C 1219,1660 1220,1658 1222,1656 L 1222,1656 Z" fill="#343D53" opacity="0.297" id="id-77051"></path></svg>