<?xml version="1.0" encoding="UTF-8"?><svg width="1320px" height="1760px" viewBox="0 0 1320 1760" version="1.1" xmlns="http://www.w3.org/2000/svg" xmlns:xlink="http://www.w3.org/1999/xlink"><defs></defs><g stroke="none" stroke-width="1" fill="none" id="id-31571" fill-rule="evenodd"><g id="id-31572"><rect fill="#181818" width="1320" height="1760" x="0" y="0" id="id-31573"></rect><g transform=" translate(35,425)" fill="#040404" id="id-31574"><path d=" M 60,72 C 207,72 280,72 280,72 C 280,146 280,183 280,183 C 228,214 201,229 201,229 L 201,148 L 139,148 L 139,497 L 201,497 C 201,461 201,443 201,443 C 254,412 280,397 280,397 C 280,431 280,448 280,448 C 217,531 186,572 186,572 L 60,573 C 60,564 60,560 60,560 C 34,574 22,581 22,581 L 59,535 C 59,307 59,193 59,193 C 77,168 86,155 86,155 C 75,152 70,151 70,151 C 91,121 101,107 101,107 L 59,141 C 60,95 60,72 60,72 Z" id="id-31575"></path><path d=" M 0,547 C 28,493 43,466 43,466 L 44,516 C 15,537 0,547 0,547 Z" id="id-31576"></path><path d=" M 280,573 C 222,573 193,573 193,573 L 281,488 C 280,545 280,573 280,573 Z" id="id-31577"></path><path d=" M 269,620 L 331,563 C 331,512 331,486 331,486 L 412,439 L 412,497 L 472,497 C 472,444 472,418 472,418 C 505,376 522,355 522,355 C 490,383 473,398 473,398 C 473,353 473,330 473,330 L 331,411 L 331,72 C 385,72 412,72 412,72 C 411,206 411,273 411,273 L 474,237 L 474,72 L 553,72 C 553,142 553,177 553,177 C 491,239 460,271 460,271 L 552,198 L 552,572 L 354,572 C 298,604 269,620 269,620 Z" id="id-31578"></path><path d=" M 786,72 L 724,141 C 724,141 754,118 813,73 L 813,73 L 832,73 L 832,288 L 774,322 L 774,322 L 830,322 L 752,379 L 752,335 L 691,370 L 691,370 L 691,429 L 611,490 L 611,252 L 569,272 C 569,272 583,255 612,222 L 612,222 L 612,73 L 786,72 Z M 792,108 C 762,134 747,147 747,147 C 710,148 691,148 691,148 C 691,229 691,273 691,281 L 691,281 C 691,281 691,282 691,282 L 691,282 L 691,282 L 752,247 L 752,168 C 778,130 792,110 792,109 L 792,108 L 792,108 Z" id="id-31579"></path><path d=" M 802,63 C 815,41 822,29 822,29 C 857,10 874,0 874,0 L 849,39 C 818,55 802,63 802,63 Z" id="id-31580"></path><path d=" M 847,157 L 890,107 L 890,72 C 910,72 920,72 920,72 C 932,58 939,51 939,51 C 941,51 943,51 943,51 L 930,72 C 945,72 952,72 952,72 C 963,84 969,90 969,90 C 975,81 978,77 978,77 C 985,88 988,93 988,93 C 994,79 996,72 996,72 C 1046,72 1071,72 1071,72 C 1022,122 998,147 998,147 C 979,148 970,148 970,148 C 970,166 970,175 970,175 C 917,226 890,252 890,252 L 890,129 C 861,148 847,157 847,157 Z" id="id-31581"></path></g><path d=" M 1245,346 L 182,1760 L 0,1760 L 0,972 C 135,1337 750,916 1245,346 L 1245,346 Z M 361,1554 L 275,1760 L 204,1760 L 204,1760 L 361,1554 Z M 1320,298 L 1320,356 L 1320,356 L 1191,470 L 1320,298 Z M 1223,304 C 1223,304 1198,330 1148,382 L 1148,382 L 1180,318 C 1180,318 1194,314 1223,304 Z" fill="#040404" id="id-31579"></path><path d=" M 1214,464 C 1194,476 1184,482 1184,482 C 825,961 645,1200 645,1200 L 656,1208 C 1028,712 1214,464 1214,464 Z M 627,1225 C 617,1237 612,1243 612,1243 C 619,1248 623,1251 623,1251 L 637,1233 C 630,1228 627,1225 627,1225 Z M 612,1266 C 606,1273 604,1277 604,1277 C 597,1271 593,1269 593,1269 L 601,1258 C 608,1263 612,1266 612,1266 Z" fill="#040404" id="id-31579"></path><path d=" M 1320,560 C 1320,575 1320,583 1320,583 C 1163,790 1085,893 1085,893 L 1074,886 L 1320,560 Z M 1058,907 C 1066,912 1069,915 1069,915 C 1050,941 1040,954 1040,954 L 1029,945 C 1049,920 1058,907 1058,907 Z" fill="#040404" id="id-31579"></path><path d=" M 1320,1001 C 1186,1178 1119,1267 1119,1267 L 1130,1275 L 1320,1022 C 1320,1008 1320,1001 1320,1001 Z M 1101,1292 C 1091,1304 1086,1310 1086,1310 C 1093,1315 1097,1318 1097,1318 L 1111,1300 C 1104,1294 1101,1292 1101,1292 Z M 1075,1325 C 1070,1332 1068,1335 1068,1335 C 1075,1341 1078,1344 1078,1344 L 1086,1333 C 1079,1328 1075,1325 1075,1325 Z" fill="#040404" id="id-31579"></path><path d=" M 761,1701 C 768,1707 771,1709 771,1709 C 790,1683 800,1670 800,1670 L 789,1664 C 770,1689 761,1701 761,1701 Z M 805,1642 C 813,1647 816,1649 816,1649 C 1053,1335 1172,1177 1172,1177 L 1161,1170 C 924,1485 805,1642 805,1642 Z" fill="#040404" id="id-31579"></path><path d=" M 890,1230 C 871,1256 861,1268 861,1268 C 868,1274 872,1277 872,1277 L 901,1238 C 894,1233 890,1230 890,1230 Z M 906,1209 C 913,1214 917,1217 917,1217 C 1149,908 1265,754 1265,754 L 1255,746 C 1023,1055 906,1209 906,1209 Z" fill="#040404" id="id-31579"></path></g></g><defs><linearGradient x1="50%" y1="6%" x2="50%" y2="100%" id="id-110216"><stop stop-color="#AC705D" offset="0%"></stop><stop stop-color="#FFDDBC" offset="8%"></stop><stop stop-color="#E9AF8E" offset="20%"></stop><stop stop-color="#E7AD8D" offset="34%"></stop><stop stop-color="#D4856F" offset="71%"></stop><stop stop-color="#C37F6D" offset="100%"></stop></linearGradient><linearGradient x1="50%" y1="-10%" x2="50%" y2="84%" id="id-110217"><stop stop-color="#E0A582" offset="0%"></stop><stop stop-color="#F6C49E" offset="49%"></stop><stop stop-color="#D09479" offset="100%"></stop></linearGradient><linearGradient x1="57%" y1="50%" x2="47%" y2="56%" id="id-110218"><stop stop-color="#E2AD9F" offset="0%"></stop><stop stop-color="#B46D61" offset="100%"></stop></linearGradient><linearGradient x1="45%" y1="35%" x2="55%" y2="47%" id="id-110219"><stop stop-color="#E9AC94" offset="0%"></stop><stop stop-color="#C37F6D" offset="100%"></stop></linearGradient><linearGradient x1="54%" y1="31%" x2="47%" y2="81%" id="id-110220"><stop stop-color="#E7AE8D" offset="0%"></stop><stop stop-color="#D8997B" offset="20%"></stop><stop stop-color="#DFA083" offset="71%"></stop><stop stop-color="#C5816D" offset="81%"></stop><stop stop-color="#BC7665" offset="100%"></stop></linearGradient><linearGradient x1="43%" y1="38%" x2="54%" y2="44%" id="id-110221"><stop stop-color="#E0A384" offset="0%"></stop><stop stop-color="#DDA081" offset="100%"></stop></linearGradient><linearGradient x1="46%" y1="26%" x2="59%" y2="75%" id="id-110222"><stop stop-color="#FFDBB9" offset="0%"></stop><stop stop-color="#D7917A" offset="100%"></stop></linearGradient><linearGradient x1="50%" y1="41%" x2="49%" y2="66%" id="id-110223"><stop stop-color="#6A4862" offset="0%"></stop><stop stop-color="#A76F5B" offset="27%"></stop><stop stop-color="#E9B090" offset="100%"></stop></linearGradient><linearGradient x1="63%" y1="4%" x2="25%" y2="77%" id="id-110224"><stop stop-color="#FFF1DE" offset="0%"></stop><stop stop-color="#FFEED9" offset="56%"></stop><stop stop-color="#E3AA88" offset="100%"></stop></linearGradient><linearGradient x1="50%" y1="23%" x2="41%" y2="77%" id="id-110225"><stop stop-color="#73332E" offset="0%"></stop><stop stop-color="#B77E68" offset="100%"></stop></linearGradient><linearGradient x1="47%" y1="22%" x2="55%" y2="89%" id="id-110226"><stop stop-color="#A06555" offset="0%"></stop><stop stop-color="#FAD5B9" offset="100%"></stop></linearGradient><linearGradient x1="86%" y1="87%" x2="12%" y2="66%" id="id-110227"><stop stop-color="#DEA186" offset="0%"></stop><stop stop-color="#CB8C76" offset="100%"></stop></linearGradient><linearGradient x1="71%" y1="11%" x2="50%" y2="100%" id="id-110228"><stop stop-color="#BE7D66" offset="0%" stop-opacity="0"></stop><stop stop-color="#F1BD9B" offset="100%"></stop></linearGradient><linearGradient x1="66%" y1="46%" x2="56%" y2="43%" id="id-110229"><stop stop-color="#CD8D78" offset="0%"></stop><stop stop-color="#BB786D" offset="100%"></stop></linearGradient><linearGradient x1="100%" y1="41%" x2="50%" y2="63%" id="id-110230"><stop stop-color="#6A2B27" offset="0%"></stop><stop stop-color="#743C3A" offset="100%"></stop></linearGradient><linearGradient x1="69%" y1="20%" x2="50%" y2="99%" id="id-110231"><stop stop-color="#CF8F7A" offset="0%"></stop><stop stop-color="#DD9E87" offset="100%"></stop></linearGradient><linearGradient x1="36%" y1="20%" x2="57%" y2="81%" id="id-110232"><stop stop-color="#F1BA97" offset="0%"></stop><stop stop-color="#EFB795" offset="100%"></stop></linearGradient><linearGradient x1="26%" y1="83%" x2="92%" y2="50%" id="id-110233"><stop stop-color="#FFD3AD" offset="0%"></stop><stop stop-color="#FFD3AF" offset="100%" stop-opacity="0"></stop></linearGradient><linearGradient x1="17%" y1="56%" x2="85%" y2="45%" id="id-110234"><stop stop-color="#FFEBD1" offset="0%" stop-opacity="0"></stop><stop stop-color="#FFE9D0" offset="52%"></stop><stop stop-color="#FCCEAD" offset="100%"></stop></linearGradient><linearGradient x1="17%" y1="24%" x2="74%" y2="87%" id="id-110235"><stop stop-color="#FFEDD8" offset="0%"></stop><stop stop-color="#DCA181" offset="100%"></stop></linearGradient><linearGradient x1="26%" y1="42%" x2="80%" y2="75%" id="id-110236"><stop stop-color="#FFF1DD" offset="0%"></stop><stop stop-color="#FFD4B1" offset="100%" stop-opacity="0"></stop></linearGradient><linearGradient x1="29%" y1="56%" x2="77%" y2="50%" id="id-110237"><stop stop-color="#FFEBD4" offset="0%"></stop><stop stop-color="#FEDAB7" offset="100%"></stop></linearGradient><linearGradient x1="74%" y1="24%" x2="34%" y2="74%" id="id-110238"><stop stop-color="#BA8469" offset="0%"></stop><stop stop-color="#E9AF8F" offset="0%"></stop><stop stop-color="#FFCFA8" offset="100%"></stop></linearGradient><linearGradient x1="66%" y1="100%" x2="40%" y2="0%" id="id-110239"><stop stop-color="#FAC5A3" offset="0%"></stop><stop stop-color="#FFF5E6" offset="46%"></stop><stop stop-color="#FAC8A2" offset="100%"></stop></linearGradient><linearGradient x1="52%" y1="13%" x2="59%" y2="75%" id="id-110240"><stop stop-color="#D68D79" offset="0%"></stop><stop stop-color="#EEAE91" offset="100%"></stop></linearGradient><linearGradient x1="28%" y1="76%" x2="73%" y2="20%" id="id-110241"><stop stop-color="#F0B294" offset="0%"></stop><stop stop-color="#D28271" offset="67%"></stop><stop stop-color="#DF9880" offset="100%"></stop></linearGradient><linearGradient x1="50%" y1="0%" x2="50%" y2="100%" id="id-110242"><stop stop-color="#DB957F" offset="0%"></stop><stop stop-color="#9A4F4B" offset="100%"></stop></linearGradient><linearGradient x1="66%" y1="59%" x2="24%" y2="66%" id="id-110243"><stop stop-color="#DEA07F" offset="0%"></stop><stop stop-color="#FCC8A5" offset="100%"></stop></linearGradient><linearGradient x1="41%" y1="11%" x2="64%" y2="63%" id="id-110244"><stop stop-color="#FFE6D6" offset="0%"></stop><stop stop-color="#DA957E" offset="100%"></stop></linearGradient><linearGradient x1="19%" y1="58%" x2="66%" y2="43%" id="id-110245"><stop stop-color="#FFEBD4" offset="0%"></stop><stop stop-color="#FFD1AA" offset="100%"></stop></linearGradient><linearGradient x1="73%" y1="50%" x2="30%" y2="53%" id="id-110246"><stop stop-color="#FFD1AB" offset="0%"></stop><stop stop-color="#FFF6E4" offset="100%"></stop></linearGradient><linearGradient x1="31%" y1="0%" x2="50%" y2="100%" id="id-110247"><stop stop-color="#FFF1E3" offset="0%"></stop><stop stop-color="#FFEADA" offset="100%"></stop></linearGradient><linearGradient x1="29%" y1="43%" x2="65%" y2="100%" id="id-110248"><stop stop-color="#FFE9D4" offset="0%"></stop><stop stop-color="#FECFB1" offset="100%"></stop></linearGradient><linearGradient x1="13%" y1="78%" x2="84%" y2="50%" id="id-110249"><stop stop-color="#F4BA9A" offset="0%"></stop><stop stop-color="#E2A086" offset="100%"></stop></linearGradient><linearGradient x1="50%" y1="0%" x2="36%" y2="100%" id="id-110250"><stop stop-color="#FFEBD4" offset="0%"></stop><stop stop-color="#FFDDC6" offset="100%"></stop></linearGradient><linearGradient x1="50%" y1="28%" x2="64%" y2="55%" id="id-110251"><stop stop-color="#FFE7CD" offset="0%"></stop><stop stop-color="#FFDDC0" offset="100%"></stop></linearGradient><linearGradient x1="40%" y1="55%" x2="62%" y2="71%" id="id-110252"><stop stop-color="#DCA17F" offset="0%"></stop><stop stop-color="#FAC5A0" offset="100%"></stop></linearGradient><linearGradient x1="9%" y1="37%" x2="88%" y2="55%" id="id-110253"><stop stop-color="#E3A889" offset="0%"></stop><stop stop-color="#B36F5F" offset="100%"></stop></linearGradient><linearGradient x1="62%" y1="19%" x2="50%" y2="100%" id="id-110254"><stop stop-color="#E0A686" offset="0%"></stop><stop stop-color="#BF7C68" offset="100%"></stop></linearGradient><linearGradient x1="45%" y1="18%" x2="51%" y2="67%" id="id-110255"><stop stop-color="#FFE5D3" offset="0%"></stop><stop stop-color="#F5C3A0" offset="100%"></stop></linearGradient><linearGradient x1="50%" y1="0%" x2="50%" y2="100%" id="id-110256"><stop stop-color="#F9CCB7" offset="0%"></stop><stop stop-color="#E7AD8A" offset="100%"></stop></linearGradient><linearGradient x1="45%" y1="50%" x2="58%" y2="50%" id="id-110257"><stop stop-color="#DFA288" offset="0%"></stop><stop stop-color="#FACBB3" offset="100%"></stop></linearGradient><linearGradient x1="33%" y1="74%" x2="77%" y2="42%" id="id-110258"><stop stop-color="#CE937B" offset="0%"></stop><stop stop-color="#EAB89D" offset="100%"></stop></linearGradient><linearGradient x1="63%" y1="59%" x2="38%" y2="59%" id="id-110259"><stop stop-color="#D89A80" offset="0%"></stop><stop stop-color="#ECBA9E" offset="100%"></stop></linearGradient><linearGradient x1="50%" y1="0%" x2="50%" y2="100%" id="id-110260"><stop stop-color="#D08C74" offset="0%"></stop><stop stop-color="#DF9A83" offset="100%"></stop></linearGradient><linearGradient x1="47%" y1="47%" x2="53%" y2="50%" id="id-110261"><stop stop-color="#FDE1CD" offset="0%"></stop><stop stop-color="#D68F79" offset="100%"></stop></linearGradient><linearGradient x1="50%" y1="0%" x2="50%" y2="100%" id="id-110262"><stop stop-color="#E29A83" offset="0%"></stop><stop stop-color="#DD947E" offset="100%"></stop></linearGradient><linearGradient x1="50%" y1="0%" x2="53%" y2="50%" id="id-110263"><stop stop-color="#DD9785" offset="0%"></stop><stop stop-color="#F3D9C6" offset="100%"></stop></linearGradient><linearGradient x1="0%" y1="55%" x2="99%" y2="55%" id="id-110264"><stop stop-color="#DFA59A" offset="0%"></stop><stop stop-color="#D3938D" offset="100%"></stop></linearGradient><linearGradient x1="50%" y1="0%" x2="50%" y2="100%" id="id-110265"><stop stop-color="#F0CAB1" offset="0%"></stop><stop stop-color="#DC907E" offset="100%"></stop></linearGradient><linearGradient x1="49%" y1="20%" x2="52%" y2="96%" id="id-110266"><stop stop-color="#DD9285" offset="0%"></stop><stop stop-color="#D88D79" offset="100%"></stop></linearGradient><linearGradient x1="50%" y1="0%" x2="50%" y2="100%" id="id-110267"><stop stop-color="#86363E" offset="0%"></stop><stop stop-color="#B46A5D" offset="100%"></stop></linearGradient><linearGradient x1="33%" y1="47%" x2="59%" y2="56%" id="id-110268"><stop stop-color="#F6BD9D" offset="0%"></stop><stop stop-color="#D48673" offset="100%"></stop></linearGradient></defs><g transform=" translate(304,473)" id="id-110269"><polygon points="174 662 139 824 137 906 146 1082 171 1154 176 1211 174 1230 175 1284 287 1284 284 1265 308 1195 306 1124 345 952 343 912 353 879 362 881 371 877 383 904 391 970 434 1079 457 1202 475 1252 475 1284 596 1284 600 1225 591 1146 609 1103 612 997 596 842 545 671 539 640 528 606 531 569 509 498 522 403 539 360 539 348 563 464 576 498 585 574 637 704 646 760 646 778 626 822 624 853 631 879 629 901 632 920 637 931 647 931 657 920 655 877 659 867 670 874 672 899 676 903 667 923 644 934 643 945 666 939 664 948 643 960 640 982 657 971 674 969 690 945 701 933 704 926 707 923 713 892 718 871 704 832 696 786 703 768 693 725 693 521 652 425 629 282 626 203 612 175 567 156 548 141 530 139 479 114 422 73 416 42 415 1 285 0 284 73 279 83 242 114 196 137 171 139 155 156 108 175 91 228 91 287 68 431 30 516 23 602 28 725 16 764 21 782 0 874 18 932 49 968 59 970 83 982 83 965 78 960 57 949 55 941 78 948 78 936 66 929 53 923 45 906 51 875 61 866 66 877 63 922 75 927 86 925 93 899 90 877 96 856 96 824 75 778 77 738 108 637 139 562 142 495 159 458 180 358 199 403 203 461 211 504 188 564 191 608" fill="url(#id-110216)" id="id-110270"></polygon><polygon points="91 287 68 431 30 516 23 602 72 688 117 614 98 452 109 469 123 336 102 372 109 294 88 309 109 285" fill="url(#id-110217)" id="id-110270"></polygon><polygon points="383 906 391 972 434 1081 457 1204 475 1254 475 1287 596 1287 600 1226 591 1148 609 1105 612 999 602 904 584 908 584 846 535 683 456 705 382 878" fill="url(#id-110218)" id="id-110270"></polygon><polygon points="137 907 146 1083 171 1156 176 1212 174 1232 175 1286 175 1287 287 1287 284 1266 308 1197 306 1126 345 954 343 923 293 814 263 724 247 711" fill="url(#id-110219)" id="id-110270"></polygon><polygon points="545 673 539 641 528 608 531 571 509 500 522 405 539 361 539 350 563 465 576 500 601 540 660 491 688 529 652 427 629 283 626 205 612 177 568 157 548 142 530 141 479 116 422 75 416 44 415 3 360 3 360 715 462 724" fill="url(#id-110220)" id="id-110270"></polygon><polygon points="83 984 59 972 49 970 21 932 19 903 7 879 0 874 11 824 38 786 38 814 56 786 78 800 91 822 83 879 69 882 63 855 51 877 45 908 47 930 37 930 50 938 53 954 49 960 56 956 83 973" fill="#E4AB86" id="id-110275"></polygon><polygon points="66 855 69 882 63 855 51 877 45 908 42 870 58 825" fill="url(#id-110221)" id="id-110275"></polygon><polygon points="83 879 69 882 70 868" fill="#FFD6BA" id="id-110275"></polygon><polygon points="481 376 513 349 558 291 522 368" fill="#BD9394" id="id-110278"></polygon><polygon points="313 697 260 560 246 448 259 424 355 408 361 366 317 404 285 409 267 378 313 343 394 351 431 378 420 404 368 399 371 404 449 421 466 441 449 510 466 547 406 697 358 717" fill="url(#id-110222)" id="id-110279"></polygon><polygon points="410 90 430 82 423 76 416 45 416 7 286 9 286 48 283 76 278 86 244 114 195 139 366 139 390 70 410 26" fill="url(#id-110223)" id="id-110280"></polygon><polygon points="182 180 133 231 97 289 97 231 113 182 165 159" fill="url(#id-110224)" id="id-110281"></polygon><polygon points="346 107 384 55 409 31 414 23 299 31" fill="url(#id-110225)" id="id-110282"></polygon><polygon points="287 93 295 32 323 129" fill="url(#id-110226)" id="id-110283"></polygon><polygon points="336 139 314 151 270 146 224 139" fill="#FEF6E3" id="id-110284"></polygon><polygon points="410 84 409 136 461 129" fill="url(#id-110227)" id="id-110285"></polygon><polygon points="173 246 167 286 191 351 263 386 328 330 359 330 359 152 348 139 336 139 309 152" fill="url(#id-110228)" id="id-110286"></polygon><polygon points="464 159 516 190 500 159" fill="url(#id-110229)" id="id-110287"></polygon><polygon points="302 36 346 72 382 62 409 37 416 28 416 13" fill="url(#id-110230)" id="id-110288"></polygon><polygon points="263 151 191 202 219 151" fill="#EFB795" id="id-110289"></polygon><polygon points="154 206 170 170 122 188" fill="#FFFCF1" id="id-110290"></polygon><polygon points="358 285 344 299 323 318 305 354 358 345 354 305" fill="url(#id-110231)" id="id-110291"></polygon><polygon points="260 361 265 387 203 371 191 347" fill="#C4846D" id="id-110292"></polygon><polygon points="198 362 181 359 167 284" fill="#8D4146" id="id-110293"></polygon><polygon points="477 341 477 335 488 326 496 325 509 338 496 348 485 354" fill="#A86056" id="id-110294"></polygon><polygon points="314 151 342 220 317 293 237 351 209 318 172 251 185 205 270 146" fill="url(#id-110232)" id="id-110295"></polygon><polygon points="314 151 330 238 209 318 172 251 185 205 270 146" fill="url(#id-110233)" id="id-110295"></polygon><polygon points="314 151 350 205 220 227 185 205 270 146" fill="url(#id-110234)" opacity="0.369" id="id-110295"></polygon><polygon points="211 335 223 322 242 327 244 332 235 353 213 349" fill="#C48172" id="id-110298"></polygon><polygon points="224 339 226 342 226 345 222 349 235 350 242 333 230 338 227 335" fill="#D4ACC2" id="id-110299"></polygon><polygon points="488 343 491 347 486 351 479 338 489 327 495 327 493 336" fill="#C7878D" id="id-110300"></polygon><polygon points="485 339 488 343 493 337" fill="#EDB596" id="id-110301"></polygon><polygon points="359 162 359 291 406 325 455 347 529 267 463 182 415 166" fill="url(#id-110235)" id="id-110302"></polygon><polygon points="359 178 359 281 391 302 391 249 489 270 461 189 415 166" fill="url(#id-110236)" id="id-110302"></polygon><polygon points="359 178 359 219 472 220 461 189 415 166 371 163" fill="url(#id-110237)" id="id-110302"></polygon><polygon points="358 178 372 168 440 156 413 137 378 158 411 80 396 60 358 146" fill="url(#id-110238)" id="id-110305"></polygon><polygon points="346 140 358 152 372 129 400 48 369 86 364 130" fill="#B66B53" id="id-110306"></polygon><polygon points="591 281 601 226 559 159 514 159 523 138 499 156 571 263" fill="url(#id-110239)" id="id-110307"></polygon><polygon points="609 298 626 332 629 285 627 227 614 207 617 251" fill="#C6CBE5" id="id-110308"></polygon><polygon points="554 159 567 157 612 177 614 192 579 175 603 207 601 226" fill="#F6BF9D" id="id-110309"></polygon><polygon points="641 823 648 826 697 896 713 873 682 781" fill="url(#id-110240)" id="id-110310"></polygon><polygon points="625 840 700 762 688 738 679 784 648 776 626 822" fill="url(#id-110241)" id="id-110310"></polygon><polygon points="648 862 648 845 661 825 661 870 654 878 657 922 652 929 637 929 632 914 632 893 632 877 644 888" fill="#B06559" id="id-110312"></polygon><polygon points="554 375 577 333 607 451 594 508 568 462" fill="#F9C3AD" id="id-110313"></polygon><polygon points="623 326 643 425 633 431 693 523 652 427 636 326 625 315" fill="#BDBBDB" id="id-110314"></polygon><polygon points="628 274 638 339 623 314" fill="#B3838B" id="id-110315"></polygon><polygon points="693 523 695 567 685 525 618 416 633 431" fill="#B46B5B" id="id-110316"></polygon><polygon points="640 463 599 539 601 571 634 655 646 703 650 754 658 640 660 491" fill="#F7BF9B" id="id-110317"></polygon><polygon points="610 531 648 646 652 546 638 479" fill="#FFDDC8" id="id-110317"></polygon><polygon points="693 748 677 730 677 700 660 491 685 525 691 552 684 727" fill="url(#id-110242)" id="id-110319"></polygon><polygon points="691 746 703 768 693 727 695 567 691 551 683 727" fill="#BCCBEA" id="id-110320"></polygon><polygon points="260 559 310 683 355 716 263 713 238 685 195 582" fill="url(#id-110243)" id="id-110321"></polygon><polygon points="637 931 636 919 639 914 653 914 653 922 651 929 648 931 644 933" fill="#D58F78" id="id-110322"></polygon><polygon points="637 861 637 882 641 890 653 886 649 861" fill="#E19C83" id="id-110323"></polygon><polygon points="691 871 693 912 688 936 669 956 671 965 696 924 696 909 705 877" fill="#934D3C" id="id-110324"></polygon><polygon points="703 768 684 788 693 837 712 873 702 908 701 933 707 925 718 873 704 834 697 788" fill="#BD7462" id="id-110325"></polygon><polygon points="667 939 643 946 644 934 657 928 667 922 676 903 672 899 670 874 660 870 660 854 671 867 680 873 680 902 677 920" fill="#B3665B" id="id-110326"></polygon><polygon points="361 510 359 634 426 561 420 535" fill="url(#id-110244)" opacity="0.626" id="id-110327"></polygon><polygon points="319 403 289 399 268 380 313 343 361 348 362 372" fill="url(#id-110245)" id="id-110328"></polygon><polygon points="171 141 168 151 180 151 204 139 196 138" fill="url(#id-110246)" id="id-110329"></polygon><polygon points="359 308 362 360 382 334" fill="#FFE9D9" opacity="0.625" id="id-110330"></polygon><polygon points="360 546 360 584 387 551 374 540" fill="url(#id-110247)" opacity="0.626" id="id-110331"></polygon><polygon points="346 542 360 547 373 540 360 534" fill="#B36A64" id="id-110332"></polygon><polygon points="325 545 277 503 259 561 308 579" fill="url(#id-110248)" opacity="0.758" id="id-110333"></polygon><polygon points="389 499 460 467 449 510 404 520" fill="url(#id-110249)" id="id-110334"></polygon><polygon points="364 491 361 403 420 428" fill="url(#id-110250)" opacity="0.758" id="id-110335"></polygon><polygon points="262 446 333 446 323 469 279 492" fill="url(#id-110251)" opacity="0.758" id="id-110336"></polygon><polygon points="259 425 279 496 259 561 236 528 213 443 227 425 243 447" fill="url(#id-110252)" id="id-110337"></polygon><polygon points="412 343 444 374 466 383 499 351 447 354 416 339" fill="url(#id-110253)" id="id-110338"></polygon><polygon points="164 252 163 278 128 284" fill="#C88574" id="id-110339"></polygon><polygon points="58 478 88 441 88 416 69 430 66 456" fill="url(#id-110254)" id="id-110340"></polygon><polygon points="76 684 69 634 61 517 89 474 111 569" fill="url(#id-110255)" id="id-110341"></polygon><polygon points="53 489 47 539 69 635 76 684 53 760 40 781 16 766 28 727 23 604 28 544" fill="url(#id-110256)" id="id-110342"></polygon><polygon points="136 452 127 497 153 460 177 340 170 300" fill="#D89A7F" id="id-110343"></polygon><polygon points="181 359 159 460 143 497 142 514 123 532 109 514 108 490 127 497 153 460 177 340" fill="#C28071" id="id-110343"></polygon><polygon points="38 747 28 772 38 788 44 772" fill="#F4B89A" id="id-110345"></polygon><polygon points="359 379 342 413 361 444 377 417" fill="url(#id-110257)" id="id-110346"></polygon><polygon points="196 581 260 561 229 519" fill="url(#id-110258)" id="id-110347"></polygon><polygon points="74 929 66 925 69 909 78 905 86 912 83 928" fill="url(#id-110259)" id="id-110348"></polygon><polygon points="20 903 7 880 21 851 28 871" fill="#D99C7E" id="id-110349"></polygon><polygon points="218 1123 203 1040 191 913 171 1090 182 1169 230 1208 261 1237 270 1213 234 1175 212 1157 272 1191 281 1169" fill="url(#id-110260)" opacity="0.808" id="id-110350"></polygon><polygon points="182 1207 181 1155 213 1106 236 1166 230 1210" fill="#EBAC8E" id="id-110351"></polygon><polygon points="187 902 211 1137 227 1161 275 1187 299 1137 272 1009 299 918 269 791 211 836" fill="url(#id-110261)" id="id-110352"></polygon><polygon points="288 1079 311 1040 311 942 295 903 264 1019 275 1188 301 1137" fill="url(#id-110262)" id="id-110353"></polygon><polygon points="584 908 604 1008 608 1106 614 998 599 887" fill="#CEDAFA" id="id-110354"></polygon><polygon points="430 886 488 1140 535 1115 561 925 566 886 536 816 500 786" fill="url(#id-110263)" opacity="0.792" id="id-110355"></polygon><polygon points="581 921 588 1011 584 1112 576 1162 544 1046 566 886" fill="url(#id-110264)" id="id-110356"></polygon><polygon points="561 1247 518 1200 472 1112 494 931 505 931 594 1188 579 1244" fill="url(#id-110265)" id="id-110357"></polygon><polygon points="531 1221 539 1263 536 1269 516 1287 509 1287 500 1263 513 1199 488 1226 462 1170 472 1101 427 1010 398 877 469 771 518 739 536 818 500 787 433 890 477 1078 534 1212" fill="url(#id-110266)" id="id-110358"></polygon><polygon points="321 1058 284 852 258 721 266 733 371 879 362 883 354 881 343 914 345 954" fill="#D38B73" id="id-110359"></polygon><polygon points="429 1068 424 875 536 705 454 704 380 865 384 906 391 972" fill="#CD887E" opacity="0.394" id="id-110360"></polygon><polygon points="175 1262 194 1287 206 1287 225 1226 213 1249 175 1221 174 1232" fill="#EEAF93" id="id-110361"></polygon><polygon points="528 1227 554 1234 569 1169 549 1168" fill="#EBB5A6" id="id-110362"></polygon><polygon points="546 678 545 672 539 641 528 608 531 571 509 500 522 405 539 361 539 350 547 389 542 330 558 289 517 369 528 369 517 411 499 442 509 465 488 531 507 525 522 585 449 724" fill="url(#id-110267)" id="id-110270"></polygon><polygon points="402 722 490 609 522 585 449 723" fill="#D38673" id="id-110364"></polygon><polygon points="174 664 139 826 137 907 139 937 238 690 352 886 354 881 362 883 371 879 383 906 471 773 548 712 596 844 545 673 539 641 478 697 449 723 278 705 232 657 188 566 191 610" fill="url(#id-110268)" id="id-110270"></polygon><polygon points="189 616 211 620 190 586 190 609" fill="#C4846D" id="id-110366"></polygon><polygon points="139 836 225 709 167 697 139 826" fill="#E2A58B" id="id-110367"></polygon><polygon points="518 734 596 843 547 678" fill="#D0816E" id="id-110368"></polygon><polygon points="415 778 447 726 314 744 329 762" fill="#CE8B73" opacity="0.520" id="id-110270"></polygon><polygon points="411 685 463 666 456 573" fill="#A05A5C" id="id-110370"></polygon></g><defs><linearGradient x1="53%" y1="5%" x2="47%" y2="91%" id="id-110982"><stop stop-color="#C67878" offset="0%"></stop><stop stop-color="#A26C74" offset="82%"></stop><stop stop-color="#D18888" offset="100%"></stop></linearGradient><linearGradient x1="62%" y1="61%" x2="50%" y2="36%" id="id-110983"><stop stop-color="#B15E5F" offset="0%"></stop><stop stop-color="#564753" offset="100%"></stop></linearGradient><linearGradient x1="50%" y1="13%" x2="57%" y2="81%" id="id-110984"><stop stop-color="#885154" offset="0%"></stop><stop stop-color="#C27A7A" offset="52%"></stop><stop stop-color="#D8B7A1" offset="100%"></stop></linearGradient><linearGradient x1="50%" y1="0%" x2="54%" y2="88%" id="id-110985"><stop stop-color="#D19787" offset="0%"></stop><stop stop-color="#C8807E" offset="100%"></stop></linearGradient><linearGradient x1="36%" y1="75%" x2="36%" y2="18%" id="id-110986"><stop stop-color="#BB6F6B" offset="0%"></stop><stop stop-color="#863C39" offset="100%"></stop></linearGradient><linearGradient x1="50%" y1="2%" x2="48%" y2="96%" id="id-110987"><stop stop-color="#EAD0BC" offset="0%"></stop><stop stop-color="#CB9B7F" offset="11%"></stop><stop stop-color="#F2C1A5" offset="33%"></stop><stop stop-color="#FFE2D3" offset="58%"></stop><stop stop-color="#E9BB9E" offset="93%"></stop><stop stop-color="#C3957F" offset="100%"></stop></linearGradient><linearGradient x1="62%" y1="37%" x2="30%" y2="59%" id="id-110988"><stop stop-color="#E4B395" offset="0%"></stop><stop stop-color="#CB9C80" offset="100%"></stop></linearGradient><linearGradient x1="12%" y1="48%" x2="58%" y2="51%" id="id-110989"><stop stop-color="#E7BEA3" offset="0%"></stop><stop stop-color="#FEDFCC" offset="100%"></stop></linearGradient><linearGradient x1="76%" y1="54%" x2="27%" y2="47%" id="id-110990"><stop stop-color="#F2C4A7" offset="0%"></stop><stop stop-color="#F6DCC5" offset="100%"></stop></linearGradient><radialGradient cx="50%" cy="59%" r="65%" id="id-110991" fx="50%" fy="59%" gradientTransform=" translate(0.500,0.593) scale(0.791,1) rotate(-143) translate(-0.500,-0.593)"><stop stop-color="#F0D7BF" offset="0%"></stop><stop stop-color="#C38F74" offset="66%"></stop><stop stop-color="#A46254" offset="100%"></stop></radialGradient><linearGradient x1="69%" y1="50%" x2="50%" y2="60%" id="id-110992"><stop stop-color="#DBAB94" offset="0%"></stop><stop stop-color="#FFE3CE" offset="100%"></stop></linearGradient><radialGradient cx="50%" cy="50%" r="44%" id="id-110993" fx="50%" fy="50%" gradientTransform=" translate(0.500,0.500) scale(0.696,1) rotate(-57) scale(1,3) translate(-0.500,-0.500)"><stop stop-color="#B37864" offset="0%" stop-opacity="0"></stop><stop stop-color="#EFD3BC" offset="100%"></stop></radialGradient><linearGradient x1="0%" y1="58%" x2="50%" y2="58%" id="id-110994"><stop stop-color="#E4B69F" offset="0%"></stop><stop stop-color="#C88F7C" offset="100%"></stop></linearGradient><linearGradient x1="49%" y1="83%" x2="53%" y2="51%" id="id-110995"><stop stop-color="#C6938B" offset="0%"></stop><stop stop-color="#945A53" offset="100%"></stop></linearGradient><linearGradient x1="66%" y1="68%" x2="19%" y2="50%" id="id-110996"><stop stop-color="#D4A995" offset="0%"></stop><stop stop-color="#A9705C" offset="100%"></stop></linearGradient><linearGradient x1="48%" y1="37%" x2="33%" y2="25%" id="id-110997"><stop stop-color="#DDAF94" offset="0%"></stop><stop stop-color="#9D5D51" offset="100%"></stop></linearGradient><linearGradient x1="46%" y1="6%" x2="50%" y2="50%" id="id-110998"><stop stop-color="#F5D3B9" offset="0%"></stop><stop stop-color="#E7BA9D" offset="100%"></stop></linearGradient><linearGradient x1="50%" y1="33%" x2="57%" y2="50%" id="id-110999"><stop stop-color="#F9D2B7" offset="0%"></stop><stop stop-color="#D0A086" offset="100%"></stop></linearGradient><linearGradient x1="50%" y1="26%" x2="42%" y2="54%" id="id-111000"><stop stop-color="#875053" offset="0%"></stop><stop stop-color="#81534D" offset="100%" stop-opacity="0.569"></stop></linearGradient><linearGradient x1="46%" y1="100%" x2="55%" y2="55%" id="id-111001"><stop stop-color="#C4AED2" offset="0%"></stop><stop stop-color="#9276A6" offset="100%"></stop></linearGradient><linearGradient x1="54%" y1="12%" x2="47%" y2="56%" id="id-111002"><stop stop-color="#A46151" offset="0%"></stop><stop stop-color="#9370A0" offset="100%"></stop></linearGradient><linearGradient x1="50%" y1="0%" x2="50%" y2="100%" id="id-111003"><stop stop-color="#F4D2BF" offset="0%"></stop><stop stop-color="#E8B399" offset="100%"></stop></linearGradient><linearGradient x1="5%" y1="65%" x2="100%" y2="65%" id="id-111004"><stop stop-color="#FCD9C4" offset="0%"></stop><stop stop-color="#E0A88C" offset="28%"></stop><stop stop-color="#DEA786" offset="67%"></stop><stop stop-color="#FFE3D1" offset="100%"></stop></linearGradient><linearGradient x1="66%" y1="91%" x2="52%" y2="64%" id="id-111005"><stop stop-color="#D9A98F" offset="0%"></stop><stop stop-color="#DEA786" offset="100%"></stop></linearGradient><linearGradient x1="70%" y1="50%" x2="41%" y2="50%" id="id-111006"><stop stop-color="#F6D4BC" offset="0%"></stop><stop stop-color="#EBBCA0" offset="100%"></stop></linearGradient><linearGradient x1="100%" y1="50%" x2="0%" y2="50%" id="id-111007"><stop stop-color="#F1C4A8" offset="0%"></stop><stop stop-color="#FFE3D4" offset="48%"></stop><stop stop-color="#F5CAB4" offset="100%"></stop></linearGradient><linearGradient x1="38%" y1="14%" x2="50%" y2="79%" id="id-111008"><stop stop-color="#D29A7E" offset="0%"></stop><stop stop-color="#B37B6D" offset="100%"></stop></linearGradient><linearGradient x1="3%" y1="0%" x2="50%" y2="66%" id="id-111009"><stop stop-color="#D8A88D" offset="0%"></stop><stop stop-color="#F9D3BD" offset="100%"></stop></linearGradient><linearGradient x1="17%" y1="40%" x2="69%" y2="60%" id="id-111010"><stop stop-color="#40241E" offset="0%"></stop><stop stop-color="#703832" offset="100%"></stop></linearGradient><linearGradient x1="100%" y1="50%" x2="16%" y2="64%" id="id-111011"><stop stop-color="#351E1C" offset="0%"></stop><stop stop-color="#843F3B" offset="100%"></stop></linearGradient><linearGradient x1="22%" y1="62%" x2="87%" y2="62%" id="id-111012"><stop stop-color="#B07C62" offset="0%"></stop><stop stop-color="#D3A790" offset="43%"></stop><stop stop-color="#DAA88A" offset="100%"></stop></linearGradient><linearGradient x1="13%" y1="69%" x2="100%" y2="69%" id="id-111013"><stop stop-color="#D8A88B" offset="0%"></stop><stop stop-color="#F5D2BC" offset="48%"></stop><stop stop-color="#DAA88A" offset="100%"></stop></linearGradient><linearGradient x1="0%" y1="65%" x2="78%" y2="65%" id="id-111014"><stop stop-color="#E4B7A1" offset="0%"></stop><stop stop-color="#AF785E" offset="100%"></stop></linearGradient><linearGradient x1="50%" y1="42%" x2="33%" y2="50%" id="id-111015"><stop stop-color="#65463C" offset="0%"></stop><stop stop-color="#3C2B26" offset="100%"></stop></linearGradient><linearGradient x1="11%" y1="36%" x2="44%" y2="36%" id="id-111016"><stop stop-color="#A37A68" offset="0%"></stop><stop stop-color="#563A31" offset="100%"></stop></linearGradient><linearGradient x1="40%" y1="50%" x2="89%" y2="54%" id="id-111017"><stop stop-color="#312322" offset="0%"></stop><stop stop-color="#5D3E34" offset="100%"></stop></linearGradient><linearGradient x1="50%" y1="0%" x2="50%" y2="74%" id="id-111018"><stop stop-color="#E47C78" offset="0%"></stop><stop stop-color="#D7827D" offset="100%"></stop></linearGradient><linearGradient x1="80%" y1="50%" x2="7%" y2="50%" id="id-111019"><stop stop-color="#FAD6D3" offset="0%" stop-opacity="0.472"></stop><stop stop-color="#F5BFBB" offset="55%"></stop><stop stop-color="#F2ACA7" offset="100%" stop-opacity="0.434"></stop></linearGradient><linearGradient x1="50%" y1="0%" x2="50%" y2="50%" id="id-111020"><stop stop-color="#CF8E8A" offset="0%"></stop><stop stop-color="#A15552" offset="100%"></stop></linearGradient><linearGradient x1="0%" y1="83%" x2="93%" y2="83%" id="id-111021"><stop stop-color="#B87268" offset="0%" stop-opacity="0.687"></stop><stop stop-color="#DA8787" offset="58%"></stop><stop stop-color="#C5736D" offset="100%" stop-opacity="0.622"></stop></linearGradient></defs><g transform=" translate(548,259)" id="id-111022"><g transform=" translate(0,121)" id="id-111023"><polygon points="199 13 214 3 222 9 221 25 214 38 214 43 210 54 208 65 197 70 190 64" fill="url(#id-110982)" id="id-111024"></polygon><polygon points="197 24 209 14 216 9 219 10 220 22 214 37 195 43" fill="url(#id-110983)" id="id-111025"></polygon><polygon points="203 38 208 34 199 25 203 22 209 23 207 18 212 16 214 38 214 43 213 48 207 51 201 46" fill="url(#id-110984)" id="id-111024"></polygon><polygon points="212 5 214 3 222 9 222 10 219 10 216 9" fill="#F1CFD6" id="id-111024"></polygon><polygon points="208 65 197 70 190 64 194 42 199 50 193 62 199 67" fill="#906067" id="id-111024"></polygon><polygon points="203 62 202 54 211 50" fill="#A95D5F" id="id-111029"></polygon><polygon points="196 50 202 51 203 42 196 46" fill="#C18882" id="id-111030"></polygon><polygon points="194 45 199 47 202 45 202 32 197 31" fill="#4E4A5C" id="id-111031"></polygon><path d=" M 30,70 C 24,70 20,69 19,68 C 17,66 12,52 8,46 C 4,39 2,38 1,33 C 0,30 0,21 1,6 L 8,0 L 23,9 L 30,70 Z" fill="url(#id-110985)" id="id-111032"></path><polygon points="8 6 2 6 7 3 10 2 23 9 19 14" fill="#CFB7A6" id="id-111032"></polygon><path d=" M 26,68 C 23,69 20,69 19,68 C 17,66 12,52 8,46 C 7,44 6,43 6,42 C 9,45 10,47 12,48 C 13,50 14,52 16,56 L 26,68 Z" fill="#DDB5A9" id="id-111032"></path><polygon points="26 68 29 65 27 53 20 61" fill="#E5A599" id="id-111032"></polygon><path d=" M 23,19 C 12,12 6,9 5,9 C 3,10 2,18 2,33 L 17,53 L 26,52 L 23,19 Z" fill="url(#id-110986)" id="id-111036"></path><polygon points="12 17 19 19 18 26 15 28 22 38 21 49 12 44" fill="#BC6A69" id="id-111037"></polygon><path d=" M 27,53 C 16,50 10,47 8,42 C 6,38 8,30 12,17 L 15,23 C 15,36 14,42 15,43 C 15,45 18,46 25,48 L 27,53 Z" fill="#DCAC9A" id="id-111038"></path><polygon points="11 31 19 26 19 18 14 20 12 18" fill="#DAC2B3" id="id-111039"></polygon><polygon points="20 46 17 42 22 37 25 48" fill="#D29488" id="id-111040"></polygon></g><g transform=" translate(18,0)" id="id-111041"><path d=" M 20,231 C 18,227 11,201 5,153 C 3,140 2,128 1,117 C -1,91 4,63 8,49 C 9,46 16,35 16,34 C 30,20 56,0 94,0 C 157,0 178,45 181,51 C 183,57 183,111 181,144 C 178,177 162,232 160,235 C 158,239 124,261 119,264 C 113,266 74,267 69,264 C 64,261 22,235 20,231 Z" fill="url(#id-110987)" id="id-111042"></path><polygon points="19 114 13 91 21 49 49 35 141 43 137 69 105 74 78 52 56 49 39 56 41 93" fill="url(#id-110988)" id="id-111043"></polygon><polygon points="60 106 92 113 124 106 121 101 72 88 66 90 41 88 30 101" fill="url(#id-110989)" id="id-111044"></polygon><polygon points="51 70 94 83 125 81 132 50 98 64 102 53 80 48" fill="url(#id-110990)" opacity="0.556" id="id-111045"></polygon><path d=" M 4,144 C 3,137 2,130 2,123 C -1,88 16,34 17,34 C 31,19 56,0 94,0 C 157,0 178,45 181,51 C 183,56 183,103 181,136 L 152,101 C 154,91 155,83 154,79 C 150,60 140,50 136,47 C 130,44 99,50 94,50 C 90,50 78,43 58,42 C 54,42 48,43 38,46 C 29,61 24,68 23,70 C 11,97 16,104 13,127 C 13,131 10,137 4,144 Z" fill="url(#id-110991)" id="id-111042"></path><polygon points="146 168 106 137 108 129 149 141 164 156" fill="url(#id-110992)" id="id-111047"></polygon><polygon points="146 168 106 137 106 148 116 170 133 186" fill="#FFE7D9" id="id-111047"></polygon><path d=" M 181,51 C 183,56 183,103 181,136 L 162,124 L 161,111 C 167,97 172,86 174,77 C 175,74 176,71 177,64 C 178,59 177,52 174,41 L 181,51 Z" fill="#B38369" id="id-111042"></path><path d=" M 48,11 C 60,5 75,0 94,0 C 157,0 178,45 181,51 C 182,54 183,73 183,94 C 174,71 156,51 129,35 C 102,18 75,10 48,11 Z" fill="url(#id-110993)" id="id-111042"></path><polygon points="179 156 158 131 148 142 162 156 144 168 148 190" fill="url(#id-110994)" id="id-111042"></polygon><path d=" M 154,211 L 164,139 L 157,131 L 175,105 L 182,68 C 183,88 183,121 181,144 C 178,177 162,232 160,235 C 158,239 124,261 119,264 L 154,211 Z" fill="url(#id-110995)" opacity="0.749" id="id-111042"></path><polygon points="85 260 99 252 111 242 102 223 65 227 64 248" fill="#EDC5B0" fill-opacity="0.740" id="id-111053"></polygon><polygon points="33 188 44 177 21 169 41 146 21 136 8 168" fill="#F5C9B2" id="id-111054"></polygon><path d=" M 5,156 C 5,155 5,154 5,153 C 4,148 4,144 3,139 L 13,129 L 15,97 L 20,117 L 16,146 L 20,172 L 5,156 Z" fill="#C18F75" id="id-111042"></path><polygon points="13 136 17 121 19 115 32 129 68 132 69 135 40 148 24 139 23 131" fill="url(#id-110996)" id="id-111056"></polygon><polygon points="17 156 11 136 23 130 25 130 25 139" fill="#DBAC93" id="id-111057"></polygon><path d=" M 20,231 C 18,227 11,201 5,153 L 33,186 L 46,239 C 62,256 70,265 69,264 C 64,261 22,235 20,231 Z" fill="url(#id-110997)" id="id-111042"></path><polygon points="58 194 45 174 33 186 46 239 60 214" fill="url(#id-110998)" id="id-111042"></polygon><path d=" M 20,231 C 19,229 17,223 15,212 C 29,230 46,244 65,252 C 84,260 101,262 117,256 L 149,212 L 172,192 C 167,214 161,233 160,235 C 158,239 124,261 119,264 C 113,266 74,267 69,264 C 64,261 22,235 20,231 Z" fill="#86574D" opacity="0.470" id="id-111042"></path><polygon points="117 256 152 210 144 168 132 185 128 235 113 258" fill="url(#id-110999)" id="id-111042"></polygon><path d=" M 179,156 C 175,189 161,232 160,235 C 160,236 159,236 157,237 L 148,190 L 179,156 Z" fill="url(#id-111000)" opacity="0.606" id="id-111042"></path><path d=" M 181,144 C 178,177 162,232 160,235 C 159,237 151,242 143,248 L 157,232 L 163,217 L 170,168 L 181,144 Z" fill="url(#id-111001)" id="id-111042"></path><path d=" M 135,254 C 127,259 121,263 119,264 C 113,266 74,267 69,264 C 67,263 57,256 46,250 L 73,256 L 116,262 L 135,254 Z" fill="#836386" id="id-111042"></path><path d=" M 2,130 C 2,125 1,121 1,117 C -1,91 4,63 8,49 C 9,46 16,35 16,34 C 16,34 17,34 17,34 L 29,29 L 13,58 L 13,86 L 2,130 Z" fill="url(#id-111002)" id="id-111042"></path><path d=" M 182,133 C 181,137 181,141 181,144 C 180,152 179,160 177,169 L 158,179 L 175,157 L 177,139 L 182,133 Z" fill="#7E4341" id="id-111042"></path><path d=" M 72,248 C 71,246 69,242 68,234 L 83,227 L 111,242 C 86,247 73,249 72,248 Z" fill="#FDDFCB" opacity="0.617" id="id-111067"></path><polygon points="109 177 114 181 125 213 60 209 61 183 66 177" fill="#EFC2A8" id="id-111068"></polygon><polygon points="83 194 74 185 77 178 112 181 98 194" fill="#D6A390" id="id-111069"></polygon><polygon points="83 193 92 197 99 195 99 181 85 181" fill="url(#id-111003)" id="id-111070"></polygon><polygon points="83 196 83 193 92 197 99 195 100 197 91 202" fill="#F2CFBB" id="id-111070"></polygon><polygon points="75 138 67 145 60 160 67 171 120 176 116 162 122 153 107 140 110 115" fill="url(#id-111004)" id="id-111072"></polygon><polygon points="75 138 78 153 75 160 75 184 94 181 111 183 118 178 120 174 116 162 105 153 107 140 110 115 71 115 71 127" fill="url(#id-111005)" id="id-111072"></polygon><polygon points="97 179 108 168 83 166 68 173 71 180" fill="#E8BFA7" id="id-111074"></polygon><polygon points="79 124 71 112 71 127 73 131" fill="#CF9779" id="id-111072"></polygon><polygon points="71 160 57 173 61 183 78 181 67 177" fill="#FFE1CF" id="id-111076"></polygon><polygon points="87 136 71 113 69 101 92 108 108 104 110 112 94 136" fill="url(#id-111006)" id="id-111077"></polygon><polygon points="96 169 105 169 116 169 103 159" fill="#FFD6C0" id="id-111078"></polygon><polygon points="86 170 98 169 103 159 98 143 95 123 88 126 82 166" fill="url(#id-111007)" id="id-111078"></polygon><polygon points="86 170 97 169 92 157" fill="#FFF1E3" id="id-111078"></polygon><polygon points="92 136 87 125 90 117 95 123" fill="#FFF9ED" id="id-111081"></polygon><polygon points="103 157 106 151 115 163" fill="#CB9071" id="id-111082"></polygon><polygon points="75 184 66 180 65 173 70 163 76 158 76 163 70 172 70 175 76 176 88 180" fill="url(#id-111008)" id="id-111083"></polygon><polygon points="70 172 79 172 76 163 71 164" fill="url(#id-111009)" id="id-111084"></polygon><polygon points="120 173 120 179 114 184 101 183 111 182 117 177" fill="#A46B65" id="id-111085"></polygon><polygon points="89 181 93 183 97 182 99 179 84 176" fill="#BB8E78" id="id-111086"></polygon><polygon points="97 182 99 179 84 176" fill="#A77563" id="id-111086"></polygon><path d=" M 77,180 C 78,180 83,180 90,180 C 89,179 88,177 86,177 C 85,176 83,175 79,174 C 77,174 75,175 75,176 C 74,178 75,179 77,180 Z" fill="url(#id-111010)" id="id-111088"></path><path d=" M 96,180 L 99,176 L 107,173 C 111,175 112,176 109,178 C 107,180 103,181 96,180 Z" fill="url(#id-111011)" id="id-111089"></path><polygon points="30 128 57 124 72 126 72 114 48 102 19 114" fill="url(#id-111012)" id="id-111090"></polygon><polygon points="36 127 57 124 69 126 60 108 53 104" fill="url(#id-111013)" id="id-111090"></polygon><polygon points="37 129 41 135 33 132 33 130" fill="#2F1A10" opacity="0.429" id="id-111092"></polygon><polygon points="48 138 69 135 40 148 33 144 40 138" fill="#DEAC91" id="id-111056"></polygon><path d=" M 22,130 C 27,129 30,128 32,127 C 40,124 47,122 52,122 C 60,123 66,126 70,133 L 69,135 L 67,133 L 66,132 L 36,130 L 41,135 L 32,133 L 22,130 Z" fill="#35221D" id="id-111094"></path><polygon points="36 130 41 135 50 135 62 133 65 130 58 127 43 126" fill="#E5E2F2" id="id-111092"></polygon><path d=" M 54,135 C 56,134 58,131 59,127 C 57,125 55,124 51,124 C 48,124 45,125 43,126 C 43,129 44,131 44,132 C 45,133 49,136 54,135 Z" fill="#2C1E19" id="id-111092"></path><polygon points="62 133 65 130 67 133" fill="#C37C79" id="id-111092"></polygon><polygon points="36 130 41 135 49 126 43 126" fill="#2F1A10" opacity="0.429" id="id-111092"></polygon><path d=" M 50,131 L 50,134 C 51,134 53,134 54,133 C 54,133 55,132 56,131 C 54,131 53,131 52,131 C 51,131 50,131 50,131 Z" fill="#384239" id="id-111099"></path><polygon points="108 131 117 132 137 124 156 110 117 108" fill="#DFAF93" id="id-111100"></polygon><polygon points="134 148 151 141 164 122 161 110 155 106 135 126 140 132 132 143 137 143" fill="url(#id-111014)" id="id-111101"></polygon><polygon points="46 130 50 129 50 127 46 127" fill="#C2BAC8" id="id-111102"></polygon><polygon points="48 138 54 142 59 136" fill="#EFCBB6" id="id-111103"></polygon><path d=" M 73,115 L 63,111 C 49,110 38,110 32,111 C 25,111 20,115 17,121 C 18,115 19,111 20,109 C 22,106 24,103 27,101 L 27,104 L 30,100 C 33,99 36,98 41,98 C 45,98 52,99 61,100 L 65,106 L 65,102 L 69,102 L 73,115 Z" fill="url(#id-111015)" id="id-111104"></path><polygon points="73 115 63 111 71 106 71 108 75 106" fill="#815A4E" id="id-111104"></polygon><polygon points="108 131 108 111 118 111 123 116" fill="#C78C74" id="id-111106"></polygon><polygon points="129 125 123 116 129 116 136 114 133 124" fill="#F5D3BD" id="id-111107"></polygon><path d=" M 116,133 C 115,134 115,135 114,135 C 114,135 114,134 114,133 C 115,132 116,130 117,130 C 121,125 127,123 133,123 C 141,123 147,125 154,129 L 160,132 L 150,135 L 140,135 L 116,133 Z" fill="#402C24" id="id-111108"></path><path d=" M 108,113 L 105,103 L 111,103 L 109,109 L 117,101 C 122,100 127,99 133,98 C 139,98 143,98 146,99 L 139,102 L 150,100 L 163,109 L 164,122 C 162,115 159,111 155,110 C 152,110 147,110 138,111 L 125,111 L 108,113 Z" fill="url(#id-111016)" id="id-111109"></path><path d=" M 150,100 L 163,109 C 162,110 159,111 155,110 C 152,110 147,110 138,111 L 125,111 L 150,100 Z" fill="url(#id-111017)" id="id-111109"></path><path d=" M 149,132 C 146,128 141,125 135,125 C 129,125 124,127 118,131 L 120,134 C 126,135 130,135 133,136 C 135,136 138,136 142,136 L 149,132 Z" fill="#EAE6FB" id="id-111111"></path><path d=" M 140,126 C 138,125 137,125 135,125 C 132,125 128,125 124,127 C 125,132 128,135 133,135 C 138,135 140,132 140,126 Z" fill="#2E2020" id="id-111111"></path><path d=" M 149,132 C 146,128 141,125 135,125 C 129,125 124,127 118,131 L 120,134 C 124,130 128,128 133,128 C 138,128 142,130 145,134 L 149,132 Z" fill="#3E2F25" opacity="0.326" id="id-111111"></path><polygon points="118 131 116 134 120 134" fill="#B4796D" id="id-111111"></polygon><polygon points="129 130 129 127 132 126 132 128" fill="#E6E2F6" id="id-111115"></polygon><path d=" M 132,134 C 134,135 135,135 136,134 C 137,133 138,132 139,130 L 134,130 L 132,134 Z" fill="#384039" id="id-111116"></path><polygon points="66 231 97 229 107 229 119 223 119 213 60 215 57 221" fill="#DCA493" id="id-111117"></polygon><polygon points="118 217 124 214 101 203 71 206 60 215 61 217" fill="#5F2522" id="id-111118"></polygon><polygon points="114 135 135 137 150 135 144 135 116 133" fill="#B58E82" id="id-111119"></polygon><polygon points="106 225 97 229 85 229 77 224" fill="#A26357" id="id-111120"></polygon><polygon points="85 229 77 224 101 225" fill="#763932" id="id-111120"></polygon><path d=" M 60,215 L 59,217 L 77,225 L 105,226 L 119,217 C 115,214 110,213 106,212 C 102,212 90,212 72,213 L 65,217 L 60,215 Z" fill="url(#id-111018)" id="id-111122"></path><path d=" M 80,221 L 74,218 C 81,217 87,217 91,217 C 95,216 100,217 107,217 L 100,221 C 96,220 94,219 91,219 C 89,219 85,220 80,221 Z" fill="url(#id-111019)" id="id-111123"></path><path d=" M 59,215 L 60,210 C 65,207 69,204 71,203 C 74,201 78,199 83,196 L 91,200 L 100,196 L 114,203 L 124,213 L 116,213 L 103,208 L 91,206 L 76,208 L 64,215 L 59,215 Z" fill="url(#id-111020)" id="id-111124"></path><path d=" M 71,203 C 74,201 78,199 83,196 L 91,200 L 100,196 L 114,203 L 103,208 L 91,206 L 76,208 L 71,203 Z" fill="url(#id-111021)" id="id-111124"></path><path d=" M 76,200 C 77,199 80,198 83,196 L 91,200 L 91,206 L 82,208 L 76,200 Z" fill="#E696A5" id="id-111124"></path></g></g><defs><linearGradient x1="50%" y1="0%" x2="50%" y2="100%" id="id-86853"><stop stop-color="#1B223C" offset="0%"></stop><stop stop-color="#0B132A" offset="100%"></stop></linearGradient><linearGradient x1="30%" y1="43%" x2="30%" y2="77%" id="id-86854"><stop stop-color="#363C56" offset="0%"></stop><stop stop-color="#334265" offset="100%"></stop></linearGradient><linearGradient x1="61%" y1="50%" x2="0%" y2="50%" id="id-86855"><stop stop-color="#313852" offset="0%"></stop><stop stop-color="#161D39" offset="100%"></stop></linearGradient><linearGradient x1="61%" y1="50%" x2="0%" y2="50%" id="id-86856"><stop stop-color="#313852" offset="0%"></stop><stop stop-color="#161D39" offset="100%"></stop></linearGradient><linearGradient x1="61%" y1="50%" x2="0%" y2="50%" id="id-86857"><stop stop-color="#313852" offset="0%"></stop><stop stop-color="#161D39" offset="100%"></stop></linearGradient></defs><g transform=" translate(426,1085)" id="id-86858"><path d=" M 196,675 C 89,675 35,675 35,675 C 32,661 30,654 30,654 C 31,648 33,642 35,636 C 28,619 22,605 20,595 C 26,582 29,576 29,576 C 29,569 29,565 29,562 C 12,527 17,471 8,452 C 11,383 12,348 12,348 C 8,335 6,329 6,329 C 9,281 11,258 11,258 C 8,253 5,248 3,242 C 0,217 -1,191 1,164 C 19,140 27,128 27,128 C 36,97 40,81 40,81 C 41,56 42,43 42,43 L 48,17 L 55,18 C 59,9 61,5 61,5 C 70,7 74,8 74,8 C 78,18 80,24 80,24 C 112,31 128,35 128,35 C 132,31 134,29 134,29 C 212,33 250,35 250,35 C 319,24 353,19 353,19 C 359,13 362,10 362,10 C 398,3 415,0 415,0 C 415,19 415,28 415,28 C 421,48 423,58 423,58 C 432,69 436,74 436,74 C 434,79 434,82 434,82 C 437,99 440,111 443,120 C 447,133 453,147 457,160 C 471,179 478,188 478,188 C 479,231 480,253 480,253 C 490,330 497,387 499,426 C 494,466 490,496 488,514 C 489,526 504,545 504,549 C 492,571 486,583 486,583 C 485,610 484,624 484,624 C 491,640 494,648 494,648 L 488,675 C 395,675 349,675 349,675 C 344,671 342,668 342,668 C 344,654 344,644 344,639 C 340,624 332,602 332,602 C 329,572 327,557 327,557 C 323,535 321,524 321,524 C 294,472 278,441 273,430 C 267,427 264,425 264,425 C 255,437 250,442 250,442 C 236,450 226,457 219,464 C 213,547 210,588 210,588 C 190,606 180,615 182,618 C 180,623 196,675 196,675 Z" fill="url(#id-86853)" id="id-86859"></path><path d=" M 425,0 L 425,29 L 434,59 L 446,74 C 443,75 439,75 434,76 C 342,120 301,135 261,149 L 258,151 C 238,158 217,166 190,178 C 154,104 136,67 136,67 L 131,33 L 134,29 L 250,35 L 353,19 L 362,10 L 425,0 Z M 350,82 L 281,91 C 203,88 164,87 164,87 C 166,92 168,95 168,95 L 168,95 L 168,95 L 163,95 L 163,95 C 170,113 174,121 174,121 C 189,118 197,117 197,117 C 214,123 222,127 222,127 C 307,97 350,82 350,82 Z" fill="url(#id-86854)" id="id-86860"></path><path d=" M 242,447 L 242,371 L 273,430 L 264,425 L 250,442 C 245,445 242,447 242,447 Z" fill="#010307" id="id-86861"></path><path d=" M 313,423 C 286,379 273,357 273,357 C 287,338 294,329 294,329 C 275,296 266,279 266,279 C 241,287 228,292 228,292 C 203,216 190,178 190,178 C 293,135 344,114 344,114 L 434,76 L 446,74 L 444,82 L 453,120 L 457,160 C 468,174 474,182 474,182 C 457,204 448,216 448,216 L 439,256 L 375,475 C 334,440 313,423 313,423 Z" fill="#1C233D" id="id-86862"></path><path d=" M 435,635 C 358,556 320,516 320,516 C 316,508 315,504 315,504 C 365,510 391,514 391,514 C 323,452 288,421 288,421 L 291,464 L 273,430 C 252,387 241,365 241,365 C 331,438 375,475 375,475 C 351,421 339,394 339,394 C 360,400 370,403 370,403 C 333,381 315,370 315,370 C 375,351 405,341 405,341 C 325,339 285,338 285,338 C 262,330 250,326 250,326 C 267,321 276,318 276,318 C 273,309 272,305 272,305 C 271,288 270,279 270,279 C 275,276 277,274 277,274 C 277,297 277,308 277,308 C 315,311 334,312 334,312 C 370,325 388,331 388,331 C 376,314 371,306 371,306 C 350,289 340,281 340,281 C 380,257 400,246 400,246 C 437,255 456,260 456,260 C 475,275 484,283 484,283 C 485,291 486,296 486,296 C 459,323 446,336 446,336 C 431,373 424,391 424,391 C 407,402 398,408 398,408 C 425,420 438,427 438,427 L 482,503 C 469,560 453,603 435,635 Z" fill="#363C56" id="id-86863"></path><path d=" M 284,195 C 360,178 397,169 397,169 L 398,194 L 446,131 C 453,150 457,160 457,160 C 470,177 477,185 477,185 C 454,208 443,220 443,220 C 442,226 442,230 442,230 C 423,227 414,226 414,226 C 325,256 281,271 281,271 L 383,197 C 317,196 284,195 284,195 Z" fill="#373E57" id="id-86864"></path><path d=" M 376,206 C 408,215 424,220 424,220 L 293,269 C 348,227 376,206 376,206 Z" fill="#344364" id="id-86865"></path><path d=" M 277,206 C 256,224 246,233 246,233 L 231,178 C 262,197 277,206 277,206 Z" fill="#131A32" id="id-86866"></path><path d=" M 251,244 C 258,262 261,272 261,272 C 237,280 225,284 225,284 L 216,256 C 240,248 251,244 251,244 Z" fill="#353C55" id="id-86867"></path><path d=" M 261,188 C 289,161 303,147 303,147 L 232,168 C 251,181 261,188 261,188 Z" fill="#2E344E" id="id-86868"></path><path d=" M 308,162 C 344,132 362,117 362,117 C 380,115 390,115 390,115 C 420,93 434,83 434,83 C 442,112 446,126 446,126 L 396,149 C 337,158 308,162 308,162 Z" fill="#3D435D" id="id-86869"></path><path d=" M 391,117 C 403,130 408,136 408,136 C 394,144 387,147 387,147 L 373,120 C 385,118 391,117 391,117 Z" fill="#3C496C" id="id-86870"></path><path d=" M 454,121 C 448,122 445,122 445,122 L 436,87 L 444,82 L 454,121 Z" fill="#383E58" id="id-86871"></path><path d=" M 365,39 C 360,27 358,22 358,22 L 182,56 C 304,45 365,39 365,39 Z" fill="#1A213B" id="id-86872"></path><path d=" M 142,38 C 142,51 142,58 142,58 C 146,54 148,52 148,52 C 186,52 205,52 205,52 L 242,44 C 175,40 142,38 142,38 Z" fill="#030810" id="id-86873"></path><path d=" M 146,68 C 146,53 145,46 145,46 C 185,47 204,48 204,48 L 206,68 C 166,68 146,68 146,68 Z" fill="#BE243E" id="id-86874"></path><path d=" M 399,73 C 377,48 366,36 366,36 C 363,25 361,20 361,20 C 369,16 373,14 373,14 L 399,52 C 399,66 399,73 399,73 Z" fill="#050912" id="id-86875"></path><path d=" M 398,72 C 398,58 398,51 398,51 C 418,47 429,44 429,44 L 434,68 C 410,71 398,72 398,72 Z" fill="#131931" id="id-86876"></path><path d=" M 74,8 L 80,24 C 112,31 128,35 128,35 C 132,61 134,74 134,74 C 126,72 122,72 122,72 C 127,91 130,100 130,100 C 156,126 169,139 169,139 C 178,167 182,181 182,181 C 131,158 106,146 106,146 C 123,164 132,172 132,172 C 93,148 58,132 28,125 C 29,122 30,120 30,120 C 61,121 77,121 77,121 C 106,127 121,130 121,130 C 69,93 43,75 43,75 C 64,75 75,74 75,74 L 67,51 L 42,44 L 61,5 L 74,8 Z" fill="url(#id-86855)" id="id-86877"></path><path d=" M 138,71 C 147,98 152,112 152,112 L 182,162 C 172,117 157,87 138,71 Z" fill="#02030B" id="id-86878"></path><path d=" M 68,48 C 71,46 73,44 73,44 L 131,55 L 128,35 C 96,27 80,24 80,24 L 75,12 C 70,36 68,48 68,48 Z" fill="#050811" id="id-86879"></path><path d=" M 30,136 C 37,149 41,156 41,156 C 54,170 60,176 60,176 C 60,163 60,156 60,156 C 112,171 138,178 138,178 C 150,191 157,198 157,198 C 167,224 172,237 172,237 C 168,253 167,260 167,260 C 93,235 57,222 57,222 C 59,221 61,220 61,220 L 3,162 C 21,144 30,136 30,136 Z" fill="url(#id-86856)" id="id-86880"></path><path d=" M 9,245 C 39,231 54,224 54,224 C 96,244 118,254 118,254 C 200,303 240,328 240,328 C 240,357 240,371 240,371 C 203,365 185,362 185,362 C 118,364 84,365 84,365 C 175,387 220,398 220,398 C 229,403 234,405 234,405 C 218,442 210,460 210,460 C 125,515 82,542 82,542 C 83,490 84,464 84,464 C 72,452 66,446 66,446 C 80,438 87,435 87,435 C 80,395 77,376 77,376 C 41,370 24,367 24,367 L 71,351 C 30,280 9,245 9,245 Z" fill="url(#id-86857)" id="id-86881"></path><path d=" M 76,280 C 113,285 132,288 132,288 C 187,305 223,318 239,328 C 238,333 238,335 238,335 C 135,327 83,323 83,323 L 119,301 C 90,287 76,280 76,280 Z" fill="#181F3B" id="id-86882"></path><path d=" M 131,553 C 56,536 19,528 19,528 C 15,495 14,479 14,479 L 121,478 C 127,528 131,553 131,553 Z" fill="#0A1028" id="id-86883"></path><path d=" M 78,582 C 109,565 125,557 125,557 C 175,575 201,584 201,584 L 166,604 C 108,589 78,582 78,582 Z" fill="#090E22" id="id-86884"></path><path d=" M 111,635 C 110,626 110,622 110,622 C 88,598 78,586 78,586 L 54,587 C 92,619 111,635 111,635 Z" fill="#040716" id="id-86885"></path><path d=" M 210,588 C 210,586 210,585 210,585 C 147,629 115,651 115,651 C 86,642 72,638 72,638 L 23,606 L 35,636 C 32,644 31,649 30,654 L 35,675 L 196,675 C 191,655 180,624 182,618 C 181,615 190,605 210,588 Z" fill="#030612" id="id-86886"></path><path d=" M 194,189 C 191,188 190,187 190,187 C 205,235 212,259 212,259 C 215,276 216,284 216,284 C 231,311 239,325 239,325 C 230,305 221,285 220,267 C 202,215 194,189 194,189 Z" fill="#010207" id="id-86887"></path><path d=" M 9,283 C 51,266 72,257 72,257 L 4,244 C 5,249 8,254 11,258 C 10,275 9,283 9,283 Z" fill="#0A1026" id="id-86888"></path><path d=" M 165,78 C 217,77 243,77 243,77 C 337,64 384,57 384,57 C 386,59 387,60 387,60 L 244,79 C 191,79 165,78 165,78 Z" fill="#0D111E" id="id-86889"></path><path d=" M 353,65 C 356,65 357,64 357,64 C 367,87 372,98 372,98 C 370,111 370,117 370,117 C 380,136 386,146 386,146 C 386,162 385,170 385,170 C 407,204 417,221 417,221 C 417,241 417,251 417,251 C 439,307 449,335 449,335 C 467,397 476,429 476,429 C 488,450 494,460 494,460 C 494,464 494,465 494,465 C 480,442 473,431 473,431 C 455,368 446,337 446,337 C 424,278 414,249 414,249 C 414,232 414,224 414,224 C 393,189 382,172 382,172 C 382,155 382,146 382,146 C 372,127 366,117 366,117 L 369,99 C 358,76 353,65 353,65 Z" fill="#060812" id="id-86890"></path><path d=" M 122,72 C 119,70 118,69 118,69 C 101,95 93,108 93,108 C 93,119 93,124 93,124 C 85,135 80,141 80,141 C 82,155 83,162 83,162 C 70,200 63,219 63,219 C 66,225 68,228 68,228 C 58,245 53,253 53,253 C 44,265 39,270 39,270 L 6,325 C 6,327 6,329 6,329 C 30,289 42,269 42,269 C 51,259 55,254 55,254 C 66,236 71,227 71,227 C 68,221 67,219 67,219 C 79,182 86,163 86,163 C 84,149 83,142 83,142 C 92,131 96,125 96,125 L 96,110 C 113,84 122,72 122,72 Z" fill="#0A0D1A" id="id-86891"></path><path d=" M 343,632 C 390,630 413,628 413,628 L 332,596 L 332,604 C 339,623 343,632 343,632 Z" fill="#1E253D" id="id-86892"></path><path d=" M 484,624 L 451,646 C 440,639 435,635 435,635 L 410,675 L 488,675 L 494,650 C 488,633 484,624 484,624 Z" fill="#141A32" id="id-86893"></path></g><defs></defs><g transform=" translate(296,517)" id="id-88712"><path d=" M 219,447 C 217,438 216,433 216,433 C 311,342 358,297 358,297 C 357,154 356,83 356,83 C 398,75 419,71 419,71 C 494,127 531,155 531,155 C 546,194 553,239 560,284 C 554,294 551,298 551,298 C 537,212 530,169 530,169 C 513,150 505,140 505,140 C 450,101 423,81 423,81 C 384,88 365,91 365,91 C 363,191 362,242 362,242 C 366,282 367,302 367,302 C 344,330 332,343 332,343 C 295,378 276,395 276,395 L 228,446 C 222,447 219,447 219,447 Z" fill="#550F18" fill-opacity="0.475" id="id-88713"></path><g transform=" translate(0,248)" id="id-88714"><path d=" M 109,577 C 101,577 97,576 97,576 C 60,586 41,591 41,591 C 14,603 0,609 0,609 C 2,553 3,524 3,524 C 9,478 12,455 12,455 C 6,437 2,428 2,428 C 12,387 17,353 17,325 C 19,296 22,257 26,231 C 56,144 71,101 71,101 C 92,65 102,47 102,47 C 151,18 175,4 175,4 C 187,56 193,82 193,82 C 184,109 180,122 180,122 C 181,129 181,132 181,132 C 175,158 163,185 158,211 C 157,214 163,218 162,221 C 163,230 161,244 161,254 C 148,291 136,309 122,350 C 120,365 118,372 118,372 C 107,401 92,426 84,459 L 95,488 C 99,513 102,530 103,539 C 103,541 105,546 109,554 C 109,569 109,577 109,577 Z" fill="#0091D2" id="id-88715"></path><path d=" M 0,609 C 0,611 0,612 0,612 C 10,608 16,605 16,605 C 40,594 68,587 95,581 C 103,583 108,582 109,577 L 97,576 L 41,591 C 14,603 0,609 0,609 Z" fill="#004C7F" id="id-88716"></path><path d=" M 41,591 C 42,573 40,560 38,546 C 31,535 27,529 27,529 C 38,534 44,536 44,536 C 20,467 7,433 7,433 C 22,414 47,399 52,377 C 51,361 35,313 31,291 C 73,259 93,243 93,243 C 115,231 125,226 125,226 C 96,230 72,233 74,223 C 77,210 83,204 87,194 C 135,158 160,141 160,141 C 159,184 159,205 159,205 C 154,210 147,212 141,214 C 147,228 155,238 161,254 C 151,279 134,297 113,315 C 111,331 113,350 117,370 C 89,396 62,422 63,478 C 70,478 77,471 84,463 C 91,479 95,488 95,488 C 84,506 78,515 78,515 L 80,581 C 54,588 41,591 41,591 Z" fill="#4BB1EB" id="id-88717"></path><path d=" M 95,488 C 67,520 54,536 54,536 C 49,533 47,532 47,532 C 24,468 12,436 12,436 C 48,464 66,477 66,477 C 77,481 80,470 86,465 C 92,480 95,488 95,488 Z" fill="#66CAFF" id="id-88718"></path><path d=" M 58,371 C 66,335 70,317 70,317 C 91,316 101,315 101,315 C 105,334 100,353 111,371 C 76,371 58,371 58,371 Z" fill="#67CBFF" id="id-88719"></path><path d=" M 96,251 C 123,234 136,225 136,225 C 148,245 154,254 154,254 L 106,249 C 99,250 96,251 96,251 Z" fill="#61C5FC" id="id-88720"></path><path d=" M 5,433 L 2,428 C 11,396 17,362 17,325 C 19,294 21,263 26,231 C 56,144 71,101 71,101 C 71,107 71,110 71,110 C 57,151 44,193 33,236 C 28,241 25,244 25,244 C 27,264 28,275 28,275 C 23,292 21,301 21,301 L 19,357 C 16,381 11,406 5,433 Z" fill="#00D0FC" id="id-88721"></path><path d=" M 19,300 C 74,303 101,304 101,304 C 104,297 105,293 105,293 L 20,286 C 19,295 19,300 19,300 Z" fill="#13263B" id="id-88722"></path><path d=" M 28,275 C 33,265 35,259 35,259 C 35,254 33,246 30,238 L 25,244 C 27,264 28,275 28,275 Z" fill="#0072AD" id="id-88723"></path><path d=" M 25,244 C 26,247 26,248 26,248 C 56,212 85,177 98,146 L 104,49 L 71,101 L 71,110 C 56,153 44,195 33,236 C 28,241 25,244 25,244 Z" fill="#0076B4" id="id-88724"></path><path d=" M 71,101 C 71,104 71,106 71,106 C 89,79 98,66 98,66 C 147,33 172,16 172,16 L 179,27 L 175,4 L 104,49 C 82,84 71,101 71,101 Z" fill="#0072AD" id="id-88725"></path><path d=" M 175,4 C 180,42 180,69 176,87 L 180,137 L 181,132 L 180,121 L 193,82 C 181,30 175,4 175,4 Z" fill="#005389" id="id-88726"></path><path d=" M 624,578 C 653,581 668,582 668,582 C 712,600 734,609 734,609 C 736,558 729,508 718,458 C 723,447 729,436 729,424 C 715,378 710,313 709,240 C 678,157 663,116 663,116 C 665,107 666,102 666,102 C 641,65 629,46 629,46 C 578,15 552,0 552,0 C 556,24 558,36 558,36 C 546,55 540,65 540,65 C 550,123 569,171 577,232 C 573,241 571,246 571,246 C 573,267 576,281 580,291 C 589,312 598,330 607,351 C 611,367 613,374 613,374 L 643,461 C 637,477 633,489 632,497 C 624,550 624,578 624,578 Z" fill="#29A1DD" id="id-88727"></path><path d=" M 640,580 C 641,540 637,492 643,473 C 672,465 687,461 687,461 C 655,437 638,425 638,425 L 617,386 L 643,461 C 638,473 635,483 632,497 L 624,578 C 635,579 640,580 640,580 Z" fill="#0091D1" id="id-88728"></path><path d=" M 668,582 C 672,533 674,508 674,508 C 696,471 707,453 707,453 C 709,439 710,432 710,432 C 696,404 689,390 689,390 C 662,363 649,349 649,349 C 649,312 649,293 649,293 C 602,265 578,252 578,252 C 592,226 599,213 599,213 C 582,130 574,88 574,88 C 581,79 585,74 585,74 C 613,78 628,79 628,79 C 649,196 660,255 660,255 C 682,247 694,243 694,243 C 696,257 698,264 698,264 C 702,301 704,344 717,364 C 719,384 722,403 729,424 C 700,486 685,517 685,517 C 696,508 701,503 701,503 C 712,495 717,491 717,491 L 730,524 C 734,554 734,582 734,609 C 690,591 668,582 668,582 Z" fill="#62BDF4" id="id-88729"></path><path d=" M 734,587 C 710,579 698,574 698,574 L 698,527 L 730,524 C 734,559 735,580 734,587 Z" fill="#13263B" id="id-88730"></path><path d=" M 689,390 C 697,383 705,372 712,356 L 710,348 L 649,349 C 676,377 689,390 689,390 Z" fill="#65C9FF" id="id-88731"></path><path d=" M 585,74 L 628,80 L 660,255 L 681,249 L 641,286 C 641,286 651,254 652,239 C 641,189 636,163 636,163 C 633,180 633,201 632,221 L 585,74 Z" fill="#65C9FF" id="id-88732"></path><path d=" M 640,74 C 653,122 660,146 660,146 C 676,184 685,203 685,203 C 687,201 690,198 693,197 C 673,143 663,116 663,116 L 665,107 C 649,85 640,74 640,74 Z" fill="#13263B" id="id-88733"></path><path d=" M 613,369 C 621,352 626,344 626,344 L 579,289 L 607,351 C 611,363 613,369 613,369 Z" fill="#0091D1" id="id-88734"></path><path d=" M 576,222 C 576,205 576,197 576,197 L 543,60 C 541,63 540,65 540,65 C 541,71 541,74 541,74 C 531,99 526,112 526,112 C 525,132 525,142 525,142 C 531,146 535,148 535,148 L 548,117 C 564,169 573,204 576,222 Z" fill="#00538A" id="id-88735"></path><path d=" M 629,80 C 650,196 660,255 660,255 C 689,243 704,236 704,236 C 704,230 704,227 704,227 C 695,208 691,198 691,198 L 648,101 L 629,80 Z" fill="#44B3ED" id="id-88736"></path><path d=" M 704,227 C 707,288 709,319 709,319 L 714,341 C 710,304 709,270 709,240 C 705,231 704,227 704,227 Z" fill="#0090D0" id="id-88737"></path><path d=" M 552,0 C 553,9 554,14 554,14 L 557,13 L 629,51 L 665,107 L 666,102 L 629,46 C 578,15 552,0 552,0 Z" fill="#00528A" id="id-88738"></path><path d=" M 711,287 C 689,288 678,289 678,289 C 677,272 677,264 677,264 L 710,261 C 711,278 711,287 711,287 Z" fill="#13263B" id="id-88739"></path></g><g transform=" translate(63,0)" id="id-88740"><path d=" M 0,335 L 8,349 C 30,314 40,297 40,297 L 112,253 L 130,330 C 121,356 117,369 117,369 C 124,426 128,455 128,455 C 143,442 151,435 151,435 C 184,411 211,391 230,373 C 256,346 282,317 295,297 C 293,156 293,85 293,85 C 315,85 327,85 327,85 C 329,81 329,79 329,79 C 338,78 346,76 355,72 C 391,98 428,125 464,154 C 475,177 482,212 489,248 L 566,294 C 590,331 602,350 602,350 C 604,349 605,348 605,348 C 605,335 588,291 591,264 C 590,232 586,200 579,168 L 577,148 L 574,146 C 573,142 572,138 571,135 C 547,106 465,74 389,42 C 387,30 385,18 385,9 C 358,39 321,44 280,38 C 263,35 246,32 231,21 C 214,13 206,10 206,10 C 206,35 206,48 206,48 C 148,75 91,103 36,133 C 10,197 20,261 0,335 Z" fill="#BDCEEA" id="id-88741"></path><path d=" M 591,247 C 565,240 553,236 553,236 C 546,193 543,171 543,171 L 578,159 L 579,168 C 586,205 590,232 591,247 Z" fill="#13263B" id="id-88742"></path><path d=" M 579,168 C 560,174 551,177 551,177 C 556,211 558,228 558,228 L 590,236 C 587,210 584,187 579,168 Z" fill="#DAEAFB" id="id-88743"></path><path d=" M 583,184 C 563,186 552,187 552,187 C 555,209 557,219 557,219 L 588,218 L 583,184 Z" fill="#FF009B" id="id-88744"></path><path d=" M 151,435 C 141,381 137,354 137,354 C 154,361 162,365 162,365 C 133,297 118,263 118,263 C 140,242 150,232 150,232 C 166,232 174,232 174,232 C 175,237 175,240 175,240 C 196,226 207,219 207,219 C 237,241 252,252 252,252 C 210,299 189,322 189,322 C 245,288 272,270 272,270 L 295,289 L 295,297 C 264,344 216,390 151,435 Z" fill="#94ADD4" id="id-88745"></path><path d=" M 128,455 L 151,435 C 141,381 137,354 137,354 L 163,367 L 118,263 L 151,232 L 175,232 L 175,240 C 196,226 206,219 206,219 C 208,219 209,219 209,219 C 214,182 217,163 217,163 C 214,164 213,165 213,165 C 207,201 204,219 204,219 L 151,228 L 112,253 L 130,330 L 116,370 L 128,455 Z" fill="#6985AF" id="id-88746"></path><path d=" M 151,435 C 154,442 155,445 155,445 L 153,457 L 128,455 C 143,442 151,435 151,435 Z" fill="#3A659A" id="id-88747"></path><path d=" M 288,268 C 281,263 278,261 278,261 C 278,226 277,208 277,208 L 289,215 C 289,250 288,268 288,268 Z" fill="#C6E1F7" id="id-88748"></path><path d=" M 273,215 C 233,215 214,215 214,215 C 218,179 220,160 220,160 C 226,144 229,136 229,136 C 201,136 187,137 187,137 L 273,104 C 273,178 273,215 273,215 Z" fill="#C5E0F6" id="id-88749"></path><path d=" M 291,189 C 283,187 279,187 279,187 C 278,123 278,92 278,92 L 289,91 C 290,156 291,189 291,189 Z" fill="#CCF1FF" id="id-88750"></path><path d=" M 149,152 C 125,150 112,148 112,148 L 188,90 C 162,131 149,152 149,152 Z" fill="#C7E3F8" id="id-88751"></path><path d=" M 118,213 C 168,212 193,211 193,211 C 191,188 191,177 191,177 L 119,175 C 119,200 118,213 118,213 Z" fill="#4FB3ED" id="id-88752"></path><path d=" M 64,282 L 108,157 C 178,162 213,165 213,165 C 207,200 204,217 204,217 L 150,225 C 93,263 64,282 64,282 Z" fill="#A3B9DC" id="id-88753"></path><path d=" M 36,133 C 76,112 96,102 96,102 C 84,129 78,143 78,143 C 98,150 109,154 109,154 L 193,163 C 136,159 108,157 108,157 L 35,137 C 36,134 36,133 36,133 Z" fill="#CCF1FF" id="id-88754"></path><path d=" M 205,48 C 214,62 250,72 283,82 C 279,88 277,90 277,90 C 275,84 274,81 274,81 C 256,78 247,77 247,77 C 209,104 190,117 190,117 C 213,83 225,66 225,66 C 216,62 212,59 212,59 C 194,73 185,80 185,80 L 202,49 C 204,48 205,48 205,48 Z" fill="#A4BADD" id="id-88755"></path><path d=" M 258,87 C 257,79 256,76 256,76 L 275,80 C 264,85 258,87 258,87 Z" fill="#6985AF" id="id-88756"></path><path d=" M 206,48 C 212,54 219,59 227,62 L 236,26 L 211,14 L 206,14 C 206,36 206,48 206,48 Z" fill="#859EC4" id="id-88757"></path><path d=" M 206,48 C 209,48 210,48 210,48 C 211,25 211,14 211,14 L 206,13 C 206,36 206,48 206,48 Z" fill="#CDF2FF" id="id-88758"></path><path d=" M 290,80 C 279,75 274,72 274,72 C 278,52 280,42 280,42 L 297,41 C 292,67 290,80 290,80 Z" fill="#A4BADD" id="id-88759"></path><path d=" M 310,77 C 300,67 294,62 294,62 L 304,50 L 320,62 C 314,72 310,77 310,77 Z" fill="#3A659A" id="id-88760"></path><path d=" M 329,79 C 337,58 341,48 341,48 L 336,79 C 332,79 329,79 329,79 Z" fill="#396399" id="id-88761"></path><path d=" M 307,41 C 332,43 344,45 344,45 C 335,41 330,40 330,40 C 351,36 351,34 356,31 C 347,36 331,39 307,41 Z" fill="#315B8E" id="id-88762"></path><path d=" M 365,25 L 359,2 C 368,4 378,5 385,9 C 377,18 370,23 365,25 Z" fill="#3A659A" id="id-88763"></path><path d=" M 355,72 C 360,75 363,76 363,76 C 385,78 397,78 397,78 C 388,68 384,58 385,51 L 393,44 L 389,42 C 377,58 366,68 355,72 Z" fill="#BDCEEA" id="id-88764"></path><path d=" M 473,160 L 567,131 C 533,97 451,69 394,45 L 385,50 C 384,63 392,70 397,78 L 363,76 C 436,132 473,160 473,160 Z" fill="#DAEAFB" id="id-88765"></path><path d=" M 363,68 C 383,71 393,73 393,73 C 390,67 388,64 388,64 L 383,60 C 384,54 385,50 385,50 C 388,47 389,46 389,46 L 387,44 C 377,57 369,65 363,68 Z" fill="#A4BADD" id="id-88766"></path><path d=" M 418,80 C 460,99 481,109 481,109 C 492,96 497,89 497,89 C 477,79 452,69 428,58 C 422,73 418,80 418,80 Z" fill="#61BCF4" id="id-88767"></path><path d=" M 431,86 L 418,80 C 425,66 428,58 428,58 L 443,65 L 431,86 Z" fill="#13263B" id="id-88768"></path><path d=" M 474,167 C 509,175 527,180 527,180 L 551,285 L 489,248 C 479,194 474,167 474,167 Z" fill="#9FB5DA" id="id-88769"></path><path d=" M 99,100 C 110,113 116,119 116,119 C 156,100 177,90 177,90 L 167,66 C 122,88 99,100 99,100 Z" fill="#61BDF4" id="id-88770"></path><path d=" M 99,100 C 110,113 116,119 116,119 C 122,116 125,115 125,115 L 101,98 L 99,100 Z" fill="#008BC9" id="id-88771"></path><path d=" M 108,103 C 137,88 151,81 151,81 L 152,73 L 101,98 C 106,102 108,103 108,103 Z" fill="#41FFFF" id="id-88772"></path><polygon points="163 97 152 73 167 66 177 90" fill="#13263B" id="id-88773"></polygon><path d=" M 80,142 C 99,149 108,153 108,153 L 137,129 C 99,138 80,142 80,142 Z" fill="#A4BADD" id="id-88774"></path><path d=" M 13,262 C 35,256 46,253 46,253 C 55,199 60,173 60,173 L 26,164 C 19,194 15,227 13,262 Z" fill="#122338" id="id-88775"></path><path d=" M 17,216 C 33,217 41,218 41,218 C 43,211 44,207 44,207 L 19,205 C 17,213 17,216 17,216 Z" fill="#FEF584" id="id-88776"></path><path d=" M 20,196 C 36,196 45,196 45,196 C 46,188 47,183 47,183 L 22,182 C 20,191 20,196 20,196 Z" fill="#FEF584" id="id-88777"></path><path d=" M 206,10 C 220,3 227,0 227,0 L 229,19 C 214,13 206,10 206,10 Z" fill="#3A659A" id="id-88778"></path></g></g><defs><radialGradient cx="69%" cy="23%" r="99%" id="id-104444" fx="69%" fy="23%" gradientTransform=" translate(0.693,0.233) scale(0.680,1) rotate(90) scale(1,1) translate(-0.693,-0.233)"><stop stop-color="#037DC7" offset="0%"></stop><stop stop-color="#000E16" offset="75%"></stop><stop stop-color="#3F1226" offset="100%"></stop></radialGradient><radialGradient cx="50%" cy="50%" r="74%" id="id-104445" fx="50%" fy="50%" gradientTransform=" translate(0.500,0.500) scale(0.680,1) rotate(-158) scale(1,1) translate(-0.500,-0.500)"><stop stop-color="#FFFFFF" offset="0%" stop-opacity="0"></stop><stop stop-color="#FFFFFF" offset="92%" stop-opacity="0"></stop><stop stop-color="#FFFFFF" offset="100%"></stop></radialGradient><linearGradient x1="50%" y1="0%" x2="50%" y2="100%" id="id-104446"><stop stop-color="#E2EAF1" offset="0%"></stop><stop stop-color="#625763" offset="100%"></stop></linearGradient><linearGradient x1="100%" y1="50%" x2="0%" y2="50%" id="id-104447"><stop stop-color="#302D1C" offset="0%"></stop><stop stop-color="#101010" offset="52%"></stop><stop stop-color="#282719" offset="100%"></stop></linearGradient></defs><g transform=" translate(503,220)" id="id-104448"><path d=" M 78,211 C 78,214 79,216 79,216 C 94,210 114,208 135,206 C 141,195 148,189 155,189 C 165,189 176,205 176,205 C 204,210 217,212 217,212 C 227,218 232,221 232,221 L 235,210 L 156,179 C 104,201 78,211 78,211 Z" fill="#532217" fill-opacity="0.428" id="id-104449"></path><path d=" M 53,246 C 40,262 34,270 34,270 C 15,274 5,277 5,277 C 32,238 45,218 45,218 C 43,210 41,206 41,206 C 39,207 38,207 38,207 C 31,188 27,178 27,178 C 29,177 30,177 30,177 C 30,175 30,175 30,175 C 35,172 38,171 38,171 C 54,90 62,50 62,50 C 55,36 48,23 47,6 C 74,21 88,29 88,29 C 174,30 217,31 217,31 C 247,10 262,0 262,0 C 257,18 252,35 245,49 C 258,57 264,61 264,61 C 288,51 300,46 300,46 C 301,45 301,45 301,45 C 307,42 310,40 310,40 C 312,44 313,46 313,46 C 307,49 303,51 303,51 C 302,50 302,49 302,49 C 279,62 267,68 267,68 C 270,136 271,170 271,170 C 278,174 282,176 282,176 C 273,194 268,203 268,203 C 267,202 266,202 266,202 C 262,209 261,212 261,212 C 292,255 308,277 308,277 C 288,273 278,271 278,271 C 265,254 259,246 259,246 C 262,241 271,239 265,226 C 247,238 238,244 238,244 C 234,241 232,240 232,240 C 229,241 227,242 227,242 C 232,223 234,214 234,214 C 182,191 156,179 156,179 C 104,201 78,212 78,212 C 84,235 87,247 87,247 C 79,247 75,247 75,247 L 47,225 C 42,234 44,241 53,246 Z" fill="#101010" id="id-104450"></path><path d=" M 5,277 C 2,277 0,277 0,277 L 44,215 L 45,218 C 19,257 5,277 5,277 Z" fill="#FBFBFB" id="id-104451"></path><path d=" M 43,214 C 38,213 36,213 36,213 C 26,184 21,170 21,170 L 23,163 C 36,197 43,214 43,214 Z" fill="#D20000" id="id-104452"></path><path d=" M 27,185 C 29,184 30,183 30,183 C 28,177 26,174 26,174 L 22,173 C 25,181 27,185 27,185 Z" fill="#F5EFEC" id="id-104453"></path><path d=" M 30,175 C 26,166 24,161 24,161 C 29,156 31,153 31,153 L 37,171 C 32,173 30,175 30,175 Z" fill="#4A4525" id="id-104454"></path><path d=" M 277,155 C 271,169 269,176 269,176 C 272,177 274,178 274,178 C 278,176 280,174 280,174 C 283,168 285,165 285,165 L 278,159 C 277,157 277,155 277,155 Z" fill="#4E4927" id="id-104455"></path><path d=" M 264,210 C 268,210 270,210 270,210 C 282,186 288,174 288,174 L 286,166 C 271,195 264,210 264,210 Z" fill="#D20000" id="id-104456"></path><path d=" M 278,182 C 281,183 282,183 282,183 C 285,178 286,175 286,175 L 284,170 C 280,178 278,182 278,182 Z" fill="#F5EFEC" id="id-104457"></path><path d=" M 308,277 C 310,277 311,277 311,277 L 263,209 L 261,212 C 292,255 308,277 308,277 Z" fill="#514F28" id="id-104458"></path><path d=" M 238,214 C 289,164 295,109 257,50 C 185,37 116,37 51,52 C 5,111 30,181 69,214 C 100,208 121,205 134,205 C 151,176 164,182 176,205 C 214,206 240,213 238,214 Z" fill="url(#id-104444)" id="id-104459"></path><path d=" M 238,214 C 289,164 295,109 257,50 C 185,37 116,37 51,52 C 5,111 30,181 69,214 C 100,208 121,205 134,205 C 151,176 164,182 176,205 C 214,206 240,213 238,214 Z" fill="url(#id-104445)" opacity="0.703" id="id-104460"></path><path d=" M 233,228 C 217,238 208,243 208,243 C 205,241 204,240 204,240 C 200,245 198,248 198,248 C 204,252 206,254 206,254 C 209,249 211,246 211,246 L 231,236 C 233,231 233,228 233,228 Z" fill="#000000" id="id-104461"></path><path d=" M 103,208 C 90,210 84,211 84,211 C 64,176 56,140 60,105 C 71,94 81,90 90,93 C 85,119 85,139 88,153 C 82,151 78,152 75,156 C 78,169 82,182 89,193 L 97,193 C 101,203 103,208 103,208 Z" fill="url(#id-104446)" id="id-104462"></path><path d=" M 33,84 C 43,66 49,58 49,58 C 63,54 70,51 70,51 C 72,53 72,53 72,53 C 66,69 63,79 63,85 C 82,84 92,83 92,83 C 95,70 99,57 106,43 C 88,45 69,48 51,52 C 44,60 38,71 33,84 Z" fill="#C7D7E5" id="id-104463"></path><path d=" M 127,41 C 134,45 137,47 137,47 L 146,41 C 133,41 127,41 127,41 Z" fill="#BACFE0" id="id-104464"></path><path d=" M 257,143 C 249,146 246,148 246,148 L 248,133 C 254,140 257,143 257,143 Z" fill="#8FB0CD" id="id-104465"></path><path d=" M 247,122 C 257,122 261,122 261,122 C 260,92 256,68 249,52 L 233,49 C 242,75 247,99 247,122 Z" fill="#8FB0CD" id="id-104466"></path><path d=" M 257,50 C 253,50 250,49 250,49 C 259,59 267,69 273,83 C 272,76 266,65 257,50 Z" fill="#99BAD5" id="id-104467"></path><path d=" M 66,49 C 90,22 120,9 155,10 C 191,12 218,24 237,47 C 183,38 126,38 66,49 Z" fill="url(#id-104447)" id="id-104468"></path><path d=" M 74,44 C 92,29 116,18 145,11 C 128,13 114,16 103,22 C 84,31 74,44 74,44 Z" fill="#F6F6F6" id="id-104469"></path><path d=" M 198,42 C 201,43 202,43 202,43 C 192,24 187,15 187,15 L 180,14 C 188,23 194,33 198,42 Z" fill="#D40000" id="id-104470"></path><path d=" M 47,6 L 45,0 L 88,29 C 61,13 47,6 47,6 Z" fill="#E9E9EA" id="id-104471"></path><path d=" M 49,58 L 51,52 C 73,47 90,45 106,43 L 105,46 L 70,52 L 49,58 Z" fill="#E5EBF2" id="id-104472"></path><path d=" M 108,191 C 112,184 114,181 114,181 C 120,185 123,188 123,188 L 118,198 C 111,193 108,191 108,191 Z" fill="#FAFF00" id="id-104473"></path><path d=" M 215,191 C 212,185 210,181 210,181 L 228,184 C 219,189 215,191 215,191 Z" fill="#FAFF00" id="id-104474"></path></g><defs></defs><path d=" M 1202,1685 C 1201,1683 1198,1681 1197,1679 C 1196,1678 1196,1676 1196,1675 C 1196,1674 1194,1672 1193,1671 C 1193,1670 1192,1669 1192,1668 C 1192,1667 1195,1666 1196,1665 C 1198,1663 1200,1661 1202,1658 C 1207,1649 1216,1643 1226,1641 C 1240,1638 1254,1644 1263,1655 C 1264,1657 1266,1660 1265,1663 C 1265,1664 1263,1665 1263,1666 C 1263,1667 1265,1669 1266,1670 C 1271,1673 1269,1673 1270,1678 C 1270,1682 1274,1681 1274,1685 L 1274,1685 L 1274,1686 C 1274,1686 1274,1686 1274,1686 C 1273,1688 1271,1688 1270,1689 C 1268,1691 1267,1692 1266,1694 C 1263,1698 1261,1700 1258,1704 C 1242,1719 1214,1716 1202,1696 C 1201,1695 1199,1691 1200,1689 C 1201,1688 1202,1688 1202,1685 L 1202,1685 Z M 1268,1685 C 1267,1682 1265,1682 1264,1679 C 1264,1678 1264,1677 1264,1676 C 1264,1675 1264,1674 1264,1674 C 1264,1673 1263,1672 1262,1672 C 1260,1670 1256,1669 1258,1665 C 1259,1662 1261,1662 1258,1658 C 1246,1643 1223,1641 1210,1656 C 1209,1658 1208,1659 1207,1661 C 1205,1663 1202,1665 1200,1667 C 1197,1669 1197,1669 1200,1671 C 1203,1675 1201,1676 1203,1679 C 1204,1681 1207,1682 1208,1685 L 1208,1685 L 1208,1685 C 1207,1690 1203,1688 1207,1694 C 1216,1706 1232,1711 1246,1705 C 1249,1704 1252,1702 1255,1699 C 1257,1697 1259,1694 1261,1691 C 1263,1689 1267,1687 1268,1685 L 1268,1685 Z M 1254,1685 C 1254,1682 1252,1682 1252,1680 C 1251,1677 1251,1673 1255,1674 C 1258,1675 1256,1678 1258,1680 C 1259,1682 1260,1682 1260,1685 L 1261,1686 L 1260,1686 C 1259,1688 1257,1689 1255,1690 C 1248,1694 1246,1699 1237,1700 C 1231,1701 1225,1700 1221,1697 C 1219,1696 1216,1694 1215,1692 C 1213,1689 1216,1688 1216,1685 C 1215,1683 1212,1682 1211,1680 C 1208,1677 1210,1673 1214,1674 L 1214,1674 L 1215,1675 C 1216,1678 1215,1679 1217,1681 C 1219,1682 1222,1683 1222,1686 C 1222,1689 1220,1690 1224,1692 C 1230,1696 1238,1695 1244,1691 C 1246,1690 1253,1687 1254,1685 L 1254,1685 Z M 1244,1674 C 1242,1675 1239,1674 1237,1673 C 1236,1672 1233,1670 1232,1669 C 1231,1669 1231,1668 1231,1667 C 1231,1666 1233,1665 1234,1664 C 1235,1662 1237,1661 1238,1659 C 1242,1652 1249,1658 1247,1663 C 1246,1665 1243,1666 1243,1668 C 1243,1670 1246,1671 1244,1674 L 1244,1674 L 1244,1674 L 1244,1674 Z M 1222,1656 C 1224,1655 1227,1656 1228,1659 C 1229,1660 1229,1661 1229,1663 C 1228,1665 1223,1666 1225,1669 C 1225,1670 1226,1670 1226,1671 C 1227,1674 1226,1675 1223,1675 C 1222,1675 1219,1673 1218,1672 C 1216,1671 1212,1669 1214,1666 C 1215,1664 1217,1664 1218,1662 C 1219,1660 1220,1658 1222,1656 L 1222,1656 Z" fill="#343D53" opacity="0.297" id="id-77051"></path></svg>