<?xml version="1.0" encoding="UTF-8"?><svg width="1320px" height="1760px" viewBox="0 0 1320 1760" version="1.1" xmlns="http://www.w3.org/2000/svg" xmlns:xlink="http://www.w3.org/1999/xlink"><defs><path d=" M 18,290 C 9,279 4,273 4,273 L 16,254 C 17,278 18,290 18,290 Z" id="id-31730"></path><filter width="1106%" height="475%" x="-503%" y="-187%" id="id-31731" filterUnits="objectBoundingBox"><feMorphology result="id-31732" in="SourceAlpha" operator="dilate" radius="0.500"></feMorphology><feOffset result="id-31733" in="SourceGraphic" dx="0" dy="0"></feOffset><feGaussianBlur result="id-31735" in="SourceGraphic" stdDeviation="22"></feGaussianBlur><feColorMatrix in="SourceGraphic" type="matrix" values="0 0 0 0 0.937 0 0 0 0 0 0 0 0 0 0.916 0 0 0 0.905 0"></feColorMatrix></filter><path d=" M 36,216 C 23,159 11,107 0,60 C 4,-8 86,-23 112,39 C 128,94 136,122 136,122 C 168,109 203,106 244,121 C 259,68 266,42 266,42 C 280,3 323,-12 355,11 C 352,21 350,26 350,26 C 361,23 367,22 367,22 C 372,29 375,32 375,32 C 361,47 354,54 354,54 C 347,19 306,18 292,48 C 271,120 261,157 261,157 C 212,131 170,132 119,157 C 99,84 89,48 89,48 C 73,13 24,21 27,63 C 52,167 64,219 64,219 C 26,315 91,391 158,406 C 151,414 144,421 137,428 C 106,421 -8,353 36,216 Z" id="id-31738"></path><filter width="135%" height="131%" x="-18%" y="-15%" id="id-31739" filterUnits="objectBoundingBox"><feMorphology result="id-31732" in="SourceAlpha" operator="dilate" radius="0.500"></feMorphology><feOffset result="id-31733" in="SourceGraphic" dx="0" dy="0"></feOffset><feGaussianBlur result="id-31735" in="SourceGraphic" stdDeviation="22"></feGaussianBlur><feColorMatrix in="SourceGraphic" type="matrix" values="0 0 0 0 0.937 0 0 0 0 0 0 0 0 0 0.916 0 0 0 0.905 0"></feColorMatrix></filter><path d=" M 80,238 C 93,225 99,219 99,219 C 112,232 119,239 119,239 C 131,226 138,219 138,219 C 150,232 156,238 156,238 C 143,251 137,257 137,257 C 150,270 156,276 156,276 C 143,289 137,295 137,295 C 125,282 119,276 119,276 C 106,288 99,295 99,295 C 87,282 81,276 81,276 L 99,257 C 87,244 80,238 80,238 Z" id="id-31746"></path><filter width="278%" height="275%" x="-90%" y="-87%" id="id-31747" filterUnits="objectBoundingBox"><feMorphology result="id-31732" in="SourceAlpha" operator="dilate" radius="0.500"></feMorphology><feOffset result="id-31733" in="SourceGraphic" dx="0" dy="0"></feOffset><feGaussianBlur result="id-31735" in="SourceGraphic" stdDeviation="22"></feGaussianBlur><feColorMatrix in="SourceGraphic" type="matrix" values="0 0 0 0 0.937 0 0 0 0 0 0 0 0 0 0.916 0 0 0 0.905 0"></feColorMatrix></filter><path d=" M 224,276 C 236,263 243,257 243,257 C 230,244 224,237 224,237 C 237,225 243,219 243,219 C 255,232 261,238 261,238 C 275,226 281,219 281,219 C 293,232 299,238 299,238 C 286,251 280,257 280,257 C 293,270 300,277 300,277 C 287,289 281,295 281,295 C 268,282 262,276 262,276 L 243,296 C 230,283 224,276 224,276 Z" id="id-31754"></path><filter width="275%" height="273%" x="-87%" y="-86%" id="id-31755" filterUnits="objectBoundingBox"><feMorphology result="id-31732" in="SourceAlpha" operator="dilate" radius="0.500"></feMorphology><feOffset result="id-31733" in="SourceGraphic" dx="0" dy="0"></feOffset><feGaussianBlur result="id-31735" in="SourceGraphic" stdDeviation="22"></feGaussianBlur><feColorMatrix in="SourceGraphic" type="matrix" values="0 0 0 0 0.937 0 0 0 0 0 0 0 0 0 0.916 0 0 0 0.905 0"></feColorMatrix></filter><path d=" M 267,160 C 278,120 284,100 284,100 L 274,165 C 269,161 267,160 267,160 Z" id="id-31762"></path><filter width="861%" height="328%" x="-374%" y="-124%" id="id-31763" filterUnits="objectBoundingBox"><feMorphology result="id-31732" in="SourceAlpha" operator="dilate" radius="0.500"></feMorphology><feOffset result="id-31733" in="SourceGraphic" dx="0" dy="0"></feOffset><feGaussianBlur result="id-31735" in="SourceGraphic" stdDeviation="22"></feGaussianBlur><feColorMatrix in="SourceGraphic" type="matrix" values="0 0 0 0 0.937 0 0 0 0 0 0 0 0 0 0.916 0 0 0 0.905 0"></feColorMatrix></filter><path d=" M 360,272 C 357,293 355,304 355,304 C 354,313 353,317 353,317 L 370,302 C 364,282 360,272 360,272 Z" id="id-31770"></path><filter width="877%" height="402%" x="-389%" y="-153%" id="id-31771" filterUnits="objectBoundingBox"><feMorphology result="id-31732" in="SourceAlpha" operator="dilate" radius="0.500"></feMorphology><feOffset result="id-31733" in="SourceGraphic" dx="0" dy="0"></feOffset><feGaussianBlur result="id-31735" in="SourceGraphic" stdDeviation="22"></feGaussianBlur><feColorMatrix in="SourceGraphic" type="matrix" values="0 0 0 0 0.937 0 0 0 0 0 0 0 0 0 0.916 0 0 0 0.905 0"></feColorMatrix></filter><path d=" M 353,63 C 370,52 379,46 379,46 C 382,55 379,63 378,72 C 355,168 344,216 344,216 C 381,362 265,459 151,431 C 160,415 165,407 165,407 C 272,426 354,322 316,219 C 341,115 353,63 353,63 Z" id="id-31778"></path><filter width="158%" height="134%" x="-29%" y="-17%" id="id-31779" filterUnits="objectBoundingBox"><feMorphology result="id-31732" in="SourceAlpha" operator="dilate" radius="0.500"></feMorphology><feOffset result="id-31733" in="SourceGraphic" dx="0" dy="0"></feOffset><feGaussianBlur result="id-31735" in="SourceGraphic" stdDeviation="22"></feGaussianBlur><feColorMatrix in="SourceGraphic" type="matrix" values="0 0 0 0 0.937 0 0 0 0 0 0 0 0 0 0.916 0 0 0 0.905 0"></feColorMatrix></filter><path d=" M 158,336 C 158,316 169,299 191,300 C 206,299 222,312 222,335 C 180,336 158,336 158,336 Z" id="id-31786"></path><filter width="309%" height="468%" x="-104%" y="-184%" id="id-31787" filterUnits="objectBoundingBox"><feMorphology result="id-31732" in="SourceAlpha" operator="dilate" radius="0.500"></feMorphology><feOffset result="id-31733" in="SourceGraphic" dx="0" dy="0"></feOffset><feGaussianBlur result="id-31735" in="SourceGraphic" stdDeviation="22"></feGaussianBlur><feColorMatrix in="SourceGraphic" type="matrix" values="0 0 0 0 0.937 0 0 0 0 0 0 0 0 0 0.916 0 0 0 0.905 0"></feColorMatrix></filter><path d=" M 18,290 C 9,279 4,273 4,273 L 16,254 C 17,278 18,290 18,290 Z" id="id-31794"></path><filter width="1106%" height="475%" x="-503%" y="-187%" id="id-31795" filterUnits="objectBoundingBox"><feMorphology result="id-31732" in="SourceAlpha" operator="dilate" radius="0.500"></feMorphology><feOffset result="id-31733" in="SourceGraphic" dx="0" dy="0"></feOffset><feGaussianBlur result="id-31735" in="SourceGraphic" stdDeviation="22"></feGaussianBlur><feColorMatrix in="SourceGraphic" type="matrix" values="0 0 0 0 0.937 0 0 0 0 0 0 0 0 0 0.916 0 0 0 0.905 0"></feColorMatrix></filter><path d=" M 36,216 C 23,159 11,107 0,60 C 4,-8 86,-23 112,39 C 128,94 136,122 136,122 C 168,109 203,106 244,121 C 259,68 266,42 266,42 C 280,3 323,-12 355,11 C 352,21 350,26 350,26 C 361,23 367,22 367,22 C 372,29 375,32 375,32 C 361,47 354,54 354,54 C 347,19 306,18 292,48 C 271,120 261,157 261,157 C 212,131 170,132 119,157 C 99,84 89,48 89,48 C 73,13 24,21 27,63 C 52,167 64,219 64,219 C 26,315 91,391 158,406 C 151,414 144,421 137,428 C 106,421 -8,353 36,216 Z" id="id-31802"></path><filter width="135%" height="131%" x="-18%" y="-15%" id="id-31803" filterUnits="objectBoundingBox"><feMorphology result="id-31732" in="SourceAlpha" operator="dilate" radius="0.500"></feMorphology><feOffset result="id-31733" in="SourceGraphic" dx="0" dy="0"></feOffset><feGaussianBlur result="id-31735" in="SourceGraphic" stdDeviation="22"></feGaussianBlur><feColorMatrix in="SourceGraphic" type="matrix" values="0 0 0 0 0.937 0 0 0 0 0 0 0 0 0 0.916 0 0 0 0.905 0"></feColorMatrix></filter><path d=" M 80,238 C 93,225 99,219 99,219 C 112,232 119,239 119,239 C 131,226 138,219 138,219 C 150,232 156,238 156,238 C 143,251 137,257 137,257 C 150,270 156,276 156,276 C 143,289 137,295 137,295 C 125,282 119,276 119,276 C 106,288 99,295 99,295 C 87,282 81,276 81,276 L 99,257 C 87,244 80,238 80,238 Z" id="id-31810"></path><filter width="278%" height="275%" x="-90%" y="-87%" id="id-31811" filterUnits="objectBoundingBox"><feMorphology result="id-31732" in="SourceAlpha" operator="dilate" radius="0.500"></feMorphology><feOffset result="id-31733" in="SourceGraphic" dx="0" dy="0"></feOffset><feGaussianBlur result="id-31735" in="SourceGraphic" stdDeviation="22"></feGaussianBlur><feColorMatrix in="SourceGraphic" type="matrix" values="0 0 0 0 0.937 0 0 0 0 0 0 0 0 0 0.916 0 0 0 0.905 0"></feColorMatrix></filter><path d=" M 224,276 C 236,263 243,257 243,257 C 230,244 224,237 224,237 C 237,225 243,219 243,219 C 255,232 261,238 261,238 C 275,226 281,219 281,219 C 293,232 299,238 299,238 C 286,251 280,257 280,257 C 293,270 300,277 300,277 C 287,289 281,295 281,295 C 268,282 262,276 262,276 L 243,296 C 230,283 224,276 224,276 Z" id="id-31818"></path><filter width="275%" height="273%" x="-87%" y="-86%" id="id-31819" filterUnits="objectBoundingBox"><feMorphology result="id-31732" in="SourceAlpha" operator="dilate" radius="0.500"></feMorphology><feOffset result="id-31733" in="SourceGraphic" dx="0" dy="0"></feOffset><feGaussianBlur result="id-31735" in="SourceGraphic" stdDeviation="22"></feGaussianBlur><feColorMatrix in="SourceGraphic" type="matrix" values="0 0 0 0 0.937 0 0 0 0 0 0 0 0 0 0.916 0 0 0 0.905 0"></feColorMatrix></filter><path d=" M 267,160 C 278,120 284,100 284,100 L 274,165 C 269,161 267,160 267,160 Z" id="id-31826"></path><filter width="861%" height="328%" x="-374%" y="-124%" id="id-31827" filterUnits="objectBoundingBox"><feMorphology result="id-31732" in="SourceAlpha" operator="dilate" radius="0.500"></feMorphology><feOffset result="id-31733" in="SourceGraphic" dx="0" dy="0"></feOffset><feGaussianBlur result="id-31735" in="SourceGraphic" stdDeviation="22"></feGaussianBlur><feColorMatrix in="SourceGraphic" type="matrix" values="0 0 0 0 0.937 0 0 0 0 0 0 0 0 0 0.916 0 0 0 0.905 0"></feColorMatrix></filter><path d=" M 360,272 C 357,293 355,304 355,304 C 354,313 353,317 353,317 L 370,302 C 364,282 360,272 360,272 Z" id="id-31834"></path><filter width="877%" height="402%" x="-389%" y="-153%" id="id-31835" filterUnits="objectBoundingBox"><feMorphology result="id-31732" in="SourceAlpha" operator="dilate" radius="0.500"></feMorphology><feOffset result="id-31733" in="SourceGraphic" dx="0" dy="0"></feOffset><feGaussianBlur result="id-31735" in="SourceGraphic" stdDeviation="22"></feGaussianBlur><feColorMatrix in="SourceGraphic" type="matrix" values="0 0 0 0 0.937 0 0 0 0 0 0 0 0 0 0.916 0 0 0 0.905 0"></feColorMatrix></filter><path d=" M 353,63 C 370,52 379,46 379,46 C 382,55 379,63 378,72 C 355,168 344,216 344,216 C 381,362 265,459 151,431 C 160,415 165,407 165,407 C 272,426 354,322 316,219 C 341,115 353,63 353,63 Z" id="id-31842"></path><filter width="158%" height="134%" x="-29%" y="-17%" id="id-31843" filterUnits="objectBoundingBox"><feMorphology result="id-31732" in="SourceAlpha" operator="dilate" radius="0.500"></feMorphology><feOffset result="id-31733" in="SourceGraphic" dx="0" dy="0"></feOffset><feGaussianBlur result="id-31735" in="SourceGraphic" stdDeviation="22"></feGaussianBlur><feColorMatrix in="SourceGraphic" type="matrix" values="0 0 0 0 0.937 0 0 0 0 0 0 0 0 0 0.916 0 0 0 0.905 0"></feColorMatrix></filter><path d=" M 158,336 C 158,316 169,299 191,300 C 206,299 222,312 222,335 C 180,336 158,336 158,336 Z" id="id-31850"></path><filter width="309%" height="468%" x="-104%" y="-184%" id="id-31851" filterUnits="objectBoundingBox"><feMorphology result="id-31732" in="SourceAlpha" operator="dilate" radius="0.500"></feMorphology><feOffset result="id-31733" in="SourceGraphic" dx="0" dy="0"></feOffset><feGaussianBlur result="id-31735" in="SourceGraphic" stdDeviation="22"></feGaussianBlur><feColorMatrix in="SourceGraphic" type="matrix" values="0 0 0 0 0.937 0 0 0 0 0 0 0 0 0 0.916 0 0 0 0.905 0"></feColorMatrix></filter><path d=" M 18,290 C 9,279 4,273 4,273 L 16,254 C 17,278 18,290 18,290 Z" id="id-31858"></path><filter width="1106%" height="475%" x="-503%" y="-187%" id="id-31859" filterUnits="objectBoundingBox"><feMorphology result="id-31732" in="SourceAlpha" operator="dilate" radius="0.500"></feMorphology><feOffset result="id-31733" in="SourceGraphic" dx="0" dy="0"></feOffset><feGaussianBlur result="id-31735" in="SourceGraphic" stdDeviation="22"></feGaussianBlur><feColorMatrix in="SourceGraphic" type="matrix" values="0 0 0 0 0.937 0 0 0 0 0 0 0 0 0 0.916 0 0 0 0.905 0"></feColorMatrix></filter><path d=" M 36,216 C 23,159 11,107 0,60 C 4,-8 86,-23 112,39 C 128,94 136,122 136,122 C 168,109 203,106 244,121 C 259,68 266,42 266,42 C 280,3 323,-12 355,11 C 352,21 350,26 350,26 C 361,23 367,22 367,22 C 372,29 375,32 375,32 C 361,47 354,54 354,54 C 347,19 306,18 292,48 C 271,120 261,157 261,157 C 212,131 170,132 119,157 C 99,84 89,48 89,48 C 73,13 24,21 27,63 C 52,167 64,219 64,219 C 26,315 91,391 158,406 C 151,414 144,421 137,428 C 106,421 -8,353 36,216 Z" id="id-31866"></path><filter width="135%" height="131%" x="-18%" y="-15%" id="id-31867" filterUnits="objectBoundingBox"><feMorphology result="id-31732" in="SourceAlpha" operator="dilate" radius="0.500"></feMorphology><feOffset result="id-31733" in="SourceGraphic" dx="0" dy="0"></feOffset><feGaussianBlur result="id-31735" in="SourceGraphic" stdDeviation="22"></feGaussianBlur><feColorMatrix in="SourceGraphic" type="matrix" values="0 0 0 0 0.937 0 0 0 0 0 0 0 0 0 0.916 0 0 0 0.905 0"></feColorMatrix></filter><path d=" M 80,238 C 93,225 99,219 99,219 C 112,232 119,239 119,239 C 131,226 138,219 138,219 C 150,232 156,238 156,238 C 143,251 137,257 137,257 C 150,270 156,276 156,276 C 143,289 137,295 137,295 C 125,282 119,276 119,276 C 106,288 99,295 99,295 C 87,282 81,276 81,276 L 99,257 C 87,244 80,238 80,238 Z" id="id-31874"></path><filter width="278%" height="275%" x="-90%" y="-87%" id="id-31875" filterUnits="objectBoundingBox"><feMorphology result="id-31732" in="SourceAlpha" operator="dilate" radius="0.500"></feMorphology><feOffset result="id-31733" in="SourceGraphic" dx="0" dy="0"></feOffset><feGaussianBlur result="id-31735" in="SourceGraphic" stdDeviation="22"></feGaussianBlur><feColorMatrix in="SourceGraphic" type="matrix" values="0 0 0 0 0.937 0 0 0 0 0 0 0 0 0 0.916 0 0 0 0.905 0"></feColorMatrix></filter><path d=" M 224,276 C 236,263 243,257 243,257 C 230,244 224,237 224,237 C 237,225 243,219 243,219 C 255,232 261,238 261,238 C 275,226 281,219 281,219 C 293,232 299,238 299,238 C 286,251 280,257 280,257 C 293,270 300,277 300,277 C 287,289 281,295 281,295 C 268,282 262,276 262,276 L 243,296 C 230,283 224,276 224,276 Z" id="id-31882"></path><filter width="275%" height="273%" x="-87%" y="-86%" id="id-31883" filterUnits="objectBoundingBox"><feMorphology result="id-31732" in="SourceAlpha" operator="dilate" radius="0.500"></feMorphology><feOffset result="id-31733" in="SourceGraphic" dx="0" dy="0"></feOffset><feGaussianBlur result="id-31735" in="SourceGraphic" stdDeviation="22"></feGaussianBlur><feColorMatrix in="SourceGraphic" type="matrix" values="0 0 0 0 0.937 0 0 0 0 0 0 0 0 0 0.916 0 0 0 0.905 0"></feColorMatrix></filter><path d=" M 267,160 C 278,120 284,100 284,100 L 274,165 C 269,161 267,160 267,160 Z" id="id-31890"></path><filter width="861%" height="328%" x="-374%" y="-124%" id="id-31891" filterUnits="objectBoundingBox"><feMorphology result="id-31732" in="SourceAlpha" operator="dilate" radius="0.500"></feMorphology><feOffset result="id-31733" in="SourceGraphic" dx="0" dy="0"></feOffset><feGaussianBlur result="id-31735" in="SourceGraphic" stdDeviation="22"></feGaussianBlur><feColorMatrix in="SourceGraphic" type="matrix" values="0 0 0 0 0.937 0 0 0 0 0 0 0 0 0 0.916 0 0 0 0.905 0"></feColorMatrix></filter><path d=" M 360,272 C 357,293 355,304 355,304 C 354,313 353,317 353,317 L 370,302 C 364,282 360,272 360,272 Z" id="id-31898"></path><filter width="877%" height="402%" x="-389%" y="-153%" id="id-31899" filterUnits="objectBoundingBox"><feMorphology result="id-31732" in="SourceAlpha" operator="dilate" radius="0.500"></feMorphology><feOffset result="id-31733" in="SourceGraphic" dx="0" dy="0"></feOffset><feGaussianBlur result="id-31735" in="SourceGraphic" stdDeviation="22"></feGaussianBlur><feColorMatrix in="SourceGraphic" type="matrix" values="0 0 0 0 0.937 0 0 0 0 0 0 0 0 0 0.916 0 0 0 0.905 0"></feColorMatrix></filter><path d=" M 353,63 C 370,52 379,46 379,46 C 382,55 379,63 378,72 C 355,168 344,216 344,216 C 381,362 265,459 151,431 C 160,415 165,407 165,407 C 272,426 354,322 316,219 C 341,115 353,63 353,63 Z" id="id-31906"></path><filter width="158%" height="134%" x="-29%" y="-17%" id="id-31907" filterUnits="objectBoundingBox"><feMorphology result="id-31732" in="SourceAlpha" operator="dilate" radius="0.500"></feMorphology><feOffset result="id-31733" in="SourceGraphic" dx="0" dy="0"></feOffset><feGaussianBlur result="id-31735" in="SourceGraphic" stdDeviation="22"></feGaussianBlur><feColorMatrix in="SourceGraphic" type="matrix" values="0 0 0 0 0.937 0 0 0 0 0 0 0 0 0 0.916 0 0 0 0.905 0"></feColorMatrix></filter><path d=" M 158,336 C 158,316 169,299 191,300 C 206,299 222,312 222,335 C 180,336 158,336 158,336 Z" id="id-31914"></path><filter width="309%" height="468%" x="-104%" y="-184%" id="id-31915" filterUnits="objectBoundingBox"><feMorphology result="id-31732" in="SourceAlpha" operator="dilate" radius="0.500"></feMorphology><feOffset result="id-31733" in="SourceGraphic" dx="0" dy="0"></feOffset><feGaussianBlur result="id-31735" in="SourceGraphic" stdDeviation="22"></feGaussianBlur><feColorMatrix in="SourceGraphic" type="matrix" values="0 0 0 0 0.937 0 0 0 0 0 0 0 0 0 0.916 0 0 0 0.905 0"></feColorMatrix></filter></defs><g stroke="none" stroke-width="1" fill="none" id="id-31922" fill-rule="evenodd"><g id="id-31923"><rect fill="#969696" width="1320" height="1760" x="0" y="0" id="id-31924"></rect><g transform=" translate(38,417)" id="id-31925"><g id="id-31926"><use fill="#000000" fill-opacity="1" xlink:href="#id-31730" filter="url(#id-31731)"></use><use fill="#EF00C9" xlink:href="#id-31730" fill-rule="evenodd"></use></g><g id="id-31930"><use fill="#000000" fill-opacity="1" xlink:href="#id-31738" filter="url(#id-31739)"></use><use fill="#EF00C9" xlink:href="#id-31738" fill-rule="evenodd"></use></g><g id="id-31934"><use fill="#000000" fill-opacity="1" xlink:href="#id-31746" filter="url(#id-31747)"></use><use fill="#EF00C9" xlink:href="#id-31746" fill-rule="evenodd"></use></g><g id="id-31938"><use fill="#000000" fill-opacity="1" xlink:href="#id-31754" filter="url(#id-31755)"></use><use fill="#EF00C9" xlink:href="#id-31754" fill-rule="evenodd"></use></g><g id="id-31942"><use fill="#000000" fill-opacity="1" xlink:href="#id-31762" filter="url(#id-31763)"></use><use fill="#EF00C9" xlink:href="#id-31762" fill-rule="evenodd"></use></g><g id="id-31946"><use fill="#000000" fill-opacity="1" xlink:href="#id-31770" filter="url(#id-31771)"></use><use fill="#EF00C9" xlink:href="#id-31770" fill-rule="evenodd"></use></g><g id="id-31950"><use fill="#000000" fill-opacity="1" xlink:href="#id-31778" filter="url(#id-31779)"></use><use fill="#EF00C9" xlink:href="#id-31778" fill-rule="evenodd"></use></g><g id="id-31954"><use fill="#000000" fill-opacity="1" xlink:href="#id-31786" filter="url(#id-31787)"></use><use fill="#EF00C9" xlink:href="#id-31786" fill-rule="evenodd"></use></g></g><g transform=" translate(467,417)" id="id-31958"><g id="id-31926"><use fill="#000000" fill-opacity="1" xlink:href="#id-31794" filter="url(#id-31795)"></use><use fill="#EF00C9" xlink:href="#id-31794" fill-rule="evenodd"></use></g><g id="id-31930"><use fill="#000000" fill-opacity="1" xlink:href="#id-31802" filter="url(#id-31803)"></use><use fill="#EF00C9" xlink:href="#id-31802" fill-rule="evenodd"></use></g><g id="id-31934"><use fill="#000000" fill-opacity="1" xlink:href="#id-31810" filter="url(#id-31811)"></use><use fill="#EF00C9" xlink:href="#id-31810" fill-rule="evenodd"></use></g><g id="id-31938"><use fill="#000000" fill-opacity="1" xlink:href="#id-31818" filter="url(#id-31819)"></use><use fill="#EF00C9" xlink:href="#id-31818" fill-rule="evenodd"></use></g><g id="id-31942"><use fill="#000000" fill-opacity="1" xlink:href="#id-31826" filter="url(#id-31827)"></use><use fill="#EF00C9" xlink:href="#id-31826" fill-rule="evenodd"></use></g><g id="id-31946"><use fill="#000000" fill-opacity="1" xlink:href="#id-31834" filter="url(#id-31835)"></use><use fill="#EF00C9" xlink:href="#id-31834" fill-rule="evenodd"></use></g><g id="id-31950"><use fill="#000000" fill-opacity="1" xlink:href="#id-31842" filter="url(#id-31843)"></use><use fill="#EF00C9" xlink:href="#id-31842" fill-rule="evenodd"></use></g><g id="id-31954"><use fill="#000000" fill-opacity="1" xlink:href="#id-31850" filter="url(#id-31851)"></use><use fill="#EF00C9" xlink:href="#id-31850" fill-rule="evenodd"></use></g></g><g transform=" translate(894,417)" id="id-31991"><g id="id-31926"><use fill="#000000" fill-opacity="1" xlink:href="#id-31858" filter="url(#id-31859)"></use><use fill="#EF00C9" xlink:href="#id-31858" fill-rule="evenodd"></use></g><g id="id-31930"><use fill="#000000" fill-opacity="1" xlink:href="#id-31866" filter="url(#id-31867)"></use><use fill="#EF00C9" xlink:href="#id-31866" fill-rule="evenodd"></use></g><g id="id-31934"><use fill="#000000" fill-opacity="1" xlink:href="#id-31874" filter="url(#id-31875)"></use><use fill="#EF00C9" xlink:href="#id-31874" fill-rule="evenodd"></use></g><g id="id-31938"><use fill="#000000" fill-opacity="1" xlink:href="#id-31882" filter="url(#id-31883)"></use><use fill="#EF00C9" xlink:href="#id-31882" fill-rule="evenodd"></use></g><g id="id-31942"><use fill="#000000" fill-opacity="1" xlink:href="#id-31890" filter="url(#id-31891)"></use><use fill="#EF00C9" xlink:href="#id-31890" fill-rule="evenodd"></use></g><g id="id-31946"><use fill="#000000" fill-opacity="1" xlink:href="#id-31898" filter="url(#id-31899)"></use><use fill="#EF00C9" xlink:href="#id-31898" fill-rule="evenodd"></use></g><g id="id-31950"><use fill="#000000" fill-opacity="1" xlink:href="#id-31906" filter="url(#id-31907)"></use><use fill="#EF00C9" xlink:href="#id-31906" fill-rule="evenodd"></use></g><g id="id-31954"><use fill="#000000" fill-opacity="1" xlink:href="#id-31914" filter="url(#id-31915)"></use><use fill="#EF00C9" xlink:href="#id-31914" fill-rule="evenodd"></use></g></g></g></g><defs></defs><polygon points="567 465 562 637 539 674 771 671 720 469" fill="#4F9477" id="id-73996"></polygon><defs><linearGradient x1="100%" y1="46%" x2="12%" y2="47%" id="id-74421"><stop stop-color="#C5663D" offset="0%"></stop><stop stop-color="#C1633A" offset="21%"></stop><stop stop-color="#EDA377" offset="46%"></stop><stop stop-color="#EB8C5C" offset="80%"></stop><stop stop-color="#DC7E50" offset="100%"></stop></linearGradient><linearGradient x1="53%" y1="81%" x2="50%" y2="21%" id="id-74422"><stop stop-color="#CD6C5B" offset="0%"></stop><stop stop-color="#DE7862" offset="24%"></stop><stop stop-color="#DF8352" offset="100%"></stop></linearGradient><linearGradient x1="52%" y1="-4%" x2="46%" y2="70%" id="id-74423"><stop stop-color="#BE6352" offset="0%"></stop><stop stop-color="#B25041" offset="100%"></stop></linearGradient><linearGradient x1="46%" y1="43%" x2="15%" y2="43%" id="id-74424"><stop stop-color="#DF8655" offset="0%"></stop><stop stop-color="#B95831" offset="100%"></stop></linearGradient><linearGradient x1="54%" y1="37%" x2="12%" y2="72%" id="id-74425"><stop stop-color="#3C050A" offset="0%"></stop><stop stop-color="#9A4336" offset="100%"></stop></linearGradient><linearGradient x1="40%" y1="14%" x2="61%" y2="85%" id="id-74426"><stop stop-color="#6E1B17" offset="0%"></stop><stop stop-color="#852720" offset="100%"></stop></linearGradient><linearGradient x1="27%" y1="47%" x2="91%" y2="49%" id="id-74427"><stop stop-color="#E19D89" offset="0%"></stop><stop stop-color="#FFBBA2" offset="100%"></stop></linearGradient><linearGradient x1="47%" y1="60%" x2="49%" y2="79%" id="id-74428"><stop stop-color="#E78666" offset="0%"></stop><stop stop-color="#E07C62" offset="60%"></stop><stop stop-color="#ED9F7D" offset="100%"></stop></linearGradient><linearGradient x1="29%" y1="56%" x2="69%" y2="53%" id="id-74429"><stop stop-color="#D47D53" offset="0%"></stop><stop stop-color="#C86443" offset="8%"></stop><stop stop-color="#D9774F" offset="18%"></stop><stop stop-color="#D26B50" offset="38%"></stop><stop stop-color="#D1694C" offset="65%"></stop><stop stop-color="#CD6944" offset="81%"></stop><stop stop-color="#BE5B3F" offset="100%"></stop></linearGradient><linearGradient x1="47%" y1="45%" x2="54%" y2="46%" id="id-74430"><stop stop-color="#D26A4C" offset="0%"></stop><stop stop-color="#C96947" offset="62%"></stop><stop stop-color="#BC5B3A" offset="77%"></stop><stop stop-color="#D18459" offset="100%"></stop></linearGradient><linearGradient x1="51%" y1="7%" x2="50%" y2="100%" id="id-74431"><stop stop-color="#D26C48" offset="0%"></stop><stop stop-color="#E28F6D" offset="75%"></stop><stop stop-color="#DA876B" offset="100%"></stop></linearGradient><linearGradient x1="51%" y1="11%" x2="49%" y2="93%" id="id-74432"><stop stop-color="#DC7E50" offset="0%"></stop><stop stop-color="#DA7B4D" offset="73%"></stop><stop stop-color="#E08955" offset="100%"></stop></linearGradient><linearGradient x1="51%" y1="-5%" x2="48%" y2="96%" id="id-74433"><stop stop-color="#D8794C" offset="0%"></stop><stop stop-color="#C6683E" offset="100%"></stop></linearGradient><linearGradient x1="50%" y1="19%" x2="50%" y2="69%" id="id-74434"><stop stop-color="#A84C29" offset="0%"></stop><stop stop-color="#742F19" offset="45%"></stop><stop stop-color="#A54622" offset="100%"></stop></linearGradient><linearGradient x1="46%" y1="74%" x2="39%" y2="35%" id="id-74435"><stop stop-color="#B04F3A" offset="0%"></stop><stop stop-color="#C6644A" offset="51%"></stop><stop stop-color="#9F5738" offset="100%" stop-opacity="0"></stop></linearGradient><linearGradient x1="46%" y1="16%" x2="49%" y2="82%" id="id-74436"><stop stop-color="#9B473D" offset="0%" stop-opacity="0.186"></stop><stop stop-color="#5F2520" offset="100%"></stop></linearGradient><linearGradient x1="41%" y1="19%" x2="50%" y2="100%" id="id-74437"><stop stop-color="#BE614B" offset="0%"></stop><stop stop-color="#9E4237" offset="100%"></stop></linearGradient><linearGradient x1="50%" y1="31%" x2="45%" y2="50%" id="id-74438"><stop stop-color="#D06C41" offset="0%"></stop><stop stop-color="#EC8E5F" offset="100%"></stop></linearGradient><linearGradient x1="51%" y1="22%" x2="50%" y2="100%" id="id-74439"><stop stop-color="#B0483C" offset="0%"></stop><stop stop-color="#BD6558" offset="100%"></stop></linearGradient><linearGradient x1="49%" y1="0%" x2="50%" y2="100%" id="id-74440"><stop stop-color="#D47449" offset="0%"></stop><stop stop-color="#E27C59" offset="100%"></stop></linearGradient><linearGradient x1="44%" y1="15%" x2="50%" y2="100%" id="id-74441"><stop stop-color="#B75738" offset="0%"></stop><stop stop-color="#A6503C" offset="100%"></stop></linearGradient><linearGradient x1="52%" y1="21%" x2="49%" y2="83%" id="id-74442"><stop stop-color="#DE7B50" offset="0%"></stop><stop stop-color="#E7845D" offset="48%"></stop><stop stop-color="#E28D63" offset="100%"></stop></linearGradient><linearGradient x1="85%" y1="60%" x2="15%" y2="60%" id="id-74443"><stop stop-color="#D27044" offset="0%"></stop><stop stop-color="#C06137" offset="100%"></stop></linearGradient><linearGradient x1="50%" y1="-3%" x2="59%" y2="91%" id="id-74444"><stop stop-color="#CE754C" offset="0%"></stop><stop stop-color="#CA6B41" offset="53%"></stop><stop stop-color="#BF6138" offset="66%"></stop><stop stop-color="#B8522C" offset="100%"></stop></linearGradient><linearGradient x1="55%" y1="48%" x2="46%" y2="33%" id="id-74445"><stop stop-color="#CE6E44" offset="0%"></stop><stop stop-color="#DF8152" offset="86%"></stop><stop stop-color="#D37547" offset="100%"></stop></linearGradient><linearGradient x1="50%" y1="19%" x2="50%" y2="78%" id="id-74446"><stop stop-color="#913919" offset="0%"></stop><stop stop-color="#AB4722" offset="50%"></stop><stop stop-color="#842C26" offset="100%"></stop></linearGradient><linearGradient x1="50%" y1="10%" x2="50%" y2="43%" id="id-74447"><stop stop-color="#C26338" offset="0%"></stop><stop stop-color="#C4643B" offset="15%"></stop><stop stop-color="#993E1B" offset="68%"></stop><stop stop-color="#B7512B" offset="100%"></stop></linearGradient><linearGradient x1="89%" y1="50%" x2="7%" y2="52%" id="id-74448"><stop stop-color="#8C371B" offset="0%"></stop><stop stop-color="#B85C4D" offset="53%" stop-opacity="0.199"></stop><stop stop-color="#A3451F" offset="75%"></stop><stop stop-color="#8D381A" offset="100%"></stop></linearGradient><linearGradient x1="44%" y1="70%" x2="86%" y2="30%" id="id-74449"><stop stop-color="#E39165" offset="0%"></stop><stop stop-color="#F0A57A" offset="100%"></stop></linearGradient><linearGradient x1="33%" y1="92%" x2="62%" y2="23%" id="id-74450"><stop stop-color="#C15B34" offset="0%"></stop><stop stop-color="#D27347" offset="40%"></stop><stop stop-color="#EFA478" offset="100%"></stop></linearGradient><linearGradient x1="35%" y1="94%" x2="47%" y2="12%" id="id-74451"><stop stop-color="#DC8458" offset="0%"></stop><stop stop-color="#D77E53" offset="40%"></stop><stop stop-color="#ECA478" offset="100%"></stop></linearGradient><linearGradient x1="50%" y1="54%" x2="27%" y2="9%" id="id-74452"><stop stop-color="#F7AB80" offset="0%"></stop><stop stop-color="#DDAB90" offset="100%" stop-opacity="0.078"></stop></linearGradient><linearGradient x1="50%" y1="0%" x2="93%" y2="69%" id="id-74453"><stop stop-color="#E99A6F" offset="0%"></stop><stop stop-color="#DD8557" offset="70%"></stop><stop stop-color="#C56138" offset="100%"></stop></linearGradient><linearGradient x1="36%" y1="84%" x2="25%" y2="44%" id="id-74454"><stop stop-color="#C98762" offset="0%" stop-opacity="0.509"></stop><stop stop-color="#90492C" offset="35%" stop-opacity="0.675"></stop><stop stop-color="#762E17" offset="100%" stop-opacity="0"></stop></linearGradient><linearGradient x1="63%" y1="95%" x2="43%" y2="20%" id="id-74455"><stop stop-color="#D27146" offset="0%"></stop><stop stop-color="#E29562" offset="46%"></stop><stop stop-color="#D17045" offset="100%"></stop></linearGradient><linearGradient x1="40%" y1="0%" x2="50%" y2="86%" id="id-74456"><stop stop-color="#D87C4D" offset="0%"></stop><stop stop-color="#DD8253" offset="100%"></stop></linearGradient><linearGradient x1="50%" y1="0%" x2="50%" y2="92%" id="id-74457"><stop stop-color="#E58656" offset="0%"></stop><stop stop-color="#E39361" offset="100%"></stop></linearGradient><linearGradient x1="33%" y1="79%" x2="21%" y2="44%" id="id-74458"><stop stop-color="#BE6457" offset="0%"></stop><stop stop-color="#983F32" offset="28%" stop-opacity="0.928"></stop><stop stop-color="#762E17" offset="100%" stop-opacity="0"></stop></linearGradient><linearGradient x1="4%" y1="47%" x2="92%" y2="45%" id="id-74459"><stop stop-color="#752B0F" offset="0%"></stop><stop stop-color="#83391D" offset="17%" stop-opacity="0.753"></stop><stop stop-color="#9E4B3D" offset="48%" stop-opacity="0.386"></stop><stop stop-color="#94401F" offset="78%" stop-opacity="0.762"></stop><stop stop-color="#88391A" offset="100%"></stop></linearGradient><linearGradient x1="60%" y1="45%" x2="67%" y2="53%" id="id-74460"><stop stop-color="#D57A51" offset="0%"></stop><stop stop-color="#FFB49C" offset="100%"></stop></linearGradient><linearGradient x1="48%" y1="15%" x2="54%" y2="81%" id="id-74461"><stop stop-color="#D99776" offset="0%" stop-opacity="0.400"></stop><stop stop-color="#E59B75" offset="100%"></stop></linearGradient><linearGradient x1="47%" y1="44%" x2="50%" y2="61%" id="id-74462"><stop stop-color="#943B2F" offset="0%" stop-opacity="0.175"></stop><stop stop-color="#61301B" offset="100%"></stop></linearGradient><linearGradient x1="26%" y1="-7%" x2="50%" y2="96%" id="id-74463"><stop stop-color="#37373F" offset="0%"></stop><stop stop-color="#19191D" offset="100%"></stop></linearGradient><linearGradient x1="50%" y1="12%" x2="59%" y2="82%" id="id-74464"><stop stop-color="#252525" offset="0%"></stop><stop stop-color="#101010" offset="100%"></stop></linearGradient><linearGradient x1="25%" y1="-16%" x2="50%" y2="98%" id="id-74465"><stop stop-color="#37373F" offset="0%"></stop><stop stop-color="#19191D" offset="100%"></stop></linearGradient><linearGradient x1="75%" y1="39%" x2="50%" y2="93%" id="id-74466"><stop stop-color="#252525" offset="0%"></stop><stop stop-color="#000000" offset="100%"></stop></linearGradient></defs><g transform=" translate(334,549)" id="id-74467"><polygon points="561 754 565 871 565 881 537 893 533 897 535 901 532 909 543 910 597 864" fill="#560304" id="id-74468"></polygon><polygon points="537 282 539 246 535 195 529 158 522 137 484 118 440 111 212 111 188 113 157 123 121 139 111 186 108 221 109 290" fill="url(#id-74421)" id="id-74468"></polygon><polygon points="467 393 474 506 503 589 537 672 556 728 561 754 546 794 552 851 551 861 552 874 556 885 567 882 568 866 570 860 570 843 571 834 576 843 576 859 579 864 573 874 571 884 544 903 541 916 582 901 597 864 607 852 600 821 597 716 589 695 582 655 569 523 544 425" fill="url(#id-74422)" id="id-74468"></polygon><polygon points="546 794 552 851 551 861 552 874 556 885 567 882 568 866 570 860 570 843 571 834 576 843 576 859 579 864 573 874 571 884 544 903 541 916 582 901 597 864 583 871 588 855 573 815 561 823" fill="url(#id-74423)" id="id-74468"></polygon><polygon points="552 851 551 861 552 874 556 887 567 884 568 866 570 860 558 860" fill="#8A2C25" id="id-74468"></polygon><polygon points="544 906 541 916 582 901 571 889" fill="#92352A" id="id-74468"></polygon><polygon points="561 754 548 789 566 819 586 806" fill="#BD8171" id="id-74468"></polygon><polygon points="486 648 477 599 453 529 440 504 437 490 439 460 449 402 456 340 188 343 198 411 202 493 162 596 153 638 266 693 319 721 386 693" fill="url(#id-74424)" id="id-74468"></polygon><polygon points="486 648 477 599 453 529 440 504 437 490 439 460 449 402 456 340 296 353 376 634" fill="#D06F45" id="id-74468"></polygon><g transform=" translate(188,0)" id="id-74477"><polygon points="274 114 253 111 232 100 201 76 188 58 184 1 93 1 88 64 25 111 1 113 103 123 121 135 134 138 149 121 161 117 187 119 225 114" fill="#D37245" id="id-74468"></polygon><polygon points="201 76 188 58 185 12 175 57 155 111 185 73" fill="#EB9E6D" id="id-74468"></polygon><polygon points="149 1 93 1 88 64 108 126 121 135 133 138" fill="#C1663D" id="id-74468"></polygon><polygon points="116 102 120 113 118 115 136 135 150 119 164 71 125 108" fill="#B65C38" id="id-74481"></polygon><polygon points="121 127 133 138 145 124" fill="#AC3F1F" id="id-74482"></polygon><polygon points="136 98 164 71 175 57 186 17 134 51" fill="#DA854F" id="id-74483"></polygon><polygon points="97 96 116 80 164 60 178 48 186 17 184 1 93 1 88 64 45 96" fill="#A14F27" opacity="0.654" id="id-74468"></polygon><polygon points="186 17 184 1 93 1 88 64 45 96 66 96" fill="url(#id-74425)" opacity="0.467" id="id-74468"></polygon><polygon points="123 58 176 23 186 17 184 1 93 1 91 22 108 55" fill="#381404" opacity="0.434" id="id-74468"></polygon></g><polygon points="41 844 33 856 36 895 64 915 84 911 83 903 71 898 72 892 63 884 52 849" fill="url(#id-74426)" id="id-74468"></polygon><polygon points="315 152 285 173 320 188 357 166" fill="#FAAF86" id="id-74488"></polygon><polygon points="327 150 370 130 342 127" fill="#D5774A" id="id-74489"></polygon><polygon points="301 142 303 148 243 131 240 119 276 119" fill="#D5774A" id="id-74490"></polygon><polygon points="159 149 206 123 269 123 303 144 297 118 188 113 157 123 121 139" fill="url(#id-74427)" id="id-74468"></polygon><polygon points="157 123 121 139 153 167 196 134" fill="#FFBBA2" id="id-74468"></polygon><polygon points="89 584 77 541 62 551 45 658 34 712 25 741 25 762 10 817 0 845 14 870 25 901 58 919 72 919 69 913 61 905 50 899 37 874 37 852 43 845 52 855 50 887 56 901 64 905 66 901 66 882 72 836 72 800 69 781 64 773 66 735 85 684 121 599 162 510" fill="url(#id-74428)" id="id-74468"></polygon><polygon points="89 584 77 541 62 551 45 658 48 715 121 599 162 510" fill="#D37347" id="id-74468"></polygon><polygon points="55 843 45 827 37 848 17 852 8 836 5 851 0 845 14 870 25 901 58 919 72 919 69 913 61 905 50 899 37 874 37 852 43 845 52 855 50 887 56 901 64 905 66 901 66 882 72 836" fill="#D16753" id="id-74468"></polygon><polygon points="53 882 52 892 56 901 64 905 66 901 66 882 67 876" fill="#B24B40" id="id-74468"></polygon><polygon points="25 901 58 919 72 919 62 909 37 895" fill="#B44D41" id="id-74468"></polygon><polygon points="160 467 145 488 108 578 45 777 48 797 64 773 66 735 85 684 121 599 162 510" fill="#B04C25" id="id-74468"></polygon><polygon points="169 1211 277 1211 282 1183 281 1150 284 1127 286 1114 285 1063 293 972 306 866 311 792 309 768 323 771 337 768 333 817 333 855 339 924 346 1008 348 1113 351 1130 353 1176 361 1211 461 1211 458 1191 456 1170 460 1133 461 1082 505 905 516 839 518 826 512 762 503 706 486 648 482 629 386 690 318 718 266 690 184 629 153 637 132 731 119 781 118 813 123 862 131 916 166 1094 176 1179" fill="url(#id-74429)" id="id-74468"></polygon><polygon points="463 664 416 771 400 819 392 1125 359 1178 398 1204 441 1153 461 1082 505 905 516 839 518 826 515 789 490 714" fill="url(#id-74430)" id="id-74468"></polygon><polygon points="422 1160 395 1199 365 1171 401 1149 384 1120 391 983 411 786 416 771 448 697 454 1013 445 1116 407 1149" fill="url(#id-74431)" id="id-74501"></polygon><polygon points="121 139 111 186 108 221 109 290 96 438 89 464 69 510 89 585 162 510 167 425 162 241" fill="url(#id-74432)" id="id-74468"></polygon><polygon points="101 466 103 488 106 510 160 447 179 359 164 232 187 184 186 179 132 181 161 234 161 321 149 376 151 384 123 461 114 466" fill="url(#id-74433)" id="id-74503"></polygon><polygon points="96 438 89 464 69 510 51 621 101 520 96 476" fill="#FFAF88" id="id-74468"></polygon><polygon points="96 451 128 365 134 316 121 139 111 186 108 221 109 290 96 438" fill="#C5673B" id="id-74468"></polygon><polygon points="184 241 177 248 162 225 138 289 161 321 170 375 161 420 151 411 162 510 167 425 188 343" fill="url(#id-74434)" id="id-74468"></polygon><polygon points="284 1127 286 1114 285 1063 293 972 306 866 311 792 309 768 323 771 337 768 333 817 333 855 339 924 346 1008 375 889 416 771 463 664 490 714 515 790 512 762 503 706 486 648 477 599 471 583 420 650 316 720 201 654 244 742 264 824 275 994" fill="url(#id-74435)" id="id-74468"></polygon><polygon points="298 930 306 866 311 792 309 768 323 771 337 768 333 817 333 855 336 894 347 826 360 784 378 733 388 687 321 739 254 687 267 736 291 821" fill="url(#id-74436)" id="id-74468"></polygon><polygon points="348 1093 348 1113 351 1130 353 1176 361 1211 461 1211 439 1155 422 1136 403 1148 429 1168 400 1202 370 1170 382 1125" fill="url(#id-74437)" id="id-74468"></polygon><polygon points="10 855 8 836 5 851 0 845 14 870" fill="#AF4A3E" id="id-74468"></polygon><polygon points="520 500 516 520 544 629 474 500 490 399" fill="url(#id-74438)" id="id-74511"></polygon><polygon points="461 1211 458 1191 456 1170 460 1133 461 1082 439 1155 450 1211" fill="url(#id-74439)" id="id-74468"></polygon><polygon points="220 1149 259 1115 240 1063 232 973 266 819 240 713 201 661 158 650 201 784 183 925 170 1083" fill="url(#id-74440)" id="id-74513"></polygon><polygon points="169 1211 277 1211 282 1183 281 1150 284 1127 286 1114 286 1098 226 1211 207 1211 196 1121 173 1078 150 1014 166 1094 176 1179" fill="url(#id-74441)" id="id-74468"></polygon><polygon points="173 1078 183 924 150 1014" fill="#C56242" id="id-74468"></polygon><polygon points="169 1211 239 1211 230 1196 204 1175 173 1150 176 1179" fill="#8E332E" opacity="0.574" id="id-74468"></polygon><polygon points="221 1130 240 1097 224 1063 224 983 240 804 217 698 190 668 212 771 212 910 190 998 181 1094" fill="url(#id-74442)" id="id-74513"></polygon><polygon points="217 795 221 692 200 667 169 658 200 737" fill="#F09C6B" id="id-74518"></polygon><polygon points="511 476 492 419 481 447 484 356 521 274 533 417" fill="url(#id-74443)" id="id-74519"></polygon><polygon points="569 523 544 425 542 346 537 282 539 246 535 195 529 158 522 137 494 161 419 158 471 211 516 290 525 411 511 477 518 507 535 462 562 543" fill="url(#id-74444)" id="id-74468"></polygon><polygon points="486 389 533 243 501 167 464 207 451 247 463 265" fill="url(#id-74445)" id="id-74521"></polygon><polygon points="473 490 474 506 503 589 537 672 556 728 561 754 567 712 543 623" fill="#AE522F" id="id-74468"></polygon><polygon points="460 328 466 378 474 506 490 425 486 392 469 274 479 230 461 260 454 251" fill="url(#id-74446)" id="id-74468"></polygon><polygon points="440 504 437 490 439 460 449 402 456 340 458 328 325 282 188 343 198 411 202 493 162 596 157 621 161 633 169 599 173 570 204 506 202 458 217 402 286 365 321 352 353 360 422 402 431 493 437 520" fill="url(#id-74447)" id="id-74468"></polygon><polygon points="451 385 456 340 458 328 364 340 330 308 268 343 188 343 194 379 262 368 312 343 335 340 381 368" fill="url(#id-74448)" id="id-74468"></polygon><polygon points="286 328 306 310 330 274 453 252 464 205 421 156 317 204 219 165 210 154 188 180" fill="url(#id-74449)" id="id-74526"></polygon><path d=" M 422,195 L 405,190 C 377,190 357,198 343,214 C 329,230 322,250 323,276 C 324,301 331,320 345,333 C 365,351 384,356 405,356 C 425,356 444,347 450,342 C 454,339 457,335 460,328 C 463,323 466,317 467,308 C 469,294 466,276 457,254 L 422,195 Z" fill="url(#id-74450)" id="id-74527"></path><path d=" M 422,195 L 417,175 C 386,188 366,196 358,201 C 355,203 351,206 348,208 C 348,209 381,253 448,342 C 454,338 459,332 463,324 C 469,310 469,301 469,293 C 469,287 465,275 459,257 L 422,195 Z" fill="url(#id-74451)" id="id-74527"></path><path d=" M 375,226 C 338,253 343,276 343,284 C 343,291 353,319 371,335 C 379,342 422,349 447,331 C 468,316 472,294 458,265 C 427,221 400,208 375,226 Z" fill="url(#id-74452)" opacity="0.282" id="id-74527"></path><path d=" M 272,205 C 260,199 243,200 221,209 C 187,227 169,258 168,303 C 167,319 184,342 190,346 C 197,351 212,356 239,353 C 257,351 272,344 284,333 C 303,312 312,288 309,260 C 305,217 291,214 272,205 Z" fill="url(#id-74453)" id="id-74530"></path><path d=" M 340,285 C 333,252 328,240 326,248 C 324,254 323,263 323,276 C 324,301 331,320 345,333 C 365,351 382,356 404,356 C 425,356 444,347 450,342 C 456,337 465,325 468,308 C 472,290 465,276 463,268 C 461,263 460,259 458,255 L 442,290 L 399,304 L 366,300 L 340,285 Z" fill="url(#id-74454)" id="id-74527"></path><path d=" M 153,637 L 149,654 L 132,731 L 130,739 C 133,730 135,723 137,718 C 140,709 147,691 149,680 C 151,671 155,655 161,633 L 172,570 L 162,596 L 153,637 Z" fill="#7D362E" id="id-74468"></path><path d=" M 259,203 C 254,199 240,185 217,163 L 210,153 L 186,180 C 192,211 192,231 186,239 C 175,256 168,277 168,303 C 168,324 190,352 239,344 C 252,342 274,217 259,203 Z" fill="#E39165" id="id-74530"></path><polygon points="175 565 203 550 234 558 241 520 203 455 203 507" fill="#B04924" id="id-74534"></polygon><polygon points="241 442 241 518 229 556 233 629 266 657 316 707 381 659 395 629 364 504 350 504 301 380" fill="url(#id-74455)" id="id-74535"></polygon><polygon points="432 626 427 589 407 518 414 505 450 568 470 618" fill="url(#id-74456)" id="id-74536"></polygon><polygon points="302 376 254 442 254 546 302 590 364 568 364 504 350 504 376 454 345 400" fill="url(#id-74457)" id="id-74535"></polygon><polygon points="317 480 342 436 319 413 300 447" fill="#DA7B4E" id="id-74538"></polygon><polygon points="304 541 318 507 329 541 314 549" fill="#D17045" id="id-74539"></polygon><polygon points="306 543 316 578 329 541" fill="#E99A65" id="id-74540"></polygon><path d=" M 178,333 C 179,334 180,336 182,338 C 184,342 186,343 189,346 C 190,347 197,351 206,353 C 215,354 226,355 239,353 C 257,351 272,344 284,333 C 293,322 299,313 302,305 C 304,301 307,293 309,277 C 310,274 310,268 309,260 L 228,277 L 207,295 L 178,333 Z" fill="url(#id-74458)" id="id-74530"></path><polygon points="306 543 308 550 324 556 329 541" fill="#E9A376" id="id-74540"></polygon><polygon points="308 543 318 525 323 542 314 548" fill="#8F4427" id="id-74543"></polygon><polygon points="152 641 162 596 176 561 185 617 214 602 246 628 323 690 404 628 423 605 454 605 470 577 477 599 482 629 388 689 337 768 323 771 309 768 259 688 175 639 142 688" fill="url(#id-74459)" opacity="0.442" id="id-74544"></polygon><polygon points="490 154 522 137 484 118 412 123" fill="url(#id-74460)" id="id-74468"></polygon><polygon points="573 785 588 829 602 858 607 852 600 821 597 716 576 763" fill="#E19271" id="id-74468"></polygon><polygon points="574 722 589 695 582 655 533 542" fill="url(#id-74461)" id="id-74468"></polygon><polygon points="172 640 241 690 309 768 323 771 338 768 395 706 469 661 404 650 313 706 217 629" fill="url(#id-74462)" opacity="0.571" id="id-74548"></polygon><g transform=" translate(188,270)" id="id-74549"><polygon points="207 13 207 10 217 2 220 2 239 21 258 39 260 42 250 51 246 52 226 33" fill="url(#id-74463)" id="id-74550"></polygon><polygon points="208 40 218 50 222 50 240 33 257 13 257 9 247 0 244 1 230 19 209 36" fill="url(#id-74464)" id="id-74551"></polygon><polygon points="1 13 1 10 10 2 15 2 32 21 50 39 52 42 42 52 38 52 19 33" fill="url(#id-74465)" id="id-74550"></polygon><polygon points="0 43 10 53 14 53 33 35 50 15 50 11 40 3 36 4 19 23 1 39" fill="url(#id-74466)" id="id-74551"></polygon></g></g><defs><linearGradient x1="68%" y1="4%" x2="68%" y2="39%" id="id-75205"><stop stop-color="#CF915B" offset="0%"></stop><stop stop-color="#A2582E" offset="100%"></stop></linearGradient><linearGradient x1="63%" y1="29%" x2="43%" y2="65%" id="id-75206"><stop stop-color="#EF9D68" offset="0%"></stop><stop stop-color="#CA8252" offset="100%"></stop></linearGradient><linearGradient x1="60%" y1="73%" x2="11%" y2="32%" id="id-75207"><stop stop-color="#F0A97B" offset="0%"></stop><stop stop-color="#E7976B" offset="100%"></stop></linearGradient><linearGradient x1="79%" y1="15%" x2="31%" y2="87%" id="id-75208"><stop stop-color="#D98757" offset="0%"></stop><stop stop-color="#E99F6F" offset="100%"></stop></linearGradient><radialGradient cx="50%" cy="46%" r="72%" id="id-75209" fx="50%" fy="46%" gradientTransform=" translate(0.500,0.465) scale(0.889,1) rotate(90) scale(1,1) translate(-0.500,-0.465)"><stop stop-color="#FBAF7C" offset="0%"></stop><stop stop-color="#8E4218" offset="100%"></stop></radialGradient><linearGradient x1="32%" y1="4%" x2="54%" y2="75%" id="id-75210"><stop stop-color="#B5673B" offset="0%"></stop><stop stop-color="#D69065" offset="38%"></stop><stop stop-color="#CD7F54" offset="100%"></stop></linearGradient><linearGradient x1="11%" y1="50%" x2="57%" y2="50%" id="id-75211"><stop stop-color="#D88A61" offset="0%"></stop><stop stop-color="#F4A678" offset="100%"></stop></linearGradient><linearGradient x1="50%" y1="0%" x2="50%" y2="100%" id="id-75212"><stop stop-color="#DF8A54" offset="0%"></stop><stop stop-color="#BD693B" offset="100%"></stop></linearGradient><linearGradient x1="50%" y1="0%" x2="50%" y2="65%" id="id-75213"><stop stop-color="#E8A174" offset="0%"></stop><stop stop-color="#F9BB92" offset="100%"></stop></linearGradient><linearGradient x1="93%" y1="38%" x2="20%" y2="70%" id="id-75214"><stop stop-color="#EBA776" offset="0%"></stop><stop stop-color="#F5BF98" offset="60%"></stop><stop stop-color="#CA8252" offset="100%"></stop></linearGradient><linearGradient x1="17%" y1="66%" x2="58%" y2="41%" id="id-75215"><stop stop-color="#F3BA91" offset="0%"></stop><stop stop-color="#FCDFC9" offset="100%"></stop></linearGradient><linearGradient x1="25%" y1="46%" x2="50%" y2="58%" id="id-75216"><stop stop-color="#B55E35" offset="0%"></stop><stop stop-color="#C46A3C" offset="100%"></stop></linearGradient><linearGradient x1="75%" y1="15%" x2="41%" y2="68%" id="id-75217"><stop stop-color="#F0AA7E" offset="0%"></stop><stop stop-color="#F5BB97" offset="100%"></stop></linearGradient><linearGradient x1="43%" y1="47%" x2="85%" y2="53%" id="id-75218"><stop stop-color="#903F1B" offset="0%"></stop><stop stop-color="#B45C2E" offset="100%"></stop></linearGradient><linearGradient x1="65%" y1="43%" x2="13%" y2="55%" id="id-75219"><stop stop-color="#7B3014" offset="0%"></stop><stop stop-color="#813113" offset="100%"></stop></linearGradient><linearGradient x1="85%" y1="61%" x2="16%" y2="50%" id="id-75220"><stop stop-color="#E3956C" offset="0%"></stop><stop stop-color="#D0825C" offset="100%"></stop></linearGradient><linearGradient x1="50%" y1="34%" x2="72%" y2="84%" id="id-75221"><stop stop-color="#C06E40" offset="0%"></stop><stop stop-color="#D7795C" offset="42%"></stop><stop stop-color="#D07E52" offset="59%"></stop><stop stop-color="#DB885D" offset="100%"></stop></linearGradient><linearGradient x1="50%" y1="50%" x2="50%" y2="78%" id="id-75222"><stop stop-color="#F3B28C" offset="0%"></stop><stop stop-color="#EC8C70" offset="100%"></stop></linearGradient><linearGradient x1="36%" y1="33%" x2="50%" y2="71%" id="id-75223"><stop stop-color="#D26945" offset="0%"></stop><stop stop-color="#A63821" offset="100%"></stop></linearGradient><linearGradient x1="0%" y1="50%" x2="100%" y2="50%" id="id-75224"><stop stop-color="#C46F40" offset="0%"></stop><stop stop-color="#DF9F77" offset="42%"></stop><stop stop-color="#C36F3F" offset="100%"></stop></linearGradient><linearGradient x1="50%" y1="57%" x2="-8%" y2="54%" id="id-75225"><stop stop-color="#9C4A26" offset="0%"></stop><stop stop-color="#662A11" offset="100%"></stop></linearGradient><linearGradient x1="14%" y1="61%" x2="23%" y2="56%" id="id-75226"><stop stop-color="#AB4B21" offset="0%"></stop><stop stop-color="#B45C31" offset="100%"></stop></linearGradient><linearGradient x1="48%" y1="50%" x2="55%" y2="57%" id="id-75227"><stop stop-color="#E1885B" offset="0%"></stop><stop stop-color="#B8603B" offset="100%"></stop></linearGradient><linearGradient x1="50%" y1="0%" x2="43%" y2="121%" id="id-75228"><stop stop-color="#F3D2BA" offset="0%"></stop><stop stop-color="#EEAB96" offset="100%"></stop></linearGradient><linearGradient x1="100%" y1="37%" x2="80%" y2="57%" id="id-75229"><stop stop-color="#9E421E" offset="0%"></stop><stop stop-color="#CF784A" offset="100%"></stop></linearGradient><linearGradient x1="55%" y1="43%" x2="43%" y2="53%" id="id-75230"><stop stop-color="#BE663B" offset="0%"></stop><stop stop-color="#B3592E" offset="100%"></stop></linearGradient><linearGradient x1="72%" y1="4%" x2="28%" y2="76%" id="id-75231"><stop stop-color="#B15A37" offset="0%"></stop><stop stop-color="#7D341B" offset="100%"></stop></linearGradient><linearGradient x1="22%" y1="50%" x2="83%" y2="50%" id="id-75232"><stop stop-color="#C2805E" offset="0%"></stop><stop stop-color="#903A22" offset="100%"></stop></linearGradient><linearGradient x1="82%" y1="54%" x2="50%" y2="59%" id="id-75233"><stop stop-color="#843818" offset="0%"></stop><stop stop-color="#BA663F" offset="100%"></stop></linearGradient><linearGradient x1="25%" y1="53%" x2="75%" y2="52%" id="id-75234"><stop stop-color="#E1BB9F" offset="0%"></stop><stop stop-color="#C08666" offset="100%"></stop></linearGradient><linearGradient x1="50%" y1="0%" x2="50%" y2="80%" id="id-75235"><stop stop-color="#B2401E" offset="0%"></stop><stop stop-color="#C84D2C" offset="100%"></stop></linearGradient><linearGradient x1="50%" y1="0%" x2="50%" y2="100%" id="id-75236"><stop stop-color="#EC5F3D" offset="0%"></stop><stop stop-color="#D65032" offset="100%"></stop></linearGradient><linearGradient x1="109%" y1="50%" x2="23%" y2="43%" id="id-75237"><stop stop-color="#B55D33" offset="0%"></stop><stop stop-color="#C18055" offset="100%"></stop></linearGradient></defs><g transform=" translate(561,332)" id="id-75238"><g transform=" translate(172,115)" id="id-75239"><polygon points="14 1 18 0 25 8 27 21 24 41 14 66 0 68" fill="url(#id-75205)" id="id-75240"></polygon><polygon points="12 48 19 50 23 42 26 24 20 12 12 22" fill="#CB8154" id="id-75241"></polygon><polygon points="11 21 17 10 20 5 24 7 26 24 20 36 18 31 20 16 9 29" fill="#8E4015" id="id-75242"></polygon><polygon points="10 28 11 38 8 45 13 49 19 38 13 24" fill="#7D3102" id="id-75243"></polygon><polygon points="12 18 17 17 18 9" fill="#5B1C00" id="id-75244"></polygon><polygon points="18 50 10 51 8 50 5 61 12 63 14 61" fill="#E68969" id="id-75245"></polygon></g><g transform=" translate(0,113)" id="id-75246"><polygon points="13 0 5 0 0 13 4 36 13 63 25 67" fill="#D07C59" id="id-75247"></polygon><polygon points="5 9 0 13 4 36 13 63 25 67 13 24" fill="#CA7F53" id="id-75247"></polygon><polygon points="18 46 14 47 7 32 11 26 4 9 6 5 16 20 17 29" fill="#AB5E32" id="id-75249"></polygon><polygon points="13 62 20 62 18 49 11 53" fill="#AE6135" id="id-75250"></polygon><polygon points="25 68 13 63 20 62 17 46 14 47 13 44 14 29 17 26 14 22 10 19 10 11 17 20" fill="#7D3001" id="id-75251"></polygon><polygon points="13 9 4 3 5 0 12 0" fill="#E19B77" id="id-75252"></polygon></g><path d=" M 29,199 C 21,167 16,144 15,130 C 4,44 33,0 103,0 C 180,0 191,63 186,119 C 183,157 173,191 170,202 C 169,206 167,213 164,217 C 143,234 127,244 115,249 L 81,249 C 71,246 56,236 36,218 C 34,215 32,208 29,199 Z" fill="#D1865A" opacity="0.966" id="id-75253"></path><polygon points="36 106 25 118 37 39 104 9 160 39 166 105 106 122" fill="url(#id-75206)" id="id-75254"></polygon><polygon points="120 178 110 136 130 128 178 139 169 176 139 192" fill="url(#id-75207)" id="id-75255"></polygon><polygon points="169 161 135 146 164 134 176 140" fill="#F6AA7A" id="id-75256"></polygon><polygon points="169 161 156 155 176 140" fill="url(#id-75208)" id="id-75256"></polygon><path d=" M 19,155 C 17,145 16,137 15,130 C 4,44 33,0 103,0 C 180,0 191,63 186,119 C 185,128 184,136 183,145 L 148,128 L 142,124 L 162,99 C 162,80 157,59 148,36 C 125,28 107,26 95,28 C 83,31 66,39 45,53 L 39,91 L 28,114 L 42,106 L 19,155 Z" fill="url(#id-75209)" opacity="0.966" id="id-75253"></path><polygon points="77 145 37 128 23 149 57 218 88 200" fill="url(#id-75210)" id="id-75259"></polygon><polygon points="69 192 59 171 70 146 85 132 94 140 87 186" fill="#D99168" id="id-75260"></polygon><polygon points="85 180 68 192 72 205 130 208 138 197 114 170" fill="url(#id-75211)" id="id-75261"></polygon><polygon points="74 204 70 202 57 211 76 239 132 235 143 205 136 197 125 204" fill="url(#id-75212)" id="id-75262"></polygon><polygon points="91 200 95 178 107 178 112 200" fill="url(#id-75213)" id="id-75263"></polygon><path d=" M 38,101 L 64,86 C 69,68 73,57 76,53 C 79,50 94,46 119,41 L 151,70 L 126,114 L 81,113 L 73,99 L 38,101 Z" fill="url(#id-75214)" id="id-75264"></path><polygon points="156 99 123 78 105 98 127 111" fill="url(#id-75215)" id="id-75265"></polygon><polygon points="91 200 93 192 102 194 110 193 112 200" fill="#FFD9B0" id="id-75263"></polygon><polygon points="74 218 67 215 74 207 130 206 130 213 119 213" fill="#EDA177" id="id-75267"></polygon><polygon points="80 211 69 221 89 231 120 232 129 227 123 209" fill="url(#id-75216)" id="id-75268"></polygon><polygon points="141 204 117 180 128 170 150 185" fill="url(#id-75217)" id="id-75269"></polygon><polygon points="28 151 39 132 64 125 49 107 32 109 23 145" fill="#B6663A" id="id-75270"></polygon><polygon points="80 110 93 132 80 138 34 131 27 127 44 119" fill="url(#id-75218)" id="id-75271"></polygon><polygon points="30 117 27 127 45 106 61 121 79 130 56 105 40 104" fill="url(#id-75219)" id="id-75272"></polygon><polygon points="91 140 73 164 89 164 121 175 126 171 133 174 113 148" fill="url(#id-75220)" id="id-75273"></polygon><polygon points="84 181 93 185 109 186 117 182 120 177" fill="#642C18" opacity="0.599" id="id-75274"></polygon><polygon points="123 135 114 141 123 168 123 174 117 180 81 173 80 170 81 166 90 138 86 133 101 127" fill="url(#id-75221)" id="id-75275"></polygon><polygon points="79 111 99 104 121 113 107 143 98 143" fill="#E49061" id="id-75276"></polygon><polygon points="101 119 96 132 96 153 83 175 120 176 107 154 107 132" fill="url(#id-75222)" id="id-75277"></polygon><polygon points="90 163 83 175 99 175" fill="#DF765D" id="id-75277"></polygon><path d=" M 80,170 L 80,178 L 84,181 L 90,180 L 109,180 L 116,181 C 118,180 120,178 121,176 C 122,174 122,172 122,170 L 119,176 C 114,174 109,172 103,171 C 98,171 92,172 85,174 L 84,173 L 95,154 L 93,156 L 80,170 Z" fill="url(#id-75223)" id="id-75279"></path><path d=" M 105,179 C 106,177 109,176 111,176 C 113,176 116,176 119,176 C 115,174 111,173 107,172 C 106,172 105,174 105,179 Z" fill="#CE6065" id="id-75279"></path><path d=" M 87,180 L 98,180 C 96,177 94,176 91,176 C 89,176 87,177 87,180 Z" fill="#60140D" id="id-75281"></path><path d=" M 105,180 L 113,181 C 115,178 114,176 112,176 C 109,176 106,177 105,180 Z" fill="#5B120B" id="id-75282"></path><polygon points="88 220 94 227 111 227 116 218" fill="#621608" id="id-75283"></polygon><path d=" M 76,233 C 85,229 94,226 103,226 C 112,226 121,229 130,233 L 117,246 L 86,246 L 76,233 Z" fill="url(#id-75224)" id="id-75284"></path><path d=" M 113,227 C 117,228 122,230 130,233 L 117,246 L 101,242 L 113,227 Z" fill="#F5B78E" opacity="0.499" id="id-75284"></path><path d=" M 94,229 C 99,227 100,227 105,227 C 107,227 109,228 112,228 C 109,233 106,236 104,237 C 96,232 93,229 94,229 Z" fill="#F0BA9F" id="id-75284"></path><polygon points="80 140 73 146 51 147 37 135 46 132 51 138 73 140" fill="url(#id-75225)" id="id-75287"></polygon><path d=" M 26,119 L 39,110 L 50,111 L 53,114 L 57,114 L 57,112 L 60,114 L 63,114 L 63,113 L 67,116 L 76,118 L 76,115 L 68,105 C 63,104 59,103 55,102 C 52,102 46,101 39,101 L 26,115 L 26,119 Z" fill="#501C0D" id="id-75288"></path><polygon points="26 119 39 110 43 107 57 105 39 101 26 115" fill="#220F06" id="id-75288"></polygon><polygon points="77 113 73 107 76 107" fill="#501C0D" id="id-75290"></polygon><polygon points="80 114 79 109 81 110" fill="#501C0D" id="id-75291"></polygon><path d=" M 29,199 C 21,167 16,144 15,130 C 15,129 28,148 55,188 L 64,222 L 88,242 L 104,239 L 118,242 L 129,230 C 154,219 166,214 164,217 C 143,234 127,244 115,249 L 81,249 C 71,246 56,236 36,218 C 34,215 32,208 29,199 Z" fill="url(#id-75226)" opacity="0.966" id="id-75253"></path><path d=" M 118,242 L 129,230 L 147,183 L 167,160 L 172,141 L 186,119 C 183,157 173,191 170,202 C 169,206 167,213 164,217 C 145,232 132,241 125,245 C 122,246 120,245 118,242 Z" fill="url(#id-75227)" opacity="0.966" id="id-75253"></path><polygon points="42 190 29 150 55 188 64 222" fill="#C1673F" opacity="0.966" id="id-75253"></polygon><path d=" M 182,70 C 184,81 184,98 184,122 C 176,168 172,195 170,202 C 169,206 167,213 164,217 C 150,228 140,235 134,239 L 163,214 L 179,154 L 179,108 L 175,113 L 168,106 L 182,70 Z" fill="#E58F9B" opacity="0.966" id="id-75253"></path><path d=" M 95,166 L 101,168 C 107,166 108,165 107,165 C 104,164 100,164 95,166 Z" fill="#F5AA9C" id="id-75296"></path><polygon points="107 154 100 151 96 154 100 140 97 134 102 130 106 133 104 140" fill="url(#id-75228)" id="id-75297"></polygon><polygon points="108 154 122 169 119 175 115 167 109 170 113 164" fill="#C56443" id="id-75298"></polygon><path d=" M 166,131 C 169,130 171,129 172,127 C 173,125 174,121 175,115 L 164,104 L 151,105 L 137,122 L 166,131 Z" fill="url(#id-75229)" id="id-75299"></path><polygon points="123 135 117 140 124 143 131 139" fill="#F3B693" id="id-75300"></polygon><path d=" M 111,132 L 124,135 L 168,130 C 165,125 162,121 157,119 C 152,117 147,116 139,117 L 119,109 L 114,118 L 116,122 L 111,132 Z" fill="url(#id-75230)" id="id-75301"></path><polygon points="121 134 134 113 150 109 138 125" fill="url(#id-75231)" id="id-75302"></polygon><path d=" M 124,135 C 128,128 134,124 142,123 C 150,122 158,125 168,132 L 124,135 Z" fill="url(#id-75232)" id="id-75303"></path><polygon points="125 143 138 147 153 147 165 134 158 130 127 138" fill="url(#id-75233)" id="id-75304"></polygon><path d=" M 128,135 L 126,139 L 151,140 L 160,134 C 155,130 150,128 145,128 C 140,128 134,131 128,135 Z" fill="#E9D5DF" id="id-75305"></path><path d=" M 130,140 L 133,135 L 150,133 L 156,137 L 160,134 C 155,130 149,128 142,129 C 135,130 130,133 126,139 L 130,140 Z" fill="#000000" opacity="0.295" id="id-75306"></path><polygon points="124 140 143 140 152 140 160 134 158 133 151 138 128 139" fill="url(#id-75234)" id="id-75307"></polygon><polygon points="129 135 128 137 136 138 129 139 124 139 125 138" fill="#9D5133" id="id-75308"></polygon><polygon points="134 130 131 128 142 124 146 127" fill="#EDB57F" id="id-75309"></polygon><path d=" M 132,134 C 134,137 137,139 142,139 C 148,138 150,135 150,130 C 145,129 141,129 138,129 C 136,130 134,131 132,134 Z" fill="#200C09" id="id-75310"></path><path d=" M 135,135 C 135,137 137,138 142,138 C 147,137 149,136 147,133 C 147,134 145,134 143,135 C 141,135 138,135 135,135 Z" fill="#BF0526" id="id-75310"></path><polygon points="139 132 137 132 137 134 141 133 141 132 143 132 143 131 139 131" fill="#B49EBB" id="id-75312"></polygon><path d=" M 125,138 C 132,133 138,130 144,130 C 150,130 156,132 163,136 L 171,129 L 162,130 C 154,127 147,127 140,128 C 134,129 129,133 125,138 Z" fill="#200F09" id="id-75313"></path><polygon points="147 145 147 141 143 141" fill="#2D130A" id="id-75314"></polygon><polygon points="150 140 154 143 153 140" fill="#2D130A" id="id-75315"></polygon><polygon points="155 139 162 140 158 136 157 137" fill="#2D130A" id="id-75316"></polygon><polygon points="122 119 130 111 126 118 131 115 133 117 137 112 138 114 142 113 142 112 145 113 155 109 163 108 174 117 174 112 162 99 150 99 129 104" fill="#662913" id="id-75317"></polygon><polygon points="160 105 174 117 174 112 162 99 141 106" fill="#36150E" id="id-75317"></polygon><polygon points="77 210 72 210 72 205 79 205 125 203 132 203 134 206 131 209" fill="#97211C" id="id-75319"></polygon><polygon points="77 209 75 209 76 206 102 200 130 206 131 208" fill="#530C03" id="id-75320"></polygon><path d=" M 74,205 C 80,206 84,206 88,206 C 93,206 97,204 102,204 C 107,204 111,206 115,206 C 118,206 122,205 126,204 C 121,200 116,197 111,193 C 110,193 106,194 102,197 C 96,195 93,194 92,194 C 87,197 80,201 74,205 Z" fill="url(#id-75235)" id="id-75321"></path><path d=" M 76,209 C 79,211 86,224 103,223 C 119,222 123,211 129,208 C 117,206 117,207 101,208 C 94,209 90,206 76,209 Z" fill="#A13421" id="id-75322"></path><path d=" M 76,209 C 78,210 80,215 86,218 C 90,221 118,219 122,215 C 124,212 127,209 129,208 C 117,206 117,207 101,208 C 94,209 90,206 76,209 Z" fill="url(#id-75236)" id="id-75322"></path><path d=" M 76,209 C 78,210 80,215 86,218 C 90,221 118,219 122,215 C 124,212 127,209 129,208 C 117,206 118,217 102,218 C 85,219 90,206 76,209 Z" fill="#D04E2F" id="id-75322"></path><path d=" M 89,212 C 91,214 94,215 97,214 C 101,213 106,212 113,212 C 109,210 106,210 104,210 C 99,211 96,210 91,211 C 90,211 90,212 89,212 Z" fill="#FA827F" id="id-75325"></path><polygon points="50 128 50 122 64 123 65 128" fill="url(#id-75237)" id="id-75326"></polygon><path d=" M 41,126 C 47,123 52,121 57,122 C 62,123 70,126 80,131 C 72,123 63,119 54,119 C 46,120 41,122 41,126 Z" fill="#662917" id="id-75327"></path><polygon points="60 139 79 141 84 137" fill="#F8B291" id="id-75328"></polygon><polygon points="69 138 80 138 80 137 75 134 75 137" fill="#902727" id="id-75329"></polygon><path d=" M 47,132 L 50,138 C 56,138 60,139 63,138 C 66,138 70,138 75,137 C 75,136 75,135 75,134 C 71,130 65,129 61,128 C 56,127 51,129 47,132 Z" fill="#D2B3B9" id="id-75330"></path><path d=" M 53,131 C 54,135 56,138 61,138 C 66,138 69,136 70,131 C 66,129 62,128 60,128 C 58,128 56,129 53,131 Z" fill="#250B06" id="id-75331"></path><path d=" M 57,133 C 55,134 54,135 55,135 C 56,137 58,138 61,138 C 64,138 66,137 68,136 C 68,135 67,133 65,133 C 63,135 60,134 57,133 Z" fill="#920017" id="id-75331"></path><path d=" M 47,132 L 49,136 C 54,133 57,132 58,132 C 71,131 75,135 75,134 C 71,130 65,129 61,128 C 56,127 51,129 47,132 Z" fill="#000000" opacity="0.300" id="id-75330"></path><polygon points="57 132 57 130 60 130 60 132" fill="#BDA7A9" id="id-75334"></polygon><path d=" M 33,131 L 39,135 L 43,134 C 50,131 56,129 61,130 C 66,130 72,132 81,137 C 77,132 72,129 64,128 C 56,126 48,127 41,131 L 33,131 Z" fill="#2C1309" id="id-75335"></path><polygon points="43 137 47 135 50 137" fill="#3A180F" id="id-75336"></polygon><polygon points="50 139 50 143 53 139" fill="#3A180F" id="id-75337"></polygon><polygon points="55 140 58 140 55 145" fill="#3A180F" id="id-75338"></polygon><polygon points="122 107 126 106 120 118" fill="#662913" id="id-75339"></polygon><polygon points="118 108 120 108 118 115 114 118" fill="#662913" id="id-75340"></polygon></g><defs><linearGradient x1="50%" y1="23%" x2="50%" y2="77%" id="id-76091"><stop stop-color="#CA028F" offset="0%"></stop><stop stop-color="#9A016B" offset="100%"></stop></linearGradient></defs><g transform=" translate(508,1082)" id="id-76092"><polygon points="1 33 7 32 58 108 89 162 103 187 129 231 133 236 166 232 248 90 284 35 293 35 289 22 284 7 233 66 194 112 220 130 169 179 162 232 136 232 120 179 70 124 67 100 4 22" fill="#280502" opacity="0.478" id="id-76093"></polygon><polygon points="8 2 12 2 11 6 11 9 54 63 74 86 102 112 102 116 194 114 196 108 234 69 263 35 283 9 285 3 288 15 289 23 248 83 220 130 201 167 166 232 164 235 147 240 133 236 119 210 96 171 70 124 43 80 4 23" fill="#ED017C" id="id-76093"></polygon><polygon points="246 55 263 35 283 9 285 3 288 15 289 23 253 75 253 66" fill="#C60091" id="id-76093"></polygon><polygon points="194 114 196 108 234 69 263 35 283 9 281 1 285 3 285 9 236 71" fill="#FC55C3" id="id-76093"></polygon><polygon points="196 176 166 232 164 235 147 240 133 236 119 210 105 186 154 193" fill="url(#id-76091)" id="id-76093"></polygon><polygon points="248 83 220 130 201 167 166 232 164 234 157 236 187 182" fill="#9A016B" id="id-76093"></polygon><polygon points="8 2 12 1 11 6 11 9 50 58 43 80 4 22" fill="#C80090" id="id-76093"></polygon><polygon points="11 9 54 63 74 86 102 112 97 109 74 88 48 60" fill="#FF60CD" id="id-76093"></polygon><path d=" M 108,122 C 116,145 129,156 147,156 C 164,156 178,145 188,122 L 108,122 Z" fill="#472737" id="id-76101"></path><path d=" M 114,122 C 120,140 131,149 146,149 C 161,149 173,141 182,123 L 114,122 Z" fill="#FFA615" id="id-76101"></path><path d=" M 114,122 C 116,127 118,131 119,133 C 121,137 173,137 177,133 C 178,131 180,128 182,123 L 114,122 Z" fill="#FFED2B" id="id-76101"></path><polygon points="102 114 195 112 194 119 171 130 147 132 129 130 108 123 103 119" fill="#010101" id="id-76104"></polygon><polygon points="174 129 171 130 147 132 129 130 124 128 147 120" fill="#473E56" id="id-76104"></polygon></g><defs><linearGradient x1="33%" y1="59%" x2="66%" y2="64%" id="id-40035"><stop stop-color="#050E15" offset="0%" stop-opacity="0.810"></stop><stop stop-color="#040D13" offset="11%" stop-opacity="0.379"></stop><stop stop-color="#040D13" offset="19%" stop-opacity="0.151"></stop><stop stop-color="#040D13" offset="28%" stop-opacity="0.329"></stop><stop stop-color="#040B10" offset="41%" stop-opacity="0.741"></stop><stop stop-color="#03090E" offset="59%" stop-opacity="0.740"></stop><stop stop-color="#03080B" offset="70%" stop-opacity="0.221"></stop><stop stop-color="#03070B" offset="79%" stop-opacity="0.133"></stop><stop stop-color="#02070B" offset="89%" stop-opacity="0.332"></stop><stop stop-color="#020609" offset="100%" stop-opacity="0.712"></stop></linearGradient></defs><g transform=" translate(450,1060)" id="id-40036"><path d=" M 315,72 C 331,189 359,253 401,265 C 402,281 403,298 402,314 C 394,426 347,550 347,571 C 347,626 340,674 347,700 L 347,700 L 245,700 C 231,673 238,628 231,601 C 229,568 229,533 228,499 C 228,446 209,336 219,260 C 246,202 278,140 315,72 Z M 86,54 L 194,258 C 194,258 195,269 196,281 C 188,416 173,470 169,554 C 169,578 171,579 171,604 C 166,624 165,646 167,673 L 167,673 L 162,700 L 53,700 C 56,692 58,681 60,667 C 32,461 4,415 0,271 C 40,271 69,199 86,54 L 86,54 Z M 104,605 L 98,619 L 106,655 L 128,654 L 129,633 L 104,605 Z M 122,575 L 115,585 L 110,601 L 127,616 L 122,575 Z M 117,495 L 103,497 L 103,514 L 109,512 L 104,520 L 106,536 L 116,536 L 117,512 L 117,495 Z M 115,420 L 97,423 L 100,480 L 117,471 L 117,446 L 101,445 L 116,432 L 115,420 Z M 305,370 L 305,380 L 332,392 L 307,396 L 311,435 L 347,444 L 347,428 L 329,425 L 347,420 L 347,404 L 347,377 L 305,370 Z M 109,383 L 99,383 L 98,407 L 110,407 L 109,383 Z M 110,346 L 102,350 L 98,375 L 110,369 L 110,346 Z" fill="url(#id-40035)" id="id-40037"></path><path d=" M 77,1 C 77,1 95,31 130,90 L 130,90 L 280,90 C 280,90 297,62 332,6 C 332,6 332,6 332,6 L 332,6 C 332,7 336,13 343,24 C 343,24 344,26 345,30 L 345,30 L 294,118 C 294,118 318,111 365,95 C 365,95 366,99 367,107 C 367,107 367,107 367,107 L 367,107 C 365,108 361,109 355,111 L 354,112 C 341,116 318,124 286,134 C 286,134 268,169 232,240 C 232,240 279,207 373,141 C 373,141 374,144 375,149 C 375,149 323,187 220,264 C 215,265 213,266 204,267 C 199,266 196,265 193,264 C 189,260 187,256 185,251 L 185,251 L 27,161 C 27,161 28,159 29,153 C 29,153 79,181 178,238 C 178,238 159,202 122,129 C 122,129 94,121 40,103 L 40,103 L 40,103 C 40,103 41,98 43,90 C 43,90 67,98 114,114 L 114,114 L 66,28 C 66,28 70,19 77,1 Z M 276,100 C 276,100 276,100 276,100 L 276,100 C 273,100 226,100 136,100 C 136,100 140,109 149,126 C 183,141 222,139 260,129 C 260,129 265,119 276,100 Z" fill="#131415" id="id-40037"></path><g transform=" translate(42,179)" fill="#BFBFBF" fill-opacity="0.193" id="id-40039"><path d=" M 239,132 C 231,134 226,136 226,136 C 224,107 223,92 223,92 L 230,57 C 236,107 239,132 239,132 Z" id="id-40040"></path><path d=" M 232,190 C 242,191 254,193 254,193 C 254,202 254,211 254,218 C 205,401 221,458 221,458 C 210,418 205,379 205,342 C 209,321 230,273 232,190 Z" id="id-40041"></path><path d=" M 44,266 C 29,264 16,262 1,259 C 23,372 39,474 39,474 L 48,413 C 39,391 37,341 44,266 Z" id="id-40042"></path><path d=" M 30,120 C 20,120 3,107 3,107 C 5,84 6,72 6,72 L 16,55 C 18,85 23,107 30,120 Z" id="id-40043"></path><path d=" M 74,118 C 59,100 57,65 57,65 L 61,1 C 100,41 104,80 74,118 Z" id="id-40044"></path></g></g><defs><radialGradient cx="50%" cy="10%" r="93%" id="id-40217" fx="50%" fy="10%" gradientTransform=" translate(0.500,0.105) scale(0.438,1) rotate(90) scale(1,1) translate(-0.500,-0.105)"><stop stop-color="#33394B" offset="0%"></stop><stop stop-color="#343A4B" offset="44%" stop-opacity="0.390"></stop><stop stop-color="#292728" offset="100%"></stop></radialGradient><radialGradient cx="52%" cy="35%" r="46%" id="id-40218" fx="52%" fy="35%" gradientTransform=" translate(0.524,0.347) scale(0.395,1) rotate(90) scale(1,3) translate(-0.524,-0.347)"><stop stop-color="#3D4B6D" offset="0%"></stop><stop stop-color="#3D4B6D" offset="51%" stop-opacity="0.482"></stop><stop stop-color="#292728" offset="100%"></stop></radialGradient><linearGradient x1="50%" y1="0%" x2="47%" y2="100%" id="id-40219"><stop stop-color="#30323E" offset="0%"></stop><stop stop-color="#292728" offset="100%"></stop></linearGradient></defs><g transform=" translate(494,648)" id="id-40220"><path d=" M 40,357 C 41,360 41,361 41,361 C 102,372 152,377 189,375 C 189,381 189,384 189,384 C 216,383 230,383 230,383 C 232,376 233,372 233,372 C 263,368 278,365 278,365 C 278,363 278,361 278,361 C 282,363 284,364 284,364 C 284,382 284,392 284,392 C 271,397 253,400 233,403 C 233,398 233,395 233,395 C 204,396 190,397 190,397 C 190,404 190,408 190,408 C 181,409 176,409 176,409 C 176,406 176,405 176,405 C 99,400 53,395 39,388 L 33,360 C 38,358 40,357 40,357 Z" fill="#292828" id="id-40221"></path><path d=" M 177,376 C 177,374 177,373 177,373 C 186,373 190,373 190,373 C 190,381 189,384 189,384 C 215,384 228,383 228,383 C 227,375 227,370 227,370 C 236,369 240,368 240,368 L 240,371 L 233,373 C 234,393 235,404 235,404 C 239,403 242,403 242,403 C 242,405 242,407 242,407 C 234,408 230,408 230,408 C 229,399 229,395 229,395 C 203,395 189,395 189,395 C 189,404 189,408 189,408 C 182,408 178,408 178,408 C 178,406 178,405 178,405 C 182,405 184,405 184,405 L 185,376 C 180,376 177,376 177,376 Z" fill="#4B5D78" id="id-40222"></path><path d=" M 191,386 C 214,385 226,385 226,385 C 226,391 226,393 226,393 L 192,394 C 191,389 191,386 191,386 Z" fill="#7D97C2" id="id-40223"></path><path d=" M 191,386 C 200,386 205,386 205,386 L 205,394 L 192,394 C 191,389 191,386 191,386 Z" fill="#FF0000" id="id-40224"></path><path d=" M 177,372 L 186,375 L 190,372 C 181,372 177,372 177,372 Z" fill="#7D97C3" id="id-40225"></path><path d=" M 227,370 L 231,373 L 240,368 C 231,369 227,370 227,370 Z" fill="#7D97C3" id="id-40226"></path><path d=" M 284,388 L 284,368 L 283,368 C 267,373 254,375 241,375 L 240,375 L 241,398 C 252,396 261,395 267,393 C 272,392 278,391 283,389 L 284,388 Z M 281,371 L 282,370 L 282,387 C 276,389 270,391 265,392 C 260,393 253,394 243,396 L 242,377 L 243,377 C 255,377 267,374 281,371 Z" fill="#414D61" id="id-40227" fill-rule="nonzero"></path><polygon points="253 376 255 376 254 396 252 396" fill="#414D61" id="id-40228" fill-rule="nonzero"></polygon><path d=" M 34,366 C 41,368 74,374 107,377 C 131,379 155,380 181,380 L 181,400 L 180,400 C 119,401 72,396 38,385 L 37,382 C 69,393 112,398 167,398 L 171,398 C 172,398 175,398 179,398 L 179,382 L 178,382 C 178,382 142,383 107,380 C 74,377 41,370 35,368 L 34,366 Z" fill="#414D61" id="id-40229" fill-rule="nonzero"></path><polygon points="168 381 170 381 169 399 167 399" fill="#414D61" id="id-40230" fill-rule="nonzero"></polygon><path d=" M 49,69 C 59,68 64,68 64,68 C 62,47 61,36 61,36 C 71,35 76,35 76,35 C 75,26 74,22 74,22 C 45,25 31,27 31,27 C 33,35 33,39 33,39 L 46,38 C 48,59 49,69 49,69 Z" fill="#495B75" id="id-40231"></path><path d=" M 33,82 L 78,80 C 78,70 78,65 78,65 L 32,68 L 33,82 Z" fill="#495B75" id="id-40232"></path><path d=" M 32,73 L 75,69 L 78,80 L 78,65 L 32,68 C 32,71 32,73 32,73 Z" fill="#7791BA" id="id-40233"></path><path d=" M 287,351 C 297,275 302,237 302,237 C 309,227 316,217 319,209 C 314,175 306,152 297,134 C 263,116 218,121 184,130 C 151,133 119,129 89,118 C 84,115 79,100 74,72 L 36,74 C 33,92 30,111 24,132 C 12,156 0,175 0,200 C 5,216 13,230 24,243 C 30,267 31,311 33,348 C 36,350 38,352 41,353 C 41,349 40,348 40,348 C 46,342 96,341 161,341 C 198,341 236,342 280,353 C 285,352 287,351 287,351 Z" fill="#292828" id="id-40234"></path><path d=" M 40,353 C 38,352 35,350 33,348 C 31,319 30,291 27,264 C 68,241 112,237 157,242 L 127,251 L 205,242 L 299,253 L 286,351 L 279,359 L 279,353 C 245,343 202,341 157,341 C 123,341 45,341 40,348 L 40,353 Z" fill="url(#id-40217)" id="id-40235"></path><path d=" M 89,118 C 86,113 84,111 84,111 L 28,115 L 24,132 C 14,154 -1,174 0,200 C 2,208 5,215 10,222 L 302,237 C 310,225 316,215 319,208 C 316,187 312,164 297,134 C 259,115 222,122 184,130 C 150,133 118,129 89,118 Z" fill="url(#id-40218)" opacity="0.789" id="id-40236"></path><path d=" M 39,81 L 70,79 L 70,82 C 73,94 75,102 76,108 C 77,112 79,118 81,126 C 92,134 107,137 125,138 L 126,138 C 127,138 139,137 163,136 L 194,132 L 226,130 C 253,129 275,131 294,139 L 296,140 C 296,142 300,148 304,156 C 310,172 317,193 317,194 C 317,194 317,196 318,198 C 316,196 315,195 315,194 C 310,178 305,166 302,158 C 301,155 298,149 294,142 L 294,141 C 274,133 252,131 225,132 L 195,134 L 162,138 L 127,140 C 126,140 126,140 126,140 C 107,140 92,136 80,127 C 77,120 76,114 75,111 C 73,104 71,94 68,81 L 41,83 L 38,99 L 31,131 C 16,157 7,182 4,208 C 4,208 4,209 4,210 C 3,208 2,207 2,206 C 6,181 15,156 29,130 L 36,102 L 39,81 Z" fill="#485A74" id="id-40237" fill-rule="nonzero"></path><path d=" M 70,93 L 71,93 C 72,93 72,95 71,95 L 39,96 L 37,96 C 37,96 37,95 39,94 L 70,93 Z" fill="#46556D" id="id-40238" fill-rule="nonzero"></path><polygon points="49 51 59 50 61 64 50 65" fill="#FF0000" id="id-40239"></polygon><polygon points="49 48 48 36 58 33 59 48" fill="#758EB5" id="id-40240"></polygon><polygon points="34 33 70 29 70 12 66 0 28 9 26 15 30 14" fill="#292728" id="id-40241"></polygon><path d=" M 60,1 L 33,8 L 34,9 C 37,15 37,21 38,27 L 38,28 L 64,24 L 61,3 C 61,3 60,2 60,1 Z M 59,3 L 63,23 L 39,27 L 39,27 C 38,21 38,15 35,9 L 59,3 Z" fill="#475770" id="id-40242" fill-rule="nonzero"></path><polygon points="62 13 62 14 37 20 37 19" fill="#475770" id="id-40243" fill-rule="nonzero"></polygon><polygon points="33 252 33 229 49 215" fill="#2A272A" id="id-40244"></polygon><path d=" M 37,305 L 37,269 L 53,242 C 54,258 50,279 37,305 Z" fill="url(#id-40219)" id="id-40245"></path><path d=" M 32,341 C 56,331 99,326 151,328 C 177,330 196,331 209,332 C 223,334 278,344 286,347 L 287,348 L 287,348 C 278,345 221,335 207,333 C 195,332 176,331 151,329 C 100,327 57,332 33,342 L 32,342 L 32,341 Z" fill="#435267" id="id-40246" fill-rule="nonzero"></path><polygon points="74 22 76 22 78 34 76 35" fill="#7690B8" id="id-40247"></polygon></g><defs><linearGradient x1="0%" y1="50%" x2="100%" y2="50%" id="id-58734"><stop stop-color="#354E62" offset="0%"></stop><stop stop-color="#1B2F39" offset="52%"></stop><stop stop-color="#051516" offset="100%"></stop></linearGradient><linearGradient x1="0%" y1="50%" x2="100%" y2="50%" id="id-58735"><stop stop-color="#051516" offset="0%"></stop><stop stop-color="#1B2F39" offset="48%"></stop><stop stop-color="#354E62" offset="100%"></stop></linearGradient><linearGradient x1="24%" y1="53%" x2="84%" y2="46%" id="id-58736"><stop stop-color="#071B1E" offset="0%"></stop><stop stop-color="#1C333D" offset="100%"></stop></linearGradient><linearGradient x1="51%" y1="52%" x2="49%" y2="46%" id="id-58737"><stop stop-color="#051516" offset="0%"></stop><stop stop-color="#0A1B1E" offset="20%"></stop><stop stop-color="#182C35" offset="52%"></stop><stop stop-color="#304859" offset="92%"></stop><stop stop-color="#354E62" offset="100%"></stop></linearGradient><radialGradient cx="84%" cy="44%" r="47%" id="id-58738" fx="84%" fy="44%" gradientTransform=" translate(0.837,0.439) scale(0.738,1) translate(-0.837,-0.439)"><stop stop-color="#14374F" offset="0%"></stop><stop stop-color="#0A222D" offset="100%"></stop></radialGradient><linearGradient x1="-297%" y1="-63%" x2="3573%" y2="1187%" id="id-58739"><stop stop-color="#354E62" offset="0%"></stop><stop stop-color="#1B2F39" offset="52%"></stop><stop stop-color="#051516" offset="100%"></stop></linearGradient><linearGradient x1="-0.2701%" y1="-2160%" x2="-2926%" y2="-910%" id="id-58740"><stop stop-color="#354E62" offset="0%"></stop><stop stop-color="#1B2F39" offset="52%"></stop><stop stop-color="#051516" offset="100%"></stop></linearGradient><linearGradient x1="-169%" y1="-21%" x2="3702%" y2="1229%" id="id-58741"><stop stop-color="#354E62" offset="0%"></stop><stop stop-color="#1B2F39" offset="52%"></stop><stop stop-color="#051516" offset="100%"></stop></linearGradient><linearGradient x1="-12%" y1="37%" x2="38%" y2="52%" id="id-58742"><stop stop-color="#354E62" offset="0%"></stop><stop stop-color="#1B2F39" offset="52%"></stop><stop stop-color="#051516" offset="100%"></stop></linearGradient><linearGradient x1="-170%" y1="-21%" x2="3701%" y2="1229%" id="id-58743"><stop stop-color="#354E62" offset="0%"></stop><stop stop-color="#1B2F39" offset="52%"></stop><stop stop-color="#051516" offset="100%"></stop></linearGradient><linearGradient x1="-170%" y1="-21%" x2="3701%" y2="1229%" id="id-58744"><stop stop-color="#354E62" offset="0%"></stop><stop stop-color="#1B2F39" offset="52%"></stop><stop stop-color="#051516" offset="100%"></stop></linearGradient><linearGradient x1="65%" y1="48%" x2="121%" y2="37%" id="id-58745"><stop stop-color="#051516" offset="0%"></stop><stop stop-color="#1B2F39" offset="48%"></stop><stop stop-color="#354E62" offset="100%"></stop></linearGradient><radialGradient cx="74%" cy="63%" r="61%" id="id-58746" fx="74%" fy="63%" gradientTransform=" translate(0.741,0.627) scale(0.708,1) translate(-0.741,-0.627)"><stop stop-color="#3C5F79" offset="0%"></stop><stop stop-color="#274B64" offset="100%"></stop></radialGradient><radialGradient cx="64%" cy="43%" r="46%" id="id-58747" fx="64%" fy="43%" gradientTransform=" translate(0.643,0.429) scale(0.731,1) rotate(5) translate(-0.643,-0.429)"><stop stop-color="#081E2D" offset="0%"></stop><stop stop-color="#051516" offset="100%"></stop></radialGradient><linearGradient x1="47%" y1="130%" x2="131%" y2="-1983%" id="id-58748"><stop stop-color="#051516" offset="0%"></stop><stop stop-color="#354E62" offset="100%"></stop></linearGradient><linearGradient x1="49%" y1="53%" x2="51%" y2="45%" id="id-58749"><stop stop-color="#051516" offset="0%"></stop><stop stop-color="#354E62" offset="100%"></stop></linearGradient></defs><g transform=" translate(280,572)" id="id-58750"><polygon points="626 842 653 850 642 878 619 863" fill="#041012" id="id-58751"></polygon><polygon points="673 751 673 762 592 774 601 761" fill="#041012" id="id-58751"></polygon><polygon points="673 750 674 742 602 734 596 742" fill="#041012" id="id-58751"></polygon><polygon points="51 751 51 763 135 783 140 773" fill="#041012" id="id-58751"></polygon><polygon points="58 740 54 750 140 734 140 726" fill="#041012" id="id-58751"></polygon><polygon points="676 702 676 713 601 725 601 715" fill="#C0854D" id="id-58751"></polygon><polygon points="62 730 64 723 143 754 137 763" fill="#C0854D" id="id-58751"></polygon><polygon points="61 857 95 845 96 860 67 875" fill="#C0854D" id="id-58751"></polygon><polygon points="81 850 61 857 67 875 81 868" fill="#F7CA8E" id="id-58751"></polygon><polygon points="165 220 171 257 165 315 111 427 97 358 31 431 74 253 0 296 118 182 133 148" fill="url(#id-58734)" opacity="0.563" id="id-58751"></polygon><polygon points="615 124 722 246 677 230 689 397 661 307 657 467 605 369 579 339 567 198" fill="url(#id-58735)" opacity="0.563" id="id-58751"></polygon><path d=" M 480,76 L 494,100 L 467,93 L 460,97 L 450,102 L 445,102 L 435,107 L 413,115 C 413,115 397,116 397,116 C 396,116 378,110 378,110 C 378,109 356,98 387,88 C 418,78 480,76 480,76 Z" fill="url(#id-58736)" id="id-58751"></path><path d=" M 270,74 C 247,73 134,105 134,105 C 134,106 134,107 133,107 C 143,115 153,119 165,121 C 185,125 193,125 193,125 L 253,128 L 253,127 L 253,127 L 261,116 L 261,115 L 288,75 C 288,75 287,72 285,68 L 269,80 L 270,74 Z" fill="url(#id-58737)" id="id-58751"></path><path d=" M 403,79 L 440,38 L 431,3 C 431,3 377,28 269,80 C 276,89 284,97 293,104 L 304,108 L 301,109 C 305,112 309,115 312,118 L 316,112 L 325,113 L 323,121 L 328,114 L 338,117 L 327,128 L 327,129 L 355,120 L 363,122 C 370,116 375,111 375,111 L 435,93 L 403,79 Z" fill="url(#id-58738)" id="id-58751"></path><path d=" M 137,104 L 137,104 L 137,104 Z" fill="url(#id-58739)" id="id-58751"></path><polygon points="253 127 253 127 253 127" fill="url(#id-58740)" id="id-58751"></polygon><path d=" M 134,106 L 134,106 L 134,106 Z" fill="url(#id-58741)" id="id-58751"></path><path d=" M 253,128 L 193,125 C 193,125 185,125 165,121 C 153,119 143,115 133,107 C 131,116 130,140 132,166 C 135,195 154,236 154,236 C 187,219 237,156 237,156 L 244,164 L 266,134 L 253,127 L 253,128 Z" fill="url(#id-58742)" id="id-58751"></path><path d=" M 133,107 L 134,107 L 133,107 Z" fill="url(#id-58743)" id="id-58751"></path><path d=" M 134,107 L 134,106 L 134,107 Z" fill="url(#id-58744)" id="id-58751"></path><path d=" M 619,137 C 619,130 618,123 617,118 L 494,123 L 500,136 L 480,148 L 506,175 L 517,163 C 550,205 596,236 596,236 C 608,218 621,152 619,137 Z" fill="url(#id-58745)" id="id-58751"></path><polygon points="435 93 480 77 479 74 480 69 440 38 403 79" fill="url(#id-58746)" id="id-58751"></polygon><polygon points="548 124 491 117 504 129" fill="#C0AEAC" id="id-58751"></polygon><polygon points="575 123 617 121 616 114" fill="#C0AEAC" id="id-58751"></polygon><polygon points="253 127 255 116 192 125" fill="#C0AEAC" id="id-58751"></polygon><path d=" M 132,114 C 137,119 165,121 165,121 C 145,117 138,104 138,104 L 138,104 L 134,105 C 133,108 132,111 132,114 L 132,114 Z" fill="#C0AEAC" id="id-58751"></path><polygon points="506 142 519 151 502 164 491 148" fill="#A56F3D" id="id-58751"></polygon><polygon points="240 129 256 134 241 151 230 140" fill="#A56F3D" id="id-58751"></polygon><path d=" M 378,55 C 400,40 417,26 431,3 C 431,3 391,24 376,21 C 366,19 350,13 329,2 L 319,44 L 269,77 L 255,116 L 253,127 L 261,116 L 291,103 L 304,108 L 274,121 L 305,132 L 316,112 L 325,113 L 323,121 L 328,114 L 338,117 L 325,129 L 355,120 L 382,126 L 412,114 L 322,95 C 322,95 340,81 378,55 Z" fill="url(#id-58747)" id="id-58751"></path><path d=" M 341,91 C 343,88 345,86 347,83 C 349,80 351,78 352,75 C 354,72 355,69 356,66 C 357,62 358,59 359,56 C 360,49 361,42 362,36 C 362,29 363,22 363,16 C 363,22 363,29 362,36 C 362,43 361,50 360,56 C 360,60 359,63 358,66 C 357,70 356,73 354,76 C 353,79 351,82 349,85 C 348,88 346,90 344,93 L 344,93 C 343,94 342,94 342,94 C 341,93 341,92 341,91 L 341,91 Z" fill="#102E3E" id="id-58751"></path><ellipse cx="342" cy="93" fill="#102E3E" id="id-58781" rx="3" ry="2"></ellipse><path d=" M 309,87 C 315,83 320,78 325,74 C 328,71 330,69 332,66 C 334,63 336,60 337,57 C 340,50 341,44 343,37 C 344,30 345,23 345,16 C 345,23 344,30 343,37 C 343,44 341,51 339,58 C 338,61 336,64 334,67 C 332,70 329,73 327,75 C 322,81 317,85 311,90 C 310,90 309,90 309,89 C 308,89 308,87 309,87 L 309,87 L 309,87 Z" fill="#102E3E" id="id-58751"></path><ellipse cx="308" cy="89" fill="#102E3E" id="id-58781" rx="5" ry="3"></ellipse><ellipse cx="291" cy="80" fill="#102E3E" id="id-58781" rx="5" ry="3"></ellipse><path d=" M 293,78 C 298,74 304,69 309,65 C 312,62 315,60 317,58 L 318,57 L 319,56 C 320,55 320,55 321,54 L 322,52 L 324,49 C 325,48 325,46 326,45 C 327,43 327,41 328,40 C 329,36 330,33 331,29 C 333,23 335,15 336,8 C 335,16 334,23 332,30 C 331,33 330,37 329,40 C 329,42 328,44 327,45 C 327,47 326,49 325,50 C 324,54 321,57 319,59 C 316,62 314,64 311,67 C 306,71 300,76 295,81 C 294,81 294,81 293,81 C 292,81 292,80 292,80 C 292,79 292,78 293,78 L 293,78 L 293,78 Z" fill="#102E3E" id="id-58751"></path><ellipse cx="377" cy="92" fill="#06171A" id="id-58781" rx="5" ry="4"></ellipse><path d=" M 375,92 L 380,54 C 382,42 383,29 384,17 C 383,29 383,42 382,54 L 379,92 L 375,92 Z" fill="#051618" id="id-58751"></path><ellipse cx="407" cy="95" fill="#06171A" id="id-58781" rx="4" ry="3"></ellipse><path d=" M 404,94 C 404,94 404,93 404,92 C 403,92 403,91 403,90 C 402,89 401,87 400,86 C 400,85 400,84 399,84 C 399,83 399,83 398,82 C 398,82 398,81 398,81 C 397,79 397,77 396,75 C 396,68 396,61 397,54 C 398,39 399,25 401,11 C 400,25 399,40 399,54 C 399,61 399,68 400,75 C 400,76 401,78 401,79 C 401,79 401,80 402,80 C 402,80 402,81 402,81 C 403,82 404,82 404,83 C 405,85 406,86 407,88 C 407,89 408,90 408,91 C 408,92 409,93 409,94 L 404,94 Z" fill="#051618" id="id-58751"></path><ellipse cx="428" cy="88" fill="#051618" id="id-58781" rx="5" ry="3"></ellipse><path d=" M 428,90 C 425,87 423,84 421,81 C 418,78 417,75 416,71 C 415,70 415,69 415,68 C 415,67 415,66 414,65 C 414,64 414,62 414,60 C 414,56 414,53 414,49 C 413,35 413,21 413,6 C 414,21 415,35 416,49 C 416,53 417,56 417,60 C 417,61 418,63 418,65 C 418,66 418,67 418,67 C 418,68 419,69 419,70 C 422,76 426,81 431,86 L 431,86 C 432,86 432,87 432,88 C 432,89 431,90 431,90 C 430,90 429,90 428,90 L 428,90 Z" fill="#051618" id="id-58751"></path><ellipse cx="449" cy="81" fill="#051618" id="id-58781" rx="5" ry="3"></ellipse><path d=" M 449,83 C 447,80 444,77 442,74 C 440,71 438,68 437,64 C 436,62 436,60 436,58 C 436,57 435,55 435,53 L 434,43 C 432,28 429,14 427,0 C 430,14 433,28 436,42 L 438,53 C 439,54 439,56 439,58 C 439,60 440,61 440,63 C 443,69 447,74 452,79 L 453,79 C 453,79 454,80 453,81 C 453,82 453,83 452,83 C 451,83 450,83 449,83 L 449,83 Z" fill="#051618" id="id-58751"></path><path d=" M 469,73 C 466,70 464,68 461,65 C 459,63 457,60 454,58 C 452,55 450,52 448,50 C 446,47 444,44 443,40 C 444,43 446,46 449,49 C 451,52 453,54 456,57 C 458,59 461,61 463,63 C 466,66 468,68 471,70 L 471,70 C 472,70 472,71 472,71 C 472,72 471,73 471,73 C 470,73 470,73 469,73 L 469,73 Z" fill="#051618" id="id-58751"></path><ellipse cx="471" cy="72" fill="#051618" id="id-58781" rx="4" ry="3"></ellipse><polygon points="444 102 445 102 445 103 445 103 445 103 469 124 485 110 450 102 439 100" fill="#051516" id="id-58751"></polygon><path d=" M 482,97 L 478,90 L 463,85 L 446,92 L 460,97 L 450,102 L 460,97 L 485,105 L 491,117 L 491,117 L 483,74 C 481,74 479,74 479,74 L 482,97 Z" fill="#051516" id="id-58751"></path><polygon points="435 107 431 100 402 109 412 114 453 132" fill="#051516" id="id-58751"></polygon><polygon points="484 111 485 110 484 109" fill="url(#id-58748)" id="id-58751"></polygon><path d=" M 615,106 C 615,106 599,102 557,90 C 531,82 506,77 480,74 L 485,94 L 484,105 L 485,105 L 493,121 L 548,124 L 575,123 L 617,118 C 616,111 615,106 615,106 Z" fill="url(#id-58749)" id="id-58751"></path><polygon points="647 595 611 541 618 513 643 537" fill="#041012" id="id-58751"></polygon><polygon points="582 478 580 507 606 542 611 507" fill="#041012" id="id-58751"></polygon><polygon points="584 470 639 519 639 474 594 446" fill="#041012" id="id-58751"></polygon><polygon points="588 425 566 396 564 439 578 454" fill="#041012" id="id-58751"></polygon><polygon points="601 441 627 444 611 390" fill="#041012" id="id-58751"></polygon><polygon points="631 356 631 392 654 424 654 385" fill="#041012" id="id-58751"></polygon><path d=" M 603,350 C 604,350 614,318 614,318 L 591,265 L 564,300 L 603,350 Z" fill="#041012" id="id-58751"></path><polygon points="573 326 608 368 597 417 573 385" fill="#041012" id="id-58751"></polygon><polygon points="543 295 567 324 557 366" fill="#041012" id="id-58751"></polygon><polygon points="546 265 559 218 543 204 531 228" fill="#041012" id="id-58751"></polygon><polygon points="559 276 564 225 591 245" fill="#041012" id="id-58751"></polygon><polygon points="594 241 606 230 615 302" fill="#041012" id="id-58751"></polygon><polygon points="619 217 630 186 649 231 642 291" fill="#041012" id="id-58751"></polygon><polygon points="649 186 623 163 632 139" fill="#041012" id="id-58751"></polygon><polygon points="660 207 657 283 686 311" fill="#041012" id="id-58751"></polygon><polygon points="670 314 686 359 689 332" fill="#041012" id="id-58751"></polygon><polygon points="627 285 630 330 671 361" fill="#041012" id="id-58751"></polygon><polygon points="125 162 128 187 103 195" fill="#041012" id="id-58751"></polygon><polygon points="84 210 79 239 65 230" fill="#041012" id="id-58751"></polygon><path d=" M 132,193 L 113,241 C 113,241 124,271 124,270 C 124,269 139,217 139,217 L 132,193 Z" fill="#041012" id="id-58751"></path><polygon points="98 238 108 267 93 285" fill="#041012" id="id-58751"></polygon><polygon points="74 296 82 355 53 379" fill="#041012" id="id-58751"></polygon><path d=" M 118,270 L 95,303 C 95,303 110,363 110,362 C 110,361 120,309 120,309 L 118,270 Z" fill="#041012" id="id-58751"></path><polygon points="124 284 139 305 144 276 138 247" fill="#041012" id="id-58751"></polygon><polygon points="146 232 156 242 169 232 180 257 162 285 157 247 151 296" fill="#041012" id="id-58751"></polygon><polygon points="174 230 199 206 201 269 183 253" fill="#041012" id="id-58751"></polygon><polygon points="204 222 222 233 219 187 201 201" fill="#041012" id="id-58751"></polygon><polygon points="261 156 291 136 276 127" fill="#041012" id="id-58751"></polygon><polygon points="484 122 491 132 483 140 472 138" fill="#041012" id="id-58751"></polygon><path d=" M 185,276 C 185,276 200,277 201,277 C 202,277 184,316 184,316 L 185,276 Z" fill="#041012" id="id-58751"></path><polygon points="175 275 178 307 149 355 144 315" fill="#041012" id="id-58751"></polygon><polygon points="178 330 156 401 141 373" fill="#041012" id="id-58751"></polygon><polygon points="175 342 181 384 193 356" fill="#041012" id="id-58751"></polygon><path d=" M 173,378 L 178,425 C 178,425 169,454 169,454 C 169,455 158,417 158,417 L 173,378 Z" fill="#041012" id="id-58751"></path><polygon points="138 390 154 434 124 445" fill="#041012" id="id-58751"></polygon><polygon points="118 462 154 443 158 481 94 517" fill="#041012" id="id-58751"></polygon><polygon points="100 525 124 549 87 610" fill="#041012" id="id-58751"></polygon><polygon points="116 516 131 541 158 486" fill="#041012" id="id-58751"></polygon></g><defs><linearGradient x1="50%" y1="62%" x2="50%" y2="100%" id="id-64575"><stop stop-color="#B5FCDB" offset="0%"></stop><stop stop-color="#20B078" offset="100%"></stop></linearGradient></defs><g transform=" translate(444,325)" id="id-64576"><polygon points="212 7 210 54 218 58" fill="#63B492" id="id-64577"></polygon><path d=" M 213,0 C 261,0 310,27 310,112 C 307,185 330,277 330,277 C 345,305 352,319 352,319 C 371,338 388,347 405,347 C 402,350 396,352 385,353 C 400,367 404,399 387,416 L 387,416 L 387,416 C 390,409 396,379 386,372 C 387,386 390,437 371,451 C 381,429 378,418 375,407 L 374,406 C 374,405 374,405 374,404 L 373,403 C 372,400 372,398 371,395 C 352,382 329,355 329,355 C 338,406 329,434 303,440 C 337,408 293,363 293,333 C 250,277 296,208 287,138 C 275,128 245,99 232,64 C 221,64 218,60 216,57 C 215,57 215,46 214,35 L 214,34 C 214,26 213,19 213,14 C 211,24 212,50 212,57 L 212,57 C 212,58 212,58 212,58 C 203,86 180,104 141,113 C 114,155 161,246 126,308 C 126,337 122,368 99,402 L 98,403 L 99,401 C 121,356 114,335 114,322 C 92,403 36,359 43,473 C 42,468 40,463 39,457 L 39,455 L 39,455 L 38,453 C 32,427 25,401 36,386 C 27,389 1,417 1,442 C -8,408 46,363 46,363 C 27,375 13,385 5,393 C 14,377 34,363 48,355 C 50,330 89,310 89,310 C 97,293 106,275 116,257 C 126,185 114,159 118,107 C 122,27 168,4 213,0 Z M 387,416 L 387,416 C 387,417 386,417 386,417 C 386,417 387,417 387,416 L 387,416 Z M 314,322 C 314,322 313,335 312,360 L 312,360 L 325,388 C 325,388 325,388 325,388 L 325,388 C 325,387 324,385 324,381 L 324,380 C 323,372 322,360 320,342 L 320,340 C 320,340 320,339 320,338 C 320,338 318,333 314,322 Z M 85,318 C 70,328 59,339 53,352 L 53,352 L 82,331 L 82,331 L 82,331 C 82,330 82,327 85,318 Z M 368,338 C 363,340 361,341 361,341 L 376,349 C 371,342 368,338 368,338 Z M 332,308 C 330,306 330,315 330,315 L 330,315 L 351,333 L 351,332 C 344,321 337,313 332,308 Z M 110,300 C 96,306 91,315 89,323 C 96,318 107,305 110,300 Z M 336,296 L 336,296 C 334,301 333,303 333,303 L 333,303 L 343,310 L 343,310 C 339,303 337,298 336,297 L 336,297 L 336,297 C 336,296 336,296 336,296 L 336,296 L 336,296 C 336,296 336,296 336,296 Z M 285,232 L 285,232 C 277,275 290,300 290,300 C 287,262 285,239 285,232 L 285,232 Z M 113,278 C 105,292 101,300 101,300 L 112,291 C 112,283 113,279 113,278 L 113,278 L 113,278 Z M 130,203 C 130,210 129,240 127,292 C 127,292 142,254 130,203 Z M 285,230 C 285,229 285,229 285,231 L 285,232 L 285,231 L 285,231 Z M 240,66 C 243,77 267,113 276,120 C 279,122 276,111 268,87 C 257,77 248,71 240,66 Z M 179,89 C 166,89 159,89 158,89 L 158,89 L 158,89 L 144,97 C 141,101 140,104 140,105 C 158,103 179,89 179,89 Z M 263,74 L 263,75 C 282,92 291,101 291,102 L 291,102 L 291,102 L 291,101 C 288,95 284,89 279,84 C 271,77 264,74 263,74 L 263,74 L 263,74 C 263,74 263,74 263,74 L 263,74 Z M 203,63 C 200,63 193,67 186,72 L 185,72 C 176,77 168,83 168,83 C 181,82 193,75 203,63 Z" fill="url(#id-64575)" id="id-64578"></path><path d=" M 371,363 C 374,366 379,369 386,372 C 380,388 367,392 367,392 C 357,383 349,377 345,372 C 360,372 369,368 371,363 Z" fill="#B5FCDB" id="id-64579"></path><path d=" M 55,351 C 74,359 86,363 94,363 C 88,369 81,374 75,379 C 53,382 40,369 40,369 L 45,364 C 41,367 38,368 38,368 L 34,364 C 41,359 48,355 55,351 Z" fill="#B5FCDB" id="id-64580"></path><path d=" M 208,67 C 203,77 193,87 193,87 C 189,85 184,83 180,81 C 188,77 196,72 203,64 C 205,65 206,66 208,67 Z" fill="#F2FFF9" id="id-64581"></path><path d=" M 198,63 C 188,70 182,74 174,79 C 155,69 143,48 143,48 L 155,36 C 173,50 187,59 198,63 Z" fill="#F2FFF9" id="id-64582"></path><path d=" M 233,65 C 234,72 242,84 242,84 C 246,82 248,81 248,81 C 242,71 239,66 239,66 C 245,68 250,71 256,77 C 272,66 287,46 287,46 L 268,31 C 258,44 247,56 233,65 Z" fill="#F2FFF9" id="id-64583"></path></g><defs></defs><path d=" M 1202,1685 C 1201,1683 1198,1681 1197,1679 C 1196,1678 1196,1676 1196,1675 C 1196,1674 1194,1672 1193,1671 C 1193,1670 1192,1669 1192,1668 C 1192,1667 1195,1666 1196,1665 C 1198,1663 1200,1661 1202,1658 C 1207,1649 1216,1643 1226,1641 C 1240,1638 1254,1644 1263,1655 C 1264,1657 1266,1660 1265,1663 C 1265,1664 1263,1665 1263,1666 C 1263,1667 1265,1669 1266,1670 C 1271,1673 1269,1673 1270,1678 C 1270,1682 1274,1681 1274,1685 L 1274,1685 L 1274,1686 C 1274,1686 1274,1686 1274,1686 C 1273,1688 1271,1688 1270,1689 C 1268,1691 1267,1692 1266,1694 C 1263,1698 1261,1700 1258,1704 C 1242,1719 1214,1716 1202,1696 C 1201,1695 1199,1691 1200,1689 C 1201,1688 1202,1688 1202,1685 L 1202,1685 Z M 1268,1685 C 1267,1682 1265,1682 1264,1679 C 1264,1678 1264,1677 1264,1676 C 1264,1675 1264,1674 1264,1674 C 1264,1673 1263,1672 1262,1672 C 1260,1670 1256,1669 1258,1665 C 1259,1662 1261,1662 1258,1658 C 1246,1643 1223,1641 1210,1656 C 1209,1658 1208,1659 1207,1661 C 1205,1663 1202,1665 1200,1667 C 1197,1669 1197,1669 1200,1671 C 1203,1675 1201,1676 1203,1679 C 1204,1681 1207,1682 1208,1685 L 1208,1685 L 1208,1685 C 1207,1690 1203,1688 1207,1694 C 1216,1706 1232,1711 1246,1705 C 1249,1704 1252,1702 1255,1699 C 1257,1697 1259,1694 1261,1691 C 1263,1689 1267,1687 1268,1685 L 1268,1685 Z M 1254,1685 C 1254,1682 1252,1682 1252,1680 C 1251,1677 1251,1673 1255,1674 C 1258,1675 1256,1678 1258,1680 C 1259,1682 1260,1682 1260,1685 L 1261,1686 L 1260,1686 C 1259,1688 1257,1689 1255,1690 C 1248,1694 1246,1699 1237,1700 C 1231,1701 1225,1700 1221,1697 C 1219,1696 1216,1694 1215,1692 C 1213,1689 1216,1688 1216,1685 C 1215,1683 1212,1682 1211,1680 C 1208,1677 1210,1673 1214,1674 L 1214,1674 L 1215,1675 C 1216,1678 1215,1679 1217,1681 C 1219,1682 1222,1683 1222,1686 C 1222,1689 1220,1690 1224,1692 C 1230,1696 1238,1695 1244,1691 C 1246,1690 1253,1687 1254,1685 L 1254,1685 Z M 1244,1674 C 1242,1675 1239,1674 1237,1673 C 1236,1672 1233,1670 1232,1669 C 1231,1669 1231,1668 1231,1667 C 1231,1666 1233,1665 1234,1664 C 1235,1662 1237,1661 1238,1659 C 1242,1652 1249,1658 1247,1663 C 1246,1665 1243,1666 1243,1668 C 1243,1670 1246,1671 1244,1674 L 1244,1674 L 1244,1674 L 1244,1674 Z M 1222,1656 C 1224,1655 1227,1656 1228,1659 C 1229,1660 1229,1661 1229,1663 C 1228,1665 1223,1666 1225,1669 C 1225,1670 1226,1670 1226,1671 C 1227,1674 1226,1675 1223,1675 C 1222,1675 1219,1673 1218,1672 C 1216,1671 1212,1669 1214,1666 C 1215,1664 1217,1664 1218,1662 C 1219,1660 1220,1658 1222,1656 L 1222,1656 Z" fill="#343D53" opacity="0.297" id="id-77051"></path></svg>