<?xml version="1.0" encoding="UTF-8"?><svg width="1320px" height="1760px" viewBox="0 0 1320 1760" version="1.1" xmlns="http://www.w3.org/2000/svg" xmlns:xlink="http://www.w3.org/1999/xlink"><defs></defs><g stroke="none" stroke-width="1" fill="none" id="id-30528" fill-rule="evenodd"><g id="id-30529"><rect fill="#DA1866" width="1320" height="1760" x="0" y="0" id="id-30530"></rect><g transform=" translate(83,328)" id="id-30531"><path d=" M 120,1019 C 96,961 84,932 84,932 C 28,863 0,829 0,829 C 24,734 37,686 37,686 L 51,716 C 97,918 120,1019 120,1019 Z" fill="#1D1D1D" id="id-30532"></path><path d=" M 209,1012 C 217,1036 220,1048 220,1048 L 255,1035 C 225,1019 209,1012 209,1012 Z" fill="#1D1D1D" id="id-30533"></path><path d=" M 214,1066 C 271,1044 299,1033 299,1033 C 241,1020 171,994 132,893 C 67,699 54,522 100,364 C 146,248 201,131 437,0 C 397,47 377,70 377,70 C 565,2 807,64 952,200 C 1087,346 1107,499 1086,650 C 1077,842 1073,938 1073,938 C 1047,842 1034,794 1034,794 C 1002,855 962,896 919,930 C 768,1081 693,1156 693,1156 C 778,1054 820,1003 820,1003 C 757,1026 726,1038 726,1038 C 708,1036 699,1036 699,1036 C 674,1070 661,1088 661,1088 C 648,1252 641,1334 641,1334 C 614,1181 600,1104 600,1104 C 581,1065 571,1046 571,1046 C 521,1049 463,1051 386,1047 C 363,1076 351,1091 351,1091 C 338,1279 331,1373 331,1373 L 331,1055 C 253,1062 214,1066 214,1066 Z" fill="#1D1D1D" id="id-30534"></path><path d=" M 600,1207 C 598,1334 597,1397 597,1397 L 619,1334 C 607,1250 600,1207 600,1207 Z" fill="#1D1D1D" id="id-30535"></path><path d=" M 829,1129 C 956,985 1020,913 1020,913 L 972,1084 C 877,1114 829,1129 829,1129 Z" fill="#1D1D1D" id="id-30536"></path><path d=" M 876,1090 C 949,1005 986,963 986,963 L 954,1062 C 902,1080 876,1090 876,1090 Z" fill="#FFFFFF" id="id-30537"></path><path d=" M 1104,565 C 1101,505 1100,476 1100,476 L 1133,509 C 1114,546 1104,565 1104,565 Z" fill="#1D1D1D" id="id-30538"></path><path d=" M 1128,441 C 1095,346 1078,299 1078,299 L 1173,364 C 1143,415 1128,441 1128,441 Z" fill="#1D1D1D" id="id-30539"></path><path d=" M 1130,413 C 1106,358 1094,331 1094,331 L 1146,362 C 1135,396 1130,413 1130,413 Z" fill="#FFFFFF" id="id-30540"></path><path d=" M 1001,218 C 954,156 895,102 827,61 L 973,78 C 991,171 1001,218 1001,218 Z" fill="#1D1D1D" id="id-30541"></path><path d=" M 908,96 C 927,114 947,133 969,160 C 968,141 968,128 961,102 L 954,96 C 924,96 908,96 908,96 Z" fill="#FFFFFF" id="id-30542"></path><path d=" M 357,62 C 354,75 352,82 352,82 L 284,119 C 333,81 357,62 357,62 Z" fill="#FFFFFF" id="id-30543"></path><path d=" M 68,347 C 58,337 52,332 52,332 C 50,315 48,292 50,248 C 97,203 144,167 192,134 C 121,215 79,286 68,347 Z" fill="#1D1D1D" id="id-30544"></path><path d=" M 74,416 C 55,446 45,461 45,461 L 61,549 C 57,489 62,445 74,416 Z" fill="#1D1D1D" id="id-30545"></path><path d=" M 39,714 C 26,790 19,827 19,827 L 74,877 C 51,769 39,714 39,714 Z" fill="#FFFFFF" id="id-30546"></path><path d=" M 345,1061 C 361,1037 370,1025 370,1025 L 311,1004 C 333,1042 345,1061 345,1061 Z" fill="#FFFFFF" id="id-30547"></path><path d=" M 842,990 C 832,983 827,980 827,980 L 855,951 C 847,977 842,990 842,990 Z" fill="#FFFFFF" id="id-30548"></path><path d=" M 1086,585 C 1080,582 1077,581 1077,581 C 1077,601 1074,620 1070,638 C 1068,763 1067,826 1067,826 C 1050,767 1041,738 1041,738 C 1021,782 993,823 958,859 C 895,932 864,969 864,969 C 876,939 881,924 881,924 C 816,964 742,998 638,1007 C 632,1147 629,1217 629,1217 C 614,1113 606,1060 606,1060 C 592,1028 585,1012 585,1012 C 507,1012 431,1010 357,1006 C 304,1002 232,1014 190,971 C 190,1006 190,1024 190,1024 C 170,941 151,869 129,777 C 89,620 71,479 108,375 C 150,257 225,156 366,88 C 529,20 726,48 895,171 C 987,239 1046,340 1072,474 C 1077,521 1082,555 1086,585 Z" fill="#FFFFFF" id="id-30549"></path><path d=" M 173,913 C 170,869 169,847 169,847 C 142,740 128,687 128,687 C 97,501 116,344 210,229 C 233,201 261,168 294,134 C 294,143 295,147 295,147 C 394,74 509,52 637,75 C 939,141 1033,311 1054,518 C 1051,585 1053,660 1054,734 C 1037,713 1028,702 1028,702 C 972,850 855,955 634,987 C 620,1020 613,1037 613,1037 C 597,1007 589,993 589,993 C 529,997 456,996 408,994 C 317,997 192,1014 173,913 Z" fill="#00FF39" id="id-30550"></path><path d=" M 145,807 C 150,835 153,850 153,850 L 157,828 C 149,814 145,807 145,807 Z" fill="#000000" id="id-30551"></path><path d=" M 142,871 C 142,918 142,942 142,942 L 168,981 C 151,907 142,871 142,871 Z" fill="#FFFFFF" id="id-30552"></path><path d=" M 889,924 C 889,908 889,901 889,901 L 924,868 C 901,905 889,924 889,924 Z" fill="#19A94B" id="id-30553"></path><path d=" M 60,320 C 61,296 58,267 64,249 L 114,207 C 91,241 73,278 60,320 Z" fill="#FFFFFF" id="id-30554"></path><path d=" M 176,796 C 150,712 134,620 138,514 C 133,521 129,529 124,551 C 122,507 124,460 137,400 C 139,439 144,463 149,480 C 150,435 151,413 151,413 C 173,338 203,265 266,189 C 272,219 275,234 275,234 C 284,189 288,166 288,166 C 391,90 507,65 636,91 C 830,134 950,234 1005,385 C 1024,451 1026,518 1012,586 C 1024,548 1030,529 1030,529 C 1035,655 994,752 924,831 C 897,851 863,870 814,890 C 850,885 868,882 868,882 C 740,990 409,996 368,967 C 355,961 311,905 288,893 C 221,845 184,812 176,796 Z" fill="#117339" id="id-30555"></path><path d=" M 209,845 C 204,839 196,846 193,854 C 173,888 203,939 217,948 C 241,974 274,982 314,977 C 319,975 331,971 332,964 C 333,960 320,939 302,921 C 273,893 249,894 209,845 Z" fill="#117339" id="id-30556"></path><path d=" M 519,918 C 490,901 475,892 475,892 C 426,833 368,810 314,777 C 335,746 345,730 345,730 C 307,750 288,760 288,760 C 265,748 234,717 214,678 C 179,574 176,399 276,273 C 340,196 426,153 535,145 C 470,213 438,248 438,248 C 536,179 585,145 585,145 C 657,151 729,169 802,219 C 757,275 735,302 735,302 C 800,261 833,240 833,240 C 999,359 1003,574 925,733 C 856,853 721,915 519,918 Z" fill="#085828" id="id-30557"></path></g><g transform=" translate(465,610)" fill="#112C1A" id="id-30558"><path d=" M 186,574 C 158,570 144,567 144,567 L 144,530 C 172,560 186,574 186,574 Z" id="id-30559"></path><path d=" M 42,225 C 30,227 24,227 24,227 C 33,234 37,237 37,237 C 19,318 27,396 43,423 C 78,481 155,497 171,518 C 191,538 211,559 233,569 C 327,577 452,529 485,458 C 547,336 530,230 433,139 C 440,129 443,124 443,124 C 432,131 427,135 427,135 C 413,124 399,115 384,109 C 386,105 387,104 387,104 C 371,99 363,96 363,96 C 363,98 363,99 363,99 C 348,93 334,88 319,85 C 324,72 326,66 326,66 C 316,67 310,67 310,67 C 311,78 312,83 312,83 C 301,81 296,80 296,80 C 294,72 292,68 292,68 C 288,75 285,79 285,79 C 280,78 274,78 267,77 C 271,73 274,70 274,70 C 262,73 256,74 256,74 C 256,76 256,77 256,77 C 249,77 245,77 245,77 C 246,75 246,74 246,74 C 225,64 214,60 214,60 C 211,74 210,81 210,81 C 203,82 195,84 187,86 C 189,81 190,79 190,79 C 195,77 197,76 197,76 C 189,75 185,74 185,74 C 183,80 181,83 181,83 C 137,94 114,99 114,99 C 130,105 139,108 139,108 C 129,113 118,120 109,128 C 79,110 63,102 63,102 C 85,128 95,141 95,141 C 92,144 90,146 90,146 C 87,142 86,140 86,140 L 80,156 C 62,181 49,204 42,225 Z" id="id-30560"></path><path d=" M 38,183 C 42,167 45,159 45,159 L 70,166 C 48,177 38,183 38,183 Z" id="id-30561"></path><path d=" M 9,187 C 4,223 8,231 10,249 C 19,212 31,177 52,150 C 23,174 9,187 9,187 Z" id="id-30562"></path><path d=" M 18,171 C 6,165 0,162 0,162 L 35,137 C 24,160 18,171 18,171 Z" id="id-30563"></path><path d=" M 25,116 C 30,91 32,79 32,79 L 49,99 C 33,110 25,116 25,116 Z" id="id-30564"></path><path d=" M 72,71 C 82,53 87,45 87,45 C 97,62 102,70 102,70 L 100,75 C 81,72 72,71 72,71 Z" id="id-30565"></path><path d=" M 103,68 C 95,49 91,39 91,39 C 93,36 93,34 93,34 L 120,42 C 109,59 103,68 103,68 Z" id="id-30566"></path><path d=" M 136,74 C 132,70 130,68 130,68 L 136,64 C 136,70 136,74 136,74 Z" id="id-30567"></path><path d=" M 171,61 C 157,57 150,55 150,55 L 178,43 C 173,55 171,61 171,61 Z" id="id-30568"></path><path d=" M 190,62 C 183,35 180,22 180,22 C 212,22 227,22 227,22 L 223,45 C 201,56 190,62 190,62 Z" id="id-30569"></path><path d=" M 257,19 C 248,13 244,9 244,9 L 259,0 C 258,13 257,19 257,19 Z" id="id-30570"></path><path d=" M 259,43 C 255,40 253,38 253,38 L 252,44 C 256,43 259,43 259,43 Z" id="id-30571"></path><path d=" M 271,43 C 270,35 270,31 270,31 L 284,33 C 276,40 271,43 271,43 Z" id="id-30572"></path><path d=" M 255,65 C 243,65 237,65 237,65 L 239,50 C 250,60 255,65 255,65 Z" id="id-30573"></path><path d=" M 408,96 C 386,83 375,76 375,76 L 383,59 C 400,83 408,96 408,96 Z" id="id-30574"></path><path d=" M 444,109 C 434,94 429,86 429,86 L 463,93 C 451,104 444,109 444,109 Z" id="id-30575"></path><path d=" M 472,163 C 469,161 467,160 467,160 C 470,142 472,133 472,133 L 497,148 C 480,158 472,163 472,163 Z" id="id-30576"></path><path d=" M 475,164 C 493,157 503,153 503,153 C 506,155 507,155 507,155 L 500,181 C 483,170 475,164 475,164 Z" id="id-30577"></path><path d=" M 520,203 C 536,232 549,264 557,309 L 566,255 C 536,221 520,203 520,203 Z" id="id-30578"></path></g></g></g><defs><linearGradient x1="50%" y1="6%" x2="50%" y2="100%" id="id-110524"><stop stop-color="#B37355" offset="0%"></stop><stop stop-color="#C58B67" offset="8%"></stop><stop stop-color="#A5684C" offset="20%"></stop><stop stop-color="#975844" offset="34%"></stop><stop stop-color="#934F3C" offset="71%"></stop><stop stop-color="#602521" offset="100%"></stop></linearGradient><linearGradient x1="50%" y1="-10%" x2="50%" y2="84%" id="id-110525"><stop stop-color="#A86549" offset="0%"></stop><stop stop-color="#C1845E" offset="49%"></stop><stop stop-color="#AB6A54" offset="100%"></stop></linearGradient><linearGradient x1="57%" y1="50%" x2="47%" y2="56%" id="id-110526"><stop stop-color="#7A3A33" offset="0%"></stop><stop stop-color="#783731" offset="100%"></stop></linearGradient><linearGradient x1="45%" y1="35%" x2="55%" y2="47%" id="id-110527"><stop stop-color="#A66552" offset="0%"></stop><stop stop-color="#824237" offset="100%"></stop></linearGradient><linearGradient x1="54%" y1="31%" x2="47%" y2="81%" id="id-110528"><stop stop-color="#A5684E" offset="0%"></stop><stop stop-color="#A7644C" offset="20%"></stop><stop stop-color="#8A4938" offset="71%"></stop><stop stop-color="#854739" offset="81%"></stop><stop stop-color="#824036" offset="100%"></stop></linearGradient><linearGradient x1="43%" y1="38%" x2="54%" y2="44%" id="id-110529"><stop stop-color="#AA6548" offset="0%"></stop><stop stop-color="#9E5B43" offset="100%"></stop></linearGradient><linearGradient x1="46%" y1="8%" x2="58%" y2="82%" id="id-110530"><stop stop-color="#C9906F" offset="0%"></stop><stop stop-color="#A45848" offset="100%"></stop></linearGradient><linearGradient x1="50%" y1="41%" x2="49%" y2="65%" id="id-110531"><stop stop-color="#622B30" offset="0%"></stop><stop stop-color="#A8594B" offset="27%"></stop><stop stop-color="#AB6F54" offset="100%"></stop></linearGradient><linearGradient x1="63%" y1="4%" x2="25%" y2="77%" id="id-110532"><stop stop-color="#D2A185" offset="0%"></stop><stop stop-color="#D5A88F" offset="55%"></stop><stop stop-color="#B97A5D" offset="100%"></stop></linearGradient><linearGradient x1="50%" y1="23%" x2="41%" y2="77%" id="id-110533"><stop stop-color="#7F3531" offset="0%"></stop><stop stop-color="#9D4D4C" offset="100%"></stop></linearGradient><linearGradient x1="47%" y1="22%" x2="55%" y2="89%" id="id-110534"><stop stop-color="#B57159" offset="0%"></stop><stop stop-color="#BC8971" offset="100%"></stop></linearGradient><linearGradient x1="86%" y1="87%" x2="11%" y2="66%" id="id-110535"><stop stop-color="#9E5C4A" offset="0%"></stop><stop stop-color="#8C4E40" offset="100%"></stop></linearGradient><linearGradient x1="71%" y1="11%" x2="50%" y2="100%" id="id-110536"><stop stop-color="#B27255" offset="0%"></stop><stop stop-color="#A5684C" offset="100%" stop-opacity="0"></stop></linearGradient><linearGradient x1="66%" y1="46%" x2="56%" y2="43%" id="id-110537"><stop stop-color="#8E5040" offset="0%"></stop><stop stop-color="#7D403A" offset="100%"></stop></linearGradient><linearGradient x1="100%" y1="41%" x2="50%" y2="63%" id="id-110538"><stop stop-color="#712725" offset="0%"></stop><stop stop-color="#732825" offset="100%"></stop></linearGradient><linearGradient x1="69%" y1="20%" x2="50%" y2="100%" id="id-110539"><stop stop-color="#925342" offset="0%"></stop><stop stop-color="#9D5A48" offset="100%"></stop></linearGradient><linearGradient x1="36%" y1="20%" x2="57%" y2="81%" id="id-110540"><stop stop-color="#B07254" offset="0%"></stop><stop stop-color="#B37355" offset="100%"></stop></linearGradient><linearGradient x1="26%" y1="83%" x2="92%" y2="50%" id="id-110541"><stop stop-color="#C48864" offset="0%" stop-opacity="0"></stop><stop stop-color="#C38B6B" offset="99%"></stop></linearGradient><linearGradient x1="17%" y1="56%" x2="85%" y2="45%" id="id-110542"><stop stop-color="#D0A183" offset="0%" stop-opacity="0"></stop><stop stop-color="#D0A183" offset="51%"></stop><stop stop-color="#C68E6E" offset="100%"></stop></linearGradient><linearGradient x1="17%" y1="24%" x2="74%" y2="87%" id="id-110543"><stop stop-color="#C78E6C" offset="0%"></stop><stop stop-color="#B87755" offset="100%"></stop></linearGradient><linearGradient x1="26%" y1="42%" x2="80%" y2="75%" id="id-110544"><stop stop-color="#D9B09C" offset="0%"></stop><stop stop-color="#D5A88F" offset="100%" stop-opacity="0"></stop></linearGradient><linearGradient x1="29%" y1="56%" x2="77%" y2="50%" id="id-110545"><stop stop-color="#CDA484" offset="0%"></stop><stop stop-color="#CB9D7C" offset="100%" stop-opacity="0"></stop></linearGradient><linearGradient x1="74%" y1="24%" x2="34%" y2="74%" id="id-110546"><stop stop-color="#C38260" offset="0%"></stop><stop stop-color="#C58865" offset="100%"></stop></linearGradient><linearGradient x1="66%" y1="100%" x2="40%" y2="0%" id="id-110547"><stop stop-color="#BC7A58" offset="0%"></stop><stop stop-color="#D7AA98" offset="46%"></stop><stop stop-color="#C28360" offset="100%"></stop></linearGradient><linearGradient x1="52%" y1="13%" x2="59%" y2="75%" id="id-110548"><stop stop-color="#92463B" offset="0%"></stop><stop stop-color="#AF684F" offset="100%"></stop></linearGradient><linearGradient x1="28%" y1="76%" x2="73%" y2="20%" id="id-110549"><stop stop-color="#B87356" offset="0%"></stop><stop stop-color="#91453A" offset="67%"></stop><stop stop-color="#A15745" offset="100%"></stop></linearGradient><linearGradient x1="50%" y1="0%" x2="50%" y2="100%" id="id-110550"><stop stop-color="#9A5242" offset="0%"></stop><stop stop-color="#6C2B27" offset="100%"></stop></linearGradient><linearGradient x1="66%" y1="59%" x2="24%" y2="66%" id="id-110551"><stop stop-color="#A36149" offset="0%"></stop><stop stop-color="#C07F5D" offset="100%"></stop></linearGradient><linearGradient x1="41%" y1="11%" x2="55%" y2="61%" id="id-110552"><stop stop-color="#CD9781" offset="0%"></stop><stop stop-color="#B4705C" offset="100%"></stop></linearGradient><linearGradient x1="19%" y1="58%" x2="66%" y2="43%" id="id-110553"><stop stop-color="#D3A389" offset="0%"></stop><stop stop-color="#C38761" offset="100%"></stop></linearGradient><linearGradient x1="73%" y1="50%" x2="30%" y2="53%" id="id-110554"><stop stop-color="#9B5F42" offset="0%"></stop><stop stop-color="#B67B61" offset="100%"></stop></linearGradient><linearGradient x1="31%" y1="0%" x2="50%" y2="100%" id="id-110555"><stop stop-color="#D5A897" offset="0%"></stop><stop stop-color="#D1A08E" offset="100%"></stop></linearGradient><linearGradient x1="29%" y1="43%" x2="65%" y2="100%" id="id-110556"><stop stop-color="#D29D85" offset="0%"></stop><stop stop-color="#C18265" offset="100%"></stop></linearGradient><linearGradient x1="13%" y1="78%" x2="84%" y2="50%" id="id-110557"><stop stop-color="#B77456" offset="0%"></stop><stop stop-color="#AA6244" offset="100%"></stop></linearGradient><linearGradient x1="50%" y1="0%" x2="36%" y2="100%" id="id-110558"><stop stop-color="#D1A187" offset="0%"></stop><stop stop-color="#CC957E" offset="100%"></stop></linearGradient><linearGradient x1="50%" y1="28%" x2="64%" y2="55%" id="id-110559"><stop stop-color="#CF9D80" offset="0%"></stop><stop stop-color="#C38869" offset="100%"></stop></linearGradient><linearGradient x1="40%" y1="55%" x2="62%" y2="71%" id="id-110560"><stop stop-color="#B47251" offset="0%"></stop><stop stop-color="#BA7B58" offset="100%"></stop></linearGradient><linearGradient x1="9%" y1="37%" x2="88%" y2="55%" id="id-110561"><stop stop-color="#9D5D46" offset="0%"></stop><stop stop-color="#86473B" offset="100%"></stop></linearGradient><linearGradient x1="62%" y1="19%" x2="50%" y2="100%" id="id-110562"><stop stop-color="#B06A4D" offset="0%"></stop><stop stop-color="#8E483A" offset="100%"></stop></linearGradient><linearGradient x1="45%" y1="18%" x2="51%" y2="67%" id="id-110563"><stop stop-color="#D29F88" offset="0%"></stop><stop stop-color="#BE7F5D" offset="100%"></stop></linearGradient><linearGradient x1="50%" y1="43%" x2="50%" y2="100%" id="id-110564"><stop stop-color="#CA9076" offset="0%"></stop><stop stop-color="#AB6344" offset="100%"></stop></linearGradient><linearGradient x1="45%" y1="50%" x2="58%" y2="50%" id="id-110565"><stop stop-color="#9D5D49" offset="0%"></stop><stop stop-color="#BE836D" offset="100%"></stop></linearGradient><linearGradient x1="33%" y1="74%" x2="77%" y2="42%" id="id-110566"><stop stop-color="#A8644F" offset="0%"></stop><stop stop-color="#B6765A" offset="100%"></stop></linearGradient><linearGradient x1="63%" y1="59%" x2="38%" y2="59%" id="id-110567"><stop stop-color="#A86451" offset="0%"></stop><stop stop-color="#B77154" offset="100%"></stop></linearGradient><linearGradient x1="50%" y1="0%" x2="50%" y2="100%" id="id-110568"><stop stop-color="#BD907D" offset="0%"></stop><stop stop-color="#9E5744" offset="100%"></stop></linearGradient><linearGradient x1="47%" y1="47%" x2="53%" y2="50%" id="id-110569"><stop stop-color="#C19B86" offset="0%"></stop><stop stop-color="#9E5744" offset="100%"></stop></linearGradient><linearGradient x1="50%" y1="0%" x2="50%" y2="100%" id="id-110570"><stop stop-color="#AC6553" offset="0%"></stop><stop stop-color="#9E5644" offset="100%"></stop></linearGradient><linearGradient x1="50%" y1="0%" x2="50%" y2="100%" id="id-110571"><stop stop-color="#B28775" offset="0%"></stop><stop stop-color="#B68776" offset="100%"></stop></linearGradient><linearGradient x1="0%" y1="55%" x2="100%" y2="55%" id="id-110572"><stop stop-color="#A2675E" offset="0%"></stop><stop stop-color="#8F4F4C" offset="100%"></stop></linearGradient><linearGradient x1="50%" y1="0%" x2="50%" y2="100%" id="id-110573"><stop stop-color="#AF8873" offset="0%"></stop><stop stop-color="#93493E" offset="100%"></stop></linearGradient><linearGradient x1="49%" y1="20%" x2="52%" y2="96%" id="id-110574"><stop stop-color="#9B5650" offset="0%"></stop><stop stop-color="#984D3F" offset="100%"></stop></linearGradient><linearGradient x1="50%" y1="0%" x2="50%" y2="100%" id="id-110575"><stop stop-color="#5A1D24" offset="0%"></stop><stop stop-color="#72332B" offset="100%"></stop></linearGradient><linearGradient x1="33%" y1="47%" x2="59%" y2="56%" id="id-110576"><stop stop-color="#8E4D39" offset="0%"></stop><stop stop-color="#7C3A31" offset="100%"></stop></linearGradient></defs><g transform=" translate(304,473)" id="id-110577"><polygon points="174 662 139 824 137 906 146 1082 171 1154 176 1211 174 1230 175 1284 287 1284 284 1265 308 1195 306 1124 345 952 343 912 353 879 362 881 371 877 383 904 391 970 434 1079 457 1202 475 1252 475 1284 596 1284 600 1225 591 1146 609 1103 612 997 596 842 545 671 539 640 528 606 531 569 509 498 522 403 539 360 539 348 563 464 576 498 585 574 637 704 646 760 646 778 626 822 624 853 631 879 629 901 632 920 637 931 647 931 657 920 655 877 659 867 670 874 672 899 676 903 667 923 644 934 643 945 666 939 664 948 643 960 640 982 657 971 674 969 690 945 701 933 704 926 707 923 713 892 718 871 704 832 696 786 703 768 693 725 693 521 652 425 629 282 626 203 612 175 567 156 548 141 530 139 479 114 422 73 416 42 415 1 285 0 284 73 279 83 242 114 196 137 171 139 155 156 108 175 91 228 91 287 68 431 30 516 23 602 28 725 16 764 21 782 0 874 18 932 49 968 59 970 83 982 83 965 78 960 57 949 55 941 78 948 78 936 66 929 53 923 45 906 51 875 61 866 66 877 63 922 75 927 86 925 93 899 90 877 96 856 96 824 75 778 77 738 108 637 139 562 142 495 159 458 180 358 199 403 203 461 211 504 188 564 191 608" fill="url(#id-110524)" id="id-110578"></polygon><polygon points="91 287 68 431 30 516 23 602 72 688 117 614 98 452 109 469 123 336 102 372 109 294 88 309 109 285" fill="url(#id-110525)" id="id-110578"></polygon><polygon points="383 906 391 972 434 1081 457 1204 475 1254 475 1287 596 1287 600 1226 591 1148 609 1105 612 999 602 904 584 908 584 846 535 683 456 705 382 878" fill="url(#id-110526)" id="id-110578"></polygon><polygon points="137 907 146 1083 171 1156 176 1212 174 1232 175 1286 175 1287 287 1287 284 1266 308 1197 306 1126 345 954 343 923 293 814 263 724 247 711" fill="url(#id-110527)" id="id-110578"></polygon><polygon points="545 673 539 641 528 608 531 571 509 500 522 405 539 361 539 350 563 465 576 500 601 540 660 491 688 529 652 427 629 283 626 205 612 177 568 157 548 142 530 141 479 116 422 75 416 44 415 3 360 3 360 715 462 724" fill="url(#id-110528)" id="id-110578"></polygon><polygon points="83 984 59 972 49 970 21 932 19 903 7 879 0 874 11 824 38 786 38 814 56 786 78 800 91 822 83 879 69 882 63 855 51 877 45 908 47 930 37 930 50 938 53 954 49 960 56 956 83 973" fill="#B1684A" id="id-110583"></polygon><polygon points="66 855 69 882 63 855 51 877 45 908 42 870 58 825" fill="url(#id-110529)" id="id-110583"></polygon><polygon points="83 879 69 882 70 868" fill="#C7846A" id="id-110583"></polygon><polygon points="481 376 513 349 558 291 522 368" fill="#885F60" id="id-110586"></polygon><polygon points="313 697 260 560 246 448 259 424 355 408 361 366 317 404 285 409 267 378 313 343 394 351 431 378 420 404 368 399 371 404 449 421 466 441 449 510 466 547 406 697 358 717" fill="url(#id-110530)" id="id-110587"></polygon><polygon points="410 90 430 82 423 76 416 45 416 7 286 9 286 48 283 76 278 86 244 114 195 139 366 139 390 70 410 26" fill="url(#id-110531)" id="id-110588"></polygon><polygon points="182 180 133 231 97 289 97 231 113 182 165 159" fill="url(#id-110532)" id="id-110589"></polygon><polygon points="346 107 384 55 409 31 414 23 299 31" fill="url(#id-110533)" id="id-110590"></polygon><polygon points="287 93 295 32 323 129" fill="url(#id-110534)" id="id-110591"></polygon><polygon points="336 139 314 151 270 146 224 139" fill="#E2B4A4" id="id-110592"></polygon><polygon points="410 84 409 136 461 129" fill="url(#id-110535)" id="id-110593"></polygon><polygon points="173 246 167 286 191 351 263 386 328 330 359 330 359 152 348 139 336 139 309 152" fill="url(#id-110536)" id="id-110594"></polygon><polygon points="464 159 516 190 500 159" fill="url(#id-110537)" id="id-110595"></polygon><polygon points="302 31 346 72 382 62 409 37 416 28 416 13" fill="url(#id-110538)" id="id-110596"></polygon><polygon points="263 151 191 202 219 151" fill="#B17054" id="id-110597"></polygon><polygon points="154 206 170 170 122 188" fill="#DEB7A9" id="id-110598"></polygon><polygon points="358 285 344 299 323 318 305 354 358 345 354 305" fill="url(#id-110539)" id="id-110599"></polygon><polygon points="260 361 265 387 203 371 191 347" fill="#94523B" id="id-110600"></polygon><polygon points="198 362 181 359 167 284" fill="#5E2227" id="id-110601"></polygon><polygon points="477 341 477 335 488 326 496 325 509 338 496 348 485 354" fill="#5D2221" id="id-110602"></polygon><polygon points="314 151 342 220 317 293 237 351 209 318 172 251 185 205 270 146" fill="url(#id-110540)" id="id-110603"></polygon><polygon points="314 151 330 238 209 318 172 251 185 205 270 146" fill="url(#id-110541)" id="id-110603"></polygon><polygon points="314 151 350 205 220 227 185 205 270 146" fill="url(#id-110542)" opacity="0.369" id="id-110603"></polygon><polygon points="211 335 223 322 242 327 244 332 235 353 213 349" fill="#642B26" id="id-110606"></polygon><polygon points="224 339 226 342 226 345 222 349 235 350 242 333 230 338 227 335" fill="#70434F" id="id-110607"></polygon><polygon points="488 343 491 347 486 351 479 338 489 327 495 327 493 336" fill="#6F373C" id="id-110608"></polygon><polygon points="485 339 488 343 493 337" fill="#92523E" id="id-110609"></polygon><polygon points="359 162 359 291 406 325 455 347 529 267 463 182 415 166" fill="url(#id-110543)" id="id-110610"></polygon><polygon points="359 178 359 281 391 302 391 249 489 270 461 189 415 166" fill="url(#id-110544)" id="id-110610"></polygon><polygon points="359 178 359 219 472 220 461 189 415 166 371 163" fill="url(#id-110545)" id="id-110610"></polygon><polygon points="358 178 372 168 440 156 413 137 378 158 411 80 396 60 358 146" fill="url(#id-110546)" id="id-110613"></polygon><polygon points="346 140 358 152 372 129 400 48 369 86 364 130" fill="#D3A08C" id="id-110614"></polygon><polygon points="591 281 601 226 559 159 514 159 523 138 499 156 571 263" fill="url(#id-110547)" id="id-110615"></polygon><polygon points="609 298 626 332 629 285 627 227 614 207 617 251" fill="#8581A0" id="id-110616"></polygon><polygon points="554 159 567 157 612 177 614 192 579 175 603 207 601 226" fill="#B67758" id="id-110617"></polygon><polygon points="641 823 648 826 697 896 713 873 682 781" fill="url(#id-110548)" id="id-110618"></polygon><polygon points="625 840 700 762 688 738 679 784 648 776 626 822" fill="url(#id-110549)" id="id-110618"></polygon><polygon points="648 862 648 845 661 825 661 870 654 878 657 922 652 929 637 929 632 914 632 893 632 877 644 888" fill="#94473B" id="id-110620"></polygon><polygon points="554 375 577 333 607 451 594 508 568 462" fill="#BB7966" id="id-110621"></polygon><polygon points="623 326 643 425 633 431 693 523 652 427 636 326 625 315" fill="#7B779A" id="id-110622"></polygon><polygon points="628 274 638 339 623 314" fill="#6F393C" id="id-110623"></polygon><polygon points="693 523 695 567 685 525 618 416 633 431" fill="#8D4E3B" id="id-110624"></polygon><polygon points="640 463 599 539 601 571 634 655 646 703 650 754 658 640 660 491" fill="#BD7B5A" id="id-110625"></polygon><polygon points="610 531 648 646 652 546 638 479" fill="#CB937C" id="id-110625"></polygon><polygon points="693 748 677 730 677 700 660 491 685 525 691 552 684 727" fill="url(#id-110550)" id="id-110627"></polygon><polygon points="691 746 703 768 693 727 695 567 691 551 683 727" fill="#7E97BD" id="id-110628"></polygon><polygon points="260 559 310 683 355 716 263 713 238 685 195 582" fill="url(#id-110551)" id="id-110629"></polygon><polygon points="637 931 636 919 639 914 653 914 653 922 651 929 648 931 644 933" fill="#9B5543" id="id-110630"></polygon><polygon points="637 861 637 882 641 890 653 886 649 861" fill="#A35B48" id="id-110631"></polygon><polygon points="691 871 693 912 688 936 669 956 671 965 696 924 696 909 705 877" fill="#AE664F" id="id-110632"></polygon><polygon points="703 768 684 788 693 837 712 873 702 908 701 933 707 925 718 873 704 834 697 788" fill="#824336" id="id-110633"></polygon><polygon points="667 939 643 946 644 934 657 928 667 922 676 903 672 899 670 874 660 870 660 854 671 867 680 873 680 902 677 920" fill="#77342E" id="id-110634"></polygon><polygon points="361 510 359 634 426 561 420 535" fill="url(#id-110552)" opacity="0.626" id="id-110635"></polygon><polygon points="319 403 289 399 268 380 313 343 361 348 362 372" fill="url(#id-110553)" id="id-110636"></polygon><polygon points="171 141 168 151 180 151 204 139 196 138" fill="url(#id-110554)" id="id-110637"></polygon><polygon points="359 308 362 360 382 334" fill="#BB7863" opacity="0.625" id="id-110638"></polygon><polygon points="360 546 360 584 387 551 374 540" fill="url(#id-110555)" opacity="0.626" id="id-110639"></polygon><polygon points="346 542 360 547 373 540 360 534" fill="#763735" id="id-110640"></polygon><polygon points="325 545 277 503 259 561 308 579" fill="url(#id-110556)" opacity="0.758" id="id-110641"></polygon><polygon points="389 499 460 467 449 510 404 520" fill="url(#id-110557)" id="id-110642"></polygon><polygon points="364 491 361 403 420 428" fill="url(#id-110558)" opacity="0.758" id="id-110643"></polygon><polygon points="262 446 333 446 323 469 279 492" fill="url(#id-110559)" opacity="0.758" id="id-110644"></polygon><polygon points="259 425 279 496 259 561 236 528 213 443 227 425 243 447" fill="url(#id-110560)" id="id-110645"></polygon><polygon points="412 343 444 374 466 383 499 351 447 354 416 339" fill="url(#id-110561)" id="id-110646"></polygon><polygon points="164 252 163 278 128 284" fill="#85483C" id="id-110647"></polygon><polygon points="58 478 88 441 88 416 69 430 66 456" fill="url(#id-110562)" id="id-110648"></polygon><polygon points="76 684 69 634 61 517 89 474 111 569" fill="url(#id-110563)" id="id-110649"></polygon><polygon points="53 489 47 539 69 635 76 684 53 760 40 781 16 766 28 727 23 604 28 544" fill="url(#id-110564)" id="id-110650"></polygon><polygon points="136 452 127 497 153 460 177 340 170 300" fill="#965744" id="id-110651"></polygon><polygon points="181 359 159 460 143 497 142 514 123 532 109 514 108 490 127 497 153 460 177 340" fill="#8D4E42" id="id-110651"></polygon><polygon points="38 747 28 772 38 788 44 772" fill="#BB775C" id="id-110653"></polygon><polygon points="359 379 342 413 361 444 377 417" fill="url(#id-110565)" id="id-110654"></polygon><polygon points="196 581 260 561 229 519" fill="url(#id-110566)" id="id-110655"></polygon><polygon points="74 929 66 925 69 909 78 905 86 912 83 928" fill="url(#id-110567)" id="id-110656"></polygon><polygon points="20 903 7 880 21 851 28 871" fill="#C78167" id="id-110657"></polygon><polygon points="218 1123 203 1040 191 913 171 1090 182 1169 230 1208 261 1237 270 1213 234 1175 212 1157 272 1191 281 1169" fill="url(#id-110568)" opacity="0.808" id="id-110658"></polygon><polygon points="182 1207 181 1155 213 1106 236 1166 230 1210" fill="#A8614D" id="id-110659"></polygon><polygon points="187 902 211 1137 227 1161 275 1187 299 1137 272 1009 299 918 269 791 211 836" fill="url(#id-110569)" id="id-110660"></polygon><polygon points="288 1079 311 1040 311 942 295 903 264 1019 275 1188 301 1137" fill="url(#id-110570)" id="id-110661"></polygon><polygon points="584 908 604 1008 608 1106 614 998 599 887" fill="#848BB1" id="id-110662"></polygon><polygon points="430 886 488 1140 535 1115 561 925 566 886 536 816 500 786" fill="url(#id-110571)" opacity="0.792" id="id-110663"></polygon><polygon points="581 921 588 1011 584 1112 576 1162 544 1046 566 886" fill="url(#id-110572)" id="id-110664"></polygon><polygon points="561 1247 518 1200 472 1112 494 931 505 931 594 1188 579 1244" fill="url(#id-110573)" id="id-110665"></polygon><polygon points="531 1221 539 1263 536 1269 516 1287 509 1287 500 1263 513 1199 488 1226 462 1170 472 1101 427 1010 398 877 469 771 518 739 536 818 500 787 433 890 477 1078 534 1212" fill="url(#id-110574)" id="id-110666"></polygon><polygon points="321 1058 284 852 258 721 266 733 371 879 362 883 354 881 343 914 345 954" fill="#995346" id="id-110667"></polygon><polygon points="429 1068 424 875 536 705 454 704 380 865 384 906 391 972" fill="#9E5752" opacity="0.394" id="id-110668"></polygon><polygon points="175 1262 194 1287 206 1287 225 1226 213 1249 175 1221 174 1232" fill="#743428" id="id-110669"></polygon><polygon points="528 1227 554 1234 569 1169 549 1168" fill="#AC7064" id="id-110670"></polygon><polygon points="546 678 545 672 539 641 528 608 531 571 509 500 522 405 539 361 539 350 547 389 542 330 558 289 517 369 528 369 517 411 499 442 509 465 488 531 507 525 522 585 449 724" fill="url(#id-110575)" id="id-110578"></polygon><polygon points="402 722 490 609 522 585 449 723" fill="#94493C" id="id-110672"></polygon><polygon points="174 664 139 826 137 907 139 937 238 690 352 886 354 881 362 883 371 879 383 906 471 773 548 712 596 844 545 673 539 641 478 697 449 723 278 705 232 657 188 566 191 610" fill="url(#id-110576)" id="id-110578"></polygon><polygon points="189 616 211 620 190 586 190 609" fill="#813F3A" id="id-110674"></polygon><polygon points="139 836 225 709 167 697 139 826" fill="#753E2A" id="id-110675"></polygon><polygon points="518 734 596 843 547 678" fill="#622B30" id="id-110676"></polygon><polygon points="415 778 447 726 314 744 329 762" fill="#A6564C" opacity="0.520" id="id-110578"></polygon><polygon points="411 685 463 666 456 573" fill="#7A3B33" id="id-110678"></polygon></g><defs><linearGradient x1="53%" y1="5%" x2="47%" y2="91%" id="id-111278"><stop stop-color="#932126" offset="0%"></stop><stop stop-color="#873F39" offset="82%"></stop><stop stop-color="#9E5E4F" offset="100%"></stop></linearGradient><linearGradient x1="62%" y1="61%" x2="50%" y2="36%" id="id-111279"><stop stop-color="#BA6E61" offset="0%"></stop><stop stop-color="#4D1217" offset="100%"></stop></linearGradient><linearGradient x1="50%" y1="13%" x2="57%" y2="81%" id="id-111280"><stop stop-color="#885154" offset="0%"></stop><stop stop-color="#9E5E4F" offset="52%"></stop><stop stop-color="#D79898" offset="100%"></stop></linearGradient><linearGradient x1="50%" y1="0%" x2="54%" y2="88%" id="id-111281"><stop stop-color="#8B2F27" offset="0%"></stop><stop stop-color="#803A2B" offset="100%"></stop></linearGradient><linearGradient x1="36%" y1="75%" x2="36%" y2="18%" id="id-111282"><stop stop-color="#6F3938" offset="0%"></stop><stop stop-color="#590F13" offset="100%"></stop></linearGradient><linearGradient x1="33%" y1="21%" x2="62%" y2="79%" id="id-111283"><stop stop-color="#A56757" offset="0%"></stop><stop stop-color="#B57363" offset="10%"></stop><stop stop-color="#B9735D" offset="53%"></stop><stop stop-color="#D0907A" offset="70%"></stop><stop stop-color="#AA6E5A" offset="88%"></stop><stop stop-color="#AD7464" offset="100%"></stop></linearGradient><linearGradient x1="28%" y1="56%" x2="79%" y2="54%" id="id-111284"><stop stop-color="#C89A8A" offset="0%"></stop><stop stop-color="#E0AD98" offset="16%"></stop><stop stop-color="#C08C7D" offset="100%"></stop></linearGradient><linearGradient x1="68%" y1="59%" x2="18%" y2="46%" id="id-111285"><stop stop-color="#B78372" offset="0%"></stop><stop stop-color="#B4786A" offset="100%"></stop></linearGradient><linearGradient x1="26%" y1="17%" x2="91%" y2="50%" id="id-111286"><stop stop-color="#945344" offset="0%"></stop><stop stop-color="#B3715E" offset="16%"></stop><stop stop-color="#CB8C74" offset="51%"></stop><stop stop-color="#935A4F" offset="100%"></stop></linearGradient><linearGradient x1="45%" y1="16%" x2="52%" y2="84%" id="id-111287"><stop stop-color="#9F6554" offset="0%"></stop><stop stop-color="#925343" offset="100%"></stop></linearGradient><linearGradient x1="91%" y1="32%" x2="50%" y2="77%" id="id-111288"><stop stop-color="#9D6655" offset="0%"></stop><stop stop-color="#A96C5D" offset="100%"></stop></linearGradient><linearGradient x1="72%" y1="40%" x2="61%" y2="55%" id="id-111289"><stop stop-color="#734233" offset="0%"></stop><stop stop-color="#AE705B" offset="100%"></stop></linearGradient><linearGradient x1="50%" y1="33%" x2="50%" y2="100%" id="id-111290"><stop stop-color="#1E0D0C" offset="0%"></stop><stop stop-color="#7F4D40" offset="100%"></stop></linearGradient><linearGradient x1="34%" y1="50%" x2="87%" y2="60%" id="id-111291"><stop stop-color="#D09A88" offset="0%"></stop><stop stop-color="#C38774" offset="100%"></stop></linearGradient><linearGradient x1="14%" y1="54%" x2="60%" y2="65%" id="id-111292"><stop stop-color="#945B4B" offset="0%"></stop><stop stop-color="#894336" offset="50%"></stop><stop stop-color="#824937" offset="100%"></stop></linearGradient><linearGradient x1="50%" y1="0%" x2="50%" y2="100%" id="id-111293"><stop stop-color="#CE9386" offset="0%"></stop><stop stop-color="#C99387" offset="100%"></stop></linearGradient><linearGradient x1="50%" y1="9%" x2="44%" y2="54%" id="id-111294"><stop stop-color="#C58372" offset="0%"></stop><stop stop-color="#D2977F" offset="100%"></stop></linearGradient><linearGradient x1="61%" y1="87%" x2="61%" y2="8%" id="id-111295"><stop stop-color="#DEAC9D" offset="0%" stop-opacity="0"></stop><stop stop-color="#D69C96" offset="100%"></stop></linearGradient><radialGradient cx="50%" cy="39%" r="61%" id="id-111296" fx="50%" fy="39%" gradientTransform=" translate(0.500,0.392) scale(0.254,1) rotate(90) scale(1,3) translate(-0.500,-0.392)"><stop stop-color="#B36061" offset="0%"></stop><stop stop-color="#6C2C2E" offset="100%"></stop></radialGradient><linearGradient x1="67%" y1="12%" x2="50%" y2="100%" id="id-111297"><stop stop-color="#8D5644" offset="0%"></stop><stop stop-color="#E0AD98" offset="100%"></stop></linearGradient><linearGradient x1="45%" y1="50%" x2="56%" y2="52%" id="id-111298"><stop stop-color="#BF7357" offset="0%"></stop><stop stop-color="#945741" offset="100%"></stop></linearGradient><linearGradient x1="18%" y1="22%" x2="62%" y2="71%" id="id-111299"><stop stop-color="#A5624F" offset="0%"></stop><stop stop-color="#C59181" offset="100%"></stop></linearGradient><linearGradient x1="50%" y1="35%" x2="87%" y2="93%" id="id-111300"><stop stop-color="#EEC5B7" offset="0%"></stop><stop stop-color="#D1A398" offset="100%"></stop></linearGradient><linearGradient x1="50%" y1="115%" x2="50%" y2="50%" id="id-111301"><stop stop-color="#925F51" offset="0%"></stop><stop stop-color="#593128" offset="100%"></stop></linearGradient><linearGradient x1="73%" y1="44%" x2="22%" y2="46%" id="id-111302"><stop stop-color="#1F1619" offset="0%"></stop><stop stop-color="#492A2A" offset="100%"></stop></linearGradient></defs><g transform=" translate(548,259)" id="id-111303"><g id="id-111304"><g transform=" translate(0,121)" id="id-111305"><polygon points="199 13 214 3 222 9 221 25 214 38 214 43 210 54 208 65 197 70 190 64" fill="url(#id-111278)" id="id-111306"></polygon><polygon points="197 24 209 14 216 9 219 10 220 22 214 37 195 43" fill="url(#id-111279)" id="id-111307"></polygon><polygon points="203 38 208 34 199 25 203 22 209 23 207 18 212 16 214 38 214 43 213 48 207 51 201 46" fill="url(#id-111280)" id="id-111306"></polygon><polygon points="212 5 214 3 222 9 222 10 219 10 216 9" fill="#D497AD" id="id-111306"></polygon><polygon points="208 65 197 70 190 64 194 42 199 50 193 62 199 67" fill="#50151B" id="id-111306"></polygon><polygon points="203 62 202 54 211 50" fill="#723C31" id="id-111311"></polygon><polygon points="196 50 202 51 203 42 196 46" fill="#A06051" id="id-111312"></polygon><polygon points="194 45 199 47 202 45 202 32 197 31" fill="#561B1F" id="id-111313"></polygon><path d=" M 30,70 C 24,70 20,69 19,68 C 17,66 12,52 8,46 C 4,39 2,38 1,33 C 0,30 0,21 1,6 L 8,0 L 23,9 L 30,70 Z" fill="url(#id-111281)" id="id-111314"></path><polygon points="8 6 2 6 7 3 10 2 23 9 19 14" fill="#C9899B" id="id-111314"></polygon><path d=" M 26,68 C 23,69 20,69 19,68 C 17,66 12,52 8,46 C 7,44 6,43 6,42 C 9,45 10,47 12,48 C 13,50 14,52 16,56 L 26,68 Z" fill="#7E2E28" id="id-111314"></path><polygon points="26 68 29 65 27 53 20 61" fill="#954B3F" id="id-111314"></polygon><path d=" M 23,19 C 12,12 6,9 5,9 C 3,10 2,18 2,33 L 17,53 L 26,52 L 23,19 Z" fill="url(#id-111282)" id="id-111318"></path><polygon points="12 17 19 19 18 26 15 28 22 38 21 49 12 44" fill="#9C2429" id="id-111319"></polygon><path d=" M 27,53 C 16,50 10,47 8,42 C 6,38 8,30 12,17 L 15,23 C 15,36 14,42 15,43 C 15,45 18,46 25,48 L 27,53 Z" fill="#9E4F4F" id="id-111320"></path><polygon points="11 31 19 26 19 18 14 20 12 18" fill="#C07080" id="id-111321"></polygon><polygon points="20 46 17 42 22 37 25 48" fill="#6A3032" id="id-111322"></polygon></g><g transform=" translate(18,0)" id="id-111323"><path d=" M 20,231 C 18,227 11,201 5,153 C 3,140 2,128 1,117 C -1,91 4,63 8,49 C 9,46 16,35 16,34 C 30,20 56,0 94,0 C 157,0 178,45 181,51 C 183,57 183,111 181,144 C 178,177 162,232 160,235 C 158,239 124,261 119,264 C 113,266 74,267 69,264 C 64,261 22,235 20,231 Z" fill="url(#id-111283)" id="id-111324"></path><polygon points="7 140 17 117 33 106 149 120 167 144 154 168 73 161 39 177 29 171" fill="url(#id-111284)" id="id-111325"></polygon><polygon points="7 140 17 117 33 106 31 136 77 131 86 136 75 144 52 152 49 152 30 154 23 163" fill="url(#id-111285)" id="id-111325"></polygon><path d=" M 5,153 C 3,140 2,128 1,117 C -1,91 4,63 8,49 C 9,46 16,35 16,34 C 30,20 56,0 94,0 C 157,0 178,45 181,51 C 183,57 183,111 181,144 C 181,149 180,153 179,158 L 159,161 L 145,148 L 115,146 L 101,161 L 86,110 L 108,103 C 144,108 161,111 161,110 C 158,100 155,92 154,86 C 152,81 151,76 149,69 L 159,43 L 95,32 L 26,43 L 17,71 L 19,112 L 5,153 Z" fill="url(#id-111286)" id="id-111324"></path><polygon points="39 209 44 175 39 177 29 171" fill="#B57154" id="id-111325"></polygon><path d=" M 20,231 C 18,227 11,201 5,153 C 4,146 3,140 3,133 L 30,171 L 54,255 C 40,246 21,234 20,231 Z" fill="url(#id-111287)" id="id-111324"></path><polygon points="120 214 141 194 148 212 132 249 115 262 65 259 56 251 73 255 98 256" fill="url(#id-111288)" id="id-111330"></polygon><path d=" M 20,231 C 19,230 19,228 18,225 L 69,256 L 115,258 L 131,246 L 148,209 L 145,247 C 134,254 122,262 119,264 C 113,266 74,267 69,264 C 64,261 22,235 20,231 Z" fill="#764037" id="id-111324"></path><polygon points="80 183 80 201 103 202 128 183 128 174 108 161" fill="#A66755" id="id-111332"></polygon><polygon points="99 197 98 188 119 178 132 185 139 201 121 214" fill="#BE8572" id="id-111333"></polygon><polygon points="108 201 117 190 117 182 129 189 115 204" fill="#CC9B8C" id="id-111334"></polygon><polygon points="60 213 54 208 54 188 67 176 88 184 86 187 86 196 93 198 102 194 113 205" fill="#D69B88" id="id-111335"></polygon><polygon points="49 222 65 211 125 212 126 233 120 246 75 244" fill="url(#id-111289)" id="id-111336"></polygon><polygon points="125 214 110 238 84 237 70 222" fill="url(#id-111290)" id="id-111337"></polygon><polygon points="69 252 62 246 95 233 113 238 123 243 121 251 98 256" fill="#BA806F" id="id-111338"></polygon><polygon points="102 249 97 237 108 240 117 246" fill="#C69384" id="id-111339"></polygon><polygon points="151 171 140 187 108 161 141 174" fill="url(#id-111291)" id="id-111340"></polygon><polygon points="117 109 126 125 157 130 163 120 151 101" fill="#7D4C3D" id="id-111341"></polygon><polygon points="160 158 150 172 141 175 119 166 143 148" fill="#CB9D8D" id="id-111340"></polygon><polygon points="160 128 146 114 155 108 164 117 167 125 163 122" fill="#8C594E" id="id-111343"></polygon><polygon points="86 130 91 122 88 109 70 105" fill="#AF694D" id="id-111344"></polygon><polygon points="23 133 41 147 57 147 80 134 85 140 87 129 74 106 31 109 31 122" fill="url(#id-111292)" id="id-111345"></polygon><polygon points="43 109 60 118 72 128 82 133 69 109 52 105" fill="#593225" id="id-111346"></polygon><polygon points="28 138 48 154 57 146 42 147" fill="#CE9581" id="id-111347"></polygon><polygon points="94 31 159 40 152 69 154 90 145 103 90 86" fill="#DEAC9D" id="id-111348"></polygon><path d=" M 180,154 C 175,187 161,232 160,235 C 159,237 151,243 142,249 L 154,166 L 172,136 L 180,154 Z" fill="#824A3F" id="id-111324"></path><polygon points="121 35 159 40 152 69 154 90 145 103 138 101" fill="url(#id-111293)" id="id-111348"></polygon><polygon points="38 76 33 42 94 31 90 86 42 86" fill="url(#id-111294)" id="id-111351"></polygon><polygon points="45 86 38 76 22 90 22 112" fill="#C98F82" id="id-111352"></polygon><path d=" M 32,20 C 47,10 68,0 94,0 C 115,0 131,5 143,11 L 161,32 L 143,38 L 139,62 L 93,34 L 32,20 Z" fill="url(#id-111295)" opacity="0.484" id="id-111324"></path><polygon points="174 133 176 78 165 112" fill="#B7868E" id="id-111354"></polygon><polygon points="167 55 176 78 169 100" fill="#854F45" id="id-111354"></polygon><polygon points="28 105 44 86 91 85 140 96 88 109 55 101" fill="#EABCAB" id="id-111356"></polygon><polygon points="104 105 128 105 160 106 154 87 144 99 126 102 114 91" fill="#EECAC1" id="id-111357"></polygon></g></g><g transform=" translate(75,197)" id="id-111358"><polygon points="0 17 4 13 27 3 38 6 44 2 61 6 71 13 69 17 34 28 5 20" fill="#290B08" id="id-111359"></polygon><polygon points="12 16 4 14 13 7 27 1 38 4 44 0 60 6 68 11 59 15 49 14 38 15 24 15" fill="#621C21" id="id-111359"></polygon><polygon points="36 6 37 13 25 13 23 4" fill="#7C3A4F" id="id-111359"></polygon><path d=" M 4,19 C 11,25 16,29 22,30 C 30,32 52,31 53,30 C 54,29 60,25 70,17 L 71,14 C 71,15 70,15 67,15 C 64,15 64,14 58,15 C 52,15 48,17 37,17 C 26,17 15,15 12,16 C 10,16 7,17 4,19 Z" fill="url(#id-111296)" id="id-111362"></path><polygon points="16 19 16 23 33 24 33 25 43 25 51 22 34 23" fill="#C07AA2" opacity="0.532" id="id-111363"></polygon></g><polygon points="95 135 84 164 97 164 104 130 99 130" fill="url(#id-111297)" id="id-111364"></polygon><polygon points="84 175 83 177 90 186 105 186 109 187 114 187 119 181 124 182 126 185 130 184 136 177 136 171 134 169 105 165" fill="url(#id-111298)" id="id-111365"></polygon><polygon points="119 163 111 125 119 122 144 143" fill="url(#id-111299)" id="id-111366"></polygon><path d=" M 84,175 L 92,160 L 97,165 L 104,130 L 109,122 L 113,130 L 119,163 L 123,156 L 134,169 L 132,173 L 119,169 L 110,172 L 95,172 C 93,173 91,174 89,175 C 88,175 86,175 84,175 Z" fill="url(#id-111300)" id="id-111367"></path><polygon points="179 128 167 143 148 145 115 128 126 112 137 110 148 120 161 118 172 126" fill="#6D4037" id="id-111368"></polygon><polygon points="102 140 104 130 108 136 113 130 116 148 104 156" fill="#E4AD96" id="id-111367"></polygon><polygon points="95 171 100 164 108 171" fill="#F0ECFD" id="id-111370"></polygon><path d=" M 110,181 C 103,181 97,177 93,177 C 90,177 88,178 85,180 L 90,186 L 105,186 L 109,187 L 114,187 L 119,181 L 124,182 L 126,185 L 130,184 L 134,179 C 133,176 132,175 131,175 C 130,175 117,181 110,181 Z" fill="url(#id-111301)" id="id-111365"></path><polygon points="92 180 94 186 105 186 97 179" fill="#895445" id="id-111365"></polygon><polygon points="117 180 131 175 132 177 124 182 119 182" fill="#290E08" id="id-111373"></polygon><polygon points="87 178 90 177 99 178 101 179 101 182 94 180" fill="#290E08" id="id-111374"></polygon><g transform=" translate(34,94)" id="id-111375"><path d=" M 0,26 C 4,21 12,17 24,15 C 35,14 45,15 54,18 L 59,16 L 49,2 L 54,14 L 45,2 L 21,3 L 14,9 L 17,3 L 2,18 L 0,26 Z" fill="url(#id-111302)" id="id-111376"></path><polygon points="122 15 138 16 148 23 147 13 136 5 120 9" fill="#492A2A" id="id-111377"></polygon><polygon points="53 4 58 9 57 14" fill="#332325" id="id-111378"></polygon><polygon points="90 12 92 20 132 5 125 1 100 4 93 17 96 5" fill="#352325" id="id-111379"></polygon><polygon points="94 19 123 16 122 8" fill="#1F1619" id="id-111380"></polygon></g><path d=" M 165,122 L 165,128 L 170,132 L 158,139 L 126,136 L 125,133 L 133,127 C 140,121 147,118 152,118 C 157,118 162,120 165,122 Z" fill="#9D7061" id="id-111381"></path><path d=" M 136,129 L 133,127 C 139,123 143,120 146,120 L 150,123 L 136,129 Z" fill="#4F302B" id="id-111381"></path><path d=" M 130,134 L 130,132 C 140,124 148,120 155,121 C 159,122 162,124 166,126 C 168,127 170,128 174,130 C 172,133 171,133 169,132 C 168,133 167,133 167,134 C 165,135 162,136 158,136 L 136,135 L 130,134 Z" fill="#1C1316" id="id-111383"></path><path d=" M 135,133 L 136,135 L 158,136 L 165,132 C 158,127 153,125 149,125 C 144,125 139,128 135,133 Z" fill="#B5A7B5" id="id-111384"></path><path d=" M 135,133 L 136,135 L 140,135 C 142,131 144,129 148,129 C 151,128 155,130 161,134 L 165,132 C 158,127 153,125 149,125 C 144,125 139,128 135,133 Z" fill="#A28F91" id="id-111384"></path><path d=" M 149,136 C 154,136 157,134 158,128 C 154,126 151,124 149,124 C 146,124 144,126 141,128 C 141,133 143,135 149,136 Z" fill="#1B1216" id="id-111384"></path><polygon points="144 128 145 130 150 129 150 127" fill="#8F8793" id="id-111387"></polygon><polygon points="53 127 58 118 69 117 72 123 80 127 84 124 96 132 89 138 86 136 63 138 57 134" fill="#A97665" id="id-111388"></polygon><path d=" M 46,126 C 48,121 54,118 63,116 C 72,114 83,119 96,132 C 84,123 75,118 68,117 C 62,117 55,119 47,126 L 46,126 Z" fill="#4E2B23" id="id-111389"></path><path d=" M 47,134 L 45,132 C 55,124 63,120 69,121 C 76,122 82,126 90,132 L 86,136 L 59,135 L 51,133 L 47,134 Z" fill="#1E1410" id="id-111390"></path><path d=" M 53,132 L 61,136 L 81,136 L 84,133 C 78,128 73,125 69,125 C 64,125 59,127 53,132 Z" fill="#B4A3AF" id="id-111391"></path><path d=" M 53,132 L 58,134 C 60,131 63,130 68,130 C 73,130 78,131 83,134 L 84,133 C 78,128 73,125 69,125 C 64,125 59,127 53,132 Z" fill="#A69398" id="id-111391"></path><path d=" M 69,136 C 73,136 76,133 77,128 C 74,126 71,124 69,124 C 66,124 63,126 60,128 C 61,133 64,136 69,136 Z" fill="#1E1011" id="id-111391"></path><polygon points="63 128 64 130 69 128 67 127" fill="#999AA8" id="id-111394"></polygon></g><defs><linearGradient x1="72%" y1="5%" x2="41%" y2="53%" id="id-83070"><stop stop-color="#204C8A" offset="0%"></stop><stop stop-color="#0E2552" offset="100%"></stop></linearGradient><linearGradient x1="100%" y1="39%" x2="7%" y2="59%" id="id-83071"><stop stop-color="#14326A" offset="0%"></stop><stop stop-color="#0E2552" offset="100%"></stop></linearGradient><linearGradient x1="88%" y1="21%" x2="25%" y2="81%" id="id-83072"><stop stop-color="#2C5C9C" offset="0%"></stop><stop stop-color="#19417E" offset="100%"></stop></linearGradient></defs><g transform=" translate(340,1079)" id="id-83073"><path d=" M 32,560 C 11,572 0,579 0,579 C 15,605 23,618 23,618 L 54,596 C 39,572 32,560 32,560 Z" fill="#101724" id="id-83074"></path><path d=" M 582,640 C 589,657 593,665 593,665 C 574,674 565,679 565,679 L 561,670 C 562,664 569,654 582,640 Z" fill="#101724" id="id-83075"></path><path d=" M 82,681 L 63,647 C 64,625 63,612 62,610 C 54,597 33,566 20,533 C 20,498 36,440 68,358 L 101,178 L 90,170 L 114,75 L 122,72 L 134,60 L 140,31 L 142,31 L 144,0 C 193,11 261,17 349,19 C 351,22 358,23 384,22 C 384,22 423,20 500,14 L 501,32 L 503,32 L 514,61 L 524,72 L 526,70 L 567,172 L 549,174 L 581,422 L 617,557 L 584,611 C 583,623 583,632 584,638 C 575,653 558,663 558,681 C 508,681 447,681 374,681 L 372,651 L 358,631 L 344,390 L 311,397 L 300,452 L 290,462 L 282,612 L 263,636 L 259,681 L 82,681 Z" fill="url(#id-83070)" id="id-83076"></path><path d=" M 157,179 L 154,179 L 154,178 L 107,174 L 102,178 L 89,170 L 114,75 L 121,73 L 513,66 L 513,62 L 524,73 L 566,172 L 482,184 C 485,278 487,345 489,386 C 440,387 371,387 283,386 L 282,386 L 145,386 L 152,213 L 157,179 Z" fill="#1A4682" id="id-83077"></path><path d=" M 366,642 L 386,607 L 376,606 L 401,519 L 480,429 L 425,435 L 439,389 L 483,183 L 557,173 L 583,422 L 617,557 L 584,611 C 584,624 584,633 584,638 C 572,655 559,665 559,681 C 499,681 438,681 375,681 L 372,651 L 366,642 Z" fill="#163877" id="id-83078"></path><polygon points="234 531 234 567 63 633 73 587" fill="url(#id-83071)" id="id-83079"></polygon><polygon points="143 654 224 639 225 629 202 626" fill="#111A28" id="id-83080"></polygon><polygon points="433 607 489 511 489 490 497 398 499 227 501 227 526 197 553 469 583 557 589 568 507 628" fill="#18467F" id="id-83081"></polygon><polygon points="444 663 410 627 423 629 510 641" fill="#0E2351" id="id-83082"></polygon><polygon points="511 631 594 571 538 491 520 509" fill="#355E97" id="id-83083"></polygon><path d=" M 445,79 C 444,81 443,85 442,89 L 236,93 L 346,108 L 349,112 L 150,118 L 344,194 L 297,250 L 488,133 L 486,386 L 282,386 L 144,386 L 156,179 L 153,179 L 153,177 L 106,174 L 101,178 L 88,169 L 113,75 L 120,72 L 184,75 C 274,75 361,76 445,79 Z" fill="url(#id-83072)" id="id-83084"></path><polygon points="326 106 185 75 121 72 134 60 288 68 297 76 252 75" fill="#0F2755" id="id-83085"></polygon><polygon points="159 338 161 341 161 348 169 348 181 339" stroke="#979797" id="id-83086"></polygon><polygon points="156 294 151 387 218 387" fill="#2E5090" id="id-83087"></polygon><polygon points="386 375 373 387 384 387" fill="#375F9C" id="id-83088"></polygon><polygon points="423 387 486 324 488 386" fill="#3D63A1" id="id-83089"></polygon><polygon points="262 399 174 393 113 464 106 475 113 495 136 498 132 509 129 508 86 595 197 578 157 566 183 536 233 522 258 408" fill="#14336B" id="id-83090"></polygon><polygon points="489 221 488 188 486 184 528 178" fill="#0E2351" id="id-83091"></polygon><polygon points="127 179 152 217 152 214 156 180" fill="#111925" id="id-83092"></polygon><polygon points="173 178 170 232 229 230 226 181" fill="#947C17" id="id-83093"></polygon><polygon points="280 331 321 238 490 133 447 128 526 70 567 173 441 190" fill="#1C508B" id="id-83094"></polygon><polygon points="196 149 291 235 336 200" fill="#1A508B" id="id-83095"></polygon><polygon points="141 30 135 59 286 67 286 37 230 34" fill="#84671B" id="id-83096"></polygon><polygon points="230 34 221 64 135 60 141 30" fill="#654A16" id="id-83097"></polygon><polygon points="380 46 385 73 464 68 464 36" fill="#7B5C19" id="id-83098"></polygon><polygon points="465 36 503 32 514 62 514 66 465 68" fill="#654A16" id="id-83099"></polygon><path d=" M 291,37 C 288,39 286,40 286,40 C 286,63 285,74 285,74 L 384,75 L 384,72 C 382,54 380,45 380,45 L 379,37 C 320,37 291,37 291,37 Z" fill="#111925" id="id-83100"></path><path d=" M 291,28 C 291,31 291,34 291,37 L 379,37 C 338,31 309,28 291,28 Z" fill="#111823" id="id-83101"></path><path d=" M 379,33 L 382,40 L 291,37 L 291,33 C 294,32 296,31 296,31 L 295,30 C 351,32 379,33 379,33 Z" fill="#566986" id="id-83102"></path></g><defs><linearGradient x1="50%" y1="0%" x2="50%" y2="96%" id="id-95108"><stop stop-color="#642488" offset="0%"></stop><stop stop-color="#622486" offset="38%"></stop><stop stop-color="#2877B0" offset="54%"></stop><stop stop-color="#0E97C8" offset="79%"></stop><stop stop-color="#0A96C8" offset="100%"></stop></linearGradient><linearGradient x1="50%" y1="0%" x2="50%" y2="95%" id="id-95109"><stop stop-color="#63D5D8" offset="0%"></stop><stop stop-color="#00DCEA" offset="55%"></stop><stop stop-color="#00DDED" offset="100%"></stop></linearGradient><linearGradient x1="50%" y1="0%" x2="50%" y2="94%" id="id-95110"><stop stop-color="#B754FF" offset="0%"></stop><stop stop-color="#E4ADD9" offset="32%"></stop><stop stop-color="#55D6DA" offset="59%"></stop><stop stop-color="#00BBE2" offset="75%"></stop><stop stop-color="#00DDEC" offset="100%"></stop></linearGradient><linearGradient x1="50%" y1="0%" x2="50%" y2="100%" id="id-95111"><stop stop-color="#9D54B5" offset="0%"></stop><stop stop-color="#6069AB" offset="100%"></stop></linearGradient><linearGradient x1="50%" y1="0%" x2="50%" y2="100%" id="id-95112"><stop stop-color="#A049B9" offset="0%"></stop><stop stop-color="#7A6EAF" offset="100%"></stop></linearGradient><linearGradient x1="54%" y1="16%" x2="56%" y2="92%" id="id-95113"><stop stop-color="#F856EC" offset="0%"></stop><stop stop-color="#CC8DDA" offset="32%"></stop><stop stop-color="#0FC4D0" offset="65%"></stop><stop stop-color="#00C7D0" offset="81%"></stop><stop stop-color="#00D8B0" offset="100%"></stop></linearGradient><linearGradient x1="50%" y1="0%" x2="50%" y2="100%" id="id-95114"><stop stop-color="#53D6DD" offset="0%"></stop><stop stop-color="#24E0CC" offset="56%"></stop><stop stop-color="#00E7BF" offset="100%"></stop></linearGradient><linearGradient x1="50%" y1="0%" x2="50%" y2="100%" id="id-95115"><stop stop-color="#C7CADD" offset="0%"></stop><stop stop-color="#67D4DD" offset="100%"></stop></linearGradient><linearGradient x1="50%" y1="0%" x2="50%" y2="100%" id="id-95116"><stop stop-color="#DA5CD6" offset="0%"></stop><stop stop-color="#C56ED2" offset="100%"></stop></linearGradient><linearGradient x1="54%" y1="4%" x2="48%" y2="100%" id="id-95117"><stop stop-color="#FD67EF" offset="0%"></stop><stop stop-color="#E3AFDE" offset="35%"></stop><stop stop-color="#00DFE3" offset="100%"></stop></linearGradient><linearGradient x1="54%" y1="-13%" x2="48%" y2="100%" id="id-95118"><stop stop-color="#F7A1F2" offset="0%"></stop><stop stop-color="#00B3DE" offset="100%"></stop></linearGradient><linearGradient x1="59%" y1="15%" x2="47%" y2="94%" id="id-95119"><stop stop-color="#00B8D5" offset="0%"></stop><stop stop-color="#00CDD3" offset="100%"></stop></linearGradient></defs><g transform=" translate(249,658)" id="id-95120"><g transform=" translate(0,56)" id="id-95121"><path d=" M 177,672 C 166,657 155,643 146,627 C 144,615 142,602 139,588 C 132,593 129,596 129,596 C 127,586 126,582 126,582 C 110,587 93,594 76,603 C 63,619 56,627 56,627 C 60,636 62,640 62,640 C 49,641 43,641 43,641 C 30,639 24,636 20,623 C 12,599 6,574 1,548 C 0,540 -1,531 2,522 C 14,467 30,402 48,362 C 55,360 62,357 69,351 C 65,346 63,342 64,338 C 64,335 72,335 75,327 C 64,316 69,272 70,221 C 73,213 93,177 109,154 C 115,151 118,149 118,149 C 112,137 107,125 104,110 C 108,98 113,86 121,74 C 117,63 115,52 115,41 C 105,41 95,41 86,35 C 97,24 109,12 120,9 C 142,3 152,0 152,0 C 157,33 163,68 182,125 C 178,135 176,141 176,141 C 190,157 201,166 217,189 C 232,121 239,87 239,87 C 245,101 248,116 249,133 C 255,149 258,157 258,157 C 262,195 263,215 263,215 C 265,229 272,240 270,258 C 254,303 247,325 247,325 C 249,353 249,367 249,367 C 245,382 243,389 243,389 C 235,415 231,428 231,428 C 220,479 215,504 215,504 C 219,526 222,549 223,574 C 216,587 209,602 205,617 C 191,635 181,653 177,672 Z" fill="url(#id-95108)" id="id-95122"></path><path d=" M 109,581 C 103,584 100,586 100,586 C 101,577 101,573 101,573 C 97,579 91,585 84,591 L 95,545 L 20,573 L 56,530 L 45,507 L 38,467 L 108,428 C 115,417 118,411 118,411 L 128,434 L 134,567 C 117,576 109,581 109,581 Z" fill="#00C2E0" id="id-95123"></path><path d=" M 62,640 C 45,635 36,632 36,632 C 60,611 72,601 72,601 C 113,578 134,567 134,567 L 139,583 L 129,596 L 126,582 C 109,587 92,595 76,603 L 56,627 C 60,636 62,640 62,640 Z" fill="#005A88" id="id-95124"></path><path d=" M 20,623 L 67,604 L 36,632 L 62,640 L 43,641 C 30,640 22,634 20,623 Z" fill="#00A4BF" id="id-95125"></path><path d=" M 20,623 C 62,605 82,597 82,597 C 91,562 95,545 95,545 C 45,563 20,573 20,573 C 44,544 56,530 56,530 C 48,515 45,507 45,507 C 77,508 94,509 94,509 C 95,507 96,505 96,505 C 89,485 86,476 86,476 C 54,470 38,467 38,467 C 84,441 108,428 108,428 C 115,417 118,411 118,411 C 116,402 115,397 115,397 C 92,390 80,387 80,387 C 65,390 58,392 58,392 L 56,359 L 48,362 C 22,427 12,477 0,530 C 0,550 7,581 20,623 Z" fill="url(#id-95109)" id="id-95126"></path><path d=" M 32,619 C 44,615 49,613 49,613 C 59,593 62,574 80,554 C 40,566 20,573 20,573 C 20,571 20,571 20,571 C 16,574 12,578 15,581 C 49,583 55,596 32,619 Z" fill="#00FFFF" id="id-95127"></path><path d=" M 8,578 C 38,547 53,532 53,532 C 41,501 35,486 35,486 C 31,468 30,454 38,447 L 51,416 C 49,380 48,362 48,362 C 32,402 21,442 11,482 L 23,467 C 30,518 25,555 8,578 Z" fill="#00FEFF" id="id-95128"></path><path d=" M 18,567 C 34,548 37,518 29,476 L 32,465 C 32,471 33,476 35,486 L 53,532 C 30,555 18,567 18,567 Z" fill="#45FFFF" id="id-95129"></path><polygon points="109 581 131 501 134 567" fill="#00A4C8" id="id-95130"></polygon><path d=" M 128,521 C 103,520 91,520 91,520 L 131,506 C 129,516 128,521 128,521 Z" fill="#008EB1" id="id-95131"></path><path d=" M 53,410 C 62,419 66,424 66,424 L 109,418 C 71,413 53,410 53,410 Z" fill="#08C1DE" id="id-95132"></path><path d=" M 139,583 C 135,556 133,531 133,507 C 143,469 148,450 148,450 C 131,426 122,415 122,415 C 121,404 120,399 120,399 C 119,356 119,335 119,335 C 117,352 116,360 116,360 C 107,367 102,370 102,370 C 111,373 116,375 116,375 L 115,403 L 118,411 L 128,434 L 131,506 L 134,567 C 137,578 139,583 139,583 Z" fill="#008AAE" id="id-95133"></path><path d=" M 177,672 C 167,658 156,645 146,627 L 139,588 L 139,583 C 135,557 134,532 133,507 L 148,450 L 122,415 L 120,399 L 118,336 C 117,352 116,360 116,360 C 98,372 89,378 89,378 L 65,354 L 69,351 C 63,344 62,339 65,336 C 69,334 72,333 75,327 C 65,316 68,289 70,221 C 81,198 94,176 109,154 L 118,149 C 112,137 107,125 104,110 C 108,99 112,88 121,74 C 118,65 115,57 115,41 C 104,41 94,40 86,35 C 94,26 102,18 115,10 L 152,0 C 158,40 167,82 182,125 L 176,141 C 190,156 205,171 217,189 C 231,213 238,225 238,225 C 227,259 222,276 222,276 C 223,279 224,280 224,280 C 199,289 187,293 187,293 C 214,294 228,294 228,294 C 211,359 202,392 202,392 C 185,373 177,364 177,364 C 172,351 170,344 170,344 C 173,374 174,408 174,445 C 181,409 185,391 185,391 C 189,408 194,427 198,447 L 211,479 C 214,496 215,504 215,504 C 216,534 217,549 217,549 C 182,499 164,474 164,474 C 170,577 173,629 173,629 L 181,658 L 177,672 Z" fill="url(#id-95110)" id="id-95134"></path><path d=" M 161,650 C 161,644 161,641 161,641 C 165,649 167,652 167,652 L 167,659 C 163,653 161,650 161,650 Z" stroke="#979797" id="id-95135"></path><polygon points="155 547 134 506 148 450" fill="#00FBFE" id="id-95136"></polygon><path d=" M 180,661 C 179,664 179,665 179,665 C 174,665 172,665 172,665 C 167,642 165,630 165,630 C 146,380 137,255 137,255 C 132,128 130,65 130,65 C 122,33 118,17 118,17 C 124,13 126,11 126,11 C 134,45 139,61 139,61 C 142,194 144,260 144,260 C 157,403 163,474 163,474 L 172,629 C 177,650 180,661 180,661 Z" fill="#FBFCFC" id="id-95137"></path><polygon points="216 586 216 547 215 504 221 545 223 574" fill="#2C7BB2" id="id-95138"></polygon><path d=" M 201,622 C 183,589 174,573 174,573 C 172,560 171,553 171,553 L 174,632 L 181,658 C 188,642 194,630 201,622 Z" fill="#1B90C1" id="id-95139"></path><path d=" M 82,345 C 96,320 103,307 103,307 C 86,310 77,304 84,282 C 78,274 75,270 75,270 C 77,283 77,298 75,315 C 87,321 90,331 82,345 Z" fill="#A3F8FF" id="id-95140"></path><path d=" M 107,366 C 112,321 115,299 115,299 C 102,280 96,271 96,271 C 102,244 106,231 106,231 L 119,298 L 118,335 L 116,359 C 110,364 107,366 107,366 Z" fill="#826890" fill-opacity="0.241" id="id-95141"></path><path d=" M 121,365 C 119,344 118,333 118,333 C 124,307 127,294 127,294 L 141,327 C 135,336 128,344 121,365 Z" fill="#AAEEF2" id="id-95142"></path><path d=" M 127,294 C 121,280 115,264 110,242 L 108,210 L 118,149 C 113,139 108,127 104,110 C 105,106 106,104 106,104 C 112,122 120,135 129,144 C 127,163 131,167 133,176 C 118,211 116,250 127,294 Z" fill="#FFC0FF" id="id-95143"></path><path d=" M 177,364 C 188,343 193,332 193,332 L 219,294 L 228,294 L 213,353 L 202,392 C 185,373 177,364 177,364 Z" fill="#3E92BE" id="id-95144"></path><path d=" M 152,295 L 177,364 C 194,382 202,392 202,392 C 209,366 213,353 213,353 C 200,339 194,333 194,333 L 162,297 L 188,294 L 224,280 C 222,277 222,276 222,276 C 223,271 224,269 224,269 L 170,292 L 152,295 Z" fill="#2985B8" fill-opacity="0.712" id="id-95145"></path><path d=" M 149,293 C 154,303 157,308 157,308 C 161,310 163,311 163,311 C 164,306 165,301 168,295 L 167,213 C 155,267 149,293 149,293 Z" fill="url(#id-95111)" id="id-95146"></path><path d=" M 214,284 L 176,141 C 190,156 204,170 217,189 L 238,225 L 222,276 L 224,279 L 214,284 Z" fill="url(#id-95112)" id="id-95147"></path><path d=" M 205,243 C 189,179 181,146 181,146 C 191,157 202,168 213,183 C 208,223 205,243 205,243 Z" fill="#9B48B6" id="id-95148"></path><path d=" M 226,205 C 231,200 234,198 234,198 L 247,118 C 246,107 243,97 239,87 L 217,189 C 223,199 226,205 226,205 Z" fill="#4E1275" id="id-95149"></path><path d=" M 247,118 C 241,129 235,143 229,161 L 238,225 C 244,154 247,118 247,118 Z" fill="#9F18A6" id="id-95150"></path><path d=" M 237,229 C 252,248 260,258 260,258 L 260,287 L 247,325 L 228,294 L 188,294 L 224,280 L 222,276 C 232,245 237,229 237,229 Z" fill="#544692" id="id-95151"></path><path d=" M 158,220 C 152,179 149,158 149,158 L 164,178 C 160,206 158,220 158,220 Z" fill="#B33CBD" id="id-95152"></path><path d=" M 165,163 C 149,145 141,136 141,136 C 155,120 162,112 162,112 C 165,91 166,81 166,81 C 159,53 155,39 155,39 C 138,23 130,15 130,15 L 153,6 C 159,46 169,86 182,125 C 171,150 165,163 165,163 Z" fill="#9F22AE" id="id-95153"></path><path d=" M 140,61 L 130,21 L 155,39 C 145,53 140,61 140,61 Z" fill="#D680FF" id="id-95154"></path><path d=" M 108,35 C 93,35 86,35 86,35 L 117,11 L 108,35 Z" fill="#F9AAFE" id="id-95155"></path><path d=" M 176,141 C 196,176 207,194 207,194 L 204,171 C 185,151 176,141 176,141 Z" fill="#8F26A1" id="id-95156"></path><path d=" M 234,341 C 223,310 218,294 218,294 C 229,273 234,262 234,262 L 247,277 C 238,320 234,341 234,341 Z" fill="#3070AB" fill-opacity="0.559" id="id-95157"></path></g><g transform=" translate(453,0)" id="id-95158"><path d=" M 134,49 C 174,28 214,12 254,0 C 303,56 328,84 328,84 C 325,89 324,91 324,91 C 282,101 261,106 261,106 C 262,111 262,114 262,114 C 254,138 250,149 250,149 C 258,150 267,151 273,158 C 292,197 301,217 301,217 C 309,222 313,225 313,225 C 312,268 312,290 312,290 C 318,301 322,306 322,306 C 320,311 318,316 314,317 C 317,336 323,353 332,366 C 330,372 329,377 322,383 C 325,385 329,387 331,392 C 332,418 334,442 340,464 C 338,468 335,472 330,476 C 332,483 333,486 333,486 C 336,486 339,485 342,485 C 354,532 360,555 360,555 C 362,560 358,566 354,571 C 357,589 365,599 365,623 C 358,647 349,671 339,693 C 332,698 329,701 329,701 C 313,704 306,706 306,706 C 304,700 303,698 303,698 C 249,686 222,680 222,680 C 217,660 213,639 210,610 C 190,612 171,615 153,621 C 136,619 119,612 102,603 C 81,603 59,602 40,606 C 32,607 28,608 28,608 C 21,604 10,601 0,598 C 14,538 20,508 20,508 C 36,452 44,425 44,425 C 56,387 69,353 78,308 C 117,135 136,49 134,49 Z" fill="url(#id-95113)" id="id-95159"></path><path d=" M 222,680 C 258,687 287,687 329,701 L 306,706 L 303,698 C 272,693 244,687 222,680 Z" fill="#00BC84" id="id-95160"></path><path d=" M 222,680 C 262,686 282,689 282,689 C 283,670 282,651 279,631 C 265,617 258,611 258,611 C 270,609 275,608 275,608 C 285,590 290,581 290,581 C 280,567 275,561 275,561 C 284,559 288,559 288,559 C 276,544 270,536 270,536 C 277,524 284,514 292,506 C 272,424 263,383 263,383 C 250,381 244,379 244,379 C 207,390 188,396 188,396 C 182,403 178,406 178,406 C 188,454 193,479 193,479 C 215,478 225,477 225,477 C 208,483 199,485 199,485 C 213,519 220,536 220,536 C 253,526 269,522 269,522 C 254,532 246,537 246,537 C 250,544 252,547 252,547 C 238,546 231,546 231,546 C 223,567 220,577 220,577 C 223,582 224,584 224,584 C 243,589 253,591 253,591 C 244,596 240,598 240,598 L 210,587 L 210,611 C 215,644 219,667 222,680 Z" fill="url(#id-95114)" id="id-95161"></path><path d=" M 303,690 C 305,658 301,630 291,606 C 308,591 317,583 317,583 L 351,584 L 365,623 C 359,645 350,669 339,693 L 329,701 C 312,694 303,690 303,690 Z" fill="#00C89F" id="id-95162"></path><path d=" M 289,582 C 280,568 275,561 275,561 L 332,568 L 289,582 Z" fill="#00BC96" id="id-95163"></path><path d=" M 358,586 C 351,581 348,578 348,578 C 312,572 294,570 294,570 L 361,559 C 360,563 358,567 354,570 C 356,581 358,586 358,586 Z" fill="#00AE80" id="id-95164"></path><path d=" M 333,639 C 329,631 327,627 327,627 C 335,611 339,604 339,604 C 346,620 350,629 350,629 L 332,649 C 333,642 333,639 333,639 Z" fill="#4BDAC6" id="id-95165"></path><path d=" M 348,632 C 342,643 338,648 338,648 C 338,827 338,916 338,916 L 328,905 L 332,649 C 343,638 348,632 348,632 Z" fill="#38D9C4" id="id-95166"></path><path d=" M 331,750 L 338,742 L 338,649 L 350,629 L 332,649 C 331,716 331,750 331,750 Z" fill="#55FFE6" id="id-95167"></path><path d=" M 329,701 C 324,698 321,697 321,697 L 332,637 L 333,639 L 332,649 C 330,684 329,701 329,701 Z" fill="#009D76" id="id-95168"></path><path d=" M 333,486 L 305,491 L 340,464 C 337,471 333,472 330,476 C 332,483 333,486 333,486 Z" fill="#00AF81" id="id-95169"></path><path d=" M 221,533 C 232,531 243,527 255,521 C 262,484 266,466 266,466 C 244,469 233,471 233,471 C 235,469 237,468 237,468 C 243,432 239,394 259,387 C 254,385 251,383 251,383 C 232,392 204,397 189,408 C 222,416 231,439 220,473 C 231,479 231,500 221,533 Z" fill="#83E5F6" id="id-95170"></path><path d=" M 308,378 C 271,376 252,375 252,375 L 287,361 C 301,372 308,378 308,378 Z" fill="#3494C1" id="id-95171"></path><path d=" M 310,377 C 296,365 290,359 290,359 L 300,316 C 309,316 314,317 314,317 C 316,334 322,349 330,363 C 317,373 310,377 310,377 Z" fill="#1DA1DB" id="id-95172"></path><path d=" M 300,316 C 277,315 265,314 265,314 L 266,369 L 290,359 C 296,330 300,316 300,316 Z" fill="#4CABE2" id="id-95173"></path><path d=" M 196,383 C 228,380 244,378 244,378 C 251,374 254,371 254,371 C 259,343 261,329 261,329 C 245,322 237,319 237,319 C 238,308 239,302 239,302 C 206,313 190,318 190,318 L 191,368 C 194,378 196,383 196,383 Z" fill="url(#id-95115)" id="id-95174"></path><path d=" M 193,367 C 200,345 203,334 203,334 L 234,338 C 207,357 193,367 193,367 Z" fill="#A8E6FC" id="id-95175"></path><path d=" M 147,411 C 161,399 168,392 168,392 C 179,369 185,357 185,357 C 187,332 188,320 188,320 C 189,349 190,363 190,363 C 174,391 166,405 166,405 C 177,446 182,467 182,467 C 201,513 210,536 210,536 L 226,537 C 229,543 231,546 231,546 C 229,552 228,555 228,555 C 219,547 209,540 196,534 C 197,523 197,518 197,518 C 186,484 180,467 180,467 L 171,436 C 155,419 147,411 147,411 Z" fill="#0075B3" id="id-95176"></path><path d=" M 189,312 C 199,305 205,302 205,302 C 197,292 193,288 193,288 C 193,278 192,273 192,273 C 191,272 191,271 191,271 C 192,264 193,260 193,260 C 232,242 259,230 274,226 C 251,227 240,227 240,227 C 230,237 225,242 225,242 C 205,249 195,253 195,253 C 201,229 204,217 204,217 C 190,245 184,259 184,259 L 189,283 C 189,302 189,312 189,312 Z" fill="#A650C2" id="id-95177"></path><path d=" M 230,253 C 248,246 266,236 284,223 C 303,224 313,225 313,225 C 312,266 312,286 312,286 C 294,296 285,301 285,301 L 257,291 C 239,266 230,253 230,253 Z" fill="url(#id-95116)" id="id-95178"></path><polygon points="322 306 285 301 312 286 312 290" fill="#EE7BF1" id="id-95179"></polygon><path d=" M 291,307 C 260,304 245,302 245,302 L 267,296 C 283,304 291,307 291,307 Z" fill="#8981C9" id="id-95180"></path><path d=" M 305,219 C 273,210 258,206 258,206 C 272,202 279,200 279,200 C 287,208 291,211 291,211 L 299,213 L 302,217 C 304,218 305,219 305,219 Z" fill="#DD52D8" id="id-95181"></path><path d=" M 267,199 C 253,197 239,200 227,206 C 241,193 252,184 260,179 C 263,180 264,181 264,181 L 255,192 C 263,196 267,199 267,199 Z" fill="#FA9BF5" id="id-95182"></path><path d=" M 206,208 C 212,196 215,190 215,190 L 253,182 C 221,199 206,208 206,208 Z" fill="#E852DB" id="id-95183"></path><path d=" M 177,130 C 150,160 121,189 109,227 C 114,228 116,229 116,229 C 116,258 116,272 116,272 C 103,283 96,288 96,288 C 86,337 81,361 81,361 C 87,389 91,403 91,403 C 85,401 82,400 82,400 C 71,416 65,424 65,424 C 49,492 42,526 42,526 C 41,544 41,553 41,553 L 47,605 C 65,603 83,602 101,604 C 128,502 142,451 142,451 C 132,416 126,399 126,399 L 188,201 C 180,153 177,130 177,130 Z" fill="url(#id-95117)" id="id-95184"></path><path d=" M 145,225 C 156,221 168,219 181,207 C 179,157 179,133 179,133 C 189,111 194,101 194,101 C 190,97 188,95 188,95 C 185,110 174,118 172,135 C 170,152 170,174 171,196 C 170,204 161,213 145,225 Z" fill="#FFB2FD" id="id-95185"></path><path d=" M 129,239 C 126,231 125,227 125,227 L 141,212 C 133,230 129,239 129,239 Z" fill="#FFC4FF" id="id-95186"></path><path d=" M 131,259 C 131,244 131,236 131,236 C 139,221 143,213 143,213 L 142,235 C 134,251 131,259 131,259 Z" fill="#DF79DD" id="id-95187"></path><path d=" M 144,231 C 144,236 145,239 145,239 L 139,245 C 142,236 144,231 144,231 Z" fill="#FFC4FF" id="id-95188"></path><path d=" M 149,244 C 151,231 152,225 152,225 C 163,220 169,218 169,218 L 166,227 C 155,238 149,244 149,244 Z" fill="#FFC4FF" id="id-95189"></path><path d=" M 157,240 C 157,255 157,262 157,262 C 164,248 168,241 168,241 L 169,225 C 161,235 157,240 157,240 Z" fill="#DE7ADD" id="id-95190"></path><path d=" M 84,349 C 100,303 108,279 108,279 L 104,248 C 91,315 84,349 84,349 Z" fill="#D8D8D8" id="id-95191"></path><path d=" M 38,460 L 57,430 L 91,403 C 84,375 81,361 81,361 L 84,308 L 38,460 Z" fill="#2F82B6" id="id-95192"></path><path d=" M 59,419 C 41,498 32,538 32,538 C 30,590 29,615 29,615 C 36,613 39,612 39,612 L 38,539 C 56,463 65,424 65,424 C 78,373 85,348 85,348 C 106,240 116,186 116,186 C 131,126 139,96 139,96 C 133,93 131,91 131,91 L 74,362 C 71,380 66,398 59,419 Z" fill="#D8E1DE" id="id-95193"></path><path d=" M 91,403 C 112,409 123,413 123,413 C 126,350 127,319 127,319 L 104,301 L 81,364 C 87,390 91,403 91,403 Z" fill="#ADEDF3" id="id-95194"></path><path d=" M 80,488 C 89,512 94,524 94,524 C 110,482 117,460 117,460 L 98,448 C 86,474 80,488 80,488 Z" fill="#6BEAF2" id="id-95195"></path><path d=" M 42,544 C 69,532 83,525 83,525 C 87,478 89,454 89,454 L 66,430 C 50,506 42,544 42,544 Z" fill="#67E9F0" id="id-95196"></path><path d=" M 90,448 C 86,438 84,433 84,433 C 89,416 92,408 92,408 L 99,407 C 93,435 90,448 90,448 Z" fill="#2DBFD9" id="id-95197"></path><path d=" M 103,444 C 110,451 114,455 114,455 L 117,429 L 108,410 C 105,432 103,444 103,444 Z" fill="#2DBFD9" id="id-95198"></path><path d=" M 82,409 C 82,403 82,400 82,400 L 91,403 L 82,409 Z" fill="#4BBCD5" id="id-95199"></path><path d=" M 191,498 C 185,550 182,576 182,576 C 170,594 164,604 164,604 L 194,593 L 196,534 L 197,518 C 193,505 191,498 191,498 Z" fill="#00AAB8" id="id-95200"></path><path d=" M 194,593 C 201,590 204,588 204,588 L 203,538 L 196,534 C 195,573 194,593 194,593 Z" fill="#008EB7" id="id-95201"></path><path d=" M 204,588 L 224,584 L 220,577 L 228,555 C 221,549 212,543 203,538 L 204,588 Z" fill="#009BB9" id="id-95202"></path><path d=" M 210,587 C 206,588 204,588 204,588 L 190,613 L 210,611 L 210,587 Z" stroke="#979797" id="id-95203"></path><path d=" M 128,615 C 144,610 156,607 164,604 C 173,601 186,595 204,588 L 210,587 L 210,611 C 194,611 174,616 153,621 C 146,620 139,619 128,615 Z" fill="#0090B5" id="id-95204"></path><path d=" M 145,613 C 153,615 156,617 156,617 C 169,613 176,611 176,611 L 173,604 C 154,610 145,613 145,613 Z" fill="#17273A" id="id-95205"></path><path d=" M 102,603 C 133,602 148,601 148,601 L 119,612 C 108,606 102,603 102,603 Z" fill="#00BBC5" id="id-95206"></path><polygon points="47 604 41 553 39 607" fill="#D8D8D8" id="id-95207"></polygon><path d=" M 22,605 C 28,576 30,562 30,562 L 27,607 C 24,606 22,605 22,605 Z" stroke="#979797" id="id-95208"></path><polygon points="0 598 22 605 29 607 31 538 59 419 112 180 104 188 74 324 20 508" fill="url(#id-95118)" id="id-95209"></polygon><path d=" M 2,598 C 6,580 9,570 9,570 L 31,552 L 22,605 C 9,601 2,598 2,598 Z" fill="#00A7D8" id="id-95210"></path><path d=" M 108,226 L 117,182 C 131,124 139,95 139,95 C 133,130 127,167 126,191 C 120,199 114,212 108,226 Z" fill="#C136E0" id="id-95211"></path><path d=" M 274,246 C 274,261 274,269 274,269 C 301,275 314,277 314,277 L 314,246 C 287,246 274,246 274,246 Z" fill="#1D3452" id="id-95212"></path><path d=" M 224,166 C 228,143 229,131 229,131 C 202,101 189,87 189,87 C 154,91 137,93 137,93 C 140,87 142,84 142,84 C 144,88 144,89 144,89 C 174,87 190,85 190,85 C 218,115 233,130 233,130 C 242,144 247,151 247,151 L 232,155 C 227,162 224,166 224,166 Z" fill="#B733EF" id="id-95213"></path><path d=" M 191,123 C 206,92 213,77 213,77 L 212,98 C 198,114 191,123 191,123 Z" fill="#F7B4FB" id="id-95214"></path><path d=" M 151,114 C 180,79 195,62 195,62 L 181,92 C 161,107 151,114 151,114 Z" fill="#FEBCFF" id="id-95215"></path><path d=" M 143,107 C 149,92 153,84 153,84 L 174,72 C 153,96 143,107 143,107 Z" fill="#FBB2FF" id="id-95216"></path><path d=" M 138,104 C 146,76 149,62 149,62 L 171,59 C 149,89 138,104 138,104 Z" fill="#FD8DFF" id="id-95217"></path><path d=" M 127,89 C 132,90 134,90 134,90 L 151,40 L 134,49 C 129,75 127,89 127,89 Z" fill="#FFC4FF" id="id-95218"></path><path d=" M 261,106 L 271,90 L 324,91 C 282,101 261,106 261,106 Z" fill="#F32EDD" id="id-95219"></path><path d=" M 124,98 C 127,100 129,100 129,100 C 118,153 112,180 112,180 L 104,188 C 118,128 124,98 124,98 Z" stroke="#979797" id="id-95220"></path><path d=" M 182,77 C 188,77 192,77 192,77 C 200,89 205,94 205,94 C 207,91 208,89 208,89 C 207,74 210,62 217,51 L 209,44 C 191,66 182,77 182,77 Z" fill="#FF85FD" id="id-95221"></path><path d=" M 143,60 C 178,43 196,34 196,34 C 235,24 254,18 254,18 C 252,55 250,74 250,74 L 291,98 C 271,103 261,106 261,106 C 240,70 230,53 230,53 C 207,44 196,39 196,39 L 171,58 C 152,59 143,60 143,60 Z" fill="#C51FD8" id="id-95222"></path><path d=" M 216,29 C 235,15 244,8 244,8 L 209,15 C 184,26 157,35 134,49 L 131,65 L 145,59 L 196,34 C 209,31 216,29 216,29 Z" fill="#ED70FC" id="id-95223"></path><path d=" M 160,52 C 173,51 179,51 179,51 C 191,43 197,38 197,38 L 222,27 L 196,34 C 172,46 160,52 160,52 Z" fill="#7700AF" id="id-95224"></path><path d=" M 134,49 C 161,44 174,41 174,41 L 210,15 C 173,29 147,41 134,49 Z" fill="#FF9AFF" id="id-95225"></path><path d=" M 197,38 C 209,41 214,42 214,42 C 225,49 230,52 230,52 C 227,39 226,33 226,33 L 237,24 L 222,27 C 205,35 197,38 197,38 Z" fill="#9500CD" id="id-95226"></path><path d=" M 326,87 L 286,52 L 254,0 L 292,44 L 328,84 C 326,86 326,87 326,87 Z" fill="#A315D4" id="id-95227"></path><path d=" M 254,18 C 260,16 263,15 263,15 C 266,19 267,21 267,21 C 269,47 270,60 270,60 L 262,80 L 250,74 C 253,37 254,18 254,18 Z" fill="#D944F0" id="id-95228"></path><path d=" M 241,71 L 251,67 L 254,18 L 239,22 L 226,33 L 230,54 C 237,65 241,71 241,71 Z" fill="#AF22DA" id="id-95229"></path><path d=" M 178,94 C 180,93 181,92 181,92 L 182,90 C 186,93 188,95 188,95 C 186,105 182,111 178,118 C 179,110 182,100 178,94 Z" fill="#F97EFA" id="id-95230"></path><path d=" M 180,466 C 174,499 162,528 146,553 C 153,579 157,593 157,593 L 131,602 L 148,601 L 119,612 L 128,615 L 164,604 L 182,576 L 190,498 C 183,477 180,466 180,466 Z" fill="url(#id-95119)" id="id-95231"></path></g><path d=" M 609,613 C 612,611 615,611 618,615 C 619,784 620,868 620,868 L 608,882 C 608,703 609,613 609,613 Z" fill="#FF84FC" id="id-95232"></path><path d=" M 161,698 C 165,705 167,709 167,709 C 169,828 170,888 170,888 L 165,884 C 162,760 161,698 161,698 Z" fill="#0B80B8" id="id-95233"></path></g><defs></defs><g transform=" translate(570,309)" id="id-99509"><g transform=" translate(0,101)" fill="#1C542B" id="id-99510"><path d=" M 0,3 L 6,72 L 31,105 L 85,122 L 144,106 L 167,76 L 178,1 L 148,68 L 113,95 L 101,85 C 101,85 102,91 102,91 C 102,91 98,83 98,83 L 92,83 L 93,90 L 89,83 L 87,93 L 84,81 L 78,91 L 79,84 L 64,93 C 17,78 14,36 1,1 C 1,1 0,3 0,3 Z" id="id-99511"></path><path d=" M 90,34 L 90,44 C 94,42 130,56 135,53 C 121,47 113,31 90,34 Z" id="id-99511"></path><path d=" M 88,44 C 79,41 52,57 43,52 C 57,48 61,31 88,34 C 88,37 88,40 88,44 Z" id="id-99511"></path></g><g transform=" translate(35,0)" fill="#006937" id="id-99514"><polygon points="2 1 2 1 2 2" id="id-99511"></polygon></g></g><defs></defs><g transform=" translate(539,236)" id="id-101132"><g transform=" translate(10,1)" fill="#1E1011" id="id-101133"><path d=" M 191,211 L 199,192 L 201,167 C 202,162 226,96 222,93 L 210,86 L 189,31 L 187,29 L 183,32 C 178,28 174,24 171,19 L 149,2 C 148,6 100,9 96,10 L 99,0 L 69,8 L 63,21 L 63,13 L 39,21 L 33,33 L 32,28 L 15,88 L 0,94 C -2,97 16,166 16,171 L 17,192 L 28,213 L 24,187 L 27,165 L 23,113 L 43,86 L 58,105 L 61,77 L 78,108 L 80,72 C 80,72 137,49 142,68 L 144,89 L 164,68 L 160,101 C 160,101 198,54 191,117 L 191,141 L 187,169 L 194,158 L 193,177 L 191,211 Z" id="id-101134"></path></g><g id="id-101135"><polygon points="218 86 232 94 218 102 211 97" fill="#63576B" id="id-101134"></polygon><polygon points="200 119 214 106 214 99 221 96 222 76 218 51 187 92 192 90 190 100 195 95 190 108 200 102" fill="#008558" id="id-101134"></polygon><path d=" M 169,103 L 189,51 L 190,64 C 190,64 199,46 199,31 L 217,51 C 221,53 188,93 190,91 L 169,103 Z" fill="#46B86D" id="id-101134"></path><path d=" M 168,38 L 153,73 L 152,70 L 132,103 L 131,63 L 128,77 L 116,76 L 118,70 L 102,98 L 98,103 L 97,108 C 86,80 84,55 97,29 L 98,49 L 98,50 C 99,45 105,12 108,10 L 114,9 L 118,2 L 143,0 C 145,2 149,5 150,7 L 154,5 L 154,31 L 166,9 L 159,51 L 168,38 Z" fill="#52BB6F" id="id-101134"></path><path d=" M 97,29 L 98,49 C 97,45 95,41 94,36 L 97,29 Z" fill="#00A56B" id="id-101134"></path><path d=" M 101,57 C 95,51 105,15 108,10 L 114,9 L 117,4 C 112,14 99,42 101,57 Z" fill="#00A56B" id="id-101134"></path><path d=" M 145,23 C 146,16 146,9 146,3 L 150,7 C 149,12 148,18 145,23 Z" fill="#00A56B" id="id-101134"></path><path d=" M 102,97 C 102,97 98,103 98,103 L 97,108 C 95,100 98,81 97,81 C 98,86 100,92 102,97 Z" fill="#006937" id="id-101134"></path><path d=" M 91,50 C 91,50 92,81 93,96 C 88,84 88,61 89,52 L 91,50 Z" fill="#00A56B" id="id-101134"></path><path d=" M 95,105 C 95,104 94,104 94,103 C 95,105 95,106 95,105 Z" fill="#006937" id="id-101134"></path><path d=" M 155,63 C 153,67 134,103 131,108 C 131,96 133,66 135,54 L 131,53 C 131,53 109,73 104,87 C 104,87 98,67 92,79 C 92,79 89,50 91,49 L 104,71 C 104,71 108,23 113,20 C 113,20 110,41 120,46 C 137,39 138,61 155,63 Z" fill="#89CCA1" id="id-101134"></path><path d=" M 79,86 C 79,86 84,97 83,100 L 79,93 L 79,86 Z" fill="#006937" id="id-101134"></path><path d=" M 53,88 C 52,107 43,121 45,137 C 33,119 27,108 26,104 L 23,97 C 23,97 20,58 20,58 L 20,56 L 41,29 L 41,55 L 53,88 Z" fill="#007F51" id="id-101134"></path><polygon points="53 88 53 89 40 63 29 92 20 58 20 56 41 29 41 55" fill="#008D5E" id="id-101134"></polygon><path d=" M 49,108 C 44,123 45,125 45,137 C 45,137 41,89 41,89 C 40,93 46,103 49,108 Z" fill="#19B360" id="id-101134"></path><polygon points="15 92 23 97 22 88" fill="#63576B" id="id-101134"></polygon><path d=" M 232,100 L 220,107 L 216,105 L 208,108 L 203,165 L 213,174 L 220,169 L 228,174 L 231,172 L 231,150 L 236,144 C 236,143 239,104 239,104 L 232,100 Z M 210,163 L 206,161 L 210,114 L 216,116 L 216,149 L 210,163 Z" fill="#383A5D" id="id-101152" fill-rule="nonzero"></path><polygon points="210 121 213 117 215 121 212 124" fill="#E1E31C" id="id-101134"></polygon><polygon points="212 128 210 132 212 136 214 132" fill="#ED1E24" id="id-101134"></polygon><polygon points="212 141 214 146 211 150 209 145" fill="#BD59A2" id="id-101134"></polygon><path d=" M 221,113 L 223,150 L 221,152 L 219,113 L 208,108 L 216,105 L 220,107 L 232,100 L 239,104 L 239,106 C 234,107 222,109 221,113 Z" fill="#B2BDD8" id="id-101134"></path><polygon points="239 104 220 109 212 107 216 105 220 107 232 100" fill="#9792B2" id="id-101134"></polygon><path d=" M 0,104 C 0,104 4,143 4,144 L 9,148 L 10,174 L 19,169 L 26,174 L 36,165 L 32,108 L 24,105 L 20,107 L 8,100 L 0,104 Z M 23,149 L 24,116 L 29,114 L 34,161 L 29,163 L 23,149 Z" fill="#383A5D" id="id-101152" fill-rule="nonzero"></path><polygon points="29 121 27 117 25 121 28 124" fill="#E1E31C" id="id-101134"></polygon><polygon points="27 128 30 132 28 136 25 132" fill="#ED1E24" id="id-101134"></polygon><polygon points="28 141 25 146 28 150 31 145" fill="#BD59A2" id="id-101134"></polygon><path d=" M 0,104 C 0,104 0,105 0,106 L 4,143 C 10,145 25,151 28,172 L 36,165 L 32,109 L 24,105 L 20,107 L 8,100 L 0,104 Z M 23,149 L 24,116 L 29,114 L 34,161 L 29,163 L 23,149 Z" fill="#5D5E85" id="id-101152" fill-rule="nonzero"></path><path d=" M 19,113 L 17,150 L 19,152 L 21,113 L 32,108 L 26,104 L 20,107 L 8,100 L 0,104 L 0,106 C 5,107 18,109 19,113 Z" fill="#B2BDD8" id="id-101134"></path><polygon points="0 104 20 109 28 105 26 104 20 107 8 100" fill="#9792B2" id="id-101134"></polygon><path d=" M 196,47 L 203,39 L 205,57 L 190,83 C 190,83 197,57 196,47 Z" fill="#85CA9C" id="id-101134"></path></g></g><defs></defs><path d=" M 1202,1685 C 1201,1683 1198,1681 1197,1679 C 1196,1678 1196,1676 1196,1675 C 1196,1674 1194,1672 1193,1671 C 1193,1670 1192,1669 1192,1668 C 1192,1667 1195,1666 1196,1665 C 1198,1663 1200,1661 1202,1658 C 1207,1649 1216,1643 1226,1641 C 1240,1638 1254,1644 1263,1655 C 1264,1657 1266,1660 1265,1663 C 1265,1664 1263,1665 1263,1666 C 1263,1667 1265,1669 1266,1670 C 1271,1673 1269,1673 1270,1678 C 1270,1682 1274,1681 1274,1685 L 1274,1685 L 1274,1686 C 1274,1686 1274,1686 1274,1686 C 1273,1688 1271,1688 1270,1689 C 1268,1691 1267,1692 1266,1694 C 1263,1698 1261,1700 1258,1704 C 1242,1719 1214,1716 1202,1696 C 1201,1695 1199,1691 1200,1689 C 1201,1688 1202,1688 1202,1685 L 1202,1685 Z M 1268,1685 C 1267,1682 1265,1682 1264,1679 C 1264,1678 1264,1677 1264,1676 C 1264,1675 1264,1674 1264,1674 C 1264,1673 1263,1672 1262,1672 C 1260,1670 1256,1669 1258,1665 C 1259,1662 1261,1662 1258,1658 C 1246,1643 1223,1641 1210,1656 C 1209,1658 1208,1659 1207,1661 C 1205,1663 1202,1665 1200,1667 C 1197,1669 1197,1669 1200,1671 C 1203,1675 1201,1676 1203,1679 C 1204,1681 1207,1682 1208,1685 L 1208,1685 L 1208,1685 C 1207,1690 1203,1688 1207,1694 C 1216,1706 1232,1711 1246,1705 C 1249,1704 1252,1702 1255,1699 C 1257,1697 1259,1694 1261,1691 C 1263,1689 1267,1687 1268,1685 L 1268,1685 Z M 1254,1685 C 1254,1682 1252,1682 1252,1680 C 1251,1677 1251,1673 1255,1674 C 1258,1675 1256,1678 1258,1680 C 1259,1682 1260,1682 1260,1685 L 1261,1686 L 1260,1686 C 1259,1688 1257,1689 1255,1690 C 1248,1694 1246,1699 1237,1700 C 1231,1701 1225,1700 1221,1697 C 1219,1696 1216,1694 1215,1692 C 1213,1689 1216,1688 1216,1685 C 1215,1683 1212,1682 1211,1680 C 1208,1677 1210,1673 1214,1674 L 1214,1674 L 1215,1675 C 1216,1678 1215,1679 1217,1681 C 1219,1682 1222,1683 1222,1686 C 1222,1689 1220,1690 1224,1692 C 1230,1696 1238,1695 1244,1691 C 1246,1690 1253,1687 1254,1685 L 1254,1685 Z M 1244,1674 C 1242,1675 1239,1674 1237,1673 C 1236,1672 1233,1670 1232,1669 C 1231,1669 1231,1668 1231,1667 C 1231,1666 1233,1665 1234,1664 C 1235,1662 1237,1661 1238,1659 C 1242,1652 1249,1658 1247,1663 C 1246,1665 1243,1666 1243,1668 C 1243,1670 1246,1671 1244,1674 L 1244,1674 L 1244,1674 L 1244,1674 Z M 1222,1656 C 1224,1655 1227,1656 1228,1659 C 1229,1660 1229,1661 1229,1663 C 1228,1665 1223,1666 1225,1669 C 1225,1670 1226,1670 1226,1671 C 1227,1674 1226,1675 1223,1675 C 1222,1675 1219,1673 1218,1672 C 1216,1671 1212,1669 1214,1666 C 1215,1664 1217,1664 1218,1662 C 1219,1660 1220,1658 1222,1656 L 1222,1656 Z" fill="#343D53" opacity="0.297" id="id-77051"></path></svg>