<?xml version="1.0" encoding="UTF-8"?><svg width="1320px" height="1760px" viewBox="0 0 1320 1760" version="1.1" xmlns="http://www.w3.org/2000/svg" xmlns:xlink="http://www.w3.org/1999/xlink"><defs></defs><g stroke="none" stroke-width="1" fill="none" id="id-31678" fill-rule="evenodd"><g id="id-31679"><rect fill="#F7EBEB" width="1320" height="1760" x="0" y="0" id="id-31680"></rect><g transform=" translate(0,0)" fill="#E6D6D6" id="id-31681"><path d=" M 264,1760 C 112,1560 129,1276 427,1129 C 794,948 1066,954 1320,1001 L 1320,1760 C 616,1760 264,1760 264,1760 Z" id="id-31682"></path><path d=" M 124,1577 C 130,1650 151,1712 192,1760 C 192,1760 233,1760 233,1760 C 200,1735 178,1693 157,1664 C 145,1632 131,1611 127,1572 L 124,1577 Z" id="id-31683"></path><path d=" M 169,1760 C 153,1760 144,1760 144,1760 C 93,1650 77,1508 116,1409 C 100,1550 119,1666 169,1760 Z" id="id-31684"></path><path d=" M 135,1760 C 133,1760 130,1760 130,1760 C -8,1569 -25,1378 189,1192 C 347,1060 622,974 827,882 C 819,907 820,917 831,914 C 844,908 857,892 867,865 C 1088,774 1236,708 1320,606 C 1320,654 1320,678 1320,678 C 1244,751 1153,820 1028,879 C 1021,893 1020,905 1022,914 C 1112,931 1246,918 1320,859 C 1320,930 1320,966 1320,966 C 1213,922 1075,915 903,950 C 844,998 815,1022 815,1022 C 838,998 849,978 847,963 C 547,1038 325,1133 209,1251 C 27,1417 44,1630 135,1760 Z" id="id-31682"></path><path d=" M 1320,562 C 1210,660 1020,740 791,809 C 396,928 127,1069 0,1356 C 0,1173 0,1081 0,1081 C 4,1073 6,1069 6,1069 C 75,989 280,815 211,736 C 162,700 55,747 0,790 L 0,748 C 103,706 216,701 330,706 C 342,740 341,771 317,797 C 353,762 352,735 353,708 C 468,720 583,751 726,738 C 773,696 797,675 797,675 C 743,744 717,779 717,779 C 761,747 783,731 783,731 C 807,727 834,721 867,712 C 979,641 1036,539 1036,421 C 1034,342 1018,266 986,193 C 956,139 891,63 821,0 L 894,0 C 975,102 1034,192 1047,311 C 1050,404 1043,499 1007,597 C 995,624 1005,646 1021,656 C 1137,596 1233,523 1287,422 C 1275,470 1259,517 1232,562 C 1264,525 1298,493 1320,422 L 1320,562 Z" opacity="0.888" id="id-31682"></path><path d=" M 909,0 L 990,115 L 940,0 C 919,0 909,0 909,0 Z" id="id-31687"></path><polygon points="0 1653 0 1760 67 1760" id="id-31688"></polygon><path d=" M 790,834 L 810,825 C 770,853 742,870 686,895 C 606,921 515,956 433,997 C 490,952 540,930 623,897 C 683,875 739,854 790,834 Z" id="id-31689"></path><path d=" M 850,810 C 791,856 762,878 762,878 L 832,850 C 844,824 850,810 850,810 Z" id="id-31690"></path></g></g></g><defs><linearGradient x1="50%" y1="32%" x2="50%" y2="45%" id="id-73837"><stop stop-color="#790227" offset="0%"></stop><stop stop-color="#410018" offset="100%"></stop></linearGradient></defs><path d=" M 570,479 C 564,493 562,521 564,563 L 530,549 L 525,487 C 535,461 547,446 561,444 C 558,441 557,439 558,437 C 547,436 533,449 515,474 C 511,472 505,471 497,472 C 498,446 502,424 510,406 C 508,404 507,399 508,393 L 548,374 C 552,377 556,379 561,380 C 565,373 572,373 582,379 L 589,372 C 563,369 544,358 533,340 C 544,321 558,305 574,294 L 601,304 L 621,340 L 634,337 C 623,326 616,318 611,314 C 615,299 622,284 634,270 L 691,334 L 714,349 L 724,311 C 740,306 757,307 773,313 C 781,325 787,334 781,343 C 771,356 755,366 732,372 L 749,384 L 777,363 C 796,375 810,390 820,406 C 816,410 820,461 818,478 C 813,483 803,484 787,482 L 766,436 L 740,419 L 742,429 L 769,452 L 792,481 L 797,529 L 781,571 L 762,570 L 753,509 L 758,480 L 740,516 L 740,544 L 732,558 L 732,579 L 695,592 L 614,592 L 605,582 L 598,588 L 577,575 L 585,542 L 574,529 L 582,509 C 575,488 571,478 570,479 Z" fill="url(#id-73837)" id="id-73838"></path><defs><linearGradient x1="100%" y1="46%" x2="12%" y2="47%" id="id-74155"><stop stop-color="#723722" offset="0%"></stop><stop stop-color="#96513B" offset="21%"></stop><stop stop-color="#9A6555" offset="46%"></stop><stop stop-color="#9F5E49" offset="80%"></stop><stop stop-color="#93523A" offset="100%"></stop></linearGradient><linearGradient x1="53%" y1="81%" x2="50%" y2="21%" id="id-74156"><stop stop-color="#7B3F37" offset="0%"></stop><stop stop-color="#7D4538" offset="24%"></stop><stop stop-color="#834B33" offset="100%"></stop></linearGradient><linearGradient x1="52%" y1="-4%" x2="46%" y2="70%" id="id-74157"><stop stop-color="#834239" offset="0%"></stop><stop stop-color="#5C3029" offset="100%"></stop></linearGradient><linearGradient x1="46%" y1="43%" x2="15%" y2="43%" id="id-74158"><stop stop-color="#924833" offset="0%"></stop><stop stop-color="#683011" offset="100%"></stop></linearGradient><linearGradient x1="54%" y1="37%" x2="12%" y2="72%" id="id-74159"><stop stop-color="#1E0404" offset="0%"></stop><stop stop-color="#34100E" offset="100%"></stop></linearGradient><linearGradient x1="40%" y1="14%" x2="61%" y2="85%" id="id-74160"><stop stop-color="#461A1F" offset="0%"></stop><stop stop-color="#5B2F2C" offset="100%"></stop></linearGradient><linearGradient x1="27%" y1="47%" x2="91%" y2="49%" id="id-74161"><stop stop-color="#784730" offset="0%"></stop><stop stop-color="#BE8BC7" offset="100%"></stop></linearGradient><linearGradient x1="47%" y1="60%" x2="49%" y2="79%" id="id-74162"><stop stop-color="#7F4235" offset="0%"></stop><stop stop-color="#894241" offset="60%"></stop><stop stop-color="#9B595A" offset="100%"></stop></linearGradient><linearGradient x1="29%" y1="56%" x2="69%" y2="53%" id="id-74163"><stop stop-color="#804733" offset="0%"></stop><stop stop-color="#743A2C" offset="8%"></stop><stop stop-color="#7C3D34" offset="18%"></stop><stop stop-color="#5D2920" offset="38%"></stop><stop stop-color="#5B2725" offset="65%"></stop><stop stop-color="#7E4037" offset="81%"></stop><stop stop-color="#4C1B1F" offset="100%"></stop></linearGradient><linearGradient x1="47%" y1="45%" x2="54%" y2="46%" id="id-74164"><stop stop-color="#7A3932" offset="0%"></stop><stop stop-color="#763B2F" offset="62%"></stop><stop stop-color="#5F2C1F" offset="77%"></stop><stop stop-color="#794634" offset="100%"></stop></linearGradient><linearGradient x1="51%" y1="7%" x2="50%" y2="100%" id="id-74165"><stop stop-color="#763D2D" offset="0%"></stop><stop stop-color="#914E49" offset="75%"></stop><stop stop-color="#7B3C3B" offset="100%"></stop></linearGradient><linearGradient x1="51%" y1="11%" x2="49%" y2="93%" id="id-74166"><stop stop-color="#87523F" offset="0%"></stop><stop stop-color="#80482F" offset="73%"></stop><stop stop-color="#865037" offset="100%"></stop></linearGradient><linearGradient x1="51%" y1="-5%" x2="48%" y2="96%" id="id-74167"><stop stop-color="#7D452E" offset="0%"></stop><stop stop-color="#6C3821" offset="100%"></stop></linearGradient><linearGradient x1="50%" y1="19%" x2="50%" y2="69%" id="id-74168"><stop stop-color="#50260A" offset="0%"></stop><stop stop-color="#291000" offset="45%"></stop><stop stop-color="#4C2106" offset="100%"></stop></linearGradient><linearGradient x1="46%" y1="74%" x2="39%" y2="35%" id="id-74169"><stop stop-color="#492117" offset="0%"></stop><stop stop-color="#64311E" offset="51%"></stop><stop stop-color="#713121" offset="100%"></stop></linearGradient><linearGradient x1="46%" y1="16%" x2="49%" y2="82%" id="id-74170"><stop stop-color="#512416" offset="0%" stop-opacity="0.186"></stop><stop stop-color="#482015" offset="100%"></stop></linearGradient><linearGradient x1="41%" y1="19%" x2="50%" y2="100%" id="id-74171"><stop stop-color="#5B2725" offset="0%"></stop><stop stop-color="#50260A" offset="100%"></stop></linearGradient><linearGradient x1="50%" y1="31%" x2="45%" y2="50%" id="id-74172"><stop stop-color="#68361D" offset="0%"></stop><stop stop-color="#894C43" offset="100%"></stop></linearGradient><linearGradient x1="51%" y1="22%" x2="50%" y2="100%" id="id-74173"><stop stop-color="#5D2126" offset="0%"></stop><stop stop-color="#4F1C21" offset="100%"></stop></linearGradient><linearGradient x1="49%" y1="0%" x2="50%" y2="100%" id="id-74174"><stop stop-color="#7A3F2E" offset="0%"></stop><stop stop-color="#793F35" offset="100%"></stop></linearGradient><linearGradient x1="44%" y1="15%" x2="50%" y2="100%" id="id-74175"><stop stop-color="#5B2C1F" offset="0%"></stop><stop stop-color="#50281D" offset="100%"></stop></linearGradient><linearGradient x1="52%" y1="21%" x2="49%" y2="83%" id="id-74176"><stop stop-color="#7F4534" offset="0%"></stop><stop stop-color="#975549" offset="48%"></stop><stop stop-color="#83453F" offset="100%"></stop></linearGradient><linearGradient x1="85%" y1="60%" x2="15%" y2="60%" id="id-74177"><stop stop-color="#864A32" offset="0%"></stop><stop stop-color="#5D2A11" offset="100%"></stop></linearGradient><linearGradient x1="48%" y1="-20%" x2="59%" y2="91%" id="id-74178"><stop stop-color="#96533C" offset="0%"></stop><stop stop-color="#5D2C12" offset="60%"></stop><stop stop-color="#643418" offset="72%"></stop><stop stop-color="#743E24" offset="100%"></stop></linearGradient><linearGradient x1="55%" y1="48%" x2="46%" y2="33%" id="id-74179"><stop stop-color="#743F2A" offset="0%"></stop><stop stop-color="#7E462E" offset="86%"></stop><stop stop-color="#764228" offset="100%"></stop></linearGradient><linearGradient x1="50%" y1="19%" x2="50%" y2="78%" id="id-74180"><stop stop-color="#401900" offset="0%"></stop><stop stop-color="#522003" offset="50%"></stop><stop stop-color="#371900" offset="100%"></stop></linearGradient><linearGradient x1="50%" y1="10%" x2="50%" y2="43%" id="id-74181"><stop stop-color="#85462C" offset="0%"></stop><stop stop-color="#602C13" offset="15%"></stop><stop stop-color="#652D15" offset="68%"></stop><stop stop-color="#592A10" offset="100%"></stop></linearGradient><linearGradient x1="89%" y1="50%" x2="9%" y2="52%" id="id-74182"><stop stop-color="#401D02" offset="0%"></stop><stop stop-color="#995734" offset="53%" stop-opacity="0.199"></stop><stop stop-color="#5A2A10" offset="75%"></stop><stop stop-color="#411900" offset="100%"></stop></linearGradient><linearGradient x1="44%" y1="70%" x2="86%" y2="30%" id="id-74183"><stop stop-color="#9A5741" offset="0%"></stop><stop stop-color="#9C6A5F" offset="100%"></stop></linearGradient><linearGradient x1="19%" y1="86%" x2="73%" y2="32%" id="id-74184"><stop stop-color="#703010" offset="0%"></stop><stop stop-color="#A66353" offset="40%"></stop><stop stop-color="#AE745F" offset="100%"></stop></linearGradient><linearGradient x1="35%" y1="94%" x2="47%" y2="12%" id="id-74185"><stop stop-color="#723C23" offset="0%"></stop><stop stop-color="#966556" offset="40%"></stop><stop stop-color="#AC715D" offset="46%"></stop><stop stop-color="#A36655" offset="100%"></stop></linearGradient><linearGradient x1="50%" y1="54%" x2="27%" y2="9%" id="id-74186"><stop stop-color="#DDAB90" offset="0%"></stop><stop stop-color="#DDAB90" offset="100%" stop-opacity="0.078"></stop></linearGradient><linearGradient x1="20%" y1="36%" x2="93%" y2="69%" id="id-74187"><stop stop-color="#A36150" offset="0%"></stop><stop stop-color="#9D604E" offset="70%"></stop><stop stop-color="#803A19" offset="100%"></stop></linearGradient><linearGradient x1="36%" y1="84%" x2="25%" y2="44%" id="id-74188"><stop stop-color="#663D38" offset="0%" stop-opacity="0.509"></stop><stop stop-color="#57260A" offset="35%" stop-opacity="0.675"></stop><stop stop-color="#763217" offset="100%" stop-opacity="0"></stop></linearGradient><linearGradient x1="63%" y1="95%" x2="43%" y2="20%" id="id-74189"><stop stop-color="#7C3C2B" offset="0%"></stop><stop stop-color="#8A4B32" offset="46%"></stop><stop stop-color="#88452F" offset="100%"></stop></linearGradient><linearGradient x1="40%" y1="0%" x2="50%" y2="86%" id="id-74190"><stop stop-color="#804025" offset="0%"></stop><stop stop-color="#955542" offset="100%"></stop></linearGradient><linearGradient x1="50%" y1="0%" x2="50%" y2="92%" id="id-74191"><stop stop-color="#B56F5E" offset="0%"></stop><stop stop-color="#8B4E35" offset="100%"></stop></linearGradient><linearGradient x1="33%" y1="79%" x2="21%" y2="44%" id="id-74192"><stop stop-color="#936354" offset="0%"></stop><stop stop-color="#633117" offset="28%"></stop><stop stop-color="#763C17" offset="100%" stop-opacity="0"></stop></linearGradient><linearGradient x1="4%" y1="47%" x2="92%" y2="45%" id="id-74193"><stop stop-color="#391108" offset="0%"></stop><stop stop-color="#501A0F" offset="17%" stop-opacity="0.753"></stop><stop stop-color="#6B3127" offset="48%" stop-opacity="0.386"></stop><stop stop-color="#4A1C15" offset="78%" stop-opacity="0.762"></stop><stop stop-color="#411610" offset="100%"></stop></linearGradient><linearGradient x1="60%" y1="45%" x2="67%" y2="53%" id="id-74194"><stop stop-color="#A3716E" offset="0%"></stop><stop stop-color="#CB93A9" offset="100%"></stop></linearGradient><linearGradient x1="48%" y1="15%" x2="54%" y2="81%" id="id-74195"><stop stop-color="#8C4A35" offset="0%"></stop><stop stop-color="#965850" offset="100%"></stop></linearGradient><linearGradient x1="47%" y1="44%" x2="50%" y2="61%" id="id-74196"><stop stop-color="#3E0D06" offset="0%" stop-opacity="0.175"></stop><stop stop-color="#33100B" offset="100%"></stop></linearGradient><linearGradient x1="26%" y1="-7%" x2="50%" y2="96%" id="id-74197"><stop stop-color="#37373F" offset="0%"></stop><stop stop-color="#19191D" offset="100%"></stop></linearGradient><linearGradient x1="50%" y1="12%" x2="59%" y2="82%" id="id-74198"><stop stop-color="#252525" offset="0%"></stop><stop stop-color="#101010" offset="100%"></stop></linearGradient><linearGradient x1="25%" y1="-16%" x2="50%" y2="98%" id="id-74199"><stop stop-color="#37373F" offset="0%"></stop><stop stop-color="#19191D" offset="100%"></stop></linearGradient><linearGradient x1="75%" y1="39%" x2="50%" y2="93%" id="id-74200"><stop stop-color="#252525" offset="0%"></stop><stop stop-color="#000000" offset="100%"></stop></linearGradient></defs><g transform=" translate(334,549)" id="id-74201"><polygon points="561 754 565 871 565 881 537 893 533 897 535 901 532 909 543 910 597 864" fill="#451F04" id="id-74202"></polygon><polygon points="537 282 539 246 535 195 529 158 522 137 484 118 440 111 212 111 188 113 157 123 121 139 111 186 108 221 109 290" fill="url(#id-74155)" id="id-74202"></polygon><polygon points="467 393 474 506 503 589 537 672 556 728 561 754 546 794 552 851 551 861 552 874 556 885 567 882 568 866 570 860 570 843 571 834 576 843 576 859 579 864 573 874 571 884 544 903 541 916 582 901 597 864 607 852 600 821 597 716 589 695 582 655 569 523 544 425" fill="url(#id-74156)" id="id-74202"></polygon><polygon points="546 794 552 851 551 861 552 874 556 885 567 882 568 866 570 860 570 843 571 834 576 843 576 859 579 864 573 874 571 884 544 903 541 916 582 901 597 864 583 871 588 855 573 815 561 823" fill="url(#id-74157)" id="id-74202"></polygon><polygon points="552 851 551 861 552 874 556 887 567 884 568 866 570 860 558 860" fill="#552B28" id="id-74202"></polygon><polygon points="544 906 541 916 582 901 571 889" fill="#512926" id="id-74202"></polygon><polygon points="561 754 548 789 566 819 586 806" fill="#66342D" id="id-74202"></polygon><polygon points="486 648 477 599 453 529 440 504 437 490 439 460 449 402 456 340 188 343 198 411 202 493 162 596 153 638 266 693 319 721 386 693" fill="url(#id-74158)" id="id-74202"></polygon><polygon points="486 648 477 599 453 529 440 504 437 490 439 460 449 402 456 340 296 353 376 634" fill="#804025" id="id-74202"></polygon><g transform=" translate(188,0)" id="id-74211"><polygon points="274 114 253 111 232 100 201 76 188 58 184 1 93 1 88 64 25 111 1 113 103 123 121 135 134 138 149 121 161 117 187 119 225 114" fill="#83442E" id="id-74202"></polygon><polygon points="201 76 188 58 185 12 175 57 155 111 185 73" fill="#A06E95" id="id-74202"></polygon><polygon points="149 1 93 1 88 64 108 126 121 135 133 138" fill="#6E361F" id="id-74202"></polygon><polygon points="116 102 120 113 118 115 136 135 150 119 164 71 125 108" fill="#5A2F17" id="id-74215"></polygon><polygon points="121 127 133 138 145 124" fill="#431903" id="id-74216"></polygon><polygon points="136 98 164 71 175 57 186 17 134 51" fill="#68291C" id="id-74217"></polygon><polygon points="97 96 116 80 164 60 178 48 186 17 184 1 93 1 88 64 45 96" fill="#5E2519" opacity="0.654" id="id-74202"></polygon><polygon points="186 17 184 1 93 1 88 64 45 96 66 96" fill="url(#id-74159)" opacity="0.467" id="id-74202"></polygon><polygon points="123 58 176 23 186 17 184 1 93 1 91 22 108 55" fill="#1E0404" opacity="0.434" id="id-74202"></polygon></g><polygon points="41 844 33 856 36 895 64 915 84 911 83 903 71 898 72 892 63 884 52 849" fill="url(#id-74160)" id="id-74202"></polygon><polygon points="315 152 285 173 320 188 357 166" fill="#AA6D58" id="id-74222"></polygon><polygon points="327 150 370 130 342 127" fill="#7D452B" id="id-74223"></polygon><polygon points="301 142 303 148 243 131 240 119 276 119" fill="#7B442B" id="id-74224"></polygon><polygon points="159 149 206 123 269 123 303 144 297 118 188 113 157 123 121 139" fill="url(#id-74161)" id="id-74202"></polygon><polygon points="157 123 121 139 153 167 196 134" fill="#BE8CA3" id="id-74202"></polygon><polygon points="89 584 77 541 62 551 45 658 34 712 25 741 25 762 10 817 0 845 14 870 25 901 58 919 72 919 69 913 61 905 50 899 37 874 37 852 43 845 52 855 50 887 56 901 64 905 66 901 66 882 72 836 72 800 69 781 64 773 66 735 85 684 121 599 162 510" fill="url(#id-74162)" id="id-74202"></polygon><polygon points="89 584 77 541 62 551 45 658 48 715 121 599 162 510" fill="#7A432A" id="id-74202"></polygon><polygon points="55 843 45 827 37 848 17 852 8 836 5 851 0 845 14 870 25 901 58 919 72 919 69 913 61 905 50 899 37 874 37 852 43 845 52 855 50 887 56 901 64 905 66 901 66 882 72 836" fill="#743E32" id="id-74202"></polygon><polygon points="53 882 52 892 56 901 64 905 66 901 66 882 67 876" fill="#6B362F" id="id-74202"></polygon><polygon points="25 901 58 919 72 919 62 909 37 895" fill="#6B362F" id="id-74202"></polygon><polygon points="160 467 145 488 108 578 45 777 48 797 64 773 66 735 85 684 121 599 162 510" fill="#643317" id="id-74202"></polygon><polygon points="169 1211 277 1211 282 1183 281 1150 284 1127 286 1114 285 1063 293 972 306 866 311 792 309 768 323 771 337 768 333 817 333 855 339 924 346 1008 348 1113 351 1130 353 1176 361 1211 461 1211 458 1191 456 1170 460 1133 461 1082 505 905 516 839 518 826 512 762 503 706 486 648 482 629 386 690 318 718 266 690 184 629 153 637 132 731 119 781 118 813 123 862 131 916 166 1094 176 1179" fill="url(#id-74163)" id="id-74202"></polygon><polygon points="463 664 416 771 400 819 392 1125 359 1178 398 1204 441 1153 461 1082 505 905 516 839 518 826 515 789 490 714" fill="url(#id-74164)" id="id-74202"></polygon><polygon points="422 1160 395 1199 365 1171 401 1149 384 1120 391 983 411 786 416 771 448 697 454 1013 445 1116 407 1149" fill="url(#id-74165)" id="id-74235"></polygon><polygon points="121 139 111 186 108 221 109 290 96 438 89 464 69 510 89 585 162 510 167 425 162 241" fill="url(#id-74166)" id="id-74202"></polygon><polygon points="101 466 103 488 106 510 160 447 179 359 164 232 187 184 186 179 132 181 161 234 161 321 149 376 151 384 123 461 114 466" fill="url(#id-74167)" id="id-74237"></polygon><polygon points="96 438 89 464 69 510 51 621 101 520 96 476" fill="#82566B" id="id-74202"></polygon><polygon points="96 451 128 365 134 316 121 139 111 186 108 221 109 290 96 438" fill="#643317" id="id-74202"></polygon><polygon points="184 241 177 248 162 225 138 289 161 321 170 375 161 420 151 411 162 510 167 425 188 343" fill="url(#id-74168)" id="id-74202"></polygon><polygon points="284 1127 286 1114 285 1063 293 972 306 866 311 792 309 768 323 771 337 768 333 817 333 855 339 924 346 1008 375 889 416 771 463 664 490 714 515 790 512 762 503 706 486 648 477 599 471 583 420 650 316 720 201 654 244 742 264 824 275 994" fill="url(#id-74169)" id="id-74202"></polygon><polygon points="298 930 306 866 311 792 309 768 323 771 337 768 333 817 333 855 336 894 347 826 360 784 378 733 388 687 321 739 254 687 267 736 291 821" fill="url(#id-74170)" id="id-74202"></polygon><polygon points="348 1093 348 1113 351 1130 353 1176 361 1211 461 1211 439 1155 422 1136 403 1148 429 1168 400 1202 370 1170 382 1125" fill="url(#id-74171)" id="id-74202"></polygon><polygon points="10 855 8 836 5 851 0 845 14 870" fill="#6D342E" id="id-74202"></polygon><polygon points="520 500 516 520 544 629 474 500 490 399" fill="url(#id-74172)" id="id-74245"></polygon><polygon points="461 1211 458 1191 456 1170 460 1133 461 1082 439 1155 450 1211" fill="url(#id-74173)" id="id-74202"></polygon><polygon points="220 1149 259 1115 240 1063 232 973 266 819 240 713 201 661 158 650 201 784 183 925 170 1083" fill="url(#id-74174)" id="id-74247"></polygon><polygon points="169 1211 277 1211 282 1183 281 1150 284 1127 286 1114 286 1098 226 1211 207 1211 196 1121 173 1078 150 1014 166 1094 176 1179" fill="url(#id-74175)" id="id-74202"></polygon><polygon points="173 1078 183 924 150 1014" fill="#6B352C" id="id-74202"></polygon><polygon points="169 1211 239 1211 230 1196 204 1175 173 1150 176 1179" fill="#521E24" opacity="0.574" id="id-74202"></polygon><polygon points="221 1130 240 1097 224 1063 224 983 240 804 217 698 190 668 212 771 212 910 190 998 181 1094" fill="url(#id-74176)" id="id-74247"></polygon><polygon points="217 795 221 692 200 667 169 658 200 737" fill="#9C5F46" id="id-74252"></polygon><polygon points="511 476 492 419 481 447 484 356 521 274 533 417" fill="url(#id-74177)" id="id-74253"></polygon><polygon points="569 523 544 425 542 346 537 282 539 246 535 195 529 158 522 137 494 161 419 158 471 211 516 290 525 411 511 477 518 507 535 462 562 543" fill="url(#id-74178)" id="id-74202"></polygon><polygon points="486 389 533 243 501 167 464 207 451 247 463 265" fill="url(#id-74179)" id="id-74255"></polygon><polygon points="473 490 474 506 503 589 537 672 556 728 561 754 567 712 543 623" fill="#582A0F" id="id-74202"></polygon><polygon points="460 328 466 378 474 506 490 425 486 392 469 274 479 230 461 260 454 251" fill="url(#id-74180)" id="id-74202"></polygon><polygon points="440 504 437 490 439 460 449 402 456 340 458 328 325 282 188 343 198 411 202 493 162 596 157 621 161 633 169 599 173 570 204 506 202 458 217 402 286 365 321 352 353 360 422 402 431 493 437 520" fill="url(#id-74181)" id="id-74202"></polygon><polygon points="451 385 456 340 458 328 364 340 330 308 268 343 188 343 194 379 262 368 312 343 335 340 381 368" fill="url(#id-74182)" id="id-74202"></polygon><polygon points="286 328 306 310 330 274 453 252 464 205 421 156 317 204 219 165 210 154 188 180" fill="url(#id-74183)" id="id-74260"></polygon><path d=" M 422,195 L 405,190 C 377,190 357,198 343,214 C 329,230 322,250 323,276 C 324,301 331,320 345,333 C 365,351 384,356 405,356 C 425,356 444,347 450,342 C 454,339 457,335 460,328 C 463,323 466,317 467,308 C 469,294 466,276 457,254 L 422,195 Z" fill="url(#id-74184)" id="id-74261"></path><path d=" M 422,195 L 417,175 C 386,188 366,196 358,201 C 355,203 351,206 348,208 C 348,209 381,253 448,342 C 454,338 459,332 463,324 C 469,310 469,301 469,293 C 469,287 465,275 459,257 L 422,195 Z" fill="url(#id-74185)" id="id-74261"></path><path d=" M 375,226 C 338,253 343,276 343,284 C 343,291 353,319 371,335 C 379,342 422,349 447,331 C 468,316 472,294 458,265 C 427,221 400,208 375,226 Z" fill="url(#id-74186)" opacity="0.282" id="id-74261"></path><path d=" M 272,205 C 260,199 243,200 221,209 C 187,227 169,258 168,303 C 167,319 184,342 190,346 C 197,351 212,356 239,353 C 257,351 272,344 284,333 C 303,312 312,288 309,260 C 305,217 291,214 272,205 Z" fill="url(#id-74187)" id="id-74264"></path><path d=" M 340,285 C 333,252 328,240 326,248 C 324,254 323,263 323,276 C 324,301 331,320 345,333 C 365,351 382,356 404,356 C 425,356 444,347 450,342 C 456,337 465,325 468,308 C 472,290 465,276 463,268 C 461,263 460,259 458,255 L 442,290 L 399,304 L 366,300 L 340,285 Z" fill="url(#id-74188)" id="id-74261"></path><path d=" M 153,637 L 149,654 L 132,731 L 130,739 C 133,730 135,723 137,718 C 140,709 147,691 149,680 C 151,671 155,655 161,633 L 172,570 L 162,596 L 153,637 Z" fill="#7D362E" id="id-74202"></path><path d=" M 259,203 C 254,199 240,185 217,163 L 210,153 L 186,180 C 192,211 192,231 186,239 C 175,256 168,277 168,303 C 168,324 190,352 239,344 C 252,342 274,217 259,203 Z" fill="#A36150" id="id-74264"></path><polygon points="175 565 203 550 234 558 241 520 203 455 203 507" fill="#5E2D13" id="id-74268"></polygon><polygon points="241 442 241 518 229 556 233 629 266 657 316 707 381 659 395 629 364 504 350 504 301 380" fill="url(#id-74189)" id="id-74269"></polygon><polygon points="432 626 427 589 407 518 414 505 450 568 470 618" fill="url(#id-74190)" id="id-74270"></polygon><polygon points="302 376 254 442 254 546 302 590 364 568 364 504 350 504 376 454 345 400" fill="url(#id-74191)" opacity="0.599" id="id-74269"></polygon><polygon points="317 480 342 436 319 413 300 447" fill="#874A31" id="id-74272"></polygon><polygon points="304 541 318 507 329 541 314 549" fill="#774029" id="id-74273"></polygon><polygon points="306 543 316 578 329 541" fill="#935F42" id="id-74274"></polygon><path d=" M 178,333 C 179,334 180,336 182,338 C 184,342 186,343 189,346 C 190,347 197,351 206,353 C 215,354 226,355 239,353 C 257,351 272,344 284,333 C 293,322 299,313 302,305 C 304,301 307,293 309,277 C 310,274 310,268 309,260 L 228,277 L 207,295 L 178,333 Z" fill="url(#id-74192)" id="id-74264"></path><polygon points="306 543 308 550 324 556 329 541" fill="#9E7261" id="id-74274"></polygon><polygon points="308 543 318 525 323 542 314 548" fill="#3C1E03" id="id-74277"></polygon><polygon points="152 641 162 596 176 561 185 617 214 602 246 628 323 690 404 628 423 605 454 605 470 577 477 599 482 629 388 689 337 768 323 771 309 768 259 688 175 639 142 688" fill="url(#id-74193)" opacity="0.442" id="id-74278"></polygon><polygon points="490 154 522 137 484 118 412 123" fill="url(#id-74194)" id="id-74202"></polygon><polygon points="573 785 588 829 602 858 607 852 600 821 597 716 576 763" fill="#8E4D48" id="id-74202"></polygon><polygon points="574 722 589 695 582 655 533 542" fill="url(#id-74195)" id="id-74202"></polygon><polygon points="172 640 241 690 309 768 323 771 338 768 395 706 469 661 404 650 313 706 217 629" fill="url(#id-74196)" opacity="0.571" id="id-74282"></polygon><g transform=" translate(188,270)" id="id-74283"><polygon points="207 13 207 10 217 2 220 2 239 21 258 39 260 42 250 51 246 52 226 33" fill="url(#id-74197)" id="id-74284"></polygon><polygon points="208 40 218 50 222 50 240 33 257 13 257 9 247 0 244 1 230 19 209 36" fill="url(#id-74198)" id="id-74285"></polygon><polygon points="1 13 1 10 10 2 15 2 32 21 50 39 52 42 42 52 38 52 19 33" fill="url(#id-74199)" id="id-74284"></polygon><polygon points="0 43 10 53 14 53 33 35 50 15 50 11 40 3 36 4 19 23 1 39" fill="url(#id-74200)" id="id-74285"></polygon></g></g><defs><linearGradient x1="50%" y1="0%" x2="50%" y2="85%" id="id-74953"><stop stop-color="#874639" offset="0%"></stop><stop stop-color="#4D2322" offset="100%"></stop></linearGradient><radialGradient cx="50%" cy="55%" r="91%" id="id-74954" fx="50%" fy="55%" gradientTransform=" translate(0.500,0.550) scale(1,0.697) rotate(-90) scale(1,0.712) translate(-0.500,-0.550)"><stop stop-color="#A3513A" offset="0%"></stop><stop stop-color="#C87359" offset="39%"></stop><stop stop-color="#291013" offset="100%"></stop></radialGradient><linearGradient x1="11%" y1="60%" x2="57%" y2="52%" id="id-74955"><stop stop-color="#944831" offset="0%"></stop><stop stop-color="#B46750" offset="48%"></stop><stop stop-color="#D27D60" offset="100%"></stop></linearGradient><linearGradient x1="46%" y1="46%" x2="22%" y2="61%" id="id-74956"><stop stop-color="#A0543D" offset="0%"></stop><stop stop-color="#642D27" offset="100%"></stop></linearGradient><linearGradient x1="48%" y1="50%" x2="57%" y2="65%" id="id-74957"><stop stop-color="#A55643" offset="0%"></stop><stop stop-color="#66342F" offset="100%"></stop></linearGradient><linearGradient x1="100%" y1="38%" x2="17%" y2="50%" id="id-74958"><stop stop-color="#CB7B65" offset="0%"></stop><stop stop-color="#AE6452" offset="100%"></stop></linearGradient><linearGradient x1="47%" y1="27%" x2="48%" y2="50%" id="id-74959"><stop stop-color="#532D32" offset="0%"></stop><stop stop-color="#794968" offset="100%"></stop></linearGradient><radialGradient cx="47%" cy="70%" r="97%" id="id-74960" fx="47%" fy="70%" gradientTransform=" translate(0.467,0.700) scale(0.592,1) rotate(-93) translate(-0.467,-0.700)"><stop stop-color="#D17F6C" offset="0%"></stop><stop stop-color="#622923" offset="100%"></stop></radialGradient><linearGradient x1="42%" y1="43%" x2="61%" y2="33%" id="id-74961"><stop stop-color="#783A36" offset="0%"></stop><stop stop-color="#632F2B" offset="100%"></stop></linearGradient><radialGradient cx="45%" cy="79%" r="81%" id="id-74962" fx="45%" fy="79%" gradientTransform=" translate(0.447,0.790) scale(0.833,1) rotate(-90) scale(1,1) translate(-0.447,-0.790)"><stop stop-color="#F2A292" offset="0%"></stop><stop stop-color="#93483D" offset="100%"></stop></radialGradient><linearGradient x1="58%" y1="0%" x2="20%" y2="89%" id="id-74963"><stop stop-color="#D48072" offset="0%" stop-opacity="0"></stop><stop stop-color="#E49281" offset="46%"></stop><stop stop-color="#F2A38F" offset="100%" stop-opacity="0.432"></stop></linearGradient><linearGradient x1="52%" y1="22%" x2="50%" y2="16%" id="id-74964"><stop stop-color="#A06DAA" offset="0%"></stop><stop stop-color="#A471B2" offset="100%" stop-opacity="0.398"></stop></linearGradient><radialGradient cx="45%" cy="76%" r="54%" id="id-74965" fx="45%" fy="76%" gradientTransform=" translate(0.455,0.761) scale(0.673,1) scale(1,0.612) translate(-0.455,-0.761)"><stop stop-color="#BC6D5A" offset="0%"></stop><stop stop-color="#974C3A" offset="100%"></stop></radialGradient><linearGradient x1="50%" y1="0%" x2="50%" y2="73%" id="id-74966"><stop stop-color="#D88873" offset="0%"></stop><stop stop-color="#B4624D" offset="100%"></stop></linearGradient><linearGradient x1="25%" y1="52%" x2="67%" y2="55%" id="id-74967"><stop stop-color="#D37B62" offset="0%"></stop><stop stop-color="#843C39" offset="100%"></stop></linearGradient><linearGradient x1="71%" y1="52%" x2="18%" y2="50%" id="id-74968"><stop stop-color="#994D39" offset="0%"></stop><stop stop-color="#5E2C26" offset="100%"></stop></linearGradient><linearGradient x1="94%" y1="63%" x2="50%" y2="63%" id="id-74969"><stop stop-color="#6F3D40" offset="0%"></stop><stop stop-color="#AD594C" offset="100%"></stop></linearGradient><linearGradient x1="50%" y1="0%" x2="50%" y2="84%" id="id-74970"><stop stop-color="#0B071E" offset="0%"></stop><stop stop-color="#3C2F7B" offset="100%"></stop></linearGradient><linearGradient x1="75%" y1="46%" x2="36%" y2="49%" id="id-74971"><stop stop-color="#772F2B" offset="0%"></stop><stop stop-color="#B35849" offset="46%"></stop><stop stop-color="#693027" offset="100%"></stop></linearGradient><linearGradient x1="50%" y1="0%" x2="50%" y2="84%" id="id-74972"><stop stop-color="#0B071E" offset="0%"></stop><stop stop-color="#3C2F7B" offset="100%"></stop></linearGradient><linearGradient x1="28%" y1="50%" x2="72%" y2="55%" id="id-74973"><stop stop-color="#4C1A19" offset="0%"></stop><stop stop-color="#692928" offset="100%"></stop></linearGradient><radialGradient cx="50%" cy="28%" r="98%" id="id-74974" fx="50%" fy="28%" gradientTransform=" translate(0.500,0.278) scale(0.259,1) rotate(90) scale(1,1) translate(-0.500,-0.278)"><stop stop-color="#DF6C71" offset="0%"></stop><stop stop-color="#9F504C" offset="100%"></stop></radialGradient><linearGradient x1="13%" y1="50%" x2="90%" y2="50%" id="id-74975"><stop stop-color="#682929" offset="0%"></stop><stop stop-color="#B85454" offset="54%"></stop><stop stop-color="#833A38" offset="100%"></stop></linearGradient><radialGradient cx="48%" cy="82%" r="121%" id="id-74976" fx="48%" fy="82%" gradientTransform=" translate(0.483,0.816) scale(0.316,1) rotate(-95) translate(-0.483,-0.816)"><stop stop-color="#BA354F" offset="0%"></stop><stop stop-color="#592020" offset="100%"></stop></radialGradient><linearGradient x1="32%" y1="49%" x2="112%" y2="53%" id="id-74977"><stop stop-color="#F6B8CB" offset="0%"></stop><stop stop-color="#78272F" offset="100%"></stop></linearGradient><linearGradient x1="50%" y1="0%" x2="50%" y2="100%" id="id-74978"><stop stop-color="#693C4E" offset="0%"></stop><stop stop-color="#7A5771" offset="100%"></stop></linearGradient><linearGradient x1="50%" y1="0%" x2="50%" y2="100%" id="id-74979"><stop stop-color="#693C4E" offset="0%"></stop><stop stop-color="#7A5771" offset="100%"></stop></linearGradient><linearGradient x1="-8%" y1="57%" x2="25%" y2="53%" id="id-74980"><stop stop-color="#C06E59" offset="0%"></stop><stop stop-color="#4C2426" offset="100%"></stop></linearGradient><linearGradient x1="106%" y1="53%" x2="76%" y2="50%" id="id-74981"><stop stop-color="#C06F5A" offset="0%"></stop><stop stop-color="#401F21" offset="100%"></stop></linearGradient><linearGradient x1="81%" y1="45%" x2="17%" y2="63%" id="id-74982"><stop stop-color="#C86C4D" offset="0%"></stop><stop stop-color="#90452F" offset="100%"></stop></linearGradient><linearGradient x1="50%" y1="14%" x2="50%" y2="87%" id="id-74983"><stop stop-color="#D37E62" offset="0%"></stop><stop stop-color="#BE6540" offset="100%"></stop></linearGradient><linearGradient x1="50%" y1="29%" x2="50%" y2="100%" id="id-74984"><stop stop-color="#A4543F" offset="0%"></stop><stop stop-color="#602B28" offset="100%"></stop></linearGradient></defs><g transform=" translate(561,332)" id="id-74985"><g transform=" translate(172,115)" id="id-74986"><polygon points="14 1 18 0 25 8 27 21 24 41 14 66 0 68" fill="url(#id-74953)" id="id-74987"></polygon><polygon points="12 48 19 50 23 42 26 24 20 12 12 22" fill="#7D3F38" id="id-74988"></polygon><polygon points="11 21 17 10 20 5 24 7 26 24 20 36 18 31 20 16 9 29" fill="#632A21" id="id-74989"></polygon><polygon points="10 28 11 38 8 45 13 49 19 38 13 24" fill="#381717" id="id-74990"></polygon><polygon points="12 18 17 17 18 9" fill="#381717" id="id-74991"></polygon><polygon points="17 51 9 52 7 51 4 62 11 64 13 62" fill="#7C4337" id="id-74992"></polygon></g><g transform=" translate(0,113)" id="id-74993"><polygon points="13 0 5 0 0 13 4 36 13 63 25 67" fill="#9B4D38" id="id-74994"></polygon><polygon points="5 9 0 13 4 36 13 63 25 67 13 24" fill="#7D3F38" id="id-74994"></polygon><polygon points="18 46 14 47 7 32 11 26 4 9 6 5 16 20 17 29" fill="#632A21" id="id-74996"></polygon><polygon points="13 62 20 62 18 49 11 53" fill="#A0533D" id="id-74997"></polygon><polygon points="25 68 13 63 20 62 17 46 14 47 13 44 14 29 17 26 14 22 10 19 10 11 17 20" fill="#381717" id="id-74998"></polygon><polygon points="13 9 4 3 5 0 12 0" fill="#C26E60" id="id-74999"></polygon></g><path d=" M 29,199 C 21,165 17,151 15,130 C 4,44 33,0 103,0 C 180,0 191,63 186,119 C 183,157 173,191 170,202 C 169,206 167,213 164,217 C 155,229 135,242 119,249 C 112,251 89,251 79,249 C 65,240 47,234 36,218 C 33,213 32,209 29,199 Z" fill="url(#id-74954)" id="id-75000"></path><polygon points="122 166 151 182 171 155 113 120 77 124 20 148 51 190 66 182 86 155" fill="url(#id-74955)" id="id-75001"></polygon><polygon points="115 140 139 167 156 148 121 130 119 140" fill="#E49484" id="id-75002"></polygon><polygon points="169 156 153 147 164 132 174 151" fill="#D66650" id="id-75003"></polygon><path d=" M 29,199 C 24,176 20,162 18,149 C 18,148 33,157 51,182 C 54,187 57,195 59,208 C 110,231 130,244 119,249 C 112,251 89,251 79,249 C 65,240 47,234 36,218 C 33,213 32,209 29,199 Z" fill="url(#id-74956)" id="id-75000"></path><path d=" M 119,249 C 112,251 89,251 79,249 C 77,247 74,245 70,242 L 80,234 L 131,223 C 125,240 121,248 119,249 Z" fill="#79382D" id="id-75000"></path><path d=" M 135,207 L 136,195 L 171,151 L 164,131 L 171,125 C 178,143 181,152 181,154 C 177,177 172,195 170,202 C 169,206 167,213 164,217 C 155,229 135,242 119,249 L 135,207 Z" fill="url(#id-74957)" id="id-75000"></path><polygon points="179 117 171 125 177 143" fill="#90596C" id="id-75000"></polygon><polygon points="89 188 91 178 110 176 113 191 99 195" fill="url(#id-74958)" id="id-75008"></polygon><polygon points="87 187 87 181 78 175 104 155 123 177 113 180 106 181 101 185 95 182 91 181 89 187" fill="#56281B" opacity="0.297" id="id-75009"></polygon><path d=" M 119,249 C 112,251 89,251 79,249 C 65,240 47,234 36,218 L 79,247 L 119,249 Z" fill="#814C5E" id="id-75000"></path><polygon points="23 119 31 133 45 121 34 111" fill="#562722" id="id-75011"></polygon><polygon points="23 119 23 141 31 133" fill="#663632" id="id-75011"></polygon><path d=" M 18,149 C 17,143 15,136 15,130 C 14,120 13,111 13,103 L 21,70 L 32,111 L 23,119 L 23,145 L 35,163 L 18,149 Z" fill="url(#id-74959)" id="id-75000"></path><path d=" M 30,111 L 24,83 C 36,49 59,30 92,24 C 126,19 155,33 180,67 L 186,98 L 183,119 L 99,103 L 30,111 Z" fill="url(#id-74960)" id="id-75014"></path><path d=" M 180,58 L 186,98 L 183,119 L 171,104 L 164,65 L 154,82 C 147,53 146,38 149,36 C 160,43 170,50 180,58 Z" fill="url(#id-74961)" id="id-75014"></path><polygon points="56 102 62 49 99 32 135 45 149 102 99 109" fill="url(#id-74962)" id="id-75016"></polygon><polygon points="92 39 75 62 99 99 122 62 103 39" fill="url(#id-74963)" id="id-75017"></polygon><path d=" M 149,226 L 167,206 L 178,150 L 174,144 L 178,121 L 167,106 L 174,75 L 184,97 L 181,113 L 184,132 C 180,165 172,193 170,202 C 169,206 167,213 164,217 L 149,226 Z" fill="url(#id-74964)" id="id-75000"></path><polygon points="135 207 121 244 84 244 79 234 86 230" fill="url(#id-74965)" id="id-75000"></polygon><polygon points="70 104 102 91 136 107 109 132 81 126" fill="url(#id-74966)" id="id-75020"></polygon><polygon points="39 152 62 170 82 141 75 134" fill="#BF7666" id="id-75021"></polygon><polygon points="76 140 55 151 39 153 25 147 23 146 23 140 26 129 29 127" fill="#8B422F" id="id-75022"></polygon><polygon points="120 140 133 149 153 147 164 132" fill="url(#id-74967)" id="id-75023"></polygon><polygon points="39 135 33 139 43 147 59 148 76 140" fill="url(#id-74968)" id="id-75024"></polygon><polygon points="117 135 127 129 169 128 177 120 169 111 146 101 112 121 115 128" fill="url(#id-74969)" id="id-75025"></polygon><polygon points="124 126 118 119 146 104 167 113 158 123" fill="#914840" id="id-75026"></polygon><polygon points="131 124 144 107 161 107 147 121" fill="#BE6D65" id="id-75027"></polygon><path d=" M 120,136 L 120,132 C 127,124 134,119 142,118 C 149,118 157,121 165,128 L 120,136 Z" fill="#A04740" id="id-75028"></path><path d=" M 130,129 C 130,123 134,120 142,119 C 149,119 154,121 157,128 L 130,129 Z" fill="#C76355" id="id-75028"></path><polygon points="138 126 142 119 144 119 148 126" fill="#FEB99C" id="id-75030"></polygon><polygon points="125 138 148 138 158 132 148 126 137 127 124 134" fill="#F4EAFF" id="id-75031"></polygon><polygon points="127 137 124 134 120 137" fill="#D8706A" id="id-75032"></polygon><path d=" M 132,131 C 132,134 133,136 134,137 C 137,139 142,139 146,137 C 148,136 149,133 149,128 C 145,127 142,127 140,127 C 138,128 135,129 132,131 Z" fill="#2A0610" id="id-75033"></path><path d=" M 134,132 C 134,134 135,135 136,136 C 138,137 140,137 144,136 C 146,135 147,133 147,130 C 146,130 145,130 145,130 C 143,129 144,134 140,134 C 135,134 138,130 137,130 C 136,131 135,131 134,132 Z" fill="url(#id-74970)" id="id-75033"></path><polygon points="74 135 82 129 69 114 44 105 34 110 52 129" fill="#8E4539" id="id-75035"></polygon><polygon points="51 121 48 109 62 113 68 119 68 125" fill="#A85E55" id="id-75036"></polygon><path d=" M 32,127 C 39,121 46,118 55,120 C 64,121 71,126 76,135 L 32,127 Z" fill="url(#id-74971)" id="id-75037"></path><path d=" M 32,127 C 37,122 42,120 48,119 C 44,121 41,124 39,128 L 32,127 Z" fill="#824642" id="id-75037"></path><polygon points="47 128 54 120 61 129" fill="#F68A70" id="id-75039"></polygon><polygon points="49 137 76 137 73 133 62 128 42 128 38 131" fill="#DED5FF" id="id-75040"></polygon><polygon points="72 133 73 135 72 137 77 137 75 135" fill="#8E3D3C" id="id-75041"></polygon><path d=" M 49,129 C 51,136 54,139 60,138 C 65,137 68,135 68,130 L 58,128 L 49,129 Z" fill="#24060D" id="id-75042"></path><path d=" M 51,131 C 53,136 56,138 60,137 C 64,136 66,134 66,131 L 62,130 C 62,132 61,134 58,134 C 56,134 55,132 55,130 L 51,131 Z" fill="url(#id-74972)" id="id-75042"></path><polygon points="50 139 65 138 78 138 77 137 65 137 49 137" fill="#3E1B19" id="id-75044"></polygon><polygon points="141 131 153 135 158 131 148 126 135 128 126 133" fill="#000000" opacity="0.400" id="id-75045"></polygon><polygon points="45 134 51 132 68 132 73 134 68 129 48 128 40 132" fill="#000000" opacity="0.400" id="id-75046"></polygon><polygon points="77 137 76 137 75 135 67 130 49 129 43 132 49 138 53 139 48 139 41 135 38 135 28 126 41 126 56 125 67 128" fill="#2A0710" id="id-75047"></polygon><path d=" M 121,136 C 129,132 135,130 139,128 C 143,127 149,128 155,132 C 154,134 151,136 147,139 C 150,139 154,137 160,133 L 162,133 L 171,126 C 166,126 162,126 160,126 C 153,125 147,123 143,124 C 136,125 128,129 121,136 Z" fill="#340713" id="id-75048"></path><polygon points="135 133 138 133 138 130 136 130 136 132 135 132" fill="#F8E2F8" id="id-75049"></polygon><polygon points="53 131 53 133 55 133 55 132 57 132 56 130" fill="#C7ABCD" id="id-75050"></polygon><g transform=" translate(59,186)" id="id-75051"><polygon points="6 20 0 22 19 31" fill="#A4645E" id="id-75052"></polygon><polygon points="10 24 27 44 57 44 71 25" fill="url(#id-74973)" id="id-75053"></polygon><polygon points="7 22 41 28 73 23 76 20 69 17 11 16 5 20" fill="#2A0710" id="id-75054"></polygon><path d=" M 7,22 C 19,32 30,38 41,38 C 52,38 63,33 73,23 L 56,22 C 49,22 43,22 39,22 C 35,22 30,21 22,21 L 7,22 Z" fill="url(#id-74974)" id="id-75054"></path><path d=" M 7,22 C 19,32 30,38 41,38 C 52,38 63,33 73,23 L 66,23 C 58,31 49,35 41,35 C 33,35 25,30 15,21 L 7,22 Z" fill="url(#id-74975)" opacity="0.651" id="id-75054"></path><path d=" M 7,22 C 8,23 9,24 10,25 C 10,22 20,22 39,22 C 59,22 69,24 71,25 C 71,25 72,24 73,23 L 56,22 C 49,22 43,22 39,22 C 35,22 30,21 22,21 L 7,22 Z" fill="#632928" id="id-75054"></path><path d=" M 15,21 L 23,20 C 30,19 37,18 41,19 C 46,19 51,20 58,21 L 75,21 C 68,12 60,6 53,2 C 50,2 46,3 41,5 C 36,3 32,1 29,0 C 22,5 15,11 8,18 L 15,21 Z" fill="url(#id-74976)" id="id-75058"></path><path d=" M 21,9 C 25,6 28,5 31,5 C 33,5 37,7 43,11 L 53,9 L 60,9 C 63,10 60,8 53,4 C 50,4 47,5 42,7 C 37,4 32,3 29,2 C 22,6 19,9 19,9 L 21,9 Z" fill="url(#id-74977)" opacity="0.485" id="id-75058"></path><path d=" M 20,24 L 33,30 C 30,28 31,27 34,27 C 37,27 44,28 54,28 L 59,30 L 58,26 L 61,23 L 56,26 L 30,26 L 20,24 Z" fill="#EE88AA" id="id-75060"></path><path d=" M 31,20 C 31,20 31,21 31,21 C 31,21 34,21 40,21 C 40,20 40,20 40,19 C 38,19 35,19 31,20 Z" fill="url(#id-74978)" id="id-75061"></path><path d=" M 42,20 C 42,20 42,21 42,21 C 46,22 49,22 51,21 L 51,20 C 46,19 43,19 42,20 Z" fill="url(#id-74979)" id="id-75062"></path></g><g transform=" translate(22,95)" id="id-75063"><path d=" M 97,23 L 132,12 L 146,18 L 145,11 C 137,4 132,1 129,1 C 120,1 109,4 96,9 C 95,9 95,14 97,23 Z" fill="url(#id-74980)" id="id-75064"></path><polygon points="156 25 147 19 147 13" fill="#3E1F26" id="id-75064"></polygon><path d=" M 1,24 L 17,16 L 33,16 L 60,28 L 60,11 C 48,7 35,4 22,4 L 10,11 L 10,16 L 9,12 L 1,24 Z" fill="url(#id-74981)" id="id-75066"></path></g><polygon points="99 121 114 127 111 135 121 162 126 169 74 169 81 157 87 130" fill="url(#id-74982)" id="id-75067"></polygon><polygon points="72 118 83 132 96 146 96 132 82 110" fill="#954C3A" id="id-75068"></polygon><polygon points="72 118 83 132 82 110" fill="#9B584A" id="id-75068"></polygon><polygon points="96 132 96 153 84 165 81 161 77 167 78 174 124 174 124 169 121 162 110 161 104 153 104 132" fill="url(#id-74983)" id="id-75070"></polygon><polygon points="78 163 74 169 76 177 87 181 81 176 92 177 95 181 100 182 106 181 106 178 120 175 113 180 118 181 124 179 126 176 126 168 121 160 123 169 123 174 112 169 98 174 89 169 84 173 78 171" fill="url(#id-74984)" id="id-75071"></polygon><polygon points="93 127 100 140 106 127 100 123" fill="#EE9D8C" id="id-75072"></polygon><polygon points="93 167 99 170 105 167 99 161" fill="#DB9A77" id="id-75073"></polygon><polygon points="80 170 84 173 89 170 84 166" fill="#D27F62" id="id-75074"></polygon><polygon points="113 169 119 171 120 166 116 164" fill="#D88365" id="id-75075"></polygon><polygon points="115 159 117 152 121 160" fill="#A35547" id="id-75076"></polygon><polygon points="93 178 81 176 81 173 89 173" fill="#2E1111" id="id-75077"></polygon><polygon points="106 178 112 173 118 173 120 175 117 177" fill="#2E1111" id="id-75078"></polygon><polygon points="124 137 145 138 147 139 125 138 120 137" fill="#3F0A19" id="id-75079"></polygon><polygon points="124 140 137 141 147 140" fill="#FEAF93" id="id-75080"></polygon><polygon points="49 140 60 141 74 140" fill="#BB735F" id="id-75081"></polygon></g><defs></defs><g transform=" translate(444,771)" id="id-47936"><g transform=" translate(1,267)" id="id-47937"><path d=" M 15,390 C 10,388 8,386 5,383 C -5,322 0,267 19,217 C 30,171 39,130 48,93 C 60,62 77,31 85,1 C 145,0 187,0 213,1 C 286,2 337,6 338,7 C 348,37 361,65 373,103 C 387,156 400,210 413,266 C 417,312 416,350 408,381 C 404,379 402,378 402,378 C 354,365 292,365 226,370 C 206,370 197,370 197,370 C 128,367 76,365 15,382 L 15,390 Z" fill="#130727" id="id-47938"></path><path d=" M 5,383 C 17,364 28,349 40,340 L 1,355 C 2,367 4,377 5,383 Z" fill="#343360" id="id-47939"></path><path d=" M 41,376 C 58,321 72,267 116,190 C 138,162 159,136 178,118 C 172,114 168,111 168,111 C 133,135 97,164 57,207 C 55,129 54,90 54,90 C 70,46 78,24 78,24 C 102,54 114,70 114,70 L 169,21 C 239,89 275,123 275,123 C 271,157 270,174 270,174 C 235,202 217,217 217,217 C 217,294 216,333 216,333 C 263,277 287,249 287,249 C 304,260 312,265 312,265 L 315,367 C 289,366 258,368 226,370 L 196,370 C 121,366 70,368 41,376 Z" fill="#1C1231" id="id-47940"></path><path d=" M 41,376 C 58,315 80,253 116,190 C 135,167 154,143 178,118 C 181,119 182,120 182,120 C 147,176 130,204 130,204 L 132,216 C 176,189 198,176 198,176 C 202,167 204,162 204,162 C 212,159 217,157 217,157 C 205,180 200,192 200,192 C 160,239 141,263 141,263 C 202,215 232,191 232,191 L 233,204 C 222,212 217,216 217,216 C 216,230 216,237 216,237 C 191,244 179,248 179,248 C 128,288 102,308 102,308 C 71,348 56,368 56,368 C 97,364 117,362 117,362 C 181,366 212,368 212,368 L 271,362 L 315,367 C 288,367 258,368 226,370 L 196,370 C 136,367 83,368 41,376 Z" fill="#1D1333" id="id-47941"></path><path d=" M 56,368 C 78,342 89,330 89,330 L 88,363 C 66,366 56,368 56,368 Z" fill="#97939B" id="id-47942"></path><path d=" M 89,330 C 98,316 103,310 103,310 C 107,307 109,306 109,306 L 106,361 L 88,363 C 89,341 89,330 89,330 Z" fill="#251E3B" id="id-47943"></path><path d=" M 111,361 C 112,322 113,303 113,303 C 142,280 156,269 156,269 L 122,360 C 115,361 111,361 111,361 Z" fill="#363766" id="id-47944"></path><path d=" M 153,278 C 170,306 178,320 178,320 L 178,251 L 156,269 C 154,275 153,278 153,278 Z" fill="#2B264C" id="id-47945"></path><path d=" M 178,366 L 178,251 L 216,237 C 216,302 216,334 216,334 C 260,278 282,250 282,250 C 288,248 291,246 291,246 L 265,363 L 212,368 L 178,366 Z" fill="#363764" id="id-47946"></path><path d=" M 216,309 C 212,317 210,320 210,320 C 200,311 196,306 196,306 C 201,319 203,325 203,325 L 207,368 C 210,368 212,368 212,368 L 216,367 L 216,334 C 216,317 216,309 216,309 Z" fill="#2B2549" id="id-47947"></path><path d=" M 197,306 C 206,297 210,293 210,293 L 208,320 C 201,311 197,306 197,306 Z" fill="#9895A0" id="id-47948"></path><path d=" M 295,293 C 298,294 299,295 299,295 C 301,281 302,274 302,274 L 295,266 C 295,284 295,293 295,293 Z" fill="#ACA8AD" id="id-47949"></path><path d=" M 317,353 C 316,328 316,315 316,315 C 330,304 338,298 338,298 C 331,258 328,239 328,239 C 335,267 339,281 339,281 C 345,293 348,300 348,300 C 362,270 369,256 369,256 C 367,279 366,291 366,291 C 382,297 389,300 389,300 C 374,346 366,369 366,369 L 358,363 C 330,356 317,353 317,353 Z" fill="#ACA8AD" id="id-47950"></path><path d=" M 375,370 C 384,371 388,372 388,372 C 389,343 389,329 389,329 L 383,352 C 377,364 375,370 375,370 Z" fill="#ACA8AD" id="id-47951"></path><path d=" M 393,376 C 403,304 402,235 389,167 L 413,266 C 418,307 415,345 408,381 L 400,382 L 400,378 C 395,377 393,376 393,376 Z" fill="#2B2345" id="id-47952"></path><path d=" M 348,300 L 339,281 C 332,253 328,239 328,239 C 322,194 318,172 318,172 L 371,251 L 348,300 Z" fill="#250E32" id="id-47953"></path><path d=" M 319,223 C 309,194 305,179 305,179 C 307,172 309,169 309,169 L 318,177 C 319,208 319,223 319,223 Z" fill="#2A2750" id="id-47954"></path><path d=" M 252,258 C 259,212 262,190 262,190 C 292,168 307,156 307,156 L 301,179 C 268,231 252,258 252,258 Z" fill="#7E7784" id="id-47955"></path><path d=" M 108,120 C 125,85 134,68 134,68 C 126,114 122,136 122,136 L 83,218 C 99,152 108,120 108,120 Z" fill="#241C3B" id="id-47956"></path><path d=" M 215,201 C 264,149 289,123 289,123 C 292,113 293,108 293,108 C 282,72 277,53 277,53 C 277,43 276,31 272,18 C 274,24 276,15 281,46 C 292,96 298,120 298,120 C 298,128 297,136 292,146 C 241,183 215,201 215,201 Z" fill="#96919A" id="id-47957"></path><path d=" M 209,208 C 204,197 202,192 202,192 L 208,176 C 208,197 209,208 209,208 Z" fill="#ACA8AD" id="id-47958"></path><path d=" M 203,160 C 209,159 211,159 211,159 L 210,140 C 206,153 203,160 203,160 Z" fill="#ACA8AD" id="id-47959"></path><path d=" M 0,325 C 23,289 34,271 34,271 C 67,223 84,199 84,199 C 43,230 23,245 23,245 L 37,141 L 19,217 C 6,253 -1,289 0,325 Z" fill="#343360" id="id-47960"></path><path d=" M 56,218 C 67,202 72,194 72,194 C 91,177 101,168 101,168 L 87,196 C 66,211 56,218 56,218 Z" fill="#948F97" id="id-47961"></path><path d=" M 100,187 C 102,173 104,165 104,165 L 119,153 C 106,176 100,187 100,187 Z" fill="#9A959D" id="id-47962"></path><polygon points="48 93 90 60 78 24" fill="#302E57" id="id-47963"></polygon><path d=" M 123,69 C 136,58 142,52 142,52 L 158,59 C 135,66 123,69 123,69 Z" fill="#686781" id="id-47964"></path><path d=" M 272,147 C 278,142 284,136 281,123 C 269,81 263,59 263,59 L 253,58 C 274,105 280,135 272,147 Z" fill="#ACA8AD" id="id-47965"></path><path d=" M 213,148 C 213,102 213,79 213,79 L 222,107 C 216,134 213,148 213,148 Z" fill="#312B4E" id="id-47966"></path><path d=" M 121,146 C 124,136 125,131 125,131 C 147,108 158,96 158,96 C 170,58 176,39 176,39 C 201,20 213,11 213,11 C 216,31 217,41 217,41 C 255,47 274,50 274,50 C 231,73 209,84 209,84 C 209,123 208,143 208,143 L 199,171 L 132,216 L 130,204 L 182,120 L 178,118 L 168,111 C 137,134 121,146 121,146 Z" fill="#2C274B" id="id-47967"></path><path d=" M 170,58 C 201,47 217,42 217,42 L 210,12 L 176,39 C 172,51 170,58 170,58 Z" fill="#686781" id="id-47968"></path><path d=" M 136,51 L 167,65 C 173,48 176,39 176,39 C 201,20 214,10 214,10 L 214,3 L 169,21 C 147,41 136,51 136,51 Z" fill="#261F3C" id="id-47969"></path><path d=" M 214,3 C 217,2 219,1 220,0 L 274,2 C 276,3 279,5 283,7 C 277,36 274,50 274,50 L 217,40 C 215,16 214,3 214,3 Z" fill="#1A1030" id="id-47970"></path><path d=" M 302,150 C 304,133 306,124 306,124 C 353,180 377,208 377,208 C 363,199 357,195 357,195 L 316,150 C 307,150 302,150 302,150 Z" fill="#261F40" id="id-47971"></path><path d=" M 360,198 C 375,219 383,229 383,229 C 389,248 391,257 391,257 L 391,223 C 370,206 360,198 360,198 Z" fill="#97929B" id="id-47972"></path><path d=" M 397,224 C 374,203 363,192 363,192 C 361,137 331,72 318,13 C 302,7 293,4 293,4 L 337,5 C 376,106 396,179 397,224 Z" fill="#250E32" id="id-47973"></path><path d=" M 286,6 C 285,25 284,35 284,35 C 317,16 333,6 333,6 L 312,5 C 295,6 286,6 286,6 Z" fill="#2E264F" id="id-47974"></path><path d=" M 282,26 C 275,15 272,10 272,10 C 273,6 274,4 274,4 L 282,8 C 282,20 282,26 282,26 Z" fill="#ACA8AD" id="id-47975"></path><path d=" M 94,255 C 104,237 109,228 109,228 L 109,242 C 99,250 94,255 94,255 Z" fill="#9A959D" id="id-47976"></path></g><g transform=" translate(50,0)" id="id-47937"><path d=" M 36,270 C 40,255 41,240 37,226 C 28,158 24,123 24,123 C -4,82 -8,81 15,28 C 28,17 48,11 72,8 C 135,14 166,17 166,17 C 195,9 223,4 250,0 C 267,4 286,14 305,24 L 319,83 L 302,126 C 297,167 279,244 285,274 C 226,270 87,265 36,270 Z" fill="#130727" id="id-47938"></path><path d=" M 50,269 C 92,262 114,258 114,258 C 68,245 46,238 46,238 C 43,213 42,201 42,201 C 58,171 66,156 66,156 C 128,154 159,153 159,153 C 100,143 71,138 71,138 C 77,129 79,125 79,125 C 105,117 118,113 118,113 C 64,111 36,110 36,110 C 23,98 16,92 16,92 L 51,12 L 72,8 C 135,14 166,17 166,17 C 166,67 165,93 165,93 C 226,86 257,83 257,83 C 251,106 248,117 248,117 C 193,132 166,140 166,140 C 212,147 234,151 234,151 C 232,162 231,168 231,168 C 146,184 104,192 104,192 C 186,191 227,190 227,190 C 220,219 217,233 217,233 C 191,249 172,261 159,269 C 86,269 50,269 50,269 Z" fill="#211736" id="id-47979"></path><path d=" M 88,251 C 85,211 83,191 83,191 L 187,153 L 231,168 L 104,192 L 227,190 L 217,233 C 189,251 169,263 159,269 L 91,268 C 91,267 91,265 91,263 L 114,258 C 97,253 88,251 88,251 Z" fill="#2E284A" id="id-47980"></path><path d=" M 160,252 C 156,216 154,198 154,198 L 160,192 C 160,232 160,252 160,252 Z" fill="#7D7885" id="id-47981"></path><path d=" M 222,212 L 220,223 C 204,225 195,226 195,226 C 209,220 216,217 216,217 L 214,211 C 219,211 222,212 222,212 Z" fill="#ACA8AD" id="id-47982"></path><path d=" M 221,206 C 207,206 199,206 199,206 C 211,201 217,198 217,198 C 208,193 203,190 203,190 L 225,192 C 222,202 221,206 221,206 Z" fill="#ACA8AD" id="id-47983"></path><path d=" M 232,265 C 262,261 277,260 277,260 C 248,244 234,237 234,237 C 245,168 250,134 250,134 C 294,92 316,71 316,71 L 318,83 L 302,126 C 299,152 293,197 285,263 C 284,265 286,268 289,274 C 251,268 232,265 232,265 Z" fill="#250E32" id="id-47973"></path><path d=" M 262,226 C 269,220 272,217 272,217 L 266,205 C 263,219 262,226 262,226 Z" fill="#ACA8AD" id="id-47985"></path><path d=" M 225,232 C 223,227 223,225 223,225 C 229,185 233,165 233,165 L 246,139 C 232,201 225,232 225,232 Z" fill="#ACA8AD" id="id-47986"></path><path d=" M 194,173 C 216,169 227,166 227,166 C 213,162 206,159 206,159 L 206,166 C 198,171 194,173 194,173 Z" fill="#ACA8AD" id="id-47987"></path><path d=" M 152,131 C 190,120 209,115 209,115 L 107,122 C 137,128 152,131 152,131 Z" fill="#110425" id="id-47988"></path><path d=" M 164,139 C 172,135 175,133 175,133 C 172,128 170,126 170,126 L 165,128 C 164,135 164,139 164,139 Z" fill="#787180" id="id-47989"></path><path d=" M 164,115 C 170,115 172,115 172,115 L 164,101 C 164,111 164,115 164,115 Z" fill="#585065" id="id-47990"></path><path d=" M 250,115 C 249,101 248,95 248,95 C 257,87 261,83 261,83 L 265,86 C 255,105 250,115 250,115 Z" fill="#ACA8AD" id="id-47991"></path><path d=" M 105,102 C 64,103 43,104 43,104 C 24,92 14,87 14,87 C 31,51 39,33 39,33 L 57,11 C 67,9 73,8 73,8 C 116,12 137,14 137,14 C 99,38 81,51 81,51 C 88,34 91,26 91,26 C 69,46 58,56 58,56 L 77,84 C 96,96 105,102 105,102 Z" fill="#34335E" id="id-47992"></path><path d=" M 43,104 L 52,86 L 66,101 C 50,103 43,104 43,104 Z" fill="#6D6982" id="id-47993"></path><path d=" M 4,91 C 7,69 13,46 26,21 L 14,28 C 0,60 -3,81 4,91 Z" fill="#5968B3" id="id-47994"></path><path d=" M 161,93 C 157,69 154,56 154,56 L 162,27 C 161,71 161,93 161,93 Z" fill="#686274" id="id-47995"></path><path d=" M 166,90 C 234,73 267,65 267,65 C 292,70 304,73 304,73 L 292,19 L 250,0 C 223,4 195,10 166,17 C 166,66 166,90 166,90 Z" fill="#292344" id="id-47996"></path><path d=" M 166,17 C 187,18 198,19 198,19 L 212,7 C 181,14 166,17 166,17 Z" fill="#5968B2" id="id-47997"></path><path d=" M 200,23 C 203,44 205,55 205,55 C 242,54 260,53 260,53 C 266,58 269,60 269,60 C 261,34 257,21 257,21 L 265,8 L 250,0 C 217,15 200,23 200,23 Z" fill="#110425" id="id-47998"></path><path d=" M 246,8 C 251,6 254,6 254,6 C 260,9 263,11 263,11 L 256,18 C 250,11 246,8 246,8 Z" fill="#ACA8AD" id="id-47999"></path><path d=" M 256,25 C 256,37 257,43 257,43 L 269,58 C 260,36 256,25 256,25 Z" fill="#ACA8AD" id="id-48000"></path><path d=" M 252,71 C 265,66 271,64 271,64 L 260,56 C 255,66 252,71 252,71 Z" fill="#ACA8AD" id="id-48001"></path><path d=" M 83,159 L 77,162 C 77,171 78,180 83,190 C 81,192 80,192 80,192 C 83,216 84,227 84,227 L 86,190 C 84,182 81,174 83,159 Z" fill="#716B7A" id="id-48002"></path><path d=" M 26,144 C 32,159 35,167 35,167 C 41,217 44,242 44,242 C 42,251 40,267 35,272 C 36,266 39,255 39,250 C 39,242 39,234 37,226 C 30,171 26,144 26,144 Z" fill="#5968B3" id="id-48003"></path></g></g><defs><linearGradient x1="55%" y1="15%" x2="57%" y2="66%" id="id-41600"><stop stop-color="#A9B9DD" offset="0%"></stop><stop stop-color="#C4D2F0" offset="100%"></stop></linearGradient></defs><g transform=" translate(356,588)" id="id-41601"><path d=" M 121,1024 C 233,1030 289,1033 289,1033 C 310,1024 321,1020 321,1020 C 417,1019 464,1018 464,1018 C 464,701 463,543 463,543 C 444,481 434,451 434,451 C 427,441 423,436 423,436 C 424,401 424,383 424,383 C 430,375 432,370 432,370 C 432,357 432,350 432,350 C 434,338 435,332 435,332 C 434,317 434,309 434,309 C 441,339 444,354 444,354 C 496,341 522,334 522,334 C 521,284 519,234 518,185 C 524,170 513,117 500,92 C 469,77 412,68 382,43 C 379,34 373,11 373,11 C 329,18 306,21 306,21 C 289,39 281,48 281,48 C 277,27 275,17 275,17 C 260,13 247,10 235,7 C 228,19 226,53 194,50 C 190,54 187,60 182,62 C 145,75 99,95 95,99 C 76,163 79,410 57,424 C 56,429 59,440 45,443 C 41,447 46,457 46,457 C 40,473 37,482 37,482 C 24,585 11,661 0,709 C 0,710 2,704 2,704 C 16,701 24,700 24,700 C 37,701 44,701 44,701 C 44,708 44,711 44,711 C 47,713 49,715 49,715 L 57,680 L 129,498 C 133,490 136,485 136,485 C 142,473 145,467 145,467 C 148,430 150,411 150,411 C 158,374 162,355 162,355 C 161,368 161,375 161,375 C 168,380 171,383 171,383 C 174,418 175,436 175,436 L 134,542 C 125,863 121,1024 121,1024 Z" fill="url(#id-41600)" id="id-41602"></path><path d=" M 412,1019 C 413,906 414,850 414,850 C 386,894 372,916 372,916 C 401,771 416,699 416,699 C 416,662 416,644 416,644 C 403,548 397,500 397,500 C 401,492 403,488 403,488 C 396,480 392,475 392,475 C 381,382 375,336 375,336 C 326,349 301,356 301,356 C 306,366 308,371 308,371 C 296,364 290,360 290,360 C 271,366 261,368 261,368 C 246,375 238,379 238,379 C 251,381 257,381 257,381 L 326,436 L 222,594 C 268,612 290,620 290,620 C 251,637 231,645 231,645 C 250,645 260,645 260,645 C 247,647 240,648 240,648 C 331,677 376,692 376,692 C 260,699 201,703 201,703 C 176,919 164,1027 164,1027 C 243,1030 283,1032 283,1032 C 327,962 349,927 349,927 L 325,1020 C 383,1019 412,1019 412,1019 Z" fill="#D8DFF1" id="id-41603"></path><path d=" M 308,371 L 291,336 C 346,336 374,336 374,336 L 384,383 L 424,383 L 432,371 L 432,350 L 435,333 C 435,318 435,310 435,310 C 447,282 453,267 453,267 C 438,247 431,237 431,237 C 415,194 407,172 407,172 L 421,230 L 411,273 L 404,235 L 327,230 L 373,259 L 215,230 L 141,251 L 175,203 C 172,186 170,178 170,178 L 167,177 L 139,263 L 164,314 L 161,375 C 167,380 170,383 170,383 L 259,383 L 257,381 L 238,379 L 261,368 L 291,360 C 302,367 308,371 308,371 Z" fill="#BBC7DB" id="id-41604"></path><path d=" M 122,968 C 115,936 112,920 112,920 C 118,889 121,873 121,873 L 126,813 L 122,968 Z" fill="#131D2F" opacity="0.270" id="id-41605"></path><path d=" M 464,945 C 469,927 472,919 472,919 L 464,809 C 464,900 464,945 464,945 Z" fill="#131D2F" opacity="0.270" id="id-41606"></path><path d=" M 463,596 C 467,608 469,614 469,614 L 464,680 C 463,624 463,596 463,596 Z" fill="#213B59" id="id-41607"></path><path d=" M 135,485 C 120,489 104,492 79,498 C 59,531 38,574 16,628 L 0,709 L 3,712 L 3,704 L 24,700 L 43,701 L 43,711 L 49,715 L 57,680 C 89,598 115,533 135,485 Z" fill="#DBE3F5" id="id-41608"></path><path d=" M 308,371 C 266,344 246,331 246,331 L 165,316 L 139,263 L 167,177 L 170,178 L 175,203 L 149,245 L 215,230 L 373,259 L 327,230 C 378,233 404,235 404,235 C 409,261 412,274 412,274 C 409,286 408,292 408,292 L 352,313 L 292,336 C 302,359 308,371 308,371 Z" fill="#BDC3D3" id="id-41609"></path><path d=" M 104,533 C 101,547 99,562 96,581 L 57,680 L 49,715 L 43,711 L 43,701 C 30,700 24,700 24,700 L 10,702 C 50,625 81,569 104,533 Z" fill="#D0DAF3" id="id-41610"></path><polygon points="84 443 126 441 133 471" fill="#C0CEEE" id="id-41611"></polygon><path d=" M 108,413 L 57,424 C 60,420 63,416 64,410 C 72,410 87,411 108,413 Z" fill="#C2CFEF" id="id-41612"></path><polygon points="142 473 140 427 96 421 144 410 95 402 130 384 153 399 150 411 145 467" fill="#C0CEEE" id="id-41613"></polygon><polygon points="126 169 138 178 153 215 139 267" fill="#8F9DB7" id="id-41614"></polygon><polygon points="185 282 187 311 191 310 189 283" fill="#98A6C0" id="id-41615"></polygon><path d=" M 373,11 C 379,32 382,43 382,43 C 397,56 425,68 465,79 C 463,82 461,86 458,92 L 440,165 L 456,258 L 453,266 L 431,237 L 409,173 L 421,230 L 309,78 L 364,51 L 327,51 L 372,45 L 309,45 L 306,21 L 373,11 Z" fill="#FAFBFF" id="id-41616"></path><path d=" M 95,99 C 101,113 111,136 126,169 L 141,179 L 175,203 L 141,251 L 215,230 L 372,259 L 327,230 L 404,235 L 411,273 L 421,230 L 309,78 L 364,51 L 327,51 L 372,45 L 309,45 L 306,21 L 275,52 C 244,51 217,50 194,50 C 191,53 189,56 184,61 C 161,71 127,80 95,99 Z" fill="#E8ECF5" id="id-41617"></path><path d=" M 156,339 L 164,314 C 155,300 147,285 141,270 C 141,274 146,297 156,339 Z" fill="#7185A8" id="id-41618"></path><polygon points="159 306 162 353 164 314" fill="#657DA1" id="id-41619"></polygon><polygon points="130 384 151 368 126 164 138 178 164 137 168 171 139 264 207 290 293 292 164 316 162 355 153 399" fill="#97A5BF" fill-opacity="0.770" id="id-41620"></polygon><polygon points="243 68 281 54 295 66" fill="#BDC7DB" id="id-41621"></polygon><polygon points="281 112 325 94 337 105" fill="#D4DAE7" id="id-41622"></polygon><polygon points="339 158 375 140 396 159" fill="#D6DCEA" id="id-41623"></polygon><polygon points="175 436 191 436 149 563 146 538 139 698 126 823 134 542" fill="#ABBBDE" id="id-41624"></polygon><path d=" M 175,436 L 187,437 L 175,456 C 175,443 175,436 175,436 Z" fill="#798DAD" id="id-41625"></path><polygon points="200 435 224 436 190 516" fill="#9DABC6" id="id-41626"></polygon><polygon points="247 436 255 466 267 436" fill="#B4BFD5" id="id-41627"></polygon><polygon points="339 429 378 469 434 451 442 476 378 480 368 566" fill="#E7EAF3" id="id-41628"></polygon><polygon points="374 464 347 436 374 436" fill="#A6B2CA" id="id-41629"></polygon><polygon points="436 546 395 436 423 436 423 448 412 439" fill="#D8D8D8" id="id-41630"></polygon><path d=" M 465,79 C 479,83 491,88 500,92 C 516,129 523,160 518,185 L 522,334 L 444,354 L 434,310 L 455,258 L 436,177 L 458,92 L 465,79 Z" fill="#EAEDF4" id="id-41631"></path><polygon points="199 311 215 367 228 324 337 299" fill="#98A6C0" id="id-41632"></polygon><polygon points="251 273 302 284 362 273" fill="#919FB9" id="id-41633"></polygon><polygon points="235 270 310 258 365 273" fill="#C8CFDC" id="id-41634"></polygon><polygon points="306 330 323 311 406 316" fill="#A0ACC4" id="id-41635"></polygon><path d=" M 458,92 C 442,109 434,118 434,118 C 432,147 432,161 432,161 L 440,165 C 452,116 458,92 458,92 Z" fill="#DADFEE" id="id-41636"></path><path d=" M 401,379 C 397,380 395,381 395,381 C 397,375 398,372 398,372 C 398,343 398,328 398,328 C 406,318 410,313 410,313 L 401,332 C 401,363 401,379 401,379 Z" fill="#8796B5" id="id-41637"></path><path d=" M 410,310 C 414,301 415,296 415,296 C 412,293 411,292 411,292 C 414,268 416,257 416,257 L 423,232 C 421,231 420,230 420,230 C 415,250 412,260 412,260 L 409,293 C 410,304 410,310 410,310 Z" fill="#919FB9" id="id-41638"></path><path d=" M 434,315 C 419,316 412,316 412,316 C 411,308 411,305 411,305 L 448,279 L 434,309 C 434,313 434,315 434,315 Z" fill="#A3AFC5" id="id-41639"></path><path d=" M 455,263 C 451,289 449,302 449,302 C 445,305 442,306 442,306 C 444,326 444,338 442,343 C 440,335 438,324 434,310 C 448,279 455,263 455,263 Z" stroke="#979797" id="id-41640"></path><path d=" M 444,354 C 454,351 459,350 459,350 C 455,317 453,301 453,301 C 486,290 503,285 503,285 C 489,282 482,280 482,280 C 464,221 455,192 455,192 C 465,161 470,145 470,145 C 457,161 451,170 451,170 C 447,179 445,183 445,183 C 442,174 441,170 441,170 C 440,155 439,148 439,148 C 436,153 434,155 434,155 C 434,159 434,161 434,161 L 416,131 C 424,152 432,173 441,196 C 447,210 452,230 456,258 L 434,310 C 441,339 444,354 444,354 Z" fill="#ABB5C9" id="id-41641"></path><path d=" M 410,106 C 403,120 400,127 400,127 L 370,97 C 397,103 410,106 410,106 Z" fill="#945822" id="id-41642"></path><path d=" M 370,97 L 409,109 L 400,123 L 370,97 Z M 401,110 C 401,110 401,110 401,110 L 400,110 C 400,111 400,111 399,113 L 399,113 C 398,114 398,115 397,115 L 397,115 L 399,117 C 399,117 400,115 403,111 C 403,111 402,111 402,111 L 401,110 C 401,110 401,110 401,110 Z M 396,108 C 396,108 395,109 393,111 L 393,112 L 395,113 C 395,113 396,112 398,109 C 398,109 397,109 396,108 Z M 387,106 L 388,106 C 388,106 389,107 391,110 L 391,110 L 393,107 C 393,107 391,107 387,106 Z" fill="#FAF081" id="id-41643"></path><path d=" M 466,107 C 463,121 462,127 462,127 L 481,106 C 471,106 466,107 466,107 Z" fill="#C0C7D9" id="id-41644"></path><path d=" M 370,97 L 409,109 L 410,106 C 383,100 370,97 370,97 Z" fill="#C6A146" id="id-41645"></path><path d=" M 400,127 C 405,126 407,126 407,126 L 409,107 C 403,121 400,127 400,127 Z" fill="#9299B6" id="id-41646"></path><path d=" M 396,190 C 390,184 386,181 386,181 C 392,173 395,169 395,169 L 404,179 C 399,186 396,190 396,190 Z" fill="#142336" id="id-41647"></path><path d=" M 394,174 L 395,172 L 402,179 C 396,176 394,174 394,174 Z" fill="#E5E7EC" id="id-41648"></path><path d=" M 386,241 C 393,248 396,251 396,251 C 402,244 404,240 404,240 L 395,229 C 389,237 386,241 386,241 Z" fill="#142237" id="id-41649"></path><path d=" M 395,232 C 394,234 394,234 394,234 L 402,240 C 397,235 395,232 395,232 Z" fill="#E5E7EC" id="id-41650"></path><path d=" M 390,293 C 384,301 381,305 381,305 C 388,311 391,315 391,315 L 399,303 C 393,297 390,293 390,293 Z" fill="#142237" id="id-41651"></path><path d=" M 390,296 C 389,297 388,298 388,298 L 397,303 C 392,299 390,296 390,296 Z" fill="#E5E7EC" id="id-41652"></path><path d=" M 384,355 C 390,362 393,365 393,365 C 388,373 385,377 385,377 L 374,366 C 381,359 384,355 384,355 Z" fill="#142237" id="id-41653"></path><path d=" M 384,358 C 383,359 382,360 382,360 L 391,366 C 386,361 384,358 384,358 Z" fill="#E5E7EC" id="id-41654"></path><path d=" M 455,172 C 450,177 448,180 448,180 C 445,194 444,201 444,201 L 448,214 C 453,186 455,172 455,172 Z" fill="#697FA4" id="id-41655"></path><path d=" M 520,273 C 501,262 492,257 492,257 C 501,228 511,200 520,173 C 520,177 520,182 518,185 C 520,244 520,273 520,273 Z" fill="#FBFCFF" id="id-41656"></path><path d=" M 475,142 L 453,155 L 462,127 C 482,107 494,95 500,92 C 520,136 520,173 520,173 L 506,205 C 486,163 475,142 475,142 Z" fill="#FBFCFF" id="id-41657"></path><path d=" M 382,43 C 374,47 363,54 350,62 L 398,54 C 391,50 386,46 382,43 Z" fill="#B2BACE" id="id-41658"></path><path d=" M 238,8 C 236,26 234,44 234,44 C 251,49 260,51 260,51 C 231,50 214,49 209,48 C 223,42 228,29 234,7 C 236,7 238,8 238,8 Z" fill="#B0B8CD" id="id-41659"></path><path d=" M 235,7 L 236,4 L 255,1 C 255,6 255,8 255,8 L 282,17 L 275,17 L 235,7 Z" fill="#445068" id="id-41660"></path><path d=" M 352,0 L 373,7 L 373,11 L 306,21 C 308,20 309,19 309,19 C 320,18 335,15 352,11 L 352,0 Z" fill="#445068" id="id-41661"></path><path d=" M 193,1028 C 203,895 208,829 208,829 L 195,1028 C 194,1028 193,1028 193,1028 Z" fill="#AC566C" id="id-41662"></path><path d=" M 156,1026 C 158,1026 159,1026 159,1026 L 177,794 C 163,948 156,1026 156,1026 Z" fill="#AC566C" id="id-41663"></path><path d=" M 258,1029 C 380,972 441,944 441,944 L 261,1030 C 259,1029 258,1029 258,1029 Z" fill="#AC566C" id="id-41664"></path><path d=" M 138,806 L 124,908 C 122,985 121,1024 121,1024 C 141,1025 152,1025 152,1025 L 168,824 C 148,812 138,806 138,806 Z" fill="#AC566C" fill-opacity="0.500" id="id-41665"></path><path d=" M 307,963 L 247,994 C 247,994 289,975 372,937 L 307,963 Z" fill="#AC566C" id="id-41666"></path><path d=" M 303,882 C 338,846 356,827 356,827 L 400,787 C 336,851 303,882 303,882 Z" fill="#AC566C" id="id-41667"></path><path d=" M 298,949 C 347,899 371,874 371,874 L 434,811 C 344,903 298,949 298,949 Z" fill="#AC566C" id="id-41668"></path><path d=" M 464,1018 C 452,970 446,945 446,945 L 427,918 L 453,1018 L 464,1018 Z" fill="#AC566C" fill-opacity="0.500" id="id-41669"></path><path d=" M 423,1018 C 412,981 406,963 406,963 L 387,942 L 406,1018 L 423,1018 Z" fill="#AC566C" fill-opacity="0.500" id="id-41670"></path><path d=" M 362,740 C 362,778 362,797 362,797 L 364,860 C 363,780 362,740 362,740 Z" fill="#AC566C" id="id-41671"></path><path d=" M 393,731 C 393,773 393,794 393,794 L 396,893 C 394,785 393,731 393,731 Z" fill="#AC566C" id="id-41672"></path><path d=" M 421,753 C 423,783 425,798 425,798 L 425,848 C 422,784 421,753 421,753 Z" fill="#AC566C" id="id-41673"></path><path d=" M 438,858 C 411,884 398,898 398,898 L 372,928 C 416,881 438,858 438,858 Z" fill="#AC566C" id="id-41674"></path><polygon points="464 1019 457 1019 457 526 464 544" fill="#B1BFE2" id="id-41675"></polygon><path d=" M 133,559 C 128,586 125,600 125,600 L 130,694 L 133,559 Z" fill="#2D4665" id="id-41676"></path><path d=" M 275,17 L 282,17 L 281,48 L 410,161 C 408,166 407,169 407,169 L 277,50 L 275,17 Z" fill="#9C0716" id="id-41677"></path><polygon points="276 17 276 51 234 51 235 7" fill="#CED5E7" id="id-41678"></polygon><path d=" M 170,385 C 170,385 426,385 426,385 C 426,409 426,427 425,437 C 357,437 260,439 170,437 C 170,414 170,385 170,385 Z" fill="#700002" id="id-41679"></path><path d=" M 239,385 C 229,403 225,413 225,413 L 270,412 L 219,438 C 297,438 336,438 336,438 C 361,432 374,429 374,429 C 386,412 392,403 392,403 L 378,403 L 413,385 C 297,385 239,385 239,385 Z" fill="#9C0817" id="id-41680"></path><path d=" M 465,232 L 465,194 L 470,194 L 470,188 L 456,188 L 456,194 L 460,194 L 460,232 L 465,232 Z M 482,231 C 483,231 485,230 485,229 C 486,228 487,227 487,226 L 487,226 L 487,192 C 487,191 486,189 485,188 C 485,187 483,187 482,187 L 482,187 L 477,187 C 476,187 475,187 474,188 C 473,189 473,191 473,192 L 473,192 L 473,226 C 473,227 473,228 474,229 C 475,230 476,231 477,231 L 477,231 L 482,231 Z M 481,226 L 479,226 C 479,226 478,226 478,225 C 478,225 478,225 478,225 L 478,225 L 478,194 C 478,194 478,194 478,193 C 478,193 479,193 479,193 L 479,193 L 481,193 C 482,193 482,193 482,193 C 483,194 483,194 483,194 L 483,194 L 483,225 C 483,225 483,225 482,225 C 482,226 482,226 481,226 L 481,226 Z M 497,231 L 497,211 L 498,211 L 504,231 L 510,231 L 503,211 C 504,211 505,210 506,209 C 506,208 507,207 507,206 L 507,206 L 507,192 C 507,191 506,189 505,188 C 504,187 503,187 502,187 L 502,187 L 492,187 L 492,231 L 497,231 Z M 500,206 L 497,206 L 497,193 L 500,193 C 501,193 501,193 501,193 C 502,194 502,194 502,194 L 502,194 L 502,205 C 502,205 502,205 501,206 C 501,206 501,206 500,206 L 500,206 Z M 519,230 L 518,186 L 510,186 L 510,192 L 514,192 L 514,230 L 519,230 Z" fill="#383D51" opacity="0.723" id="id-41681" fill-rule="nonzero"></path></g><defs></defs><g transform=" translate(332,1244)" id="id-52949"><g id="id-52950"><path d=" M 38,0 C 56,6 65,8 65,8 C 65,20 65,26 65,26 C 73,26 78,26 78,26 C 73,47 71,57 71,57 C 70,73 69,81 69,81 C 75,88 78,91 78,91 C 79,116 79,141 77,166 C 57,165 47,165 47,165 C 46,170 46,173 46,173 C 38,173 28,174 15,176 C 5,161 0,153 0,153 C 17,98 25,71 25,71 L 26,48 C 34,16 38,0 38,0 Z" fill="#020511" id="id-52951"></path><path d=" M 49,54 C 32,49 23,47 23,47 C 28,25 31,14 31,14 L 57,21 C 52,43 49,54 49,54 Z" id="id-52952"></path><path d=" M 61,32 C 65,29 68,28 69,28 C 69,47 50,92 77,107 C 66,111 60,113 60,113 C 61,109 61,107 61,107 L 52,87 C 58,63 62,44 61,32 Z" fill="#252D42" id="id-52953"></path><path d=" M 60,113 C 59,140 59,154 59,154 L 76,154 L 77,107 C 66,111 60,113 60,113 Z" fill="#2E3853" id="id-52954"></path><path d=" M 69,135 C 62,145 59,150 59,150 C 62,157 64,160 64,160 C 61,186 59,198 59,198 C 62,198 63,198 63,198 C 66,173 68,161 68,161 L 75,153 L 69,135 Z" fill="#8E116D" id="id-52955"></path><path d=" M 4,154 C 2,154 1,154 1,154 C 15,193 22,213 22,213 C 45,223 56,228 56,228 C 57,225 58,224 58,224 L 24,210 C 11,172 4,154 4,154 Z" fill="#8E136E" id="id-52956"></path><path d=" M 23,205 C 24,210 24,212 24,212 C 40,202 49,197 49,197 L 46,192 C 31,201 23,205 23,205 Z" fill="#020511" id="id-52957"></path><path d=" M 52,190 C 55,197 44,203 65,212 C 59,222 56,228 56,228 C 72,229 79,230 79,230 C 79,226 78,224 78,224 C 77,222 76,221 76,221 C 85,219 90,218 90,218 C 89,209 88,205 88,205 C 78,204 73,204 73,204 C 72,205 71,206 71,206 L 71,191 C 58,190 52,190 52,190 Z" fill="#020511" id="id-52958"></path></g><g transform=" translate(529,2)" id="id-52959"><path d=" M 70,0 C 47,6 36,9 36,9 C 36,21 36,27 36,27 C 29,30 25,31 25,31 C 28,49 30,58 30,58 C 20,82 15,94 15,94 C 19,135 20,155 20,155 C 35,155 43,155 43,155 C 43,149 43,146 43,146 C 45,150 47,154 45,162 C 70,160 82,158 82,158 C 79,144 77,132 77,122 C 76,107 74,82 73,47 C 71,19 70,3 70,0 Z" fill="#020511" id="id-52960"></path><path d=" M 59,159 C 56,118 55,97 55,97 C 62,91 66,88 66,88 C 66,44 66,20 65,16 C 69,15 71,15 71,15 C 72,62 71,110 77,158 C 65,159 59,159 59,159 Z" fill="#2E3853" id="id-52961"></path><path d=" M 76,14 C 59,17 50,18 50,18 C 49,39 48,50 48,50 L 76,45 C 76,24 76,14 76,14 Z" fill="#A68D8D" id="id-52962"></path><path d=" M 26,190 C 36,189 41,189 41,189 C 42,180 42,175 42,175 L 22,175 C 24,185 26,190 26,190 Z" fill="#020511" id="id-52963"></path><path d=" M 36,128 C 30,138 26,143 26,143 C 31,148 33,151 33,151 C 31,171 31,181 31,181 C 34,180 35,180 35,180 C 36,161 36,152 36,152 L 43,142 C 38,133 36,128 36,128 Z" fill="#8E116D" id="id-52964"></path><path d=" M 17,191 C 19,199 20,202 20,202 C 24,200 27,200 27,200 C 31,210 32,216 32,216 C 18,222 10,225 10,225 C 10,222 10,219 10,216 C 3,215 0,215 0,215 L 4,206 L 1,203 L 5,195 C 13,193 17,191 17,191 Z" fill="#020511" id="id-52965"></path><path d=" M 37,192 C 40,190 41,189 41,189 C 54,197 61,201 61,201 L 55,209 C 43,198 37,192 37,192 Z" fill="#020511" id="id-52966"></path><path d=" M 31,211 C 32,214 32,216 32,216 C 40,218 44,219 44,219 C 53,211 57,207 57,207 C 54,207 53,207 53,207 L 44,215 L 31,211 Z" fill="#8E156F" id="id-52967"></path><path d=" M 56,204 C 58,205 59,205 59,205 C 76,177 85,163 85,163 C 81,158 80,156 80,156 C 79,159 79,161 79,161 L 81,163 C 64,191 56,204 56,204 Z" fill="#8D106C" id="id-52968"></path></g></g><defs><linearGradient x1="81%" y1="60%" x2="35%" y2="41%" id="id-53473"><stop stop-color="#AEBCDF" offset="0%"></stop><stop stop-color="#AEBDE3" offset="100%" stop-opacity="0"></stop></linearGradient><linearGradient x1="50%" y1="1%" x2="50%" y2="100%" id="id-53474"><stop stop-color="#9FABC9" offset="0%" stop-opacity="0"></stop><stop stop-color="#9FABC9" offset="50%"></stop><stop stop-color="#9FABC9" offset="100%" stop-opacity="0"></stop></linearGradient><linearGradient x1="56%" y1="11%" x2="40%" y2="84%" id="id-53475"><stop stop-color="#ADBBDE" offset="0%"></stop><stop stop-color="#AEBFE2" offset="100%" stop-opacity="0"></stop></linearGradient></defs><g transform=" translate(527,892)" id="id-53476"><path d=" M 0,81 C 0,81 256,81 256,81 C 256,105 255,123 254,133 C 186,133 90,135 0,133 C 0,110 0,81 0,81 Z" fill="#700002" id="id-53477"></path><path d=" M 68,81 C 59,99 54,109 54,109 L 100,108 L 49,134 C 127,134 166,134 166,134 C 191,128 204,125 204,125 C 216,108 222,99 222,99 L 208,99 L 243,81 C 126,81 68,81 68,81 Z" fill="#9C0817" id="id-53478"></path><path d=" M 2,81 C 21,81 28,81 45,81 C 45,107 89,154 138,196 C 200,250 275,297 303,283 C 304,292 304,292 305,301 C 303,312 303,316 309,324 C 312,349 316,373 319,397 C 290,405 259,400 228,381 C 132,326 13,174 2,81 Z" fill="#700002" id="id-53479"></path><path d=" M 310,400 C 311,397 311,386 311,386 L 318,389 C 315,368 312,346 309,324 C 304,318 303,312 305,301 C 304,295 303,289 303,283 L 228,262 L 221,377 C 251,397 281,404 310,400 Z" fill="#4F0101" id="id-53480"></path><path d=" M 24,133 L 60,117 C 60,117 60,118 62,120 C 62,120 60,124 56,134 C 56,134 62,134 74,135 C 74,135 61,139 61,139 C 69,146 72,149 72,149 C 68,159 66,164 66,164 C 55,154 50,149 50,149 L 38,177 C 27,154 21,143 21,143 C 22,138 23,136 23,136 L 17,134 L 24,133 Z" fill="#4E0000" id="id-53481"></path><path d=" M 31,102 C 41,101 53,100 53,100 C 56,107 58,112 59,113 C 46,147 28,179 3,208 C 14,172 23,137 31,102 Z" fill="#82879A" id="id-53482"></path><path d=" M 107,198 C 99,190 96,186 96,186 C 101,171 103,164 103,164 C 95,155 91,151 91,151 C 74,198 66,221 66,221 C 74,232 78,238 78,238 C 88,208 93,193 93,193 L 105,203 C 106,200 107,198 107,198 Z" fill="#4E0001" id="id-53483"></path><path d=" M 25,110 C 50,111 62,112 62,112 C 54,131 50,141 50,141 L 21,128 C 23,116 25,110 25,110 Z" fill="#9C0816" id="id-53484"></path><path d=" M 27,278 C 52,222 72,121 72,121 C 87,121 95,121 95,121 C 96,130 100,137 107,143 C 90,188 72,249 27,278 Z" fill="#808696" id="id-53485"></path><path d=" M 116,285 C 136,231 146,204 146,204 C 132,191 125,185 125,185 L 99,266 C 111,279 116,285 116,285 Z" fill="#4E0000" id="id-53486"></path><path d=" M 45,362 C 59,339 73,305 90,254 C 100,225 113,162 113,162 C 129,160 138,159 138,159 C 140,168 144,175 150,178 C 130,237 106,292 76,343 C 60,354 50,361 45,362 Z" fill="#808696" id="id-53487"></path><path d=" M 177,345 C 200,283 211,252 211,252 C 199,244 193,240 193,240 L 159,329 C 171,340 177,345 177,345 Z" fill="#4E0000" id="id-53488"></path><path d=" M 160,211 C 172,211 175,211 187,212 C 194,230 216,231 216,231 C 194,290 172,336 151,368 C 131,385 111,398 92,409 C 120,362 143,296 160,211 Z" fill="#9FAECC" id="id-53489"></path><path d=" M 257,256 C 257,256 273,273 297,259 C 304,333 306,368 299,469 C 290,465 254,455 227,414 C 230,361 231,312 229,266 L 229,266 Z M 238,404 C 236,404 233,406 233,409 C 233,412 236,414 238,414 C 241,414 243,412 243,409 C 243,406 241,404 238,404 Z" fill="#808696" id="id-53490"></path><path d=" M 192,291 L 150,255 L 160,211 C 170,211 178,211 187,212 C 191,223 201,229 216,231 C 200,271 192,291 192,291 Z" fill="#808696" id="id-53491"></path><path d=" M 154,224 C 151,238 150,245 150,245 C 182,269 198,281 198,281 L 208,257 C 172,235 154,224 154,224 Z" fill="#9C0816" id="id-53492"></path><path d=" M 31,110 L 26,130 L 21,128 L 25,110 C 29,110 31,110 31,110 Z" fill="#C63C32" id="id-53493"></path><path d=" M 150,178 C 119,193 103,200 103,200 C 98,228 92,251 84,270 C 93,272 103,272 115,268 C 138,208 150,178 150,178 Z" fill="url(#id-53473)" id="id-53494"></path><path d=" M 162,228 L 156,250 L 150,245 L 154,224 C 159,227 162,228 162,228 Z" fill="#C63C32" id="id-53495"></path><path d=" M 289,263 C 293,313 293,380 288,464 C 291,466 294,467 299,469 C 305,400 305,330 297,259 C 295,261 292,263 289,263 Z" fill="#AFBFE3" id="id-53496"></path><path d=" M 106,178 C 102,195 100,203 100,203 C 123,223 134,233 134,233 L 143,206 C 118,187 106,178 106,178 Z" fill="#9C0816" id="id-53497"></path><path d=" M 292,351 C 268,384 249,409 235,426 C 229,418 226,414 226,414 L 230,337 L 289,263 C 292,299 293,328 292,351 Z" fill="url(#id-53474)" id="id-53498"></path><path d=" M 223,269 C 221,287 221,295 221,295 C 245,310 258,317 258,317 L 272,280 C 239,273 223,269 223,269 Z" fill="#9C0816" id="id-53499"></path><path d=" M 69,135 C 84,132 95,140 102,157 C 92,192 64,240 64,240 L 54,197 C 64,155 69,135 69,135 Z" fill="url(#id-53475)" id="id-53500"></path><path d=" M 66,140 C 62,157 60,166 60,166 C 80,184 90,193 90,193 L 100,167 C 77,149 66,140 66,140 Z" fill="#9C0816" id="id-53501"></path><path d=" M 70,143 L 63,168 L 60,166 L 66,140 C 68,142 70,143 70,143 Z" fill="#C63C32" id="id-53502"></path><path d=" M 31,102 C 37,102 44,101 53,100 C 45,58 74,33 80,27 C 78,17 72,8 64,0 C 50,22 39,56 31,102 Z" fill="#132237" id="id-53503"></path><path d=" M 226,270 L 224,297 L 221,295 L 223,269 C 225,270 226,270 226,270 Z" fill="#C43D32" id="id-53504"></path><path d=" M 72,121 C 80,121 86,121 95,121 C 95,91 111,69 120,56 C 118,44 112,34 104,27 C 90,50 79,82 72,121 Z" fill="#132237" id="id-53505"></path><path d=" M 114,183 L 105,207 L 100,203 L 106,178 C 111,181 114,183 114,183 Z" fill="#C63C32" id="id-53506"></path><path d=" M 113,162 C 123,160 128,160 138,159 C 134,123 156,104 166,87 C 163,72 159,61 152,53 C 133,81 120,117 113,162 Z" fill="#132237" id="id-53507"></path><path d=" M 161,211 C 169,211 187,212 187,212 C 180,186 192,155 223,120 C 219,107 211,99 202,95 C 181,125 167,163 161,211 Z" fill="#132237" id="id-53508"></path><path d=" M 257,256 C 242,262 238,262 229,266 C 223,189 225,172 236,136 C 246,135 257,137 269,142 C 243,196 239,234 257,256 Z" fill="#132237" id="id-53509"></path></g><defs><linearGradient x1="100%" y1="50%" x2="0%" y2="50%" id="id-61818"><stop stop-color="#FFFFFF" offset="0%"></stop><stop stop-color="#E8D7FC" offset="100%"></stop></linearGradient></defs><g transform=" translate(629,470)" id="id-61819"><path d=" M 0,16 L 4,25 L 13,25 C 21,20 26,17 26,17 C 33,17 37,17 37,17 C 44,22 48,25 48,25 L 53,24 L 50,19 C 46,14 43,11 43,9 C 15,14 0,16 0,16 Z" fill="#110707" opacity="0.209" id="id-61820"></path><path d=" M 0,14 C -1,22 0,26 2,26 C 11,24 15,23 15,23 C 22,18 26,16 26,16 C 33,16 37,16 37,16 C 44,20 47,22 47,22 C 55,26 59,28 59,28 C 62,23 64,19 64,15 C 53,11 47,9 47,9 C 40,3 37,0 37,0 C 30,0 26,0 26,0 L 15,10 C 5,12 0,14 0,14 Z" fill="url(#id-61818)" id="id-61820"></path><polygon points="15 10 15 23 26 16 26 0" fill="#CCBEEF" id="id-61822"></polygon><path d=" M 18,9 C 18,15 18,18 18,18 C 22,16 25,14 25,14 C 33,14 37,15 37,15 C 42,17 44,19 44,19 C 45,12 45,9 45,9 C 40,5 38,3 38,3 L 25,3 C 21,7 18,9 18,9 Z" fill="#FDC8CC" id="id-61823"></path><polygon points="25 3 25 14 37 15 38 3" fill="#FFD5D5" id="id-61824"></polygon></g><defs><linearGradient x1="87%" y1="50%" x2="18%" y2="83%" id="id-63658"><stop stop-color="#7C0041" offset="0%"></stop><stop stop-color="#430019" offset="100%"></stop></linearGradient><linearGradient x1="100%" y1="34%" x2="15%" y2="60%" id="id-63659"><stop stop-color="#740123" offset="0%"></stop><stop stop-color="#990039" offset="100%"></stop></linearGradient><linearGradient x1="94%" y1="72%" x2="82%" y2="42%" id="id-63660"><stop stop-color="#44001B" offset="0%"></stop><stop stop-color="#820144" offset="100%"></stop></linearGradient><linearGradient x1="56%" y1="85%" x2="43%" y2="10%" id="id-63661"><stop stop-color="#44001B" offset="0%"></stop><stop stop-color="#820144" offset="100%"></stop></linearGradient></defs><g transform=" translate(522,256)" id="id-63662"><g id="id-63663"><path d=" M 17,74 C 29,79 43,82 59,83 C 81,89 94,89 99,83 L 80,48 C 67,43 58,40 52,36 C 38,47 26,60 17,74 Z" fill="#CD0047" id="id-63664"></path><path d=" M 68,136 C 68,136 69,141 70,145 C 68,146 64,138 63,139 C 69,146 68,152 61,158 C 63,157 65,156 66,155 C 64,159 58,167 58,168 C 59,169 68,160 68,160 C 59,172 57,182 57,182 C 58,207 58,220 58,220 C 54,211 53,207 53,207 C 53,200 43,132 68,108 C 68,112 68,124 68,136 Z" fill="#3E0015" id="id-63665"></path><path d=" M 96,38 C 116,50 141,62 170,73 C 176,61 180,45 184,25 C 174,16 167,11 147,0 C 137,3 125,8 111,14 C 102,27 97,35 96,38 Z" fill="#CD0047" id="id-63666"></path><path d=" M 126,68 C 123,59 121,50 122,42 C 122,42 124,41 127,39 L 127,25 C 135,20 144,22 155,30 C 150,32 144,37 143,38 C 150,39 156,44 160,54 C 165,61 168,62 168,72 C 174,73 184,82 189,86 C 166,96 144,103 143,101 C 142,102 141,109 139,112 C 133,102 123,101 112,94 C 117,93 125,92 126,91 C 122,91 108,91 103,90 C 106,95 122,113 110,106 C 110,107 113,111 114,115 C 101,120 102,115 91,113 C 91,114 97,120 98,121 C 98,122 85,121 83,121 C 81,122 87,123 90,124 C 86,126 79,129 73,134 C 71,131 71,125 71,118 C 65,116 59,117 71,104 C 71,101 71,100 71,98 C 64,99 58,95 53,88 C 54,85 54,81 55,78 C 51,76 50,72 51,66 C 50,64 50,61 51,58 C 53,57 55,58 57,60 C 60,55 63,53 66,54 C 65,56 64,60 63,66 L 76,61 L 79,68 L 87,72 L 94,85 L 126,68 Z" fill="url(#id-63658)" id="id-63665"></path><path d=" M 202,55 C 221,50 237,50 251,57 C 259,67 262,75 261,80 C 235,88 220,89 216,83 C 207,82 201,77 197,70 L 202,55 Z" fill="#CD0047" id="id-63668"></path><path d=" M 0,165 C 7,158 14,151 22,144 C 19,140 10,132 22,125 C 25,126 27,141 27,141 C 37,143 43,143 43,143 C 47,134 49,130 49,130 C 50,134 50,136 50,136 C 51,131 52,126 53,120 C 42,117 41,121 39,123 C 38,121 36,118 30,118 C 29,112 6,127 1,130 C 0,143 0,165 0,165 Z" fill="url(#id-63659)" id="id-63669"></path><path d=" M 160,54 C 158,55 153,57 145,59 C 137,52 132,46 129,41 C 132,39 136,37 142,34 C 135,31 131,28 131,23 C 137,19 150,26 155,30 C 151,32 147,35 143,38 C 153,40 159,45 160,54 Z" fill="#9B003A" id="id-63670"></path><path d=" M 65,87 C 70,91 74,94 77,95 C 86,90 86,89 92,80 C 86,67 87,67 77,69 C 76,67 76,65 77,61 L 65,56 C 62,64 60,68 58,70 C 61,71 65,71 71,71 C 69,76 68,79 67,80 C 74,81 80,78 82,78 C 79,82 74,86 65,87 Z" fill="#790127" id="id-63671"></path><path d=" M 151,112 C 159,107 173,101 192,97 L 178,97 C 186,90 190,87 190,87 C 189,70 192,73 206,64 C 212,60 217,57 221,56 L 232,61 C 228,87 222,99 215,97 C 214,100 214,105 211,108 C 208,112 199,111 184,104 C 165,109 154,112 151,112 Z" fill="url(#id-63660)" id="id-63665"></path><path d=" M 213,106 C 212,114 212,120 213,125 L 192,133 C 195,129 197,127 200,125 C 181,133 189,128 173,116 C 177,115 180,115 185,113 C 174,114 169,120 170,108 C 166,118 163,111 151,112 C 161,108 174,102 192,98 C 198,103 205,106 213,106 Z" fill="#A4003F" id="id-63665"></path><path d=" M 199,79 C 200,79 203,80 207,81 C 205,77 204,74 205,71 C 207,67 211,67 218,71 C 217,64 218,59 222,57 C 227,59 231,61 232,61 C 229,80 226,85 223,91 C 218,91 213,92 207,92 C 202,86 199,82 199,79 Z" fill="#A5003D" id="id-63674"></path><path d=" M 55,143 C 57,142 63,138 68,136 C 68,131 68,126 68,120 C 61,132 57,139 55,143 Z" fill="#740123" id="id-63675"></path><path d=" M 108,117 C 110,117 112,117 114,115 L 110,106 L 120,114 L 131,110 C 118,102 109,95 103,91 C 94,89 86,90 95,104 C 91,103 87,104 82,105 C 91,110 99,114 108,117 Z" fill="#85002D" id="id-63676"></path><path d=" M 142,115 C 161,97 175,87 186,83 C 176,74 166,73 157,81 C 157,78 159,74 160,70 C 152,72 152,80 132,74 C 135,87 138,99 140,110 L 143,101 L 142,115 Z" fill="#A2013F" id="id-63677"></path><path d=" M 120,71 C 122,76 123,77 126,80 C 132,78 140,75 151,71 C 147,72 144,73 141,73 C 135,71 130,68 125,67 C 124,69 122,71 120,71 Z" fill="#4C0122" id="id-63678"></path><path d=" M 190,86 C 190,87 190,88 190,90 L 178,96 L 192,96 C 174,101 163,104 160,105 C 162,104 190,82 190,86 Z" fill="#4E0120" id="id-63679"></path><path d=" M 227,128 C 230,126 251,108 255,107 C 275,119 288,135 295,146 L 265,159 C 248,158 236,148 227,128 Z" fill="#98013A" id="id-63665"></path><path d=" M 297,148 C 297,149 297,150 298,150 C 294,155 301,200 296,223 C 286,228 283,227 276,227 C 272,176 254,158 297,148 Z" fill="#790127" id="id-63665"></path><path d=" M 264,113 C 259,117 257,135 258,143 C 262,147 274,148 295,146 C 286,132 276,121 264,113 Z" fill="#CD0047" id="id-63682"></path><path d=" M 265,203 C 270,219 272,235 273,251 L 249,246 L 239,219 C 251,207 259,202 265,203 Z" fill="#990039" id="id-63683"></path><path d=" M 259,315 C 252,315 245,314 240,314 C 245,289 243,229 273,246 C 274,254 275,263 275,272 L 259,315 Z" fill="#790127" id="id-63684"></path><path d=" M 225,192 C 224,205 223,213 222,218 C 221,222 219,225 218,228 C 226,156 214,154 210,141 C 212,142 214,143 217,145 C 214,141 211,136 207,131 C 219,130 216,129 215,116 C 215,112 221,117 227,124 L 230,120 L 239,120 L 241,118 L 252,118 L 261,137 L 261,145 L 251,150 C 249,149 246,148 244,146 C 240,148 237,149 234,150 C 231,162 230,171 229,178 C 236,183 244,188 250,194 C 250,195 250,196 249,198 C 253,200 256,203 259,206 C 259,210 256,215 250,220 C 248,220 246,219 245,218 C 243,220 241,221 238,220 L 236,199 L 230,191 L 225,192 Z" fill="url(#id-63661)" id="id-63665"></path><path d=" M 209,134 C 214,135 220,136 226,137 L 225,121 L 216,112 L 212,111 L 215,116 C 216,128 220,131 207,131 C 208,133 209,133 209,134 Z" fill="#970138" id="id-63686"></path><path d=" M 227,123 C 228,129 229,136 230,142 L 244,141 L 245,127 L 249,138 C 254,138 258,138 261,138 C 263,138 249,107 239,120 C 237,120 234,120 230,120 C 229,121 228,122 227,123 Z" fill="#970138" id="id-63687"></path><path d=" M 234,182 C 235,192 244,198 249,199 C 244,210 253,210 257,212 C 258,211 259,209 259,207 C 256,203 253,200 249,198 C 250,197 250,196 250,194 C 244,189 239,184 234,182 Z" fill="#7A0027" id="id-63688"></path></g><g transform=" translate(22,2)" id="id-63689"><path d=" M 0,233 C -1,225 1,206 4,196 C 5,197 7,200 10,205 C 13,203 15,202 17,202 C 20,210 4,227 0,233 Z" fill="#990039" id="id-63690"></path><path d=" M 127,44 C 123,48 122,52 123,54 C 125,55 130,53 137,49 C 133,45 130,43 127,44 Z" fill="#CE0147" id="id-63691"></path><path d=" M 41,64 C 42,64 47,62 54,59 C 50,52 47,49 45,50 C 43,51 40,60 41,64 Z" fill="#BF0140" id="id-63692"></path><path d=" M 167,98 C 167,104 167,114 167,117 C 174,113 183,114 182,106 C 182,106 171,101 167,98 Z" fill="#CD0147" id="id-63693"></path><polygon points="151 110 159 104 159 110" fill="#CE0049" id="id-63694"></polygon><path d=" M 11,127 L 4,129 C 1,119 3,115 11,117 C 11,118 11,121 11,127 Z" fill="#BC013E" id="id-63695"></path><path d=" M 207,75 C 208,73 210,69 212,62 L 206,53 L 228,55 L 231,71 C 220,74 212,76 207,75 Z" fill="#FF5888" id="id-63696"></path><polygon points="124 1 123 19 137 31 159 24" fill="#FF5888" id="id-63697"></polygon><path d=" M 36,54 C 43,49 56,53 56,47 C 51,44 41,41 29,38 C 31,43 33,48 36,54 Z" fill="#FF5888" id="id-63698"></path><polygon points="209 124 218 124 216 118 210 118" fill="#C90044" id="id-63699"></polygon><path d=" M 220,116 L 224,125 L 234,125 C 234,125 234,124 234,124 C 232,121 229,118 226,116 L 220,116 Z" fill="#C90044" id="id-63700"></path><path d=" M 231,199 C 227,203 229,206 237,208 L 237,205 C 233,200 231,198 231,199 Z" fill="#BC0042" id="id-63701"></path></g><g transform=" translate(28,29)" id="id-63702"><path d=" M 49,32 C 44,40 42,43 32,47 C 32,48 32,49 32,51 C 40,50 45,47 49,46 C 50,43 51,41 53,38 C 51,36 50,34 49,32 Z" fill="#EC8E25" id="id-63703"></path><path d=" M 45,37 C 43,40 41,42 37,45 C 38,45 41,47 42,48 C 45,47 47,46 49,46 C 50,44 50,43 51,41 C 49,40 47,38 45,37 Z" fill="#FFD76E" id="id-63704"></path><path d=" M 106,14 C 107,15 108,17 108,18 C 111,14 127,17 130,21 C 131,18 131,14 130,10 C 120,11 112,12 106,14 Z" fill="#EC8E25" id="id-63705"></path><path d=" M 115,16 C 117,16 120,17 123,18 C 125,15 126,12 126,11 C 121,11 117,12 115,12 C 114,14 115,15 115,16 Z" fill="#FFD76E" id="id-63706"></path><path d=" M 120,4 C 108,5 98,13 98,10 C 97,8 100,5 106,1 C 114,1 118,2 120,4 Z" fill="#EC8E25" id="id-63707"></path><path d=" M 114,5 C 112,6 110,6 109,7 C 107,5 106,3 105,2 C 106,2 106,1 106,1 C 110,1 113,1 114,2 C 114,4 114,4 114,5 Z" fill="#FFD76E" id="id-63708"></path><path d=" M 178,37 C 180,35 182,34 185,34 C 200,34 199,35 201,38 C 199,41 198,44 197,47 L 193,37 L 178,37 Z" fill="#EC8E25" id="id-63709"></path><path d=" M 186,34 C 200,34 199,35 201,38 C 201,38 201,39 200,39 C 198,40 197,40 195,41 C 195,41 194,39 193,37 L 185,37 C 186,35 186,34 186,34 Z" fill="#FFD76E" id="id-63710"></path><path d=" M 6,159 C 4,167 7,176 13,185 C 8,186 5,185 5,184 C 1,175 -3,169 6,159 Z" fill="#EC8E23" id="id-63711"></path><path d=" M 5,163 C 5,167 6,171 7,174 C 6,176 4,176 3,178 C 1,174 0,170 1,166 C 3,165 5,164 5,163 Z" fill="#FFD76E" id="id-63712"></path><path d=" M 8,125 C 11,121 14,116 15,114 C 13,110 11,101 12,90 C 3,111 1,119 8,125 Z" fill="#EC8E23" id="id-63713"></path><path d=" M 13,111 C 12,107 11,101 11,95 C 11,95 10,96 9,97 C 6,104 5,109 4,113 C 9,115 13,112 13,111 Z" fill="#FFD76E" id="id-63714"></path><path d=" M 216,88 C 223,90 232,102 233,108 C 236,103 236,102 238,95 C 232,89 226,84 216,88 Z" fill="#EC8E25" id="id-63715"></path><path d=" M 220,90 C 223,92 225,94 227,96 C 233,96 228,97 238,96 C 238,96 238,96 238,95 C 234,92 231,88 226,87 C 224,87 220,89 220,90 Z" fill="#FFD76E" id="id-63716"></path><path d=" M 218,177 C 219,178 220,179 221,179 C 227,185 230,189 231,193 C 233,191 235,188 236,184 L 227,178 L 218,177 Z" transform=" translate(227,185) rotate(79) translate(-227,-185)" fill="#EC8E25" id="id-63715"></path><path d=" M 224,184 C 226,186 228,189 229,191 C 234,184 233,184 229,181 C 226,182 227,184 224,184 Z" transform=" translate(228,186) rotate(79) translate(-228,-186)" fill="#FFD76E" id="id-63716"></path></g></g><defs></defs><path d=" M 1205,1652 C 1205,1650 1206,1648 1207,1647 C 1202,1647 1198,1649 1194,1652 C 1191,1656 1189,1660 1189,1665 C 1189,1670 1191,1675 1194,1678 C 1198,1682 1202,1684 1207,1684 C 1209,1684 1210,1683 1211,1683 L 1211,1683 C 1212,1683 1213,1683 1214,1682 L 1217,1688 C 1215,1688 1214,1689 1212,1689 L 1212,1689 C 1211,1689 1209,1690 1208,1690 L 1208,1708 L 1249,1708 L 1249,1690 C 1248,1689 1247,1689 1246,1689 C 1245,1689 1243,1689 1242,1688 L 1244,1683 C 1245,1683 1246,1683 1247,1683 C 1248,1683 1249,1684 1250,1684 C 1255,1684 1259,1681 1263,1678 C 1266,1675 1268,1670 1268,1665 C 1268,1660 1266,1655 1263,1652 C 1259,1649 1255,1647 1251,1647 C 1252,1650 1253,1654 1253,1657 L 1247,1657 C 1247,1652 1245,1648 1242,1644 C 1238,1641 1234,1639 1229,1639 C 1224,1639 1220,1640 1217,1643 C 1214,1645 1212,1649 1211,1653 L 1205,1652 L 1205,1652 Z M 1202,1689 C 1197,1688 1193,1685 1190,1682 C 1186,1678 1183,1672 1183,1665 C 1183,1658 1186,1652 1190,1648 C 1195,1644 1201,1641 1207,1641 C 1208,1641 1210,1641 1211,1641 C 1212,1640 1213,1639 1214,1638 C 1218,1635 1223,1633 1229,1633 C 1235,1633 1242,1636 1246,1640 C 1246,1640 1246,1641 1247,1641 C 1247,1641 1247,1641 1247,1641 C 1248,1641 1249,1641 1250,1641 C 1256,1641 1262,1644 1267,1648 C 1271,1652 1274,1658 1274,1665 C 1274,1672 1271,1678 1267,1682 C 1264,1686 1260,1688 1255,1689 L 1255,1714 L 1202,1714 L 1202,1689 L 1202,1689 Z" fill="#343D53" opacity="0.300" id="id-77013" fill-rule="nonzero"></path></svg>