<?xml version="1.0" encoding="UTF-8"?><svg width="1320px" height="1760px" viewBox="0 0 1320 1760" version="1.1" xmlns="http://www.w3.org/2000/svg" xmlns:xlink="http://www.w3.org/1999/xlink"><defs><linearGradient x1="50%" y1="50%" x2="50%" y2="100%" id="id-30447"><stop stop-color="#CBCFDA" offset="0%"></stop><stop stop-color="#CBCFDA" offset="100%"></stop><stop stop-color="#CBCFDA" offset="100%"></stop></linearGradient></defs><g stroke="none" stroke-width="1" fill="none" id="id-30448" fill-rule="evenodd"><g id="id-30449"><g id="id-30450"><rect fill="url(#id-30447)" width="1320" height="1760" x="0" y="0" id="id-30451"></rect><g transform=" translate(143,346)" fill="#FFFFFF" id="id-30452"><path d=" M 211,114 C 377,-11 604,-33 770,47 C 796,70 821,56 828,29 C 828,29 832,91 841,215 L 841,215 L 841,215 C 841,209 842,138 842,0 L 842,0 L 842,0 C 843,3 863,53 902,150 C 920,168 933,187 945,205 L 947,207 C 948,209 950,211 951,214 C 966,252 972,295 978,337 C 978,337 981,317 986,278 C 1060,439 1065,594 1000,746 L 1000,746 L 1000,746 C 1000,745 1000,734 1001,710 C 986,759 960,805 925,850 C 925,850 934,845 951,835 C 951,835 951,835 951,835 L 951,835 C 950,836 940,849 920,875 C 920,875 912,915 896,995 C 896,995 895,926 893,789 L 893,789 L 893,789 C 892,789 890,791 885,793 L 885,793 L 885,793 C 885,795 884,835 884,911 C 731,1052 520,1074 365,1011 C 365,1011 353,1027 330,1058 L 330,1058 L 330,1058 C 330,1057 330,1033 331,986 C 324,979 318,974 313,968 C 313,968 309,1028 301,1149 C 301,1149 298,1092 294,978 C 250,951 211,922 179,888 C 176,892 174,897 173,903 C 173,903 171,955 167,1060 C 162,981 160,947 140,894 C 128,871 115,844 103,817 L 100,811 C 94,798 89,786 83,774 C 101,807 126,843 156,882 L 156,882 L 155,863 C -2,681 -41,428 116,210 C 135,190 151,171 167,152 L 170,149 L 170,149 L 173,145 C 176,142 179,139 182,135 C 182,135 182,135 182,135 L 182,135 C 182,136 182,143 182,155 C 182,155 184,154 187,152 C 187,152 186,114 185,40 C 185,40 193,65 211,114 Z M 885,607 L 881,721 L 890,713 C 890,713 888,678 885,607 L 885,607 Z" id="id-30453"></path><path d=" M 740,1028 L 718,1024 C 718,1024 788,993 788,993 L 743,1039 C 745,1031 743,1028 740,1028 Z" id="id-30454"></path><path d=" M 719,1044 C 711,1052 707,1056 707,1056 L 730,1065 C 722,1051 719,1044 719,1044 Z" id="id-30455"></path><path d=" M 683,1098 C 696,1087 702,1082 702,1082 L 696,1109 C 687,1101 683,1098 683,1098 Z" id="id-30456"></path><path d=" M 683,1059 C 663,1047 653,1042 653,1042 L 700,1028 C 689,1049 683,1059 683,1059 Z" id="id-30457"></path><path d=" M 46,302 C 15,355 0,382 0,382 C 5,389 7,392 7,392 C 1,433 1,467 6,496 C 7,422 20,357 46,302 Z" id="id-30458"></path></g></g><rect fill="#A1AAC3" width="37" height="134" x="0" y="0" id="id-30451"></rect><rect fill="#A1AAC3" width="37" height="134" x="0" y="813" id="id-30451"></rect><rect fill="#A1AAC3" width="37" height="134" x="0" y="1626" id="id-30451"></rect></g></g><defs><linearGradient x1="100%" y1="46%" x2="12%" y2="47%" id="id-74421"><stop stop-color="#C5663D" offset="0%"></stop><stop stop-color="#C1633A" offset="21%"></stop><stop stop-color="#EDA377" offset="46%"></stop><stop stop-color="#EB8C5C" offset="80%"></stop><stop stop-color="#DC7E50" offset="100%"></stop></linearGradient><linearGradient x1="53%" y1="81%" x2="50%" y2="21%" id="id-74422"><stop stop-color="#CD6C5B" offset="0%"></stop><stop stop-color="#DE7862" offset="24%"></stop><stop stop-color="#DF8352" offset="100%"></stop></linearGradient><linearGradient x1="52%" y1="-4%" x2="46%" y2="70%" id="id-74423"><stop stop-color="#BE6352" offset="0%"></stop><stop stop-color="#B25041" offset="100%"></stop></linearGradient><linearGradient x1="46%" y1="43%" x2="15%" y2="43%" id="id-74424"><stop stop-color="#DF8655" offset="0%"></stop><stop stop-color="#B95831" offset="100%"></stop></linearGradient><linearGradient x1="54%" y1="37%" x2="12%" y2="72%" id="id-74425"><stop stop-color="#3C050A" offset="0%"></stop><stop stop-color="#9A4336" offset="100%"></stop></linearGradient><linearGradient x1="40%" y1="14%" x2="61%" y2="85%" id="id-74426"><stop stop-color="#6E1B17" offset="0%"></stop><stop stop-color="#852720" offset="100%"></stop></linearGradient><linearGradient x1="27%" y1="47%" x2="91%" y2="49%" id="id-74427"><stop stop-color="#E19D89" offset="0%"></stop><stop stop-color="#FFBBA2" offset="100%"></stop></linearGradient><linearGradient x1="47%" y1="60%" x2="49%" y2="79%" id="id-74428"><stop stop-color="#E78666" offset="0%"></stop><stop stop-color="#E07C62" offset="60%"></stop><stop stop-color="#ED9F7D" offset="100%"></stop></linearGradient><linearGradient x1="29%" y1="56%" x2="69%" y2="53%" id="id-74429"><stop stop-color="#D47D53" offset="0%"></stop><stop stop-color="#C86443" offset="8%"></stop><stop stop-color="#D9774F" offset="18%"></stop><stop stop-color="#D26B50" offset="38%"></stop><stop stop-color="#D1694C" offset="65%"></stop><stop stop-color="#CD6944" offset="81%"></stop><stop stop-color="#BE5B3F" offset="100%"></stop></linearGradient><linearGradient x1="47%" y1="45%" x2="54%" y2="46%" id="id-74430"><stop stop-color="#D26A4C" offset="0%"></stop><stop stop-color="#C96947" offset="62%"></stop><stop stop-color="#BC5B3A" offset="77%"></stop><stop stop-color="#D18459" offset="100%"></stop></linearGradient><linearGradient x1="51%" y1="7%" x2="50%" y2="100%" id="id-74431"><stop stop-color="#D26C48" offset="0%"></stop><stop stop-color="#E28F6D" offset="75%"></stop><stop stop-color="#DA876B" offset="100%"></stop></linearGradient><linearGradient x1="51%" y1="11%" x2="49%" y2="93%" id="id-74432"><stop stop-color="#DC7E50" offset="0%"></stop><stop stop-color="#DA7B4D" offset="73%"></stop><stop stop-color="#E08955" offset="100%"></stop></linearGradient><linearGradient x1="51%" y1="-5%" x2="48%" y2="96%" id="id-74433"><stop stop-color="#D8794C" offset="0%"></stop><stop stop-color="#C6683E" offset="100%"></stop></linearGradient><linearGradient x1="50%" y1="19%" x2="50%" y2="69%" id="id-74434"><stop stop-color="#A84C29" offset="0%"></stop><stop stop-color="#742F19" offset="45%"></stop><stop stop-color="#A54622" offset="100%"></stop></linearGradient><linearGradient x1="46%" y1="74%" x2="39%" y2="35%" id="id-74435"><stop stop-color="#B04F3A" offset="0%"></stop><stop stop-color="#C6644A" offset="51%"></stop><stop stop-color="#9F5738" offset="100%" stop-opacity="0"></stop></linearGradient><linearGradient x1="46%" y1="16%" x2="49%" y2="82%" id="id-74436"><stop stop-color="#9B473D" offset="0%" stop-opacity="0.186"></stop><stop stop-color="#5F2520" offset="100%"></stop></linearGradient><linearGradient x1="41%" y1="19%" x2="50%" y2="100%" id="id-74437"><stop stop-color="#BE614B" offset="0%"></stop><stop stop-color="#9E4237" offset="100%"></stop></linearGradient><linearGradient x1="50%" y1="31%" x2="45%" y2="50%" id="id-74438"><stop stop-color="#D06C41" offset="0%"></stop><stop stop-color="#EC8E5F" offset="100%"></stop></linearGradient><linearGradient x1="51%" y1="22%" x2="50%" y2="100%" id="id-74439"><stop stop-color="#B0483C" offset="0%"></stop><stop stop-color="#BD6558" offset="100%"></stop></linearGradient><linearGradient x1="49%" y1="0%" x2="50%" y2="100%" id="id-74440"><stop stop-color="#D47449" offset="0%"></stop><stop stop-color="#E27C59" offset="100%"></stop></linearGradient><linearGradient x1="44%" y1="15%" x2="50%" y2="100%" id="id-74441"><stop stop-color="#B75738" offset="0%"></stop><stop stop-color="#A6503C" offset="100%"></stop></linearGradient><linearGradient x1="52%" y1="21%" x2="49%" y2="83%" id="id-74442"><stop stop-color="#DE7B50" offset="0%"></stop><stop stop-color="#E7845D" offset="48%"></stop><stop stop-color="#E28D63" offset="100%"></stop></linearGradient><linearGradient x1="85%" y1="60%" x2="15%" y2="60%" id="id-74443"><stop stop-color="#D27044" offset="0%"></stop><stop stop-color="#C06137" offset="100%"></stop></linearGradient><linearGradient x1="50%" y1="-3%" x2="59%" y2="91%" id="id-74444"><stop stop-color="#CE754C" offset="0%"></stop><stop stop-color="#CA6B41" offset="53%"></stop><stop stop-color="#BF6138" offset="66%"></stop><stop stop-color="#B8522C" offset="100%"></stop></linearGradient><linearGradient x1="55%" y1="48%" x2="46%" y2="33%" id="id-74445"><stop stop-color="#CE6E44" offset="0%"></stop><stop stop-color="#DF8152" offset="86%"></stop><stop stop-color="#D37547" offset="100%"></stop></linearGradient><linearGradient x1="50%" y1="19%" x2="50%" y2="78%" id="id-74446"><stop stop-color="#913919" offset="0%"></stop><stop stop-color="#AB4722" offset="50%"></stop><stop stop-color="#842C26" offset="100%"></stop></linearGradient><linearGradient x1="50%" y1="10%" x2="50%" y2="43%" id="id-74447"><stop stop-color="#C26338" offset="0%"></stop><stop stop-color="#C4643B" offset="15%"></stop><stop stop-color="#993E1B" offset="68%"></stop><stop stop-color="#B7512B" offset="100%"></stop></linearGradient><linearGradient x1="89%" y1="50%" x2="7%" y2="52%" id="id-74448"><stop stop-color="#8C371B" offset="0%"></stop><stop stop-color="#B85C4D" offset="53%" stop-opacity="0.199"></stop><stop stop-color="#A3451F" offset="75%"></stop><stop stop-color="#8D381A" offset="100%"></stop></linearGradient><linearGradient x1="44%" y1="70%" x2="86%" y2="30%" id="id-74449"><stop stop-color="#E39165" offset="0%"></stop><stop stop-color="#F0A57A" offset="100%"></stop></linearGradient><linearGradient x1="33%" y1="92%" x2="62%" y2="23%" id="id-74450"><stop stop-color="#C15B34" offset="0%"></stop><stop stop-color="#D27347" offset="40%"></stop><stop stop-color="#EFA478" offset="100%"></stop></linearGradient><linearGradient x1="35%" y1="94%" x2="47%" y2="12%" id="id-74451"><stop stop-color="#DC8458" offset="0%"></stop><stop stop-color="#D77E53" offset="40%"></stop><stop stop-color="#ECA478" offset="100%"></stop></linearGradient><linearGradient x1="50%" y1="54%" x2="27%" y2="9%" id="id-74452"><stop stop-color="#F7AB80" offset="0%"></stop><stop stop-color="#DDAB90" offset="100%" stop-opacity="0.078"></stop></linearGradient><linearGradient x1="50%" y1="0%" x2="93%" y2="69%" id="id-74453"><stop stop-color="#E99A6F" offset="0%"></stop><stop stop-color="#DD8557" offset="70%"></stop><stop stop-color="#C56138" offset="100%"></stop></linearGradient><linearGradient x1="36%" y1="84%" x2="25%" y2="44%" id="id-74454"><stop stop-color="#C98762" offset="0%" stop-opacity="0.509"></stop><stop stop-color="#90492C" offset="35%" stop-opacity="0.675"></stop><stop stop-color="#762E17" offset="100%" stop-opacity="0"></stop></linearGradient><linearGradient x1="63%" y1="95%" x2="43%" y2="20%" id="id-74455"><stop stop-color="#D27146" offset="0%"></stop><stop stop-color="#E29562" offset="46%"></stop><stop stop-color="#D17045" offset="100%"></stop></linearGradient><linearGradient x1="40%" y1="0%" x2="50%" y2="86%" id="id-74456"><stop stop-color="#D87C4D" offset="0%"></stop><stop stop-color="#DD8253" offset="100%"></stop></linearGradient><linearGradient x1="50%" y1="0%" x2="50%" y2="92%" id="id-74457"><stop stop-color="#E58656" offset="0%"></stop><stop stop-color="#E39361" offset="100%"></stop></linearGradient><linearGradient x1="33%" y1="79%" x2="21%" y2="44%" id="id-74458"><stop stop-color="#BE6457" offset="0%"></stop><stop stop-color="#983F32" offset="28%" stop-opacity="0.928"></stop><stop stop-color="#762E17" offset="100%" stop-opacity="0"></stop></linearGradient><linearGradient x1="4%" y1="47%" x2="92%" y2="45%" id="id-74459"><stop stop-color="#752B0F" offset="0%"></stop><stop stop-color="#83391D" offset="17%" stop-opacity="0.753"></stop><stop stop-color="#9E4B3D" offset="48%" stop-opacity="0.386"></stop><stop stop-color="#94401F" offset="78%" stop-opacity="0.762"></stop><stop stop-color="#88391A" offset="100%"></stop></linearGradient><linearGradient x1="60%" y1="45%" x2="67%" y2="53%" id="id-74460"><stop stop-color="#D57A51" offset="0%"></stop><stop stop-color="#FFB49C" offset="100%"></stop></linearGradient><linearGradient x1="48%" y1="15%" x2="54%" y2="81%" id="id-74461"><stop stop-color="#D99776" offset="0%" stop-opacity="0.400"></stop><stop stop-color="#E59B75" offset="100%"></stop></linearGradient><linearGradient x1="47%" y1="44%" x2="50%" y2="61%" id="id-74462"><stop stop-color="#943B2F" offset="0%" stop-opacity="0.175"></stop><stop stop-color="#61301B" offset="100%"></stop></linearGradient><linearGradient x1="26%" y1="-7%" x2="50%" y2="96%" id="id-74463"><stop stop-color="#37373F" offset="0%"></stop><stop stop-color="#19191D" offset="100%"></stop></linearGradient><linearGradient x1="50%" y1="12%" x2="59%" y2="82%" id="id-74464"><stop stop-color="#252525" offset="0%"></stop><stop stop-color="#101010" offset="100%"></stop></linearGradient><linearGradient x1="25%" y1="-16%" x2="50%" y2="98%" id="id-74465"><stop stop-color="#37373F" offset="0%"></stop><stop stop-color="#19191D" offset="100%"></stop></linearGradient><linearGradient x1="75%" y1="39%" x2="50%" y2="93%" id="id-74466"><stop stop-color="#252525" offset="0%"></stop><stop stop-color="#000000" offset="100%"></stop></linearGradient></defs><g transform=" translate(334,549)" id="id-74467"><polygon points="561 754 565 871 565 881 537 893 533 897 535 901 532 909 543 910 597 864" fill="#560304" id="id-74468"></polygon><polygon points="537 282 539 246 535 195 529 158 522 137 484 118 440 111 212 111 188 113 157 123 121 139 111 186 108 221 109 290" fill="url(#id-74421)" id="id-74468"></polygon><polygon points="467 393 474 506 503 589 537 672 556 728 561 754 546 794 552 851 551 861 552 874 556 885 567 882 568 866 570 860 570 843 571 834 576 843 576 859 579 864 573 874 571 884 544 903 541 916 582 901 597 864 607 852 600 821 597 716 589 695 582 655 569 523 544 425" fill="url(#id-74422)" id="id-74468"></polygon><polygon points="546 794 552 851 551 861 552 874 556 885 567 882 568 866 570 860 570 843 571 834 576 843 576 859 579 864 573 874 571 884 544 903 541 916 582 901 597 864 583 871 588 855 573 815 561 823" fill="url(#id-74423)" id="id-74468"></polygon><polygon points="552 851 551 861 552 874 556 887 567 884 568 866 570 860 558 860" fill="#8A2C25" id="id-74468"></polygon><polygon points="544 906 541 916 582 901 571 889" fill="#92352A" id="id-74468"></polygon><polygon points="561 754 548 789 566 819 586 806" fill="#BD8171" id="id-74468"></polygon><polygon points="486 648 477 599 453 529 440 504 437 490 439 460 449 402 456 340 188 343 198 411 202 493 162 596 153 638 266 693 319 721 386 693" fill="url(#id-74424)" id="id-74468"></polygon><polygon points="486 648 477 599 453 529 440 504 437 490 439 460 449 402 456 340 296 353 376 634" fill="#D06F45" id="id-74468"></polygon><g transform=" translate(188,0)" id="id-74477"><polygon points="274 114 253 111 232 100 201 76 188 58 184 1 93 1 88 64 25 111 1 113 103 123 121 135 134 138 149 121 161 117 187 119 225 114" fill="#D37245" id="id-74468"></polygon><polygon points="201 76 188 58 185 12 175 57 155 111 185 73" fill="#EB9E6D" id="id-74468"></polygon><polygon points="149 1 93 1 88 64 108 126 121 135 133 138" fill="#C1663D" id="id-74468"></polygon><polygon points="116 102 120 113 118 115 136 135 150 119 164 71 125 108" fill="#B65C38" id="id-74481"></polygon><polygon points="121 127 133 138 145 124" fill="#AC3F1F" id="id-74482"></polygon><polygon points="136 98 164 71 175 57 186 17 134 51" fill="#DA854F" id="id-74483"></polygon><polygon points="97 96 116 80 164 60 178 48 186 17 184 1 93 1 88 64 45 96" fill="#A14F27" opacity="0.654" id="id-74468"></polygon><polygon points="186 17 184 1 93 1 88 64 45 96 66 96" fill="url(#id-74425)" opacity="0.467" id="id-74468"></polygon><polygon points="123 58 176 23 186 17 184 1 93 1 91 22 108 55" fill="#381404" opacity="0.434" id="id-74468"></polygon></g><polygon points="41 844 33 856 36 895 64 915 84 911 83 903 71 898 72 892 63 884 52 849" fill="url(#id-74426)" id="id-74468"></polygon><polygon points="315 152 285 173 320 188 357 166" fill="#FAAF86" id="id-74488"></polygon><polygon points="327 150 370 130 342 127" fill="#D5774A" id="id-74489"></polygon><polygon points="301 142 303 148 243 131 240 119 276 119" fill="#D5774A" id="id-74490"></polygon><polygon points="159 149 206 123 269 123 303 144 297 118 188 113 157 123 121 139" fill="url(#id-74427)" id="id-74468"></polygon><polygon points="157 123 121 139 153 167 196 134" fill="#FFBBA2" id="id-74468"></polygon><polygon points="89 584 77 541 62 551 45 658 34 712 25 741 25 762 10 817 0 845 14 870 25 901 58 919 72 919 69 913 61 905 50 899 37 874 37 852 43 845 52 855 50 887 56 901 64 905 66 901 66 882 72 836 72 800 69 781 64 773 66 735 85 684 121 599 162 510" fill="url(#id-74428)" id="id-74468"></polygon><polygon points="89 584 77 541 62 551 45 658 48 715 121 599 162 510" fill="#D37347" id="id-74468"></polygon><polygon points="55 843 45 827 37 848 17 852 8 836 5 851 0 845 14 870 25 901 58 919 72 919 69 913 61 905 50 899 37 874 37 852 43 845 52 855 50 887 56 901 64 905 66 901 66 882 72 836" fill="#D16753" id="id-74468"></polygon><polygon points="53 882 52 892 56 901 64 905 66 901 66 882 67 876" fill="#B24B40" id="id-74468"></polygon><polygon points="25 901 58 919 72 919 62 909 37 895" fill="#B44D41" id="id-74468"></polygon><polygon points="160 467 145 488 108 578 45 777 48 797 64 773 66 735 85 684 121 599 162 510" fill="#B04C25" id="id-74468"></polygon><polygon points="169 1211 277 1211 282 1183 281 1150 284 1127 286 1114 285 1063 293 972 306 866 311 792 309 768 323 771 337 768 333 817 333 855 339 924 346 1008 348 1113 351 1130 353 1176 361 1211 461 1211 458 1191 456 1170 460 1133 461 1082 505 905 516 839 518 826 512 762 503 706 486 648 482 629 386 690 318 718 266 690 184 629 153 637 132 731 119 781 118 813 123 862 131 916 166 1094 176 1179" fill="url(#id-74429)" id="id-74468"></polygon><polygon points="463 664 416 771 400 819 392 1125 359 1178 398 1204 441 1153 461 1082 505 905 516 839 518 826 515 789 490 714" fill="url(#id-74430)" id="id-74468"></polygon><polygon points="422 1160 395 1199 365 1171 401 1149 384 1120 391 983 411 786 416 771 448 697 454 1013 445 1116 407 1149" fill="url(#id-74431)" id="id-74501"></polygon><polygon points="121 139 111 186 108 221 109 290 96 438 89 464 69 510 89 585 162 510 167 425 162 241" fill="url(#id-74432)" id="id-74468"></polygon><polygon points="101 466 103 488 106 510 160 447 179 359 164 232 187 184 186 179 132 181 161 234 161 321 149 376 151 384 123 461 114 466" fill="url(#id-74433)" id="id-74503"></polygon><polygon points="96 438 89 464 69 510 51 621 101 520 96 476" fill="#FFAF88" id="id-74468"></polygon><polygon points="96 451 128 365 134 316 121 139 111 186 108 221 109 290 96 438" fill="#C5673B" id="id-74468"></polygon><polygon points="184 241 177 248 162 225 138 289 161 321 170 375 161 420 151 411 162 510 167 425 188 343" fill="url(#id-74434)" id="id-74468"></polygon><polygon points="284 1127 286 1114 285 1063 293 972 306 866 311 792 309 768 323 771 337 768 333 817 333 855 339 924 346 1008 375 889 416 771 463 664 490 714 515 790 512 762 503 706 486 648 477 599 471 583 420 650 316 720 201 654 244 742 264 824 275 994" fill="url(#id-74435)" id="id-74468"></polygon><polygon points="298 930 306 866 311 792 309 768 323 771 337 768 333 817 333 855 336 894 347 826 360 784 378 733 388 687 321 739 254 687 267 736 291 821" fill="url(#id-74436)" id="id-74468"></polygon><polygon points="348 1093 348 1113 351 1130 353 1176 361 1211 461 1211 439 1155 422 1136 403 1148 429 1168 400 1202 370 1170 382 1125" fill="url(#id-74437)" id="id-74468"></polygon><polygon points="10 855 8 836 5 851 0 845 14 870" fill="#AF4A3E" id="id-74468"></polygon><polygon points="520 500 516 520 544 629 474 500 490 399" fill="url(#id-74438)" id="id-74511"></polygon><polygon points="461 1211 458 1191 456 1170 460 1133 461 1082 439 1155 450 1211" fill="url(#id-74439)" id="id-74468"></polygon><polygon points="220 1149 259 1115 240 1063 232 973 266 819 240 713 201 661 158 650 201 784 183 925 170 1083" fill="url(#id-74440)" id="id-74513"></polygon><polygon points="169 1211 277 1211 282 1183 281 1150 284 1127 286 1114 286 1098 226 1211 207 1211 196 1121 173 1078 150 1014 166 1094 176 1179" fill="url(#id-74441)" id="id-74468"></polygon><polygon points="173 1078 183 924 150 1014" fill="#C56242" id="id-74468"></polygon><polygon points="169 1211 239 1211 230 1196 204 1175 173 1150 176 1179" fill="#8E332E" opacity="0.574" id="id-74468"></polygon><polygon points="221 1130 240 1097 224 1063 224 983 240 804 217 698 190 668 212 771 212 910 190 998 181 1094" fill="url(#id-74442)" id="id-74513"></polygon><polygon points="217 795 221 692 200 667 169 658 200 737" fill="#F09C6B" id="id-74518"></polygon><polygon points="511 476 492 419 481 447 484 356 521 274 533 417" fill="url(#id-74443)" id="id-74519"></polygon><polygon points="569 523 544 425 542 346 537 282 539 246 535 195 529 158 522 137 494 161 419 158 471 211 516 290 525 411 511 477 518 507 535 462 562 543" fill="url(#id-74444)" id="id-74468"></polygon><polygon points="486 389 533 243 501 167 464 207 451 247 463 265" fill="url(#id-74445)" id="id-74521"></polygon><polygon points="473 490 474 506 503 589 537 672 556 728 561 754 567 712 543 623" fill="#AE522F" id="id-74468"></polygon><polygon points="460 328 466 378 474 506 490 425 486 392 469 274 479 230 461 260 454 251" fill="url(#id-74446)" id="id-74468"></polygon><polygon points="440 504 437 490 439 460 449 402 456 340 458 328 325 282 188 343 198 411 202 493 162 596 157 621 161 633 169 599 173 570 204 506 202 458 217 402 286 365 321 352 353 360 422 402 431 493 437 520" fill="url(#id-74447)" id="id-74468"></polygon><polygon points="451 385 456 340 458 328 364 340 330 308 268 343 188 343 194 379 262 368 312 343 335 340 381 368" fill="url(#id-74448)" id="id-74468"></polygon><polygon points="286 328 306 310 330 274 453 252 464 205 421 156 317 204 219 165 210 154 188 180" fill="url(#id-74449)" id="id-74526"></polygon><path d=" M 422,195 L 405,190 C 377,190 357,198 343,214 C 329,230 322,250 323,276 C 324,301 331,320 345,333 C 365,351 384,356 405,356 C 425,356 444,347 450,342 C 454,339 457,335 460,328 C 463,323 466,317 467,308 C 469,294 466,276 457,254 L 422,195 Z" fill="url(#id-74450)" id="id-74527"></path><path d=" M 422,195 L 417,175 C 386,188 366,196 358,201 C 355,203 351,206 348,208 C 348,209 381,253 448,342 C 454,338 459,332 463,324 C 469,310 469,301 469,293 C 469,287 465,275 459,257 L 422,195 Z" fill="url(#id-74451)" id="id-74527"></path><path d=" M 375,226 C 338,253 343,276 343,284 C 343,291 353,319 371,335 C 379,342 422,349 447,331 C 468,316 472,294 458,265 C 427,221 400,208 375,226 Z" fill="url(#id-74452)" opacity="0.282" id="id-74527"></path><path d=" M 272,205 C 260,199 243,200 221,209 C 187,227 169,258 168,303 C 167,319 184,342 190,346 C 197,351 212,356 239,353 C 257,351 272,344 284,333 C 303,312 312,288 309,260 C 305,217 291,214 272,205 Z" fill="url(#id-74453)" id="id-74530"></path><path d=" M 340,285 C 333,252 328,240 326,248 C 324,254 323,263 323,276 C 324,301 331,320 345,333 C 365,351 382,356 404,356 C 425,356 444,347 450,342 C 456,337 465,325 468,308 C 472,290 465,276 463,268 C 461,263 460,259 458,255 L 442,290 L 399,304 L 366,300 L 340,285 Z" fill="url(#id-74454)" id="id-74527"></path><path d=" M 153,637 L 149,654 L 132,731 L 130,739 C 133,730 135,723 137,718 C 140,709 147,691 149,680 C 151,671 155,655 161,633 L 172,570 L 162,596 L 153,637 Z" fill="#7D362E" id="id-74468"></path><path d=" M 259,203 C 254,199 240,185 217,163 L 210,153 L 186,180 C 192,211 192,231 186,239 C 175,256 168,277 168,303 C 168,324 190,352 239,344 C 252,342 274,217 259,203 Z" fill="#E39165" id="id-74530"></path><polygon points="175 565 203 550 234 558 241 520 203 455 203 507" fill="#B04924" id="id-74534"></polygon><polygon points="241 442 241 518 229 556 233 629 266 657 316 707 381 659 395 629 364 504 350 504 301 380" fill="url(#id-74455)" id="id-74535"></polygon><polygon points="432 626 427 589 407 518 414 505 450 568 470 618" fill="url(#id-74456)" id="id-74536"></polygon><polygon points="302 376 254 442 254 546 302 590 364 568 364 504 350 504 376 454 345 400" fill="url(#id-74457)" id="id-74535"></polygon><polygon points="317 480 342 436 319 413 300 447" fill="#DA7B4E" id="id-74538"></polygon><polygon points="304 541 318 507 329 541 314 549" fill="#D17045" id="id-74539"></polygon><polygon points="306 543 316 578 329 541" fill="#E99A65" id="id-74540"></polygon><path d=" M 178,333 C 179,334 180,336 182,338 C 184,342 186,343 189,346 C 190,347 197,351 206,353 C 215,354 226,355 239,353 C 257,351 272,344 284,333 C 293,322 299,313 302,305 C 304,301 307,293 309,277 C 310,274 310,268 309,260 L 228,277 L 207,295 L 178,333 Z" fill="url(#id-74458)" id="id-74530"></path><polygon points="306 543 308 550 324 556 329 541" fill="#E9A376" id="id-74540"></polygon><polygon points="308 543 318 525 323 542 314 548" fill="#8F4427" id="id-74543"></polygon><polygon points="152 641 162 596 176 561 185 617 214 602 246 628 323 690 404 628 423 605 454 605 470 577 477 599 482 629 388 689 337 768 323 771 309 768 259 688 175 639 142 688" fill="url(#id-74459)" opacity="0.442" id="id-74544"></polygon><polygon points="490 154 522 137 484 118 412 123" fill="url(#id-74460)" id="id-74468"></polygon><polygon points="573 785 588 829 602 858 607 852 600 821 597 716 576 763" fill="#E19271" id="id-74468"></polygon><polygon points="574 722 589 695 582 655 533 542" fill="url(#id-74461)" id="id-74468"></polygon><polygon points="172 640 241 690 309 768 323 771 338 768 395 706 469 661 404 650 313 706 217 629" fill="url(#id-74462)" opacity="0.571" id="id-74548"></polygon><g transform=" translate(188,270)" id="id-74549"><polygon points="207 13 207 10 217 2 220 2 239 21 258 39 260 42 250 51 246 52 226 33" fill="url(#id-74463)" id="id-74550"></polygon><polygon points="208 40 218 50 222 50 240 33 257 13 257 9 247 0 244 1 230 19 209 36" fill="url(#id-74464)" id="id-74551"></polygon><polygon points="1 13 1 10 10 2 15 2 32 21 50 39 52 42 42 52 38 52 19 33" fill="url(#id-74465)" id="id-74550"></polygon><polygon points="0 43 10 53 14 53 33 35 50 15 50 11 40 3 36 4 19 23 1 39" fill="url(#id-74466)" id="id-74551"></polygon></g></g><defs><linearGradient x1="68%" y1="4%" x2="68%" y2="39%" id="id-75205"><stop stop-color="#CF915B" offset="0%"></stop><stop stop-color="#A2582E" offset="100%"></stop></linearGradient><linearGradient x1="63%" y1="29%" x2="43%" y2="65%" id="id-75206"><stop stop-color="#EF9D68" offset="0%"></stop><stop stop-color="#CA8252" offset="100%"></stop></linearGradient><linearGradient x1="60%" y1="73%" x2="11%" y2="32%" id="id-75207"><stop stop-color="#F0A97B" offset="0%"></stop><stop stop-color="#E7976B" offset="100%"></stop></linearGradient><linearGradient x1="79%" y1="15%" x2="31%" y2="87%" id="id-75208"><stop stop-color="#D98757" offset="0%"></stop><stop stop-color="#E99F6F" offset="100%"></stop></linearGradient><radialGradient cx="50%" cy="46%" r="72%" id="id-75209" fx="50%" fy="46%" gradientTransform=" translate(0.500,0.465) scale(0.889,1) rotate(90) scale(1,1) translate(-0.500,-0.465)"><stop stop-color="#FBAF7C" offset="0%"></stop><stop stop-color="#8E4218" offset="100%"></stop></radialGradient><linearGradient x1="32%" y1="4%" x2="54%" y2="75%" id="id-75210"><stop stop-color="#B5673B" offset="0%"></stop><stop stop-color="#D69065" offset="38%"></stop><stop stop-color="#CD7F54" offset="100%"></stop></linearGradient><linearGradient x1="11%" y1="50%" x2="57%" y2="50%" id="id-75211"><stop stop-color="#D88A61" offset="0%"></stop><stop stop-color="#F4A678" offset="100%"></stop></linearGradient><linearGradient x1="50%" y1="0%" x2="50%" y2="100%" id="id-75212"><stop stop-color="#DF8A54" offset="0%"></stop><stop stop-color="#BD693B" offset="100%"></stop></linearGradient><linearGradient x1="50%" y1="0%" x2="50%" y2="65%" id="id-75213"><stop stop-color="#E8A174" offset="0%"></stop><stop stop-color="#F9BB92" offset="100%"></stop></linearGradient><linearGradient x1="93%" y1="38%" x2="20%" y2="70%" id="id-75214"><stop stop-color="#EBA776" offset="0%"></stop><stop stop-color="#F5BF98" offset="60%"></stop><stop stop-color="#CA8252" offset="100%"></stop></linearGradient><linearGradient x1="17%" y1="66%" x2="58%" y2="41%" id="id-75215"><stop stop-color="#F3BA91" offset="0%"></stop><stop stop-color="#FCDFC9" offset="100%"></stop></linearGradient><linearGradient x1="25%" y1="46%" x2="50%" y2="58%" id="id-75216"><stop stop-color="#B55E35" offset="0%"></stop><stop stop-color="#C46A3C" offset="100%"></stop></linearGradient><linearGradient x1="75%" y1="15%" x2="41%" y2="68%" id="id-75217"><stop stop-color="#F0AA7E" offset="0%"></stop><stop stop-color="#F5BB97" offset="100%"></stop></linearGradient><linearGradient x1="43%" y1="47%" x2="85%" y2="53%" id="id-75218"><stop stop-color="#903F1B" offset="0%"></stop><stop stop-color="#B45C2E" offset="100%"></stop></linearGradient><linearGradient x1="65%" y1="43%" x2="13%" y2="55%" id="id-75219"><stop stop-color="#7B3014" offset="0%"></stop><stop stop-color="#813113" offset="100%"></stop></linearGradient><linearGradient x1="85%" y1="61%" x2="16%" y2="50%" id="id-75220"><stop stop-color="#E3956C" offset="0%"></stop><stop stop-color="#D0825C" offset="100%"></stop></linearGradient><linearGradient x1="50%" y1="34%" x2="72%" y2="84%" id="id-75221"><stop stop-color="#C06E40" offset="0%"></stop><stop stop-color="#D7795C" offset="42%"></stop><stop stop-color="#D07E52" offset="59%"></stop><stop stop-color="#DB885D" offset="100%"></stop></linearGradient><linearGradient x1="50%" y1="50%" x2="50%" y2="78%" id="id-75222"><stop stop-color="#F3B28C" offset="0%"></stop><stop stop-color="#EC8C70" offset="100%"></stop></linearGradient><linearGradient x1="36%" y1="33%" x2="50%" y2="71%" id="id-75223"><stop stop-color="#D26945" offset="0%"></stop><stop stop-color="#A63821" offset="100%"></stop></linearGradient><linearGradient x1="0%" y1="50%" x2="100%" y2="50%" id="id-75224"><stop stop-color="#C46F40" offset="0%"></stop><stop stop-color="#DF9F77" offset="42%"></stop><stop stop-color="#C36F3F" offset="100%"></stop></linearGradient><linearGradient x1="50%" y1="57%" x2="-8%" y2="54%" id="id-75225"><stop stop-color="#9C4A26" offset="0%"></stop><stop stop-color="#662A11" offset="100%"></stop></linearGradient><linearGradient x1="14%" y1="61%" x2="23%" y2="56%" id="id-75226"><stop stop-color="#AB4B21" offset="0%"></stop><stop stop-color="#B45C31" offset="100%"></stop></linearGradient><linearGradient x1="48%" y1="50%" x2="55%" y2="57%" id="id-75227"><stop stop-color="#E1885B" offset="0%"></stop><stop stop-color="#B8603B" offset="100%"></stop></linearGradient><linearGradient x1="50%" y1="0%" x2="43%" y2="121%" id="id-75228"><stop stop-color="#F3D2BA" offset="0%"></stop><stop stop-color="#EEAB96" offset="100%"></stop></linearGradient><linearGradient x1="100%" y1="37%" x2="80%" y2="57%" id="id-75229"><stop stop-color="#9E421E" offset="0%"></stop><stop stop-color="#CF784A" offset="100%"></stop></linearGradient><linearGradient x1="55%" y1="43%" x2="43%" y2="53%" id="id-75230"><stop stop-color="#BE663B" offset="0%"></stop><stop stop-color="#B3592E" offset="100%"></stop></linearGradient><linearGradient x1="72%" y1="4%" x2="28%" y2="76%" id="id-75231"><stop stop-color="#B15A37" offset="0%"></stop><stop stop-color="#7D341B" offset="100%"></stop></linearGradient><linearGradient x1="22%" y1="50%" x2="83%" y2="50%" id="id-75232"><stop stop-color="#C2805E" offset="0%"></stop><stop stop-color="#903A22" offset="100%"></stop></linearGradient><linearGradient x1="82%" y1="54%" x2="50%" y2="59%" id="id-75233"><stop stop-color="#843818" offset="0%"></stop><stop stop-color="#BA663F" offset="100%"></stop></linearGradient><linearGradient x1="25%" y1="53%" x2="75%" y2="52%" id="id-75234"><stop stop-color="#E1BB9F" offset="0%"></stop><stop stop-color="#C08666" offset="100%"></stop></linearGradient><linearGradient x1="50%" y1="0%" x2="50%" y2="80%" id="id-75235"><stop stop-color="#B2401E" offset="0%"></stop><stop stop-color="#C84D2C" offset="100%"></stop></linearGradient><linearGradient x1="50%" y1="0%" x2="50%" y2="100%" id="id-75236"><stop stop-color="#EC5F3D" offset="0%"></stop><stop stop-color="#D65032" offset="100%"></stop></linearGradient><linearGradient x1="109%" y1="50%" x2="23%" y2="43%" id="id-75237"><stop stop-color="#B55D33" offset="0%"></stop><stop stop-color="#C18055" offset="100%"></stop></linearGradient></defs><g transform=" translate(561,332)" id="id-75238"><g transform=" translate(172,115)" id="id-75239"><polygon points="14 1 18 0 25 8 27 21 24 41 14 66 0 68" fill="url(#id-75205)" id="id-75240"></polygon><polygon points="12 48 19 50 23 42 26 24 20 12 12 22" fill="#CB8154" id="id-75241"></polygon><polygon points="11 21 17 10 20 5 24 7 26 24 20 36 18 31 20 16 9 29" fill="#8E4015" id="id-75242"></polygon><polygon points="10 28 11 38 8 45 13 49 19 38 13 24" fill="#7D3102" id="id-75243"></polygon><polygon points="12 18 17 17 18 9" fill="#5B1C00" id="id-75244"></polygon><polygon points="18 50 10 51 8 50 5 61 12 63 14 61" fill="#E68969" id="id-75245"></polygon></g><g transform=" translate(0,113)" id="id-75246"><polygon points="13 0 5 0 0 13 4 36 13 63 25 67" fill="#D07C59" id="id-75247"></polygon><polygon points="5 9 0 13 4 36 13 63 25 67 13 24" fill="#CA7F53" id="id-75247"></polygon><polygon points="18 46 14 47 7 32 11 26 4 9 6 5 16 20 17 29" fill="#AB5E32" id="id-75249"></polygon><polygon points="13 62 20 62 18 49 11 53" fill="#AE6135" id="id-75250"></polygon><polygon points="25 68 13 63 20 62 17 46 14 47 13 44 14 29 17 26 14 22 10 19 10 11 17 20" fill="#7D3001" id="id-75251"></polygon><polygon points="13 9 4 3 5 0 12 0" fill="#E19B77" id="id-75252"></polygon></g><path d=" M 29,199 C 21,167 16,144 15,130 C 4,44 33,0 103,0 C 180,0 191,63 186,119 C 183,157 173,191 170,202 C 169,206 167,213 164,217 C 143,234 127,244 115,249 L 81,249 C 71,246 56,236 36,218 C 34,215 32,208 29,199 Z" fill="#D1865A" opacity="0.966" id="id-75253"></path><polygon points="36 106 25 118 37 39 104 9 160 39 166 105 106 122" fill="url(#id-75206)" id="id-75254"></polygon><polygon points="120 178 110 136 130 128 178 139 169 176 139 192" fill="url(#id-75207)" id="id-75255"></polygon><polygon points="169 161 135 146 164 134 176 140" fill="#F6AA7A" id="id-75256"></polygon><polygon points="169 161 156 155 176 140" fill="url(#id-75208)" id="id-75256"></polygon><path d=" M 19,155 C 17,145 16,137 15,130 C 4,44 33,0 103,0 C 180,0 191,63 186,119 C 185,128 184,136 183,145 L 148,128 L 142,124 L 162,99 C 162,80 157,59 148,36 C 125,28 107,26 95,28 C 83,31 66,39 45,53 L 39,91 L 28,114 L 42,106 L 19,155 Z" fill="url(#id-75209)" opacity="0.966" id="id-75253"></path><polygon points="77 145 37 128 23 149 57 218 88 200" fill="url(#id-75210)" id="id-75259"></polygon><polygon points="69 192 59 171 70 146 85 132 94 140 87 186" fill="#D99168" id="id-75260"></polygon><polygon points="85 180 68 192 72 205 130 208 138 197 114 170" fill="url(#id-75211)" id="id-75261"></polygon><polygon points="74 204 70 202 57 211 76 239 132 235 143 205 136 197 125 204" fill="url(#id-75212)" id="id-75262"></polygon><polygon points="91 200 95 178 107 178 112 200" fill="url(#id-75213)" id="id-75263"></polygon><path d=" M 38,101 L 64,86 C 69,68 73,57 76,53 C 79,50 94,46 119,41 L 151,70 L 126,114 L 81,113 L 73,99 L 38,101 Z" fill="url(#id-75214)" id="id-75264"></path><polygon points="156 99 123 78 105 98 127 111" fill="url(#id-75215)" id="id-75265"></polygon><polygon points="91 200 93 192 102 194 110 193 112 200" fill="#FFD9B0" id="id-75263"></polygon><polygon points="74 218 67 215 74 207 130 206 130 213 119 213" fill="#EDA177" id="id-75267"></polygon><polygon points="80 211 69 221 89 231 120 232 129 227 123 209" fill="url(#id-75216)" id="id-75268"></polygon><polygon points="141 204 117 180 128 170 150 185" fill="url(#id-75217)" id="id-75269"></polygon><polygon points="28 151 39 132 64 125 49 107 32 109 23 145" fill="#B6663A" id="id-75270"></polygon><polygon points="80 110 93 132 80 138 34 131 27 127 44 119" fill="url(#id-75218)" id="id-75271"></polygon><polygon points="30 117 27 127 45 106 61 121 79 130 56 105 40 104" fill="url(#id-75219)" id="id-75272"></polygon><polygon points="91 140 73 164 89 164 121 175 126 171 133 174 113 148" fill="url(#id-75220)" id="id-75273"></polygon><polygon points="84 181 93 185 109 186 117 182 120 177" fill="#642C18" opacity="0.599" id="id-75274"></polygon><polygon points="123 135 114 141 123 168 123 174 117 180 81 173 80 170 81 166 90 138 86 133 101 127" fill="url(#id-75221)" id="id-75275"></polygon><polygon points="79 111 99 104 121 113 107 143 98 143" fill="#E49061" id="id-75276"></polygon><polygon points="101 119 96 132 96 153 83 175 120 176 107 154 107 132" fill="url(#id-75222)" id="id-75277"></polygon><polygon points="90 163 83 175 99 175" fill="#DF765D" id="id-75277"></polygon><path d=" M 80,170 L 80,178 L 84,181 L 90,180 L 109,180 L 116,181 C 118,180 120,178 121,176 C 122,174 122,172 122,170 L 119,176 C 114,174 109,172 103,171 C 98,171 92,172 85,174 L 84,173 L 95,154 L 93,156 L 80,170 Z" fill="url(#id-75223)" id="id-75279"></path><path d=" M 105,179 C 106,177 109,176 111,176 C 113,176 116,176 119,176 C 115,174 111,173 107,172 C 106,172 105,174 105,179 Z" fill="#CE6065" id="id-75279"></path><path d=" M 87,180 L 98,180 C 96,177 94,176 91,176 C 89,176 87,177 87,180 Z" fill="#60140D" id="id-75281"></path><path d=" M 105,180 L 113,181 C 115,178 114,176 112,176 C 109,176 106,177 105,180 Z" fill="#5B120B" id="id-75282"></path><polygon points="88 220 94 227 111 227 116 218" fill="#621608" id="id-75283"></polygon><path d=" M 76,233 C 85,229 94,226 103,226 C 112,226 121,229 130,233 L 117,246 L 86,246 L 76,233 Z" fill="url(#id-75224)" id="id-75284"></path><path d=" M 113,227 C 117,228 122,230 130,233 L 117,246 L 101,242 L 113,227 Z" fill="#F5B78E" opacity="0.499" id="id-75284"></path><path d=" M 94,229 C 99,227 100,227 105,227 C 107,227 109,228 112,228 C 109,233 106,236 104,237 C 96,232 93,229 94,229 Z" fill="#F0BA9F" id="id-75284"></path><polygon points="80 140 73 146 51 147 37 135 46 132 51 138 73 140" fill="url(#id-75225)" id="id-75287"></polygon><path d=" M 26,119 L 39,110 L 50,111 L 53,114 L 57,114 L 57,112 L 60,114 L 63,114 L 63,113 L 67,116 L 76,118 L 76,115 L 68,105 C 63,104 59,103 55,102 C 52,102 46,101 39,101 L 26,115 L 26,119 Z" fill="#501C0D" id="id-75288"></path><polygon points="26 119 39 110 43 107 57 105 39 101 26 115" fill="#220F06" id="id-75288"></polygon><polygon points="77 113 73 107 76 107" fill="#501C0D" id="id-75290"></polygon><polygon points="80 114 79 109 81 110" fill="#501C0D" id="id-75291"></polygon><path d=" M 29,199 C 21,167 16,144 15,130 C 15,129 28,148 55,188 L 64,222 L 88,242 L 104,239 L 118,242 L 129,230 C 154,219 166,214 164,217 C 143,234 127,244 115,249 L 81,249 C 71,246 56,236 36,218 C 34,215 32,208 29,199 Z" fill="url(#id-75226)" opacity="0.966" id="id-75253"></path><path d=" M 118,242 L 129,230 L 147,183 L 167,160 L 172,141 L 186,119 C 183,157 173,191 170,202 C 169,206 167,213 164,217 C 145,232 132,241 125,245 C 122,246 120,245 118,242 Z" fill="url(#id-75227)" opacity="0.966" id="id-75253"></path><polygon points="42 190 29 150 55 188 64 222" fill="#C1673F" opacity="0.966" id="id-75253"></polygon><path d=" M 182,70 C 184,81 184,98 184,122 C 176,168 172,195 170,202 C 169,206 167,213 164,217 C 150,228 140,235 134,239 L 163,214 L 179,154 L 179,108 L 175,113 L 168,106 L 182,70 Z" fill="#E58F9B" opacity="0.966" id="id-75253"></path><path d=" M 95,166 L 101,168 C 107,166 108,165 107,165 C 104,164 100,164 95,166 Z" fill="#F5AA9C" id="id-75296"></path><polygon points="107 154 100 151 96 154 100 140 97 134 102 130 106 133 104 140" fill="url(#id-75228)" id="id-75297"></polygon><polygon points="108 154 122 169 119 175 115 167 109 170 113 164" fill="#C56443" id="id-75298"></polygon><path d=" M 166,131 C 169,130 171,129 172,127 C 173,125 174,121 175,115 L 164,104 L 151,105 L 137,122 L 166,131 Z" fill="url(#id-75229)" id="id-75299"></path><polygon points="123 135 117 140 124 143 131 139" fill="#F3B693" id="id-75300"></polygon><path d=" M 111,132 L 124,135 L 168,130 C 165,125 162,121 157,119 C 152,117 147,116 139,117 L 119,109 L 114,118 L 116,122 L 111,132 Z" fill="url(#id-75230)" id="id-75301"></path><polygon points="121 134 134 113 150 109 138 125" fill="url(#id-75231)" id="id-75302"></polygon><path d=" M 124,135 C 128,128 134,124 142,123 C 150,122 158,125 168,132 L 124,135 Z" fill="url(#id-75232)" id="id-75303"></path><polygon points="125 143 138 147 153 147 165 134 158 130 127 138" fill="url(#id-75233)" id="id-75304"></polygon><path d=" M 128,135 L 126,139 L 151,140 L 160,134 C 155,130 150,128 145,128 C 140,128 134,131 128,135 Z" fill="#E9D5DF" id="id-75305"></path><path d=" M 130,140 L 133,135 L 150,133 L 156,137 L 160,134 C 155,130 149,128 142,129 C 135,130 130,133 126,139 L 130,140 Z" fill="#000000" opacity="0.295" id="id-75306"></path><polygon points="124 140 143 140 152 140 160 134 158 133 151 138 128 139" fill="url(#id-75234)" id="id-75307"></polygon><polygon points="129 135 128 137 136 138 129 139 124 139 125 138" fill="#9D5133" id="id-75308"></polygon><polygon points="134 130 131 128 142 124 146 127" fill="#EDB57F" id="id-75309"></polygon><path d=" M 132,134 C 134,137 137,139 142,139 C 148,138 150,135 150,130 C 145,129 141,129 138,129 C 136,130 134,131 132,134 Z" fill="#200C09" id="id-75310"></path><path d=" M 135,135 C 135,137 137,138 142,138 C 147,137 149,136 147,133 C 147,134 145,134 143,135 C 141,135 138,135 135,135 Z" fill="#BF0526" id="id-75310"></path><polygon points="139 132 137 132 137 134 141 133 141 132 143 132 143 131 139 131" fill="#B49EBB" id="id-75312"></polygon><path d=" M 125,138 C 132,133 138,130 144,130 C 150,130 156,132 163,136 L 171,129 L 162,130 C 154,127 147,127 140,128 C 134,129 129,133 125,138 Z" fill="#200F09" id="id-75313"></path><polygon points="147 145 147 141 143 141" fill="#2D130A" id="id-75314"></polygon><polygon points="150 140 154 143 153 140" fill="#2D130A" id="id-75315"></polygon><polygon points="155 139 162 140 158 136 157 137" fill="#2D130A" id="id-75316"></polygon><polygon points="122 119 130 111 126 118 131 115 133 117 137 112 138 114 142 113 142 112 145 113 155 109 163 108 174 117 174 112 162 99 150 99 129 104" fill="#662913" id="id-75317"></polygon><polygon points="160 105 174 117 174 112 162 99 141 106" fill="#36150E" id="id-75317"></polygon><polygon points="77 210 72 210 72 205 79 205 125 203 132 203 134 206 131 209" fill="#97211C" id="id-75319"></polygon><polygon points="77 209 75 209 76 206 102 200 130 206 131 208" fill="#530C03" id="id-75320"></polygon><path d=" M 74,205 C 80,206 84,206 88,206 C 93,206 97,204 102,204 C 107,204 111,206 115,206 C 118,206 122,205 126,204 C 121,200 116,197 111,193 C 110,193 106,194 102,197 C 96,195 93,194 92,194 C 87,197 80,201 74,205 Z" fill="url(#id-75235)" id="id-75321"></path><path d=" M 76,209 C 79,211 86,224 103,223 C 119,222 123,211 129,208 C 117,206 117,207 101,208 C 94,209 90,206 76,209 Z" fill="#A13421" id="id-75322"></path><path d=" M 76,209 C 78,210 80,215 86,218 C 90,221 118,219 122,215 C 124,212 127,209 129,208 C 117,206 117,207 101,208 C 94,209 90,206 76,209 Z" fill="url(#id-75236)" id="id-75322"></path><path d=" M 76,209 C 78,210 80,215 86,218 C 90,221 118,219 122,215 C 124,212 127,209 129,208 C 117,206 118,217 102,218 C 85,219 90,206 76,209 Z" fill="#D04E2F" id="id-75322"></path><path d=" M 89,212 C 91,214 94,215 97,214 C 101,213 106,212 113,212 C 109,210 106,210 104,210 C 99,211 96,210 91,211 C 90,211 90,212 89,212 Z" fill="#FA827F" id="id-75325"></path><polygon points="50 128 50 122 64 123 65 128" fill="url(#id-75237)" id="id-75326"></polygon><path d=" M 41,126 C 47,123 52,121 57,122 C 62,123 70,126 80,131 C 72,123 63,119 54,119 C 46,120 41,122 41,126 Z" fill="#662917" id="id-75327"></path><polygon points="60 139 79 141 84 137" fill="#F8B291" id="id-75328"></polygon><polygon points="69 138 80 138 80 137 75 134 75 137" fill="#902727" id="id-75329"></polygon><path d=" M 47,132 L 50,138 C 56,138 60,139 63,138 C 66,138 70,138 75,137 C 75,136 75,135 75,134 C 71,130 65,129 61,128 C 56,127 51,129 47,132 Z" fill="#D2B3B9" id="id-75330"></path><path d=" M 53,131 C 54,135 56,138 61,138 C 66,138 69,136 70,131 C 66,129 62,128 60,128 C 58,128 56,129 53,131 Z" fill="#250B06" id="id-75331"></path><path d=" M 57,133 C 55,134 54,135 55,135 C 56,137 58,138 61,138 C 64,138 66,137 68,136 C 68,135 67,133 65,133 C 63,135 60,134 57,133 Z" fill="#920017" id="id-75331"></path><path d=" M 47,132 L 49,136 C 54,133 57,132 58,132 C 71,131 75,135 75,134 C 71,130 65,129 61,128 C 56,127 51,129 47,132 Z" fill="#000000" opacity="0.300" id="id-75330"></path><polygon points="57 132 57 130 60 130 60 132" fill="#BDA7A9" id="id-75334"></polygon><path d=" M 33,131 L 39,135 L 43,134 C 50,131 56,129 61,130 C 66,130 72,132 81,137 C 77,132 72,129 64,128 C 56,126 48,127 41,131 L 33,131 Z" fill="#2C1309" id="id-75335"></path><polygon points="43 137 47 135 50 137" fill="#3A180F" id="id-75336"></polygon><polygon points="50 139 50 143 53 139" fill="#3A180F" id="id-75337"></polygon><polygon points="55 140 58 140 55 145" fill="#3A180F" id="id-75338"></polygon><polygon points="122 107 126 106 120 118" fill="#662913" id="id-75339"></polygon><polygon points="118 108 120 108 118 115 114 118" fill="#662913" id="id-75340"></polygon></g><defs><linearGradient x1="33%" y1="59%" x2="66%" y2="64%" id="id-40035"><stop stop-color="#050E15" offset="0%" stop-opacity="0.810"></stop><stop stop-color="#040D13" offset="11%" stop-opacity="0.379"></stop><stop stop-color="#040D13" offset="19%" stop-opacity="0.151"></stop><stop stop-color="#040D13" offset="28%" stop-opacity="0.329"></stop><stop stop-color="#040B10" offset="41%" stop-opacity="0.741"></stop><stop stop-color="#03090E" offset="59%" stop-opacity="0.740"></stop><stop stop-color="#03080B" offset="70%" stop-opacity="0.221"></stop><stop stop-color="#03070B" offset="79%" stop-opacity="0.133"></stop><stop stop-color="#02070B" offset="89%" stop-opacity="0.332"></stop><stop stop-color="#020609" offset="100%" stop-opacity="0.712"></stop></linearGradient></defs><g transform=" translate(450,1060)" id="id-40036"><path d=" M 315,72 C 331,189 359,253 401,265 C 402,281 403,298 402,314 C 394,426 347,550 347,571 C 347,626 340,674 347,700 L 347,700 L 245,700 C 231,673 238,628 231,601 C 229,568 229,533 228,499 C 228,446 209,336 219,260 C 246,202 278,140 315,72 Z M 86,54 L 194,258 C 194,258 195,269 196,281 C 188,416 173,470 169,554 C 169,578 171,579 171,604 C 166,624 165,646 167,673 L 167,673 L 162,700 L 53,700 C 56,692 58,681 60,667 C 32,461 4,415 0,271 C 40,271 69,199 86,54 L 86,54 Z M 104,605 L 98,619 L 106,655 L 128,654 L 129,633 L 104,605 Z M 122,575 L 115,585 L 110,601 L 127,616 L 122,575 Z M 117,495 L 103,497 L 103,514 L 109,512 L 104,520 L 106,536 L 116,536 L 117,512 L 117,495 Z M 115,420 L 97,423 L 100,480 L 117,471 L 117,446 L 101,445 L 116,432 L 115,420 Z M 305,370 L 305,380 L 332,392 L 307,396 L 311,435 L 347,444 L 347,428 L 329,425 L 347,420 L 347,404 L 347,377 L 305,370 Z M 109,383 L 99,383 L 98,407 L 110,407 L 109,383 Z M 110,346 L 102,350 L 98,375 L 110,369 L 110,346 Z" fill="url(#id-40035)" id="id-40037"></path><path d=" M 77,1 C 77,1 95,31 130,90 L 130,90 L 280,90 C 280,90 297,62 332,6 C 332,6 332,6 332,6 L 332,6 C 332,7 336,13 343,24 C 343,24 344,26 345,30 L 345,30 L 294,118 C 294,118 318,111 365,95 C 365,95 366,99 367,107 C 367,107 367,107 367,107 L 367,107 C 365,108 361,109 355,111 L 354,112 C 341,116 318,124 286,134 C 286,134 268,169 232,240 C 232,240 279,207 373,141 C 373,141 374,144 375,149 C 375,149 323,187 220,264 C 215,265 213,266 204,267 C 199,266 196,265 193,264 C 189,260 187,256 185,251 L 185,251 L 27,161 C 27,161 28,159 29,153 C 29,153 79,181 178,238 C 178,238 159,202 122,129 C 122,129 94,121 40,103 L 40,103 L 40,103 C 40,103 41,98 43,90 C 43,90 67,98 114,114 L 114,114 L 66,28 C 66,28 70,19 77,1 Z M 276,100 C 276,100 276,100 276,100 L 276,100 C 273,100 226,100 136,100 C 136,100 140,109 149,126 C 183,141 222,139 260,129 C 260,129 265,119 276,100 Z" fill="#131415" id="id-40037"></path><g transform=" translate(42,179)" fill="#BFBFBF" fill-opacity="0.193" id="id-40039"><path d=" M 239,132 C 231,134 226,136 226,136 C 224,107 223,92 223,92 L 230,57 C 236,107 239,132 239,132 Z" id="id-40040"></path><path d=" M 232,190 C 242,191 254,193 254,193 C 254,202 254,211 254,218 C 205,401 221,458 221,458 C 210,418 205,379 205,342 C 209,321 230,273 232,190 Z" id="id-40041"></path><path d=" M 44,266 C 29,264 16,262 1,259 C 23,372 39,474 39,474 L 48,413 C 39,391 37,341 44,266 Z" id="id-40042"></path><path d=" M 30,120 C 20,120 3,107 3,107 C 5,84 6,72 6,72 L 16,55 C 18,85 23,107 30,120 Z" id="id-40043"></path><path d=" M 74,118 C 59,100 57,65 57,65 L 61,1 C 100,41 104,80 74,118 Z" id="id-40044"></path></g></g><defs><linearGradient x1="50%" y1="6%" x2="50%" y2="92%" id="id-40157"><stop stop-color="#E7FF00" offset="0%"></stop><stop stop-color="#9BD300" offset="75%"></stop><stop stop-color="#79BD00" offset="100%"></stop></linearGradient><linearGradient x1="0%" y1="48%" x2="100%" y2="48%" id="id-40158"><stop stop-color="#CEE899" offset="0%"></stop><stop stop-color="#95CA00" offset="3%"></stop><stop stop-color="#C7F747" offset="11%"></stop><stop stop-color="#E3FBB9" offset="16%"></stop><stop stop-color="#5B8600" offset="24%"></stop><stop stop-color="#6D8B00" offset="75%"></stop><stop stop-color="#E5F7BA" offset="82%"></stop><stop stop-color="#B2E332" offset="87%"></stop><stop stop-color="#9DC400" offset="95%"></stop><stop stop-color="#E2EFC0" offset="100%"></stop></linearGradient></defs><g transform=" translate(497,803)" id="id-40159"><polygon points="292 103 250 114 158 116 73 114 54 113 26 106 24 91 10 72 1 47 1 37 8 13 39 2 47 4 73 18 116 46 132 58 132 72 135 79 151 84 171 79 174 58 207 32 263 2 268 1 287 7 303 15 309 34 307 58 294 81" fill="url(#id-40157)" id="id-40160"></polygon><polygon points="198 115 158 116 105 115 142 92 151 84 165 90" fill="#AAEF00" opacity="0.783" id="id-40160"></polygon><polygon points="110 86 67 99 24 91 10 72 1 47 1 37 5 22 7 47 21 72 36 81 58 86" fill="#93E400" id="id-40160"></polygon><polygon points="67 99 24 91 10 72 1 47 1 37 5 22 7 47 21 72 29 84" fill="#BFFF00" id="id-40160"></polygon><polygon points="245 97 210 84 258 74 295 56 304 37 302 15 307 34 307 58 293 81" fill="#8CE200" id="id-40160"></polygon><polygon points="295 56 301 37 303 15 309 34 307 58 294 81 272 88" fill="#9DFF00" id="id-40160"></polygon><polygon points="206 41 217 56 249 64 288 42 297 16 269 4 214 33" fill="#CAF900" id="id-40166"></polygon><polygon points="14 14 14 33 36 55 77 53 97 38 45 6" fill="#C8F800" id="id-40167"></polygon><polygon points="128 79 123 58 85 32 49 10 25 11 5 21 8 13 39 2 47 4 73 18 116 46 132 58 132 63 173 63 172 71 132 71 132 72 135 79 151 84 171 79 174 58 207 32 263 2 268 1 287 7 303 15 305 21 280 10 265 9 212 36 180 59 175 83 153 90 133 84" fill="url(#id-40158)" id="id-40160"></polygon></g><defs><linearGradient x1="55%" y1="40%" x2="50%" y2="39%" id="id-48840"><stop stop-color="#32130F" offset="0%"></stop><stop stop-color="#0C1018" offset="100%"></stop></linearGradient><linearGradient x1="54%" y1="38%" x2="52%" y2="39%" id="id-48841"><stop stop-color="#32130F" offset="0%"></stop><stop stop-color="#0C1018" offset="100%"></stop></linearGradient><linearGradient x1="51%" y1="48%" x2="45%" y2="50%" id="id-48842"><stop stop-color="#2B3F5F" offset="0%" stop-opacity="0"></stop><stop stop-color="#2B3E5E" offset="100%" stop-opacity="0.551"></stop></linearGradient><linearGradient x1="50%" y1="0%" x2="50%" y2="100%" id="id-48843"><stop stop-color="#1A2235" offset="0%"></stop><stop stop-color="#0B0F18" offset="100%"></stop></linearGradient><linearGradient x1="89%" y1="69%" x2="7%" y2="16%" id="id-48844"><stop stop-color="#091221" offset="0%"></stop><stop stop-color="#0A1322" offset="100%"></stop></linearGradient><linearGradient x1="50%" y1="59%" x2="33%" y2="100%" id="id-48845"><stop stop-color="#273754" offset="0%"></stop><stop stop-color="#101C2D" offset="100%"></stop></linearGradient><linearGradient x1="48%" y1="5%" x2="50%" y2="67%" id="id-48846"><stop stop-color="#323844" offset="0%" stop-opacity="0"></stop><stop stop-color="#323743" offset="100%"></stop></linearGradient><linearGradient x1="65%" y1="25%" x2="3%" y2="52%" id="id-48847"><stop stop-color="#323844" offset="0%" stop-opacity="0"></stop><stop stop-color="#323743" offset="100%"></stop></linearGradient></defs><g transform=" translate(442,1037)" id="id-48848"><g transform=" translate(8,0)" id="id-48849"><path d=" M 52,94 C 68,116 79,131 85,140 C 67,243 39,294 3,294 L 3,293 L 46,107 L 52,94 Z" fill="#020609" fill-opacity="0.100" id="id-48850"></path><path d=" M 355,95 C 358,99 359,103 361,108 C 371,168 369,154 381,198 C 392,245 397,276 397,287 C 386,285 333,267 322,146 C 333,129 355,95 355,95 Z" fill="#020609" fill-opacity="0.100" id="id-48851"></path><path d=" M 245,723 C 283,723 310,723 347,723 C 340,697 347,649 347,594 C 347,573 394,449 402,337 C 403,321 402,304 401,288 C 359,276 333,228 323,146 C 289,184 254,230 219,283 C 209,359 228,469 228,522 C 229,556 229,591 231,624 C 238,651 231,696 245,723 Z" fill="url(#id-48840)" id="id-48852"></path><path d=" M 194,281 L 84,137 C 68,242 40,294 0,294 C 4,438 32,484 60,690 C 58,704 56,715 53,723 L 162,723 L 167,696 C 165,669 166,647 171,627 C 171,602 169,601 169,577 C 173,493 188,439 196,304 C 195,292 194,281 194,281 Z" fill="url(#id-48841)" id="id-48853"></path><path d=" M 281,334 C 273,336 268,338 268,338 C 266,309 265,294 265,294 L 272,259 C 278,309 281,334 281,334 Z" fill="#293C5A" id="id-48854"></path><path d=" M 274,392 C 284,393 296,395 296,395 C 296,404 296,413 296,420 C 247,603 263,660 263,660 C 252,620 247,581 247,544 C 251,523 272,475 274,392 Z" fill="#273A58" id="id-48855"></path><path d=" M 90,393 C 74,392 61,390 46,386 C 68,499 81,676 81,676 L 90,615 C 83,543 82,469 90,393 Z" fill="#2B3F5F" id="id-48856"></path><path d=" M 72,322 C 62,322 45,309 45,309 C 47,286 48,274 48,274 L 58,257 C 60,287 65,309 72,322 Z" fill="#2A3D5D" id="id-48857"></path><path d=" M 116,320 C 101,302 99,267 99,267 L 103,203 C 142,243 146,282 116,320 Z" fill="url(#id-48842)" id="id-48858"></path><path d=" M 326,142 L 194,284 C 141,224 93,161 50,93 C 61,64 80,21 80,21 C 78,20 78,19 78,19 C 81,9 83,4 83,4 L 199,56 C 280,19 321,0 321,0 C 325,11 327,16 327,16 C 324,18 323,18 323,18 L 342,54 C 348,70 353,83 356,92 L 326,142 Z" fill="url(#id-48843)" id="id-48859"></path><path d=" M 68,51 C 88,55 98,57 98,57 L 65,117 L 50,93 C 62,65 68,51 68,51 Z" fill="#000000" id="id-48860"></path><path d=" M 183,271 C 205,222 216,197 216,197 C 229,219 237,230 240,232 C 225,193 203,92 203,92 C 241,93 259,94 259,94 C 266,82 270,76 270,76 C 288,74 297,73 297,73 L 326,142 L 221,283 L 194,285 L 183,271 Z" fill="#000000" id="id-48861"></path><path d=" M 68,51 C 70,44 74,34 80,21 L 204,73 C 140,73 95,66 68,51 Z" fill="#0D111A" id="id-48862"></path><path d=" M 204,73 L 325,17 C 334,31 339,44 342,54 C 318,65 271,72 204,73 Z" fill="#0B1018" id="id-48863"></path><path d=" M 158,231 C 169,223 187,210 213,193 C 220,207 229,220 240,232 C 234,214 222,163 204,81 C 128,76 90,73 90,73 L 69,110 C 98,158 127,198 158,231 Z" fill="url(#id-48844)" id="id-48864"></path><path d=" M 176,104 C 171,106 153,119 153,119 C 151,127 150,131 150,131 C 152,137 153,141 154,144 C 148,175 120,185 120,185 C 125,196 128,202 128,202 C 133,201 136,201 136,201 C 156,177 165,154 163,131 C 169,117 169,117 176,104 Z" fill="url(#id-48845)" id="id-48865"></path><path d=" M 356,92 C 342,117 332,134 326,141 C 317,134 307,112 297,76 L 348,68 L 356,92 Z" fill="#181116" id="id-48866"></path><path d=" M 356,91 C 338,103 323,112 312,119 C 317,130 321,137 326,141 L 356,92 L 356,91 Z" fill="#000000" id="id-48867"></path></g><g transform=" translate(0,49)" id="id-48868"><g transform=" translate(0,0)" id="id-48869"><path d=" M 201,22 C 201,22 159,15 73,0 L 67,18 C 67,18 105,23 180,34 C 180,34 134,54 41,94 C 41,94 40,102 37,120 C 37,120 59,109 105,89 C 105,89 99,154 88,284 C 88,284 63,263 13,220 C 13,220 8,237 0,270 C 0,270 6,312 8,323 C 72,347 137,349 201,327 C 201,327 201,316 201,294 C 201,294 168,292 101,288 C 101,288 106,220 116,83 C 116,83 148,69 212,41 C 212,41 240,53 297,78 L 316,289 C 316,289 285,291 223,293 C 223,293 223,305 224,327 C 224,327 309,368 408,327 C 408,322 411,308 416,284 C 416,284 414,266 408,228 C 408,228 383,247 334,286 C 334,286 327,219 315,85 C 315,85 338,94 385,111 C 385,111 385,104 383,89 C 383,89 336,70 241,34 C 241,34 281,29 360,18 C 360,18 359,13 356,2 C 356,2 310,8 219,22 C 219,22 213,22 201,22 Z" fill="#020609" id="id-48870"></path><path d=" M 329,243 C 319,251 314,255 314,255 C 308,202 306,176 306,176 L 322,165 C 327,217 329,243 329,243 Z" fill="url(#id-48846)" id="id-48871"></path><path d=" M 55,88 C 52,105 50,114 50,114 C 75,102 88,96 88,96 L 103,66 C 71,80 55,88 55,88 Z" fill="url(#id-48847)" id="id-48872"></path></g><g transform=" translate(85,31)" fill="#7C5A00" id="id-48873"><polygon points="36 45 28 66 16 56 23 41" id="id-48874"></polygon><path d=" M 101,10 C 102,13 104,20 104,20 C 114,15 119,13 119,13 C 115,20 113,23 113,23 C 118,25 120,26 120,26 C 124,15 126,9 126,9 C 132,20 135,26 135,26 C 138,22 139,20 139,20 C 134,14 131,12 131,12 C 141,16 146,19 146,19 C 149,12 150,9 150,9 L 124,1 C 122,3 114,6 101,10 Z" id="id-48875"></path><path d=" M 218,32 C 228,40 233,44 233,44 C 225,55 222,60 222,60 L 208,45 C 215,36 218,32 218,32 Z" id="id-48876"></path><path d=" M 11,257 C 16,261 18,263 18,263 C 16,283 15,294 15,294 C 6,291 1,290 1,290 L 0,258 C 7,257 11,257 11,257 Z" id="id-48877"></path><path d=" M 249,263 C 252,290 253,303 253,303 C 241,303 235,303 235,303 C 236,281 236,270 236,270 L 237,266 C 245,264 249,263 249,263 Z" id="id-48878"></path></g></g></g><defs><linearGradient x1="50%" y1="9%" x2="50%" y2="67%" id="id-62041"><stop stop-color="#AAE335" offset="0%"></stop><stop stop-color="#F6F4F2" offset="46%"></stop><stop stop-color="#67BF72" offset="100%"></stop></linearGradient><linearGradient x1="70%" y1="40%" x2="50%" y2="60%" id="id-62042"><stop stop-color="#C69100" offset="0%" stop-opacity="0.600"></stop><stop stop-color="#DCE000" offset="100%" stop-opacity="0.800"></stop></linearGradient><linearGradient x1="70%" y1="40%" x2="50%" y2="60%" id="id-62043"><stop stop-color="#DCE000" offset="0%" stop-opacity="0.800"></stop><stop stop-color="#C69100" offset="100%" stop-opacity="0.600"></stop></linearGradient><linearGradient x1="100%" y1="50%" x2="76%" y2="58%" id="id-62044"><stop stop-color="#BEC9FA" offset="0%"></stop><stop stop-color="#809AF6" offset="100%"></stop></linearGradient><linearGradient x1="50%" y1="0%" x2="50%" y2="87%" id="id-62045"><stop stop-color="#FF81FF" offset="0%"></stop><stop stop-color="#FF39A6" offset="100%"></stop></linearGradient></defs><g transform=" translate(592,320)" id="id-62046"><path d=" M 22,148 C 27,150 32,150 37,149 C 34,153 31,156 28,156 C 24,155 22,148 22,148 Z" fill="#65B174" id="id-62047"></path><path d=" M 103,151 C 111,151 115,151 115,151 C 113,154 111,156 109,156 C 106,157 103,151 103,151 Z" fill="#65B174" id="id-62048"></path><path d=" M 106,155 C 106,186 106,202 106,202 L 113,154 C 108,155 106,155 106,155 Z" fill="#A4E222" id="id-62049"></path><path d=" M 25,153 C 29,191 31,210 31,210 L 33,153 C 27,153 25,153 25,153 Z" fill="#A3E31F" id="id-62050"></path><path d=" M 81,149 C 80,151 79,153 79,153 L 81,154 C 81,151 81,149 81,149 Z" fill="#A6DF26" id="id-62051"></path><path d=" M 91,155 C 89,156 88,157 88,157 L 90,159 C 91,156 91,155 91,155 Z" fill="#A6DF26" id="id-62052"></path><path d=" M 84,165 C 84,167 84,168 84,168 L 87,168 C 85,166 84,165 84,165 Z" fill="#A6DF26" id="id-62053"></path><path d=" M 103,156 C 101,158 100,158 100,158 L 102,160 C 103,158 103,156 103,156 Z" fill="#A6DF26" id="id-62054"></path><path d=" M 58,159 C 58,162 58,163 58,163 L 55,162 C 57,160 58,159 58,159 Z" fill="#A6DF26" id="id-62055"></path><path d=" M 47,153 C 49,155 51,156 51,156 L 48,158 C 47,154 47,153 47,153 Z" fill="#A6DF26" id="id-62056"></path><path d=" M 38,161 C 37,163 37,164 37,164 L 40,166 C 39,162 38,161 38,161 Z" fill="#A6DF26" id="id-62057"></path><path d=" M 24,173 C 20,181 18,184 18,184 L 25,193 C 26,182 25,175 24,173 Z" fill="#FF6AD5" id="id-62058"></path><path d=" M 112,176 C 111,187 110,192 110,192 L 117,184 C 114,179 112,176 112,176 Z" fill="#FF249A" id="id-62059"></path><path d=" M 70,234 C 66,224 65,219 65,219 L 75,219 C 72,229 70,234 70,234 Z" fill="url(#id-62041)" id="id-62060"></path><path d=" M 62,140 C 54,144 50,146 50,146 C 44,138 36,134 28,134 C 15,134 14,140 1,138 C -2,129 8,119 8,119 C 12,119 14,118 17,119 C 28,121 40,123 53,125 C 59,135 62,140 62,140 Z" fill="url(#id-62042)" id="id-62061"></path><path d=" M 76,140 C 82,130 86,124 86,124 C 95,123 107,121 122,119 C 127,120 129,121 130,122 C 137,128 135,137 135,141 C 129,145 117,135 106,137 C 99,138 93,141 90,145 C 81,142 76,140 76,140 Z" fill="url(#id-62043)" id="id-62062"></path><path d=" M 43,110 C 56,130 62,140 62,140 C 67,137 69,135 69,135 C 74,138 76,139 76,139 C 77,132 80,129 83,124 C 84,121 85,115 88,113 C 73,109 58,108 43,110 Z" fill="#5CBA7D" id="id-62063"></path><path d=" M 56,130 C 64,125 71,126 79,128 C 77,135 76,139 76,139 L 69,135 L 62,140 C 58,133 56,130 56,130 Z" fill="#24A88A" id="id-62064"></path><path d=" M 75,139 C 77,140 78,140 78,140 C 80,134 81,131 81,131 C 84,128 86,127 86,127 L 86,124 L 79,129 C 77,136 75,139 75,139 Z" fill="#DFD800" id="id-62065"></path><path d=" M 60,141 L 62,140 C 56,129 53,124 53,124 L 51,124 L 60,141 Z" fill="#7CCC32" id="id-62066"></path><path d=" M 43,110 C 28,108 21,107 21,107 C 38,92 46,85 46,85 C 55,85 59,85 59,85 C 65,89 68,91 68,91 C 74,87 77,85 77,85 C 87,85 93,85 93,85 C 99,77 102,73 102,73 C 112,84 116,89 116,89 C 119,99 121,105 121,105 L 67,109 C 51,110 43,110 43,110 Z" fill="#A3E31F" id="id-62067"></path><path d=" M 69,109 L 86,96 L 121,105 C 108,107 104,111 88,113 L 68,109 L 43,110 C 28,108 20,106 20,106 L 29,99 L 51,99 C 63,106 69,109 69,109 Z" fill="#BAFF86" id="id-62068"></path><path d=" M 33,92 L 44,84 L 93,85 C 99,77 102,73 102,73 C 109,81 113,84 113,84 C 113,78 114,75 114,75 C 118,80 120,82 120,82 C 122,72 123,68 123,68 C 114,59 110,55 110,55 C 94,54 87,54 87,54 C 74,18 68,0 68,0 C 60,32 56,48 56,48 C 34,67 23,76 23,76 C 27,77 29,77 29,77 L 35,86 C 34,90 33,92 33,92 Z" fill="url(#id-62044)" id="id-62069"></path><path d=" M 58,76 C 56,76 55,75 55,75 L 55,71 C 57,74 58,76 58,76 Z" stroke="#979797" id="id-62070"></path><path d=" M 79,74 C 83,71 85,70 85,70 L 80,69 C 79,72 79,74 79,74 Z" stroke="#979797" id="id-62071"></path><path d=" M 23,59 C 18,51 16,47 16,47 C 32,50 39,52 39,52 C 34,43 31,34 31,24 C 44,31 52,37 57,43 C 57,34 61,25 68,16 C 76,28 80,37 80,42 C 88,34 96,28 105,24 C 103,38 101,47 97,52 L 121,47 L 113,59 L 69,90 C 38,69 23,59 23,59 Z" fill="url(#id-62045)" id="id-62072"></path><path d=" M 58,69 C 57,62 57,59 57,59 C 65,54 68,52 68,52 C 76,57 80,60 80,60 L 77,67 C 64,68 58,69 58,69 Z" fill="#7A3A00" id="id-62073"></path><path d=" M 79,58 C 77,53 77,51 77,51 L 73,56 C 77,57 79,58 79,58 Z" fill="#D1DF00" id="id-62074"></path><path d=" M 58,51 L 64,58 L 57,60 C 58,54 58,51 58,51 Z" fill="#D1DF00" id="id-62075"></path><path d=" M 44,84 C 38,81 35,77 34,71 C 37,70 38,70 38,70 L 25,60 C 36,59 47,63 57,73 C 57,67 61,60 68,51 C 76,59 80,66 80,73 C 81,68 91,64 112,59 C 103,67 98,70 98,70 L 103,71 L 93,85 L 76,85 L 68,91 L 59,85 C 49,84 44,84 44,84 Z" fill="#FF005C" id="id-62076"></path><path d=" M 69,92 C 62,87 58,84 58,84 C 59,79 59,76 59,76 C 65,85 68,90 68,90 L 79,78 L 79,84 L 76,85 L 69,92 Z" fill="#B6002D" id="id-62077"></path><path d=" M 68,16 C 69,40 70,52 70,52 L 79,37 C 76,29 72,22 68,16 Z" fill="#FFACFF" id="id-62078"></path><path d=" M 68,16 C 69,34 69,42 69,42 C 71,37 72,32 72,29 C 71,21 68,16 68,16 Z" fill="#FFE7FE" id="id-62079"></path><path d=" M 57,61 C 48,56 44,54 44,54 C 49,55 52,55 52,55 L 52,39 C 58,44 59,51 57,61 Z" fill="#FE006D" id="id-62080"></path><path d=" M 81,41 C 79,49 78,57 78,63 C 86,59 90,56 90,56 L 85,55 C 82,46 81,41 81,41 Z" fill="#FF006E" id="id-62081"></path><path d=" M 49,66 C 44,64 41,63 41,63 C 44,61 44,58 43,53 C 48,56 51,58 51,58 C 45,59 44,61 49,66 Z" fill="#FF85E0" id="id-62082"></path><path d=" M 94,64 C 96,60 95,57 90,56 C 99,52 104,51 104,51 C 99,54 96,58 99,63 C 96,64 94,64 94,64 Z" fill="#FF85E0" id="id-62083"></path><path d=" M 69,53 L 69,90 C 76,84 80,77 80,71 C 80,65 76,59 69,53 Z" fill="#FF39A6" id="id-62084"></path></g><defs></defs><g transform=" translate(537,260)" id="id-63760"><g transform=" translate(0,6)" id="id-63761"><path d=" M 73,365 C 60,342 54,331 50,294 C 69,222 63,254 73,185 C 81,158 97,128 95,132 C 89,142 49,180 46,252 C 47,201 60,179 76,130 C 87,124 93,121 99,116 C 81,123 62,133 42,146 C 52,143 59,140 63,138 C 46,151 39,182 38,194 C 34,173 35,137 40,122 C 15,120 5,105 0,98 C -2,76 38,41 56,49 C 64,59 67,70 66,80 C 70,77 74,75 78,73 C 69,64 65,57 62,50 C 74,17 103,-3 141,1 C 163,21 167,26 179,50 C 179,57 175,63 168,70 C 173,72 177,74 180,77 C 197,44 228,50 234,62 C 272,141 219,134 211,130 C 214,147 214,164 213,181 L 210,183 C 209,192 209,197 208,201 C 208,193 206,188 204,179 C 201,169 200,162 197,153 C 198,154 200,157 203,160 C 191,136 187,151 178,103 C 167,100 143,89 117,89 C 130,93 142,97 154,102 C 148,103 142,104 136,106 C 113,119 38,224 73,365 Z" fill="#3E1F27" id="id-63762"></path><path d=" M 188,333 C 199,300 192,302 190,280 C 194,266 197,255 199,249 C 203,248 206,247 207,247 C 205,252 190,293 210,319 C 209,344 204,362 196,374 C 202,355 203,334 199,313 C 197,321 192,327 188,333 Z" fill="#3E1F25" id="id-63763"></path></g><g transform=" translate(1,12)" id="id-63764"><path d=" M 30,77 C 13,79 4,81 0,83 C 1,79 4,74 8,68 C 21,72 29,74 30,77 Z" fill="#5E2B3A" id="id-63765"></path><path d=" M 48,42 C 52,48 57,62 58,69 C 39,65 21,65 15,65 C 12,58 39,40 48,42 Z" fill="#5E2B3A" id="id-63766"></path><path d=" M 110,12 C 126,13 155,27 170,30 C 168,23 154,7 146,0 C 133,1 111,6 110,12 Z" fill="#5E2B3A" id="id-63767"></path><path d=" M 231,54 C 221,54 207,57 199,62 C 215,66 223,73 235,82 C 234,70 237,59 231,54 Z" fill="#5E2B3A" id="id-63768"></path><path d=" M 7,101 C 15,109 24,115 39,116 C 51,78 65,74 65,74 C 65,74 65,73 65,72 C 60,71 19,96 7,101 Z" fill="#2E1018" id="id-63769"></path><path d=" M 77,67 C 75,65 72,62 69,59 C 116,27 116,31 166,63 C 132,53 102,55 77,67 Z" fill="#2E1018" id="id-63770"></path><path d=" M 200,49 C 192,93 213,89 232,125 C 225,128 216,127 210,124 C 202,98 196,84 179,71 C 185,60 192,53 200,49 Z" fill="#2E1018" id="id-63771"></path></g><g transform=" translate(15,0)" fill="#6D577E" id="id-63772"><path d=" M 47,82 C 34,76 25,76 21,65 C 17,71 13,71 1,77 C 16,77 30,78 47,82 Z" id="id-63773"></path><path d=" M 54,41 C 83,24 98,8 143,29 C 146,29 146,29 147,28 C 135,15 135,13 121,1 C 111,6 107,9 95,16 C 88,18 66,24 54,41 Z" id="id-63774"></path><path d=" M 193,74 C 195,73 196,72 198,70 C 206,79 213,80 222,83 C 231,96 233,107 232,119 C 230,106 219,85 193,74 Z" id="id-63775"></path><path d=" M 77,73 C 77,73 68,77 59,81 C 59,89 59,94 61,104 C 78,107 79,119 76,128 C 81,125 85,121 93,117 C 67,102 77,73 77,73 Z" id="id-63776"></path><path d=" M 76,132 C 89,132 89,140 84,159 C 91,146 96,138 105,128 C 96,129 94,128 88,125 C 84,127 83,129 76,132 Z" id="id-63777"></path><path d=" M 149,75 C 160,85 165,95 157,108 C 159,108 161,109 163,109 L 163,111 C 166,103 172,99 180,98 C 170,84 157,76 149,75 Z" id="id-63778"></path></g></g><defs></defs><path d=" M 1202,1685 C 1201,1683 1198,1681 1197,1679 C 1196,1678 1196,1676 1196,1675 C 1196,1674 1194,1672 1193,1671 C 1193,1670 1192,1669 1192,1668 C 1192,1667 1195,1666 1196,1665 C 1198,1663 1200,1661 1202,1658 C 1207,1649 1216,1643 1226,1641 C 1240,1638 1254,1644 1263,1655 C 1264,1657 1266,1660 1265,1663 C 1265,1664 1263,1665 1263,1666 C 1263,1667 1265,1669 1266,1670 C 1271,1673 1269,1673 1270,1678 C 1270,1682 1274,1681 1274,1685 L 1274,1685 L 1274,1686 C 1274,1686 1274,1686 1274,1686 C 1273,1688 1271,1688 1270,1689 C 1268,1691 1267,1692 1266,1694 C 1263,1698 1261,1700 1258,1704 C 1242,1719 1214,1716 1202,1696 C 1201,1695 1199,1691 1200,1689 C 1201,1688 1202,1688 1202,1685 L 1202,1685 Z M 1268,1685 C 1267,1682 1265,1682 1264,1679 C 1264,1678 1264,1677 1264,1676 C 1264,1675 1264,1674 1264,1674 C 1264,1673 1263,1672 1262,1672 C 1260,1670 1256,1669 1258,1665 C 1259,1662 1261,1662 1258,1658 C 1246,1643 1223,1641 1210,1656 C 1209,1658 1208,1659 1207,1661 C 1205,1663 1202,1665 1200,1667 C 1197,1669 1197,1669 1200,1671 C 1203,1675 1201,1676 1203,1679 C 1204,1681 1207,1682 1208,1685 L 1208,1685 L 1208,1685 C 1207,1690 1203,1688 1207,1694 C 1216,1706 1232,1711 1246,1705 C 1249,1704 1252,1702 1255,1699 C 1257,1697 1259,1694 1261,1691 C 1263,1689 1267,1687 1268,1685 L 1268,1685 Z M 1254,1685 C 1254,1682 1252,1682 1252,1680 C 1251,1677 1251,1673 1255,1674 C 1258,1675 1256,1678 1258,1680 C 1259,1682 1260,1682 1260,1685 L 1261,1686 L 1260,1686 C 1259,1688 1257,1689 1255,1690 C 1248,1694 1246,1699 1237,1700 C 1231,1701 1225,1700 1221,1697 C 1219,1696 1216,1694 1215,1692 C 1213,1689 1216,1688 1216,1685 C 1215,1683 1212,1682 1211,1680 C 1208,1677 1210,1673 1214,1674 L 1214,1674 L 1215,1675 C 1216,1678 1215,1679 1217,1681 C 1219,1682 1222,1683 1222,1686 C 1222,1689 1220,1690 1224,1692 C 1230,1696 1238,1695 1244,1691 C 1246,1690 1253,1687 1254,1685 L 1254,1685 Z M 1244,1674 C 1242,1675 1239,1674 1237,1673 C 1236,1672 1233,1670 1232,1669 C 1231,1669 1231,1668 1231,1667 C 1231,1666 1233,1665 1234,1664 C 1235,1662 1237,1661 1238,1659 C 1242,1652 1249,1658 1247,1663 C 1246,1665 1243,1666 1243,1668 C 1243,1670 1246,1671 1244,1674 L 1244,1674 L 1244,1674 L 1244,1674 Z M 1222,1656 C 1224,1655 1227,1656 1228,1659 C 1229,1660 1229,1661 1229,1663 C 1228,1665 1223,1666 1225,1669 C 1225,1670 1226,1670 1226,1671 C 1227,1674 1226,1675 1223,1675 C 1222,1675 1219,1673 1218,1672 C 1216,1671 1212,1669 1214,1666 C 1215,1664 1217,1664 1218,1662 C 1219,1660 1220,1658 1222,1656 L 1222,1656 Z" fill="#343D53" opacity="0.297" id="id-77051"></path></svg>