<?xml version="1.0" encoding="UTF-8"?><svg width="1320px" height="1760px" viewBox="0 0 1320 1760" version="1.1" xmlns="http://www.w3.org/2000/svg" xmlns:xlink="http://www.w3.org/1999/xlink"><defs></defs><g stroke="none" stroke-width="1" fill="none" id="id-31314" fill-rule="evenodd"><g id="id-31315"><rect fill="#CBD3CB" width="1320" height="1760" x="0" y="0" id="id-31316"></rect><g transform=" translate(79,233)" fill="#151515" id="id-31317"><path d=" M 990,0 C 970,22 959,32 959,32 C 939,16 928,7 928,7 C 926,14 925,18 925,18 C 955,45 969,59 969,59 L 1003,24 C 994,8 990,0 990,0 Z" transform=" translate(964,30) rotate(-180) translate(-964,-30)" id="id-31318"></path><path d=" M 971,163 C 962,145 957,137 957,137 C 937,159 927,170 927,170 C 907,154 897,146 897,146 C 894,150 893,153 893,153 C 836,96 808,67 808,67 C 829,54 839,47 839,47 C 950,43 1005,42 1005,42 C 996,51 992,55 992,55 C 1026,57 1043,57 1043,57 C 1039,47 1038,43 1038,43 C 1062,43 1074,43 1074,43 L 1083,52 C 1008,126 971,163 971,163 Z" transform=" translate(945,106) rotate(-180) translate(-945,-106)" id="id-31319"></path><path d=" M 272,709 C 269,709 267,709 267,709 C 260,699 257,695 257,695 C 263,688 266,685 266,685 L 275,688 C 273,702 272,709 272,709 Z" transform=" translate(266,697) rotate(-180) translate(-266,-697)" id="id-31320"></path><path d=" M 952,18 C 1034,100 1077,142 1080,145 L 1080,146 C 1080,146 1080,146 1080,146 C 1065,166 1057,176 1057,176 C 1094,177 1113,178 1113,178 C 1138,204 1151,217 1151,217 C 1062,307 1015,354 1011,358 L 1010,359 C 1010,359 1010,359 1010,359 L 1010,359 L 1010,359 C 1000,383 995,395 995,395 C 986,390 982,388 982,388 C 854,515 790,578 790,578 C 776,579 770,580 770,580 C 778,599 782,608 782,608 C 789,611 793,612 793,612 C 797,617 799,620 799,620 C 819,620 830,620 832,620 L 832,620 C 832,620 832,620 832,620 L 832,620 C 832,620 832,620 832,620 L 833,620 L 833,620 C 843,645 848,658 848,658 C 844,658 842,659 842,659 L 842,659 L 842,659 C 843,664 843,666 843,666 L 854,666 L 856,676 C 1055,870 1149,967 1149,967 C 1141,975 1137,980 1137,980 C 1054,988 1012,992 1012,992 C 1081,996 1115,998 1115,998 C 1005,1109 949,1165 947,1167 L 947,1168 L 947,1168 C 843,1064 788,1008 782,1002 L 782,1002 C 782,1002 782,1002 782,1002 L 782,1002 L 782,1002 C 814,988 831,981 831,981 C 767,963 736,954 736,954 C 628,848 575,795 575,795 C 526,843 501,867 501,867 C 498,721 497,647 497,647 C 486,636 481,630 481,630 C 482,773 482,846 482,849 L 482,849 L 482,849 C 475,843 471,839 471,839 C 471,874 471,893 471,897 L 471,897 C 471,897 471,897 471,897 L 471,898 C 471,898 471,898 471,898 L 471,898 L 471,898 L 364,1005 C 148,1009 40,1012 40,1012 C 13,984 0,970 0,970 C 108,862 163,807 165,805 L 166,805 L 166,805 C 236,801 271,799 271,799 C 206,797 174,797 174,797 C 221,793 245,791 245,791 C 203,789 183,788 183,788 C 232,781 257,778 257,778 C 220,777 202,776 202,776 C 257,765 285,759 285,759 C 234,761 209,761 209,761 C 315,656 370,600 374,596 L 374,596 L 374,596 C 408,596 425,595 426,595 L 426,595 L 426,595 L 445,584 L 296,584 L 296,584 C 325,566 339,558 339,558 C 129,348 21,241 15,234 L 15,234 C 15,234 15,234 15,234 C 45,205 60,191 60,191 C 44,189 36,187 36,187 C 100,124 132,93 132,93 C 94,91 75,90 75,90 C 126,78 152,71 153,71 L 153,71 L 153,71 C 185,38 202,21 203,20 L 203,20 L 203,20 C 292,108 340,157 348,165 L 348,165 C 349,165 349,165 349,165 L 349,166 C 349,166 349,166 349,166 C 170,170 80,173 80,173 C 269,179 364,182 364,182 C 438,256 476,293 477,295 L 477,295 L 477,295 C 477,324 477,341 477,346 L 477,347 C 477,347 477,347 477,347 L 477,347 C 477,347 477,347 477,347 L 477,347 C 477,347 477,347 477,348 L 477,348 L 477,348 C 492,365 500,374 500,374 C 501,338 501,320 501,319 L 501,319 L 501,319 C 537,356 556,375 558,377 L 558,377 C 558,377 558,377 558,377 C 571,386 577,391 577,391 C 591,391 599,392 599,392 L 599,392 L 599,392 C 592,385 589,381 589,381 C 607,363 617,354 617,354 L 617,354 L 617,354 C 592,345 579,341 579,341 C 627,328 650,321 650,321 C 748,223 797,173 799,171 L 799,171 L 799,171 C 860,169 906,168 938,167 L 942,167 C 975,166 992,166 992,166 C 873,160 813,157 813,157 C 900,70 946,24 951,18 L 952,18 C 952,18 952,18 952,18 L 952,18 L 952,18 Z M 499,557 C 482,574 473,583 472,584 L 472,584 L 472,584 L 501,610 C 500,575 499,557 499,557 Z M 755,567 C 746,570 742,572 742,572 C 731,581 726,586 726,586 C 746,595 756,599 756,599 C 760,586 763,580 763,580 L 755,580 C 755,572 755,567 755,567 L 755,567 L 755,567 Z M 722,580 L 716,580 L 716,580 C 717,583 717,585 717,585 L 722,585 L 722,580 Z M 652,388 C 653,392 653,395 653,395 L 678,392 C 661,389 652,388 652,388 Z M 536,387 L 528,387 C 528,387 528,388 528,392 L 528,392 L 536,392 L 536,392 L 536,387 L 536,387 Z" transform=" translate(576,593) rotate(-180) translate(-576,-593)" id="id-31321"></path><path d=" M 595,920 C 624,922 638,923 638,923 C 640,920 641,918 641,918 L 616,879 C 602,907 595,920 595,920 Z" transform=" translate(618,901) rotate(-180) translate(-618,-901)" id="id-31322"></path><path d=" M 592,938 C 578,910 571,895 571,895 C 573,891 574,889 574,889 L 615,894 C 600,924 592,938 592,938 Z" transform=" translate(593,914) rotate(-180) translate(-593,-914)" id="id-31323"></path><path d=" M 480,933 C 509,918 524,911 524,911 L 515,937 C 491,934 480,933 480,933 Z" transform=" translate(502,924) rotate(-180) translate(-502,-924)" id="id-31324"></path><path d=" M 338,594 C 339,613 339,622 339,622 L 353,604 C 343,597 338,594 338,594 Z" transform=" translate(346,608) rotate(-180) translate(-346,-608)" id="id-31325"></path><path d=" M 255,505 C 268,503 274,502 274,502 L 272,484 C 261,498 255,505 255,505 Z" transform=" translate(265,495) rotate(-180) translate(-265,-495)" id="id-31326"></path><path d=" M 238,541 C 231,524 228,516 228,516 L 244,525 C 240,535 238,541 238,541 Z" transform=" translate(236,528) rotate(-180) translate(-236,-528)" id="id-31327"></path><path d=" M 187,514 C 185,508 184,505 184,505 L 194,505 C 189,511 187,514 187,514 Z" transform=" translate(189,509) rotate(-180) translate(-189,-509)" id="id-31328"></path><path d=" M 259,554 L 261,541 C 270,521 274,511 274,511 L 290,538 C 270,549 259,554 259,554 Z" transform=" translate(275,532) rotate(-180) translate(-275,-532)" id="id-31329"></path><path d=" M 232,579 C 224,591 220,597 220,597 L 238,592 C 234,584 232,579 232,579 Z" transform=" translate(229,588) rotate(-180) translate(-229,-588)" id="id-31330"></path><path d=" M 267,632 C 288,597 298,580 298,580 L 301,618 C 278,627 267,632 267,632 Z" transform=" translate(284,606) rotate(-180) translate(-284,-606)" id="id-31331"></path><path d=" M 331,640 C 314,645 305,648 305,648 L 321,618 C 328,633 331,640 331,640 Z" transform=" translate(318,633) rotate(-180) translate(-318,-633)" id="id-31332"></path><path d=" M 196,745 C 190,729 187,721 187,721 L 205,726 C 199,739 196,745 196,745 Z" transform=" translate(196,733) rotate(-180) translate(-196,-733)" id="id-31333"></path><path d=" M 167,764 C 150,753 141,748 141,748 L 163,736 C 165,754 167,764 167,764 Z" transform=" translate(154,750) rotate(-180) translate(-154,-750)" id="id-31334"></path><path d=" M 197,769 C 192,769 189,769 189,769 C 191,762 192,758 192,758 L 199,760 C 198,766 197,769 197,769 Z" transform=" translate(194,764) rotate(-180) translate(-194,-764)" id="id-31335"></path></g></g></g><defs></defs><g transform=" translate(484,462)" id="id-111707"><path d=" M 19,76 C 58,129 77,155 77,155 L 97,252 L 95,199 C 87,162 84,144 84,144 C 74,102 69,81 69,81 L 113,34 L 99,3 L 66,13 L 8,45 L 7,49 L 0,55 C 13,69 19,76 19,76 Z" fill="#D800BA" id="id-111708"></path><path d=" M 42,51 C 35,44 32,41 32,41 C 54,27 65,19 65,19 L 75,29 C 53,44 42,51 42,51 Z" fill="#F4D1C1" id="id-111709"></path><path d=" M 43,46 C 46,44 47,43 47,43 C 44,40 42,38 42,38 L 37,41 C 41,45 43,46 43,46 Z" fill="#372F4C" id="id-111710"></path><path d=" M 50,41 C 47,37 46,36 46,36 C 57,28 63,25 63,25 L 68,30 C 56,37 50,41 50,41 Z" fill="#372F4C" id="id-111711"></path><path d=" M 84,145 C 74,102 69,81 69,81 C 99,50 113,35 113,35 C 122,45 127,52 128,55 C 128,70 136,92 152,122 C 120,127 97,134 84,145 Z" fill="#8A0073" id="id-111712"></path><path d=" M 248,1 L 233,32 L 235,55 C 236,72 235,75 240,99 C 246,114 253,127 265,137 L 254,203 L 250,271 L 274,175 C 277,160 279,153 279,153 C 318,101 337,74 337,74 C 354,64 363,58 363,58 C 359,54 358,52 358,52 L 352,55 L 342,41 L 248,1 Z" fill="#D800BA" id="id-111713"></path><path d=" M 265,137 C 271,109 275,95 275,95 C 286,69 291,56 291,56 L 225,28 L 215,115 C 239,126 256,133 265,137 Z" fill="#97007F" id="id-111714"></path><path d=" M 312,54 L 342,41 L 340,39 C 278,13 248,0 248,0 C 244,10 243,15 243,15 L 307,34 L 312,54 Z" fill="#FF4EEC" id="id-111715"></path></g><defs><linearGradient x1="50%" y1="6%" x2="50%" y2="100%" id="id-110371"><stop stop-color="#783F2F" offset="0%"></stop><stop stop-color="#97573C" offset="8%"></stop><stop stop-color="#7A3F2D" offset="20%"></stop><stop stop-color="#884B31" offset="34%"></stop><stop stop-color="#6B2923" offset="71%"></stop><stop stop-color="#602521" offset="100%"></stop></linearGradient><linearGradient x1="50%" y1="-10%" x2="50%" y2="84%" id="id-110372"><stop stop-color="#824631" offset="0%"></stop><stop stop-color="#9D5940" offset="49%"></stop><stop stop-color="#91533A" offset="100%"></stop></linearGradient><linearGradient x1="57%" y1="50%" x2="47%" y2="56%" id="id-110373"><stop stop-color="#551B1B" offset="0%"></stop><stop stop-color="#612520" offset="100%"></stop></linearGradient><linearGradient x1="45%" y1="35%" x2="55%" y2="47%" id="id-110374"><stop stop-color="#81452F" offset="0%"></stop><stop stop-color="#5D221E" offset="100%"></stop></linearGradient><linearGradient x1="54%" y1="31%" x2="47%" y2="81%" id="id-110375"><stop stop-color="#80402E" offset="0%"></stop><stop stop-color="#793E2D" offset="20%"></stop><stop stop-color="#77382C" offset="71%"></stop><stop stop-color="#6D2F27" offset="81%"></stop><stop stop-color="#5B201C" offset="100%"></stop></linearGradient><linearGradient x1="43%" y1="38%" x2="54%" y2="44%" id="id-110376"><stop stop-color="#8F4F38" offset="0%"></stop><stop stop-color="#6D2C24" offset="100%"></stop></linearGradient><linearGradient x1="46%" y1="8%" x2="58%" y2="82%" id="id-110377"><stop stop-color="#9B5B3F" offset="0%" stop-opacity="0.880"></stop><stop stop-color="#6B2A22" offset="100%"></stop></linearGradient><linearGradient x1="50%" y1="41%" x2="49%" y2="66%" id="id-110378"><stop stop-color="#581B1B" offset="0%"></stop><stop stop-color="#843428" offset="27%"></stop><stop stop-color="#86422D" offset="100%"></stop></linearGradient><linearGradient x1="63%" y1="4%" x2="25%" y2="77%" id="id-110379"><stop stop-color="#9F5F44" offset="0%"></stop><stop stop-color="#B37459" offset="55%"></stop><stop stop-color="#9C5D42" offset="100%"></stop></linearGradient><linearGradient x1="50%" y1="23%" x2="41%" y2="77%" id="id-110380"><stop stop-color="#541214" offset="0%"></stop><stop stop-color="#5D1B1C" offset="100%"></stop></linearGradient><linearGradient x1="47%" y1="22%" x2="55%" y2="89%" id="id-110381"><stop stop-color="#703527" offset="0%"></stop><stop stop-color="#A9624A" offset="100%"></stop></linearGradient><linearGradient x1="86%" y1="87%" x2="11%" y2="66%" id="id-110382"><stop stop-color="#773D31" offset="0%"></stop><stop stop-color="#672D25" offset="100%"></stop></linearGradient><linearGradient x1="71%" y1="11%" x2="50%" y2="100%" id="id-110383"><stop stop-color="#81432F" offset="0%" stop-opacity="0"></stop><stop stop-color="#783A28" offset="100%"></stop></linearGradient><linearGradient x1="66%" y1="46%" x2="56%" y2="43%" id="id-110384"><stop stop-color="#672B26" offset="0%"></stop><stop stop-color="#5D2221" offset="100%"></stop></linearGradient><linearGradient x1="100%" y1="41%" x2="50%" y2="63%" id="id-110385"><stop stop-color="#271321" offset="0%"></stop><stop stop-color="#43151B" offset="100%"></stop></linearGradient><linearGradient x1="69%" y1="20%" x2="50%" y2="100%" id="id-110386"><stop stop-color="#672D26" offset="0%"></stop><stop stop-color="#75382C" offset="100%"></stop></linearGradient><linearGradient x1="36%" y1="20%" x2="57%" y2="81%" id="id-110387"><stop stop-color="#B16549" offset="0%"></stop><stop stop-color="#8A4934" offset="100%"></stop></linearGradient><linearGradient x1="26%" y1="83%" x2="92%" y2="50%" id="id-110388"><stop stop-color="#874834" offset="0%"></stop><stop stop-color="#CF836C" offset="100%" stop-opacity="0.095"></stop></linearGradient><linearGradient x1="17%" y1="56%" x2="85%" y2="45%" id="id-110389"><stop stop-color="#B16549" offset="0%" stop-opacity="0"></stop><stop stop-color="#CA8266" offset="52%"></stop><stop stop-color="#A55D43" offset="100%"></stop></linearGradient><linearGradient x1="17%" y1="24%" x2="74%" y2="87%" id="id-110390"><stop stop-color="#C0765D" offset="0%"></stop><stop stop-color="#7A3C2D" offset="100%"></stop></linearGradient><linearGradient x1="26%" y1="42%" x2="80%" y2="75%" id="id-110391"><stop stop-color="#BD7964" offset="0%"></stop><stop stop-color="#965340" offset="100%" stop-opacity="0"></stop></linearGradient><linearGradient x1="29%" y1="56%" x2="77%" y2="50%" id="id-110392"><stop stop-color="#CC876F" offset="0%"></stop><stop stop-color="#B97055" offset="100%" stop-opacity="0"></stop></linearGradient><linearGradient x1="74%" y1="24%" x2="34%" y2="74%" id="id-110393"><stop stop-color="#7E4434" offset="0%"></stop><stop stop-color="#A85A3B" offset="100%"></stop></linearGradient><linearGradient x1="66%" y1="100%" x2="40%" y2="0%" id="id-110394"><stop stop-color="#874837" offset="0%"></stop><stop stop-color="#B56F57" offset="46%"></stop><stop stop-color="#945437" offset="100%"></stop></linearGradient><linearGradient x1="52%" y1="13%" x2="59%" y2="75%" id="id-110395"><stop stop-color="#763628" offset="0%"></stop><stop stop-color="#813F2F" offset="100%"></stop></linearGradient><linearGradient x1="28%" y1="76%" x2="73%" y2="20%" id="id-110396"><stop stop-color="#934D3C" offset="0%"></stop><stop stop-color="#753528" offset="67%"></stop><stop stop-color="#934D3C" offset="100%"></stop></linearGradient><linearGradient x1="66%" y1="59%" x2="24%" y2="66%" id="id-110397"><stop stop-color="#612115" offset="0%"></stop><stop stop-color="#93533A" offset="100%"></stop></linearGradient><linearGradient x1="41%" y1="11%" x2="61%" y2="81%" id="id-110398"><stop stop-color="#A06350" offset="0%"></stop><stop stop-color="#713127" offset="100%"></stop></linearGradient><linearGradient x1="19%" y1="58%" x2="66%" y2="43%" id="id-110399"><stop stop-color="#AA6B53" offset="0%"></stop><stop stop-color="#93523B" offset="100%"></stop></linearGradient><linearGradient x1="73%" y1="50%" x2="30%" y2="53%" id="id-110400"><stop stop-color="#9B5F42" offset="0%"></stop><stop stop-color="#B67B61" offset="100%"></stop></linearGradient><linearGradient x1="31%" y1="0%" x2="50%" y2="100%" id="id-110401"><stop stop-color="#B27562" offset="0%"></stop><stop stop-color="#9B5C4B" offset="100%"></stop></linearGradient><linearGradient x1="29%" y1="43%" x2="65%" y2="100%" id="id-110402"><stop stop-color="#A86B54" offset="0%"></stop><stop stop-color="#814030" offset="100%"></stop></linearGradient><linearGradient x1="13%" y1="78%" x2="84%" y2="50%" id="id-110403"><stop stop-color="#7E3E2E" offset="0%"></stop><stop stop-color="#74372C" offset="100%"></stop></linearGradient><linearGradient x1="50%" y1="0%" x2="36%" y2="100%" id="id-110404"><stop stop-color="#AB6C57" offset="0%"></stop><stop stop-color="#A56750" offset="100%"></stop></linearGradient><linearGradient x1="50%" y1="28%" x2="64%" y2="55%" id="id-110405"><stop stop-color="#A3664E" offset="0%"></stop><stop stop-color="#98593D" offset="100%"></stop></linearGradient><linearGradient x1="40%" y1="55%" x2="62%" y2="71%" id="id-110406"><stop stop-color="#96573E" offset="0%"></stop><stop stop-color="#713528" offset="100%"></stop></linearGradient><linearGradient x1="9%" y1="37%" x2="88%" y2="55%" id="id-110407"><stop stop-color="#723829" offset="0%"></stop><stop stop-color="#612824" offset="100%"></stop></linearGradient><linearGradient x1="62%" y1="19%" x2="50%" y2="100%" id="id-110408"><stop stop-color="#914D34" offset="0%"></stop><stop stop-color="#5F2420" offset="100%"></stop></linearGradient><linearGradient x1="45%" y1="18%" x2="51%" y2="67%" id="id-110409"><stop stop-color="#B67760" offset="0%"></stop><stop stop-color="#A95C3F" offset="100%"></stop></linearGradient><linearGradient x1="50%" y1="0%" x2="50%" y2="100%" id="id-110410"><stop stop-color="#AC6D55" offset="0%"></stop><stop stop-color="#9F5136" offset="100%"></stop></linearGradient><linearGradient x1="45%" y1="50%" x2="58%" y2="50%" id="id-110411"><stop stop-color="#733829" offset="0%"></stop><stop stop-color="#8A4E3C" offset="100%"></stop></linearGradient><linearGradient x1="33%" y1="74%" x2="77%" y2="42%" id="id-110412"><stop stop-color="#985C46" offset="0%"></stop><stop stop-color="#834732" offset="100%"></stop></linearGradient><linearGradient x1="63%" y1="59%" x2="38%" y2="59%" id="id-110413"><stop stop-color="#7E4231" offset="0%"></stop><stop stop-color="#905239" offset="100%"></stop></linearGradient><linearGradient x1="50%" y1="0%" x2="50%" y2="100%" id="id-110414"><stop stop-color="#925F4E" offset="0%"></stop><stop stop-color="#6E2F26" offset="100%"></stop></linearGradient><linearGradient x1="47%" y1="47%" x2="53%" y2="50%" id="id-110415"><stop stop-color="#956855" offset="0%"></stop><stop stop-color="#7C3C32" offset="100%"></stop></linearGradient><linearGradient x1="50%" y1="0%" x2="50%" y2="100%" id="id-110416"><stop stop-color="#753229" offset="0%"></stop><stop stop-color="#833E34" offset="100%"></stop></linearGradient><linearGradient x1="50%" y1="0%" x2="50%" y2="100%" id="id-110417"><stop stop-color="#925644" offset="0%"></stop><stop stop-color="#865648" offset="100%"></stop></linearGradient><linearGradient x1="0%" y1="55%" x2="100%" y2="55%" id="id-110418"><stop stop-color="#804A40" offset="0%"></stop><stop stop-color="#692E2C" offset="100%"></stop></linearGradient><linearGradient x1="50%" y1="0%" x2="50%" y2="100%" id="id-110419"><stop stop-color="#916451" offset="0%"></stop><stop stop-color="#712E26" offset="100%"></stop></linearGradient><linearGradient x1="49%" y1="20%" x2="52%" y2="96%" id="id-110420"><stop stop-color="#773530" offset="0%"></stop><stop stop-color="#6F2C24" offset="100%"></stop></linearGradient><linearGradient x1="33%" y1="47%" x2="59%" y2="56%" id="id-110421"><stop stop-color="#5F2419" offset="0%"></stop><stop stop-color="#4F161A" offset="100%"></stop></linearGradient></defs><g transform=" translate(303,473)" id="id-110422"><polygon points="174 662 140 824 138 906 147 1082 171 1154 176 1211 174 1230 176 1284 287 1284 284 1265 308 1195 306 1124 345 952 343 912 354 879 363 881 371 877 384 904 391 970 434 1079 458 1202 475 1252 475 1284 596 1284 601 1225 592 1146 609 1103 613 997 596 842 545 671 540 640 529 606 532 569 510 498 522 403 540 360 540 348 563 464 576 498 586 574 637 704 646 760 646 778 626 822 625 853 632 879 630 901 633 920 637 931 648 931 658 920 656 877 660 867 670 874 673 899 677 903 667 923 645 934 643 945 666 939 665 948 643 960 640 982 658 971 674 969 691 945 701 933 705 926 707 923 714 892 719 871 704 832 697 786 704 768 693 725 693 521 653 425 630 282 626 203 613 175 568 156 548 141 530 139 479 114 422 73 416 42 415 1 285 0 284 73 279 83 242 114 196 137 171 139 156 156 108 175 92 228 92 287 68 431 30 516 24 602 28 725 17 764 22 782 1 874 18 932 49 968 60 970 83 982 83 965 79 960 58 949 56 941 79 948 79 936 66 929 54 923 45 906 51 875 62 866 66 877 63 922 75 927 86 925 93 899 90 877 96 856 96 824 75 778 77 738 108 637 140 562 143 495 160 458 181 358 200 403 203 461 212 504 189 564 191 608" fill="url(#id-110371)" id="id-110423"></polygon><polygon points="92 287 68 431 30 516 24 602 73 688 118 614 98 452 110 469 124 336 102 372 110 294 89 309 110 285" fill="url(#id-110372)" id="id-110423"></polygon><polygon points="384 906 391 972 434 1081 458 1204 475 1254 475 1287 596 1287 601 1226 592 1148 609 1105 613 999 603 904 585 908 585 846 535 683 457 705 382 878" fill="url(#id-110373)" id="id-110423"></polygon><polygon points="138 907 147 1083 172 1156 176 1212 174 1232 176 1286 176 1287 287 1287 284 1266 309 1197 306 1126 345 954 344 923 294 814 264 724 247 711" fill="url(#id-110374)" id="id-110423"></polygon><polygon points="545 673 540 641 529 608 532 571 510 500 522 405 540 361 540 350 563 465 576 500 602 540 660 491 688 529 653 427 630 283 626 205 613 177 568 157 548 142 531 141 479 116 422 75 416 44 415 3 360 3 360 715 463 724" fill="url(#id-110375)" id="id-110423"></polygon><polygon points="83 984 60 972 49 970 22 932 20 903 8 879 1 874 12 824 39 786 39 814 57 786 78 800 91 822 83 879 69 882 64 855 51 877 46 908 48 930 37 930 50 938 53 954 49 960 57 956 83 973" fill="#974E34" id="id-110428"></polygon><polygon points="66 855 69 882 64 855 51 877 46 908 43 870 58 825" fill="url(#id-110376)" id="id-110428"></polygon><polygon points="83 879 69 882 70 868" fill="#A16148" id="id-110428"></polygon><polygon points="482 376 513 349 558 291 522 368" fill="#714A47" id="id-110431"></polygon><polygon points="313 697 261 560 246 448 259 424 356 408 362 366 318 404 285 409 268 378 314 343 394 351 431 378 420 404 369 399 371 404 450 421 467 441 449 510 467 547 407 697 358 717" fill="url(#id-110377)" id="id-110432"></polygon><polygon points="410 90 430 82 423 76 417 45 417 7 287 9 287 48 283 76 278 86 245 114 195 139 366 139 391 70 410 26" fill="url(#id-110378)" id="id-110433"></polygon><polygon points="182 180 133 231 98 289 98 231 114 182 166 159" fill="url(#id-110379)" id="id-110434"></polygon><polygon points="347 107 384 55 410 31 414 23 300 31" fill="url(#id-110380)" id="id-110435"></polygon><polygon points="287 93 296 32 323 129" fill="url(#id-110381)" id="id-110436"></polygon><polygon points="336 139 314 151 271 146 224 139" fill="#C0775D" id="id-110437"></polygon><polygon points="410 84 410 136 462 129" fill="url(#id-110382)" id="id-110438"></polygon><polygon points="173 246 167 286 191 351 263 386 329 330 360 330 360 152 349 139 336 139 310 152" fill="url(#id-110383)" id="id-110439"></polygon><polygon points="464 159 516 190 500 159" fill="url(#id-110384)" id="id-110440"></polygon><polygon points="302 31 347 72 383 62 410 37 417 28 417 13" fill="url(#id-110385)" id="id-110441"></polygon><polygon points="264 151 191 202 220 151" fill="#814431" id="id-110442"></polygon><polygon points="154 206 170 170 123 188" fill="#CE826D" id="id-110443"></polygon><polygon points="359 285 345 299 323 318 305 354 359 345 354 305" fill="url(#id-110386)" id="id-110444"></polygon><polygon points="261 361 265 387 204 371 192 347" fill="#6B3127" id="id-110445"></polygon><polygon points="199 362 181 359 167 284" fill="#4B131A" id="id-110446"></polygon><polygon points="477 341 477 335 488 326 496 325 509 338 497 348 485 354" fill="#5D2221" id="id-110447"></polygon><polygon points="314 151 343 220 317 293 238 351 209 318 172 251 186 205 271 146" fill="url(#id-110387)" id="id-110448"></polygon><polygon points="314 151 330 238 209 318 172 251 186 205 271 146" fill="url(#id-110388)" id="id-110448"></polygon><polygon points="314 151 351 205 221 227 186 205 271 146" fill="url(#id-110389)" opacity="0.369" id="id-110448"></polygon><polygon points="212 335 223 322 242 327 244 332 236 353 214 349" fill="#642B26" id="id-110451"></polygon><polygon points="224 339 227 342 227 345 223 349 236 350 242 333 230 338 227 335" fill="#70434F" id="id-110452"></polygon><polygon points="489 343 491 347 486 351 479 338 490 327 495 327 494 336" fill="#6F373C" id="id-110453"></polygon><polygon points="486 339 489 343 494 337" fill="#92523E" id="id-110454"></polygon><polygon points="360 162 360 291 406 325 455 347 529 267 464 182 416 166" fill="url(#id-110390)" id="id-110455"></polygon><polygon points="360 178 360 281 391 302 391 249 489 270 462 189 416 166" fill="url(#id-110391)" id="id-110455"></polygon><polygon points="360 178 360 219 472 220 462 189 416 166 371 163" fill="url(#id-110392)" id="id-110455"></polygon><polygon points="358 178 373 168 440 156 414 137 378 158 412 80 396 60 358 146" fill="url(#id-110393)" id="id-110458"></polygon><polygon points="347 140 358 152 373 129 400 48 369 86 365 130" fill="#B66B53" id="id-110459"></polygon><polygon points="591 281 602 226 559 159 514 159 524 138 499 156 571 263" fill="url(#id-110394)" id="id-110460"></polygon><polygon points="609 298 626 332 630 285 627 227 614 207 617 251" fill="#695B75" id="id-110461"></polygon><polygon points="555 159 567 157 613 177 614 192 580 175 604 207 602 226" fill="#8A4E37" id="id-110462"></polygon><polygon points="641 823 649 826 697 896 714 873 682 781" fill="url(#id-110395)" id="id-110463"></polygon><polygon points="626 840 701 762 689 738 679 784 648 776 626 822" fill="url(#id-110396)" id="id-110463"></polygon><polygon points="649 862 649 845 661 825 661 870 655 878 658 922 652 929 638 929 632 914 632 893 632 877 645 888" fill="#602222" id="id-110465"></polygon><polygon points="554 375 578 333 608 451 594 508 569 462" fill="#994B3B" id="id-110466"></polygon><polygon points="623 326 643 425 633 431 693 523 653 427 637 326 626 315" fill="#583847" id="id-110467"></polygon><polygon points="628 274 639 339 623 314" fill="#561B1F" id="id-110468"></polygon><polygon points="693 523 695 567 685 525 618 416 633 431" fill="#4B1114" id="id-110469"></polygon><polygon points="641 463 599 539 602 571 635 655 646 703 650 754 658 640 661 491" fill="#914F3A" id="id-110470"></polygon><polygon points="610 531 648 646 652 546 638 479" fill="#A8614D" id="id-110470"></polygon><polygon points="693 748 677 730 677 700 660 491 685 525 692 552 684 727" fill="#74332A" id="id-110472"></polygon><polygon points="692 746 704 768 693 727 695 567 692 551 684 727" fill="#5C3C47" id="id-110473"></polygon><polygon points="260 559 310 683 356 716 264 713 238 685 196 582" fill="url(#id-110397)" id="id-110474"></polygon><polygon points="638 931 637 919 639 914 654 914 654 922 652 929 648 931 644 933" fill="#7C4139" id="id-110475"></polygon><polygon points="638 861 638 882 642 890 654 886 649 861" fill="#79372B" id="id-110476"></polygon><polygon points="691 871 694 912 689 936 669 956 672 965 696 924 696 909 705 877" fill="#934D3C" id="id-110477"></polygon><polygon points="704 768 685 788 694 837 712 873 703 908 701 933 707 925 719 873 704 834 697 788" fill="#591F1C" id="id-110478"></polygon><polygon points="667 939 643 946 645 934 658 928 667 922 677 903 673 899 670 874 661 870 661 854 671 867 681 873 681 902 677 920" fill="#431105" id="id-110479"></polygon><polygon points="362 510 360 634 426 561 421 535" fill="url(#id-110398)" opacity="0.626" id="id-110480"></polygon><polygon points="320 403 289 399 268 380 314 343 361 348 362 372" fill="url(#id-110399)" id="id-110481"></polygon><polygon points="172 141 169 151 181 151 205 139 196 138" fill="url(#id-110400)" id="id-110482"></polygon><polygon points="359 308 362 360 383 334" fill="#BB7863" opacity="0.625" id="id-110483"></polygon><polygon points="361 546 361 584 388 551 374 540" fill="url(#id-110401)" opacity="0.626" id="id-110484"></polygon><polygon points="347 542 361 547 374 540 361 534" fill="#581C1C" id="id-110485"></polygon><polygon points="325 545 278 503 259 561 308 579" fill="url(#id-110402)" opacity="0.758" id="id-110486"></polygon><polygon points="389 499 460 467 450 510 404 520" fill="url(#id-110403)" id="id-110487"></polygon><polygon points="364 491 361 403 420 428" fill="url(#id-110404)" opacity="0.758" id="id-110488"></polygon><polygon points="263 446 333 446 323 469 279 492" fill="url(#id-110405)" opacity="0.758" id="id-110489"></polygon><polygon points="260 425 280 496 260 561 237 528 213 443 227 425 244 447" fill="url(#id-110406)" id="id-110490"></polygon><polygon points="412 343 445 374 466 383 500 351 448 354 416 339" fill="url(#id-110407)" id="id-110491"></polygon><polygon points="165 252 164 278 128 284" fill="#642A24" id="id-110492"></polygon><polygon points="58 478 89 441 89 416 69 430 66 456" fill="url(#id-110408)" id="id-110493"></polygon><polygon points="77 684 70 634 62 517 89 474 112 569" fill="url(#id-110409)" id="id-110494"></polygon><polygon points="54 489 48 539 70 635 77 684 54 760 41 781 17 766 28 727 24 604 29 544" fill="url(#id-110410)" id="id-110495"></polygon><polygon points="136 452 128 497 154 460 178 340 170 300" fill="#793B28" id="id-110496"></polygon><polygon points="181 359 160 460 143 497 142 514 124 532 109 514 108 490 128 497 154 460 178 340" fill="#5F2420" id="id-110496"></polygon><polygon points="39 747 28 772 39 788 44 772" fill="#AE7058" id="id-110498"></polygon><polygon points="360 379 343 413 362 444 378 417" fill="url(#id-110411)" id="id-110499"></polygon><polygon points="196 581 260 561 230 519" fill="url(#id-110412)" id="id-110500"></polygon><polygon points="75 929 67 925 69 909 78 905 86 912 84 928" fill="url(#id-110413)" id="id-110501"></polygon><polygon points="20 903 7 880 21 851 28 871" fill="#A16148" id="id-110502"></polygon><polygon points="219 1123 204 1040 192 913 171 1090 183 1169 230 1208 262 1237 271 1213 235 1175 213 1157 273 1191 282 1169" fill="url(#id-110414)" opacity="0.808" id="id-110503"></polygon><polygon points="183 1207 182 1155 214 1106 237 1166 231 1210" fill="#7D3B2D" id="id-110504"></polygon><polygon points="187 902 212 1137 227 1161 275 1187 300 1137 273 1009 300 918 270 791 212 836" fill="url(#id-110415)" id="id-110505"></polygon><polygon points="288 1079 311 1040 312 942 295 903 265 1019 276 1188 302 1137" fill="url(#id-110416)" id="id-110506"></polygon><polygon points="585 908 604 1008 608 1106 614 998 599 887" fill="#604050" id="id-110507"></polygon><polygon points="431 886 489 1140 536 1115 561 925 566 886 537 816 501 786" fill="url(#id-110417)" opacity="0.792" id="id-110508"></polygon><polygon points="582 921 588 1011 585 1112 576 1162 545 1046 566 886" fill="url(#id-110418)" id="id-110509"></polygon><polygon points="562 1247 519 1200 472 1112 495 931 506 931 595 1188 579 1244" fill="url(#id-110419)" id="id-110510"></polygon><polygon points="532 1221 540 1263 537 1269 516 1287 510 1287 500 1263 513 1199 488 1226 462 1170 472 1101 428 1010 399 877 469 771 519 739 537 818 501 787 433 890 477 1078 534 1212" fill="url(#id-110420)" id="id-110511"></polygon><polygon points="322 1058 284 852 258 721 267 733 371 879 363 883 354 881 343 914 345 954" fill="#6B2D24" id="id-110512"></polygon><polygon points="430 1068 425 875 536 705 454 704 380 865 384 906 392 972" fill="#571D1C" opacity="0.394" id="id-110513"></polygon><polygon points="175 1262 194 1287 207 1287 225 1226 214 1249 175 1221 174 1232" fill="#743428" id="id-110514"></polygon><polygon points="529 1227 554 1234 569 1169 549 1168" fill="#824C40" id="id-110515"></polygon><polygon points="547 678 545 672 540 641 529 608 532 571 510 500 522 405 540 361 540 350 548 389 543 330 558 289 517 369 529 369 517 411 500 442 510 465 488 531 508 525 522 585 450 724" fill="#520D17" id="id-110423"></polygon><polygon points="403 722 491 609 523 585 450 723" fill="#5F211F" id="id-110517"></polygon><polygon points="174 664 140 826 138 907 139 937 238 690 352 886 354 881 363 883 371 879 384 906 472 773 549 712 597 844 545 673 540 641 478 697 450 723 279 705 232 657 189 566 191 610" fill="url(#id-110421)" id="id-110423"></polygon><polygon points="189 616 211 620 191 586 191 609" fill="#40120E" id="id-110519"></polygon><polygon points="139 836 226 709 167 697 139 826" fill="#4F1C18" id="id-110520"></polygon><polygon points="519 734 596 843 547 678" fill="#420F15" id="id-110521"></polygon><polygon points="416 778 448 726 315 744 330 762" fill="#6B2C26" opacity="0.520" id="id-110423"></polygon><polygon points="412 685 464 666 457 573" fill="#4F161A" id="id-110523"></polygon></g><defs><linearGradient x1="53%" y1="5%" x2="47%" y2="91%" id="id-111127"><stop stop-color="#8F4340" offset="0%"></stop><stop stop-color="#702A2C" offset="82%"></stop><stop stop-color="#974B47" offset="100%"></stop></linearGradient><linearGradient x1="62%" y1="61%" x2="50%" y2="36%" id="id-111128"><stop stop-color="#822F31" offset="0%"></stop><stop stop-color="#3C1B25" offset="100%"></stop></linearGradient><linearGradient x1="50%" y1="13%" x2="57%" y2="81%" id="id-111129"><stop stop-color="#773435" offset="0%"></stop><stop stop-color="#944945" offset="52%"></stop><stop stop-color="#A57660" offset="100%"></stop></linearGradient><linearGradient x1="50%" y1="0%" x2="54%" y2="88%" id="id-111130"><stop stop-color="#9F7D60" offset="0%"></stop><stop stop-color="#8F4539" offset="100%"></stop></linearGradient><linearGradient x1="36%" y1="75%" x2="36%" y2="18%" id="id-111131"><stop stop-color="#8B2E30" offset="0%"></stop><stop stop-color="#662221" offset="100%"></stop></linearGradient><linearGradient x1="30%" y1="63%" x2="66%" y2="53%" id="id-111132"><stop stop-color="#995C43" offset="0%"></stop><stop stop-color="#A2705A" offset="11%"></stop><stop stop-color="#AC8266" offset="35%"></stop><stop stop-color="#955D4B" offset="72%"></stop><stop stop-color="#844137" offset="100%"></stop></linearGradient><linearGradient x1="12%" y1="55%" x2="89%" y2="49%" id="id-111133"><stop stop-color="#BAA188" offset="0%"></stop><stop stop-color="#B5A382" offset="69%"></stop><stop stop-color="#8A4C3B" offset="100%"></stop></linearGradient><linearGradient x1="77%" y1="45%" x2="9%" y2="48%" id="id-111134"><stop stop-color="#B6A383" offset="0%"></stop><stop stop-color="#A3775D" offset="100%"></stop></linearGradient><linearGradient x1="4%" y1="59%" x2="84%" y2="52%" id="id-111135"><stop stop-color="#925340" offset="0%"></stop><stop stop-color="#A98468" offset="40%"></stop><stop stop-color="#9D6E56" offset="75%"></stop><stop stop-color="#7E352A" offset="100%"></stop></linearGradient><linearGradient x1="0%" y1="62%" x2="75%" y2="50%" id="id-111136"><stop stop-color="#A07158" offset="0%"></stop><stop stop-color="#C8B5A3" offset="100%"></stop></linearGradient><linearGradient x1="91%" y1="50%" x2="43%" y2="50%" id="id-111137"><stop stop-color="#915B47" offset="0%"></stop><stop stop-color="#C1AE9D" offset="100%"></stop></linearGradient><linearGradient x1="73%" y1="44%" x2="36%" y2="73%" id="id-111138"><stop stop-color="#8B493B" offset="0%"></stop><stop stop-color="#905C4E" offset="100%" stop-opacity="0.589"></stop></linearGradient><linearGradient x1="22%" y1="31%" x2="35%" y2="66%" id="id-111139"><stop stop-color="#A96D54" offset="0%"></stop><stop stop-color="#945949" offset="100%"></stop></linearGradient><linearGradient x1="13%" y1="-5%" x2="103%" y2="59%" id="id-111140"><stop stop-color="#AC887C" offset="0%"></stop><stop stop-color="#985D44" offset="31%"></stop><stop stop-color="#7D3328" offset="79%"></stop><stop stop-color="#712D2C" offset="100%"></stop></linearGradient><linearGradient x1="47%" y1="96%" x2="25%" y2="14%" id="id-111141"><stop stop-color="#A56B59" offset="0%" stop-opacity="0.302"></stop><stop stop-color="#874339" offset="100%"></stop></linearGradient><linearGradient x1="24%" y1="56%" x2="50%" y2="45%" id="id-111142"><stop stop-color="#976043" offset="0%"></stop><stop stop-color="#AA7758" offset="59%"></stop><stop stop-color="#8F523B" offset="100%"></stop></linearGradient><linearGradient x1="87%" y1="65%" x2="23%" y2="32%" id="id-111143"><stop stop-color="#9E6E50" offset="0%"></stop><stop stop-color="#B89475" offset="100%"></stop></linearGradient><linearGradient x1="13%" y1="29%" x2="91%" y2="29%" id="id-111144"><stop stop-color="#80372B" offset="0%"></stop><stop stop-color="#833E2E" offset="38%"></stop><stop stop-color="#8E4939" offset="51%"></stop><stop stop-color="#894036" offset="70%"></stop><stop stop-color="#8D413B" offset="100%"></stop></linearGradient><linearGradient x1="9%" y1="45%" x2="41%" y2="63%" id="id-111145"><stop stop-color="#8E4836" offset="0%"></stop><stop stop-color="#772E23" offset="100%"></stop></linearGradient><linearGradient x1="50%" y1="19%" x2="50%" y2="70%" id="id-111146"><stop stop-color="#975B45" offset="0%"></stop><stop stop-color="#AA836D" offset="100%"></stop></linearGradient><linearGradient x1="9%" y1="54%" x2="38%" y2="50%" id="id-111147"><stop stop-color="#5E3931" offset="0%"></stop><stop stop-color="#2F1B1D" offset="100%"></stop></linearGradient><linearGradient x1="97%" y1="55%" x2="73%" y2="44%" id="id-111148"><stop stop-color="#6F3F30" offset="0%"></stop><stop stop-color="#2E1A1C" offset="100%"></stop></linearGradient><linearGradient x1="40%" y1="21%" x2="72%" y2="94%" id="id-111149"><stop stop-color="#A67A62" offset="0%"></stop><stop stop-color="#AF8E6F" offset="50%"></stop><stop stop-color="#AF7C69" offset="100%"></stop></linearGradient><linearGradient x1="7%" y1="41%" x2="71%" y2="63%" id="id-111150"><stop stop-color="#A77E68" offset="0%"></stop><stop stop-color="#BFB0A1" offset="100%"></stop></linearGradient><linearGradient x1="87%" y1="51%" x2="37%" y2="52%" id="id-111151"><stop stop-color="#935943" offset="0%"></stop><stop stop-color="#AE7F68" offset="100%"></stop></linearGradient><linearGradient x1="50%" y1="0%" x2="50%" y2="100%" id="id-111152"><stop stop-color="#B18B6B" offset="0%"></stop><stop stop-color="#B35746" offset="100%"></stop></linearGradient><linearGradient x1="71%" y1="47%" x2="15%" y2="54%" id="id-111153"><stop stop-color="#9E6E5A" offset="0%"></stop><stop stop-color="#C6B4A8" offset="100%"></stop></linearGradient><linearGradient x1="66%" y1="11%" x2="44%" y2="95%" id="id-111154"><stop stop-color="#AD6F5D" offset="0%" stop-opacity="0.528"></stop><stop stop-color="#AA5F4F" offset="49%"></stop><stop stop-color="#AA604E" offset="100%" stop-opacity="0"></stop></linearGradient><linearGradient x1="-5%" y1="53%" x2="86%" y2="50%" id="id-111155"><stop stop-color="#6D352D" offset="0%"></stop><stop stop-color="#341D27" offset="47%"></stop><stop stop-color="#692522" offset="100%"></stop></linearGradient><linearGradient x1="10%" y1="52%" x2="66%" y2="50%" id="id-111156"><stop stop-color="#A47A65" offset="0%"></stop><stop stop-color="#884237" offset="100%"></stop></linearGradient><linearGradient x1="50%" y1="-36%" x2="50%" y2="100%" id="id-111157"><stop stop-color="#8F293E" offset="0%"></stop><stop stop-color="#56121D" offset="100%"></stop></linearGradient><linearGradient x1="23%" y1="39%" x2="61%" y2="66%" id="id-111158"><stop stop-color="#C1A490" offset="0%"></stop><stop stop-color="#BD9D86" offset="100%" stop-opacity="0"></stop></linearGradient><linearGradient x1="50%" y1="0%" x2="50%" y2="100%" id="id-111159"><stop stop-color="#A93F54" offset="0%"></stop><stop stop-color="#852E3C" offset="100%"></stop></linearGradient><linearGradient x1="23%" y1="50%" x2="76%" y2="52%" id="id-111160"><stop stop-color="#AE507E" offset="0%" stop-opacity="0"></stop><stop stop-color="#D7709A" offset="100%"></stop></linearGradient><linearGradient x1="58%" y1="36%" x2="35%" y2="100%" id="id-111161"><stop stop-color="#B18F79" offset="0%"></stop><stop stop-color="#B18D76" offset="100%" stop-opacity="0"></stop></linearGradient><linearGradient x1="96%" y1="25%" x2="45%" y2="90%" id="id-111162"><stop stop-color="#361B27" offset="0%"></stop><stop stop-color="#411720" offset="100%"></stop></linearGradient><linearGradient x1="40%" y1="34%" x2="57%" y2="75%" id="id-111163"><stop stop-color="#853B31" offset="0%"></stop><stop stop-color="#722B2C" offset="100%"></stop></linearGradient><linearGradient x1="66%" y1="30%" x2="24%" y2="92%" id="id-111164"><stop stop-color="#401923" offset="0%"></stop><stop stop-color="#7E3530" offset="100%" stop-opacity="0"></stop></linearGradient><linearGradient x1="53%" y1="73%" x2="54%" y2="75%" id="id-111165"><stop stop-color="#5E231E" offset="0%" stop-opacity="0.476"></stop><stop stop-color="#471A24" offset="100%"></stop></linearGradient><linearGradient x1="36%" y1="31%" x2="47%" y2="50%" id="id-111166"><stop stop-color="#C0A895" offset="0%"></stop><stop stop-color="#945D46" offset="100%"></stop></linearGradient><linearGradient x1="52%" y1="46%" x2="46%" y2="43%" id="id-111167"><stop stop-color="#995C43" offset="0%"></stop><stop stop-color="#844137" offset="100%"></stop></linearGradient></defs><g transform=" translate(548,259)" id="id-111168"><g transform=" translate(0,121)" id="id-111169"><polygon points="199 13 214 3 222 9 221 25 214 38 214 43 210 54 208 65 197 70 190 64" fill="url(#id-111127)" id="id-111170"></polygon><polygon points="197 24 209 14 216 9 219 10 220 22 214 37 195 43" fill="url(#id-111128)" id="id-111171"></polygon><polygon points="203 38 208 34 199 25 203 22 209 23 207 18 212 16 214 38 214 43 213 48 207 51 201 46" fill="url(#id-111129)" id="id-111170"></polygon><polygon points="212 5 214 3 222 9 222 10 219 10 216 9" fill="#D49BA0" id="id-111170"></polygon><polygon points="208 65 197 70 190 64 194 42 199 50 193 62 199 67" fill="#602D31" id="id-111170"></polygon><polygon points="203 62 202 54 211 50" fill="#722C2D" id="id-111175"></polygon><polygon points="196 50 202 51 203 42 196 46" fill="#874B46" id="id-111176"></polygon><polygon points="194 45 199 47 202 45 202 32 197 31" fill="#361B27" id="id-111177"></polygon><path d=" M 30,70 C 24,70 20,69 19,68 C 17,66 12,52 8,46 C 4,39 2,38 1,33 C 0,30 0,21 1,6 L 8,0 L 23,9 L 30,70 Z" fill="url(#id-111130)" id="id-111178"></path><polygon points="8 6 2 6 7 3 10 2 23 9 19 14" fill="#B99D8C" id="id-111178"></polygon><path d=" M 26,68 C 23,69 20,69 19,68 C 17,66 12,52 8,46 C 7,44 6,43 6,42 C 9,45 10,47 12,48 C 13,50 14,52 16,56 L 26,68 Z" fill="#AB7260" id="id-111178"></path><polygon points="26 68 29 65 27 53 20 61" fill="#C67B6D" id="id-111178"></polygon><path d=" M 23,19 C 12,12 6,9 5,9 C 3,10 2,18 2,33 L 17,53 L 26,52 L 23,19 Z" fill="url(#id-111131)" id="id-111182"></path><polygon points="12 17 19 19 18 26 15 28 22 38 21 49 12 44" fill="#8E4F46" id="id-111183"></polygon><path d=" M 27,53 C 16,50 10,47 8,42 C 6,38 8,30 12,17 L 15,23 C 15,36 14,42 15,43 C 15,45 18,46 25,48 L 27,53 Z" fill="#A6866B" id="id-111184"></path><polygon points="11 31 19 26 19 18 14 20 12 18" fill="#BCA28F" id="id-111185"></polygon><polygon points="20 46 17 42 22 37 25 48" fill="#B27668" id="id-111186"></polygon></g><g transform=" translate(18,0)" id="id-111187"><path d=" M 20,231 C 18,227 11,201 5,153 C 3,140 2,128 1,117 C -1,91 4,63 8,49 C 9,46 16,35 16,34 C 30,20 56,0 94,0 C 157,0 178,45 181,51 C 183,57 183,111 181,144 C 178,177 162,232 160,235 C 158,239 124,261 119,264 C 113,266 74,267 69,264 C 64,261 22,235 20,231 Z" fill="url(#id-111132)" id="id-111188"></path><polygon points="42 97 56 74 52 61 155 41 139 103 93 103" fill="url(#id-111133)" id="id-111189"></polygon><polygon points="96 68 135 48 39 38 42 54" fill="url(#id-111134)" id="id-111190"></polygon><path d=" M 27,130 L 4,145 C 3,135 2,126 1,117 C -1,91 4,63 8,49 C 9,46 16,35 16,34 C 30,20 56,0 94,0 C 157,0 178,45 181,51 L 147,47 L 86,54 L 44,42 L 57,74 L 27,98 L 27,130 Z" fill="url(#id-111135)" id="id-111188"></path><polygon points="42 81 80 64 52 52 42 54" fill="url(#id-111136)" id="id-111192"></polygon><polygon points="45 68 60 57 52 52 45 54" fill="#CEC5B3" opacity="0.553" id="id-111193"></polygon><polygon points="90 96 73 84 69 76 91 79 113 76 93 88" fill="#AD8F72" id="id-111194"></polygon><polygon points="137 97 137 86 108 81 98 91 102 103" fill="url(#id-111137)" id="id-111195"></polygon><polygon points="99 91 101 94 111 91 111 84" fill="#D3CBB9" opacity="0.560" id="id-111196"></polygon><polygon points="60 213 39 221 45 248 56 248 84 233 80 206" fill="url(#id-111138)" id="id-111197"></polygon><path d=" M 20,231 C 18,227 12,203 6,158 C 22,179 32,191 34,197 C 36,202 40,220 47,250 C 35,242 21,233 20,231 Z" fill="#804033" id="id-111188"></path><path d=" M 11,192 C 9,183 7,171 6,158 C 26,171 38,180 40,188 C 42,191 42,202 40,221 L 11,192 Z" fill="#6D3322" opacity="0.470" id="id-111188"></path><polygon points="132 203 121 178 107 160 107 139 115 134 168 130 179 136" fill="url(#id-111139)" id="id-111200"></polygon><path d=" M 160,158 C 165,146 167,139 164,138 C 153,133 136,132 136,127 C 135,126 137,111 140,83 L 129,85 L 143,73 C 144,62 144,56 143,55 C 141,53 143,36 130,31 C 126,30 112,32 88,38 L 51,31 L 35,38 C 22,36 16,35 16,34 C 30,20 56,0 94,0 C 157,0 178,45 181,51 C 183,57 183,111 181,144 L 160,158 Z" fill="url(#id-111140)" id="id-111188"></path><polygon points="93 230 129 249 146 243 153 201 125 219 113 221" fill="#662826" id="id-111202"></polygon><polygon points="120 175 124 185 115 193 133 206 135 223 104 221 103 198 95 176" fill="url(#id-111141)" id="id-111203"></polygon><polygon points="117 131 107 134 112 117 140 96 157 104 144 127" fill="#944B36" id="id-111204"></polygon><polygon points="65 125 74 128 77 122 60 101 35 99 20 129" fill="url(#id-111142)" id="id-111205"></polygon><polygon points="44 112 41 108 49 105 59 112 61 115 66 120 66 125" fill="url(#id-111143)" id="id-111206"></polygon><polygon points="44 135 30 136 15 132 23 105 35 93 73 94 92 101 115 98 157 102 159 108 151 121 157 123 153 129 143 126 153 105 147 96 108 119 108 139 111 159 120 175 118 179 86 167 76 123 69 121 54 98 37 105 26 123 23 127" fill="url(#id-111144)" id="id-111207"></polygon><polygon points="100 118 108 126 137 102 113 98" fill="url(#id-111145)" id="id-111208"></polygon><polygon points="125 120 128 110 137 104 144 103 137 110 139 118 144 122 144 125 122 125" fill="url(#id-111146)" id="id-111209"></polygon><polygon points="99 109 105 101 103 110" fill="#5E3931" id="id-111210"></polygon><polygon points="105 109 108 97 117 96 132 96 126 94 146 93 152 98 149 93 151 92 162 106 161 112 149 103 108 110 112 100" fill="url(#id-111147)" id="id-111211"></polygon><polygon points="163 108 163 116 166 120 166 113" fill="#2F1B1D" id="id-111212"></polygon><path d=" M 19,119 C 20,112 22,106 24,103 C 26,99 30,96 34,93 L 29,94 L 31,92 L 45,91 L 75,96 L 77,107 L 79,100 L 77,111 L 73,105 L 73,109 L 69,104 L 71,109 C 50,104 39,101 38,101 C 37,101 32,104 25,110 L 26,104 L 19,119 Z" fill="url(#id-111148)" id="id-111213"></path><path d=" M 116,127 L 156,130 L 167,133 L 163,138 L 156,135 C 149,139 143,141 137,141 C 132,141 124,140 115,137 L 108,140 L 108,134 L 111,130 L 116,127 Z" fill="#753529" id="id-111214"></path><polygon points="137 136 147 137 162 128 147 130" transform=" translate(150,133) rotate(-2) translate(-150,-133)" fill="#431D1F" id="id-111215"></polygon><polygon points="125 121 133 114 137 118" transform=" translate(131,118) rotate(-2) translate(-131,-118)" fill="#D0C0BB" id="id-111216"></polygon><path d=" M 125,135 L 112,131 L 116,127 C 123,121 130,118 137,118 C 144,118 150,120 156,125 C 148,121 142,119 135,119 C 129,120 124,123 119,128 L 122,132 L 125,135 Z" transform=" translate(134,126) rotate(-2) translate(-134,-126)" fill="#55241F" id="id-111217"></path><path d=" M 112,131 C 112,131 116,132 123,134 L 114,130 C 120,129 133,126 142,130 C 149,133 157,132 164,129 C 159,128 156,128 153,127 C 146,125 142,122 132,123 C 121,123 119,127 112,131 Z" transform=" translate(138,128) rotate(-2) translate(-138,-128)" fill="#220F0F" id="id-111218"></path><path d=" M 118,129 L 121,133 C 127,136 132,137 137,136 C 141,136 146,135 152,132 C 144,129 138,127 134,127 C 130,126 125,127 118,129 Z" transform=" translate(135,132) rotate(-2) translate(-135,-132)" fill="#E0CBBB" id="id-111219"></path><path d=" M 124,127 C 126,133 129,136 133,137 C 137,137 141,134 143,128 C 140,127 138,127 135,127 C 133,126 129,127 124,127 Z" transform=" translate(134,132) rotate(-2) translate(-134,-132)" fill="#321B1D" id="id-111220"></path><path d=" M 130,128 C 131,130 132,131 133,131 C 134,131 136,130 138,128 C 136,127 135,127 134,127 C 133,127 131,127 130,128 Z" transform=" translate(134,129) rotate(-2) translate(-134,-129)" fill="#220E0F" id="id-111221"></path><path d=" M 139,130 L 140,132 C 138,135 136,136 134,136 C 131,136 129,135 126,132 L 132,131 L 134,134 L 135,132 L 139,130 Z" transform=" translate(133,133) rotate(-2) translate(-133,-133)" fill="#3F405E" id="id-111222"></path><path d=" M 117,129 L 119,131 C 123,130 127,129 132,129 C 134,129 138,131 146,134 C 147,134 149,133 152,131 C 144,129 138,127 134,127 C 130,126 124,127 117,129 Z" transform=" translate(135,130) rotate(-2) translate(-135,-130)" fill="#1A0A04" fill-opacity="0.556" id="id-111219"></path><polygon points="127 131 128 129 131 128 132 130" transform=" translate(130,130) rotate(-2) translate(-130,-130)" fill="#D0BCAE" id="id-111224"></polygon><polygon points="66 221 111 223 125 219 126 212 102 197 95 177 99 123 86 122 80 129 64 179 58 199 62 214" fill="url(#id-111149)" id="id-111225"></polygon><polygon points="78 151 81 128 76 132 74 130 64 126 37 130 19 159 24 163" fill="url(#id-111150)" id="id-111226"></polygon><polygon points="30 136 48 140 71 133 73 131 52 125 34 130" fill="#874A3A" id="id-111227"></polygon><path d=" M 21,127 L 29,122 C 37,117 44,115 49,116 C 55,117 60,120 65,125 L 21,127 Z" fill="url(#id-111151)" id="id-111228"></path><polygon points="39 117 44 110 52 116" fill="#D0C0BB" id="id-111229"></polygon><polygon points="33 127 40 118 47 116 49 123" fill="#B89F8C" id="id-111230"></polygon><path d=" M 32,130 C 35,134 40,136 48,136 C 56,136 62,134 67,129 C 61,127 56,126 51,126 C 47,126 40,127 32,130 Z" fill="#E5D2C5" id="id-111231"></path><path d=" M 40,128 C 41,133 44,136 49,136 C 54,136 57,133 59,127 C 55,125 52,125 49,125 C 46,125 43,126 40,128 Z" fill="#392524" id="id-111232"></path><path d=" M 32,130 C 33,131 34,132 35,132 C 43,131 48,130 50,130 C 51,130 53,131 54,131 C 56,131 57,129 59,129 C 60,130 61,130 63,132 C 64,131 65,130 67,129 C 61,127 56,126 51,126 C 47,126 40,127 32,130 Z" fill="#1F0606" fill-opacity="0.510" id="id-111231"></path><path d=" M 49,117 C 42,117 35,119 28,123 C 36,117 44,114 52,116 C 59,118 65,122 71,131 C 67,128 65,126 64,126 C 59,121 55,118 49,117 Z" fill="#663123" id="id-111234"></path><path d=" M 36,134 L 20,127 C 24,126 27,126 30,125 C 35,124 43,121 49,121 C 59,121 70,131 73,131 C 71,132 69,133 67,133 C 65,133 61,134 57,134 L 66,130 C 64,128 60,127 54,127 C 47,127 40,128 33,130 L 36,134 Z" fill="#220F0D" id="id-111235"></path><path d=" M 42,132 L 45,128 C 47,130 49,131 50,131 C 51,131 53,130 55,128 L 56,130 C 54,133 52,135 49,135 C 46,135 43,134 42,132 Z" fill="#434564" id="id-111236"></path><path d=" M 44,126 C 46,129 47,130 49,130 C 51,130 53,128 56,126 C 53,125 51,125 49,125 C 48,125 46,125 44,126 Z" fill="#220F0F" id="id-111237"></path><polygon points="43 129 45 130 47 129 46 128" fill="#B3A2A0" id="id-111238"></polygon><polygon points="83 161 100 165 103 158 99 150 97 124 86 125 86 155" fill="url(#id-111152)" id="id-111239"></polygon><polygon points="93 191 98 185 100 191 97 194" fill="#BAA193" id="id-111240"></polygon><polygon points="64 132 66 130 69 131" fill="#72473C" id="id-111241"></polygon><polygon points="84 193 92 197 98 193 92 190 91 184 88 184" fill="#985C49" id="id-111242"></polygon><polygon points="19 159 15 148 70 133 52 148" fill="url(#id-111153)" id="id-111243"></polygon><polygon points="67 179 75 186 83 182 88 184 92 184 100 181 114 185 119 178 90 167" fill="#490B11" id="id-111244"></polygon><polygon points="74 171 89 162 81 160" fill="#BFB3A1" id="id-111245"></polygon><path d=" M 68,174 L 78,154 L 85,146 C 85,153 83,158 80,163 C 78,168 73,172 68,174 Z" fill="url(#id-111154)" id="id-111246"></path><polygon points="88 162 101 164 91 167 83 165" fill="#BA9B78" id="id-111247"></polygon><polygon points="99 166 103 158 99 150 113 167 108 172" fill="#914F3B" id="id-111248"></polygon><polygon points="117 175 108 172 113 167" fill="#9E654D" id="id-111249"></polygon><polygon points="84 127 86 131 99 123 86 122" fill="#C4AC85" id="id-111250"></polygon><path d=" M 79,181 L 75,183 L 67,179 L 66,177 L 84,165 L 91,167 L 99,165 L 117,175 L 119,178 L 112,182 L 107,182 C 108,180 108,178 105,177 C 103,176 100,177 96,181 L 89,181 C 86,178 84,176 82,176 C 81,176 76,177 75,179 C 75,179 76,180 79,181 Z" fill="#7A332D" id="id-111251"></path><path d=" M 98,179 C 97,180 96,180 96,181 L 89,181 C 88,180 87,179 87,179 L 90,180 L 98,179 Z" fill="#8B5056" id="id-111251"></path><polygon points="117 175 119 178 112 182 107 182 108 179" fill="#884D4F" id="id-111253"></polygon><path d=" M 67,179 L 66,177 L 84,165 L 89,167 L 84,176 C 80,176 77,175 75,176 C 72,176 70,177 67,179 Z" fill="#965646" id="id-111251"></path><polygon points="90 178 98 178 101 176 107 170 105 169" fill="#6D2923" id="id-111255"></polygon><polygon points="110 223 107 228 111 239 75 236 66 221 115 218" fill="url(#id-111155)" id="id-111256"></polygon><polygon points="66 221 88 233 107 224 77 223" fill="#341D27" id="id-111257"></polygon><path d=" M 52,251 L 74,236 L 90,231 L 110,237 L 132,249 C 117,258 103,263 90,263 C 76,263 64,259 52,251 Z" fill="url(#id-111156)" id="id-111258"></path><polygon points="87 253 71 244 74 241 69 239 74 236 90 231 93 232 88 239" fill="#B69F8E" opacity="0.481" id="id-111258"></polygon><polygon points="59 213 64 205 96 201 120 205 126 211 121 215 63 215" fill="#410409" id="id-111260"></polygon><path d=" M 64,205 C 73,199 79,196 81,196 C 83,195 87,196 93,199 L 102,195 C 106,196 109,198 112,199 C 114,200 117,202 120,205 L 111,208 L 96,205 L 76,208 L 68,208 L 64,205 Z" fill="url(#id-111157)" id="id-111261"></path><polygon points="149 148 115 136 108 140 133 164" fill="url(#id-111158)" id="id-111262"></polygon><path d=" M 72,200 C 77,197 80,196 81,196 C 83,195 87,196 93,199 L 90,205 L 76,208 L 72,200 Z" fill="#78152E" id="id-111261"></path><path d=" M 98,197 L 102,195 C 106,196 109,198 112,199 C 114,200 115,201 117,202 L 112,205 L 102,203 L 98,197 Z" fill="#7C1831" id="id-111261"></path><path d=" M 62,215 C 71,212 77,211 81,210 C 84,210 89,211 91,211 C 93,211 98,210 100,210 C 104,210 112,212 122,215 C 113,223 103,227 91,226 C 79,226 70,222 62,215 Z" fill="url(#id-111159)" id="id-111265"></path><path d=" M 112,213 C 104,216 100,218 98,219 C 96,219 94,220 93,222 L 92,214 C 93,216 94,217 97,216 C 99,216 105,215 112,213 Z" fill="#D7709A" opacity="0.667" id="id-111266"></path><path d=" M 91,216 L 91,222 C 84,219 78,217 74,216 C 70,216 66,215 64,215 C 70,213 74,213 77,214 C 80,216 85,217 91,216 Z" fill="url(#id-111160)" id="id-111267"></path><polygon points="104 129 106 136 111 129 111 124" fill="url(#id-111161)" id="id-111268"></polygon><path d=" M 181,144 C 178,177 162,232 160,235 C 158,239 124,261 119,264 C 113,266 74,267 69,264 C 67,263 59,258 51,253 C 69,259 83,262 93,261 C 107,259 128,246 137,242 C 141,241 144,232 149,215 L 163,207 L 170,172 L 154,183 L 181,144 Z" fill="url(#id-111162)" id="id-111188"></path><path d=" M 133,228 C 130,202 130,187 133,180 C 137,173 146,166 160,157 L 181,144 L 171,162 L 163,207 L 133,228 Z" fill="url(#id-111163)" id="id-111270"></path><polygon points="133 228 133 244 140 242 152 215" fill="#722C2C" id="id-111270"></polygon><polygon points="172 159 143 191 164 205" fill="url(#id-111164)" id="id-111272"></polygon><path d=" M 102,259 L 104,235 L 110,237 L 128,247 C 115,253 107,257 102,259 Z" fill="#954A3D" id="id-111273"></path><path d=" M 20,231 C 20,230 19,228 18,225 C 30,234 39,240 45,243 C 57,248 70,255 82,255 C 94,255 108,246 117,241 C 123,238 129,233 133,228 L 163,207 L 169,204 C 165,221 161,233 160,235 C 158,239 124,261 119,264 C 113,266 74,267 69,264 C 64,261 22,235 20,231 Z" fill="#501517" opacity="0.375" id="id-111188"></path><path d=" M 157,157 C 157,146 153,139 145,136 L 158,130 C 162,129 164,128 164,128 C 165,123 168,115 170,105 C 170,103 170,91 170,69 C 165,63 160,57 155,51 C 154,36 148,22 136,8 C 167,21 179,47 181,51 C 183,57 183,111 181,144 C 180,156 172,166 157,177 C 157,166 157,159 157,157 Z" fill="url(#id-111165)" id="id-111188"></path><path d=" M 4,66 C 5,59 7,54 8,49 C 9,46 16,35 16,34 C 26,24 42,11 65,5 C 55,10 50,15 47,18 C 40,28 28,50 13,83 L 4,66 Z" fill="url(#id-111166)" id="id-111188"></path><path d=" M 4,145 C 3,135 2,126 1,117 C 0,97 2,76 5,61 C 9,60 11,58 13,56 C 16,53 23,47 35,38 C 25,59 18,74 17,83 C 14,98 9,119 4,145 Z" fill="url(#id-111167)" id="id-111188"></path></g></g><defs><linearGradient x1="50%" y1="0%" x2="50%" y2="100%" id="id-83103"><stop stop-color="#A2004C" offset="0%"></stop><stop stop-color="#A2004C" offset="100%"></stop></linearGradient><linearGradient x1="50%" y1="0%" x2="50%" y2="100%" id="id-83104"><stop stop-color="#BF0060" offset="0%"></stop><stop stop-color="#CB0069" offset="100%" stop-opacity="0.192"></stop></linearGradient><linearGradient x1="50%" y1="0%" x2="50%" y2="100%" id="id-83105"><stop stop-color="#E7007B" offset="0%" stop-opacity="0.080"></stop><stop stop-color="#E50079" offset="100%"></stop></linearGradient><linearGradient x1="50%" y1="0%" x2="50%" y2="100%" id="id-83106"><stop stop-color="#CF006C" offset="0%"></stop><stop stop-color="#CF006C" offset="100%" stop-opacity="0.263"></stop></linearGradient><linearGradient x1="50%" y1="66%" x2="39%" y2="86%" id="id-83107"><stop stop-color="#BC005E" offset="0%"></stop><stop stop-color="#BC005E" offset="100%" stop-opacity="0"></stop></linearGradient><linearGradient x1="6%" y1="37%" x2="50%" y2="69%" id="id-83108"><stop stop-color="#B7005B" offset="0%" stop-opacity="0.065"></stop><stop stop-color="#B7005C" offset="100%"></stop></linearGradient><linearGradient x1="52%" y1="10%" x2="47%" y2="94%" id="id-83109"><stop stop-color="#CF006C" offset="0%" stop-opacity="0"></stop><stop stop-color="#CF006C" offset="48%"></stop><stop stop-color="#CF006C" offset="100%" stop-opacity="0"></stop></linearGradient><linearGradient x1="6%" y1="26%" x2="100%" y2="43%" id="id-83110"><stop stop-color="#A2004C" offset="0%"></stop><stop stop-color="#830044" offset="100%"></stop></linearGradient></defs><g transform=" translate(438,600)" id="id-83111"><path d=" M 173,1040 L 35,1042 L 30,1037 C 30,1034 32,1031 33,1028 L 8,958 C -2,871 -2,786 4,700 C 7,683 9,668 13,654 L 12,640 C 23,615 27,588 30,562 C 33,544 41,521 45,503 C 93,491 110,451 121,341 C 111,260 51,56 43,5 C 50,4 58,2 64,0 C 86,123 133,404 223,415 C 306,411 356,119 393,5 C 398,7 405,9 412,10 C 322,229 310,470 386,516 L 409,504 L 420,568 L 462,710 C 473,774 480,846 483,912 L 480,978 C 477,984 474,991 473,998 L 477,1002 L 475,1009 L 470,1005 L 461,1021 L 461,1036 C 363,1036 314,1037 314,1037 L 312,1009 L 308,1000 C 298,947 278,895 255,843 L 249,779 L 237,752 C 231,755 227,756 227,756 L 219,754 C 217,764 213,775 209,785 L 212,829 L 191,916 L 175,985 L 178,993 L 173,1005 L 173,1040 Z" fill="url(#id-83103)" id="id-83112"></path><path d=" M 81,1012 C 62,964 18,797 70,628 C 122,694 148,749 161,800 C 132,861 105,931 81,1012 Z" fill="url(#id-83104)" id="id-83113"></path><path d=" M 382,1036 C 398,1030 403,1023 397,1014 C 406,1009 407,1002 397,991 C 397,885 397,832 397,832 C 400,822 401,818 401,818 C 406,936 409,996 409,996 C 414,1004 417,1009 417,1009 C 410,1014 407,1017 407,1017 L 415,1036 C 393,1036 382,1036 382,1036 Z" fill="#E40079" id="id-83114"></path><path d=" M 70,1042 C 70,1035 70,1032 70,1032 C 62,1027 51,1024 39,1022 C 50,1018 55,1017 55,1017 C 31,971 15,919 1,864 C 3,895 5,927 8,958 L 33,1028 C 31,1032 30,1035 30,1037 L 35,1042 C 58,1042 70,1042 70,1042 Z" fill="#910049" id="id-83115"></path><path d=" M 74,1042 C 71,1038 96,1026 77,1016 C 58,984 62,923 89,832 C 103,837 110,839 110,839 C 79,889 69,947 81,1012 C 104,1019 116,1023 116,1023 C 102,1024 93,1026 88,1028 C 91,1033 96,1037 100,1041 C 83,1041 74,1042 74,1042 Z" fill="url(#id-83105)" id="id-83116"></path><path d=" M 12,640 L 195,679 C 241,652 265,639 265,639 C 213,556 188,514 188,514 L 118,366 C 107,453 92,492 45,503 C 41,521 31,549 30,562 C 29,589 25,615 12,640 Z" fill="#980049" id="id-83117"></path><path d=" M 350,1037 C 344,1018 340,1009 340,1009 C 365,1006 378,1004 378,1004 C 343,995 326,991 326,991 C 311,955 295,924 277,895 C 290,930 301,965 308,1000 L 312,1009 L 314,1037 C 338,1037 350,1037 350,1037 Z" fill="#850045" id="id-83118"></path><path d=" M 409,996 C 367,968 345,955 345,955 C 310,884 292,849 292,849 C 294,805 300,762 316,720 C 293,725 271,727 249,728 C 303,699 330,684 330,684 C 285,695 255,701 238,702 C 317,660 365,634 381,624 C 412,622 427,621 427,621 L 393,668 L 401,818 C 406,936 409,996 409,996 Z" fill="url(#id-83106)" id="id-83119"></path><path d=" M 307,687 C 363,676 391,670 391,670 L 360,657 C 324,677 307,687 307,687 Z" fill="#F40083" id="id-83120"></path><path d=" M 346,524 C 272,546 235,556 235,556 C 233,532 231,520 231,520 C 219,512 213,509 213,509 C 251,442 303,366 329,308 C 320,393 326,465 346,524 Z" fill="url(#id-83107)" id="id-83121"></path><path d=" M 120,526 C 104,526 93,524 87,521 C 107,508 117,477 125,443 C 122,499 120,526 120,526 Z" fill="#810043" id="id-83122"></path><path d=" M 46,780 L 64,817 L 161,800 C 120,764 99,746 99,746 C 100,715 101,699 101,699 L 51,718 C 47,754 45,775 46,780 Z" fill="#CA0068" id="id-83123"></path><path d=" M 148,370 L 163,364 C 185,397 204,414 223,415 C 242,414 262,396 284,358 C 311,378 325,387 325,387 C 325,416 327,435 329,453 C 258,491 197,464 148,370 Z" fill="url(#id-83108)" id="id-83124"></path><path d=" M 138,392 C 141,374 142,365 142,365 C 160,384 169,394 169,394 L 127,315 C 134,366 138,392 138,392 Z" fill="#8E0047" id="id-83125"></path><path d=" M 12,640 L 51,650 L 13,655 C 12,645 12,640 12,640 Z" fill="#8B0047" id="id-83126"></path><path d=" M 285,485 C 300,447 310,422 314,409 L 305,469 C 292,480 285,485 285,485 Z" fill="#9A0052" id="id-83127"></path><path d=" M 409,996 C 380,977 366,968 366,968 C 369,884 371,842 371,842 C 390,800 399,779 399,779 C 421,801 437,828 432,876 C 417,956 409,996 409,996 Z" fill="url(#id-83109)" id="id-83128"></path><path d=" M 432,609 C 392,637 372,651 372,651 C 394,603 405,580 405,580 L 422,576 C 429,598 432,609 432,609 Z" fill="#8C0046" id="id-83129"></path><path d=" M 222,752 C 219,721 220,694 228,672 C 221,660 218,655 218,655 C 223,643 226,637 226,637 C 226,613 226,601 226,601 C 192,606 175,608 175,608 C 129,605 107,603 107,603 C 92,590 84,583 84,583 C 69,617 51,651 56,686 L 125,704 L 188,749 C 211,751 222,752 222,752 Z" fill="url(#id-83110)" id="id-83130"></path><path d=" M 222,752 C 200,750 188,749 188,749 L 125,704 L 185,732 C 210,746 222,752 222,752 Z" fill="#830044" id="id-83131"></path><path d=" M 111,658 C 118,680 122,691 122,691 L 240,671 C 154,663 111,658 111,658 Z" fill="#A40057" id="id-83132"></path><path d=" M 284,912 C 275,882 266,855 259,819 C 258,786 258,770 258,770 C 262,754 268,741 276,733 C 263,737 244,744 222,752 C 197,739 185,732 185,732 L 210,838 L 212,829 L 209,785 C 213,775 216,764 219,754 L 227,756 L 237,752 L 249,779 L 255,843 C 274,889 284,912 284,912 Z" fill="#68003F" id="id-83133"></path><path d=" M 71,42 C 58,48 52,51 52,51 C 68,115 77,152 81,164 L 93,157 C 79,93 72,55 71,42 Z" fill="#CE006C" id="id-83134"></path><path d=" M 386,36 C 398,38 403,39 403,39 C 380,104 367,146 363,164 L 353,165 C 370,96 381,53 386,36 Z" fill="#CE006C" id="id-83135"></path></g><defs></defs><g transform=" translate(380,502)" id="id-95636"><path d=" M 123,605 C 122,667 122,698 122,698 C 131,698 136,697 136,697 L 138,608 C 128,606 123,605 123,605 Z" fill="#D800BA" id="id-95637"></path><path d=" M 384,604 C 383,673 383,708 383,708 C 392,705 397,704 397,704 L 399,601 C 392,600 386,601 384,604 Z" fill="#D800BA" id="id-95638"></path><path d=" M 399,618 C 389,626 384,630 384,630 C 384,612 384,603 384,603 L 399,601 C 399,613 399,618 399,618 Z" fill="#A20088" id="id-95639"></path><path d=" M 229,639 L 123,604 L 208,611 L 237,295 L 212,179 L 189,72 C 203,57 210,50 210,50 C 191,76 208,108 222,140 C 233,242 224,253 264,325 L 244,378 C 238,457 233,547 229,639 Z" fill="#000000" fill-opacity="0.298" id="id-95640"></path><path d=" M 343,621 C 393,617 418,615 418,615 C 433,603 441,597 441,597 L 370,598 L 341,289 L 368,61 C 355,51 348,46 348,46 C 352,64 354,72 354,72 C 344,93 338,104 338,104 C 344,106 348,108 348,108 C 344,195 342,238 342,238 C 336,274 333,292 333,292 L 322,326 C 336,471 343,569 343,621 Z" fill="#000000" fill-opacity="0.298" id="id-95641"></path><path d=" M 220,624 C 208,623 202,622 202,622 C 202,619 202,617 202,617 C 123,604 84,597 84,597 C 80,557 78,537 78,537 C 91,516 98,505 98,505 C 96,461 95,439 95,439 C 105,413 111,401 111,401 C 102,381 98,371 98,371 C 100,336 100,318 100,318 C 95,303 93,295 93,295 C 88,244 86,219 86,219 C 65,160 55,130 55,130 C 43,125 37,122 37,122 C 41,120 42,120 42,120 C 47,113 49,109 49,109 C 113,90 144,81 144,81 C 125,63 115,54 115,54 C 113,47 112,43 112,43 C 90,29 78,21 78,21 C 84,14 87,10 87,10 C 92,12 94,14 94,14 C 100,11 103,9 103,9 C 104,6 104,4 104,4 C 161,49 189,71 189,71 C 202,118 209,141 209,141 C 212,166 213,179 213,179 L 238,296 C 226,515 220,624 220,624 Z" fill="#005BA5" id="id-95642"></path><path d=" M 378,609 C 381,604 389,600 406,602 L 487,588 L 489,563 C 483,521 479,500 479,500 L 475,493 C 480,456 482,438 482,438 L 469,389 L 480,349 C 475,326 472,314 472,314 C 468,306 466,302 466,302 C 478,224 484,185 484,185 C 513,145 527,126 527,126 C 518,123 513,121 513,121 L 510,110 L 466,94 L 413,71 C 434,52 455,34 480,23 C 476,17 474,15 474,15 C 470,10 468,8 468,8 C 463,10 461,11 461,11 C 392,76 355,116 352,132 L 346,213 L 332,288 L 360,610 C 372,610 378,609 378,609 Z" fill="#0057A3" id="id-95643"></path><path d=" M 207,611 C 147,601 116,596 116,596 C 115,553 114,531 114,531 C 97,535 88,537 88,537 C 105,520 114,512 114,512 C 173,519 202,523 202,523 L 215,542 C 210,588 207,611 207,611 Z" fill="#007AB5" id="id-95644"></path><path d=" M 92,513 C 100,510 104,509 104,509 C 170,519 203,524 203,524 C 210,533 214,538 214,538 C 217,521 218,512 218,512 C 216,511 215,510 215,510 C 212,515 211,517 211,517 C 141,508 105,503 105,503 L 96,493 L 97,505 C 94,510 92,513 92,513 Z" fill="#003A82" id="id-95645"></path><path d=" M 116,487 C 142,496 155,501 155,501 C 190,502 208,502 208,502 C 214,500 218,499 218,499 C 218,488 218,482 218,482 C 212,481 209,481 209,481 C 216,478 220,476 220,476 C 220,450 219,437 219,437 C 210,427 205,422 205,422 L 120,416 C 117,463 116,487 116,487 Z" fill="#007AB5" id="id-95646"></path><path d=" M 103,413 C 119,412 127,411 127,411 L 200,417 C 213,430 219,437 219,437 C 219,416 218,405 218,405 C 208,410 203,413 203,413 C 152,407 126,404 126,404 L 104,389 L 109,400 C 105,409 103,413 103,413 Z" fill="#003A82" id="id-95647"></path><path d=" M 138,391 C 129,383 124,379 124,379 C 117,335 113,313 113,313 C 126,319 133,323 133,323 C 134,314 134,309 134,309 C 195,312 226,314 226,314 C 223,368 222,395 222,395 L 208,400 C 161,394 138,391 138,391 Z" fill="#007BB5" id="id-95648"></path><path d=" M 207,313 C 216,303 220,297 220,297 C 203,232 195,199 195,199 C 178,194 170,192 170,192 C 185,187 193,185 193,185 C 185,181 181,179 181,179 C 181,171 180,167 180,167 C 148,135 131,119 131,119 C 93,129 74,134 74,134 C 72,130 71,129 71,129 L 73,121 L 48,109 L 143,81 L 113,54 C 111,46 111,42 111,42 C 154,82 176,102 176,102 L 222,287 L 224,314 C 213,313 207,313 207,313 Z" fill="#003A82" id="id-95649"></path><path d=" M 100,318 C 115,307 123,301 123,301 C 111,299 105,298 105,298 C 105,290 106,285 106,285 L 97,238 L 85,219 L 92,295 C 97,310 100,318 100,318 Z" fill="#003A82" id="id-95650"></path><path d=" M 136,294 C 184,289 208,286 208,286 C 194,244 187,222 187,222 C 169,204 160,195 160,195 C 154,214 152,223 152,223 L 139,277 C 137,288 136,294 136,294 Z" fill="#007BB5" id="id-95651"></path><path d=" M 364,190 C 365,177 366,171 366,171 C 379,122 386,97 386,97 C 421,63 453,34 480,23 C 476,18 473,13 473,13 C 454,22 444,27 444,27 C 401,69 380,91 380,91 C 348,222 332,288 332,288 C 351,502 360,609 360,609 C 367,609 370,609 370,609 L 364,532 C 370,557 373,569 373,569 C 450,565 488,562 488,562 C 490,543 491,533 491,533 C 482,510 478,499 478,499 C 473,496 470,494 470,494 C 402,502 368,506 368,506 C 364,516 362,521 362,521 C 357,478 355,457 355,457 C 363,469 366,475 366,475 C 435,469 469,465 469,465 C 477,447 480,437 480,437 C 468,411 462,398 462,398 C 454,402 450,404 450,404 C 392,407 363,408 363,408 C 357,419 355,424 355,424 C 347,360 344,328 344,328 C 352,344 356,352 356,352 C 415,358 445,362 445,362 C 467,353 479,348 479,348 C 473,325 471,314 471,314 C 460,302 455,297 455,297 C 397,297 367,297 367,297 C 352,302 345,305 345,305 C 345,289 344,281 344,281 C 356,238 361,217 361,217 C 362,211 362,207 362,204 C 365,212 366,216 366,216 C 414,218 438,218 438,218 C 452,221 460,223 460,223 L 435,187 C 415,190 396,184 375,177 L 364,190 Z" fill="#007BB5" id="id-95652"></path><path d=" M 362,520 L 360,501 L 368,506 C 364,515 362,520 362,520 Z" fill="#003982" id="id-95653"></path><path d=" M 469,466 C 457,428 451,409 451,409 L 458,400 C 453,403 450,404 450,404 C 437,405 430,405 430,405 C 427,408 425,410 425,410 C 454,411 454,460 461,467 C 465,466 469,466 469,466 Z" fill="#4AADEE" id="id-95654"></path><path d=" M 428,364 C 408,360 398,358 398,358 C 410,357 416,354 418,350 C 417,336 412,300 412,300 L 447,301 C 434,343 428,364 428,364 Z" fill="#4AADEE" id="id-95655"></path><path d=" M 444,285 C 379,298 346,305 346,305 C 352,280 355,268 355,268 L 443,267 L 444,285 Z" fill="#0065AE" id="id-95656"></path><path d=" M 403,186 C 405,206 406,215 406,215 C 409,201 411,194 411,194 C 415,201 416,205 416,205 C 421,197 424,192 424,192 C 429,210 431,219 431,219 C 433,200 435,191 435,191 C 442,202 446,208 446,208 C 447,199 448,194 448,194 L 436,185 C 431,189 420,189 403,186 Z" fill="#5EB9FA" id="id-95657"></path><path d=" M 385,163 L 431,187 C 414,188 395,185 375,176 L 364,190 L 366,171 C 379,122 386,97 386,97 C 403,80 412,71 412,71 C 447,86 464,94 464,94 L 426,104 C 399,143 385,163 385,163 Z" fill="#003A82" id="id-95658"></path><path d=" M 394,157 C 446,172 471,180 471,180 C 495,135 507,113 507,113 L 430,105 C 406,140 394,157 394,157 Z" fill="#0063AC" id="id-95659"></path><path d=" M 431,106 C 426,111 424,114 424,114 C 469,121 492,129 493,138 L 509,116 C 474,121 449,118 431,106 Z" fill="#5EB9FA" id="id-95660"></path><path d=" M 356,644 C 352,644 350,644 350,644 C 350,616 351,603 351,603 L 352,588 C 339,388 332,287 332,287 C 357,171 369,113 369,113 C 374,114 377,114 377,114 C 352,231 340,290 340,290 C 354,500 362,604 362,604 L 356,606 C 356,631 356,644 356,644 Z" fill="#FED9C8" id="id-95661"></path><path d=" M 332,287 L 346,214 L 352,133 C 357,107 358,82 367,61 L 447,0 L 461,11 L 468,8 L 473,13 L 443,29 C 401,71 380,92 380,92 L 348,214 L 332,287 Z" fill="#D800BA" id="id-95662"></path><path d=" M 213,179 C 197,127 189,101 189,101 L 118,32 L 88,10 L 95,13 L 104,9 L 107,3 L 128,1 L 190,72 L 209,141 C 212,166 213,179 213,179 Z" fill="#D800BA" id="id-95663"></path><path d=" M 162,68 C 139,47 128,37 128,37 L 155,46 C 160,61 162,68 162,68 Z" fill="#FF4EED" id="id-95664"></path><path d=" M 123,33 L 93,14 L 102,10 C 102,6 103,5 103,5 L 107,3 L 123,33 Z" fill="#94007C" id="id-95665"></path><path d=" M 114,197 C 108,193 105,190 105,190 C 100,172 97,163 97,163 C 122,151 135,145 135,145 C 162,160 176,167 176,167 L 183,186 C 137,193 114,197 114,197 Z" fill="#0077B3" id="id-95666"></path><path d=" M 0,143 L 48,133 C 73,191 85,219 85,219 C 87,236 88,245 88,245 C 109,230 119,223 119,223 C 176,223 205,223 205,223 C 214,260 219,278 219,278 C 153,278 120,278 120,278 C 101,290 91,296 91,296 C 79,254 73,232 73,232 L 25,172 C 8,153 0,143 0,143 Z" fill="#101721" id="id-95667"></path><path d=" M 34,179 C 49,174 57,171 57,171 C 50,152 46,142 46,142 L 8,148 C 25,169 34,179 34,179 Z" fill="#182B44" id="id-95668"></path><path d=" M 348,272 C 411,271 443,271 443,271 C 461,277 470,280 470,280 C 482,248 488,231 488,231 C 526,189 545,167 545,167 C 559,151 566,143 566,143 C 541,136 528,133 528,133 C 502,168 489,186 489,186 L 477,230 L 461,224 C 446,221 438,219 438,219 L 362,218 C 353,254 348,272 348,272 Z" fill="#101721" id="id-95669"></path><path d=" M 535,173 C 516,169 507,167 507,167 C 521,150 527,141 527,141 L 554,146 C 542,164 535,173 535,173 Z" fill="#192C48" id="id-95670"></path><polygon points="528 134 526 126 484 185 477 230 489 186" fill="#011C50" id="id-95671"></polygon><polygon points="36 136 37 122 55 130 86 218 86 221 49 133" fill="#001C54" id="id-95672"></polygon><path d=" M 227,606 C 221,606 218,606 218,606 C 230,400 236,297 236,297 C 205,175 189,115 189,115 C 193,114 195,113 195,113 L 243,296 C 233,503 227,606 227,606 Z" fill="#FED9C8" id="id-95673"></path></g><defs></defs><polygon points="570 418 570 420 585 501 633 539 633 528 655 553 663 536 678 532 666 547 729 501 741 441 743 427 745 435 747 419 725 441 736 442 715 470 725 464 715 493 709 494 702 462 707 462 678 443 663 444 660 451 670 448 694 462 698 495 688 501 678 492 678 497 665 492 670 498 655 490 655 504 650 495 648 502 648 491 633 500 636 495 620 497 620 465 648 450 655 450 653 443 633 445 605 461 615 461 609 495 583 445 594 448" fill="#200D0B" id="id-99550"></polygon><defs></defs><g transform=" translate(566,213)" id="id-101000"><g fill="#231011" id="id-101001"><path d=" M 182,106 L 184,111 C 184,111 187,168 184,179 L 181,198 L 177,200 C 179,187 181,150 169,135 L 172,119 L 177,124 C 174,118 171,112 168,107 L 182,106 Z" id="id-101002"></path><path d=" M 4,113 C 8,111 10,112 15,111 C 23,138 3,149 8,177 L 12,172 C 9,181 9,187 9,196 L 4,193 C 4,193 2,184 2,174 C 1,167 0,161 0,151 C 0,150 0,148 0,147 C 1,134 2,121 4,113 Z" id="id-101002"></path><path d=" M 184,67 L 183,89 L 183,90 L 182,106 C 182,106 150,89 149,87 C 149,87 148,86 148,86 C 147,86 146,86 146,87 L 141,84 L 101,94 L 105,88 C 105,88 94,95 93,95 L 77,84 L 72,90 C 49,61 8,113 4,114 L 2,90 C 3,87 3,73 4,70 C 4,70 8,78 8,78 C 17,46 27,45 27,45 C 31,37 36,31 42,25 L 41,32 C 44,30 54,25 54,25 C 56,18 60,12 65,8 C 64,10 67,17 67,17 L 81,0 L 85,11 L 99,5 C 103,9 183,55 180,74 L 184,67 Z" id="id-101002"></path></g><g transform=" translate(3,0)" fill="#41547A" id="id-101005"><path d=" M 180,67 L 179,89 L 168,98 L 143,84 L 143,81 C 141,81 139,83 137,84 C 125,87 106,92 97,94 L 102,88 L 90,96 C 83,91 78,87 74,84 C 71,81 67,78 62,74 L 63,75 C 67,85 69,90 69,90 C 63,82 50,81 43,82 C 43,82 35,74 35,74 L 32,72 L 37,85 L 17,99 L 0,74 C 0,74 0,73 0,71 C 0,71 0,70 0,70 L 5,77 C 14,46 23,44 23,44 C 28,37 33,31 38,25 L 37,31 C 39,30 49,25 50,25 C 52,18 57,12 62,7 C 61,9 63,16 63,17 L 77,0 L 82,11 L 96,5 C 119,23 163,42 175,67 C 176,68 176,70 177,74 L 180,67 Z" id="id-101002"></path></g><g transform=" translate(25,0)" fill="#577DBF" id="id-101007"><path d=" M 21,52 L 30,82 C 27,82 24,82 21,82 C 21,82 14,74 13,74 C 8,69 3,64 0,57 C 0,57 13,65 20,62 C 20,62 4,56 16,31 C 18,31 20,29 23,28 C 24,35 29,53 36,60 C 36,59 24,56 21,52 Z" id="id-101002"></path><path d=" M 139,47 C 127,38 92,17 75,5 L 60,11 C 60,10 57,1 56,0 L 42,17 C 41,16 40,9 41,8 C 32,14 34,27 33,41 L 41,50 C 41,50 41,37 43,33 C 43,33 46,62 51,68 L 39,73 C 47,79 61,91 69,96 L 81,88 L 77,93 L 124,69 L 122,84 C 122,84 139,67 145,54 L 139,47 Z M 53,49 C 64,70 79,69 79,69 C 79,69 66,78 62,78 C 57,78 53,51 53,49 Z" id="id-101009" fill-rule="nonzero"></path></g><g transform=" translate(60,0)" fill="#5AA4DA" id="id-101010"><polygon points="33 92 56 65 87 67" id="id-101002"></polygon><path d=" M 110,55 C 110,55 103,66 102,66 L 102,55 L 76,50 L 93,44 C 93,44 54,37 51,32 C 51,32 52,54 53,58 C 54,63 36,29 37,14 C 37,14 27,28 26,36 L 28,10 L 39,5 L 40,6 C 41,13 42,23 47,29 C 45,24 47,17 50,13 C 64,23 85,33 99,43 C 104,47 109,52 110,55 Z" id="id-101002"></path><path d=" M 24,9 C 21,13 15,21 14,27 C 14,21 14,14 14,8 L 21,0 L 24,9 Z" id="id-101002"></path><path d=" M 6,14 L 5,48 C 5,48 -1,25 0,13 C 2,11 4,9 6,8 C 5,10 5,12 6,14 Z" id="id-101002"></path></g></g><defs></defs><path d=" M 1202,1685 C 1201,1683 1198,1681 1197,1679 C 1196,1678 1196,1676 1196,1675 C 1196,1674 1194,1672 1193,1671 C 1193,1670 1192,1669 1192,1668 C 1192,1667 1195,1666 1196,1665 C 1198,1663 1200,1661 1202,1658 C 1207,1649 1216,1643 1226,1641 C 1240,1638 1254,1644 1263,1655 C 1264,1657 1266,1660 1265,1663 C 1265,1664 1263,1665 1263,1666 C 1263,1667 1265,1669 1266,1670 C 1271,1673 1269,1673 1270,1678 C 1270,1682 1274,1681 1274,1685 L 1274,1685 L 1274,1686 C 1274,1686 1274,1686 1274,1686 C 1273,1688 1271,1688 1270,1689 C 1268,1691 1267,1692 1266,1694 C 1263,1698 1261,1700 1258,1704 C 1242,1719 1214,1716 1202,1696 C 1201,1695 1199,1691 1200,1689 C 1201,1688 1202,1688 1202,1685 L 1202,1685 Z M 1268,1685 C 1267,1682 1265,1682 1264,1679 C 1264,1678 1264,1677 1264,1676 C 1264,1675 1264,1674 1264,1674 C 1264,1673 1263,1672 1262,1672 C 1260,1670 1256,1669 1258,1665 C 1259,1662 1261,1662 1258,1658 C 1246,1643 1223,1641 1210,1656 C 1209,1658 1208,1659 1207,1661 C 1205,1663 1202,1665 1200,1667 C 1197,1669 1197,1669 1200,1671 C 1203,1675 1201,1676 1203,1679 C 1204,1681 1207,1682 1208,1685 L 1208,1685 L 1208,1685 C 1207,1690 1203,1688 1207,1694 C 1216,1706 1232,1711 1246,1705 C 1249,1704 1252,1702 1255,1699 C 1257,1697 1259,1694 1261,1691 C 1263,1689 1267,1687 1268,1685 L 1268,1685 Z M 1254,1685 C 1254,1682 1252,1682 1252,1680 C 1251,1677 1251,1673 1255,1674 C 1258,1675 1256,1678 1258,1680 C 1259,1682 1260,1682 1260,1685 L 1261,1686 L 1260,1686 C 1259,1688 1257,1689 1255,1690 C 1248,1694 1246,1699 1237,1700 C 1231,1701 1225,1700 1221,1697 C 1219,1696 1216,1694 1215,1692 C 1213,1689 1216,1688 1216,1685 C 1215,1683 1212,1682 1211,1680 C 1208,1677 1210,1673 1214,1674 L 1214,1674 L 1215,1675 C 1216,1678 1215,1679 1217,1681 C 1219,1682 1222,1683 1222,1686 C 1222,1689 1220,1690 1224,1692 C 1230,1696 1238,1695 1244,1691 C 1246,1690 1253,1687 1254,1685 L 1254,1685 Z M 1244,1674 C 1242,1675 1239,1674 1237,1673 C 1236,1672 1233,1670 1232,1669 C 1231,1669 1231,1668 1231,1667 C 1231,1666 1233,1665 1234,1664 C 1235,1662 1237,1661 1238,1659 C 1242,1652 1249,1658 1247,1663 C 1246,1665 1243,1666 1243,1668 C 1243,1670 1246,1671 1244,1674 L 1244,1674 L 1244,1674 L 1244,1674 Z M 1222,1656 C 1224,1655 1227,1656 1228,1659 C 1229,1660 1229,1661 1229,1663 C 1228,1665 1223,1666 1225,1669 C 1225,1670 1226,1670 1226,1671 C 1227,1674 1226,1675 1223,1675 C 1222,1675 1219,1673 1218,1672 C 1216,1671 1212,1669 1214,1666 C 1215,1664 1217,1664 1218,1662 C 1219,1660 1220,1658 1222,1656 L 1222,1656 Z" fill="#343D53" opacity="0.297" id="id-77051"></path></svg>