<?xml version="1.0" encoding="UTF-8"?><svg width="1320px" height="1760px" viewBox="0 0 1320 1760" version="1.1" xmlns="http://www.w3.org/2000/svg" xmlns:xlink="http://www.w3.org/1999/xlink"><defs></defs><g stroke="none" stroke-width="1" fill="none" id="id-30249" fill-rule="evenodd"><g id="id-30250"><g id="id-30251"><rect fill="#CACFDA" width="1320" height="1760" x="0" y="0" id="id-30252"></rect><g transform=" translate(143,346)" fill="#0038A7" id="id-30253"><path d=" M 211,114 C 377,-11 604,-33 770,47 C 796,70 821,56 828,29 C 828,29 832,91 841,215 L 841,215 L 841,215 C 841,209 842,138 842,0 L 842,0 L 842,0 C 843,3 863,53 902,150 C 920,168 933,187 945,205 L 947,207 C 948,209 950,211 951,214 C 966,252 972,295 978,337 C 978,337 981,317 986,278 C 1060,439 1065,594 1000,746 L 1000,746 L 1000,746 C 1000,745 1000,734 1001,710 C 986,759 960,805 925,850 C 925,850 934,845 951,835 C 951,835 951,835 951,835 L 951,835 C 950,836 940,849 920,875 C 920,875 912,915 896,995 C 896,995 895,926 893,789 L 893,789 L 893,789 C 892,789 890,791 885,793 L 885,793 L 885,793 C 885,795 884,835 884,911 C 731,1052 520,1074 365,1011 C 365,1011 353,1027 330,1058 L 330,1058 L 330,1058 C 330,1057 330,1033 331,986 C 324,979 318,974 313,968 C 313,968 309,1028 301,1149 C 301,1149 298,1092 294,978 C 250,951 211,922 179,888 C 176,892 174,897 173,903 C 173,903 171,955 167,1060 C 162,981 160,947 140,894 C 128,871 115,844 103,817 L 100,811 C 94,798 89,786 83,774 C 101,807 126,843 156,882 L 156,882 L 155,863 C -2,681 -41,428 116,210 C 135,190 151,171 167,152 L 170,149 L 170,149 L 173,145 C 176,142 179,139 182,135 C 182,135 182,135 182,135 L 182,135 C 182,136 182,143 182,155 C 182,155 184,154 187,152 C 187,152 186,114 185,40 C 185,40 193,65 211,114 Z M 885,607 L 880,721 L 890,713 C 890,713 888,678 885,607 L 885,607 Z" id="id-30254"></path><path d=" M 740,1028 L 718,1024 C 718,1024 788,993 788,993 L 743,1039 C 745,1031 743,1028 740,1028 Z" id="id-30255"></path><path d=" M 719,1044 C 711,1052 707,1056 707,1056 L 730,1065 C 722,1051 719,1044 719,1044 Z" id="id-30256"></path><path d=" M 683,1098 C 696,1087 702,1082 702,1082 L 696,1109 C 687,1101 683,1098 683,1098 Z" id="id-30257"></path><path d=" M 683,1059 C 663,1047 653,1042 653,1042 L 700,1028 C 689,1049 683,1059 683,1059 Z" id="id-30258"></path><path d=" M 46,302 C 15,355 0,382 0,382 C 5,389 7,392 7,392 C 1,433 1,467 6,496 C 7,422 20,357 46,302 Z" id="id-30259"></path></g></g><rect fill="#FA1800" width="37" height="134" x="0" y="0" id="id-30252"></rect><rect fill="#FA1800" width="37" height="134" x="0" y="813" id="id-30252"></rect><rect fill="#FA1800" width="37" height="134" x="0" y="1626" id="id-30252"></rect></g></g><defs><linearGradient x1="48%" y1="49%" x2="60%" y2="82%" id="id-73997"><stop stop-color="#312D33" offset="0%"></stop><stop stop-color="#221F24" offset="100%"></stop></linearGradient></defs><polygon points="716 514 713 511 704 523 709 558 747 596 747 567 729 550" transform=" translate(726,554) scale(-1,1) translate(-725,-554)" fill="url(#id-73997)" id="id-73998"></polygon><defs><linearGradient x1="100%" y1="46%" x2="12%" y2="47%" id="id-74155"><stop stop-color="#723722" offset="0%"></stop><stop stop-color="#96513B" offset="21%"></stop><stop stop-color="#9A6555" offset="46%"></stop><stop stop-color="#9F5E49" offset="80%"></stop><stop stop-color="#93523A" offset="100%"></stop></linearGradient><linearGradient x1="53%" y1="81%" x2="50%" y2="21%" id="id-74156"><stop stop-color="#7B3F37" offset="0%"></stop><stop stop-color="#7D4538" offset="24%"></stop><stop stop-color="#834B33" offset="100%"></stop></linearGradient><linearGradient x1="52%" y1="-4%" x2="46%" y2="70%" id="id-74157"><stop stop-color="#834239" offset="0%"></stop><stop stop-color="#5C3029" offset="100%"></stop></linearGradient><linearGradient x1="46%" y1="43%" x2="15%" y2="43%" id="id-74158"><stop stop-color="#924833" offset="0%"></stop><stop stop-color="#683011" offset="100%"></stop></linearGradient><linearGradient x1="54%" y1="37%" x2="12%" y2="72%" id="id-74159"><stop stop-color="#1E0404" offset="0%"></stop><stop stop-color="#34100E" offset="100%"></stop></linearGradient><linearGradient x1="40%" y1="14%" x2="61%" y2="85%" id="id-74160"><stop stop-color="#461A1F" offset="0%"></stop><stop stop-color="#5B2F2C" offset="100%"></stop></linearGradient><linearGradient x1="27%" y1="47%" x2="91%" y2="49%" id="id-74161"><stop stop-color="#784730" offset="0%"></stop><stop stop-color="#BE8BC7" offset="100%"></stop></linearGradient><linearGradient x1="47%" y1="60%" x2="49%" y2="79%" id="id-74162"><stop stop-color="#7F4235" offset="0%"></stop><stop stop-color="#894241" offset="60%"></stop><stop stop-color="#9B595A" offset="100%"></stop></linearGradient><linearGradient x1="29%" y1="56%" x2="69%" y2="53%" id="id-74163"><stop stop-color="#804733" offset="0%"></stop><stop stop-color="#743A2C" offset="8%"></stop><stop stop-color="#7C3D34" offset="18%"></stop><stop stop-color="#5D2920" offset="38%"></stop><stop stop-color="#5B2725" offset="65%"></stop><stop stop-color="#7E4037" offset="81%"></stop><stop stop-color="#4C1B1F" offset="100%"></stop></linearGradient><linearGradient x1="47%" y1="45%" x2="54%" y2="46%" id="id-74164"><stop stop-color="#7A3932" offset="0%"></stop><stop stop-color="#763B2F" offset="62%"></stop><stop stop-color="#5F2C1F" offset="77%"></stop><stop stop-color="#794634" offset="100%"></stop></linearGradient><linearGradient x1="51%" y1="7%" x2="50%" y2="100%" id="id-74165"><stop stop-color="#763D2D" offset="0%"></stop><stop stop-color="#914E49" offset="75%"></stop><stop stop-color="#7B3C3B" offset="100%"></stop></linearGradient><linearGradient x1="51%" y1="11%" x2="49%" y2="93%" id="id-74166"><stop stop-color="#87523F" offset="0%"></stop><stop stop-color="#80482F" offset="73%"></stop><stop stop-color="#865037" offset="100%"></stop></linearGradient><linearGradient x1="51%" y1="-5%" x2="48%" y2="96%" id="id-74167"><stop stop-color="#7D452E" offset="0%"></stop><stop stop-color="#6C3821" offset="100%"></stop></linearGradient><linearGradient x1="50%" y1="19%" x2="50%" y2="69%" id="id-74168"><stop stop-color="#50260A" offset="0%"></stop><stop stop-color="#291000" offset="45%"></stop><stop stop-color="#4C2106" offset="100%"></stop></linearGradient><linearGradient x1="46%" y1="74%" x2="39%" y2="35%" id="id-74169"><stop stop-color="#492117" offset="0%"></stop><stop stop-color="#64311E" offset="51%"></stop><stop stop-color="#713121" offset="100%"></stop></linearGradient><linearGradient x1="46%" y1="16%" x2="49%" y2="82%" id="id-74170"><stop stop-color="#512416" offset="0%" stop-opacity="0.186"></stop><stop stop-color="#482015" offset="100%"></stop></linearGradient><linearGradient x1="41%" y1="19%" x2="50%" y2="100%" id="id-74171"><stop stop-color="#5B2725" offset="0%"></stop><stop stop-color="#50260A" offset="100%"></stop></linearGradient><linearGradient x1="50%" y1="31%" x2="45%" y2="50%" id="id-74172"><stop stop-color="#68361D" offset="0%"></stop><stop stop-color="#894C43" offset="100%"></stop></linearGradient><linearGradient x1="51%" y1="22%" x2="50%" y2="100%" id="id-74173"><stop stop-color="#5D2126" offset="0%"></stop><stop stop-color="#4F1C21" offset="100%"></stop></linearGradient><linearGradient x1="49%" y1="0%" x2="50%" y2="100%" id="id-74174"><stop stop-color="#7A3F2E" offset="0%"></stop><stop stop-color="#793F35" offset="100%"></stop></linearGradient><linearGradient x1="44%" y1="15%" x2="50%" y2="100%" id="id-74175"><stop stop-color="#5B2C1F" offset="0%"></stop><stop stop-color="#50281D" offset="100%"></stop></linearGradient><linearGradient x1="52%" y1="21%" x2="49%" y2="83%" id="id-74176"><stop stop-color="#7F4534" offset="0%"></stop><stop stop-color="#975549" offset="48%"></stop><stop stop-color="#83453F" offset="100%"></stop></linearGradient><linearGradient x1="85%" y1="60%" x2="15%" y2="60%" id="id-74177"><stop stop-color="#864A32" offset="0%"></stop><stop stop-color="#5D2A11" offset="100%"></stop></linearGradient><linearGradient x1="48%" y1="-20%" x2="59%" y2="91%" id="id-74178"><stop stop-color="#96533C" offset="0%"></stop><stop stop-color="#5D2C12" offset="60%"></stop><stop stop-color="#643418" offset="72%"></stop><stop stop-color="#743E24" offset="100%"></stop></linearGradient><linearGradient x1="55%" y1="48%" x2="46%" y2="33%" id="id-74179"><stop stop-color="#743F2A" offset="0%"></stop><stop stop-color="#7E462E" offset="86%"></stop><stop stop-color="#764228" offset="100%"></stop></linearGradient><linearGradient x1="50%" y1="19%" x2="50%" y2="78%" id="id-74180"><stop stop-color="#401900" offset="0%"></stop><stop stop-color="#522003" offset="50%"></stop><stop stop-color="#371900" offset="100%"></stop></linearGradient><linearGradient x1="50%" y1="10%" x2="50%" y2="43%" id="id-74181"><stop stop-color="#85462C" offset="0%"></stop><stop stop-color="#602C13" offset="15%"></stop><stop stop-color="#652D15" offset="68%"></stop><stop stop-color="#592A10" offset="100%"></stop></linearGradient><linearGradient x1="89%" y1="50%" x2="9%" y2="52%" id="id-74182"><stop stop-color="#401D02" offset="0%"></stop><stop stop-color="#995734" offset="53%" stop-opacity="0.199"></stop><stop stop-color="#5A2A10" offset="75%"></stop><stop stop-color="#411900" offset="100%"></stop></linearGradient><linearGradient x1="44%" y1="70%" x2="86%" y2="30%" id="id-74183"><stop stop-color="#9A5741" offset="0%"></stop><stop stop-color="#9C6A5F" offset="100%"></stop></linearGradient><linearGradient x1="19%" y1="86%" x2="73%" y2="32%" id="id-74184"><stop stop-color="#703010" offset="0%"></stop><stop stop-color="#A66353" offset="40%"></stop><stop stop-color="#AE745F" offset="100%"></stop></linearGradient><linearGradient x1="35%" y1="94%" x2="47%" y2="12%" id="id-74185"><stop stop-color="#723C23" offset="0%"></stop><stop stop-color="#966556" offset="40%"></stop><stop stop-color="#AC715D" offset="46%"></stop><stop stop-color="#A36655" offset="100%"></stop></linearGradient><linearGradient x1="50%" y1="54%" x2="27%" y2="9%" id="id-74186"><stop stop-color="#DDAB90" offset="0%"></stop><stop stop-color="#DDAB90" offset="100%" stop-opacity="0.078"></stop></linearGradient><linearGradient x1="20%" y1="36%" x2="93%" y2="69%" id="id-74187"><stop stop-color="#A36150" offset="0%"></stop><stop stop-color="#9D604E" offset="70%"></stop><stop stop-color="#803A19" offset="100%"></stop></linearGradient><linearGradient x1="36%" y1="84%" x2="25%" y2="44%" id="id-74188"><stop stop-color="#663D38" offset="0%" stop-opacity="0.509"></stop><stop stop-color="#57260A" offset="35%" stop-opacity="0.675"></stop><stop stop-color="#763217" offset="100%" stop-opacity="0"></stop></linearGradient><linearGradient x1="63%" y1="95%" x2="43%" y2="20%" id="id-74189"><stop stop-color="#7C3C2B" offset="0%"></stop><stop stop-color="#8A4B32" offset="46%"></stop><stop stop-color="#88452F" offset="100%"></stop></linearGradient><linearGradient x1="40%" y1="0%" x2="50%" y2="86%" id="id-74190"><stop stop-color="#804025" offset="0%"></stop><stop stop-color="#955542" offset="100%"></stop></linearGradient><linearGradient x1="50%" y1="0%" x2="50%" y2="92%" id="id-74191"><stop stop-color="#B56F5E" offset="0%"></stop><stop stop-color="#8B4E35" offset="100%"></stop></linearGradient><linearGradient x1="33%" y1="79%" x2="21%" y2="44%" id="id-74192"><stop stop-color="#936354" offset="0%"></stop><stop stop-color="#633117" offset="28%"></stop><stop stop-color="#763C17" offset="100%" stop-opacity="0"></stop></linearGradient><linearGradient x1="4%" y1="47%" x2="92%" y2="45%" id="id-74193"><stop stop-color="#391108" offset="0%"></stop><stop stop-color="#501A0F" offset="17%" stop-opacity="0.753"></stop><stop stop-color="#6B3127" offset="48%" stop-opacity="0.386"></stop><stop stop-color="#4A1C15" offset="78%" stop-opacity="0.762"></stop><stop stop-color="#411610" offset="100%"></stop></linearGradient><linearGradient x1="60%" y1="45%" x2="67%" y2="53%" id="id-74194"><stop stop-color="#A3716E" offset="0%"></stop><stop stop-color="#CB93A9" offset="100%"></stop></linearGradient><linearGradient x1="48%" y1="15%" x2="54%" y2="81%" id="id-74195"><stop stop-color="#8C4A35" offset="0%"></stop><stop stop-color="#965850" offset="100%"></stop></linearGradient><linearGradient x1="47%" y1="44%" x2="50%" y2="61%" id="id-74196"><stop stop-color="#3E0D06" offset="0%" stop-opacity="0.175"></stop><stop stop-color="#33100B" offset="100%"></stop></linearGradient><linearGradient x1="26%" y1="-7%" x2="50%" y2="96%" id="id-74197"><stop stop-color="#37373F" offset="0%"></stop><stop stop-color="#19191D" offset="100%"></stop></linearGradient><linearGradient x1="50%" y1="12%" x2="59%" y2="82%" id="id-74198"><stop stop-color="#252525" offset="0%"></stop><stop stop-color="#101010" offset="100%"></stop></linearGradient><linearGradient x1="25%" y1="-16%" x2="50%" y2="98%" id="id-74199"><stop stop-color="#37373F" offset="0%"></stop><stop stop-color="#19191D" offset="100%"></stop></linearGradient><linearGradient x1="75%" y1="39%" x2="50%" y2="93%" id="id-74200"><stop stop-color="#252525" offset="0%"></stop><stop stop-color="#000000" offset="100%"></stop></linearGradient></defs><g transform=" translate(334,549)" id="id-74201"><polygon points="561 754 565 871 565 881 537 893 533 897 535 901 532 909 543 910 597 864" fill="#451F04" id="id-74202"></polygon><polygon points="537 282 539 246 535 195 529 158 522 137 484 118 440 111 212 111 188 113 157 123 121 139 111 186 108 221 109 290" fill="url(#id-74155)" id="id-74202"></polygon><polygon points="467 393 474 506 503 589 537 672 556 728 561 754 546 794 552 851 551 861 552 874 556 885 567 882 568 866 570 860 570 843 571 834 576 843 576 859 579 864 573 874 571 884 544 903 541 916 582 901 597 864 607 852 600 821 597 716 589 695 582 655 569 523 544 425" fill="url(#id-74156)" id="id-74202"></polygon><polygon points="546 794 552 851 551 861 552 874 556 885 567 882 568 866 570 860 570 843 571 834 576 843 576 859 579 864 573 874 571 884 544 903 541 916 582 901 597 864 583 871 588 855 573 815 561 823" fill="url(#id-74157)" id="id-74202"></polygon><polygon points="552 851 551 861 552 874 556 887 567 884 568 866 570 860 558 860" fill="#552B28" id="id-74202"></polygon><polygon points="544 906 541 916 582 901 571 889" fill="#512926" id="id-74202"></polygon><polygon points="561 754 548 789 566 819 586 806" fill="#66342D" id="id-74202"></polygon><polygon points="486 648 477 599 453 529 440 504 437 490 439 460 449 402 456 340 188 343 198 411 202 493 162 596 153 638 266 693 319 721 386 693" fill="url(#id-74158)" id="id-74202"></polygon><polygon points="486 648 477 599 453 529 440 504 437 490 439 460 449 402 456 340 296 353 376 634" fill="#804025" id="id-74202"></polygon><g transform=" translate(188,0)" id="id-74211"><polygon points="274 114 253 111 232 100 201 76 188 58 184 1 93 1 88 64 25 111 1 113 103 123 121 135 134 138 149 121 161 117 187 119 225 114" fill="#83442E" id="id-74202"></polygon><polygon points="201 76 188 58 185 12 175 57 155 111 185 73" fill="#A06E95" id="id-74202"></polygon><polygon points="149 1 93 1 88 64 108 126 121 135 133 138" fill="#6E361F" id="id-74202"></polygon><polygon points="116 102 120 113 118 115 136 135 150 119 164 71 125 108" fill="#5A2F17" id="id-74215"></polygon><polygon points="121 127 133 138 145 124" fill="#431903" id="id-74216"></polygon><polygon points="136 98 164 71 175 57 186 17 134 51" fill="#68291C" id="id-74217"></polygon><polygon points="97 96 116 80 164 60 178 48 186 17 184 1 93 1 88 64 45 96" fill="#5E2519" opacity="0.654" id="id-74202"></polygon><polygon points="186 17 184 1 93 1 88 64 45 96 66 96" fill="url(#id-74159)" opacity="0.467" id="id-74202"></polygon><polygon points="123 58 176 23 186 17 184 1 93 1 91 22 108 55" fill="#1E0404" opacity="0.434" id="id-74202"></polygon></g><polygon points="41 844 33 856 36 895 64 915 84 911 83 903 71 898 72 892 63 884 52 849" fill="url(#id-74160)" id="id-74202"></polygon><polygon points="315 152 285 173 320 188 357 166" fill="#AA6D58" id="id-74222"></polygon><polygon points="327 150 370 130 342 127" fill="#7D452B" id="id-74223"></polygon><polygon points="301 142 303 148 243 131 240 119 276 119" fill="#7B442B" id="id-74224"></polygon><polygon points="159 149 206 123 269 123 303 144 297 118 188 113 157 123 121 139" fill="url(#id-74161)" id="id-74202"></polygon><polygon points="157 123 121 139 153 167 196 134" fill="#BE8CA3" id="id-74202"></polygon><polygon points="89 584 77 541 62 551 45 658 34 712 25 741 25 762 10 817 0 845 14 870 25 901 58 919 72 919 69 913 61 905 50 899 37 874 37 852 43 845 52 855 50 887 56 901 64 905 66 901 66 882 72 836 72 800 69 781 64 773 66 735 85 684 121 599 162 510" fill="url(#id-74162)" id="id-74202"></polygon><polygon points="89 584 77 541 62 551 45 658 48 715 121 599 162 510" fill="#7A432A" id="id-74202"></polygon><polygon points="55 843 45 827 37 848 17 852 8 836 5 851 0 845 14 870 25 901 58 919 72 919 69 913 61 905 50 899 37 874 37 852 43 845 52 855 50 887 56 901 64 905 66 901 66 882 72 836" fill="#743E32" id="id-74202"></polygon><polygon points="53 882 52 892 56 901 64 905 66 901 66 882 67 876" fill="#6B362F" id="id-74202"></polygon><polygon points="25 901 58 919 72 919 62 909 37 895" fill="#6B362F" id="id-74202"></polygon><polygon points="160 467 145 488 108 578 45 777 48 797 64 773 66 735 85 684 121 599 162 510" fill="#643317" id="id-74202"></polygon><polygon points="169 1211 277 1211 282 1183 281 1150 284 1127 286 1114 285 1063 293 972 306 866 311 792 309 768 323 771 337 768 333 817 333 855 339 924 346 1008 348 1113 351 1130 353 1176 361 1211 461 1211 458 1191 456 1170 460 1133 461 1082 505 905 516 839 518 826 512 762 503 706 486 648 482 629 386 690 318 718 266 690 184 629 153 637 132 731 119 781 118 813 123 862 131 916 166 1094 176 1179" fill="url(#id-74163)" id="id-74202"></polygon><polygon points="463 664 416 771 400 819 392 1125 359 1178 398 1204 441 1153 461 1082 505 905 516 839 518 826 515 789 490 714" fill="url(#id-74164)" id="id-74202"></polygon><polygon points="422 1160 395 1199 365 1171 401 1149 384 1120 391 983 411 786 416 771 448 697 454 1013 445 1116 407 1149" fill="url(#id-74165)" id="id-74235"></polygon><polygon points="121 139 111 186 108 221 109 290 96 438 89 464 69 510 89 585 162 510 167 425 162 241" fill="url(#id-74166)" id="id-74202"></polygon><polygon points="101 466 103 488 106 510 160 447 179 359 164 232 187 184 186 179 132 181 161 234 161 321 149 376 151 384 123 461 114 466" fill="url(#id-74167)" id="id-74237"></polygon><polygon points="96 438 89 464 69 510 51 621 101 520 96 476" fill="#82566B" id="id-74202"></polygon><polygon points="96 451 128 365 134 316 121 139 111 186 108 221 109 290 96 438" fill="#643317" id="id-74202"></polygon><polygon points="184 241 177 248 162 225 138 289 161 321 170 375 161 420 151 411 162 510 167 425 188 343" fill="url(#id-74168)" id="id-74202"></polygon><polygon points="284 1127 286 1114 285 1063 293 972 306 866 311 792 309 768 323 771 337 768 333 817 333 855 339 924 346 1008 375 889 416 771 463 664 490 714 515 790 512 762 503 706 486 648 477 599 471 583 420 650 316 720 201 654 244 742 264 824 275 994" fill="url(#id-74169)" id="id-74202"></polygon><polygon points="298 930 306 866 311 792 309 768 323 771 337 768 333 817 333 855 336 894 347 826 360 784 378 733 388 687 321 739 254 687 267 736 291 821" fill="url(#id-74170)" id="id-74202"></polygon><polygon points="348 1093 348 1113 351 1130 353 1176 361 1211 461 1211 439 1155 422 1136 403 1148 429 1168 400 1202 370 1170 382 1125" fill="url(#id-74171)" id="id-74202"></polygon><polygon points="10 855 8 836 5 851 0 845 14 870" fill="#6D342E" id="id-74202"></polygon><polygon points="520 500 516 520 544 629 474 500 490 399" fill="url(#id-74172)" id="id-74245"></polygon><polygon points="461 1211 458 1191 456 1170 460 1133 461 1082 439 1155 450 1211" fill="url(#id-74173)" id="id-74202"></polygon><polygon points="220 1149 259 1115 240 1063 232 973 266 819 240 713 201 661 158 650 201 784 183 925 170 1083" fill="url(#id-74174)" id="id-74247"></polygon><polygon points="169 1211 277 1211 282 1183 281 1150 284 1127 286 1114 286 1098 226 1211 207 1211 196 1121 173 1078 150 1014 166 1094 176 1179" fill="url(#id-74175)" id="id-74202"></polygon><polygon points="173 1078 183 924 150 1014" fill="#6B352C" id="id-74202"></polygon><polygon points="169 1211 239 1211 230 1196 204 1175 173 1150 176 1179" fill="#521E24" opacity="0.574" id="id-74202"></polygon><polygon points="221 1130 240 1097 224 1063 224 983 240 804 217 698 190 668 212 771 212 910 190 998 181 1094" fill="url(#id-74176)" id="id-74247"></polygon><polygon points="217 795 221 692 200 667 169 658 200 737" fill="#9C5F46" id="id-74252"></polygon><polygon points="511 476 492 419 481 447 484 356 521 274 533 417" fill="url(#id-74177)" id="id-74253"></polygon><polygon points="569 523 544 425 542 346 537 282 539 246 535 195 529 158 522 137 494 161 419 158 471 211 516 290 525 411 511 477 518 507 535 462 562 543" fill="url(#id-74178)" id="id-74202"></polygon><polygon points="486 389 533 243 501 167 464 207 451 247 463 265" fill="url(#id-74179)" id="id-74255"></polygon><polygon points="473 490 474 506 503 589 537 672 556 728 561 754 567 712 543 623" fill="#582A0F" id="id-74202"></polygon><polygon points="460 328 466 378 474 506 490 425 486 392 469 274 479 230 461 260 454 251" fill="url(#id-74180)" id="id-74202"></polygon><polygon points="440 504 437 490 439 460 449 402 456 340 458 328 325 282 188 343 198 411 202 493 162 596 157 621 161 633 169 599 173 570 204 506 202 458 217 402 286 365 321 352 353 360 422 402 431 493 437 520" fill="url(#id-74181)" id="id-74202"></polygon><polygon points="451 385 456 340 458 328 364 340 330 308 268 343 188 343 194 379 262 368 312 343 335 340 381 368" fill="url(#id-74182)" id="id-74202"></polygon><polygon points="286 328 306 310 330 274 453 252 464 205 421 156 317 204 219 165 210 154 188 180" fill="url(#id-74183)" id="id-74260"></polygon><path d=" M 422,195 L 405,190 C 377,190 357,198 343,214 C 329,230 322,250 323,276 C 324,301 331,320 345,333 C 365,351 384,356 405,356 C 425,356 444,347 450,342 C 454,339 457,335 460,328 C 463,323 466,317 467,308 C 469,294 466,276 457,254 L 422,195 Z" fill="url(#id-74184)" id="id-74261"></path><path d=" M 422,195 L 417,175 C 386,188 366,196 358,201 C 355,203 351,206 348,208 C 348,209 381,253 448,342 C 454,338 459,332 463,324 C 469,310 469,301 469,293 C 469,287 465,275 459,257 L 422,195 Z" fill="url(#id-74185)" id="id-74261"></path><path d=" M 375,226 C 338,253 343,276 343,284 C 343,291 353,319 371,335 C 379,342 422,349 447,331 C 468,316 472,294 458,265 C 427,221 400,208 375,226 Z" fill="url(#id-74186)" opacity="0.282" id="id-74261"></path><path d=" M 272,205 C 260,199 243,200 221,209 C 187,227 169,258 168,303 C 167,319 184,342 190,346 C 197,351 212,356 239,353 C 257,351 272,344 284,333 C 303,312 312,288 309,260 C 305,217 291,214 272,205 Z" fill="url(#id-74187)" id="id-74264"></path><path d=" M 340,285 C 333,252 328,240 326,248 C 324,254 323,263 323,276 C 324,301 331,320 345,333 C 365,351 382,356 404,356 C 425,356 444,347 450,342 C 456,337 465,325 468,308 C 472,290 465,276 463,268 C 461,263 460,259 458,255 L 442,290 L 399,304 L 366,300 L 340,285 Z" fill="url(#id-74188)" id="id-74261"></path><path d=" M 153,637 L 149,654 L 132,731 L 130,739 C 133,730 135,723 137,718 C 140,709 147,691 149,680 C 151,671 155,655 161,633 L 172,570 L 162,596 L 153,637 Z" fill="#7D362E" id="id-74202"></path><path d=" M 259,203 C 254,199 240,185 217,163 L 210,153 L 186,180 C 192,211 192,231 186,239 C 175,256 168,277 168,303 C 168,324 190,352 239,344 C 252,342 274,217 259,203 Z" fill="#A36150" id="id-74264"></path><polygon points="175 565 203 550 234 558 241 520 203 455 203 507" fill="#5E2D13" id="id-74268"></polygon><polygon points="241 442 241 518 229 556 233 629 266 657 316 707 381 659 395 629 364 504 350 504 301 380" fill="url(#id-74189)" id="id-74269"></polygon><polygon points="432 626 427 589 407 518 414 505 450 568 470 618" fill="url(#id-74190)" id="id-74270"></polygon><polygon points="302 376 254 442 254 546 302 590 364 568 364 504 350 504 376 454 345 400" fill="url(#id-74191)" opacity="0.599" id="id-74269"></polygon><polygon points="317 480 342 436 319 413 300 447" fill="#874A31" id="id-74272"></polygon><polygon points="304 541 318 507 329 541 314 549" fill="#774029" id="id-74273"></polygon><polygon points="306 543 316 578 329 541" fill="#935F42" id="id-74274"></polygon><path d=" M 178,333 C 179,334 180,336 182,338 C 184,342 186,343 189,346 C 190,347 197,351 206,353 C 215,354 226,355 239,353 C 257,351 272,344 284,333 C 293,322 299,313 302,305 C 304,301 307,293 309,277 C 310,274 310,268 309,260 L 228,277 L 207,295 L 178,333 Z" fill="url(#id-74192)" id="id-74264"></path><polygon points="306 543 308 550 324 556 329 541" fill="#9E7261" id="id-74274"></polygon><polygon points="308 543 318 525 323 542 314 548" fill="#3C1E03" id="id-74277"></polygon><polygon points="152 641 162 596 176 561 185 617 214 602 246 628 323 690 404 628 423 605 454 605 470 577 477 599 482 629 388 689 337 768 323 771 309 768 259 688 175 639 142 688" fill="url(#id-74193)" opacity="0.442" id="id-74278"></polygon><polygon points="490 154 522 137 484 118 412 123" fill="url(#id-74194)" id="id-74202"></polygon><polygon points="573 785 588 829 602 858 607 852 600 821 597 716 576 763" fill="#8E4D48" id="id-74202"></polygon><polygon points="574 722 589 695 582 655 533 542" fill="url(#id-74195)" id="id-74202"></polygon><polygon points="172 640 241 690 309 768 323 771 338 768 395 706 469 661 404 650 313 706 217 629" fill="url(#id-74196)" opacity="0.571" id="id-74282"></polygon><g transform=" translate(188,270)" id="id-74283"><polygon points="207 13 207 10 217 2 220 2 239 21 258 39 260 42 250 51 246 52 226 33" fill="url(#id-74197)" id="id-74284"></polygon><polygon points="208 40 218 50 222 50 240 33 257 13 257 9 247 0 244 1 230 19 209 36" fill="url(#id-74198)" id="id-74285"></polygon><polygon points="1 13 1 10 10 2 15 2 32 21 50 39 52 42 42 52 38 52 19 33" fill="url(#id-74199)" id="id-74284"></polygon><polygon points="0 43 10 53 14 53 33 35 50 15 50 11 40 3 36 4 19 23 1 39" fill="url(#id-74200)" id="id-74285"></polygon></g></g><defs><linearGradient x1="50%" y1="0%" x2="50%" y2="85%" id="id-74953"><stop stop-color="#874639" offset="0%"></stop><stop stop-color="#4D2322" offset="100%"></stop></linearGradient><radialGradient cx="50%" cy="55%" r="91%" id="id-74954" fx="50%" fy="55%" gradientTransform=" translate(0.500,0.550) scale(1,0.697) rotate(-90) scale(1,0.712) translate(-0.500,-0.550)"><stop stop-color="#A3513A" offset="0%"></stop><stop stop-color="#C87359" offset="39%"></stop><stop stop-color="#291013" offset="100%"></stop></radialGradient><linearGradient x1="11%" y1="60%" x2="57%" y2="52%" id="id-74955"><stop stop-color="#944831" offset="0%"></stop><stop stop-color="#B46750" offset="48%"></stop><stop stop-color="#D27D60" offset="100%"></stop></linearGradient><linearGradient x1="46%" y1="46%" x2="22%" y2="61%" id="id-74956"><stop stop-color="#A0543D" offset="0%"></stop><stop stop-color="#642D27" offset="100%"></stop></linearGradient><linearGradient x1="48%" y1="50%" x2="57%" y2="65%" id="id-74957"><stop stop-color="#A55643" offset="0%"></stop><stop stop-color="#66342F" offset="100%"></stop></linearGradient><linearGradient x1="100%" y1="38%" x2="17%" y2="50%" id="id-74958"><stop stop-color="#CB7B65" offset="0%"></stop><stop stop-color="#AE6452" offset="100%"></stop></linearGradient><linearGradient x1="47%" y1="27%" x2="48%" y2="50%" id="id-74959"><stop stop-color="#532D32" offset="0%"></stop><stop stop-color="#794968" offset="100%"></stop></linearGradient><radialGradient cx="47%" cy="70%" r="97%" id="id-74960" fx="47%" fy="70%" gradientTransform=" translate(0.467,0.700) scale(0.592,1) rotate(-93) translate(-0.467,-0.700)"><stop stop-color="#D17F6C" offset="0%"></stop><stop stop-color="#622923" offset="100%"></stop></radialGradient><linearGradient x1="42%" y1="43%" x2="61%" y2="33%" id="id-74961"><stop stop-color="#783A36" offset="0%"></stop><stop stop-color="#632F2B" offset="100%"></stop></linearGradient><radialGradient cx="45%" cy="79%" r="81%" id="id-74962" fx="45%" fy="79%" gradientTransform=" translate(0.447,0.790) scale(0.833,1) rotate(-90) scale(1,1) translate(-0.447,-0.790)"><stop stop-color="#F2A292" offset="0%"></stop><stop stop-color="#93483D" offset="100%"></stop></radialGradient><linearGradient x1="58%" y1="0%" x2="20%" y2="89%" id="id-74963"><stop stop-color="#D48072" offset="0%" stop-opacity="0"></stop><stop stop-color="#E49281" offset="46%"></stop><stop stop-color="#F2A38F" offset="100%" stop-opacity="0.432"></stop></linearGradient><linearGradient x1="52%" y1="22%" x2="50%" y2="16%" id="id-74964"><stop stop-color="#A06DAA" offset="0%"></stop><stop stop-color="#A471B2" offset="100%" stop-opacity="0.398"></stop></linearGradient><radialGradient cx="45%" cy="76%" r="54%" id="id-74965" fx="45%" fy="76%" gradientTransform=" translate(0.455,0.761) scale(0.673,1) scale(1,0.612) translate(-0.455,-0.761)"><stop stop-color="#BC6D5A" offset="0%"></stop><stop stop-color="#974C3A" offset="100%"></stop></radialGradient><linearGradient x1="50%" y1="0%" x2="50%" y2="73%" id="id-74966"><stop stop-color="#D88873" offset="0%"></stop><stop stop-color="#B4624D" offset="100%"></stop></linearGradient><linearGradient x1="25%" y1="52%" x2="67%" y2="55%" id="id-74967"><stop stop-color="#D37B62" offset="0%"></stop><stop stop-color="#843C39" offset="100%"></stop></linearGradient><linearGradient x1="71%" y1="52%" x2="18%" y2="50%" id="id-74968"><stop stop-color="#994D39" offset="0%"></stop><stop stop-color="#5E2C26" offset="100%"></stop></linearGradient><linearGradient x1="94%" y1="63%" x2="50%" y2="63%" id="id-74969"><stop stop-color="#6F3D40" offset="0%"></stop><stop stop-color="#AD594C" offset="100%"></stop></linearGradient><linearGradient x1="50%" y1="0%" x2="50%" y2="84%" id="id-74970"><stop stop-color="#0B071E" offset="0%"></stop><stop stop-color="#3C2F7B" offset="100%"></stop></linearGradient><linearGradient x1="75%" y1="46%" x2="36%" y2="49%" id="id-74971"><stop stop-color="#772F2B" offset="0%"></stop><stop stop-color="#B35849" offset="46%"></stop><stop stop-color="#693027" offset="100%"></stop></linearGradient><linearGradient x1="50%" y1="0%" x2="50%" y2="84%" id="id-74972"><stop stop-color="#0B071E" offset="0%"></stop><stop stop-color="#3C2F7B" offset="100%"></stop></linearGradient><linearGradient x1="28%" y1="50%" x2="72%" y2="55%" id="id-74973"><stop stop-color="#4C1A19" offset="0%"></stop><stop stop-color="#692928" offset="100%"></stop></linearGradient><radialGradient cx="50%" cy="28%" r="98%" id="id-74974" fx="50%" fy="28%" gradientTransform=" translate(0.500,0.278) scale(0.259,1) rotate(90) scale(1,1) translate(-0.500,-0.278)"><stop stop-color="#DF6C71" offset="0%"></stop><stop stop-color="#9F504C" offset="100%"></stop></radialGradient><linearGradient x1="13%" y1="50%" x2="90%" y2="50%" id="id-74975"><stop stop-color="#682929" offset="0%"></stop><stop stop-color="#B85454" offset="54%"></stop><stop stop-color="#833A38" offset="100%"></stop></linearGradient><radialGradient cx="48%" cy="82%" r="121%" id="id-74976" fx="48%" fy="82%" gradientTransform=" translate(0.483,0.816) scale(0.316,1) rotate(-95) translate(-0.483,-0.816)"><stop stop-color="#BA354F" offset="0%"></stop><stop stop-color="#592020" offset="100%"></stop></radialGradient><linearGradient x1="32%" y1="49%" x2="112%" y2="53%" id="id-74977"><stop stop-color="#F6B8CB" offset="0%"></stop><stop stop-color="#78272F" offset="100%"></stop></linearGradient><linearGradient x1="50%" y1="0%" x2="50%" y2="100%" id="id-74978"><stop stop-color="#693C4E" offset="0%"></stop><stop stop-color="#7A5771" offset="100%"></stop></linearGradient><linearGradient x1="50%" y1="0%" x2="50%" y2="100%" id="id-74979"><stop stop-color="#693C4E" offset="0%"></stop><stop stop-color="#7A5771" offset="100%"></stop></linearGradient><linearGradient x1="-8%" y1="57%" x2="25%" y2="53%" id="id-74980"><stop stop-color="#C06E59" offset="0%"></stop><stop stop-color="#4C2426" offset="100%"></stop></linearGradient><linearGradient x1="106%" y1="53%" x2="76%" y2="50%" id="id-74981"><stop stop-color="#C06F5A" offset="0%"></stop><stop stop-color="#401F21" offset="100%"></stop></linearGradient><linearGradient x1="81%" y1="45%" x2="17%" y2="63%" id="id-74982"><stop stop-color="#C86C4D" offset="0%"></stop><stop stop-color="#90452F" offset="100%"></stop></linearGradient><linearGradient x1="50%" y1="14%" x2="50%" y2="87%" id="id-74983"><stop stop-color="#D37E62" offset="0%"></stop><stop stop-color="#BE6540" offset="100%"></stop></linearGradient><linearGradient x1="50%" y1="29%" x2="50%" y2="100%" id="id-74984"><stop stop-color="#A4543F" offset="0%"></stop><stop stop-color="#602B28" offset="100%"></stop></linearGradient></defs><g transform=" translate(561,332)" id="id-74985"><g transform=" translate(172,115)" id="id-74986"><polygon points="14 1 18 0 25 8 27 21 24 41 14 66 0 68" fill="url(#id-74953)" id="id-74987"></polygon><polygon points="12 48 19 50 23 42 26 24 20 12 12 22" fill="#7D3F38" id="id-74988"></polygon><polygon points="11 21 17 10 20 5 24 7 26 24 20 36 18 31 20 16 9 29" fill="#632A21" id="id-74989"></polygon><polygon points="10 28 11 38 8 45 13 49 19 38 13 24" fill="#381717" id="id-74990"></polygon><polygon points="12 18 17 17 18 9" fill="#381717" id="id-74991"></polygon><polygon points="17 51 9 52 7 51 4 62 11 64 13 62" fill="#7C4337" id="id-74992"></polygon></g><g transform=" translate(0,113)" id="id-74993"><polygon points="13 0 5 0 0 13 4 36 13 63 25 67" fill="#9B4D38" id="id-74994"></polygon><polygon points="5 9 0 13 4 36 13 63 25 67 13 24" fill="#7D3F38" id="id-74994"></polygon><polygon points="18 46 14 47 7 32 11 26 4 9 6 5 16 20 17 29" fill="#632A21" id="id-74996"></polygon><polygon points="13 62 20 62 18 49 11 53" fill="#A0533D" id="id-74997"></polygon><polygon points="25 68 13 63 20 62 17 46 14 47 13 44 14 29 17 26 14 22 10 19 10 11 17 20" fill="#381717" id="id-74998"></polygon><polygon points="13 9 4 3 5 0 12 0" fill="#C26E60" id="id-74999"></polygon></g><path d=" M 29,199 C 21,165 17,151 15,130 C 4,44 33,0 103,0 C 180,0 191,63 186,119 C 183,157 173,191 170,202 C 169,206 167,213 164,217 C 155,229 135,242 119,249 C 112,251 89,251 79,249 C 65,240 47,234 36,218 C 33,213 32,209 29,199 Z" fill="url(#id-74954)" id="id-75000"></path><polygon points="122 166 151 182 171 155 113 120 77 124 20 148 51 190 66 182 86 155" fill="url(#id-74955)" id="id-75001"></polygon><polygon points="115 140 139 167 156 148 121 130 119 140" fill="#E49484" id="id-75002"></polygon><polygon points="169 156 153 147 164 132 174 151" fill="#D66650" id="id-75003"></polygon><path d=" M 29,199 C 24,176 20,162 18,149 C 18,148 33,157 51,182 C 54,187 57,195 59,208 C 110,231 130,244 119,249 C 112,251 89,251 79,249 C 65,240 47,234 36,218 C 33,213 32,209 29,199 Z" fill="url(#id-74956)" id="id-75000"></path><path d=" M 119,249 C 112,251 89,251 79,249 C 77,247 74,245 70,242 L 80,234 L 131,223 C 125,240 121,248 119,249 Z" fill="#79382D" id="id-75000"></path><path d=" M 135,207 L 136,195 L 171,151 L 164,131 L 171,125 C 178,143 181,152 181,154 C 177,177 172,195 170,202 C 169,206 167,213 164,217 C 155,229 135,242 119,249 L 135,207 Z" fill="url(#id-74957)" id="id-75000"></path><polygon points="179 117 171 125 177 143" fill="#90596C" id="id-75000"></polygon><polygon points="89 188 91 178 110 176 113 191 99 195" fill="url(#id-74958)" id="id-75008"></polygon><polygon points="87 187 87 181 78 175 104 155 123 177 113 180 106 181 101 185 95 182 91 181 89 187" fill="#56281B" opacity="0.297" id="id-75009"></polygon><path d=" M 119,249 C 112,251 89,251 79,249 C 65,240 47,234 36,218 L 79,247 L 119,249 Z" fill="#814C5E" id="id-75000"></path><polygon points="23 119 31 133 45 121 34 111" fill="#562722" id="id-75011"></polygon><polygon points="23 119 23 141 31 133" fill="#663632" id="id-75011"></polygon><path d=" M 18,149 C 17,143 15,136 15,130 C 14,120 13,111 13,103 L 21,70 L 32,111 L 23,119 L 23,145 L 35,163 L 18,149 Z" fill="url(#id-74959)" id="id-75000"></path><path d=" M 30,111 L 24,83 C 36,49 59,30 92,24 C 126,19 155,33 180,67 L 186,98 L 183,119 L 99,103 L 30,111 Z" fill="url(#id-74960)" id="id-75014"></path><path d=" M 180,58 L 186,98 L 183,119 L 171,104 L 164,65 L 154,82 C 147,53 146,38 149,36 C 160,43 170,50 180,58 Z" fill="url(#id-74961)" id="id-75014"></path><polygon points="56 102 62 49 99 32 135 45 149 102 99 109" fill="url(#id-74962)" id="id-75016"></polygon><polygon points="92 39 75 62 99 99 122 62 103 39" fill="url(#id-74963)" id="id-75017"></polygon><path d=" M 149,226 L 167,206 L 178,150 L 174,144 L 178,121 L 167,106 L 174,75 L 184,97 L 181,113 L 184,132 C 180,165 172,193 170,202 C 169,206 167,213 164,217 L 149,226 Z" fill="url(#id-74964)" id="id-75000"></path><polygon points="135 207 121 244 84 244 79 234 86 230" fill="url(#id-74965)" id="id-75000"></polygon><polygon points="70 104 102 91 136 107 109 132 81 126" fill="url(#id-74966)" id="id-75020"></polygon><polygon points="39 152 62 170 82 141 75 134" fill="#BF7666" id="id-75021"></polygon><polygon points="76 140 55 151 39 153 25 147 23 146 23 140 26 129 29 127" fill="#8B422F" id="id-75022"></polygon><polygon points="120 140 133 149 153 147 164 132" fill="url(#id-74967)" id="id-75023"></polygon><polygon points="39 135 33 139 43 147 59 148 76 140" fill="url(#id-74968)" id="id-75024"></polygon><polygon points="117 135 127 129 169 128 177 120 169 111 146 101 112 121 115 128" fill="url(#id-74969)" id="id-75025"></polygon><polygon points="124 126 118 119 146 104 167 113 158 123" fill="#914840" id="id-75026"></polygon><polygon points="131 124 144 107 161 107 147 121" fill="#BE6D65" id="id-75027"></polygon><path d=" M 120,136 L 120,132 C 127,124 134,119 142,118 C 149,118 157,121 165,128 L 120,136 Z" fill="#A04740" id="id-75028"></path><path d=" M 130,129 C 130,123 134,120 142,119 C 149,119 154,121 157,128 L 130,129 Z" fill="#C76355" id="id-75028"></path><polygon points="138 126 142 119 144 119 148 126" fill="#FEB99C" id="id-75030"></polygon><polygon points="125 138 148 138 158 132 148 126 137 127 124 134" fill="#F4EAFF" id="id-75031"></polygon><polygon points="127 137 124 134 120 137" fill="#D8706A" id="id-75032"></polygon><path d=" M 132,131 C 132,134 133,136 134,137 C 137,139 142,139 146,137 C 148,136 149,133 149,128 C 145,127 142,127 140,127 C 138,128 135,129 132,131 Z" fill="#2A0610" id="id-75033"></path><path d=" M 134,132 C 134,134 135,135 136,136 C 138,137 140,137 144,136 C 146,135 147,133 147,130 C 146,130 145,130 145,130 C 143,129 144,134 140,134 C 135,134 138,130 137,130 C 136,131 135,131 134,132 Z" fill="url(#id-74970)" id="id-75033"></path><polygon points="74 135 82 129 69 114 44 105 34 110 52 129" fill="#8E4539" id="id-75035"></polygon><polygon points="51 121 48 109 62 113 68 119 68 125" fill="#A85E55" id="id-75036"></polygon><path d=" M 32,127 C 39,121 46,118 55,120 C 64,121 71,126 76,135 L 32,127 Z" fill="url(#id-74971)" id="id-75037"></path><path d=" M 32,127 C 37,122 42,120 48,119 C 44,121 41,124 39,128 L 32,127 Z" fill="#824642" id="id-75037"></path><polygon points="47 128 54 120 61 129" fill="#F68A70" id="id-75039"></polygon><polygon points="49 137 76 137 73 133 62 128 42 128 38 131" fill="#DED5FF" id="id-75040"></polygon><polygon points="72 133 73 135 72 137 77 137 75 135" fill="#8E3D3C" id="id-75041"></polygon><path d=" M 49,129 C 51,136 54,139 60,138 C 65,137 68,135 68,130 L 58,128 L 49,129 Z" fill="#24060D" id="id-75042"></path><path d=" M 51,131 C 53,136 56,138 60,137 C 64,136 66,134 66,131 L 62,130 C 62,132 61,134 58,134 C 56,134 55,132 55,130 L 51,131 Z" fill="url(#id-74972)" id="id-75042"></path><polygon points="50 139 65 138 78 138 77 137 65 137 49 137" fill="#3E1B19" id="id-75044"></polygon><polygon points="141 131 153 135 158 131 148 126 135 128 126 133" fill="#000000" opacity="0.400" id="id-75045"></polygon><polygon points="45 134 51 132 68 132 73 134 68 129 48 128 40 132" fill="#000000" opacity="0.400" id="id-75046"></polygon><polygon points="77 137 76 137 75 135 67 130 49 129 43 132 49 138 53 139 48 139 41 135 38 135 28 126 41 126 56 125 67 128" fill="#2A0710" id="id-75047"></polygon><path d=" M 121,136 C 129,132 135,130 139,128 C 143,127 149,128 155,132 C 154,134 151,136 147,139 C 150,139 154,137 160,133 L 162,133 L 171,126 C 166,126 162,126 160,126 C 153,125 147,123 143,124 C 136,125 128,129 121,136 Z" fill="#340713" id="id-75048"></path><polygon points="135 133 138 133 138 130 136 130 136 132 135 132" fill="#F8E2F8" id="id-75049"></polygon><polygon points="53 131 53 133 55 133 55 132 57 132 56 130" fill="#C7ABCD" id="id-75050"></polygon><g transform=" translate(59,186)" id="id-75051"><polygon points="6 20 0 22 19 31" fill="#A4645E" id="id-75052"></polygon><polygon points="10 24 27 44 57 44 71 25" fill="url(#id-74973)" id="id-75053"></polygon><polygon points="7 22 41 28 73 23 76 20 69 17 11 16 5 20" fill="#2A0710" id="id-75054"></polygon><path d=" M 7,22 C 19,32 30,38 41,38 C 52,38 63,33 73,23 L 56,22 C 49,22 43,22 39,22 C 35,22 30,21 22,21 L 7,22 Z" fill="url(#id-74974)" id="id-75054"></path><path d=" M 7,22 C 19,32 30,38 41,38 C 52,38 63,33 73,23 L 66,23 C 58,31 49,35 41,35 C 33,35 25,30 15,21 L 7,22 Z" fill="url(#id-74975)" opacity="0.651" id="id-75054"></path><path d=" M 7,22 C 8,23 9,24 10,25 C 10,22 20,22 39,22 C 59,22 69,24 71,25 C 71,25 72,24 73,23 L 56,22 C 49,22 43,22 39,22 C 35,22 30,21 22,21 L 7,22 Z" fill="#632928" id="id-75054"></path><path d=" M 15,21 L 23,20 C 30,19 37,18 41,19 C 46,19 51,20 58,21 L 75,21 C 68,12 60,6 53,2 C 50,2 46,3 41,5 C 36,3 32,1 29,0 C 22,5 15,11 8,18 L 15,21 Z" fill="url(#id-74976)" id="id-75058"></path><path d=" M 21,9 C 25,6 28,5 31,5 C 33,5 37,7 43,11 L 53,9 L 60,9 C 63,10 60,8 53,4 C 50,4 47,5 42,7 C 37,4 32,3 29,2 C 22,6 19,9 19,9 L 21,9 Z" fill="url(#id-74977)" opacity="0.485" id="id-75058"></path><path d=" M 20,24 L 33,30 C 30,28 31,27 34,27 C 37,27 44,28 54,28 L 59,30 L 58,26 L 61,23 L 56,26 L 30,26 L 20,24 Z" fill="#EE88AA" id="id-75060"></path><path d=" M 31,20 C 31,20 31,21 31,21 C 31,21 34,21 40,21 C 40,20 40,20 40,19 C 38,19 35,19 31,20 Z" fill="url(#id-74978)" id="id-75061"></path><path d=" M 42,20 C 42,20 42,21 42,21 C 46,22 49,22 51,21 L 51,20 C 46,19 43,19 42,20 Z" fill="url(#id-74979)" id="id-75062"></path></g><g transform=" translate(22,95)" id="id-75063"><path d=" M 97,23 L 132,12 L 146,18 L 145,11 C 137,4 132,1 129,1 C 120,1 109,4 96,9 C 95,9 95,14 97,23 Z" fill="url(#id-74980)" id="id-75064"></path><polygon points="156 25 147 19 147 13" fill="#3E1F26" id="id-75064"></polygon><path d=" M 1,24 L 17,16 L 33,16 L 60,28 L 60,11 C 48,7 35,4 22,4 L 10,11 L 10,16 L 9,12 L 1,24 Z" fill="url(#id-74981)" id="id-75066"></path></g><polygon points="99 121 114 127 111 135 121 162 126 169 74 169 81 157 87 130" fill="url(#id-74982)" id="id-75067"></polygon><polygon points="72 118 83 132 96 146 96 132 82 110" fill="#954C3A" id="id-75068"></polygon><polygon points="72 118 83 132 82 110" fill="#9B584A" id="id-75068"></polygon><polygon points="96 132 96 153 84 165 81 161 77 167 78 174 124 174 124 169 121 162 110 161 104 153 104 132" fill="url(#id-74983)" id="id-75070"></polygon><polygon points="78 163 74 169 76 177 87 181 81 176 92 177 95 181 100 182 106 181 106 178 120 175 113 180 118 181 124 179 126 176 126 168 121 160 123 169 123 174 112 169 98 174 89 169 84 173 78 171" fill="url(#id-74984)" id="id-75071"></polygon><polygon points="93 127 100 140 106 127 100 123" fill="#EE9D8C" id="id-75072"></polygon><polygon points="93 167 99 170 105 167 99 161" fill="#DB9A77" id="id-75073"></polygon><polygon points="80 170 84 173 89 170 84 166" fill="#D27F62" id="id-75074"></polygon><polygon points="113 169 119 171 120 166 116 164" fill="#D88365" id="id-75075"></polygon><polygon points="115 159 117 152 121 160" fill="#A35547" id="id-75076"></polygon><polygon points="93 178 81 176 81 173 89 173" fill="#2E1111" id="id-75077"></polygon><polygon points="106 178 112 173 118 173 120 175 117 177" fill="#2E1111" id="id-75078"></polygon><polygon points="124 137 145 138 147 139 125 138 120 137" fill="#3F0A19" id="id-75079"></polygon><polygon points="124 140 137 141 147 140" fill="#FEAF93" id="id-75080"></polygon><polygon points="49 140 60 141 74 140" fill="#BB735F" id="id-75081"></polygon></g><defs><linearGradient x1="50%" y1="23%" x2="50%" y2="77%" id="id-76091"><stop stop-color="#CA028F" offset="0%"></stop><stop stop-color="#9A016B" offset="100%"></stop></linearGradient></defs><g transform=" translate(508,1082)" id="id-76092"><polygon points="1 33 7 32 58 108 89 162 103 187 129 231 133 236 166 232 248 90 284 35 293 35 289 22 284 7 233 66 194 112 220 130 169 179 162 232 136 232 120 179 70 124 67 100 4 22" fill="#280502" opacity="0.478" id="id-76093"></polygon><polygon points="8 2 12 2 11 6 11 9 54 63 74 86 102 112 102 116 194 114 196 108 234 69 263 35 283 9 285 3 288 15 289 23 248 83 220 130 201 167 166 232 164 235 147 240 133 236 119 210 96 171 70 124 43 80 4 23" fill="#ED017C" id="id-76093"></polygon><polygon points="246 55 263 35 283 9 285 3 288 15 289 23 253 75 253 66" fill="#C60091" id="id-76093"></polygon><polygon points="194 114 196 108 234 69 263 35 283 9 281 1 285 3 285 9 236 71" fill="#FC55C3" id="id-76093"></polygon><polygon points="196 176 166 232 164 235 147 240 133 236 119 210 105 186 154 193" fill="url(#id-76091)" id="id-76093"></polygon><polygon points="248 83 220 130 201 167 166 232 164 234 157 236 187 182" fill="#9A016B" id="id-76093"></polygon><polygon points="8 2 12 1 11 6 11 9 50 58 43 80 4 22" fill="#C80090" id="id-76093"></polygon><polygon points="11 9 54 63 74 86 102 112 97 109 74 88 48 60" fill="#FF60CD" id="id-76093"></polygon><path d=" M 108,122 C 116,145 129,156 147,156 C 164,156 178,145 188,122 L 108,122 Z" fill="#472737" id="id-76101"></path><path d=" M 114,122 C 120,140 131,149 146,149 C 161,149 173,141 182,123 L 114,122 Z" fill="#FFA615" id="id-76101"></path><path d=" M 114,122 C 116,127 118,131 119,133 C 121,137 173,137 177,133 C 178,131 180,128 182,123 L 114,122 Z" fill="#FFED2B" id="id-76101"></path><polygon points="102 114 195 112 194 119 171 130 147 132 129 130 108 123 103 119" fill="#010101" id="id-76104"></polygon><polygon points="174 129 171 130 147 132 129 130 124 128 147 120" fill="#473E56" id="id-76104"></polygon></g><defs></defs><g transform=" translate(434,1386)" id="id-40019"><path d=" M 66,373 C 71,347 73,333 73,333 C 68,296 66,277 66,277 C 54,218 48,189 48,189 C 80,178 155,176 189,179 C 187,204 186,217 186,217 C 187,252 187,270 187,270 C 184,288 183,298 183,298 L 184,346 L 177,373 C 103,373 66,373 66,373 Z" fill="#00081A" id="id-40020"></path><path d=" M 243,180 C 244,188 244,192 244,192 C 245,249 245,278 245,278 C 248,289 250,294 250,294 L 249,336 L 258,374 C 329,374 364,374 364,374 C 360,349 357,336 357,336 C 360,313 361,302 361,302 C 362,261 363,241 363,241 L 377,188 C 316,172 271,170 243,180 Z" fill="#00081A" id="id-40021"></path><path d=" M 289,174 L 297,344 L 293,373 L 333,373 C 323,301 325,262 344,181 C 329,177 310,175 289,174 Z" fill="#182137" id="id-40022"></path><path d=" M 115,373 C 109,354 106,315 107,258 C 103,206 101,180 101,180 C 119,179 135,178 150,178 C 145,225 141,271 141,312 C 127,313 127,340 131,373 C 120,373 115,373 115,373 Z" fill="#182137" id="id-40023"></path><path d=" M 17,0 C 15,3 14,4 14,4 C 5,11 0,14 0,14 C 13,79 19,112 19,112 C 27,116 31,118 31,118 L 16,14 C 16,9 16,4 17,0 Z" fill="#1B1F27" id="id-40024"></path><path d=" M 389,131 C 398,131 403,131 403,131 C 423,54 433,15 433,15 L 417,0 C 399,82 390,126 389,131 Z" fill="#1B1F27" id="id-40025"></path><path d=" M 400,83 C 320,77 265,77 236,83 C 238,104 238,115 238,115 C 283,109 335,108 393,112 C 398,93 400,83 400,83 Z" fill="#00081A" id="id-40026"></path><path d=" M 286,79 C 288,100 288,111 288,111 C 334,110 356,110 356,110 L 364,81 C 325,79 299,78 286,79 Z" fill="#182137" id="id-40027"></path><path d=" M 338,77 C 337,100 336,112 336,112 C 347,113 353,113 353,113 L 355,78 C 344,77 338,77 338,77 Z" fill="#454B5B" id="id-40028"></path><path d=" M 199,93 C 197,112 196,121 196,121 C 141,120 89,124 41,133 L 35,99 C 117,90 171,89 199,93 Z" fill="#00081A" id="id-40029"></path><path d=" M 86,126 C 82,105 80,95 80,95 C 114,92 141,91 161,91 L 160,122 C 130,122 105,123 86,126 Z" fill="#182137" id="id-40030"></path><path d=" M 87,89 C 90,116 92,130 92,130 C 104,129 110,128 110,128 L 105,89 C 93,89 87,89 87,89 Z" fill="#454B5B" id="id-40031"></path><path d=" M 88,96 L 105,94 L 105,89 L 87,89 C 87,94 88,96 88,96 Z" fill="#67718A" id="id-40032"></path><path d=" M 43,148 L 33,136 C 21,55 16,15 16,15 C 16,6 16,1 16,1 C 20,2 21,3 21,3 L 24,23 C 37,106 43,148 43,148 Z" fill="#101622" id="id-40033"></path><path d=" M 337,80 C 349,81 355,81 355,81 C 355,79 355,78 355,78 L 339,77 C 338,79 337,80 337,80 Z" fill="#68718B" id="id-40034"></path></g><defs><linearGradient x1="50%" y1="6%" x2="50%" y2="92%" id="id-40181"><stop stop-color="#FE2910" offset="0%"></stop><stop stop-color="#FE2910" offset="75%"></stop><stop stop-color="#C30026" offset="100%"></stop></linearGradient><linearGradient x1="0%" y1="48%" x2="100%" y2="48%" id="id-40182"><stop stop-color="#E89999" offset="0%"></stop><stop stop-color="#B1043D" offset="3%"></stop><stop stop-color="#DA4949" offset="11%"></stop><stop stop-color="#FBB9B9" offset="16%"></stop><stop stop-color="#980000" offset="24%"></stop><stop stop-color="#990000" offset="75%"></stop><stop stop-color="#F7BABA" offset="82%"></stop><stop stop-color="#C62F2F" offset="87%"></stop><stop stop-color="#AA0505" offset="95%"></stop><stop stop-color="#EFC0C0" offset="100%"></stop></linearGradient></defs><g transform=" translate(497,803)" id="id-40183"><polygon points="292 103 250 114 158 116 73 114 54 113 26 106 24 91 10 72 1 47 1 37 8 13 39 2 47 4 73 18 116 46 132 58 132 72 135 79 151 84 171 79 174 58 207 32 263 2 268 1 287 7 303 15 309 34 307 58 294 81" fill="url(#id-40181)" id="id-40184"></polygon><polygon points="198 115 158 116 105 115 142 92 151 84 165 90" fill="#C30026" opacity="0.783" id="id-40184"></polygon><polygon points="110 86 67 99 24 91 10 72 1 47 1 37 5 22 7 47 21 72 36 81 58 86" fill="#D00029" id="id-40184"></polygon><polygon points="67 99 24 91 10 72 1 47 1 37 5 22 7 47 21 72 29 84" fill="#E50444" id="id-40184"></polygon><polygon points="245 97 210 84 258 74 295 56 304 37 302 15 307 34 307 58 293 81" fill="#D00029" id="id-40184"></polygon><polygon points="295 56 301 37 303 15 309 34 307 58 294 81 272 88" fill="#DF1700" id="id-40184"></polygon><polygon points="206 41 217 56 249 64 288 42 297 16 269 4 214 33" fill="#FF4F45" id="id-40190"></polygon><polygon points="14 14 14 33 36 55 77 53 97 38 45 6" fill="#FF4F45" id="id-40191"></polygon><polygon points="128 79 123 58 85 32 49 10 25 11 5 21 8 13 39 2 47 4 73 18 116 46 132 58 132 63 173 63 172 71 132 71 132 72 135 79 151 84 171 79 174 58 207 32 263 2 268 1 287 7 303 15 305 21 280 10 265 9 212 36 180 59 175 83 153 90 133 84" fill="url(#id-40182)" id="id-40184"></polygon></g><defs><linearGradient x1="0%" y1="50%" x2="100%" y2="50%" id="id-53381"><stop stop-color="#060E1D" offset="0%"></stop><stop stop-color="#0F1625" offset="52%"></stop><stop stop-color="#181E2E" offset="100%"></stop></linearGradient><linearGradient x1="0%" y1="50%" x2="100%" y2="50%" id="id-53382"><stop stop-color="#060E1D" offset="0%"></stop><stop stop-color="#0F1625" offset="52%"></stop><stop stop-color="#181E2E" offset="100%"></stop></linearGradient><linearGradient x1="0%" y1="50%" x2="100%" y2="50%" id="id-53383"><stop stop-color="#181E2E" offset="0%"></stop><stop stop-color="#0F1625" offset="48%"></stop><stop stop-color="#060E1D" offset="100%"></stop></linearGradient></defs><g transform=" translate(429,1018)" id="id-53384"><path d=" M 221,374 L 213,445 L 142,434 L 141,437 L 116,434 L 117,430 C 116,430 75,425 75,425 L 75,431 L 62,451 L 65,509 L 38,508 L 17,498 L 5,376 L 2,375 L 2,343 C 2,343 3,341 3,341 L 4,341 L 4,314 L 13,311 L 12,238 L 43,233 L 43,285 L 50,294 L 191,125 L 195,112 L 194,64 L 193,36 L 261,36 L 261,42 L 260,66 L 259,117 L 263,129 L 401,295 L 406,230 L 427,235 L 427,296 L 434,304 L 432,309 L 446,315 L 432,498 L 413,508 L 385,508 L 388,451 L 374,431 L 375,424 L 333,430 L 333,434 L 308,438 L 308,434 L 237,445 L 229,374 L 302,367 L 302,363 L 328,361 L 328,364 L 375,358 L 376,328 L 375,327 L 375,322 L 231,164 L 219,163 L 74,323 L 75,327 L 74,328 L 74,358 L 122,364 L 122,361 L 148,364 L 148,367 C 148,367 201,374 221,374 Z" fill="#212838" id="id-53385"></path><polygon points="122 361 116 434 141 437 148 364" fill="#5E6D84" id="id-53385"></polygon><path d=" M 441,313 L 432,309 L 434,304 C 421,304 402,304 402,304 C 401,303 379,310 379,310 L 435,321 C 435,321 438,317 441,313 Z" fill="#5E6D84" id="id-53385"></path><polygon points="397 329 427 328 425 335 421 333 396 333" fill="#5E6D84" id="id-53385"></polygon><polygon points="54 329 23 328 25 335 29 333 54 333" fill="#5E6D84" id="id-53385"></polygon><polygon points="419 474 422 488 410 485" fill="#5E6D84" id="id-53385"></polygon><polygon points="31 474 28 488 40 485" fill="#5E6D84" id="id-53385"></polygon><polygon points="302 363 308 438 333 434 328 361" fill="#5E6D84" id="id-53385"></polygon><polygon points="9 313 16 320 70 310 42 302" fill="#5E6D84" id="id-53385"></polygon><polygon points="74 426 72 365 73 333 74 358 121 364 116 430" fill="#171D35" id="id-53385"></polygon><polygon points="397 329 427 328 423 397 409 408 394 398" fill="#3A465E" id="id-53385"></polygon><polygon points="54 329 23 328 27 397 41 408 56 398" fill="#3A465E" id="id-53385"></polygon><path d=" M 343,426 L 384,417 L 382,362 L 341,366 C 341,366 332,367 332,367 C 332,368 343,426 343,426 Z" fill="#1A324F" id="id-53385"></path><polygon points="73 365 73 417 108 424 114 370" fill="#1A324F" id="id-53385"></polygon><path d=" M 352,296 L 375,322 L 380,301 L 401,299 L 401,295 L 383,274 C 376,279 356,293 352,296 Z" fill="#0C1A2D" id="id-53385"></path><polygon points="69 302 74 323 94 301 64 277 50 294 50 299" fill="#0C1A2D" id="id-53385"></polygon><polygon points="231 164 265 126 262 120 188 120 219 163 219 163 221 165 226 165 229 166 231 164" fill="#475772" id="id-53385"></polygon><polygon points="229 166 265 126 264 125 226 165" fill="#707D8E" id="id-53385"></polygon><polygon points="262 120 261 117 193 112 188 120" fill="#9CB3DC" id="id-53385"></polygon><polygon points="380 302 385 276 350 234 324 266 359 303" fill="#0A1221" id="id-53385"></polygon><polygon points="69 302 93 302 126 266 98 236 64 277" fill="#0A1221" id="id-53385"></polygon><path d=" M 379,438 L 380,345 L 375,322 L 375,327 L 376,328 L 376,358 L 377,365 C 377,379 375,424 375,424 L 374,431 L 379,438 Z" fill="#0B1221" id="id-53385"></path><path d=" M 70,438 L 70,345 L 74,322 L 74,327 L 73,328 L 74,358 L 72,365 C 72,379 74,424 74,424 L 75,431 L 70,438 Z" fill="#0B1221" id="id-53385"></path><polygon points="377 417 342 423 340 409 335 410 333 430 375 424" fill="#0E192B" id="id-53385"></polygon><polygon points="336 369 377 365 376 333 376 358 328 364 333 430 340 409" fill="#171D35" id="id-53385"></polygon><polygon points="379 310 393 338 387 447 378 431" fill="#111B30" id="id-53385"></polygon><polygon points="70 310 56 338 62 447 71 431" fill="#111B30" id="id-53385"></polygon><polygon points="396 347 426 350 427 338 396 337" fill="#111929" id="id-53385"></polygon><polygon points="408 377 417 391 407 399 400 390" fill="#111929" id="id-53385"></polygon><polygon points="54 347 24 350 24 338 54 337" fill="#111929" id="id-53385"></polygon><polygon points="42 377 33 391 43 399 51 390" fill="#111929" id="id-53385"></polygon><path d=" M 426,403 L 419,474 C 419,474 410,485 410,485 C 409,485 389,493 389,493 L 394,402 L 408,418 L 426,403 Z" fill="#273851" id="id-53385"></path><path d=" M 25,403 L 31,474 C 31,474 40,485 41,485 C 41,485 61,493 61,493 L 56,402 L 42,418 L 25,403 Z" fill="#273851" id="id-53385"></path><polygon points="424 480 432 498 446 315 434 330" fill="#171D28" id="id-53385"></polygon><path d=" M 26,480 L 16,498 L 4,376 L 1,375 L 1,343 C 1,343 2,341 2,341 L 3,341 L 4,315 L 16,330 L 26,480 Z" fill="#171D28" id="id-53385"></path><polygon points="448 341 433 342 431 377 449 375 449 343" fill="#AD0053" id="id-53385"></polygon><polygon points="2 341 17 342 19 377 1 375 1 343" fill="#AD0053" id="id-53385"></polygon><polygon points="434 343 434 345 448 344 447 342" fill="#EE4C56" id="id-53385"></polygon><polygon points="16 343 16 345 2 344 3 342" fill="#EE4C56" id="id-53385"></polygon><path d=" M 286,437 C 283,421 280,389 277,370 L 246,373 L 257,442 L 286,437 Z" fill="#161F33" id="id-53385"></path><path d=" M 207,374 C 197,373 185,372 174,370 C 172,387 168,421 166,438 L 195,442 L 207,374 Z" fill="#161F33" id="id-53385"></path><polygon points="258 442 251 372 230 374 238 445" fill="#060E1D" id="id-53385"></polygon><path d=" M 221,374 C 216,374 210,374 204,373 L 194,442 L 213,445 L 221,374 Z" fill="#060E1D" id="id-53385"></path><polygon points="328 364 328 364 328 361 302 363 302 367" fill="#B3CBF6" id="id-53385"></polygon><polygon points="148 366 148 364 122 361 122 364 148 367" fill="#B3CBF6" id="id-53385"></polygon><polygon points="308 434 308 434 308 438 333 434 333 430" fill="#293345" id="id-53385"></polygon><polygon points="141 437 142 433 117 428 117 429 117 430 117 430 116 434" fill="#293345" id="id-53385"></polygon><path d=" M 446,315 L 441,313 L 431,328 L 420,479 L 422,488 C 422,488 425,492 431,499 L 432,498 L 432,495 L 424,480 L 434,330 L 446,315 Z" fill="#0C1323" id="id-53385"></path><path d=" M 9,313 L 4,314 L 4,315 L 16,330 L 26,480 L 17,497 L 17,498 L 19,499 C 22,496 28,488 28,488 L 30,479 L 19,328 L 9,313 Z" fill="#0C1323" id="id-53385"></path><polygon points="435 311 432 309 434 303 427 296 427 235 406 230 401 295 399 309 428 316" fill="#08101F" id="id-53385"></polygon><path d=" M 48,310 L 50,309 L 50,299 L 50,294 L 50,294 L 43,285 L 43,233 L 12,238 L 13,310 L 13,310 C 13,310 20,316 20,316 C 20,316 48,310 48,310 Z" fill="#08101F" id="id-53385"></path><polygon points="302 367 302 367 302 367 230 374 238 445 308 434 308 436 309 435" fill="url(#id-53381)" id="id-53385"></polygon><polygon points="343 0 262 14 187 14 105 0 98 43 187 57 266 57 352 43" fill="url(#id-53382)" id="id-53385"></polygon><path d=" M 221,374 C 201,374 148,367 148,367 L 142,434 L 213,445 L 221,374 Z" fill="url(#id-53383)" id="id-53385"></path></g><defs><linearGradient x1="47%" y1="49%" x2="48%" y2="65%" id="id-62518"><stop stop-color="#CACEDF" offset="0%"></stop><stop stop-color="#C0C4D5" offset="100%"></stop></linearGradient><linearGradient x1="100%" y1="50%" x2="9%" y2="50%" id="id-62519"><stop stop-color="#FFFFFF" offset="0%" stop-opacity="0"></stop><stop stop-color="#FFFFFF" offset="30%" stop-opacity="0.773"></stop><stop stop-color="#FFFFFF" offset="52%"></stop><stop stop-color="#FFFFFF" offset="75%" stop-opacity="0.543"></stop><stop stop-color="#FFFFFF" offset="100%" stop-opacity="0"></stop></linearGradient><linearGradient x1="39%" y1="50%" x2="14%" y2="50%" id="id-62520"><stop stop-color="#ABAFC3" offset="0%" stop-opacity="0"></stop><stop stop-color="#A9ADC1" offset="100%"></stop></linearGradient><linearGradient x1="50%" y1="0%" x2="50%" y2="100%" id="id-62521"><stop stop-color="#E6E7EE" offset="0%"></stop><stop stop-color="#B7BCCF" offset="100%"></stop></linearGradient></defs><g transform=" translate(557,329)" id="id-62522"><path d=" M 41,229 C 55,239 67,247 77,254 C 92,260 110,260 127,257 C 142,250 158,237 173,217 L 179,196 L 189,188 L 205,151 L 205,122 L 198,112 L 195,98 L 194,75 L 186,52 C 176,33 165,20 153,13 C 134,2 116,0 99,0 C 83,2 67,7 50,16 C 18,39 8,69 11,102 C 4,110 0,120 1,130 C 2,151 5,163 14,182 C 16,186 19,190 27,194 C 32,212 39,219 41,229 Z" fill="url(#id-62518)" id="id-62523"></path><path d=" M 71,204 C 93,195 104,191 104,191 C 123,203 132,209 132,209 C 151,214 160,217 160,217 C 171,175 176,154 176,154 C 164,154 159,154 159,154 C 165,88 168,55 168,55 C 147,31 136,19 136,19 C 145,21 150,22 150,22 L 142,11 C 133,7 123,4 112,3 C 82,11 64,28 44,44 C 39,99 41,152 47,203 C 63,204 71,204 71,204 Z" fill="url(#id-62519)" id="id-62524"></path><path d=" M 14,150 C 26,178 32,192 32,192 C 42,199 47,203 47,203 C 40,152 40,99 44,44 C 65,25 88,8 112,3 L 99,0 C 80,2 65,8 50,16 C 20,35 9,65 11,102 C 10,119 11,135 14,150 Z" fill="url(#id-62520)" id="id-62525"></path><path d=" M 91,192 C 98,197 101,200 101,200 L 113,192 C 99,192 91,192 91,192 Z" fill="#A3ABC2" id="id-62526"></path><path d=" M 193,179 C 182,171 177,166 177,166 C 188,150 193,142 193,142 C 194,105 189,76 183,48 L 187,52 L 194,75 L 195,106 L 205,122 L 205,151 C 197,170 193,179 193,179 Z" fill="url(#id-62521)" id="id-62527"></path><path d=" M 82,244 C 77,226 86,212 62,207 C 50,172 49,179 20,167 C 22,165 26,164 33,162 C 35,157 34,141 35,140 C 37,138 37,137 37,137 C 29,126 25,120 25,120 C 29,112 31,108 31,108 C 50,112 60,114 60,114 C 56,110 54,107 54,107 C 44,102 38,100 38,100 C 50,92 58,85 63,77 C 71,73 75,72 75,72 C 71,86 68,93 68,93 C 74,98 76,100 76,100 C 85,96 90,94 90,94 C 93,97 97,99 100,100 C 107,97 111,95 111,95 C 119,98 123,100 123,100 C 129,95 132,93 132,93 C 127,80 124,73 125,72 C 133,75 137,76 137,76 C 145,87 153,94 162,100 C 151,105 146,107 146,107 C 142,112 140,115 140,115 C 160,110 169,108 169,108 C 173,116 176,120 176,120 C 167,130 163,135 163,135 C 165,138 165,140 165,140 C 167,154 168,162 168,162 C 176,165 181,166 181,166 C 161,173 151,178 149,180 C 145,184 141,193 138,206 C 128,210 123,213 122,216 C 121,227 119,236 118,243 C 114,229 112,222 112,222 C 117,219 120,216 120,214 C 116,204 114,199 114,199 C 123,193 128,190 128,190 C 123,181 120,177 120,177 C 129,174 133,172 133,172 C 132,170 131,169 131,169 C 133,162 134,159 134,159 C 144,162 149,164 149,164 C 148,156 148,151 148,151 C 143,152 140,152 140,152 C 132,151 128,150 128,150 C 127,152 126,153 126,153 C 113,158 107,160 107,160 C 110,153 112,149 112,149 C 108,142 106,139 106,139 C 109,133 110,130 110,130 C 104,127 100,125 100,125 C 93,129 90,131 90,131 C 93,136 94,139 94,139 C 90,146 88,149 88,149 C 91,156 93,160 93,160 C 80,155 74,152 74,152 C 73,151 72,150 72,150 C 59,151 53,152 53,152 C 52,160 51,164 51,164 C 61,159 66,157 66,157 C 68,164 69,168 69,168 C 67,171 66,172 66,172 C 75,175 80,177 80,177 C 75,185 72,190 72,190 C 76,193 81,196 87,198 C 81,210 80,216 82,218 L 89,221 C 85,231 83,239 82,244 Z" fill="#010101" id="id-62528"></path><path d=" M 145,79 C 153,86 157,90 157,90 C 156,85 160,83 168,83 C 166,79 165,78 165,78 C 163,79 161,79 158,82 L 155,69 C 150,75 147,79 145,79 Z" fill="#363D4F" id="id-62529"></path><path d=" M 132,93 L 152,93 C 145,88 141,82 137,76 L 125,72 C 126,77 129,84 132,93 Z" fill="#30384A" id="id-62530"></path><path d=" M 76,100 L 49,105 L 38,100 C 49,94 57,86 63,76 L 75,72 L 68,93 C 74,98 76,100 76,100 Z" fill="#2C3446" id="id-62531"></path><path d=" M 44,90 C 44,86 41,84 33,82 C 34,80 34,79 34,79 C 38,79 40,80 41,81 C 44,73 45,68 45,68 L 55,80 C 48,86 44,90 44,90 Z" fill="#343C4E" id="id-62532"></path><path d=" M 94,140 L 82,149 L 37,136 L 35,140 C 34,148 35,154 33,162 C 28,163 26,164 26,164 C 28,168 28,170 28,170 C 35,172 38,173 38,173 L 67,171 C 68,169 69,168 69,168 L 66,157 L 51,164 L 53,152 L 72,150 C 74,151 74,152 74,152 C 86,157 92,159 92,159 L 89,149 C 92,143 94,140 94,140 Z" fill="#2C3344" id="id-62533"></path><path d=" M 110,153 L 107,160 L 126,153 L 128,151 L 140,152 L 148,151 L 149,164 L 134,159 L 131,169 C 133,172 134,173 134,173 L 170,163 L 167,161 L 165,140 C 164,137 164,135 164,135 C 158,135 153,133 152,128 C 140,130 133,131 133,131 L 131,136 C 126,141 122,145 119,148 C 116,150 113,152 110,153 Z" fill="#363E50" id="id-62534"></path><path d=" M 123,153 C 122,150 122,147 129,144 C 139,140 140,143 135,151 L 128,150 L 126,153 C 124,153 123,153 123,153 Z" fill="#040404" id="id-62535"></path><path d=" M 170,127 C 167,123 166,122 166,122 L 172,124 C 170,126 170,127 170,127 Z" fill="#32394A" id="id-62536"></path><path d=" M 156,185 C 162,182 164,181 164,181 C 166,192 166,197 166,197 C 163,200 157,201 158,210 C 147,220 141,225 141,225 C 141,220 141,218 141,218 C 147,207 150,201 150,201 C 152,201 153,201 153,201 C 155,198 156,195 159,193 C 157,188 156,185 156,185 Z" fill="#020203" id="id-62537"></path></g><defs><linearGradient x1="50%" y1="5%" x2="50%" y2="100%" id="id-64584"><stop stop-color="#312D33" offset="0%"></stop><stop stop-color="#100E11" offset="18%"></stop><stop stop-color="#232025" offset="37%"></stop><stop stop-color="#000000" offset="100%"></stop></linearGradient><linearGradient x1="50%" y1="2094%" x2="100%" y2="2094%" id="id-64585"><stop stop-color="#464148" offset="0%"></stop><stop stop-color="#5D5560" offset="100%"></stop></linearGradient><linearGradient x1="50%" y1="2094%" x2="100%" y2="2094%" id="id-64586"><stop stop-color="#403B43" offset="0%"></stop><stop stop-color="#5D5560" offset="100%"></stop></linearGradient><linearGradient x1="50%" y1="2094%" x2="100%" y2="2094%" id="id-64587"><stop stop-color="#2E2A30" offset="0%"></stop><stop stop-color="#5D5560" offset="100%"></stop></linearGradient><linearGradient x1="50%" y1="2094%" x2="100%" y2="2094%" id="id-64588"><stop stop-color="#2E2A30" offset="0%"></stop><stop stop-color="#4C444F" offset="100%"></stop></linearGradient><linearGradient x1="50%" y1="2094%" x2="100%" y2="2094%" id="id-64589"><stop stop-color="#2E2A30" offset="0%"></stop><stop stop-color="#453D48" offset="100%"></stop></linearGradient><linearGradient x1="50%" y1="2094%" x2="100%" y2="2094%" id="id-64590"><stop stop-color="#2E2A30" offset="0%"></stop><stop stop-color="#5D5560" offset="100%"></stop></linearGradient><linearGradient x1="50%" y1="2094%" x2="100%" y2="2094%" id="id-64591"><stop stop-color="#2E2A30" offset="0%"></stop><stop stop-color="#5D5560" offset="100%"></stop></linearGradient><linearGradient x1="50%" y1="2094%" x2="100%" y2="2094%" id="id-64592"><stop stop-color="#2E2A30" offset="0%"></stop><stop stop-color="#5D5560" offset="100%"></stop></linearGradient><linearGradient x1="50%" y1="2094%" x2="100%" y2="2094%" id="id-64593"><stop stop-color="#2E2A30" offset="0%"></stop><stop stop-color="#5D5560" offset="100%"></stop></linearGradient><linearGradient x1="50%" y1="2094%" x2="100%" y2="2094%" id="id-64594"><stop stop-color="#2E2A30" offset="0%"></stop><stop stop-color="#5D5560" offset="100%"></stop></linearGradient><linearGradient x1="50%" y1="2094%" x2="100%" y2="2094%" id="id-64595"><stop stop-color="#2E2A30" offset="0%"></stop><stop stop-color="#5D5560" offset="100%"></stop></linearGradient><linearGradient x1="50%" y1="2094%" x2="100%" y2="2094%" id="id-64596"><stop stop-color="#2E2A30" offset="0%"></stop><stop stop-color="#5D5560" offset="100%"></stop></linearGradient><linearGradient x1="50%" y1="2094%" x2="100%" y2="2094%" id="id-64597"><stop stop-color="#2E2A30" offset="0%"></stop><stop stop-color="#5D5560" offset="100%"></stop></linearGradient><linearGradient x1="50%" y1="2094%" x2="100%" y2="2094%" id="id-64598"><stop stop-color="#2E2A30" offset="0%"></stop><stop stop-color="#5D5560" offset="100%"></stop></linearGradient><linearGradient x1="50%" y1="2094%" x2="100%" y2="2094%" id="id-64599"><stop stop-color="#2E2A30" offset="0%"></stop><stop stop-color="#5D5560" offset="100%"></stop></linearGradient><linearGradient x1="50%" y1="2094%" x2="100%" y2="2094%" id="id-64600"><stop stop-color="#2E2A30" offset="0%"></stop><stop stop-color="#5D5560" offset="100%"></stop></linearGradient><linearGradient x1="50%" y1="2094%" x2="100%" y2="2094%" id="id-64601"><stop stop-color="#2E2A30" offset="0%"></stop><stop stop-color="#5D5560" offset="100%"></stop></linearGradient><linearGradient x1="50%" y1="2094%" x2="100%" y2="2094%" id="id-64602"><stop stop-color="#2E2A30" offset="0%"></stop><stop stop-color="#5D5560" offset="100%"></stop></linearGradient><linearGradient x1="50%" y1="2094%" x2="100%" y2="2094%" id="id-64603"><stop stop-color="#2E2A30" offset="0%"></stop><stop stop-color="#5D5560" offset="100%"></stop></linearGradient><linearGradient x1="50%" y1="2094%" x2="100%" y2="2094%" id="id-64604"><stop stop-color="#2E2A30" offset="0%"></stop><stop stop-color="#5D5560" offset="100%"></stop></linearGradient><linearGradient x1="50%" y1="2094%" x2="100%" y2="2094%" id="id-64605"><stop stop-color="#2E2A30" offset="0%"></stop><stop stop-color="#5D5560" offset="100%"></stop></linearGradient><linearGradient x1="50%" y1="2094%" x2="100%" y2="2094%" id="id-64606"><stop stop-color="#2E2A30" offset="0%"></stop><stop stop-color="#5D5560" offset="100%"></stop></linearGradient><linearGradient x1="50%" y1="2094%" x2="100%" y2="2094%" id="id-64607"><stop stop-color="#2E2A30" offset="0%"></stop><stop stop-color="#5D5560" offset="100%"></stop></linearGradient><linearGradient x1="50%" y1="2094%" x2="100%" y2="2094%" id="id-64608"><stop stop-color="#2E2A30" offset="0%"></stop><stop stop-color="#5D5560" offset="100%"></stop></linearGradient><linearGradient x1="50%" y1="2094%" x2="100%" y2="2094%" id="id-64609"><stop stop-color="#2E2A30" offset="0%"></stop><stop stop-color="#5D5560" offset="100%"></stop></linearGradient><linearGradient x1="50%" y1="20%" x2="59%" y2="60%" id="id-64610"><stop stop-color="#000000" offset="0%"></stop><stop stop-color="#433232" offset="100%"></stop></linearGradient></defs><g transform=" translate(568,325)" id="id-64611"><polygon points="130 198 120 211 124 225 114 238 124 262 114 276 122 292 117 311 130 332 118 345 132 363 118 388 132 417 118 445 132 455 122 475 139 490 132 504 145 512 140 526 148 538 143 550 147 562 137 573 140 590 129 605 139 619 129 633 145 648 139 661 158 691 169 661 161 648 175 635 163 619 169 605 160 594 174 580 174 565 186 549 182 534 195 518 186 507 194 494 186 478 191 466 177 455 191 439 177 422 186 401 174 381 180 351 168 332 177 302 171 287 173 271" transform=" translate(155,444) scale(-1,1) translate(-155,-444)" fill="url(#id-64584)" id="id-64612"></polygon><polygon points="159 212 162 225 184 230 176 213" transform=" translate(172,221) scale(-1,1) translate(-172,-221)" fill="url(#id-64585)" id="id-64613"></polygon><polygon points="152 252 168 270 174 260 187 260 187 236 168 245 157 243" transform=" translate(170,253) scale(-1,1) translate(-170,-253)" fill="url(#id-64586)" id="id-64614"></polygon><polygon points="176 277 185 285 180 296 163 301 143 294 152 277 164 283" transform=" translate(164,289) scale(-1,1) translate(-164,-289)" fill="url(#id-64587)" id="id-64615"></polygon><polygon points="160 311 166 322 182 329 185 309" transform=" translate(172,319) scale(-1,1) translate(-172,-319)" fill="url(#id-64588)" id="id-64616"></polygon><polygon points="142 304 144 322 154 325 155 309" fill="url(#id-64589)" id="id-64616"></polygon><polygon points="141 336 136 346 156 354 169 346 179 349 164 334" transform=" translate(157,344) scale(-1,1) translate(-157,-344)" fill="url(#id-64590)" id="id-64618"></polygon><polygon points="164 367 155 378 179 385 176 367" transform=" translate(167,376) scale(-1,1) translate(-167,-376)" fill="url(#id-64591)" id="id-64619"></polygon><polygon points="151 354 152 371 141 385 139 363" transform=" translate(146,370) scale(-1,1) translate(-146,-370)" fill="url(#id-64592)" id="id-64619"></polygon><polygon points="147 416 137 428 161 435 174 431 174 412 159 423" transform=" translate(156,424) scale(-1,1) translate(-156,-424)" fill="url(#id-64593)" id="id-64621"></polygon><polygon points="128 449 152 459 176 440 163 438" transform=" translate(152,449) scale(-1,1) translate(-152,-449)" fill="url(#id-64594)" id="id-64622"></polygon><polygon points="123 476 153 488 178 468 163 461 150 472 131 466" transform=" translate(150,475) scale(-1,1) translate(-150,-475)" fill="url(#id-64595)" id="id-64623"></polygon><polygon points="118 502 145 511 152 504 166 494 156 485 138 496" transform=" translate(142,498) scale(-1,1) translate(-142,-498)" fill="url(#id-64596)" id="id-64624"></polygon><polygon points="161 388 154 398 186 412 178 393" transform=" translate(170,400) scale(-1,1) translate(-170,-400)" fill="url(#id-64597)" id="id-64625"></polygon><polygon points="144 516 166 527 162 533 136 527" transform=" translate(151,524) scale(-1,1) translate(-151,-524)" fill="url(#id-64598)" id="id-64626"></polygon><polygon points="118 520 129 527 138 517 125 508" transform=" translate(128,518) scale(-1,1) translate(-128,-518)" fill="url(#id-64599)" id="id-64627"></polygon><polygon points="148 535 126 540 130 547 153 549" transform=" translate(140,542) scale(-1,1) translate(-140,-542)" fill="url(#id-64600)" id="id-64628"></polygon><polygon points="136 544 147 553 164 556 155 565 135 558 132 552" transform=" translate(148,554) scale(-1,1) translate(-148,-554)" fill="url(#id-64601)" id="id-64629"></polygon><polygon points="153 570 138 567 150 584 155 576" transform=" translate(146,576) scale(-1,1) translate(-146,-576)" fill="url(#id-64602)" id="id-64630"></polygon><polygon points="157 567 169 584 155 577 150 572" transform=" translate(160,575) scale(-1,1) translate(-160,-575)" fill="url(#id-64603)" id="id-64631"></polygon><polygon points="150 581 168 589 157 601 151 590" transform=" translate(159,591) scale(-1,1) translate(-159,-591)" fill="url(#id-64604)" id="id-64632"></polygon><polygon points="166 597 177 607 171 620 160 605" transform=" translate(168,609) scale(-1,1) translate(-168,-609)" fill="url(#id-64605)" id="id-64633"></polygon><polygon points="154 598 144 620 152 620 161 606" transform=" translate(152,609) scale(-1,1) translate(-152,-609)" fill="url(#id-64606)" id="id-64634"></polygon><polygon points="132 393 140 408 150 396 141 384" transform=" translate(141,396) scale(-1,1) translate(-141,-396)" fill="url(#id-64607)" id="id-64635"></polygon><polygon points="166 624 177 628 174 644 157 633" transform=" translate(167,634) scale(-1,1) translate(-167,-634)" fill="url(#id-64608)" id="id-64636"></polygon><polygon points="141 644 148 644 157 634 151 624" transform=" translate(149,634) scale(-1,1) translate(-149,-634)" fill="url(#id-64609)" id="id-64637"></polygon><path d=" M 7,132 L 8,138 L 19,90 C 23,79 32,70 44,63 C 56,56 71,52 89,50 L 92,17 L 96,50 C 115,53 130,58 142,64 C 153,71 162,81 167,93 L 178,140 L 182,126 C 182,89 180,66 177,57 C 173,44 152,17 149,14 C 146,10 124,0 119,0 C 116,0 107,2 92,7 C 72,3 60,3 56,4 C 51,6 20,28 13,44 C 7,54 4,76 1,110 L 7,132 Z" fill="url(#id-64610)" id="id-64638"></path><path d=" M 25,79 C 30,73 36,67 44,63 C 50,59 58,56 66,54 C 51,53 40,49 32,44 C 30,37 29,31 27,26 C 21,32 15,38 13,44 C 11,46 10,49 9,52 C 9,54 10,55 11,57 L 29,63 C 30,68 29,74 25,79 Z" fill="#554D58" id="id-64638"></path><path d=" M 125,57 C 131,59 142,64 150,70 L 150,53 L 169,41 C 166,36 162,31 159,27 C 157,31 153,37 146,44 C 137,50 130,54 125,57 Z" fill="#554D58" id="id-64638"></path></g><defs></defs><path d=" M 1202,1685 C 1201,1683 1198,1681 1197,1679 C 1196,1678 1196,1676 1196,1675 C 1196,1674 1194,1672 1193,1671 C 1193,1670 1192,1669 1192,1668 C 1192,1667 1195,1666 1196,1665 C 1198,1663 1200,1661 1202,1658 C 1207,1649 1216,1643 1226,1641 C 1240,1638 1254,1644 1263,1655 C 1264,1657 1266,1660 1265,1663 C 1265,1664 1263,1665 1263,1666 C 1263,1667 1265,1669 1266,1670 C 1271,1673 1269,1673 1270,1678 C 1270,1682 1274,1681 1274,1685 L 1274,1685 L 1274,1686 C 1274,1686 1274,1686 1274,1686 C 1273,1688 1271,1688 1270,1689 C 1268,1691 1267,1692 1266,1694 C 1263,1698 1261,1700 1258,1704 C 1242,1719 1214,1716 1202,1696 C 1201,1695 1199,1691 1200,1689 C 1201,1688 1202,1688 1202,1685 L 1202,1685 Z M 1268,1685 C 1267,1682 1265,1682 1264,1679 C 1264,1678 1264,1677 1264,1676 C 1264,1675 1264,1674 1264,1674 C 1264,1673 1263,1672 1262,1672 C 1260,1670 1256,1669 1258,1665 C 1259,1662 1261,1662 1258,1658 C 1246,1643 1223,1641 1210,1656 C 1209,1658 1208,1659 1207,1661 C 1205,1663 1202,1665 1200,1667 C 1197,1669 1197,1669 1200,1671 C 1203,1675 1201,1676 1203,1679 C 1204,1681 1207,1682 1208,1685 L 1208,1685 L 1208,1685 C 1207,1690 1203,1688 1207,1694 C 1216,1706 1232,1711 1246,1705 C 1249,1704 1252,1702 1255,1699 C 1257,1697 1259,1694 1261,1691 C 1263,1689 1267,1687 1268,1685 L 1268,1685 Z M 1254,1685 C 1254,1682 1252,1682 1252,1680 C 1251,1677 1251,1673 1255,1674 C 1258,1675 1256,1678 1258,1680 C 1259,1682 1260,1682 1260,1685 L 1261,1686 L 1260,1686 C 1259,1688 1257,1689 1255,1690 C 1248,1694 1246,1699 1237,1700 C 1231,1701 1225,1700 1221,1697 C 1219,1696 1216,1694 1215,1692 C 1213,1689 1216,1688 1216,1685 C 1215,1683 1212,1682 1211,1680 C 1208,1677 1210,1673 1214,1674 L 1214,1674 L 1215,1675 C 1216,1678 1215,1679 1217,1681 C 1219,1682 1222,1683 1222,1686 C 1222,1689 1220,1690 1224,1692 C 1230,1696 1238,1695 1244,1691 C 1246,1690 1253,1687 1254,1685 L 1254,1685 Z M 1244,1674 C 1242,1675 1239,1674 1237,1673 C 1236,1672 1233,1670 1232,1669 C 1231,1669 1231,1668 1231,1667 C 1231,1666 1233,1665 1234,1664 C 1235,1662 1237,1661 1238,1659 C 1242,1652 1249,1658 1247,1663 C 1246,1665 1243,1666 1243,1668 C 1243,1670 1246,1671 1244,1674 L 1244,1674 L 1244,1674 L 1244,1674 Z M 1222,1656 C 1224,1655 1227,1656 1228,1659 C 1229,1660 1229,1661 1229,1663 C 1228,1665 1223,1666 1225,1669 C 1225,1670 1226,1670 1226,1671 C 1227,1674 1226,1675 1223,1675 C 1222,1675 1219,1673 1218,1672 C 1216,1671 1212,1669 1214,1666 C 1215,1664 1217,1664 1218,1662 C 1219,1660 1220,1658 1222,1656 L 1222,1656 Z" fill="#343D53" opacity="0.297" id="id-77051"></path></svg>