<?xml version="1.0" encoding="UTF-8"?><svg width="1320px" height="1760px" viewBox="0 0 1320 1760" version="1.1" xmlns="http://www.w3.org/2000/svg" xmlns:xlink="http://www.w3.org/1999/xlink"><defs></defs><g transform=" translate(0,-2)" id="id-31442"><rect fill="#FEA1D3" width="1320" height="1762" x="0" y="0" id="id-31443"></rect><g transform=" translate(91,113)" fill="#FF6FBD" id="id-31444"><path d=" M 579,1152 C 624,1159 646,1163 646,1163 C 630,1172 607,1213 587,1235 C 597,1215 607,1196 612,1171 C 590,1158 579,1152 579,1152 Z" id="id-31445"></path><path d=" M 657,1148 C 607,1139 554,1129 501,1119 C 390,1106 306,1074 228,1015 C 214,982 200,951 193,905 C 290,1008 413,1067 572,1064 C 813,1048 1026,902 1081,649 C 1119,413 998,230 865,139 C 671,0 426,6 253,157 C 2,395 28,686 165,870 C 182,928 201,972 226,1013 C 147,950 74,868 28,715 C -8,569 7,422 103,272 C 204,108 337,28 492,4 C 631,-11 757,22 872,98 C 871,117 870,126 870,126 C 888,119 897,115 897,115 C 992,183 1061,279 1104,402 C 1109,461 1104,512 1098,563 C 1105,538 1113,513 1124,488 C 1151,680 1086,828 967,949 C 865,1044 749,1097 621,1115 C 645,1137 657,1148 657,1148 Z" id="id-31446"></path><path d=" M 233,633 C 213,657 193,681 176,708 C 181,714 184,716 184,716 C 184,732 184,739 184,739 C 192,730 203,720 216,710 C 294,836 425,894 559,900 C 762,901 883,795 940,688 C 951,718 957,732 957,732 C 976,701 985,685 985,685 C 952,653 936,637 936,637 C 926,638 921,639 921,639 C 930,663 935,676 935,676 C 921,663 914,657 914,657 C 906,670 902,677 902,677 L 923,704 C 828,814 699,863 559,864 C 405,856 291,789 220,707 C 229,701 241,689 249,687 C 239,655 233,637 233,633 Z" id="id-31447"></path><path d=" M 5,401 C 2,449 0,474 0,474 C 16,399 32,348 80,281 C 44,318 19,359 5,401 Z" id="id-31448"></path><path d=" M 244,342 C 242,353 240,358 240,358 C 273,388 290,403 290,403 C 249,444 228,465 228,465 C 262,489 279,501 279,501 C 299,474 310,461 310,461 C 305,476 302,483 302,483 C 324,457 335,444 335,444 C 370,477 388,493 388,493 C 393,490 395,488 395,488 C 408,491 414,493 414,493 C 418,485 420,480 420,480 C 379,438 358,416 358,416 C 385,384 398,368 398,368 C 376,346 366,334 366,334 C 359,343 356,347 356,347 C 351,344 348,343 348,343 C 328,364 318,374 318,374 C 288,344 274,329 274,329 C 258,338 249,342 249,342 L 261,355 C 250,347 244,342 244,342 Z" id="id-31449"></path><path d=" M 785,434 C 758,464 745,479 745,479 C 703,454 682,442 682,442 C 722,409 742,393 742,393 C 713,365 698,351 698,351 C 695,351 694,350 694,350 C 697,340 698,335 698,335 C 722,354 734,363 734,363 C 723,350 717,343 717,343 C 730,335 736,331 736,331 C 765,352 780,362 780,362 C 793,351 808,339 818,327 C 829,328 835,328 835,328 C 827,335 819,342 812,351 C 829,339 837,333 837,333 C 852,347 859,354 859,354 C 835,380 823,393 823,393 C 841,405 863,423 877,431 C 854,448 826,464 826,473 C 799,447 785,434 785,434 Z" id="id-31450"></path></g></g><defs></defs><g transform=" translate(537,488)" id="id-73611"><polygon points="233 51 223 89 174 114 149 69 213 12 213 11 230 45" fill="#005194" id="id-73612"></polygon><polygon points="190 81 191 42 193 33 213 11 230 45" fill="#0574B8" id="id-73612"></polygon><polygon points="8 84 7 46 33 4 35 8 35 8 55 14 59 62 83 120" fill="#0574B8" id="id-73612"></polygon><polygon points="62 110 53 41 72 37 97 51 82 118" fill="#005194" id="id-73612"></polygon><path d=" M 237,50 L 226,92 L 192,107 L 136,131 L 98,129 L 53,109 L 4,87 L 3,80 L 3,80 L 2,64 L 1,47 L 32,0 L 35,8 L 35,8 C 28,18 7,46 7,47 C 7,47 8,53 8,59 C 8,65 9,72 9,76 C 9,76 9,76 9,76 C 9,79 9,81 9,81 L 58,104 L 70,110 L 100,125 L 106,125 L 127,125 L 133,124 L 175,106 L 184,103 L 222,86 L 230,51 L 213,12 L 212,10 L 218,0 L 237,49 L 237,50 Z" fill="#151515" id="id-73612"></path></g><defs><linearGradient x1="100%" y1="46%" x2="12%" y2="47%" id="id-74288"><stop stop-color="#DB8D73" offset="0%"></stop><stop stop-color="#E89D89" offset="21%"></stop><stop stop-color="#E6B4B1" offset="46%"></stop><stop stop-color="#EBA18D" offset="80%"></stop><stop stop-color="#DF9889" offset="100%"></stop></linearGradient><linearGradient x1="53%" y1="81%" x2="50%" y2="21%" id="id-74289"><stop stop-color="#CD6E5C" offset="0%"></stop><stop stop-color="#DE7964" offset="24%"></stop><stop stop-color="#DC937A" offset="100%"></stop></linearGradient><linearGradient x1="52%" y1="-4%" x2="46%" y2="70%" id="id-74290"><stop stop-color="#CE6657" offset="0%"></stop><stop stop-color="#8D4137" offset="100%"></stop></linearGradient><linearGradient x1="46%" y1="43%" x2="15%" y2="43%" id="id-74291"><stop stop-color="#DE8D7D" offset="0%"></stop><stop stop-color="#C77052" offset="100%"></stop></linearGradient><linearGradient x1="54%" y1="37%" x2="12%" y2="72%" id="id-74292"><stop stop-color="#3C050A" offset="0%"></stop><stop stop-color="#AF623E" offset="100%"></stop></linearGradient><linearGradient x1="40%" y1="14%" x2="61%" y2="85%" id="id-74293"><stop stop-color="#541C19" offset="0%"></stop><stop stop-color="#7A302C" offset="100%"></stop></linearGradient><linearGradient x1="27%" y1="47%" x2="91%" y2="49%" id="id-74294"><stop stop-color="#D08973" offset="0%"></stop><stop stop-color="#FED3FF" offset="100%"></stop></linearGradient><linearGradient x1="47%" y1="60%" x2="49%" y2="79%" id="id-74295"><stop stop-color="#E2927A" offset="0%"></stop><stop stop-color="#D97D68" offset="60%"></stop><stop stop-color="#E48E97" offset="100%"></stop></linearGradient><linearGradient x1="29%" y1="56%" x2="69%" y2="53%" id="id-74296"><stop stop-color="#D4896F" offset="0%"></stop><stop stop-color="#CE7358" offset="8%"></stop><stop stop-color="#D67B64" offset="18%"></stop><stop stop-color="#D87862" offset="38%"></stop><stop stop-color="#CC6958" offset="65%"></stop><stop stop-color="#BF6D4C" offset="81%"></stop><stop stop-color="#A95B51" offset="100%"></stop></linearGradient><linearGradient x1="47%" y1="45%" x2="54%" y2="46%" id="id-74297"><stop stop-color="#D3735F" offset="0%"></stop><stop stop-color="#BD694B" offset="62%"></stop><stop stop-color="#BA6147" offset="77%"></stop><stop stop-color="#CE8C70" offset="100%"></stop></linearGradient><linearGradient x1="51%" y1="7%" x2="50%" y2="100%" id="id-74298"><stop stop-color="#C06A4D" offset="0%"></stop><stop stop-color="#EB9F84" offset="75%"></stop><stop stop-color="#DB896B" offset="100%"></stop></linearGradient><linearGradient x1="51%" y1="11%" x2="49%" y2="93%" id="id-74299"><stop stop-color="#DF9889" offset="0%"></stop><stop stop-color="#D28264" offset="73%"></stop><stop stop-color="#DF9D81" offset="100%"></stop></linearGradient><linearGradient x1="51%" y1="-5%" x2="48%" y2="96%" id="id-74300"><stop stop-color="#DB8F75" offset="0%"></stop><stop stop-color="#C47656" offset="100%"></stop></linearGradient><linearGradient x1="50%" y1="19%" x2="50%" y2="69%" id="id-74301"><stop stop-color="#B0695C" offset="0%"></stop><stop stop-color="#74330F" offset="45%"></stop><stop stop-color="#A44E23" offset="100%"></stop></linearGradient><linearGradient x1="46%" y1="74%" x2="39%" y2="35%" id="id-74302"><stop stop-color="#AA4949" offset="0%"></stop><stop stop-color="#C46B50" offset="51%"></stop><stop stop-color="#9F3838" offset="100%" stop-opacity="0"></stop></linearGradient><linearGradient x1="46%" y1="16%" x2="49%" y2="82%" id="id-74303"><stop stop-color="#9B473D" offset="0%" stop-opacity="0.186"></stop><stop stop-color="#803921" offset="100%"></stop></linearGradient><linearGradient x1="41%" y1="19%" x2="50%" y2="100%" id="id-74304"><stop stop-color="#BB6351" offset="0%"></stop><stop stop-color="#913F35" offset="100%"></stop></linearGradient><linearGradient x1="50%" y1="31%" x2="45%" y2="50%" id="id-74305"><stop stop-color="#D78C70" offset="0%"></stop><stop stop-color="#E5A2A0" offset="100%"></stop></linearGradient><linearGradient x1="51%" y1="22%" x2="50%" y2="100%" id="id-74306"><stop stop-color="#9B4237" offset="0%"></stop><stop stop-color="#B77057" offset="100%"></stop></linearGradient><linearGradient x1="49%" y1="0%" x2="50%" y2="100%" id="id-74307"><stop stop-color="#D8886E" offset="0%"></stop><stop stop-color="#DC8270" offset="100%"></stop></linearGradient><linearGradient x1="44%" y1="15%" x2="50%" y2="100%" id="id-74308"><stop stop-color="#B45444" offset="0%"></stop><stop stop-color="#AF584E" offset="100%"></stop></linearGradient><linearGradient x1="52%" y1="21%" x2="49%" y2="83%" id="id-74309"><stop stop-color="#D7886E" offset="0%"></stop><stop stop-color="#F3A990" offset="50%"></stop><stop stop-color="#E28877" offset="100%"></stop></linearGradient><linearGradient x1="85%" y1="60%" x2="15%" y2="60%" id="id-74310"><stop stop-color="#D17F61" offset="0%"></stop><stop stop-color="#BF6F4C" offset="100%"></stop></linearGradient><linearGradient x1="48%" y1="-20%" x2="59%" y2="91%" id="id-74311"><stop stop-color="#DD9D8D" offset="0%"></stop><stop stop-color="#BF704F" offset="60%"></stop><stop stop-color="#BD6E4B" offset="72%"></stop><stop stop-color="#CB7A5B" offset="100%"></stop></linearGradient><linearGradient x1="55%" y1="48%" x2="46%" y2="33%" id="id-74312"><stop stop-color="#DB8C74" offset="0%"></stop><stop stop-color="#DC8E75" offset="86%"></stop><stop stop-color="#CF8769" offset="100%"></stop></linearGradient><linearGradient x1="50%" y1="19%" x2="50%" y2="78%" id="id-74313"><stop stop-color="#9E4B20" offset="0%"></stop><stop stop-color="#A94317" offset="50%"></stop><stop stop-color="#864421" offset="100%"></stop></linearGradient><linearGradient x1="50%" y1="11%" x2="50%" y2="43%" id="id-74314"><stop stop-color="#CA7D5F" offset="0%"></stop><stop stop-color="#C77350" offset="15%"></stop><stop stop-color="#9F564D" offset="68%"></stop><stop stop-color="#C36554" offset="100%"></stop></linearGradient><linearGradient x1="89%" y1="50%" x2="7%" y2="52%" id="id-74315"><stop stop-color="#8E433B" offset="0%"></stop><stop stop-color="#B85C4D" offset="53%" stop-opacity="0.199"></stop><stop stop-color="#9B3C25" offset="75%"></stop><stop stop-color="#8B3C36" offset="100%"></stop></linearGradient><linearGradient x1="44%" y1="70%" x2="86%" y2="30%" id="id-74316"><stop stop-color="#D78C77" offset="0%"></stop><stop stop-color="#ECB8B8" offset="100%"></stop></linearGradient><linearGradient x1="19%" y1="86%" x2="73%" y2="32%" id="id-74317"><stop stop-color="#B55C39" offset="0%"></stop><stop stop-color="#EDB2B0" offset="40%"></stop><stop stop-color="#EEBBBC" offset="100%"></stop></linearGradient><linearGradient x1="35%" y1="94%" x2="47%" y2="12%" id="id-74318"><stop stop-color="#E0A194" offset="0%"></stop><stop stop-color="#F0BCBE" offset="40%"></stop><stop stop-color="#EAB3B1" offset="100%"></stop></linearGradient><linearGradient x1="50%" y1="54%" x2="27%" y2="9%" id="id-74319"><stop stop-color="#DDAB90" offset="0%"></stop><stop stop-color="#DDAB90" offset="100%" stop-opacity="0.078"></stop></linearGradient><linearGradient x1="0%" y1="19%" x2="93%" y2="69%" id="id-74320"><stop stop-color="#E3ABA1" offset="0%"></stop><stop stop-color="#DF9D90" offset="70%"></stop><stop stop-color="#C5704E" offset="100%"></stop></linearGradient><linearGradient x1="36%" y1="84%" x2="25%" y2="44%" id="id-74321"><stop stop-color="#C96D62" offset="0%" stop-opacity="0.509"></stop><stop stop-color="#90372C" offset="35%" stop-opacity="0.675"></stop><stop stop-color="#762E17" offset="100%" stop-opacity="0"></stop></linearGradient><linearGradient x1="63%" y1="95%" x2="43%" y2="20%" id="id-74322"><stop stop-color="#C97E5C" offset="0%"></stop><stop stop-color="#E0957A" offset="46%"></stop><stop stop-color="#CC8166" offset="100%"></stop></linearGradient><linearGradient x1="40%" y1="0%" x2="50%" y2="86%" id="id-74323"><stop stop-color="#D08264" offset="0%"></stop><stop stop-color="#DB957A" offset="100%"></stop></linearGradient><linearGradient x1="50%" y1="0%" x2="50%" y2="92%" id="id-74324"><stop stop-color="#E3A3A3" offset="0%"></stop><stop stop-color="#DD977A" offset="100%"></stop></linearGradient><linearGradient x1="33%" y1="79%" x2="21%" y2="44%" id="id-74325"><stop stop-color="#BE6457" offset="0%"></stop><stop stop-color="#983F32" offset="28%" stop-opacity="0.928"></stop><stop stop-color="#762E17" offset="100%" stop-opacity="0"></stop></linearGradient><linearGradient x1="4%" y1="47%" x2="92%" y2="45%" id="id-74326"><stop stop-color="#732617" offset="0%"></stop><stop stop-color="#832E1D" offset="17%" stop-opacity="0.753"></stop><stop stop-color="#9E4B3D" offset="48%" stop-opacity="0.386"></stop><stop stop-color="#8E3D31" offset="78%" stop-opacity="0.762"></stop><stop stop-color="#823328" offset="100%"></stop></linearGradient><linearGradient x1="60%" y1="45%" x2="67%" y2="53%" id="id-74327"><stop stop-color="#F3B5BB" offset="0%"></stop><stop stop-color="#FECCF2" offset="100%"></stop></linearGradient><linearGradient x1="48%" y1="15%" x2="54%" y2="81%" id="id-74328"><stop stop-color="#D99776" offset="0%" stop-opacity="0.400"></stop><stop stop-color="#E6A382" offset="100%"></stop></linearGradient><linearGradient x1="47%" y1="44%" x2="50%" y2="61%" id="id-74329"><stop stop-color="#94412F" offset="0%" stop-opacity="0.175"></stop><stop stop-color="#611C1B" offset="100%"></stop></linearGradient><linearGradient x1="26%" y1="-7%" x2="50%" y2="96%" id="id-74330"><stop stop-color="#37373F" offset="0%"></stop><stop stop-color="#19191D" offset="100%"></stop></linearGradient><linearGradient x1="50%" y1="12%" x2="59%" y2="82%" id="id-74331"><stop stop-color="#252525" offset="0%"></stop><stop stop-color="#101010" offset="100%"></stop></linearGradient><linearGradient x1="25%" y1="-16%" x2="50%" y2="98%" id="id-74332"><stop stop-color="#37373F" offset="0%"></stop><stop stop-color="#19191D" offset="100%"></stop></linearGradient><linearGradient x1="75%" y1="39%" x2="50%" y2="93%" id="id-74333"><stop stop-color="#252525" offset="0%"></stop><stop stop-color="#000000" offset="100%"></stop></linearGradient></defs><g transform=" translate(334,549)" id="id-74334"><polygon points="561 754 565 871 565 881 537 893 533 897 535 901 532 909 543 910 597 864" fill="#551415" id="id-74335"></polygon><polygon points="537 282 539 246 535 195 529 158 522 137 484 118 440 111 212 111 188 113 157 123 121 139 111 186 108 221 109 290" fill="url(#id-74288)" id="id-74335"></polygon><polygon points="467 393 474 506 503 589 537 672 556 728 561 754 546 794 552 851 551 861 552 874 556 885 567 882 568 866 570 860 570 843 571 834 576 843 576 859 579 864 573 874 571 884 544 903 541 916 582 901 597 864 607 852 600 821 597 716 589 695 582 655 569 523 544 425" fill="url(#id-74289)" id="id-74335"></polygon><polygon points="546 794 552 851 551 861 552 874 556 885 567 882 568 866 570 860 570 843 571 834 576 843 576 859 579 864 573 874 571 884 544 903 541 916 582 901 597 864 583 871 588 855 573 815 561 823" fill="url(#id-74290)" id="id-74335"></polygon><polygon points="552 851 551 861 552 874 556 887 567 884 568 866 570 860 558 860" fill="#853632" id="id-74335"></polygon><polygon points="544 906 541 916 582 901 571 889" fill="#80332D" id="id-74335"></polygon><polygon points="561 754 548 789 566 819 586 806" fill="#C08175" id="id-74335"></polygon><polygon points="486 648 477 599 453 529 440 504 437 490 439 460 449 402 456 340 188 343 198 411 202 493 162 596 153 638 266 693 319 721 386 693" fill="url(#id-74291)" id="id-74335"></polygon><polygon points="486 648 477 599 453 529 440 504 437 490 439 460 449 402 456 340 296 353 376 634" fill="#D07F62" id="id-74335"></polygon><g transform=" translate(188,0)" id="id-74344"><polygon points="274 114 253 111 232 100 201 76 188 58 184 1 93 1 88 64 25 111 1 113 103 123 121 135 134 138 149 121 161 117 187 119 225 114" fill="#D48364" id="id-74335"></polygon><polygon points="201 76 188 58 185 12 175 57 155 111 185 73" fill="#E898A8" id="id-74335"></polygon><polygon points="149 1 93 1 88 64 108 126 121 135 133 138" fill="#C5785A" id="id-74335"></polygon><polygon points="116 102 120 113 118 115 136 135 150 119 164 71 125 108" fill="#B46548" id="id-74348"></polygon><polygon points="121 127 133 138 145 124" fill="#AC461F" id="id-74349"></polygon><polygon points="136 98 164 71 175 57 186 17 134 51" fill="#C8765A" id="id-74350"></polygon><polygon points="97 96 116 80 164 60 178 48 186 17 184 1 93 1 88 64 45 96" fill="#A85431" opacity="0.654" id="id-74335"></polygon><polygon points="186 17 184 1 93 1 88 64 45 96 66 96" fill="url(#id-74292)" opacity="0.467" id="id-74335"></polygon><polygon points="123 58 176 23 186 17 184 1 93 1 91 22 108 55" fill="#731511" opacity="0.434" id="id-74335"></polygon></g><polygon points="41 844 33 856 36 895 64 915 84 911 83 903 71 898 72 892 63 884 52 849" fill="url(#id-74293)" id="id-74335"></polygon><polygon points="315 152 285 173 320 188 357 166" fill="#F0BCBB" id="id-74355"></polygon><polygon points="327 150 370 130 342 127" fill="#D68A6E" id="id-74356"></polygon><polygon points="301 142 303 148 243 131 240 119 276 119" fill="#D38869" id="id-74357"></polygon><polygon points="159 149 206 123 269 123 303 144 297 118 188 113 157 123 121 139" fill="url(#id-74294)" id="id-74335"></polygon><polygon points="157 123 121 139 153 167 196 134" fill="#FCD1FB" id="id-74335"></polygon><polygon points="89 584 77 541 62 551 45 658 34 712 25 741 25 762 10 817 0 845 14 870 25 901 58 919 72 919 69 913 61 905 50 899 37 874 37 852 43 845 52 855 50 887 56 901 64 905 66 901 66 882 72 836 72 800 69 781 64 773 66 735 85 684 121 599 162 510" fill="url(#id-74295)" id="id-74335"></polygon><polygon points="89 584 77 541 62 551 45 658 48 715 121 599 162 510" fill="#D08263" id="id-74335"></polygon><polygon points="55 843 45 827 37 848 17 852 8 836 5 851 0 845 14 870 25 901 58 919 72 919 69 913 61 905 50 899 37 874 37 852 43 845 52 855 50 887 56 901 64 905 66 901 66 882 72 836" fill="#D16A58" id="id-74335"></polygon><polygon points="53 882 52 892 56 901 64 905 66 901 66 882 67 876" fill="#B24C41" id="id-74335"></polygon><polygon points="25 901 58 919 72 919 62 909 37 895" fill="#B54F44" id="id-74335"></polygon><polygon points="160 467 145 488 108 578 45 777 48 797 64 773 66 735 85 684 121 599 162 510" fill="#B86846" id="id-74335"></polygon><polygon points="169 1211 277 1211 282 1183 281 1150 284 1127 286 1114 285 1063 293 972 306 866 311 792 309 768 323 771 337 768 333 817 333 855 339 924 346 1008 348 1113 351 1130 353 1176 361 1211 461 1211 458 1191 456 1170 460 1133 461 1082 505 905 516 839 518 826 512 762 503 706 486 648 482 629 386 690 318 718 266 690 184 629 153 637 132 731 119 781 118 813 123 862 131 916 166 1094 176 1179" fill="url(#id-74296)" id="id-74335"></polygon><polygon points="463 664 416 771 400 819 392 1125 359 1178 398 1204 441 1153 461 1082 505 905 516 839 518 826 515 789 490 714" fill="url(#id-74297)" id="id-74335"></polygon><polygon points="422 1160 395 1199 365 1171 401 1149 384 1120 391 983 411 786 416 771 448 697 454 1013 445 1116 407 1149" fill="url(#id-74298)" id="id-74368"></polygon><polygon points="121 139 111 186 108 221 109 290 96 438 89 464 69 510 89 585 162 510 167 425 162 241" fill="url(#id-74299)" id="id-74335"></polygon><polygon points="101 466 103 488 106 510 160 447 179 359 164 232 187 184 186 179 132 181 161 234 161 321 149 376 151 384 123 461 114 466" fill="url(#id-74300)" id="id-74370"></polygon><polygon points="96 438 89 464 69 510 51 621 101 520 96 476" fill="#EAABB1" id="id-74335"></polygon><polygon points="96 451 128 365 134 316 121 139 111 186 108 221 109 290 96 438" fill="#BE704B" id="id-74335"></polygon><polygon points="184 241 177 248 162 225 138 289 161 321 170 375 161 420 151 411 162 510 167 425 188 343" fill="url(#id-74301)" id="id-74335"></polygon><polygon points="284 1127 286 1114 285 1063 293 972 306 866 311 792 309 768 323 771 337 768 333 817 333 855 339 924 346 1008 375 889 416 771 463 664 490 714 515 790 512 762 503 706 486 648 477 599 471 583 420 650 316 720 201 654 244 742 264 824 275 994" fill="url(#id-74302)" id="id-74335"></polygon><polygon points="298 930 306 866 311 792 309 768 323 771 337 768 333 817 333 855 336 894 347 826 360 784 378 733 388 687 321 739 254 687 267 736 291 821" fill="url(#id-74303)" id="id-74335"></polygon><polygon points="348 1093 348 1113 351 1130 353 1176 361 1211 461 1211 439 1155 422 1136 403 1148 429 1168 400 1202 370 1170 382 1125" fill="url(#id-74304)" id="id-74335"></polygon><polygon points="10 855 8 836 5 851 0 845 14 870" fill="#A64C3F" id="id-74335"></polygon><polygon points="520 500 516 520 544 629 474 500 490 399" fill="url(#id-74305)" id="id-74378"></polygon><polygon points="461 1211 458 1191 456 1170 460 1133 461 1082 439 1155 450 1211" fill="url(#id-74306)" id="id-74335"></polygon><polygon points="220 1149 259 1115 240 1063 232 973 266 819 240 713 201 661 158 650 201 784 183 925 170 1083" fill="url(#id-74307)" id="id-74380"></polygon><polygon points="169 1211 277 1211 282 1183 281 1150 284 1127 286 1114 286 1098 226 1211 207 1211 196 1121 173 1078 150 1014 166 1094 176 1179" fill="url(#id-74308)" id="id-74335"></polygon><polygon points="173 1078 183 924 150 1014" fill="#C2644D" id="id-74335"></polygon><polygon points="169 1211 239 1211 230 1196 204 1175 173 1150 176 1179" fill="#A7443E" opacity="0.574" id="id-74335"></polygon><polygon points="221 1130 240 1097 224 1063 224 983 240 804 217 698 190 668 212 771 212 910 190 998 181 1094" fill="url(#id-74309)" id="id-74380"></polygon><polygon points="217 795 221 692 200 667 169 658 200 737" fill="#EEA68B" id="id-74385"></polygon><polygon points="511 476 492 419 481 447 484 356 521 274 533 417" fill="url(#id-74310)" id="id-74386"></polygon><polygon points="569 523 544 425 542 346 537 282 539 246 535 195 529 158 522 137 494 161 419 158 471 211 516 290 525 411 511 477 518 507 535 462 562 543" fill="url(#id-74311)" id="id-74335"></polygon><polygon points="486 389 533 243 501 167 464 207 451 247 463 265" fill="url(#id-74312)" id="id-74388"></polygon><polygon points="473 490 474 506 503 589 537 672 556 728 561 754 567 712 543 623" fill="#B95C4E" id="id-74335"></polygon><polygon points="460 328 466 378 474 506 490 425 486 392 469 274 479 230 461 260 454 251" fill="url(#id-74313)" id="id-74335"></polygon><polygon points="440 504 437 490 439 460 449 402 456 340 458 328 325 282 188 343 198 411 202 493 162 596 157 621 161 633 169 599 173 570 204 506 202 458 217 402 286 365 321 352 353 360 422 402 431 493 437 520" fill="url(#id-74314)" id="id-74335"></polygon><polygon points="451 385 456 340 458 328 364 340 330 308 268 343 188 343 194 379 262 368 312 343 335 340 381 368" fill="url(#id-74315)" id="id-74335"></polygon><polygon points="286 328 306 310 330 274 453 252 464 205 421 156 317 204 219 165 210 154 188 180" fill="url(#id-74316)" id="id-74393"></polygon><path d=" M 422,195 L 405,190 C 377,190 357,198 343,214 C 329,230 322,250 323,276 C 324,301 331,320 345,333 C 365,351 384,356 405,356 C 425,356 444,347 450,342 C 454,339 457,335 460,328 C 463,323 466,317 467,308 C 469,294 466,276 457,254 L 422,195 Z" fill="url(#id-74317)" id="id-74394"></path><path d=" M 422,195 L 417,175 C 386,188 366,196 358,201 C 355,203 351,206 348,208 C 348,209 381,253 448,342 C 454,338 459,332 463,324 C 469,310 469,301 469,293 C 469,287 465,275 459,257 L 422,195 Z" fill="url(#id-74318)" id="id-74394"></path><path d=" M 375,226 C 338,253 343,276 343,284 C 343,291 353,319 371,335 C 379,342 422,349 447,331 C 468,316 472,294 458,265 C 427,221 400,208 375,226 Z" fill="url(#id-74319)" opacity="0.282" id="id-74394"></path><path d=" M 272,205 C 260,199 243,200 221,209 C 187,227 169,258 168,303 C 167,319 184,342 190,346 C 197,351 212,356 239,353 C 257,351 272,344 284,333 C 303,312 312,288 309,260 C 305,217 291,214 272,205 Z" fill="url(#id-74320)" id="id-74397"></path><path d=" M 340,285 C 333,252 328,240 326,248 C 324,254 323,263 323,276 C 324,301 331,320 345,333 C 365,351 382,356 404,356 C 425,356 444,347 450,342 C 456,337 465,325 468,308 C 472,290 465,276 463,268 C 461,263 460,259 458,255 L 442,290 L 399,304 L 366,300 L 340,285 Z" fill="url(#id-74321)" id="id-74394"></path><path d=" M 153,637 L 149,654 L 132,731 L 130,739 C 133,730 135,723 137,718 C 140,709 147,691 149,680 C 151,671 155,655 161,633 L 172,570 L 162,596 L 153,637 Z" fill="#7D362E" id="id-74335"></path><path d=" M 259,203 C 254,199 240,185 217,163 L 210,153 L 186,180 C 192,211 192,231 186,239 C 175,256 168,277 168,303 C 168,324 190,352 239,344 C 252,342 274,217 259,203 Z" fill="#E3ABA1" id="id-74397"></path><polygon points="175 565 203 550 234 558 241 520 203 455 203 507" fill="#BD6057" id="id-74401"></polygon><polygon points="241 442 241 518 229 556 233 629 266 657 316 707 381 659 395 629 364 504 350 504 301 380" fill="url(#id-74322)" id="id-74402"></polygon><polygon points="432 626 427 589 407 518 414 505 450 568 470 618" fill="url(#id-74323)" id="id-74403"></polygon><polygon points="302 376 254 442 254 546 302 590 364 568 364 504 350 504 376 454 345 400" fill="url(#id-74324)" id="id-74402"></polygon><polygon points="317 480 342 436 319 413 300 447" fill="#DE8C7A" id="id-74405"></polygon><polygon points="304 541 318 507 329 541 314 549" fill="#D07F61" id="id-74406"></polygon><polygon points="306 543 316 578 329 541" fill="#DEA68C" id="id-74407"></polygon><path d=" M 178,333 C 179,334 180,336 182,338 C 184,342 186,343 189,346 C 190,347 197,351 206,353 C 215,354 226,355 239,353 C 257,351 272,344 284,333 C 293,322 299,313 302,305 C 304,301 307,293 309,277 C 310,274 310,268 309,260 L 228,277 L 207,295 L 178,333 Z" fill="url(#id-74325)" id="id-74397"></path><polygon points="306 543 308 550 324 556 329 541" fill="#E6B8B7" id="id-74407"></polygon><polygon points="308 543 318 525 323 542 314 548" fill="#7E312C" id="id-74410"></polygon><polygon points="152 641 162 596 176 561 185 617 214 602 246 628 323 690 404 628 423 605 454 605 470 577 477 599 482 629 388 689 337 768 323 771 309 768 259 688 175 639 142 688" fill="url(#id-74326)" opacity="0.442" id="id-74411"></polygon><polygon points="490 154 522 137 484 118 412 123" fill="url(#id-74327)" id="id-74335"></polygon><polygon points="573 785 588 829 602 858 607 852 600 821 597 716 576 763" fill="#DA9E96" id="id-74335"></polygon><polygon points="574 722 589 695 582 655 533 542" fill="url(#id-74328)" id="id-74335"></polygon><polygon points="172 640 241 690 309 768 323 771 338 768 395 706 469 661 404 650 313 706 217 629" fill="url(#id-74329)" opacity="0.571" id="id-74415"></polygon><g transform=" translate(188,270)" id="id-74416"><polygon points="207 13 207 10 217 2 220 2 239 21 258 39 260 42 250 51 246 52 226 33" fill="url(#id-74330)" id="id-74417"></polygon><polygon points="208 40 218 50 222 50 240 33 257 13 257 9 247 0 244 1 230 19 209 36" fill="url(#id-74331)" id="id-74418"></polygon><polygon points="1 13 1 10 10 2 15 2 32 21 50 39 52 42 42 52 38 52 19 33" fill="url(#id-74332)" id="id-74417"></polygon><polygon points="0 43 10 53 14 53 33 35 50 15 50 11 40 3 36 4 19 23 1 39" fill="url(#id-74333)" id="id-74418"></polygon></g></g><defs><linearGradient x1="69%" y1="0%" x2="69%" y2="21%" id="id-75082"><stop stop-color="#D0A6A1" offset="0%"></stop><stop stop-color="#A36D68" offset="100%"></stop></linearGradient><radialGradient cx="50%" cy="61%" r="61%" id="id-75083" fx="50%" fy="61%" gradientTransform=" translate(0.500,0.609) scale(1,0.694) rotate(180) scale(1,1) translate(-0.500,-0.609)"><stop stop-color="#FFD2C7" offset="0%"></stop><stop stop-color="#D59785" offset="100%"></stop></radialGradient><radialGradient cx="50%" cy="74%" r="74%" id="id-75084" fx="50%" fy="74%" gradientTransform=" translate(0.500,0.744) scale(0.748,1) rotate(-90) scale(1,0.864) translate(-0.500,-0.744)"><stop stop-color="#FFD6CB" offset="0%"></stop><stop stop-color="#904840" offset="100%"></stop></radialGradient><linearGradient x1="39%" y1="37%" x2="50%" y2="61%" id="id-75085"><stop stop-color="#F7BBA7" offset="0%"></stop><stop stop-color="#D7927F" offset="100%"></stop></linearGradient><radialGradient cx="50%" cy="37%" r="75%" id="id-75086" fx="50%" fy="37%" gradientTransform=" translate(0.500,0.372) scale(0.536,1) rotate(90) scale(1,2) translate(-0.500,-0.372)"><stop stop-color="#FFC3B4" offset="0%"></stop><stop stop-color="#D07F6B" offset="100%"></stop></radialGradient><radialGradient cx="52%" cy="68%" r="169%" id="id-75087" fx="52%" fy="68%" gradientTransform=" translate(0.522,0.681) scale(1,0.367) rotate(-105) translate(-0.522,-0.681)"><stop stop-color="#DC9886" offset="0%"></stop><stop stop-color="#B25245" offset="100%"></stop></radialGradient><linearGradient x1="29%" y1="57%" x2="32%" y2="48%" id="id-75088"><stop stop-color="#D5857C" offset="0%"></stop><stop stop-color="#B25245" offset="100%"></stop></linearGradient><linearGradient x1="58%" y1="63%" x2="50%" y2="65%" id="id-75089"><stop stop-color="#90433D" offset="0%"></stop><stop stop-color="#BF8075" offset="100%"></stop></linearGradient><linearGradient x1="91%" y1="62%" x2="50%" y2="78%" id="id-75090"><stop stop-color="#8D443F" offset="0%"></stop><stop stop-color="#CB7966" offset="100%"></stop></linearGradient><linearGradient x1="39%" y1="5%" x2="39%" y2="73%" id="id-75091"><stop stop-color="#9F6A88" offset="0%"></stop><stop stop-color="#AB8495" offset="100%"></stop></linearGradient><linearGradient x1="28%" y1="92%" x2="75%" y2="13%" id="id-75092"><stop stop-color="#EBB5A7" offset="0%"></stop><stop stop-color="#DC8972" offset="100%"></stop></linearGradient><linearGradient x1="50%" y1="0%" x2="50%" y2="100%" id="id-75093"><stop stop-color="#DB767B" offset="0%"></stop><stop stop-color="#CF555F" offset="100%"></stop></linearGradient><linearGradient x1="50%" y1="20%" x2="50%" y2="100%" id="id-75094"><stop stop-color="#F89090" offset="0%"></stop><stop stop-color="#CF535C" offset="100%"></stop></linearGradient><linearGradient x1="50%" y1="50%" x2="50%" y2="100%" id="id-75095"><stop stop-color="#AD3641" offset="0%"></stop><stop stop-color="#A94A53" offset="100%"></stop></linearGradient><linearGradient x1="50%" y1="0%" x2="50%" y2="100%" id="id-75096"><stop stop-color="#CC6767" offset="0%"></stop><stop stop-color="#D48080" offset="100%"></stop></linearGradient><linearGradient x1="64%" y1="50%" x2="0%" y2="62%" id="id-75097"><stop stop-color="#77342F" offset="0%"></stop><stop stop-color="#A84D49" offset="100%"></stop></linearGradient><linearGradient x1="38%" y1="42%" x2="90%" y2="68%" id="id-75098"><stop stop-color="#985348" offset="0%"></stop><stop stop-color="#6A2823" offset="66%"></stop><stop stop-color="#8D3D37" offset="100%"></stop></linearGradient><linearGradient x1="22%" y1="53%" x2="78%" y2="47%" id="id-75099"><stop stop-color="#B45B48" offset="0%"></stop><stop stop-color="#460C0F" offset="100%"></stop></linearGradient><linearGradient x1="23%" y1="50%" x2="73%" y2="55%" id="id-75100"><stop stop-color="#51080D" offset="0%"></stop><stop stop-color="#AE4339" offset="100%"></stop></linearGradient><linearGradient x1="50%" y1="14%" x2="50%" y2="125%" id="id-75101"><stop stop-color="#E49E8B" offset="0%"></stop><stop stop-color="#AD4E3E" offset="100%"></stop></linearGradient><linearGradient x1="50%" y1="0%" x2="50%" y2="100%" id="id-75102"><stop stop-color="#DE8F7C" offset="0%"></stop><stop stop-color="#D99380" offset="100%"></stop></linearGradient><linearGradient x1="50%" y1="34%" x2="50%" y2="100%" id="id-75103"><stop stop-color="#DE8F7C" offset="0%"></stop><stop stop-color="#F6AA9D" offset="100%"></stop></linearGradient><linearGradient x1="0%" y1="50%" x2="87%" y2="50%" id="id-75104"><stop stop-color="#EFA695" offset="0%"></stop><stop stop-color="#FDCAC0" offset="50%"></stop><stop stop-color="#F7B5A2" offset="100%"></stop></linearGradient><linearGradient x1="83%" y1="50%" x2="22%" y2="56%" id="id-75105"><stop stop-color="#C27064" offset="0%"></stop><stop stop-color="#B75149" offset="100%"></stop></linearGradient><linearGradient x1="44%" y1="47%" x2="50%" y2="60%" id="id-75106"><stop stop-color="#6C0808" offset="0%"></stop><stop stop-color="#4F0000" offset="100%"></stop></linearGradient><linearGradient x1="44%" y1="45%" x2="50%" y2="67%" id="id-75107"><stop stop-color="#6C0808" offset="0%"></stop><stop stop-color="#4F0000" offset="100%"></stop></linearGradient><linearGradient x1="59%" y1="53%" x2="79%" y2="50%" id="id-75108"><stop stop-color="#DB8075" offset="0%"></stop><stop stop-color="#76191F" offset="100%"></stop></linearGradient><linearGradient x1="66%" y1="52%" x2="50%" y2="53%" id="id-75109"><stop stop-color="#EB9F96" offset="0%"></stop><stop stop-color="#D1685E" offset="100%"></stop></linearGradient><linearGradient x1="50%" y1="56%" x2="44%" y2="48%" id="id-75110"><stop stop-color="#00AAB5" offset="0%"></stop><stop stop-color="#00717E" offset="100%"></stop></linearGradient><linearGradient x1="41%" y1="67%" x2="50%" y2="50%" id="id-75111"><stop stop-color="#00B4C0" offset="0%"></stop><stop stop-color="#007D8C" offset="100%"></stop></linearGradient></defs><g transform=" translate(561,332)" id="id-75112"><g transform=" translate(172,115)" id="id-75113"><polygon points="14 1 18 0 25 8 27 21 24 41 14 66 0 68" fill="url(#id-75082)" id="id-75114"></polygon><polygon points="12 48 19 50 23 42 26 24 20 12 12 22" fill="#9E564F" id="id-75115"></polygon><polygon points="11 21 17 10 20 5 24 7 26 24 20 36 18 31 20 16 9 29" fill="#803532" id="id-75116"></polygon><polygon points="10 28 11 38 8 45 13 49 19 38 13 24" fill="#D29290" id="id-75117"></polygon><polygon points="12 18 17 17 18 9" fill="#5E1C1D" id="id-75118"></polygon><polygon points="18 50 10 51 8 50 5 61 12 63 14 61" fill="#BF9088" id="id-75119"></polygon></g><g transform=" translate(0,113)" id="id-75120"><polygon points="13 0 5 0 0 13 4 36 13 63 25 67" fill="#BD5959" id="id-75121"></polygon><polygon points="5 9 0 13 4 36 13 63 25 67 13 24" fill="#CE8580" id="id-75121"></polygon><polygon points="18 46 14 47 7 32 11 26 4 9 6 5 16 20 17 29" fill="#F0B3BC" id="id-75123"></polygon><polygon points="13 62 20 62 18 49 11 53" fill="#DAA39A" id="id-75124"></polygon><polygon points="25 68 13 63 20 62 17 46 14 47 13 44 14 29 17 26 14 22 10 19 10 11 17 20" fill="#984446" id="id-75125"></polygon><polygon points="13 9 4 3 5 0 12 0" fill="#ED8D85" id="id-75126"></polygon></g><path d=" M 29,199 C 21,167 16,144 15,130 C 4,44 33,0 103,0 C 180,0 191,63 186,119 C 183,157 173,191 170,202 C 169,206 168,214 164,217 C 152,228 130,244 113,250 C 108,252 95,251 92,251 C 77,247 52,234 36,218 C 34,215 31,209 29,199 Z" fill="url(#id-75083)" id="id-75127"></path><polygon points="32 104 40 91 49 101 72 91 83 36 53 39 28 83" fill="#E19D89" opacity="0.497" id="id-75128"></polygon><path d=" M 15,130 C 4,44 33,0 103,0 C 180,0 191,63 186,119 L 166,114 L 161,101 L 167,68 C 159,55 158,51 147,43 C 142,40 113,40 59,43 L 31,93 L 35,103 L 24,131 L 15,130 Z" fill="url(#id-75084)" id="id-75127"></path><polygon points="28 117 28 73 69 24 134 24 172 49 172 134 132 129 124 78 141 61 105 65 61 58 45 117" fill="#D68C79" opacity="0.360" id="id-75130"></polygon><polygon points="115 32 172 49 172 75 132 70 141 61 120 63" fill="#D07B69" opacity="0.503" id="id-75130"></polygon><polygon points="42 181 65 170 128 173 155 186 137 233 51 226" fill="url(#id-75085)" id="id-75132"></polygon><polygon points="58 235 52 221 61 204 132 206 137 209 130 235 116 248 90 249" fill="url(#id-75086)" id="id-75133"></polygon><path d=" M 29,199 C 21,167 16,144 15,130 C 14,122 13,114 13,106 L 22,129 L 29,113 L 43,137 L 24,149 L 24,156 L 43,181 L 59,232 C 54,234 46,229 36,218 C 34,215 31,209 29,199 Z" fill="url(#id-75087)" id="id-75127"></path><path d=" M 59,232 C 71,240 82,245 90,246 C 98,248 109,248 121,245 C 117,248 115,249 113,250 C 108,252 95,251 92,251 C 77,247 52,234 36,218 C 34,216 32,211 30,204 C 36,212 46,222 59,232 Z" fill="url(#id-75088)" id="id-75127"></path><path d=" M 184,63 C 187,81 188,100 186,119 C 183,157 173,191 170,202 C 169,206 168,214 164,217 C 152,228 130,244 113,250 L 137,226 L 152,184 L 174,150 L 148,128 L 170,120 L 184,63 Z" fill="url(#id-75089)" id="id-75127"></path><polygon points="178 153 148 128 176 117" fill="url(#id-75090)" id="id-75127"></polygon><path d=" M 175,80 L 185,120 C 173,183 166,215 164,217 C 160,220 155,224 150,229 L 158,217 L 178,153 L 175,117 L 170,125 L 165,114 L 175,80 Z" fill="url(#id-75091)" id="id-75127"></path><polygon points="82 232 88 225 112 224 114 238 88 241" fill="#FCBDAD" id="id-75139"></polygon><polygon points="61 204 65 171 96 163 129 174 133 206" fill="#F8BBA9" id="id-75140"></polygon><polygon points="65 212 70 205 133 206 129 213 123 211 78 212" fill="#ECAFA0" id="id-75141"></polygon><polygon points="81 220 88 225 112 225 123 219 97 219" fill="#9E392F" id="id-75142"></polygon><polygon points="70 212 81 220 122 219 130 214 122 207" fill="#D29189" id="id-75143"></polygon><path d=" M 131,183 L 128,173 L 83,155 C 79,156 76,155 74,153 C 73,151 72,146 72,140 L 62,143 C 65,145 67,147 70,150 C 73,153 76,158 81,166 L 69,177 L 81,180 L 119,176 L 131,183 Z" fill="#FFD0C7" id="id-75144"></path><polygon points="31 164 67 170 43 181" fill="#FCD2C7" id="id-75145"></polygon><polygon points="91 193 95 177 102 179 101 196" fill="#ECA28E" id="id-75146"></polygon><polygon points="102 179 101 197 112 196 106 175" fill="#EBAE99" id="id-75147"></polygon><polygon points="153 141 129 161 118 136 144 145" fill="#FFCFC3" id="id-75148"></polygon><polygon points="138 153 159 136 166 143 147 164" fill="url(#id-75092)" id="id-75148"></polygon><polygon points="92 192 97 191 104 192 110 188 116 194 99 198" fill="#FFD1C9" id="id-75150"></polygon><g transform=" translate(66,192)" id="id-75151"><polygon points="2 14 11 20 60 19 68 14 67 14 21 6" fill="#65000A" id="id-75152"></polygon><path d=" M 8,18 L 20,27 C 26,28 31,29 35,29 C 38,29 44,28 51,26 L 61,18 L 52,14 L 35,16 L 17,14 L 8,18 Z" fill="url(#id-75093)" id="id-75153"></path><path d=" M 20,27 C 26,28 31,29 35,29 C 38,29 44,28 51,26 C 52,23 53,21 53,19 C 53,18 53,16 52,14 L 35,16 L 17,14 C 17,17 17,19 17,20 C 17,22 18,24 20,27 Z" fill="url(#id-75094)" id="id-75153"></path><path d=" M 2,14 C 6,15 9,15 13,14 C 18,14 19,12 22,12 C 26,12 30,13 35,13 C 39,13 42,12 46,12 C 51,12 51,14 56,14 C 59,15 63,15 67,14 C 58,6 51,1 49,1 C 45,-1 39,3 35,3 C 30,3 30,1 24,1 C 20,1 13,4 2,12 L 0,13 L 2,14 Z" fill="url(#id-75095)" id="id-75155"></path><path d=" M 19,11 C 27,8 33,7 35,7 C 39,7 43,11 48,11 C 57,11 64,12 64,11 C 56,5 51,1 49,1 C 45,-1 39,3 35,3 C 30,3 30,1 24,1 C 20,1 13,4 2,12 L 19,11 Z" fill="url(#id-75096)" id="id-75155"></path><path d=" M 19,11 C 27,8 33,7 35,7 L 35,3 C 30,3 30,1 24,1 L 19,11 Z" fill="#E97C93" id="id-75155"></path><path d=" M 19,18 C 18,18 18,19 19,22 C 22,22 23,21 27,23 C 30,24 37,24 49,22 C 36,22 26,20 19,18 Z" fill="#FC94C8" id="id-75158"></path></g><polygon points="34 132 26 124 32 113 50 105 69 114" fill="url(#id-75097)" id="id-75159"></polygon><polygon points="153 130 134 117 145 107 167 117 171 123 166 132" fill="url(#id-75098)" id="id-75160"></polygon><g transform=" translate(42,102)" id="id-75161"><path d=" M 73,31 C 80,24 87,20 94,19 C 101,19 109,21 118,26 L 113,21 L 101,15 L 108,9 L 73,13 L 67,30 L 73,31 Z" fill="url(#id-75099)" id="id-75162"></path><path d=" M 1,22 L 6,16 L 18,13 L 8,8 L 36,11 L 46,31 C 37,24 29,20 22,19 C 15,17 8,18 1,22 Z" fill="url(#id-75100)" id="id-75163"></path><polygon points="63 0 79 9 71 30 42 26 32 8" fill="url(#id-75101)" id="id-75164"></polygon><polygon points="63 0 78 8 55 28 43 26 48 15 40 6" fill="#E39B8A" id="id-75164"></polygon><path d=" M 34,69 C 35,67 35,65 36,64 C 38,59 42,56 42,53 C 43,49 44,43 44,35 L 51,24 L 64,24 L 75,32 L 75,35 L 71,34 C 71,42 71,48 72,54 C 73,57 76,59 78,62 C 79,64 79,66 80,69 L 34,69 Z" fill="url(#id-75102)" id="id-75166"></path><path d=" M 34,69 C 35,67 35,65 36,64 C 38,59 42,56 42,53 L 44,69 L 34,69 Z" fill="url(#id-75103)" id="id-75166"></path><polygon points="44 35 36 24 51 25" fill="#DB8171" id="id-75168"></polygon><polygon points="51 25 48 59 48 68 57 71 69 67 64 53 64 25" fill="url(#id-75104)" id="id-75169"></polygon><polygon points="35 71 38 79 51 79 60 84 69 79 75 78 79 73 80 71 57 72" fill="#5F0B00" opacity="0.696" id="id-75170"></polygon><path d=" M 45,77 C 38,76 35,73 34,69 C 35,69 37,69 38,68 C 39,68 41,68 44,68 L 44,66 C 49,68 54,69 59,69 C 63,69 66,68 70,66 L 80,68 L 80,71 C 78,74 76,76 73,76 C 72,77 70,75 69,75 C 67,75 66,76 62,77 C 59,78 56,77 51,77 C 51,77 46,77 45,77 Z" fill="url(#id-75105)" id="id-75171"></path><path d=" M 48,77 C 42,75 41,73 43,73 C 46,73 50,74 55,77 L 48,77 Z" fill="url(#id-75106)" id="id-75172"></path><path d=" M 62,77 C 65,74 68,73 70,72 C 72,72 73,73 72,76 L 62,77 Z" fill="url(#id-75107)" id="id-75173"></path><polygon points="51 64 57 68 66 62" fill="#FFDCD6" id="id-75174"></polygon><polygon points="57 36 51 24 59 21 64 25" fill="#FFD6CC" id="id-75175"></polygon></g><g transform=" translate(26,100)" id="id-75176"><path d=" M 8,30 C 16,24 23,20 31,20 C 38,20 45,25 51,34 L 8,30 Z" fill="#621115" id="id-75177"></path><path d=" M 33,28 C 24,23 23,20 31,20 C 38,20 45,25 51,34 L 33,28 Z" fill="#E99884" id="id-75177"></path><path d=" M 91,37 C 91,29 97,24 108,22 C 118,20 127,23 134,30 L 91,37 Z" fill="#D06E5D" id="id-75179"></path><path d=" M 105,30 C 104,25 105,22 109,21 C 113,21 117,23 120,28 L 105,30 Z" fill="#F6B3A1" id="id-75179"></path><polygon points="30 25 36 22 39 27" fill="#F7BBD4" id="id-75181"></polygon><polygon points="106 28 113 27 108 23" fill="#FCC3E4" id="id-75182"></polygon><path d=" M 96,40 C 103,46 110,48 115,47 C 120,46 127,42 135,35 C 127,38 121,40 117,40 C 110,41 102,38 96,40 Z" fill="url(#id-75108)" id="id-75183"></path><path d=" M 9,41 C 18,45 25,46 31,45 C 37,44 45,41 53,37 L 49,35 C 42,38 36,40 31,40 C 27,40 22,38 17,37 L 9,41 Z" fill="url(#id-75109)" id="id-75184"></path><path d=" M 9,41 C 15,43 18,44 21,45 C 21,40 31,40 34,40 C 26,40 21,38 17,36 L 9,41 Z" fill="#AD3F35" id="id-75184"></path><path d=" M 36,39 C 39,38 44,37 50,35 C 44,30 38,27 33,27 C 27,27 21,30 15,35 C 25,38 32,39 36,39 Z" fill="#F5D4F2" id="id-75186"></path><path d=" M 97,37 C 106,39 112,40 116,39 C 121,38 125,37 129,34 L 116,27 L 99,32 L 97,37 Z" fill="#E7CAEC" id="id-75187"></path><path d=" M 97,37 C 98,38 100,38 100,38 C 102,34 106,32 111,32 C 115,31 121,33 127,37 C 128,36 129,35 130,34 L 116,27 L 99,32 L 97,37 Z" fill="#000000" opacity="0.297" id="id-75187"></path><path d=" M 94,37 L 100,38 C 99,38 98,37 99,36 C 99,35 100,34 101,32 L 94,37 Z" fill="#BB8083" id="id-75189"></path><path d=" M 24,30 C 24,36 27,39 32,38 C 38,38 41,35 41,29 L 30,28 L 24,30 Z" fill="#250A10" id="id-75190"></path><path d=" M 29,33 L 25,34 C 27,37 29,38 32,38 C 36,38 39,36 40,32 C 40,32 39,32 35,32 C 35,34 34,35 33,35 C 31,35 30,34 29,33 Z" fill="url(#id-75110)" id="id-75190"></path><path d=" M 46,36 C 47,36 48,35 50,35 C 44,30 38,27 33,27 C 27,27 21,30 15,35 L 20,37 C 24,33 27,31 29,31 C 37,31 43,32 46,36 Z" fill="#000000" opacity="0.296" id="id-75186"></path><polygon points="31 32 31 31 32 31 32 29 29 29 29 32" fill="#B99794" id="id-75193"></polygon><path d=" M 105,30 C 104,33 105,36 108,38 L 117,38 C 120,37 122,34 122,29 C 117,28 114,28 112,28 C 110,28 108,29 105,30 Z" fill="url(#id-75111)" id="id-75194"></path><path d=" M 105,30 C 104,33 105,36 108,38 C 107,36 106,35 106,34 C 107,34 107,34 109,33 C 109,33 109,36 112,36 C 115,36 117,34 118,32 C 119,32 120,32 121,32 C 121,34 119,36 117,38 C 121,37 122,32 122,29 C 117,28 114,28 112,28 C 110,28 108,29 105,30 Z" fill="#15050F" id="id-75194"></path><polygon points="113 30 110 31 111 33 113 33" fill="#D2B0AD" id="id-75196"></polygon><path d=" M 46,31 C 46,33 46,34 46,34 C 46,35 46,36 45,36 L 50,35 L 46,31 Z" fill="#B2514F" id="id-75197"></path><polygon points="46 32 51 36 53 37 52 35 47 32" fill="#8E2A27" id="id-75198"></polygon><path d=" M 10,41 L 17,37 L 24,39 L 17,34 C 21,31 26,29 32,28 C 37,28 41,30 46,32 C 46,32 47,32 47,32 C 41,27 36,25 31,25 C 28,25 22,26 13,28 L 1,30 L 12,36 L 10,41 Z" fill="#26070C" id="id-75199"></path><path d=" M 92,37 C 93,37 94,37 94,37 C 100,32 106,29 111,29 C 116,28 122,30 128,34 L 121,40 L 131,37 L 136,40 L 135,35 L 145,29 L 133,30 C 125,26 119,25 114,26 C 105,26 98,30 92,37 Z" fill="#24060D" id="id-75200"></path><path d=" M 91,12 L 91,20 C 105,14 116,12 123,12 C 130,12 138,15 144,22 C 139,12 131,6 123,3 C 120,2 108,4 96,7 C 95,8 93,10 91,12 Z" fill="#471D15" id="id-75201"></path><path d=" M 1,18 C 9,12 15,10 19,10 C 23,10 33,12 49,17 L 58,9 C 38,4 26,1 22,1 C 13,5 7,8 5,11 L 1,18 Z" fill="#471D15" id="id-75202"></path><polygon points="117 38 102 39 112 40" fill="#FFEDEC" id="id-75203"></polygon><polygon points="41 37 26 38 27 39 33 40" fill="#FFD2D4" id="id-75203"></polygon></g></g><defs><linearGradient x1="96%" y1="50%" x2="4%" y2="50%" id="id-76106"><stop stop-color="#000000" offset="0%"></stop><stop stop-color="#000000" offset="10%" stop-opacity="0.715"></stop><stop stop-color="#000000" offset="22%" stop-opacity="0.571"></stop><stop stop-color="#000000" offset="32%" stop-opacity="0.578"></stop><stop stop-color="#000000" offset="41%"></stop><stop stop-color="#000000" offset="59%"></stop><stop stop-color="#000000" offset="68%" stop-opacity="0.701"></stop><stop stop-color="#000000" offset="76%" stop-opacity="0.670"></stop><stop stop-color="#000000" offset="87%" stop-opacity="0.681"></stop><stop stop-color="#000000" offset="100%"></stop></linearGradient><linearGradient x1="50%" y1="39%" x2="50%" y2="74%" id="id-76107"><stop stop-color="#172739" offset="0%"></stop><stop stop-color="#08192B" offset="100%"></stop></linearGradient></defs><g transform=" translate(451,1039)" id="id-76108"><g transform=" translate(0,157)" fill="url(#id-76106)" opacity="0.856" id="id-76109"><path d=" M 44,0 C 74,1 183,3 371,7 C 358,15 346,23 332,29 C 339,65 353,95 377,116 C 384,123 390,127 397,125 L 397,125 C 399,143 400,161 401,179 C 396,243 376,330 347,431 L 347,431 L 347,431 C 347,432 346,452 345,491 C 339,519 342,542 346,564 L 346,564 L 242,564 L 234,529 C 232,514 236,500 228,465 C 230,401 226,337 220,272 L 219,266 C 219,265 219,264 219,262 L 219,256 C 218,250 218,245 217,239 L 217,233 C 216,223 215,213 214,203 C 214,177 217,148 219,125 C 213,129 207,132 194,126 C 196,142 195,157 194,172 L 194,175 C 193,186 192,197 192,208 C 192,212 191,215 191,219 L 190,224 C 190,226 190,228 190,230 L 189,235 C 189,236 189,237 189,237 L 188,243 C 188,245 187,248 187,251 L 186,256 C 186,259 185,263 185,266 L 184,272 C 176,338 169,403 171,470 C 167,485 167,500 167,515 L 167,519 C 167,519 167,519 168,520 L 168,522 C 168,526 168,531 168,535 C 168,535 166,544 163,564 L 163,564 L 51,564 L 58,536 C 51,415 -10,237 2,133 C 2,131 2,130 3,128 L 3,128 C 15,141 30,126 39,115 C 57,88 69,59 75,26 Z" id="id-76110"></path></g><g transform=" translate(31,0)" id="id-76111"><path d=" M 293,1 C 291,5 297,23 313,53 C 323,69 334,105 346,160 C 307,189 218,218 192,280 C 182,287 172,288 162,281 C 132,237 78,196 1,158 C 5,139 8,122 13,107 C 19,87 27,69 34,53 C 38,44 40,36 43,29 C 48,18 53,8 54,1 L 174,35 L 293,1 Z" fill="url(#id-76107)" id="id-76112"></path><path d=" M 36,177 C 31,174 28,173 28,173 C 33,142 42,112 57,83 C 41,63 34,54 34,54 C 36,47 38,44 38,44 L 67,81 C 50,120 40,152 36,177 Z" fill="#85080A" id="id-76113"></path><path d=" M 25,65 C 64,67 123,76 153,75 L 242,76 C 283,76 311,76 324,76 C 326,76 324,65 322,65 C 291,65 245,65 184,65 C 131,65 79,61 28,51 C 26,60 25,65 25,65 Z" fill="#8F0027" id="id-76114"></path><path d=" M 110,225 C 100,217 95,213 95,213 C 96,208 97,202 97,196 C 95,197 94,197 94,197 C 74,156 65,136 65,136 C 55,169 51,185 51,185 C 46,182 43,181 43,181 C 47,165 51,150 56,134 C 63,132 67,131 67,131 C 71,138 73,142 73,142 C 103,203 102,213 169,225 C 173,227 174,227 174,227 C 177,226 178,225 178,225 C 211,221 236,211 248,194 C 263,169 275,145 286,120 C 292,132 299,153 306,183 C 301,186 298,188 298,188 C 294,170 289,153 284,135 C 274,155 264,176 251,197 C 252,208 253,214 253,214 C 242,221 237,225 237,225 C 237,219 237,216 237,216 C 217,227 195,233 173,235 C 145,231 125,224 111,216 C 111,222 110,225 110,225 Z" fill="#85080A" id="id-76115"></path><path d=" M 106,222 C 103,427 101,529 101,529 C 87,516 80,510 80,510 L 86,208 C 99,217 106,222 106,222 Z" fill="#000000" fill-opacity="0.300" id="id-76116"></path><path d=" M 72,129 C 88,124 95,121 95,121 C 95,381 96,511 96,511 L 72,492 C 72,250 72,129 72,129 Z" fill="#C40026" id="id-76117"></path><path d=" M 7,125 C 36,113 50,108 50,108 C 81,96 97,91 97,91 C 170,71 239,49 302,26 C 304,25 313,50 313,50 C 303,54 293,59 282,63 C 238,78 182,93 108,113 L 57,132 C 37,141 4,153 1,158 C 5,136 7,125 7,125 Z" fill="#C30026" id="id-76118"></path><path d=" M 18,149 C 19,130 19,121 19,121 C 34,114 42,111 42,111 L 52,134 C 30,144 18,149 18,149 Z" fill="#FD2811" id="id-76119"></path><path d=" M 58,132 C 52,114 49,104 49,104 C 77,94 91,89 91,89 L 104,116 C 74,127 58,132 58,132 Z" fill="#08192B" id="id-76120"></path><path d=" M 91,89 C 95,89 96,89 96,89 C 105,107 109,116 109,116 L 105,118 L 104,115 C 96,98 91,89 91,89 Z" fill="#A1A4D8" id="id-76121"></path><path d=" M 79,125 C 70,107 66,99 66,99 C 79,94 86,92 86,92 L 99,117 C 85,122 79,125 79,125 Z" fill="#283139" id="id-76122"></path><path d=" M 173,95 C 130,107 108,113 108,113 C 101,98 97,90 97,90 C 143,77 166,71 166,71 C 230,50 262,40 262,40 L 282,63 C 260,70 244,75 233,78 C 220,82 200,88 173,95 Z" fill="#FE2910" id="id-76112"></path><path d=" M 166,71 C 172,87 175,95 175,95 C 214,84 233,78 233,78 L 225,52 L 166,71 Z" fill="#FF4F45" id="id-76124"></path><path d=" M 302,76 C 301,69 300,65 300,65 C 290,65 285,65 285,65 L 269,76 C 291,76 302,76 302,76 Z" fill="#C20027" id="id-76125"></path><polygon points="223 88 282 63 223 81" fill="#87080A" id="id-76126"></polygon><path d=" M 188,91 C 192,97 195,100 195,100 C 200,92 203,88 203,88 L 223,83 L 223,81 C 199,88 188,91 188,91 Z" fill="#87080A" id="id-76127"></path><path d=" M 174,53 C 169,61 166,65 166,65 L 181,65 C 176,57 174,53 174,53 Z" fill="#85090C" id="id-76128"></path><path d=" M 87,10 C 93,29 99,46 107,62 C 94,57 81,58 69,50 C 61,34 55,22 50,13 C 47,21 45,25 45,25 C 57,46 63,57 63,57 L 119,84 C 122,83 124,83 124,83 C 122,77 121,74 121,74 C 115,61 107,41 96,13 L 87,10 Z" fill="#85090C" id="id-76112"></path><path d=" M 111,113 C 116,114 119,115 119,115 C 116,123 114,127 114,127 C 123,116 128,111 128,111 L 125,109 C 116,111 111,113 111,113 Z" fill="#87080A" id="id-76130"></path><path d=" M 107,16 C 119,45 130,66 138,79 C 143,77 146,77 146,77 C 138,64 128,44 117,18 L 107,16 Z" fill="#85090C" id="id-76112"></path><path d=" M 229,19 C 219,43 214,55 214,55 C 222,53 226,52 226,52 L 239,16 L 229,19 Z" fill="#85090C" id="id-76112"></path><path d=" M 251,13 C 243,36 239,47 239,47 L 250,44 C 258,21 262,10 262,10 C 262,10 258,11 251,13 Z" fill="#85090C" id="id-76112"></path><path d=" M 296,16 L 289,30 L 300,26 C 298,21 296,18 296,16 Z" fill="#A60000" id="id-76134"></path><path d=" M 313,50 C 297,70 290,80 290,80 C 305,112 315,144 320,176 C 315,179 312,181 312,181 C 308,150 298,116 281,81 C 288,72 298,62 300,57 C 309,52 313,50 313,50 Z" fill="#A60000" id="id-76135"></path><path d=" M 258,133 C 254,129 252,127 252,127 C 260,120 264,116 264,116 C 263,106 263,102 263,102 C 241,110 229,115 229,115 C 232,123 234,127 234,127 C 225,116 220,111 220,111 C 255,98 272,92 272,92 L 272,120 C 263,129 258,133 258,133 Z" fill="#85080A" id="id-76136"></path><path d=" M 291,83 L 287,75 L 281,81 C 295,108 305,140 312,181 L 320,176 C 314,143 305,111 291,83 Z" fill="#85080C" id="id-76137"></path><path d=" M 174,103 L 174,103 L 174,103 L 175,105 C 184,121 193,138 197,151 C 198,163 190,180 174,203 C 159,184 152,167 151,154 C 156,137 164,120 174,103 Z M 174,115 C 165,130 161,139 160,157 C 160,164 162,169 164,174 C 169,187 174,193 174,193 C 181,183 186,170 188,155 C 186,136 179,126 174,115 L 174,115 L 174,115 Z" fill="#85080A" id="id-76110"></path><path d=" M 75,54 C 74,66 73,72 73,72 C 99,75 111,76 111,76 L 112,58 C 87,55 75,54 75,54 Z" fill="#102132" id="id-76139"></path><path d=" M 93,74 C 95,65 95,60 95,60 L 74,57 L 75,54 C 100,57 112,58 112,58 L 112,63 C 108,62 107,62 107,62 L 105,75 C 97,75 93,74 93,74 Z" fill="#A4A7DB" id="id-76140"></path><path d=" M 95,238 C 80,292 72,320 72,320 C 72,401 72,442 72,442 L 95,388 C 95,288 95,238 95,238 Z" fill="#FE2910" id="id-76141"></path></g></g><defs></defs><g transform=" translate(319,534)" id="id-47710"><path d=" M 561,816 L 542,826 L 543,829 L 509,846 L 508,844 L 482,854 L 450,866 L 450,866 L 438,870 L 417,876 L 391,884 L 341,893 L 339,860 L 344,856 L 345,838 L 336,830 L 346,808 L 349,790 L 325,791 L 333,809 L 325,855 L 329,858 L 329,893 C 329,893 304,888 304,888 L 221,857 L 221,857 L 210,852 L 159,832 L 112,813 L 124,766 L 125,766 L 132,765 L 144,718 L 161,635 L 163,623 L 163,620 L 163,618 L 161,598 L 174,587 L 197,544 L 195,517 L 210,512 L 213,477 L 208,473 L 192,460 L 193,452 L 181,476 L 187,522 L 183,542 L 128,656 L 127,658 L 137,682 L 115,706 L 36,553 L 74,507 L 77,504 L 72,461 L 72,457 L 108,225 L 128,159 L 130,153 L 206,120 L 184,110 L 197,95 L 213,78 L 216,32 L 216,30 L 219,2 L 226,39 L 318,82 L 323,143 L 348,142 L 350,85 L 441,45 L 455,4 L 482,46 L 483,49 L 458,74 L 475,100 L 477,103 L 476,104 L 460,118 L 509,135 L 544,153 L 549,163 L 552,177 L 552,179 L 589,353 L 619,452 L 624,515 L 540,667 L 525,630 L 511,597 L 483,538 L 488,512 L 488,461 L 480,449 L 479,453 L 477,464 L 465,473 L 463,475 L 465,479 L 463,512 L 463,517 L 466,519 L 475,527 L 476,528 L 481,552 L 512,628 L 523,636 L 515,655 L 522,670 L 520,688 L 541,766 L 549,768 L 561,816 Z" fill="#98C43D" id="id-47711"></path><polygon points="143 164 146 163 166 172 172 198 152 204" fill="#91C83E" id="id-47711"></polygon><polygon points="165 171 153 209 106 199 118 156" fill="#151515" id="id-47711"></polygon><path d=" M 542,827 L 543,829 L 509,846 L 508,844 L 482,854 L 467,804 L 466,803 L 489,784 L 487,783 L 467,694 L 464,690 L 446,702 L 438,710 L 406,812 L 411,811 L 427,815 L 405,836 L 417,876 L 391,884 L 341,893 L 339,860 L 344,856 L 344,855 L 345,838 L 336,830 L 346,808 L 349,790 L 339,790 L 334,790 L 325,791 L 333,809 L 325,855 L 329,858 L 329,893 C 329,893 304,888 304,888 L 221,857 L 221,857 L 235,816 L 184,757 L 264,786 L 194,703 L 289,778 L 316,775 L 318,774 L 304,763 L 220,698 L 270,712 L 324,714 L 320,633 L 335,653 L 364,704 L 415,677 L 363,678 L 448,651 L 411,525 L 451,534 L 470,528 L 475,527 L 476,528 L 481,552 L 508,618 L 509,620 L 512,628 L 523,636 L 515,655 L 522,670 L 520,688 L 541,766 L 549,768 L 561,816 L 542,826 L 542,827 Z" fill="#5D873C" id="id-47711"></path><polygon points="370 816 380 843 344 855 345 838 336 830 346 808 349 790 339 790 334 790 330 783 349 776 384 755 358 782 358 825" fill="#2A582B" id="id-47711"></polygon><path d=" M 333,783 L 339,790 L 334,790 L 325,791 L 333,809 L 325,855 L 329,858 L 329,863 L 299,849 L 309,802 L 288,789 L 324,782 L 316,775 L 304,763 L 279,740 L 349,776 C 349,776 344,780 341,782 C 338,784 333,783 333,783 Z" fill="#32602E" id="id-47711"></path><polygon points="542 826 542 827 541 827 530 781 530 781 517 784 516 784 492 678 493 674 496 665 509 620 512 628 523 636 522 639 515 655 522 670 520 688 541 766 549 768 550 771 561 816" fill="#029E6A" id="id-47711"></polygon><path d=" M 550,771 L 530,781 L 517,788 L 515,785 L 517,784 L 537,767 L 518,684 L 518,667 L 515,662 L 511,659 C 511,659 502,667 493,674 C 483,682 472,690 472,689 L 496,665 L 522,638 L 522,639 L 515,655 L 522,670 L 520,688 L 541,766 L 549,768 L 550,771 Z" fill="#3D6731" id="id-47711"></path><polygon points="508 844 496 795 526 779 542 830 509 846" fill="#151515" id="id-47711"></polygon><polygon points="377 836 407 831 404 833 380 842" fill="#BE1E2D" opacity="0.100" id="id-47711"></polygon><polygon points="404 833 407 834 487 800 426 815" fill="#2C6130" id="id-47711"></polygon><polygon points="439 747 419 800 438 806" fill="#AEC537" id="id-47711"></polygon><path d=" M 446,835 C 446,840 448,856 450,866 L 438,870 C 437,864 433,830 428,825 L 452,815 C 452,815 445,827 446,835 Z" fill="#AEC537" id="id-47711"></path><path d=" M 233,819 C 233,819 224,819 223,820 C 221,822 211,843 210,853 L 159,832 L 174,794 L 176,794 L 233,819 Z" fill="#B7D333" id="id-47711"></path><polygon points="191 803 191 799 231 809 283 840" fill="#296A35" id="id-47711"></polygon><path d=" M 112,773 C 112,772 113,772 113,771 C 113,772 112,773 112,773 Z" fill="#BE1E2D" opacity="0.100" id="id-47711"></path><polygon points="217 516 197 560 163 645 161 635 163 623 163 620 163 618 161 598 174 587 197 544 195 517 200 515 210 512 210 506 215 507" fill="#689940" id="id-47711"></polygon><polygon points="200 515 197 559 196 552 163 620 163 618 161 598 174 587 197 544 195 517" fill="#437A3A" id="id-47711"></polygon><path d=" M 166,613 L 165,642 C 165,642 155,684 151,708 C 147,731 149,783 149,783 L 125,766 L 132,765 L 144,718 L 163,623 L 163,618 L 166,613 Z" fill="#59823A" id="id-47711"></path><polygon points="123 818 138 772 172 792 158 833" fill="#151515" id="id-47711"></polygon><polygon points="199 780 154 748 181 758" fill="#BAD532" id="id-47711"></polygon><polygon points="237 765 188 741 176 693" fill="#BAD532" id="id-47711"></polygon><polygon points="291 708 224 693 214 646" fill="#BAD532" id="id-47711"></polygon><polygon points="253 681 292 579 228 529 213 555 215 557 218 652" fill="#C1D83B" id="id-47711"></polygon><path d=" M 351,610 C 351,610 363,612 363,612 L 365,645 L 354,650 L 351,610 Z" fill="#BE1E2D" opacity="0.100" id="id-47711"></path><polygon points="387 524 397 524 425 646" fill="#689E41" id="id-47711"></polygon><path d=" M 303,523 C 303,524 302,524 301,525 C 294,529 273,541 273,541 L 252,532 L 253,540 L 296,571 L 302,641 L 307,653 C 307,653 325,642 325,640 C 325,638 310,524 310,524 C 309,524 303,523 303,523 Z" fill="#72A842" id="id-47711"></path><polygon points="301 526 304 557 315 555 310 524" fill="#BE1E2D" opacity="0.100" id="id-47711"></polygon><polygon points="354 653 308 652 306 526 351 529 351 545 353 616" fill="#9A3420" id="id-47711"></polygon><polygon points="312 634 328 646 312 647" fill="#BE1E2D" opacity="0.100" id="id-47711"></polygon><polygon points="353 616 312 588 351 545" fill="#AF4525" id="id-47711"></polygon><polygon points="346 590 345 568 324 586 318 568 345 564 345 553 313 554 313 590" fill="#FBF6F4" id="id-47711"></polygon><path d=" M 218,517 L 208,517 L 207,513 L 210,512 L 210,506 L 210,506 L 215,507 C 215,507 217,515 218,517 Z" fill="#BE1E2D" opacity="0.100" id="id-47711"></path><polygon points="371 477 338 481 300 478 300 473 371 472" fill="#BE1E2D" opacity="0.100" id="id-47711"></polygon><polygon points="624 515 612 537 540 667 511 597 483 538 488 513 488 507 559 514 576 393 547 241 509 430 488 500 488 461 480 449 478 458 477 464 465 473 463 475 465 479 465 480 463 512 397 506 212 489 213 481 213 477 208 473 192 460 193 452 164 430 143 358 168 369 169 318 158 270 173 207 185 252 200 218 180 323 214 307 253 360 278 360 285 387 305 363 313 319 355 332 359 372 349 397 474 362 436 342 500 347 474 220 491 243 499 208 510 242 518 267 519 206 517 197 552 179 589 353 612 429 616 441 619 452 621 483" fill="#69A142" id="id-47711"></polygon><path d=" M 478,458 L 477,464 L 465,473 L 463,475 L 465,478 L 465,480 C 463,481 461,482 461,482 C 461,482 410,476 410,476 L 478,458 Z" fill="#BE1E2D" opacity="0.100" id="id-47711"></path><path d=" M 213,481 L 213,477 L 208,473 L 192,460 L 192,459 L 236,454 L 293,480 C 293,480 241,481 213,481 Z" fill="#47853E" id="id-47711"></path><polygon points="466 519 408 524 383 527 367 528 300 523 257 520 217 517 208 517 207 513 210 512 210 506 210 506 213 477 208 473 253 476 298 479 336 481 373 477 374 477 413 475 414 475 424 475 465 473 463 475 465 479 463 517" fill="#151515" id="id-47711"></polygon><polygon points="374 477 413 475 408 524 407 525 383 527 381 527" fill="#263854" id="id-47711"></polygon><polygon points="424 475 420 498 414 475" fill="#263854" id="id-47711"></polygon><polygon points="300 523 257 520 253 476 298 479" fill="#263854" id="id-47711"></polygon><polygon points="372 533 299 528 299 523 300 478 300 473 371 472 371 477 372 531" fill="#8392B1" id="id-47711"></polygon><polygon points="372 533 299 528 299 523 372 531" fill="#5C739E" id="id-47711"></polygon><polygon points="364 487 363 511 360 511 310 510 305 510 305 488" fill="#BE1C7F" id="id-47711"></polygon><polygon points="360 491 360 511 310 510 310 491" fill="#ED1D8F" id="id-47711"></polygon><polygon points="333 476 366 479 369 473" fill="#CADAF0" id="id-47711"></polygon><polygon points="474 449 456 411 454 410 407 475 406 475 421 423 380 453 372 421 369 408 384 410 417 413 471 383 471 384 456 406 471 389" fill="#0CB188" id="id-47711"></polygon><polygon points="384 410 372 421 369 408" fill="#BE1E2D" opacity="0.100" id="id-47711"></polygon><path d=" M 624,515 L 612,537 C 603,534 595,531 595,531 L 616,441 L 619,452 L 624,515 Z" fill="#BE1E2D" opacity="0.100" id="id-47711"></path><polygon points="649 714 670 729 658 748 633 747 635 794 594 791 595 789 595 789 568 786 564 767 564 767 557 746 538 734 540 728 547 705 547 705 548 701 531 683 531 681 537 659 538 658 565 610 565 610 551 580 552 574 574 547 579 555 599 524 602 530 604 525 619 487 630 549 630 550 650 602 673 688 662 707" fill="#161715" id="id-47711"></polygon><path d=" M 609,746 L 606,755 L 594,791 L 568,786 L 564,767 L 564,767 C 567,758 571,747 571,747 L 609,746 Z" fill="#436C33" id="id-47711"></path><polygon points="606 755 595 789 593 788 595 752" fill="#5C823A" id="id-47711"></polygon><polygon points="590 728 632 714 659 732" fill="#2E384A" id="id-47711"></polygon><path d=" M 600,694 L 598,704 L 558,729 C 558,729 547,728 540,728 L 547,705 L 547,705 L 600,694 Z" fill="#242B3A" id="id-47711"></path><path d=" M 619,660 C 619,660 620,665 599,678 C 563,696 539,659 539,659 L 538,658 L 565,610 C 565,612 566,614 565,616 C 564,643 594,654 594,654 L 604,525 L 619,487 L 630,549 L 619,660 Z" fill="#242B3A" id="id-47711"></path><path d=" M 591,708 C 591,708 612,703 616,690 C 620,677 624,596 624,596 L 617,597 C 617,597 619,598 619,600 C 619,601 614,631 614,633 C 614,636 613,652 610,655 C 607,658 586,675 561,671 C 561,671 578,676 585,676 C 592,677 601,680 599,690 C 597,701 594,704 591,708 Z" fill="#303A4D" id="id-47711"></path><polygon points="621 483 610 494 599 456 612 429 616 441 619 452" fill="#17191A" id="id-47711"></polygon><polygon points="600 502 583 539 567 515 586 478" fill="#17191A" id="id-47711"></polygon><polygon points="558 554 538 592 527 566 547 536" fill="#17191A" id="id-47711"></polygon><polygon points="524 630 531 616 538 639 534 652" fill="#17191A" id="id-47711"></polygon><polygon points="543 523 557 496 549 471 533 506" fill="#17191A" id="id-47711"></polygon><polygon points="565 435 573 417 565 397 558 417" fill="#17191A" id="id-47711"></polygon><path d=" M 596,415 C 596,414 604,400 604,400 L 598,380 L 591,394 L 596,415 Z" fill="#17191A" id="id-47711"></path><polygon points="578 280 558 284 554 252 569 249" fill="#A33822" id="id-47711"></polygon><path d=" M 56,551 L 68,542 L 76,546 L 87,613 C 87,613 59,624 58,618 C 58,613 56,551 56,551 Z" fill="#81AF40" id="id-47711"></path><polygon points="121 700 116 705 120 734 120 740 86 748 83 746 82 757 80 776 51 784 50 785 18 792 13 795 14 740 0 727 16 713 0 685 5 682 20 672 31 665 27 602 29 555 59 525 57 549 66 536 76 562 69 575 73 580 66 592 73 606 79 593 88 610 89 610 97 596 111 623 108 636 132 674 138 683" fill="#151515" id="id-47711"></polygon><path d=" M 52,709 C 52,708 28,687 26,683 L 5,682 L 20,672 C 26,670 42,665 43,664 C 44,662 55,640 55,638 C 55,636 54,617 52,610 C 50,603 50,570 55,559 L 61,572 C 61,572 69,624 76,638 L 88,610 L 89,610 L 97,596 L 111,623 L 108,636 L 132,674 L 50,681 C 48,681 47,683 47,685 C 46,688 47,703 52,709 Z" fill="#232938" id="id-47711"></path><path d=" M 116,705 L 120,734 C 114,733 97,729 87,724 C 87,724 81,719 68,719 C 54,718 48,713 48,713 L 121,700 L 116,705 Z" fill="#232938" id="id-47711"></path><polygon points="82 757 80 776 51 784 50 785 46 769 38 740 47 740 70 739 80 764" fill="#5E833A" id="id-47711"></polygon><polygon points="47 740 46 769 38 740" fill="#779C3E" id="id-47711"></polygon><polygon points="94 676 55 680 74 645 63 612" fill="#2F394C" id="id-47711"></polygon><polygon points="187 522 183 542 137 638 128 656 123 637 101 553 142 563 172 487 161 427 181 490" fill="#8ABB3F" id="id-47711"></polygon><polygon points="108 572 124 634 127 599" fill="#68973F" id="id-47711"></polygon><polygon points="122 595 134 575 148 603 135 623" fill="#222836" id="id-47711"></polygon><polygon points="137 638 128 656 123 637 133 625" fill="#222836" id="id-47711"></polygon><polygon points="117 617 106 572 106 598" fill="#222836" id="id-47711"></polygon><polygon points="96 573 107 547 92 521 81 544" fill="#222836" id="id-47711"></polygon><polygon points="74 507 77 504 72 461 124 530" fill="#87B940" id="id-47711"></polygon><polygon points="72 485 81 496 82 515 66 516 76 501" fill="#1A1C16" id="id-47711"></polygon><polygon points="122 520 104 479 110 460 129 501" fill="#222836" id="id-47711"></polygon><path d=" M 113,512 L 118,342 C 118,342 112,437 100,458 C 100,458 87,461 75,459 L 113,512 Z" fill="#BAD532" id="id-47711"></path><polygon points="74 433 82 449 75 465 70 457" fill="#262D34" id="id-47711"></polygon><polygon points="101 246 97 276 128 279 133 251" fill="#A33822" id="id-47711"></polygon><polygon points="252 462 283 455 295 479 290 479" fill="#BE1E2D" opacity="0.100" id="id-47711"></polygon><polygon points="247 459 251 462 277 457 273 455 301 442 283 426" fill="#A2CD3A" id="id-47711"></polygon><polygon points="253 439 277 412 210 383 209 384" fill="#20AE6C" id="id-47711"></polygon><path d=" M 349,471 C 349,471 351,470 351,469 C 351,468 349,425 348,427 C 348,428 348,469 349,471 Z" fill="#BE1E2D" opacity="0.100" id="id-47711"></path><polygon points="349 455 360 456 361 472 349 472" fill="#141412" id="id-47711"></polygon><polygon points="359 372 377 324 387 368 415 332 476 345 436 342 471 361 416 378 366 381 360 385 388 385 350 396" fill="#87BC36" id="id-47711"></polygon><path d=" M 377,324 L 376,227 L 355,301 L 356,345 C 356,345 359,372 359,372 C 359,371 377,324 377,324 Z" fill="#A9D748" id="id-47711"></path><polygon points="198 439 192 455 193 452 181 476 182 484 166 438 164 430 164 430 180 394 177 382 181 357 200 381 196 436" fill="#387B3B" id="id-47711"></polygon><polygon points="285 387 276 388 205 361 227 343 179 352 177 336 180 323 214 307 253 360 278 360" fill="#88BE35" id="id-47711"></polygon><path d=" M 530,602 L 525,630 L 511,597 L 483,538 L 488,513 L 480,449 L 479,453 L 474,385 L 493,355 L 495,355 L 481,450 C 481,450 500,447 499,447 C 499,446 513,408 514,407 L 493,505 L 530,602 Z" fill="#3C7F3D" id="id-47711"></path><polygon points="556 589 565 610 538 659 534 650 537 639 532 622" fill="#4A7938" id="id-47711"></polygon><polygon points="354 304 364 306 366 340 355 344" fill="#181A12" id="id-47711"></polygon><polygon points="432 322 423 185 429 177 476 225 485 274" fill="#C9DB32" id="id-47711"></polygon><polygon points="485 268 487 275 360 272 361 261" fill="#151515" id="id-47711"></polygon><polygon points="415 276 448 279 432 295" fill="#151515" id="id-47711"></polygon><polygon points="444 262 457 246 467 265" fill="#C14F2A" id="id-47711"></polygon><polygon points="448 251 443 256 395 257 395 251" fill="#FAF4F1" id="id-47711"></polygon><path d=" M 360,385 C 360,385 432,386 433,385 C 434,384 479,375 479,375 L 496,353 L 416,378 L 366,381 L 360,385 Z" fill="#1B1E1A" id="id-47711"></path><path d=" M 289,391 L 259,390 L 199,381 L 180,355 C 180,355 286,388 289,391 Z" fill="#17191A" id="id-47711"></path><path d=" M 176,317 C 176,316 189,274 189,274 L 179,231 L 176,317 Z" fill="#29753A" id="id-47711"></path><polygon points="313 319 251 170 314 246 313 309" fill="#83B92C" id="id-47711"></polygon><polygon points="215 132 235 140 245 181 203 306 200 209 184 220 182 190" fill="#CADB2F" id="id-47711"></polygon><path d=" M 317,143 C 317,143 317,301 313,309 L 311,241 L 310,148 L 216,133 L 226,160 L 196,136 L 149,152 L 155,162 L 128,159 L 130,153 L 206,120 L 184,110 L 197,95 L 246,76 L 311,119 L 289,119 L 310,143 L 317,143 Z" fill="#70AF43" id="id-47711"></path><polygon points="310 196 295 177 310 157" fill="#9CCB3B" id="id-47711"></polygon><polygon points="508 618 495 628 470 529 475 527 476 528 481 552" fill="#00A57C" id="id-47711"></polygon><polygon points="503 305 506 263 491 243 499 208 510 242 512 301" fill="#82BE41" id="id-47711"></polygon><polygon points="189 266 190 273 309 269 309 262" fill="#151515" id="id-47711"></polygon><polygon points="230 276 253 296 273 274" fill="#151515" id="id-47711"></polygon><polygon points="552 177 509 181 485 213 419 153 392 199 356 183 354 145 432 108 476 104 471 108 460 118 463 119 509 135 544 153 549 163" fill="#6FAD43" id="id-47711"></polygon><polygon points="510 177 522 218 578 201 565 159 562 157" fill="#161616" id="id-47711"></polygon><path d=" M 455,4 L 444,46 L 410,61 L 354,85 L 354,95 L 354,118 L 353,143 L 359,146 L 361,188 C 361,188 350,191 350,191 L 349,146 L 316,146 L 316,116 L 316,96 L 316,83 L 271,63 L 222,41 L 221,34 L 221,34 L 220,18 L 219,1 C 223,0 225,1 225,1 C 225,1 226,7 226,13 C 226,19 227,26 227,30 C 227,30 227,30 227,30 C 227,33 227,35 227,35 L 276,58 L 288,64 L 318,79 L 324,79 L 324,97 L 324,116 L 324,140 L 344,140 L 345,118 L 345,95 L 345,79 L 351,78 L 393,60 L 402,57 L 440,40 L 448,5 L 455,3 L 455,4 Z" fill="#151515" id="id-47711"></path><polygon points="348 397 349 472 312 473 308 473 306 473 303 473 304 403 304 391 312 344 313 342 313 289 312 144 349 145 354 258 357 347 357 348" fill="#A33822" id="id-47711"></polygon><polygon points="357 347 357 348 312 344 313 342 313 289 354 258" fill="#C14F2D" id="id-47711"></polygon><polygon points="306 473 303 473 304 403 304 397" fill="#CC5927" id="id-47711"></polygon><polygon points="346 432 312 473 308 473 304 413" fill="#B04325" id="id-47711"></polygon><polygon points="330 434 330 448 340 448 341 435" fill="#FBF7F5" id="id-47711"></polygon><polygon points="320 315 323 317 323 347 319 345" fill="#FDF8F7" id="id-47711"></polygon><path d=" M 460,118 L 463,119 L 429,134 L 395,129 L 433,110 C 433,110 460,109 471,108 L 460,118 Z" fill="#317F3E" id="id-47711"></path><path d=" M 458,75 L 475,100 C 466,101 427,106 427,106 L 353,142 L 395,98 L 385,92 L 482,46 L 483,49 L 458,75 Z" fill="#6FAD43" id="id-47711"></path><path d=" M 354,95 L 354,118 L 345,118 L 345,95 C 347,95 352,95 354,95 Z" fill="#2E384A" id="id-47711"></path><polygon points="358 97 357 112 368 112 366 100" fill="#151515" id="id-47711"></polygon><polygon points="455 4 444 46 410 61 402 57 440 40 448 5 455 3" fill="#253752" id="id-47711"></polygon><path d=" M 297,97 L 309,98 L 306,113 C 306,113 297,113 297,113 C 297,112 297,97 297,97 Z" fill="#151515" id="id-47711"></path><polygon points="214 113 234 106 261 119" fill="#29783B" id="id-47711"></polygon><polygon points="324 116 316 116 316 96 324 97" fill="#2E384A" id="id-47711"></polygon><polygon points="230 62 213 78 216 32" fill="#77B643" id="id-47711"></polygon><path d=" M 276,58 L 271,63 L 222,41 L 221,34 L 227,30 C 227,33 227,35 227,35 L 276,58 Z" fill="#2E384A" id="id-47711"></path><path d=" M 221,34 L 221,34 L 220,18 L 226,13 C 226,19 227,26 227,30 C 227,30 227,30 227,30 L 221,34 Z" fill="#BE1E2D" opacity="0.100" id="id-47711"></path></g><defs><linearGradient x1="50%" y1="100%" x2="50%" y2="0%" id="id-51872"><stop stop-color="#251918" offset="0%"></stop><stop stop-color="#241D2A" offset="100%"></stop></linearGradient><linearGradient x1="50%" y1="100%" x2="50%" y2="0%" id="id-51873"><stop stop-color="#1C2A51" offset="0%"></stop><stop stop-color="#1C2B52" offset="100%" stop-opacity="0"></stop></linearGradient><linearGradient x1="50%" y1="100%" x2="50%" y2="0%" id="id-51874"><stop stop-color="#1C2A51" offset="0%"></stop><stop stop-color="#1C2B52" offset="100%" stop-opacity="0"></stop></linearGradient></defs><g transform=" translate(492,641)" id="id-51875"><path d=" M 234,81 L 266,176 C 266,176 294,250 307,264 L 310,259 C 310,259 297,198 270,85 C 270,85 304,44 330,26 L 328,20 L 298,2 C 298,2 273,20 239,69 L 93,69 C 93,69 76,35 31,1 L 0,19 L 0,25 C 0,25 45,55 62,84 C 62,84 43,210 20,257 L 26,267 C 26,267 85,146 96,84 L 234,81 Z" fill="#1B141C" id="id-51876"></path><path d=" M 259,303 L 259,311 L 260,334 L 266,334 L 264,346 L 261,346 L 266,445 L 266,451 L 272,588 L 270,588 L 272,595 L 272,595 L 277,679 L 238,679 L 237,457 L 236,344 L 233,344 L 231,332 L 235,332 L 234,316 C 159,302 99,310 99,310 L 100,328 L 103,328 L 102,336 L 99,340 L 96,459 L 96,499 L 94,699 L 55,695 L 59,616 L 60,617 L 62,609 L 59,608 L 64,497 L 66,456 L 67,448 L 72,337 L 72,302 L 64,300 L 52,298 L 20,298 L 26,267 L 66,266 C 61,264 57,262 57,260 L 57,213 L 63,202 L 78,163 L 80,157 L 83,152 L 96,144 L 242,146 L 251,150 L 252,158 L 254,163 L 273,202 L 277,207 L 275,261 L 271,264 L 307,264 L 304,296 L 293,296 L 270,297 L 264,303 L 259,303 Z" fill="#1B141C" id="id-51876"></path><polygon points="94 604 56 598 55 613 94 617" fill="#575E87" id="id-51876"></polygon><path d=" M 238,597 L 276,597 L 276,583 L 238,582 C 238,588 238,593 238,597 Z" fill="#575E87" id="id-51876"></path><polygon points="275 261 274 269 280 270 275 294 271 294 270 301 281 296 285 265" fill="#404856" id="id-51876"></polygon><polygon points="261 346 236 344 233 344 231 332 235 332 237 341 259 343 260 334 266 334 264 346" fill="#404856" id="id-51876"></polygon><polygon points="100 328 99 335 87 342 72 331 72 328 68 328 69 335 72 337 87 346 99 340 102 336 103 328" fill="#404856" id="id-51876"></polygon><polygon points="65 296 64 300 52 298 48 264 62 260 61 268 53 270 55 291" fill="#404856" id="id-51876"></polygon><polyline points="247 69 252 76 246 83" stroke="#404856" stroke-width="7" id="id-51876"></polyline><polyline points="83 67 76 77 82 84" stroke="#404856" stroke-width="7" id="id-51876"></polyline><polygon points="263 231 263 188 241 153 94 153 74 189 74 231" fill="#575E87" id="id-51876"></polygon><path d=" M 272,151 L 252,158 L 254,163 L 273,202 L 286,180 L 272,151 Z M 264,162 L 269,158 L 279,180 L 276,186 L 264,162 Z" fill="#383F64" id="id-51887" fill-rule="nonzero"></path><path d=" M 48,182 L 63,202 L 78,163 L 80,157 L 59,152 L 48,182 Z M 59,187 L 54,182 L 63,159 L 68,162 L 59,187 Z" fill="#383F64" id="id-51887" fill-rule="nonzero"></path><polygon points="257 224 257 189 243 165 94 165 80 191 80 224" fill="#383F64" id="id-51876"></polygon><path d=" M 92,216 C 93,216 93,216 94,215 C 94,215 95,214 95,214 L 98,198 C 98,197 97,196 97,196 C 97,195 96,195 95,195 L 93,195 C 92,195 91,195 91,196 C 90,196 90,197 90,198 L 87,214 C 87,214 87,215 87,215 C 88,216 88,216 89,216 L 92,216 Z M 90,214 C 90,214 90,214 90,213 C 89,213 89,213 89,213 L 92,198 C 92,198 92,198 92,198 C 92,197 92,197 93,197 L 94,197 C 94,197 94,197 94,198 C 94,198 94,198 94,198 L 92,213 C 92,213 92,213 92,213 C 91,214 91,214 91,214 L 90,214 Z M 102,216 C 103,216 104,216 104,215 C 105,215 105,214 105,214 L 106,207 C 106,207 106,207 106,207 C 106,206 106,206 106,206 C 106,206 106,206 106,206 C 106,206 106,206 105,206 C 106,206 106,206 106,205 C 106,205 106,205 106,205 C 106,205 107,205 107,205 C 107,204 107,204 107,204 L 108,198 C 108,197 108,196 108,196 C 107,195 107,195 106,195 L 100,195 L 97,216 L 102,216 Z M 102,204 L 104,197 L 105,197 C 105,197 105,197 106,198 C 106,198 106,198 106,198 L 105,203 C 105,203 105,204 105,204 C 104,204 104,204 104,204 L 102,204 Z M 101,214 L 102,207 L 104,207 C 104,207 104,207 104,207 C 104,207 104,208 104,208 L 103,213 C 103,213 103,213 103,213 C 103,214 103,214 102,214 L 101,214 Z M 113,216 C 114,216 114,216 115,215 C 115,215 116,214 116,214 L 117,207 C 117,206 117,206 117,205 C 116,205 116,204 115,204 L 113,204 C 113,204 113,204 113,204 C 113,204 112,204 113,204 L 113,198 C 113,198 114,198 114,198 C 114,198 114,198 114,198 L 115,198 C 115,198 116,198 116,198 C 116,198 116,198 116,198 L 115,202 L 118,202 L 119,198 C 119,197 119,196 118,196 C 118,195 117,195 117,195 L 114,195 C 113,195 112,195 112,196 C 111,196 111,197 111,198 L 110,204 C 110,205 110,206 110,206 C 111,207 111,207 112,207 L 114,207 C 114,207 114,207 114,207 C 114,207 114,207 114,208 L 113,213 C 113,213 113,213 113,213 C 113,213 113,213 113,213 L 111,213 C 111,213 111,213 111,213 C 111,213 111,213 111,213 L 112,209 L 109,209 L 108,214 C 108,214 108,215 109,215 C 109,216 110,216 110,216 L 113,216 Z M 126,216 L 126,213 L 123,213 L 124,207 L 127,207 L 128,204 L 124,204 L 125,198 L 129,198 L 129,195 L 123,195 L 119,216 L 126,216 Z M 130,216 L 132,207 L 133,207 L 134,216 L 137,216 L 136,207 C 136,206 137,206 137,206 C 137,205 138,205 138,204 L 139,198 C 139,197 139,196 138,196 C 138,195 137,195 137,195 L 131,195 L 128,216 L 130,216 Z M 132,204 L 134,197 L 135,197 C 135,197 136,197 136,198 C 136,198 136,198 136,198 L 135,203 C 135,203 135,204 135,204 C 134,204 134,204 134,204 L 132,204 Z M 144,216 L 150,195 L 148,195 L 143,209 L 143,209 L 144,195 L 141,195 L 141,216 L 144,216 Z M 156,216 L 156,213 L 153,213 L 154,207 L 157,207 L 158,204 L 154,204 L 155,198 L 159,198 L 159,195 L 153,195 L 150,216 L 156,216 Z M 160,216 L 162,207 L 163,207 L 164,216 L 167,216 L 166,207 C 166,206 167,206 167,206 C 167,205 168,205 168,204 L 169,198 C 169,197 169,196 169,196 C 168,195 168,195 167,195 L 161,195 L 158,216 L 160,216 Z M 163,204 L 164,197 L 166,197 C 166,197 166,197 166,198 C 167,198 167,198 167,198 L 166,203 C 166,203 166,204 165,204 C 165,204 165,204 165,204 L 163,204 Z" fill="#FAA000" id="id-51890" fill-rule="nonzero"></path><polygon points="64 213 65 226 71 211 71 198" fill="#383F64" id="id-51876"></polygon><polygon points="71 198 71 239 261 239 271 231 266 294 72 291 64 213" fill="url(#id-51872)" id="id-51876"></polygon><polygon points="90 175 95 167 175 167 175 175" fill="#9A5F0B" id="id-51876"></polygon><polygon points="181 200 245 200 245 185 236 168 181 168" stroke="#9A5F0B" stroke-width="3" id="id-51876"></polygon><polygon points="188 175 195 175 195 189 202 189 202 176 208 176 208 196 188 196" fill="#9A5F0B" id="id-51876"></polygon><polygon points="212 175 212 183 239 183 234 175" fill="#9A5F0B" id="id-51876"></polygon><rect fill="#9A5F0B" width="27" height="8" x="212" y="188" id="id-51897"></rect><rect fill="#9A5F0B" width="17" height="5" x="81" y="249" id="id-51897"></rect><path d=" M 81,258 L 81,282 L 98,282 L 98,258 L 81,258 Z M 83,266 L 83,259 L 89,263 L 83,266 Z" fill="#9A5F0B" id="id-51887" fill-rule="nonzero"></path><polygon points="109 248 188 248 202 265 188 283 109 283" stroke="#9A5F0B" stroke-width="3" id="id-51876"></polygon><polygon points="178 252 187 252 197 265 186 280 177 280 187 265" fill="#9A5F0B" id="id-51876"></polygon><polygon points="159 252 168 252 178 265 167 280 158 280 168 265" fill="#9A5F0B" id="id-51876"></polygon><polygon points="140 252 149 252 159 265 148 280 139 280 149 265" fill="#9A5F0B" id="id-51876"></polygon><polygon points="120 252 130 252 140 265 129 280 120 280 130 265" fill="#9A5F0B" id="id-51876"></polygon><polygon points="66 482 96 483 96 459 99 340 87 346 72 337" fill="url(#id-51873)" id="id-51876"></polygon><polygon points="237 482 266 482 266 451 261 347 236 344" fill="url(#id-51874)" id="id-51876"></polygon><polygon points="272 151 254 163 252 158" fill="#848EC6" id="id-51876"></polygon><polygon points="59 152 78 163 80 157" fill="#848EC6" id="id-51876"></polygon><path d=" M 298,2 C 292,7 286,12 281,18 L 309,35 L 329,20 L 298,2 Z" fill="#354E89" id="id-51876"></path><path d=" M 0,19 C 0,19 13,28 21,34 L 48,15 C 48,15 37,5 31,1 L 0,19 Z" fill="#354E89" id="id-51876"></path></g><defs><linearGradient x1="0%" y1="50%" x2="100%" y2="50%" id="id-54013"><stop stop-color="#95946F" offset="0%"></stop><stop stop-color="#5C5B3C" offset="100%"></stop></linearGradient><linearGradient x1="100%" y1="50%" x2="0%" y2="50%" id="id-54014"><stop stop-color="#575637" offset="0%"></stop><stop stop-color="#9A9462" offset="100%"></stop></linearGradient><linearGradient x1="50%" y1="27%" x2="67%" y2="89%" id="id-54015"><stop stop-color="#333949" offset="0%" stop-opacity="0"></stop><stop stop-color="#424C65" offset="39%"></stop><stop stop-color="#333949" offset="100%" stop-opacity="0"></stop></linearGradient></defs><g transform=" translate(420,1032)" id="id-54016"><path d=" M 369,28 C 379,34 421,14 421,14 C 434,13 440,13 440,13 C 441,16 442,17 442,17 C 442,15 442,14 442,14 C 447,14 450,14 450,14 L 452,18 C 448,23 446,25 446,25 C 451,25 454,25 454,25 C 454,51 455,64 455,64 C 452,61 451,60 451,60 C 446,58 443,57 443,57 C 440,61 439,63 439,63 C 436,64 434,64 434,64 C 433,66 433,67 433,67 C 427,69 422,69 422,69 C 406,81 398,86 398,86 C 303,152 255,185 255,185 C 256,186 257,187 257,187 C 248,193 244,196 244,196 C 241,191 239,189 239,189 C 237,194 236,196 236,196 C 229,199 226,200 226,200 C 228,203 229,205 229,205 C 221,210 217,213 217,213 C 216,212 216,211 216,211 C 163,247 136,265 136,265 C 139,267 141,269 141,269 C 127,293 119,306 119,306 C 116,342 115,360 115,360 C 158,376 196,391 229,403 L 222,446 L 112,404 L 109,472 L 47,476 L 0,446 L 8,392 L 9,372 L 22,304 L 21,259 L 34,249 L 77,252 L 106,236 L 113,242 L 199,186 L 198,185 L 209,177 L 213,183 L 216,178 L 228,174 L 223,168 L 235,160 L 237,162 L 345,90 L 201,91 L 201,87 L 182,86 L 182,91 L 175,87 L 167,188 C 164,190 162,191 162,191 L 94,187 C 87,180 83,177 83,177 C 89,109 91,74 91,74 C 91,74 90,74 90,74 C 82,140 78,173 78,173 C 68,176 64,177 64,177 C 76,84 82,37 82,37 C 90,37 94,37 94,37 C 95,31 123,30 178,33 L 191,49 L 302,49 C 343,32 365,25 369,28 Z" fill="#150D1B" id="id-54017"></path><path d=" M 391,228 L 326,235 C 296,238 281,239 281,239 L 287,66 L 416,159 L 391,228 Z" fill="#09140B" fill-opacity="0.700" id="id-54018"></path><path d=" M 95,34 C 94,36 94,37 94,37 C 82,38 71,38 61,35 C 61,33 61,29 67,29 C 77,30 95,34 95,34 Z" fill="#6C94D2" id="id-54019"></path><path d=" M 182,87 C 186,88 188,88 188,88 C 177,156 172,190 172,190 C 167,193 165,195 165,195 C 139,197 127,198 127,198 L 92,187 L 162,191 L 167,188 L 175,87 L 182,91 L 182,87 Z" fill="#352202" id="id-54020"></path><path d=" M 45,166 C 51,171 57,175 64,176 L 82,37 L 61,35 C 54,90 49,134 45,166 Z" fill="#354E76" id="id-54021"></path><path d=" M 43,164 C 42,164 41,166 40,170 L 44,180 L 58,188 C 71,186 78,186 78,186 C 79,177 79,172 79,172 L 64,176 C 58,174 51,170 43,164 Z" fill="#D36300" id="id-54022"></path><path d=" M 60,101 C 57,131 55,147 55,147 C 59,149 60,150 60,150 L 66,103 C 62,102 60,101 60,101 Z" fill="#06D979" id="id-54023"></path><path d=" M 55,92 C 54,96 53,98 53,98 C 64,101 70,103 70,103 C 80,99 85,98 85,98 L 73,100 C 61,95 55,92 55,92 Z" fill="#6A92D0" id="id-54024"></path><path d=" M 70,33 C 76,39 79,42 79,42 L 89,35 C 77,33 70,33 70,33 Z" fill="#B6DDFC" id="id-54025"></path><path d=" M 84,178 C 85,179 86,180 86,180 L 157,184 L 168,26 L 95,24 C 88,127 84,178 84,178 Z" fill="#2C293C" id="id-54026"></path><path d=" M 84,171 C 97,164 104,160 104,160 C 127,161 139,161 139,161 C 152,172 158,178 158,178 C 159,169 160,164 160,164 C 149,157 143,154 143,154 C 145,122 146,105 146,105 C 157,98 163,94 163,94 C 162,91 161,90 161,90 C 164,47 166,26 166,26 C 119,25 96,24 96,24 C 93,67 91,89 91,89 C 92,89 93,89 93,89 C 103,100 108,106 108,106 C 106,136 104,151 104,151 L 85,161 C 84,168 84,171 84,171 Z" fill="#D76801" id="id-54027"></path><path d=" M 126,97 C 129,97 130,97 130,97 C 144,84 151,77 151,77 C 153,43 154,26 154,26 C 121,25 105,24 105,24 L 101,71 C 118,88 126,97 126,97 Z" fill="#2B283B" id="id-54028"></path><path d=" M 106,69 C 135,74 150,76 150,76 C 151,49 152,36 152,36 L 109,33 C 107,57 106,69 106,69 Z" fill="#3D415E" id="id-54029"></path><path d=" M 109,35 C 109,39 109,42 109,42 C 138,42 152,43 152,43 L 150,34 C 122,35 109,35 109,35 Z" fill="#04E279" id="id-54030"></path><path d=" M 118,80 C 121,79 138,81 138,81 L 127,90 C 123,85 120,81 118,80 Z" fill="#04E279" id="id-54031"></path><path d=" M 114,100 C 113,118 113,127 113,127 C 130,127 138,127 138,127 C 140,109 140,100 140,100 L 124,110 C 118,103 114,100 114,100 Z" fill="#7D461F" id="id-54032"></path><path d=" M 161,95 C 163,95 165,95 165,95 C 171,98 175,100 175,100 C 177,55 178,33 178,33 L 167,26 L 166,26 L 161,90 L 163,94 C 162,95 161,95 161,95 Z" fill="#872800" id="id-54033"></path><path d=" M 2,447 L 0,446 L 8,392 C 8,384 8,381 8,381 C 58,382 83,383 83,383 C 84,380 84,378 84,378 C 90,354 93,342 93,342 L 87,449 L 2,447 Z" fill="#1D2B4F" id="id-54034"></path><path d=" M 42,393 C 52,393 57,393 57,393 L 41,407 C 42,397 42,393 42,393 Z" fill="#9399A7" id="id-54035"></path><path d=" M 47,415 C 55,424 59,429 59,429 L 60,401 C 51,410 47,415 47,415 Z" fill="#D76801" id="id-54036"></path><path d=" M 417,137 C 417,116 418,105 418,105 C 400,93 391,86 391,86 L 361,14 L 317,10 L 313,59 L 314,89 L 306,124 L 307,133 L 412,138 C 415,137 417,137 417,137 Z" fill="#3B3B23" id="id-54037"></path><path d=" M 38,436 C 38,439 38,441 38,441 C 63,442 76,442 76,442 C 77,415 77,401 77,401 C 78,395 79,393 79,393 C 75,392 73,392 73,392 L 72,437 C 50,437 38,436 38,436 Z" fill="#9399A7" id="id-54038"></path><path d=" M 2,371 C 7,372 9,373 9,373 C 56,375 80,376 80,376 C 87,332 90,311 90,311 C 38,310 12,310 12,310 L 12,319 C 5,354 2,371 2,371 Z" fill="#1E2541" id="id-54039"></path><path d=" M 12,310 C 16,307 20,305 22,304 C 64,310 99,304 99,304 L 88,311 C 37,310 12,310 12,310 Z" fill="#555C79" id="id-54040"></path><path d=" M 64,363 C 64,366 64,368 64,368 C 27,366 9,365 9,365 L 12,361 C 47,363 64,363 64,363 Z" fill="#9D0201" id="id-54041"></path><path d=" M 79,258 C 77,257 76,257 76,257 C 95,244 105,237 105,237 C 128,259 139,270 139,270 L 106,242 C 88,253 79,258 79,258 Z" fill="#1B2C51" id="id-54042"></path><path d=" M 148,222 C 162,234 170,240 170,240 C 188,228 197,222 197,222 L 173,206 C 156,217 148,222 148,222 Z" fill="#1A2C52" id="id-54043"></path><path d=" M 216,211 C 223,207 226,205 226,205 L 210,182 L 201,188 C 211,203 216,211 216,211 Z" fill="#3F4754" id="id-54044"></path><path d=" M 199,185 C 201,187 201,188 201,188 C 207,183 210,181 210,181 L 208,178 C 202,183 199,185 199,185 Z" fill="#6584BA" id="id-54045"></path><path d=" M 213,187 C 215,181 216,179 216,179 C 224,176 229,175 229,175 C 235,183 238,188 238,188 C 237,193 236,195 236,195 C 228,198 223,200 223,200 L 228,205 L 226,205 C 218,193 213,187 213,187 Z" fill="#383A47" id="id-54046"></path><path d=" M 291,224 C 370,227 410,229 410,229 C 416,226 419,224 419,224 C 412,223 408,222 408,222 C 412,213 413,209 413,209 C 414,207 414,205 414,205 L 417,137 C 414,137 412,138 412,138 C 342,135 307,133 307,133 C 306,127 306,124 306,124 L 311,102 C 313,93 314,89 314,89 C 313,69 313,59 313,59 C 316,26 317,10 317,10 C 312,8 310,7 310,7 L 305,10 L 299,99 L 292,133 C 289,153 287,163 287,163 L 294,159 L 294,164 L 291,191 C 291,213 291,224 291,224 Z" fill="#0A150A" id="id-54047"></path><path d=" M 234,162 C 248,178 255,187 255,187 L 244,195 L 224,169 C 231,164 234,162 234,162 Z" fill="#3F4754" id="id-54048"></path><path d=" M 216,179 C 216,180 216,181 216,181 C 223,179 226,177 226,177 L 227,175 C 220,177 216,179 216,179 Z" fill="#6584BA" id="id-54049"></path><path d=" M 224,169 C 231,164 234,162 234,162 C 236,163 237,164 237,164 L 226,171 C 225,170 224,169 224,169 Z" fill="#6584BA" id="id-54050"></path><path d=" M 254,153 C 257,172 258,181 258,181 C 256,183 254,184 254,184 L 238,163 C 249,156 254,153 254,153 Z" fill="#1D213A" id="id-54051"></path><path d=" M 283,200 C 287,201 288,201 288,201 C 290,173 291,159 291,159 C 286,161 284,162 284,162 L 285,164 C 284,188 283,200 283,200 Z" fill="#3B3B23" id="id-54052"></path><path d=" M 294,104 C 290,99 288,97 288,97 L 291,62 L 297,61 C 295,90 294,104 294,104 Z" fill="#3C3C22" id="id-54053"></path><path d=" M 289,191 C 290,173 290,164 290,164 C 293,164 294,164 294,164 C 294,165 294,165 294,165 C 372,167 411,167 411,167 L 409,196 C 329,193 289,191 289,191 Z" fill="#575637" id="id-54054"></path><path d=" M 303,168 C 303,170 302,178 301,192 L 409,196 L 411,171 C 360,168 324,167 303,168 Z" fill="url(#id-54013)" id="id-54055"></path><path d=" M 304,199 C 303,210 303,215 303,215 C 373,220 408,222 408,222 C 412,213 413,209 413,209 L 409,200 C 339,200 304,199 304,199 Z" fill="#3B3B23" id="id-54056"></path><path d=" M 305,133 C 304,149 304,156 304,156 C 375,160 411,162 411,162 L 412,138 C 341,135 305,133 305,133 Z" fill="url(#id-54014)" id="id-54057"></path><path d=" M 295,123 C 360,126 392,128 392,128 C 392,113 393,106 393,106 C 336,103 308,102 308,102 C 302,100 299,99 299,99 C 299,98 299,97 299,97 L 295,97 C 295,115 295,123 295,123 Z" fill="#575637" id="id-54058"></path><path d=" M 308,102 C 307,116 306,124 306,124 L 349,126 C 343,122 340,121 340,121 L 355,104 L 308,102 Z" fill="#938E5F" id="id-54059"></path><path d=" M 298,58 C 297,79 296,89 296,89 C 346,92 371,93 371,93 C 372,74 372,64 372,64 C 360,64 354,63 354,63 C 344,71 338,75 338,75 L 322,60 C 306,58 298,58 298,58 Z" fill="#575637" id="id-54060"></path><path d=" M 310,59 L 308,89 L 371,93 L 372,64 L 354,63 L 338,75 L 322,60 C 314,59 310,59 310,59 Z" fill="#878357" id="id-54061"></path><path d=" M 340,68 C 347,67 359,58 359,58 C 358,27 358,11 358,11 C 355,6 354,4 354,4 C 329,2 316,0 316,0 C 312,6 309,8 309,8 C 320,10 325,11 325,11 L 323,54 C 331,61 336,66 340,68 Z" fill="#908C5F" id="id-54062"></path><path d=" M 329,52 C 336,59 340,63 340,63 C 348,57 352,55 352,55 L 340,40 C 333,48 329,52 329,52 Z" fill="#0D190D" id="id-54063"></path><polygon points="311 9 317 2 324 3 324 11 325 11 325 24 319 10" fill="#383C23" id="id-54064"></polygon><path d=" M 281,227 C 281,235 281,239 281,239 C 311,236 326,235 326,235 C 332,229 334,226 334,226 L 291,224 C 284,226 281,227 281,227 Z" fill="#0A110A" id="id-54065"></path><path d=" M 201,91 C 201,83 201,77 201,73 C 225,76 246,69 264,52 C 266,57 265,70 263,91 C 253,91 232,91 201,91 Z" fill="#2D2C39" id="id-54066"></path><path d=" M 261,61 L 265,61 L 265,65 L 281,76 C 291,66 297,61 297,61 C 295,84 294,95 294,95 C 281,98 274,99 274,99 C 276,139 277,158 277,158 C 278,158 279,158 279,158 C 284,161 286,163 286,163 C 284,188 283,201 283,201 L 271,201 C 271,181 270,163 267,147 C 265,119 263,90 261,61 Z" fill="#575637" id="id-54067"></path><polygon points="201 48 201 89 203 90 203 50 271 49 271 48" fill="#3C4351" id="id-54068"></polygon><path d=" M 266,53 C 284,51 292,50 292,50 L 266,48 L 266,53 Z" fill="#9A9CC5" id="id-54069"></path><path d=" M 255,62 C 254,83 253,93 253,93 C 249,93 247,93 247,93 C 256,167 261,205 261,205 C 278,217 287,223 287,223 C 287,208 287,201 287,201 L 265,200 C 259,108 255,62 255,62 Z" fill="#362916" fill-opacity="0.800" id="id-54070"></path><path d=" M 292,133 L 293,157 L 304,156 L 305,133 C 297,133 292,133 292,133 Z" fill="#575637" id="id-54071"></path><path d=" M 408,222 L 419,224 C 425,145 428,106 428,106 C 405,91 394,84 394,84 C 373,37 362,14 362,14 L 360,14 L 362,17 L 391,86 L 418,105 L 414,205 L 413,209 L 408,222 Z" fill="#7B7853" id="id-54072"></path><path d=" M 392,66 C 391,68 391,70 390,73 L 397,71 L 405,73 C 408,71 412,69 416,67 C 420,70 426,69 433,67 L 436,59 C 434,59 432,61 429,63 C 425,64 418,62 418,62 L 406,67 C 402,66 397,66 392,66 Z" fill="#2C2839" id="id-54073"></path><path d=" M 450,69 C 451,69 453,67 455,64 L 451,60 L 443,57 L 439,63 C 444,63 447,65 450,69 Z" fill="#2C293C" id="id-54074"></path><path d=" M 452,18 C 446,19 443,19 443,19 C 443,38 442,48 442,48 C 450,49 454,50 454,50 C 454,33 454,24 454,24 C 450,24 448,24 448,24 L 453,22 C 453,19 452,18 452,18 Z" fill="#606489" id="id-54075"></path><path d=" M 443,31 L 454,31 L 454,24 L 448,24 C 451,22 453,22 453,22 C 453,21 453,21 453,21 L 443,21 C 443,28 443,31 443,31 Z" fill="#9C9EC7" id="id-54076"></path><path d=" M 387,61 L 440,57 L 440,13 L 421,14 C 390,28 372,33 369,28 C 373,36 379,47 387,61 Z" fill="url(#id-54015)" id="id-54077"></path><path d=" M 79,172 C 78,181 78,186 78,186 L 60,188 L 61,175 L 64,176 L 79,172 Z" fill="#872800" id="id-54078"></path><path d=" M 366,22 C 366,21 367,23 371,27 L 378,29 L 421,13 L 437,13 C 426,14 421,14 421,14 C 396,25 380,31 372,30 C 371,30 369,30 366,22 Z" fill="#9A9CC8" id="id-54079"></path><path d=" M 273,99 C 288,97 295,95 295,95 C 291,138 290,159 290,159 C 286,161 284,162 284,162 C 281,160 279,158 279,158 L 277,158 C 274,119 273,99 273,99 Z" fill="#88855A" id="id-54080"></path><path d=" M 141,413 C 159,420 169,423 183,428 C 178,407 188,390 188,390 L 148,373 C 150,383 148,396 141,413 Z" fill="#1D213A" id="id-54081"></path><path d=" M 262,61 C 267,120 271,167 272,201 C 269,201 266,201 266,201 C 259,131 257,88 257,70 C 258,66 258,63 258,61 C 261,61 262,61 262,61 Z" fill="#878457" id="id-54082"></path><path d=" M 160,164 C 159,174 158,179 158,179 C 165,180 168,180 168,180 L 169,165 C 163,165 160,164 160,164 Z" fill="#872800" id="id-54083"></path></g><defs><linearGradient x1="50%" y1="-1%" x2="50%" y2="33%" id="id-64172"><stop stop-color="#642F1E" offset="0%"></stop><stop stop-color="#1D0404" offset="100%"></stop></linearGradient><linearGradient x1="70%" y1="0%" x2="73%" y2="36%" id="id-64173"><stop stop-color="#5D311B" offset="0%"></stop><stop stop-color="#1D0404" offset="100%"></stop></linearGradient><linearGradient x1="114%" y1="0%" x2="125%" y2="36%" id="id-64174"><stop stop-color="#5D311B" offset="0%"></stop><stop stop-color="#1D0404" offset="100%"></stop></linearGradient></defs><g transform=" translate(534,284)" id="id-64175"><g id="id-64176"><polygon points="124 92 126 81 124 76 125 62 128 76 129 81 129 92 148 93 159 109 168 112 160 108 152 96 155 97 158 104 169 110 176 117 170 110 161 104 159 99 168 104 188 129 205 145 210 163 207 193 211 216 201 250 207 264 206 247 217 216 212 195 218 130 213 91 186 56 148 41 129 41 124 44 113 39 98 41 80 48 47 81 36 104 34 140 42 186 34 211 47 247 41 211 47 186 42 166 50 143 58 135 70 130 63 130 76 112 88 105 83 112 73 119 84 114 98 99" fill="url(#id-64172)" id="id-64177"></polygon><polygon points="80 50 95 43 91 40 86 25 80 20 84 10 83 0 80 10 76 17 44 17 20 25 18 36 3 52 1 74 13 95 29 100 18 116 13 149 9 166 18 177 13 164 22 119 40 104 53 92 68 72" fill="url(#id-64173)" id="id-64178"></polygon><path d=" M 213,7 L 222,22 L 230,20 L 251,45 L 246,78 L 218,92 L 228,102 L 246,109 L 225,106 L 214,94 L 201,89 L 174,64 L 153,45 L 153,27 L 161,18 L 183,10 L 195,12 L 213,7 Z M 211,10 L 199,14 L 210,14 L 220,23 L 211,10 Z" fill="url(#id-64174)" id="id-64179"></path></g><g transform=" translate(7,10)" fill="#BD3A00" opacity="0.301" id="id-64180"><polygon points="21 27 21 19 32 15 36 9 45 10 50 15 49 9 54 10 63 21 58 10 66 13 61 9 71 9 79 15 82 25 73 18 76 31 69 36 58 27 54 44 38 36 30 36 35 52 21 49 21 57 35 62 36 72 30 78 36 84 23 88 7 78 21 80 1 65 7 65 1 57 1 49 7 52 1 40 13 27" id="id-64181"></polygon><polygon points="173 54 147 33 147 18 154 9 169 4 161 18 162 26 164 16 173 4 181 1 174 9 184 2 185 2 181 11 188 2 192 6 185 14 184 46 181 50 177 26 172 33" id="id-64182"></polygon><polygon points="208 25 215 52 203 83 220 62 216 83 233 70 232 41 224 29 219 37 215 25" transform=" translate(218,54) rotate(56) translate(-218,-54)" id="id-64183"></polygon></g><g transform=" translate(58,71)" fill="#FF854F" opacity="0.403" id="id-64184"><polygon points="104 19 111 27 114 36 125 27 136 32 135 23 140 20 133 6 130 12 122 11 120 21" transform=" translate(122,21) rotate(-21) translate(-122,-21)" id="id-64185"></polygon><polygon points="13 40 35 25 16 17 10 1 0 14 7 17 6 28 17 28" id="id-64186"></polygon></g></g><defs></defs><g transform=" translate(1199,1639)" fill="#343D53" opacity="0.297" id="id-77036"><path d=" M 22,0 L 27,0 L 27,6 L 22,6 C 18,6 14,8 11,11 C 8,14 6,18 6,22 L 6,27 L 0,27 L 0,22 C 0,16 2,10 6,6 C 10,2 16,0 22,0 L 22,0 Z M 48,0 L 53,0 C 59,0 65,2 69,6 C 72,10 75,16 75,22 L 75,27 L 69,27 L 69,22 C 69,18 67,14 64,11 C 61,8 57,6 53,6 L 48,6 L 48,0 L 48,0 Z M 75,48 L 75,53 C 75,59 72,65 69,69 C 65,72 59,75 53,75 L 48,75 L 48,69 L 53,69 C 57,69 61,67 64,64 C 67,61 69,57 69,53 L 69,48 L 75,48 L 75,48 Z M 27,75 L 22,75 C 16,75 10,72 6,69 C 2,65 0,59 0,53 L 0,48 L 6,48 L 6,53 C 6,57 8,61 11,64 C 14,67 18,69 22,69 L 27,69 L 27,75 L 27,75 Z" id="id-77037" fill-rule="nonzero"></path><path d=" M 11,40 L 11,34 L 21,34 C 22,28 28,22 34,21 L 34,11 L 40,11 L 40,21 C 47,22 53,28 54,34 L 64,34 L 64,40 L 54,40 C 53,47 47,53 40,54 L 40,64 L 34,64 L 34,54 C 28,53 22,47 21,40 L 11,40 Z M 27,34 L 34,34 L 34,27 C 31,28 28,31 27,34 Z M 40,27 L 40,34 L 48,34 C 47,31 44,28 40,27 Z M 48,40 L 40,40 L 40,48 C 44,47 47,44 48,40 Z M 34,48 L 34,40 L 27,40 C 28,44 31,47 34,48 Z" id="id-77037"></path></g></svg>