<?xml version="1.0" encoding="UTF-8"?><svg width="1320px" height="1760px" viewBox="0 0 1320 1760" version="1.1" xmlns="http://www.w3.org/2000/svg" xmlns:xlink="http://www.w3.org/1999/xlink"><defs></defs><g stroke="none" stroke-width="1" fill="none" id="id-31622" fill-rule="evenodd"><g id="id-31623"><rect fill="#00666B" width="1320" height="1760" x="0" y="0" id="id-31624"></rect><g transform=" translate(35,425)" fill="#0A7E78" id="id-31625"><path d=" M 60,72 C 207,72 280,72 280,72 C 280,146 280,183 280,183 C 228,214 201,229 201,229 L 201,148 L 139,148 L 139,497 L 201,497 C 201,461 201,443 201,443 C 254,412 280,397 280,397 C 280,431 280,448 280,448 C 217,531 186,572 186,572 L 60,573 C 60,564 60,560 60,560 C 34,574 22,581 22,581 L 59,535 C 59,307 59,193 59,193 C 77,168 86,155 86,155 C 75,152 70,151 70,151 C 91,121 101,107 101,107 L 59,141 C 60,95 60,72 60,72 Z" id="id-31626"></path><path d=" M 0,547 C 28,493 43,466 43,466 L 44,516 C 15,537 0,547 0,547 Z" id="id-31627"></path><path d=" M 280,573 C 222,573 193,573 193,573 L 281,488 C 280,545 280,573 280,573 Z" id="id-31628"></path><path d=" M 269,620 L 331,563 C 331,512 331,486 331,486 L 412,439 L 412,497 L 472,497 C 472,444 472,418 472,418 C 505,376 522,355 522,355 C 490,383 473,398 473,398 C 473,353 473,330 473,330 L 331,411 L 331,72 C 385,72 412,72 412,72 C 411,206 411,273 411,273 L 474,237 L 474,72 L 553,72 C 553,142 553,177 553,177 C 491,239 460,271 460,271 L 552,198 L 552,572 L 354,572 C 298,604 269,620 269,620 Z" id="id-31629"></path><path d=" M 786,72 L 724,141 C 724,141 754,118 813,73 L 813,73 L 832,73 L 832,288 L 774,322 L 774,322 L 830,322 L 752,379 L 752,335 L 691,370 L 691,370 L 691,429 L 611,490 L 611,252 L 569,272 C 569,272 583,255 612,222 L 612,222 L 612,73 L 786,72 Z M 792,108 C 762,134 747,147 747,147 C 710,148 691,148 691,148 C 691,229 691,273 691,281 L 691,281 C 691,281 691,282 691,282 L 691,282 L 691,282 L 752,247 L 752,168 C 778,130 792,110 792,109 L 792,108 L 792,108 Z" id="id-31630"></path><path d=" M 802,63 C 815,41 822,29 822,29 C 857,10 874,0 874,0 L 849,39 C 818,55 802,63 802,63 Z" id="id-31631"></path><path d=" M 847,157 L 890,107 L 890,72 C 910,72 920,72 920,72 C 932,58 939,51 939,51 C 941,51 943,51 943,51 L 930,72 C 945,72 952,72 952,72 C 963,84 969,90 969,90 C 975,81 978,77 978,77 C 985,88 988,93 988,93 C 994,79 996,72 996,72 C 1046,72 1071,72 1071,72 C 1022,122 998,147 998,147 C 979,148 970,148 970,148 C 970,166 970,175 970,175 C 917,226 890,252 890,252 L 890,129 C 861,148 847,157 847,157 Z" id="id-31632"></path></g><path d=" M 1245,346 L 182,1760 L 0,1760 L 0,972 C 135,1337 750,916 1245,346 L 1245,346 Z M 361,1554 L 275,1760 L 204,1760 L 204,1760 L 361,1554 Z M 1320,298 L 1320,356 L 1320,356 L 1191,470 L 1320,298 Z M 1223,304 C 1223,304 1198,330 1148,382 L 1148,382 L 1180,318 C 1180,318 1194,314 1223,304 Z" fill="#004548" id="id-31630"></path><path d=" M 1214,464 C 1194,476 1184,482 1184,482 C 825,961 645,1200 645,1200 L 656,1208 C 1028,712 1214,464 1214,464 Z M 627,1225 C 617,1237 612,1243 612,1243 C 619,1248 623,1251 623,1251 L 637,1233 C 630,1228 627,1225 627,1225 Z M 612,1266 C 606,1273 604,1277 604,1277 C 597,1271 593,1269 593,1269 L 601,1258 C 608,1263 612,1266 612,1266 Z" fill="#004548" id="id-31630"></path><path d=" M 1320,560 C 1320,575 1320,583 1320,583 C 1163,790 1085,893 1085,893 L 1074,886 L 1320,560 Z M 1058,907 C 1066,912 1069,915 1069,915 C 1050,941 1040,954 1040,954 L 1029,945 C 1049,920 1058,907 1058,907 Z" fill="#004548" id="id-31630"></path><path d=" M 1320,1001 C 1186,1178 1119,1267 1119,1267 L 1130,1275 L 1320,1022 C 1320,1008 1320,1001 1320,1001 Z M 1101,1292 C 1091,1304 1086,1310 1086,1310 C 1093,1315 1097,1318 1097,1318 L 1111,1300 C 1104,1294 1101,1292 1101,1292 Z M 1075,1325 C 1070,1332 1068,1335 1068,1335 C 1075,1341 1078,1344 1078,1344 L 1086,1333 C 1079,1328 1075,1325 1075,1325 Z" fill="#004548" id="id-31630"></path><path d=" M 761,1701 C 768,1707 771,1709 771,1709 C 790,1683 800,1670 800,1670 L 789,1664 C 770,1689 761,1701 761,1701 Z M 805,1642 C 813,1647 816,1649 816,1649 C 1053,1335 1172,1177 1172,1177 L 1161,1170 C 924,1485 805,1642 805,1642 Z" fill="#004548" id="id-31630"></path><path d=" M 890,1230 C 871,1256 861,1268 861,1268 C 868,1274 872,1277 872,1277 L 901,1238 C 894,1233 890,1230 890,1230 Z M 906,1209 C 913,1214 917,1217 917,1217 C 1149,908 1265,754 1265,754 L 1255,746 C 1023,1055 906,1209 906,1209 Z" fill="#004548" id="id-31630"></path></g></g><defs></defs><g transform=" translate(344,555)" id="id-73551"><path d=" M 185,35 C 235,12 260,0 260,0 L 376,2 L 442,33 L 422,65 L 310,153 L 182,42 C 184,37 185,35 185,35 Z" fill="#56837D" id="id-73552"></path><path d=" M 189,38 C 215,25 228,19 228,19 C 250,8 262,3 262,3 C 335,6 371,7 371,7 C 416,26 438,35 438,35 L 419,64 L 310,153 L 189,38 Z" fill="#527BBB" id="id-73553"></path><path d=" M 7,774 C 0,773 -1,769 3,763 C 22,755 41,737 60,710 C 79,733 88,745 88,745 C 74,757 66,763 66,763 L 7,774 Z" fill="#0E2E21" id="id-73554"></path><path d=" M 609,765 C 597,768 591,769 591,769 L 537,761 L 522,738 L 561,709 L 607,759 C 608,763 609,765 609,765 Z" fill="#0E3224" id="id-73555"></path><path d=" M 189,38 C 205,27 228,19 228,19 C 230,36 231,44 231,44 C 218,58 212,65 212,65 C 248,53 266,46 266,46 C 265,58 265,63 265,63 C 254,72 248,76 248,76 L 259,109 L 189,46 C 187,44 187,41 189,38 Z" fill="#80A5E4" id="id-73556"></path><path d=" M 370,49 L 419,64 L 438,35 L 442,33 C 429,54 422,65 422,65 C 386,97 368,113 368,113 C 374,78 377,60 377,60 L 371,57 C 370,52 370,49 370,49 Z" fill="#80A5E4" id="id-73557"></path></g><defs><linearGradient x1="100%" y1="46%" x2="12%" y2="47%" id="id-74288"><stop stop-color="#DB8D73" offset="0%"></stop><stop stop-color="#E89D89" offset="21%"></stop><stop stop-color="#E6B4B1" offset="46%"></stop><stop stop-color="#EBA18D" offset="80%"></stop><stop stop-color="#DF9889" offset="100%"></stop></linearGradient><linearGradient x1="53%" y1="81%" x2="50%" y2="21%" id="id-74289"><stop stop-color="#CD6E5C" offset="0%"></stop><stop stop-color="#DE7964" offset="24%"></stop><stop stop-color="#DC937A" offset="100%"></stop></linearGradient><linearGradient x1="52%" y1="-4%" x2="46%" y2="70%" id="id-74290"><stop stop-color="#CE6657" offset="0%"></stop><stop stop-color="#8D4137" offset="100%"></stop></linearGradient><linearGradient x1="46%" y1="43%" x2="15%" y2="43%" id="id-74291"><stop stop-color="#DE8D7D" offset="0%"></stop><stop stop-color="#C77052" offset="100%"></stop></linearGradient><linearGradient x1="54%" y1="37%" x2="12%" y2="72%" id="id-74292"><stop stop-color="#3C050A" offset="0%"></stop><stop stop-color="#AF623E" offset="100%"></stop></linearGradient><linearGradient x1="40%" y1="14%" x2="61%" y2="85%" id="id-74293"><stop stop-color="#541C19" offset="0%"></stop><stop stop-color="#7A302C" offset="100%"></stop></linearGradient><linearGradient x1="27%" y1="47%" x2="91%" y2="49%" id="id-74294"><stop stop-color="#D08973" offset="0%"></stop><stop stop-color="#FED3FF" offset="100%"></stop></linearGradient><linearGradient x1="47%" y1="60%" x2="49%" y2="79%" id="id-74295"><stop stop-color="#E2927A" offset="0%"></stop><stop stop-color="#D97D68" offset="60%"></stop><stop stop-color="#E48E97" offset="100%"></stop></linearGradient><linearGradient x1="29%" y1="56%" x2="69%" y2="53%" id="id-74296"><stop stop-color="#D4896F" offset="0%"></stop><stop stop-color="#CE7358" offset="8%"></stop><stop stop-color="#D67B64" offset="18%"></stop><stop stop-color="#D87862" offset="38%"></stop><stop stop-color="#CC6958" offset="65%"></stop><stop stop-color="#BF6D4C" offset="81%"></stop><stop stop-color="#A95B51" offset="100%"></stop></linearGradient><linearGradient x1="47%" y1="45%" x2="54%" y2="46%" id="id-74297"><stop stop-color="#D3735F" offset="0%"></stop><stop stop-color="#BD694B" offset="62%"></stop><stop stop-color="#BA6147" offset="77%"></stop><stop stop-color="#CE8C70" offset="100%"></stop></linearGradient><linearGradient x1="51%" y1="7%" x2="50%" y2="100%" id="id-74298"><stop stop-color="#C06A4D" offset="0%"></stop><stop stop-color="#EB9F84" offset="75%"></stop><stop stop-color="#DB896B" offset="100%"></stop></linearGradient><linearGradient x1="51%" y1="11%" x2="49%" y2="93%" id="id-74299"><stop stop-color="#DF9889" offset="0%"></stop><stop stop-color="#D28264" offset="73%"></stop><stop stop-color="#DF9D81" offset="100%"></stop></linearGradient><linearGradient x1="51%" y1="-5%" x2="48%" y2="96%" id="id-74300"><stop stop-color="#DB8F75" offset="0%"></stop><stop stop-color="#C47656" offset="100%"></stop></linearGradient><linearGradient x1="50%" y1="19%" x2="50%" y2="69%" id="id-74301"><stop stop-color="#B0695C" offset="0%"></stop><stop stop-color="#74330F" offset="45%"></stop><stop stop-color="#A44E23" offset="100%"></stop></linearGradient><linearGradient x1="46%" y1="74%" x2="39%" y2="35%" id="id-74302"><stop stop-color="#AA4949" offset="0%"></stop><stop stop-color="#C46B50" offset="51%"></stop><stop stop-color="#9F3838" offset="100%" stop-opacity="0"></stop></linearGradient><linearGradient x1="46%" y1="16%" x2="49%" y2="82%" id="id-74303"><stop stop-color="#9B473D" offset="0%" stop-opacity="0.186"></stop><stop stop-color="#803921" offset="100%"></stop></linearGradient><linearGradient x1="41%" y1="19%" x2="50%" y2="100%" id="id-74304"><stop stop-color="#BB6351" offset="0%"></stop><stop stop-color="#913F35" offset="100%"></stop></linearGradient><linearGradient x1="50%" y1="31%" x2="45%" y2="50%" id="id-74305"><stop stop-color="#D78C70" offset="0%"></stop><stop stop-color="#E5A2A0" offset="100%"></stop></linearGradient><linearGradient x1="51%" y1="22%" x2="50%" y2="100%" id="id-74306"><stop stop-color="#9B4237" offset="0%"></stop><stop stop-color="#B77057" offset="100%"></stop></linearGradient><linearGradient x1="49%" y1="0%" x2="50%" y2="100%" id="id-74307"><stop stop-color="#D8886E" offset="0%"></stop><stop stop-color="#DC8270" offset="100%"></stop></linearGradient><linearGradient x1="44%" y1="15%" x2="50%" y2="100%" id="id-74308"><stop stop-color="#B45444" offset="0%"></stop><stop stop-color="#AF584E" offset="100%"></stop></linearGradient><linearGradient x1="52%" y1="21%" x2="49%" y2="83%" id="id-74309"><stop stop-color="#D7886E" offset="0%"></stop><stop stop-color="#F3A990" offset="50%"></stop><stop stop-color="#E28877" offset="100%"></stop></linearGradient><linearGradient x1="85%" y1="60%" x2="15%" y2="60%" id="id-74310"><stop stop-color="#D17F61" offset="0%"></stop><stop stop-color="#BF6F4C" offset="100%"></stop></linearGradient><linearGradient x1="48%" y1="-20%" x2="59%" y2="91%" id="id-74311"><stop stop-color="#DD9D8D" offset="0%"></stop><stop stop-color="#BF704F" offset="60%"></stop><stop stop-color="#BD6E4B" offset="72%"></stop><stop stop-color="#CB7A5B" offset="100%"></stop></linearGradient><linearGradient x1="55%" y1="48%" x2="46%" y2="33%" id="id-74312"><stop stop-color="#DB8C74" offset="0%"></stop><stop stop-color="#DC8E75" offset="86%"></stop><stop stop-color="#CF8769" offset="100%"></stop></linearGradient><linearGradient x1="50%" y1="19%" x2="50%" y2="78%" id="id-74313"><stop stop-color="#9E4B20" offset="0%"></stop><stop stop-color="#A94317" offset="50%"></stop><stop stop-color="#864421" offset="100%"></stop></linearGradient><linearGradient x1="50%" y1="11%" x2="50%" y2="43%" id="id-74314"><stop stop-color="#CA7D5F" offset="0%"></stop><stop stop-color="#C77350" offset="15%"></stop><stop stop-color="#9F564D" offset="68%"></stop><stop stop-color="#C36554" offset="100%"></stop></linearGradient><linearGradient x1="89%" y1="50%" x2="7%" y2="52%" id="id-74315"><stop stop-color="#8E433B" offset="0%"></stop><stop stop-color="#B85C4D" offset="53%" stop-opacity="0.199"></stop><stop stop-color="#9B3C25" offset="75%"></stop><stop stop-color="#8B3C36" offset="100%"></stop></linearGradient><linearGradient x1="44%" y1="70%" x2="86%" y2="30%" id="id-74316"><stop stop-color="#D78C77" offset="0%"></stop><stop stop-color="#ECB8B8" offset="100%"></stop></linearGradient><linearGradient x1="19%" y1="86%" x2="73%" y2="32%" id="id-74317"><stop stop-color="#B55C39" offset="0%"></stop><stop stop-color="#EDB2B0" offset="40%"></stop><stop stop-color="#EEBBBC" offset="100%"></stop></linearGradient><linearGradient x1="35%" y1="94%" x2="47%" y2="12%" id="id-74318"><stop stop-color="#E0A194" offset="0%"></stop><stop stop-color="#F0BCBE" offset="40%"></stop><stop stop-color="#EAB3B1" offset="100%"></stop></linearGradient><linearGradient x1="50%" y1="54%" x2="27%" y2="9%" id="id-74319"><stop stop-color="#DDAB90" offset="0%"></stop><stop stop-color="#DDAB90" offset="100%" stop-opacity="0.078"></stop></linearGradient><linearGradient x1="0%" y1="19%" x2="93%" y2="69%" id="id-74320"><stop stop-color="#E3ABA1" offset="0%"></stop><stop stop-color="#DF9D90" offset="70%"></stop><stop stop-color="#C5704E" offset="100%"></stop></linearGradient><linearGradient x1="36%" y1="84%" x2="25%" y2="44%" id="id-74321"><stop stop-color="#C96D62" offset="0%" stop-opacity="0.509"></stop><stop stop-color="#90372C" offset="35%" stop-opacity="0.675"></stop><stop stop-color="#762E17" offset="100%" stop-opacity="0"></stop></linearGradient><linearGradient x1="63%" y1="95%" x2="43%" y2="20%" id="id-74322"><stop stop-color="#C97E5C" offset="0%"></stop><stop stop-color="#E0957A" offset="46%"></stop><stop stop-color="#CC8166" offset="100%"></stop></linearGradient><linearGradient x1="40%" y1="0%" x2="50%" y2="86%" id="id-74323"><stop stop-color="#D08264" offset="0%"></stop><stop stop-color="#DB957A" offset="100%"></stop></linearGradient><linearGradient x1="50%" y1="0%" x2="50%" y2="92%" id="id-74324"><stop stop-color="#E3A3A3" offset="0%"></stop><stop stop-color="#DD977A" offset="100%"></stop></linearGradient><linearGradient x1="33%" y1="79%" x2="21%" y2="44%" id="id-74325"><stop stop-color="#BE6457" offset="0%"></stop><stop stop-color="#983F32" offset="28%" stop-opacity="0.928"></stop><stop stop-color="#762E17" offset="100%" stop-opacity="0"></stop></linearGradient><linearGradient x1="4%" y1="47%" x2="92%" y2="45%" id="id-74326"><stop stop-color="#732617" offset="0%"></stop><stop stop-color="#832E1D" offset="17%" stop-opacity="0.753"></stop><stop stop-color="#9E4B3D" offset="48%" stop-opacity="0.386"></stop><stop stop-color="#8E3D31" offset="78%" stop-opacity="0.762"></stop><stop stop-color="#823328" offset="100%"></stop></linearGradient><linearGradient x1="60%" y1="45%" x2="67%" y2="53%" id="id-74327"><stop stop-color="#F3B5BB" offset="0%"></stop><stop stop-color="#FECCF2" offset="100%"></stop></linearGradient><linearGradient x1="48%" y1="15%" x2="54%" y2="81%" id="id-74328"><stop stop-color="#D99776" offset="0%" stop-opacity="0.400"></stop><stop stop-color="#E6A382" offset="100%"></stop></linearGradient><linearGradient x1="47%" y1="44%" x2="50%" y2="61%" id="id-74329"><stop stop-color="#94412F" offset="0%" stop-opacity="0.175"></stop><stop stop-color="#611C1B" offset="100%"></stop></linearGradient><linearGradient x1="26%" y1="-7%" x2="50%" y2="96%" id="id-74330"><stop stop-color="#37373F" offset="0%"></stop><stop stop-color="#19191D" offset="100%"></stop></linearGradient><linearGradient x1="50%" y1="12%" x2="59%" y2="82%" id="id-74331"><stop stop-color="#252525" offset="0%"></stop><stop stop-color="#101010" offset="100%"></stop></linearGradient><linearGradient x1="25%" y1="-16%" x2="50%" y2="98%" id="id-74332"><stop stop-color="#37373F" offset="0%"></stop><stop stop-color="#19191D" offset="100%"></stop></linearGradient><linearGradient x1="75%" y1="39%" x2="50%" y2="93%" id="id-74333"><stop stop-color="#252525" offset="0%"></stop><stop stop-color="#000000" offset="100%"></stop></linearGradient></defs><g transform=" translate(334,549)" id="id-74334"><polygon points="561 754 565 871 565 881 537 893 533 897 535 901 532 909 543 910 597 864" fill="#551415" id="id-74335"></polygon><polygon points="537 282 539 246 535 195 529 158 522 137 484 118 440 111 212 111 188 113 157 123 121 139 111 186 108 221 109 290" fill="url(#id-74288)" id="id-74335"></polygon><polygon points="467 393 474 506 503 589 537 672 556 728 561 754 546 794 552 851 551 861 552 874 556 885 567 882 568 866 570 860 570 843 571 834 576 843 576 859 579 864 573 874 571 884 544 903 541 916 582 901 597 864 607 852 600 821 597 716 589 695 582 655 569 523 544 425" fill="url(#id-74289)" id="id-74335"></polygon><polygon points="546 794 552 851 551 861 552 874 556 885 567 882 568 866 570 860 570 843 571 834 576 843 576 859 579 864 573 874 571 884 544 903 541 916 582 901 597 864 583 871 588 855 573 815 561 823" fill="url(#id-74290)" id="id-74335"></polygon><polygon points="552 851 551 861 552 874 556 887 567 884 568 866 570 860 558 860" fill="#853632" id="id-74335"></polygon><polygon points="544 906 541 916 582 901 571 889" fill="#80332D" id="id-74335"></polygon><polygon points="561 754 548 789 566 819 586 806" fill="#C08175" id="id-74335"></polygon><polygon points="486 648 477 599 453 529 440 504 437 490 439 460 449 402 456 340 188 343 198 411 202 493 162 596 153 638 266 693 319 721 386 693" fill="url(#id-74291)" id="id-74335"></polygon><polygon points="486 648 477 599 453 529 440 504 437 490 439 460 449 402 456 340 296 353 376 634" fill="#D07F62" id="id-74335"></polygon><g transform=" translate(188,0)" id="id-74344"><polygon points="274 114 253 111 232 100 201 76 188 58 184 1 93 1 88 64 25 111 1 113 103 123 121 135 134 138 149 121 161 117 187 119 225 114" fill="#D48364" id="id-74335"></polygon><polygon points="201 76 188 58 185 12 175 57 155 111 185 73" fill="#E898A8" id="id-74335"></polygon><polygon points="149 1 93 1 88 64 108 126 121 135 133 138" fill="#C5785A" id="id-74335"></polygon><polygon points="116 102 120 113 118 115 136 135 150 119 164 71 125 108" fill="#B46548" id="id-74348"></polygon><polygon points="121 127 133 138 145 124" fill="#AC461F" id="id-74349"></polygon><polygon points="136 98 164 71 175 57 186 17 134 51" fill="#C8765A" id="id-74350"></polygon><polygon points="97 96 116 80 164 60 178 48 186 17 184 1 93 1 88 64 45 96" fill="#A85431" opacity="0.654" id="id-74335"></polygon><polygon points="186 17 184 1 93 1 88 64 45 96 66 96" fill="url(#id-74292)" opacity="0.467" id="id-74335"></polygon><polygon points="123 58 176 23 186 17 184 1 93 1 91 22 108 55" fill="#731511" opacity="0.434" id="id-74335"></polygon></g><polygon points="41 844 33 856 36 895 64 915 84 911 83 903 71 898 72 892 63 884 52 849" fill="url(#id-74293)" id="id-74335"></polygon><polygon points="315 152 285 173 320 188 357 166" fill="#F0BCBB" id="id-74355"></polygon><polygon points="327 150 370 130 342 127" fill="#D68A6E" id="id-74356"></polygon><polygon points="301 142 303 148 243 131 240 119 276 119" fill="#D38869" id="id-74357"></polygon><polygon points="159 149 206 123 269 123 303 144 297 118 188 113 157 123 121 139" fill="url(#id-74294)" id="id-74335"></polygon><polygon points="157 123 121 139 153 167 196 134" fill="#FCD1FB" id="id-74335"></polygon><polygon points="89 584 77 541 62 551 45 658 34 712 25 741 25 762 10 817 0 845 14 870 25 901 58 919 72 919 69 913 61 905 50 899 37 874 37 852 43 845 52 855 50 887 56 901 64 905 66 901 66 882 72 836 72 800 69 781 64 773 66 735 85 684 121 599 162 510" fill="url(#id-74295)" id="id-74335"></polygon><polygon points="89 584 77 541 62 551 45 658 48 715 121 599 162 510" fill="#D08263" id="id-74335"></polygon><polygon points="55 843 45 827 37 848 17 852 8 836 5 851 0 845 14 870 25 901 58 919 72 919 69 913 61 905 50 899 37 874 37 852 43 845 52 855 50 887 56 901 64 905 66 901 66 882 72 836" fill="#D16A58" id="id-74335"></polygon><polygon points="53 882 52 892 56 901 64 905 66 901 66 882 67 876" fill="#B24C41" id="id-74335"></polygon><polygon points="25 901 58 919 72 919 62 909 37 895" fill="#B54F44" id="id-74335"></polygon><polygon points="160 467 145 488 108 578 45 777 48 797 64 773 66 735 85 684 121 599 162 510" fill="#B86846" id="id-74335"></polygon><polygon points="169 1211 277 1211 282 1183 281 1150 284 1127 286 1114 285 1063 293 972 306 866 311 792 309 768 323 771 337 768 333 817 333 855 339 924 346 1008 348 1113 351 1130 353 1176 361 1211 461 1211 458 1191 456 1170 460 1133 461 1082 505 905 516 839 518 826 512 762 503 706 486 648 482 629 386 690 318 718 266 690 184 629 153 637 132 731 119 781 118 813 123 862 131 916 166 1094 176 1179" fill="url(#id-74296)" id="id-74335"></polygon><polygon points="463 664 416 771 400 819 392 1125 359 1178 398 1204 441 1153 461 1082 505 905 516 839 518 826 515 789 490 714" fill="url(#id-74297)" id="id-74335"></polygon><polygon points="422 1160 395 1199 365 1171 401 1149 384 1120 391 983 411 786 416 771 448 697 454 1013 445 1116 407 1149" fill="url(#id-74298)" id="id-74368"></polygon><polygon points="121 139 111 186 108 221 109 290 96 438 89 464 69 510 89 585 162 510 167 425 162 241" fill="url(#id-74299)" id="id-74335"></polygon><polygon points="101 466 103 488 106 510 160 447 179 359 164 232 187 184 186 179 132 181 161 234 161 321 149 376 151 384 123 461 114 466" fill="url(#id-74300)" id="id-74370"></polygon><polygon points="96 438 89 464 69 510 51 621 101 520 96 476" fill="#EAABB1" id="id-74335"></polygon><polygon points="96 451 128 365 134 316 121 139 111 186 108 221 109 290 96 438" fill="#BE704B" id="id-74335"></polygon><polygon points="184 241 177 248 162 225 138 289 161 321 170 375 161 420 151 411 162 510 167 425 188 343" fill="url(#id-74301)" id="id-74335"></polygon><polygon points="284 1127 286 1114 285 1063 293 972 306 866 311 792 309 768 323 771 337 768 333 817 333 855 339 924 346 1008 375 889 416 771 463 664 490 714 515 790 512 762 503 706 486 648 477 599 471 583 420 650 316 720 201 654 244 742 264 824 275 994" fill="url(#id-74302)" id="id-74335"></polygon><polygon points="298 930 306 866 311 792 309 768 323 771 337 768 333 817 333 855 336 894 347 826 360 784 378 733 388 687 321 739 254 687 267 736 291 821" fill="url(#id-74303)" id="id-74335"></polygon><polygon points="348 1093 348 1113 351 1130 353 1176 361 1211 461 1211 439 1155 422 1136 403 1148 429 1168 400 1202 370 1170 382 1125" fill="url(#id-74304)" id="id-74335"></polygon><polygon points="10 855 8 836 5 851 0 845 14 870" fill="#A64C3F" id="id-74335"></polygon><polygon points="520 500 516 520 544 629 474 500 490 399" fill="url(#id-74305)" id="id-74378"></polygon><polygon points="461 1211 458 1191 456 1170 460 1133 461 1082 439 1155 450 1211" fill="url(#id-74306)" id="id-74335"></polygon><polygon points="220 1149 259 1115 240 1063 232 973 266 819 240 713 201 661 158 650 201 784 183 925 170 1083" fill="url(#id-74307)" id="id-74380"></polygon><polygon points="169 1211 277 1211 282 1183 281 1150 284 1127 286 1114 286 1098 226 1211 207 1211 196 1121 173 1078 150 1014 166 1094 176 1179" fill="url(#id-74308)" id="id-74335"></polygon><polygon points="173 1078 183 924 150 1014" fill="#C2644D" id="id-74335"></polygon><polygon points="169 1211 239 1211 230 1196 204 1175 173 1150 176 1179" fill="#A7443E" opacity="0.574" id="id-74335"></polygon><polygon points="221 1130 240 1097 224 1063 224 983 240 804 217 698 190 668 212 771 212 910 190 998 181 1094" fill="url(#id-74309)" id="id-74380"></polygon><polygon points="217 795 221 692 200 667 169 658 200 737" fill="#EEA68B" id="id-74385"></polygon><polygon points="511 476 492 419 481 447 484 356 521 274 533 417" fill="url(#id-74310)" id="id-74386"></polygon><polygon points="569 523 544 425 542 346 537 282 539 246 535 195 529 158 522 137 494 161 419 158 471 211 516 290 525 411 511 477 518 507 535 462 562 543" fill="url(#id-74311)" id="id-74335"></polygon><polygon points="486 389 533 243 501 167 464 207 451 247 463 265" fill="url(#id-74312)" id="id-74388"></polygon><polygon points="473 490 474 506 503 589 537 672 556 728 561 754 567 712 543 623" fill="#B95C4E" id="id-74335"></polygon><polygon points="460 328 466 378 474 506 490 425 486 392 469 274 479 230 461 260 454 251" fill="url(#id-74313)" id="id-74335"></polygon><polygon points="440 504 437 490 439 460 449 402 456 340 458 328 325 282 188 343 198 411 202 493 162 596 157 621 161 633 169 599 173 570 204 506 202 458 217 402 286 365 321 352 353 360 422 402 431 493 437 520" fill="url(#id-74314)" id="id-74335"></polygon><polygon points="451 385 456 340 458 328 364 340 330 308 268 343 188 343 194 379 262 368 312 343 335 340 381 368" fill="url(#id-74315)" id="id-74335"></polygon><polygon points="286 328 306 310 330 274 453 252 464 205 421 156 317 204 219 165 210 154 188 180" fill="url(#id-74316)" id="id-74393"></polygon><path d=" M 422,195 L 405,190 C 377,190 357,198 343,214 C 329,230 322,250 323,276 C 324,301 331,320 345,333 C 365,351 384,356 405,356 C 425,356 444,347 450,342 C 454,339 457,335 460,328 C 463,323 466,317 467,308 C 469,294 466,276 457,254 L 422,195 Z" fill="url(#id-74317)" id="id-74394"></path><path d=" M 422,195 L 417,175 C 386,188 366,196 358,201 C 355,203 351,206 348,208 C 348,209 381,253 448,342 C 454,338 459,332 463,324 C 469,310 469,301 469,293 C 469,287 465,275 459,257 L 422,195 Z" fill="url(#id-74318)" id="id-74394"></path><path d=" M 375,226 C 338,253 343,276 343,284 C 343,291 353,319 371,335 C 379,342 422,349 447,331 C 468,316 472,294 458,265 C 427,221 400,208 375,226 Z" fill="url(#id-74319)" opacity="0.282" id="id-74394"></path><path d=" M 272,205 C 260,199 243,200 221,209 C 187,227 169,258 168,303 C 167,319 184,342 190,346 C 197,351 212,356 239,353 C 257,351 272,344 284,333 C 303,312 312,288 309,260 C 305,217 291,214 272,205 Z" fill="url(#id-74320)" id="id-74397"></path><path d=" M 340,285 C 333,252 328,240 326,248 C 324,254 323,263 323,276 C 324,301 331,320 345,333 C 365,351 382,356 404,356 C 425,356 444,347 450,342 C 456,337 465,325 468,308 C 472,290 465,276 463,268 C 461,263 460,259 458,255 L 442,290 L 399,304 L 366,300 L 340,285 Z" fill="url(#id-74321)" id="id-74394"></path><path d=" M 153,637 L 149,654 L 132,731 L 130,739 C 133,730 135,723 137,718 C 140,709 147,691 149,680 C 151,671 155,655 161,633 L 172,570 L 162,596 L 153,637 Z" fill="#7D362E" id="id-74335"></path><path d=" M 259,203 C 254,199 240,185 217,163 L 210,153 L 186,180 C 192,211 192,231 186,239 C 175,256 168,277 168,303 C 168,324 190,352 239,344 C 252,342 274,217 259,203 Z" fill="#E3ABA1" id="id-74397"></path><polygon points="175 565 203 550 234 558 241 520 203 455 203 507" fill="#BD6057" id="id-74401"></polygon><polygon points="241 442 241 518 229 556 233 629 266 657 316 707 381 659 395 629 364 504 350 504 301 380" fill="url(#id-74322)" id="id-74402"></polygon><polygon points="432 626 427 589 407 518 414 505 450 568 470 618" fill="url(#id-74323)" id="id-74403"></polygon><polygon points="302 376 254 442 254 546 302 590 364 568 364 504 350 504 376 454 345 400" fill="url(#id-74324)" id="id-74402"></polygon><polygon points="317 480 342 436 319 413 300 447" fill="#DE8C7A" id="id-74405"></polygon><polygon points="304 541 318 507 329 541 314 549" fill="#D07F61" id="id-74406"></polygon><polygon points="306 543 316 578 329 541" fill="#DEA68C" id="id-74407"></polygon><path d=" M 178,333 C 179,334 180,336 182,338 C 184,342 186,343 189,346 C 190,347 197,351 206,353 C 215,354 226,355 239,353 C 257,351 272,344 284,333 C 293,322 299,313 302,305 C 304,301 307,293 309,277 C 310,274 310,268 309,260 L 228,277 L 207,295 L 178,333 Z" fill="url(#id-74325)" id="id-74397"></path><polygon points="306 543 308 550 324 556 329 541" fill="#E6B8B7" id="id-74407"></polygon><polygon points="308 543 318 525 323 542 314 548" fill="#7E312C" id="id-74410"></polygon><polygon points="152 641 162 596 176 561 185 617 214 602 246 628 323 690 404 628 423 605 454 605 470 577 477 599 482 629 388 689 337 768 323 771 309 768 259 688 175 639 142 688" fill="url(#id-74326)" opacity="0.442" id="id-74411"></polygon><polygon points="490 154 522 137 484 118 412 123" fill="url(#id-74327)" id="id-74335"></polygon><polygon points="573 785 588 829 602 858 607 852 600 821 597 716 576 763" fill="#DA9E96" id="id-74335"></polygon><polygon points="574 722 589 695 582 655 533 542" fill="url(#id-74328)" id="id-74335"></polygon><polygon points="172 640 241 690 309 768 323 771 338 768 395 706 469 661 404 650 313 706 217 629" fill="url(#id-74329)" opacity="0.571" id="id-74415"></polygon><g transform=" translate(188,270)" id="id-74416"><polygon points="207 13 207 10 217 2 220 2 239 21 258 39 260 42 250 51 246 52 226 33" fill="url(#id-74330)" id="id-74417"></polygon><polygon points="208 40 218 50 222 50 240 33 257 13 257 9 247 0 244 1 230 19 209 36" fill="url(#id-74331)" id="id-74418"></polygon><polygon points="1 13 1 10 10 2 15 2 32 21 50 39 52 42 42 52 38 52 19 33" fill="url(#id-74332)" id="id-74417"></polygon><polygon points="0 43 10 53 14 53 33 35 50 15 50 11 40 3 36 4 19 23 1 39" fill="url(#id-74333)" id="id-74418"></polygon></g></g><defs><linearGradient x1="69%" y1="0%" x2="69%" y2="21%" id="id-75082"><stop stop-color="#D0A6A1" offset="0%"></stop><stop stop-color="#A36D68" offset="100%"></stop></linearGradient><radialGradient cx="50%" cy="61%" r="61%" id="id-75083" fx="50%" fy="61%" gradientTransform=" translate(0.500,0.609) scale(1,0.694) rotate(180) scale(1,1) translate(-0.500,-0.609)"><stop stop-color="#FFD2C7" offset="0%"></stop><stop stop-color="#D59785" offset="100%"></stop></radialGradient><radialGradient cx="50%" cy="74%" r="74%" id="id-75084" fx="50%" fy="74%" gradientTransform=" translate(0.500,0.744) scale(0.748,1) rotate(-90) scale(1,0.864) translate(-0.500,-0.744)"><stop stop-color="#FFD6CB" offset="0%"></stop><stop stop-color="#904840" offset="100%"></stop></radialGradient><linearGradient x1="39%" y1="37%" x2="50%" y2="61%" id="id-75085"><stop stop-color="#F7BBA7" offset="0%"></stop><stop stop-color="#D7927F" offset="100%"></stop></linearGradient><radialGradient cx="50%" cy="37%" r="75%" id="id-75086" fx="50%" fy="37%" gradientTransform=" translate(0.500,0.372) scale(0.536,1) rotate(90) scale(1,2) translate(-0.500,-0.372)"><stop stop-color="#FFC3B4" offset="0%"></stop><stop stop-color="#D07F6B" offset="100%"></stop></radialGradient><radialGradient cx="52%" cy="68%" r="169%" id="id-75087" fx="52%" fy="68%" gradientTransform=" translate(0.522,0.681) scale(1,0.367) rotate(-105) translate(-0.522,-0.681)"><stop stop-color="#DC9886" offset="0%"></stop><stop stop-color="#B25245" offset="100%"></stop></radialGradient><linearGradient x1="29%" y1="57%" x2="32%" y2="48%" id="id-75088"><stop stop-color="#D5857C" offset="0%"></stop><stop stop-color="#B25245" offset="100%"></stop></linearGradient><linearGradient x1="58%" y1="63%" x2="50%" y2="65%" id="id-75089"><stop stop-color="#90433D" offset="0%"></stop><stop stop-color="#BF8075" offset="100%"></stop></linearGradient><linearGradient x1="91%" y1="62%" x2="50%" y2="78%" id="id-75090"><stop stop-color="#8D443F" offset="0%"></stop><stop stop-color="#CB7966" offset="100%"></stop></linearGradient><linearGradient x1="39%" y1="5%" x2="39%" y2="73%" id="id-75091"><stop stop-color="#9F6A88" offset="0%"></stop><stop stop-color="#AB8495" offset="100%"></stop></linearGradient><linearGradient x1="28%" y1="92%" x2="75%" y2="13%" id="id-75092"><stop stop-color="#EBB5A7" offset="0%"></stop><stop stop-color="#DC8972" offset="100%"></stop></linearGradient><linearGradient x1="50%" y1="0%" x2="50%" y2="100%" id="id-75093"><stop stop-color="#DB767B" offset="0%"></stop><stop stop-color="#CF555F" offset="100%"></stop></linearGradient><linearGradient x1="50%" y1="20%" x2="50%" y2="100%" id="id-75094"><stop stop-color="#F89090" offset="0%"></stop><stop stop-color="#CF535C" offset="100%"></stop></linearGradient><linearGradient x1="50%" y1="50%" x2="50%" y2="100%" id="id-75095"><stop stop-color="#AD3641" offset="0%"></stop><stop stop-color="#A94A53" offset="100%"></stop></linearGradient><linearGradient x1="50%" y1="0%" x2="50%" y2="100%" id="id-75096"><stop stop-color="#CC6767" offset="0%"></stop><stop stop-color="#D48080" offset="100%"></stop></linearGradient><linearGradient x1="64%" y1="50%" x2="0%" y2="62%" id="id-75097"><stop stop-color="#77342F" offset="0%"></stop><stop stop-color="#A84D49" offset="100%"></stop></linearGradient><linearGradient x1="38%" y1="42%" x2="90%" y2="68%" id="id-75098"><stop stop-color="#985348" offset="0%"></stop><stop stop-color="#6A2823" offset="66%"></stop><stop stop-color="#8D3D37" offset="100%"></stop></linearGradient><linearGradient x1="22%" y1="53%" x2="78%" y2="47%" id="id-75099"><stop stop-color="#B45B48" offset="0%"></stop><stop stop-color="#460C0F" offset="100%"></stop></linearGradient><linearGradient x1="23%" y1="50%" x2="73%" y2="55%" id="id-75100"><stop stop-color="#51080D" offset="0%"></stop><stop stop-color="#AE4339" offset="100%"></stop></linearGradient><linearGradient x1="50%" y1="14%" x2="50%" y2="125%" id="id-75101"><stop stop-color="#E49E8B" offset="0%"></stop><stop stop-color="#AD4E3E" offset="100%"></stop></linearGradient><linearGradient x1="50%" y1="0%" x2="50%" y2="100%" id="id-75102"><stop stop-color="#DE8F7C" offset="0%"></stop><stop stop-color="#D99380" offset="100%"></stop></linearGradient><linearGradient x1="50%" y1="34%" x2="50%" y2="100%" id="id-75103"><stop stop-color="#DE8F7C" offset="0%"></stop><stop stop-color="#F6AA9D" offset="100%"></stop></linearGradient><linearGradient x1="0%" y1="50%" x2="87%" y2="50%" id="id-75104"><stop stop-color="#EFA695" offset="0%"></stop><stop stop-color="#FDCAC0" offset="50%"></stop><stop stop-color="#F7B5A2" offset="100%"></stop></linearGradient><linearGradient x1="83%" y1="50%" x2="22%" y2="56%" id="id-75105"><stop stop-color="#C27064" offset="0%"></stop><stop stop-color="#B75149" offset="100%"></stop></linearGradient><linearGradient x1="44%" y1="47%" x2="50%" y2="60%" id="id-75106"><stop stop-color="#6C0808" offset="0%"></stop><stop stop-color="#4F0000" offset="100%"></stop></linearGradient><linearGradient x1="44%" y1="45%" x2="50%" y2="67%" id="id-75107"><stop stop-color="#6C0808" offset="0%"></stop><stop stop-color="#4F0000" offset="100%"></stop></linearGradient><linearGradient x1="59%" y1="53%" x2="79%" y2="50%" id="id-75108"><stop stop-color="#DB8075" offset="0%"></stop><stop stop-color="#76191F" offset="100%"></stop></linearGradient><linearGradient x1="66%" y1="52%" x2="50%" y2="53%" id="id-75109"><stop stop-color="#EB9F96" offset="0%"></stop><stop stop-color="#D1685E" offset="100%"></stop></linearGradient><linearGradient x1="50%" y1="56%" x2="44%" y2="48%" id="id-75110"><stop stop-color="#00AAB5" offset="0%"></stop><stop stop-color="#00717E" offset="100%"></stop></linearGradient><linearGradient x1="41%" y1="67%" x2="50%" y2="50%" id="id-75111"><stop stop-color="#00B4C0" offset="0%"></stop><stop stop-color="#007D8C" offset="100%"></stop></linearGradient></defs><g transform=" translate(561,332)" id="id-75112"><g transform=" translate(172,115)" id="id-75113"><polygon points="14 1 18 0 25 8 27 21 24 41 14 66 0 68" fill="url(#id-75082)" id="id-75114"></polygon><polygon points="12 48 19 50 23 42 26 24 20 12 12 22" fill="#9E564F" id="id-75115"></polygon><polygon points="11 21 17 10 20 5 24 7 26 24 20 36 18 31 20 16 9 29" fill="#803532" id="id-75116"></polygon><polygon points="10 28 11 38 8 45 13 49 19 38 13 24" fill="#D29290" id="id-75117"></polygon><polygon points="12 18 17 17 18 9" fill="#5E1C1D" id="id-75118"></polygon><polygon points="18 50 10 51 8 50 5 61 12 63 14 61" fill="#BF9088" id="id-75119"></polygon></g><g transform=" translate(0,113)" id="id-75120"><polygon points="13 0 5 0 0 13 4 36 13 63 25 67" fill="#BD5959" id="id-75121"></polygon><polygon points="5 9 0 13 4 36 13 63 25 67 13 24" fill="#CE8580" id="id-75121"></polygon><polygon points="18 46 14 47 7 32 11 26 4 9 6 5 16 20 17 29" fill="#F0B3BC" id="id-75123"></polygon><polygon points="13 62 20 62 18 49 11 53" fill="#DAA39A" id="id-75124"></polygon><polygon points="25 68 13 63 20 62 17 46 14 47 13 44 14 29 17 26 14 22 10 19 10 11 17 20" fill="#984446" id="id-75125"></polygon><polygon points="13 9 4 3 5 0 12 0" fill="#ED8D85" id="id-75126"></polygon></g><path d=" M 29,199 C 21,167 16,144 15,130 C 4,44 33,0 103,0 C 180,0 191,63 186,119 C 183,157 173,191 170,202 C 169,206 168,214 164,217 C 152,228 130,244 113,250 C 108,252 95,251 92,251 C 77,247 52,234 36,218 C 34,215 31,209 29,199 Z" fill="url(#id-75083)" id="id-75127"></path><polygon points="32 104 40 91 49 101 72 91 83 36 53 39 28 83" fill="#E19D89" opacity="0.497" id="id-75128"></polygon><path d=" M 15,130 C 4,44 33,0 103,0 C 180,0 191,63 186,119 L 166,114 L 161,101 L 167,68 C 159,55 158,51 147,43 C 142,40 113,40 59,43 L 31,93 L 35,103 L 24,131 L 15,130 Z" fill="url(#id-75084)" id="id-75127"></path><polygon points="28 117 28 73 69 24 134 24 172 49 172 134 132 129 124 78 141 61 105 65 61 58 45 117" fill="#D68C79" opacity="0.360" id="id-75130"></polygon><polygon points="115 32 172 49 172 75 132 70 141 61 120 63" fill="#D07B69" opacity="0.503" id="id-75130"></polygon><polygon points="42 181 65 170 128 173 155 186 137 233 51 226" fill="url(#id-75085)" id="id-75132"></polygon><polygon points="58 235 52 221 61 204 132 206 137 209 130 235 116 248 90 249" fill="url(#id-75086)" id="id-75133"></polygon><path d=" M 29,199 C 21,167 16,144 15,130 C 14,122 13,114 13,106 L 22,129 L 29,113 L 43,137 L 24,149 L 24,156 L 43,181 L 59,232 C 54,234 46,229 36,218 C 34,215 31,209 29,199 Z" fill="url(#id-75087)" id="id-75127"></path><path d=" M 59,232 C 71,240 82,245 90,246 C 98,248 109,248 121,245 C 117,248 115,249 113,250 C 108,252 95,251 92,251 C 77,247 52,234 36,218 C 34,216 32,211 30,204 C 36,212 46,222 59,232 Z" fill="url(#id-75088)" id="id-75127"></path><path d=" M 184,63 C 187,81 188,100 186,119 C 183,157 173,191 170,202 C 169,206 168,214 164,217 C 152,228 130,244 113,250 L 137,226 L 152,184 L 174,150 L 148,128 L 170,120 L 184,63 Z" fill="url(#id-75089)" id="id-75127"></path><polygon points="178 153 148 128 176 117" fill="url(#id-75090)" id="id-75127"></polygon><path d=" M 175,80 L 185,120 C 173,183 166,215 164,217 C 160,220 155,224 150,229 L 158,217 L 178,153 L 175,117 L 170,125 L 165,114 L 175,80 Z" fill="url(#id-75091)" id="id-75127"></path><polygon points="82 232 88 225 112 224 114 238 88 241" fill="#FCBDAD" id="id-75139"></polygon><polygon points="61 204 65 171 96 163 129 174 133 206" fill="#F8BBA9" id="id-75140"></polygon><polygon points="65 212 70 205 133 206 129 213 123 211 78 212" fill="#ECAFA0" id="id-75141"></polygon><polygon points="81 220 88 225 112 225 123 219 97 219" fill="#9E392F" id="id-75142"></polygon><polygon points="70 212 81 220 122 219 130 214 122 207" fill="#D29189" id="id-75143"></polygon><path d=" M 131,183 L 128,173 L 83,155 C 79,156 76,155 74,153 C 73,151 72,146 72,140 L 62,143 C 65,145 67,147 70,150 C 73,153 76,158 81,166 L 69,177 L 81,180 L 119,176 L 131,183 Z" fill="#FFD0C7" id="id-75144"></path><polygon points="31 164 67 170 43 181" fill="#FCD2C7" id="id-75145"></polygon><polygon points="91 193 95 177 102 179 101 196" fill="#ECA28E" id="id-75146"></polygon><polygon points="102 179 101 197 112 196 106 175" fill="#EBAE99" id="id-75147"></polygon><polygon points="153 141 129 161 118 136 144 145" fill="#FFCFC3" id="id-75148"></polygon><polygon points="138 153 159 136 166 143 147 164" fill="url(#id-75092)" id="id-75148"></polygon><polygon points="92 192 97 191 104 192 110 188 116 194 99 198" fill="#FFD1C9" id="id-75150"></polygon><g transform=" translate(66,192)" id="id-75151"><polygon points="2 14 11 20 60 19 68 14 67 14 21 6" fill="#65000A" id="id-75152"></polygon><path d=" M 8,18 L 20,27 C 26,28 31,29 35,29 C 38,29 44,28 51,26 L 61,18 L 52,14 L 35,16 L 17,14 L 8,18 Z" fill="url(#id-75093)" id="id-75153"></path><path d=" M 20,27 C 26,28 31,29 35,29 C 38,29 44,28 51,26 C 52,23 53,21 53,19 C 53,18 53,16 52,14 L 35,16 L 17,14 C 17,17 17,19 17,20 C 17,22 18,24 20,27 Z" fill="url(#id-75094)" id="id-75153"></path><path d=" M 2,14 C 6,15 9,15 13,14 C 18,14 19,12 22,12 C 26,12 30,13 35,13 C 39,13 42,12 46,12 C 51,12 51,14 56,14 C 59,15 63,15 67,14 C 58,6 51,1 49,1 C 45,-1 39,3 35,3 C 30,3 30,1 24,1 C 20,1 13,4 2,12 L 0,13 L 2,14 Z" fill="url(#id-75095)" id="id-75155"></path><path d=" M 19,11 C 27,8 33,7 35,7 C 39,7 43,11 48,11 C 57,11 64,12 64,11 C 56,5 51,1 49,1 C 45,-1 39,3 35,3 C 30,3 30,1 24,1 C 20,1 13,4 2,12 L 19,11 Z" fill="url(#id-75096)" id="id-75155"></path><path d=" M 19,11 C 27,8 33,7 35,7 L 35,3 C 30,3 30,1 24,1 L 19,11 Z" fill="#E97C93" id="id-75155"></path><path d=" M 19,18 C 18,18 18,19 19,22 C 22,22 23,21 27,23 C 30,24 37,24 49,22 C 36,22 26,20 19,18 Z" fill="#FC94C8" id="id-75158"></path></g><polygon points="34 132 26 124 32 113 50 105 69 114" fill="url(#id-75097)" id="id-75159"></polygon><polygon points="153 130 134 117 145 107 167 117 171 123 166 132" fill="url(#id-75098)" id="id-75160"></polygon><g transform=" translate(42,102)" id="id-75161"><path d=" M 73,31 C 80,24 87,20 94,19 C 101,19 109,21 118,26 L 113,21 L 101,15 L 108,9 L 73,13 L 67,30 L 73,31 Z" fill="url(#id-75099)" id="id-75162"></path><path d=" M 1,22 L 6,16 L 18,13 L 8,8 L 36,11 L 46,31 C 37,24 29,20 22,19 C 15,17 8,18 1,22 Z" fill="url(#id-75100)" id="id-75163"></path><polygon points="63 0 79 9 71 30 42 26 32 8" fill="url(#id-75101)" id="id-75164"></polygon><polygon points="63 0 78 8 55 28 43 26 48 15 40 6" fill="#E39B8A" id="id-75164"></polygon><path d=" M 34,69 C 35,67 35,65 36,64 C 38,59 42,56 42,53 C 43,49 44,43 44,35 L 51,24 L 64,24 L 75,32 L 75,35 L 71,34 C 71,42 71,48 72,54 C 73,57 76,59 78,62 C 79,64 79,66 80,69 L 34,69 Z" fill="url(#id-75102)" id="id-75166"></path><path d=" M 34,69 C 35,67 35,65 36,64 C 38,59 42,56 42,53 L 44,69 L 34,69 Z" fill="url(#id-75103)" id="id-75166"></path><polygon points="44 35 36 24 51 25" fill="#DB8171" id="id-75168"></polygon><polygon points="51 25 48 59 48 68 57 71 69 67 64 53 64 25" fill="url(#id-75104)" id="id-75169"></polygon><polygon points="35 71 38 79 51 79 60 84 69 79 75 78 79 73 80 71 57 72" fill="#5F0B00" opacity="0.696" id="id-75170"></polygon><path d=" M 45,77 C 38,76 35,73 34,69 C 35,69 37,69 38,68 C 39,68 41,68 44,68 L 44,66 C 49,68 54,69 59,69 C 63,69 66,68 70,66 L 80,68 L 80,71 C 78,74 76,76 73,76 C 72,77 70,75 69,75 C 67,75 66,76 62,77 C 59,78 56,77 51,77 C 51,77 46,77 45,77 Z" fill="url(#id-75105)" id="id-75171"></path><path d=" M 48,77 C 42,75 41,73 43,73 C 46,73 50,74 55,77 L 48,77 Z" fill="url(#id-75106)" id="id-75172"></path><path d=" M 62,77 C 65,74 68,73 70,72 C 72,72 73,73 72,76 L 62,77 Z" fill="url(#id-75107)" id="id-75173"></path><polygon points="51 64 57 68 66 62" fill="#FFDCD6" id="id-75174"></polygon><polygon points="57 36 51 24 59 21 64 25" fill="#FFD6CC" id="id-75175"></polygon></g><g transform=" translate(26,100)" id="id-75176"><path d=" M 8,30 C 16,24 23,20 31,20 C 38,20 45,25 51,34 L 8,30 Z" fill="#621115" id="id-75177"></path><path d=" M 33,28 C 24,23 23,20 31,20 C 38,20 45,25 51,34 L 33,28 Z" fill="#E99884" id="id-75177"></path><path d=" M 91,37 C 91,29 97,24 108,22 C 118,20 127,23 134,30 L 91,37 Z" fill="#D06E5D" id="id-75179"></path><path d=" M 105,30 C 104,25 105,22 109,21 C 113,21 117,23 120,28 L 105,30 Z" fill="#F6B3A1" id="id-75179"></path><polygon points="30 25 36 22 39 27" fill="#F7BBD4" id="id-75181"></polygon><polygon points="106 28 113 27 108 23" fill="#FCC3E4" id="id-75182"></polygon><path d=" M 96,40 C 103,46 110,48 115,47 C 120,46 127,42 135,35 C 127,38 121,40 117,40 C 110,41 102,38 96,40 Z" fill="url(#id-75108)" id="id-75183"></path><path d=" M 9,41 C 18,45 25,46 31,45 C 37,44 45,41 53,37 L 49,35 C 42,38 36,40 31,40 C 27,40 22,38 17,37 L 9,41 Z" fill="url(#id-75109)" id="id-75184"></path><path d=" M 9,41 C 15,43 18,44 21,45 C 21,40 31,40 34,40 C 26,40 21,38 17,36 L 9,41 Z" fill="#AD3F35" id="id-75184"></path><path d=" M 36,39 C 39,38 44,37 50,35 C 44,30 38,27 33,27 C 27,27 21,30 15,35 C 25,38 32,39 36,39 Z" fill="#F5D4F2" id="id-75186"></path><path d=" M 97,37 C 106,39 112,40 116,39 C 121,38 125,37 129,34 L 116,27 L 99,32 L 97,37 Z" fill="#E7CAEC" id="id-75187"></path><path d=" M 97,37 C 98,38 100,38 100,38 C 102,34 106,32 111,32 C 115,31 121,33 127,37 C 128,36 129,35 130,34 L 116,27 L 99,32 L 97,37 Z" fill="#000000" opacity="0.297" id="id-75187"></path><path d=" M 94,37 L 100,38 C 99,38 98,37 99,36 C 99,35 100,34 101,32 L 94,37 Z" fill="#BB8083" id="id-75189"></path><path d=" M 24,30 C 24,36 27,39 32,38 C 38,38 41,35 41,29 L 30,28 L 24,30 Z" fill="#250A10" id="id-75190"></path><path d=" M 29,33 L 25,34 C 27,37 29,38 32,38 C 36,38 39,36 40,32 C 40,32 39,32 35,32 C 35,34 34,35 33,35 C 31,35 30,34 29,33 Z" fill="url(#id-75110)" id="id-75190"></path><path d=" M 46,36 C 47,36 48,35 50,35 C 44,30 38,27 33,27 C 27,27 21,30 15,35 L 20,37 C 24,33 27,31 29,31 C 37,31 43,32 46,36 Z" fill="#000000" opacity="0.296" id="id-75186"></path><polygon points="31 32 31 31 32 31 32 29 29 29 29 32" fill="#B99794" id="id-75193"></polygon><path d=" M 105,30 C 104,33 105,36 108,38 L 117,38 C 120,37 122,34 122,29 C 117,28 114,28 112,28 C 110,28 108,29 105,30 Z" fill="url(#id-75111)" id="id-75194"></path><path d=" M 105,30 C 104,33 105,36 108,38 C 107,36 106,35 106,34 C 107,34 107,34 109,33 C 109,33 109,36 112,36 C 115,36 117,34 118,32 C 119,32 120,32 121,32 C 121,34 119,36 117,38 C 121,37 122,32 122,29 C 117,28 114,28 112,28 C 110,28 108,29 105,30 Z" fill="#15050F" id="id-75194"></path><polygon points="113 30 110 31 111 33 113 33" fill="#D2B0AD" id="id-75196"></polygon><path d=" M 46,31 C 46,33 46,34 46,34 C 46,35 46,36 45,36 L 50,35 L 46,31 Z" fill="#B2514F" id="id-75197"></path><polygon points="46 32 51 36 53 37 52 35 47 32" fill="#8E2A27" id="id-75198"></polygon><path d=" M 10,41 L 17,37 L 24,39 L 17,34 C 21,31 26,29 32,28 C 37,28 41,30 46,32 C 46,32 47,32 47,32 C 41,27 36,25 31,25 C 28,25 22,26 13,28 L 1,30 L 12,36 L 10,41 Z" fill="#26070C" id="id-75199"></path><path d=" M 92,37 C 93,37 94,37 94,37 C 100,32 106,29 111,29 C 116,28 122,30 128,34 L 121,40 L 131,37 L 136,40 L 135,35 L 145,29 L 133,30 C 125,26 119,25 114,26 C 105,26 98,30 92,37 Z" fill="#24060D" id="id-75200"></path><path d=" M 91,12 L 91,20 C 105,14 116,12 123,12 C 130,12 138,15 144,22 C 139,12 131,6 123,3 C 120,2 108,4 96,7 C 95,8 93,10 91,12 Z" fill="#471D15" id="id-75201"></path><path d=" M 1,18 C 9,12 15,10 19,10 C 23,10 33,12 49,17 L 58,9 C 38,4 26,1 22,1 C 13,5 7,8 5,11 L 1,18 Z" fill="#471D15" id="id-75202"></path><polygon points="117 38 102 39 112 40" fill="#FFEDEC" id="id-75203"></polygon><polygon points="41 37 26 38 27 39 33 40" fill="#FFD2D4" id="id-75203"></polygon></g></g><defs></defs><g transform=" translate(452,1198)" fill="#000000" id="id-40057"><g transform=" translate(306,283) scale(-1,1) translate(-306,-283) translate(213,1)" id="id-40058"><path d=" M 88,31 C 112,61 143,92 181,123 L 181,128 C 141,97 106,61 76,22 C 80,21 83,26 88,31 Z" id="id-40059"></path><path d=" M 30,3 C 54,81 185,184 185,184 C 185,187 184,189 184,191 C 98,117 46,56 28,8 C 28,6 29,4 30,3 Z" id="id-40060"></path><path d=" M 8,85 C 53,41 75,20 75,20 C 78,21 79,22 79,22 L 8,91 C 8,87 8,85 8,85 Z" id="id-40061"></path><path d=" M 2,142 C 51,101 103,45 103,45 C 106,46 108,47 108,47 C 72,85 37,119 1,149 C 1,147 1,145 2,142 Z" id="id-40062"></path><path d=" M 0,196 C 45,161 88,119 129,70 C 130,69 133,71 132,72 C 92,122 48,165 0,202 C 0,198 0,196 0,196 Z" id="id-40063"></path><path d=" M 8,243 C 6,246 7,252 9,250 C 103,180 159,98 159,98 L 156,94 C 106,159 57,209 8,243 Z" id="id-40064"></path><path d=" M 19,290 C 18,292 19,294 20,295 C 138,204 179,120 179,120 L 177,116 C 136,183 84,241 19,290 Z" id="id-40065"></path><path d=" M 15,53 C 14,55 14,58 14,60 C 80,172 181,247 181,247 L 182,241 C 94,164 39,102 15,53 Z" id="id-40066"></path><path d=" M 6,107 C 4,111 4,111 4,113 C 79,221 178,298 178,298 L 179,292 C 112,239 55,177 6,107 Z" id="id-40067"></path><path d=" M 0,156 C 0,158 0,160 0,162 C 78,273 173,347 173,347 L 174,341 C 108,286 50,224 0,156 Z" id="id-40068"></path><path d=" M 1,208 C 0,209 1,212 1,214 C 80,318 170,394 170,394 C 171,391 171,389 170,388 C 110,342 69,287 1,208 Z" id="id-40069"></path><path d=" M 30,335 C 30,337 30,339 31,341 C 143,244 184,167 184,167 L 184,162 C 145,224 93,282 30,335 Z" id="id-40070"></path><path d=" M 42,377 C 42,379 42,381 42,383 C 142,298 184,219 184,219 L 184,213 C 145,274 97,329 42,377 Z" id="id-40071"></path><path d=" M 10,266 C 9,267 10,270 10,271 C 107,395 169,443 169,443 C 170,441 170,439 169,438 C 117,394 71,342 10,266 Z" id="id-40072"></path><path d=" M 29,329 C 29,331 29,333 29,334 C 110,443 166,487 166,487 C 167,484 167,482 166,481 C 120,449 29,329 29,329 Z" id="id-40073"></path><path d=" M 44,388 C 44,389 44,391 44,394 C 113,487 115,487 164,528 C 164,527 164,525 163,523 C 93,462 93,449 44,388 Z" id="id-40074"></path><path d=" M 53,421 C 53,423 53,425 54,426 C 144,345 182,271 182,271 L 183,264 C 143,328 100,380 53,421 Z" id="id-40075"></path><path d=" M 56,467 C 56,469 56,470 57,473 C 124,412 173,333 173,333 L 174,326 C 137,383 98,430 56,467 Z" id="id-40076"></path><path d=" M 55,440 C 55,444 55,444 56,445 C 119,542 155,562 155,562 L 156,558 C 129,541 95,502 55,440 Z" id="id-40077"></path><path d=" M 60,511 C 60,514 60,514 60,515 C 124,460 171,385 171,385 L 171,379 C 135,433 98,477 60,511 Z" id="id-40078"></path><path d=" M 56,558 C 55,559 56,562 56,562 C 112,513 170,430 170,430 L 170,423 C 133,476 95,521 56,558 Z" id="id-40079"></path><path d=" M 97,562 C 137,520 167,471 167,471 C 166,476 166,478 166,478 C 148,506 126,535 100,563 C 99,563 95,564 97,562 Z" id="id-40080"></path><path d=" M 130,562 C 132,562 134,562 134,562 C 154,535 164,521 164,521 L 164,517 C 141,547 130,562 130,562 Z" id="id-40081"></path><path d=" M 115,562 C 112,562 111,562 111,562 C 94,542 76,517 57,486 C 57,484 57,483 57,481 C 91,536 115,562 115,562 Z" id="id-40082"></path><path d=" M 60,523 C 60,525 60,527 60,527 C 74,550 81,562 81,562 L 83,562 C 68,536 60,523 60,523 Z" id="id-40083"></path><path d=" M 55,550 C 55,552 54,553 54,553 C 57,559 58,561 58,561 L 60,562 C 57,554 55,550 55,550 Z" id="id-40084"></path><path d=" M 47,27 C 46,22 45,20 45,20 C 33,7 26,0 26,0 L 23,2 C 39,18 47,27 47,27 Z" transform=" translate(35,13) scale(-1,1) translate(-35,-13)" id="id-40085"></path></g><g transform=" translate(0,0)" id="id-40086"><path d=" M 96,24 C 119,53 147,81 180,107 L 190,120 C 152,93 117,59 85,18 C 81,14 92,20 96,24 Z" id="id-40059"></path><path d=" M 33,0 C 74,85 191,175 191,175 C 191,177 190,180 190,181 C 103,109 50,50 31,6 C 32,3 32,1 33,0 Z" id="id-40060"></path><path d=" M 19,57 C 53,24 69,8 69,8 C 72,10 73,10 73,10 L 17,65 C 19,60 19,57 19,57 Z" id="id-40061"></path><path d=" M 3,126 C 52,85 106,26 106,26 C 109,28 111,28 111,28 C 73,68 37,103 2,133 C 2,131 2,129 3,126 Z" id="id-40062"></path><path d=" M 1,182 C 49,145 94,101 134,52 C 136,51 138,53 137,54 C 98,104 53,149 1,188 C 1,184 1,182 1,182 Z" id="id-40063"></path><path d=" M 7,234 C 5,236 6,242 8,240 C 101,170 162,81 162,81 L 159,78 C 106,147 55,199 7,234 Z" id="id-40064"></path><path d=" M 16,283 C 14,284 16,286 16,288 C 133,197 182,109 182,109 L 179,105 C 134,174 79,233 16,283 Z" id="id-40065"></path><path d=" M 20,54 C 18,56 18,58 18,61 C 93,171 185,238 185,238 L 186,231 C 122,182 67,123 20,54 Z" id="id-40066"></path><path d=" M 8,102 C 7,106 7,106 7,108 C 84,216 179,288 179,288 L 180,282 C 116,232 59,172 8,102 Z" id="id-40067"></path><path d=" M 0,151 C 0,153 0,155 0,157 C 84,264 173,337 173,337 L 173,331 C 109,277 52,217 0,151 Z" id="id-40068"></path><path d=" M 3,206 C 2,208 3,210 3,212 C 86,314 169,385 169,385 C 171,382 171,380 169,379 C 115,332 70,285 3,206 Z" id="id-40069"></path><path d=" M 24,331 C 24,334 24,336 24,337 C 139,246 193,147 193,147 L 192,142 C 144,217 88,280 24,331 Z" id="id-40070"></path><path d=" M 33,378 C 33,380 33,381 33,384 C 137,296 189,205 189,205 L 189,199 C 143,270 91,329 33,378 Z" id="id-40071"></path><path d=" M 12,264 C 11,265 12,268 12,270 C 108,393 167,435 167,435 C 168,432 168,430 167,429 C 116,385 72,340 12,264 Z" id="id-40072"></path><path d=" M 21,316 C 21,318 21,320 21,322 C 102,430 165,480 165,480 C 166,478 167,476 165,474 C 120,443 21,316 21,316 Z" id="id-40073"></path><path d=" M 31,368 C 31,370 32,372 32,374 C 106,475 118,487 163,524 C 163,523 163,520 163,518 C 90,457 85,435 31,368 Z" id="id-40074"></path><path d=" M 43,424 C 42,426 43,428 44,428 C 135,349 182,269 182,269 L 182,263 C 137,331 91,384 43,424 Z" id="id-40075"></path><path d=" M 51,467 C 51,470 51,471 51,473 C 118,415 173,331 173,331 L 174,324 C 133,384 92,432 51,467 Z" id="id-40076"></path><path d=" M 42,420 C 42,423 42,423 42,425 C 109,530 158,562 158,562 L 159,559 C 121,528 82,482 42,420 Z" id="id-40077"></path><path d=" M 56,511 C 56,514 56,514 56,516 C 120,460 169,385 169,385 L 170,378 C 131,433 94,477 56,511 Z" id="id-40078"></path><path d=" M 53,558 C 51,560 52,562 52,562 C 111,516 166,434 166,434 L 167,427 C 132,478 94,522 53,558 Z" id="id-40079"></path><path d=" M 95,562 C 134,520 166,473 166,473 C 165,478 164,480 164,480 C 146,507 124,535 99,563 C 97,563 94,564 95,562 Z" id="id-40080"></path><path d=" M 130,563 C 132,563 134,562 134,562 C 154,535 164,522 164,522 L 164,518 C 141,548 130,563 130,563 Z" id="id-40081"></path><path d=" M 116,562 C 114,562 112,562 112,562 C 90,536 70,507 51,476 C 51,474 51,473 51,471 C 84,527 116,562 116,562 Z" id="id-40082"></path><path d=" M 56,517 C 56,520 56,521 56,521 C 73,549 81,563 81,563 L 84,563 C 65,533 56,517 56,517 Z" id="id-40083"></path><path d=" M 54,552 C 54,554 54,555 54,555 C 56,560 57,563 57,563 L 59,563 C 56,555 54,552 54,552 Z" id="id-40084"></path></g></g><defs></defs><g transform=" translate(444,771)" id="id-47936"><g transform=" translate(1,267)" id="id-47937"><path d=" M 15,390 C 10,388 8,386 5,383 C -5,322 0,267 19,217 C 30,171 39,130 48,93 C 60,62 77,31 85,1 C 145,0 187,0 213,1 C 286,2 337,6 338,7 C 348,37 361,65 373,103 C 387,156 400,210 413,266 C 417,312 416,350 408,381 C 404,379 402,378 402,378 C 354,365 292,365 226,370 C 206,370 197,370 197,370 C 128,367 76,365 15,382 L 15,390 Z" fill="#130727" id="id-47938"></path><path d=" M 5,383 C 17,364 28,349 40,340 L 1,355 C 2,367 4,377 5,383 Z" fill="#343360" id="id-47939"></path><path d=" M 41,376 C 58,321 72,267 116,190 C 138,162 159,136 178,118 C 172,114 168,111 168,111 C 133,135 97,164 57,207 C 55,129 54,90 54,90 C 70,46 78,24 78,24 C 102,54 114,70 114,70 L 169,21 C 239,89 275,123 275,123 C 271,157 270,174 270,174 C 235,202 217,217 217,217 C 217,294 216,333 216,333 C 263,277 287,249 287,249 C 304,260 312,265 312,265 L 315,367 C 289,366 258,368 226,370 L 196,370 C 121,366 70,368 41,376 Z" fill="#1C1231" id="id-47940"></path><path d=" M 41,376 C 58,315 80,253 116,190 C 135,167 154,143 178,118 C 181,119 182,120 182,120 C 147,176 130,204 130,204 L 132,216 C 176,189 198,176 198,176 C 202,167 204,162 204,162 C 212,159 217,157 217,157 C 205,180 200,192 200,192 C 160,239 141,263 141,263 C 202,215 232,191 232,191 L 233,204 C 222,212 217,216 217,216 C 216,230 216,237 216,237 C 191,244 179,248 179,248 C 128,288 102,308 102,308 C 71,348 56,368 56,368 C 97,364 117,362 117,362 C 181,366 212,368 212,368 L 271,362 L 315,367 C 288,367 258,368 226,370 L 196,370 C 136,367 83,368 41,376 Z" fill="#1D1333" id="id-47941"></path><path d=" M 56,368 C 78,342 89,330 89,330 L 88,363 C 66,366 56,368 56,368 Z" fill="#97939B" id="id-47942"></path><path d=" M 89,330 C 98,316 103,310 103,310 C 107,307 109,306 109,306 L 106,361 L 88,363 C 89,341 89,330 89,330 Z" fill="#251E3B" id="id-47943"></path><path d=" M 111,361 C 112,322 113,303 113,303 C 142,280 156,269 156,269 L 122,360 C 115,361 111,361 111,361 Z" fill="#363766" id="id-47944"></path><path d=" M 153,278 C 170,306 178,320 178,320 L 178,251 L 156,269 C 154,275 153,278 153,278 Z" fill="#2B264C" id="id-47945"></path><path d=" M 178,366 L 178,251 L 216,237 C 216,302 216,334 216,334 C 260,278 282,250 282,250 C 288,248 291,246 291,246 L 265,363 L 212,368 L 178,366 Z" fill="#363764" id="id-47946"></path><path d=" M 216,309 C 212,317 210,320 210,320 C 200,311 196,306 196,306 C 201,319 203,325 203,325 L 207,368 C 210,368 212,368 212,368 L 216,367 L 216,334 C 216,317 216,309 216,309 Z" fill="#2B2549" id="id-47947"></path><path d=" M 197,306 C 206,297 210,293 210,293 L 208,320 C 201,311 197,306 197,306 Z" fill="#9895A0" id="id-47948"></path><path d=" M 295,293 C 298,294 299,295 299,295 C 301,281 302,274 302,274 L 295,266 C 295,284 295,293 295,293 Z" fill="#ACA8AD" id="id-47949"></path><path d=" M 317,353 C 316,328 316,315 316,315 C 330,304 338,298 338,298 C 331,258 328,239 328,239 C 335,267 339,281 339,281 C 345,293 348,300 348,300 C 362,270 369,256 369,256 C 367,279 366,291 366,291 C 382,297 389,300 389,300 C 374,346 366,369 366,369 L 358,363 C 330,356 317,353 317,353 Z" fill="#ACA8AD" id="id-47950"></path><path d=" M 375,370 C 384,371 388,372 388,372 C 389,343 389,329 389,329 L 383,352 C 377,364 375,370 375,370 Z" fill="#ACA8AD" id="id-47951"></path><path d=" M 393,376 C 403,304 402,235 389,167 L 413,266 C 418,307 415,345 408,381 L 400,382 L 400,378 C 395,377 393,376 393,376 Z" fill="#2B2345" id="id-47952"></path><path d=" M 348,300 L 339,281 C 332,253 328,239 328,239 C 322,194 318,172 318,172 L 371,251 L 348,300 Z" fill="#250E32" id="id-47953"></path><path d=" M 319,223 C 309,194 305,179 305,179 C 307,172 309,169 309,169 L 318,177 C 319,208 319,223 319,223 Z" fill="#2A2750" id="id-47954"></path><path d=" M 252,258 C 259,212 262,190 262,190 C 292,168 307,156 307,156 L 301,179 C 268,231 252,258 252,258 Z" fill="#7E7784" id="id-47955"></path><path d=" M 108,120 C 125,85 134,68 134,68 C 126,114 122,136 122,136 L 83,218 C 99,152 108,120 108,120 Z" fill="#241C3B" id="id-47956"></path><path d=" M 215,201 C 264,149 289,123 289,123 C 292,113 293,108 293,108 C 282,72 277,53 277,53 C 277,43 276,31 272,18 C 274,24 276,15 281,46 C 292,96 298,120 298,120 C 298,128 297,136 292,146 C 241,183 215,201 215,201 Z" fill="#96919A" id="id-47957"></path><path d=" M 209,208 C 204,197 202,192 202,192 L 208,176 C 208,197 209,208 209,208 Z" fill="#ACA8AD" id="id-47958"></path><path d=" M 203,160 C 209,159 211,159 211,159 L 210,140 C 206,153 203,160 203,160 Z" fill="#ACA8AD" id="id-47959"></path><path d=" M 0,325 C 23,289 34,271 34,271 C 67,223 84,199 84,199 C 43,230 23,245 23,245 L 37,141 L 19,217 C 6,253 -1,289 0,325 Z" fill="#343360" id="id-47960"></path><path d=" M 56,218 C 67,202 72,194 72,194 C 91,177 101,168 101,168 L 87,196 C 66,211 56,218 56,218 Z" fill="#948F97" id="id-47961"></path><path d=" M 100,187 C 102,173 104,165 104,165 L 119,153 C 106,176 100,187 100,187 Z" fill="#9A959D" id="id-47962"></path><polygon points="48 93 90 60 78 24" fill="#302E57" id="id-47963"></polygon><path d=" M 123,69 C 136,58 142,52 142,52 L 158,59 C 135,66 123,69 123,69 Z" fill="#686781" id="id-47964"></path><path d=" M 272,147 C 278,142 284,136 281,123 C 269,81 263,59 263,59 L 253,58 C 274,105 280,135 272,147 Z" fill="#ACA8AD" id="id-47965"></path><path d=" M 213,148 C 213,102 213,79 213,79 L 222,107 C 216,134 213,148 213,148 Z" fill="#312B4E" id="id-47966"></path><path d=" M 121,146 C 124,136 125,131 125,131 C 147,108 158,96 158,96 C 170,58 176,39 176,39 C 201,20 213,11 213,11 C 216,31 217,41 217,41 C 255,47 274,50 274,50 C 231,73 209,84 209,84 C 209,123 208,143 208,143 L 199,171 L 132,216 L 130,204 L 182,120 L 178,118 L 168,111 C 137,134 121,146 121,146 Z" fill="#2C274B" id="id-47967"></path><path d=" M 170,58 C 201,47 217,42 217,42 L 210,12 L 176,39 C 172,51 170,58 170,58 Z" fill="#686781" id="id-47968"></path><path d=" M 136,51 L 167,65 C 173,48 176,39 176,39 C 201,20 214,10 214,10 L 214,3 L 169,21 C 147,41 136,51 136,51 Z" fill="#261F3C" id="id-47969"></path><path d=" M 214,3 C 217,2 219,1 220,0 L 274,2 C 276,3 279,5 283,7 C 277,36 274,50 274,50 L 217,40 C 215,16 214,3 214,3 Z" fill="#1A1030" id="id-47970"></path><path d=" M 302,150 C 304,133 306,124 306,124 C 353,180 377,208 377,208 C 363,199 357,195 357,195 L 316,150 C 307,150 302,150 302,150 Z" fill="#261F40" id="id-47971"></path><path d=" M 360,198 C 375,219 383,229 383,229 C 389,248 391,257 391,257 L 391,223 C 370,206 360,198 360,198 Z" fill="#97929B" id="id-47972"></path><path d=" M 397,224 C 374,203 363,192 363,192 C 361,137 331,72 318,13 C 302,7 293,4 293,4 L 337,5 C 376,106 396,179 397,224 Z" fill="#250E32" id="id-47973"></path><path d=" M 286,6 C 285,25 284,35 284,35 C 317,16 333,6 333,6 L 312,5 C 295,6 286,6 286,6 Z" fill="#2E264F" id="id-47974"></path><path d=" M 282,26 C 275,15 272,10 272,10 C 273,6 274,4 274,4 L 282,8 C 282,20 282,26 282,26 Z" fill="#ACA8AD" id="id-47975"></path><path d=" M 94,255 C 104,237 109,228 109,228 L 109,242 C 99,250 94,255 94,255 Z" fill="#9A959D" id="id-47976"></path></g><g transform=" translate(50,0)" id="id-47937"><path d=" M 36,270 C 40,255 41,240 37,226 C 28,158 24,123 24,123 C -4,82 -8,81 15,28 C 28,17 48,11 72,8 C 135,14 166,17 166,17 C 195,9 223,4 250,0 C 267,4 286,14 305,24 L 319,83 L 302,126 C 297,167 279,244 285,274 C 226,270 87,265 36,270 Z" fill="#130727" id="id-47938"></path><path d=" M 50,269 C 92,262 114,258 114,258 C 68,245 46,238 46,238 C 43,213 42,201 42,201 C 58,171 66,156 66,156 C 128,154 159,153 159,153 C 100,143 71,138 71,138 C 77,129 79,125 79,125 C 105,117 118,113 118,113 C 64,111 36,110 36,110 C 23,98 16,92 16,92 L 51,12 L 72,8 C 135,14 166,17 166,17 C 166,67 165,93 165,93 C 226,86 257,83 257,83 C 251,106 248,117 248,117 C 193,132 166,140 166,140 C 212,147 234,151 234,151 C 232,162 231,168 231,168 C 146,184 104,192 104,192 C 186,191 227,190 227,190 C 220,219 217,233 217,233 C 191,249 172,261 159,269 C 86,269 50,269 50,269 Z" fill="#211736" id="id-47979"></path><path d=" M 88,251 C 85,211 83,191 83,191 L 187,153 L 231,168 L 104,192 L 227,190 L 217,233 C 189,251 169,263 159,269 L 91,268 C 91,267 91,265 91,263 L 114,258 C 97,253 88,251 88,251 Z" fill="#2E284A" id="id-47980"></path><path d=" M 160,252 C 156,216 154,198 154,198 L 160,192 C 160,232 160,252 160,252 Z" fill="#7D7885" id="id-47981"></path><path d=" M 222,212 L 220,223 C 204,225 195,226 195,226 C 209,220 216,217 216,217 L 214,211 C 219,211 222,212 222,212 Z" fill="#ACA8AD" id="id-47982"></path><path d=" M 221,206 C 207,206 199,206 199,206 C 211,201 217,198 217,198 C 208,193 203,190 203,190 L 225,192 C 222,202 221,206 221,206 Z" fill="#ACA8AD" id="id-47983"></path><path d=" M 232,265 C 262,261 277,260 277,260 C 248,244 234,237 234,237 C 245,168 250,134 250,134 C 294,92 316,71 316,71 L 318,83 L 302,126 C 299,152 293,197 285,263 C 284,265 286,268 289,274 C 251,268 232,265 232,265 Z" fill="#250E32" id="id-47973"></path><path d=" M 262,226 C 269,220 272,217 272,217 L 266,205 C 263,219 262,226 262,226 Z" fill="#ACA8AD" id="id-47985"></path><path d=" M 225,232 C 223,227 223,225 223,225 C 229,185 233,165 233,165 L 246,139 C 232,201 225,232 225,232 Z" fill="#ACA8AD" id="id-47986"></path><path d=" M 194,173 C 216,169 227,166 227,166 C 213,162 206,159 206,159 L 206,166 C 198,171 194,173 194,173 Z" fill="#ACA8AD" id="id-47987"></path><path d=" M 152,131 C 190,120 209,115 209,115 L 107,122 C 137,128 152,131 152,131 Z" fill="#110425" id="id-47988"></path><path d=" M 164,139 C 172,135 175,133 175,133 C 172,128 170,126 170,126 L 165,128 C 164,135 164,139 164,139 Z" fill="#787180" id="id-47989"></path><path d=" M 164,115 C 170,115 172,115 172,115 L 164,101 C 164,111 164,115 164,115 Z" fill="#585065" id="id-47990"></path><path d=" M 250,115 C 249,101 248,95 248,95 C 257,87 261,83 261,83 L 265,86 C 255,105 250,115 250,115 Z" fill="#ACA8AD" id="id-47991"></path><path d=" M 105,102 C 64,103 43,104 43,104 C 24,92 14,87 14,87 C 31,51 39,33 39,33 L 57,11 C 67,9 73,8 73,8 C 116,12 137,14 137,14 C 99,38 81,51 81,51 C 88,34 91,26 91,26 C 69,46 58,56 58,56 L 77,84 C 96,96 105,102 105,102 Z" fill="#34335E" id="id-47992"></path><path d=" M 43,104 L 52,86 L 66,101 C 50,103 43,104 43,104 Z" fill="#6D6982" id="id-47993"></path><path d=" M 4,91 C 7,69 13,46 26,21 L 14,28 C 0,60 -3,81 4,91 Z" fill="#5968B3" id="id-47994"></path><path d=" M 161,93 C 157,69 154,56 154,56 L 162,27 C 161,71 161,93 161,93 Z" fill="#686274" id="id-47995"></path><path d=" M 166,90 C 234,73 267,65 267,65 C 292,70 304,73 304,73 L 292,19 L 250,0 C 223,4 195,10 166,17 C 166,66 166,90 166,90 Z" fill="#292344" id="id-47996"></path><path d=" M 166,17 C 187,18 198,19 198,19 L 212,7 C 181,14 166,17 166,17 Z" fill="#5968B2" id="id-47997"></path><path d=" M 200,23 C 203,44 205,55 205,55 C 242,54 260,53 260,53 C 266,58 269,60 269,60 C 261,34 257,21 257,21 L 265,8 L 250,0 C 217,15 200,23 200,23 Z" fill="#110425" id="id-47998"></path><path d=" M 246,8 C 251,6 254,6 254,6 C 260,9 263,11 263,11 L 256,18 C 250,11 246,8 246,8 Z" fill="#ACA8AD" id="id-47999"></path><path d=" M 256,25 C 256,37 257,43 257,43 L 269,58 C 260,36 256,25 256,25 Z" fill="#ACA8AD" id="id-48000"></path><path d=" M 252,71 C 265,66 271,64 271,64 L 260,56 C 255,66 252,71 252,71 Z" fill="#ACA8AD" id="id-48001"></path><path d=" M 83,159 L 77,162 C 77,171 78,180 83,190 C 81,192 80,192 80,192 C 83,216 84,227 84,227 L 86,190 C 84,182 81,174 83,159 Z" fill="#716B7A" id="id-48002"></path><path d=" M 26,144 C 32,159 35,167 35,167 C 41,217 44,242 44,242 C 42,251 40,267 35,272 C 36,266 39,255 39,250 C 39,242 39,234 37,226 C 30,171 26,144 26,144 Z" fill="#5968B3" id="id-48003"></path></g></g><defs><linearGradient x1="33%" y1="10%" x2="62%" y2="54%" id="id-41682"><stop stop-color="#79A491" offset="0%"></stop><stop stop-color="#2E544B" offset="100%"></stop></linearGradient><linearGradient x1="50%" y1="0%" x2="50%" y2="100%" id="id-41683"><stop stop-color="#43796D" offset="0%"></stop><stop stop-color="#336356" offset="100%"></stop></linearGradient><linearGradient x1="34%" y1="0%" x2="50%" y2="100%" id="id-41684"><stop stop-color="#2F5349" offset="0%"></stop><stop stop-color="#446D5E" offset="100%"></stop></linearGradient></defs><g transform=" translate(332,587)" id="id-41685"><path d=" M 92,687 L 100,713 C 98,711 95,709 92,707 C 59,716 45,718 15,731 C 33,685 20,685 1,670 C 20,633 24,613 15,595 C 27,582 53,558 27,555 C 27,550 25,549 26,543 C 58,495 37,462 37,440 C 61,390 100,254 86,188 C 88,184 90,181 92,177 L 92,163 L 117,97 L 179,62 L 179,48 L 197,3 L 201,6 C 199,9 199,12 201,13 C 260,71 296,99 322,121 C 338,111 359,96 385,76 L 434,33 L 454,1 L 474,48 L 471,59 L 537,97 L 557,163 L 568,183 L 562,193 C 568,271 584,351 610,434 C 592,505 587,501 610,539 C 587,579 610,576 616,592 C 614,634 616,624 636,670 C 631,675 624,683 614,695 L 619,727 C 587,714 571,707 571,707 L 534,706 L 542,685 L 515,659 L 523,641 L 499,601 C 499,587 500,572 501,558 C 492,540 484,510 475,467 L 454,390 L 451,370 L 443,364 L 318,360 L 199,377 L 170,480 L 152,500 L 157,513 C 147,543 140,573 136,603 C 127,609 115,616 100,624 C 106,637 111,649 114,659 C 112,674 92,687 92,687 Z" fill="url(#id-41682)" id="id-41686"></path><polygon points="120 294 114 313 72 308 80 282" fill="#EE0000" id="id-41687"></polygon><path d=" M 82,275 C 111,281 126,284 126,284 C 131,272 134,266 134,266 L 88,249 C 84,267 82,275 82,275 Z" fill="#FFAC00" id="id-41688"></path><path d=" M 157,513 C 146,546 140,576 136,603 C 126,609 114,616 100,624 C 106,637 111,649 114,659 C 112,671 104,680 92,687 L 100,713 C 95,709 92,707 92,707 C 75,711 66,714 66,714 C 65,689 64,676 64,676 C 37,690 23,697 23,697 C 24,691 20,684 10,677 C 47,665 95,665 95,665 L 89,562 L 157,513 Z" fill="#204740" id="id-41689"></path><path d=" M 17,631 C 29,628 46,623 67,616 L 15,595 C 20,607 21,619 17,631 Z" fill="#264B42" id="id-41690"></path><path d=" M 15,595 C 29,589 48,580 73,568 C 56,564 44,560 36,557 C 44,565 29,581 15,595 Z" fill="#1B433D" id="id-41691"></path><polygon points="69 715 41 723 33 690 56 678" fill="#FFAC00" id="id-41692"></polygon><path d=" M 89,562 L 38,541 L 27,555 L 73,568 L 15,595 L 67,616 L 17,631 L 1,670 L 10,677 C 36,669 64,665 95,665 C 93,635 91,601 89,562 Z" fill="#2C5045" id="id-41693"></path><path d=" M 60,510 C 106,509 129,509 129,509 L 77,446 C 66,488 60,510 60,510 Z" fill="#335C51" id="id-41694"></path><path d=" M 152,500 C 155,497 157,496 157,496 C 145,480 134,469 125,463 C 123,464 152,500 152,500 Z" fill="#254E45" id="id-41695"></path><path d=" M 87,441 C 59,428 45,421 45,421 L 68,353 C 81,411 87,441 87,441 Z" fill="#56816F" id="id-41696"></path><path d=" M 170,480 C 120,456 94,443 94,443 C 131,409 149,392 149,392 C 128,320 118,284 118,284 C 132,276 139,272 139,272 L 88,199 L 86,188 C 90,181 92,177 92,177 C 99,184 102,187 102,187 C 105,159 107,145 107,145 L 102,137 C 112,110 117,97 117,97 C 122,101 124,103 124,103 C 137,148 143,170 143,170 C 143,142 143,128 143,128 C 158,147 166,156 166,156 C 164,193 162,211 162,211 C 169,246 172,264 172,264 C 170,335 168,371 168,371 L 183,434 C 174,465 170,480 170,480 Z" fill="url(#id-41683)" id="id-41697"></path><path d=" M 259,369 C 219,375 199,377 199,377 C 192,381 189,382 189,382 C 185,340 183,319 183,319 C 187,299 190,289 190,289 L 250,341 L 259,369 Z" fill="#36675B" id="id-41698"></path><path d=" M 135,231 L 175,265 L 183,319 L 189,382 C 195,379 199,377 199,377 C 199,387 200,391 200,391 C 190,386 185,383 185,383 L 174,300 C 148,254 135,231 135,231 Z" fill="#21544C" id="id-41699"></path><path d=" M 220,374 C 287,368 321,365 321,365 L 441,367 L 451,370 L 443,364 L 318,360 C 253,370 220,374 220,374 Z" fill="#0D3021" id="id-41700"></path><path d=" M 305,362 C 305,341 305,331 305,331 L 310,361 C 307,362 305,362 305,362 Z" fill="#336053" id="id-41701"></path><path d=" M 354,361 C 355,343 356,334 356,334 L 360,361 C 356,361 354,361 354,361 Z" fill="#315C4F" id="id-41702"></path><path d=" M 443,364 C 434,363 430,363 430,363 C 430,336 429,323 429,323 C 391,316 372,313 372,313 C 409,268 428,246 428,246 L 465,308 C 450,345 443,364 443,364 Z" fill="#2C554B" id="id-41703"></path><path d=" M 118,328 C 116,336 115,340 115,340 L 74,328 C 72,336 71,340 71,340 C 108,351 127,356 127,356 L 135,332 C 123,329 118,328 118,328 Z" fill="#E1E2E5" id="id-41704"></path><path d=" M 226,150 C 184,186 163,205 163,205 L 166,144 C 206,148 226,150 226,150 Z" fill="#739F8D" id="id-41705"></path><path d=" M 190,77 C 192,82 193,84 193,84 C 155,103 136,112 136,112 L 131,106 C 170,86 190,77 190,77 Z" fill="#D6DBDC" id="id-41706"></path><polygon points="249 231 255 243 230 257 226 246" fill="#E1E2E5" id="id-41707"></polygon><path d=" M 290,164 C 290,149 290,141 290,141 C 267,141 256,141 256,141 C 248,150 244,155 244,155 C 259,164 267,168 267,168 L 270,164 C 283,164 290,164 290,164 Z" fill="#E1E2E5" id="id-41708"></path><path d=" M 295,142 C 295,147 295,149 295,149 C 303,149 306,149 306,149 C 299,154 295,156 295,156 C 295,162 295,166 295,166 C 309,165 316,165 316,165 C 316,161 316,159 316,159 C 308,159 305,159 305,159 C 312,155 316,153 316,153 L 315,142 C 302,142 295,142 295,142 Z" fill="#E1E2E5" id="id-41709"></path><path d=" M 337,141 L 337,141 C 337,141 337,149 337,165 C 337,165 331,165 320,166 L 320,166 L 320,166 C 320,165 320,157 320,142 L 320,142 L 337,141 L 337,141 Z M 331,146 C 331,146 329,146 326,146 L 326,146 L 326,162 C 326,162 327,162 331,162 L 331,162 L 331,161 C 331,161 331,156 331,146 Z" fill="#E1E2E5" id="id-41710"></path><path d=" M 344,141 C 343,158 343,166 343,166 C 360,167 369,167 369,167 C 381,159 387,155 387,155 L 376,141 C 355,141 344,141 344,141 Z" fill="#E1E2E5" id="id-41711"></path><path d=" M 390,162 C 399,173 403,178 403,178 C 358,250 336,285 336,285 C 325,286 319,286 319,286 C 318,270 318,261 318,261 C 322,261 324,261 324,261 C 358,207 376,180 376,180 L 371,174 C 384,166 390,162 390,162 Z" fill="#E1E2E5" id="id-41712"></path><path d=" M 335,192 C 322,208 316,216 316,216 L 304,193 C 324,192 335,192 335,192 Z" fill="#FFAC00" id="id-41713"></path><path d=" M 313,262 C 313,278 314,286 314,286 C 302,286 296,286 296,286 C 251,211 228,174 228,174 C 235,165 239,161 239,161 C 254,169 262,173 262,173 C 260,175 259,176 259,176 L 308,261 C 312,262 313,262 313,262 Z" fill="#E1E2E5" id="id-41714"></path><path d=" M 413,242 C 407,250 403,253 403,253 C 387,243 378,237 378,237 L 387,226 C 404,236 413,242 413,242 Z" fill="#E1E2E5" id="id-41715"></path><path d=" M 326,119 C 335,119 340,120 340,120 L 476,63 L 471,59 L 474,48 L 454,1 L 434,33 L 385,76 C 346,104 326,119 326,119 Z" fill="#305C52" id="id-41716"></path><polygon points="474 48 403 93 476 63 471 59" fill="#1A443E" id="id-41717"></polygon><path d=" M 314,120 C 287,111 240,93 173,65 L 179,62 L 179,48 L 194,10 C 254,70 293,106 314,120 Z" fill="#36685C" id="id-41718"></path><polygon points="179 48 255 94 173 65 179 62" fill="#1D4842" id="id-41719"></polygon><polygon points="382 79 324 116 269 76 322 121" fill="#95B0E3" id="id-41720"></polygon><polygon points="502 170 508 125 482 151 387 105 476 63 537 97" fill="#5C8574" id="id-41721"></polygon><polygon points="562 193 537 201 568 183" fill="#1D443E" id="id-41722"></polygon><path d=" M 636,670 C 610,672 571,670 521,664 L 542,685 L 534,706 L 571,707 L 619,727 L 614,695 C 621,686 629,678 636,670 Z" fill="#16423D" id="id-41723"></path><path d=" M 571,707 C 574,687 576,677 576,677 C 593,684 601,688 601,688 L 605,721 C 582,712 571,707 571,707 Z" fill="#2B574F" id="id-41724"></path><path d=" M 615,619 C 609,632 591,663 591,663 C 612,665 626,666 634,666 C 629,654 616,633 615,619 Z" fill="#4D7B6B" id="id-41725"></path><path d=" M 503,607 C 568,626 600,636 600,636 L 521,644 L 523,641 L 503,607 Z" fill="#16413C" id="id-41726"></path><path d=" M 510,568 C 536,575 549,579 549,579 C 539,600 534,611 534,611 L 501,603 C 507,580 510,568 510,568 Z" fill="#42695C" id="id-41727"></path><path d=" M 610,539 C 605,542 596,559 596,559 C 563,584 546,596 546,596 C 576,592 598,588 612,586 C 602,576 592,570 610,539 Z" fill="#1A4843" id="id-41728"></path><path d=" M 524,538 L 500,570 L 501,558 L 475,467 L 454,390 C 464,388 468,386 468,386 L 467,315 L 482,246 L 484,283 C 507,244 522,219 528,209 C 524,226 482,295 474,336 C 474,362 477,406 482,470 L 500,537 C 516,538 524,538 524,538 Z" fill="#163F3A" id="id-41729"></path><polygon points="484 283 482 246 494 193 494 253 528 209" fill="#32584E" id="id-41730"></polygon><path d=" M 521,459 C 511,457 499,454 485,451 C 509,309 524,231 528,216 C 541,246 485,417 521,459 Z" fill="#3E6356" id="id-41731"></path><path d=" M 608,428 C 575,492 547,501 524,456 C 508,421 514,375 514,375 L 590,365 C 602,407 608,428 608,428 Z" fill="url(#id-41684)" id="id-41732"></path><path d=" M 482,470 C 491,462 495,459 495,459 L 573,507 L 506,562 L 524,538 L 500,537 C 488,492 482,470 482,470 Z" fill="#1F4841" id="id-41733"></path><path d=" M 595,503 C 589,499 584,494 579,487 C 593,468 602,456 605,452 C 605,459 592,495 595,503 Z" fill="#204943" id="id-41734"></path><path d=" M 547,348 L 569,348 C 569,372 569,384 569,384 C 574,385 577,386 577,386 C 582,383 584,381 584,381 C 590,398 593,407 593,407 C 576,414 568,417 568,417 L 547,398 L 547,348 Z" fill="#E1E2E5" id="id-41735"></path><path d=" M 590,377 C 595,375 598,373 598,373 C 603,391 606,400 606,400 L 597,404 C 592,386 590,377 590,377 Z" fill="#E1E2E5" id="id-41736"></path><path d=" M 568,335 C 554,337 546,337 546,337 C 547,297 547,276 547,276 C 562,267 570,262 570,262 C 573,284 575,295 575,295 L 566,297 C 567,323 568,335 568,335 Z" fill="#E1E2E5" id="id-41737"></path><path d=" M 199,377 C 199,405 199,418 199,418 C 224,418 237,418 237,418 L 238,372 C 212,376 199,377 199,377 Z" fill="#FFAC00" id="id-41738"></path><path d=" M 238,372 C 238,377 237,380 237,380 L 199,390 L 199,377 C 225,374 238,372 238,372 Z" fill="#E87700" id="id-41739"></path><path d=" M 69,347 C 91,353 102,357 102,357 C 99,363 97,366 97,366 C 72,376 59,381 59,381 C 62,372 63,368 63,368 C 75,365 81,363 81,363 L 66,359 C 68,351 69,347 69,347 Z" fill="#E1E2E5" id="id-41740"></path><path d=" M 260,81 C 267,86 270,89 270,89 C 266,95 263,98 263,98 L 252,90 C 258,84 260,81 260,81 Z" fill="#82A6DA" id="id-41741"></path><path d=" M 261,85 C 264,87 266,88 266,88 C 264,91 263,92 263,92 L 256,90 C 259,87 261,85 261,85 Z" fill="#4476BA" id="id-41742"></path><path d=" M 367,96 C 373,103 376,106 376,106 C 384,101 387,98 387,98 L 375,87 C 369,93 367,96 367,96 Z" fill="#769EE0" id="id-41743"></path><path d=" M 375,92 C 372,95 371,96 371,96 C 375,101 377,103 377,103 L 383,99 C 378,94 375,92 375,92 Z" fill="#4170B2" id="id-41744"></path><path d=" M 376,97 C 375,249 374,325 374,325 C 379,328 381,329 381,329 L 380,99 C 377,98 376,97 376,97 Z" fill="#769EE0" id="id-41745"></path><path d=" M 259,91 C 258,213 258,274 258,274 L 264,277 L 264,92 C 260,91 259,91 259,91 Z" fill="#769EE0" id="id-41746"></path></g><defs><linearGradient x1="50%" y1="0%" x2="50%" y2="69%" id="id-62713"><stop stop-color="#EADAF6" offset="0%"></stop><stop stop-color="#979EE0" offset="100%"></stop></linearGradient><linearGradient x1="50%" y1="0%" x2="50%" y2="69%" id="id-62713"><stop stop-color="#EADAF6" offset="0%"></stop><stop stop-color="#979EE0" offset="100%"></stop></linearGradient><filter width="102%" height="105%" x="-1%" y="-1%" id="id-62715" filterUnits="objectBoundingBox"><feOffset result="id-62716" in="SourceAlpha" dx="0" dy="3"></feOffset><feColorMatrix in="SourceGraphic" type="matrix" values="0 0 0 0 0 0 0 0 0 0 0 0 0 0 0 0 0 0 0.400 0"></feColorMatrix></filter><path d=" M 94,1 C 104,13 106,24 99,34 C 100,38 104,44 111,52 C 111,52 111,52 111,52 L 111,52 C 112,52 112,52 112,52 C 114,53 115,54 115,54 C 114,54 114,55 114,55 C 127,68 138,72 147,69 C 148,63 151,63 153,66 C 154,66 154,65 154,65 C 154,61 157,56 160,61 C 166,55 170,47 173,36 C 175,34 176,33 177,33 L 177,33 C 178,33 178,33 178,33 L 176,30 C 178,27 179,22 180,18 L 180,17 C 180,16 180,15 181,14 L 183,14 C 182,20 181,26 186,29 L 182,45 L 175,50 L 173,45 C 171,55 166,62 160,67 L 160,71 C 168,83 167,91 165,99 L 165,100 C 165,100 165,100 165,100 L 165,101 C 165,101 165,101 165,101 C 165,92 162,83 154,71 L 153,71 L 152,77 C 156,87 158,98 151,117 C 155,102 152,89 146,77 L 146,74 C 134,76 122,71 110,59 C 109,58 107,56 106,55 L 105,53 L 105,53 L 104,52 C 100,49 97,45 94,43 C 90,44 85,49 81,54 L 80,55 C 79,56 77,58 76,59 L 75,59 C 67,67 58,74 40,74 L 41,78 C 33,89 33,103 35,117 C 30,97 30,84 35,77 L 33,71 L 32,71 C 26,79 22,89 22,102 C 18,90 21,79 27,68 C 21,63 17,56 13,46 C 12,49 11,50 11,50 C 7,46 5,45 5,45 C 2,34 0,28 0,28 C 4,28 5,26 6,23 C 6,20 6,17 4,15 L 8,11 L 11,31 L 9,33 L 13,36 C 17,46 17,51 26,61 C 28,57 32,57 32,66 L 34,67 C 35,65 39,62 39,69 C 51,72 62,66 72,55 L 72,53 L 76,52 C 82,45 86,40 87,35 C 80,25 80,14 94,1 Z M 93,8 C 87,16 86,24 91,32 L 96,32 C 101,23 99,15 93,8 Z" id="id-62718"></path><path d=" M 94,1 C 104,13 106,24 99,34 C 100,38 104,44 111,52 C 111,52 111,52 111,52 L 111,52 C 112,52 112,52 112,52 C 114,53 115,54 115,54 C 114,54 114,55 114,55 C 127,68 138,72 147,69 C 148,63 151,63 153,66 C 154,66 154,65 154,65 C 154,61 157,56 160,61 C 166,55 170,47 173,36 C 175,34 176,33 177,33 L 177,33 C 178,33 178,33 178,33 L 176,30 C 178,27 179,22 180,18 L 180,17 C 180,16 180,15 181,14 L 183,14 C 182,20 181,26 186,29 L 182,45 L 175,50 L 173,45 C 171,55 166,62 160,67 L 160,71 C 168,83 167,91 165,99 L 165,100 C 165,100 165,100 165,100 L 165,101 C 165,101 165,101 165,101 C 165,92 162,83 154,71 L 153,71 L 152,77 C 156,87 158,98 151,117 C 155,102 152,89 146,77 L 146,74 C 134,76 122,71 110,59 C 109,58 107,56 106,55 L 105,53 L 105,53 L 104,52 C 100,49 97,45 94,43 C 90,44 85,49 81,54 L 80,55 C 79,56 77,58 76,59 L 75,59 C 67,67 58,74 40,74 L 41,78 C 33,89 33,103 35,117 C 30,97 30,84 35,77 L 33,71 L 32,71 C 26,79 22,89 22,102 C 18,90 21,79 27,68 C 21,63 17,56 13,46 C 12,49 11,50 11,50 C 7,46 5,45 5,45 C 2,34 0,28 0,28 C 4,28 5,26 6,23 C 6,20 6,17 4,15 L 8,11 L 11,31 L 9,33 L 13,36 C 17,46 17,51 26,61 C 28,57 32,57 32,66 L 34,67 C 35,65 39,62 39,69 C 51,72 62,66 72,55 L 72,53 L 76,52 C 82,45 86,40 87,35 C 80,25 80,14 94,1 Z M 93,8 C 87,16 86,24 91,32 L 96,32 C 101,23 99,15 93,8 Z" id="id-62718"></path><linearGradient x1="91%" y1="59%" x2="4%" y2="42%" id="id-62720"><stop stop-color="#9FA2E1" offset="0%"></stop><stop stop-color="#E3D5F4" offset="100%"></stop></linearGradient></defs><g transform=" translate(567,430)" id="id-62721"><g transform=" translate(2,71)" id="id-62722"><path d=" M 8,78 C 12,42 13,24 13,24 C 9,15 7,10 7,10 C 8,4 8,0 8,0 C 6,0 5,0 5,0 C 5,7 5,10 5,10 L 0,15 L 8,78 Z" fill="url(#id-62713)" id="id-62723"></path><polygon points="6 29 10 24 6 11 0 17" fill="#272648" id="id-62724"></polygon><path d=" M 4,26 C 7,24 8,22 8,22 C 6,18 5,16 5,16 L 1,20 C 3,24 4,26 4,26 Z" fill="#00D170" id="id-62725"></path><path d=" M 11,25 L 11,50 L 13,24 L 7,10 L 5,10 L 6,11 C 9,21 11,25 11,25 Z" fill="#979EE0" id="id-62726"></path><path d=" M 8,1 C 10,3 10,5 10,5 L 8,7 L 8,1 Z" fill="#48487A" id="id-62727"></path></g><g transform=" translate(178,111) scale(-1,1) translate(-178,-111) translate(171,72)" id="id-62728"><path d=" M 8,78 C 12,42 13,24 13,24 C 9,15 7,10 7,10 C 8,4 8,0 8,0 C 6,0 5,0 5,0 C 5,7 5,10 5,10 L 0,15 L 8,78 Z" fill="url(#id-62713)" id="id-62723"></path><polygon points="6 29 10 24 6 11 0 17" fill="#272648" id="id-62724"></polygon><path d=" M 4,26 C 7,24 8,22 8,22 C 6,18 5,16 5,16 L 1,20 C 3,24 4,26 4,26 Z" fill="#00D170" id="id-62725"></path><path d=" M 11,25 L 11,50 L 13,24 L 7,10 L 5,10 L 6,11 C 9,21 11,25 11,25 Z" fill="#979EE0" id="id-62726"></path><path d=" M 8,1 C 10,3 10,5 10,5 L 8,7 L 8,1 Z" fill="#48487A" id="id-62727"></path></g><g id="id-62734"><use fill="#000000" fill-opacity="1" xlink:href="#id-62718" filter="url(#id-62715)"></use><use fill="#474878" xlink:href="#id-62718" fill-rule="evenodd"></use></g><polygon points="72 53 77 59 93 55 109 60 115 54 112 52 107 56 94 51 81 55 75 50" fill="#5C64A8" id="id-62738"></polygon><path d=" M 39,69 L 40,74 L 41,78 L 35,68 L 35,65 C 36,64 39,62 39,69 Z" fill="#979DE0" id="id-62739"></path><path d=" M 31,71 L 33,68 L 33,66 C 33,66 32,66 32,66 L 32,62 C 31,58 29,57 27,60 L 31,71 Z" fill="#AFACE4" id="id-62740"></path><path d=" M 13,36 L 12,35 L 8,41 C 9,39 9,37 9,37 C 8,34 8,33 8,33 C 8,31 9,30 11,30 L 8,11 L 5,14 C 6,15 8,15 6,20 C 6,25 5,28 0,28 C 4,38 6,43 6,43 L 11,47 C 13,45 13,41 13,36 Z" fill="#8D95DF" id="id-62741"></path><path d=" M 13,36 L 13,43 C 16,53 21,59 25,64 L 25,60 C 19,53 16,44 13,36 Z" fill="#BEB6E0" id="id-62742"></path><path d=" M 26,61 C 29,62 31,62 31,62 C 31,68 31,71 31,71 L 26,70 C 27,69 27,68 27,68 L 26,67 C 26,63 26,61 26,61 Z" fill="#220D07" id="id-62743"></path><polygon points="33 68 38 68 40 77 35 77" fill="#220D07" id="id-62744"></polygon><path d=" M 29,70 C 28,68 27,67 27,66 C 27,66 27,65 28,62 L 31,64 L 29,70 Z" fill="#00D170" id="id-62745"></path><polygon points="34 73 37 77 39 73 38 70 37 68" fill="#00D170" id="id-62746"></polygon><path d=" M 40,77 L 35,77 C 29,88 31,102 35,117 C 33,101 33,86 40,77 Z" fill="#9B9DE2" id="id-62747"></path><path d=" M 27,70 L 31,71 C 25,79 22,90 21,101 C 19,91 20,80 27,70 Z" fill="#BFB7E4" id="id-62748"></path><path d=" M 40,72 C 52,74 64,68 76,57 L 75,57 C 70,60 66,64 61,65 C 54,69 47,71 39,69 L 40,72 Z" fill="#8C94DC" id="id-62749"></path><polyline points="81 55 80 58 72 53 75 50 81 55" fill="#EADAF6" id="id-62750"></polyline><polygon points="80 57 93 54 110 59 107 56 94 51 81 55" fill="#9198DD" id="id-62751"></polygon><polygon points="94 51 93 54 104 57 103 55" fill="#EADAF6" id="id-62752"></polygon><path d=" M 79,53 L 79,54 C 84,48 88,43 92,42 L 89,40 L 84,42 C 83,45 81,48 79,53 Z" fill="#8E96DF" id="id-62753"></path><path d=" M 90,39 L 84,42 L 82,38 C 85,36 86,35 86,35 C 85,34 85,33 85,33 C 87,30 88,28 88,28 L 91,32 L 89,37 L 90,39 Z" fill="#220D07" id="id-62754"></path><path d=" M 86,32 C 87,31 88,30 88,30 C 89,31 89,32 89,32 L 88,34 C 87,33 86,32 86,32 Z" fill="#00D170" id="id-62755"></path><path d=" M 83,38 L 86,36 C 87,38 88,39 88,39 L 85,41 C 84,39 83,38 83,38 Z" fill="#00D170" id="id-62756"></path><path d=" M 94,41 L 99,34 C 108,19 101,10 94,1 L 94,7 C 100,11 102,26 96,32 L 91,32 L 89,36 L 94,41 Z" fill="#E4D6F4" id="id-62757"></path><polygon points="93 29 89 34 94 40 98 33" fill="#220D07" id="id-62758"></polygon><polygon points="94 37 91 34 93 31 96 34" fill="#00D170" id="id-62759"></polygon><polygon points="96 40 102 44 105 39 99 35" fill="#220D07" id="id-62760"></polygon><polygon points="101 42 98 40 99 36 103 38" fill="#00D170" id="id-62761"></polygon><polygon points="98 28 101 31 99 35 96 31" fill="#220D07" id="id-62762"></polygon><polygon points="99 30 97 32 99 34 101 31" fill="#00D170" id="id-62763"></polygon><polygon points="93 11 88 20 93 29 98 22" fill="#272748" id="id-62764"></polygon><polygon points="89 21 93 27 96 22 93 15" fill="#00D070" id="id-62765"></polygon><polygon points="93 15 93 23 96 21" fill="#EADAF6" id="id-62766"></polygon><path d=" M 92,3 L 92,7 C 88,11 86,17 88,28 L 87,28 C 85,23 85,17 86,10 C 88,7 90,5 92,3 Z" fill="#8D96E0" id="id-62767"></path><path d=" M 92,0 C 94,0 95,0 95,0 C 95,5 95,7 95,7 L 93,8 C 92,3 92,0 92,0 Z" fill="#272648" id="id-62768"></path><path d=" M 96,42 C 98,44 100,45 100,45 L 108,55 C 110,53 111,52 111,52 C 105,46 103,42 103,42 L 97,40 C 96,41 96,42 96,42 Z" fill="#E9D8F4" id="id-62769"></path><path d=" M 114,55 C 113,56 112,56 112,56 C 112,58 112,59 112,59 C 123,69 134,74 147,72 L 147,69 C 137,72 126,67 114,55 Z" fill="url(#id-62720)" id="id-62770"></path><path d=" M 147,78 L 149,65 C 151,64 152,65 153,66 L 154,65 L 152,78 C 157,89 157,103 151,117 C 155,98 152,86 147,78 Z" fill="#AEADE8" id="id-62771"></path><path d=" M 155,71 L 156,60 C 157,59 158,58 160,61 C 167,54 171,45 173,36 C 173,48 168,58 160,65 L 160,71 C 167,80 167,90 165,101 C 165,87 162,78 155,71 Z" fill="#BFB9EB" id="id-62772"></path><path d=" M 146,77 C 149,78 150,79 150,79 C 151,72 152,69 152,69 L 147,68 L 146,77 Z" fill="#220D07" id="id-62773"></path><path d=" M 150,70 C 148,72 147,72 147,72 C 148,76 148,77 148,77 L 151,73 L 150,70 Z" fill="#00D170" id="id-62774"></path><path d=" M 155,70 C 157,71 158,72 158,72 C 160,66 161,63 161,63 L 156,62 L 155,70 Z" fill="#220D07" id="id-62775"></path><path d=" M 158,64 C 156,65 155,66 155,66 C 156,69 157,70 157,70 L 160,66 C 159,65 158,64 158,64 Z" fill="#00D170" id="id-62776"></path><path d=" M 173,43 C 174,46 175,48 175,48 C 179,45 181,43 181,43 C 184,34 186,29 186,29 C 184,27 183,26 182,23 C 180,24 179,24 179,24 C 177,27 177,29 177,29 C 178,32 179,33 179,33 C 178,36 177,38 177,38 L 178,41 L 174,36 C 174,39 173,41 173,43 Z" fill="#8D95DB" id="id-62777"></path><path d=" M 182,32 C 183,33 183,33 183,33 C 182,37 181,39 181,39 L 179,39 C 181,35 182,32 182,32 Z" fill="#00B900" id="id-62778"></path><path d=" M 177,29 C 178,27 178,26 178,26 C 183,27 185,28 185,28 L 184,31 C 179,31 176,30 177,29 Z" fill="#E6D6F5" id="id-62779"></path><path d=" M 2,30 C 2,31 3,32 3,32 C 7,30 9,29 9,29 L 9,26 C 4,28 2,30 2,30 Z" fill="#E6D6F5" id="id-62780"></path></g><defs></defs><g transform=" translate(561,311)" id="id-63834"><path d=" M 15,155 C 12,133 13,136 8,99 C 10,95 11,91 13,85 L 0,95 L 10,82 L 15,66 L 6,75 C 14,54 25,36 39,22 C 41,31 64,16 88,9 C 94,15 151,27 148,30 C 161,34 182,63 196,73 C 192,73 187,73 182,73 L 190,99 C 187,98 186,97 186,97 C 188,110 188,127 185,149 C 184,155 184,123 177,114 C 170,103 166,98 166,98 C 173,104 176,107 176,107 C 168,96 164,90 164,90 C 164,87 163,85 163,85 C 166,87 168,87 169,88 C 169,85 162,79 163,74 C 145,60 126,65 103,65 C 107,63 111,62 115,61 L 80,64 C 88,61 92,59 93,58 C 54,62 77,64 52,62 C 54,63 56,64 59,65 C 46,68 37,72 32,77 C 32,81 26,87 23,92 C 23,93 31,87 31,87 C 31,97 30,90 19,107 C 18,108 26,100 30,97 C 8,126 20,101 15,155 Z" fill="#4D2A31" id="id-63835"></path><path d=" M 95,13 C 102,12 112,3 118,0 C 113,6 109,11 108,13 L 144,5 L 122,18 L 164,20 C 156,25 150,28 148,30 C 156,32 173,49 182,61 C 157,64 128,63 116,64 C 133,50 158,34 154,33 C 130,38 106,45 81,55 L 100,39 L 68,49 C 85,25 94,13 95,13 Z" fill="#673541" id="id-63835"></path></g><defs></defs><path d=" M 1202,1685 C 1201,1683 1198,1681 1197,1679 C 1196,1678 1196,1676 1196,1675 C 1196,1674 1194,1672 1193,1671 C 1193,1670 1192,1669 1192,1668 C 1192,1667 1195,1666 1196,1665 C 1198,1663 1200,1661 1202,1658 C 1207,1649 1216,1643 1226,1641 C 1240,1638 1254,1644 1263,1655 C 1264,1657 1266,1660 1265,1663 C 1265,1664 1263,1665 1263,1666 C 1263,1667 1265,1669 1266,1670 C 1271,1673 1269,1673 1270,1678 C 1270,1682 1274,1681 1274,1685 L 1274,1685 L 1274,1686 C 1274,1686 1274,1686 1274,1686 C 1273,1688 1271,1688 1270,1689 C 1268,1691 1267,1692 1266,1694 C 1263,1698 1261,1700 1258,1704 C 1242,1719 1214,1716 1202,1696 C 1201,1695 1199,1691 1200,1689 C 1201,1688 1202,1688 1202,1685 L 1202,1685 Z M 1268,1685 C 1267,1682 1265,1682 1264,1679 C 1264,1678 1264,1677 1264,1676 C 1264,1675 1264,1674 1264,1674 C 1264,1673 1263,1672 1262,1672 C 1260,1670 1256,1669 1258,1665 C 1259,1662 1261,1662 1258,1658 C 1246,1643 1223,1641 1210,1656 C 1209,1658 1208,1659 1207,1661 C 1205,1663 1202,1665 1200,1667 C 1197,1669 1197,1669 1200,1671 C 1203,1675 1201,1676 1203,1679 C 1204,1681 1207,1682 1208,1685 L 1208,1685 L 1208,1685 C 1207,1690 1203,1688 1207,1694 C 1216,1706 1232,1711 1246,1705 C 1249,1704 1252,1702 1255,1699 C 1257,1697 1259,1694 1261,1691 C 1263,1689 1267,1687 1268,1685 L 1268,1685 Z M 1254,1685 C 1254,1682 1252,1682 1252,1680 C 1251,1677 1251,1673 1255,1674 C 1258,1675 1256,1678 1258,1680 C 1259,1682 1260,1682 1260,1685 L 1261,1686 L 1260,1686 C 1259,1688 1257,1689 1255,1690 C 1248,1694 1246,1699 1237,1700 C 1231,1701 1225,1700 1221,1697 C 1219,1696 1216,1694 1215,1692 C 1213,1689 1216,1688 1216,1685 C 1215,1683 1212,1682 1211,1680 C 1208,1677 1210,1673 1214,1674 L 1214,1674 L 1215,1675 C 1216,1678 1215,1679 1217,1681 C 1219,1682 1222,1683 1222,1686 C 1222,1689 1220,1690 1224,1692 C 1230,1696 1238,1695 1244,1691 C 1246,1690 1253,1687 1254,1685 L 1254,1685 Z M 1244,1674 C 1242,1675 1239,1674 1237,1673 C 1236,1672 1233,1670 1232,1669 C 1231,1669 1231,1668 1231,1667 C 1231,1666 1233,1665 1234,1664 C 1235,1662 1237,1661 1238,1659 C 1242,1652 1249,1658 1247,1663 C 1246,1665 1243,1666 1243,1668 C 1243,1670 1246,1671 1244,1674 L 1244,1674 L 1244,1674 L 1244,1674 Z M 1222,1656 C 1224,1655 1227,1656 1228,1659 C 1229,1660 1229,1661 1229,1663 C 1228,1665 1223,1666 1225,1669 C 1225,1670 1226,1670 1226,1671 C 1227,1674 1226,1675 1223,1675 C 1222,1675 1219,1673 1218,1672 C 1216,1671 1212,1669 1214,1666 C 1215,1664 1217,1664 1218,1662 C 1219,1660 1220,1658 1222,1656 L 1222,1656 Z" fill="#343D53" opacity="0.297" id="id-77051"></path></svg>