<?xml version="1.0" encoding="UTF-8"?><svg width="1320px" height="1760px" viewBox="0 0 1320 1760" version="1.1" xmlns="http://www.w3.org/2000/svg" xmlns:xlink="http://www.w3.org/1999/xlink"><defs></defs><g stroke="none" stroke-width="1" fill="none" id="id-30286" fill-rule="evenodd"><g id="id-30287"><g id="id-30288"><rect fill="#222222" width="1320" height="1760" x="0" y="0" id="id-30289"></rect><g transform=" translate(143,346)" fill="#000000" id="id-30290"><path d=" M 211,114 C 377,-11 604,-33 770,47 C 796,70 821,56 828,29 C 828,29 832,91 841,215 L 841,215 L 841,215 C 841,209 842,138 842,0 L 842,0 L 842,0 C 843,3 863,53 902,150 C 920,168 933,187 945,205 L 947,207 C 948,209 950,211 951,214 C 966,252 972,295 978,337 C 978,337 981,317 986,278 C 1060,439 1065,594 1000,746 L 1000,746 L 1000,746 C 1000,745 1000,734 1001,710 C 986,759 960,805 925,850 C 925,850 934,845 951,835 C 951,835 951,835 951,835 L 951,835 C 950,836 940,849 920,875 C 920,875 912,915 896,995 C 896,995 895,926 893,789 L 893,789 L 893,789 C 892,789 890,791 885,793 L 885,793 L 885,793 C 885,795 884,835 884,911 C 731,1052 520,1074 365,1011 C 365,1011 353,1027 330,1058 L 330,1058 L 330,1058 C 330,1057 330,1033 331,986 C 324,979 318,974 313,968 C 313,968 309,1028 301,1149 C 301,1149 298,1092 294,978 C 250,951 211,922 179,888 C 176,892 174,897 173,903 C 173,903 171,955 167,1060 C 162,981 160,947 140,894 C 128,871 115,844 103,817 L 100,811 C 94,798 89,786 83,774 C 101,807 126,843 156,882 L 156,882 L 155,863 C -2,681 -41,428 116,210 C 135,190 151,171 167,152 L 170,149 L 170,149 L 173,145 C 176,142 179,139 182,135 C 182,135 182,135 182,135 L 182,135 C 182,136 182,143 182,155 C 182,155 184,154 187,152 C 187,152 186,114 185,40 C 185,40 193,65 211,114 Z M 885,607 L 880,721 L 890,713 C 890,713 888,678 885,607 L 885,607 Z" id="id-30291"></path><path d=" M 740,1028 L 718,1024 C 718,1024 788,993 788,993 L 743,1039 C 745,1031 743,1028 740,1028 Z" id="id-30292"></path><path d=" M 719,1044 C 711,1052 707,1056 707,1056 L 730,1065 C 722,1051 719,1044 719,1044 Z" id="id-30293"></path><path d=" M 683,1098 C 696,1087 702,1082 702,1082 L 696,1109 C 687,1101 683,1098 683,1098 Z" id="id-30294"></path><path d=" M 683,1059 C 663,1047 653,1042 653,1042 L 700,1028 C 689,1049 683,1059 683,1059 Z" id="id-30295"></path><path d=" M 46,302 C 15,355 0,382 0,382 C 5,389 7,392 7,392 C 1,433 1,467 6,496 C 7,422 20,357 46,302 Z" id="id-30296"></path></g></g><rect fill="#007AE5" width="37" height="134" x="0" y="0" id="id-30289"></rect><rect fill="#007AE5" width="37" height="134" x="0" y="813" id="id-30289"></rect><rect fill="#007AE5" width="37" height="134" x="0" y="1626" id="id-30289"></rect></g></g><defs><linearGradient x1="100%" y1="46%" x2="12%" y2="47%" id="id-74421"><stop stop-color="#C5663D" offset="0%"></stop><stop stop-color="#C1633A" offset="21%"></stop><stop stop-color="#EDA377" offset="46%"></stop><stop stop-color="#EB8C5C" offset="80%"></stop><stop stop-color="#DC7E50" offset="100%"></stop></linearGradient><linearGradient x1="53%" y1="81%" x2="50%" y2="21%" id="id-74422"><stop stop-color="#CD6C5B" offset="0%"></stop><stop stop-color="#DE7862" offset="24%"></stop><stop stop-color="#DF8352" offset="100%"></stop></linearGradient><linearGradient x1="52%" y1="-4%" x2="46%" y2="70%" id="id-74423"><stop stop-color="#BE6352" offset="0%"></stop><stop stop-color="#B25041" offset="100%"></stop></linearGradient><linearGradient x1="46%" y1="43%" x2="15%" y2="43%" id="id-74424"><stop stop-color="#DF8655" offset="0%"></stop><stop stop-color="#B95831" offset="100%"></stop></linearGradient><linearGradient x1="54%" y1="37%" x2="12%" y2="72%" id="id-74425"><stop stop-color="#3C050A" offset="0%"></stop><stop stop-color="#9A4336" offset="100%"></stop></linearGradient><linearGradient x1="40%" y1="14%" x2="61%" y2="85%" id="id-74426"><stop stop-color="#6E1B17" offset="0%"></stop><stop stop-color="#852720" offset="100%"></stop></linearGradient><linearGradient x1="27%" y1="47%" x2="91%" y2="49%" id="id-74427"><stop stop-color="#E19D89" offset="0%"></stop><stop stop-color="#FFBBA2" offset="100%"></stop></linearGradient><linearGradient x1="47%" y1="60%" x2="49%" y2="79%" id="id-74428"><stop stop-color="#E78666" offset="0%"></stop><stop stop-color="#E07C62" offset="60%"></stop><stop stop-color="#ED9F7D" offset="100%"></stop></linearGradient><linearGradient x1="29%" y1="56%" x2="69%" y2="53%" id="id-74429"><stop stop-color="#D47D53" offset="0%"></stop><stop stop-color="#C86443" offset="8%"></stop><stop stop-color="#D9774F" offset="18%"></stop><stop stop-color="#D26B50" offset="38%"></stop><stop stop-color="#D1694C" offset="65%"></stop><stop stop-color="#CD6944" offset="81%"></stop><stop stop-color="#BE5B3F" offset="100%"></stop></linearGradient><linearGradient x1="47%" y1="45%" x2="54%" y2="46%" id="id-74430"><stop stop-color="#D26A4C" offset="0%"></stop><stop stop-color="#C96947" offset="62%"></stop><stop stop-color="#BC5B3A" offset="77%"></stop><stop stop-color="#D18459" offset="100%"></stop></linearGradient><linearGradient x1="51%" y1="7%" x2="50%" y2="100%" id="id-74431"><stop stop-color="#D26C48" offset="0%"></stop><stop stop-color="#E28F6D" offset="75%"></stop><stop stop-color="#DA876B" offset="100%"></stop></linearGradient><linearGradient x1="51%" y1="11%" x2="49%" y2="93%" id="id-74432"><stop stop-color="#DC7E50" offset="0%"></stop><stop stop-color="#DA7B4D" offset="73%"></stop><stop stop-color="#E08955" offset="100%"></stop></linearGradient><linearGradient x1="51%" y1="-5%" x2="48%" y2="96%" id="id-74433"><stop stop-color="#D8794C" offset="0%"></stop><stop stop-color="#C6683E" offset="100%"></stop></linearGradient><linearGradient x1="50%" y1="19%" x2="50%" y2="69%" id="id-74434"><stop stop-color="#A84C29" offset="0%"></stop><stop stop-color="#742F19" offset="45%"></stop><stop stop-color="#A54622" offset="100%"></stop></linearGradient><linearGradient x1="46%" y1="74%" x2="39%" y2="35%" id="id-74435"><stop stop-color="#B04F3A" offset="0%"></stop><stop stop-color="#C6644A" offset="51%"></stop><stop stop-color="#9F5738" offset="100%" stop-opacity="0"></stop></linearGradient><linearGradient x1="46%" y1="16%" x2="49%" y2="82%" id="id-74436"><stop stop-color="#9B473D" offset="0%" stop-opacity="0.186"></stop><stop stop-color="#5F2520" offset="100%"></stop></linearGradient><linearGradient x1="41%" y1="19%" x2="50%" y2="100%" id="id-74437"><stop stop-color="#BE614B" offset="0%"></stop><stop stop-color="#9E4237" offset="100%"></stop></linearGradient><linearGradient x1="50%" y1="31%" x2="45%" y2="50%" id="id-74438"><stop stop-color="#D06C41" offset="0%"></stop><stop stop-color="#EC8E5F" offset="100%"></stop></linearGradient><linearGradient x1="51%" y1="22%" x2="50%" y2="100%" id="id-74439"><stop stop-color="#B0483C" offset="0%"></stop><stop stop-color="#BD6558" offset="100%"></stop></linearGradient><linearGradient x1="49%" y1="0%" x2="50%" y2="100%" id="id-74440"><stop stop-color="#D47449" offset="0%"></stop><stop stop-color="#E27C59" offset="100%"></stop></linearGradient><linearGradient x1="44%" y1="15%" x2="50%" y2="100%" id="id-74441"><stop stop-color="#B75738" offset="0%"></stop><stop stop-color="#A6503C" offset="100%"></stop></linearGradient><linearGradient x1="52%" y1="21%" x2="49%" y2="83%" id="id-74442"><stop stop-color="#DE7B50" offset="0%"></stop><stop stop-color="#E7845D" offset="48%"></stop><stop stop-color="#E28D63" offset="100%"></stop></linearGradient><linearGradient x1="85%" y1="60%" x2="15%" y2="60%" id="id-74443"><stop stop-color="#D27044" offset="0%"></stop><stop stop-color="#C06137" offset="100%"></stop></linearGradient><linearGradient x1="50%" y1="-3%" x2="59%" y2="91%" id="id-74444"><stop stop-color="#CE754C" offset="0%"></stop><stop stop-color="#CA6B41" offset="53%"></stop><stop stop-color="#BF6138" offset="66%"></stop><stop stop-color="#B8522C" offset="100%"></stop></linearGradient><linearGradient x1="55%" y1="48%" x2="46%" y2="33%" id="id-74445"><stop stop-color="#CE6E44" offset="0%"></stop><stop stop-color="#DF8152" offset="86%"></stop><stop stop-color="#D37547" offset="100%"></stop></linearGradient><linearGradient x1="50%" y1="19%" x2="50%" y2="78%" id="id-74446"><stop stop-color="#913919" offset="0%"></stop><stop stop-color="#AB4722" offset="50%"></stop><stop stop-color="#842C26" offset="100%"></stop></linearGradient><linearGradient x1="50%" y1="10%" x2="50%" y2="43%" id="id-74447"><stop stop-color="#C26338" offset="0%"></stop><stop stop-color="#C4643B" offset="15%"></stop><stop stop-color="#993E1B" offset="68%"></stop><stop stop-color="#B7512B" offset="100%"></stop></linearGradient><linearGradient x1="89%" y1="50%" x2="7%" y2="52%" id="id-74448"><stop stop-color="#8C371B" offset="0%"></stop><stop stop-color="#B85C4D" offset="53%" stop-opacity="0.199"></stop><stop stop-color="#A3451F" offset="75%"></stop><stop stop-color="#8D381A" offset="100%"></stop></linearGradient><linearGradient x1="44%" y1="70%" x2="86%" y2="30%" id="id-74449"><stop stop-color="#E39165" offset="0%"></stop><stop stop-color="#F0A57A" offset="100%"></stop></linearGradient><linearGradient x1="33%" y1="92%" x2="62%" y2="23%" id="id-74450"><stop stop-color="#C15B34" offset="0%"></stop><stop stop-color="#D27347" offset="40%"></stop><stop stop-color="#EFA478" offset="100%"></stop></linearGradient><linearGradient x1="35%" y1="94%" x2="47%" y2="12%" id="id-74451"><stop stop-color="#DC8458" offset="0%"></stop><stop stop-color="#D77E53" offset="40%"></stop><stop stop-color="#ECA478" offset="100%"></stop></linearGradient><linearGradient x1="50%" y1="54%" x2="27%" y2="9%" id="id-74452"><stop stop-color="#F7AB80" offset="0%"></stop><stop stop-color="#DDAB90" offset="100%" stop-opacity="0.078"></stop></linearGradient><linearGradient x1="50%" y1="0%" x2="93%" y2="69%" id="id-74453"><stop stop-color="#E99A6F" offset="0%"></stop><stop stop-color="#DD8557" offset="70%"></stop><stop stop-color="#C56138" offset="100%"></stop></linearGradient><linearGradient x1="36%" y1="84%" x2="25%" y2="44%" id="id-74454"><stop stop-color="#C98762" offset="0%" stop-opacity="0.509"></stop><stop stop-color="#90492C" offset="35%" stop-opacity="0.675"></stop><stop stop-color="#762E17" offset="100%" stop-opacity="0"></stop></linearGradient><linearGradient x1="63%" y1="95%" x2="43%" y2="20%" id="id-74455"><stop stop-color="#D27146" offset="0%"></stop><stop stop-color="#E29562" offset="46%"></stop><stop stop-color="#D17045" offset="100%"></stop></linearGradient><linearGradient x1="40%" y1="0%" x2="50%" y2="86%" id="id-74456"><stop stop-color="#D87C4D" offset="0%"></stop><stop stop-color="#DD8253" offset="100%"></stop></linearGradient><linearGradient x1="50%" y1="0%" x2="50%" y2="92%" id="id-74457"><stop stop-color="#E58656" offset="0%"></stop><stop stop-color="#E39361" offset="100%"></stop></linearGradient><linearGradient x1="33%" y1="79%" x2="21%" y2="44%" id="id-74458"><stop stop-color="#BE6457" offset="0%"></stop><stop stop-color="#983F32" offset="28%" stop-opacity="0.928"></stop><stop stop-color="#762E17" offset="100%" stop-opacity="0"></stop></linearGradient><linearGradient x1="4%" y1="47%" x2="92%" y2="45%" id="id-74459"><stop stop-color="#752B0F" offset="0%"></stop><stop stop-color="#83391D" offset="17%" stop-opacity="0.753"></stop><stop stop-color="#9E4B3D" offset="48%" stop-opacity="0.386"></stop><stop stop-color="#94401F" offset="78%" stop-opacity="0.762"></stop><stop stop-color="#88391A" offset="100%"></stop></linearGradient><linearGradient x1="60%" y1="45%" x2="67%" y2="53%" id="id-74460"><stop stop-color="#D57A51" offset="0%"></stop><stop stop-color="#FFB49C" offset="100%"></stop></linearGradient><linearGradient x1="48%" y1="15%" x2="54%" y2="81%" id="id-74461"><stop stop-color="#D99776" offset="0%" stop-opacity="0.400"></stop><stop stop-color="#E59B75" offset="100%"></stop></linearGradient><linearGradient x1="47%" y1="44%" x2="50%" y2="61%" id="id-74462"><stop stop-color="#943B2F" offset="0%" stop-opacity="0.175"></stop><stop stop-color="#61301B" offset="100%"></stop></linearGradient><linearGradient x1="26%" y1="-7%" x2="50%" y2="96%" id="id-74463"><stop stop-color="#37373F" offset="0%"></stop><stop stop-color="#19191D" offset="100%"></stop></linearGradient><linearGradient x1="50%" y1="12%" x2="59%" y2="82%" id="id-74464"><stop stop-color="#252525" offset="0%"></stop><stop stop-color="#101010" offset="100%"></stop></linearGradient><linearGradient x1="25%" y1="-16%" x2="50%" y2="98%" id="id-74465"><stop stop-color="#37373F" offset="0%"></stop><stop stop-color="#19191D" offset="100%"></stop></linearGradient><linearGradient x1="75%" y1="39%" x2="50%" y2="93%" id="id-74466"><stop stop-color="#252525" offset="0%"></stop><stop stop-color="#000000" offset="100%"></stop></linearGradient></defs><g transform=" translate(334,549)" id="id-74467"><polygon points="561 754 565 871 565 881 537 893 533 897 535 901 532 909 543 910 597 864" fill="#560304" id="id-74468"></polygon><polygon points="537 282 539 246 535 195 529 158 522 137 484 118 440 111 212 111 188 113 157 123 121 139 111 186 108 221 109 290" fill="url(#id-74421)" id="id-74468"></polygon><polygon points="467 393 474 506 503 589 537 672 556 728 561 754 546 794 552 851 551 861 552 874 556 885 567 882 568 866 570 860 570 843 571 834 576 843 576 859 579 864 573 874 571 884 544 903 541 916 582 901 597 864 607 852 600 821 597 716 589 695 582 655 569 523 544 425" fill="url(#id-74422)" id="id-74468"></polygon><polygon points="546 794 552 851 551 861 552 874 556 885 567 882 568 866 570 860 570 843 571 834 576 843 576 859 579 864 573 874 571 884 544 903 541 916 582 901 597 864 583 871 588 855 573 815 561 823" fill="url(#id-74423)" id="id-74468"></polygon><polygon points="552 851 551 861 552 874 556 887 567 884 568 866 570 860 558 860" fill="#8A2C25" id="id-74468"></polygon><polygon points="544 906 541 916 582 901 571 889" fill="#92352A" id="id-74468"></polygon><polygon points="561 754 548 789 566 819 586 806" fill="#BD8171" id="id-74468"></polygon><polygon points="486 648 477 599 453 529 440 504 437 490 439 460 449 402 456 340 188 343 198 411 202 493 162 596 153 638 266 693 319 721 386 693" fill="url(#id-74424)" id="id-74468"></polygon><polygon points="486 648 477 599 453 529 440 504 437 490 439 460 449 402 456 340 296 353 376 634" fill="#D06F45" id="id-74468"></polygon><g transform=" translate(188,0)" id="id-74477"><polygon points="274 114 253 111 232 100 201 76 188 58 184 1 93 1 88 64 25 111 1 113 103 123 121 135 134 138 149 121 161 117 187 119 225 114" fill="#D37245" id="id-74468"></polygon><polygon points="201 76 188 58 185 12 175 57 155 111 185 73" fill="#EB9E6D" id="id-74468"></polygon><polygon points="149 1 93 1 88 64 108 126 121 135 133 138" fill="#C1663D" id="id-74468"></polygon><polygon points="116 102 120 113 118 115 136 135 150 119 164 71 125 108" fill="#B65C38" id="id-74481"></polygon><polygon points="121 127 133 138 145 124" fill="#AC3F1F" id="id-74482"></polygon><polygon points="136 98 164 71 175 57 186 17 134 51" fill="#DA854F" id="id-74483"></polygon><polygon points="97 96 116 80 164 60 178 48 186 17 184 1 93 1 88 64 45 96" fill="#A14F27" opacity="0.654" id="id-74468"></polygon><polygon points="186 17 184 1 93 1 88 64 45 96 66 96" fill="url(#id-74425)" opacity="0.467" id="id-74468"></polygon><polygon points="123 58 176 23 186 17 184 1 93 1 91 22 108 55" fill="#381404" opacity="0.434" id="id-74468"></polygon></g><polygon points="41 844 33 856 36 895 64 915 84 911 83 903 71 898 72 892 63 884 52 849" fill="url(#id-74426)" id="id-74468"></polygon><polygon points="315 152 285 173 320 188 357 166" fill="#FAAF86" id="id-74488"></polygon><polygon points="327 150 370 130 342 127" fill="#D5774A" id="id-74489"></polygon><polygon points="301 142 303 148 243 131 240 119 276 119" fill="#D5774A" id="id-74490"></polygon><polygon points="159 149 206 123 269 123 303 144 297 118 188 113 157 123 121 139" fill="url(#id-74427)" id="id-74468"></polygon><polygon points="157 123 121 139 153 167 196 134" fill="#FFBBA2" id="id-74468"></polygon><polygon points="89 584 77 541 62 551 45 658 34 712 25 741 25 762 10 817 0 845 14 870 25 901 58 919 72 919 69 913 61 905 50 899 37 874 37 852 43 845 52 855 50 887 56 901 64 905 66 901 66 882 72 836 72 800 69 781 64 773 66 735 85 684 121 599 162 510" fill="url(#id-74428)" id="id-74468"></polygon><polygon points="89 584 77 541 62 551 45 658 48 715 121 599 162 510" fill="#D37347" id="id-74468"></polygon><polygon points="55 843 45 827 37 848 17 852 8 836 5 851 0 845 14 870 25 901 58 919 72 919 69 913 61 905 50 899 37 874 37 852 43 845 52 855 50 887 56 901 64 905 66 901 66 882 72 836" fill="#D16753" id="id-74468"></polygon><polygon points="53 882 52 892 56 901 64 905 66 901 66 882 67 876" fill="#B24B40" id="id-74468"></polygon><polygon points="25 901 58 919 72 919 62 909 37 895" fill="#B44D41" id="id-74468"></polygon><polygon points="160 467 145 488 108 578 45 777 48 797 64 773 66 735 85 684 121 599 162 510" fill="#B04C25" id="id-74468"></polygon><polygon points="169 1211 277 1211 282 1183 281 1150 284 1127 286 1114 285 1063 293 972 306 866 311 792 309 768 323 771 337 768 333 817 333 855 339 924 346 1008 348 1113 351 1130 353 1176 361 1211 461 1211 458 1191 456 1170 460 1133 461 1082 505 905 516 839 518 826 512 762 503 706 486 648 482 629 386 690 318 718 266 690 184 629 153 637 132 731 119 781 118 813 123 862 131 916 166 1094 176 1179" fill="url(#id-74429)" id="id-74468"></polygon><polygon points="463 664 416 771 400 819 392 1125 359 1178 398 1204 441 1153 461 1082 505 905 516 839 518 826 515 789 490 714" fill="url(#id-74430)" id="id-74468"></polygon><polygon points="422 1160 395 1199 365 1171 401 1149 384 1120 391 983 411 786 416 771 448 697 454 1013 445 1116 407 1149" fill="url(#id-74431)" id="id-74501"></polygon><polygon points="121 139 111 186 108 221 109 290 96 438 89 464 69 510 89 585 162 510 167 425 162 241" fill="url(#id-74432)" id="id-74468"></polygon><polygon points="101 466 103 488 106 510 160 447 179 359 164 232 187 184 186 179 132 181 161 234 161 321 149 376 151 384 123 461 114 466" fill="url(#id-74433)" id="id-74503"></polygon><polygon points="96 438 89 464 69 510 51 621 101 520 96 476" fill="#FFAF88" id="id-74468"></polygon><polygon points="96 451 128 365 134 316 121 139 111 186 108 221 109 290 96 438" fill="#C5673B" id="id-74468"></polygon><polygon points="184 241 177 248 162 225 138 289 161 321 170 375 161 420 151 411 162 510 167 425 188 343" fill="url(#id-74434)" id="id-74468"></polygon><polygon points="284 1127 286 1114 285 1063 293 972 306 866 311 792 309 768 323 771 337 768 333 817 333 855 339 924 346 1008 375 889 416 771 463 664 490 714 515 790 512 762 503 706 486 648 477 599 471 583 420 650 316 720 201 654 244 742 264 824 275 994" fill="url(#id-74435)" id="id-74468"></polygon><polygon points="298 930 306 866 311 792 309 768 323 771 337 768 333 817 333 855 336 894 347 826 360 784 378 733 388 687 321 739 254 687 267 736 291 821" fill="url(#id-74436)" id="id-74468"></polygon><polygon points="348 1093 348 1113 351 1130 353 1176 361 1211 461 1211 439 1155 422 1136 403 1148 429 1168 400 1202 370 1170 382 1125" fill="url(#id-74437)" id="id-74468"></polygon><polygon points="10 855 8 836 5 851 0 845 14 870" fill="#AF4A3E" id="id-74468"></polygon><polygon points="520 500 516 520 544 629 474 500 490 399" fill="url(#id-74438)" id="id-74511"></polygon><polygon points="461 1211 458 1191 456 1170 460 1133 461 1082 439 1155 450 1211" fill="url(#id-74439)" id="id-74468"></polygon><polygon points="220 1149 259 1115 240 1063 232 973 266 819 240 713 201 661 158 650 201 784 183 925 170 1083" fill="url(#id-74440)" id="id-74513"></polygon><polygon points="169 1211 277 1211 282 1183 281 1150 284 1127 286 1114 286 1098 226 1211 207 1211 196 1121 173 1078 150 1014 166 1094 176 1179" fill="url(#id-74441)" id="id-74468"></polygon><polygon points="173 1078 183 924 150 1014" fill="#C56242" id="id-74468"></polygon><polygon points="169 1211 239 1211 230 1196 204 1175 173 1150 176 1179" fill="#8E332E" opacity="0.574" id="id-74468"></polygon><polygon points="221 1130 240 1097 224 1063 224 983 240 804 217 698 190 668 212 771 212 910 190 998 181 1094" fill="url(#id-74442)" id="id-74513"></polygon><polygon points="217 795 221 692 200 667 169 658 200 737" fill="#F09C6B" id="id-74518"></polygon><polygon points="511 476 492 419 481 447 484 356 521 274 533 417" fill="url(#id-74443)" id="id-74519"></polygon><polygon points="569 523 544 425 542 346 537 282 539 246 535 195 529 158 522 137 494 161 419 158 471 211 516 290 525 411 511 477 518 507 535 462 562 543" fill="url(#id-74444)" id="id-74468"></polygon><polygon points="486 389 533 243 501 167 464 207 451 247 463 265" fill="url(#id-74445)" id="id-74521"></polygon><polygon points="473 490 474 506 503 589 537 672 556 728 561 754 567 712 543 623" fill="#AE522F" id="id-74468"></polygon><polygon points="460 328 466 378 474 506 490 425 486 392 469 274 479 230 461 260 454 251" fill="url(#id-74446)" id="id-74468"></polygon><polygon points="440 504 437 490 439 460 449 402 456 340 458 328 325 282 188 343 198 411 202 493 162 596 157 621 161 633 169 599 173 570 204 506 202 458 217 402 286 365 321 352 353 360 422 402 431 493 437 520" fill="url(#id-74447)" id="id-74468"></polygon><polygon points="451 385 456 340 458 328 364 340 330 308 268 343 188 343 194 379 262 368 312 343 335 340 381 368" fill="url(#id-74448)" id="id-74468"></polygon><polygon points="286 328 306 310 330 274 453 252 464 205 421 156 317 204 219 165 210 154 188 180" fill="url(#id-74449)" id="id-74526"></polygon><path d=" M 422,195 L 405,190 C 377,190 357,198 343,214 C 329,230 322,250 323,276 C 324,301 331,320 345,333 C 365,351 384,356 405,356 C 425,356 444,347 450,342 C 454,339 457,335 460,328 C 463,323 466,317 467,308 C 469,294 466,276 457,254 L 422,195 Z" fill="url(#id-74450)" id="id-74527"></path><path d=" M 422,195 L 417,175 C 386,188 366,196 358,201 C 355,203 351,206 348,208 C 348,209 381,253 448,342 C 454,338 459,332 463,324 C 469,310 469,301 469,293 C 469,287 465,275 459,257 L 422,195 Z" fill="url(#id-74451)" id="id-74527"></path><path d=" M 375,226 C 338,253 343,276 343,284 C 343,291 353,319 371,335 C 379,342 422,349 447,331 C 468,316 472,294 458,265 C 427,221 400,208 375,226 Z" fill="url(#id-74452)" opacity="0.282" id="id-74527"></path><path d=" M 272,205 C 260,199 243,200 221,209 C 187,227 169,258 168,303 C 167,319 184,342 190,346 C 197,351 212,356 239,353 C 257,351 272,344 284,333 C 303,312 312,288 309,260 C 305,217 291,214 272,205 Z" fill="url(#id-74453)" id="id-74530"></path><path d=" M 340,285 C 333,252 328,240 326,248 C 324,254 323,263 323,276 C 324,301 331,320 345,333 C 365,351 382,356 404,356 C 425,356 444,347 450,342 C 456,337 465,325 468,308 C 472,290 465,276 463,268 C 461,263 460,259 458,255 L 442,290 L 399,304 L 366,300 L 340,285 Z" fill="url(#id-74454)" id="id-74527"></path><path d=" M 153,637 L 149,654 L 132,731 L 130,739 C 133,730 135,723 137,718 C 140,709 147,691 149,680 C 151,671 155,655 161,633 L 172,570 L 162,596 L 153,637 Z" fill="#7D362E" id="id-74468"></path><path d=" M 259,203 C 254,199 240,185 217,163 L 210,153 L 186,180 C 192,211 192,231 186,239 C 175,256 168,277 168,303 C 168,324 190,352 239,344 C 252,342 274,217 259,203 Z" fill="#E39165" id="id-74530"></path><polygon points="175 565 203 550 234 558 241 520 203 455 203 507" fill="#B04924" id="id-74534"></polygon><polygon points="241 442 241 518 229 556 233 629 266 657 316 707 381 659 395 629 364 504 350 504 301 380" fill="url(#id-74455)" id="id-74535"></polygon><polygon points="432 626 427 589 407 518 414 505 450 568 470 618" fill="url(#id-74456)" id="id-74536"></polygon><polygon points="302 376 254 442 254 546 302 590 364 568 364 504 350 504 376 454 345 400" fill="url(#id-74457)" id="id-74535"></polygon><polygon points="317 480 342 436 319 413 300 447" fill="#DA7B4E" id="id-74538"></polygon><polygon points="304 541 318 507 329 541 314 549" fill="#D17045" id="id-74539"></polygon><polygon points="306 543 316 578 329 541" fill="#E99A65" id="id-74540"></polygon><path d=" M 178,333 C 179,334 180,336 182,338 C 184,342 186,343 189,346 C 190,347 197,351 206,353 C 215,354 226,355 239,353 C 257,351 272,344 284,333 C 293,322 299,313 302,305 C 304,301 307,293 309,277 C 310,274 310,268 309,260 L 228,277 L 207,295 L 178,333 Z" fill="url(#id-74458)" id="id-74530"></path><polygon points="306 543 308 550 324 556 329 541" fill="#E9A376" id="id-74540"></polygon><polygon points="308 543 318 525 323 542 314 548" fill="#8F4427" id="id-74543"></polygon><polygon points="152 641 162 596 176 561 185 617 214 602 246 628 323 690 404 628 423 605 454 605 470 577 477 599 482 629 388 689 337 768 323 771 309 768 259 688 175 639 142 688" fill="url(#id-74459)" opacity="0.442" id="id-74544"></polygon><polygon points="490 154 522 137 484 118 412 123" fill="url(#id-74460)" id="id-74468"></polygon><polygon points="573 785 588 829 602 858 607 852 600 821 597 716 576 763" fill="#E19271" id="id-74468"></polygon><polygon points="574 722 589 695 582 655 533 542" fill="url(#id-74461)" id="id-74468"></polygon><polygon points="172 640 241 690 309 768 323 771 338 768 395 706 469 661 404 650 313 706 217 629" fill="url(#id-74462)" opacity="0.571" id="id-74548"></polygon><g transform=" translate(188,270)" id="id-74549"><polygon points="207 13 207 10 217 2 220 2 239 21 258 39 260 42 250 51 246 52 226 33" fill="url(#id-74463)" id="id-74550"></polygon><polygon points="208 40 218 50 222 50 240 33 257 13 257 9 247 0 244 1 230 19 209 36" fill="url(#id-74464)" id="id-74551"></polygon><polygon points="1 13 1 10 10 2 15 2 32 21 50 39 52 42 42 52 38 52 19 33" fill="url(#id-74465)" id="id-74550"></polygon><polygon points="0 43 10 53 14 53 33 35 50 15 50 11 40 3 36 4 19 23 1 39" fill="url(#id-74466)" id="id-74551"></polygon></g></g><defs><linearGradient x1="68%" y1="4%" x2="68%" y2="39%" id="id-75205"><stop stop-color="#CF915B" offset="0%"></stop><stop stop-color="#A2582E" offset="100%"></stop></linearGradient><linearGradient x1="63%" y1="29%" x2="43%" y2="65%" id="id-75206"><stop stop-color="#EF9D68" offset="0%"></stop><stop stop-color="#CA8252" offset="100%"></stop></linearGradient><linearGradient x1="60%" y1="73%" x2="11%" y2="32%" id="id-75207"><stop stop-color="#F0A97B" offset="0%"></stop><stop stop-color="#E7976B" offset="100%"></stop></linearGradient><linearGradient x1="79%" y1="15%" x2="31%" y2="87%" id="id-75208"><stop stop-color="#D98757" offset="0%"></stop><stop stop-color="#E99F6F" offset="100%"></stop></linearGradient><radialGradient cx="50%" cy="46%" r="72%" id="id-75209" fx="50%" fy="46%" gradientTransform=" translate(0.500,0.465) scale(0.889,1) rotate(90) scale(1,1) translate(-0.500,-0.465)"><stop stop-color="#FBAF7C" offset="0%"></stop><stop stop-color="#8E4218" offset="100%"></stop></radialGradient><linearGradient x1="32%" y1="4%" x2="54%" y2="75%" id="id-75210"><stop stop-color="#B5673B" offset="0%"></stop><stop stop-color="#D69065" offset="38%"></stop><stop stop-color="#CD7F54" offset="100%"></stop></linearGradient><linearGradient x1="11%" y1="50%" x2="57%" y2="50%" id="id-75211"><stop stop-color="#D88A61" offset="0%"></stop><stop stop-color="#F4A678" offset="100%"></stop></linearGradient><linearGradient x1="50%" y1="0%" x2="50%" y2="100%" id="id-75212"><stop stop-color="#DF8A54" offset="0%"></stop><stop stop-color="#BD693B" offset="100%"></stop></linearGradient><linearGradient x1="50%" y1="0%" x2="50%" y2="65%" id="id-75213"><stop stop-color="#E8A174" offset="0%"></stop><stop stop-color="#F9BB92" offset="100%"></stop></linearGradient><linearGradient x1="93%" y1="38%" x2="20%" y2="70%" id="id-75214"><stop stop-color="#EBA776" offset="0%"></stop><stop stop-color="#F5BF98" offset="60%"></stop><stop stop-color="#CA8252" offset="100%"></stop></linearGradient><linearGradient x1="17%" y1="66%" x2="58%" y2="41%" id="id-75215"><stop stop-color="#F3BA91" offset="0%"></stop><stop stop-color="#FCDFC9" offset="100%"></stop></linearGradient><linearGradient x1="25%" y1="46%" x2="50%" y2="58%" id="id-75216"><stop stop-color="#B55E35" offset="0%"></stop><stop stop-color="#C46A3C" offset="100%"></stop></linearGradient><linearGradient x1="75%" y1="15%" x2="41%" y2="68%" id="id-75217"><stop stop-color="#F0AA7E" offset="0%"></stop><stop stop-color="#F5BB97" offset="100%"></stop></linearGradient><linearGradient x1="43%" y1="47%" x2="85%" y2="53%" id="id-75218"><stop stop-color="#903F1B" offset="0%"></stop><stop stop-color="#B45C2E" offset="100%"></stop></linearGradient><linearGradient x1="65%" y1="43%" x2="13%" y2="55%" id="id-75219"><stop stop-color="#7B3014" offset="0%"></stop><stop stop-color="#813113" offset="100%"></stop></linearGradient><linearGradient x1="85%" y1="61%" x2="16%" y2="50%" id="id-75220"><stop stop-color="#E3956C" offset="0%"></stop><stop stop-color="#D0825C" offset="100%"></stop></linearGradient><linearGradient x1="50%" y1="34%" x2="72%" y2="84%" id="id-75221"><stop stop-color="#C06E40" offset="0%"></stop><stop stop-color="#D7795C" offset="42%"></stop><stop stop-color="#D07E52" offset="59%"></stop><stop stop-color="#DB885D" offset="100%"></stop></linearGradient><linearGradient x1="50%" y1="50%" x2="50%" y2="78%" id="id-75222"><stop stop-color="#F3B28C" offset="0%"></stop><stop stop-color="#EC8C70" offset="100%"></stop></linearGradient><linearGradient x1="36%" y1="33%" x2="50%" y2="71%" id="id-75223"><stop stop-color="#D26945" offset="0%"></stop><stop stop-color="#A63821" offset="100%"></stop></linearGradient><linearGradient x1="0%" y1="50%" x2="100%" y2="50%" id="id-75224"><stop stop-color="#C46F40" offset="0%"></stop><stop stop-color="#DF9F77" offset="42%"></stop><stop stop-color="#C36F3F" offset="100%"></stop></linearGradient><linearGradient x1="50%" y1="57%" x2="-8%" y2="54%" id="id-75225"><stop stop-color="#9C4A26" offset="0%"></stop><stop stop-color="#662A11" offset="100%"></stop></linearGradient><linearGradient x1="14%" y1="61%" x2="23%" y2="56%" id="id-75226"><stop stop-color="#AB4B21" offset="0%"></stop><stop stop-color="#B45C31" offset="100%"></stop></linearGradient><linearGradient x1="48%" y1="50%" x2="55%" y2="57%" id="id-75227"><stop stop-color="#E1885B" offset="0%"></stop><stop stop-color="#B8603B" offset="100%"></stop></linearGradient><linearGradient x1="50%" y1="0%" x2="43%" y2="121%" id="id-75228"><stop stop-color="#F3D2BA" offset="0%"></stop><stop stop-color="#EEAB96" offset="100%"></stop></linearGradient><linearGradient x1="100%" y1="37%" x2="80%" y2="57%" id="id-75229"><stop stop-color="#9E421E" offset="0%"></stop><stop stop-color="#CF784A" offset="100%"></stop></linearGradient><linearGradient x1="55%" y1="43%" x2="43%" y2="53%" id="id-75230"><stop stop-color="#BE663B" offset="0%"></stop><stop stop-color="#B3592E" offset="100%"></stop></linearGradient><linearGradient x1="72%" y1="4%" x2="28%" y2="76%" id="id-75231"><stop stop-color="#B15A37" offset="0%"></stop><stop stop-color="#7D341B" offset="100%"></stop></linearGradient><linearGradient x1="22%" y1="50%" x2="83%" y2="50%" id="id-75232"><stop stop-color="#C2805E" offset="0%"></stop><stop stop-color="#903A22" offset="100%"></stop></linearGradient><linearGradient x1="82%" y1="54%" x2="50%" y2="59%" id="id-75233"><stop stop-color="#843818" offset="0%"></stop><stop stop-color="#BA663F" offset="100%"></stop></linearGradient><linearGradient x1="25%" y1="53%" x2="75%" y2="52%" id="id-75234"><stop stop-color="#E1BB9F" offset="0%"></stop><stop stop-color="#C08666" offset="100%"></stop></linearGradient><linearGradient x1="50%" y1="0%" x2="50%" y2="80%" id="id-75235"><stop stop-color="#B2401E" offset="0%"></stop><stop stop-color="#C84D2C" offset="100%"></stop></linearGradient><linearGradient x1="50%" y1="0%" x2="50%" y2="100%" id="id-75236"><stop stop-color="#EC5F3D" offset="0%"></stop><stop stop-color="#D65032" offset="100%"></stop></linearGradient><linearGradient x1="109%" y1="50%" x2="23%" y2="43%" id="id-75237"><stop stop-color="#B55D33" offset="0%"></stop><stop stop-color="#C18055" offset="100%"></stop></linearGradient></defs><g transform=" translate(561,332)" id="id-75238"><g transform=" translate(172,115)" id="id-75239"><polygon points="14 1 18 0 25 8 27 21 24 41 14 66 0 68" fill="url(#id-75205)" id="id-75240"></polygon><polygon points="12 48 19 50 23 42 26 24 20 12 12 22" fill="#CB8154" id="id-75241"></polygon><polygon points="11 21 17 10 20 5 24 7 26 24 20 36 18 31 20 16 9 29" fill="#8E4015" id="id-75242"></polygon><polygon points="10 28 11 38 8 45 13 49 19 38 13 24" fill="#7D3102" id="id-75243"></polygon><polygon points="12 18 17 17 18 9" fill="#5B1C00" id="id-75244"></polygon><polygon points="18 50 10 51 8 50 5 61 12 63 14 61" fill="#E68969" id="id-75245"></polygon></g><g transform=" translate(0,113)" id="id-75246"><polygon points="13 0 5 0 0 13 4 36 13 63 25 67" fill="#D07C59" id="id-75247"></polygon><polygon points="5 9 0 13 4 36 13 63 25 67 13 24" fill="#CA7F53" id="id-75247"></polygon><polygon points="18 46 14 47 7 32 11 26 4 9 6 5 16 20 17 29" fill="#AB5E32" id="id-75249"></polygon><polygon points="13 62 20 62 18 49 11 53" fill="#AE6135" id="id-75250"></polygon><polygon points="25 68 13 63 20 62 17 46 14 47 13 44 14 29 17 26 14 22 10 19 10 11 17 20" fill="#7D3001" id="id-75251"></polygon><polygon points="13 9 4 3 5 0 12 0" fill="#E19B77" id="id-75252"></polygon></g><path d=" M 29,199 C 21,167 16,144 15,130 C 4,44 33,0 103,0 C 180,0 191,63 186,119 C 183,157 173,191 170,202 C 169,206 167,213 164,217 C 143,234 127,244 115,249 L 81,249 C 71,246 56,236 36,218 C 34,215 32,208 29,199 Z" fill="#D1865A" opacity="0.966" id="id-75253"></path><polygon points="36 106 25 118 37 39 104 9 160 39 166 105 106 122" fill="url(#id-75206)" id="id-75254"></polygon><polygon points="120 178 110 136 130 128 178 139 169 176 139 192" fill="url(#id-75207)" id="id-75255"></polygon><polygon points="169 161 135 146 164 134 176 140" fill="#F6AA7A" id="id-75256"></polygon><polygon points="169 161 156 155 176 140" fill="url(#id-75208)" id="id-75256"></polygon><path d=" M 19,155 C 17,145 16,137 15,130 C 4,44 33,0 103,0 C 180,0 191,63 186,119 C 185,128 184,136 183,145 L 148,128 L 142,124 L 162,99 C 162,80 157,59 148,36 C 125,28 107,26 95,28 C 83,31 66,39 45,53 L 39,91 L 28,114 L 42,106 L 19,155 Z" fill="url(#id-75209)" opacity="0.966" id="id-75253"></path><polygon points="77 145 37 128 23 149 57 218 88 200" fill="url(#id-75210)" id="id-75259"></polygon><polygon points="69 192 59 171 70 146 85 132 94 140 87 186" fill="#D99168" id="id-75260"></polygon><polygon points="85 180 68 192 72 205 130 208 138 197 114 170" fill="url(#id-75211)" id="id-75261"></polygon><polygon points="74 204 70 202 57 211 76 239 132 235 143 205 136 197 125 204" fill="url(#id-75212)" id="id-75262"></polygon><polygon points="91 200 95 178 107 178 112 200" fill="url(#id-75213)" id="id-75263"></polygon><path d=" M 38,101 L 64,86 C 69,68 73,57 76,53 C 79,50 94,46 119,41 L 151,70 L 126,114 L 81,113 L 73,99 L 38,101 Z" fill="url(#id-75214)" id="id-75264"></path><polygon points="156 99 123 78 105 98 127 111" fill="url(#id-75215)" id="id-75265"></polygon><polygon points="91 200 93 192 102 194 110 193 112 200" fill="#FFD9B0" id="id-75263"></polygon><polygon points="74 218 67 215 74 207 130 206 130 213 119 213" fill="#EDA177" id="id-75267"></polygon><polygon points="80 211 69 221 89 231 120 232 129 227 123 209" fill="url(#id-75216)" id="id-75268"></polygon><polygon points="141 204 117 180 128 170 150 185" fill="url(#id-75217)" id="id-75269"></polygon><polygon points="28 151 39 132 64 125 49 107 32 109 23 145" fill="#B6663A" id="id-75270"></polygon><polygon points="80 110 93 132 80 138 34 131 27 127 44 119" fill="url(#id-75218)" id="id-75271"></polygon><polygon points="30 117 27 127 45 106 61 121 79 130 56 105 40 104" fill="url(#id-75219)" id="id-75272"></polygon><polygon points="91 140 73 164 89 164 121 175 126 171 133 174 113 148" fill="url(#id-75220)" id="id-75273"></polygon><polygon points="84 181 93 185 109 186 117 182 120 177" fill="#642C18" opacity="0.599" id="id-75274"></polygon><polygon points="123 135 114 141 123 168 123 174 117 180 81 173 80 170 81 166 90 138 86 133 101 127" fill="url(#id-75221)" id="id-75275"></polygon><polygon points="79 111 99 104 121 113 107 143 98 143" fill="#E49061" id="id-75276"></polygon><polygon points="101 119 96 132 96 153 83 175 120 176 107 154 107 132" fill="url(#id-75222)" id="id-75277"></polygon><polygon points="90 163 83 175 99 175" fill="#DF765D" id="id-75277"></polygon><path d=" M 80,170 L 80,178 L 84,181 L 90,180 L 109,180 L 116,181 C 118,180 120,178 121,176 C 122,174 122,172 122,170 L 119,176 C 114,174 109,172 103,171 C 98,171 92,172 85,174 L 84,173 L 95,154 L 93,156 L 80,170 Z" fill="url(#id-75223)" id="id-75279"></path><path d=" M 105,179 C 106,177 109,176 111,176 C 113,176 116,176 119,176 C 115,174 111,173 107,172 C 106,172 105,174 105,179 Z" fill="#CE6065" id="id-75279"></path><path d=" M 87,180 L 98,180 C 96,177 94,176 91,176 C 89,176 87,177 87,180 Z" fill="#60140D" id="id-75281"></path><path d=" M 105,180 L 113,181 C 115,178 114,176 112,176 C 109,176 106,177 105,180 Z" fill="#5B120B" id="id-75282"></path><polygon points="88 220 94 227 111 227 116 218" fill="#621608" id="id-75283"></polygon><path d=" M 76,233 C 85,229 94,226 103,226 C 112,226 121,229 130,233 L 117,246 L 86,246 L 76,233 Z" fill="url(#id-75224)" id="id-75284"></path><path d=" M 113,227 C 117,228 122,230 130,233 L 117,246 L 101,242 L 113,227 Z" fill="#F5B78E" opacity="0.499" id="id-75284"></path><path d=" M 94,229 C 99,227 100,227 105,227 C 107,227 109,228 112,228 C 109,233 106,236 104,237 C 96,232 93,229 94,229 Z" fill="#F0BA9F" id="id-75284"></path><polygon points="80 140 73 146 51 147 37 135 46 132 51 138 73 140" fill="url(#id-75225)" id="id-75287"></polygon><path d=" M 26,119 L 39,110 L 50,111 L 53,114 L 57,114 L 57,112 L 60,114 L 63,114 L 63,113 L 67,116 L 76,118 L 76,115 L 68,105 C 63,104 59,103 55,102 C 52,102 46,101 39,101 L 26,115 L 26,119 Z" fill="#501C0D" id="id-75288"></path><polygon points="26 119 39 110 43 107 57 105 39 101 26 115" fill="#220F06" id="id-75288"></polygon><polygon points="77 113 73 107 76 107" fill="#501C0D" id="id-75290"></polygon><polygon points="80 114 79 109 81 110" fill="#501C0D" id="id-75291"></polygon><path d=" M 29,199 C 21,167 16,144 15,130 C 15,129 28,148 55,188 L 64,222 L 88,242 L 104,239 L 118,242 L 129,230 C 154,219 166,214 164,217 C 143,234 127,244 115,249 L 81,249 C 71,246 56,236 36,218 C 34,215 32,208 29,199 Z" fill="url(#id-75226)" opacity="0.966" id="id-75253"></path><path d=" M 118,242 L 129,230 L 147,183 L 167,160 L 172,141 L 186,119 C 183,157 173,191 170,202 C 169,206 167,213 164,217 C 145,232 132,241 125,245 C 122,246 120,245 118,242 Z" fill="url(#id-75227)" opacity="0.966" id="id-75253"></path><polygon points="42 190 29 150 55 188 64 222" fill="#C1673F" opacity="0.966" id="id-75253"></polygon><path d=" M 182,70 C 184,81 184,98 184,122 C 176,168 172,195 170,202 C 169,206 167,213 164,217 C 150,228 140,235 134,239 L 163,214 L 179,154 L 179,108 L 175,113 L 168,106 L 182,70 Z" fill="#E58F9B" opacity="0.966" id="id-75253"></path><path d=" M 95,166 L 101,168 C 107,166 108,165 107,165 C 104,164 100,164 95,166 Z" fill="#F5AA9C" id="id-75296"></path><polygon points="107 154 100 151 96 154 100 140 97 134 102 130 106 133 104 140" fill="url(#id-75228)" id="id-75297"></polygon><polygon points="108 154 122 169 119 175 115 167 109 170 113 164" fill="#C56443" id="id-75298"></polygon><path d=" M 166,131 C 169,130 171,129 172,127 C 173,125 174,121 175,115 L 164,104 L 151,105 L 137,122 L 166,131 Z" fill="url(#id-75229)" id="id-75299"></path><polygon points="123 135 117 140 124 143 131 139" fill="#F3B693" id="id-75300"></polygon><path d=" M 111,132 L 124,135 L 168,130 C 165,125 162,121 157,119 C 152,117 147,116 139,117 L 119,109 L 114,118 L 116,122 L 111,132 Z" fill="url(#id-75230)" id="id-75301"></path><polygon points="121 134 134 113 150 109 138 125" fill="url(#id-75231)" id="id-75302"></polygon><path d=" M 124,135 C 128,128 134,124 142,123 C 150,122 158,125 168,132 L 124,135 Z" fill="url(#id-75232)" id="id-75303"></path><polygon points="125 143 138 147 153 147 165 134 158 130 127 138" fill="url(#id-75233)" id="id-75304"></polygon><path d=" M 128,135 L 126,139 L 151,140 L 160,134 C 155,130 150,128 145,128 C 140,128 134,131 128,135 Z" fill="#E9D5DF" id="id-75305"></path><path d=" M 130,140 L 133,135 L 150,133 L 156,137 L 160,134 C 155,130 149,128 142,129 C 135,130 130,133 126,139 L 130,140 Z" fill="#000000" opacity="0.295" id="id-75306"></path><polygon points="124 140 143 140 152 140 160 134 158 133 151 138 128 139" fill="url(#id-75234)" id="id-75307"></polygon><polygon points="129 135 128 137 136 138 129 139 124 139 125 138" fill="#9D5133" id="id-75308"></polygon><polygon points="134 130 131 128 142 124 146 127" fill="#EDB57F" id="id-75309"></polygon><path d=" M 132,134 C 134,137 137,139 142,139 C 148,138 150,135 150,130 C 145,129 141,129 138,129 C 136,130 134,131 132,134 Z" fill="#200C09" id="id-75310"></path><path d=" M 135,135 C 135,137 137,138 142,138 C 147,137 149,136 147,133 C 147,134 145,134 143,135 C 141,135 138,135 135,135 Z" fill="#BF0526" id="id-75310"></path><polygon points="139 132 137 132 137 134 141 133 141 132 143 132 143 131 139 131" fill="#B49EBB" id="id-75312"></polygon><path d=" M 125,138 C 132,133 138,130 144,130 C 150,130 156,132 163,136 L 171,129 L 162,130 C 154,127 147,127 140,128 C 134,129 129,133 125,138 Z" fill="#200F09" id="id-75313"></path><polygon points="147 145 147 141 143 141" fill="#2D130A" id="id-75314"></polygon><polygon points="150 140 154 143 153 140" fill="#2D130A" id="id-75315"></polygon><polygon points="155 139 162 140 158 136 157 137" fill="#2D130A" id="id-75316"></polygon><polygon points="122 119 130 111 126 118 131 115 133 117 137 112 138 114 142 113 142 112 145 113 155 109 163 108 174 117 174 112 162 99 150 99 129 104" fill="#662913" id="id-75317"></polygon><polygon points="160 105 174 117 174 112 162 99 141 106" fill="#36150E" id="id-75317"></polygon><polygon points="77 210 72 210 72 205 79 205 125 203 132 203 134 206 131 209" fill="#97211C" id="id-75319"></polygon><polygon points="77 209 75 209 76 206 102 200 130 206 131 208" fill="#530C03" id="id-75320"></polygon><path d=" M 74,205 C 80,206 84,206 88,206 C 93,206 97,204 102,204 C 107,204 111,206 115,206 C 118,206 122,205 126,204 C 121,200 116,197 111,193 C 110,193 106,194 102,197 C 96,195 93,194 92,194 C 87,197 80,201 74,205 Z" fill="url(#id-75235)" id="id-75321"></path><path d=" M 76,209 C 79,211 86,224 103,223 C 119,222 123,211 129,208 C 117,206 117,207 101,208 C 94,209 90,206 76,209 Z" fill="#A13421" id="id-75322"></path><path d=" M 76,209 C 78,210 80,215 86,218 C 90,221 118,219 122,215 C 124,212 127,209 129,208 C 117,206 117,207 101,208 C 94,209 90,206 76,209 Z" fill="url(#id-75236)" id="id-75322"></path><path d=" M 76,209 C 78,210 80,215 86,218 C 90,221 118,219 122,215 C 124,212 127,209 129,208 C 117,206 118,217 102,218 C 85,219 90,206 76,209 Z" fill="#D04E2F" id="id-75322"></path><path d=" M 89,212 C 91,214 94,215 97,214 C 101,213 106,212 113,212 C 109,210 106,210 104,210 C 99,211 96,210 91,211 C 90,211 90,212 89,212 Z" fill="#FA827F" id="id-75325"></path><polygon points="50 128 50 122 64 123 65 128" fill="url(#id-75237)" id="id-75326"></polygon><path d=" M 41,126 C 47,123 52,121 57,122 C 62,123 70,126 80,131 C 72,123 63,119 54,119 C 46,120 41,122 41,126 Z" fill="#662917" id="id-75327"></path><polygon points="60 139 79 141 84 137" fill="#F8B291" id="id-75328"></polygon><polygon points="69 138 80 138 80 137 75 134 75 137" fill="#902727" id="id-75329"></polygon><path d=" M 47,132 L 50,138 C 56,138 60,139 63,138 C 66,138 70,138 75,137 C 75,136 75,135 75,134 C 71,130 65,129 61,128 C 56,127 51,129 47,132 Z" fill="#D2B3B9" id="id-75330"></path><path d=" M 53,131 C 54,135 56,138 61,138 C 66,138 69,136 70,131 C 66,129 62,128 60,128 C 58,128 56,129 53,131 Z" fill="#250B06" id="id-75331"></path><path d=" M 57,133 C 55,134 54,135 55,135 C 56,137 58,138 61,138 C 64,138 66,137 68,136 C 68,135 67,133 65,133 C 63,135 60,134 57,133 Z" fill="#920017" id="id-75331"></path><path d=" M 47,132 L 49,136 C 54,133 57,132 58,132 C 71,131 75,135 75,134 C 71,130 65,129 61,128 C 56,127 51,129 47,132 Z" fill="#000000" opacity="0.300" id="id-75330"></path><polygon points="57 132 57 130 60 130 60 132" fill="#BDA7A9" id="id-75334"></polygon><path d=" M 33,131 L 39,135 L 43,134 C 50,131 56,129 61,130 C 66,130 72,132 81,137 C 77,132 72,129 64,128 C 56,126 48,127 41,131 L 33,131 Z" fill="#2C1309" id="id-75335"></path><polygon points="43 137 47 135 50 137" fill="#3A180F" id="id-75336"></polygon><polygon points="50 139 50 143 53 139" fill="#3A180F" id="id-75337"></polygon><polygon points="55 140 58 140 55 145" fill="#3A180F" id="id-75338"></polygon><polygon points="122 107 126 106 120 118" fill="#662913" id="id-75339"></polygon><polygon points="118 108 120 108 118 115 114 118" fill="#662913" id="id-75340"></polygon></g><defs><linearGradient x1="51%" y1="73%" x2="48%" y2="97%" id="id-75754"><stop stop-color="#344F78" offset="0%"></stop><stop stop-color="#161818" offset="100%"></stop></linearGradient><linearGradient x1="50%" y1="0%" x2="50%" y2="24%" id="id-75755"><stop stop-color="#3F4451" offset="0%"></stop><stop stop-color="#1F242F" offset="100%"></stop></linearGradient><linearGradient x1="52%" y1="52%" x2="48%" y2="55%" id="id-75756"><stop stop-color="#31486D" offset="0%"></stop><stop stop-color="#212C3B" offset="100%"></stop></linearGradient></defs><g transform=" translate(326,873)" id="id-75757"><g transform=" translate(0,43)" id="id-75758"><path d=" M 80,559 C 70,557 64,557 64,557 C 39,544 27,537 27,537 C 19,513 15,500 15,500 C 7,485 3,478 3,478 C 13,447 18,432 18,432 C 25,405 29,391 29,391 C 31,378 32,372 32,372 C 61,377 75,379 75,379 C 75,386 75,389 75,389 C 79,447 81,475 81,475 C 76,503 74,516 74,516 C 79,522 81,524 81,524 C 80,527 80,529 80,529 C 86,531 90,533 90,533 C 91,541 92,545 92,545 L 79,547 C 80,555 80,559 80,559 Z" fill="#404451" id="id-75759"></path><path d=" M 60,490 C 57,506 55,515 55,515 C 59,526 61,532 61,532 L 69,530 L 74,516 C 79,522 81,524 81,524 L 80,529 L 90,533 L 92,545 C 83,546 79,547 79,547 C 79,552 80,554 80,554 C 55,534 43,524 43,524 C 39,496 36,483 36,483 L 49,476 C 57,485 60,490 60,490 Z" fill="#1F242F" id="id-75760"></path><path d=" M 48,474 C 59,468 65,464 65,464 C 63,461 62,459 62,459 L 50,461 C 48,469 48,474 48,474 Z" fill="#212732" id="id-75761"></path><path d=" M 0,478 C 24,481 36,483 36,483 C 42,482 45,481 45,481 C 51,467 54,460 54,460 C 45,452 40,448 40,448 C 40,438 40,433 40,433 C 48,403 52,389 52,389 C 33,391 23,392 23,392 L 17,432 L 0,478 Z" fill="#141616" id="id-75762"></path><path d=" M 45,430 C 43,441 42,446 42,446 C 51,455 55,459 55,459 C 59,457 60,457 60,457 C 58,445 58,440 58,440 C 57,436 56,433 54,431 C 48,431 45,430 45,430 Z" fill="#9D0101" id="id-75763"></path><path d=" M 45,429 C 51,403 54,390 54,390 C 68,389 75,388 75,388 C 77,390 79,390 79,390 C 89,411 94,421 94,421 C 91,425 90,427 90,427 C 92,429 93,430 93,430 C 91,445 89,461 85,476 C 69,473 60,471 60,471 C 60,457 65,444 56,429 C 49,429 45,429 45,429 Z" fill="#141616" id="id-75764"></path><path d=" M 46,393 C 44,398 44,401 44,401 L 38,394 C 43,393 46,393 46,393 Z" fill="#939BA3" id="id-75765"></path><path d=" M 38,394 C 39,394 40,393 40,393 L 44,398 L 44,401 C 40,396 38,394 38,394 Z" fill="#363B3D" id="id-75766"></path><path d=" M 89,433 C 83,437 80,439 80,439 C 82,444 79,456 78,466 L 84,467 C 87,445 89,433 89,433 Z" fill="#344F78" id="id-75767"></path><path d=" M 38,454 C 31,468 28,475 28,475 C 38,479 43,481 43,481 L 48,465 C 41,458 38,454 38,454 Z" fill="#344F78" id="id-75768"></path><path d=" M 111,298 C 101,322 96,333 96,333 C 90,354 87,365 87,365 C 77,365 72,365 72,365 L 80,283 C 101,293 111,298 111,298 Z" fill="#392820" id="id-75769"></path><path d=" M 95,377 C 88,380 84,382 84,382 C 78,382 75,382 75,382 C 43,376 28,374 28,374 C 33,352 36,341 36,341 C 37,341 38,341 38,341 C 39,320 40,310 40,310 C 37,304 35,296 35,285 C 42,215 45,180 45,180 C 50,172 52,168 52,168 C 54,154 55,147 55,147 C 79,104 91,82 91,82 C 100,47 105,30 105,30 C 112,22 116,18 116,18 C 109,57 106,76 106,76 C 112,75 116,75 116,75 C 124,61 128,55 128,55 C 134,68 136,74 136,74 C 140,120 142,143 142,143 C 160,146 169,147 169,147 C 163,180 160,197 160,197 C 162,198 162,198 162,198 C 162,206 162,210 162,210 C 151,220 145,226 145,226 C 131,252 124,265 124,265 C 127,267 128,268 128,268 C 118,289 113,299 113,299 C 92,292 82,288 82,288 C 76,337 73,362 73,362 C 81,362 84,362 84,362 C 87,348 88,341 88,341 C 90,347 91,353 99,359 C 96,371 95,377 95,377 Z" fill="#141616" id="id-75770"></path><path d=" M 91,113 L 60,139 L 55,147 C 53,161 52,168 52,168 C 82,149 67,230 66,279 L 40,310 L 38,341 L 36,341 C 31,363 28,374 28,374 C 55,378 69,380 69,380 C 83,225 89,147 89,147 C 76,153 69,156 69,156 C 67,151 66,148 66,148 L 91,130 C 91,119 91,113 91,113 Z" fill="url(#id-75754)" id="id-75771"></path><path d=" M 51,170 C 55,173 57,175 57,175 C 55,232 54,261 54,261 L 36,280 L 45,180 C 49,173 51,170 51,170 Z" fill="#606D86" id="id-75772"></path><path d=" M 55,233 L 38,252 L 36,280 L 54,261 C 55,242 55,233 55,233 Z" fill="#9B0101" id="id-75773"></path><path d=" M 113,181 C 109,181 106,181 106,181 C 103,191 102,196 102,196 L 108,195 C 111,186 113,181 113,181 Z" fill="#7585A3" id="id-75774"></path><path d=" M 157,195 L 133,187 C 139,158 142,143 142,143 C 155,145 161,146 161,146 L 153,191 C 155,194 157,195 157,195 Z" fill="#3F4855" id="id-75775"></path><path d=" M 106,135 C 113,129 116,127 116,127 C 111,108 108,86 86,90 L 80,101 C 92,107 101,119 106,135 Z" fill="#354F79" id="id-75776"></path><path d=" M 88,106 L 97,90 C 95,89 91,89 86,90 L 80,101 C 84,103 86,104 88,106 Z" fill="#626F87" id="id-75777"></path><path d=" M 126,94 C 118,94 114,94 114,94 L 109,89 C 121,92 126,94 126,94 Z" fill="#73829F" id="id-75778"></path><path d=" M 117,98 C 121,125 123,138 123,138 C 133,138 139,138 139,138 C 137,125 135,112 129,98 C 121,98 117,98 117,98 Z" fill="#7585A3" id="id-75779"></path><path d=" M 146,0 C 136,29 131,43 131,43 C 137,54 139,60 139,60 L 150,14 C 147,5 146,0 146,0 Z" fill="#171919" id="id-75780"></path><path d=" M 40,376 C 42,358 44,349 44,349 C 59,360 67,365 67,365 L 70,365 L 69,380 C 49,378 40,376 40,376 Z" fill="#18202E" id="id-75781"></path><path d=" M 47,377 L 54,356 C 62,362 67,365 67,365 L 63,380 C 53,378 47,377 47,377 Z" fill="#262E3E" id="id-75782"></path><path d=" M 57,358 L 52,378 L 69,380 L 70,365 L 67,365 C 60,361 57,358 57,358 Z" fill="#35507A" id="id-75783"></path></g><g transform=" translate(490,1)" id="id-75784"><path d=" M 75,405 C 84,404 89,403 89,403 C 88,397 88,393 88,393 C 64,295 52,246 52,246 L 47,248 C 65,352 75,405 75,405 Z" fill="#354E78" id="id-75785"></path><path d=" M 62,499 C 63,503 63,506 63,506 C 60,519 61,534 64,551 C 65,553 65,553 65,553 C 64,557 63,559 63,559 C 52,564 47,567 47,567 C 45,579 44,584 44,584 C 52,585 55,585 55,585 C 55,592 55,596 55,596 C 57,598 58,599 58,599 C 76,593 85,591 85,591 C 96,581 101,576 101,576 C 108,566 111,560 111,560 C 116,544 118,536 118,536 C 123,530 125,528 125,528 C 124,515 123,509 123,509 C 118,452 116,423 116,423 C 116,415 116,411 116,411 C 114,404 113,400 113,400 L 71,405 L 72,421 C 65,473 62,499 62,499 Z" fill="url(#id-75755)" id="id-75786"></path><path d=" M 54,0 C 50,1 47,1 47,1 C 49,81 50,121 50,121 C 35,185 28,216 28,216 C 9,226 0,231 0,231 C 11,261 16,276 16,276 C 46,348 60,384 60,384 C 64,403 66,413 66,413 C 74,412 78,412 78,412 C 78,400 78,394 78,394 C 61,305 53,261 53,261 C 75,350 86,395 86,395 C 87,406 87,411 87,411 C 106,411 116,411 116,411 C 120,411 122,411 122,411 C 118,402 116,397 116,397 C 115,390 114,386 114,386 L 111,371 L 100,186 C 90,164 85,153 85,153 C 88,129 89,117 89,117 C 85,107 83,103 83,103 C 81,102 81,102 81,102 C 81,100 81,99 81,99 C 81,99 80,98 80,98 C 79,99 79,99 79,99 L 60,45 C 56,15 54,0 54,0 Z" fill="#161818" id="id-75787"></path><path d=" M 60,48 C 55,54 52,57 52,57 C 63,103 68,126 68,126 L 77,100 C 66,65 60,48 60,48 Z" fill="#57667F" id="id-75788"></path><path d=" M 107,308 C 90,324 82,331 82,331 C 83,337 84,340 84,340 L 114,386 L 111,371 C 109,329 107,308 107,308 Z" fill="#2C3F5D" id="id-75789"></path><path d=" M 107,303 C 89,319 81,327 81,327 L 55,213 L 89,117 L 85,153 L 100,186 C 105,264 107,303 107,303 Z" fill="url(#id-75756)" id="id-75790"></path><path d=" M 6,249 C 32,252 44,253 44,253 L 67,362 L 60,384 L 16,276 C 10,258 6,249 6,249 Z" fill="#382820" id="id-75791"></path><path d=" M 44,253 C 41,254 39,255 39,255 C 43,270 45,277 45,277 L 49,277 C 46,261 44,253 44,253 Z" fill="#FF1469" id="id-75792"></path><path d=" M 72,421 C 86,423 93,425 93,425 C 96,449 98,461 98,461 C 91,461 87,461 87,461 C 83,470 81,484 80,498 C 73,495 65,496 58,501 C 57,474 56,460 56,460 C 57,458 58,457 58,457 L 55,452 C 66,431 72,421 72,421 Z" fill="#141616" id="id-75793"></path><path d=" M 96,426 C 100,453 102,466 102,466 C 100,476 100,481 100,481 C 91,489 87,493 87,493 C 92,509 94,518 94,518 C 112,513 121,511 121,511 C 128,507 131,505 131,505 C 128,498 126,494 126,494 C 121,452 118,432 118,432 L 121,423 C 104,425 96,426 96,426 Z" fill="#141616" id="id-75794"></path><path d=" M 101,488 C 95,496 92,499 92,499 C 94,511 96,517 96,517 L 110,513 C 104,496 101,488 101,488 Z" fill="#344F78" id="id-75795"></path><path d=" M 85,492 C 94,484 98,480 98,480 C 98,475 99,472 99,472 C 98,467 97,464 97,464 C 92,463 89,463 89,463 C 87,468 85,470 85,470 L 82,490 C 84,491 85,492 85,492 Z" fill="#9D0101" id="id-75796"></path><path d=" M 60,499 C 59,476 59,464 59,464 C 64,468 66,470 66,470 C 66,472 65,472 65,472 L 65,497 C 62,499 60,499 60,499 Z" fill="#344F79" id="id-75797"></path><path d=" M 70,577 C 78,568 82,563 82,563 C 84,551 86,544 86,544 C 78,550 75,553 75,553 L 68,552 C 69,569 70,577 70,577 Z" fill="#141616" id="id-75798"></path><path d=" M 55,595 C 57,592 58,591 58,591 C 69,587 75,585 75,585 C 86,567 92,559 92,559 L 96,518 C 112,513 121,511 121,511 L 123,509 L 125,528 L 118,536 C 113,552 111,560 111,560 L 108,564 L 101,577 L 85,591 L 58,599 C 56,596 55,595 55,595 Z" fill="#3F4550" id="id-75799"></path><path d=" M 68,552 C 72,553 75,553 75,553 C 81,548 85,545 85,545 L 84,500 C 75,496 67,496 62,499 L 63,506 C 61,527 63,541 68,552 Z" fill="#3F4551" id="id-75800"></path><path d=" M 117,516 L 121,517 C 114,546 111,560 111,560 C 109,563 108,565 108,565 L 107,564 C 114,532 117,516 117,516 Z" fill="#1F242F" id="id-75801"></path><path d=" M 95,559 C 101,553 104,550 104,550 C 109,541 111,537 111,537 L 107,563 C 99,560 95,559 95,559 Z" fill="#686C75" id="id-75802"></path><path d=" M 45,212 C 42,227 40,235 40,235 L 28,226 C 39,217 45,212 45,212 Z" fill="#53617A" id="id-75803"></path><path d=" M 55,213 C 64,192 68,182 68,182 L 60,229 C 57,219 55,213 55,213 Z" fill="#53617A" id="id-75804"></path><path d=" M 74,159 L 85,147 L 89,117 C 79,145 74,159 74,159 Z" fill="#64728E" id="id-75805"></path></g></g><defs><linearGradient x1="54%" y1="100%" x2="54%" y2="22%" id="id-76147"><stop stop-color="#101721" offset="0%"></stop><stop stop-color="#1D2B3E" offset="53%"></stop><stop stop-color="#101721" offset="100%"></stop></linearGradient><linearGradient x1="64%" y1="37%" x2="50%" y2="70%" id="id-76148"><stop stop-color="#182738" offset="0%"></stop><stop stop-color="#24374D" offset="55%"></stop><stop stop-color="#182738" offset="100%"></stop></linearGradient></defs><g transform=" translate(484,1152)" id="id-76149"><polygon points="28 61 112 127 152 157 187 165 256 112 321 58" fill="#1E0A07" fill-opacity="0.296" id="id-76150"></polygon><polygon points="0 44 4 23 10 0 45 12 90 20 147 25 204 25 262 19 308 8 328 0 339 47 308 68 261 94 234 112 217 128 196 152 187 168 174 170 156 166 137 141 118 121 84 94 51 73 13 54" fill="url(#id-76147)" id="id-76151"></polygon><polygon points="322 11 321 3 328 0 339 47 333 51 331 44 317 49 313 17" fill="#3B485A" id="id-76151"></polygon><polygon points="90 20 147 25 204 25 262 19 308 8 276 47 302 35 193 148 180 151 173 146 164 151 148 148 84 62 164 130 200 130 213 122 246 62 250 59 247 45 243 48 201 127 208 52" fill="url(#id-76148)" id="id-76151"></polygon><polygon points="71 25 71 17 90 20 147 25 147 34" fill="#223953" id="id-76151"></polygon><polygon points="231 30 229 22 262 19 287 13 287 22" fill="#586C87" id="id-76151"></polygon><polygon points="53 68 70 49 54 29 37 47" fill="#AD5100" id="id-76156"></polygon><polygon points="67 52 70 49 54 29 51 32" fill="#F38B00" id="id-76156"></polygon><polygon points="131 40 171 72 215 38 210 38 171 67 137 40" fill="#7688A0" id="id-76158"></polygon><polygon points="146 39 174 58 202 38" fill="#7788A0" id="id-76159"></polygon></g><defs><linearGradient x1="33%" y1="59%" x2="66%" y2="64%" id="id-40035"><stop stop-color="#050E15" offset="0%" stop-opacity="0.810"></stop><stop stop-color="#040D13" offset="11%" stop-opacity="0.379"></stop><stop stop-color="#040D13" offset="19%" stop-opacity="0.151"></stop><stop stop-color="#040D13" offset="28%" stop-opacity="0.329"></stop><stop stop-color="#040B10" offset="41%" stop-opacity="0.741"></stop><stop stop-color="#03090E" offset="59%" stop-opacity="0.740"></stop><stop stop-color="#03080B" offset="70%" stop-opacity="0.221"></stop><stop stop-color="#03070B" offset="79%" stop-opacity="0.133"></stop><stop stop-color="#02070B" offset="89%" stop-opacity="0.332"></stop><stop stop-color="#020609" offset="100%" stop-opacity="0.712"></stop></linearGradient></defs><g transform=" translate(450,1060)" id="id-40036"><path d=" M 315,72 C 331,189 359,253 401,265 C 402,281 403,298 402,314 C 394,426 347,550 347,571 C 347,626 340,674 347,700 L 347,700 L 245,700 C 231,673 238,628 231,601 C 229,568 229,533 228,499 C 228,446 209,336 219,260 C 246,202 278,140 315,72 Z M 86,54 L 194,258 C 194,258 195,269 196,281 C 188,416 173,470 169,554 C 169,578 171,579 171,604 C 166,624 165,646 167,673 L 167,673 L 162,700 L 53,700 C 56,692 58,681 60,667 C 32,461 4,415 0,271 C 40,271 69,199 86,54 L 86,54 Z M 104,605 L 98,619 L 106,655 L 128,654 L 129,633 L 104,605 Z M 122,575 L 115,585 L 110,601 L 127,616 L 122,575 Z M 117,495 L 103,497 L 103,514 L 109,512 L 104,520 L 106,536 L 116,536 L 117,512 L 117,495 Z M 115,420 L 97,423 L 100,480 L 117,471 L 117,446 L 101,445 L 116,432 L 115,420 Z M 305,370 L 305,380 L 332,392 L 307,396 L 311,435 L 347,444 L 347,428 L 329,425 L 347,420 L 347,404 L 347,377 L 305,370 Z M 109,383 L 99,383 L 98,407 L 110,407 L 109,383 Z M 110,346 L 102,350 L 98,375 L 110,369 L 110,346 Z" fill="url(#id-40035)" id="id-40037"></path><path d=" M 77,1 C 77,1 95,31 130,90 L 130,90 L 280,90 C 280,90 297,62 332,6 C 332,6 332,6 332,6 L 332,6 C 332,7 336,13 343,24 C 343,24 344,26 345,30 L 345,30 L 294,118 C 294,118 318,111 365,95 C 365,95 366,99 367,107 C 367,107 367,107 367,107 L 367,107 C 365,108 361,109 355,111 L 354,112 C 341,116 318,124 286,134 C 286,134 268,169 232,240 C 232,240 279,207 373,141 C 373,141 374,144 375,149 C 375,149 323,187 220,264 C 215,265 213,266 204,267 C 199,266 196,265 193,264 C 189,260 187,256 185,251 L 185,251 L 27,161 C 27,161 28,159 29,153 C 29,153 79,181 178,238 C 178,238 159,202 122,129 C 122,129 94,121 40,103 L 40,103 L 40,103 C 40,103 41,98 43,90 C 43,90 67,98 114,114 L 114,114 L 66,28 C 66,28 70,19 77,1 Z M 276,100 C 276,100 276,100 276,100 L 276,100 C 273,100 226,100 136,100 C 136,100 140,109 149,126 C 183,141 222,139 260,129 C 260,129 265,119 276,100 Z" fill="#131415" id="id-40037"></path><g transform=" translate(42,179)" fill="#BFBFBF" fill-opacity="0.193" id="id-40039"><path d=" M 239,132 C 231,134 226,136 226,136 C 224,107 223,92 223,92 L 230,57 C 236,107 239,132 239,132 Z" id="id-40040"></path><path d=" M 232,190 C 242,191 254,193 254,193 C 254,202 254,211 254,218 C 205,401 221,458 221,458 C 210,418 205,379 205,342 C 209,321 230,273 232,190 Z" id="id-40041"></path><path d=" M 44,266 C 29,264 16,262 1,259 C 23,372 39,474 39,474 L 48,413 C 39,391 37,341 44,266 Z" id="id-40042"></path><path d=" M 30,120 C 20,120 3,107 3,107 C 5,84 6,72 6,72 L 16,55 C 18,85 23,107 30,120 Z" id="id-40043"></path><path d=" M 74,118 C 59,100 57,65 57,65 L 61,1 C 100,41 104,80 74,118 Z" id="id-40044"></path></g></g><defs><linearGradient x1="50%" y1="6%" x2="50%" y2="92%" id="id-40157"><stop stop-color="#E7FF00" offset="0%"></stop><stop stop-color="#9BD300" offset="75%"></stop><stop stop-color="#79BD00" offset="100%"></stop></linearGradient><linearGradient x1="0%" y1="48%" x2="100%" y2="48%" id="id-40158"><stop stop-color="#CEE899" offset="0%"></stop><stop stop-color="#95CA00" offset="3%"></stop><stop stop-color="#C7F747" offset="11%"></stop><stop stop-color="#E3FBB9" offset="16%"></stop><stop stop-color="#5B8600" offset="24%"></stop><stop stop-color="#6D8B00" offset="75%"></stop><stop stop-color="#E5F7BA" offset="82%"></stop><stop stop-color="#B2E332" offset="87%"></stop><stop stop-color="#9DC400" offset="95%"></stop><stop stop-color="#E2EFC0" offset="100%"></stop></linearGradient></defs><g transform=" translate(497,803)" id="id-40159"><polygon points="292 103 250 114 158 116 73 114 54 113 26 106 24 91 10 72 1 47 1 37 8 13 39 2 47 4 73 18 116 46 132 58 132 72 135 79 151 84 171 79 174 58 207 32 263 2 268 1 287 7 303 15 309 34 307 58 294 81" fill="url(#id-40157)" id="id-40160"></polygon><polygon points="198 115 158 116 105 115 142 92 151 84 165 90" fill="#AAEF00" opacity="0.783" id="id-40160"></polygon><polygon points="110 86 67 99 24 91 10 72 1 47 1 37 5 22 7 47 21 72 36 81 58 86" fill="#93E400" id="id-40160"></polygon><polygon points="67 99 24 91 10 72 1 47 1 37 5 22 7 47 21 72 29 84" fill="#BFFF00" id="id-40160"></polygon><polygon points="245 97 210 84 258 74 295 56 304 37 302 15 307 34 307 58 293 81" fill="#8CE200" id="id-40160"></polygon><polygon points="295 56 301 37 303 15 309 34 307 58 294 81 272 88" fill="#9DFF00" id="id-40160"></polygon><polygon points="206 41 217 56 249 64 288 42 297 16 269 4 214 33" fill="#CAF900" id="id-40166"></polygon><polygon points="14 14 14 33 36 55 77 53 97 38 45 6" fill="#C8F800" id="id-40167"></polygon><polygon points="128 79 123 58 85 32 49 10 25 11 5 21 8 13 39 2 47 4 73 18 116 46 132 58 132 63 173 63 172 71 132 71 132 72 135 79 151 84 171 79 174 58 207 32 263 2 268 1 287 7 303 15 305 21 280 10 265 9 212 36 180 59 175 83 153 90 133 84" fill="url(#id-40158)" id="id-40160"></polygon></g><defs><linearGradient x1="54%" y1="55%" x2="47%" y2="53%" id="id-49074"><stop stop-color="#8563AC" offset="0%"></stop><stop stop-color="#D9AEFA" offset="37%"></stop><stop stop-color="#DDBBFF" offset="62%"></stop><stop stop-color="#B48CD4" offset="100%"></stop></linearGradient><linearGradient x1="54%" y1="53%" x2="47%" y2="53%" id="id-49075"><stop stop-color="#B68CD4" offset="0%"></stop><stop stop-color="#DBAEFA" offset="37%"></stop><stop stop-color="#D9BBFF" offset="62%"></stop><stop stop-color="#9270BD" offset="100%"></stop></linearGradient><linearGradient x1="51%" y1="27%" x2="50%" y2="79%" id="id-49076"><stop stop-color="#AB8CD4" offset="0%"></stop><stop stop-color="#B28DD4" offset="55%"></stop><stop stop-color="#9777C2" offset="100%"></stop></linearGradient></defs><g transform=" translate(450,1060)" id="id-49077"><path d=" M 220,264 C 217,293 216,321 217,350 C 223,431 232,512 231,594 C 231,603 233,612 235,623 C 237,636 236,644 236,655 C 236,672 242,685 244,701 C 313,701 347,701 347,701 C 342,682 340,661 344,640 C 346,625 344,610 346,595 C 346,582 346,575 346,575 C 346,567 349,559 351,551 C 375,460 387,414 387,414 C 396,374 404,336 403,304 C 401,268 397,232 390,197 C 385,179 377,160 373,142 C 368,110 365,93 365,93 C 349,47 341,24 341,24 C 335,15 332,11 332,11 C 290,95 270,137 270,137 C 234,215 220,264 220,264 Z" fill="url(#id-49074)" id="id-49078"></path><path d=" M 78,1 C 55,60 43,90 43,90 C 37,117 33,131 33,131 C 30,152 25,172 19,193 C 14,218 9,244 2,272 C 1,289 0,299 0,309 C 13,431 22,455 32,509 C 39,542 49,586 58,666 C 59,681 52,701 52,701 C 125,701 162,701 162,701 C 165,683 167,675 167,675 C 166,652 165,630 171,607 C 170,572 169,555 169,555 C 173,514 175,472 181,433 C 189,376 199,300 194,264 C 178,218 160,174 140,131 C 99,44 78,1 78,1 Z" fill="url(#id-49075)" id="id-49078"></path><path d=" M 18,436 C 65,475 114,515 170,553 C 171,589 172,607 172,607 C 167,621 168,644 167,667 L 38,538 C 24,470 18,436 18,436 Z" fill="#AA89D3" id="id-49080"></path><path d=" M 59,475 C 112,517 138,538 138,538 C 138,604 138,638 138,638 L 77,573 C 65,507 59,475 59,475 Z" fill="#C19FE9" id="id-49081"></path><path d=" M 56,553 L 40,537 C 25,470 18,436 18,436 L 33,449 C 48,518 56,553 56,553 Z" fill="#DDBBFF" id="id-49082"></path><path d=" M 231,557 C 278,521 332,472 384,425 C 384,425 374,463 355,538 C 355,538 316,582 238,670 C 236,660 236,639 234,623 C 228,600 232,577 231,557 Z" fill="#AC8CD4" id="id-49083"></path><path d=" M 261,638 C 300,595 319,573 319,573 C 332,506 338,472 338,472 L 262,540 C 261,605 261,638 261,638 Z" fill="#CE9FE9" id="id-49084"></path><path d=" M 355,538 C 345,548 340,553 340,553 L 363,445 L 384,425 C 365,500 355,538 355,538 Z" fill="#E6BBFF" id="id-49085"></path><path d=" M 78,1 C 78,1 96,31 130,90 L 130,90 L 280,90 C 280,90 297,62 332,6 C 332,6 332,6 332,6 L 332,6 C 332,7 336,13 343,24 C 343,24 344,26 345,30 L 345,30 L 294,118 C 294,118 318,111 365,95 C 365,95 366,99 367,107 C 367,107 367,107 367,107 L 367,107 C 365,108 361,109 355,111 L 354,112 C 341,116 318,124 286,134 C 286,134 268,169 232,240 C 232,240 279,207 373,141 C 373,141 374,144 375,149 C 375,149 323,187 220,264 C 215,265 213,266 204,267 C 199,266 196,265 193,264 C 189,260 187,256 185,251 L 185,251 L 27,161 C 27,161 28,159 29,153 C 29,153 79,181 178,238 C 178,238 159,202 122,129 C 122,129 94,121 40,103 L 40,103 L 40,103 C 40,103 41,98 43,90 C 43,90 67,98 114,114 L 114,114 L 67,28 C 67,28 71,19 78,1 Z M 276,100 C 276,100 276,100 276,100 L 276,100 C 273,100 226,100 136,100 C 136,100 140,109 149,126 C 183,141 222,139 260,129 C 260,129 265,119 276,100 Z" fill="url(#id-49076)" id="id-49086"></path></g><defs><linearGradient x1="50%" y1="100%" x2="50%" y2="0%" id="id-51872"><stop stop-color="#251918" offset="0%"></stop><stop stop-color="#241D2A" offset="100%"></stop></linearGradient><linearGradient x1="50%" y1="100%" x2="50%" y2="0%" id="id-51873"><stop stop-color="#1C2A51" offset="0%"></stop><stop stop-color="#1C2B52" offset="100%" stop-opacity="0"></stop></linearGradient><linearGradient x1="50%" y1="100%" x2="50%" y2="0%" id="id-51874"><stop stop-color="#1C2A51" offset="0%"></stop><stop stop-color="#1C2B52" offset="100%" stop-opacity="0"></stop></linearGradient></defs><g transform=" translate(492,641)" id="id-51875"><path d=" M 234,81 L 266,176 C 266,176 294,250 307,264 L 310,259 C 310,259 297,198 270,85 C 270,85 304,44 330,26 L 328,20 L 298,2 C 298,2 273,20 239,69 L 93,69 C 93,69 76,35 31,1 L 0,19 L 0,25 C 0,25 45,55 62,84 C 62,84 43,210 20,257 L 26,267 C 26,267 85,146 96,84 L 234,81 Z" fill="#1B141C" id="id-51876"></path><path d=" M 259,303 L 259,311 L 260,334 L 266,334 L 264,346 L 261,346 L 266,445 L 266,451 L 272,588 L 270,588 L 272,595 L 272,595 L 277,679 L 238,679 L 237,457 L 236,344 L 233,344 L 231,332 L 235,332 L 234,316 C 159,302 99,310 99,310 L 100,328 L 103,328 L 102,336 L 99,340 L 96,459 L 96,499 L 94,699 L 55,695 L 59,616 L 60,617 L 62,609 L 59,608 L 64,497 L 66,456 L 67,448 L 72,337 L 72,302 L 64,300 L 52,298 L 20,298 L 26,267 L 66,266 C 61,264 57,262 57,260 L 57,213 L 63,202 L 78,163 L 80,157 L 83,152 L 96,144 L 242,146 L 251,150 L 252,158 L 254,163 L 273,202 L 277,207 L 275,261 L 271,264 L 307,264 L 304,296 L 293,296 L 270,297 L 264,303 L 259,303 Z" fill="#1B141C" id="id-51876"></path><polygon points="94 604 56 598 55 613 94 617" fill="#575E87" id="id-51876"></polygon><path d=" M 238,597 L 276,597 L 276,583 L 238,582 C 238,588 238,593 238,597 Z" fill="#575E87" id="id-51876"></path><polygon points="275 261 274 269 280 270 275 294 271 294 270 301 281 296 285 265" fill="#404856" id="id-51876"></polygon><polygon points="261 346 236 344 233 344 231 332 235 332 237 341 259 343 260 334 266 334 264 346" fill="#404856" id="id-51876"></polygon><polygon points="100 328 99 335 87 342 72 331 72 328 68 328 69 335 72 337 87 346 99 340 102 336 103 328" fill="#404856" id="id-51876"></polygon><polygon points="65 296 64 300 52 298 48 264 62 260 61 268 53 270 55 291" fill="#404856" id="id-51876"></polygon><polyline points="247 69 252 76 246 83" stroke="#404856" stroke-width="7" id="id-51876"></polyline><polyline points="83 67 76 77 82 84" stroke="#404856" stroke-width="7" id="id-51876"></polyline><polygon points="263 231 263 188 241 153 94 153 74 189 74 231" fill="#575E87" id="id-51876"></polygon><path d=" M 272,151 L 252,158 L 254,163 L 273,202 L 286,180 L 272,151 Z M 264,162 L 269,158 L 279,180 L 276,186 L 264,162 Z" fill="#383F64" id="id-51887" fill-rule="nonzero"></path><path d=" M 48,182 L 63,202 L 78,163 L 80,157 L 59,152 L 48,182 Z M 59,187 L 54,182 L 63,159 L 68,162 L 59,187 Z" fill="#383F64" id="id-51887" fill-rule="nonzero"></path><polygon points="257 224 257 189 243 165 94 165 80 191 80 224" fill="#383F64" id="id-51876"></polygon><path d=" M 92,216 C 93,216 93,216 94,215 C 94,215 95,214 95,214 L 98,198 C 98,197 97,196 97,196 C 97,195 96,195 95,195 L 93,195 C 92,195 91,195 91,196 C 90,196 90,197 90,198 L 87,214 C 87,214 87,215 87,215 C 88,216 88,216 89,216 L 92,216 Z M 90,214 C 90,214 90,214 90,213 C 89,213 89,213 89,213 L 92,198 C 92,198 92,198 92,198 C 92,197 92,197 93,197 L 94,197 C 94,197 94,197 94,198 C 94,198 94,198 94,198 L 92,213 C 92,213 92,213 92,213 C 91,214 91,214 91,214 L 90,214 Z M 102,216 C 103,216 104,216 104,215 C 105,215 105,214 105,214 L 106,207 C 106,207 106,207 106,207 C 106,206 106,206 106,206 C 106,206 106,206 106,206 C 106,206 106,206 105,206 C 106,206 106,206 106,205 C 106,205 106,205 106,205 C 106,205 107,205 107,205 C 107,204 107,204 107,204 L 108,198 C 108,197 108,196 108,196 C 107,195 107,195 106,195 L 100,195 L 97,216 L 102,216 Z M 102,204 L 104,197 L 105,197 C 105,197 105,197 106,198 C 106,198 106,198 106,198 L 105,203 C 105,203 105,204 105,204 C 104,204 104,204 104,204 L 102,204 Z M 101,214 L 102,207 L 104,207 C 104,207 104,207 104,207 C 104,207 104,208 104,208 L 103,213 C 103,213 103,213 103,213 C 103,214 103,214 102,214 L 101,214 Z M 113,216 C 114,216 114,216 115,215 C 115,215 116,214 116,214 L 117,207 C 117,206 117,206 117,205 C 116,205 116,204 115,204 L 113,204 C 113,204 113,204 113,204 C 113,204 112,204 113,204 L 113,198 C 113,198 114,198 114,198 C 114,198 114,198 114,198 L 115,198 C 115,198 116,198 116,198 C 116,198 116,198 116,198 L 115,202 L 118,202 L 119,198 C 119,197 119,196 118,196 C 118,195 117,195 117,195 L 114,195 C 113,195 112,195 112,196 C 111,196 111,197 111,198 L 110,204 C 110,205 110,206 110,206 C 111,207 111,207 112,207 L 114,207 C 114,207 114,207 114,207 C 114,207 114,207 114,208 L 113,213 C 113,213 113,213 113,213 C 113,213 113,213 113,213 L 111,213 C 111,213 111,213 111,213 C 111,213 111,213 111,213 L 112,209 L 109,209 L 108,214 C 108,214 108,215 109,215 C 109,216 110,216 110,216 L 113,216 Z M 126,216 L 126,213 L 123,213 L 124,207 L 127,207 L 128,204 L 124,204 L 125,198 L 129,198 L 129,195 L 123,195 L 119,216 L 126,216 Z M 130,216 L 132,207 L 133,207 L 134,216 L 137,216 L 136,207 C 136,206 137,206 137,206 C 137,205 138,205 138,204 L 139,198 C 139,197 139,196 138,196 C 138,195 137,195 137,195 L 131,195 L 128,216 L 130,216 Z M 132,204 L 134,197 L 135,197 C 135,197 136,197 136,198 C 136,198 136,198 136,198 L 135,203 C 135,203 135,204 135,204 C 134,204 134,204 134,204 L 132,204 Z M 144,216 L 150,195 L 148,195 L 143,209 L 143,209 L 144,195 L 141,195 L 141,216 L 144,216 Z M 156,216 L 156,213 L 153,213 L 154,207 L 157,207 L 158,204 L 154,204 L 155,198 L 159,198 L 159,195 L 153,195 L 150,216 L 156,216 Z M 160,216 L 162,207 L 163,207 L 164,216 L 167,216 L 166,207 C 166,206 167,206 167,206 C 167,205 168,205 168,204 L 169,198 C 169,197 169,196 169,196 C 168,195 168,195 167,195 L 161,195 L 158,216 L 160,216 Z M 163,204 L 164,197 L 166,197 C 166,197 166,197 166,198 C 167,198 167,198 167,198 L 166,203 C 166,203 166,204 165,204 C 165,204 165,204 165,204 L 163,204 Z" fill="#FAA000" id="id-51890" fill-rule="nonzero"></path><polygon points="64 213 65 226 71 211 71 198" fill="#383F64" id="id-51876"></polygon><polygon points="71 198 71 239 261 239 271 231 266 294 72 291 64 213" fill="url(#id-51872)" id="id-51876"></polygon><polygon points="90 175 95 167 175 167 175 175" fill="#9A5F0B" id="id-51876"></polygon><polygon points="181 200 245 200 245 185 236 168 181 168" stroke="#9A5F0B" stroke-width="3" id="id-51876"></polygon><polygon points="188 175 195 175 195 189 202 189 202 176 208 176 208 196 188 196" fill="#9A5F0B" id="id-51876"></polygon><polygon points="212 175 212 183 239 183 234 175" fill="#9A5F0B" id="id-51876"></polygon><rect fill="#9A5F0B" width="27" height="8" x="212" y="188" id="id-51897"></rect><rect fill="#9A5F0B" width="17" height="5" x="81" y="249" id="id-51897"></rect><path d=" M 81,258 L 81,282 L 98,282 L 98,258 L 81,258 Z M 83,266 L 83,259 L 89,263 L 83,266 Z" fill="#9A5F0B" id="id-51887" fill-rule="nonzero"></path><polygon points="109 248 188 248 202 265 188 283 109 283" stroke="#9A5F0B" stroke-width="3" id="id-51876"></polygon><polygon points="178 252 187 252 197 265 186 280 177 280 187 265" fill="#9A5F0B" id="id-51876"></polygon><polygon points="159 252 168 252 178 265 167 280 158 280 168 265" fill="#9A5F0B" id="id-51876"></polygon><polygon points="140 252 149 252 159 265 148 280 139 280 149 265" fill="#9A5F0B" id="id-51876"></polygon><polygon points="120 252 130 252 140 265 129 280 120 280 130 265" fill="#9A5F0B" id="id-51876"></polygon><polygon points="66 482 96 483 96 459 99 340 87 346 72 337" fill="url(#id-51873)" id="id-51876"></polygon><polygon points="237 482 266 482 266 451 261 347 236 344" fill="url(#id-51874)" id="id-51876"></polygon><polygon points="272 151 254 163 252 158" fill="#848EC6" id="id-51876"></polygon><polygon points="59 152 78 163 80 157" fill="#848EC6" id="id-51876"></polygon><path d=" M 298,2 C 292,7 286,12 281,18 L 309,35 L 329,20 L 298,2 Z" fill="#354E89" id="id-51876"></path><path d=" M 0,19 C 0,19 13,28 21,34 L 48,15 C 48,15 37,5 31,1 L 0,19 Z" fill="#354E89" id="id-51876"></path></g><defs><linearGradient x1="0%" y1="50%" x2="100%" y2="50%" id="id-54013"><stop stop-color="#95946F" offset="0%"></stop><stop stop-color="#5C5B3C" offset="100%"></stop></linearGradient><linearGradient x1="100%" y1="50%" x2="0%" y2="50%" id="id-54014"><stop stop-color="#575637" offset="0%"></stop><stop stop-color="#9A9462" offset="100%"></stop></linearGradient><linearGradient x1="50%" y1="27%" x2="67%" y2="89%" id="id-54015"><stop stop-color="#333949" offset="0%" stop-opacity="0"></stop><stop stop-color="#424C65" offset="39%"></stop><stop stop-color="#333949" offset="100%" stop-opacity="0"></stop></linearGradient></defs><g transform=" translate(420,1032)" id="id-54016"><path d=" M 369,28 C 379,34 421,14 421,14 C 434,13 440,13 440,13 C 441,16 442,17 442,17 C 442,15 442,14 442,14 C 447,14 450,14 450,14 L 452,18 C 448,23 446,25 446,25 C 451,25 454,25 454,25 C 454,51 455,64 455,64 C 452,61 451,60 451,60 C 446,58 443,57 443,57 C 440,61 439,63 439,63 C 436,64 434,64 434,64 C 433,66 433,67 433,67 C 427,69 422,69 422,69 C 406,81 398,86 398,86 C 303,152 255,185 255,185 C 256,186 257,187 257,187 C 248,193 244,196 244,196 C 241,191 239,189 239,189 C 237,194 236,196 236,196 C 229,199 226,200 226,200 C 228,203 229,205 229,205 C 221,210 217,213 217,213 C 216,212 216,211 216,211 C 163,247 136,265 136,265 C 139,267 141,269 141,269 C 127,293 119,306 119,306 C 116,342 115,360 115,360 C 158,376 196,391 229,403 L 222,446 L 112,404 L 109,472 L 47,476 L 0,446 L 8,392 L 9,372 L 22,304 L 21,259 L 34,249 L 77,252 L 106,236 L 113,242 L 199,186 L 198,185 L 209,177 L 213,183 L 216,178 L 228,174 L 223,168 L 235,160 L 237,162 L 345,90 L 201,91 L 201,87 L 182,86 L 182,91 L 175,87 L 167,188 C 164,190 162,191 162,191 L 94,187 C 87,180 83,177 83,177 C 89,109 91,74 91,74 C 91,74 90,74 90,74 C 82,140 78,173 78,173 C 68,176 64,177 64,177 C 76,84 82,37 82,37 C 90,37 94,37 94,37 C 95,31 123,30 178,33 L 191,49 L 302,49 C 343,32 365,25 369,28 Z" fill="#150D1B" id="id-54017"></path><path d=" M 391,228 L 326,235 C 296,238 281,239 281,239 L 287,66 L 416,159 L 391,228 Z" fill="#09140B" fill-opacity="0.700" id="id-54018"></path><path d=" M 95,34 C 94,36 94,37 94,37 C 82,38 71,38 61,35 C 61,33 61,29 67,29 C 77,30 95,34 95,34 Z" fill="#6C94D2" id="id-54019"></path><path d=" M 182,87 C 186,88 188,88 188,88 C 177,156 172,190 172,190 C 167,193 165,195 165,195 C 139,197 127,198 127,198 L 92,187 L 162,191 L 167,188 L 175,87 L 182,91 L 182,87 Z" fill="#352202" id="id-54020"></path><path d=" M 45,166 C 51,171 57,175 64,176 L 82,37 L 61,35 C 54,90 49,134 45,166 Z" fill="#354E76" id="id-54021"></path><path d=" M 43,164 C 42,164 41,166 40,170 L 44,180 L 58,188 C 71,186 78,186 78,186 C 79,177 79,172 79,172 L 64,176 C 58,174 51,170 43,164 Z" fill="#D36300" id="id-54022"></path><path d=" M 60,101 C 57,131 55,147 55,147 C 59,149 60,150 60,150 L 66,103 C 62,102 60,101 60,101 Z" fill="#06D979" id="id-54023"></path><path d=" M 55,92 C 54,96 53,98 53,98 C 64,101 70,103 70,103 C 80,99 85,98 85,98 L 73,100 C 61,95 55,92 55,92 Z" fill="#6A92D0" id="id-54024"></path><path d=" M 70,33 C 76,39 79,42 79,42 L 89,35 C 77,33 70,33 70,33 Z" fill="#B6DDFC" id="id-54025"></path><path d=" M 84,178 C 85,179 86,180 86,180 L 157,184 L 168,26 L 95,24 C 88,127 84,178 84,178 Z" fill="#2C293C" id="id-54026"></path><path d=" M 84,171 C 97,164 104,160 104,160 C 127,161 139,161 139,161 C 152,172 158,178 158,178 C 159,169 160,164 160,164 C 149,157 143,154 143,154 C 145,122 146,105 146,105 C 157,98 163,94 163,94 C 162,91 161,90 161,90 C 164,47 166,26 166,26 C 119,25 96,24 96,24 C 93,67 91,89 91,89 C 92,89 93,89 93,89 C 103,100 108,106 108,106 C 106,136 104,151 104,151 L 85,161 C 84,168 84,171 84,171 Z" fill="#D76801" id="id-54027"></path><path d=" M 126,97 C 129,97 130,97 130,97 C 144,84 151,77 151,77 C 153,43 154,26 154,26 C 121,25 105,24 105,24 L 101,71 C 118,88 126,97 126,97 Z" fill="#2B283B" id="id-54028"></path><path d=" M 106,69 C 135,74 150,76 150,76 C 151,49 152,36 152,36 L 109,33 C 107,57 106,69 106,69 Z" fill="#3D415E" id="id-54029"></path><path d=" M 109,35 C 109,39 109,42 109,42 C 138,42 152,43 152,43 L 150,34 C 122,35 109,35 109,35 Z" fill="#04E279" id="id-54030"></path><path d=" M 118,80 C 121,79 138,81 138,81 L 127,90 C 123,85 120,81 118,80 Z" fill="#04E279" id="id-54031"></path><path d=" M 114,100 C 113,118 113,127 113,127 C 130,127 138,127 138,127 C 140,109 140,100 140,100 L 124,110 C 118,103 114,100 114,100 Z" fill="#7D461F" id="id-54032"></path><path d=" M 161,95 C 163,95 165,95 165,95 C 171,98 175,100 175,100 C 177,55 178,33 178,33 L 167,26 L 166,26 L 161,90 L 163,94 C 162,95 161,95 161,95 Z" fill="#872800" id="id-54033"></path><path d=" M 2,447 L 0,446 L 8,392 C 8,384 8,381 8,381 C 58,382 83,383 83,383 C 84,380 84,378 84,378 C 90,354 93,342 93,342 L 87,449 L 2,447 Z" fill="#1D2B4F" id="id-54034"></path><path d=" M 42,393 C 52,393 57,393 57,393 L 41,407 C 42,397 42,393 42,393 Z" fill="#9399A7" id="id-54035"></path><path d=" M 47,415 C 55,424 59,429 59,429 L 60,401 C 51,410 47,415 47,415 Z" fill="#D76801" id="id-54036"></path><path d=" M 417,137 C 417,116 418,105 418,105 C 400,93 391,86 391,86 L 361,14 L 317,10 L 313,59 L 314,89 L 306,124 L 307,133 L 412,138 C 415,137 417,137 417,137 Z" fill="#3B3B23" id="id-54037"></path><path d=" M 38,436 C 38,439 38,441 38,441 C 63,442 76,442 76,442 C 77,415 77,401 77,401 C 78,395 79,393 79,393 C 75,392 73,392 73,392 L 72,437 C 50,437 38,436 38,436 Z" fill="#9399A7" id="id-54038"></path><path d=" M 2,371 C 7,372 9,373 9,373 C 56,375 80,376 80,376 C 87,332 90,311 90,311 C 38,310 12,310 12,310 L 12,319 C 5,354 2,371 2,371 Z" fill="#1E2541" id="id-54039"></path><path d=" M 12,310 C 16,307 20,305 22,304 C 64,310 99,304 99,304 L 88,311 C 37,310 12,310 12,310 Z" fill="#555C79" id="id-54040"></path><path d=" M 64,363 C 64,366 64,368 64,368 C 27,366 9,365 9,365 L 12,361 C 47,363 64,363 64,363 Z" fill="#9D0201" id="id-54041"></path><path d=" M 79,258 C 77,257 76,257 76,257 C 95,244 105,237 105,237 C 128,259 139,270 139,270 L 106,242 C 88,253 79,258 79,258 Z" fill="#1B2C51" id="id-54042"></path><path d=" M 148,222 C 162,234 170,240 170,240 C 188,228 197,222 197,222 L 173,206 C 156,217 148,222 148,222 Z" fill="#1A2C52" id="id-54043"></path><path d=" M 216,211 C 223,207 226,205 226,205 L 210,182 L 201,188 C 211,203 216,211 216,211 Z" fill="#3F4754" id="id-54044"></path><path d=" M 199,185 C 201,187 201,188 201,188 C 207,183 210,181 210,181 L 208,178 C 202,183 199,185 199,185 Z" fill="#6584BA" id="id-54045"></path><path d=" M 213,187 C 215,181 216,179 216,179 C 224,176 229,175 229,175 C 235,183 238,188 238,188 C 237,193 236,195 236,195 C 228,198 223,200 223,200 L 228,205 L 226,205 C 218,193 213,187 213,187 Z" fill="#383A47" id="id-54046"></path><path d=" M 291,224 C 370,227 410,229 410,229 C 416,226 419,224 419,224 C 412,223 408,222 408,222 C 412,213 413,209 413,209 C 414,207 414,205 414,205 L 417,137 C 414,137 412,138 412,138 C 342,135 307,133 307,133 C 306,127 306,124 306,124 L 311,102 C 313,93 314,89 314,89 C 313,69 313,59 313,59 C 316,26 317,10 317,10 C 312,8 310,7 310,7 L 305,10 L 299,99 L 292,133 C 289,153 287,163 287,163 L 294,159 L 294,164 L 291,191 C 291,213 291,224 291,224 Z" fill="#0A150A" id="id-54047"></path><path d=" M 234,162 C 248,178 255,187 255,187 L 244,195 L 224,169 C 231,164 234,162 234,162 Z" fill="#3F4754" id="id-54048"></path><path d=" M 216,179 C 216,180 216,181 216,181 C 223,179 226,177 226,177 L 227,175 C 220,177 216,179 216,179 Z" fill="#6584BA" id="id-54049"></path><path d=" M 224,169 C 231,164 234,162 234,162 C 236,163 237,164 237,164 L 226,171 C 225,170 224,169 224,169 Z" fill="#6584BA" id="id-54050"></path><path d=" M 254,153 C 257,172 258,181 258,181 C 256,183 254,184 254,184 L 238,163 C 249,156 254,153 254,153 Z" fill="#1D213A" id="id-54051"></path><path d=" M 283,200 C 287,201 288,201 288,201 C 290,173 291,159 291,159 C 286,161 284,162 284,162 L 285,164 C 284,188 283,200 283,200 Z" fill="#3B3B23" id="id-54052"></path><path d=" M 294,104 C 290,99 288,97 288,97 L 291,62 L 297,61 C 295,90 294,104 294,104 Z" fill="#3C3C22" id="id-54053"></path><path d=" M 289,191 C 290,173 290,164 290,164 C 293,164 294,164 294,164 C 294,165 294,165 294,165 C 372,167 411,167 411,167 L 409,196 C 329,193 289,191 289,191 Z" fill="#575637" id="id-54054"></path><path d=" M 303,168 C 303,170 302,178 301,192 L 409,196 L 411,171 C 360,168 324,167 303,168 Z" fill="url(#id-54013)" id="id-54055"></path><path d=" M 304,199 C 303,210 303,215 303,215 C 373,220 408,222 408,222 C 412,213 413,209 413,209 L 409,200 C 339,200 304,199 304,199 Z" fill="#3B3B23" id="id-54056"></path><path d=" M 305,133 C 304,149 304,156 304,156 C 375,160 411,162 411,162 L 412,138 C 341,135 305,133 305,133 Z" fill="url(#id-54014)" id="id-54057"></path><path d=" M 295,123 C 360,126 392,128 392,128 C 392,113 393,106 393,106 C 336,103 308,102 308,102 C 302,100 299,99 299,99 C 299,98 299,97 299,97 L 295,97 C 295,115 295,123 295,123 Z" fill="#575637" id="id-54058"></path><path d=" M 308,102 C 307,116 306,124 306,124 L 349,126 C 343,122 340,121 340,121 L 355,104 L 308,102 Z" fill="#938E5F" id="id-54059"></path><path d=" M 298,58 C 297,79 296,89 296,89 C 346,92 371,93 371,93 C 372,74 372,64 372,64 C 360,64 354,63 354,63 C 344,71 338,75 338,75 L 322,60 C 306,58 298,58 298,58 Z" fill="#575637" id="id-54060"></path><path d=" M 310,59 L 308,89 L 371,93 L 372,64 L 354,63 L 338,75 L 322,60 C 314,59 310,59 310,59 Z" fill="#878357" id="id-54061"></path><path d=" M 340,68 C 347,67 359,58 359,58 C 358,27 358,11 358,11 C 355,6 354,4 354,4 C 329,2 316,0 316,0 C 312,6 309,8 309,8 C 320,10 325,11 325,11 L 323,54 C 331,61 336,66 340,68 Z" fill="#908C5F" id="id-54062"></path><path d=" M 329,52 C 336,59 340,63 340,63 C 348,57 352,55 352,55 L 340,40 C 333,48 329,52 329,52 Z" fill="#0D190D" id="id-54063"></path><polygon points="311 9 317 2 324 3 324 11 325 11 325 24 319 10" fill="#383C23" id="id-54064"></polygon><path d=" M 281,227 C 281,235 281,239 281,239 C 311,236 326,235 326,235 C 332,229 334,226 334,226 L 291,224 C 284,226 281,227 281,227 Z" fill="#0A110A" id="id-54065"></path><path d=" M 201,91 C 201,83 201,77 201,73 C 225,76 246,69 264,52 C 266,57 265,70 263,91 C 253,91 232,91 201,91 Z" fill="#2D2C39" id="id-54066"></path><path d=" M 261,61 L 265,61 L 265,65 L 281,76 C 291,66 297,61 297,61 C 295,84 294,95 294,95 C 281,98 274,99 274,99 C 276,139 277,158 277,158 C 278,158 279,158 279,158 C 284,161 286,163 286,163 C 284,188 283,201 283,201 L 271,201 C 271,181 270,163 267,147 C 265,119 263,90 261,61 Z" fill="#575637" id="id-54067"></path><polygon points="201 48 201 89 203 90 203 50 271 49 271 48" fill="#3C4351" id="id-54068"></polygon><path d=" M 266,53 C 284,51 292,50 292,50 L 266,48 L 266,53 Z" fill="#9A9CC5" id="id-54069"></path><path d=" M 255,62 C 254,83 253,93 253,93 C 249,93 247,93 247,93 C 256,167 261,205 261,205 C 278,217 287,223 287,223 C 287,208 287,201 287,201 L 265,200 C 259,108 255,62 255,62 Z" fill="#362916" fill-opacity="0.800" id="id-54070"></path><path d=" M 292,133 L 293,157 L 304,156 L 305,133 C 297,133 292,133 292,133 Z" fill="#575637" id="id-54071"></path><path d=" M 408,222 L 419,224 C 425,145 428,106 428,106 C 405,91 394,84 394,84 C 373,37 362,14 362,14 L 360,14 L 362,17 L 391,86 L 418,105 L 414,205 L 413,209 L 408,222 Z" fill="#7B7853" id="id-54072"></path><path d=" M 392,66 C 391,68 391,70 390,73 L 397,71 L 405,73 C 408,71 412,69 416,67 C 420,70 426,69 433,67 L 436,59 C 434,59 432,61 429,63 C 425,64 418,62 418,62 L 406,67 C 402,66 397,66 392,66 Z" fill="#2C2839" id="id-54073"></path><path d=" M 450,69 C 451,69 453,67 455,64 L 451,60 L 443,57 L 439,63 C 444,63 447,65 450,69 Z" fill="#2C293C" id="id-54074"></path><path d=" M 452,18 C 446,19 443,19 443,19 C 443,38 442,48 442,48 C 450,49 454,50 454,50 C 454,33 454,24 454,24 C 450,24 448,24 448,24 L 453,22 C 453,19 452,18 452,18 Z" fill="#606489" id="id-54075"></path><path d=" M 443,31 L 454,31 L 454,24 L 448,24 C 451,22 453,22 453,22 C 453,21 453,21 453,21 L 443,21 C 443,28 443,31 443,31 Z" fill="#9C9EC7" id="id-54076"></path><path d=" M 387,61 L 440,57 L 440,13 L 421,14 C 390,28 372,33 369,28 C 373,36 379,47 387,61 Z" fill="url(#id-54015)" id="id-54077"></path><path d=" M 79,172 C 78,181 78,186 78,186 L 60,188 L 61,175 L 64,176 L 79,172 Z" fill="#872800" id="id-54078"></path><path d=" M 366,22 C 366,21 367,23 371,27 L 378,29 L 421,13 L 437,13 C 426,14 421,14 421,14 C 396,25 380,31 372,30 C 371,30 369,30 366,22 Z" fill="#9A9CC8" id="id-54079"></path><path d=" M 273,99 C 288,97 295,95 295,95 C 291,138 290,159 290,159 C 286,161 284,162 284,162 C 281,160 279,158 279,158 L 277,158 C 274,119 273,99 273,99 Z" fill="#88855A" id="id-54080"></path><path d=" M 141,413 C 159,420 169,423 183,428 C 178,407 188,390 188,390 L 148,373 C 150,383 148,396 141,413 Z" fill="#1D213A" id="id-54081"></path><path d=" M 262,61 C 267,120 271,167 272,201 C 269,201 266,201 266,201 C 259,131 257,88 257,70 C 258,66 258,63 258,61 C 261,61 262,61 262,61 Z" fill="#878457" id="id-54082"></path><path d=" M 160,164 C 159,174 158,179 158,179 C 165,180 168,180 168,180 L 169,165 C 163,165 160,164 160,164 Z" fill="#872800" id="id-54083"></path></g><defs><linearGradient x1="48%" y1="29%" x2="82%" y2="95%" id="id-62451"><stop stop-color="#495C89" offset="0%"></stop><stop stop-color="#1E1A49" offset="47%"></stop><stop stop-color="#161339" offset="100%"></stop></linearGradient><linearGradient x1="55%" y1="86%" x2="55%" y2="12%" id="id-62452"><stop stop-color="#8D87B8" offset="0%"></stop><stop stop-color="#544F82" offset="100%"></stop></linearGradient></defs><g transform=" translate(572,332)" id="id-62453"><path d=" M 92,0 C 169,0 180,63 175,119 C 172,148 166,175 162,191 C 162,191 162,191 162,191 L 135,191 L 97,148 L 79,148 L 44,195 L 17,195 C 17,195 17,195 17,195 C 10,165 4,143 3,130 C -8,44 22,0 92,0 Z M 145,88 C 145,88 112,98 106,109 C 102,116 100,124 101,132 C 101,132 109,142 118,151 L 119,152 C 125,159 130,165 134,168 L 134,169 C 136,171 137,171 137,172 C 138,172 140,172 141,172 L 141,172 L 150,170 C 156,158 160,144 160,130 C 160,109 145,88 145,88 Z M 34,83 C 34,83 28,90 21,102 C 14,112 11,124 11,136 L 11,136 L 13,149 L 40,170 L 74,132 L 75,131 L 75,131 L 75,131 C 75,131 73,125 72,119 L 71,118 C 70,113 69,108 69,107 C 68,103 56,95 55,94 L 55,94 Z" fill="url(#id-62451)" id="id-62454"></path><path d=" M 56,152 L 67,164 L 79,148 L 97,148 L 108,161 L 120,153 L 101,132 C 101,127 101,122 102,118 C 103,114 105,110 107,107 L 88,98 L 69,107 L 71,115 L 75,131 L 74,132 L 56,152 Z" fill="url(#id-62452)" opacity="0.339" id="id-62455"></path></g><defs><linearGradient x1="50%" y1="0%" x2="47%" y2="77%" id="id-63557"><stop stop-color="#D9C9DF" offset="0%"></stop><stop stop-color="#ECDEED" offset="100%"></stop></linearGradient><linearGradient x1="50%" y1="0%" x2="45%" y2="77%" id="id-63558"><stop stop-color="#D9C9DF" offset="0%"></stop><stop stop-color="#ECDEED" offset="100%"></stop></linearGradient></defs><g transform=" translate(559,285)" id="id-63559"><path d=" M 33,194 C 41,169 88,116 93,105 C 86,143 87,170 95,186 L 112,98 C 132,122 148,146 160,170 C 160,160 160,153 160,149 L 173,170 L 175,162 L 183,191 L 183,158 L 152,83 L 80,96 C 49,136 33,169 33,194 Z" fill="#000000" opacity="0.298" id="id-63560"></path><path d=" M 22,208 C 16,179 17,165 9,160 C 14,132 8,117 5,103 C 26,73 60,48 106,29 L 115,35 L 124,22 C 129,19 133,18 134,17 C 131,21 128,27 125,34 L 135,28 C 174,63 193,108 193,162 C 190,163 189,165 188,169 C 186,186 184,197 183,202 C 184,187 182,170 178,150 L 121,91 L 89,118 C 39,121 17,151 22,208 Z" fill="#A49ABD" id="id-63561"></path><path d=" M 58,274 C 41,244 32,217 31,193 C 40,169 56,146 80,123 C 57,137 37,156 20,182 L 7,112 C 13,100 20,90 27,83 C 24,86 17,94 5,106 C 2,94 1,87 0,85 C 35,35 71,30 105,29 C 108,31 113,38 119,51 L 112,63 L 119,61 L 118,77 L 92,114 L 118,90 L 120,92 C 119,95 119,98 118,100 C 83,160 38,198 58,274 Z" fill="url(#id-63557)" id="id-63562"></path><path d=" M 173,176 C 175,168 183,155 198,137 C 194,120 191,110 189,105 C 191,105 196,113 204,128 L 211,105 C 192,69 168,43 138,28 C 138,28 137,28 135,28 L 136,30 C 129,34 125,39 121,44 C 121,47 122,50 123,54 L 143,55 L 124,60 L 132,82 L 123,82 C 121,86 121,89 123,91 C 156,132 166,124 173,176 Z" fill="url(#id-63558)" id="id-63563"></path><path d=" M 95,207 C 92,158 98,122 113,100 C 117,96 119,96 118,100 C 110,147 95,173 95,207 Z" fill="#FFFAFF" id="id-63564"></path><path d=" M 47,148 L 95,96 C 86,98 76,103 62,111 C 63,109 76,100 100,85 L 79,91 L 97,82 L 95,79 L 84,79 L 98,76 L 97,53 C 83,54 71,56 63,60 C 68,56 80,53 98,50 C 98,42 99,35 100,29 C 82,31 42,36 21,80 C 29,78 40,75 43,74 C 54,89 56,113 47,148 Z" fill="#FFFAFF" id="id-63565"></path><path d=" M 120,91 C 151,132 166,179 165,231 C 166,222 171,182 159,132 C 168,141 173,175 173,175 C 174,172 175,168 176,165 C 172,146 164,129 164,129 C 175,125 182,115 185,99 C 184,97 163,71 163,71 C 174,79 179,83 179,83 C 181,69 182,62 182,62 C 175,54 167,47 159,41 C 158,52 157,58 157,58 C 153,54 151,52 151,52 C 147,77 141,93 135,101 C 128,95 120,91 120,91 Z" fill="#FFFAFF" id="id-63566"></path><path d=" M 49,158 C 56,160 61,170 64,188 C 69,178 74,169 79,160 C 72,157 68,149 67,136 C 59,144 53,152 49,158 Z" fill="#FFFAFF" id="id-63567"></path><path d=" M 154,0 C 150,2 142,7 129,14 L 123,23 L 132,19 C 137,14 145,7 154,0 Z" fill="#E0D1E7" id="id-63568"></path><polygon points="88 14 115 35 118 32 113 21" fill="#FDF6FE" id="id-63569"></polygon></g><defs></defs><g transform=" translate(1199,1639)" fill="#343D53" opacity="0.297" id="id-77036"><path d=" M 22,0 L 27,0 L 27,6 L 22,6 C 18,6 14,8 11,11 C 8,14 6,18 6,22 L 6,27 L 0,27 L 0,22 C 0,16 2,10 6,6 C 10,2 16,0 22,0 L 22,0 Z M 48,0 L 53,0 C 59,0 65,2 69,6 C 72,10 75,16 75,22 L 75,27 L 69,27 L 69,22 C 69,18 67,14 64,11 C 61,8 57,6 53,6 L 48,6 L 48,0 L 48,0 Z M 75,48 L 75,53 C 75,59 72,65 69,69 C 65,72 59,75 53,75 L 48,75 L 48,69 L 53,69 C 57,69 61,67 64,64 C 67,61 69,57 69,53 L 69,48 L 75,48 L 75,48 Z M 27,75 L 22,75 C 16,75 10,72 6,69 C 2,65 0,59 0,53 L 0,48 L 6,48 L 6,53 C 6,57 8,61 11,64 C 14,67 18,69 22,69 L 27,69 L 27,75 L 27,75 Z" id="id-77037" fill-rule="nonzero"></path><path d=" M 11,40 L 11,34 L 21,34 C 22,28 28,22 34,21 L 34,11 L 40,11 L 40,21 C 47,22 53,28 54,34 L 64,34 L 64,40 L 54,40 C 53,47 47,53 40,54 L 40,64 L 34,64 L 34,54 C 28,53 22,47 21,40 L 11,40 Z M 27,34 L 34,34 L 34,27 C 31,28 28,31 27,34 Z M 40,27 L 40,34 L 48,34 C 47,31 44,28 40,27 Z M 48,40 L 40,40 L 40,48 C 44,47 47,44 48,40 Z M 34,48 L 34,40 L 27,40 C 28,44 31,47 34,48 Z" id="id-77037"></path></g></svg>