<?xml version="1.0" encoding="UTF-8"?><svg width="1320px" height="1760px" viewBox="0 0 1320 1760" version="1.1" xmlns="http://www.w3.org/2000/svg" xmlns:xlink="http://www.w3.org/1999/xlink"><defs><linearGradient x1="50%" y1="7%" x2="50%" y2="83%" id="id-30075"><stop stop-color="#1D7C46" offset="0%"></stop><stop stop-color="#151917" offset="100%"></stop></linearGradient></defs><g stroke="none" stroke-width="1" fill="none" id="id-30076" fill-rule="evenodd"><g id="id-30077"><rect fill="#242B27" width="1320" height="1760" x="0" y="0" id="id-30078"></rect><rect stroke="#00FF6F" stroke-width="26" fill="#242B27" width="1219" height="1644" x="51" y="58" id="id-30078"></rect><rect stroke="#00FF6F" stroke-width="53" fill="url(#id-30075)" width="1145" height="1572" x="89" y="94" id="id-30078" rx="107"></rect></g></g><defs><linearGradient x1="100%" y1="46%" x2="12%" y2="47%" id="id-74288"><stop stop-color="#DB8D73" offset="0%"></stop><stop stop-color="#E89D89" offset="21%"></stop><stop stop-color="#E6B4B1" offset="46%"></stop><stop stop-color="#EBA18D" offset="80%"></stop><stop stop-color="#DF9889" offset="100%"></stop></linearGradient><linearGradient x1="53%" y1="81%" x2="50%" y2="21%" id="id-74289"><stop stop-color="#CD6E5C" offset="0%"></stop><stop stop-color="#DE7964" offset="24%"></stop><stop stop-color="#DC937A" offset="100%"></stop></linearGradient><linearGradient x1="52%" y1="-4%" x2="46%" y2="70%" id="id-74290"><stop stop-color="#CE6657" offset="0%"></stop><stop stop-color="#8D4137" offset="100%"></stop></linearGradient><linearGradient x1="46%" y1="43%" x2="15%" y2="43%" id="id-74291"><stop stop-color="#DE8D7D" offset="0%"></stop><stop stop-color="#C77052" offset="100%"></stop></linearGradient><linearGradient x1="54%" y1="37%" x2="12%" y2="72%" id="id-74292"><stop stop-color="#3C050A" offset="0%"></stop><stop stop-color="#AF623E" offset="100%"></stop></linearGradient><linearGradient x1="40%" y1="14%" x2="61%" y2="85%" id="id-74293"><stop stop-color="#541C19" offset="0%"></stop><stop stop-color="#7A302C" offset="100%"></stop></linearGradient><linearGradient x1="27%" y1="47%" x2="91%" y2="49%" id="id-74294"><stop stop-color="#D08973" offset="0%"></stop><stop stop-color="#FED3FF" offset="100%"></stop></linearGradient><linearGradient x1="47%" y1="60%" x2="49%" y2="79%" id="id-74295"><stop stop-color="#E2927A" offset="0%"></stop><stop stop-color="#D97D68" offset="60%"></stop><stop stop-color="#E48E97" offset="100%"></stop></linearGradient><linearGradient x1="29%" y1="56%" x2="69%" y2="53%" id="id-74296"><stop stop-color="#D4896F" offset="0%"></stop><stop stop-color="#CE7358" offset="8%"></stop><stop stop-color="#D67B64" offset="18%"></stop><stop stop-color="#D87862" offset="38%"></stop><stop stop-color="#CC6958" offset="65%"></stop><stop stop-color="#BF6D4C" offset="81%"></stop><stop stop-color="#A95B51" offset="100%"></stop></linearGradient><linearGradient x1="47%" y1="45%" x2="54%" y2="46%" id="id-74297"><stop stop-color="#D3735F" offset="0%"></stop><stop stop-color="#BD694B" offset="62%"></stop><stop stop-color="#BA6147" offset="77%"></stop><stop stop-color="#CE8C70" offset="100%"></stop></linearGradient><linearGradient x1="51%" y1="7%" x2="50%" y2="100%" id="id-74298"><stop stop-color="#C06A4D" offset="0%"></stop><stop stop-color="#EB9F84" offset="75%"></stop><stop stop-color="#DB896B" offset="100%"></stop></linearGradient><linearGradient x1="51%" y1="11%" x2="49%" y2="93%" id="id-74299"><stop stop-color="#DF9889" offset="0%"></stop><stop stop-color="#D28264" offset="73%"></stop><stop stop-color="#DF9D81" offset="100%"></stop></linearGradient><linearGradient x1="51%" y1="-5%" x2="48%" y2="96%" id="id-74300"><stop stop-color="#DB8F75" offset="0%"></stop><stop stop-color="#C47656" offset="100%"></stop></linearGradient><linearGradient x1="50%" y1="19%" x2="50%" y2="69%" id="id-74301"><stop stop-color="#B0695C" offset="0%"></stop><stop stop-color="#74330F" offset="45%"></stop><stop stop-color="#A44E23" offset="100%"></stop></linearGradient><linearGradient x1="46%" y1="74%" x2="39%" y2="35%" id="id-74302"><stop stop-color="#AA4949" offset="0%"></stop><stop stop-color="#C46B50" offset="51%"></stop><stop stop-color="#9F3838" offset="100%" stop-opacity="0"></stop></linearGradient><linearGradient x1="46%" y1="16%" x2="49%" y2="82%" id="id-74303"><stop stop-color="#9B473D" offset="0%" stop-opacity="0.186"></stop><stop stop-color="#803921" offset="100%"></stop></linearGradient><linearGradient x1="41%" y1="19%" x2="50%" y2="100%" id="id-74304"><stop stop-color="#BB6351" offset="0%"></stop><stop stop-color="#913F35" offset="100%"></stop></linearGradient><linearGradient x1="50%" y1="31%" x2="45%" y2="50%" id="id-74305"><stop stop-color="#D78C70" offset="0%"></stop><stop stop-color="#E5A2A0" offset="100%"></stop></linearGradient><linearGradient x1="51%" y1="22%" x2="50%" y2="100%" id="id-74306"><stop stop-color="#9B4237" offset="0%"></stop><stop stop-color="#B77057" offset="100%"></stop></linearGradient><linearGradient x1="49%" y1="0%" x2="50%" y2="100%" id="id-74307"><stop stop-color="#D8886E" offset="0%"></stop><stop stop-color="#DC8270" offset="100%"></stop></linearGradient><linearGradient x1="44%" y1="15%" x2="50%" y2="100%" id="id-74308"><stop stop-color="#B45444" offset="0%"></stop><stop stop-color="#AF584E" offset="100%"></stop></linearGradient><linearGradient x1="52%" y1="21%" x2="49%" y2="83%" id="id-74309"><stop stop-color="#D7886E" offset="0%"></stop><stop stop-color="#F3A990" offset="50%"></stop><stop stop-color="#E28877" offset="100%"></stop></linearGradient><linearGradient x1="85%" y1="60%" x2="15%" y2="60%" id="id-74310"><stop stop-color="#D17F61" offset="0%"></stop><stop stop-color="#BF6F4C" offset="100%"></stop></linearGradient><linearGradient x1="48%" y1="-20%" x2="59%" y2="91%" id="id-74311"><stop stop-color="#DD9D8D" offset="0%"></stop><stop stop-color="#BF704F" offset="60%"></stop><stop stop-color="#BD6E4B" offset="72%"></stop><stop stop-color="#CB7A5B" offset="100%"></stop></linearGradient><linearGradient x1="55%" y1="48%" x2="46%" y2="33%" id="id-74312"><stop stop-color="#DB8C74" offset="0%"></stop><stop stop-color="#DC8E75" offset="86%"></stop><stop stop-color="#CF8769" offset="100%"></stop></linearGradient><linearGradient x1="50%" y1="19%" x2="50%" y2="78%" id="id-74313"><stop stop-color="#9E4B20" offset="0%"></stop><stop stop-color="#A94317" offset="50%"></stop><stop stop-color="#864421" offset="100%"></stop></linearGradient><linearGradient x1="50%" y1="11%" x2="50%" y2="43%" id="id-74314"><stop stop-color="#CA7D5F" offset="0%"></stop><stop stop-color="#C77350" offset="15%"></stop><stop stop-color="#9F564D" offset="68%"></stop><stop stop-color="#C36554" offset="100%"></stop></linearGradient><linearGradient x1="89%" y1="50%" x2="7%" y2="52%" id="id-74315"><stop stop-color="#8E433B" offset="0%"></stop><stop stop-color="#B85C4D" offset="53%" stop-opacity="0.199"></stop><stop stop-color="#9B3C25" offset="75%"></stop><stop stop-color="#8B3C36" offset="100%"></stop></linearGradient><linearGradient x1="44%" y1="70%" x2="86%" y2="30%" id="id-74316"><stop stop-color="#D78C77" offset="0%"></stop><stop stop-color="#ECB8B8" offset="100%"></stop></linearGradient><linearGradient x1="19%" y1="86%" x2="73%" y2="32%" id="id-74317"><stop stop-color="#B55C39" offset="0%"></stop><stop stop-color="#EDB2B0" offset="40%"></stop><stop stop-color="#EEBBBC" offset="100%"></stop></linearGradient><linearGradient x1="35%" y1="94%" x2="47%" y2="12%" id="id-74318"><stop stop-color="#E0A194" offset="0%"></stop><stop stop-color="#F0BCBE" offset="40%"></stop><stop stop-color="#EAB3B1" offset="100%"></stop></linearGradient><linearGradient x1="50%" y1="54%" x2="27%" y2="9%" id="id-74319"><stop stop-color="#DDAB90" offset="0%"></stop><stop stop-color="#DDAB90" offset="100%" stop-opacity="0.078"></stop></linearGradient><linearGradient x1="0%" y1="19%" x2="93%" y2="69%" id="id-74320"><stop stop-color="#E3ABA1" offset="0%"></stop><stop stop-color="#DF9D90" offset="70%"></stop><stop stop-color="#C5704E" offset="100%"></stop></linearGradient><linearGradient x1="36%" y1="84%" x2="25%" y2="44%" id="id-74321"><stop stop-color="#C96D62" offset="0%" stop-opacity="0.509"></stop><stop stop-color="#90372C" offset="35%" stop-opacity="0.675"></stop><stop stop-color="#762E17" offset="100%" stop-opacity="0"></stop></linearGradient><linearGradient x1="63%" y1="95%" x2="43%" y2="20%" id="id-74322"><stop stop-color="#C97E5C" offset="0%"></stop><stop stop-color="#E0957A" offset="46%"></stop><stop stop-color="#CC8166" offset="100%"></stop></linearGradient><linearGradient x1="40%" y1="0%" x2="50%" y2="86%" id="id-74323"><stop stop-color="#D08264" offset="0%"></stop><stop stop-color="#DB957A" offset="100%"></stop></linearGradient><linearGradient x1="50%" y1="0%" x2="50%" y2="92%" id="id-74324"><stop stop-color="#E3A3A3" offset="0%"></stop><stop stop-color="#DD977A" offset="100%"></stop></linearGradient><linearGradient x1="33%" y1="79%" x2="21%" y2="44%" id="id-74325"><stop stop-color="#BE6457" offset="0%"></stop><stop stop-color="#983F32" offset="28%" stop-opacity="0.928"></stop><stop stop-color="#762E17" offset="100%" stop-opacity="0"></stop></linearGradient><linearGradient x1="4%" y1="47%" x2="92%" y2="45%" id="id-74326"><stop stop-color="#732617" offset="0%"></stop><stop stop-color="#832E1D" offset="17%" stop-opacity="0.753"></stop><stop stop-color="#9E4B3D" offset="48%" stop-opacity="0.386"></stop><stop stop-color="#8E3D31" offset="78%" stop-opacity="0.762"></stop><stop stop-color="#823328" offset="100%"></stop></linearGradient><linearGradient x1="60%" y1="45%" x2="67%" y2="53%" id="id-74327"><stop stop-color="#F3B5BB" offset="0%"></stop><stop stop-color="#FECCF2" offset="100%"></stop></linearGradient><linearGradient x1="48%" y1="15%" x2="54%" y2="81%" id="id-74328"><stop stop-color="#D99776" offset="0%" stop-opacity="0.400"></stop><stop stop-color="#E6A382" offset="100%"></stop></linearGradient><linearGradient x1="47%" y1="44%" x2="50%" y2="61%" id="id-74329"><stop stop-color="#94412F" offset="0%" stop-opacity="0.175"></stop><stop stop-color="#611C1B" offset="100%"></stop></linearGradient><linearGradient x1="26%" y1="-7%" x2="50%" y2="96%" id="id-74330"><stop stop-color="#37373F" offset="0%"></stop><stop stop-color="#19191D" offset="100%"></stop></linearGradient><linearGradient x1="50%" y1="12%" x2="59%" y2="82%" id="id-74331"><stop stop-color="#252525" offset="0%"></stop><stop stop-color="#101010" offset="100%"></stop></linearGradient><linearGradient x1="25%" y1="-16%" x2="50%" y2="98%" id="id-74332"><stop stop-color="#37373F" offset="0%"></stop><stop stop-color="#19191D" offset="100%"></stop></linearGradient><linearGradient x1="75%" y1="39%" x2="50%" y2="93%" id="id-74333"><stop stop-color="#252525" offset="0%"></stop><stop stop-color="#000000" offset="100%"></stop></linearGradient></defs><g transform=" translate(334,549)" id="id-74334"><polygon points="561 754 565 871 565 881 537 893 533 897 535 901 532 909 543 910 597 864" fill="#551415" id="id-74335"></polygon><polygon points="537 282 539 246 535 195 529 158 522 137 484 118 440 111 212 111 188 113 157 123 121 139 111 186 108 221 109 290" fill="url(#id-74288)" id="id-74335"></polygon><polygon points="467 393 474 506 503 589 537 672 556 728 561 754 546 794 552 851 551 861 552 874 556 885 567 882 568 866 570 860 570 843 571 834 576 843 576 859 579 864 573 874 571 884 544 903 541 916 582 901 597 864 607 852 600 821 597 716 589 695 582 655 569 523 544 425" fill="url(#id-74289)" id="id-74335"></polygon><polygon points="546 794 552 851 551 861 552 874 556 885 567 882 568 866 570 860 570 843 571 834 576 843 576 859 579 864 573 874 571 884 544 903 541 916 582 901 597 864 583 871 588 855 573 815 561 823" fill="url(#id-74290)" id="id-74335"></polygon><polygon points="552 851 551 861 552 874 556 887 567 884 568 866 570 860 558 860" fill="#853632" id="id-74335"></polygon><polygon points="544 906 541 916 582 901 571 889" fill="#80332D" id="id-74335"></polygon><polygon points="561 754 548 789 566 819 586 806" fill="#C08175" id="id-74335"></polygon><polygon points="486 648 477 599 453 529 440 504 437 490 439 460 449 402 456 340 188 343 198 411 202 493 162 596 153 638 266 693 319 721 386 693" fill="url(#id-74291)" id="id-74335"></polygon><polygon points="486 648 477 599 453 529 440 504 437 490 439 460 449 402 456 340 296 353 376 634" fill="#D07F62" id="id-74335"></polygon><g transform=" translate(188,0)" id="id-74344"><polygon points="274 114 253 111 232 100 201 76 188 58 184 1 93 1 88 64 25 111 1 113 103 123 121 135 134 138 149 121 161 117 187 119 225 114" fill="#D48364" id="id-74335"></polygon><polygon points="201 76 188 58 185 12 175 57 155 111 185 73" fill="#E898A8" id="id-74335"></polygon><polygon points="149 1 93 1 88 64 108 126 121 135 133 138" fill="#C5785A" id="id-74335"></polygon><polygon points="116 102 120 113 118 115 136 135 150 119 164 71 125 108" fill="#B46548" id="id-74348"></polygon><polygon points="121 127 133 138 145 124" fill="#AC461F" id="id-74349"></polygon><polygon points="136 98 164 71 175 57 186 17 134 51" fill="#C8765A" id="id-74350"></polygon><polygon points="97 96 116 80 164 60 178 48 186 17 184 1 93 1 88 64 45 96" fill="#A85431" opacity="0.654" id="id-74335"></polygon><polygon points="186 17 184 1 93 1 88 64 45 96 66 96" fill="url(#id-74292)" opacity="0.467" id="id-74335"></polygon><polygon points="123 58 176 23 186 17 184 1 93 1 91 22 108 55" fill="#731511" opacity="0.434" id="id-74335"></polygon></g><polygon points="41 844 33 856 36 895 64 915 84 911 83 903 71 898 72 892 63 884 52 849" fill="url(#id-74293)" id="id-74335"></polygon><polygon points="315 152 285 173 320 188 357 166" fill="#F0BCBB" id="id-74355"></polygon><polygon points="327 150 370 130 342 127" fill="#D68A6E" id="id-74356"></polygon><polygon points="301 142 303 148 243 131 240 119 276 119" fill="#D38869" id="id-74357"></polygon><polygon points="159 149 206 123 269 123 303 144 297 118 188 113 157 123 121 139" fill="url(#id-74294)" id="id-74335"></polygon><polygon points="157 123 121 139 153 167 196 134" fill="#FCD1FB" id="id-74335"></polygon><polygon points="89 584 77 541 62 551 45 658 34 712 25 741 25 762 10 817 0 845 14 870 25 901 58 919 72 919 69 913 61 905 50 899 37 874 37 852 43 845 52 855 50 887 56 901 64 905 66 901 66 882 72 836 72 800 69 781 64 773 66 735 85 684 121 599 162 510" fill="url(#id-74295)" id="id-74335"></polygon><polygon points="89 584 77 541 62 551 45 658 48 715 121 599 162 510" fill="#D08263" id="id-74335"></polygon><polygon points="55 843 45 827 37 848 17 852 8 836 5 851 0 845 14 870 25 901 58 919 72 919 69 913 61 905 50 899 37 874 37 852 43 845 52 855 50 887 56 901 64 905 66 901 66 882 72 836" fill="#D16A58" id="id-74335"></polygon><polygon points="53 882 52 892 56 901 64 905 66 901 66 882 67 876" fill="#B24C41" id="id-74335"></polygon><polygon points="25 901 58 919 72 919 62 909 37 895" fill="#B54F44" id="id-74335"></polygon><polygon points="160 467 145 488 108 578 45 777 48 797 64 773 66 735 85 684 121 599 162 510" fill="#B86846" id="id-74335"></polygon><polygon points="169 1211 277 1211 282 1183 281 1150 284 1127 286 1114 285 1063 293 972 306 866 311 792 309 768 323 771 337 768 333 817 333 855 339 924 346 1008 348 1113 351 1130 353 1176 361 1211 461 1211 458 1191 456 1170 460 1133 461 1082 505 905 516 839 518 826 512 762 503 706 486 648 482 629 386 690 318 718 266 690 184 629 153 637 132 731 119 781 118 813 123 862 131 916 166 1094 176 1179" fill="url(#id-74296)" id="id-74335"></polygon><polygon points="463 664 416 771 400 819 392 1125 359 1178 398 1204 441 1153 461 1082 505 905 516 839 518 826 515 789 490 714" fill="url(#id-74297)" id="id-74335"></polygon><polygon points="422 1160 395 1199 365 1171 401 1149 384 1120 391 983 411 786 416 771 448 697 454 1013 445 1116 407 1149" fill="url(#id-74298)" id="id-74368"></polygon><polygon points="121 139 111 186 108 221 109 290 96 438 89 464 69 510 89 585 162 510 167 425 162 241" fill="url(#id-74299)" id="id-74335"></polygon><polygon points="101 466 103 488 106 510 160 447 179 359 164 232 187 184 186 179 132 181 161 234 161 321 149 376 151 384 123 461 114 466" fill="url(#id-74300)" id="id-74370"></polygon><polygon points="96 438 89 464 69 510 51 621 101 520 96 476" fill="#EAABB1" id="id-74335"></polygon><polygon points="96 451 128 365 134 316 121 139 111 186 108 221 109 290 96 438" fill="#BE704B" id="id-74335"></polygon><polygon points="184 241 177 248 162 225 138 289 161 321 170 375 161 420 151 411 162 510 167 425 188 343" fill="url(#id-74301)" id="id-74335"></polygon><polygon points="284 1127 286 1114 285 1063 293 972 306 866 311 792 309 768 323 771 337 768 333 817 333 855 339 924 346 1008 375 889 416 771 463 664 490 714 515 790 512 762 503 706 486 648 477 599 471 583 420 650 316 720 201 654 244 742 264 824 275 994" fill="url(#id-74302)" id="id-74335"></polygon><polygon points="298 930 306 866 311 792 309 768 323 771 337 768 333 817 333 855 336 894 347 826 360 784 378 733 388 687 321 739 254 687 267 736 291 821" fill="url(#id-74303)" id="id-74335"></polygon><polygon points="348 1093 348 1113 351 1130 353 1176 361 1211 461 1211 439 1155 422 1136 403 1148 429 1168 400 1202 370 1170 382 1125" fill="url(#id-74304)" id="id-74335"></polygon><polygon points="10 855 8 836 5 851 0 845 14 870" fill="#A64C3F" id="id-74335"></polygon><polygon points="520 500 516 520 544 629 474 500 490 399" fill="url(#id-74305)" id="id-74378"></polygon><polygon points="461 1211 458 1191 456 1170 460 1133 461 1082 439 1155 450 1211" fill="url(#id-74306)" id="id-74335"></polygon><polygon points="220 1149 259 1115 240 1063 232 973 266 819 240 713 201 661 158 650 201 784 183 925 170 1083" fill="url(#id-74307)" id="id-74380"></polygon><polygon points="169 1211 277 1211 282 1183 281 1150 284 1127 286 1114 286 1098 226 1211 207 1211 196 1121 173 1078 150 1014 166 1094 176 1179" fill="url(#id-74308)" id="id-74335"></polygon><polygon points="173 1078 183 924 150 1014" fill="#C2644D" id="id-74335"></polygon><polygon points="169 1211 239 1211 230 1196 204 1175 173 1150 176 1179" fill="#A7443E" opacity="0.574" id="id-74335"></polygon><polygon points="221 1130 240 1097 224 1063 224 983 240 804 217 698 190 668 212 771 212 910 190 998 181 1094" fill="url(#id-74309)" id="id-74380"></polygon><polygon points="217 795 221 692 200 667 169 658 200 737" fill="#EEA68B" id="id-74385"></polygon><polygon points="511 476 492 419 481 447 484 356 521 274 533 417" fill="url(#id-74310)" id="id-74386"></polygon><polygon points="569 523 544 425 542 346 537 282 539 246 535 195 529 158 522 137 494 161 419 158 471 211 516 290 525 411 511 477 518 507 535 462 562 543" fill="url(#id-74311)" id="id-74335"></polygon><polygon points="486 389 533 243 501 167 464 207 451 247 463 265" fill="url(#id-74312)" id="id-74388"></polygon><polygon points="473 490 474 506 503 589 537 672 556 728 561 754 567 712 543 623" fill="#B95C4E" id="id-74335"></polygon><polygon points="460 328 466 378 474 506 490 425 486 392 469 274 479 230 461 260 454 251" fill="url(#id-74313)" id="id-74335"></polygon><polygon points="440 504 437 490 439 460 449 402 456 340 458 328 325 282 188 343 198 411 202 493 162 596 157 621 161 633 169 599 173 570 204 506 202 458 217 402 286 365 321 352 353 360 422 402 431 493 437 520" fill="url(#id-74314)" id="id-74335"></polygon><polygon points="451 385 456 340 458 328 364 340 330 308 268 343 188 343 194 379 262 368 312 343 335 340 381 368" fill="url(#id-74315)" id="id-74335"></polygon><polygon points="286 328 306 310 330 274 453 252 464 205 421 156 317 204 219 165 210 154 188 180" fill="url(#id-74316)" id="id-74393"></polygon><path d=" M 422,195 L 405,190 C 377,190 357,198 343,214 C 329,230 322,250 323,276 C 324,301 331,320 345,333 C 365,351 384,356 405,356 C 425,356 444,347 450,342 C 454,339 457,335 460,328 C 463,323 466,317 467,308 C 469,294 466,276 457,254 L 422,195 Z" fill="url(#id-74317)" id="id-74394"></path><path d=" M 422,195 L 417,175 C 386,188 366,196 358,201 C 355,203 351,206 348,208 C 348,209 381,253 448,342 C 454,338 459,332 463,324 C 469,310 469,301 469,293 C 469,287 465,275 459,257 L 422,195 Z" fill="url(#id-74318)" id="id-74394"></path><path d=" M 375,226 C 338,253 343,276 343,284 C 343,291 353,319 371,335 C 379,342 422,349 447,331 C 468,316 472,294 458,265 C 427,221 400,208 375,226 Z" fill="url(#id-74319)" opacity="0.282" id="id-74394"></path><path d=" M 272,205 C 260,199 243,200 221,209 C 187,227 169,258 168,303 C 167,319 184,342 190,346 C 197,351 212,356 239,353 C 257,351 272,344 284,333 C 303,312 312,288 309,260 C 305,217 291,214 272,205 Z" fill="url(#id-74320)" id="id-74397"></path><path d=" M 340,285 C 333,252 328,240 326,248 C 324,254 323,263 323,276 C 324,301 331,320 345,333 C 365,351 382,356 404,356 C 425,356 444,347 450,342 C 456,337 465,325 468,308 C 472,290 465,276 463,268 C 461,263 460,259 458,255 L 442,290 L 399,304 L 366,300 L 340,285 Z" fill="url(#id-74321)" id="id-74394"></path><path d=" M 153,637 L 149,654 L 132,731 L 130,739 C 133,730 135,723 137,718 C 140,709 147,691 149,680 C 151,671 155,655 161,633 L 172,570 L 162,596 L 153,637 Z" fill="#7D362E" id="id-74335"></path><path d=" M 259,203 C 254,199 240,185 217,163 L 210,153 L 186,180 C 192,211 192,231 186,239 C 175,256 168,277 168,303 C 168,324 190,352 239,344 C 252,342 274,217 259,203 Z" fill="#E3ABA1" id="id-74397"></path><polygon points="175 565 203 550 234 558 241 520 203 455 203 507" fill="#BD6057" id="id-74401"></polygon><polygon points="241 442 241 518 229 556 233 629 266 657 316 707 381 659 395 629 364 504 350 504 301 380" fill="url(#id-74322)" id="id-74402"></polygon><polygon points="432 626 427 589 407 518 414 505 450 568 470 618" fill="url(#id-74323)" id="id-74403"></polygon><polygon points="302 376 254 442 254 546 302 590 364 568 364 504 350 504 376 454 345 400" fill="url(#id-74324)" id="id-74402"></polygon><polygon points="317 480 342 436 319 413 300 447" fill="#DE8C7A" id="id-74405"></polygon><polygon points="304 541 318 507 329 541 314 549" fill="#D07F61" id="id-74406"></polygon><polygon points="306 543 316 578 329 541" fill="#DEA68C" id="id-74407"></polygon><path d=" M 178,333 C 179,334 180,336 182,338 C 184,342 186,343 189,346 C 190,347 197,351 206,353 C 215,354 226,355 239,353 C 257,351 272,344 284,333 C 293,322 299,313 302,305 C 304,301 307,293 309,277 C 310,274 310,268 309,260 L 228,277 L 207,295 L 178,333 Z" fill="url(#id-74325)" id="id-74397"></path><polygon points="306 543 308 550 324 556 329 541" fill="#E6B8B7" id="id-74407"></polygon><polygon points="308 543 318 525 323 542 314 548" fill="#7E312C" id="id-74410"></polygon><polygon points="152 641 162 596 176 561 185 617 214 602 246 628 323 690 404 628 423 605 454 605 470 577 477 599 482 629 388 689 337 768 323 771 309 768 259 688 175 639 142 688" fill="url(#id-74326)" opacity="0.442" id="id-74411"></polygon><polygon points="490 154 522 137 484 118 412 123" fill="url(#id-74327)" id="id-74335"></polygon><polygon points="573 785 588 829 602 858 607 852 600 821 597 716 576 763" fill="#DA9E96" id="id-74335"></polygon><polygon points="574 722 589 695 582 655 533 542" fill="url(#id-74328)" id="id-74335"></polygon><polygon points="172 640 241 690 309 768 323 771 338 768 395 706 469 661 404 650 313 706 217 629" fill="url(#id-74329)" opacity="0.571" id="id-74415"></polygon><g transform=" translate(188,270)" id="id-74416"><polygon points="207 13 207 10 217 2 220 2 239 21 258 39 260 42 250 51 246 52 226 33" fill="url(#id-74330)" id="id-74417"></polygon><polygon points="208 40 218 50 222 50 240 33 257 13 257 9 247 0 244 1 230 19 209 36" fill="url(#id-74331)" id="id-74418"></polygon><polygon points="1 13 1 10 10 2 15 2 32 21 50 39 52 42 42 52 38 52 19 33" fill="url(#id-74332)" id="id-74417"></polygon><polygon points="0 43 10 53 14 53 33 35 50 15 50 11 40 3 36 4 19 23 1 39" fill="url(#id-74333)" id="id-74418"></polygon></g></g><defs><linearGradient x1="69%" y1="0%" x2="69%" y2="21%" id="id-75082"><stop stop-color="#D0A6A1" offset="0%"></stop><stop stop-color="#A36D68" offset="100%"></stop></linearGradient><radialGradient cx="50%" cy="61%" r="61%" id="id-75083" fx="50%" fy="61%" gradientTransform=" translate(0.500,0.609) scale(1,0.694) rotate(180) scale(1,1) translate(-0.500,-0.609)"><stop stop-color="#FFD2C7" offset="0%"></stop><stop stop-color="#D59785" offset="100%"></stop></radialGradient><radialGradient cx="50%" cy="74%" r="74%" id="id-75084" fx="50%" fy="74%" gradientTransform=" translate(0.500,0.744) scale(0.748,1) rotate(-90) scale(1,0.864) translate(-0.500,-0.744)"><stop stop-color="#FFD6CB" offset="0%"></stop><stop stop-color="#904840" offset="100%"></stop></radialGradient><linearGradient x1="39%" y1="37%" x2="50%" y2="61%" id="id-75085"><stop stop-color="#F7BBA7" offset="0%"></stop><stop stop-color="#D7927F" offset="100%"></stop></linearGradient><radialGradient cx="50%" cy="37%" r="75%" id="id-75086" fx="50%" fy="37%" gradientTransform=" translate(0.500,0.372) scale(0.536,1) rotate(90) scale(1,2) translate(-0.500,-0.372)"><stop stop-color="#FFC3B4" offset="0%"></stop><stop stop-color="#D07F6B" offset="100%"></stop></radialGradient><radialGradient cx="52%" cy="68%" r="169%" id="id-75087" fx="52%" fy="68%" gradientTransform=" translate(0.522,0.681) scale(1,0.367) rotate(-105) translate(-0.522,-0.681)"><stop stop-color="#DC9886" offset="0%"></stop><stop stop-color="#B25245" offset="100%"></stop></radialGradient><linearGradient x1="29%" y1="57%" x2="32%" y2="48%" id="id-75088"><stop stop-color="#D5857C" offset="0%"></stop><stop stop-color="#B25245" offset="100%"></stop></linearGradient><linearGradient x1="58%" y1="63%" x2="50%" y2="65%" id="id-75089"><stop stop-color="#90433D" offset="0%"></stop><stop stop-color="#BF8075" offset="100%"></stop></linearGradient><linearGradient x1="91%" y1="62%" x2="50%" y2="78%" id="id-75090"><stop stop-color="#8D443F" offset="0%"></stop><stop stop-color="#CB7966" offset="100%"></stop></linearGradient><linearGradient x1="39%" y1="5%" x2="39%" y2="73%" id="id-75091"><stop stop-color="#9F6A88" offset="0%"></stop><stop stop-color="#AB8495" offset="100%"></stop></linearGradient><linearGradient x1="28%" y1="92%" x2="75%" y2="13%" id="id-75092"><stop stop-color="#EBB5A7" offset="0%"></stop><stop stop-color="#DC8972" offset="100%"></stop></linearGradient><linearGradient x1="50%" y1="0%" x2="50%" y2="100%" id="id-75093"><stop stop-color="#DB767B" offset="0%"></stop><stop stop-color="#CF555F" offset="100%"></stop></linearGradient><linearGradient x1="50%" y1="20%" x2="50%" y2="100%" id="id-75094"><stop stop-color="#F89090" offset="0%"></stop><stop stop-color="#CF535C" offset="100%"></stop></linearGradient><linearGradient x1="50%" y1="50%" x2="50%" y2="100%" id="id-75095"><stop stop-color="#AD3641" offset="0%"></stop><stop stop-color="#A94A53" offset="100%"></stop></linearGradient><linearGradient x1="50%" y1="0%" x2="50%" y2="100%" id="id-75096"><stop stop-color="#CC6767" offset="0%"></stop><stop stop-color="#D48080" offset="100%"></stop></linearGradient><linearGradient x1="64%" y1="50%" x2="0%" y2="62%" id="id-75097"><stop stop-color="#77342F" offset="0%"></stop><stop stop-color="#A84D49" offset="100%"></stop></linearGradient><linearGradient x1="38%" y1="42%" x2="90%" y2="68%" id="id-75098"><stop stop-color="#985348" offset="0%"></stop><stop stop-color="#6A2823" offset="66%"></stop><stop stop-color="#8D3D37" offset="100%"></stop></linearGradient><linearGradient x1="22%" y1="53%" x2="78%" y2="47%" id="id-75099"><stop stop-color="#B45B48" offset="0%"></stop><stop stop-color="#460C0F" offset="100%"></stop></linearGradient><linearGradient x1="23%" y1="50%" x2="73%" y2="55%" id="id-75100"><stop stop-color="#51080D" offset="0%"></stop><stop stop-color="#AE4339" offset="100%"></stop></linearGradient><linearGradient x1="50%" y1="14%" x2="50%" y2="125%" id="id-75101"><stop stop-color="#E49E8B" offset="0%"></stop><stop stop-color="#AD4E3E" offset="100%"></stop></linearGradient><linearGradient x1="50%" y1="0%" x2="50%" y2="100%" id="id-75102"><stop stop-color="#DE8F7C" offset="0%"></stop><stop stop-color="#D99380" offset="100%"></stop></linearGradient><linearGradient x1="50%" y1="34%" x2="50%" y2="100%" id="id-75103"><stop stop-color="#DE8F7C" offset="0%"></stop><stop stop-color="#F6AA9D" offset="100%"></stop></linearGradient><linearGradient x1="0%" y1="50%" x2="87%" y2="50%" id="id-75104"><stop stop-color="#EFA695" offset="0%"></stop><stop stop-color="#FDCAC0" offset="50%"></stop><stop stop-color="#F7B5A2" offset="100%"></stop></linearGradient><linearGradient x1="83%" y1="50%" x2="22%" y2="56%" id="id-75105"><stop stop-color="#C27064" offset="0%"></stop><stop stop-color="#B75149" offset="100%"></stop></linearGradient><linearGradient x1="44%" y1="47%" x2="50%" y2="60%" id="id-75106"><stop stop-color="#6C0808" offset="0%"></stop><stop stop-color="#4F0000" offset="100%"></stop></linearGradient><linearGradient x1="44%" y1="45%" x2="50%" y2="67%" id="id-75107"><stop stop-color="#6C0808" offset="0%"></stop><stop stop-color="#4F0000" offset="100%"></stop></linearGradient><linearGradient x1="59%" y1="53%" x2="79%" y2="50%" id="id-75108"><stop stop-color="#DB8075" offset="0%"></stop><stop stop-color="#76191F" offset="100%"></stop></linearGradient><linearGradient x1="66%" y1="52%" x2="50%" y2="53%" id="id-75109"><stop stop-color="#EB9F96" offset="0%"></stop><stop stop-color="#D1685E" offset="100%"></stop></linearGradient><linearGradient x1="50%" y1="56%" x2="44%" y2="48%" id="id-75110"><stop stop-color="#00AAB5" offset="0%"></stop><stop stop-color="#00717E" offset="100%"></stop></linearGradient><linearGradient x1="41%" y1="67%" x2="50%" y2="50%" id="id-75111"><stop stop-color="#00B4C0" offset="0%"></stop><stop stop-color="#007D8C" offset="100%"></stop></linearGradient></defs><g transform=" translate(561,332)" id="id-75112"><g transform=" translate(172,115)" id="id-75113"><polygon points="14 1 18 0 25 8 27 21 24 41 14 66 0 68" fill="url(#id-75082)" id="id-75114"></polygon><polygon points="12 48 19 50 23 42 26 24 20 12 12 22" fill="#9E564F" id="id-75115"></polygon><polygon points="11 21 17 10 20 5 24 7 26 24 20 36 18 31 20 16 9 29" fill="#803532" id="id-75116"></polygon><polygon points="10 28 11 38 8 45 13 49 19 38 13 24" fill="#D29290" id="id-75117"></polygon><polygon points="12 18 17 17 18 9" fill="#5E1C1D" id="id-75118"></polygon><polygon points="18 50 10 51 8 50 5 61 12 63 14 61" fill="#BF9088" id="id-75119"></polygon></g><g transform=" translate(0,113)" id="id-75120"><polygon points="13 0 5 0 0 13 4 36 13 63 25 67" fill="#BD5959" id="id-75121"></polygon><polygon points="5 9 0 13 4 36 13 63 25 67 13 24" fill="#CE8580" id="id-75121"></polygon><polygon points="18 46 14 47 7 32 11 26 4 9 6 5 16 20 17 29" fill="#F0B3BC" id="id-75123"></polygon><polygon points="13 62 20 62 18 49 11 53" fill="#DAA39A" id="id-75124"></polygon><polygon points="25 68 13 63 20 62 17 46 14 47 13 44 14 29 17 26 14 22 10 19 10 11 17 20" fill="#984446" id="id-75125"></polygon><polygon points="13 9 4 3 5 0 12 0" fill="#ED8D85" id="id-75126"></polygon></g><path d=" M 29,199 C 21,167 16,144 15,130 C 4,44 33,0 103,0 C 180,0 191,63 186,119 C 183,157 173,191 170,202 C 169,206 168,214 164,217 C 152,228 130,244 113,250 C 108,252 95,251 92,251 C 77,247 52,234 36,218 C 34,215 31,209 29,199 Z" fill="url(#id-75083)" id="id-75127"></path><polygon points="32 104 40 91 49 101 72 91 83 36 53 39 28 83" fill="#E19D89" opacity="0.497" id="id-75128"></polygon><path d=" M 15,130 C 4,44 33,0 103,0 C 180,0 191,63 186,119 L 166,114 L 161,101 L 167,68 C 159,55 158,51 147,43 C 142,40 113,40 59,43 L 31,93 L 35,103 L 24,131 L 15,130 Z" fill="url(#id-75084)" id="id-75127"></path><polygon points="28 117 28 73 69 24 134 24 172 49 172 134 132 129 124 78 141 61 105 65 61 58 45 117" fill="#D68C79" opacity="0.360" id="id-75130"></polygon><polygon points="115 32 172 49 172 75 132 70 141 61 120 63" fill="#D07B69" opacity="0.503" id="id-75130"></polygon><polygon points="42 181 65 170 128 173 155 186 137 233 51 226" fill="url(#id-75085)" id="id-75132"></polygon><polygon points="58 235 52 221 61 204 132 206 137 209 130 235 116 248 90 249" fill="url(#id-75086)" id="id-75133"></polygon><path d=" M 29,199 C 21,167 16,144 15,130 C 14,122 13,114 13,106 L 22,129 L 29,113 L 43,137 L 24,149 L 24,156 L 43,181 L 59,232 C 54,234 46,229 36,218 C 34,215 31,209 29,199 Z" fill="url(#id-75087)" id="id-75127"></path><path d=" M 59,232 C 71,240 82,245 90,246 C 98,248 109,248 121,245 C 117,248 115,249 113,250 C 108,252 95,251 92,251 C 77,247 52,234 36,218 C 34,216 32,211 30,204 C 36,212 46,222 59,232 Z" fill="url(#id-75088)" id="id-75127"></path><path d=" M 184,63 C 187,81 188,100 186,119 C 183,157 173,191 170,202 C 169,206 168,214 164,217 C 152,228 130,244 113,250 L 137,226 L 152,184 L 174,150 L 148,128 L 170,120 L 184,63 Z" fill="url(#id-75089)" id="id-75127"></path><polygon points="178 153 148 128 176 117" fill="url(#id-75090)" id="id-75127"></polygon><path d=" M 175,80 L 185,120 C 173,183 166,215 164,217 C 160,220 155,224 150,229 L 158,217 L 178,153 L 175,117 L 170,125 L 165,114 L 175,80 Z" fill="url(#id-75091)" id="id-75127"></path><polygon points="82 232 88 225 112 224 114 238 88 241" fill="#FCBDAD" id="id-75139"></polygon><polygon points="61 204 65 171 96 163 129 174 133 206" fill="#F8BBA9" id="id-75140"></polygon><polygon points="65 212 70 205 133 206 129 213 123 211 78 212" fill="#ECAFA0" id="id-75141"></polygon><polygon points="81 220 88 225 112 225 123 219 97 219" fill="#9E392F" id="id-75142"></polygon><polygon points="70 212 81 220 122 219 130 214 122 207" fill="#D29189" id="id-75143"></polygon><path d=" M 131,183 L 128,173 L 83,155 C 79,156 76,155 74,153 C 73,151 72,146 72,140 L 62,143 C 65,145 67,147 70,150 C 73,153 76,158 81,166 L 69,177 L 81,180 L 119,176 L 131,183 Z" fill="#FFD0C7" id="id-75144"></path><polygon points="31 164 67 170 43 181" fill="#FCD2C7" id="id-75145"></polygon><polygon points="91 193 95 177 102 179 101 196" fill="#ECA28E" id="id-75146"></polygon><polygon points="102 179 101 197 112 196 106 175" fill="#EBAE99" id="id-75147"></polygon><polygon points="153 141 129 161 118 136 144 145" fill="#FFCFC3" id="id-75148"></polygon><polygon points="138 153 159 136 166 143 147 164" fill="url(#id-75092)" id="id-75148"></polygon><polygon points="92 192 97 191 104 192 110 188 116 194 99 198" fill="#FFD1C9" id="id-75150"></polygon><g transform=" translate(66,192)" id="id-75151"><polygon points="2 14 11 20 60 19 68 14 67 14 21 6" fill="#65000A" id="id-75152"></polygon><path d=" M 8,18 L 20,27 C 26,28 31,29 35,29 C 38,29 44,28 51,26 L 61,18 L 52,14 L 35,16 L 17,14 L 8,18 Z" fill="url(#id-75093)" id="id-75153"></path><path d=" M 20,27 C 26,28 31,29 35,29 C 38,29 44,28 51,26 C 52,23 53,21 53,19 C 53,18 53,16 52,14 L 35,16 L 17,14 C 17,17 17,19 17,20 C 17,22 18,24 20,27 Z" fill="url(#id-75094)" id="id-75153"></path><path d=" M 2,14 C 6,15 9,15 13,14 C 18,14 19,12 22,12 C 26,12 30,13 35,13 C 39,13 42,12 46,12 C 51,12 51,14 56,14 C 59,15 63,15 67,14 C 58,6 51,1 49,1 C 45,-1 39,3 35,3 C 30,3 30,1 24,1 C 20,1 13,4 2,12 L 0,13 L 2,14 Z" fill="url(#id-75095)" id="id-75155"></path><path d=" M 19,11 C 27,8 33,7 35,7 C 39,7 43,11 48,11 C 57,11 64,12 64,11 C 56,5 51,1 49,1 C 45,-1 39,3 35,3 C 30,3 30,1 24,1 C 20,1 13,4 2,12 L 19,11 Z" fill="url(#id-75096)" id="id-75155"></path><path d=" M 19,11 C 27,8 33,7 35,7 L 35,3 C 30,3 30,1 24,1 L 19,11 Z" fill="#E97C93" id="id-75155"></path><path d=" M 19,18 C 18,18 18,19 19,22 C 22,22 23,21 27,23 C 30,24 37,24 49,22 C 36,22 26,20 19,18 Z" fill="#FC94C8" id="id-75158"></path></g><polygon points="34 132 26 124 32 113 50 105 69 114" fill="url(#id-75097)" id="id-75159"></polygon><polygon points="153 130 134 117 145 107 167 117 171 123 166 132" fill="url(#id-75098)" id="id-75160"></polygon><g transform=" translate(42,102)" id="id-75161"><path d=" M 73,31 C 80,24 87,20 94,19 C 101,19 109,21 118,26 L 113,21 L 101,15 L 108,9 L 73,13 L 67,30 L 73,31 Z" fill="url(#id-75099)" id="id-75162"></path><path d=" M 1,22 L 6,16 L 18,13 L 8,8 L 36,11 L 46,31 C 37,24 29,20 22,19 C 15,17 8,18 1,22 Z" fill="url(#id-75100)" id="id-75163"></path><polygon points="63 0 79 9 71 30 42 26 32 8" fill="url(#id-75101)" id="id-75164"></polygon><polygon points="63 0 78 8 55 28 43 26 48 15 40 6" fill="#E39B8A" id="id-75164"></polygon><path d=" M 34,69 C 35,67 35,65 36,64 C 38,59 42,56 42,53 C 43,49 44,43 44,35 L 51,24 L 64,24 L 75,32 L 75,35 L 71,34 C 71,42 71,48 72,54 C 73,57 76,59 78,62 C 79,64 79,66 80,69 L 34,69 Z" fill="url(#id-75102)" id="id-75166"></path><path d=" M 34,69 C 35,67 35,65 36,64 C 38,59 42,56 42,53 L 44,69 L 34,69 Z" fill="url(#id-75103)" id="id-75166"></path><polygon points="44 35 36 24 51 25" fill="#DB8171" id="id-75168"></polygon><polygon points="51 25 48 59 48 68 57 71 69 67 64 53 64 25" fill="url(#id-75104)" id="id-75169"></polygon><polygon points="35 71 38 79 51 79 60 84 69 79 75 78 79 73 80 71 57 72" fill="#5F0B00" opacity="0.696" id="id-75170"></polygon><path d=" M 45,77 C 38,76 35,73 34,69 C 35,69 37,69 38,68 C 39,68 41,68 44,68 L 44,66 C 49,68 54,69 59,69 C 63,69 66,68 70,66 L 80,68 L 80,71 C 78,74 76,76 73,76 C 72,77 70,75 69,75 C 67,75 66,76 62,77 C 59,78 56,77 51,77 C 51,77 46,77 45,77 Z" fill="url(#id-75105)" id="id-75171"></path><path d=" M 48,77 C 42,75 41,73 43,73 C 46,73 50,74 55,77 L 48,77 Z" fill="url(#id-75106)" id="id-75172"></path><path d=" M 62,77 C 65,74 68,73 70,72 C 72,72 73,73 72,76 L 62,77 Z" fill="url(#id-75107)" id="id-75173"></path><polygon points="51 64 57 68 66 62" fill="#FFDCD6" id="id-75174"></polygon><polygon points="57 36 51 24 59 21 64 25" fill="#FFD6CC" id="id-75175"></polygon></g><g transform=" translate(26,100)" id="id-75176"><path d=" M 8,30 C 16,24 23,20 31,20 C 38,20 45,25 51,34 L 8,30 Z" fill="#621115" id="id-75177"></path><path d=" M 33,28 C 24,23 23,20 31,20 C 38,20 45,25 51,34 L 33,28 Z" fill="#E99884" id="id-75177"></path><path d=" M 91,37 C 91,29 97,24 108,22 C 118,20 127,23 134,30 L 91,37 Z" fill="#D06E5D" id="id-75179"></path><path d=" M 105,30 C 104,25 105,22 109,21 C 113,21 117,23 120,28 L 105,30 Z" fill="#F6B3A1" id="id-75179"></path><polygon points="30 25 36 22 39 27" fill="#F7BBD4" id="id-75181"></polygon><polygon points="106 28 113 27 108 23" fill="#FCC3E4" id="id-75182"></polygon><path d=" M 96,40 C 103,46 110,48 115,47 C 120,46 127,42 135,35 C 127,38 121,40 117,40 C 110,41 102,38 96,40 Z" fill="url(#id-75108)" id="id-75183"></path><path d=" M 9,41 C 18,45 25,46 31,45 C 37,44 45,41 53,37 L 49,35 C 42,38 36,40 31,40 C 27,40 22,38 17,37 L 9,41 Z" fill="url(#id-75109)" id="id-75184"></path><path d=" M 9,41 C 15,43 18,44 21,45 C 21,40 31,40 34,40 C 26,40 21,38 17,36 L 9,41 Z" fill="#AD3F35" id="id-75184"></path><path d=" M 36,39 C 39,38 44,37 50,35 C 44,30 38,27 33,27 C 27,27 21,30 15,35 C 25,38 32,39 36,39 Z" fill="#F5D4F2" id="id-75186"></path><path d=" M 97,37 C 106,39 112,40 116,39 C 121,38 125,37 129,34 L 116,27 L 99,32 L 97,37 Z" fill="#E7CAEC" id="id-75187"></path><path d=" M 97,37 C 98,38 100,38 100,38 C 102,34 106,32 111,32 C 115,31 121,33 127,37 C 128,36 129,35 130,34 L 116,27 L 99,32 L 97,37 Z" fill="#000000" opacity="0.297" id="id-75187"></path><path d=" M 94,37 L 100,38 C 99,38 98,37 99,36 C 99,35 100,34 101,32 L 94,37 Z" fill="#BB8083" id="id-75189"></path><path d=" M 24,30 C 24,36 27,39 32,38 C 38,38 41,35 41,29 L 30,28 L 24,30 Z" fill="#250A10" id="id-75190"></path><path d=" M 29,33 L 25,34 C 27,37 29,38 32,38 C 36,38 39,36 40,32 C 40,32 39,32 35,32 C 35,34 34,35 33,35 C 31,35 30,34 29,33 Z" fill="url(#id-75110)" id="id-75190"></path><path d=" M 46,36 C 47,36 48,35 50,35 C 44,30 38,27 33,27 C 27,27 21,30 15,35 L 20,37 C 24,33 27,31 29,31 C 37,31 43,32 46,36 Z" fill="#000000" opacity="0.296" id="id-75186"></path><polygon points="31 32 31 31 32 31 32 29 29 29 29 32" fill="#B99794" id="id-75193"></polygon><path d=" M 105,30 C 104,33 105,36 108,38 L 117,38 C 120,37 122,34 122,29 C 117,28 114,28 112,28 C 110,28 108,29 105,30 Z" fill="url(#id-75111)" id="id-75194"></path><path d=" M 105,30 C 104,33 105,36 108,38 C 107,36 106,35 106,34 C 107,34 107,34 109,33 C 109,33 109,36 112,36 C 115,36 117,34 118,32 C 119,32 120,32 121,32 C 121,34 119,36 117,38 C 121,37 122,32 122,29 C 117,28 114,28 112,28 C 110,28 108,29 105,30 Z" fill="#15050F" id="id-75194"></path><polygon points="113 30 110 31 111 33 113 33" fill="#D2B0AD" id="id-75196"></polygon><path d=" M 46,31 C 46,33 46,34 46,34 C 46,35 46,36 45,36 L 50,35 L 46,31 Z" fill="#B2514F" id="id-75197"></path><polygon points="46 32 51 36 53 37 52 35 47 32" fill="#8E2A27" id="id-75198"></polygon><path d=" M 10,41 L 17,37 L 24,39 L 17,34 C 21,31 26,29 32,28 C 37,28 41,30 46,32 C 46,32 47,32 47,32 C 41,27 36,25 31,25 C 28,25 22,26 13,28 L 1,30 L 12,36 L 10,41 Z" fill="#26070C" id="id-75199"></path><path d=" M 92,37 C 93,37 94,37 94,37 C 100,32 106,29 111,29 C 116,28 122,30 128,34 L 121,40 L 131,37 L 136,40 L 135,35 L 145,29 L 133,30 C 125,26 119,25 114,26 C 105,26 98,30 92,37 Z" fill="#24060D" id="id-75200"></path><path d=" M 91,12 L 91,20 C 105,14 116,12 123,12 C 130,12 138,15 144,22 C 139,12 131,6 123,3 C 120,2 108,4 96,7 C 95,8 93,10 91,12 Z" fill="#471D15" id="id-75201"></path><path d=" M 1,18 C 9,12 15,10 19,10 C 23,10 33,12 49,17 L 58,9 C 38,4 26,1 22,1 C 13,5 7,8 5,11 L 1,18 Z" fill="#471D15" id="id-75202"></path><polygon points="117 38 102 39 112 40" fill="#FFEDEC" id="id-75203"></polygon><polygon points="41 37 26 38 27 39 33 40" fill="#FFD2D4" id="id-75203"></polygon></g></g><defs><linearGradient x1="50%" y1="0%" x2="50%" y2="100%" id="id-41418"><stop stop-color="#6CAEE2" offset="0%"></stop><stop stop-color="#78B5E3" offset="30%"></stop><stop stop-color="#6CAFE3" offset="67%"></stop><stop stop-color="#6CAFE3" offset="100%"></stop></linearGradient><linearGradient x1="47%" y1="6%" x2="51%" y2="33%" id="id-41419"><stop stop-color="#B4DBEB" offset="0%" stop-opacity="0"></stop><stop stop-color="#B4DBEC" offset="100%"></stop></linearGradient><linearGradient x1="50%" y1="0%" x2="50%" y2="96%" id="id-41420"><stop stop-color="#AAD7F2" offset="0%" stop-opacity="0.837"></stop><stop stop-color="#B7DDE9" offset="100%"></stop></linearGradient></defs><g transform=" translate(322,734)" id="id-41421"><path d=" M 202,176 C 201,169 202,179 201,171 C 183,226 177,275 181,311 C 157,369 127,427 106,485 C 93,534 93,582 96,629 C 86,628 81,627 81,627 C 55,635 41,639 41,639 C 14,670 1,685 1,685 C 8,646 12,627 12,627 C 22,579 35,531 50,482 C 61,405 67,366 67,366 C 64,356 62,352 62,352 C 68,343 71,338 71,338 C 91,279 101,249 101,249 C 108,208 113,177 115,156 C 117,133 115,110 117,87 C 117,75 117,64 117,56 C 116,45 114,38 114,30 C 142,27 168,28 193,34 C 194,34 203,39 218,48 L 437,48 L 482,28 L 553,26 C 556,36 557,45 557,69 C 560,126 557,183 564,240 C 575,290 589,333 593,377 C 606,478 632,578 632,676 C 610,651 599,638 599,638 C 577,634 566,633 566,633 C 555,632 550,632 550,632 C 557,597 561,562 558,527 C 544,468 502,386 485,322 C 482,262 480,232 480,232 C 473,187 470,165 470,165 C 469,173 467,163 466,171 C 409,181 363,186 328,187 C 305,187 263,184 202,176 Z" fill="url(#id-41418)" id="id-41422"></path><path d=" M 205,102 L 177,92 L 196,38 C 199,46 208,59 221,76 L 205,102 Z" fill="#87C2F0" id="id-41423"></path><path d=" M 495,287 C 505,251 508,225 514,205 C 503,194 498,189 498,189 L 526,133 L 539,148 L 567,256 C 576,290 584,325 591,363 C 597,420 598,464 593,491 C 607,526 624,558 629,609 L 616,658 L 599,638 L 566,633 L 550,632 C 557,598 565,569 558,527 C 562,404 508,356 495,287 Z" fill="url(#id-41419)" id="id-41424"></path><path d=" M 417,174 C 447,138 462,120 462,120 L 459,118 L 393,113 L 277,115 L 218,103 L 233,148 L 233,173 L 248,180 C 342,180 398,178 417,174 Z" fill="#86BFE8" id="id-41425"></path><path d=" M 253,48 C 233,72 222,84 222,84 C 219,97 217,103 217,103 C 256,111 276,115 276,115 C 354,114 393,113 393,113 C 384,119 380,122 380,122 C 334,134 311,140 311,140 C 370,140 399,139 399,139 C 439,125 460,118 460,118 C 483,105 494,99 494,99 C 485,72 476,51 466,36 C 478,44 484,48 484,48 C 496,40 502,36 502,36 C 495,52 492,60 492,60 C 499,92 503,107 503,107 C 527,134 539,148 539,148 C 551,95 557,69 557,69 C 554,47 552,32 550,24 L 482,26 L 439,44 L 253,48 Z" fill="url(#id-41420)" id="id-41426"></path><path d=" M 117,93 C 119,92 120,91 120,91 L 119,56 L 116,56 C 117,72 118,84 117,93 Z" fill="#37DFF4" id="id-41427"></path><path d=" M 18,599 C 33,581 40,573 40,573 C 66,563 78,558 78,558 C 59,558 50,558 50,558 C 66,521 74,503 74,503 C 92,506 101,507 101,507 C 101,505 102,503 102,503 C 78,487 67,479 67,479 L 46,494 C 31,546 22,581 18,599 Z" fill="#87C1F0" id="id-41428"></path><path d=" M 98,528 C 76,532 65,534 65,534 C 59,544 56,548 56,548 L 96,554 C 96,543 97,534 98,528 Z" fill="#87C1F0" id="id-41429"></path><path d=" M 102,498 C 81,483 71,475 71,475 C 96,473 109,472 109,472 C 115,415 117,386 117,386 C 137,364 147,354 147,354 C 127,351 116,349 116,349 C 145,345 159,343 159,343 L 179,317 C 155,371 128,426 106,485 C 103,494 102,498 102,498 Z" fill="#6798BE" id="id-41430"></path><path d=" M 98,473 L 99,496 L 71,475 C 89,474 98,473 98,473 Z" fill="#87C1F0" id="id-41431"></path><path d=" M 50,482 C 63,471 70,466 70,466 C 93,466 105,466 105,466 C 111,410 114,382 114,382 C 129,368 136,360 136,360 C 108,359 93,359 93,359 C 105,319 111,299 111,299 C 137,295 150,293 150,293 C 130,275 121,267 121,267 C 159,259 178,256 178,256 C 139,240 120,232 120,232 C 114,232 111,232 111,232 C 107,233 105,234 105,234 C 111,226 117,221 123,218 C 155,219 171,219 171,219 C 156,213 148,211 148,211 C 145,191 143,181 143,181 L 200,175 C 201,172 201,171 201,171 C 192,147 187,135 187,135 C 181,106 178,92 178,92 C 186,67 190,54 190,54 C 159,43 143,38 143,38 C 143,38 133,36 114,30 L 116,56 C 139,61 151,63 151,63 C 136,81 128,89 128,89 C 121,92 117,93 117,93 L 116,148 C 112,189 106,218 101,249 C 110,258 114,262 114,262 C 110,264 108,265 108,265 C 122,281 129,288 129,288 C 114,289 106,289 106,289 C 96,336 91,360 91,360 C 74,369 65,373 65,373 C 60,409 58,428 58,428 C 77,422 87,420 87,420 L 55,443 C 51,469 50,482 50,482 Z" fill="#9FD2F5" id="id-41432"></path><path d=" M 61,427 C 66,407 70,389 78,367 C 85,363 88,362 88,362 C 92,396 96,431 98,466 C 80,466 71,466 71,466 C 60,475 54,479 54,479 L 59,441 L 90,419 C 71,424 61,427 61,427 Z" fill="#87C1F0" id="id-41433"></path><path d=" M 148,386 C 151,373 154,362 159,352 C 164,339 171,328 178,319 C 158,364 148,386 148,386 Z" fill="#6798BE" id="id-41434"></path><path d=" M 182,254 C 178,246 176,242 176,242 C 144,232 128,226 128,226 L 186,231 C 184,242 183,250 182,254 Z" fill="#6798BE" id="id-41435"></path><path d=" M 180,273 C 163,218 157,186 164,179 C 162,179 161,179 159,179 C 151,117 147,86 147,86 L 182,78 L 178,92 L 187,135 L 201,171 C 194,191 190,211 186,231 C 183,246 181,260 180,273 Z" fill="#000000" fill-opacity="0.142" id="id-41436"></path><path d=" M 195,191 L 193,176 L 200,175 C 197,186 195,191 195,191 Z" fill="#3E85B7" id="id-41437"></path><path d=" M 194,195 C 167,197 153,198 153,198 L 190,211 C 192,202 193,197 194,195 Z" fill="#4678A0" id="id-41438"></path><path d=" M 182,78 C 188,62 190,54 190,54 C 149,63 128,68 128,68 C 120,66 117,65 117,65 C 116,61 116,59 116,59 C 107,63 103,65 103,65 L 105,84 L 128,89 L 182,78 Z" fill="#3C3953" id="id-41439"></path><path d=" M 121,68 L 121,88 L 105,84 L 103,65 C 115,67 121,68 121,68 Z" fill="#819AEC" id="id-41440"></path><path d=" M 183,119 L 179,97 C 145,105 128,109 128,109 C 121,107 117,106 117,106 C 117,101 117,99 117,99 C 108,103 103,105 103,105 L 106,124 L 129,130 L 183,119 Z" fill="#3C3953" id="id-41439"></path><path d=" M 121,108 L 121,128 L 106,124 L 103,105 C 115,107 121,108 121,108 Z" fill="#819AEC" id="id-41440"></path><path d=" M 63,356 C 77,357 84,358 84,358 C 78,346 75,340 75,340 L 96,271 L 114,262 L 101,249 L 71,338 L 62,352 C 63,354 63,356 63,356 Z" fill="#26F0FC" id="id-41443"></path><path d=" M 182,51 C 182,46 182,44 182,44 L 195,42 L 190,54 C 185,52 182,51 182,51 Z" fill="#005180" id="id-41444"></path><path d=" M 196,99 L 177,92 C 190,55 197,36 197,36 L 190,82 C 189,87 192,93 196,99 Z" fill="#63F9FF" id="id-41445"></path><path d=" M 485,46 C 485,16 485,0 485,0 L 499,24 C 490,39 485,46 485,46 Z" id="id-41446"></path><path d=" M 493,91 C 481,58 475,42 475,42 C 481,50 484,54 484,54 C 490,48 493,44 493,44 L 485,62 C 490,81 493,91 493,91 Z" fill="#005180" id="id-41447"></path><path d=" M 485,61 C 486,60 487,59 487,59 C 527,67 547,70 547,70 C 554,69 558,68 558,68 C 558,64 557,62 557,62 C 565,64 569,65 569,65 L 572,87 C 558,91 551,94 551,94 L 491,86 C 487,69 485,61 485,61 Z" fill="#3C3953" id="id-41448"></path><path d=" M 551,94 C 549,79 548,72 548,72 L 569,67 L 572,87 C 558,91 551,94 551,94 Z" fill="#4D5688" id="id-41449"></path><path d=" M 485,105 C 486,104 486,103 486,103 C 527,111 547,114 547,114 C 554,113 558,112 558,112 C 557,108 557,106 557,106 C 565,108 568,109 568,109 L 572,131 C 558,135 551,138 551,138 L 491,130 C 487,113 485,105 485,105 Z" fill="#3C3953" id="id-41448"></path><path d=" M 552,138 C 549,123 548,116 548,116 L 569,111 L 572,131 C 558,135 552,138 552,138 Z" fill="#4D5688" id="id-41449"></path><path d=" M 473,176 C 487,128 494,103 494,103 L 470,160 C 472,171 473,176 473,176 Z" fill="#00517F" id="id-41452"></path><path d=" M 481,233 C 481,240 481,243 481,243 C 484,229 490,218 492,208 L 480,151 L 473,176 C 478,214 481,233 481,233 Z" fill="#478CBD" id="id-41453"></path><path d=" M 539,269 C 525,275 518,278 518,278 L 505,263 C 528,267 539,269 539,269 Z" fill="#7DB8E2" id="id-41454"></path><path d=" M 532,290 C 555,267 567,256 567,256 C 572,273 574,281 574,281 L 568,274 C 544,285 532,290 532,290 Z" fill="#8CC2E3" id="id-41455"></path><path d=" M 215,177 C 222,169 225,165 225,165 L 191,145 L 202,177 L 215,177 Z" fill="#94CEFD" id="id-41456"></path><path d=" M 83,663 L 96,629 L 81,627 L 41,639 C 14,670 1,685 1,685 C 0,689 0,691 0,691 C 17,687 26,686 26,686 C 20,675 17,669 17,669 C 34,650 43,640 43,640 L 83,629 L 83,663 Z" fill="#005F91" id="id-41457"></path><path d=" M 550,632 C 559,652 564,662 564,662 C 564,643 564,634 564,634 C 587,639 598,641 598,641 C 612,658 619,667 619,667 C 613,674 610,678 610,678 L 606,687 C 615,687 628,685 632,676 L 599,638 L 566,633 C 555,632 550,632 550,632 Z" fill="#005F90" id="id-41458"></path></g><defs><linearGradient x1="91%" y1="48%" x2="79%" y2="54%" id="id-47488"><stop stop-color="#344D73" offset="0%"></stop><stop stop-color="#2A394E" offset="100%"></stop></linearGradient><path d=" M 432,184 C 417,189 395,194 365,200 L 58,199 L 1,150 L 11,105 C 39,92 71,81 107,72 C 125,61 143,47 161,32 L 163,4 C 192,10 207,13 207,13 C 209,27 210,35 210,35 C 217,35 221,35 221,35 C 224,20 225,13 225,13 C 255,4 270,0 270,0 L 271,30 C 288,46 309,63 334,80 C 347,83 366,86 391,90 L 418,110 C 425,133 430,158 432,184 Z" id="id-47489"></path><linearGradient x1="50%" y1="8%" x2="50%" y2="37%" id="id-47490"><stop stop-color="#02FDFF" offset="0%"></stop><stop stop-color="#00DEEB" offset="100%"></stop></linearGradient><linearGradient x1="0%" y1="50%" x2="100%" y2="50%" id="id-47491"><stop stop-color="#017E9C" offset="0%"></stop><stop stop-color="#005975" offset="100%"></stop></linearGradient><linearGradient x1="50%" y1="24%" x2="50%" y2="137%" id="id-47492"><stop stop-color="#00C5D3" offset="0%" stop-opacity="0"></stop><stop stop-color="#0189A7" offset="100%"></stop></linearGradient><linearGradient x1="116%" y1="50%" x2="-13%" y2="50%" id="id-47493"><stop stop-color="#00162B" offset="0%"></stop><stop stop-color="#08637F" offset="53%"></stop><stop stop-color="#001528" offset="100%"></stop></linearGradient><linearGradient x1="50%" y1="20%" x2="50%" y2="100%" id="id-47494"><stop stop-color="#01FAFC" offset="0%" stop-opacity="0"></stop><stop stop-color="#0189A5" offset="100%"></stop></linearGradient></defs><g transform=" translate(331,577)" id="id-47495"><path d=" M 174,1183 L 176,1156 C 172,1130 169,1103 165,1076 C 123,849 99,807 146,646 C 148,612 158,574 178,530 L 228,515 L 247,537 L 252,577 L 321,607 L 387,580 L 391,542 L 403,517 L 469,529 C 474,541 479,555 485,571 C 528,760 539,822 466,1057 C 465,1092 463,1127 461,1162 L 465,1183 L 363,1183 L 356,1161 L 354,1119 C 351,1102 350,1093 350,1093 L 349,1021 L 334,789 L 337,751 L 325,754 C 320,752 317,751 314,750 C 312,865 305,902 289,1021 C 289,1097 291,1136 286,1183 C 263,1183 226,1183 174,1183 Z" fill="#8F9DB8" id="id-47496"></path><path d=" M 266,1183 C 221,1129 199,1102 199,1102 C 189,1078 184,1066 184,1066 C 185,1013 189,953 195,888 C 188,802 185,691 185,691 C 177,660 173,644 173,644 C 174,633 174,627 174,627 C 178,623 179,621 179,621 C 213,658 245,696 276,737 C 280,758 286,783 292,822 C 291,856 283,887 269,915 C 287,1010 292,1100 286,1183 C 284,1183 277,1183 266,1183 Z" fill="#B8C4DE" id="id-47497"></path><path d=" M 380,1091 C 375,1138 372,1161 372,1161 L 363,1179 L 363,1183 L 443,1183 L 432,1163 C 432,1159 432,1157 432,1157 L 422,1093 C 394,1092 380,1091 380,1091 Z" fill="#4C5A6F" id="id-47498"></path><path d=" M 264,1148 C 260,1120 258,1106 258,1106 C 277,1073 286,1057 286,1057 L 284,1094 C 270,1130 264,1148 264,1148 Z" fill="#94A2BC" id="id-47499"></path><path d=" M 162,1060 C 161,1056 161,1054 161,1054 C 176,1012 183,991 183,991 C 240,941 269,916 269,916 C 282,886 289,871 289,871 C 290,874 290,876 290,876 C 277,905 270,919 270,919 L 186,992 C 170,1037 162,1060 162,1060 Z" fill="#7C8AA2" id="id-47500"></path><path d=" M 422,671 C 395,932 381,1063 381,1063 C 366,1002 358,972 358,972 L 349,1000 L 334,789 L 339,768 C 394,703 422,671 422,671 Z" fill="#C3CEE3" id="id-47501"></path><path d=" M 160,1051 C 164,1036 167,1028 171,1016 C 156,933 133,817 133,692 C 116,778 109,817 160,1051 Z" fill="#7488AF" id="id-47502"></path><path d=" M 186,1008 C 192,1000 198,997 204,989 C 200,1064 230,1115 230,1115 L 208,1135 C 198,1120 193,1100 194,1073 C 189,1043 191,1031 186,1008 Z" fill="#F7F8FA" id="id-47503"></path><path d=" M 184,986 C 195,976 195,976 206,963 C 190,911 186,764 186,647 C 177,659 169,667 156,697 C 155,801 173,894 184,986 Z" fill="#F7F8FA" id="id-47504"></path><path d=" M 292,997 C 276,944 267,917 267,917 C 269,916 269,915 269,915 L 293,991 C 293,995 292,997 292,997 Z" fill="#67778E" id="id-47505"></path><path d=" M 179,1183 C 189,1160 194,1148 194,1148 C 198,1113 200,1095 200,1095 C 229,1094 244,1094 244,1094 C 253,1146 257,1172 257,1172 L 266,1183 C 208,1183 179,1183 179,1183 Z" fill="#505F74" id="id-47506"></path><path d=" M 305,907 C 293,883 288,871 288,871 L 308,873 C 306,896 305,907 305,907 Z" fill="#4B5A6F" id="id-47507"></path><path d=" M 302,873 L 305,900 L 308,873 C 304,873 302,873 302,873 Z" fill="#29384D" id="id-47508"></path><path d=" M 143,961 C 150,961 154,961 154,961 C 164,993 169,1009 169,1009 L 159,1044 L 143,961 Z" fill="#29384D" id="id-47509"></path><path d=" M 339,877 C 353,868 361,863 361,863 L 341,902 C 340,885 339,877 339,877 Z" fill="#4C5A6F" id="id-47510"></path><path d=" M 339,877 C 342,875 343,874 343,874 L 340,890 C 339,881 339,877 339,877 Z" fill="#2A394E" id="id-47511"></path><path d=" M 346,987 C 363,930 371,901 371,901 C 373,902 374,903 374,903 L 347,995 C 347,990 346,987 346,987 Z" fill="#7F8CA4" id="id-47512"></path><path d=" M 364,930 C 377,920 384,914 384,914 L 371,903 C 366,921 364,930 364,930 Z" stroke="#979797" id="id-47513"></path><path d=" M 497,950 C 488,953 484,955 484,955 C 474,981 469,994 469,994 L 478,1019 C 490,973 497,950 497,950 Z" stroke="#979797" id="id-47514"></path><path d=" M 452,525 C 472,578 482,604 482,604 C 364,633 304,647 304,647 C 226,629 187,620 187,620 L 173,551 L 178,530 L 228,515 L 247,537 L 252,577 L 322,607 L 387,580 L 391,542 L 403,517 C 436,522 452,525 452,525 Z" fill="#BAC3D9" id="id-47515"></path><path d=" M 473,1037 C 465,1016 460,982 460,982 C 466,968 474,950 484,926 C 503,794 491,685 491,597 C 510,682 519,741 521,798 C 521,880 500,949 473,1037 Z" fill="#6980A9" id="id-47516"></path><path d=" M 422,521 C 357,646 324,708 324,708 L 213,520 L 228,515 L 247,537 L 252,577 L 321,607 L 387,580 L 391,541 L 403,517 C 416,519 422,521 422,521 Z" fill="#D7DDED" fill-opacity="0.400" id="id-47517"></path><path d=" M 391,684 C 346,695 324,701 324,701 C 276,689 253,683 253,683 L 325,768 C 369,712 391,684 391,684 Z" fill="#5B697F" id="id-47518"></path><path d=" M 317,603 C 321,603 323,604 323,604 C 325,683 326,723 326,723 L 318,720 C 318,642 317,603 317,603 Z" fill="#414F64" id="id-47519"></path><path d=" M 410,1055 C 401,1069 396,1076 396,1076 C 385,1034 376,999 371,972 C 379,886 400,799 432,713 C 418,941 410,1055 410,1055 Z" fill="#F3F4F9" id="id-47520"></path><path d=" M 4,810 C 18,765 25,743 25,743 C 25,726 26,718 26,718 C 31,699 36,678 43,654 C 51,576 67,487 67,487 C 80,498 93,508 105,519 C 107,530 110,555 116,595 C 88,669 74,706 74,706 L 69,741 L 74,761 L 48,766 C 18,795 4,810 4,810 Z" fill="#ABB3C8" id="id-47521"></path><path d=" M 45,729 C 49,710 51,701 51,701 C 74,683 85,675 85,675 C 78,695 74,706 74,706 L 70,736 L 45,729 Z" fill="#2A384D" id="id-47522"></path><path d=" M 458,984 C 402,926 374,898 374,898 C 365,874 361,863 361,863 C 359,866 359,867 359,867 C 366,891 370,902 370,902 C 427,960 455,989 455,989 C 465,1026 470,1045 470,1045 L 473,1037 C 463,1001 458,984 458,984 Z" fill="#6F7C93" id="id-47523"></path><path d=" M 0,821 C 2,814 4,810 4,810 C 33,780 48,766 48,766 C 65,763 74,761 74,761 C 74,763 75,764 75,764 L 49,769 C 16,804 0,821 0,821 Z" fill="#2C3B4F" id="id-47524"></path><path d=" M 555,750 C 554,752 554,753 554,753 C 573,758 582,761 582,761 C 601,806 611,828 611,828 C 610,821 609,817 609,817 L 583,759 C 565,753 555,750 555,750 Z" fill="#29394E" id="id-47525"></path><path d=" M 555,750 L 562,731 L 561,723 L 554,691 C 543,665 538,652 538,652 C 520,605 511,582 511,582 C 528,544 537,526 537,526 C 563,513 576,506 576,506 C 587,609 593,660 593,660 C 600,682 604,694 604,694 L 606,792 L 609,817 L 583,759 C 564,753 555,750 555,750 Z" fill="#ABB2C4" id="id-47526"></path><path d=" M 583,759 L 601,686 L 593,660 L 576,506 L 537,526 L 511,581 L 576,696 L 559,752 C 575,757 583,759 583,759 Z" fill="#BEC6D7" id="id-47527"></path><path d=" M 109,548 C 108,535 106,525 105,519 C 94,509 81,498 67,487 C 55,556 47,612 43,654 C 39,669 35,682 32,694 L 109,548 Z" fill="#CCD2DF" id="id-47528"></path><path d=" M 74,492 C 75,494 77,495 77,495 L 68,538 C 68,524 70,509 74,492 Z" fill="#FCFCFE" id="id-47529"></path><path d=" M 68,542 C 60,576 53,605 46,630 C 44,646 43,654 43,654 C 38,673 34,686 32,694 C 41,678 54,645 71,594 C 69,587 68,570 68,542 Z" fill="#FCFCFC" id="id-47530"></path><path d=" M 538,652 C 543,653 569,666 569,666 C 578,694 583,708 583,708 C 573,715 566,720 562,723 L 554,691 C 547,673 541,660 538,652 Z" fill="#29384D" id="id-47522"></path><path d=" M 255,927 C 267,934 273,938 273,938 L 269,916 C 260,924 255,927 255,927 Z" fill="#4F5D72" id="id-47532"></path><path d=" M 364,929 C 378,918 385,913 385,913 L 372,902 C 367,920 364,929 364,929 Z" fill="#4F5D72" id="id-47533"></path><path d=" M 314,774 C 284,740 239,689 179,621 C 167,634 162,640 162,640 C 142,699 131,728 131,728 L 125,734 C 129,706 136,677 146,647 C 146,626 152,597 163,567 C 173,561 197,553 197,553 L 175,534 C 179,525 181,521 181,521 C 202,538 213,546 213,546 C 229,540 237,536 237,536 C 241,565 243,579 243,579 C 229,573 223,570 223,570 C 201,596 190,608 190,608 C 261,689 297,729 297,729 C 313,718 321,713 321,713 C 340,721 349,726 349,726 C 419,646 454,606 454,606 C 429,581 416,569 416,569 C 402,575 394,578 394,578 C 399,547 402,531 402,531 C 422,542 433,548 433,548 C 457,535 469,529 469,529 C 473,538 475,542 475,542 C 457,552 449,556 449,556 C 474,569 487,576 487,576 C 502,650 512,699 515,725 C 510,718 504,709 504,709 C 496,663 491,640 491,640 C 475,625 466,617 466,617 C 408,686 365,738 336,773 L 337,753 L 325,768 L 314,755 L 314,774 Z" fill="#2A384D" id="id-47522"></path><g transform=" translate(152,1094)" id="id-47535"><path d=" M 0,41 C 25,31 37,27 37,27 C 80,27 101,27 101,27 C 110,54 114,67 114,67 C 133,71 142,73 142,73 L 140,88 L 135,89 C 54,89 14,89 14,89 C 12,80 11,75 11,75 L 6,71 C 2,51 0,41 0,41 Z" fill="#050D1A" id="id-47536"></path><path d=" M 90,81 C 75,81 49,81 49,81 L 46,89 L 14,89 L 11,75 L 6,71 L 0,41 L 37,27 C 80,27 101,27 101,27 L 103,31 C 99,38 95,55 90,81 Z" fill="#141D2E" id="id-47537"></path><path d=" M 93,65 C 65,64 51,64 51,64 L 50,81 L 90,81 C 92,71 93,65 93,65 Z" fill="#222E48" id="id-47538"></path><path d=" M 136,89 C 122,83 115,80 115,80 L 115,68 L 142,73 L 140,88 C 137,89 136,89 136,89 Z" fill="#141D2E" id="id-47539"></path><path d=" M 138,40 L 136,72 C 122,69 115,68 115,68 L 110,54 C 129,45 138,40 138,40 Z" fill="#01619D" id="id-47540"></path><path d=" M 10,66 C 4,43 2,32 2,32 C 8,26 11,23 11,23 C 9,8 9,0 9,0 C 12,1 14,1 14,1 L 36,28 C 28,53 24,66 24,66 C 20,67 17,68 15,68 L 15,66 L 10,66 Z" fill="#01619D" id="id-47522"></path><path d=" M 5,47 C 9,45 12,43 15,41 C 16,31 15,24 11,18 L 10,23 L 2,32 C 4,42 5,47 5,47 Z" fill="#009FCF" id="id-47542"></path><path d=" M 14,1 C 11,7 9,9 9,9 C 11,10 12,10 12,10 L 30,30 L 36,27 C 22,9 14,1 14,1 Z" fill="#02A5D3" id="id-47543"></path><path d=" M 97,49 C 95,48 91,36 91,36 C 56,38 39,39 39,39 L 31,66 C 27,66 25,66 25,66 C 34,40 38,27 38,27 L 103,30 C 100,37 98,44 97,49 Z" fill="#40537B" id="id-47544"></path><path d=" M 53,28 L 53,38 C 44,38 39,39 39,39 C 37,45 36,49 36,49 L 32,44 L 38,27 C 48,28 53,28 53,28 Z" fill="#586A92" id="id-47545"></path><path d=" M 37,29 C 42,30 44,30 44,30 C 41,37 40,40 40,40 L 34,39 C 36,32 37,29 37,29 Z" fill="#EDF0F5" id="id-47546"></path></g><g transform=" translate(342,1094)" id="id-47547"><path d=" M 6,89 C 3,88 2,87 2,87 C 1,78 0,73 0,73 C 18,69 27,67 27,67 C 36,40 40,26 40,26 C 83,26 105,27 105,27 C 114,52 118,65 118,65 C 129,68 134,70 134,70 L 128,89 C 47,89 6,89 6,89 Z" fill="#141D2E" id="id-47548"></path><path d=" M 6,89 L 27,79 C 27,71 27,67 27,67 C 37,44 41,33 41,33 C 48,65 52,81 52,81 L 93,81 L 95,89 C 36,89 6,89 6,89 Z" fill="#050D1A" id="id-47549"></path><path d=" M 48,64 C 77,64 92,64 92,64 L 92,81 L 52,81 L 48,64 Z" fill="#222E48" id="id-47550"></path><path d=" M 46,48 C 49,40 51,36 51,36 C 86,38 104,39 104,39 L 111,65 L 118,65 C 109,40 105,27 105,27 L 40,29 C 44,42 46,48 46,48 Z" fill="#41547C" id="id-47551"></path><path d=" M 89,28 L 89,38 L 104,39 L 106,48 L 110,44 L 105,27 C 94,27 89,28 89,28 Z" fill="#54678F" id="id-47552"></path><path d=" M 102,39 C 100,33 99,29 99,29 C 102,29 104,29 104,29 L 108,39 C 104,39 102,39 102,39 Z" fill="#EDF1F5" id="id-47553"></path><path d=" M 36,47 C 16,41 6,38 6,38 L 8,72 L 27,67 C 33,54 36,47 36,47 Z" fill="#01619D" id="id-47554"></path><path d=" M 131,69 C 131,64 131,62 131,62 C 134,62 135,62 135,62 C 142,40 146,29 146,29 C 138,24 134,22 134,22 C 134,8 135,1 135,1 C 128,0 125,0 125,0 L 106,29 L 118,65 C 127,68 131,69 131,69 Z" fill="#01619C" id="id-47555"></path><path d=" M 143,38 C 146,41 147,42 147,42 L 137,71 L 131,69 L 131,61 L 136,61 C 141,46 143,38 143,38 Z" fill="#141E2F" id="id-47556"></path><path d=" M 142,40 C 133,36 129,34 129,34 C 130,24 130,19 130,19 L 132,23 L 134,22 L 146,29 C 144,37 142,40 142,40 Z" fill="#00A2D3" id="id-47557"></path><path d=" M 134,3 C 120,22 113,31 113,31 C 109,28 107,27 107,27 L 127,0 C 131,2 134,3 134,3 Z" fill="#02A4D5" id="id-47558"></path></g><g transform=" translate(67,0)" id="id-47559"><g transform=" translate(43,0)" id="id-47560"><g transform=" translate(3,0)" id="id-47561"><use fill="url(#id-47488)" id="id-47562" xlink:href="#id-47489"></use></g><path d=" M 64,181 C 62,193 61,199 61,199 C 20,181 0,172 0,172 L 4,150 C 44,170 64,181 64,181 Z" fill="#031426" id="id-47564"></path><path d=" M 102,155 C 82,134 72,124 72,124 L 60,178 L 64,181 L 102,155 Z" fill="#324E75" id="id-47565"></path><path d=" M 433,161 C 434,178 435,186 435,186 C 391,196 368,200 368,200 L 363,184 C 410,169 433,161 433,161 Z" fill="#031426" id="id-47566"></path><path d=" M 391,175 L 398,194 C 423,189 435,186 435,186 L 429,163 C 403,171 391,175 391,175 Z" fill="#1A293E" id="id-47567"></path><path d=" M 14,105 C 6,109 25,102 55,104 C 125,91 195,88 195,88 L 170,5 L 166,4 L 164,32 C 146,47 128,61 110,72 C 67,84 42,91 14,105 Z" fill="#445F8A" id="id-47568"></path><path d=" M 191,88 L 151,41 L 164,32 C 165,13 166,4 166,4 L 171,5 L 195,88 C 192,88 191,88 191,88 Z" fill="#3C639A" id="id-47569"></path><path d=" M 125,62 L 90,98 C 79,99 67,101 55,104 C 38,104 24,105 12,106 C 36,94 69,83 110,72 C 120,68 125,62 125,62 Z" fill="#3C639A" id="id-47570"></path><path d=" M 213,111 C 233,99 243,93 243,93 C 220,86 209,83 209,83 L 176,94 C 201,106 213,111 213,111 Z" fill="#041529" id="id-47571"></path><path d=" M 210,184 C 205,182 203,182 203,182 C 245,148 279,124 304,110 C 310,120 319,133 330,150 C 250,172 210,184 210,184 Z" fill="#324C70" id="id-47572"></path><path d=" M 415,105 C 337,99 298,96 298,96 C 329,89 345,85 345,85 L 341,81 L 394,90 C 408,100 415,105 415,105 Z" fill="#3D6298" id="id-47573"></path></g><g transform=" translate(0,93)" id="id-47574"><path d=" M 407,390 C 407,302 396,214 396,214 C 384,307 379,363 382,383 C 392,409 402,435 402,435 C 402,435 380,432 337,424 L 324,448 L 320,487 L 253,514 L 183,484 L 178,444 L 161,422 L 121,433 C 116,430 113,428 113,428 C 120,413 126,398 132,382 C 135,344 121,252 121,252 C 122,242 123,236 123,236 C 111,289 104,316 104,316 L 99,393 L 49,502 L 38,426 L 0,393 C 11,366 21,339 30,314 C 38,247 40,168 40,168 C 38,133 38,116 38,116 C 41,92 43,80 43,80 C 85,85 106,88 106,88 C 132,71 144,62 144,62 C 217,81 253,91 253,91 C 332,68 372,57 372,57 C 395,81 406,93 406,93 C 454,93 478,92 478,92 C 477,129 477,147 477,147 C 481,252 483,305 483,305 C 500,370 508,403 508,403 C 508,409 508,413 508,413 C 483,426 470,432 470,432 C 467,439 464,444 463,447 C 459,457 452,471 444,489 L 407,390 Z" fill="url(#id-47490)" id="id-47522"></path><path d=" M 42,453 C 46,445 48,441 48,441 L 92,394 L 49,502 C 44,470 42,453 42,453 Z" fill="#0194B0" id="id-47576"></path><path d=" M 10,402 L 6,399 C 13,371 17,357 18,357 C 18,358 16,373 10,402 Z" fill="#21FBFC" id="id-47577"></path><path d=" M 37,408 C 32,348 29,318 29,318 C 33,313 35,311 35,311 C 49,333 57,344 57,344 C 83,276 95,242 95,242 L 93,332 C 56,383 37,408 37,408 Z" fill="#01ABC2" id="id-47578"></path><path d=" M 28,353 C 28,378 28,390 28,390 C 45,395 53,397 53,397 C 71,377 81,367 81,367 C 75,362 73,359 73,359 L 32,346 C 29,351 28,353 28,353 Z" fill="#5B6A81" id="id-47579"></path><path d=" M 42,359 L 38,387 L 53,397 L 81,367 C 75,362 73,359 73,359 L 64,356 C 49,358 42,359 42,359 Z" fill="#404F64" id="id-47580"></path><path d=" M 30,343 L 76,354 C 76,354 76,354 76,354 L 76,354 C 76,354 76,354 76,354 L 76,354 C 77,355 80,359 86,367 C 86,367 76,379 56,402 C 56,402 45,399 23,393 C 23,393 22,379 21,352 C 21,352 24,349 30,343 L 30,343 Z M 32,346 C 31,349 30,350 29,352 L 29,352 C 28,353 28,353 28,353 C 28,377 28,390 28,390 L 28,390 L 28,390 C 44,395 53,397 53,397 L 53,397 L 53,397 C 71,377 81,367 81,367 C 76,362 73,360 73,359 L 73,359 C 73,359 73,359 73,359 L 32,346 Z" fill="#29384D" id="id-47581"></path><path d=" M 54,340 C 45,326 42,322 36,313 C 45,283 46,190 46,190 L 40,168 C 38,133 38,116 38,116 C 39,108 39,104 39,104 C 41,106 42,108 42,108 C 44,132 50,157 60,184 C 58,239 48,275 54,340 Z" fill="#01FBFF" id="id-47582"></path><path d=" M 105,314 C 104,322 104,326 104,326 C 103,327 103,328 102,328 C 101,311 107,218 107,218 C 90,189 82,175 82,175 C 97,151 105,139 105,139 C 97,169 98,193 109,211 C 128,242 171,239 171,239 C 162,243 151,244 137,243 C 132,242 127,239 123,236 L 105,314 Z" fill="#010D21" id="id-47583"></path><path d=" M 191,389 C 218,394 232,397 232,397 C 234,429 234,444 234,444 C 201,435 185,430 185,430 L 180,398 C 188,392 191,389 191,389 Z" fill="#017F9F" id="id-47584"></path><path d=" M 272,395 C 271,425 270,439 270,439 C 304,427 320,420 320,420 C 323,399 324,389 324,389 L 314,381 C 286,390 272,395 272,395 Z" fill="#005975" id="id-47585"></path><path d=" M 270,446 C 269,478 268,495 268,495 C 298,485 313,480 313,480 L 320,425 C 287,439 270,446 270,446 Z" fill="#005975" id="id-47586"></path><path d=" M 186,437 C 190,465 192,479 192,479 C 221,491 236,496 236,496 L 234,451 C 202,441 186,437 186,437 Z" fill="#017F9F" id="id-47587"></path><path d=" M 119,415 C 169,386 194,371 194,371 C 181,326 174,304 174,304 L 132,382 C 123,404 119,415 119,415 Z" fill="#00C0D3" id="id-47588"></path><path d=" M 361,393 C 333,385 320,381 320,381 C 336,301 344,260 344,260 L 378,263 C 367,350 361,393 361,393 Z" fill="#00BFD1" id="id-47589"></path><path d=" M 172,240 C 175,281 175,314 173,341 C 167,363 157,369 145,381 C 143,389 136,398 136,398 L 126,397 C 127,394 130,388 132,382 C 134,363 130,320 121,252 L 123,236 C 132,240 139,242 143,243 C 162,244 172,240 172,240 Z" fill="#0184A2" opacity="0.903" id="id-47590"></path><path d=" M 233,346 L 180,355 C 180,312 180,290 180,290 L 195,277 L 233,284 L 233,346 Z" fill="#017B9A" id="id-47591"></path><path d=" M 180,361 C 180,373 180,379 180,379 C 219,388 239,392 239,392 C 242,464 244,500 244,500 C 248,501 250,502 250,502 C 257,499 261,497 261,497 C 264,426 266,391 266,391 C 305,379 325,373 325,373 C 325,360 325,354 325,354 C 286,353 267,352 267,352 C 256,361 251,366 251,366 L 234,354 C 198,358 180,361 180,361 Z" fill="url(#id-47491)" id="id-47592"></path><path d=" M 361,393 C 374,291 381,239 381,239 L 393,234 C 386,289 382,338 381,381 C 385,391 388,397 389,401 C 398,424 402,435 402,435 L 384,432 L 361,393 Z" fill="#01ABC4" id="id-47522"></path><path d=" M 128,396 C 139,416 145,426 145,426 L 121,433 L 113,428 C 123,407 128,396 128,396 Z" fill="#00D3E4" id="id-47594"></path><path d=" M 347,230 C 347,276 346,310 346,332 C 354,359 377,377 377,377 C 378,383 378,386 378,386 L 386,393 C 385,390 384,386 382,382 C 382,308 397,214 396,204 C 375,225 347,230 347,230 Z" fill="#0184A2" opacity="0.830" id="id-47595"></path><path d=" M 104,148 C 116,170 134,183 159,189 C 189,191 233,159 233,159 C 223,184 198,197 159,200 C 129,203 114,192 100,179 C 99,163 104,148 104,148 Z" fill="url(#id-47492)" id="id-47596"></path><path d=" M 397,205 C 397,223 399,230 399,230 C 353,255 329,268 329,268 C 283,275 259,278 259,278 C 262,325 263,348 263,348 C 255,354 251,357 251,357 C 242,353 238,351 238,351 C 239,303 240,279 240,279 C 191,272 152,264 124,255 C 120,254 119,253 121,252 C 122,242 123,236 123,236 C 158,249 194,236 232,198 C 240,196 250,195 261,197 C 311,241 356,244 397,205 Z" fill="url(#id-47493)" id="id-47597"></path><path d=" M 262,156 C 270,179 284,201 333,203 C 381,200 406,172 406,172 C 406,161 406,156 406,156 C 383,175 359,184 335,185 C 299,185 263,152 262,156 Z" fill="url(#id-47494)" id="id-47598"></path><path d=" M 411,107 C 416,106 418,106 418,106 C 418,111 418,114 418,114 C 430,124 436,128 436,128 C 424,129 418,129 418,129 C 420,148 421,158 421,158 C 414,177 411,186 411,186 C 407,275 405,319 405,319 C 405,319 396,206 396,206 C 408,188 410,167 402,143 C 405,120 411,107 411,107 Z" fill="#011B34" id="id-47599"></path><path d=" M 444,489 L 406,393 L 404,300 L 411,186 C 418,167 421,158 421,158 C 420,147 419,141 419,141 L 478,115 C 478,133 478,141 478,141 L 483,289 L 462,324 L 433,400 L 444,489 Z" fill="#067E9E" id="id-47600"></path><path d=" M 228,277 C 223,257 217,238 210,218 L 232,198 C 242,196 252,195 261,197 C 274,209 291,219 291,219 L 270,277 C 252,279 238,279 228,277 Z" fill="#006B87" id="id-47601"></path><path d=" M 452,406 C 471,403 480,402 480,402 C 486,379 488,367 488,367 C 481,360 477,356 477,356 C 452,360 440,362 440,362 L 430,379 C 444,397 452,406 452,406 Z" fill="#5D6C83" id="id-47602"></path><path d=" M 439,362 C 454,363 461,364 461,364 C 466,386 468,397 468,397 C 460,405 456,409 456,409 L 427,377 C 435,367 439,362 439,362 Z" fill="#404F64" id="id-47603"></path><path d=" M 477,351 L 477,351 C 478,351 483,356 493,366 C 493,366 490,379 484,405 C 484,405 484,405 484,405 L 484,405 C 484,405 474,407 454,411 C 454,411 444,400 423,378 L 423,378 L 438,357 C 438,357 451,355 477,351 L 477,351 Z M 477,356 C 454,360 442,362 440,362 L 440,362 C 440,362 440,362 440,362 L 430,379 C 444,397 452,406 452,406 C 465,404 474,403 477,402 L 478,402 C 479,402 480,402 480,402 C 481,399 481,396 482,394 L 482,393 C 486,377 488,369 488,368 L 488,367 C 488,367 488,367 488,367 C 483,361 479,358 478,357 L 478,357 C 478,356 478,356 478,356 L 477,356 C 477,356 477,356 477,356 Z" fill="#2B384D" id="id-47581"></path><path d=" M 424,317 C 448,315 460,315 460,315 C 467,215 470,166 470,166 C 453,173 445,177 445,177 L 416,239 C 422,291 424,317 424,317 Z" fill="#00A6BC" id="id-47605"></path><path d=" M 442,267 C 441,270 440,272 440,272 C 469,289 483,297 483,297 L 483,291 C 455,275 442,267 442,267 Z" fill="#29384D" id="id-47606"></path><path d=" M 453,250 C 458,252 461,253 461,253 C 459,262 457,267 457,267 L 453,266 C 453,256 453,250 453,250 Z" fill="#29384D" id="id-47607"></path><path d=" M 453,241 C 459,243 462,243 462,243 C 463,214 464,199 464,199 C 474,198 479,198 479,198 C 479,183 479,176 479,176 L 456,183 C 454,222 453,241 453,241 Z" fill="#29384D" id="id-47608"></path><path d=" M 483,281 C 469,272 463,268 463,268 C 466,250 468,242 468,242 L 481,247 C 482,270 483,281 483,281 Z" fill="#29384D" id="id-47609"></path><path d=" M 481,236 C 470,233 465,231 465,231 C 467,217 467,209 467,209 L 480,209 C 480,227 481,236 481,236 Z" fill="#29384D" id="id-47610"></path><path d=" M 216,82 C 250,135 244,166 244,166 C 248,169 251,170 251,170 C 253,148 262,120 276,84 L 253,91 C 236,86 224,83 216,82 Z" fill="#00DCE5" id="id-47611"></path><path d=" M 106,92 L 73,152 L 46,93 L 45,153 L 69,174 L 95,236 L 92,410 L 99,393 L 106,217 L 82,175 C 100,147 110,133 110,133 L 106,119 L 106,92 Z" fill="#0182A2" id="id-47612"></path><polygon points="104 121 106 138 86 148" fill="#001A34" id="id-47613"></polygon><path d=" M 99,393 C 99,395 98,396 97,398 C 97,371 101,312 101,312 L 105,315 C 101,367 99,393 99,393 Z" fill="#1E4F67" id="id-47614"></path><polygon points="49 502 101 373 99 393" fill="#020406" fill-opacity="0.500" id="id-47615"></polygon><path d=" M 347,232 C 317,236 278,227 248,198 C 223,225 169,243 158,239 C 97,231 100,180 100,180 C 136,209 185,206 248,172 C 332,241 406,172 406,172 C 407,203 387,223 347,232 Z" fill="#0184A2" opacity="0.897" id="id-47522"></path><path d=" M 89,0 L 122,4 C 106,8 98,11 98,11 L 78,8 C 86,3 89,0 89,0 Z" fill="#92A5C3" id="id-47617"></path><path d=" M 231,197 C 242,207 247,212 247,212 C 256,202 261,196 261,196 C 257,190 256,187 256,187 L 237,189 C 233,194 231,197 231,197 Z" fill="#010005" id="id-47618"></path><polygon points="267 284 269 345 324 349 324 291 301 278" fill="#005975" id="id-47619"></polygon><path d=" M 501,375 C 489,363 463,323 463,323 C 476,300 483,289 483,289 L 484,305 C 493,342 498,366 501,375 Z" fill="#0080A0" id="id-47620"></path><path d=" M 120,101 L 139,92 C 135,74 133,66 133,66 L 128,63 L 109,75 L 120,101 Z" fill="#F30150" id="id-47621"></path><polygon points="113 86 130 77 128 63 109 75" fill="#FE877B" id="id-47622"></polygon><polygon points="363 82 379 94 398 77 399 71 384 57 380 57" fill="#F10050" id="id-47623"></polygon><path d=" M 382,58 L 397,71 L 389,79 L 376,68 C 380,62 382,58 382,58 Z" fill="#FE877B" id="id-47624"></path></g><path d=" M 407,123 C 407,123 408,122 409,122 C 409,121 410,120 410,120 L 410,120 L 410,111 C 410,111 409,110 409,109 C 408,109 407,108 407,108 L 407,108 L 404,108 C 404,108 404,108 404,108 C 403,108 403,108 403,107 L 403,107 L 403,101 C 403,101 403,101 404,100 C 404,100 404,100 404,100 L 404,100 L 406,100 C 406,100 406,100 406,100 C 406,101 406,101 406,101 L 406,101 L 406,106 L 410,106 L 410,100 C 410,99 409,99 409,98 C 408,97 407,97 407,97 L 407,97 L 403,97 C 402,97 402,97 401,98 C 400,99 400,99 400,100 L 400,100 L 400,108 C 400,109 400,110 401,111 C 402,111 402,111 403,111 L 403,111 L 406,111 C 406,111 406,111 406,112 C 406,112 406,112 406,112 L 406,112 L 406,119 C 406,119 406,119 406,119 C 406,119 406,119 406,119 L 406,119 L 404,119 C 404,119 404,119 404,119 C 403,119 403,119 403,119 L 403,119 L 403,114 L 400,114 L 400,120 C 400,120 400,121 401,122 C 402,122 402,123 403,123 L 403,123 L 407,123 Z M 422,123 L 422,119 L 417,119 L 417,111 L 422,111 L 422,108 L 417,108 L 417,100 L 422,100 L 422,97 L 414,97 L 414,123 L 422,123 Z M 430,123 L 430,100 L 433,100 L 433,97 L 424,97 L 424,100 L 427,100 L 427,123 L 430,123 Z M 403,157 L 403,145 L 408,145 L 408,142 L 403,142 L 403,134 L 408,134 L 408,131 L 400,131 L 400,157 L 403,157 Z M 417,157 C 418,157 418,156 419,156 C 420,155 420,154 420,154 L 420,154 L 420,134 C 420,133 420,133 419,132 C 418,131 418,131 417,131 L 417,131 L 413,131 C 412,131 412,131 411,132 C 410,133 410,133 410,134 L 410,134 L 410,154 C 410,154 410,155 411,156 C 412,156 412,157 413,157 L 413,157 L 417,157 Z M 416,153 L 414,153 C 414,153 414,153 414,153 C 414,153 413,153 413,153 L 413,153 L 413,135 C 413,135 414,135 414,134 C 414,134 414,134 414,134 L 414,134 L 416,134 C 416,134 416,134 416,134 C 416,135 417,135 417,135 L 417,135 L 417,153 C 417,153 416,153 416,153 C 416,153 416,153 416,153 L 416,153 Z M 427,157 L 427,145 L 428,145 L 432,157 L 436,157 L 432,145 C 432,145 433,145 433,144 C 434,144 434,143 434,142 L 434,142 L 434,134 C 434,133 433,133 433,132 C 432,131 431,131 431,131 L 431,131 L 424,131 L 424,157 L 427,157 Z M 430,142 L 427,142 L 427,134 L 430,134 C 430,134 430,134 430,134 C 430,135 430,135 430,135 L 430,135 L 430,141 C 430,142 430,142 430,142 C 430,142 430,142 430,142 L 430,142 Z M 443,157 L 443,134 L 445,134 L 445,131 L 437,131 L 437,134 L 439,134 L 439,157 L 443,157 Z M 451,157 L 451,145 L 454,145 L 454,157 L 457,157 L 457,131 L 454,131 L 454,142 L 451,142 L 451,131 L 448,131 L 448,157 L 451,157 Z" fill="#9AA7C2" id="id-47625" fill-rule="nonzero"></path></g></g><defs><linearGradient x1="50%" y1="0%" x2="50%" y2="100%" id="id-61847"><stop stop-color="#FD4A00" offset="0%"></stop><stop stop-color="#FFE400" offset="100%" stop-opacity="0.503"></stop></linearGradient></defs><g transform=" translate(595,373)" id="id-61848"><path d=" M 65,80 C 92,40 106,19 106,19 C 99,10 96,5 96,5 C 76,-4 52,-1 26,12 L 21,21 C 50,60 65,80 65,80 Z" fill="url(#id-61847)" opacity="0.615" id="id-61849"></path><path d=" M 59,75 C 52,86 49,91 49,91 C 44,89 41,88 41,88 C 43,92 44,94 44,94 C 34,85 22,79 3,90 C 1,78 0,72 0,72 C 5,68 13,67 25,68 L 16,64 C 44,71 59,75 59,75 Z" fill="#EB5F00" fill-opacity="0.483" id="id-61850"></path><path d=" M 5,96 C 11,104 15,108 15,108 C 27,110 34,107 41,104 C 27,103 14,101 5,96 Z" fill="#EB5F00" fill-opacity="0.483" id="id-61851"></path><path d=" M 30,113 C 37,108 41,105 41,105 L 37,118 C 32,114 30,113 30,113 Z" fill="#89D12E" id="id-61852"></path><path d=" M 89,105 L 91,118 C 91,118 93,116 98,113 L 89,105 Z" fill="#89D12E" id="id-61853"></path><path d=" M 87,102 C 99,110 112,110 127,95 C 112,99 99,101 87,102 Z" fill="#EB5F00" fill-opacity="0.483" id="id-61854"></path><path d=" M 82,92 C 88,87 96,81 127,89 C 127,72 128,64 128,64 C 101,68 82,71 70,75 C 74,84 77,88 77,88 L 84,86 C 83,90 82,92 82,92 Z" fill="#EB5F00" fill-opacity="0.483" id="id-61855"></path><path d=" M 15,109 C 19,153 21,175 21,175 C 24,133 25,112 25,112 L 29,108 C 25,109 20,109 15,109 Z" fill="#FFCD00" fill-opacity="0.559" id="id-61856"></path><path d=" M 102,108 C 105,152 107,174 107,174 L 113,106 C 108,108 104,108 102,108 Z" fill="#FFCD00" fill-opacity="0.559" id="id-61857"></path><path d=" M 15,37 C 11,44 9,47 9,47 L 17,47 C 16,40 15,37 15,37 Z" fill="#FFCD00" fill-opacity="0.559" id="id-61858"></path><path d=" M 36,47 C 32,51 29,52 29,52 L 38,53 C 37,49 36,47 36,47 Z" fill="#FFCD00" fill-opacity="0.559" id="id-61859"></path><path d=" M 32,43 C 24,42 21,42 21,42 L 20,30 C 28,39 32,43 32,43 Z" fill="#FFCD00" fill-opacity="0.559" id="id-61860"></path><path d=" M 93,44 C 101,33 105,28 105,28 L 107,37 C 98,42 93,44 93,44 Z" fill="#FFCD00" fill-opacity="0.559" id="id-61861"></path><path d=" M 96,50 C 103,46 106,45 106,45 L 104,52 C 99,50 96,50 96,50 Z" fill="#FFCD00" fill-opacity="0.559" id="id-61862"></path><path d=" M 90,54 C 92,57 93,58 93,58 L 86,58 C 89,55 90,54 90,54 Z" fill="#FFCD00" fill-opacity="0.559" id="id-61863"></path></g><defs></defs><g transform=" translate(592,424)" id="id-62085"><path d=" M 8,0 C 5,3 3,10 0,19 L 4,24 C 6,17 8,10 11,5 C 10,4 8,1 8,0 Z" fill="#EC8E25" id="id-62086"></path><path d=" M 5,5 C 7,5 8,6 10,6 C 9,9 8,12 7,15 C 6,14 4,14 2,13 C 3,9 4,7 5,5 Z" fill="#FFD76E" id="id-62087"></path><path d=" M 61,82 C 59,83 59,83 59,84 C 58,87 60,88 60,90 C 64,91 71,91 76,91 C 78,89 78,86 78,83 C 75,86 70,86 64,85 C 62,86 61,85 61,82 Z" fill="#853900" id="id-62088"></path><path d=" M 61,82 C 59,83 60,82 60,83 C 60,84 60,85 60,86 C 61,87 73,88 78,88 C 78,87 78,85 78,83 C 74,87 62,86 61,82 Z" fill="#EC8E22" id="id-62089"></path><path d=" M 71,87 C 73,86 75,85 77,84 C 78,85 77,87 76,88 C 74,89 70,89 71,87 Z" fill="#FED76F" id="id-62090"></path></g><defs><linearGradient x1="50%" y1="0%" x2="50%" y2="87%" id="id-64218"><stop stop-color="#008F92" offset="0%"></stop><stop stop-color="#008F92" offset="46%"></stop><stop stop-color="#006263" offset="67%"></stop><stop stop-color="#004242" offset="100%"></stop></linearGradient></defs><g transform=" translate(538,297)" id="id-64219"><path d=" M 60,98 C 66,94 68,92 68,92 C 66,90 65,89 66,89 C 71,90 95,90 95,90 C 111,95 118,98 118,98 C 119,92 119,89 119,89 C 123,93 125,95 125,95 C 126,88 126,84 126,84 C 130,90 132,92 132,92 C 142,88 146,85 146,85 L 154,91 C 163,88 173,87 183,89 L 196,102 L 194,121 L 203,150 L 205,173 L 211,152 L 211,97 C 216,90 218,86 218,86 C 217,82 216,80 216,80 C 218,80 219,79 219,78 C 218,69 220,68 214,62 C 210,46 211,40 209,30 C 205,22 202,18 196,13 C 193,14 183,18 176,20 C 169,21 133,1 133,1 L 90,1 L 59,13 L 77,13 C 72,15 68,18 63,21 C 37,30 21,42 14,55 L 28,48 L 13,66 L 0,75 C 11,71 17,69 17,69 L 17,77 C 12,83 9,88 7,92 C 6,93 6,96 5,100 C 7,95 10,91 11,89 C 16,84 18,82 22,81 L 16,96 L 10,103 L 6,117 C 6,136 5,146 5,146 C 14,129 18,120 18,120 L 18,142 L 22,122 C 28,136 30,142 30,142 L 35,126 C 35,135 35,142 35,146 C 36,152 37,162 39,175 L 43,141 L 54,121 C 58,106 60,98 60,98 Z" fill="url(#id-64218)" id="id-64220"></path><g transform=" translate(7,0)" fill="#004343" id="id-64221"><path d=" M 147,91 C 152,89 156,88 159,88 L 162,84 L 163,75 L 161,78 L 158,79 L 150,64 C 147,45 144,33 139,29 C 134,24 118,19 111,19 C 78,19 55,33 41,61 L 68,63 L 64,55 L 72,58 L 68,53 L 90,59 C 82,46 72,40 63,40 C 73,30 89,34 112,52 C 107,45 103,40 98,37 C 106,36 116,41 127,54 L 119,41 L 130,50 L 125,39 L 148,70 L 154,84 L 147,91 Z" id="id-64220"></path><path d=" M 176,89 L 189,102 L 204,97 C 209,90 211,86 211,86 C 210,82 209,80 209,80 C 211,80 212,79 212,78 C 211,69 213,68 207,62 C 203,46 204,40 202,30 C 201,27 198,37 196,60 L 190,78 L 201,70 L 205,62 L 203,69 L 205,78 L 187,97 L 181,90 L 176,89 Z" id="id-64220"></path><path d=" M 133,17 C 141,21 148,25 154,28 C 159,40 161,54 161,54 C 161,54 158,42 152,30 C 145,24 133,17 133,17 Z" id="id-64224"></path><path d=" M 45,9 C 46,8 51,6 58,2 L 89,0 L 100,5 C 78,3 60,4 45,9 Z" id="id-64225"></path><polygon points="162 88 167 88 180 65 177 67" id="id-64226"></polygon><polygon points="130 90 133 89 116 64" id="id-64227"></polygon><polygon points="139 85 135 66 143 88" id="id-64228"></polygon><polygon points="119 84 119 88 103 64" id="id-64229"></polygon><path d=" M 52,13 L 69,13 L 89,10 C 83,9 78,9 73,9 C 69,9 62,11 52,13 Z" id="id-64230"></path><polygon points="29 44 39 43 44 37" id="id-64231"></polygon><polygon points="10 78 10 69 36 62 25 75" id="id-64232"></polygon><polygon points="9 96 15 81 28 82 15 88" id="id-64233"></polygon><polygon points="27 126 43 106 51 101 39 99 59 89 45 84 32 83 17 92 1 119 13 110 6 119 12 117 12 124 25 107 18 124 27 116" id="id-64234"></polygon><polygon points="118 95 98 73 84 68 94 73 112 90 112 89" id="id-64235"></polygon><polygon points="111 98 111 93 97 78 76 72 88 84 68 76 93 92" id="id-64236"></polygon></g><g transform=" translate(23,7)" id="id-64237"><path d=" M 44,63 C 53,66 62,71 72,78 C 69,73 65,69 60,65 C 55,63 51,63 44,63 Z" fill="#2AD9CA" id="id-64238"></path><path d=" M 84,52 C 95,64 100,70 100,71 C 99,71 94,65 85,54 L 84,52 Z" fill="#1EC9C8" id="id-64239"></path><path d=" M 96,38 C 99,41 105,52 113,70 C 111,61 109,55 107,50 C 102,42 100,40 96,38 Z" fill="#22CFD2" id="id-64240"></path><path d=" M 120,47 C 124,54 127,64 131,78 C 131,71 130,64 127,57 C 123,50 124,51 120,47 Z" fill="#2BBEBF" id="id-64241"></path><path d=" M 140,59 C 137,49 134,38 130,26 C 123,19 115,14 104,9 C 116,11 126,16 132,24 C 136,32 139,44 140,59 Z" fill="#1BCFD1" id="id-64242"></path><path d=" M 124,1 C 129,5 135,12 140,20 C 143,29 146,42 148,58 C 148,41 146,28 143,19 C 145,20 147,23 151,26 L 144,10 L 124,1 Z" fill="#58D9DC" id="id-64243"></path><path d=" M 156,17 C 157,17 158,17 159,17 C 161,20 163,23 164,27 L 162,27 L 156,17 Z" fill="#24C5BC" id="id-64244"></path><path d=" M 164,17 C 165,20 166,23 166,27 L 170,27 L 169,17 C 168,17 166,17 164,17 Z" fill="#24C5BC" id="id-64245"></path><polygon points="151 34 157 56 159 41" fill="#24C5BC" id="id-64246"></polygon><polygon points="166 32 159 61 164 56" fill="#58D9DC" id="id-64247"></polygon><path d=" M 168,64 C 160,75 156,81 156,81 L 160,82 L 168,64 Z" fill="#24C5BC" id="id-64248"></path><path d=" M 165,83 C 171,66 176,56 180,53 C 181,51 174,71 174,71 C 181,66 184,63 184,63 C 188,55 190,51 190,51 C 190,54 190,55 190,55 L 187,62 L 188,65 C 180,74 176,79 176,79 L 167,85 L 165,83 Z" fill="#24C5BC" id="id-64249"></path><path d=" M 171,7 C 178,36 170,45 169,56 C 171,52 178,41 178,41 C 178,41 179,22 178,13 C 177,10 175,7 173,6 C 172,6 172,6 171,7 Z" fill="#21CBC5" id="id-64250"></path><path d=" M 24,51 C 27,43 30,36 34,29 C 47,17 67,8 67,8 C 79,6 87,6 89,6 C 34,17 24,51 24,51 Z" fill="#2BD0CF" id="id-64251"></path><path d=" M 6,132 C 5,130 4,128 3,125 C 4,118 7,113 11,109 C 8,115 6,123 6,132 Z" fill="#27C7C1" id="id-64252"></path><path d=" M 0,118 C 1,119 1,120 2,121 C 2,114 4,107 9,100 C 5,104 2,110 0,118 Z" fill="#27C7C1" id="id-64253"></path></g></g><defs><linearGradient x1="47%" y1="26%" x2="50%" y2="100%" id="id-68297"><stop stop-color="#9C000C" offset="0%"></stop><stop stop-color="#630005" offset="100%"></stop></linearGradient><linearGradient x1="3%" y1="74%" x2="71%" y2="21%" id="id-68298"><stop stop-color="#D70000" offset="0%"></stop><stop stop-color="#FF5B5B" offset="100%"></stop></linearGradient><linearGradient x1="50%" y1="73%" x2="58%" y2="21%" id="id-68299"><stop stop-color="#ED0012" offset="0%"></stop><stop stop-color="#940006" offset="100%"></stop></linearGradient><linearGradient x1="47%" y1="26%" x2="50%" y2="100%" id="id-68300"><stop stop-color="#C6000F" offset="0%"></stop><stop stop-color="#FF000D" offset="100%"></stop></linearGradient><linearGradient x1="45%" y1="85%" x2="58%" y2="28%" id="id-68301"><stop stop-color="#A9000D" offset="0%"></stop><stop stop-color="#FF7378" offset="100%"></stop></linearGradient><linearGradient x1="34%" y1="71%" x2="65%" y2="12%" id="id-68302"><stop stop-color="#720007" offset="0%"></stop><stop stop-color="#FF5B5B" offset="100%"></stop></linearGradient></defs><g transform=" translate(554,229)" id="id-68303"><g transform=" translate(0,1)" id="id-68304"><polygon points="48 125 37 116 34 106 37 96 53 82 58 70 50 37 55 0 45 14 40 33 41 62 9 98 1 119 4 142 17 156 33 166" fill="url(#id-68297)" id="id-68305"></polygon><polygon points="55 55 50 37 55 0 45 14 45 25 46 39 51 45" fill="#530000" id="id-68305"></polygon><polygon points="9 98 1 119 12 106 50 77 59 70 54 52 41 62" fill="url(#id-68298)" id="id-68305"></polygon><polygon points="54 127 37 116 34 106 37 96 53 82 59 70 50 79 27 101 15 124 24 149 33 167 48 148" fill="url(#id-68299)" id="id-68305"></polygon><polygon points="55 128 37 116 34 106 33 119 44 133 48 148" fill="#FF5D5D" id="id-68305"></polygon><polygon points="55 0 45 14 40 33 48 17 54 9" fill="#FB5151" id="id-68305"></polygon></g><g transform=" translate(185,85) scale(-1,1) rotate(-3) translate(-185,-85) translate(156,2)" id="id-68304"><polygon points="48 124 37 114 34 105 37 95 53 80 58 67 50 34 45 10 40 29 41 60 9 97 1 118 4 141 17 156 33 166 47 148" fill="url(#id-68300)" id="id-68305"></polygon><polygon points="54 126 37 114 34 105 37 95 53 80 59 68 52 40 54 69 26 88 11 104 18 143 38 159 47 148" fill="url(#id-68301)" id="id-68305"></polygon><polygon points="55 127 37 114 34 105 37 95 29 104 25 118 33 139 47 148" fill="#7C0000" id="id-68305"></polygon><polygon points="9 97 1 118 3 134 12 105 59 68 55 53 53 45" fill="url(#id-68302)" id="id-68305"></polygon><polygon points="55 52 50 34 53 11 57 0 45 10 44 27" fill="#6B0006" id="id-68305"></polygon></g></g><defs></defs><g transform=" translate(1199,1639)" fill="#343D53" opacity="0.297" id="id-77056"><path d=" M 49,11 C 49,12 49,12 50,14 C 52,15 54,16 56,15 C 57,15 57,15 57,15 C 57,15 57,15 57,15 C 57,14 58,14 58,14 C 58,14 58,14 58,14 C 68,23 72,38 66,50 C 66,52 65,52 64,54 C 64,54 64,55 63,55 C 63,55 61,52 57,53 C 55,54 54,55 53,56 C 53,56 53,56 53,57 C 51,61 55,63 55,64 L 48,67 C 46,68 45,68 43,68 C 37,69 34,69 29,68 C 29,68 28,67 28,67 C 26,67 25,66 23,65 C 22,64 20,64 19,63 L 15,59 L 13,57 C 13,57 13,57 13,56 C 12,56 12,56 12,56 C 11,55 10,52 9,51 C 8,48 8,48 7,45 C 7,42 6,40 6,37 C 6,36 7,32 7,31 C 8,31 9,31 10,31 C 10,30 11,30 11,29 C 12,27 12,25 10,24 L 12,20 L 14,17 C 15,16 16,15 17,14 C 17,14 17,14 17,14 C 21,11 23,10 28,8 C 30,7 34,6 37,6 C 41,6 46,7 50,9 C 49,9 49,10 49,11 L 49,11 Z M 0,36 C 0,40 0,41 1,45 C 1,46 1,46 1,47 C 2,49 3,52 4,54 C 5,58 6,59 9,62 C 12,66 19,71 24,73 C 27,74 30,75 33,75 C 39,76 37,75 42,75 C 43,75 43,75 44,75 C 50,74 55,71 60,68 L 64,64 L 69,58 L 71,55 C 71,54 72,54 72,53 L 72,52 C 73,50 74,49 74,47 C 74,47 74,47 74,46 C 76,39 75,29 72,22 L 70,19 C 70,19 70,18 70,18 C 69,17 69,17 69,16 C 68,16 68,16 68,16 C 68,16 68,15 68,15 L 66,13 C 65,12 63,10 62,9 C 60,7 57,5 55,4 L 50,2 C 48,2 45,1 43,0 C 38,0 34,0 28,1 C 28,1 27,1 27,2 C 26,2 26,2 25,2 C 21,4 18,5 15,8 C 12,10 8,13 7,16 C 6,17 5,19 4,20 L 4,22 C 3,22 3,23 3,23 L 2,26 C 1,27 1,28 1,28 C 1,29 1,29 1,30 C 0,32 0,34 0,36 L 0,36 Z" id="id-77057"></path><path d=" M 37,40 C 37,44 42,47 45,45 L 47,44 C 47,44 48,43 48,42 C 50,39 48,34 43,34 C 42,34 40,34 39,36 L 38,36 C 38,37 37,39 37,40 Z" id="id-77058"></path><path d=" M 21,42 C 21,43 22,45 24,46 C 27,48 31,46 31,41 C 31,36 24,35 22,40 C 22,40 21,41 21,42 L 21,42 Z" id="id-77058"></path><path d=" M 36,61 C 36,63 37,64 38,65 C 38,65 38,65 38,65 L 38,66 C 39,66 39,66 39,66 C 42,67 45,65 45,62 C 45,59 42,57 39,58 C 38,58 36,60 36,61 L 36,61 Z" id="id-77058"></path><path d=" M 52,20 C 52,23 56,24 58,22 C 61,19 56,15 53,18 C 53,18 52,19 52,20 L 52,20 Z" id="id-77058"></path><path d=" M 18,52 C 18,53 18,54 19,54 C 19,55 20,55 21,55 C 22,55 23,54 24,54 C 24,52 24,51 23,50 C 23,49 22,49 21,49 C 20,49 19,50 18,51 C 18,51 18,52 18,52 L 18,52 Z" id="id-77058"></path><path d=" M 29,26 C 29,30 34,31 35,28 C 35,26 35,25 34,24 C 34,24 34,24 34,24 C 34,24 34,24 33,24 C 31,23 29,24 29,26 Z" id="id-77058"></path></g></svg>