<?xml version="1.0" encoding="UTF-8"?><svg width="1320px" height="1760px" viewBox="0 0 1320 1760" version="1.1" xmlns="http://www.w3.org/2000/svg" xmlns:xlink="http://www.w3.org/1999/xlink"><defs></defs><g stroke="none" stroke-width="1" fill="none" id="id-31520" fill-rule="evenodd"><g id="id-31521"><rect fill="#7B4F4F" width="1320" height="1760" x="0" y="0" id="id-31522"></rect><g transform=" translate(35,425)" fill="#13161B" id="id-31523"><path d=" M 60,72 C 207,72 280,72 280,72 C 280,146 280,183 280,183 C 228,214 201,229 201,229 L 201,148 L 139,148 L 139,497 L 201,497 C 201,461 201,443 201,443 C 254,412 280,397 280,397 C 280,431 280,448 280,448 C 217,531 186,572 186,572 L 60,573 C 60,564 60,560 60,560 C 34,574 22,581 22,581 L 59,535 C 59,307 59,193 59,193 C 77,168 86,155 86,155 C 75,152 70,151 70,151 C 91,121 101,107 101,107 L 59,141 C 60,95 60,72 60,72 Z" id="id-31524"></path><path d=" M 0,547 C 28,493 43,466 43,466 L 44,516 C 15,537 0,547 0,547 Z" id="id-31525"></path><path d=" M 280,573 C 222,573 193,573 193,573 L 281,488 C 280,545 280,573 280,573 Z" id="id-31526"></path><path d=" M 269,620 L 331,563 C 331,512 331,486 331,486 L 412,439 L 412,497 L 472,497 C 472,444 472,418 472,418 C 505,376 522,355 522,355 C 490,383 473,398 473,398 C 473,353 473,330 473,330 L 331,411 L 331,72 C 385,72 412,72 412,72 C 411,206 411,273 411,273 L 474,237 L 474,72 L 553,72 C 553,142 553,177 553,177 C 491,239 460,271 460,271 L 552,198 L 552,572 L 354,572 C 298,604 269,620 269,620 Z" id="id-31527"></path><path d=" M 786,72 L 724,141 C 724,141 754,118 813,73 L 813,73 L 832,73 L 832,288 L 774,322 L 774,322 L 830,322 L 752,379 L 752,335 L 691,370 L 691,370 L 691,429 L 611,490 L 611,252 L 569,272 C 569,272 583,255 612,222 L 612,222 L 612,73 L 786,72 Z M 792,108 C 762,134 747,147 747,147 C 710,148 691,148 691,148 C 691,229 691,273 691,281 L 691,281 C 691,281 691,282 691,282 L 691,282 L 691,282 L 752,247 L 752,168 C 778,130 792,110 792,109 L 792,108 L 792,108 Z" id="id-31528"></path><path d=" M 802,63 C 815,41 822,29 822,29 C 857,10 874,0 874,0 L 849,39 C 818,55 802,63 802,63 Z" id="id-31529"></path><path d=" M 847,157 L 890,107 L 890,72 C 910,72 920,72 920,72 C 932,58 939,51 939,51 C 941,51 943,51 943,51 L 930,72 C 945,72 952,72 952,72 C 963,84 969,90 969,90 C 975,81 978,77 978,77 C 985,88 988,93 988,93 C 994,79 996,72 996,72 C 1046,72 1071,72 1071,72 C 1022,122 998,147 998,147 C 979,148 970,148 970,148 C 970,166 970,175 970,175 C 917,226 890,252 890,252 L 890,129 C 861,148 847,157 847,157 Z" id="id-31530"></path></g><path d=" M 1245,346 L 182,1760 L 0,1760 L 0,972 C 135,1337 750,916 1245,346 L 1245,346 Z M 361,1554 L 275,1760 L 204,1760 L 204,1760 L 361,1554 Z M 1320,298 L 1320,356 L 1320,356 L 1191,470 L 1320,298 Z M 1223,304 C 1223,304 1198,330 1148,382 L 1148,382 L 1180,318 C 1180,318 1194,314 1223,304 Z" fill="#A16464" id="id-31528"></path><path d=" M 1214,464 C 1194,476 1184,482 1184,482 C 825,961 645,1200 645,1200 L 656,1208 C 1028,712 1214,464 1214,464 Z M 627,1225 C 617,1237 612,1243 612,1243 C 619,1248 623,1251 623,1251 L 637,1233 C 630,1228 627,1225 627,1225 Z M 612,1266 C 606,1273 604,1277 604,1277 C 597,1271 593,1269 593,1269 L 601,1258 C 608,1263 612,1266 612,1266 Z" fill="#A16464" id="id-31528"></path><path d=" M 1320,560 C 1320,575 1320,583 1320,583 C 1163,790 1085,893 1085,893 L 1074,886 L 1320,560 Z M 1058,907 C 1066,912 1069,915 1069,915 C 1050,941 1040,954 1040,954 L 1029,945 C 1049,920 1058,907 1058,907 Z" fill="#A16464" id="id-31528"></path><path d=" M 1320,1001 C 1186,1178 1119,1267 1119,1267 L 1130,1275 L 1320,1022 C 1320,1008 1320,1001 1320,1001 Z M 1101,1292 C 1091,1304 1086,1310 1086,1310 C 1093,1315 1097,1318 1097,1318 L 1111,1300 C 1104,1294 1101,1292 1101,1292 Z M 1075,1325 C 1070,1332 1068,1335 1068,1335 C 1075,1341 1078,1344 1078,1344 L 1086,1333 C 1079,1328 1075,1325 1075,1325 Z" fill="#A16464" id="id-31528"></path><path d=" M 761,1701 C 768,1707 771,1709 771,1709 C 790,1683 800,1670 800,1670 L 789,1664 C 770,1689 761,1701 761,1701 Z M 805,1642 C 813,1647 816,1649 816,1649 C 1053,1335 1172,1177 1172,1177 L 1161,1170 C 924,1485 805,1642 805,1642 Z" fill="#A16464" id="id-31528"></path><path d=" M 890,1230 C 871,1256 861,1268 861,1268 C 868,1274 872,1277 872,1277 L 901,1238 C 894,1233 890,1230 890,1230 Z M 906,1209 C 913,1214 917,1217 917,1217 C 1149,908 1265,754 1265,754 L 1255,746 C 1023,1055 906,1209 906,1209 Z" fill="#A16464" id="id-31528"></path></g></g><defs></defs><path d=" M 969,843 L 962,837 C 943,870 808,1258 808,1258 C 743,1352 685,1411 635,1436 C 607,1450 548,1449 458,1432 C 446,1426 390,1417 290,1405 C 282,1397 505,576 511,575 L 510,575 L 483,565 L 488,525 C 488,525 515,501 518,476 C 521,452 541,412 543,383 C 546,354 551,282 604,258 C 735,201 764,328 769,404 C 772,410 820,525 823,538 C 826,550 819,557 819,557 C 823,563 833,578 837,584 C 837,584 903,660 942,736 C 958,768 969,843 969,843 Z" fill="#101724" id="id-110058"></path><defs><linearGradient x1="50%" y1="6%" x2="50%" y2="100%" id="id-110216"><stop stop-color="#AC705D" offset="0%"></stop><stop stop-color="#FFDDBC" offset="8%"></stop><stop stop-color="#E9AF8E" offset="20%"></stop><stop stop-color="#E7AD8D" offset="34%"></stop><stop stop-color="#D4856F" offset="71%"></stop><stop stop-color="#C37F6D" offset="100%"></stop></linearGradient><linearGradient x1="50%" y1="-10%" x2="50%" y2="84%" id="id-110217"><stop stop-color="#E0A582" offset="0%"></stop><stop stop-color="#F6C49E" offset="49%"></stop><stop stop-color="#D09479" offset="100%"></stop></linearGradient><linearGradient x1="57%" y1="50%" x2="47%" y2="56%" id="id-110218"><stop stop-color="#E2AD9F" offset="0%"></stop><stop stop-color="#B46D61" offset="100%"></stop></linearGradient><linearGradient x1="45%" y1="35%" x2="55%" y2="47%" id="id-110219"><stop stop-color="#E9AC94" offset="0%"></stop><stop stop-color="#C37F6D" offset="100%"></stop></linearGradient><linearGradient x1="54%" y1="31%" x2="47%" y2="81%" id="id-110220"><stop stop-color="#E7AE8D" offset="0%"></stop><stop stop-color="#D8997B" offset="20%"></stop><stop stop-color="#DFA083" offset="71%"></stop><stop stop-color="#C5816D" offset="81%"></stop><stop stop-color="#BC7665" offset="100%"></stop></linearGradient><linearGradient x1="43%" y1="38%" x2="54%" y2="44%" id="id-110221"><stop stop-color="#E0A384" offset="0%"></stop><stop stop-color="#DDA081" offset="100%"></stop></linearGradient><linearGradient x1="46%" y1="26%" x2="59%" y2="75%" id="id-110222"><stop stop-color="#FFDBB9" offset="0%"></stop><stop stop-color="#D7917A" offset="100%"></stop></linearGradient><linearGradient x1="50%" y1="41%" x2="49%" y2="66%" id="id-110223"><stop stop-color="#6A4862" offset="0%"></stop><stop stop-color="#A76F5B" offset="27%"></stop><stop stop-color="#E9B090" offset="100%"></stop></linearGradient><linearGradient x1="63%" y1="4%" x2="25%" y2="77%" id="id-110224"><stop stop-color="#FFF1DE" offset="0%"></stop><stop stop-color="#FFEED9" offset="56%"></stop><stop stop-color="#E3AA88" offset="100%"></stop></linearGradient><linearGradient x1="50%" y1="23%" x2="41%" y2="77%" id="id-110225"><stop stop-color="#73332E" offset="0%"></stop><stop stop-color="#B77E68" offset="100%"></stop></linearGradient><linearGradient x1="47%" y1="22%" x2="55%" y2="89%" id="id-110226"><stop stop-color="#A06555" offset="0%"></stop><stop stop-color="#FAD5B9" offset="100%"></stop></linearGradient><linearGradient x1="86%" y1="87%" x2="12%" y2="66%" id="id-110227"><stop stop-color="#DEA186" offset="0%"></stop><stop stop-color="#CB8C76" offset="100%"></stop></linearGradient><linearGradient x1="71%" y1="11%" x2="50%" y2="100%" id="id-110228"><stop stop-color="#BE7D66" offset="0%" stop-opacity="0"></stop><stop stop-color="#F1BD9B" offset="100%"></stop></linearGradient><linearGradient x1="66%" y1="46%" x2="56%" y2="43%" id="id-110229"><stop stop-color="#CD8D78" offset="0%"></stop><stop stop-color="#BB786D" offset="100%"></stop></linearGradient><linearGradient x1="100%" y1="41%" x2="50%" y2="63%" id="id-110230"><stop stop-color="#6A2B27" offset="0%"></stop><stop stop-color="#743C3A" offset="100%"></stop></linearGradient><linearGradient x1="69%" y1="20%" x2="50%" y2="99%" id="id-110231"><stop stop-color="#CF8F7A" offset="0%"></stop><stop stop-color="#DD9E87" offset="100%"></stop></linearGradient><linearGradient x1="36%" y1="20%" x2="57%" y2="81%" id="id-110232"><stop stop-color="#F1BA97" offset="0%"></stop><stop stop-color="#EFB795" offset="100%"></stop></linearGradient><linearGradient x1="26%" y1="83%" x2="92%" y2="50%" id="id-110233"><stop stop-color="#FFD3AD" offset="0%"></stop><stop stop-color="#FFD3AF" offset="100%" stop-opacity="0"></stop></linearGradient><linearGradient x1="17%" y1="56%" x2="85%" y2="45%" id="id-110234"><stop stop-color="#FFEBD1" offset="0%" stop-opacity="0"></stop><stop stop-color="#FFE9D0" offset="52%"></stop><stop stop-color="#FCCEAD" offset="100%"></stop></linearGradient><linearGradient x1="17%" y1="24%" x2="74%" y2="87%" id="id-110235"><stop stop-color="#FFEDD8" offset="0%"></stop><stop stop-color="#DCA181" offset="100%"></stop></linearGradient><linearGradient x1="26%" y1="42%" x2="80%" y2="75%" id="id-110236"><stop stop-color="#FFF1DD" offset="0%"></stop><stop stop-color="#FFD4B1" offset="100%" stop-opacity="0"></stop></linearGradient><linearGradient x1="29%" y1="56%" x2="77%" y2="50%" id="id-110237"><stop stop-color="#FFEBD4" offset="0%"></stop><stop stop-color="#FEDAB7" offset="100%"></stop></linearGradient><linearGradient x1="74%" y1="24%" x2="34%" y2="74%" id="id-110238"><stop stop-color="#BA8469" offset="0%"></stop><stop stop-color="#E9AF8F" offset="0%"></stop><stop stop-color="#FFCFA8" offset="100%"></stop></linearGradient><linearGradient x1="66%" y1="100%" x2="40%" y2="0%" id="id-110239"><stop stop-color="#FAC5A3" offset="0%"></stop><stop stop-color="#FFF5E6" offset="46%"></stop><stop stop-color="#FAC8A2" offset="100%"></stop></linearGradient><linearGradient x1="52%" y1="13%" x2="59%" y2="75%" id="id-110240"><stop stop-color="#D68D79" offset="0%"></stop><stop stop-color="#EEAE91" offset="100%"></stop></linearGradient><linearGradient x1="28%" y1="76%" x2="73%" y2="20%" id="id-110241"><stop stop-color="#F0B294" offset="0%"></stop><stop stop-color="#D28271" offset="67%"></stop><stop stop-color="#DF9880" offset="100%"></stop></linearGradient><linearGradient x1="50%" y1="0%" x2="50%" y2="100%" id="id-110242"><stop stop-color="#DB957F" offset="0%"></stop><stop stop-color="#9A4F4B" offset="100%"></stop></linearGradient><linearGradient x1="66%" y1="59%" x2="24%" y2="66%" id="id-110243"><stop stop-color="#DEA07F" offset="0%"></stop><stop stop-color="#FCC8A5" offset="100%"></stop></linearGradient><linearGradient x1="41%" y1="11%" x2="64%" y2="63%" id="id-110244"><stop stop-color="#FFE6D6" offset="0%"></stop><stop stop-color="#DA957E" offset="100%"></stop></linearGradient><linearGradient x1="19%" y1="58%" x2="66%" y2="43%" id="id-110245"><stop stop-color="#FFEBD4" offset="0%"></stop><stop stop-color="#FFD1AA" offset="100%"></stop></linearGradient><linearGradient x1="73%" y1="50%" x2="30%" y2="53%" id="id-110246"><stop stop-color="#FFD1AB" offset="0%"></stop><stop stop-color="#FFF6E4" offset="100%"></stop></linearGradient><linearGradient x1="31%" y1="0%" x2="50%" y2="100%" id="id-110247"><stop stop-color="#FFF1E3" offset="0%"></stop><stop stop-color="#FFEADA" offset="100%"></stop></linearGradient><linearGradient x1="29%" y1="43%" x2="65%" y2="100%" id="id-110248"><stop stop-color="#FFE9D4" offset="0%"></stop><stop stop-color="#FECFB1" offset="100%"></stop></linearGradient><linearGradient x1="13%" y1="78%" x2="84%" y2="50%" id="id-110249"><stop stop-color="#F4BA9A" offset="0%"></stop><stop stop-color="#E2A086" offset="100%"></stop></linearGradient><linearGradient x1="50%" y1="0%" x2="36%" y2="100%" id="id-110250"><stop stop-color="#FFEBD4" offset="0%"></stop><stop stop-color="#FFDDC6" offset="100%"></stop></linearGradient><linearGradient x1="50%" y1="28%" x2="64%" y2="55%" id="id-110251"><stop stop-color="#FFE7CD" offset="0%"></stop><stop stop-color="#FFDDC0" offset="100%"></stop></linearGradient><linearGradient x1="40%" y1="55%" x2="62%" y2="71%" id="id-110252"><stop stop-color="#DCA17F" offset="0%"></stop><stop stop-color="#FAC5A0" offset="100%"></stop></linearGradient><linearGradient x1="9%" y1="37%" x2="88%" y2="55%" id="id-110253"><stop stop-color="#E3A889" offset="0%"></stop><stop stop-color="#B36F5F" offset="100%"></stop></linearGradient><linearGradient x1="62%" y1="19%" x2="50%" y2="100%" id="id-110254"><stop stop-color="#E0A686" offset="0%"></stop><stop stop-color="#BF7C68" offset="100%"></stop></linearGradient><linearGradient x1="45%" y1="18%" x2="51%" y2="67%" id="id-110255"><stop stop-color="#FFE5D3" offset="0%"></stop><stop stop-color="#F5C3A0" offset="100%"></stop></linearGradient><linearGradient x1="50%" y1="0%" x2="50%" y2="100%" id="id-110256"><stop stop-color="#F9CCB7" offset="0%"></stop><stop stop-color="#E7AD8A" offset="100%"></stop></linearGradient><linearGradient x1="45%" y1="50%" x2="58%" y2="50%" id="id-110257"><stop stop-color="#DFA288" offset="0%"></stop><stop stop-color="#FACBB3" offset="100%"></stop></linearGradient><linearGradient x1="33%" y1="74%" x2="77%" y2="42%" id="id-110258"><stop stop-color="#CE937B" offset="0%"></stop><stop stop-color="#EAB89D" offset="100%"></stop></linearGradient><linearGradient x1="63%" y1="59%" x2="38%" y2="59%" id="id-110259"><stop stop-color="#D89A80" offset="0%"></stop><stop stop-color="#ECBA9E" offset="100%"></stop></linearGradient><linearGradient x1="50%" y1="0%" x2="50%" y2="100%" id="id-110260"><stop stop-color="#D08C74" offset="0%"></stop><stop stop-color="#DF9A83" offset="100%"></stop></linearGradient><linearGradient x1="47%" y1="47%" x2="53%" y2="50%" id="id-110261"><stop stop-color="#FDE1CD" offset="0%"></stop><stop stop-color="#D68F79" offset="100%"></stop></linearGradient><linearGradient x1="50%" y1="0%" x2="50%" y2="100%" id="id-110262"><stop stop-color="#E29A83" offset="0%"></stop><stop stop-color="#DD947E" offset="100%"></stop></linearGradient><linearGradient x1="50%" y1="0%" x2="53%" y2="50%" id="id-110263"><stop stop-color="#DD9785" offset="0%"></stop><stop stop-color="#F3D9C6" offset="100%"></stop></linearGradient><linearGradient x1="0%" y1="55%" x2="99%" y2="55%" id="id-110264"><stop stop-color="#DFA59A" offset="0%"></stop><stop stop-color="#D3938D" offset="100%"></stop></linearGradient><linearGradient x1="50%" y1="0%" x2="50%" y2="100%" id="id-110265"><stop stop-color="#F0CAB1" offset="0%"></stop><stop stop-color="#DC907E" offset="100%"></stop></linearGradient><linearGradient x1="49%" y1="20%" x2="52%" y2="96%" id="id-110266"><stop stop-color="#DD9285" offset="0%"></stop><stop stop-color="#D88D79" offset="100%"></stop></linearGradient><linearGradient x1="50%" y1="0%" x2="50%" y2="100%" id="id-110267"><stop stop-color="#86363E" offset="0%"></stop><stop stop-color="#B46A5D" offset="100%"></stop></linearGradient><linearGradient x1="33%" y1="47%" x2="59%" y2="56%" id="id-110268"><stop stop-color="#F6BD9D" offset="0%"></stop><stop stop-color="#D48673" offset="100%"></stop></linearGradient></defs><g transform=" translate(304,473)" id="id-110269"><polygon points="174 662 139 824 137 906 146 1082 171 1154 176 1211 174 1230 175 1284 287 1284 284 1265 308 1195 306 1124 345 952 343 912 353 879 362 881 371 877 383 904 391 970 434 1079 457 1202 475 1252 475 1284 596 1284 600 1225 591 1146 609 1103 612 997 596 842 545 671 539 640 528 606 531 569 509 498 522 403 539 360 539 348 563 464 576 498 585 574 637 704 646 760 646 778 626 822 624 853 631 879 629 901 632 920 637 931 647 931 657 920 655 877 659 867 670 874 672 899 676 903 667 923 644 934 643 945 666 939 664 948 643 960 640 982 657 971 674 969 690 945 701 933 704 926 707 923 713 892 718 871 704 832 696 786 703 768 693 725 693 521 652 425 629 282 626 203 612 175 567 156 548 141 530 139 479 114 422 73 416 42 415 1 285 0 284 73 279 83 242 114 196 137 171 139 155 156 108 175 91 228 91 287 68 431 30 516 23 602 28 725 16 764 21 782 0 874 18 932 49 968 59 970 83 982 83 965 78 960 57 949 55 941 78 948 78 936 66 929 53 923 45 906 51 875 61 866 66 877 63 922 75 927 86 925 93 899 90 877 96 856 96 824 75 778 77 738 108 637 139 562 142 495 159 458 180 358 199 403 203 461 211 504 188 564 191 608" fill="url(#id-110216)" id="id-110270"></polygon><polygon points="91 287 68 431 30 516 23 602 72 688 117 614 98 452 109 469 123 336 102 372 109 294 88 309 109 285" fill="url(#id-110217)" id="id-110270"></polygon><polygon points="383 906 391 972 434 1081 457 1204 475 1254 475 1287 596 1287 600 1226 591 1148 609 1105 612 999 602 904 584 908 584 846 535 683 456 705 382 878" fill="url(#id-110218)" id="id-110270"></polygon><polygon points="137 907 146 1083 171 1156 176 1212 174 1232 175 1286 175 1287 287 1287 284 1266 308 1197 306 1126 345 954 343 923 293 814 263 724 247 711" fill="url(#id-110219)" id="id-110270"></polygon><polygon points="545 673 539 641 528 608 531 571 509 500 522 405 539 361 539 350 563 465 576 500 601 540 660 491 688 529 652 427 629 283 626 205 612 177 568 157 548 142 530 141 479 116 422 75 416 44 415 3 360 3 360 715 462 724" fill="url(#id-110220)" id="id-110270"></polygon><polygon points="83 984 59 972 49 970 21 932 19 903 7 879 0 874 11 824 38 786 38 814 56 786 78 800 91 822 83 879 69 882 63 855 51 877 45 908 47 930 37 930 50 938 53 954 49 960 56 956 83 973" fill="#E4AB86" id="id-110275"></polygon><polygon points="66 855 69 882 63 855 51 877 45 908 42 870 58 825" fill="url(#id-110221)" id="id-110275"></polygon><polygon points="83 879 69 882 70 868" fill="#FFD6BA" id="id-110275"></polygon><polygon points="481 376 513 349 558 291 522 368" fill="#BD9394" id="id-110278"></polygon><polygon points="313 697 260 560 246 448 259 424 355 408 361 366 317 404 285 409 267 378 313 343 394 351 431 378 420 404 368 399 371 404 449 421 466 441 449 510 466 547 406 697 358 717" fill="url(#id-110222)" id="id-110279"></polygon><polygon points="410 90 430 82 423 76 416 45 416 7 286 9 286 48 283 76 278 86 244 114 195 139 366 139 390 70 410 26" fill="url(#id-110223)" id="id-110280"></polygon><polygon points="182 180 133 231 97 289 97 231 113 182 165 159" fill="url(#id-110224)" id="id-110281"></polygon><polygon points="346 107 384 55 409 31 414 23 299 31" fill="url(#id-110225)" id="id-110282"></polygon><polygon points="287 93 295 32 323 129" fill="url(#id-110226)" id="id-110283"></polygon><polygon points="336 139 314 151 270 146 224 139" fill="#FEF6E3" id="id-110284"></polygon><polygon points="410 84 409 136 461 129" fill="url(#id-110227)" id="id-110285"></polygon><polygon points="173 246 167 286 191 351 263 386 328 330 359 330 359 152 348 139 336 139 309 152" fill="url(#id-110228)" id="id-110286"></polygon><polygon points="464 159 516 190 500 159" fill="url(#id-110229)" id="id-110287"></polygon><polygon points="302 36 346 72 382 62 409 37 416 28 416 13" fill="url(#id-110230)" id="id-110288"></polygon><polygon points="263 151 191 202 219 151" fill="#EFB795" id="id-110289"></polygon><polygon points="154 206 170 170 122 188" fill="#FFFCF1" id="id-110290"></polygon><polygon points="358 285 344 299 323 318 305 354 358 345 354 305" fill="url(#id-110231)" id="id-110291"></polygon><polygon points="260 361 265 387 203 371 191 347" fill="#C4846D" id="id-110292"></polygon><polygon points="198 362 181 359 167 284" fill="#8D4146" id="id-110293"></polygon><polygon points="477 341 477 335 488 326 496 325 509 338 496 348 485 354" fill="#A86056" id="id-110294"></polygon><polygon points="314 151 342 220 317 293 237 351 209 318 172 251 185 205 270 146" fill="url(#id-110232)" id="id-110295"></polygon><polygon points="314 151 330 238 209 318 172 251 185 205 270 146" fill="url(#id-110233)" id="id-110295"></polygon><polygon points="314 151 350 205 220 227 185 205 270 146" fill="url(#id-110234)" opacity="0.369" id="id-110295"></polygon><polygon points="211 335 223 322 242 327 244 332 235 353 213 349" fill="#C48172" id="id-110298"></polygon><polygon points="224 339 226 342 226 345 222 349 235 350 242 333 230 338 227 335" fill="#D4ACC2" id="id-110299"></polygon><polygon points="488 343 491 347 486 351 479 338 489 327 495 327 493 336" fill="#C7878D" id="id-110300"></polygon><polygon points="485 339 488 343 493 337" fill="#EDB596" id="id-110301"></polygon><polygon points="359 162 359 291 406 325 455 347 529 267 463 182 415 166" fill="url(#id-110235)" id="id-110302"></polygon><polygon points="359 178 359 281 391 302 391 249 489 270 461 189 415 166" fill="url(#id-110236)" id="id-110302"></polygon><polygon points="359 178 359 219 472 220 461 189 415 166 371 163" fill="url(#id-110237)" id="id-110302"></polygon><polygon points="358 178 372 168 440 156 413 137 378 158 411 80 396 60 358 146" fill="url(#id-110238)" id="id-110305"></polygon><polygon points="346 140 358 152 372 129 400 48 369 86 364 130" fill="#B66B53" id="id-110306"></polygon><polygon points="591 281 601 226 559 159 514 159 523 138 499 156 571 263" fill="url(#id-110239)" id="id-110307"></polygon><polygon points="609 298 626 332 629 285 627 227 614 207 617 251" fill="#C6CBE5" id="id-110308"></polygon><polygon points="554 159 567 157 612 177 614 192 579 175 603 207 601 226" fill="#F6BF9D" id="id-110309"></polygon><polygon points="641 823 648 826 697 896 713 873 682 781" fill="url(#id-110240)" id="id-110310"></polygon><polygon points="625 840 700 762 688 738 679 784 648 776 626 822" fill="url(#id-110241)" id="id-110310"></polygon><polygon points="648 862 648 845 661 825 661 870 654 878 657 922 652 929 637 929 632 914 632 893 632 877 644 888" fill="#B06559" id="id-110312"></polygon><polygon points="554 375 577 333 607 451 594 508 568 462" fill="#F9C3AD" id="id-110313"></polygon><polygon points="623 326 643 425 633 431 693 523 652 427 636 326 625 315" fill="#BDBBDB" id="id-110314"></polygon><polygon points="628 274 638 339 623 314" fill="#B3838B" id="id-110315"></polygon><polygon points="693 523 695 567 685 525 618 416 633 431" fill="#B46B5B" id="id-110316"></polygon><polygon points="640 463 599 539 601 571 634 655 646 703 650 754 658 640 660 491" fill="#F7BF9B" id="id-110317"></polygon><polygon points="610 531 648 646 652 546 638 479" fill="#FFDDC8" id="id-110317"></polygon><polygon points="693 748 677 730 677 700 660 491 685 525 691 552 684 727" fill="url(#id-110242)" id="id-110319"></polygon><polygon points="691 746 703 768 693 727 695 567 691 551 683 727" fill="#BCCBEA" id="id-110320"></polygon><polygon points="260 559 310 683 355 716 263 713 238 685 195 582" fill="url(#id-110243)" id="id-110321"></polygon><polygon points="637 931 636 919 639 914 653 914 653 922 651 929 648 931 644 933" fill="#D58F78" id="id-110322"></polygon><polygon points="637 861 637 882 641 890 653 886 649 861" fill="#E19C83" id="id-110323"></polygon><polygon points="691 871 693 912 688 936 669 956 671 965 696 924 696 909 705 877" fill="#934D3C" id="id-110324"></polygon><polygon points="703 768 684 788 693 837 712 873 702 908 701 933 707 925 718 873 704 834 697 788" fill="#BD7462" id="id-110325"></polygon><polygon points="667 939 643 946 644 934 657 928 667 922 676 903 672 899 670 874 660 870 660 854 671 867 680 873 680 902 677 920" fill="#B3665B" id="id-110326"></polygon><polygon points="361 510 359 634 426 561 420 535" fill="url(#id-110244)" opacity="0.626" id="id-110327"></polygon><polygon points="319 403 289 399 268 380 313 343 361 348 362 372" fill="url(#id-110245)" id="id-110328"></polygon><polygon points="171 141 168 151 180 151 204 139 196 138" fill="url(#id-110246)" id="id-110329"></polygon><polygon points="359 308 362 360 382 334" fill="#FFE9D9" opacity="0.625" id="id-110330"></polygon><polygon points="360 546 360 584 387 551 374 540" fill="url(#id-110247)" opacity="0.626" id="id-110331"></polygon><polygon points="346 542 360 547 373 540 360 534" fill="#B36A64" id="id-110332"></polygon><polygon points="325 545 277 503 259 561 308 579" fill="url(#id-110248)" opacity="0.758" id="id-110333"></polygon><polygon points="389 499 460 467 449 510 404 520" fill="url(#id-110249)" id="id-110334"></polygon><polygon points="364 491 361 403 420 428" fill="url(#id-110250)" opacity="0.758" id="id-110335"></polygon><polygon points="262 446 333 446 323 469 279 492" fill="url(#id-110251)" opacity="0.758" id="id-110336"></polygon><polygon points="259 425 279 496 259 561 236 528 213 443 227 425 243 447" fill="url(#id-110252)" id="id-110337"></polygon><polygon points="412 343 444 374 466 383 499 351 447 354 416 339" fill="url(#id-110253)" id="id-110338"></polygon><polygon points="164 252 163 278 128 284" fill="#C88574" id="id-110339"></polygon><polygon points="58 478 88 441 88 416 69 430 66 456" fill="url(#id-110254)" id="id-110340"></polygon><polygon points="76 684 69 634 61 517 89 474 111 569" fill="url(#id-110255)" id="id-110341"></polygon><polygon points="53 489 47 539 69 635 76 684 53 760 40 781 16 766 28 727 23 604 28 544" fill="url(#id-110256)" id="id-110342"></polygon><polygon points="136 452 127 497 153 460 177 340 170 300" fill="#D89A7F" id="id-110343"></polygon><polygon points="181 359 159 460 143 497 142 514 123 532 109 514 108 490 127 497 153 460 177 340" fill="#C28071" id="id-110343"></polygon><polygon points="38 747 28 772 38 788 44 772" fill="#F4B89A" id="id-110345"></polygon><polygon points="359 379 342 413 361 444 377 417" fill="url(#id-110257)" id="id-110346"></polygon><polygon points="196 581 260 561 229 519" fill="url(#id-110258)" id="id-110347"></polygon><polygon points="74 929 66 925 69 909 78 905 86 912 83 928" fill="url(#id-110259)" id="id-110348"></polygon><polygon points="20 903 7 880 21 851 28 871" fill="#D99C7E" id="id-110349"></polygon><polygon points="218 1123 203 1040 191 913 171 1090 182 1169 230 1208 261 1237 270 1213 234 1175 212 1157 272 1191 281 1169" fill="url(#id-110260)" opacity="0.808" id="id-110350"></polygon><polygon points="182 1207 181 1155 213 1106 236 1166 230 1210" fill="#EBAC8E" id="id-110351"></polygon><polygon points="187 902 211 1137 227 1161 275 1187 299 1137 272 1009 299 918 269 791 211 836" fill="url(#id-110261)" id="id-110352"></polygon><polygon points="288 1079 311 1040 311 942 295 903 264 1019 275 1188 301 1137" fill="url(#id-110262)" id="id-110353"></polygon><polygon points="584 908 604 1008 608 1106 614 998 599 887" fill="#CEDAFA" id="id-110354"></polygon><polygon points="430 886 488 1140 535 1115 561 925 566 886 536 816 500 786" fill="url(#id-110263)" opacity="0.792" id="id-110355"></polygon><polygon points="581 921 588 1011 584 1112 576 1162 544 1046 566 886" fill="url(#id-110264)" id="id-110356"></polygon><polygon points="561 1247 518 1200 472 1112 494 931 505 931 594 1188 579 1244" fill="url(#id-110265)" id="id-110357"></polygon><polygon points="531 1221 539 1263 536 1269 516 1287 509 1287 500 1263 513 1199 488 1226 462 1170 472 1101 427 1010 398 877 469 771 518 739 536 818 500 787 433 890 477 1078 534 1212" fill="url(#id-110266)" id="id-110358"></polygon><polygon points="321 1058 284 852 258 721 266 733 371 879 362 883 354 881 343 914 345 954" fill="#D38B73" id="id-110359"></polygon><polygon points="429 1068 424 875 536 705 454 704 380 865 384 906 391 972" fill="#CD887E" opacity="0.394" id="id-110360"></polygon><polygon points="175 1262 194 1287 206 1287 225 1226 213 1249 175 1221 174 1232" fill="#EEAF93" id="id-110361"></polygon><polygon points="528 1227 554 1234 569 1169 549 1168" fill="#EBB5A6" id="id-110362"></polygon><polygon points="546 678 545 672 539 641 528 608 531 571 509 500 522 405 539 361 539 350 547 389 542 330 558 289 517 369 528 369 517 411 499 442 509 465 488 531 507 525 522 585 449 724" fill="url(#id-110267)" id="id-110270"></polygon><polygon points="402 722 490 609 522 585 449 723" fill="#D38673" id="id-110364"></polygon><polygon points="174 664 139 826 137 907 139 937 238 690 352 886 354 881 362 883 371 879 383 906 471 773 548 712 596 844 545 673 539 641 478 697 449 723 278 705 232 657 188 566 191 610" fill="url(#id-110268)" id="id-110270"></polygon><polygon points="189 616 211 620 190 586 190 609" fill="#C4846D" id="id-110366"></polygon><polygon points="139 836 225 709 167 697 139 826" fill="#E2A58B" id="id-110367"></polygon><polygon points="518 734 596 843 547 678" fill="#D0816E" id="id-110368"></polygon><polygon points="415 778 447 726 314 744 329 762" fill="#CE8B73" opacity="0.520" id="id-110270"></polygon><polygon points="411 685 463 666 456 573" fill="#A05A5C" id="id-110370"></polygon></g><defs><linearGradient x1="53%" y1="5%" x2="47%" y2="91%" id="id-110982"><stop stop-color="#C67878" offset="0%"></stop><stop stop-color="#A26C74" offset="82%"></stop><stop stop-color="#D18888" offset="100%"></stop></linearGradient><linearGradient x1="62%" y1="61%" x2="50%" y2="36%" id="id-110983"><stop stop-color="#B15E5F" offset="0%"></stop><stop stop-color="#564753" offset="100%"></stop></linearGradient><linearGradient x1="50%" y1="13%" x2="57%" y2="81%" id="id-110984"><stop stop-color="#885154" offset="0%"></stop><stop stop-color="#C27A7A" offset="52%"></stop><stop stop-color="#D8B7A1" offset="100%"></stop></linearGradient><linearGradient x1="50%" y1="0%" x2="54%" y2="88%" id="id-110985"><stop stop-color="#D19787" offset="0%"></stop><stop stop-color="#C8807E" offset="100%"></stop></linearGradient><linearGradient x1="36%" y1="75%" x2="36%" y2="18%" id="id-110986"><stop stop-color="#BB6F6B" offset="0%"></stop><stop stop-color="#863C39" offset="100%"></stop></linearGradient><linearGradient x1="50%" y1="2%" x2="48%" y2="96%" id="id-110987"><stop stop-color="#EAD0BC" offset="0%"></stop><stop stop-color="#CB9B7F" offset="11%"></stop><stop stop-color="#F2C1A5" offset="33%"></stop><stop stop-color="#FFE2D3" offset="58%"></stop><stop stop-color="#E9BB9E" offset="93%"></stop><stop stop-color="#C3957F" offset="100%"></stop></linearGradient><linearGradient x1="62%" y1="37%" x2="30%" y2="59%" id="id-110988"><stop stop-color="#E4B395" offset="0%"></stop><stop stop-color="#CB9C80" offset="100%"></stop></linearGradient><linearGradient x1="12%" y1="48%" x2="58%" y2="51%" id="id-110989"><stop stop-color="#E7BEA3" offset="0%"></stop><stop stop-color="#FEDFCC" offset="100%"></stop></linearGradient><linearGradient x1="76%" y1="54%" x2="27%" y2="47%" id="id-110990"><stop stop-color="#F2C4A7" offset="0%"></stop><stop stop-color="#F6DCC5" offset="100%"></stop></linearGradient><radialGradient cx="50%" cy="59%" r="65%" id="id-110991" fx="50%" fy="59%" gradientTransform=" translate(0.500,0.593) scale(0.791,1) rotate(-143) translate(-0.500,-0.593)"><stop stop-color="#F0D7BF" offset="0%"></stop><stop stop-color="#C38F74" offset="66%"></stop><stop stop-color="#A46254" offset="100%"></stop></radialGradient><linearGradient x1="69%" y1="50%" x2="50%" y2="60%" id="id-110992"><stop stop-color="#DBAB94" offset="0%"></stop><stop stop-color="#FFE3CE" offset="100%"></stop></linearGradient><radialGradient cx="50%" cy="50%" r="44%" id="id-110993" fx="50%" fy="50%" gradientTransform=" translate(0.500,0.500) scale(0.696,1) rotate(-57) scale(1,3) translate(-0.500,-0.500)"><stop stop-color="#B37864" offset="0%" stop-opacity="0"></stop><stop stop-color="#EFD3BC" offset="100%"></stop></radialGradient><linearGradient x1="0%" y1="58%" x2="50%" y2="58%" id="id-110994"><stop stop-color="#E4B69F" offset="0%"></stop><stop stop-color="#C88F7C" offset="100%"></stop></linearGradient><linearGradient x1="49%" y1="83%" x2="53%" y2="51%" id="id-110995"><stop stop-color="#C6938B" offset="0%"></stop><stop stop-color="#945A53" offset="100%"></stop></linearGradient><linearGradient x1="66%" y1="68%" x2="19%" y2="50%" id="id-110996"><stop stop-color="#D4A995" offset="0%"></stop><stop stop-color="#A9705C" offset="100%"></stop></linearGradient><linearGradient x1="48%" y1="37%" x2="33%" y2="25%" id="id-110997"><stop stop-color="#DDAF94" offset="0%"></stop><stop stop-color="#9D5D51" offset="100%"></stop></linearGradient><linearGradient x1="46%" y1="6%" x2="50%" y2="50%" id="id-110998"><stop stop-color="#F5D3B9" offset="0%"></stop><stop stop-color="#E7BA9D" offset="100%"></stop></linearGradient><linearGradient x1="50%" y1="33%" x2="57%" y2="50%" id="id-110999"><stop stop-color="#F9D2B7" offset="0%"></stop><stop stop-color="#D0A086" offset="100%"></stop></linearGradient><linearGradient x1="50%" y1="26%" x2="42%" y2="54%" id="id-111000"><stop stop-color="#875053" offset="0%"></stop><stop stop-color="#81534D" offset="100%" stop-opacity="0.569"></stop></linearGradient><linearGradient x1="46%" y1="100%" x2="55%" y2="55%" id="id-111001"><stop stop-color="#C4AED2" offset="0%"></stop><stop stop-color="#9276A6" offset="100%"></stop></linearGradient><linearGradient x1="54%" y1="12%" x2="47%" y2="56%" id="id-111002"><stop stop-color="#A46151" offset="0%"></stop><stop stop-color="#9370A0" offset="100%"></stop></linearGradient><linearGradient x1="50%" y1="0%" x2="50%" y2="100%" id="id-111003"><stop stop-color="#F4D2BF" offset="0%"></stop><stop stop-color="#E8B399" offset="100%"></stop></linearGradient><linearGradient x1="5%" y1="65%" x2="100%" y2="65%" id="id-111004"><stop stop-color="#FCD9C4" offset="0%"></stop><stop stop-color="#E0A88C" offset="28%"></stop><stop stop-color="#DEA786" offset="67%"></stop><stop stop-color="#FFE3D1" offset="100%"></stop></linearGradient><linearGradient x1="66%" y1="91%" x2="52%" y2="64%" id="id-111005"><stop stop-color="#D9A98F" offset="0%"></stop><stop stop-color="#DEA786" offset="100%"></stop></linearGradient><linearGradient x1="70%" y1="50%" x2="41%" y2="50%" id="id-111006"><stop stop-color="#F6D4BC" offset="0%"></stop><stop stop-color="#EBBCA0" offset="100%"></stop></linearGradient><linearGradient x1="100%" y1="50%" x2="0%" y2="50%" id="id-111007"><stop stop-color="#F1C4A8" offset="0%"></stop><stop stop-color="#FFE3D4" offset="48%"></stop><stop stop-color="#F5CAB4" offset="100%"></stop></linearGradient><linearGradient x1="38%" y1="14%" x2="50%" y2="79%" id="id-111008"><stop stop-color="#D29A7E" offset="0%"></stop><stop stop-color="#B37B6D" offset="100%"></stop></linearGradient><linearGradient x1="3%" y1="0%" x2="50%" y2="66%" id="id-111009"><stop stop-color="#D8A88D" offset="0%"></stop><stop stop-color="#F9D3BD" offset="100%"></stop></linearGradient><linearGradient x1="17%" y1="40%" x2="69%" y2="60%" id="id-111010"><stop stop-color="#40241E" offset="0%"></stop><stop stop-color="#703832" offset="100%"></stop></linearGradient><linearGradient x1="100%" y1="50%" x2="16%" y2="64%" id="id-111011"><stop stop-color="#351E1C" offset="0%"></stop><stop stop-color="#843F3B" offset="100%"></stop></linearGradient><linearGradient x1="22%" y1="62%" x2="87%" y2="62%" id="id-111012"><stop stop-color="#B07C62" offset="0%"></stop><stop stop-color="#D3A790" offset="43%"></stop><stop stop-color="#DAA88A" offset="100%"></stop></linearGradient><linearGradient x1="13%" y1="69%" x2="100%" y2="69%" id="id-111013"><stop stop-color="#D8A88B" offset="0%"></stop><stop stop-color="#F5D2BC" offset="48%"></stop><stop stop-color="#DAA88A" offset="100%"></stop></linearGradient><linearGradient x1="0%" y1="65%" x2="78%" y2="65%" id="id-111014"><stop stop-color="#E4B7A1" offset="0%"></stop><stop stop-color="#AF785E" offset="100%"></stop></linearGradient><linearGradient x1="50%" y1="42%" x2="33%" y2="50%" id="id-111015"><stop stop-color="#65463C" offset="0%"></stop><stop stop-color="#3C2B26" offset="100%"></stop></linearGradient><linearGradient x1="11%" y1="36%" x2="44%" y2="36%" id="id-111016"><stop stop-color="#A37A68" offset="0%"></stop><stop stop-color="#563A31" offset="100%"></stop></linearGradient><linearGradient x1="40%" y1="50%" x2="89%" y2="54%" id="id-111017"><stop stop-color="#312322" offset="0%"></stop><stop stop-color="#5D3E34" offset="100%"></stop></linearGradient><linearGradient x1="50%" y1="0%" x2="50%" y2="74%" id="id-111018"><stop stop-color="#E47C78" offset="0%"></stop><stop stop-color="#D7827D" offset="100%"></stop></linearGradient><linearGradient x1="80%" y1="50%" x2="7%" y2="50%" id="id-111019"><stop stop-color="#FAD6D3" offset="0%" stop-opacity="0.472"></stop><stop stop-color="#F5BFBB" offset="55%"></stop><stop stop-color="#F2ACA7" offset="100%" stop-opacity="0.434"></stop></linearGradient><linearGradient x1="50%" y1="0%" x2="50%" y2="50%" id="id-111020"><stop stop-color="#CF8E8A" offset="0%"></stop><stop stop-color="#A15552" offset="100%"></stop></linearGradient><linearGradient x1="0%" y1="83%" x2="93%" y2="83%" id="id-111021"><stop stop-color="#B87268" offset="0%" stop-opacity="0.687"></stop><stop stop-color="#DA8787" offset="58%"></stop><stop stop-color="#C5736D" offset="100%" stop-opacity="0.622"></stop></linearGradient></defs><g transform=" translate(548,259)" id="id-111022"><g transform=" translate(0,121)" id="id-111023"><polygon points="199 13 214 3 222 9 221 25 214 38 214 43 210 54 208 65 197 70 190 64" fill="url(#id-110982)" id="id-111024"></polygon><polygon points="197 24 209 14 216 9 219 10 220 22 214 37 195 43" fill="url(#id-110983)" id="id-111025"></polygon><polygon points="203 38 208 34 199 25 203 22 209 23 207 18 212 16 214 38 214 43 213 48 207 51 201 46" fill="url(#id-110984)" id="id-111024"></polygon><polygon points="212 5 214 3 222 9 222 10 219 10 216 9" fill="#F1CFD6" id="id-111024"></polygon><polygon points="208 65 197 70 190 64 194 42 199 50 193 62 199 67" fill="#906067" id="id-111024"></polygon><polygon points="203 62 202 54 211 50" fill="#A95D5F" id="id-111029"></polygon><polygon points="196 50 202 51 203 42 196 46" fill="#C18882" id="id-111030"></polygon><polygon points="194 45 199 47 202 45 202 32 197 31" fill="#4E4A5C" id="id-111031"></polygon><path d=" M 30,70 C 24,70 20,69 19,68 C 17,66 12,52 8,46 C 4,39 2,38 1,33 C 0,30 0,21 1,6 L 8,0 L 23,9 L 30,70 Z" fill="url(#id-110985)" id="id-111032"></path><polygon points="8 6 2 6 7 3 10 2 23 9 19 14" fill="#CFB7A6" id="id-111032"></polygon><path d=" M 26,68 C 23,69 20,69 19,68 C 17,66 12,52 8,46 C 7,44 6,43 6,42 C 9,45 10,47 12,48 C 13,50 14,52 16,56 L 26,68 Z" fill="#DDB5A9" id="id-111032"></path><polygon points="26 68 29 65 27 53 20 61" fill="#E5A599" id="id-111032"></polygon><path d=" M 23,19 C 12,12 6,9 5,9 C 3,10 2,18 2,33 L 17,53 L 26,52 L 23,19 Z" fill="url(#id-110986)" id="id-111036"></path><polygon points="12 17 19 19 18 26 15 28 22 38 21 49 12 44" fill="#BC6A69" id="id-111037"></polygon><path d=" M 27,53 C 16,50 10,47 8,42 C 6,38 8,30 12,17 L 15,23 C 15,36 14,42 15,43 C 15,45 18,46 25,48 L 27,53 Z" fill="#DCAC9A" id="id-111038"></path><polygon points="11 31 19 26 19 18 14 20 12 18" fill="#DAC2B3" id="id-111039"></polygon><polygon points="20 46 17 42 22 37 25 48" fill="#D29488" id="id-111040"></polygon></g><g transform=" translate(18,0)" id="id-111041"><path d=" M 20,231 C 18,227 11,201 5,153 C 3,140 2,128 1,117 C -1,91 4,63 8,49 C 9,46 16,35 16,34 C 30,20 56,0 94,0 C 157,0 178,45 181,51 C 183,57 183,111 181,144 C 178,177 162,232 160,235 C 158,239 124,261 119,264 C 113,266 74,267 69,264 C 64,261 22,235 20,231 Z" fill="url(#id-110987)" id="id-111042"></path><polygon points="19 114 13 91 21 49 49 35 141 43 137 69 105 74 78 52 56 49 39 56 41 93" fill="url(#id-110988)" id="id-111043"></polygon><polygon points="60 106 92 113 124 106 121 101 72 88 66 90 41 88 30 101" fill="url(#id-110989)" id="id-111044"></polygon><polygon points="51 70 94 83 125 81 132 50 98 64 102 53 80 48" fill="url(#id-110990)" opacity="0.556" id="id-111045"></polygon><path d=" M 4,144 C 3,137 2,130 2,123 C -1,88 16,34 17,34 C 31,19 56,0 94,0 C 157,0 178,45 181,51 C 183,56 183,103 181,136 L 152,101 C 154,91 155,83 154,79 C 150,60 140,50 136,47 C 130,44 99,50 94,50 C 90,50 78,43 58,42 C 54,42 48,43 38,46 C 29,61 24,68 23,70 C 11,97 16,104 13,127 C 13,131 10,137 4,144 Z" fill="url(#id-110991)" id="id-111042"></path><polygon points="146 168 106 137 108 129 149 141 164 156" fill="url(#id-110992)" id="id-111047"></polygon><polygon points="146 168 106 137 106 148 116 170 133 186" fill="#FFE7D9" id="id-111047"></polygon><path d=" M 181,51 C 183,56 183,103 181,136 L 162,124 L 161,111 C 167,97 172,86 174,77 C 175,74 176,71 177,64 C 178,59 177,52 174,41 L 181,51 Z" fill="#B38369" id="id-111042"></path><path d=" M 48,11 C 60,5 75,0 94,0 C 157,0 178,45 181,51 C 182,54 183,73 183,94 C 174,71 156,51 129,35 C 102,18 75,10 48,11 Z" fill="url(#id-110993)" id="id-111042"></path><polygon points="179 156 158 131 148 142 162 156 144 168 148 190" fill="url(#id-110994)" id="id-111042"></polygon><path d=" M 154,211 L 164,139 L 157,131 L 175,105 L 182,68 C 183,88 183,121 181,144 C 178,177 162,232 160,235 C 158,239 124,261 119,264 L 154,211 Z" fill="url(#id-110995)" opacity="0.749" id="id-111042"></path><polygon points="85 260 99 252 111 242 102 223 65 227 64 248" fill="#EDC5B0" fill-opacity="0.740" id="id-111053"></polygon><polygon points="33 188 44 177 21 169 41 146 21 136 8 168" fill="#F5C9B2" id="id-111054"></polygon><path d=" M 5,156 C 5,155 5,154 5,153 C 4,148 4,144 3,139 L 13,129 L 15,97 L 20,117 L 16,146 L 20,172 L 5,156 Z" fill="#C18F75" id="id-111042"></path><polygon points="13 136 17 121 19 115 32 129 68 132 69 135 40 148 24 139 23 131" fill="url(#id-110996)" id="id-111056"></polygon><polygon points="17 156 11 136 23 130 25 130 25 139" fill="#DBAC93" id="id-111057"></polygon><path d=" M 20,231 C 18,227 11,201 5,153 L 33,186 L 46,239 C 62,256 70,265 69,264 C 64,261 22,235 20,231 Z" fill="url(#id-110997)" id="id-111042"></path><polygon points="58 194 45 174 33 186 46 239 60 214" fill="url(#id-110998)" id="id-111042"></polygon><path d=" M 20,231 C 19,229 17,223 15,212 C 29,230 46,244 65,252 C 84,260 101,262 117,256 L 149,212 L 172,192 C 167,214 161,233 160,235 C 158,239 124,261 119,264 C 113,266 74,267 69,264 C 64,261 22,235 20,231 Z" fill="#86574D" opacity="0.470" id="id-111042"></path><polygon points="117 256 152 210 144 168 132 185 128 235 113 258" fill="url(#id-110999)" id="id-111042"></polygon><path d=" M 179,156 C 175,189 161,232 160,235 C 160,236 159,236 157,237 L 148,190 L 179,156 Z" fill="url(#id-111000)" opacity="0.606" id="id-111042"></path><path d=" M 181,144 C 178,177 162,232 160,235 C 159,237 151,242 143,248 L 157,232 L 163,217 L 170,168 L 181,144 Z" fill="url(#id-111001)" id="id-111042"></path><path d=" M 135,254 C 127,259 121,263 119,264 C 113,266 74,267 69,264 C 67,263 57,256 46,250 L 73,256 L 116,262 L 135,254 Z" fill="#836386" id="id-111042"></path><path d=" M 2,130 C 2,125 1,121 1,117 C -1,91 4,63 8,49 C 9,46 16,35 16,34 C 16,34 17,34 17,34 L 29,29 L 13,58 L 13,86 L 2,130 Z" fill="url(#id-111002)" id="id-111042"></path><path d=" M 182,133 C 181,137 181,141 181,144 C 180,152 179,160 177,169 L 158,179 L 175,157 L 177,139 L 182,133 Z" fill="#7E4341" id="id-111042"></path><path d=" M 72,248 C 71,246 69,242 68,234 L 83,227 L 111,242 C 86,247 73,249 72,248 Z" fill="#FDDFCB" opacity="0.617" id="id-111067"></path><polygon points="109 177 114 181 125 213 60 209 61 183 66 177" fill="#EFC2A8" id="id-111068"></polygon><polygon points="83 194 74 185 77 178 112 181 98 194" fill="#D6A390" id="id-111069"></polygon><polygon points="83 193 92 197 99 195 99 181 85 181" fill="url(#id-111003)" id="id-111070"></polygon><polygon points="83 196 83 193 92 197 99 195 100 197 91 202" fill="#F2CFBB" id="id-111070"></polygon><polygon points="75 138 67 145 60 160 67 171 120 176 116 162 122 153 107 140 110 115" fill="url(#id-111004)" id="id-111072"></polygon><polygon points="75 138 78 153 75 160 75 184 94 181 111 183 118 178 120 174 116 162 105 153 107 140 110 115 71 115 71 127" fill="url(#id-111005)" id="id-111072"></polygon><polygon points="97 179 108 168 83 166 68 173 71 180" fill="#E8BFA7" id="id-111074"></polygon><polygon points="79 124 71 112 71 127 73 131" fill="#CF9779" id="id-111072"></polygon><polygon points="71 160 57 173 61 183 78 181 67 177" fill="#FFE1CF" id="id-111076"></polygon><polygon points="87 136 71 113 69 101 92 108 108 104 110 112 94 136" fill="url(#id-111006)" id="id-111077"></polygon><polygon points="96 169 105 169 116 169 103 159" fill="#FFD6C0" id="id-111078"></polygon><polygon points="86 170 98 169 103 159 98 143 95 123 88 126 82 166" fill="url(#id-111007)" id="id-111078"></polygon><polygon points="86 170 97 169 92 157" fill="#FFF1E3" id="id-111078"></polygon><polygon points="92 136 87 125 90 117 95 123" fill="#FFF9ED" id="id-111081"></polygon><polygon points="103 157 106 151 115 163" fill="#CB9071" id="id-111082"></polygon><polygon points="75 184 66 180 65 173 70 163 76 158 76 163 70 172 70 175 76 176 88 180" fill="url(#id-111008)" id="id-111083"></polygon><polygon points="70 172 79 172 76 163 71 164" fill="url(#id-111009)" id="id-111084"></polygon><polygon points="120 173 120 179 114 184 101 183 111 182 117 177" fill="#A46B65" id="id-111085"></polygon><polygon points="89 181 93 183 97 182 99 179 84 176" fill="#BB8E78" id="id-111086"></polygon><polygon points="97 182 99 179 84 176" fill="#A77563" id="id-111086"></polygon><path d=" M 77,180 C 78,180 83,180 90,180 C 89,179 88,177 86,177 C 85,176 83,175 79,174 C 77,174 75,175 75,176 C 74,178 75,179 77,180 Z" fill="url(#id-111010)" id="id-111088"></path><path d=" M 96,180 L 99,176 L 107,173 C 111,175 112,176 109,178 C 107,180 103,181 96,180 Z" fill="url(#id-111011)" id="id-111089"></path><polygon points="30 128 57 124 72 126 72 114 48 102 19 114" fill="url(#id-111012)" id="id-111090"></polygon><polygon points="36 127 57 124 69 126 60 108 53 104" fill="url(#id-111013)" id="id-111090"></polygon><polygon points="37 129 41 135 33 132 33 130" fill="#2F1A10" opacity="0.429" id="id-111092"></polygon><polygon points="48 138 69 135 40 148 33 144 40 138" fill="#DEAC91" id="id-111056"></polygon><path d=" M 22,130 C 27,129 30,128 32,127 C 40,124 47,122 52,122 C 60,123 66,126 70,133 L 69,135 L 67,133 L 66,132 L 36,130 L 41,135 L 32,133 L 22,130 Z" fill="#35221D" id="id-111094"></path><polygon points="36 130 41 135 50 135 62 133 65 130 58 127 43 126" fill="#E5E2F2" id="id-111092"></polygon><path d=" M 54,135 C 56,134 58,131 59,127 C 57,125 55,124 51,124 C 48,124 45,125 43,126 C 43,129 44,131 44,132 C 45,133 49,136 54,135 Z" fill="#2C1E19" id="id-111092"></path><polygon points="62 133 65 130 67 133" fill="#C37C79" id="id-111092"></polygon><polygon points="36 130 41 135 49 126 43 126" fill="#2F1A10" opacity="0.429" id="id-111092"></polygon><path d=" M 50,131 L 50,134 C 51,134 53,134 54,133 C 54,133 55,132 56,131 C 54,131 53,131 52,131 C 51,131 50,131 50,131 Z" fill="#384239" id="id-111099"></path><polygon points="108 131 117 132 137 124 156 110 117 108" fill="#DFAF93" id="id-111100"></polygon><polygon points="134 148 151 141 164 122 161 110 155 106 135 126 140 132 132 143 137 143" fill="url(#id-111014)" id="id-111101"></polygon><polygon points="46 130 50 129 50 127 46 127" fill="#C2BAC8" id="id-111102"></polygon><polygon points="48 138 54 142 59 136" fill="#EFCBB6" id="id-111103"></polygon><path d=" M 73,115 L 63,111 C 49,110 38,110 32,111 C 25,111 20,115 17,121 C 18,115 19,111 20,109 C 22,106 24,103 27,101 L 27,104 L 30,100 C 33,99 36,98 41,98 C 45,98 52,99 61,100 L 65,106 L 65,102 L 69,102 L 73,115 Z" fill="url(#id-111015)" id="id-111104"></path><polygon points="73 115 63 111 71 106 71 108 75 106" fill="#815A4E" id="id-111104"></polygon><polygon points="108 131 108 111 118 111 123 116" fill="#C78C74" id="id-111106"></polygon><polygon points="129 125 123 116 129 116 136 114 133 124" fill="#F5D3BD" id="id-111107"></polygon><path d=" M 116,133 C 115,134 115,135 114,135 C 114,135 114,134 114,133 C 115,132 116,130 117,130 C 121,125 127,123 133,123 C 141,123 147,125 154,129 L 160,132 L 150,135 L 140,135 L 116,133 Z" fill="#402C24" id="id-111108"></path><path d=" M 108,113 L 105,103 L 111,103 L 109,109 L 117,101 C 122,100 127,99 133,98 C 139,98 143,98 146,99 L 139,102 L 150,100 L 163,109 L 164,122 C 162,115 159,111 155,110 C 152,110 147,110 138,111 L 125,111 L 108,113 Z" fill="url(#id-111016)" id="id-111109"></path><path d=" M 150,100 L 163,109 C 162,110 159,111 155,110 C 152,110 147,110 138,111 L 125,111 L 150,100 Z" fill="url(#id-111017)" id="id-111109"></path><path d=" M 149,132 C 146,128 141,125 135,125 C 129,125 124,127 118,131 L 120,134 C 126,135 130,135 133,136 C 135,136 138,136 142,136 L 149,132 Z" fill="#EAE6FB" id="id-111111"></path><path d=" M 140,126 C 138,125 137,125 135,125 C 132,125 128,125 124,127 C 125,132 128,135 133,135 C 138,135 140,132 140,126 Z" fill="#2E2020" id="id-111111"></path><path d=" M 149,132 C 146,128 141,125 135,125 C 129,125 124,127 118,131 L 120,134 C 124,130 128,128 133,128 C 138,128 142,130 145,134 L 149,132 Z" fill="#3E2F25" opacity="0.326" id="id-111111"></path><polygon points="118 131 116 134 120 134" fill="#B4796D" id="id-111111"></polygon><polygon points="129 130 129 127 132 126 132 128" fill="#E6E2F6" id="id-111115"></polygon><path d=" M 132,134 C 134,135 135,135 136,134 C 137,133 138,132 139,130 L 134,130 L 132,134 Z" fill="#384039" id="id-111116"></path><polygon points="66 231 97 229 107 229 119 223 119 213 60 215 57 221" fill="#DCA493" id="id-111117"></polygon><polygon points="118 217 124 214 101 203 71 206 60 215 61 217" fill="#5F2522" id="id-111118"></polygon><polygon points="114 135 135 137 150 135 144 135 116 133" fill="#B58E82" id="id-111119"></polygon><polygon points="106 225 97 229 85 229 77 224" fill="#A26357" id="id-111120"></polygon><polygon points="85 229 77 224 101 225" fill="#763932" id="id-111120"></polygon><path d=" M 60,215 L 59,217 L 77,225 L 105,226 L 119,217 C 115,214 110,213 106,212 C 102,212 90,212 72,213 L 65,217 L 60,215 Z" fill="url(#id-111018)" id="id-111122"></path><path d=" M 80,221 L 74,218 C 81,217 87,217 91,217 C 95,216 100,217 107,217 L 100,221 C 96,220 94,219 91,219 C 89,219 85,220 80,221 Z" fill="url(#id-111019)" id="id-111123"></path><path d=" M 59,215 L 60,210 C 65,207 69,204 71,203 C 74,201 78,199 83,196 L 91,200 L 100,196 L 114,203 L 124,213 L 116,213 L 103,208 L 91,206 L 76,208 L 64,215 L 59,215 Z" fill="url(#id-111020)" id="id-111124"></path><path d=" M 71,203 C 74,201 78,199 83,196 L 91,200 L 100,196 L 114,203 L 103,208 L 91,206 L 76,208 L 71,203 Z" fill="url(#id-111021)" id="id-111124"></path><path d=" M 76,200 C 77,199 80,198 83,196 L 91,200 L 91,206 L 82,208 L 76,200 Z" fill="#E696A5" id="id-111124"></path></g></g><defs><linearGradient x1="78%" y1="-4%" x2="50%" y2="63%" id="id-86019"><stop stop-color="#6D6D45" offset="0%"></stop><stop stop-color="#3B3B21" offset="100%"></stop></linearGradient></defs><g transform=" translate(420,1109)" id="id-86020"><path d=" M 359,651 C 412,651 488,651 488,651 C 486,630 485,620 485,620 C 489,609 492,604 492,604 L 483,588 C 484,583 485,580 485,580 L 483,516 C 499,499 506,490 506,490 C 520,416 516,328 492,228 C 488,216 485,210 485,210 C 453,108 436,57 436,57 C 440,54 441,53 441,53 C 431,24 426,10 426,10 C 425,3 424,0 424,0 C 371,10 345,15 345,15 C 280,19 248,21 248,21 C 177,14 141,11 141,11 C 87,5 60,3 60,3 C 60,9 60,13 60,13 L 50,51 L 3,188 L 11,206 C 15,202 17,200 18,201 L 16,277 C 16,286 15,295 14,304 C -4,380 -1,407 2,458 C 8,465 15,475 24,487 L 56,516 L 58,549 L 54,582 L 61,596 L 48,613 L 51,622 L 43,633 L 31,651 L 180,651 C 178,641 177,635 177,635 C 183,633 186,632 186,632 C 190,601 193,585 193,585 L 204,563 C 200,536 199,522 199,522 C 216,492 225,477 225,477 C 212,464 206,458 206,458 L 215,415 L 231,411 C 242,390 247,380 247,380 C 246,358 246,347 246,347 L 264,303 L 298,408 C 311,455 317,479 317,479 C 326,522 331,556 335,583 C 348,592 359,609 359,651 Z" fill="url(#id-86019)" id="id-86021"></path><path d=" M 132,213 C 144,123 150,78 150,78 C 164,79 171,80 171,80 L 153,202 C 139,210 132,213 132,213 Z" fill="#151716" id="id-86022"></path><polygon points="96 562 102 606 138 621" fill="#4A4933" id="id-86023"></polygon><polygon points="48 651 98 651 111 639 154 627 70 609 98 604 92 542 45 504 4 457 2 458 24 487 54 519 58 549 56 564 66 587 57 588 58 596 50 611 51 622 48 627" fill="#1F1E08" id="id-86024"></polygon><path d=" M 64,516 C 59,500 33,426 33,426 C 17,444 9,453 9,453 L 13,468 C 38,494 55,510 64,516 Z" fill="#302F1D" id="id-86025"></path><path d=" M 48,476 C 58,499 63,513 64,516 C 59,513 45,501 23,479 L 48,476 Z" fill="#40402B" id="id-86026"></path><path d=" M 62,401 C 66,477 69,515 69,515 L 66,516 L 34,439 L 62,401 Z" fill="#21200A" id="id-86027"></path><path d=" M 2,451 C 5,444 5,442 14,412 C 11,374 14,347 25,295 C 26,287 25,276 25,276 C 25,287 24,296 23,304 C 11,358 -2,397 2,451 Z" fill="#32341C" id="id-86028"></path><path d=" M 17,264 C 17,269 17,271 17,271 C 72,289 99,297 99,297 L 101,291 C 45,273 17,264 17,264 Z" fill="#A67D01" id="id-86029"></path><path d=" M 107,276 L 101,291 C 45,273 17,264 17,264 C 18,236 18,215 18,201 C 17,200 11,206 11,206 C 5,194 3,188 3,188 C 33,101 48,58 48,58 C 80,64 97,68 97,68 C 90,141 87,178 87,178 L 41,244 C 85,265 107,276 107,276 Z" fill="#24240C" id="id-86030"></path><path d=" M 111,580 C 107,470 104,415 104,415 C 112,333 116,291 116,291 C 131,279 139,273 139,273 C 153,201 160,165 160,165 C 166,206 169,226 169,226 C 202,207 218,198 218,198 C 189,246 175,270 175,270 C 185,350 189,390 189,390 L 172,503 C 132,554 111,580 111,580 Z" fill="#434327" id="id-86031"></path><path d=" M 198,429 C 194,476 192,500 192,500 C 199,535 203,552 203,552 C 200,532 199,522 199,522 C 204,512 207,507 207,507 L 201,481 C 199,446 198,429 198,429 Z" fill="#27270F" id="id-86032"></path><path d=" M 240,244 C 244,256 265,303 265,303 L 244,353 C 238,309 236,272 240,244 Z" fill="#201E05" id="id-86033"></path><path d=" M 228,411 C 230,411 231,411 231,411 C 236,401 242,391 247,380 C 239,313 239,184 239,184 L 203,224 L 224,345 C 226,389 228,411 228,411 Z" fill="#2C2B0D" id="id-86034"></path><path d=" M 31,651 C 33,642 37,636 43,633 C 47,627 51,622 51,622 C 49,616 48,613 48,613 C 49,612 50,611 50,611 C 68,624 77,630 77,630 C 77,632 76,633 75,634 C 64,633 48,628 48,628 L 48,651 L 31,651 Z" fill="#3B5472" id="id-86035"></path><path d=" M 57,588 C 63,587 66,587 66,587 C 59,572 56,564 56,564 L 54,582 C 56,586 57,588 57,588 Z" fill="#3B5472" id="id-86036"></path><path d=" M 80,68 C 83,68 84,68 84,68 C 80,112 77,133 77,133 C 75,133 74,133 74,133 L 81,71 C 81,69 80,68 80,68 Z" fill="#243550" id="id-86037"></path><path d=" M 12,203 C 6,193 3,188 3,188 C 34,101 50,58 50,58 C 75,64 88,67 88,67 L 76,152 C 34,186 12,203 12,203 Z" fill="#121315" id="id-86038"></path><path d=" M 59,169 C 75,181 83,188 83,188 L 132,212 C 132,217 132,219 132,219 L 78,194 L 54,174 C 57,170 59,169 59,169 Z" fill="#151716" id="id-86039"></path><path d=" M 369,86 C 394,73 407,66 407,66 C 413,133 416,167 416,167 C 462,219 490,255 502,276 C 502,272 498,256 492,228 L 432,57 C 436,54 437,53 437,53 C 437,52 437,51 437,51 L 367,66 C 368,80 369,86 369,86 Z" fill="#27270F" id="id-86040"></path><path d=" M 58,155 C 61,163 63,167 63,167 C 73,157 79,152 79,152 C 81,140 82,134 82,134 C 74,133 70,133 70,133 L 68,145 C 61,152 58,155 58,155 Z" fill="#504800" id="id-86041"></path><path d=" M 169,96 C 191,102 202,106 202,106 C 187,133 179,147 179,147 L 168,102 C 169,98 169,96 169,96 Z" fill="#615F38" id="id-86042"></path><path d=" M 241,131 C 260,125 273,121 280,120 C 280,138 280,172 280,172 L 239,172 C 240,145 241,131 241,131 Z" stroke="#979797" id="id-86043"></path><path d=" M 240,228 C 262,220 274,215 274,215 L 240,198 C 240,218 240,228 240,228 Z" fill="#6B6A3D" id="id-86044"></path><path d=" M 328,206 C 315,271 308,303 308,303 C 314,420 317,479 317,479 C 305,431 298,408 298,408 L 289,258 C 315,224 328,206 328,206 Z" fill="#2C2C12" id="id-86045"></path><path d=" M 312,221 C 341,186 355,169 355,169 C 350,118 347,92 347,92 L 241,108 L 241,131 C 288,191 312,221 312,221 Z" fill="#767242" id="id-86046"></path><path d=" M 280,126 C 281,140 280,172 280,172 L 240,172 L 240,128 L 280,126 Z" fill="#B3B082" id="id-86047"></path><path d=" M 372,537 C 413,534 434,533 434,533 C 444,451 450,410 450,410 C 447,416 445,419 445,419 C 400,432 377,438 377,438 L 366,421 C 370,499 372,537 372,537 Z" fill="#5B573A" id="id-86048"></path><path d=" M 368,74 C 375,155 378,196 378,196 C 415,180 433,172 433,172 C 437,176 439,178 439,178 L 359,209 L 346,75 C 360,74 368,74 368,74 Z" fill="#151716" id="id-86049"></path><path d=" M 339,69 C 339,74 339,76 339,76 C 361,74 373,73 373,73 L 371,64 C 350,67 339,69 339,69 Z" fill="#978701" id="id-86050"></path><path d=" M 348,67 L 347,75 L 373,73 L 371,64 C 355,66 348,67 348,67 Z" fill="#C6B00A" id="id-86051"></path><polygon points="123 218 154 201 152 230" fill="#7F7200" id="id-86052"></polygon><path d=" M 478,216 L 495,206 C 473,155 452,106 432,57 C 433,56 437,53 437,53 C 420,62 411,66 411,66 L 427,163 C 461,198 478,216 478,216 Z" fill="#141517" id="id-86053"></path><path d=" M 432,59 C 433,64 434,66 434,66 C 422,71 415,74 415,74 C 423,120 427,143 427,143 C 425,143 424,143 424,143 L 412,68 C 425,62 432,59 432,59 Z" fill="#2D4A7A" id="id-86054"></path><path d=" M 356,193 C 357,207 357,214 357,214 C 374,207 383,204 383,204 L 383,199 C 365,195 356,193 356,193 Z" fill="#C9B20A" id="id-86055"></path><path d=" M 397,168 C 396,112 395,84 395,84 C 378,91 370,94 370,94 L 370,106 C 388,148 397,168 397,168 Z" fill="#696645" id="id-86056"></path><path d=" M 421,143 C 424,158 425,166 425,166 C 434,175 439,180 439,180 C 443,175 445,172 445,172 L 429,143 C 423,143 421,143 421,143 Z" fill="#776701" id="id-86057"></path><path d=" M 339,75 C 280,81 250,84 250,84 C 244,84 242,83 242,83 C 242,79 243,76 243,76 C 237,76 234,75 234,75 C 234,80 234,82 234,82 C 189,78 166,76 166,76 C 166,78 166,79 166,79 L 234,98 L 339,76 C 339,76 339,75 339,75 Z" fill="#424015" id="id-86058"></path><path d=" M 333,568 C 355,535 365,518 365,518 L 366,651 C 364,651 361,651 359,651 C 359,617 351,594 335,583 C 334,573 333,568 333,568 Z" fill="#1F1F0D" id="id-86059"></path><path d=" M 333,568 C 349,543 357,531 357,531 C 353,306 351,193 351,193 L 324,219 L 308,303 L 317,479 L 333,568 Z" fill="#32341C" id="id-86060"></path><path d=" M 142,69 C 140,74 139,76 139,76 C 165,79 178,81 178,81 L 181,70 C 155,69 142,69 142,69 Z" fill="#766900" id="id-86061"></path><path d=" M 150,69 L 148,78 L 181,81 L 181,70 C 160,70 150,69 150,69 Z" fill="#BDA70B" id="id-86062"></path><polygon points="484 518 444 559 433 627 453 651 488 651 485 620 492 604 485 589 485 580" fill="#25240E" id="id-86063"></polygon><path d=" M 491,434 C 493,434 496,433 499,430 C 489,386 490,334 501,276 C 482,248 472,234 472,234 L 462,324 C 481,398 491,434 491,434 Z" fill="#5F5E38" id="id-86064"></path><path d=" M 55,14 C 51,41 49,55 49,55 C 111,66 142,71 142,71 C 210,76 244,79 244,79 L 355,70 C 412,57 441,51 441,51 C 436,22 434,8 434,8 C 403,12 374,17 346,22 C 196,31 78,14 61,13 C 58,13 55,14 55,14 Z" fill="#131416" id="id-86065"></path><path d=" M 161,158 C 176,152 184,149 184,149 C 216,162 232,168 232,168 C 232,185 232,193 232,193 C 213,213 203,224 203,224 C 213,207 218,198 218,198 C 186,217 170,226 170,226 L 160,166 C 161,161 161,158 161,158 Z" fill="#3B3C1B" id="id-86066"></path><path d=" M 461,277 C 464,286 466,290 466,290 C 491,281 503,277 503,277 L 499,262 C 474,272 461,277 461,277 Z" fill="#BE8E00" id="id-86067"></path><path d=" M 208,81 L 241,83 C 240,150 239,184 239,184 C 240,224 240,244 240,244 C 234,235 231,230 231,230 L 233,113 C 216,91 208,81 208,81 Z" fill="#262506" id="id-86068"></path><path d=" M 346,23 C 350,46 352,68 352,68 C 250,72 180,71 142,65 C 142,56 142,41 143,20 C 224,25 291,26 346,23 Z" fill="#1E2D40" id="id-86069"></path><path d=" M 303,24 C 281,60 270,79 270,79 C 238,79 222,79 222,79 C 199,43 187,25 187,25 C 195,23 199,21 199,21 L 294,21 C 300,23 303,24 303,24 Z" fill="#C1A90B" id="id-86070"></path><path d=" M 194,35 L 202,27 L 213,21 L 199,21 L 187,25 C 191,31 194,35 194,35 Z" fill="#97B7AB" id="id-86071"></path><path d=" M 295,37 C 290,31 288,28 288,28 C 231,27 202,27 202,27 L 205,21 L 294,21 L 303,24 C 298,33 295,37 295,37 Z" fill="#C8D256" id="id-86072"></path><path d=" M 305,18 L 306,24 L 346,23 L 382,16 C 381,11 381,8 381,8 L 343,15 C 318,17 305,18 305,18 Z" fill="#7B7330" id="id-86073"></path><path d=" M 484,562 C 494,561 500,560 500,560 C 501,573 501,579 501,579 L 485,584 C 484,569 484,562 484,562 Z" fill="#111312" id="id-86074"></path></g><defs><linearGradient x1="50%" y1="100%" x2="50%" y2="0%" id="id-89159"><stop stop-color="#251918" offset="0%"></stop><stop stop-color="#241D2A" offset="100%"></stop></linearGradient><linearGradient x1="50%" y1="100%" x2="50%" y2="0%" id="id-89160"><stop stop-color="#1C2A51" offset="0%"></stop><stop stop-color="#1C2B52" offset="100%" stop-opacity="0"></stop></linearGradient><linearGradient x1="50%" y1="100%" x2="50%" y2="0%" id="id-89161"><stop stop-color="#1C2A51" offset="0%"></stop><stop stop-color="#1C2B52" offset="100%" stop-opacity="0"></stop></linearGradient></defs><g transform=" translate(464,571)" id="id-89162"><path d=" M 283,101 L 322,213 C 322,213 367,302 384,319 L 387,313 C 387,313 359,239 326,102 C 326,102 367,53 399,30 L 397,23 L 360,2 C 360,2 330,24 289,83 L 112,83 C 112,83 92,42 37,0 L 0,22 L 0,30 C 0,30 54,66 74,101 C 74,101 47,254 18,310 L 26,322 C 26,322 102,176 116,101 L 283,101 Z" fill="#1B141C" id="id-89163"></path><path d=" M 314,366 L 314,376 L 315,404 L 321,404 L 319,419 L 316,419 L 321,538 L 321,546 L 329,711 L 327,712 L 329,720 L 330,719 L 334,821 L 288,821 L 287,553 L 286,416 L 282,416 L 279,402 L 284,402 L 283,374 C 198,365 120,374 120,374 L 120,396 L 124,396 L 124,406 L 120,412 L 116,555 L 116,604 L 113,846 L 66,841 L 71,745 L 72,746 L 74,737 L 71,736 L 78,601 L 80,551 L 80,542 L 86,407 L 86,362 L 62,360 L 19,360 L 26,322 L 80,322 C 73,320 69,317 68,315 L 68,257 L 75,245 L 94,196 L 96,189 L 100,184 L 115,174 L 293,176 L 303,182 L 305,190 L 307,197 L 330,244 L 335,250 L 333,316 L 327,319 L 384,319 L 388,358 L 375,358 L 327,359 L 320,366 L 314,366 Z" fill="#1B141C" id="id-89163"></path><polygon points="72 725 70 745 114 748 114 728" fill="#575E87" id="id-89163"></polygon><path d=" M 287,723 L 329,722 L 329,702 L 287,704 C 288,711 287,718 287,723 Z" fill="#575E87" id="id-89163"></path><polygon points="325 319 338 323 334 356 321 356 320 366 341 366 348 318 325 311" fill="#404856" id="id-89163"></polygon><polygon points="278 418 278 401 284 402 284 410 315 412 315 404 321 404 320 419" fill="#404856" id="id-89163"></polygon><polygon points="120 404 87 401 87 394 81 394 81 407 126 412 127 396 120 396" fill="#404856" id="id-89163"></polygon><polygon points="86 353 86 362 64 361 58 316 82 314 83 322 66 323 69 353" fill="#404856" id="id-89163"></polygon><polyline points="298 83 305 92 298 100" stroke="#404856" stroke-width="7" id="id-89163"></polyline><polyline points="100 80 91 92 99 101" stroke="#404856" stroke-width="7" id="id-89163"></polyline><polygon points="318 279 318 227 291 185 114 185 90 228 90 279" fill="#575E87" id="id-89163"></polygon><path d=" M 329,182 L 305,190 L 307,197 L 330,244 L 346,217 L 329,182 Z M 319,196 L 325,191 L 338,218 L 333,225 L 319,196 Z" fill="#383F64" id="id-89174" fill-rule="nonzero"></path><path d=" M 58,220 L 75,245 L 94,196 L 96,189 L 71,183 L 58,220 Z M 71,226 L 66,219 L 76,192 L 82,196 L 71,226 Z" fill="#383F64" id="id-89174" fill-rule="nonzero"></path><polygon points="310 271 310 228 293 199 113 199 96 230 96 271" fill="#383F64" id="id-89163"></polygon><path d=" M 111,260 C 112,260 113,260 114,260 C 114,259 115,258 115,257 L 118,238 C 118,238 118,237 118,236 C 117,236 116,235 116,235 L 112,235 C 112,235 111,236 110,236 C 109,237 109,238 109,238 L 106,257 C 106,258 106,259 106,260 C 107,260 107,260 108,260 L 111,260 Z M 109,258 C 109,258 109,257 109,257 C 109,257 108,257 109,257 L 111,239 C 111,239 112,239 112,238 C 112,238 112,238 112,238 L 114,238 C 114,238 114,238 114,238 C 114,239 114,239 114,239 L 111,257 C 111,257 111,257 111,257 C 111,257 111,258 110,258 L 109,258 Z M 124,260 C 125,260 125,260 126,260 C 127,259 127,258 127,257 L 129,250 C 129,250 129,249 129,249 C 129,249 128,249 128,248 C 128,248 128,248 128,248 C 128,248 128,248 128,248 C 128,248 128,248 128,248 C 128,248 128,248 129,247 C 129,247 129,247 129,247 C 129,246 129,246 129,246 L 131,238 C 131,238 131,237 130,236 C 130,236 129,235 128,235 L 122,235 L 117,260 L 124,260 Z M 124,246 L 125,238 L 127,238 C 127,238 128,238 128,238 C 128,239 128,239 128,239 L 127,245 C 127,245 127,246 126,246 C 126,246 126,246 126,246 L 124,246 Z M 122,258 L 123,250 L 125,250 C 125,250 126,250 126,250 C 126,250 126,250 126,251 L 125,257 C 125,257 125,257 125,257 C 124,257 124,258 124,258 L 122,258 Z M 137,260 C 137,260 138,260 139,260 C 139,259 140,258 140,257 L 141,249 C 142,249 141,248 141,247 C 140,247 140,246 139,246 L 137,246 C 136,246 136,246 136,246 C 136,246 136,246 136,246 L 137,239 C 137,239 137,239 137,239 C 138,239 138,239 138,239 L 139,239 C 139,239 140,239 140,239 C 140,239 140,239 140,239 L 139,244 L 142,244 L 143,238 C 143,238 143,237 143,236 C 142,236 142,235 141,235 L 137,235 C 137,235 136,236 135,236 C 135,237 134,238 134,238 L 133,246 C 132,247 133,248 133,249 C 134,249 134,249 135,249 L 137,249 C 138,249 138,250 138,250 C 138,250 138,250 138,250 L 137,257 C 137,257 137,257 137,257 C 136,257 136,257 136,257 L 135,257 C 135,257 134,257 134,257 C 134,257 134,257 134,257 L 135,252 L 132,252 L 131,257 C 131,258 131,259 131,260 C 132,260 132,260 133,260 L 137,260 Z M 152,260 L 152,257 L 148,257 L 149,249 L 153,249 L 154,246 L 150,246 L 151,239 L 155,239 L 156,235 L 148,235 L 144,260 L 152,260 Z M 157,260 L 159,249 L 160,249 L 162,260 L 166,260 L 163,249 C 164,249 165,249 165,248 C 166,248 166,247 166,246 L 167,238 C 168,238 167,237 167,236 C 166,236 166,235 165,235 L 158,235 L 154,260 L 157,260 Z M 160,246 L 161,238 L 163,238 C 163,238 163,238 163,238 C 164,239 164,239 164,239 L 163,245 C 163,245 162,246 162,246 C 162,246 162,246 162,246 L 160,246 Z M 173,260 L 181,235 L 178,235 L 173,253 L 173,253 L 174,235 L 170,235 L 169,260 L 173,260 Z M 187,260 L 188,257 L 184,257 L 185,249 L 189,249 L 190,246 L 186,246 L 187,239 L 191,239 L 192,235 L 184,235 L 180,260 L 187,260 Z M 193,260 L 195,249 L 196,249 L 198,260 L 201,260 L 199,249 C 200,249 200,249 201,248 C 201,248 202,247 202,246 L 203,238 C 203,238 203,237 203,236 C 202,236 201,235 201,235 L 194,235 L 190,260 L 193,260 Z M 196,246 L 198,238 L 200,238 C 200,238 200,238 200,238 C 200,239 200,239 200,239 L 199,245 C 199,245 199,246 199,246 C 199,246 199,246 198,246 L 196,246 Z" fill="#FAA000" id="id-89177" fill-rule="nonzero"></path><polygon points="77 257 78 273 86 255 86 239" fill="#383F64" id="id-89163"></polygon><polygon points="86 239 86 289 316 289 328 279 321 356 87 352 77 257" fill="url(#id-89159)" id="id-89163"></polygon><polygon points="115 202 212 202 212 211 111 211" fill="#9A5F0B" id="id-89163"></polygon><polygon points="219 241 296 241 296 224 285 203 219 203" stroke="#9A5F0B" stroke-width="3" id="id-89163"></polygon><polygon points="228 211 235 211 235 229 244 229 244 212 251 212 251 237 228 237" fill="#9A5F0B" id="id-89163"></polygon><polygon points="256 212 256 221 289 221 283 211" fill="#9A5F0B" id="id-89163"></polygon><rect fill="#9A5F0B" width="33" height="10" x="256" y="226" id="id-89184"></rect><rect fill="#9A5F0B" width="20" height="6" x="98" y="301" id="id-89184"></rect><path d=" M 98,312 L 98,340 L 118,340 L 118,312 L 98,312 Z M 101,322 L 101,314 L 108,318 L 101,322 Z" fill="#9A5F0B" id="id-89174" fill-rule="nonzero"></path><polygon points="131 300 228 300 244 321 228 343 131 343" stroke="#9A5F0B" stroke-width="3" id="id-89163"></polygon><polygon points="215 304 226 304 238 321 225 338 214 338 226 321" fill="#9A5F0B" id="id-89163"></polygon><polygon points="192 304 203 304 215 321 202 338 191 338 203 321" fill="#9A5F0B" id="id-89163"></polygon><polygon points="169 304 180 304 192 321 179 338 167 338 180 321" fill="#9A5F0B" id="id-89163"></polygon><polygon points="146 304 157 304 169 321 156 338 144 338 157 321" fill="#9A5F0B" id="id-89163"></polygon><polygon points="79 583 116 584 116 555 120 412 105 419 86 407" fill="url(#id-89160)" id="id-89163"></polygon><polygon points="287 584 321 584 321 545 316 420 286 416" fill="url(#id-89161)" id="id-89163"></polygon><polygon points="329 182 307 197 305 190" fill="#848EC6" id="id-89163"></polygon><polygon points="71 183 94 196 96 189" fill="#848EC6" id="id-89163"></polygon><path d=" M 360,2 C 353,8 346,14 340,21 L 374,42 L 397,23 L 360,2 Z" fill="#354E89" id="id-89163"></path><path d=" M 0,22 C 0,22 15,33 25,40 L 58,17 C 58,17 45,6 37,0 L 0,22 Z" fill="#354E89" id="id-89163"></path></g><defs><linearGradient x1="0%" y1="50%" x2="100%" y2="50%" id="id-91332"><stop stop-color="#95946F" offset="0%"></stop><stop stop-color="#5C5B3C" offset="100%"></stop></linearGradient><linearGradient x1="100%" y1="50%" x2="0%" y2="50%" id="id-91333"><stop stop-color="#575637" offset="0%"></stop><stop stop-color="#9A9462" offset="100%"></stop></linearGradient><linearGradient x1="50%" y1="27%" x2="67%" y2="89%" id="id-91334"><stop stop-color="#333949" offset="0%" stop-opacity="0"></stop><stop stop-color="#424C65" offset="39%"></stop><stop stop-color="#333949" offset="100%" stop-opacity="0"></stop></linearGradient></defs><g transform=" translate(398,1033)" id="id-91335"><path d=" M 401,31 C 413,37 458,14 458,14 C 472,14 479,14 479,14 C 480,17 480,18 480,18 C 481,16 480,14 480,14 C 486,14 490,14 490,14 L 492,19 C 488,24 485,27 485,27 C 491,27 494,27 494,27 C 494,55 495,69 495,69 C 492,66 490,65 490,65 C 485,63 482,61 482,61 C 479,66 478,68 478,68 C 474,69 472,69 472,69 C 472,71 471,73 471,73 C 465,75 459,75 459,75 C 441,88 433,94 433,94 C 330,165 278,201 278,201 C 279,202 279,203 279,203 C 270,209 266,212 266,212 C 262,208 260,205 260,205 C 258,210 257,213 257,213 C 249,216 245,217 245,217 C 248,221 249,223 249,223 C 241,229 236,232 236,232 C 235,230 235,230 235,230 C 177,268 148,287 148,287 C 151,290 153,292 153,292 C 138,319 130,332 130,332 C 127,371 125,391 125,391 C 165,420 205,452 245,487 L 232,533 L 122,439 L 119,513 L 51,517 L 0,484 L 8,426 L 9,404 L 24,330 L 23,281 L 37,270 L 84,274 L 116,256 L 123,263 L 216,202 L 215,200 L 227,193 L 232,199 L 235,193 L 248,189 L 242,183 L 256,174 L 257,176 L 375,98 L 219,99 L 219,94 L 198,93 L 198,99 L 191,94 L 182,204 C 178,206 177,207 177,207 L 103,203 C 94,196 90,193 90,193 C 96,118 99,81 99,81 C 99,81 98,81 98,81 C 89,152 84,188 84,188 C 74,191 69,193 69,193 C 83,91 90,40 90,40 C 98,40 103,39 103,39 C 103,33 134,32 194,35 L 207,53 L 329,53 C 373,35 397,27 401,31 Z" fill="#150D1B" id="id-91336"></path><path d=" M 425,247 L 355,255 C 322,258 305,260 305,260 L 312,72 L 453,173 L 425,247 Z" fill="#09140B" fill-opacity="0.700" id="id-91337"></path><path d=" M 103,37 C 103,39 103,40 103,40 C 89,41 77,40 67,38 C 67,35 67,32 73,31 C 83,32 103,37 103,37 Z" fill="#6C94D2" id="id-91338"></path><path d=" M 198,94 C 203,95 205,95 205,95 C 193,170 187,207 187,207 C 182,210 180,212 180,212 C 152,214 138,215 138,215 L 99,202 L 177,207 L 182,204 L 191,94 L 198,99 L 198,94 Z" fill="#352202" id="id-91339"></path><path d=" M 49,180 C 55,186 62,190 70,191 L 90,40 L 67,38 C 59,98 53,145 49,180 Z" fill="#354E76" id="id-91340"></path><path d=" M 46,178 C 46,178 45,180 44,184 L 48,195 L 63,204 C 77,202 85,202 85,202 C 86,192 86,187 86,187 L 69,191 C 61,188 54,184 49,180 L 49,178 L 46,178 Z" fill="#D36300" id="id-91341"></path><path d=" M 66,109 C 62,142 60,159 60,159 C 64,162 66,163 66,163 L 72,111 C 68,110 66,109 66,109 Z" fill="#06D979" id="id-91342"></path><path d=" M 59,99 C 58,104 58,106 58,106 C 73,112 80,114 80,114 C 89,109 93,106 93,106 L 81,108 C 66,102 59,99 59,99 Z" fill="#6A92D0" id="id-91343"></path><path d=" M 74,39 C 84,43 89,46 89,46 L 98,40 L 85,36 C 78,38 74,39 74,39 Z" fill="#B6DDFC" id="id-91344"></path><path d=" M 91,193 C 93,195 94,195 94,195 L 171,200 L 183,28 L 104,25 C 95,137 91,193 91,193 Z" fill="#2C293C" id="id-91345"></path><path d=" M 92,186 C 106,178 113,174 113,174 C 139,174 151,175 151,175 C 165,187 172,193 172,193 C 173,183 173,178 173,178 C 162,170 156,167 156,167 C 158,132 159,114 159,114 C 172,107 179,103 179,103 C 176,99 175,98 175,98 C 179,51 181,28 181,28 C 130,26 104,25 104,25 C 100,73 98,97 98,97 C 100,98 101,98 101,98 C 112,109 118,115 118,115 C 115,148 114,164 114,164 L 92,175 C 92,182 92,186 92,186 Z" fill="#D76801" id="id-91346"></path><path d=" M 133,105 C 138,105 141,105 141,105 C 159,89 168,82 168,82 C 170,45 171,27 171,27 C 133,26 114,26 114,26 L 110,77 C 126,96 133,105 133,105 Z" fill="#2B283B" id="id-91347"></path><path d=" M 115,75 C 147,76 163,77 163,77 C 164,51 165,38 165,38 L 117,37 C 116,62 115,75 115,75 Z" fill="#3D415E" id="id-91348"></path><path d=" M 117,37 C 117,44 116,47 116,47 C 148,48 164,48 164,48 L 165,38 C 133,37 117,37 117,37 Z" fill="#04E279" id="id-91349"></path><path d=" M 128,86 C 131,86 150,87 150,87 L 138,97 L 128,86 Z" fill="#04E279" id="id-91350"></path><path d=" M 125,109 C 123,128 123,137 123,137 C 142,138 151,138 151,138 C 152,118 153,108 153,108 L 137,119 C 129,112 125,109 125,109 Z" fill="#7D461F" id="id-91351"></path><path d=" M 179,103 C 186,106 190,108 190,108 C 193,60 194,35 194,35 L 182,28 L 181,28 L 175,98 L 177,101 C 178,102 179,103 179,103 Z" fill="#872800" id="id-91352"></path><path d=" M 0,484 L 8,426 C 9,418 9,414 9,414 C 64,415 91,416 91,416 C 91,413 91,411 91,411 C 97,384 101,371 101,371 L 94,489 L 0,484 Z" fill="#1D2B4F" id="id-91353"></path><path d=" M 46,427 C 57,427 62,427 62,427 L 45,442 C 45,432 46,427 46,427 Z" fill="#9399A7" id="id-91354"></path><path d=" M 51,451 C 60,461 64,466 64,466 L 65,436 C 56,446 51,451 51,451 Z" fill="#D76801" id="id-91355"></path><path d=" M 454,149 C 454,126 454,114 454,114 C 435,100 425,94 425,94 L 393,15 L 345,10 L 341,64 L 337,99 L 333,134 L 332,145 L 448,149 C 452,149 454,149 454,149 Z" fill="#3B3B23" id="id-91356"></path><path d=" M 42,474 C 41,477 41,479 41,479 C 69,480 83,481 83,481 C 83,451 84,435 84,435 C 85,430 86,427 86,427 C 82,426 80,426 80,426 L 78,475 C 54,475 42,474 42,474 Z" fill="#9399A7" id="id-91357"></path><path d=" M 2,403 C 7,405 10,405 10,405 C 61,408 87,409 87,409 C 93,361 96,338 96,338 C 41,337 13,336 13,336 L 13,347 C 6,384 2,403 2,403 Z" fill="#1E2541" id="id-91358"></path><path d=" M 13,336 C 18,333 21,331 24,330 C 69,336 108,330 108,330 L 96,338 C 41,337 13,336 13,336 Z" fill="#555C79" id="id-91359"></path><path d=" M 70,395 C 69,398 69,400 69,400 C 30,397 10,396 10,396 L 11,392 C 50,394 70,395 70,395 Z" fill="#9D0201" id="id-91360"></path><path d=" M 85,282 C 83,280 82,279 82,279 C 104,266 115,259 115,259 C 139,282 151,293 151,293 L 115,264 C 95,276 85,282 85,282 Z" fill="#1B2C51" id="id-91361"></path><path d=" M 158,239 C 177,255 186,262 186,262 C 206,249 215,243 215,243 L 187,221 C 168,233 158,239 158,239 Z" fill="#1A2C52" id="id-91362"></path><path d=" M 237,230 C 243,225 246,223 246,223 L 229,197 L 219,204 C 231,221 237,230 237,230 Z" fill="#3F4754" id="id-91363"></path><path d=" M 231,201 C 234,196 235,194 235,194 C 244,191 249,190 249,190 C 256,199 259,204 259,204 C 258,209 257,212 257,212 C 248,215 244,217 244,217 L 248,222 L 246,223 C 236,208 231,201 231,201 Z" fill="#383A47" id="id-91364"></path><path d=" M 217,201 C 218,203 219,204 219,204 C 226,200 229,197 229,197 L 227,194 C 220,198 217,201 217,201 Z" fill="#6584BA" id="id-91365"></path><path d=" M 316,243 C 403,247 446,248 446,248 C 453,245 456,244 456,244 C 448,242 444,241 444,241 C 448,232 450,227 450,227 C 450,224 450,223 450,223 L 454,149 C 450,149 448,149 448,149 C 371,146 332,145 332,145 C 338,91 341,64 341,64 C 343,28 345,10 345,10 C 340,8 337,8 337,8 L 332,11 L 325,107 L 318,144 C 314,166 313,177 313,177 L 319,173 L 320,178 L 316,208 C 316,231 316,243 316,243 Z" fill="#0A150A" id="id-91366"></path><path d=" M 255,175 C 270,193 277,202 277,202 L 266,210 L 244,183 C 252,178 255,175 255,175 Z" fill="#3F4754" id="id-91367"></path><path d=" M 235,194 C 235,195 236,196 236,196 C 244,194 248,192 248,192 L 247,190 C 239,193 235,194 235,194 Z" fill="#6584BA" id="id-91368"></path><path d=" M 244,183 C 252,178 255,175 255,175 C 257,177 258,178 258,178 L 247,186 C 245,184 244,183 244,183 Z" fill="#6584BA" id="id-91369"></path><path d=" M 277,166 C 279,186 281,197 281,197 C 278,199 277,200 277,200 L 259,177 C 271,169 277,166 277,166 Z" fill="#1D213A" id="id-91370"></path><path d=" M 308,218 C 312,218 314,218 314,218 C 315,187 316,172 316,172 C 311,174 308,176 308,176 L 310,178 C 309,204 308,218 308,218 Z" fill="#3B3B23" id="id-91371"></path><path d=" M 314,207 C 315,188 316,178 316,178 C 319,178 320,178 320,178 C 405,180 447,181 447,181 L 445,213 C 358,209 314,207 314,207 Z" fill="#575637" id="id-91372"></path><path d=" M 329,183 C 329,185 328,193 327,208 L 445,213 L 447,186 C 391,183 352,182 329,183 Z" fill="url(#id-91332)" id="id-91373"></path><path d=" M 327,215 C 327,228 326,234 326,234 C 405,239 444,241 444,241 C 448,232 450,227 450,227 L 445,217 C 366,215 327,215 327,215 Z" fill="#3B3B23" id="id-91374"></path><path d=" M 332,145 C 330,163 330,172 330,172 C 408,174 447,175 447,175 L 448,149 C 371,146 332,145 332,145 Z" fill="url(#id-91333)" id="id-91375"></path><path d=" M 317,135 C 390,137 427,139 427,139 C 427,123 427,115 427,115 C 366,112 336,110 336,110 C 329,107 325,105 325,105 L 321,105 C 321,105 320,105 320,105 C 319,125 317,135 317,135 Z" fill="#575637" id="id-91376"></path><path d=" M 335,110 C 335,110 336,110 336,110 C 334,127 333,136 333,136 L 380,137 C 373,133 370,131 370,131 L 386,113 L 335,110 Z" fill="#938E5F" id="id-91377"></path><path d=" M 323,62 C 321,84 321,96 321,96 C 376,99 403,100 403,100 C 404,80 405,70 405,70 C 394,69 389,69 389,69 C 375,77 368,81 368,81 L 350,65 C 332,63 323,62 323,62 Z" fill="#575637" id="id-91378"></path><path d=" M 338,64 L 335,97 L 403,100 L 405,70 L 389,69 L 368,81 L 350,65 C 342,64 338,64 338,64 Z" fill="#878357" id="id-91379"></path><path d=" M 370,74 C 378,72 390,63 390,63 C 390,29 389,12 389,12 C 386,7 385,4 385,4 C 358,1 344,0 344,0 C 339,6 337,9 337,9 C 348,10 354,11 354,11 L 351,58 C 360,66 366,71 370,74 Z" fill="#908C5F" id="id-91380"></path><path d=" M 358,56 C 367,64 371,68 371,68 C 380,62 384,59 384,59 L 372,46 C 363,52 358,56 358,56 Z" fill="#0D190D" id="id-91381"></path><polygon points="339 9 345 2 352 3 353 11 354 11 353 25 347 10" fill="#383C23" id="id-91382"></polygon><path d=" M 306,246 C 306,255 305,260 305,260 C 338,257 355,255 355,255 C 361,248 364,245 364,245 L 316,243 C 309,245 306,246 306,246 Z" fill="#0A110A" id="id-91383"></path><path d=" M 219,99 C 219,89 219,83 219,79 C 245,82 268,74 287,56 C 289,62 289,76 286,98 C 275,98 252,98 219,99 Z" fill="#2D2C39" id="id-91384"></path><path d=" M 284,65 L 288,66 L 288,70 L 305,82 C 317,72 323,66 323,66 C 321,91 320,103 320,103 C 305,106 298,107 298,107 C 300,150 301,172 301,172 C 303,172 304,171 304,171 C 308,175 311,177 311,177 C 309,204 308,218 308,218 L 295,218 C 295,197 293,177 291,160 C 288,128 286,97 284,65 Z" fill="#575637" id="id-91385"></path><polygon points="219 52 219 97 221 97 221 54 295 53 295 52" fill="#3C4351" id="id-91386"></polygon><path d=" M 291,59 C 310,55 320,53 320,53 L 291,52 L 291,59 Z" fill="#9A9CC5" id="id-91387"></path><path d=" M 278,67 C 276,89 276,100 276,100 C 271,100 269,100 269,100 C 279,182 284,222 284,222 C 303,235 313,242 313,242 C 312,226 312,218 312,218 L 289,217 C 282,117 278,67 278,67 Z" fill="#362916" fill-opacity="0.800" id="id-91388"></path><path d=" M 317,144 L 315,172 L 330,172 L 332,145 C 322,144 317,144 317,144 Z" fill="#575637" id="id-91389"></path><path d=" M 444,241 L 456,244 C 462,157 465,114 465,114 C 441,99 429,91 429,91 C 406,40 394,15 394,15 L 391,15 L 394,18 L 425,94 L 454,114 L 450,223 L 450,227 L 444,241 Z" fill="#7B7853" id="id-91390"></path><path d=" M 427,72 C 426,73 425,76 424,79 L 432,76 L 440,79 C 444,77 448,75 453,73 C 457,75 463,75 471,73 L 475,64 C 472,64 470,66 467,68 C 462,69 454,67 454,67 L 442,73 C 437,71 432,71 427,72 Z" fill="#2C2839" id="id-91391"></path><path d=" M 489,75 C 491,74 493,72 495,69 L 490,65 L 482,61 L 478,68 C 483,68 486,70 489,75 Z" fill="#2C293C" id="id-91392"></path><path d=" M 492,19 C 485,20 482,20 482,20 C 481,41 481,52 481,52 C 490,53 494,54 494,54 C 494,35 494,26 494,26 C 490,26 488,26 488,26 L 492,23 C 492,21 492,19 492,19 Z" fill="#606489" id="id-91393"></path><path d=" M 482,34 L 494,33 L 494,26 L 488,26 C 491,24 492,23 492,23 C 492,22 492,22 492,22 L 482,23 C 482,30 482,34 482,34 Z" fill="#9C9EC7" id="id-91394"></path><path d=" M 421,66 L 479,61 L 479,14 L 458,15 C 424,30 405,36 401,31 C 406,39 413,51 421,66 Z" fill="url(#id-91334)" id="id-91395"></path><path d=" M 86,187 C 85,197 85,202 85,202 L 63,204 L 66,190 L 69,191 L 86,187 Z" fill="#872800" id="id-91396"></path><path d=" M 398,23 C 398,23 400,25 404,29 L 412,31 L 458,13 L 476,14 C 464,15 458,15 458,15 C 431,27 414,33 405,32 C 403,32 402,33 398,23 Z" fill="#9A9CC8" id="id-91397"></path><path d=" M 297,107 C 313,105 320,103 320,103 C 317,149 315,172 315,172 C 311,174 309,176 309,176 C 306,173 304,172 304,172 L 301,172 C 298,129 297,107 297,107 Z" fill="#88855A" id="id-91398"></path><path d=" M 159,471 C 176,485 185,495 201,507 C 195,484 210,457 210,457 L 168,424 C 169,437 166,453 159,471 Z" fill="#1D213A" id="id-91399"></path><path d=" M 285,66 C 291,130 294,181 295,218 C 292,218 289,218 289,218 C 282,143 279,95 280,76 C 280,71 281,68 281,65 C 283,66 285,66 285,66 Z" fill="#878457" id="id-91400"></path><path d=" M 173,178 C 172,188 172,193 172,193 C 179,195 183,195 183,195 L 184,179 C 177,178 173,178 173,178 Z" fill="#872800" id="id-91401"></path></g><defs><linearGradient x1="100%" y1="49%" x2="2%" y2="50%" id="id-99385"><stop stop-color="#2F4047" offset="0%"></stop><stop stop-color="#2F4048" offset="4%"></stop><stop stop-color="#828796" offset="5%"></stop><stop stop-color="#A4ABB3" offset="14%"></stop><stop stop-color="#BCBFC7" offset="15%"></stop><stop stop-color="#F7F9F8" offset="27%"></stop><stop stop-color="#384750" offset="28%"></stop><stop stop-color="#273A40" offset="35%"></stop><stop stop-color="#BECED3" offset="37%"></stop><stop stop-color="#CCDEE0" offset="43%"></stop><stop stop-color="#75858B" offset="44%"></stop><stop stop-color="#75878B" offset="50%"></stop><stop stop-color="#819FAF" offset="51%"></stop><stop stop-color="#84A8B7" offset="63%"></stop><stop stop-color="#4A6B94" offset="64%"></stop><stop stop-color="#416997" offset="77%"></stop><stop stop-color="#293B52" offset="79%"></stop><stop stop-color="#1C3048" offset="93%"></stop><stop stop-color="#707C98" offset="94%"></stop><stop stop-color="#707C98" offset="96%"></stop><stop stop-color="#D2D7DD" offset="98%"></stop><stop stop-color="#D4D9DF" offset="100%"></stop></linearGradient></defs><g transform=" translate(583,530)" id="id-99386"><path d=" M 10,20 L 33,28 C 42,32 46,35 46,35 C 46,35 59,33 84,30 L 112,29 L 112,33 C 112,33 121,28 140,18 L 10,20 Z" fill="#000000" opacity="0.309" id="id-99387"></path><path d=" M 141,1 C 125,7 105,11 79,11 C 53,11 28,8 3,1 L 0,21 C 27,25 53,27 78,27 C 103,27 125,24 145,17 C 145,18 143,13 141,1 Z" fill="url(#id-99385)" id="id-99387" fill-rule="nonzero"></path></g><defs></defs><g transform=" translate(286,243)" id="id-106062"><polygon points="481 335 414 347 378 362 360 360 329 335 277 348 319 405 400 405 479 355" fill="#0F1727" id="id-106063"></polygon><path d=" M 130,1136 C 130,1143 224,1017 276,996 C 327,976 422,733 437,724 C 452,715 501,569 501,569 L 230,881 C 230,881 53,949 130,1136 Z" fill="#101116" opacity="0.406" id="id-106063"></path><polygon points="473 619 647 491 647 450 598 462 542 518" fill="#1A2336" id="id-106063"></polygon><path d=" M 698,515 C 693,525 684,596 683,600 L 682,599 L 640,554 L 634,474 L 617,471 L 589,504 L 574,533 L 555,547 L 563,506 C 452,649 337,852 239,1002 C 227,1012 192,1036 179,1046 C 172,1047 119,1059 113,1061 L 4,1162 C -3,1154 2,1130 1,1121 L 2,1103 L 6,1088 C 2,1072 6,1021 6,1004 L 23,986 L 26,960 L 22,955 L 15,935 C 15,934 21,914 21,913 L 21,864 L 27,857 C 27,854 29,829 30,826 C 23,821 29,812 29,806 C 29,805 42,746 41,745 C 41,745 38,729 38,728 C 42,713 70,672 70,672 L 77,645 C 76,642 76,629 76,626 L 62,613 L 72,592 L 87,508 C 85,506 81,500 79,497 L 70,494 L 54,472 L 64,458 L 69,458 L 127,391 C 129,386 127,380 126,376 C 132,367 146,346 151,338 C 168,339 219,332 225,332 L 284,350 C 288,353 306,364 311,366 L 337,397 C 338,397 427,375 428,375 L 428,373 C 437,363 486,324 497,314 C 501,317 514,325 519,327 L 533,315 C 538,322 547,336 552,342 L 552,342 C 557,345 566,350 571,353 C 577,347 585,338 591,332 L 605,339 C 606,349 602,366 615,369 C 615,369 633,385 646,397 C 655,406 662,409 664,418 C 660,463 677,478 698,515 Z" fill="#1E293B" id="id-106063"></path><path d=" M 698,515 C 693,525 684,596 683,600 L 682,599 L 640,554 L 634,474 L 617,471 L 589,504 L 574,533 L 555,547 L 563,506 C 522,565 402,731 370,792 C 168,663 266,487 338,397 L 428,375 L 428,373 C 437,363 486,324 497,314 C 501,317 514,325 519,327 L 533,315 C 538,322 547,336 552,342 L 552,342 C 557,345 566,350 571,353 C 577,347 585,338 591,332 L 605,339 C 606,349 602,366 615,369 C 615,369 633,385 646,397 C 655,406 662,409 664,418 C 660,463 677,478 698,515 Z" fill="#0F1723" id="id-106063"></path><path d=" M 138,1047 C 248,933 344,724 438,598 L 450,654 C 393,737 284,912 239,1002 L 138,1047 Z" fill="#182132" id="id-106063"></path><path d=" M 698,515 C 693,525 684,596 683,600 L 647,551 L 644,472 L 664,442 C 665,471 687,493 698,515 Z" fill="#222D40" id="id-106063"></path><path d=" M 663,416 L 620,454 L 544,462 L 580,408 L 631,403 L 646,397 C 654,405 660,408 663,416 Z" fill="#1A2638" id="id-106063"></path><path d=" M 605,344 L 579,396 L 507,463 L 446,489 L 544,396 C 547,393 588,332 591,332 L 605,339 C 605,339 605,341 605,344 Z" fill="#1A2638" id="id-106063"></path><path d=" M 572,352 C 550,375 509,421 488,445 L 401,514 L 399,515 L 76,482 L 60,480 L 54,472 L 64,458 L 69,458 L 127,391 C 129,386 127,380 126,376 C 132,367 146,346 151,337 C 168,339 219,332 225,332 L 284,350 C 288,353 306,363 311,366 L 337,397 L 428,375 L 428,373 C 437,363 486,324 497,314 L 503,318 C 473,353 418,399 399,442 L 341,462 L 441,445 L 466,393 L 520,348 L 527,333 L 572,352 Z" fill="#192536" id="id-106063"></path><path d=" M 565,494 L 418,697 L 435,617 L 388,674 C 410,641 493,517 513,486 L 599,468 C 600,470 601,473 601,475 L 565,494 Z" fill="#263146" id="id-106063"></path><polygon points="601 472 483 531 513 486 599 468" fill="#182233" id="id-106063"></polygon><polygon points="489 475 511 479 383 642 367 613 272 694" fill="#293B59" id="id-106063"></polygon><polygon points="332 511 420 517 204 686 292 566 231 581" fill="#1E2A42" id="id-106063"></polygon><path d=" M 317,511 C 239,567 262,565 165,580 L 157,557 L 208,505 L 207,503 L 317,511 Z" fill="#2F3440" id="id-106063"></path><polygon points="120 505 196 510 108 583" fill="#46474E" id="id-106063"></polygon><polygon points="119 500 119 507 97 592 66 616 62 613 72 592 87 508 84 504" fill="#3A4B68" id="id-106063"></polygon><path d=" M 167,593 L 40,722 C 48,706 70,672 70,672 L 77,645 L 76,630 L 90,653 L 167,593 Z" fill="#3A4B68" id="id-106063"></path><path d=" M 283,690 C 279,693 277,815 277,822 L 167,941 L 98,1052 L 2,1160 C -2,1151 2,1129 1,1121 L 2,1103 L 6,1088 C 2,1072 6,1021 6,1004 L 23,986 L 26,960 L 22,955 L 15,935 C 15,934 21,914 21,913 L 21,864 L 27,857 C 27,854 29,829 30,826 C 26,823 27,819 27,819 C 28,810 40,755 41,745 C 93,698 170,630 217,578 L 115,789 L 248,684 L 103,873 L 283,690 Z" fill="#323D54" id="id-106063"></path><polygon points="307 705 307 777 375 662 361 638" fill="#272C37" id="id-106063"></polygon><path d=" M 285,933 L 349,730 L 384,675 C 367,724 313,892 285,933 Z" fill="#273349" id="id-106063"></path><path d=" M 225,332 L 174,377 L 150,339 L 151,338 C 168,339 219,332 225,332 Z" fill="#2D3B51" id="id-106063"></path><path d=" M 290,354 L 254,377 L 174,377 L 225,332 C 230,334 289,350 290,354 Z" fill="#313F59" id="id-106063"></path><path d=" M 167,379 L 274,377 L 337,397 C 295,393 209,384 167,379 Z" fill="#0E1622" id="id-106063"></path><path d=" M 529,399 L 488,445 L 401,514 C 320,502 139,482 60,480 L 54,472 L 64,458 L 69,458 L 127,391 C 128,390 128,387 128,386 C 201,394 345,406 418,409 L 399,442 L 341,462 L 441,445 L 529,399 Z" fill="#2F3C56" id="id-106063"></path><path d=" M 124,391 L 125,391 L 124,392 C 124,392 124,391 124,391 Z" fill="#3BB54A" id="id-106063"></path><path d=" M 150,369 L 128,388 C 129,386 126,378 126,376 L 143,351 L 150,369 Z" fill="#222D3C" id="id-106063"></path><polygon points="135 387 152 377 176 392" fill="#202B3D" id="id-106063"></polygon><path d=" M 125,391 L 124,392 C 124,392 124,391 124,391 L 125,391 Z" fill="#3BB54A" id="id-106063"></path><polygon points="112 438 134 438 58 467 64 458 69 458 127 391 158 396" fill="#40597E" id="id-106063"></polygon><polygon points="213 468 356 404 346 404 401 393 473 347 420 405 417 404 317 478" fill="#40597E" id="id-106063"></polygon><polygon points="330 477 446 449 408 483" fill="#40597E" id="id-106063"></polygon><path d=" M 167,630 C 143,663 60,782 29,806 C 29,805 42,746 41,745 C 66,723 141,654 167,630 Z" fill="#40597E" id="id-106063"></path><path d=" M 157,770 L 21,871 L 21,864 L 27,857 C 27,857 27,852 27,852 L 157,770 Z" fill="#40597E" id="id-106063"></path><path d=" M 84,869 L 16,933 C 17,928 23,911 21,907 L 84,869 Z" fill="#40597E" id="id-106063"></path><path d=" M 137,848 L 280,703 C 219,810 245,788 137,848 Z" fill="#40597E" id="id-106063"></path><path d=" M 154,884 L 75,1054 L 1,1121 L 2,1103 L 6,1088 C 2,1076 5,1023 5,1010 L 154,884 Z" fill="#3B4D6B" id="id-106063"></path><polygon points="663 500 655 547 684 522" fill="#1A2638" id="id-106063"></polygon><path d=" M 573,351 L 557,368 L 515,343 L 529,329 C 529,329 536,330 544,331 C 545,332 551,341 552,342 L 552,342 C 555,344 562,347 573,351 Z" fill="#F2F4F6" id="id-106063"></path><path d=" M 606,345 L 587,337 L 590,331 L 606,339 C 606,338 605,343 606,345 Z" fill="#F2F4F6" id="id-106063"></path><path d=" M 667,455 C 664,461 656,476 653,482 L 659,425 L 640,437 L 632,402 L 643,397 L 601,363 L 606,355 C 606,364 614,366 615,368 C 617,371 659,404 664,415 C 666,418 664,445 667,455 Z" fill="#F2F4F6" id="id-106063"></path><path d=" M 674,472 C 671,473 668,475 667,475 L 661,459 L 666,450 C 667,457 671,466 674,472 Z" fill="#868A94" id="id-106063"></path><path d=" M 698,515 C 695,519 686,526 682,526 L 681,525 L 662,508 C 663,498 667,468 668,459 C 671,470 693,505 698,515 Z" fill="#F2F4F6" id="id-106063"></path><polygon points="129 433 162 403 269 403 200 458 68 468 144 439" fill="#474B58" id="id-106063"></polygon><path d=" M 213,958 L 126,1059 L 115,1061 L 115,1061 C 106,1069 78,1094 29,1137 L 4,1163 C 2,1161 2,1159 2,1158 C 49,1104 155,1000 213,958 Z" fill="#2C1D1D" id="id-106063"></path><path d=" M 545,375 L 529,395 L 491,372 C 490,372 480,372 479,372 L 482,367 L 469,379 L 461,373 L 461,369 L 468,362 L 467,362 L 452,352 L 470,335 C 472,336 486,346 487,346 L 479,353 C 494,360 489,361 506,355 L 507,356 C 507,356 545,375 545,375 Z" fill="#D3783B" id="id-106063"></path><polygon points="442 358 436 366 449 376 456 368" fill="#763017" id="id-106063"></polygon><polygon points="452 376 450 382 457 385 461 381" fill="#763017" id="id-106063"></polygon><polygon points="519 399 514 403 477 382 460 393 467 385 483 378" fill="#D3783A" id="id-106063"></polygon><path d=" M 591,358 L 591,371 L 579,395 C 578,390 578,381 577,376 L 557,376 L 568,358 L 591,358 Z" fill="#BB662A" id="id-106063"></path><path d=" M 574,385 L 572,409 L 566,414 C 566,413 566,394 566,393 L 566,393 L 552,390 L 553,384 L 574,385 Z" fill="#985831" id="id-106063"></path><path d=" M 625,456 L 596,458 L 571,418 L 568,419 L 579,398 L 599,407 C 599,407 600,407 600,407 C 603,414 622,450 625,456 Z" fill="#C36B31" id="id-106063"></path><path d=" M 591,461 L 584,461 C 578,453 565,433 559,425 L 564,422 L 591,461 Z" fill="#C36A2F" id="id-106063"></path><path d=" M 605,484 L 588,507 L 547,474 L 577,464 C 582,468 599,480 605,484 Z" fill="#984A22" id="id-106063"></path><path d=" M 537,475 L 528,477 L 561,500 L 564,507 L 579,520 L 583,513 L 568,503 C 566,498 542,479 537,475 Z" fill="#984A22" id="id-106063"></path><polygon points="585 469 553 479 547 474 577 464" fill="#732F16" id="id-106063"></polygon><polygon points="591 461 584 461 575 448 581 446" fill="#8D4620" id="id-106063"></polygon><polygon points="625 456 596 458 589 447 620 447" fill="#763117" id="id-106063"></polygon><path d=" M 572,409 C 572,409 566,414 566,413 L 566,393 L 574,385 L 572,409 Z" fill="#984A22" id="id-106063"></path><path d=" M 579,395 L 578,384 C 578,384 591,360 591,360 L 591,371 L 579,395 Z" fill="#763117" id="id-106063"></path><polygon points="599 407 571 412 579 398" fill="#763117" id="id-106063"></polygon><polygon points="545 375 529 395 525 393 545 375" fill="#763017" id="id-106063"></polygon><polygon points="486 379 482 385 477 382 460 393 467 385 483 378" fill="#974A22" id="id-106063"></polygon><path d=" M 507,356 L 490,372 C 490,372 480,372 479,372 L 482,367 L 469,379 L 461,373 L 461,369 L 468,362 L 467,362 L 485,345 L 487,346 L 479,353 C 494,360 489,361 506,356 L 507,356 Z" fill="#763017" id="id-106063"></path><path d=" M 179,502 C 177,510 174,525 172,532 L 157,544 C 158,536 162,511 163,504 L 179,502 Z" fill="#743117" id="id-106063"></path><path d=" M 167,539 L 179,529 L 194,547 L 189,576 L 174,584 C 174,582 181,551 179,550 C 177,547 171,541 167,539 Z" fill="#743017" id="id-106063"></path><path d=" M 168,587 C 168,587 171,608 180,608 L 166,624 L 157,603 L 168,587 Z" fill="#753017" id="id-106063"></path><path d=" M 177,741 C 177,740 181,730 181,729 L 181,722 L 184,718 L 184,692 C 183,691 165,675 165,674 C 168,664 169,660 169,664 C 173,666 187,674 191,677 C 193,683 192,709 193,716 L 189,721 C 189,721 190,725 193,730 C 195,735 189,738 177,741 Z" fill="#753017" id="id-106063"></path><path d=" M 193,817 L 194,835 C 186,862 174,904 172,932 C 160,944 161,942 154,958 C 155,924 168,876 176,844 C 177,838 178,829 176,824 L 182,802 L 192,785 L 194,770 L 205,764 L 207,775 C 207,776 192,816 193,817 Z" fill="#753017" id="id-106063"></path><path d=" M 237,1003 L 228,1012 L 218,1017 L 205,1010 C 205,1011 186,992 186,992 L 202,968 C 208,980 228,1000 237,1003 Z" fill="#753017" id="id-106063"></path><polygon points="164 975 172 1005 160 1018 154 1021 150 993 152 985" fill="#753017" id="id-106063"></polygon><path d=" M 237,1003 L 228,1012 L 218,1017 C 216,1016 204,1010 203,1009 L 221,991 C 227,998 238,1003 237,1003 Z" fill="#964D47" id="id-106063"></path><polygon points="193 816 193 817 177 830 176 824 182 802 192 785 194 770 205 764 207 775" fill="#CA7439" id="id-106063"></polygon><polygon points="200 746 195 755 195 763 187 757 177 742 181 731 190 724" fill="#CB7339" id="id-106063"></polygon><path d=" M 175,667 L 167,676 L 163,680 L 152,657 L 157,639 L 167,629 C 165,647 170,659 169,664 L 175,667 Z" fill="#CA7439" id="id-106063"></path><polygon points="176 516 172 532 157 544 161 515" fill="#D1773C" id="id-106063"></polygon><polygon points="244 331 291 310 333 336 289 348" fill="#292D37" id="id-106063"></polygon><path d=" M 289,194 C 289,194 293,170 313,167 C 333,164 351,152 355,151 C 378,147 379,168 425,163 C 432,163 442,165 449,178 C 457,191 438,104 438,104 L 284,104 L 289,194 Z" fill="#221827" opacity="0.397" id="id-106063"></path><path d=" M 287,228 L 292,190 L 292,161 L 298,136 C 316,100 357,112 400,113 C 407,115 423,114 430,126 C 436,138 447,182 447,182 L 469,222 L 438,97 C 438,97 380,54 367,62 C 344,77 284,89 282,107 C 281,119 274,216 287,228 Z" fill="#111926" id="id-106063"></path><path d=" M 534,315 L 535,315 L 520,327 L 517,327 L 527,314 L 529,306 L 492,266 C 485,253 473,232 467,220 L 448,167 C 445,159 439,137 437,130 L 425,113 C 385,107 294,82 289,158 C 289,171 290,220 285,228 L 208,290 L 205,317 L 211,319 L 287,343 L 331,333 L 361,362 L 346,361 L 325,339 L 286,350 C 267,345 222,332 197,322 C 198,318 203,286 203,283 C 230,259 229,243 242,201 C 248,182 256,161 258,144 C 260,119 263,69 292,35 C 334,-8 412,-10 449,36 C 477,70 481,155 484,162 C 486,178 553,295 534,315 Z" fill="#1F2837" id="id-106063"></path><path d=" M 243,258 L 202,289 L 203,283 C 230,259 229,244 242,201 L 243,258 Z" fill="#353A48" id="id-106063"></path><path d=" M 291,42 C 291,42 279,68 283,119 C 286,169 286,207 286,207 L 258,144 C 260,118 263,69 292,35 C 292,38 292,40 291,42 L 291,42 Z" fill="#353A48" id="id-106063"></path><path d=" M 534,315 L 535,315 L 520,327 L 517,327 L 527,314 L 529,306 L 492,266 C 485,253 473,232 467,220 L 448,167 C 445,159 439,137 437,130 L 425,113 C 412,110 342,98 318,110 L 304,24 C 442,-52 477,77 486,167 C 492,182 512,226 525,260 C 534,289 546,299 534,315 Z" fill="#3F567A" id="id-106063"></path><path d=" M 330,106 C 316,108 303,119 297,129 C 293,105 296,53 298,29 C 306,22 315,16 325,12 C 308,47 321,86 330,106 Z" fill="#253146" id="id-106063"></path><path d=" M 441,117 L 441,142 L 437,130 L 425,113 C 411,110 396,107 381,106 C 430,79 414,29 404,6 C 414,9 423,14 431,20 C 435,31 438,46 436,57 C 433,79 441,117 441,117 Z" fill="#6880AE" id="id-106063"></path><path d=" M 530,296 C 515,282 483,254 475,236 C 484,238 509,253 521,258 L 530,296 Z" fill="#41587D" id="id-106063"></path><path d=" M 539,301 C 539,306 537,312 534,315 L 535,315 L 520,327 L 517,327 L 527,314 L 529,306 L 492,266 C 489,261 477,239 475,235 C 489,250 524,287 539,301 Z" fill="#6986BB" id="id-106063"></path><path d=" M 399,111 L 344,110 L 344,100 L 371,82 L 398,98 C 398,101 399,108 399,111 Z" fill="#D67C3D" id="id-106063"></path><polygon points="399 111 344 110 344 103 399 103" fill="#7E331A" id="id-106063"></polygon><path d=" M 525,260 C 517,256 505,250 494,244 C 478,236 483,185 486,167 C 492,182 512,226 525,260 Z" fill="#2B374F" id="id-106063"></path><path d=" M 539,311 C 534,299 533,299 524,290 L 517,242 L 492,193 L 490,231 C 483,213 480,147 480,147 L 474,106 L 461,63 L 416,10 C 476,28 482,141 486,162 C 489,177 549,291 539,311 Z" fill="#F0F2F5" id="id-106063"></path><path d=" M 331,334 L 327,341 L 325,339 L 286,350 C 271,346 235,336 212,328 L 211,319 L 287,343 L 331,333 C 331,333 331,333 331,334 Z" fill="#5C6D92" id="id-106063"></path><polygon points="361 362 346 361 326 340 331 333" fill="#32415E" id="id-106063"></polygon><path d=" M 413,347 L 413,348 L 415,378 L 374,363 C 374,363 412,345 413,345 C 431,339 497,330 517,326 L 519,327 C 522,331 415,347 413,347 Z" fill="#435372" id="id-106063"></path><path d=" M 415,378 L 374,363 C 374,363 412,345 413,345 L 413,348 L 413,348 L 415,378 Z" fill="#273349" id="id-106063"></path></g><defs></defs><g transform=" translate(1199,1639)" fill="#343D53" opacity="0.297" id="id-77036"><path d=" M 22,0 L 27,0 L 27,6 L 22,6 C 18,6 14,8 11,11 C 8,14 6,18 6,22 L 6,27 L 0,27 L 0,22 C 0,16 2,10 6,6 C 10,2 16,0 22,0 L 22,0 Z M 48,0 L 53,0 C 59,0 65,2 69,6 C 72,10 75,16 75,22 L 75,27 L 69,27 L 69,22 C 69,18 67,14 64,11 C 61,8 57,6 53,6 L 48,6 L 48,0 L 48,0 Z M 75,48 L 75,53 C 75,59 72,65 69,69 C 65,72 59,75 53,75 L 48,75 L 48,69 L 53,69 C 57,69 61,67 64,64 C 67,61 69,57 69,53 L 69,48 L 75,48 L 75,48 Z M 27,75 L 22,75 C 16,75 10,72 6,69 C 2,65 0,59 0,53 L 0,48 L 6,48 L 6,53 C 6,57 8,61 11,64 C 14,67 18,69 22,69 L 27,69 L 27,75 L 27,75 Z" id="id-77037" fill-rule="nonzero"></path><path d=" M 11,40 L 11,34 L 21,34 C 22,28 28,22 34,21 L 34,11 L 40,11 L 40,21 C 47,22 53,28 54,34 L 64,34 L 64,40 L 54,40 C 53,47 47,53 40,54 L 40,64 L 34,64 L 34,54 C 28,53 22,47 21,40 L 11,40 Z M 27,34 L 34,34 L 34,27 C 31,28 28,31 27,34 Z M 40,27 L 40,34 L 48,34 C 47,31 44,28 40,27 Z M 48,40 L 40,40 L 40,48 C 44,47 47,44 48,40 Z M 34,48 L 34,40 L 27,40 C 28,44 31,47 34,48 Z" id="id-77037"></path></g></svg>