<?xml version="1.0" encoding="UTF-8"?>
<svg xmlns="http://www.w3.org/2000/svg" xmlns:xlink="http://www.w3.org/1999/xlink" width="134px" height="100px" viewBox="0 0 100 100" version="1.1">
<g id="surface1">
<path style=" stroke:none;fill-rule:nonzero;fill:rgb(20.392157%,23.921569%,32.549021%);fill-opacity:1;" d="M 65.214844 14.582031 C 65.214844 15.90625 65.214844 15.90625 66.542969 18.558594 C 69.191406 19.882812 71.84375 21.207031 74.496094 19.882812 C 75.820312 19.882812 75.820312 19.882812 75.820312 19.882812 C 75.820312 18.558594 77.144531 18.558594 77.144531 18.558594 C 90.398438 30.484375 95.703125 50.367188 87.75 66.273438 C 87.75 68.925781 86.421875 68.925781 85.097656 71.574219 C 85.097656 71.574219 85.097656 72.902344 83.773438 72.902344 C 83.773438 72.902344 81.121094 68.925781 75.820312 70.25 C 73.167969 71.574219 71.84375 72.902344 70.519531 74.226562 C 70.519531 74.226562 70.519531 74.226562 70.519531 75.550781 C 67.867188 80.855469 73.167969 83.503906 73.167969 84.832031 L 63.890625 88.808594 C 61.238281 90.132812 59.914062 90.132812 57.261719 90.132812 C 49.308594 91.457031 45.332031 91.457031 38.707031 90.132812 C 38.707031 90.132812 37.382812 88.808594 37.382812 88.808594 C 34.730469 88.808594 33.40625 87.480469 30.753906 86.15625 C 29.429688 84.832031 26.777344 84.832031 25.453125 83.503906 L 20.148438 78.203125 L 17.5 75.550781 C 17.5 75.550781 17.5 75.550781 17.5 74.226562 C 16.171875 74.226562 16.171875 74.226562 16.171875 74.226562 C 14.847656 72.902344 13.523438 68.925781 12.195312 67.597656 C 10.871094 63.621094 10.871094 63.621094 9.546875 59.648438 C 9.546875 55.671875 8.21875 53.019531 8.21875 49.042969 C 8.21875 47.71875 9.546875 42.414062 9.546875 41.089844 C 10.871094 41.089844 12.195312 41.089844 13.523438 41.089844 C 13.523438 39.765625 14.847656 39.765625 14.847656 38.4375 C 16.171875 35.789062 16.171875 33.136719 13.523438 31.8125 L 16.171875 26.507812 L 18.824219 22.53125 C 20.148438 21.207031 21.476562 19.882812 22.800781 18.558594 C 28.101562 14.582031 30.753906 13.253906 37.382812 10.605469 C 40.03125 9.277344 45.332031 7.953125 49.308594 7.953125 C 54.613281 7.953125 61.238281 9.277344 66.542969 11.929688 C 65.214844 11.929688 65.214844 13.253906 65.214844 14.582031 Z M 0.269531 47.71875 C 0.269531 53.019531 0.269531 54.34375 1.59375 59.648438 C 1.59375 60.972656 1.59375 60.972656 1.59375 62.296875 C 2.917969 64.949219 4.242188 68.925781 5.570312 71.574219 C 6.894531 76.878906 8.21875 78.203125 12.195312 82.179688 C 16.171875 87.480469 25.453125 94.109375 32.078125 96.761719 C 36.054688 98.085938 40.03125 99.410156 44.007812 99.410156 C 51.960938 100.738281 49.308594 99.410156 55.9375 99.410156 C 57.261719 99.410156 57.261719 99.410156 58.589844 99.410156 C 66.542969 98.085938 73.167969 94.109375 79.796875 90.132812 L 85.097656 84.832031 L 91.726562 76.878906 L 94.375 72.902344 C 94.375 71.574219 95.703125 71.574219 95.703125 70.25 L 95.703125 68.925781 C 97.027344 66.273438 98.351562 64.949219 98.351562 62.296875 C 98.351562 62.296875 98.351562 62.296875 98.351562 60.972656 C 101.003906 51.695312 99.679688 38.4375 95.703125 29.160156 L 93.050781 25.183594 C 93.050781 25.183594 93.050781 23.859375 93.050781 23.859375 C 91.726562 22.53125 91.726562 22.53125 91.726562 21.207031 C 90.398438 21.207031 90.398438 21.207031 90.398438 21.207031 C 90.398438 21.207031 90.398438 19.882812 90.398438 19.882812 L 87.75 17.230469 C 86.421875 15.90625 83.773438 13.253906 82.449219 11.929688 C 79.796875 9.277344 75.820312 6.628906 73.167969 5.300781 L 66.542969 2.652344 C 63.890625 2.652344 59.914062 1.324219 57.261719 0 C 50.636719 0 45.332031 0 37.382812 1.324219 C 37.382812 1.324219 36.054688 1.324219 36.054688 2.652344 C 34.730469 2.652344 34.730469 2.652344 33.40625 2.652344 C 28.101562 5.300781 24.125 6.628906 20.148438 10.605469 C 16.171875 13.253906 10.871094 17.230469 9.546875 21.207031 C 8.21875 22.53125 6.894531 25.183594 5.570312 26.507812 L 5.570312 29.160156 C 4.242188 29.160156 4.242188 30.484375 4.242188 30.484375 L 2.917969 34.460938 C 1.59375 35.789062 1.59375 37.113281 1.59375 37.113281 C 1.59375 38.4375 1.59375 38.4375 1.59375 39.765625 C 0.269531 42.414062 0.269531 45.066406 0.269531 47.71875 Z M 0.269531 47.71875 "/>
<path style=" stroke:none;fill-rule:nonzero;fill:rgb(20.392157%,23.921569%,32.549021%);fill-opacity:1;" d="M 49.308594 53.019531 C 49.308594 58.320312 55.9375 62.296875 59.914062 59.648438 L 62.566406 58.320312 C 62.566406 58.320312 63.890625 56.996094 63.890625 55.671875 C 66.542969 51.695312 63.890625 45.066406 57.261719 45.066406 C 55.9375 45.066406 53.285156 45.066406 51.960938 47.71875 L 50.636719 47.71875 C 50.636719 49.042969 49.308594 51.695312 49.308594 53.019531 Z M 49.308594 53.019531 "/>
<path style=" stroke:none;fill-rule:nonzero;fill:rgb(20.392157%,23.921569%,32.549021%);fill-opacity:1;" d="M 28.101562 55.671875 C 28.101562 56.996094 29.429688 59.648438 32.078125 60.972656 C 36.054688 63.621094 41.359375 60.972656 41.359375 54.34375 C 41.359375 47.71875 32.078125 46.390625 29.429688 53.019531 C 29.429688 53.019531 28.101562 54.34375 28.101562 55.671875 Z M 28.101562 55.671875 "/>
<path style=" stroke:none;fill-rule:nonzero;fill:rgb(20.392157%,23.921569%,32.549021%);fill-opacity:1;" d="M 47.984375 80.855469 C 47.984375 83.503906 49.308594 84.832031 50.636719 86.15625 L 50.636719 87.480469 C 51.960938 87.480469 51.960938 87.480469 51.960938 87.480469 C 55.9375 88.808594 59.914062 86.15625 59.914062 82.179688 C 59.914062 78.203125 55.9375 75.550781 51.960938 76.878906 C 50.636719 76.878906 47.984375 79.527344 47.984375 80.855469 Z M 47.984375 80.855469 "/>
<path style=" stroke:none;fill-rule:nonzero;fill:rgb(20.392157%,23.921569%,32.549021%);fill-opacity:1;" d="M 69.191406 26.507812 C 69.191406 30.484375 74.496094 31.8125 77.144531 29.160156 C 81.121094 25.183594 74.496094 19.882812 70.519531 23.859375 C 70.519531 23.859375 69.191406 25.183594 69.191406 26.507812 Z M 69.191406 26.507812 "/>
<path style=" stroke:none;fill-rule:nonzero;fill:rgb(20.392157%,23.921569%,32.549021%);fill-opacity:1;" d="M 24.125 68.925781 C 24.125 70.25 24.125 71.574219 25.453125 71.574219 C 25.453125 72.902344 26.777344 72.902344 28.101562 72.902344 C 29.429688 72.902344 30.753906 71.574219 32.078125 71.574219 C 32.078125 68.925781 32.078125 67.597656 30.753906 66.273438 C 30.753906 64.949219 29.429688 64.949219 28.101562 64.949219 C 26.777344 64.949219 25.453125 66.273438 24.125 67.597656 C 24.125 67.597656 24.125 68.925781 24.125 68.925781 Z M 24.125 68.925781 "/>
<path style=" stroke:none;fill-rule:nonzero;fill:rgb(20.392157%,23.921569%,32.549021%);fill-opacity:1;" d="M 38.707031 34.460938 C 38.707031 39.765625 45.332031 41.089844 46.660156 37.113281 C 46.660156 34.460938 46.660156 33.136719 45.332031 31.8125 C 45.332031 31.8125 45.332031 31.8125 44.007812 31.8125 C 41.359375 30.484375 38.707031 31.8125 38.707031 34.460938 Z M 38.707031 34.460938 "/>
</g>
</svg>
