<?xml version="1.0" encoding="UTF-8"?>
<svg xmlns="http://www.w3.org/2000/svg" xmlns:xlink="http://www.w3.org/1999/xlink" width="134px" height="100px" viewBox="0 0 112 100" version="1.1">
<g id="surface1">
<path style=" stroke:none;fill-rule:nonzero;fill:rgb(20.392157%,23.921569%,32.549021%);fill-opacity:1;" d="M 27.078125 23.457031 C 27.078125 20.988281 28.308594 18.519531 29.539062 17.285156 C 23.382812 17.285156 18.460938 19.753906 13.539062 23.457031 C 9.847656 28.394531 7.382812 33.332031 7.382812 39.507812 C 7.382812 45.679688 9.847656 51.851562 13.539062 55.554688 C 18.460938 60.492188 23.382812 62.964844 29.539062 62.964844 C 32 62.964844 33.230469 61.726562 34.460938 61.726562 C 35.691406 61.726562 36.921875 61.726562 38.152344 60.492188 L 41.847656 67.902344 C 39.382812 67.902344 38.152344 69.136719 35.691406 69.136719 C 34.460938 69.136719 32 70.371094 30.769531 70.371094 L 30.769531 92.59375 L 81.230469 92.59375 L 81.230469 70.371094 C 80 69.136719 78.769531 69.136719 77.539062 69.136719 C 76.308594 69.136719 73.847656 69.136719 72.617188 67.902344 L 75.078125 61.726562 C 76.308594 61.726562 77.539062 61.726562 78.769531 61.726562 C 80 61.726562 81.230469 62.964844 82.460938 62.964844 C 88.617188 62.964844 93.539062 59.257812 98.460938 55.554688 C 102.152344 51.851562 104.617188 45.679688 104.617188 39.507812 C 104.617188 33.332031 102.152344 27.160156 98.460938 23.457031 C 93.539062 19.753906 88.617188 17.285156 83.691406 17.285156 C 84.921875 20.988281 86.152344 25.925781 86.152344 29.628906 L 78.769531 29.628906 C 78.769531 23.457031 76.308594 18.519531 72.617188 13.582031 C 67.691406 9.875 62.769531 7.40625 56.617188 7.40625 C 50.460938 7.40625 45.539062 8.640625 41.847656 12.34375 C 38.152344 14.816406 35.691406 19.753906 34.460938 24.691406 Z M 23.382812 69.136719 C 17.230469 67.902344 12.308594 64.199219 8.617188 60.492188 C 3.691406 55.554688 0 48.148438 0 39.507812 C 0 30.863281 3.691406 23.457031 8.617188 18.519531 C 14.769531 13.582031 22.152344 9.875 29.539062 9.875 C 30.769531 9.875 33.230469 9.875 34.460938 9.875 C 35.691406 8.640625 36.921875 7.40625 38.152344 6.171875 C 43.078125 2.46875 49.230469 0 56.617188 0 C 64 0 72.617188 3.703125 77.539062 8.640625 C 77.539062 8.640625 77.539062 9.875 78.769531 9.875 C 80 9.875 81.230469 9.875 82.460938 9.875 C 89.847656 9.875 97.230469 13.582031 103.382812 18.519531 C 108.308594 23.457031 112 30.863281 112 39.507812 C 112 48.148438 108.308594 55.554688 103.382812 60.492188 C 99.691406 65.433594 94.769531 67.902344 88.617188 69.136719 L 88.617188 100 L 23.382812 100 Z M 23.382812 69.136719 "/>
</g>
</svg>
